<?xml version="1.0" standalone="no"?>
<!DOCTYPE svg PUBLIC "-//W3C//DTD SVG 20010904//EN"
 "http://www.w3.org/TR/2001/REC-SVG-20010904/DTD/svg10.dtd">
<svg version="1.0" xmlns="http://www.w3.org/2000/svg"
 width="600.000000pt" height="600.000000pt" viewBox="0 0 600.000000 600.000000"
 preserveAspectRatio="xMidYMid meet">
<metadata>
Created by potrace 1.15, written by Peter Selinger 2001-2017
</metadata>
<g transform="translate(0.000000,600.000000) scale(0.100000,-0.100000)"
fill="#16364b" stroke="none">
<path d="M1900 5787 c-38 -20 -54 -42 -157 -217 -237 -404 -277 -515 -223
-619 51 -102 165 -125 293 -60 120 61 518 375 564 445 61 94 11 211 -94 221
-60 6 -79 -3 -187 -86 -44 -33 -81 -59 -83 -57 -2 2 24 50 57 107 48 83 60
112 60 147 0 58 -23 98 -70 122 -51 26 -107 25 -160 -3z"/>
<path d="M3034 5701 c-32 -14 -73 -68 -80 -108 -5 -25 -1 -49 12 -82 18 -42
32 -54 169 -145 203 -135 346 -275 405 -397 69 -143 51 -180 -103 -204 -44 -7
-112 -67 -122 -108 -16 -63 28 -143 91 -167 97 -37 276 22 370 122 105 112
126 248 67 421 -45 129 -86 190 -213 317 -224 224 -505 390 -596 351z"/>
<path d="M941 5394 c-129 -35 -253 -138 -312 -261 -42 -87 -51 -200 -24 -299
30 -110 120 -230 223 -295 130 -82 281 15 242 157 -10 35 -26 57 -76 100 -72
63 -101 120 -90 178 13 68 64 107 161 122 126 18 181 138 112 243 -45 68 -121
86 -236 55z"/>
<path d="M2877 5099 c-58 -13 -91 -34 -136 -85 -54 -62 -82 -139 -83 -229 0
-112 43 -188 137 -238 34 -19 56 -22 150 -22 94 0 117 3 156 23 75 37 110 126
75 194 -9 17 -11 38 -7 60 9 41 -12 140 -40 185 -31 49 -97 102 -138 108 -20
4 -45 8 -56 9 -11 2 -37 0 -58 -5z"/>
<path d="M4775 4895 c-22 -8 -54 -30 -72 -49 -48 -52 -58 -101 -45 -222 29
-271 158 -447 352 -484 307 -58 421 304 175 556 -64 65 -128 110 -240 167 -87
44 -119 50 -170 32z"/>
<path d="M2012 4769 c-148 -25 -249 -123 -240 -234 10 -126 113 -172 232 -105
63 36 71 31 86 -50 13 -68 49 -116 99 -131 81 -24 164 21 196 106 16 41 16 49
1 118 -17 76 -65 168 -114 220 -33 35 -115 74 -167 80 -22 2 -64 0 -93 -4z"/>
<path d="M2938 3994 c-248 -60 -340 -289 -184 -461 75 -84 238 -131 463 -136
116 -2 120 -1 155 25 46 35 62 82 56 163 -5 53 -3 64 13 73 28 18 59 87 59
132 0 78 -33 114 -149 164 -129 54 -290 70 -413 40z"/>
<path d="M1085 3966 c-115 -24 -158 -41 -187 -73 -46 -51 -61 -149 -33 -216
33 -80 130 -137 210 -124 19 3 35 2 35 -3 0 -5 -53 -81 -119 -168 -159 -212
-179 -245 -294 -481 -139 -287 -145 -306 -108 -387 25 -55 71 -87 136 -92 72
-6 117 11 175 67 27 26 104 85 172 131 175 118 241 167 435 322 177 141 210
164 221 154 12 -12 -20 -161 -60 -275 -48 -142 -199 -453 -353 -731 -106 -189
-115 -211 -115 -259 0 -162 156 -218 253 -89 34 44 184 293 247 409 151 276
215 432 280 683 52 199 69 357 46 444 -39 154 -154 227 -292 187 -66 -19 -116
-50 -262 -165 -57 -44 -105 -80 -107 -80 -3 0 32 55 76 123 135 203 177 308
166 413 -9 86 -64 166 -141 207 -63 33 -235 34 -381 3z"/>
<path d="M4245 3794 c-206 -45 -317 -156 -319 -320 0 -60 4 -80 32 -137 37
-74 73 -109 150 -145 48 -21 64 -24 140 -20 70 4 98 10 141 32 110 57 187 160
241 327 46 139 30 213 -55 253 -51 24 -239 30 -330 10z m42 -309 c-31 -28 -47
-32 -47 -12 0 15 35 35 60 36 10 0 5 -8 -13 -24z"/>
<path d="M3413 3381 c-56 -26 -102 -91 -159 -225 -52 -122 -53 -154 -7 -215
34 -45 78 -61 166 -61 120 0 210 59 260 169 30 65 30 181 0 236 -54 102 -160
141 -260 96z"/>
<path d="M4939 3051 c-105 -67 -207 -182 -257 -288 -22 -48 -27 -72 -27 -139
0 -72 3 -85 30 -129 19 -31 49 -61 79 -80 44 -26 58 -30 125 -30 59 0 86 5
123 23 110 54 192 162 223 293 30 130 11 221 -63 301 -26 27 -59 56 -74 64
-45 23 -108 18 -159 -15z"/>
<path d="M3935 2604 c-46 -23 -95 -74 -116 -119 -28 -61 -24 -134 16 -260 30
-96 41 -145 33 -145 -2 0 -30 11 -63 25 -148 61 -298 0 -367 -150 -19 -42 -23
-66 -22 -155 0 -60 8 -141 18 -189 28 -130 131 -456 155 -490 49 -68 154 -104
236 -81 126 35 195 173 150 300 -23 66 -20 72 23 47 82 -48 247 -13 346 74 25
22 57 65 73 97 25 52 28 67 28 162 -1 84 -7 125 -29 205 -41 146 -166 536
-182 566 -21 41 -74 90 -119 110 -50 23 -139 24 -180 3z"/>
<path d="M2005 2197 c-65 -22 -98 -42 -149 -94 -53 -52 -139 -175 -162 -228
-27 -65 -14 -132 37 -205 8 -12 0 -26 -38 -67 -133 -143 -192 -334 -172 -553
26 -285 159 -496 409 -652 146 -91 324 -148 467 -148 246 0 559 160 666 342
33 56 37 143 9 195 l-17 32 117 238 c154 310 196 425 219 598 26 195 -49 338
-204 392 -81 28 -211 23 -312 -12 -79 -27 -277 -121 -402 -191 -35 -20 -65
-35 -67 -33 -2 2 -13 44 -25 93 -37 149 -88 229 -175 271 -64 31 -146 40 -201
22z m976 -599 c-25 -71 -196 -478 -226 -539 -31 -61 -33 -134 -5 -189 l20 -38
-46 -51 c-31 -34 -70 -63 -122 -88 -74 -37 -79 -38 -186 -38 -134 0 -185 15
-291 86 -142 96 -203 192 -213 340 -8 130 39 238 128 294 41 26 60 26 60 -1 0
-24 60 -139 93 -179 56 -68 147 -92 224 -60 50 21 72 42 94 90 22 47 23 96 4
148 l-13 39 66 42 c147 94 358 195 409 196 l22 0 -18 -52z"/>
</g>
</svg>
