<?xml version="1.0" standalone="no"?>
<!DOCTYPE svg PUBLIC "-//W3C//DTD SVG 20010904//EN"
 "http://www.w3.org/TR/2001/REC-SVG-20010904/DTD/svg10.dtd">
<svg version="1.0" xmlns="http://www.w3.org/2000/svg"
 width="600.000000pt" height="600.000000pt" viewBox="0 0 600.000000 600.000000"
 preserveAspectRatio="xMidYMid meet">
<metadata>
Created by potrace 1.15, written by Peter Selinger 2001-2017
</metadata>
<g transform="translate(0.000000,600.000000) scale(0.100000,-0.100000)"
fill="#16364b" stroke="none">
<path d="M2372 5378 c-9 -9 -12 -59 -12 -181 0 -92 -5 -201 -11 -240 -30 -203
-111 -333 -259 -414 -89 -49 -100 -60 -100 -99 0 -25 7 -38 25 -50 25 -16 28
-16 78 7 162 75 275 193 333 346 48 127 57 194 56 395 -1 218 -7 241 -62 246
-19 2 -41 -3 -48 -10z"/>
<path d="M3530 5258 c-28 -46 -25 -84 13 -151 56 -100 170 -197 231 -197 21 0
58 19 68 34 32 48 -20 161 -126 274 -50 53 -84 72 -131 72 -29 0 -39 -6 -55
-32z"/>
<path d="M3051 5083 c-13 -3 -47 -28 -76 -57 -63 -63 -95 -139 -95 -227 0 -54
3 -64 29 -90 52 -51 122 -35 208 48 167 162 126 362 -66 326z m59 -127 c0 -30
-21 -67 -61 -111 -23 -25 -45 -45 -50 -45 -30 0 15 116 58 150 30 23 53 26 53
6z"/>
<path d="M4750 4722 c-28 -23 -39 -82 -39 -217 -1 -257 51 -413 144 -431 42
-7 90 16 110 56 42 82 38 258 -9 397 -63 184 -135 253 -206 195z"/>
<path d="M2645 4226 c-86 -38 -104 -138 -38 -208 32 -33 131 -82 201 -98 71
-16 196 -9 246 15 72 35 100 127 54 179 -35 39 -315 126 -403 125 -16 0 -43
-6 -60 -13z"/>
<path d="M5243 3990 c-120 -25 -189 -100 -213 -228 -28 -156 61 -336 200 -405
65 -32 195 -31 263 2 106 52 184 164 194 279 12 137 -64 249 -222 326 -57 28
-157 40 -222 26z m142 -311 c7 -7 2 -17 -15 -31 l-24 -20 -18 22 c-29 36 -24
54 14 46 18 -3 37 -11 43 -17z"/>
<path d="M4194 3756 c-61 -19 -129 -72 -169 -130 -148 -217 -32 -450 225 -448
142 0 243 61 298 181 21 46 26 70 25 131 -2 142 -33 193 -148 247 -70 32 -167
40 -231 19z m107 -295 c-7 -13 -22 -21 -36 -21 -32 0 -32 13 2 40 31 24 51 13
34 -19z"/>
<path d="M1290 3725 c-157 -44 -269 -192 -257 -340 5 -75 32 -129 89 -181 60
-55 118 -88 212 -118 43 -15 94 -35 112 -47 72 -44 137 -165 194 -364 44 -151
58 -228 90 -481 76 -600 172 -819 409 -931 l80 -38 1 -40 c0 -22 9 -54 20 -72
49 -80 173 -101 488 -83 243 15 264 11 322 -61 26 -33 37 -39 70 -39 30 0 43
6 64 31 32 38 33 76 2 122 l-24 35 231 -1 c131 -1 293 4 372 11 419 40 495 55
674 127 258 103 399 191 552 344 129 129 180 220 206 366 18 106 13 266 -12
360 -35 132 -151 317 -254 406 -134 115 -257 163 -421 163 -193 -1 -295 -39
-479 -176 -198 -149 -361 -227 -544 -260 -101 -18 -116 -18 -205 -5 -323 49
-682 306 -1051 752 -262 318 -375 408 -609 487 -139 46 -245 57 -332 33z m234
-309 c192 -64 271 -128 524 -420 239 -277 444 -478 576 -564 221 -145 417
-229 603 -257 126 -19 195 -19 291 1 188 38 519 193 692 322 120 90 163 109
259 118 157 15 292 -68 390 -239 82 -143 80 -328 -5 -489 -16 -29 -64 -89
-109 -133 -67 -67 -101 -91 -205 -146 -137 -73 -251 -120 -347 -144 -93 -23
-630 -65 -833 -65 -397 0 -733 25 -944 69 -298 63 -351 161 -421 776 -32 280
-56 398 -124 599 -105 310 -218 446 -417 505 -74 22 -121 58 -111 85 10 25 70
19 181 -18z"/>
<path d="M2276 2398 c-9 -12 -16 -31 -16 -41 0 -22 55 -77 77 -77 23 0 63 47
63 75 0 59 -91 90 -124 43z"/>
<path d="M2855 2048 c-27 -15 -35 -28 -35 -60 0 -33 35 -68 67 -68 31 0 66 55
58 90 -11 45 -49 61 -90 38z"/>
<path d="M3428 3356 c-69 -71 -173 -281 -159 -320 13 -35 53 -52 87 -37 60 25
194 247 194 321 0 74 -66 94 -122 36z"/>
<path d="M470 2020 c-36 -36 -26 -62 58 -141 134 -128 255 -173 291 -108 19
35 8 70 -34 111 -40 38 -251 158 -277 158 -10 0 -27 -9 -38 -20z"/>
<path d="M5336 1079 c-33 -39 -60 -130 -52 -174 14 -71 76 -110 137 -85 44 19
80 87 87 165 4 61 3 65 -26 94 -25 25 -39 31 -75 31 -38 0 -49 -5 -71 -31z"/>
</g>
</svg>
