<?xml version="1.0" standalone="no"?>
<!DOCTYPE svg PUBLIC "-//W3C//DTD SVG 20010904//EN"
 "http://www.w3.org/TR/2001/REC-SVG-20010904/DTD/svg10.dtd">
<svg version="1.0" xmlns="http://www.w3.org/2000/svg"
 width="600.000000pt" height="600.000000pt" viewBox="0 0 600.000000 600.000000"
 preserveAspectRatio="xMidYMid meet">
<metadata>
Created by potrace 1.15, written by Peter Selinger 2001-2017
</metadata>
<g transform="translate(0.000000,600.000000) scale(0.100000,-0.100000)"
fill="#16364b" stroke="none">
<path d="M1523 5755 c-29 -20 -162 -223 -217 -330 -34 -65 -46 -101 -46 -133
0 -134 117 -171 279 -88 133 68 362 233 388 279 22 39 16 91 -14 121 -50 50
-93 47 -182 -13 -87 -58 -88 -59 -67 -26 29 45 46 78 46 93 0 29 -34 84 -61
97 -36 19 -99 19 -126 0z"/>
<path d="M2375 5448 c-49 -27 -55 -45 -55 -188 -1 -314 -53 -514 -159 -613
-25 -24 -80 -61 -122 -84 -59 -33 -80 -50 -94 -78 -33 -70 5 -147 78 -160 30
-6 51 1 133 41 193 94 295 244 348 511 35 176 47 448 22 508 -25 59 -101 91
-151 63z"/>
<path d="M3523 5320 c-41 -25 -73 -87 -73 -142 0 -125 145 -273 277 -285 50
-4 63 -1 93 19 44 30 60 61 60 119 0 60 -47 154 -109 218 -39 40 -61 53 -118
70 -86 26 -90 26 -130 1z"/>
<path d="M3010 5131 c-98 -30 -180 -108 -206 -197 -49 -170 86 -295 257 -239
95 32 126 58 144 119 24 80 21 187 -5 241 -33 67 -113 99 -190 76z"/>
<path d="M4774 4771 c-11 -5 -32 -23 -46 -39 -63 -75 -36 -385 45 -525 95
-162 315 -203 420 -78 133 158 21 429 -245 595 -79 49 -134 64 -174 47z m221
-450 c11 -36 -11 -17 -24 21 -10 29 -10 31 3 18 7 -8 17 -26 21 -39z"/>
<path d="M2738 4229 c-248 -36 -362 -267 -206 -416 45 -44 133 -82 205 -89
122 -13 267 60 377 189 61 72 75 128 48 190 -11 25 -30 50 -41 57 -59 31 -269
83 -316 79 -5 -1 -36 -5 -67 -10z"/>
<path d="M1081 4102 c-73 -36 -98 -111 -62 -184 25 -52 55 -72 136 -88 68 -14
135 -39 135 -50 0 -4 -30 -21 -67 -38 -69 -32 -156 -55 -251 -67 -92 -12 -139
-72 -130 -166 4 -38 12 -58 32 -77 24 -25 33 -27 99 -26 133 3 349 67 469 140
147 90 202 229 138 354 -43 84 -158 153 -334 199 -97 26 -121 26 -165 3z"/>
<path d="M4218 3780 c-259 -45 -377 -333 -210 -512 131 -141 408 -111 521 56
41 61 59 115 71 211 13 104 4 141 -44 183 -54 47 -234 80 -338 62z m62 -284
c0 -17 -19 -33 -45 -38 -29 -5 -25 24 5 39 32 16 40 16 40 -1z"/>
<path d="M1682 3691 c-69 -24 -97 -51 -123 -120 -54 -142 24 -316 173 -391
134 -66 268 -17 319 118 51 137 -24 328 -155 391 -53 26 -140 27 -214 2z"/>
<path d="M5148 3611 c-122 -39 -210 -116 -249 -220 -40 -106 -9 -246 77 -340
67 -75 156 -106 257 -90 120 20 214 85 265 183 22 44 26 64 26 141 1 77 -3 98
-26 147 -28 61 -115 160 -160 184 -37 19 -121 17 -190 -5z m80 -323 c-18 -26
-38 -35 -38 -16 0 18 20 38 38 38 12 0 12 -3 0 -22z"/>
<path d="M3464 3390 c-41 -9 -64 -26 -108 -78 -46 -55 -136 -235 -136 -271 0
-43 40 -95 80 -104 27 -7 48 -4 92 13 117 44 212 183 213 312 0 62 -2 70 -30
97 -34 33 -66 42 -111 31z"/>
<path d="M2552 3275 c-170 -51 -253 -106 -447 -295 -128 -124 -165 -150 -314
-217 -148 -67 -199 -101 -301 -203 -108 -108 -162 -194 -209 -335 -87 -262
-57 -542 80 -745 43 -63 266 -285 354 -352 107 -81 255 -144 405 -172 217 -41
440 4 626 127 193 127 460 393 588 586 106 161 165 260 185 314 44 120 37 274
-20 416 -28 72 -168 319 -249 441 -20 31 -42 80 -49 112 -23 106 -154 247
-291 312 -58 27 -77 31 -170 33 -88 3 -118 -1 -188 -22z m173 -371 c8 -4 22
-21 29 -38 8 -17 53 -80 101 -141 49 -60 104 -135 123 -165 19 -30 54 -85 78
-121 82 -129 98 -167 99 -244 0 -63 -3 -75 -32 -116 -17 -25 -51 -84 -75 -130
-79 -153 -210 -307 -390 -459 -147 -125 -247 -170 -378 -170 -134 0 -221 40
-382 172 -139 114 -216 190 -241 236 -92 169 -40 444 111 583 62 58 82 69 210
123 168 70 227 111 382 266 148 148 176 169 271 194 63 17 72 18 94 10z"/>
<path d="M383 2278 c-12 -6 -30 -27 -39 -47 -17 -36 -17 -36 31 -181 27 -80
71 -189 98 -243 98 -194 252 -317 398 -319 151 -3 245 96 219 231 -32 169
-186 324 -506 507 -114 66 -152 76 -201 52z m439 -502 c73 -92 14 -63 -64 31
-27 32 -48 61 -48 66 0 15 74 -48 112 -97z"/>
<path d="M4475 1912 c-16 -11 -36 -26 -43 -35 -13 -15 -16 -15 -41 4 -42 31
-93 35 -143 10 -73 -36 -83 -59 -82 -181 1 -118 44 -313 90 -407 76 -157 251
-163 326 -13 30 60 48 131 79 308 28 161 27 221 -1 266 -39 65 -123 86 -185
48z"/>
</g>
</svg>
