<?xml version="1.0" standalone="no"?>
<!DOCTYPE svg PUBLIC "-//W3C//DTD SVG 20010904//EN"
 "http://www.w3.org/TR/2001/REC-SVG-20010904/DTD/svg10.dtd">
<svg version="1.0" xmlns="http://www.w3.org/2000/svg"
 width="600.000000pt" height="600.000000pt" viewBox="0 0 600.000000 600.000000"
 preserveAspectRatio="xMidYMid meet">
<metadata>
Created by potrace 1.15, written by Peter Selinger 2001-2017
</metadata>
<g transform="translate(0.000000,600.000000) scale(0.100000,-0.100000)"
fill="#16364b" stroke="none">
<path d="M2371 5422 c-27 -26 -28 -31 -34 -172 -11 -242 -44 -436 -92 -529
-30 -60 -102 -127 -187 -174 -37 -21 -74 -47 -83 -60 -19 -27 -19 -86 0 -114
27 -38 68 -39 138 -2 261 135 353 272 392 584 20 158 20 406 1 444 -29 54 -93
66 -135 23z"/>
<path d="M3522 5295 c-58 -42 -66 -114 -22 -201 38 -77 87 -134 151 -175 42
-27 62 -33 106 -33 50 -1 57 2 85 33 27 30 30 39 26 82 -8 84 -118 238 -199
280 -56 28 -119 34 -147 14z"/>
<path d="M3016 5115 c-77 -27 -143 -114 -171 -223 -22 -84 -13 -136 30 -179
27 -27 41 -33 78 -33 136 0 257 129 257 273 0 71 -21 120 -64 146 -45 27 -85
32 -130 16z m19 -224 c-16 -32 -35 -41 -35 -17 0 19 43 72 48 58 2 -6 -4 -24
-13 -41z"/>
<path d="M4735 4737 c-29 -29 -33 -41 -40 -106 -15 -153 16 -358 69 -453 84
-148 270 -151 337 -4 59 129 -34 396 -192 554 -38 38 -47 42 -92 42 -42 0 -54
-5 -82 -33z"/>
<path d="M2638 4210 c-55 -30 -81 -73 -86 -142 -6 -77 17 -135 72 -186 62 -57
118 -76 213 -70 96 6 170 38 248 110 65 59 82 104 63 163 -17 51 -45 69 -163
106 -132 42 -289 51 -347 19z"/>
<path d="M1100 4103 c-27 -24 -34 -38 -35 -70 -1 -28 -9 -50 -28 -72 -42 -50
-37 -97 16 -163 63 -77 124 -112 207 -116 99 -6 169 35 205 120 44 106 -21
222 -163 289 -35 17 -87 33 -116 36 -48 5 -56 3 -86 -24z"/>
<path d="M5200 3864 c-146 -40 -220 -158 -207 -330 10 -139 95 -259 212 -303
67 -25 94 -26 166 -5 105 31 193 104 246 206 23 44 27 66 27 133 1 121 -41
189 -169 276 -46 30 -57 34 -135 36 -53 2 -106 -3 -140 -13z m131 -304 c27
-15 8 -50 -26 -50 -38 0 -35 50 3 59 2 1 12 -4 23 -9z"/>
<path d="M4181 3749 c-125 -63 -210 -183 -219 -312 -4 -60 -2 -73 27 -131 53
-108 142 -162 266 -160 87 1 150 30 217 102 79 84 118 188 118 312 -1 149 -88
220 -270 220 -66 0 -86 -4 -139 -31z m128 -281 c-20 -38 -59 -53 -59 -24 0 17
37 46 58 46 10 0 10 -5 1 -22z"/>
<path d="M3454 3380 c-62 -25 -214 -259 -214 -329 0 -44 38 -81 83 -81 99 0
270 204 270 322 0 71 -70 116 -139 88z"/>
<path d="M1570 3173 c-14 -2 -83 -13 -155 -24 -238 -37 -338 -73 -426 -156
-105 -98 -151 -206 -153 -358 -1 -81 3 -113 22 -167 43 -124 146 -242 254
-291 21 -9 84 -26 140 -37 125 -25 193 -56 246 -114 53 -58 83 -117 153 -310
32 -87 74 -186 93 -221 116 -207 272 -336 463 -386 100 -26 282 -35 398 -19
50 6 214 15 365 20 433 13 823 63 1017 131 195 69 341 161 511 324 195 186
262 308 297 545 28 179 14 323 -40 431 -33 66 -156 188 -253 253 -199 132
-368 164 -559 105 -37 -12 -139 -57 -225 -100 -243 -122 -279 -132 -478 -132
-252 0 -327 27 -627 221 -158 102 -249 150 -343 180 -93 30 -290 78 -394 97
-80 14 -243 18 -306 8z m300 -379 c188 -35 315 -91 528 -231 298 -196 428
-250 647 -268 44 -4 104 -13 133 -21 87 -22 338 7 487 56 62 21 192 90 326
173 134 84 212 74 334 -44 84 -80 99 -113 98 -214 -2 -115 -45 -243 -121 -358
-39 -59 -215 -195 -307 -238 -100 -46 -207 -73 -405 -99 -85 -11 -191 -28
-235 -37 -62 -13 -155 -18 -415 -21 -671 -9 -639 -10 -692 16 -97 48 -159 144
-238 367 -67 190 -125 291 -229 398 -117 121 -236 193 -407 246 -115 35 -148
56 -164 106 -16 48 10 91 72 123 103 53 420 78 588 46z"/>
<path d="M435 2095 c-18 -17 -25 -35 -25 -64 0 -22 4 -42 9 -46 6 -3 30 -48
55 -100 74 -158 187 -255 295 -255 36 0 49 6 77 34 33 33 39 53 34 116 -5 80
-114 197 -267 289 -100 59 -140 65 -178 26z"/>
<path d="M5067 1340 c-19 -16 -42 -30 -50 -30 -31 0 -65 -23 -83 -55 -36 -67
-1 -232 62 -290 32 -29 97 -34 144 -10 55 28 99 165 100 308 0 40 -5 53 -29
78 -41 41 -97 41 -144 -1z"/>
</g>
</svg>
