<?xml version="1.0" standalone="no"?>
<!DOCTYPE svg PUBLIC "-//W3C//DTD SVG 20010904//EN"
 "http://www.w3.org/TR/2001/REC-SVG-20010904/DTD/svg10.dtd">
<svg version="1.0" xmlns="http://www.w3.org/2000/svg"
 width="600.000000pt" height="600.000000pt" viewBox="0 0 600.000000 600.000000"
 preserveAspectRatio="xMidYMid meet">
<metadata>
Created by potrace 1.15, written by Peter Selinger 2001-2017
</metadata>
<g transform="translate(0.000000,600.000000) scale(0.100000,-0.100000)"
fill="#16364b" stroke="none">
<path d="M1959 5808 c-29 -16 -56 -52 -120 -162 -46 -77 -131 -208 -189 -291
-136 -193 -147 -211 -160 -269 -28 -127 69 -229 202 -212 77 11 160 49 373
173 105 61 222 127 260 148 94 51 132 80 150 115 42 82 -11 187 -110 220 -54
18 -92 6 -211 -65 -59 -36 -109 -65 -110 -65 -2 0 31 52 72 116 83 130 90 163
54 235 -40 76 -134 102 -211 57z"/>
<path d="M3050 5689 c-62 -26 -100 -85 -100 -156 0 -80 22 -104 153 -166 138
-66 215 -117 294 -196 99 -99 171 -263 144 -330 -16 -37 -44 -56 -128 -86 -75
-28 -100 -47 -119 -92 -44 -103 17 -216 115 -215 92 1 290 105 356 186 102
127 115 254 44 450 -81 223 -271 412 -561 557 -107 54 -156 66 -198 48z"/>
<path d="M905 5377 c-119 -45 -224 -141 -278 -255 -31 -64 -32 -72 -32 -192 0
-119 2 -129 33 -201 60 -139 186 -249 287 -249 84 0 155 66 155 145 0 66 -17
99 -79 154 -70 60 -91 101 -91 175 0 47 4 60 30 89 32 36 51 46 140 71 81 22
112 59 118 136 4 60 4 60 -40 105 -45 45 -46 45 -114 44 -46 0 -89 -8 -129
-22z"/>
<path d="M2815 5030 c-122 -31 -200 -129 -220 -277 -9 -66 16 -164 53 -212 72
-95 142 -125 297 -125 125 -1 161 12 203 75 20 28 23 43 20 93 -4 52 -9 63
-39 91 l-35 32 18 34 c36 66 16 132 -61 210 -76 75 -152 101 -236 79z"/>
<path d="M4765 4896 c-37 -16 -92 -77 -101 -113 -4 -14 -4 -71 -1 -127 13
-227 114 -413 262 -482 105 -50 245 -21 315 64 84 102 80 276 -8 404 -60 88
-148 157 -292 230 -80 40 -124 46 -175 24z"/>
<path d="M1883 4656 c-60 -19 -127 -60 -157 -97 -20 -24 -26 -41 -26 -80 0
-62 20 -101 67 -134 50 -34 113 -34 168 0 65 40 80 35 114 -38 36 -81 78 -110
158 -110 61 0 93 18 131 74 30 43 27 111 -10 189 -37 81 -89 134 -165 172 -56
27 -78 32 -152 35 -54 2 -102 -2 -128 -11z"/>
<path d="M2969 3961 c-102 -20 -203 -100 -254 -201 -29 -57 -46 -146 -38 -197
9 -60 50 -138 93 -177 56 -51 166 -103 267 -127 110 -26 145 -20 195 32 35 37
38 44 38 98 0 96 -51 153 -155 172 -92 17 -125 33 -125 63 0 47 50 57 148 30
47 -13 65 -14 101 -4 143 38 147 212 8 276 -88 40 -188 52 -278 35z"/>
<path d="M1144 3920 c-186 -19 -227 -34 -272 -101 -20 -29 -23 -44 -20 -101 7
-122 84 -194 204 -192 l61 2 -76 -119 c-42 -66 -134 -208 -204 -317 -226 -347
-283 -501 -227 -612 37 -72 127 -118 201 -101 46 10 55 16 120 74 30 26 140
111 244 188 307 226 457 337 508 375 l47 36 0 -52 c0 -94 -49 -251 -180 -570
-77 -190 -150 -333 -237 -465 -71 -108 -78 -123 -77 -167 1 -115 127 -181 226
-120 39 24 173 221 273 401 91 163 231 530 282 741 35 143 39 375 8 459 -26
71 -84 135 -140 157 -97 37 -196 -1 -398 -151 -70 -52 -127 -93 -127 -90 0 3
38 61 84 129 135 201 176 290 176 380 -1 90 -69 174 -163 200 -68 19 -211 26
-313 16z"/>
<path d="M4255 3789 c-205 -29 -329 -153 -329 -329 0 -177 131 -321 293 -321
79 -1 127 14 197 59 103 67 171 167 224 326 36 109 19 188 -50 229 -50 30
-237 50 -335 36z m35 -325 c-21 -24 -51 -37 -62 -26 -12 12 28 42 55 42 17 0
17 -2 7 -16z"/>
<path d="M3456 3395 c-82 -29 -140 -116 -196 -290 -34 -108 -34 -135 0 -190
33 -53 77 -68 189 -63 85 3 103 7 151 34 165 93 197 350 59 468 -63 53 -130
67 -203 41z"/>
<path d="M4941 3005 c-43 -19 -181 -153 -236 -230 -67 -94 -90 -157 -90 -245
1 -87 24 -143 78 -184 86 -66 193 -71 299 -14 100 53 162 143 199 286 38 150
21 243 -63 328 -70 71 -121 87 -187 59z"/>
<path d="M4027 2566 c-51 -19 -103 -60 -135 -109 -24 -36 -27 -49 -27 -126 1
-75 6 -99 39 -184 20 -55 35 -101 32 -104 -3 -3 -41 6 -83 20 -112 37 -169 42
-235 23 -143 -41 -219 -172 -203 -348 13 -154 129 -547 181 -615 56 -73 167
-119 249 -104 78 15 117 44 154 118 28 57 27 135 -3 246 -14 48 -21 87 -17 87
4 0 18 -12 32 -26 59 -65 158 -80 270 -42 50 17 76 34 120 77 72 72 94 132 94
251 -1 106 -10 144 -95 405 -38 116 -76 235 -84 266 -39 143 -158 211 -289
165z"/>
<path d="M2050 2151 c-72 -22 -138 -78 -233 -197 -75 -94 -92 -136 -82 -201 9
-59 73 -126 137 -143 l43 -12 -50 -25 c-61 -31 -152 -122 -188 -187 -52 -93
-69 -169 -69 -306 0 -140 20 -238 71 -347 95 -202 295 -389 472 -441 199 -58
466 -55 631 8 132 49 301 189 334 275 35 92 -15 207 -108 250 l-51 24 34 14
c49 21 60 35 151 217 106 211 141 300 185 474 30 118 37 159 37 251 1 101 -1
114 -26 161 -32 60 -84 108 -147 136 -57 26 -179 34 -252 19 -85 -18 -241 -85
-402 -171 -81 -44 -151 -80 -155 -80 -4 0 -13 23 -19 51 -26 106 -90 192 -169
225 -36 15 -103 17 -144 5z m920 -421 c0 -20 -51 -227 -72 -290 -23 -72 -65
-159 -127 -265 -43 -73 -53 -132 -31 -189 16 -43 79 -104 126 -122 l45 -17
-38 -17 c-21 -10 -63 -43 -93 -75 -30 -31 -82 -71 -115 -88 -59 -31 -63 -32
-196 -32 l-135 0 -77 38 c-160 79 -252 205 -264 359 -6 86 7 145 42 182 40 44
67 35 111 -36 102 -167 217 -215 331 -141 106 68 128 206 48 300 -32 38 -75
113 -75 132 0 6 16 17 36 26 20 8 77 38 127 67 138 78 330 177 345 178 6 0 12
-5 12 -10z"/>
</g>
</svg>
