<?xml version="1.0" standalone="no"?>
<!DOCTYPE svg PUBLIC "-//W3C//DTD SVG 20010904//EN"
 "http://www.w3.org/TR/2001/REC-SVG-20010904/DTD/svg10.dtd">
<svg version="1.0" xmlns="http://www.w3.org/2000/svg"
 width="600.000000pt" height="600.000000pt" viewBox="0 0 600.000000 600.000000"
 preserveAspectRatio="xMidYMid meet">
<metadata>
Created by potrace 1.15, written by Peter Selinger 2001-2017
</metadata>
<g transform="translate(0.000000,600.000000) scale(0.100000,-0.100000)"
fill="#16364b" stroke="none">
<path d="M2575 5513 c-61 -16 -110 -88 -160 -237 -55 -165 -14 -289 117 -347
64 -28 173 -30 335 -5 57 9 110 16 120 16 10 0 -16 -32 -66 -82 -110 -108
-172 -187 -318 -405 -137 -204 -151 -239 -131 -316 18 -70 45 -108 98 -135 44
-23 48 -24 230 -15 269 12 412 9 523 -11 55 -10 113 -15 132 -12 40 8 90 47
110 87 21 40 19 117 -5 156 -27 45 -62 60 -202 85 -100 19 -158 23 -310 22
-173 -1 -186 0 -178 16 35 66 159 211 307 360 202 204 228 243 221 340 -5 66
-35 115 -98 158 -79 54 -207 59 -445 19 -77 -13 -141 -20 -143 -16 -2 4 11 35
29 69 26 50 31 69 26 105 -10 92 -110 169 -192 148z"/>
<path d="M1655 5111 c-193 -69 -485 -301 -603 -478 -44 -67 -47 -135 -8 -194
43 -64 59 -68 267 -66 199 2 273 -9 284 -44 3 -10 10 -66 15 -125 7 -96 11
-110 37 -142 79 -98 201 -95 270 7 20 30 23 46 23 136 0 131 -14 206 -53 278
-52 99 -143 156 -296 186 l-84 17 53 39 c29 22 103 65 164 95 64 32 118 66
129 82 29 40 33 115 8 156 -44 69 -111 87 -206 53z"/>
<path d="M4175 4720 c-79 -25 -272 -124 -308 -158 -74 -70 -49 -195 46 -231
47 -18 74 -13 160 30 80 41 207 89 234 89 41 0 -31 -214 -146 -435 -98 -189
-101 -212 -44 -297 20 -30 52 -65 70 -78 32 -22 34 -22 250 -14 215 9 340 8
377 -3 15 -4 17 -12 12 -44 -10 -61 -63 -210 -130 -368 -35 -80 -66 -156 -69
-169 -15 -62 46 -151 117 -170 49 -14 112 6 141 43 28 37 177 395 210 505 49
165 47 294 -7 374 -79 120 -223 159 -498 138 -69 -6 -127 -9 -129 -7 -1 2 20
57 47 122 68 158 90 230 104 334 10 77 9 96 -6 153 -22 81 -78 148 -151 182
-65 31 -190 32 -280 4z"/>
<path d="M1972 3985 c-116 -50 -287 -105 -403 -130 -92 -20 -130 -42 -152 -88
-24 -50 -21 -103 8 -152 44 -77 108 -90 264 -55 170 38 451 146 511 197 16 13
36 44 46 68 14 38 15 51 4 89 -19 68 -81 117 -148 116 -15 -1 -74 -21 -130
-45z"/>
<path d="M3729 3700 c-108 -37 -313 -169 -373 -241 -50 -59 -43 -154 15 -203
64 -54 136 -48 212 17 61 52 175 127 192 127 26 0 -28 -165 -117 -355 l-53
-112 -61 -32 c-128 -66 -142 -201 -28 -272 71 -44 121 -35 338 55 283 118 357
164 406 249 91 158 -43 337 -204 272 -15 -7 -17 -5 -12 12 19 58 36 166 36
225 0 215 -152 327 -351 258z"/>
<path d="M2420 3460 c-83 -18 -213 -61 -302 -99 -106 -45 -140 -160 -71 -242
57 -67 122 -75 240 -28 95 38 247 79 291 79 30 0 32 -2 32 -35 0 -42 -19 -99
-77 -234 -36 -82 -44 -112 -40 -142 17 -130 182 -174 268 -71 30 35 102 195
131 290 29 96 30 251 2 312 -75 163 -238 221 -474 170z"/>
<path d="M1155 3161 c-93 -33 -172 -96 -194 -154 -25 -64 -9 -141 37 -191 35
-37 97 -66 144 -66 l37 0 -4 -47 c-38 -405 -55 -713 -45 -807 12 -98 25 -132
69 -169 86 -72 220 -54 280 36 14 22 45 58 68 81 24 23 66 82 94 131 103 180
204 330 268 398 62 65 66 68 72 46 11 -38 10 -237 -1 -350 -6 -57 -26 -172
-45 -254 -40 -173 -43 -217 -15 -263 27 -44 98 -76 149 -67 48 9 107 48 126
85 80 155 129 556 107 871 -15 205 -50 285 -146 337 -43 23 -137 19 -207 -7
-124 -47 -299 -192 -379 -317 -23 -35 -45 -64 -47 -64 -5 0 -2 37 24 268 18
157 11 232 -27 336 -25 67 -91 143 -145 167 -52 24 -154 24 -220 0z"/>
<path d="M4781 2728 c-78 -39 -130 -145 -115 -237 l6 -38 -98 -18 c-287 -52
-448 -174 -531 -403 -62 -172 -36 -320 92 -506 l45 -67 -42 -39 c-22 -22 -49
-40 -58 -40 -9 0 -60 18 -113 40 -241 98 -381 100 -564 10 -129 -63 -274 -211
-407 -412 -23 -34 -49 -61 -65 -66 -15 -5 -49 -28 -76 -52 -84 -73 -112 -72
-186 7 -79 83 -141 207 -194 387 -14 49 -36 104 -50 121 -74 98 -242 87 -313
-21 -54 -80 -50 -133 22 -322 97 -253 255 -481 396 -572 109 -70 242 -89 356
-50 73 25 115 53 196 128 35 33 77 66 95 75 37 19 54 41 133 163 75 116 189
232 264 269 72 35 124 31 239 -21 157 -69 217 -87 297 -88 64 0 85 4 142 31
75 35 154 107 181 166 10 20 20 58 24 85 5 45 7 48 56 72 91 44 145 143 134
242 -7 58 -25 93 -78 155 -46 53 -63 88 -74 149 -9 55 5 67 107 93 250 64 307
87 393 156 105 85 151 291 105 466 -35 131 -194 199 -319 137z"/>
<path d="M3105 2481 c-103 -19 -297 -66 -420 -103 -155 -45 -214 -176 -139
-305 49 -84 149 -114 270 -79 191 56 416 106 476 106 27 0 30 -3 24 -22 -27
-103 -30 -137 -13 -192 12 -37 29 -65 57 -89 77 -71 162 -68 236 7 34 33 47
59 72 137 47 145 57 216 44 284 -24 118 -83 194 -191 243 -50 23 -70 26 -186
29 -93 2 -159 -3 -230 -16z"/>
</g>
</svg>
