<?xml version="1.0" standalone="no"?>
<!DOCTYPE svg PUBLIC "-//W3C//DTD SVG 20010904//EN"
 "http://www.w3.org/TR/2001/REC-SVG-20010904/DTD/svg10.dtd">
<svg version="1.0" xmlns="http://www.w3.org/2000/svg"
 width="600.000000pt" height="600.000000pt" viewBox="0 0 600.000000 600.000000"
 preserveAspectRatio="xMidYMid meet">
<metadata>
Created by potrace 1.15, written by Peter Selinger 2001-2017
</metadata>
<g transform="translate(0.000000,600.000000) scale(0.100000,-0.100000)"
fill="#16364b" stroke="none">
<path d="M3090 5653 c-63 -45 -82 -103 -55 -171 13 -32 50 -70 158 -165 170
-149 286 -268 310 -319 17 -36 17 -40 1 -73 -28 -60 -180 -178 -321 -248 l-51
-26 -16 24 c-25 39 -72 58 -128 53 -68 -7 -242 -97 -315 -163 -75 -68 -107
-130 -106 -210 0 -135 94 -237 243 -265 62 -12 104 0 147 42 73 71 63 191 -19
234 -34 18 -31 26 27 60 l44 25 32 -35 c40 -46 97 -63 158 -47 63 17 253 111
344 170 110 72 206 172 248 256 32 66 34 75 34 175 0 99 -2 109 -34 174 -41
84 -124 170 -305 317 -243 197 -252 202 -315 207 -42 2 -62 -1 -81 -15z"/>
<path d="M1914 5490 c-28 -11 -70 -67 -80 -105 -8 -32 -61 -107 -193 -270 -44
-55 -94 -127 -111 -161 -94 -184 -9 -342 195 -361 81 -7 206 10 378 53 177 45
201 56 232 109 41 68 30 139 -27 193 -49 46 -77 46 -255 0 -90 -22 -166 -38
-170 -35 -3 4 30 50 74 104 183 224 216 321 143 423 -12 17 -34 37 -50 45 -32
16 -102 19 -136 5z"/>
<path d="M1080 5337 c-96 -48 -216 -170 -262 -267 -57 -120 -72 -189 -72 -325
-1 -100 3 -131 23 -189 28 -81 94 -182 141 -213 70 -48 186 -19 225 57 18 35
19 117 2 146 -84 145 -100 213 -73 308 21 71 74 132 168 192 87 56 103 81 103
160 0 75 -20 108 -85 142 -59 30 -93 28 -170 -11z"/>
<path d="M4640 4762 c-65 -32 -91 -133 -50 -199 20 -33 20 -33 0 -65 -40 -66
-21 -141 56 -228 85 -94 207 -140 316 -121 136 24 247 140 248 260 1 147 -104
239 -378 335 -118 41 -143 43 -192 18z"/>
<path d="M1854 4319 c-127 -21 -325 -118 -392 -192 -34 -36 -51 -92 -41 -135
16 -75 85 -132 156 -132 52 0 68 8 139 65 29 24 78 53 111 65 58 22 75 22 208
5 116 -16 210 147 145 252 -41 69 -173 98 -326 72z"/>
<path d="M2605 3764 c-100 -17 -237 -56 -270 -78 -114 -75 -63 -260 78 -283
22 -3 65 4 123 22 108 34 224 45 224 23 0 -28 -40 -131 -77 -197 -53 -96 -102
-168 -232 -339 -139 -183 -158 -214 -167 -269 -17 -114 104 -198 211 -147 33
15 158 163 262 309 149 209 287 503 300 641 15 161 -91 292 -262 323 -71 13
-87 13 -190 -5z"/>
<path d="M4078 3746 c-20 -7 -56 -24 -80 -39 -119 -70 -167 -201 -121 -331 20
-55 88 -136 142 -171 104 -64 243 -73 340 -19 98 53 189 183 199 285 4 45 3
48 -66 188 -23 47 -58 70 -128 87 -74 17 -237 17 -286 0z"/>
<path d="M1120 3631 c-101 -33 -252 -118 -292 -166 -79 -93 -50 -248 55 -296
46 -20 121 -25 163 -9 15 6 29 8 32 5 3 -3 -31 -89 -75 -192 -92 -214 -150
-386 -187 -553 -35 -159 -40 -208 -27 -258 13 -46 67 -107 109 -123 57 -22
132 -30 167 -19 41 14 214 194 461 480 92 107 189 218 216 245 l48 50 0 -30
c0 -16 -16 -100 -35 -185 -98 -429 -185 -878 -185 -955 0 -92 62 -157 149
-157 111 1 142 46 176 252 30 180 75 389 150 695 69 284 78 347 72 486 -5 132
-16 173 -60 231 -64 86 -186 114 -283 68 -64 -32 -173 -138 -309 -303 -66 -81
-121 -143 -123 -138 -1 4 24 77 57 163 117 305 141 455 92 566 -28 63 -102
133 -159 150 -56 17 -148 14 -212 -7z"/>
<path d="M3560 3331 c-117 -38 -199 -128 -243 -266 -38 -121 -31 -198 25 -252
60 -58 118 -67 189 -30 24 13 68 27 97 31 166 22 292 128 292 247 0 147 -117
268 -270 275 -36 2 -76 0 -90 -5z"/>
<path d="M4765 2896 c-46 -20 -93 -63 -123 -115 -24 -40 -27 -56 -27 -132 0
-81 2 -90 42 -170 69 -135 130 -189 215 -189 53 0 79 10 116 44 39 35 54 75
54 141 -1 75 -25 138 -65 169 -30 24 -30 24 -17 70 28 101 -37 197 -132 196
-18 -1 -46 -7 -63 -14z"/>
<path d="M2943 2525 c-131 -20 -297 -81 -499 -183 -116 -59 -154 -106 -154
-193 0 -108 89 -199 194 -199 33 0 76 14 163 54 142 65 313 129 321 121 11
-11 -97 -285 -166 -419 -64 -126 -45 -224 55 -283 76 -44 173 -33 230 29 30
32 235 455 269 553 38 113 44 239 14 317 -40 108 -134 186 -250 208 -63 12
-71 12 -177 -5z"/>
<path d="M4383 2346 c-53 -17 -114 -61 -143 -104 -29 -41 -36 -115 -20 -193 7
-33 11 -61 9 -64 -2 -2 -49 10 -104 27 -81 24 -119 31 -200 32 -91 1 -105 -2
-153 -27 -101 -53 -184 -151 -223 -264 -24 -70 -25 -212 -4 -432 17 -174 33
-221 93 -271 125 -104 313 -54 362 94 12 39 10 164 -7 333 l-6 62 73 -20 c40
-11 87 -27 104 -36 64 -35 283 -11 382 41 124 65 194 184 194 330 0 100 -47
354 -75 401 -53 92 -164 127 -282 91z"/>
<path d="M2117 1866 c-50 -18 -72 -39 -97 -90 -35 -73 -25 -144 32 -228 14
-21 37 -83 52 -145 42 -169 85 -302 122 -378 30 -61 115 -177 244 -333 75 -91
219 -174 425 -245 82 -28 102 -31 215 -32 123 0 126 1 200 36 132 62 189 132
190 230 0 121 -99 214 -209 194 -20 -3 -63 -22 -95 -42 -86 -52 -121 -51 -241
12 -105 55 -105 54 -165 221 -49 138 -133 226 -237 248 -35 8 -47 32 -93 185
-74 251 -150 358 -265 375 -24 3 -55 0 -78 -8z"/>
</g>
</svg>
