<?xml version="1.0" standalone="no"?>
<!DOCTYPE svg PUBLIC "-//W3C//DTD SVG 20010904//EN"
 "http://www.w3.org/TR/2001/REC-SVG-20010904/DTD/svg10.dtd">
<svg version="1.0" xmlns="http://www.w3.org/2000/svg"
 width="600.000000pt" height="600.000000pt" viewBox="0 0 600.000000 600.000000"
 preserveAspectRatio="xMidYMid meet">
<metadata>
Created by potrace 1.15, written by Peter Selinger 2001-2017
</metadata>
<g transform="translate(0.000000,600.000000) scale(0.100000,-0.100000)"
fill="#16364b" stroke="none">
<path d="M2400 5403 c-48 -17 -50 -27 -50 -202 0 -233 -23 -349 -99 -500 -40
-79 -107 -146 -187 -188 -34 -18 -67 -40 -74 -48 -33 -40 -2 -115 48 -115 39
0 141 60 207 121 95 89 166 228 218 423 18 69 21 110 22 278 0 163 -3 200 -15
212 -19 17 -50 26 -70 19z"/>
<path d="M3516 5278 c-36 -57 -39 -73 -21 -129 10 -30 28 -70 40 -89 29 -45
117 -127 150 -140 34 -13 91 -13 115 0 26 14 42 68 31 106 -24 84 -116 214
-175 249 -57 33 -120 34 -140 3z"/>
<path d="M3026 5096 c-93 -35 -179 -168 -179 -278 0 -67 19 -101 68 -125 29
-14 41 -14 75 -4 106 31 220 183 220 292 0 96 -87 150 -184 115z m54 -138 c-1
-38 -88 -143 -105 -126 -3 3 2 24 11 47 22 56 94 116 94 79z"/>
<path d="M4768 4753 c-46 -29 -53 -61 -52 -263 1 -208 20 -310 72 -385 80
-115 196 -90 236 53 36 129 13 309 -59 458 -70 145 -124 182 -197 137z"/>
<path d="M2649 4211 c-45 -14 -67 -30 -89 -67 -33 -52 -24 -123 19 -168 73
-75 209 -123 321 -112 84 7 203 64 225 106 21 40 19 87 -5 120 -16 23 -44 35
-147 68 -193 61 -261 72 -324 53z"/>
<path d="M5240 3972 c-105 -39 -167 -97 -196 -185 -50 -152 34 -366 173 -435
147 -74 364 13 449 180 38 73 45 194 17 259 -29 65 -76 114 -154 159 -65 39
-70 40 -156 39 -56 0 -104 -7 -133 -17z m159 -297 c8 -9 -32 -45 -50 -45 -18
0 -39 27 -39 51 0 8 12 10 42 5 23 -4 44 -9 47 -11z"/>
<path d="M4199 3742 c-151 -50 -242 -169 -243 -317 0 -111 58 -201 161 -251
151 -74 334 7 416 184 27 59 31 80 35 178 l4 111 -31 35 c-42 49 -99 70 -201
74 -64 3 -99 0 -141 -14z m91 -274 c0 -19 -32 -48 -52 -48 -16 0 -17 3 -7 23
19 35 59 52 59 25z"/>
<path d="M1076 3484 c-100 -32 -162 -90 -213 -199 -24 -52 -28 -72 -28 -155 0
-82 4 -103 26 -151 32 -68 84 -127 147 -168 66 -42 121 -60 233 -76 112 -15
163 -39 212 -96 44 -51 107 -172 136 -259 29 -90 75 -288 105 -457 51 -276
113 -418 244 -556 96 -99 218 -175 342 -210 75 -22 251 -37 336 -30 69 5 255
-6 543 -33 238 -22 463 -18 692 11 489 63 689 110 859 202 184 99 274 174 354
298 89 136 133 260 155 445 27 214 2 378 -80 516 -51 87 -228 260 -314 307
-187 102 -338 117 -572 56 -160 -42 -255 -91 -510 -265 -154 -104 -211 -130
-329 -150 -81 -14 -111 -15 -171 -6 -169 27 -386 147 -813 450 -110 78 -216
145 -420 265 -264 155 -323 178 -574 233 -196 43 -292 50 -360 28z m287 -363
c316 -64 557 -194 1122 -605 357 -260 592 -356 870 -356 217 0 359 51 570 205
216 158 270 191 375 227 129 44 263 42 359 -6 60 -31 146 -122 176 -188 49
-108 58 -298 20 -443 -43 -168 -122 -263 -285 -343 -182 -89 -340 -120 -850
-168 -140 -13 -235 -15 -480 -10 -168 4 -335 11 -372 16 -43 6 -113 6 -194 0
-332 -27 -487 64 -584 344 -10 31 -40 149 -65 263 -88 393 -125 518 -198 657
-58 112 -174 228 -277 278 -83 40 -185 68 -246 68 -47 0 -128 38 -132 63 -3
14 4 17 46 17 28 0 93 -9 145 -19z"/>
<path d="M2221 2331 c-28 -28 -27 -66 4 -96 32 -33 70 -32 91 0 34 52 16 99
-43 111 -24 5 -36 1 -52 -15z"/>
<path d="M2856 2064 c-32 -31 -10 -82 44 -104 28 -12 33 -11 55 10 30 28 32
63 5 90 -24 24 -82 27 -104 4z"/>
<path d="M3432 3335 c-62 -52 -188 -276 -176 -311 14 -38 36 -54 76 -54 33 0
45 7 97 59 66 67 141 201 141 250 0 41 -39 81 -79 81 -17 0 -42 -11 -59 -25z"/>
<path d="M485 2028 c-44 -25 -48 -73 -7 -111 15 -14 49 -49 77 -77 68 -71 126
-103 186 -104 37 -1 54 4 70 21 26 25 28 72 5 104 -24 36 -115 98 -202 140
-90 42 -99 44 -129 27z"/>
<path d="M5317 1119 c-11 -6 -30 -34 -43 -63 -54 -115 -11 -226 87 -226 76 0
119 65 119 178 0 61 -3 72 -26 96 -21 21 -36 26 -73 26 -25 0 -54 -5 -64 -11z"/>
</g>
</svg>
