<?xml version="1.0" standalone="no"?>
<!DOCTYPE svg PUBLIC "-//W3C//DTD SVG 20010904//EN"
 "http://www.w3.org/TR/2001/REC-SVG-20010904/DTD/svg10.dtd">
<svg version="1.0" xmlns="http://www.w3.org/2000/svg"
 width="600.000000pt" height="600.000000pt" viewBox="0 0 600.000000 600.000000"
 preserveAspectRatio="xMidYMid meet">
<metadata>
Created by potrace 1.15, written by Peter Selinger 2001-2017
</metadata>
<g transform="translate(0.000000,600.000000) scale(0.100000,-0.100000)"
fill="#16364b" stroke="none">
<path d="M1528 5752 c-29 -18 -221 -274 -269 -357 -54 -94 -32 -177 55 -210
41 -16 48 -16 98 -1 30 8 94 41 143 72 50 31 145 90 211 130 128 78 162 115
149 166 -22 86 -102 101 -208 39 -37 -22 -67 -38 -67 -36 0 2 11 21 25 41 36
53 33 98 -9 140 -39 39 -84 45 -128 16z"/>
<path d="M2385 5451 c-11 -5 -29 -19 -40 -31 -18 -20 -21 -41 -26 -214 -7
-203 -25 -312 -75 -438 -48 -124 -96 -179 -204 -233 -72 -36 -88 -51 -96 -91
-11 -60 48 -124 114 -124 49 0 171 69 234 132 45 45 70 83 112 170 56 116 106
258 127 363 18 87 15 361 -4 407 -23 55 -86 81 -142 59z"/>
<path d="M3501 5303 c-75 -76 -36 -225 88 -334 67 -60 117 -83 180 -83 49 0
56 3 87 37 45 48 46 100 4 183 -64 129 -163 207 -280 221 -45 5 -51 3 -79 -24z"/>
<path d="M2969 5110 c-120 -63 -189 -256 -126 -351 34 -51 100 -82 164 -76 62
6 160 52 185 87 10 14 25 54 34 90 29 110 3 195 -75 247 -44 30 -129 31 -182
3z"/>
<path d="M4739 4742 c-26 -23 -33 -39 -40 -88 -10 -72 4 -250 27 -324 40 -137
122 -237 217 -265 64 -19 92 -19 150 1 99 34 156 141 143 267 -14 137 -103
255 -284 375 -79 53 -100 62 -137 62 -35 0 -52 -6 -76 -28z m251 -410 c0 -15
-2 -15 -10 -2 -13 20 -13 33 0 25 6 -3 10 -14 10 -23z"/>
<path d="M2655 4213 c-116 -47 -174 -125 -175 -234 0 -145 129 -259 295 -259
138 0 314 99 399 224 45 67 31 160 -31 204 -16 10 -82 33 -149 50 -140 37
-270 43 -339 15z"/>
<path d="M1079 4093 c-36 -22 -59 -64 -59 -108 0 -72 41 -120 119 -136 31 -6
80 -20 110 -32 l55 -20 -22 -18 c-35 -27 -138 -57 -242 -70 -52 -6 -108 -18
-123 -26 -56 -28 -84 -115 -56 -175 5 -13 26 -34 45 -47 33 -23 40 -23 152
-18 133 6 207 23 307 71 88 42 143 90 178 155 98 179 -16 357 -271 422 -91 23
-158 24 -193 2z"/>
<path d="M4203 3756 c-139 -45 -244 -165 -260 -294 -18 -159 124 -312 290
-312 193 0 331 145 357 373 11 90 -4 143 -48 177 -64 51 -258 83 -339 56z m77
-296 c-9 -18 -40 -40 -54 -40 -15 0 -4 31 16 44 33 23 51 21 38 -4z"/>
<path d="M1629 3697 c-54 -36 -64 -67 -64 -197 0 -106 2 -120 28 -172 44 -89
118 -138 209 -138 101 0 194 74 224 177 35 121 -41 268 -171 329 -70 33 -178
34 -226 1z"/>
<path d="M5183 3646 c-127 -31 -233 -112 -281 -214 -23 -48 -27 -71 -27 -142
0 -73 4 -93 28 -142 96 -196 336 -222 502 -54 118 119 155 269 94 388 -25 50
-111 139 -156 162 -37 19 -87 19 -160 2z m31 -318 c-13 -23 -37 -48 -46 -48
-14 0 -9 19 12 40 22 22 45 27 34 8z"/>
<path d="M3375 3326 c-22 -24 -64 -89 -93 -144 -62 -119 -67 -159 -23 -202 39
-40 73 -46 137 -26 76 24 131 70 171 143 82 150 36 273 -101 273 -46 0 -53 -3
-91 -44z"/>
<path d="M2635 3213 c-89 -6 -248 -34 -315 -55 -100 -32 -203 -89 -345 -194
-78 -57 -175 -117 -243 -150 -122 -60 -245 -146 -305 -213 -162 -181 -266
-507 -237 -741 13 -94 23 -126 73 -225 35 -68 61 -100 176 -214 211 -209 337
-316 422 -361 173 -90 370 -132 518 -111 135 20 237 63 400 168 47 31 122 77
166 103 154 92 314 236 463 419 42 51 103 123 134 159 37 42 70 94 90 142 31
71 33 81 33 200 -1 111 -4 134 -28 205 -16 44 -48 113 -72 153 -52 87 -200
283 -271 361 -28 31 -54 68 -57 82 -10 40 -80 113 -159 165 -123 82 -275 119
-443 107z m184 -455 c163 -157 210 -208 308 -338 175 -234 186 -283 89 -403
-22 -29 -53 -70 -67 -92 -67 -102 -256 -276 -414 -382 -44 -30 -115 -78 -159
-108 -97 -68 -170 -96 -262 -102 -123 -9 -177 17 -385 182 -170 135 -278 233
-306 279 -98 154 -52 415 99 566 41 41 87 73 160 110 57 29 155 85 218 123
225 137 266 160 330 184 76 30 183 51 259 52 53 1 54 1 130 -71z"/>
<path d="M410 2258 c-48 -33 -62 -63 -55 -122 7 -58 59 -224 87 -281 41 -80
122 -186 202 -262 124 -120 215 -155 299 -114 80 39 112 139 83 264 -29 124
-95 223 -213 320 -80 65 -306 206 -342 213 -17 4 -38 -3 -61 -18z m384 -509
c16 -27 16 -30 2 -22 -21 11 -96 111 -96 127 1 13 69 -63 94 -105z"/>
<path d="M4524 1851 c-18 -11 -35 -24 -38 -30 -5 -7 -17 -3 -36 11 -67 49
-168 28 -206 -44 -32 -60 -11 -315 36 -454 47 -135 140 -203 240 -173 88 26
127 106 184 372 42 194 45 243 15 281 -45 57 -135 74 -195 37z"/>
</g>
</svg>
