<?xml version="1.0" standalone="no"?>
<!DOCTYPE svg PUBLIC "-//W3C//DTD SVG 20010904//EN"
 "http://www.w3.org/TR/2001/REC-SVG-20010904/DTD/svg10.dtd">
<svg version="1.0" xmlns="http://www.w3.org/2000/svg"
 width="600.000000pt" height="600.000000pt" viewBox="0 0 600.000000 600.000000"
 preserveAspectRatio="xMidYMid meet">
<metadata>
Created by potrace 1.15, written by Peter Selinger 2001-2017
</metadata>
<g transform="translate(0.000000,600.000000) scale(0.100000,-0.100000)"
fill="#16364b" stroke="none">
<path d="M1538 5764 c-18 -9 -53 -58 -97 -132 -148 -250 -184 -356 -146 -437
28 -57 67 -77 143 -72 76 6 121 33 349 215 120 96 154 129 163 157 24 74 -29
145 -108 145 -34 0 -52 -9 -122 -65 -45 -36 -84 -65 -86 -65 -3 0 11 29 31 63
19 35 35 76 35 91 0 42 -28 86 -65 102 -43 17 -63 17 -97 -2z"/>
<path d="M2384 5441 c-12 -5 -30 -21 -41 -35 -18 -23 -21 -45 -26 -238 -4
-169 -10 -230 -26 -296 -43 -171 -112 -267 -236 -329 -82 -41 -104 -65 -105
-113 0 -42 20 -75 60 -95 43 -22 64 -19 143 21 117 58 182 115 248 218 108
166 166 456 144 719 -6 76 -11 93 -33 119 -29 32 -89 45 -128 29z"/>
<path d="M3523 5345 c-46 -20 -76 -84 -71 -149 10 -115 112 -257 220 -306 126
-57 245 16 220 136 -13 58 -85 178 -142 235 -41 41 -92 68 -175 92 -11 3 -34
0 -52 -8z"/>
<path d="M2985 5141 c-120 -55 -211 -235 -175 -347 37 -115 148 -146 286 -80
81 39 95 59 121 179 26 119 2 204 -69 247 -42 25 -110 26 -163 1z"/>
<path d="M4742 4755 c-52 -44 -63 -128 -42 -320 17 -145 52 -235 123 -312 104
-113 246 -122 344 -20 48 50 59 69 73 130 23 105 -39 257 -154 372 -96 96
-204 167 -265 173 -40 3 -52 0 -79 -23z m255 -458 c-5 -15 -37 46 -37 70 1 11
9 3 21 -20 11 -21 18 -44 16 -50z"/>
<path d="M2668 4236 c-94 -25 -162 -89 -192 -179 -32 -94 -10 -184 63 -257 63
-63 126 -84 232 -78 100 6 193 49 300 141 103 88 131 155 95 225 -24 47 -58
70 -151 103 -163 58 -254 70 -347 45z"/>
<path d="M1070 4083 c-48 -25 -80 -76 -80 -129 0 -34 6 -49 33 -77 26 -28 46
-37 112 -52 113 -25 158 -44 144 -61 -17 -21 -161 -73 -280 -101 -60 -14 -120
-34 -133 -44 -35 -27 -60 -99 -51 -145 10 -56 62 -104 113 -104 88 0 310 69
462 143 178 88 251 212 204 349 -33 100 -128 168 -284 207 -129 32 -198 36
-240 14z"/>
<path d="M4290 3774 c-194 -32 -284 -91 -341 -219 -31 -71 -30 -175 4 -242 66
-130 219 -191 364 -145 164 52 270 205 288 418 6 73 5 82 -17 114 -17 25 -38
40 -74 52 -52 17 -179 30 -224 22z m-10 -282 c0 -14 -40 -52 -55 -52 -25 0
-17 28 13 44 31 17 42 19 42 8z"/>
<path d="M1740 3720 c-54 -17 -117 -48 -145 -73 -81 -67 -103 -195 -52 -299
35 -72 128 -160 193 -182 64 -22 158 -20 210 3 78 35 144 144 144 237 0 84
-67 222 -132 274 -59 46 -149 62 -218 40z"/>
<path d="M5137 3592 c-126 -51 -220 -146 -252 -256 -43 -146 21 -305 150 -371
50 -26 69 -30 135 -30 66 0 86 5 143 33 76 37 127 91 166 172 22 47 26 68 26
150 0 80 -4 102 -24 140 -26 51 -122 154 -163 176 -41 21 -106 16 -181 -14z
m73 -321 c-12 -24 -30 -28 -30 -6 0 13 31 38 38 30 2 -2 -1 -13 -8 -24z"/>
<path d="M2635 3390 c-27 -5 -93 -30 -145 -56 -122 -60 -231 -165 -310 -299
-112 -189 -149 -225 -311 -295 -305 -132 -440 -287 -542 -620 -91 -297 -90
-435 3 -637 74 -159 152 -245 327 -363 221 -148 432 -213 645 -197 236 18 410
117 679 386 203 204 281 326 336 523 14 51 32 116 41 143 24 79 20 352 -6 480
-29 135 -80 290 -135 405 -24 53 -47 116 -49 142 -7 62 -73 173 -152 256 -108
113 -237 158 -381 132z m111 -427 c4 -20 35 -95 70 -168 75 -157 169 -450 185
-577 11 -85 11 -89 -14 -140 -14 -29 -31 -75 -37 -101 -32 -145 -123 -288
-284 -445 -180 -176 -272 -224 -431 -224 -150 0 -273 52 -415 178 -125 110
-163 193 -162 349 3 269 139 477 357 545 176 55 349 198 449 371 89 152 131
205 186 232 63 31 87 26 96 -20z"/>
<path d="M3443 3379 c-46 -13 -116 -98 -168 -201 -54 -107 -58 -151 -19 -197
46 -55 129 -58 219 -8 93 53 162 243 122 339 -25 60 -88 87 -154 67z"/>
<path d="M374 2256 c-45 -45 -45 -86 1 -222 65 -196 137 -318 250 -429 141
-139 282 -170 379 -84 114 99 72 308 -99 498 -71 78 -162 143 -296 211 -145
74 -183 78 -235 26z m433 -484 c40 -62 37 -79 -8 -36 -34 31 -109 140 -109
158 0 17 79 -65 117 -122z"/>
<path d="M4415 1978 c-11 -6 -32 -21 -46 -35 -23 -22 -27 -22 -39 -8 -20 24
-65 45 -96 45 -45 0 -111 -38 -136 -78 -20 -33 -23 -48 -21 -137 3 -180 49
-390 105 -470 27 -40 90 -83 133 -91 76 -14 162 36 203 119 38 77 102 383 105
507 2 64 -23 114 -71 143 -34 19 -106 22 -137 5z"/>
</g>
</svg>
