<?xml version="1.0" standalone="no"?>
<!DOCTYPE svg PUBLIC "-//W3C//DTD SVG 20010904//EN"
 "http://www.w3.org/TR/2001/REC-SVG-20010904/DTD/svg10.dtd">
<svg version="1.0" xmlns="http://www.w3.org/2000/svg"
 width="600.000000pt" height="600.000000pt" viewBox="0 0 600.000000 600.000000"
 preserveAspectRatio="xMidYMid meet">
<metadata>
Created by potrace 1.15, written by Peter Selinger 2001-2017
</metadata>
<g transform="translate(0.000000,600.000000) scale(0.100000,-0.100000)"
fill="#16364b" stroke="none">
<path d="M3014 5601 c-56 -34 -146 -223 -159 -332 -13 -107 43 -227 125 -269
52 -26 144 -47 253 -55 48 -4 87 -10 87 -13 0 -4 -31 -26 -68 -49 -70 -43
-157 -115 -357 -293 -65 -58 -131 -116 -147 -128 -38 -32 -58 -73 -58 -121 0
-58 15 -88 66 -138 86 -82 178 -115 468 -169 105 -20 240 -51 300 -71 118 -38
154 -38 200 -2 89 70 65 194 -48 244 -85 37 -203 74 -340 105 -72 17 -155 37
-184 46 -48 13 -52 17 -40 31 31 39 226 185 384 289 94 62 189 127 209 146 74
64 94 158 52 237 -54 104 -194 153 -500 176 -60 5 -90 11 -94 21 -2 7 14 53
36 102 23 49 41 99 41 111 0 34 -25 84 -59 115 -41 39 -120 47 -167 17z"/>
<path d="M1485 5332 c-182 -88 -390 -318 -505 -557 -53 -108 -110 -283 -110
-334 0 -58 30 -112 78 -139 54 -30 91 -28 213 13 168 57 409 115 409 98 0 -4
-38 -76 -85 -158 -95 -166 -145 -285 -145 -342 0 -20 -10 -56 -21 -81 -49
-101 10 -216 122 -237 52 -10 160 29 364 131 267 133 318 176 318 269 0 85
-65 149 -152 149 -34 -1 -67 -11 -126 -42 -44 -22 -81 -39 -82 -38 -2 2 26 59
61 127 99 189 114 275 65 371 -26 51 -64 85 -129 116 -48 23 -68 26 -150 26
-81 -1 -242 -22 -302 -40 -31 -9 -20 18 45 107 116 160 194 237 294 287 62 32
88 75 88 144 0 42 -5 64 -21 84 -57 77 -134 92 -229 46z"/>
<path d="M4564 4510 c-100 -23 -346 -113 -396 -146 -53 -34 -71 -74 -66 -142
4 -48 10 -60 41 -88 60 -55 86 -54 256 10 82 31 155 56 161 56 23 0 -155 -313
-279 -490 -62 -89 -66 -98 -66 -150 0 -62 24 -106 72 -130 15 -8 39 -25 53
-38 42 -41 70 -49 289 -92 116 -22 223 -45 237 -50 24 -10 24 -10 8 -42 -9
-18 -55 -98 -102 -178 -134 -229 -182 -323 -182 -359 0 -86 81 -158 168 -148
59 6 87 36 157 165 31 59 101 181 155 272 57 95 106 190 115 224 55 188 -59
322 -310 365 -51 9 -272 41 -282 41 -9 0 1 24 33 76 44 73 192 375 229 469 33
82 44 201 25 259 -26 81 -105 136 -190 135 -25 0 -81 -9 -126 -19z"/>
<path d="M3771 3668 c-65 -34 -85 -66 -89 -146 -3 -61 -1 -71 30 -121 43 -70
85 -94 155 -87 49 4 52 3 58 -22 4 -17 -2 -46 -17 -84 -18 -47 -27 -58 -46
-58 -47 0 -169 -33 -227 -62 -108 -55 -225 -196 -225 -271 0 -74 58 -136 135
-145 77 -8 107 4 171 67 70 69 107 83 235 85 78 1 89 4 123 30 44 33 66 79 66
135 0 22 4 43 10 46 17 10 49 94 60 155 38 207 -148 470 -350 496 -35 4 -55 0
-89 -18z"/>
<path d="M2435 3596 c-125 -35 -278 -104 -333 -151 -107 -90 -29 -275 115
-275 24 0 59 12 93 31 80 45 197 88 256 95 43 5 52 4 58 -11 20 -53 -56 -285
-192 -579 -49 -109 -56 -160 -28 -214 9 -17 16 -48 16 -69 0 -86 74 -163 162
-171 44 -3 73 4 174 41 129 48 260 85 268 76 9 -8 -40 -168 -79 -261 -43 -101
-51 -145 -35 -193 16 -47 66 -104 107 -121 71 -30 168 -9 219 48 23 25 91 155
126 241 69 172 98 393 64 494 -35 106 -128 176 -254 191 -85 10 -227 -2 -319
-28 -37 -10 -70 -17 -72 -14 -2 2 21 60 53 128 108 237 138 357 116 468 -16
81 -41 129 -96 185 -71 70 -138 96 -264 100 -69 2 -122 -2 -155 -11z"/>
<path d="M1109 3360 c-122 -37 -311 -186 -343 -271 -15 -40 -16 -55 -6 -104
26 -125 146 -196 255 -151 33 14 35 14 35 -5 0 -11 -18 -111 -41 -222 -65
-326 -83 -518 -59 -661 20 -122 76 -179 195 -197 81 -13 129 -3 168 36 13 14
102 138 196 275 210 306 338 487 350 495 20 12 41 -58 41 -136 0 -115 -16
-212 -72 -439 -55 -226 -66 -307 -57 -422 12 -143 80 -236 180 -246 123 -12
195 84 154 205 -22 63 -16 180 15 313 86 361 100 446 100 591 0 91 -5 138 -24
210 -13 52 -27 114 -31 139 -24 147 -115 250 -221 250 -135 0 -261 -119 -483
-457 -41 -62 -76 -112 -77 -110 -2 2 15 115 38 253 27 165 41 283 42 349 1 94
-1 105 -31 166 -34 69 -85 115 -152 137 -38 13 -132 14 -172 2z"/>
<path d="M4675 2291 c-72 -33 -116 -89 -133 -168 l-8 -38 -75 3 c-97 5 -306
-14 -383 -34 -91 -23 -182 -72 -235 -125 -94 -94 -130 -203 -131 -389 0 -161
0 -161 -74 -94 -73 66 -179 121 -260 134 -116 19 -254 -30 -375 -130 -99 -84
-164 -186 -246 -390 -21 -52 -42 -99 -46 -103 -10 -12 -33 70 -85 304 -49 217
-83 326 -117 376 -26 39 -107 83 -153 83 -67 0 -133 -45 -160 -107 -18 -42
-18 -125 0 -168 28 -67 56 -181 86 -360 70 -406 140 -540 310 -595 59 -19 85
-22 154 -18 144 9 190 42 256 183 136 291 220 442 286 512 l33 35 32 -19 c17
-10 62 -52 101 -93 139 -151 210 -191 331 -192 73 0 131 21 208 78 56 41 150
175 168 239 6 22 11 115 11 207 l0 166 31 11 c19 6 107 11 208 11 204 1 304
11 369 40 157 69 222 182 222 382 0 115 -16 164 -66 213 -67 64 -178 84 -259
46z"/>
</g>
</svg>
