<?xml version="1.0" standalone="no"?>
<!DOCTYPE svg PUBLIC "-//W3C//DTD SVG 20010904//EN"
 "http://www.w3.org/TR/2001/REC-SVG-20010904/DTD/svg10.dtd">
<svg version="1.0" xmlns="http://www.w3.org/2000/svg"
 width="600.000000pt" height="600.000000pt" viewBox="0 0 600.000000 600.000000"
 preserveAspectRatio="xMidYMid meet">
<metadata>
Created by potrace 1.15, written by Peter Selinger 2001-2017
</metadata>
<g transform="translate(0.000000,600.000000) scale(0.100000,-0.100000)"
fill="#16364b" stroke="none">
<path d="M3549 5244 c-5 -15 -12 -30 -14 -34 -7 -12 55 -133 97 -188 43 -55
110 -102 146 -102 31 0 56 43 48 82 -10 48 -83 166 -137 220 -42 42 -53 48
-89 48 -35 0 -42 -4 -51 -26z m176 -186 c14 -26 22 -48 16 -48 -20 0 -122 145
-121 173 1 18 76 -71 105 -125z"/>
<path d="M3015 5063 c-87 -45 -134 -123 -135 -219 0 -51 4 -65 24 -87 51 -55
115 -44 200 34 63 57 106 136 106 192 0 29 -7 46 -29 68 -25 25 -37 29 -83 29
-29 -1 -66 -8 -83 -17z m110 -64 c4 -6 4 -26 0 -46 -8 -43 -111 -153 -144
-153 -62 0 -15 144 63 191 34 21 71 25 81 8z"/>
<path d="M4744 4699 c-16 -17 -20 -43 -26 -143 -6 -122 5 -345 21 -418 24
-106 128 -121 151 -23 13 54 12 314 0 450 -9 99 -13 112 -36 133 -33 29 -84
29 -110 1z"/>
<path d="M1610 4305 c-121 -55 -169 -200 -106 -325 15 -29 46 -74 69 -100 103
-115 171 -414 202 -890 9 -124 20 -281 26 -350 5 -69 14 -226 19 -350 16 -402
56 -587 163 -751 60 -93 136 -163 227 -209 65 -33 197 -77 272 -91 l66 -12 0
-146 c-1 -157 8 -213 64 -401 40 -137 52 -189 46 -195 -2 -3 -46 -9 -97 -14
-128 -14 -183 -52 -184 -126 0 -64 44 -95 132 -95 147 0 293 88 321 191 11 39
8 54 -44 218 -69 220 -89 328 -84 443 2 48 6 89 9 91 4 4 428 -6 769 -19 l185
-7 0 -116 c0 -98 5 -136 33 -245 18 -71 50 -173 72 -228 22 -54 40 -104 40
-112 0 -9 -24 -15 -82 -20 -103 -8 -147 -29 -171 -79 -18 -36 -18 -38 0 -70
27 -46 78 -61 165 -47 96 14 169 44 208 85 28 28 34 44 38 89 4 46 -1 68 -28
133 -49 117 -78 206 -105 325 -27 115 -31 195 -14 262 l11 43 124 17 c69 10
169 28 222 41 116 28 322 103 412 151 167 88 296 243 351 424 35 111 32 263
-6 380 -65 200 -153 311 -305 384 l-65 31 -175 -5 c-400 -10 -558 -6 -665 18
-167 38 -264 71 -390 132 -299 146 -544 337 -696 542 -34 46 -112 169 -175
274 -62 105 -141 229 -175 275 -77 105 -360 383 -436 430 -50 30 -67 34 -133
37 -51 1 -86 -3 -110 -13z m153 -151 c18 -8 59 -42 92 -74 33 -32 96 -93 140
-137 105 -101 184 -209 325 -440 145 -238 235 -358 359 -482 158 -156 254
-224 517 -362 150 -79 245 -116 423 -164 217 -59 461 -68 726 -29 144 22 228
7 298 -52 89 -74 156 -225 164 -369 9 -159 -30 -278 -128 -388 -66 -74 -141
-122 -273 -174 -216 -85 -333 -113 -580 -138 -176 -18 -290 -19 -446 -4 -63 6
-207 11 -320 10 -113 0 -225 4 -250 9 -25 5 -94 14 -155 19 -130 13 -276 50
-361 91 -79 38 -168 132 -211 223 -67 136 -98 310 -108 597 -4 91 -13 233 -21
315 -7 83 -21 256 -29 385 -16 253 -22 303 -61 510 -46 247 -91 373 -162 458
-60 74 -72 95 -72 135 0 69 60 97 133 61z"/>
<path d="M2460 2580 c-35 -8 -48 -51 -26 -85 37 -56 87 -57 114 -3 25 53 -26
104 -88 88z"/>
<path d="M2922 2264 c-29 -20 -29 -64 1 -92 30 -28 61 -28 87 0 57 62 -18 141
-88 92z"/>
<path d="M2653 4240 c-31 -13 -56 -65 -48 -99 12 -54 65 -87 239 -146 60 -20
135 -40 167 -42 53 -5 59 -4 83 22 44 47 33 122 -21 143 -324 124 -378 140
-420 122z"/>
<path d="M5233 3971 c-133 -50 -197 -140 -197 -281 0 -154 80 -300 190 -346
47 -20 152 -17 223 5 112 35 225 128 252 208 15 47 7 170 -15 214 -29 61 -81
114 -160 163 -70 44 -81 47 -158 52 -66 4 -93 1 -135 -15z m151 -304 l30 -13
-22 -22 c-12 -12 -29 -22 -37 -22 -18 0 -38 37 -31 56 7 17 21 17 60 1z"/>
<path d="M4200 3744 c-272 -99 -313 -463 -61 -549 57 -19 166 -19 222 0 161
57 246 268 177 441 -20 50 -30 61 -77 87 -46 26 -67 31 -135 34 -57 2 -94 -2
-126 -13z m110 -259 c0 -18 -28 -45 -46 -45 -20 0 -17 27 6 50 21 21 40 19 40
-5z"/>
<path d="M471 2026 c-27 -32 -8 -50 129 -118 154 -77 188 -89 213 -76 24 12
21 45 -5 62 -23 15 -280 134 -309 143 -8 2 -21 -2 -28 -11z"/>
<path d="M5333 1088 c-49 -55 -75 -156 -54 -210 6 -16 25 -37 43 -48 60 -38
132 -8 164 67 15 34 19 151 6 169 -33 47 -124 60 -159 22z"/>
</g>
</svg>
