<?xml version="1.0" standalone="no"?>
<!DOCTYPE svg PUBLIC "-//W3C//DTD SVG 20010904//EN"
 "http://www.w3.org/TR/2001/REC-SVG-20010904/DTD/svg10.dtd">
<svg version="1.0" xmlns="http://www.w3.org/2000/svg"
 width="600.000000pt" height="600.000000pt" viewBox="0 0 600.000000 600.000000"
 preserveAspectRatio="xMidYMid meet">
<metadata>
Created by potrace 1.15, written by Peter Selinger 2001-2017
</metadata>
<g transform="translate(0.000000,600.000000) scale(0.100000,-0.100000)"
fill="#16364b" stroke="none">
<path d="M2189 5437 c-65 -43 -108 -211 -80 -312 19 -71 65 -132 122 -160 57
-29 133 -35 279 -20 l73 7 -40 -73 c-115 -210 -146 -275 -183 -387 -22 -68
-40 -138 -40 -158 0 -107 91 -175 193 -144 60 18 87 55 131 175 22 60 84 198
138 308 100 204 119 256 120 339 0 99 -77 194 -182 225 -44 13 -80 15 -187 9
l-132 -6 10 35 c34 124 -116 234 -222 162z"/>
<path d="M3712 5244 c-70 -18 -105 -37 -135 -73 -51 -61 -43 -156 17 -209 49
-43 84 -48 160 -22 36 12 82 20 103 18 l38 -3 3 -53 c4 -62 -22 -163 -72 -282
-43 -102 -47 -161 -13 -211 31 -47 81 -71 136 -66 65 7 91 32 148 145 179 357
119 680 -141 757 -62 19 -174 18 -244 -1z"/>
<path d="M1770 4891 c-167 -18 -309 -59 -444 -130 -48 -25 -99 -58 -112 -74
-63 -75 -31 -192 66 -245 26 -14 36 -27 41 -53 8 -51 35 -95 71 -117 20 -12
98 -33 196 -52 193 -36 303 -69 392 -117 54 -29 73 -34 109 -30 47 5 83 27
115 71 30 39 29 130 -1 172 -23 33 -120 88 -213 123 -55 20 -261 74 -332 87
-21 3 -38 10 -38 14 0 18 158 50 247 50 77 0 95 3 124 23 98 66 109 207 19
260 -34 20 -140 28 -240 18z"/>
<path d="M3135 4351 c-60 -21 -164 -62 -230 -90 -66 -29 -187 -75 -270 -102
-167 -56 -188 -66 -215 -112 -56 -92 19 -207 136 -207 62 0 236 53 428 129 94
38 224 85 287 105 83 26 123 44 141 63 72 75 60 178 -27 228 -59 35 -116 32
-250 -14z"/>
<path d="M4313 4300 c-101 -7 -132 -21 -163 -73 -38 -62 -17 -157 43 -201 26
-19 42 -21 205 -21 205 0 227 -6 237 -64 7 -43 -8 -174 -35 -308 -25 -119 -25
-137 1 -182 28 -50 64 -73 119 -79 54 -5 101 15 126 54 36 54 94 361 94 496 0
122 -29 207 -90 268 -103 104 -242 132 -537 110z"/>
<path d="M2130 3878 c-132 -49 -283 -79 -425 -87 -112 -6 -148 -11 -174 -27
-96 -56 -101 -200 -9 -266 28 -19 48 -24 126 -26 181 -7 364 27 559 104 123
49 163 90 163 167 0 62 -24 108 -72 137 -41 25 -96 24 -168 -2z"/>
<path d="M3645 3757 c-67 -25 -519 -261 -549 -286 -70 -60 -54 -190 30 -242
64 -39 103 -31 266 57 79 43 165 90 192 106 27 16 51 26 54 24 3 -3 -7 -36
-21 -74 -46 -115 -30 -196 45 -242 63 -39 162 -17 199 44 47 78 129 338 129
412 0 49 -28 125 -58 157 -66 70 -172 86 -287 44z"/>
<path d="M2160 3236 c-76 -8 -138 -19 -157 -29 -86 -45 -103 -168 -34 -238 44
-43 88 -50 254 -39 80 5 160 7 176 4 28 -6 30 -9 23 -33 -4 -14 -7 -52 -7 -84
0 -55 2 -61 37 -92 93 -85 224 -39 264 93 25 85 24 215 -2 272 -27 58 -77 108
-134 134 -56 25 -231 30 -420 12z"/>
<path d="M4925 3237 c-56 -22 -95 -51 -123 -91 -25 -36 -27 -48 -28 -140 -1
-56 -2 -110 -3 -122 0 -12 -47 -66 -112 -130 -134 -133 -196 -212 -254 -327
-67 -132 -88 -213 -89 -332 -1 -106 12 -170 50 -245 81 -162 265 -187 384 -52
49 55 64 107 55 187 -24 202 -6 249 147 383 181 157 236 233 277 382 34 122
25 304 -20 392 -21 42 -68 80 -118 97 -43 14 -127 13 -166 -2z"/>
<path d="M4260 3185 c-14 -7 -49 -41 -78 -74 -144 -165 -341 -261 -605 -296
-116 -16 -131 -21 -164 -57 -73 -80 -27 -217 84 -247 72 -20 319 16 458 66
160 58 303 149 424 271 111 113 132 176 89 262 -39 76 -140 113 -208 75z"/>
<path d="M1247 2999 c-46 -24 -94 -96 -103 -154 -7 -50 21 -124 60 -159 30
-27 33 -44 46 -256 25 -406 83 -672 164 -752 113 -111 278 -53 309 109 4 18
-1 55 -9 85 -42 144 -74 388 -90 673 -7 141 -25 248 -52 308 -60 137 -213 205
-325 146z"/>
<path d="M2063 2516 c-67 -22 -135 -71 -212 -151 -104 -110 -145 -176 -145
-233 0 -88 65 -152 154 -152 62 0 102 22 156 86 69 82 139 154 151 154 6 0 16
-14 23 -30 7 -17 29 -44 49 -60 l35 -30 -19 -47 c-10 -27 -36 -100 -58 -163
-36 -103 -40 -128 -44 -235 -5 -133 13 -251 45 -295 28 -37 91 -70 136 -70 84
0 166 69 169 142 0 18 -7 81 -18 140 -17 100 -17 113 -3 185 9 43 30 113 47
156 17 43 31 86 31 95 0 42 -24 94 -58 129 -34 35 -37 42 -37 98 0 98 -67 206
-162 262 -55 32 -172 41 -240 19z"/>
<path d="M3525 2191 c-55 -11 -167 -35 -250 -54 -82 -19 -220 -47 -305 -62
-214 -37 -225 -41 -264 -81 -71 -74 -68 -199 7 -272 37 -36 94 -62 135 -62 16
0 104 16 195 35 213 44 474 91 602 109 l100 14 34 -30 c42 -37 71 -48 125 -48
99 0 185 82 194 185 4 45 0 64 -22 110 -34 68 -99 126 -168 150 -80 27 -257
29 -383 6z"/>
<path d="M4531 1589 c-14 -5 -48 -32 -76 -58 -28 -27 -65 -55 -81 -64 -35 -18
-118 -33 -229 -42 -197 -16 -433 -80 -571 -154 -145 -78 -317 -227 -339 -292
-11 -31 -16 -34 -62 -39 -33 -4 -64 -15 -93 -35 -137 -97 -158 -105 -255 -105
-70 0 -169 32 -253 82 -32 18 -108 84 -173 150 -120 122 -160 148 -226 148
-142 -1 -221 -151 -150 -286 24 -47 197 -225 280 -287 135 -104 268 -155 453
-176 106 -11 228 0 317 30 133 44 277 144 307 212 17 38 22 41 59 44 54 4 100
30 189 106 160 138 300 196 526 217 222 21 304 38 403 86 73 35 108 60 167
117 62 62 75 81 84 121 20 96 -26 181 -120 220 -41 18 -120 20 -157 5z"/>
</g>
</svg>
