<?xml version="1.0" standalone="no"?>
<!DOCTYPE svg PUBLIC "-//W3C//DTD SVG 20010904//EN"
 "http://www.w3.org/TR/2001/REC-SVG-20010904/DTD/svg10.dtd">
<svg version="1.0" xmlns="http://www.w3.org/2000/svg"
 width="600.000000pt" height="600.000000pt" viewBox="0 0 600.000000 600.000000"
 preserveAspectRatio="xMidYMid meet">
<metadata>
Created by potrace 1.15, written by Peter Selinger 2001-2017
</metadata>
<g transform="translate(0.000000,600.000000) scale(0.100000,-0.100000)"
fill="#16364b" stroke="none">
<path d="M2164 5401 c-95 -25 -188 -103 -231 -197 -36 -79 -41 -135 -32 -347
13 -304 10 -732 -6 -992 -11 -187 -34 -787 -35 -934 l0 -24 -147 6 c-148 6
-262 22 -403 55 l-75 17 -3 48 c-4 53 -27 66 -38 20 -3 -16 -7 -32 -8 -37 -1
-5 -16 14 -34 42 -22 36 -36 50 -47 46 -18 -7 -18 -16 -4 -67 6 -22 8 -41 6
-44 -3 -2 -22 3 -42 11 -60 26 -77 -4 -25 -42 40 -30 38 -42 -6 -42 -28 0 -35
-4 -32 -17 2 -12 27 -25 78 -41 220 -69 386 -98 624 -108 l143 -7 6 -141 c4
-78 7 -197 7 -266 1 -164 21 -324 60 -485 59 -242 115 -352 234 -462 74 -70
212 -143 306 -163 30 -6 65 -13 77 -16 21 -4 21 -7 16 -112 -3 -60 -1 -145 6
-194 13 -94 57 -276 90 -372 34 -96 34 -96 -61 -97 -108 0 -148 -14 -172 -60
-49 -90 38 -160 179 -144 106 12 192 63 221 132 23 52 16 111 -26 252 -57 189
-81 316 -81 431 0 108 6 146 26 154 7 2 45 0 85 -5 41 -6 246 -9 481 -7 l410
3 -8 -65 c-17 -137 -1 -281 57 -512 17 -65 30 -125 30 -133 0 -12 -17 -15 -96
-15 -92 0 -97 -1 -125 -29 -31 -31 -39 -83 -19 -122 42 -77 258 -69 349 14 54
50 64 122 30 227 -61 194 -94 465 -70 581 l12 56 76 7 c42 3 116 6 164 6 174
0 280 41 395 155 88 86 127 161 154 297 23 113 40 283 40 394 0 85 -47 366
-73 440 -42 115 -112 224 -221 341 -42 44 -76 83 -76 86 0 3 26 9 58 12 152
18 381 78 499 131 31 13 62 24 70 24 21 0 163 109 163 126 0 8 -4 14 -10 14
-5 0 -10 11 -10 25 0 21 -5 25 -29 25 -24 0 -28 3 -24 24 7 37 -12 39 -50 6
-42 -37 -47 -37 -47 -4 0 19 -5 25 -17 22 -13 -2 -19 -15 -21 -44 -3 -40 -5
-43 -60 -67 -155 -68 -365 -115 -594 -132 l-86 -7 -39 34 c-89 80 -191 154
-413 303 -286 192 -442 313 -580 454 -196 199 -269 333 -375 686 -44 144 -58
202 -94 372 -16 77 -44 175 -61 216 -64 154 -199 257 -345 263 -38 2 -84 0
-101 -5z m200 -178 c73 -52 120 -143 151 -293 49 -234 94 -406 155 -583 93
-275 164 -391 355 -582 157 -158 339 -302 625 -494 277 -186 322 -222 520
-421 274 -274 311 -337 356 -613 27 -162 27 -171 15 -300 -17 -184 -36 -271
-76 -352 -36 -73 -62 -106 -118 -149 -55 -42 -104 -53 -263 -60 -126 -5 -265
-13 -514 -30 -25 -1 -259 1 -520 6 -369 6 -491 11 -547 24 -270 58 -408 259
-469 681 -25 177 -33 559 -18 898 7 165 13 380 14 477 0 98 7 278 16 400 19
254 23 703 10 1015 -10 238 -5 276 47 338 66 80 178 96 261 38z"/>
<path d="M2616 2854 c-9 -8 -16 -27 -16 -40 0 -31 45 -74 76 -74 25 0 64 43
64 71 0 49 -88 80 -124 43z"/>
<path d="M3147 2802 c-35 -38 -16 -97 36 -115 24 -9 67 34 67 65 0 59 -67 91
-103 50z"/>
<path d="M2838 1899 c-11 -6 -18 -22 -18 -40 0 -52 40 -60 246 -55 96 3 179 8
184 11 12 8 13 45 1 64 -14 22 -97 29 -211 20 -95 -9 -120 -8 -170 6 -8 2 -23
0 -32 -6z"/>
</g>
</svg>
