<?xml version="1.0" standalone="no"?>
<!DOCTYPE svg PUBLIC "-//W3C//DTD SVG 20010904//EN"
 "http://www.w3.org/TR/2001/REC-SVG-20010904/DTD/svg10.dtd">
<svg version="1.0" xmlns="http://www.w3.org/2000/svg"
 width="600.000000pt" height="600.000000pt" viewBox="0 0 600.000000 600.000000"
 preserveAspectRatio="xMidYMid meet">
<metadata>
Created by potrace 1.15, written by Peter Selinger 2001-2017
</metadata>
<g transform="translate(0.000000,600.000000) scale(0.100000,-0.100000)"
fill="#16364b" stroke="none">
<path d="M1533 5786 c-59 -27 -74 -66 -104 -266 -30 -206 -36 -394 -15 -457
32 -96 135 -163 224 -147 129 23 271 185 420 478 75 148 66 244 -25 282 -81
34 -137 -2 -183 -118 -55 -139 -153 -318 -166 -305 -6 6 9 151 32 309 13 85
14 113 4 142 -23 72 -118 113 -187 82z"/>
<path d="M853 5495 c-93 -28 -217 -135 -262 -223 -34 -67 -54 -160 -48 -227 9
-119 97 -240 203 -281 42 -16 51 -16 87 -3 54 18 87 66 87 126 0 57 -21 96
-65 123 -40 25 -55 48 -55 85 0 65 67 150 126 161 18 3 56 0 83 -7 104 -26
176 27 168 124 -5 57 -25 82 -92 113 -58 28 -162 32 -232 9z"/>
<path d="M3327 5440 c-37 -29 -52 -83 -38 -132 11 -35 24 -47 113 -105 l100
-65 -26 -27 c-62 -65 -49 -140 38 -219 129 -119 294 -125 359 -14 31 54 27
128 -13 209 -50 102 -149 196 -304 293 -143 88 -181 98 -229 60z"/>
<path d="M3005 5166 c-94 -30 -152 -82 -201 -178 -31 -61 -43 -165 -25 -220
28 -84 114 -130 207 -109 85 19 188 74 212 112 28 46 46 147 39 219 -12 137
-115 215 -232 176z"/>
<path d="M2315 5146 c-17 -7 -42 -27 -56 -44 -22 -26 -27 -43 -32 -123 -7
-109 -27 -172 -65 -212 -15 -16 -75 -53 -134 -83 -58 -30 -113 -65 -121 -77
-53 -83 -7 -195 87 -213 28 -5 55 3 138 40 191 86 275 168 333 326 22 61 28
97 32 190 4 125 -2 148 -48 182 -34 25 -96 32 -134 14z"/>
<path d="M4773 4814 c-18 -9 -43 -32 -54 -51 -20 -33 -22 -44 -16 -167 9 -203
60 -349 153 -443 144 -143 356 -100 410 83 53 183 -113 446 -363 573 -50 25
-86 26 -130 5z"/>
<path d="M2820 4179 c-65 -11 -162 -55 -207 -93 -40 -33 -83 -119 -83 -164 0
-65 22 -115 75 -168 81 -82 182 -106 330 -80 160 27 353 120 395 188 34 57 24
146 -23 197 -24 26 -142 83 -220 106 -66 20 -197 27 -267 14z"/>
<path d="M1030 4079 c-91 -36 -123 -140 -70 -226 28 -46 72 -65 185 -79 105
-13 155 -27 155 -43 0 -17 -103 -97 -190 -148 -47 -27 -141 -82 -210 -123
-140 -82 -176 -111 -196 -157 -29 -67 -8 -167 41 -199 41 -26 87 -35 125 -23
19 7 104 50 189 95 85 46 156 84 157 84 1 0 5 -16 8 -35 9 -48 48 -90 101
-111 60 -23 117 -14 169 26 23 17 64 42 92 56 l51 24 58 -30 c144 -76 301 0
300 145 -2 131 -117 202 -315 193 l-95 -5 30 61 c26 53 30 71 30 146 0 74 -4
92 -29 140 -59 114 -154 176 -316 206 -87 15 -234 17 -270 3z"/>
<path d="M4200 3765 c-83 -21 -126 -42 -171 -82 -67 -61 -84 -103 -84 -213 0
-82 4 -103 26 -151 31 -65 82 -119 142 -151 34 -18 58 -23 127 -23 73 0 93 4
141 28 75 36 151 114 189 193 37 77 74 235 65 281 -9 47 -48 89 -103 108 -65
23 -259 29 -332 10z m110 -290 c0 -10 -44 -45 -57 -45 -19 0 -16 27 5 39 17
11 52 15 52 6z"/>
<path d="M5070 3409 c-189 -95 -301 -277 -270 -440 13 -67 32 -101 80 -142 53
-45 112 -61 199 -55 184 13 331 157 339 333 5 93 -21 160 -94 248 -92 111
-128 119 -254 56z"/>
<path d="M3398 3357 c-48 -28 -79 -70 -135 -182 -65 -128 -60 -185 20 -236 45
-29 161 -20 223 16 78 45 123 134 124 238 0 88 -19 130 -75 162 -53 32 -108
32 -157 2z"/>
<path d="M2321 3019 c-100 -31 -178 -119 -266 -305 -68 -144 -107 -194 -197
-254 -70 -46 -217 -199 -275 -285 -88 -130 -169 -314 -210 -474 -83 -328 35
-663 295 -835 260 -172 548 -234 787 -171 187 49 438 223 551 380 80 114 210
428 250 610 32 145 19 452 -26 620 -35 130 -108 224 -232 297 -91 53 -136 92
-214 187 -145 177 -224 229 -355 236 -41 3 -89 0 -108 -6z m169 -480 c30 -39
65 -87 76 -106 32 -51 40 -58 159 -121 126 -66 146 -91 164 -202 31 -190 -5
-374 -125 -640 -81 -182 -186 -304 -310 -362 -55 -25 -82 -32 -159 -36 -149
-8 -272 26 -396 109 -107 72 -157 159 -166 287 -14 202 105 460 272 589 129
100 248 219 303 303 23 36 59 107 79 158 20 50 39 92 42 92 4 0 31 -32 61 -71z"/>
<path d="M845 2650 c-33 -13 -65 -55 -71 -92 -10 -58 17 -103 88 -147 157 -98
225 -164 263 -254 17 -41 20 -123 6 -160 -23 -61 -82 -83 -140 -52 -41 20
-102 94 -134 158 -14 30 -40 66 -57 81 -88 73 -219 18 -206 -87 13 -106 191
-326 311 -382 89 -42 202 -47 278 -12 177 81 261 318 187 531 -62 181 -163
292 -347 385 -81 41 -133 50 -178 31z"/>
<path d="M4179 2219 c-47 -28 -87 -91 -95 -151 -6 -40 -10 -48 -23 -42 -99 42
-222 3 -257 -82 -21 -51 -17 -100 27 -328 55 -285 77 -317 224 -322 39 -1 83
-7 98 -13 64 -25 155 -7 216 45 63 54 84 118 89 259 5 175 -12 515 -28 545
-18 35 -60 79 -92 96 -40 21 -117 17 -159 -7z"/>
</g>
</svg>
