<?xml version="1.0" standalone="no"?>
<!DOCTYPE svg PUBLIC "-//W3C//DTD SVG 20010904//EN"
 "http://www.w3.org/TR/2001/REC-SVG-20010904/DTD/svg10.dtd">
<svg version="1.0" xmlns="http://www.w3.org/2000/svg"
 width="600.000000pt" height="600.000000pt" viewBox="0 0 600.000000 600.000000"
 preserveAspectRatio="xMidYMid meet">
<metadata>
Created by potrace 1.15, written by Peter Selinger 2001-2017
</metadata>
<g transform="translate(0.000000,600.000000) scale(0.100000,-0.100000)"
fill="#16364b" stroke="none">
<path d="M3114 5650 c-29 -11 -74 -67 -75 -93 -6 -85 14 -172 62 -273 54 -115
138 -192 293 -267 63 -31 117 -60 120 -65 5 -9 -87 -71 -378 -255 -104 -65
-197 -129 -207 -140 -10 -12 -21 -37 -25 -55 -5 -27 -15 -36 -68 -61 -73 -35
-105 -75 -112 -139 -11 -90 60 -172 147 -172 21 0 69 15 110 34 83 39 200 66
286 66 103 0 157 52 158 151 0 45 -5 64 -23 89 -13 17 -22 33 -20 35 1 1 71
44 153 95 83 50 173 109 201 131 154 118 164 276 26 401 -31 27 -109 76 -191
118 -183 93 -231 147 -231 254 0 49 -36 110 -79 134 -40 23 -107 28 -147 12z"/>
<path d="M1288 5400 c-100 -31 -255 -165 -320 -275 -80 -138 -128 -319 -128
-484 0 -208 46 -298 157 -308 92 -9 173 58 173 142 0 21 -7 72 -16 115 -26
132 4 276 84 391 26 39 62 70 124 112 89 59 111 85 123 147 8 45 -28 118 -70
142 -38 21 -92 29 -127 18z"/>
<path d="M1574 5121 c-111 -18 -149 -42 -179 -114 -17 -42 -10 -92 20 -135 20
-28 86 -62 120 -62 31 0 31 -10 3 -85 -32 -86 -33 -262 -1 -320 55 -102 164
-163 296 -165 23 -1 3 -11 -71 -35 -170 -57 -332 -151 -372 -218 -59 -97 15
-231 128 -231 39 0 58 7 110 43 109 74 267 131 363 131 86 0 149 68 149 160 0
91 -68 159 -159 160 l-45 0 31 33 c75 77 72 184 -7 251 -25 20 -42 26 -80 26
-27 0 -51 4 -54 8 -3 4 9 46 26 93 60 167 70 242 43 320 -40 111 -162 165
-321 140z"/>
<path d="M4485 4574 c-93 -48 -121 -145 -64 -218 33 -42 67 -53 184 -61 125
-8 126 -2 -14 -88 -108 -67 -136 -94 -152 -145 -34 -114 77 -231 180 -189 41
16 289 184 377 255 115 93 143 204 78 309 -31 51 -109 105 -174 123 -120 32
-364 41 -415 14z"/>
<path d="M2560 3706 c-77 -17 -219 -67 -275 -99 -56 -31 -88 -95 -81 -160 6
-58 37 -104 82 -123 48 -20 87 -17 154 11 69 29 170 55 218 55 38 0 41 -16 16
-101 -31 -106 -96 -222 -285 -510 -95 -145 -109 -171 -109 -208 0 -48 17 -85
53 -119 l25 -24 -19 -41 c-34 -75 -16 -160 47 -219 73 -68 141 -66 310 10 149
67 253 107 260 100 8 -9 -55 -186 -122 -341 -66 -154 -76 -203 -53 -264 13
-34 55 -80 91 -99 45 -23 125 -18 175 12 40 23 50 37 118 177 126 260 202 512
192 637 -7 82 -27 130 -78 185 -62 67 -124 90 -244 90 -106 -1 -196 -21 -323
-72 -35 -14 -66 -23 -68 -20 -3 2 54 103 127 223 158 262 203 352 225 451 20
89 15 201 -12 278 -23 66 -94 136 -159 159 -68 23 -186 28 -265 12z"/>
<path d="M3949 3697 c-123 -46 -173 -166 -119 -286 25 -55 139 -167 205 -203
109 -58 230 -61 305 -7 102 74 124 194 49 269 -23 23 -32 42 -35 72 -7 96
-110 157 -279 164 -61 3 -102 0 -126 -9z"/>
<path d="M1175 3543 c-85 -11 -186 -57 -309 -139 -86 -57 -106 -78 -124 -133
-52 -151 86 -290 238 -237 24 8 46 13 49 11 2 -3 -24 -97 -58 -210 -35 -114
-71 -236 -81 -273 -55 -198 -83 -454 -60 -537 19 -68 69 -108 163 -131 72 -16
78 -16 120 0 60 23 171 139 312 326 193 257 358 460 368 453 16 -10 1 -185
-27 -315 -14 -65 -53 -222 -88 -350 -60 -226 -62 -237 -63 -358 0 -115 2 -128
25 -169 34 -61 68 -83 132 -88 61 -5 110 16 142 60 19 25 21 44 22 155 0 122
3 137 61 362 100 384 108 432 106 670 -1 320 -23 419 -103 475 -85 59 -187 41
-291 -53 -66 -60 -206 -224 -324 -379 -38 -51 -71 -91 -72 -89 -4 4 52 191
101 336 72 214 87 363 46 459 -29 67 -94 125 -161 145 -52 16 -66 17 -124 9z"/>
<path d="M3633 3269 c-93 -17 -168 -79 -222 -187 -64 -127 -76 -229 -33 -290
60 -83 202 -82 258 3 13 20 24 25 60 25 24 0 67 5 96 11 126 27 198 97 198
194 0 145 -187 273 -357 244z"/>
<path d="M4635 3176 c-68 -30 -103 -100 -84 -169 7 -28 35 -66 95 -129 47 -49
92 -105 101 -124 l17 -34 -36 -38 c-65 -68 -73 -110 -35 -182 54 -102 171
-105 275 -6 57 53 84 110 90 185 9 130 -49 250 -190 393 -111 113 -161 136
-233 104z"/>
<path d="M4529 2286 c-63 -17 -106 -50 -133 -104 -31 -61 -39 -115 -27 -177 5
-27 7 -52 5 -54 -3 -3 -57 6 -122 18 -64 13 -169 26 -232 28 -222 9 -355 -49
-422 -185 -23 -46 -23 -51 -20 -337 3 -299 12 -376 47 -405 28 -23 15 -29 -27
-14 -57 20 -113 11 -173 -27 -40 -26 -52 -29 -72 -20 -56 26 -254 166 -313
222 -71 67 -161 132 -215 155 -48 20 -132 17 -181 -5 -52 -24 -90 -64 -116
-120 -15 -32 -23 -40 -28 -30 -10 19 -19 113 -29 299 -7 127 -12 163 -29 196
-77 151 -286 151 -361 1 l-24 -49 12 -161 c14 -188 32 -304 66 -420 29 -102
83 -222 126 -282 81 -112 304 -244 427 -252 57 -4 74 -1 111 19 79 42 109 110
89 201 -5 27 -8 51 -5 54 3 3 62 -33 130 -80 251 -173 365 -204 515 -141 54
22 136 89 168 137 25 36 29 52 29 113 0 60 -4 76 -26 110 l-27 40 40 -19 c114
-57 243 -15 300 97 22 42 22 52 4 411 -1 36 -2 36 171 -6 108 -26 133 -28 227
-24 206 11 308 67 380 207 34 66 39 86 43 165 6 88 -7 213 -27 286 -6 21 -28
56 -47 78 -64 71 -148 98 -234 75z"/>
</g>
</svg>
