<?xml version="1.0" standalone="no"?>
<!DOCTYPE svg PUBLIC "-//W3C//DTD SVG 20010904//EN"
 "http://www.w3.org/TR/2001/REC-SVG-20010904/DTD/svg10.dtd">
<svg version="1.0" xmlns="http://www.w3.org/2000/svg"
 width="600.000000pt" height="600.000000pt" viewBox="0 0 600.000000 600.000000"
 preserveAspectRatio="xMidYMid meet">
<metadata>
Created by potrace 1.15, written by Peter Selinger 2001-2017
</metadata>
<g transform="translate(0.000000,600.000000) scale(0.100000,-0.100000)"
fill="#16364b" stroke="none">
<path d="M1545 5766 c-49 -22 -63 -46 -89 -156 -62 -259 -77 -476 -39 -561 50
-110 153 -160 267 -127 63 18 175 137 271 288 107 170 167 284 168 323 1 45
-22 87 -62 114 -70 47 -154 18 -200 -67 -108 -204 -189 -340 -204 -340 -13 0
2 113 35 263 19 86 28 150 24 171 -7 37 -47 79 -89 95 -36 14 -45 13 -82 -3z"/>
<path d="M919 5519 c-124 -19 -272 -137 -337 -267 -35 -72 -37 -81 -37 -171 0
-85 3 -103 28 -153 32 -64 101 -138 154 -163 47 -23 95 -12 141 29 32 30 36
39 40 95 l4 61 -51 50 c-39 38 -51 56 -51 80 0 47 23 91 67 131 52 48 90 56
152 33 57 -20 89 -14 132 24 25 23 32 38 36 78 6 66 -22 110 -97 146 -62 30
-114 38 -181 27z"/>
<path d="M3306 5449 c-56 -44 -72 -118 -37 -174 11 -19 56 -54 116 -89 l98
-58 -31 -24 c-36 -29 -56 -82 -47 -124 22 -101 254 -213 373 -181 87 24 127
84 120 180 -3 46 -12 73 -40 118 -79 126 -154 197 -325 306 -92 58 -112 67
-153 67 -33 0 -55 -6 -74 -21z"/>
<path d="M2315 5151 c-63 -28 -77 -59 -92 -196 -21 -194 -51 -237 -216 -313
-99 -46 -122 -73 -122 -143 0 -39 5 -53 29 -78 36 -37 85 -55 129 -46 17 4 77
29 133 55 81 39 111 60 155 107 98 107 156 260 166 445 7 122 -3 149 -62 174
-45 18 -71 17 -120 -5z"/>
<path d="M2932 5134 c-83 -41 -147 -141 -166 -260 -9 -49 7 -116 36 -157 54
-76 188 -89 308 -30 93 46 105 69 105 208 0 94 -3 116 -22 150 -27 50 -58 80
-105 100 -53 22 -97 19 -156 -11z"/>
<path d="M4733 4790 c-55 -33 -67 -69 -60 -185 14 -226 106 -418 236 -488 103
-56 213 -42 296 38 64 63 90 125 90 215 -1 155 -83 245 -358 389 -109 57 -152
63 -204 31z"/>
<path d="M2756 4144 c-70 -22 -151 -77 -181 -121 -30 -47 -41 -114 -26 -169
15 -57 80 -127 149 -161 51 -25 67 -28 157 -28 83 0 112 5 174 27 83 30 216
108 261 151 39 38 56 99 41 147 -18 60 -55 85 -186 126 -100 31 -138 37 -230
40 -81 3 -123 0 -159 -12z"/>
<path d="M1002 4060 c-96 -59 -95 -201 2 -268 24 -17 63 -27 136 -37 56 -8
120 -20 142 -26 l40 -10 -23 -26 c-43 -47 -171 -123 -364 -218 -191 -93 -225
-117 -244 -168 -36 -94 39 -207 137 -207 18 0 76 20 130 44 251 113 237 109
245 68 17 -85 146 -150 219 -111 12 6 48 31 80 54 91 68 113 72 184 34 52 -27
67 -30 121 -27 73 5 106 25 141 84 48 81 5 209 -89 267 -58 36 -157 53 -222
39 -26 -5 -47 -7 -47 -5 0 3 14 35 32 70 26 53 32 78 32 132 1 156 -110 244
-385 305 -143 32 -221 34 -267 6z"/>
<path d="M4203 3755 c-122 -33 -215 -110 -252 -208 -42 -114 -20 -209 68 -298
99 -99 236 -126 353 -70 113 55 205 193 234 353 16 85 16 88 -5 130 -11 24
-35 52 -53 62 -72 43 -244 58 -345 31z m53 -301 c-21 -19 -32 -22 -40 -14 -14
14 18 40 48 40 19 -1 18 -3 -8 -26z"/>
<path d="M5079 3406 c-178 -73 -281 -211 -281 -377 0 -98 27 -162 91 -222 59
-56 105 -71 191 -65 221 16 395 255 330 453 -25 78 -126 207 -178 226 -39 15
-94 10 -153 -15z"/>
<path d="M3413 3391 c-54 -25 -100 -88 -159 -219 -52 -116 -53 -148 -8 -202
48 -57 157 -60 248 -6 68 40 121 129 137 227 16 103 -16 167 -103 203 -48 20
-64 20 -115 -3z"/>
<path d="M2339 2980 c-124 -21 -199 -94 -300 -290 -70 -137 -78 -148 -143
-200 -106 -84 -270 -256 -330 -345 -176 -262 -250 -557 -200 -803 55 -274 300
-524 619 -631 272 -91 528 -49 760 124 140 104 280 277 370 455 137 273 196
744 121 965 -51 148 -135 254 -261 328 -98 57 -147 100 -216 189 -101 130
-174 183 -287 207 -58 12 -66 12 -133 1z m166 -483 c34 -45 72 -99 85 -119 18
-26 54 -54 129 -96 80 -45 109 -67 123 -93 66 -129 35 -489 -63 -720 -79 -187
-242 -349 -397 -396 -83 -25 -229 -22 -307 6 -127 46 -254 154 -301 254 -87
191 -16 485 161 662 38 38 110 104 159 145 192 161 250 231 310 373 16 37 32
67 35 67 3 -1 33 -38 66 -83z"/>
<path d="M860 2692 c-42 -21 -84 -94 -75 -132 15 -66 28 -81 108 -128 96 -55
199 -152 227 -213 24 -53 26 -148 5 -189 -22 -42 -63 -70 -103 -70 -30 0 -44
8 -86 53 -28 29 -65 79 -81 111 -38 74 -73 101 -128 101 -74 0 -127 -60 -127
-145 0 -101 142 -299 255 -354 96 -47 234 -50 329 -7 146 66 247 274 216 449
-22 130 -82 233 -201 348 -87 82 -173 148 -232 175 -52 23 -63 23 -107 1z"/>
<path d="M4165 2246 c-61 -28 -115 -110 -115 -177 0 -26 -3 -30 -17 -24 -134
54 -284 -55 -283 -204 1 -55 35 -198 80 -334 58 -174 103 -217 234 -222 39 -1
86 -8 103 -15 40 -14 119 0 169 31 51 31 91 100 105 182 16 98 -10 627 -34
673 -20 38 -65 80 -100 93 -38 15 -106 13 -142 -3z"/>
</g>
</svg>
