<?xml version="1.0" standalone="no"?>
<!DOCTYPE svg PUBLIC "-//W3C//DTD SVG 20010904//EN"
 "http://www.w3.org/TR/2001/REC-SVG-20010904/DTD/svg10.dtd">
<svg version="1.0" xmlns="http://www.w3.org/2000/svg"
 width="600.000000pt" height="600.000000pt" viewBox="0 0 600.000000 600.000000"
 preserveAspectRatio="xMidYMid meet">
<metadata>
Created by potrace 1.15, written by Peter Selinger 2001-2017
</metadata>
<g transform="translate(0.000000,600.000000) scale(0.100000,-0.100000)"
fill="#16364b" stroke="none">
<path d="M2913 5529 c-43 -27 -77 -99 -70 -146 4 -20 25 -63 48 -96 75 -107
96 -226 64 -375 -17 -84 -8 -125 36 -168 26 -24 38 -29 82 -29 62 0 106 27
131 80 42 88 59 282 35 411 -23 126 -101 276 -169 322 -43 29 -113 30 -157 1z"/>
<path d="M1980 5438 c-53 -37 -72 -82 -67 -158 7 -109 52 -177 167 -254 38
-26 81 -64 95 -84 14 -20 46 -99 71 -177 26 -77 54 -150 62 -163 20 -31 83
-62 124 -62 74 0 148 68 148 137 0 69 -68 270 -121 359 -43 72 -138 175 -206
226 -30 22 -58 49 -63 61 -4 12 -14 37 -21 55 -27 73 -124 104 -189 60z"/>
<path d="M1404 4766 c-17 -8 -44 -31 -60 -51 -36 -48 -40 -128 -8 -172 48 -65
65 -70 271 -76 196 -6 294 -22 363 -57 87 -44 175 -15 218 72 45 90 9 172 -98
225 -89 44 -196 60 -445 68 -171 5 -216 3 -241 -9z"/>
<path d="M4365 4706 c-63 -28 -108 -111 -90 -166 4 -12 26 -54 50 -94 63 -107
102 -201 135 -327 42 -159 68 -191 160 -191 84 0 150 66 150 150 0 121 -192
555 -271 614 -34 25 -96 32 -134 14z"/>
<path d="M3187 4508 c-31 -8 -57 -32 -147 -137 -102 -118 -186 -197 -371 -349
-84 -68 -99 -93 -99 -155 0 -51 28 -100 72 -127 47 -29 96 -26 149 9 72 48
325 278 450 410 132 138 150 172 129 248 -14 47 -67 103 -100 103 -10 0 -24 2
-32 4 -7 2 -30 -1 -51 -6z"/>
<path d="M1725 4329 c-58 -18 -105 -81 -105 -141 0 -38 38 -102 76 -127 81
-55 416 -87 597 -57 108 18 139 30 177 71 21 23 25 36 25 90 0 71 -17 103 -76
143 -30 21 -42 23 -104 18 -232 -20 -368 -17 -530 8 -16 3 -43 1 -60 -5z"/>
<path d="M3821 4059 c-12 -5 -53 -37 -90 -70 -201 -185 -493 -369 -704 -444
-87 -31 -120 -62 -131 -120 -11 -56 26 -124 84 -152 58 -30 91 -29 192 5 187
64 298 135 605 383 251 204 266 223 243 309 -21 78 -117 122 -199 89z"/>
<path d="M2255 3780 c-145 -33 -311 -45 -444 -31 -126 13 -139 11 -189 -26
-87 -65 -88 -206 -1 -257 104 -61 686 -22 829 56 76 41 109 147 66 212 -44 67
-112 79 -261 46z"/>
<path d="M5036 3696 c-52 -19 -112 -80 -132 -133 -12 -31 -15 -59 -10 -105 23
-232 19 -270 -40 -419 -67 -166 -185 -344 -342 -511 -79 -86 -92 -104 -103
-152 -33 -150 77 -276 241 -276 85 0 148 30 216 101 70 74 93 106 248 337 150
225 193 305 233 437 25 84 27 103 27 275 1 164 -1 193 -21 255 -12 39 -35 86
-52 105 -63 76 -185 116 -265 86z"/>
<path d="M1946 3137 c-52 -30 -78 -79 -73 -138 6 -76 37 -113 130 -159 116
-57 179 -70 371 -81 147 -8 173 -7 202 7 49 23 77 68 82 128 3 43 -1 58 -24
92 -37 57 -73 71 -216 84 -170 15 -217 24 -292 60 -78 36 -127 38 -180 7z"/>
<path d="M4432 3120 c-19 -4 -50 -22 -70 -39 -258 -217 -491 -315 -876 -370
-150 -21 -173 -31 -214 -92 -20 -28 -23 -43 -20 -87 4 -43 11 -59 39 -88 50
-51 87 -59 216 -45 255 28 433 81 667 196 228 112 401 237 432 311 52 123 -47
245 -174 214z"/>
<path d="M1425 2941 c-23 -10 -53 -32 -68 -50 -44 -52 -50 -96 -44 -311 6
-201 23 -316 77 -502 73 -252 172 -423 274 -469 118 -54 257 17 273 139 7 53
-10 102 -57 158 -51 62 -93 148 -125 259 -42 147 -56 249 -63 467 l-7 206 -31
39 c-36 46 -105 83 -154 83 -19 0 -53 -9 -75 -19z"/>
<path d="M2100 2342 c-39 -21 -80 -89 -80 -134 0 -39 22 -88 53 -117 15 -14
81 -42 159 -68 73 -24 158 -59 188 -77 73 -45 118 -53 176 -31 119 45 129 207
17 278 -72 46 -142 77 -274 122 -144 49 -187 54 -239 27z"/>
<path d="M4165 2084 c-137 -49 -303 -94 -545 -148 -135 -30 -293 -66 -352 -81
-58 -14 -165 -34 -236 -44 -149 -22 -182 -36 -220 -93 -23 -35 -27 -52 -27
-109 0 -59 4 -73 30 -111 17 -23 49 -53 70 -66 38 -22 47 -23 170 -18 154 6
168 9 625 131 440 117 675 187 709 213 33 24 68 86 76 133 14 80 -34 166 -110
200 -54 25 -107 23 -190 -7z"/>
<path d="M4872 1719 c-21 -6 -72 -47 -135 -107 -116 -111 -159 -143 -272 -199
-136 -68 -191 -85 -669 -198 -191 -45 -199 -48 -237 -86 -23 -23 -42 -55 -49
-80 -30 -110 48 -231 158 -246 39 -5 159 20 522 109 343 84 533 172 742 345
144 119 188 183 188 270 -1 138 -119 229 -248 192z"/>
<path d="M2045 1485 c-78 -27 -118 -109 -95 -193 21 -82 183 -219 335 -287
142 -62 376 -112 443 -93 20 6 50 24 68 42 90 90 45 230 -80 255 -171 34 -210
45 -276 77 -78 37 -125 70 -206 145 -29 27 -68 52 -90 58 -48 13 -50 13 -99
-4z"/>
<path d="M2014 921 c-95 -43 -129 -149 -81 -254 30 -66 70 -98 207 -167 272
-136 613 -189 905 -139 33 5 104 23 158 40 84 26 105 36 147 77 59 57 77 108
61 169 -32 117 -142 163 -301 124 -290 -70 -510 -41 -830 110 -141 66 -192 74
-266 40z"/>
</g>
</svg>
