<?xml version="1.0" standalone="no"?>
<!DOCTYPE svg PUBLIC "-//W3C//DTD SVG 20010904//EN"
 "http://www.w3.org/TR/2001/REC-SVG-20010904/DTD/svg10.dtd">
<svg version="1.0" xmlns="http://www.w3.org/2000/svg"
 width="600.000000pt" height="600.000000pt" viewBox="0 0 600.000000 600.000000"
 preserveAspectRatio="xMidYMid meet">
<metadata>
Created by potrace 1.15, written by Peter Selinger 2001-2017
</metadata>
<g transform="translate(0.000000,600.000000) scale(0.100000,-0.100000)"
fill="#16364b" stroke="none">
<path d="M3114 5630 c-59 -38 -143 -244 -151 -366 -6 -92 4 -133 47 -192 37
-51 146 -106 250 -127 137 -28 134 -21 40 -71 -145 -78 -301 -190 -458 -331
-81 -73 -102 -105 -102 -157 0 -51 14 -79 62 -126 84 -81 187 -127 471 -211
94 -28 211 -66 260 -85 101 -39 148 -42 194 -14 44 26 66 63 66 110 0 54 -31
101 -86 131 -46 25 -244 94 -455 160 -56 17 -105 36 -109 42 -13 21 158 132
409 265 112 59 220 120 241 136 102 78 113 200 25 288 -73 73 -185 112 -411
143 -135 18 -147 22 -147 42 0 9 18 58 40 109 55 129 52 182 -14 243 -37 35
-128 41 -172 11z"/>
<path d="M1440 5404 c-142 -81 -327 -283 -429 -467 -83 -151 -151 -366 -151
-481 0 -76 28 -129 85 -156 23 -11 49 -20 59 -20 10 0 93 21 184 46 251 69
392 96 392 77 -1 -17 -91 -175 -165 -288 -101 -154 -155 -258 -155 -298 0 -51
28 -129 57 -159 31 -33 84 -52 122 -45 38 8 538 252 579 284 41 31 62 77 62
136 0 114 -122 161 -250 97 -33 -17 -60 -27 -60 -23 0 4 23 41 50 83 66 100
93 177 93 260 0 76 -19 124 -70 181 -57 63 -103 82 -210 87 -95 4 -172 -5
-307 -39 -44 -10 -81 -17 -84 -15 -5 6 58 130 102 199 66 102 160 210 227 259
78 57 104 100 97 163 -15 126 -119 181 -228 119z"/>
<path d="M4700 4443 c-62 -12 -156 -38 -288 -79 -159 -50 -204 -79 -223 -144
-26 -86 27 -172 114 -185 35 -5 66 2 185 44 78 28 142 48 142 45 0 -10 -23
-49 -99 -169 -126 -197 -239 -398 -246 -436 -10 -53 10 -114 46 -141 17 -13
49 -40 72 -60 22 -21 48 -40 56 -42 9 -3 70 -19 136 -36 125 -33 264 -77 287
-91 17 -11 6 -31 -215 -364 -96 -144 -99 -151 -95 -196 9 -88 79 -146 166
-136 24 3 56 14 71 24 32 24 285 415 344 532 38 77 42 91 42 160 0 65 -4 83
-27 122 -56 95 -124 128 -525 254 -7 3 -13 8 -13 13 0 5 37 67 82 138 156 247
176 281 217 360 49 97 66 165 57 227 -9 57 -52 118 -102 142 -38 19 -134 28
-184 18z"/>
<path d="M3800 3693 c-67 -35 -95 -137 -57 -209 21 -40 104 -120 145 -140 18
-8 43 -32 57 -52 21 -32 23 -43 15 -76 -5 -22 -6 -44 -4 -48 3 -5 -30 -6 -73
-2 -181 15 -362 -79 -455 -237 -48 -81 -52 -141 -12 -189 37 -43 75 -60 136
-60 65 0 105 22 144 81 44 65 72 81 114 69 140 -40 264 29 277 154 5 49 8 56
28 56 32 0 85 39 120 89 28 40 30 49 30 129 -1 74 -5 95 -28 142 -34 69 -92
141 -164 201 -111 95 -206 127 -273 92z"/>
<path d="M2465 3606 c-104 -27 -193 -63 -283 -113 -50 -28 -68 -45 -85 -79
-19 -40 -20 -49 -8 -92 20 -76 91 -132 167 -132 10 0 76 29 146 65 76 39 146
68 174 72 l47 6 -7 -65 c-15 -153 -129 -438 -286 -717 -16 -30 -30 -67 -30
-83 0 -46 28 -95 69 -120 31 -20 49 -23 141 -23 101 0 110 2 245 51 177 65
195 69 195 48 0 -31 -71 -228 -111 -308 -22 -44 -43 -99 -46 -122 -23 -170
184 -272 299 -148 75 81 200 322 233 447 65 251 54 372 -42 456 -24 22 -65 47
-91 56 -66 24 -239 31 -324 13 -38 -8 -68 -12 -68 -8 0 3 12 35 26 71 41 104
84 287 90 390 12 170 -40 281 -155 332 -71 32 -185 33 -296 3z"/>
<path d="M1095 3396 c-93 -30 -309 -167 -350 -220 -98 -129 -7 -311 155 -311
40 0 66 7 94 23 21 13 40 21 42 19 2 -2 -8 -44 -21 -95 -31 -113 -78 -332
-101 -472 -25 -150 -25 -389 -1 -452 22 -56 82 -113 128 -123 19 -4 54 -13 78
-21 60 -20 106 -9 150 35 54 55 249 334 367 524 112 182 171 267 184 267 15 0
23 -69 16 -138 -15 -149 -40 -287 -87 -482 -77 -316 -78 -484 -7 -590 60 -88
177 -126 248 -78 19 13 45 44 59 71 28 56 23 101 -14 146 -33 38 -33 96 1 254
129 612 149 735 140 842 -24 310 -35 355 -102 421 -54 54 -108 71 -181 56
-125 -26 -239 -153 -458 -511 -55 -88 -102 -161 -106 -161 -4 0 4 51 18 113
101 464 120 611 89 709 -24 72 -51 109 -109 149 -43 30 -58 34 -121 36 -39 2
-89 -3 -111 -11z"/>
<path d="M4650 2195 c-69 -31 -118 -96 -128 -172 l-7 -47 -65 5 c-36 2 -141 4
-235 4 -145 -1 -182 -4 -248 -23 -230 -65 -309 -165 -338 -427 -7 -61 -14
-112 -15 -114 -2 -2 -30 21 -63 51 -131 118 -288 156 -444 108 -125 -39 -257
-167 -358 -350 -24 -44 -47 -80 -50 -80 -3 0 -11 44 -18 98 -35 285 -99 458
-189 514 -57 35 -144 32 -208 -7 -96 -60 -121 -162 -65 -273 42 -84 64 -187
100 -472 21 -165 39 -237 77 -311 66 -131 196 -209 349 -210 80 -1 118 11 158
49 43 41 57 75 57 141 0 111 119 383 214 487 l53 59 39 -29 c21 -16 91 -82
155 -146 129 -130 187 -166 286 -176 116 -12 243 69 298 188 34 75 70 219 85
343 7 55 18 106 24 114 9 11 35 12 151 5 77 -5 210 -9 295 -9 150 0 157 1 217
29 149 69 221 223 199 429 -15 135 -106 228 -230 234 -40 2 -73 -2 -96 -12z"/>
</g>
</svg>
