<?xml version="1.0" standalone="no"?>
<!DOCTYPE svg PUBLIC "-//W3C//DTD SVG 20010904//EN"
 "http://www.w3.org/TR/2001/REC-SVG-20010904/DTD/svg10.dtd">
<svg version="1.0" xmlns="http://www.w3.org/2000/svg"
 width="600.000000pt" height="600.000000pt" viewBox="0 0 600.000000 600.000000"
 preserveAspectRatio="xMidYMid meet">
<metadata>
Created by potrace 1.15, written by Peter Selinger 2001-2017
</metadata>
<g transform="translate(0.000000,600.000000) scale(0.100000,-0.100000)"
fill="#16364b" stroke="none">
<path d="M1822 5803 c-13 -3 -40 -21 -60 -42 -30 -30 -50 -71 -110 -231 -40
-107 -86 -237 -103 -289 -54 -168 -38 -283 48 -341 50 -34 147 -35 213 -1 118
60 453 347 532 455 54 75 32 177 -51 233 -26 18 -48 23 -95 23 l-60 0 -98 -99
c-54 -54 -98 -93 -98 -86 0 6 16 59 36 116 40 116 41 157 4 210 -35 48 -87 65
-158 52z"/>
<path d="M3015 5716 c-68 -31 -102 -103 -83 -174 13 -49 28 -65 118 -125 210
-141 438 -341 510 -447 42 -63 75 -143 67 -163 -3 -9 -28 -17 -64 -22 -75 -9
-118 -29 -150 -72 -34 -44 -37 -110 -7 -149 44 -59 68 -69 167 -69 78 0 101 4
148 27 128 59 189 149 189 279 0 139 -56 264 -178 399 -60 66 -502 443 -580
495 -48 32 -98 39 -137 21z"/>
<path d="M898 5406 c-200 -82 -327 -228 -336 -386 -8 -136 46 -276 142 -370
71 -69 109 -89 172 -90 65 0 111 29 142 90 40 77 20 143 -61 201 -72 52 -94
117 -61 182 32 61 72 82 166 90 76 5 109 22 138 70 41 66 17 157 -53 208 -36
26 -48 29 -116 29 -56 0 -91 -7 -133 -24z"/>
<path d="M2963 5196 c-65 -21 -111 -54 -153 -110 -127 -169 -113 -340 35 -419
50 -27 168 -28 265 -3 118 32 149 72 157 200 6 94 -14 190 -52 248 -50 75
-163 113 -252 84z"/>
<path d="M4765 4866 c-42 -18 -83 -69 -91 -113 -11 -56 5 -255 26 -339 25 -98
63 -166 122 -219 204 -183 526 -4 476 265 -27 148 -143 267 -375 384 -77 38
-110 43 -158 22z"/>
<path d="M2035 4864 c-113 -29 -166 -63 -190 -121 -30 -70 -15 -142 38 -191
36 -34 84 -38 146 -12 38 17 55 20 63 12 6 -6 14 -49 18 -95 7 -96 28 -134 84
-161 75 -36 165 -11 206 56 51 83 1 318 -89 421 -59 66 -195 111 -276 91z"/>
<path d="M1125 4061 c-113 -24 -143 -35 -178 -69 -79 -75 -90 -199 -24 -270
35 -38 77 -55 151 -61 l70 -6 -109 -130 c-165 -199 -311 -425 -432 -670 -60
-120 -64 -134 -61 -183 13 -163 221 -220 338 -92 14 15 61 49 105 76 92 55
177 117 360 261 157 124 346 254 358 246 16 -10 -2 -140 -29 -222 -64 -194
-198 -478 -321 -683 -56 -95 -89 -141 -217 -309 -54 -71 -42 -172 27 -221 45
-32 122 -35 168 -6 123 78 451 613 596 973 86 212 119 422 94 584 -20 127 -62
194 -146 232 -100 46 -204 10 -418 -144 -37 -27 -70 -48 -72 -45 -2 2 28 44
66 93 117 150 172 250 190 347 10 55 9 72 -5 115 -24 72 -82 134 -158 168 -83
38 -218 44 -353 16z"/>
<path d="M2908 4064 c-152 -36 -231 -130 -214 -253 23 -166 181 -240 511 -241
130 0 354 28 393 49 34 18 81 80 87 115 17 90 -23 142 -160 207 -249 119 -461
161 -617 123z"/>
<path d="M4210 3790 c-104 -22 -215 -103 -263 -194 -32 -59 -31 -193 1 -253
35 -66 79 -110 140 -140 50 -24 69 -27 148 -27 82 0 97 3 158 33 117 58 194
155 246 314 14 44 20 80 16 99 -10 48 -45 97 -85 117 -80 41 -276 68 -361 51z
m60 -300 c0 -10 -32 -30 -49 -30 -20 0 -11 20 12 30 29 12 37 12 37 0z"/>
<path d="M3416 3405 c-62 -22 -103 -71 -168 -200 -53 -105 -59 -125 -55 -164
10 -88 64 -128 188 -137 76 -5 88 -4 129 18 90 48 150 163 150 285 0 102 -52
179 -138 203 -47 13 -58 12 -106 -5z"/>
<path d="M4997 3145 c-52 -27 -157 -117 -204 -174 -76 -93 -98 -150 -98 -258
0 -85 2 -94 30 -134 17 -24 50 -57 74 -74 40 -28 49 -30 134 -30 79 0 100 4
149 27 73 34 137 98 174 174 26 53 29 68 29 159 -1 81 -5 109 -23 148 -24 53
-102 141 -144 163 -35 18 -86 18 -121 -1z"/>
<path d="M3890 2651 c-77 -24 -151 -93 -169 -158 -20 -71 -13 -119 39 -260 27
-75 48 -138 46 -140 -2 -2 -27 5 -55 17 -62 24 -153 26 -205 5 -56 -23 -121
-89 -147 -148 -18 -40 -23 -70 -23 -128 l0 -77 -27 47 c-56 98 -136 150 -244
159 -120 9 -237 -28 -498 -159 -77 -38 -140 -69 -142 -69 -1 0 -5 25 -9 56
-25 217 -116 388 -241 452 -40 21 -64 26 -125 26 -104 1 -176 -33 -263 -123
-73 -75 -170 -218 -185 -272 -5 -19 -25 -57 -45 -85 -77 -108 -144 -271 -172
-417 -36 -191 -3 -461 78 -622 87 -174 398 -413 607 -466 94 -23 277 -17 394
15 168 45 333 140 431 247 119 130 187 241 294 482 128 287 163 408 162 562
l0 100 38 -100 c92 -243 153 -399 166 -424 21 -42 86 -96 139 -116 34 -13 62
-16 107 -12 73 6 122 40 157 108 20 37 23 55 19 114 -3 39 -8 80 -12 92 -7 23
-7 23 29 8 50 -21 134 -19 199 6 145 55 206 178 178 356 -6 40 -49 188 -95
330 -46 142 -99 312 -117 377 -36 133 -64 175 -134 207 -41 19 -129 24 -175
10z m-1805 -997 c8 -71 19 -158 25 -193 15 -107 71 -164 176 -181 119 -20 126
-18 289 81 146 88 279 157 359 185 l38 14 -7 -38 c-11 -62 -100 -319 -153
-445 -53 -125 -143 -269 -194 -312 -40 -34 -110 -69 -177 -89 -71 -21 -206
-21 -268 0 -119 39 -282 174 -322 264 -61 140 -42 409 39 570 15 30 40 80 55
110 42 84 48 93 80 143 20 32 32 42 37 33 4 -7 14 -71 23 -142z"/>
</g>
</svg>
