<?xml version="1.0" standalone="no"?>
<!DOCTYPE svg PUBLIC "-//W3C//DTD SVG 20010904//EN"
 "http://www.w3.org/TR/2001/REC-SVG-20010904/DTD/svg10.dtd">
<svg version="1.0" xmlns="http://www.w3.org/2000/svg"
 width="600.000000pt" height="600.000000pt" viewBox="0 0 600.000000 600.000000"
 preserveAspectRatio="xMidYMid meet">
<metadata>
Created by potrace 1.15, written by Peter Selinger 2001-2017
</metadata>
<g transform="translate(0.000000,600.000000) scale(0.100000,-0.100000)"
fill="#16364b" stroke="none">
<path d="M2130 5819 c-27 -6 -56 -31 -135 -116 -55 -59 -163 -173 -240 -253
-171 -175 -207 -219 -241 -293 -48 -105 -29 -214 45 -264 80 -54 162 -42 423
62 265 106 486 211 527 251 30 29 35 40 38 91 5 68 -16 111 -69 143 -61 37
-111 28 -259 -45 -73 -36 -134 -63 -137 -60 -3 2 31 43 76 89 142 151 155 170
159 234 3 44 0 64 -16 89 -36 58 -104 86 -171 72z"/>
<path d="M3075 5676 c-90 -39 -122 -156 -65 -237 17 -23 40 -34 108 -55 139
-42 225 -87 296 -157 71 -71 101 -128 116 -222 21 -131 -22 -193 -187 -272
-111 -54 -135 -81 -141 -163 -7 -96 46 -160 133 -160 58 0 242 93 330 167 135
113 183 220 172 385 -12 182 -67 316 -180 435 -109 115 -241 195 -430 262 -99
35 -109 36 -152 17z"/>
<path d="M931 5335 c-153 -72 -244 -157 -304 -282 -30 -64 -32 -74 -31 -173 1
-81 6 -119 23 -164 42 -116 116 -204 226 -267 84 -49 188 -35 234 30 53 75 33
154 -56 222 -71 53 -113 119 -113 176 0 80 45 132 150 173 77 30 97 45 120 90
37 73 20 156 -42 204 -50 38 -112 35 -207 -9z"/>
<path d="M2765 4971 c-135 -36 -221 -139 -246 -291 -38 -235 136 -410 407
-410 111 0 164 46 164 142 0 98 -48 145 -158 158 -96 11 -122 23 -122 57 0 42
10 50 66 49 95 0 162 69 152 159 -7 54 -32 92 -79 116 -44 22 -139 32 -184 20z"/>
<path d="M4785 4922 c-46 -22 -102 -81 -111 -119 -4 -14 -4 -73 -1 -132 18
-301 137 -472 342 -489 118 -9 227 46 278 142 19 35 22 57 22 146 0 96 -2 110
-29 159 -57 108 -189 221 -323 276 -88 35 -130 39 -178 17z"/>
<path d="M1890 4565 c-112 -32 -249 -139 -269 -209 -20 -74 18 -142 93 -171
59 -23 103 -14 158 31 79 67 106 67 158 3 39 -49 82 -69 147 -69 126 0 186
118 119 233 -86 146 -258 223 -406 182z"/>
<path d="M2880 3904 c-100 -43 -112 -83 -171 -544 -32 -247 -34 -282 -15 -317
45 -89 180 -100 253 -21 30 32 38 58 57 178 66 436 68 444 89 474 32 45 31
129 -2 175 -45 62 -138 87 -211 55z"/>
<path d="M1205 3866 c-33 -8 -78 -21 -100 -29 -22 -8 -69 -25 -105 -38 -156
-57 -211 -196 -126 -320 34 -50 87 -74 158 -73 l57 1 -34 -66 c-18 -36 -68
-124 -110 -196 -108 -184 -233 -441 -279 -572 -31 -91 -37 -121 -32 -156 12
-81 67 -139 146 -153 40 -8 114 9 146 34 85 66 581 489 674 575 63 59 118 107
123 107 12 0 8 -86 -8 -164 -16 -76 -150 -484 -203 -616 -17 -42 -63 -145
-102 -229 -68 -143 -72 -155 -68 -207 5 -61 26 -96 78 -131 55 -38 137 -27
181 23 9 11 65 114 123 231 94 188 117 245 206 515 126 378 140 434 140 566 0
261 -72 390 -224 400 -119 8 -222 -49 -402 -222 -55 -52 -100 -93 -102 -91 -1
1 40 87 92 191 52 104 101 213 110 243 33 114 13 219 -59 299 -70 78 -164 104
-280 78z"/>
<path d="M4270 3799 c-223 -32 -370 -177 -371 -365 -1 -77 24 -137 75 -181
155 -137 378 -116 533 50 88 95 173 286 159 360 -9 46 -56 102 -99 116 -29 9
-215 33 -234 30 -4 -1 -33 -5 -63 -10z m10 -307 c0 -9 -54 -42 -69 -42 -20 0
-11 19 17 34 30 17 52 20 52 8z"/>
<path d="M3463 3379 c-95 -47 -172 -161 -208 -309 -22 -88 -14 -130 32 -180
53 -60 139 -75 250 -46 141 38 227 148 227 291 1 39 -5 88 -12 111 -15 51 -76
122 -119 140 -48 20 -121 17 -170 -7z"/>
<path d="M4884 2896 c-36 -16 -140 -119 -194 -191 -104 -141 -140 -293 -92
-390 79 -163 311 -163 460 -1 103 114 145 286 102 421 -11 33 -112 137 -157
160 -35 18 -78 19 -119 1z"/>
<path d="M4118 2506 c-55 -20 -85 -42 -117 -87 -58 -80 -59 -159 -2 -323 12
-33 21 -62 21 -67 0 -4 -42 7 -92 23 -120 39 -229 42 -300 9 -145 -69 -198
-217 -169 -471 12 -102 70 -378 91 -436 34 -91 119 -154 207 -154 106 0 206
82 239 196 15 52 14 62 -5 179 -12 67 -21 126 -21 129 0 15 23 3 59 -29 75
-68 144 -80 262 -45 204 61 284 225 235 483 -24 124 -127 469 -150 504 -31 45
-69 73 -123 89 -57 17 -87 17 -135 0z"/>
<path d="M2942 2245 c-115 -26 -341 -133 -522 -249 l-54 -34 -38 38 c-40 39
-110 70 -159 70 -16 0 -54 -10 -86 -21 -46 -18 -76 -39 -145 -109 -48 -48 -95
-103 -103 -123 -52 -124 30 -254 164 -262 52 -3 56 -5 62 -32 16 -70 13 -76
-59 -113 -92 -47 -193 -148 -233 -235 -44 -93 -51 -211 -19 -316 54 -178 189
-375 332 -485 221 -171 563 -215 786 -101 93 48 242 157 273 200 66 91 38 206
-61 257 -47 24 -101 34 -139 25 -17 -3 -66 -30 -108 -59 -116 -79 -165 -98
-248 -98 -98 0 -184 30 -268 93 -127 96 -205 256 -172 358 16 51 53 34 159
-73 56 -57 81 -75 119 -85 109 -31 218 46 241 170 10 57 -16 124 -72 183 -27
29 -59 71 -71 94 -22 43 -55 160 -65 228 -6 39 -4 42 22 49 15 3 99 47 187 96
159 88 302 155 312 145 6 -6 -50 -188 -89 -285 -16 -42 -59 -134 -95 -206 -60
-120 -64 -134 -60 -183 5 -67 45 -126 107 -160 37 -19 56 -23 107 -20 104 6
145 52 233 260 65 154 174 480 190 571 26 140 -10 259 -101 341 -81 73 -202
100 -327 71z"/>
</g>
</svg>
