<?xml version="1.0" standalone="no"?>
<!DOCTYPE svg PUBLIC "-//W3C//DTD SVG 20010904//EN"
 "http://www.w3.org/TR/2001/REC-SVG-20010904/DTD/svg10.dtd">
<svg version="1.0" xmlns="http://www.w3.org/2000/svg"
 width="600.000000pt" height="600.000000pt" viewBox="0 0 600.000000 600.000000"
 preserveAspectRatio="xMidYMid meet">
<metadata>
Created by potrace 1.15, written by Peter Selinger 2001-2017
</metadata>
<g transform="translate(0.000000,600.000000) scale(0.100000,-0.100000)"
fill="#16364b" stroke="none">
<path d="M2373 5400 c-12 -5 -26 -16 -31 -26 -6 -10 -7 -94 -4 -210 6 -217 -5
-288 -60 -399 -54 -109 -105 -164 -210 -226 -37 -22 -72 -48 -78 -59 -28 -52
5 -120 59 -120 42 0 162 78 230 150 72 77 156 230 188 344 23 84 31 203 21
351 -9 150 -16 176 -55 194 -28 13 -31 13 -60 1z"/>
<path d="M3532 5293 c-16 -6 -52 -76 -52 -102 0 -12 9 -43 19 -71 55 -145 204
-254 295 -216 84 35 75 127 -24 261 -78 106 -170 155 -238 128z"/>
<path d="M3015 5091 c-53 -24 -129 -110 -149 -168 -33 -96 -10 -190 52 -214
63 -25 182 23 237 95 13 17 33 61 45 98 28 84 22 128 -25 175 -27 27 -40 33
-76 33 -24 0 -62 -9 -84 -19z m50 -171 c-17 -38 -61 -78 -72 -66 -11 10 20 67
50 92 38 32 45 24 22 -26z"/>
<path d="M4771 4764 c-38 -27 -51 -74 -51 -184 0 -231 35 -402 96 -470 104
-114 248 -45 269 130 16 133 -78 398 -180 505 -26 28 -40 35 -71 35 -22 0 -50
-7 -63 -16z"/>
<path d="M2670 4228 c-80 -22 -122 -100 -101 -184 15 -60 41 -96 94 -133 135
-92 366 -78 481 30 37 34 41 42 40 86 0 52 -23 102 -57 122 -46 29 -326 93
-397 90 -14 0 -41 -5 -60 -11z"/>
<path d="M5215 3966 c-65 -21 -101 -43 -138 -86 -129 -151 -61 -428 128 -521
58 -28 71 -31 142 -28 104 5 190 46 262 124 94 104 116 222 60 333 -35 71 -77
109 -173 157 -63 32 -76 35 -155 34 -47 0 -104 -6 -126 -13z m173 -311 c10 -9
-9 -36 -30 -44 -18 -7 -27 -5 -40 11 -32 36 -24 51 24 44 23 -4 44 -9 46 -11z"/>
<path d="M4163 3751 c-102 -35 -176 -108 -205 -202 -17 -59 -6 -177 22 -232
64 -126 204 -190 335 -153 105 31 175 92 224 196 23 49 26 67 26 165 -1 125
-15 164 -73 198 -81 48 -235 61 -329 28z m117 -268 c0 -20 -28 -53 -46 -53
-25 0 -25 20 0 45 29 29 46 32 46 8z"/>
<path d="M3460 3387 c-22 -8 -48 -30 -72 -62 -43 -56 -138 -235 -138 -259 0
-53 53 -93 106 -80 73 18 214 225 217 319 3 70 -45 105 -113 82z"/>
<path d="M1068 3360 c-176 -30 -305 -117 -366 -248 -24 -50 -27 -70 -27 -157
0 -119 19 -168 99 -253 100 -106 222 -157 409 -172 159 -13 190 -22 241 -75
76 -78 138 -224 283 -664 35 -107 81 -228 103 -270 118 -227 298 -349 575
-391 41 -6 152 -13 247 -15 95 -2 256 -11 358 -19 109 -9 301 -16 470 -16 623
0 986 67 1355 252 207 103 296 205 378 433 49 136 62 225 62 420 0 171 -2 184
-28 260 -38 108 -95 202 -174 286 -124 131 -268 222 -403 253 -129 31 -326 17
-554 -39 -169 -42 -231 -79 -475 -290 -111 -95 -164 -119 -281 -123 -83 -4
-105 -1 -175 23 -44 14 -125 50 -180 79 -142 75 -505 301 -670 416 -214 149
-283 183 -473 229 -294 73 -620 107 -774 81z m396 -391 c110 -12 253 -42 345
-74 115 -39 227 -103 406 -234 264 -192 303 -216 548 -345 231 -120 347 -156
506 -156 216 0 358 52 623 229 184 122 201 132 295 165 115 41 192 57 277 57
122 0 208 -37 299 -128 93 -92 128 -196 128 -373 0 -159 -31 -267 -102 -353
-45 -54 -300 -179 -469 -228 -166 -50 -264 -59 -730 -69 -434 -10 -501 -8
-885 20 -363 26 -478 62 -552 173 -41 61 -63 122 -124 337 -110 388 -194 573
-322 707 -126 132 -257 191 -452 203 -114 6 -173 22 -190 49 -23 38 152 47
399 20z"/>
<path d="M450 2040 c-28 -28 -26 -75 4 -105 14 -14 39 -45 55 -69 64 -93 178
-159 246 -142 65 16 93 83 61 145 -32 61 -243 191 -312 191 -21 0 -42 -8 -54
-20z"/>
<path d="M5366 1099 c-44 -35 -84 -160 -71 -225 8 -44 48 -84 84 -84 74 0 129
81 138 204 5 70 4 76 -20 100 -33 33 -92 35 -131 5z"/>
</g>
</svg>
