<?xml version="1.0" standalone="no"?>
<!DOCTYPE svg PUBLIC "-//W3C//DTD SVG 20010904//EN"
 "http://www.w3.org/TR/2001/REC-SVG-20010904/DTD/svg10.dtd">
<svg version="1.0" xmlns="http://www.w3.org/2000/svg"
 width="600.000000pt" height="600.000000pt" viewBox="0 0 600.000000 600.000000"
 preserveAspectRatio="xMidYMid meet">
<metadata>
Created by potrace 1.15, written by Peter Selinger 2001-2017
</metadata>
<g transform="translate(0.000000,600.000000) scale(0.100000,-0.100000)"
fill="#16364b" stroke="none">
<path d="M1408 5649 c-217 -182 -248 -216 -248 -274 0 -14 7 -39 15 -55 39
-75 106 -71 384 22 175 59 222 78 249 104 79 78 4 189 -104 154 -19 -7 -37
-10 -40 -8 -2 3 3 19 12 36 18 38 12 66 -24 105 -20 21 -35 27 -68 27 -40 0
-52 -8 -176 -111z"/>
<path d="M2381 5436 c-40 -22 -50 -54 -51 -156 -1 -233 -33 -455 -79 -556 -42
-89 -88 -136 -191 -189 -96 -49 -110 -64 -110 -117 1 -50 48 -98 98 -98 27 0
143 53 195 89 107 74 193 187 227 299 29 95 50 273 57 484 l6 187 -35 35 c-39
39 -74 46 -117 22z"/>
<path d="M3508 5314 c-29 -15 -68 -80 -68 -112 0 -11 16 -51 35 -89 41 -82
122 -164 191 -195 99 -43 191 0 201 96 12 105 -113 265 -234 299 -72 20 -90
21 -125 1z"/>
<path d="M2976 5136 c-49 -22 -107 -87 -140 -156 -26 -55 -31 -76 -31 -140 0
-85 17 -126 66 -161 72 -51 192 -25 279 60 42 41 49 53 60 114 31 170 -29 286
-153 293 -29 2 -65 -2 -81 -10z"/>
<path d="M4743 4760 c-50 -30 -59 -75 -44 -223 25 -262 92 -412 206 -466 78
-37 178 -19 232 40 50 56 68 109 68 204 0 76 -4 99 -26 146 -36 76 -144 187
-251 259 -99 66 -131 73 -185 40z"/>
<path d="M2657 4215 c-96 -36 -147 -106 -147 -200 0 -176 183 -291 380 -241
123 32 288 150 306 219 9 40 -11 100 -45 135 -68 67 -395 125 -494 87z"/>
<path d="M1099 4117 c-46 -30 -73 -87 -64 -134 10 -54 51 -89 120 -103 63 -13
125 -39 125 -51 0 -16 -79 -29 -182 -29 -106 0 -108 0 -143 -31 -19 -17 -40
-48 -46 -69 -10 -32 -9 -44 7 -76 34 -67 60 -79 192 -82 128 -4 208 10 292 53
216 109 205 366 -21 481 -52 26 -185 64 -224 64 -12 0 -37 -10 -56 -23z"/>
<path d="M4260 3777 c-82 -19 -144 -54 -204 -117 -167 -175 -149 -369 42 -458
49 -23 70 -27 147 -27 78 0 98 4 147 28 72 35 140 110 169 185 23 58 38 234
25 285 -20 81 -189 134 -326 104z m40 -277 c0 -15 -38 -50 -55 -50 -26 0 -15
28 20 48 25 14 35 15 35 2z"/>
<path d="M5185 3711 c-138 -39 -232 -119 -261 -219 -43 -147 41 -324 184 -390
48 -22 64 -24 132 -19 125 8 226 72 286 179 26 48 29 62 29 148 0 82 -4 102
-25 144 -23 46 -118 139 -167 165 -31 16 -108 13 -178 -8z m85 -298 c0 -12
-33 -43 -47 -43 -16 0 -17 22 -1 38 13 13 48 17 48 5z"/>
<path d="M1624 3691 c-45 -28 -56 -69 -44 -166 18 -145 59 -235 129 -282 69
-46 161 -20 203 57 30 54 20 149 -22 229 -49 92 -156 181 -217 181 -10 0 -32
-9 -49 -19z"/>
<path d="M3459 3370 c-63 -18 -124 -91 -198 -237 -38 -76 -39 -112 -5 -152 36
-43 77 -48 145 -18 99 44 184 165 196 281 5 51 4 55 -28 89 -37 38 -69 49
-110 37z"/>
<path d="M2150 3054 c-201 -17 -476 -88 -615 -157 -127 -63 -285 -204 -359
-320 -99 -156 -129 -359 -79 -530 36 -125 88 -190 279 -349 100 -83 206 -199
316 -348 114 -153 176 -210 304 -274 104 -53 180 -69 314 -68 138 1 256 28
400 92 52 23 163 68 245 99 355 136 488 201 667 323 369 252 535 634 396 912
-97 195 -249 321 -478 396 -143 47 -361 103 -470 120 -41 7 -131 26 -200 42
-69 16 -172 36 -230 43 -107 14 -409 26 -490 19z m435 -404 c66 -12 189 -39
273 -60 85 -22 190 -44 235 -50 273 -36 475 -122 557 -235 44 -62 45 -109 4
-192 -82 -163 -395 -382 -754 -528 -62 -25 -118 -45 -126 -45 -7 0 -57 -23
-111 -51 -196 -101 -334 -129 -459 -91 -88 27 -131 63 -205 173 -89 133 -194
255 -310 358 -57 51 -121 109 -143 128 -58 53 -79 111 -74 197 7 101 46 168
141 241 69 52 346 155 473 175 91 14 363 3 499 -20z"/>
<path d="M430 2188 c-14 -7 -33 -30 -44 -51 -18 -37 -18 -40 -1 -85 30 -80
152 -315 195 -375 86 -120 219 -169 320 -117 63 32 85 73 85 155 0 99 -27 149
-139 260 -78 78 -108 99 -211 153 -131 69 -167 79 -205 60z"/>
<path d="M4715 1713 c-11 -3 -32 -14 -47 -25 -22 -15 -32 -17 -48 -8 -34 18
-99 15 -129 -7 -14 -11 -32 -37 -40 -57 -13 -34 -12 -50 13 -178 15 -76 37
-166 48 -200 55 -161 212 -206 299 -85 53 73 99 268 99 419 0 92 -100 164
-195 141z"/>
</g>
</svg>
