<?xml version="1.0" standalone="no"?>
<!DOCTYPE svg PUBLIC "-//W3C//DTD SVG 20010904//EN"
 "http://www.w3.org/TR/2001/REC-SVG-20010904/DTD/svg10.dtd">
<svg version="1.0" xmlns="http://www.w3.org/2000/svg"
 width="600.000000pt" height="600.000000pt" viewBox="0 0 600.000000 600.000000"
 preserveAspectRatio="xMidYMid meet">
<metadata>
Created by potrace 1.15, written by Peter Selinger 2001-2017
</metadata>
<g transform="translate(0.000000,600.000000) scale(0.100000,-0.100000)"
fill="#16364b" stroke="none">
<path d="M3573 5272 c-29 -4 -63 -48 -63 -79 0 -54 90 -190 157 -236 58 -40
107 -46 138 -17 48 45 22 137 -68 245 -57 67 -110 96 -164 87z m98 -164 c17
-24 18 -29 6 -19 -18 14 -42 51 -33 51 3 0 15 -15 27 -32z"/>
<path d="M3045 5107 c-58 -15 -136 -97 -164 -172 -32 -85 -27 -178 13 -211 36
-32 72 -30 127 4 99 64 179 184 179 272 0 54 -20 87 -66 106 -38 16 -35 16
-89 1z m55 -118 c0 -31 -28 -77 -77 -131 -71 -75 -90 -63 -53 35 34 90 130
162 130 96z"/>
<path d="M4776 4717 c-28 -21 -36 -81 -37 -307 -1 -233 6 -286 46 -326 26 -26
81 -32 116 -14 84 46 91 305 14 549 -27 85 -49 111 -95 111 -15 0 -34 -6 -44
-13z"/>
<path d="M2663 4226 c-53 -24 -77 -94 -52 -148 26 -57 201 -135 326 -146 116
-9 180 25 197 105 10 42 -17 98 -52 112 -189 75 -355 106 -419 77z"/>
<path d="M5255 3991 c-165 -43 -253 -182 -225 -358 34 -214 176 -340 352 -312
123 20 237 103 287 209 21 45 26 70 26 135 0 131 -50 211 -178 287 -64 39 -76
42 -151 44 -44 2 -94 0 -111 -5z m104 -322 c37 -13 40 -35 6 -51 -19 -8 -28
-8 -40 2 -15 13 -20 42 -8 53 8 9 4 9 42 -4z"/>
<path d="M1384 3959 c-45 -13 -119 -82 -145 -137 -35 -70 -33 -168 4 -247 32
-68 101 -138 170 -173 130 -65 190 -193 251 -532 64 -353 91 -556 101 -735 19
-357 96 -570 262 -732 100 -98 204 -155 343 -189 41 -10 79 -21 83 -25 5 -4
-18 -21 -51 -39 -235 -125 -322 -320 -177 -394 37 -19 63 -21 305 -26 l265 -5
-63 -34 c-95 -52 -119 -116 -63 -172 72 -71 206 -9 275 128 37 74 10 164 -64
207 -32 19 -56 21 -292 26 -141 3 -260 9 -265 13 -23 24 130 116 342 205 l120
50 368 6 367 6 0 -32 c0 -49 39 -109 88 -137 50 -27 133 -51 180 -51 30 0 32
-2 32 -35 0 -50 17 -80 56 -99 84 -39 205 -4 257 76 32 48 31 81 -3 128 -29
41 -86 59 -228 71 -139 13 -217 28 -217 44 0 6 32 13 70 17 39 3 83 11 98 17
16 6 47 11 71 11 142 0 532 105 742 200 136 61 268 179 358 317 133 206 157
422 75 667 -85 254 -227 395 -444 441 -193 40 -369 -1 -530 -124 -172 -132
-433 -203 -695 -188 -170 10 -335 63 -468 149 -137 90 -312 279 -477 518 -193
278 -355 465 -498 574 -40 30 -112 77 -162 104 -49 27 -110 61 -135 76 -95 56
-224 79 -306 55z m145 -234 c23 -8 54 -23 69 -34 15 -10 66 -39 115 -64 215
-112 319 -215 527 -526 235 -353 469 -599 666 -703 151 -79 369 -135 564 -145
251 -13 593 88 789 232 106 78 140 90 256 90 121 0 173 -21 248 -100 59 -60
131 -203 148 -293 35 -186 -64 -408 -248 -550 -122 -95 -499 -214 -769 -242
-127 -14 -1026 -7 -1189 8 -422 41 -560 130 -658 424 -34 102 -45 166 -57 333
-12 157 -33 333 -55 445 -8 41 -29 165 -45 275 -40 263 -62 351 -116 463 -52
108 -135 200 -226 251 -92 52 -133 115 -90 140 22 13 22 13 71 -4z"/>
<path d="M2394 2482 c-31 -4 -56 -36 -52 -64 2 -14 16 -30 39 -42 35 -19 38
-19 63 -3 65 43 28 122 -50 109z"/>
<path d="M2833 2060 c-26 -10 -41 -56 -26 -79 37 -58 101 -64 123 -11 16 39 1
76 -36 90 -30 12 -32 12 -61 0z"/>
<path d="M4202 3739 c-65 -25 -159 -114 -190 -180 -35 -73 -48 -149 -34 -198
19 -63 71 -122 135 -155 50 -26 69 -30 138 -29 68 0 88 5 145 33 115 56 184
177 170 296 -11 93 -42 160 -89 193 -90 62 -183 75 -275 40z m108 -258 c0 -25
-40 -55 -54 -41 -6 6 -2 18 14 35 28 30 40 32 40 6z"/>
<path d="M3445 3348 c-37 -43 -145 -269 -145 -301 0 -30 28 -50 63 -45 37 5
159 200 187 299 22 75 -53 108 -105 47z"/>
<path d="M468 2019 c-11 -6 -18 -22 -18 -38 0 -56 222 -211 302 -211 41 0 58
15 58 52 0 35 -36 64 -182 146 -116 64 -131 69 -160 51z"/>
<path d="M5351 1096 c-24 -25 -61 -131 -61 -172 0 -33 25 -81 49 -94 85 -45
170 45 171 181 0 85 -19 109 -89 109 -37 0 -52 -5 -70 -24z"/>
</g>
</svg>
