<?xml version="1.0" standalone="no"?>
<!DOCTYPE svg PUBLIC "-//W3C//DTD SVG 20010904//EN"
 "http://www.w3.org/TR/2001/REC-SVG-20010904/DTD/svg10.dtd">
<svg version="1.0" xmlns="http://www.w3.org/2000/svg"
 width="600.000000pt" height="600.000000pt" viewBox="0 0 600.000000 600.000000"
 preserveAspectRatio="xMidYMid meet">
<metadata>
Created by potrace 1.15, written by Peter Selinger 2001-2017
</metadata>
<g transform="translate(0.000000,600.000000) scale(0.100000,-0.100000)"
fill="#16364b" stroke="none">
<path d="M2179 5822 c-15 -9 -59 -50 -99 -90 -40 -40 -132 -125 -204 -189
-150 -133 -298 -279 -344 -339 -103 -134 -94 -267 22 -335 50 -29 54 -30 156
-26 139 5 228 36 530 181 129 63 252 122 273 131 53 25 80 67 85 134 4 66 -19
110 -70 137 -53 27 -105 22 -194 -20 -135 -65 -256 -117 -261 -112 -2 2 19 26
48 52 163 151 249 239 264 271 12 25 16 52 13 91 -4 49 -9 59 -46 94 -37 34
-47 38 -94 38 -34 0 -63 -7 -79 -18z"/>
<path d="M3050 5678 c-36 -18 -49 -33 -64 -69 -24 -60 -16 -103 29 -157 31
-36 49 -45 147 -77 276 -89 378 -185 378 -356 0 -174 -63 -246 -312 -353 -64
-28 -89 -58 -95 -119 -8 -83 59 -157 143 -157 55 0 192 59 302 129 190 122
262 265 262 520 0 161 -31 248 -126 350 -115 125 -332 245 -530 295 -79 20
-81 20 -134 -6z"/>
<path d="M969 5337 c-131 -54 -264 -158 -326 -255 -79 -123 -80 -273 -4 -427
51 -102 112 -171 209 -236 74 -49 79 -51 135 -47 67 5 102 27 134 84 42 73 23
149 -51 206 -122 96 -172 186 -147 267 14 48 75 104 140 127 99 37 148 99 138
177 -7 48 -29 82 -70 107 -42 26 -89 25 -158 -3z"/>
<path d="M2719 4966 c-136 -36 -227 -141 -265 -303 -44 -186 32 -370 185 -448
112 -56 264 -72 321 -32 53 36 72 69 72 124 0 91 -56 155 -147 168 -135 19
-186 80 -135 163 20 32 27 36 110 66 129 46 115 203 -22 261 -44 18 -57 18
-119 1z"/>
<path d="M4725 4919 c-59 -55 -68 -89 -55 -214 25 -239 120 -409 270 -483 45
-22 69 -27 130 -27 64 0 82 4 123 28 179 105 181 369 4 541 -104 100 -289 196
-380 196 -42 0 -53 -5 -92 -41z"/>
<path d="M1808 4471 c-83 -27 -139 -63 -195 -125 -72 -78 -79 -142 -25 -215
61 -81 191 -82 267 -1 62 66 133 80 176 34 74 -79 195 -71 249 18 56 92 -8
201 -158 271 -85 40 -224 48 -314 18z"/>
<path d="M2700 3855 c-78 -21 -120 -70 -120 -138 0 -32 7 -61 20 -83 23 -36
91 -74 133 -74 25 0 27 -3 27 -38 0 -91 -86 -276 -201 -433 -66 -89 -74 -110
-69 -169 8 -90 112 -157 202 -130 53 15 85 49 177 184 223 328 284 655 150
801 -72 78 -204 111 -319 80z"/>
<path d="M4210 3780 c-193 -52 -309 -188 -297 -350 10 -152 127 -271 282 -287
112 -12 248 56 342 169 58 70 155 268 160 328 5 57 -20 107 -67 135 -30 17
-55 20 -190 22 -129 3 -167 0 -230 -17z m67 -315 c-30 -26 -61 -34 -55 -12 5
14 46 37 68 37 10 -1 5 -9 -13 -25z"/>
<path d="M1178 3780 c-71 -12 -262 -78 -299 -103 -77 -53 -98 -181 -43 -259
49 -70 138 -106 217 -88 20 4 37 5 37 1 0 -4 -30 -59 -66 -122 -172 -299 -200
-350 -236 -428 -47 -101 -90 -231 -107 -322 -10 -51 -10 -76 -1 -110 26 -97
109 -157 201 -146 62 8 85 21 151 83 29 28 124 110 210 183 87 72 234 206 328
298 152 147 170 162 170 138 0 -58 -52 -280 -119 -507 -75 -254 -111 -354
-185 -514 -52 -114 -59 -168 -26 -221 39 -64 131 -86 205 -47 47 24 72 67 171
289 134 303 206 569 266 990 13 90 4 258 -16 313 -35 97 -95 142 -189 142 -87
0 -142 -35 -307 -195 -220 -213 -213 -209 -147 -84 161 302 204 477 148 593
-26 52 -85 98 -151 116 -41 11 -144 11 -212 0z"/>
<path d="M3472 3365 c-96 -45 -153 -128 -192 -279 -26 -101 -25 -139 2 -188
38 -66 76 -83 193 -82 121 0 195 25 263 88 64 58 92 123 92 212 0 122 -69 220
-183 258 -66 22 -113 20 -175 -9z"/>
<path d="M4860 2802 c-38 -19 -158 -153 -220 -245 -102 -151 -107 -291 -13
-379 63 -60 159 -74 257 -38 107 41 223 175 256 299 15 56 14 174 -1 203 -24
47 -146 156 -185 167 -51 14 -53 14 -94 -7z"/>
<path d="M4186 2456 c-48 -18 -91 -59 -119 -111 -27 -53 -26 -133 6 -252 13
-51 20 -93 15 -93 -5 0 -35 14 -68 30 -198 100 -369 70 -473 -82 -54 -79 -71
-158 -64 -298 6 -112 57 -451 78 -518 15 -44 66 -102 106 -118 96 -40 235 9
298 104 40 61 45 109 29 255 -8 71 -12 132 -10 134 6 6 46 -15 94 -49 54 -40
118 -49 205 -31 142 29 231 92 284 201 26 53 28 65 27 177 -1 127 -15 205 -75
423 -36 128 -56 164 -118 206 -53 35 -152 45 -215 22z"/>
<path d="M2949 2319 c-30 -4 -92 -24 -137 -44 -117 -51 -463 -233 -489 -257
-19 -18 -26 -19 -76 -8 -101 21 -191 -14 -294 -113 -70 -67 -88 -106 -81 -179
6 -54 25 -86 81 -132 30 -24 49 -31 96 -34 l60 -4 15 -72 c9 -39 19 -81 22
-93 4 -16 0 -23 -16 -28 -96 -30 -224 -146 -273 -245 -30 -61 -32 -70 -32
-180 0 -106 3 -120 31 -186 104 -239 311 -417 594 -509 108 -36 258 -40 360
-11 84 24 302 129 345 167 118 104 69 285 -87 320 -57 13 -74 9 -215 -63 -112
-57 -126 -62 -185 -61 -80 1 -162 23 -237 63 -127 68 -228 208 -214 297 4 27
10 33 31 33 14 0 41 -12 61 -28 44 -33 165 -96 204 -106 17 -4 50 -1 82 8 84
25 155 117 155 201 0 56 -23 99 -87 159 -96 91 -133 175 -177 406 -12 65 -12
72 3 77 9 3 113 51 231 109 118 57 227 106 243 110 l27 6 -35 -102 c-55 -157
-92 -246 -150 -360 -65 -126 -70 -145 -55 -200 16 -60 46 -96 104 -125 96 -48
203 -22 256 62 47 74 110 227 182 443 106 316 115 409 53 516 -70 120 -233
188 -396 163z"/>
</g>
</svg>
