<?xml version="1.0" standalone="no"?>
<!DOCTYPE svg PUBLIC "-//W3C//DTD SVG 20010904//EN"
 "http://www.w3.org/TR/2001/REC-SVG-20010904/DTD/svg10.dtd">
<svg version="1.0" xmlns="http://www.w3.org/2000/svg"
 width="600.000000pt" height="600.000000pt" viewBox="0 0 600.000000 600.000000"
 preserveAspectRatio="xMidYMid meet">
<metadata>
Created by potrace 1.15, written by Peter Selinger 2001-2017
</metadata>
<g transform="translate(0.000000,600.000000) scale(0.100000,-0.100000)"
fill="#16364b" stroke="none">
<path d="M2033 5085 c-167 -52 -264 -207 -233 -372 50 -269 81 -929 60 -1318
-10 -195 -10 -287 -1 -415 6 -91 11 -209 11 -261 l0 -96 -57 -54 c-32 -30 -87
-79 -123 -110 -112 -97 -282 -243 -315 -271 -21 -17 -39 -25 -52 -22 -24 7
-40 -13 -24 -29 19 -19 13 -24 -25 -23 -46 1 -53 -16 -20 -45 l24 -21 -25 -23
c-31 -26 -24 -45 19 -45 20 0 28 -4 25 -12 -3 -7 -8 -21 -12 -30 -15 -37 24
-29 84 18 34 26 61 51 61 55 0 22 406 379 430 379 6 0 10 -69 10 -202 0 -234
15 -357 59 -476 31 -87 96 -194 158 -263 88 -97 247 -182 393 -208 l65 -12 0
-182 c0 -197 9 -258 67 -457 17 -58 33 -113 35 -122 5 -16 -3 -18 -76 -18
-105 0 -146 -17 -168 -67 -13 -33 -14 -43 -2 -77 21 -59 64 -78 164 -73 128 6
218 64 246 157 11 36 8 50 -29 167 -52 161 -79 290 -87 418 -6 87 5 228 18
242 3 2 130 -8 283 -22 223 -22 318 -26 474 -23 l196 3 -1 -120 c0 -133 10
-181 90 -429 25 -76 43 -142 40 -146 -3 -5 -40 -12 -83 -15 -42 -4 -87 -11
-100 -16 -74 -28 -98 -125 -42 -172 16 -14 44 -28 61 -32 90 -20 237 36 292
112 51 72 49 123 -12 291 -102 280 -120 384 -88 507 16 60 8 58 257 80 233 21
265 27 342 66 118 59 218 187 272 347 78 228 56 580 -47 777 -32 59 -140 178
-242 264 l-50 42 55 -5 c30 -3 127 -10 215 -17 88 -6 165 -15 171 -20 11 -9
152 25 168 41 4 4 5 14 0 22 -8 13 -9 18 -12 71 -2 29 -2 29 -52 22 -46 -6
-50 -5 -50 14 0 26 -35 29 -44 5 -6 -15 -20 -16 -119 -11 -61 3 -224 22 -362
42 -286 42 -245 25 -495 205 -170 122 -242 169 -405 260 -215 120 -306 183
-397 278 -118 123 -216 268 -317 470 -66 130 -84 180 -132 357 -87 325 -144
459 -226 536 -51 48 -80 64 -143 83 -64 19 -120 19 -177 1z m151 -149 c70 -29
140 -131 167 -243 7 -27 18 -60 25 -74 7 -15 29 -89 49 -165 46 -180 76 -267
135 -389 88 -183 265 -446 379 -563 84 -85 164 -140 398 -270 194 -107 283
-165 488 -317 72 -52 171 -123 220 -157 368 -251 485 -383 525 -588 20 -107
16 -331 -8 -421 -40 -151 -113 -259 -206 -304 -46 -23 -80 -28 -272 -45 -120
-11 -291 -31 -380 -45 -192 -30 -440 -33 -704 -9 -91 8 -225 19 -299 24 -173
13 -258 31 -349 75 -139 66 -247 208 -286 375 -48 209 -55 382 -45 1245 9 738
-14 1397 -58 1632 -18 101 -12 146 27 195 41 53 126 72 194 44z m-834 -2886
c0 -5 -2 -10 -4 -10 -3 0 -8 5 -11 10 -3 6 -1 10 4 10 6 0 11 -4 11 -10z"/>
<path d="M2680 2763 c-29 -10 -50 -36 -50 -60 0 -31 42 -73 74 -73 29 0 66 42
66 75 0 36 -54 71 -90 58z"/>
<path d="M3082 2644 c-47 -33 -18 -114 41 -114 30 0 67 41 67 75 0 48 -63 71
-108 39z"/>
<path d="M5257 3989 c-89 -21 -175 -88 -219 -171 -19 -36 -23 -58 -23 -143 0
-87 3 -107 26 -156 70 -149 188 -208 349 -175 210 44 334 166 334 325 -1 109
-51 180 -187 265 -96 60 -185 77 -280 55z m112 -290 c35 -12 40 -33 12 -49
-31 -16 -47 -12 -60 16 -19 42 -6 52 48 33z"/>
<path d="M5328 1105 c-34 -19 -68 -107 -68 -176 0 -173 182 -180 219 -9 28
129 3 188 -79 196 -29 3 -55 -1 -72 -11z"/>
</g>
</svg>
