<?xml version="1.0" standalone="no"?>
<!DOCTYPE svg PUBLIC "-//W3C//DTD SVG 20010904//EN"
 "http://www.w3.org/TR/2001/REC-SVG-20010904/DTD/svg10.dtd">
<svg version="1.0" xmlns="http://www.w3.org/2000/svg"
 width="600.000000pt" height="600.000000pt" viewBox="0 0 600.000000 600.000000"
 preserveAspectRatio="xMidYMid meet">
<metadata>
Created by potrace 1.15, written by Peter Selinger 2001-2017
</metadata>
<g transform="translate(0.000000,600.000000) scale(0.100000,-0.100000)"
fill="#16364b" stroke="none">
<path d="M1594 5801 c-40 -17 -72 -69 -88 -142 -125 -546 -29 -853 242 -779
62 18 177 131 256 253 84 128 186 345 186 394 0 78 -67 145 -145 145 -72 0
-91 -20 -157 -166 -54 -122 -117 -238 -153 -281 -15 -19 -16 -12 -11 100 3 66
15 163 26 215 30 142 27 182 -13 226 -26 29 -42 37 -77 40 -25 2 -54 0 -66 -5z"/>
<path d="M3244 5535 c-62 -32 -84 -127 -45 -192 12 -18 74 -68 153 -122 73
-49 155 -111 183 -137 l50 -47 -39 -14 c-77 -26 -111 -78 -103 -157 4 -43 10
-55 43 -85 58 -50 115 -72 188 -73 94 0 165 43 208 126 31 60 22 162 -21 243
-72 135 -185 243 -408 390 -121 80 -160 93 -209 68z"/>
<path d="M813 5475 c-133 -41 -227 -150 -263 -303 -15 -66 -8 -189 15 -257 41
-123 146 -225 232 -225 82 0 134 50 141 137 l4 53 -59 60 c-35 34 -63 72 -66
88 -7 35 6 94 27 127 36 55 84 68 165 45 60 -16 121 7 152 56 30 50 23 123
-17 165 -56 59 -227 87 -331 54z"/>
<path d="M2949 5140 c-85 -45 -152 -148 -171 -262 -18 -105 21 -192 101 -225
50 -21 152 -18 230 8 130 43 153 76 155 219 1 87 -2 100 -29 155 -42 85 -103
125 -189 125 -40 -1 -73 -7 -97 -20z"/>
<path d="M2280 4992 c-46 -23 -80 -75 -80 -123 0 -52 -20 -69 -148 -119 -127
-50 -154 -68 -176 -114 -35 -73 -9 -158 58 -190 45 -21 72 -20 126 5 25 12 86
37 135 56 157 60 226 118 267 225 26 70 27 164 2 207 -21 37 -79 71 -121 71
-15 0 -44 -8 -63 -18z"/>
<path d="M4775 4831 c-68 -42 -70 -48 -69 -215 1 -96 7 -177 17 -223 53 -243
220 -377 397 -318 115 38 178 143 167 282 -13 168 -156 362 -336 451 -92 46
-131 51 -176 23z"/>
<path d="M2772 4125 c-156 -42 -240 -176 -188 -299 22 -53 83 -113 144 -143
52 -25 67 -28 172 -28 94 0 135 6 225 29 221 57 290 94 315 172 30 89 -18 155
-152 209 -174 69 -387 94 -516 60z"/>
<path d="M1031 4062 c-19 -9 -48 -34 -65 -55 -27 -33 -31 -47 -31 -97 0 -44 5
-66 21 -87 34 -46 80 -71 142 -78 108 -11 192 -27 192 -35 0 -23 -233 -213
-440 -359 -63 -44 -132 -95 -154 -112 -66 -55 -84 -135 -46 -209 27 -53 72
-83 135 -88 55 -4 87 8 175 67 25 17 47 31 50 31 3 0 11 -14 19 -31 7 -17 34
-44 60 -61 40 -25 53 -29 101 -26 48 4 66 12 139 62 104 71 216 127 298 150
57 15 65 15 92 1 41 -20 125 -19 163 3 91 53 93 250 2 321 -44 35 -99 45 -153
28 -25 -9 -71 -20 -101 -25 -31 -6 -68 -14 -84 -18 l-28 -7 41 54 c128 169
133 343 12 452 -72 65 -158 98 -316 122 -130 19 -182 19 -224 -3z"/>
<path d="M4242 3779 c-116 -23 -230 -108 -281 -211 -101 -201 42 -428 269
-428 174 0 333 154 385 371 25 110 17 156 -37 207 -49 45 -242 80 -336 61z
m48 -306 c0 -12 -33 -43 -47 -43 -22 0 -15 30 10 40 28 11 37 12 37 3z"/>
<path d="M3394 3374 c-42 -20 -86 -83 -140 -199 -55 -117 -57 -159 -14 -209
40 -45 87 -60 166 -53 108 10 159 48 204 151 23 51 28 164 10 211 -34 90 -146
139 -226 99z"/>
<path d="M5047 3325 c-126 -63 -199 -130 -250 -231 -66 -131 -49 -270 43 -348
52 -43 110 -59 202 -54 143 7 250 74 308 192 71 146 56 273 -48 391 -82 93
-145 106 -255 50z"/>
<path d="M1111 2892 c-50 -25 -76 -65 -75 -115 1 -63 27 -101 109 -162 48 -35
88 -75 112 -111 34 -51 37 -62 38 -128 0 -60 -5 -82 -33 -142 -45 -94 -113
-163 -171 -171 -38 -5 -44 -3 -90 40 -54 51 -84 62 -139 54 -42 -7 -97 -59
-108 -102 -19 -78 49 -171 170 -230 240 -118 433 -31 576 260 137 278 101 491
-116 694 -74 69 -177 131 -218 131 -12 0 -36 -8 -55 -18z"/>
<path d="M2219 2745 c-99 -36 -173 -110 -245 -244 -65 -120 -118 -193 -172
-239 -26 -21 -54 -52 -62 -68 -8 -16 -46 -67 -83 -114 -110 -136 -216 -375
-253 -567 -28 -146 -14 -334 35 -464 65 -173 255 -337 512 -443 153 -63 273
-69 479 -24 282 60 426 154 568 368 84 126 195 353 227 464 28 99 70 325 80
431 9 97 -9 217 -44 292 -74 158 -210 232 -426 233 -91 0 -135 14 -135 43 0 6
-20 52 -44 102 -54 110 -140 199 -221 228 -59 20 -164 22 -216 2z m120 -477
c24 -81 73 -167 120 -209 88 -81 97 -83 281 -89 l164 -5 10 -40 c18 -78 -34
-362 -95 -520 -46 -118 -103 -208 -180 -284 -208 -207 -509 -224 -749 -43
-102 78 -135 154 -127 292 6 103 29 176 108 336 44 90 76 140 126 196 159 179
247 287 281 346 20 34 39 62 43 62 3 0 11 -19 18 -42z"/>
<path d="M4085 2376 c-108 -47 -149 -158 -109 -295 6 -21 5 -23 -17 -15 -13 5
-54 9 -90 9 -57 0 -71 -4 -103 -29 -76 -58 -104 -142 -86 -266 16 -115 89
-449 104 -479 27 -52 95 -91 159 -91 49 0 118 26 152 57 24 22 39 27 89 29 74
3 123 23 177 71 51 46 75 93 90 175 14 77 4 171 -41 398 -16 80 -34 185 -41
233 -15 109 -46 164 -111 196 -51 24 -127 27 -173 7z"/>
</g>
</svg>
