<?xml version="1.0" standalone="no"?>
<!DOCTYPE svg PUBLIC "-//W3C//DTD SVG 20010904//EN"
 "http://www.w3.org/TR/2001/REC-SVG-20010904/DTD/svg10.dtd">
<svg version="1.0" xmlns="http://www.w3.org/2000/svg"
 width="600.000000pt" height="600.000000pt" viewBox="0 0 600.000000 600.000000"
 preserveAspectRatio="xMidYMid meet">
<metadata>
Created by potrace 1.15, written by Peter Selinger 2001-2017
</metadata>
<g transform="translate(0.000000,600.000000) scale(0.100000,-0.100000)"
fill="#16364b" stroke="none">
<path d="M2390 5403 c-35 -14 -39 -36 -38 -223 0 -102 -5 -214 -11 -250 -38
-209 -121 -333 -276 -410 -37 -18 -73 -40 -81 -47 -34 -34 0 -113 49 -113 11
0 56 19 101 43 256 134 367 385 354 803 -5 156 -5 157 -32 181 -27 23 -39 26
-66 16z"/>
<path d="M3564 5290 c-27 -11 -54 -53 -54 -86 0 -36 73 -174 122 -229 44 -50
103 -85 143 -85 37 0 85 50 85 88 0 95 -126 283 -205 305 -48 13 -71 15 -91 7z"/>
<path d="M3025 5111 c-91 -41 -156 -146 -163 -262 -6 -106 25 -149 110 -149
76 0 186 88 228 182 45 102 32 178 -39 225 -41 28 -82 29 -136 4z m65 -133 c0
-32 -39 -97 -72 -121 -15 -12 -29 -19 -32 -16 -10 11 27 100 53 128 34 37 51
39 51 9z"/>
<path d="M4791 4741 c-13 -3 -34 -19 -45 -34 -19 -26 -21 -44 -24 -205 -6
-328 39 -440 172 -429 41 4 55 10 82 40 43 47 57 103 51 202 -5 91 -46 223
-102 335 -29 57 -43 74 -70 86 -19 8 -36 14 -37 13 -2 -1 -14 -4 -27 -8z"/>
<path d="M2634 4212 c-86 -41 -98 -149 -26 -226 105 -112 311 -144 474 -74 93
40 124 118 78 193 -24 40 -41 46 -200 85 -167 40 -271 47 -326 22z"/>
<path d="M5220 3985 c-141 -40 -210 -136 -210 -295 0 -185 94 -329 236 -361
119 -27 284 29 373 127 58 64 81 124 81 213 0 119 -64 209 -200 284 -81 44
-190 56 -280 32z m139 -306 c17 -6 31 -14 31 -17 0 -13 -35 -42 -51 -42 -21 0
-43 35 -35 56 6 17 14 17 55 3z"/>
<path d="M4183 3756 c-217 -68 -295 -331 -148 -504 36 -43 99 -79 162 -92 131
-28 288 63 344 200 22 55 18 225 -6 275 -49 100 -226 160 -352 121z m97 -279
c0 -26 -26 -49 -51 -45 l-24 3 27 28 c29 29 48 35 48 14z"/>
<path d="M1154 3536 c-125 -29 -226 -102 -275 -201 -37 -76 -35 -181 6 -253
55 -100 190 -200 328 -242 151 -46 159 -50 237 -129 115 -116 161 -223 210
-481 37 -201 92 -438 120 -520 57 -168 165 -344 256 -416 132 -104 320 -157
649 -184 214 -18 938 -25 1115 -11 196 15 404 45 498 71 89 25 278 103 428
177 255 125 393 303 476 613 18 71 22 111 22 245 1 143 -2 166 -22 216 -32 81
-89 165 -167 248 -193 204 -395 286 -642 261 -206 -21 -322 -69 -508 -205
-252 -185 -310 -214 -477 -235 -151 -20 -277 10 -487 117 -125 64 -307 178
-415 261 -32 25 -127 104 -210 175 -257 221 -480 349 -771 446 -173 58 -269
70 -371 47z m235 -336 c221 -64 454 -200 733 -431 150 -124 596 -428 715 -487
181 -90 312 -125 478 -126 132 -1 219 15 365 66 114 40 187 81 360 203 218
154 296 187 444 187 133 -1 222 -45 313 -157 73 -89 97 -154 101 -276 5 -124
-11 -198 -63 -305 -55 -112 -123 -169 -307 -259 -275 -133 -363 -153 -809
-185 -366 -26 -604 -24 -1012 9 -244 20 -394 57 -472 117 -113 85 -213 357
-265 719 -52 359 -101 482 -260 649 -121 127 -244 197 -390 221 -48 8 -94 28
-122 53 -49 42 47 43 191 2z"/>
<path d="M2261 2360 c-13 -3 -33 -17 -44 -32 -19 -25 -19 -28 -3 -52 31 -49
95 -46 122 5 14 27 14 33 0 53 -17 27 -41 35 -75 26z"/>
<path d="M2846 2049 c-15 -12 -26 -30 -26 -44 0 -24 51 -75 75 -75 22 0 55 41
55 69 0 32 -8 45 -37 60 -30 15 -36 14 -67 -10z"/>
<path d="M3456 3359 c-39 -31 -176 -273 -176 -312 0 -29 36 -60 69 -60 43 0
113 69 176 175 58 98 70 163 36 197 -27 27 -71 27 -105 0z"/>
<path d="M480 2037 c-18 -9 -26 -22 -28 -48 -3 -32 4 -43 70 -114 90 -95 154
-135 221 -135 77 0 113 62 72 124 -21 31 -113 95 -200 138 -92 46 -105 50
-135 35z"/>
<path d="M5313 1108 c-54 -26 -85 -175 -49 -230 31 -47 110 -63 155 -32 36 26
61 90 61 161 0 56 -2 63 -31 87 -33 28 -94 34 -136 14z"/>
</g>
</svg>
