<?xml version="1.0" standalone="no"?>
<!DOCTYPE svg PUBLIC "-//W3C//DTD SVG 20010904//EN"
 "http://www.w3.org/TR/2001/REC-SVG-20010904/DTD/svg10.dtd">
<svg version="1.0" xmlns="http://www.w3.org/2000/svg"
 width="600.000000pt" height="600.000000pt" viewBox="0 0 600.000000 600.000000"
 preserveAspectRatio="xMidYMid meet">
<metadata>
Created by potrace 1.15, written by Peter Selinger 2001-2017
</metadata>
<g transform="translate(0.000000,600.000000) scale(0.100000,-0.100000)"
fill="#16364b" stroke="none">
<path d="M1633 5770 c-43 -26 -57 -57 -81 -180 -50 -258 -57 -307 -57 -440 0
-125 2 -138 25 -178 36 -64 100 -102 169 -102 34 0 73 8 99 20 103 47 286 269
430 521 70 123 14 239 -116 239 -64 0 -101 -29 -144 -114 -69 -139 -157 -269
-158 -235 0 16 11 78 46 270 15 84 15 88 -4 133 -13 28 -33 53 -54 66 -43 26
-113 26 -155 0z"/>
<path d="M3121 5574 c-58 -49 -77 -125 -45 -185 10 -21 68 -65 187 -143 179
-117 261 -184 309 -250 34 -48 35 -60 4 -52 -53 13 -127 -32 -153 -93 -42 -98
38 -182 186 -198 111 -11 218 44 261 133 33 67 25 168 -20 252 -79 149 -219
289 -459 459 -121 86 -142 97 -186 101 -45 4 -55 1 -84 -24z"/>
<path d="M870 5467 c-113 -26 -203 -95 -255 -197 -70 -137 -84 -295 -35 -395
29 -61 122 -154 182 -183 90 -44 179 -16 207 64 21 59 8 90 -65 160 -59 57
-64 65 -64 104 0 55 22 100 63 128 28 18 47 22 113 22 99 0 136 20 166 86 34
78 2 160 -76 194 -56 25 -166 33 -236 17z"/>
<path d="M2936 5155 c-49 -17 -116 -82 -153 -149 -25 -46 -28 -61 -28 -143 0
-87 1 -93 31 -130 49 -61 102 -85 187 -85 91 1 193 32 229 69 38 40 48 74 48
166 0 67 -5 92 -26 137 -32 69 -56 96 -116 126 -54 27 -113 30 -172 9z"/>
<path d="M2279 4860 c-14 -4 -37 -14 -50 -23 -13 -8 -60 -23 -104 -32 -106
-23 -215 -73 -240 -111 -26 -40 -32 -122 -11 -163 35 -68 113 -88 195 -51 24
11 91 29 150 39 58 11 115 23 126 27 135 49 155 248 32 305 -45 20 -58 21 -98
9z"/>
<path d="M4750 4828 c-69 -47 -75 -65 -74 -211 0 -104 5 -149 23 -211 59 -213
162 -321 317 -334 149 -12 263 83 280 234 18 150 -83 331 -244 437 -161 107
-237 128 -302 85z"/>
<path d="M2789 4096 c-64 -23 -109 -57 -137 -104 -22 -39 -27 -59 -27 -112 1
-117 68 -199 196 -240 62 -20 84 -22 197 -18 178 7 395 64 445 116 72 75 60
190 -25 242 -44 27 -221 85 -335 110 -106 23 -258 26 -314 6z"/>
<path d="M1030 4058 c-133 -69 -144 -262 -20 -346 33 -22 40 -23 139 -16 123
8 122 16 3 -126 -88 -106 -135 -151 -302 -288 -144 -119 -227 -198 -247 -237
-22 -41 -21 -132 0 -173 42 -78 169 -116 250 -73 l38 20 36 -25 c26 -17 49
-24 82 -24 51 1 82 15 166 75 l56 39 26 -32 c13 -18 41 -41 61 -51 74 -38 103
-89 103 -183 1 -102 -55 -246 -146 -373 -48 -67 -81 -101 -139 -139 -35 -23
-45 -25 -110 -20 -60 5 -76 2 -104 -15 -94 -60 -93 -187 1 -238 51 -29 196
-25 267 7 102 45 173 93 245 164 85 84 143 168 198 285 55 117 77 207 77 317
0 155 -50 274 -157 374 -34 33 -63 61 -63 63 0 7 158 77 172 77 7 0 26 -14 42
-30 59 -60 155 -60 215 1 40 40 45 61 36 174 -8 106 -31 165 -78 199 -40 30
-126 28 -190 -2 -57 -27 -237 -92 -237 -86 0 3 25 35 56 72 30 37 72 100 92
140 32 66 36 82 36 156 1 76 -2 89 -34 152 -25 49 -49 79 -85 106 -74 57 -127
70 -295 75 -136 4 -148 3 -190 -19z"/>
<path d="M4219 3786 c-167 -48 -289 -192 -289 -340 0 -64 45 -161 92 -201 68
-57 106 -70 208 -70 105 0 144 14 227 81 82 67 163 220 179 338 13 89 -32 152
-129 181 -71 22 -230 28 -288 11z m76 -306 c-19 -21 -55 -27 -55 -10 0 12 31
29 54 30 18 0 18 -1 1 -20z"/>
<path d="M3385 3392 c-62 -30 -120 -103 -185 -231 -26 -53 -31 -73 -27 -109 6
-53 50 -104 106 -121 57 -16 140 -13 186 8 137 62 217 293 138 400 -51 67
-141 89 -218 53z"/>
<path d="M5070 3286 c-133 -48 -274 -186 -311 -307 -82 -262 139 -451 386
-330 76 38 127 92 169 180 27 58 31 76 31 151 0 65 -5 95 -21 130 -33 70 -109
156 -155 174 -47 19 -53 19 -99 2z"/>
<path d="M2112 2481 c-29 -10 -77 -35 -107 -56 -71 -49 -272 -257 -293 -304
-9 -20 -37 -65 -63 -101 -154 -215 -269 -512 -269 -693 0 -355 296 -735 660
-848 240 -75 659 38 849 229 82 83 165 205 238 353 85 172 133 299 176 463 27
106 31 138 31 256 1 127 -1 138 -27 195 -51 109 -151 188 -278 221 -80 21
-210 14 -319 -15 -41 -11 -78 -21 -81 -21 -3 0 -24 37 -47 83 -66 132 -155
210 -278 241 -79 20 -126 20 -192 -3z m139 -457 c38 -102 55 -131 112 -185 63
-60 120 -89 175 -89 22 0 114 18 203 40 217 53 209 54 209 -17 -1 -117 -69
-349 -156 -531 -49 -100 -64 -122 -147 -206 -99 -100 -153 -133 -267 -162 -91
-23 -225 -15 -300 19 -66 29 -169 105 -210 155 -89 108 -108 257 -53 427 25
80 111 245 160 309 24 32 53 77 63 100 20 48 160 217 175 212 5 -1 21 -34 36
-72z"/>
<path d="M3972 2439 c-51 -26 -92 -81 -99 -136 -2 -21 4 -78 15 -126 18 -80
19 -88 4 -81 -10 4 -43 10 -75 12 -44 3 -67 -1 -103 -18 -82 -40 -144 -157
-144 -274 0 -97 88 -434 140 -537 37 -71 124 -129 194 -129 74 0 142 45 175
114 21 42 23 43 78 49 198 21 313 190 273 404 -7 37 -35 145 -62 238 -27 94
-60 217 -74 275 -13 57 -31 115 -39 127 -62 93 -187 129 -283 82z"/>
</g>
</svg>
