<?xml version="1.0" standalone="no"?>
<!DOCTYPE svg PUBLIC "-//W3C//DTD SVG 20010904//EN"
 "http://www.w3.org/TR/2001/REC-SVG-20010904/DTD/svg10.dtd">
<svg version="1.0" xmlns="http://www.w3.org/2000/svg"
 width="600.000000pt" height="600.000000pt" viewBox="0 0 600.000000 600.000000"
 preserveAspectRatio="xMidYMid meet">
<metadata>
Created by potrace 1.15, written by Peter Selinger 2001-2017
</metadata>
<g transform="translate(0.000000,600.000000) scale(0.100000,-0.100000)"
fill="#16364b" stroke="none">
<path d="M1894 4842 c-145 -69 -196 -213 -141 -402 54 -185 75 -544 79 -1335
l3 -600 -39 -175 c-21 -96 -55 -247 -76 -335 -35 -148 -37 -165 -28 -227 10
-65 11 -68 38 -68 16 0 30 -7 34 -15 10 -27 31 -16 58 33 18 32 24 52 17 59
-6 6 -3 32 8 76 17 64 33 88 33 49 0 -11 9 -54 20 -98 39 -152 130 -308 232
-399 68 -60 208 -128 327 -158 l94 -25 -2 -133 c-2 -161 21 -315 74 -477 19
-60 35 -116 35 -124 0 -12 -17 -16 -84 -20 -56 -3 -93 -10 -110 -21 -64 -42
-79 -118 -33 -165 26 -25 33 -27 115 -27 96 0 162 22 216 73 68 64 71 127 16
299 -56 177 -74 276 -74 430 -1 72 1 134 4 136 6 7 378 -9 590 -24 85 -6 207
-8 270 -4 l115 7 1 -109 c2 -162 33 -315 100 -490 20 -51 33 -97 29 -103 -3
-5 -42 -10 -85 -10 -43 0 -91 -5 -107 -11 -103 -39 -106 -147 -5 -191 38 -17
59 -20 120 -15 100 8 170 42 211 104 41 62 41 115 0 225 -79 211 -118 421 -99
540 6 40 14 76 18 80 4 3 75 18 157 32 354 62 447 97 566 216 58 58 85 95 117
160 75 154 101 349 67 512 -15 73 -67 194 -105 248 -11 15 -20 31 -20 35 0 4
26 5 59 2 65 -5 87 2 77 28 -3 10 -2 23 2 29 5 6 12 23 16 38 6 25 2 30 -43
52 -27 14 -51 32 -55 42 -4 9 -12 14 -22 10 -8 -3 -32 3 -53 14 -69 35 -343
141 -493 191 -121 40 -178 66 -320 147 -95 54 -240 136 -323 182 -513 282
-688 472 -936 1017 -57 125 -123 264 -146 308 -24 44 -60 113 -81 154 -47 95
-127 182 -198 217 -74 36 -181 43 -240 16z m171 -161 c53 -24 87 -62 124 -138
17 -34 31 -65 31 -68 0 -4 11 -21 25 -39 13 -18 54 -95 91 -172 178 -373 207
-431 269 -535 222 -368 418 -536 960 -824 132 -70 259 -140 283 -156 24 -16
116 -68 205 -115 89 -48 197 -107 241 -133 103 -61 229 -191 280 -289 29 -56
56 -181 56 -257 0 -195 -109 -418 -237 -484 -97 -49 -411 -106 -775 -141 -195
-19 -916 23 -1089 64 -316 73 -447 232 -494 596 -37 288 -47 523 -46 1090 1
810 -23 1189 -91 1408 -30 100 -11 168 55 197 43 19 64 18 112 -4z"/>
<path d="M2582 2714 c-31 -22 -29 -68 4 -99 32 -30 45 -31 72 -7 35 29 38 67
8 96 -29 30 -52 33 -84 10z"/>
<path d="M3017 2532 c-25 -28 -20 -57 14 -86 17 -14 34 -26 39 -26 22 0 42 15
56 41 15 30 7 63 -20 81 -21 14 -73 8 -89 -10z"/>
<path d="M5273 3980 c-112 -23 -193 -84 -236 -179 -30 -66 -30 -198 0 -264 31
-66 115 -152 182 -184 49 -25 68 -28 151 -28 86 0 100 3 148 29 108 60 172
166 180 297 7 121 -35 193 -157 274 -50 33 -82 46 -131 54 -73 12 -78 12 -137
1z m118 -311 c20 -10 20 -11 3 -30 -9 -10 -25 -19 -35 -19 -18 0 -39 27 -39
49 0 14 46 14 71 0z"/>
<path d="M5374 1115 c-31 -13 -54 -54 -74 -132 -22 -86 21 -157 91 -155 73 2
118 73 119 183 0 56 -3 69 -23 88 -29 27 -73 33 -113 16z"/>
</g>
</svg>
