<?xml version="1.0" standalone="no"?>
<!DOCTYPE svg PUBLIC "-//W3C//DTD SVG 20010904//EN"
 "http://www.w3.org/TR/2001/REC-SVG-20010904/DTD/svg10.dtd">
<svg version="1.0" xmlns="http://www.w3.org/2000/svg"
 width="600.000000pt" height="600.000000pt" viewBox="0 0 600.000000 600.000000"
 preserveAspectRatio="xMidYMid meet">
<metadata>
Created by potrace 1.15, written by Peter Selinger 2001-2017
</metadata>
<g transform="translate(0.000000,600.000000) scale(0.100000,-0.100000)"
fill="#16364b" stroke="none">
<path d="M2420 5479 c-41 -17 -70 -50 -105 -119 -101 -202 -92 -358 24 -431
92 -59 167 -61 390 -13 67 14 126 24 131 22 5 -2 -29 -50 -76 -108 -150 -185
-223 -297 -358 -552 -60 -114 -66 -130 -66 -185 0 -77 27 -122 87 -143 43 -14
91 -12 433 20 47 5 182 9 300 9 212 1 216 1 252 26 51 35 76 100 59 157 -18
57 -61 95 -118 104 -25 4 -171 5 -324 2 -154 -3 -279 -3 -279 -1 0 18 139 217
265 378 86 110 170 228 187 263 82 165 6 317 -169 342 -74 10 -195 -3 -358
-40 -71 -16 -131 -27 -133 -25 -2 2 8 26 22 54 60 117 11 235 -101 247 -21 2
-49 -1 -63 -7z"/>
<path d="M1669 5051 c-138 -44 -335 -176 -475 -318 -97 -99 -118 -137 -112
-204 6 -60 42 -109 95 -131 21 -9 94 -22 163 -28 153 -15 262 -42 306 -75 22
-17 40 -44 55 -85 15 -41 35 -72 62 -96 38 -35 42 -36 103 -32 56 3 68 8 99
38 52 50 61 96 36 179 -56 183 -169 290 -356 337 l-68 17 29 24 c47 37 136 81
189 93 92 21 145 81 145 164 0 50 -30 95 -81 121 -37 20 -121 18 -190 -4z"/>
<path d="M4100 4800 c-140 -22 -356 -143 -386 -217 -45 -107 25 -213 141 -213
41 0 62 7 115 40 74 46 207 100 244 100 73 0 29 -203 -101 -457 -43 -87 -73
-157 -73 -175 0 -43 53 -151 84 -171 34 -22 86 -21 182 4 197 51 401 78 459
61 23 -6 31 -15 33 -36 6 -49 -27 -186 -94 -385 -35 -107 -64 -210 -64 -229 0
-44 34 -104 70 -125 57 -34 150 -15 195 40 57 70 172 431 194 612 26 207 -49
350 -208 398 -72 22 -264 21 -376 -1 -44 -9 -85 -16 -92 -16 -8 0 -2 22 16 63
68 152 95 272 89 398 -3 76 -10 105 -32 151 -32 67 -89 120 -155 143 -57 20
-167 27 -241 15z"/>
<path d="M2100 3974 c-8 -3 -49 -19 -92 -35 -88 -33 -306 -91 -426 -113 -45
-9 -93 -23 -107 -32 -89 -58 -85 -196 7 -255 29 -18 44 -20 128 -15 222 13
539 112 628 196 64 61 53 183 -22 229 -34 21 -92 33 -116 25z"/>
<path d="M3675 3661 c-159 -54 -430 -214 -459 -270 -9 -16 -16 -50 -16 -75 0
-74 67 -136 147 -136 28 0 67 17 158 69 133 76 242 127 252 118 16 -17 -94
-268 -188 -429 -21 -36 -39 -71 -39 -76 0 -4 -11 -19 -25 -32 -76 -72 -42
-217 60 -255 53 -21 90 -15 249 37 262 86 477 233 532 365 23 54 18 133 -11
176 -68 99 -191 93 -256 -13 -26 -43 -74 -89 -117 -114 -7 -5 -4 13 9 46 130
321 117 524 -38 602 -51 26 -162 20 -258 -13z"/>
<path d="M2371 3389 c-25 -5 -101 -27 -170 -50 -140 -47 -190 -83 -209 -152
-18 -63 13 -133 70 -163 39 -20 104 -15 253 20 99 23 233 35 247 21 11 -11
-13 -86 -52 -168 -23 -48 -40 -96 -40 -117 0 -103 117 -161 225 -111 53 24 78
54 114 131 50 111 64 174 59 264 -5 97 -29 148 -97 215 -102 100 -249 140
-400 110z"/>
<path d="M1140 3100 c-106 -38 -155 -124 -126 -224 22 -74 72 -119 169 -150
15 -5 17 -19 17 -103 0 -54 -7 -161 -15 -238 -27 -257 -18 -409 36 -572 26
-78 79 -129 145 -139 36 -5 54 -1 99 21 69 33 108 92 109 166 1 47 2 49 32 55
57 11 91 42 158 143 109 165 246 325 263 307 5 -4 7 -42 5 -84 -5 -157 -23
-291 -59 -433 l-36 -147 24 -48 c62 -126 238 -154 292 -47 26 49 68 264 78
388 23 320 6 479 -66 590 -62 98 -177 149 -283 126 -93 -20 -157 -74 -305
-258 -49 -62 -90 -113 -91 -113 -1 0 -1 102 -1 227 0 184 -3 243 -18 304 -39
168 -138 249 -300 249 -45 -1 -92 -8 -127 -20z"/>
<path d="M4860 2915 c-58 -18 -115 -66 -142 -118 -17 -32 -22 -60 -23 -116 0
-55 -4 -76 -15 -82 -8 -4 -76 -37 -150 -73 -206 -100 -297 -184 -351 -324 -30
-78 -38 -258 -15 -356 19 -82 79 -211 130 -281 l36 -50 -37 -16 c-21 -9 -54
-33 -72 -53 -43 -45 -64 -46 -203 -9 -90 24 -122 28 -248 28 -134 0 -150 -2
-214 -28 -137 -54 -285 -174 -421 -342 -43 -52 -82 -95 -87 -95 -6 0 -42 -31
-82 -69 -39 -37 -81 -73 -93 -80 -112 -58 -296 94 -414 343 -21 44 -47 91 -56
103 -82 100 -255 78 -312 -39 -31 -64 -28 -131 10 -225 104 -263 300 -472 509
-543 80 -28 239 -38 323 -20 73 15 197 77 262 131 27 22 70 51 95 64 55 28 71
45 147 160 81 121 140 185 205 220 70 39 143 39 298 0 151 -38 296 -40 380 -7
87 34 160 83 204 136 39 46 41 51 41 115 0 36 -4 76 -8 87 -7 20 -3 22 38 28
90 14 170 103 182 204 9 78 -17 151 -81 219 -68 74 -89 116 -90 176 -1 62 11
71 179 138 233 92 308 164 360 343 23 79 18 265 -9 316 -54 103 -167 150 -276
115z"/>
<path d="M3320 2394 c-285 -27 -602 -99 -686 -156 -40 -27 -84 -108 -84 -155
0 -65 45 -140 100 -168 53 -26 91 -26 214 4 210 51 507 111 553 111 8 0 10
-16 7 -52 -15 -152 152 -253 294 -180 67 34 99 103 109 228 13 164 -82 302
-240 349 -52 16 -194 25 -267 19z"/>
</g>
</svg>
