<?xml version="1.0" standalone="no"?>
<!DOCTYPE svg PUBLIC "-//W3C//DTD SVG 20010904//EN"
 "http://www.w3.org/TR/2001/REC-SVG-20010904/DTD/svg10.dtd">
<svg version="1.0" xmlns="http://www.w3.org/2000/svg"
 width="600.000000pt" height="600.000000pt" viewBox="0 0 600.000000 600.000000"
 preserveAspectRatio="xMidYMid meet">
<metadata>
Created by potrace 1.15, written by Peter Selinger 2001-2017
</metadata>
<g transform="translate(0.000000,600.000000) scale(0.100000,-0.100000)"
fill="#16364b" stroke="none">
<path d="M2265 5470 c-33 -13 -63 -53 -92 -121 -24 -55 -27 -78 -28 -164 0
-113 13 -151 72 -209 54 -52 124 -70 243 -63 54 3 127 11 164 18 36 7 69 10
72 6 3 -3 -39 -77 -93 -164 -138 -218 -176 -285 -222 -392 -56 -126 -55 -177
5 -242 23 -24 24 -29 13 -75 -15 -67 0 -123 46 -163 64 -56 74 -55 405 34 113
31 264 67 335 81 188 36 200 40 234 82 26 31 31 45 31 90 0 62 -23 103 -73
128 -44 23 -110 16 -441 -50 -154 -31 -286 -56 -294 -56 -9 0 -11 7 -6 23 20
65 110 222 230 400 75 111 145 219 156 241 26 51 35 154 18 198 -28 69 -79
126 -142 157 -53 27 -72 31 -142 31 -45 0 -131 -10 -193 -22 -62 -12 -115 -19
-118 -16 -3 2 2 22 11 43 30 72 -4 168 -70 199 -36 17 -88 20 -121 6z"/>
<path d="M3850 5077 c-127 -43 -215 -116 -235 -194 -15 -59 -5 -106 31 -144
54 -56 111 -57 210 -2 36 19 83 36 113 40 49 6 51 5 61 -23 22 -57 -11 -187
-95 -373 -51 -115 -55 -149 -22 -211 37 -71 110 -101 178 -75 13 5 15 -2 11
-50 -6 -70 18 -127 63 -155 41 -26 55 -25 205 6 139 29 289 36 315 14 30 -25
20 -103 -46 -350 -42 -156 -44 -191 -8 -248 24 -41 75 -72 117 -72 44 0 103
32 124 67 9 16 40 118 69 228 47 181 52 210 53 310 0 141 -21 200 -97 272
-120 113 -280 132 -601 69 -72 -14 -131 -24 -132 -23 -2 1 18 52 43 112 25 61
61 155 81 210 63 180 54 340 -27 467 -81 127 -253 179 -411 125z"/>
<path d="M1792 4959 c-80 -10 -147 -32 -237 -77 -114 -57 -347 -201 -385 -238
-33 -32 -35 -38 -35 -98 0 -58 3 -66 35 -103 19 -22 43 -54 52 -71 23 -43 71
-70 137 -77 326 -32 425 -60 529 -149 56 -48 100 -63 151 -51 38 8 87 47 106
86 19 36 19 112 1 148 -46 88 -289 215 -453 237 -29 3 -53 10 -53 14 0 20 152
70 212 70 121 0 206 96 178 201 -13 48 -64 97 -109 105 -20 3 -43 7 -51 8 -8
2 -44 0 -78 -5z"/>
<path d="M2100 3904 c-116 -37 -282 -72 -421 -87 -69 -8 -140 -22 -157 -31
-80 -42 -115 -149 -70 -216 39 -59 78 -72 183 -65 197 13 540 82 632 126 114
55 118 215 8 276 -50 28 -80 27 -175 -3z"/>
<path d="M3730 3719 c-106 -15 -214 -61 -478 -201 -99 -53 -137 -79 -153 -104
-31 -51 -34 -94 -10 -148 17 -38 29 -50 67 -67 30 -14 57 -19 76 -15 17 3 122
52 234 108 112 56 206 99 209 96 4 -4 -21 -77 -55 -163 -68 -172 -74 -218 -33
-274 66 -88 182 -93 237 -9 30 46 136 306 157 383 43 166 23 300 -53 358 -29
23 -104 48 -133 46 -5 -1 -35 -5 -65 -10z"/>
<path d="M2163 3285 c-129 -15 -171 -34 -198 -92 -22 -45 -16 -124 12 -161 11
-15 35 -38 54 -51 32 -22 40 -23 129 -17 52 3 140 9 196 12 62 4 103 3 107 -3
3 -5 0 -36 -8 -69 -20 -85 -18 -122 10 -169 32 -55 80 -79 148 -72 65 6 98 41
127 134 79 254 7 452 -180 492 -66 14 -255 12 -397 -4z"/>
<path d="M4234 3179 c-18 -5 -57 -36 -90 -70 -93 -96 -249 -194 -384 -241 -30
-10 -92 -25 -138 -33 -96 -17 -133 -40 -163 -102 -28 -58 -19 -112 27 -158 41
-41 80 -50 183 -42 158 13 347 85 499 189 98 69 235 198 257 244 27 57 16 126
-26 170 -46 48 -100 62 -165 43z"/>
<path d="M4920 3151 c-51 -16 -89 -42 -123 -81 -47 -55 -61 -112 -53 -210 8
-92 15 -81 -127 -182 -250 -176 -332 -314 -344 -578 -8 -174 30 -304 116 -393
57 -61 104 -81 186 -82 83 0 139 26 189 88 26 33 31 48 34 107 4 62 1 75 -25
122 -40 71 -46 101 -33 164 15 70 33 91 166 190 62 46 136 110 165 142 62 67
113 170 134 267 17 81 20 243 4 298 -13 47 -60 102 -110 128 -43 22 -141 33
-179 20z"/>
<path d="M1201 3038 c-76 -26 -131 -117 -116 -191 11 -52 51 -112 93 -140 l40
-26 6 -228 c10 -378 32 -553 86 -678 50 -116 180 -161 282 -96 78 49 108 151
74 247 -7 22 -17 59 -21 83 l-7 44 27 -21 c35 -28 96 -44 132 -36 56 13 82 35
136 111 58 84 147 173 171 173 8 0 18 -10 22 -22 3 -13 16 -36 27 -52 l20 -28
-22 -77 c-46 -163 -53 -208 -58 -372 -5 -152 -4 -169 15 -212 26 -58 70 -87
132 -87 54 0 102 27 130 72 17 29 20 51 20 168 0 147 11 212 59 360 37 111 39
153 9 200 -14 23 -21 48 -19 74 4 60 -36 151 -91 207 -67 67 -137 92 -243 87
-120 -6 -211 -53 -324 -167 -48 -47 -103 -115 -123 -150 -33 -57 -38 -61 -43
-40 -3 13 -10 139 -14 279 -10 281 -18 324 -74 407 -63 90 -223 145 -326 111z"/>
<path d="M3495 2269 c-38 -4 -131 -21 -205 -38 -150 -33 -244 -51 -430 -81
-137 -23 -185 -45 -220 -103 -69 -113 -10 -236 128 -268 34 -7 177 13 522 76
102 18 212 36 246 40 l61 7 13 -33 c33 -79 91 -119 173 -119 147 0 252 180
191 326 -42 101 -152 174 -289 194 -79 11 -91 11 -190 -1z"/>
<path d="M4462 1589 c-18 -5 -59 -36 -91 -69 -39 -40 -70 -62 -97 -69 -21 -5
-122 -15 -224 -20 -294 -17 -427 -47 -575 -132 -78 -44 -225 -175 -285 -253
-20 -26 -46 -47 -62 -51 -15 -4 -59 -35 -97 -70 -92 -81 -130 -100 -206 -100
-131 1 -314 130 -428 303 -54 81 -80 106 -130 122 -127 40 -286 -112 -249
-238 16 -54 77 -131 200 -255 226 -229 406 -327 600 -327 162 0 346 83 479
215 32 33 68 58 89 64 24 7 66 39 127 98 105 102 162 143 250 182 100 45 150
53 372 61 116 4 224 12 240 18 146 50 278 156 320 256 8 20 15 57 15 83 -1
123 -130 218 -248 182z"/>
</g>
</svg>
