<?xml version="1.0" standalone="no"?>
<!DOCTYPE svg PUBLIC "-//W3C//DTD SVG 20010904//EN"
 "http://www.w3.org/TR/2001/REC-SVG-20010904/DTD/svg10.dtd">
<svg version="1.0" xmlns="http://www.w3.org/2000/svg"
 width="600.000000pt" height="600.000000pt" viewBox="0 0 600.000000 600.000000"
 preserveAspectRatio="xMidYMid meet">
<metadata>
Created by potrace 1.15, written by Peter Selinger 2001-2017
</metadata>
<g transform="translate(0.000000,600.000000) scale(0.100000,-0.100000)"
fill="#16364b" stroke="none">
<path d="M2093 5818 c-25 -14 -97 -88 -184 -188 -79 -91 -189 -217 -244 -280
-55 -63 -115 -134 -133 -157 -85 -109 -82 -207 10 -276 110 -82 229 -63 571
92 384 174 425 200 445 274 28 102 -75 214 -175 191 -15 -3 -65 -26 -111 -51
-46 -24 -108 -55 -139 -68 -63 -28 -62 -26 20 61 87 93 157 188 163 222 15 79
-21 151 -90 183 -54 24 -84 24 -133 -3z"/>
<path d="M3040 5678 c-58 -40 -75 -72 -75 -143 0 -59 3 -67 33 -98 22 -23 54
-40 105 -56 39 -13 115 -44 167 -69 121 -60 228 -160 253 -238 60 -186 13
-268 -206 -359 -84 -35 -117 -76 -117 -145 0 -78 51 -137 127 -147 49 -6 178
42 261 97 69 47 158 138 195 200 32 55 57 148 57 211 0 171 -67 343 -177 457
-102 105 -290 220 -467 286 -84 32 -114 32 -156 4z"/>
<path d="M923 5346 c-200 -75 -332 -249 -333 -442 -1 -194 103 -374 261 -453
92 -46 169 -38 230 25 60 62 48 176 -25 226 -94 64 -146 139 -146 208 0 79 46
130 155 170 73 26 90 41 110 95 27 70 -6 145 -82 184 -34 17 -102 12 -170 -13z"/>
<path d="M2709 4961 c-65 -25 -113 -64 -153 -125 -165 -249 -3 -525 324 -552
68 -6 84 -4 124 15 26 13 54 37 66 55 25 42 27 117 3 157 -23 38 -87 69 -144
69 -98 0 -145 32 -119 81 9 16 18 20 39 16 103 -21 201 78 172 173 -31 105
-186 160 -312 111z"/>
<path d="M4795 4908 c-38 -20 -85 -72 -95 -104 -13 -38 3 -253 25 -352 41
-177 158 -282 314 -282 161 0 271 110 275 275 3 170 -114 322 -329 430 -93 47
-148 56 -190 33z"/>
<path d="M1883 4555 c-151 -42 -254 -139 -253 -240 1 -33 37 -103 61 -115 66
-36 126 -29 183 20 39 35 82 53 107 45 10 -3 27 -21 39 -40 58 -94 198 -101
261 -14 38 53 34 130 -9 192 -87 125 -254 190 -389 152z"/>
<path d="M2853 3911 c-49 -23 -87 -76 -102 -141 -6 -25 -24 -176 -41 -336 -31
-307 -31 -324 10 -380 62 -87 209 -83 255 6 15 29 43 255 61 500 5 64 13 104
25 125 47 76 2 193 -88 231 -43 19 -70 17 -120 -5z"/>
<path d="M1121 3835 c-151 -33 -227 -69 -267 -127 -58 -83 -35 -200 49 -256
33 -22 52 -27 104 -27 34 0 63 -4 63 -9 0 -5 -27 -55 -59 -110 -110 -189 -123
-217 -241 -516 -114 -288 -129 -354 -95 -419 48 -93 177 -127 272 -71 55 33
219 169 348 290 66 61 163 146 215 188 52 42 126 101 163 130 37 30 70 52 74
48 13 -12 -19 -144 -77 -318 -83 -248 -144 -396 -254 -616 -103 -207 -109
-228 -76 -299 24 -53 70 -83 128 -83 58 0 97 22 129 73 63 100 216 419 297
621 129 320 136 340 162 466 28 127 27 238 -2 377 -33 158 -150 229 -294 178
-57 -20 -181 -104 -315 -214 -60 -49 -111 -88 -113 -86 -2 1 34 66 81 142 138
231 172 357 127 477 -30 79 -91 140 -161 160 -64 19 -171 19 -258 1z"/>
<path d="M4285 3800 c-114 -21 -198 -64 -264 -135 -118 -128 -122 -286 -10
-409 68 -74 128 -99 228 -94 93 4 149 29 227 101 69 62 129 147 184 256 38 76
42 91 38 139 -6 72 -49 117 -125 131 -79 15 -223 21 -278 11z m2 -325 c-29
-25 -57 -33 -57 -15 0 11 49 39 70 39 10 0 5 -8 -13 -24z"/>
<path d="M3477 3396 c-93 -34 -170 -133 -214 -273 -67 -216 20 -314 250 -282
92 12 166 49 220 109 121 134 93 337 -59 426 -54 32 -142 41 -197 20z"/>
<path d="M4874 2874 c-50 -34 -145 -132 -202 -209 -79 -107 -111 -210 -92
-300 31 -146 165 -210 317 -153 45 16 74 38 128 92 39 39 80 91 92 116 47 98
66 230 43 310 -11 37 -98 132 -142 156 -43 22 -100 18 -144 -12z"/>
<path d="M4103 2515 c-88 -44 -143 -136 -143 -234 1 -25 11 -95 24 -156 13
-60 22 -112 21 -114 -2 -2 -38 11 -79 28 -156 65 -268 51 -366 -47 -83 -84
-105 -143 -104 -292 1 -105 6 -133 52 -310 61 -236 62 -239 107 -288 117 -131
320 -95 394 68 29 63 26 105 -14 227 -19 59 -33 109 -31 110 5 6 56 -19 56
-27 0 -4 28 -22 63 -41 56 -31 70 -34 142 -33 183 1 305 103 336 283 15 83 1
175 -51 333 -23 67 -59 183 -80 256 -21 74 -50 150 -64 170 -62 90 -166 116
-263 67z"/>
<path d="M2910 2245 c-53 -14 -115 -44 -428 -205 l-142 -74 -34 37 c-75 82
-200 103 -297 50 -57 -30 -168 -144 -193 -197 -9 -19 -16 -59 -16 -89 0 -44 5
-62 29 -93 38 -53 72 -74 142 -87 63 -12 64 -13 75 -89 5 -41 4 -48 -10 -48
-31 0 -117 -51 -161 -94 -83 -84 -125 -214 -125 -393 0 -208 98 -416 260 -551
185 -153 493 -224 740 -171 101 22 309 126 374 187 59 56 70 126 32 207 -28
60 -46 77 -110 106 -69 30 -138 23 -208 -21 -29 -19 -87 -52 -128 -73 -72 -38
-78 -39 -155 -34 -228 12 -425 180 -425 363 0 112 60 121 155 23 28 -28 70
-63 95 -77 96 -57 217 -22 268 78 44 88 25 176 -52 235 -50 38 -105 126 -138
219 -36 104 -36 124 0 132 15 4 83 39 152 79 140 81 246 136 320 165 62 24 62
26 20 -125 -37 -131 -82 -242 -156 -383 -49 -94 -56 -112 -52 -152 10 -103 74
-170 171 -178 66 -5 130 27 168 84 51 75 158 290 202 404 47 121 92 288 102
380 18 156 -62 312 -191 370 -64 29 -205 36 -284 15z"/>
</g>
</svg>
