<?xml version="1.0" standalone="no"?>
<!DOCTYPE svg PUBLIC "-//W3C//DTD SVG 20010904//EN"
 "http://www.w3.org/TR/2001/REC-SVG-20010904/DTD/svg10.dtd">
<svg version="1.0" xmlns="http://www.w3.org/2000/svg"
 width="600.000000pt" height="600.000000pt" viewBox="0 0 600.000000 600.000000"
 preserveAspectRatio="xMidYMid meet">
<metadata>
Created by potrace 1.15, written by Peter Selinger 2001-2017
</metadata>
<g transform="translate(0.000000,600.000000) scale(0.100000,-0.100000)"
fill="#16364b" stroke="none">
<path d="M2317 5460 c-52 -10 -89 -48 -121 -127 -89 -217 -26 -385 158 -423
61 -12 117 -9 274 16 52 9 96 13 99 10 3 -2 -45 -70 -106 -150 -61 -79 -134
-183 -161 -229 -60 -100 -140 -290 -140 -332 0 -31 31 -108 47 -118 5 -4 8
-30 5 -60 -5 -67 17 -118 63 -147 45 -28 74 -26 237 20 146 40 240 59 523 106
96 15 172 33 190 44 56 35 80 109 56 173 -14 37 -61 76 -100 83 -44 9 -238
-18 -668 -93 -18 -3 -33 -2 -33 2 0 4 19 43 42 87 40 77 101 169 251 375 145
201 173 289 124 396 -29 64 -86 124 -142 152 -59 29 -180 26 -319 -8 -60 -15
-111 -26 -113 -24 -2 2 4 20 12 40 52 126 -39 232 -178 207z"/>
<path d="M3880 5021 c-105 -34 -205 -99 -240 -157 -26 -42 -31 -116 -10 -159
20 -39 75 -75 115 -75 18 0 66 18 110 41 56 30 94 43 136 46 l58 6 6 -35 c13
-67 -29 -225 -106 -401 -22 -48 -39 -102 -39 -120 0 -66 71 -137 136 -137 30
0 32 -3 38 -43 9 -56 55 -113 104 -128 30 -8 77 -5 240 15 112 14 220 26 242
26 64 0 70 -5 70 -69 0 -63 -22 -154 -81 -340 -42 -133 -47 -177 -25 -219 21
-40 46 -59 96 -73 40 -11 51 -10 92 9 61 27 74 53 132 267 54 202 66 271 66
387 0 189 -79 288 -254 319 -69 12 -313 0 -445 -22 -31 -5 -68 -9 -83 -9 l-27
0 38 88 c21 48 48 116 60 152 109 315 40 552 -183 631 -70 24 -172 24 -246 0z"/>
<path d="M1720 4961 c-164 -36 -303 -102 -455 -217 -97 -72 -127 -116 -127
-184 0 -43 6 -60 52 -129 58 -88 79 -101 190 -121 142 -25 296 -63 349 -86 31
-14 76 -44 101 -68 81 -79 148 -96 210 -53 50 33 72 70 78 125 7 75 -11 114
-83 180 -79 72 -165 115 -307 152 -61 16 -113 31 -115 34 -7 7 103 55 152 67
22 5 66 14 99 20 146 27 205 191 96 269 -43 31 -131 35 -240 11z"/>
<path d="M2059 3889 c-112 -37 -266 -67 -403 -78 -119 -10 -142 -21 -183 -81
-44 -64 -22 -161 47 -207 27 -19 47 -23 110 -23 131 0 459 65 602 120 71 27
100 63 105 134 5 61 -18 110 -67 144 -44 30 -102 28 -211 -9z"/>
<path d="M3685 3734 c-54 -19 -104 -46 -270 -141 -77 -44 -173 -98 -214 -119
-91 -48 -116 -78 -116 -144 0 -83 61 -144 144 -144 43 0 78 14 258 105 114 57
212 106 216 107 26 12 -53 -177 -121 -289 -28 -46 -54 -96 -57 -112 -11 -42 3
-94 36 -131 l29 -34 -37 -7 c-47 -9 -85 -31 -103 -59 -60 -96 4 -235 115 -252
84 -12 316 46 456 116 119 58 186 107 291 210 100 98 128 143 128 203 0 72
-76 137 -160 137 -53 0 -76 -14 -150 -93 -60 -65 -159 -135 -244 -172 -31 -14
-59 -25 -61 -25 -3 0 20 47 50 104 71 132 109 237 129 355 20 119 20 173 0
242 -33 111 -97 159 -211 158 -37 0 -86 -7 -108 -15z"/>
<path d="M2225 3305 c-156 -18 -187 -28 -224 -70 -55 -63 -51 -150 10 -213 43
-44 80 -48 259 -28 199 21 210 21 210 -4 0 -11 -11 -49 -25 -86 -30 -81 -31
-105 -4 -160 53 -111 213 -105 268 9 56 115 75 285 45 388 -19 65 -87 137
-149 158 -58 19 -251 22 -390 6z"/>
<path d="M4910 3111 c-73 -22 -127 -71 -155 -138 -10 -23 -15 -69 -15 -129 l0
-93 -122 -83 c-166 -112 -264 -211 -317 -320 -54 -110 -71 -183 -72 -298 -1
-146 34 -259 115 -368 86 -118 220 -150 333 -81 70 44 123 140 123 225 0 55
-10 81 -54 139 -28 37 -36 56 -36 89 0 94 20 116 220 248 133 88 220 173 257
255 52 113 40 313 -27 430 -35 62 -82 100 -146 119 -52 15 -67 16 -104 5z"/>
<path d="M1185 3044 c-86 -45 -128 -129 -105 -214 12 -44 82 -130 106 -130 27
0 34 -42 44 -247 17 -339 29 -456 60 -580 34 -135 61 -182 122 -212 76 -36
154 -23 212 36 60 62 69 131 33 258 -8 28 -13 51 -12 53 2 2 17 -4 34 -12 44
-23 111 -20 151 7 20 13 55 58 84 108 62 104 90 144 130 187 36 39 42 40 51 5
3 -15 15 -39 26 -54 18 -26 18 -28 -1 -134 -30 -164 -39 -257 -41 -411 -1
-111 2 -147 15 -171 56 -110 214 -103 273 11 9 18 18 80 24 170 5 77 21 220
35 316 29 189 29 186 -19 270 -8 14 -20 48 -26 75 -28 119 -95 216 -177 256
-68 32 -168 24 -252 -21 -106 -56 -216 -178 -297 -328 -19 -35 -31 -49 -36
-40 -4 7 -10 99 -14 203 -12 358 -31 442 -119 530 -34 34 -68 57 -100 68 -63
21 -161 22 -201 1z"/>
<path d="M3323 2265 c-57 -8 -156 -26 -220 -41 -65 -14 -176 -36 -248 -49
-137 -26 -164 -39 -202 -95 -63 -91 -24 -246 72 -286 57 -23 107 -17 394 52
233 55 372 82 428 84 7 0 20 -17 28 -37 43 -104 171 -161 272 -122 104 39 140
190 78 327 -34 76 -83 122 -161 152 -76 29 -288 36 -441 15z"/>
<path d="M4425 1538 c-16 -6 -45 -22 -64 -37 -102 -80 -80 -74 -241 -65 -196
11 -289 7 -387 -16 -187 -44 -387 -184 -526 -368 -24 -32 -59 -63 -86 -77 -25
-13 -66 -42 -91 -65 -206 -185 -433 -99 -633 242 -46 77 -88 113 -142 124
-123 23 -258 -126 -225 -247 32 -115 266 -390 410 -481 213 -135 503 -142 723
-19 28 17 83 56 121 88 38 32 88 68 112 80 28 15 61 46 91 85 76 101 182 201
245 232 71 35 160 44 323 33 274 -18 453 28 565 146 53 56 70 94 70 157 -1 89
-45 164 -113 189 -35 14 -112 13 -152 -1z"/>
</g>
</svg>
