<?xml version="1.0" standalone="no"?>
<!DOCTYPE svg PUBLIC "-//W3C//DTD SVG 20010904//EN"
 "http://www.w3.org/TR/2001/REC-SVG-20010904/DTD/svg10.dtd">
<svg version="1.0" xmlns="http://www.w3.org/2000/svg"
 width="600.000000pt" height="600.000000pt" viewBox="0 0 600.000000 600.000000"
 preserveAspectRatio="xMidYMid meet">
<metadata>
Created by potrace 1.15, written by Peter Selinger 2001-2017
</metadata>
<g transform="translate(0.000000,600.000000) scale(0.100000,-0.100000)"
fill="#16364b" stroke="none">
<path d="M1823 5810 c-43 -26 -54 -45 -106 -180 -25 -63 -76 -185 -115 -270
-90 -199 -104 -242 -104 -316 -1 -72 18 -112 69 -151 33 -25 45 -28 113 -28
71 0 84 3 161 43 46 23 124 72 172 108 109 80 330 293 351 339 46 97 -9 216
-108 232 -58 9 -99 -13 -183 -98 -112 -115 -118 -116 -81 -16 52 139 62 186
49 233 -29 105 -134 155 -218 104z"/>
<path d="M2994 5711 c-57 -26 -88 -72 -88 -131 0 -64 25 -99 115 -162 268
-188 431 -309 480 -358 64 -63 109 -143 112 -197 2 -43 -19 -59 -95 -68 -152
-19 -216 -201 -96 -273 47 -28 87 -33 173 -22 134 17 233 88 276 198 32 80 32
219 2 317 -27 86 -86 180 -157 249 -45 44 -334 271 -481 378 -71 51 -144 88
-174 88 -14 0 -44 -9 -67 -19z"/>
<path d="M933 5406 c-142 -35 -296 -154 -349 -271 -54 -118 -40 -280 36 -398
63 -100 193 -197 262 -197 62 0 128 44 149 98 26 67 2 125 -76 182 -87 64
-108 133 -62 201 27 41 56 56 134 70 83 15 121 42 150 106 20 43 24 63 19 98
-17 109 -110 148 -263 111z"/>
<path d="M2903 5136 c-94 -45 -175 -188 -176 -311 -1 -175 134 -266 326 -221
88 21 120 38 154 83 27 35 28 41 27 137 -2 123 -25 192 -84 254 -78 81 -159
100 -247 58z"/>
<path d="M4806 4895 c-47 -17 -94 -59 -112 -102 -34 -79 -2 -307 60 -436 42
-88 116 -166 193 -203 150 -74 321 0 363 156 32 118 -36 297 -163 428 -57 59
-169 133 -236 157 -52 18 -55 18 -105 0z"/>
<path d="M1995 4806 c-117 -30 -187 -80 -206 -148 -18 -69 17 -141 88 -177 34
-17 103 -13 160 11 65 27 70 23 89 -68 9 -41 23 -78 37 -92 69 -75 181 -68
243 14 26 34 29 44 27 108 -5 250 -205 410 -438 352z"/>
<path d="M2852 4029 c-105 -41 -170 -140 -159 -243 13 -125 93 -204 262 -262
66 -22 103 -27 215 -32 244 -9 350 19 384 101 30 71 39 104 44 150 9 97 -33
142 -195 210 -165 70 -277 97 -398 96 -76 0 -113 -5 -153 -20z"/>
<path d="M1140 4025 c-134 -18 -175 -31 -214 -65 -88 -78 -90 -197 -6 -281 36
-36 58 -49 98 -58 28 -6 65 -8 82 -5 16 4 30 2 30 -3 0 -5 -39 -56 -86 -114
-252 -304 -392 -526 -468 -737 -52 -147 -22 -251 87 -297 20 -8 51 -15 69 -15
47 0 113 36 145 79 54 73 184 172 546 414 220 148 279 183 284 170 10 -26 -14
-152 -48 -254 -64 -193 -230 -506 -492 -929 -57 -91 10 -222 120 -237 92 -12
133 33 327 357 117 197 178 316 259 506 110 256 150 415 150 584 1 154 -18
218 -81 281 -106 106 -216 90 -440 -64 -136 -93 -137 -94 -127 -76 5 8 34 46
66 84 117 143 179 277 179 386 0 108 -88 242 -176 269 -59 18 -198 21 -304 5z"/>
<path d="M4187 3765 c-117 -30 -192 -86 -238 -180 -29 -59 -31 -71 -27 -138 4
-56 12 -86 33 -126 81 -148 268 -209 418 -137 114 55 204 170 267 344 42 115
11 206 -79 233 -61 18 -308 21 -374 4z m93 -291 c-21 -25 -51 -37 -62 -26 -7
7 -1 15 18 26 40 21 61 21 44 0z"/>
<path d="M3430 3391 c-89 -27 -171 -115 -235 -253 -30 -65 -31 -89 -4 -144 27
-56 69 -81 158 -94 98 -14 147 0 212 57 92 84 131 192 105 293 -28 106 -137
171 -236 141z"/>
<path d="M4999 3100 c-32 -9 -119 -73 -176 -129 -161 -157 -190 -360 -68 -485
51 -53 104 -71 187 -62 120 12 243 101 296 214 23 49 27 70 27 147 0 108 -19
165 -77 233 -43 51 -108 93 -142 91 -12 0 -33 -4 -47 -9z"/>
<path d="M3920 2645 c-92 -30 -170 -140 -170 -242 0 -32 14 -95 36 -165 19
-62 38 -122 40 -134 l6 -21 -69 23 c-121 42 -223 26 -297 -44 -62 -59 -80
-110 -79 -222 0 -52 -3 -84 -7 -70 -24 85 -88 162 -166 201 -41 20 -64 24
-144 24 -124 0 -191 -22 -425 -139 -99 -50 -183 -92 -186 -94 -3 -1 -18 44
-32 100 -49 189 -128 316 -229 370 -61 32 -174 31 -237 -1 -90 -47 -177 -148
-252 -291 -30 -57 -34 -74 -34 -140 0 -74 -1 -76 -54 -154 -61 -90 -99 -168
-132 -276 -21 -66 -24 -95 -24 -235 0 -176 12 -239 65 -353 58 -124 183 -257
353 -373 148 -102 223 -127 404 -136 142 -7 271 8 385 43 178 56 359 235 391
386 8 35 30 95 50 135 57 111 160 347 201 455 52 139 76 253 77 361 l0 92 29
-110 c56 -214 152 -493 182 -529 40 -49 102 -76 174 -76 110 1 189 60 220 166
15 51 15 62 1 118 -8 33 -14 62 -13 64 2 1 19 -5 39 -13 57 -24 119 -19 203
16 169 70 250 221 214 401 -6 35 -40 133 -75 219 -35 86 -78 208 -95 270 -72
260 -78 275 -117 313 -68 66 -151 88 -233 61z m-1860 -912 c0 -28 62 -342 74
-381 51 -153 242 -188 337 -62 13 18 36 44 50 59 41 41 462 252 476 238 7 -8
-50 -185 -87 -272 -21 -49 -70 -155 -109 -234 -51 -104 -71 -154 -71 -182 0
-44 -28 -95 -81 -147 -82 -81 -193 -118 -328 -109 -72 4 -95 11 -165 45 -99
50 -202 133 -244 198 -104 163 -76 393 71 590 53 70 71 129 57 189 -10 42 -5
75 11 75 5 0 9 -3 9 -7z"/>
</g>
</svg>
