<?xml version="1.0" standalone="no"?>
<!DOCTYPE svg PUBLIC "-//W3C//DTD SVG 20010904//EN"
 "http://www.w3.org/TR/2001/REC-SVG-20010904/DTD/svg10.dtd">
<svg version="1.0" xmlns="http://www.w3.org/2000/svg"
 width="600.000000pt" height="600.000000pt" viewBox="0 0 600.000000 600.000000"
 preserveAspectRatio="xMidYMid meet">
<metadata>
Created by potrace 1.15, written by Peter Selinger 2001-2017
</metadata>
<g transform="translate(0.000000,600.000000) scale(0.100000,-0.100000)"
fill="#16364b" stroke="none">
<path d="M3120 5642 c-71 -35 -106 -134 -98 -272 8 -122 74 -220 200 -294 51
-30 255 -115 276 -116 31 0 -1 -27 -99 -83 -219 -125 -294 -171 -391 -244
-101 -77 -138 -119 -138 -161 0 -14 -14 -37 -34 -55 -62 -59 -70 -153 -20
-230 42 -64 57 -67 355 -61 289 6 304 9 339 67 26 42 26 121 1 163 -26 43 -78
64 -174 72 l-81 7 64 41 c36 23 130 79 210 124 283 161 344 227 345 370 0 68
-3 79 -31 120 -44 63 -133 112 -289 162 -231 73 -240 80 -229 221 6 88 5 98
-15 126 -43 60 -122 78 -191 43z"/>
<path d="M1284 5356 c-103 -52 -203 -141 -267 -238 -110 -169 -179 -370 -180
-523 -1 -152 34 -228 118 -261 56 -21 107 -9 150 33 41 42 46 64 39 186 -7
130 6 198 63 313 49 101 115 171 209 222 94 51 116 78 122 146 5 61 -23 111
-78 138 -52 27 -99 22 -176 -16z"/>
<path d="M1416 4964 c-107 -16 -153 -38 -184 -84 -19 -28 -23 -44 -19 -83 5
-60 30 -95 88 -125 47 -25 81 -25 208 -2 30 5 56 8 58 7 1 -2 -14 -52 -34
-112 -32 -94 -37 -123 -37 -205 -1 -109 15 -151 84 -220 l40 -40 -43 -21 c-99
-50 -180 -104 -205 -137 -54 -71 -27 -183 56 -230 67 -37 111 -30 223 34 112
64 268 134 351 158 88 25 130 91 115 182 -13 81 -95 141 -177 130 l-46 -6 -12
47 c-9 30 -26 58 -50 81 l-36 35 38 106 c55 152 66 197 66 271 0 117 -64 187
-197 215 -83 18 -169 18 -287 -1z"/>
<path d="M4735 4532 c-22 -1 -102 -11 -178 -22 -116 -16 -144 -23 -172 -44
-83 -64 -66 -195 32 -241 31 -15 53 -17 150 -11 66 4 113 3 113 -2 0 -5 -37
-43 -82 -83 -177 -159 -199 -183 -207 -220 -17 -75 39 -161 115 -175 75 -14
102 4 303 204 245 244 286 314 247 428 -43 126 -145 179 -321 166z"/>
<path d="M3884 3701 c-82 -43 -107 -147 -60 -246 32 -67 108 -159 181 -218 75
-61 123 -86 179 -93 91 -13 176 59 191 161 8 54 -27 124 -72 145 -31 14 -33
18 -33 70 0 60 -22 108 -63 134 -43 28 -141 57 -212 62 -58 5 -77 2 -111 -15z"/>
<path d="M2481 3669 c-87 -24 -210 -79 -257 -114 -44 -34 -69 -109 -54 -162
13 -48 26 -65 70 -92 49 -29 84 -26 168 14 76 36 191 75 223 75 16 0 19 -7 19
-45 0 -24 -10 -75 -22 -112 -25 -79 -142 -311 -251 -500 -42 -72 -81 -149 -86
-170 -12 -42 -3 -88 24 -129 8 -13 15 -39 15 -59 0 -46 24 -102 58 -138 70
-74 132 -76 291 -7 127 54 284 103 289 90 5 -13 -58 -158 -132 -309 -73 -148
-81 -192 -47 -266 60 -130 233 -154 325 -44 42 49 186 348 225 465 88 262 28
475 -154 546 -94 37 -224 31 -392 -18 -47 -14 -88 -23 -90 -21 -2 3 33 71 77
152 177 323 195 368 195 510 0 87 -3 107 -26 155 -79 167 -261 237 -468 179z"/>
<path d="M1100 3481 c-68 -22 -113 -48 -210 -122 -91 -69 -114 -93 -135 -141
-46 -111 26 -226 148 -236 35 -3 66 1 91 12 43 18 60 20 52 7 -3 -5 -38 -125
-77 -267 -169 -618 -182 -744 -89 -828 28 -25 55 -37 113 -50 134 -30 157 -16
327 194 47 58 138 164 203 235 102 111 219 256 278 345 22 32 31 22 37 -38 7
-76 -25 -249 -84 -456 -80 -280 -97 -370 -98 -511 0 -134 10 -168 66 -228 66
-70 164 -73 229 -8 47 47 58 95 35 156 -22 55 -12 139 39 335 92 353 120 556
111 825 -7 231 -20 293 -73 355 -46 53 -86 73 -150 73 -131 0 -267 -127 -493
-461 -78 -116 -100 -143 -100 -125 0 21 65 272 101 387 22 71 44 161 50 199
24 157 -29 274 -153 336 -72 36 -133 40 -218 12z"/>
<path d="M4560 3283 c-78 -55 -99 -163 -43 -225 10 -11 50 -36 88 -55 91 -46
182 -108 195 -134 15 -27 -13 -84 -82 -168 -49 -60 -53 -68 -53 -117 0 -90 60
-149 152 -149 54 0 56 1 109 58 63 68 138 191 159 261 33 109 11 220 -60 304
-46 54 -207 168 -322 226 -42 21 -112 21 -143 -1z"/>
<path d="M3639 3222 c-115 -43 -210 -129 -261 -238 -39 -84 -45 -138 -20 -184
56 -103 209 -105 276 -4 20 29 20 29 125 29 94 0 112 3 156 26 105 53 139 164
82 261 -61 104 -231 156 -358 110z"/>
<path d="M4555 2267 c-88 -42 -129 -112 -132 -226 -1 -40 -4 -75 -6 -77 -2 -2
-70 5 -151 16 -303 41 -449 17 -556 -90 -85 -85 -99 -142 -110 -455 -5 -137
-9 -261 -10 -275 0 -20 -10 -30 -50 -49 l-50 -24 -76 59 c-41 33 -85 66 -97
74 -12 8 -65 46 -117 85 -120 90 -154 111 -226 135 -178 62 -335 -29 -394
-227 -24 -80 -27 -71 -54 197 -27 254 -39 301 -93 352 -54 51 -135 63 -208 29
-48 -22 -79 -54 -100 -103 -19 -46 -19 -74 -1 -163 8 -38 22 -144 31 -235 19
-200 53 -357 96 -447 83 -175 355 -344 489 -304 92 27 146 113 138 218 -4 49
20 179 47 251 3 8 22 -2 58 -30 92 -74 259 -192 309 -220 97 -54 200 -73 288
-53 120 26 239 147 240 243 0 26 4 32 23 32 44 0 125 47 152 89 32 47 34 65
43 286 l7 170 27 3 c14 2 66 -7 115 -19 111 -27 247 -38 341 -28 175 19 291
124 348 314 27 90 26 284 -2 345 -40 86 -113 136 -211 146 -48 4 -67 1 -108
-19z"/>
</g>
</svg>
