<?xml version="1.0" standalone="no"?>
<!DOCTYPE svg PUBLIC "-//W3C//DTD SVG 20010904//EN"
 "http://www.w3.org/TR/2001/REC-SVG-20010904/DTD/svg10.dtd">
<svg version="1.0" xmlns="http://www.w3.org/2000/svg"
 width="600.000000pt" height="600.000000pt" viewBox="0 0 600.000000 600.000000"
 preserveAspectRatio="xMidYMid meet">
<metadata>
Created by potrace 1.15, written by Peter Selinger 2001-2017
</metadata>
<g transform="translate(0.000000,600.000000) scale(0.100000,-0.100000)"
fill="#16364b" stroke="none">
<path d="M3541 5229 c-17 -28 -18 -35 -6 -70 42 -117 157 -239 227 -239 87 0
75 114 -27 253 -44 59 -88 87 -138 87 -31 0 -40 -5 -56 -31z m156 -142 c25
-37 42 -71 38 -75 -10 -10 -73 64 -101 121 -24 46 -24 47 -4 35 12 -7 42 -44
67 -81z"/>
<path d="M3030 5078 c-114 -59 -178 -250 -109 -324 83 -88 279 75 279 232 0
34 -6 51 -27 74 -38 42 -85 48 -143 18z m94 -74 c13 -34 -15 -95 -69 -151 -29
-30 -59 -53 -67 -51 -39 13 -2 146 54 193 34 28 73 33 82 9z"/>
<path d="M4765 4738 c-11 -6 -25 -18 -31 -27 -29 -38 -24 -460 7 -573 18 -67
76 -87 126 -44 l28 24 -1 234 c0 265 -10 341 -49 376 -29 24 -50 27 -80 10z"/>
<path d="M1633 4276 c-63 -20 -99 -51 -129 -111 -46 -96 -23 -207 67 -309 131
-149 220 -598 239 -1210 11 -343 18 -428 56 -655 64 -384 127 -518 301 -631
101 -67 204 -105 364 -135 26 -5 26 -5 17 -62 -24 -147 10 -415 77 -614 39
-113 42 -109 -74 -109 -91 0 -102 -2 -128 -24 -22 -19 -28 -33 -28 -64 0 -76
61 -116 175 -115 86 1 152 22 193 61 66 62 72 120 27 243 -72 198 -107 420
-90 570 5 45 13 86 18 91 4 4 84 3 177 -3 113 -8 245 -9 395 -3 124 5 266 8
317 6 l92 -3 -6 -87 c-4 -67 1 -122 21 -240 24 -144 65 -321 86 -376 13 -34
-10 -46 -89 -46 -33 0 -72 -5 -88 -11 -67 -25 -96 -84 -69 -138 23 -43 51 -55
126 -54 93 2 174 34 232 94 65 66 69 102 28 234 -75 242 -112 516 -82 596 10
24 16 26 89 32 120 10 390 85 583 163 155 62 307 195 377 329 58 113 75 178
74 293 -1 218 -101 447 -240 552 -113 85 -207 101 -422 70 -126 -19 -180 -22
-304 -17 -133 4 -169 10 -314 46 -358 91 -616 213 -833 394 -124 104 -316 341
-438 542 -187 306 -231 363 -410 525 -142 129 -169 149 -241 171 -70 22 -89
23 -146 5z m101 -147 c24 -7 62 -33 105 -73 36 -34 99 -94 139 -132 87 -82
135 -145 272 -359 206 -321 349 -505 488 -628 151 -134 390 -274 587 -346 109
-39 381 -117 485 -138 109 -23 393 -22 535 1 225 37 328 -8 411 -180 115 -239
93 -458 -60 -618 -96 -99 -163 -134 -418 -219 -264 -89 -273 -90 -778 -92
-245 -1 -497 2 -560 6 -255 17 -383 29 -443 39 -142 26 -274 92 -338 169 -100
121 -151 366 -169 821 -23 540 -35 664 -95 965 -74 373 -111 483 -194 584 -60
73 -71 94 -71 133 0 28 6 42 26 57 31 24 28 24 78 10z"/>
<path d="M2467 2562 c-32 -35 -16 -82 34 -102 30 -13 33 -12 55 14 28 32 30
53 8 84 -19 28 -74 30 -97 4z"/>
<path d="M2922 2254 c-33 -23 -29 -66 9 -98 38 -33 52 -33 78 0 26 34 27 68 1
94 -24 24 -57 26 -88 4z"/>
<path d="M2639 4211 c-35 -36 -39 -86 -9 -124 38 -49 316 -136 433 -137 82 0
127 95 74 156 -19 22 -57 36 -208 80 -217 63 -249 66 -290 25z"/>
<path d="M5253 3990 c-142 -30 -223 -126 -223 -264 1 -115 61 -258 138 -328
59 -52 105 -68 199 -68 148 0 269 74 327 199 32 70 30 208 -4 275 -33 66 -91
121 -164 158 -51 25 -75 31 -146 34 -47 2 -104 -1 -127 -6z m126 -294 l35 -12
-22 -22 c-29 -29 -48 -28 -68 4 -15 22 -15 27 -3 35 17 10 15 11 58 -5z"/>
<path d="M4230 3767 c-61 -17 -109 -48 -158 -101 -60 -66 -84 -120 -90 -202
-5 -86 7 -127 54 -183 113 -131 337 -128 454 6 74 83 94 186 61 303 -24 87
-51 118 -129 153 -72 32 -135 40 -192 24z m75 -267 c10 -16 -14 -50 -35 -50
-24 0 -26 17 -3 42 18 20 29 23 38 8z"/>
<path d="M472 2028 c-16 -16 -15 -43 1 -55 6 -6 75 -43 153 -82 152 -78 177
-82 172 -27 -3 29 -11 35 -148 103 -80 40 -150 73 -155 73 -6 0 -16 -5 -23
-12z"/>
<path d="M5327 1109 c-26 -15 -57 -84 -64 -139 -7 -59 9 -102 44 -126 29 -18
92 -21 122 -4 36 19 61 82 61 155 0 60 -3 69 -29 96 -24 23 -38 29 -73 29 -24
0 -51 -5 -61 -11z"/>
</g>
</svg>
