<?xml version="1.0" standalone="no"?>
<!DOCTYPE svg PUBLIC "-//W3C//DTD SVG 20010904//EN"
 "http://www.w3.org/TR/2001/REC-SVG-20010904/DTD/svg10.dtd">
<svg version="1.0" xmlns="http://www.w3.org/2000/svg"
 width="600.000000pt" height="600.000000pt" viewBox="0 0 600.000000 600.000000"
 preserveAspectRatio="xMidYMid meet">
<metadata>
Created by potrace 1.15, written by Peter Selinger 2001-2017
</metadata>
<g transform="translate(0.000000,600.000000) scale(0.100000,-0.100000)"
fill="#16364b" stroke="none">
<path d="M1497 5730 c-37 -16 -125 -48 -195 -71 -210 -69 -262 -104 -262 -178
0 -43 20 -75 60 -96 40 -21 171 -19 415 5 231 23 248 30 253 98 4 57 -29 92
-89 92 l-42 0 23 25 c36 38 33 90 -8 126 -41 36 -69 36 -155 -1z"/>
<path d="M2368 5415 c-40 -22 -48 -45 -48 -137 -2 -428 -72 -620 -270 -737
-38 -23 -76 -51 -85 -63 -37 -54 6 -138 72 -138 52 0 166 72 253 159 117 117
184 272 210 481 20 169 7 387 -25 420 -27 27 -74 33 -107 15z"/>
<path d="M3542 5328 c-27 -14 -62 -76 -62 -111 0 -42 71 -169 124 -222 105
-104 220 -119 269 -35 37 63 11 150 -78 262 -68 85 -192 137 -253 106z"/>
<path d="M3029 5135 c-175 -55 -268 -345 -141 -440 21 -15 43 -20 93 -20 62 0
71 3 132 44 73 50 90 74 112 157 21 81 19 132 -7 184 -37 72 -108 100 -189 75z
m24 -212 c-8 -24 -24 -43 -34 -43 -5 0 -3 14 6 30 17 32 39 42 28 13z"/>
<path d="M4774 4771 c-70 -30 -90 -112 -74 -295 25 -286 114 -426 270 -426 98
0 161 54 182 154 30 140 -92 412 -235 530 -49 40 -103 54 -143 37z"/>
<path d="M2635 4207 c-84 -40 -117 -117 -95 -221 11 -52 20 -67 69 -116 48
-49 66 -59 125 -75 59 -16 78 -17 134 -7 138 23 302 136 317 216 9 46 -11 102
-45 127 -43 32 -261 88 -370 95 -76 5 -90 3 -135 -19z"/>
<path d="M1133 4109 c-40 -12 -83 -66 -83 -105 1 -16 7 -40 15 -54 20 -35 19
-40 -11 -40 -15 0 -38 -12 -55 -29 -33 -34 -39 -92 -15 -140 31 -58 192 -121
311 -121 119 0 192 38 227 118 65 145 -61 310 -279 366 -68 18 -66 18 -110 5z"/>
<path d="M5256 3819 c-124 -18 -225 -84 -276 -181 -30 -55 -34 -72 -34 -133 1
-94 31 -169 96 -241 104 -113 211 -137 342 -76 82 39 191 143 226 217 63 134
24 249 -120 359 -84 64 -118 72 -234 55z m48 -295 c24 -9 19 -31 -10 -50 -22
-15 -27 -15 -35 -3 -13 21 -11 37 9 48 21 13 17 12 36 5z"/>
<path d="M4234 3761 c-179 -46 -317 -239 -284 -395 16 -76 66 -138 142 -175
88 -43 158 -49 245 -23 87 27 143 67 187 134 86 130 88 358 4 411 -64 41 -222
67 -294 48z m80 -283 c-15 -27 -38 -48 -51 -48 -21 0 -15 27 9 44 27 19 52 21
42 4z"/>
<path d="M3429 3385 c-38 -20 -90 -95 -143 -205 -54 -111 -57 -140 -17 -181
55 -55 137 -31 215 62 65 76 109 214 92 283 -12 48 -93 71 -147 41z"/>
<path d="M1680 3124 c-276 -30 -390 -72 -535 -197 -265 -229 -323 -455 -175
-680 83 -127 188 -211 350 -282 210 -92 265 -156 389 -453 83 -197 177 -308
324 -381 124 -62 230 -79 385 -63 64 7 175 25 246 42 110 25 164 32 350 40
308 14 463 34 667 85 235 59 405 160 599 355 156 157 237 296 306 525 22 74
27 111 28 205 1 107 -1 119 -27 172 -32 64 -142 174 -271 270 -101 75 -149
103 -218 127 -137 47 -232 35 -378 -50 -173 -100 -257 -118 -525 -114 -184 2
-193 3 -285 34 -52 18 -201 83 -330 146 -384 185 -480 215 -715 220 -82 2
-166 1 -185 -1z m279 -395 c116 -18 271 -76 406 -150 320 -176 430 -219 635
-244 30 -4 76 -14 102 -23 44 -15 56 -15 215 7 199 27 341 54 402 76 25 8 87
38 139 65 52 28 107 50 122 50 35 0 95 -41 176 -119 62 -61 64 -64 64 -113 0
-91 -70 -255 -144 -337 -21 -24 -159 -141 -231 -197 -91 -72 -222 -133 -337
-159 -85 -19 -374 -44 -585 -50 -132 -4 -179 -9 -260 -31 -75 -20 -132 -27
-240 -31 -140 -5 -144 -5 -198 21 -78 39 -116 89 -204 271 -90 185 -142 274
-202 345 -82 98 -202 170 -369 225 -110 36 -160 81 -160 145 0 58 24 104 74
140 43 32 232 97 321 110 76 11 203 11 274 -1z"/>
<path d="M420 2132 c-34 -34 -37 -63 -14 -107 9 -16 31 -64 48 -105 97 -229
264 -357 389 -302 101 45 104 170 7 299 -48 62 -113 113 -235 184 -116 66
-153 72 -195 31z"/>
<path d="M4980 1473 c-8 -3 -25 -15 -38 -26 -14 -13 -37 -21 -61 -22 -113 -3
-146 -108 -90 -280 39 -122 89 -169 170 -162 57 5 91 29 118 85 26 52 51 192
51 279 0 61 -2 67 -34 99 -34 34 -73 43 -116 27z"/>
</g>
</svg>
