<?xml version="1.0" standalone="no"?>
<!DOCTYPE svg PUBLIC "-//W3C//DTD SVG 20010904//EN"
 "http://www.w3.org/TR/2001/REC-SVG-20010904/DTD/svg10.dtd">
<svg version="1.0" xmlns="http://www.w3.org/2000/svg"
 width="600.000000pt" height="600.000000pt" viewBox="0 0 600.000000 600.000000"
 preserveAspectRatio="xMidYMid meet">
<metadata>
Created by potrace 1.15, written by Peter Selinger 2001-2017
</metadata>
<g transform="translate(0.000000,600.000000) scale(0.100000,-0.100000)"
fill="#16364b" stroke="none">
<path d="M1543 5760 c-12 -5 -29 -20 -39 -34 -27 -42 -92 -278 -110 -400 -16
-107 -16 -118 -1 -182 35 -142 151 -195 273 -125 76 44 220 210 353 410 48 71
56 91 55 128 -1 47 -20 75 -66 99 -61 32 -124 5 -176 -75 -20 -31 -68 -99
-107 -151 -85 -115 -91 -105 -40 63 19 64 35 134 35 156 0 82 -97 143 -177
111z"/>
<path d="M856 5529 c-64 -15 -155 -70 -195 -115 -86 -98 -138 -245 -127 -361
8 -98 60 -180 145 -235 104 -66 221 -7 221 111 0 41 -4 48 -60 102 -67 64 -73
86 -40 147 27 52 40 66 80 91 44 27 88 27 140 0 51 -27 101 -19 142 21 35 35
38 98 8 148 -42 69 -210 118 -314 91z"/>
<path d="M3383 5400 c-40 -24 -53 -48 -53 -97 0 -47 20 -72 87 -112 51 -31 51
-32 37 -59 -8 -15 -14 -38 -14 -51 0 -68 105 -202 192 -245 68 -34 141 -35
188 -3 101 68 105 169 12 317 -63 101 -121 152 -263 229 -87 47 -135 52 -186
21z"/>
<path d="M2323 5250 c-53 -32 -65 -61 -75 -178 -16 -210 -54 -325 -127 -381
-19 -14 -68 -44 -109 -67 -106 -58 -135 -118 -96 -200 37 -77 106 -82 240 -19
177 82 281 221 340 450 34 133 39 315 10 358 -39 57 -123 74 -183 37z"/>
<path d="M2982 5159 c-86 -26 -181 -176 -189 -299 -13 -190 159 -256 369 -143
62 34 78 74 78 192 0 78 -3 95 -28 142 -46 88 -144 134 -230 108z"/>
<path d="M4764 4811 c-23 -10 -52 -34 -65 -52 -23 -32 -24 -42 -23 -174 0
-154 14 -225 65 -331 91 -191 296 -253 435 -131 54 47 81 98 92 169 18 123
-24 231 -133 343 -75 77 -124 113 -220 164 -69 36 -94 38 -151 12z m246 -463
c0 -18 -27 11 -33 35 -6 22 -6 22 14 -2 10 -13 19 -28 19 -33z"/>
<path d="M2795 4200 c-117 -19 -241 -94 -280 -169 -58 -114 0 -233 152 -308
67 -33 85 -38 169 -41 74 -4 106 0 161 17 107 33 239 115 288 179 20 28 30 95
21 145 -13 70 -99 125 -261 166 -58 15 -192 21 -250 11z"/>
<path d="M1069 4091 c-70 -22 -109 -76 -109 -151 0 -90 65 -152 172 -164 86
-9 158 -28 158 -41 0 -24 -131 -109 -280 -181 -85 -41 -175 -85 -200 -97 -60
-30 -90 -76 -90 -139 0 -86 49 -139 135 -146 61 -5 156 31 352 133 l123 64 6
-27 c20 -83 79 -132 159 -132 33 0 60 7 79 19 l30 20 29 -25 c83 -70 205 -94
289 -56 107 47 148 185 89 300 -28 55 -102 117 -170 143 -47 18 -71 20 -154
17 -87 -5 -97 -3 -91 11 21 49 35 128 30 166 -8 52 -52 124 -98 158 -58 44
-163 88 -260 107 -131 26 -169 30 -199 21z"/>
<path d="M4201 3775 c-117 -33 -211 -108 -254 -205 -28 -63 -34 -173 -13 -237
56 -168 276 -248 451 -163 84 41 176 160 204 267 21 78 32 196 21 229 -14 42
-56 80 -110 99 -65 24 -231 29 -299 10z m69 -320 c-27 -28 -50 -33 -50 -10 0
15 60 48 69 39 3 -2 -6 -15 -19 -29z"/>
<path d="M5110 3477 c-214 -88 -331 -295 -274 -486 32 -110 131 -175 264 -176
106 0 170 25 240 95 112 111 149 274 91 404 -22 50 -110 149 -153 172 -39 20
-105 17 -168 -9z"/>
<path d="M3425 3396 c-48 -21 -100 -88 -154 -198 -58 -118 -65 -167 -29 -213
35 -45 79 -58 146 -45 74 15 115 41 153 96 59 87 86 225 56 296 -28 67 -103
94 -172 64z"/>
<path d="M2404 3151 c-97 -25 -186 -116 -238 -246 -16 -39 -46 -107 -67 -152
-43 -90 -85 -131 -213 -205 -48 -28 -113 -85 -215 -187 -244 -244 -309 -381
-341 -718 -15 -167 13 -316 83 -436 49 -83 156 -205 239 -272 167 -134 329
-186 583 -188 190 -2 300 31 463 136 188 121 298 240 386 414 125 250 192 704
142 968 -36 186 -105 361 -183 460 -21 28 -54 77 -73 109 -40 68 -164 198
-231 244 -73 49 -145 74 -229 78 -41 2 -89 0 -106 -5z m174 -425 c23 -25 48
-60 55 -78 8 -18 41 -63 74 -100 102 -115 132 -191 153 -389 24 -220 -33 -483
-147 -689 -45 -80 -187 -224 -264 -267 -118 -66 -257 -82 -383 -43 -139 43
-279 167 -328 290 -32 80 -31 228 0 325 65 196 164 315 386 462 214 143 296
241 356 428 26 81 37 105 49 105 5 0 27 -20 49 -44z"/>
<path d="M673 2531 c-46 -21 -73 -62 -73 -111 0 -58 25 -87 113 -131 159 -80
260 -168 312 -272 25 -51 32 -110 16 -136 -23 -36 -99 -2 -180 80 -57 58 -96
116 -132 194 -36 81 -66 105 -130 105 -39 0 -55 -6 -83 -30 -50 -44 -54 -83
-17 -169 59 -140 190 -298 306 -371 235 -147 475 -41 475 210 0 241 -174 479
-444 610 -94 45 -105 47 -163 21z"/>
<path d="M4252 2177 c-51 -10 -107 -61 -117 -106 -7 -35 -12 -37 -39 -16 -29
22 -114 19 -153 -5 -75 -45 -90 -108 -64 -262 11 -62 27 -167 36 -233 20 -139
36 -174 100 -205 24 -11 49 -28 56 -36 24 -30 87 -54 139 -54 123 0 208 80
246 232 17 69 32 487 20 552 -7 36 -53 98 -86 116 -34 18 -96 26 -138 17z"/>
</g>
</svg>
