<?xml version="1.0" standalone="no"?>
<!DOCTYPE svg PUBLIC "-//W3C//DTD SVG 20010904//EN"
 "http://www.w3.org/TR/2001/REC-SVG-20010904/DTD/svg10.dtd">
<svg version="1.0" xmlns="http://www.w3.org/2000/svg"
 width="600.000000pt" height="600.000000pt" viewBox="0 0 600.000000 600.000000"
 preserveAspectRatio="xMidYMid meet">
<metadata>
Created by potrace 1.15, written by Peter Selinger 2001-2017
</metadata>
<g transform="translate(0.000000,600.000000) scale(0.100000,-0.100000)"
fill="#16364b" stroke="none">
<path d="M1526 5749 c-36 -29 -49 -58 -79 -179 -56 -227 -62 -410 -17 -504 46
-96 157 -133 256 -85 24 11 72 51 107 88 112 119 303 407 314 474 12 78 -51
144 -129 134 -53 -7 -84 -30 -116 -84 -52 -89 -180 -279 -197 -293 -15 -13
-16 -11 -10 26 12 75 27 140 52 227 30 108 26 143 -23 186 -28 26 -43 31 -83
31 -34 0 -56 -6 -75 -21z"/>
<path d="M859 5517 c-105 -30 -204 -112 -251 -209 -74 -151 -64 -323 27 -437
56 -71 103 -100 157 -101 39 0 52 5 81 33 67 63 58 145 -24 215 -36 31 -39 38
-39 83 0 56 10 81 48 121 38 41 82 53 127 33 104 -43 195 9 195 112 0 21 -9
53 -20 71 -42 68 -195 109 -301 79z"/>
<path d="M3334 5436 c-29 -29 -34 -41 -34 -81 0 -65 21 -95 102 -145 38 -24
72 -48 74 -52 3 -5 -5 -22 -17 -39 -30 -42 -36 -107 -14 -149 25 -49 104 -129
149 -152 22 -11 68 -23 102 -26 52 -4 68 -1 103 19 61 34 86 80 85 154 -1 66
-18 108 -86 208 -53 79 -133 156 -220 215 -144 97 -187 105 -244 48z"/>
<path d="M2310 5198 c-60 -31 -80 -72 -80 -164 0 -150 -40 -259 -112 -311 -24
-16 -70 -45 -103 -62 -79 -43 -81 -45 -100 -95 -21 -54 -8 -112 35 -154 51
-52 88 -51 204 6 58 28 123 69 154 97 120 109 202 321 202 527 0 139 -93 211
-200 156z"/>
<path d="M3000 5161 c-140 -45 -238 -213 -215 -366 7 -53 52 -111 102 -131 49
-21 124 -17 200 11 96 34 127 71 143 165 31 183 -33 311 -160 325 -25 2 -56 1
-70 -4z"/>
<path d="M4750 4812 c-19 -9 -45 -33 -58 -52 -23 -34 -24 -40 -19 -170 7 -199
51 -328 145 -425 82 -84 193 -116 302 -85 157 44 208 267 102 450 -57 100
-169 191 -322 264 -85 41 -101 43 -150 18z m240 -442 c6 -11 8 -20 6 -20 -3 0
-10 9 -16 20 -6 11 -8 20 -6 20 3 0 10 -9 16 -20z"/>
<path d="M2740 4176 c-129 -36 -213 -155 -195 -275 37 -245 368 -304 676 -121
100 60 132 116 109 198 -17 64 -53 94 -173 141 -172 67 -312 86 -417 57z"/>
<path d="M1055 4083 c-68 -18 -110 -87 -103 -168 8 -92 52 -128 180 -149 122
-20 168 -34 162 -50 -7 -18 -198 -143 -329 -214 -233 -127 -240 -133 -251
-213 -13 -93 46 -160 146 -167 49 -4 65 0 131 33 41 21 118 65 172 97 54 33
99 58 101 57 1 -2 8 -23 14 -46 8 -25 26 -53 47 -72 30 -26 44 -31 88 -31 43
0 63 7 117 40 68 42 100 49 119 26 6 -8 33 -23 59 -34 128 -54 232 -29 282 69
39 75 16 171 -52 222 -62 46 -124 62 -240 62 -60 0 -108 1 -108 2 0 0 12 25
27 54 32 61 43 165 23 223 -18 55 -101 139 -167 171 -107 51 -360 104 -418 88z"/>
<path d="M4282 3789 c-174 -22 -302 -114 -347 -250 -26 -76 -17 -192 18 -252
57 -96 156 -150 278 -150 69 0 88 5 143 32 41 20 82 50 110 82 84 94 149 260
150 386 1 55 -2 65 -29 93 -49 51 -186 76 -323 59z m-2 -309 c0 -15 -38 -50
-55 -50 -26 0 -15 28 20 48 25 14 35 15 35 2z"/>
<path d="M5100 3438 c-175 -67 -276 -202 -274 -368 1 -92 26 -151 87 -207 87
-81 210 -95 328 -39 148 70 232 258 186 417 -18 60 -111 180 -159 205 -38 20
-103 17 -168 -8z"/>
<path d="M3446 3393 c-45 -7 -126 -96 -185 -203 -46 -85 -51 -100 -48 -143 7
-85 70 -125 165 -107 69 13 101 30 145 79 47 53 66 90 82 166 15 72 6 136 -23
169 -19 21 -74 47 -94 45 -7 -1 -26 -4 -42 -6z"/>
<path d="M2397 3050 c-118 -21 -225 -108 -284 -232 -17 -35 -47 -97 -66 -138
-41 -87 -81 -132 -170 -191 -85 -58 -263 -238 -324 -329 -68 -102 -104 -175
-146 -300 -78 -229 -92 -408 -44 -556 80 -243 343 -482 622 -565 110 -33 301
-37 434 -9 325 67 550 248 681 550 55 126 116 320 146 466 23 115 25 144 21
264 -7 168 -30 260 -99 400 -44 90 -64 117 -137 190 -46 47 -132 143 -190 215
-58 71 -128 147 -156 167 -80 61 -187 86 -288 68z m115 -467 c30 -38 67 -89
82 -115 19 -34 47 -62 100 -97 145 -98 171 -155 171 -376 0 -156 -12 -232 -60
-381 -93 -286 -244 -458 -434 -494 -135 -25 -273 -4 -417 65 -196 95 -250 222
-190 457 55 219 140 363 272 464 223 169 291 251 380 457 20 48 38 87 40 87 1
0 26 -30 56 -67z"/>
<path d="M783 2608 c-17 -13 -39 -35 -47 -50 -20 -33 -21 -107 -1 -135 9 -13
57 -44 107 -70 200 -103 309 -264 253 -373 -30 -58 -90 -66 -151 -22 -47 35
-81 78 -130 167 -42 76 -80 105 -137 105 -72 0 -127 -50 -127 -116 0 -35 64
-155 123 -229 105 -132 215 -198 339 -204 69 -3 84 0 140 26 202 95 274 337
162 543 -65 119 -228 273 -365 345 -78 41 -121 44 -166 13z"/>
<path d="M4165 2197 c-45 -26 -81 -83 -91 -143 l-6 -41 -44 15 c-116 38 -214
-43 -214 -177 0 -98 76 -413 112 -464 25 -34 83 -65 140 -73 23 -3 64 -14 90
-25 88 -36 169 -19 239 51 85 85 91 151 58 595 -13 181 -25 218 -86 260 -51
34 -140 35 -198 2z"/>
</g>
</svg>
