<?xml version="1.0" standalone="no"?>
<!DOCTYPE svg PUBLIC "-//W3C//DTD SVG 20010904//EN"
 "http://www.w3.org/TR/2001/REC-SVG-20010904/DTD/svg10.dtd">
<svg version="1.0" xmlns="http://www.w3.org/2000/svg"
 width="600.000000pt" height="600.000000pt" viewBox="0 0 600.000000 600.000000"
 preserveAspectRatio="xMidYMid meet">
<metadata>
Created by potrace 1.15, written by Peter Selinger 2001-2017
</metadata>
<g transform="translate(0.000000,600.000000) scale(0.100000,-0.100000)"
fill="#16364b" stroke="none">
<path d="M2352 5406 c-16 -21 -20 -49 -26 -180 -11 -252 -48 -447 -103 -549
-35 -64 -96 -118 -182 -161 -39 -20 -75 -45 -81 -55 -29 -55 11 -121 72 -121
94 1 295 165 360 295 87 174 113 300 113 552 0 189 -1 192 -24 217 -34 36
-101 37 -129 2z"/>
<path d="M3508 5313 c-23 -26 -48 -79 -48 -101 0 -11 9 -49 20 -85 25 -81 81
-154 157 -204 50 -34 63 -38 120 -38 59 0 67 2 90 29 37 43 28 96 -33 196 -63
105 -124 173 -177 199 -53 26 -108 27 -129 4z"/>
<path d="M3005 5114 c-114 -59 -193 -244 -150 -351 38 -95 147 -111 253 -36
73 52 104 120 106 233 1 84 -16 125 -64 154 -35 20 -106 21 -145 0z m55 -183
c0 -24 -49 -84 -50 -61 0 16 36 80 45 80 3 0 5 -9 5 -19z"/>
<path d="M4730 4722 c-23 -23 -29 -41 -35 -95 -20 -189 45 -445 136 -537 39
-38 67 -50 121 -50 37 0 47 6 88 48 35 36 50 63 63 108 46 164 -3 308 -163
475 l-75 79 -53 0 c-45 0 -58 -4 -82 -28z"/>
<path d="M2680 4221 c-93 -29 -143 -90 -142 -175 1 -94 52 -163 157 -212 66
-31 180 -33 258 -4 63 24 152 84 180 121 31 43 33 107 5 149 -19 29 -38 39
-118 67 -155 53 -279 72 -340 54z"/>
<path d="M1143 4138 c-40 -11 -65 -46 -66 -94 -1 -24 -9 -46 -24 -62 -65 -70
13 -228 139 -282 103 -44 224 -7 271 83 41 79 14 195 -60 256 -82 68 -204 114
-260 99z"/>
<path d="M5215 3876 c-97 -31 -162 -87 -201 -171 -33 -73 -39 -131 -20 -206
29 -110 87 -183 190 -237 43 -22 64 -26 131 -26 147 1 255 66 317 191 28 57
33 77 33 142 0 115 -42 177 -180 269 -67 45 -73 47 -150 49 -46 2 -97 -3 -120
-11z m141 -298 c7 -12 -25 -48 -42 -48 -7 0 -19 10 -25 22 -9 17 -8 24 5 34
18 12 52 8 62 -8z"/>
<path d="M4153 3741 c-76 -26 -136 -80 -174 -156 -28 -58 -31 -72 -27 -128 18
-222 248 -338 459 -231 101 51 156 137 172 270 19 147 -12 197 -145 239 -97
31 -207 33 -285 6z m125 -253 c-6 -17 -55 -44 -63 -36 -4 3 -2 16 5 27 12 23
65 31 58 9z"/>
<path d="M3444 3376 c-17 -8 -45 -31 -63 -52 -42 -50 -141 -251 -141 -285 0
-60 68 -95 135 -69 42 16 137 119 172 186 57 107 53 176 -9 214 -38 23 -52 24
-94 6z"/>
<path d="M1410 3185 c-178 -22 -259 -42 -337 -80 -217 -107 -324 -323 -268
-540 44 -168 160 -309 295 -358 25 -9 92 -24 150 -32 229 -33 305 -118 421
-468 76 -229 127 -327 213 -413 80 -80 171 -135 284 -172 97 -31 271 -40 492
-24 85 6 295 16 465 22 334 11 584 30 734 56 287 49 522 171 713 372 98 103
235 332 284 477 65 191 21 432 -108 604 -150 199 -346 317 -543 328 -155 9
-281 -34 -527 -179 -220 -130 -230 -133 -433 -133 -151 0 -178 3 -240 23 -126
42 -342 161 -645 354 -110 70 -237 121 -380 153 -105 23 -419 29 -570 10z
m440 -385 c165 -35 250 -73 442 -196 270 -173 483 -272 673 -313 234 -50 273
-54 390 -42 208 23 300 53 495 166 218 126 225 129 310 130 65 0 82 -4 130
-30 30 -17 82 -56 116 -88 52 -48 64 -66 74 -109 33 -135 -38 -349 -154 -469
-51 -52 -185 -157 -247 -193 -68 -39 -194 -83 -306 -105 -145 -30 -320 -40
-693 -42 -224 -1 -365 -6 -425 -15 -115 -18 -286 -18 -350 0 -134 36 -186 104
-286 372 -96 260 -156 368 -265 478 -116 116 -240 187 -384 221 -122 29 -166
57 -176 110 -13 73 45 110 205 130 121 16 367 13 451 -5z"/>
<path d="M429 2081 c-35 -35 -37 -64 -7 -111 12 -19 37 -66 56 -105 84 -167
270 -283 368 -230 33 18 64 67 64 102 0 80 -73 171 -213 264 -174 116 -218
129 -268 80z"/>
<path d="M5125 1318 c-11 -6 -24 -17 -28 -25 -4 -7 -17 -13 -28 -13 -33 0 -79
-29 -89 -56 -24 -63 3 -178 57 -242 16 -18 46 -39 67 -46 72 -25 133 10 161
92 20 61 30 199 16 234 -21 54 -106 84 -156 56z"/>
</g>
</svg>
