<?xml version="1.0" standalone="no"?>
<!DOCTYPE svg PUBLIC "-//W3C//DTD SVG 20010904//EN"
 "http://www.w3.org/TR/2001/REC-SVG-20010904/DTD/svg10.dtd">
<svg version="1.0" xmlns="http://www.w3.org/2000/svg"
 width="600.000000pt" height="600.000000pt" viewBox="0 0 600.000000 600.000000"
 preserveAspectRatio="xMidYMid meet">
<metadata>
Created by potrace 1.15, written by Peter Selinger 2001-2017
</metadata>
<g transform="translate(0.000000,600.000000) scale(0.100000,-0.100000)"
fill="#16364b" stroke="none">
<path d="M1915 5812 c-19 -12 -77 -91 -156 -213 -210 -322 -269 -442 -269
-546 0 -150 141 -227 288 -158 58 27 361 214 529 327 112 74 133 102 133 170
0 81 -60 138 -146 138 -48 0 -61 -6 -165 -74 -62 -41 -115 -74 -117 -72 -1 2
27 47 63 101 36 54 70 114 76 134 20 68 -23 161 -92 196 -39 21 -108 19 -144
-3z"/>
<path d="M3005 5706 c-69 -30 -108 -112 -86 -179 16 -48 50 -79 139 -127 136
-74 335 -212 405 -281 79 -79 119 -156 125 -242 4 -50 1 -61 -18 -82 -23 -25
-57 -39 -120 -49 -146 -25 -188 -191 -68 -267 29 -18 45 -20 119 -16 109 5
194 43 263 117 70 74 99 146 104 252 5 92 -5 146 -40 238 -79 207 -356 473
-637 615 -77 38 -132 44 -186 21z"/>
<path d="M980 5395 c-148 -33 -325 -163 -379 -279 -77 -168 -32 -356 123 -511
124 -123 215 -145 291 -69 71 71 68 166 -7 226 -108 86 -136 134 -117 200 17
59 61 90 179 122 148 41 188 212 69 297 -35 26 -85 30 -159 14z"/>
<path d="M2840 5068 c-70 -20 -144 -90 -183 -175 -31 -68 -32 -210 0 -268 61
-114 191 -162 362 -136 87 14 130 37 156 84 22 41 17 118 -10 147 -14 16 -15
24 -5 54 32 98 -72 255 -193 291 -57 17 -77 17 -127 3z"/>
<path d="M4750 4875 c-65 -48 -74 -72 -67 -198 17 -346 134 -522 354 -535 60
-3 80 0 125 20 122 57 180 169 158 304 -27 163 -139 282 -373 395 -98 47 -147
51 -197 14z"/>
<path d="M1930 4725 c-83 -27 -153 -76 -177 -125 -28 -55 -29 -92 -3 -144 27
-54 62 -78 121 -84 39 -4 56 0 93 22 58 34 81 33 94 -1 5 -16 17 -49 27 -76
42 -119 208 -134 275 -25 24 40 25 87 4 159 -38 128 -104 212 -202 256 -68 32
-167 39 -232 18z"/>
<path d="M1230 3989 c-81 -12 -225 -54 -261 -76 -76 -44 -119 -138 -99 -212
25 -93 91 -144 186 -142 43 0 54 -3 46 -12 -89 -110 -247 -332 -279 -392 -23
-42 -74 -150 -112 -239 -132 -304 -140 -340 -100 -424 37 -76 117 -112 214
-98 34 6 56 17 88 48 23 22 76 68 117 101 41 33 138 115 215 182 249 215 449
370 466 359 8 -4 9 -27 5 -68 -21 -189 -252 -743 -442 -1062 -50 -84 -59 -106
-58 -145 2 -121 131 -194 235 -133 75 44 239 339 383 689 41 99 97 230 125
292 64 141 80 207 88 358 10 205 -22 330 -101 403 -53 48 -103 66 -167 59 -74
-9 -142 -47 -294 -166 -77 -61 -141 -108 -143 -106 -2 2 20 36 49 76 69 94
173 277 196 343 50 147 -2 284 -131 341 -60 27 -149 37 -226 24z"/>
<path d="M2913 3971 c-91 -33 -158 -94 -193 -175 -30 -67 -31 -168 -1 -228 60
-125 247 -217 450 -221 78 -2 91 1 124 23 80 54 91 163 25 236 l-19 22 44 21
c61 30 91 84 85 157 -7 77 -43 113 -151 150 -112 37 -285 44 -364 15z m212
-297 l40 -14 -54 6 c-30 3 -62 9 -70 14 -26 15 38 11 84 -6z"/>
<path d="M4203 3785 c-121 -26 -220 -101 -271 -204 -22 -47 -27 -69 -26 -131
1 -91 27 -153 91 -218 66 -65 120 -86 228 -86 79 -1 96 2 143 27 109 57 202
179 266 351 31 81 33 129 7 176 -26 50 -64 68 -177 85 -119 18 -178 18 -261 0z
m52 -325 c-19 -21 -55 -27 -55 -10 0 12 31 29 54 30 18 0 18 -1 1 -20z"/>
<path d="M3444 3401 c-83 -21 -149 -95 -205 -231 -61 -147 -47 -242 41 -287
37 -20 54 -22 124 -17 131 8 211 56 263 159 31 60 42 163 23 221 -37 114 -143
180 -246 155z"/>
<path d="M4924 3032 c-55 -40 -162 -156 -208 -225 -132 -201 -92 -400 92 -453
142 -42 318 50 394 204 31 62 33 73 33 172 0 144 -12 176 -94 261 l-67 69 -56
0 c-45 0 -62 -5 -94 -28z"/>
<path d="M3935 2567 c-59 -28 -77 -47 -104 -107 -30 -66 -26 -103 24 -245 25
-70 43 -130 41 -133 -3 -2 -28 5 -55 16 -73 32 -148 38 -214 17 -69 -21 -143
-85 -182 -156 -29 -52 -30 -59 -29 -174 1 -108 4 -132 38 -240 20 -66 54 -180
75 -253 44 -147 66 -188 124 -226 81 -52 182 -43 258 22 75 65 96 153 64 272
-8 30 -15 58 -15 61 0 3 26 -7 58 -23 73 -38 133 -35 225 10 91 45 160 110
198 187 31 63 31 67 27 172 -5 93 -12 126 -51 243 -98 297 -157 453 -182 486
-66 86 -202 118 -300 71z"/>
<path d="M2032 2181 c-35 -12 -71 -35 -104 -67 -97 -95 -188 -244 -188 -308 0
-51 28 -113 63 -141 l31 -24 -29 -22 c-102 -77 -184 -213 -205 -341 -15 -87
-7 -306 13 -388 67 -261 167 -385 416 -509 176 -89 338 -127 507 -118 131 6
203 29 307 96 78 51 207 183 236 240 38 75 35 148 -9 204 -11 14 -20 27 -20
30 0 2 14 22 31 43 75 93 209 402 262 604 26 98 31 134 31 240 1 112 -1 130
-23 174 -32 64 -82 113 -150 145 -50 23 -68 26 -171 26 -94 0 -128 -4 -184
-23 -90 -30 -259 -107 -365 -166 -46 -25 -87 -46 -90 -46 -4 0 -13 34 -19 76
-23 147 -95 254 -190 282 -54 16 -88 15 -150 -7z m934 -591 c-39 -169 -111
-346 -186 -456 -40 -57 -60 -106 -60 -144 0 -38 24 -98 51 -126 l20 -21 -63
-65 c-85 -88 -149 -120 -253 -126 -45 -2 -107 1 -138 8 -132 27 -283 134 -329
232 -62 130 -57 317 10 391 15 17 82 51 87 45 1 -2 12 -29 25 -61 31 -78 87
-153 130 -174 121 -59 277 34 288 170 3 45 0 58 -28 99 -17 26 -29 52 -26 57
9 14 302 185 396 231 99 47 100 46 76 -60z"/>
</g>
</svg>
