<?xml version="1.0" standalone="no"?>
<!DOCTYPE svg PUBLIC "-//W3C//DTD SVG 20010904//EN"
 "http://www.w3.org/TR/2001/REC-SVG-20010904/DTD/svg10.dtd">
<svg version="1.0" xmlns="http://www.w3.org/2000/svg"
 width="600.000000pt" height="600.000000pt" viewBox="0 0 600.000000 600.000000"
 preserveAspectRatio="xMidYMid meet">
<metadata>
Created by potrace 1.15, written by Peter Selinger 2001-2017
</metadata>
<g transform="translate(0.000000,600.000000) scale(0.100000,-0.100000)"
fill="#16364b" stroke="none">
<path d="M2013 5811 c-17 -11 -50 -47 -72 -80 -23 -33 -87 -117 -142 -186
-141 -177 -203 -265 -246 -352 -78 -159 -45 -291 83 -333 79 -26 141 -1 494
204 339 197 339 197 348 286 6 62 -10 101 -56 141 -32 28 -40 31 -86 27 -42
-4 -70 -17 -155 -71 -58 -37 -109 -67 -114 -67 -5 0 7 21 27 48 84 110 134
193 141 231 9 54 -22 123 -67 151 -43 26 -113 26 -155 1z"/>
<path d="M3019 5685 c-37 -24 -43 -35 -60 -89 -11 -37 3 -93 32 -130 11 -14
60 -46 107 -70 311 -155 451 -297 469 -472 8 -80 -12 -115 -90 -154 -33 -17
-69 -30 -79 -30 -34 0 -96 -39 -117 -73 -51 -83 -2 -187 101 -211 40 -9 163
19 234 54 78 38 156 120 196 206 62 134 45 360 -40 504 -73 125 -225 265 -414
382 -182 113 -266 133 -339 83z"/>
<path d="M985 5371 c-238 -68 -375 -238 -375 -465 0 -134 37 -233 122 -322 75
-79 134 -114 194 -114 64 0 109 28 134 83 36 77 19 130 -60 189 -64 48 -90 91
-90 147 1 25 6 56 13 68 18 33 73 70 131 89 113 37 159 88 159 179 0 69 -31
120 -87 146 -50 22 -64 22 -141 0z"/>
<path d="M2800 5015 c-155 -50 -259 -269 -204 -432 51 -149 201 -212 400 -168
68 15 84 23 117 57 33 34 37 45 37 89 0 45 -4 55 -34 85 -19 19 -41 34 -50 34
-22 0 -20 6 10 46 36 47 42 109 16 160 -55 106 -185 164 -292 129z"/>
<path d="M4765 4916 c-43 -19 -93 -79 -101 -122 -10 -55 3 -211 26 -299 50
-195 182 -328 340 -342 108 -10 208 44 255 138 67 131 -1 344 -152 479 -68 60
-260 160 -306 160 -18 -1 -46 -7 -62 -14z"/>
<path d="M1965 4659 c-65 -10 -118 -34 -182 -81 -61 -45 -83 -81 -83 -138 0
-131 128 -193 243 -120 70 44 89 41 118 -21 32 -68 76 -101 143 -107 64 -5
108 14 137 61 60 96 -58 317 -204 382 -64 28 -107 34 -172 24z"/>
<path d="M2976 3950 c-234 -83 -353 -293 -287 -509 31 -101 85 -165 183 -215
60 -30 90 -40 146 -44 85 -6 111 0 151 34 92 77 40 233 -87 264 -60 14 -85 39
-84 82 1 44 53 93 85 81 45 -16 121 -9 154 15 47 33 76 101 71 166 -8 98 -63
139 -193 143 -61 3 -94 -2 -139 -17z"/>
<path d="M1085 3896 c-154 -32 -196 -58 -230 -138 -22 -53 -19 -97 11 -156 36
-73 87 -102 177 -102 l66 0 -61 -102 c-33 -57 -112 -186 -175 -287 -135 -215
-201 -349 -237 -482 -23 -85 -25 -103 -16 -145 13 -55 49 -108 88 -128 71 -37
171 -27 215 21 29 31 217 191 382 323 72 57 197 160 278 228 82 68 151 122
153 119 18 -18 -47 -307 -103 -457 -69 -184 -222 -485 -326 -639 -62 -93 -69
-133 -33 -195 44 -75 144 -107 221 -70 52 24 140 169 279 456 108 223 155 343
196 506 122 485 99 717 -75 767 -114 34 -273 -42 -483 -228 -29 -26 -55 -47
-58 -47 -6 0 -10 -6 84 145 109 175 144 252 150 335 8 117 -47 223 -142 272
-63 33 -217 35 -361 4z"/>
<path d="M4230 3774 c-185 -51 -306 -172 -318 -319 -4 -53 -1 -71 20 -116 30
-63 76 -112 132 -142 57 -29 195 -36 264 -13 118 40 231 159 298 316 59 139
57 215 -10 263 -28 20 -44 22 -181 24 -109 2 -165 -2 -205 -13z m45 -294 c-18
-20 -55 -28 -55 -12 0 10 38 30 59 31 11 1 10 -4 -4 -19z"/>
<path d="M3430 3368 c-58 -29 -106 -101 -154 -230 -42 -113 -45 -161 -13 -208
38 -57 73 -71 184 -72 112 -2 148 10 211 67 138 124 92 390 -77 450 -60 21
-99 19 -151 -7z"/>
<path d="M4921 2964 c-19 -8 -74 -54 -121 -102 -160 -163 -213 -326 -148 -456
59 -117 186 -148 324 -78 115 58 191 158 220 290 28 126 8 206 -72 286 -75 75
-131 92 -203 60z"/>
<path d="M4042 2557 c-48 -15 -127 -90 -147 -139 -10 -24 -18 -68 -17 -98 0
-52 7 -89 47 -223 9 -32 15 -60 13 -62 -1 -2 -37 8 -78 23 -184 63 -328 11
-397 -145 -26 -56 -23 -230 5 -353 33 -143 102 -380 122 -420 41 -80 113 -120
212 -120 107 1 191 56 223 148 22 66 19 95 -20 207 -19 55 -35 104 -35 109 0
4 18 -8 40 -28 22 -19 57 -43 77 -52 54 -23 147 -21 212 5 112 45 161 102 187
219 24 107 10 198 -81 532 -85 310 -97 337 -184 382 -57 30 -117 35 -179 15z"/>
<path d="M2034 2134 c-49 -17 -125 -90 -189 -179 -81 -114 -93 -174 -52 -255
32 -64 91 -103 167 -108 35 -3 59 -9 58 -14 -2 -6 -31 -20 -64 -32 -150 -55
-258 -184 -299 -358 -19 -82 -19 -228 0 -303 54 -215 273 -481 468 -570 177
-81 511 -87 679 -12 120 54 271 175 309 248 41 82 15 200 -56 248 -43 29 -118
38 -170 21 -20 -7 -69 -41 -108 -77 -40 -36 -99 -79 -132 -96 -57 -30 -66 -32
-170 -32 -101 0 -115 2 -169 29 -89 44 -190 144 -231 230 -58 122 -60 253 -5
308 16 15 35 28 44 28 8 0 29 -26 46 -58 44 -84 112 -166 153 -185 40 -19 103
-22 144 -6 70 26 127 114 126 195 0 57 -12 83 -59 136 -35 39 -67 97 -89 159
-13 37 -13 37 13 44 15 4 135 60 267 126 132 65 253 122 269 125 28 7 28 6 21
-27 -22 -104 -156 -416 -227 -528 -50 -80 -61 -149 -33 -210 44 -99 173 -128
277 -62 52 33 92 98 203 326 123 254 170 403 169 535 -1 169 -90 297 -236 341
-64 19 -206 12 -298 -15 -117 -34 -286 -106 -403 -171 -54 -30 -99 -55 -101
-55 -3 0 -7 19 -11 43 -28 173 -162 264 -311 211z"/>
</g>
</svg>
