<?xml version="1.0" standalone="no"?>
<!DOCTYPE svg PUBLIC "-//W3C//DTD SVG 20010904//EN"
 "http://www.w3.org/TR/2001/REC-SVG-20010904/DTD/svg10.dtd">
<svg version="1.0" xmlns="http://www.w3.org/2000/svg"
 width="600.000000pt" height="600.000000pt" viewBox="0 0 600.000000 600.000000"
 preserveAspectRatio="xMidYMid meet">
<metadata>
Created by potrace 1.15, written by Peter Selinger 2001-2017
</metadata>
<g transform="translate(0.000000,600.000000) scale(0.100000,-0.100000)"
fill="#16364b" stroke="none">
<path d="M3544 5282 c-17 -11 -34 -48 -34 -74 1 -63 95 -202 168 -249 58 -37
94 -38 122 -2 27 35 21 73 -25 151 -79 135 -178 210 -231 174z m108 -139 c53
-72 71 -103 60 -103 -13 0 -74 75 -96 118 -24 47 -5 39 36 -15z"/>
<path d="M3015 5064 c-46 -24 -70 -50 -103 -112 -55 -105 -51 -196 10 -228 28
-14 34 -14 75 1 87 33 193 169 193 248 0 85 -93 134 -175 91z m92 -81 c4 -9
-5 -39 -22 -70 -41 -78 -135 -146 -135 -97 0 94 131 234 157 167z"/>
<path d="M4763 4745 c-40 -28 -47 -75 -48 -325 0 -291 11 -339 83 -357 33 -8
73 14 92 52 20 40 26 308 11 474 -11 115 -14 128 -37 149 -29 26 -70 29 -101
7z"/>
<path d="M2652 4225 c-57 -25 -68 -111 -20 -162 77 -83 360 -158 451 -119 53
21 74 72 52 120 -19 39 -15 38 -230 108 -210 69 -213 70 -253 53z"/>
<path d="M1560 4177 c-48 -16 -113 -83 -128 -133 -31 -104 -5 -183 91 -279
118 -117 175 -286 226 -670 30 -229 61 -654 61 -851 0 -466 144 -791 407 -923
70 -35 218 -84 316 -105 l27 -6 0 -95 c0 -131 24 -291 67 -442 20 -70 38 -143
40 -161 l5 -32 -50 0 c-128 0 -204 -40 -218 -114 -9 -49 17 -86 74 -104 87
-29 262 36 322 119 49 69 48 102 -9 280 -66 207 -105 432 -88 501 l6 23 258 0
c142 0 353 2 470 5 116 3 214 2 217 -1 4 -3 1 -19 -5 -35 -20 -53 -27 -138
-18 -219 14 -115 52 -191 139 -276 39 -38 70 -72 70 -74 0 -3 -30 -5 -67 -5
-121 0 -173 -28 -173 -93 0 -72 76 -114 188 -104 160 14 252 105 221 219 -8
32 -34 65 -108 142 -110 113 -123 140 -124 249 0 55 6 87 24 132 l25 60 65 8
c176 23 586 126 704 178 143 62 298 205 360 332 55 113 69 183 62 312 -9 158
-53 297 -134 424 -138 216 -383 297 -643 212 -167 -53 -306 -74 -455 -68 -210
9 -364 49 -570 148 -210 101 -377 210 -466 306 -69 74 -118 143 -372 529 -120
182 -241 317 -376 422 -47 36 -106 84 -131 106 -90 78 -221 113 -310 83z m156
-166 c23 -10 66 -41 97 -67 30 -27 74 -62 97 -79 115 -82 232 -234 460 -597
151 -241 314 -430 454 -527 139 -96 374 -208 557 -266 106 -33 345 -75 429
-75 120 0 328 39 490 92 88 29 186 28 265 -2 79 -31 148 -101 203 -207 96
-186 107 -362 31 -520 -30 -64 -140 -171 -214 -210 -64 -33 -364 -125 -554
-170 l-116 -27 -545 0 c-592 -1 -697 6 -909 60 -237 60 -356 170 -425 392 -48
155 -57 235 -62 567 -2 171 -9 364 -14 430 -16 187 -79 598 -111 724 -40 157
-78 229 -171 328 -61 64 -78 89 -78 112 0 59 43 75 116 42z"/>
<path d="M2417 2522 c-30 -33 -19 -75 24 -97 37 -20 45 -19 69 5 25 25 26 72
2 93 -25 22 -75 21 -95 -1z"/>
<path d="M2876 2189 c-14 -11 -26 -29 -26 -40 0 -28 48 -69 81 -69 54 0 81 83
37 114 -31 22 -60 20 -92 -5z"/>
<path d="M5207 3976 c-63 -23 -116 -64 -148 -114 -42 -67 -52 -107 -47 -203 3
-68 9 -96 34 -150 58 -122 138 -178 255 -179 105 0 202 38 287 115 61 55 102
135 109 215 10 109 -34 182 -164 267 l-88 58 -100 3 c-67 1 -113 -3 -138 -12z
m181 -301 c11 -11 -15 -40 -38 -43 -25 -4 -40 12 -40 42 0 16 5 18 36 13 20
-3 39 -9 42 -12z"/>
<path d="M4215 3746 c-62 -19 -96 -41 -143 -87 -148 -148 -123 -369 52 -462
58 -31 191 -31 258 0 76 35 133 100 157 178 26 83 26 121 2 216 -16 58 -27 81
-55 106 -60 56 -181 78 -271 49z m85 -264 c0 -10 -5 -23 -12 -30 -13 -13 -48
-16 -48 -4 0 16 32 52 46 52 8 0 14 -8 14 -18z"/>
<path d="M474 2005 c-13 -33 7 -61 80 -108 80 -52 198 -106 233 -107 38 0 53
11 53 40 0 26 -11 33 -163 109 -90 45 -171 81 -180 81 -10 0 -20 -7 -23 -15z"/>
<path d="M5317 1100 c-39 -31 -70 -122 -65 -194 4 -51 9 -63 36 -87 74 -66
168 -20 192 95 16 76 5 152 -26 183 -30 30 -100 32 -137 3z"/>
</g>
</svg>
