<?xml version="1.0" standalone="no"?>
<!DOCTYPE svg PUBLIC "-//W3C//DTD SVG 20010904//EN"
 "http://www.w3.org/TR/2001/REC-SVG-20010904/DTD/svg10.dtd">
<svg version="1.0" xmlns="http://www.w3.org/2000/svg"
 width="600.000000pt" height="600.000000pt" viewBox="0 0 600.000000 600.000000"
 preserveAspectRatio="xMidYMid meet">
<metadata>
Created by potrace 1.15, written by Peter Selinger 2001-2017
</metadata>
<g transform="translate(0.000000,600.000000) scale(0.100000,-0.100000)"
fill="#16364b" stroke="none">
<path d="M2249 5797 c-133 -67 -653 -498 -734 -609 -74 -100 -84 -192 -28
-272 55 -80 159 -102 336 -72 127 22 223 54 402 135 83 38 195 85 250 105 143
53 143 52 165 88 26 43 26 113 0 156 -21 34 -87 71 -125 72 -24 0 -200 -58
-359 -119 -60 -23 -110 -40 -113 -37 -8 8 144 131 269 219 160 111 163 114
163 191 0 74 -27 119 -89 147 -54 24 -83 24 -137 -4z"/>
<path d="M3060 5672 c-44 -22 -80 -75 -80 -119 0 -83 61 -146 155 -158 190
-26 344 -105 390 -202 23 -47 22 -151 0 -218 -36 -107 -119 -181 -316 -284
-103 -54 -122 -68 -139 -101 -26 -50 -25 -93 1 -146 24 -52 76 -87 127 -87 48
0 190 72 305 154 220 157 334 348 344 579 6 122 -13 196 -74 287 -83 125 -308
253 -525 298 -91 20 -145 19 -188 -3z"/>
<path d="M912 5315 c-104 -52 -200 -135 -252 -215 -40 -62 -70 -157 -70 -218
1 -187 142 -421 315 -522 89 -52 205 -33 248 40 23 39 22 115 -2 154 -11 17
-41 47 -66 66 -26 19 -69 64 -95 99 -112 149 -87 244 87 333 56 28 72 42 91
79 52 99 -8 214 -119 226 -38 4 -58 -2 -137 -42z"/>
<path d="M2680 4973 c-75 -29 -180 -137 -230 -238 -106 -214 -86 -383 61 -527
97 -95 284 -174 364 -154 16 4 46 24 67 45 33 34 38 45 38 85 0 91 -41 142
-134 170 -106 32 -176 96 -176 162 0 44 50 116 114 163 65 49 90 89 90 151 0
87 -59 151 -139 149 -22 0 -47 -3 -55 -6z"/>
<path d="M4794 4953 c-35 -7 -102 -79 -114 -122 -12 -45 2 -205 26 -297 37
-141 132 -276 229 -321 56 -26 125 -30 187 -11 53 16 133 89 166 152 23 43 27
64 27 136 0 72 -4 94 -27 142 -50 108 -161 202 -338 287 -79 39 -105 44 -156
34z"/>
<path d="M1870 4413 c-99 -16 -203 -74 -282 -155 -66 -68 -81 -100 -76 -163 6
-77 49 -124 126 -138 46 -9 95 14 140 64 72 80 146 98 223 54 88 -50 179 -25
227 63 29 52 32 128 5 172 -41 71 -232 125 -363 103z"/>
<path d="M2529 3831 c-86 -12 -130 -50 -144 -124 -10 -51 25 -120 77 -155 36
-23 53 -27 172 -34 72 -4 149 -14 171 -22 34 -12 40 -17 38 -41 -3 -39 -58
-151 -105 -215 -23 -30 -124 -138 -224 -240 -184 -186 -214 -227 -214 -290 0
-44 23 -93 56 -119 25 -20 38 -22 92 -19 74 5 67 -2 325 278 247 268 318 370
362 524 59 203 -63 389 -288 441 -79 18 -243 26 -318 16z"/>
<path d="M4240 3786 c-187 -40 -287 -119 -319 -253 -17 -70 -7 -143 29 -219
37 -77 89 -130 158 -161 109 -51 256 -17 363 84 62 58 97 107 148 210 91 184
98 215 58 273 -42 63 -74 74 -231 77 -91 1 -164 -3 -206 -11z m27 -332 c-31
-27 -57 -31 -57 -10 0 14 70 48 80 39 3 -3 -8 -16 -23 -29z"/>
<path d="M1155 3735 c-99 -21 -270 -102 -310 -146 -86 -96 -69 -251 35 -306
46 -24 110 -30 154 -13 14 5 26 8 26 6 0 -3 -40 -86 -90 -187 -163 -332 -266
-640 -258 -775 5 -76 40 -134 98 -164 56 -28 162 -28 210 1 19 12 136 124 260
248 124 125 282 278 353 340 149 131 146 134 91 -76 -20 -76 -61 -244 -90
-373 -57 -248 -100 -397 -140 -487 -30 -69 -31 -134 -4 -179 22 -35 91 -74
131 -74 36 1 103 34 126 64 30 38 78 175 129 371 25 94 77 292 116 440 39 149
79 299 89 334 38 128 18 349 -38 440 -56 89 -168 116 -270 66 -52 -26 -114
-78 -319 -268 -64 -59 -118 -107 -120 -105 -1 2 27 62 63 133 131 257 161 400
112 531 -31 81 -106 157 -178 178 -64 19 -95 19 -176 1z"/>
<path d="M3565 3361 c-92 -24 -185 -103 -230 -194 -36 -74 -60 -207 -45 -252
28 -84 98 -129 201 -128 173 1 322 80 380 202 28 57 30 158 5 214 -22 51 -81
114 -130 139 -43 22 -134 32 -181 19z"/>
<path d="M4819 2735 c-47 -26 -203 -254 -245 -357 -21 -53 -28 -57 -44 -29 -5
11 -34 31 -64 46 -102 50 -214 30 -286 -52 -61 -70 -68 -121 -36 -257 15 -60
24 -111 22 -113 -2 -2 -53 12 -112 33 -96 33 -121 37 -209 38 -94 1 -105 -1
-167 -32 -107 -52 -167 -142 -183 -272 -12 -99 54 -550 91 -621 23 -46 83 -97
132 -113 154 -53 301 44 302 199 0 28 -6 88 -14 135 -20 117 -26 190 -18 190
4 0 34 -16 67 -35 109 -64 123 -68 205 -62 211 17 333 112 370 292 12 57 9
196 -6 287 l-6 36 43 -14 c55 -19 123 -11 187 23 147 78 230 207 252 394 13
113 4 139 -79 222 -67 67 -72 70 -123 74 -34 2 -62 -2 -79 -12z"/>
<path d="M2937 2389 c-124 -17 -401 -119 -542 -199 -89 -51 -135 -119 -135
-201 0 -25 -4 -27 -53 -33 -104 -13 -230 -97 -263 -174 -27 -66 -12 -165 34
-215 27 -30 88 -57 127 -57 27 0 38 -5 45 -22 14 -36 63 -218 59 -221 -2 -1
-26 -13 -54 -27 -70 -35 -131 -100 -167 -177 -27 -57 -32 -81 -36 -168 -4 -87
-1 -112 18 -169 49 -148 209 -326 365 -408 200 -103 369 -140 546 -119 112 14
172 32 276 84 98 50 127 93 124 190 -1 57 -38 134 -79 164 -39 29 -99 46 -134
39 -17 -3 -66 -22 -109 -41 -43 -20 -102 -41 -131 -47 -49 -10 -60 -8 -148 22
-115 39 -212 101 -278 178 -75 88 -89 122 -49 122 25 0 52 -17 114 -70 66 -57
164 -77 236 -46 45 19 114 97 126 144 11 40 6 90 -11 127 -6 11 -45 54 -88 95
-91 89 -122 145 -175 315 -20 66 -50 162 -66 214 -34 110 -34 111 -11 111 10
0 58 23 107 52 50 28 122 66 160 84 76 35 213 79 221 71 5 -5 -157 -439 -182
-488 -7 -15 -18 -49 -24 -75 -40 -177 145 -308 288 -204 48 34 94 126 189 374
129 338 150 492 88 619 -16 32 -43 70 -60 84 -76 65 -192 91 -328 72z"/>
</g>
</svg>
