<?xml version="1.0" standalone="no"?>
<!DOCTYPE svg PUBLIC "-//W3C//DTD SVG 20010904//EN"
 "http://www.w3.org/TR/2001/REC-SVG-20010904/DTD/svg10.dtd">
<svg version="1.0" xmlns="http://www.w3.org/2000/svg"
 width="600.000000pt" height="600.000000pt" viewBox="0 0 600.000000 600.000000"
 preserveAspectRatio="xMidYMid meet">
<metadata>
Created by potrace 1.15, written by Peter Selinger 2001-2017
</metadata>
<g transform="translate(0.000000,600.000000) scale(0.100000,-0.100000)"
fill="#16364b" stroke="none">
<path d="M1523 5770 c-44 -26 -203 -150 -282 -219 -79 -68 -101 -103 -101
-159 0 -35 6 -49 29 -73 19 -18 40 -29 57 -29 16 0 127 27 249 60 121 32 239
64 263 70 70 18 100 86 66 151 -15 31 -71 62 -96 55 -7 -3 -25 -7 -40 -10
l-27 -6 20 35 c56 94 -43 183 -138 125z"/>
<path d="M2364 5421 c-40 -24 -58 -75 -49 -139 9 -71 -12 -418 -31 -487 -32
-124 -104 -203 -240 -266 -69 -32 -87 -45 -101 -73 -18 -40 -12 -77 18 -105
42 -39 85 -33 210 29 219 111 307 238 328 479 9 94 16 372 12 489 -2 81 -75
117 -147 73z"/>
<path d="M3530 5337 c-28 -14 -70 -82 -70 -114 0 -39 39 -128 80 -183 132
-177 322 -199 338 -40 4 45 0 61 -34 128 -53 104 -131 182 -205 205 -66 20
-76 21 -109 4z"/>
<path d="M2964 5132 c-83 -39 -156 -155 -162 -259 -6 -86 4 -128 39 -168 64
-72 161 -66 276 19 54 39 61 49 81 110 41 124 22 236 -49 286 -45 33 -129 38
-185 12z"/>
<path d="M4790 4772 c-19 -9 -41 -30 -49 -46 -18 -39 -34 -243 -26 -339 19
-229 129 -377 272 -365 134 11 223 181 183 349 -37 156 -168 346 -278 403 -40
20 -59 20 -102 -2z"/>
<path d="M2656 4215 c-125 -48 -178 -169 -125 -285 39 -88 114 -139 230 -161
115 -21 241 22 351 121 64 57 85 104 74 164 -8 43 -64 103 -104 112 -15 3 -63
17 -107 31 -102 32 -260 41 -319 18z"/>
<path d="M1086 4091 c-37 -25 -55 -57 -56 -99 0 -67 40 -110 120 -127 69 -15
142 -47 131 -58 -13 -13 -124 -14 -218 -3 l-72 9 -36 -36 c-32 -32 -35 -40
-35 -91 0 -76 31 -112 115 -132 266 -62 525 66 525 261 0 68 -24 119 -82 174
-99 96 -316 152 -392 102z"/>
<path d="M4221 3779 c-69 -12 -164 -63 -202 -108 -55 -66 -74 -118 -73 -201 1
-102 30 -175 97 -244 89 -91 206 -110 329 -53 145 66 222 200 223 387 0 80 -3
99 -20 122 -28 39 -110 77 -201 93 -89 16 -80 16 -153 4z m57 -321 c-17 -26
-58 -37 -58 -16 0 21 21 38 48 38 23 0 24 -1 10 -22z"/>
<path d="M5194 3742 c-64 -22 -146 -75 -180 -114 -56 -67 -78 -127 -79 -213 0
-71 4 -88 33 -147 59 -119 150 -178 277 -178 91 0 171 28 227 78 60 54 81 103
86 200 8 150 -35 251 -151 351 -45 38 -53 41 -105 41 -31 -1 -80 -9 -108 -18z
m86 -304 c0 -14 -30 -48 -42 -48 -15 0 -8 49 9 59 19 10 33 6 33 -11z"/>
<path d="M1629 3691 c-35 -36 -37 -67 -9 -201 24 -115 70 -214 113 -241 44
-28 113 -21 144 15 62 73 29 237 -75 376 -67 88 -120 103 -173 51z"/>
<path d="M3444 3366 c-41 -18 -71 -59 -133 -183 -67 -134 -68 -187 -4 -221 32
-18 62 -15 118 12 96 44 175 163 175 264 0 66 -19 105 -64 126 -41 19 -51 19
-92 2z"/>
<path d="M2041 3059 c-224 -29 -535 -120 -670 -196 -147 -84 -252 -206 -309
-365 -24 -65 -27 -86 -26 -198 1 -140 15 -197 82 -324 52 -99 129 -177 262
-265 149 -99 226 -171 297 -283 113 -176 189 -252 322 -322 190 -100 444 -103
704 -10 106 37 171 56 342 94 119 27 254 74 351 123 74 37 329 189 401 238
169 116 330 342 377 525 21 81 21 207 0 270 -24 71 -113 204 -186 277 -117
117 -229 169 -466 218 -229 47 -303 59 -424 68 -112 9 -195 28 -456 105 -67
19 -150 40 -185 46 -72 12 -323 11 -416 -1z m387 -394 c23 -3 116 -29 206 -59
217 -72 395 -106 553 -106 91 0 406 -56 456 -81 49 -24 122 -92 143 -131 25
-47 17 -99 -28 -189 -53 -107 -145 -200 -292 -297 -211 -139 -399 -220 -596
-257 -52 -9 -152 -39 -222 -67 -338 -131 -458 -103 -631 147 -122 177 -235
289 -417 417 -115 80 -145 110 -165 167 -41 118 5 251 113 320 54 34 164 64
387 106 209 39 334 47 493 30z"/>
<path d="M422 2165 c-50 -42 -49 -62 12 -200 102 -232 190 -354 291 -401 65
-31 136 -32 195 -1 129 65 107 242 -49 398 -81 80 -135 118 -262 180 -111 56
-145 60 -187 24z"/>
<path d="M4800 1643 c-8 -3 -27 -15 -43 -25 -24 -17 -32 -18 -63 -8 -97 32
-184 -45 -184 -164 0 -68 28 -212 51 -261 41 -88 116 -127 199 -105 106 29
176 153 201 358 10 89 10 102 -6 136 -26 55 -102 89 -155 69z"/>
</g>
</svg>
