<?xml version="1.0" standalone="no"?>
<!DOCTYPE svg PUBLIC "-//W3C//DTD SVG 20010904//EN"
 "http://www.w3.org/TR/2001/REC-SVG-20010904/DTD/svg10.dtd">
<svg version="1.0" xmlns="http://www.w3.org/2000/svg"
 width="600.000000pt" height="600.000000pt" viewBox="0 0 600.000000 600.000000"
 preserveAspectRatio="xMidYMid meet">
<metadata>
Created by potrace 1.15, written by Peter Selinger 2001-2017
</metadata>
<g transform="translate(0.000000,600.000000) scale(0.100000,-0.100000)"
fill="#16364b" stroke="none">
<path d="M1670 5823 c-23 -8 -60 -45 -75 -73 -17 -34 -81 -306 -96 -409 -25
-175 6 -355 73 -420 117 -114 247 -68 424 153 150 186 264 375 264 435 0 77
-67 151 -136 151 -69 0 -100 -26 -191 -162 -47 -70 -101 -145 -120 -165 l-34
-38 6 49 c4 26 22 105 41 173 40 148 43 197 11 244 -36 54 -112 82 -167 62z"/>
<path d="M3122 5573 c-40 -19 -62 -59 -62 -111 0 -53 22 -78 138 -158 180
-125 304 -238 364 -333 l20 -31 -55 0 c-66 0 -109 -29 -127 -86 -38 -113 69
-206 235 -207 83 0 133 21 186 80 100 111 65 280 -99 483 -117 145 -251 259
-396 340 -83 45 -145 52 -204 23z"/>
<path d="M932 5455 c-67 -19 -94 -33 -168 -89 -209 -157 -244 -436 -80 -639
113 -142 306 -100 306 67 0 46 -3 51 -60 106 -57 55 -60 60 -60 106 0 100 62
154 175 154 52 0 78 5 103 20 41 25 72 76 72 119 0 49 -36 117 -75 141 -45 28
-143 35 -213 15z"/>
<path d="M2924 5171 c-46 -21 -98 -78 -139 -153 -33 -61 -45 -172 -25 -232 16
-50 57 -95 105 -117 53 -24 152 -24 232 0 119 36 143 69 143 197 0 150 -38
244 -119 295 -55 35 -133 39 -197 10z"/>
<path d="M4740 4844 c-59 -37 -65 -56 -65 -214 1 -155 14 -228 60 -327 30 -67
97 -138 160 -171 42 -23 62 -27 130 -26 67 0 89 5 131 27 95 49 148 144 147
262 -2 164 -102 279 -364 419 -92 50 -152 59 -199 30z"/>
<path d="M2272 4815 c-19 -8 -82 -26 -140 -39 -212 -48 -272 -88 -272 -185 0
-119 98 -170 230 -120 30 11 104 32 165 45 125 28 173 54 200 110 58 122 -59
243 -183 189z"/>
<path d="M2850 4100 c-147 -27 -215 -102 -214 -237 0 -64 3 -77 30 -115 75
-108 245 -149 489 -118 105 13 265 53 303 76 68 40 92 141 50 216 -24 43 -87
78 -221 124 -146 50 -335 74 -437 54z"/>
<path d="M1041 4049 c-72 -15 -121 -81 -121 -164 0 -50 10 -76 44 -113 39 -43
76 -56 180 -62 71 -3 101 -9 104 -19 3 -8 -122 -138 -301 -315 -167 -166 -314
-317 -326 -336 -48 -79 -16 -202 64 -247 52 -29 100 -29 161 2 l49 25 43 -21
c63 -31 105 -22 210 45 49 31 94 56 99 56 5 0 16 -11 23 -25 8 -14 28 -35 46
-46 96 -59 137 -156 116 -271 -29 -156 -179 -362 -316 -435 -10 -6 -47 -8 -82
-5 -62 5 -64 4 -98 -30 -56 -56 -61 -147 -10 -207 61 -72 180 -79 309 -17 58
27 97 56 173 130 163 158 274 333 308 483 20 89 15 252 -10 329 -22 71 -88
169 -135 201 -22 16 -40 33 -40 38 0 6 33 25 74 44 l74 34 33 -36 c30 -31 87
-57 127 -57 8 0 34 9 58 21 64 31 83 74 83 192 0 159 -38 235 -135 267 -55 18
-94 6 -242 -76 -74 -41 -137 -74 -138 -72 -2 2 25 48 61 103 80 125 106 190
112 283 4 64 1 79 -23 128 -57 116 -191 170 -442 176 -56 2 -116 0 -132 -3z"/>
<path d="M4210 3775 c-114 -33 -204 -104 -252 -203 -59 -119 -41 -243 48 -342
60 -66 124 -95 214 -94 197 1 339 136 400 382 26 108 22 148 -20 196 -23 26
-45 37 -97 51 -98 24 -226 28 -293 10z m55 -325 c-10 -11 -27 -20 -38 -20 -17
0 -18 2 -6 16 14 17 51 35 58 28 2 -2 -4 -13 -14 -24z"/>
<path d="M3421 3383 c-45 -9 -116 -94 -171 -205 -59 -120 -61 -151 -13 -209
37 -44 80 -59 165 -59 145 0 222 77 244 245 18 147 -87 254 -225 228z"/>
<path d="M5009 3258 c-83 -43 -195 -154 -232 -231 -66 -137 -51 -277 41 -379
70 -78 153 -96 258 -57 79 30 188 138 235 234 31 63 34 78 34 155 0 101 -20
153 -87 226 -47 52 -106 83 -154 84 -17 0 -60 -15 -95 -32z"/>
<path d="M2109 2472 c-31 -11 -78 -34 -105 -52 -71 -49 -272 -257 -299 -310
-13 -25 -44 -72 -70 -105 -96 -123 -157 -266 -197 -467 -18 -92 -23 -147 -23
-293 0 -163 2 -186 24 -248 73 -214 332 -443 601 -533 75 -25 300 -25 418 0
89 19 200 54 248 79 105 54 287 244 377 394 100 165 194 407 216 553 20 135
30 313 21 392 -16 139 -86 239 -208 296 -52 25 -67 27 -172 26 -110 -1 -163
-11 -316 -59 -19 -6 -24 0 -39 47 -45 138 -117 218 -237 263 -96 35 -167 40
-239 17z m144 -455 c38 -107 69 -156 140 -224 93 -89 119 -94 250 -47 120 43
269 84 280 77 26 -16 -17 -293 -72 -454 -53 -157 -104 -250 -186 -337 -117
-124 -254 -182 -430 -182 -103 0 -154 15 -241 72 -88 57 -138 109 -172 178
-25 50 -27 65 -27 170 0 90 6 132 24 195 31 109 90 229 148 304 26 34 62 87
78 116 29 53 159 205 174 205 5 0 20 -33 34 -73z"/>
<path d="M3952 2459 c-53 -27 -93 -83 -99 -141 -3 -25 4 -79 16 -127 11 -47
19 -87 16 -89 -2 -2 -20 1 -40 8 -21 7 -61 10 -91 8 -96 -8 -169 -79 -199
-193 -22 -84 -8 -165 70 -400 34 -104 69 -210 76 -235 27 -94 129 -161 222
-146 79 13 168 81 183 140 5 22 12 24 83 28 98 6 158 38 202 106 61 97 62 175
3 414 -19 79 -53 226 -75 326 -22 101 -46 196 -54 212 -18 34 -69 79 -112 97
-51 21 -150 17 -201 -8z"/>
</g>
</svg>
