<?xml version="1.0" standalone="no"?>
<!DOCTYPE svg PUBLIC "-//W3C//DTD SVG 20010904//EN"
 "http://www.w3.org/TR/2001/REC-SVG-20010904/DTD/svg10.dtd">
<svg version="1.0" xmlns="http://www.w3.org/2000/svg"
 width="600.000000pt" height="600.000000pt" viewBox="0 0 600.000000 600.000000"
 preserveAspectRatio="xMidYMid meet">
<metadata>
Created by potrace 1.15, written by Peter Selinger 2001-2017
</metadata>
<g transform="translate(0.000000,600.000000) scale(0.100000,-0.100000)"
fill="#16364b" stroke="none">
<path d="M1538 5754 c-34 -18 -50 -48 -76 -144 -67 -245 -70 -449 -8 -568 9
-18 35 -46 58 -62 49 -36 111 -40 173 -11 57 25 150 131 259 296 157 234 177
286 136 352 -24 40 -50 54 -100 55 -65 1 -91 -24 -169 -161 -70 -123 -139
-226 -146 -219 -5 5 23 163 45 250 30 116 27 143 -19 189 -33 34 -45 39 -82
39 -24 -1 -56 -7 -71 -16z"/>
<path d="M825 5496 c-107 -34 -181 -98 -233 -203 -97 -193 -55 -382 107 -485
56 -35 105 -37 152 -5 41 27 60 77 48 122 -5 16 -31 51 -59 77 -45 42 -50 50
-50 90 0 62 44 129 98 151 39 16 44 16 96 -4 67 -26 113 -20 157 19 39 34 50
102 25 149 -41 80 -222 127 -341 89z"/>
<path d="M3329 5421 c-72 -72 -47 -137 79 -207 97 -53 96 -53 72 -80 -34 -35
-37 -93 -9 -149 32 -65 91 -130 147 -163 62 -36 165 -39 209 -6 96 72 90 213
-15 366 -62 90 -134 154 -263 232 -65 39 -84 46 -129 46 -47 0 -56 -4 -91 -39z"/>
<path d="M2315 5194 c-53 -26 -67 -58 -77 -165 -19 -233 -57 -293 -245 -387
-61 -32 -83 -65 -83 -127 0 -58 21 -95 70 -120 46 -24 74 -18 179 35 227 113
318 257 343 539 10 110 9 131 -5 163 -29 68 -113 97 -182 62z"/>
<path d="M2990 5171 c-74 -24 -150 -91 -188 -168 -27 -52 -44 -138 -36 -182
19 -107 113 -179 222 -168 76 7 167 42 209 81 40 37 52 80 53 186 0 109 -44
196 -120 235 -37 19 -107 27 -140 16z"/>
<path d="M4774 4793 c-12 -2 -39 -19 -60 -37 l-39 -34 0 -133 c1 -155 15 -222
74 -344 68 -141 168 -213 280 -202 32 2 76 14 98 25 54 28 114 98 136 158 22
64 22 174 0 238 -34 95 -151 196 -340 293 -80 41 -100 46 -149 36z m226 -446
c0 -16 -18 3 -23 25 -6 22 -5 22 8 4 8 -11 15 -24 15 -29z"/>
<path d="M2734 4169 c-63 -15 -145 -69 -178 -119 -40 -59 -48 -148 -18 -206
48 -95 166 -167 292 -181 175 -18 455 126 490 252 10 35 10 55 2 83 -19 63
-58 90 -184 128 -169 52 -302 66 -404 43z"/>
<path d="M1075 4080 c-48 -10 -82 -38 -105 -84 -23 -50 -25 -84 -6 -130 27
-66 64 -82 245 -110 58 -9 107 -18 109 -21 9 -9 -42 -57 -103 -97 -33 -22
-144 -82 -246 -133 -196 -99 -244 -136 -255 -192 -21 -109 44 -193 149 -193
34 0 214 83 355 164 74 42 82 43 82 15 0 -49 57 -115 113 -130 48 -13 78 -3
141 45 55 42 66 44 92 15 28 -31 85 -57 141 -65 208 -27 306 235 136 360 -67
50 -136 69 -239 64 -54 -2 -82 1 -80 7 44 99 44 194 0 276 -35 63 -70 93 -159
135 -98 47 -305 88 -370 74z"/>
<path d="M4195 3776 c-127 -40 -218 -127 -250 -239 -38 -132 36 -278 173 -339
34 -15 69 -21 127 -22 68 -1 88 3 136 27 105 51 189 163 224 296 43 167 4 243
-144 277 -70 17 -213 17 -266 0z m62 -302 c-29 -25 -50 -24 -41 1 6 14 55 36
64 28 3 -3 -8 -16 -23 -29z"/>
<path d="M5135 3456 c-120 -38 -223 -120 -275 -218 -31 -57 -34 -71 -34 -148
-1 -100 19 -153 83 -223 85 -92 214 -112 335 -53 167 82 249 313 168 472 -35
68 -110 151 -153 168 -46 19 -70 19 -124 2z"/>
<path d="M3404 3361 c-47 -29 -86 -82 -142 -195 -55 -110 -62 -148 -37 -196
46 -88 200 -72 302 30 95 96 131 235 80 311 -43 65 -139 89 -203 50z"/>
<path d="M2370 3076 c-133 -28 -182 -87 -310 -371 -42 -93 -67 -124 -158 -194
-118 -91 -369 -353 -418 -436 -49 -85 -96 -197 -120 -290 -26 -97 -25 -330 1
-430 60 -235 209 -408 463 -538 233 -120 480 -144 682 -66 185 71 392 249 523
449 181 277 246 480 233 730 -12 244 -41 391 -103 519 -36 76 -60 109 -126
177 -45 46 -104 114 -132 151 -68 92 -169 197 -224 232 -93 60 -219 87 -311
67z m177 -458 c28 -35 60 -81 71 -104 20 -39 40 -59 152 -153 93 -78 127 -200
117 -416 -6 -122 -23 -202 -70 -332 -66 -183 -139 -293 -252 -386 -176 -144
-368 -166 -574 -64 -220 107 -311 299 -252 528 24 93 51 156 97 225 72 108
132 164 322 298 80 56 172 152 214 221 20 33 53 102 73 153 20 50 40 92 44 92
4 0 30 -28 58 -62z"/>
<path d="M749 2603 c-37 -23 -59 -64 -59 -112 0 -66 18 -89 120 -157 125 -81
231 -192 255 -264 31 -94 -2 -170 -74 -170 -51 0 -133 87 -192 204 -58 117
-108 151 -183 126 -78 -26 -98 -106 -50 -203 79 -157 219 -318 313 -360 26
-11 77 -22 117 -25 61 -4 80 -1 127 21 180 82 262 300 187 499 -52 139 -199
295 -390 413 -81 49 -125 57 -171 28z"/>
<path d="M4210 2205 c-63 -29 -110 -87 -110 -138 0 -33 -6 -36 -47 -25 -57 16
-115 2 -161 -38 -52 -44 -67 -92 -53 -167 57 -294 84 -405 107 -440 26 -39 89
-76 131 -77 12 0 39 -11 59 -25 46 -31 90 -39 141 -26 89 24 152 93 178 196
28 108 13 589 -20 659 -36 76 -147 116 -225 81z"/>
</g>
</svg>
