<?xml version="1.0" standalone="no"?>
<!DOCTYPE svg PUBLIC "-//W3C//DTD SVG 20010904//EN"
 "http://www.w3.org/TR/2001/REC-SVG-20010904/DTD/svg10.dtd">
<svg version="1.0" xmlns="http://www.w3.org/2000/svg"
 width="600.000000pt" height="600.000000pt" viewBox="0 0 600.000000 600.000000"
 preserveAspectRatio="xMidYMid meet">
<metadata>
Created by potrace 1.15, written by Peter Selinger 2001-2017
</metadata>
<g transform="translate(0.000000,600.000000) scale(0.100000,-0.100000)"
fill="#16364b" stroke="none">
<path d="M2155 5835 c-22 -8 -60 -36 -85 -62 -25 -26 -135 -142 -246 -258
-282 -296 -327 -362 -327 -475 0 -63 19 -106 63 -143 63 -53 155 -48 328 17
508 192 625 244 655 290 55 83 32 186 -53 244 -53 36 -89 29 -253 -49 -82 -38
-151 -69 -153 -67 -1 2 12 19 29 38 18 19 73 78 121 130 49 52 95 109 102 127
53 125 -58 252 -181 208z"/>
<path d="M3037 5678 c-53 -31 -82 -93 -67 -147 6 -22 22 -53 36 -70 24 -29 39
-35 179 -76 144 -41 276 -138 324 -237 12 -26 27 -77 32 -113 24 -153 -43
-244 -235 -321 -38 -15 -77 -39 -91 -56 -65 -77 -46 -201 37 -244 43 -22 97
-14 183 26 279 131 409 323 392 578 -21 317 -233 553 -592 657 -106 31 -149
31 -198 3z"/>
<path d="M939 5356 c-240 -100 -383 -319 -349 -534 22 -137 85 -249 201 -355
76 -72 121 -97 169 -97 83 0 160 82 160 170 0 74 -16 106 -80 155 -119 91
-160 207 -105 292 20 30 77 65 145 89 69 24 120 73 121 117 3 87 -18 130 -79
165 -51 28 -111 28 -183 -2z"/>
<path d="M2759 4977 c-186 -52 -307 -263 -254 -442 45 -156 169 -253 368 -286
66 -11 84 -11 119 1 53 19 80 56 85 117 9 96 -61 174 -167 186 -97 12 -141 59
-109 116 12 21 24 27 64 31 58 7 86 20 114 56 48 61 31 164 -34 204 -43 27
-125 34 -186 17z"/>
<path d="M4747 4919 c-30 -19 -53 -46 -67 -74 -20 -42 -21 -50 -11 -152 26
-251 99 -404 230 -481 40 -23 57 -27 126 -27 70 0 87 4 133 30 161 89 214 255
133 420 -58 118 -185 220 -355 285 -98 38 -131 38 -189 -1z"/>
<path d="M1905 4560 c-108 -22 -260 -124 -301 -202 -38 -73 -2 -168 79 -207
74 -36 124 -26 221 44 69 50 107 48 143 -6 63 -95 164 -92 239 7 25 33 29 46
29 104 0 58 -4 72 -30 110 -81 117 -237 179 -380 150z"/>
<path d="M2841 3920 c-48 -11 -83 -40 -109 -91 -28 -54 -24 -102 15 -169 26
-44 26 -46 15 -136 -14 -107 -58 -246 -113 -356 -45 -89 -48 -127 -16 -182 41
-73 146 -101 218 -60 59 33 160 270 205 479 22 103 22 291 1 358 -37 115 -123
178 -216 157z"/>
<path d="M1171 3839 c-58 -11 -197 -57 -241 -79 -100 -51 -137 -157 -89 -257
39 -80 141 -135 220 -118 29 7 31 6 24 -16 -21 -66 -74 -165 -180 -334 -65
-104 -131 -216 -146 -250 -38 -85 -99 -300 -99 -352 0 -108 77 -184 187 -183
101 1 164 44 392 266 135 130 479 434 503 443 22 8 -29 -253 -88 -448 -52
-172 -148 -408 -236 -580 -43 -86 -78 -167 -78 -183 0 -111 124 -182 227 -129
51 25 65 46 137 189 176 352 270 619 342 977 22 110 25 147 21 245 -6 139 -26
207 -75 262 -45 49 -85 68 -149 68 -87 0 -167 -50 -383 -239 -63 -55 -118
-101 -122 -101 -4 0 19 44 51 98 148 252 190 414 141 547 -55 145 -185 208
-359 174z"/>
<path d="M4215 3792 c-129 -39 -224 -113 -272 -210 -70 -144 -8 -326 139 -408
48 -26 62 -29 143 -29 79 0 96 4 144 29 71 37 153 115 197 188 47 78 114 245
114 286 0 54 -28 100 -79 130 -43 25 -54 27 -186 29 -111 2 -152 -1 -200 -15z
m45 -327 c-23 -25 -60 -34 -60 -15 0 11 49 39 69 40 10 0 7 -8 -9 -25z"/>
<path d="M3498 3360 c-104 -31 -198 -149 -243 -305 -20 -71 -15 -115 19 -160
39 -51 98 -69 204 -62 206 13 342 128 342 290 0 68 -16 110 -61 162 -62 70
-172 102 -261 75z"/>
<path d="M4914 2873 c-55 -11 -242 -216 -299 -327 -29 -57 -37 -87 -42 -148
-5 -69 -3 -82 20 -130 59 -119 183 -148 320 -76 197 104 304 328 246 513 -13
41 -127 153 -170 165 -35 10 -38 10 -75 3z"/>
<path d="M4147 2506 c-98 -36 -149 -94 -168 -187 -9 -47 -7 -70 19 -184 16
-71 26 -131 22 -133 -3 -1 -42 14 -86 35 -72 34 -86 37 -169 38 -81 0 -95 -3
-143 -29 -151 -84 -198 -264 -151 -581 12 -82 51 -216 83 -289 83 -187 351
-224 443 -61 34 60 30 122 -17 261 -21 65 -37 120 -35 122 5 5 63 -26 71 -39
14 -24 109 -59 160 -59 54 0 175 37 227 69 118 73 176 224 148 387 -7 38 -37
172 -68 298 -47 193 -61 235 -88 270 -58 77 -166 113 -248 82z"/>
<path d="M2872 2250 c-121 -32 -336 -136 -518 -250 -19 -11 -25 -10 -50 7 -71
50 -163 54 -246 12 -65 -33 -201 -175 -216 -225 -17 -57 -15 -92 7 -140 27
-60 79 -95 149 -103 l57 -6 12 -60 c7 -33 11 -65 9 -71 -2 -5 -21 -15 -42 -22
-90 -27 -188 -131 -225 -238 -26 -75 -36 -214 -20 -296 53 -275 353 -544 705
-632 95 -24 250 -23 339 3 167 49 335 160 366 244 18 47 13 118 -13 172 -27
58 -47 78 -99 100 -74 31 -137 15 -237 -59 -111 -82 -155 -101 -235 -100 -91
1 -185 36 -268 99 -77 59 -122 116 -154 197 -27 67 -27 128 0 156 13 13 20 12
61 -9 26 -12 71 -46 101 -75 73 -68 114 -88 176 -82 69 7 125 47 155 111 44
96 29 153 -65 245 -79 78 -114 139 -141 254 -27 114 -26 144 4 152 13 3 65 33
115 66 153 100 349 189 395 178 29 -6 -72 -259 -191 -481 -55 -103 -66 -140
-59 -191 19 -126 148 -198 271 -152 76 29 101 69 225 361 89 208 107 260 126
353 18 93 18 152 -1 221 -34 130 -108 223 -203 256 -76 26 -204 29 -290 5z"/>
</g>
</svg>
