<?xml version="1.0" standalone="no"?>
<!DOCTYPE svg PUBLIC "-//W3C//DTD SVG 20010904//EN"
 "http://www.w3.org/TR/2001/REC-SVG-20010904/DTD/svg10.dtd">
<svg version="1.0" xmlns="http://www.w3.org/2000/svg"
 width="600.000000pt" height="600.000000pt" viewBox="0 0 600.000000 600.000000"
 preserveAspectRatio="xMidYMid meet">
<metadata>
Created by potrace 1.15, written by Peter Selinger 2001-2017
</metadata>
<g transform="translate(0.000000,600.000000) scale(0.100000,-0.100000)"
fill="#16364b" stroke="none">
<path d="M2067 5835 c-21 -7 -48 -21 -59 -32 -12 -10 -87 -106 -168 -213 -80
-107 -175 -234 -211 -281 -126 -164 -158 -273 -109 -369 72 -141 226 -114 640
113 91 50 187 102 214 116 108 57 148 126 125 215 -19 77 -102 137 -167 121
-15 -3 -80 -38 -145 -76 -65 -39 -120 -69 -122 -67 -2 2 20 35 49 73 126 166
146 202 146 258 0 109 -92 177 -193 142z"/>
<path d="M3022 5669 c-23 -12 -49 -34 -57 -50 -32 -60 -9 -146 49 -184 13 -9
60 -29 103 -44 179 -63 297 -151 355 -263 33 -65 63 -203 54 -252 -13 -66 -83
-123 -193 -156 -23 -7 -57 -28 -75 -47 -30 -31 -33 -39 -33 -98 0 -54 4 -67
25 -90 61 -66 120 -69 257 -15 158 62 268 161 314 280 30 77 30 207 0 315 -81
295 -276 485 -616 599 -94 32 -127 32 -183 5z"/>
<path d="M947 5366 c-200 -83 -332 -225 -358 -387 -26 -160 85 -381 253 -504
52 -39 67 -45 110 -45 65 0 110 27 137 84 41 83 20 147 -75 231 -75 66 -107
122 -106 184 1 72 57 127 158 157 29 8 64 24 78 35 82 65 72 191 -19 244 -53
32 -103 32 -178 1z"/>
<path d="M2735 4966 c-106 -49 -175 -158 -183 -287 -6 -109 15 -168 87 -240
76 -75 143 -101 267 -101 53 -1 100 4 115 12 117 60 126 199 17 256 -17 9 -53
13 -102 11 -47 -1 -79 2 -87 10 -20 20 0 33 40 27 48 -8 110 22 143 68 35 50
33 132 -6 182 -62 81 -191 109 -291 62z"/>
<path d="M4757 4905 c-52 -36 -67 -71 -67 -157 0 -86 23 -253 45 -321 34 -111
96 -191 187 -239 35 -18 59 -23 128 -23 74 0 91 3 131 27 93 55 134 142 127
269 -4 67 -11 91 -46 163 -56 112 -137 187 -275 256 -119 60 -170 65 -230 25z"/>
<path d="M1862 4585 c-193 -54 -276 -201 -176 -309 68 -72 145 -73 243 -1 49
36 76 33 105 -12 48 -77 109 -107 180 -89 61 15 126 100 126 163 -1 78 -83
177 -188 226 -55 26 -81 32 -152 34 -53 2 -105 -3 -138 -12z"/>
<path d="M2981 3939 c-121 -23 -229 -144 -260 -287 -15 -71 -13 -222 3 -298
17 -81 65 -181 105 -221 55 -55 144 -56 206 -2 63 56 70 137 19 211 -23 32
-28 53 -32 116 -5 101 12 153 53 165 95 28 137 73 142 152 5 67 -20 113 -78
142 -55 27 -101 33 -158 22z"/>
<path d="M1200 3880 c-79 -13 -228 -57 -279 -83 -128 -65 -118 -273 16 -338
34 -17 57 -20 103 -17 32 2 57 1 54 -3 -2 -4 -39 -54 -82 -111 -88 -116 -171
-262 -262 -459 -117 -252 -142 -365 -101 -456 36 -77 141 -121 227 -93 69 23
275 181 494 381 141 128 351 302 357 295 32 -32 -182 -706 -303 -951 -35 -71
-80 -159 -100 -195 -30 -55 -35 -71 -29 -105 8 -50 27 -81 68 -105 57 -35 147
-21 194 31 67 74 229 422 321 690 117 341 190 727 163 862 -26 123 -101 184
-216 175 -84 -7 -148 -43 -328 -183 -80 -62 -151 -116 -158 -121 -16 -10 -8 4
63 102 149 207 205 334 196 448 -15 180 -171 273 -398 236z"/>
<path d="M4221 3795 c-149 -42 -272 -160 -300 -287 -23 -100 31 -224 123 -288
25 -17 75 -38 111 -47 57 -14 76 -14 133 -4 85 16 173 62 221 118 67 75 161
283 161 354 0 39 -22 89 -48 113 -51 45 -297 70 -401 41z m26 -320 c-31 -28
-47 -32 -47 -12 0 15 35 35 60 36 10 0 5 -8 -13 -24z"/>
<path d="M3466 3390 c-45 -14 -101 -57 -133 -103 -37 -52 -81 -162 -95 -237
-10 -52 -9 -62 11 -104 36 -73 85 -96 204 -98 80 -1 102 3 149 24 117 54 178
143 179 260 1 146 -93 255 -228 264 -32 2 -71 -1 -87 -6z"/>
<path d="M4915 2926 c-38 -17 -183 -171 -236 -251 -111 -168 -99 -360 26 -433
59 -34 168 -28 247 12 157 79 250 254 235 437 -7 82 -22 113 -87 179 -70 71
-118 85 -185 56z"/>
<path d="M4081 2527 c-50 -19 -106 -71 -130 -120 -32 -66 -28 -141 15 -270 20
-60 34 -110 32 -112 -2 -2 -40 8 -83 22 -110 36 -250 38 -311 6 -55 -29 -119
-103 -138 -160 -21 -60 -21 -229 -1 -341 19 -109 91 -385 110 -422 84 -163
350 -155 420 12 22 53 19 114 -11 234 -15 57 -24 108 -20 111 3 4 21 -10 39
-29 67 -74 171 -88 289 -40 208 84 266 251 197 570 -35 159 -107 394 -137 441
-53 87 -179 133 -271 98z"/>
<path d="M2985 2189 c-73 -8 -127 -22 -225 -61 -90 -35 -253 -116 -331 -164
-31 -19 -61 -34 -66 -34 -5 0 -17 18 -26 39 -23 51 -95 117 -143 130 -95 27
-176 1 -259 -82 -77 -79 -134 -163 -146 -216 -26 -114 70 -231 190 -231 41 0
51 -11 51 -54 0 -17 -13 -27 -67 -51 -119 -51 -204 -161 -232 -298 -17 -79
-15 -271 3 -349 65 -279 333 -532 628 -592 101 -21 174 -20 278 4 221 49 474
195 516 297 33 77 5 178 -62 229 -33 26 -45 29 -110 29 -70 0 -75 -2 -131 -42
-143 -105 -242 -133 -381 -109 -145 25 -277 117 -343 238 -30 56 -34 71 -34
141 0 66 3 81 19 93 28 20 34 18 64 -18 115 -137 162 -168 254 -168 113 0 197
81 184 179 -7 52 -45 122 -79 144 -30 20 -82 118 -102 192 -20 79 -20 82 14
90 15 3 82 40 147 81 65 42 151 92 189 111 63 32 186 83 201 83 25 0 -66 -237
-184 -480 -98 -203 -99 -255 -10 -339 43 -41 87 -54 159 -49 77 6 120 39 177
139 91 160 217 497 248 668 27 146 4 250 -76 352 -61 76 -176 112 -315 98z"/>
</g>
</svg>
