<?xml version="1.0" standalone="no"?>
<!DOCTYPE svg PUBLIC "-//W3C//DTD SVG 20010904//EN"
 "http://www.w3.org/TR/2001/REC-SVG-20010904/DTD/svg10.dtd">
<svg version="1.0" xmlns="http://www.w3.org/2000/svg"
 width="600.000000pt" height="600.000000pt" viewBox="0 0 600.000000 600.000000"
 preserveAspectRatio="xMidYMid meet">
<metadata>
Created by potrace 1.15, written by Peter Selinger 2001-2017
</metadata>
<g transform="translate(0.000000,600.000000) scale(0.100000,-0.100000)"
fill="#16364b" stroke="none">
<path d="M1535 5762 c-33 -21 -177 -262 -222 -374 -54 -131 -31 -228 62 -263
83 -32 149 0 378 183 200 159 202 162 202 223 0 45 -4 54 -33 80 -25 22 -42
29 -75 29 -37 0 -53 -8 -124 -65 -46 -36 -85 -65 -88 -65 -3 0 10 29 30 63 19
35 35 76 35 91 0 42 -28 86 -65 102 -45 18 -64 18 -100 -4z"/>
<path d="M2384 5441 c-12 -5 -31 -22 -43 -37 -19 -25 -21 -38 -21 -188 0 -389
-74 -577 -265 -673 -38 -19 -78 -45 -87 -56 -22 -27 -23 -85 -2 -115 18 -26
64 -52 92 -52 44 0 181 76 248 137 152 138 245 415 243 724 0 150 -10 204 -41
236 -27 27 -89 39 -124 24z"/>
<path d="M3520 5347 c-43 -22 -71 -84 -67 -147 7 -117 108 -260 219 -310 126
-57 245 16 220 136 -13 58 -85 178 -142 235 -30 29 -67 54 -103 67 -82 31 -99
34 -127 19z"/>
<path d="M2985 5141 c-121 -55 -208 -228 -175 -347 14 -48 63 -99 106 -110 73
-19 225 30 260 83 27 42 57 181 51 236 -16 129 -125 192 -242 138z"/>
<path d="M4742 4755 c-52 -44 -63 -128 -42 -320 17 -145 52 -235 123 -312 107
-116 249 -122 351 -14 153 165 51 431 -238 619 -90 59 -147 67 -194 27z m258
-455 c0 -23 -28 22 -35 56 -6 28 -6 28 14 -6 11 -19 20 -42 21 -50z"/>
<path d="M2668 4236 c-94 -25 -162 -89 -192 -179 -32 -94 -10 -184 63 -257 80
-80 205 -102 332 -60 75 25 118 53 207 129 96 83 123 151 88 219 -24 47 -58
70 -151 103 -163 58 -254 70 -347 45z"/>
<path d="M1074 4086 c-50 -22 -84 -75 -84 -129 0 -38 6 -51 33 -81 18 -19 46
-38 63 -41 142 -32 194 -49 194 -65 0 -19 -131 -72 -255 -102 -147 -37 -169
-48 -195 -98 -38 -75 -15 -157 54 -193 34 -18 43 -18 99 -7 100 20 294 87 396
137 188 90 263 214 215 355 -33 100 -128 168 -284 207 -118 29 -198 35 -236
17z"/>
<path d="M4285 3774 c-11 -2 -45 -9 -75 -15 -169 -34 -283 -164 -283 -324 0
-247 288 -368 502 -211 98 72 164 208 177 364 5 70 4 80 -18 112 -17 25 -38
40 -75 52 -52 17 -190 31 -228 22z m-5 -281 c0 -12 -43 -53 -57 -53 -23 0 -14
29 15 44 30 17 42 19 42 9z"/>
<path d="M1740 3720 c-54 -17 -117 -48 -145 -73 -40 -33 -77 -109 -83 -166 -9
-105 87 -250 205 -307 132 -65 287 -14 349 115 64 132 -15 355 -149 420 -45
22 -128 27 -177 11z"/>
<path d="M5165 3602 c-119 -41 -218 -124 -263 -220 -36 -76 -38 -202 -6 -273
30 -63 79 -116 138 -147 44 -23 62 -27 136 -26 64 1 96 6 131 22 72 34 134 95
171 170 30 60 33 75 33 157 0 114 -20 162 -107 250 -89 90 -132 102 -233 67z
m45 -331 c-5 -11 -15 -23 -20 -26 -14 -9 -12 19 2 33 19 19 30 14 18 -7z"/>
<path d="M2655 3400 c-28 -4 -82 -20 -120 -37 -159 -66 -257 -161 -368 -357
-87 -152 -137 -200 -273 -261 -348 -155 -467 -295 -579 -684 -79 -276 -73
-395 31 -610 49 -100 66 -125 137 -196 126 -125 322 -245 478 -293 159 -49
369 -54 504 -12 156 49 286 135 470 311 155 150 270 299 326 424 29 66 89 301
100 390 25 221 -45 586 -154 800 -17 33 -34 84 -38 112 -9 63 -47 141 -111
226 -107 144 -251 211 -403 187z m92 -440 c6 -25 31 -88 56 -140 55 -118 85
-201 130 -355 66 -227 74 -333 32 -413 -14 -26 -25 -56 -25 -68 0 -32 -37
-131 -71 -193 -53 -94 -124 -183 -223 -279 -165 -160 -258 -206 -411 -206
-121 -1 -204 26 -320 102 -199 132 -264 246 -252 446 10 167 61 300 152 396
58 60 98 84 243 144 46 19 109 49 139 68 84 50 202 170 253 260 131 227 189
292 255 286 26 -3 31 -8 42 -48z"/>
<path d="M3443 3379 c-46 -13 -116 -98 -168 -201 -54 -107 -58 -151 -19 -197
46 -55 129 -58 219 -8 93 53 162 243 122 339 -25 60 -88 87 -154 67z"/>
<path d="M423 2289 c-46 -13 -83 -62 -83 -109 0 -47 39 -174 87 -284 100 -229
275 -402 428 -423 84 -11 177 46 204 126 41 123 -41 317 -192 458 -85 79 -128
108 -262 176 -129 64 -140 68 -182 56z m384 -517 c42 -60 37 -79 -8 -36 -34
31 -109 140 -109 158 0 16 77 -64 117 -122z"/>
<path d="M4420 1989 c-14 -6 -37 -22 -52 -36 l-27 -26 -31 27 c-67 56 -185 24
-225 -61 -28 -58 -19 -237 22 -418 40 -180 118 -269 234 -268 111 1 175 79
219 264 22 97 60 333 60 379 0 100 -108 175 -200 139z"/>
</g>
</svg>
