<?xml version="1.0" standalone="no"?>
<!DOCTYPE svg PUBLIC "-//W3C//DTD SVG 20010904//EN"
 "http://www.w3.org/TR/2001/REC-SVG-20010904/DTD/svg10.dtd">
<svg version="1.0" xmlns="http://www.w3.org/2000/svg"
 width="600.000000pt" height="600.000000pt" viewBox="0 0 600.000000 600.000000"
 preserveAspectRatio="xMidYMid meet">
<metadata>
Created by potrace 1.15, written by Peter Selinger 2001-2017
</metadata>
<g transform="translate(0.000000,600.000000) scale(0.100000,-0.100000)"
fill="#16364b" stroke="none">
<path d="M2964 5596 c-41 -18 -62 -47 -123 -168 -99 -198 -100 -316 -3 -420
46 -50 120 -70 282 -77 l145 -6 -70 -49 c-98 -69 -239 -193 -409 -359 l-146
-142 0 -48 c0 -56 19 -97 68 -149 52 -55 128 -79 391 -123 187 -31 301 -57
404 -91 87 -29 128 -27 171 7 40 32 59 76 53 125 -6 58 -37 97 -96 123 -60 25
-289 89 -456 126 -66 15 -121 28 -123 30 -5 4 73 76 148 136 36 29 149 108
251 175 103 68 199 138 214 156 110 131 48 285 -140 348 -74 25 -200 40 -337
40 -53 0 -99 4 -102 9 -3 4 15 50 39 100 52 106 57 151 22 202 -41 61 -116 84
-183 55z"/>
<path d="M1505 5316 c-83 -42 -155 -102 -250 -208 -103 -117 -188 -240 -249
-363 -120 -241 -124 -349 -16 -422 46 -32 79 -29 292 21 210 50 298 64 298 47
0 -11 -22 -61 -92 -211 -75 -159 -102 -233 -102 -280 -1 -35 -6 -49 -24 -63
-71 -58 -66 -187 9 -227 75 -40 108 -35 321 54 226 94 384 174 413 208 65 77
46 191 -38 232 -58 27 -104 21 -206 -30 -51 -25 -95 -43 -97 -41 -3 2 24 60
58 128 69 136 88 198 88 292 0 116 -67 211 -172 242 -69 20 -127 19 -271 -5
-65 -12 -123 -20 -128 -18 -10 4 117 183 189 266 29 33 84 81 122 107 38 25
77 56 85 69 59 90 -8 218 -123 233 -29 4 -52 -3 -107 -31z"/>
<path d="M4483 4545 c-64 -14 -204 -67 -308 -117 -72 -34 -106 -78 -112 -146
-4 -38 0 -54 19 -81 61 -90 112 -95 281 -27 65 26 132 49 148 53 29 5 29 5 18
-26 -6 -18 -78 -148 -159 -289 -80 -142 -149 -272 -153 -289 -11 -56 10 -104
77 -166 33 -32 75 -65 92 -73 18 -7 119 -23 225 -34 243 -25 259 -28 259 -48
0 -19 -103 -215 -204 -387 -42 -71 -79 -144 -82 -162 -18 -93 74 -183 172
-168 63 9 97 47 187 210 46 83 99 175 117 205 64 108 119 230 125 285 13 103
-40 198 -142 253 -73 38 -140 55 -322 81 -79 11 -146 23 -149 25 -2 3 43 87
101 188 181 316 217 407 202 508 -27 175 -173 252 -392 205z"/>
<path d="M3730 3667 c-53 -26 -80 -50 -100 -91 -22 -46 -26 -118 -9 -163 13
-34 55 -80 91 -99 35 -18 116 -17 148 1 14 8 28 14 33 15 17 0 5 -86 -19 -140
-25 -57 -26 -58 -80 -68 -71 -15 -179 -58 -229 -92 -101 -69 -172 -179 -162
-252 12 -90 81 -143 173 -136 50 4 58 9 118 67 79 75 124 96 241 111 111 15
149 32 183 83 21 32 26 50 24 96 -1 40 7 80 30 143 27 79 30 96 26 175 -5 105
-37 179 -107 250 -67 69 -157 107 -256 110 -47 1 -90 -3 -105 -10z"/>
<path d="M2545 3577 c-150 -16 -400 -119 -462 -190 -58 -66 -53 -159 12 -216
67 -59 132 -55 253 14 84 48 229 105 270 105 19 0 22 -5 22 -43 0 -48 -29
-173 -60 -255 -27 -72 -63 -140 -127 -245 -64 -102 -74 -149 -48 -207 15 -34
16 -43 4 -71 -34 -83 -4 -181 70 -234 62 -44 138 -41 243 8 153 72 338 126
338 99 0 -6 -25 -82 -55 -169 -31 -90 -55 -175 -55 -199 0 -62 43 -139 96
-170 24 -14 62 -28 84 -31 54 -8 124 20 155 61 28 37 125 291 156 406 20 77
26 192 13 245 -23 98 -104 188 -203 227 -81 32 -238 29 -376 -6 -55 -14 -101
-26 -102 -26 -1 0 20 44 46 98 124 246 163 511 96 648 -59 121 -185 172 -370
151z"/>
<path d="M1083 3310 c-103 -37 -255 -149 -279 -207 -42 -98 14 -236 109 -272
36 -14 98 -14 133 -1 15 6 29 9 31 6 3 -2 -13 -78 -36 -168 -51 -209 -60 -262
-67 -433 -7 -160 8 -339 32 -388 34 -68 109 -106 207 -107 124 0 118 -7 402
444 70 111 251 361 261 361 12 0 34 -82 34 -125 0 -25 -9 -99 -20 -165 -23
-136 -70 -609 -70 -700 0 -121 44 -194 131 -216 42 -11 50 -10 94 12 72 36 88
72 80 180 -8 106 6 268 47 544 37 250 42 440 15 545 -9 36 -21 93 -28 128 -35
188 -189 278 -342 201 -69 -36 -137 -116 -270 -318 -71 -106 -130 -191 -132
-189 -3 2 8 71 24 154 37 192 55 368 47 452 -12 124 -80 226 -180 267 -48 20
-159 18 -223 -5z"/>
<path d="M4700 2379 c-77 -23 -135 -92 -146 -173 l-7 -46 -58 0 c-85 0 -282
-27 -369 -51 -117 -32 -198 -76 -260 -138 -106 -106 -130 -202 -111 -429 7
-79 10 -146 8 -148 -2 -2 -30 19 -63 47 -114 97 -245 141 -358 120 -132 -24
-270 -105 -382 -223 -78 -83 -123 -161 -190 -334 -25 -65 -47 -121 -49 -123
-9 -8 -39 84 -80 244 -117 448 -120 459 -167 502 -59 55 -161 69 -219 30 -42
-28 -77 -79 -85 -125 -8 -40 -4 -58 49 -267 19 -77 45 -187 57 -245 54 -264
94 -371 169 -453 106 -114 302 -140 453 -60 57 31 125 126 167 233 45 117 90
209 138 282 45 67 142 168 163 168 26 0 90 -43 155 -105 135 -129 233 -174
351 -162 100 10 241 103 283 186 11 20 29 45 41 56 63 57 72 133 44 340 -12
88 -13 120 -5 128 8 8 86 14 229 18 119 4 240 12 267 19 126 32 214 101 262
207 22 47 27 75 31 172 5 131 -4 179 -46 237 -55 75 -184 119 -272 93z"/>
</g>
</svg>
