<?xml version="1.0" standalone="no"?>
<!DOCTYPE svg PUBLIC "-//W3C//DTD SVG 20010904//EN"
 "http://www.w3.org/TR/2001/REC-SVG-20010904/DTD/svg10.dtd">
<svg version="1.0" xmlns="http://www.w3.org/2000/svg"
 width="600.000000pt" height="600.000000pt" viewBox="0 0 600.000000 600.000000"
 preserveAspectRatio="xMidYMid meet">
<metadata>
Created by potrace 1.15, written by Peter Selinger 2001-2017
</metadata>
<g transform="translate(0.000000,600.000000) scale(0.100000,-0.100000)"
fill="#16364b" stroke="none">
<path d="M2958 5520 c-50 -27 -78 -76 -78 -136 0 -51 9 -70 61 -126 65 -72 87
-215 54 -354 -11 -47 -12 -71 -4 -100 22 -76 101 -119 178 -96 91 28 133 134
134 337 0 173 -30 277 -116 390 -74 99 -149 127 -229 85z"/>
<path d="M1992 5410 c-54 -33 -74 -75 -69 -145 8 -108 68 -192 189 -263 51
-29 89 -59 104 -82 20 -30 94 -252 94 -282 0 -27 36 -80 67 -99 69 -43 182
-18 211 46 7 14 12 43 12 63 0 55 -86 346 -123 416 -41 79 -107 142 -190 185
-49 24 -67 39 -67 53 0 35 -32 90 -64 109 -42 26 -121 25 -164 -1z"/>
<path d="M1468 4769 c-115 -17 -178 -77 -178 -171 0 -58 30 -105 83 -128 37
-17 59 -18 187 -13 162 6 292 -11 377 -49 65 -28 128 -28 181 2 117 66 124
198 14 254 -74 37 -213 83 -302 100 -88 17 -266 19 -362 5z"/>
<path d="M4343 4669 c-66 -33 -106 -115 -83 -173 5 -15 31 -54 55 -86 71 -92
121 -188 165 -317 48 -139 57 -155 103 -177 73 -34 156 -11 197 56 29 48 25
82 -25 235 -53 159 -123 293 -206 392 -79 93 -126 110 -206 70z"/>
<path d="M3153 4508 c-12 -6 -62 -58 -110 -117 -141 -169 -253 -273 -424 -389
-57 -39 -83 -89 -77 -147 13 -110 124 -158 227 -98 69 40 187 128 270 202 85
75 285 290 312 336 39 62 15 158 -51 203 -36 24 -107 29 -147 10z"/>
<path d="M1657 4320 c-91 -50 -101 -148 -24 -228 37 -38 92 -57 227 -77 157
-23 240 -27 330 -16 144 17 189 30 230 67 83 75 68 212 -27 259 -39 19 -68 19
-166 0 -86 -16 -260 -19 -347 -5 -131 22 -183 22 -223 0z"/>
<path d="M3790 3997 c-14 -8 -78 -57 -142 -110 -65 -52 -144 -114 -176 -136
-126 -85 -321 -176 -467 -217 -80 -22 -115 -58 -115 -116 0 -90 81 -163 179
-162 105 0 323 86 483 190 129 83 407 314 431 357 34 63 13 151 -45 187 -38
23 -110 27 -148 7z"/>
<path d="M2285 3794 c-27 -8 -102 -24 -165 -36 -113 -21 -138 -22 -422 -14
-64 1 -97 -17 -135 -74 -45 -66 -22 -167 48 -209 48 -29 182 -44 348 -38 124
4 166 10 282 40 167 43 204 60 235 107 36 54 40 98 16 154 -17 37 -30 51 -64
66 -50 23 -75 23 -143 4z"/>
<path d="M4992 3659 c-83 -42 -130 -130 -118 -226 26 -224 18 -298 -53 -446
-46 -95 -187 -313 -306 -472 -45 -60 -87 -125 -94 -144 -34 -103 15 -229 112
-285 90 -53 181 -42 252 28 55 56 215 265 317 416 145 214 198 325 244 507 24
97 26 119 21 237 -8 210 -43 301 -140 367 -43 29 -59 34 -121 37 -57 2 -79 -1
-114 -19z"/>
<path d="M4435 3145 c-5 -2 -23 -6 -39 -10 -16 -3 -62 -38 -105 -78 -220 -209
-461 -311 -820 -346 -111 -11 -135 -21 -175 -75 -15 -20 -21 -43 -21 -81 0
-60 19 -94 76 -134 32 -22 40 -23 144 -17 204 11 496 86 669 173 177 89 393
260 428 341 43 97 -13 201 -122 225 -14 3 -29 4 -35 2z"/>
<path d="M1985 3126 c-74 -33 -108 -104 -85 -178 34 -115 178 -166 605 -215
62 -7 104 14 133 65 44 81 35 160 -24 212 -45 39 -86 49 -246 60 -111 7 -153
14 -224 39 -98 34 -116 36 -159 17z"/>
<path d="M1434 2950 c-83 -19 -137 -84 -149 -175 -9 -66 12 -456 30 -570 17
-108 39 -173 93 -280 48 -96 151 -243 203 -290 81 -73 193 -71 268 4 76 76 76
177 0 268 -53 64 -115 190 -139 286 -25 99 -50 338 -50 476 0 135 -11 172 -64
226 -33 33 -55 45 -95 54 -57 12 -53 12 -97 1z"/>
<path d="M2082 2331 c-74 -47 -96 -152 -47 -217 35 -45 53 -54 163 -75 101
-20 151 -41 214 -92 35 -28 48 -32 99 -32 54 0 61 3 95 36 40 40 53 94 40 164
-20 107 -234 218 -446 231 -74 5 -89 3 -118 -15z"/>
<path d="M4125 2079 c-60 -16 -180 -51 -265 -78 -283 -90 -355 -109 -486 -126
-229 -29 -458 -67 -494 -82 -67 -27 -120 -101 -120 -168 0 -43 32 -107 69
-138 52 -43 100 -53 195 -39 44 7 171 24 281 37 367 45 448 65 768 190 64 25
157 55 205 66 99 22 154 58 178 115 38 90 -11 198 -108 239 -52 21 -96 18
-223 -16z"/>
<path d="M4833 1704 c-18 -9 -53 -40 -78 -69 -93 -109 -242 -198 -482 -286
-172 -64 -257 -88 -483 -138 -214 -48 -229 -53 -263 -89 -89 -93 -69 -254 37
-309 47 -24 109 -19 286 25 91 22 224 54 295 70 276 65 471 146 644 270 114
81 273 230 295 276 37 79 -1 196 -78 241 -50 30 -124 33 -173 9z"/>
<path d="M2100 1538 c-69 -19 -110 -78 -110 -156 0 -58 23 -97 108 -185 108
-111 236 -188 387 -232 130 -37 202 -42 252 -16 82 41 113 125 74 203 -29 59
-56 76 -162 98 -157 34 -254 90 -368 211 -43 47 -75 72 -100 79 -20 5 -38 10
-41 9 -3 0 -21 -5 -40 -11z"/>
<path d="M2051 948 c-50 -17 -107 -76 -120 -124 -25 -94 17 -174 133 -249 166
-109 323 -170 506 -200 141 -22 422 -20 548 4 198 39 252 85 252 218 0 70 -25
129 -69 166 -56 46 -95 47 -236 7 -69 -20 -103 -24 -245 -24 -141 0 -177 3
-249 22 -96 26 -200 72 -312 138 -84 49 -148 62 -208 42z"/>
</g>
</svg>
