<?xml version="1.0" standalone="no"?>
<!DOCTYPE svg PUBLIC "-//W3C//DTD SVG 20010904//EN"
 "http://www.w3.org/TR/2001/REC-SVG-20010904/DTD/svg10.dtd">
<svg version="1.0" xmlns="http://www.w3.org/2000/svg"
 width="600.000000pt" height="600.000000pt" viewBox="0 0 600.000000 600.000000"
 preserveAspectRatio="xMidYMid meet">
<metadata>
Created by potrace 1.15, written by Peter Selinger 2001-2017
</metadata>
<g transform="translate(0.000000,600.000000) scale(0.100000,-0.100000)"
fill="#16364b" stroke="none">
<path d="M1944 5826 c-35 -16 -52 -39 -181 -246 -242 -389 -264 -433 -271
-522 -4 -61 -2 -72 22 -108 77 -117 225 -105 438 37 489 327 465 309 483 358
41 105 -27 209 -135 209 -45 0 -59 -6 -152 -70 -57 -39 -109 -74 -117 -79 -16
-9 -19 -14 57 104 65 101 82 139 82 183 0 104 -125 178 -226 134z"/>
<path d="M3040 5709 c-75 -31 -113 -112 -86 -184 22 -56 44 -75 151 -131 180
-94 334 -212 400 -308 42 -62 85 -172 85 -220 0 -19 -9 -45 -22 -61 -24 -31
-90 -64 -127 -65 -13 0 -43 -11 -67 -25 -82 -48 -94 -153 -25 -219 79 -76 295
-24 420 101 77 78 103 144 103 268 -1 297 -248 607 -640 804 -88 44 -151 57
-192 40z"/>
<path d="M942 5375 c-199 -45 -358 -217 -370 -399 -8 -123 43 -257 137 -359
106 -114 187 -143 271 -96 50 28 70 66 70 129 0 47 -4 56 -37 89 -21 21 -48
44 -59 52 -34 22 -74 89 -74 121 0 75 52 123 164 152 102 27 146 75 146 161 0
126 -96 184 -248 150z"/>
<path d="M2810 5054 c-63 -22 -135 -96 -162 -164 -30 -78 -31 -207 -2 -270 30
-63 87 -116 147 -136 39 -13 72 -15 151 -11 125 7 171 20 213 62 28 28 33 40
33 83 0 36 -7 59 -25 86 -19 29 -23 41 -15 56 39 72 -42 230 -143 279 -59 29
-141 35 -197 15z"/>
<path d="M4790 4903 c-38 -15 -74 -50 -92 -90 -17 -39 -19 -58 -13 -141 21
-291 81 -424 222 -494 57 -28 78 -33 134 -32 170 1 300 145 285 314 -14 162
-150 312 -378 420 -60 28 -120 37 -158 23z"/>
<path d="M1942 4689 c-67 -11 -153 -52 -192 -90 -78 -79 -30 -226 85 -258 47
-13 75 -8 141 26 29 15 58 24 68 20 9 -4 28 -32 41 -64 32 -72 76 -106 140
-106 55 0 115 37 138 86 53 110 -32 286 -168 351 -45 21 -170 50 -195 45 -3
-1 -29 -5 -58 -10z"/>
<path d="M2950 3975 c-156 -49 -253 -164 -254 -301 0 -109 50 -192 158 -263
131 -85 337 -124 403 -75 70 52 92 133 54 204 -28 53 -57 69 -157 84 -91 13
-134 28 -134 46 0 17 98 11 150 -10 93 -36 182 -19 222 44 30 48 21 136 -18
177 -85 89 -291 135 -424 94z"/>
<path d="M1112 3950 c-134 -35 -159 -47 -201 -96 -41 -46 -51 -73 -51 -137 0
-63 23 -110 74 -152 33 -26 45 -30 102 -30 35 0 64 -2 64 -4 0 -2 -55 -83
-123 -180 -153 -217 -254 -388 -329 -552 -81 -179 -87 -214 -45 -295 33 -64
119 -113 199 -114 59 0 95 13 133 50 17 15 75 63 130 106 55 42 190 157 300
255 111 98 233 204 273 234 l72 56 0 -68 c0 -112 -70 -359 -160 -564 -78 -178
-202 -414 -263 -504 -59 -86 -62 -93 -62 -152 0 -57 3 -65 34 -97 42 -43 89
-60 146 -54 94 11 111 38 399 633 212 440 241 536 239 788 -1 167 -12 226 -53
291 -40 63 -96 90 -182 90 -93 0 -177 -45 -338 -178 -69 -57 -127 -102 -129
-100 -2 2 24 45 57 97 139 214 212 373 212 460 0 40 -35 123 -67 158 -59 65
-102 82 -218 86 -86 3 -116 -1 -213 -27z"/>
<path d="M4320 3800 c-225 -18 -356 -92 -395 -223 -20 -68 -19 -112 5 -188 26
-83 81 -154 150 -193 50 -28 63 -31 140 -31 105 0 158 23 243 104 68 64 114
136 167 262 53 123 56 169 14 218 -14 17 -42 35 -62 40 -57 14 -169 19 -262
11z m-70 -315 c-26 -27 -50 -33 -50 -12 0 14 34 35 59 36 10 1 7 -7 -9 -24z"/>
<path d="M3437 3395 c-61 -23 -93 -51 -140 -123 -56 -84 -97 -188 -97 -242 0
-56 33 -112 81 -139 57 -32 197 -34 259 -4 74 36 117 79 152 150 85 172 3 361
-160 370 -33 1 -73 -4 -95 -12z"/>
<path d="M4909 2998 c-113 -81 -235 -234 -264 -332 -21 -68 -19 -162 4 -212
25 -56 92 -110 153 -124 181 -44 368 101 414 322 28 129 3 232 -74 308 -60 60
-80 70 -140 70 -39 0 -58 -6 -93 -32z"/>
<path d="M3960 2561 c-20 -11 -48 -32 -64 -47 -72 -73 -77 -141 -19 -294 22
-58 44 -115 47 -127 l7 -22 -63 26 c-129 54 -251 30 -342 -66 -141 -152 -145
-342 -16 -715 50 -144 59 -163 102 -205 80 -80 210 -105 299 -58 103 55 135
168 85 307 -28 77 -28 93 1 68 39 -34 89 -51 148 -51 113 0 244 85 297 192 30
62 36 213 13 337 -32 176 -139 498 -190 576 -14 21 -49 51 -78 68 -44 25 -62
30 -122 29 -48 0 -81 -6 -105 -18z"/>
<path d="M2019 2177 c-76 -22 -138 -76 -204 -181 -58 -92 -77 -142 -77 -206 0
-69 27 -128 76 -165 l35 -27 -72 -71 c-129 -128 -177 -252 -177 -460 0 -246
66 -417 213 -553 112 -104 268 -191 447 -249 123 -40 298 -47 402 -15 117 35
192 83 298 189 105 105 140 163 140 231 0 52 -32 122 -64 144 l-24 15 37 39
c47 50 116 183 184 357 119 303 167 498 148 602 -40 211 -224 314 -457 255
-103 -26 -281 -103 -418 -181 -60 -34 -111 -60 -112 -58 -2 2 -15 43 -29 91
-35 119 -81 187 -149 221 -64 31 -136 39 -197 22z m971 -484 c0 -22 -53 -210
-80 -288 -38 -106 -76 -188 -136 -293 -39 -68 -44 -84 -44 -138 0 -52 4 -67
30 -102 17 -23 35 -42 42 -42 20 0 -146 -156 -188 -178 -107 -55 -264 -45
-382 24 -185 108 -252 213 -254 400 0 110 22 167 77 190 19 8 38 14 42 14 5 0
24 -26 43 -57 46 -78 116 -152 165 -174 107 -49 228 6 261 118 19 67 9 109
-46 182 -22 29 -40 56 -40 60 1 15 475 289 503 291 4 0 7 -3 7 -7z"/>
</g>
</svg>
