<?xml version="1.0" standalone="no"?>
<!DOCTYPE svg PUBLIC "-//W3C//DTD SVG 20010904//EN"
 "http://www.w3.org/TR/2001/REC-SVG-20010904/DTD/svg10.dtd">
<svg version="1.0" xmlns="http://www.w3.org/2000/svg"
 width="600.000000pt" height="600.000000pt" viewBox="0 0 600.000000 600.000000"
 preserveAspectRatio="xMidYMid meet">
<metadata>
Created by potrace 1.15, written by Peter Selinger 2001-2017
</metadata>
<g transform="translate(0.000000,600.000000) scale(0.100000,-0.100000)"
fill="#16364b" stroke="none">
<path d="M2980 5524 c-49 -21 -69 -42 -80 -86 -16 -56 0 -100 59 -164 40 -43
56 -71 72 -126 22 -71 22 -108 3 -279 -8 -71 13 -120 68 -157 72 -47 169 -25
196 45 35 89 44 342 16 466 -23 103 -67 188 -129 246 -72 68 -136 85 -205 55z"/>
<path d="M2032 5433 c-37 -7 -100 -77 -108 -118 -10 -53 3 -114 36 -172 35
-61 69 -89 167 -137 88 -44 101 -67 142 -259 31 -148 44 -177 94 -208 49 -31
137 -23 177 16 54 51 56 81 21 256 -49 245 -118 354 -276 436 -62 32 -76 43
-81 68 -19 89 -87 135 -172 118z"/>
<path d="M1428 4771 c-105 -21 -155 -119 -109 -215 40 -82 57 -87 313 -89 209
-2 227 -4 283 -26 87 -35 161 -34 208 2 20 15 44 41 52 57 20 38 19 115 -1
149 -33 56 -134 102 -264 121 -74 11 -427 11 -482 1z"/>
<path d="M4344 4686 c-84 -37 -114 -147 -61 -223 118 -167 161 -257 192 -403
8 -37 20 -79 26 -94 37 -81 186 -89 251 -12 40 47 42 85 14 197 -35 139 -66
217 -129 322 -120 199 -196 255 -293 213z"/>
<path d="M3195 4486 c-16 -7 -70 -51 -120 -96 -96 -89 -360 -312 -438 -370
-55 -42 -77 -82 -77 -143 0 -122 134 -185 239 -113 113 79 273 217 412 355
180 180 195 205 165 286 -29 76 -112 113 -181 81z"/>
<path d="M1705 4353 c-89 -23 -141 -147 -97 -232 31 -62 56 -73 214 -88 194
-19 507 -13 563 11 60 25 80 59 80 132 0 51 -5 67 -28 98 -53 69 -61 71 -314
60 -104 -4 -191 -3 -245 5 -128 18 -151 20 -173 14z"/>
<path d="M3794 3996 c-23 -13 -86 -57 -140 -98 -213 -162 -404 -272 -594 -344
-95 -35 -123 -55 -144 -98 -47 -99 15 -208 117 -208 53 1 279 82 416 151 173
86 522 338 550 396 19 40 17 108 -6 148 -20 35 -92 77 -133 77 -14 0 -43 -11
-66 -24z"/>
<path d="M2345 3814 c-17 -6 -336 -62 -399 -70 -33 -4 -117 -7 -186 -8 -117
-1 -129 -3 -162 -26 -47 -32 -68 -69 -68 -120 0 -55 28 -100 81 -129 75 -43
293 -41 574 5 219 36 273 55 319 117 28 38 28 126 0 164 -34 46 -120 83 -159
67z"/>
<path d="M4972 3645 c-53 -30 -76 -57 -98 -112 -17 -45 -16 -78 6 -223 22
-141 -9 -292 -90 -430 -39 -67 -157 -226 -283 -380 -83 -101 -106 -148 -107
-214 0 -97 44 -177 120 -216 98 -50 204 -30 285 53 51 52 229 293 344 464 104
155 154 286 182 473 14 97 7 385 -12 450 -16 57 -88 131 -145 148 -70 20 -153
15 -202 -13z"/>
<path d="M1970 3151 c-67 -35 -96 -122 -66 -194 35 -85 180 -149 411 -182 61
-9 127 -23 148 -30 53 -21 89 -19 128 8 67 45 88 141 48 218 -29 58 -92 84
-273 114 -96 16 -172 35 -219 55 -83 35 -128 38 -177 11z"/>
<path d="M4395 3126 c-16 -7 -57 -39 -90 -70 -66 -62 -163 -130 -240 -169
-147 -73 -369 -136 -550 -157 -176 -19 -223 -41 -257 -118 -35 -79 0 -154 87
-188 36 -13 62 -15 137 -10 433 32 752 151 1020 380 87 74 108 107 108 166 0
77 -48 145 -119 169 -43 14 -59 13 -96 -3z"/>
<path d="M1447 2970 c-47 -14 -94 -57 -118 -107 -22 -44 -24 -63 -27 -223 -5
-214 14 -369 63 -539 58 -198 158 -409 229 -482 97 -100 256 -68 311 63 29 70
17 126 -48 221 -111 165 -168 413 -172 747 -3 206 -7 223 -69 278 -33 29 -92
53 -126 51 -8 0 -28 -5 -43 -9z"/>
<path d="M2075 2347 c-46 -25 -85 -92 -85 -144 0 -85 65 -156 152 -168 131
-17 210 -42 266 -84 43 -32 134 -41 178 -18 58 30 87 72 92 132 4 46 1 61 -19
89 -50 73 -208 152 -394 197 -103 24 -141 24 -190 -4z"/>
<path d="M4145 2075 c-556 -142 -659 -164 -1017 -219 -125 -19 -240 -42 -255
-50 -31 -16 -86 -71 -100 -101 -34 -69 -20 -148 36 -204 64 -64 87 -65 376
-26 294 40 373 53 560 95 208 46 555 138 594 158 95 47 129 188 68 281 -49 73
-142 97 -262 66z"/>
<path d="M4870 1723 c-57 -21 -88 -45 -146 -114 -106 -128 -215 -200 -381
-254 -43 -14 -210 -62 -373 -106 -368 -100 -387 -106 -429 -137 -47 -35 -75
-102 -67 -161 12 -88 78 -152 174 -167 30 -5 69 2 149 24 59 17 162 45 228 62
442 115 632 183 765 273 101 69 254 236 286 314 31 74 12 175 -43 225 -41 37
-119 57 -163 41z"/>
<path d="M2062 1523 c-68 -33 -102 -109 -82 -182 13 -48 137 -184 233 -257
113 -85 259 -145 385 -160 51 -5 68 -3 106 16 84 40 120 141 77 220 -24 47
-70 76 -139 91 -31 6 -99 31 -150 56 -74 35 -107 58 -170 120 -42 42 -88 85
-102 95 -32 23 -113 23 -158 1z"/>
<path d="M2038 944 c-77 -24 -128 -101 -128 -195 0 -68 23 -113 83 -160 115
-91 274 -158 488 -205 108 -23 147 -27 299 -28 152 0 188 3 270 23 218 55 288
91 322 169 40 89 3 180 -93 230 -53 28 -121 26 -237 -7 -162 -45 -383 -52
-517 -16 -79 21 -191 74 -278 132 -64 43 -127 72 -152 72 -5 0 -31 -7 -57 -15z"/>
</g>
</svg>
