<?xml version="1.0" standalone="no"?>
<!DOCTYPE svg PUBLIC "-//W3C//DTD SVG 20010904//EN"
 "http://www.w3.org/TR/2001/REC-SVG-20010904/DTD/svg10.dtd">
<svg version="1.0" xmlns="http://www.w3.org/2000/svg"
 width="600.000000pt" height="600.000000pt" viewBox="0 0 600.000000 600.000000"
 preserveAspectRatio="xMidYMid meet">
<metadata>
Created by potrace 1.15, written by Peter Selinger 2001-2017
</metadata>
<g transform="translate(0.000000,600.000000) scale(0.100000,-0.100000)"
fill="#16364b" stroke="none">
<path d="M3132 5643 c-61 -30 -76 -65 -80 -184 -9 -249 85 -363 391 -474 42
-15 77 -31 77 -35 0 -12 -36 -33 -217 -126 -296 -153 -453 -275 -453 -352 0
-11 -11 -27 -25 -36 -42 -27 -68 -91 -63 -153 7 -86 62 -142 146 -151 27 -2
103 3 169 12 66 9 172 16 235 15 129 -2 165 10 198 64 39 63 16 149 -51 194
-28 18 -55 26 -113 30 -43 3 -75 10 -73 16 1 5 72 47 156 94 192 105 287 170
355 244 82 88 104 173 67 254 -36 80 -135 146 -301 200 -119 39 -177 70 -195
105 -10 19 -15 57 -15 107 0 92 -18 136 -69 170 -40 27 -92 29 -139 6z"/>
<path d="M1345 5403 c-60 -16 -208 -155 -316 -299 -72 -96 -151 -254 -174
-349 -22 -92 -22 -256 0 -333 37 -124 156 -170 247 -94 49 42 58 74 51 198 -5
99 -3 116 20 185 48 141 161 304 263 380 69 51 94 90 94 149 0 64 -34 119 -90
148 -44 22 -58 24 -95 15z"/>
<path d="M1512 4985 c-127 -28 -171 -45 -207 -80 -81 -82 -61 -201 42 -254 30
-15 86 -14 162 4 35 9 65 14 67 12 2 -2 -7 -32 -21 -68 -65 -165 -75 -292 -31
-383 15 -30 43 -69 62 -86 20 -17 35 -33 33 -34 -2 -2 -29 -16 -59 -31 -176
-88 -227 -143 -218 -237 6 -61 31 -96 89 -126 59 -31 101 -24 198 35 104 63
245 129 329 152 89 24 105 33 139 77 49 65 31 166 -39 216 -27 18 -45 23 -95
22 -57 0 -63 2 -63 20 0 22 -38 106 -48 106 -4 0 -17 8 -30 18 l-22 17 51 149
c61 177 68 259 30 339 -60 124 -190 170 -369 132z"/>
<path d="M4579 4520 c-95 -5 -123 -11 -153 -29 -91 -57 -93 -196 -3 -252 28
-17 46 -19 145 -17 61 2 112 0 112 -4 0 -4 -46 -47 -102 -95 -57 -49 -124
-109 -150 -134 -46 -44 -48 -49 -48 -101 0 -86 53 -138 142 -138 52 0 81 17
207 120 182 149 262 237 312 345 64 134 18 250 -113 290 -59 17 -210 24 -349
15z"/>
<path d="M3891 3698 c-89 -48 -115 -155 -64 -259 32 -64 154 -191 233 -241 97
-62 147 -70 216 -39 119 54 118 247 -2 297 -30 13 -32 16 -27 52 7 53 -25 125
-69 152 -44 27 -121 50 -188 57 -45 4 -63 0 -99 -19z"/>
<path d="M2452 3680 c-74 -20 -221 -87 -256 -118 -34 -30 -58 -99 -51 -144 9
-54 63 -112 115 -126 48 -12 79 -5 185 42 77 34 171 56 208 48 12 -2 17 -13
17 -34 0 -88 -157 -439 -271 -606 -35 -52 -72 -107 -82 -123 -25 -39 -24 -110
2 -155 16 -26 21 -52 21 -101 0 -80 24 -128 83 -166 65 -42 115 -40 230 10
171 73 317 120 317 102 0 -5 -29 -71 -64 -146 -100 -217 -127 -282 -133 -319
-15 -93 67 -212 161 -232 59 -12 119 0 164 34 58 45 203 373 262 594 28 105
25 219 -8 292 -43 97 -140 174 -244 193 -51 10 -167 -10 -283 -49 -55 -19
-101 -33 -103 -31 -2 2 14 29 34 61 117 184 217 494 218 680 0 82 -2 97 -29
150 -35 68 -101 123 -177 148 -70 22 -222 20 -316 -4z"/>
<path d="M1150 3486 c-68 -15 -137 -50 -262 -132 -120 -80 -143 -112 -143
-204 0 -55 5 -72 29 -107 51 -76 169 -108 248 -69 17 9 33 14 35 12 3 -2 -16
-64 -41 -138 -47 -139 -113 -392 -141 -540 -9 -48 -17 -133 -18 -190 -2 -121
14 -165 79 -210 56 -39 180 -58 228 -35 40 19 290 320 569 686 43 56 82 99 87
96 32 -20 -6 -243 -95 -560 -77 -273 -88 -330 -88 -470 0 -139 22 -216 74
-259 49 -42 100 -52 153 -32 80 31 116 96 102 188 -17 111 -17 141 4 259 11
68 52 252 90 409 87 360 95 414 80 584 -18 210 -57 293 -157 338 -78 34 -161
13 -249 -65 -38 -33 -295 -345 -381 -462 -12 -16 -23 -24 -23 -16 0 7 27 104
59 215 74 252 84 300 84 406 -1 135 -44 221 -140 272 -61 33 -114 40 -183 24z"/>
<path d="M4596 3290 c-67 -20 -115 -102 -102 -173 10 -51 38 -81 121 -127 91
-50 171 -112 180 -139 8 -26 -22 -83 -73 -141 -47 -54 -72 -100 -72 -135 0
-43 26 -91 65 -121 31 -23 48 -28 94 -29 65 0 83 11 151 91 93 110 151 267
136 367 -11 69 -49 138 -109 194 -88 84 -319 227 -356 222 -3 0 -19 -5 -35 -9z"/>
<path d="M3663 3216 c-68 -22 -169 -83 -221 -134 -131 -128 -135 -298 -9 -361
35 -17 56 -22 81 -17 49 9 98 46 124 94 20 36 26 41 51 36 45 -9 182 15 239
43 77 36 106 84 100 163 -5 73 -40 122 -114 160 -58 30 -183 38 -251 16z"/>
<path d="M4535 2261 c-85 -39 -137 -120 -141 -220 -2 -34 -5 -65 -7 -67 -2 -3
-60 5 -128 16 -267 43 -408 16 -528 -101 -129 -127 -187 -332 -179 -634 l3
-140 -53 -27 -52 -27 -48 37 c-26 20 -85 65 -132 101 -47 36 -103 82 -125 102
-59 55 -84 74 -143 103 -184 93 -344 23 -410 -179 -10 -32 -21 -54 -25 -49 -3
6 -15 87 -26 180 -34 274 -49 348 -81 392 -72 100 -243 114 -319 27 -48 -55
-56 -101 -38 -235 9 -63 19 -144 22 -180 18 -181 81 -407 147 -533 74 -139
316 -297 456 -297 120 0 216 127 184 243 -9 32 0 179 13 215 4 12 86 -46 262
-187 45 -37 108 -80 140 -96 51 -26 68 -30 143 -30 73 0 92 4 135 27 110 58
175 139 175 216 0 38 2 40 37 47 77 14 151 71 187 142 10 21 22 92 32 190 24
256 21 243 51 243 15 0 76 -12 136 -26 95 -23 125 -26 236 -22 115 3 131 6
191 34 158 75 231 216 233 450 1 101 -2 116 -26 167 -28 57 -72 97 -132 123
-48 20 -141 18 -190 -5z"/>
</g>
</svg>
