<?xml version="1.0" standalone="no"?>
<!DOCTYPE svg PUBLIC "-//W3C//DTD SVG 20010904//EN"
 "http://www.w3.org/TR/2001/REC-SVG-20010904/DTD/svg10.dtd">
<svg version="1.0" xmlns="http://www.w3.org/2000/svg"
 width="600.000000pt" height="600.000000pt" viewBox="0 0 600.000000 600.000000"
 preserveAspectRatio="xMidYMid meet">
<metadata>
Created by potrace 1.15, written by Peter Selinger 2001-2017
</metadata>
<g transform="translate(0.000000,600.000000) scale(0.100000,-0.100000)"
fill="#16364b" stroke="none">
<path d="M2742 5530 c-24 -15 -43 -41 -67 -94 -101 -222 -102 -365 -3 -452 64
-56 122 -69 306 -69 89 0 162 -1 162 -1 0 -1 -43 -37 -97 -80 -106 -85 -232
-208 -334 -324 -135 -154 -167 -211 -155 -273 8 -42 68 -122 105 -141 16 -9
133 -28 272 -46 134 -16 320 -46 414 -65 189 -38 216 -37 267 11 43 42 54 86
33 140 -24 62 -62 89 -173 123 -148 44 -225 61 -377 79 l-140 18 95 95 c52 52
145 133 205 179 159 121 268 233 288 294 53 156 -37 277 -223 302 -25 3 -110
-1 -189 -10 -167 -19 -221 -20 -221 -6 0 6 16 43 36 82 31 61 35 79 32 120 -5
52 -37 96 -90 124 -39 20 -107 17 -146 -6z"/>
<path d="M1527 5202 c-180 -100 -408 -356 -515 -579 -57 -120 -45 -209 36
-256 43 -25 85 -25 275 1 163 23 252 28 260 14 3 -4 -6 -41 -19 -82 -75 -230
-80 -289 -34 -352 12 -16 20 -31 18 -33 -1 -1 -29 -10 -60 -19 -94 -27 -148
-88 -148 -168 0 -76 70 -148 144 -148 22 0 99 18 171 41 492 153 516 166 523
282 3 68 -15 112 -61 142 -50 32 -87 30 -196 -14 -56 -23 -106 -41 -111 -41
-9 0 7 57 55 205 32 97 44 233 25 291 -20 61 -58 111 -109 143 -70 44 -113 54
-242 54 l-118 0 30 38 c51 64 168 166 230 199 97 52 132 115 109 199 -32 120
-136 153 -263 83z"/>
<path d="M4392 4639 c-85 -15 -169 -47 -296 -112 -94 -48 -124 -69 -144 -100
-48 -73 -25 -169 50 -208 53 -27 89 -24 170 17 64 32 238 104 253 104 13 0 2
-47 -30 -127 -34 -86 -100 -211 -200 -381 -52 -90 -62 -149 -32 -195 32 -49
116 -125 148 -135 19 -6 106 -13 195 -16 162 -5 295 -21 326 -37 14 -7 15 -15
6 -46 -16 -60 -70 -186 -147 -343 -40 -82 -71 -158 -71 -175 0 -42 31 -96 71
-123 28 -20 44 -23 92 -20 36 3 68 12 85 24 50 36 208 389 257 574 23 85 19
185 -9 245 -57 123 -183 176 -453 194 -68 4 -125 10 -128 13 -4 3 21 57 54
119 138 263 180 450 130 583 -43 117 -170 173 -327 145z"/>
<path d="M3714 3672 c-145 -50 -258 -205 -230 -315 8 -35 64 -86 108 -97 54
-15 122 4 151 42 77 103 107 113 107 38 0 -59 -29 -152 -72 -230 -28 -51 -36
-58 -116 -97 -107 -53 -199 -123 -218 -168 -44 -107 26 -205 147 -205 44 0 64
5 90 25 78 56 140 86 249 120 177 56 200 65 240 101 78 70 68 183 -22 253 -24
20 -26 24 -16 59 6 20 11 82 12 137 0 82 -4 111 -23 160 -30 77 -107 155 -176
178 -63 22 -166 21 -231 -1z"/>
<path d="M2513 3516 c-174 -29 -395 -105 -446 -153 -81 -78 -41 -220 71 -254
47 -14 58 -11 177 39 116 48 287 82 335 67 19 -6 21 -12 16 -44 -8 -52 -56
-172 -116 -292 -48 -94 -52 -108 -48 -156 4 -44 11 -60 38 -89 63 -64 154 -67
220 -6 36 33 149 258 184 364 83 255 36 436 -133 511 -58 25 -187 31 -298 13z"/>
<path d="M1154 3242 c-118 -41 -252 -145 -279 -217 -34 -89 -9 -167 72 -225
30 -21 46 -25 109 -25 55 0 74 -3 74 -13 0 -8 -18 -139 -40 -293 -57 -398 -55
-583 8 -674 15 -22 47 -50 72 -63 38 -20 55 -23 112 -18 100 7 139 32 189 118
189 332 441 703 467 689 4 -2 15 -26 24 -55 12 -36 17 -87 17 -177 2 -222 -27
-424 -89 -625 -36 -116 -34 -158 12 -210 45 -51 120 -64 173 -28 27 20 33 17
28 -10 -7 -37 24 -222 67 -402 78 -325 168 -483 318 -555 127 -62 327 -17 472
107 28 24 57 44 63 44 7 0 29 11 49 25 26 18 49 51 88 127 79 156 146 262 202
323 57 62 93 85 136 85 32 0 110 -44 191 -109 172 -136 335 -146 487 -31 62
46 113 111 121 153 3 16 16 33 32 41 58 31 100 101 108 180 4 42 -3 70 -37
166 -27 74 -42 134 -43 170 l-2 54 39 13 c21 8 96 18 165 23 210 17 290 41
386 117 110 87 160 267 125 454 -33 176 -233 244 -374 128 -45 -38 -86 -118
-86 -172 0 -21 -5 -39 -12 -41 -7 -2 -63 -9 -124 -15 -342 -34 -533 -161 -603
-396 -42 -142 -19 -319 65 -488 25 -50 30 -77 16 -77 -5 0 -47 23 -93 51 -180
110 -260 139 -379 139 -236 0 -450 -183 -652 -558 -28 -52 -58 -96 -67 -99 -9
-4 -35 -19 -59 -36 -24 -16 -49 -26 -56 -24 -38 15 -103 261 -135 513 -11 84
-26 165 -35 182 -50 97 -206 115 -298 34 -16 -13 -18 -13 -18 0 0 8 9 41 20
74 86 247 117 535 90 815 -28 280 -77 397 -187 449 -62 29 -156 25 -228 -10
-67 -34 -193 -161 -289 -293 -43 -59 -80 -106 -82 -105 -2 2 6 73 17 158 39
295 16 454 -80 550 -76 76 -166 97 -267 62z"/>
<path d="M3110 2614 c-142 -27 -210 -43 -365 -86 -202 -56 -222 -65 -258 -108
-96 -114 19 -310 182 -310 28 0 116 16 194 35 165 40 282 65 303 65 21 0 17
-25 -21 -135 -39 -112 -42 -139 -20 -193 44 -104 161 -150 261 -102 63 31 103
103 164 300 76 246 29 423 -135 508 -44 22 -64 26 -165 28 -63 1 -126 0 -140
-2z"/>
</g>
</svg>
