<?xml version="1.0" standalone="no"?>
<!DOCTYPE svg PUBLIC "-//W3C//DTD SVG 20010904//EN"
 "http://www.w3.org/TR/2001/REC-SVG-20010904/DTD/svg10.dtd">
<svg version="1.0" xmlns="http://www.w3.org/2000/svg"
 width="600.000000pt" height="600.000000pt" viewBox="0 0 600.000000 600.000000"
 preserveAspectRatio="xMidYMid meet">
<metadata>
Created by potrace 1.15, written by Peter Selinger 2001-2017
</metadata>
<g transform="translate(0.000000,600.000000) scale(0.100000,-0.100000)"
fill="#16364b" stroke="none">
<path d="M2178 5822 c-21 -9 -102 -80 -180 -157 -79 -77 -197 -190 -263 -250
-188 -172 -242 -244 -253 -342 -11 -97 50 -181 147 -202 69 -15 80 -14 191 9
178 38 639 209 720 268 60 44 77 150 33 210 -24 33 -97 72 -136 72 -16 0 -86
-23 -156 -51 -69 -28 -148 -60 -176 -70 l-50 -20 70 68 c39 38 110 104 158
148 49 43 95 91 103 106 42 83 -14 191 -114 219 -48 13 -50 13 -94 -8z"/>
<path d="M3108 5670 c-69 -21 -108 -73 -108 -146 0 -37 6 -59 21 -78 28 -36
50 -46 148 -67 102 -23 230 -83 293 -138 70 -62 98 -126 98 -226 0 -135 -51
-211 -185 -274 -33 -16 -87 -37 -120 -47 -107 -32 -156 -89 -141 -167 24 -126
132 -167 282 -108 225 88 356 214 420 403 25 72 28 98 28 198 0 134 -20 211
-83 307 -78 121 -196 214 -343 275 -61 24 -261 80 -278 77 -3 0 -17 -4 -32 -9z"/>
<path d="M948 5336 c-131 -54 -241 -153 -297 -268 -60 -121 -54 -279 14 -416
60 -118 200 -260 281 -282 85 -24 170 45 182 145 6 61 -25 121 -84 160 -127
84 -163 230 -74 310 12 10 58 37 103 60 107 53 130 85 125 172 -3 49 -9 68
-28 89 -57 60 -127 69 -222 30z"/>
<path d="M2734 4960 c-178 -63 -283 -221 -272 -411 6 -95 41 -173 109 -241 76
-75 222 -138 324 -138 111 0 177 118 123 219 -32 59 -61 79 -142 98 -86 19
-130 55 -130 104 0 50 29 87 77 100 59 16 92 43 111 89 31 78 16 137 -43 177
-41 28 -86 29 -157 3z"/>
<path d="M4765 4932 c-17 -10 -45 -36 -64 -57 l-34 -39 6 -115 c8 -188 69
-342 176 -442 70 -66 112 -84 196 -84 84 0 139 27 204 101 152 173 79 413
-170 559 -151 89 -253 114 -314 77z"/>
<path d="M1845 4476 c-110 -36 -234 -127 -271 -197 -50 -97 25 -219 134 -219
50 0 88 18 141 66 78 70 132 75 192 18 72 -69 208 -42 250 50 35 76 19 136
-51 200 -73 66 -139 90 -255 93 -64 2 -114 -2 -140 -11z"/>
<path d="M2753 3870 c-81 -19 -133 -79 -133 -155 0 -75 67 -145 138 -145 l33
0 -7 -47 c-15 -109 -90 -272 -202 -443 -49 -75 -56 -92 -59 -145 -3 -47 0 -67
15 -91 47 -75 171 -86 240 -21 27 25 132 198 187 307 152 302 160 536 23 672
-63 64 -150 89 -235 68z"/>
<path d="M4245 3792 c-202 -53 -339 -199 -339 -363 0 -166 136 -293 315 -293
180 0 304 117 447 419 51 109 34 186 -52 229 -57 28 -275 33 -371 8z m48 -317
c-6 -18 -58 -47 -67 -38 -12 12 -6 22 22 37 35 20 53 20 45 1z"/>
<path d="M1070 3775 c-121 -32 -196 -70 -235 -118 -28 -36 -30 -45 -30 -116 0
-68 3 -83 28 -120 40 -60 99 -85 184 -78 l63 5 -46 -87 c-26 -47 -71 -128
-101 -180 -116 -202 -180 -348 -223 -514 -40 -150 -40 -218 0 -281 62 -97 193
-115 284 -39 74 62 624 564 671 612 27 28 54 51 60 51 15 0 2 -108 -25 -213
-39 -151 -216 -680 -277 -825 -27 -67 -34 -95 -30 -126 17 -124 175 -180 271
-95 51 44 105 166 157 354 17 60 54 184 84 275 29 91 67 221 83 290 17 69 38
159 49 200 13 56 18 114 18 230 0 147 -1 158 -26 211 -32 67 -77 104 -145 120
-107 25 -201 -29 -414 -237 -70 -68 -130 -124 -133 -124 -3 0 34 78 81 173
105 207 123 257 129 362 5 68 2 89 -17 132 -25 59 -67 102 -130 134 -68 36
-204 37 -330 4z"/>
<path d="M3465 3386 c-101 -44 -184 -195 -201 -369 -8 -82 21 -140 86 -174 83
-44 254 -28 350 32 48 31 65 51 96 119 64 139 -4 324 -141 387 -47 22 -146 24
-190 5z"/>
<path d="M4850 2809 c-72 -43 -225 -225 -268 -318 -33 -71 -41 -175 -18 -234
22 -58 79 -114 130 -128 133 -36 319 69 404 229 57 106 75 249 40 317 -15 28
-128 134 -156 146 -39 15 -95 10 -132 -12z"/>
<path d="M4151 2454 c-102 -51 -136 -144 -101 -274 26 -95 43 -181 37 -186 -3
-3 -22 5 -43 17 -133 75 -290 96 -385 52 -98 -44 -159 -125 -180 -239 -13 -72
-9 -111 47 -404 55 -292 58 -302 96 -346 109 -124 299 -99 373 49 32 66 33
125 0 263 -33 139 -33 139 8 118 17 -9 46 -27 63 -40 39 -30 107 -54 152 -54
55 0 166 37 219 73 57 39 107 109 128 180 19 65 19 209 0 323 -21 120 -73 309
-101 365 -59 119 -192 163 -313 103z"/>
<path d="M2933 2305 c-131 -29 -514 -199 -607 -270 -48 -36 -50 -37 -100 -27
-61 12 -134 1 -181 -28 -46 -28 -134 -124 -150 -165 -22 -51 -18 -105 11 -163
31 -62 88 -101 155 -105 l44 -3 17 -62 c33 -123 33 -116 -12 -136 -104 -46
-194 -150 -231 -266 -26 -84 -28 -233 -4 -317 40 -139 144 -300 244 -380 84
-66 164 -108 286 -149 136 -45 269 -56 378 -30 109 25 301 122 370 185 102 93
75 269 -48 316 -64 25 -109 15 -206 -43 -93 -56 -162 -82 -214 -82 -61 0 -209
54 -283 104 -68 45 -117 96 -160 167 -27 44 -30 116 -6 126 10 4 63 -19 134
-55 105 -55 125 -62 176 -62 141 0 230 108 193 237 -9 35 -29 64 -77 112 -77
79 -125 174 -176 344 -20 65 -36 124 -36 131 0 6 17 17 38 23 20 6 102 41 182
77 240 111 310 140 317 132 19 -18 -106 -330 -192 -481 -35 -63 -39 -77 -40
-141 0 -60 4 -76 27 -111 39 -59 101 -86 183 -81 92 6 126 35 193 168 151 301
223 553 209 726 -21 245 -186 363 -434 309z"/>
</g>
</svg>
