<?xml version="1.0" standalone="no"?>
<!DOCTYPE svg PUBLIC "-//W3C//DTD SVG 20010904//EN"
 "http://www.w3.org/TR/2001/REC-SVG-20010904/DTD/svg10.dtd">
<svg version="1.0" xmlns="http://www.w3.org/2000/svg"
 width="600.000000pt" height="600.000000pt" viewBox="0 0 600.000000 600.000000"
 preserveAspectRatio="xMidYMid meet">
<metadata>
Created by potrace 1.15, written by Peter Selinger 2001-2017
</metadata>
<g transform="translate(0.000000,600.000000) scale(0.100000,-0.100000)"
fill="#16364b" stroke="none">
<path d="M1545 5766 c-49 -22 -63 -46 -95 -171 -84 -322 -30 -625 120 -665
109 -29 206 49 374 303 130 196 170 276 162 320 -12 65 -73 117 -136 117 -59
0 -85 -24 -144 -132 -71 -133 -162 -273 -168 -262 -9 15 10 138 37 251 14 57
25 116 25 129 0 43 -29 84 -73 105 -49 22 -62 23 -102 5z"/>
<path d="M867 5511 c-123 -41 -223 -134 -268 -248 -34 -88 -38 -239 -9 -316
29 -76 93 -155 151 -185 41 -21 51 -22 87 -12 46 12 88 58 98 107 8 39 -17 97
-51 119 -53 34 -67 95 -39 162 35 84 105 124 169 97 47 -19 78 -19 115 0 70
36 95 114 61 190 -17 39 -28 49 -77 72 -75 34 -160 39 -237 14z"/>
<path d="M3324 5416 c-28 -28 -34 -41 -34 -78 0 -24 7 -54 16 -66 8 -12 58
-47 110 -78 l95 -56 -31 -31 c-58 -59 -35 -138 65 -226 84 -74 212 -100 271
-55 64 47 88 110 73 190 -26 137 -121 247 -314 362 -105 63 -127 72 -169 72
-41 0 -53 -5 -82 -34z"/>
<path d="M2348 5170 c-42 -13 -84 -47 -96 -77 -6 -16 -15 -79 -21 -142 -12
-127 -35 -188 -86 -227 -16 -12 -73 -43 -126 -69 -105 -51 -129 -77 -129 -140
0 -52 32 -100 81 -119 49 -20 67 -16 186 39 250 117 322 220 345 497 11 123
10 141 -5 172 -27 57 -90 85 -149 66z"/>
<path d="M2967 5156 c-73 -27 -146 -101 -184 -186 -9 -20 -16 -66 -17 -105 -1
-95 30 -151 106 -189 62 -31 114 -33 197 -7 149 46 185 91 185 236 1 79 -2 97
-27 148 -38 76 -87 110 -165 114 -32 2 -73 -3 -95 -11z"/>
<path d="M4794 4808 c-26 -6 -55 -22 -77 -43 -44 -42 -52 -88 -44 -224 19
-279 145 -455 336 -469 164 -11 282 114 268 285 -11 144 -144 320 -306 407
-88 46 -123 55 -177 44z m200 -458 c-6 -5 -24 21 -24 34 0 6 6 1 14 -10 8 -10
12 -21 10 -24z"/>
<path d="M2745 4171 c-164 -43 -245 -189 -181 -326 75 -161 324 -228 538 -144
79 31 194 106 226 146 22 30 27 47 27 93 0 102 -56 147 -255 207 -65 19 -113
26 -205 29 -66 2 -133 0 -150 -5z"/>
<path d="M1040 4069 c-89 -36 -129 -153 -77 -229 39 -58 67 -71 190 -90 63
-10 122 -22 132 -27 16 -9 14 -14 -19 -44 -66 -60 -177 -128 -354 -215 -188
-94 -211 -114 -219 -188 -10 -89 49 -156 143 -164 57 -5 122 18 309 109 43 22
82 39 86 39 3 0 9 -14 13 -31 14 -70 77 -119 154 -119 31 0 57 11 122 55 90
60 108 64 148 37 164 -113 362 -22 335 153 -8 56 -26 88 -72 127 -63 54 -129
73 -246 72 l-100 -1 26 55 c92 189 -8 361 -246 425 -78 21 -229 47 -269 46
-17 0 -42 -5 -56 -10z"/>
<path d="M4167 3760 c-74 -23 -125 -57 -171 -113 -46 -57 -66 -114 -66 -193 0
-237 229 -386 435 -285 126 63 223 203 260 381 26 123 -14 187 -134 214 -96
22 -250 20 -324 -4z m104 -299 c-17 -30 -61 -42 -61 -16 0 16 27 34 53 35 14
0 16 -4 8 -19z"/>
<path d="M5126 3425 c-123 -50 -240 -148 -286 -241 -52 -104 -35 -241 40 -327
57 -64 124 -91 216 -85 95 6 167 41 233 113 61 68 92 144 99 246 4 67 1 84
-20 130 -43 93 -152 190 -212 189 -6 0 -37 -11 -70 -25z"/>
<path d="M3423 3379 c-45 -13 -105 -86 -160 -197 -65 -131 -62 -183 14 -233
32 -22 115 -25 176 -8 52 14 111 70 143 136 21 42 27 70 28 126 1 87 -20 131
-80 164 -42 24 -70 27 -121 12z"/>
<path d="M2335 3007 c-126 -38 -198 -125 -288 -350 -44 -108 -78 -152 -154
-197 -121 -72 -282 -224 -358 -339 -149 -227 -216 -529 -167 -764 56 -269 207
-438 525 -587 232 -109 474 -112 678 -9 179 90 387 268 488 418 118 173 204
436 217 664 7 113 -8 334 -31 442 -32 152 -110 253 -256 334 -76 41 -107 70
-275 257 -93 103 -154 136 -263 140 -42 2 -94 -2 -116 -9z m176 -466 c31 -37
63 -80 72 -96 21 -41 48 -64 147 -123 100 -59 114 -73 136 -132 25 -70 30
-284 10 -395 -61 -323 -225 -580 -436 -679 -55 -26 -80 -31 -163 -34 -313 -13
-548 181 -547 453 1 186 122 417 283 538 40 30 86 66 102 80 17 14 53 44 80
68 97 82 177 202 230 342 10 26 20 47 24 46 3 0 31 -31 62 -68z"/>
<path d="M822 2651 c-45 -29 -72 -77 -72 -129 0 -60 20 -85 119 -144 100 -60
198 -154 230 -222 19 -38 22 -59 19 -108 -4 -53 -9 -65 -36 -89 -19 -17 -44
-29 -60 -29 -57 0 -137 80 -195 197 -55 108 -164 132 -232 52 -33 -40 -32 -81
5 -152 77 -149 204 -287 307 -334 161 -74 349 11 437 197 26 55 31 79 34 160
6 162 -39 260 -186 404 -81 79 -132 120 -219 174 -67 43 -108 49 -151 23z"/>
<path d="M4210 2223 c-56 -22 -110 -98 -110 -157 0 -35 -2 -38 -22 -32 -71 20
-116 18 -170 -6 -78 -36 -101 -76 -96 -166 4 -66 52 -371 69 -444 19 -75 96
-130 177 -127 20 1 57 -6 81 -15 79 -30 179 5 242 84 49 61 56 116 60 451 l4
305 -25 37 c-34 50 -86 77 -146 76 -27 0 -56 -3 -64 -6z"/>
</g>
</svg>
