<?xml version="1.0" standalone="no"?>
<!DOCTYPE svg PUBLIC "-//W3C//DTD SVG 20010904//EN"
 "http://www.w3.org/TR/2001/REC-SVG-20010904/DTD/svg10.dtd">
<svg version="1.0" xmlns="http://www.w3.org/2000/svg"
 width="600.000000pt" height="600.000000pt" viewBox="0 0 600.000000 600.000000"
 preserveAspectRatio="xMidYMid meet">
<metadata>
Created by potrace 1.15, written by Peter Selinger 2001-2017
</metadata>
<g transform="translate(0.000000,600.000000) scale(0.100000,-0.100000)"
fill="#16364b" stroke="none">
<path d="M1540 5772 c-22 -19 -49 -70 -92 -172 -33 -80 -76 -183 -96 -230 -29
-69 -36 -98 -37 -153 0 -67 1 -69 37 -103 77 -70 191 -40 356 91 90 72 256
251 280 301 30 63 -8 144 -76 165 -56 16 -80 1 -177 -111 -48 -56 -89 -99 -91
-97 -3 2 11 44 31 92 19 49 35 105 35 127 0 102 -99 154 -170 90z"/>
<path d="M877 5560 c-108 -27 -250 -142 -303 -248 -40 -78 -45 -182 -14 -264
29 -78 76 -145 128 -185 57 -43 99 -44 146 -3 63 56 59 129 -10 197 -39 38
-44 47 -44 88 0 26 5 56 11 68 20 39 72 86 106 98 29 9 39 8 77 -15 85 -50
171 -28 196 50 40 120 -141 251 -293 214z"/>
<path d="M2353 5401 c-18 -11 -35 -31 -38 -43 -3 -13 -7 -111 -9 -218 -4 -216
-15 -281 -68 -388 -42 -85 -98 -141 -188 -186 -89 -44 -106 -58 -120 -101 -23
-69 41 -145 121 -145 66 0 202 73 273 146 86 90 161 258 192 433 21 119 30
386 15 432 -25 78 -112 112 -178 70z"/>
<path d="M3494 5350 c-12 -4 -31 -21 -43 -36 -20 -26 -22 -36 -16 -104 9 -97
48 -183 117 -256 66 -70 112 -94 178 -94 83 0 142 44 156 117 9 46 -8 97 -54
169 -57 87 -113 139 -191 179 -70 35 -107 41 -147 25z"/>
<path d="M2982 5167 c-54 -17 -128 -91 -164 -165 -28 -56 -33 -78 -33 -138 0
-61 4 -76 28 -113 59 -89 167 -104 294 -40 83 42 100 68 115 181 18 138 -5
214 -81 265 -37 25 -100 29 -159 10z"/>
<path d="M4744 4771 c-47 -29 -58 -73 -50 -206 10 -191 59 -335 138 -415 57
-56 110 -82 185 -88 151 -12 265 111 250 270 -14 154 -144 301 -381 427 -68
36 -99 38 -142 12z m279 -443 c9 -32 -12 -19 -33 22 -11 21 -20 43 -20 47 1
13 48 -49 53 -69z"/>
<path d="M2683 4212 c-108 -39 -181 -111 -203 -202 -20 -83 9 -161 83 -226
149 -132 406 -88 603 101 70 68 85 109 66 174 -19 61 -57 88 -183 128 -144 45
-282 55 -366 25z"/>
<path d="M1050 4092 c-75 -41 -104 -122 -72 -195 26 -59 55 -77 144 -88 106
-13 178 -31 177 -43 -1 -28 -156 -119 -269 -159 -41 -14 -102 -33 -134 -42
-69 -19 -110 -57 -126 -116 -21 -79 27 -160 103 -174 35 -7 233 58 403 132 85
38 205 110 219 133 16 27 25 3 25 -70 0 -108 26 -177 94 -245 126 -128 316
-124 434 10 81 92 93 209 32 331 -55 112 -146 167 -276 168 -72 1 -87 -2 -143
-31 l-62 -32 8 37 c30 141 -38 268 -182 337 -72 35 -158 56 -255 62 -71 4 -91
1 -120 -15z"/>
<path d="M4223 3780 c-109 -23 -201 -87 -248 -171 -27 -49 -30 -63 -30 -144 0
-102 18 -150 84 -218 62 -66 103 -82 206 -82 75 0 97 4 135 24 137 72 216 190
238 357 16 121 -18 181 -122 213 -75 23 -204 33 -263 21z m77 -287 c0 -15 -34
-43 -52 -43 -26 0 -18 22 13 37 27 14 39 16 39 6z"/>
<path d="M5136 3549 c-119 -48 -207 -129 -259 -238 -78 -164 -3 -359 156 -406
61 -18 89 -19 159 -4 101 22 193 88 246 178 24 42 27 56 27 146 0 89 -3 106
-27 155 -15 30 -56 85 -91 123 -61 66 -64 67 -112 66 -28 0 -72 -9 -99 -20z
m29 -338 c-3 -6 -11 -11 -17 -11 -6 0 -6 6 2 15 14 17 26 13 15 -4z"/>
<path d="M2518 3416 c-150 -54 -253 -183 -334 -418 -65 -190 -105 -238 -261
-322 -120 -63 -201 -126 -313 -242 -160 -165 -249 -319 -281 -485 -18 -95 -14
-338 6 -428 73 -315 292 -540 613 -629 88 -24 112 -26 267 -26 143 0 183 4
250 22 91 25 203 76 272 124 81 55 189 174 247 271 110 185 144 277 197 542
30 150 32 173 32 370 -1 202 -21 430 -54 589 -22 104 -80 292 -110 352 -65
131 -181 239 -298 277 -63 20 -180 22 -233 3z m160 -408 c38 -62 101 -267 119
-386 24 -162 24 -593 0 -734 -39 -226 -112 -375 -241 -496 -139 -129 -289
-168 -470 -122 -155 39 -282 132 -338 248 -32 66 -33 69 -33 207 0 127 3 148
28 221 34 100 109 215 183 283 34 32 96 72 156 102 130 64 179 98 263 183 91
91 134 164 196 328 54 143 83 198 104 198 7 0 22 -15 33 -32z"/>
<path d="M3402 3390 c-38 -23 -84 -94 -136 -210 -48 -105 -54 -153 -27 -196
31 -50 77 -60 155 -34 81 27 134 72 176 151 28 52 34 77 37 139 4 63 1 80 -17
108 -37 59 -126 79 -188 42z"/>
<path d="M409 2313 c-44 -40 -69 -81 -69 -113 0 -12 20 -72 44 -134 120 -308
249 -493 391 -562 72 -35 180 -45 235 -22 184 77 192 310 17 514 -101 119
-232 218 -405 306 -119 61 -155 63 -213 11z m417 -436 c30 -32 63 -76 74 -97
20 -39 26 -70 13 -70 -9 0 -70 48 -99 78 -36 37 -120 162 -129 191 -7 23 -5
22 40 -10 26 -19 72 -60 101 -92z"/>
<path d="M4305 2065 c-16 -9 -38 -25 -48 -37 l-18 -21 -38 21 c-46 26 -119 29
-161 7 -39 -20 -77 -72 -85 -115 -4 -21 4 -83 19 -160 13 -69 27 -145 31 -170
4 -25 15 -63 25 -85 10 -22 30 -72 44 -110 45 -122 107 -175 204 -175 49 0
107 28 140 69 49 59 90 204 116 406 25 193 24 244 -7 298 -45 76 -148 109
-222 72z"/>
</g>
</svg>
