<?xml version="1.0" standalone="no"?>
<!DOCTYPE svg PUBLIC "-//W3C//DTD SVG 20010904//EN"
 "http://www.w3.org/TR/2001/REC-SVG-20010904/DTD/svg10.dtd">
<svg version="1.0" xmlns="http://www.w3.org/2000/svg"
 width="600.000000pt" height="600.000000pt" viewBox="0 0 600.000000 600.000000"
 preserveAspectRatio="xMidYMid meet">
<metadata>
Created by potrace 1.15, written by Peter Selinger 2001-2017
</metadata>
<g transform="translate(0.000000,600.000000) scale(0.100000,-0.100000)"
fill="#16364b" stroke="none">
<path d="M3155 5646 c-41 -18 -60 -41 -94 -117 -44 -96 -64 -183 -64 -279 0
-92 18 -151 69 -217 45 -60 183 -113 291 -113 29 0 53 -3 53 -7 0 -5 -31 -26
-68 -48 -106 -63 -300 -192 -387 -259 -207 -158 -231 -218 -140 -351 60 -86
183 -148 441 -220 71 -20 182 -54 247 -77 128 -43 156 -44 208 -7 67 48 91
164 46 230 -29 43 -52 54 -184 85 -246 58 -384 94 -399 102 -27 15 128 125
494 352 130 80 175 119 201 173 53 109 0 223 -124 271 -72 27 -119 36 -264 46
-195 14 -194 14 -186 59 4 20 20 70 36 111 34 87 36 129 10 186 -33 73 -120
111 -186 80z"/>
<path d="M1480 5431 c-75 -23 -202 -134 -305 -266 -103 -133 -216 -305 -257
-393 -43 -91 -88 -252 -88 -314 0 -87 66 -157 158 -166 39 -3 68 4 162 41 147
57 197 72 292 92 91 18 118 19 118 4 0 -6 -40 -77 -89 -158 -140 -231 -181
-333 -181 -445 1 -113 43 -182 126 -205 50 -14 84 -2 293 104 242 123 332 180
354 228 50 104 -19 217 -132 217 -32 0 -62 -10 -108 -35 -34 -20 -63 -33 -63
-30 0 3 23 45 50 93 61 108 89 184 97 267 12 126 -54 230 -172 275 -54 20 -73
22 -180 17 -79 -4 -154 -14 -220 -30 -55 -14 -102 -24 -104 -21 -5 5 77 129
153 229 78 103 150 180 205 217 106 74 100 218 -12 268 -45 21 -58 22 -97 11z"/>
<path d="M4705 4453 c-11 -2 -96 -26 -190 -53 -93 -27 -189 -54 -212 -60 -23
-6 -56 -22 -72 -36 -96 -81 -34 -239 98 -252 38 -3 77 5 181 37 72 23 135 40
138 37 16 -17 -123 -222 -268 -397 -80 -95 -122 -154 -126 -175 -9 -50 13
-100 61 -141 24 -20 49 -49 56 -65 20 -49 66 -73 284 -147 115 -39 214 -76
219 -81 10 -10 -12 -49 -157 -274 -116 -180 -137 -220 -137 -261 0 -68 63
-125 140 -125 58 0 101 26 143 87 17 25 81 112 140 192 59 80 126 184 150 230
37 75 41 91 41 155 0 120 -55 201 -181 264 -32 16 -136 56 -230 88 -95 32
-173 62 -173 66 0 5 22 36 49 71 145 185 311 480 333 591 20 102 -20 194 -102
236 -38 19 -129 26 -185 13z"/>
<path d="M3792 3670 c-45 -28 -72 -76 -72 -130 0 -57 25 -99 86 -142 25 -18
67 -51 91 -73 41 -37 45 -45 46 -90 l2 -50 -115 0 c-109 0 -119 -2 -183 -32
-87 -42 -166 -116 -210 -201 -48 -91 -54 -129 -29 -185 22 -50 53 -75 107 -87
77 -17 141 21 195 116 32 58 49 68 86 54 48 -19 156 -12 204 13 67 34 85 66
84 145 l-2 67 37 3 c89 6 152 114 130 226 -15 82 -48 136 -135 223 -149 150
-242 191 -322 143z"/>
<path d="M2430 3621 c-91 -31 -131 -51 -216 -106 -64 -42 -86 -62 -103 -97
-26 -54 -27 -101 -3 -148 43 -86 144 -104 235 -41 70 48 172 93 224 99 l46 5
-5 -79 c-4 -51 -19 -120 -43 -194 -55 -172 -86 -233 -224 -459 -44 -72 -51
-91 -51 -135 0 -104 52 -146 193 -153 88 -4 92 -3 241 51 184 66 226 79 232
73 8 -8 -34 -105 -112 -257 -79 -156 -88 -196 -60 -263 26 -64 125 -127 197
-127 42 0 98 20 129 47 38 31 89 132 163 318 70 175 99 288 100 386 2 186
-125 293 -343 291 -47 -1 -112 -8 -144 -17 -32 -8 -60 -14 -62 -12 -2 1 10 42
26 89 48 145 64 240 64 388 1 121 -1 140 -23 187 -26 59 -78 111 -143 144 -61
32 -238 38 -318 10z"/>
<path d="M1046 3399 c-123 -50 -307 -201 -326 -267 -15 -57 -12 -92 14 -148
32 -70 82 -106 151 -112 42 -3 63 0 95 17 l40 21 0 -23 c0 -38 -18 -128 -73
-362 l-51 -220 -1 -185 c0 -171 2 -188 22 -226 37 -69 91 -109 187 -139 l86
-27 43 21 c45 22 48 26 244 311 40 58 136 201 214 318 102 152 145 210 153
202 17 -17 10 -154 -13 -260 -11 -52 -41 -185 -66 -295 -91 -400 -94 -560 -17
-678 72 -109 230 -117 292 -15 29 48 27 125 -5 172 -48 71 -34 190 91 771 41
191 47 316 27 506 -22 209 -93 293 -248 294 -59 0 -78 -4 -117 -27 -67 -40
-145 -132 -219 -257 -35 -61 -92 -159 -127 -219 -35 -59 -74 -121 -88 -138
l-25 -29 6 35 c111 615 121 702 89 809 -18 62 -73 127 -129 152 -56 26 -183
25 -249 -2z"/>
<path d="M4707 2209 c-98 -23 -176 -93 -198 -178 -7 -28 -15 -51 -18 -51 -3 0
-46 7 -96 16 -123 22 -292 22 -380 0 -38 -9 -101 -32 -140 -51 -179 -86 -242
-202 -270 -498 l-7 -68 -71 68 c-137 130 -223 169 -352 161 -171 -11 -302
-128 -450 -403 -43 -80 -55 -96 -55 -74 0 45 -42 333 -56 384 -21 79 -64 172
-98 212 -57 67 -185 83 -261 32 -76 -51 -97 -167 -51 -277 36 -86 43 -120 66
-325 32 -289 82 -432 191 -551 40 -43 81 -75 131 -101 64 -34 83 -39 153 -42
69 -3 85 -1 120 19 22 13 52 44 69 71 26 42 30 57 29 115 -2 78 11 124 79 282
52 124 133 253 160 258 23 4 78 -47 164 -154 121 -151 196 -197 319 -198 130
-1 235 71 306 209 49 93 73 196 97 405 l7 64 40 9 c28 6 101 2 238 -14 168
-19 208 -20 268 -10 175 29 292 143 335 328 24 101 15 200 -22 259 -49 79
-157 124 -247 103z"/>
</g>
</svg>
