<?xml version="1.0" standalone="no"?>
<!DOCTYPE svg PUBLIC "-//W3C//DTD SVG 20010904//EN"
 "http://www.w3.org/TR/2001/REC-SVG-20010904/DTD/svg10.dtd">
<svg version="1.0" xmlns="http://www.w3.org/2000/svg"
 width="600.000000pt" height="600.000000pt" viewBox="0 0 600.000000 600.000000"
 preserveAspectRatio="xMidYMid meet">
<metadata>
Created by potrace 1.15, written by Peter Selinger 2001-2017
</metadata>
<g transform="translate(0.000000,600.000000) scale(0.100000,-0.100000)"
fill="#16364b" stroke="none">
<path d="M2571 5492 c-54 -57 -113 -207 -119 -303 -6 -94 8 -139 59 -194 69
-75 156 -90 411 -72 l118 9 -159 -159 c-130 -130 -173 -181 -244 -288 -99
-149 -157 -257 -157 -289 0 -38 53 -130 89 -153 31 -21 45 -23 186 -23 147 0
304 -12 582 -46 149 -18 181 -13 227 35 52 55 52 147 0 202 -35 36 -82 45
-305 59 -212 12 -379 30 -379 40 0 12 57 78 242 281 93 103 189 213 214 245
42 56 74 133 74 178 0 44 -23 99 -56 136 -73 80 -185 96 -447 64 -71 -8 -131
-13 -134 -11 -2 3 10 38 27 78 37 83 36 119 -4 179 -30 46 -79 70 -142 70 -42
0 -51 -4 -83 -38z"/>
<path d="M1635 5161 c-132 -47 -241 -117 -356 -228 -105 -101 -175 -192 -231
-300 -32 -63 -39 -85 -35 -116 7 -53 48 -110 94 -132 35 -17 50 -18 198 -7
149 10 266 5 295 -13 8 -5 10 -46 5 -154 -6 -137 -5 -148 15 -179 55 -87 202
-89 253 -3 19 32 42 282 33 359 -19 162 -141 274 -333 305 -40 6 -73 15 -73
19 0 23 211 158 247 158 26 0 74 34 95 68 27 45 28 128 2 174 -38 65 -114 83
-209 49z"/>
<path d="M4306 4730 c-101 -18 -241 -79 -373 -163 -108 -68 -109 -215 -3 -270
42 -21 87 -16 139 18 98 61 253 127 267 112 19 -19 -83 -300 -180 -496 -78
-158 -77 -193 5 -292 57 -68 76 -73 216 -60 152 15 422 16 436 2 19 -19 -52
-276 -129 -464 -47 -115 -53 -160 -29 -208 43 -83 174 -92 243 -17 42 46 193
483 213 618 21 145 -28 265 -137 337 -62 40 -223 59 -397 46 -60 -5 -110 -7
-112 -5 -1 2 22 58 52 125 97 216 117 285 118 412 0 98 -3 115 -25 159 -57
112 -175 168 -304 146z"/>
<path d="M1985 3989 c-53 -21 -148 -46 -385 -104 -152 -37 -183 -54 -216 -117
-33 -64 -6 -157 56 -190 48 -25 80 -23 248 18 81 19 202 49 270 65 224 54 292
100 292 198 0 120 -130 184 -265 130z"/>
<path d="M3730 3666 c-113 -31 -290 -144 -337 -215 -15 -22 -23 -49 -23 -77 0
-80 88 -146 174 -130 19 4 62 27 95 51 32 25 84 56 115 70 l56 25 0 -30 c0
-44 -44 -159 -142 -371 -18 -40 -31 -50 -97 -85 -66 -34 -79 -45 -100 -87 -33
-66 -24 -124 28 -180 32 -34 45 -40 87 -44 43 -4 62 2 164 50 63 30 147 67
185 82 191 75 301 158 325 245 30 110 -42 210 -150 210 -35 0 -41 3 -36 18 17
55 28 164 23 223 -10 114 -58 198 -139 240 -44 22 -156 25 -228 5z"/>
<path d="M2430 3455 c-66 -14 -227 -67 -311 -103 -87 -38 -125 -117 -94 -197
36 -96 129 -120 247 -65 82 38 251 82 303 78 l40 -3 -2 -43 c-2 -54 -25 -122
-75 -229 -44 -95 -47 -132 -15 -193 29 -58 75 -83 143 -77 85 6 117 34 174
151 68 140 94 238 94 356 1 82 -3 103 -25 150 -36 77 -80 124 -146 156 -48 24
-70 28 -162 30 -63 2 -132 -2 -171 -11z"/>
<path d="M1172 3181 c-60 -16 -162 -74 -197 -112 -110 -122 -33 -303 133 -313
l47 -3 -3 -94 c-2 -52 -13 -175 -24 -274 -25 -211 -29 -467 -9 -535 33 -115
147 -181 259 -150 43 11 122 72 122 94 0 6 16 24 35 39 25 20 54 65 96 150 33
67 81 156 106 199 73 122 220 284 240 264 3 -2 7 -78 10 -168 7 -192 -6 -340
-46 -532 -19 -94 -26 -150 -21 -172 30 -131 216 -168 275 -55 30 60 90 391
107 591 13 165 -9 453 -42 547 -62 178 -250 209 -453 75 -75 -49 -176 -148
-245 -240 -30 -40 -57 -71 -59 -69 -2 2 4 64 13 138 9 74 17 190 17 259 0 106
-3 133 -21 181 -27 69 -81 133 -136 161 -45 23 -149 33 -204 19z"/>
<path d="M4782 2705 c-95 -44 -158 -142 -150 -232 3 -42 18 -35 -176 -82 -170
-41 -315 -126 -381 -224 -111 -163 -106 -423 11 -658 l33 -66 -33 -32 c-17
-17 -37 -31 -42 -31 -6 0 -61 23 -124 51 -312 139 -494 117 -708 -86 -66 -62
-110 -118 -199 -252 -63 -95 -123 -175 -133 -178 -11 -4 -41 -23 -68 -44 -69
-55 -88 -64 -112 -51 -61 33 -159 246 -225 492 -8 31 -27 71 -41 88 -79 93
-228 93 -292 0 -38 -57 -45 -102 -27 -183 118 -529 402 -857 692 -798 81 16
177 67 249 133 36 32 69 58 74 58 25 0 84 71 130 158 107 199 191 306 274 347
48 23 57 25 102 15 27 -6 106 -38 175 -70 140 -66 205 -84 288 -78 147 11 311
155 311 275 0 28 5 35 38 48 72 30 133 106 152 188 15 67 -2 127 -56 202 -51
72 -77 139 -72 187 3 32 5 33 73 49 39 9 114 23 169 32 221 35 366 162 407
355 15 74 7 225 -15 277 -52 123 -193 171 -324 110z"/>
<path d="M3060 2489 c-138 -25 -410 -94 -449 -114 -60 -31 -111 -114 -111
-181 0 -65 48 -134 115 -165 54 -25 71 -24 236 15 179 43 428 90 435 83 3 -3
-9 -38 -26 -78 -51 -116 -33 -195 56 -239 92 -45 236 -12 288 67 48 74 70 159
70 268 0 80 -4 111 -22 156 -30 76 -90 142 -160 176 -53 26 -67 28 -187 30
-95 2 -161 -3 -245 -18z"/>
</g>
</svg>
