<?xml version="1.0" standalone="no"?>
<!DOCTYPE svg PUBLIC "-//W3C//DTD SVG 20010904//EN"
 "http://www.w3.org/TR/2001/REC-SVG-20010904/DTD/svg10.dtd">
<svg version="1.0" xmlns="http://www.w3.org/2000/svg"
 width="600.000000pt" height="600.000000pt" viewBox="0 0 600.000000 600.000000"
 preserveAspectRatio="xMidYMid meet">
<metadata>
Created by potrace 1.15, written by Peter Selinger 2001-2017
</metadata>
<g transform="translate(0.000000,600.000000) scale(0.100000,-0.100000)"
fill="#16364b" stroke="none">
<path d="M3308 5455 c-53 -30 -84 -108 -69 -176 13 -59 53 -96 117 -109 62
-13 89 -40 99 -99 7 -44 -10 -153 -36 -230 -11 -30 -19 -70 -19 -89 0 -81 62
-142 144 -142 43 0 53 5 86 38 29 29 45 59 71 137 31 93 33 109 34 235 l0 135
-37 78 c-44 93 -111 162 -193 201 -70 33 -159 43 -197 21z"/>
<path d="M2109 5441 c-84 -27 -114 -84 -114 -217 0 -87 2 -95 30 -135 43 -61
116 -96 243 -117 80 -12 102 -19 102 -32 0 -9 -11 -54 -25 -101 -36 -122 -59
-298 -45 -346 27 -99 133 -144 217 -93 48 29 61 56 82 171 11 57 34 149 51
204 44 136 50 224 20 293 -26 60 -92 125 -154 153 -36 16 -147 38 -193 39 -9
0 -13 16 -13 44 0 70 -58 127 -140 140 -19 3 -47 1 -61 -3z"/>
<path d="M1705 4819 c-90 -12 -275 -56 -342 -81 -158 -58 -160 -246 -3 -288
32 -9 59 -6 147 14 213 48 271 52 463 31 45 -5 61 -2 88 14 90 57 99 195 16
260 -60 47 -227 70 -369 50z"/>
<path d="M4308 4546 c-90 -32 -122 -142 -68 -231 23 -37 55 -56 143 -85 37
-12 82 -34 99 -48 54 -46 62 -79 63 -262 1 -178 4 -190 56 -234 70 -59 176
-14 213 91 24 69 40 267 28 348 -25 155 -113 262 -289 353 -74 38 -199 87
-207 82 -1 -1 -18 -7 -38 -14z"/>
<path d="M3206 4450 c-21 -12 -125 -80 -232 -151 -107 -71 -251 -162 -322
-202 -86 -50 -134 -84 -149 -106 -45 -66 -21 -154 54 -198 90 -53 151 -26 562
243 159 104 254 173 269 194 29 43 30 121 2 167 -40 67 -117 89 -184 53z"/>
<path d="M1576 4425 c-151 -54 -146 -255 9 -294 88 -22 474 -82 567 -88 93 -6
99 -5 136 20 97 64 95 211 -4 269 -20 12 -135 32 -348 63 -175 25 -319 45
-320 45 0 -1 -18 -7 -40 -15z"/>
<path d="M2158 3810 c-147 -42 -313 -64 -431 -56 -89 6 -103 5 -143 -15 -116
-56 -110 -214 10 -276 40 -21 215 -31 346 -21 149 13 390 76 453 120 65 46 84
147 39 207 -57 77 -117 86 -274 41z"/>
<path d="M3690 3811 c-30 -10 -152 -66 -270 -126 -118 -59 -255 -125 -305
-147 -128 -56 -165 -96 -165 -178 0 -60 24 -98 77 -122 63 -28 88 -20 401 129
l265 126 44 -22 c114 -55 217 3 230 132 10 94 -32 172 -112 208 -50 23 -94 23
-165 0z"/>
<path d="M4944 3486 c-63 -29 -109 -84 -124 -147 -10 -42 -9 -61 10 -141 14
-61 20 -108 16 -136 -8 -61 -55 -144 -143 -254 -100 -125 -152 -203 -213 -326
-135 -272 -145 -429 -32 -522 117 -96 320 -23 367 132 39 132 127 294 227 421
207 264 261 391 262 612 1 157 -22 240 -86 302 -85 83 -187 104 -284 59z"/>
<path d="M2010 3163 c-39 -16 -74 -50 -91 -87 -23 -50 -24 -88 -4 -130 26 -55
60 -67 218 -78 253 -17 238 -13 268 -62 47 -77 156 -109 227 -66 117 72 87
257 -57 349 -63 41 -142 58 -291 65 -69 3 -154 8 -190 10 -36 3 -72 3 -80 -1z"/>
<path d="M4348 3156 c-22 -8 -66 -43 -107 -84 -184 -186 -412 -289 -711 -322
-62 -7 -117 -19 -135 -29 -106 -61 -100 -221 10 -275 36 -18 46 -19 152 -7
204 22 369 72 566 172 171 86 343 214 401 298 47 68 35 152 -31 212 -25 24
-41 32 -93 44 -8 2 -32 -2 -52 -9z"/>
<path d="M1368 2970 c-45 -13 -87 -49 -109 -92 -22 -43 -22 -79 -1 -208 6 -36
21 -143 32 -239 49 -405 129 -679 224 -775 46 -46 123 -64 193 -47 139 35 182
156 101 288 -80 131 -114 285 -158 713 -14 126 -35 231 -55 269 -39 77 -141
117 -227 91z"/>
<path d="M2122 2415 c-93 -26 -181 -83 -223 -144 -32 -47 -34 -146 -3 -187 60
-81 128 -90 235 -31 87 49 128 50 164 3 51 -67 151 -87 215 -43 80 54 92 156
29 243 -94 131 -273 199 -417 159z"/>
<path d="M3915 2093 c-202 -31 -412 -70 -605 -112 -129 -27 -291 -59 -359 -71
-138 -23 -169 -37 -207 -92 -78 -113 -28 -254 102 -287 63 -16 260 16 794 128
203 43 362 63 441 55 82 -8 128 6 167 51 63 71 70 185 15 253 -53 65 -83 77
-208 78 -60 1 -123 0 -140 -3z"/>
<path d="M2200 1781 c-56 -29 -80 -73 -80 -145 0 -207 144 -433 337 -528 59
-29 65 -30 107 -18 48 13 89 49 105 93 27 71 1 132 -81 192 -102 74 -151 154
-165 272 -10 91 -72 153 -153 153 -19 0 -51 -8 -70 -19z"/>
<path d="M4705 1673 c-16 -9 -62 -48 -100 -87 -107 -108 -197 -148 -482 -216
-70 -17 -168 -44 -217 -61 -116 -39 -425 -190 -470 -229 -102 -90 -74 -245 57
-306 79 -37 121 -32 235 25 242 121 363 165 614 221 196 43 272 71 370 136 79
53 208 186 237 247 23 48 28 128 10 174 -14 38 -57 83 -96 99 -43 19 -121 17
-158 -3z"/>
<path d="M2086 1025 c-49 -17 -102 -69 -117 -113 -16 -48 -6 -125 21 -164 47
-69 250 -213 408 -289 219 -106 415 -130 616 -75 141 38 281 101 332 150 75
73 80 170 10 239 -79 79 -181 92 -301 40 -221 -98 -398 -63 -706 138 -140 92
-182 103 -263 74z"/>
</g>
</svg>
