<?xml version="1.0" standalone="no"?>
<!DOCTYPE svg PUBLIC "-//W3C//DTD SVG 20010904//EN"
 "http://www.w3.org/TR/2001/REC-SVG-20010904/DTD/svg10.dtd">
<svg version="1.0" xmlns="http://www.w3.org/2000/svg"
 width="600.000000pt" height="600.000000pt" viewBox="0 0 600.000000 600.000000"
 preserveAspectRatio="xMidYMid meet">
<metadata>
Created by potrace 1.15, written by Peter Selinger 2001-2017
</metadata>
<g transform="translate(0.000000,600.000000) scale(0.100000,-0.100000)"
fill="#16364b" stroke="none">
<path d="M2886 5590 c-16 -5 -41 -21 -56 -35 -45 -43 -119 -202 -137 -292 -14
-73 -14 -84 1 -136 20 -70 69 -135 126 -167 43 -24 51 -25 214 -24 l169 2 -34
-25 c-47 -36 -421 -412 -496 -500 -40 -47 -64 -85 -69 -108 -9 -51 17 -112 70
-164 51 -50 99 -64 341 -100 289 -44 343 -53 442 -78 124 -31 163 -27 210 23
56 60 56 148 0 207 -39 41 -102 58 -432 112 -121 20 -222 39 -225 41 -10 10
265 269 349 329 208 149 245 180 269 227 47 91 22 190 -64 249 -93 64 -220 89
-451 89 -77 0 -123 4 -123 10 0 6 18 46 40 90 45 90 50 138 20 187 -34 56
-102 82 -164 63z"/>
<path d="M1588 5285 c-81 -30 -185 -109 -303 -229 -185 -188 -277 -317 -336
-470 -49 -128 -34 -206 51 -263 43 -30 71 -29 204 7 194 52 366 75 366 49 0
-7 -23 -62 -51 -123 -66 -143 -95 -255 -82 -311 6 -22 13 -47 17 -56 5 -11 -3
-20 -29 -32 -50 -24 -75 -70 -75 -137 0 -92 64 -161 150 -164 49 -1 319 101
481 182 158 79 179 101 179 192 0 68 -27 116 -80 142 -56 28 -96 22 -205 -31
-55 -27 -101 -45 -103 -41 -1 4 19 59 46 121 72 167 86 214 86 299 1 120 -42
197 -139 248 -46 24 -60 27 -165 27 -63 0 -141 -3 -173 -8 l-59 -7 64 76 c99
121 184 201 259 245 53 30 74 50 90 81 62 122 -63 253 -193 203z"/>
<path d="M4412 4584 c-29 -7 -123 -42 -210 -76 -135 -54 -160 -68 -179 -97
-45 -67 -20 -174 53 -221 49 -33 97 -26 232 35 67 31 136 58 152 62 l31 6 -27
-74 c-36 -102 -134 -293 -211 -417 -35 -56 -67 -118 -70 -136 -7 -43 27 -117
64 -142 15 -9 37 -30 51 -45 32 -38 68 -46 262 -59 153 -11 305 -32 318 -45 7
-6 -72 -164 -189 -380 -64 -118 -83 -161 -87 -202 -4 -49 -2 -55 30 -87 40
-40 88 -52 146 -37 60 17 88 50 179 217 194 355 234 461 213 561 -33 149 -166
217 -517 265 -51 7 -93 16 -93 19 0 4 21 43 46 86 71 120 140 261 170 349 37
107 40 239 7 299 -49 91 -128 135 -243 134 -41 0 -99 -7 -128 -15z"/>
<path d="M3800 3690 c-140 -18 -248 -152 -238 -294 4 -53 8 -62 41 -92 64 -59
158 -43 216 36 31 43 41 42 41 -4 0 -43 -17 -100 -52 -177 -29 -66 -30 -66
-101 -94 -153 -60 -287 -162 -307 -234 -11 -43 0 -96 30 -134 46 -58 152 -76
207 -34 17 12 52 38 78 57 60 45 112 65 236 90 121 25 170 48 198 93 29 48 28
122 -2 167 l-24 34 20 60 c30 89 29 241 -1 317 -56 142 -196 227 -342 209z"/>
<path d="M2530 3544 c-160 -31 -392 -120 -437 -168 -61 -65 -53 -161 18 -218
59 -48 98 -47 209 5 113 53 247 97 297 97 l36 0 -7 -53 c-9 -82 -71 -259 -138
-395 -56 -113 -60 -126 -56 -174 5 -44 11 -57 43 -86 l37 -35 -30 -23 c-51
-40 -75 -89 -75 -153 0 -100 51 -168 145 -191 42 -11 54 -9 197 39 157 52 239
76 316 90 60 11 59 3 -9 -137 -63 -127 -72 -163 -57 -220 29 -107 144 -166
249 -128 78 28 121 104 207 361 39 115 45 249 16 327 -55 145 -198 214 -390
188 -47 -6 -146 -27 -219 -46 -74 -19 -135 -34 -137 -34 -1 0 25 55 59 123 62
123 126 297 145 395 18 87 14 204 -9 264 -22 61 -75 120 -134 151 -33 17 -61
21 -146 23 -58 1 -116 0 -130 -2z"/>
<path d="M1115 3256 c-59 -19 -112 -49 -190 -108 -105 -80 -137 -157 -100
-246 36 -86 105 -126 207 -120 52 3 68 1 68 -10 0 -7 -20 -131 -45 -275 -50
-299 -62 -437 -46 -550 14 -97 40 -149 93 -184 34 -23 55 -29 118 -31 116 -6
142 11 225 145 155 252 309 491 346 538 51 66 109 129 113 124 42 -50 33 -301
-25 -701 -46 -323 -42 -374 34 -432 66 -50 146 -46 201 9 l34 34 17 -97 c61
-346 105 -518 174 -666 106 -230 309 -317 517 -222 35 16 83 53 134 103 69 69
86 93 139 200 105 213 228 392 279 405 30 8 68 -13 182 -98 144 -108 212 -138
315 -139 68 0 89 4 137 28 74 36 151 106 177 160 12 24 35 56 52 73 74 69 84
146 44 339 -33 162 -33 192 3 206 15 6 96 10 181 10 247 -1 330 20 422 106 94
88 137 211 125 361 -8 103 -35 170 -88 217 -48 44 -76 55 -139 55 -100 0 -203
-80 -233 -181 -9 -29 -16 -63 -16 -76 0 -23 -2 -23 -108 -23 -364 0 -558 -97
-634 -318 -32 -92 -32 -292 0 -431 12 -52 20 -96 18 -99 -3 -2 -52 30 -111 72
-133 94 -193 118 -307 124 -105 5 -164 -11 -256 -70 -122 -79 -217 -208 -345
-468 -101 -207 -109 -214 -151 -132 -39 78 -69 190 -121 460 -21 104 -42 186
-54 206 -62 100 -226 101 -309 0 l-32 -39 0 30 c0 17 11 111 25 210 41 290 55
448 55 642 0 262 -26 401 -88 467 -115 123 -298 69 -506 -147 -60 -63 -172
-203 -196 -247 -18 -32 -16 1 12 145 15 83 31 202 35 266 5 102 3 125 -16 189
-39 127 -138 201 -270 199 -31 0 -74 -6 -96 -13z"/>
</g>
</svg>
