<?xml version="1.0" standalone="no"?>
<!DOCTYPE svg PUBLIC "-//W3C//DTD SVG 20010904//EN"
 "http://www.w3.org/TR/2001/REC-SVG-20010904/DTD/svg10.dtd">
<svg version="1.0" xmlns="http://www.w3.org/2000/svg"
 width="600.000000pt" height="600.000000pt" viewBox="0 0 600.000000 600.000000"
 preserveAspectRatio="xMidYMid meet">
<metadata>
Created by potrace 1.15, written by Peter Selinger 2001-2017
</metadata>
<g transform="translate(0.000000,600.000000) scale(0.100000,-0.100000)"
fill="#16364b" stroke="none">
<path d="M2134 5446 c-66 -29 -118 -142 -118 -256 0 -152 90 -221 307 -236 59
-4 107 -10 107 -14 0 -5 -15 -48 -34 -96 -58 -150 -89 -272 -90 -351 -1 -69 0
-73 34 -108 65 -67 159 -67 217 -1 23 25 33 53 47 122 10 49 42 163 72 253 76
225 76 305 -1 406 -44 57 -114 85 -233 92 l-102 6 0 46 c0 111 -105 181 -206
137z"/>
<path d="M3504 5411 c-89 -15 -129 -68 -122 -163 4 -50 9 -64 36 -90 28 -29
38 -32 112 -37 106 -8 113 -17 107 -126 -3 -52 -15 -113 -36 -176 -37 -114
-39 -154 -8 -200 57 -86 181 -91 248 -11 36 42 96 231 111 346 11 85 10 108
-4 178 -37 175 -147 266 -343 281 -33 3 -79 2 -101 -2z"/>
<path d="M1682 4839 c-98 -9 -271 -51 -360 -86 -77 -31 -104 -65 -110 -139 -4
-44 0 -61 21 -97 43 -73 116 -94 208 -62 l44 16 -37 -38 c-68 -71 -70 -169 -6
-234 38 -37 69 -44 273 -64 94 -9 222 -25 285 -36 63 -12 131 -23 151 -26 142
-21 229 152 127 253 -38 38 -44 40 -403 99 -121 20 -247 42 -280 48 l-60 13
55 12 c119 26 203 32 302 20 86 -11 102 -10 133 5 48 23 75 70 75 133 0 104
-81 166 -243 184 -45 6 -84 9 -87 9 -3 -1 -42 -5 -88 -10z"/>
<path d="M4293 4441 c-82 -38 -111 -146 -57 -210 36 -43 52 -50 153 -65 100
-15 155 -38 179 -74 24 -37 28 -189 8 -289 -20 -101 -20 -138 0 -173 49 -82
183 -79 238 5 29 44 58 193 59 295 1 163 -58 324 -151 416 -65 63 -154 93
-322 108 -52 5 -73 2 -107 -13z"/>
<path d="M3105 4359 c-130 -72 -520 -269 -534 -269 -21 0 -80 -62 -91 -95 -31
-93 47 -195 149 -195 43 0 163 53 306 135 44 25 125 69 180 97 188 95 230 120
261 152 43 45 51 95 24 149 -28 58 -63 80 -130 84 -52 4 -62 0 -165 -58z"/>
<path d="M2125 3844 c-171 -48 -296 -72 -406 -77 -110 -5 -144 -18 -176 -66
-47 -69 -25 -170 50 -225 64 -47 326 -28 551 39 240 72 272 91 296 172 11 37
11 49 -4 88 -11 27 -32 56 -53 72 -52 40 -112 39 -258 -3z"/>
<path d="M3693 3775 c-66 -18 -363 -138 -518 -209 -149 -68 -175 -95 -175
-176 0 -85 47 -143 132 -164 39 -9 121 21 332 121 178 84 195 88 196 47 0 -16
41 -51 75 -64 81 -31 167 29 206 145 76 226 -33 358 -248 300z"/>
<path d="M4956 3431 c-60 -25 -103 -63 -127 -116 -23 -50 -24 -105 -3 -186 33
-128 6 -195 -146 -362 -109 -120 -170 -210 -222 -328 -57 -130 -79 -211 -85
-325 -7 -118 4 -159 54 -215 96 -106 287 -75 362 60 15 27 26 70 32 119 14
126 72 231 210 378 189 203 267 365 277 575 5 112 -9 222 -34 270 -62 121
-200 177 -318 130z"/>
<path d="M2001 3189 c-88 -39 -113 -153 -50 -233 38 -49 70 -57 263 -69 l181
-12 5 -35 c23 -137 198 -169 277 -50 31 45 32 173 2 240 -60 133 -149 165
-482 173 -134 3 -163 1 -196 -14z"/>
<path d="M4318 3166 c-21 -7 -71 -44 -111 -82 -41 -38 -114 -93 -162 -121
-150 -90 -405 -180 -557 -198 -71 -9 -112 -34 -138 -84 -35 -70 -21 -139 39
-196 31 -29 36 -30 119 -29 188 2 572 137 784 277 111 73 198 150 226 200 42
74 12 171 -65 214 -53 29 -92 35 -135 19z"/>
<path d="M1337 3000 c-114 -34 -170 -172 -116 -290 23 -51 43 -173 59 -358 36
-414 139 -683 277 -721 52 -15 83 -14 134 4 119 42 150 143 85 279 -46 97 -62
178 -81 401 -24 287 -63 472 -122 572 -56 97 -147 140 -236 113z"/>
<path d="M2156 2439 c-91 -22 -248 -121 -299 -190 -30 -41 -33 -107 -8 -158
27 -52 72 -81 129 -81 52 0 72 10 134 65 26 23 64 50 84 60 l38 18 35 -41 c66
-74 125 -89 201 -49 84 43 104 139 50 235 -69 119 -216 176 -364 141z"/>
<path d="M3824 2160 c-29 -4 -125 -28 -215 -54 -210 -59 -261 -69 -551 -111
-258 -37 -286 -46 -325 -104 -53 -78 -39 -178 36 -253 63 -63 88 -66 286 -39
306 43 397 59 689 120 118 25 196 27 238 5 22 -11 49 -15 89 -12 101 7 162 78
162 188 0 129 -107 234 -265 260 -69 11 -70 11 -144 0z"/>
<path d="M2279 1926 c-20 -14 -43 -35 -52 -49 -53 -81 -66 -269 -28 -389 49
-152 178 -320 256 -333 58 -9 112 12 149 58 27 33 31 47 31 96 0 52 -4 64 -43
119 -88 125 -104 188 -88 337 6 58 4 76 -11 105 -41 78 -142 105 -214 56z"/>
<path d="M4655 1631 c-22 -10 -65 -45 -95 -76 -88 -93 -157 -126 -330 -160
-337 -66 -427 -93 -595 -177 -270 -135 -325 -183 -325 -283 0 -119 122 -216
239 -190 17 3 65 29 106 56 160 104 264 143 510 190 273 52 428 105 565 194
195 127 255 242 186 359 -52 88 -174 129 -261 87z"/>
<path d="M2075 1093 c-108 -56 -156 -184 -105 -282 49 -96 219 -241 363 -310
152 -72 302 -104 487 -104 145 0 257 26 396 93 80 39 106 57 128 89 57 82 42
189 -36 255 -72 62 -166 66 -249 12 -83 -55 -136 -70 -249 -70 -88 0 -116 4
-172 26 -104 39 -172 85 -280 186 -54 51 -114 100 -133 108 -45 18 -112 17
-150 -3z"/>
</g>
</svg>
