<?xml version="1.0" standalone="no"?>
<!DOCTYPE svg PUBLIC "-//W3C//DTD SVG 20010904//EN"
 "http://www.w3.org/TR/2001/REC-SVG-20010904/DTD/svg10.dtd">
<svg version="1.0" xmlns="http://www.w3.org/2000/svg"
 width="600.000000pt" height="600.000000pt" viewBox="0 0 600.000000 600.000000"
 preserveAspectRatio="xMidYMid meet">
<metadata>
Created by potrace 1.15, written by Peter Selinger 2001-2017
</metadata>
<g transform="translate(0.000000,600.000000) scale(0.100000,-0.100000)"
fill="#16364b" stroke="none">
<path d="M2945 5586 c-45 -20 -69 -52 -125 -165 -94 -188 -97 -310 -13 -406
57 -65 114 -84 291 -99 l144 -11 -69 -50 c-132 -97 -253 -204 -415 -367 -113
-114 -135 -152 -123 -214 7 -42 62 -106 111 -129 20 -9 151 -43 292 -75 274
-63 316 -73 459 -114 77 -23 98 -25 130 -17 39 11 81 47 102 88 19 37 13 107
-12 144 -19 30 -36 39 -137 72 -123 41 -395 111 -473 122 -26 4 -50 11 -52 16
-12 18 139 131 403 304 151 98 218 164 238 232 31 106 -16 197 -129 253 -92
45 -157 53 -351 46 l-169 -7 6 28 c3 15 22 62 41 104 24 51 36 91 36 120 0
103 -93 166 -185 125z"/>
<path d="M1502 5305 c-104 -48 -270 -200 -371 -338 -65 -89 -143 -243 -182
-358 -36 -109 -35 -172 7 -226 54 -71 99 -77 289 -34 124 28 199 42 293 55 38
6 42 4 42 -15 0 -12 -34 -94 -76 -183 -93 -197 -106 -231 -102 -278 2 -31 -4
-44 -29 -70 -35 -37 -53 -76 -53 -116 1 -42 35 -107 69 -132 59 -41 90 -38
272 33 430 167 472 195 473 312 0 89 -61 155 -146 155 -18 0 -75 -19 -125 -42
-51 -23 -95 -39 -99 -36 -3 3 17 51 45 106 68 135 93 213 94 292 1 111 -54
196 -157 241 -43 20 -69 23 -166 24 -63 0 -144 -4 -178 -8 l-64 -8 19 31 c57
98 211 248 299 291 116 56 142 147 75 256 -25 40 -88 73 -138 73 -21 0 -62
-11 -91 -25z"/>
<path d="M4465 4526 c-131 -35 -346 -115 -374 -140 -29 -25 -51 -75 -51 -113
0 -40 32 -94 70 -120 48 -33 99 -29 215 16 137 53 205 73 205 59 0 -37 -144
-276 -306 -508 -44 -61 -46 -68 -42 -119 4 -48 9 -58 44 -88 21 -19 48 -42 59
-52 42 -38 73 -50 165 -61 191 -23 410 -80 410 -106 0 -17 -68 -157 -133 -271
-125 -220 -144 -280 -112 -343 25 -49 62 -70 120 -70 77 0 107 25 180 150 34
58 92 155 129 215 181 299 175 457 -22 583 -58 38 -258 105 -362 122 -41 7
-80 14 -86 15 -7 2 26 61 72 131 154 234 234 423 220 521 -12 89 -68 158 -153
189 -56 20 -147 16 -248 -10z"/>
<path d="M3775 3691 c-107 -28 -174 -118 -174 -236 -1 -67 28 -129 70 -150 48
-25 122 -16 158 20 29 26 29 27 36 6 8 -28 -1 -72 -32 -143 -23 -53 -28 -57
-76 -73 -93 -30 -170 -78 -245 -152 -40 -40 -80 -89 -88 -108 -44 -106 27
-215 139 -215 63 0 79 9 157 91 74 76 111 92 258 108 45 5 93 16 108 25 56 38
78 113 53 184 -9 25 -7 42 6 79 23 66 30 186 16 255 -26 124 -116 245 -214
288 -50 22 -130 32 -172 21z"/>
<path d="M2455 3561 c-121 -33 -303 -121 -348 -169 -56 -58 -55 -159 2 -215
24 -24 40 -31 84 -35 50 -4 65 0 162 47 131 63 218 93 259 89 28 -3 31 -7 34
-41 7 -80 -76 -308 -169 -464 -63 -107 -73 -162 -40 -219 l22 -37 -20 -48
c-24 -54 -25 -78 -11 -131 21 -76 102 -137 181 -138 20 0 85 18 144 40 198 75
335 107 335 80 0 -17 -65 -181 -94 -239 -63 -123 -37 -240 65 -291 44 -23 75
-25 133 -8 65 20 123 87 188 218 83 171 103 242 103 375 0 100 -2 115 -27 161
-34 66 -104 127 -177 156 -78 31 -254 30 -394 -1 -55 -13 -101 -21 -103 -18
-2 2 27 69 65 148 39 79 82 184 96 233 64 224 8 401 -157 491 -48 27 -63 30
-158 32 -79 2 -123 -2 -175 -16z"/>
<path d="M1090 3294 c-59 -16 -117 -47 -196 -105 -97 -71 -122 -120 -111 -215
6 -57 47 -111 107 -141 51 -27 96 -29 145 -9 19 8 35 12 35 8 0 -4 -7 -45 -16
-92 -65 -365 -66 -376 -71 -575 -6 -235 3 -298 49 -351 45 -51 81 -66 172 -71
124 -7 123 -7 311 275 88 132 202 306 254 386 52 80 98 146 102 146 4 0 10
-13 14 -30 4 -16 11 -32 16 -35 21 -14 8 -188 -47 -620 -29 -228 -30 -378 -1
-432 53 -101 209 -112 266 -19 16 26 19 50 19 156 0 136 18 301 59 535 20 113
27 186 27 295 1 136 -1 152 -32 260 -48 166 -60 194 -99 240 -75 87 -179 103
-280 44 -93 -54 -217 -193 -342 -381 -34 -51 -63 -93 -64 -93 -5 0 2 52 40
270 44 253 47 346 14 412 -61 126 -213 184 -371 142z"/>
<path d="M4756 2400 c-90 -29 -186 -150 -186 -235 l0 -25 -162 6 c-192 7 -272
-5 -385 -61 -184 -91 -254 -241 -257 -552 0 -84 -2 -153 -3 -153 -2 0 -40 28
-85 61 -120 89 -173 111 -284 117 -117 6 -178 -12 -270 -77 -79 -55 -150 -132
-218 -238 -49 -76 -124 -222 -162 -313 -12 -30 -26 -56 -32 -58 -24 -8 -73
170 -131 471 -35 180 -59 245 -107 287 -91 79 -231 54 -283 -52 -26 -55 -26
-93 -2 -200 11 -46 29 -148 41 -228 12 -80 32 -193 46 -251 62 -262 194 -420
375 -448 112 -18 261 24 310 88 13 17 37 47 52 66 16 19 46 80 67 135 41 108
110 242 171 331 36 54 101 119 118 119 15 0 124 -78 196 -140 145 -125 285
-167 408 -120 82 31 150 88 182 154 15 30 34 61 42 67 21 18 45 69 53 112 4
21 2 89 -6 150 -7 62 -13 149 -14 193 0 76 1 82 23 88 34 9 111 7 243 -6 97
-9 136 -9 193 1 136 24 238 97 294 208 34 66 47 137 47 247 0 83 -3 100 -28
147 -37 71 -90 109 -163 114 -29 3 -67 0 -83 -5z"/>
</g>
</svg>
