<?xml version="1.0" standalone="no"?>
<!DOCTYPE svg PUBLIC "-//W3C//DTD SVG 20010904//EN"
 "http://www.w3.org/TR/2001/REC-SVG-20010904/DTD/svg10.dtd">
<svg version="1.0" xmlns="http://www.w3.org/2000/svg"
 width="600.000000pt" height="600.000000pt" viewBox="0 0 600.000000 600.000000"
 preserveAspectRatio="xMidYMid meet">
<metadata>
Created by potrace 1.15, written by Peter Selinger 2001-2017
</metadata>
<g transform="translate(0.000000,600.000000) scale(0.100000,-0.100000)"
fill="#16364b" stroke="none">
<path d="M3082 5659 c-49 -25 -75 -66 -74 -120 1 -75 41 -119 162 -179 156
-78 281 -186 323 -280 67 -150 -24 -269 -307 -402 -104 -48 -124 -65 -141
-114 -32 -95 44 -187 154 -186 101 1 343 127 459 240 113 110 164 224 165 372
1 101 -13 159 -61 255 -33 67 -157 188 -264 258 -116 77 -311 177 -345 177
-16 0 -47 -10 -71 -21z"/>
<path d="M2097 5616 c-20 -8 -70 -45 -110 -82 -39 -38 -117 -107 -172 -152
-137 -114 -268 -244 -310 -307 -40 -61 -61 -136 -51 -187 3 -19 20 -56 36 -82
100 -156 422 -155 796 4 64 27 128 59 142 72 30 28 62 94 62 128 0 42 -37 108
-72 130 -48 29 -90 25 -208 -20 -102 -39 -239 -80 -268 -80 -8 0 53 68 136
150 171 170 206 219 206 292 0 99 -95 167 -187 134z"/>
<path d="M1020 5323 c-99 -55 -200 -163 -248 -265 -111 -232 -93 -460 51 -630
86 -102 178 -134 253 -88 59 37 93 146 62 203 -6 12 -30 43 -53 69 -54 60 -77
110 -83 174 -8 101 29 164 144 244 88 61 114 103 114 182 0 59 -20 99 -66 129
-45 30 -99 24 -174 -18z"/>
<path d="M4684 4836 c-17 -8 -44 -30 -59 -50 -23 -30 -28 -49 -32 -114 -9
-138 -6 -159 33 -240 74 -153 191 -234 339 -235 83 0 143 23 205 79 55 50 82
105 88 180 4 51 1 71 -19 111 -48 100 -178 190 -367 254 -94 32 -141 35 -188
15z"/>
<path d="M2768 4778 c-58 -30 -104 -64 -154 -113 -89 -89 -117 -144 -122 -248
-4 -72 -2 -83 27 -142 49 -99 131 -158 263 -191 82 -20 133 -9 177 41 39 45
48 93 27 148 -21 52 -53 76 -130 97 -40 10 -62 21 -64 32 -5 26 55 85 130 129
58 34 73 49 90 86 44 99 -23 203 -131 203 -16 0 -67 -19 -113 -42z"/>
<path d="M1800 4327 c-137 -41 -274 -128 -327 -206 -57 -85 0 -210 109 -242
58 -16 97 -1 170 68 106 99 174 121 269 87 66 -23 124 -11 170 35 43 43 54 75
44 128 -23 124 -238 188 -435 130z"/>
<path d="M2645 3814 c-246 -33 -325 -81 -325 -198 0 -86 52 -147 127 -149 21
0 88 8 148 18 117 19 185 15 185 -10 0 -25 -46 -138 -80 -195 -73 -124 -259
-378 -345 -470 -62 -66 -75 -90 -75 -135 0 -106 133 -195 230 -155 71 29 402
477 508 686 142 281 85 514 -143 587 -52 16 -178 28 -230 21z"/>
<path d="M4153 3761 c-189 -30 -287 -140 -269 -300 13 -113 99 -240 198 -293
36 -19 58 -23 138 -23 115 0 156 18 238 103 67 70 134 203 140 278 9 103 -45
205 -118 224 -51 13 -266 20 -327 11z m77 -301 c0 -15 -26 -23 -41 -14 -9 5
-7 10 7 15 27 11 34 10 34 -1z"/>
<path d="M1194 3656 c-84 -19 -351 -130 -382 -158 -76 -70 -66 -199 21 -275
52 -46 107 -59 166 -39 25 8 47 13 49 12 1 -2 -4 -19 -12 -37 -29 -64 -214
-584 -234 -659 -26 -94 -52 -232 -52 -276 0 -51 38 -122 82 -154 28 -21 56
-30 102 -35 108 -12 137 8 350 245 72 80 156 172 187 205 68 71 153 174 228
273 30 40 58 69 62 65 11 -12 -8 -270 -26 -355 -8 -43 -38 -151 -64 -240 -76
-253 -141 -509 -141 -553 0 -53 30 -99 79 -125 67 -34 140 -21 189 33 29 31
63 145 103 347 17 85 50 225 74 310 24 85 50 189 59 230 21 107 39 367 35 490
-4 91 -8 113 -33 163 -39 80 -85 110 -178 115 -62 4 -76 1 -135 -28 -79 -39
-179 -136 -308 -297 -49 -62 -91 -111 -93 -108 -2 2 42 120 98 262 94 236 104
265 108 339 4 72 2 86 -22 131 -53 105 -172 150 -312 119z"/>
<path d="M3558 3335 c-137 -50 -232 -195 -245 -372 -5 -61 -3 -76 16 -106 28
-46 98 -81 149 -74 257 33 370 86 426 199 46 92 28 190 -50 277 -73 81 -197
113 -296 76z"/>
<path d="M4797 2795 c-96 -36 -177 -112 -205 -194 -52 -150 67 -343 233 -382
68 -15 125 1 173 49 43 43 62 95 69 198 5 64 3 79 -19 126 -14 29 -28 73 -31
96 -12 98 -112 146 -220 107z"/>
<path d="M2938 2490 c-96 -15 -199 -55 -396 -154 -201 -101 -242 -132 -261
-203 -15 -53 -13 -82 8 -128 22 -48 67 -89 117 -105 66 -22 119 -8 309 82 186
88 240 110 248 101 3 -2 -4 -37 -14 -76 -39 -140 -71 -222 -140 -359 -55 -111
-60 -148 -28 -215 55 -114 201 -147 291 -65 76 69 218 383 262 583 55 245 22
405 -101 489 -70 48 -184 67 -295 50z"/>
<path d="M4331 2378 c-47 -23 -93 -79 -112 -135 -11 -33 -9 -72 7 -217 6 -55
5 -59 -12 -52 -114 44 -194 59 -319 60 -125 1 -132 0 -188 -28 -100 -51 -164
-144 -188 -272 -16 -83 -4 -354 20 -481 23 -120 50 -175 108 -219 132 -101
334 -41 379 112 13 46 13 63 -6 190 -11 76 -20 151 -20 166 l0 27 83 -30 c169
-62 163 -61 261 -44 104 18 178 49 233 99 46 41 95 129 112 200 24 99 10 331
-28 474 -38 138 -202 214 -330 150z"/>
<path d="M2127 1869 c-83 -13 -138 -61 -157 -140 -19 -80 19 -167 89 -204 24
-12 32 -31 71 -168 l43 -155 -17 -43 c-47 -117 0 -306 111 -446 127 -160 218
-233 403 -322 186 -91 293 -101 460 -44 90 30 214 95 253 131 104 98 76 246
-58 308 -74 35 -116 31 -215 -18 -66 -34 -95 -43 -131 -42 -44 2 -149 39 -149
54 0 4 7 22 16 40 22 43 21 126 -1 170 -10 19 -44 62 -76 95 -32 33 -79 83
-106 110 -26 28 -60 59 -74 71 -19 16 -37 56 -73 170 -65 206 -86 256 -126
316 -60 89 -158 132 -263 117z"/>
</g>
</svg>
