<?xml version="1.0" standalone="no"?>
<!DOCTYPE svg PUBLIC "-//W3C//DTD SVG 20010904//EN"
 "http://www.w3.org/TR/2001/REC-SVG-20010904/DTD/svg10.dtd">
<svg version="1.0" xmlns="http://www.w3.org/2000/svg"
 width="600.000000pt" height="600.000000pt" viewBox="0 0 600.000000 600.000000"
 preserveAspectRatio="xMidYMid meet">
<metadata>
Created by potrace 1.15, written by Peter Selinger 2001-2017
</metadata>
<g transform="translate(0.000000,600.000000) scale(0.100000,-0.100000)"
fill="#16364b" stroke="none">
<path d="M1543 5790 c-28 -11 -40 -36 -103 -206 -109 -296 -117 -415 -31 -507
32 -34 45 -40 88 -44 68 -7 121 19 213 104 71 66 257 278 304 348 53 78 15
170 -78 187 -62 12 -90 -7 -197 -133 -56 -66 -103 -118 -106 -116 -2 3 17 60
42 128 42 112 46 127 36 161 -22 71 -97 106 -168 78z"/>
<path d="M853 5546 c-106 -35 -229 -148 -285 -264 -30 -61 -33 -75 -33 -162 0
-81 4 -102 24 -140 73 -140 167 -198 250 -156 39 21 61 58 61 103 -1 47 -14
70 -62 112 -33 29 -38 39 -38 76 0 29 8 54 28 83 57 86 130 113 197 73 127
-74 256 84 160 197 -13 15 -47 41 -76 56 -62 35 -160 44 -226 22z"/>
<path d="M3483 5385 c-35 -15 -63 -60 -63 -101 0 -15 8 -45 19 -68 10 -23 24
-63 30 -90 6 -27 27 -72 47 -102 95 -143 235 -204 314 -138 96 82 76 216 -54
360 -42 46 -76 72 -146 107 -101 52 -102 52 -147 32z"/>
<path d="M2343 5356 c-58 -26 -67 -60 -53 -207 13 -144 8 -214 -22 -312 -30
-98 -86 -156 -217 -226 -89 -48 -103 -59 -122 -98 -26 -55 -19 -104 21 -145
44 -43 91 -39 198 18 221 119 301 210 349 400 25 98 24 463 -1 512 -30 58 -96
83 -153 58z"/>
<path d="M3011 5149 c-101 -19 -172 -76 -217 -173 -75 -162 33 -334 196 -311
72 11 167 54 199 90 36 41 67 164 57 228 -18 119 -116 188 -235 166z"/>
<path d="M4769 4800 c-89 -24 -103 -58 -96 -220 11 -247 101 -429 244 -492
180 -80 367 62 350 267 -12 150 -107 264 -325 390 -91 52 -133 65 -173 55z
m237 -432 c8 -16 13 -32 10 -35 -5 -6 -46 56 -46 70 0 15 20 -4 36 -35z"/>
<path d="M2700 4214 c-114 -31 -188 -97 -216 -192 -33 -111 23 -219 146 -283
39 -21 59 -24 151 -24 104 0 107 1 190 42 310 155 355 329 106 413 -173 60
-275 71 -377 44z"/>
<path d="M1062 4090 c-67 -41 -92 -131 -56 -205 27 -58 54 -74 150 -91 93 -15
144 -31 144 -44 0 -15 -112 -91 -197 -134 -48 -24 -127 -56 -175 -70 -97 -30
-134 -54 -154 -102 -20 -48 -17 -82 11 -130 34 -57 80 -73 161 -55 139 31 350
117 471 192 l32 20 11 -43 c7 -27 27 -59 55 -88 24 -25 62 -66 85 -92 24 -27
67 -60 99 -75 47 -24 69 -28 136 -28 92 0 137 19 196 82 92 97 103 214 30 324
-74 109 -262 157 -413 103 -55 -19 -59 -18 -48 12 15 39 12 135 -6 187 -18 54
-80 128 -137 164 -48 30 -128 59 -220 78 -92 20 -136 19 -175 -5z"/>
<path d="M4213 3781 c-101 -35 -194 -116 -241 -211 -23 -47 -27 -68 -27 -140
0 -74 3 -91 27 -131 59 -100 151 -152 268 -152 96 0 152 24 225 96 84 85 136
205 150 349 11 112 -27 162 -150 194 -70 19 -189 16 -252 -5z m87 -289 c0 -9
-36 -44 -57 -56 -9 -5 -13 0 -13 13 0 12 11 27 28 35 31 17 42 19 42 8z"/>
<path d="M5148 3516 c-111 -47 -222 -146 -269 -243 -34 -68 -34 -189 -1 -251
60 -113 161 -179 259 -169 174 18 311 173 321 363 4 72 1 89 -21 137 -27 59
-105 150 -149 173 -38 20 -74 17 -140 -10z m5 -341 c-3 -9 -8 -14 -10 -11 -3
3 -2 9 2 15 9 16 15 13 8 -4z"/>
<path d="M3435 3386 c-42 -18 -106 -93 -159 -185 -57 -99 -67 -137 -51 -185
21 -60 65 -84 133 -71 123 22 218 119 258 263 16 57 16 64 0 104 -9 24 -28 51
-42 62 -34 24 -101 30 -139 12z"/>
<path d="M2496 3344 c-92 -29 -175 -94 -238 -187 -45 -66 -99 -172 -118 -232
-39 -123 -106 -207 -213 -271 -90 -53 -182 -131 -310 -263 -201 -207 -257
-320 -292 -584 -37 -286 -4 -428 145 -625 167 -222 396 -338 707 -358 213 -14
407 49 593 192 196 150 309 319 358 539 28 119 80 392 92 480 16 117 12 311
-10 437 -23 134 -51 232 -114 394 -26 65 -52 133 -59 149 -23 61 -82 152 -136
208 -79 83 -175 129 -279 134 -50 2 -94 -3 -126 -13z m139 -424 c13 -21 27
-51 31 -67 4 -15 31 -81 61 -145 75 -165 94 -248 100 -443 9 -252 -25 -512
-85 -667 -83 -214 -319 -389 -524 -388 -220 1 -469 173 -507 350 -16 72 -14
186 4 254 33 128 148 298 270 403 26 22 82 60 123 83 92 51 214 143 263 197
67 74 95 132 148 308 33 107 65 170 82 160 5 -4 21 -24 34 -45z"/>
<path d="M511 2384 c-19 -16 -33 -39 -37 -62 -4 -20 -19 -52 -35 -69 -42 -49
-45 -86 -13 -173 81 -226 248 -456 398 -548 56 -34 67 -37 138 -37 69 0 80 3
120 30 52 37 105 121 114 182 30 198 -165 459 -487 651 -103 62 -149 68 -198
26z m293 -370 c95 -78 166 -185 166 -249 0 -29 -2 -30 -38 -11 -41 22 -115
103 -165 181 -44 69 -87 148 -87 160 0 11 60 -29 124 -81z"/>
<path d="M4274 2099 c-18 -5 -46 -25 -64 -46 -31 -35 -33 -36 -59 -21 -91 53
-196 14 -243 -90 -23 -51 -20 -88 24 -302 31 -147 44 -186 72 -210 9 -7 30
-39 47 -71 71 -133 218 -167 326 -75 75 65 113 206 134 495 14 191 9 221 -50
274 -56 51 -118 66 -187 46z"/>
</g>
</svg>
