<?xml version="1.0" standalone="no"?>
<!DOCTYPE svg PUBLIC "-//W3C//DTD SVG 20010904//EN"
 "http://www.w3.org/TR/2001/REC-SVG-20010904/DTD/svg10.dtd">
<svg version="1.0" xmlns="http://www.w3.org/2000/svg"
 width="600.000000pt" height="600.000000pt" viewBox="0 0 600.000000 600.000000"
 preserveAspectRatio="xMidYMid meet">
<metadata>
Created by potrace 1.15, written by Peter Selinger 2001-2017
</metadata>
<g transform="translate(0.000000,600.000000) scale(0.100000,-0.100000)"
fill="#16364b" stroke="none">
<path d="M3542 5269 c-32 -33 -35 -54 -17 -108 46 -138 179 -252 259 -221 67
25 51 117 -44 245 -57 77 -83 97 -133 102 -37 4 -48 2 -65 -18z m102 -106 c34
-43 76 -107 76 -117 0 -16 -51 37 -81 83 -16 25 -29 49 -29 53 0 15 12 8 34
-19z"/>
<path d="M3015 5070 c-72 -34 -118 -89 -141 -166 -43 -150 56 -235 180 -153
82 55 135 147 136 236 0 45 -4 54 -31 77 -37 32 -87 34 -144 6z m89 -103 c-2
-45 -43 -109 -93 -143 -49 -33 -61 -31 -61 11 0 79 83 180 140 172 10 -2 15
-14 14 -40z"/>
<path d="M4766 4701 c-20 -22 -22 -35 -37 -247 -21 -300 20 -437 124 -410 47
12 52 35 55 274 4 253 -7 357 -39 385 -28 23 -81 22 -103 -2z"/>
<path d="M2625 4216 c-49 -49 -41 -119 19 -155 82 -49 296 -111 383 -111 69 0
103 29 103 88 0 63 -27 81 -220 145 -194 65 -247 71 -285 33z"/>
<path d="M1577 4186 c-112 -30 -180 -117 -181 -231 -1 -87 38 -162 115 -223
69 -53 93 -92 142 -222 85 -228 110 -386 127 -820 9 -219 40 -518 76 -740 63
-382 145 -528 356 -634 93 -46 219 -89 300 -101 l44 -7 -4 -158 c-5 -186 11
-303 63 -468 38 -120 38 -121 -40 -122 -117 -1 -185 -43 -185 -116 0 -77 47
-109 150 -102 115 9 233 77 266 155 21 50 17 85 -21 178 -60 145 -78 239 -79
410 -1 83 3 163 7 179 8 27 10 28 55 23 94 -12 601 -29 754 -25 92 2 158 -1
158 -6 0 -5 -5 -38 -11 -73 -15 -84 2 -197 40 -278 16 -33 56 -90 90 -126 33
-37 57 -69 54 -73 -4 -3 -36 -6 -73 -6 -84 0 -130 -26 -144 -83 -18 -69 44
-120 144 -119 138 2 250 88 250 193 0 50 -25 93 -109 188 -87 99 -96 121 -95
226 0 49 31 165 47 182 3 2 58 13 123 24 156 26 265 58 438 125 246 96 377
177 468 289 96 118 134 243 124 401 -23 340 -217 608 -474 656 -80 15 -180 0
-317 -47 -121 -41 -266 -60 -384 -50 -214 17 -545 101 -697 178 -171 86 -351
231 -473 381 -32 39 -109 147 -171 241 -208 314 -304 424 -555 633 -195 163
-270 196 -378 168z m137 -193 c15 -8 47 -31 70 -52 22 -20 60 -50 84 -66 78
-52 235 -228 353 -395 246 -350 349 -480 499 -628 175 -174 398 -293 679 -361
344 -85 349 -86 496 -86 156 0 248 16 399 67 175 60 309 39 401 -65 54 -59
120 -188 140 -272 28 -116 15 -245 -32 -339 -32 -64 -121 -153 -198 -197 -117
-69 -355 -161 -495 -193 -150 -34 -443 -65 -685 -72 -192 -7 -539 8 -618 26
-23 5 -96 14 -162 20 -394 35 -539 152 -600 484 -29 160 -67 559 -85 896 -11
201 -34 364 -80 559 -74 310 -126 430 -226 518 -68 60 -90 98 -80 138 11 45
71 53 140 18z"/>
<path d="M2400 2535 c-32 -38 9 -115 60 -115 49 0 78 80 42 113 -23 21 -85 22
-102 2z"/>
<path d="M2895 2198 c-43 -25 -47 -67 -9 -97 36 -28 68 -26 93 5 28 36 26 58
-5 83 -30 24 -50 26 -79 9z"/>
<path d="M5264 3967 c-147 -38 -225 -135 -225 -282 0 -140 71 -269 178 -321
98 -48 221 -38 325 28 95 60 158 174 158 288 0 111 -54 191 -174 259 -48 28
-69 34 -134 37 -44 2 -99 -2 -128 -9z m145 -284 c9 -7 -33 -43 -50 -43 -23 0
-38 48 -19 60 11 7 49 -3 69 -17z"/>
<path d="M4197 3766 c-143 -40 -246 -181 -235 -324 11 -152 131 -267 278 -266
199 1 344 203 300 416 -17 83 -39 111 -113 148 -74 36 -160 46 -230 26z m65
-301 c-7 -15 -20 -25 -32 -25 -26 0 -26 20 1 49 28 30 48 14 31 -24z"/>
<path d="M492 2008 c-38 -38 -2 -77 158 -171 97 -58 116 -63 141 -41 24 22 24
46 0 68 -25 23 -261 156 -276 156 -6 0 -16 -5 -23 -12z"/>
<path d="M5311 1104 c-58 -41 -86 -196 -47 -261 32 -52 74 -64 132 -37 48 23
75 85 81 188 6 81 5 83 -22 104 -34 27 -109 30 -144 6z"/>
</g>
</svg>
