<?xml version="1.0" standalone="no"?>
<!DOCTYPE svg PUBLIC "-//W3C//DTD SVG 20010904//EN"
 "http://www.w3.org/TR/2001/REC-SVG-20010904/DTD/svg10.dtd">
<svg version="1.0" xmlns="http://www.w3.org/2000/svg"
 width="600.000000pt" height="600.000000pt" viewBox="0 0 600.000000 600.000000"
 preserveAspectRatio="xMidYMid meet">
<metadata>
Created by potrace 1.15, written by Peter Selinger 2001-2017
</metadata>
<g transform="translate(0.000000,600.000000) scale(0.100000,-0.100000)"
fill="#16364b" stroke="none">
<path d="M2392 5402 c-17 -17 -20 -43 -25 -223 -7 -224 -25 -341 -71 -442 -35
-80 -120 -162 -218 -210 -85 -42 -95 -51 -104 -93 -8 -41 27 -84 67 -84 39 0
144 49 219 101 143 100 223 281 250 564 13 144 13 314 -1 354 -18 52 -81 69
-117 33z"/>
<path d="M3520 5278 c-27 -44 -25 -84 6 -147 33 -66 122 -163 170 -186 74 -35
142 -13 158 51 9 35 -11 101 -47 153 -79 115 -143 161 -222 161 -40 0 -47 -3
-65 -32z"/>
<path d="M3046 5120 c-103 -32 -196 -169 -196 -288 0 -72 51 -132 113 -132 30
0 112 41 158 79 44 37 97 134 105 193 12 100 -83 179 -180 148z m34 -150 c0
-23 -40 -88 -64 -104 -23 -15 -26 -15 -26 -1 0 23 18 55 48 88 27 28 42 34 42
17z"/>
<path d="M4746 4739 c-24 -28 -26 -37 -26 -132 0 -120 24 -339 45 -409 33
-113 87 -168 163 -168 75 0 132 72 151 192 23 139 -28 295 -148 454 -75 101
-136 122 -185 63z"/>
<path d="M2650 4208 c-56 -29 -90 -78 -90 -130 0 -154 227 -260 428 -199 90
27 153 74 170 126 11 34 11 46 -3 83 -18 46 -45 69 -97 83 -18 5 -73 20 -123
33 -120 33 -224 34 -285 4z"/>
<path d="M5270 3984 c-109 -29 -207 -117 -231 -208 -17 -63 -6 -173 23 -238
71 -155 220 -238 373 -208 160 31 271 156 282 319 10 134 -59 241 -199 311
-91 45 -148 51 -248 24z m128 -309 c11 -11 -14 -40 -37 -43 -23 -4 -50 21 -51
47 0 10 10 12 41 8 22 -3 43 -8 47 -12z"/>
<path d="M4218 3756 c-120 -35 -220 -145 -258 -286 -48 -177 115 -345 317
-327 114 11 203 79 264 203 32 64 34 75 34 169 -1 132 -16 160 -118 209 -85
42 -167 52 -239 32z m92 -289 c0 -26 -26 -49 -51 -45 l-24 3 27 28 c29 29 48
35 48 14z"/>
<path d="M1065 3361 c-175 -30 -316 -149 -360 -306 -34 -120 -1 -220 109 -331
87 -87 215 -156 322 -173 38 -6 100 -16 138 -21 104 -17 149 -47 211 -144 64
-101 114 -241 171 -486 42 -182 71 -267 131 -380 112 -214 262 -328 523 -393
109 -27 485 -41 1090 -42 529 0 680 8 872 46 249 49 575 197 716 324 236 212
335 719 203 1035 -48 116 -157 250 -271 336 -60 44 -189 105 -268 125 -209 53
-576 -5 -772 -124 -30 -18 -110 -74 -177 -125 -68 -50 -151 -104 -185 -121
-162 -77 -336 -62 -533 44 -80 43 -119 69 -370 245 -255 178 -319 215 -545
312 -269 116 -362 141 -606 163 -228 21 -339 25 -399 16z m322 -381 c414 -48
525 -97 1131 -501 240 -161 375 -232 517 -276 82 -25 104 -27 255 -27 144 -1
175 2 245 23 125 36 227 89 399 206 88 59 188 121 222 136 171 78 343 90 464
33 81 -38 173 -122 206 -185 78 -156 70 -375 -22 -550 -43 -81 -70 -107 -191
-181 -223 -139 -345 -168 -773 -188 -623 -29 -1360 -20 -1491 18 -182 52 -236
130 -307 447 -23 99 -57 227 -77 285 -46 132 -140 330 -200 420 -111 167 -273
257 -500 275 -78 7 -155 31 -169 54 -23 37 39 40 291 11z"/>
<path d="M2193 2275 c-32 -23 -35 -52 -6 -85 32 -38 74 -40 97 -5 44 68 -24
137 -91 90z"/>
<path d="M2885 2055 c-14 -13 -25 -31 -25 -40 0 -24 55 -75 79 -75 55 0 84 93
39 124 -32 23 -65 20 -93 -9z"/>
<path d="M3465 3360 c-34 -13 -61 -51 -108 -145 -85 -171 -92 -200 -57 -235
46 -46 117 -12 186 92 47 71 84 162 84 210 0 19 -10 40 -29 59 -31 30 -43 33
-76 19z"/>
<path d="M465 2038 c-64 -38 -59 -70 28 -163 84 -89 133 -126 201 -149 82 -28
136 2 136 74 0 70 -62 131 -205 201 -93 45 -132 54 -160 37z"/>
<path d="M5321 1114 c-25 -18 -54 -79 -65 -137 -14 -75 33 -147 96 -147 76 0
125 65 135 180 5 64 4 70 -20 94 -21 21 -36 26 -74 26 -29 0 -58 -7 -72 -16z"/>
</g>
</svg>
