<?xml version="1.0" standalone="no"?>
<!DOCTYPE svg PUBLIC "-//W3C//DTD SVG 20010904//EN"
 "http://www.w3.org/TR/2001/REC-SVG-20010904/DTD/svg10.dtd">
<svg version="1.0" xmlns="http://www.w3.org/2000/svg"
 width="600.000000pt" height="600.000000pt" viewBox="0 0 600.000000 600.000000"
 preserveAspectRatio="xMidYMid meet">
<metadata>
Created by potrace 1.15, written by Peter Selinger 2001-2017
</metadata>
<g transform="translate(0.000000,600.000000) scale(0.100000,-0.100000)"
fill="#16364b" stroke="none">
<path d="M2400 5380 c-16 -16 -20 -33 -20 -94 0 -219 -39 -477 -86 -575 -36
-73 -115 -149 -198 -191 -79 -39 -101 -65 -87 -103 17 -45 50 -44 143 5 164
85 269 225 302 403 21 110 36 287 36 427 0 109 -1 118 -22 132 -30 21 -44 20
-68 -4z"/>
<path d="M3521 5264 c-31 -40 -34 -61 -15 -114 56 -157 224 -261 299 -185 43
42 27 109 -53 215 -56 72 -113 110 -168 110 -34 0 -47 -5 -63 -26z"/>
<path d="M3015 5082 c-43 -26 -90 -84 -115 -139 -31 -68 -33 -171 -4 -210 46
-61 116 -56 194 14 115 103 152 271 73 332 -33 27 -106 28 -148 3z m91 -96
c13 -33 -85 -186 -118 -186 -14 0 -8 64 11 105 17 39 72 95 92 95 5 0 12 -6
15 -14z"/>
<path d="M4785 4741 c-11 -5 -29 -19 -40 -31 -19 -21 -20 -36 -20 -254 1 -256
12 -326 62 -372 33 -31 99 -33 135 -4 77 60 75 290 -3 554 -30 100 -71 132
-134 107z"/>
<path d="M2651 4217 c-88 -45 -82 -161 12 -225 141 -97 409 -111 476 -26 46
58 10 155 -62 169 -17 3 -66 17 -107 30 -107 34 -234 65 -267 65 -15 0 -39 -6
-52 -13z"/>
<path d="M5285 3991 c-138 -34 -234 -130 -253 -256 -25 -156 47 -328 161 -386
149 -76 391 21 474 190 24 47 28 69 28 136 0 67 -4 89 -28 137 -32 65 -91 122
-169 161 -43 22 -66 27 -118 26 -36 -1 -78 -4 -95 -8z m118 -331 c10 -9 -31
-50 -50 -50 -17 0 -36 38 -29 57 5 11 14 13 38 8 18 -4 37 -11 41 -15z"/>
<path d="M1313 3831 c-65 -24 -100 -51 -135 -102 -73 -109 -49 -267 57 -371
42 -42 76 -62 178 -109 95 -43 185 -209 233 -428 18 -83 89 -562 110 -736 41
-350 126 -562 285 -710 76 -71 162 -119 279 -156 l85 -26 -81 -41 c-101 -51
-167 -114 -182 -174 -19 -74 5 -125 71 -157 83 -40 213 -37 455 9 106 21 182
26 182 13 -1 -5 -14 -24 -30 -43 -53 -61 -33 -158 33 -161 67 -4 98 14 129 74
47 92 22 224 -52 275 -45 30 -135 29 -322 -2 -163 -28 -266 -36 -270 -21 -4
15 142 84 304 143 l146 52 158 -10 c88 -5 242 -17 343 -26 l184 -17 29 -33
c53 -60 139 -77 304 -61 l81 8 12 -30 c18 -42 70 -64 136 -59 60 5 103 32 146
91 48 66 36 122 -35 162 -15 9 8 17 115 44 153 37 369 115 480 172 146 76 252
182 330 331 119 231 134 404 53 648 -95 288 -202 404 -420 460 -208 53 -430 2
-581 -135 -65 -59 -142 -109 -224 -147 -63 -30 -198 -74 -249 -82 -19 -3 -79
-13 -134 -22 -168 -29 -323 -5 -490 76 -252 121 -389 260 -703 713 -221 318
-361 440 -630 549 -120 49 -134 52 -228 55 -80 3 -110 0 -152 -16z m162 -225
c67 -19 176 -61 228 -87 156 -79 347 -289 628 -694 130 -188 252 -313 402
-413 169 -113 331 -184 485 -213 108 -20 304 -6 472 34 260 62 423 138 581
269 105 88 164 110 283 110 78 0 95 -4 152 -32 75 -36 125 -96 174 -203 113
-249 63 -486 -141 -670 -137 -124 -433 -238 -704 -272 -66 -8 -199 -24 -295
-36 -157 -19 -202 -21 -440 -14 -146 4 -312 11 -370 16 -58 4 -168 13 -245 18
-320 21 -438 70 -544 226 -42 62 -80 156 -106 263 -25 99 -69 461 -80 652 -12
197 -35 308 -97 465 -114 290 -186 385 -354 466 -98 46 -124 68 -124 103 0 12
10 18 40 25 3 0 28 -6 55 -13z"/>
<path d="M2317 2432 c-25 -28 -21 -67 9 -91 15 -12 35 -21 45 -21 49 0 82 97
40 120 -30 16 -76 12 -94 -8z"/>
<path d="M2830 2057 c-54 -27 -23 -117 41 -117 50 0 78 70 42 102 -27 24 -55
29 -83 15z"/>
<path d="M4168 3745 c-95 -36 -166 -110 -194 -201 -31 -105 -10 -203 62 -283
62 -69 121 -95 209 -95 160 0 293 118 312 275 8 64 -15 182 -42 223 -12 17
-46 43 -80 60 -50 25 -74 30 -145 33 -56 2 -98 -2 -122 -12z m102 -301 c-16
-18 -50 -18 -50 0 0 8 12 24 28 36 l27 22 3 -22 c2 -11 -2 -28 -8 -36z"/>
<path d="M3448 3358 c-17 -18 -62 -97 -101 -176 -59 -122 -69 -148 -61 -171 7
-19 17 -27 40 -29 26 -3 36 4 66 40 86 107 168 256 168 306 0 21 -7 36 -22 46
-34 24 -57 19 -90 -16z"/>
<path d="M485 2016 c-42 -42 -37 -52 67 -139 119 -99 211 -133 252 -91 42 41
-4 98 -147 182 -131 77 -140 80 -172 48z"/>
<path d="M5332 1087 c-45 -47 -66 -165 -41 -221 27 -58 122 -72 166 -23 35 38
43 63 43 137 0 66 -2 74 -29 101 -39 38 -106 41 -139 6z"/>
</g>
</svg>
