<?xml version="1.0" standalone="no"?>
<!DOCTYPE svg PUBLIC "-//W3C//DTD SVG 20010904//EN"
 "http://www.w3.org/TR/2001/REC-SVG-20010904/DTD/svg10.dtd">
<svg version="1.0" xmlns="http://www.w3.org/2000/svg"
 width="600.000000pt" height="600.000000pt" viewBox="0 0 600.000000 600.000000"
 preserveAspectRatio="xMidYMid meet">
<metadata>
Created by potrace 1.15, written by Peter Selinger 2001-2017
</metadata>
<g transform="translate(0.000000,600.000000) scale(0.100000,-0.100000)"
fill="#16364b" stroke="none">
<path d="M2823 5540 c-76 -46 -89 -114 -44 -219 47 -106 62 -202 59 -361 -3
-155 3 -173 80 -211 80 -39 163 -13 205 65 20 38 22 54 21 206 -1 194 -18 273
-86 410 -35 69 -51 89 -83 107 -50 28 -109 29 -152 3z"/>
<path d="M1963 5440 c-41 -25 -66 -73 -67 -130 -1 -70 45 -149 150 -260 84
-89 98 -110 169 -251 42 -85 88 -166 103 -182 57 -60 154 -56 212 10 52 58 43
98 -72 333 -90 182 -102 201 -182 287 -47 51 -94 110 -105 132 -39 76 -137
105 -208 61z"/>
<path d="M1460 4771 c-30 -4 -66 -14 -78 -22 -39 -24 -66 -78 -66 -131 0 -54
21 -89 74 -125 31 -22 43 -23 197 -23 193 0 284 -16 392 -67 82 -40 128 -41
179 -4 32 23 62 85 62 129 -1 43 -35 107 -72 135 -44 34 -135 74 -212 93 -70
18 -387 27 -476 15z"/>
<path d="M4374 4756 c-66 -29 -102 -111 -84 -190 37 -165 166 -459 236 -536
87 -96 232 -63 250 57 6 38 0 56 -54 170 -34 71 -84 197 -111 281 -28 85 -56
163 -62 173 -27 51 -111 73 -175 45z"/>
<path d="M3175 4510 c-26 -13 -70 -55 -122 -117 -84 -101 -162 -179 -342 -343
-111 -101 -131 -133 -131 -205 0 -57 21 -100 60 -120 34 -18 102 -20 133 -4
45 24 284 216 347 279 91 90 236 287 250 338 19 73 -11 146 -74 176 -45 21
-72 20 -121 -4z"/>
<path d="M1758 4320 c-96 -29 -137 -135 -89 -228 28 -53 72 -77 186 -102 268
-59 562 -21 639 83 32 43 29 131 -6 184 -50 75 -116 88 -258 48 -75 -20 -220
-17 -353 10 -87 17 -82 16 -119 5z"/>
<path d="M3823 4122 c-17 -9 -64 -55 -104 -102 -118 -137 -209 -214 -352 -296
-86 -50 -264 -128 -369 -163 -140 -46 -177 -160 -83 -253 51 -51 108 -50 282
8 238 79 452 217 668 430 166 164 190 215 146 306 -37 76 -119 107 -188 70z"/>
<path d="M2290 3759 c-114 -27 -369 -36 -489 -19 -111 16 -152 8 -200 -36
-109 -98 -55 -242 100 -264 96 -14 378 -12 519 4 170 20 225 33 262 64 104 87
60 256 -69 267 -21 2 -76 -6 -123 -16z"/>
<path d="M5033 3729 c-53 -21 -105 -65 -129 -111 -21 -40 -21 -110 0 -223 28
-155 10 -267 -66 -419 -60 -119 -178 -286 -269 -379 -112 -114 -125 -131 -140
-191 -15 -59 0 -135 36 -189 54 -78 172 -116 260 -83 81 31 245 212 437 481
107 150 148 225 190 345 32 93 33 99 33 260 -1 243 -35 411 -96 470 -63 60
-162 75 -256 39z"/>
<path d="M1972 3133 c-56 -27 -86 -76 -90 -147 -4 -75 16 -113 85 -156 117
-74 223 -94 449 -82 129 7 166 12 193 28 47 28 72 74 73 134 0 59 -24 105 -72
138 -31 21 -43 22 -191 21 -170 0 -211 7 -301 52 -65 33 -99 36 -146 12z"/>
<path d="M4415 3115 c-16 -7 -46 -28 -65 -45 -67 -61 -175 -138 -264 -188
-163 -94 -317 -137 -593 -168 -162 -18 -194 -29 -223 -77 -41 -67 -35 -146 16
-206 44 -53 71 -56 276 -26 101 15 215 33 253 41 258 53 552 207 734 382 72
70 80 82 87 125 17 123 -107 215 -221 162z"/>
<path d="M1451 2929 c-91 -36 -125 -103 -141 -276 -27 -302 76 -708 233 -918
95 -127 140 -159 222 -158 57 0 98 18 136 60 40 42 59 87 59 137 0 61 -11 87
-72 159 -67 81 -123 201 -154 335 -23 96 -26 130 -27 333 l-2 226 -29 37 c-42
56 -81 76 -146 75 -30 0 -66 -5 -79 -10z"/>
<path d="M2150 2353 c-48 -18 -90 -83 -90 -141 0 -70 29 -97 195 -181 83 -42
170 -90 194 -106 110 -74 261 -1 261 127 0 34 -30 93 -59 115 -39 31 -152 89
-268 139 -123 53 -184 65 -233 47z"/>
<path d="M4270 2104 c-8 -3 -51 -19 -95 -34 -44 -16 -145 -52 -225 -81 -325
-117 -490 -156 -826 -194 -238 -27 -263 -35 -309 -103 -34 -50 -35 -139 -2
-197 24 -42 74 -81 116 -92 29 -7 501 56 691 93 153 30 293 71 448 130 64 25
166 63 225 85 144 52 163 63 193 109 21 31 27 53 27 94 0 106 -73 186 -175
192 -29 2 -60 1 -68 -2z"/>
<path d="M4875 1703 c-16 -9 -57 -41 -90 -71 -185 -171 -526 -331 -835 -391
-30 -6 -115 -20 -188 -30 -159 -23 -193 -40 -228 -115 -26 -56 -29 -83 -14
-138 21 -75 102 -137 179 -138 104 0 541 84 703 136 142 46 315 127 425 200
97 65 256 217 302 288 25 41 31 60 31 106 0 69 -26 114 -85 147 -49 28 -153
31 -200 6z"/>
<path d="M2010 1408 c-61 -31 -95 -97 -86 -166 7 -43 15 -55 91 -128 69 -67
103 -91 187 -133 167 -82 470 -147 567 -121 123 33 136 216 20 276 -17 8 -72
20 -122 25 -176 20 -348 96 -470 208 -72 66 -115 75 -187 39z"/>
<path d="M2005 901 c-125 -58 -154 -222 -57 -324 15 -16 56 -46 92 -67 187
-108 455 -170 737 -170 172 0 252 10 383 47 77 22 103 35 139 68 51 46 71 88
71 146 0 56 -26 106 -71 136 -53 35 -108 38 -214 13 -270 -64 -566 -20 -885
134 -85 41 -134 45 -195 17z"/>
</g>
</svg>
