<?xml version="1.0" standalone="no"?>
<!DOCTYPE svg PUBLIC "-//W3C//DTD SVG 20010904//EN"
 "http://www.w3.org/TR/2001/REC-SVG-20010904/DTD/svg10.dtd">
<svg version="1.0" xmlns="http://www.w3.org/2000/svg"
 width="600.000000pt" height="600.000000pt" viewBox="0 0 600.000000 600.000000"
 preserveAspectRatio="xMidYMid meet">
<metadata>
Created by potrace 1.15, written by Peter Selinger 2001-2017
</metadata>
<g transform="translate(0.000000,600.000000) scale(0.100000,-0.100000)"
fill="#16364b" stroke="none">
<path d="M1550 5763 c-55 -20 -98 -127 -145 -357 -41 -204 -30 -329 37 -393
57 -55 100 -63 186 -38 90 27 209 155 381 413 83 125 96 156 82 202 -17 57
-54 85 -111 85 -62 0 -92 -22 -147 -106 -70 -109 -178 -258 -186 -259 -4 0 -5
10 -2 23 2 12 12 54 20 92 9 39 27 105 41 147 22 67 24 82 14 112 -17 52 -62
86 -113 85 -23 0 -49 -3 -57 -6z"/>
<path d="M843 5515 c-66 -20 -127 -60 -175 -114 -169 -187 -155 -476 28 -602
108 -74 225 -14 211 109 -4 37 -14 53 -56 96 -46 47 -51 56 -51 96 0 56 33
116 79 147 39 26 75 29 111 8 14 -8 44 -14 68 -15 34 0 49 6 79 33 32 30 37
41 41 90 4 55 3 58 -35 96 -64 64 -196 89 -300 56z"/>
<path d="M3363 5444 c-43 -22 -65 -57 -65 -108 -1 -59 14 -81 93 -132 38 -25
69 -47 69 -50 0 -3 -9 -17 -20 -31 -31 -40 -27 -109 10 -166 69 -103 159 -159
260 -161 80 -1 130 26 162 88 31 60 28 123 -12 201 -65 129 -161 225 -319 318
-93 55 -132 64 -178 41z"/>
<path d="M2315 5204 c-55 -28 -68 -57 -77 -178 -18 -261 -52 -322 -218 -406
-113 -57 -139 -108 -98 -190 18 -36 31 -48 64 -59 50 -18 86 -7 204 63 206
121 289 263 312 540 9 114 9 136 -5 168 -29 68 -113 97 -182 62z"/>
<path d="M2980 5161 c-114 -37 -198 -152 -208 -283 -8 -115 45 -189 160 -219
57 -16 142 -2 223 35 71 32 85 60 85 168 0 138 -31 217 -105 273 -36 28 -111
40 -155 26z"/>
<path d="M4750 4781 c-67 -36 -75 -57 -74 -199 1 -190 44 -319 140 -422 79
-85 211 -118 305 -78 144 62 201 238 125 391 -38 78 -122 166 -220 231 -152
101 -205 115 -276 77z m250 -434 c0 -16 -18 3 -23 25 -6 22 -5 22 8 4 8 -11
15 -24 15 -29z"/>
<path d="M2757 4179 c-87 -20 -160 -80 -192 -156 -23 -54 -19 -139 9 -198 29
-62 55 -87 130 -121 116 -53 271 -31 441 63 92 50 165 120 167 159 4 78 -19
135 -64 163 -34 21 -181 72 -251 87 -75 15 -181 17 -240 3z"/>
<path d="M1034 4062 c-72 -46 -98 -122 -66 -194 29 -67 64 -86 184 -104 57 -8
119 -20 138 -26 l34 -11 -42 -37 c-74 -66 -273 -174 -411 -224 -97 -35 -126
-57 -146 -111 -39 -101 35 -205 144 -205 44 0 194 61 338 137 44 24 84 43 87
43 3 0 6 -11 6 -25 0 -68 65 -128 140 -129 38 -1 56 6 102 38 l56 38 40 -31
c21 -18 61 -39 87 -47 169 -50 304 40 293 196 -5 75 -41 122 -123 165 -55 28
-66 30 -172 30 -62 0 -113 2 -113 4 0 2 12 29 28 60 52 106 32 221 -53 304
-79 76 -247 133 -425 143 -83 5 -99 3 -126 -14z"/>
<path d="M4228 3780 c-149 -26 -286 -176 -296 -322 -4 -51 0 -67 27 -123 32
-64 71 -103 141 -141 27 -15 56 -19 130 -19 85 0 101 3 149 28 140 74 241 238
241 392 0 44 -5 57 -36 93 -29 34 -49 46 -113 66 -91 29 -177 38 -243 26z m52
-298 c0 -16 -25 -32 -49 -32 l-26 1 24 19 c24 20 51 27 51 12z"/>
<path d="M5133 3461 c-128 -46 -234 -132 -283 -227 -21 -40 -25 -63 -25 -129
0 -98 29 -168 102 -246 60 -65 110 -88 188 -89 205 0 375 238 321 448 -18 72
-32 95 -103 178 -37 43 -64 64 -91 72 -49 15 -46 15 -109 -7z"/>
<path d="M3414 3386 c-45 -20 -88 -78 -146 -196 -58 -121 -67 -163 -44 -208
27 -52 57 -66 126 -59 76 8 125 33 177 90 83 90 118 204 88 284 -31 81 -126
123 -201 89z"/>
<path d="M2365 3076 c-129 -41 -189 -117 -294 -377 -35 -85 -84 -144 -168
-201 -99 -69 -286 -253 -352 -348 -136 -193 -205 -407 -205 -625 1 -128 17
-200 75 -320 67 -142 175 -250 345 -349 161 -94 333 -132 545 -124 218 9 370
74 530 226 161 153 272 344 328 568 53 209 75 373 76 549 0 148 -3 180 -23
250 -39 134 -83 205 -192 308 -54 51 -145 151 -203 223 -113 139 -178 194
-262 219 -58 18 -145 18 -200 1z m160 -465 c30 -37 55 -73 55 -79 0 -20 53
-73 131 -133 94 -71 122 -106 143 -178 48 -162 -10 -542 -114 -756 -107 -219
-258 -337 -449 -352 -215 -16 -443 98 -521 262 -33 69 -40 210 -15 303 42 157
151 320 279 416 196 147 295 271 373 464 38 93 51 122 58 122 2 0 29 -31 60
-69z"/>
<path d="M739 2577 c-63 -42 -76 -137 -25 -188 13 -13 60 -44 105 -69 103 -55
211 -153 245 -222 33 -66 35 -134 5 -172 -57 -72 -183 19 -282 204 -55 103
-122 134 -194 90 -75 -45 -83 -106 -28 -207 77 -140 206 -276 310 -327 78 -38
179 -46 254 -21 71 23 151 98 184 173 106 235 -39 511 -374 712 -96 58 -144
65 -200 27z"/>
<path d="M4231 2199 c-64 -25 -121 -96 -121 -150 0 -18 -4 -20 -22 -14 -102
31 -204 1 -254 -74 -25 -39 -26 -46 -21 -124 8 -110 77 -385 108 -427 26 -35
87 -74 132 -84 15 -4 46 -19 67 -35 53 -38 99 -46 163 -27 65 19 119 72 150
147 20 51 22 73 25 344 4 304 0 339 -40 390 -40 52 -129 77 -187 54z"/>
</g>
</svg>
