<?xml version="1.0" standalone="no"?>
<!DOCTYPE svg PUBLIC "-//W3C//DTD SVG 20010904//EN"
 "http://www.w3.org/TR/2001/REC-SVG-20010904/DTD/svg10.dtd">
<svg version="1.0" xmlns="http://www.w3.org/2000/svg"
 width="600.000000pt" height="600.000000pt" viewBox="0 0 600.000000 600.000000"
 preserveAspectRatio="xMidYMid meet">
<metadata>
Created by potrace 1.15, written by Peter Selinger 2001-2017
</metadata>
<g transform="translate(0.000000,600.000000) scale(0.100000,-0.100000)"
fill="#16364b" stroke="none">
<path d="M1532 5768 c-37 -18 -180 -273 -221 -396 -37 -108 -21 -185 45 -228
39 -26 113 -22 167 9 93 51 420 292 438 322 63 102 -62 210 -167 146 -17 -11
-60 -40 -94 -65 -35 -26 -65 -45 -67 -42 -2 2 12 30 32 62 19 33 35 72 35 87
0 84 -92 141 -168 105z"/>
<path d="M2379 5444 c-60 -25 -68 -52 -72 -269 -4 -152 -9 -206 -26 -268 -45
-171 -118 -271 -247 -340 -81 -44 -104 -75 -104 -140 0 -58 35 -103 86 -113
29 -5 51 1 122 36 186 92 296 258 363 550 21 88 39 440 25 493 -12 50 -88 76
-147 51z"/>
<path d="M3530 5312 c-46 -23 -82 -86 -77 -133 11 -91 132 -256 220 -298 110
-53 217 5 217 117 0 94 -127 265 -223 300 -84 31 -100 33 -137 14z"/>
<path d="M2940 5123 c-120 -61 -191 -226 -142 -335 49 -111 168 -143 317 -86
68 26 100 62 114 128 27 124 -3 226 -82 278 -52 35 -154 42 -207 15z"/>
<path d="M4759 4753 c-15 -9 -33 -28 -42 -42 -37 -63 -29 -323 14 -447 57
-162 197 -256 335 -225 172 39 232 210 139 398 -69 140 -290 333 -380 333 -22
0 -52 -8 -66 -17z m224 -412 c23 -39 21 -62 -3 -31 -21 27 -32 60 -21 60 4 0
14 -13 24 -29z"/>
<path d="M2717 4230 c-138 -25 -250 -126 -264 -237 -17 -145 140 -275 334
-276 74 -1 88 2 155 36 50 24 98 59 145 105 90 87 107 119 101 189 -4 46 -10
60 -39 89 -63 63 -309 116 -432 94z"/>
<path d="M1040 4062 c-48 -48 -59 -95 -35 -157 22 -59 57 -82 151 -100 103
-20 146 -34 141 -48 -2 -7 -39 -31 -83 -54 -68 -36 -129 -57 -305 -103 -69
-19 -112 -89 -95 -157 10 -39 66 -90 114 -102 35 -10 58 -8 152 13 218 49 412
166 487 293 34 58 43 155 19 216 -21 57 -86 118 -165 157 -75 37 -235 80 -298
80 -39 0 -51 -5 -83 -38z"/>
<path d="M4207 3780 c-104 -18 -206 -90 -249 -175 -66 -128 -6 -318 126 -400
46 -28 57 -30 140 -30 114 0 165 21 244 103 93 94 139 213 130 335 -4 53 -8
63 -41 93 -62 57 -236 94 -350 74z m63 -290 c0 -15 -48 -43 -60 -35 -8 5 -6
13 6 26 18 20 54 26 54 9z"/>
<path d="M1733 3740 c-17 -4 -55 -21 -85 -37 -45 -25 -58 -40 -87 -97 -29 -56
-35 -79 -39 -150 -4 -75 -2 -90 23 -145 105 -233 419 -255 533 -37 23 44 26
63 27 141 0 79 -4 97 -28 147 -64 130 -216 209 -344 178z"/>
<path d="M5179 3591 c-88 -28 -156 -71 -213 -132 -66 -71 -97 -136 -104 -215
-10 -123 48 -228 154 -280 50 -24 62 -26 139 -22 146 10 253 74 316 190 30 57
33 71 34 148 0 106 -21 156 -102 242 -86 90 -122 102 -224 69z m31 -310 c0
-13 -31 -43 -38 -37 -3 3 3 15 13 26 20 22 25 24 25 11z"/>
<path d="M2549 3416 c-140 -38 -266 -172 -373 -398 -81 -170 -127 -218 -281
-293 -443 -217 -691 -641 -609 -1043 21 -104 91 -275 148 -361 106 -159 372
-347 561 -396 192 -50 423 -18 629 88 152 78 354 247 435 362 53 75 119 220
166 365 26 80 59 174 74 210 24 59 26 77 26 200 -1 120 -6 156 -43 330 -53
242 -78 337 -108 419 -13 35 -24 79 -24 97 0 44 -24 104 -72 181 -116 185
-345 289 -529 239z m153 -393 c9 -10 18 -35 22 -55 4 -21 17 -61 30 -90 54
-124 149 -446 176 -597 17 -94 16 -184 -2 -228 -9 -21 -30 -82 -46 -135 -63
-198 -130 -306 -263 -425 -161 -144 -268 -195 -404 -196 -96 -1 -159 21 -267
92 -167 109 -237 203 -259 351 -40 265 110 545 341 634 78 30 208 103 268 150
93 73 136 138 201 303 42 105 82 168 123 193 41 25 60 25 80 3z"/>
<path d="M3425 3396 c-60 -26 -104 -90 -170 -250 -40 -98 -40 -126 1 -176 35
-41 72 -46 148 -20 119 39 196 149 203 290 5 88 -12 126 -70 153 -42 20 -71
21 -112 3z"/>
<path d="M370 2302 c-26 -12 -39 -28 -50 -59 -13 -39 -12 -48 9 -120 65 -223
176 -427 301 -555 115 -117 207 -156 307 -129 200 54 187 336 -25 547 -88 88
-239 204 -346 265 -43 24 -87 50 -99 56 -30 17 -56 16 -97 -5z m402 -500 c53
-71 71 -102 64 -109 -10 -11 -84 66 -132 138 -24 37 -44 70 -44 73 0 14 78
-57 112 -102z"/>
<path d="M4405 1983 c-11 -2 -37 -18 -57 -34 l-38 -30 -39 27 c-85 56 -173 38
-212 -42 -24 -50 -23 -77 7 -319 27 -217 66 -304 158 -350 108 -54 212 -10
275 114 48 95 121 379 121 472 0 53 -31 112 -73 138 -35 22 -106 34 -142 24z"/>
</g>
</svg>
