<?xml version="1.0" standalone="no"?>
<!DOCTYPE svg PUBLIC "-//W3C//DTD SVG 20010904//EN"
 "http://www.w3.org/TR/2001/REC-SVG-20010904/DTD/svg10.dtd">
<svg version="1.0" xmlns="http://www.w3.org/2000/svg"
 width="600.000000pt" height="600.000000pt" viewBox="0 0 600.000000 600.000000"
 preserveAspectRatio="xMidYMid meet">
<metadata>
Created by potrace 1.15, written by Peter Selinger 2001-2017
</metadata>
<g transform="translate(0.000000,600.000000) scale(0.100000,-0.100000)"
fill="#16364b" stroke="none">
<path d="M2378 5380 l-26 -20 -5 -212 c-6 -229 -16 -292 -64 -394 -36 -77
-130 -172 -211 -213 -34 -17 -71 -40 -82 -51 -40 -40 -14 -110 41 -110 42 0
180 89 255 164 81 81 122 156 155 287 17 69 22 124 26 304 5 234 3 246 -43
259 -13 4 -30 -1 -46 -14z"/>
<path d="M3527 5276 c-8 -8 -20 -28 -27 -45 -10 -26 -10 -37 4 -71 37 -94 113
-187 178 -221 118 -61 188 36 122 169 -32 65 -103 145 -148 166 -42 20 -110
21 -129 2z"/>
<path d="M2982 5072 c-81 -54 -132 -152 -132 -255 0 -94 34 -136 111 -137 80
0 171 77 224 192 59 126 8 228 -113 228 -37 0 -59 -7 -90 -28z m108 -107 c0
-27 -38 -91 -77 -131 -35 -37 -37 -38 -41 -16 -5 34 16 90 50 128 31 35 68 45
68 19z"/>
<path d="M4759 4727 c-9 -7 -21 -22 -27 -34 -17 -30 -15 -254 3 -385 22 -171
65 -240 148 -242 51 -1 89 21 114 67 14 26 18 55 17 147 0 103 -4 125 -33 210
-37 109 -91 212 -124 235 -26 18 -76 19 -98 2z"/>
<path d="M2667 4226 c-71 -26 -105 -78 -93 -141 14 -74 107 -136 253 -169 90
-20 143 -20 218 -1 82 21 120 59 120 119 0 67 -27 95 -121 128 -187 65 -315
87 -377 64z"/>
<path d="M5270 3976 c-105 -29 -171 -81 -218 -170 -23 -44 -27 -63 -27 -141 0
-80 3 -97 29 -148 35 -68 108 -140 174 -170 71 -33 197 -31 273 5 120 55 195
162 206 294 11 138 -44 238 -171 309 -58 32 -69 35 -142 34 -43 0 -99 -6 -124
-13z m127 -307 l28 -11 -28 -24 c-34 -29 -43 -30 -57 -3 -23 42 2 59 57 38z"/>
<path d="M4215 3756 c-151 -38 -255 -163 -255 -309 0 -109 70 -221 167 -268
177 -84 392 56 422 274 9 66 -4 178 -25 219 -17 33 -70 62 -151 83 -67 18 -90
18 -158 1z m55 -277 c0 -23 -22 -49 -40 -49 -24 0 -26 17 -3 42 18 20 43 24
43 7z"/>
<path d="M1185 3662 c-70 -24 -117 -63 -151 -124 -26 -48 -29 -62 -29 -148 0
-85 3 -101 28 -148 53 -101 157 -179 291 -219 78 -23 120 -48 161 -95 98 -114
198 -406 220 -643 22 -234 89 -555 151 -717 23 -62 82 -156 121 -196 60 -60
222 -161 260 -162 6 0 20 -13 30 -30 33 -56 89 -73 254 -78 81 -2 214 1 296 7
163 12 218 5 305 -40 64 -33 106 -28 146 16 l35 37 311 3 c330 3 355 5 615 61
266 57 441 125 586 229 130 92 270 265 334 411 50 116 65 193 65 339 0 116 -3
139 -27 210 -16 44 -49 116 -74 160 -145 255 -335 375 -588 375 -176 0 -305
-49 -497 -185 -112 -80 -258 -161 -359 -199 -35 -13 -116 -34 -179 -46 -205
-41 -334 -17 -570 106 -249 130 -378 230 -566 439 -311 346 -471 475 -697 564
-232 90 -363 111 -472 73z m283 -308 c217 -73 317 -144 512 -360 252 -279 348
-363 640 -559 197 -132 376 -225 495 -256 150 -40 384 -26 590 33 106 31 227
96 429 232 183 123 250 156 349 170 51 7 134 -8 190 -34 81 -38 181 -157 230
-274 17 -41 21 -72 21 -161 1 -101 -2 -116 -30 -180 -40 -93 -100 -180 -178
-258 -146 -146 -460 -256 -821 -288 -135 -12 -923 1 -1235 20 -305 19 -443 75
-524 213 -63 107 -110 301 -146 593 -28 228 -44 305 -97 465 -120 363 -240
510 -471 580 -74 23 -132 60 -132 86 0 24 66 16 178 -22z"/>
<path d="M2287 2399 c-24 -14 -37 -50 -26 -71 15 -29 66 -50 89 -38 22 12 50
49 50 67 0 40 -71 66 -113 42z"/>
<path d="M2837 2052 c-25 -28 -21 -67 9 -91 33 -26 56 -27 76 -3 30 33 31 60
4 87 -30 29 -66 32 -89 7z"/>
<path d="M3494 3380 c-11 -4 -37 -27 -56 -49 -41 -48 -158 -269 -158 -298 0
-26 31 -53 61 -53 62 0 239 253 239 341 0 28 -6 42 -22 53 -25 18 -34 19 -64
6z"/>
<path d="M472 2024 c-42 -29 -30 -66 51 -148 121 -122 218 -164 265 -113 60
63 -14 149 -215 251 -61 30 -71 31 -101 10z"/>
<path d="M5313 1108 c-53 -26 -90 -167 -59 -226 20 -39 44 -52 94 -52 70 0
113 54 127 158 8 63 -6 105 -41 121 -31 14 -92 13 -121 -1z"/>
</g>
</svg>
