<?xml version="1.0" standalone="no"?>
<!DOCTYPE svg PUBLIC "-//W3C//DTD SVG 20010904//EN"
 "http://www.w3.org/TR/2001/REC-SVG-20010904/DTD/svg10.dtd">
<svg version="1.0" xmlns="http://www.w3.org/2000/svg"
 width="600.000000pt" height="600.000000pt" viewBox="0 0 600.000000 600.000000"
 preserveAspectRatio="xMidYMid meet">
<metadata>
Created by potrace 1.15, written by Peter Selinger 2001-2017
</metadata>
<g transform="translate(0.000000,600.000000) scale(0.100000,-0.100000)"
fill="#16364b" stroke="none">
<path d="M2161 5829 c-24 -9 -499 -488 -605 -609 -71 -82 -96 -132 -96 -196 0
-66 33 -122 90 -154 38 -21 58 -25 125 -25 129 1 258 49 515 192 58 32 152 80
210 107 58 27 117 60 133 74 71 67 47 191 -47 236 -58 27 -92 20 -232 -48 -72
-35 -142 -67 -155 -71 -16 -5 19 37 100 120 67 70 132 142 142 159 26 42 25
121 -1 164 -32 53 -115 77 -179 51z"/>
<path d="M3041 5668 c-54 -29 -81 -76 -81 -139 0 -48 23 -89 61 -109 10 -6 62
-22 116 -35 172 -44 286 -111 345 -204 37 -59 49 -104 50 -194 1 -142 -53
-202 -264 -290 -57 -24 -90 -75 -90 -140 -1 -70 23 -111 80 -138 57 -28 89
-21 229 46 192 94 300 223 339 405 29 135 8 304 -54 425 -87 174 -232 280
-481 354 -150 45 -196 48 -250 19z"/>
<path d="M958 5336 c-93 -38 -149 -76 -218 -145 -147 -149 -178 -343 -85 -539
62 -132 210 -252 310 -252 79 0 155 67 155 137 0 58 -25 99 -94 153 -113 89
-146 200 -83 283 15 20 56 48 110 74 46 23 94 54 106 69 52 66 46 157 -13 212
-30 27 -43 32 -83 32 -27 0 -73 -11 -105 -24z"/>
<path d="M2697 4976 c-131 -47 -227 -190 -229 -343 -1 -76 9 -119 39 -171 83
-144 253 -239 414 -230 64 3 72 7 104 38 65 67 64 172 -4 233 -32 29 -52 37
-112 47 -41 7 -86 19 -101 26 -35 18 -46 59 -27 93 12 22 24 27 70 32 68 7 95
21 119 62 44 71 15 169 -60 208 -42 23 -156 25 -213 5z"/>
<path d="M4755 4921 c-44 -26 -83 -76 -91 -116 -7 -41 11 -223 31 -299 20 -75
67 -167 111 -216 20 -22 61 -52 92 -67 150 -73 329 -3 402 158 29 64 27 168
-4 235 -42 90 -164 188 -353 283 -92 46 -140 52 -188 22z"/>
<path d="M1872 4529 c-117 -23 -239 -114 -262 -194 -26 -94 34 -192 124 -202
61 -7 90 2 134 41 79 71 111 73 172 11 76 -77 161 -81 230 -11 28 29 34 45 38
91 6 70 -8 103 -68 159 -101 94 -233 132 -368 105z"/>
<path d="M2788 3861 c-49 -31 -88 -96 -88 -147 0 -16 9 -44 20 -62 26 -42 26
-97 0 -221 -21 -103 -53 -199 -95 -281 -62 -122 -2 -250 117 -250 82 0 122 37
188 175 56 117 82 194 110 322 74 338 25 493 -153 493 -41 0 -63 -6 -99 -29z"/>
<path d="M1165 3810 c-98 -18 -231 -61 -269 -88 -50 -35 -80 -92 -79 -152 2
-112 108 -202 219 -185 24 3 44 3 44 0 0 -7 -101 -194 -167 -310 -112 -197
-236 -501 -258 -631 -21 -132 89 -234 221 -205 40 9 69 27 130 78 44 36 153
125 244 198 91 72 239 201 330 286 l165 154 3 -41 c4 -60 -43 -278 -93 -429
-46 -139 -202 -511 -261 -623 -30 -56 -35 -74 -32 -113 9 -91 77 -145 173
-137 105 9 125 41 296 484 159 415 230 680 237 891 6 188 -26 291 -107 348
-38 26 -51 30 -110 29 -110 0 -201 -55 -398 -240 -57 -52 -103 -92 -103 -87 0
4 36 80 79 168 127 255 151 352 115 458 -18 52 -73 108 -131 132 -46 20 -179
27 -248 15z"/>
<path d="M4228 3791 c-69 -23 -138 -62 -189 -108 -91 -82 -150 -219 -135 -315
21 -137 183 -243 344 -224 158 19 292 151 401 395 54 123 40 201 -44 245 -58
30 -293 35 -377 7z m57 -327 c-34 -27 -55 -31 -55 -10 0 14 71 48 80 39 3 -3
-8 -16 -25 -29z"/>
<path d="M3465 3369 c-22 -11 -59 -39 -83 -62 -80 -78 -154 -266 -138 -351 8
-44 50 -94 93 -112 43 -18 167 -18 230 1 129 38 213 145 213 270 0 117 -49
214 -131 255 -50 26 -131 26 -184 -1z"/>
<path d="M4875 2859 c-22 -11 -68 -52 -102 -90 -213 -239 -262 -456 -128 -567
45 -36 120 -57 178 -48 105 17 221 113 276 230 51 108 67 258 36 333 -21 50
-125 149 -165 157 -47 9 -51 8 -95 -15z"/>
<path d="M4112 2475 c-87 -38 -142 -113 -142 -193 0 -23 16 -92 36 -153 19
-61 34 -112 32 -114 -2 -1 -36 11 -76 27 -186 74 -324 48 -416 -79 -85 -117
-86 -266 -4 -628 37 -164 47 -192 90 -240 107 -123 297 -105 368 35 29 57 33
99 15 180 -28 132 -36 182 -32 187 7 6 67 -26 67 -36 0 -14 96 -51 133 -51 40
0 128 25 180 52 130 66 198 206 182 372 -7 75 -35 214 -83 408 -35 141 -62
186 -135 223 -59 29 -160 34 -215 10z"/>
<path d="M2925 2253 c-113 -26 -266 -88 -457 -184 l-137 -69 -56 30 c-62 33
-133 40 -196 19 -80 -27 -198 -152 -220 -232 -34 -126 42 -244 165 -257 l50
-5 13 -65 c15 -71 12 -90 -12 -90 -31 0 -115 -51 -174 -106 -157 -145 -182
-345 -71 -566 100 -200 250 -368 386 -434 152 -73 366 -107 509 -81 174 32
398 152 451 243 31 53 36 143 10 192 -35 67 -103 112 -174 112 -34 0 -83 -23
-137 -64 -126 -97 -219 -116 -357 -73 -169 53 -286 161 -334 307 -19 59 -10
113 20 118 26 5 92 -33 149 -85 59 -55 101 -73 168 -73 110 0 188 86 176 192
-8 60 -34 101 -93 146 -24 18 -57 56 -73 84 -50 86 -99 308 -69 308 8 0 57 25
109 56 129 77 270 147 357 178 l74 26 -7 -31 c-13 -56 -64 -170 -165 -367 -89
-172 -100 -198 -100 -245 0 -147 166 -238 291 -159 78 51 249 358 314 567 65
207 77 302 51 389 -43 142 -179 227 -358 225 -46 -1 -92 -3 -103 -6z"/>
</g>
</svg>
