<?xml version="1.0" standalone="no"?>
<!DOCTYPE svg PUBLIC "-//W3C//DTD SVG 20010904//EN"
 "http://www.w3.org/TR/2001/REC-SVG-20010904/DTD/svg10.dtd">
<svg version="1.0" xmlns="http://www.w3.org/2000/svg"
 width="600.000000pt" height="600.000000pt" viewBox="0 0 600.000000 600.000000"
 preserveAspectRatio="xMidYMid meet">
<metadata>
Created by potrace 1.15, written by Peter Selinger 2001-2017
</metadata>
<g transform="translate(0.000000,600.000000) scale(0.100000,-0.100000)"
fill="#16364b" stroke="none">
<path d="M1939 5800 c-28 -15 -68 -66 -179 -231 -242 -360 -297 -502 -241
-625 28 -62 73 -89 146 -89 79 0 125 23 369 184 106 69 234 153 285 185 105
67 131 100 131 166 0 74 -44 128 -121 150 -49 14 -91 -1 -204 -74 -55 -36
-101 -63 -103 -62 -2 2 23 44 56 92 79 119 82 126 82 180 0 114 -116 180 -221
124z"/>
<path d="M3046 5700 c-37 -12 -64 -37 -87 -82 -39 -76 -15 -162 55 -202 22
-13 88 -49 144 -81 261 -145 370 -249 406 -387 16 -61 12 -92 -13 -122 -22
-25 -78 -52 -126 -61 -121 -21 -187 -117 -146 -210 36 -81 120 -105 251 -70
189 50 298 168 332 358 19 109 -23 283 -96 392 -68 101 -219 227 -411 342
-190 115 -253 140 -309 123z"/>
<path d="M935 5377 c-144 -54 -277 -162 -329 -268 -47 -96 -52 -215 -15 -319
50 -140 233 -320 324 -320 67 0 136 58 155 130 15 54 -3 115 -43 153 -100 94
-119 115 -129 148 -20 69 10 142 71 174 16 8 50 19 77 25 115 27 154 61 161
139 5 57 -19 107 -66 138 -45 30 -124 30 -206 0z"/>
<path d="M2817 5044 c-58 -18 -120 -77 -150 -142 -17 -39 -21 -66 -22 -157 0
-99 3 -116 25 -159 52 -102 160 -147 299 -127 120 18 170 60 178 148 4 40 0
54 -22 87 -26 38 -26 38 -9 82 14 38 15 51 5 86 -44 145 -174 224 -304 182z"/>
<path d="M4787 4920 c-44 -14 -92 -55 -112 -96 -15 -32 -17 -56 -12 -163 10
-235 84 -393 219 -466 44 -24 68 -30 138 -33 78 -3 90 -1 140 25 101 52 146
140 138 269 -11 165 -137 323 -338 424 -85 43 -131 53 -173 40z"/>
<path d="M1945 4711 c-59 -15 -152 -70 -188 -110 -69 -76 -70 -170 -2 -230 68
-60 140 -61 227 -4 54 36 79 28 101 -32 44 -122 172 -163 262 -84 49 43 62 94
46 172 -36 173 -164 284 -339 293 -42 2 -90 0 -107 -5z"/>
<path d="M2937 3960 c-104 -33 -182 -99 -226 -190 -35 -74 -36 -181 -3 -255
63 -139 209 -215 415 -215 104 0 145 15 185 68 34 45 37 127 6 169 -37 49 -66
63 -151 73 -88 10 -158 33 -148 50 10 17 102 11 162 -10 100 -35 163 -20 217
53 29 40 28 110 -2 159 -60 96 -300 148 -455 98z"/>
<path d="M1175 3944 c-118 -18 -205 -38 -235 -55 -81 -46 -112 -148 -70 -234
32 -65 84 -98 166 -103 35 -3 64 -6 64 -8 0 -2 -61 -99 -135 -214 -179 -279
-241 -388 -314 -553 -79 -178 -88 -213 -73 -266 26 -84 103 -141 192 -141 61
0 98 18 137 64 33 40 126 114 308 246 128 92 238 180 403 320 46 38 88 70 94
70 8 0 9 -26 5 -87 -8 -104 -41 -213 -122 -398 -32 -71 -79 -183 -106 -248
-65 -157 -86 -196 -167 -318 -88 -132 -92 -140 -92 -184 0 -104 101 -171 209
-139 43 12 59 24 97 72 97 122 185 287 287 537 36 88 87 210 112 270 94 224
122 367 106 547 -12 134 -30 191 -77 246 -102 119 -281 86 -521 -97 -51 -39
-93 -68 -93 -64 0 4 43 71 96 149 116 172 143 234 144 327 0 111 -53 193 -155
238 -50 22 -186 34 -260 23z"/>
<path d="M4232 3785 c-193 -43 -302 -153 -302 -305 0 -87 25 -152 82 -216 67
-73 127 -97 232 -92 136 5 237 72 331 218 59 91 109 229 101 274 -8 42 -46 90
-90 113 -43 23 -266 28 -354 8z m68 -284 c0 -10 -45 -41 -60 -41 -20 0 -10 19
18 34 32 18 42 19 42 7z"/>
<path d="M3452 3409 c-73 -22 -142 -122 -197 -285 -34 -102 -30 -155 16 -202
39 -40 84 -52 179 -48 158 8 246 81 281 234 25 106 -18 223 -102 279 -45 30
-121 39 -177 22z"/>
<path d="M4935 3001 c-51 -31 -180 -162 -218 -222 -105 -164 -99 -337 14 -419
56 -40 102 -53 169 -47 118 10 240 98 298 213 48 95 57 198 27 301 -14 47 -29
69 -84 125 -67 67 -68 68 -122 68 -35 0 -65 -7 -84 -19z"/>
<path d="M4035 2593 c-88 -20 -142 -59 -176 -124 -30 -59 -25 -124 21 -260 22
-66 40 -123 40 -128 0 -5 -30 4 -67 20 -135 57 -264 32 -353 -69 -63 -71 -82
-122 -88 -234 -5 -117 8 -219 53 -393 44 -171 87 -281 127 -323 46 -48 111
-75 178 -75 67 0 115 19 168 67 83 76 103 178 57 296 -14 35 -23 65 -21 67 2
2 20 -7 40 -20 142 -97 371 -25 453 141 25 52 28 66 27 157 -1 115 -25 213
-125 520 -69 215 -84 247 -131 292 -50 49 -146 80 -203 66z"/>
<path d="M2084 2181 c-62 -15 -124 -53 -170 -104 -61 -68 -141 -189 -155 -238
-22 -73 24 -179 92 -215 l30 -15 -45 -31 c-67 -44 -162 -153 -196 -223 -47
-98 -61 -167 -61 -300 0 -138 15 -206 66 -310 77 -159 216 -281 449 -396 172
-84 263 -109 399 -109 150 0 273 39 404 128 63 43 174 155 197 200 39 78 26
172 -33 231 l-36 36 35 35 c47 47 130 213 174 347 19 61 58 195 86 299 41 152
52 206 53 274 2 140 -48 222 -167 277 -55 25 -71 28 -171 28 -99 0 -120 -3
-205 -33 -98 -35 -295 -127 -388 -181 -58 -35 -55 -38 -72 54 -25 130 -86 214
-174 240 -54 16 -65 17 -112 6z m891 -503 c-32 -148 -115 -376 -193 -528 -43
-84 -54 -113 -54 -151 1 -56 20 -96 64 -139 l33 -30 -68 -64 c-129 -123 -257
-155 -432 -107 -101 27 -264 155 -307 242 -82 162 -43 342 84 383 14 4 27 -12
59 -74 22 -44 58 -95 79 -114 91 -82 220 -65 288 37 23 34 27 51 27 112 0 66
-3 75 -44 144 -36 59 -42 74 -30 82 22 15 400 203 444 222 55 22 58 21 50 -15z"/>
</g>
</svg>
