<?xml version="1.0" standalone="no"?>
<!DOCTYPE svg PUBLIC "-//W3C//DTD SVG 20010904//EN"
 "http://www.w3.org/TR/2001/REC-SVG-20010904/DTD/svg10.dtd">
<svg version="1.0" xmlns="http://www.w3.org/2000/svg"
 width="600.000000pt" height="600.000000pt" viewBox="0 0 600.000000 600.000000"
 preserveAspectRatio="xMidYMid meet">
<metadata>
Created by potrace 1.15, written by Peter Selinger 2001-2017
</metadata>
<g transform="translate(0.000000,600.000000) scale(0.100000,-0.100000)"
fill="#16364b" stroke="none">
<path d="M2865 5559 c-101 -32 -143 -146 -90 -247 47 -90 58 -155 59 -327 1
-136 4 -165 19 -188 26 -40 64 -60 112 -60 55 0 104 29 132 78 48 86 55 319
13 479 -25 97 -86 224 -120 248 -32 23 -85 30 -125 17z"/>
<path d="M1962 5440 c-117 -72 -92 -209 72 -389 74 -81 109 -134 251 -376 33
-58 49 -74 89 -94 44 -22 53 -23 95 -13 31 9 56 24 79 49 27 31 32 44 32 86 0
43 -10 67 -67 171 -93 169 -159 266 -250 372 -43 49 -91 111 -106 136 -43 74
-127 99 -195 58z"/>
<path d="M1392 4771 c-52 -34 -74 -77 -70 -142 7 -104 62 -147 200 -155 211
-13 350 -41 464 -94 53 -25 77 -31 110 -27 56 6 102 40 126 95 36 81 2 149
-101 201 -156 79 -368 131 -566 138 -119 4 -133 3 -163 -16z"/>
<path d="M4339 4757 c-19 -12 -43 -40 -53 -61 -17 -36 -18 -45 -7 -99 38 -183
191 -552 245 -590 93 -65 237 8 237 120 1 26 -17 76 -54 153 -56 119 -90 210
-128 340 -12 41 -30 87 -40 101 -42 59 -140 77 -200 36z"/>
<path d="M3153 4525 c-17 -7 -58 -46 -90 -86 -137 -170 -240 -283 -345 -379
-62 -56 -121 -116 -130 -133 -26 -46 -24 -132 4 -173 24 -35 75 -64 113 -64
43 0 77 20 164 93 186 158 244 222 420 462 l73 100 -4 57 c-3 44 -10 64 -29
84 -47 51 -114 66 -176 39z"/>
<path d="M2275 4303 c-65 -24 -218 -28 -355 -8 -67 9 -137 14 -156 10 -42 -7
-97 -54 -114 -95 -29 -69 7 -162 74 -194 55 -26 229 -48 386 -49 153 -1 277
21 335 59 59 39 82 144 47 214 -37 74 -122 98 -217 63z"/>
<path d="M3835 4129 c-11 -7 -60 -51 -110 -98 -95 -92 -314 -264 -430 -339
-38 -25 -117 -67 -175 -94 -178 -82 -194 -92 -217 -127 -30 -44 -31 -120 -3
-166 27 -44 81 -69 135 -62 117 13 590 291 820 482 86 71 171 164 186 203 23
60 -5 142 -62 183 -36 26 -114 35 -144 18z"/>
<path d="M5036 3755 c-53 -19 -85 -44 -120 -93 -39 -55 -45 -128 -20 -243 34
-160 18 -317 -46 -454 -60 -127 -190 -281 -333 -393 -84 -66 -112 -118 -112
-207 0 -60 5 -78 31 -125 42 -75 103 -113 189 -118 85 -6 144 22 255 120 179
157 278 285 375 483 115 234 153 433 125 655 -15 115 -49 245 -77 287 -57 89
-166 124 -267 88z"/>
<path d="M2220 3739 c-108 -17 -214 -20 -520 -15 -78 1 -109 -17 -141 -82 -47
-96 16 -194 142 -221 119 -26 242 -33 379 -22 180 15 352 47 393 75 90 60 88
201 -3 264 -40 27 -85 27 -250 1z"/>
<path d="M4431 3129 c-13 -5 -55 -39 -94 -75 -250 -231 -463 -319 -862 -354
-143 -13 -176 -25 -212 -80 -30 -44 -32 -131 -3 -178 26 -42 76 -72 122 -72
60 0 376 57 473 85 212 62 404 156 567 277 127 95 206 174 218 219 31 113 -97
223 -209 178z"/>
<path d="M1967 3106 c-20 -7 -44 -20 -53 -27 -45 -37 -58 -131 -25 -185 60
-99 330 -167 579 -146 98 8 116 12 138 33 43 40 57 76 52 136 -4 46 -10 60
-42 91 l-36 37 -193 5 c-184 5 -195 6 -251 33 -74 34 -121 41 -169 23z"/>
<path d="M1435 2936 c-57 -21 -111 -85 -124 -147 -32 -148 21 -571 100 -795
57 -163 180 -352 268 -410 72 -47 181 -41 237 15 34 33 64 97 64 136 0 42 -33
109 -79 162 -128 144 -176 325 -189 700 l-7 212 -31 43 c-54 78 -157 114 -239
84z"/>
<path d="M2139 2358 c-63 -36 -97 -120 -78 -190 16 -60 51 -87 191 -146 69
-29 156 -71 194 -94 115 -69 206 -61 250 24 23 43 22 113 -1 162 -25 52 -83
92 -269 186 -177 90 -219 98 -287 58z"/>
<path d="M4160 2054 c-151 -55 -318 -100 -545 -148 -93 -20 -233 -54 -310 -76
-77 -22 -202 -51 -278 -64 -158 -28 -190 -45 -227 -122 -46 -95 -8 -200 91
-252 41 -22 52 -23 149 -18 136 8 240 26 414 75 77 21 234 62 348 90 207 51
549 162 610 198 18 10 46 38 63 62 26 36 30 52 30 104 0 74 -27 125 -86 164
-65 43 -114 40 -259 -13z"/>
<path d="M4895 1736 c-38 -19 -49 -29 -109 -96 -179 -203 -347 -279 -949 -429
-107 -26 -211 -57 -229 -68 -46 -26 -78 -86 -78 -146 0 -64 18 -104 68 -149
69 -62 111 -62 369 -2 335 77 571 155 723 236 187 101 421 295 461 383 40 87
11 193 -68 248 -49 35 -141 46 -188 23z"/>
<path d="M2020 1388 c-70 -36 -108 -105 -96 -173 18 -92 251 -246 468 -309 91
-26 268 -56 334 -56 118 0 190 118 133 219 -35 63 -74 81 -193 92 -181 15
-301 65 -442 182 -88 73 -130 82 -204 45z"/>
<path d="M2027 910 c-116 -35 -161 -163 -99 -281 24 -46 39 -61 106 -101 95
-57 209 -102 341 -133 173 -41 249 -48 498 -42 241 5 361 22 434 60 75 39 122
139 101 215 -15 53 -73 107 -137 126 -52 15 -60 15 -165 -6 -153 -31 -368 -31
-513 0 -125 27 -244 68 -364 127 -95 46 -139 54 -202 35z"/>
</g>
</svg>
