<?xml version="1.0" standalone="no"?>
<!DOCTYPE svg PUBLIC "-//W3C//DTD SVG 20010904//EN"
 "http://www.w3.org/TR/2001/REC-SVG-20010904/DTD/svg10.dtd">
<svg version="1.0" xmlns="http://www.w3.org/2000/svg"
 width="600.000000pt" height="600.000000pt" viewBox="0 0 600.000000 600.000000"
 preserveAspectRatio="xMidYMid meet">
<metadata>
Created by potrace 1.15, written by Peter Selinger 2001-2017
</metadata>
<g transform="translate(0.000000,600.000000) scale(0.100000,-0.100000)"
fill="#16364b" stroke="none">
<path d="M2325 5441 c-45 -21 -74 -60 -109 -148 -75 -183 -43 -317 94 -389 55
-30 225 -25 357 9 109 29 123 31 123 19 0 -4 -46 -66 -102 -137 -159 -203
-197 -261 -259 -390 -74 -156 -92 -217 -78 -270 6 -22 14 -62 18 -90 9 -67 36
-110 87 -137 l42 -22 214 42 c265 53 378 69 544 80 151 9 180 23 209 94 29 74
-8 163 -81 194 -63 26 -260 14 -569 -35 -66 -10 -122 -17 -124 -15 -14 13 128
244 279 454 104 144 147 222 161 291 20 101 -25 190 -122 244 -79 43 -167 41
-357 -9 -78 -21 -145 -36 -148 -34 -2 3 5 25 16 49 11 24 20 57 20 72 1 107
-115 176 -215 128z"/>
<path d="M1672 4979 c-157 -40 -353 -154 -483 -279 -103 -100 -113 -175 -38
-270 50 -63 74 -75 184 -89 247 -32 407 -88 466 -163 35 -44 97 -77 143 -78
44 0 108 35 135 75 28 41 32 116 8 162 -23 44 -98 117 -161 158 -57 36 -200
89 -274 101 -23 4 -45 10 -47 15 -9 13 136 78 200 90 113 20 185 86 185 171 0
45 -34 96 -75 114 -47 19 -154 16 -243 -7z"/>
<path d="M3950 4901 c-118 -38 -259 -122 -291 -174 -56 -93 23 -217 138 -217
31 0 68 13 142 52 78 40 110 52 148 52 46 1 48 0 51 -29 7 -62 -25 -158 -148
-444 -24 -55 -31 -83 -27 -109 7 -39 48 -98 76 -107 10 -3 26 -24 36 -46 23
-50 64 -80 119 -86 23 -3 100 4 171 15 199 32 338 44 369 32 24 -9 26 -14 26
-69 0 -84 -31 -224 -84 -384 -52 -155 -52 -189 1 -239 53 -51 110 -60 172 -29
50 26 60 43 114 191 102 283 133 490 93 623 -23 79 -97 155 -181 188 -51 19
-79 23 -190 23 -75 0 -182 -8 -253 -18 -68 -10 -125 -16 -128 -13 -3 3 12 50
34 105 126 313 120 489 -21 619 -86 79 -237 106 -367 64z"/>
<path d="M2045 3918 c-110 -36 -278 -73 -404 -88 -112 -13 -153 -30 -182 -76
-32 -52 -34 -101 -7 -153 36 -70 72 -84 193 -77 150 8 499 81 601 125 110 49
119 208 14 278 -45 31 -102 29 -215 -9z"/>
<path d="M3740 3735 c-25 -7 -62 -20 -82 -29 -39 -17 -425 -242 -467 -272 -36
-26 -64 -97 -56 -145 14 -81 105 -142 181 -120 37 10 134 63 283 153 62 38
117 68 122 66 15 -6 -51 -181 -127 -332 -59 -119 -74 -159 -72 -188 1 -27 -5
-47 -22 -70 -28 -39 -39 -123 -20 -168 17 -41 63 -78 106 -86 111 -21 538 162
710 303 140 116 162 224 64 306 -62 53 -175 40 -222 -25 -32 -45 -237 -173
-252 -157 -2 2 20 53 49 112 66 136 98 260 99 387 1 115 -18 173 -74 224 -60
54 -130 67 -220 41z"/>
<path d="M2180 3314 c-52 -8 -111 -23 -130 -33 -38 -19 -80 -87 -80 -131 0
-40 42 -113 79 -137 42 -29 88 -29 212 -3 52 11 129 20 172 20 91 0 91 0 52
-116 -31 -91 -31 -128 -2 -178 29 -52 77 -80 137 -80 93 0 143 56 190 213 65
213 -31 391 -244 447 -66 18 -262 17 -386 -2z"/>
<path d="M1172 3071 c-89 -31 -132 -89 -132 -177 0 -87 61 -173 137 -193 l28
-7 -3 -275 c-6 -473 28 -657 136 -733 98 -69 264 -31 316 73 31 61 27 103 -18
212 -6 13 2 15 54 11 83 -6 114 19 172 135 31 65 61 107 112 158 l69 70 21
-50 c21 -46 21 -54 9 -117 -11 -60 -35 -295 -49 -478 -6 -77 12 -122 65 -157
63 -43 166 -19 204 47 20 33 40 135 62 315 9 72 25 181 37 243 19 106 19 115
4 155 -9 24 -16 52 -16 63 0 36 -38 132 -71 180 -62 91 -160 128 -274 105
-152 -32 -299 -141 -400 -298 -25 -40 -49 -73 -52 -73 -3 0 -2 100 2 223 8
254 0 321 -45 414 -71 143 -219 206 -368 154z"/>
<path d="M4912 3039 c-64 -12 -122 -48 -157 -97 -29 -42 -30 -49 -30 -145 l0
-101 -32 -21 c-17 -11 -83 -49 -144 -85 -194 -112 -294 -232 -334 -401 -19
-82 -19 -196 0 -279 22 -91 95 -235 155 -302 27 -31 50 -58 50 -61 0 -2 -13
-7 -29 -10 -15 -3 -54 -30 -86 -59 l-59 -53 -110 5 c-61 3 -183 4 -271 4 -179
-2 -270 -19 -382 -74 -76 -38 -190 -143 -273 -252 -36 -49 -74 -88 -92 -95
-16 -7 -57 -39 -91 -72 -116 -110 -199 -128 -318 -69 -80 39 -196 154 -259
256 -79 128 -85 136 -118 158 -127 86 -302 -20 -302 -182 0 -37 64 -171 122
-257 60 -89 200 -230 281 -284 172 -114 424 -149 602 -82 71 26 158 85 220
148 27 28 55 51 61 51 21 0 73 50 129 125 114 151 225 231 354 255 51 9 87 7
218 -11 174 -23 255 -21 344 10 114 39 215 116 253 193 39 79 32 147 -24 219
l-28 35 43 12 c82 22 153 110 170 210 9 58 -11 135 -49 185 -44 58 -48 64 -57
106 -12 54 7 117 45 145 17 13 80 49 139 81 189 100 272 178 320 298 27 68 30
253 4 338 -34 116 -143 180 -265 158z"/>
<path d="M3250 2304 c-134 -21 -535 -111 -568 -128 -31 -16 -74 -60 -91 -93
-16 -32 -13 -120 5 -159 23 -48 78 -91 133 -104 41 -9 73 -5 292 39 274 56
470 87 494 78 8 -4 15 -18 15 -32 0 -31 30 -93 57 -117 28 -25 88 -48 125 -48
76 1 166 71 187 147 18 62 13 172 -9 221 -44 96 -111 155 -218 191 -51 17 -85
21 -194 20 -73 -1 -176 -7 -228 -15z"/>
</g>
</svg>
