<?xml version="1.0" standalone="no"?>
<!DOCTYPE svg PUBLIC "-//W3C//DTD SVG 20010904//EN"
 "http://www.w3.org/TR/2001/REC-SVG-20010904/DTD/svg10.dtd">
<svg version="1.0" xmlns="http://www.w3.org/2000/svg"
 width="600.000000pt" height="600.000000pt" viewBox="0 0 600.000000 600.000000"
 preserveAspectRatio="xMidYMid meet">
<metadata>
Created by potrace 1.15, written by Peter Selinger 2001-2017
</metadata>
<g transform="translate(0.000000,600.000000) scale(0.100000,-0.100000)"
fill="#16364b" stroke="none">
<path d="M2370 5410 c-18 -18 -20 -33 -20 -158 0 -225 -26 -378 -89 -516 -38
-83 -98 -147 -185 -198 -39 -23 -76 -49 -83 -57 -19 -25 -15 -76 8 -105 30
-38 76 -35 158 10 162 88 265 254 323 519 20 94 37 409 24 459 -16 63 -93 89
-136 46z"/>
<path d="M3495 5276 c-32 -32 -41 -71 -27 -123 33 -121 167 -244 269 -246 40
0 50 4 75 32 38 42 37 91 -2 165 -44 85 -96 142 -153 171 -68 33 -129 34 -162
1z"/>
<path d="M3014 5119 c-75 -21 -160 -147 -171 -251 -13 -128 61 -199 175 -169
190 52 258 335 100 417 -30 16 -58 17 -104 3z m29 -222 c-11 -17 -27 -33 -37
-35 -16 -3 -16 -1 -1 34 9 21 23 47 33 57 17 19 17 19 20 -2 2 -12 -5 -36 -15
-54z"/>
<path d="M4730 4722 c-37 -38 -45 -99 -30 -247 19 -196 66 -337 128 -386 38
-29 95 -42 141 -29 55 15 85 42 111 102 59 137 -19 373 -178 537 -45 47 -52
51 -96 51 -39 0 -53 -5 -76 -28z"/>
<path d="M2712 4229 c-126 -25 -191 -121 -148 -222 34 -82 173 -157 289 -157
132 0 281 76 307 156 10 30 9 43 -5 80 -9 25 -27 51 -39 59 -52 34 -307 101
-356 94 -3 -1 -24 -5 -48 -10z"/>
<path d="M1152 4154 c-45 -23 -83 -100 -90 -181 -4 -53 -1 -70 21 -115 93
-188 367 -134 367 73 0 89 -47 154 -148 204 -69 35 -109 40 -150 19z"/>
<path d="M5274 3950 c-151 -22 -232 -91 -271 -230 -39 -141 32 -325 153 -396
147 -87 427 13 509 181 78 158 19 317 -151 406 -76 40 -152 52 -240 39z m100
-309 c19 -7 19 -8 -2 -29 -37 -37 -72 -25 -72 24 0 15 41 18 74 5z"/>
<path d="M4249 3780 c-106 -18 -225 -115 -284 -233 -74 -148 -31 -284 113
-354 50 -24 69 -27 157 -28 121 0 182 23 246 92 71 77 84 119 84 263 0 100 -4
132 -18 158 -39 71 -183 121 -298 102z m21 -299 c0 -18 -34 -51 -52 -51 -17 0
-7 40 14 54 30 21 38 20 38 -3z"/>
<path d="M3398 3339 c-41 -43 -148 -251 -148 -288 0 -13 13 -36 29 -52 81 -80
203 13 265 202 31 93 28 128 -11 159 -43 34 -90 27 -135 -21z"/>
<path d="M1170 3264 c-150 -23 -228 -54 -322 -129 -100 -80 -158 -191 -158
-303 0 -124 45 -227 141 -323 92 -92 236 -148 378 -149 97 0 169 -27 228 -85
79 -80 117 -166 193 -435 44 -157 94 -269 168 -375 135 -195 246 -284 407
-325 178 -46 1062 -76 1470 -50 557 35 722 81 1029 288 286 193 384 351 418
682 10 92 9 128 -6 237 -31 225 -100 384 -204 471 -149 125 -326 197 -512 208
-236 15 -476 -63 -710 -232 -58 -41 -142 -93 -186 -116 -79 -39 -85 -40 -205
-45 -105 -5 -137 -2 -209 16 -116 29 -241 92 -395 199 -404 282 -496 336 -678
397 -194 65 -273 75 -565 74 -141 -1 -268 -3 -282 -5z m600 -399 c205 -41 308
-97 720 -389 168 -120 341 -208 472 -241 55 -14 162 -30 246 -37 242 -19 327
6 598 178 160 101 257 145 392 181 186 48 328 16 448 -101 71 -70 94 -143 94
-303 0 -197 -48 -331 -145 -405 -143 -109 -306 -184 -471 -217 -93 -19 -148
-25 -446 -51 -78 -7 -270 -7 -581 0 -753 15 -868 38 -967 192 -43 66 -66 123
-140 355 -153 481 -345 674 -722 727 -119 17 -151 29 -174 64 -14 21 -14 26
-1 39 8 8 30 19 48 24 55 14 542 2 629 -16z"/>
<path d="M459 2071 c-35 -36 -37 -70 -5 -108 13 -15 35 -51 49 -79 55 -109
151 -177 250 -178 54 -1 61 2 89 33 26 29 30 39 25 74 -6 47 -43 95 -122 159
-67 54 -202 128 -235 128 -12 0 -35 -13 -51 -29z"/>
<path d="M5260 1163 c-73 -31 -101 -76 -101 -163 -1 -103 48 -170 123 -170 53
0 74 13 99 62 28 54 41 190 23 235 -21 53 -74 67 -144 36z"/>
</g>
</svg>
