<?xml version="1.0" standalone="no"?>
<!DOCTYPE svg PUBLIC "-//W3C//DTD SVG 20010904//EN"
 "http://www.w3.org/TR/2001/REC-SVG-20010904/DTD/svg10.dtd">
<svg version="1.0" xmlns="http://www.w3.org/2000/svg"
 width="600.000000pt" height="600.000000pt" viewBox="0 0 600.000000 600.000000"
 preserveAspectRatio="xMidYMid meet">
<metadata>
Created by potrace 1.15, written by Peter Selinger 2001-2017
</metadata>
<g transform="translate(0.000000,600.000000) scale(0.100000,-0.100000)"
fill="#16364b" stroke="none">
<path d="M2093 5450 c-47 -29 -66 -71 -84 -195 -17 -119 25 -210 118 -252 46
-21 74 -26 179 -31 68 -2 124 -8 124 -12 0 -9 -72 -344 -94 -437 -22 -96 -2
-154 66 -189 61 -32 141 -4 180 61 21 37 134 477 143 560 8 72 -4 123 -44 187
-51 81 -129 118 -266 127 l-90 6 -6 52 c-4 28 -16 65 -28 81 -42 60 -137 80
-198 42z"/>
<path d="M3407 5409 c-46 -24 -82 -93 -72 -137 17 -80 72 -122 173 -133 90 -9
97 -19 96 -132 0 -76 -6 -108 -32 -185 -18 -51 -32 -109 -32 -129 0 -113 140
-177 228 -105 41 32 68 92 104 224 32 118 32 298 0 380 -62 155 -185 239 -351
238 -56 -1 -86 -6 -114 -21z"/>
<path d="M1615 4804 c-38 -7 -127 -32 -197 -55 -107 -34 -132 -46 -158 -75
-53 -61 -38 -154 35 -210 55 -42 103 -42 231 -1 161 52 262 64 366 44 95 -19
138 -12 187 29 40 33 55 81 42 132 -21 76 -75 119 -179 141 -71 15 -240 12
-327 -5z"/>
<path d="M4287 4466 c-95 -35 -136 -134 -87 -213 28 -47 55 -60 158 -77 121
-21 166 -44 183 -93 16 -45 15 -174 -1 -261 -10 -55 -9 -67 8 -105 43 -98 173
-125 246 -52 29 28 34 43 44 116 43 304 -36 542 -207 629 -100 50 -280 79
-344 56z"/>
<path d="M1523 4444 c-95 -49 -99 -210 -7 -270 15 -10 85 -28 158 -40 72 -13
213 -42 313 -65 201 -45 232 -46 283 -2 44 36 60 74 60 137 0 47 -4 60 -30 90
-17 19 -45 39 -63 45 -60 19 -542 110 -612 116 -54 5 -77 2 -102 -11z"/>
<path d="M3119 4389 c-68 -33 -198 -105 -289 -158 -91 -54 -192 -113 -225
-131 -71 -39 -102 -65 -121 -102 -20 -38 -17 -97 6 -135 22 -37 86 -73 130
-73 30 0 228 98 380 188 41 24 143 80 226 123 84 44 163 91 177 105 67 67 38
182 -57 225 -65 29 -93 24 -227 -42z"/>
<path d="M2225 3834 c-109 -41 -226 -57 -405 -57 -194 1 -221 -5 -278 -60 -78
-75 -54 -205 45 -238 56 -18 431 -5 548 20 159 33 230 58 264 93 60 62 62 155
4 210 -51 49 -106 59 -178 32z"/>
<path d="M3636 3780 c-43 -16 -197 -88 -341 -159 -295 -146 -300 -151 -300
-243 0 -64 20 -100 74 -132 56 -32 100 -25 219 38 59 31 163 84 231 117 l124
60 28 -35 c53 -64 150 -82 213 -41 52 34 93 218 67 298 -40 121 -154 156 -315
97z"/>
<path d="M4944 3426 c-61 -28 -107 -82 -125 -144 -11 -38 -10 -60 4 -142 25
-142 16 -162 -137 -334 -122 -136 -179 -223 -247 -375 -117 -262 -119 -410 -7
-505 76 -65 176 -82 258 -45 92 41 131 100 149 222 23 157 94 286 246 447 177
187 227 297 228 500 1 176 -25 271 -95 337 -70 67 -180 83 -274 39z"/>
<path d="M2015 3198 c-71 -26 -115 -82 -115 -147 0 -45 34 -106 73 -130 36
-22 162 -41 277 -41 36 0 81 -3 101 -6 32 -5 37 -11 47 -49 20 -74 118 -136
191 -120 42 9 89 42 111 77 45 75 14 221 -62 295 -82 79 -147 98 -378 113 -85
6 -168 12 -185 15 -16 2 -43 -1 -60 -7z"/>
<path d="M4315 3139 c-11 -7 -52 -42 -92 -78 -171 -158 -405 -257 -692 -295
-123 -16 -150 -27 -182 -70 -32 -42 -34 -132 -3 -172 36 -49 70 -67 133 -72
118 -9 455 79 617 161 181 91 412 281 435 358 16 51 0 104 -41 144 -26 25 -40
30 -93 32 -36 2 -70 -1 -82 -8z"/>
<path d="M1312 2969 c-79 -40 -112 -121 -86 -213 26 -88 32 -135 49 -334 25
-296 67 -486 143 -639 64 -130 116 -173 207 -173 74 0 137 45 169 122 26 61
20 113 -20 190 -57 112 -85 248 -119 583 -21 204 -38 285 -76 363 -39 80 -87
114 -167 119 -44 3 -67 -1 -100 -18z"/>
<path d="M2130 2437 c-64 -19 -107 -41 -174 -92 -80 -59 -116 -114 -116 -174
0 -134 137 -183 276 -98 32 20 74 42 92 48 33 11 35 10 80 -39 58 -62 111 -81
173 -63 50 15 85 51 101 102 17 59 -10 119 -93 202 -106 107 -225 147 -339
114z"/>
<path d="M3815 2153 c-11 -2 -103 -24 -205 -48 -102 -24 -225 -51 -275 -60
-194 -36 -472 -96 -507 -112 -72 -31 -118 -104 -118 -188 0 -88 49 -153 133
-176 51 -14 179 5 437 63 453 102 614 124 768 103 64 -9 101 5 142 51 73 84
54 218 -43 300 -65 55 -123 74 -222 73 -49 -1 -99 -3 -110 -6z"/>
<path d="M2265 1906 c-72 -32 -98 -98 -98 -246 1 -183 56 -328 172 -451 l69
-74 65 0 c79 0 111 19 145 87 32 64 23 102 -41 175 -83 95 -92 125 -90 280 2
121 0 134 -20 165 -26 38 -98 78 -142 78 -16 -1 -43 -7 -60 -14z"/>
<path d="M4681 1645 c-18 -8 -63 -43 -99 -76 -103 -97 -145 -112 -527 -195
-337 -73 -647 -220 -706 -335 -31 -62 -24 -162 15 -214 48 -62 135 -90 202
-65 15 6 58 31 95 56 145 96 301 151 609 213 228 46 336 83 450 153 96 59 204
160 225 212 34 80 4 177 -71 229 -51 36 -141 46 -193 22z"/>
<path d="M2065 1060 c-53 -25 -68 -38 -94 -80 -26 -43 -27 -101 -2 -155 22
-48 171 -194 260 -254 180 -123 368 -181 579 -181 212 0 485 106 539 209 65
123 -8 268 -141 279 -45 4 -65 -1 -132 -31 -128 -58 -187 -71 -304 -71 -85 0
-116 5 -163 23 -74 29 -181 101 -279 189 -105 93 -178 113 -263 72z"/>
</g>
</svg>
