<?xml version="1.0" standalone="no"?>
<!DOCTYPE svg PUBLIC "-//W3C//DTD SVG 20010904//EN"
 "http://www.w3.org/TR/2001/REC-SVG-20010904/DTD/svg10.dtd">
<svg version="1.0" xmlns="http://www.w3.org/2000/svg"
 width="600.000000pt" height="600.000000pt" viewBox="0 0 600.000000 600.000000"
 preserveAspectRatio="xMidYMid meet">
<metadata>
Created by potrace 1.15, written by Peter Selinger 2001-2017
</metadata>
<g transform="translate(0.000000,600.000000) scale(0.100000,-0.100000)"
fill="#16364b" stroke="none">
<path d="M2231 5839 c-13 -5 -69 -50 -125 -101 -55 -50 -168 -145 -251 -212
-337 -272 -446 -424 -400 -557 67 -189 290 -174 859 57 214 88 250 107 276
148 65 105 5 240 -113 253 -33 4 -60 -3 -127 -32 -144 -62 -291 -118 -296
-112 -3 2 62 63 143 135 174 153 208 187 222 225 45 119 -73 242 -188 196z"/>
<path d="M3067 5676 c-65 -24 -97 -66 -97 -128 0 -70 73 -147 140 -148 41 0
206 -48 258 -74 53 -27 114 -84 140 -131 13 -23 17 -55 17 -135 0 -89 -3 -111
-22 -145 -39 -74 -157 -166 -288 -226 -98 -44 -137 -107 -121 -194 14 -74 104
-136 172 -119 77 20 298 159 384 243 104 102 159 210 181 361 37 258 -74 486
-290 594 -153 77 -399 130 -474 102z"/>
<path d="M990 5341 c-121 -37 -282 -174 -333 -283 -95 -202 -36 -436 160 -633
117 -118 199 -133 272 -50 76 87 63 159 -52 276 -86 87 -117 145 -117 216 0
74 38 119 146 172 34 17 71 42 83 57 64 81 34 201 -59 238 -44 17 -61 18 -100
7z"/>
<path d="M2715 4963 c-112 -45 -219 -141 -270 -243 -45 -88 -57 -207 -30 -296
45 -153 230 -286 421 -301 104 -9 164 42 164 142 0 85 -47 134 -154 161 -119
30 -166 79 -147 152 13 46 44 77 119 117 66 35 95 78 95 139 0 60 -27 104 -76
127 -51 22 -70 23 -122 2z"/>
<path d="M4748 4927 c-70 -53 -80 -83 -73 -206 19 -308 148 -497 346 -509 84
-5 152 22 210 85 58 63 82 122 81 203 -2 145 -98 289 -257 381 -154 90 -234
102 -307 46z"/>
<path d="M1860 4455 c-107 -27 -186 -71 -268 -149 -74 -70 -89 -123 -55 -193
22 -47 94 -93 146 -93 48 0 70 11 132 70 28 26 67 52 87 59 39 13 46 11 148
-45 55 -30 93 -30 150 -1 74 38 100 121 62 197 -23 46 -108 113 -175 138 -74
28 -160 35 -227 17z"/>
<path d="M2627 3846 c-51 -19 -76 -42 -99 -93 -29 -67 -9 -144 50 -188 21 -16
44 -20 104 -21 42 -1 81 -5 87 -8 29 -18 -4 -152 -66 -266 -48 -88 -101 -158
-204 -267 -65 -68 -90 -101 -95 -127 -21 -115 96 -218 214 -187 76 21 281 260
375 439 191 364 129 656 -155 722 -61 14 -166 12 -211 -4z"/>
<path d="M4232 3790 c-139 -37 -243 -114 -292 -215 -36 -73 -35 -188 1 -266
29 -62 93 -129 148 -156 57 -27 165 -29 232 -4 135 51 226 147 320 336 66 134
74 184 39 242 -35 58 -87 75 -240 80 -111 3 -148 0 -208 -17z m62 -314 c-8
-22 -53 -48 -70 -42 -21 8 -8 25 30 42 40 17 47 17 40 0z"/>
<path d="M1172 3774 c-101 -27 -264 -96 -299 -128 -92 -80 -98 -228 -14 -299
43 -36 101 -51 149 -37 61 17 63 13 20 -62 -86 -152 -213 -453 -299 -713 -64
-195 -57 -269 34 -332 53 -37 146 -44 208 -15 57 26 182 141 508 470 l264 267
-8 -55 c-13 -103 -46 -255 -86 -402 -46 -171 -175 -567 -213 -652 -32 -72 -33
-126 -4 -177 24 -43 85 -79 134 -79 41 0 104 39 127 78 24 40 76 188 163 457
81 250 118 390 139 525 9 58 23 134 31 170 7 36 18 118 24 183 20 231 -25 334
-155 352 -107 15 -212 -45 -406 -232 -80 -79 -149 -143 -152 -143 -3 0 41 92
98 205 131 259 147 326 105 439 -27 71 -91 143 -155 172 -58 28 -131 30 -213
8z"/>
<path d="M3475 3367 c-86 -41 -146 -127 -184 -267 -11 -39 -23 -98 -27 -130
-5 -49 -3 -64 16 -99 42 -73 116 -92 255 -66 146 27 231 75 280 159 107 183
-13 410 -223 423 -56 3 -76 0 -117 -20z"/>
<path d="M4843 2790 c-45 -18 -203 -232 -254 -346 -32 -69 -45 -152 -35 -209
5 -26 22 -52 55 -85 59 -59 132 -80 208 -60 186 46 312 218 315 430 1 53 -3
94 -11 110 -19 35 -137 149 -167 160 -31 12 -81 12 -111 0z"/>
<path d="M4216 2435 c-61 -23 -102 -60 -130 -117 -33 -66 -33 -117 -1 -233 13
-49 23 -91 21 -93 -2 -2 -42 8 -88 23 -52 17 -117 29 -173 32 -121 8 -185 -11
-253 -72 -90 -81 -115 -187 -88 -380 69 -489 74 -515 128 -560 74 -62 209 -58
301 9 37 27 77 110 77 160 0 23 -7 101 -17 173 -9 73 -14 135 -11 138 6 6 31
-8 111 -61 61 -41 111 -48 192 -29 162 37 251 123 286 272 23 102 9 351 -30
544 -21 103 -51 149 -117 183 -50 26 -154 31 -208 11z"/>
<path d="M2925 2340 c-130 -28 -593 -246 -639 -301 -14 -17 -26 -34 -26 -38 0
-3 -31 -5 -69 -3 -91 5 -156 -16 -220 -74 -27 -24 -59 -64 -70 -87 -39 -81
-20 -199 40 -253 32 -29 94 -47 133 -41 l32 5 25 -114 25 -114 -50 -29 c-148
-84 -225 -230 -213 -406 6 -102 34 -174 109 -286 137 -205 274 -314 484 -385
170 -57 329 -41 513 49 134 66 174 96 200 149 47 99 4 221 -92 257 -64 24
-125 14 -241 -41 -135 -64 -191 -71 -290 -38 -37 12 -94 40 -127 62 -94 63
-189 192 -189 258 0 25 4 30 24 30 14 0 44 -15 69 -34 61 -47 73 -52 152 -71
78 -18 112 -14 172 21 72 42 109 125 91 209 -8 37 -23 59 -70 108 -80 80 -118
164 -174 381 -50 195 -48 186 -31 186 8 0 109 47 225 104 116 57 223 106 237
108 24 5 26 4 20 -26 -16 -78 -109 -334 -160 -436 -45 -93 -55 -122 -55 -164
1 -110 68 -187 168 -194 117 -7 175 50 276 273 154 340 203 623 132 763 -62
123 -143 174 -286 178 -47 2 -103 -1 -125 -6z"/>
</g>
</svg>
