<?xml version="1.0" standalone="no"?>
<!DOCTYPE svg PUBLIC "-//W3C//DTD SVG 20010904//EN"
 "http://www.w3.org/TR/2001/REC-SVG-20010904/DTD/svg10.dtd">
<svg version="1.0" xmlns="http://www.w3.org/2000/svg"
 width="600.000000pt" height="600.000000pt" viewBox="0 0 600.000000 600.000000"
 preserveAspectRatio="xMidYMid meet">
<metadata>
Created by potrace 1.15, written by Peter Selinger 2001-2017
</metadata>
<g transform="translate(0.000000,600.000000) scale(0.100000,-0.100000)"
fill="#16364b" stroke="none">
<path d="M2153 5310 c-103 -24 -188 -93 -240 -192 l-27 -53 4 -540 c8 -951 4
-1276 -19 -1489 -12 -113 -24 -192 -31 -196 -30 -19 -295 -44 -460 -45 l-175
0 -3 25 c-5 36 -21 53 -38 39 -8 -7 -11 -22 -7 -42 l6 -32 -45 43 c-24 23 -49
42 -55 42 -23 0 -24 -20 -3 -59 11 -22 20 -42 20 -45 0 -2 -21 -4 -46 -3 -62
3 -67 -16 -12 -44 l43 -23 -37 -9 c-26 -6 -38 -15 -38 -26 0 -16 14 -19 103
-24 140 -9 412 -1 586 18 79 8 147 15 152 15 5 0 9 -69 9 -154 0 -84 7 -221
15 -305 42 -421 108 -606 274 -772 94 -94 186 -149 318 -191 l101 -33 -6 -30
c-4 -16 -7 -93 -6 -170 0 -152 16 -228 85 -415 18 -47 34 -97 36 -113 l5 -27
-76 0 c-118 0 -176 -35 -176 -106 0 -67 84 -112 184 -99 185 26 268 129 216
270 -94 256 -125 401 -116 540 3 50 8 101 12 114 7 22 9 23 63 15 31 -5 259
-9 506 -9 395 0 450 -2 446 -15 -2 -8 -6 -76 -9 -151 -6 -167 8 -270 55 -404
33 -97 49 -155 42 -155 -69 -4 -185 -22 -207 -34 -35 -18 -66 -77 -56 -109 20
-66 81 -85 198 -62 136 28 214 82 237 168 10 38 7 52 -34 177 -25 74 -52 177
-61 229 -16 93 -20 278 -7 335 l6 30 183 23 c242 30 326 63 451 178 60 55 135
171 162 252 39 119 41 399 4 576 -58 277 -121 406 -281 576 -42 45 -75 83 -73
85 2 1 57 8 121 15 133 14 290 47 395 84 39 14 74 23 76 20 7 -6 167 97 167
107 0 5 -4 12 -10 15 -5 3 -10 17 -10 31 0 19 -5 24 -27 24 -21 0 -24 3 -15
12 36 36 -4 50 -53 18 -38 -25 -44 -25 -38 0 3 13 -1 22 -12 26 -21 8 -35 -11
-35 -48 0 -23 -7 -29 -55 -47 -149 -56 -371 -97 -574 -106 l-126 -6 -185 150
c-288 235 -443 350 -592 439 -352 212 -411 285 -571 712 -75 201 -99 289 -122
450 -32 228 -52 291 -126 383 -102 128 -242 182 -386 147z m167 -165 c43 -22
92 -78 116 -130 14 -30 35 -121 54 -233 35 -209 67 -313 176 -568 180 -425
254 -515 566 -698 216 -127 344 -216 503 -353 83 -71 218 -182 300 -248 178
-141 280 -237 345 -325 74 -101 85 -130 152 -379 29 -112 37 -398 13 -487 -33
-124 -132 -240 -250 -295 -86 -41 -304 -77 -520 -88 -236 -12 -885 -7 -960 7
-33 6 -105 16 -160 21 -200 21 -311 66 -415 170 -149 150 -204 339 -235 811
-20 294 -19 376 10 660 39 381 50 706 32 974 -11 154 -15 348 -13 638 l2 416
27 41 c53 80 171 110 257 66z"/>
<path d="M2653 2840 c-53 -22 -49 -76 7 -105 31 -16 57 -11 77 14 16 21 16 66
0 79 -19 16 -60 22 -84 12z"/>
<path d="M3137 2752 c-10 -10 -17 -29 -17 -41 0 -26 45 -71 71 -71 23 0 59 46
59 75 0 49 -79 75 -113 37z"/>
<path d="M2864 1857 c-21 -12 -17 -51 7 -73 19 -17 36 -19 146 -17 68 1 133 5
144 8 25 8 36 52 18 70 -16 15 -290 26 -315 12z"/>
</g>
</svg>
