<?xml version="1.0" standalone="no"?>
<!DOCTYPE svg PUBLIC "-//W3C//DTD SVG 20010904//EN"
 "http://www.w3.org/TR/2001/REC-SVG-20010904/DTD/svg10.dtd">
<svg version="1.0" xmlns="http://www.w3.org/2000/svg"
 width="600.000000pt" height="600.000000pt" viewBox="0 0 600.000000 600.000000"
 preserveAspectRatio="xMidYMid meet">
<metadata>
Created by potrace 1.15, written by Peter Selinger 2001-2017
</metadata>
<g transform="translate(0.000000,600.000000) scale(0.100000,-0.100000)"
fill="#16364b" stroke="none">
<path d="M2155 5836 c-16 -7 -79 -67 -140 -132 -60 -65 -157 -164 -215 -218
-255 -241 -315 -317 -327 -414 -15 -126 67 -211 202 -212 131 0 315 60 610
201 230 109 264 134 284 206 15 51 14 61 -9 110 -24 54 -70 83 -132 83 -38 0
-73 -14 -197 -76 -84 -42 -153 -75 -155 -73 -2 2 55 67 126 144 72 77 136 154
144 172 57 131 -65 265 -191 209z"/>
<path d="M3076 5700 c-68 -21 -115 -103 -97 -168 22 -74 57 -100 210 -158 40
-16 106 -47 145 -70 155 -91 207 -165 214 -301 4 -69 1 -88 -18 -127 -36 -75
-116 -131 -251 -175 -100 -33 -139 -86 -118 -163 18 -70 87 -118 168 -118 52
0 172 44 240 87 106 68 202 191 245 312 27 79 33 228 12 311 -51 199 -191 354
-432 477 -101 53 -238 104 -271 102 -10 0 -31 -5 -47 -9z"/>
<path d="M979 5341 c-239 -95 -389 -306 -364 -510 19 -150 131 -323 269 -415
79 -53 175 -26 216 60 17 35 21 54 15 89 -7 47 -31 78 -115 144 -54 44 -95
127 -86 176 10 51 48 90 129 130 87 44 105 59 128 110 65 140 -53 272 -192
216z"/>
<path d="M2694 4956 c-143 -67 -223 -219 -212 -403 4 -55 13 -88 37 -137 60
-122 154 -176 321 -183 85 -3 99 -1 135 19 46 27 85 89 85 136 0 46 -32 103
-70 126 -17 10 -60 22 -95 26 -94 12 -119 27 -123 74 -4 51 27 86 76 86 137 0
180 187 60 260 -48 29 -147 27 -214 -4z"/>
<path d="M4785 4932 c-47 -22 -102 -81 -111 -119 -11 -43 4 -223 25 -306 37
-144 98 -230 196 -278 85 -41 166 -44 248 -6 121 55 181 146 181 273 0 60 -5
81 -33 138 -54 110 -157 202 -306 273 -93 44 -146 50 -200 25z"/>
<path d="M1853 4510 c-113 -23 -255 -130 -268 -204 -16 -84 17 -153 87 -181
52 -20 113 -14 157 18 17 12 48 34 69 49 64 47 91 46 147 -2 56 -48 82 -60
133 -60 107 0 173 107 126 206 -20 42 -89 106 -146 135 -89 45 -199 59 -305
39z"/>
<path d="M2780 3884 c-120 -52 -146 -183 -52 -260 l25 -20 -12 -84 c-16 -110
-51 -220 -112 -351 -34 -74 -49 -118 -49 -148 0 -145 158 -206 257 -99 35 37
138 248 171 349 49 151 57 197 57 324 0 104 -3 127 -23 170 -29 63 -57 93
-107 116 -48 22 -108 24 -155 3z"/>
<path d="M1220 3820 c-61 -8 -105 -19 -230 -58 -68 -21 -92 -34 -126 -68 -88
-88 -80 -224 17 -297 33 -24 107 -33 150 -18 18 6 34 9 36 7 2 -2 -20 -41 -48
-87 -75 -121 -157 -296 -238 -511 -95 -252 -123 -358 -109 -422 21 -97 125
-165 225 -146 77 14 121 49 388 310 212 207 443 415 452 406 8 -8 -15 -145
-43 -253 -31 -119 -176 -555 -219 -658 -19 -44 -50 -109 -69 -145 -25 -46 -36
-78 -36 -108 0 -96 69 -166 164 -166 66 0 112 26 148 84 31 50 96 217 138 355
15 50 49 150 74 223 88 251 126 389 167 612 13 71 10 239 -5 303 -33 142 -139
204 -280 163 -96 -28 -189 -91 -363 -245 -51 -45 -93 -78 -93 -74 0 5 36 70
81 144 105 175 136 236 155 310 20 77 12 140 -27 208 -59 102 -170 150 -309
131z"/>
<path d="M4240 3789 c-122 -21 -247 -106 -298 -204 -37 -70 -38 -187 -3 -258
29 -60 79 -109 140 -139 39 -19 62 -23 146 -23 87 1 108 4 158 27 66 31 158
114 194 175 44 76 93 213 93 262 0 56 -27 110 -67 133 -56 34 -240 47 -363 27z
m47 -314 c-29 -25 -57 -33 -57 -15 0 11 49 39 70 39 10 0 5 -8 -13 -24z"/>
<path d="M3499 3376 c-74 -20 -147 -83 -188 -164 -28 -56 -71 -199 -71 -238 0
-110 100 -166 257 -144 189 26 297 120 310 270 16 175 -145 320 -308 276z"/>
<path d="M4895 2831 c-37 -22 -187 -168 -238 -232 -167 -208 -94 -443 138
-444 178 0 341 157 376 361 7 41 9 92 5 128 -7 51 -14 65 -59 116 -29 31 -64
64 -79 74 -35 22 -106 20 -143 -3z"/>
<path d="M4133 2456 c-108 -51 -141 -141 -104 -287 11 -47 24 -107 27 -132 l7
-47 -89 42 c-195 91 -351 55 -457 -104 -46 -70 -67 -145 -67 -240 0 -136 79
-485 131 -578 42 -75 161 -130 248 -114 110 20 195 111 208 222 4 37 -3 71
-32 162 -21 63 -40 121 -42 128 -8 20 22 14 58 -13 113 -81 183 -98 286 -67
120 37 191 101 235 210 30 78 30 243 -1 392 -24 118 -72 283 -94 326 -58 112
-194 155 -314 100z"/>
<path d="M2880 2266 c-175 -48 -393 -144 -510 -222 -51 -33 -57 -35 -85 -24
-125 50 -224 23 -326 -88 -85 -93 -113 -174 -90 -260 22 -80 80 -123 181 -134
21 -3 26 -11 37 -63 7 -33 12 -65 13 -71 0 -6 -27 -23 -61 -39 -77 -37 -151
-115 -191 -202 -28 -59 -32 -80 -36 -175 -6 -131 8 -207 54 -307 100 -216 275
-364 520 -437 119 -35 317 -45 414 -19 126 33 329 154 371 221 42 69 35 182
-16 242 -14 17 -44 37 -67 47 -61 24 -112 13 -194 -42 -106 -70 -167 -95 -233
-96 -177 -1 -361 104 -440 253 -27 49 -32 69 -29 112 3 46 6 53 25 56 25 4
100 -37 152 -81 74 -63 156 -82 229 -52 75 32 115 90 115 170 0 66 -21 103
-97 179 -70 68 -104 132 -135 248 -30 117 -36 168 -19 168 8 0 121 54 252 120
131 66 242 118 246 115 20 -12 -79 -281 -171 -469 -65 -132 -72 -171 -40 -235
42 -82 131 -129 221 -117 99 14 141 70 223 296 171 473 171 473 172 600 0 91
-3 112 -24 152 -76 154 -252 213 -461 154z"/>
</g>
</svg>
