<?xml version="1.0" standalone="no"?>
<!DOCTYPE svg PUBLIC "-//W3C//DTD SVG 20010904//EN"
 "http://www.w3.org/TR/2001/REC-SVG-20010904/DTD/svg10.dtd">
<svg version="1.0" xmlns="http://www.w3.org/2000/svg"
 width="600.000000pt" height="600.000000pt" viewBox="0 0 600.000000 600.000000"
 preserveAspectRatio="xMidYMid meet">
<metadata>
Created by potrace 1.15, written by Peter Selinger 2001-2017
</metadata>
<g transform="translate(0.000000,600.000000) scale(0.100000,-0.100000)"
fill="#16364b" stroke="none">
<path d="M2365 5376 c-13 -20 -15 -40 -10 -108 8 -101 -9 -292 -36 -397 -28
-105 -90 -230 -142 -283 -24 -25 -73 -62 -110 -82 -62 -35 -67 -40 -67 -71 0
-35 28 -65 61 -65 20 0 134 72 178 114 121 114 210 333 232 573 11 129 5 292
-12 325 -15 28 -75 24 -94 -6z"/>
<path d="M3559 5283 c-9 -2 -24 -21 -34 -42 -17 -38 -16 -39 10 -92 40 -79
108 -171 150 -203 20 -16 54 -30 75 -33 32 -5 43 -1 66 22 24 24 26 32 21 77
-7 58 -66 164 -119 215 -52 50 -114 71 -169 56z"/>
<path d="M3035 5129 c-40 -12 -54 -25 -98 -82 -73 -96 -98 -260 -50 -325 28
-38 79 -49 125 -28 57 27 135 114 175 193 31 62 35 79 31 123 -6 60 -42 105
-97 120 -41 11 -46 11 -86 -1z m65 -126 c-1 -42 -87 -183 -112 -183 -16 0 -7
66 16 116 32 68 96 113 96 67z"/>
<path d="M4772 4757 c-51 -29 -55 -46 -56 -246 0 -265 23 -378 90 -430 53 -41
124 -18 161 52 39 76 33 284 -14 430 -56 180 -107 235 -181 194z"/>
<path d="M2632 4207 c-48 -28 -67 -82 -51 -143 21 -77 108 -140 236 -170 200
-47 374 58 308 185 -16 33 -7 29 -190 88 -153 50 -262 64 -303 40z"/>
<path d="M5235 3980 c-92 -23 -162 -75 -203 -154 -24 -45 -27 -62 -27 -146 0
-84 3 -102 28 -152 36 -74 119 -150 189 -174 225 -77 491 122 465 346 -11 88
-60 155 -167 226 -90 59 -190 78 -285 54z m123 -301 c36 -12 33 -35 -7 -50
-20 -8 -28 -7 -38 7 -17 23 -17 54 1 54 7 0 27 -5 44 -11z"/>
<path d="M4177 3755 c-103 -39 -192 -140 -223 -254 -15 -53 -16 -71 -6 -118
29 -138 157 -222 320 -210 220 16 327 167 278 391 -21 93 -47 126 -130 168
-73 37 -176 47 -239 23z m94 -293 c-12 -23 -48 -35 -58 -19 -9 15 47 61 59 49
6 -6 6 -17 -1 -30z"/>
<path d="M1304 3730 c-199 -42 -306 -239 -225 -411 44 -92 127 -157 269 -210
92 -34 135 -76 192 -189 96 -192 145 -409 210 -940 22 -184 60 -316 128 -445
52 -98 194 -241 281 -282 l65 -31 -3 -56 c-6 -140 90 -168 492 -145 237 13
269 8 303 -48 26 -41 44 -53 82 -53 47 0 92 46 92 94 0 27 -9 46 -35 74 l-34
39 407 7 c539 9 668 22 883 92 197 64 357 158 508 300 215 202 275 335 275
609 1 175 -18 260 -85 383 -130 243 -328 362 -602 362 -211 0 -287 -31 -515
-206 -80 -62 -231 -145 -332 -183 -30 -12 -101 -30 -157 -41 -83 -16 -116 -18
-175 -10 -296 37 -597 195 -824 431 -39 41 -130 154 -203 252 -147 198 -238
295 -357 384 -206 152 -497 254 -640 223z m237 -305 c235 -96 353 -196 544
-460 200 -277 331 -415 509 -533 334 -223 700 -311 989 -238 220 56 512 192
639 297 114 95 163 113 303 114 131 0 179 -17 249 -89 95 -98 140 -214 139
-361 -1 -187 -79 -347 -232 -478 -56 -48 -215 -130 -331 -172 -186 -66 -469
-89 -1070 -87 -463 1 -639 10 -797 41 -121 24 -171 42 -227 80 -125 86 -185
220 -227 506 -54 375 -111 653 -169 835 -84 260 -220 433 -384 486 -97 31
-147 68 -130 96 12 19 99 2 195 -37z"/>
<path d="M2280 2390 c-27 -27 -25 -56 5 -85 45 -46 105 -22 105 43 0 56 -70
82 -110 42z"/>
<path d="M2836 2049 c-35 -28 -33 -61 5 -93 38 -32 50 -32 77 -3 29 31 29 81
0 101 -30 21 -50 20 -82 -5z"/>
<path d="M3437 3346 c-22 -23 -101 -176 -133 -255 -20 -50 -13 -84 21 -99 39
-18 68 0 119 71 86 121 128 254 90 291 -23 24 -71 20 -97 -8z"/>
<path d="M454 2015 c-10 -15 -13 -32 -8 -47 10 -34 127 -150 189 -187 93 -57
175 -41 175 34 0 42 -39 78 -174 159 -121 73 -156 81 -182 41z"/>
<path d="M5369 1119 c-50 -18 -95 -166 -70 -227 24 -58 106 -80 155 -41 41 32
56 71 56 144 0 79 -11 102 -55 121 -39 16 -49 16 -86 3z"/>
</g>
</svg>
