<?xml version="1.0" standalone="no"?>
<!DOCTYPE svg PUBLIC "-//W3C//DTD SVG 20010904//EN"
 "http://www.w3.org/TR/2001/REC-SVG-20010904/DTD/svg10.dtd">
<svg version="1.0" xmlns="http://www.w3.org/2000/svg"
 width="600.000000pt" height="600.000000pt" viewBox="0 0 600.000000 600.000000"
 preserveAspectRatio="xMidYMid meet">
<metadata>
Created by potrace 1.15, written by Peter Selinger 2001-2017
</metadata>
<g transform="translate(0.000000,600.000000) scale(0.100000,-0.100000)"
fill="#16364b" stroke="none">
<path d="M3024 5091 c-74 -34 -144 -150 -144 -240 0 -55 36 -105 79 -109 53
-5 79 6 133 56 122 114 143 256 43 298 -44 18 -61 17 -111 -5z m94 -93 c5 -64
-87 -188 -140 -188 -60 0 -10 165 64 210 49 30 72 23 76 -22z"/>
<path d="M4793 4738 c-33 -16 -42 -51 -53 -208 -13 -193 -12 -367 3 -410 24
-69 101 -79 133 -17 15 27 18 76 22 314 l5 281 -26 26 c-28 28 -49 31 -84 14z"/>
<path d="M1655 4395 c-150 -81 -173 -270 -51 -419 48 -60 75 -117 101 -220 42
-165 82 -516 90 -796 11 -333 56 -966 81 -1115 19 -115 37 -171 88 -270 48
-94 140 -195 219 -243 69 -42 166 -76 278 -98 l86 -17 -5 -136 c-5 -161 8
-242 75 -460 24 -79 42 -150 39 -158 -5 -11 -19 -13 -65 -7 -78 9 -123 -1
-154 -32 -83 -82 -14 -174 130 -174 124 0 199 37 234 114 26 58 24 85 -22 236
-68 227 -82 306 -77 453 3 70 9 131 14 135 5 4 228 6 495 4 l486 -3 -5 -102
c-5 -109 28 -348 68 -500 11 -40 20 -84 20 -99 l0 -28 -91 0 c-91 0 -91 0
-126 -35 -31 -31 -35 -40 -30 -72 8 -47 29 -68 83 -83 85 -24 236 19 289 82
50 59 51 90 12 250 -20 78 -46 210 -58 293 -19 126 -21 161 -12 223 6 40 12
75 14 77 2 2 58 11 124 20 189 26 422 87 551 145 237 106 395 325 411 571 12
186 -73 408 -206 532 -93 87 -175 113 -381 121 -207 8 -325 30 -663 125 -173
48 -299 96 -417 159 -350 185 -570 407 -815 822 -135 228 -214 335 -354 480
-159 165 -178 182 -231 208 -69 34 -178 42 -225 17z m164 -155 c22 -11 56 -40
78 -66 21 -25 68 -77 104 -114 94 -96 169 -199 291 -397 177 -286 387 -552
541 -683 144 -122 325 -233 527 -322 120 -53 327 -118 490 -153 41 -9 93 -20
115 -25 103 -23 242 -41 380 -50 173 -10 225 -25 288 -80 79 -70 153 -239 164
-370 14 -186 -87 -360 -262 -452 -144 -74 -434 -144 -705 -168 -189 -17 -1104
-6 -1235 14 -279 44 -417 121 -495 276 -60 118 -76 224 -115 735 -8 110 -19
234 -24 275 -5 41 -12 167 -16 280 -7 217 -20 356 -59 642 -37 266 -71 372
-159 486 -30 40 -41 64 -45 101 -4 43 -1 50 23 69 34 27 65 28 114 2z"/>
<path d="M2482 2584 c-29 -20 -29 -64 1 -91 34 -31 53 -34 81 -12 50 40 24
119 -39 119 -11 0 -31 -7 -43 -16z"/>
<path d="M2930 2300 c-27 -27 -25 -56 6 -85 35 -32 67 -32 93 1 25 32 27 67 5
88 -22 23 -80 20 -104 -4z"/>
<path d="M5224 3970 c-78 -25 -144 -83 -181 -158 -39 -80 -39 -182 -1 -264 54
-115 157 -193 271 -205 70 -7 174 24 238 71 90 66 147 189 136 293 -10 99 -63
173 -171 240 -56 34 -67 37 -146 40 -64 2 -100 -2 -146 -17z m152 -280 c26
-10 26 -11 9 -30 -23 -25 -51 -26 -65 -1 -22 41 -1 52 56 31z"/>
<path d="M4167 3736 c-130 -47 -205 -153 -206 -292 -1 -60 4 -80 30 -132 142
-284 559 -170 559 152 0 84 -31 184 -68 219 -63 61 -220 87 -315 53z m111
-287 c-2 -18 -10 -25 -30 -27 -34 -4 -35 6 -7 42 24 31 43 23 37 -15z"/>
<path d="M5347 1099 c-32 -19 -67 -108 -67 -171 0 -50 4 -62 29 -90 23 -26 37
-33 68 -33 75 0 120 53 130 150 7 69 -10 121 -47 140 -34 17 -87 19 -113 4z"/>
</g>
</svg>
