<?xml version="1.0" standalone="no"?>
<!DOCTYPE svg PUBLIC "-//W3C//DTD SVG 20010904//EN"
 "http://www.w3.org/TR/2001/REC-SVG-20010904/DTD/svg10.dtd">
<svg version="1.0" xmlns="http://www.w3.org/2000/svg"
 width="600.000000pt" height="600.000000pt" viewBox="0 0 600.000000 600.000000"
 preserveAspectRatio="xMidYMid meet">
<metadata>
Created by potrace 1.15, written by Peter Selinger 2001-2017
</metadata>
<g transform="translate(0.000000,600.000000) scale(0.100000,-0.100000)"
fill="#16364b" stroke="none">
<path d="M2206 5469 c-115 -28 -213 -131 -261 -272 -25 -74 -25 -80 -29 -474
-8 -733 -26 -1677 -32 -1725 -3 -27 -10 -48 -14 -48 -4 0 -52 9 -106 20 -123
25 -257 68 -397 127 l-109 46 4 46 c3 40 1 46 -17 46 -14 0 -21 -8 -23 -27 -5
-41 -15 -35 -43 25 -13 29 -31 52 -39 52 -12 0 -14 -11 -12 -52 4 -56 -2 -62
-34 -38 -10 8 -27 15 -36 15 -31 0 -30 -22 2 -55 l33 -34 -43 -3 c-24 -2 -45
-8 -47 -15 -5 -13 250 -139 392 -193 93 -35 273 -84 408 -110 l57 -11 0 -287
c0 -406 18 -580 76 -747 41 -117 101 -212 194 -306 96 -97 175 -143 329 -194
l94 -31 -2 -125 c-2 -149 14 -250 71 -444 23 -77 42 -153 42 -170 l1 -30 -75
0 c-119 -1 -130 -3 -161 -34 -23 -23 -29 -38 -29 -71 0 -88 99 -129 242 -99
105 23 167 72 189 151 13 51 10 70 -46 254 -66 215 -88 330 -83 441 2 51 7 95
11 99 4 4 38 2 76 -5 53 -10 171 -11 483 -5 l413 7 1 -134 c0 -142 18 -231 94
-480 17 -53 30 -101 30 -107 0 -5 -37 -13 -82 -17 -99 -9 -121 -16 -153 -51
-38 -41 -33 -113 8 -136 95 -51 283 -5 348 85 42 58 39 109 -17 280 -79 243
-101 401 -71 517 l12 45 215 22 c241 24 291 36 376 91 114 75 185 178 226 331
33 123 31 402 -4 631 -32 203 -47 259 -95 355 -48 95 -103 173 -175 250 -33
36 -59 67 -57 69 2 1 54 15 114 30 278 67 492 158 609 256 66 56 76 73 54 87
-7 4 -13 15 -13 23 0 10 -10 15 -33 15 -29 0 -32 2 -27 23 9 35 -21 40 -54 8
-33 -32 -39 -32 -43 -4 -2 13 -11 24 -20 26 -15 3 -18 -4 -18 -47 0 -43 -4
-52 -29 -70 -96 -69 -462 -187 -631 -204 l-55 -6 -90 85 c-164 155 -345 291
-680 511 -55 37 -136 90 -180 119 -105 69 -174 136 -228 221 -99 156 -255 614
-297 873 -41 262 -49 294 -85 366 -44 90 -121 164 -203 194 -66 25 -169 34
-226 19z m156 -159 c104 -29 169 -142 187 -326 28 -273 75 -442 234 -842 93
-233 186 -346 406 -494 75 -51 177 -122 226 -158 50 -36 165 -116 256 -177
192 -130 284 -208 466 -396 171 -178 255 -283 304 -382 37 -75 43 -97 69 -280
62 -426 29 -663 -110 -788 -62 -56 -113 -74 -260 -92 -222 -27 -399 -35 -815
-35 -452 0 -621 13 -795 61 -328 90 -470 299 -510 749 -17 194 -12 580 10 820
17 179 22 350 31 1015 6 440 8 845 5 900 -7 124 7 251 33 302 54 105 156 152
263 123z"/>
<path d="M2624 2872 c-53 -36 -20 -121 48 -122 51 0 78 79 40 113 -19 17 -68
22 -88 9z"/>
<path d="M3185 2828 c-26 -15 -35 -28 -35 -55 0 -25 46 -73 71 -73 21 0 46 28
54 61 11 46 -48 91 -90 67z"/>
<path d="M3025 1908 c-33 -5 -93 -7 -134 -4 -48 4 -79 2 -87 -5 -18 -15 -18
-53 0 -68 25 -21 117 -29 211 -20 50 6 127 10 172 10 88 1 107 10 101 51 -2
12 -14 28 -28 35 -29 15 -146 15 -235 1z"/>
</g>
</svg>
