<?xml version="1.0" standalone="no"?>
<!DOCTYPE svg PUBLIC "-//W3C//DTD SVG 20010904//EN"
 "http://www.w3.org/TR/2001/REC-SVG-20010904/DTD/svg10.dtd">
<svg version="1.0" xmlns="http://www.w3.org/2000/svg"
 width="600.000000pt" height="600.000000pt" viewBox="0 0 600.000000 600.000000"
 preserveAspectRatio="xMidYMid meet">
<metadata>
Created by potrace 1.15, written by Peter Selinger 2001-2017
</metadata>
<g transform="translate(0.000000,600.000000) scale(0.100000,-0.100000)"
fill="#16364b" stroke="none">
<path d="M1555 5760 c-55 -22 -86 -99 -140 -345 -51 -231 -45 -326 26 -389
120 -109 286 -22 481 254 117 166 163 248 162 292 -2 69 -73 118 -143 98 -48
-13 -62 -29 -136 -149 -37 -59 -82 -125 -101 -146 l-35 -40 6 49 c4 27 20 95
36 150 34 119 34 121 11 165 -31 57 -108 86 -167 61z"/>
<path d="M875 5497 c-231 -59 -375 -322 -286 -523 46 -103 140 -184 214 -184
54 0 107 52 107 105 0 45 -8 61 -59 112 -31 30 -41 49 -41 72 0 72 82 171 143
171 17 0 50 -7 73 -16 40 -15 44 -15 88 5 37 16 51 29 66 63 24 53 25 70 3
115 -33 70 -189 110 -308 80z"/>
<path d="M3389 5415 c-28 -15 -59 -70 -59 -105 0 -36 26 -74 77 -109 26 -19
49 -35 51 -37 2 -1 -6 -17 -17 -35 -12 -19 -21 -45 -21 -58 0 -69 103 -197
192 -239 95 -44 176 -41 233 9 77 68 69 156 -25 298 -70 103 -129 161 -243
236 -92 59 -135 69 -188 40z"/>
<path d="M2340 5253 c-86 -28 -94 -47 -101 -248 -4 -93 -11 -186 -18 -206 -21
-66 -74 -115 -184 -169 -76 -37 -107 -58 -121 -81 -45 -76 17 -179 108 -179
64 0 260 100 341 173 118 107 148 201 143 447 -3 189 -12 216 -83 250 -42 20
-57 23 -85 13z"/>
<path d="M3007 5169 c-58 -14 -89 -33 -138 -86 -65 -70 -93 -133 -93 -213 0
-109 55 -184 156 -211 56 -15 129 -2 210 39 76 39 92 76 93 212 0 94 -3 111
-27 160 -43 86 -113 121 -201 99z"/>
<path d="M4760 4808 c-78 -41 -85 -58 -84 -221 1 -261 71 -418 221 -492 160
-79 339 -2 373 160 26 127 -47 297 -180 423 -68 64 -222 150 -270 152 -9 0
-36 -10 -60 -22z m243 -459 c4 -16 3 -18 -8 -9 -7 6 -15 20 -18 31 -4 16 -3
18 8 9 7 -6 15 -20 18 -31z"/>
<path d="M2737 4179 c-88 -21 -160 -79 -196 -159 -52 -114 1 -250 122 -312 65
-33 203 -37 298 -9 128 39 279 132 320 197 17 28 20 46 17 90 -7 80 -37 107
-162 144 -190 57 -305 71 -399 49z"/>
<path d="M1045 4066 c-41 -18 -83 -69 -91 -111 -16 -88 62 -175 159 -175 33 0
163 -33 174 -44 16 -15 -162 -129 -356 -226 -175 -88 -201 -116 -201 -213 0
-83 58 -137 147 -137 52 0 213 68 348 147 39 23 74 42 79 43 5 0 15 -15 22
-35 35 -104 156 -149 252 -95 l41 23 33 -28 c105 -89 282 -88 346 2 59 83 51
192 -21 270 -23 25 -57 53 -77 63 -55 28 -150 42 -234 34 l-74 -7 25 51 c91
184 -17 354 -262 416 -137 35 -260 44 -310 22z"/>
<path d="M4240 3780 c-202 -31 -315 -151 -314 -335 0 -120 60 -222 158 -270
144 -71 304 -25 412 118 60 79 89 144 107 242 26 142 -13 204 -148 233 -77 17
-154 21 -215 12z m44 -305 c-7 -18 -36 -35 -58 -35 -22 0 -9 30 18 40 33 13
46 12 40 -5z"/>
<path d="M5091 3445 c-86 -32 -167 -89 -213 -150 -51 -67 -83 -169 -74 -238
14 -110 96 -219 184 -245 151 -46 355 55 431 211 66 136 41 266 -71 373 -83
80 -143 91 -257 49z"/>
<path d="M3448 3391 c-62 -20 -121 -90 -189 -223 -52 -104 -54 -155 -5 -204
38 -38 73 -43 164 -23 112 24 201 160 202 307 0 104 -82 171 -172 143z"/>
<path d="M2408 3141 c-137 -45 -202 -119 -280 -315 -65 -166 -103 -213 -239
-296 -83 -51 -228 -178 -301 -264 -160 -187 -231 -376 -232 -611 0 -258 63
-469 180 -603 88 -101 323 -237 489 -283 195 -54 477 -9 678 108 256 150 408
384 485 743 40 184 53 310 53 490 0 307 -47 446 -201 595 -28 28 -59 64 -67
80 -28 53 -159 219 -212 268 -102 95 -233 128 -353 88z m155 -449 c24 -31 49
-73 57 -92 8 -19 52 -73 99 -120 183 -184 203 -351 96 -797 -53 -220 -109
-321 -233 -418 -203 -160 -431 -177 -638 -49 -83 51 -137 107 -168 173 -18 39
-21 64 -21 176 0 108 4 142 23 205 53 168 140 299 250 377 275 194 344 283
463 591 11 29 18 25 72 -46z"/>
<path d="M672 2550 c-62 -38 -77 -125 -32 -183 11 -14 49 -42 85 -62 128 -71
255 -187 299 -273 20 -39 23 -100 7 -130 -17 -32 -74 -29 -124 5 -49 34 -117
129 -161 225 -41 91 -72 118 -133 118 -74 0 -123 -50 -123 -124 0 -97 189
-365 312 -442 181 -114 404 -42 478 154 33 85 24 208 -19 297 -57 115 -233
284 -403 386 -92 55 -132 61 -186 29z"/>
<path d="M4214 2189 c-42 -12 -104 -81 -104 -115 0 -21 -3 -25 -17 -19 -86 36
-146 30 -204 -22 -46 -42 -64 -96 -55 -165 12 -85 66 -351 82 -401 19 -56 60
-101 111 -117 20 -7 55 -26 79 -43 118 -83 278 -24 336 123 20 51 22 76 26
334 3 242 2 284 -13 322 -34 90 -136 134 -241 103z"/>
</g>
</svg>
