<?xml version="1.0" standalone="no"?>
<!DOCTYPE svg PUBLIC "-//W3C//DTD SVG 20010904//EN"
 "http://www.w3.org/TR/2001/REC-SVG-20010904/DTD/svg10.dtd">
<svg version="1.0" xmlns="http://www.w3.org/2000/svg"
 width="600.000000pt" height="600.000000pt" viewBox="0 0 600.000000 600.000000"
 preserveAspectRatio="xMidYMid meet">
<metadata>
Created by potrace 1.15, written by Peter Selinger 2001-2017
</metadata>
<g transform="translate(0.000000,600.000000) scale(0.100000,-0.100000)"
fill="#16364b" stroke="none">
<path d="M2913 5598 c-56 -12 -93 -56 -133 -159 -83 -216 -74 -361 28 -450 67
-59 112 -72 271 -78 l143 -6 -88 -60 c-107 -72 -250 -208 -391 -370 -140 -163
-150 -209 -68 -309 48 -59 96 -76 304 -110 192 -32 286 -53 454 -102 136 -40
183 -41 224 -2 71 66 71 160 0 226 -43 40 -434 163 -570 178 -32 4 -60 11 -63
15 -3 5 29 42 70 83 73 71 141 119 348 247 176 108 238 181 238 279 0 153
-153 230 -456 230 -135 0 -184 7 -184 25 0 6 18 48 40 93 47 94 51 142 18 192
-46 67 -109 93 -185 78z"/>
<path d="M1522 5285 c-174 -88 -469 -434 -553 -647 -55 -141 -50 -229 16 -286
47 -42 95 -47 196 -23 195 46 362 70 385 54 15 -10 -23 -122 -97 -288 -43 -97
-54 -131 -55 -178 -1 -52 -4 -60 -30 -79 -47 -34 -67 -68 -71 -122 -5 -62 18
-105 70 -129 49 -24 86 -21 169 12 40 16 151 56 247 91 256 91 295 111 322
166 37 77 14 163 -54 204 -52 32 -111 26 -211 -21 -48 -22 -91 -39 -95 -37 -5
2 9 39 29 84 75 160 93 222 94 315 1 76 -2 92 -29 144 -35 69 -88 113 -172
145 -51 19 -74 21 -190 18 l-131 -3 16 29 c34 60 225 241 289 274 95 50 120
88 113 172 -6 65 -69 126 -141 136 -37 5 -55 0 -117 -31z"/>
<path d="M4425 4551 c-173 -48 -350 -131 -382 -180 -46 -69 -19 -165 57 -203
46 -24 88 -23 152 3 29 12 97 36 151 55 84 28 97 30 97 16 -1 -20 -47 -107
-184 -350 -124 -220 -131 -236 -117 -290 9 -32 27 -54 81 -101 41 -35 86 -65
108 -70 38 -10 189 -38 372 -69 103 -17 105 -18 103 -44 -1 -14 -57 -129 -124
-255 -114 -213 -123 -232 -123 -285 -1 -42 4 -63 20 -84 63 -85 172 -98 236
-28 26 30 262 503 283 569 27 84 26 188 -2 241 -24 44 -85 104 -132 128 -50
26 -181 53 -320 67 -71 6 -135 15 -141 19 -8 5 12 51 61 141 161 301 189 357
204 417 57 221 -144 373 -400 303z"/>
<path d="M3785 3661 c-43 -11 -87 -36 -112 -63 -61 -65 -83 -200 -43 -265 48
-79 151 -84 226 -12 27 26 32 28 38 14 10 -28 -4 -89 -38 -156 l-31 -64 -80
-30 c-173 -67 -310 -166 -336 -242 -38 -116 60 -236 179 -218 39 6 56 16 112
71 78 78 138 108 266 134 67 13 106 27 130 45 63 48 85 122 59 197 -15 44 -14
51 4 106 30 89 37 178 18 243 -21 70 -70 144 -117 175 -81 54 -206 83 -275 65z"/>
<path d="M2498 3540 c-168 -35 -375 -116 -413 -162 -62 -73 -48 -182 28 -228
54 -33 108 -26 234 30 119 53 270 97 298 86 14 -5 15 -14 10 -48 -17 -101 -87
-269 -177 -424 -52 -91 -60 -113 -60 -156 0 -37 6 -58 25 -85 l26 -36 -27 -35
c-20 -26 -27 -48 -30 -96 -3 -54 0 -66 26 -107 38 -59 113 -99 185 -99 29 0
133 23 250 55 110 30 206 55 214 55 7 0 13 -6 13 -13 0 -21 -33 -112 -75 -206
-32 -72 -37 -92 -33 -141 7 -96 63 -151 158 -152 107 0 179 60 263 222 78 148
100 226 95 342 -4 113 -27 168 -105 246 -66 67 -144 103 -233 110 -77 5 -131
-5 -293 -54 -65 -20 -120 -34 -123 -32 -2 3 21 60 52 128 31 69 77 185 102
260 44 129 46 140 46 250 1 107 -1 119 -27 168 -67 127 -212 168 -429 122z"/>
<path d="M1104 3272 c-28 -10 -83 -37 -123 -61 -134 -79 -171 -126 -171 -217
0 -86 49 -148 137 -174 31 -10 52 -10 85 -2 23 6 44 9 47 6 2 -2 -12 -102 -32
-222 -64 -375 -84 -645 -57 -744 13 -45 75 -103 127 -117 54 -15 168 -14 206
3 58 25 140 136 323 438 64 106 144 232 177 280 l61 88 18 -48 c33 -88 23
-267 -42 -724 -17 -114 -30 -231 -30 -259 0 -136 134 -213 230 -132 45 37 59
72 65 160 3 43 24 186 46 318 43 257 62 467 53 580 -5 70 -34 226 -60 320 -34
128 -129 203 -244 192 -120 -11 -222 -102 -379 -339 -55 -82 -102 -155 -104
-161 -12 -33 -12 8 -1 93 7 52 20 148 28 213 40 300 10 419 -128 498 -42 24
-62 29 -116 29 -36 -1 -88 -9 -116 -18z"/>
<path d="M4725 2411 c-73 -33 -134 -117 -135 -183 0 -24 -4 -28 -27 -28 -97 0
-311 -23 -376 -40 -203 -51 -333 -160 -384 -321 -22 -69 -22 -240 0 -363 9
-49 16 -91 14 -92 -1 -1 -40 27 -87 62 -47 35 -110 76 -140 91 -50 25 -65 28
-170 28 -109 0 -119 -2 -183 -32 -193 -92 -335 -275 -477 -615 -17 -43 -36
-78 -41 -78 -27 0 -68 126 -129 395 -58 259 -78 319 -122 363 -116 111 -286
68 -328 -84 -13 -46 -12 -55 28 -214 98 -386 133 -507 171 -585 51 -103 130
-191 213 -236 58 -32 69 -34 153 -34 78 0 98 4 151 28 88 41 184 147 230 253
47 108 119 249 157 303 49 72 132 151 159 151 32 0 90 -32 167 -95 89 -71 166
-119 226 -140 70 -24 169 -23 227 3 64 28 136 97 165 157 13 28 38 72 55 99
40 61 47 133 24 266 -9 51 -16 119 -16 151 l0 57 43 11 c23 6 128 16 232 21
105 6 220 18 257 26 149 35 239 138 269 308 21 121 -2 240 -58 305 -65 77
-179 103 -268 62z"/>
</g>
</svg>
