<?xml version="1.0" standalone="no"?>
<!DOCTYPE svg PUBLIC "-//W3C//DTD SVG 20010904//EN"
 "http://www.w3.org/TR/2001/REC-SVG-20010904/DTD/svg10.dtd">
<svg version="1.0" xmlns="http://www.w3.org/2000/svg"
 width="600.000000pt" height="600.000000pt" viewBox="0 0 600.000000 600.000000"
 preserveAspectRatio="xMidYMid meet">
<metadata>
Created by potrace 1.15, written by Peter Selinger 2001-2017
</metadata>
<g transform="translate(0.000000,600.000000) scale(0.100000,-0.100000)"
fill="#16364b" stroke="none">
<path d="M2290 5626 c-141 -41 -250 -148 -298 -292 -40 -117 -41 -146 -73
-1264 -6 -212 -14 -515 -18 -673 l-6 -289 -66 51 c-85 64 -228 205 -303 299
l-58 72 26 34 c14 19 26 42 26 50 0 24 -35 19 -54 -6 -16 -22 -16 -20 -14 47
3 58 0 70 -14 73 -11 2 -23 -11 -37 -42 -11 -25 -22 -46 -25 -46 -3 0 -15 18
-26 41 -28 54 -46 46 -43 -20 2 -52 -5 -62 -27 -36 -16 19 -50 20 -50 1 0 -8
24 -49 53 -90 28 -41 65 -97 82 -123 68 -110 331 -356 474 -443 l53 -33 -7
-101 c-53 -797 9 -1150 248 -1404 99 -105 204 -167 339 -201 l73 -19 -4 -128
c-4 -147 8 -209 84 -450 25 -78 45 -148 45 -156 0 -12 -18 -16 -88 -20 -122
-6 -172 -39 -172 -114 0 -60 52 -94 145 -94 114 0 227 57 264 133 29 60 27 86
-19 222 -69 206 -93 317 -94 435 -1 58 3 117 7 133 l7 27 133 -6 c72 -3 220
-12 327 -20 166 -13 449 -19 514 -11 18 2 19 -3 15 -48 -8 -94 -3 -270 11
-340 12 -67 54 -205 81 -272 7 -18 10 -35 7 -39 -4 -3 -49 -7 -100 -8 -109 -1
-140 -15 -158 -70 -26 -80 47 -145 162 -146 110 0 209 57 249 145 26 56 24 79
-15 188 -72 197 -94 345 -76 504 6 53 12 99 15 101 2 2 82 8 177 12 190 9 241
22 334 83 116 76 213 218 249 362 36 150 49 707 19 853 -24 123 -85 240 -209
407 -36 48 -64 89 -63 90 2 2 39 15 83 30 219 72 438 245 568 448 58 90 68
117 42 117 -9 0 -12 6 -9 15 9 22 -23 29 -51 11 -33 -22 -35 -21 -35 19 0 49
-26 46 -49 -5 -18 -40 -31 -43 -31 -8 0 12 -7 18 -21 18 -20 0 -21 -4 -15 -42
3 -24 8 -53 12 -64 13 -46 -157 -211 -302 -294 -73 -42 -210 -93 -277 -103
-37 -6 -39 -4 -130 91 -301 316 -327 338 -635 544 -200 133 -241 166 -348 272
-182 183 -245 291 -305 526 -37 147 -57 293 -69 505 -5 94 -14 190 -20 214
-31 126 -142 266 -257 323 -74 36 -178 46 -253 24z m162 -150 c88 -26 151 -95
185 -204 8 -26 21 -141 29 -256 17 -252 33 -354 79 -516 63 -219 117 -320 257
-487 134 -159 215 -226 528 -438 230 -156 315 -223 431 -342 173 -176 444
-515 498 -622 62 -123 65 -141 58 -516 -7 -364 -14 -428 -61 -531 -36 -77
-117 -155 -191 -183 -50 -19 -92 -24 -256 -32 -108 -5 -247 -13 -310 -19 -138
-12 -286 -12 -394 0 -44 5 -222 14 -395 20 -339 12 -425 23 -516 66 -79 37
-187 147 -236 239 -128 245 -158 494 -124 1030 10 162 16 388 16 600 -1 209 3
371 11 420 6 44 13 193 14 330 13 928 31 1195 91 1306 34 61 92 111 154 132
56 20 76 20 132 3z"/>
<path d="M2584 2915 c-25 -38 -1 -83 53 -99 29 -9 73 32 73 67 0 56 -94 81
-126 32z"/>
<path d="M3210 2900 c-26 -26 -25 -43 3 -74 34 -38 62 -42 92 -12 29 30 32 66
7 89 -25 23 -78 21 -102 -3z"/>
<path d="M2743 1989 c-7 -7 -13 -25 -13 -40 0 -44 41 -54 225 -53 303 1 455 7
466 21 22 25 6 57 -36 71 -33 12 -72 12 -232 1 -172 -11 -282 -9 -368 7 -18 3
-35 0 -42 -7z"/>
</g>
</svg>
