<?xml version="1.0" standalone="no"?>
<!DOCTYPE svg PUBLIC "-//W3C//DTD SVG 20010904//EN"
 "http://www.w3.org/TR/2001/REC-SVG-20010904/DTD/svg10.dtd">
<svg version="1.0" xmlns="http://www.w3.org/2000/svg"
 width="600.000000pt" height="600.000000pt" viewBox="0 0 600.000000 600.000000"
 preserveAspectRatio="xMidYMid meet">
<metadata>
Created by potrace 1.15, written by Peter Selinger 2001-2017
</metadata>
<g transform="translate(0.000000,600.000000) scale(0.100000,-0.100000)"
fill="#16364b" stroke="none">
<path d="M2158 5734 c-142 -97 -196 -138 -383 -294 -264 -219 -334 -303 -338
-404 -3 -61 40 -122 108 -156 71 -35 195 -39 325 -10 213 47 701 223 737 265
74 85 28 214 -87 245 -38 10 -54 8 -159 -24 -64 -19 -161 -51 -216 -70 -55
-19 -101 -33 -103 -31 -10 9 132 122 276 219 135 92 145 103 149 174 3 45 0
64 -16 90 -30 46 -77 72 -133 72 -43 0 -59 -8 -160 -76z"/>
<path d="M3070 5672 c-89 -41 -128 -151 -80 -229 25 -42 64 -61 152 -73 279
-40 416 -170 379 -362 -17 -84 -54 -149 -119 -209 -49 -45 -91 -72 -233 -152
-106 -60 -105 -205 1 -260 51 -26 102 -17 210 37 129 66 202 117 288 202 115
114 162 240 162 430 0 252 -145 451 -405 554 -136 55 -305 84 -355 62z"/>
<path d="M892 5300 c-111 -56 -188 -132 -241 -241 -65 -133 -73 -256 -27 -387
36 -102 142 -218 268 -295 54 -33 69 -38 107 -34 73 8 130 64 138 139 7 63
-16 111 -69 144 -99 61 -161 145 -160 216 1 71 51 124 190 200 67 36 93 154
49 219 -60 90 -132 100 -255 39z"/>
<path d="M2690 4958 c-19 -5 -59 -26 -90 -46 -108 -72 -184 -166 -219 -270
-27 -78 -27 -146 0 -224 54 -161 178 -266 375 -318 96 -25 105 -25 155 0 51
27 79 72 79 130 0 84 -38 121 -160 154 -81 22 -145 67 -160 110 -10 32 -9 42
9 79 12 24 39 56 62 73 108 77 125 92 137 114 17 33 9 106 -15 139 -39 52
-110 76 -173 59z"/>
<path d="M4825 4950 c-43 -13 -115 -77 -131 -117 -32 -74 -6 -278 50 -398 64
-135 162 -213 282 -223 80 -6 141 15 200 70 61 57 88 125 89 223 0 70 -4 88
-32 145 -49 100 -162 204 -291 269 -68 34 -123 44 -167 31z"/>
<path d="M1830 4440 c-162 -39 -340 -192 -340 -292 0 -43 41 -108 84 -133 79
-47 170 -26 233 53 33 41 103 82 140 82 11 0 45 -13 76 -30 129 -69 251 -11
249 117 -1 115 -153 213 -327 212 -44 -1 -96 -5 -115 -9z"/>
<path d="M2603 3849 c-46 -4 -95 -15 -111 -24 -46 -28 -72 -75 -72 -131 0 -59
24 -102 73 -133 31 -19 47 -21 168 -19 187 2 206 -11 154 -113 -47 -95 -211
-315 -347 -467 -124 -139 -146 -190 -114 -266 31 -74 111 -116 185 -96 67 18
283 256 418 462 204 311 228 497 84 659 -95 107 -234 147 -438 128z"/>
<path d="M4328 3810 c-195 -23 -354 -130 -403 -269 -48 -139 23 -308 159 -379
44 -23 63 -27 136 -27 74 0 93 4 144 29 69 34 158 120 204 198 47 80 112 255
112 304 0 52 -33 103 -80 125 -43 20 -180 30 -272 19z m-38 -329 c0 -13 -50
-51 -66 -51 -24 0 -15 20 19 40 35 22 47 25 47 11z"/>
<path d="M1150 3721 c-144 -49 -274 -114 -303 -152 -50 -67 -53 -165 -5 -232
40 -56 134 -81 207 -56 18 6 34 9 37 6 7 -6 -40 -98 -123 -246 -135 -237 -178
-341 -233 -563 -32 -131 -36 -171 -19 -215 14 -38 57 -83 96 -99 42 -18 135
-18 176 0 18 8 111 87 207 176 96 90 222 206 280 259 57 53 142 132 188 176
46 44 88 82 93 83 34 13 -32 -337 -99 -523 -22 -60 -70 -193 -106 -295 -37
-102 -76 -206 -86 -232 -51 -122 10 -221 136 -221 66 0 124 35 153 91 22 43
77 202 162 467 96 300 127 410 148 519 11 56 25 115 31 130 13 35 13 162 -1
246 -34 217 -189 317 -355 229 -77 -40 -122 -78 -280 -231 -73 -71 -134 -128
-136 -128 -3 0 44 96 103 214 124 248 149 326 129 420 -16 78 -64 144 -130
178 -72 39 -154 38 -270 -1z"/>
<path d="M3530 3389 c-134 -26 -225 -175 -237 -389 -7 -113 5 -145 67 -186 51
-34 131 -41 229 -20 129 27 207 77 259 165 24 41 27 56 27 136 0 74 -4 97 -23
132 -61 116 -200 186 -322 162z"/>
<path d="M4825 2762 c-78 -48 -234 -247 -277 -354 -12 -29 -23 -55 -24 -57 -2
-2 -22 13 -45 33 -63 54 -137 69 -223 45 -61 -17 -141 -103 -161 -174 -16 -55
-16 -61 4 -149 12 -50 21 -96 21 -102 0 -7 -32 -2 -87 14 -127 35 -248 35
-323 0 -164 -77 -235 -252 -210 -519 11 -117 53 -333 74 -384 50 -116 215
-165 336 -99 62 34 102 83 121 151 12 43 10 63 -15 211 -15 90 -26 165 -24
168 4 4 53 -21 160 -81 45 -25 63 -29 123 -29 280 3 398 237 319 631 l-6 33
46 -21 c224 -99 488 157 486 470 -1 31 -6 66 -13 77 -19 34 -108 126 -136 140
-37 20 -111 17 -146 -4z"/>
<path d="M2865 2356 c-99 -33 -157 -57 -350 -144 -190 -86 -237 -122 -255
-194 l-11 -43 -60 -2 c-134 -3 -279 -129 -279 -243 0 -95 94 -190 188 -190
l39 0 31 -109 c18 -61 32 -116 32 -123 0 -7 -22 -23 -50 -36 -71 -33 -160
-119 -195 -189 -37 -75 -46 -195 -20 -293 35 -136 173 -356 273 -436 186 -148
514 -234 690 -181 121 37 284 143 317 207 44 85 38 173 -16 235 -61 70 -135
71 -256 4 -153 -86 -184 -92 -285 -58 -133 46 -219 106 -284 200 -56 79 -70
115 -55 133 18 22 62 2 125 -55 62 -57 90 -69 154 -69 62 1 118 27 165 79 46
51 57 78 57 141 0 71 -13 95 -93 175 -54 53 -83 92 -111 151 -41 82 -167 453
-159 467 2 4 13 7 24 7 12 0 120 42 242 94 229 98 277 115 277 99 0 -44 -104
-288 -182 -427 -57 -102 -62 -116 -62 -171 0 -141 115 -232 248 -195 62 17 96
57 169 200 185 364 254 621 204 765 -24 69 -92 144 -169 185 -59 32 -70 35
-168 37 -89 3 -116 0 -175 -21z"/>
</g>
</svg>
