<?xml version="1.0" standalone="no"?>
<!DOCTYPE svg PUBLIC "-//W3C//DTD SVG 20010904//EN"
 "http://www.w3.org/TR/2001/REC-SVG-20010904/DTD/svg10.dtd">
<svg version="1.0" xmlns="http://www.w3.org/2000/svg"
 width="600.000000pt" height="600.000000pt" viewBox="0 0 600.000000 600.000000"
 preserveAspectRatio="xMidYMid meet">
<metadata>
Created by potrace 1.15, written by Peter Selinger 2001-2017
</metadata>
<g transform="translate(0.000000,600.000000) scale(0.100000,-0.100000)"
fill="#16364b" stroke="none">
<path d="M2355 5417 l-26 -22 -3 -230 c-2 -202 -5 -240 -24 -310 -49 -176
-124 -285 -234 -341 -73 -37 -88 -52 -88 -91 0 -77 72 -94 173 -40 95 50 165
126 220 237 91 186 124 359 114 605 -6 161 -13 185 -54 204 -35 16 -49 14 -78
-12z"/>
<path d="M3524 5286 c-11 -8 -28 -32 -38 -54 -17 -38 -17 -43 -2 -90 33 -99
105 -180 199 -222 51 -24 88 -25 127 -5 85 44 60 169 -57 296 -43 46 -66 62
-106 74 -63 19 -97 19 -123 1z"/>
<path d="M3012 5107 c-48 -15 -119 -82 -148 -139 -48 -96 -42 -187 17 -244 27
-26 37 -29 93 -29 58 0 69 4 121 40 48 32 64 51 87 102 36 76 42 175 14 218
-38 57 -107 77 -184 52z m46 -179 c-10 -32 -56 -84 -65 -74 -13 13 46 106 67
106 5 0 4 -15 -2 -32z"/>
<path d="M4781 4763 c-57 -28 -64 -61 -58 -263 6 -187 18 -254 63 -348 33 -67
91 -112 144 -112 125 0 205 200 155 388 -31 115 -112 252 -190 320 -40 36 -65
39 -114 15z"/>
<path d="M2645 4205 c-53 -19 -112 -82 -121 -130 -15 -79 37 -164 130 -213 47
-25 60 -27 166 -26 97 0 125 4 175 23 133 53 194 115 181 187 -10 52 -52 86
-142 113 -208 63 -308 75 -389 46z"/>
<path d="M1142 4125 c-64 -28 -99 -150 -71 -249 15 -54 83 -119 141 -135 83
-24 179 12 214 81 20 38 20 117 1 155 -22 43 -92 102 -151 129 -72 32 -96 36
-134 19z"/>
<path d="M5292 3970 c-121 -18 -246 -118 -277 -222 -48 -162 28 -353 169 -425
45 -23 58 -25 140 -21 117 6 188 33 261 99 70 65 106 137 113 229 4 64 2 76
-27 134 -36 74 -80 117 -171 168 -72 39 -128 50 -208 38z m83 -321 c11 -11
-27 -49 -50 -49 -15 0 -38 48 -29 62 7 12 63 3 79 -13z"/>
<path d="M4237 3780 c-104 -27 -201 -105 -243 -196 -34 -72 -39 -128 -20 -202
37 -147 143 -228 288 -220 92 5 153 34 218 105 65 71 91 141 99 268 8 113 1
152 -32 183 -53 50 -223 84 -310 62z m58 -310 c-16 -31 -55 -42 -55 -16 0 16
37 46 57 46 11 0 10 -7 -2 -30z"/>
<path d="M3423 3327 c-41 -47 -143 -249 -143 -284 0 -33 30 -70 64 -79 57 -14
156 66 207 168 38 75 46 135 25 176 -20 38 -44 52 -89 52 -27 0 -42 -8 -64
-33z"/>
<path d="M1134 3285 c-232 -41 -390 -161 -440 -333 -25 -84 -16 -221 20 -294
80 -167 250 -271 487 -297 154 -17 208 -44 279 -139 81 -108 149 -269 255
-602 20 -63 52 -143 71 -177 92 -165 261 -283 483 -335 75 -17 130 -20 436
-24 193 -2 411 -8 485 -14 199 -15 328 -12 506 10 87 10 215 24 283 30 271 23
351 54 688 271 84 53 173 115 198 136 121 100 205 270 239 478 33 201 29 318
-13 455 -68 218 -330 466 -556 525 -68 17 -226 20 -306 5 -158 -30 -363 -118
-584 -252 -177 -107 -218 -123 -336 -138 -235 -29 -388 37 -894 386 -99 68
-225 146 -280 174 -103 51 -255 100 -398 127 -117 22 -514 27 -623 8z m652
-419 c117 -29 286 -125 737 -416 179 -115 281 -169 382 -199 109 -34 250 -53
380 -54 101 0 134 5 208 27 112 34 161 58 330 168 157 102 246 146 373 184
110 32 225 36 299 11 101 -35 222 -148 247 -231 19 -62 16 -268 -5 -344 -26
-97 -66 -169 -119 -217 -65 -59 -281 -187 -376 -224 -185 -71 -425 -93 -1082
-98 -278 -2 -563 -5 -635 -6 -149 -1 -240 20 -313 73 -72 52 -90 93 -207 475
-65 212 -158 381 -290 522 -126 137 -236 189 -426 202 -81 6 -129 14 -155 27
-102 51 -53 93 134 114 119 13 446 5 518 -14z"/>
<path d="M449 2061 c-35 -36 -37 -70 -5 -102 13 -13 33 -44 46 -68 52 -104
170 -191 258 -191 86 0 127 80 86 166 -24 51 -112 124 -213 177 -104 55 -132
58 -172 18z"/>
<path d="M5275 1161 c-107 -48 -139 -181 -64 -266 86 -97 195 -24 207 137 5
78 -8 120 -44 137 -34 15 -52 14 -99 -8z"/>
</g>
</svg>
