<?xml version="1.0" standalone="no"?>
<!DOCTYPE svg PUBLIC "-//W3C//DTD SVG 20010904//EN"
 "http://www.w3.org/TR/2001/REC-SVG-20010904/DTD/svg10.dtd">
<svg version="1.0" xmlns="http://www.w3.org/2000/svg"
 width="600.000000pt" height="600.000000pt" viewBox="0 0 600.000000 600.000000"
 preserveAspectRatio="xMidYMid meet">
<metadata>
Created by potrace 1.15, written by Peter Selinger 2001-2017
</metadata>
<g transform="translate(0.000000,600.000000) scale(0.100000,-0.100000)"
fill="#16364b" stroke="none">
<path d="M2085 5441 c-41 -24 -62 -58 -80 -128 -21 -81 -19 -140 9 -199 46
-98 128 -141 294 -151 68 -4 92 -9 92 -20 0 -7 -15 -64 -34 -126 -37 -121 -66
-259 -66 -311 0 -44 29 -97 69 -123 68 -46 180 -22 215 45 8 15 20 65 26 110
6 45 27 139 47 210 63 225 65 279 12 370 -50 89 -130 131 -269 141 l-85 6 3
37 c5 49 -23 104 -67 134 -45 30 -121 33 -166 5z"/>
<path d="M3395 5416 c-37 -16 -70 -52 -84 -89 -38 -98 35 -197 145 -197 29 0
46 -6 60 -21 27 -30 23 -137 -10 -264 -30 -114 -32 -154 -11 -195 46 -88 168
-105 238 -32 31 32 77 152 102 265 26 116 18 252 -19 333 -47 104 -142 178
-264 203 -69 14 -120 13 -157 -3z"/>
<path d="M1625 4805 c-109 -20 -265 -63 -315 -88 -59 -29 -94 -92 -86 -154 7
-53 22 -79 64 -104 43 -27 96 -26 212 5 111 31 256 56 319 56 25 0 74 -7 109
-16 59 -15 67 -15 109 1 56 22 83 62 83 128 0 128 -103 188 -320 186 -58 0
-136 -7 -175 -14z"/>
<path d="M4286 4490 c-42 -13 -85 -58 -97 -103 -12 -47 2 -100 38 -139 30 -32
54 -41 153 -62 89 -19 133 -43 157 -88 16 -29 18 -55 16 -194 -3 -153 -2 -163
20 -195 12 -19 43 -45 69 -57 65 -33 119 -24 170 28 42 42 44 51 39 245 -6
201 -49 334 -139 424 -59 59 -104 83 -214 115 -101 29 -173 38 -212 26z"/>
<path d="M1525 4441 c-50 -23 -93 -68 -104 -109 -16 -56 16 -129 67 -156 16
-8 183 -40 372 -71 385 -64 393 -64 449 0 37 42 45 71 38 131 -3 34 -13 55
-37 80 -37 38 -39 38 -320 85 -418 69 -406 68 -465 40z"/>
<path d="M3149 4382 c-130 -85 -247 -151 -428 -242 -97 -48 -187 -99 -199
-113 -66 -71 -37 -194 55 -233 59 -25 87 -17 291 86 312 158 499 275 528 332
53 102 -15 218 -127 218 -39 0 -59 -8 -120 -48z"/>
<path d="M2185 3835 c-162 -39 -310 -56 -454 -54 -143 2 -159 -3 -203 -62 -48
-64 -26 -170 45 -217 40 -27 42 -27 206 -26 103 1 204 7 266 18 188 31 306 59
338 80 92 62 94 192 4 253 -48 32 -91 34 -202 8z"/>
<path d="M3720 3814 c-55 -20 -136 -57 -285 -128 -93 -45 -221 -104 -284 -132
-125 -53 -165 -85 -180 -142 -22 -78 35 -173 113 -187 51 -10 189 41 413 152
l172 85 31 -30 c52 -52 142 -55 206 -7 65 49 96 223 54 305 -31 61 -73 84
-155 87 -38 1 -77 0 -85 -3z"/>
<path d="M5027 3459 c-52 -12 -86 -31 -126 -71 -58 -57 -71 -97 -71 -235 0
-118 -1 -123 -33 -185 -18 -35 -67 -110 -109 -168 -87 -120 -118 -172 -193
-325 -69 -139 -97 -243 -99 -356 -1 -79 1 -90 29 -135 39 -63 96 -94 176 -94
117 0 217 88 233 208 12 82 106 254 220 400 177 228 244 374 254 550 5 95 -10
223 -33 278 -41 99 -149 157 -248 133z"/>
<path d="M2004 3206 c-99 -45 -130 -182 -58 -257 37 -39 71 -47 267 -63 91 -8
170 -17 176 -21 6 -3 11 -14 11 -23 0 -26 59 -93 96 -108 117 -49 236 41 221
166 -16 134 -105 232 -243 269 -23 6 -106 18 -185 26 -79 8 -169 17 -199 20
-37 4 -65 1 -86 -9z"/>
<path d="M4352 3138 c-18 -6 -63 -38 -100 -70 -37 -33 -96 -77 -132 -99 -135
-80 -451 -197 -603 -224 -130 -22 -191 -74 -191 -164 0 -98 69 -155 186 -153
125 3 269 44 503 144 229 98 316 151 433 262 85 81 102 109 102 168 0 99 -100
168 -198 136z"/>
<path d="M1358 3000 c-51 -16 -98 -52 -122 -93 -39 -66 -41 -101 -11 -191 20
-60 30 -129 46 -295 11 -119 24 -243 30 -276 25 -151 130 -395 203 -470 117
-122 312 -59 324 105 4 54 1 66 -41 147 -82 161 -112 285 -147 613 -28 256
-49 337 -107 406 -37 44 -123 71 -175 54z"/>
<path d="M2127 2435 c-70 -18 -104 -35 -184 -91 -65 -47 -103 -105 -103 -160
0 -52 40 -116 90 -142 59 -31 115 -24 184 22 28 19 69 40 90 46 l39 12 46 -51
c29 -32 59 -55 80 -61 77 -21 168 36 191 119 17 62 -8 126 -76 200 -92 99
-225 139 -357 106z"/>
<path d="M3860 2109 c-152 -17 -1032 -169 -1059 -184 -37 -19 -68 -50 -87 -87
-24 -47 -15 -136 19 -186 33 -47 111 -92 159 -92 37 0 368 57 663 114 311 60
358 64 497 40 142 -24 271 144 214 279 -17 43 -76 93 -123 107 -56 16 -186 20
-283 9z"/>
<path d="M2241 1868 c-66 -34 -83 -63 -89 -151 -8 -127 36 -272 120 -395 42
-62 146 -170 180 -188 64 -33 161 -6 191 53 43 86 29 141 -63 238 -96 102
-122 157 -125 267 -3 98 -21 141 -70 169 -53 30 -95 32 -144 7z"/>
<path d="M4691 1665 c-19 -8 -67 -47 -107 -85 -116 -110 -194 -143 -539 -229
-307 -77 -455 -133 -589 -223 -74 -51 -100 -103 -94 -189 8 -109 90 -189 196
-189 48 0 64 6 140 53 144 89 310 151 522 197 314 67 458 131 589 260 120 118
155 231 102 326 -44 78 -143 114 -220 79z"/>
<path d="M2073 1071 c-53 -24 -100 -88 -109 -148 -14 -96 31 -163 191 -282
175 -131 314 -198 485 -233 121 -25 323 -20 443 11 103 27 234 89 273 130 113
117 23 321 -141 321 -34 0 -69 -11 -128 -40 -174 -85 -328 -88 -506 -9 -77 35
-142 80 -242 170 -111 101 -176 120 -266 80z"/>
</g>
</svg>
