<?xml version="1.0" standalone="no"?>
<!DOCTYPE svg PUBLIC "-//W3C//DTD SVG 20010904//EN"
 "http://www.w3.org/TR/2001/REC-SVG-20010904/DTD/svg10.dtd">
<svg version="1.0" xmlns="http://www.w3.org/2000/svg"
 width="600.000000pt" height="600.000000pt" viewBox="0 0 600.000000 600.000000"
 preserveAspectRatio="xMidYMid meet">
<metadata>
Created by potrace 1.15, written by Peter Selinger 2001-2017
</metadata>
<g transform="translate(0.000000,600.000000) scale(0.100000,-0.100000)"
fill="#16364b" stroke="none">
<path d="M2269 5832 c-19 -10 -66 -42 -104 -73 -39 -30 -117 -90 -175 -134
-281 -210 -436 -355 -489 -455 -26 -48 -31 -69 -31 -123 0 -58 3 -70 33 -108
53 -70 86 -84 197 -83 130 1 296 44 580 149 124 46 239 87 255 90 17 4 45 16
63 27 98 59 72 208 -45 260 -59 26 -76 22 -311 -68 -107 -41 -199 -73 -204
-72 -11 4 138 131 314 268 53 41 103 87 112 101 46 77 17 176 -64 217 -53 27
-84 28 -131 4z"/>
<path d="M3062 5663 c-46 -22 -74 -67 -80 -126 -9 -94 46 -148 163 -162 186
-21 329 -96 371 -194 24 -56 15 -181 -20 -256 -46 -101 -124 -170 -291 -256
-106 -55 -135 -88 -135 -158 0 -79 50 -138 128 -148 32 -4 56 3 126 35 346
163 506 387 506 711 0 143 -47 257 -146 355 -104 104 -214 157 -403 196 -119
24 -175 25 -219 3z"/>
<path d="M922 5303 c-384 -199 -425 -645 -84 -907 108 -82 169 -96 233 -53 55
37 79 81 79 147 0 67 -14 89 -90 145 -57 42 -117 120 -131 170 -12 44 3 103
36 143 13 15 60 48 105 72 91 49 121 82 127 143 8 83 -66 166 -154 174 -41 4
-59 -2 -121 -34z"/>
<path d="M2655 4951 c-61 -28 -163 -109 -208 -165 -154 -195 -133 -420 57
-594 93 -84 270 -161 342 -147 66 12 124 85 124 155 0 50 -35 107 -80 130 -21
11 -45 20 -52 20 -26 0 -124 52 -155 82 -76 73 -41 155 107 252 55 37 71 53
85 89 13 36 15 51 6 83 -14 49 -27 66 -71 93 -43 26 -101 27 -155 2z"/>
<path d="M4785 4946 c-16 -8 -48 -32 -70 -55 l-40 -42 2 -86 c3 -142 45 -302
104 -395 69 -108 155 -162 259 -161 77 0 122 17 180 69 107 97 127 242 54 388
-65 129 -175 215 -353 277 -63 22 -95 23 -136 5z"/>
<path d="M1821 4424 c-126 -34 -262 -138 -310 -238 -54 -111 10 -224 132 -234
68 -5 103 12 154 77 21 27 50 56 65 65 40 24 97 20 141 -10 54 -36 93 -40 147
-12 82 42 119 155 76 236 -34 66 -184 133 -295 131 -31 0 -80 -7 -110 -15z"/>
<path d="M2470 3809 c-127 -38 -149 -203 -37 -277 40 -27 43 -27 184 -24 78 2
157 1 174 -3 30 -7 31 -9 26 -44 -12 -93 -117 -249 -313 -466 -178 -197 -182
-202 -194 -244 -30 -112 67 -208 188 -187 30 6 54 25 130 103 399 413 563 704
507 899 -29 101 -108 184 -213 225 -50 20 -79 23 -237 25 -105 2 -194 -1 -215
-7z"/>
<path d="M4235 3786 c-159 -31 -259 -96 -311 -202 -31 -64 -42 -166 -25 -231
30 -109 125 -191 250 -213 120 -22 220 13 328 114 79 73 131 148 184 262 45
100 49 146 16 195 -39 60 -96 80 -244 84 -84 3 -152 0 -198 -9z m17 -326 c-36
-34 -65 -40 -60 -12 2 9 19 22 38 29 54 18 58 15 22 -17z"/>
<path d="M1147 3709 c-67 -16 -273 -100 -299 -122 -82 -71 -74 -185 18 -267
56 -48 99 -63 167 -57 70 6 72 17 -23 -173 -87 -174 -138 -294 -194 -460 -68
-195 -99 -317 -92 -354 9 -48 54 -111 96 -135 49 -28 162 -29 201 -3 59 39
293 271 485 478 112 122 216 230 230 239 l26 17 -6 -29 c-3 -15 -8 -50 -12
-78 -9 -72 -60 -295 -90 -400 -26 -87 -87 -254 -173 -474 -58 -149 -54 -213
19 -274 61 -52 144 -44 200 19 16 19 30 39 30 44 0 5 38 96 84 202 46 106 98
238 116 293 61 192 132 486 161 660 12 75 -4 227 -33 305 -26 68 -88 134 -143
149 -123 34 -190 -4 -443 -254 -106 -103 -159 -149 -150 -130 7 17 44 91 80
166 100 204 122 274 123 389 0 72 -4 103 -18 127 -27 50 -85 100 -135 117 -49
17 -163 20 -225 5z"/>
<path d="M3502 3360 c-101 -51 -167 -142 -198 -277 -36 -157 -11 -234 93 -287
61 -31 201 -14 302 37 63 32 128 108 147 174 38 131 -37 312 -151 364 -61 28
-121 24 -193 -11z"/>
<path d="M4835 2744 c-40 -21 -177 -164 -226 -236 -21 -31 -48 -80 -60 -110
-11 -29 -22 -54 -23 -56 -2 -1 -18 11 -36 28 -50 47 -89 63 -150 63 -92 0
-159 -45 -199 -133 -26 -57 -26 -100 0 -206 12 -46 19 -87 16 -91 -3 -3 -43 5
-89 18 -62 17 -110 23 -188 23 -95 0 -110 -2 -162 -28 -101 -50 -183 -166
-208 -295 -18 -98 -12 -263 15 -398 39 -189 65 -238 155 -287 116 -63 261 -21
320 94 30 59 32 98 10 223 -24 143 -25 177 -5 177 8 0 49 -18 91 -41 96 -50
147 -57 250 -34 126 27 189 73 239 172 38 77 48 150 41 294 l-6 127 43 -15
c120 -42 303 61 386 216 83 156 94 362 23 413 -10 7 -27 26 -37 41 -10 15 -31
35 -46 43 -36 18 -116 17 -154 -2z"/>
<path d="M2945 2390 c-131 -19 -351 -99 -520 -188 -106 -56 -145 -102 -153
-180 l-4 -50 -63 -4 c-75 -5 -169 -48 -238 -109 -110 -96 -89 -245 42 -311 30
-16 67 -28 83 -28 16 0 30 -6 32 -12 11 -37 68 -215 72 -225 3 -6 -20 -22 -53
-38 -76 -34 -125 -83 -159 -159 -25 -54 -29 -73 -29 -161 0 -125 27 -205 109
-329 99 -148 209 -252 336 -316 87 -44 229 -88 305 -95 128 -12 309 33 451
112 61 34 101 79 120 135 35 105 -18 202 -130 238 -56 18 -108 8 -230 -44 -79
-34 -123 -47 -158 -48 -68 0 -184 45 -252 98 -56 44 -140 158 -148 199 -7 40
31 26 96 -34 101 -94 171 -101 268 -28 135 104 144 253 19 343 -101 72 -161
185 -230 435 -22 79 -44 157 -50 172 -10 25 -8 27 17 32 15 4 70 28 123 55
100 52 301 133 357 145 28 6 32 4 32 -14 0 -50 -80 -229 -205 -461 -43 -79
-50 -114 -36 -168 31 -113 159 -173 266 -123 56 26 83 59 159 198 167 305 235
500 224 652 -16 221 -202 348 -453 311z"/>
</g>
</svg>
