<?xml version="1.0" standalone="no"?>
<!DOCTYPE svg PUBLIC "-//W3C//DTD SVG 20010904//EN"
 "http://www.w3.org/TR/2001/REC-SVG-20010904/DTD/svg10.dtd">
<svg version="1.0" xmlns="http://www.w3.org/2000/svg"
 width="600.000000pt" height="600.000000pt" viewBox="0 0 600.000000 600.000000"
 preserveAspectRatio="xMidYMid meet">
<metadata>
Created by potrace 1.15, written by Peter Selinger 2001-2017
</metadata>
<g transform="translate(0.000000,600.000000) scale(0.100000,-0.100000)"
fill="#16364b" stroke="none">
<path d="M2223 5439 c-35 -22 -74 -94 -94 -172 -31 -125 16 -243 117 -293 47
-23 66 -26 151 -26 54 0 130 4 170 8 46 4 73 3 73 -4 0 -5 -25 -54 -56 -108
-76 -135 -198 -379 -234 -470 -17 -41 -30 -90 -30 -110 0 -62 43 -120 97 -130
31 -6 57 -24 34 -24 -6 0 -23 -18 -37 -40 -63 -94 5 -220 118 -220 18 0 135
34 258 75 234 79 369 116 481 135 82 14 120 37 144 85 22 48 15 123 -16 167
-24 33 -89 67 -129 68 -52 0 -232 -52 -413 -119 -202 -76 -287 -104 -287 -94
0 4 6 14 14 22 7 9 33 61 57 116 52 121 101 216 185 356 134 224 172 339 140
422 -21 57 -66 104 -121 128 -63 28 -193 42 -318 34 -108 -7 -109 -7 -98 13
17 32 13 104 -8 136 -44 66 -133 87 -198 45z"/>
<path d="M3816 5135 c-33 -9 -93 -31 -133 -51 -60 -28 -77 -42 -93 -74 -37
-73 -17 -153 49 -197 45 -31 95 -29 167 4 38 18 77 27 109 28 l50 0 -1 -72
c-2 -82 -27 -172 -84 -305 -45 -102 -49 -148 -20 -196 29 -47 76 -72 136 -72
43 0 56 5 88 33 64 57 153 312 174 502 21 187 -35 322 -161 387 -54 28 -195
34 -281 13z"/>
<path d="M1770 4943 c-78 -13 -186 -50 -270 -92 -132 -66 -273 -155 -304 -191
-53 -63 -47 -150 15 -209 21 -21 39 -48 39 -58 0 -25 37 -81 70 -104 17 -12
72 -25 165 -39 249 -36 335 -63 444 -141 44 -31 63 -39 99 -39 59 0 105 29
131 84 38 78 21 147 -53 212 -94 82 -238 141 -425 174 -65 12 -71 15 -55 27
33 24 174 63 228 63 66 0 111 18 153 62 83 88 50 216 -64 247 -37 11 -123 12
-173 4z"/>
<path d="M4309 4240 c-52 -10 -104 -23 -115 -30 -39 -24 -64 -73 -64 -126 0
-66 28 -110 86 -135 41 -19 52 -19 142 -8 136 16 292 17 320 1 42 -24 26 -166
-43 -380 -40 -123 -42 -151 -17 -194 36 -63 129 -85 201 -49 49 26 63 48 95
157 129 440 66 692 -193 768 -75 22 -285 20 -412 -4z"/>
<path d="M2105 3874 c-80 -28 -259 -59 -422 -72 -96 -7 -117 -12 -153 -36 -59
-39 -82 -80 -77 -139 5 -56 40 -100 96 -118 43 -14 240 -6 386 16 130 20 300
62 348 87 48 24 77 71 77 126 0 135 -103 190 -255 136z"/>
<path d="M3750 3750 c-25 -5 -79 -20 -120 -35 -96 -35 -464 -218 -510 -254
-120 -94 -75 -271 68 -271 17 0 117 45 244 110 119 61 218 110 222 110 13 0 4
-28 -39 -129 -55 -127 -58 -170 -16 -228 41 -57 104 -80 165 -63 58 16 77 38
124 140 92 200 130 380 102 481 -30 107 -121 159 -240 139z"/>
<path d="M2142 3269 c-68 -6 -103 -14 -129 -30 -120 -75 -85 -261 52 -277 26
-2 94 1 151 8 108 12 221 17 229 9 2 -3 -3 -27 -11 -54 -42 -138 31 -245 159
-232 42 4 56 10 83 40 39 42 63 115 71 212 6 85 -6 137 -50 201 -79 118 -233
152 -555 123z"/>
<path d="M4916 3190 c-66 -26 -112 -72 -132 -134 -15 -44 -15 -60 -4 -127 6
-42 9 -86 5 -98 -3 -11 -50 -53 -103 -92 -202 -151 -281 -239 -337 -376 -72
-178 -74 -426 -4 -566 63 -126 202 -172 326 -109 47 24 109 91 129 138 22 53
18 134 -11 196 -22 49 -24 61 -15 106 17 91 38 116 192 240 208 168 297 342
285 557 -3 50 -11 107 -18 129 -19 56 -86 119 -149 139 -66 22 -103 21 -164
-3z"/>
<path d="M4250 3166 c-14 -8 -59 -47 -100 -88 -60 -59 -98 -85 -185 -130 -128
-65 -259 -111 -363 -127 -86 -13 -120 -29 -155 -71 -64 -76 -42 -187 47 -232
51 -26 137 -21 273 17 301 83 558 234 672 394 56 79 35 182 -45 228 -44 26
-106 29 -144 9z"/>
<path d="M1204 3031 c-76 -34 -112 -115 -92 -205 8 -39 21 -60 60 -99 l50 -50
19 -226 c31 -356 74 -573 140 -702 39 -78 131 -128 208 -114 128 23 186 154
127 288 -39 87 -56 192 -67 420 -16 328 -44 478 -109 580 -68 107 -226 158
-336 108z"/>
<path d="M2097 2560 c-83 -14 -154 -57 -238 -142 -43 -43 -101 -113 -129 -155
-43 -66 -50 -84 -50 -126 0 -87 54 -147 133 -147 60 0 101 25 143 88 40 61
128 158 156 173 14 8 21 3 34 -23 9 -18 27 -42 41 -53 l24 -20 -24 -65 c-51
-134 -62 -210 -62 -425 0 -183 2 -203 20 -235 44 -76 163 -102 235 -50 53 38
60 68 60 268 0 185 4 210 61 407 16 54 5 108 -30 148 -24 27 -28 40 -28 87 2
94 -67 202 -156 244 -61 29 -123 37 -190 26z"/>
<path d="M3435 2224 c-16 -2 -84 -11 -151 -20 -157 -20 -532 -105 -575 -130
-105 -62 -106 -252 -2 -331 52 -40 118 -41 285 -4 184 40 659 118 663 108 0
-1 13 -19 28 -40 41 -54 77 -70 156 -65 120 6 191 83 191 204 0 111 -61 198
-175 251 -57 26 -67 28 -225 29 -91 1 -178 0 -195 -2z"/>
<path d="M4491 1579 c-25 -11 -66 -40 -93 -65 -76 -71 -95 -76 -328 -84 -201
-8 -247 -15 -360 -55 -153 -54 -449 -264 -516 -364 -20 -30 -33 -40 -63 -45
-26 -4 -60 -24 -107 -62 -97 -80 -140 -98 -228 -92 -142 10 -299 119 -441 307
-50 66 -121 111 -175 111 -117 0 -198 -106 -171 -225 24 -106 218 -342 363
-442 197 -136 400 -190 554 -149 160 42 438 210 459 276 4 13 15 20 32 20 44
0 93 31 137 89 55 71 135 149 184 178 82 51 153 65 377 73 116 4 235 13 265
20 116 26 219 86 308 180 80 85 96 161 52 250 -45 90 -151 124 -249 79z"/>
</g>
</svg>
