<?xml version="1.0" standalone="no"?>
<!DOCTYPE svg PUBLIC "-//W3C//DTD SVG 20010904//EN"
 "http://www.w3.org/TR/2001/REC-SVG-20010904/DTD/svg10.dtd">
<svg version="1.0" xmlns="http://www.w3.org/2000/svg"
 width="600.000000pt" height="600.000000pt" viewBox="0 0 600.000000 600.000000"
 preserveAspectRatio="xMidYMid meet">
<metadata>
Created by potrace 1.15, written by Peter Selinger 2001-2017
</metadata>
<g transform="translate(0.000000,600.000000) scale(0.100000,-0.100000)"
fill="#16364b" stroke="none">
<path d="M1496 5730 c-38 -16 -133 -50 -210 -76 -215 -71 -248 -93 -248 -169
0 -79 56 -115 179 -115 104 0 491 38 514 51 25 13 39 41 39 77 0 41 -49 82
-98 82 l-35 0 23 25 c36 38 33 90 -8 126 -41 37 -69 36 -156 -1z"/>
<path d="M2375 5419 c-46 -26 -55 -50 -55 -144 -2 -426 -74 -621 -272 -736
-37 -22 -74 -49 -83 -61 -22 -33 -18 -72 11 -107 41 -49 81 -43 189 28 50 32
109 78 131 102 159 169 230 423 209 753 -6 99 -10 121 -29 142 -25 28 -73 39
-101 23z"/>
<path d="M3542 5328 c-26 -13 -62 -76 -62 -109 0 -31 63 -156 100 -202 70 -83
173 -128 235 -103 107 45 99 155 -23 310 -64 82 -190 134 -250 104z"/>
<path d="M3030 5135 c-105 -33 -190 -153 -198 -280 -5 -79 6 -111 53 -155 23
-22 36 -25 95 -25 63 0 71 3 133 44 73 50 90 74 112 157 21 81 19 132 -7 184
-37 72 -108 100 -188 75z m21 -218 c-10 -24 -28 -43 -36 -35 -2 2 5 19 16 37
23 38 34 37 20 -2z"/>
<path d="M4774 4771 c-70 -30 -90 -112 -74 -295 25 -290 113 -426 274 -426 69
0 123 32 156 90 60 110 7 322 -125 498 -85 113 -167 160 -231 133z"/>
<path d="M2631 4203 c-70 -36 -96 -82 -95 -168 2 -163 159 -277 337 -246 135
23 298 136 312 215 9 46 -11 102 -45 127 -43 32 -261 88 -370 95 -80 5 -89 4
-139 -23z"/>
<path d="M1130 4107 c-39 -13 -80 -67 -80 -104 0 -13 7 -37 15 -53 15 -28 14
-29 -20 -40 -47 -16 -75 -53 -75 -102 0 -75 61 -127 198 -168 133 -41 279 -15
330 57 107 153 -14 345 -255 408 -67 18 -67 18 -113 2z"/>
<path d="M5230 3816 c-284 -61 -376 -341 -184 -555 25 -28 69 -62 99 -77 47
-22 65 -26 123 -22 93 5 169 43 253 127 156 157 159 305 10 443 -105 97 -166
114 -301 84z m87 -294 c18 -11 -12 -52 -38 -52 -28 0 -37 30 -14 46 21 16 35
17 52 6z"/>
<path d="M4209 3751 c-100 -32 -178 -99 -227 -198 -75 -148 -31 -293 110 -362
88 -43 158 -49 245 -23 163 50 253 184 253 377 0 127 -44 180 -179 211 -75 18
-135 17 -202 -5z m105 -273 c-15 -27 -38 -48 -51 -48 -21 0 -15 27 9 44 27 19
52 21 42 4z"/>
<path d="M3429 3385 c-38 -20 -90 -95 -143 -205 -54 -111 -57 -140 -17 -181
55 -55 137 -31 215 62 65 76 109 214 92 283 -12 48 -93 71 -147 41z"/>
<path d="M1599 3120 c-233 -27 -387 -104 -550 -277 -119 -126 -165 -236 -157
-377 5 -96 30 -158 103 -255 50 -66 164 -163 225 -193 19 -9 87 -41 151 -72
98 -46 125 -64 166 -111 53 -59 100 -146 163 -300 97 -238 232 -380 420 -439
148 -47 291 -43 545 14 102 23 165 31 290 35 699 25 1000 120 1302 408 124
119 183 197 249 332 93 191 130 336 122 479 -8 139 -51 202 -250 362 -162 130
-267 181 -393 191 -86 6 -167 -18 -264 -81 -36 -23 -90 -52 -120 -65 -65 -28
-246 -64 -275 -55 -11 4 -93 7 -181 8 -199 2 -225 10 -550 170 -405 200 -489
227 -745 231 -96 2 -209 0 -251 -5z m385 -395 c136 -28 242 -72 433 -178 258
-144 398 -197 562 -213 36 -4 92 -15 125 -26 l59 -19 176 26 c313 45 369 61
542 152 l106 56 45 -22 c25 -12 81 -55 124 -95 l79 -73 -2 -58 c-4 -103 -68
-251 -146 -334 -55 -57 -219 -192 -295 -242 -178 -117 -293 -139 -892 -169
-125 -6 -206 -16 -285 -34 -136 -31 -294 -35 -371 -9 -74 25 -135 94 -195 222
-139 292 -187 370 -288 464 -78 71 -159 116 -291 161 -119 40 -148 58 -173
107 -32 62 -3 140 70 188 45 30 211 87 291 101 80 13 249 11 326 -5z"/>
<path d="M427 2140 c-44 -35 -43 -67 3 -166 23 -48 46 -98 51 -111 30 -79 133
-194 209 -233 119 -61 236 4 227 125 -9 128 -133 260 -352 374 -70 36 -102 39
-138 11z"/>
<path d="M4985 1467 c-17 -8 -36 -21 -44 -30 -8 -10 -28 -17 -48 -17 -74 0
-123 -51 -123 -130 0 -65 28 -170 60 -226 63 -112 199 -113 255 -3 23 44 45
162 48 259 2 87 1 90 -28 119 -36 36 -79 46 -120 28z"/>
</g>
</svg>
