<?xml version="1.0" standalone="no"?>
<!DOCTYPE svg PUBLIC "-//W3C//DTD SVG 20010904//EN"
 "http://www.w3.org/TR/2001/REC-SVG-20010904/DTD/svg10.dtd">
<svg version="1.0" xmlns="http://www.w3.org/2000/svg"
 width="600.000000pt" height="600.000000pt" viewBox="0 0 600.000000 600.000000"
 preserveAspectRatio="xMidYMid meet">
<metadata>
Created by potrace 1.15, written by Peter Selinger 2001-2017
</metadata>
<g transform="translate(0.000000,600.000000) scale(0.100000,-0.100000)"
fill="#16364b" stroke="none">
<path d="M2396 5378 c-11 -16 -16 -46 -16 -103 0 -99 -22 -265 -49 -365 -56
-215 -129 -324 -261 -390 -88 -44 -112 -88 -70 -130 28 -28 54 -25 137 18 141
73 224 181 287 375 57 173 101 528 73 586 -17 37 -78 42 -101 9z"/>
<path d="M3531 5281 c-10 -10 -22 -33 -26 -51 -10 -48 44 -150 120 -227 96
-96 172 -107 214 -31 19 34 5 86 -45 160 -97 142 -207 205 -263 149z"/>
<path d="M3034 5107 c-81 -31 -142 -110 -170 -216 -19 -78 -12 -140 21 -180
51 -60 129 -47 218 37 63 60 99 120 118 196 29 118 -73 207 -187 163z m66
-132 c0 -39 -86 -165 -112 -165 -26 0 8 105 48 146 33 36 64 45 64 19z"/>
<path d="M4760 4742 c-22 -22 -30 -42 -35 -87 -9 -72 1 -362 15 -429 22 -107
68 -159 140 -159 48 0 86 24 115 74 30 51 28 241 -4 359 -32 119 -78 226 -108
250 -38 30 -88 26 -123 -8z"/>
<path d="M2658 4209 c-21 -6 -51 -26 -68 -45 -38 -44 -41 -105 -7 -154 69
-102 367 -161 505 -101 68 31 92 61 92 118 0 79 -42 103 -276 163 -92 24 -199
32 -246 19z"/>
<path d="M5230 3976 c-88 -25 -148 -72 -186 -146 -23 -46 -31 -184 -14 -248
64 -236 260 -323 488 -215 119 56 194 165 194 283 1 148 -69 253 -215 319 -36
17 -64 21 -134 20 -48 0 -108 -6 -133 -13z m144 -306 c31 -11 34 -35 7 -50
-29 -15 -39 -13 -57 15 -26 40 -3 56 50 35z"/>
<path d="M4160 3729 c-67 -27 -152 -109 -181 -176 -26 -59 -35 -154 -20 -209
15 -57 80 -127 148 -161 47 -22 71 -27 128 -27 176 1 308 107 330 266 9 59
-12 176 -39 225 -50 88 -241 131 -366 82z m124 -273 c-10 -25 -43 -41 -58 -26
-8 9 -4 18 18 36 30 26 52 21 40 -10z"/>
<path d="M1273 3660 c-110 -23 -233 -112 -281 -204 -21 -40 -26 -65 -26 -117
0 -160 131 -297 344 -359 66 -19 82 -29 130 -78 118 -122 174 -292 340 -1042
62 -279 115 -403 214 -501 88 -87 210 -151 378 -198 92 -26 156 -30 556 -40
265 -7 330 -6 363 6 32 11 116 13 412 11 402 -3 412 -2 627 57 224 63 456 181
587 299 192 174 314 499 283 756 -33 265 -154 476 -325 567 -214 112 -520 117
-729 12 -32 -17 -111 -72 -175 -123 -133 -106 -186 -143 -256 -179 -144 -72
-337 -96 -484 -58 -139 35 -368 154 -634 329 -121 80 -204 156 -360 331 -153
172 -230 246 -337 322 -201 144 -486 239 -627 209z m179 -326 c144 -46 265
-116 377 -219 24 -22 100 -102 168 -178 146 -160 269 -267 443 -382 445 -293
694 -394 972 -395 274 0 480 87 770 327 88 73 156 107 248 123 185 33 337 -36
414 -190 48 -96 60 -163 53 -295 -12 -239 -107 -408 -278 -496 -198 -100 -436
-172 -654 -198 -109 -13 -935 -19 -1241 -9 -247 8 -332 22 -420 66 -155 79
-207 192 -284 607 -71 386 -155 676 -250 865 -79 157 -186 252 -339 300 -109
34 -141 53 -141 80 0 29 59 26 162 -6z"/>
<path d="M2282 2364 c-29 -20 -29 -64 1 -92 43 -41 97 -22 112 40 14 54 -61
89 -113 52z"/>
<path d="M2867 2052 c-10 -10 -17 -30 -17 -44 0 -30 38 -68 68 -68 42 0 71 80
42 115 -17 21 -73 19 -93 -3z"/>
<path d="M3436 3317 c-42 -44 -156 -267 -156 -304 0 -36 16 -53 50 -53 36 0
61 20 115 92 125 167 146 298 47 298 -15 0 -37 -13 -56 -33z"/>
<path d="M466 2018 c-27 -38 -19 -57 56 -140 114 -127 209 -168 263 -113 61
60 11 127 -171 230 -88 50 -125 56 -148 23z"/>
<path d="M5343 1095 c-51 -36 -80 -193 -48 -255 40 -77 142 -64 184 23 23 48
29 163 11 198 -24 43 -106 63 -147 34z"/>
</g>
</svg>
