<?xml version="1.0" standalone="no"?>
<!DOCTYPE svg PUBLIC "-//W3C//DTD SVG 20010904//EN"
 "http://www.w3.org/TR/2001/REC-SVG-20010904/DTD/svg10.dtd">
<svg version="1.0" xmlns="http://www.w3.org/2000/svg"
 width="600.000000pt" height="600.000000pt" viewBox="0 0 600.000000 600.000000"
 preserveAspectRatio="xMidYMid meet">
<metadata>
Created by potrace 1.15, written by Peter Selinger 2001-2017
</metadata>
<g transform="translate(0.000000,600.000000) scale(0.100000,-0.100000)"
fill="#16364b" stroke="none">
<path d="M2243 5565 c-105 -32 -185 -104 -234 -210 -53 -113 -60 -171 -69
-650 -5 -242 -14 -521 -19 -620 -5 -99 -10 -261 -10 -360 -1 -165 -20 -635
-27 -644 -5 -6 -134 68 -189 107 -58 42 -194 170 -237 225 l-30 37 21 36 c12
19 19 40 16 45 -11 16 -34 10 -47 -13 -11 -21 -13 -19 -23 37 -13 72 -32 79
-52 18 -8 -24 -18 -43 -21 -43 -4 0 -16 14 -27 30 -37 55 -67 30 -40 -33 16
-40 12 -45 -19 -22 -25 19 -45 19 -52 0 -4 -10 11 -30 41 -57 27 -24 66 -67
88 -97 103 -139 304 -302 490 -396 l79 -40 -6 -60 c-3 -33 -9 -168 -12 -300
-11 -436 45 -765 167 -981 52 -93 187 -234 269 -281 48 -28 149 -62 231 -77
l25 -5 -8 -73 c-17 -147 10 -357 73 -567 16 -53 29 -103 29 -113 0 -14 -15
-17 -99 -20 -88 -3 -102 -6 -125 -27 -56 -53 -42 -127 31 -162 92 -45 267 -5
324 74 42 57 45 106 15 207 -56 184 -86 314 -95 407 -9 104 0 248 17 265 7 7
31 7 79 -2 47 -8 196 -12 482 -11 227 0 416 -1 420 -4 4 -2 4 -34 0 -72 -15
-130 21 -369 81 -549 17 -48 30 -91 30 -96 0 -4 -33 -8 -74 -8 -100 0 -131 -8
-166 -40 -35 -32 -40 -85 -14 -125 50 -77 249 -69 345 13 75 64 86 129 44 253
-73 210 -103 398 -85 526 6 42 14 81 18 84 4 4 86 12 182 18 100 6 199 18 230
27 162 47 291 177 349 350 34 101 42 247 32 594 -10 344 -14 367 -77 492 -32
65 -114 185 -188 278 -39 50 -37 54 34 65 187 30 493 241 633 438 47 66 56 87
37 87 -6 0 -15 11 -20 25 -9 25 -11 25 -39 10 l-30 -15 -3 33 c-4 43 -23 40
-53 -8 -19 -32 -24 -36 -25 -19 0 28 -23 47 -37 33 -7 -7 -7 -27 -1 -61 l9
-51 -48 -49 c-58 -59 -192 -152 -290 -202 -87 -43 -229 -86 -288 -86 -38 0
-47 5 -80 43 -95 107 -313 321 -378 370 -40 30 -146 99 -237 154 -314 190
-399 254 -493 372 -110 139 -235 440 -272 654 -9 53 -22 183 -30 287 -8 105
-22 218 -31 252 -53 205 -197 319 -402 317 -43 0 -96 -6 -119 -14z m177 -136
c93 -21 157 -91 187 -203 8 -28 20 -130 28 -226 27 -316 42 -383 151 -659 114
-288 175 -383 331 -517 77 -65 115 -91 431 -297 196 -128 271 -187 401 -315
178 -176 408 -448 478 -567 73 -123 75 -135 85 -415 13 -368 7 -515 -26 -615
-32 -98 -84 -169 -155 -212 -64 -38 -113 -49 -286 -62 -157 -13 -1027 -6
-1170 8 -55 6 -145 11 -200 11 -55 0 -130 7 -168 15 -161 34 -298 152 -374
323 -86 194 -130 630 -104 1039 23 365 41 964 61 1943 5 256 14 487 20 514 27
127 100 210 207 235 51 12 51 12 103 0z"/>
<path d="M2586 2934 c-23 -23 -19 -61 9 -89 45 -46 105 -22 105 43 0 53 -77
84 -114 46z"/>
<path d="M3210 2893 c-45 -16 -51 -64 -14 -98 49 -45 114 -21 114 41 0 40 -57
72 -100 57z"/>
<path d="M3080 1978 c-47 -5 -139 -7 -206 -4 -129 6 -144 1 -144 -41 0 -53
120 -69 373 -49 102 8 200 13 219 10 59 -10 82 56 28 83 -28 14 -142 15 -270
1z"/>
</g>
</svg>
