<?xml version="1.0" standalone="no"?>
<!DOCTYPE svg PUBLIC "-//W3C//DTD SVG 20010904//EN"
 "http://www.w3.org/TR/2001/REC-SVG-20010904/DTD/svg10.dtd">
<svg version="1.0" xmlns="http://www.w3.org/2000/svg"
 width="600.000000pt" height="600.000000pt" viewBox="0 0 600.000000 600.000000"
 preserveAspectRatio="xMidYMid meet">
<metadata>
Created by potrace 1.15, written by Peter Selinger 2001-2017
</metadata>
<g transform="translate(0.000000,600.000000) scale(0.100000,-0.100000)"
fill="#16364b" stroke="none">
<path d="M1773 5780 c-24 -11 -51 -33 -62 -51 -30 -50 -140 -370 -167 -489
-29 -128 -31 -219 -5 -276 26 -57 80 -96 141 -102 87 -8 209 64 356 212 124
125 277 302 296 344 51 114 -51 235 -171 202 -32 -8 -61 -33 -142 -120 -56
-61 -104 -108 -106 -106 -2 2 17 56 42 119 25 64 45 133 45 153 0 106 -117
165 -227 114z"/>
<path d="M3030 5688 c-49 -34 -72 -83 -67 -144 5 -66 21 -86 148 -181 114 -85
318 -283 390 -378 46 -60 89 -135 89 -155 0 -6 -25 -10 -59 -10 -44 0 -65 -5
-85 -21 -79 -62 -72 -179 14 -237 31 -21 44 -23 120 -20 219 9 346 162 300
360 -26 108 -124 265 -254 405 -66 71 -254 234 -387 335 -79 60 -95 68 -133
68 -28 0 -54 -8 -76 -22z"/>
<path d="M885 5419 c-108 -38 -202 -114 -258 -210 -68 -118 -76 -276 -19 -391
40 -82 96 -146 173 -197 50 -33 70 -41 108 -41 61 0 107 29 131 83 38 82 18
140 -68 202 -54 38 -72 69 -72 121 0 81 59 134 149 134 116 0 192 74 177 173
-8 52 -48 107 -97 133 -41 21 -152 17 -224 -7z"/>
<path d="M2971 5180 c-168 -35 -288 -242 -222 -385 44 -95 132 -145 258 -147
153 -2 240 46 250 136 7 55 -13 195 -34 250 -44 115 -138 169 -252 146z"/>
<path d="M4775 4854 c-84 -44 -100 -81 -99 -224 2 -243 87 -418 239 -489 133
-63 296 -17 356 101 66 129 10 307 -146 464 -137 138 -265 193 -350 148z"/>
<path d="M2050 4850 c-70 -15 -145 -49 -173 -78 -84 -88 -50 -217 65 -253 32
-10 47 -9 103 10 37 13 69 20 73 16 4 -3 12 -34 19 -67 14 -68 46 -111 100
-134 44 -19 69 -18 119 7 64 30 89 87 80 181 -23 225 -185 359 -386 318z"/>
<path d="M1245 4084 c-77 -8 -230 -37 -260 -50 -71 -32 -115 -95 -115 -167 0
-113 90 -184 223 -176 34 3 57 0 57 -6 0 -5 -41 -57 -91 -115 -220 -254 -353
-447 -470 -679 -41 -84 -49 -108 -49 -155 0 -31 6 -71 14 -89 32 -75 125 -125
204 -111 60 11 109 40 252 152 74 58 233 170 354 250 203 134 220 143 242 132
50 -27 44 -142 -16 -322 -91 -274 -269 -560 -441 -710 -74 -65 -89 -92 -89
-160 0 -134 129 -203 242 -128 147 97 339 352 464 615 123 260 175 401 190
522 5 39 15 69 33 92 26 34 26 37 26 200 0 187 -8 222 -62 282 -66 73 -179 87
-289 35 -27 -13 -98 -56 -158 -95 -60 -39 -113 -71 -118 -71 -4 0 21 34 56 76
73 87 147 207 170 277 9 26 16 78 16 116 0 56 -5 79 -31 130 -34 68 -74 103
-146 131 -52 19 -143 30 -208 24z"/>
<path d="M2820 4064 c-89 -31 -145 -94 -156 -175 -33 -239 327 -369 776 -279
163 32 205 67 205 172 0 58 -1 62 -41 97 -44 38 -189 107 -312 147 -161 52
-379 70 -472 38z"/>
<path d="M4200 3792 c-152 -40 -255 -142 -278 -272 -32 -176 85 -358 250 -391
44 -9 66 -8 118 5 157 40 249 153 330 401 50 154 40 207 -46 250 -56 28 -281
33 -374 7z m40 -344 c-27 -22 -40 -23 -40 -3 0 18 53 48 59 32 2 -6 -6 -19
-19 -29z"/>
<path d="M3402 3409 c-58 -29 -95 -76 -153 -196 -40 -84 -49 -112 -49 -157 0
-44 5 -60 26 -86 42 -50 77 -62 180 -64 89 -1 93 0 131 30 57 45 99 123 113
206 22 131 -11 227 -93 267 -55 27 -101 27 -155 0z"/>
<path d="M5000 3183 c-19 -10 -71 -53 -115 -98 -106 -106 -167 -222 -173 -325
-5 -81 9 -129 52 -178 118 -135 365 -81 484 105 91 144 76 298 -43 438 -65 75
-130 94 -205 58z"/>
<path d="M3882 2589 c-69 -35 -131 -135 -132 -212 0 -40 27 -145 59 -233 12
-30 18 -54 15 -54 -3 0 -31 7 -62 16 -79 23 -176 15 -236 -20 -111 -65 -148
-182 -112 -353 15 -68 96 -314 157 -473 69 -182 212 -251 359 -175 69 36 119
142 106 225 l-6 38 37 -10 c75 -21 200 19 266 86 92 92 105 236 42 477 -34
133 -181 556 -210 605 -37 63 -96 97 -175 102 -52 2 -74 -1 -108 -19z"/>
<path d="M1991 2295 c-93 -44 -212 -183 -304 -355 -19 -36 -60 -105 -91 -155
-72 -112 -136 -239 -167 -330 -20 -59 -24 -89 -24 -190 0 -214 62 -430 167
-582 103 -151 343 -325 498 -361 80 -19 193 -24 275 -13 242 34 382 104 539
269 44 47 104 109 132 137 128 129 238 358 316 658 28 106 33 139 33 247 0
121 -1 128 -32 191 -87 176 -251 244 -462 190 -47 -11 -146 -51 -228 -91 -80
-38 -149 -70 -153 -70 -4 0 -19 37 -34 83 -43 127 -110 259 -158 309 -88 90
-199 113 -307 63z m103 -472 c9 -27 23 -91 32 -143 20 -124 50 -190 106 -230
137 -100 155 -98 433 39 211 104 299 141 311 129 8 -9 -33 -197 -67 -298 -31
-95 -102 -248 -142 -305 -21 -30 -71 -86 -161 -177 -120 -124 -364 -166 -518
-90 -145 71 -235 191 -259 343 -28 178 3 339 102 528 27 52 49 99 49 103 0 5
9 21 19 36 11 15 31 46 45 70 15 23 28 42 30 42 2 0 11 -21 20 -47z"/>
</g>
</svg>
