<?xml version="1.0" standalone="no"?>
<!DOCTYPE svg PUBLIC "-//W3C//DTD SVG 20010904//EN"
 "http://www.w3.org/TR/2001/REC-SVG-20010904/DTD/svg10.dtd">
<svg version="1.0" xmlns="http://www.w3.org/2000/svg"
 width="600.000000pt" height="600.000000pt" viewBox="0 0 600.000000 600.000000"
 preserveAspectRatio="xMidYMid meet">
<metadata>
Created by potrace 1.15, written by Peter Selinger 2001-2017
</metadata>
<g transform="translate(0.000000,600.000000) scale(0.100000,-0.100000)"
fill="#16364b" stroke="none">
<path d="M1680 5803 c-46 -32 -59 -57 -85 -168 -121 -506 -127 -659 -29 -744
68 -60 155 -61 252 -5 76 45 180 162 288 324 144 217 167 264 160 318 -12 89
-64 127 -168 123 -44 -2 -83 -45 -175 -197 -48 -80 -89 -141 -91 -135 -2 5 9
70 24 143 37 179 41 244 14 286 -41 66 -135 93 -190 55z"/>
<path d="M3139 5621 c-67 -21 -99 -63 -99 -127 0 -59 25 -90 123 -155 229
-154 390 -296 437 -388 26 -51 25 -53 -7 -40 -61 23 -162 -37 -179 -107 -12
-47 3 -97 40 -131 43 -40 101 -57 191 -57 207 1 321 197 231 396 -65 144 -250
342 -459 491 -149 107 -219 136 -278 118z"/>
<path d="M873 5455 c-206 -64 -351 -303 -315 -517 22 -128 104 -248 203 -298
132 -68 280 72 209 198 -12 22 -34 46 -47 53 -14 7 -36 26 -49 42 -47 56 -25
168 42 211 17 12 50 18 104 19 94 2 123 19 158 90 19 37 22 55 17 87 -8 49
-47 98 -92 116 -41 18 -174 17 -230 -1z"/>
<path d="M2966 5185 c-72 -25 -152 -125 -182 -226 -34 -114 4 -220 96 -267 40
-21 55 -23 130 -19 58 3 104 12 145 28 81 32 105 77 105 194 0 105 -21 175
-68 227 -64 71 -142 93 -226 63z"/>
<path d="M4755 4860 c-11 -4 -33 -22 -50 -40 l-30 -31 1 -137 c2 -270 82 -442
243 -518 74 -36 177 -37 244 -5 97 47 156 161 144 280 -19 174 -133 310 -352
417 -92 45 -151 55 -200 34z"/>
<path d="M2108 4800 c-65 -11 -145 -38 -191 -63 -100 -55 -102 -188 -5 -247
39 -24 126 -27 166 -6 15 8 57 18 93 24 54 8 76 7 110 -5 54 -18 99 -10 139
24 41 34 60 73 60 125 0 101 -72 149 -230 154 -52 2 -116 -1 -142 -6z"/>
<path d="M2863 4119 c-64 -12 -124 -42 -162 -80 -90 -90 -81 -232 21 -325 145
-131 394 -152 678 -58 166 54 221 186 118 281 -13 12 -71 44 -128 71 -222 104
-389 139 -527 111z"/>
<path d="M1102 4060 c-69 -6 -91 -12 -124 -36 -52 -37 -78 -86 -78 -147 0
-117 92 -182 239 -170 38 3 71 2 74 -3 8 -13 -316 -391 -499 -584 -35 -36 -76
-83 -93 -104 -61 -77 -65 -158 -10 -220 55 -63 130 -82 207 -51 29 12 45 13
66 5 46 -17 108 -12 151 13 22 13 100 58 173 100 l134 77 63 -56 c39 -34 70
-72 79 -95 57 -143 -47 -402 -238 -594 -78 -78 -124 -105 -181 -105 -106 0
-173 -131 -112 -220 34 -52 75 -71 152 -71 120 0 232 56 349 176 129 132 276
379 313 525 25 99 22 268 -6 350 -26 75 -70 151 -115 198 -30 32 -30 34 -12
48 27 19 35 18 46 -8 23 -56 70 -88 128 -88 60 0 103 23 135 72 30 47 34 102
17 237 -16 125 -77 191 -176 191 -42 0 -74 -12 -203 -76 -84 -41 -155 -74
-156 -72 -2 2 22 36 53 75 146 184 190 317 146 445 -28 84 -123 156 -232 178
-73 14 -198 18 -290 10z"/>
<path d="M4252 3779 c-247 -38 -379 -210 -317 -415 32 -105 132 -197 233 -213
163 -26 326 65 401 223 34 73 81 230 81 273 0 43 -33 95 -74 116 -44 23 -221
32 -324 16z m28 -286 c0 -14 -34 -43 -52 -43 -27 0 -22 17 10 34 30 17 42 19
42 9z"/>
<path d="M3425 3415 c-62 -22 -124 -96 -174 -211 -51 -115 -59 -164 -38 -217
26 -61 66 -78 174 -75 83 3 95 6 134 33 27 19 55 53 77 94 32 57 36 73 39 160
5 110 -7 146 -67 192 -44 34 -93 42 -145 24z"/>
<path d="M5033 3228 c-23 -13 -73 -48 -111 -79 -161 -132 -223 -314 -154 -450
81 -160 287 -179 443 -41 83 74 140 223 125 324 -14 94 -94 215 -168 254 -39
20 -87 17 -135 -8z"/>
<path d="M3956 2506 c-129 -48 -162 -136 -112 -298 14 -47 26 -91 26 -96 0 -7
-13 -6 -35 4 -131 55 -275 -56 -307 -237 -27 -157 77 -585 165 -677 108 -113
270 -103 351 22 14 22 28 54 32 72 6 32 6 32 72 36 113 6 205 67 254 167 19
38 23 61 22 136 -1 78 -7 109 -48 235 -25 80 -67 228 -92 330 -25 102 -52 196
-59 210 -44 84 -175 131 -269 96z"/>
<path d="M2083 2426 c-66 -21 -135 -71 -205 -144 -75 -80 -155 -189 -170 -235
-7 -17 -35 -68 -64 -112 -71 -109 -177 -323 -209 -419 -63 -194 -45 -456 42
-631 65 -129 195 -260 354 -356 171 -103 328 -140 501 -120 250 30 438 124
572 287 28 34 72 88 99 120 130 160 341 705 354 915 8 132 -31 241 -119 329
-74 73 -151 103 -267 102 -82 -1 -134 -12 -279 -59 -125 -41 -125 -41 -137 28
-3 19 -21 64 -38 100 -25 50 -45 74 -97 113 -36 27 -85 58 -110 69 -57 26
-169 32 -227 13z m123 -507 c41 -125 55 -149 111 -196 122 -102 151 -102 520
2 85 24 129 33 136 26 38 -38 -114 -472 -225 -641 -75 -114 -201 -224 -300
-262 -193 -73 -389 -27 -542 126 -92 92 -111 140 -111 281 1 148 51 288 165
458 28 42 56 91 62 109 20 59 124 201 142 195 6 -2 25 -46 42 -98z"/>
</g>
</svg>
