<?xml version="1.0" standalone="no"?>
<!DOCTYPE svg PUBLIC "-//W3C//DTD SVG 20010904//EN"
 "http://www.w3.org/TR/2001/REC-SVG-20010904/DTD/svg10.dtd">
<svg version="1.0" xmlns="http://www.w3.org/2000/svg"
 width="600.000000pt" height="600.000000pt" viewBox="0 0 600.000000 600.000000"
 preserveAspectRatio="xMidYMid meet">
<metadata>
Created by potrace 1.15, written by Peter Selinger 2001-2017
</metadata>
<g transform="translate(0.000000,600.000000) scale(0.100000,-0.100000)"
fill="#16364b" stroke="none">
<path d="M3115 5669 c-63 -18 -114 -105 -100 -172 4 -17 23 -61 42 -96 75
-140 161 -226 343 -343 47 -31 95 -65 107 -77 22 -21 22 -23 6 -47 -16 -25
-172 -145 -315 -243 -49 -34 -116 -67 -183 -91 -200 -73 -316 -154 -351 -246
-32 -83 1 -170 81 -216 55 -31 161 -32 202 -2 46 34 73 82 73 130 0 24 4 45 8
48 5 3 40 12 78 20 56 11 98 31 214 101 328 198 434 281 490 387 29 54 34 73
35 133 0 130 -60 210 -263 346 -161 109 -223 168 -281 266 -53 92 -112 124
-186 102z"/>
<path d="M1130 5328 c-107 -59 -206 -162 -259 -269 -50 -103 -70 -177 -78
-294 -7 -113 9 -216 48 -310 43 -104 85 -137 171 -137 59 1 104 25 135 72 33
48 30 103 -9 186 -31 64 -33 76 -33 174 0 93 3 112 26 161 34 72 87 125 167
167 75 40 94 67 99 135 5 61 -18 106 -69 137 -54 33 -111 26 -198 -22z"/>
<path d="M1690 5287 c-19 -12 -42 -37 -53 -54 -21 -37 -25 -110 -7 -142 9 -18
6 -31 -24 -80 -113 -186 -140 -302 -93 -403 43 -94 124 -137 277 -145 111 -6
301 12 341 32 93 48 102 174 18 249 -47 43 -91 52 -179 37 -38 -6 -87 -11
-110 -11 l-40 0 46 83 c98 176 118 247 95 329 -24 85 -84 128 -177 128 -47 0
-69 -5 -94 -23z"/>
<path d="M4546 4677 c-69 -43 -95 -127 -60 -200 18 -37 86 -87 118 -87 13 0 4
-8 -24 -22 -93 -47 -120 -153 -59 -223 41 -46 90 -59 204 -52 138 8 266 53
341 119 105 92 97 260 -16 362 -80 72 -200 111 -375 122 -83 5 -93 4 -129 -19z"/>
<path d="M1832 4285 c-35 -8 -96 -30 -135 -50 -96 -47 -238 -169 -267 -230
-50 -103 14 -199 131 -198 47 1 115 29 140 59 24 29 117 84 177 105 36 12 78
19 121 17 77 -2 117 15 156 67 38 48 42 99 13 155 -33 65 -70 82 -181 86 -56
2 -117 -2 -155 -11z"/>
<path d="M2564 3735 c-107 -23 -261 -74 -288 -96 -39 -31 -56 -71 -56 -133 0
-44 5 -60 26 -86 32 -37 74 -60 111 -60 15 0 87 20 158 45 76 27 148 45 174
45 42 0 43 -1 36 -27 -8 -35 -59 -151 -92 -212 -120 -220 -173 -309 -231 -385
-113 -150 -122 -165 -122 -217 0 -77 60 -146 136 -155 67 -9 110 24 230 176
140 177 223 304 289 442 71 151 96 235 102 343 4 75 2 99 -16 145 -29 76 -71
123 -143 159 -56 28 -69 31 -157 30 -53 0 -123 -7 -157 -14z"/>
<path d="M3997 3731 c-71 -29 -112 -64 -141 -123 -84 -169 53 -381 277 -428
140 -29 283 54 336 194 31 84 25 133 -23 186 -13 14 -26 41 -30 61 -8 44 -56
95 -104 110 -21 6 -89 13 -152 15 -97 4 -123 1 -163 -15z"/>
<path d="M1163 3599 c-100 -12 -271 -94 -360 -172 -94 -82 -84 -227 20 -311
34 -27 46 -31 102 -31 38 0 69 5 77 13 16 16 28 15 28 -2 0 -8 -34 -126 -76
-263 -134 -436 -178 -644 -153 -720 27 -83 79 -124 179 -144 113 -22 97 -34
462 356 58 62 126 145 248 303 l95 123 3 -52 c5 -77 -23 -235 -80 -457 -90
-353 -118 -485 -124 -583 -6 -87 -5 -101 15 -143 53 -109 202 -123 272 -24 18
25 24 51 30 127 8 106 15 144 88 441 116 472 146 778 95 950 -33 111 -113 174
-220 174 -115 -1 -205 -79 -412 -357 -69 -92 -126 -166 -128 -164 -2 2 17 64
41 138 153 454 164 614 52 729 -59 60 -141 82 -254 69z"/>
<path d="M3600 3291 c-121 -37 -199 -131 -249 -297 -26 -89 -26 -130 -1 -172
49 -81 178 -99 245 -35 14 13 42 22 85 26 181 19 284 119 268 261 -7 55 -47
127 -92 161 -68 52 -185 77 -256 56z"/>
<path d="M4695 3040 c-27 -11 -61 -49 -74 -83 -26 -68 -4 -173 60 -292 18 -33
36 -82 40 -109 11 -68 44 -112 107 -143 82 -40 151 -19 188 57 32 65 22 115
-49 253 -53 104 -65 136 -69 186 -5 65 -26 99 -80 127 -29 15 -91 18 -123 4z"/>
<path d="M2845 2590 c-38 -10 -93 -27 -122 -39 -92 -36 -327 -158 -355 -184
-42 -39 -62 -86 -62 -147 0 -111 73 -190 182 -198 52 -3 66 1 162 48 137 68
264 120 290 120 19 0 21 -4 15 -32 -17 -83 -80 -250 -135 -356 -50 -97 -60
-126 -60 -167 0 -59 22 -100 76 -141 34 -26 45 -29 119 -29 72 0 86 3 123 27
97 64 206 322 263 621 43 226 6 360 -122 442 -87 56 -241 71 -374 35z"/>
<path d="M4477 2319 c-56 -13 -90 -33 -129 -77 -51 -56 -62 -98 -54 -200 7
-79 6 -84 -11 -78 -52 21 -189 47 -273 52 -163 11 -284 -28 -364 -117 -83 -92
-88 -136 -70 -539 9 -184 12 -210 33 -254 64 -130 241 -152 354 -42 69 66 81
117 73 292 -3 77 -9 156 -12 174 l-7 32 34 -7 c19 -4 75 -21 124 -38 77 -26
103 -30 179 -29 274 5 426 159 426 431 0 92 -18 227 -36 270 -41 99 -160 157
-267 130z"/>
<path d="M2145 1845 c-78 -30 -125 -96 -125 -176 0 -61 47 -356 75 -476 31
-132 76 -246 120 -306 46 -62 184 -164 308 -227 117 -60 166 -65 241 -25 26
14 51 25 56 25 5 0 46 -22 91 -50 199 -121 356 -137 528 -55 126 60 181 141
167 244 -8 56 -31 96 -79 135 -35 28 -46 31 -106 31 -58 0 -73 -4 -117 -32
-60 -39 -79 -40 -142 -10 -172 83 -360 232 -429 340 -62 95 -165 139 -241 103
-37 -18 -51 -11 -52 24 0 8 -9 89 -20 179 -17 139 -23 170 -45 202 -46 70
-151 103 -230 74z"/>
</g>
</svg>
