<?xml version="1.0" standalone="no"?>
<!DOCTYPE svg PUBLIC "-//W3C//DTD SVG 20010904//EN"
 "http://www.w3.org/TR/2001/REC-SVG-20010904/DTD/svg10.dtd">
<svg version="1.0" xmlns="http://www.w3.org/2000/svg"
 width="600.000000pt" height="600.000000pt" viewBox="0 0 600.000000 600.000000"
 preserveAspectRatio="xMidYMid meet">
<metadata>
Created by potrace 1.15, written by Peter Selinger 2001-2017
</metadata>
<g transform="translate(0.000000,600.000000) scale(0.100000,-0.100000)"
fill="#16364b" stroke="none">
<path d="M1560 5792 c-24 -12 -57 -52 -115 -137 -44 -66 -106 -155 -136 -197
-31 -42 -62 -98 -69 -124 -12 -43 -12 -51 6 -82 67 -123 176 -98 497 114 131
87 161 112 174 142 30 72 -21 152 -97 152 -28 0 -54 -11 -104 -45 -36 -25 -66
-42 -66 -38 0 4 12 26 25 48 34 55 33 106 -2 144 -36 38 -70 45 -113 23z"/>
<path d="M2346 5434 c-14 -15 -26 -32 -27 -38 -1 -6 -2 -90 -4 -186 -5 -373
-88 -578 -268 -664 -92 -44 -112 -65 -112 -123 0 -38 5 -49 33 -74 45 -41 86
-38 189 11 240 116 356 383 370 847 l6 182 -36 36 c-30 30 -42 35 -80 35 -35
0 -50 -6 -71 -26z"/>
<path d="M3517 5320 c-32 -20 -70 -92 -70 -132 0 -86 92 -209 197 -262 114
-58 206 -43 246 39 27 55 19 106 -27 183 -47 79 -97 127 -157 153 -58 25 -162
35 -189 19z"/>
<path d="M2944 5111 c-93 -42 -156 -137 -157 -237 -1 -81 31 -132 105 -170 69
-35 157 -32 241 10 78 38 91 64 92 186 0 83 -3 100 -25 138 -49 86 -159 117
-256 73z"/>
<path d="M4740 4762 c-32 -32 -39 -47 -45 -96 -16 -128 14 -335 63 -440 108
-227 352 -242 450 -28 32 70 33 163 3 242 -27 70 -105 174 -179 238 -156 134
-223 153 -292 84z m245 -403 c9 -17 14 -33 11 -36 -4 -4 -36 49 -36 62 0 13
11 2 25 -26z"/>
<path d="M2641 4208 c-115 -44 -184 -158 -161 -264 18 -83 63 -134 160 -185
37 -19 60 -23 130 -23 72 -1 94 4 145 27 68 32 139 84 207 152 77 76 85 157
22 220 -18 18 -48 36 -66 40 -18 4 -71 18 -117 31 -110 32 -241 32 -320 2z"/>
<path d="M1073 4086 c-61 -28 -84 -93 -59 -161 20 -50 59 -79 121 -91 55 -9
145 -43 145 -54 0 -25 -153 -73 -283 -89 -43 -5 -89 -17 -103 -26 -99 -65 -76
-215 38 -246 49 -13 167 3 286 37 250 73 404 239 362 394 -17 62 -88 134 -174
174 -124 59 -277 87 -333 62z"/>
<path d="M4219 3776 c-205 -55 -334 -289 -250 -453 68 -134 282 -190 428 -114
125 65 210 212 215 370 4 111 -46 163 -183 196 -76 18 -147 18 -210 1z m91
-281 c0 -18 -46 -49 -60 -40 -18 11 18 44 58 54 1 1 2 -6 2 -14z"/>
<path d="M1670 3715 c-90 -29 -134 -102 -134 -225 0 -61 5 -85 27 -131 102
-212 369 -241 464 -51 13 26 18 59 18 112 0 126 -62 227 -175 285 -46 24 -143
29 -200 10z"/>
<path d="M5200 3634 c-116 -31 -222 -120 -278 -234 -38 -78 -43 -195 -12 -268
48 -112 163 -174 284 -154 178 30 292 124 332 274 34 129 11 204 -95 306 -70
67 -116 93 -161 91 -8 0 -40 -7 -70 -15z m30 -323 c0 -5 -8 -17 -17 -27 -20
-20 -32 -1 -13 21 14 17 30 20 30 6z"/>
<path d="M3413 3350 c-44 -27 -86 -87 -145 -207 -47 -95 -49 -103 -38 -137 25
-76 93 -95 186 -52 104 48 176 158 182 278 4 66 3 69 -31 103 -29 29 -42 35
-78 35 -26 0 -57 -8 -76 -20z"/>
<path d="M2545 3273 c-168 -35 -265 -93 -435 -258 -138 -134 -176 -161 -311
-219 -198 -85 -295 -153 -379 -263 -89 -117 -166 -305 -191 -466 -14 -90 -6
-279 17 -367 42 -168 88 -225 378 -465 247 -205 276 -224 416 -271 78 -26 98
-28 230 -28 135 0 150 2 220 28 197 74 456 249 628 425 101 102 232 270 277
354 16 29 40 68 55 87 138 178 156 391 53 617 -29 63 -136 233 -235 376 -38
54 -58 92 -58 112 -2 78 -128 223 -257 297 -101 57 -259 73 -408 41z m231
-405 c9 -18 56 -85 104 -148 48 -63 106 -149 130 -190 23 -41 60 -102 81 -136
55 -86 89 -174 89 -233 0 -39 -7 -58 -34 -97 -19 -27 -52 -82 -75 -122 -86
-155 -223 -313 -376 -435 -127 -102 -163 -124 -255 -160 -63 -25 -90 -30 -170
-31 -142 -1 -180 19 -418 233 -105 94 -199 183 -210 198 -74 106 -58 314 35
472 60 101 136 164 281 232 153 73 258 143 382 255 52 48 119 103 148 122 58
39 160 70 229 71 38 1 44 -2 59 -31z"/>
<path d="M372 2255 c-44 -37 -48 -70 -18 -167 66 -217 133 -336 266 -469 105
-105 162 -139 247 -147 68 -6 95 2 137 38 52 46 80 121 72 194 -19 181 -171
340 -493 515 -128 70 -164 76 -211 36z m450 -498 c26 -37 15 -47 -18 -16 -38
34 -104 119 -104 132 0 13 92 -74 122 -116z"/>
<path d="M4505 1916 c-17 -7 -36 -20 -43 -29 -13 -15 -17 -14 -50 8 -75 51
-182 24 -222 -56 -23 -44 -27 -159 -10 -299 28 -234 112 -355 245 -354 126 1
165 62 251 394 46 177 48 234 10 285 -46 60 -116 80 -181 51z"/>
</g>
</svg>
