<?xml version="1.0" standalone="no"?>
<!DOCTYPE svg PUBLIC "-//W3C//DTD SVG 20010904//EN"
 "http://www.w3.org/TR/2001/REC-SVG-20010904/DTD/svg10.dtd">
<svg version="1.0" xmlns="http://www.w3.org/2000/svg"
 width="600.000000pt" height="600.000000pt" viewBox="0 0 600.000000 600.000000"
 preserveAspectRatio="xMidYMid meet">
<metadata>
Created by potrace 1.15, written by Peter Selinger 2001-2017
</metadata>
<g transform="translate(0.000000,600.000000) scale(0.100000,-0.100000)"
fill="#16364b" stroke="none">
<path d="M2080 5131 c-90 -19 -179 -91 -227 -183 -24 -46 -27 -65 -28 -143 0
-49 6 -148 13 -220 7 -71 17 -398 24 -725 6 -327 13 -683 15 -790 5 -205 -11
-415 -31 -423 -6 -3 -81 -55 -166 -117 -85 -61 -206 -146 -268 -188 -100 -67
-116 -75 -133 -64 -25 16 -42 6 -36 -20 5 -18 2 -19 -34 -13 -33 6 -39 4 -39
-11 0 -10 8 -26 18 -37 11 -13 13 -21 6 -24 -26 -9 -47 -31 -40 -41 4 -7 20
-12 37 -12 33 0 36 -6 12 -32 -13 -14 -14 -21 -5 -30 10 -10 29 -4 85 25 39
21 87 48 105 60 18 12 92 61 165 110 72 48 167 112 210 143 l77 56 0 -64 c0
-297 72 -646 173 -841 89 -174 253 -282 493 -328 l62 -11 -5 -122 c-6 -148 11
-272 63 -446 20 -69 39 -137 41 -152 l5 -26 -89 -7 c-97 -8 -132 -21 -157 -59
-56 -86 30 -168 158 -151 117 16 197 67 230 147 24 56 20 91 -28 254 -60 207
-80 323 -74 440 3 53 9 98 14 102 5 4 133 5 284 1 151 -3 363 -5 470 -3 l196
3 -4 -122 c-4 -137 11 -230 74 -451 20 -69 34 -133 30 -141 -4 -11 -22 -15
-76 -15 -115 0 -175 -38 -175 -111 0 -144 284 -141 383 5 43 65 43 117 -3 258
-51 163 -85 325 -85 412 0 75 15 162 30 171 4 2 72 12 151 20 194 22 331 50
393 82 28 14 85 60 127 102 62 62 85 94 122 171 71 148 81 203 81 425 0 209
-10 272 -63 389 -47 103 -107 184 -218 294 -67 66 -98 102 -86 102 10 0 59 -7
108 -14 50 -8 149 -20 220 -27 72 -7 133 -17 137 -22 6 -10 73 4 136 30 31 13
42 36 22 48 -7 4 -7 12 0 25 7 13 6 21 -4 29 -8 7 -12 21 -9 32 6 20 3 20 -52
14 -49 -7 -57 -5 -53 7 4 8 2 21 -3 29 -8 12 -12 11 -24 -5 -8 -10 -16 -23
-18 -29 -4 -13 -266 8 -481 39 -94 13 -190 26 -212 29 -29 4 -60 20 -100 52
-96 75 -291 200 -584 373 -151 89 -296 178 -322 197 -76 55 -189 185 -241 277
-122 215 -198 405 -333 841 -25 83 -60 174 -76 204 -85 149 -260 249 -388 222z
m158 -187 c55 -39 108 -122 133 -208 11 -39 27 -87 34 -106 7 -19 30 -91 50
-160 49 -172 82 -254 191 -479 114 -236 178 -334 281 -432 87 -83 120 -107
273 -199 166 -100 616 -396 715 -470 50 -37 137 -99 195 -137 131 -88 167
-116 257 -204 82 -80 150 -183 185 -279 21 -59 23 -82 23 -250 0 -162 -3 -195
-23 -263 -46 -158 -119 -265 -216 -312 -104 -50 -403 -93 -711 -102 -274 -7
-1004 14 -1100 32 -250 47 -381 172 -456 435 -64 222 -84 508 -55 785 27 260
28 315 15 510 -7 105 -14 366 -15 580 -2 473 -18 968 -34 1050 -21 107 3 182
74 227 47 29 129 21 184 -18z"/>
<path d="M2643 2770 c-22 -9 -43 -39 -43 -60 0 -23 49 -60 79 -60 24 0 34 7
46 30 20 39 19 47 -10 75 -26 27 -37 29 -72 15z"/>
<path d="M3097 2672 c-33 -36 -18 -85 34 -113 38 -20 79 17 79 71 0 50 -79 79
-113 42z"/>
<path d="M2956 1789 c-14 -21 -12 -42 7 -66 14 -19 71 -16 90 5 22 24 21 38
-3 62 -27 27 -75 26 -94 -1z"/>
<path d="M5240 3973 c-194 -67 -271 -265 -179 -463 53 -116 140 -180 244 -180
98 0 254 68 319 140 102 113 112 244 27 356 -41 54 -156 139 -211 154 -51 14
-148 11 -200 -7z m129 -284 c36 -13 37 -16 14 -41 -23 -26 -48 -22 -62 9 -10
21 -9 28 1 34 7 5 13 9 14 9 1 0 15 -5 33 -11z"/>
</g>
</svg>
