<?xml version="1.0" standalone="no"?>
<!DOCTYPE svg PUBLIC "-//W3C//DTD SVG 20010904//EN"
 "http://www.w3.org/TR/2001/REC-SVG-20010904/DTD/svg10.dtd">
<svg version="1.0" xmlns="http://www.w3.org/2000/svg"
 width="600.000000pt" height="600.000000pt" viewBox="0 0 600.000000 600.000000"
 preserveAspectRatio="xMidYMid meet">
<metadata>
Created by potrace 1.15, written by Peter Selinger 2001-2017
</metadata>
<g transform="translate(0.000000,600.000000) scale(0.100000,-0.100000)"
fill="#16364b" stroke="none">
<path d="M2812 5570 c-67 -41 -140 -254 -127 -370 9 -79 56 -170 116 -224 71
-63 127 -79 274 -74 63 1 115 0 115 -3 0 -3 -68 -66 -151 -139 -193 -172 -387
-372 -411 -427 -24 -54 -13 -102 37 -155 52 -56 69 -64 215 -96 134 -31 201
-43 442 -82 70 -11 139 -25 153 -30 39 -15 113 -12 151 6 45 21 78 88 68 140
-4 20 -20 51 -36 70 -30 34 -86 56 -213 84 -43 10 -397 70 -410 70 -34 0 75
112 295 304 69 60 153 133 186 162 79 68 108 125 102 198 -11 134 -131 195
-388 197 -74 1 -160 4 -190 7 -52 7 -55 9 -52 32 2 14 15 52 29 85 37 86 40
135 13 183 -43 76 -147 105 -218 62z"/>
<path d="M1552 5281 c-81 -28 -180 -101 -290 -215 -153 -159 -259 -330 -311
-501 -33 -108 -11 -191 62 -235 45 -28 92 -25 223 15 124 37 256 65 311 65 33
0 35 -1 28 -27 -3 -15 -29 -86 -57 -158 -66 -171 -80 -235 -62 -295 17 -57 17
-60 -1 -60 -26 0 -84 -61 -95 -99 -25 -93 52 -201 144 -201 31 0 368 132 511
200 125 59 157 91 163 162 3 44 0 59 -20 87 -33 49 -69 72 -121 78 -38 5 -60
-2 -151 -42 -59 -26 -108 -46 -110 -44 -2 2 18 54 44 114 64 149 80 198 87
270 11 123 -41 219 -151 275 -69 35 -70 35 -222 39 -85 2 -154 7 -154 11 0 4
30 40 66 79 70 75 167 151 227 176 116 48 148 163 71 255 -51 60 -115 77 -192
51z"/>
<path d="M4385 4594 c-69 -17 -298 -125 -334 -157 -74 -69 -64 -185 21 -237
52 -31 107 -26 212 21 105 47 197 81 204 75 16 -17 -56 -161 -197 -396 -96
-160 -111 -189 -111 -228 0 -57 10 -75 89 -153 l66 -66 100 -7 c117 -9 286
-38 370 -64 76 -23 76 -30 -9 -171 -96 -158 -196 -367 -196 -408 0 -105 100
-184 193 -154 19 7 43 22 54 34 26 28 255 455 287 534 122 299 -19 458 -454
510 -74 9 -137 18 -138 19 -2 1 27 58 66 126 177 314 217 437 180 562 -17 57
-99 138 -162 159 -60 20 -159 21 -241 1z"/>
<path d="M3715 3676 c-159 -73 -215 -302 -92 -376 69 -42 164 -16 203 55 22
42 31 44 40 8 9 -33 -15 -131 -52 -218 -25 -59 -27 -61 -87 -83 -131 -47 -279
-172 -293 -248 -21 -113 97 -212 209 -175 19 7 56 30 80 52 55 48 128 81 239
109 114 28 138 38 175 73 60 56 66 130 18 202 l-25 36 17 62 c25 93 22 246 -6
318 -29 77 -88 141 -163 178 -81 41 -186 44 -263 7z"/>
<path d="M2478 3545 c-192 -39 -376 -115 -408 -167 -29 -48 -27 -123 5 -171
52 -76 128 -89 236 -39 90 42 210 72 286 72 l63 0 0 -39 c0 -60 -53 -211 -125
-357 -86 -174 -86 -229 -3 -299 31 -26 32 -29 14 -39 -67 -40 -106 -104 -106
-172 1 -104 92 -194 197 -194 12 0 93 23 180 51 163 52 314 92 321 84 7 -6
-18 -75 -65 -179 -41 -88 -45 -104 -41 -156 7 -97 66 -155 168 -167 60 -7 125
15 162 55 37 39 111 192 144 297 24 76 28 107 29 205 0 102 -3 120 -24 160
-48 93 -123 147 -234 170 -88 18 -207 2 -400 -52 -59 -17 -110 -28 -112 -26
-3 3 15 40 39 84 150 265 206 576 132 728 -31 63 -80 110 -145 139 -58 27
-216 32 -313 12z"/>
<path d="M1124 3252 c-127 -44 -264 -156 -284 -231 -20 -75 -6 -126 49 -181
56 -56 121 -77 186 -59 20 6 38 9 40 7 3 -4 -5 -63 -56 -388 -37 -228 -40
-269 -37 -390 5 -145 18 -189 70 -237 75 -70 222 -71 284 -2 12 13 71 110 132
214 163 280 229 379 311 467 40 43 76 78 80 78 4 0 16 -24 26 -53 16 -48 17
-65 6 -202 -7 -85 -30 -239 -52 -355 -22 -113 -43 -250 -46 -305 -5 -89 -3
-105 15 -142 52 -101 178 -131 257 -62 l33 30 11 -53 c6 -29 20 -102 31 -163
60 -316 140 -541 234 -657 132 -162 365 -168 537 -15 26 23 61 52 77 64 18 14
54 70 93 145 90 173 183 327 226 370 59 60 75 56 238 -67 50 -37 119 -82 155
-99 58 -28 75 -31 155 -31 77 0 98 4 147 27 78 36 135 84 166 138 14 25 40 57
58 72 46 40 84 121 84 180 0 26 -13 96 -29 155 -45 166 -56 232 -42 246 9 9
78 12 244 12 217 0 236 2 288 23 111 44 178 111 220 221 32 80 32 234 0 306
-44 99 -112 144 -219 145 -119 0 -198 -67 -227 -194 l-11 -50 -170 -1 c-192
-1 -254 -13 -367 -72 -166 -88 -269 -289 -253 -498 3 -44 17 -125 31 -179 14
-55 23 -101 22 -103 -2 -1 -41 23 -87 54 -155 103 -259 138 -396 131 -174 -8
-287 -104 -462 -396 -43 -70 -95 -162 -117 -205 -25 -50 -50 -84 -66 -92 -26
-14 -27 -14 -48 36 -22 49 -51 170 -111 447 -33 156 -43 183 -87 224 -84 80
-202 76 -280 -9 l-34 -38 6 70 c4 39 24 179 46 312 65 403 71 561 29 775 -24
120 -38 154 -80 196 -65 65 -137 85 -221 62 -120 -33 -309 -209 -444 -413 -21
-31 -40 -56 -42 -54 -2 2 8 67 23 143 53 284 57 374 23 478 -50 151 -206 223
-365 168z"/>
</g>
</svg>
