<?xml version="1.0" standalone="no"?>
<!DOCTYPE svg PUBLIC "-//W3C//DTD SVG 20010904//EN"
 "http://www.w3.org/TR/2001/REC-SVG-20010904/DTD/svg10.dtd">
<svg version="1.0" xmlns="http://www.w3.org/2000/svg"
 width="600.000000pt" height="600.000000pt" viewBox="0 0 600.000000 600.000000"
 preserveAspectRatio="xMidYMid meet">
<metadata>
Created by potrace 1.15, written by Peter Selinger 2001-2017
</metadata>
<g transform="translate(0.000000,600.000000) scale(0.100000,-0.100000)"
fill="#16364b" stroke="none">
<path d="M2372 5388 c-8 -8 -12 -57 -12 -152 -1 -426 -76 -614 -290 -725 -78
-41 -90 -53 -90 -96 0 -23 12 -37 42 -48 31 -11 191 77 255 141 145 143 212
407 194 760 -5 87 -9 106 -25 118 -24 17 -58 18 -74 2z"/>
<path d="M3539 5290 c-8 -5 -21 -27 -28 -48 -12 -36 -11 -44 17 -110 58 -137
153 -232 233 -232 44 0 79 35 79 79 0 32 -47 133 -97 208 -58 88 -150 134
-204 103z"/>
<path d="M3048 5110 c-69 -21 -133 -96 -168 -199 -26 -77 -26 -137 0 -179 43
-70 111 -61 202 26 69 66 128 173 128 234 0 94 -70 146 -162 118z m52 -117
c-1 -45 -92 -183 -121 -183 -18 0 -9 57 17 108 36 73 104 122 104 75z"/>
<path d="M4775 4716 c-31 -31 -38 -90 -39 -331 -1 -160 2 -198 17 -242 23 -65
65 -103 113 -103 51 0 73 16 97 68 41 94 19 371 -43 534 -34 92 -95 124 -145
74z"/>
<path d="M2609 4171 c-34 -33 -39 -45 -39 -83 0 -55 23 -87 87 -125 137 -80
392 -84 469 -8 35 36 34 105 -3 144 -45 47 -276 111 -402 111 -72 0 -74 -1
-112 -39z"/>
<path d="M5258 3966 c-94 -34 -165 -94 -210 -179 -19 -35 -23 -58 -23 -132 0
-79 4 -97 28 -142 56 -108 155 -175 268 -181 120 -7 232 40 318 133 117 129
106 296 -27 415 -85 76 -142 100 -237 100 -44 -1 -96 -7 -117 -14z m160 -301
c11 -11 -15 -40 -38 -43 -25 -4 -40 12 -40 42 0 16 5 18 36 13 20 -3 39 -9 42
-12z"/>
<path d="M1275 3785 c-121 -50 -196 -168 -181 -289 14 -121 109 -241 234 -298
37 -16 78 -35 91 -41 13 -7 41 -34 62 -62 81 -107 131 -242 173 -470 15 -77
44 -223 66 -325 21 -102 50 -255 64 -340 41 -252 92 -399 182 -521 50 -69 154
-153 236 -192 37 -18 67 -34 67 -37 1 -3 -15 -15 -34 -27 -47 -31 -68 -66 -69
-117 -2 -86 47 -128 167 -147 57 -9 117 -8 297 7 124 9 238 14 253 10 26 -6
28 -10 21 -34 -13 -46 -7 -76 21 -99 31 -27 66 -29 105 -6 37 21 50 52 50 117
0 42 -6 61 -29 92 -64 90 -117 102 -348 80 -190 -18 -363 -21 -325 -6 12 5 93
21 179 36 87 14 160 27 163 29 6 3 379 -18 610 -35 98 -6 169 -17 192 -27 30
-13 60 -15 155 -10 65 3 151 11 191 18 70 13 73 12 87 -9 31 -43 133 -54 199
-22 41 20 96 90 96 123 0 11 18 21 58 32 299 83 482 181 629 338 244 262 327
642 196 902 -90 176 -242 324 -406 393 -82 34 -248 43 -347 17 -107 -27 -202
-79 -282 -153 -150 -139 -295 -213 -524 -267 -211 -50 -427 -23 -634 79 -195
95 -318 215 -514 496 -165 238 -231 324 -330 427 -167 175 -290 256 -497 327
-135 46 -231 49 -324 11z m261 -280 c187 -67 242 -104 394 -261 117 -121 194
-220 335 -429 60 -88 136 -193 169 -234 211 -256 585 -421 956 -421 131 0 212
18 424 95 240 87 333 138 456 250 88 81 136 100 260 100 79 0 103 -4 143 -23
125 -62 234 -238 252 -407 17 -164 -83 -370 -245 -501 -136 -110 -452 -225
-738 -270 -145 -22 -462 -28 -772 -15 -151 7 -374 16 -495 21 -158 6 -235 13
-275 25 -226 70 -318 213 -365 565 -25 190 -31 229 -58 380 -14 80 -30 186
-37 235 -30 229 -112 446 -241 636 -61 90 -158 163 -244 183 -52 12 -105 53
-105 81 0 23 4 25 44 25 25 0 86 -15 142 -35z"/>
<path d="M2291 2421 c-28 -28 -26 -53 5 -90 43 -52 104 -31 104 36 0 56 -72
91 -109 54z"/>
<path d="M2830 2057 c-37 -19 -39 -68 -4 -96 41 -32 80 -28 100 10 20 39 7 74
-32 89 -32 12 -34 12 -64 -3z"/>
<path d="M4230 3764 c-243 -65 -345 -370 -180 -535 142 -142 385 -83 477 117
45 100 53 241 17 324 -18 42 -62 73 -134 94 -65 19 -108 19 -180 0z m80 -277
c0 -20 -30 -57 -46 -57 -20 0 -17 27 6 50 23 23 40 26 40 7z"/>
<path d="M3464 3360 c-12 -4 -35 -28 -53 -52 -41 -56 -141 -251 -141 -276 0
-42 67 -73 105 -48 55 36 165 220 181 303 5 26 1 37 -19 57 -28 27 -39 30 -73
16z"/>
<path d="M482 2014 c-22 -15 -29 -48 -14 -70 15 -24 173 -143 217 -164 75 -36
135 -14 135 51 0 35 -79 102 -180 153 -99 50 -124 54 -158 30z"/>
<path d="M5341 1093 c-40 -41 -67 -145 -51 -201 22 -83 115 -106 172 -43 34
38 51 101 46 170 -4 44 -10 59 -32 78 -39 34 -99 32 -135 -4z"/>
</g>
</svg>
