<?xml version="1.0" standalone="no"?>
<!DOCTYPE svg PUBLIC "-//W3C//DTD SVG 20010904//EN"
 "http://www.w3.org/TR/2001/REC-SVG-20010904/DTD/svg10.dtd">
<svg version="1.0" xmlns="http://www.w3.org/2000/svg"
 width="600.000000pt" height="600.000000pt" viewBox="0 0 600.000000 600.000000"
 preserveAspectRatio="xMidYMid meet">
<metadata>
Created by potrace 1.15, written by Peter Selinger 2001-2017
</metadata>
<g transform="translate(0.000000,600.000000) scale(0.100000,-0.100000)"
fill="#16364b" stroke="none">
<path d="M3173 5649 c-44 -13 -76 -56 -113 -149 -86 -224 -79 -362 22 -456 59
-56 185 -103 278 -104 75 -1 66 -15 -57 -88 -233 -139 -491 -329 -519 -384
-19 -36 -20 -78 -5 -151 25 -118 92 -162 367 -241 66 -19 194 -57 283 -85 123
-39 172 -50 197 -45 111 21 155 162 77 244 -32 33 -60 47 -178 88 -77 28 -189
64 -250 82 -60 18 -114 35 -118 37 -10 6 55 55 164 125 76 49 155 95 324 188
166 92 224 151 233 239 6 68 -12 113 -64 161 -81 74 -177 108 -382 135 -62 8
-117 17 -122 20 -16 10 -12 49 15 132 14 43 25 96 25 118 0 93 -88 160 -177
134z"/>
<path d="M1475 5430 c-130 -28 -365 -246 -474 -441 -40 -72 -108 -261 -132
-369 -35 -159 -22 -228 54 -284 38 -28 122 -28 162 0 80 55 495 172 495 139 0
-3 -31 -68 -69 -144 -91 -180 -159 -340 -180 -421 -9 -36 -22 -75 -29 -87 -32
-58 -2 -157 57 -188 65 -33 95 -24 374 116 144 72 278 143 297 158 112 89 43
271 -103 271 -37 0 -64 -8 -111 -35 -35 -19 -66 -35 -69 -35 -4 0 27 69 68
153 85 172 107 258 86 333 -35 127 -157 194 -354 194 -74 0 -250 -24 -291 -40
-39 -14 -34 11 21 108 56 99 168 211 255 255 68 34 96 60 114 103 19 46 18 80
-6 130 -32 65 -98 98 -165 84z"/>
<path d="M4695 4464 c-206 -53 -405 -109 -423 -120 -59 -38 -79 -130 -42 -192
22 -36 87 -71 132 -72 15 0 83 14 151 30 140 34 137 33 137 21 0 -15 -116
-187 -230 -341 -128 -173 -130 -177 -130 -232 0 -52 28 -102 70 -126 28 -16
30 -20 24 -58 -7 -48 20 -111 59 -137 13 -8 77 -32 143 -52 140 -44 272 -93
279 -105 2 -4 -21 -47 -51 -96 -118 -186 -184 -295 -204 -333 -26 -52 -25
-100 3 -142 25 -38 97 -79 140 -79 35 0 87 26 107 54 54 75 268 422 292 473
59 125 46 232 -40 318 -62 61 -151 103 -357 165 -93 29 -172 53 -173 55 -2 2
38 60 90 128 115 154 213 310 280 445 65 132 74 201 35 285 -38 83 -86 111
-191 114 -45 1 -90 -1 -101 -3z"/>
<path d="M3815 3650 c-61 -40 -82 -123 -47 -186 9 -17 61 -70 115 -118 80 -72
97 -93 97 -116 0 -16 5 -41 10 -55 8 -21 7 -26 -2 -21 -114 47 -264 48 -359 3
-107 -52 -222 -199 -236 -304 -14 -105 101 -196 205 -162 48 15 75 41 113 107
27 49 33 53 57 48 225 -53 359 43 307 219 -6 18 -2 20 47 17 103 -6 166 71
155 190 -7 74 -36 125 -138 236 -134 146 -244 195 -324 142z"/>
<path d="M2475 3614 c-68 -17 -253 -103 -302 -140 -44 -33 -63 -73 -63 -131 0
-134 121 -185 265 -111 102 53 141 67 201 74 l54 7 0 -47 c0 -26 -12 -82 -26
-124 -28 -87 -140 -307 -234 -462 -85 -141 -93 -162 -80 -210 18 -66 51 -95
141 -125 45 -15 100 -27 123 -27 25 -1 111 22 216 56 96 32 181 60 189 62 24
8 -6 -78 -110 -313 -52 -115 -59 -139 -59 -195 0 -73 18 -110 74 -153 71 -54
172 -40 238 34 37 40 170 342 235 531 78 227 44 368 -108 450 -63 35 -65 35
-189 35 -88 -1 -144 -6 -189 -18 -35 -10 -65 -16 -67 -14 -2 2 22 60 55 128
85 180 105 246 105 354 1 81 -2 97 -30 155 -61 128 -158 192 -299 197 -48 1
-104 -4 -140 -13z"/>
<path d="M1090 3417 c-103 -29 -318 -173 -360 -242 -64 -104 -18 -251 95 -304
56 -26 109 -27 160 -1 21 11 40 18 42 16 2 -2 -21 -117 -52 -256 -80 -365 -89
-419 -89 -565 0 -148 10 -181 74 -238 29 -27 55 -38 114 -52 127 -28 149 -15
273 158 48 67 161 218 250 336 90 118 176 235 190 260 42 73 44 74 61 50 29
-41 11 -197 -51 -439 -69 -267 -86 -351 -96 -476 -19 -221 28 -347 141 -383
70 -23 148 12 183 80 22 42 19 117 -6 159 -28 46 -22 111 30 330 108 450 127
637 86 825 -7 33 -16 92 -19 130 -15 152 -56 228 -142 261 -39 15 -52 15 -99
5 -109 -24 -196 -118 -401 -428 -75 -112 -137 -203 -139 -201 -4 4 68 363 96
478 33 133 33 266 0 333 -63 129 -213 200 -341 164z"/>
<path d="M4620 2219 c-32 -13 -88 -66 -106 -101 -8 -15 -19 -50 -25 -78 -8
-36 -15 -50 -24 -46 -8 3 -93 13 -191 22 -145 15 -190 16 -256 6 -104 -15
-194 -59 -263 -128 -97 -96 -130 -187 -146 -404 -6 -80 -13 -147 -15 -149 -2
-2 -29 20 -61 48 -199 178 -380 228 -537 149 -90 -46 -196 -174 -281 -340 -22
-43 -42 -78 -46 -78 -3 0 -11 55 -17 122 -22 213 -65 373 -126 463 -52 77
-153 115 -229 86 -38 -15 -96 -70 -111 -106 -28 -66 -29 -108 -3 -176 31 -82
49 -165 91 -426 49 -299 89 -402 193 -493 94 -82 237 -127 325 -101 84 26 140
113 137 218 -1 33 8 70 28 118 49 116 146 305 174 338 l26 31 34 -24 c19 -13
93 -81 164 -151 165 -160 206 -184 325 -184 65 0 93 5 120 19 59 32 99 69 132
121 18 28 43 63 55 79 47 57 76 170 96 375 l12 116 70 -1 c39 0 122 -11 185
-24 149 -31 284 -32 356 -3 113 45 183 113 225 222 18 46 22 76 22 171 0 125
-14 174 -69 233 -52 57 -99 79 -172 83 -37 2 -78 -1 -92 -7z"/>
</g>
</svg>
