<?xml version="1.0" standalone="no"?>
<!DOCTYPE svg PUBLIC "-//W3C//DTD SVG 20010904//EN"
 "http://www.w3.org/TR/2001/REC-SVG-20010904/DTD/svg10.dtd">
<svg version="1.0" xmlns="http://www.w3.org/2000/svg"
 width="600.000000pt" height="600.000000pt" viewBox="0 0 600.000000 600.000000"
 preserveAspectRatio="xMidYMid meet">
<metadata>
Created by potrace 1.15, written by Peter Selinger 2001-2017
</metadata>
<g transform="translate(0.000000,600.000000) scale(0.100000,-0.100000)"
fill="#16364b" stroke="none">
<path d="M2265 5680 c-111 -43 -205 -145 -245 -264 -11 -34 -30 -122 -42 -196
-19 -120 -21 -184 -24 -565 -2 -236 -8 -486 -14 -555 -5 -69 -14 -260 -20
-425 -7 -165 -14 -343 -18 -395 l-7 -94 -76 74 c-41 41 -93 102 -116 135 -35
52 -123 216 -123 229 0 3 14 21 31 40 30 34 32 56 5 56 -8 0 -19 -7 -26 -15
-21 -25 -28 -17 -19 23 21 92 -3 124 -42 57 -26 -43 -35 -44 -44 -6 -3 16 -13
35 -20 41 -24 20 -35 2 -28 -48 l6 -47 -32 29 c-23 22 -34 27 -42 19 -9 -9 1
-34 35 -98 25 -48 46 -95 46 -104 0 -23 79 -185 126 -258 55 -86 193 -222 314
-311 8 -6 -1 -135 -22 -307 -32 -264 -16 -513 54 -835 76 -352 232 -524 548
-604 l95 -24 -3 -34 c-1 -18 -3 -103 -4 -188 -1 -173 18 -289 71 -442 16 -45
28 -85 26 -89 -3 -3 -42 -9 -89 -12 -121 -8 -166 -36 -166 -102 0 -68 52 -99
159 -97 134 2 241 76 256 177 5 31 -3 66 -35 159 -57 167 -73 271 -68 436 5
143 16 187 46 175 41 -16 362 -37 642 -41 l305 -4 -5 -37 c-3 -21 -5 -94 -4
-163 0 -137 17 -238 65 -386 16 -50 29 -96 29 -103 0 -7 -23 -11 -66 -11 -135
0 -194 -34 -194 -111 0 -48 24 -74 81 -89 84 -23 236 16 295 75 18 17 38 50
44 72 12 39 10 51 -29 175 -65 208 -88 421 -58 538 l12 45 65 6 c36 4 110 7
165 8 185 2 297 41 389 135 63 63 98 126 130 238 29 100 42 260 51 643 6 212
4 261 -10 320 -23 100 -91 231 -194 375 l-89 125 86 30 c155 54 308 150 422
265 60 61 97 112 179 249 30 51 35 81 11 81 -5 0 -10 7 -10 15 0 19 -30 19
-56 0 -28 -21 -32 -19 -36 18 -2 20 -8 32 -18 32 -8 0 -21 -15 -29 -32 -16
-37 -31 -43 -31 -13 0 13 -7 20 -20 20 -23 0 -25 -19 -8 -84 11 -42 11 -45
-26 -94 -99 -136 -320 -278 -495 -318 l-66 -16 -23 29 c-93 112 -164 180 -272
258 -67 50 -186 137 -264 194 -77 58 -195 142 -261 187 -157 107 -281 216
-360 317 -151 190 -204 387 -225 823 -10 215 -19 292 -47 379 -51 160 -153
273 -287 318 -71 24 -215 22 -281 -3z m243 -155 c29 -13 66 -39 83 -57 42 -45
87 -141 103 -224 16 -76 36 -312 36 -418 0 -150 46 -366 112 -524 50 -120 121
-216 273 -367 122 -123 166 -159 350 -285 251 -172 460 -328 542 -404 91 -84
367 -455 448 -601 76 -138 78 -162 57 -645 -17 -393 -39 -486 -134 -578 -63
-60 -119 -71 -396 -82 -470 -18 -955 -8 -1187 25 -22 3 -80 10 -130 16 -189
23 -340 84 -431 175 -108 108 -157 245 -200 555 -20 141 -22 400 -4 519 6 41
15 239 20 440 12 507 28 877 42 995 7 60 12 278 13 545 1 461 10 583 51 729
49 173 203 255 352 186z"/>
<path d="M2567 2952 c-27 -29 -21 -67 14 -96 17 -14 37 -26 44 -26 20 0 55 49
55 76 0 54 -78 85 -113 46z"/>
<path d="M3192 2905 c-24 -30 -19 -58 16 -85 31 -25 47 -25 72 0 27 27 27 85
1 100 -33 17 -68 12 -89 -15z"/>
<path d="M3035 2013 c-124 -11 -189 -13 -240 -6 -38 6 -76 8 -83 5 -22 -8 -34
-40 -22 -62 19 -36 80 -43 275 -34 99 5 244 9 323 9 144 1 162 5 162 40 0 60
-124 74 -415 48z"/>
</g>
</svg>
