<?xml version="1.0" standalone="no"?>
<!DOCTYPE svg PUBLIC "-//W3C//DTD SVG 20010904//EN"
 "http://www.w3.org/TR/2001/REC-SVG-20010904/DTD/svg10.dtd">
<svg version="1.0" xmlns="http://www.w3.org/2000/svg"
 width="600.000000pt" height="600.000000pt" viewBox="0 0 600.000000 600.000000"
 preserveAspectRatio="xMidYMid meet">
<metadata>
Created by potrace 1.15, written by Peter Selinger 2001-2017
</metadata>
<g transform="translate(0.000000,600.000000) scale(0.100000,-0.100000)"
fill="#16364b" stroke="none">
<path d="M1465 5740 c-44 -22 -145 -67 -225 -101 -159 -67 -185 -85 -201 -139
-9 -30 -8 -43 6 -69 34 -67 110 -74 435 -41 107 11 203 20 213 20 10 0 29 11
42 25 58 57 12 165 -70 165 l-36 0 20 26 c29 37 27 85 -5 123 -35 42 -77 40
-179 -9z"/>
<path d="M2395 5418 c-43 -23 -55 -50 -55 -123 0 -93 -26 -317 -50 -434 -37
-175 -113 -282 -245 -342 -96 -43 -116 -89 -66 -150 15 -19 29 -24 68 -24 106
0 297 154 367 296 62 127 94 308 103 580 l6 165 -28 22 c-30 24 -68 28 -100
10z"/>
<path d="M3528 5320 c-14 -11 -33 -35 -42 -55 -16 -33 -16 -40 -2 -89 29 -100
132 -226 209 -255 102 -39 187 24 173 127 -14 104 -133 248 -226 276 -69 21
-82 20 -112 -4z"/>
<path d="M3007 5146 c-129 -46 -228 -226 -198 -360 16 -72 53 -107 119 -114
91 -8 205 71 256 177 27 57 31 77 31 148 0 73 -3 84 -25 108 -48 52 -111 66
-183 41z m7 -244 c-11 -16 -19 -22 -22 -14 -2 7 4 25 14 40 11 16 19 22 22 14
2 -7 -4 -25 -14 -40z"/>
<path d="M4771 4746 c-43 -24 -50 -51 -51 -199 0 -261 56 -413 175 -468 75
-35 146 -19 202 44 43 49 56 96 51 182 -8 125 -87 265 -221 393 -70 67 -104
77 -156 48z"/>
<path d="M2624 4211 c-108 -49 -140 -186 -70 -306 51 -86 150 -130 283 -124
98 5 182 43 265 121 67 63 86 113 66 173 -17 51 -46 70 -153 101 -196 57 -319
68 -391 35z"/>
<path d="M1110 4139 c-59 -23 -86 -106 -52 -162 l20 -35 -39 -15 c-42 -17 -79
-66 -79 -107 0 -45 34 -84 107 -123 92 -48 182 -71 246 -63 121 17 197 97 197
208 0 132 -105 237 -289 292 -61 18 -75 19 -111 5z"/>
<path d="M5255 3820 c-146 -20 -235 -98 -271 -240 -38 -148 18 -310 131 -375
207 -122 526 65 525 308 -1 101 -52 180 -167 254 -86 57 -124 66 -218 53z m60
-321 c8 -12 -22 -49 -40 -49 -18 0 -27 30 -14 46 14 17 45 18 54 3z"/>
<path d="M4190 3754 c-119 -32 -206 -112 -240 -222 -25 -81 -25 -117 1 -187
28 -75 67 -117 141 -155 53 -26 72 -30 139 -30 193 0 329 124 360 329 21 143
-2 203 -93 239 -106 42 -214 51 -308 26z m88 -286 c-16 -24 -55 -42 -63 -28
-9 14 32 50 56 50 20 0 20 -2 7 -22z"/>
<path d="M3420 3364 c-35 -30 -147 -248 -157 -307 -5 -31 -1 -40 25 -67 36
-35 67 -38 120 -11 52 27 96 76 132 148 75 152 52 263 -54 263 -23 0 -45 -9
-66 -26z"/>
<path d="M1670 3099 c-359 -33 -604 -163 -705 -374 -36 -75 -39 -87 -43 -190
-7 -173 32 -293 130 -400 60 -66 107 -95 219 -136 176 -64 236 -123 347 -345
97 -192 178 -309 289 -414 140 -133 284 -184 518 -183 119 0 167 6 355 43 30
6 116 19 190 29 168 24 726 126 800 147 148 42 278 132 455 315 136 140 205
235 270 371 100 207 112 389 36 549 -30 64 -142 201 -209 256 -114 93 -227
129 -379 121 -89 -5 -98 -8 -230 -71 -150 -71 -154 -72 -290 -93 -66 -9 -101
-11 -120 -3 -15 6 -60 7 -107 3 -190 -15 -367 38 -586 176 -168 105 -249 134
-470 169 -112 18 -349 43 -375 40 -5 -1 -48 -5 -95 -10z m383 -410 c183 -37
241 -59 427 -156 263 -139 354 -174 492 -188 34 -4 91 -16 125 -27 l61 -20
199 26 c260 33 333 53 478 126 66 33 131 60 145 60 37 0 87 -34 158 -107 60
-63 62 -67 62 -117 0 -102 -67 -242 -161 -337 -60 -60 -199 -176 -264 -220
-150 -102 -439 -170 -845 -199 -85 -6 -196 -20 -247 -31 -128 -27 -287 -42
-361 -36 -147 14 -214 76 -333 310 -98 194 -153 281 -222 354 -65 69 -183 148
-311 207 -54 25 -107 55 -117 67 -56 64 -45 155 27 218 47 41 85 56 219 82
146 28 292 24 468 -12z"/>
<path d="M415 2135 c-40 -39 -33 -76 41 -224 52 -105 79 -147 132 -203 101
-107 200 -148 272 -111 67 34 90 142 50 231 -38 85 -158 192 -315 281 -103 59
-142 65 -180 26z"/>
<path d="M4953 1460 c-18 -11 -33 -24 -33 -30 0 -5 -18 -10 -40 -10 -97 0
-139 -65 -120 -183 30 -193 118 -292 229 -258 70 20 102 92 127 282 17 129 13
157 -23 193 -32 33 -93 35 -140 6z"/>
</g>
</svg>
