<?xml version="1.0" standalone="no"?>
<!DOCTYPE svg PUBLIC "-//W3C//DTD SVG 20010904//EN"
 "http://www.w3.org/TR/2001/REC-SVG-20010904/DTD/svg10.dtd">
<svg version="1.0" xmlns="http://www.w3.org/2000/svg"
 width="600.000000pt" height="600.000000pt" viewBox="0 0 600.000000 600.000000"
 preserveAspectRatio="xMidYMid meet">
<metadata>
Created by potrace 1.15, written by Peter Selinger 2001-2017
</metadata>
<g transform="translate(0.000000,600.000000) scale(0.100000,-0.100000)"
fill="#16364b" stroke="none">
<path d="M1545 5770 c-31 -12 -35 -18 -148 -241 -115 -226 -130 -278 -103
-342 28 -68 104 -93 188 -63 89 32 315 188 432 299 53 50 56 55 56 101 0 41
-5 53 -34 82 -27 27 -42 34 -74 34 -41 0 -63 -13 -162 -98 -27 -24 -50 -41
-50 -38 0 4 14 33 30 66 35 69 37 103 10 147 -32 52 -93 75 -145 53z"/>
<path d="M2374 5431 c-17 -10 -36 -32 -42 -47 -6 -16 -13 -110 -15 -209 -5
-196 -24 -297 -73 -401 -35 -74 -111 -154 -183 -193 -84 -44 -119 -76 -130
-118 -13 -47 -4 -87 27 -118 39 -39 87 -34 195 22 245 125 353 342 388 775 14
184 8 231 -36 275 -39 39 -83 44 -131 14z"/>
<path d="M3507 5340 c-14 -11 -35 -36 -48 -56 -65 -105 42 -330 192 -402 93
-45 194 -20 226 55 21 51 12 106 -32 195 -54 108 -94 152 -179 193 -83 40
-122 44 -159 15z"/>
<path d="M2980 5153 c-56 -20 -138 -101 -169 -168 -29 -60 -33 -154 -9 -200
33 -63 104 -105 176 -105 75 0 198 56 224 102 8 15 12 67 13 148 0 107 -3 131
-21 164 -37 71 -117 93 -214 59z"/>
<path d="M4732 4736 l-37 -35 1 -148 c2 -264 55 -392 188 -461 69 -35 190 -38
251 -5 82 44 119 107 119 208 1 125 -75 244 -223 354 -177 131 -232 147 -299
87z m268 -414 c0 -13 -5 -11 -20 8 -10 14 -21 34 -24 45 -4 16 0 15 20 -8 13
-15 24 -36 24 -45z"/>
<path d="M2730 4237 c-72 -17 -155 -63 -191 -107 -39 -46 -63 -128 -54 -183
28 -168 210 -265 396 -211 112 33 276 150 315 225 32 63 9 159 -50 204 -38 29
-197 72 -291 79 -40 3 -93 0 -125 -7z"/>
<path d="M1063 4081 c-81 -51 -85 -175 -7 -226 14 -9 61 -25 104 -35 82 -20
130 -39 130 -51 0 -26 -160 -86 -305 -115 -48 -9 -101 -27 -118 -38 -98 -65
-82 -210 28 -251 38 -15 53 -16 112 -6 172 30 292 72 396 140 298 196 249 473
-103 570 -41 12 -104 24 -140 27 -54 4 -70 2 -97 -15z"/>
<path d="M4197 3779 c-59 -14 -134 -56 -176 -99 -116 -120 -121 -316 -10 -428
68 -68 118 -87 229 -87 81 0 103 4 145 25 119 58 197 181 215 340 12 109 5
142 -43 188 -58 57 -245 88 -360 61z m71 -301 c-17 -25 -58 -37 -58 -17 0 16
31 38 54 39 17 0 17 -2 4 -22z"/>
<path d="M1705 3734 c-81 -34 -119 -67 -150 -129 -26 -52 -30 -71 -30 -140 0
-67 4 -89 28 -137 55 -113 176 -188 300 -188 79 0 132 24 180 81 122 142 63
411 -108 494 -70 35 -163 42 -220 19z"/>
<path d="M5118 3556 c-74 -26 -106 -47 -160 -103 -70 -72 -100 -183 -78 -290
36 -171 154 -253 321 -223 130 24 223 94 278 210 36 77 37 193 2 262 -25 49
-104 130 -150 154 -40 21 -137 17 -213 -10z m92 -285 c0 -13 -29 -35 -37 -28
-7 8 15 37 28 37 5 0 9 -4 9 -9z"/>
<path d="M2577 3406 c-70 -20 -150 -62 -208 -107 -66 -53 -127 -138 -200 -278
-85 -166 -106 -186 -295 -280 -240 -120 -370 -245 -476 -456 -79 -156 -119
-319 -119 -480 0 -253 89 -436 300 -618 134 -115 215 -171 313 -216 111 -52
205 -72 339 -72 257 0 459 95 701 329 180 175 258 303 333 547 20 66 49 149
63 185 34 86 41 219 17 345 -29 157 -113 473 -150 563 -19 47 -35 102 -35 122
0 38 -51 154 -99 223 -48 70 -122 136 -190 170 -56 27 -76 32 -155 34 -55 1
-110 -3 -139 -11z m130 -384 c6 -4 15 -25 19 -47 4 -22 28 -87 54 -145 60
-134 71 -165 119 -335 66 -236 78 -364 42 -449 -11 -25 -25 -72 -31 -105 -22
-121 -91 -286 -152 -364 -85 -107 -240 -227 -345 -267 -88 -34 -221 -39 -311
-11 -76 23 -204 110 -328 224 -116 106 -155 231 -120 380 44 186 216 411 376
492 160 80 292 179 360 269 21 28 70 107 108 176 86 156 155 216 209 182z"/>
<path d="M3435 3361 c-67 -27 -205 -242 -205 -319 0 -51 37 -98 88 -112 43
-11 121 5 166 35 45 30 95 104 116 173 34 108 22 177 -35 212 -33 21 -93 26
-130 11z"/>
<path d="M354 2276 c-46 -46 -46 -95 2 -235 66 -192 148 -332 259 -443 91 -90
167 -130 261 -136 91 -6 148 18 190 80 26 38 29 49 29 128 0 81 -3 92 -39 163
-25 51 -61 98 -107 146 -70 70 -232 184 -364 256 -38 21 -82 47 -97 57 -43 30
-94 24 -134 -16z m422 -460 c46 -46 84 -91 84 -100 0 -24 -26 -8 -88 56 -62
63 -108 128 -91 128 6 0 49 -38 95 -84z"/>
<path d="M4385 2002 c-16 -11 -36 -26 -43 -35 -12 -14 -17 -13 -49 9 -68 46
-183 24 -232 -45 -29 -41 -36 -104 -22 -218 24 -193 77 -368 129 -427 35 -38
94 -60 160 -60 117 1 174 67 227 264 34 126 65 301 65 365 0 123 -136 207
-235 147z"/>
</g>
</svg>
