<?xml version="1.0" standalone="no"?>
<!DOCTYPE svg PUBLIC "-//W3C//DTD SVG 20010904//EN"
 "http://www.w3.org/TR/2001/REC-SVG-20010904/DTD/svg10.dtd">
<svg version="1.0" xmlns="http://www.w3.org/2000/svg"
 width="600.000000pt" height="600.000000pt" viewBox="0 0 600.000000 600.000000"
 preserveAspectRatio="xMidYMid meet">
<metadata>
Created by potrace 1.15, written by Peter Selinger 2001-2017
</metadata>
<g transform="translate(0.000000,600.000000) scale(0.100000,-0.100000)"
fill="#16364b" stroke="none">
<path d="M2369 5391 c-23 -19 -24 -22 -24 -222 -1 -233 -11 -291 -76 -424 -50
-104 -85 -144 -189 -213 -79 -53 -85 -60 -88 -95 -6 -76 46 -88 139 -31 123
74 214 179 266 307 57 138 65 187 70 428 l5 226 -27 21 c-34 27 -46 27 -76 3z"/>
<path d="M3535 5299 c-25 -12 -55 -63 -55 -92 0 -71 118 -231 195 -263 86 -35
157 -4 157 71 0 77 -115 239 -197 276 -44 21 -70 23 -100 8z"/>
<path d="M3005 5084 c-51 -26 -95 -76 -128 -144 -26 -54 -31 -77 -31 -138 -1
-71 0 -75 32 -103 18 -17 44 -29 59 -29 100 0 243 159 260 289 14 104 -95 175
-192 125z m75 -116 c-1 -49 -109 -193 -117 -156 -3 9 6 39 18 67 28 65 99 129
99 89z"/>
<path d="M4751 4742 c-24 -24 -28 -37 -34 -108 -11 -150 14 -406 48 -488 16
-37 59 -83 87 -92 50 -16 115 21 147 83 21 41 31 158 21 240 -17 132 -90 316
-147 369 -36 34 -86 32 -122 -4z"/>
<path d="M2660 4228 c-41 -11 -67 -32 -86 -70 -63 -122 96 -248 316 -252 158
-2 260 50 260 132 0 69 -32 95 -173 141 -111 36 -227 62 -267 60 -8 0 -31 -5
-50 -11z"/>
<path d="M5228 3977 c-146 -55 -219 -150 -226 -298 -4 -78 -2 -92 23 -147 32
-72 111 -152 182 -184 39 -18 67 -22 143 -22 82 -1 102 3 150 26 155 74 237
257 184 412 -20 58 -86 127 -174 181 -62 38 -69 40 -155 43 -57 1 -103 -3
-127 -11z m148 -307 c26 -10 26 -11 9 -30 -22 -24 -60 -26 -69 -4 -17 43 4 55
60 34z"/>
<path d="M4209 3757 c-106 -30 -216 -150 -239 -262 -28 -133 53 -272 184 -315
60 -19 171 -8 232 23 72 37 106 67 139 129 28 49 30 60 30 158 -1 129 -17 170
-88 217 -80 53 -178 72 -258 50z m91 -282 c0 -21 -48 -51 -62 -37 -7 7 -4 16
11 31 24 24 51 28 51 6z"/>
<path d="M1195 3616 c-189 -60 -267 -211 -204 -398 49 -145 154 -236 316 -274
89 -20 112 -34 168 -96 91 -102 176 -315 209 -528 50 -315 70 -414 113 -560
81 -269 211 -449 387 -535 172 -84 229 -88 1221 -88 647 -1 645 -1 913 64 196
48 385 129 503 216 163 121 312 342 364 539 78 301 8 534 -232 770 -163 161
-341 231 -520 204 -156 -24 -260 -72 -458 -214 -119 -85 -274 -172 -355 -201
-23 -8 -88 -22 -144 -31 -177 -29 -302 -7 -487 87 -242 121 -465 271 -637 428
-201 183 -429 381 -505 439 -183 139 -501 226 -652 178z m243 -311 c171 -57
268 -125 497 -345 319 -306 330 -315 510 -435 216 -144 449 -266 595 -313 184
-59 393 -72 552 -33 187 44 292 99 554 287 169 121 230 148 344 148 65 0 96
-5 130 -20 102 -47 242 -215 276 -332 35 -120 7 -268 -77 -408 -120 -199 -411
-355 -779 -419 -146 -25 -221 -26 -705 -16 -770 18 -914 30 -1033 90 -153 77
-244 266 -301 623 -12 73 -31 189 -42 258 -46 285 -184 579 -341 726 -74 68
-155 114 -250 138 -38 10 -79 29 -93 42 -59 55 14 59 163 9z"/>
<path d="M2237 2352 c-10 -10 -17 -28 -17 -39 0 -23 52 -73 76 -73 47 0 75 98
35 120 -30 16 -76 12 -94 -8z"/>
<path d="M2836 2054 c-9 -8 -16 -29 -16 -45 0 -22 8 -34 33 -49 41 -25 52 -25
77 2 25 27 26 70 2 91 -23 21 -76 22 -96 1z"/>
<path d="M3418 3338 c-47 -51 -148 -246 -148 -286 0 -52 59 -83 108 -58 58 30
170 208 187 297 9 49 -23 89 -72 89 -29 0 -43 -8 -75 -42z"/>
<path d="M445 2016 c-25 -37 -10 -67 74 -148 119 -115 224 -155 285 -107 39
31 34 65 -17 113 -49 47 -267 166 -303 166 -14 0 -30 -10 -39 -24z"/>
<path d="M5340 1117 c-31 -15 -67 -84 -76 -144 -17 -117 65 -195 156 -148 47
25 70 81 70 174 0 76 -1 80 -31 105 -34 29 -78 34 -119 13z"/>
</g>
</svg>
