<?xml version="1.0" standalone="no"?>
<!DOCTYPE svg PUBLIC "-//W3C//DTD SVG 20010904//EN"
 "http://www.w3.org/TR/2001/REC-SVG-20010904/DTD/svg10.dtd">
<svg version="1.0" xmlns="http://www.w3.org/2000/svg"
 width="600.000000pt" height="600.000000pt" viewBox="0 0 600.000000 600.000000"
 preserveAspectRatio="xMidYMid meet">
<metadata>
Created by potrace 1.15, written by Peter Selinger 2001-2017
</metadata>
<g transform="translate(0.000000,600.000000) scale(0.100000,-0.100000)"
fill="#16364b" stroke="none">
<path d="M2262 5820 c-18 -11 -77 -56 -130 -99 -53 -43 -187 -145 -297 -227
-216 -160 -347 -282 -382 -355 -34 -69 -32 -144 7 -197 46 -64 97 -85 212 -90
180 -8 330 27 633 146 99 39 204 79 233 89 66 22 108 63 123 116 21 80 -37
163 -127 182 -33 6 -61 -2 -353 -104 -80 -28 -147 -48 -150 -46 -2 3 -2 6 0 8
2 2 63 48 134 104 72 55 167 128 213 162 106 80 124 108 120 182 -5 65 -31
109 -82 133 -47 22 -114 20 -154 -4z"/>
<path d="M3080 5662 c-71 -39 -100 -140 -61 -212 26 -49 68 -70 159 -81 258
-32 377 -148 342 -336 -32 -170 -109 -259 -308 -358 -107 -53 -132 -82 -132
-157 0 -79 74 -145 151 -135 52 7 214 86 304 148 135 93 212 194 262 344 24
71 27 96 27 220 l1 140 -38 80 c-48 100 -91 153 -173 211 -109 78 -268 132
-434 149 -53 5 -71 3 -100 -13z"/>
<path d="M999 5316 c-67 -24 -164 -90 -229 -155 -100 -101 -150 -222 -150
-359 1 -133 44 -227 155 -337 99 -99 174 -140 240 -132 155 17 197 192 68 279
-77 52 -139 122 -153 172 -23 85 10 143 125 215 35 22 76 57 92 77 24 33 28
46 28 105 0 58 -3 71 -25 94 -25 27 -78 55 -102 55 -7 -1 -29 -7 -49 -14z"/>
<path d="M2644 4945 c-27 -13 -74 -49 -104 -79 -153 -153 -212 -372 -141 -521
70 -149 260 -285 420 -301 66 -7 103 7 144 55 73 87 22 221 -95 251 -125 31
-193 77 -204 135 -9 48 26 116 83 163 112 91 123 106 123 159 0 64 -30 110
-90 141 -56 28 -75 28 -136 -3z"/>
<path d="M4795 4960 c-17 -5 -50 -30 -74 -54 -39 -40 -45 -52 -48 -98 -6 -65
19 -224 49 -315 59 -180 189 -284 339 -270 186 17 308 227 239 411 -40 105
-178 221 -355 298 -74 32 -111 39 -150 28z"/>
<path d="M1836 4419 c-113 -18 -273 -135 -319 -231 -46 -96 3 -206 100 -224
56 -11 103 10 168 75 43 42 73 62 104 71 39 10 48 9 108 -19 106 -50 178 -37
237 42 30 41 29 130 -2 174 -30 42 -145 97 -233 112 -73 12 -92 12 -163 0z"/>
<path d="M2587 3810 c-137 -16 -200 -74 -201 -183 0 -57 24 -94 78 -121 34
-17 45 -17 106 -7 74 12 218 15 244 5 9 -3 16 -17 16 -29 0 -76 -239 -411
-432 -605 -96 -97 -115 -135 -99 -197 17 -63 83 -113 149 -113 49 1 106 36
203 128 124 118 219 231 314 373 171 255 220 435 157 579 -20 48 -70 103 -112
125 -79 41 -275 62 -423 45z"/>
<path d="M4195 3774 c-188 -40 -291 -144 -302 -304 -9 -123 52 -227 169 -291
60 -33 67 -34 168 -34 100 0 108 2 167 34 117 63 194 166 274 368 24 60 29 85
24 116 -9 50 -56 104 -103 117 -55 15 -315 11 -397 -6z m95 -293 c0 -15 -42
-41 -67 -41 -29 0 -29 13 0 28 45 22 67 26 67 13z"/>
<path d="M1204 3740 c-95 -14 -289 -90 -353 -137 -65 -50 -88 -149 -52 -229
39 -85 146 -137 233 -113 22 5 42 9 44 7 2 -2 -38 -87 -87 -188 -194 -395
-254 -546 -278 -695 -19 -123 31 -230 124 -265 45 -17 136 -16 171 3 17 9 92
82 166 164 75 81 155 166 179 188 24 21 125 118 224 214 147 142 181 170 183
153 4 -29 -33 -233 -68 -373 -26 -102 -156 -495 -220 -663 -47 -123 7 -230
122 -243 81 -9 132 33 174 142 43 114 132 379 174 521 44 147 120 448 120 475
0 10 6 38 14 61 29 86 24 268 -9 369 -45 134 -176 195 -301 139 -64 -28 -112
-68 -292 -244 l-152 -150 74 155 c103 211 137 316 137 423 1 62 -4 94 -18 128
-55 122 -166 179 -309 158z"/>
<path d="M3494 3386 c-107 -47 -178 -172 -205 -363 -11 -79 -10 -85 12 -130
42 -85 125 -110 261 -82 128 27 230 100 276 198 44 96 19 229 -60 311 -70 71
-202 102 -284 66z"/>
<path d="M4825 2741 c-62 -28 -228 -251 -275 -368 -7 -18 -14 -33 -17 -33 -2
0 -21 13 -41 29 -127 101 -334 31 -371 -125 -10 -43 -9 -61 13 -153 14 -58 24
-106 22 -109 -2 -2 -40 8 -84 22 -235 74 -378 56 -480 -60 -55 -61 -81 -135
-93 -260 -17 -180 27 -518 79 -604 40 -66 115 -103 197 -97 34 2 75 12 93 21
47 24 102 83 125 135 22 49 20 101 -7 289 -7 51 -10 94 -7 97 4 2 45 -15 91
-37 98 -47 145 -52 255 -24 145 37 262 120 302 213 32 79 35 191 7 340 l-6 31
44 -15 c156 -54 369 111 433 336 21 73 27 142 16 191 -8 37 -22 56 -78 108
-101 94 -142 108 -218 73z"/>
<path d="M2915 2401 c-105 -17 -354 -114 -510 -199 -89 -49 -126 -98 -133
-175 l-4 -54 -60 -7 c-107 -11 -231 -84 -269 -158 -27 -54 -27 -133 1 -188 26
-51 94 -96 160 -105 45 -6 49 -9 55 -38 4 -18 18 -68 31 -113 13 -44 24 -83
24 -87 0 -3 -22 -16 -50 -28 -58 -25 -133 -101 -161 -163 -29 -67 -42 -181
-29 -262 14 -89 43 -150 117 -249 116 -155 206 -227 393 -311 155 -70 224 -88
340 -88 108 1 180 20 317 87 100 48 136 82 153 142 24 85 -14 187 -89 240 -35
25 -52 30 -99 30 -49 0 -68 -6 -137 -46 -44 -26 -98 -52 -119 -59 -57 -18
-133 -7 -217 34 -95 45 -167 105 -230 191 -82 113 -58 143 40 50 90 -85 170
-107 250 -66 45 23 108 91 127 137 18 42 18 115 0 157 -13 32 -24 43 -114 122
-56 49 -113 166 -153 315 -17 63 -42 150 -55 192 -13 42 -24 79 -24 81 0 3 17
8 37 12 20 3 71 24 113 45 101 51 310 139 349 146 l30 6 -18 -63 c-36 -122
-81 -224 -182 -409 -46 -86 -50 -99 -45 -140 22 -161 210 -223 321 -106 96
102 266 483 306 687 38 194 -39 357 -197 418 -63 24 -191 34 -269 22z"/>
</g>
</svg>
