<?xml version="1.0" standalone="no"?>
<!DOCTYPE svg PUBLIC "-//W3C//DTD SVG 20010904//EN"
 "http://www.w3.org/TR/2001/REC-SVG-20010904/DTD/svg10.dtd">
<svg version="1.0" xmlns="http://www.w3.org/2000/svg"
 width="600.000000pt" height="600.000000pt" viewBox="0 0 600.000000 600.000000"
 preserveAspectRatio="xMidYMid meet">
<metadata>
Created by potrace 1.15, written by Peter Selinger 2001-2017
</metadata>
<g transform="translate(0.000000,600.000000) scale(0.100000,-0.100000)"
fill="#16364b" stroke="none">
<path d="M1815 5801 c-24 -15 -56 -73 -172 -314 -78 -162 -149 -321 -159 -353
-45 -156 38 -269 197 -268 56 0 79 6 153 42 48 23 120 63 159 89 87 58 332
294 358 345 23 45 25 118 4 158 -25 48 -62 70 -119 70 -60 0 -75 -9 -186 -108
-45 -41 -84 -72 -86 -69 -3 2 19 53 48 113 60 127 66 177 29 238 -44 70 -158
99 -226 57z"/>
<path d="M3003 5681 c-41 -26 -63 -69 -63 -121 0 -59 23 -92 102 -141 270
-171 432 -322 527 -490 30 -54 41 -112 22 -123 -5 -3 -39 -10 -76 -15 -71 -10
-104 -31 -131 -83 -43 -83 18 -196 114 -213 54 -9 166 11 230 42 118 56 175
146 175 278 0 68 -5 92 -33 158 -100 239 -298 450 -613 650 -98 62 -119 71
-167 75 -42 2 -62 -2 -87 -17z"/>
<path d="M947 5428 c-122 -16 -249 -104 -302 -208 -58 -113 -73 -290 -36 -409
34 -109 110 -205 200 -251 111 -56 241 10 241 124 0 61 -17 92 -80 145 -64 54
-84 97 -75 160 10 64 55 107 121 116 67 9 97 22 127 53 74 77 59 204 -28 253
-38 21 -95 27 -168 17z"/>
<path d="M2930 5151 c-51 -16 -87 -41 -129 -86 -90 -98 -123 -234 -81 -333 54
-126 189 -176 366 -137 67 15 84 23 116 56 48 51 53 88 29 226 -23 140 -56
204 -125 247 -50 31 -127 43 -176 27z"/>
<path d="M4775 4874 c-84 -44 -99 -79 -92 -219 10 -193 69 -348 172 -452 62
-62 127 -93 195 -93 82 0 173 53 221 128 124 195 -10 466 -303 613 -86 43
-142 50 -193 23z"/>
<path d="M2018 4800 c-174 -31 -265 -114 -236 -217 13 -48 64 -98 113 -112 55
-15 67 -14 126 10 65 25 74 18 90 -66 18 -102 71 -155 154 -155 147 0 198 169
108 357 -65 139 -204 210 -355 183z"/>
<path d="M2865 4026 c-85 -27 -136 -67 -170 -135 -38 -74 1 -185 95 -275 105
-101 187 -126 400 -126 160 1 273 16 314 43 34 23 66 74 66 107 1 14 7 36 15
50 18 32 19 113 1 148 -30 57 -79 87 -215 133 -180 61 -408 86 -506 55z"/>
<path d="M1120 4023 c-163 -25 -162 -25 -201 -60 -45 -41 -63 -88 -57 -153 6
-62 35 -116 82 -154 30 -25 48 -31 101 -34 36 -2 65 -6 65 -9 0 -7 -136 -204
-250 -363 -106 -146 -198 -311 -264 -473 -57 -139 -46 -228 37 -288 33 -24 50
-29 95 -29 69 0 134 30 165 75 29 43 220 191 432 334 94 63 218 150 277 193
59 43 110 78 114 78 4 0 4 -32 0 -72 -11 -122 -69 -272 -216 -563 -153 -304
-214 -409 -299 -522 -35 -47 -62 -94 -66 -115 -20 -106 96 -207 204 -178 45
12 78 43 134 124 36 54 177 293 177 301 0 2 15 30 34 62 154 268 261 524 317
758 26 111 32 333 10 408 -18 62 -79 131 -136 153 -56 21 -132 15 -202 -16
-53 -23 -168 -100 -252 -167 -29 -24 -55 -42 -57 -40 -2 2 47 80 110 174 118
177 143 230 153 325 11 109 -62 208 -180 243 -47 14 -257 19 -327 8z"/>
<path d="M4204 3786 c-179 -41 -295 -177 -296 -347 0 -75 16 -120 61 -172 151
-172 452 -129 594 86 39 59 97 213 97 259 0 45 -29 97 -69 124 -74 48 -278 75
-387 50z m61 -316 c-19 -21 -55 -27 -55 -10 0 12 31 29 54 30 18 0 18 -1 1
-20z"/>
<path d="M3412 3393 c-54 -19 -121 -87 -171 -173 -53 -90 -75 -153 -66 -187
22 -91 89 -133 209 -133 94 0 129 15 186 77 48 51 63 84 80 170 16 78 7 139
-28 192 -44 69 -116 87 -210 54z"/>
<path d="M4985 3096 c-51 -22 -182 -132 -223 -188 -67 -90 -85 -134 -89 -223
-4 -69 -1 -86 19 -125 30 -58 94 -106 160 -119 141 -29 330 86 389 237 27 70
30 185 6 250 -21 55 -97 142 -145 164 -44 21 -76 22 -117 4z"/>
<path d="M3905 2627 c-80 -31 -127 -87 -146 -171 -11 -50 -9 -62 31 -210 24
-86 41 -159 38 -161 -3 -3 -20 3 -39 12 -46 24 -181 25 -225 1 -49 -27 -114
-98 -147 -163 -30 -56 -32 -66 -32 -170 0 -122 19 -209 94 -425 74 -215 100
-256 186 -296 127 -59 279 -3 332 123 17 43 17 125 -2 170 -8 20 -14 38 -12
40 2 2 20 -4 40 -12 104 -43 277 14 349 114 41 58 51 104 46 205 -5 77 -15
122 -73 295 -36 113 -86 277 -110 364 -27 98 -54 173 -69 196 -59 84 -173 122
-261 88z"/>
<path d="M1953 2224 c-92 -45 -188 -158 -255 -300 -27 -58 -30 -72 -24 -125 7
-57 6 -61 -29 -106 -51 -67 -111 -194 -137 -288 -17 -66 -21 -110 -22 -250 -1
-150 2 -179 22 -248 74 -248 182 -381 397 -489 256 -129 477 -174 652 -133
170 40 374 179 469 320 27 39 34 60 34 97 0 33 9 64 28 100 94 177 197 450
253 674 52 210 34 339 -61 434 -23 23 -67 54 -99 68 -48 23 -69 27 -151 26
-77 0 -110 -5 -175 -28 -90 -31 -224 -94 -332 -155 -40 -23 -76 -41 -81 -41
-5 0 -17 39 -27 87 -40 202 -113 320 -229 368 -58 25 -171 19 -233 -11z m141
-669 c41 -212 65 -271 129 -319 41 -31 141 -34 195 -7 38 19 92 82 92 106 0
17 432 274 461 275 15 0 15 -7 2 -77 -28 -151 -117 -378 -208 -535 -26 -44
-38 -78 -41 -111 -4 -59 -33 -101 -100 -146 -109 -71 -231 -95 -355 -67 -157
35 -325 163 -369 281 -64 173 -20 415 99 545 53 58 67 107 51 177 -6 29 -8 58
-4 65 9 14 10 10 48 -187z"/>
</g>
</svg>
