<?xml version="1.0" standalone="no"?>
<!DOCTYPE svg PUBLIC "-//W3C//DTD SVG 20010904//EN"
 "http://www.w3.org/TR/2001/REC-SVG-20010904/DTD/svg10.dtd">
<svg version="1.0" xmlns="http://www.w3.org/2000/svg"
 width="600.000000pt" height="600.000000pt" viewBox="0 0 600.000000 600.000000"
 preserveAspectRatio="xMidYMid meet">
<metadata>
Created by potrace 1.15, written by Peter Selinger 2001-2017
</metadata>
<g transform="translate(0.000000,600.000000) scale(0.100000,-0.100000)"
fill="#16364b" stroke="none">
<path d="M2384 5392 c-27 -18 -34 -52 -28 -139 8 -106 -9 -270 -37 -373 -49
-177 -123 -279 -258 -355 -82 -47 -104 -80 -80 -124 23 -41 67 -40 144 4 161
90 257 228 324 468 44 156 50 468 9 509 -18 18 -54 24 -74 10z"/>
<path d="M3534 5289 c-26 -13 -54 -60 -54 -91 0 -40 57 -145 103 -192 102
-101 207 -115 242 -32 18 42 7 90 -36 162 -81 132 -177 190 -255 153z"/>
<path d="M3015 5082 c-70 -43 -124 -131 -147 -242 -33 -163 81 -221 209 -105
94 84 147 230 109 303 -9 17 -26 38 -38 46 -30 21 -96 20 -133 -2z m75 -119
c0 -29 -39 -98 -75 -133 l-35 -34 0 26 c0 35 24 89 56 127 28 34 54 41 54 14z"/>
<path d="M4743 4734 l-26 -26 6 -216 c6 -231 20 -325 58 -391 53 -94 160 -87
213 15 18 34 21 56 20 174 0 121 -3 144 -28 215 -33 98 -88 202 -122 233 -35
31 -87 30 -121 -4z"/>
<path d="M2635 4208 c-90 -53 -79 -167 23 -236 149 -101 408 -94 473 12 10 17
19 41 19 54 0 33 -25 76 -52 89 -30 14 -210 70 -268 82 -60 14 -170 13 -195
-1z"/>
<path d="M5233 3969 c-63 -24 -144 -95 -181 -158 -24 -40 -27 -56 -27 -131 0
-71 4 -94 27 -142 32 -70 97 -136 163 -168 86 -42 227 -39 319 7 47 24 116 94
144 148 23 43 27 62 27 140 0 67 -5 98 -18 122 -29 55 -78 103 -151 152 -70
45 -72 46 -161 48 -71 2 -101 -1 -142 -18z m144 -271 c39 -17 38 -16 18 -38
-25 -27 -49 -25 -65 6 -12 22 -12 27 0 34 19 12 14 12 47 -2z"/>
<path d="M4217 3749 c-127 -30 -238 -143 -272 -278 -25 -97 1 -179 78 -247
117 -103 304 -98 425 11 92 83 126 198 99 337 -15 73 -21 87 -52 114 -40 36
-148 74 -203 73 -20 -1 -54 -5 -75 -10z m53 -280 c0 -23 -22 -49 -40 -49 -24
0 -26 17 -3 42 18 20 43 24 43 7z"/>
<path d="M1303 3669 c-111 -19 -235 -105 -278 -194 -26 -55 -31 -152 -12 -210
41 -118 155 -213 319 -265 86 -28 101 -36 143 -81 56 -59 96 -145 129 -271 37
-142 115 -538 132 -673 20 -151 46 -264 84 -363 70 -182 208 -325 377 -392 32
-13 87 -37 123 -54 l65 -31 341 -2 c336 -2 341 -2 395 -26 83 -36 101 -39 142
-18 33 17 62 19 245 19 239 0 561 24 711 53 202 39 414 123 565 223 146 97
313 291 366 425 45 115 64 358 39 510 -24 152 -107 310 -224 426 -90 90 -167
134 -293 166 -90 23 -154 24 -255 5 -143 -28 -255 -87 -442 -232 -133 -103
-291 -172 -460 -199 -275 -45 -507 25 -811 242 -212 152 -271 207 -567 526
-177 191 -354 307 -579 381 -118 39 -181 47 -255 35z m206 -344 c210 -78 297
-146 538 -415 176 -196 278 -292 403 -376 257 -175 460 -272 679 -329 113 -28
273 -47 351 -40 283 26 480 111 717 311 153 128 285 169 420 129 70 -21 133
-73 188 -155 71 -106 89 -165 89 -290 0 -163 -45 -295 -141 -415 -115 -143
-389 -262 -692 -300 -277 -34 -552 -43 -818 -25 -81 6 -294 11 -473 13 -325 3
-325 3 -405 31 -200 69 -277 197 -319 531 -18 135 -130 603 -186 775 -47 145
-112 268 -180 343 -86 93 -145 128 -292 172 -66 20 -112 60 -88 76 24 16 108
2 209 -36z"/>
<path d="M2257 2382 c-10 -10 -17 -26 -17 -36 0 -25 45 -66 74 -66 28 0 56 33
56 66 0 48 -79 73 -113 36z"/>
<path d="M2862 2064 c-33 -23 -29 -66 9 -98 49 -42 99 -16 99 50 0 36 -29 64
-65 64 -11 0 -31 -7 -43 -16z"/>
<path d="M3434 3345 c-29 -29 -154 -286 -154 -316 0 -70 67 -82 122 -21 68 75
148 232 148 290 0 30 -38 72 -66 72 -14 0 -36 -11 -50 -25z"/>
<path d="M467 2012 c-33 -37 -22 -64 61 -143 125 -118 222 -160 275 -119 68
54 5 138 -170 228 -109 56 -141 62 -166 34z"/>
<path d="M5350 1092 c-32 -33 -60 -115 -60 -179 0 -76 66 -120 133 -89 86 41
127 248 57 286 -10 6 -37 10 -60 10 -32 0 -48 -6 -70 -28z"/>
</g>
</svg>
