<?xml version="1.0" standalone="no"?>
<!DOCTYPE svg PUBLIC "-//W3C//DTD SVG 20010904//EN"
 "http://www.w3.org/TR/2001/REC-SVG-20010904/DTD/svg10.dtd">
<svg version="1.0" xmlns="http://www.w3.org/2000/svg"
 width="600.000000pt" height="600.000000pt" viewBox="0 0 600.000000 600.000000"
 preserveAspectRatio="xMidYMid meet">
<metadata>
Created by potrace 1.15, written by Peter Selinger 2001-2017
</metadata>
<g transform="translate(0.000000,600.000000) scale(0.100000,-0.100000)"
fill="#16364b" stroke="none">
<path d="M2391 5402 c-26 -25 -28 -36 -35 -130 -13 -186 -64 -416 -120 -538
-42 -90 -91 -144 -178 -196 -38 -22 -75 -50 -83 -62 -44 -61 9 -135 90 -126
36 4 159 82 211 135 89 89 171 260 221 463 23 93 27 129 27 270 l1 164 -28 24
c-37 32 -72 31 -106 -4z"/>
<path d="M3522 5305 c-61 -44 -67 -122 -17 -223 57 -113 157 -192 245 -192 34
0 48 6 76 34 27 27 34 42 34 73 0 82 -113 253 -192 291 -62 31 -118 37 -146
17z"/>
<path d="M3026 5126 c-90 -34 -167 -155 -174 -276 -4 -78 17 -124 69 -152 45
-24 84 -23 144 7 99 47 141 111 152 230 13 145 -75 234 -191 191z m35 -208
c-11 -32 -51 -70 -51 -48 0 16 31 74 44 82 17 11 19 2 7 -34z"/>
<path d="M4753 4760 c-52 -31 -58 -52 -57 -190 1 -277 83 -472 209 -500 77
-17 148 26 185 112 20 46 22 64 18 148 -4 79 -10 107 -36 163 -55 121 -163
253 -225 276 -40 15 -57 14 -94 -9z"/>
<path d="M2662 4222 c-87 -31 -132 -90 -132 -171 0 -128 130 -217 316 -216 85
1 97 4 166 38 115 57 167 122 152 190 -11 52 -33 75 -92 97 -208 78 -318 95
-410 62z"/>
<path d="M1116 4124 c-23 -23 -32 -49 -27 -77 1 -5 -8 -21 -19 -37 -53 -75 13
-246 114 -294 70 -33 173 -11 230 50 33 36 57 114 49 157 -15 79 -74 143 -178
193 -86 42 -132 44 -169 8z"/>
<path d="M5177 3896 c-89 -32 -153 -102 -182 -200 -48 -160 38 -348 190 -418
74 -34 180 -32 260 5 172 80 260 279 186 424 -32 64 -138 156 -218 189 -42 18
-186 17 -236 0z m170 -294 c10 -6 9 -13 -3 -30 -26 -38 -64 -24 -64 24 0 15
46 19 67 6z"/>
<path d="M4215 3767 c-109 -29 -196 -101 -241 -200 -68 -150 -12 -307 135
-379 65 -32 185 -32 255 0 142 65 216 195 216 378 0 77 -17 124 -56 151 -72
50 -217 73 -309 50z m65 -280 c0 -30 -53 -67 -65 -47 -7 11 38 60 55 60 5 0
10 -6 10 -13z"/>
<path d="M3434 3361 c-61 -37 -196 -274 -186 -326 11 -59 96 -84 158 -46 88
54 177 200 178 292 1 44 -3 54 -27 75 -34 29 -80 31 -123 5z"/>
<path d="M1375 3233 c-349 -29 -510 -122 -585 -339 -26 -74 -36 -201 -21 -276
34 -182 180 -316 401 -368 201 -48 218 -56 300 -139 62 -62 86 -98 136 -196
34 -66 81 -176 104 -245 110 -329 217 -453 456 -530 143 -46 294 -64 449 -55
72 5 146 8 165 8 309 2 878 40 1060 72 257 45 584 171 727 279 205 155 344
410 374 684 19 178 -14 316 -115 471 -176 272 -385 384 -649 351 -150 -19
-276 -67 -547 -210 -158 -83 -209 -97 -376 -105 -254 -12 -343 26 -767 324
-278 195 -440 249 -821 271 -174 10 -208 10 -291 3z m478 -408 c116 -17 228
-53 296 -95 28 -17 114 -83 193 -146 287 -232 471 -313 807 -357 120 -15 185
-10 341 29 108 26 223 77 435 194 250 137 369 133 534 -17 78 -70 96 -116 96
-243 0 -73 -5 -110 -23 -161 -39 -113 -82 -164 -217 -256 -327 -222 -540 -272
-1190 -280 -198 -2 -440 -7 -539 -10 -204 -7 -285 4 -360 45 -57 31 -109 101
-143 190 -12 31 -48 125 -79 207 -136 363 -253 518 -471 628 -51 26 -140 53
-258 77 -44 9 -68 21 -92 45 -79 79 -7 144 177 158 129 10 403 6 493 -8z"/>
<path d="M434 2086 c-35 -29 -38 -84 -8 -118 12 -13 33 -45 49 -73 43 -76 139
-171 208 -205 78 -39 119 -39 158 -1 25 26 29 37 29 86 0 73 -23 117 -100 189
-68 63 -227 146 -279 146 -17 0 -42 -10 -57 -24z"/>
<path d="M5190 1293 c-8 -3 -25 -15 -38 -26 -13 -12 -37 -26 -55 -32 -17 -5
-42 -26 -55 -45 -20 -29 -23 -45 -20 -91 8 -116 78 -196 162 -185 82 10 123
70 138 202 11 90 4 127 -32 159 -19 17 -76 28 -100 18z"/>
</g>
</svg>
