<?xml version="1.0" standalone="no"?>
<!DOCTYPE svg PUBLIC "-//W3C//DTD SVG 20010904//EN"
 "http://www.w3.org/TR/2001/REC-SVG-20010904/DTD/svg10.dtd">
<svg version="1.0" xmlns="http://www.w3.org/2000/svg"
 width="600.000000pt" height="600.000000pt" viewBox="0 0 600.000000 600.000000"
 preserveAspectRatio="xMidYMid meet">
<metadata>
Created by potrace 1.15, written by Peter Selinger 2001-2017
</metadata>
<g transform="translate(0.000000,600.000000) scale(0.100000,-0.100000)"
fill="#16364b" stroke="none">
<path d="M3100 5647 c-64 -32 -91 -139 -51 -201 23 -35 105 -107 244 -215 144
-111 213 -176 243 -227 23 -40 24 -45 10 -71 -29 -57 -101 -109 -286 -207
-118 -63 -150 -75 -150 -58 0 16 -68 52 -98 52 -70 0 -229 -85 -306 -164 -27
-28 -63 -79 -79 -114 -25 -54 -29 -72 -25 -127 3 -53 9 -71 34 -102 61 -75
206 -127 293 -103 109 29 126 168 30 243 l-31 24 35 22 c43 26 49 26 73 0 29
-32 68 -49 113 -49 31 0 80 21 218 93 284 148 382 226 444 353 30 60 33 76 33
153 1 80 -2 92 -38 166 -47 98 -127 180 -301 309 -66 49 -154 117 -195 151
-42 34 -85 67 -97 73 -28 16 -82 15 -113 -1z"/>
<path d="M1885 5466 c-41 -18 -95 -81 -95 -111 0 -16 -38 -72 -110 -162 -138
-172 -191 -270 -198 -363 -2 -38 1 -82 7 -102 18 -54 74 -112 133 -139 71 -32
217 -32 368 0 280 59 319 73 350 124 43 70 17 163 -59 214 -42 29 -87 29 -212
4 -120 -25 -199 -36 -199 -26 0 4 36 50 81 103 44 54 97 124 117 157 34 55 37
66 37 135 0 63 -4 80 -24 109 -43 60 -131 86 -196 57z"/>
<path d="M1115 5348 c-152 -56 -300 -209 -356 -370 -31 -87 -38 -257 -14 -348
38 -148 131 -278 214 -300 114 -30 221 43 208 142 -3 24 -22 61 -51 101 -59
78 -81 149 -73 234 11 110 56 175 168 242 93 54 112 79 117 151 2 42 -2 62
-17 88 -41 64 -118 88 -196 60z"/>
<path d="M4634 4751 c-73 -33 -97 -141 -47 -210 19 -26 19 -26 -4 -60 -28 -42
-30 -103 -5 -151 30 -55 123 -125 203 -150 198 -64 410 56 409 232 -1 106 -58
177 -201 248 -78 40 -272 110 -300 110 -8 0 -32 -9 -55 -19z"/>
<path d="M1889 4305 c-43 -8 -101 -24 -130 -35 -126 -50 -259 -142 -291 -202
-43 -80 -1 -190 86 -223 68 -26 103 -15 182 57 37 33 92 72 122 86 54 24 74
26 194 21 45 -3 63 1 85 17 116 86 89 243 -46 273 -85 19 -126 20 -202 6z"/>
<path d="M2610 3785 c-41 -7 -120 -28 -174 -46 -83 -28 -105 -40 -128 -70 -37
-45 -49 -130 -25 -175 41 -79 103 -99 197 -65 67 25 181 51 223 51 32 0 35
-16 11 -87 -35 -106 -232 -456 -367 -652 -16 -24 -33 -60 -38 -80 -34 -151
142 -250 248 -139 63 66 295 432 363 572 98 201 123 280 124 391 1 72 -3 99
-20 135 -42 88 -127 148 -239 169 -69 13 -77 13 -175 -4z"/>
<path d="M4079 3732 c-76 -28 -137 -73 -177 -130 -35 -51 -37 -59 -37 -131 0
-92 18 -135 87 -204 56 -56 129 -92 211 -105 149 -23 290 56 365 207 37 75 41
125 13 185 -11 23 -22 54 -26 70 -11 52 -62 91 -142 110 -93 21 -233 20 -294
-2z"/>
<path d="M1116 3625 c-62 -17 -250 -108 -294 -141 -79 -61 -96 -186 -35 -261
44 -55 88 -77 148 -77 28 1 61 7 74 13 30 17 34 11 17 -30 -16 -39 -165 -507
-208 -654 -35 -122 -61 -275 -52 -312 12 -53 51 -108 95 -132 58 -33 171 -41
220 -16 54 28 186 162 404 410 111 127 224 255 253 285 l51 55 1 -62 c0 -109
-60 -376 -160 -711 -88 -290 -100 -392 -55 -468 32 -54 99 -89 153 -80 78 12
126 74 137 173 15 153 69 377 170 713 71 237 79 285 80 470 0 185 -12 245 -65
318 -61 85 -182 112 -282 63 -69 -33 -181 -133 -329 -295 -73 -80 -134 -144
-136 -143 -3 4 45 128 92 237 59 136 104 265 114 331 20 120 -26 226 -123 290
-46 30 -59 33 -136 36 -51 1 -105 -3 -134 -12z"/>
<path d="M3577 3310 c-137 -34 -244 -159 -278 -327 -16 -76 -3 -127 42 -172
53 -53 119 -60 199 -21 19 9 63 20 96 23 75 8 158 38 212 76 45 33 92 118 92
166 0 49 -28 119 -65 162 -61 71 -204 116 -298 93z"/>
<path d="M4755 2921 c-81 -36 -155 -152 -155 -242 0 -131 99 -303 202 -352 78
-37 172 -7 216 68 19 34 22 50 19 106 -5 82 -31 137 -79 168 l-37 24 16 31
c38 74 5 171 -67 200 -51 20 -66 20 -115 -3z"/>
<path d="M2938 2550 c-31 -5 -92 -21 -135 -35 -94 -32 -398 -194 -440 -235
-46 -45 -66 -95 -60 -148 5 -50 26 -82 81 -126 30 -25 48 -31 99 -34 61 -4 68
-2 193 61 133 66 300 134 309 125 13 -13 -71 -228 -159 -407 -65 -133 -70
-169 -30 -250 47 -93 144 -133 239 -97 62 24 94 65 168 218 164 336 221 587
165 735 -28 75 -103 151 -175 176 -61 22 -176 29 -255 17z"/>
<path d="M4380 2338 c-30 -16 -55 -41 -75 -73 -30 -48 -30 -50 -29 -187 1 -76
0 -138 -2 -138 -2 0 -38 14 -81 31 -182 74 -316 88 -409 45 -98 -46 -169 -130
-204 -244 -24 -78 -26 -206 -6 -457 15 -194 27 -229 97 -288 89 -77 217 -71
294 14 65 72 68 88 60 311 -4 109 -5 198 -2 198 3 0 54 -20 111 -45 113 -48
136 -51 251 -35 189 27 311 159 334 359 9 86 1 242 -19 338 -23 107 -106 182
-212 190 -53 4 -70 1 -108 -19z"/>
<path d="M2093 1871 c-63 -30 -98 -88 -98 -166 0 -53 5 -70 34 -116 23 -36 42
-88 58 -159 70 -293 84 -347 111 -403 42 -90 98 -155 204 -236 51 -39 118 -92
148 -117 56 -45 333 -189 423 -219 135 -43 246 -36 373 24 92 44 151 92 170
138 42 99 -20 224 -124 253 -60 16 -85 12 -170 -31 -100 -50 -114 -49 -261 24
l-105 52 -70 140 c-56 114 -81 151 -130 201 -39 38 -76 66 -101 74 -22 7 -43
15 -47 19 -4 3 -20 69 -37 146 -33 160 -59 236 -101 293 -63 87 -189 125 -277
83z"/>
</g>
</svg>
