<?xml version="1.0" standalone="no"?>
<!DOCTYPE svg PUBLIC "-//W3C//DTD SVG 20010904//EN"
 "http://www.w3.org/TR/2001/REC-SVG-20010904/DTD/svg10.dtd">
<svg version="1.0" xmlns="http://www.w3.org/2000/svg"
 width="600.000000pt" height="600.000000pt" viewBox="0 0 600.000000 600.000000"
 preserveAspectRatio="xMidYMid meet">
<metadata>
Created by potrace 1.15, written by Peter Selinger 2001-2017
</metadata>
<g transform="translate(0.000000,600.000000) scale(0.100000,-0.100000)"
fill="#16364b" stroke="none">
<path d="M2209 5447 c-73 -49 -122 -238 -87 -338 20 -58 60 -109 107 -137 45
-27 48 -27 209 -25 127 2 161 0 156 -10 -5 -6 -37 -59 -72 -117 -123 -198
-202 -385 -202 -474 0 -88 65 -156 149 -156 52 0 100 25 118 61 6 13 28 67 49
119 20 52 77 163 127 245 117 195 142 247 157 322 16 81 7 138 -33 204 -60
100 -158 137 -321 119 -50 -6 -103 -13 -119 -16 -26 -5 -27 -4 -17 21 26 69 0
147 -62 185 -46 28 -115 26 -159 -3z"/>
<path d="M3775 5230 c-75 -14 -164 -47 -201 -75 -41 -32 -69 -101 -60 -150 9
-48 61 -104 106 -114 39 -8 68 -3 154 29 32 11 73 20 90 18 l31 -3 -1 -70 c0
-58 -10 -100 -59 -242 -56 -165 -58 -174 -46 -214 25 -82 110 -131 190 -109
68 18 95 56 141 196 60 185 80 278 80 375 0 172 -62 285 -187 341 -49 21 -168
31 -238 18z"/>
<path d="M1738 4905 c-99 -19 -182 -50 -342 -131 -175 -88 -191 -99 -210 -138
-36 -76 -8 -161 67 -201 27 -15 37 -26 37 -45 0 -34 34 -86 70 -108 18 -11 78
-25 152 -36 216 -30 321 -63 438 -139 54 -36 72 -42 116 -42 121 0 192 130
134 245 -45 87 -244 171 -540 228 l-45 8 40 18 c64 28 166 48 211 42 118 -16
216 75 201 186 -11 84 -60 118 -176 124 -42 2 -110 -3 -153 -11z"/>
<path d="M2920 4260 c-434 -127 -425 -124 -461 -173 -24 -33 -29 -50 -29 -96
0 -81 36 -130 111 -151 41 -11 65 -5 279 74 69 26 214 74 323 106 109 33 206
64 215 69 68 36 94 138 53 204 -25 40 -75 67 -123 66 -18 0 -184 -45 -368 -99z"/>
<path d="M4293 4291 c-155 -20 -209 -203 -82 -280 29 -18 46 -19 214 -14 180
6 182 6 205 -17 21 -21 22 -28 16 -99 -4 -42 -18 -135 -32 -208 -29 -160 -30
-189 -4 -230 52 -86 169 -95 231 -19 37 44 109 378 111 511 2 103 -10 154 -49
213 -39 57 -96 98 -173 123 -53 17 -95 22 -225 24 -88 2 -183 0 -212 -4z"/>
<path d="M2145 3869 c-93 -30 -223 -48 -399 -54 -192 -8 -225 -18 -263 -82
-21 -37 -25 -53 -21 -99 4 -48 10 -61 42 -92 l37 -37 157 3 c176 2 357 23 477
53 144 37 191 67 215 142 15 46 6 89 -27 128 -53 62 -111 72 -218 38z"/>
<path d="M3675 3746 c-33 -12 -103 -46 -155 -75 -52 -29 -162 -85 -244 -126
-81 -41 -157 -82 -168 -92 -52 -46 -61 -114 -25 -177 30 -54 78 -78 143 -73
55 4 228 82 360 162 41 24 74 40 74 34 0 -7 -16 -48 -37 -93 -55 -121 -44
-204 30 -242 80 -42 169 -9 211 79 32 69 95 238 112 302 63 235 -85 383 -301
301z"/>
<path d="M4938 3261 c-70 -23 -130 -81 -158 -156 -7 -16 -13 -81 -14 -143 l-1
-113 -162 -157 c-89 -87 -173 -177 -187 -202 -158 -283 -112 -678 89 -771 54
-25 128 -24 182 2 110 53 162 203 109 310 -24 49 -21 126 9 185 20 39 47 65
131 129 245 185 311 315 302 595 -5 149 -15 183 -68 244 -58 65 -161 100 -232
77z"/>
<path d="M2155 3249 c-77 -6 -122 -15 -151 -29 -102 -52 -113 -204 -19 -266
26 -17 112 -17 345 1 98 8 107 1 90 -60 -22 -79 14 -156 91 -195 49 -25 95
-25 136 0 44 26 59 53 78 135 46 199 -1 334 -140 396 -43 20 -69 23 -185 25
-74 1 -184 -2 -245 -7z"/>
<path d="M4255 3178 c-11 -6 -49 -41 -85 -78 -163 -167 -338 -258 -560 -289
-47 -7 -101 -15 -120 -18 -43 -6 -95 -59 -102 -105 -10 -60 2 -98 46 -143 54
-56 88 -61 236 -36 204 35 384 108 550 222 112 76 238 193 257 236 31 75 0
169 -67 204 -39 21 -123 25 -155 7z"/>
<path d="M1250 3009 c-33 -13 -78 -57 -97 -94 -35 -67 -10 -185 50 -232 13
-10 27 -29 31 -43 4 -14 11 -137 16 -275 11 -274 25 -367 79 -516 53 -145 100
-197 192 -214 74 -14 168 36 205 107 22 43 20 128 -5 176 -50 99 -73 234 -91
542 -20 334 -74 472 -214 540 -46 22 -123 26 -166 9z"/>
<path d="M2028 2526 c-77 -31 -144 -83 -228 -174 -86 -93 -115 -148 -107 -203
12 -90 97 -157 182 -145 49 8 74 29 143 118 42 54 106 108 129 108 6 0 16 -14
23 -30 7 -17 28 -44 48 -61 l35 -31 -22 -43 c-87 -174 -112 -397 -67 -604 11
-54 20 -71 54 -103 37 -34 46 -38 95 -38 68 0 113 28 145 90 19 38 22 54 16
100 -18 149 -20 190 -13 253 5 37 20 96 35 130 52 123 56 141 45 185 -7 25
-25 52 -47 71 -34 30 -34 32 -24 71 27 100 -58 246 -175 302 -80 37 -182 39
-267 4z"/>
<path d="M3615 2214 c-127 -17 -199 -30 -330 -59 -82 -19 -233 -45 -335 -60
-161 -22 -190 -29 -225 -53 -47 -32 -85 -101 -85 -152 1 -78 63 -159 139 -180
49 -13 157 5 626 104 66 14 162 29 214 32 l93 7 34 -37 c94 -102 217 -96 307
16 39 48 48 127 23 193 -26 66 -107 136 -191 163 -65 22 -205 35 -270 26z"/>
<path d="M4558 1586 c-40 -14 -54 -23 -131 -85 -63 -49 -97 -60 -242 -71 -306
-25 -414 -49 -568 -125 -160 -80 -335 -224 -377 -311 -18 -37 -26 -44 -50 -44
-37 0 -74 -16 -133 -58 -86 -61 -145 -85 -228 -90 -92 -5 -150 11 -237 68 -72
46 -185 151 -241 224 -62 80 -136 109 -219 87 -51 -14 -110 -64 -128 -108 -20
-46 -17 -117 5 -161 20 -40 160 -202 207 -241 148 -121 244 -178 376 -223 86
-29 103 -32 223 -32 120 0 137 2 221 31 156 54 298 153 330 229 11 27 20 33
56 39 60 10 74 18 158 100 173 166 248 193 633 225 210 18 319 54 438 146 144
110 187 207 140 309 -43 93 -132 127 -233 91z"/>
</g>
</svg>
