<?xml version="1.0" standalone="no"?>
<!DOCTYPE svg PUBLIC "-//W3C//DTD SVG 20010904//EN"
 "http://www.w3.org/TR/2001/REC-SVG-20010904/DTD/svg10.dtd">
<svg version="1.0" xmlns="http://www.w3.org/2000/svg"
 width="600.000000pt" height="600.000000pt" viewBox="0 0 600.000000 600.000000"
 preserveAspectRatio="xMidYMid meet">
<metadata>
Created by potrace 1.15, written by Peter Selinger 2001-2017
</metadata>
<g transform="translate(0.000000,600.000000) scale(0.100000,-0.100000)"
fill="#16364b" stroke="none">
<path d="M3526 5268 c-9 -12 -16 -36 -16 -51 0 -50 61 -157 130 -229 59 -62
69 -68 105 -68 48 0 61 7 74 42 24 62 -66 230 -163 306 -40 31 -109 31 -130 0z
m161 -183 c12 -23 13 -27 2 -18 -8 6 -25 31 -38 55 -21 40 -21 41 -2 18 12
-14 29 -38 38 -55z"/>
<path d="M3005 5101 c-79 -49 -137 -155 -143 -264 -5 -74 10 -111 52 -126 41
-16 77 1 147 66 123 116 165 249 100 314 -24 24 -38 29 -78 29 -29 0 -60 -7
-78 -19z m86 -83 c3 -27 -4 -54 -18 -82 -17 -33 -101 -126 -114 -126 -17 0 -9
66 15 115 33 71 113 135 117 93z"/>
<path d="M4782 4753 c-35 -14 -42 -58 -42 -274 0 -232 11 -322 44 -371 46 -69
119 -60 158 21 20 40 23 60 22 166 -1 129 -11 198 -50 334 -32 111 -71 149
-132 124z"/>
<path d="M2644 4196 c-55 -55 -42 -124 31 -175 50 -34 176 -80 247 -90 149
-21 231 27 215 125 -11 64 -13 65 -234 140 -72 24 -120 34 -164 34 -56 0 -64
-3 -95 -34z"/>
<path d="M1392 3999 c-195 -97 -163 -418 55 -545 56 -34 96 -81 138 -164 71
-141 97 -249 140 -585 14 -110 34 -252 45 -315 10 -64 26 -201 35 -305 9 -105
22 -229 30 -276 44 -264 146 -423 328 -512 73 -36 298 -107 338 -107 30 0 22
-12 -38 -55 -66 -47 -137 -124 -164 -177 -29 -56 -26 -138 6 -176 37 -44 93
-62 259 -83 82 -10 151 -21 154 -23 4 -5 -43 -27 -86 -40 -30 -10 -72 -63 -72
-92 0 -66 58 -112 127 -101 52 9 141 73 175 126 29 47 37 107 19 153 -23 61
-101 100 -226 113 -152 16 -215 31 -215 50 0 20 54 79 108 118 26 18 83 59
127 90 l80 56 195 5 c107 3 288 8 401 12 l205 7 -4 -65 c-7 -114 38 -167 172
-202 32 -9 61 -18 64 -20 2 -3 -3 -15 -12 -28 -9 -12 -16 -33 -16 -46 0 -61
52 -92 155 -92 97 0 166 35 201 102 18 35 18 60 -3 103 -23 48 -88 78 -240
109 -137 28 -163 38 -163 66 0 14 11 22 42 31 24 6 59 19 79 30 21 10 78 22
138 28 253 26 582 123 762 223 164 92 280 251 350 478 32 105 33 272 0 385
-42 149 -115 282 -196 358 -124 115 -340 170 -527 133 -87 -17 -134 -39 -232
-107 -136 -96 -296 -139 -513 -139 -396 0 -606 84 -874 350 -95 95 -201 221
-294 355 -246 351 -362 471 -626 646 -96 64 -193 124 -217 133 -61 23 -157 21
-210 -5z m220 -253 c34 -24 95 -62 133 -84 155 -89 271 -209 455 -472 63 -91
149 -205 191 -255 80 -93 272 -287 347 -349 77 -63 206 -145 303 -191 148 -69
231 -85 524 -99 105 -5 280 11 365 34 96 27 257 105 337 165 72 54 132 75 212
75 115 0 201 -37 272 -118 123 -139 174 -360 120 -519 -45 -135 -151 -267
-266 -333 -111 -63 -466 -165 -662 -189 -292 -36 -1149 -40 -1373 -7 -247 38
-361 90 -433 199 -62 94 -79 172 -107 487 -13 148 -32 285 -55 400 -20 96 -49
266 -66 378 -35 236 -65 362 -111 470 -60 138 -99 186 -262 325 -80 68 -90
127 -22 127 24 0 53 -13 98 -44z"/>
<path d="M2387 2482 c-24 -27 -21 -59 9 -87 48 -45 104 -22 104 43 0 54 -77
84 -113 44z"/>
<path d="M2837 2072 c-24 -26 -21 -49 8 -77 44 -45 115 -22 115 37 0 50 -89
78 -123 40z"/>
<path d="M5281 3999 c-76 -13 -133 -41 -178 -86 -64 -64 -78 -103 -78 -218 0
-91 3 -106 31 -165 59 -124 129 -179 238 -187 158 -13 318 73 383 206 23 47
28 69 28 136 0 67 -4 88 -27 130 -73 138 -234 213 -397 184z m95 -299 c26 -10
26 -11 9 -30 -22 -24 -60 -26 -69 -4 -17 43 4 55 60 34z"/>
<path d="M4188 3761 c-224 -72 -298 -331 -147 -514 130 -157 384 -112 474 86
40 88 51 178 32 272 -14 68 -21 84 -49 108 -40 34 -144 67 -207 66 -25 0 -72
-8 -103 -18z m82 -291 c0 -30 -30 -57 -50 -45 -18 11 17 65 48 74 1 1 2 -12 2
-29z"/>
<path d="M461 2011 c-12 -12 -21 -28 -21 -36 0 -48 252 -205 328 -205 28 0 62
29 62 54 0 34 -32 58 -175 129 -165 82 -169 83 -194 58z"/>
<path d="M5337 1110 c-38 -30 -70 -123 -64 -189 3 -44 9 -59 31 -78 38 -32 95
-31 135 3 62 52 82 224 31 266 -31 25 -100 24 -133 -2z"/>
</g>
</svg>
