<?xml version="1.0" standalone="no"?>
<!DOCTYPE svg PUBLIC "-//W3C//DTD SVG 20010904//EN"
 "http://www.w3.org/TR/2001/REC-SVG-20010904/DTD/svg10.dtd">
<svg version="1.0" xmlns="http://www.w3.org/2000/svg"
 width="600.000000pt" height="600.000000pt" viewBox="0 0 600.000000 600.000000"
 preserveAspectRatio="xMidYMid meet">
<metadata>
Created by potrace 1.15, written by Peter Selinger 2001-2017
</metadata>
<g transform="translate(0.000000,600.000000) scale(0.100000,-0.100000)"
fill="#16364b" stroke="none">
<path d="M2355 5380 c-16 -18 -18 -34 -12 -173 11 -248 -20 -396 -111 -532
-46 -68 -72 -90 -204 -170 -61 -37 -44 -125 25 -125 37 0 135 52 193 103 75
66 135 165 184 304 43 120 54 222 45 406 -6 134 -10 161 -27 182 -24 31 -68
33 -93 5z"/>
<path d="M3546 5273 c-4 -5 -14 -23 -22 -42 -14 -32 -13 -38 16 -100 60 -128
163 -231 230 -231 60 0 94 60 78 135 -19 82 -119 211 -184 235 -30 12 -107 13
-118 3z"/>
<path d="M3044 5126 c-117 -51 -206 -226 -174 -340 7 -25 21 -53 31 -62 29
-27 99 -30 145 -6 85 44 171 164 189 263 10 54 -22 121 -68 142 -42 20 -81 21
-123 3z m42 -180 c-27 -55 -87 -118 -94 -98 -15 45 83 191 110 164 8 -8 4 -25
-16 -66z"/>
<path d="M4785 4761 c-11 -5 -29 -19 -40 -31 -19 -21 -20 -36 -20 -229 1 -164
4 -219 18 -271 38 -140 90 -198 168 -187 90 12 126 95 116 267 -7 118 -40 248
-89 348 -50 101 -90 128 -153 103z"/>
<path d="M2635 4207 c-121 -57 -97 -210 45 -282 120 -61 244 -70 363 -25 85
32 109 56 114 117 5 47 3 53 -28 86 -30 30 -51 39 -173 72 -157 42 -274 54
-321 32z"/>
<path d="M5262 3970 c-158 -56 -229 -160 -220 -319 6 -102 43 -184 112 -249
69 -65 126 -86 216 -80 174 13 299 145 317 334 12 125 -37 226 -140 294 -60
39 -64 40 -147 40 -58 -1 -102 -7 -138 -20z m148 -298 c0 -13 -35 -42 -51 -42
-23 0 -38 48 -19 60 13 8 70 -7 70 -18z"/>
<path d="M4220 3757 c-72 -17 -113 -39 -170 -93 -54 -50 -98 -138 -107 -212
-13 -109 57 -230 162 -278 61 -29 176 -33 247 -8 131 44 218 191 218 369 0 97
-14 141 -55 173 -60 47 -201 70 -295 49z m60 -284 c0 -20 -28 -53 -47 -53 -21
0 -15 37 9 54 29 20 38 20 38 -1z"/>
<path d="M1188 3580 c-61 -15 -150 -65 -191 -106 -64 -64 -91 -127 -92 -209 0
-92 34 -163 113 -237 87 -80 154 -112 330 -158 59 -15 125 -78 162 -154 43
-89 142 -419 225 -751 40 -160 85 -321 100 -360 80 -198 208 -333 386 -404
149 -60 292 -79 639 -86 129 -3 332 -10 450 -16 218 -12 318 -7 760 32 201 17
323 57 560 181 153 80 276 159 335 215 77 72 150 168 187 243 60 122 72 183
72 360 0 149 -1 159 -32 249 -63 181 -221 376 -368 453 -113 60 -207 81 -359
80 -214 0 -313 -36 -529 -191 -195 -140 -325 -198 -495 -222 -149 -21 -296 7
-494 96 -204 91 -559 343 -887 631 -229 201 -319 258 -505 320 -95 32 -125 37
-220 40 -60 2 -127 -1 -147 -6z m230 -336 c122 -32 231 -79 313 -134 35 -24
140 -118 234 -209 130 -126 196 -182 274 -231 56 -36 184 -119 284 -186 237
-157 308 -196 453 -243 241 -79 460 -91 667 -38 150 40 257 100 447 252 123
99 180 131 262 150 143 32 270 8 376 -73 48 -37 128 -142 159 -209 36 -77 44
-220 18 -309 -41 -141 -131 -261 -254 -335 -81 -49 -293 -144 -400 -178 -208
-68 -523 -91 -971 -71 -162 7 -322 11 -355 8 -92 -8 -411 9 -493 27 -256 54
-339 186 -452 725 -48 228 -123 500 -171 623 -82 209 -212 324 -411 363 -94
18 -161 49 -166 77 -5 26 70 22 186 -9z"/>
<path d="M2240 2340 c-26 -26 -25 -54 1 -79 42 -39 88 -31 114 19 15 29 15 34
0 56 -20 31 -85 34 -115 4z"/>
<path d="M2843 2065 c-47 -33 -12 -115 50 -115 45 0 73 64 45 103 -19 25 -69
31 -95 12z"/>
<path d="M3454 3369 c-11 -6 -35 -34 -52 -62 -41 -70 -112 -240 -112 -270 0
-37 34 -62 81 -58 65 4 203 266 183 345 -11 47 -55 66 -100 45z"/>
<path d="M482 2024 c-48 -33 -21 -87 103 -207 82 -80 174 -101 214 -51 53 67
0 137 -172 230 -89 48 -111 52 -145 28z"/>
<path d="M5360 1107 c-38 -18 -74 -100 -78 -178 -4 -62 -2 -69 26 -100 51 -57
130 -42 172 34 28 49 40 175 20 212 -22 42 -89 58 -140 32z"/>
</g>
</svg>
