<?xml version="1.0" standalone="no"?>
<!DOCTYPE svg PUBLIC "-//W3C//DTD SVG 20010904//EN"
 "http://www.w3.org/TR/2001/REC-SVG-20010904/DTD/svg10.dtd">
<svg version="1.0" xmlns="http://www.w3.org/2000/svg"
 width="600.000000pt" height="600.000000pt" viewBox="0 0 600.000000 600.000000"
 preserveAspectRatio="xMidYMid meet">
<metadata>
Created by potrace 1.15, written by Peter Selinger 2001-2017
</metadata>
<g transform="translate(0.000000,600.000000) scale(0.100000,-0.100000)"
fill="#16364b" stroke="none">
<path d="M3070 5612 c-43 -21 -87 -85 -130 -189 -42 -99 -53 -227 -26 -297 50
-130 142 -186 345 -210 l95 -11 -95 -59 c-197 -124 -328 -223 -447 -338 -81
-78 -92 -98 -92 -162 0 -111 151 -196 629 -357 296 -99 342 -107 402 -66 70
46 86 131 38 198 -29 42 -87 67 -401 175 -142 49 -258 92 -258 96 0 18 319
230 494 329 95 53 158 107 180 153 18 38 21 111 7 149 -40 104 -223 186 -423
188 -80 1 -184 12 -193 20 -7 8 26 103 59 166 35 70 35 131 0 173 -51 60 -118
76 -184 42z"/>
<path d="M1475 5401 c-82 -41 -158 -112 -269 -250 -190 -236 -284 -397 -325
-555 -36 -136 -25 -211 37 -269 58 -55 91 -54 274 8 159 53 364 102 377 90 3
-4 -43 -102 -102 -218 -58 -117 -116 -236 -127 -266 -24 -61 -34 -188 -20
-241 18 -68 103 -119 165 -101 41 12 448 216 513 257 71 46 94 85 89 150 -4
64 -36 110 -91 135 -61 28 -94 24 -167 -20 -35 -21 -66 -37 -68 -36 -2 2 17
44 42 93 68 132 88 189 94 273 5 64 2 83 -16 124 -26 58 -44 80 -92 110 -90
58 -224 69 -401 35 -57 -11 -109 -20 -116 -20 -17 0 68 123 169 243 70 85 118
129 204 191 92 64 86 212 -10 267 -57 33 -94 33 -160 0z"/>
<path d="M4594 4470 c-23 -5 -104 -32 -180 -61 -232 -87 -244 -94 -265 -172
-13 -50 16 -118 63 -147 52 -31 106 -26 259 28 76 26 140 44 144 40 9 -9 -90
-196 -156 -296 -29 -42 -88 -124 -132 -181 -64 -83 -81 -112 -85 -146 -6 -55
17 -103 66 -134 20 -14 51 -38 68 -54 26 -23 72 -40 235 -87 112 -33 221 -66
242 -75 46 -19 51 -6 -88 -215 -178 -267 -199 -323 -152 -404 29 -51 79 -79
131 -72 50 6 83 31 121 89 17 26 85 131 152 233 67 102 134 211 149 241 50
106 42 206 -21 280 -62 73 -152 113 -390 173 -71 18 -133 36 -137 39 -4 4 40
78 98 166 208 315 274 511 215 641 -22 48 -82 101 -131 114 -41 12 -147 11
-206 0z"/>
<path d="M3820 3678 c-74 -21 -120 -79 -120 -152 0 -53 23 -99 73 -150 36 -35
55 -46 92 -51 67 -11 82 -36 59 -104 -16 -51 -17 -51 -58 -51 -177 0 -338 -89
-436 -242 -32 -49 -40 -70 -40 -109 0 -83 66 -139 162 -139 66 0 105 22 147
84 45 66 60 71 186 71 99 0 113 2 143 23 39 29 72 89 72 135 0 28 6 38 37 58
24 15 48 45 67 82 25 48 29 69 29 131 0 102 -36 178 -137 283 -104 110 -196
153 -276 131z"/>
<path d="M2550 3609 c-87 -11 -268 -71 -355 -117 -79 -42 -115 -86 -115 -139
0 -85 73 -157 158 -157 34 1 67 11 117 36 83 42 194 78 241 78 32 0 34 -2 34
-32 0 -82 -92 -315 -238 -603 -83 -165 -76 -214 40 -302 93 -70 154 -79 264
-37 75 28 222 77 267 88 28 7 29 6 22 -26 -14 -66 -58 -194 -96 -280 -59 -133
-53 -214 18 -279 43 -40 72 -52 129 -52 72 0 131 36 166 100 28 51 115 265
142 348 50 158 61 308 29 397 -57 161 -238 217 -525 163 -38 -7 -68 -12 -68
-11 0 1 29 65 64 142 85 186 100 238 100 354 1 83 -2 102 -25 150 -30 63 -86
123 -139 150 -30 15 -142 43 -159 39 -3 -1 -35 -5 -71 -10z"/>
<path d="M1121 3364 c-123 -33 -329 -173 -364 -247 -38 -80 -9 -191 65 -251
48 -37 128 -47 177 -21 18 9 36 14 39 10 4 -3 -9 -63 -27 -133 -19 -70 -43
-158 -53 -197 -30 -115 -41 -247 -36 -435 4 -146 9 -184 25 -221 25 -56 80
-105 135 -120 24 -6 53 -15 66 -20 35 -14 89 -11 122 6 37 19 92 97 215 305
121 203 302 475 356 534 4 5 14 -7 22 -26 16 -38 11 -85 -37 -358 -42 -237
-71 -504 -71 -646 0 -128 1 -132 30 -179 17 -26 42 -57 57 -68 35 -26 116 -34
154 -14 89 46 112 141 59 243 -7 14 -12 40 -9 58 2 17 18 137 34 266 17 129
47 305 67 390 32 136 37 171 37 290 1 165 -24 333 -59 406 -50 102 -156 140
-263 94 -86 -37 -263 -239 -454 -519 -32 -47 -58 -77 -58 -67 0 10 18 95 39
190 69 301 82 462 47 581 -40 134 -160 191 -315 149z"/>
<path d="M4704 2224 c-23 -8 -60 -31 -83 -51 -40 -34 -91 -116 -91 -148 0 -19
-12 -19 -141 1 -187 29 -373 3 -526 -72 -160 -79 -222 -206 -223 -452 l0 -84
-57 52 c-229 204 -509 160 -721 -113 -26 -34 -72 -112 -103 -173 l-55 -112
-28 156 c-52 287 -112 449 -187 499 -81 53 -188 37 -253 -39 -61 -70 -64 -148
-13 -258 35 -74 70 -207 96 -370 51 -305 83 -403 163 -483 93 -93 234 -126
365 -86 62 19 123 112 123 187 0 26 68 224 105 309 31 70 95 163 140 201 31
28 39 31 58 21 12 -6 83 -71 157 -144 159 -156 208 -186 316 -193 62 -4 80 -1
127 21 151 69 230 244 244 542 4 70 10 123 17 127 20 14 101 8 256 -18 237
-40 346 -25 464 64 102 78 158 202 158 357 1 102 -12 141 -63 200 -62 70 -152
92 -245 59z"/>
</g>
</svg>
