<?xml version="1.0" standalone="no"?>
<!DOCTYPE svg PUBLIC "-//W3C//DTD SVG 20010904//EN"
 "http://www.w3.org/TR/2001/REC-SVG-20010904/DTD/svg10.dtd">
<svg version="1.0" xmlns="http://www.w3.org/2000/svg"
 width="600.000000pt" height="600.000000pt" viewBox="0 0 600.000000 600.000000"
 preserveAspectRatio="xMidYMid meet">
<metadata>
Created by potrace 1.15, written by Peter Selinger 2001-2017
</metadata>
<g transform="translate(0.000000,600.000000) scale(0.100000,-0.100000)"
fill="#16364b" stroke="none">
<path d="M2061 5135 c-112 -32 -189 -106 -223 -218 -22 -73 -22 -98 2 -302 5
-44 9 -159 10 -255 0 -96 7 -301 15 -455 18 -344 20 -1012 3 -1136 l-12 -89
-80 -52 c-45 -29 -157 -107 -251 -174 -239 -170 -219 -159 -249 -139 -24 16
-26 16 -32 0 -4 -9 -2 -21 5 -28 20 -20 12 -26 -21 -16 -72 20 -87 5 -41 -43
28 -29 29 -27 -23 -43 -31 -10 -11 -40 29 -43 40 -3 46 -12 22 -32 -20 -16
-19 -50 0 -50 21 0 152 67 162 82 16 25 437 338 455 338 4 0 8 -35 8 -79 0
-165 44 -508 81 -626 86 -279 302 -486 564 -540 l60 -12 -3 -124 c-4 -167 25
-348 89 -546 32 -97 31 -98 -84 -98 l-99 0 -29 -33 c-36 -41 -38 -80 -3 -121
78 -93 330 -54 390 61 26 50 20 112 -24 243 -68 204 -101 410 -87 540 l7 66
96 -6 c54 -3 169 -11 257 -17 88 -6 268 -12 400 -14 170 -3 239 -7 237 -15 -2
-6 -5 -46 -9 -88 -7 -97 22 -251 83 -440 24 -74 44 -141 44 -148 0 -10 -22
-13 -91 -13 -50 0 -100 -5 -112 -11 -76 -39 -75 -138 1 -175 111 -52 291 -9
345 84 30 51 24 112 -22 239 -86 237 -113 394 -89 518 l13 70 219 26 c120 15
239 35 265 44 249 93 372 356 373 799 0 144 -3 182 -20 238 -25 84 -63 159
-112 224 -33 44 -156 163 -228 221 -22 18 -17 18 227 17 137 -1 253 -4 258 -7
5 -3 46 6 91 20 80 25 101 44 65 57 -15 6 -15 9 -3 16 11 7 12 14 3 32 -6 13
-14 31 -17 42 -4 12 -12 16 -24 11 -9 -3 -29 -9 -44 -12 -22 -4 -27 -1 -30 18
-4 32 -26 35 -39 6 -15 -32 -33 -37 -150 -37 -122 0 -277 15 -457 46 l-142 23
-68 54 c-95 76 -160 119 -387 252 -431 252 -455 268 -545 352 -137 129 -269
310 -360 493 -65 129 -108 249 -180 496 -77 264 -92 303 -135 369 -81 121
-221 177 -354 140z m159 -174 c47 -24 96 -99 121 -185 139 -485 221 -701 328
-859 77 -114 245 -323 321 -397 92 -92 154 -134 489 -329 365 -213 406 -241
600 -415 86 -78 175 -156 197 -175 153 -131 227 -225 265 -338 18 -56 21 -87
20 -197 -2 -279 -51 -461 -152 -571 -66 -72 -126 -95 -284 -110 -33 -3 -163
-17 -290 -31 -207 -24 -251 -26 -440 -19 -555 18 -779 31 -879 51 -265 52
-428 259 -480 609 -38 256 -42 472 -14 675 17 125 19 905 2 1135 -8 110 -19
342 -24 515 -5 173 -14 351 -20 395 -19 151 23 242 125 265 36 9 69 3 115 -19z"/>
<path d="M2650 2760 c-11 -11 -20 -29 -20 -40 0 -27 47 -70 76 -70 25 0 64 43
64 71 0 29 -36 59 -70 59 -17 0 -39 -9 -50 -20z"/>
<path d="M3097 2652 c-10 -10 -17 -29 -17 -41 0 -27 42 -71 69 -71 20 0 61 43
61 65 0 7 -9 24 -21 39 -24 31 -68 35 -92 8z"/>
<path d="M2949 1759 c-25 -25 -21 -49 11 -67 22 -12 30 -12 63 1 31 13 37 21
37 45 0 46 -72 60 -111 21z"/>
<path d="M5214 3973 c-82 -24 -143 -77 -184 -158 -31 -62 -35 -77 -34 -146 1
-103 40 -186 121 -258 142 -127 359 -115 497 26 60 62 89 135 90 223 0 116
-45 189 -167 267 -99 63 -211 79 -323 46z m165 -302 c20 -13 6 -39 -25 -47
-28 -7 -54 14 -54 43 0 15 57 18 79 4z"/>
</g>
</svg>
