<?xml version="1.0" standalone="no"?>
<!DOCTYPE svg PUBLIC "-//W3C//DTD SVG 20010904//EN"
 "http://www.w3.org/TR/2001/REC-SVG-20010904/DTD/svg10.dtd">
<svg version="1.0" xmlns="http://www.w3.org/2000/svg"
 width="600.000000pt" height="600.000000pt" viewBox="0 0 600.000000 600.000000"
 preserveAspectRatio="xMidYMid meet">
<metadata>
Created by potrace 1.15, written by Peter Selinger 2001-2017
</metadata>
<g transform="translate(0.000000,600.000000) scale(0.100000,-0.100000)"
fill="#16364b" stroke="none">
<path d="M1531 5773 c-41 -38 -167 -327 -188 -430 -13 -63 -14 -88 -5 -132 33
-156 182 -200 307 -90 49 43 338 367 353 396 41 76 -44 175 -136 158 -26 -5
-57 -30 -135 -111 -55 -57 -102 -102 -104 -100 -2 2 16 48 41 101 57 121 59
154 12 201 -45 45 -101 48 -145 7z"/>
<path d="M878 5540 c-84 -14 -155 -55 -232 -132 -90 -92 -118 -148 -124 -248
-7 -123 44 -226 148 -299 65 -44 119 -44 166 3 27 27 34 42 34 73 0 42 -16 70
-74 126 -35 34 -38 41 -33 79 8 57 54 118 111 147 l48 24 52 -22 c119 -49 206
-3 206 110 0 35 -6 47 -36 75 -53 51 -173 79 -266 64z"/>
<path d="M2360 5405 c-43 -23 -49 -49 -53 -240 -4 -151 -9 -195 -30 -276 -47
-179 -113 -272 -232 -328 -34 -16 -72 -42 -84 -57 -47 -60 -11 -152 67 -174
33 -9 44 -7 109 26 255 128 376 383 399 839 7 142 -1 176 -48 209 -27 20 -94
20 -128 1z"/>
<path d="M3453 5335 c-38 -38 -38 -39 -18 -174 21 -144 184 -295 318 -295 57
0 94 24 121 79 17 34 18 45 8 91 -24 116 -127 238 -250 295 -104 49 -133 50
-179 4z"/>
<path d="M2971 5138 c-145 -41 -240 -226 -182 -353 52 -116 194 -147 345 -77
84 39 98 66 100 182 1 74 -3 92 -26 140 -49 99 -134 138 -237 108z"/>
<path d="M4758 4754 c-49 -26 -63 -67 -61 -184 2 -292 132 -515 311 -537 91
-10 193 41 232 117 68 133 35 281 -94 417 -62 67 -171 150 -243 187 -39 20
-109 20 -145 0z m252 -415 c11 -21 16 -39 11 -39 -11 0 -25 22 -41 65 -15 39
6 21 30 -26z"/>
<path d="M2677 4226 c-60 -17 -115 -60 -147 -117 -21 -37 -25 -57 -25 -129 0
-92 19 -145 73 -204 87 -93 268 -87 436 14 71 43 172 133 191 171 34 65 8 166
-53 202 -91 54 -376 92 -475 63z"/>
<path d="M1067 4106 c-96 -35 -134 -130 -86 -216 28 -50 67 -70 152 -81 106
-13 177 -31 177 -43 0 -15 -115 -90 -185 -122 -31 -13 -103 -40 -159 -58 -132
-43 -142 -49 -166 -96 -25 -49 -26 -116 -1 -156 18 -30 74 -64 104 -64 25 0
245 79 369 132 65 27 146 70 180 94 l63 44 12 -87 c15 -112 35 -163 86 -216
67 -68 126 -92 227 -92 71 0 93 4 134 25 206 105 187 414 -31 522 -89 44 -179
45 -267 5 l-58 -27 8 28 c16 49 10 144 -11 186 -47 97 -165 170 -330 205 -137
29 -176 32 -218 17z"/>
<path d="M4180 3766 c-102 -30 -167 -81 -211 -166 -50 -97 -23 -248 61 -344
115 -130 341 -120 471 21 85 92 146 285 120 374 -14 48 -58 84 -124 105 -70
21 -258 28 -317 10z m120 -273 c0 -14 -34 -43 -52 -43 -25 0 -23 25 5 38 26
12 47 15 47 5z"/>
<path d="M5135 3537 c-112 -42 -209 -127 -256 -225 -27 -56 -37 -185 -20 -249
16 -60 70 -134 116 -160 145 -81 374 4 463 172 23 44 27 62 27 145 0 87 -3
101 -32 160 -18 36 -56 91 -86 123 -51 55 -55 57 -103 56 -27 0 -76 -10 -109
-22z m25 -332 c-7 -9 -15 -13 -18 -10 -3 2 1 11 8 20 7 9 15 13 18 10 3 -2 -1
-11 -8 -20z"/>
<path d="M2540 3425 c-65 -21 -147 -81 -200 -147 -58 -72 -129 -207 -170 -323
-54 -157 -106 -219 -231 -282 -173 -87 -416 -337 -519 -534 -110 -210 -147
-475 -95 -674 62 -238 286 -460 565 -560 301 -107 536 -80 800 93 143 94 225
173 303 290 179 272 237 445 237 712 0 113 -47 573 -75 732 -14 79 -50 221
-86 334 -80 251 -333 423 -529 359z m126 -420 c32 -48 114 -310 134 -423 47
-268 47 -634 0 -812 -46 -178 -160 -342 -306 -439 -173 -116 -358 -122 -557
-19 -176 92 -257 216 -257 394 0 212 190 484 420 599 184 92 280 169 348 279
42 67 54 96 106 266 35 114 67 180 86 180 5 0 17 -11 26 -25z"/>
<path d="M3441 3393 c-43 -9 -106 -85 -165 -202 -62 -124 -69 -165 -36 -218
25 -41 68 -54 135 -38 70 16 104 36 154 90 58 64 94 144 95 214 0 73 -22 113
-77 140 -43 21 -59 23 -106 14z"/>
<path d="M461 2337 c-44 -15 -111 -108 -111 -152 0 -60 125 -327 213 -453 71
-103 181 -211 253 -247 236 -119 419 137 288 404 -69 140 -264 313 -459 406
-107 51 -139 58 -184 42z m318 -404 c74 -74 114 -132 132 -195 10 -35 -2 -36
-46 -2 -42 32 -104 113 -150 197 -58 105 -43 105 64 0z"/>
<path d="M4334 2062 c-22 -11 -52 -34 -66 -52 l-25 -32 -31 22 c-99 73 -265 0
-279 -123 -9 -75 53 -341 91 -392 13 -16 30 -50 40 -75 25 -66 80 -137 126
-160 53 -27 134 -27 179 1 81 49 107 118 121 317 6 81 18 198 26 261 13 87 14
122 5 150 -24 82 -108 119 -187 83z"/>
</g>
</svg>
