<?xml version="1.0" standalone="no"?>
<!DOCTYPE svg PUBLIC "-//W3C//DTD SVG 20010904//EN"
 "http://www.w3.org/TR/2001/REC-SVG-20010904/DTD/svg10.dtd">
<svg version="1.0" xmlns="http://www.w3.org/2000/svg"
 width="600.000000pt" height="600.000000pt" viewBox="0 0 600.000000 600.000000"
 preserveAspectRatio="xMidYMid meet">
<metadata>
Created by potrace 1.15, written by Peter Selinger 2001-2017
</metadata>
<g transform="translate(0.000000,600.000000) scale(0.100000,-0.100000)"
fill="#16364b" stroke="none">
<path d="M3093 5665 c-48 -21 -75 -69 -70 -127 3 -36 13 -60 45 -101 79 -102
186 -212 306 -315 67 -57 132 -117 145 -133 l23 -30 -48 -47 c-27 -26 -114
-93 -193 -149 -112 -81 -150 -103 -176 -103 -81 0 -327 -109 -409 -181 -126
-112 -111 -278 33 -351 96 -49 201 -33 246 35 22 34 29 90 17 126 -15 43 9 56
72 40 34 -8 54 -8 78 0 57 20 469 303 545 375 51 48 82 88 104 132 29 58 31
71 27 131 -9 120 -86 233 -251 369 -51 42 -122 101 -159 131 -37 30 -93 86
-123 123 -73 89 -132 110 -212 75z"/>
<path d="M1144 5354 c-226 -120 -368 -317 -381 -531 -8 -122 24 -266 89 -398
39 -77 73 -113 121 -126 33 -9 45 -7 85 13 59 30 84 64 90 126 3 40 -1 61 -21
104 -14 30 -31 75 -38 101 -16 65 -7 181 19 239 26 59 102 141 162 176 64 36
80 52 101 97 25 53 24 92 -3 145 -42 81 -132 103 -224 54z"/>
<path d="M1759 5329 c-49 -29 -72 -71 -74 -139 -2 -49 -9 -66 -59 -142 -77
-118 -116 -205 -129 -287 -9 -59 -8 -76 7 -115 25 -64 49 -91 110 -120 77 -37
202 -50 341 -36 152 15 214 32 247 69 54 60 45 158 -18 218 -47 44 -87 49
-221 28 -62 -10 -117 -15 -121 -11 -7 8 13 48 91 181 25 44 53 107 62 140 13
53 13 65 0 110 -16 57 -43 87 -97 110 -51 21 -96 19 -139 -6z"/>
<path d="M4555 4690 c-85 -56 -85 -168 1 -238 31 -25 35 -32 21 -38 -9 -3 -26
-22 -38 -41 -17 -27 -20 -45 -17 -89 6 -73 29 -101 113 -144 67 -34 74 -35
180 -35 96 0 116 3 155 24 108 57 181 145 202 244 30 144 -78 235 -370 308
-136 35 -205 37 -247 9z"/>
<path d="M1855 4290 c-171 -31 -397 -173 -434 -273 -33 -88 28 -183 130 -202
43 -8 101 14 144 54 87 82 193 122 314 118 74 -2 91 1 121 20 46 29 70 71 70
126 0 96 -78 154 -216 162 -43 2 -101 0 -129 -5z"/>
<path d="M2626 3749 c-27 -4 -106 -26 -177 -48 -113 -36 -131 -46 -158 -78
-40 -49 -48 -92 -26 -148 36 -95 111 -114 255 -65 117 39 210 51 210 26 0 -33
-43 -143 -99 -256 -91 -180 -141 -258 -284 -438 -71 -89 -86 -129 -68 -185 29
-86 124 -120 216 -78 41 18 151 138 242 261 47 64 158 250 206 347 84 167 120
326 97 433 -38 181 -193 266 -414 229z"/>
<path d="M4054 3727 c-135 -35 -228 -153 -210 -267 24 -154 185 -298 342 -308
112 -7 221 62 285 180 43 81 45 144 7 203 -14 22 -29 57 -32 77 -9 50 -59 93
-128 108 -81 18 -207 21 -264 7z"/>
<path d="M1175 3581 c-83 -22 -261 -99 -336 -144 -31 -19 -60 -46 -71 -67 -21
-41 -24 -117 -4 -163 17 -39 71 -92 109 -106 40 -16 107 -13 141 4 16 9 31 14
33 12 2 -2 -31 -103 -73 -223 -164 -472 -194 -584 -194 -716 0 -121 74 -192
214 -205 83 -7 108 6 221 115 140 135 243 249 412 460 109 134 159 189 164
180 15 -24 -15 -235 -57 -403 -14 -55 -54 -200 -90 -323 -36 -124 -69 -264
-76 -316 -10 -83 -10 -98 6 -140 25 -65 72 -99 144 -103 45 -3 64 0 90 16 51
33 69 71 76 171 8 97 24 169 110 505 94 367 109 459 110 680 1 206 -8 253 -61
323 -51 68 -154 91 -239 53 -75 -34 -221 -181 -391 -392 -53 -66 -97 -118 -99
-116 -2 2 38 120 90 263 103 284 124 372 106 462 -28 151 -162 220 -335 173z"/>
<path d="M3597 3289 c-55 -13 -88 -32 -133 -78 -73 -72 -134 -215 -134 -311 0
-123 143 -203 242 -136 22 15 62 27 113 35 92 13 147 36 200 82 72 63 95 169
56 254 -27 61 -102 121 -179 145 -68 21 -104 23 -165 9z"/>
<path d="M4713 3009 c-42 -12 -80 -62 -94 -126 -18 -78 0 -158 65 -288 68
-135 125 -203 181 -215 92 -21 175 42 175 133 0 54 -7 70 -61 142 -59 78 -79
134 -66 182 5 21 7 51 3 66 -10 41 -61 92 -104 105 -45 14 -55 14 -99 1z"/>
<path d="M2995 2579 c-72 -7 -214 -46 -345 -93 -281 -101 -327 -130 -351 -220
-23 -82 23 -176 106 -216 72 -35 115 -30 251 28 128 55 304 115 312 107 10
-10 -98 -293 -164 -429 -38 -80 -44 -138 -18 -189 38 -76 93 -110 174 -110
106 0 153 46 258 251 160 313 208 552 138 690 -69 136 -193 198 -361 181z"/>
<path d="M4415 2331 c-50 -22 -109 -86 -125 -136 -12 -36 -10 -87 6 -176 l6
-37 -98 29 c-256 74 -401 55 -522 -69 -97 -98 -138 -210 -149 -397 -6 -118 8
-283 33 -364 9 -31 32 -68 60 -101 106 -117 249 -139 345 -53 61 55 74 111 60
247 -22 222 -25 276 -11 276 17 0 113 -28 183 -52 54 -20 65 -20 158 -9 173
21 256 56 329 138 60 68 80 133 80 258 0 113 -27 281 -56 340 -21 45 -87 102
-133 115 -55 15 -122 12 -166 -9z"/>
<path d="M2130 1854 c-42 -18 -86 -59 -106 -96 -16 -31 -19 -121 -4 -148 5
-10 28 -110 50 -221 47 -237 87 -373 136 -455 55 -95 161 -182 311 -257 94
-48 150 -60 210 -47 46 11 47 10 157 -53 147 -84 185 -98 286 -104 172 -11
362 74 411 182 41 89 7 201 -78 256 -42 27 -55 30 -103 27 -43 -3 -66 -12
-109 -41 -81 -56 -92 -54 -276 49 -83 47 -221 174 -241 223 -27 66 -74 129
-117 157 -33 22 -56 28 -114 32 -65 4 -74 7 -78 26 -2 11 -14 75 -25 141 -41
238 -62 285 -143 324 -51 25 -117 27 -167 5z"/>
</g>
</svg>
