<?xml version="1.0" standalone="no"?>
<!DOCTYPE svg PUBLIC "-//W3C//DTD SVG 20010904//EN"
 "http://www.w3.org/TR/2001/REC-SVG-20010904/DTD/svg10.dtd">
<svg version="1.0" xmlns="http://www.w3.org/2000/svg"
 width="600.000000pt" height="600.000000pt" viewBox="0 0 600.000000 600.000000"
 preserveAspectRatio="xMidYMid meet">
<metadata>
Created by potrace 1.15, written by Peter Selinger 2001-2017
</metadata>
<g transform="translate(0.000000,600.000000) scale(0.100000,-0.100000)"
fill="#16364b" stroke="none">
<path d="M2930 5584 c-35 -30 -99 -151 -124 -233 -21 -70 -21 -184 0 -245 10
-28 35 -66 63 -94 62 -63 126 -83 291 -91 l125 -6 -50 -34 c-105 -72 -395
-322 -502 -433 -76 -79 -92 -115 -78 -178 9 -40 67 -105 114 -130 51 -25 205
-73 372 -115 79 -20 206 -54 282 -76 76 -21 157 -39 181 -39 59 0 105 33 130
92 38 91 -7 171 -117 207 -60 20 -326 90 -474 126 -40 9 -73 21 -73 25 0 18
235 206 419 336 116 82 163 125 202 186 29 44 34 61 34 113 0 50 -5 69 -27
102 -54 83 -192 122 -428 123 -149 0 -180 5 -180 27 0 8 18 53 40 100 49 105
53 156 14 203 -36 43 -74 60 -133 60 -39 0 -56 -6 -81 -26z"/>
<path d="M1525 5323 c-203 -82 -480 -393 -595 -668 -27 -66 -34 -94 -34 -156
-1 -67 2 -79 26 -111 17 -22 45 -43 72 -53 44 -17 47 -17 165 14 132 33 321
57 375 47 42 -8 43 -4 -37 -146 -84 -148 -127 -257 -127 -319 0 -38 -6 -57
-22 -77 -49 -55 -59 -124 -29 -191 36 -78 116 -94 230 -43 37 16 145 58 240
94 285 107 341 148 341 248 0 60 -21 103 -63 128 -50 31 -105 26 -202 -20
-110 -52 -123 -52 -91 -2 45 72 104 197 121 256 48 165 -19 306 -175 369 -50
20 -72 22 -232 22 -114 0 -174 3 -170 10 53 96 287 305 340 305 19 0 79 59 92
90 16 40 8 115 -17 149 -28 37 -92 71 -133 70 -19 0 -53 -7 -75 -16z"/>
<path d="M4560 4543 c-91 -15 -361 -111 -417 -149 -82 -53 -82 -185 0 -241 61
-41 88 -39 256 22 84 31 156 54 159 51 18 -19 -114 -247 -240 -413 -59 -79
-112 -152 -118 -162 -5 -11 -10 -41 -10 -68 0 -70 16 -90 150 -189 34 -25 53
-29 275 -49 224 -21 278 -31 270 -53 -3 -10 -66 -129 -140 -267 -73 -137 -136
-261 -140 -274 -4 -12 -2 -42 5 -66 29 -103 158 -154 232 -92 28 24 298 544
329 634 38 111 18 206 -59 275 -76 68 -136 88 -361 118 -85 11 -157 22 -159
25 -3 2 18 39 46 82 60 92 191 360 222 453 26 82 29 180 5 238 -21 51 -80 104
-134 120 -37 12 -119 14 -171 5z"/>
<path d="M3787 3667 c-50 -16 -100 -58 -120 -100 -37 -78 -12 -207 50 -251 36
-27 116 -33 147 -12 14 9 30 16 36 16 19 0 10 -82 -16 -141 -21 -47 -31 -59
-49 -59 -40 0 -158 -41 -225 -78 -88 -48 -185 -146 -200 -200 -27 -103 48
-192 161 -192 51 0 70 11 141 75 65 60 112 80 237 96 151 20 201 63 201 175 0
34 7 78 15 97 96 229 -70 555 -295 581 -25 3 -62 0 -83 -7z"/>
<path d="M2430 3580 c-106 -28 -312 -131 -341 -172 -33 -45 -37 -132 -10 -176
50 -79 131 -92 239 -38 99 49 200 81 262 81 l55 0 -2 -48 c-2 -77 -47 -198
-150 -405 -85 -171 -94 -197 -88 -229 3 -20 13 -46 21 -58 13 -21 13 -29 -2
-74 -14 -43 -14 -59 -5 -99 24 -93 89 -152 170 -152 26 0 90 19 169 49 150 58
255 91 288 91 l23 0 -29 -82 c-16 -46 -43 -116 -59 -157 -36 -86 -39 -145 -12
-199 59 -117 196 -166 296 -107 52 30 60 46 135 273 94 281 99 392 27 513 -35
59 -102 111 -170 131 -75 22 -247 13 -374 -19 -62 -16 -113 -26 -113 -22 0 4
36 82 80 174 90 188 106 229 122 324 16 94 -2 174 -56 255 -97 144 -273 198
-476 146z"/>
<path d="M1127 3300 c-49 -13 -83 -31 -193 -102 -128 -84 -172 -159 -145 -248
31 -103 145 -159 256 -126 27 9 50 14 51 13 1 -1 -2 -24 -7 -52 -118 -648
-124 -692 -109 -827 6 -49 17 -102 25 -117 13 -26 88 -101 101 -101 3 0 36 -5
74 -11 62 -9 74 -8 115 10 41 18 55 35 169 208 68 103 169 262 226 353 112
180 172 270 180 270 3 0 12 -21 19 -46 21 -69 9 -230 -44 -588 -52 -356 -56
-450 -22 -516 54 -107 195 -112 265 -9 21 29 23 42 18 92 -4 43 5 129 34 315
84 543 91 666 51 832 -47 192 -62 232 -107 277 -98 97 -227 72 -361 -70 -58
-62 -182 -217 -258 -323 -30 -42 -55 -73 -55 -69 0 4 15 75 34 158 47 210 59
298 51 383 -19 207 -185 339 -368 294z"/>
<path d="M4717 2356 c-79 -29 -134 -91 -152 -173 l-7 -33 -117 0 c-289 0 -492
-65 -589 -187 -84 -107 -127 -275 -120 -465 3 -60 3 -108 1 -108 -1 0 -31 21
-65 46 -131 96 -256 141 -360 129 -89 -11 -202 -71 -286 -153 -86 -83 -142
-169 -242 -370 -42 -85 -79 -151 -82 -146 -18 30 -54 167 -93 354 -25 118 -55
242 -66 276 -21 65 -63 115 -112 133 -45 17 -124 13 -165 -8 -100 -52 -135
-143 -97 -256 9 -24 44 -158 79 -297 85 -334 111 -402 193 -505 66 -82 184
-129 298 -118 67 7 148 30 183 53 37 24 109 124 133 183 54 137 205 396 262
448 18 17 33 22 49 17 13 -3 75 -50 139 -104 131 -110 197 -147 286 -163 136
-24 298 62 354 187 10 22 27 48 38 58 11 10 28 41 37 69 16 47 16 68 4 234 -7
101 -10 186 -6 190 14 15 119 20 278 15 176 -5 252 3 331 38 149 66 234 216
225 398 -5 103 -27 152 -89 205 -71 61 -162 81 -242 53z"/>
</g>
</svg>
