<?xml version="1.0" standalone="no"?>
<!DOCTYPE svg PUBLIC "-//W3C//DTD SVG 20010904//EN"
 "http://www.w3.org/TR/2001/REC-SVG-20010904/DTD/svg10.dtd">
<svg version="1.0" xmlns="http://www.w3.org/2000/svg"
 width="600.000000pt" height="600.000000pt" viewBox="0 0 600.000000 600.000000"
 preserveAspectRatio="xMidYMid meet">
<metadata>
Created by potrace 1.15, written by Peter Selinger 2001-2017
</metadata>
<g transform="translate(0.000000,600.000000) scale(0.100000,-0.100000)"
fill="#16364b" stroke="none">
<path d="M3100 5637 c-28 -15 -51 -36 -63 -61 -18 -35 -19 -46 -10 -110 22
-156 110 -265 303 -378 185 -107 210 -123 210 -130 0 -9 -32 -29 -232 -148
-86 -51 -205 -129 -265 -174 -91 -68 -110 -88 -122 -123 -12 -33 -23 -46 -53
-59 -54 -24 -125 -103 -134 -148 -15 -83 18 -153 86 -180 59 -23 127 -3 179
55 36 39 128 69 236 76 98 6 132 19 164 59 27 34 28 113 4 156 -17 29 -17 31
1 42 79 48 261 174 317 220 94 76 124 131 124 221 -1 139 -71 214 -354 381
-46 27 -96 64 -112 81 -28 33 -49 88 -49 131 0 13 -10 37 -21 54 -43 60 -134
75 -209 35z"/>
<path d="M1285 5384 c-11 -3 -54 -22 -95 -42 -114 -56 -224 -169 -283 -293
-106 -218 -125 -430 -55 -616 24 -65 70 -103 133 -111 56 -6 96 10 136 56 29
33 31 39 26 96 -3 34 -11 84 -17 111 -34 153 85 386 248 483 83 50 106 84 105
155 -1 55 -37 118 -81 141 -33 17 -89 26 -117 20z"/>
<path d="M1560 5119 c-100 -40 -132 -185 -57 -261 18 -18 41 -38 51 -44 19
-10 18 -14 -17 -95 -44 -103 -55 -186 -33 -247 45 -125 165 -192 346 -192 74
0 92 3 120 23 51 34 72 68 72 119 2 92 -74 158 -180 158 -30 0 -52 5 -52 11 0
5 18 51 39 102 48 114 61 159 61 218 0 91 -44 168 -114 200 -46 21 -191 26
-236 8z"/>
<path d="M4505 4605 c-71 -25 -116 -102 -99 -172 18 -73 78 -113 171 -114 32
0 78 -4 103 -7 l45 -7 -45 -27 c-25 -14 -78 -43 -119 -64 -91 -48 -117 -87
-106 -160 12 -84 103 -155 178 -140 17 3 83 36 146 72 208 119 298 195 326
273 55 158 -61 300 -274 336 -124 21 -280 25 -326 10z"/>
<path d="M1870 4243 c-102 -17 -324 -116 -421 -187 -128 -95 -93 -265 58 -282
51 -6 50 -6 203 80 81 45 207 86 266 86 55 0 101 19 134 55 22 23 25 36 25 95
0 63 -3 72 -30 101 -16 17 -44 38 -62 45 -30 13 -116 17 -173 7z"/>
<path d="M2554 3719 c-129 -16 -271 -74 -316 -128 -51 -60 -49 -148 5 -208 48
-52 102 -55 202 -13 71 29 186 59 228 60 69 1 -90 -366 -290 -667 -41 -63 -79
-128 -83 -146 -10 -47 13 -114 55 -157 l36 -36 -26 -47 c-52 -92 -34 -184 48
-251 34 -27 46 -31 100 -31 54 0 77 7 177 54 63 30 151 67 195 82 73 26 80 27
83 11 5 -28 -54 -186 -120 -322 -72 -147 -81 -180 -66 -238 32 -128 201 -182
309 -99 90 69 231 389 275 624 44 235 -40 394 -235 439 -107 26 -234 10 -391
-49 -52 -20 -95 -35 -96 -34 -1 1 43 74 98 162 186 298 268 499 271 665 1 74
-2 93 -27 148 -48 104 -129 161 -259 182 -69 11 -85 11 -173 -1z"/>
<path d="M3983 3716 c-94 -31 -143 -98 -143 -197 0 -109 94 -229 230 -293 84
-39 191 -43 255 -9 78 41 125 112 125 187 0 38 -6 52 -34 83 -22 25 -36 53
-41 81 -11 65 -53 107 -133 133 -85 26 -203 33 -259 15z"/>
<path d="M1114 3519 c-80 -25 -281 -147 -319 -193 -24 -30 -30 -48 -33 -99 -3
-55 0 -67 26 -108 51 -79 152 -110 239 -74 42 18 47 16 34 -16 -37 -86 -176
-488 -196 -565 -25 -97 -55 -288 -55 -352 0 -90 52 -174 116 -187 16 -3 50
-10 75 -16 33 -7 59 -7 95 2 42 11 63 26 139 103 96 96 259 296 441 540 87
116 110 142 118 129 15 -26 -1 -176 -39 -368 -58 -297 -107 -623 -109 -725 -1
-105 13 -143 67 -184 43 -32 124 -28 171 8 63 47 70 67 72 185 2 124 48 415
101 631 60 249 64 354 23 719 -20 177 -101 249 -237 210 -63 -17 -170 -120
-295 -281 -180 -233 -210 -270 -214 -265 -3 2 9 42 26 88 58 155 118 363 129
443 24 174 -40 317 -169 375 -57 26 -126 26 -206 0z"/>
<path d="M3671 3259 c-99 -19 -188 -84 -245 -177 -45 -74 -80 -191 -72 -237
13 -69 85 -125 160 -125 47 0 76 12 111 48 27 26 39 30 108 36 130 10 201 51
243 141 56 118 7 240 -116 293 -56 24 -131 33 -189 21z"/>
<path d="M4660 3169 c-59 -24 -100 -85 -100 -149 0 -53 9 -70 85 -155 35 -38
74 -87 89 -109 l26 -38 -34 -40 c-70 -82 -52 -189 41 -237 72 -37 197 29 261
138 36 61 37 159 2 241 -53 123 -201 323 -257 346 -37 16 -77 17 -113 3z"/>
<path d="M4511 2278 c-63 -18 -118 -64 -147 -123 -24 -50 -26 -62 -20 -124 l7
-69 -93 25 c-111 30 -284 42 -355 24 -114 -29 -223 -112 -272 -209 -52 -103
-70 -271 -53 -524 8 -132 12 -151 36 -192 89 -152 323 -151 413 1 l28 48 -2
213 c-1 116 1 212 3 212 16 0 166 -42 196 -55 52 -21 194 -29 265 -15 124 26
222 100 268 202 23 50 29 82 33 158 5 112 -12 258 -37 315 -44 99 -157 146
-270 113z"/>
<path d="M2195 1833 c-31 -8 -85 -52 -106 -87 -16 -26 -19 -51 -19 -166 0
-159 30 -424 60 -530 30 -106 73 -191 123 -242 94 -97 364 -248 443 -248 111
0 192 91 182 206 -2 24 -2 44 -1 44 2 0 50 -34 108 -75 122 -87 159 -107 239
-130 124 -36 264 -5 392 87 121 86 131 233 22 306 -36 23 -51 27 -118 27 -67
0 -82 -4 -118 -27 -23 -16 -48 -28 -55 -28 -23 0 -257 167 -322 229 -149 144
-235 199 -319 208 -43 4 -60 0 -106 -24 -44 -23 -60 -39 -82 -82 -16 -30 -30
-47 -33 -40 -9 26 -25 182 -32 307 -7 141 -23 186 -84 235 -29 23 -49 29 -95
32 -33 2 -68 1 -79 -2z"/>
</g>
</svg>
