<?xml version="1.0" standalone="no"?>
<!DOCTYPE svg PUBLIC "-//W3C//DTD SVG 20010904//EN"
 "http://www.w3.org/TR/2001/REC-SVG-20010904/DTD/svg10.dtd">
<svg version="1.0" xmlns="http://www.w3.org/2000/svg"
 width="600.000000pt" height="600.000000pt" viewBox="0 0 600.000000 600.000000"
 preserveAspectRatio="xMidYMid meet">
<metadata>
Created by potrace 1.15, written by Peter Selinger 2001-2017
</metadata>
<g transform="translate(0.000000,600.000000) scale(0.100000,-0.100000)"
fill="#16364b" stroke="none">
<path d="M2178 5446 c-21 -8 -47 -24 -57 -37 -28 -35 -53 -133 -54 -214 -1
-61 3 -78 29 -125 58 -102 119 -125 307 -116 70 3 127 4 127 1 0 -3 -25 -56
-56 -118 -112 -223 -173 -418 -153 -491 13 -49 68 -103 113 -111 35 -7 96 13
128 42 10 9 32 62 49 117 17 56 75 193 130 306 85 176 100 214 105 271 7 75
-11 130 -64 191 -55 62 -117 82 -267 86 l-130 4 3 46 c8 104 -107 185 -210
148z"/>
<path d="M3662 5345 c-98 -28 -140 -61 -162 -127 -15 -49 0 -98 41 -132 41
-35 88 -42 145 -22 60 20 118 21 134 1 25 -30 6 -161 -44 -308 -25 -73 -46
-145 -46 -158 0 -13 9 -42 19 -65 45 -98 162 -122 233 -46 49 51 140 295 159
425 27 180 -50 341 -199 414 -66 32 -198 41 -280 18z"/>
<path d="M1720 4850 c-212 -24 -408 -87 -472 -150 -61 -60 -64 -150 -6 -215
16 -19 44 -39 62 -43 30 -8 31 -10 28 -54 -5 -60 20 -113 67 -143 26 -17 103
-38 276 -75 132 -28 281 -65 330 -81 99 -34 150 -34 194 -2 86 65 94 170 18
241 -34 32 -166 74 -361 117 -260 57 -260 57 -244 66 35 20 205 40 279 34 59
-5 83 -3 105 8 114 59 122 222 14 277 -47 24 -177 33 -290 20z"/>
<path d="M3220 4376 c-14 -8 -88 -37 -165 -65 -184 -68 -478 -186 -534 -215
-59 -29 -95 -93 -86 -150 11 -71 59 -117 135 -130 28 -5 58 3 140 37 58 24
218 90 355 146 138 57 267 112 287 124 96 53 100 204 7 253 -35 18 -106 18
-139 0z"/>
<path d="M4262 4351 c-104 -26 -139 -154 -66 -240 33 -39 77 -51 199 -52 133
-1 185 -15 204 -54 13 -26 12 -49 -4 -185 -28 -234 -28 -241 -8 -280 54 -104
194 -104 245 0 16 33 25 68 65 260 62 301 -42 482 -307 534 -94 18 -284 28
-328 17z"/>
<path d="M2150 3859 c-106 -32 -245 -49 -411 -49 -145 0 -158 -2 -190 -23 -37
-24 -79 -97 -79 -137 0 -37 40 -110 73 -134 26 -19 41 -21 170 -19 196 3 338
20 512 60 128 29 170 63 181 145 6 51 -25 120 -68 151 -38 28 -110 30 -188 6z"/>
<path d="M3700 3783 c-69 -16 -595 -277 -639 -317 -93 -83 -50 -233 72 -253
28 -4 58 5 151 46 63 28 163 76 222 107 58 31 107 54 109 52 2 -2 -1 -22 -8
-45 -26 -100 77 -201 182 -178 70 15 123 94 181 268 33 100 27 201 -16 253
-58 72 -142 94 -254 67z"/>
<path d="M4915 3311 c-89 -41 -130 -117 -125 -231 4 -120 4 -133 -4 -164 -4
-17 -58 -81 -140 -165 -143 -147 -176 -190 -232 -301 -100 -200 -116 -361 -51
-503 64 -139 226 -219 339 -169 96 42 135 117 124 239 -11 117 -8 142 20 221
24 65 39 87 133 189 58 63 121 134 139 157 113 144 159 300 141 480 -14 139
-49 197 -144 242 -62 29 -143 31 -200 5z"/>
<path d="M2015 3221 c-67 -41 -90 -96 -71 -167 13 -49 31 -74 71 -100 25 -16
54 -20 220 -24 l190 -5 -3 -47 c-7 -98 61 -179 151 -180 97 -2 149 66 155 203
7 146 -42 240 -151 293 -73 35 -155 46 -357 46 -153 0 -179 -2 -205 -19z"/>
<path d="M4290 3169 c-14 -6 -54 -38 -90 -73 -105 -102 -246 -187 -415 -249
-107 -39 -135 -46 -230 -62 -95 -15 -126 -31 -162 -85 -27 -39 -31 -106 -8
-149 21 -41 70 -79 111 -87 119 -22 549 126 749 259 93 61 197 148 231 192 98
129 -37 313 -186 254z"/>
<path d="M1262 2989 c-105 -52 -125 -192 -41 -285 16 -17 21 -47 30 -185 13
-199 50 -468 79 -578 13 -45 43 -123 69 -174 62 -123 101 -152 205 -152 62 0
78 4 114 28 83 55 110 172 59 260 -52 89 -108 280 -127 432 -5 44 -14 152 -20
240 -14 227 -40 309 -122 379 -69 60 -168 74 -246 35z"/>
<path d="M2099 2482 c-85 -29 -176 -88 -251 -165 -74 -76 -95 -123 -83 -186 9
-48 78 -117 128 -126 71 -14 105 1 186 80 101 97 134 114 146 75 10 -30 55
-81 82 -91 l24 -9 -20 -29 c-84 -118 -130 -304 -112 -446 38 -281 122 -392
257 -340 90 34 123 120 86 223 -51 142 -49 242 10 376 23 52 29 79 25 108 -6
46 -48 105 -86 121 -14 6 -28 12 -29 13 -2 1 7 17 20 34 32 43 32 127 0 191
-75 154 -228 222 -383 171z"/>
<path d="M3700 2180 c-25 -4 -169 -29 -320 -55 -549 -93 -646 -121 -687 -197
-24 -47 -23 -133 3 -183 26 -50 92 -102 142 -111 53 -10 211 12 412 57 246 56
409 88 495 97 69 8 76 6 121 -20 35 -20 63 -28 97 -28 54 0 79 10 120 49 42
39 57 74 57 136 0 103 -75 204 -179 240 -54 19 -196 28 -261 15z"/>
<path d="M4611 1600 c-25 -11 -66 -41 -93 -66 -69 -65 -113 -80 -308 -109
-340 -51 -575 -130 -769 -259 -134 -90 -191 -156 -191 -224 0 -28 0 -28 -63
-28 -56 1 -70 -3 -113 -31 -110 -73 -152 -88 -244 -88 -158 1 -296 70 -454
228 -55 55 -114 106 -133 113 -160 67 -318 -119 -242 -286 30 -66 205 -234
305 -292 277 -162 609 -195 871 -87 144 60 222 138 223 222 l0 39 39 -7 c58
-10 114 10 173 61 190 163 374 237 673 270 167 18 231 35 335 86 111 54 232
169 250 237 22 83 -17 174 -91 211 -60 31 -116 34 -168 10z"/>
</g>
</svg>
