<?xml version="1.0" standalone="no"?>
<!DOCTYPE svg PUBLIC "-//W3C//DTD SVG 20010904//EN"
 "http://www.w3.org/TR/2001/REC-SVG-20010904/DTD/svg10.dtd">
<svg version="1.0" xmlns="http://www.w3.org/2000/svg"
 width="600.000000pt" height="600.000000pt" viewBox="0 0 600.000000 600.000000"
 preserveAspectRatio="xMidYMid meet">
<metadata>
Created by potrace 1.15, written by Peter Selinger 2001-2017
</metadata>
<g transform="translate(0.000000,600.000000) scale(0.100000,-0.100000)"
fill="#16364b" stroke="none">
<path d="M1535 5766 c-20 -9 -67 -61 -138 -155 -161 -213 -191 -286 -147 -358
30 -50 64 -67 128 -65 47 1 75 11 173 60 153 78 333 195 347 228 22 46 15 83
-22 120 -45 45 -84 45 -161 -1 -60 -37 -81 -39 -51 -6 23 25 30 89 14 120 -28
52 -93 78 -143 57z"/>
<path d="M2348 5425 c-15 -8 -30 -24 -33 -36 -4 -11 -8 -114 -9 -227 -2 -176
-6 -219 -24 -286 -50 -182 -106 -259 -242 -331 -98 -52 -120 -78 -120 -137 1
-53 48 -98 105 -98 42 0 202 88 264 146 68 63 113 136 158 256 60 158 75 250
76 453 1 153 -1 185 -16 212 -31 57 -102 79 -159 48z"/>
<path d="M3530 5333 c-26 -10 -52 -37 -72 -77 -18 -35 -19 -45 -9 -92 35 -157
232 -312 347 -274 91 30 110 124 49 239 -37 71 -101 143 -146 167 -69 35 -134
50 -169 37z"/>
<path d="M3015 5141 c-157 -40 -265 -238 -199 -366 48 -92 159 -110 288 -46
75 37 89 57 108 161 30 162 -66 284 -197 251z"/>
<path d="M4771 4783 c-67 -34 -76 -60 -74 -193 4 -348 119 -565 300 -563 175
1 297 244 219 435 -13 31 -38 76 -57 99 -62 79 -258 219 -324 233 -20 4 -42 0
-64 -11z m219 -443 c0 -13 -1 -13 -10 0 -5 8 -10 22 -10 30 0 13 1 13 10 0 5
-8 10 -22 10 -30z"/>
<path d="M2709 4235 c-66 -21 -138 -73 -174 -123 -27 -39 -30 -52 -30 -115 0
-81 17 -124 67 -176 54 -55 103 -75 188 -75 123 -1 225 46 336 154 73 71 87
100 82 166 -7 84 -39 117 -146 150 -107 34 -251 42 -323 19z"/>
<path d="M1051 4080 c-36 -36 -47 -85 -32 -133 19 -55 57 -83 146 -105 150
-38 164 -50 91 -82 -61 -27 -147 -48 -244 -59 -71 -8 -88 -13 -113 -37 -76
-73 -55 -207 36 -233 40 -11 215 8 313 33 161 42 279 125 328 231 46 98 24
198 -61 273 -86 75 -263 142 -377 142 -50 0 -60 -4 -87 -30z"/>
<path d="M4200 3762 c-99 -33 -183 -102 -228 -187 -36 -68 -38 -188 -4 -252
55 -105 161 -168 277 -167 199 2 344 189 345 442 0 94 -17 127 -78 155 -66 30
-234 35 -312 9z m84 -274 c-15 -27 -38 -48 -51 -48 -21 0 -15 27 9 44 27 19
52 21 42 4z"/>
<path d="M1653 3700 c-45 -27 -61 -56 -79 -141 -38 -185 58 -359 212 -384 89
-14 180 36 229 126 39 73 41 169 5 244 -30 62 -97 130 -153 155 -59 27 -170
27 -214 0z"/>
<path d="M5180 3634 c-142 -38 -233 -104 -277 -202 -22 -48 -25 -64 -21 -140
5 -99 25 -147 89 -217 145 -157 409 -85 520 141 29 58 34 78 34 143 0 65 -4
83 -27 122 -28 48 -111 125 -165 153 -39 19 -80 20 -153 0z m30 -311 c0 -10
-32 -43 -42 -43 -13 0 -9 17 8 34 16 16 34 21 34 9z"/>
<path d="M3407 3372 c-39 -26 -72 -73 -129 -186 -69 -137 -65 -194 17 -233 29
-14 40 -14 79 -3 26 7 67 26 91 41 85 54 158 204 141 290 -16 88 -127 138
-199 91z"/>
<path d="M2645 3243 c-16 -2 -79 -15 -140 -29 -166 -39 -280 -99 -455 -239
-107 -85 -170 -127 -240 -161 -277 -131 -363 -195 -454 -336 -116 -182 -175
-385 -163 -563 14 -201 90 -341 259 -477 51 -41 147 -130 213 -197 68 -70 152
-144 195 -172 88 -59 222 -105 331 -114 140 -13 333 38 509 133 89 48 300 183
374 239 79 61 239 224 293 299 208 289 232 333 255 454 20 110 -13 293 -77
419 -39 78 -181 276 -255 356 -26 28 -54 71 -63 96 -11 29 -39 67 -77 104
-152 151 -316 212 -505 188z m130 -435 c22 -24 90 -86 150 -139 74 -64 136
-129 189 -200 154 -203 172 -305 73 -415 -19 -22 -49 -64 -67 -94 -50 -85
-150 -208 -232 -286 -120 -114 -410 -276 -554 -309 -141 -33 -221 1 -396 165
-68 64 -159 146 -203 182 -55 45 -91 84 -110 120 -28 50 -30 60 -30 164 0 108
1 112 39 189 51 104 151 205 256 259 126 65 280 156 385 226 150 101 230 138
355 166 91 20 100 18 145 -28z"/>
<path d="M384 2246 c-27 -27 -34 -42 -34 -72 0 -80 70 -282 139 -399 53 -90
174 -208 252 -245 178 -84 348 18 317 190 -22 124 -116 243 -298 378 -260 193
-311 213 -376 148z m441 -514 c-9 -9 -125 114 -125 131 1 6 30 -19 66 -56 36
-38 63 -72 59 -75z"/>
<path d="M4313 1879 c-51 -10 -80 -35 -98 -83 -16 -41 -16 -59 -6 -178 30
-328 105 -467 254 -468 76 0 130 39 167 122 27 63 99 357 107 440 5 62 4 71
-20 107 -48 72 -152 90 -214 37 l-27 -23 -33 20 c-44 25 -90 35 -130 26z"/>
</g>
</svg>
