<?xml version="1.0" standalone="no"?>
<!DOCTYPE svg PUBLIC "-//W3C//DTD SVG 20010904//EN"
 "http://www.w3.org/TR/2001/REC-SVG-20010904/DTD/svg10.dtd">
<svg version="1.0" xmlns="http://www.w3.org/2000/svg"
 width="600.000000pt" height="600.000000pt" viewBox="0 0 600.000000 600.000000"
 preserveAspectRatio="xMidYMid meet">
<metadata>
Created by potrace 1.15, written by Peter Selinger 2001-2017
</metadata>
<g transform="translate(0.000000,600.000000) scale(0.100000,-0.100000)"
fill="#16364b" stroke="none">
<path d="M3130 5669 c-36 -15 -59 -39 -82 -83 -17 -32 -19 -54 -16 -135 3 -85
7 -104 36 -164 19 -37 59 -95 90 -128 48 -52 74 -70 178 -120 68 -32 126 -59
131 -59 4 0 18 -8 30 -18 23 -17 22 -18 -164 -137 -345 -221 -433 -293 -433
-353 0 -13 -19 -31 -57 -54 -73 -43 -103 -86 -103 -147 0 -121 126 -180 248
-116 49 25 144 49 247 60 84 9 118 21 149 53 51 54 54 134 6 195 l-20 25 47
35 c27 19 98 67 158 107 61 40 134 93 163 117 204 173 120 380 -227 562 -70
37 -134 78 -151 97 -29 33 -50 88 -50 132 0 34 -24 84 -53 110 -29 27 -90 37
-127 21z"/>
<path d="M1212 5333 c-170 -104 -301 -273 -361 -468 -54 -173 -29 -416 52
-492 119 -114 314 3 256 154 -40 103 -29 218 30 338 45 90 105 159 185 210 98
63 124 125 87 209 -41 95 -141 114 -249 49z"/>
<path d="M1545 5115 c-155 -43 -167 -246 -18 -296 26 -8 33 -15 27 -28 -41
-99 -54 -152 -54 -232 0 -76 4 -93 30 -147 35 -69 83 -115 149 -145 62 -28
220 -30 268 -4 51 27 78 74 78 134 0 88 -56 142 -157 152 -75 7 -74 0 -16 146
75 187 72 280 -10 365 -30 31 -61 52 -87 59 -53 14 -148 12 -210 -4z"/>
<path d="M4473 4590 c-47 -28 -65 -62 -65 -120 1 -60 24 -106 70 -137 26 -17
54 -23 132 -29 55 -3 100 -10 100 -15 0 -4 -48 -36 -106 -70 -113 -67 -138
-94 -149 -161 -15 -86 80 -189 160 -173 69 13 290 158 387 253 85 83 112 141
106 226 -5 74 -33 121 -98 164 -62 42 -132 60 -284 72 -182 14 -216 13 -253
-10z"/>
<path d="M1923 4238 c-123 -17 -374 -120 -481 -198 -94 -68 -96 -198 -4 -268
27 -21 46 -26 86 -26 45 0 58 5 113 45 114 85 250 141 398 164 27 5 51 18 77
45 34 33 38 43 38 87 0 58 -28 107 -75 134 -41 23 -79 27 -152 17z"/>
<path d="M2614 3706 c-34 -7 -124 -34 -200 -62 -152 -54 -198 -87 -210 -149
-15 -84 26 -153 104 -174 35 -10 50 -8 99 9 140 51 206 70 238 70 32 0 35 -2
35 -30 0 -75 -79 -237 -228 -470 -171 -268 -172 -269 -172 -318 0 -54 24 -107
61 -134 l27 -21 -20 -39 c-45 -85 -4 -214 82 -258 64 -33 118 -27 232 26 101
46 230 96 281 108 24 6 27 3 27 -17 0 -60 -64 -209 -152 -352 -64 -107 -71
-157 -31 -235 23 -46 37 -60 83 -83 46 -24 63 -28 108 -23 29 2 67 13 85 23
43 25 103 117 157 238 130 297 174 540 120 661 -29 67 -91 127 -164 160 -115
53 -310 44 -477 -22 -35 -13 -64 -22 -66 -21 -2 2 52 89 119 192 204 317 251
424 252 575 2 174 -90 306 -240 345 -67 17 -68 17 -150 1z"/>
<path d="M3980 3699 c-172 -50 -204 -226 -68 -370 185 -195 357 -227 481 -90
69 77 73 170 8 231 -29 28 -38 44 -39 73 -2 45 -25 92 -55 112 -62 40 -251 66
-327 44z"/>
<path d="M1115 3526 c-89 -28 -280 -148 -320 -200 -98 -130 -10 -299 155 -299
32 0 69 7 88 17 17 9 32 15 32 13 0 -3 -14 -37 -31 -78 -128 -310 -243 -826
-210 -945 23 -86 105 -134 227 -134 64 0 92 18 180 117 42 49 131 145 196 215
156 166 223 249 299 371 73 117 77 115 78 -39 1 -127 -14 -207 -90 -476 -72
-257 -93 -367 -87 -469 8 -139 67 -213 167 -213 57 1 106 25 131 66 15 25 18
50 18 132 -1 88 4 118 36 231 115 402 140 585 117 857 -26 302 -29 325 -50
366 -33 65 -81 95 -157 100 -54 4 -73 0 -118 -22 -77 -38 -200 -171 -341 -370
-64 -91 -119 -166 -120 -166 -4 0 -2 8 25 120 12 47 43 153 70 236 77 235 84
332 33 441 -55 118 -192 172 -328 129z"/>
<path d="M3649 3237 c-134 -38 -233 -145 -284 -308 -23 -72 -14 -119 29 -166
28 -31 40 -37 88 -41 68 -5 120 17 151 63 19 30 27 33 102 44 171 24 272 109
269 228 -2 74 -38 123 -118 165 -50 25 -172 33 -237 15z"/>
<path d="M4653 3181 c-58 -27 -93 -81 -93 -147 0 -48 4 -55 54 -112 58 -65
103 -127 130 -180 l17 -34 -40 -34 c-138 -119 -5 -330 163 -260 50 21 108 78
136 133 22 42 25 61 25 153 0 97 -3 110 -32 172 -83 176 -222 329 -300 328
-10 0 -37 -9 -60 -19z"/>
<path d="M4485 2263 c-83 -43 -117 -106 -115 -207 1 -39 2 -74 1 -77 -1 -4
-42 4 -92 17 -239 62 -457 30 -584 -87 -122 -113 -164 -289 -146 -619 10 -179
23 -223 82 -274 120 -102 300 -58 384 95 l30 54 0 198 c0 125 4 197 10 197 25
-1 155 -32 209 -51 89 -30 260 -31 336 -1 165 65 253 237 236 461 -12 161 -51
237 -148 285 -61 31 -154 35 -203 9z"/>
<path d="M2195 1818 c-50 -18 -92 -55 -115 -103 -22 -45 -22 -50 -11 -202 23
-299 54 -450 124 -604 58 -126 172 -231 331 -304 97 -45 152 -53 211 -31 85
33 132 115 122 212 -3 30 -4 54 -1 54 2 0 59 -38 127 -84 149 -102 187 -122
274 -142 117 -27 229 -3 351 75 137 89 136 248 -3 312 -61 28 -128 25 -190
-10 -41 -23 -55 -27 -71 -18 -32 18 -266 198 -314 241 -55 50 -190 146 -247
175 -81 41 -181 18 -241 -55 -17 -20 -34 -50 -37 -66 -10 -45 -22 -33 -34 35
-17 100 -21 134 -30 275 -9 118 -13 138 -35 173 -45 67 -131 95 -211 67z"/>
</g>
</svg>
