<?xml version="1.0" standalone="no"?>
<!DOCTYPE svg PUBLIC "-//W3C//DTD SVG 20010904//EN"
 "http://www.w3.org/TR/2001/REC-SVG-20010904/DTD/svg10.dtd">
<svg version="1.0" xmlns="http://www.w3.org/2000/svg"
 width="600.000000pt" height="600.000000pt" viewBox="0 0 600.000000 600.000000"
 preserveAspectRatio="xMidYMid meet">
<metadata>
Created by potrace 1.15, written by Peter Selinger 2001-2017
</metadata>
<g transform="translate(0.000000,600.000000) scale(0.100000,-0.100000)"
fill="#16364b" stroke="none">
<path d="M2012 5803 c-17 -10 -53 -48 -80 -84 -26 -36 -97 -125 -157 -198
-135 -163 -186 -235 -231 -327 -66 -132 -54 -245 32 -310 33 -26 46 -29 108
-29 65 0 81 5 171 48 103 50 507 278 582 329 81 55 92 156 24 222 -31 30 -92
48 -131 39 -14 -3 -78 -35 -143 -71 -65 -35 -120 -62 -123 -59 -3 3 10 22 29
44 59 67 137 176 144 200 9 39 -3 113 -24 142 -51 68 -134 90 -201 54z"/>
<path d="M3015 5696 c-41 -18 -83 -69 -90 -110 -7 -35 13 -96 42 -128 9 -11
67 -44 127 -74 360 -181 466 -291 466 -483 0 -51 -2 -57 -45 -97 -36 -35 -62
-48 -129 -69 -91 -28 -128 -51 -151 -95 -47 -91 30 -200 142 -200 48 0 169 41
228 77 60 37 132 111 170 173 48 79 65 148 65 260 0 195 -61 326 -211 456
-145 124 -448 294 -539 301 -25 2 -59 -3 -75 -11z"/>
<path d="M940 5377 c-135 -46 -237 -133 -296 -252 -100 -203 -52 -435 122
-594 97 -89 161 -108 233 -71 64 32 99 110 85 187 -6 29 -22 52 -75 103 -83
79 -114 141 -104 207 12 79 59 117 194 153 66 18 101 57 101 115 0 53 -16 88
-57 127 -56 53 -104 59 -203 25z"/>
<path d="M2755 4991 c-55 -25 -103 -75 -134 -141 -23 -49 -26 -67 -26 -170 0
-106 2 -119 27 -167 59 -111 182 -160 353 -138 45 5 65 14 93 39 30 28 36 40
40 88 6 72 -14 109 -71 137 -24 12 -50 21 -57 21 -8 0 2 11 21 24 42 29 69 79
69 131 0 130 -187 235 -315 176z m130 -339 c-3 -3 -11 0 -18 7 -9 10 -8 11 6
5 10 -3 15 -9 12 -12z"/>
<path d="M4749 4901 c-71 -48 -84 -79 -82 -196 4 -237 113 -449 267 -521 108
-50 243 -22 319 67 39 44 67 119 67 173 -1 140 -109 311 -259 410 -154 102
-233 119 -312 67z"/>
<path d="M1903 4616 c-53 -17 -123 -58 -170 -99 -82 -72 -84 -172 -4 -240 60
-50 125 -48 211 8 67 43 86 44 108 4 45 -83 96 -119 170 -119 44 0 93 29 126
73 49 66 10 204 -80 287 -71 66 -136 92 -234 96 -55 3 -100 -1 -127 -10z"/>
<path d="M2980 3951 c-114 -35 -217 -140 -260 -265 -55 -161 -20 -317 96 -426
61 -58 163 -110 214 -110 108 0 183 116 135 209 -17 34 -61 73 -102 90 -52 21
-67 84 -37 144 22 43 32 48 75 42 45 -8 112 18 139 52 67 85 35 209 -64 254
-43 19 -147 24 -196 10z"/>
<path d="M1195 3900 c-107 -15 -244 -51 -276 -73 -45 -31 -70 -68 -79 -116
-23 -127 67 -234 196 -233 30 0 54 -3 54 -8 0 -4 -50 -86 -111 -181 -195 -305
-291 -486 -349 -663 -38 -114 -11 -213 72 -264 77 -47 160 -37 232 28 23 20
110 92 195 160 84 68 216 180 294 249 196 176 271 240 280 241 14 0 7 -102
-18 -227 -47 -240 -99 -385 -213 -592 -33 -58 -73 -131 -89 -161 -16 -30 -49
-89 -71 -131 -63 -114 -55 -195 24 -255 32 -25 46 -29 100 -29 55 0 67 4 88
25 32 33 214 352 288 508 92 191 143 362 202 677 45 238 25 395 -62 488 -70
75 -178 89 -277 37 -67 -35 -105 -63 -236 -177 -53 -46 -99 -83 -102 -83 -3 0
25 51 62 113 85 139 147 260 166 324 34 110 9 223 -61 281 -66 55 -188 79
-309 62z"/>
<path d="M4192 3779 c-110 -21 -218 -106 -253 -199 -63 -165 44 -388 209 -436
181 -53 368 81 493 354 46 98 52 154 22 204 -25 43 -65 65 -143 77 -76 13
-266 13 -328 0z m98 -308 c0 -13 -41 -41 -58 -41 -20 0 -9 23 19 37 29 15 39
16 39 4z"/>
<path d="M3502 3388 c-100 -17 -177 -115 -243 -307 -37 -106 -15 -184 61 -224
29 -15 49 -17 108 -12 145 12 253 80 309 193 90 183 -44 384 -235 350z"/>
<path d="M4919 2942 c-79 -51 -212 -200 -254 -285 -83 -168 -50 -321 83 -379
60 -27 126 -19 218 26 163 81 254 216 254 376 0 95 -22 148 -87 211 -32 31
-68 62 -80 68 -37 19 -86 13 -134 -17z"/>
<path d="M4040 2534 c-76 -33 -140 -129 -140 -210 0 -23 16 -99 35 -170 19
-70 35 -128 35 -129 0 -1 -41 13 -92 32 -81 31 -101 35 -168 31 -64 -2 -85 -8
-126 -33 -61 -38 -117 -111 -139 -183 -27 -83 -16 -222 29 -402 56 -218 95
-334 127 -373 87 -106 271 -106 358 -1 59 73 65 156 21 299 -16 54 -30 102
-30 108 0 6 17 -5 38 -25 78 -76 166 -95 269 -57 163 61 233 164 233 345 0
185 -106 619 -171 697 -63 76 -192 109 -279 71z"/>
<path d="M2900 2155 c-129 -27 -272 -86 -432 -179 -54 -31 -102 -56 -106 -56
-5 0 -14 22 -21 50 -29 112 -115 177 -220 167 -32 -2 -75 -14 -97 -25 -61 -32
-197 -180 -238 -259 -22 -44 -21 -130 3 -169 39 -64 137 -113 196 -98 22 5 25
3 25 -19 0 -21 -9 -30 -52 -50 -156 -73 -276 -234 -310 -417 -23 -125 15 -295
99 -433 122 -202 471 -415 723 -441 190 -20 426 77 591 243 50 50 68 77 78
113 45 163 -126 290 -283 211 -15 -8 -60 -41 -98 -73 -88 -74 -147 -103 -222
-108 -132 -10 -281 57 -395 177 -62 66 -104 212 -87 304 6 34 46 87 65 87 5 0
34 -35 64 -77 112 -161 203 -210 305 -167 54 22 89 60 108 116 26 80 8 139
-70 227 -49 55 -92 139 -102 198 -6 40 -6 40 29 46 19 3 88 37 153 76 122 73
301 165 342 176 30 8 29 -1 -14 -142 -41 -137 -93 -270 -158 -402 -33 -68 -46
-107 -46 -138 0 -144 121 -226 263 -177 59 20 105 71 156 171 95 190 215 579
228 738 14 174 -78 293 -253 330 -83 18 -138 18 -224 0z"/>
</g>
</svg>
