<?xml version="1.0" standalone="no"?>
<!DOCTYPE svg PUBLIC "-//W3C//DTD SVG 20010904//EN"
 "http://www.w3.org/TR/2001/REC-SVG-20010904/DTD/svg10.dtd">
<svg version="1.0" xmlns="http://www.w3.org/2000/svg"
 width="600.000000pt" height="600.000000pt" viewBox="0 0 600.000000 600.000000"
 preserveAspectRatio="xMidYMid meet">
<metadata>
Created by potrace 1.15, written by Peter Selinger 2001-2017
</metadata>
<g transform="translate(0.000000,600.000000) scale(0.100000,-0.100000)"
fill="#16364b" stroke="none">
<path d="M1513 5753 c-21 -20 -43 -66 -77 -156 -59 -163 -86 -274 -86 -360 0
-82 19 -127 68 -165 29 -22 46 -27 91 -26 70 0 102 17 187 96 66 62 273 296
306 347 59 89 -26 199 -133 171 -30 -8 -56 -31 -127 -113 -123 -141 -129 -145
-99 -66 14 35 34 86 46 112 26 60 26 94 2 131 -42 63 -127 76 -178 29z"/>
<path d="M871 5535 c-74 -21 -163 -77 -234 -148 -170 -170 -165 -392 11 -518
46 -33 63 -39 104 -39 58 0 95 22 114 66 21 51 8 89 -47 136 -42 35 -49 46
-49 78 0 78 101 180 179 180 17 0 49 -9 71 -20 49 -25 86 -25 126 -1 69 42 67
140 -3 202 -77 67 -176 90 -272 64z"/>
<path d="M2364 5371 c-17 -10 -36 -32 -42 -47 -6 -16 -13 -105 -16 -199 -9
-318 -69 -442 -264 -544 -45 -23 -90 -54 -100 -69 -60 -84 -14 -194 81 -194
40 0 157 57 243 117 173 123 250 330 270 720 8 148 -1 180 -59 215 -40 25 -73
25 -113 1z"/>
<path d="M3484 5370 c-12 -4 -31 -21 -43 -37 -18 -22 -22 -37 -18 -73 16 -146
45 -218 119 -291 110 -110 239 -136 311 -61 60 63 53 142 -24 257 -61 91 -107
131 -204 178 -76 37 -103 43 -141 27z"/>
<path d="M2980 5143 c-88 -30 -176 -120 -200 -203 -14 -49 -12 -125 4 -163 7
-18 29 -47 49 -64 65 -57 145 -56 266 2 47 23 77 44 90 65 24 40 46 168 37
221 -20 128 -120 186 -246 142z"/>
<path d="M4752 4770 c-49 -30 -54 -56 -49 -225 7 -220 44 -327 143 -414 49
-43 147 -81 208 -81 101 0 193 64 217 152 17 61 -1 154 -47 247 -49 100 -176
229 -289 295 -90 52 -131 58 -183 26z m254 -421 c8 -17 13 -36 11 -42 -3 -10
-47 62 -47 78 0 13 21 -8 36 -36z"/>
<path d="M2728 4215 c-147 -37 -228 -125 -228 -248 0 -72 18 -122 62 -172 134
-152 398 -132 592 46 37 34 76 79 86 100 39 76 15 176 -53 217 -82 52 -351 85
-459 57z"/>
<path d="M1075 4070 c-23 -11 -48 -33 -58 -49 -35 -59 -13 -161 42 -200 14
-10 53 -24 86 -30 77 -16 155 -41 155 -50 0 -26 -126 -90 -309 -157 -79 -29
-155 -63 -169 -76 -96 -88 -54 -256 65 -258 76 0 412 138 531 219 l62 42 0
-28 c0 -15 8 -42 18 -60 9 -17 31 -58 49 -90 58 -110 157 -174 275 -181 109
-7 190 38 241 133 31 57 30 171 -1 241 -45 100 -147 173 -255 181 -52 5 -74 1
-127 -20 -35 -15 -65 -25 -67 -24 -1 2 5 23 13 47 55 158 -67 285 -338 349
-141 33 -168 34 -213 11z"/>
<path d="M4193 3755 c-202 -63 -327 -285 -243 -435 96 -171 382 -189 538 -33
60 60 91 126 107 226 24 153 -11 205 -166 242 -78 18 -179 18 -236 0z m87
-262 c0 -15 -34 -43 -52 -43 -26 0 -18 22 13 37 27 14 39 16 39 6z"/>
<path d="M5160 3548 c-118 -45 -238 -150 -290 -254 -32 -64 -39 -163 -16 -232
22 -64 83 -134 143 -163 133 -64 336 5 430 148 38 56 38 57 38 157 0 89 -3
108 -27 159 -35 74 -111 173 -148 192 -38 20 -64 18 -130 -7z m10 -352 c0 -2
-8 -10 -17 -17 -16 -13 -17 -12 -4 4 13 16 21 21 21 13z"/>
<path d="M2508 3381 c-167 -55 -271 -180 -354 -426 -56 -168 -96 -218 -229
-287 -162 -84 -297 -196 -394 -327 -92 -124 -185 -342 -212 -497 -43 -249 74
-599 258 -768 62 -57 199 -139 296 -177 270 -104 486 -98 732 20 253 121 422
323 529 629 65 187 78 282 83 597 5 250 3 293 -15 400 -30 173 -137 492 -202
605 -49 83 -152 183 -225 216 -77 35 -188 42 -267 15z m143 -442 c15 -30 34
-74 43 -99 8 -25 31 -87 51 -138 89 -231 128 -482 107 -685 -14 -133 -59 -317
-103 -424 -121 -289 -436 -448 -704 -355 -149 52 -264 148 -323 270 -30 63
-36 86 -40 166 -3 69 0 107 13 152 42 145 166 321 292 414 33 25 99 65 144 90
63 34 108 69 180 140 111 110 142 161 198 322 53 156 82 213 105 205 5 -2 22
-28 37 -58z"/>
<path d="M3424 3381 c-61 -28 -176 -193 -204 -293 -18 -62 21 -124 88 -141 44
-11 151 28 194 69 78 77 125 217 99 297 -24 71 -104 102 -177 68z"/>
<path d="M513 2400 c-11 -5 -28 -19 -38 -32 -40 -56 -84 -132 -89 -154 -16
-62 90 -331 187 -476 160 -241 342 -325 490 -227 118 78 128 242 28 454 -80
171 -189 275 -417 396 -90 49 -119 56 -161 39z m244 -395 c76 -69 134 -153
152 -220 35 -129 -99 -7 -194 177 -68 131 -62 138 42 43z"/>
<path d="M4302 2095 c-18 -8 -45 -28 -61 -46 l-29 -31 -28 18 c-19 13 -46 19
-85 19 -65 0 -98 -18 -137 -76 -28 -40 -27 -82 7 -304 28 -182 27 -176 55
-217 13 -20 30 -53 37 -74 20 -56 86 -118 140 -132 84 -21 172 17 224 96 59
90 107 327 109 532 1 118 0 127 -23 158 -48 63 -138 88 -209 57z"/>
</g>
</svg>
