<?xml version="1.0" standalone="no"?>
<!DOCTYPE svg PUBLIC "-//W3C//DTD SVG 20010904//EN"
 "http://www.w3.org/TR/2001/REC-SVG-20010904/DTD/svg10.dtd">
<svg version="1.0" xmlns="http://www.w3.org/2000/svg"
 width="600.000000pt" height="600.000000pt" viewBox="0 0 600.000000 600.000000"
 preserveAspectRatio="xMidYMid meet">
<metadata>
Created by potrace 1.15, written by Peter Selinger 2001-2017
</metadata>
<g transform="translate(0.000000,600.000000) scale(0.100000,-0.100000)"
fill="#16364b" stroke="none">
<path d="M2930 5553 c-31 -11 -80 -68 -86 -99 -9 -47 3 -88 43 -145 19 -28 44
-77 55 -108 26 -73 34 -210 18 -294 -20 -106 17 -172 108 -197 87 -23 161 28
183 126 20 87 18 311 -4 404 -33 141 -117 274 -194 306 -32 14 -95 17 -123 7z"/>
<path d="M1969 5397 c-19 -12 -43 -39 -53 -59 -18 -32 -19 -41 -7 -92 17 -76
81 -161 156 -206 124 -75 141 -101 200 -300 42 -144 62 -182 109 -204 102 -48
209 18 209 129 0 52 -75 290 -120 379 -44 87 -107 155 -183 195 -60 32 -90 62
-90 91 -1 18 -26 49 -60 73 -37 26 -119 23 -161 -6z"/>
<path d="M1462 4780 c-72 -8 -109 -30 -134 -81 -39 -76 -6 -175 72 -216 40
-21 56 -23 199 -23 178 -1 286 -17 365 -54 63 -30 91 -32 145 -10 39 16 82 66
96 112 12 42 -4 111 -36 146 -51 59 -176 106 -329 125 -93 12 -279 12 -378 1z"/>
<path d="M4331 4723 c-49 -26 -74 -64 -75 -115 -1 -35 14 -73 76 -198 43 -87
93 -206 113 -270 60 -193 82 -221 182 -228 76 -5 121 23 142 87 12 37 11 51
-4 113 -57 237 -201 538 -286 601 -38 28 -106 32 -148 10z"/>
<path d="M3183 4507 c-11 -7 -92 -82 -180 -167 -87 -85 -217 -202 -288 -259
-140 -111 -175 -154 -175 -214 0 -121 117 -188 218 -123 230 148 595 497 621
593 17 63 -9 131 -62 163 -36 22 -101 26 -134 7z"/>
<path d="M1680 4308 c-18 -13 -42 -39 -52 -58 -40 -73 0 -183 76 -215 105 -44
431 -68 578 -42 107 19 150 43 178 103 36 74 15 140 -61 192 -33 23 -38 23
-149 16 -142 -10 -225 -7 -359 12 -142 19 -172 18 -211 -8z"/>
<path d="M3835 4059 c-16 -5 -57 -32 -90 -60 -207 -179 -431 -318 -708 -439
-125 -55 -152 -86 -152 -171 0 -70 21 -104 87 -137 40 -20 50 -22 93 -12 59
13 298 133 425 212 232 146 493 346 522 400 43 79 0 176 -91 207 -39 13 -45
13 -86 0z"/>
<path d="M2235 3764 c-178 -38 -335 -50 -458 -35 -120 14 -154 6 -200 -48 -77
-92 -23 -223 103 -250 150 -32 671 14 763 67 33 20 67 86 67 132 0 57 -36 116
-84 139 -51 25 -52 25 -191 -5z"/>
<path d="M5015 3666 c-62 -28 -110 -82 -125 -138 -9 -33 -8 -60 5 -136 28
-156 6 -264 -96 -462 -74 -142 -168 -276 -278 -394 -95 -102 -121 -149 -121
-221 0 -57 33 -137 71 -172 71 -65 197 -85 282 -44 93 45 293 308 456 599 121
214 165 365 165 562 1 237 -41 356 -144 408 -61 30 -147 30 -215 -2z"/>
<path d="M1974 3130 c-58 -29 -88 -85 -82 -156 4 -42 11 -61 32 -83 61 -64
257 -124 454 -140 64 -5 124 -12 133 -16 28 -11 96 14 128 46 60 60 60 145 0
207 -38 39 -69 48 -252 72 -159 22 -195 30 -270 65 -63 30 -90 31 -143 5z"/>
<path d="M4405 3128 c-11 -6 -50 -37 -87 -69 -220 -189 -460 -286 -852 -344
-125 -18 -155 -32 -186 -88 -42 -74 -12 -175 64 -211 42 -20 98 -20 255 -1
237 30 388 73 576 165 197 97 393 238 430 311 19 36 19 122 0 163 -32 67 -142
107 -200 74z"/>
<path d="M1455 2951 c-72 -18 -113 -52 -141 -116 -25 -57 -25 -361 -1 -495 58
-316 128 -492 270 -683 34 -44 65 -74 92 -87 127 -62 275 34 275 179 0 54 -13
84 -67 155 -60 79 -136 238 -168 350 -36 126 -51 295 -37 423 12 112 6 150
-31 203 -37 55 -125 87 -192 71z"/>
<path d="M2102 2350 c-91 -56 -105 -192 -27 -266 24 -22 53 -36 107 -49 102
-24 196 -61 236 -92 129 -98 316 51 243 194 -37 74 -151 140 -344 202 -113 36
-169 39 -215 11z"/>
<path d="M4130 2064 c-292 -95 -837 -216 -1095 -244 -131 -15 -182 -35 -221
-86 -26 -33 -29 -45 -29 -110 0 -65 3 -76 31 -115 18 -24 52 -55 75 -67 40
-22 52 -23 129 -18 109 7 223 27 435 76 305 71 748 180 830 205 123 37 175 98
175 205 0 83 -40 144 -113 175 -53 22 -98 17 -217 -21z"/>
<path d="M4862 1696 c-24 -8 -67 -37 -102 -69 -248 -230 -437 -307 -1013 -412
-154 -28 -191 -44 -231 -98 -17 -23 -21 -43 -21 -102 0 -65 3 -78 30 -117 21
-30 48 -52 89 -73 l59 -29 111 23 c578 118 865 218 1071 376 94 72 227 210
255 264 28 55 24 123 -9 170 -46 64 -155 94 -239 67z"/>
<path d="M2045 1477 c-84 -47 -108 -148 -56 -228 107 -160 396 -309 667 -345
75 -9 134 19 163 78 26 56 27 90 0 144 -26 54 -66 79 -155 98 -138 29 -286
107 -403 210 -29 26 -64 52 -78 57 -41 15 -96 10 -138 -14z"/>
<path d="M2020 924 c-46 -20 -68 -41 -92 -88 -27 -52 -20 -140 13 -187 67 -94
425 -259 658 -303 108 -21 317 -21 419 -1 139 28 267 74 310 111 100 86 92
230 -16 305 -46 31 -136 32 -246 1 -43 -12 -118 -27 -166 -32 -165 -21 -386
33 -625 151 -131 65 -184 74 -255 43z"/>
</g>
</svg>
