<?xml version="1.0" standalone="no"?>
<!DOCTYPE svg PUBLIC "-//W3C//DTD SVG 20010904//EN"
 "http://www.w3.org/TR/2001/REC-SVG-20010904/DTD/svg10.dtd">
<svg version="1.0" xmlns="http://www.w3.org/2000/svg"
 width="600.000000pt" height="600.000000pt" viewBox="0 0 600.000000 600.000000"
 preserveAspectRatio="xMidYMid meet">
<metadata>
Created by potrace 1.15, written by Peter Selinger 2001-2017
</metadata>
<g transform="translate(0.000000,600.000000) scale(0.100000,-0.100000)"
fill="#16364b" stroke="none">
<path d="M3542 5270 c-24 -10 -42 -46 -42 -84 0 -40 68 -161 117 -209 61 -60
120 -85 163 -67 59 24 53 85 -19 198 -56 87 -112 146 -154 161 -33 13 -35 13
-65 1z m110 -167 c48 -67 51 -74 36 -68 -13 5 -78 94 -78 108 0 14 9 6 42 -40z"/>
<path d="M3025 5091 c-99 -45 -173 -197 -145 -300 31 -115 155 -112 245 6 81
106 97 231 36 285 -37 33 -77 36 -136 9z m83 -104 c4 -36 -43 -122 -87 -158
-20 -16 -39 -29 -43 -29 -5 0 -8 17 -8 38 0 54 42 138 82 162 40 24 52 22 56
-13z"/>
<path d="M4745 4705 c-23 -22 -25 -32 -25 -118 0 -117 17 -345 31 -416 14 -71
44 -101 99 -101 80 0 110 61 110 221 0 130 -32 289 -76 385 -27 56 -98 71
-139 29z"/>
<path d="M2615 4208 c-23 -27 -26 -39 -22 -76 6 -57 35 -87 124 -128 97 -46
191 -67 282 -62 65 3 76 6 97 31 29 34 32 86 7 115 -16 19 -110 58 -305 128
-37 13 -88 24 -112 24 -37 0 -48 -5 -71 -32z"/>
<path d="M1434 4046 c-90 -39 -139 -123 -132 -223 7 -103 43 -156 205 -303 61
-56 90 -130 156 -400 97 -393 130 -600 142 -880 23 -538 159 -831 452 -979 54
-27 141 -53 256 -76 l28 -6 -21 -27 c-91 -117 -130 -205 -130 -294 0 -115 70
-181 258 -242 28 -10 52 -23 52 -30 0 -7 -32 -19 -72 -29 -109 -25 -149 -77
-113 -146 41 -81 205 -61 297 36 75 79 75 191 0 255 -17 14 -66 40 -109 57
-147 60 -153 63 -159 88 -12 48 64 184 162 290 38 40 40 41 84 33 64 -13 236
-12 542 2 147 6 269 10 272 7 3 -2 -3 -30 -11 -62 -14 -48 -14 -65 -4 -113 17
-75 60 -121 153 -164 l73 -34 -32 -13 c-61 -24 -81 -87 -43 -135 28 -37 71
-51 138 -46 120 8 219 91 209 172 -10 76 -46 105 -208 166 -112 43 -139 62
-139 97 0 25 11 37 80 87 39 29 56 34 128 40 224 18 601 129 762 224 228 135
370 391 370 667 0 257 -147 531 -339 634 -150 79 -339 79 -496 -2 -33 -17 -85
-43 -115 -59 -68 -34 -210 -75 -310 -90 -43 -6 -134 -8 -215 -5 -327 14 -601
137 -852 385 -88 86 -185 208 -384 482 -149 206 -263 331 -371 409 -152 109
-305 205 -355 223 -61 21 -164 23 -209 4z m173 -204 c18 -9 59 -35 93 -57 33
-22 93 -61 133 -87 135 -86 210 -173 458 -523 232 -327 410 -503 662 -651 197
-117 435 -181 707 -191 229 -9 394 31 622 150 l120 62 96 0 c89 0 102 -3 150
-29 87 -49 160 -151 207 -289 30 -92 35 -231 9 -318 -45 -153 -156 -290 -287
-353 -80 -39 -350 -124 -497 -157 -85 -19 -147 -22 -575 -31 -339 -7 -518 -6
-610 1 -71 6 -182 11 -245 11 -275 1 -442 89 -534 283 -73 154 -103 301 -116
581 -13 253 -63 590 -137 906 -71 307 -121 421 -224 511 -115 101 -139 128
-139 158 0 15 3 31 7 34 12 13 68 7 100 -11z"/>
<path d="M2430 2513 c-52 -19 -66 -75 -27 -111 36 -34 73 -28 96 15 29 56 -14
116 -69 96z"/>
<path d="M2844 2115 c-19 -29 -12 -57 23 -85 33 -26 39 -25 68 5 47 46 24 105
-40 105 -26 0 -39 -6 -51 -25z"/>
<path d="M5255 3986 c-65 -21 -99 -42 -141 -88 -60 -65 -77 -119 -72 -225 5
-105 35 -178 101 -245 53 -55 107 -81 178 -86 155 -12 300 91 349 247 25 79
25 137 1 200 -26 70 -63 114 -139 163 -64 41 -69 43 -152 45 -49 2 -102 -3
-125 -11z m120 -288 c14 -6 25 -17 25 -24 0 -14 -30 -34 -50 -34 -16 0 -29 43
-18 58 13 15 11 15 43 0z"/>
<path d="M4197 3760 c-146 -37 -239 -159 -241 -315 0 -59 4 -78 29 -123 53
-98 155 -148 283 -140 189 11 317 147 299 317 -14 127 -57 194 -153 238 -59
27 -159 37 -217 23z m93 -279 c0 -21 -6 -30 -22 -35 -36 -9 -43 10 -15 38 33
33 37 33 37 -3z"/>
<path d="M493 2020 c-17 -7 -23 -18 -23 -39 0 -26 10 -38 73 -82 87 -62 201
-119 239 -119 36 0 64 40 49 68 -6 11 -21 26 -35 35 -30 20 -271 147 -277 146
-2 0 -14 -4 -26 -9z"/>
<path d="M5349 1110 c-56 -13 -104 -148 -78 -216 38 -100 152 -102 201 -3 25
50 24 159 -2 192 -21 26 -74 38 -121 27z"/>
</g>
</svg>
