<?xml version="1.0" standalone="no"?>
<!DOCTYPE svg PUBLIC "-//W3C//DTD SVG 20010904//EN"
 "http://www.w3.org/TR/2001/REC-SVG-20010904/DTD/svg10.dtd">
<svg version="1.0" xmlns="http://www.w3.org/2000/svg"
 width="600.000000pt" height="600.000000pt" viewBox="0 0 600.000000 600.000000"
 preserveAspectRatio="xMidYMid meet">
<metadata>
Created by potrace 1.15, written by Peter Selinger 2001-2017
</metadata>
<g transform="translate(0.000000,600.000000) scale(0.100000,-0.100000)"
fill="#16364b" stroke="none">
<path d="M2403 5378 c-5 -7 -15 -83 -22 -168 -26 -350 -110 -586 -240 -679
-25 -18 -67 -46 -93 -62 -39 -24 -48 -34 -48 -57 0 -34 16 -52 48 -52 41 0
144 62 208 125 133 132 225 410 241 732 5 104 4 126 -11 147 -18 28 -66 36
-83 14z"/>
<path d="M3530 5270 c-11 -11 -22 -31 -26 -44 -12 -49 87 -221 162 -280 49
-39 113 -47 143 -17 45 45 16 149 -74 263 -67 86 -161 122 -205 78z"/>
<path d="M3012 5110 c-45 -28 -77 -65 -105 -125 -72 -151 -54 -295 36 -295 64
0 156 80 221 192 35 61 45 142 22 186 -31 60 -112 80 -174 42z m78 -115 c0
-14 -9 -42 -19 -63 -22 -43 -88 -122 -102 -122 -15 0 -10 35 12 94 34 91 109
153 109 91z"/>
<path d="M4773 4736 l-28 -24 -8 -208 c-13 -306 7 -407 88 -434 63 -21 124 19
145 96 30 108 -10 416 -69 532 -34 66 -79 80 -128 38z"/>
<path d="M2649 4215 c-55 -30 -74 -96 -44 -154 19 -38 91 -85 173 -113 51 -17
89 -23 162 -23 102 0 144 14 174 57 19 27 20 87 2 111 -16 21 -191 91 -295
118 -87 22 -136 24 -172 4z"/>
<path d="M5215 3962 c-141 -49 -211 -161 -204 -325 3 -66 10 -93 33 -139 89
-175 277 -226 475 -127 113 57 181 158 189 284 8 121 -46 205 -184 290 -45 28
-57 30 -154 33 -80 2 -117 -2 -155 -16z m192 -296 c10 -10 -29 -46 -48 -46
-18 0 -39 27 -39 51 0 12 75 8 87 -5z"/>
<path d="M1295 3826 c-167 -77 -213 -271 -101 -418 41 -53 139 -122 199 -140
54 -16 123 -85 163 -163 63 -121 101 -267 129 -505 9 -74 28 -193 41 -265 14
-71 31 -170 40 -220 44 -267 112 -535 160 -626 23 -44 58 -89 94 -123 56 -51
195 -131 273 -156 45 -14 41 -20 -28 -45 -68 -25 -120 -78 -130 -133 -11 -65
25 -129 90 -162 47 -23 60 -25 195 -24 80 0 210 8 290 17 87 10 148 13 154 7
5 -5 -2 -21 -18 -40 -30 -36 -33 -65 -9 -100 23 -33 33 -40 66 -40 131 -1 175
220 62 309 -40 31 -102 35 -284 17 -181 -17 -351 -21 -351 -8 0 15 48 31 233
78 l182 45 234 -1 c128 -1 270 -5 315 -11 44 -5 103 -9 130 -9 39 0 55 -6 82
-30 19 -16 53 -34 76 -41 41 -11 156 -8 273 7 46 5 51 4 60 -18 13 -31 70 -58
122 -58 66 0 120 26 153 76 33 47 38 88 14 122 -12 18 -13 23 -2 26 7 3 65 19
128 36 363 99 611 281 755 553 71 134 96 261 83 414 -9 105 -30 176 -86 293
-39 79 -60 109 -132 181 -142 143 -284 197 -489 186 -174 -9 -271 -50 -395
-164 -170 -157 -456 -263 -710 -263 -133 0 -215 23 -381 105 -226 112 -313
198 -533 525 -61 91 -140 201 -175 245 -84 104 -252 272 -336 336 -70 53 -269
154 -370 189 -87 29 -200 27 -266 -4z m225 -252 c30 -14 77 -34 103 -44 199
-76 418 -300 688 -705 186 -279 358 -433 629 -564 159 -77 235 -94 410 -95
132 0 156 3 261 32 309 84 504 179 659 322 73 67 157 95 268 88 128 -9 210
-58 283 -172 155 -239 115 -523 -105 -741 -55 -54 -93 -81 -167 -117 -202
-100 -373 -141 -734 -178 -222 -22 -369 -25 -543 -10 -64 6 -272 12 -462 14
-378 3 -394 5 -513 68 -108 58 -159 140 -222 352 -19 64 -41 164 -50 224 -39
264 -46 317 -65 487 -25 219 -49 342 -95 475 -63 187 -148 331 -236 401 -22
17 -79 51 -127 74 -48 24 -95 52 -106 64 -48 53 30 69 124 25z"/>
<path d="M2342 2452 c-12 -2 -30 -15 -39 -28 -21 -32 -6 -67 37 -89 29 -15 34
-15 56 -1 65 43 25 130 -54 118z"/>
<path d="M2832 2054 c-28 -19 -28 -57 0 -83 29 -28 53 -34 78 -21 41 22 38 89
-6 108 -33 16 -45 15 -72 -4z"/>
<path d="M4162 3719 c-153 -76 -225 -259 -156 -397 46 -93 135 -145 249 -145
129 0 239 78 286 202 17 46 20 70 16 136 -9 131 -27 161 -122 206 -50 24 -73
29 -136 29 -65 0 -85 -5 -137 -31z m148 -243 c0 -17 -39 -48 -52 -40 -12 8
-10 21 8 38 19 20 44 21 44 2z"/>
<path d="M3456 3329 c-55 -65 -156 -255 -156 -293 0 -38 41 -62 79 -47 59 25
190 234 193 308 3 67 -70 87 -116 32z"/>
<path d="M493 2020 c-30 -12 -46 -45 -34 -67 23 -43 206 -166 272 -183 44 -12
83 0 98 29 26 48 -30 102 -184 176 -108 52 -124 56 -152 45z"/>
<path d="M5333 1118 c-52 -25 -92 -188 -63 -258 21 -50 81 -73 132 -49 54 24
99 151 83 235 -13 72 -84 105 -152 72z"/>
</g>
</svg>
