<?xml version="1.0" standalone="no"?>
<!DOCTYPE svg PUBLIC "-//W3C//DTD SVG 20010904//EN"
 "http://www.w3.org/TR/2001/REC-SVG-20010904/DTD/svg10.dtd">
<svg version="1.0" xmlns="http://www.w3.org/2000/svg"
 width="600.000000pt" height="600.000000pt" viewBox="0 0 600.000000 600.000000"
 preserveAspectRatio="xMidYMid meet">
<metadata>
Created by potrace 1.15, written by Peter Selinger 2001-2017
</metadata>
<g transform="translate(0.000000,600.000000) scale(0.100000,-0.100000)"
fill="#16364b" stroke="none">
<path d="M2316 5470 c-57 -18 -95 -75 -135 -204 -49 -160 0 -307 118 -348 51
-18 168 -16 299 6 62 10 115 16 118 14 3 -3 -28 -57 -69 -119 -103 -160 -212
-353 -263 -468 -58 -132 -61 -179 -18 -230 19 -23 26 -44 28 -79 2 -56 24 -95
69 -122 44 -27 92 -25 211 9 140 41 329 78 471 91 201 19 235 27 267 57 80 76
43 221 -63 251 -65 17 -431 -33 -624 -87 -38 -11 -71 -18 -73 -16 -12 12 123
248 217 380 173 240 210 313 211 405 0 64 -40 144 -89 179 -76 54 -197 65
-394 35 -59 -9 -110 -15 -112 -12 -3 3 2 21 10 41 31 75 10 151 -55 198 -31
22 -86 31 -124 19z"/>
<path d="M3875 4997 c-114 -39 -225 -109 -252 -160 -51 -99 23 -217 136 -217
36 0 60 9 111 40 82 50 139 73 176 68 29 -3 29 -4 32 -73 4 -97 -34 -241 -99
-373 -45 -92 -51 -110 -46 -151 6 -58 56 -107 117 -117 36 -6 40 -9 40 -36 0
-57 44 -113 101 -128 27 -8 62 -6 131 5 114 19 362 30 403 17 29 -8 30 -11 33
-69 3 -71 -20 -170 -78 -336 -46 -129 -49 -164 -18 -218 22 -39 84 -79 123
-79 34 0 100 39 122 72 31 48 109 280 123 369 18 113 9 280 -20 353 -30 79
-97 146 -176 176 -78 31 -267 38 -444 17 -69 -8 -127 -13 -129 -11 -2 2 10 34
26 71 41 91 81 254 89 361 14 199 -53 345 -191 412 -75 36 -215 39 -310 7z"/>
<path d="M1683 4940 c-142 -37 -280 -107 -429 -218 -113 -83 -134 -111 -134
-175 0 -45 7 -62 46 -124 55 -86 77 -97 234 -113 247 -26 347 -59 431 -143 82
-81 171 -87 241 -17 37 37 44 57 38 120 -3 41 -25 73 -92 136 -81 75 -182 129
-305 160 -53 13 -98 26 -100 28 -12 11 143 59 215 66 66 7 91 14 118 35 87 67
86 188 -2 246 -39 25 -163 25 -261 -1z"/>
<path d="M2120 3928 c-86 -35 -331 -90 -483 -107 -47 -6 -100 -17 -116 -25
-81 -42 -109 -152 -55 -216 48 -56 76 -65 201 -63 206 4 413 48 579 123 101
45 141 121 110 205 -24 61 -80 95 -157 94 -30 0 -65 -5 -79 -11z"/>
<path d="M3709 3729 c-20 -4 -60 -17 -89 -29 -71 -28 -402 -195 -451 -227 -48
-31 -79 -94 -79 -156 0 -40 5 -53 33 -83 28 -31 41 -37 83 -41 46 -4 61 2 268
107 120 61 221 108 224 106 9 -10 -39 -128 -109 -268 -79 -158 -86 -200 -45
-260 l24 -36 -38 -11 c-137 -41 -126 -243 16 -297 43 -16 50 -16 145 0 286 50
565 204 710 392 41 54 44 61 44 120 0 54 -4 67 -31 101 -44 55 -87 75 -153 70
-58 -4 -62 -7 -149 -116 -49 -61 -232 -191 -268 -191 -8 0 4 37 32 97 66 142
122 318 136 425 10 81 9 101 -6 150 -20 69 -52 110 -109 137 -46 22 -121 26
-188 10z"/>
<path d="M2360 3313 c-127 -20 -291 -59 -319 -75 -36 -23 -70 -86 -71 -131 0
-37 22 -87 51 -114 43 -38 86 -43 201 -22 56 10 136 21 175 25 90 8 94 2 64
-101 -25 -88 -26 -107 -4 -152 32 -69 128 -95 203 -55 75 40 146 253 123 366
-16 74 -36 114 -80 160 -77 79 -215 119 -343 99z"/>
<path d="M4890 3084 c-45 -20 -96 -69 -123 -119 -18 -33 -22 -57 -22 -143 l0
-104 -117 -71 c-137 -84 -218 -149 -272 -221 -142 -187 -165 -450 -58 -663 41
-81 116 -161 177 -189 l50 -24 -38 0 c-49 0 -71 -12 -132 -70 -61 -58 -87 -63
-226 -45 -153 21 -290 19 -383 -5 -167 -43 -337 -160 -490 -340 -58 -67 -91
-97 -124 -111 -24 -11 -66 -39 -94 -63 -135 -118 -243 -123 -401 -18 -74 48
-178 162 -227 247 -69 120 -172 164 -275 116 -102 -47 -136 -160 -79 -266 80
-150 227 -327 346 -413 310 -227 615 -209 891 52 21 20 55 43 75 52 21 8 80
59 137 117 109 113 194 176 289 215 69 29 143 33 356 18 104 -7 136 -6 190 8
142 36 260 117 314 216 24 44 28 60 24 110 -5 70 -42 133 -93 157 -38 18 -37
33 1 33 54 0 140 65 174 130 42 83 33 185 -23 262 -25 34 -32 55 -35 103 -6
106 0 112 267 264 67 38 151 116 187 172 62 99 79 234 49 380 -23 106 -66 169
-147 210 -45 23 -119 24 -168 3z"/>
<path d="M1185 3071 c-49 -22 -99 -77 -115 -127 -28 -85 14 -195 90 -236 25
-13 37 -27 42 -51 4 -17 12 -158 17 -313 11 -306 21 -390 57 -504 29 -91 51
-129 97 -164 67 -51 181 -50 247 2 40 33 80 104 80 144 0 16 -11 55 -25 88
-14 33 -25 64 -25 69 0 5 19 2 42 -6 76 -26 152 6 189 79 50 98 169 248 197
248 6 0 14 -10 18 -22 3 -13 13 -31 21 -40 13 -15 13 -29 -5 -125 -26 -134
-32 -199 -34 -388 -2 -166 5 -190 62 -239 67 -56 149 -55 204 2 37 40 45 75
56 267 6 94 18 224 28 290 23 166 22 207 -6 244 -13 18 -22 45 -22 66 0 90
-92 209 -189 246 -168 63 -344 -36 -517 -291 l-69 -102 -6 223 c-9 288 -32
399 -109 517 -62 96 -136 141 -235 141 -27 0 -68 -8 -90 -18z"/>
<path d="M3355 2283 c-193 -25 -603 -111 -654 -137 -51 -27 -91 -103 -91 -172
0 -86 70 -194 136 -210 47 -12 137 4 299 51 205 60 346 92 444 100 l77 7 18
-46 c55 -143 258 -168 350 -43 18 24 21 43 21 125 0 110 -18 161 -81 226 -76
78 -174 107 -359 105 -71 -1 -143 -4 -160 -6z"/>
</g>
</svg>
