<?xml version="1.0" standalone="no"?>
<!DOCTYPE svg PUBLIC "-//W3C//DTD SVG 20010904//EN"
 "http://www.w3.org/TR/2001/REC-SVG-20010904/DTD/svg10.dtd">
<svg version="1.0" xmlns="http://www.w3.org/2000/svg"
 width="600.000000pt" height="600.000000pt" viewBox="0 0 600.000000 600.000000"
 preserveAspectRatio="xMidYMid meet">
<metadata>
Created by potrace 1.15, written by Peter Selinger 2001-2017
</metadata>
<g transform="translate(0.000000,600.000000) scale(0.100000,-0.100000)"
fill="#16364b" stroke="none">
<path d="M2353 5406 l-28 -24 -6 -173 c-16 -413 -76 -564 -271 -680 -92 -56
-112 -115 -57 -170 31 -31 73 -20 167 40 171 110 264 257 312 491 16 78 20
138 20 290 l0 192 -29 29 c-36 35 -70 37 -108 5z"/>
<path d="M3527 5299 c-24 -14 -47 -62 -47 -101 0 -82 102 -221 195 -264 87
-41 152 -27 180 40 27 63 -19 168 -114 263 -60 60 -165 91 -214 62z"/>
<path d="M3016 5125 c-120 -42 -216 -239 -176 -359 44 -135 265 -77 341 90 41
90 47 152 20 207 -34 71 -99 93 -185 62z m31 -196 c-8 -19 -24 -43 -36 -53
-21 -19 -21 -19 -21 1 0 27 56 100 68 89 2 -2 -3 -19 -11 -37z"/>
<path d="M4780 4773 c-54 -28 -60 -49 -60 -225 0 -237 32 -367 108 -440 44
-42 100 -62 148 -53 46 8 106 68 122 121 36 120 -11 321 -108 463 -38 56 -121
141 -139 141 -5 0 -15 2 -23 5 -7 3 -29 -3 -48 -12z"/>
<path d="M2646 4225 c-83 -29 -135 -115 -118 -193 13 -57 33 -85 88 -123 135
-93 331 -92 483 1 62 38 81 68 81 124 0 72 -39 104 -180 149 -184 59 -276 70
-354 42z"/>
<path d="M1105 4116 c-13 -13 -27 -37 -31 -53 -4 -15 -13 -36 -22 -45 -44 -51
-17 -184 53 -253 51 -52 99 -69 175 -63 91 7 162 68 183 159 20 82 -57 178
-200 248 -76 38 -125 40 -158 7z"/>
<path d="M5294 3929 c-132 -17 -233 -92 -269 -198 -26 -80 -18 -208 19 -281
35 -70 87 -124 151 -158 69 -36 194 -38 272 -3 114 51 183 180 183 345 0 88
-15 136 -57 186 -81 94 -169 126 -299 109z m66 -309 c12 -7 12 -12 -4 -29 -11
-12 -27 -21 -36 -21 -17 0 -34 36 -24 52 7 11 45 10 64 -2z"/>
<path d="M4187 3750 c-140 -36 -227 -145 -227 -287 0 -241 201 -378 412 -281
119 55 193 165 212 315 9 74 8 88 -10 129 -23 56 -49 77 -129 105 -68 24 -199
33 -258 19z m113 -280 c0 -13 -37 -50 -49 -50 -20 0 -22 22 -5 41 18 20 54 26
54 9z"/>
<path d="M3429 3363 c-33 -28 -106 -170 -145 -281 -17 -48 -17 -55 -4 -80 18
-32 57 -47 94 -38 74 18 191 183 203 285 8 68 -2 98 -40 121 -43 27 -69 25
-108 -7z"/>
<path d="M1460 3229 c-47 -5 -137 -13 -200 -19 -64 -6 -139 -17 -167 -24 -142
-38 -267 -135 -326 -255 -29 -60 -32 -73 -32 -161 1 -116 23 -178 92 -265 55
-67 162 -145 243 -175 30 -11 108 -31 173 -45 135 -27 186 -53 247 -122 56
-65 131 -221 181 -378 93 -294 146 -397 256 -494 105 -94 283 -168 457 -191
110 -15 1181 -7 1306 9 400 52 633 125 836 261 310 209 452 379 500 600 20 95
23 332 5 415 -38 174 -152 326 -336 450 -127 85 -221 118 -370 131 -190 16
-383 -49 -660 -221 -169 -105 -221 -126 -343 -136 -163 -14 -255 6 -438 99
-163 81 -215 115 -472 300 -180 130 -302 183 -496 217 -96 16 -310 18 -456 4z
m380 -395 c168 -29 217 -52 444 -203 504 -336 738 -426 1061 -408 199 12 323
60 530 206 138 98 223 143 295 160 138 32 286 -15 400 -127 71 -69 85 -109 84
-242 0 -105 -15 -161 -71 -274 -43 -85 -100 -143 -222 -224 -222 -148 -397
-201 -736 -221 -88 -5 -240 -15 -337 -22 -143 -10 -215 -10 -371 0 -107 7
-238 9 -293 6 -114 -8 -276 7 -348 33 -66 23 -132 90 -174 177 -19 37 -61 148
-94 244 -100 296 -186 448 -310 552 -114 95 -219 142 -370 165 -120 18 -148
27 -178 59 -29 31 -23 64 16 87 30 18 195 43 339 51 92 6 241 -2 335 -19z"/>
<path d="M446 2069 c-32 -38 -33 -59 -3 -96 13 -15 36 -51 52 -80 81 -151 260
-248 343 -186 115 85 26 237 -204 352 -104 52 -151 55 -188 10z"/>
<path d="M5200 1228 c-19 -12 -44 -27 -55 -33 -61 -32 -82 -131 -46 -210 27
-58 62 -86 115 -92 43 -5 49 -3 80 31 26 27 38 53 50 105 24 106 21 166 -9
196 -31 32 -87 33 -135 3z"/>
</g>
</svg>
