<?xml version="1.0" standalone="no"?>
<!DOCTYPE svg PUBLIC "-//W3C//DTD SVG 20010904//EN"
 "http://www.w3.org/TR/2001/REC-SVG-20010904/DTD/svg10.dtd">
<svg version="1.0" xmlns="http://www.w3.org/2000/svg"
 width="600.000000pt" height="600.000000pt" viewBox="0 0 600.000000 600.000000"
 preserveAspectRatio="xMidYMid meet">
<metadata>
Created by potrace 1.15, written by Peter Selinger 2001-2017
</metadata>
<g transform="translate(0.000000,600.000000) scale(0.100000,-0.100000)"
fill="#16364b" stroke="none">
<path d="M1734 5816 c-50 -23 -71 -64 -125 -252 -75 -264 -99 -376 -99 -474 0
-102 20 -154 76 -196 52 -40 135 -40 210 -1 113 58 258 194 404 380 100 127
110 145 110 194 0 110 -91 186 -194 163 -47 -10 -79 -42 -175 -176 -35 -49
-66 -84 -68 -78 -2 6 10 69 27 139 33 142 36 181 16 228 -31 72 -112 105 -182
73z"/>
<path d="M3060 5651 c-43 -22 -80 -84 -80 -132 0 -59 34 -96 159 -171 147 -89
258 -175 355 -279 72 -76 136 -168 136 -196 0 -7 -20 -11 -58 -10 -100 3 -167
-55 -167 -143 0 -91 62 -138 192 -147 44 -3 96 0 119 6 131 35 216 185 184
326 -25 112 -113 249 -240 375 -87 87 -412 345 -477 379 -32 16 -84 13 -123
-8z"/>
<path d="M885 5445 c-5 -2 -28 -9 -51 -14 -98 -26 -187 -118 -230 -239 -28
-81 -33 -219 -9 -298 33 -111 156 -249 245 -274 74 -21 162 32 176 106 12 67
-3 104 -71 171 -47 46 -66 73 -71 99 -9 50 10 108 47 138 26 23 40 26 100 26
82 0 135 22 162 68 39 68 7 161 -70 197 -35 17 -202 32 -228 20z"/>
<path d="M2960 5184 c-137 -50 -230 -171 -230 -302 0 -111 60 -184 179 -219
48 -14 67 -14 126 -4 154 26 218 84 229 214 17 187 -63 316 -201 324 -36 2
-75 -3 -103 -13z"/>
<path d="M4765 4856 c-16 -7 -43 -28 -60 -46 l-30 -32 2 -131 c2 -213 52 -358
162 -467 65 -66 137 -96 199 -85 100 17 199 96 252 201 35 68 35 188 2 252
-49 92 -109 141 -307 250 -120 66 -173 80 -220 58z"/>
<path d="M2010 4806 c-104 -30 -147 -61 -169 -119 -25 -64 -3 -137 53 -175 52
-36 85 -37 171 -7 78 27 94 25 95 -11 0 -13 47 -58 77 -73 57 -29 154 7 185
69 25 49 22 115 -6 175 -48 102 -129 147 -271 152 -54 1 -108 -3 -135 -11z"/>
<path d="M2862 4089 c-94 -16 -163 -63 -201 -137 -67 -132 36 -273 240 -329
139 -38 572 -14 639 35 67 50 88 133 51 202 -38 71 -332 194 -541 226 -105 15
-112 16 -188 3z"/>
<path d="M1006 4050 c-34 -11 -82 -54 -102 -92 -40 -77 3 -195 88 -240 35 -18
59 -22 126 -22 45 0 82 -1 82 -3 0 -1 -23 -28 -50 -58 -165 -183 -512 -652
-561 -758 -34 -76 -22 -146 34 -205 44 -45 90 -56 192 -43 83 10 86 11 247
114 90 57 225 145 302 195 l138 91 29 -22 c66 -52 75 -143 28 -292 -79 -256
-316 -598 -474 -683 -27 -15 -60 -42 -72 -61 -30 -44 -31 -113 -3 -159 27 -44
97 -76 150 -67 59 10 178 86 254 161 141 141 382 555 451 774 16 53 29 120 32
176 l6 91 34 18 c18 10 43 34 54 52 20 32 21 45 17 181 -5 163 -16 203 -71
261 -57 60 -127 75 -218 48 -25 -8 -103 -46 -174 -86 -70 -39 -129 -70 -131
-68 -2 2 25 37 60 79 121 145 166 241 166 352 -1 140 -103 237 -280 265 -77
13 -313 13 -354 1z"/>
<path d="M4200 3782 c-131 -34 -236 -124 -266 -228 -43 -149 32 -318 171 -383
43 -20 61 -23 135 -19 114 6 177 36 259 123 98 105 183 313 162 393 -11 37
-47 80 -86 100 -64 32 -274 40 -375 14z m47 -317 c-16 -14 -33 -22 -39 -19
-14 9 27 44 51 44 12 -1 9 -7 -12 -25z"/>
<path d="M3415 3395 c-56 -20 -108 -82 -166 -200 -59 -117 -68 -165 -42 -215
31 -59 74 -80 165 -80 91 0 132 17 189 77 48 50 75 105 89 181 12 71 3 119
-32 172 -42 61 -133 91 -203 65z"/>
<path d="M5014 3194 c-122 -65 -224 -166 -276 -272 -28 -58 -32 -78 -33 -147
0 -68 4 -89 28 -137 34 -70 81 -110 154 -133 69 -22 125 -15 210 24 115 54
188 155 214 294 18 100 -11 235 -64 288 -7 8 -23 28 -35 45 -25 36 -77 64
-120 64 -16 0 -51 -12 -78 -26z"/>
<path d="M3958 2566 c-55 -20 -85 -42 -117 -87 -56 -77 -58 -145 -10 -317 11
-41 19 -76 16 -78 -2 -2 -32 3 -67 12 -219 56 -366 -120 -310 -371 27 -125
152 -474 189 -530 54 -81 175 -125 264 -96 73 25 127 113 127 209 l0 43 50 -7
c113 -15 255 72 311 191 25 52 29 72 29 148 0 92 -16 151 -104 387 -19 52 -54
156 -77 230 -23 74 -47 147 -55 161 -21 42 -74 87 -122 104 -55 18 -75 18
-124 1z"/>
<path d="M2006 2354 c-64 -23 -140 -88 -205 -175 -57 -76 -121 -185 -121 -208
0 -6 -14 -30 -30 -55 -143 -211 -222 -470 -224 -731 -1 -151 10 -219 51 -325
139 -357 621 -588 1008 -485 84 23 227 97 310 160 75 58 242 232 292 305 94
138 228 468 268 662 70 329 -85 568 -365 568 -90 0 -195 -29 -331 -90 -63 -28
-119 -53 -125 -56 -6 -3 -20 20 -31 50 -28 76 -139 259 -188 308 -79 81 -205
110 -309 72z m132 -499 c6 -16 20 -65 32 -108 28 -108 49 -145 120 -210 65
-61 119 -83 173 -71 18 4 93 37 167 75 144 72 203 97 289 123 l54 16 -6 -48
c-11 -90 -118 -396 -188 -533 -16 -34 -47 -79 -68 -102 -20 -23 -51 -60 -69
-83 -75 -98 -199 -153 -362 -161 -90 -5 -114 -2 -169 16 -115 40 -215 119
-259 208 -21 41 -38 109 -47 188 -14 123 41 332 128 483 27 48 54 101 60 117
6 17 30 61 54 98 l44 69 18 -24 c9 -13 22 -36 29 -53z"/>
</g>
</svg>
