<?xml version="1.0" standalone="no"?>
<!DOCTYPE svg PUBLIC "-//W3C//DTD SVG 20010904//EN"
 "http://www.w3.org/TR/2001/REC-SVG-20010904/DTD/svg10.dtd">
<svg version="1.0" xmlns="http://www.w3.org/2000/svg"
 width="600.000000pt" height="600.000000pt" viewBox="0 0 600.000000 600.000000"
 preserveAspectRatio="xMidYMid meet">
<metadata>
Created by potrace 1.15, written by Peter Selinger 2001-2017
</metadata>
<g transform="translate(0.000000,600.000000) scale(0.100000,-0.100000)"
fill="#16364b" stroke="none">
<path d="M2090 5221 c-97 -32 -169 -96 -214 -191 -28 -59 -31 -74 -30 -155 1
-49 6 -160 13 -245 31 -424 33 -501 21 -815 -8 -196 -10 -437 -6 -655 4 -190
3 -358 -1 -374 -8 -25 -23 -35 -127 -77 -124 -51 -489 -179 -510 -179 -7 0
-18 11 -24 25 -13 28 -42 34 -42 9 0 -8 5 -24 10 -35 13 -24 9 -24 -40 1 -71
36 -92 18 -45 -38 14 -17 25 -32 25 -35 0 -3 -18 -8 -40 -12 -30 -5 -40 -11
-40 -26 0 -14 10 -20 40 -25 43 -7 52 -19 20 -29 -28 -9 -46 -43 -26 -51 15
-6 164 32 182 47 6 5 80 33 165 63 215 76 222 78 331 125 53 22 98 41 100 41
2 0 4 -80 4 -178 2 -210 33 -497 70 -639 79 -309 257 -486 541 -540 l88 -16 0
-176 c1 -194 16 -292 75 -470 17 -50 28 -96 25 -102 -4 -5 -34 -9 -68 -9 -80
0 -123 -13 -159 -47 -37 -36 -39 -99 -4 -139 20 -24 32 -28 89 -32 98 -6 185
25 252 92 74 73 77 100 25 253 -61 178 -83 295 -83 448 0 155 10 190 51 181
56 -13 387 -26 662 -25 l285 1 -3 -29 c-16 -183 7 -382 68 -596 17 -60 29
-111 26 -114 -3 -3 -41 -9 -85 -13 -95 -10 -136 -29 -158 -75 -21 -43 -9 -90
30 -119 52 -39 190 -24 272 29 99 65 124 152 81 281 -59 180 -92 387 -83 517
10 139 2 132 164 146 303 27 360 41 458 114 99 73 192 220 231 362 35 131 27
428 -15 576 -30 107 -85 231 -131 300 -24 35 -87 107 -141 159 l-98 96 252 14
c139 8 276 15 305 15 65 1 192 59 192 87 0 10 -5 18 -11 18 -6 0 -8 8 -4 20 4
13 0 23 -13 31 -11 7 -17 19 -15 29 7 26 -13 33 -46 15 -41 -20 -48 -19 -55
10 -9 36 -34 31 -41 -9 l-7 -34 -96 -11 c-178 -21 -426 -32 -541 -25 l-114 7
-100 84 c-135 114 -195 155 -372 259 -185 108 -457 287 -548 362 -113 92 -214
218 -281 350 -64 127 -195 505 -261 756 -44 166 -69 225 -129 298 -64 78 -144
119 -244 124 -42 2 -88 0 -102 -5z m176 -176 c72 -42 105 -104 148 -275 53
-214 182 -579 266 -758 27 -56 71 -135 97 -174 58 -87 182 -220 278 -297 90
-74 353 -252 475 -323 331 -191 318 -182 586 -424 301 -270 348 -330 413 -519
49 -145 67 -392 37 -520 -43 -181 -149 -304 -291 -339 -85 -21 -559 -66 -760
-73 -93 -3 -289 0 -435 7 -146 7 -323 14 -395 15 -156 2 -226 16 -321 61 -181
85 -275 261 -319 590 -32 240 -39 407 -24 578 10 111 13 247 9 436 -6 372 -5
566 5 950 7 293 6 354 -15 626 -13 165 -20 317 -16 338 9 46 67 113 110 126
46 14 100 5 152 -25z"/>
<path d="M2628 2809 c-27 -15 -23 -71 5 -97 36 -34 74 -29 94 13 16 34 16 36
-4 63 -22 29 -66 39 -95 21z"/>
<path d="M3117 2712 c-38 -41 0 -112 59 -112 26 0 54 34 54 67 0 53 -78 84
-113 45z"/>
<path d="M2924 1819 c-33 -36 -2 -77 61 -81 147 -9 204 19 161 78 -13 16 -27
19 -111 19 -76 0 -99 -3 -111 -16z"/>
<path d="M5290 3978 c-149 -23 -243 -119 -257 -261 -14 -152 71 -316 189 -367
139 -60 338 26 423 182 23 42 30 69 33 134 7 128 -36 203 -157 273 -74 43
-136 54 -231 39z m99 -304 c10 -9 -16 -39 -37 -42 -23 -3 -48 31 -36 49 6 10
61 5 73 -7z"/>
</g>
</svg>
