<?xml version="1.0" standalone="no"?>
<!DOCTYPE svg PUBLIC "-//W3C//DTD SVG 20010904//EN"
 "http://www.w3.org/TR/2001/REC-SVG-20010904/DTD/svg10.dtd">
<svg version="1.0" xmlns="http://www.w3.org/2000/svg"
 width="600.000000pt" height="600.000000pt" viewBox="0 0 600.000000 600.000000"
 preserveAspectRatio="xMidYMid meet">
<metadata>
Created by potrace 1.15, written by Peter Selinger 2001-2017
</metadata>
<g transform="translate(0.000000,600.000000) scale(0.100000,-0.100000)"
fill="#16364b" stroke="none">
<path d="M1833 5814 c-38 -19 -50 -37 -88 -129 -16 -38 -65 -158 -111 -265
-114 -270 -127 -311 -122 -391 4 -81 33 -130 96 -160 92 -45 210 -12 364 104
130 98 388 339 412 385 52 101 -29 243 -138 242 -60 -1 -86 -16 -181 -104 -47
-43 -88 -77 -90 -74 -2 2 18 53 45 113 27 61 50 125 50 143 1 112 -132 188
-237 136z"/>
<path d="M2993 5686 c-69 -31 -95 -133 -52 -202 15 -26 43 -45 107 -76 181
-86 329 -211 433 -364 64 -96 89 -149 89 -197 0 -31 -4 -39 -26 -47 -14 -6
-40 -10 -57 -10 -134 0 -174 -197 -56 -278 30 -21 43 -23 109 -20 98 6 166 36
225 99 116 124 140 291 65 455 -96 213 -306 417 -602 588 -114 65 -175 79
-235 52z"/>
<path d="M940 5406 c-136 -29 -282 -145 -340 -269 -91 -192 -17 -414 181 -546
47 -32 71 -41 103 -41 87 0 156 65 156 147 0 58 -19 92 -80 143 -28 23 -57 55
-65 71 -32 60 -9 146 49 184 14 9 58 21 98 27 87 12 130 35 153 84 34 72 0
155 -78 193 -48 23 -95 25 -177 7z"/>
<path d="M2904 5140 c-104 -41 -191 -151 -212 -268 -23 -126 41 -233 165 -278
75 -26 251 -13 316 25 16 9 38 31 49 49 18 29 20 44 15 108 -9 105 -35 222
-61 273 -12 24 -38 58 -59 75 -50 40 -136 46 -213 16z"/>
<path d="M4754 4861 c-17 -10 -41 -33 -53 -49 -44 -63 -17 -319 50 -458 104
-218 329 -280 475 -130 61 63 84 122 84 218 0 123 -68 222 -219 322 -167 109
-268 139 -337 97z"/>
<path d="M1970 4772 c-151 -51 -205 -124 -165 -228 32 -84 140 -123 223 -80
58 30 74 19 87 -64 10 -63 39 -105 89 -129 108 -53 206 9 206 130 0 146 -86
306 -195 361 -56 30 -172 34 -245 10z"/>
<path d="M2959 4030 c-87 -11 -161 -44 -205 -92 -47 -52 -64 -95 -64 -160 1
-128 85 -206 282 -260 73 -20 106 -23 273 -23 177 0 193 2 237 23 50 25 74 53
83 98 3 16 13 52 22 80 33 105 -4 165 -142 230 -120 56 -231 91 -335 104 -46
5 -85 9 -85 9 0 -1 -30 -5 -66 -9z"/>
<path d="M1110 4020 c-114 -14 -152 -28 -197 -76 -64 -66 -71 -156 -19 -234
33 -50 75 -72 152 -79 l62 -6 -65 -80 c-258 -320 -354 -472 -454 -721 -61
-152 -66 -221 -22 -295 69 -120 260 -126 338 -11 47 70 232 217 455 364 80 53
187 127 239 167 52 39 98 71 103 71 13 0 9 -92 -7 -168 -26 -124 -73 -254
-148 -407 -122 -248 -189 -361 -346 -589 -34 -47 -41 -66 -41 -105 0 -120 119
-187 228 -129 113 61 419 573 520 868 84 245 128 520 111 686 -12 120 -70 194
-170 220 -102 27 -198 -10 -393 -151 -58 -41 -107 -75 -110 -75 -4 0 23 40 58
89 153 211 206 320 206 421 0 96 -63 184 -158 221 -64 25 -227 34 -342 19z"/>
<path d="M4258 3799 c-227 -29 -360 -171 -346 -368 6 -82 33 -136 92 -188 126
-111 331 -94 471 38 70 66 108 126 145 228 51 139 33 223 -54 262 -63 27 -208
41 -308 28z m22 -299 c0 -14 -48 -43 -60 -35 -14 8 -3 24 24 35 28 12 36 12
36 0z"/>
<path d="M3428 3405 c-30 -10 -65 -33 -96 -63 -59 -58 -136 -185 -152 -253
-11 -45 -10 -53 11 -97 13 -26 38 -56 56 -68 38 -25 161 -39 212 -24 85 24
157 105 187 208 22 76 16 201 -12 238 -50 67 -118 87 -206 59z"/>
<path d="M4980 3094 c-58 -25 -177 -121 -219 -177 -55 -72 -81 -134 -88 -210
-11 -122 29 -216 119 -278 46 -31 57 -34 122 -34 60 0 79 5 124 29 67 37 122
97 162 175 86 171 80 326 -18 429 -76 80 -129 98 -202 66z"/>
<path d="M3893 2614 c-54 -20 -118 -90 -133 -145 -18 -64 -9 -111 49 -254 28
-70 50 -130 48 -131 -2 -2 -28 6 -58 17 -64 25 -160 29 -209 10 -60 -25 -117
-78 -147 -139 -25 -52 -28 -66 -27 -162 0 -121 14 -178 105 -458 67 -202 94
-249 169 -288 144 -76 322 40 324 211 1 33 -3 77 -8 98 l-8 37 43 -20 c24 -11
65 -20 91 -20 63 0 168 35 211 71 47 39 87 123 94 197 18 200 -161 781 -278
901 -74 77 -180 107 -266 75z"/>
<path d="M1985 2216 c-116 -49 -283 -266 -293 -382 -2 -28 1 -61 7 -73 10 -18
5 -29 -39 -88 -102 -134 -144 -255 -160 -458 -18 -215 15 -420 87 -545 87
-149 337 -322 545 -377 82 -21 267 -21 366 1 170 37 350 138 474 263 70 70 98
121 98 173 0 18 13 49 34 77 68 96 138 260 229 535 64 192 81 277 75 362 -17
204 -193 331 -416 299 -114 -17 -200 -48 -370 -135 -84 -43 -156 -78 -160 -78
-4 0 -17 37 -30 83 -64 231 -174 353 -326 364 -49 3 -73 -1 -121 -21z m84
-531 l0 -20 -9 20 c-5 11 -9 27 -9 35 -1 13 0 13 9 0 5 -8 9 -24 9 -35z m21
-117 c19 -132 50 -245 82 -292 81 -123 263 -90 336 62 l27 55 160 83 c176 92
304 149 313 139 9 -9 -103 -336 -149 -434 -21 -46 -57 -110 -80 -144 -51 -74
-69 -116 -69 -160 0 -28 -9 -43 -55 -86 -30 -29 -85 -66 -122 -84 -65 -31 -74
-32 -189 -32 l-121 0 -84 42 c-171 85 -227 162 -249 343 -19 164 23 321 111
417 46 50 69 98 69 143 0 52 7 33 20 -52z"/>
</g>
</svg>
