<?xml version="1.0" standalone="no"?>
<!DOCTYPE svg PUBLIC "-//W3C//DTD SVG 20010904//EN"
 "http://www.w3.org/TR/2001/REC-SVG-20010904/DTD/svg10.dtd">
<svg version="1.0" xmlns="http://www.w3.org/2000/svg"
 width="600.000000pt" height="600.000000pt" viewBox="0 0 600.000000 600.000000"
 preserveAspectRatio="xMidYMid meet">
<metadata>
Created by potrace 1.15, written by Peter Selinger 2001-2017
</metadata>
<g transform="translate(0.000000,600.000000) scale(0.100000,-0.100000)"
fill="#16364b" stroke="none">
<path d="M2525 5488 c-42 -23 -68 -55 -105 -129 -54 -107 -74 -180 -67 -252
16 -176 173 -234 466 -173 69 14 126 24 128 23 1 -2 -34 -46 -78 -98 -196
-228 -292 -364 -395 -555 -52 -97 -56 -110 -52 -158 6 -68 35 -125 78 -154 31
-21 43 -23 100 -18 267 24 377 28 601 22 244 -6 246 -6 280 17 89 59 88 172
-2 239 -45 33 -132 43 -406 43 -145 0 -263 3 -263 7 0 18 134 180 276 333 177
191 239 270 254 323 37 136 -39 258 -182 292 -67 17 -189 8 -346 -25 -68 -14
-130 -25 -138 -25 -11 0 -6 17 21 68 21 40 35 83 35 104 0 41 -34 97 -70 115
-31 16 -108 16 -135 1z"/>
<path d="M1670 5111 c-30 -10 -72 -26 -93 -35 -105 -46 -293 -182 -384 -278
-67 -72 -149 -197 -157 -242 -14 -73 30 -160 94 -186 25 -10 56 -11 163 0 101
9 149 10 204 1 128 -20 136 -30 149 -174 7 -89 29 -129 84 -158 74 -40 165
-13 203 61 35 68 3 301 -56 398 -51 85 -146 146 -269 173 -32 7 -58 16 -58 20
0 21 164 112 233 129 28 8 57 25 78 46 32 33 34 40 34 102 0 80 -25 122 -87
147 -48 19 -69 18 -138 -4z"/>
<path d="M4225 4764 c-115 -24 -192 -57 -322 -137 -76 -48 -95 -64 -113 -102
-28 -57 -21 -102 21 -150 58 -65 120 -65 224 0 66 41 166 85 212 92 l36 6 -8
-49 c-8 -56 -93 -295 -154 -432 -57 -128 -56 -165 5 -256 36 -53 56 -72 91
-88 42 -19 53 -19 201 -8 286 20 389 24 396 12 4 -6 -3 -48 -14 -94 -20 -77
-47 -150 -134 -359 -49 -118 -51 -135 -24 -189 39 -77 134 -110 207 -72 51 25
64 50 134 237 165 440 176 589 53 710 -89 87 -183 105 -429 83 -81 -8 -149
-12 -152 -10 -2 2 6 25 17 50 101 232 132 474 77 601 -49 115 -190 182 -324
155z"/>
<path d="M2030 3980 c-44 -28 -326 -97 -472 -115 -105 -13 -153 -62 -153 -155
0 -95 67 -170 152 -170 44 0 430 89 532 123 113 37 156 70 169 130 23 112 -45
197 -158 197 -30 0 -62 -5 -70 -10z"/>
<path d="M3735 3702 c-149 -44 -401 -206 -441 -283 -47 -91 20 -194 127 -194
41 0 58 8 135 61 88 60 183 114 204 114 5 0 10 -4 10 -10 0 -5 -37 -118 -82
-250 -81 -238 -83 -242 -122 -268 -59 -40 -86 -85 -86 -144 0 -90 58 -148 147
-148 78 0 373 115 499 195 132 83 188 161 188 262 1 69 -16 101 -74 141 -60
40 -164 23 -210 -36 -27 -33 -26 -28 18 106 32 102 37 130 37 212 0 100 -11
136 -59 188 -58 65 -180 87 -291 54z"/>
<path d="M2447 3410 c-150 -24 -355 -82 -393 -113 -80 -62 -66 -194 26 -246
50 -28 105 -27 205 4 106 32 216 55 266 55 35 0 39 -3 39 -25 0 -31 -38 -133
-80 -213 -40 -78 -47 -126 -23 -172 44 -85 184 -92 255 -13 24 27 102 195 126
273 62 203 22 346 -119 418 -55 28 -76 34 -154 37 -50 2 -116 0 -148 -5z"/>
<path d="M1179 3135 c-151 -55 -209 -119 -209 -231 0 -99 66 -176 160 -186
l35 -4 -1 -150 c-1 -82 -3 -255 -5 -384 -5 -277 8 -363 64 -427 36 -41 98 -73
142 -73 74 0 164 73 185 150 6 22 15 40 20 40 26 0 76 65 135 178 37 70 90
161 119 202 57 83 161 198 170 189 11 -10 8 -381 -3 -454 -6 -38 -25 -127 -42
-196 -36 -142 -34 -179 8 -229 34 -41 73 -60 124 -60 49 0 97 27 120 67 18 30
80 290 100 416 14 94 7 472 -12 557 -41 192 -166 275 -335 225 -119 -35 -277
-177 -383 -342 -18 -29 -34 -53 -35 -53 -1 0 -2 125 -1 278 l0 277 -29 63
c-31 68 -85 123 -142 147 -44 18 -136 18 -185 0z"/>
<path d="M4829 2826 c-102 -36 -158 -130 -145 -243 7 -61 13 -56 -126 -107
-270 -98 -375 -177 -447 -338 -94 -211 -71 -434 64 -619 l36 -48 -23 -12 c-13
-6 -39 -27 -59 -46 l-36 -34 -69 26 c-172 65 -218 77 -321 83 -119 5 -200 -14
-297 -73 -113 -68 -249 -206 -364 -369 -23 -33 -54 -67 -69 -77 -16 -9 -50
-38 -77 -63 -85 -78 -134 -71 -237 34 -70 72 -135 176 -190 304 -34 80 -50
104 -82 127 -53 39 -100 52 -162 47 -95 -8 -158 -77 -158 -173 1 -101 120
-370 221 -497 239 -301 611 -366 862 -152 28 24 66 51 83 59 50 24 60 35 122
125 124 182 192 253 272 286 52 22 130 13 268 -31 242 -78 365 -63 492 61 64
63 96 128 91 186 l-3 41 47 12 c140 35 213 161 172 292 -14 44 -32 71 -77 118
-68 69 -87 106 -87 169 0 43 3 47 38 65 20 10 91 35 157 56 148 45 224 85 291
151 96 94 140 216 132 368 -7 114 -27 164 -89 220 -68 61 -151 80 -230 52z"/>
<path d="M3250 2454 c-209 -26 -344 -54 -528 -110 -108 -33 -155 -74 -178
-151 -26 -91 6 -181 83 -232 65 -44 118 -42 280 10 186 59 320 95 382 104 l54
7 -7 -28 c-24 -106 -19 -157 21 -205 71 -84 197 -90 283 -13 66 60 119 255 98
359 -25 121 -97 198 -221 237 -60 18 -201 30 -267 22z"/>
</g>
</svg>
