<?xml version="1.0" standalone="no"?>
<!DOCTYPE svg PUBLIC "-//W3C//DTD SVG 20010904//EN"
 "http://www.w3.org/TR/2001/REC-SVG-20010904/DTD/svg10.dtd">
<svg version="1.0" xmlns="http://www.w3.org/2000/svg"
 width="600.000000pt" height="600.000000pt" viewBox="0 0 600.000000 600.000000"
 preserveAspectRatio="xMidYMid meet">
<metadata>
Created by potrace 1.15, written by Peter Selinger 2001-2017
</metadata>
<g transform="translate(0.000000,600.000000) scale(0.100000,-0.100000)"
fill="#16364b" stroke="none">
<path d="M1543 5785 c-12 -9 -47 -55 -76 -103 -30 -48 -82 -130 -115 -182 -33
-52 -67 -113 -76 -134 -50 -119 23 -229 138 -211 22 4 67 21 99 38 90 47 398
273 420 307 37 58 3 136 -69 160 -41 14 -80 -1 -159 -61 -30 -23 -57 -40 -60
-38 -2 3 10 24 26 49 49 73 50 120 4 166 -29 28 -98 33 -132 9z"/>
<path d="M2395 5463 c-65 -16 -89 -77 -80 -207 7 -119 -8 -336 -30 -421 -38
-148 -97 -223 -224 -289 -100 -52 -121 -74 -121 -126 1 -57 47 -100 110 -100
41 0 169 67 239 124 180 148 240 335 244 756 2 209 -3 229 -68 256 -36 15 -37
15 -70 7z"/>
<path d="M3508 5313 c-57 -62 -62 -109 -19 -198 53 -111 161 -208 246 -220 93
-14 176 71 160 165 -17 98 -132 233 -225 263 -80 26 -131 23 -162 -10z"/>
<path d="M2959 5135 c-89 -46 -169 -169 -169 -259 0 -106 89 -196 194 -196 57
0 140 31 187 69 29 25 40 43 53 95 36 145 5 255 -85 301 -43 23 -126 18 -180
-10z"/>
<path d="M4760 4777 c-13 -7 -35 -28 -48 -47 -23 -34 -24 -39 -19 -175 6 -154
24 -239 68 -326 38 -76 72 -115 133 -149 62 -36 147 -40 212 -11 89 40 142
150 130 270 -11 127 -94 246 -244 354 -131 94 -178 111 -232 84z m225 -417
c17 -33 18 -40 7 -40 -9 0 -32 44 -32 60 0 18 9 10 25 -20z"/>
<path d="M2691 4239 c-85 -17 -173 -88 -206 -166 -21 -49 -19 -139 4 -188 24
-52 74 -98 136 -127 73 -33 206 -32 290 3 121 50 253 157 275 223 17 53 -2
119 -45 153 -53 43 -292 114 -375 112 -19 -1 -55 -5 -79 -10z"/>
<path d="M1073 4085 c-67 -29 -94 -126 -53 -192 23 -39 57 -57 135 -73 71 -15
135 -39 135 -51 0 -28 -188 -90 -317 -105 -34 -3 -75 -15 -92 -25 -68 -41 -80
-142 -25 -201 59 -63 114 -70 277 -38 134 27 246 81 332 161 82 77 115 141
115 223 -1 145 -105 243 -314 296 -92 23 -148 25 -193 5z"/>
<path d="M4212 3769 c-105 -20 -191 -80 -235 -163 -18 -34 -22 -57 -22 -136 0
-88 3 -101 33 -162 78 -158 227 -207 389 -128 116 57 189 166 223 331 34 166
-1 218 -173 253 -82 17 -147 19 -215 5z m98 -296 c0 -14 -34 -43 -52 -43 -22
0 -23 13 -2 34 15 16 54 22 54 9z"/>
<path d="M1725 3744 c-58 -15 -108 -40 -130 -66 -35 -41 -55 -119 -55 -209 0
-183 98 -297 262 -307 82 -5 129 10 180 56 58 52 81 103 86 193 4 67 1 84 -21
132 -33 73 -97 141 -161 171 -52 25 -125 38 -161 30z"/>
<path d="M5160 3611 c-123 -40 -205 -102 -256 -193 -26 -48 -29 -62 -29 -148
0 -86 3 -101 30 -154 36 -70 111 -139 174 -161 58 -20 145 -19 207 2 68 23
164 120 195 199 32 82 33 209 2 277 -24 52 -122 161 -165 183 -36 19 -91 17
-158 -5z m50 -336 c-16 -19 -30 -19 -30 0 0 17 33 38 38 24 2 -5 -2 -16 -8
-24z"/>
<path d="M3402 3370 c-62 -38 -187 -269 -178 -329 11 -75 76 -104 169 -77 133
39 246 223 207 340 -25 78 -124 111 -198 66z"/>
<path d="M2527 3310 c-181 -62 -262 -124 -396 -299 -109 -143 -150 -176 -328
-264 -160 -79 -207 -110 -302 -201 -159 -153 -234 -317 -261 -570 -18 -167 7
-304 83 -451 33 -63 67 -106 157 -199 198 -204 319 -288 490 -340 292 -88 532
-48 807 133 350 229 466 352 620 656 107 212 117 244 117 370 0 86 -5 113 -32
192 -27 80 -259 553 -283 578 -5 5 -9 27 -9 50 0 104 -129 259 -274 331 -76
37 -85 39 -190 42 -102 2 -119 0 -199 -28z m200 -392 c3 -17 45 -90 93 -162
98 -150 250 -435 274 -515 23 -78 20 -100 -19 -165 -19 -32 -40 -77 -46 -99
-16 -60 -60 -143 -112 -212 -96 -127 -326 -323 -452 -386 -127 -63 -216 -71
-340 -32 -102 32 -404 255 -453 335 -99 162 -53 425 102 583 72 73 115 102
218 145 143 59 247 146 399 335 90 112 116 138 179 170 46 24 78 33 118 34 29
1 33 -3 39 -31z"/>
<path d="M420 2283 c-60 -19 -90 -57 -90 -112 0 -40 52 -185 111 -309 121
-257 241 -369 406 -380 64 -4 79 -1 128 22 79 39 109 92 103 185 -10 190 -196
387 -516 548 -106 53 -114 56 -142 46z m379 -497 c42 -55 48 -66 31 -66 -19 0
-140 142 -140 165 0 14 72 -51 109 -99z"/>
<path d="M4455 1917 c-17 -8 -36 -21 -44 -30 -17 -21 -35 -22 -51 -2 -7 8 -31
20 -53 26 -58 15 -109 -2 -144 -48 -27 -36 -28 -40 -27 -157 5 -347 90 -516
262 -516 70 0 134 49 168 129 20 47 58 206 85 356 25 142 19 179 -37 221 -41
32 -114 41 -159 21z"/>
</g>
</svg>
