<?xml version="1.0" standalone="no"?>
<!DOCTYPE svg PUBLIC "-//W3C//DTD SVG 20010904//EN"
 "http://www.w3.org/TR/2001/REC-SVG-20010904/DTD/svg10.dtd">
<svg version="1.0" xmlns="http://www.w3.org/2000/svg"
 width="600.000000pt" height="600.000000pt" viewBox="0 0 600.000000 600.000000"
 preserveAspectRatio="xMidYMid meet">
<metadata>
Created by potrace 1.15, written by Peter Selinger 2001-2017
</metadata>
<g transform="translate(0.000000,600.000000) scale(0.100000,-0.100000)"
fill="#16364b" stroke="none">
<path d="M2380 5400 c-18 -18 -20 -33 -20 -180 0 -397 -82 -601 -282 -701 -81
-40 -98 -56 -98 -90 0 -31 40 -69 73 -69 40 0 170 74 231 130 152 142 226 382
226 729 0 148 -1 153 -25 176 -30 31 -77 33 -105 5z"/>
<path d="M3522 5293 c-20 -8 -42 -59 -42 -96 0 -49 47 -135 105 -192 89 -89
168 -109 227 -57 60 55 37 144 -69 262 -25 28 -63 60 -84 70 -36 19 -107 25
-137 13z"/>
<path d="M3002 5083 c-48 -23 -108 -97 -132 -159 -60 -162 29 -270 167 -203
93 45 173 160 173 249 0 42 -28 94 -60 114 -36 20 -105 20 -148 -1z m64 -150
c-6 -27 -73 -100 -82 -90 -15 15 54 117 79 117 5 0 6 -12 3 -27z"/>
<path d="M4771 4746 c-41 -22 -50 -53 -51 -161 0 -115 23 -318 44 -389 29 -97
91 -156 163 -156 47 0 115 41 136 82 26 52 31 131 14 214 -42 197 -178 425
-253 424 -16 -1 -40 -7 -53 -14z"/>
<path d="M2642 4214 c-41 -21 -80 -70 -88 -110 -17 -87 60 -192 171 -234 128
-47 296 -11 381 83 29 32 34 44 34 86 0 77 -21 94 -175 142 -156 49 -270 60
-323 33z"/>
<path d="M5255 3966 c-103 -33 -179 -97 -220 -187 -51 -114 -23 -242 75 -339
73 -74 127 -95 240 -95 82 0 103 4 152 27 76 35 142 98 175 167 37 75 39 183
4 251 -39 76 -69 108 -139 150 -66 39 -71 40 -158 39 -49 0 -107 -6 -129 -13z
m139 -269 l30 -13 -22 -22 c-12 -12 -29 -22 -37 -22 -18 0 -38 37 -31 56 7 17
21 17 60 1z"/>
<path d="M4206 3764 c-64 -20 -113 -52 -160 -104 -114 -126 -118 -299 -10
-419 62 -69 120 -95 209 -95 124 0 238 72 292 182 23 50 27 69 27 152 0 164
-32 221 -148 267 -76 31 -149 37 -210 17z m77 -301 c-10 -29 -24 -43 -44 -43
-23 0 -24 18 -2 42 21 24 55 24 46 1z"/>
<path d="M1090 3393 c-154 -26 -291 -132 -342 -265 -16 -43 -19 -68 -15 -138
6 -108 18 -145 70 -222 80 -119 191 -172 398 -187 168 -12 215 -37 297 -155
70 -100 105 -207 182 -564 53 -242 117 -371 249 -502 66 -66 107 -96 176 -132
188 -97 254 -108 805 -133 911 -42 1355 6 1792 195 92 40 227 124 291 180 95
83 203 264 237 396 53 204 9 539 -99 752 -83 164 -254 292 -461 343 -73 19
-103 21 -220 16 -252 -11 -415 -72 -708 -266 -177 -117 -227 -144 -308 -164
-152 -39 -253 -28 -387 39 -40 20 -186 111 -325 202 -385 254 -442 287 -678
390 -349 153 -764 247 -954 215z m295 -389 c173 -29 352 -81 482 -140 95 -43
187 -97 374 -220 254 -166 562 -355 669 -409 157 -79 296 -105 457 -85 183 22
311 79 533 236 181 128 238 160 345 197 80 27 103 31 205 31 114 1 117 0 192
-37 108 -53 176 -128 210 -233 35 -106 43 -199 25 -299 -30 -161 -84 -255
-188 -326 -87 -59 -269 -144 -373 -173 -118 -34 -171 -42 -447 -66 -129 -11
-290 -25 -359 -31 -157 -14 -559 -5 -690 16 -52 8 -129 15 -170 15 -176 1
-345 38 -431 94 -86 57 -127 150 -205 458 -83 331 -154 509 -255 642 -111 147
-331 266 -493 266 -76 0 -131 15 -159 43 l-21 21 30 13 c33 15 127 10 269 -13z"/>
<path d="M2176 2277 c-29 -21 -23 -67 10 -94 16 -13 37 -23 46 -23 20 0 58 46
58 71 0 47 -73 76 -114 46z"/>
<path d="M2887 2068 c-76 -26 -15 -138 62 -113 24 7 36 43 27 79 -7 30 -50 46
-89 34z"/>
<path d="M3416 3359 c-42 -36 -145 -239 -153 -300 -11 -81 71 -118 143 -63 69
53 164 225 164 299 0 47 -8 64 -41 80 -43 23 -75 18 -113 -16z"/>
<path d="M480 2040 c-29 -29 -26 -81 6 -111 14 -13 33 -37 41 -53 8 -15 33
-48 56 -73 89 -97 194 -112 227 -34 35 85 -36 173 -207 260 -71 36 -96 38
-123 11z"/>
<path d="M5344 1115 c-26 -18 -60 -95 -69 -156 -18 -123 92 -190 175 -107 36
35 53 92 54 176 1 55 -2 66 -23 83 -28 23 -107 26 -137 4z"/>
</g>
</svg>
