<?xml version="1.0" standalone="no"?>
<!DOCTYPE svg PUBLIC "-//W3C//DTD SVG 20010904//EN"
 "http://www.w3.org/TR/2001/REC-SVG-20010904/DTD/svg10.dtd">
<svg version="1.0" xmlns="http://www.w3.org/2000/svg"
 width="600.000000pt" height="600.000000pt" viewBox="0 0 600.000000 600.000000"
 preserveAspectRatio="xMidYMid meet">
<metadata>
Created by potrace 1.15, written by Peter Selinger 2001-2017
</metadata>
<g transform="translate(0.000000,600.000000) scale(0.100000,-0.100000)"
fill="#16364b" stroke="none">
<path d="M2099 5825 c-26 -12 -103 -93 -280 -296 -263 -302 -335 -396 -345
-446 -11 -58 4 -105 50 -148 67 -65 157 -81 278 -49 80 20 321 124 538 232
207 103 224 120 218 215 -4 46 -10 63 -34 88 -32 35 -81 59 -118 59 -13 0 -92
-34 -175 -75 -83 -41 -151 -72 -151 -69 0 3 36 44 79 91 154 164 183 230 142
317 -38 77 -127 113 -202 81z"/>
<path d="M3040 5678 c-45 -31 -69 -66 -76 -110 -16 -95 25 -151 136 -186 39
-13 117 -46 173 -74 80 -40 116 -66 167 -117 69 -71 94 -121 106 -217 13 -102
-34 -167 -164 -228 -126 -59 -145 -72 -164 -107 -48 -90 8 -202 108 -216 29
-4 60 3 122 27 186 72 325 205 372 358 42 135 12 329 -72 470 -88 147 -336
324 -562 402 -76 26 -105 25 -146 -2z"/>
<path d="M944 5356 c-170 -53 -310 -202 -345 -368 -23 -105 6 -261 66 -365 60
-101 202 -203 284 -203 50 0 121 38 148 79 40 60 23 160 -35 199 -99 68 -152
142 -152 212 0 77 47 130 145 165 73 27 101 50 120 99 27 71 -5 145 -82 185
-28 14 -97 13 -149 -3z"/>
<path d="M2703 4960 c-70 -28 -132 -91 -174 -175 -30 -61 -34 -78 -34 -150 0
-69 4 -88 30 -139 65 -130 206 -206 380 -206 69 0 87 4 115 23 53 36 74 71 74
126 0 84 -58 141 -144 141 -102 1 -157 29 -141 73 7 19 17 22 64 23 132 4 199
123 126 225 -49 69 -196 98 -296 59z"/>
<path d="M4795 4908 c-38 -20 -85 -72 -95 -104 -13 -38 3 -253 25 -352 42
-181 157 -282 320 -282 220 0 338 226 230 442 -54 106 -148 192 -295 265 -87
45 -144 54 -185 31z"/>
<path d="M1887 4560 c-46 -12 -131 -54 -174 -87 -49 -37 -75 -87 -76 -141 -1
-94 60 -157 145 -149 26 2 57 12 70 21 13 9 38 28 57 41 49 36 74 32 108 -14
94 -132 276 -95 291 60 4 39 0 56 -21 92 -35 59 -107 124 -172 153 -61 28
-167 39 -228 24z"/>
<path d="M2853 3911 c-93 -44 -120 -147 -154 -603 -15 -189 -9 -220 52 -272
72 -61 164 -57 216 10 28 37 31 61 63 455 9 110 15 144 35 184 30 58 31 86 6
141 -39 86 -135 124 -218 85z"/>
<path d="M1130 3840 c-112 -24 -209 -62 -246 -98 -103 -100 -80 -237 50 -304
31 -16 52 -19 93 -15 l53 6 -27 -47 c-14 -26 -48 -83 -73 -127 -80 -135 -100
-179 -216 -475 -85 -219 -104 -279 -104 -332 0 -117 102 -194 223 -168 73 15
194 108 447 344 63 60 184 161 268 227 147 115 152 118 152 90 0 -48 -45 -205
-113 -396 -83 -233 -131 -344 -233 -542 -93 -179 -100 -212 -64 -284 40 -77
139 -104 209 -56 59 40 216 355 381 763 131 327 155 429 141 614 -12 146 -29
211 -70 261 -53 64 -137 85 -234 58 -49 -13 -199 -115 -333 -225 -57 -47 -104
-83 -104 -79 0 4 25 48 57 98 73 119 137 248 157 316 32 110 13 216 -52 292
-56 65 -101 83 -217 85 -55 2 -120 -1 -145 -6z"/>
<path d="M4285 3799 c-111 -18 -198 -62 -264 -134 -118 -128 -122 -286 -10
-409 68 -74 128 -99 228 -94 93 4 149 29 227 101 70 64 131 149 184 257 36 74
41 92 37 138 -7 90 -53 124 -192 141 -101 12 -138 12 -210 0z m2 -324 c-29
-25 -57 -33 -57 -15 0 11 49 39 70 39 10 0 5 -8 -13 -24z"/>
<path d="M3488 3401 c-104 -34 -178 -127 -227 -285 -31 -99 -28 -163 8 -213
41 -57 71 -66 198 -61 93 3 115 8 160 31 106 55 167 137 179 243 17 142 -94
280 -233 290 -32 2 -70 -1 -85 -5z"/>
<path d="M4869 2872 c-90 -57 -243 -250 -275 -345 -61 -184 50 -352 221 -334
99 10 214 89 281 192 61 97 91 251 65 342 -11 38 -103 146 -138 162 -44 20
-106 13 -154 -17z"/>
<path d="M4121 2527 c-90 -34 -161 -138 -161 -236 0 -30 10 -103 22 -163 12
-59 19 -110 17 -113 -3 -2 -37 9 -76 25 -145 61 -263 48 -355 -38 -134 -126
-148 -266 -60 -612 61 -236 62 -239 107 -288 117 -131 320 -95 394 68 29 63
26 105 -14 227 -19 59 -32 109 -30 112 3 2 24 -10 48 -28 99 -75 198 -97 303
-66 115 33 190 100 227 205 40 114 30 199 -52 453 -32 100 -67 215 -76 255
-32 133 -101 204 -203 209 -32 1 -72 -3 -91 -10z"/>
<path d="M2910 2242 c-36 -10 -114 -43 -175 -75 -60 -31 -174 -89 -252 -129
l-141 -72 -44 45 c-76 79 -181 96 -285 48 -46 -22 -172 -149 -199 -201 -23
-44 -22 -128 2 -169 32 -53 85 -89 152 -102 55 -10 62 -14 67 -39 3 -16 8 -42
11 -58 4 -23 2 -31 -13 -36 -144 -45 -243 -162 -272 -319 -16 -84 -13 -259 5
-335 33 -144 141 -310 261 -404 138 -108 330 -168 543 -169 148 0 225 18 365
88 191 96 239 143 239 240 0 65 -35 129 -92 170 -40 27 -51 30 -121 30 -76 0
-80 -1 -148 -46 -128 -86 -148 -94 -243 -94 -104 0 -173 20 -258 76 -83 54
-117 90 -151 158 -33 65 -44 122 -33 170 16 74 66 67 161 -23 84 -79 121 -99
186 -99 80 0 147 47 179 125 33 78 12 156 -56 211 -57 45 -114 137 -143 228
-33 104 -32 115 5 122 16 4 84 40 152 80 129 77 293 160 342 173 l29 7 -7 -44
c-14 -88 -92 -298 -163 -439 -80 -159 -87 -193 -54 -265 33 -72 86 -105 168
-105 57 0 106 23 142 67 37 45 168 302 216 422 43 109 90 288 100 382 17 157
-61 305 -193 366 -73 34 -191 40 -282 15z"/>
</g>
</svg>
