<?xml version="1.0" standalone="no"?>
<!DOCTYPE svg PUBLIC "-//W3C//DTD SVG 20010904//EN"
 "http://www.w3.org/TR/2001/REC-SVG-20010904/DTD/svg10.dtd">
<svg version="1.0" xmlns="http://www.w3.org/2000/svg"
 width="600.000000pt" height="600.000000pt" viewBox="0 0 600.000000 600.000000"
 preserveAspectRatio="xMidYMid meet">
<metadata>
Created by potrace 1.15, written by Peter Selinger 2001-2017
</metadata>
<g transform="translate(0.000000,600.000000) scale(0.100000,-0.100000)"
fill="#16364b" stroke="none">
<path d="M3274 5469 c-18 -5 -46 -25 -63 -44 -26 -30 -31 -44 -31 -87 0 -45 4
-54 38 -88 25 -25 55 -43 94 -54 71 -20 103 -56 113 -125 8 -57 -12 -147 -52
-230 -36 -78 -30 -142 21 -188 48 -44 123 -49 183 -12 86 53 165 351 133 504
-22 107 -71 183 -158 245 -92 66 -211 100 -278 79z"/>
<path d="M2096 5430 c-67 -21 -105 -81 -113 -181 -14 -161 72 -243 280 -268
43 -5 81 -11 83 -14 3 -2 -7 -67 -21 -143 -33 -175 -38 -308 -12 -347 53 -82
185 -91 251 -19 14 16 21 52 32 149 7 70 20 163 29 206 41 213 -2 354 -127
418 -22 11 -77 25 -123 31 -84 11 -85 11 -85 39 0 44 -16 75 -52 103 -38 28
-99 40 -142 26z"/>
<path d="M1657 4809 c-117 -10 -285 -42 -326 -64 -78 -40 -100 -145 -47 -225
45 -69 98 -82 224 -55 128 26 280 37 357 24 131 -21 167 -22 200 -5 47 26 69
63 73 126 4 63 -19 108 -76 147 -66 44 -238 66 -405 52z"/>
<path d="M4303 4545 c-45 -19 -73 -69 -73 -128 0 -83 43 -134 142 -171 129
-48 147 -80 148 -277 0 -135 2 -149 23 -179 46 -68 136 -89 197 -47 71 48 89
109 90 298 0 115 -23 202 -73 276 -60 86 -193 179 -323 223 -67 23 -88 24
-131 5z"/>
<path d="M3079 4372 c-159 -123 -214 -158 -379 -247 -80 -43 -157 -89 -173
-103 -32 -30 -51 -91 -42 -134 16 -71 105 -128 178 -112 18 3 95 42 172 86
247 141 488 312 532 377 64 94 -10 221 -128 221 -43 0 -55 -6 -160 -88z"/>
<path d="M1563 4404 c-100 -49 -102 -210 -5 -267 60 -35 514 -102 645 -95 85
4 126 28 157 93 36 74 18 153 -43 197 -26 19 -51 23 -162 30 -72 4 -215 19
-317 33 -218 29 -233 30 -275 9z"/>
<path d="M3720 3847 c-25 -6 -139 -59 -255 -117 -115 -59 -259 -129 -320 -155
-130 -57 -167 -82 -189 -128 -21 -47 -20 -89 4 -137 24 -47 56 -70 107 -77 52
-7 203 53 458 182 191 96 202 100 230 88 83 -35 171 0 215 86 21 41 16 134 -9
177 -49 82 -126 108 -241 81z"/>
<path d="M2220 3820 c-121 -38 -244 -52 -425 -49 -186 2 -207 -2 -245 -53 -43
-58 -39 -146 11 -202 41 -48 100 -60 289 -60 169 0 264 12 410 51 158 42 191
69 198 161 3 47 0 63 -20 91 -52 77 -112 93 -218 61z"/>
<path d="M4955 3517 c-51 -24 -93 -66 -111 -112 -18 -47 -16 -102 6 -224 20
-114 -16 -210 -135 -361 -201 -253 -329 -503 -328 -641 0 -66 39 -147 90 -186
80 -62 198 -66 275 -11 58 42 74 64 94 123 36 106 123 251 260 431 104 137
159 242 190 359 23 86 26 328 6 417 -29 127 -123 207 -250 215 -43 2 -78 -1
-97 -10z"/>
<path d="M1969 3159 c-71 -42 -97 -128 -61 -198 24 -48 59 -71 134 -86 51 -11
263 -34 315 -35 6 0 21 -16 34 -36 23 -38 85 -74 129 -74 40 0 105 35 130 70
72 101 0 269 -138 321 -39 14 -108 26 -212 35 -291 27 -291 27 -331 3z"/>
<path d="M4364 3169 c-18 -5 -64 -39 -103 -76 -151 -142 -261 -206 -475 -278
-76 -26 -193 -57 -260 -70 -139 -25 -176 -41 -205 -88 -47 -76 -17 -171 69
-215 41 -21 54 -23 135 -18 250 17 535 119 766 275 135 91 254 200 269 247 28
84 -13 178 -94 215 -45 21 -56 21 -102 8z"/>
<path d="M1345 2971 c-51 -23 -101 -79 -116 -130 -10 -34 -8 -57 10 -148 12
-59 39 -216 61 -348 46 -278 67 -367 117 -485 82 -193 146 -267 237 -277 63
-8 110 12 156 64 74 84 77 165 12 266 -74 114 -103 216 -127 442 -27 263 -76
491 -119 555 -47 72 -149 99 -231 61z"/>
<path d="M2161 2399 c-69 -13 -171 -66 -211 -108 -50 -52 -66 -115 -44 -170
34 -84 124 -104 236 -51 89 42 127 40 177 -10 46 -46 76 -60 134 -60 73 0 132
50 144 124 9 56 -20 118 -82 174 -103 95 -219 128 -354 101z"/>
<path d="M3930 2091 c-58 -11 -196 -37 -307 -60 -206 -41 -418 -77 -623 -106
-141 -19 -190 -37 -228 -80 -82 -93 -64 -221 42 -299 25 -19 41 -21 149 -20
160 2 274 21 687 119 281 67 395 88 432 81 51 -10 127 13 170 52 54 48 71 86
71 153 0 68 -26 117 -80 151 -50 30 -172 34 -313 9z"/>
<path d="M2180 1778 c-76 -52 -95 -126 -66 -251 32 -135 112 -254 245 -359
142 -113 214 -130 286 -67 69 61 67 170 -4 235 -20 18 -63 58 -97 89 -73 66
-106 124 -128 226 -17 77 -39 110 -93 138 -37 19 -107 13 -143 -11z"/>
<path d="M4725 1666 c-16 -8 -63 -46 -103 -85 -102 -99 -195 -142 -487 -225
-354 -100 -587 -187 -672 -252 -49 -37 -73 -91 -73 -166 0 -108 61 -171 166
-171 40 0 74 11 162 51 156 72 262 108 452 153 91 21 206 49 255 60 188 45
304 106 413 218 104 106 142 173 142 253 0 42 -27 103 -56 129 -54 48 -138 62
-199 35z"/>
<path d="M2055 1021 c-73 -34 -115 -102 -115 -188 0 -94 56 -160 242 -281 168
-109 317 -150 574 -159 199 -7 330 10 454 58 106 40 149 85 165 170 8 43 -9
113 -38 153 -24 33 -89 65 -133 66 -18 0 -74 -16 -125 -37 -85 -33 -105 -37
-214 -41 -88 -3 -138 0 -190 12 -97 23 -238 94 -342 173 -48 36 -102 72 -120
79 -45 19 -111 17 -158 -5z"/>
</g>
</svg>
