<?xml version="1.0" standalone="no"?>
<!DOCTYPE svg PUBLIC "-//W3C//DTD SVG 20010904//EN"
 "http://www.w3.org/TR/2001/REC-SVG-20010904/DTD/svg10.dtd">
<svg version="1.0" xmlns="http://www.w3.org/2000/svg"
 width="600.000000pt" height="600.000000pt" viewBox="0 0 600.000000 600.000000"
 preserveAspectRatio="xMidYMid meet">
<metadata>
Created by potrace 1.15, written by Peter Selinger 2001-2017
</metadata>
<g transform="translate(0.000000,600.000000) scale(0.100000,-0.100000)"
fill="#16364b" stroke="none">
<path d="M1570 5765 c-51 -23 -68 -53 -97 -173 -33 -142 -43 -374 -19 -474 39
-166 117 -251 232 -251 104 0 182 63 295 237 80 123 208 383 215 438 11 80
-40 148 -111 148 -64 0 -124 -48 -167 -134 -45 -90 -201 -346 -210 -346 -7 0
-9 38 -6 108 4 80 13 137 38 226 l33 120 -19 34 c-38 70 -114 97 -184 67z"/>
<path d="M3255 5521 c-61 -27 -91 -110 -61 -169 9 -17 51 -55 98 -88 122 -85
248 -193 248 -212 0 -7 -11 -12 -25 -12 -13 0 -40 -13 -58 -30 -114 -100 11
-274 206 -288 83 -6 143 15 186 64 134 152 -15 416 -378 666 -86 59 -112 72
-150 75 -25 1 -55 -1 -66 -6z"/>
<path d="M845 5483 c-197 -71 -305 -234 -293 -442 6 -99 45 -188 114 -255 81
-80 140 -101 208 -72 101 42 111 172 17 243 -57 43 -62 53 -58 114 3 60 25 98
75 132 23 15 40 17 107 12 69 -5 84 -3 112 14 41 26 66 75 66 129 0 50 -23 87
-74 117 -48 28 -204 33 -274 8z"/>
<path d="M2987 5174 c-100 -31 -193 -170 -204 -303 -12 -147 58 -231 192 -231
60 0 159 29 213 62 55 34 65 65 60 198 -3 102 -7 124 -32 173 -45 92 -133 131
-229 101z"/>
<path d="M2280 4982 c-43 -21 -70 -72 -70 -133 0 -60 -11 -69 -150 -124 -125
-49 -165 -80 -180 -135 -27 -100 75 -200 173 -171 297 87 416 178 445 341 12
64 3 137 -21 174 -22 33 -87 66 -129 66 -18 0 -49 -8 -68 -18z"/>
<path d="M4770 4828 c-25 -14 -54 -38 -66 -56 -44 -64 -38 -235 12 -390 76
-232 231 -343 405 -290 131 39 198 209 145 366 -42 123 -163 264 -297 343 -89
53 -137 59 -199 27z"/>
<path d="M2774 4139 c-66 -15 -145 -69 -181 -123 -40 -58 -44 -125 -14 -184
28 -55 102 -119 179 -155 128 -60 307 -48 496 34 129 55 166 97 166 186 0 57
-26 105 -71 132 -42 26 -225 86 -321 105 -84 17 -189 19 -254 5z"/>
<path d="M1025 4056 c-42 -19 -75 -53 -92 -94 -38 -91 31 -203 132 -217 85
-10 179 -26 198 -31 17 -5 16 -9 -10 -36 -35 -37 -196 -167 -288 -234 -73 -52
-220 -144 -233 -144 -15 -1 -61 -46 -81 -80 -27 -45 -28 -118 -1 -169 27 -54
81 -85 146 -85 45 0 63 7 144 56 l93 56 21 -41 c50 -99 150 -115 248 -40 105
80 209 131 318 154 43 9 61 8 105 -6 102 -32 184 17 205 122 22 103 -8 176
-86 213 -49 24 -57 24 -229 -4 -49 -8 -92 -13 -94 -10 -3 2 12 21 31 42 73 74
114 198 97 289 -29 156 -201 245 -514 268 -58 4 -88 2 -110 -9z"/>
<path d="M4222 3789 c-156 -30 -275 -147 -301 -295 -34 -186 93 -346 285 -362
200 -16 378 158 424 414 26 147 -38 212 -240 244 -74 11 -107 11 -168 -1z m58
-318 c0 -17 -53 -52 -63 -42 -12 12 -1 30 27 41 28 12 36 12 36 1z"/>
<path d="M3420 3398 c-84 -28 -240 -242 -240 -331 0 -42 34 -94 79 -120 46
-28 167 -26 227 4 136 65 190 362 79 435 -32 21 -100 26 -145 12z"/>
<path d="M5055 3328 c-77 -39 -160 -107 -207 -169 -106 -141 -93 -341 29 -434
60 -45 102 -58 182 -53 126 7 235 84 295 208 28 59 31 74 31 160 0 76 -4 104
-21 140 -27 58 -101 148 -136 166 -44 23 -106 16 -173 -18z"/>
<path d="M1074 2881 c-11 -5 -32 -23 -47 -40 -62 -75 -37 -167 61 -223 69 -39
141 -110 166 -161 26 -57 31 -134 12 -200 -30 -102 -126 -198 -200 -200 -32
-1 -44 6 -87 50 -72 74 -136 82 -198 24 -68 -63 -63 -157 12 -238 84 -92 189
-126 323 -105 100 16 181 59 265 142 110 108 159 229 159 389 0 164 -46 281
-156 399 -117 127 -241 192 -310 163z"/>
<path d="M2223 2786 c-104 -34 -182 -104 -254 -228 -21 -38 -57 -100 -80 -138
-22 -39 -66 -99 -98 -133 -32 -34 -66 -77 -75 -96 -10 -18 -45 -65 -78 -105
-185 -220 -265 -453 -255 -741 7 -188 44 -296 153 -441 136 -184 362 -307 609
-335 271 -30 590 110 832 364 112 118 162 216 227 447 79 281 90 344 91 495 0
120 -3 149 -23 206 -70 203 -190 295 -419 319 -138 15 -145 19 -177 98 -55
133 -131 223 -229 267 -66 30 -167 40 -224 21z m127 -490 c25 -60 48 -95 97
-147 86 -91 119 -106 272 -119 166 -14 169 -15 181 -59 34 -124 -17 -403 -115
-616 -63 -137 -179 -263 -302 -328 -169 -89 -353 -70 -556 56 -120 75 -161
150 -160 297 1 111 31 227 89 343 42 83 74 127 156 214 32 34 58 66 58 72 0 6
17 30 38 54 50 54 110 145 152 227 34 65 51 93 55 88 2 -2 17 -39 35 -82z"/>
<path d="M4105 2364 c-43 -22 -74 -53 -98 -99 -18 -32 -22 -56 -21 -123 l2
-83 -32 8 c-125 32 -251 -26 -286 -133 -25 -74 3 -244 77 -471 42 -131 73
-175 147 -209 78 -37 144 -29 216 25 27 20 44 25 77 23 23 -2 66 3 96 12 108
31 165 130 154 265 -44 521 -55 618 -76 672 -15 40 -71 100 -108 115 -43 19
-111 17 -148 -2z"/>
</g>
</svg>
