<?xml version="1.0" standalone="no"?>
<!DOCTYPE svg PUBLIC "-//W3C//DTD SVG 20010904//EN"
 "http://www.w3.org/TR/2001/REC-SVG-20010904/DTD/svg10.dtd">
<svg version="1.0" xmlns="http://www.w3.org/2000/svg"
 width="600.000000pt" height="600.000000pt" viewBox="0 0 600.000000 600.000000"
 preserveAspectRatio="xMidYMid meet">
<metadata>
Created by potrace 1.15, written by Peter Selinger 2001-2017
</metadata>
<g transform="translate(0.000000,600.000000) scale(0.100000,-0.100000)"
fill="#16364b" stroke="none">
<path d="M2815 5583 c-33 -9 -74 -43 -90 -73 -22 -42 -18 -100 10 -163 42 -95
66 -243 64 -384 -3 -134 3 -151 62 -196 66 -48 174 -19 213 58 55 106 -9 557
-96 685 -41 59 -106 88 -163 73z"/>
<path d="M1960 5438 c-55 -29 -84 -75 -84 -138 0 -58 23 -98 137 -243 46 -60
126 -178 177 -264 110 -183 129 -208 175 -223 67 -22 153 19 191 91 29 56 19
105 -43 209 -112 189 -216 333 -378 527 -23 27 -49 46 -73 53 -50 13 -51 13
-102 -12z"/>
<path d="M4384 4781 c-95 -43 -116 -144 -70 -325 45 -176 171 -392 249 -429
73 -35 153 -9 190 63 25 49 17 85 -44 190 -60 104 -102 221 -123 345 -17 98
-32 127 -79 155 -40 25 -70 25 -123 1z"/>
<path d="M1440 4760 c-63 -28 -100 -86 -100 -159 0 -39 6 -56 27 -82 41 -48
78 -59 205 -59 164 0 277 -28 413 -100 48 -25 68 -31 102 -27 116 13 172 147
100 240 -46 60 -227 140 -391 173 -95 19 -323 27 -356 14z"/>
<path d="M3180 4522 c-23 -11 -82 -75 -170 -184 -159 -198 -210 -250 -330
-343 -49 -39 -94 -82 -101 -98 -6 -15 -9 -48 -6 -74 4 -38 12 -54 40 -80 44
-40 104 -57 152 -44 68 19 237 156 364 296 86 95 258 331 266 363 14 67 -31
146 -98 171 -41 16 -77 13 -117 -7z"/>
<path d="M1745 4291 c-60 -26 -103 -110 -90 -174 8 -37 47 -92 76 -108 11 -5
66 -19 122 -31 194 -38 501 -19 599 39 104 61 98 197 -12 253 -47 24 -82 25
-175 5 -89 -19 -208 -18 -310 1 -108 20 -186 26 -210 15z"/>
<path d="M3841 4167 c-14 -6 -61 -56 -105 -111 -183 -225 -425 -398 -696 -496
-114 -41 -127 -49 -150 -86 -59 -94 14 -224 127 -224 70 0 280 87 418 173 180
112 487 392 576 526 48 73 36 148 -31 205 -35 29 -97 35 -139 13z"/>
<path d="M2265 3763 c-140 -31 -348 -41 -486 -23 -114 15 -145 8 -186 -47 -60
-79 -34 -191 54 -234 46 -23 57 -24 273 -24 191 0 246 4 365 24 156 26 207 47
235 94 24 38 26 106 5 147 -20 39 -72 76 -115 83 -20 2 -83 -6 -145 -20z"/>
<path d="M5035 3771 c-86 -40 -145 -132 -145 -225 1 -23 7 -68 15 -101 22 -89
19 -245 -6 -341 -47 -182 -163 -351 -361 -526 -137 -122 -162 -239 -72 -338
63 -70 188 -99 283 -65 79 28 228 162 332 300 72 95 164 235 196 300 122 243
148 523 76 830 -14 59 -23 76 -63 116 -70 70 -170 89 -255 50z"/>
<path d="M1967 3136 c-46 -17 -61 -29 -86 -70 -40 -66 -35 -146 14 -204 30
-36 139 -94 218 -117 75 -22 209 -22 347 0 86 13 111 21 140 44 45 36 60 65
60 121 0 55 -25 99 -73 129 -33 20 -46 22 -195 19 l-159 -3 -84 42 c-100 51
-131 57 -182 39z"/>
<path d="M4435 3129 c-16 -5 -70 -43 -120 -86 -255 -218 -435 -288 -889 -347
-114 -15 -141 -27 -180 -79 -14 -20 -20 -43 -20 -80 0 -63 23 -111 67 -138 28
-18 43 -20 122 -15 229 14 552 77 695 135 210 86 502 310 531 409 35 119 -87
238 -206 201z"/>
<path d="M1440 2929 c-33 -13 -78 -57 -97 -92 -38 -74 -60 -293 -44 -454 21
-230 77 -393 193 -569 126 -192 184 -244 275 -244 91 0 162 52 192 139 26 78
3 145 -76 223 -151 149 -219 424 -181 733 l11 94 -29 58 c-38 76 -92 115 -166
120 -29 1 -64 -2 -78 -8z"/>
<path d="M2176 2350 c-57 -18 -106 -83 -106 -141 0 -78 70 -137 331 -277 79
-43 105 -52 146 -52 140 0 204 162 101 256 -12 12 -66 43 -118 69 -52 26 -131
69 -175 95 -85 51 -132 64 -179 50z"/>
<path d="M4195 2081 c-38 -15 -131 -53 -205 -83 -157 -64 -228 -88 -365 -122
-230 -57 -415 -91 -582 -105 -114 -10 -170 -29 -204 -67 -84 -95 -56 -249 54
-306 67 -34 142 -27 647 57 308 51 346 62 575 165 83 37 187 80 233 96 136 47
182 100 182 207 0 41 -6 63 -29 99 -58 91 -172 113 -306 59z"/>
<path d="M4943 1751 c-43 -11 -70 -33 -148 -123 -143 -166 -305 -256 -622
-348 -172 -49 -251 -66 -405 -85 -98 -12 -129 -20 -161 -41 -115 -76 -94 -262
38 -331 110 -58 673 71 977 223 259 129 516 342 550 455 23 79 -27 195 -101
233 -37 19 -90 26 -128 17z"/>
<path d="M1993 1363 c-52 -29 -76 -69 -81 -132 -5 -77 17 -112 114 -186 104
-79 180 -118 306 -159 128 -42 239 -59 355 -55 80 4 94 7 126 32 21 15 44 41
52 57 21 40 19 106 -4 144 -32 51 -71 67 -187 77 -181 14 -341 76 -490 188
-58 44 -73 51 -113 51 -26 0 -61 -8 -78 -17z"/>
<path d="M2015 884 c-104 -54 -147 -173 -96 -271 26 -53 55 -75 167 -129 258
-123 569 -187 800 -164 115 12 329 62 384 90 147 75 152 273 8 344 -28 14 -63
26 -77 26 -15 0 -93 -14 -176 -31 -194 -41 -366 -45 -490 -11 -118 31 -179 54
-302 111 -118 55 -165 63 -218 35z"/>
</g>
</svg>
