<?xml version="1.0" standalone="no"?>
<!DOCTYPE svg PUBLIC "-//W3C//DTD SVG 20010904//EN"
 "http://www.w3.org/TR/2001/REC-SVG-20010904/DTD/svg10.dtd">
<svg version="1.0" xmlns="http://www.w3.org/2000/svg"
 width="600.000000pt" height="600.000000pt" viewBox="0 0 600.000000 600.000000"
 preserveAspectRatio="xMidYMid meet">
<metadata>
Created by potrace 1.15, written by Peter Selinger 2001-2017
</metadata>
<g transform="translate(0.000000,600.000000) scale(0.100000,-0.100000)"
fill="#16364b" stroke="none">
<path d="M2037 5823 c-27 -11 -56 -40 -105 -103 -37 -48 -110 -141 -163 -206
-243 -300 -308 -447 -247 -563 27 -53 60 -79 116 -92 77 -17 132 3 419 147
371 187 418 215 443 264 39 75 18 163 -47 202 -62 36 -111 28 -221 -37 -177
-105 -194 -110 -127 -37 59 66 144 194 151 228 15 78 -24 155 -96 192 -52 26
-71 27 -123 5z"/>
<path d="M3040 5678 c-25 -13 -53 -37 -63 -56 -27 -46 -27 -124 -1 -160 22
-29 22 -29 215 -121 203 -98 295 -199 333 -367 29 -131 -11 -190 -164 -239
-71 -23 -104 -46 -124 -89 -48 -102 21 -216 131 -216 91 0 270 81 352 160 132
126 168 350 91 568 -76 216 -302 404 -617 513 -46 16 -89 29 -96 29 -7 0 -33
-10 -57 -22z"/>
<path d="M960 5374 c-191 -50 -342 -204 -370 -377 -28 -174 54 -360 211 -479
80 -61 125 -75 178 -59 124 37 155 196 54 276 -71 56 -100 90 -118 138 -15 40
-16 54 -6 87 23 77 67 109 190 141 27 6 58 24 79 45 33 33 34 37 30 94 -4 49
-10 66 -34 91 -55 59 -111 70 -214 43z"/>
<path d="M2772 4993 c-64 -23 -146 -103 -183 -181 -83 -173 -21 -341 159 -425
57 -27 80 -32 162 -35 119 -4 154 11 188 80 33 65 24 119 -28 170 -38 38 -38
38 -123 38 -53 0 -88 4 -93 11 -5 9 6 10 37 5 98 -15 187 75 175 178 -7 64
-45 112 -116 149 -61 31 -112 34 -178 10z"/>
<path d="M4731 4881 c-51 -51 -57 -91 -37 -251 26 -198 63 -302 137 -378 108
-113 252 -120 367 -17 105 94 137 236 81 355 -50 106 -138 182 -330 284 -114
62 -162 63 -218 7z"/>
<path d="M1915 4621 c-87 -23 -193 -90 -225 -144 -25 -41 -26 -111 -1 -157 21
-39 89 -80 133 -80 35 0 80 18 132 54 58 39 85 35 121 -21 40 -62 85 -85 153
-80 41 3 59 10 82 32 34 33 54 91 44 132 -19 83 -116 198 -205 244 -48 24
-176 35 -234 20z"/>
<path d="M2988 3936 c-104 -29 -212 -128 -266 -246 -23 -48 -26 -69 -26 -160
-1 -99 1 -109 31 -171 34 -69 99 -140 173 -189 109 -73 231 -10 233 119 1 59
-22 101 -72 134 -23 15 -43 38 -47 53 -10 39 2 100 26 134 19 26 27 30 50 25
46 -10 111 13 152 55 35 34 38 42 38 92 0 68 -28 114 -85 143 -49 24 -144 29
-207 11z"/>
<path d="M1174 3896 c-186 -35 -275 -75 -315 -139 -83 -138 38 -322 190 -288
23 5 41 7 41 5 0 -2 -40 -70 -88 -151 -217 -363 -350 -629 -387 -769 -23 -89
-2 -154 66 -204 80 -58 176 -48 267 28 26 21 112 86 192 145 161 117 259 197
394 321 208 191 196 182 196 142 0 -42 -29 -189 -54 -277 -32 -110 -163 -441
-232 -588 -30 -63 -82 -160 -116 -215 -49 -80 -61 -108 -61 -142 0 -82 65
-146 152 -147 96 -1 126 36 285 358 159 320 236 523 281 738 14 67 30 142 36
167 6 25 13 108 16 186 5 118 3 150 -12 197 -33 107 -110 149 -243 133 -102
-12 -280 -115 -404 -234 -21 -20 -38 -33 -38 -28 0 10 38 75 129 221 90 144
113 201 114 280 2 108 -53 194 -155 246 -52 27 -159 33 -254 15z"/>
<path d="M4235 3790 c-160 -26 -257 -87 -307 -195 -34 -73 -33 -210 1 -279 31
-63 84 -116 147 -147 41 -20 64 -24 139 -24 82 0 97 3 156 32 121 60 195 162
260 355 44 134 29 202 -57 243 -44 21 -245 29 -339 15z m45 -305 c0 -6 -62
-45 -72 -45 -15 0 -8 29 10 39 18 11 62 15 62 6z"/>
<path d="M3455 3377 c-92 -44 -166 -139 -210 -270 -41 -124 -29 -198 41 -246
31 -22 41 -23 136 -19 118 5 176 26 235 87 105 106 111 319 14 424 -36 38 -42
41 -102 44 -52 3 -74 -1 -114 -20z"/>
<path d="M4895 2932 c-36 -23 -175 -169 -214 -226 -134 -197 -95 -399 87 -452
132 -39 286 39 354 178 53 108 74 267 46 349 -12 36 -96 136 -132 156 -32 19
-107 16 -141 -5z"/>
<path d="M4046 2525 c-88 -31 -147 -103 -154 -190 -4 -46 2 -76 38 -181 23
-69 41 -127 39 -128 -2 -2 -38 10 -79 27 -181 73 -344 36 -415 -94 -38 -70
-45 -178 -20 -300 24 -121 124 -498 140 -529 8 -15 31 -42 53 -62 135 -122
345 -43 384 144 10 48 8 63 -20 164 -18 61 -32 115 -32 119 0 5 15 -5 33 -22
74 -73 183 -91 300 -52 126 42 196 124 217 255 14 82 -5 172 -80 394 -38 113
-79 238 -90 279 -18 60 -30 82 -68 120 -69 68 -156 88 -246 56z"/>
<path d="M2890 2164 c-41 -14 -177 -77 -303 -140 -198 -100 -228 -112 -234
-97 -32 93 -76 146 -148 179 -58 28 -102 30 -171 9 -62 -18 -117 -65 -182
-152 -95 -130 -110 -187 -70 -275 32 -69 81 -102 153 -104 47 -2 50 -4 52 -30
3 -26 -3 -32 -49 -53 -65 -31 -193 -157 -230 -227 -86 -162 -77 -358 26 -562
106 -208 280 -352 524 -431 188 -62 344 -62 518 -2 178 61 350 190 374 279 28
106 -48 220 -168 252 -75 19 -133 -3 -222 -83 -62 -56 -153 -103 -217 -113
-54 -8 -165 16 -235 52 -74 37 -159 105 -192 152 -72 105 -96 233 -56 300 28
45 53 41 90 -13 40 -57 123 -141 159 -160 16 -8 47 -17 69 -21 108 -17 222 86
224 204 1 59 -20 101 -71 141 -45 36 -99 136 -108 197 -5 39 -5 39 38 51 24 7
74 32 112 57 144 96 253 160 330 192 44 19 82 32 85 30 15 -15 -91 -334 -148
-446 -21 -41 -54 -102 -74 -134 -46 -76 -50 -146 -11 -212 56 -95 197 -111
283 -31 32 30 153 236 218 371 98 205 145 437 114 567 -31 130 -107 226 -206
262 -73 26 -182 22 -274 -9z"/>
</g>
</svg>
