<?xml version="1.0" standalone="no"?>
<!DOCTYPE svg PUBLIC "-//W3C//DTD SVG 20010904//EN"
 "http://www.w3.org/TR/2001/REC-SVG-20010904/DTD/svg10.dtd">
<svg version="1.0" xmlns="http://www.w3.org/2000/svg"
 width="600.000000pt" height="600.000000pt" viewBox="0 0 600.000000 600.000000"
 preserveAspectRatio="xMidYMid meet">
<metadata>
Created by potrace 1.15, written by Peter Selinger 2001-2017
</metadata>
<g transform="translate(0.000000,600.000000) scale(0.100000,-0.100000)"
fill="#16364b" stroke="none">
<path d="M1540 5763 c-45 -23 -64 -63 -90 -191 -40 -197 -37 -390 8 -516 23
-66 96 -132 157 -141 51 -8 106 7 152 42 114 84 363 487 363 585 0 74 -53 128
-125 128 -67 0 -92 -24 -152 -150 -31 -63 -81 -153 -112 -200 l-56 -85 -3 39
c-4 43 19 202 45 312 15 68 15 73 -3 109 -37 74 -116 103 -184 68z"/>
<path d="M843 5486 c-181 -59 -307 -247 -290 -433 15 -154 140 -303 255 -303
38 0 50 5 83 39 33 33 39 45 39 82 0 50 -17 79 -77 133 -37 33 -43 44 -43 78
0 68 49 138 113 161 10 4 47 0 81 -9 59 -16 63 -16 107 3 47 21 79 67 79 112
0 47 -39 102 -88 124 -59 26 -197 33 -259 13z"/>
<path d="M3320 5467 c-53 -41 -68 -132 -30 -180 12 -14 67 -54 123 -88 56 -33
104 -63 106 -64 2 -2 -13 -18 -33 -35 -38 -34 -53 -80 -42 -126 10 -38 97
-126 153 -155 69 -35 155 -34 210 3 60 39 87 102 80 184 -11 144 -115 267
-334 397 -110 65 -138 77 -175 77 -23 0 -50 -6 -58 -13z"/>
<path d="M2995 5161 c-92 -24 -186 -109 -218 -197 -31 -89 -18 -203 31 -257
57 -63 172 -75 292 -31 84 31 124 66 139 120 14 51 14 182 -1 225 -15 47 -58
104 -90 124 -33 19 -111 27 -153 16z"/>
<path d="M2316 5130 c-67 -20 -96 -75 -96 -183 0 -89 -22 -168 -58 -208 -15
-16 -72 -53 -127 -82 -84 -44 -103 -58 -119 -90 -24 -51 -15 -100 29 -144 27
-27 41 -33 74 -33 79 0 265 103 348 193 82 89 113 177 119 342 5 109 4 123
-16 153 -20 33 -73 63 -107 61 -10 0 -31 -5 -47 -9z"/>
<path d="M4755 4830 c-11 -4 -33 -22 -50 -40 l-30 -31 1 -122 c1 -176 36 -294
131 -438 85 -131 185 -174 305 -134 51 18 121 82 149 138 33 64 41 130 24 209
-31 152 -137 266 -348 377 -96 51 -138 60 -182 41z"/>
<path d="M2761 4170 c-176 -37 -251 -222 -151 -372 98 -147 358 -180 573 -73
88 45 146 85 166 118 60 101 21 202 -95 243 -183 66 -249 82 -365 88 -46 3
-104 1 -128 -4z"/>
<path d="M1036 4055 c-130 -47 -151 -212 -36 -289 27 -18 60 -27 140 -36 58
-7 116 -17 129 -22 l24 -9 -44 -45 c-89 -91 -273 -194 -451 -253 -76 -25 -113
-60 -124 -117 -14 -77 41 -164 118 -185 50 -13 69 -9 225 53 160 62 173 66
173 43 0 -30 38 -80 77 -102 82 -45 126 -39 219 32 27 21 72 49 101 62 l51 24
61 -21 c74 -25 124 -25 177 -1 137 62 122 237 -28 301 -45 19 -65 22 -165 18
-62 -2 -113 -2 -113 0 0 1 12 21 26 43 39 62 54 115 54 188 0 143 -103 243
-299 291 -42 10 -105 21 -141 25 -36 3 -81 8 -100 10 -19 3 -53 -2 -74 -10z"/>
<path d="M4214 3780 c-155 -33 -289 -182 -301 -333 -7 -82 8 -128 60 -185 48
-51 91 -75 168 -92 220 -49 407 80 470 324 31 120 20 183 -41 226 -65 46 -264
80 -356 60z m46 -315 c-26 -28 -50 -33 -50 -10 0 15 31 33 59 34 10 1 7 -7 -9
-24z"/>
<path d="M5132 3434 c-116 -40 -250 -152 -297 -247 -62 -127 -49 -281 30 -360
61 -60 93 -72 190 -72 82 0 97 3 157 33 75 37 143 105 180 180 18 37 23 63 23
127 0 100 -19 152 -92 248 -73 97 -115 117 -191 91z"/>
<path d="M3413 3371 c-51 -24 -97 -83 -158 -207 -49 -100 -52 -117 -31 -169
28 -66 117 -93 219 -64 140 39 226 310 131 413 -47 49 -93 57 -161 27z"/>
<path d="M2315 2971 c-45 -12 -110 -47 -149 -81 -48 -43 -88 -108 -140 -233
-55 -131 -92 -184 -173 -248 -35 -27 -63 -53 -63 -58 0 -5 -43 -56 -96 -113
-150 -163 -234 -300 -283 -465 -152 -513 49 -910 536 -1060 82 -25 100 -27
273 -27 228 -1 308 17 485 106 181 91 350 275 419 455 56 148 132 493 145 657
25 312 -91 561 -315 678 -90 47 -151 102 -221 196 -109 147 -179 192 -308 198
-44 2 -93 0 -110 -5z m107 -420 c4 -12 115 -155 154 -199 18 -21 71 -55 134
-86 75 -37 111 -60 126 -84 82 -121 38 -566 -78 -797 -46 -90 -172 -211 -275
-263 -103 -51 -174 -66 -283 -59 -200 12 -392 136 -435 280 -54 181 54 488
231 657 233 223 302 316 387 523 15 35 32 47 39 28z"/>
<path d="M874 2714 c-61 -30 -85 -115 -50 -182 11 -21 47 -52 103 -88 169
-109 249 -220 241 -333 -5 -65 -32 -112 -80 -137 -63 -32 -135 15 -213 141
-48 77 -74 95 -135 95 -73 0 -141 -88 -126 -163 9 -47 92 -173 153 -233 31
-30 84 -68 121 -86 60 -29 76 -33 152 -33 78 0 90 3 150 35 35 19 88 58 116
87 138 137 163 334 67 531 -59 121 -217 277 -352 349 -69 36 -101 40 -147 17z"/>
<path d="M4165 2261 c-75 -34 -125 -113 -125 -200 0 -28 -3 -32 -17 -25 -35
15 -110 16 -145 1 -19 -8 -48 -32 -64 -53 -27 -35 -29 -44 -29 -128 0 -118 58
-458 86 -503 31 -49 97 -77 171 -70 34 3 84 1 112 -5 105 -22 220 40 267 144
20 45 24 73 27 183 2 72 -1 173 -7 225 -6 52 -16 142 -22 200 -16 144 -46 199
-131 235 -48 19 -74 19 -123 -4z"/>
</g>
</svg>
