<?xml version="1.0" standalone="no"?>
<!DOCTYPE svg PUBLIC "-//W3C//DTD SVG 20010904//EN"
 "http://www.w3.org/TR/2001/REC-SVG-20010904/DTD/svg10.dtd">
<svg version="1.0" xmlns="http://www.w3.org/2000/svg"
 width="600.000000pt" height="600.000000pt" viewBox="0 0 600.000000 600.000000"
 preserveAspectRatio="xMidYMid meet">
<metadata>
Created by potrace 1.15, written by Peter Selinger 2001-2017
</metadata>
<g transform="translate(0.000000,600.000000) scale(0.100000,-0.100000)"
fill="#16364b" stroke="none">
<path d="M2035 5091 c-163 -43 -259 -213 -226 -402 6 -35 24 -208 40 -384 29
-319 29 -321 26 -980 -1 -363 -6 -667 -10 -675 -13 -27 -346 -330 -457 -416
-50 -39 -60 -43 -79 -34 -27 15 -50 -3 -31 -22 20 -20 14 -24 -28 -20 -46 5
-52 -9 -19 -44 l22 -23 -27 -12 c-39 -18 -29 -43 18 -49 35 -4 37 -7 23 -19
-23 -19 -21 -41 3 -41 25 0 125 56 143 79 6 9 48 43 92 76 43 33 134 113 201
178 67 64 124 117 128 117 3 0 6 -69 6 -153 0 -178 16 -290 67 -457 107 -356
264 -502 613 -574 l25 -5 0 -173 c0 -192 12 -265 71 -449 49 -151 51 -145 -50
-152 -121 -8 -176 -43 -176 -110 0 -89 100 -121 241 -77 77 23 130 65 158 123
30 61 26 105 -19 257 -61 204 -74 279 -75 422 0 84 4 131 12 139 9 9 28 8 80
-2 52 -11 162 -13 475 -12 l408 2 -6 -47 c-3 -26 -7 -55 -9 -64 -9 -50 20
-203 87 -447 21 -79 37 -149 35 -155 -2 -7 -36 -11 -90 -12 -77 0 -89 -3 -121
-27 -66 -51 -56 -128 20 -167 38 -19 145 -17 203 4 88 32 150 105 151 177 0
14 -22 99 -50 187 -89 291 -106 421 -65 519 14 33 15 33 82 33 76 0 286 31
377 55 88 23 152 62 216 133 130 141 212 397 214 667 1 110 -3 141 -22 205
-52 165 -128 274 -277 397 -58 47 -104 88 -102 89 2 2 39 -1 83 -5 43 -5 151
-13 239 -17 88 -3 165 -11 172 -16 16 -13 163 21 170 39 3 7 0 20 -6 27 -9 11
-9 15 0 18 8 3 10 11 4 24 -4 10 -7 27 -6 38 2 16 -2 17 -48 11 -48 -7 -51 -6
-61 19 -12 32 -25 33 -41 5 -11 -21 -15 -22 -138 -16 -120 6 -473 39 -591 56
-50 7 -73 20 -235 137 -99 71 -236 165 -305 208 -69 43 -201 131 -295 195
-400 274 -511 444 -752 1155 -40 121 -86 242 -101 270 -39 71 -112 143 -178
173 -60 27 -155 38 -209 24z m155 -171 c63 -32 115 -115 145 -229 9 -35 20
-70 25 -79 6 -10 37 -93 71 -187 65 -178 146 -370 225 -527 129 -258 206 -329
749 -693 171 -115 389 -267 486 -339 97 -72 235 -173 306 -224 314 -224 399
-377 374 -667 -20 -232 -86 -421 -175 -503 -65 -60 -195 -94 -463 -123 -135
-14 -1000 -6 -1083 10 -30 6 -110 15 -176 21 -367 32 -529 170 -626 536 l-32
119 0 280 c0 154 3 399 8 545 6 178 5 336 -3 480 -7 143 -8 268 -2 375 10 171
-5 517 -35 810 -29 278 -29 286 -5 333 40 79 128 104 211 62z"/>
<path d="M2647 2752 c-39 -42 -7 -102 54 -102 47 0 77 71 43 104 -21 22 -77
20 -97 -2z"/>
<path d="M3080 2650 c-11 -11 -20 -31 -20 -44 0 -29 42 -66 76 -66 55 0 77 74
32 113 -27 23 -63 22 -88 -3z"/>
<path d="M5280 3974 c-155 -42 -244 -152 -244 -304 -1 -158 98 -303 231 -341
62 -17 197 -7 255 18 103 47 183 163 195 286 11 121 -43 219 -162 296 -95 62
-168 74 -275 45z m138 -299 c11 -11 -15 -40 -38 -43 -25 -4 -40 12 -40 42 0
16 5 18 36 13 20 -3 39 -9 42 -12z"/>
<path d="M5332 1094 c-50 -35 -82 -148 -62 -220 33 -118 162 -109 204 13 29
85 19 178 -23 210 -23 17 -92 16 -119 -3z"/>
</g>
</svg>
