<?xml version="1.0" standalone="no"?>
<!DOCTYPE svg PUBLIC "-//W3C//DTD SVG 20010904//EN"
 "http://www.w3.org/TR/2001/REC-SVG-20010904/DTD/svg10.dtd">
<svg version="1.0" xmlns="http://www.w3.org/2000/svg"
 width="600.000000pt" height="600.000000pt" viewBox="0 0 600.000000 600.000000"
 preserveAspectRatio="xMidYMid meet">
<metadata>
Created by potrace 1.15, written by Peter Selinger 2001-2017
</metadata>
<g transform="translate(0.000000,600.000000) scale(0.100000,-0.100000)"
fill="#16364b" stroke="none">
<path d="M1533 5758 c-23 -11 -209 -223 -265 -303 -68 -97 -71 -166 -7 -219
70 -59 126 -46 408 94 188 94 203 103 218 137 21 51 4 106 -40 133 -43 27 -78
25 -138 -6 -28 -14 -53 -23 -56 -20 -3 3 4 17 16 32 33 41 28 89 -13 130 -36
36 -78 44 -123 22z"/>
<path d="M2372 5416 l-37 -34 -7 -179 c-15 -403 -78 -546 -284 -652 -87 -45
-104 -66 -104 -127 0 -28 8 -44 34 -70 47 -47 84 -45 194 7 187 90 301 265
346 535 38 221 47 444 21 499 -31 64 -105 74 -163 21z"/>
<path d="M3504 5303 c-37 -30 -57 -82 -51 -130 15 -138 177 -303 298 -303 78
0 134 72 123 155 -13 92 -119 231 -204 267 -66 29 -140 33 -166 11z"/>
<path d="M2997 5146 c-115 -42 -212 -195 -192 -306 10 -55 49 -105 100 -130
38 -19 58 -22 110 -18 67 6 141 37 174 72 38 42 53 204 27 279 -18 48 -41 74
-88 98 -43 22 -78 23 -131 5z"/>
<path d="M4744 4761 c-47 -29 -58 -72 -49 -200 12 -194 52 -322 130 -417 41
-50 124 -94 177 -94 78 0 157 54 201 135 18 33 22 57 22 135 0 89 -2 99 -34
158 -37 68 -133 165 -221 223 -127 84 -169 95 -226 60z m246 -426 c0 -5 -5 -3
-10 5 -5 8 -10 20 -10 25 0 6 5 3 10 -5 5 -8 10 -19 10 -25z"/>
<path d="M2705 4226 c-205 -65 -282 -245 -164 -380 108 -122 300 -138 454 -37
77 51 172 147 186 188 20 61 -11 146 -64 174 -11 7 -66 25 -120 40 -110 32
-221 38 -292 15z"/>
<path d="M1089 4087 c-18 -12 -39 -34 -46 -47 -29 -57 -4 -153 46 -180 12 -6
46 -15 76 -21 62 -11 125 -35 125 -47 0 -12 -107 -61 -170 -77 -30 -8 -74 -15
-98 -15 -91 0 -154 -55 -156 -136 -1 -51 24 -90 75 -117 60 -32 250 -5 369 52
208 101 312 267 255 405 -35 84 -148 159 -282 190 -101 23 -153 21 -194 -7z"/>
<path d="M4151 3760 c-110 -40 -175 -108 -206 -215 -44 -150 30 -316 168 -375
65 -28 163 -29 233 -2 154 58 232 170 255 366 10 87 10 96 -10 134 -14 28 -35
49 -61 62 -100 51 -281 65 -379 30z m139 -280 c0 -16 -38 -50 -56 -50 -24 0
-13 33 16 47 30 15 40 16 40 3z"/>
<path d="M1634 3710 c-118 -60 -105 -315 23 -444 107 -108 255 -113 323 -10
22 34 25 48 25 133 0 84 -3 103 -27 151 -59 120 -136 179 -241 187 -49 3 -70
0 -103 -17z"/>
<path d="M5190 3662 c-86 -23 -146 -59 -208 -127 -65 -71 -92 -141 -92 -240 0
-103 28 -174 94 -240 154 -153 402 -83 509 143 28 59 32 77 31 152 0 72 -4 93
-26 135 -35 68 -143 170 -194 184 -46 13 -34 14 -114 -7z m27 -345 c-16 -24
-47 -35 -47 -18 0 6 9 20 20 31 27 27 47 16 27 -13z"/>
<path d="M3434 3396 c-44 -20 -94 -82 -152 -194 -52 -100 -61 -138 -42 -186
11 -31 58 -56 102 -56 43 0 126 40 160 76 78 85 121 249 84 319 -29 53 -88 69
-152 41z"/>
<path d="M2465 3150 c-81 -13 -207 -53 -329 -105 -132 -56 -465 -228 -541
-278 -92 -62 -253 -229 -312 -325 -108 -175 -158 -418 -119 -572 35 -140 113
-253 262 -380 49 -41 159 -143 244 -226 166 -161 216 -200 313 -244 206 -93
434 -77 682 47 103 52 382 234 534 348 158 119 385 354 470 485 122 188 104
419 -45 616 -53 69 -203 241 -295 339 -42 44 -84 95 -95 112 -34 61 -159 131
-294 168 -76 20 -376 30 -475 15z m312 -383 c15 -13 71 -52 123 -87 134 -89
165 -116 287 -252 166 -185 193 -237 158 -311 -20 -42 -291 -311 -426 -423
-54 -43 -123 -94 -155 -113 -33 -19 -86 -51 -119 -72 -151 -95 -332 -156 -432
-146 -90 9 -161 51 -275 162 -57 55 -153 144 -213 199 -61 54 -122 116 -137
137 -123 181 8 449 292 600 58 30 169 97 248 147 79 50 180 105 224 122 89 35
216 58 325 59 61 1 76 -2 100 -22z"/>
<path d="M381 2234 c-43 -36 -41 -73 15 -235 78 -227 155 -347 272 -426 75
-50 128 -67 199 -61 103 9 170 88 161 193 -13 161 -180 350 -440 499 -114 66
-157 72 -207 30z m410 -477 c9 -16 8 -17 -8 -8 -21 11 -73 81 -73 97 1 10 65
-60 81 -89z"/>
<path d="M4565 1835 c-16 -8 -38 -25 -47 -36 -16 -19 -19 -19 -40 -5 -28 20
-100 21 -138 1 -16 -8 -42 -31 -57 -52 -23 -30 -28 -48 -31 -107 -7 -138 41
-328 103 -410 61 -80 192 -101 255 -41 54 52 73 108 121 365 34 185 32 214
-20 264 -37 35 -102 45 -146 21z"/>
</g>
</svg>
