<?xml version="1.0" standalone="no"?>
<!DOCTYPE svg PUBLIC "-//W3C//DTD SVG 20010904//EN"
 "http://www.w3.org/TR/2001/REC-SVG-20010904/DTD/svg10.dtd">
<svg version="1.0" xmlns="http://www.w3.org/2000/svg"
 width="600.000000pt" height="600.000000pt" viewBox="0 0 600.000000 600.000000"
 preserveAspectRatio="xMidYMid meet">
<metadata>
Created by potrace 1.15, written by Peter Selinger 2001-2017
</metadata>
<g transform="translate(0.000000,600.000000) scale(0.100000,-0.100000)"
fill="#16364b" stroke="none">
<path d="M2094 5821 c-17 -10 -74 -72 -126 -137 -53 -66 -157 -184 -233 -264
-169 -178 -220 -246 -241 -319 -14 -46 -15 -64 -5 -99 21 -79 58 -114 140
-133 53 -12 122 5 342 87 295 108 355 132 439 176 124 65 157 112 148 208 -6
55 -30 93 -75 115 -53 26 -102 19 -184 -26 -87 -47 -214 -109 -225 -109 -5 0
12 21 38 48 101 105 197 234 206 279 17 77 -14 144 -80 179 -38 20 -107 17
-144 -5z"/>
<path d="M3065 5669 c-105 -33 -127 -148 -43 -226 13 -12 64 -35 114 -52 292
-95 424 -229 424 -428 0 -72 -13 -104 -62 -149 -44 -41 -70 -56 -153 -88 -108
-43 -145 -87 -145 -173 0 -60 16 -91 59 -120 47 -32 88 -29 187 12 216 90 353
231 393 405 26 112 1 266 -63 395 -103 205 -247 318 -501 393 -123 36 -171 43
-210 31z"/>
<path d="M943 5345 c-123 -39 -254 -146 -311 -254 -99 -187 -42 -415 150 -596
110 -104 176 -126 252 -82 52 29 80 77 80 136 -1 62 -23 102 -85 147 -94 69
-142 161 -119 229 15 45 80 100 144 121 68 22 105 50 122 90 20 47 17 84 -9
134 -41 78 -125 106 -224 75z"/>
<path d="M2787 4979 c-95 -15 -186 -92 -236 -198 -22 -48 -26 -69 -26 -151 0
-82 4 -103 26 -150 48 -100 135 -165 261 -195 134 -32 215 -14 258 57 60 98
-14 218 -134 218 -25 0 -64 7 -86 16 -33 13 -40 21 -40 43 0 43 14 54 70 56
63 2 97 25 128 85 27 55 28 82 1 137 -33 69 -117 100 -222 82z"/>
<path d="M4780 4928 c-92 -47 -105 -104 -75 -318 26 -183 64 -279 139 -355
102 -102 284 -115 386 -27 60 50 83 102 88 197 5 92 -19 178 -68 250 -60 87
-178 177 -313 238 -83 38 -106 40 -157 15z"/>
<path d="M1884 4572 c-120 -42 -255 -154 -268 -224 -17 -93 53 -178 147 -178
55 0 75 9 131 57 57 48 96 46 133 -7 36 -51 100 -84 145 -75 84 17 148 98 148
187 0 90 -105 200 -229 238 -77 24 -140 25 -207 2z"/>
<path d="M2855 3928 c-46 -16 -92 -65 -104 -111 -6 -23 -15 -114 -21 -202 -13
-191 -35 -365 -55 -432 -39 -126 2 -218 106 -238 41 -8 100 13 136 47 51 48
94 228 125 533 27 254 27 283 -1 328 -39 63 -123 97 -186 75z"/>
<path d="M1180 3833 c-68 -11 -239 -58 -272 -75 -70 -35 -110 -126 -94 -213 9
-48 74 -118 125 -135 22 -7 63 -11 95 -8 31 3 56 3 56 2 0 -4 -77 -138 -200
-349 -112 -190 -170 -307 -209 -417 -57 -163 -52 -240 22 -324 47 -53 88 -74
146 -74 63 0 83 13 214 132 67 62 183 168 257 235 74 68 196 179 270 248 74
69 139 125 144 125 15 0 -2 -139 -33 -265 -78 -317 -179 -578 -320 -827 -44
-78 -53 -113 -40 -162 28 -107 152 -146 242 -76 33 26 199 355 270 535 151
382 217 632 217 818 0 258 -83 384 -246 375 -101 -6 -185 -59 -396 -250 -47
-43 -88 -78 -91 -78 -3 0 26 55 65 121 137 240 168 318 168 423 0 150 -117
248 -294 245 -39 -1 -82 -4 -96 -6z"/>
<path d="M4240 3784 c-145 -29 -253 -103 -302 -209 -35 -76 -33 -200 5 -277
58 -118 159 -174 297 -166 173 10 316 137 416 369 57 134 40 209 -58 257 -40
20 -64 24 -190 27 -78 2 -154 2 -168 -1z m51 -335 c-24 -19 -61 -26 -61 -11 0
5 10 14 23 20 54 26 76 21 38 -9z"/>
<path d="M3466 3366 c-35 -13 -79 -46 -113 -86 -47 -53 -113 -235 -113 -311 0
-46 35 -99 80 -121 44 -23 196 -24 264 -4 101 31 174 109 197 211 23 105 -23
229 -109 289 -34 24 -55 31 -105 33 -37 2 -78 -3 -101 -11z"/>
<path d="M4875 2871 c-38 -23 -124 -124 -180 -211 -133 -207 -125 -390 21
-460 170 -83 412 87 454 320 13 71 6 166 -15 215 -14 32 -105 124 -142 143
-33 18 -104 14 -138 -7z"/>
<path d="M4143 2499 c-53 -10 -80 -24 -121 -63 -78 -72 -84 -122 -36 -282 21
-68 35 -126 33 -128 -3 -3 -47 8 -99 25 -168 54 -260 41 -351 -50 -49 -49 -61
-69 -80 -131 -19 -64 -21 -88 -16 -189 5 -110 49 -352 94 -516 45 -163 234
-218 364 -106 82 70 96 151 54 309 -26 98 -31 132 -17 132 5 0 26 -16 48 -35
50 -45 91 -58 167 -53 80 5 197 60 262 123 25 25 58 71 73 103 24 50 27 69 26
152 -1 99 -12 165 -70 410 -42 175 -47 189 -87 228 -60 58 -161 87 -244 71z"/>
<path d="M2968 2249 c-80 -12 -192 -57 -425 -174 l-203 -102 -22 25 c-33 35
-116 72 -164 72 -80 0 -133 -27 -222 -116 -45 -46 -89 -99 -97 -118 -18 -41
-19 -113 -4 -153 25 -68 109 -122 189 -123 l46 0 13 -61 c7 -34 11 -62 9 -63
-2 -1 -22 -9 -45 -18 -111 -42 -225 -148 -277 -258 -28 -59 -31 -74 -31 -165
1 -90 4 -107 33 -176 40 -93 141 -260 202 -332 142 -169 356 -263 627 -274
123 -5 138 -4 216 20 139 44 334 174 363 243 18 42 18 115 0 157 -18 45 -74
91 -129 106 -72 21 -124 8 -214 -53 -104 -70 -147 -89 -213 -94 -163 -12 -349
101 -429 261 -54 106 -54 217 0 217 28 0 63 -25 128 -93 31 -32 73 -68 93 -78
104 -53 239 18 268 141 18 75 1 118 -74 194 -36 36 -74 87 -89 118 -23 48 -77
216 -77 238 0 4 14 13 32 19 17 6 73 38 124 71 135 86 302 167 383 185 l30 6
-19 -68 c-25 -89 -104 -281 -180 -435 -63 -129 -74 -181 -49 -245 24 -65 109
-122 182 -123 45 0 103 22 135 53 67 62 259 527 307 741 45 200 -11 343 -163
420 -49 24 -137 47 -175 45 -12 -1 -48 -5 -79 -10z"/>
</g>
</svg>
