<?xml version="1.0" standalone="no"?>
<!DOCTYPE svg PUBLIC "-//W3C//DTD SVG 20010904//EN"
 "http://www.w3.org/TR/2001/REC-SVG-20010904/DTD/svg10.dtd">
<svg version="1.0" xmlns="http://www.w3.org/2000/svg"
 width="600.000000pt" height="600.000000pt" viewBox="0 0 600.000000 600.000000"
 preserveAspectRatio="xMidYMid meet">
<metadata>
Created by potrace 1.15, written by Peter Selinger 2001-2017
</metadata>
<g transform="translate(0.000000,600.000000) scale(0.100000,-0.100000)"
fill="#16364b" stroke="none">
<path d="M1611 5802 c-56 -28 -69 -57 -111 -247 -72 -324 -76 -477 -15 -580
69 -119 230 -160 333 -85 83 59 200 231 323 474 60 117 70 144 65 174 -12 75
-87 142 -161 142 -71 0 -88 -19 -190 -225 -96 -193 -120 -233 -131 -222 -9 9
14 205 41 331 31 150 18 203 -58 240 -44 20 -54 20 -96 -2z"/>
<path d="M3183 5546 c-66 -30 -94 -127 -54 -191 11 -18 70 -63 152 -115 143
-90 230 -152 267 -193 l23 -25 -38 -7 c-121 -22 -161 -160 -67 -231 49 -38
156 -74 217 -74 205 1 276 227 137 437 -74 112 -160 184 -386 322 -148 91
-191 104 -251 77z"/>
<path d="M890 5479 c-209 -36 -344 -220 -327 -444 3 -38 13 -90 23 -115 49
-127 158 -230 243 -230 68 0 112 34 131 100 15 54 -4 107 -60 161 -60 58 -70
97 -42 162 11 24 36 56 55 71 34 26 39 27 114 21 76 -7 80 -6 111 20 98 82 76
215 -40 243 -69 17 -149 21 -208 11z"/>
<path d="M2936 5155 c-84 -30 -173 -151 -183 -249 -8 -80 3 -118 48 -169 72
-83 184 -106 312 -67 119 37 154 90 141 213 -14 130 -69 222 -158 263 -58 27
-103 29 -160 9z"/>
<path d="M2309 4950 c-60 -17 -119 -85 -119 -138 0 -28 -11 -35 -141 -87 -64
-25 -126 -57 -139 -70 -69 -73 -25 -212 74 -230 30 -6 58 1 149 35 154 59 195
81 244 132 96 99 120 260 49 327 -28 27 -81 40 -117 31z"/>
<path d="M4763 4809 c-57 -37 -67 -73 -60 -238 6 -155 22 -232 63 -313 115
-227 369 -241 485 -26 32 58 34 69 34 153 0 73 -4 98 -22 131 -36 67 -110 140
-206 205 -168 112 -228 130 -294 88z"/>
<path d="M2811 4119 c-171 -34 -254 -185 -181 -329 69 -135 274 -187 530 -134
99 20 240 71 267 96 58 54 71 147 30 209 -65 98 -460 195 -646 158z"/>
<path d="M1025 4059 c-73 -27 -125 -113 -111 -183 10 -47 50 -101 91 -120 20
-10 82 -22 138 -27 56 -6 106 -14 110 -18 14 -14 -425 -417 -555 -510 -139
-99 -89 -311 74 -311 52 0 86 14 152 62 l40 29 31 -35 c16 -20 44 -42 60 -51
26 -13 30 -20 31 -58 2 -71 28 -108 124 -179 160 -120 169 -273 26 -466 -48
-65 -124 -122 -162 -122 -11 0 -38 14 -59 30 -82 65 -207 19 -216 -80 -8 -84
33 -140 136 -191 59 -29 70 -31 147 -27 149 6 246 71 386 255 72 95 135 208
157 279 50 164 -16 349 -178 501 -36 34 -89 74 -116 90 -28 15 -51 30 -51 33
0 7 155 103 215 133 28 13 76 33 108 43 57 18 60 18 90 0 18 -10 55 -20 82
-23 62 -5 110 17 143 67 22 32 23 41 17 115 -8 87 -19 117 -59 154 -35 33
-127 41 -175 17 -18 -10 -69 -24 -113 -31 -45 -8 -90 -18 -101 -21 -14 -4 0
17 40 61 34 37 76 97 94 134 27 56 32 77 33 141 0 89 -19 132 -86 197 -52 51
-114 79 -211 98 -103 20 -295 28 -332 14z"/>
<path d="M4174 3764 c-86 -21 -162 -69 -201 -127 -40 -60 -53 -104 -53 -183 0
-118 48 -197 149 -247 59 -29 74 -32 156 -32 82 0 97 3 157 33 115 57 203 175
242 328 22 84 20 125 -7 165 -39 60 -83 73 -242 76 -98 2 -158 -2 -201 -13z
m97 -285 c-24 -20 -51 -25 -51 -10 0 12 21 28 45 33 30 7 33 -2 6 -23z"/>
<path d="M3438 3400 c-63 -19 -134 -103 -200 -236 -33 -68 -39 -89 -34 -118 7
-38 45 -89 78 -107 28 -15 126 -19 175 -7 97 24 174 161 173 312 -1 114 -90
187 -192 156z"/>
<path d="M5029 3303 c-89 -44 -194 -144 -228 -217 -66 -142 -39 -303 67 -396
80 -71 174 -77 284 -18 197 105 286 335 198 509 -26 50 -94 125 -131 145 -49
25 -109 18 -190 -23z"/>
<path d="M2164 2641 c-72 -34 -124 -86 -202 -200 -31 -46 -94 -118 -138 -160
-45 -42 -90 -89 -100 -106 -10 -16 -44 -57 -75 -91 -113 -119 -182 -257 -222
-444 -17 -78 -21 -133 -21 -305 -1 -196 1 -214 22 -275 63 -175 216 -326 447
-442 144 -73 209 -90 365 -95 121 -4 145 -2 234 21 263 68 496 270 640 556
202 397 267 728 187 941 -41 108 -141 208 -251 250 -66 25 -204 35 -303 22
l-67 -10 -52 98 c-28 54 -73 123 -100 153 -102 115 -237 147 -364 87z m158
-511 c44 -91 53 -104 110 -145 89 -65 119 -71 258 -51 63 9 143 16 177 16 l62
0 11 -42 c28 -100 -52 -403 -163 -625 -61 -120 -193 -265 -291 -319 -171 -94
-387 -63 -581 84 -58 44 -110 116 -126 175 -19 69 -6 238 26 337 41 129 80
194 182 303 35 37 63 71 63 76 0 5 32 46 71 92 39 46 87 110 107 141 20 31 39
57 42 57 3 1 26 -44 52 -99z"/>
<path d="M4055 2406 c-44 -20 -83 -60 -105 -108 -23 -51 -24 -81 -6 -166 l14
-64 -27 9 c-14 4 -56 8 -93 8 -58 0 -72 -4 -109 -30 -66 -47 -99 -118 -99
-214 0 -42 7 -104 15 -139 25 -106 115 -396 130 -419 31 -47 84 -77 146 -81
76 -6 132 15 184 68 36 36 44 40 90 40 81 0 138 25 189 81 55 62 71 120 63
233 -9 118 -94 611 -116 668 -15 39 -72 99 -108 114 -41 18 -129 17 -168 0z"/>
</g>
</svg>
