<?xml version="1.0" standalone="no"?>
<!DOCTYPE svg PUBLIC "-//W3C//DTD SVG 20010904//EN"
 "http://www.w3.org/TR/2001/REC-SVG-20010904/DTD/svg10.dtd">
<svg version="1.0" xmlns="http://www.w3.org/2000/svg"
 width="600.000000pt" height="600.000000pt" viewBox="0 0 600.000000 600.000000"
 preserveAspectRatio="xMidYMid meet">
<metadata>
Created by potrace 1.15, written by Peter Selinger 2001-2017
</metadata>
<g transform="translate(0.000000,600.000000) scale(0.100000,-0.100000)"
fill="#16364b" stroke="none">
<path d="M3070 5658 c-79 -40 -98 -116 -51 -194 15 -24 49 -46 146 -93 282
-136 404 -294 342 -444 -32 -75 -158 -182 -297 -252 -97 -48 -130 -92 -130
-172 0 -88 55 -143 143 -143 84 0 293 125 417 249 232 232 254 486 64 732
-100 130 -283 253 -472 318 -79 27 -107 26 -162 -1z"/>
<path d="M2075 5618 c-35 -20 -408 -363 -451 -414 -101 -122 -134 -193 -134
-287 0 -88 44 -152 128 -186 60 -25 212 -9 497 53 143 31 276 61 295 67 110
35 141 167 58 248 -58 56 -86 58 -250 18 -153 -38 -267 -61 -274 -54 -3 2 26
30 63 63 110 95 264 247 279 276 8 15 14 50 14 77 0 42 -5 56 -32 87 -18 20
-47 43 -65 50 -39 17 -101 18 -128 2z"/>
<path d="M1053 5326 c-170 -81 -306 -224 -347 -365 -21 -71 -21 -215 0 -295
46 -179 191 -345 302 -346 76 0 150 59 159 128 8 60 -2 85 -58 149 -93 106
-121 187 -95 278 21 70 66 117 164 168 86 45 112 80 112 148 0 79 -62 148
-141 156 -33 3 -57 -2 -96 -21z"/>
<path d="M4705 4861 c-50 -30 -70 -68 -73 -141 -2 -36 -6 -89 -9 -118 -11
-108 70 -277 166 -348 129 -95 306 -83 405 27 54 60 70 110 64 200 -9 125
-104 242 -261 321 -157 79 -235 94 -292 59z"/>
<path d="M2824 4809 c-151 -81 -247 -167 -297 -269 -28 -57 -32 -74 -32 -150
0 -75 3 -91 29 -138 17 -30 47 -67 67 -83 77 -61 230 -109 304 -95 46 9 102
65 111 110 14 75 -48 160 -126 172 -21 4 -53 15 -70 25 -26 16 -29 22 -20 38
16 31 76 76 145 109 69 34 99 66 116 121 15 50 -2 111 -41 148 -55 51 -105 55
-186 12z"/>
<path d="M1833 4355 c-119 -32 -284 -140 -332 -218 -53 -87 9 -217 118 -247
56 -15 97 2 157 65 81 85 171 116 234 80 35 -20 99 -18 136 4 73 45 104 166
58 228 -66 89 -227 127 -371 88z"/>
<path d="M2541 3780 c-139 -36 -199 -64 -228 -109 -42 -62 -23 -158 39 -203
44 -30 104 -34 179 -10 93 29 152 42 199 42 39 0 40 -1 34 -27 -20 -96 -204
-391 -371 -597 -115 -141 -114 -139 -123 -181 -24 -106 79 -211 187 -190 18 3
49 20 69 37 39 34 354 450 428 565 90 140 136 270 139 397 3 131 -47 223 -151
272 -50 25 -70 29 -172 31 -101 3 -129 0 -229 -27z"/>
<path d="M4145 3756 c-125 -25 -219 -98 -245 -191 -31 -112 15 -253 112 -340
85 -77 207 -97 322 -55 102 39 213 163 275 310 19 43 22 64 17 107 -13 113
-47 156 -137 173 -69 13 -269 11 -344 -4z m120 -296 c-3 -5 -17 -10 -31 -10
-14 0 -22 4 -19 10 3 6 17 10 31 10 14 0 22 -4 19 -10z"/>
<path d="M1122 3655 c-96 -33 -234 -100 -272 -132 -102 -85 -90 -261 21 -319
42 -21 121 -29 160 -15 18 6 34 9 36 7 5 -5 -22 -64 -117 -261 -140 -291 -175
-388 -205 -579 -13 -81 -14 -109 -4 -149 22 -93 98 -152 210 -162 52 -5 70 -3
95 12 43 25 543 539 633 651 41 51 77 89 80 86 10 -10 0 -146 -19 -259 -11
-60 -57 -236 -103 -390 -114 -376 -133 -462 -117 -512 19 -57 39 -82 81 -104
45 -23 90 -24 127 -5 58 30 70 55 122 256 28 107 69 254 90 327 64 211 89 327
110 506 47 399 14 583 -115 632 -88 34 -189 -2 -294 -105 -31 -30 -110 -119
-175 -197 -65 -79 -122 -143 -126 -143 -4 0 16 61 45 135 30 74 73 192 96 262
67 206 59 322 -32 412 -76 76 -191 92 -327 46z"/>
<path d="M3560 3351 c-139 -43 -232 -196 -247 -406 -5 -73 -3 -83 19 -115 34
-50 81 -72 143 -66 81 7 232 43 278 65 141 69 199 202 150 346 -43 127 -215
215 -343 176z"/>
<path d="M4820 2791 c-118 -38 -190 -94 -232 -180 -79 -161 58 -389 247 -408
29 -3 68 0 88 6 48 16 103 79 121 140 22 75 30 200 15 236 -6 17 -13 53 -14
81 -6 123 -88 169 -225 125z"/>
<path d="M2914 2469 c-83 -14 -219 -66 -400 -153 -204 -99 -226 -120 -232
-220 -4 -78 23 -128 92 -171 77 -47 134 -42 261 22 98 49 266 123 314 138 23
7 24 6 18 -32 -17 -101 -105 -311 -186 -437 -57 -92 -49 -178 25 -253 82 -81
201 -81 280 1 48 50 169 291 208 411 56 178 69 246 70 365 1 129 -10 163 -81
241 -77 85 -205 116 -369 88z"/>
<path d="M4345 2382 c-117 -56 -149 -143 -118 -329 5 -35 9 -63 9 -63 -1 0
-46 12 -101 26 -128 33 -300 38 -385 10 -207 -68 -274 -276 -221 -685 22 -163
32 -197 77 -258 29 -39 135 -93 182 -93 91 0 178 57 208 136 16 42 17 60 6
198 -17 216 -18 210 16 201 15 -3 60 -20 100 -36 85 -34 130 -36 227 -10 181
47 278 137 320 296 30 119 14 376 -31 485 -45 107 -191 169 -289 122z"/>
<path d="M2090 1899 c-87 -27 -135 -101 -128 -199 5 -72 35 -119 100 -160 35
-22 48 -37 53 -62 4 -18 23 -85 41 -149 l33 -116 -26 -64 c-35 -87 -30 -198
14 -291 54 -114 219 -297 334 -371 67 -43 233 -118 308 -141 120 -35 264 -15
411 59 124 62 162 109 163 204 0 89 -40 154 -116 186 -57 23 -87 19 -183 -30
-104 -53 -137 -56 -229 -19 l-65 26 21 30 c32 44 41 100 27 155 -9 36 -26 62
-72 109 -208 211 -213 218 -239 301 -14 43 -37 125 -52 183 -50 189 -99 272
-193 323 -57 31 -147 42 -202 26z"/>
</g>
</svg>
