<?xml version="1.0" standalone="no"?>
<!DOCTYPE svg PUBLIC "-//W3C//DTD SVG 20010904//EN"
 "http://www.w3.org/TR/2001/REC-SVG-20010904/DTD/svg10.dtd">
<svg version="1.0" xmlns="http://www.w3.org/2000/svg"
 width="600.000000pt" height="600.000000pt" viewBox="0 0 600.000000 600.000000"
 preserveAspectRatio="xMidYMid meet">
<metadata>
Created by potrace 1.15, written by Peter Selinger 2001-2017
</metadata>
<g transform="translate(0.000000,600.000000) scale(0.100000,-0.100000)"
fill="#16364b" stroke="none">
<path d="M2931 5543 c-44 -22 -71 -68 -71 -121 0 -41 29 -114 50 -127 16 -10
62 -105 76 -160 18 -66 18 -160 -1 -221 -19 -62 -19 -98 0 -138 31 -64 110
-84 184 -46 80 40 116 154 108 340 -3 63 -12 142 -21 175 -25 90 -81 198 -134
256 -45 49 -52 52 -103 56 -38 3 -64 -2 -88 -14z"/>
<path d="M2014 5419 c-18 -5 -46 -25 -63 -44 -27 -31 -31 -43 -31 -93 1 -104
66 -198 185 -268 82 -48 103 -86 150 -274 40 -161 63 -201 121 -220 76 -25
156 7 189 77 22 46 17 120 -20 277 -45 195 -113 301 -238 366 -73 39 -97 58
-97 78 0 22 -39 71 -69 86 -38 20 -91 26 -127 15z"/>
<path d="M1474 4780 c-72 -8 -120 -33 -151 -80 -46 -66 -21 -174 48 -215 30
-18 53 -20 209 -21 194 -2 287 -16 371 -58 99 -50 187 -27 230 60 40 83 11
167 -75 218 -143 84 -400 123 -632 96z"/>
<path d="M4356 4720 c-58 -18 -96 -73 -96 -141 0 -31 13 -64 55 -139 63 -110
141 -281 174 -382 27 -80 63 -122 117 -137 95 -25 184 43 184 141 0 88 -143
425 -242 571 -55 82 -117 109 -192 87z"/>
<path d="M3150 4514 c-14 -9 -68 -68 -120 -131 -109 -132 -191 -211 -341 -329
-112 -89 -129 -111 -129 -175 0 -98 85 -165 178 -139 39 11 182 114 320 232
46 39 136 130 198 202 118 135 141 177 128 233 -9 39 -49 90 -84 108 -38 19
-118 19 -150 -1z"/>
<path d="M1695 4326 c-116 -53 -118 -223 -3 -282 60 -31 275 -67 408 -67 208
-2 337 38 373 116 22 46 21 79 -2 125 -30 58 -83 87 -150 85 -230 -9 -332 -6
-421 11 -137 26 -171 28 -205 12z"/>
<path d="M3821 4049 c-13 -5 -65 -45 -116 -89 -165 -142 -396 -280 -626 -373
-126 -52 -133 -55 -157 -91 -63 -92 -19 -213 84 -232 47 -9 143 27 354 132
267 133 620 381 648 456 19 50 8 100 -31 145 -48 55 -103 73 -156 52z"/>
<path d="M2255 3774 c-151 -40 -281 -50 -421 -33 -72 9 -136 11 -158 7 -144
-30 -182 -209 -60 -280 66 -38 375 -51 540 -23 143 25 264 57 297 79 74 51 97
134 57 205 -43 75 -103 86 -255 45z"/>
<path d="M4969 3667 c-27 -14 -57 -42 -76 -71 -28 -41 -33 -57 -33 -106 0 -31
7 -79 15 -106 23 -74 30 -184 16 -256 -26 -137 -199 -428 -351 -591 -92 -100
-119 -150 -120 -221 0 -69 18 -120 59 -167 45 -54 100 -79 174 -79 76 0 120
23 196 103 79 82 120 138 256 347 188 291 255 445 277 633 19 173 -21 350
-100 438 -86 96 -215 127 -313 76z"/>
<path d="M1973 3130 c-98 -44 -114 -180 -31 -257 62 -58 229 -108 394 -118 60
-4 123 -11 141 -16 72 -23 158 34 184 120 22 75 -21 163 -94 190 -15 6 -89 15
-164 21 -156 12 -194 19 -280 55 -75 30 -95 31 -150 5z"/>
<path d="M4400 3137 c-14 -8 -69 -50 -122 -94 -103 -87 -213 -164 -301 -212
-122 -66 -332 -123 -502 -136 -107 -9 -138 -20 -175 -61 -25 -29 -30 -43 -30
-85 0 -67 21 -109 73 -143 41 -27 45 -28 142 -23 205 10 391 67 642 197 278
143 468 281 494 357 25 77 -6 158 -74 195 -38 21 -112 23 -147 5z"/>
<path d="M1407 2921 c-62 -40 -85 -87 -97 -203 -42 -396 55 -785 253 -1026 67
-80 98 -97 181 -97 62 0 78 4 114 28 54 35 85 95 85 164 0 55 -13 81 -74 155
-75 89 -156 283 -184 442 -18 104 -19 188 -4 308 12 100 3 150 -37 198 -59 69
-156 82 -237 31z"/>
<path d="M2095 2330 c-60 -40 -81 -118 -49 -186 22 -47 55 -68 149 -94 99 -28
171 -59 210 -92 46 -38 70 -48 118 -48 54 0 102 30 128 80 36 67 17 145 -50
201 -54 45 -205 115 -300 138 -107 27 -167 27 -206 1z"/>
<path d="M4160 2085 c-41 -13 -174 -56 -295 -95 -121 -39 -256 -80 -300 -91
-100 -26 -387 -74 -525 -89 -131 -13 -179 -31 -224 -80 -83 -92 -67 -228 33
-291 41 -27 52 -29 142 -29 164 0 324 33 734 152 116 33 308 89 427 123 123
36 231 73 249 86 63 45 86 146 50 224 -22 48 -54 79 -103 100 -51 21 -99 18
-188 -10z"/>
<path d="M4851 1694 c-19 -8 -73 -52 -120 -97 -185 -178 -232 -198 -831 -351
-325 -84 -356 -97 -399 -175 -28 -51 -32 -131 -8 -176 33 -63 103 -105 178
-105 51 0 243 42 364 80 50 16 173 54 275 85 199 61 302 102 414 167 152 87
339 247 377 320 21 41 25 111 8 155 -34 91 -162 139 -258 97z"/>
<path d="M2075 1501 c-32 -14 -66 -51 -81 -87 -78 -187 234 -432 643 -504 65
-12 74 -11 110 7 77 39 102 140 53 218 -26 42 -64 61 -148 74 -151 23 -273 88
-370 198 -31 35 -67 70 -79 78 -28 19 -101 28 -128 16z"/>
<path d="M2070 931 c-54 -17 -92 -43 -120 -83 -59 -81 -34 -196 58 -263 117
-86 358 -183 597 -241 170 -41 327 -31 520 32 142 47 181 74 216 149 37 80 13
178 -57 231 -51 39 -123 39 -259 -1 -84 -24 -118 -29 -210 -29 -74 0 -131 6
-175 18 -85 23 -275 98 -373 148 -81 40 -151 54 -197 39z"/>
</g>
</svg>
