<?xml version="1.0" standalone="no"?>
<!DOCTYPE svg PUBLIC "-//W3C//DTD SVG 20010904//EN"
 "http://www.w3.org/TR/2001/REC-SVG-20010904/DTD/svg10.dtd">
<svg version="1.0" xmlns="http://www.w3.org/2000/svg"
 width="600.000000pt" height="600.000000pt" viewBox="0 0 600.000000 600.000000"
 preserveAspectRatio="xMidYMid meet">
<metadata>
Created by potrace 1.15, written by Peter Selinger 2001-2017
</metadata>
<g transform="translate(0.000000,600.000000) scale(0.100000,-0.100000)"
fill="#16364b" stroke="none">
<path d="M3012 5063 c-105 -52 -172 -244 -107 -308 31 -32 61 -31 116 3 85 55
158 158 159 225 0 39 -25 83 -52 91 -39 10 -82 6 -116 -11z m97 -42 c22 -14 8
-83 -28 -135 -29 -42 -107 -106 -129 -106 -29 0 -28 71 2 135 40 85 111 133
155 106z"/>
<path d="M1801 4657 c-55 -21 -112 -76 -139 -135 -36 -79 -29 -170 21 -268 64
-127 88 -248 107 -549 6 -99 22 -319 36 -490 20 -239 25 -363 23 -540 -7 -557
4 -717 57 -889 66 -210 190 -378 341 -462 69 -39 201 -87 272 -99 l43 -7 -5
-77 c-10 -149 28 -377 98 -581 13 -40 23 -76 20 -80 -2 -4 -44 -9 -93 -12
-105 -6 -148 -25 -168 -74 -18 -42 -6 -75 39 -108 23 -17 43 -21 105 -21 85 1
155 21 209 62 37 29 73 96 73 139 0 17 -20 94 -45 173 -65 207 -86 320 -83
449 l3 107 35 -1 c19 -1 100 -7 180 -14 80 -7 288 -13 462 -14 l317 -1 -5 -85
c-6 -92 20 -299 58 -465 12 -49 21 -101 22 -115 1 -25 0 -25 -69 -22 -113 6
-175 -30 -175 -100 0 -80 45 -112 156 -111 125 1 219 61 245 155 10 37 8 58
-14 153 -66 276 -86 579 -42 611 8 6 37 14 64 17 27 3 122 22 212 42 376 82
411 96 524 210 118 117 159 230 158 430 0 144 -24 250 -83 371 -51 105 -105
164 -227 248 -134 94 -199 125 -403 190 -423 137 -1019 497 -1286 778 -90 95
-172 219 -324 493 -113 204 -156 273 -303 490 -61 91 -125 153 -189 186 -52
27 -175 36 -227 16z m180 -163 c35 -18 105 -97 135 -154 14 -25 42 -67 64 -95
22 -27 97 -153 166 -280 167 -303 207 -371 276 -463 199 -266 573 -548 998
-754 91 -44 185 -90 210 -103 25 -12 117 -47 205 -76 231 -76 283 -99 404
-184 118 -81 149 -112 185 -184 88 -173 96 -391 19 -534 -35 -65 -116 -148
-172 -176 -23 -12 -102 -35 -175 -51 -73 -16 -166 -38 -207 -49 -217 -60 -580
-87 -939 -71 -131 6 -262 15 -292 21 -29 5 -98 14 -153 19 -125 11 -223 32
-309 64 -178 67 -292 211 -350 442 -40 157 -47 266 -44 730 3 417 2 435 -24
644 -16 120 -34 344 -43 505 -18 355 -33 433 -110 585 -41 81 -29 140 35 173
37 18 73 16 121 -9z"/>
<path d="M2525 2645 c-14 -13 -25 -29 -25 -35 0 -23 22 -50 52 -66 29 -15 32
-15 57 4 36 27 41 84 9 106 -32 23 -65 20 -93 -9z"/>
<path d="M2995 2435 c-33 -32 -31 -48 6 -79 37 -32 62 -33 89 -4 62 66 -31
148 -95 83z"/>
<path d="M5350 3989 c-103 -9 -179 -40 -245 -100 -76 -70 -108 -140 -108 -232
1 -94 30 -171 90 -237 81 -90 167 -115 300 -87 154 33 282 128 318 236 48 145
-27 315 -170 389 -67 34 -96 39 -185 31z m19 -315 c17 -4 31 -11 31 -17 0 -18
-32 -47 -51 -47 -21 0 -43 35 -35 56 6 16 11 17 55 8z"/>
<path d="M4210 3755 c-136 -43 -254 -215 -236 -343 12 -92 89 -179 180 -203
60 -16 183 -7 231 19 139 71 192 246 122 403 -28 65 -74 104 -143 125 -58 17
-95 17 -154 -1z m80 -269 c0 -16 -7 -27 -21 -31 -28 -9 -34 0 -21 30 15 33 42
33 42 1z"/>
<path d="M5362 1113 c-22 -9 -63 -103 -69 -158 -6 -57 13 -107 46 -125 29 -15
83 -12 109 6 69 48 89 220 31 267 -20 16 -87 22 -117 10z"/>
</g>
</svg>
