<?xml version="1.0" standalone="no"?>
<!DOCTYPE svg PUBLIC "-//W3C//DTD SVG 20010904//EN"
 "http://www.w3.org/TR/2001/REC-SVG-20010904/DTD/svg10.dtd">
<svg version="1.0" xmlns="http://www.w3.org/2000/svg"
 width="600.000000pt" height="600.000000pt" viewBox="0 0 600.000000 600.000000"
 preserveAspectRatio="xMidYMid meet">
<metadata>
Created by potrace 1.15, written by Peter Selinger 2001-2017
</metadata>
<g transform="translate(0.000000,600.000000) scale(0.100000,-0.100000)"
fill="#16364b" stroke="none">
<path d="M2134 5820 c-25 -10 -470 -452 -541 -538 -129 -155 -152 -262 -76
-352 60 -72 155 -88 292 -50 85 24 485 182 618 245 72 34 98 52 122 85 75 104
8 251 -114 249 -25 0 -98 -24 -195 -63 -85 -35 -157 -61 -160 -59 -3 3 13 21
35 40 22 20 81 76 132 125 101 98 115 127 94 199 -28 94 -128 151 -207 119z"/>
<path d="M3020 5692 c-39 -21 -80 -84 -80 -122 0 -37 35 -106 63 -124 13 -9
69 -32 125 -50 128 -44 249 -107 312 -163 90 -81 139 -225 110 -328 -23 -81
-106 -145 -249 -191 -90 -29 -125 -56 -139 -107 -22 -80 31 -163 118 -187 36
-10 51 -7 140 23 128 44 199 86 283 169 136 134 174 294 121 503 -20 77 -84
206 -132 264 -92 114 -241 216 -410 282 -130 50 -210 60 -262 31z"/>
<path d="M970 5351 c-168 -55 -285 -153 -348 -291 -50 -111 -39 -269 28 -405
61 -122 193 -239 284 -251 91 -13 176 57 176 145 0 54 -21 93 -67 127 -127 93
-169 175 -128 254 20 38 65 71 148 105 40 17 80 42 97 61 84 96 27 242 -105
267 -17 4 -53 -1 -85 -12z"/>
<path d="M2761 4980 c-83 -18 -178 -87 -229 -168 -72 -112 -80 -250 -23 -366
37 -76 82 -118 168 -158 52 -25 80 -31 162 -35 119 -7 151 3 192 60 35 49 39
109 9 166 -25 51 -73 79 -146 87 -103 12 -139 44 -112 101 11 24 21 29 69 34
88 10 139 60 139 137 0 56 -13 86 -52 115 -38 30 -110 40 -177 27z"/>
<path d="M4745 4889 c-56 -52 -61 -77 -45 -233 27 -259 85 -389 208 -463 63
-37 164 -39 230 -5 59 31 118 87 150 141 24 41 27 56 27 141 0 84 -3 101 -28
148 -38 72 -84 120 -170 180 -113 78 -228 132 -282 132 -39 0 -51 -6 -90 -41z"/>
<path d="M1843 4520 c-90 -32 -199 -122 -222 -183 -26 -69 -3 -153 51 -187 26
-17 45 -20 90 -17 48 3 64 9 110 44 92 71 127 76 171 23 57 -67 130 -87 196
-52 44 22 70 57 77 104 13 79 -83 204 -198 258 -54 26 -74 30 -143 29 -51 0
-99 -7 -132 -19z"/>
<path d="M2787 3875 c-64 -44 -86 -124 -52 -189 19 -36 19 -88 0 -195 -17 -98
-53 -218 -95 -320 -34 -84 -38 -131 -12 -181 26 -52 74 -80 137 -80 98 0 138
47 206 239 118 336 114 646 -10 728 -49 33 -124 31 -174 -2z"/>
<path d="M1190 3813 c-39 -7 -138 -32 -214 -55 -113 -34 -169 -98 -169 -194 0
-62 22 -104 76 -148 36 -29 45 -31 117 -31 77 0 79 -1 66 -20 -142 -220 -276
-496 -378 -780 -34 -94 -39 -119 -36 -172 3 -51 9 -69 34 -100 63 -78 166
-107 245 -69 19 9 86 64 149 121 133 121 657 575 665 575 2 0 2 -21 -1 -47
-23 -203 -143 -548 -315 -903 -95 -198 -103 -228 -71 -290 45 -89 168 -107
233 -34 26 30 220 416 278 554 199 472 252 845 146 1026 -50 86 -157 120 -272
86 -62 -18 -205 -118 -310 -216 -50 -47 -94 -86 -98 -86 -3 0 17 42 45 93 125
225 172 332 177 400 14 171 -109 300 -281 296 -34 -1 -72 -4 -86 -6z"/>
<path d="M4290 3785 c-170 -39 -281 -120 -338 -245 -116 -252 174 -498 434
-369 57 29 145 121 187 195 19 34 53 108 77 165 33 82 41 112 37 145 -6 53
-32 89 -80 109 -46 19 -236 19 -317 0z m-8 -326 c-29 -26 -52 -31 -52 -11 0
11 52 41 70 41 9 0 3 -11 -18 -30z"/>
<path d="M3483 3367 c-93 -35 -172 -132 -214 -267 -46 -146 -33 -219 46 -266
130 -76 408 37 477 194 28 63 27 146 -1 206 -54 110 -199 173 -308 133z"/>
<path d="M4865 2851 c-17 -10 -63 -54 -104 -97 -184 -200 -240 -354 -173 -485
79 -157 281 -153 442 10 90 91 139 223 126 344 -7 70 -17 90 -80 157 -85 90
-146 111 -211 71z"/>
<path d="M4158 2499 c-54 -12 -112 -54 -144 -102 -40 -61 -43 -128 -9 -267 14
-62 24 -114 21 -117 -3 -3 -40 10 -83 28 -71 31 -87 34 -178 34 -91 0 -104 -3
-146 -27 -58 -34 -115 -97 -143 -157 -18 -40 -21 -63 -20 -181 0 -120 5 -156
43 -330 53 -246 64 -279 104 -317 49 -47 89 -63 154 -63 69 0 124 23 172 71
76 77 89 162 47 329 -14 55 -20 97 -14 99 5 2 29 -11 53 -28 63 -45 107 -61
168 -61 111 0 266 78 331 167 90 123 89 218 -8 506 -25 73 -57 172 -71 221
-23 76 -33 95 -73 135 -34 34 -61 51 -94 59 -53 13 -58 14 -110 1z"/>
<path d="M2910 2245 c-77 -19 -217 -79 -409 -174 l-163 -81 -29 24 c-73 61
-186 70 -285 21 -72 -36 -187 -158 -204 -218 -31 -112 46 -214 178 -239 32 -6
62 -12 68 -13 11 -3 41 -133 33 -138 -2 -1 -30 -15 -62 -30 -116 -55 -198
-162 -226 -295 -18 -87 -14 -228 10 -312 56 -204 211 -376 444 -492 184 -93
345 -124 485 -94 171 36 381 174 424 278 29 69 15 170 -32 221 -48 53 -147 72
-219 42 -19 -8 -66 -37 -103 -65 -129 -95 -196 -109 -320 -66 -186 65 -330
222 -330 359 0 99 43 97 159 -7 93 -84 166 -104 246 -67 53 24 98 77 115 135
19 70 2 116 -71 193 -67 70 -100 134 -128 249 -36 149 -36 140 1 148 18 3 133
56 255 118 123 61 225 109 228 106 6 -6 -33 -144 -72 -258 -14 -41 -54 -134
-89 -205 -74 -150 -81 -199 -41 -270 34 -60 87 -87 164 -82 115 6 164 62 267
307 57 136 130 363 152 469 38 193 -28 360 -169 422 -65 28 -196 35 -277 14z"/>
</g>
</svg>
