<?xml version="1.0" standalone="no"?>
<!DOCTYPE svg PUBLIC "-//W3C//DTD SVG 20010904//EN"
 "http://www.w3.org/TR/2001/REC-SVG-20010904/DTD/svg10.dtd">
<svg version="1.0" xmlns="http://www.w3.org/2000/svg"
 width="600.000000pt" height="600.000000pt" viewBox="0 0 600.000000 600.000000"
 preserveAspectRatio="xMidYMid meet">
<metadata>
Created by potrace 1.15, written by Peter Selinger 2001-2017
</metadata>
<g transform="translate(0.000000,600.000000) scale(0.100000,-0.100000)"
fill="#16364b" stroke="none">
<path d="M3545 5250 c-21 -41 -19 -54 21 -131 81 -153 186 -227 240 -168 43
48 -5 178 -103 277 -47 47 -56 52 -97 52 -40 0 -47 -3 -61 -30z m144 -131 c46
-70 53 -94 16 -59 -42 39 -97 145 -66 125 5 -3 28 -33 50 -66z"/>
<path d="M3015 5061 c-87 -39 -149 -133 -149 -227 0 -63 21 -98 68 -114 30 -9
42 -8 78 8 95 43 188 160 188 238 0 97 -85 141 -185 95z m95 -94 c0 -39 -41
-102 -93 -141 -49 -38 -67 -35 -67 12 0 71 77 162 136 162 20 0 24 -5 24 -33z"/>
<path d="M4762 4732 c-31 -24 -40 -70 -48 -227 -7 -142 8 -337 31 -391 29 -70
94 -81 138 -22 17 23 21 47 25 156 2 71 1 205 -3 297 -6 145 -10 170 -26 186
-24 24 -86 25 -117 1z"/>
<path d="M1573 4209 c-24 -6 -60 -26 -87 -50 -110 -97 -93 -250 43 -392 104
-109 149 -233 195 -532 14 -88 34 -216 45 -285 40 -249 52 -380 61 -640 5
-155 15 -300 24 -350 72 -399 234 -639 491 -725 42 -14 104 -28 138 -32 l62
-5 0 -172 c0 -188 9 -244 72 -439 19 -59 31 -112 28 -117 -3 -6 -40 -10 -81
-10 -112 0 -174 -34 -176 -97 -2 -73 66 -110 183 -99 129 12 213 67 240 157
12 38 10 50 -29 167 -65 199 -84 291 -84 417 0 60 5 128 11 151 l11 40 177 -3
c98 -2 277 -11 398 -20 126 -9 258 -13 309 -9 79 5 87 4 82 -11 -4 -9 -12 -46
-18 -83 -22 -127 17 -254 121 -395 28 -38 51 -73 51 -76 0 -8 -27 -14 -102
-24 -89 -12 -143 -89 -114 -160 24 -58 100 -68 217 -29 99 32 170 129 154 211
-9 50 -33 94 -99 182 -68 91 -80 125 -81 226 0 63 5 91 23 131 l23 51 102 12
c241 29 557 126 705 217 117 72 213 175 266 287 53 111 66 168 66 295 0 187
-75 392 -189 516 -42 46 -133 103 -202 127 -89 30 -227 31 -324 2 -149 -45
-233 -57 -405 -57 -142 0 -183 4 -293 27 -246 53 -465 144 -611 254 -87 66
-286 269 -355 362 -32 43 -100 146 -151 227 -192 308 -362 499 -604 680 -85
64 -205 94 -293 73z m133 -175 c19 -9 61 -39 93 -68 33 -28 88 -71 121 -96 73
-53 203 -188 266 -277 25 -33 88 -132 140 -220 115 -190 169 -263 301 -408
161 -178 278 -268 469 -361 142 -69 308 -123 503 -164 149 -31 161 -32 315
-27 162 6 292 27 399 64 33 11 83 17 137 18 77 0 92 -3 152 -33 73 -36 108
-73 153 -162 149 -295 86 -577 -164 -739 -66 -43 -242 -109 -391 -147 -230
-60 -582 -87 -850 -65 -80 6 -298 12 -485 12 -204 0 -364 4 -400 11 -186 34
-315 162 -391 386 -61 181 -76 280 -79 537 -3 222 -14 403 -36 570 -19 148
-90 559 -110 640 -36 141 -123 299 -209 380 -107 100 -59 208 66 149z"/>
<path d="M2440 2531 c-25 -47 8 -111 57 -111 47 0 76 63 49 105 -21 32 -89 36
-106 6z"/>
<path d="M2882 2204 c-45 -31 -10 -114 49 -114 25 0 57 33 65 65 13 54 -61 86
-114 49z"/>
<path d="M2619 4189 c-40 -43 -40 -91 1 -129 37 -34 173 -85 295 -111 109 -23
137 -23 175 -4 35 18 50 43 50 84 0 56 -31 76 -217 136 -210 67 -260 71 -304
24z"/>
<path d="M5246 3974 c-96 -30 -169 -92 -211 -181 -20 -41 -25 -68 -25 -127 0
-130 57 -240 155 -301 45 -28 56 -30 140 -30 86 0 96 2 170 39 143 71 215 174
215 309 0 124 -45 205 -149 268 -63 38 -67 39 -155 38 -50 0 -113 -7 -140 -15z
m152 -299 c9 -9 -30 -45 -50 -45 -19 0 -40 37 -31 54 6 8 71 2 81 -9z"/>
<path d="M4265 3759 c-114 -15 -235 -110 -275 -215 -23 -62 -26 -146 -8 -208
18 -59 90 -129 161 -155 185 -68 359 36 404 241 15 71 15 83 0 158 -20 102
-35 126 -100 155 -61 27 -113 34 -182 24z m35 -284 c0 -17 -8 -29 -25 -37 -32
-14 -40 -6 -24 24 23 43 49 50 49 13z"/>
<path d="M474 1976 c-3 -14 -3 -29 0 -35 9 -13 188 -114 252 -141 61 -27 97
-16 92 28 -3 24 -19 35 -143 99 -153 79 -191 88 -201 49z"/>
<path d="M5350 1117 c-43 -15 -82 -85 -88 -162 -4 -46 -1 -56 24 -84 56 -63
150 -47 187 31 20 42 32 136 23 173 -4 17 -18 31 -41 41 -41 17 -58 17 -105 1z"/>
</g>
</svg>
