<?xml version="1.0" standalone="no"?>
<!DOCTYPE svg PUBLIC "-//W3C//DTD SVG 20010904//EN"
 "http://www.w3.org/TR/2001/REC-SVG-20010904/DTD/svg10.dtd">
<svg version="1.0" xmlns="http://www.w3.org/2000/svg"
 width="600.000000pt" height="600.000000pt" viewBox="0 0 600.000000 600.000000"
 preserveAspectRatio="xMidYMid meet">
<metadata>
Created by potrace 1.15, written by Peter Selinger 2001-2017
</metadata>
<g transform="translate(0.000000,600.000000) scale(0.100000,-0.100000)"
fill="#16364b" stroke="none">
<path d="M2192 5745 c-18 -8 -81 -52 -140 -98 -59 -46 -155 -120 -213 -165
-128 -99 -237 -207 -290 -286 -94 -141 -89 -288 14 -370 35 -28 47 -31 117
-34 150 -7 356 34 677 137 175 55 214 78 233 137 24 70 -9 161 -70 197 -55 33
-88 31 -235 -17 -175 -56 -292 -89 -307 -84 -6 2 80 79 191 172 110 92 208
180 216 196 38 73 4 174 -70 210 -48 23 -78 25 -123 5z"/>
<path d="M3075 5677 c-132 -61 -92 -241 65 -292 100 -32 235 -103 289 -151 70
-63 103 -130 104 -209 0 -131 -78 -222 -271 -317 -70 -35 -133 -73 -147 -90
-50 -59 -41 -153 20 -207 30 -26 44 -31 85 -31 108 0 329 127 457 263 108 114
153 220 153 359 0 102 -12 153 -65 264 -36 74 -56 102 -117 160 -93 88 -198
154 -337 210 -122 50 -190 62 -236 41z"/>
<path d="M1034 5351 c-80 -20 -238 -135 -292 -213 -44 -64 -78 -137 -92 -196
-17 -72 -8 -191 19 -272 48 -138 217 -341 298 -356 99 -19 181 33 190 119 8
69 -11 110 -77 168 -57 49 -110 131 -124 193 -12 48 4 115 38 159 22 29 59 56
126 91 78 42 98 58 113 89 54 109 -73 248 -199 218z"/>
<path d="M4733 4900 c-41 -25 -59 -53 -72 -118 -15 -75 -14 -123 9 -230 36
-169 99 -270 202 -321 145 -73 312 -20 386 123 22 43 26 64 26 131 0 66 -5 89
-27 135 -51 106 -180 209 -339 270 -90 35 -140 38 -185 10z"/>
<path d="M2741 4860 c-124 -69 -199 -144 -250 -248 -58 -116 -66 -244 -22
-335 72 -149 334 -273 439 -208 47 30 72 77 72 135 0 84 -46 133 -143 151 -20
4 -52 17 -70 29 -69 46 -34 127 90 208 38 26 78 59 88 74 59 91 3 212 -102
221 -39 3 -58 -2 -102 -27z"/>
<path d="M1860 4390 c-179 -32 -369 -202 -370 -330 0 -79 64 -140 148 -140 57
0 75 11 147 85 79 82 125 97 200 66 138 -57 255 8 243 136 -3 27 -13 61 -24
75 -58 77 -225 130 -344 108z"/>
<path d="M2660 3814 c-76 -14 -171 -37 -212 -50 -116 -38 -150 -177 -65 -262
46 -46 101 -52 214 -23 45 12 107 21 138 21 l57 0 -7 -27 c-41 -165 -177 -368
-437 -650 -65 -71 -83 -118 -68 -175 21 -73 81 -118 160 -118 79 0 98 19 339
329 178 231 214 283 263 388 72 154 83 281 34 388 -34 74 -70 111 -142 146
-56 28 -76 32 -157 35 -50 1 -103 0 -117 -2z"/>
<path d="M4225 3773 c-225 -31 -334 -139 -323 -317 6 -90 39 -164 100 -224 66
-66 118 -86 218 -87 74 0 93 4 145 29 93 46 172 132 231 250 45 92 49 105 48
167 -3 116 -46 165 -160 179 -69 9 -203 11 -259 3z m46 -314 c-25 -20 -52 -22
-52 -4 0 10 32 22 61 24 10 0 7 -6 -9 -20z"/>
<path d="M1150 3671 c-72 -20 -213 -80 -275 -116 -124 -72 -109 -246 27 -320
45 -25 58 -27 119 -23 83 6 83 11 9 -128 -115 -215 -165 -327 -219 -492 -105
-318 -110 -359 -49 -428 47 -54 82 -68 169 -68 88 -1 108 9 242 127 119 105
183 173 330 352 73 88 158 187 190 220 l58 60 -6 -55 c-8 -66 -128 -672 -156
-785 -11 -44 -36 -130 -56 -191 l-37 -112 18 -46 c44 -116 196 -141 268 -45
29 39 65 157 104 342 20 95 58 260 85 367 85 337 103 431 107 578 4 156 -8
223 -49 285 -43 65 -100 91 -187 85 -37 -3 -81 -12 -99 -21 -57 -30 -157 -123
-293 -271 -73 -81 -134 -145 -137 -143 -2 2 33 82 78 177 107 230 139 328 139
431 0 59 -5 90 -19 118 -26 50 -81 97 -128 110 -56 16 -160 12 -233 -8z"/>
<path d="M3550 3361 c-114 -35 -205 -150 -247 -311 -33 -130 -21 -191 51 -244
23 -18 40 -21 112 -19 204 6 358 81 414 201 18 39 22 59 18 118 -8 118 -75
212 -181 251 -36 13 -129 15 -167 4z"/>
<path d="M4801 2715 c-173 -48 -271 -157 -271 -301 l0 -53 -45 23 c-64 34
-114 41 -177 22 -69 -20 -120 -63 -152 -128 -31 -63 -33 -113 -7 -220 21 -89
22 -88 -61 -59 -79 27 -199 45 -258 38 -112 -13 -216 -93 -268 -205 -38 -83
-40 -188 -8 -442 35 -276 40 -294 90 -344 47 -47 98 -66 177 -66 97 1 185 63
208 147 14 50 14 67 -4 170 -22 133 -32 233 -24 239 7 4 73 -26 160 -76 36
-20 57 -24 115 -23 205 3 341 97 390 268 27 95 23 237 -11 365 -15 58 -30 116
-33 129 l-5 25 27 -22 c41 -32 130 -62 185 -62 136 0 214 79 240 240 23 139 4
245 -54 308 -30 33 -38 36 -96 39 -36 1 -88 -4 -118 -12z"/>
<path d="M2940 2435 c-96 -18 -214 -59 -413 -145 -186 -80 -199 -88 -234 -142
-40 -60 -39 -140 3 -200 41 -59 100 -90 172 -90 50 -1 75 8 212 72 85 40 187
85 225 101 63 25 70 26 73 11 5 -32 -68 -224 -144 -378 -79 -162 -85 -189 -59
-265 19 -54 49 -86 100 -110 46 -22 66 -23 119 -8 72 20 116 74 204 251 177
357 229 585 164 720 -75 154 -227 220 -422 183z"/>
<path d="M2095 1904 c-53 -19 -108 -65 -129 -108 -20 -42 -21 -125 -2 -169 18
-43 63 -84 111 -100 26 -9 41 -22 46 -38 4 -13 21 -68 38 -122 l31 -97 -40
-36 c-110 -99 -131 -294 -49 -459 62 -126 274 -339 425 -425 219 -125 405
-131 633 -20 126 62 176 106 196 173 20 68 6 119 -46 169 -74 71 -151 75 -287
16 -132 -58 -188 -59 -293 -4 -86 44 -114 66 -85 66 10 0 44 14 75 30 127 68
158 220 62 304 -140 124 -164 165 -254 438 -36 108 -73 212 -83 230 -52 103
-152 169 -253 167 -31 0 -74 -7 -96 -15z"/>
</g>
</svg>
