<?xml version="1.0" standalone="no"?>
<!DOCTYPE svg PUBLIC "-//W3C//DTD SVG 20010904//EN"
 "http://www.w3.org/TR/2001/REC-SVG-20010904/DTD/svg10.dtd">
<svg version="1.0" xmlns="http://www.w3.org/2000/svg"
 width="600.000000pt" height="600.000000pt" viewBox="0 0 600.000000 600.000000"
 preserveAspectRatio="xMidYMid meet">
<metadata>
Created by potrace 1.15, written by Peter Selinger 2001-2017
</metadata>
<g transform="translate(0.000000,600.000000) scale(0.100000,-0.100000)"
fill="#16364b" stroke="none">
<path d="M3144 5648 c-57 -12 -100 -57 -113 -119 -39 -179 27 -360 164 -454
36 -25 101 -54 182 -81 70 -23 128 -45 130 -50 2 -5 -111 -81 -249 -169 -139
-87 -276 -176 -305 -197 -47 -36 -82 -86 -83 -120 -1 -7 -15 -22 -33 -33 -76
-48 -98 -138 -54 -225 44 -89 100 -104 269 -75 49 9 143 17 211 18 101 2 129
7 158 23 37 21 79 92 79 134 0 14 -10 46 -22 70 -26 52 -73 80 -131 80 -24 0
-36 4 -32 10 9 15 162 116 289 191 185 109 256 190 256 293 0 74 -20 126 -66
172 -58 58 -117 90 -247 134 -210 70 -234 93 -223 212 13 137 -58 211 -180
186z"/>
<path d="M1318 5376 c-147 -54 -309 -211 -393 -381 -66 -135 -88 -232 -89
-395 -1 -124 1 -139 24 -185 31 -63 78 -95 137 -95 114 0 173 85 154 220 -23
171 47 370 174 488 35 33 82 70 106 83 60 34 84 70 84 129 0 102 -101 171
-197 136z"/>
<path d="M1476 5020 c-50 -11 -106 -28 -125 -38 -94 -49 -100 -189 -10 -253
39 -27 108 -35 179 -20 29 6 54 10 56 8 2 -1 -13 -50 -33 -107 -75 -216 -53
-352 68 -440 l39 -28 -78 -45 c-167 -97 -221 -153 -222 -230 -1 -85 65 -157
151 -165 46 -4 54 -1 133 52 98 66 214 119 321 146 90 23 105 31 139 71 20 24
26 41 26 80 0 101 -71 179 -162 179 l-48 0 0 45 c0 64 -23 111 -65 136 -19 12
-35 24 -35 28 0 3 20 59 45 124 70 181 71 269 5 368 -66 100 -197 130 -384 89z"/>
<path d="M4573 4536 c-97 -11 -116 -16 -148 -40 -91 -70 -83 -198 15 -249 30
-16 50 -17 143 -12 67 4 107 2 107 -4 0 -5 -60 -64 -134 -130 -75 -67 -139
-133 -146 -151 -19 -45 -8 -125 21 -156 52 -56 125 -70 187 -36 46 24 287 253
350 332 135 168 147 325 32 409 -72 52 -189 62 -427 37z"/>
<path d="M3879 3677 c-87 -46 -112 -142 -63 -247 34 -73 177 -214 259 -254
122 -61 242 -31 287 71 35 80 3 172 -71 203 -29 11 -31 16 -31 62 0 89 -39
129 -164 167 -91 28 -161 27 -217 -2z"/>
<path d="M2555 3665 c-64 -14 -253 -78 -295 -100 -14 -7 -36 -25 -50 -40 -33
-35 -35 -119 -4 -161 59 -80 126 -91 264 -44 52 17 121 34 153 37 l57 6 0 -32
c0 -87 -93 -286 -247 -530 -47 -75 -98 -156 -114 -181 -39 -63 -42 -124 -8
-179 15 -25 21 -53 22 -102 2 -75 15 -100 80 -153 28 -22 50 -30 89 -34 60 -4
71 -1 283 92 83 36 156 66 163 66 6 0 12 -7 12 -14 0 -38 -58 -194 -115 -308
-72 -142 -81 -177 -66 -236 23 -83 90 -135 176 -135 97 0 134 35 223 210 122
242 187 445 179 568 -7 125 -68 219 -179 275 -54 26 -71 30 -147 30 -89 0
-173 -16 -275 -51 -32 -11 -60 -19 -61 -17 -2 2 19 39 47 83 158 254 245 514
236 700 -5 96 -28 146 -90 199 -73 63 -195 82 -333 51z"/>
<path d="M1082 3490 c-66 -24 -115 -52 -213 -123 -84 -62 -123 -112 -137 -175
-34 -151 119 -277 261 -214 28 12 47 16 47 10 0 -6 -34 -110 -74 -232 -81
-238 -99 -314 -115 -475 -23 -220 -12 -302 47 -364 34 -36 61 -49 145 -72 64
-16 70 -16 112 0 37 14 61 37 139 133 51 64 149 196 217 292 127 181 207 290
259 350 25 29 32 32 40 20 5 -8 10 -25 10 -37 0 -20 -74 -499 -120 -782 -36
-214 -40 -268 -29 -322 32 -150 193 -187 283 -66 18 25 21 41 18 119 -2 91 15
200 98 603 62 302 73 402 68 599 -6 209 -19 261 -80 331 -46 52 -92 70 -160
62 -102 -12 -186 -90 -428 -395 -80 -100 -146 -178 -148 -173 -2 5 24 92 57
193 79 239 104 357 99 468 -6 124 -52 197 -155 249 -56 28 -166 28 -241 1z"/>
<path d="M4580 3248 c-53 -37 -74 -72 -74 -126 0 -64 28 -102 103 -142 61 -33
146 -99 169 -131 19 -27 5 -63 -57 -144 -45 -58 -51 -72 -51 -113 0 -143 134
-210 232 -116 53 52 122 149 149 210 32 75 37 194 10 264 -41 108 -144 213
-281 284 -84 44 -149 48 -200 14z"/>
<path d="M3575 3222 c-61 -30 -132 -97 -172 -162 -61 -101 -78 -241 -36 -298
23 -32 97 -72 133 -72 45 0 113 42 136 84 l22 38 78 2 c183 4 290 95 270 230
-10 67 -58 124 -139 165 -57 29 -80 35 -150 38 -74 4 -88 2 -142 -25z"/>
<path d="M4541 2253 c-100 -35 -169 -149 -155 -255 6 -47 6 -48 -20 -48 -14 0
-90 12 -168 26 -222 41 -353 26 -461 -52 -59 -43 -103 -102 -123 -168 -14 -46
-36 -408 -37 -618 -1 -34 -5 -58 -11 -58 -6 0 -34 -12 -62 -26 -46 -23 -55
-25 -72 -13 -29 20 -154 132 -248 221 -94 88 -184 150 -256 174 -101 33 -221
0 -284 -80 -29 -36 -73 -131 -74 -158 0 -10 -4 -18 -9 -18 -9 0 -27 106 -61
357 -20 145 -31 179 -71 222 -50 53 -157 68 -230 31 -48 -25 -95 -88 -104
-138 -10 -60 31 -377 69 -537 54 -222 96 -317 172 -386 100 -90 273 -180 359
-187 71 -6 136 25 173 81 25 38 27 49 29 166 2 69 6 140 10 158 l8 32 57 -42
c32 -23 100 -73 153 -112 156 -114 249 -155 356 -155 154 0 295 117 288 237
l-3 46 45 11 c86 22 154 79 188 156 19 44 33 144 47 338 6 79 9 92 23 88 9 -3
67 -17 130 -32 101 -23 128 -26 245 -22 153 5 217 24 301 87 41 31 61 57 87
108 33 67 33 69 32 208 0 161 -18 241 -66 299 -60 73 -156 95 -257 59z"/>
</g>
</svg>
