<?xml version="1.0" standalone="no"?>
<!DOCTYPE svg PUBLIC "-//W3C//DTD SVG 20010904//EN"
 "http://www.w3.org/TR/2001/REC-SVG-20010904/DTD/svg10.dtd">
<svg version="1.0" xmlns="http://www.w3.org/2000/svg"
 width="600.000000pt" height="600.000000pt" viewBox="0 0 600.000000 600.000000"
 preserveAspectRatio="xMidYMid meet">
<metadata>
Created by potrace 1.15, written by Peter Selinger 2001-2017
</metadata>
<g transform="translate(0.000000,600.000000) scale(0.100000,-0.100000)"
fill="#16364b" stroke="none">
<path d="M3025 5081 c-73 -45 -129 -150 -130 -242 0 -105 60 -129 150 -61 58
44 98 99 121 166 38 113 -47 196 -141 137z m88 -70 c6 -24 -14 -80 -43 -121
-27 -37 -99 -92 -111 -84 -27 16 16 147 62 194 36 35 84 41 92 11z"/>
<path d="M4793 4718 c-35 -17 -42 -52 -53 -243 -16 -294 -14 -367 11 -399 29
-37 83 -33 113 7 19 25 21 47 27 303 5 157 4 286 -1 299 -15 40 -55 54 -97 33z"/>
<path d="M1700 4469 c-83 -37 -142 -113 -156 -197 -10 -61 13 -137 63 -209 52
-77 84 -167 124 -356 46 -216 58 -333 74 -692 8 -181 19 -391 24 -465 6 -74
15 -207 21 -295 33 -467 82 -648 220 -798 87 -96 241 -177 403 -212 l78 -17
-7 -97 c-9 -129 7 -242 62 -457 26 -98 49 -191 51 -206 l5 -27 -98 1 c-114 3
-153 -11 -174 -62 -38 -91 74 -156 225 -131 77 12 104 23 143 56 79 66 82 125
18 357 -57 207 -76 317 -75 422 1 117 7 132 50 129 179 -13 319 -25 454 -40
92 -10 228 -17 320 -16 l160 1 1 -132 c0 -114 5 -148 33 -261 18 -71 46 -165
62 -209 16 -43 26 -83 23 -87 -3 -5 -36 -9 -73 -9 -96 0 -128 -8 -162 -42 -50
-50 -35 -119 34 -155 71 -37 225 -11 293 50 75 65 84 134 35 262 -42 111 -58
171 -81 308 -23 135 -25 185 -9 255 l10 49 137 27 c290 58 499 119 587 171
151 91 299 304 341 493 58 259 -108 581 -339 662 -29 10 -86 23 -127 29 -364
52 -476 76 -688 151 -418 146 -600 238 -819 414 -184 149 -287 288 -447 604
-115 226 -175 314 -307 450 -47 48 -105 113 -128 145 -48 63 -123 123 -179
143 -55 19 -130 17 -182 -7z m148 -150 c30 -15 59 -42 89 -83 25 -34 87 -105
138 -158 120 -125 191 -232 305 -460 139 -276 219 -385 392 -535 209 -180 403
-305 601 -385 311 -125 639 -218 957 -269 218 -35 266 -53 323 -120 97 -113
137 -305 94 -446 -42 -140 -150 -289 -250 -347 -85 -50 -383 -128 -637 -168
-238 -37 -684 -27 -1173 27 -387 42 -546 147 -616 405 -42 156 -95 754 -116
1315 -8 214 -21 412 -30 470 -32 203 -94 419 -147 515 -85 152 -89 164 -64
209 14 25 51 50 75 51 8 0 35 -10 59 -21z"/>
<path d="M2488 2604 c-22 -11 -28 -22 -28 -49 0 -27 6 -37 35 -55 42 -26 69
-20 90 20 21 41 19 56 -11 79 -31 25 -49 26 -86 5z"/>
<path d="M2946 2331 c-27 -30 -17 -71 22 -94 33 -20 34 -20 60 0 34 25 42 81
16 100 -26 19 -78 16 -98 -6z"/>
<path d="M5233 3971 c-222 -76 -268 -349 -91 -537 66 -70 131 -99 223 -98 184
2 335 154 335 337 0 71 -21 125 -70 181 -42 47 -138 112 -187 125 -57 16 -152
13 -210 -8z m155 -274 c19 -11 20 -15 10 -29 -21 -27 -50 -26 -64 1 -7 14 -11
29 -8 33 7 12 36 9 62 -5z"/>
<path d="M4215 3751 c-83 -20 -171 -99 -213 -189 -38 -82 -38 -188 0 -252 56
-96 137 -142 246 -142 179 1 324 167 295 338 -16 94 -44 147 -100 188 -74 55
-153 75 -228 57z m65 -290 c0 -20 -19 -41 -37 -41 -18 0 -16 30 3 51 19 21 34
16 34 -10z"/>
<path d="M5337 1119 c-31 -18 -67 -108 -67 -167 0 -87 34 -132 100 -132 82 0
125 66 124 189 0 68 -3 76 -28 97 -30 26 -96 32 -129 13z"/>
</g>
</svg>
