<?xml version="1.0" standalone="no"?>
<!DOCTYPE svg PUBLIC "-//W3C//DTD SVG 20010904//EN"
 "http://www.w3.org/TR/2001/REC-SVG-20010904/DTD/svg10.dtd">
<svg version="1.0" xmlns="http://www.w3.org/2000/svg"
 width="600.000000pt" height="600.000000pt" viewBox="0 0 600.000000 600.000000"
 preserveAspectRatio="xMidYMid meet">
<metadata>
Created by potrace 1.15, written by Peter Selinger 2001-2017
</metadata>
<g transform="translate(0.000000,600.000000) scale(0.100000,-0.100000)"
fill="#16364b" stroke="none">
<path d="M2123 5285 c-128 -40 -219 -142 -253 -283 -9 -40 -10 -87 -1 -205 6
-83 13 -426 16 -762 5 -492 3 -654 -9 -835 -9 -124 -16 -259 -16 -300 0 -108
-4 -117 -59 -134 -120 -39 -322 -80 -537 -110 -41 -6 -42 -5 -58 35 -20 50
-42 47 -39 -5 l2 -37 -46 36 c-25 19 -52 35 -59 35 -21 0 -16 -28 11 -64 14
-18 25 -36 25 -40 0 -3 -19 -5 -42 -4 -60 4 -64 -22 -6 -47 l43 -17 -32 -11
c-23 -7 -33 -16 -33 -30 0 -19 5 -20 128 -14 151 7 412 47 570 88 62 16 118
29 123 29 5 0 9 -96 9 -234 0 -187 4 -257 20 -348 25 -147 80 -320 138 -433
92 -180 259 -305 458 -344 83 -16 85 -17 79 -41 -3 -14 -8 -69 -12 -122 -7
-114 0 -152 68 -408 27 -102 49 -195 49 -207 0 -22 -2 -23 -107 -20 -91 2
-112 -1 -135 -16 -66 -45 -51 -139 29 -178 38 -18 57 -21 127 -17 107 5 184
40 224 101 42 64 37 139 -26 366 -66 234 -79 323 -63 426 13 89 17 99 39 90 9
-3 113 -17 232 -31 188 -22 248 -25 478 -22 l262 3 -7 -45 c-18 -103 -7 -279
27 -440 19 -85 34 -173 34 -195 l1 -40 -70 -6 c-122 -11 -179 -51 -179 -125 0
-68 74 -111 172 -100 143 17 251 116 252 232 0 22 -13 98 -30 170 -56 247 -72
408 -49 514 12 58 -4 52 199 75 257 29 281 34 357 70 92 45 151 110 208 229
79 164 90 221 90 451 l-1 200 -36 115 c-82 257 -124 333 -265 480 l-103 107
143 6 c78 4 196 16 262 28 66 11 142 23 170 26 47 6 167 62 181 85 4 6 0 16
-9 23 -12 8 -13 15 -6 22 15 15 3 33 -22 33 -16 0 -18 5 -13 25 8 32 -15 34
-62 4 -33 -20 -34 -20 -34 -1 0 11 -6 24 -13 31 -18 14 -37 -5 -37 -35 0 -31
-7 -34 -129 -56 -79 -14 -171 -21 -362 -25 l-256 -5 -97 81 c-53 44 -183 138
-289 207 -105 69 -210 138 -232 153 -478 325 -574 419 -700 685 -82 171 -147
380 -198 634 -49 238 -76 317 -137 386 -93 106 -234 150 -357 111z m177 -165
c71 -36 120 -128 139 -262 14 -98 77 -351 117 -473 99 -299 216 -508 374 -665
86 -86 313 -252 635 -464 160 -105 328 -230 411 -305 28 -25 110 -95 182 -154
144 -118 242 -224 289 -314 17 -32 50 -123 74 -203 l44 -145 0 -200 c0 -170
-3 -208 -19 -255 -69 -201 -149 -268 -352 -295 -378 -52 -453 -57 -804 -58
-283 -1 -364 2 -450 16 -58 10 -175 26 -260 36 -181 23 -264 46 -346 99 -122
79 -199 193 -263 392 -55 170 -61 235 -63 675 -2 323 1 435 16 580 10 102 18
275 19 400 3 322 -13 1150 -24 1294 -10 138 -3 183 38 243 50 73 161 100 243
58z"/>
<path d="M2626 2798 c-23 -33 -20 -53 15 -82 39 -33 62 -33 88 0 25 32 26 52
5 82 -11 16 -25 22 -54 22 -29 0 -43 -6 -54 -22z"/>
<path d="M3133 2730 c-49 -20 -53 -77 -7 -106 33 -22 70 -11 89 27 20 37 11
67 -22 80 -28 11 -31 11 -60 -1z"/>
<path d="M2898 1833 c-5 -6 -8 -24 -6 -40 4 -41 50 -54 158 -47 47 4 93 10
102 15 23 12 31 44 18 68 -10 19 -19 20 -136 18 -82 -1 -129 -6 -136 -14z"/>
<path d="M5293 3979 c-74 -9 -171 -57 -210 -103 -82 -96 -103 -250 -50 -358
69 -140 199 -211 344 -188 184 30 323 183 323 353 -1 109 -60 197 -173 260
-70 39 -133 48 -234 36z m91 -309 c31 -11 26 -32 -12 -49 -22 -11 -28 -10 -39
5 -32 43 -6 66 51 44z"/>
</g>
</svg>
