<?xml version="1.0" standalone="no"?>
<!DOCTYPE svg PUBLIC "-//W3C//DTD SVG 20010904//EN"
 "http://www.w3.org/TR/2001/REC-SVG-20010904/DTD/svg10.dtd">
<svg version="1.0" xmlns="http://www.w3.org/2000/svg"
 width="600.000000pt" height="600.000000pt" viewBox="0 0 600.000000 600.000000"
 preserveAspectRatio="xMidYMid meet">
<metadata>
Created by potrace 1.15, written by Peter Selinger 2001-2017
</metadata>
<g transform="translate(0.000000,600.000000) scale(0.100000,-0.100000)"
fill="#16364b" stroke="none">
<path d="M3035 5075 c-76 -27 -155 -142 -155 -228 0 -62 46 -117 98 -117 48 0
153 89 183 155 28 60 25 136 -6 169 -13 14 -31 26 -39 26 -8 0 -20 2 -28 5 -7
2 -31 -2 -53 -10z m76 -76 c21 -41 -35 -138 -107 -185 -57 -38 -72 25 -28 115
40 79 110 115 135 70z"/>
<path d="M4766 4707 c-22 -22 -23 -33 -29 -212 -11 -298 -9 -377 8 -402 36
-51 117 -31 134 35 14 57 22 304 13 436 -8 113 -10 120 -36 142 -34 30 -61 30
-90 1z"/>
<path d="M1710 4431 c-114 -35 -181 -122 -182 -235 0 -71 22 -128 77 -200 49
-64 71 -115 101 -233 37 -146 52 -262 74 -578 12 -159 30 -357 42 -440 16
-114 23 -229 28 -480 6 -285 10 -342 28 -421 76 -324 196 -491 417 -579 57
-22 209 -55 261 -55 7 0 8 -15 3 -47 -23 -139 2 -345 65 -539 20 -61 36 -118
36 -126 0 -12 -18 -16 -79 -21 -43 -3 -94 -12 -113 -21 -37 -18 -68 -61 -68
-96 0 -33 30 -78 62 -91 42 -17 163 -6 225 21 58 25 129 94 139 135 10 38 -2
101 -31 175 -69 172 -103 386 -85 522 6 45 17 86 23 91 7 4 23 5 37 3 60 -12
551 -28 721 -24 l186 5 -5 -80 c-3 -44 1 -112 8 -151 15 -92 72 -310 104 -405
14 -40 23 -78 20 -83 -4 -6 -34 -7 -75 -3 -80 8 -130 -5 -159 -42 -46 -59 -6
-140 81 -163 97 -27 237 17 284 88 43 66 43 101 -4 242 -55 163 -100 343 -108
424 -3 39 -1 90 7 126 14 68 -8 58 190 85 145 21 387 70 465 97 85 28 140 62
213 132 108 104 174 210 206 333 40 152 4 421 -78 580 -74 145 -203 213 -406
213 -173 0 -440 46 -675 115 -197 58 -276 89 -429 168 -355 183 -594 419 -838
826 -108 180 -224 351 -293 431 -30 36 -85 100 -121 143 -71 84 -130 129 -195
152 -44 16 -117 18 -159 6z m153 -181 c25 -16 62 -51 81 -77 19 -26 50 -60 70
-75 54 -43 167 -201 290 -406 153 -255 221 -355 327 -477 261 -303 613 -529
988 -635 58 -17 129 -37 156 -45 151 -44 545 -105 685 -105 109 -1 188 -48
236 -143 60 -117 85 -324 55 -447 -34 -138 -133 -271 -247 -332 -61 -33 -209
-69 -417 -103 -269 -43 -374 -50 -737 -50 -680 1 -853 4 -916 20 -209 54 -324
192 -393 470 -38 151 -51 280 -51 501 0 107 -8 240 -20 347 -10 94 -24 296
-29 447 -14 362 -34 516 -95 715 -33 109 -56 159 -110 234 -35 49 -46 74 -46
102 0 89 82 117 173 59z"/>
<path d="M2462 2587 c-12 -13 -22 -30 -22 -38 0 -19 37 -54 66 -63 30 -9 74
28 74 63 0 58 -76 83 -118 38z"/>
<path d="M2931 2321 c-17 -31 -13 -56 12 -79 34 -32 73 -29 92 8 13 26 14 35
3 58 -11 22 -21 28 -55 30 -33 2 -44 -1 -52 -17z"/>
<path d="M5200 3973 c-64 -23 -142 -105 -165 -172 -80 -241 111 -500 352 -478
111 11 197 72 252 180 62 121 59 245 -6 329 -40 51 -148 128 -201 144 -59 18
-176 16 -232 -3z m165 -295 c31 -14 32 -23 0 -44 -30 -20 -55 -5 -55 32 0 27
15 30 55 12z"/>
<path d="M4214 3750 c-50 -16 -125 -71 -161 -118 -65 -86 -79 -211 -35 -299
25 -48 88 -107 139 -129 21 -9 65 -17 99 -17 107 -1 207 65 266 175 19 36 23
58 23 138 0 81 -4 102 -25 145 -37 74 -97 107 -198 111 -42 2 -91 -1 -108 -6z
m96 -265 c0 -27 -17 -39 -45 -33 -15 3 -14 6 5 31 27 34 40 34 40 2z"/>
<path d="M5351 1091 c-10 -10 -29 -49 -41 -86 -42 -127 -12 -215 75 -215 31 0
49 7 69 25 73 67 86 236 23 280 -31 22 -103 19 -126 -4z"/>
</g>
</svg>
