<?xml version="1.0" standalone="no"?>
<!DOCTYPE svg PUBLIC "-//W3C//DTD SVG 20010904//EN"
 "http://www.w3.org/TR/2001/REC-SVG-20010904/DTD/svg10.dtd">
<svg version="1.0" xmlns="http://www.w3.org/2000/svg"
 width="600.000000pt" height="600.000000pt" viewBox="0 0 600.000000 600.000000"
 preserveAspectRatio="xMidYMid meet">
<metadata>
Created by potrace 1.15, written by Peter Selinger 2001-2017
</metadata>
<g transform="translate(0.000000,600.000000) scale(0.100000,-0.100000)"
fill="#16364b" stroke="none">
<path d="M3103 5650 c-51 -23 -88 -77 -135 -195 -30 -73 -32 -89 -33 -195 0
-110 1 -117 31 -170 55 -97 150 -150 305 -170 45 -5 84 -12 86 -14 2 -2 -29
-25 -69 -51 -232 -152 -509 -365 -542 -417 -24 -38 -24 -106 0 -147 10 -17 21
-31 24 -31 3 0 25 -18 50 -40 78 -69 240 -141 520 -229 69 -22 171 -56 228
-76 93 -32 106 -35 144 -25 108 30 153 170 80 250 -31 35 -147 80 -419 166
-98 31 -189 62 -202 68 -23 13 -23 13 25 48 119 86 255 175 396 259 215 127
258 173 258 272 0 136 -136 225 -380 248 -147 14 -241 27 -247 33 -11 10 20
97 54 154 19 31 39 75 45 98 10 37 9 47 -13 90 -18 37 -35 54 -69 72 -54 27
-82 27 -137 2z"/>
<path d="M1444 5399 c-131 -68 -229 -165 -349 -344 -173 -257 -274 -569 -218
-675 24 -47 76 -80 125 -80 22 0 97 18 166 39 180 56 412 98 412 74 0 -5 -28
-54 -62 -108 -117 -190 -218 -370 -233 -416 -18 -53 -12 -143 13 -197 19 -43
86 -82 141 -82 43 0 148 44 375 157 234 116 257 133 277 206 22 84 -36 169
-126 182 -39 6 -55 2 -121 -29 -42 -20 -78 -36 -79 -36 -2 0 23 44 56 98 99
161 122 277 75 377 -39 85 -111 136 -224 161 -110 23 -221 17 -401 -22 l-34
-7 42 80 c75 144 180 252 323 333 80 46 108 86 108 155 0 38 -6 61 -23 86 -57
85 -142 102 -243 48z"/>
<path d="M4670 4454 c-47 -13 -233 -70 -392 -120 -69 -22 -108 -71 -108 -134
0 -81 65 -140 154 -140 36 0 229 49 300 76 28 11 -22 -80 -188 -339 -80 -126
-150 -245 -156 -266 -6 -25 -6 -49 1 -76 11 -41 53 -95 74 -95 6 0 24 -14 40
-30 19 -19 50 -36 85 -46 218 -61 410 -129 410 -145 0 -6 -35 -58 -79 -117
-143 -194 -221 -341 -221 -414 0 -75 52 -149 120 -169 34 -10 46 -9 80 6 45
20 51 28 116 152 26 48 86 151 132 228 144 236 155 259 159 339 4 63 1 77 -24
126 -44 85 -100 117 -341 196 l-203 66 18 27 c116 177 279 487 309 590 36 121
-2 231 -96 279 -51 26 -109 28 -190 6z"/>
<path d="M3784 3641 c-80 -49 -97 -126 -45 -198 39 -53 108 -109 156 -125 21
-7 46 -24 56 -38 15 -22 16 -31 6 -74 l-12 -48 -66 6 c-131 13 -256 -23 -357
-103 -59 -47 -126 -143 -136 -193 -15 -80 42 -159 129 -179 46 -10 57 -9 97 9
29 13 58 36 79 65 48 64 83 82 134 68 85 -23 183 -4 227 45 24 28 48 88 48
123 0 22 6 30 24 35 73 18 136 121 136 223 0 103 -29 164 -124 258 -103 103
-180 145 -262 145 -40 0 -69 -6 -90 -19z"/>
<path d="M2503 3629 c-118 -14 -345 -126 -390 -192 -53 -77 -29 -179 52 -224
55 -31 97 -29 161 7 74 43 185 80 239 80 l45 0 0 -48 c0 -120 -106 -395 -260
-671 -17 -30 -30 -67 -30 -83 0 -39 22 -88 52 -116 30 -27 149 -72 192 -72 17
0 82 18 143 40 121 42 272 84 280 76 7 -7 -43 -115 -121 -259 -37 -71 -71
-147 -73 -168 -14 -104 91 -219 201 -219 39 0 98 24 131 54 18 17 57 76 85
131 125 240 180 414 180 565 0 77 -3 94 -31 149 -36 73 -94 120 -178 147 -82
25 -255 11 -364 -31 -16 -7 -16 -3 4 46 121 303 131 500 33 645 -75 112 -197
161 -351 143z"/>
<path d="M1130 3410 c-25 -4 -58 -13 -75 -20 -49 -19 -185 -114 -257 -180 -55
-49 -70 -71 -82 -111 -17 -56 -13 -97 16 -149 44 -81 161 -115 251 -71 24 11
46 21 49 21 3 0 -7 -62 -24 -137 -16 -76 -40 -188 -53 -249 -33 -152 -55 -327
-55 -438 0 -220 42 -287 203 -325 103 -24 148 -4 222 100 27 39 109 146 183
237 131 165 222 293 298 424 21 37 42 68 45 68 13 0 29 -53 29 -96 0 -49 -24
-222 -42 -293 -6 -25 -30 -116 -54 -201 -95 -339 -99 -532 -13 -649 32 -45 94
-80 142 -81 46 0 100 34 126 80 29 52 26 125 -8 171 -21 28 -22 34 -12 100 6
38 32 148 56 245 104 401 136 671 100 834 -8 36 -14 83 -15 106 0 68 -38 162
-84 209 -54 57 -107 73 -184 57 -109 -23 -178 -95 -343 -363 -112 -181 -188
-293 -196 -285 -3 2 11 73 31 158 57 250 69 332 70 483 1 131 -1 144 -25 195
-57 121 -173 183 -299 160z"/>
<path d="M4663 2171 c-67 -31 -131 -97 -147 -150 -15 -53 -11 -52 -151 -24
-232 45 -485 -6 -617 -125 -89 -81 -118 -166 -118 -356 l0 -119 -57 54 c-87
83 -125 108 -200 135 -158 55 -304 14 -435 -124 -64 -67 -102 -122 -179 -256
l-57 -98 -6 43 c-3 24 -10 87 -17 139 -21 170 -87 352 -155 424 -114 120 -328
39 -342 -130 -4 -44 1 -64 26 -117 48 -104 59 -147 112 -446 16 -90 41 -201
56 -247 31 -97 93 -196 152 -241 114 -87 272 -98 356 -24 34 30 50 75 56 156
5 65 15 101 53 190 26 61 67 144 91 186 45 76 125 169 147 169 13 0 57 -44
187 -188 66 -72 96 -98 150 -124 59 -29 76 -33 147 -33 67 0 89 5 137 28 68
33 153 122 168 175 20 73 42 216 49 334 5 87 11 122 22 129 34 21 110 21 290
-1 160 -20 200 -22 260 -13 141 22 245 97 306 220 35 70 38 84 41 177 3 95 2
104 -25 156 -41 81 -94 114 -186 118 -55 2 -82 -2 -114 -17z"/>
</g>
</svg>
