<?xml version="1.0" standalone="no"?>
<!DOCTYPE svg PUBLIC "-//W3C//DTD SVG 20010904//EN"
 "http://www.w3.org/TR/2001/REC-SVG-20010904/DTD/svg10.dtd">
<svg version="1.0" xmlns="http://www.w3.org/2000/svg"
 width="600.000000pt" height="600.000000pt" viewBox="0 0 600.000000 600.000000"
 preserveAspectRatio="xMidYMid meet">
<metadata>
Created by potrace 1.15, written by Peter Selinger 2001-2017
</metadata>
<g transform="translate(0.000000,600.000000) scale(0.100000,-0.100000)"
fill="#16364b" stroke="none">
<path d="M3125 5621 c-45 -27 -60 -49 -85 -121 -17 -48 -23 -89 -24 -155 -1
-82 2 -96 31 -155 18 -36 45 -77 60 -92 50 -48 139 -94 247 -128 58 -19 106
-36 106 -40 0 -3 -61 -39 -137 -80 -322 -177 -503 -322 -503 -404 0 -9 -10
-30 -22 -46 -31 -43 -35 -125 -9 -168 48 -75 128 -103 351 -122 63 -6 168 -20
234 -31 126 -23 162 -21 206 11 29 20 60 84 60 122 0 33 -38 104 -65 122 -27
18 -158 47 -299 66 -105 15 -107 10 49 97 405 227 510 303 534 389 16 59 14
85 -15 143 -44 87 -159 155 -349 206 -55 15 -118 37 -140 49 -49 26 -55 58
-29 152 18 69 14 116 -14 150 -45 53 -132 69 -187 35z"/>
<path d="M1311 5369 c-33 -22 -97 -79 -142 -127 -218 -234 -340 -513 -327
-755 4 -91 22 -121 91 -155 57 -29 112 -23 159 16 42 35 58 79 58 157 0 36 3
65 6 65 4 0 27 -8 53 -17 46 -16 50 -16 152 9 126 32 189 42 189 32 0 -4 -21
-68 -47 -143 -44 -125 -48 -143 -48 -231 0 -79 4 -102 23 -137 12 -23 22 -44
22 -47 0 -2 -20 -14 -44 -26 -94 -45 -128 -91 -128 -171 0 -59 23 -101 72
-128 62 -34 96 -28 243 45 72 37 192 93 264 124 145 63 158 70 179 111 32 64
8 143 -59 193 -40 30 -115 27 -190 -7 l-58 -26 -11 25 c-15 32 -2 87 56 242
59 159 72 227 57 297 -43 192 -213 251 -505 175 -65 -17 -121 -28 -124 -25 -7
7 63 110 111 163 23 24 74 66 113 92 52 36 75 58 88 89 46 100 -28 201 -147
201 -36 0 -57 -8 -106 -41z"/>
<path d="M4650 4495 c-8 -2 -62 -9 -120 -15 -135 -16 -182 -36 -209 -89 -12
-22 -21 -53 -21 -69 0 -70 52 -135 118 -148 17 -3 75 2 131 11 55 9 105 15
111 13 14 -4 -122 -176 -220 -278 -87 -91 -100 -112 -100 -166 0 -93 78 -145
184 -122 45 9 60 20 125 87 259 268 409 510 387 626 -10 53 -77 116 -140 133
-48 13 -217 25 -246 17z"/>
<path d="M3870 3703 c-40 -16 -74 -50 -92 -90 -36 -82 -6 -143 144 -290 157
-155 210 -193 270 -193 105 0 171 115 120 209 -10 19 -43 53 -73 76 -53 40
-54 42 -60 102 -8 81 -33 114 -117 154 -66 31 -158 46 -192 32z"/>
<path d="M2590 3660 c-120 -19 -366 -116 -406 -161 -62 -69 -47 -183 29 -229
50 -31 110 -26 197 16 96 47 175 74 213 74 l30 0 -6 -58 c-12 -117 -94 -307
-232 -542 -38 -63 -79 -133 -91 -155 -32 -55 -31 -111 2 -161 15 -21 31 -52
37 -69 16 -48 46 -84 87 -105 63 -32 115 -26 253 29 138 55 230 84 252 79 12
-2 4 -28 -36 -118 -28 -63 -73 -167 -101 -230 -58 -134 -65 -188 -29 -258 58
-114 217 -146 309 -62 66 60 239 459 272 628 27 135 -6 268 -87 349 -106 106
-246 119 -502 47 -23 -7 -23 -5 13 59 118 211 187 546 141 689 -9 31 -30 72
-46 91 -58 70 -178 105 -299 87z"/>
<path d="M1115 3473 c-92 -33 -268 -153 -332 -226 -74 -85 -52 -214 48 -290
54 -39 158 -39 203 1 18 16 18 16 14 -18 -3 -19 -42 -185 -87 -369 -122 -502
-134 -597 -81 -674 31 -45 59 -61 142 -82 122 -30 150 -11 325 220 50 66 121
156 159 199 125 144 194 230 251 314 31 45 60 82 64 82 15 0 22 -73 15 -164
-7 -102 -28 -196 -86 -391 -63 -212 -80 -292 -87 -416 -7 -138 4 -195 50 -255
50 -65 90 -88 153 -88 118 0 186 112 133 220 -21 45 -22 52 -11 128 7 45 30
146 52 226 82 295 115 500 108 670 -6 130 -25 294 -44 380 -25 113 -97 175
-201 172 -125 -3 -198 -74 -467 -455 -54 -76 -100 -137 -102 -134 -2 2 3 26
10 53 45 151 118 457 124 521 19 178 -26 296 -138 357 -67 36 -146 43 -215 19z"/>
<path d="M4555 3385 c-78 -28 -117 -108 -91 -187 19 -55 37 -68 171 -126 101
-43 205 -104 205 -119 0 -15 -59 -106 -126 -193 -92 -120 -107 -167 -78 -237
34 -83 122 -115 202 -74 65 33 239 283 272 390 64 206 -22 335 -325 485 -149
74 -175 81 -230 61z"/>
<path d="M3643 3201 c-127 -47 -230 -154 -266 -278 -40 -134 66 -257 192 -223
44 12 93 61 116 116 13 31 18 34 37 27 31 -10 150 -6 202 8 53 14 121 83 130
133 15 81 -37 166 -130 211 -58 28 -212 32 -281 6z"/>
<path d="M4591 2216 c-48 -17 -109 -71 -128 -114 -9 -20 -19 -64 -22 -97 l-6
-60 -40 3 c-22 2 -100 14 -173 28 -73 13 -167 24 -208 24 -211 0 -368 -134
-429 -365 -16 -62 -37 -389 -28 -437 11 -58 -26 -37 -295 161 -129 95 -198
125 -291 125 -101 0 -164 -28 -231 -101 -45 -49 -130 -201 -130 -231 0 -7 -4
-12 -10 -12 -5 0 -10 6 -10 13 0 49 -44 358 -62 429 -25 103 -50 150 -101 192
-34 27 -46 31 -102 31 -54 0 -69 -4 -107 -30 -80 -57 -108 -147 -74 -243 14
-40 26 -113 61 -373 31 -235 85 -368 193 -476 95 -97 250 -173 351 -173 53 0
118 37 149 83 24 37 27 50 28 141 2 97 33 287 55 327 8 16 23 7 129 -72 262
-196 366 -248 491 -249 50 0 77 6 116 25 70 35 140 107 156 161 10 33 22 49
62 76 36 24 57 48 79 91 29 57 30 61 34 252 l5 195 23 0 c13 0 77 -11 141 -25
286 -61 441 -40 563 78 99 95 143 207 143 367 0 87 -4 112 -21 147 -26 50 -84
100 -132 113 -47 13 -137 11 -179 -4z"/>
</g>
</svg>
