<?xml version="1.0" standalone="no"?>
<!DOCTYPE svg PUBLIC "-//W3C//DTD SVG 20010904//EN"
 "http://www.w3.org/TR/2001/REC-SVG-20010904/DTD/svg10.dtd">
<svg version="1.0" xmlns="http://www.w3.org/2000/svg"
 width="600.000000pt" height="600.000000pt" viewBox="0 0 600.000000 600.000000"
 preserveAspectRatio="xMidYMid meet">
<metadata>
Created by potrace 1.15, written by Peter Selinger 2001-2017
</metadata>
<g transform="translate(0.000000,600.000000) scale(0.100000,-0.100000)"
fill="#16364b" stroke="none">
<path d="M1920 4831 c-52 -17 -89 -42 -128 -86 -75 -86 -90 -186 -47 -322 60
-193 88 -539 90 -1128 1 -231 5 -503 9 -605 l8 -185 -36 -150 c-60 -256 -81
-488 -54 -600 13 -52 17 -60 37 -58 12 2 24 -4 27 -12 11 -28 31 -15 54 36 17
36 21 55 14 67 -10 19 -7 72 5 72 4 0 18 -36 29 -81 94 -348 246 -488 603
-554 l26 -5 -4 -177 c-6 -207 9 -322 58 -454 50 -137 54 -125 -42 -133 -92 -8
-132 -26 -150 -68 -23 -56 11 -109 82 -128 90 -25 230 21 274 88 38 60 40 99
10 183 -79 217 -79 215 -79 446 -1 141 3 216 10 223 8 8 40 8 115 1 141 -14
348 -16 627 -7 l233 9 -8 -29 c-4 -16 -8 -76 -7 -134 1 -116 32 -256 98 -447
20 -56 36 -107 36 -113 0 -6 -31 -10 -80 -10 -123 0 -180 -34 -180 -106 0 -93
128 -129 273 -78 135 48 170 144 108 297 -44 110 -86 256 -105 369 -15 87 -15
103 -1 169 16 77 24 89 67 89 35 0 274 44 407 75 150 36 220 73 311 164 134
134 183 262 184 471 0 148 -24 260 -79 370 -19 38 -35 71 -35 73 0 2 23 2 51
-1 45 -4 50 -3 48 14 -1 11 3 32 9 47 17 40 17 40 -32 77 -25 18 -47 39 -50
46 -3 8 -12 14 -21 14 -8 0 -32 11 -53 24 -110 69 -276 137 -505 207 -138 42
-173 60 -467 234 -85 51 -204 120 -265 154 -228 128 -378 253 -546 453 -166
198 -240 321 -368 611 -99 224 -211 435 -259 488 -67 75 -120 101 -206 105
-39 2 -82 0 -96 -5z m177 -193 c30 -28 61 -73 88 -128 24 -47 61 -119 83 -160
22 -41 68 -144 102 -229 69 -174 104 -246 164 -341 81 -129 303 -376 477 -531
128 -115 271 -210 494 -329 44 -23 100 -54 125 -68 153 -86 207 -117 220 -128
8 -6 134 -72 280 -145 261 -131 266 -134 346 -213 120 -121 164 -233 164 -419
0 -114 -20 -200 -66 -288 -74 -140 -143 -189 -334 -234 -281 -66 -351 -75
-735 -86 -353 -11 -521 -8 -660 12 -38 5 -123 14 -189 19 -386 32 -522 157
-616 570 -39 170 -65 824 -48 1236 10 249 9 325 -5 549 -10 143 -20 303 -23
355 -7 120 -31 268 -56 345 -34 104 -38 128 -27 167 14 55 59 88 120 88 44 0
54 -4 96 -42z"/>
<path d="M2587 2682 c-38 -41 0 -112 59 -112 27 0 64 43 64 75 0 50 -88 76
-123 37z"/>
<path d="M3017 2512 c-31 -34 -17 -75 34 -102 34 -19 79 20 79 68 0 46 -80 70
-113 34z"/>
<path d="M5270 3984 c-103 -28 -180 -88 -228 -179 -38 -72 -38 -177 0 -258 52
-110 177 -202 291 -214 131 -13 254 70 312 212 23 57 28 85 29 155 0 75 -3 91
-28 137 -35 64 -65 93 -138 132 -47 26 -67 31 -120 30 -34 0 -88 -7 -118 -15z
m104 -287 c16 -12 16 -14 -3 -31 -27 -25 -55 -17 -59 17 -3 23 0 27 20 27 13
0 32 -6 42 -13z"/>
<path d="M5340 1092 c-29 -30 -60 -114 -60 -164 0 -124 147 -149 207 -35 11
21 17 58 17 105 1 69 -1 75 -27 98 -41 35 -99 33 -137 -4z"/>
</g>
</svg>
