<?xml version="1.0" standalone="no"?>
<!DOCTYPE svg PUBLIC "-//W3C//DTD SVG 20010904//EN"
 "http://www.w3.org/TR/2001/REC-SVG-20010904/DTD/svg10.dtd">
<svg version="1.0" xmlns="http://www.w3.org/2000/svg"
 width="600.000000pt" height="600.000000pt" viewBox="0 0 600.000000 600.000000"
 preserveAspectRatio="xMidYMid meet">
<metadata>
Created by potrace 1.15, written by Peter Selinger 2001-2017
</metadata>
<g transform="translate(0.000000,600.000000) scale(0.100000,-0.100000)"
fill="#16364b" stroke="none">
<path d="M2073 5819 c-36 -11 -79 -56 -236 -252 -181 -226 -286 -368 -314
-424 -33 -68 -30 -160 6 -211 49 -69 151 -90 262 -55 65 21 570 270 640 316
147 96 102 297 -67 297 -42 0 -72 -10 -173 -60 -66 -33 -121 -57 -121 -54 0 4
43 56 96 116 105 121 118 145 111 200 -12 92 -112 155 -204 127z"/>
<path d="M3050 5681 c-103 -55 -97 -205 10 -258 25 -12 87 -43 138 -68 112
-54 164 -89 232 -155 85 -82 135 -223 116 -324 -14 -72 -86 -130 -200 -159
-93 -25 -132 -74 -124 -159 8 -74 68 -128 142 -128 48 0 190 46 252 81 70 39
149 126 184 201 50 107 56 227 21 382 -49 209 -275 432 -565 558 -122 53 -154
57 -206 29z"/>
<path d="M965 5361 c-205 -74 -344 -213 -377 -378 -31 -155 76 -356 264 -498
51 -38 67 -45 105 -45 86 0 153 70 153 160 0 58 -21 92 -88 143 -65 50 -112
125 -112 178 0 66 55 122 145 148 115 35 155 74 155 153 0 53 -28 101 -79 135
-41 28 -96 29 -166 4z"/>
<path d="M2730 4978 c-140 -73 -210 -247 -166 -411 25 -92 71 -148 153 -189
65 -32 72 -33 183 -33 104 0 118 2 148 23 90 65 86 199 -8 247 -16 8 -55 15
-89 15 -76 0 -111 13 -111 41 0 19 4 20 40 14 53 -9 102 9 139 50 98 111 9
259 -164 272 -54 5 -67 1 -125 -29z"/>
<path d="M4765 4924 c-92 -47 -113 -103 -97 -252 20 -192 66 -315 147 -396 68
-67 125 -91 215 -91 64 1 83 5 129 30 140 77 197 252 129 397 -49 105 -172
209 -342 289 -91 42 -134 48 -181 23z"/>
<path d="M1893 4591 c-109 -28 -236 -127 -245 -191 -11 -77 35 -148 112 -171
52 -16 98 -5 156 36 69 49 94 46 137 -13 43 -61 93 -86 155 -79 113 13 169
126 115 233 -32 61 -101 124 -173 157 -52 25 -79 31 -145 33 -44 2 -94 -1
-112 -5z"/>
<path d="M2932 3950 c-75 -18 -142 -89 -181 -194 -51 -136 -55 -383 -8 -514
44 -126 98 -176 192 -176 126 -1 203 119 146 225 -33 61 -51 140 -51 220 0 88
5 109 29 109 28 0 79 38 97 71 24 47 21 119 -7 169 -39 70 -136 110 -217 90z"/>
<path d="M1224 3900 c-28 -5 -87 -23 -130 -39 -221 -82 -264 -121 -264 -245 0
-60 31 -130 71 -159 35 -25 92 -37 134 -27 19 4 35 6 35 3 0 -3 -45 -73 -100
-155 -112 -167 -171 -278 -236 -443 -53 -136 -104 -311 -104 -357 0 -52 46
-135 92 -166 55 -36 139 -42 195 -14 22 12 119 98 214 192 207 204 338 320
558 495 l24 19 -6 -84 c-8 -102 -50 -274 -107 -430 -94 -261 -157 -413 -226
-549 -41 -80 -74 -156 -74 -169 0 -66 65 -133 143 -148 47 -8 113 15 150 54
71 74 263 549 356 879 59 213 85 358 85 493 1 152 -13 213 -61 269 -49 58 -86
75 -164 75 -108 0 -202 -55 -448 -263 -30 -25 -52 -41 -49 -36 3 6 37 63 76
127 145 238 202 381 186 472 -25 152 -171 238 -350 206z"/>
<path d="M4225 3785 c-126 -22 -229 -90 -275 -182 -21 -41 -25 -62 -25 -138 1
-78 4 -97 28 -143 37 -72 86 -122 149 -158 73 -40 167 -41 251 -2 107 50 233
199 306 362 36 78 39 127 12 176 -27 51 -69 71 -184 86 -123 16 -170 16 -262
-1z m45 -330 c-24 -26 -65 -35 -58 -12 5 14 46 37 67 37 10 0 7 -8 -9 -25z"/>
<path d="M3464 3376 c-81 -38 -142 -131 -184 -280 -31 -111 -25 -166 24 -214
34 -34 40 -37 110 -40 88 -5 169 16 238 59 162 103 186 324 48 442 -72 62
-151 73 -236 33z"/>
<path d="M4922 2943 c-29 -6 -168 -137 -229 -215 -65 -85 -103 -173 -109 -255
-5 -61 -3 -74 23 -123 42 -81 101 -115 202 -115 94 0 164 31 249 110 106 97
153 232 132 369 -13 81 -26 104 -96 169 -64 59 -104 73 -172 60z"/>
<path d="M4096 2516 c-47 -18 -101 -68 -128 -120 -31 -61 -33 -135 -5 -263 14
-62 21 -113 17 -113 -4 0 -39 12 -76 26 -89 34 -209 39 -266 10 -66 -32 -125
-93 -160 -164 -30 -61 -33 -74 -32 -157 1 -71 8 -112 34 -195 17 -58 49 -172
70 -254 57 -219 96 -265 235 -274 62 -4 80 -1 120 19 61 30 102 80 121 148 20
66 15 101 -31 221 -19 50 -35 94 -35 96 0 14 31 0 55 -26 72 -75 199 -88 317
-31 164 78 223 242 173 481 -24 115 -122 428 -153 490 -49 95 -161 141 -256
106z"/>
<path d="M2894 2185 c-81 -18 -185 -64 -374 -168 l-155 -85 -19 36 c-45 91
-141 149 -228 139 -94 -11 -161 -64 -246 -192 -42 -62 -47 -77 -50 -135 -6
-114 50 -188 147 -198 38 -3 51 -9 51 -21 0 -9 3 -26 6 -37 5 -18 -4 -26 -58
-51 -167 -79 -248 -230 -248 -461 0 -253 151 -525 370 -667 189 -122 461 -170
660 -115 89 24 189 84 304 184 100 86 130 185 84 276 -58 114 -182 129 -289
34 -73 -65 -121 -93 -194 -112 -61 -16 -69 -16 -151 1 -236 49 -406 221 -406
411 0 44 5 63 19 77 26 27 54 15 97 -41 44 -58 112 -115 160 -135 124 -52 266
42 266 175 0 58 -23 106 -79 165 -54 57 -90 122 -115 204 -24 81 -23 85 37
103 29 9 148 62 265 118 117 57 215 100 218 97 6 -6 -28 -145 -63 -252 -26
-80 -57 -150 -126 -278 -44 -82 -48 -132 -14 -197 34 -68 85 -103 157 -108 75
-6 110 8 159 64 45 51 181 319 215 424 14 41 39 144 57 229 50 245 36 347 -61
435 -93 84 -242 115 -396 81z"/>
</g>
</svg>
