<?xml version="1.0" standalone="no"?>
<!DOCTYPE svg PUBLIC "-//W3C//DTD SVG 20010904//EN"
 "http://www.w3.org/TR/2001/REC-SVG-20010904/DTD/svg10.dtd">
<svg version="1.0" xmlns="http://www.w3.org/2000/svg"
 width="600.000000pt" height="600.000000pt" viewBox="0 0 600.000000 600.000000"
 preserveAspectRatio="xMidYMid meet">
<metadata>
Created by potrace 1.15, written by Peter Selinger 2001-2017
</metadata>
<g transform="translate(0.000000,600.000000) scale(0.100000,-0.100000)"
fill="#16364b" stroke="none">
<path d="M2690 5522 c-44 -22 -68 -59 -116 -174 -32 -80 -37 -105 -38 -174 -1
-73 2 -85 29 -130 57 -93 183 -131 408 -121 64 3 117 2 117 -1 -1 -4 -33 -32
-72 -62 -162 -125 -275 -250 -423 -463 -79 -115 -89 -156 -58 -228 26 -59 70
-109 109 -125 18 -7 106 -18 196 -24 369 -23 487 -33 558 -46 100 -19 129 -18
168 6 98 60 94 203 -8 252 -46 22 -245 54 -455 73 -93 9 -174 17 -179 18 -13
4 73 99 178 196 50 47 148 141 217 211 102 102 129 136 142 175 45 129 0 237
-120 292 -43 20 -69 24 -142 24 -49 0 -124 -4 -167 -10 -162 -21 -184 -21
-184 -4 0 9 14 39 31 67 56 89 49 161 -21 219 -29 25 -86 47 -120 47 -8 0 -31
-8 -50 -18z"/>
<path d="M1572 5160 c-85 -40 -197 -127 -324 -253 -230 -229 -303 -369 -248
-481 26 -56 88 -96 145 -96 20 0 101 9 179 21 78 11 171 19 206 17 81 -4 81
-2 41 -186 -26 -116 -29 -144 -20 -177 12 -41 61 -95 87 -95 34 0 -7 -19 -105
-49 -113 -35 -156 -70 -168 -135 -16 -84 60 -176 145 -176 84 0 403 104 583
190 75 36 101 63 118 121 10 33 9 43 -12 85 -31 62 -65 86 -131 92 -46 3 -66
-2 -146 -37 -51 -23 -95 -41 -99 -41 -3 0 -2 8 1 17 23 60 69 319 70 393 2
189 -93 278 -322 304 l-105 11 74 68 c70 66 114 96 202 141 57 29 87 76 87
138 0 58 -17 96 -60 132 -45 37 -114 36 -198 -4z"/>
<path d="M4310 4676 c-78 -16 -165 -52 -275 -112 -104 -56 -136 -89 -142 -147
-11 -94 43 -164 132 -174 39 -5 58 1 149 45 108 53 221 91 233 78 17 -17 -81
-242 -198 -456 -64 -117 -72 -143 -59 -191 13 -47 111 -164 150 -177 17 -6 97
-8 202 -5 155 5 310 -5 326 -21 15 -16 -73 -298 -140 -451 -58 -130 -64 -156
-50 -203 15 -49 69 -99 117 -108 47 -9 118 19 145 56 18 25 117 269 175 430
106 294 60 464 -144 540 -66 25 -229 50 -332 50 -42 0 -78 3 -82 6 -3 3 19 52
48 107 129 247 176 487 117 604 -58 112 -206 164 -372 129z"/>
<path d="M3714 3672 c-116 -41 -237 -141 -280 -230 -43 -91 38 -202 148 -202
60 0 98 19 134 65 27 36 99 85 123 85 31 0 -17 -179 -84 -312 -34 -67 -43 -77
-94 -103 -194 -102 -246 -183 -188 -295 45 -88 133 -102 231 -37 73 48 172 97
291 142 195 75 257 140 240 251 -6 44 -52 103 -99 129 -18 10 -18 13 -2 76 21
84 21 193 -1 258 -20 62 -80 134 -137 163 -58 31 -210 36 -282 10z"/>
<path d="M2435 3504 c-130 -29 -327 -105 -368 -142 -48 -43 -63 -131 -33 -190
41 -79 132 -101 242 -57 109 44 251 76 319 73 l60 -3 -3 -45 c-4 -66 -30 -143
-85 -250 -72 -140 -64 -215 28 -260 51 -25 88 -25 141 -1 53 24 75 53 140 186
84 173 113 330 80 439 -60 199 -278 304 -521 250z"/>
<path d="M1163 3215 c-102 -28 -194 -85 -235 -146 -37 -56 -40 -139 -5 -190
38 -57 99 -92 167 -97 55 -4 59 -6 55 -26 -2 -11 -19 -118 -37 -236 -28 -185
-32 -242 -33 -410 0 -163 3 -204 18 -250 31 -93 90 -140 174 -140 104 1 205
76 283 211 76 132 277 431 346 513 l57 70 14 -39 c50 -146 31 -454 -48 -767
-33 -131 -21 -192 46 -243 49 -38 119 -41 164 -7 35 26 37 23 15 -21 -14 -26
-16 -50 -11 -137 11 -202 55 -366 147 -555 94 -192 189 -278 339 -305 126 -23
286 27 399 124 30 25 60 46 67 46 30 0 88 66 127 144 110 219 270 380 359 362
17 -3 84 -33 148 -65 197 -99 316 -115 433 -58 94 46 177 146 178 214 0 15 10
28 29 37 42 22 106 99 119 144 22 73 15 134 -22 205 -64 121 -84 227 -46 247
12 6 97 20 189 30 203 23 275 48 355 121 61 56 118 155 136 239 7 31 11 95 9
142 -4 77 -7 91 -34 130 -43 60 -121 99 -201 99 -93 1 -139 -16 -193 -69 -39
-38 -51 -57 -60 -99 -6 -29 -8 -60 -4 -69 9 -25 -15 -34 -102 -34 -252 -2
-442 -105 -528 -287 -29 -63 -32 -77 -35 -191 -5 -148 9 -251 49 -372 24 -72
28 -94 18 -106 -17 -21 -24 -18 -103 30 -195 122 -343 142 -519 71 -201 -81
-360 -237 -480 -472 -41 -81 -63 -113 -83 -122 -15 -7 -44 -25 -65 -42 -45
-36 -52 -36 -84 -1 -69 72 -135 256 -175 487 -24 139 -46 182 -112 214 -69 33
-135 25 -187 -22 l-24 -22 7 25 c4 14 30 133 58 265 l51 240 1 220 c1 201 -1
228 -23 315 -27 108 -66 193 -108 232 -51 48 -112 73 -176 71 -122 -3 -225
-84 -395 -312 -62 -83 -92 -117 -92 -102 0 12 7 67 16 124 8 56 16 165 17 242
1 183 -19 253 -98 331 -78 78 -160 99 -272 69z"/>
<path d="M3114 2568 c-167 -11 -477 -97 -550 -153 -52 -40 -78 -98 -79 -176 0
-79 28 -128 91 -159 56 -28 89 -25 218 14 139 44 295 83 364 92 62 8 62 10 27
-106 -30 -99 -30 -101 -9 -171 40 -133 181 -196 285 -126 48 32 65 67 104 223
32 121 36 151 33 234 -9 252 -154 350 -484 328z"/>
</g>
</svg>
