<?xml version="1.0" standalone="no"?>
<!DOCTYPE svg PUBLIC "-//W3C//DTD SVG 20010904//EN"
 "http://www.w3.org/TR/2001/REC-SVG-20010904/DTD/svg10.dtd">
<svg version="1.0" xmlns="http://www.w3.org/2000/svg"
 width="600.000000pt" height="600.000000pt" viewBox="0 0 600.000000 600.000000"
 preserveAspectRatio="xMidYMid meet">
<metadata>
Created by potrace 1.15, written by Peter Selinger 2001-2017
</metadata>
<g transform="translate(0.000000,600.000000) scale(0.100000,-0.100000)"
fill="#16364b" stroke="none">
<path d="M3125 5646 c-85 -38 -115 -153 -79 -306 18 -77 49 -133 104 -189 53
-54 111 -86 259 -146 68 -27 125 -54 125 -60 1 -9 -137 -98 -474 -304 -131
-80 -166 -113 -176 -165 -5 -28 -11 -35 -37 -40 -17 -3 -47 -24 -68 -46 -60
-63 -63 -148 -6 -208 53 -57 101 -63 242 -33 50 11 150 24 223 30 147 11 181
23 219 81 45 66 22 166 -47 209 l-31 18 83 60 c46 33 131 92 190 132 159 107
212 178 212 281 0 130 -97 219 -347 321 -147 59 -185 105 -186 222 -1 72 -22
112 -73 138 -43 22 -90 24 -133 5z"/>
<path d="M1250 5359 c-66 -38 -232 -202 -283 -281 -83 -127 -129 -252 -142
-388 -8 -78 17 -239 43 -285 46 -79 152 -101 216 -45 53 47 69 97 55 177 -37
211 61 441 237 554 79 52 108 95 107 161 -1 55 -20 91 -66 118 -47 29 -102 25
-167 -11z"/>
<path d="M1518 5075 c-131 -27 -178 -68 -186 -159 -3 -41 1 -58 20 -85 34 -50
82 -75 145 -75 59 0 61 -4 37 -61 -25 -60 -54 -186 -54 -236 0 -129 97 -245
228 -274 19 -4 30 -10 25 -14 -4 -5 -50 -23 -100 -41 -51 -18 -128 -54 -172
-81 -65 -40 -82 -56 -95 -89 -20 -52 -20 -75 3 -126 27 -59 67 -84 133 -84 55
0 65 4 162 64 83 50 206 96 306 113 58 10 95 22 118 39 118 90 68 267 -75 267
-36 0 -43 3 -37 16 46 112 1 201 -113 227 -56 12 -56 4 -6 159 57 177 55 277
-5 361 -59 80 -185 110 -334 79z"/>
<path d="M4525 4561 c-92 -12 -145 -62 -153 -140 -3 -36 1 -53 20 -81 38 -56
77 -70 201 -70 60 0 107 -4 107 -9 0 -6 -43 -40 -97 -78 -182 -128 -207 -169
-162 -260 18 -36 35 -54 69 -70 79 -40 102 -33 263 87 140 104 256 216 292
281 70 129 10 272 -134 325 -50 18 -313 28 -406 15z"/>
<path d="M3904 3710 c-88 -44 -113 -156 -59 -267 38 -78 170 -210 247 -247
110 -53 219 -33 279 52 60 84 58 174 -5 230 -27 24 -34 38 -38 79 -8 86 -45
119 -173 152 -103 27 -197 27 -251 1z"/>
<path d="M2525 3691 c-74 -19 -180 -56 -256 -89 -92 -40 -128 -122 -91 -205
22 -50 53 -75 107 -87 43 -10 74 -2 188 45 49 20 113 39 143 42 l54 6 0 -30
c0 -33 -26 -121 -58 -193 -23 -54 -204 -394 -276 -520 -41 -72 -35 -150 16
-206 19 -21 19 -24 4 -68 -19 -55 -19 -60 -6 -108 22 -77 102 -137 183 -138
21 0 86 18 145 41 162 62 290 104 298 97 13 -14 -32 -129 -118 -296 -95 -187
-105 -229 -74 -303 49 -118 219 -146 308 -52 33 34 140 257 197 408 56 151 81
255 81 339 0 90 -13 135 -53 188 -103 136 -266 158 -534 73 -59 -19 -108 -33
-110 -31 -1 1 38 76 88 167 185 338 239 471 239 590 0 100 -60 228 -135 284
-84 65 -202 81 -340 46z"/>
<path d="M1110 3511 c-73 -23 -108 -42 -212 -113 -102 -70 -143 -113 -157
-165 -16 -55 -14 -81 10 -130 40 -83 164 -122 249 -78 18 9 34 14 36 12 3 -2
-9 -56 -26 -118 -101 -368 -157 -632 -175 -821 -8 -85 18 -154 73 -192 51 -35
165 -54 221 -37 72 21 245 212 397 439 121 179 266 372 275 366 5 -3 9 -20 9
-38 0 -53 -67 -494 -112 -736 -63 -336 -57 -429 31 -487 62 -42 159 -23 205
40 18 24 21 45 22 125 2 77 13 151 59 357 134 614 140 659 120 878 -18 199
-53 273 -150 318 -50 23 -97 24 -160 2 -70 -24 -185 -142 -334 -343 -67 -91
-132 -178 -146 -195 l-24 -30 15 55 c9 30 38 127 64 216 67 223 83 307 78 418
-3 77 -8 99 -33 144 -63 115 -193 159 -335 113z"/>
<path d="M3593 3215 c-116 -58 -201 -161 -238 -287 -26 -91 1 -160 77 -199 70
-36 178 -6 207 57 8 19 19 22 103 26 148 6 233 56 267 157 17 51 13 91 -13
147 -41 87 -127 133 -252 134 -73 0 -88 -4 -151 -35z"/>
<path d="M4602 3214 c-42 -22 -70 -61 -78 -112 -10 -64 22 -118 97 -166 94
-60 166 -123 180 -158 13 -31 12 -32 -35 -74 -64 -56 -86 -91 -86 -138 0 -77
60 -136 140 -136 58 0 107 29 177 104 80 85 107 152 101 251 -9 136 -97 256
-281 379 -100 67 -156 80 -215 50z"/>
<path d="M4501 2274 c-90 -45 -137 -130 -129 -235 4 -60 4 -60 -21 -54 -76 16
-234 35 -292 35 -139 0 -293 -61 -366 -145 -90 -104 -113 -195 -120 -485 -5
-184 -3 -221 11 -254 9 -21 16 -40 16 -41 0 -1 -25 -5 -56 -8 -38 -4 -66 -14
-89 -31 -19 -14 -39 -26 -45 -26 -17 0 -206 125 -337 222 -189 142 -271 177
-365 157 -88 -19 -133 -67 -185 -199 -9 -22 -12 -13 -26 65 -9 50 -24 164 -32
254 -13 141 -18 170 -40 206 -70 121 -241 125 -315 8 -15 -24 -31 -59 -34 -79
-9 -46 11 -291 34 -429 21 -122 85 -318 133 -409 59 -112 174 -204 318 -257
134 -49 234 -33 295 47 28 36 29 43 30 143 0 58 1 114 2 123 2 14 38 -9 149
-92 175 -130 244 -163 348 -163 82 0 157 21 237 69 103 63 147 138 133 231
l-6 43 63 0 c99 1 176 48 211 129 6 14 13 119 16 233 3 113 10 210 14 214 7 7
96 -13 227 -51 41 -12 86 -15 175 -13 148 5 199 24 275 104 93 99 123 219 102
422 -6 65 -18 135 -26 154 -53 125 -182 173 -305 112z"/>
</g>
</svg>
