<?xml version="1.0" standalone="no"?>
<!DOCTYPE svg PUBLIC "-//W3C//DTD SVG 20010904//EN"
 "http://www.w3.org/TR/2001/REC-SVG-20010904/DTD/svg10.dtd">
<svg version="1.0" xmlns="http://www.w3.org/2000/svg"
 width="600.000000pt" height="600.000000pt" viewBox="0 0 600.000000 600.000000"
 preserveAspectRatio="xMidYMid meet">
<metadata>
Created by potrace 1.15, written by Peter Selinger 2001-2017
</metadata>
<g transform="translate(0.000000,600.000000) scale(0.100000,-0.100000)"
fill="#16364b" stroke="none">
<path d="M3558 5280 c-9 -6 -22 -26 -28 -45 -10 -32 -8 -40 29 -112 54 -104
119 -177 177 -199 44 -17 46 -17 72 3 49 37 40 89 -38 205 -62 92 -79 111
-121 137 -37 23 -65 26 -91 11z m146 -202 c19 -33 19 -33 0 -16 -10 9 -28 32
-38 50 -19 33 -19 33 0 16 10 -9 28 -32 38 -50z"/>
<path d="M3035 5094 c-82 -42 -147 -155 -153 -265 -4 -65 -3 -70 26 -99 52
-52 108 -34 200 64 120 129 137 252 42 301 -37 19 -77 19 -115 -1z m80 -94
c12 -20 -38 -110 -89 -157 l-51 -48 -3 33 c-4 42 38 133 75 162 27 21 58 26
68 10z"/>
<path d="M4769 4734 l-24 -26 0 -281 c0 -266 1 -284 21 -317 28 -48 64 -65
109 -50 48 16 73 55 85 138 22 138 -34 487 -86 539 -31 31 -74 30 -105 -3z"/>
<path d="M2653 4230 c-65 -26 -71 -133 -12 -183 74 -61 310 -126 412 -112 65
9 107 47 107 97 0 46 -38 80 -120 106 -36 11 -117 39 -180 61 -114 40 -165 48
-207 31z"/>
<path d="M1462 3999 c-123 -24 -213 -148 -198 -272 12 -105 77 -192 182 -245
121 -61 212 -251 254 -527 11 -77 34 -217 50 -311 34 -197 50 -352 50 -476 0
-97 25 -256 70 -444 81 -338 206 -445 610 -521 24 -4 23 -6 -25 -51 -115 -109
-164 -192 -165 -280 0 -61 17 -99 60 -136 41 -34 109 -53 254 -68 66 -7 121
-18 123 -24 2 -5 -21 -18 -51 -28 -31 -9 -69 -30 -86 -47 -65 -65 -22 -159 74
-159 86 0 208 91 237 177 16 48 6 114 -21 153 -35 49 -90 68 -249 85 -78 8
-153 18 -167 21 -68 17 9 123 203 276 l81 65 49 -8 c26 -4 82 -8 123 -8 41 -1
143 -7 225 -15 83 -8 209 -18 281 -21 l131 -7 -5 -44 c-6 -58 19 -124 63 -163
31 -27 129 -71 159 -71 22 0 27 -13 10 -31 -10 -11 -14 -31 -12 -60 3 -36 8
-47 37 -66 62 -42 170 -26 241 35 54 45 74 85 67 134 -12 90 -55 114 -236 134
-206 23 -227 48 -97 117 70 38 114 52 248 82 484 107 623 158 781 285 128 103
227 268 269 450 18 79 15 251 -6 330 -72 267 -246 448 -470 489 -167 31 -300
2 -481 -104 -128 -75 -303 -115 -500 -115 -299 0 -511 57 -689 184 -127 91
-386 377 -531 587 -150 218 -211 296 -310 394 -144 143 -353 273 -482 300 -75
16 -89 17 -151 4z m228 -257 c106 -52 124 -66 220 -162 71 -71 140 -155 214
-260 177 -251 213 -297 355 -460 240 -273 300 -325 478 -414 188 -94 390 -136
663 -138 145 -1 193 3 280 21 124 26 259 78 353 135 105 64 128 74 192 85 73
13 166 1 221 -27 121 -62 214 -253 214 -437 -1 -144 -63 -277 -186 -400 -103
-104 -243 -171 -532 -255 -268 -79 -443 -90 -963 -61 -206 12 -391 26 -409 31
-19 6 -66 10 -105 10 -38 0 -110 7 -160 15 -189 31 -298 77 -366 153 -82 94
-144 337 -160 627 -10 186 -17 248 -53 465 -14 80 -32 204 -41 275 -48 389
-166 639 -343 729 -86 43 -119 112 -62 127 39 10 66 2 190 -59z"/>
<path d="M2357 2472 c-10 -10 -17 -29 -17 -41 0 -26 45 -71 71 -71 48 0 78 80
43 114 -21 22 -77 20 -97 -2z"/>
<path d="M2827 2082 c-24 -26 -21 -49 8 -77 29 -30 65 -32 88 -7 24 26 22 79
-2 92 -30 16 -76 12 -94 -8z"/>
<path d="M5223 3962 c-77 -25 -134 -70 -168 -133 -28 -50 -30 -62 -30 -149 1
-75 6 -107 23 -152 29 -71 98 -149 158 -178 118 -58 305 -3 420 122 57 62 78
121 72 205 -8 115 -58 189 -172 255 -67 40 -76 42 -161 45 -65 2 -104 -2 -142
-15z m173 -295 c11 -10 -10 -38 -33 -43 -27 -7 -37 0 -48 35 -7 23 -6 24 35
18 23 -3 44 -7 46 -10z"/>
<path d="M4207 3750 c-129 -33 -212 -120 -237 -247 -35 -175 102 -343 280
-343 84 0 141 26 202 91 50 54 83 126 93 206 9 70 -19 190 -52 225 -55 58
-194 91 -286 68z m61 -287 c-2 -20 -9 -29 -25 -31 -25 -4 -29 9 -13 39 17 30
42 24 38 -8z"/>
<path d="M462 2008 c-28 -28 -13 -57 61 -112 182 -136 296 -167 297 -78 0 34
-34 60 -176 135 -130 68 -160 77 -182 55z"/>
<path d="M5336 1095 c-27 -29 -56 -113 -56 -162 0 -101 105 -147 173 -75 36
37 48 76 50 151 0 58 -2 66 -27 88 -39 33 -108 32 -140 -2z"/>
</g>
</svg>
