<?xml version="1.0" standalone="no"?>
<!DOCTYPE svg PUBLIC "-//W3C//DTD SVG 20010904//EN"
 "http://www.w3.org/TR/2001/REC-SVG-20010904/DTD/svg10.dtd">
<svg version="1.0" xmlns="http://www.w3.org/2000/svg"
 width="600.000000pt" height="600.000000pt" viewBox="0 0 600.000000 600.000000"
 preserveAspectRatio="xMidYMid meet">
<metadata>
Created by potrace 1.15, written by Peter Selinger 2001-2017
</metadata>
<g transform="translate(0.000000,600.000000) scale(0.100000,-0.100000)"
fill="#16364b" stroke="none">
<path d="M2234 5776 c-38 -17 -365 -261 -485 -362 -177 -150 -270 -275 -285
-381 -6 -45 -3 -60 20 -108 51 -103 128 -129 297 -102 214 35 664 153 749 196
104 53 109 209 9 270 -60 37 -88 35 -231 -14 -139 -48 -317 -99 -323 -93 -2 2
84 75 192 163 107 88 206 173 219 188 65 77 43 208 -41 243 -42 17 -81 17
-121 0z"/>
<path d="M3060 5662 c-91 -45 -108 -176 -32 -245 11 -10 61 -29 112 -42 177
-48 314 -135 359 -228 25 -52 27 -129 5 -212 -33 -129 -96 -192 -247 -246
-111 -40 -147 -76 -147 -147 0 -75 43 -130 118 -151 74 -22 281 58 379 144 96
84 182 242 209 383 18 93 18 222 0 289 -50 188 -244 341 -561 442 -109 36
-146 38 -195 13z"/>
<path d="M975 5294 c-360 -185 -448 -458 -246 -766 93 -142 200 -238 266 -238
40 0 101 36 123 72 51 85 36 158 -48 238 -69 66 -105 118 -121 181 -11 40 -10
53 5 93 20 52 52 80 160 141 88 51 116 89 116 160 0 63 -28 111 -80 137 -53
27 -97 22 -175 -18z"/>
<path d="M4780 4929 c-38 -15 -60 -39 -86 -93 -34 -70 -37 -102 -24 -208 30
-227 119 -367 267 -419 134 -48 271 10 336 140 17 36 22 63 22 126 0 71 -4 89
-34 149 -58 118 -187 225 -352 292 -63 26 -90 28 -129 13z"/>
<path d="M2705 4886 c-92 -45 -200 -129 -247 -191 -128 -168 -65 -396 150
-539 71 -47 199 -96 252 -96 97 0 166 86 145 180 -10 47 -60 98 -108 110 -116
30 -187 76 -187 120 0 41 41 90 117 141 87 59 113 96 113 159 0 78 -48 133
-125 145 -33 5 -52 0 -110 -29z"/>
<path d="M1890 4414 c-156 -30 -341 -149 -395 -253 -36 -70 -2 -171 68 -208
93 -48 157 -34 230 49 83 96 148 118 227 78 99 -51 217 4 235 108 19 115 -104
219 -268 227 -40 2 -83 1 -97 -1z"/>
<path d="M2630 3833 c-90 -15 -197 -46 -222 -65 -17 -11 -39 -39 -49 -62 -34
-75 -20 -138 41 -190 39 -32 93 -34 200 -6 41 11 101 20 133 20 68 0 70 -8 34
-98 -53 -128 -184 -322 -361 -536 -60 -72 -115 -145 -122 -163 -43 -101 20
-203 124 -203 66 0 108 29 227 156 323 345 484 637 485 880 0 57 -5 80 -27
124 -56 109 -148 151 -325 149 -62 -1 -124 -4 -138 -6z"/>
<path d="M4296 3789 c-187 -23 -311 -97 -382 -229 -15 -27 -19 -56 -19 -125 0
-105 18 -148 85 -209 71 -64 120 -80 240 -81 92 0 111 3 150 24 109 58 186
150 252 303 68 157 60 261 -22 300 -44 21 -198 30 -304 17z m4 -304 c0 -11
-46 -45 -62 -45 -29 0 -21 20 15 35 34 15 47 18 47 10z"/>
<path d="M1126 3699 c-83 -20 -253 -99 -290 -136 -117 -118 -27 -322 142 -323
24 0 52 5 64 11 11 6 22 9 24 6 6 -6 -42 -116 -161 -372 -167 -356 -224 -567
-181 -668 39 -93 180 -145 282 -102 73 30 300 242 594 554 85 89 156 159 158
153 9 -28 -166 -777 -219 -937 -57 -171 -60 -183 -48 -229 37 -138 225 -162
288 -38 58 115 254 889 303 1197 10 63 4 195 -13 281 -22 112 -99 184 -197
184 -120 0 -210 -65 -415 -303 -60 -70 -112 -125 -114 -123 -3 3 27 85 66 184
113 288 136 395 107 496 -21 72 -81 136 -151 159 -53 18 -173 21 -239 6z"/>
<path d="M3500 3329 c-63 -28 -106 -73 -145 -149 -64 -127 -83 -275 -45 -338
32 -51 97 -76 180 -68 202 20 339 105 376 234 37 126 -29 268 -151 323 -56 26
-156 25 -215 -2z"/>
<path d="M4819 2697 c-179 -53 -289 -164 -289 -289 l0 -48 -50 26 c-43 23 -60
26 -119 22 -87 -5 -138 -36 -181 -110 -41 -74 -46 -117 -22 -234 11 -55 19
-101 17 -103 -3 -2 -55 14 -117 34 -100 34 -124 39 -213 39 -89 1 -106 -2
-157 -27 -65 -32 -121 -90 -151 -156 -29 -64 -34 -192 -13 -318 8 -54 25 -157
36 -229 22 -149 36 -189 81 -233 52 -52 86 -66 170 -66 66 0 81 4 117 28 101
66 118 147 79 367 -14 74 -22 138 -20 143 2 4 49 -16 103 -44 113 -58 154 -66
261 -50 134 21 221 79 275 184 47 91 48 267 4 465 l-18 83 21 -16 c37 -27 108
-57 147 -62 57 -8 136 23 185 71 66 67 103 157 126 311 14 96 -23 189 -86 219
-44 21 -95 19 -186 -7z"/>
<path d="M2863 2431 c-87 -24 -184 -68 -368 -168 -156 -85 -179 -102 -206
-155 -23 -44 -25 -132 -4 -168 20 -36 18 -41 -11 -30 -87 34 -236 -12 -293
-90 -81 -111 -35 -260 93 -306 l59 -21 37 -116 38 -117 -48 -34 c-36 -26 -56
-52 -81 -102 -32 -64 -34 -75 -34 -169 0 -135 23 -201 112 -319 155 -207 288
-299 523 -362 181 -49 373 -17 546 92 152 95 112 324 -61 349 -36 6 -56 1
-122 -28 -112 -50 -150 -60 -197 -54 -49 7 -186 58 -225 84 l-26 17 48 7 c57
9 137 58 175 107 21 28 27 48 30 102 5 87 -18 135 -92 189 -112 83 -154 156
-241 414 -29 86 -69 186 -88 221 l-35 63 47 -5 c42 -4 62 4 246 96 189 94 271
129 281 120 7 -7 -124 -366 -180 -491 -48 -107 -28 -207 55 -266 48 -36 103
-46 158 -31 96 25 136 95 262 447 102 286 123 368 117 447 -10 121 -79 221
-186 269 -69 30 -231 34 -329 8z"/>
</g>
</svg>
