<?xml version="1.0" standalone="no"?>
<!DOCTYPE svg PUBLIC "-//W3C//DTD SVG 20010904//EN"
 "http://www.w3.org/TR/2001/REC-SVG-20010904/DTD/svg10.dtd">
<svg version="1.0" xmlns="http://www.w3.org/2000/svg"
 width="600.000000pt" height="600.000000pt" viewBox="0 0 600.000000 600.000000"
 preserveAspectRatio="xMidYMid meet">
<metadata>
Created by potrace 1.15, written by Peter Selinger 2001-2017
</metadata>
<g transform="translate(0.000000,600.000000) scale(0.100000,-0.100000)"
fill="#16364b" stroke="none">
<path d="M3141 5482 c-109 -55 -105 -200 8 -274 74 -49 94 -92 93 -197 0 -48
-7 -108 -16 -136 -33 -104 -9 -177 69 -215 59 -29 106 -22 151 21 44 42 74
163 81 319 8 174 -26 283 -119 385 -54 60 -152 115 -202 115 -17 0 -46 -8 -65
-18z"/>
<path d="M2045 5436 c-66 -29 -95 -84 -95 -180 0 -128 75 -214 223 -256 40
-11 83 -26 97 -33 l25 -13 -3 -204 c-3 -199 -2 -206 20 -244 66 -112 218 -96
262 28 15 41 32 280 29 406 -2 81 -31 163 -79 219 -50 57 -110 87 -235 115
-21 4 -25 11 -26 41 -3 101 -118 165 -218 121z"/>
<path d="M1482 4789 c-104 -10 -142 -22 -174 -57 -37 -39 -48 -65 -48 -112 0
-47 17 -85 55 -120 23 -22 35 -25 98 -25 40 0 128 7 197 14 144 15 238 10 328
-20 75 -25 117 -20 162 18 64 53 78 135 37 207 -45 80 -144 107 -392 105 -99
-1 -217 -5 -263 -10z"/>
<path d="M4335 4598 c-74 -27 -118 -104 -96 -171 14 -40 50 -74 131 -120 96
-56 119 -111 129 -312 8 -145 21 -183 74 -215 44 -27 106 -26 147 3 77 52 91
107 79 305 -15 235 -110 386 -304 483 -70 34 -118 43 -160 27z"/>
<path d="M3213 4480 c-19 -4 -81 -48 -153 -106 -180 -146 -263 -208 -385 -289
-142 -92 -165 -119 -165 -189 0 -69 29 -114 92 -140 66 -27 100 -17 240 76
171 113 256 179 400 312 107 98 127 122 138 160 29 103 -61 198 -167 176z"/>
<path d="M1605 4394 c-67 -35 -95 -79 -95 -151 0 -58 26 -105 71 -128 38 -20
334 -70 499 -85 205 -17 274 2 312 86 24 56 18 103 -19 153 -37 48 -91 68
-211 75 -56 3 -185 20 -287 36 -214 35 -229 35 -270 14z"/>
<path d="M3690 3877 c-31 -13 -136 -72 -235 -132 -99 -60 -227 -130 -285 -157
-163 -75 -192 -91 -212 -118 -22 -30 -33 -88 -24 -124 9 -38 53 -83 92 -96 50
-17 84 -4 453 171 273 129 322 149 364 149 44 0 54 4 87 38 44 44 57 90 41
150 -22 81 -101 142 -183 142 -24 0 -68 -11 -98 -23z"/>
<path d="M2230 3799 c-100 -25 -301 -41 -440 -36 -165 6 -192 0 -234 -55 -38
-51 -43 -112 -14 -168 36 -70 66 -82 221 -87 144 -6 414 16 556 44 64 12 92
23 117 46 37 32 58 91 48 134 -10 44 -53 100 -89 117 -35 17 -108 19 -165 5z"/>
<path d="M5016 3576 c-58 -22 -108 -67 -139 -127 l-28 -53 7 -151 c6 -139 5
-154 -16 -210 -12 -33 -78 -144 -150 -250 -136 -203 -232 -359 -270 -439 -49
-104 -33 -209 43 -284 52 -50 101 -72 165 -72 92 0 161 48 212 147 29 58 170
270 269 408 88 120 164 272 192 380 40 157 34 447 -11 535 -22 43 -64 87 -103
107 -42 21 -125 26 -171 9z"/>
<path d="M1962 3159 c-41 -27 -62 -66 -62 -119 0 -132 101 -191 399 -231 80
-10 99 -17 128 -42 79 -70 191 -48 240 47 24 46 14 135 -21 181 -60 78 -122
102 -366 140 -58 10 -123 23 -145 31 -60 21 -134 18 -173 -7z"/>
<path d="M4372 3140 c-12 -5 -55 -38 -95 -73 -41 -35 -105 -82 -143 -105 -137
-81 -452 -189 -647 -221 -131 -22 -170 -42 -193 -97 -41 -98 11 -201 112 -222
113 -23 485 57 708 154 171 73 410 254 450 339 20 42 20 107 1 145 -34 66
-132 106 -193 80z"/>
<path d="M1386 2965 c-47 -16 -89 -56 -112 -104 -35 -73 -3 -396 66 -673 56
-224 116 -375 198 -495 45 -67 70 -86 130 -103 112 -30 232 78 232 208 0 42
-14 76 -50 120 -41 52 -104 190 -134 297 -36 128 -54 245 -65 442 -6 101 -16
186 -24 205 -26 63 -113 119 -182 118 -11 -1 -37 -7 -59 -15z"/>
<path d="M2101 2350 c-76 -21 -110 -45 -133 -91 -45 -88 4 -186 105 -208 18
-5 65 -3 105 4 93 16 136 7 180 -40 48 -51 87 -68 140 -62 108 12 172 125 126
223 -9 18 -35 51 -59 73 -117 107 -301 148 -464 101z"/>
<path d="M4095 2104 c-16 -3 -157 -34 -313 -70 -155 -35 -418 -91 -584 -125
-165 -33 -317 -69 -338 -79 -150 -77 -154 -264 -6 -331 53 -24 64 -24 258 6
221 35 327 57 557 120 229 63 370 93 490 104 124 11 175 44 206 130 21 60 19
89 -11 149 -34 69 -76 94 -162 97 -37 2 -80 1 -97 -1z"/>
<path d="M2150 1682 c-19 -9 -45 -33 -58 -52 -20 -30 -23 -45 -20 -100 3 -53
12 -83 52 -165 41 -84 62 -113 130 -181 64 -65 98 -90 166 -122 47 -23 104
-45 128 -50 108 -24 202 45 202 148 0 63 -29 107 -88 132 -173 73 -234 126
-295 253 -46 96 -60 112 -112 136 -50 23 -61 23 -105 1z"/>
<path d="M4770 1679 c-14 -5 -59 -43 -100 -83 -140 -136 -252 -191 -501 -246
-489 -106 -665 -173 -717 -270 -47 -90 -14 -219 71 -270 69 -42 86 -41 277 30
47 18 189 59 315 91 373 97 509 152 665 270 95 72 216 196 235 243 35 84 1
186 -75 223 -42 20 -135 27 -170 12z"/>
<path d="M2075 988 c-79 -29 -125 -93 -125 -173 0 -84 30 -118 194 -222 213
-135 419 -222 579 -245 103 -15 223 1 371 49 198 64 249 94 282 172 39 91 -2
214 -86 259 -56 30 -102 26 -215 -18 -271 -106 -481 -73 -778 119 -102 66
-161 82 -222 59z"/>
</g>
</svg>
