<?xml version="1.0" standalone="no"?>
<!DOCTYPE svg PUBLIC "-//W3C//DTD SVG 20010904//EN"
 "http://www.w3.org/TR/2001/REC-SVG-20010904/DTD/svg10.dtd">
<svg version="1.0" xmlns="http://www.w3.org/2000/svg"
 width="600.000000pt" height="600.000000pt" viewBox="0 0 600.000000 600.000000"
 preserveAspectRatio="xMidYMid meet">
<metadata>
Created by potrace 1.15, written by Peter Selinger 2001-2017
</metadata>
<g transform="translate(0.000000,600.000000) scale(0.100000,-0.100000)"
fill="#16364b" stroke="none">
<path d="M2869 5547 c-46 -31 -79 -83 -79 -124 0 -18 11 -56 25 -83 58 -115
78 -254 61 -435 -8 -85 -7 -92 16 -125 67 -99 223 -65 257 55 25 89 35 250 23
352 -19 159 -84 316 -151 360 -45 31 -107 31 -152 0z"/>
<path d="M1986 5440 c-94 -29 -123 -134 -66 -246 30 -59 61 -96 162 -191 61
-58 100 -125 173 -301 29 -69 57 -120 72 -132 33 -26 88 -40 125 -33 44 9 104
70 117 120 13 49 6 77 -73 253 -70 155 -118 225 -235 340 -53 52 -104 109
-113 127 -26 50 -104 80 -162 63z"/>
<path d="M1379 4756 c-74 -50 -89 -150 -35 -221 37 -47 74 -65 141 -65 157 0
370 -39 485 -90 80 -35 116 -37 170 -10 43 22 80 80 80 125 0 41 -25 90 -62
120 -109 87 -408 165 -632 165 -102 0 -115 -2 -147 -24z"/>
<path d="M4370 4753 c-48 -19 -90 -83 -90 -138 0 -40 72 -224 176 -451 79
-171 108 -204 180 -204 81 0 134 49 142 131 4 42 -2 62 -46 156 -28 59 -81
185 -117 278 -79 203 -97 227 -177 231 -29 2 -60 1 -68 -3z"/>
<path d="M3144 4511 c-17 -10 -80 -79 -139 -152 -108 -133 -220 -251 -367
-384 -90 -82 -102 -115 -73 -191 33 -86 135 -121 213 -74 69 42 552 536 588
601 50 91 -35 219 -145 219 -27 0 -58 -8 -77 -19z"/>
<path d="M1742 4310 c-71 -17 -117 -86 -110 -167 5 -61 38 -105 93 -123 47
-15 297 -40 412 -40 119 0 246 16 284 36 39 20 66 59 74 105 9 52 -26 124 -75
157 -30 21 -43 23 -95 18 -176 -18 -265 -18 -394 -2 -73 10 -138 19 -145 21
-6 1 -26 -1 -44 -5z"/>
<path d="M3846 4095 c-26 -9 -75 -49 -145 -118 -190 -186 -275 -241 -625 -398
-71 -32 -137 -66 -148 -76 -73 -66 -67 -200 12 -247 53 -31 95 -21 305 69 327
141 427 207 636 414 153 152 173 186 150 260 -12 43 -70 101 -101 101 -10 0
-24 2 -32 5 -7 2 -31 -2 -52 -10z"/>
<path d="M2285 3758 c-23 -6 -173 -11 -347 -12 -292 -1 -309 -3 -335 -22 -37
-27 -63 -80 -63 -128 0 -52 40 -119 82 -139 120 -56 725 -41 831 20 44 26 69
65 74 115 14 121 -105 202 -242 166z"/>
<path d="M5041 3736 c-87 -31 -161 -137 -161 -230 0 -28 7 -85 16 -126 51
-240 -70 -528 -331 -785 -62 -60 -119 -124 -128 -142 -23 -44 -22 -156 2 -208
58 -127 190 -181 304 -124 92 47 268 245 426 477 138 205 199 355 221 551 16
144 -20 385 -71 467 -31 51 -98 103 -153 119 -58 18 -79 18 -125 1z"/>
<path d="M1986 3130 c-103 -32 -145 -180 -73 -259 32 -33 127 -79 216 -103 94
-24 368 -37 422 -19 92 30 134 133 90 219 -31 61 -78 82 -183 82 -141 0 -244
16 -315 49 -74 35 -117 43 -157 31z"/>
<path d="M4405 3108 c-11 -6 -45 -32 -75 -58 -204 -175 -514 -299 -888 -355
-57 -8 -114 -20 -125 -26 -163 -84 -109 -289 75 -289 74 0 303 35 401 61 165
44 489 193 642 294 93 62 173 142 186 185 22 72 -13 150 -82 185 -33 18 -106
19 -134 3z"/>
<path d="M1450 2928 c-53 -15 -100 -56 -123 -107 -16 -37 -21 -74 -25 -206
-12 -397 70 -671 270 -900 76 -87 114 -115 174 -126 86 -16 168 22 203 93 37
77 23 145 -45 220 -47 53 -114 159 -147 233 -66 153 -92 364 -67 549 14 97 1
147 -49 197 -52 53 -116 68 -191 47z"/>
<path d="M2130 2351 c-65 -35 -94 -100 -78 -176 14 -61 47 -87 186 -145 69
-30 156 -71 193 -92 106 -61 191 -46 237 43 26 50 25 110 -4 155 -33 50 -155
120 -326 188 -130 51 -157 55 -208 27z"/>
<path d="M4259 2096 c-5 -5 -512 -164 -679 -213 -142 -42 -293 -68 -481 -83
-190 -16 -215 -23 -265 -75 -94 -98 -57 -252 72 -301 48 -18 59 -18 344 11 85
8 196 22 245 31 157 26 442 114 865 268 90 33 149 124 136 208 -15 94 -90 158
-184 158 -27 0 -51 -2 -53 -4z"/>
<path d="M4865 1716 c-16 -8 -57 -40 -90 -71 -121 -115 -395 -276 -585 -342
-47 -17 -192 -56 -323 -88 -250 -60 -277 -72 -331 -138 -29 -36 -31 -45 -31
-117 0 -74 2 -81 30 -111 65 -68 120 -73 336 -29 400 82 714 202 961 366 103
68 254 204 287 257 59 96 20 217 -86 271 -39 19 -127 20 -168 2z"/>
<path d="M2007 1425 c-91 -63 -97 -176 -14 -263 148 -154 417 -267 662 -278
100 -5 113 -4 143 16 20 12 41 39 54 66 52 119 -36 234 -179 234 -115 0 -311
80 -424 173 -84 70 -98 77 -156 77 -35 0 -58 -7 -86 -25z"/>
<path d="M2000 898 c-62 -32 -90 -77 -90 -146 0 -75 30 -134 88 -177 109 -79
316 -162 553 -221 100 -25 132 -29 254 -28 145 1 194 9 363 60 54 17 96 37
119 57 118 104 86 285 -59 325 -29 8 -58 5 -150 -16 -153 -35 -358 -37 -492
-3 -102 25 -235 76 -347 132 -94 48 -167 53 -239 17z"/>
</g>
</svg>
