<?xml version="1.0" standalone="no"?>
<!DOCTYPE svg PUBLIC "-//W3C//DTD SVG 20010904//EN"
 "http://www.w3.org/TR/2001/REC-SVG-20010904/DTD/svg10.dtd">
<svg version="1.0" xmlns="http://www.w3.org/2000/svg"
 width="600.000000pt" height="600.000000pt" viewBox="0 0 600.000000 600.000000"
 preserveAspectRatio="xMidYMid meet">
<metadata>
Created by potrace 1.15, written by Peter Selinger 2001-2017
</metadata>
<g transform="translate(0.000000,600.000000) scale(0.100000,-0.100000)"
fill="#16364b" stroke="none">
<path d="M1586 5800 c-67 -21 -89 -61 -117 -216 -53 -288 -10 -578 102 -679
88 -79 212 -63 302 40 95 109 264 442 296 587 26 113 -74 204 -177 162 -51
-20 -64 -40 -114 -172 -44 -118 -147 -332 -159 -332 -28 0 -22 216 11 375 25
119 20 163 -22 205 -16 17 -35 30 -41 30 -7 0 -21 2 -32 5 -11 2 -33 0 -49 -5z"/>
<path d="M916 5499 c-123 -30 -277 -154 -337 -269 -32 -62 -34 -70 -34 -170 0
-93 3 -112 27 -162 49 -105 156 -198 228 -198 68 0 130 56 137 123 6 53 -13
96 -59 128 -48 34 -57 49 -58 93 0 51 39 117 86 146 32 20 44 22 109 16 87 -8
131 6 164 53 31 43 37 117 13 161 -36 67 -170 106 -276 79z"/>
<path d="M3264 5491 c-18 -11 -39 -30 -48 -42 -19 -28 -21 -94 -3 -128 6 -14
62 -61 123 -105 114 -83 200 -154 193 -159 -2 -2 -19 -9 -37 -17 -100 -40
-111 -163 -20 -232 76 -58 118 -73 209 -73 77 0 90 3 127 28 137 90 104 296
-77 477 -73 73 -234 190 -336 244 -57 31 -89 32 -131 7z"/>
<path d="M2992 5159 c-82 -16 -170 -93 -212 -185 -30 -67 -31 -164 -2 -220 19
-37 82 -103 100 -104 4 -1 26 -5 49 -9 98 -19 267 39 297 103 35 74 14 278
-36 349 -38 53 -121 81 -196 66z"/>
<path d="M2283 5004 c-48 -24 -64 -57 -68 -136 -3 -90 -15 -102 -164 -168
-130 -57 -147 -69 -161 -119 -20 -75 29 -152 106 -167 43 -8 86 7 250 87 189
92 249 171 248 326 -1 89 -17 130 -65 166 -36 26 -106 32 -146 11z"/>
<path d="M4764 4831 c-57 -35 -68 -75 -61 -240 6 -169 25 -268 67 -356 92
-192 328 -240 455 -92 139 162 44 447 -205 617 -130 88 -197 107 -256 71z"/>
<path d="M2807 4140 c-242 -41 -321 -301 -132 -432 122 -85 374 -71 603 32
104 48 142 93 142 170 0 67 -24 106 -85 134 -72 35 -251 84 -348 96 -91 11
-111 11 -180 0z"/>
<path d="M1009 4058 c-51 -29 -79 -83 -79 -149 0 -94 61 -151 175 -164 107
-11 205 -28 210 -35 8 -12 -99 -108 -185 -164 -47 -31 -163 -95 -257 -142
-188 -94 -226 -125 -238 -192 -15 -89 47 -188 131 -211 50 -13 73 -7 193 53
51 26 94 46 96 44 2 -2 10 -19 18 -39 8 -20 32 -49 53 -65 31 -24 47 -29 94
-29 51 0 63 5 131 50 159 107 320 169 391 151 75 -19 195 63 212 145 15 74
-35 155 -111 180 -42 13 -152 3 -255 -26 l-28 -7 40 60 c152 227 75 430 -195
515 -74 24 -221 47 -295 47 -48 0 -75 -6 -101 -22z"/>
<path d="M4208 3775 c-213 -54 -321 -221 -261 -405 22 -69 87 -141 155 -171
42 -19 70 -24 138 -24 75 0 93 4 150 31 116 56 184 149 214 297 33 156 15 221
-72 259 -61 28 -238 35 -324 13z m92 -274 c0 -13 -41 -41 -58 -41 -20 0 -9 23
19 37 29 15 39 16 39 4z"/>
<path d="M3403 3378 c-55 -30 -93 -80 -154 -202 -42 -83 -49 -106 -44 -135 15
-78 61 -111 157 -111 79 0 131 23 182 80 50 56 77 119 83 194 7 76 -12 123
-61 161 -51 39 -109 43 -163 13z"/>
<path d="M5047 3345 c-77 -40 -133 -82 -170 -128 -130 -163 -141 -334 -28
-447 80 -80 181 -99 307 -58 83 27 152 87 191 166 25 50 28 68 28 152 0 113
-15 155 -88 247 -77 97 -146 116 -240 68z"/>
<path d="M1055 2843 c-84 -22 -121 -121 -72 -194 12 -18 49 -48 81 -66 90 -51
132 -89 160 -145 61 -123 14 -297 -99 -364 -59 -34 -106 -32 -142 7 -92 102
-88 99 -139 99 -62 0 -107 -27 -134 -79 -26 -52 -25 -76 5 -137 53 -107 167
-188 280 -200 124 -13 248 39 361 151 110 109 164 240 164 400 0 97 -18 166
-61 242 -66 118 -151 195 -284 259 -69 34 -81 36 -120 27z"/>
<path d="M2180 2824 c-109 -40 -164 -103 -224 -264 -45 -119 -77 -171 -137
-222 -27 -24 -60 -59 -71 -78 -12 -19 -46 -62 -76 -95 -196 -218 -304 -490
-304 -770 -1 -185 49 -329 159 -459 323 -384 978 -436 1338 -107 68 62 173
187 213 254 71 118 116 258 168 527 24 122 28 169 28 300 -1 220 -33 330 -124
421 -58 58 -131 86 -265 103 -55 7 -111 18 -125 25 -18 9 -39 41 -72 109 -58
123 -117 191 -206 234 -59 29 -77 33 -162 35 -68 2 -108 -2 -140 -13z m197
-491 c44 -91 143 -202 206 -232 26 -12 84 -24 152 -31 154 -16 153 -15 166
-64 20 -73 -2 -282 -51 -481 -57 -232 -219 -422 -432 -506 -75 -30 -93 -33
-193 -33 -131 -1 -181 13 -287 83 -125 81 -177 160 -186 281 -8 113 38 282
111 405 40 68 54 86 155 192 147 154 201 224 251 323 26 52 50 105 53 118 4
12 9 22 12 22 3 0 22 -35 43 -77z"/>
<path d="M4074 2318 c-68 -47 -94 -100 -94 -196 0 -67 -2 -73 -17 -67 -10 4
-41 10 -70 12 -40 4 -63 0 -106 -20 -72 -33 -107 -83 -114 -164 -9 -105 84
-481 139 -563 13 -19 45 -48 72 -65 42 -25 59 -30 116 -30 55 0 73 4 107 27
29 19 53 26 90 26 63 1 117 23 161 65 82 79 97 175 63 399 -12 75 -30 212 -41
303 -23 193 -40 237 -114 280 -64 37 -129 35 -192 -7z"/>
</g>
</svg>
