<?xml version="1.0" standalone="no"?>
<!DOCTYPE svg PUBLIC "-//W3C//DTD SVG 20010904//EN"
 "http://www.w3.org/TR/2001/REC-SVG-20010904/DTD/svg10.dtd">
<svg version="1.0" xmlns="http://www.w3.org/2000/svg"
 width="600.000000pt" height="600.000000pt" viewBox="0 0 600.000000 600.000000"
 preserveAspectRatio="xMidYMid meet">
<metadata>
Created by potrace 1.15, written by Peter Selinger 2001-2017
</metadata>
<g transform="translate(0.000000,600.000000) scale(0.100000,-0.100000)"
fill="#16364b" stroke="none">
<path d="M1527 5771 c-15 -10 -35 -28 -43 -40 -25 -35 -62 -201 -75 -333 -21
-215 14 -353 103 -410 83 -55 169 -29 268 80 59 65 188 251 266 382 62 106 49
180 -40 224 -32 16 -44 17 -75 7 -48 -14 -57 -25 -121 -141 -73 -132 -142
-237 -147 -223 -5 15 21 159 48 268 25 98 20 134 -27 174 -28 25 -43 31 -82
31 -29 0 -58 -7 -75 -19z"/>
<path d="M810 5511 c-136 -44 -228 -157 -266 -328 -29 -131 0 -238 87 -323 97
-94 210 -105 259 -25 38 61 22 115 -54 178 -42 35 -46 42 -46 83 0 55 18 91
65 132 48 43 79 49 134 27 69 -26 95 -29 133 -11 42 20 68 63 68 111 0 56 -32
100 -98 132 -49 24 -70 28 -157 30 -55 1 -111 -1 -125 -6z"/>
<path d="M3373 5430 c-41 -24 -53 -48 -53 -103 0 -55 23 -86 97 -133 29 -19
53 -37 53 -40 0 -3 -9 -17 -20 -31 -25 -32 -26 -97 -2 -141 28 -53 100 -120
161 -149 44 -22 70 -28 123 -28 74 0 105 16 146 75 90 132 -120 427 -391 551
-53 24 -74 24 -114 -1z"/>
<path d="M2321 5223 c-68 -35 -75 -57 -82 -226 -8 -226 -33 -267 -213 -353
-72 -34 -103 -55 -117 -78 -48 -79 5 -185 100 -201 29 -5 55 1 117 25 232 92
332 192 370 369 19 91 19 360 0 406 -27 64 -111 92 -175 58z"/>
<path d="M2981 5159 c-169 -52 -267 -289 -174 -423 43 -62 82 -78 175 -73 63
3 89 10 145 38 90 45 106 76 107 209 1 82 -2 102 -24 144 -47 93 -136 133
-229 105z"/>
<path d="M4785 4810 c-75 -38 -80 -53 -80 -240 0 -131 4 -177 18 -225 41 -133
108 -224 199 -271 60 -31 163 -33 223 -5 149 69 176 249 67 456 -71 134 -273
305 -361 305 -14 0 -44 -9 -66 -20z m214 -460 c0 -9 -6 -4 -14 10 -19 33 -19
49 0 24 8 -10 14 -26 14 -34z"/>
<path d="M2765 4186 c-70 -18 -100 -31 -152 -67 -51 -35 -98 -103 -107 -154
-28 -150 165 -301 360 -281 158 16 388 136 434 227 34 67 23 135 -32 186 -23
22 -135 63 -243 88 -73 18 -192 18 -260 1z"/>
<path d="M1054 4086 c-82 -37 -120 -156 -72 -226 31 -46 65 -61 165 -72 96
-10 158 -29 158 -48 0 -28 -145 -123 -312 -205 -94 -47 -176 -85 -182 -85 -25
0 -79 -62 -90 -103 -25 -89 36 -191 129 -215 56 -14 91 -3 290 96 85 42 158
78 161 80 4 2 10 -13 13 -33 9 -47 59 -102 106 -116 52 -16 98 -5 156 36 44
32 50 33 69 20 60 -44 119 -66 178 -68 110 -2 177 57 185 164 12 158 -132 270
-331 256 -57 -4 -77 -2 -73 6 98 231 -18 441 -276 502 -97 23 -237 29 -274 11z"/>
<path d="M4218 3752 c-168 -45 -276 -177 -266 -324 10 -156 125 -262 283 -263
60 0 81 5 137 33 118 58 193 161 239 327 45 166 -16 229 -236 240 -68 4 -107
1 -157 -13z m92 -272 c0 -14 -48 -43 -60 -35 -14 8 -3 24 24 35 28 12 36 12
36 0z"/>
<path d="M5090 3451 c-115 -37 -206 -111 -257 -211 -24 -48 -28 -66 -28 -140
0 -71 4 -94 26 -141 57 -121 153 -187 257 -176 74 8 187 63 244 120 26 26 59
73 75 105 25 51 28 68 28 157 0 116 -7 135 -87 219 -83 87 -146 103 -258 67z"/>
<path d="M3403 3390 c-26 -14 -53 -39 -72 -68 -48 -76 -121 -241 -121 -275 0
-45 34 -96 75 -113 39 -16 114 -5 175 26 82 42 157 157 167 255 14 134 -111
232 -224 175z"/>
<path d="M2370 3094 c-110 -29 -173 -98 -249 -271 -26 -59 -56 -123 -65 -142
-29 -54 -93 -117 -174 -170 -95 -61 -251 -212 -321 -311 -91 -130 -167 -298
-195 -433 -21 -101 -21 -287 0 -380 52 -231 265 -486 490 -588 176 -80 461
-108 614 -61 186 58 433 238 534 390 100 151 154 296 206 558 44 214 56 368
41 505 -22 204 -75 323 -204 460 -40 41 -97 111 -127 153 -121 171 -252 270
-394 295 -74 14 -88 13 -156 -5z m169 -441 c23 -27 53 -72 68 -101 18 -35 55
-79 112 -130 59 -54 91 -92 107 -127 78 -171 37 -615 -79 -840 -54 -107 -175
-228 -285 -288 -101 -55 -233 -71 -345 -42 -137 36 -284 140 -339 241 -94 175
-43 449 122 650 27 33 107 108 177 166 205 169 272 245 345 393 35 69 66 125
70 125 3 0 25 -21 47 -47z"/>
<path d="M756 2579 c-86 -24 -119 -135 -59 -201 10 -11 45 -34 78 -50 181 -91
294 -222 295 -341 0 -61 -35 -103 -77 -92 -64 16 -133 92 -200 221 -23 43 -53
90 -66 102 -72 68 -199 8 -199 -94 0 -116 217 -402 357 -470 201 -98 424 48
442 289 17 227 -112 413 -402 581 -95 54 -130 66 -169 55z"/>
<path d="M4203 2175 c-38 -23 -83 -90 -83 -124 0 -7 -8 -10 -17 -7 -91 25
-158 11 -218 -48 -53 -51 -68 -99 -56 -178 17 -100 73 -352 83 -373 21 -41 73
-86 112 -96 22 -6 53 -21 70 -33 108 -80 262 -47 324 69 35 67 44 137 49 411
6 304 4 320 -65 372 -51 39 -141 43 -199 7z"/>
</g>
</svg>
