<?xml version="1.0" standalone="no"?>
<!DOCTYPE svg PUBLIC "-//W3C//DTD SVG 20010904//EN"
 "http://www.w3.org/TR/2001/REC-SVG-20010904/DTD/svg10.dtd">
<svg version="1.0" xmlns="http://www.w3.org/2000/svg"
 width="600.000000pt" height="600.000000pt" viewBox="0 0 600.000000 600.000000"
 preserveAspectRatio="xMidYMid meet">
<metadata>
Created by potrace 1.15, written by Peter Selinger 2001-2017
</metadata>
<g transform="translate(0.000000,600.000000) scale(0.100000,-0.100000)"
fill="#16364b" stroke="none">
<path d="M1586 5770 c-65 -20 -89 -63 -110 -202 -43 -272 -21 -495 61 -619 76
-114 215 -117 325 -7 118 117 328 507 328 607 0 100 -112 163 -197 111 -41
-24 -51 -41 -107 -175 -46 -111 -124 -257 -151 -285 -13 -12 -15 -5 -15 60 0
41 7 125 16 185 8 61 18 140 21 177 l6 68 -40 40 c-23 22 -50 40 -61 40 -11 0
-26 2 -34 4 -7 2 -26 0 -42 -4z"/>
<path d="M3264 5520 c-61 -24 -84 -122 -45 -186 10 -17 74 -69 142 -117 183
-128 233 -177 177 -177 -34 0 -86 -46 -97 -87 -21 -75 21 -143 119 -193 188
-96 385 17 350 200 -18 95 -100 223 -200 313 -52 47 -288 210 -347 241 -35 17
-66 20 -99 6z"/>
<path d="M863 5461 c-201 -51 -323 -255 -279 -468 20 -99 56 -171 113 -229 71
-70 132 -83 193 -41 82 55 89 143 16 212 -24 22 -48 50 -54 62 -28 51 -6 131
48 177 32 27 36 27 116 21 74 -7 87 -5 118 14 23 15 40 36 52 67 17 43 16 47
-2 92 -29 70 -81 96 -199 99 -49 1 -104 -2 -122 -6z"/>
<path d="M2964 5162 c-130 -45 -209 -164 -209 -314 0 -69 3 -81 30 -119 17
-23 50 -53 75 -67 40 -21 55 -23 125 -19 56 3 99 12 144 31 111 45 131 79 131
217 0 105 -22 174 -74 225 -63 63 -131 77 -222 46z"/>
<path d="M2280 5002 c-51 -28 -71 -61 -79 -131 -4 -34 -14 -68 -22 -76 -8 -8
-66 -37 -129 -65 -145 -63 -170 -88 -170 -166 0 -52 3 -59 38 -94 60 -60 90
-61 227 -7 192 77 271 143 312 262 23 69 24 192 0 228 -39 60 -117 82 -177 49z"/>
<path d="M4726 4820 c-50 -45 -60 -84 -53 -214 14 -255 95 -423 239 -497 33
-17 64 -24 133 -27 79 -3 95 -1 135 20 68 35 103 93 108 178 10 163 -95 348
-258 459 -172 117 -241 136 -304 81z"/>
<path d="M2814 4150 c-124 -26 -209 -105 -229 -210 -13 -73 40 -178 113 -224
146 -91 413 -73 642 44 101 52 119 175 36 248 -37 32 -174 89 -296 122 -87 23
-208 33 -266 20z"/>
<path d="M1038 4060 c-70 -21 -118 -84 -118 -155 0 -76 67 -150 147 -160 136
-17 201 -28 214 -36 11 -7 4 -18 -31 -49 -69 -61 -268 -201 -398 -281 -64 -39
-133 -82 -152 -95 -116 -77 -96 -250 35 -299 61 -24 101 -14 207 51 49 30 91
54 94 54 2 0 4 -7 4 -15 0 -22 61 -86 97 -101 46 -20 123 -18 154 4 15 9 57
41 94 69 79 62 147 96 229 118 52 13 64 13 101 1 78 -27 153 6 193 84 42 83
23 169 -48 222 -35 25 -91 33 -153 20 -77 -16 -171 -30 -176 -26 -2 2 16 25
39 51 57 64 91 141 98 219 14 179 -128 283 -435 319 -141 17 -156 17 -195 5z"/>
<path d="M4172 3765 c-172 -38 -271 -167 -260 -339 11 -164 129 -274 304 -284
72 -4 89 -1 137 21 134 61 231 203 272 399 14 71 14 74 -8 118 -12 24 -35 52
-52 62 -66 37 -272 49 -393 23z m88 -294 c0 -11 -39 -41 -52 -41 -13 0 -9 38
5 43 21 9 47 7 47 -2z"/>
<path d="M3417 3396 c-58 -21 -101 -60 -150 -133 -103 -156 -115 -223 -53
-290 31 -34 39 -37 97 -41 96 -6 143 11 204 72 101 101 134 276 66 354 -20 24
-80 52 -108 52 -10 -1 -35 -7 -56 -14z"/>
<path d="M5135 3360 c-17 -4 -55 -19 -84 -34 -114 -57 -194 -131 -240 -224
-102 -201 38 -459 237 -439 121 13 254 112 315 237 28 57 32 74 32 150 0 68
-5 94 -23 130 -24 50 -92 136 -124 158 -28 20 -77 29 -113 22z"/>
<path d="M1071 2862 c-48 -24 -74 -63 -74 -110 0 -58 30 -101 101 -148 120
-78 160 -135 169 -234 13 -142 -101 -330 -202 -333 -32 -1 -43 6 -84 50 -30
33 -60 55 -84 61 -85 24 -167 -37 -167 -124 0 -80 104 -191 219 -235 186 -70
399 51 519 297 140 283 36 621 -231 754 -88 44 -116 48 -166 22z"/>
<path d="M2208 2775 c-117 -32 -176 -91 -260 -264 -40 -81 -64 -118 -105 -156
-99 -92 -125 -120 -193 -205 -161 -204 -240 -396 -270 -660 -31 -272 52 -511
235 -678 199 -182 608 -286 860 -218 209 56 403 203 536 406 228 347 345 747
296 1007 -46 242 -225 408 -462 430 -96 8 -120 22 -139 81 -21 61 -68 138
-110 176 -87 80 -261 116 -388 81z m166 -472 c29 -73 67 -125 129 -182 60 -55
77 -61 226 -75 77 -7 147 -18 155 -25 44 -37 45 -235 2 -396 -63 -232 -125
-361 -233 -475 -129 -137 -235 -190 -381 -190 -186 0 -392 102 -471 234 -31
52 -35 66 -39 155 -10 210 74 422 234 591 184 194 258 285 310 381 15 27 30
49 34 49 3 0 19 -30 34 -67z"/>
<path d="M4092 2347 c-47 -18 -100 -73 -114 -119 -9 -30 -9 -56 0 -106 6 -37
9 -68 7 -70 -2 -2 -12 1 -23 7 -30 16 -128 13 -161 -3 -39 -21 -87 -77 -101
-122 -8 -22 -11 -65 -8 -108 7 -91 93 -449 121 -499 30 -54 90 -87 156 -87 50
0 110 18 139 43 9 7 44 12 81 12 116 0 210 64 247 167 34 97 28 225 -21 468
-13 64 -29 155 -35 204 -13 107 -37 157 -91 193 -48 32 -142 41 -197 20z"/>
</g>
</svg>
