<?xml version="1.0" standalone="no"?>
<!DOCTYPE svg PUBLIC "-//W3C//DTD SVG 20010904//EN"
 "http://www.w3.org/TR/2001/REC-SVG-20010904/DTD/svg10.dtd">
<svg version="1.0" xmlns="http://www.w3.org/2000/svg"
 width="600.000000pt" height="600.000000pt" viewBox="0 0 600.000000 600.000000"
 preserveAspectRatio="xMidYMid meet">
<metadata>
Created by potrace 1.15, written by Peter Selinger 2001-2017
</metadata>
<g transform="translate(0.000000,600.000000) scale(0.100000,-0.100000)"
fill="#16364b" stroke="none">
<path d="M2405 5420 c-40 -16 -48 -39 -56 -153 -5 -62 -16 -164 -24 -227 -46
-336 -84 -403 -293 -515 -76 -41 -97 -87 -67 -145 33 -63 107 -49 260 51 129
84 207 192 240 331 22 95 55 408 55 519 0 96 0 97 -31 123 -32 27 -50 30 -84
16z"/>
<path d="M3529 5321 c-14 -11 -31 -37 -38 -58 -10 -32 -10 -45 4 -83 41 -114
142 -252 209 -284 70 -33 135 -14 161 48 18 44 7 90 -43 175 -98 164 -228 254
-293 202z"/>
<path d="M3007 5128 c-53 -14 -131 -88 -163 -156 -34 -70 -38 -167 -10 -220
39 -75 124 -92 222 -42 80 40 121 84 150 164 29 82 30 117 3 172 -34 71 -118
105 -202 82z m33 -198 c0 -21 -47 -76 -56 -67 -7 6 12 45 34 70 19 22 22 21
22 -3z"/>
<path d="M4763 4752 c-36 -28 -43 -65 -43 -241 0 -194 9 -253 50 -336 46 -96
136 -141 223 -115 143 42 170 253 62 475 -39 80 -122 185 -170 215 -40 24 -92
26 -122 2z"/>
<path d="M2624 4195 c-125 -63 -139 -216 -27 -314 58 -52 128 -75 223 -74 92
1 166 26 258 87 81 54 107 92 99 149 -8 61 -47 94 -148 123 -211 62 -323 70
-405 29z"/>
<path d="M1134 4130 c-35 -14 -64 -59 -64 -100 0 -24 -7 -43 -19 -54 -84 -76
51 -261 212 -291 83 -16 197 42 227 115 20 49 8 124 -27 168 -46 57 -119 107
-204 141 -83 33 -92 35 -125 21z"/>
<path d="M5199 3877 c-88 -30 -140 -67 -183 -130 -46 -70 -59 -116 -54 -195 4
-83 34 -146 98 -212 72 -74 138 -104 231 -104 67 -1 84 3 150 36 86 43 160
111 197 183 36 69 38 188 4 253 -33 62 -83 114 -151 155 -56 35 -64 37 -143
37 -59 0 -102 -7 -149 -23z m155 -287 c12 -11 -32 -52 -52 -48 -21 4 -29 48
-10 59 13 9 47 3 62 -11z"/>
<path d="M4151 3740 c-57 -21 -68 -27 -119 -74 -70 -64 -110 -191 -92 -288 18
-95 77 -169 165 -210 69 -32 199 -32 267 -1 62 28 134 96 163 154 39 76 51
197 30 304 -20 99 -267 168 -414 115z m139 -274 c0 -8 -7 -22 -16 -30 -19 -20
-44 -21 -44 -2 0 14 36 46 52 46 5 0 8 -6 8 -14z"/>
<path d="M3442 3367 c-12 -7 -34 -30 -49 -52 -40 -59 -133 -262 -133 -291 0
-34 42 -74 78 -74 108 0 263 247 231 366 -16 57 -74 80 -127 51z"/>
<path d="M1425 3189 c-296 -30 -502 -144 -587 -325 -31 -65 -33 -76 -33 -179
0 -106 1 -113 36 -185 44 -92 126 -184 215 -240 41 -26 115 -57 199 -85 153
-49 191 -70 239 -128 47 -58 78 -123 145 -305 85 -230 139 -329 234 -429 168
-178 423 -255 727 -218 74 9 227 18 340 20 214 4 255 7 435 30 61 8 184 19
275 25 271 16 376 42 565 135 203 101 385 250 482 395 128 191 184 354 184
535 0 199 -78 356 -251 503 -152 129 -316 195 -485 195 -134 0 -196 -20 -435
-141 -118 -60 -239 -117 -268 -127 -41 -13 -91 -17 -210 -18 -147 -1 -162 0
-236 26 -126 44 -248 111 -437 237 -282 189 -393 237 -644 276 -98 15 -358 17
-490 3z m464 -394 c113 -19 226 -55 301 -97 30 -17 139 -84 241 -149 102 -64
226 -137 275 -162 112 -56 258 -103 361 -116 43 -5 92 -15 108 -21 50 -19 285
9 422 51 93 29 152 58 315 155 163 97 191 108 267 102 76 -5 142 -40 222 -118
61 -59 68 -71 79 -123 20 -101 -25 -286 -101 -413 -74 -124 -301 -273 -493
-323 -176 -46 -569 -84 -906 -86 -146 -2 -294 -8 -330 -14 -111 -19 -288 -14
-365 10 -113 35 -184 128 -264 347 -106 291 -209 464 -335 559 -80 60 -199
115 -311 143 -132 33 -169 56 -181 116 -8 40 31 87 89 108 111 42 434 59 606
31z"/>
<path d="M463 2095 c-53 -23 -71 -90 -35 -131 9 -11 34 -54 55 -96 88 -177
256 -277 372 -222 52 24 80 87 65 142 -23 89 -117 176 -279 260 -115 59 -136
65 -178 47z"/>
<path d="M5135 1326 c-17 -7 -36 -20 -44 -29 -7 -10 -24 -17 -38 -17 -14 0
-38 -13 -55 -31 -29 -29 -30 -33 -26 -93 7 -79 55 -177 103 -206 49 -30 107
-27 148 10 45 39 67 110 67 216 0 81 -1 85 -32 118 -38 40 -80 51 -123 32z"/>
</g>
</svg>
