<?xml version="1.0" standalone="no"?>
<!DOCTYPE svg PUBLIC "-//W3C//DTD SVG 20010904//EN"
 "http://www.w3.org/TR/2001/REC-SVG-20010904/DTD/svg10.dtd">
<svg version="1.0" xmlns="http://www.w3.org/2000/svg"
 width="600.000000pt" height="600.000000pt" viewBox="0 0 600.000000 600.000000"
 preserveAspectRatio="xMidYMid meet">
<metadata>
Created by potrace 1.15, written by Peter Selinger 2001-2017
</metadata>
<g transform="translate(0.000000,600.000000) scale(0.100000,-0.100000)"
fill="#16364b" stroke="none">
<path d="M2364 5396 c-27 -23 -28 -27 -35 -162 -12 -224 -44 -392 -93 -501
-33 -71 -103 -143 -177 -183 -83 -44 -99 -62 -99 -109 0 -32 6 -44 31 -65 39
-33 59 -33 117 1 151 86 236 172 293 300 61 134 99 352 99 569 0 119 -1 126
-25 149 -31 32 -75 32 -111 1z"/>
<path d="M3518 5303 c-47 -54 -49 -107 -8 -190 32 -64 108 -146 162 -175 42
-22 107 -23 137 -2 34 24 51 73 41 117 -18 83 -122 215 -195 248 -52 24 -117
25 -137 2z"/>
<path d="M3000 5107 c-19 -6 -61 -36 -92 -67 -45 -46 -60 -69 -73 -115 -63
-217 131 -321 308 -165 62 54 99 178 78 257 -7 26 -25 53 -46 72 -31 27 -43
31 -88 30 -29 -1 -68 -6 -87 -12z m60 -169 c0 -23 -39 -78 -55 -78 -12 0 -13
5 -4 27 18 47 59 82 59 51z"/>
<path d="M4752 4760 c-39 -24 -48 -46 -57 -136 -13 -132 26 -347 84 -463 83
-163 229 -173 307 -21 25 50 30 179 10 260 -32 129 -154 326 -227 366 -35 19
-79 17 -117 -6z"/>
<path d="M2632 4209 c-106 -53 -111 -221 -11 -316 61 -57 121 -78 229 -77 110
0 174 21 255 82 63 47 89 97 80 153 -11 63 -48 97 -130 120 -230 64 -348 75
-423 38z"/>
<path d="M1132 4125 c-17 -14 -34 -40 -37 -58 -4 -17 -15 -50 -26 -73 -17 -36
-18 -48 -9 -92 16 -72 67 -151 114 -175 68 -35 173 -17 240 42 32 28 58 92 58
142 0 85 -72 167 -188 213 -81 33 -114 33 -152 1z"/>
<path d="M5243 3905 c-74 -20 -127 -49 -172 -94 -129 -129 -116 -334 29 -465
66 -59 121 -80 212 -80 65 0 86 5 142 33 125 61 199 178 200 316 1 116 -56
205 -176 273 -47 27 -65 32 -119 31 -35 0 -88 -7 -116 -14z m112 -297 c7 -6 2
-16 -14 -29 -31 -25 -39 -24 -53 7 -10 21 -9 27 3 34 15 10 48 4 64 -12z"/>
<path d="M4200 3763 c-190 -69 -307 -285 -240 -441 79 -183 324 -227 481 -85
82 75 124 173 134 319 8 117 -6 147 -88 188 -48 24 -72 29 -150 32 -67 3 -104
-1 -137 -13z m80 -285 c0 -19 -31 -48 -52 -48 -23 0 -23 11 2 38 22 24 50 29
50 10z"/>
<path d="M3454 3389 c-16 -5 -40 -19 -52 -31 -31 -34 -115 -177 -142 -243 -22
-53 -22 -58 -7 -90 11 -23 27 -37 51 -45 45 -14 87 4 146 63 47 48 117 182
126 243 5 36 3 45 -22 72 -34 36 -58 43 -100 31z"/>
<path d="M1255 3226 c-153 -25 -259 -75 -365 -173 -155 -144 -188 -328 -94
-522 70 -141 208 -244 374 -276 184 -36 222 -50 281 -108 62 -60 104 -144 173
-342 137 -392 244 -546 439 -635 109 -49 178 -63 332 -63 201 -1 875 20 1045
32 80 6 219 15 309 21 253 16 440 64 646 164 264 129 423 311 521 599 50 145
68 382 39 506 -51 214 -250 407 -515 497 -84 29 -319 27 -415 -3 -87 -28 -196
-80 -357 -172 -200 -114 -225 -122 -397 -124 -112 -2 -161 2 -211 16 -98 26
-284 123 -485 252 -304 195 -424 246 -730 311 -110 23 -159 28 -320 30 -123 2
-218 -1 -270 -10z m534 -406 c112 -14 240 -49 320 -89 31 -16 104 -60 162 -98
361 -239 620 -366 804 -392 44 -7 106 -16 137 -22 38 -7 84 -6 141 1 188 23
303 67 530 204 205 123 224 130 347 131 93 0 111 -3 160 -26 79 -37 162 -103
184 -147 31 -60 28 -203 -8 -312 -33 -103 -92 -206 -143 -250 -142 -125 -332
-210 -590 -264 -226 -47 -289 -51 -933 -51 -555 0 -609 2 -649 18 -109 43
-162 121 -246 367 -98 283 -165 402 -304 540 -127 126 -233 179 -436 220 -44
9 -68 21 -92 45 -58 58 -38 105 54 132 56 15 405 11 562 -7z"/>
<path d="M430 2090 c-27 -27 -25 -76 4 -119 13 -20 36 -58 51 -86 45 -80 140
-168 208 -193 67 -26 95 -27 141 -8 98 41 86 154 -26 250 -43 38 -167 115
-245 155 -54 27 -107 27 -133 1z"/>
<path d="M5178 1268 c-13 -13 -41 -31 -61 -40 -49 -23 -70 -67 -65 -132 15
-181 191 -262 268 -123 29 51 41 197 20 247 -28 68 -112 93 -162 48z"/>
</g>
</svg>
