<?xml version="1.0" standalone="no"?>
<!DOCTYPE svg PUBLIC "-//W3C//DTD SVG 20010904//EN"
 "http://www.w3.org/TR/2001/REC-SVG-20010904/DTD/svg10.dtd">
<svg version="1.0" xmlns="http://www.w3.org/2000/svg"
 width="600.000000pt" height="600.000000pt" viewBox="0 0 600.000000 600.000000"
 preserveAspectRatio="xMidYMid meet">
<metadata>
Created by potrace 1.15, written by Peter Selinger 2001-2017
</metadata>
<g transform="translate(0.000000,600.000000) scale(0.100000,-0.100000)"
fill="#16364b" stroke="none">
<path d="M1783 5789 c-59 -18 -88 -60 -151 -221 -99 -251 -134 -370 -140 -475
-4 -81 -2 -97 18 -138 24 -49 60 -78 121 -96 94 -29 232 44 399 211 120 119
267 303 282 351 16 56 3 123 -33 158 -68 69 -147 47 -243 -68 -35 -42 -83 -94
-106 -116 -49 -47 -50 -47 11 109 25 64 39 116 39 145 0 105 -94 172 -197 140z"/>
<path d="M3009 5670 c-20 -10 -44 -32 -54 -47 -26 -39 -25 -115 1 -151 12 -15
108 -94 215 -176 265 -204 405 -347 434 -443 6 -22 4 -23 -52 -23 -157 -2
-226 -148 -114 -243 94 -79 293 -56 387 45 81 86 103 196 61 315 -32 94 -123
229 -213 319 -63 64 -324 266 -492 381 -72 49 -113 55 -173 23z"/>
<path d="M915 5438 c-129 -24 -253 -119 -312 -238 -86 -175 -54 -359 85 -496
60 -59 140 -104 184 -104 73 0 135 56 145 129 8 61 -13 108 -79 170 -72 69
-84 111 -49 178 28 57 71 80 157 85 109 8 164 57 164 148 0 117 -108 164 -295
128z"/>
<path d="M2924 5166 c-87 -40 -159 -152 -170 -264 -11 -103 32 -188 114 -224
39 -18 59 -20 136 -15 112 7 160 22 202 64 39 38 50 92 40 190 -13 122 -62
204 -148 247 -64 32 -108 33 -174 2z"/>
<path d="M4765 4876 c-16 -8 -43 -28 -60 -46 l-30 -32 2 -141 c2 -212 43 -345
139 -455 111 -127 269 -137 383 -23 22 22 50 59 62 83 30 59 37 166 15 241
-34 117 -164 245 -346 341 -92 49 -117 53 -165 32z"/>
<path d="M2010 4841 c-109 -35 -151 -69 -170 -140 -19 -73 28 -152 103 -172
32 -8 51 -6 108 11 37 12 73 19 77 16 5 -3 12 -29 14 -57 9 -90 72 -144 161
-136 51 4 88 26 121 71 32 43 29 172 -6 247 -32 70 -94 134 -154 160 -59 25
-177 25 -254 0z"/>
<path d="M2850 4091 c-43 -14 -104 -48 -121 -67 -33 -37 -59 -103 -59 -149 0
-133 123 -242 325 -286 139 -31 461 -7 556 41 108 56 125 207 28 258 -73 38
-342 157 -407 179 -62 21 -99 27 -187 29 -60 2 -121 0 -135 -5z"/>
<path d="M1120 4080 c-102 -14 -147 -30 -183 -65 -94 -91 -87 -225 15 -292 36
-25 51 -28 120 -28 43 0 78 -3 78 -8 0 -4 -33 -51 -73 -105 -40 -53 -104 -142
-142 -197 -38 -55 -122 -171 -187 -258 -135 -180 -204 -293 -213 -347 -19
-111 77 -220 193 -220 58 0 132 34 242 112 111 78 290 202 492 341 54 37 101
67 106 67 5 0 19 -11 32 -25 21 -23 22 -30 17 -107 -12 -192 -174 -542 -345
-748 -25 -30 -81 -91 -123 -136 -83 -86 -94 -110 -86 -181 9 -85 88 -136 183
-118 73 13 292 261 422 476 27 46 93 175 146 285 95 198 136 318 136 394 0 22
7 43 16 51 38 32 46 67 45 216 -1 83 -6 163 -13 186 -16 54 -73 112 -123 126
-113 31 -196 2 -464 -162 -42 -25 -37 -16 45 83 126 153 164 230 171 345 6 95
-16 167 -72 232 -55 64 -117 86 -255 89 -63 1 -144 -1 -180 -6z"/>
<path d="M4245 3774 c-203 -31 -324 -149 -325 -316 0 -206 176 -361 362 -318
99 23 189 89 255 188 45 69 113 243 113 292 0 44 -30 94 -67 114 -53 27 -261
51 -338 40z m15 -314 c0 -13 -48 -36 -56 -27 -4 4 -1 13 6 22 14 17 50 20 50
5z"/>
<path d="M3385 3372 c-47 -29 -87 -81 -138 -179 -37 -71 -47 -102 -47 -138 0
-101 71 -155 207 -158 86 -2 122 11 168 61 64 68 99 203 76 290 -14 51 -64
110 -108 128 -46 20 -122 17 -158 -4z"/>
<path d="M4992 3179 c-70 -40 -170 -141 -214 -215 -106 -180 -91 -360 36 -439
45 -27 58 -30 130 -30 73 0 87 3 144 34 169 91 261 303 207 475 -32 101 -143
206 -219 206 -17 0 -55 -14 -84 -31z"/>
<path d="M3905 2591 c-56 -25 -111 -90 -129 -152 -21 -69 -21 -63 18 -216 18
-73 31 -133 27 -133 -3 0 -28 7 -55 15 -161 49 -300 -31 -342 -196 -21 -81
-12 -150 36 -286 21 -60 65 -185 97 -279 69 -194 71 -199 110 -236 64 -62 168
-74 254 -30 83 42 128 127 115 220 -6 41 -5 43 17 36 80 -27 222 20 290 95
121 134 122 261 6 601 -39 113 -91 264 -115 336 -50 145 -83 195 -148 225 -52
24 -130 24 -181 0z"/>
<path d="M2040 2334 c-30 -8 -72 -26 -92 -40 -84 -59 -222 -223 -270 -324 -12
-25 -39 -67 -60 -94 -48 -60 -109 -188 -147 -304 -92 -282 -69 -597 58 -812
113 -190 353 -360 576 -410 123 -27 294 -27 400 0 158 40 331 149 436 272 29
35 74 86 100 113 169 179 339 609 339 859 0 235 -116 401 -297 424 -119 15
-267 -25 -477 -129 -103 -52 -115 -52 -116 -4 -1 32 -84 239 -121 301 -42 70
-114 129 -181 149 -62 18 -77 18 -148 -1z m65 -511 c9 -20 22 -80 30 -132 25
-164 45 -207 124 -266 114 -83 155 -84 299 -8 273 144 404 204 417 191 8 -8
-46 -219 -86 -334 -61 -177 -109 -263 -212 -377 -75 -81 -101 -103 -161 -132
-201 -96 -416 -56 -582 109 -81 82 -106 134 -124 265 -22 160 39 400 126 502
8 9 22 31 32 50 16 33 112 169 119 169 1 0 10 -17 18 -37z"/>
</g>
</svg>
