<?xml version="1.0" standalone="no"?>
<!DOCTYPE svg PUBLIC "-//W3C//DTD SVG 20010904//EN"
 "http://www.w3.org/TR/2001/REC-SVG-20010904/DTD/svg10.dtd">
<svg version="1.0" xmlns="http://www.w3.org/2000/svg"
 width="600.000000pt" height="600.000000pt" viewBox="0 0 600.000000 600.000000"
 preserveAspectRatio="xMidYMid meet">
<metadata>
Created by potrace 1.15, written by Peter Selinger 2001-2017
</metadata>
<g transform="translate(0.000000,600.000000) scale(0.100000,-0.100000)"
fill="#16364b" stroke="none">
<path d="M2161 5788 c-22 -18 -140 -123 -263 -234 -359 -324 -428 -407 -428
-521 0 -139 95 -205 262 -183 157 20 306 71 623 211 203 89 238 115 250 188 9
52 -20 119 -66 152 -26 18 -47 24 -89 24 -47 0 -80 -11 -218 -74 -90 -40 -165
-71 -168 -69 -2 3 49 54 113 114 204 188 221 206 228 247 12 61 -1 101 -45
141 -36 33 -45 36 -99 36 -52 0 -64 -4 -100 -32z"/>
<path d="M3085 5685 c-76 -26 -116 -106 -95 -187 18 -64 53 -89 161 -117 192
-50 317 -139 354 -252 27 -80 17 -199 -21 -268 -44 -81 -95 -118 -266 -190
-58 -24 -83 -61 -83 -122 0 -81 66 -142 150 -141 86 2 255 84 343 166 56 52
119 148 153 232 26 64 33 97 37 176 6 125 -9 200 -62 313 -88 187 -231 295
-486 368 -122 35 -140 37 -185 22z"/>
<path d="M985 5321 c-173 -63 -301 -185 -345 -329 -24 -77 -29 -212 -10 -283
30 -113 114 -223 226 -296 52 -34 66 -38 121 -38 66 0 98 16 137 68 24 33 26
105 3 141 -9 14 -48 50 -86 80 -103 82 -133 161 -94 243 16 35 69 75 181 135
58 31 84 77 84 151 0 110 -101 171 -217 128z"/>
<path d="M2761 4964 c-126 -33 -249 -132 -303 -242 -29 -58 -33 -76 -33 -147
0 -70 4 -89 32 -146 57 -115 171 -205 306 -241 161 -43 267 19 267 157 0 41
-5 52 -38 85 -30 30 -48 40 -87 45 -79 11 -120 24 -149 46 -59 46 -13 143 81
169 89 25 143 100 123 171 -27 92 -99 129 -199 103z"/>
<path d="M4785 4932 c-52 -32 -94 -81 -105 -123 -8 -29 -8 -71 -1 -142 16
-158 63 -274 149 -368 68 -75 129 -104 212 -104 76 1 127 23 183 81 60 63 81
116 81 214 1 118 -34 192 -142 300 -133 133 -293 193 -377 142z"/>
<path d="M1810 4476 c-93 -26 -179 -92 -227 -173 -21 -37 -25 -53 -21 -102 5
-73 33 -114 93 -136 62 -24 106 -14 164 39 25 23 57 50 71 59 27 19 95 23 105
6 4 -6 25 -24 47 -40 79 -56 192 -30 232 54 35 76 14 165 -51 213 -112 83
-283 116 -413 80z"/>
<path d="M2707 3868 c-79 -22 -137 -115 -123 -197 12 -74 81 -131 159 -131
l49 0 -4 -54 c-8 -100 -93 -250 -254 -448 -75 -92 -86 -129 -58 -196 26 -62
71 -92 138 -92 65 0 87 15 167 115 233 290 311 448 313 635 1 78 -3 106 -23
158 -28 74 -103 162 -165 194 -47 24 -143 32 -199 16z"/>
<path d="M4268 3789 c-128 -17 -239 -74 -296 -153 -87 -121 -71 -287 39 -397
53 -53 117 -81 199 -87 83 -6 133 8 208 58 81 54 152 144 217 273 62 122 70
175 36 231 -29 46 -66 63 -166 75 -101 12 -141 12 -237 0z m13 -320 c-26 -21
-65 -26 -59 -7 4 12 70 38 78 31 3 -3 -6 -13 -19 -24z"/>
<path d="M1105 3761 c-89 -24 -171 -55 -212 -81 -43 -26 -73 -87 -73 -149 0
-63 13 -97 53 -139 49 -51 84 -66 160 -66 37 0 67 -2 67 -4 0 -8 -78 -144
-180 -312 -114 -188 -153 -277 -220 -493 -32 -106 -41 -149 -37 -182 9 -89 91
-154 192 -155 99 0 126 17 320 201 49 47 122 114 160 148 39 35 147 142 241
239 l172 177 -5 -50 c-23 -239 -172 -730 -315 -1037 -35 -75 -40 -94 -36 -136
6 -60 35 -103 84 -127 71 -34 149 -4 181 70 10 22 56 123 101 225 151 335 202
493 257 800 39 212 43 246 44 340 2 203 -63 300 -201 300 -103 0 -190 -56
-387 -249 -62 -62 -115 -110 -117 -109 -1 2 37 82 86 178 128 254 147 323 119
433 -15 59 -70 131 -126 164 -43 25 -58 28 -153 30 -78 2 -123 -2 -175 -16z"/>
<path d="M3543 3369 c-136 -25 -239 -154 -274 -343 -28 -152 53 -226 231 -213
150 12 259 69 312 163 75 135 27 305 -104 367 -62 29 -107 37 -165 26z"/>
<path d="M4869 2802 c-29 -13 -64 -47 -125 -122 -116 -144 -156 -215 -174
-311 -36 -188 154 -310 338 -218 104 51 194 169 221 290 13 56 14 154 1 198
-9 33 -105 137 -147 159 -23 13 -88 15 -114 4z"/>
<path d="M4205 2467 c-76 -30 -127 -79 -151 -145 -18 -52 -17 -83 8 -199 12
-57 18 -106 15 -110 -4 -3 -37 8 -74 25 -38 17 -96 36 -130 42 -150 26 -278
-55 -362 -230 l-36 -75 1 -155 c1 -145 3 -164 38 -295 20 -76 48 -158 61 -181
29 -50 82 -96 144 -125 98 -46 226 -7 278 85 35 63 36 109 8 241 -14 65 -25
129 -23 142 3 23 3 23 35 6 17 -10 53 -31 78 -47 68 -42 124 -45 224 -11 111
37 170 84 213 172 l33 68 -1 180 c0 151 -4 204 -27 328 -29 158 -39 186 -84
231 -59 60 -170 83 -248 53z"/>
<path d="M2940 2313 c-61 -11 -172 -48 -269 -90 -141 -59 -352 -170 -373 -195
-16 -18 -22 -19 -67 -9 -93 20 -181 -9 -276 -89 -83 -71 -100 -102 -100 -181
0 -59 4 -73 30 -110 37 -52 93 -82 165 -89 l54 -5 23 -95 c12 -52 22 -98 23
-101 0 -3 -24 -15 -54 -28 -29 -12 -81 -47 -114 -77 -78 -70 -119 -150 -131
-254 -17 -150 19 -268 127 -426 112 -164 227 -259 381 -314 239 -87 398 -77
626 37 191 96 240 146 240 243 0 47 -5 63 -28 93 -42 55 -99 81 -177 81 -59 0
-76 -6 -179 -57 -99 -49 -122 -57 -171 -57 -142 0 -288 92 -380 239 -25 40
-34 66 -34 100 -1 42 1 46 24 49 16 2 42 -8 65 -24 88 -59 183 -104 223 -104
104 0 192 91 192 199 0 41 -37 104 -84 143 -80 68 -141 190 -191 387 -30 120
-30 121 -5 121 11 0 113 47 227 104 219 110 263 128 263 105 0 -19 -65 -229
-97 -314 -14 -38 -46 -110 -71 -160 -38 -74 -46 -100 -46 -145 0 -131 97 -210
227 -186 55 10 111 70 161 171 93 189 219 542 236 662 22 162 -38 289 -170
359 -27 14 -60 19 -140 20 -58 1 -116 0 -130 -3z"/>
</g>
</svg>
