<?xml version="1.0" standalone="no"?>
<!DOCTYPE svg PUBLIC "-//W3C//DTD SVG 20010904//EN"
 "http://www.w3.org/TR/2001/REC-SVG-20010904/DTD/svg10.dtd">
<svg version="1.0" xmlns="http://www.w3.org/2000/svg"
 width="600.000000pt" height="600.000000pt" viewBox="0 0 600.000000 600.000000"
 preserveAspectRatio="xMidYMid meet">
<metadata>
Created by potrace 1.15, written by Peter Selinger 2001-2017
</metadata>
<g transform="translate(0.000000,600.000000) scale(0.100000,-0.100000)"
fill="#16364b" stroke="none">
<path d="M2075 5809 c-45 -23 -108 -94 -345 -384 -183 -225 -223 -282 -240
-345 -21 -78 4 -160 61 -201 101 -71 232 -34 681 192 282 143 293 153 293 258
0 54 -4 72 -24 98 -26 34 -84 63 -128 63 -14 0 -86 -32 -160 -71 -74 -39 -136
-69 -138 -67 -2 2 42 58 99 124 115 136 131 165 123 230 -11 101 -124 154
-222 103z"/>
<path d="M3035 5670 c-59 -39 -80 -111 -49 -175 23 -49 41 -62 152 -104 165
-62 285 -146 337 -235 49 -85 70 -229 40 -285 -23 -45 -87 -94 -157 -120 -34
-14 -77 -30 -94 -37 -48 -18 -86 -74 -86 -128 -1 -62 27 -106 86 -135 45 -22
53 -24 102 -13 122 25 255 96 344 182 100 97 136 201 126 365 -11 188 -56 298
-170 411 -106 106 -259 199 -438 265 -93 34 -151 37 -193 9z"/>
<path d="M940 5338 c-210 -88 -321 -209 -351 -380 -23 -141 31 -297 145 -413
105 -106 180 -143 251 -124 81 23 126 99 105 178 -8 29 -28 55 -84 105 -88 78
-110 119 -104 188 7 71 60 118 178 157 124 41 167 204 76 289 -49 44 -111 44
-216 0z"/>
<path d="M2797 4990 c-98 -25 -184 -97 -233 -196 -26 -53 -29 -69 -29 -154 0
-79 4 -103 23 -141 28 -58 93 -124 152 -154 92 -47 225 -58 297 -26 93 43 103
172 19 250 -21 19 -41 25 -106 31 -88 8 -103 16 -98 51 3 21 10 25 53 29 62 7
87 20 121 66 39 51 44 126 12 174 -40 59 -131 89 -211 70z"/>
<path d="M4763 4920 c-36 -21 -60 -54 -72 -96 -10 -34 13 -269 34 -362 33
-139 104 -235 202 -272 148 -55 295 5 361 148 33 73 29 200 -9 282 -53 112
-145 197 -294 271 -113 56 -167 63 -222 29z"/>
<path d="M1896 4565 c-118 -30 -247 -133 -261 -208 -24 -125 107 -228 218
-170 18 9 48 29 67 44 57 45 84 47 120 8 16 -19 30 -36 30 -39 0 -15 81 -50
114 -50 83 0 156 72 156 152 0 44 -47 124 -105 177 -93 85 -216 117 -339 86z"/>
<path d="M2894 3900 c-142 -71 -189 -218 -182 -575 3 -208 10 -233 71 -279 39
-29 125 -29 163 0 66 49 68 57 76 277 7 242 19 296 76 353 88 88 70 192 -40
239 -55 22 -98 19 -164 -15z"/>
<path d="M1139 3840 c-195 -41 -247 -66 -286 -139 -45 -86 -20 -193 59 -247
36 -26 50 -29 115 -29 40 0 73 -1 73 -3 0 -2 -34 -56 -75 -119 -90 -139 -165
-284 -275 -533 -129 -289 -138 -326 -101 -398 36 -70 102 -112 176 -112 59 0
94 18 180 95 39 35 147 125 241 201 140 114 311 259 483 408 l24 21 -7 -66
c-15 -158 -145 -506 -346 -927 -77 -161 -82 -176 -78 -223 12 -119 137 -188
229 -127 59 40 238 412 374 778 120 325 145 424 145 585 0 168 -40 278 -120
331 -120 80 -221 42 -475 -177 -64 -55 -118 -99 -120 -97 -2 1 28 55 67 118
165 270 202 415 139 537 -64 127 -208 169 -422 123z"/>
<path d="M4220 3781 c-209 -44 -309 -145 -310 -311 0 -91 29 -162 93 -228 65
-68 128 -96 212 -97 184 0 320 131 435 421 23 57 29 84 24 111 -8 43 -48 92
-91 109 -48 20 -257 17 -363 -5z m48 -293 c-2 -6 -16 -21 -31 -32 -20 -15 -30
-17 -38 -9 -9 9 -3 17 22 32 39 24 52 26 47 9z"/>
<path d="M3503 3389 c-56 -10 -91 -30 -134 -76 -49 -52 -73 -95 -103 -185 -44
-129 -32 -199 41 -255 33 -25 46 -28 127 -31 113 -4 182 18 255 84 147 132
134 350 -25 435 -57 31 -103 39 -161 28z"/>
<path d="M4905 2916 c-40 -19 -193 -176 -243 -251 -63 -95 -91 -203 -72 -275
17 -64 92 -134 166 -156 150 -43 303 33 377 189 54 115 71 283 35 351 -20 37
-105 124 -138 141 -36 18 -85 19 -125 1z"/>
<path d="M4092 2502 c-63 -23 -108 -62 -133 -117 -29 -64 -24 -114 26 -242 25
-64 44 -117 42 -119 -1 -2 -39 9 -82 23 -66 21 -101 26 -195 27 -100 1 -120
-2 -155 -21 -51 -27 -97 -76 -127 -133 -21 -41 -23 -57 -22 -180 0 -138 18
-236 94 -518 37 -136 117 -206 235 -205 116 0 211 75 236 187 10 45 8 70 -10
172 -11 65 -21 125 -21 132 0 21 19 13 47 -19 72 -81 169 -105 276 -70 95 32
149 77 189 158 l33 68 0 160 c0 181 -10 237 -80 447 -53 160 -78 198 -147 232
-74 35 -140 41 -206 18z"/>
<path d="M2963 2220 c-77 -16 -397 -141 -506 -198 -59 -30 -108 -53 -110 -51
-61 89 -108 119 -185 119 -91 0 -139 -24 -233 -120 -96 -97 -129 -154 -129
-221 1 -103 70 -180 170 -187 55 -4 58 -6 64 -34 12 -61 8 -76 -23 -83 -47
-10 -165 -99 -205 -153 -67 -91 -90 -156 -94 -263 -3 -71 0 -112 13 -155 68
-236 302 -477 575 -595 268 -115 522 -86 747 86 118 90 160 169 134 255 -17
56 -80 124 -129 138 -85 26 -120 15 -226 -72 -80 -65 -137 -88 -221 -89 -167
-2 -347 103 -437 255 -34 57 -42 80 -45 136 -5 59 -3 69 15 86 31 27 63 11
151 -74 41 -40 89 -79 107 -86 83 -35 186 -2 234 73 63 99 50 173 -50 278 -75
79 -97 116 -130 221 -25 78 -22 104 11 104 22 0 235 94 401 176 48 24 93 44
99 44 29 0 -85 -336 -158 -465 -52 -91 -57 -106 -57 -162 -1 -53 3 -67 29
-104 72 -102 194 -123 280 -48 106 93 305 652 305 856 0 199 -112 331 -287
339 -37 2 -87 -1 -110 -6z"/>
</g>
</svg>
