<?xml version="1.0" standalone="no"?>
<!DOCTYPE svg PUBLIC "-//W3C//DTD SVG 20010904//EN"
 "http://www.w3.org/TR/2001/REC-SVG-20010904/DTD/svg10.dtd">
<svg version="1.0" xmlns="http://www.w3.org/2000/svg"
 width="600.000000pt" height="600.000000pt" viewBox="0 0 600.000000 600.000000"
 preserveAspectRatio="xMidYMid meet">
<metadata>
Created by potrace 1.15, written by Peter Selinger 2001-2017
</metadata>
<g transform="translate(0.000000,600.000000) scale(0.100000,-0.100000)"
fill="#16364b" stroke="none">
<path d="M1551 5788 c-36 -24 -73 -85 -196 -326 -68 -132 -85 -197 -66 -255
28 -84 118 -110 213 -64 57 28 399 305 425 343 35 54 8 140 -52 168 -52 25
-82 14 -169 -60 -42 -36 -76 -63 -76 -60 0 3 16 34 35 69 44 80 46 125 8 167
-38 42 -79 48 -122 18z"/>
<path d="M2398 5462 c-15 -2 -40 -18 -57 -38 l-31 -34 1 -173 c2 -371 -68
-538 -272 -647 -93 -50 -114 -80 -106 -144 8 -55 61 -106 112 -106 68 0 215
87 284 167 76 89 164 296 196 464 16 88 20 343 6 418 -13 67 -63 102 -133 93z"/>
<path d="M3530 5337 c-32 -16 -65 -82 -63 -130 3 -129 194 -337 310 -337 101
0 150 94 103 197 -55 122 -154 228 -244 262 -66 24 -72 25 -106 8z"/>
<path d="M2962 5119 c-44 -22 -96 -79 -128 -139 -13 -25 -19 -57 -19 -115 0
-93 20 -132 85 -165 75 -38 216 -16 290 47 41 34 64 115 58 205 -6 73 -30 116
-91 162 -41 31 -140 33 -195 5z"/>
<path d="M4749 4747 c-44 -29 -58 -71 -58 -177 -2 -316 119 -520 309 -520 131
0 229 100 238 244 5 91 -19 158 -87 242 -48 59 -203 185 -268 218 -45 22 -94
20 -134 -7z m236 -397 c17 -33 18 -40 7 -40 -9 0 -32 44 -32 60 0 18 9 10 25
-20z"/>
<path d="M2704 4226 c-153 -35 -247 -134 -247 -261 0 -221 271 -324 521 -197
68 34 170 118 205 169 49 70 31 174 -38 219 -37 24 -222 71 -307 78 -46 3 -96
0 -134 -8z"/>
<path d="M1065 4091 c-50 -23 -75 -65 -75 -127 0 -35 6 -56 24 -79 28 -37 52
-47 155 -70 105 -23 147 -41 132 -59 -19 -23 -120 -55 -263 -85 -75 -15 -148
-35 -163 -45 -31 -21 -55 -72 -55 -118 0 -69 70 -138 141 -138 105 0 344 60
437 111 62 33 148 114 180 167 23 41 27 58 27 129 0 74 -3 85 -30 125 -56 79
-181 142 -381 193 -77 19 -80 19 -129 -4z"/>
<path d="M4283 3780 c-29 -4 -81 -21 -117 -38 -188 -88 -261 -266 -178 -435
33 -66 72 -106 142 -143 26 -14 56 -18 120 -18 103 0 160 25 232 102 76 81
109 167 123 319 14 150 -38 203 -210 217 -33 2 -83 1 -112 -4z m3 -327 c-31
-27 -46 -29 -46 -8 0 20 63 59 69 43 2 -6 -8 -22 -23 -35z"/>
<path d="M1719 3727 c-100 -38 -138 -86 -160 -205 -28 -147 28 -276 149 -349
42 -25 56 -28 137 -28 81 0 94 3 132 27 81 53 129 158 120 259 -10 112 -88
233 -182 281 -50 26 -147 33 -196 15z"/>
<path d="M5197 3609 c-113 -18 -242 -104 -290 -194 -18 -33 -22 -57 -22 -135
0 -81 4 -103 26 -150 36 -76 80 -124 145 -156 48 -24 63 -26 128 -22 133 9
236 81 294 206 21 46 26 72 27 137 0 101 -22 150 -106 231 -85 84 -117 97
-202 83z m13 -328 c-12 -23 -29 -35 -37 -27 -7 7 26 46 39 46 5 0 4 -9 -2 -19z"/>
<path d="M3422 3373 c-19 -9 -49 -37 -68 -62 -51 -66 -124 -217 -124 -256 0
-55 64 -115 124 -115 44 0 136 41 172 76 42 43 78 113 92 180 18 82 -6 142
-68 174 -47 24 -84 25 -128 3z"/>
<path d="M2620 3363 c-48 -10 -173 -64 -228 -100 -79 -50 -154 -130 -241 -257
-41 -59 -95 -125 -120 -147 -25 -22 -113 -73 -194 -115 -205 -106 -295 -173
-382 -285 -141 -181 -225 -468 -198 -672 25 -185 110 -335 297 -526 268 -272
406 -345 661 -345 267 0 521 113 747 332 53 51 123 131 156 178 65 91 155 259
195 364 14 36 43 100 65 143 94 182 82 317 -61 712 -29 83 -71 183 -91 224
-21 41 -40 90 -42 110 -7 55 -13 71 -61 145 -58 89 -139 166 -221 207 -60 31
-74 34 -161 36 -53 0 -107 -1 -121 -4z m128 -423 c8 -24 28 -67 44 -94 50 -85
116 -221 154 -318 85 -218 96 -254 101 -331 6 -73 4 -80 -24 -126 -17 -27 -36
-66 -43 -87 -17 -52 -79 -177 -123 -245 -80 -125 -197 -233 -358 -330 -109
-65 -196 -93 -285 -92 -92 1 -155 28 -259 112 -252 203 -296 265 -303 426 -5
116 9 185 60 286 60 120 145 200 289 274 224 114 311 187 453 378 46 62 94
122 107 134 35 32 110 63 143 61 25 -3 32 -10 44 -48z"/>
<path d="M394 2281 c-46 -28 -60 -70 -45 -139 37 -172 121 -366 206 -474 151
-192 359 -244 482 -122 32 33 43 52 48 88 20 130 -82 302 -260 441 -108 85
-342 225 -375 225 -14 0 -39 -9 -56 -19z m368 -448 c101 -107 121 -165 26 -75
-52 49 -109 132 -90 132 5 0 34 -26 64 -57z"/>
<path d="M4185 1959 c-43 -12 -93 -64 -105 -109 -25 -92 66 -480 136 -582 49
-70 114 -92 189 -64 86 33 146 134 195 329 36 142 55 273 46 320 -20 109 -195
157 -266 72 -11 -14 -15 -14 -29 -1 -23 21 -86 46 -113 45 -13 0 -37 -5 -53
-10z"/>
</g>
</svg>
