<?xml version="1.0" standalone="no"?>
<!DOCTYPE svg PUBLIC "-//W3C//DTD SVG 20010904//EN"
 "http://www.w3.org/TR/2001/REC-SVG-20010904/DTD/svg10.dtd">
<svg version="1.0" xmlns="http://www.w3.org/2000/svg"
 width="600.000000pt" height="600.000000pt" viewBox="0 0 600.000000 600.000000"
 preserveAspectRatio="xMidYMid meet">
<metadata>
Created by potrace 1.15, written by Peter Selinger 2001-2017
</metadata>
<g transform="translate(0.000000,600.000000) scale(0.100000,-0.100000)"
fill="#16364b" stroke="none">
<path d="M2053 5152 c-74 -26 -127 -64 -163 -117 -50 -73 -62 -121 -56 -222 3
-48 9 -209 14 -358 6 -148 16 -333 22 -409 11 -112 11 -179 0 -341 -9 -159
-10 -259 0 -476 6 -151 10 -337 8 -414 l-3 -140 -50 -33 c-73 -48 -272 -169
-414 -251 -113 -66 -125 -71 -141 -56 -30 27 -64 9 -39 -21 17 -20 7 -26 -25
-14 -65 24 -89 -2 -39 -44 l27 -23 -37 -12 c-57 -19 -44 -51 21 -51 l25 0 -22
-24 c-23 -25 -21 -46 4 -46 23 0 165 68 165 79 0 6 5 11 10 11 10 0 329 190
443 263 31 21 57 34 57 30 -1 -153 11 -474 19 -518 82 -428 247 -634 577 -720
l89 -23 -5 -39 c-3 -21 -5 -99 -5 -173 0 -154 14 -232 75 -423 22 -69 40 -127
40 -131 0 -3 -41 -6 -91 -6 -90 0 -91 0 -125 -34 -39 -39 -44 -75 -15 -122 53
-88 258 -80 342 12 28 31 49 82 49 120 0 13 -20 86 -44 162 -71 221 -92 376
-72 538 11 89 11 89 98 75 93 -16 344 -18 667 -7 l253 9 -8 -44 c-5 -24 -9
-107 -9 -184 1 -162 19 -263 71 -399 19 -48 34 -94 34 -101 0 -8 -28 -14 -91
-19 -97 -7 -138 -22 -163 -58 -40 -56 1 -129 82 -147 102 -21 262 29 313 100
39 55 36 102 -14 256 -69 211 -95 431 -66 548 11 43 13 44 58 51 113 16 371
65 421 81 167 52 308 228 361 450 19 78 21 108 16 263 -4 133 -10 194 -26 253
-54 203 -161 363 -341 509 l-45 37 155 0 c85 0 214 -4 285 -9 110 -7 140 -6
194 8 66 18 87 37 56 54 -13 8 -14 12 -5 18 9 5 10 14 5 26 -9 20 -12 30 -14
52 -1 9 -14 11 -50 6 -46 -6 -50 -5 -53 17 -4 32 -26 35 -39 5 -12 -26 -13
-26 -128 -26 -64 0 -233 5 -375 10 l-259 9 -56 46 c-163 134 -366 275 -572
400 -127 77 -266 168 -308 201 -141 111 -300 326 -406 546 -43 89 -65 156
-106 313 -92 360 -139 480 -229 578 -94 103 -228 141 -347 99z m195 -168 c53
-31 104 -106 138 -203 14 -42 34 -96 44 -121 10 -25 30 -105 45 -178 52 -261
124 -438 260 -642 153 -230 256 -321 597 -529 183 -112 359 -238 553 -395 55
-45 170 -134 255 -197 237 -178 325 -282 384 -459 27 -81 46 -226 46 -342 -1
-204 -93 -394 -226 -465 -45 -24 -104 -40 -244 -68 l-185 -37 -430 -10 c-288
-6 -465 -6 -535 1 -193 19 -424 50 -477 64 -214 60 -345 203 -409 452 -54 207
-62 357 -39 745 16 273 17 321 4 489 -8 109 -14 346 -15 576 -2 542 -12 1020
-24 1084 -15 82 -12 130 10 177 45 92 148 116 248 58z"/>
<path d="M2644 2767 c-21 -19 -26 -29 -20 -50 14 -57 83 -88 112 -49 50 65
-30 152 -92 99z"/>
<path d="M3100 2660 c-27 -27 -25 -54 7 -85 34 -31 67 -32 87 -3 49 70 -34
148 -94 88z"/>
<path d="M2940 1771 c-15 -28 -13 -38 13 -61 18 -17 30 -20 62 -15 47 7 65 20
65 49 0 34 -20 46 -77 46 -41 0 -54 -4 -63 -19z"/>
<path d="M5225 3970 c-184 -59 -256 -268 -159 -461 48 -96 116 -150 216 -170
137 -28 329 74 395 208 22 45 27 71 28 127 0 122 -64 219 -189 285 -53 28 -67
31 -145 30 -56 0 -107 -7 -146 -19z m180 -292 c11 -10 -28 -48 -50 -48 -15 0
-38 48 -29 61 7 11 64 2 79 -13z"/>
</g>
</svg>
