<?xml version="1.0" standalone="no"?>
<!DOCTYPE svg PUBLIC "-//W3C//DTD SVG 20010904//EN"
 "http://www.w3.org/TR/2001/REC-SVG-20010904/DTD/svg10.dtd">
<svg version="1.0" xmlns="http://www.w3.org/2000/svg"
 width="600.000000pt" height="600.000000pt" viewBox="0 0 600.000000 600.000000"
 preserveAspectRatio="xMidYMid meet">
<metadata>
Created by potrace 1.15, written by Peter Selinger 2001-2017
</metadata>
<g transform="translate(0.000000,600.000000) scale(0.100000,-0.100000)"
fill="#16364b" stroke="none">
<path d="M2155 5811 c-22 -10 -56 -35 -75 -56 -19 -20 -115 -109 -213 -197
-344 -309 -442 -460 -379 -585 55 -108 155 -134 322 -86 169 49 669 278 719
330 31 33 33 38 29 94 -4 51 -9 64 -38 94 -39 40 -89 59 -134 52 -17 -3 -94
-34 -171 -70 -77 -36 -141 -64 -143 -63 -1 2 56 60 128 131 71 71 136 143 145
161 20 43 19 109 -2 145 -19 32 -85 69 -124 69 -13 0 -42 -9 -64 -19z"/>
<path d="M3064 5683 c-47 -23 -84 -87 -84 -145 0 -87 34 -127 125 -146 210
-45 341 -128 390 -246 8 -20 20 -70 26 -111 15 -107 -3 -166 -69 -228 -53 -49
-99 -75 -179 -101 -62 -20 -99 -56 -113 -105 -23 -87 50 -181 142 -181 67 0
219 60 309 120 106 73 172 166 204 291 25 93 16 258 -20 364 -51 153 -136 268
-263 354 -82 56 -150 85 -280 121 -118 34 -144 35 -188 13z"/>
<path d="M960 5341 c-108 -34 -233 -140 -282 -241 -64 -129 -74 -281 -28 -403
51 -134 190 -293 278 -316 94 -26 184 51 185 158 1 62 -23 103 -88 151 -58 43
-100 103 -110 160 -5 26 0 46 17 79 20 38 38 52 118 96 80 43 98 58 117 95 28
52 29 91 3 147 -25 56 -70 83 -135 82 -27 0 -61 -4 -75 -8z"/>
<path d="M2693 4963 c-103 -36 -197 -165 -212 -290 -19 -163 47 -306 171 -369
110 -56 273 -72 336 -34 68 42 90 125 53 199 -27 52 -61 71 -145 82 -39 6 -82
18 -96 28 -30 22 -37 64 -15 97 12 19 24 24 59 24 83 0 156 80 142 155 -8 43
-50 94 -93 111 -42 18 -146 17 -200 -3z"/>
<path d="M4811 4930 c-40 -17 -101 -70 -118 -104 -23 -44 -20 -216 6 -318 50
-194 170 -319 323 -335 105 -11 220 53 269 148 70 138 23 332 -113 468 -110
109 -283 176 -367 141z"/>
<path d="M1867 4536 c-110 -32 -244 -144 -268 -224 -10 -35 -9 -48 5 -86 42
-110 167 -140 254 -62 42 38 93 66 119 66 9 0 38 -20 63 -44 77 -75 161 -80
228 -12 31 31 36 42 40 95 4 51 1 67 -21 104 -33 56 -92 109 -159 143 -64 33
-184 42 -261 20z"/>
<path d="M2816 3906 c-109 -41 -149 -163 -79 -246 24 -29 25 -35 19 -106 -9
-101 -47 -226 -109 -364 -37 -83 -52 -127 -51 -156 3 -136 167 -194 260 -92
26 28 107 188 141 278 48 127 76 267 77 380 0 118 -11 165 -52 231 -46 71
-131 102 -206 75z"/>
<path d="M1065 3805 c-60 -18 -123 -38 -140 -45 -50 -19 -94 -70 -111 -127
-42 -143 62 -268 207 -249 27 4 49 5 49 2 0 -2 -21 -40 -46 -83 -80 -133 -129
-240 -229 -493 -150 -378 -152 -386 -116 -465 38 -85 121 -125 216 -105 58 12
79 28 240 179 44 42 112 105 150 142 58 54 189 167 411 352 l34 29 0 -49 c0
-54 -26 -169 -63 -283 -46 -141 -168 -459 -228 -597 -85 -194 -91 -212 -83
-257 13 -78 105 -146 179 -132 92 18 133 95 350 651 109 282 124 326 161 505
26 129 27 140 17 255 -14 154 -38 220 -99 274 -82 72 -184 75 -287 9 -26 -17
-114 -93 -195 -169 -81 -76 -150 -139 -154 -139 -3 0 19 46 49 103 127 232
173 358 173 471 -1 112 -51 195 -145 237 -68 32 -206 25 -340 -16z"/>
<path d="M4268 3800 c-173 -31 -300 -125 -351 -258 -21 -53 -22 -170 -2 -218
52 -126 189 -197 332 -174 168 27 290 139 399 368 56 119 60 173 13 226 -17
20 -47 40 -67 46 -50 14 -266 21 -324 10z m-13 -335 c-33 -28 -55 -32 -55 -12
0 16 36 35 65 36 17 0 16 -3 -10 -24z"/>
<path d="M3518 3399 c-115 -27 -208 -143 -258 -320 -25 -90 -25 -113 0 -166
35 -77 126 -106 262 -84 173 28 263 128 263 291 0 192 -117 314 -267 279z"/>
<path d="M4882 2865 c-60 -26 -187 -176 -243 -288 -89 -174 -70 -325 49 -394
153 -90 383 49 452 274 23 74 27 215 7 249 -31 53 -125 146 -163 159 -49 18
-61 18 -102 0z"/>
<path d="M4130 2471 c-20 -11 -48 -32 -64 -47 -70 -71 -78 -135 -38 -302 17
-73 25 -121 18 -118 -130 60 -185 76 -256 76 -92 0 -157 -27 -218 -91 -76 -78
-109 -186 -97 -313 13 -134 95 -539 118 -581 49 -88 164 -128 262 -91 52 20
128 99 145 152 14 42 9 129 -14 233 -9 41 -16 83 -14 94 3 18 8 16 53 -18 87
-67 149 -75 285 -38 106 29 178 85 228 178 25 47 27 57 26 180 0 122 -4 143
-53 345 -29 118 -59 226 -66 240 -20 39 -66 81 -110 101 -54 25 -158 25 -205
0z"/>
<path d="M2848 2241 c-101 -28 -165 -55 -358 -151 l-175 -87 -50 26 c-69 36
-159 35 -231 -2 -61 -31 -160 -135 -187 -196 -53 -120 32 -256 167 -266 40 -3
41 -4 48 -46 4 -24 10 -58 13 -74 5 -28 2 -32 -28 -43 -100 -36 -181 -126
-219 -243 -16 -50 -21 -92 -21 -194 -1 -116 2 -138 25 -203 85 -235 296 -436
552 -525 84 -29 101 -32 216 -31 106 1 138 5 215 28 184 56 350 157 381 232
24 58 18 132 -16 191 -38 66 -86 93 -164 93 -49 0 -62 -5 -145 -61 -51 -33
-107 -67 -126 -75 -138 -57 -355 9 -479 147 -65 72 -98 145 -94 205 3 42 6 49
26 52 25 4 75 -24 142 -79 66 -54 102 -69 165 -69 117 0 195 76 195 190 0 61
-22 108 -80 170 -23 25 -53 64 -66 86 -31 53 -77 180 -97 267 l-15 67 26 6
c35 7 196 73 342 140 63 29 128 56 144 60 28 7 29 6 22 -29 -16 -86 -73 -234
-149 -387 -74 -148 -82 -171 -81 -220 1 -104 62 -171 164 -178 47 -3 69 0 106
18 56 27 93 81 182 262 121 247 197 498 189 628 -7 128 -72 221 -192 277 -52
24 -74 28 -170 30 -83 2 -126 -2 -177 -16z"/>
</g>
</svg>
