<?xml version="1.0" standalone="no"?>
<!DOCTYPE svg PUBLIC "-//W3C//DTD SVG 20010904//EN"
 "http://www.w3.org/TR/2001/REC-SVG-20010904/DTD/svg10.dtd">
<svg version="1.0" xmlns="http://www.w3.org/2000/svg"
 width="600.000000pt" height="600.000000pt" viewBox="0 0 600.000000 600.000000"
 preserveAspectRatio="xMidYMid meet">
<metadata>
Created by potrace 1.15, written by Peter Selinger 2001-2017
</metadata>
<g transform="translate(0.000000,600.000000) scale(0.100000,-0.100000)"
fill="#16364b" stroke="none">
<path d="M2370 5382 c-22 -18 -23 -24 -25 -218 -2 -166 -6 -213 -24 -284 -46
-179 -127 -299 -249 -367 -72 -40 -92 -69 -74 -108 22 -47 55 -50 132 -9 101
53 169 125 229 247 84 166 118 358 108 597 -5 113 -7 126 -27 142 -28 23 -42
23 -70 0z"/>
<path d="M3543 5280 c-23 -9 -53 -58 -53 -85 0 -30 62 -138 108 -187 78 -84
162 -111 213 -69 51 41 19 150 -78 260 -25 28 -57 58 -72 65 -37 20 -92 27
-118 16z"/>
<path d="M3000 5098 c-85 -44 -150 -165 -150 -279 0 -95 33 -138 106 -139 119
0 282 230 244 345 -28 83 -117 116 -200 73z m85 -108 c10 -16 -38 -111 -76
-150 l-34 -35 -3 32 c-7 68 87 195 113 153z"/>
<path d="M4764 4745 c-42 -29 -47 -63 -41 -263 11 -323 52 -427 169 -424 41 1
78 29 103 78 17 33 20 58 19 159 -1 100 -5 135 -28 209 -35 117 -89 231 -114
245 -29 15 -84 14 -108 -4z"/>
<path d="M2665 4206 c-61 -23 -95 -67 -95 -121 0 -64 46 -113 148 -156 71 -31
85 -33 187 -34 99 0 114 2 154 25 59 33 86 71 86 120 0 61 -29 83 -178 129
-148 47 -242 59 -302 37z"/>
<path d="M5226 3966 c-67 -29 -116 -71 -154 -136 -24 -41 -27 -55 -27 -145 0
-87 3 -107 26 -155 48 -103 124 -168 223 -190 133 -29 312 63 375 194 79 163
31 305 -141 412 -60 37 -68 39 -153 42 -77 2 -99 -1 -149 -22z m184 -296 c0
-14 -30 -40 -46 -40 -22 0 -42 49 -24 60 14 9 70 -7 70 -20z"/>
<path d="M4227 3770 c-97 -25 -191 -100 -228 -183 -31 -69 -33 -184 -4 -242
51 -104 156 -160 285 -153 123 7 199 58 257 172 49 97 40 265 -19 331 -55 63
-194 99 -291 75z m73 -268 c0 -10 -5 -23 -12 -30 -15 -15 -48 -16 -48 -2 0 6
9 19 20 30 25 25 40 26 40 2z"/>
<path d="M1243 3700 c-145 -31 -246 -165 -229 -306 13 -112 76 -223 164 -291
24 -18 79 -44 125 -58 132 -42 164 -71 232 -210 62 -127 85 -212 191 -700 82
-379 116 -528 132 -576 46 -139 126 -225 279 -302 57 -28 103 -56 103 -63 0
-26 62 -83 108 -101 55 -21 207 -23 332 -4 41 6 120 12 175 13 112 1 163 -14
227 -71 47 -41 89 -42 129 -2 19 20 29 40 29 60 0 18 5 31 13 31 6 1 156 5
332 10 271 7 343 13 470 34 334 58 535 128 719 250 240 160 404 423 431 691
23 241 -114 546 -302 671 -83 55 -197 91 -335 105 -231 24 -350 -11 -538 -162
-222 -178 -319 -223 -565 -264 -192 -33 -403 16 -617 143 -140 83 -268 201
-505 467 -249 281 -332 362 -449 440 -199 134 -506 226 -651 195z m227 -320
c251 -83 331 -145 630 -485 260 -296 395 -416 610 -543 283 -167 524 -219 822
-177 268 38 390 94 633 290 145 117 197 139 330 140 138 0 191 -19 271 -99
144 -144 189 -345 117 -526 -112 -281 -391 -458 -863 -547 -83 -15 -156 -17
-570 -17 -847 0 -982 3 -1045 20 -132 34 -225 109 -276 222 -30 68 -75 232
-94 342 -46 257 -129 653 -161 758 -63 208 -156 374 -255 454 -55 44 -126 80
-204 103 -90 25 -153 81 -112 99 19 8 75 -3 167 -34z"/>
<path d="M2280 2397 c-51 -25 -24 -117 34 -117 64 1 88 98 30 120 -32 12 -34
12 -64 -3z"/>
<path d="M2847 2058 c-74 -25 -20 -132 59 -116 10 2 25 15 34 31 13 24 13 30
0 54 -18 31 -54 43 -93 31z"/>
<path d="M3458 3342 c-15 -10 -42 -38 -61 -63 -48 -63 -137 -219 -137 -242 0
-25 45 -67 72 -67 35 0 156 131 201 219 43 84 46 121 15 151 -27 25 -55 25
-90 2z"/>
<path d="M470 2000 c-11 -11 -20 -28 -20 -37 0 -27 138 -154 207 -190 33 -18
75 -33 92 -33 41 0 71 31 71 74 0 46 -62 102 -179 161 -99 49 -140 56 -171 25z"/>
<path d="M5333 1108 c-46 -22 -86 -154 -69 -222 10 -39 55 -76 94 -76 84 0
124 58 130 186 4 78 3 82 -23 103 -30 23 -94 28 -132 9z"/>
</g>
</svg>
