<?xml version="1.0" standalone="no"?>
<!DOCTYPE svg PUBLIC "-//W3C//DTD SVG 20010904//EN"
 "http://www.w3.org/TR/2001/REC-SVG-20010904/DTD/svg10.dtd">
<svg version="1.0" xmlns="http://www.w3.org/2000/svg"
 width="600.000000pt" height="600.000000pt" viewBox="0 0 600.000000 600.000000"
 preserveAspectRatio="xMidYMid meet">
<metadata>
Created by potrace 1.15, written by Peter Selinger 2001-2017
</metadata>
<g transform="translate(0.000000,600.000000) scale(0.100000,-0.100000)"
fill="#16364b" stroke="none">
<path d="M2378 5399 l-31 -30 6 -122 c10 -215 -15 -386 -74 -512 -33 -72 -110
-143 -206 -193 -88 -45 -103 -62 -103 -111 0 -41 31 -71 72 -71 57 0 195 77
269 150 142 140 207 380 197 734 -3 137 -4 138 -31 162 -37 32 -62 30 -99 -7z"/>
<path d="M3510 5278 c-11 -18 -20 -49 -20 -68 0 -52 62 -173 120 -235 59 -62
102 -85 158 -85 33 0 45 6 67 32 23 27 26 39 22 75 -10 87 -115 246 -192 290
-26 15 -57 23 -88 23 -43 0 -49 -3 -67 -32z"/>
<path d="M2993 5089 c-82 -41 -134 -127 -140 -234 -4 -58 -1 -76 16 -102 48
-76 143 -83 238 -17 132 91 159 288 50 354 -42 26 -111 26 -164 -1z m87 -134
c0 -17 -33 -80 -48 -91 -43 -33 -44 7 -1 59 27 33 49 47 49 32z"/>
<path d="M4782 4755 c-57 -25 -66 -63 -59 -255 8 -227 38 -342 110 -417 62
-66 149 -65 205 3 81 98 76 263 -12 449 -54 114 -126 209 -168 224 -38 13 -35
13 -76 -4z"/>
<path d="M2658 4210 c-95 -29 -143 -131 -104 -223 17 -43 77 -94 146 -125 106
-49 255 -30 370 47 80 53 100 118 57 182 -17 25 -38 39 -87 56 -180 64 -308
85 -382 63z"/>
<path d="M1110 4132 c-17 -18 -32 -47 -39 -80 -28 -134 -2 -215 89 -269 46
-28 63 -33 120 -33 53 0 72 5 103 25 99 68 87 199 -27 285 -68 51 -162 100
-193 100 -14 0 -37 -12 -53 -28z"/>
<path d="M5239 3957 c-95 -27 -165 -85 -215 -177 -15 -27 -19 -56 -19 -130 0
-86 3 -100 29 -148 38 -67 102 -127 173 -159 76 -35 191 -30 272 11 74 38 142
104 176 172 24 48 29 70 30 133 0 121 -45 193 -169 268 -56 35 -67 38 -146 40
-47 2 -106 -3 -131 -10z m126 -297 c23 -9 25 -13 14 -26 -27 -33 -47 -36 -65
-10 -26 41 -4 57 51 36z"/>
<path d="M4183 3751 c-134 -46 -228 -176 -228 -316 0 -117 57 -188 184 -230
73 -24 199 -17 259 14 109 56 166 148 178 286 11 143 -20 197 -140 241 -81 29
-178 31 -253 5z m112 -281 c-18 -20 -55 -28 -55 -11 0 5 12 19 27 31 34 26 56
11 28 -20z"/>
<path d="M3424 3334 c-42 -44 -154 -266 -154 -305 0 -16 9 -38 20 -49 48 -48
129 -5 202 107 81 124 101 218 55 261 -37 34 -83 29 -123 -14z"/>
<path d="M1030 3294 c-153 -33 -280 -126 -342 -251 -30 -62 -33 -75 -33 -163
1 -85 4 -102 32 -162 77 -163 228 -260 448 -288 237 -30 264 -39 334 -115 61
-66 91 -139 165 -395 79 -275 90 -307 132 -392 80 -164 190 -280 328 -348 122
-60 181 -70 511 -80 160 -5 410 -14 558 -21 209 -9 322 -9 518 0 566 27 790
75 1084 230 205 107 296 193 369 344 92 188 128 382 108 566 -51 454 -221 652
-650 758 -135 33 -319 37 -422 10 -197 -54 -334 -125 -525 -273 -187 -146
-210 -157 -341 -162 -124 -5 -194 11 -319 72 -85 42 -521 320 -720 460 -206
144 -303 176 -630 211 -179 19 -516 19 -605 -1z m555 -394 c61 -6 144 -17 185
-26 99 -21 248 -94 387 -191 133 -93 439 -292 532 -347 217 -128 479 -191 688
-166 165 20 264 66 481 225 151 110 221 148 342 186 64 21 96 24 215 24 136 0
142 -1 205 -31 140 -67 185 -121 221 -264 29 -115 23 -282 -14 -387 -47 -136
-107 -195 -292 -287 -181 -90 -407 -146 -673 -168 -114 -9 -214 -9 -447 1
-166 7 -449 13 -630 13 -353 -1 -424 6 -514 50 -127 62 -210 225 -321 638 -54
202 -107 315 -190 403 -137 147 -329 227 -547 227 -139 1 -225 51 -136 81 73
24 343 34 508 19z"/>
<path d="M475 2058 c-32 -17 -45 -39 -45 -75 0 -22 7 -37 20 -45 12 -7 35 -34
51 -60 57 -88 172 -168 242 -168 42 0 83 25 97 60 37 89 -72 198 -284 284 -45
19 -54 19 -81 4z"/>
<path d="M5330 1119 c-49 -15 -67 -34 -90 -96 -47 -126 -2 -223 103 -223 74 0
115 69 119 199 3 69 0 83 -17 100 -25 26 -70 33 -115 20z"/>
</g>
</svg>
