<?xml version="1.0" standalone="no"?>
<!DOCTYPE svg PUBLIC "-//W3C//DTD SVG 20010904//EN"
 "http://www.w3.org/TR/2001/REC-SVG-20010904/DTD/svg10.dtd">
<svg version="1.0" xmlns="http://www.w3.org/2000/svg"
 width="600.000000pt" height="600.000000pt" viewBox="0 0 600.000000 600.000000"
 preserveAspectRatio="xMidYMid meet">
<metadata>
Created by potrace 1.15, written by Peter Selinger 2001-2017
</metadata>
<g transform="translate(0.000000,600.000000) scale(0.100000,-0.100000)"
fill="#16364b" stroke="none">
<path d="M3204 5482 c-53 -25 -86 -77 -86 -137 0 -63 29 -104 98 -140 32 -16
67 -43 78 -58 31 -43 34 -147 6 -262 -27 -110 -22 -150 21 -200 69 -78 184
-63 232 31 61 121 80 332 40 474 -58 211 -252 356 -389 292z"/>
<path d="M2054 5441 c-58 -35 -77 -75 -82 -168 -4 -74 -2 -88 22 -137 40 -82
109 -127 249 -162 38 -9 71 -23 74 -31 3 -8 -2 -72 -11 -142 -23 -183 -21
-258 7 -312 30 -57 97 -94 152 -83 71 13 125 93 125 186 0 20 11 98 25 172 30
164 31 209 5 280 -41 107 -132 179 -277 215 l-68 17 -7 48 c-3 26 -14 58 -23
72 -39 61 -130 82 -191 45z"/>
<path d="M1610 4804 c-110 -20 -231 -48 -259 -62 -53 -25 -91 -85 -91 -146 0
-118 75 -165 226 -140 43 7 145 16 225 20 122 6 157 4 217 -11 81 -19 127 -15
166 16 75 59 79 188 8 253 -12 10 -51 30 -89 44 -61 23 -84 26 -223 28 -85 1
-166 0 -180 -2z"/>
<path d="M4320 4562 c-19 -9 -45 -33 -58 -52 -20 -29 -23 -44 -20 -88 6 -63
37 -101 114 -138 127 -60 146 -97 152 -297 4 -130 7 -152 26 -179 44 -65 155
-90 222 -49 57 35 68 76 61 236 -4 77 -13 168 -22 203 -37 155 -123 260 -276
337 -100 50 -143 56 -199 27z"/>
<path d="M3183 4443 c-23 -16 -129 -92 -235 -169 -106 -78 -236 -170 -288
-205 -114 -78 -144 -116 -137 -178 9 -78 70 -136 145 -136 40 0 63 10 152 64
128 78 207 133 325 227 235 187 258 212 257 285 -2 117 -120 177 -219 112z"/>
<path d="M1587 4386 c-51 -19 -67 -34 -89 -84 -31 -70 0 -155 71 -192 54 -27
481 -80 646 -80 96 0 123 8 159 47 63 67 33 193 -56 239 -19 10 -90 21 -192
30 -142 12 -365 36 -466 49 -19 3 -52 -1 -73 -9z"/>
<path d="M3710 3866 c-57 -24 -129 -65 -315 -181 -60 -38 -175 -99 -255 -135
-155 -71 -181 -93 -194 -165 -9 -44 21 -116 59 -141 14 -9 48 -19 76 -22 46
-4 61 1 232 86 100 50 243 129 317 177 133 84 136 85 185 80 89 -10 156 46
171 142 22 145 -118 225 -276 159z"/>
<path d="M2195 3804 c-150 -35 -282 -48 -422 -40 -137 8 -167 0 -217 -52 -38
-41 -48 -119 -21 -169 30 -54 72 -74 191 -86 128 -13 314 1 484 37 190 41 225
58 261 128 36 71 15 147 -53 188 -42 26 -95 24 -223 -6z"/>
<path d="M5003 3530 c-50 -26 -109 -88 -131 -139 -12 -28 -15 -65 -14 -167 3
-158 -10 -201 -96 -327 -134 -198 -174 -260 -244 -382 -97 -168 -145 -262
-153 -301 -25 -123 109 -257 258 -256 114 0 178 45 239 165 53 107 110 201
230 380 117 175 178 292 210 402 20 68 23 103 23 240 0 231 -19 297 -108 369
-32 26 -48 31 -105 34 -53 2 -76 -1 -109 -18z"/>
<path d="M1970 3158 c-52 -36 -73 -71 -78 -132 -4 -45 0 -62 18 -92 38 -60
105 -80 355 -104 109 -11 109 -11 145 -49 73 -80 192 -76 264 9 52 62 27 162
-59 238 -61 54 -155 90 -283 108 -59 8 -141 21 -182 29 -104 21 -141 19 -180
-7z"/>
<path d="M4356 3125 c-16 -9 -48 -32 -70 -53 -92 -84 -178 -132 -367 -205
-167 -65 -320 -109 -436 -127 -45 -7 -95 -21 -112 -31 -95 -58 -94 -201 1
-259 74 -45 324 -10 623 86 203 66 310 130 462 277 108 105 130 142 120 203
-16 97 -133 155 -221 109z"/>
<path d="M1355 2961 c-41 -25 -61 -49 -81 -96 -17 -42 -17 -67 7 -355 11 -129
70 -433 115 -588 49 -170 126 -300 197 -333 100 -45 190 -6 243 106 37 79 33
131 -20 228 -76 140 -131 378 -161 697 -22 239 -40 289 -119 335 -54 31 -136
34 -181 6z"/>
<path d="M2102 2365 c-35 -8 -83 -25 -107 -39 -99 -58 -100 -196 -3 -256 48
-29 88 -34 148 -16 30 9 73 16 97 16 38 0 50 -6 94 -47 45 -42 55 -47 107 -51
74 -5 118 22 146 90 17 42 18 52 7 89 -19 62 -100 142 -188 186 -64 32 -85 37
-156 40 -46 1 -110 -4 -145 -12z"/>
<path d="M3950 2088 c-25 -5 -110 -25 -190 -43 -230 -54 -286 -64 -610 -110
-281 -41 -308 -47 -345 -72 -51 -36 -85 -102 -85 -164 0 -61 14 -96 52 -135
44 -46 102 -60 196 -46 43 6 138 18 212 27 251 29 344 47 600 111 140 36 289
67 330 70 94 8 149 31 185 78 33 43 44 115 26 169 -14 43 -64 94 -108 113 -37
16 -192 17 -263 2z"/>
<path d="M2144 1721 c-64 -39 -79 -121 -43 -232 45 -137 130 -266 228 -346 64
-53 183 -113 222 -113 44 0 96 28 126 67 23 29 28 47 28 88 -1 69 -27 103
-111 146 -113 58 -183 142 -214 259 -26 97 -83 150 -161 150 -25 0 -57 -8 -75
-19z"/>
<path d="M4745 1665 c-16 -9 -64 -50 -105 -92 -94 -94 -180 -137 -375 -189
-269 -71 -381 -106 -515 -161 -250 -103 -293 -131 -325 -205 -42 -102 14 -218
120 -248 56 -16 88 -9 202 40 152 65 286 109 533 171 248 63 347 100 445 164
68 45 196 170 239 233 58 84 43 213 -31 269 -45 34 -141 43 -188 18z"/>
<path d="M2065 1015 c-103 -36 -154 -169 -104 -272 32 -65 182 -174 374 -271
216 -109 455 -135 725 -78 89 19 224 72 261 103 106 90 79 276 -51 343 -39 21
-118 14 -194 -15 -163 -62 -337 -83 -456 -56 -85 20 -206 83 -310 162 -135
102 -165 112 -245 84z"/>
</g>
</svg>
