<?xml version="1.0" standalone="no"?>
<!DOCTYPE svg PUBLIC "-//W3C//DTD SVG 20010904//EN"
 "http://www.w3.org/TR/2001/REC-SVG-20010904/DTD/svg10.dtd">
<svg version="1.0" xmlns="http://www.w3.org/2000/svg"
 width="600.000000pt" height="600.000000pt" viewBox="0 0 600.000000 600.000000"
 preserveAspectRatio="xMidYMid meet">
<metadata>
Created by potrace 1.15, written by Peter Selinger 2001-2017
</metadata>
<g transform="translate(0.000000,600.000000) scale(0.100000,-0.100000)"
fill="#16364b" stroke="none">
<path d="M1913 4816 c-172 -54 -253 -214 -203 -401 32 -117 47 -208 70 -415
11 -102 27 -228 35 -280 33 -214 40 -377 27 -642 -7 -139 -12 -325 -12 -413 0
-88 -4 -225 -10 -305 -6 -80 -14 -237 -19 -350 -8 -191 -7 -208 10 -243 11
-21 19 -49 19 -62 0 -21 5 -25 30 -25 17 0 30 -5 30 -11 0 -6 10 -9 23 -7 19
3 28 -9 64 -85 90 -188 223 -270 554 -341 l26 -6 -5 -142 c-6 -180 14 -321 68
-490 22 -68 36 -126 32 -130 -4 -3 -48 -8 -98 -10 -104 -3 -129 -17 -140 -75
-16 -85 57 -140 172 -130 74 7 129 28 167 65 68 65 73 129 23 280 -58 172 -71
248 -71 429 0 186 5 199 65 184 19 -5 109 -12 200 -15 91 -3 235 -13 320 -22
107 -11 193 -14 278 -9 l123 6 -8 -48 c-4 -26 -8 -95 -7 -153 1 -108 26 -235
78 -400 39 -121 39 -119 2 -124 -17 -3 -57 -7 -89 -10 -73 -6 -118 -31 -135
-78 -12 -30 -12 -40 0 -64 24 -50 62 -69 136 -69 159 1 281 95 284 219 0 25
-15 89 -36 152 -84 256 -111 449 -78 560 l12 42 168 31 c392 75 490 112 617
233 124 117 185 273 188 478 2 119 -20 216 -74 322 -22 43 -27 64 -20 71 6 6
11 20 11 31 0 12 6 33 14 48 14 26 13 27 -47 75 -69 54 -95 69 -257 152 -125
63 -259 116 -385 151 -102 28 -154 55 -400 203 -110 66 -263 156 -340 200
-228 129 -322 203 -434 342 -128 157 -208 289 -344 560 -52 105 -128 249 -169
320 -40 72 -80 146 -88 165 -23 60 -96 166 -132 193 -70 54 -159 69 -245 43z
m128 -154 c51 -34 93 -97 119 -177 7 -22 21 -51 30 -65 23 -33 104 -179 258
-466 125 -232 268 -457 367 -577 101 -123 180 -177 610 -421 99 -56 245 -140
325 -186 80 -46 203 -108 274 -137 219 -91 311 -141 401 -221 144 -127 208
-233 236 -390 26 -151 -29 -338 -130 -442 -85 -86 -125 -104 -361 -159 -369
-86 -586 -106 -905 -82 -77 6 -212 15 -300 21 -305 19 -400 29 -497 54 -298
76 -391 198 -428 562 -6 60 -20 190 -32 289 -24 205 -29 598 -14 1045 9 273
11 248 -48 660 -14 96 -31 213 -37 260 -6 47 -22 127 -35 178 -28 107 -30 161
-9 203 33 62 121 88 176 51z m-131 -2922 c0 -5 -10 -10 -22 -9 -22 0 -22 1 -3
9 11 5 21 9 23 9 1 1 2 -3 2 -9z"/>
<path d="M2562 2684 c-31 -22 -29 -67 4 -93 35 -27 69 -27 88 1 34 48 7 108
-49 108 -11 0 -31 -7 -43 -16z"/>
<path d="M3025 2508 c-35 -30 -30 -65 14 -91 38 -23 56 -22 81 5 59 64 -28
143 -95 86z"/>
<path d="M5305 3986 c-119 -29 -225 -108 -271 -202 -110 -224 112 -495 362
-444 120 24 202 90 255 205 79 167 31 340 -116 421 -50 28 -70 34 -120 33 -33
0 -83 -6 -110 -13z m84 -290 l23 -13 -23 -21 c-29 -28 -45 -28 -59 -1 -23 43
9 63 59 35z"/>
<path d="M5317 1100 c-26 -21 -54 -91 -58 -145 -4 -64 2 -87 30 -116 67 -67
166 -20 190 89 6 29 11 64 11 78 0 37 -25 91 -48 103 -34 18 -97 13 -125 -9z"/>
</g>
</svg>
