<?xml version="1.0" standalone="no"?>
<!DOCTYPE svg PUBLIC "-//W3C//DTD SVG 20010904//EN"
 "http://www.w3.org/TR/2001/REC-SVG-20010904/DTD/svg10.dtd">
<svg version="1.0" xmlns="http://www.w3.org/2000/svg"
 width="600.000000pt" height="600.000000pt" viewBox="0 0 600.000000 600.000000"
 preserveAspectRatio="xMidYMid meet">
<metadata>
Created by potrace 1.15, written by Peter Selinger 2001-2017
</metadata>
<g transform="translate(0.000000,600.000000) scale(0.100000,-0.100000)"
fill="#16364b" stroke="none">
<path d="M1985 5821 c-44 -18 -88 -73 -307 -389 -37 -53 -93 -147 -125 -210
-55 -107 -58 -117 -58 -187 0 -67 3 -76 31 -112 72 -88 164 -101 287 -39 98
48 585 375 610 408 11 14 22 49 24 75 10 95 -52 166 -144 166 -33 0 -58 -11
-135 -60 -51 -33 -104 -66 -117 -73 -28 -14 -29 -16 47 89 80 112 95 146 90
201 -6 57 -35 102 -82 124 -36 17 -88 20 -121 7z"/>
<path d="M3006 5659 c-56 -44 -71 -116 -38 -178 20 -37 29 -43 204 -126 242
-115 374 -251 409 -420 10 -51 10 -66 -2 -90 -17 -35 -78 -71 -134 -81 -151
-24 -214 -181 -110 -273 45 -39 103 -41 205 -7 258 88 367 280 301 534 -64
249 -213 422 -474 553 -215 108 -307 131 -361 88z"/>
<path d="M955 5376 c-86 -21 -165 -66 -236 -133 -199 -188 -191 -443 20 -653
84 -83 129 -110 188 -110 142 0 197 198 78 279 -55 37 -103 96 -111 136 -16
89 33 149 149 178 109 28 151 76 144 165 -5 64 -28 99 -87 130 -49 25 -72 26
-145 8z"/>
<path d="M2853 5056 c-125 -40 -219 -166 -231 -312 -7 -97 11 -148 77 -214 74
-73 133 -94 258 -93 138 1 200 41 210 136 7 58 -1 88 -32 125 -24 29 -24 31
-10 66 24 57 19 114 -15 173 -35 62 -82 100 -146 119 -56 17 -57 17 -111 0z"/>
<path d="M4839 4912 c-43 -5 -131 -64 -154 -102 -17 -30 -20 -51 -19 -145 1
-220 84 -401 219 -481 206 -120 462 61 416 295 -6 31 -27 90 -48 131 -80 164
-290 317 -414 302z"/>
<path d="M1909 4672 c-71 -24 -162 -84 -177 -117 -21 -45 -15 -116 12 -156 48
-70 136 -88 218 -44 73 39 98 32 114 -29 3 -15 23 -45 43 -66 63 -66 154 -64
220 4 29 29 35 45 39 90 9 107 -77 240 -193 297 -82 40 -192 49 -276 21z"/>
<path d="M2982 3980 c-115 -24 -215 -99 -269 -202 -24 -47 -28 -64 -28 -143 0
-75 4 -98 25 -140 62 -126 211 -207 410 -222 95 -7 133 9 161 70 23 51 24 80
4 139 -26 75 -67 106 -163 123 -90 16 -122 29 -122 50 0 38 70 45 156 14 36
-12 73 -19 96 -16 132 17 174 190 64 265 -74 50 -241 81 -334 62z"/>
<path d="M1215 3934 c-232 -33 -290 -53 -335 -116 -52 -71 -49 -162 7 -229 39
-46 79 -62 150 -61 l63 0 -56 -75 c-116 -157 -199 -294 -289 -478 -148 -304
-175 -397 -140 -482 20 -48 41 -71 89 -95 51 -26 154 -22 190 7 66 55 183 152
314 263 183 156 513 405 523 395 18 -18 -20 -204 -83 -408 -42 -138 -92 -240
-185 -380 -122 -184 -235 -384 -240 -426 -7 -52 27 -119 78 -155 49 -33 129
-40 169 -13 35 23 325 511 382 644 65 148 140 382 173 539 24 111 27 145 23
255 -3 112 -7 133 -32 186 -15 33 -37 71 -49 84 -56 60 -165 77 -259 40 -56
-22 -177 -98 -295 -185 -40 -30 -73 -51 -73 -47 0 5 29 46 63 93 139 187 191
295 191 399 1 108 -58 194 -153 225 -48 16 -175 27 -226 20z"/>
<path d="M4295 3784 c-108 -17 -214 -65 -281 -126 -150 -138 -130 -381 38
-478 143 -81 290 -57 415 70 69 69 110 136 165 262 34 79 39 101 36 145 -8 96
-54 122 -226 128 -65 2 -130 1 -147 -1z m-5 -320 c-21 -24 -51 -37 -62 -26
-12 12 28 42 55 42 17 0 17 -2 7 -16z"/>
<path d="M3424 3371 c-66 -30 -108 -96 -164 -261 -29 -85 -31 -100 -21 -137
24 -87 97 -120 244 -111 115 8 182 53 217 145 53 141 1 306 -113 358 -62 30
-108 31 -163 6z"/>
<path d="M4978 3020 c-49 -14 -94 -48 -171 -129 -91 -95 -140 -167 -167 -244
-38 -107 -19 -201 53 -264 48 -42 96 -56 175 -51 86 5 165 41 236 108 110 104
155 296 101 427 -16 37 -95 122 -130 140 -33 17 -68 21 -97 13z"/>
<path d="M4005 2549 c-45 -13 -105 -67 -126 -113 -28 -62 -24 -142 16 -276 18
-63 32 -116 30 -118 -2 -2 -34 8 -72 21 -100 36 -151 42 -215 23 -96 -28 -172
-113 -198 -225 -18 -75 -7 -281 20 -391 34 -139 89 -295 122 -344 80 -121 247
-148 351 -55 80 70 95 162 52 310 -13 46 -25 88 -25 93 0 6 15 -4 33 -21 74
-71 147 -86 251 -53 105 33 157 74 198 157 31 64 33 73 32 173 -1 121 -15 179
-121 509 -64 200 -68 207 -114 253 -64 63 -146 83 -234 57z"/>
<path d="M2003 2149 c-85 -42 -254 -255 -268 -338 -13 -80 32 -171 102 -205
23 -12 41 -24 40 -27 -1 -4 -25 -25 -54 -48 -147 -115 -226 -347 -193 -565 15
-98 50 -217 86 -291 77 -157 313 -321 554 -387 112 -30 329 -32 430 -4 158 45
360 188 409 289 48 98 13 192 -98 263 -2 2 13 17 32 34 43 37 129 201 191 362
69 179 145 420 155 492 34 241 -111 406 -357 406 -152 0 -276 -48 -515 -200
-71 -45 -130 -80 -132 -78 -1 2 -8 25 -14 52 -29 116 -95 210 -176 247 -55 25
-139 25 -192 -2z m991 -446 c-34 -145 -137 -407 -210 -535 -78 -138 -69 -230
31 -300 l44 -31 -56 -51 c-81 -73 -110 -93 -172 -117 -124 -47 -272 -33 -398
37 -164 91 -224 177 -231 334 -6 126 21 188 88 205 22 5 28 0 50 -42 39 -74
96 -141 140 -163 77 -39 187 -17 243 49 59 70 57 167 -4 244 -17 20 -36 52
-44 70 l-14 33 162 106 c197 128 306 185 360 187 14 1 16 -4 11 -26z"/>
</g>
</svg>
