<?xml version="1.0" standalone="no"?>
<!DOCTYPE svg PUBLIC "-//W3C//DTD SVG 20010904//EN"
 "http://www.w3.org/TR/2001/REC-SVG-20010904/DTD/svg10.dtd">
<svg version="1.0" xmlns="http://www.w3.org/2000/svg"
 width="600.000000pt" height="600.000000pt" viewBox="0 0 600.000000 600.000000"
 preserveAspectRatio="xMidYMid meet">
<metadata>
Created by potrace 1.15, written by Peter Selinger 2001-2017
</metadata>
<g transform="translate(0.000000,600.000000) scale(0.100000,-0.100000)"
fill="#16364b" stroke="none">
<path d="M2115 5261 c-99 -26 -172 -87 -220 -185 -44 -88 -46 -112 -27 -446
18 -316 21 -1386 5 -1540 -7 -63 -15 -159 -18 -212 l-7 -97 -66 -27 c-127 -51
-321 -113 -437 -139 -65 -14 -118 -25 -120 -23 -1 2 -10 18 -19 36 -23 45 -50
44 -42 -3 4 -19 3 -35 -1 -35 -4 0 -26 14 -47 30 -22 17 -46 30 -53 30 -21 0
-15 -30 12 -66 33 -43 32 -47 -11 -40 -42 8 -71 -8 -53 -30 6 -7 26 -16 45
-20 42 -8 44 -20 4 -29 -22 -5 -30 -12 -30 -27 0 -20 4 -21 93 -14 171 12 425
77 645 165 29 11 57 21 62 21 6 0 10 -51 10 -122 0 -256 39 -544 95 -715 104
-312 259 -474 516 -537 l90 -22 3 -169 c2 -154 5 -181 33 -290 18 -66 43 -153
57 -194 15 -41 26 -80 26 -87 0 -8 -31 -14 -94 -19 -113 -8 -150 -26 -167 -83
-15 -52 7 -97 59 -119 74 -31 230 2 298 63 39 34 64 87 64 133 0 24 -18 98
-39 166 -71 220 -100 396 -86 521 l7 66 51 -8 c29 -5 250 -9 492 -9 l440 0 -3
-110 c-4 -126 11 -218 64 -422 20 -76 39 -153 41 -170 l5 -33 -63 0 c-126 0
-189 -38 -189 -112 0 -76 74 -111 187 -88 118 25 199 86 224 169 11 36 8 51
-34 188 -80 258 -101 405 -76 523 13 61 17 63 144 80 363 47 375 49 432 76
118 56 197 173 250 371 25 94 27 109 27 358 0 254 0 262 -27 360 -44 157 -73
202 -224 351 l-133 132 108 6 c59 4 188 16 286 27 99 11 185 18 193 15 16 -7
141 41 163 61 13 13 13 16 0 26 -8 7 -14 22 -12 33 2 15 -3 23 -17 27 -14 3
-18 11 -14 25 7 28 -12 35 -46 17 -41 -21 -48 -19 -55 11 -10 37 -40 28 -44
-14 -2 -17 -5 -32 -7 -32 -2 0 -61 -6 -132 -14 -70 -8 -237 -18 -370 -22
l-243 -6 -66 61 c-106 99 -235 191 -459 326 -263 159 -379 241 -479 341 -131
131 -257 297 -320 423 -63 123 -138 357 -211 651 -19 80 -51 178 -70 217 -41
88 -114 164 -189 199 -58 26 -160 39 -211 25z m171 -182 c62 -38 113 -133 139
-259 49 -235 109 -433 181 -599 97 -221 208 -393 349 -540 116 -121 192 -176
530 -386 177 -109 263 -172 396 -288 524 -454 555 -484 594 -569 66 -145 86
-322 66 -572 -23 -281 -86 -413 -218 -460 -23 -8 -85 -20 -140 -26 -54 -6
-140 -18 -191 -25 -156 -23 -320 -27 -757 -16 -614 16 -741 30 -868 98 -66 35
-162 131 -205 204 -158 270 -210 831 -136 1469 30 259 27 990 -8 1634 -11 218
-11 221 10 263 22 43 71 87 107 96 37 10 116 -2 151 -24z"/>
<path d="M2611 2793 c-25 -31 -20 -58 15 -90 33 -30 58 -29 83 3 27 35 27 65
-2 92 -32 30 -71 28 -96 -5z"/>
<path d="M3121 2731 c-34 -34 -22 -80 27 -104 38 -19 56 -12 78 29 17 31 17
37 4 62 -21 36 -79 43 -109 13z"/>
<path d="M2885 1816 c-8 -10 -11 -26 -8 -35 12 -34 36 -41 134 -41 103 0 129
10 129 49 0 37 -28 46 -138 46 -91 0 -106 -2 -117 -19z"/>
<path d="M5229 3975 c-112 -36 -196 -129 -220 -243 -30 -148 50 -308 193 -384
63 -33 172 -32 250 4 122 56 214 182 225 307 7 70 -12 132 -55 182 -29 35
-110 97 -160 123 -46 24 -175 30 -233 11z m137 -305 c26 -10 26 -11 9 -30 -24
-27 -54 -25 -64 3 -15 38 3 46 55 27z"/>
</g>
</svg>
