<?xml version="1.0" standalone="no"?>
<!DOCTYPE svg PUBLIC "-//W3C//DTD SVG 20010904//EN"
 "http://www.w3.org/TR/2001/REC-SVG-20010904/DTD/svg10.dtd">
<svg version="1.0" xmlns="http://www.w3.org/2000/svg"
 width="600.000000pt" height="600.000000pt" viewBox="0 0 600.000000 600.000000"
 preserveAspectRatio="xMidYMid meet">
<metadata>
Created by potrace 1.15, written by Peter Selinger 2001-2017
</metadata>
<g transform="translate(0.000000,600.000000) scale(0.100000,-0.100000)"
fill="#16364b" stroke="none">
<path d="M3103 5649 c-122 -78 -80 -362 78 -520 43 -43 83 -70 151 -103 51
-24 104 -47 118 -51 14 -4 33 -13 43 -20 16 -11 3 -21 -105 -92 -68 -43 -175
-110 -238 -148 -209 -125 -260 -173 -260 -242 0 -24 -5 -33 -17 -33 -26 0 -82
-48 -103 -90 -36 -70 -18 -171 35 -206 62 -40 93 -38 247 15 48 17 129 35 180
42 51 6 105 15 119 21 46 17 81 62 86 112 7 62 -2 90 -43 130 l-35 34 88 54
c48 30 127 78 174 106 165 99 230 177 231 277 1 122 -79 208 -295 316 -196 97
-215 117 -224 245 -7 84 -26 124 -75 154 -44 26 -113 26 -155 -1z"/>
<path d="M1278 5381 c-73 -29 -182 -106 -242 -173 -185 -204 -278 -643 -174
-816 54 -89 187 -94 252 -10 30 40 33 82 15 182 -16 83 6 193 60 301 51 103
113 173 204 229 84 52 107 85 107 151 0 62 -29 108 -84 134 -51 25 -77 26
-138 2z"/>
<path d="M1600 5094 c-120 -22 -160 -37 -194 -74 -61 -68 -57 -170 9 -229 40
-35 71 -45 115 -39 17 3 30 0 30 -5 0 -5 -13 -46 -30 -93 -34 -98 -45 -166
-36 -228 14 -89 100 -176 211 -210 60 -19 63 -31 12 -41 -56 -12 -250 -111
-295 -151 -35 -31 -45 -48 -49 -81 -12 -94 29 -167 112 -198 50 -20 95 -10
143 30 71 60 278 145 352 145 89 0 162 75 162 165 0 80 -51 138 -134 151 -42
7 -43 9 -23 44 8 14 14 45 15 68 0 88 -53 150 -136 160 -31 3 -44 9 -44 20 0
8 18 71 40 138 59 181 53 286 -20 363 -45 47 -163 79 -240 65z"/>
<path d="M4443 4560 c-67 -40 -85 -143 -38 -213 39 -56 69 -67 184 -67 55 0
102 -4 105 -8 3 -5 -51 -46 -120 -92 -76 -49 -133 -95 -145 -114 -63 -103 40
-239 158 -207 43 12 279 164 387 250 152 121 167 268 38 366 -62 48 -147 72
-317 90 -186 19 -213 19 -252 -5z"/>
<path d="M3937 3716 c-83 -31 -133 -108 -124 -191 8 -79 44 -142 127 -226 146
-147 302 -181 399 -87 89 87 101 209 28 273 -29 25 -35 38 -39 83 -7 71 -40
106 -128 133 -86 27 -213 34 -263 15z"/>
<path d="M2505 3670 c-77 -20 -232 -73 -261 -88 -98 -53 -95 -180 5 -243 72
-46 93 -46 232 1 67 23 144 44 171 47 43 5 48 4 48 -14 0 -97 -152 -392 -323
-627 -86 -120 -97 -141 -97 -192 0 -39 12 -68 42 -100 19 -21 19 -23 3 -55
-40 -77 5 -199 89 -242 78 -41 116 -36 287 36 146 62 266 103 274 95 9 -9 -61
-185 -127 -322 -62 -125 -73 -156 -73 -200 0 -66 29 -122 84 -161 37 -26 52
-30 104 -30 106 1 153 38 222 175 95 191 175 426 191 568 14 128 -31 250 -117
312 -109 79 -297 81 -519 5 -41 -14 -77 -25 -82 -25 -5 0 9 26 31 59 146 214
273 454 302 572 52 204 -14 371 -168 429 -71 26 -219 27 -318 0z"/>
<path d="M1185 3516 c-70 -16 -152 -49 -287 -117 -125 -63 -153 -96 -153 -185
0 -53 4 -69 30 -106 42 -58 96 -88 163 -88 29 0 68 7 87 14 19 8 35 13 35 11
0 -2 -27 -75 -59 -162 -103 -276 -154 -490 -167 -703 -7 -120 3 -173 43 -221
34 -40 71 -55 153 -64 76 -8 138 11 171 54 11 14 35 42 53 61 92 101 298 345
420 499 117 146 140 171 149 156 20 -37 -11 -203 -103 -539 -33 -121 -67 -258
-75 -305 -27 -157 -16 -342 25 -408 41 -66 148 -80 215 -29 56 43 60 57 61
216 1 161 15 246 104 620 86 364 85 358 84 550 -1 138 -5 185 -18 220 -41 109
-103 160 -193 160 -94 -1 -161 -50 -336 -249 -56 -64 -138 -162 -182 -219 -44
-56 -81 -98 -83 -93 -1 4 22 87 53 182 108 336 117 371 122 462 4 68 2 98 -12
133 -47 125 -161 181 -300 150z"/>
<path d="M3618 3221 c-185 -73 -324 -313 -246 -427 57 -82 195 -87 257 -8 19
24 26 26 118 28 88 1 104 5 152 31 62 34 95 73 110 130 26 99 -40 203 -157
248 -58 23 -173 22 -234 -2z"/>
<path d="M4600 3212 c-54 -27 -83 -77 -77 -135 5 -54 17 -70 101 -135 64 -50
146 -153 146 -185 0 -11 -22 -44 -49 -72 -60 -63 -71 -105 -47 -169 27 -72 78
-106 157 -106 54 0 87 19 147 85 120 131 122 309 5 481 -63 90 -194 209 -266
239 -47 19 -74 19 -117 -3z"/>
<path d="M4494 2276 c-51 -22 -112 -84 -130 -132 -12 -32 -15 -62 -12 -109 3
-36 2 -65 -2 -65 -4 0 -61 9 -125 20 -215 37 -353 23 -466 -46 -90 -54 -150
-140 -164 -234 -10 -69 -11 -633 -1 -654 8 -16 6 -18 -12 -14 -30 8 -102 -9
-134 -32 -15 -11 -34 -20 -42 -20 -9 0 -44 24 -78 53 -35 29 -89 72 -121 95
-31 24 -81 64 -110 89 -77 69 -225 161 -286 179 -68 20 -132 13 -184 -22 -44
-29 -94 -102 -103 -152 -15 -80 -38 56 -49 293 -4 77 -11 157 -16 177 -21 81
-101 137 -197 138 -114 0 -192 -77 -192 -193 0 -81 29 -370 47 -472 19 -110
71 -258 115 -333 70 -116 309 -269 453 -289 142 -19 245 91 215 228 -7 33 -8
63 -3 77 8 22 14 18 143 -78 192 -142 281 -180 395 -165 99 12 234 95 271 166
16 32 19 115 4 153 l-9 25 64 0 c109 0 196 55 238 150 16 37 21 77 26 235 l6
191 40 -3 c22 -2 83 -14 135 -28 119 -31 286 -36 370 -11 112 33 196 112 239
225 48 125 49 348 2 440 -24 46 -70 88 -126 113 -48 22 -155 25 -201 5z"/>
</g>
</svg>
