<?xml version="1.0" standalone="no"?>
<!DOCTYPE svg PUBLIC "-//W3C//DTD SVG 20010904//EN"
 "http://www.w3.org/TR/2001/REC-SVG-20010904/DTD/svg10.dtd">
<svg version="1.0" xmlns="http://www.w3.org/2000/svg"
 width="600.000000pt" height="600.000000pt" viewBox="0 0 600.000000 600.000000"
 preserveAspectRatio="xMidYMid meet">
<metadata>
Created by potrace 1.15, written by Peter Selinger 2001-2017
</metadata>
<g transform="translate(0.000000,600.000000) scale(0.100000,-0.100000)"
fill="#16364b" stroke="none">
<path d="M2072 5174 c-107 -28 -196 -120 -223 -227 -12 -50 -9 -146 11 -302
20 -156 29 -640 18 -1005 -5 -195 -7 -452 -4 -571 4 -119 3 -249 0 -288 l-7
-72 -121 -61 c-67 -33 -155 -79 -196 -103 -41 -23 -126 -68 -187 -100 l-113
-59 -20 22 c-27 28 -44 19 -36 -20 6 -33 10 -32 -61 -12 -34 9 -41 -21 -12
-52 24 -26 19 -39 -16 -46 -12 -2 -20 -11 -20 -23 0 -16 8 -21 39 -23 l38 -3
-26 -28 c-21 -22 -24 -30 -14 -39 15 -12 138 37 174 69 11 11 23 19 26 19 3 0
50 25 104 56 127 72 390 204 406 204 9 0 14 -23 15 -80 2 -93 38 -474 54 -575
14 -85 40 -156 86 -238 82 -146 192 -266 297 -326 57 -33 187 -71 243 -71 l34
0 -8 -68 c-21 -184 -2 -357 63 -555 19 -59 32 -112 29 -117 -3 -6 -34 -10 -68
-10 -118 0 -177 -35 -177 -105 0 -97 124 -131 275 -74 63 24 118 80 136 139
11 37 10 47 -19 123 -67 178 -92 301 -92 444 0 86 20 214 35 219 7 3 81 -2
166 -11 127 -14 210 -15 473 -10 l319 7 -6 -23 c-37 -154 -1 -406 89 -613 19
-44 34 -85 34 -93 0 -10 -21 -13 -85 -13 -51 0 -99 -6 -119 -14 -128 -53 -53
-206 101 -206 105 0 202 49 243 123 35 61 31 122 -14 219 -67 147 -108 314
-108 448 0 74 15 155 30 164 4 2 57 9 117 15 256 28 378 50 442 81 114 56 202
176 262 356 42 126 54 229 49 407 -4 131 -8 163 -31 230 -61 177 -137 295
-276 431 -50 49 -90 90 -89 91 2 1 46 -2 98 -6 52 -5 170 -8 261 -7 92 0 172
-3 178 -6 14 -9 146 41 163 62 10 11 9 17 -3 26 -13 9 -14 15 -5 29 8 14 8 20
-4 27 -8 5 -15 20 -15 32 0 24 -6 25 -72 12 -28 -5 -33 -3 -33 13 0 25 -8 33
-26 26 -8 -3 -14 -16 -14 -28 0 -21 -6 -24 -57 -31 -64 -8 -539 3 -643 14 -61
7 -71 12 -175 89 -61 45 -169 118 -240 162 -808 499 -931 639 -1110 1276 -85
303 -126 417 -175 490 -40 60 -126 136 -185 165 -75 36 -135 43 -203 24z m142
-168 c45 -19 100 -69 129 -119 32 -55 105 -270 163 -481 96 -352 158 -483 317
-669 180 -211 374 -366 712 -572 167 -102 294 -187 431 -289 45 -34 123 -90
175 -126 52 -36 139 -110 195 -165 86 -85 107 -113 142 -185 77 -158 84 -189
89 -360 11 -354 -84 -582 -263 -629 -56 -14 -300 -49 -391 -56 -43 -3 -159 -8
-258 -10 -99 -2 -270 -7 -380 -10 -155 -6 -232 -4 -342 9 -78 9 -193 16 -255
16 -145 0 -214 12 -298 50 -142 66 -271 249 -309 440 -20 100 -61 501 -61 594
0 51 6 143 13 206 11 89 13 307 11 970 -2 820 -8 1009 -34 1124 -17 74 -12
157 13 200 39 68 124 94 201 62z"/>
<path d="M2630 2770 c-27 -27 -25 -56 5 -85 40 -41 88 -28 108 28 7 19 -8 56
-27 69 -21 14 -66 8 -86 -12z"/>
<path d="M3086 2671 c-24 -26 -17 -70 16 -94 33 -25 70 -17 86 18 17 36 15 52
-8 75 -25 25 -72 26 -94 1z"/>
<path d="M2954 1774 c-31 -46 24 -91 95 -78 68 12 94 42 71 83 -9 18 -20 20
-81 19 -62 -1 -72 -4 -85 -24z"/>
<path d="M5207 3973 c-65 -22 -130 -82 -164 -151 -24 -50 -28 -68 -28 -147 0
-76 4 -99 27 -147 59 -127 159 -198 290 -206 171 -10 303 83 352 247 32 108
18 200 -41 277 -28 37 -136 114 -186 133 -42 16 -194 12 -250 -6z m167 -293
c33 -12 33 -25 1 -46 -30 -20 -55 -5 -55 32 0 26 14 30 54 14z"/>
</g>
</svg>
