<?xml version="1.0" standalone="no"?>
<!DOCTYPE svg PUBLIC "-//W3C//DTD SVG 20010904//EN"
 "http://www.w3.org/TR/2001/REC-SVG-20010904/DTD/svg10.dtd">
<svg version="1.0" xmlns="http://www.w3.org/2000/svg"
 width="600.000000pt" height="600.000000pt" viewBox="0 0 600.000000 600.000000"
 preserveAspectRatio="xMidYMid meet">
<metadata>
Created by potrace 1.15, written by Peter Selinger 2001-2017
</metadata>
<g transform="translate(0.000000,600.000000) scale(0.100000,-0.100000)"
fill="#16364b" stroke="none">
<path d="M2265 5808 c-79 -45 -618 -473 -686 -545 -120 -126 -145 -245 -72
-342 14 -18 46 -42 71 -54 41 -17 60 -19 176 -14 157 6 273 31 434 91 426 161
452 174 474 247 28 95 -49 199 -146 199 -14 0 -99 -27 -188 -61 -204 -77 -277
-101 -290 -97 -10 4 150 133 287 233 143 104 174 146 160 221 -7 39 -54 98
-96 120 -33 17 -96 18 -124 2z"/>
<path d="M3055 5656 c-132 -58 -90 -237 62 -265 286 -54 394 -113 433 -235 18
-55 8 -153 -22 -218 -48 -104 -121 -166 -300 -256 -130 -65 -158 -96 -158
-169 0 -84 51 -135 140 -141 50 -3 65 1 168 52 210 104 319 197 390 333 132
254 98 542 -83 711 -106 100 -261 163 -468 191 -100 14 -125 13 -162 -3z"/>
<path d="M945 5303 c-135 -56 -253 -160 -307 -271 -28 -57 -33 -78 -36 -163
-5 -116 15 -197 75 -298 75 -126 224 -262 303 -276 26 -4 47 0 80 17 111 57
117 210 10 282 -92 62 -160 162 -160 236 0 79 45 127 187 198 103 52 135 127
91 212 -45 87 -131 110 -243 63z"/>
<path d="M4833 4957 c-54 -20 -112 -70 -134 -115 -19 -39 -21 -53 -15 -135 18
-234 101 -406 234 -484 62 -36 170 -44 233 -16 132 58 196 193 165 343 -33
159 -142 293 -296 368 -97 47 -141 56 -187 39z"/>
<path d="M2645 4932 c-75 -44 -149 -115 -198 -190 -68 -105 -82 -150 -82 -272
0 -94 3 -111 27 -161 31 -63 103 -138 165 -173 90 -51 252 -90 309 -74 49 13
92 54 104 98 13 47 5 85 -26 126 -25 33 -40 41 -151 73 -93 27 -143 73 -143
129 0 61 58 135 152 193 53 34 74 61 83 112 9 47 -8 97 -45 132 -24 23 -41 29
-87 32 -50 3 -65 0 -108 -25z"/>
<path d="M1775 4406 c-68 -21 -107 -47 -173 -110 -76 -73 -105 -124 -104 -185
1 -83 81 -161 167 -161 51 0 95 27 131 81 60 89 140 112 219 64 69 -43 148
-31 205 30 21 23 25 36 25 90 0 57 -3 67 -30 95 -35 37 -99 71 -174 94 -65 19
-208 20 -266 2z"/>
<path d="M2547 3825 c-64 -9 -107 -21 -126 -34 -67 -48 -80 -156 -26 -227 44
-58 78 -67 224 -59 142 7 223 -6 229 -38 6 -29 -52 -141 -116 -224 -33 -43
-141 -159 -240 -258 -99 -99 -189 -196 -201 -215 -38 -64 -25 -145 34 -200 22
-21 37 -25 84 -25 47 0 65 5 97 28 81 57 258 229 359 347 285 338 353 574 216
756 -99 131 -288 184 -534 149z"/>
<path d="M4249 3781 c-83 -12 -167 -41 -218 -76 -52 -35 -105 -108 -121 -163
-38 -137 26 -288 149 -355 139 -76 301 -44 431 87 74 75 88 95 151 218 56 112
62 156 26 209 -39 59 -94 79 -238 84 -68 2 -149 0 -180 -4z m17 -317 c-28 -24
-56 -29 -58 -9 -1 13 41 35 67 35 18 -1 17 -3 -9 -26z"/>
<path d="M1230 3724 c-68 -13 -332 -120 -380 -154 -66 -47 -78 -154 -26 -228
15 -22 50 -52 78 -67 45 -25 58 -27 119 -23 l69 5 -138 -271 c-149 -292 -187
-385 -222 -541 -27 -119 -23 -171 19 -237 36 -56 97 -88 167 -88 98 1 100 3
584 494 162 163 256 253 258 243 2 -9 -19 -109 -47 -224 -27 -114 -59 -259
-71 -321 -25 -136 -63 -256 -132 -415 -53 -126 -61 -173 -35 -224 29 -55 62
-76 127 -81 54 -4 64 -1 96 23 20 16 45 48 56 74 11 25 49 110 84 189 76 168
107 259 129 379 52 277 100 495 115 524 16 28 12 256 -5 319 -30 113 -103 175
-205 175 -107 -1 -190 -54 -393 -254 -96 -95 -143 -135 -134 -116 7 17 43 92
80 168 144 295 159 424 64 549 -60 79 -163 119 -257 102z"/>
<path d="M3516 3374 c-119 -43 -198 -167 -227 -357 -13 -84 -6 -127 28 -167
72 -87 197 -92 358 -15 131 63 199 158 198 277 -1 191 -184 326 -357 262z"/>
<path d="M4865 2699 c-37 -10 -171 -127 -231 -200 -35 -42 -66 -93 -90 -147
-1 -2 -21 11 -45 28 -140 97 -323 35 -374 -127 -18 -55 -18 -62 -2 -139 18
-84 21 -124 11 -124 -3 0 -47 12 -97 27 -116 34 -248 38 -317 10 -149 -61
-229 -211 -216 -402 7 -113 70 -454 90 -493 36 -70 154 -142 231 -142 72 0
170 68 195 136 17 44 11 122 -21 260 -17 75 -29 137 -27 139 5 6 90 -27 142
-54 59 -31 114 -35 187 -15 148 40 239 107 285 208 31 69 48 197 39 314 -3 50
-4 92 -2 92 3 0 21 -7 40 -15 47 -20 141 -19 200 1 93 32 198 156 236 278 26
84 35 174 21 211 -15 42 -125 143 -169 155 -41 11 -45 11 -86 -1z"/>
<path d="M2875 2391 c-121 -33 -274 -102 -450 -203 -116 -67 -145 -104 -147
-183 l-1 -45 -66 0 c-149 -1 -291 -115 -291 -234 0 -103 90 -196 189 -196 27
0 31 -4 41 -42 7 -24 22 -81 36 -128 21 -77 22 -86 7 -95 -70 -44 -134 -100
-165 -146 -112 -162 -77 -369 97 -587 89 -111 168 -173 300 -237 186 -90 222
-99 365 -99 88 -1 144 5 190 17 90 24 257 106 285 139 81 97 47 247 -69 307
-77 40 -130 35 -252 -22 -137 -64 -178 -68 -279 -28 -43 18 -100 48 -127 67
-57 43 -136 129 -167 184 -33 60 -3 53 68 -14 63 -61 93 -76 151 -76 52 0 83
13 136 57 82 68 117 158 94 243 -9 32 -29 60 -84 114 -89 87 -122 151 -210
406 -34 102 -66 192 -70 201 -5 13 0 18 26 23 18 4 103 42 188 85 163 82 288
136 297 127 14 -14 -93 -315 -166 -465 -30 -62 -41 -97 -41 -130 1 -128 113
-222 227 -191 71 20 117 74 194 225 137 267 213 503 206 636 -6 125 -74 229
-184 280 -68 32 -229 37 -328 10z"/>
</g>
</svg>
