<?xml version="1.0" standalone="no"?>
<!DOCTYPE svg PUBLIC "-//W3C//DTD SVG 20010904//EN"
 "http://www.w3.org/TR/2001/REC-SVG-20010904/DTD/svg10.dtd">
<svg version="1.0" xmlns="http://www.w3.org/2000/svg"
 width="600.000000pt" height="600.000000pt" viewBox="0 0 600.000000 600.000000"
 preserveAspectRatio="xMidYMid meet">
<metadata>
Created by potrace 1.15, written by Peter Selinger 2001-2017
</metadata>
<g transform="translate(0.000000,600.000000) scale(0.100000,-0.100000)"
fill="#16364b" stroke="none">
<path d="M1553 5781 c-25 -15 -48 -51 -94 -143 -142 -283 -177 -397 -146 -470
21 -50 58 -72 121 -72 86 2 187 64 376 236 151 137 180 171 180 214 0 93 -89
152 -168 110 -15 -8 -61 -49 -102 -90 -41 -42 -78 -76 -82 -76 -4 0 14 43 39
95 43 90 45 98 35 134 -15 49 -41 72 -89 77 -27 4 -47 -1 -70 -15z"/>
<path d="M840 5536 c-71 -21 -92 -31 -147 -73 -90 -67 -150 -159 -172 -261
-26 -123 36 -263 148 -334 94 -59 190 -19 191 80 0 38 -6 49 -50 96 -40 42
-50 60 -50 87 1 77 97 179 168 179 21 0 54 -11 77 -25 48 -30 70 -31 113 -5
41 25 72 76 72 119 0 44 -58 102 -127 125 -66 23 -168 29 -223 12z"/>
<path d="M2335 5427 l-33 -33 0 -205 c1 -178 -2 -214 -20 -282 -45 -166 -113
-259 -242 -336 -39 -23 -77 -53 -86 -66 -38 -59 -20 -154 36 -183 65 -33 206
25 310 128 63 63 121 171 169 315 49 148 63 251 59 456 l-3 181 -33 29 c-26
23 -42 29 -78 29 -39 0 -51 -5 -79 -33z"/>
<path d="M3511 5337 c-42 -21 -64 -62 -69 -126 -4 -51 0 -70 26 -125 40 -85
109 -158 185 -196 105 -52 191 -34 235 51 29 56 23 100 -25 189 -61 113 -112
159 -216 198 -67 25 -101 27 -136 9z"/>
<path d="M2945 5122 c-70 -33 -134 -122 -155 -216 -20 -92 11 -171 85 -214 34
-19 50 -22 105 -19 77 5 167 42 198 81 45 58 54 221 15 287 -10 18 -35 46 -56
62 -48 40 -131 48 -192 19z"/>
<path d="M4740 4762 c-32 -32 -39 -47 -45 -97 -10 -76 0 -233 20 -310 34 -134
122 -266 206 -311 22 -11 55 -18 90 -18 91 1 167 55 222 158 18 33 22 58 22
132 0 83 -3 95 -35 160 -71 142 -294 324 -396 324 -40 0 -51 -5 -84 -38z m256
-403 c8 -17 14 -38 12 -47 -3 -12 -11 -4 -26 25 -12 23 -22 47 -22 53 0 18 19
1 36 -31z"/>
<path d="M2715 4227 c-73 -19 -142 -56 -187 -101 -51 -51 -68 -86 -75 -150
-14 -135 103 -253 263 -264 129 -8 241 44 374 176 83 82 101 129 76 197 -23
60 -51 81 -152 115 -105 36 -222 47 -299 27z"/>
<path d="M1060 4092 c-52 -28 -80 -75 -80 -135 0 -44 4 -54 38 -87 30 -30 48
-40 87 -45 95 -12 152 -26 171 -40 18 -14 18 -15 -6 -35 -47 -39 -225 -120
-310 -141 -107 -27 -136 -42 -160 -82 -53 -86 15 -217 113 -217 122 0 468 141
574 233 32 29 45 36 39 22 -61 -160 8 -318 171 -392 111 -51 266 -28 341 50
110 115 110 314 0 433 -46 50 -102 80 -178 94 -69 13 -154 -7 -225 -54 -27
-19 -51 -33 -52 -32 -2 1 2 18 7 37 47 164 -76 329 -285 383 -33 8 -94 18
-135 21 -63 5 -81 3 -110 -13z"/>
<path d="M4300 3780 c-171 -27 -306 -135 -351 -281 -23 -74 -24 -111 -4 -170
31 -91 109 -158 215 -185 101 -26 210 6 289 85 86 86 158 252 168 388 7 87 -7
115 -70 143 -51 22 -172 32 -247 20z m0 -300 c0 -15 -38 -50 -55 -50 -23 0
-18 16 11 39 29 23 44 27 44 11z"/>
<path d="M5157 3551 c-125 -34 -227 -115 -279 -219 -19 -39 -23 -63 -23 -137
0 -81 3 -95 29 -143 56 -100 141 -147 259 -140 138 7 251 84 311 213 51 107
56 196 16 274 -36 71 -171 171 -230 170 -8 0 -45 -8 -83 -18z m20 -328 c-9 -9
-19 -14 -22 -11 -3 3 2 13 11 22 9 9 19 14 22 11 3 -3 -2 -13 -11 -22z"/>
<path d="M2550 3494 c-115 -31 -228 -134 -287 -261 -19 -42 -50 -137 -69 -212
-19 -74 -44 -150 -55 -168 -29 -47 -105 -110 -147 -124 -61 -19 -182 -87 -249
-140 -181 -145 -342 -383 -394 -587 -128 -499 95 -928 561 -1084 91 -30 103
-32 255 -32 137 -1 173 2 250 23 201 52 340 127 465 251 70 70 95 103 137 185
28 55 60 127 71 160 18 54 67 262 106 455 38 184 45 388 21 612 -20 188 -30
248 -76 427 -48 190 -89 271 -179 361 -75 74 -140 112 -225 135 -72 18 -113
18 -185 -1z m139 -423 c48 -67 104 -306 132 -560 16 -153 6 -479 -20 -622 -46
-253 -98 -361 -225 -463 -65 -52 -215 -128 -288 -145 -146 -35 -325 8 -446
106 -90 73 -122 160 -122 328 0 132 21 228 73 331 66 132 171 233 288 279 144
56 297 180 377 303 39 60 79 167 117 312 19 70 38 114 63 143 21 23 27 22 51
-12z"/>
<path d="M3424 3390 c-37 -15 -98 -95 -146 -192 -26 -52 -50 -106 -53 -120
-15 -60 53 -139 120 -137 82 2 176 62 215 139 67 133 64 267 -9 304 -32 17
-93 20 -127 6z"/>
<path d="M393 2311 c-37 -23 -63 -68 -63 -108 0 -44 74 -253 133 -376 125
-260 266 -387 430 -387 79 0 128 20 174 74 43 48 57 96 50 173 -15 188 -211
397 -564 602 -74 42 -118 48 -160 22z m386 -467 c107 -117 139 -216 34 -108
-64 66 -141 194 -105 175 10 -6 42 -36 71 -67z"/>
<path d="M4342 2034 c-18 -9 -41 -28 -52 -41 l-19 -24 -38 25 c-77 51 -160 43
-212 -21 -41 -50 -46 -98 -27 -250 25 -195 54 -322 85 -378 89 -159 297 -144
371 27 33 76 100 435 100 533 0 107 -114 177 -208 129z"/>
</g>
</svg>
