<?xml version="1.0" standalone="no"?>
<!DOCTYPE svg PUBLIC "-//W3C//DTD SVG 20010904//EN"
 "http://www.w3.org/TR/2001/REC-SVG-20010904/DTD/svg10.dtd">
<svg version="1.0" xmlns="http://www.w3.org/2000/svg"
 width="600.000000pt" height="600.000000pt" viewBox="0 0 600.000000 600.000000"
 preserveAspectRatio="xMidYMid meet">
<metadata>
Created by potrace 1.15, written by Peter Selinger 2001-2017
</metadata>
<g transform="translate(0.000000,600.000000) scale(0.100000,-0.100000)"
fill="#16364b" stroke="none">
<path d="M2992 5520 c-67 -41 -91 -159 -45 -216 10 -12 31 -38 46 -57 63 -78
84 -218 52 -340 -20 -76 -19 -100 5 -146 55 -110 211 -108 260 2 22 50 50 199
50 267 0 186 -90 399 -203 481 -50 36 -115 39 -165 9z"/>
<path d="M2005 5426 c-16 -8 -43 -28 -60 -45 -27 -29 -30 -38 -30 -99 1 -115
67 -204 202 -275 111 -58 111 -59 153 -312 21 -127 33 -154 90 -192 68 -47
152 -18 199 66 l23 43 -22 155 c-26 187 -42 250 -78 317 -39 73 -91 120 -182
166 -66 33 -80 44 -80 64 0 13 -10 38 -23 57 -41 62 -124 85 -192 55z"/>
<path d="M1458 4780 c-79 -10 -120 -35 -148 -90 -25 -49 -25 -83 -1 -137 34
-74 45 -77 306 -84 234 -7 259 -11 374 -56 79 -31 121 -25 167 21 59 59 55
152 -9 219 -38 40 -152 87 -272 112 -93 19 -320 28 -417 15z"/>
<path d="M4355 4703 c-37 -9 -83 -52 -95 -89 -22 -66 -8 -116 52 -191 98 -122
148 -221 188 -375 33 -124 54 -159 111 -182 95 -38 189 37 189 151 0 65 -42
219 -89 325 -72 164 -208 338 -279 358 -39 10 -45 11 -77 3z"/>
<path d="M3175 4478 c-11 -6 -67 -57 -125 -113 -120 -116 -218 -196 -371 -301
-139 -96 -159 -120 -159 -187 0 -70 27 -112 87 -139 38 -17 54 -19 88 -11 48
11 319 196 434 296 106 93 229 233 242 277 29 97 -39 190 -138 190 -21 0 -47
-6 -58 -12z"/>
<path d="M1665 4344 c-135 -70 -119 -244 26 -282 95 -25 290 -45 464 -46 165
-1 183 1 215 20 96 56 107 167 25 244 -26 24 -33 25 -203 32 -101 4 -229 15
-297 27 -145 25 -190 26 -230 5z"/>
<path d="M3775 3968 c-22 -12 -89 -57 -148 -101 -179 -132 -219 -153 -613
-332 -63 -29 -73 -37 -94 -79 -51 -105 19 -216 135 -216 65 0 339 125 549 251
151 90 357 247 379 289 25 48 18 122 -14 156 -54 58 -124 69 -194 32z"/>
<path d="M2180 3778 c-104 -19 -325 -28 -473 -19 -56 3 -73 0 -95 -16 -62 -45
-79 -136 -39 -213 29 -58 64 -77 167 -89 213 -27 593 11 687 69 103 62 78 235
-40 279 -38 14 -81 12 -207 -11z"/>
<path d="M5055 3661 c-101 -26 -185 -126 -185 -222 0 -13 7 -58 16 -99 35
-166 5 -268 -169 -560 -107 -181 -149 -242 -219 -322 -69 -79 -100 -143 -100
-207 0 -160 177 -263 332 -194 82 36 212 216 491 677 132 218 175 443 130 665
-25 119 -47 167 -93 206 -57 48 -141 71 -203 56z"/>
<path d="M1968 3129 c-73 -38 -98 -137 -55 -213 40 -71 166 -116 377 -136 63
-6 141 -18 172 -27 78 -21 134 -6 183 48 29 33 35 47 35 85 0 117 -91 173
-325 200 -129 15 -201 29 -252 51 -45 18 -91 16 -135 -8z"/>
<path d="M4418 3128 c-20 -5 -66 -35 -105 -69 -228 -198 -517 -320 -840 -354
-108 -11 -127 -16 -159 -40 -89 -68 -82 -186 16 -252 80 -55 378 -11 631 92
131 54 334 152 411 198 92 57 207 155 228 197 25 49 26 122 3 162 -34 57 -113
85 -185 66z"/>
<path d="M1372 2929 c-92 -46 -107 -96 -92 -292 25 -313 50 -473 101 -642 76
-247 206 -405 333 -405 59 0 141 43 173 91 50 75 43 160 -18 241 -118 156
-186 401 -197 710 -7 186 -7 187 -37 229 -59 84 -171 113 -263 68z"/>
<path d="M2074 2336 c-93 -42 -109 -160 -31 -233 35 -34 68 -46 170 -63 74
-12 150 -42 211 -83 94 -65 231 -3 244 109 9 80 -33 130 -164 198 -112 58
-367 101 -430 72z"/>
<path d="M4165 2099 c-22 -4 -107 -28 -189 -53 -82 -26 -208 -58 -280 -71 -72
-14 -200 -41 -284 -61 -210 -48 -230 -51 -378 -64 -147 -13 -196 -31 -232 -84
-73 -108 -37 -247 80 -307 69 -36 246 -20 504 45 77 19 190 44 253 56 152 28
266 59 448 119 84 28 161 51 171 51 34 0 117 50 140 84 93 137 -57 322 -233
285z"/>
<path d="M4824 1716 c-16 -7 -55 -41 -85 -75 -73 -84 -153 -143 -279 -206
-202 -101 -368 -154 -672 -216 -111 -22 -215 -47 -230 -55 -46 -24 -79 -77
-85 -136 -4 -45 -1 -61 24 -108 56 -107 148 -141 273 -102 36 11 156 41 267
66 275 63 386 98 535 165 159 73 274 149 388 258 108 102 135 151 127 228 -9
87 -57 160 -120 184 -38 15 -105 13 -143 -3z"/>
<path d="M2085 1566 c-66 -29 -105 -106 -91 -180 14 -76 139 -219 266 -304
137 -91 330 -162 406 -147 52 9 120 77 129 129 16 83 -37 166 -118 186 -138
34 -255 106 -357 219 -41 45 -87 89 -102 97 -33 17 -93 18 -133 0z"/>
<path d="M2046 960 c-87 -26 -143 -106 -132 -188 10 -75 47 -116 174 -194 365
-222 556 -269 899 -219 150 23 291 54 331 75 138 72 127 277 -19 350 -66 33
-111 33 -220 1 -328 -95 -525 -67 -812 117 -99 64 -153 78 -221 58z"/>
</g>
</svg>
