<?xml version="1.0" standalone="no"?>
<!DOCTYPE svg PUBLIC "-//W3C//DTD SVG 20010904//EN"
 "http://www.w3.org/TR/2001/REC-SVG-20010904/DTD/svg10.dtd">
<svg version="1.0" xmlns="http://www.w3.org/2000/svg"
 width="600.000000pt" height="600.000000pt" viewBox="0 0 600.000000 600.000000"
 preserveAspectRatio="xMidYMid meet">
<metadata>
Created by potrace 1.15, written by Peter Selinger 2001-2017
</metadata>
<g transform="translate(0.000000,600.000000) scale(0.100000,-0.100000)"
fill="#16364b" stroke="none">
<path d="M1545 5776 c-16 -7 -38 -22 -47 -32 -35 -40 -104 -268 -129 -426 -29
-192 26 -303 151 -301 90 1 179 60 347 232 126 128 203 234 203 278 0 77 -53
133 -125 133 -52 0 -86 -21 -134 -85 -55 -72 -172 -207 -177 -203 -4 5 27 106
60 192 44 115 29 179 -50 212 -41 17 -60 17 -99 0z"/>
<path d="M850 5516 c-105 -29 -180 -85 -242 -180 -72 -112 -95 -236 -62 -346
21 -71 119 -172 183 -190 81 -22 161 32 161 108 -1 47 -15 72 -68 117 -36 32
-42 42 -42 76 0 48 17 84 62 125 64 61 93 66 175 32 48 -19 55 -20 90 -7 70
27 103 112 68 179 -39 76 -204 120 -325 86z"/>
<path d="M3443 5403 c-12 -2 -36 -20 -53 -39 -51 -59 -34 -127 44 -175 27 -17
30 -22 28 -66 -6 -124 167 -293 298 -293 43 0 55 5 88 34 36 34 37 36 37 108
0 69 -3 78 -44 148 -56 94 -135 171 -237 232 -79 47 -119 60 -161 51z"/>
<path d="M2377 5296 c-78 -28 -97 -66 -97 -196 0 -117 -23 -227 -66 -317 -38
-80 -64 -105 -174 -169 -43 -25 -85 -55 -92 -67 -38 -58 -29 -128 23 -172 46
-38 94 -34 192 17 118 61 191 138 256 270 60 121 88 222 102 373 18 180 4 231
-68 261 -18 8 -34 14 -35 14 -2 -1 -20 -7 -41 -14z"/>
<path d="M2995 5161 c-76 -19 -135 -72 -179 -159 -76 -150 -37 -299 86 -332
89 -25 274 41 309 110 26 50 41 136 34 192 -17 120 -143 216 -250 189z"/>
<path d="M4742 4756 l-37 -35 0 -173 c0 -142 4 -183 19 -228 39 -114 102 -191
191 -232 72 -33 203 -33 261 0 112 65 132 208 52 372 -67 138 -303 330 -405
330 -35 0 -50 -6 -81 -34z m268 -428 c0 -18 -27 11 -33 35 -6 22 -6 22 14 -2
10 -13 19 -28 19 -33z"/>
<path d="M2727 4200 c-20 -5 -59 -21 -86 -34 -111 -57 -155 -121 -155 -226 0
-211 233 -315 491 -218 75 28 231 134 260 177 44 65 21 186 -43 228 -14 9 -63
30 -107 46 -70 25 -100 30 -202 33 -66 2 -137 -1 -158 -6z"/>
<path d="M1052 4063 c-66 -32 -100 -107 -81 -177 14 -51 65 -103 110 -110 113
-17 212 -36 218 -41 21 -21 -222 -169 -369 -225 -139 -54 -151 -61 -178 -112
-52 -97 8 -201 116 -202 56 -1 205 61 385 160 65 35 120 64 121 64 2 0 6 -13
9 -29 8 -38 63 -100 104 -117 18 -8 48 -14 68 -14 25 0 48 -10 82 -36 73 -56
119 -74 193 -74 52 0 75 6 115 28 56 30 110 101 121 158 26 138 -83 266 -248
294 -65 11 -93 10 -185 -6 l-33 -6 15 42 c8 23 15 68 15 99 0 156 -136 268
-372 306 -118 19 -165 19 -206 -2z"/>
<path d="M4188 3755 c-105 -29 -208 -119 -241 -211 -22 -64 -22 -157 2 -209
27 -60 112 -132 179 -151 79 -23 191 -15 265 21 114 53 197 172 221 316 18
109 -1 172 -65 204 -76 40 -268 56 -361 30z m77 -285 c-19 -21 -55 -27 -55
-10 0 12 31 29 54 30 18 0 18 -1 1 -20z"/>
<path d="M5127 3486 c-118 -49 -215 -135 -263 -232 -40 -81 -46 -198 -14 -272
47 -109 154 -168 288 -160 155 9 257 89 307 238 25 75 25 180 0 248 -21 58
-108 163 -156 187 -40 21 -95 18 -162 -9z"/>
<path d="M3425 3391 c-85 -51 -205 -254 -205 -345 0 -41 5 -53 34 -82 43 -43
79 -46 169 -17 86 27 145 96 187 218 37 109 19 194 -49 230 -40 20 -99 19
-136 -4z"/>
<path d="M2480 3243 c-14 -2 -57 -20 -96 -38 -130 -62 -217 -178 -290 -383
-56 -159 -92 -204 -216 -269 -82 -44 -226 -155 -275 -212 -113 -131 -213 -316
-255 -471 -20 -72 -23 -108 -22 -240 0 -139 3 -164 28 -245 72 -238 184 -369
414 -484 235 -118 502 -159 682 -105 229 68 513 320 635 564 102 203 155 480
155 808 0 276 -37 409 -160 577 -28 39 -65 97 -82 130 -86 170 -194 296 -293
341 -55 26 -168 39 -225 27z m103 -431 c20 -26 44 -71 55 -99 11 -28 47 -90
81 -137 100 -139 133 -229 146 -396 16 -216 -57 -549 -153 -700 -68 -108 -212
-235 -316 -280 -159 -68 -347 -40 -496 75 -239 184 -263 453 -65 730 58 82
128 143 234 207 227 135 323 255 405 503 23 72 59 145 70 145 2 0 20 -21 39
-48z"/>
<path d="M611 2484 c-26 -18 -51 -71 -51 -106 0 -13 9 -40 20 -61 l20 -37 -24
0 c-38 0 -90 -42 -104 -84 -15 -48 -6 -87 52 -211 56 -119 106 -196 173 -267
180 -188 410 -177 515 26 32 61 37 192 10 271 -59 174 -197 316 -432 444 -83
45 -139 53 -179 25z m147 -287 c147 -96 232 -207 232 -304 0 -39 -4 -55 -15
-59 -47 -18 -144 75 -200 190 -42 88 -94 216 -88 216 2 0 35 -20 71 -43z"/>
<path d="M4258 2160 c-47 -14 -90 -52 -109 -96 l-19 -42 -37 19 c-69 35 -140
21 -194 -38 -61 -65 -62 -153 -4 -379 38 -148 59 -192 108 -226 18 -12 57 -47
87 -78 42 -44 66 -59 103 -68 68 -18 128 0 182 52 56 54 82 127 95 263 13 142
13 454 -1 490 -31 83 -126 129 -211 103z"/>
</g>
</svg>
