<?xml version="1.0" standalone="no"?>
<!DOCTYPE svg PUBLIC "-//W3C//DTD SVG 20010904//EN"
 "http://www.w3.org/TR/2001/REC-SVG-20010904/DTD/svg10.dtd">
<svg version="1.0" xmlns="http://www.w3.org/2000/svg"
 width="600.000000pt" height="600.000000pt" viewBox="0 0 600.000000 600.000000"
 preserveAspectRatio="xMidYMid meet">
<metadata>
Created by potrace 1.15, written by Peter Selinger 2001-2017
</metadata>
<g transform="translate(0.000000,600.000000) scale(0.100000,-0.100000)"
fill="#16364b" stroke="none">
<path d="M2190 5463 c-63 -25 -103 -119 -102 -240 1 -122 56 -218 150 -261 53
-24 61 -25 189 -19 73 3 133 3 133 1 0 -2 -22 -57 -49 -122 -27 -64 -81 -194
-120 -288 -39 -95 -71 -184 -71 -198 0 -58 54 -120 114 -131 42 -8 109 19 140
56 13 15 32 50 42 76 30 83 120 293 184 433 54 116 64 145 68 207 6 87 -18
144 -81 198 -60 52 -119 66 -272 66 l-130 -1 3 54 c7 99 -47 166 -137 172 -25
2 -53 1 -61 -3z"/>
<path d="M3744 5309 c-69 -9 -147 -36 -180 -61 -47 -38 -68 -121 -43 -171 41
-79 97 -97 208 -66 89 24 126 21 135 -13 19 -72 -6 -209 -63 -353 -17 -42 -31
-91 -31 -108 0 -50 32 -99 80 -124 54 -29 84 -29 140 0 36 17 50 33 72 77 50
104 102 284 112 395 17 179 -59 317 -217 390 -78 36 -133 45 -213 34z"/>
<path d="M1716 4889 c-171 -25 -425 -127 -484 -193 -67 -76 -38 -193 60 -239
44 -21 47 -24 48 -61 0 -54 34 -121 73 -145 20 -12 81 -27 157 -40 166 -27
281 -61 392 -117 77 -39 98 -45 132 -41 69 10 128 71 141 148 5 31 2 50 -17
87 -21 43 -31 51 -127 99 -102 50 -241 96 -395 129 -90 19 -87 24 28 49 56 13
101 16 155 12 61 -5 84 -2 116 12 115 51 138 188 44 263 -55 44 -177 58 -323
37z"/>
<path d="M3105 4346 c-77 -30 -194 -77 -260 -106 -66 -29 -172 -72 -235 -97
-63 -25 -128 -55 -144 -66 -33 -23 -56 -72 -56 -120 0 -68 74 -137 147 -137
38 0 170 45 463 160 124 48 248 96 275 106 99 36 125 68 125 154 0 95 -56 161
-137 160 -21 -1 -100 -25 -178 -54z"/>
<path d="M4229 4307 c-89 -59 -88 -182 2 -236 23 -14 60 -19 172 -24 166 -7
234 -25 243 -64 13 -51 -3 -178 -36 -282 -22 -71 -31 -114 -27 -138 14 -83
105 -145 184 -124 62 17 82 47 118 179 47 175 58 245 52 331 -7 110 -39 183
-112 257 -94 95 -193 124 -431 124 -120 0 -134 -2 -165 -23z"/>
<path d="M2127 3854 c-100 -30 -247 -51 -414 -60 -147 -8 -180 -19 -209 -75
-21 -42 -15 -130 13 -167 43 -58 74 -67 225 -65 163 2 270 15 396 48 185 49
232 84 240 181 6 68 -23 118 -82 145 -51 23 -72 22 -169 -7z"/>
<path d="M3733 3758 c-65 -10 -103 -25 -338 -135 -104 -49 -221 -102 -258
-118 -112 -47 -149 -118 -109 -208 22 -50 53 -75 108 -87 50 -11 89 2 313 111
101 49 185 89 187 89 2 0 -6 -19 -16 -42 -11 -25 -20 -65 -20 -95 0 -44 5 -58
31 -88 61 -69 162 -70 212 -2 31 41 85 171 109 261 30 114 21 197 -28 256 -46
54 -102 71 -191 58z"/>
<path d="M4975 3293 c-82 -18 -137 -60 -171 -129 -25 -51 -26 -61 -20 -138 4
-52 3 -93 -4 -112 -6 -16 -73 -90 -148 -164 -222 -219 -282 -355 -285 -650 -2
-204 32 -298 125 -344 67 -34 135 -34 203 -2 115 54 161 162 125 291 -10 37
-11 57 0 103 23 104 53 149 199 292 143 141 183 197 229 318 24 60 26 81 27
207 0 164 -14 213 -75 269 -54 48 -141 73 -205 59z"/>
<path d="M2230 3229 c-200 -15 -208 -17 -246 -52 -64 -59 -52 -167 24 -225
l36 -27 180 0 c100 -1 186 -2 191 -3 6 -1 8 -24 7 -52 -3 -36 2 -62 17 -92 31
-64 64 -83 138 -83 52 0 66 4 88 25 45 42 58 78 63 182 6 116 -12 177 -71 244
-71 80 -179 101 -427 83z"/>
<path d="M4281 3155 c-18 -8 -60 -40 -93 -70 -155 -144 -371 -249 -584 -285
-77 -13 -124 -26 -144 -40 -85 -60 -83 -198 3 -250 79 -48 330 4 590 123 158
73 372 236 423 322 33 58 32 114 -3 156 -48 56 -123 74 -192 44z"/>
<path d="M1310 3019 c-102 -19 -160 -84 -160 -180 0 -42 27 -106 55 -129 26
-22 33 -49 50 -202 18 -159 59 -467 76 -568 15 -90 57 -225 83 -263 67 -99
216 -102 286 -5 54 75 58 140 15 258 -22 58 -60 342 -80 591 -20 255 -41 336
-110 417 -52 62 -140 95 -215 81z"/>
<path d="M2165 2508 c-95 -12 -214 -76 -300 -162 -93 -93 -127 -151 -127 -216
0 -58 25 -100 76 -124 80 -38 151 -12 241 89 69 78 136 128 143 107 14 -42 63
-91 110 -108 1 -1 -13 -27 -32 -59 -78 -128 -122 -297 -112 -426 8 -99 39
-221 71 -274 58 -101 206 -103 272 -5 29 42 29 70 -2 176 -42 145 -30 263 39
384 47 82 31 180 -38 237 l-36 30 15 36 c21 51 19 94 -9 152 -56 121 -171 181
-311 163z"/>
<path d="M3625 2189 c-38 -4 -146 -24 -240 -44 -93 -19 -267 -56 -386 -80
-119 -25 -227 -49 -240 -54 -96 -37 -134 -174 -76 -273 30 -51 107 -98 160
-98 16 0 127 22 246 49 289 66 518 110 617 117 l80 7 47 -36 c173 -132 378 35
289 236 -66 149 -231 208 -497 176z"/>
<path d="M4613 1609 c-55 -10 -74 -21 -140 -81 -94 -85 -150 -102 -383 -117
-92 -6 -187 -18 -234 -31 -153 -39 -356 -152 -504 -279 -61 -53 -85 -87 -105
-152 -4 -12 -21 -18 -61 -21 -45 -4 -67 -13 -115 -47 -96 -67 -144 -84 -236
-85 -156 -2 -291 70 -455 241 -100 104 -133 123 -214 123 -71 0 -149 -49 -183
-114 -20 -39 -20 -114 1 -154 43 -84 233 -261 362 -338 147 -87 271 -122 464
-130 150 -7 241 9 346 61 116 57 187 130 204 210 5 28 9 30 63 36 61 7 87 22
192 110 80 68 220 136 315 153 41 8 125 18 185 21 287 18 476 90 638 243 93
88 115 156 78 237 -16 36 -81 105 -99 105 -4 0 -23 4 -42 8 -19 5 -54 5 -77 1z"/>
</g>
</svg>
