<?xml version="1.0" standalone="no"?>
<!DOCTYPE svg PUBLIC "-//W3C//DTD SVG 20010904//EN"
 "http://www.w3.org/TR/2001/REC-SVG-20010904/DTD/svg10.dtd">
<svg version="1.0" xmlns="http://www.w3.org/2000/svg"
 width="600.000000pt" height="600.000000pt" viewBox="0 0 600.000000 600.000000"
 preserveAspectRatio="xMidYMid meet">
<metadata>
Created by potrace 1.15, written by Peter Selinger 2001-2017
</metadata>
<g transform="translate(0.000000,600.000000) scale(0.100000,-0.100000)"
fill="#16364b" stroke="none">
<path d="M2430 5458 c-41 -21 -50 -33 -98 -130 -65 -129 -82 -210 -62 -283 16
-57 58 -108 114 -138 60 -32 200 -30 369 7 71 16 130 26 133 24 2 -3 -39 -54
-92 -114 -197 -225 -313 -400 -385 -579 -27 -68 -30 -87 -25 -135 9 -74 35
-120 82 -148 45 -26 20 -27 359 13 198 23 254 26 406 21 162 -5 177 -4 207 14
50 31 74 76 69 133 -6 74 -57 130 -133 147 -87 21 -286 23 -447 5 -87 -9 -161
-14 -164 -12 -7 7 102 178 170 269 31 40 108 131 172 203 120 133 148 175 160
236 16 85 -42 176 -142 226 -89 43 -185 44 -372 2 -83 -18 -153 -30 -157 -27
-3 3 7 30 22 59 48 96 31 185 -43 215 -47 20 -92 17 -143 -8z"/>
<path d="M1619 5027 c-226 -76 -504 -300 -546 -440 -31 -100 54 -206 167 -207
61 0 232 -29 304 -51 87 -26 127 -63 152 -142 10 -31 31 -70 47 -87 83 -84
223 -47 258 68 10 36 10 51 -5 103 -25 93 -76 188 -128 241 -50 51 -153 107
-239 129 -27 7 -48 17 -46 23 6 18 139 84 206 103 111 30 170 111 142 196 -33
100 -140 122 -312 64z"/>
<path d="M4130 4830 c-139 -25 -382 -174 -416 -255 -45 -109 27 -225 139 -225
40 0 55 7 124 59 95 72 187 121 227 121 l29 0 -6 -82 c-7 -100 -48 -234 -123
-405 -30 -67 -54 -134 -54 -150 0 -40 52 -146 85 -171 43 -34 80 -35 240 -7
171 30 322 41 380 28 35 -8 40 -12 43 -41 5 -45 -28 -159 -104 -358 -35 -94
-64 -186 -64 -204 0 -130 164 -194 258 -100 36 35 115 233 173 429 70 236 65
360 -17 445 -95 98 -317 146 -538 117 -48 -7 -90 -10 -92 -9 -2 2 15 50 37
106 62 158 80 241 81 360 0 96 -2 109 -32 168 -18 36 -48 78 -72 99 -73 62
-198 94 -298 75z"/>
<path d="M2090 3955 c-175 -52 -245 -69 -402 -100 -205 -41 -214 -43 -251 -82
-56 -60 -55 -144 4 -202 52 -52 100 -52 371 -1 279 53 423 105 466 169 26 40
29 108 7 151 -31 59 -117 88 -195 65z"/>
<path d="M3750 3724 c-73 -20 -184 -80 -362 -197 -159 -104 -178 -125 -178
-200 0 -73 59 -142 133 -154 48 -7 118 26 282 136 66 45 125 81 132 81 17 0
-27 -157 -70 -252 -43 -93 -156 -288 -167 -288 -18 0 -50 -69 -50 -109 0 -79
56 -145 134 -156 86 -13 342 66 481 148 139 82 239 189 265 283 43 153 -151
269 -247 148 -46 -59 -123 -137 -128 -132 -3 3 10 52 29 109 46 138 59 217 54
341 -4 113 -19 158 -69 206 -55 52 -136 64 -239 36z"/>
<path d="M2383 3390 c-29 -6 -87 -19 -130 -30 -205 -55 -229 -68 -258 -145
-28 -73 -2 -145 65 -180 41 -21 87 -19 187 10 111 32 257 58 283 50 30 -9 25
-48 -16 -140 -20 -44 -40 -95 -46 -114 -28 -96 78 -216 174 -197 72 14 108 73
185 296 37 108 38 216 1 285 -58 111 -156 166 -302 171 -50 2 -115 -1 -143 -6z"/>
<path d="M1185 3120 c-109 -23 -165 -66 -185 -141 -25 -93 48 -215 144 -241
l49 -13 -9 -185 c-26 -530 -2 -755 88 -836 40 -37 85 -54 140 -54 61 0 103 21
141 72 27 35 51 117 41 142 -4 11 5 18 35 26 48 13 93 56 125 119 70 137 260
391 278 373 7 -7 9 -77 6 -194 -5 -163 -8 -193 -33 -273 -77 -249 -78 -274
-20 -332 52 -52 118 -56 186 -10 45 30 62 63 102 197 43 142 64 262 77 450 9
122 9 158 -4 219 -41 194 -160 302 -318 288 -121 -11 -239 -100 -373 -279 -41
-55 -76 -105 -78 -112 -14 -38 -16 23 -5 183 13 206 4 317 -32 415 -27 70 -90
138 -155 167 -51 22 -143 32 -200 19z"/>
<path d="M4839 2917 c-105 -39 -163 -134 -157 -255 l3 -64 -122 -52 c-278
-120 -394 -239 -437 -448 -40 -194 0 -351 130 -517 l55 -70 -37 -16 c-20 -8
-54 -31 -75 -50 -22 -19 -45 -35 -52 -35 -7 0 -69 14 -137 31 -159 39 -290 48
-380 25 -187 -47 -362 -182 -514 -398 -26 -37 -62 -77 -81 -88 -19 -12 -48
-39 -65 -60 -88 -111 -181 -109 -308 6 -68 60 -130 147 -193 270 -57 112 -87
149 -144 175 -45 21 -119 25 -162 8 -63 -23 -122 -109 -123 -176 0 -56 112
-254 240 -423 116 -153 254 -267 378 -312 44 -17 81 -22 163 -22 l107 -1 93
47 c52 27 121 72 154 101 33 29 81 65 107 80 37 21 63 51 119 133 39 58 98
131 130 163 124 124 203 144 394 96 131 -33 265 -43 333 -25 191 52 326 190
293 301 -6 20 -11 39 -11 41 0 3 18 8 41 12 147 23 224 168 172 321 -12 35
-35 68 -84 117 -68 67 -89 108 -89 169 0 44 48 74 219 133 124 43 179 73 247
138 96 90 137 230 116 397 -15 127 -52 190 -136 233 -50 26 -139 33 -187 15z"/>
<path d="M3340 2406 c-41 -8 -113 -23 -160 -34 -47 -11 -164 -36 -261 -56 -97
-19 -198 -43 -225 -52 -91 -30 -144 -103 -144 -199 0 -62 14 -97 57 -137 64
-61 123 -62 350 -8 299 72 381 90 410 90 27 0 28 -2 29 -53 2 -144 142 -239
264 -177 82 42 123 143 124 305 1 104 -1 113 -29 164 -73 133 -226 190 -415
157z"/>
</g>
</svg>
