<?xml version="1.0" standalone="no"?>
<!DOCTYPE svg PUBLIC "-//W3C//DTD SVG 20010904//EN"
 "http://www.w3.org/TR/2001/REC-SVG-20010904/DTD/svg10.dtd">
<svg version="1.0" xmlns="http://www.w3.org/2000/svg"
 width="600.000000pt" height="600.000000pt" viewBox="0 0 600.000000 600.000000"
 preserveAspectRatio="xMidYMid meet">
<metadata>
Created by potrace 1.15, written by Peter Selinger 2001-2017
</metadata>
<g transform="translate(0.000000,600.000000) scale(0.100000,-0.100000)"
fill="#16364b" stroke="none">
<path d="M1905 5804 c-51 -26 -64 -44 -119 -158 -53 -111 -94 -184 -219 -389
-95 -156 -107 -234 -45 -312 55 -70 174 -86 289 -36 138 59 564 356 602 419
21 37 22 113 2 151 -21 41 -68 77 -109 85 -59 11 -105 -9 -201 -88 -49 -41
-91 -73 -93 -71 -2 2 20 52 48 112 47 98 51 113 48 165 -3 44 -10 64 -29 84
-50 54 -116 69 -174 38z"/>
<path d="M3003 5684 c-56 -28 -68 -49 -68 -119 0 -57 3 -67 30 -95 17 -17 70
-54 118 -82 216 -123 374 -276 446 -432 27 -57 35 -87 32 -129 -1 -21 -57 -57
-88 -57 -40 0 -103 -31 -124 -62 -70 -98 6 -238 128 -238 53 0 156 26 205 51
63 32 135 105 165 168 35 74 43 183 18 267 -22 77 -86 203 -140 280 -95 133
-328 315 -536 420 -95 47 -134 53 -186 28z"/>
<path d="M937 5404 c-178 -43 -328 -189 -366 -355 -24 -101 -5 -226 46 -321
65 -120 227 -237 307 -223 147 28 185 210 61 295 -93 64 -120 127 -90 205 21
56 58 83 146 105 82 21 113 40 139 82 46 75 30 160 -39 205 -40 27 -112 30
-204 7z"/>
<path d="M2895 5091 c-124 -30 -235 -186 -237 -331 -1 -98 43 -169 137 -218
46 -25 60 -27 165 -27 100 0 121 3 163 24 75 37 105 112 73 184 -8 18 -16 61
-19 97 -9 125 -85 237 -181 265 -54 16 -57 16 -101 6z"/>
<path d="M4754 4877 c-88 -52 -109 -94 -100 -212 8 -122 29 -205 76 -300 93
-189 229 -273 372 -231 72 21 147 87 185 164 24 49 28 69 27 137 -1 90 -26
154 -89 224 -82 91 -332 231 -409 231 -23 -1 -50 -6 -62 -13z"/>
<path d="M1945 4742 c-28 -10 -71 -30 -97 -45 -107 -62 -117 -207 -18 -274 43
-30 111 -30 164 -2 61 32 77 24 99 -49 22 -74 61 -117 120 -133 55 -15 121 11
155 61 21 30 23 44 19 95 -6 71 -45 172 -93 238 -80 111 -219 154 -349 109z"/>
<path d="M2935 3986 c-152 -48 -239 -148 -240 -276 0 -110 56 -188 180 -246
117 -54 369 -91 448 -65 80 27 122 117 93 198 -15 42 -15 42 14 63 42 30 65
96 51 147 -16 58 -41 85 -114 121 -138 67 -324 92 -432 58z"/>
<path d="M1200 3983 c-123 -16 -237 -45 -271 -68 -82 -54 -104 -176 -46 -263
36 -56 118 -95 187 -90 27 1 50 0 50 -4 0 -3 -37 -57 -82 -120 -44 -62 -121
-168 -169 -235 -122 -170 -199 -298 -260 -433 -74 -164 -70 -236 16 -308 88
-72 217 -66 285 14 14 16 45 45 70 64 25 19 153 122 285 230 232 189 395 318
424 335 12 7 13 -7 9 -86 -7 -112 -29 -185 -135 -448 -124 -309 -221 -500
-318 -629 -74 -98 -70 -177 10 -238 47 -36 135 -45 184 -19 68 35 266 379 367
638 19 48 70 168 113 265 102 229 112 264 118 442 9 248 -19 357 -104 406 -54
32 -111 40 -184 25 -67 -14 -146 -60 -282 -162 -56 -43 -104 -76 -106 -74 -2
2 30 50 72 106 152 207 207 327 193 426 -12 91 -77 171 -166 204 -55 21 -188
32 -260 22z"/>
<path d="M4240 3784 c-192 -41 -310 -164 -310 -324 0 -141 85 -266 216 -316
66 -25 175 -16 243 21 107 59 195 190 261 387 33 97 33 98 16 143 -22 56 -52
80 -117 94 -68 15 -230 12 -309 -5z m46 -330 c-28 -25 -46 -28 -49 -9 -2 12
64 47 72 39 4 -3 -7 -17 -23 -30z"/>
<path d="M3412 3389 c-52 -26 -95 -87 -148 -209 -84 -192 -43 -288 126 -298
183 -11 309 98 318 275 5 85 -9 132 -51 180 -63 71 -163 92 -245 52z"/>
<path d="M4968 3067 c-39 -17 -124 -90 -186 -160 -134 -152 -162 -343 -66
-456 91 -105 262 -92 385 31 104 103 163 297 129 420 -13 45 -88 136 -133 161
-36 20 -90 21 -129 4z"/>
<path d="M3971 2598 c-109 -19 -181 -103 -181 -212 0 -42 11 -87 45 -178 25
-67 44 -123 42 -124 -1 -1 -29 7 -62 18 -162 56 -304 0 -382 -152 -26 -52 -28
-62 -28 -185 0 -146 17 -241 70 -401 46 -138 86 -224 122 -261 94 -96 246
-108 342 -27 70 60 88 162 52 294 -19 67 -16 85 8 56 6 -8 35 -24 63 -36 63
-27 124 -22 206 17 113 53 172 143 180 274 5 94 -4 137 -78 369 -33 102 -73
236 -89 298 -16 61 -39 128 -51 146 -20 33 -101 95 -124 96 -6 1 -29 4 -51 8
-22 5 -60 5 -84 0z"/>
<path d="M2011 2190 c-92 -42 -269 -271 -286 -369 -8 -47 7 -107 39 -154 l24
-35 -52 -55 c-65 -70 -112 -148 -149 -250 -26 -71 -30 -100 -35 -217 -5 -143
3 -192 48 -313 67 -178 292 -407 483 -492 97 -42 202 -58 360 -52 159 5 226
19 332 72 135 66 287 221 316 322 13 48 6 126 -14 157 -12 18 -9 27 28 80 92
132 123 211 211 546 70 262 76 348 32 441 -35 76 -88 133 -156 166 -77 38
-193 39 -297 4 -98 -33 -275 -118 -373 -179 -46 -29 -87 -52 -92 -52 -4 0 -16
35 -25 78 -33 149 -90 241 -179 292 -64 37 -147 41 -215 10z m974 -552 c-39
-198 -100 -362 -189 -512 -82 -138 -90 -178 -49 -260 15 -28 14 -29 -49 -90
-74 -73 -132 -103 -221 -117 -144 -22 -288 26 -405 135 -104 97 -144 187 -144
326 0 114 39 193 114 231 22 11 41 19 42 17 1 -2 19 -38 40 -80 63 -126 128
-178 223 -178 142 1 245 139 187 252 -13 25 -14 33 -2 43 49 46 423 265 451
265 5 0 6 -15 2 -32z"/>
</g>
</svg>
