<?xml version="1.0" standalone="no"?>
<!DOCTYPE svg PUBLIC "-//W3C//DTD SVG 20010904//EN"
 "http://www.w3.org/TR/2001/REC-SVG-20010904/DTD/svg10.dtd">
<svg version="1.0" xmlns="http://www.w3.org/2000/svg"
 width="600.000000pt" height="600.000000pt" viewBox="0 0 600.000000 600.000000"
 preserveAspectRatio="xMidYMid meet">
<metadata>
Created by potrace 1.15, written by Peter Selinger 2001-2017
</metadata>
<g transform="translate(0.000000,600.000000) scale(0.100000,-0.100000)"
fill="#16364b" stroke="none">
<path d="M1454 5722 c-54 -32 -152 -89 -216 -126 -126 -72 -158 -102 -158
-147 0 -69 47 -109 128 -109 63 0 293 33 432 62 127 26 160 50 160 118 0 59
-35 90 -103 90 -48 0 -49 1 -34 18 28 30 22 98 -9 127 -44 41 -85 34 -200 -33z"/>
<path d="M2371 5422 c-27 -26 -28 -32 -34 -162 -4 -74 -14 -180 -22 -236 -44
-307 -98 -410 -257 -490 -98 -49 -118 -68 -118 -116 0 -28 7 -46 25 -63 37
-38 83 -33 194 21 171 83 264 204 310 402 27 118 51 301 58 452 5 106 3 132
-11 162 -30 62 -99 77 -145 30z"/>
<path d="M3522 5305 c-23 -17 -52 -75 -52 -105 0 -28 76 -171 112 -211 120
-132 251 -155 295 -51 13 31 14 45 4 82 -25 91 -131 235 -203 271 -56 28 -127
35 -156 14z"/>
<path d="M2986 5115 c-128 -46 -214 -249 -154 -365 48 -94 150 -112 269 -49
98 53 133 113 133 229 0 79 -36 139 -106 174 -58 29 -86 31 -142 11z m44 -241
c-18 -21 -24 -10 -9 18 8 14 14 18 17 10 2 -7 -2 -19 -8 -28z"/>
<path d="M4769 4755 c-46 -25 -52 -57 -47 -257 4 -156 8 -193 27 -248 67 -195
223 -267 346 -158 51 44 68 100 63 207 -4 81 -8 98 -45 173 -65 130 -233 299
-297 298 -12 -1 -33 -7 -47 -15z"/>
<path d="M2661 4211 c-83 -33 -141 -110 -141 -183 0 -49 42 -130 86 -166 64
-53 135 -74 235 -70 75 3 94 8 160 40 78 39 132 82 161 126 26 39 23 111 -5
153 -27 41 -63 60 -181 93 -110 32 -246 35 -315 7z"/>
<path d="M1091 4113 c-37 -18 -71 -66 -71 -99 0 -34 42 -87 80 -100 19 -6 61
-19 92 -28 71 -21 90 -42 28 -32 -23 4 -67 15 -98 26 -31 11 -67 20 -80 20
-56 0 -112 -56 -112 -112 0 -13 9 -38 20 -56 54 -89 361 -155 475 -103 67 30
115 104 115 177 0 37 -28 115 -56 155 -76 110 -303 198 -393 152z"/>
<path d="M5234 3791 c-141 -35 -238 -103 -287 -201 -34 -70 -32 -194 6 -275
65 -139 177 -200 318 -175 123 22 235 104 286 209 24 49 28 68 28 146 0 81 -3
95 -29 143 -31 56 -124 144 -170 162 -37 14 -68 12 -152 -9z m53 -308 c5 -14
-37 -55 -52 -50 -5 2 -12 12 -14 22 -6 33 56 60 66 28z"/>
<path d="M4209 3762 c-165 -44 -279 -180 -279 -338 0 -172 127 -281 316 -272
211 11 329 159 335 423 3 132 -32 170 -181 194 -86 14 -112 13 -191 -7z m71
-282 c0 -15 -38 -50 -55 -50 -22 0 -18 27 7 44 26 18 48 21 48 6z"/>
<path d="M1630 3690 c-24 -24 -26 -67 -6 -136 8 -27 24 -96 36 -154 28 -132
38 -150 89 -150 84 0 90 56 27 285 -28 99 -42 135 -62 153 -31 27 -58 28 -84
2z"/>
<path d="M3415 3329 c-51 -45 -169 -282 -161 -323 14 -70 65 -89 141 -51 111
54 212 239 184 338 -20 73 -101 91 -164 36z"/>
<path d="M1775 3074 c-92 -10 -285 -46 -350 -65 -94 -28 -156 -60 -242 -126
-123 -93 -198 -210 -230 -358 -30 -139 8 -284 111 -423 54 -73 126 -128 256
-197 142 -74 213 -150 319 -340 115 -204 148 -251 230 -327 80 -75 171 -123
306 -164 82 -25 104 -28 245 -28 138 0 166 3 250 27 103 29 351 75 580 108
377 54 537 134 811 408 173 174 240 258 299 376 55 111 73 197 68 315 -6 116
-28 174 -109 281 -127 168 -276 268 -435 291 -85 12 -140 4 -288 -41 -99 -29
-331 -55 -435 -47 -135 10 -201 31 -407 126 -318 147 -456 181 -754 185 -102
2 -203 1 -225 -1z m465 -391 c62 -16 159 -54 280 -112 324 -155 448 -187 710
-184 218 3 353 17 475 50 138 37 183 36 232 -3 21 -17 58 -55 82 -84 42 -51
43 -56 38 -105 -11 -106 -94 -231 -261 -393 -210 -203 -262 -225 -656 -278
-107 -14 -229 -32 -270 -40 -41 -8 -87 -14 -102 -14 -14 0 -62 -15 -105 -34
-212 -91 -362 -96 -478 -16 -60 41 -95 88 -220 290 -60 96 -128 200 -151 230
-88 114 -198 202 -350 278 -34 17 -71 43 -83 58 -57 72 -46 170 26 240 49 48
111 72 270 105 267 54 392 57 563 12z"/>
<path d="M415 2145 c-35 -34 -32 -65 20 -185 119 -272 223 -382 364 -384 74
-1 126 30 153 92 61 136 -60 296 -340 451 -109 60 -157 67 -197 26z"/>
<path d="M4894 1536 c-18 -8 -34 -19 -38 -24 -3 -6 -30 -8 -66 -5 -58 6 -60 5
-95 -30 -29 -29 -35 -42 -35 -78 0 -53 32 -201 55 -255 29 -69 86 -114 145
-114 111 0 172 99 200 327 12 92 11 104 -4 127 -34 53 -107 76 -162 52z"/>
</g>
</svg>
