<?xml version="1.0" standalone="no"?>
<!DOCTYPE svg PUBLIC "-//W3C//DTD SVG 20010904//EN"
 "http://www.w3.org/TR/2001/REC-SVG-20010904/DTD/svg10.dtd">
<svg version="1.0" xmlns="http://www.w3.org/2000/svg"
 width="600.000000pt" height="600.000000pt" viewBox="0 0 600.000000 600.000000"
 preserveAspectRatio="xMidYMid meet">
<metadata>
Created by potrace 1.15, written by Peter Selinger 2001-2017
</metadata>
<g transform="translate(0.000000,600.000000) scale(0.100000,-0.100000)"
fill="#16364b" stroke="none">
<path d="M3010 5049 c-69 -28 -130 -128 -130 -216 0 -41 5 -58 27 -83 25 -30
30 -32 74 -28 94 9 199 131 199 231 0 40 -5 53 -29 78 -24 23 -38 29 -73 28
-24 0 -54 -5 -68 -10z m108 -86 c4 -43 -28 -103 -78 -146 -55 -47 -78 -52 -92
-21 -14 29 1 98 29 141 24 36 73 64 108 61 26 -3 30 -8 33 -35z"/>
<path d="M4765 4710 c-15 -17 -21 -52 -31 -203 -7 -100 -13 -232 -14 -293 0
-98 3 -114 21 -138 15 -19 30 -26 54 -26 50 0 65 35 65 152 0 51 5 179 11 285
11 175 11 194 -5 217 -21 33 -74 36 -101 6z"/>
<path d="M1742 4559 c-54 -27 -115 -96 -130 -147 -26 -85 -10 -161 53 -254 41
-61 79 -173 100 -297 25 -141 65 -893 65 -1203 0 -287 23 -629 55 -810 44
-251 174 -444 360 -533 69 -34 244 -85 290 -85 19 0 20 -7 20 -177 0 -198 11
-269 71 -454 19 -58 34 -113 34 -122 0 -15 -13 -17 -85 -17 -103 0 -138 -15
-154 -63 -14 -40 -4 -72 30 -104 68 -61 242 -50 317 20 64 60 67 123 13 285
-22 64 -47 158 -57 207 -19 97 -24 280 -11 359 l9 48 36 -6 c20 -3 109 -10
196 -15 88 -6 222 -15 297 -22 76 -6 200 -10 276 -7 l138 4 1 -150 c1 -177 17
-252 90 -411 71 -154 72 -145 -29 -145 -133 0 -187 -30 -187 -105 0 -71 58
-107 170 -106 125 1 216 47 252 129 26 58 21 87 -42 233 -86 199 -125 402
-101 521 7 32 16 60 22 63 5 3 91 21 193 40 296 56 503 124 618 203 156 108
248 293 250 507 2 110 -13 175 -61 280 -71 153 -167 242 -358 331 -138 65
-181 78 -371 118 -92 19 -207 49 -256 66 -454 161 -888 436 -1077 685 -94 123
-278 412 -424 665 -43 74 -96 161 -119 194 -23 32 -55 80 -72 105 -40 60 -120
133 -175 162 -65 33 -188 37 -247 8z m171 -140 c39 -20 87 -72 124 -134 20
-33 49 -74 64 -91 14 -18 76 -115 137 -217 139 -233 343 -545 427 -651 113
-144 236 -250 450 -388 207 -133 284 -172 628 -317 55 -23 145 -53 200 -66 56
-14 157 -38 225 -54 173 -42 370 -133 442 -204 110 -111 165 -310 129 -467
-16 -72 -65 -163 -113 -212 -50 -52 -141 -109 -213 -133 -80 -28 -272 -73
-378 -89 -55 -9 -172 -27 -260 -40 -234 -37 -306 -40 -518 -27 -448 28 -633
45 -744 70 -309 67 -434 211 -482 551 -20 141 -32 340 -36 593 -5 304 -11 432
-36 817 -36 560 -60 686 -162 880 -44 84 -45 124 -6 166 25 27 84 33 122 13z"/>
<path d="M2527 2632 c-24 -27 -21 -59 9 -87 33 -31 57 -32 84 -3 24 26 26 70
4 92 -21 22 -77 20 -97 -2z"/>
<path d="M2972 2398 c-22 -22 -14 -75 14 -97 36 -28 68 -27 88 4 21 32 20 68
-2 88 -22 20 -83 22 -100 5z"/>
<path d="M5217 3956 c-160 -54 -235 -212 -184 -386 31 -103 132 -204 230 -231
146 -39 326 49 398 196 25 52 30 74 30 134 0 121 -56 209 -176 276 -59 32 -69
35 -147 35 -60 0 -102 -7 -151 -24z m160 -277 l28 -11 -29 -25 -30 -25 -18 22
c-36 45 -13 63 49 39z"/>
<path d="M4173 3736 c-164 -77 -248 -285 -170 -419 92 -156 319 -182 451 -51
61 61 91 134 89 224 -2 178 -87 270 -250 270 -51 0 -81 -6 -120 -24z m113
-251 c8 -20 -13 -45 -37 -45 -23 0 -24 9 -3 38 18 26 32 28 40 7z"/>
<path d="M5354 1111 c-12 -5 -32 -31 -45 -58 -19 -38 -24 -64 -24 -126 0 -74
2 -80 28 -103 42 -36 90 -33 132 9 58 58 77 201 32 252 -24 29 -86 42 -123 26z"/>
</g>
</svg>
