<?xml version="1.0" standalone="no"?>
<!DOCTYPE svg PUBLIC "-//W3C//DTD SVG 20010904//EN"
 "http://www.w3.org/TR/2001/REC-SVG-20010904/DTD/svg10.dtd">
<svg version="1.0" xmlns="http://www.w3.org/2000/svg"
 width="600.000000pt" height="600.000000pt" viewBox="0 0 600.000000 600.000000"
 preserveAspectRatio="xMidYMid meet">
<metadata>
Created by potrace 1.15, written by Peter Selinger 2001-2017
</metadata>
<g transform="translate(0.000000,600.000000) scale(0.100000,-0.100000)"
fill="#16364b" stroke="none">
<path d="M1960 5823 c-32 -12 -63 -44 -102 -105 -102 -157 -282 -455 -320
-530 -38 -74 -42 -91 -43 -154 0 -63 3 -75 29 -108 41 -54 104 -80 174 -72 74
9 145 46 362 190 102 68 225 147 274 177 101 61 126 93 126 160 0 81 -63 148
-147 156 -45 5 -55 1 -163 -65 -63 -39 -116 -69 -118 -67 -2 2 30 52 70 111
69 103 73 112 73 164 0 66 -21 100 -81 130 -38 19 -102 25 -134 13z"/>
<path d="M3025 5686 c-86 -39 -123 -152 -72 -227 16 -24 54 -51 132 -92 154
-81 291 -175 353 -241 59 -63 112 -165 120 -232 4 -40 2 -47 -30 -77 -22 -21
-59 -40 -98 -52 -99 -30 -150 -84 -150 -160 0 -84 56 -145 135 -145 54 0 174
34 243 69 86 44 137 93 174 169 31 62 33 74 32 162 -1 210 -112 419 -306 577
-103 85 -233 167 -343 219 -99 46 -139 52 -190 30z"/>
<path d="M955 5371 c-151 -44 -292 -155 -351 -276 -73 -151 -27 -329 126 -485
85 -86 142 -120 200 -120 82 0 150 69 150 150 -1 50 -20 79 -85 130 -73 57
-95 87 -101 136 -8 60 20 103 85 136 30 14 70 29 90 33 44 8 96 46 116 85 21
42 19 118 -5 158 -43 70 -111 86 -225 53z"/>
<path d="M2810 5025 c-66 -21 -115 -67 -151 -141 -79 -160 -32 -356 101 -424
59 -30 151 -41 239 -29 116 16 171 68 171 163 0 37 -6 51 -35 81 -33 36 -34
38 -20 66 33 62 12 138 -56 209 -73 75 -164 103 -249 75z"/>
<path d="M4785 4905 c-95 -51 -109 -90 -94 -253 21 -232 70 -362 164 -433 66
-49 122 -69 199 -69 105 0 184 51 239 154 19 35 22 57 22 146 0 95 -3 110 -27
155 -56 105 -157 195 -300 267 -95 47 -157 57 -203 33z"/>
<path d="M1930 4686 c-147 -41 -242 -135 -225 -224 8 -45 46 -97 85 -117 46
-24 128 -19 175 10 22 13 53 25 68 25 24 0 31 -7 48 -47 27 -65 72 -108 125
-123 117 -33 208 66 175 188 -58 220 -252 343 -451 288z"/>
<path d="M2964 3961 c-52 -13 -135 -64 -171 -106 -64 -72 -87 -137 -88 -240 0
-77 4 -98 27 -147 58 -124 166 -200 314 -221 64 -9 77 -8 114 8 59 27 93 74
97 138 7 87 -38 138 -136 157 -78 15 -105 30 -109 63 -5 41 36 54 104 33 71
-22 130 -20 172 6 36 22 72 85 72 128 0 42 -37 108 -72 130 -81 50 -229 73
-324 51z"/>
<path d="M1176 3944 c-111 -22 -225 -64 -263 -97 -87 -76 -97 -197 -24 -281
29 -33 75 -51 145 -56 l69 -5 -83 -100 c-103 -123 -159 -209 -215 -328 -70
-149 -195 -468 -202 -513 -11 -83 35 -160 122 -200 85 -40 151 -27 229 45 28
26 107 92 175 146 69 55 195 163 280 240 182 165 301 265 313 265 4 0 8 -18 8
-39 0 -183 -227 -750 -411 -1026 -85 -128 -89 -136 -89 -181 0 -126 177 -197
284 -113 79 62 225 349 390 768 109 274 139 412 140 631 1 142 -1 159 -22 205
-44 96 -101 135 -196 135 -101 0 -165 -36 -416 -234 -33 -26 -63 -47 -64 -45
-2 2 29 50 69 106 182 256 224 402 154 542 -66 131 -193 175 -393 135z"/>
<path d="M4190 3784 c-107 -29 -197 -100 -247 -196 -23 -45 -28 -65 -28 -133
0 -65 5 -89 25 -130 83 -171 257 -235 423 -157 81 37 168 120 216 204 46 82
93 226 85 263 -19 91 -70 128 -204 150 -117 18 -198 18 -270 -1z m58 -330
c-17 -17 -32 -25 -43 -20 -20 7 -11 24 19 36 42 17 51 11 24 -16z"/>
<path d="M3424 3391 c-82 -37 -159 -152 -199 -298 -28 -100 -1 -174 76 -214
37 -18 55 -21 138 -17 106 4 158 23 218 80 68 65 99 198 70 299 -41 137 -180
206 -303 150z"/>
<path d="M4900 2957 c-184 -157 -281 -339 -251 -471 20 -91 100 -164 194 -179
52 -8 142 17 203 58 64 41 115 103 151 181 25 53 28 70 28 169 0 127 -5 139
-88 229 -53 58 -56 60 -114 64 l-59 4 -64 -55z"/>
<path d="M4000 2554 c-45 -19 -97 -69 -121 -116 -35 -67 -34 -114 1 -263 17
-75 30 -138 28 -141 -3 -2 -32 7 -65 20 -137 56 -239 41 -328 -47 -70 -70 -98
-143 -97 -252 1 -93 2 -95 138 -543 41 -136 115 -196 239 -195 110 1 203 74
226 178 13 59 6 103 -34 208 -28 71 -25 82 12 43 35 -38 116 -68 180 -68 71 0
140 30 202 89 66 61 89 125 89 241 -1 94 -6 122 -100 494 -58 227 -66 251 -98
289 -20 23 -54 50 -76 60 -50 23 -147 24 -196 3z"/>
<path d="M2050 2151 c-79 -24 -160 -103 -232 -223 -66 -111 -63 -199 9 -279
19 -21 47 -41 63 -44 17 -4 32 -10 35 -14 2 -5 -21 -25 -51 -46 -78 -54 -159
-148 -200 -230 -88 -179 -54 -499 73 -692 113 -172 427 -359 660 -393 197 -29
411 52 589 222 122 117 148 189 105 285 -20 42 -89 103 -120 103 -9 1 -3 8 14
17 58 30 87 70 164 223 129 256 186 422 213 620 36 271 -108 443 -356 427
-108 -7 -173 -30 -425 -153 -117 -57 -217 -104 -220 -104 -4 0 -13 28 -20 62
-16 76 -39 123 -83 165 -58 56 -143 77 -218 54z m917 -465 c-12 -83 -95 -311
-166 -455 -43 -86 -71 -156 -71 -175 0 -84 51 -164 125 -196 l40 -18 -27 -11
c-16 -6 -57 -40 -93 -75 -89 -88 -154 -118 -265 -124 -147 -7 -262 37 -383
148 -71 65 -107 144 -114 251 -8 116 23 188 88 204 24 6 29 1 58 -50 38 -68
104 -141 145 -162 17 -9 54 -16 82 -16 75 0 134 37 168 105 41 82 31 156 -30
229 -36 44 -56 78 -68 116 -7 21 9 30 196 124 171 86 301 147 317 149 2 0 1
-20 -2 -44z"/>
</g>
</svg>
