<?xml version="1.0" standalone="no"?>
<!DOCTYPE svg PUBLIC "-//W3C//DTD SVG 20010904//EN"
 "http://www.w3.org/TR/2001/REC-SVG-20010904/DTD/svg10.dtd">
<svg version="1.0" xmlns="http://www.w3.org/2000/svg"
 width="600.000000pt" height="600.000000pt" viewBox="0 0 600.000000 600.000000"
 preserveAspectRatio="xMidYMid meet">
<metadata>
Created by potrace 1.15, written by Peter Selinger 2001-2017
</metadata>
<g transform="translate(0.000000,600.000000) scale(0.100000,-0.100000)"
fill="#16364b" stroke="none">
<path d="M1542 5773 c-44 -22 -63 -51 -105 -164 -109 -291 -122 -437 -46 -524
61 -69 163 -68 257 2 97 73 346 334 381 400 27 51 2 130 -51 159 -13 8 -43 13
-67 14 -49 0 -58 -8 -220 -185 -84 -93 -87 -84 -20 72 57 136 50 197 -27 229
-43 18 -61 17 -102 -3z"/>
<path d="M833 5535 c-106 -33 -204 -121 -256 -233 -43 -92 -50 -209 -16 -297
30 -80 127 -180 184 -191 52 -9 104 18 128 68 26 54 15 93 -44 150 -45 43 -49
51 -49 93 0 26 5 56 11 68 20 38 71 86 105 97 28 10 41 7 90 -16 50 -24 60
-25 94 -15 57 17 90 61 90 122 0 44 -4 53 -39 88 -71 71 -195 99 -298 66z"/>
<path d="M3464 5410 c-65 -26 -87 -131 -40 -187 20 -24 24 -37 19 -70 -16
-124 151 -293 290 -293 105 0 161 66 154 181 -8 126 -110 256 -263 337 -80 41
-118 49 -160 32z"/>
<path d="M2353 5326 c-60 -27 -67 -50 -59 -201 18 -324 -57 -477 -271 -555
-78 -28 -108 -58 -108 -111 0 -32 7 -46 37 -75 53 -53 108 -57 211 -14 186 77
290 208 344 431 23 97 25 418 2 463 -29 60 -99 87 -156 62z"/>
<path d="M2965 5146 c-169 -79 -243 -340 -124 -440 62 -53 142 -53 253 0 95
45 122 92 133 235 8 113 -19 178 -89 215 -41 21 -116 17 -173 -10z"/>
<path d="M4758 4794 c-15 -8 -33 -24 -40 -37 -19 -34 -26 -140 -16 -260 14
-186 57 -306 138 -388 138 -139 348 -83 421 111 65 172 -51 379 -301 533 -101
62 -147 71 -202 41z m242 -425 c23 -45 21 -65 -3 -27 -17 27 -31 68 -23 68 3
0 15 -18 26 -41z"/>
<path d="M2733 4200 c-86 -17 -163 -75 -200 -149 -28 -57 -24 -163 10 -227
100 -194 373 -189 607 12 85 73 105 106 105 176 0 55 -2 62 -36 92 -76 71
-345 123 -486 96z"/>
<path d="M1044 4072 c-60 -38 -82 -134 -45 -202 24 -46 79 -76 155 -84 63 -7
166 -35 166 -45 0 -3 -16 -19 -36 -35 -61 -48 -214 -121 -340 -161 -66 -21
-131 -46 -145 -56 -32 -22 -59 -76 -59 -116 0 -70 72 -143 140 -143 65 0 358
109 497 185 l61 34 7 -40 c8 -48 47 -96 95 -118 20 -9 51 -33 70 -54 52 -60
121 -91 205 -91 84 -1 132 21 189 84 49 54 66 97 66 163 0 109 -79 208 -192
242 -65 19 -160 19 -222 1 l-47 -14 8 31 c4 18 8 59 8 93 -1 113 -72 213 -190
268 -75 36 -193 66 -281 72 -67 5 -84 2 -110 -14z"/>
<path d="M4201 3774 c-110 -29 -195 -95 -236 -179 -57 -121 -26 -273 77 -372
59 -57 107 -76 196 -76 135 1 248 80 315 222 56 119 74 269 38 327 -46 76
-248 116 -390 78z m70 -303 c-15 -28 -61 -43 -61 -20 0 16 31 38 53 39 14 0
16 -4 8 -19z"/>
<path d="M5200 3533 c-14 -3 -61 -22 -105 -43 -201 -97 -308 -297 -250 -470
57 -170 285 -224 459 -109 102 68 163 199 154 332 -6 84 -26 130 -93 208 -60
70 -103 92 -165 82z"/>
<path d="M3425 3396 c-16 -7 -47 -31 -67 -54 -45 -50 -129 -222 -135 -277 -8
-81 65 -143 155 -131 58 8 121 37 156 72 76 76 118 249 79 324 -36 69 -116 98
-188 66z"/>
<path d="M2413 3262 c-133 -48 -218 -151 -292 -355 -53 -148 -81 -190 -158
-245 -296 -211 -441 -358 -542 -552 -98 -188 -128 -540 -62 -731 84 -246 261
-416 531 -513 206 -74 385 -74 614 0 385 124 598 402 689 899 18 101 22 157
22 350 0 234 -6 295 -46 460 -25 103 -30 114 -110 280 -108 221 -197 322 -339
388 -86 39 -226 48 -307 19z m191 -395 c14 -18 33 -51 42 -73 9 -21 41 -81 71
-132 122 -207 176 -477 139 -692 -34 -195 -107 -388 -192 -511 -130 -186 -341
-290 -526 -260 -168 28 -349 157 -398 286 -31 83 -38 204 -15 296 50 207 172
365 405 522 240 163 298 233 360 437 53 172 68 188 114 127z"/>
<path d="M553 2420 c-39 -23 -55 -52 -55 -98 0 -27 -8 -42 -39 -72 -53 -50
-52 -80 9 -217 118 -265 288 -440 462 -471 175 -32 318 102 297 279 -13 108
-100 270 -202 374 -64 66 -172 137 -285 187 -96 42 -140 47 -187 18z m228
-315 c117 -79 219 -207 219 -278 0 -14 -4 -29 -10 -32 -25 -16 -134 71 -200
161 -34 45 -110 184 -110 200 0 11 31 -5 101 -51z"/>
<path d="M4314 2131 c-32 -8 -94 -47 -94 -59 0 -4 -7 -15 -15 -26 -13 -17 -16
-17 -59 -1 -98 37 -204 -3 -247 -93 -22 -44 -22 -50 -10 -144 12 -96 66 -312
90 -355 6 -12 26 -34 45 -48 18 -14 45 -44 60 -68 44 -69 87 -92 171 -92 62 0
77 4 112 28 86 59 116 161 134 447 16 275 16 292 -10 333 -38 61 -111 94 -177
78z"/>
</g>
</svg>
