<?xml version="1.0" standalone="no"?>
<!DOCTYPE svg PUBLIC "-//W3C//DTD SVG 20010904//EN"
 "http://www.w3.org/TR/2001/REC-SVG-20010904/DTD/svg10.dtd">
<svg version="1.0" xmlns="http://www.w3.org/2000/svg"
 width="600.000000pt" height="600.000000pt" viewBox="0 0 600.000000 600.000000"
 preserveAspectRatio="xMidYMid meet">
<metadata>
Created by potrace 1.15, written by Peter Selinger 2001-2017
</metadata>
<g transform="translate(0.000000,600.000000) scale(0.100000,-0.100000)"
fill="#16364b" stroke="none">
<path d="M2184 5446 c-43 -19 -71 -58 -94 -133 -38 -125 -20 -226 53 -290 56
-49 95 -58 255 -57 125 1 142 -1 137 -15 -3 -8 -29 -76 -56 -151 -28 -74 -71
-189 -96 -255 -54 -145 -58 -198 -19 -250 50 -66 149 -71 211 -12 25 24 43 59
71 137 20 58 66 179 102 270 78 198 92 247 92 323 0 98 -43 168 -134 215 -47
24 -62 27 -185 29 l-135 3 2 47 c6 111 -102 183 -204 139z"/>
<path d="M3734 5350 c-75 -11 -150 -38 -184 -66 -82 -70 -49 -205 58 -233 32
-9 50 -8 89 5 62 21 121 23 134 4 6 -9 8 -59 6 -120 -4 -88 -10 -123 -41 -212
-20 -59 -36 -124 -36 -145 0 -108 122 -177 220 -124 104 55 196 452 146 636
-35 133 -133 230 -251 250 -75 12 -90 13 -141 5z"/>
<path d="M1710 4865 c-124 -18 -213 -39 -312 -75 -119 -44 -166 -75 -189 -123
-24 -54 -24 -81 2 -134 23 -48 62 -80 114 -94 33 -9 35 -12 35 -52 0 -55 36
-126 77 -153 18 -12 54 -25 80 -28 27 -4 113 -20 193 -36 134 -27 180 -40 343
-99 50 -18 64 -20 100 -10 105 28 153 162 92 255 -34 52 -210 114 -473 165
-90 18 -159 35 -155 39 21 19 157 44 254 46 117 2 149 13 192 64 51 60 44 141
-15 199 -53 51 -151 62 -338 36z"/>
<path d="M3235 4370 c-185 -69 -307 -114 -425 -156 -274 -97 -342 -137 -355
-208 -18 -96 49 -176 148 -176 19 0 103 27 188 61 85 34 213 83 284 109 305
112 324 123 345 198 23 86 -25 166 -110 185 -14 3 -47 -3 -75 -13z"/>
<path d="M4240 4330 c-67 -35 -93 -113 -62 -184 31 -69 66 -82 237 -89 169 -6
200 -15 216 -64 16 -48 6 -153 -26 -278 -29 -115 -30 -136 -11 -173 47 -91
157 -112 235 -46 33 27 43 53 65 161 60 285 32 468 -86 579 -89 83 -197 114
-403 113 -107 0 -136 -3 -165 -19z"/>
<path d="M2219 3876 c-2 -3 -45 -16 -94 -31 -105 -30 -300 -55 -434 -55 -82 0
-100 -3 -137 -25 -108 -64 -106 -216 5 -262 86 -36 363 -25 543 21 234 61 318
119 318 221 0 81 -58 135 -146 135 -28 0 -53 -2 -55 -4z"/>
<path d="M3660 3767 c-99 -37 -552 -261 -579 -287 -49 -47 -65 -134 -36 -190
8 -16 31 -41 51 -57 54 -41 114 -37 234 16 52 24 137 67 188 98 52 30 95 53
98 51 2 -3 -1 -19 -6 -37 -10 -37 -4 -85 17 -121 25 -43 63 -64 123 -68 102
-7 146 45 196 232 36 137 32 235 -11 297 -59 84 -160 108 -275 66z"/>
<path d="M4947 3315 c-57 -21 -113 -70 -137 -120 -20 -42 -21 -54 -15 -161 l7
-115 -146 -145 c-161 -160 -189 -196 -246 -316 -55 -116 -72 -185 -77 -324 -8
-186 28 -284 124 -341 40 -23 59 -28 123 -28 83 0 133 20 182 72 48 51 59 91
56 221 -4 174 7 197 181 370 147 146 190 208 231 332 42 126 37 358 -10 449
-52 102 -165 145 -273 106z"/>
<path d="M2039 3211 c-77 -25 -118 -91 -99 -162 14 -51 77 -114 127 -128 21
-6 104 -11 185 -11 80 0 153 -3 161 -6 11 -4 14 -16 10 -44 -7 -52 11 -100 52
-140 28 -27 44 -34 87 -37 101 -8 152 55 164 200 12 140 -42 239 -163 299
l-67 33 -216 2 c-118 1 -227 -2 -241 -6z"/>
<path d="M4285 3168 c-11 -6 -56 -45 -100 -88 -160 -154 -354 -253 -550 -281
-193 -28 -221 -40 -249 -109 -21 -54 -20 -79 7 -130 43 -82 116 -97 295 -60
236 48 503 182 703 353 77 66 119 128 119 177 0 44 -38 105 -79 128 -42 24
-113 29 -146 10z"/>
<path d="M1275 3011 c-52 -23 -102 -81 -111 -126 -12 -68 0 -132 35 -175 43
-54 57 -129 71 -370 16 -284 41 -402 117 -555 60 -120 121 -168 212 -168 71 0
122 29 158 90 37 63 35 130 -5 214 -67 141 -93 262 -116 544 -27 309 -49 403
-117 480 -40 45 -119 85 -169 85 -19 0 -53 -9 -75 -19z"/>
<path d="M2069 2466 c-36 -12 -89 -36 -119 -52 -68 -37 -173 -133 -195 -180
-51 -108 60 -242 180 -220 27 5 52 22 89 60 59 61 102 92 137 100 20 5 28 -1
51 -39 16 -27 41 -52 62 -62 l35 -16 -29 -34 c-122 -139 -144 -385 -55 -633
41 -114 91 -156 173 -147 50 5 87 29 120 77 29 43 28 95 -3 172 -60 149 -55
250 21 364 34 53 44 77 44 110 0 51 -28 90 -82 114 -34 15 -37 19 -23 30 26
22 45 66 45 108 0 88 -108 223 -206 256 -67 23 -165 20 -245 -8z"/>
<path d="M3640 2179 c-224 -31 -789 -140 -842 -162 -37 -16 -82 -58 -109 -102
-27 -42 -25 -119 4 -170 26 -47 110 -95 166 -95 46 0 261 38 471 84 175 37
369 66 450 66 36 0 56 -6 77 -24 96 -80 199 -73 267 18 17 22 21 42 21 99 0
61 -5 80 -30 125 -42 77 -111 135 -183 156 -63 17 -184 20 -292 5z"/>
<path d="M4591 1619 c-13 -5 -54 -38 -92 -73 -85 -81 -131 -98 -358 -136 -300
-51 -467 -112 -677 -249 -127 -81 -189 -144 -205 -203 l-13 -47 -55 2 c-59 1
-79 -6 -167 -62 -57 -36 -139 -61 -199 -61 -134 0 -339 111 -485 261 -77 79
-101 92 -170 92 -144 0 -242 -141 -181 -261 27 -52 204 -233 291 -297 315
-230 686 -245 977 -39 67 48 98 89 108 147 7 36 9 37 40 31 52 -9 110 13 218
85 191 128 356 196 547 225 283 44 361 66 487 140 82 48 187 152 203 201 28
84 -14 186 -95 232 -43 24 -129 30 -174 12z"/>
</g>
</svg>
