<?xml version="1.0" standalone="no"?>
<!DOCTYPE svg PUBLIC "-//W3C//DTD SVG 20010904//EN"
 "http://www.w3.org/TR/2001/REC-SVG-20010904/DTD/svg10.dtd">
<svg version="1.0" xmlns="http://www.w3.org/2000/svg"
 width="600.000000pt" height="600.000000pt" viewBox="0 0 600.000000 600.000000"
 preserveAspectRatio="xMidYMid meet">
<metadata>
Created by potrace 1.15, written by Peter Selinger 2001-2017
</metadata>
<g transform="translate(0.000000,600.000000) scale(0.100000,-0.100000)"
fill="#16364b" stroke="none">
<path d="M2199 5832 c-14 -9 -73 -64 -130 -122 -57 -58 -161 -150 -229 -205
-156 -123 -296 -264 -333 -333 -39 -72 -46 -146 -19 -198 40 -77 104 -114 199
-114 63 0 90 7 373 94 355 110 489 168 528 226 47 69 15 187 -60 226 -51 26
-104 19 -203 -26 -113 -53 -257 -111 -262 -107 -2 2 29 32 67 67 158 140 268
257 279 297 15 53 13 82 -8 129 -34 75 -138 109 -202 66z"/>
<path d="M3043 5652 c-65 -35 -96 -108 -74 -175 19 -58 47 -75 168 -101 279
-62 423 -183 423 -355 0 -125 -69 -197 -302 -314 -119 -61 -142 -89 -142 -172
0 -90 58 -155 139 -155 73 0 314 147 425 259 171 174 208 413 98 636 -97 195
-261 308 -545 375 -102 24 -148 25 -190 2z"/>
<path d="M955 5325 c-187 -78 -341 -246 -360 -391 -23 -168 121 -420 307 -537
103 -65 248 6 248 119 0 57 -28 102 -95 154 -105 82 -154 165 -134 232 13 47
55 85 140 128 101 51 129 85 129 154 0 39 -6 62 -22 86 -53 77 -119 95 -213
55z"/>
<path d="M2696 4945 c-78 -32 -162 -99 -209 -165 -182 -261 34 -605 395 -628
l77 -5 35 35 c44 44 54 93 32 152 -25 66 -69 99 -166 129 -118 36 -156 80
-127 149 18 42 40 60 99 82 86 32 125 109 97 190 -29 84 -120 108 -233 61z"/>
<path d="M4805 4937 c-55 -22 -103 -67 -121 -113 -14 -36 -16 -62 -10 -131 22
-294 169 -485 384 -501 56 -4 78 0 117 17 63 28 82 45 110 101 44 89 37 213
-20 337 -40 88 -149 189 -265 246 -107 52 -151 62 -195 44z"/>
<path d="M1880 4492 c-76 -25 -142 -66 -212 -130 -69 -65 -98 -115 -98 -173 0
-87 50 -139 135 -139 56 0 76 10 137 67 78 72 124 80 183 33 91 -72 203 -52
249 44 34 73 14 148 -59 215 -98 90 -221 121 -335 83z"/>
<path d="M2660 3859 c-83 -25 -127 -89 -115 -165 12 -84 87 -140 178 -132 37
3 42 0 45 -19 10 -70 -94 -308 -196 -447 -112 -153 -121 -184 -80 -258 42 -75
146 -110 217 -74 87 45 277 356 354 579 27 81 31 105 32 202 0 125 -16 174
-76 234 -58 57 -130 85 -234 88 -49 1 -106 -2 -125 -8z"/>
<path d="M1150 3779 c-68 -11 -191 -49 -252 -80 -78 -39 -122 -140 -100 -225
27 -102 93 -149 199 -142 35 2 63 2 63 0 0 -1 -29 -56 -65 -120 -89 -161 -133
-266 -237 -562 -78 -221 -89 -262 -86 -306 7 -88 67 -142 168 -152 113 -11
169 28 530 373 180 172 368 345 374 345 7 0 6 -6 -29 -236 -31 -203 -60 -295
-196 -616 -119 -281 -127 -314 -89 -388 31 -61 73 -85 149 -85 60 0 65 2 95
36 34 40 78 146 190 464 111 315 134 405 156 605 5 52 14 111 20 130 17 58 25
291 11 346 -26 106 -94 164 -192 164 -66 0 -140 -38 -251 -132 -212 -177 -289
-240 -293 -236 -2 2 23 44 55 94 128 197 175 318 175 449 0 76 -4 98 -25 138
-57 113 -192 163 -370 136z"/>
<path d="M4202 3775 c-192 -42 -287 -141 -286 -300 0 -118 68 -234 169 -288
33 -18 57 -22 140 -22 93 0 105 2 167 33 95 47 185 146 246 272 71 149 67 219
-19 283 -49 35 -294 48 -417 22z m98 -284 c0 -12 -46 -41 -65 -41 -26 0 -16
20 18 35 38 17 47 18 47 6z"/>
<path d="M3503 3393 c-56 -19 -132 -89 -165 -150 -36 -65 -70 -193 -71 -263
-1 -107 56 -160 180 -168 134 -9 284 40 336 110 51 69 61 99 61 188 1 107 -25
171 -94 233 -73 66 -156 83 -247 50z"/>
<path d="M4845 2802 c-53 -32 -174 -182 -228 -282 -71 -132 -89 -248 -49 -326
25 -50 46 -68 106 -95 147 -64 334 54 424 267 29 68 46 184 37 252 -6 51 -12
61 -68 117 -34 34 -72 67 -84 74 -33 17 -104 13 -138 -7z"/>
<path d="M4190 2445 c-89 -29 -159 -114 -160 -193 0 -18 9 -75 21 -128 11 -52
19 -99 17 -104 -2 -5 -34 5 -72 21 -95 40 -191 55 -259 40 -112 -25 -211 -126
-242 -246 -26 -101 -23 -135 44 -528 21 -123 37 -189 51 -213 82 -131 299
-112 387 35 47 78 49 116 18 270 -15 73 -24 135 -22 138 6 6 59 -21 112 -57
77 -52 152 -63 250 -36 74 19 107 40 157 95 84 93 109 247 72 442 -19 100 -68
303 -82 340 -40 103 -177 161 -292 124z"/>
<path d="M2895 2315 c-90 -20 -178 -56 -357 -146 -185 -93 -230 -120 -250
-148 -13 -18 -19 -19 -52 -10 -145 40 -356 -125 -356 -279 0 -70 40 -144 95
-175 11 -6 45 -14 75 -17 l54 -5 16 -70 c9 -38 19 -82 23 -97 5 -18 3 -28 -3
-28 -30 0 -126 -59 -166 -102 -73 -78 -98 -143 -102 -269 -2 -58 1 -131 7
-161 35 -167 206 -383 396 -497 140 -85 332 -137 469 -128 108 7 192 39 315
121 122 81 153 124 154 214 1 103 -60 172 -156 179 -56 5 -59 3 -192 -76 -98
-57 -162 -70 -251 -48 -103 25 -189 72 -254 137 -66 66 -120 165 -120 222 0
33 3 38 24 38 13 0 43 -17 67 -39 63 -55 166 -101 228 -101 61 0 97 13 134 48
94 88 89 233 -10 307 -101 76 -138 153 -188 393 -30 145 -29 132 -9 132 8 0
70 33 137 73 128 77 265 141 330 152 38 7 38 7 31 -21 -20 -84 -95 -277 -160
-414 -80 -168 -89 -211 -58 -276 37 -78 141 -126 223 -104 76 20 113 66 205
253 174 352 224 605 151 765 -30 65 -83 125 -135 152 -78 40 -203 50 -315 25z"/>
</g>
</svg>
