<?xml version="1.0" standalone="no"?>
<!DOCTYPE svg PUBLIC "-//W3C//DTD SVG 20010904//EN"
 "http://www.w3.org/TR/2001/REC-SVG-20010904/DTD/svg10.dtd">
<svg version="1.0" xmlns="http://www.w3.org/2000/svg"
 width="600.000000pt" height="600.000000pt" viewBox="0 0 600.000000 600.000000"
 preserveAspectRatio="xMidYMid meet">
<metadata>
Created by potrace 1.15, written by Peter Selinger 2001-2017
</metadata>
<g transform="translate(0.000000,600.000000) scale(0.100000,-0.100000)"
fill="#16364b" stroke="none">
<path d="M1533 5774 c-41 -20 -70 -79 -112 -228 -65 -227 -64 -397 1 -472 58
-66 112 -78 204 -47 94 31 400 372 427 475 12 45 -16 114 -57 139 -34 21 -87
25 -117 9 -11 -6 -57 -61 -103 -123 -45 -62 -93 -121 -106 -132 l-23 -20 6 20
c18 58 61 205 69 237 9 31 7 45 -11 81 -34 69 -109 95 -178 61z"/>
<path d="M863 5535 c-233 -72 -379 -366 -280 -561 30 -60 110 -137 158 -153
81 -26 166 42 155 124 -3 30 -15 49 -45 78 -67 62 -76 98 -42 166 46 89 121
122 193 85 48 -25 115 -14 150 25 119 133 -84 301 -289 236z"/>
<path d="M3433 5383 c-42 -21 -76 -87 -67 -131 6 -31 30 -63 59 -79 12 -7 13
-15 3 -45 -32 -107 151 -282 309 -295 100 -8 165 45 165 134 0 64 -29 129 -97
218 -60 79 -103 113 -218 174 -86 45 -106 48 -154 24z"/>
<path d="M2351 5308 c-54 -29 -62 -55 -66 -199 -6 -204 -51 -348 -132 -420
-18 -16 -67 -47 -108 -70 -41 -22 -84 -52 -94 -65 -60 -76 -17 -188 77 -201
58 -8 206 70 288 152 145 144 238 420 219 654 -6 75 -10 87 -39 118 -25 28
-41 36 -76 39 -26 3 -55 -1 -69 -8z"/>
<path d="M2983 5133 c-57 -20 -135 -106 -162 -178 -44 -118 -16 -227 70 -273
61 -33 154 -27 236 14 72 37 92 64 103 145 19 134 -22 249 -103 288 -50 24
-85 25 -144 4z"/>
<path d="M4741 4764 c-43 -36 -54 -85 -46 -218 9 -150 28 -237 70 -323 43 -87
113 -154 187 -179 96 -32 203 13 265 112 45 71 56 116 51 199 -10 147 -112
261 -359 398 -80 45 -124 48 -168 11z m269 -431 c0 -23 -17 -6 -29 29 l-11 33
20 -24 c11 -13 20 -30 20 -38z"/>
<path d="M2694 4192 c-236 -84 -245 -373 -15 -474 147 -65 362 -10 527 136 84
74 94 164 25 236 -29 30 -57 44 -151 75 -99 33 -131 39 -225 42 -88 3 -120 0
-161 -15z"/>
<path d="M1055 4081 c-92 -41 -113 -157 -44 -236 32 -36 50 -43 179 -70 100
-21 112 -29 80 -55 -55 -44 -190 -116 -319 -172 -150 -65 -195 -100 -207 -163
-19 -105 77 -201 179 -180 47 10 238 103 355 173 57 34 105 62 107 62 1 0 5
-12 8 -27 16 -74 81 -127 166 -137 27 -3 53 -15 75 -34 62 -54 123 -77 206
-77 82 0 115 13 164 61 109 110 83 292 -54 379 -79 50 -214 70 -301 43 -48
-14 -55 -8 -38 34 8 18 13 60 13 93 -2 154 -127 250 -391 304 -122 25 -127 25
-178 2z"/>
<path d="M4157 3761 c-37 -10 -86 -31 -110 -47 -181 -127 -160 -423 36 -518
221 -107 467 50 532 340 31 142 -5 191 -167 224 -114 24 -202 24 -291 1z m117
-276 c-7 -16 -35 -35 -53 -35 -20 0 -11 31 12 40 34 13 47 12 41 -5z"/>
<path d="M5136 3499 c-122 -49 -249 -167 -285 -264 -82 -219 82 -431 305 -395
179 29 302 170 312 357 4 64 0 94 -13 131 -20 50 -111 154 -157 178 -38 19
-104 17 -162 -7z"/>
<path d="M3423 3359 c-51 -25 -107 -96 -162 -206 -44 -89 -50 -129 -25 -173
35 -59 96 -73 192 -45 69 21 115 63 152 138 59 120 50 243 -22 287 -42 25 -82
25 -135 -1z"/>
<path d="M2409 3237 c-31 -13 -70 -33 -86 -45 -75 -53 -152 -168 -197 -292
-75 -206 -107 -250 -226 -310 -126 -63 -263 -177 -331 -273 -210 -297 -282
-687 -179 -968 94 -258 356 -481 635 -540 88 -18 284 -16 380 5 252 55 442
190 595 421 139 212 194 345 230 560 19 113 22 155 17 320 -8 306 -47 458
-169 668 -35 59 -83 142 -108 184 -61 106 -165 210 -254 254 -60 29 -81 34
-160 36 -78 3 -99 0 -147 -20z m181 -399 c17 -18 42 -57 56 -86 14 -29 44 -83
68 -120 113 -175 130 -245 130 -537 0 -253 -13 -333 -83 -499 -111 -266 -295
-415 -512 -416 -156 0 -368 99 -452 212 -77 105 -93 262 -42 433 61 207 152
318 350 425 131 71 247 170 305 259 16 26 50 109 74 183 41 127 61 178 71 178
2 0 18 -15 35 -32z"/>
<path d="M594 2466 c-48 -21 -77 -64 -71 -106 3 -19 8 -44 11 -55 6 -17 0 -24
-28 -37 -84 -41 -85 -101 -3 -269 103 -211 197 -323 324 -386 252 -125 473 33
418 299 -23 113 -67 190 -165 288 -94 94 -193 166 -324 235 -92 48 -113 52
-162 31z m199 -328 c138 -93 223 -212 218 -305 -3 -58 -97 -5 -184 102 -47 59
-137 223 -137 251 0 18 17 10 103 -48z"/>
<path d="M4241 2119 c-36 -22 -70 -57 -71 -74 -1 -30 -17 -35 -55 -15 -84 43
-170 15 -212 -70 -29 -57 -29 -73 7 -264 42 -222 45 -232 93 -279 24 -23 54
-58 69 -77 68 -93 221 -106 306 -27 60 56 78 130 92 387 5 102 13 213 16 246
8 78 -18 143 -68 174 -45 27 -131 27 -177 -1z"/>
</g>
</svg>
