<?xml version="1.0" standalone="no"?>
<!DOCTYPE svg PUBLIC "-//W3C//DTD SVG 20010904//EN"
 "http://www.w3.org/TR/2001/REC-SVG-20010904/DTD/svg10.dtd">
<svg version="1.0" xmlns="http://www.w3.org/2000/svg"
 width="600.000000pt" height="600.000000pt" viewBox="0 0 600.000000 600.000000"
 preserveAspectRatio="xMidYMid meet">
<metadata>
Created by potrace 1.15, written by Peter Selinger 2001-2017
</metadata>
<g transform="translate(0.000000,600.000000) scale(0.100000,-0.100000)"
fill="#16364b" stroke="none">
<path d="M1824 5816 c-44 -19 -65 -51 -119 -173 -124 -283 -198 -481 -209
-561 -20 -138 91 -247 232 -228 115 15 243 109 483 352 131 134 157 165 163
197 20 108 -46 187 -157 187 -49 0 -60 -4 -104 -39 -26 -21 -68 -60 -93 -86
-76 -79 -84 -76 -44 17 65 150 67 157 61 205 -11 104 -122 171 -213 129z"/>
<path d="M3005 5710 c-65 -43 -86 -146 -42 -210 12 -19 67 -65 122 -104 185
-131 441 -414 491 -544 21 -54 15 -61 -66 -72 -35 -5 -71 -17 -82 -27 -26 -22
-48 -74 -48 -110 0 -43 38 -110 76 -134 31 -19 46 -21 127 -17 144 6 235 56
292 160 28 49 30 61 29 148 -1 80 -6 108 -32 178 -37 99 -103 202 -181 280
-66 67 -373 324 -491 412 -69 51 -88 60 -123 60 -25 0 -54 -8 -72 -20z"/>
<path d="M860 5411 c-130 -42 -235 -149 -274 -282 -24 -79 -22 -238 3 -311 10
-31 25 -67 31 -80 48 -90 173 -188 243 -188 76 0 137 46 157 119 16 60 -2 103
-66 157 -30 26 -60 56 -65 66 -16 29 -13 91 5 129 24 49 58 69 137 81 115 17
173 71 173 161 0 65 -27 114 -82 145 -51 28 -179 30 -262 3z"/>
<path d="M2919 5164 c-65 -20 -141 -91 -179 -167 -75 -153 -37 -278 107 -349
62 -30 75 -33 158 -32 145 1 223 37 245 113 10 36 -18 224 -45 300 -44 127
-151 177 -286 135z"/>
<path d="M4775 4874 c-84 -43 -100 -85 -92 -243 11 -236 95 -413 232 -492 62
-36 146 -39 212 -9 58 26 130 101 160 167 35 77 30 183 -13 263 -55 103 -205
229 -357 301 -70 33 -99 36 -142 13z"/>
<path d="M2000 4802 c-161 -42 -221 -119 -176 -226 30 -73 104 -103 197 -79
39 10 64 12 70 6 6 -6 14 -38 19 -71 15 -106 77 -161 169 -148 53 7 86 28 120
77 21 30 22 41 17 106 -10 123 -72 250 -147 300 -45 30 -120 53 -168 52 -20 0
-65 -8 -101 -17z"/>
<path d="M2887 4049 c-82 -19 -164 -82 -188 -146 -53 -140 91 -300 321 -359
134 -35 421 -18 506 30 48 26 120 130 126 181 5 42 -12 97 -39 127 -25 29
-183 103 -273 127 -159 44 -361 62 -453 40z"/>
<path d="M1080 4028 c-103 -11 -153 -40 -187 -108 -68 -132 29 -280 182 -280
l46 0 -34 -42 c-47 -59 -343 -495 -402 -592 -63 -106 -143 -270 -151 -312 -11
-59 4 -105 49 -150 89 -89 231 -83 304 13 34 45 120 108 397 293 122 81 266
182 320 223 55 42 104 74 109 70 18 -11 -4 -157 -39 -263 -19 -58 -68 -168
-108 -245 -169 -323 -191 -364 -235 -438 -25 -43 -69 -108 -98 -145 -93 -120
-105 -141 -110 -184 -12 -112 126 -186 234 -125 92 50 236 251 359 497 260
523 293 616 301 855 4 120 2 163 -11 215 -22 85 -58 144 -108 178 -36 23 -51
27 -118 27 -69 0 -84 -4 -151 -38 -41 -20 -117 -68 -169 -106 -52 -38 -97 -67
-98 -66 -2 2 39 64 92 137 112 157 153 232 165 309 12 70 1 120 -36 173 -70
101 -229 133 -503 104z"/>
<path d="M4225 3786 c-124 -32 -227 -112 -281 -217 -37 -71 -40 -189 -8 -259
28 -58 82 -113 147 -148 45 -23 63 -27 142 -27 111 0 162 22 245 105 64 66
115 162 154 291 31 105 32 121 5 175 -32 67 -82 86 -233 90 -78 2 -139 -1
-171 -10z m42 -331 c-30 -27 -47 -32 -47 -14 0 17 31 38 55 38 18 0 17 -2 -8
-24z"/>
<path d="M3369 3370 c-53 -28 -104 -92 -155 -194 -45 -90 -53 -132 -33 -183
27 -73 88 -103 209 -106 95 -2 123 8 178 64 48 50 73 109 79 192 8 110 -28
196 -97 232 -41 21 -136 19 -181 -5z"/>
<path d="M4967 3119 c-78 -51 -192 -181 -234 -267 -36 -71 -38 -82 -38 -167 0
-83 3 -95 28 -133 36 -54 90 -89 161 -104 155 -33 334 84 383 251 36 124 10
283 -59 355 -17 17 -35 38 -42 47 -18 26 -72 49 -114 49 -26 0 -53 -10 -85
-31z"/>
<path d="M3887 2625 c-82 -31 -127 -82 -147 -169 -13 -58 0 -118 60 -269 22
-56 38 -102 37 -104 -2 -1 -27 6 -55 17 -78 30 -174 27 -241 -7 -93 -45 -150
-151 -151 -278 l0 -70 -35 64 c-19 35 -42 72 -52 83 -36 40 -104 79 -167 95
-61 16 -71 16 -144 1 -101 -20 -181 -52 -379 -149 -89 -43 -163 -79 -166 -79
-2 0 -10 33 -17 73 -19 110 -67 250 -103 303 -67 97 -178 145 -286 124 -82
-15 -138 -48 -206 -122 -73 -80 -165 -248 -165 -304 0 -25 -11 -50 -39 -87
-88 -117 -149 -252 -177 -387 -34 -168 -1 -462 67 -606 66 -140 284 -321 484
-401 146 -58 235 -77 375 -77 111 0 134 3 205 28 150 52 274 136 370 253 30
37 65 88 77 113 11 25 41 75 65 112 139 213 283 606 300 817 l6 77 78 -228
c43 -126 89 -253 103 -283 71 -155 295 -182 391 -46 23 33 30 55 33 105 2 35
-1 81 -8 101 -7 20 -10 38 -8 40 2 2 25 -3 52 -12 39 -13 57 -14 97 -5 166 39
265 145 276 297 10 129 -39 368 -118 572 -23 60 -57 151 -76 205 -19 53 -49
113 -66 133 -60 74 -177 104 -270 70z m-1817 -1000 c20 -238 26 -262 79 -315
52 -52 117 -75 179 -64 49 9 143 56 345 175 191 113 306 173 315 165 8 -9 -26
-148 -65 -261 -44 -126 -99 -245 -150 -321 -21 -33 -50 -81 -62 -108 -30 -61
-117 -147 -178 -176 -149 -71 -288 -66 -444 16 -194 102 -271 250 -256 493 8
134 32 203 104 305 42 59 63 106 63 141 0 14 9 44 21 67 29 56 35 41 49 -117z"/>
</g>
</svg>
