<?xml version="1.0" standalone="no"?>
<!DOCTYPE svg PUBLIC "-//W3C//DTD SVG 20010904//EN"
 "http://www.w3.org/TR/2001/REC-SVG-20010904/DTD/svg10.dtd">
<svg version="1.0" xmlns="http://www.w3.org/2000/svg"
 width="600.000000pt" height="600.000000pt" viewBox="0 0 600.000000 600.000000"
 preserveAspectRatio="xMidYMid meet">
<metadata>
Created by potrace 1.15, written by Peter Selinger 2001-2017
</metadata>
<g transform="translate(0.000000,600.000000) scale(0.100000,-0.100000)"
fill="#16364b" stroke="none">
<path d="M1623 5800 c-62 -37 -67 -52 -113 -320 -65 -372 -48 -514 73 -604 42
-31 131 -34 196 -6 59 26 141 109 214 217 54 82 213 367 228 413 37 104 -96
213 -198 163 -35 -16 -46 -34 -134 -211 -53 -106 -102 -198 -109 -205 -17 -17
-7 114 24 297 25 142 23 173 -8 221 -18 27 -74 55 -113 55 -15 0 -42 -9 -60
-20z"/>
<path d="M3203 5561 c-25 -11 -48 -32 -57 -50 -18 -34 -21 -103 -6 -132 6 -10
63 -53 126 -94 136 -89 234 -165 289 -226 l39 -44 -40 -5 c-86 -12 -138 -73
-131 -154 4 -41 10 -55 39 -82 47 -42 135 -74 206 -74 185 1 286 180 202 358
-58 124 -159 230 -354 377 -188 140 -239 161 -313 126z"/>
<path d="M902 5469 c-129 -16 -224 -85 -282 -203 -83 -171 -54 -373 72 -499
65 -65 118 -91 165 -84 51 9 101 51 109 92 11 62 -2 97 -59 151 -59 55 -72 90
-56 148 21 77 92 125 157 107 122 -35 238 141 156 238 -38 46 -140 65 -262 50z"/>
<path d="M2998 5175 c-124 -34 -228 -176 -228 -311 0 -103 49 -174 136 -200
46 -13 60 -13 122 0 96 20 165 57 193 103 19 31 24 55 27 134 6 152 -32 233
-130 273 -44 19 -57 19 -120 1z"/>
<path d="M2273 4900 c-30 -13 -48 -30 -60 -56 -17 -34 -24 -38 -93 -56 -95
-25 -199 -75 -223 -109 -45 -63 -38 -146 17 -196 46 -43 89 -43 193 -2 43 18
109 40 146 51 173 48 259 136 244 251 -7 53 -33 87 -87 115 -54 27 -82 27
-137 2z"/>
<path d="M4746 4829 c-50 -43 -55 -72 -44 -245 14 -230 47 -341 124 -418 144
-144 350 -98 440 98 23 52 26 67 22 140 -4 63 -11 93 -32 135 -38 74 -115 152
-211 216 -172 114 -236 130 -299 74z"/>
<path d="M2783 4126 c-178 -58 -228 -247 -99 -379 134 -138 353 -159 634 -60
88 31 116 52 143 106 27 53 21 107 -19 156 -34 42 -185 112 -337 156 -110 32
-259 42 -322 21z"/>
<path d="M1010 4059 c-63 -26 -100 -85 -100 -158 0 -61 13 -97 48 -135 42 -44
81 -56 189 -56 54 0 104 -4 111 -9 10 -6 -19 -43 -114 -141 -135 -139 -238
-230 -390 -343 -114 -85 -138 -123 -132 -208 4 -50 9 -64 37 -93 64 -66 156
-68 250 -5 l56 38 23 -30 c29 -37 72 -59 112 -59 31 0 33 -3 45 -54 6 -30 38
-64 114 -125 114 -90 137 -223 65 -374 -48 -103 -162 -207 -226 -207 -15 0
-44 11 -64 25 -69 47 -152 28 -192 -43 -62 -112 7 -225 165 -268 114 -31 248
0 346 80 108 88 238 301 272 446 21 94 20 233 -5 311 -33 110 -113 219 -210
290 -33 24 -60 46 -60 49 0 13 169 100 245 126 l80 27 44 -28 c84 -56 186 -33
226 52 15 31 16 44 6 86 -6 26 -11 65 -11 85 0 47 -36 110 -79 139 -40 27
-102 30 -146 7 -33 -17 -215 -67 -222 -61 -2 2 15 26 37 53 57 68 109 177 116
245 18 160 -97 280 -308 323 -99 20 -295 30 -328 15z"/>
<path d="M4224 3781 c-101 -24 -218 -121 -267 -220 -75 -151 2 -341 162 -402
73 -27 173 -23 246 11 64 31 161 129 202 205 31 59 73 190 73 229 0 37 -42
107 -79 131 -68 44 -245 68 -337 46z m60 -315 c-7 -18 -52 -41 -61 -32 -9 9
33 46 53 46 7 0 11 -6 8 -14z"/>
<path d="M3405 3380 c-57 -24 -188 -226 -201 -310 -6 -45 20 -97 66 -128 31
-21 44 -23 122 -20 77 3 91 6 129 33 80 57 136 205 114 305 -8 37 -56 95 -96
116 -30 15 -102 18 -134 4z"/>
<path d="M5022 3295 c-128 -64 -215 -162 -252 -283 -24 -78 -25 -133 -4 -196
45 -131 206 -197 364 -150 119 35 188 108 225 238 34 116 2 242 -86 347 -76
91 -133 101 -247 44z"/>
<path d="M2185 2641 c-88 -23 -149 -74 -254 -215 -38 -50 -99 -123 -135 -163
-36 -39 -73 -87 -81 -106 -8 -20 -19 -39 -25 -42 -22 -14 -135 -193 -176 -279
-82 -175 -114 -308 -114 -476 0 -252 68 -410 250 -583 231 -220 448 -305 707
-277 375 40 557 191 787 650 128 256 158 376 160 630 1 174 -8 232 -49 325
-50 111 -141 176 -273 195 -69 10 -122 7 -288 -15 l-51 -7 -6 31 c-14 67 -75
180 -124 227 -85 83 -232 130 -328 105z m110 -483 c39 -120 101 -205 185 -257
45 -27 103 -27 245 -1 60 11 126 20 146 20 36 0 39 -2 45 -36 15 -79 -21 -329
-67 -468 -43 -129 -101 -234 -180 -325 -129 -149 -241 -206 -404 -205 -112 1
-175 22 -281 95 -150 104 -212 234 -202 428 9 163 63 281 193 420 40 43 81 94
91 112 9 19 41 61 71 93 29 33 70 86 91 118 20 32 40 58 44 58 3 0 14 -24 23
-52z"/>
<path d="M4060 2409 c-111 -33 -163 -145 -130 -284 5 -22 8 -41 6 -42 -2 -2
-26 2 -55 9 -44 10 -60 9 -106 -6 -92 -29 -165 -136 -165 -242 0 -46 24 -152
60 -269 17 -55 42 -145 56 -200 29 -114 57 -158 118 -186 47 -21 75 -23 129
-8 41 11 112 69 122 98 4 14 20 20 66 24 81 7 165 50 206 104 70 94 69 220 -7
618 -40 211 -56 278 -75 306 -41 63 -150 100 -225 78z"/>
</g>
</svg>
