<?xml version="1.0" standalone="no"?>
<!DOCTYPE svg PUBLIC "-//W3C//DTD SVG 20010904//EN"
 "http://www.w3.org/TR/2001/REC-SVG-20010904/DTD/svg10.dtd">
<svg version="1.0" xmlns="http://www.w3.org/2000/svg"
 width="600.000000pt" height="600.000000pt" viewBox="0 0 600.000000 600.000000"
 preserveAspectRatio="xMidYMid meet">
<metadata>
Created by potrace 1.15, written by Peter Selinger 2001-2017
</metadata>
<g transform="translate(0.000000,600.000000) scale(0.100000,-0.100000)"
fill="#16364b" stroke="none">
<path d="M3125 5671 c-28 -12 -62 -51 -75 -85 -6 -17 -11 -77 -11 -135 0 -164
35 -274 117 -361 54 -58 120 -93 235 -124 46 -13 84 -27 86 -32 3 -11 -46 -42
-296 -190 -220 -130 -310 -202 -329 -261 -8 -23 -29 -58 -47 -78 -20 -20 -37
-51 -41 -72 -10 -52 11 -122 49 -162 59 -61 70 -63 359 -55 291 8 306 11 345
80 42 73 21 159 -48 194 -30 16 -59 20 -134 20 -52 0 -95 4 -95 8 0 10 145
106 300 197 245 146 319 228 320 353 0 139 -89 217 -330 287 -124 36 -164 54
-187 84 -8 10 -12 54 -13 122 0 115 -12 148 -71 192 -30 21 -103 32 -134 18z"/>
<path d="M1322 5403 c-59 -32 -141 -104 -200 -177 -199 -241 -284 -445 -286
-681 -1 -101 1 -113 23 -144 48 -66 148 -89 227 -51 70 34 78 55 79 205 0 113
4 138 25 190 l24 60 8 -45 c10 -58 34 -90 89 -118 48 -25 78 -25 194 1 33 8
61 11 63 6 2 -4 -8 -42 -22 -85 -68 -208 -59 -348 31 -455 14 -16 21 -29 16
-29 -5 0 -55 -27 -110 -60 -114 -67 -144 -103 -145 -174 -2 -84 61 -146 146
-146 30 0 64 14 136 55 117 67 251 126 350 154 87 24 118 44 142 92 39 75 9
162 -67 199 -46 22 -80 23 -142 5 -19 -6 -23 -2 -33 33 -6 23 -23 51 -40 66
-17 13 -30 33 -30 44 0 11 21 78 46 148 68 192 71 289 14 376 -66 100 -192
129 -385 89 -56 -11 -126 -34 -158 -50 l-57 -30 16 28 c38 64 124 158 179 197
93 65 116 138 73 224 -42 82 -130 113 -206 73z"/>
<path d="M4539 4507 c-137 -13 -166 -25 -199 -80 -43 -69 -12 -170 62 -208 39
-20 53 -21 163 -16 l120 7 -71 -68 c-39 -37 -108 -101 -152 -142 -66 -61 -82
-82 -88 -113 -9 -55 18 -121 64 -152 41 -28 111 -33 149 -12 12 7 82 65 156
129 214 185 316 333 317 456 0 83 -40 146 -120 188 -44 23 -217 28 -401 11z"/>
<path d="M3940 3721 c-129 -25 -183 -150 -115 -267 42 -73 219 -245 284 -277
64 -31 126 -35 177 -11 65 31 103 117 83 189 -12 43 -67 105 -94 105 -14 0
-17 6 -12 35 14 86 -31 150 -136 193 -81 33 -135 43 -187 33z"/>
<path d="M2518 3690 c-106 -17 -283 -100 -321 -152 -29 -38 -33 -123 -10 -168
24 -46 76 -80 124 -80 21 0 76 15 121 34 88 36 195 60 222 50 62 -24 -82 -383
-244 -604 -132 -182 -125 -169 -125 -226 0 -38 6 -60 21 -81 14 -19 23 -48 26
-91 3 -50 10 -69 34 -99 49 -60 78 -76 143 -81 52 -4 69 0 147 36 103 46 219
89 276 101 l40 9 -7 -36 c-9 -52 -49 -150 -108 -267 -28 -55 -59 -118 -70
-139 -28 -58 -20 -134 19 -183 49 -60 78 -76 142 -81 66 -5 100 8 144 55 43
46 192 350 234 479 35 106 39 130 39 219 0 87 -3 107 -27 157 -33 72 -93 137
-155 168 -84 43 -243 39 -389 -9 -32 -11 -59 -19 -61 -18 -1 1 19 34 44 72
214 332 270 657 139 821 -73 92 -238 139 -398 114z"/>
<path d="M1105 3462 c-104 -36 -305 -165 -341 -219 -59 -88 -23 -208 73 -249
43 -18 125 -18 170 1 19 8 39 15 43 15 5 0 -7 -46 -26 -102 -19 -57 -52 -188
-74 -293 -22 -104 -53 -242 -70 -305 -36 -136 -52 -262 -40 -313 11 -49 51
-100 94 -121 42 -20 149 -31 200 -22 40 8 44 11 223 216 148 170 205 243 310
395 122 179 135 195 146 188 28 -17 -18 -331 -93 -633 -26 -107 -54 -239 -60
-293 -21 -164 2 -298 61 -357 79 -79 237 -29 269 84 9 34 8 50 -6 91 -23 70
-13 169 41 404 48 205 73 340 101 545 15 111 16 150 7 290 -13 191 -32 255
-93 310 -82 74 -183 56 -304 -54 -84 -77 -262 -296 -365 -448 -24 -35 -45 -62
-47 -60 -5 6 65 267 111 413 49 158 58 281 26 366 -54 142 -201 205 -356 151z"/>
<path d="M4587 3306 c-48 -18 -62 -29 -81 -70 -20 -42 -20 -88 -1 -125 15 -29
70 -81 85 -81 18 0 175 -98 200 -124 l24 -27 -19 -37 c-11 -20 -48 -70 -83
-112 -71 -85 -90 -134 -73 -190 23 -76 95 -118 169 -98 71 19 236 224 276 342
32 98 18 190 -43 275 -47 65 -313 241 -386 255 -16 3 -47 -1 -68 -8z"/>
<path d="M3630 3224 c-70 -25 -148 -82 -190 -138 -56 -74 -100 -173 -100 -224
0 -90 66 -162 150 -162 59 0 101 23 133 72 l27 42 103 2 c111 2 168 17 225 61
35 26 71 92 72 128 0 75 -54 152 -142 200 -45 25 -66 30 -143 32 -64 2 -103
-1 -135 -13z"/>
<path d="M4542 2230 c-81 -37 -129 -112 -139 -216 -6 -65 -7 -66 -32 -60 -257
56 -355 65 -454 42 -93 -22 -141 -49 -207 -115 -92 -92 -130 -196 -130 -359 0
-48 -3 -158 -7 -244 l-6 -158 -35 -20 c-19 -12 -42 -18 -50 -15 -8 3 -51 34
-96 70 -44 35 -121 96 -171 135 -203 161 -342 202 -472 139 -71 -34 -103 -90
-150 -258 -7 -25 -11 -7 -33 119 -40 237 -71 375 -95 427 -56 123 -209 149
-305 53 -55 -55 -67 -105 -46 -195 9 -38 25 -129 36 -201 44 -289 98 -487 162
-587 47 -73 140 -151 242 -202 139 -69 224 -72 293 -12 55 48 77 106 69 181
-6 53 11 190 29 244 5 14 121 -63 247 -164 135 -109 197 -136 317 -135 154 0
296 96 309 208 3 29 10 46 21 50 84 26 147 79 177 148 14 32 18 80 22 234 l4
194 92 -7 c50 -4 108 -11 129 -15 59 -14 273 4 348 29 161 54 235 146 253 315
10 91 -7 227 -36 283 -50 98 -181 140 -286 92z"/>
</g>
</svg>
