<?xml version="1.0" standalone="no"?>
<!DOCTYPE svg PUBLIC "-//W3C//DTD SVG 20010904//EN"
 "http://www.w3.org/TR/2001/REC-SVG-20010904/DTD/svg10.dtd">
<svg version="1.0" xmlns="http://www.w3.org/2000/svg"
 width="600.000000pt" height="600.000000pt" viewBox="0 0 600.000000 600.000000"
 preserveAspectRatio="xMidYMid meet">
<metadata>
Created by potrace 1.15, written by Peter Selinger 2001-2017
</metadata>
<g transform="translate(0.000000,600.000000) scale(0.100000,-0.100000)"
fill="#16364b" stroke="none">
<path d="M2570 5514 c-19 -8 -43 -23 -54 -32 -31 -28 -104 -188 -122 -268 -20
-94 -13 -148 29 -211 67 -99 163 -121 377 -83 69 11 141 24 160 27 34 6 33 4
-64 -99 -120 -130 -218 -257 -347 -452 -117 -176 -127 -204 -104 -284 33 -113
59 -124 271 -112 194 10 435 -2 603 -31 148 -25 184 -19 228 38 54 71 27 185
-55 227 -36 18 -155 32 -393 46 -213 12 -259 17 -259 28 0 9 147 180 260 302
209 228 255 290 271 372 23 114 -38 214 -151 251 -77 25 -220 22 -380 -8 -74
-13 -136 -23 -138 -21 -2 2 13 36 34 76 58 113 45 193 -39 231 -50 22 -80 23
-127 3z"/>
<path d="M1625 5121 c-264 -95 -596 -436 -595 -610 1 -59 26 -109 70 -139 39
-26 47 -26 248 -2 110 14 223 4 248 -22 8 -8 16 -57 20 -131 8 -138 22 -168
94 -205 71 -37 160 -14 201 51 18 29 20 46 16 177 -3 121 -7 154 -26 202 -51
131 -169 212 -354 243 -21 3 -35 10 -32 15 14 22 159 110 222 134 128 49 178
142 120 227 -52 77 -129 97 -232 60z"/>
<path d="M4155 4710 c-139 -48 -293 -136 -326 -187 -43 -65 -12 -169 61 -205
61 -31 94 -24 245 52 77 39 152 73 168 76 26 6 27 4 27 -30 0 -89 -67 -254
-210 -516 -42 -77 -40 -117 10 -201 57 -96 66 -98 254 -71 161 24 337 29 399
11 33 -9 37 -13 37 -43 0 -60 -71 -282 -145 -457 -18 -41 -36 -89 -40 -107 -9
-45 10 -96 51 -132 28 -24 44 -30 80 -30 48 0 88 16 116 47 10 10 51 98 92
195 183 430 197 592 64 714 -84 77 -204 106 -440 106 l-157 0 53 107 c122 243
150 426 85 556 -46 92 -125 137 -249 142 -75 3 -96 0 -175 -27z"/>
<path d="M1980 3976 c-52 -18 -185 -55 -295 -81 -190 -46 -202 -50 -237 -86
-34 -33 -38 -42 -38 -88 0 -88 48 -150 122 -158 50 -6 408 70 554 118 102 33
127 54 145 119 21 80 -18 167 -87 196 -46 19 -55 18 -164 -20z"/>
<path d="M3740 3681 c-106 -34 -278 -133 -359 -206 -73 -66 -79 -159 -17 -231
33 -38 36 -39 97 -39 63 0 65 1 147 63 87 67 159 112 179 112 27 0 -34 -169
-124 -340 l-65 -125 -59 -27 c-69 -31 -99 -72 -99 -134 0 -81 67 -145 158
-152 51 -4 72 2 187 48 178 71 364 166 421 214 106 91 112 215 12 289 -32 24
-116 34 -147 18 -25 -14 -25 -15 -6 74 20 95 19 235 -2 302 -20 63 -60 114
-107 137 -45 21 -145 20 -216 -3z"/>
<path d="M2405 3425 c-88 -17 -217 -49 -275 -70 -106 -37 -149 -136 -99 -224
48 -85 114 -99 243 -52 151 54 316 80 316 50 0 -29 -34 -136 -71 -225 -34 -83
-40 -107 -37 -149 10 -121 140 -185 236 -116 58 41 180 358 189 491 9 126 -44
230 -143 280 -43 22 -64 25 -169 27 -68 1 -150 -4 -190 -12z"/>
<path d="M1226 3178 c-27 -4 -77 -21 -111 -37 -107 -53 -159 -124 -158 -216 1
-100 71 -175 164 -175 35 0 34 33 14 -327 -12 -213 -13 -303 -5 -390 19 -207
40 -266 112 -317 102 -73 265 -26 293 85 3 13 21 34 39 46 24 16 49 53 94 142
34 67 82 152 107 189 54 83 163 212 197 234 25 17 26 17 32 -14 12 -58 6 -333
-9 -433 -8 -55 -29 -150 -45 -212 -17 -62 -30 -124 -30 -138 0 -71 60 -135
127 -135 48 0 111 28 134 61 40 57 121 407 134 584 7 95 -8 332 -26 425 -23
114 -82 190 -174 225 -91 35 -217 -8 -347 -119 -68 -58 -141 -137 -208 -225
l-25 -33 0 264 c0 248 -1 267 -23 329 -49 143 -149 208 -286 187z"/>
<path d="M4807 2756 c-97 -35 -157 -121 -157 -226 0 -33 -2 -60 -4 -60 -19 0
-182 -34 -221 -47 -171 -53 -297 -168 -360 -323 -23 -60 -31 -209 -15 -308 15
-96 54 -223 86 -281 l24 -44 -42 -43 c-24 -24 -50 -44 -58 -44 -9 0 -66 20
-127 45 -146 58 -247 74 -381 57 -200 -25 -308 -107 -492 -376 -92 -135 -108
-153 -167 -188 -15 -10 -50 -33 -77 -53 -68 -49 -98 -47 -154 11 -57 60 -111
173 -169 353 -39 121 -52 150 -82 180 -90 90 -236 77 -302 -27 -43 -68 -39
-110 27 -303 87 -254 139 -353 243 -462 109 -116 219 -167 357 -167 135 0 235
40 359 145 28 23 70 53 94 66 33 18 60 48 113 126 84 124 185 234 247 271 67
39 133 36 286 -17 158 -55 245 -67 325 -47 83 21 148 57 199 107 54 55 73 91
80 157 6 52 8 54 44 67 128 44 203 163 177 281 -13 59 -21 72 -72 131 -52 60
-77 116 -78 169 0 51 8 55 185 95 153 34 234 71 310 140 65 60 123 169 134
250 10 86 -5 194 -36 251 -56 102 -187 153 -296 114z"/>
<path d="M3165 2470 c-49 -10 -162 -36 -250 -58 -88 -22 -191 -47 -230 -56
-82 -19 -112 -38 -142 -92 -54 -93 -7 -214 99 -259 46 -19 95 -19 175 0 110
26 443 85 480 85 29 0 34 -3 28 -17 -30 -78 -38 -133 -25 -176 34 -124 162
-182 277 -126 59 28 89 68 113 148 78 262 24 449 -156 537 -53 26 -70 29 -169
31 -77 2 -137 -3 -200 -17z"/>
</g>
</svg>
