<?xml version="1.0" standalone="no"?>
<!DOCTYPE svg PUBLIC "-//W3C//DTD SVG 20010904//EN"
 "http://www.w3.org/TR/2001/REC-SVG-20010904/DTD/svg10.dtd">
<svg version="1.0" xmlns="http://www.w3.org/2000/svg"
 width="600.000000pt" height="600.000000pt" viewBox="0 0 600.000000 600.000000"
 preserveAspectRatio="xMidYMid meet">
<metadata>
Created by potrace 1.15, written by Peter Selinger 2001-2017
</metadata>
<g transform="translate(0.000000,600.000000) scale(0.100000,-0.100000)"
fill="#16364b" stroke="none">
<path d="M1635 5776 c-16 -7 -40 -24 -52 -37 -64 -70 -125 -525 -93 -693 22
-119 94 -186 200 -186 76 1 130 28 202 101 98 100 329 474 344 557 16 83 -39
152 -119 152 -60 0 -100 -25 -136 -83 -18 -29 -60 -97 -94 -152 -34 -55 -75
-118 -90 -140 l-29 -40 7 55 c4 30 18 105 32 165 35 155 39 212 15 251 -36 56
-121 79 -187 50z"/>
<path d="M3182 5572 c-44 -24 -72 -68 -72 -115 0 -63 22 -91 122 -153 51 -31
123 -79 160 -106 70 -52 208 -192 208 -212 0 -6 -17 -11 -39 -11 -78 -1 -135
-67 -128 -148 5 -59 37 -96 109 -127 106 -45 204 -36 278 27 61 52 84 104 84
185 0 58 -6 78 -41 150 -78 156 -232 320 -408 433 -155 100 -203 114 -273 77z"/>
<path d="M858 5447 c-129 -44 -224 -132 -285 -262 -25 -53 -28 -72 -28 -155 0
-85 3 -102 29 -155 33 -68 122 -162 178 -188 71 -34 140 -19 184 38 50 66 29
165 -46 209 -38 22 -64 78 -55 115 11 45 54 100 94 120 29 15 55 19 109 18 57
-2 75 2 98 19 95 70 96 199 3 246 -52 27 -194 24 -281 -5z"/>
<path d="M2962 5161 c-115 -40 -204 -162 -203 -280 0 -111 52 -185 150 -217
46 -15 64 -16 126 -6 106 17 180 47 207 85 46 64 32 261 -24 341 -29 40 -44
53 -93 76 -50 24 -95 25 -163 1z"/>
<path d="M2281 4873 c-19 -9 -43 -32 -53 -50 -15 -24 -31 -36 -61 -43 -80 -21
-232 -73 -255 -88 -106 -69 -37 -242 96 -242 50 0 344 99 401 135 137 86 103
287 -50 301 -29 3 -56 -1 -78 -13z"/>
<path d="M4739 4846 c-62 -42 -73 -80 -66 -226 10 -202 54 -334 141 -423 69
-71 116 -92 211 -92 92 0 141 20 193 80 59 66 67 91 67 200 0 89 -3 105 -27
150 -65 123 -162 214 -309 290 -104 54 -154 59 -210 21z"/>
<path d="M2870 4120 c-173 -22 -270 -108 -270 -240 0 -168 162 -272 398 -256
160 11 384 65 443 107 74 53 78 171 7 236 -26 24 -204 102 -288 126 -47 14
-214 40 -230 36 -3 -1 -30 -5 -60 -9z"/>
<path d="M1045 4071 c-141 -35 -197 -186 -109 -291 48 -56 75 -64 217 -61 70
1 127 -2 127 -7 0 -20 -118 -148 -202 -219 -51 -43 -146 -125 -211 -183 -66
-58 -145 -126 -176 -152 -72 -60 -94 -97 -94 -162 0 -116 97 -201 210 -183 31
5 49 15 98 51 9 7 24 0 49 -22 50 -43 96 -50 160 -23 28 12 52 17 54 12 9 -26
47 -62 97 -90 32 -18 65 -47 81 -70 73 -111 19 -355 -106 -479 -55 -55 -131
-97 -158 -89 -9 3 -36 13 -60 22 -133 48 -248 -108 -161 -219 46 -59 172 -103
258 -90 176 26 366 172 450 347 69 141 106 362 81 484 -26 126 -109 252 -213
321 -48 32 -44 37 93 95 147 62 148 62 173 39 35 -31 63 -42 107 -42 56 0 100
22 130 67 23 35 25 44 22 147 -3 126 -18 167 -72 204 -43 29 -118 30 -169 2
-42 -22 -224 -91 -229 -85 -2 1 10 18 26 36 47 54 110 156 132 215 27 73 27
173 -1 234 -41 92 -129 156 -251 185 -66 15 -297 19 -353 6z"/>
<path d="M4235 3781 c-131 -29 -232 -99 -279 -193 -70 -141 0 -339 148 -415
73 -38 178 -38 253 0 122 63 195 164 264 366 35 102 36 128 6 172 -37 56 -77
69 -223 74 -71 2 -147 0 -169 -4z m33 -303 c-6 -18 -55 -44 -65 -34 -10 9 33
46 54 46 8 0 13 -6 11 -12z"/>
<path d="M3423 3401 c-71 -18 -142 -96 -207 -227 -48 -97 -51 -117 -31 -170
26 -69 71 -94 165 -94 62 0 86 5 128 26 127 63 206 250 154 367 -34 76 -125
119 -209 98z"/>
<path d="M5030 3273 c-95 -48 -194 -145 -235 -228 -26 -53 -29 -71 -30 -150 0
-103 18 -149 78 -202 56 -49 114 -66 204 -61 168 10 291 131 309 304 12 110
-17 196 -96 292 -74 90 -123 100 -230 45z"/>
<path d="M2171 2589 c-70 -13 -122 -44 -187 -111 -70 -72 -251 -308 -270 -353
-7 -16 -46 -81 -87 -143 -134 -201 -228 -416 -246 -561 -32 -256 119 -571 365
-759 59 -45 195 -108 289 -134 110 -29 340 -32 430 -5 193 60 349 165 493 333
76 89 111 144 201 315 91 173 127 272 151 416 46 270 4 463 -127 583 -98 90
-221 115 -418 86 -83 -13 -111 -14 -114 -5 -2 7 -21 46 -42 88 -60 120 -140
195 -244 229 -76 25 -138 32 -194 21z m98 -490 c12 -36 36 -89 54 -117 40 -63
134 -146 183 -162 44 -15 143 -8 289 21 152 29 145 31 145 -47 0 -75 -36 -245
-75 -354 -104 -288 -240 -461 -411 -521 -119 -42 -280 -34 -389 21 -190 94
-285 245 -272 434 8 131 79 301 180 435 27 35 59 85 71 111 28 59 187 263 197
253 3 -5 16 -38 28 -74z"/>
<path d="M4005 2424 c-100 -52 -125 -129 -86 -266 11 -36 17 -69 14 -72 -3 -3
-14 -1 -25 5 -30 16 -140 13 -174 -4 -120 -62 -163 -205 -115 -382 56 -208
122 -419 140 -448 69 -111 270 -104 342 13 22 37 27 39 71 40 64 0 147 33 185
72 81 86 89 167 44 478 -59 410 -90 500 -190 552 -63 33 -156 38 -206 12z"/>
</g>
</svg>
