<?xml version="1.0" standalone="no"?>
<!DOCTYPE svg PUBLIC "-//W3C//DTD SVG 20010904//EN"
 "http://www.w3.org/TR/2001/REC-SVG-20010904/DTD/svg10.dtd">
<svg version="1.0" xmlns="http://www.w3.org/2000/svg"
 width="600.000000pt" height="600.000000pt" viewBox="0 0 600.000000 600.000000"
 preserveAspectRatio="xMidYMid meet">
<metadata>
Created by potrace 1.15, written by Peter Selinger 2001-2017
</metadata>
<g transform="translate(0.000000,600.000000) scale(0.100000,-0.100000)"
fill="#16364b" stroke="none">
<path d="M2033 5141 c-67 -31 -137 -103 -169 -174 -32 -71 -31 -9 -16 -634 6
-232 14 -427 17 -434 9 -14 17 -1094 9 -1167 l-6 -52 -82 -49 c-100 -59 -227
-130 -371 -206 -60 -32 -116 -63 -123 -69 -10 -7 -18 -4 -32 13 -22 30 -44 19
-35 -16 6 -24 4 -25 -22 -18 -71 19 -89 4 -49 -41 l24 -29 -31 -11 c-38 -13
-42 -38 -7 -42 51 -6 57 -12 33 -32 -25 -20 -29 -35 -13 -45 10 -6 129 35 160
55 8 6 80 43 160 84 80 41 197 106 260 144 l115 70 6 -217 c6 -219 11 -260 54
-431 88 -350 247 -518 568 -599 l72 -19 -3 -143 c-4 -169 14 -278 79 -470 23
-66 39 -126 36 -133 -3 -8 -34 -15 -86 -19 -121 -9 -171 -44 -171 -117 0 -46
21 -76 67 -91 77 -25 228 15 297 79 33 31 65 96 66 132 0 14 -18 77 -39 140
-77 223 -86 270 -86 432 0 85 4 151 10 157 6 6 102 6 265 0 140 -6 362 -9 493
-7 l238 3 -7 -50 c-21 -146 2 -361 57 -542 18 -56 29 -108 26 -117 -5 -12 -18
-14 -69 -10 -115 11 -188 -28 -188 -101 0 -42 35 -80 89 -96 33 -10 58 -10
117 -1 82 13 124 31 167 71 67 62 71 109 23 260 -19 58 -42 151 -52 206 -18
105 -24 295 -11 356 l7 36 225 37 c124 20 249 45 279 56 164 62 271 205 331
445 24 93 28 131 28 250 1 175 -19 251 -104 415 -74 141 -117 197 -233 306
l-90 85 295 -1 c266 -1 299 0 349 18 41 14 56 24 58 40 2 12 -2 22 -9 22 -8 0
-8 4 2 16 11 14 11 18 -3 28 -9 7 -16 21 -15 32 2 21 -23 24 -75 10 -23 -7
-27 -5 -30 16 -4 32 -36 36 -43 5 -6 -23 -12 -25 -95 -30 -87 -7 -534 7 -619
19 -36 5 -66 22 -159 96 -138 107 -208 154 -412 276 -262 157 -526 369 -637
514 -127 164 -214 368 -358 833 -29 94 -65 195 -80 225 -36 70 -144 179 -215
215 -74 38 -176 45 -237 16z m164 -153 c81 -35 148 -122 178 -233 9 -33 25
-82 35 -110 10 -27 40 -114 65 -193 85 -264 191 -505 284 -647 110 -168 398
-410 701 -590 111 -66 290 -189 396 -271 357 -280 396 -311 487 -402 79 -78
95 -100 148 -207 70 -142 89 -223 89 -388 0 -187 -41 -319 -130 -420 -59 -67
-138 -102 -300 -132 -310 -58 -318 -58 -735 -56 -214 1 -435 6 -490 11 -55 5
-151 14 -214 19 -279 25 -464 116 -560 275 -40 67 -86 198 -113 321 -28 129
-35 456 -15 670 12 126 14 268 11 675 -2 283 -8 560 -14 615 -9 80 -27 585
-33 900 -1 47 4 69 22 98 40 65 122 93 188 65z"/>
<path d="M2632 2774 c-31 -21 -29 -65 4 -98 32 -31 64 -33 89 -6 57 63 -23
153 -93 104z"/>
<path d="M3106 2661 c-24 -26 -17 -70 16 -94 33 -25 70 -17 86 18 17 36 15 52
-8 75 -25 25 -72 26 -94 1z"/>
<path d="M2953 1803 c-22 -8 -15 -60 9 -77 68 -48 178 15 120 67 -18 16 -99
23 -129 10z"/>
<path d="M5264 3975 c-111 -24 -177 -72 -225 -165 -20 -37 -24 -60 -24 -135 0
-77 4 -98 27 -147 34 -72 98 -143 163 -176 44 -24 61 -27 145 -27 81 0 103 4
150 26 70 33 131 95 167 167 38 77 45 207 15 275 -30 67 -88 125 -164 163 -76
38 -142 43 -254 19z m133 -309 c11 -11 -30 -46 -52 -46 -23 0 -35 17 -35 47 0
12 8 15 41 10 22 -3 43 -8 46 -11z"/>
</g>
</svg>
