<?xml version="1.0" standalone="no"?>
<!DOCTYPE svg PUBLIC "-//W3C//DTD SVG 20010904//EN"
 "http://www.w3.org/TR/2001/REC-SVG-20010904/DTD/svg10.dtd">
<svg version="1.0" xmlns="http://www.w3.org/2000/svg"
 width="600.000000pt" height="600.000000pt" viewBox="0 0 600.000000 600.000000"
 preserveAspectRatio="xMidYMid meet">
<metadata>
Created by potrace 1.15, written by Peter Selinger 2001-2017
</metadata>
<g transform="translate(0.000000,600.000000) scale(0.100000,-0.100000)"
fill="#16364b" stroke="none">
<path d="M2125 5442 c-22 -11 -48 -28 -57 -39 -30 -33 -59 -133 -60 -205 -2
-152 95 -221 330 -235 87 -5 102 -8 98 -22 -3 -9 -18 -61 -35 -116 -80 -266
-94 -359 -66 -419 34 -72 124 -98 192 -56 46 28 61 55 93 177 15 59 47 167 70
238 71 219 65 308 -26 399 -57 58 -125 83 -247 92 l-97 7 0 41 c0 113 -99 183
-195 138z"/>
<path d="M3447 5406 c-68 -25 -97 -66 -97 -138 0 -89 58 -139 168 -142 54 -2
68 -6 83 -25 28 -34 25 -126 -8 -241 -35 -126 -39 -179 -18 -224 24 -51 68
-79 129 -83 76 -6 113 18 152 96 55 110 79 219 79 356 0 118 -1 121 -37 196
-46 93 -113 158 -196 190 -73 27 -202 35 -255 15z"/>
<path d="M1705 4834 c-251 -38 -399 -79 -444 -125 -86 -85 -40 -224 85 -259
41 -12 53 -10 152 18 176 51 274 65 387 58 88 -5 105 -3 142 15 60 29 87 76
81 143 -5 63 -29 99 -83 128 -34 19 -59 22 -165 24 -69 1 -138 0 -155 -2z"/>
<path d="M1495 4452 c-40 -25 -51 -39 -65 -87 -17 -58 0 -114 49 -158 34 -31
50 -37 157 -56 65 -13 208 -40 318 -62 109 -21 212 -39 229 -39 65 0 130 67
143 147 8 53 -23 125 -66 151 -33 21 -183 51 -375 77 -66 9 -158 22 -205 30
-111 20 -149 19 -185 -3z"/>
<path d="M4294 4459 c-77 -22 -122 -125 -87 -196 27 -55 69 -79 166 -93 92
-13 154 -41 175 -80 10 -20 12 -68 7 -220 -5 -184 -5 -197 15 -228 32 -52 76
-74 138 -69 60 4 97 27 127 78 17 29 20 57 23 195 5 181 -11 288 -54 380 -30
64 -117 147 -186 179 -94 43 -264 71 -324 54z"/>
<path d="M3115 4382 c-60 -32 -173 -94 -250 -138 -77 -45 -191 -107 -253 -139
-97 -49 -115 -62 -132 -96 -11 -21 -20 -52 -20 -68 0 -102 97 -180 188 -150
69 22 327 155 472 244 80 48 161 97 180 108 48 28 79 57 96 89 46 89 -29 208
-130 208 -30 0 -70 -16 -151 -58z"/>
<path d="M2127 3825 c-161 -42 -297 -59 -409 -50 -75 5 -91 4 -126 -14 -90
-46 -122 -128 -80 -208 40 -79 70 -88 283 -88 148 1 198 5 283 23 141 31 261
70 293 96 87 69 74 208 -24 255 -55 27 -65 26 -220 -14z"/>
<path d="M3670 3781 c-30 -10 -111 -46 -180 -80 -69 -34 -195 -92 -280 -128
-173 -74 -231 -119 -244 -187 -18 -93 48 -176 139 -176 44 0 257 81 424 161
68 32 125 59 127 59 2 0 4 -7 4 -16 0 -9 15 -31 34 -50 29 -29 41 -34 81 -34
90 0 145 50 184 167 33 99 24 166 -32 230 -62 71 -149 89 -257 54z"/>
<path d="M4982 3431 c-63 -22 -114 -68 -143 -129 -19 -39 -21 -54 -15 -151 10
-141 -6 -189 -106 -317 -40 -52 -97 -124 -126 -161 -71 -91 -175 -305 -202
-414 -41 -171 -25 -266 60 -342 55 -51 102 -70 170 -70 60 0 90 11 133 52 43
39 57 73 67 161 10 89 52 203 104 283 18 28 73 97 121 152 172 197 230 309
254 491 12 86 3 217 -20 294 -37 123 -176 194 -297 151z"/>
<path d="M2034 3190 c-40 -9 -78 -37 -99 -73 -24 -40 -23 -122 2 -155 49 -66
97 -80 278 -82 61 -1 128 -4 150 -8 35 -6 40 -11 46 -41 16 -77 93 -134 172
-128 88 8 140 70 140 167 0 132 -81 232 -228 284 -34 12 -103 21 -220 27 -93
5 -179 10 -190 12 -11 3 -34 1 -51 -3z"/>
<path d="M4324 3167 c-17 -7 -75 -51 -130 -98 -120 -104 -203 -160 -300 -205
-92 -43 -279 -91 -383 -100 -123 -10 -173 -51 -174 -142 -1 -58 25 -115 67
-145 42 -30 138 -28 276 6 164 40 254 73 405 147 221 108 420 250 446 317 34
90 -22 196 -119 223 -44 12 -48 12 -88 -3z"/>
<path d="M1335 2984 c-100 -52 -142 -167 -95 -259 25 -48 37 -122 45 -275 17
-319 70 -557 160 -724 68 -128 199 -165 292 -83 79 69 92 154 40 262 -74 154
-107 320 -137 690 -12 152 -30 229 -68 298 -50 92 -156 133 -237 91z"/>
<path d="M2165 2444 c-124 -28 -294 -135 -328 -207 -37 -78 -10 -174 58 -203
71 -29 129 -16 203 45 93 77 141 88 169 40 23 -38 67 -66 118 -74 92 -14 183
79 171 173 -12 87 -70 163 -161 207 -66 32 -142 38 -230 19z"/>
<path d="M3825 2160 c-38 -5 -133 -22 -210 -38 -77 -17 -194 -40 -260 -52
-205 -36 -536 -120 -577 -146 -89 -57 -109 -192 -42 -282 59 -77 115 -81 369
-23 202 46 656 128 755 137 48 5 78 2 115 -10 52 -18 108 -15 156 10 67 34
118 131 103 197 -33 155 -185 231 -409 207z"/>
<path d="M2260 1927 c-45 -29 -68 -71 -85 -153 -29 -138 -11 -273 54 -409 43
-90 118 -188 161 -210 37 -19 103 -19 139 0 40 20 79 69 91 115 13 48 -3 101
-47 157 -76 96 -98 178 -81 299 11 77 10 83 -13 130 -13 27 -39 59 -58 71 -46
31 -116 31 -161 0z"/>
<path d="M4675 1623 c-16 -9 -53 -37 -80 -63 -103 -96 -148 -116 -348 -155
-323 -63 -485 -113 -671 -206 -132 -66 -193 -108 -227 -158 -20 -29 -24 -47
-24 -110 0 -64 4 -81 24 -110 30 -42 92 -70 152 -71 36 0 71 12 160 56 225
111 349 153 609 209 196 42 268 64 375 118 184 92 305 215 305 312 0 73 -52
153 -119 181 -44 18 -118 17 -156 -3z"/>
<path d="M2052 1049 c-89 -44 -120 -145 -74 -235 24 -47 124 -144 235 -225
372 -276 737 -297 1061 -61 59 43 85 96 86 170 0 89 -35 144 -114 177 -51 22
-101 13 -196 -35 -191 -97 -325 -104 -488 -28 -67 32 -201 127 -242 173 -14
15 -45 41 -69 56 -57 37 -134 40 -199 8z"/>
</g>
</svg>
