<?xml version="1.0" standalone="no"?>
<!DOCTYPE svg PUBLIC "-//W3C//DTD SVG 20010904//EN"
 "http://www.w3.org/TR/2001/REC-SVG-20010904/DTD/svg10.dtd">
<svg version="1.0" xmlns="http://www.w3.org/2000/svg"
 width="600.000000pt" height="600.000000pt" viewBox="0 0 600.000000 600.000000"
 preserveAspectRatio="xMidYMid meet">
<metadata>
Created by potrace 1.15, written by Peter Selinger 2001-2017
</metadata>
<g transform="translate(0.000000,600.000000) scale(0.100000,-0.100000)"
fill="#16364b" stroke="none">
<path d="M1470 5740 c-41 -21 -145 -72 -231 -114 -138 -66 -158 -79 -173 -109
-20 -43 -20 -60 0 -98 39 -76 174 -78 549 -10 92 17 114 24 133 46 55 65 -11
169 -95 149 -27 -7 -27 -6 -11 13 27 30 32 75 14 111 -33 64 -81 67 -186 12z"/>
<path d="M2390 5433 c-8 -3 -25 -15 -37 -26 -20 -18 -23 -31 -23 -91 0 -193
-36 -413 -86 -538 -48 -116 -100 -175 -208 -237 -41 -24 -62 -44 -72 -67 -30
-73 30 -146 108 -130 48 10 172 91 218 144 119 134 196 359 221 640 15 177 10
246 -22 277 -25 25 -72 39 -99 28z"/>
<path d="M3517 5280 c-42 -49 -43 -80 -5 -157 55 -112 175 -213 252 -213 94 0
142 97 97 195 -54 119 -167 205 -267 205 -46 0 -55 -4 -77 -30z"/>
<path d="M2963 5100 c-137 -79 -197 -287 -111 -385 61 -71 153 -68 265 8 52
35 67 51 90 102 36 79 39 188 7 232 -60 80 -157 97 -251 43z m67 -215 c-22
-27 -31 -15 -13 18 13 25 18 28 21 14 2 -10 -2 -24 -8 -32z"/>
<path d="M4774 4776 c-51 -23 -57 -52 -51 -263 5 -202 16 -261 61 -338 52 -88
145 -130 233 -106 114 30 163 138 129 283 -19 80 -62 179 -106 244 -63 91
-186 196 -227 194 -4 -1 -22 -7 -39 -14z"/>
<path d="M2675 4220 c-108 -28 -169 -98 -168 -193 2 -136 164 -244 357 -235
68 2 93 9 148 36 88 43 164 115 173 163 8 45 -21 120 -57 143 -30 19 -163 61
-260 80 -82 17 -144 19 -193 6z"/>
<path d="M1105 4120 c-34 -22 -65 -74 -65 -108 0 -26 29 -82 43 -82 4 0 5 -4
2 -10 -3 -5 -15 -10 -26 -10 -60 0 -116 -72 -106 -136 9 -51 36 -80 107 -112
136 -62 248 -67 349 -15 99 51 141 156 106 266 -31 98 -103 163 -227 203 -88
29 -143 30 -183 4z m100 -234 c19 -8 35 -17 35 -20 0 -6 -54 10 -77 23 -27 16
2 13 42 -3z"/>
<path d="M5201 3794 c-82 -17 -146 -57 -192 -118 -123 -162 -74 -412 100 -514
40 -23 57 -27 126 -27 68 0 88 5 134 29 75 39 142 105 177 173 24 48 30 73 33
146 3 78 0 93 -23 141 -17 36 -49 74 -92 111 -87 77 -134 88 -263 59z m87
-302 c16 -11 5 -39 -20 -53 -34 -18 -54 31 -20 50 21 13 24 13 40 3z"/>
<path d="M4153 3762 c-182 -65 -259 -245 -179 -418 76 -165 259 -217 443 -127
60 30 101 73 135 143 19 38 22 62 23 157 0 98 -3 115 -21 140 -70 95 -277 149
-401 105z m127 -275 c0 -20 -22 -37 -47 -37 -29 0 -29 14 -1 34 27 19 48 21
48 3z"/>
<path d="M3449 3373 c-50 -31 -189 -272 -189 -327 0 -71 50 -108 116 -86 55
18 152 121 193 204 46 94 49 167 8 202 -33 28 -89 32 -128 7z"/>
<path d="M1720 3115 c-219 -36 -427 -95 -520 -148 -259 -146 -353 -526 -192
-773 65 -99 138 -159 270 -221 64 -30 139 -71 165 -90 67 -49 133 -148 207
-310 79 -173 117 -232 194 -308 71 -70 185 -131 311 -167 70 -20 102 -23 255
-23 164 1 183 3 295 32 94 25 150 33 255 38 507 23 633 55 956 241 221 127
389 274 467 409 126 215 193 491 152 630 -22 79 -55 124 -167 230 -286 274
-433 313 -690 184 -42 -21 -117 -51 -165 -66 -83 -25 -99 -27 -288 -27 -192
-1 -203 0 -281 27 -45 15 -174 74 -288 131 -215 108 -331 152 -506 192 -134
31 -313 39 -430 19z m250 -390 c170 -26 299 -69 519 -175 221 -105 319 -141
446 -160 44 -7 116 -21 159 -32 43 -10 91 -17 105 -14 14 3 87 10 161 16 136
11 276 32 340 52 19 6 78 30 131 54 114 52 125 51 203 -24 70 -68 106 -120
106 -155 0 -43 -53 -192 -94 -267 -24 -42 -65 -92 -119 -143 -147 -140 -310
-233 -484 -278 -109 -27 -396 -68 -533 -75 -86 -4 -147 -14 -240 -40 -155 -42
-256 -56 -335 -48 -161 18 -244 89 -316 271 -46 117 -105 231 -152 293 -87
116 -223 223 -377 297 -126 61 -169 109 -170 191 0 50 17 86 57 123 39 37 76
54 181 83 160 45 268 53 412 31z"/>
<path d="M416 2139 c-33 -26 -35 -83 -6 -137 11 -20 37 -76 59 -124 90 -199
185 -288 307 -288 98 0 154 55 154 152 0 120 -141 269 -365 386 -70 37 -112
40 -149 11z"/>
<path d="M4955 1501 c-11 -5 -29 -18 -39 -30 -14 -15 -31 -21 -64 -21 -38 0
-50 -5 -83 -39 -38 -37 -39 -41 -39 -107 0 -91 33 -211 71 -257 72 -87 184
-58 240 62 28 60 72 267 64 307 -11 60 -95 108 -150 85z"/>
</g>
</svg>
