<?xml version="1.0" standalone="no"?>
<!DOCTYPE svg PUBLIC "-//W3C//DTD SVG 20010904//EN"
 "http://www.w3.org/TR/2001/REC-SVG-20010904/DTD/svg10.dtd">
<svg version="1.0" xmlns="http://www.w3.org/2000/svg"
 width="600.000000pt" height="600.000000pt" viewBox="0 0 600.000000 600.000000"
 preserveAspectRatio="xMidYMid meet">
<metadata>
Created by potrace 1.15, written by Peter Selinger 2001-2017
</metadata>
<g transform="translate(0.000000,600.000000) scale(0.100000,-0.100000)"
fill="#16364b" stroke="none">
<path d="M1848 4711 c-76 -30 -124 -75 -160 -149 -29 -59 -33 -76 -33 -147 1
-69 5 -89 32 -145 69 -143 106 -371 138 -860 3 -47 12 -193 21 -325 16 -238
15 -378 -5 -630 -19 -231 13 -520 80 -719 48 -143 94 -221 184 -312 102 -102
219 -164 363 -191 l93 -18 -7 -40 c-4 -22 -7 -85 -6 -140 1 -113 22 -221 82
-423 22 -73 40 -139 40 -146 0 -11 -23 -15 -99 -18 -111 -3 -146 -19 -164 -72
-13 -39 12 -90 55 -113 52 -28 188 -25 251 6 59 29 104 87 113 147 7 46 5 51
-71 342 -44 166 -57 274 -44 372 5 41 12 77 16 81 9 9 368 -15 498 -33 50 -7
173 -13 275 -13 l185 0 1 -110 c1 -121 29 -265 90 -478 19 -66 32 -122 30
-124 -2 -3 -42 -8 -88 -12 -122 -11 -178 -48 -178 -116 0 -69 59 -101 171 -92
131 11 241 90 255 184 5 35 -1 67 -31 161 -52 168 -52 166 -75 285 -11 59 -20
138 -20 175 0 62 12 137 23 148 3 3 73 14 156 25 163 21 342 63 441 103 77 31
189 106 230 153 214 244 224 654 21 910 -27 35 -78 76 -153 125 -125 82 -160
99 -393 188 -88 34 -205 83 -260 109 -55 26 -147 69 -205 96 -297 138 -482
250 -652 393 -209 177 -369 400 -569 797 -217 429 -306 562 -409 615 -62 32
-159 37 -222 11z m135 -154 c44 -19 104 -89 134 -156 13 -31 35 -67 48 -81 24
-27 73 -113 230 -410 240 -455 451 -695 801 -912 150 -93 708 -368 967 -477
92 -39 170 -71 172 -71 10 0 185 -108 221 -136 46 -37 92 -118 124 -219 44
-140 23 -327 -51 -451 -101 -167 -255 -227 -739 -285 -264 -31 -369 -37 -488
-28 -246 19 -449 29 -652 33 -246 4 -315 16 -421 72 -262 138 -384 547 -324
1079 20 175 19 308 -4 591 -11 132 -27 343 -36 469 -29 423 -54 575 -120 744
-19 50 -35 102 -35 116 0 43 27 94 62 115 39 23 67 25 111 7z"/>
<path d="M2570 2667 c-34 -17 -39 -62 -9 -93 29 -31 73 -32 93 -2 21 29 20 51
-1 76 -24 27 -53 34 -83 19z"/>
<path d="M3012 2454 c-32 -22 -30 -76 4 -103 36 -28 58 -26 83 5 26 34 27 68
1 94 -24 24 -57 26 -88 4z"/>
<path d="M5233 3982 c-99 -35 -174 -107 -202 -194 -29 -89 -8 -224 50 -311 99
-150 284 -196 449 -112 169 86 239 317 138 456 -38 53 -72 82 -156 133 -61 36
-74 40 -147 43 -59 3 -93 -1 -132 -15z m163 -305 c11 -10 -10 -38 -34 -44 -18
-4 -29 -1 -39 12 -25 35 -17 48 28 42 22 -3 43 -7 45 -10z"/>
<path d="M5358 1120 c-48 -9 -67 -25 -90 -78 -25 -56 -27 -132 -4 -167 25 -39
79 -59 120 -45 64 21 96 81 96 181 0 88 -41 125 -122 109z"/>
</g>
</svg>
