<?xml version="1.0" standalone="no"?>
<!DOCTYPE svg PUBLIC "-//W3C//DTD SVG 20010904//EN"
 "http://www.w3.org/TR/2001/REC-SVG-20010904/DTD/svg10.dtd">
<svg version="1.0" xmlns="http://www.w3.org/2000/svg"
 width="600.000000pt" height="600.000000pt" viewBox="0 0 600.000000 600.000000"
 preserveAspectRatio="xMidYMid meet">
<metadata>
Created by potrace 1.15, written by Peter Selinger 2001-2017
</metadata>
<g transform="translate(0.000000,600.000000) scale(0.100000,-0.100000)"
fill="#16364b" stroke="none">
<path d="M2235 5821 c-83 -38 -622 -492 -710 -598 -108 -131 -112 -261 -13
-336 96 -73 192 -62 598 64 464 145 530 184 530 320 0 114 -100 173 -220 130
-235 -83 -374 -130 -377 -127 -6 6 145 131 273 226 122 91 147 123 147 185 0
57 -29 103 -82 132 -53 28 -92 29 -146 4z"/>
<path d="M3063 5661 c-46 -29 -67 -66 -67 -120 0 -53 24 -101 63 -124 14 -8
70 -27 124 -41 169 -45 270 -108 320 -201 30 -56 30 -180 0 -247 -40 -89 -145
-178 -300 -256 -76 -39 -105 -78 -111 -148 -8 -92 51 -164 134 -164 71 0 338
163 449 275 64 64 115 155 136 240 7 28 12 100 12 160 0 92 -5 123 -27 188
-68 202 -221 334 -480 416 -132 43 -210 49 -253 22z"/>
<path d="M1029 5340 c-52 -15 -195 -96 -248 -139 -136 -110 -185 -206 -184
-356 2 -142 66 -270 196 -391 127 -118 207 -145 288 -98 39 23 79 86 79 126 0
51 -30 107 -74 137 -98 68 -166 162 -166 230 0 71 41 120 147 176 70 36 108
82 122 143 17 83 -12 145 -82 171 -32 12 -41 13 -78 1z"/>
<path d="M2651 4933 c-115 -69 -205 -193 -232 -321 -17 -85 -7 -208 24 -276
61 -134 235 -236 400 -236 87 0 147 54 147 133 0 79 -46 127 -154 163 -103 34
-146 73 -146 132 0 49 30 95 90 138 103 75 113 86 117 145 5 63 -17 107 -69
139 -51 31 -103 26 -177 -17z"/>
<path d="M4794 4952 c-22 -11 -57 -39 -77 -62 -37 -43 -37 -45 -37 -132 0
-186 62 -361 165 -464 75 -75 129 -99 226 -99 67 1 82 4 125 31 62 38 110 115
120 190 25 203 -104 402 -333 511 -91 44 -135 49 -189 25z"/>
<path d="M1851 4455 c-166 -47 -321 -188 -321 -292 0 -53 18 -92 60 -126 66
-56 140 -44 219 34 74 74 138 95 191 64 102 -60 143 -64 208 -25 38 23 72 87
72 135 0 148 -237 264 -429 210z"/>
<path d="M2591 3850 c-89 -13 -143 -67 -143 -142 0 -114 81 -174 221 -163 81
6 129 -2 144 -26 29 -47 -123 -284 -411 -639 -47 -57 -41 -150 13 -204 40 -40
93 -53 156 -36 124 34 452 482 535 730 11 34 18 85 18 135 1 69 -3 88 -27 133
-62 117 -153 184 -285 208 -84 15 -139 16 -221 4z"/>
<path d="M4201 3776 c-94 -18 -192 -66 -231 -114 -93 -113 -94 -307 -2 -406
86 -91 227 -127 353 -90 158 47 256 147 344 353 41 97 44 144 12 191 -41 63
-68 71 -244 75 -111 3 -180 0 -232 -9z m79 -306 c-27 -21 -70 -27 -70 -10 0
13 37 29 70 29 l25 1 -25 -20z"/>
<path d="M1255 3773 c-80 -12 -144 -32 -244 -75 -162 -69 -201 -110 -201 -210
1 -123 119 -218 238 -190 31 7 42 6 42 -3 0 -20 -84 -183 -163 -319 -42 -70
-90 -162 -107 -202 -45 -108 -122 -382 -123 -434 -1 -58 26 -114 71 -148 30
-23 47 -28 112 -30 113 -6 127 3 360 223 41 39 125 115 185 170 61 55 161 149
222 209 62 60 115 107 119 104 9 -10 -25 -222 -58 -358 -16 -69 -57 -199 -90
-290 -33 -91 -73 -203 -90 -250 -17 -47 -44 -112 -61 -145 -52 -102 -41 -172
36 -229 37 -27 119 -28 172 -1 33 17 47 34 81 103 23 46 62 154 88 245 25 89
71 239 102 332 30 94 71 235 90 315 19 80 39 161 44 181 13 48 13 211 -1 283
-31 167 -116 252 -244 244 -92 -6 -153 -47 -338 -228 l-159 -155 37 80 c53
116 99 228 131 320 36 106 39 217 6 290 -25 55 -81 118 -125 141 -32 17 -103
31 -132 27z"/>
<path d="M3527 3386 c-124 -46 -218 -175 -253 -350 -20 -94 -13 -137 29 -182
48 -51 104 -62 208 -41 274 54 394 246 286 459 -42 83 -91 118 -173 124 -37 3
-73 -1 -97 -10z"/>
<path d="M4844 2771 c-38 -23 -152 -163 -206 -253 -22 -37 -50 -100 -63 -140
l-23 -72 -15 31 c-40 76 -154 132 -242 119 -71 -11 -128 -55 -164 -127 -38
-76 -39 -117 -9 -251 12 -54 20 -100 17 -103 -3 -2 -45 9 -95 27 -117 41 -256
50 -335 22 -73 -27 -132 -82 -171 -162 -33 -66 -33 -68 -32 -207 0 -108 8
-183 32 -328 41 -239 57 -273 152 -316 133 -61 298 24 329 168 9 41 7 69 -8
148 -24 123 -34 193 -27 193 9 0 91 -41 130 -65 22 -13 60 -26 85 -30 64 -8
193 19 255 53 58 33 118 105 142 172 23 66 29 264 11 375 -8 50 -13 92 -11 94
1 1 20 -10 40 -25 34 -26 45 -29 113 -29 88 1 152 28 225 95 75 69 127 197
142 350 9 96 0 132 -46 180 -22 23 -40 45 -40 50 0 5 -15 18 -34 29 -42 27
-110 27 -152 2z"/>
<path d="M2924 2370 c-90 -18 -207 -65 -384 -153 -202 -101 -264 -147 -275
-210 l-7 -34 -66 -5 c-86 -6 -151 -39 -218 -110 -62 -65 -83 -129 -64 -198 23
-85 63 -120 148 -129 l54 -6 23 -90 c13 -49 26 -97 29 -105 4 -11 -9 -21 -48
-38 -68 -30 -141 -101 -175 -172 -24 -50 -26 -66 -26 -180 0 -162 19 -218 126
-379 127 -190 223 -269 420 -348 91 -36 97 -37 224 -38 102 0 142 4 185 19 81
27 258 112 297 142 77 58 98 177 44 251 -36 49 -84 73 -149 73 -39 0 -71 -10
-148 -47 -87 -42 -107 -48 -164 -48 -160 0 -350 131 -430 297 -26 51 -22 78
12 78 22 0 98 -46 98 -60 0 -4 23 -19 51 -35 46 -25 58 -27 128 -23 124 7 181
53 189 153 7 80 -11 118 -94 201 -99 100 -133 172 -185 395 -23 96 -42 178
-42 183 -1 6 6 12 16 14 10 2 86 41 168 87 146 81 293 144 306 132 8 -9 -32
-153 -69 -247 -16 -41 -58 -130 -94 -196 -55 -106 -64 -129 -64 -175 0 -66 30
-130 77 -166 68 -52 198 -40 254 23 25 29 115 187 168 299 129 267 172 501
119 655 -29 87 -101 161 -178 184 -57 17 -185 20 -256 6z"/>
</g>
</svg>
