<?xml version="1.0" standalone="no"?>
<!DOCTYPE svg PUBLIC "-//W3C//DTD SVG 20010904//EN"
 "http://www.w3.org/TR/2001/REC-SVG-20010904/DTD/svg10.dtd">
<svg version="1.0" xmlns="http://www.w3.org/2000/svg"
 width="600.000000pt" height="600.000000pt" viewBox="0 0 600.000000 600.000000"
 preserveAspectRatio="xMidYMid meet">
<metadata>
Created by potrace 1.15, written by Peter Selinger 2001-2017
</metadata>
<g transform="translate(0.000000,600.000000) scale(0.100000,-0.100000)"
fill="#16364b" stroke="none">
<path d="M3042 5087 c-47 -15 -113 -77 -141 -133 -61 -120 -22 -238 72 -220
40 7 139 86 178 141 96 135 33 258 -109 212z m78 -97 c0 -15 -15 -50 -32 -76
-33 -49 -122 -119 -139 -108 -25 15 15 138 57 176 27 23 85 47 101 41 7 -3 13
-18 13 -33z"/>
<path d="M4774 4712 c-26 -17 -32 -59 -39 -267 -8 -247 0 -328 37 -358 31 -26
76 -18 102 16 20 27 21 40 21 280 0 264 -6 306 -46 327 -21 12 -59 13 -75 2z"/>
<path d="M1650 4328 c-53 -19 -126 -95 -140 -148 -23 -85 7 -179 82 -260 72
-78 108 -186 164 -505 23 -132 27 -190 34 -476 4 -179 13 -374 19 -435 5 -60
15 -163 22 -229 14 -154 61 -432 93 -558 52 -204 128 -304 288 -381 105 -50
193 -81 288 -100 l65 -13 -3 -169 c-5 -228 17 -377 82 -561 8 -22 12 -44 9
-47 -4 -3 -44 -6 -89 -6 -46 0 -94 -5 -107 -11 -45 -20 -60 -85 -32 -138 20
-40 71 -61 147 -61 106 0 205 61 228 141 16 54 12 81 -29 211 -21 68 -44 157
-51 198 -15 85 -16 350 -2 395 8 27 13 30 43 27 19 -1 232 -5 474 -8 l440 -6
0 -137 c0 -151 25 -282 91 -474 18 -55 31 -103 29 -108 -3 -4 -36 -10 -73 -14
-95 -10 -135 -21 -160 -48 -54 -57 -28 -134 51 -156 107 -30 283 44 333 140
24 47 16 102 -35 256 -64 191 -95 345 -89 438 6 97 18 115 73 115 109 0 431
76 616 146 271 102 459 372 459 660 0 206 -123 440 -278 531 -90 53 -109 56
-402 64 -302 7 -350 13 -585 69 -283 68 -430 128 -605 245 -254 170 -387 323
-659 759 -126 202 -172 263 -262 356 -112 114 -277 259 -321 281 -51 26 -155
34 -208 17z m143 -155 c37 -19 171 -138 269 -238 66 -68 129 -160 328 -476
181 -290 313 -439 541 -609 214 -160 384 -242 629 -300 69 -17 141 -35 160
-40 19 -5 100 -18 180 -30 80 -11 165 -23 190 -27 25 -3 135 -7 245 -7 199 -1
200 -1 258 -29 78 -39 148 -133 193 -260 91 -257 -41 -540 -309 -662 -119 -55
-407 -124 -599 -145 -169 -18 -900 -6 -1168 19 -337 31 -509 110 -591 273 -54
107 -83 246 -119 578 -11 107 -27 247 -35 310 -21 167 -24 228 -30 497 -4 190
-10 279 -30 410 -49 325 -87 451 -163 541 -92 109 -105 153 -56 191 32 25 64
27 107 4z"/>
<path d="M2450 2570 c-11 -11 -20 -27 -20 -36 0 -21 57 -74 79 -74 25 0 61 42
61 72 0 54 -79 79 -120 38z"/>
<path d="M2926 2268 c-22 -31 -20 -41 10 -77 44 -52 103 -34 104 32 0 59 -82
92 -114 45z"/>
<path d="M2690 4241 c-35 -9 -73 -68 -65 -101 12 -47 37 -72 98 -100 77 -35
207 -76 268 -85 52 -8 101 11 119 44 14 27 13 94 -2 113 -13 16 -303 120 -363
130 -16 3 -41 2 -55 -1z"/>
<path d="M5217 3975 c-53 -20 -113 -66 -146 -112 -45 -62 -61 -116 -61 -202 0
-66 4 -86 30 -138 54 -107 137 -171 250 -193 183 -35 360 78 406 260 39 154
-22 270 -192 366 -58 32 -66 34 -155 33 -54 0 -110 -6 -132 -14z m169 -295
c26 -10 26 -11 9 -30 -30 -33 -75 -20 -75 22 0 21 24 23 66 8z"/>
<path d="M4233 3749 c-64 -12 -115 -43 -171 -103 -100 -110 -120 -249 -52
-356 55 -85 137 -130 241 -130 125 0 236 74 278 184 25 68 27 127 5 215 -21
87 -50 123 -127 160 -71 33 -114 41 -174 30z m47 -287 c0 -10 -5 -23 -12 -30
-13 -13 -48 -16 -48 -4 0 16 32 52 46 52 8 0 14 -8 14 -18z"/>
<path d="M5320 1107 c-63 -31 -96 -195 -54 -266 43 -74 132 -74 180 -1 20 31
27 56 31 119 7 92 -5 132 -43 150 -33 14 -83 14 -114 -2z"/>
</g>
</svg>
