<?xml version="1.0" standalone="no"?>
<!DOCTYPE svg PUBLIC "-//W3C//DTD SVG 20010904//EN"
 "http://www.w3.org/TR/2001/REC-SVG-20010904/DTD/svg10.dtd">
<svg version="1.0" xmlns="http://www.w3.org/2000/svg"
 width="600.000000pt" height="600.000000pt" viewBox="0 0 600.000000 600.000000"
 preserveAspectRatio="xMidYMid meet">
<metadata>
Created by potrace 1.15, written by Peter Selinger 2001-2017
</metadata>
<g transform="translate(0.000000,600.000000) scale(0.100000,-0.100000)"
fill="#16364b" stroke="none">
<path d="M2210 5747 c-111 -40 -689 -553 -734 -651 -39 -84 -33 -166 16 -222
88 -100 243 -109 519 -28 152 44 502 168 530 188 37 26 59 68 59 116 0 62 -29
106 -87 132 -59 26 -84 21 -340 -68 -102 -36 -188 -63 -190 -61 -6 7 158 145
317 267 110 84 130 109 130 168 0 75 -52 140 -128 162 -46 12 -49 12 -92 -3z"/>
<path d="M3110 5659 c-87 -35 -128 -149 -80 -226 24 -40 42 -49 143 -75 102
-25 229 -84 282 -131 22 -19 54 -59 70 -88 25 -45 30 -65 29 -119 -1 -132 -70
-212 -271 -311 -71 -35 -133 -73 -147 -90 -36 -43 -43 -108 -17 -161 45 -93
117 -101 266 -29 168 82 300 185 369 290 64 95 81 156 81 276 -1 85 -6 113
-32 188 -41 116 -84 187 -163 266 -98 99 -201 152 -392 201 -85 22 -102 23
-138 9z"/>
<path d="M974 5320 c-214 -113 -327 -284 -327 -495 1 -114 26 -196 91 -296 51
-77 146 -179 197 -210 92 -57 213 16 223 134 5 68 -9 97 -88 172 -75 73 -110
140 -110 212 0 30 6 66 14 82 19 35 84 95 133 120 134 69 150 246 27 297 -51
21 -97 17 -160 -16z"/>
<path d="M4755 4901 c-45 -21 -65 -51 -89 -134 -14 -49 -15 -70 -6 -139 38
-275 160 -423 350 -422 120 1 224 70 265 177 24 63 17 174 -15 237 -48 95
-173 192 -330 260 -96 40 -127 44 -175 21z"/>
<path d="M2680 4865 c-105 -57 -212 -174 -246 -267 -39 -107 -36 -194 10 -292
49 -108 191 -210 336 -242 66 -15 74 -15 116 1 33 12 50 27 69 59 57 98 12
194 -105 226 -102 27 -157 74 -145 122 9 35 70 95 132 130 102 58 132 123 93
203 -15 31 -35 53 -64 70 -62 36 -115 33 -196 -10z"/>
<path d="M1780 4387 c-36 -12 -89 -37 -118 -55 -63 -41 -149 -133 -173 -187
-44 -96 -5 -193 89 -226 61 -21 99 -4 177 76 92 94 134 109 210 74 69 -32 150
-32 190 -1 63 50 83 143 46 212 -57 109 -264 161 -421 107z"/>
<path d="M2625 3834 c-97 -12 -184 -28 -213 -40 -99 -41 -117 -169 -35 -249
47 -45 86 -52 192 -31 47 9 119 16 159 16 84 0 85 -2 48 -93 -51 -123 -175
-302 -380 -547 -109 -131 -121 -158 -100 -230 26 -87 125 -145 206 -121 41 13
47 20 322 390 203 273 264 385 286 527 24 152 -40 280 -168 337 -83 38 -207
53 -317 41z"/>
<path d="M4268 3780 c-184 -23 -301 -89 -352 -199 -32 -69 -28 -187 8 -262 33
-68 93 -131 155 -161 37 -19 63 -23 131 -23 73 0 93 4 142 28 104 51 186 147
259 302 33 71 39 93 39 151 0 81 -20 123 -71 146 -42 19 -217 29 -311 18z m20
-311 c-2 -6 -16 -18 -31 -27 -21 -13 -29 -14 -39 -4 -9 9 -4 15 23 26 41 18
52 19 47 5z"/>
<path d="M1145 3696 c-111 -26 -247 -90 -292 -138 -54 -58 -69 -168 -33 -242
38 -78 130 -113 218 -83 25 9 42 11 42 5 0 -16 -70 -176 -148 -338 -97 -203
-190 -462 -216 -602 -16 -86 44 -180 131 -206 51 -15 148 -16 176 0 48 25 477
452 604 601 74 86 137 157 140 157 2 0 2 -15 -1 -32 -3 -18 -13 -80 -22 -138
-27 -179 -70 -339 -174 -653 -58 -177 -100 -320 -100 -343 0 -129 162 -195
260 -106 64 58 272 745 321 1057 42 277 45 367 13 482 -27 97 -99 153 -197
153 -111 0 -242 -98 -428 -321 -50 -60 -92 -109 -94 -109 -2 0 7 28 20 63 177
456 189 502 161 599 -46 158 -198 236 -381 194z"/>
<path d="M3522 3371 c-109 -38 -186 -153 -222 -333 -21 -102 -17 -146 19 -196
31 -44 78 -62 163 -62 179 1 319 68 381 185 32 60 30 172 -4 245 -36 76 -71
115 -133 145 -72 35 -137 40 -204 16z"/>
<path d="M4803 2685 c-152 -41 -248 -143 -257 -271 -2 -27 -8 -49 -12 -50 -5
0 -27 7 -49 17 -58 27 -147 25 -210 -5 -120 -55 -158 -161 -120 -336 7 -36 12
-67 9 -69 -2 -2 -43 8 -91 22 -176 54 -257 58 -367 17 -101 -38 -172 -134
-197 -266 -22 -117 13 -494 57 -612 69 -184 345 -190 430 -8 30 65 31 132 0
294 -19 105 -21 122 -8 122 9 0 63 -23 121 -51 l106 -51 90 5 c108 7 164 25
230 75 59 45 109 135 126 227 14 76 5 232 -20 350 -10 50 -17 91 -16 93 2 2
24 -11 50 -27 115 -73 265 -42 340 70 63 95 90 246 61 334 -23 66 -40 92 -79
115 -38 24 -117 25 -194 5z"/>
<path d="M2935 2436 c-38 -8 -104 -26 -145 -41 -102 -38 -395 -179 -438 -211
-115 -88 -83 -279 56 -334 58 -23 117 -8 235 58 116 65 258 129 307 138 30 6
30 6 24 -27 -17 -88 -81 -256 -144 -377 -60 -113 -70 -140 -70 -183 0 -78 37
-132 112 -164 71 -29 175 -10 220 41 21 24 168 294 195 359 77 182 101 455 50
577 -23 55 -91 123 -146 147 -64 27 -168 34 -256 17z"/>
<path d="M2125 1897 c-94 -31 -145 -69 -176 -129 -55 -106 19 -241 145 -267
28 -6 31 -13 66 -128 l37 -122 -40 -32 c-121 -97 -146 -261 -66 -429 43 -91
153 -246 222 -312 70 -67 170 -120 332 -175 101 -34 119 -37 225 -37 147 -1
235 27 375 120 105 69 131 188 59 274 -64 75 -147 82 -281 24 -119 -51 -168
-51 -283 0 -120 53 -121 55 -55 81 113 46 164 111 165 208 0 65 -30 121 -87
160 -130 89 -178 171 -237 402 -56 217 -102 297 -199 347 -51 26 -148 33 -202
15z"/>
</g>
</svg>
