<?xml version="1.0" standalone="no"?>
<!DOCTYPE svg PUBLIC "-//W3C//DTD SVG 20010904//EN"
 "http://www.w3.org/TR/2001/REC-SVG-20010904/DTD/svg10.dtd">
<svg version="1.0" xmlns="http://www.w3.org/2000/svg"
 width="600.000000pt" height="600.000000pt" viewBox="0 0 600.000000 600.000000"
 preserveAspectRatio="xMidYMid meet">
<metadata>
Created by potrace 1.15, written by Peter Selinger 2001-2017
</metadata>
<g transform="translate(0.000000,600.000000) scale(0.100000,-0.100000)"
fill="#16364b" stroke="none">
<path d="M1508 5780 c-31 -24 -177 -245 -230 -347 -30 -59 -38 -85 -38 -128 0
-47 4 -58 33 -88 58 -62 129 -59 245 10 153 92 354 227 373 251 45 57 -1 164
-76 178 -35 6 -82 -13 -144 -60 -19 -14 -36 -24 -39 -22 -2 3 8 22 22 43 38
56 35 106 -8 149 -27 27 -42 34 -74 34 -24 0 -49 -8 -64 -20z"/>
<path d="M2378 5443 c-41 -26 -50 -58 -49 -173 3 -205 -30 -400 -86 -519 -37
-77 -112 -148 -204 -193 -42 -20 -86 -49 -98 -64 -52 -66 5 -174 92 -174 29 0
154 52 206 85 141 89 253 305 296 570 20 123 20 362 0 413 -26 65 -99 91 -157
55z"/>
<path d="M3523 5330 c-38 -16 -78 -87 -77 -139 2 -141 162 -301 301 -301 46 0
58 4 89 33 29 26 37 42 41 80 12 107 -118 282 -238 320 -61 19 -83 20 -116 7z"/>
<path d="M3003 5143 c-23 -8 -63 -35 -87 -60 -62 -63 -89 -122 -94 -211 -4
-65 -2 -77 21 -111 53 -81 157 -97 269 -42 78 39 94 63 109 166 21 137 -22
241 -109 265 -46 13 -57 12 -109 -7z"/>
<path d="M4751 4763 c-54 -27 -65 -66 -58 -213 15 -333 143 -520 348 -508 56
3 76 9 110 33 98 69 115 194 46 339 -63 133 -138 216 -284 315 -73 50 -115 58
-162 34z m239 -450 c0 -22 -8 -14 -19 20 -10 29 -9 30 4 13 8 -11 15 -26 15
-33z"/>
<path d="M2721 4220 c-108 -23 -210 -103 -231 -182 -55 -202 142 -375 356
-313 80 23 136 58 218 135 99 93 126 164 92 245 -19 45 -48 62 -153 91 -99 28
-217 38 -282 24z"/>
<path d="M1074 4091 c-96 -59 -70 -224 39 -246 69 -14 177 -49 187 -60 22 -27
-132 -76 -280 -91 -121 -11 -170 -49 -170 -131 0 -91 62 -143 173 -143 71 0
204 22 282 47 230 73 330 223 265 396 -39 104 -143 180 -311 226 -93 26 -145
27 -185 2z"/>
<path d="M4225 3761 c-78 -22 -109 -40 -167 -90 -162 -143 -126 -397 71 -488
46 -22 63 -25 130 -21 176 10 304 134 346 333 26 125 17 193 -32 237 -50 46
-237 61 -348 29z m85 -281 c-9 -18 -40 -40 -54 -40 -15 0 -4 31 16 44 33 23
51 21 38 -4z"/>
<path d="M1660 3687 c-123 -43 -128 -341 -7 -443 49 -41 106 -64 165 -64 166
0 259 174 183 345 -26 58 -96 134 -146 156 -46 21 -142 24 -195 6z"/>
<path d="M5160 3607 c-165 -56 -245 -148 -266 -304 -11 -88 32 -210 97 -270
92 -84 274 -85 389 -2 62 45 87 76 122 147 64 133 44 256 -60 361 -30 31 -66
64 -81 73 -36 25 -121 23 -201 -5z m80 -294 c0 -10 -32 -43 -42 -43 -14 0 -9
22 10 36 19 15 32 18 32 7z"/>
<path d="M3414 3381 c-45 -27 -75 -71 -133 -190 -66 -136 -67 -196 -1 -234 39
-23 72 -21 134 8 70 33 119 84 161 168 28 56 35 81 35 128 0 53 -3 63 -33 95
-28 31 -41 37 -83 41 -37 3 -57 -1 -80 -16z"/>
<path d="M2485 3219 c-153 -30 -253 -84 -394 -208 -144 -129 -177 -151 -308
-209 -126 -56 -193 -97 -285 -176 -138 -118 -228 -272 -269 -459 -31 -137 -24
-300 18 -419 46 -132 100 -214 246 -371 237 -255 309 -313 447 -366 130 -49
206 -64 330 -64 225 -1 391 57 626 218 134 93 229 181 353 330 74 89 112 143
253 351 63 95 83 169 83 314 -1 142 -16 213 -69 326 -38 80 -128 218 -221 339
-33 44 -67 100 -74 124 -32 110 -191 232 -358 275 -84 22 -252 19 -378 -5z
m276 -371 c7 -13 67 -77 134 -143 92 -90 140 -148 197 -235 145 -221 160 -308
69 -411 -21 -24 -56 -74 -79 -111 -100 -167 -248 -331 -372 -414 -184 -123
-307 -174 -446 -181 -123 -7 -179 10 -286 88 -150 111 -317 262 -354 322 -75
117 -62 272 37 424 67 102 146 167 283 234 165 79 230 124 366 254 160 150
242 192 382 194 50 1 59 -2 69 -21z"/>
<path d="M381 2244 c-44 -37 -48 -76 -17 -185 76 -263 207 -454 365 -532 54
-26 76 -31 135 -31 128 0 206 64 214 175 11 150 -76 257 -364 447 -256 169
-274 176 -333 126z m418 -459 c47 -51 49 -69 3 -37 -29 21 -102 105 -102 117
0 12 56 -33 99 -80z"/>
<path d="M4530 1893 c-14 -3 -41 -18 -62 -33 -30 -25 -38 -27 -48 -15 -6 7
-32 18 -57 23 -83 18 -149 -17 -178 -93 -16 -39 -16 -57 -6 -162 32 -318 105
-446 256 -447 124 -1 173 77 240 377 38 172 42 237 19 276 -32 54 -102 85
-164 74z"/>
</g>
</svg>
