<?xml version="1.0" standalone="no"?>
<!DOCTYPE svg PUBLIC "-//W3C//DTD SVG 20010904//EN"
 "http://www.w3.org/TR/2001/REC-SVG-20010904/DTD/svg10.dtd">
<svg version="1.0" xmlns="http://www.w3.org/2000/svg"
 width="600.000000pt" height="600.000000pt" viewBox="0 0 600.000000 600.000000"
 preserveAspectRatio="xMidYMid meet">
<metadata>
Created by potrace 1.15, written by Peter Selinger 2001-2017
</metadata>
<g transform="translate(0.000000,600.000000) scale(0.100000,-0.100000)"
fill="#16364b" stroke="none">
<path d="M1525 5767 c-98 -57 -364 -237 -387 -262 -33 -35 -41 -77 -24 -119
36 -87 96 -87 478 5 142 34 171 45 188 66 22 28 26 83 9 115 -15 27 -67 47
-108 40 -34 -5 -34 -5 -18 19 19 26 22 81 7 110 -12 22 -60 49 -87 49 -10 0
-36 -11 -58 -23z"/>
<path d="M2373 5431 c-39 -25 -40 -29 -48 -206 -18 -407 -97 -600 -285 -699
-38 -20 -76 -47 -85 -59 -40 -57 0 -137 71 -137 52 0 162 61 242 135 165 153
257 439 250 775 -3 144 -4 151 -28 175 -35 35 -77 40 -117 16z"/>
<path d="M3530 5311 c-26 -7 -67 -59 -77 -99 -3 -14 2 -50 12 -80 45 -143 165
-252 279 -252 42 0 53 5 83 35 33 33 35 38 31 89 -5 60 -42 130 -111 211 -59
68 -156 112 -217 96z"/>
<path d="M3032 5150 c-84 -20 -165 -108 -201 -218 -51 -153 2 -272 121 -272
45 0 123 39 176 86 36 32 47 51 63 109 24 88 25 179 1 225 -28 56 -96 86 -160
70z m-12 -256 c-18 -21 -24 -10 -9 18 8 14 14 18 17 10 2 -7 -2 -19 -8 -28z"/>
<path d="M4771 4774 c-43 -31 -51 -70 -51 -251 1 -230 26 -334 100 -411 104
-110 261 -82 323 57 25 57 26 169 2 243 -44 135 -161 303 -249 357 -40 25 -93
27 -125 5z"/>
<path d="M2670 4221 c-173 -53 -213 -249 -74 -370 60 -53 118 -74 209 -74 95
-1 167 22 259 83 93 60 118 90 124 148 8 91 -29 133 -150 169 -164 48 -300 64
-368 44z"/>
<path d="M1112 4117 c-74 -42 -74 -168 1 -205 12 -6 45 -18 73 -27 28 -8 60
-22 70 -30 18 -13 16 -14 -17 -15 -20 0 -64 9 -98 20 -74 23 -111 18 -151 -22
-50 -50 -52 -123 -5 -170 68 -68 306 -97 410 -50 95 44 135 103 135 202 0 134
-102 241 -279 294 -65 19 -108 20 -139 3z"/>
<path d="M5210 3776 c-82 -18 -146 -54 -201 -114 -110 -120 -115 -296 -13
-435 64 -88 164 -134 264 -123 163 19 309 160 329 320 15 119 -22 202 -131
290 -95 77 -135 87 -248 62z m70 -310 c0 -19 -27 -46 -46 -46 -17 0 -19 46 -1
53 24 10 47 7 47 -7z"/>
<path d="M4209 3760 c-72 -12 -154 -56 -198 -106 -105 -119 -93 -314 24 -429
155 -150 433 -67 515 153 31 81 38 235 13 282 -24 46 -85 78 -181 96 -85 15
-106 15 -173 4z m71 -280 c0 -16 -38 -50 -56 -50 -24 0 -13 33 16 47 30 15 40
16 40 3z"/>
<path d="M1632 3690 c-43 -18 -49 -53 -23 -148 32 -121 80 -242 107 -269 32
-31 78 -30 111 3 23 23 25 31 20 78 -3 29 -27 107 -53 175 -60 155 -93 188
-162 161z"/>
<path d="M3453 3373 c-44 -24 -75 -69 -140 -198 -61 -123 -63 -152 -16 -194
22 -19 35 -22 75 -19 63 6 116 43 160 110 88 132 93 270 12 306 -34 16 -54 15
-91 -5z"/>
<path d="M1730 3070 c-170 -29 -269 -58 -378 -111 -176 -85 -289 -218 -337
-394 -23 -85 -30 -217 -15 -304 26 -154 138 -305 280 -380 87 -45 178 -111
221 -158 34 -37 76 -103 175 -272 114 -196 325 -354 518 -390 139 -26 344 -6
521 49 65 20 137 33 256 44 193 18 342 53 509 119 220 85 381 176 520 292 192
160 268 279 337 524 21 74 27 119 28 196 0 94 -2 105 -33 167 -41 83 -186 240
-280 301 -133 88 -247 112 -392 82 -67 -14 -138 -17 -345 -17 -306 -1 -372 10
-587 92 -262 101 -383 140 -501 160 -150 25 -349 25 -497 0z m530 -399 c63
-13 141 -39 230 -79 175 -77 316 -126 460 -159 l115 -26 251 11 c168 8 286 18
356 32 81 15 112 18 133 10 76 -29 175 -143 175 -202 0 -47 -20 -109 -61 -193
-39 -81 -146 -195 -249 -267 -141 -99 -376 -205 -528 -238 -77 -17 -285 -39
-367 -39 -17 0 -83 -16 -148 -35 -196 -59 -323 -69 -414 -31 -63 27 -131 104
-221 253 -148 245 -234 337 -428 456 -147 91 -164 104 -184 149 -50 109 6 239
130 302 48 24 191 60 300 75 99 14 341 4 450 -19z"/>
<path d="M453 2169 c-18 -5 -39 -19 -48 -31 -16 -24 -20 -88 -6 -103 5 -6 28
-54 51 -108 96 -221 203 -330 335 -344 72 -8 132 21 164 78 74 131 -65 316
-351 468 -89 47 -104 52 -145 40z"/>
<path d="M4865 1575 c-16 -9 -33 -22 -38 -30 -5 -10 -15 -11 -43 -4 -78 22
-145 -28 -152 -115 -5 -60 19 -190 49 -271 37 -100 126 -153 201 -122 72 30
114 118 149 317 17 92 19 122 10 152 -21 69 -113 107 -176 73z"/>
</g>
</svg>
