<?xml version="1.0" standalone="no"?>
<!DOCTYPE svg PUBLIC "-//W3C//DTD SVG 20010904//EN"
 "http://www.w3.org/TR/2001/REC-SVG-20010904/DTD/svg10.dtd">
<svg version="1.0" xmlns="http://www.w3.org/2000/svg"
 width="600.000000pt" height="600.000000pt" viewBox="0 0 600.000000 600.000000"
 preserveAspectRatio="xMidYMid meet">
<metadata>
Created by potrace 1.15, written by Peter Selinger 2001-2017
</metadata>
<g transform="translate(0.000000,600.000000) scale(0.100000,-0.100000)"
fill="#16364b" stroke="none">
<path d="M2774 5560 c-61 -14 -81 -35 -139 -148 -85 -168 -85 -277 2 -390 32
-42 125 -88 196 -96 28 -3 103 0 165 7 62 7 114 12 116 10 2 -2 -64 -70 -147
-151 -169 -166 -282 -297 -368 -425 -52 -77 -59 -94 -59 -137 0 -37 7 -58 33
-96 45 -69 76 -80 247 -93 347 -27 411 -34 544 -62 160 -33 186 -35 224 -15
50 26 75 62 80 115 5 59 -20 108 -71 139 -60 37 -359 98 -531 110 -70 4 -111
11 -113 19 -7 21 228 246 352 338 203 150 255 216 255 316 0 42 -30 107 -61
136 -39 35 -124 73 -202 90 -71 15 -261 13 -374 -3 -53 -8 -53 -5 -8 96 40 90
42 109 15 165 -29 60 -91 90 -156 75z"/>
<path d="M1595 5229 c-85 -35 -185 -109 -296 -221 -289 -291 -396 -553 -265
-653 42 -32 80 -32 198 1 115 32 324 46 333 22 3 -7 -10 -65 -29 -128 -59
-196 -59 -234 0 -300 l35 -39 -43 -11 c-88 -23 -108 -32 -133 -61 -31 -38 -39
-67 -32 -126 9 -78 76 -143 150 -143 43 0 380 102 498 151 105 43 139 67 160
113 24 53 24 88 -1 137 -43 83 -129 101 -248 51 -85 -36 -122 -46 -122 -32 0
6 16 59 36 118 67 202 77 280 49 363 -49 142 -202 239 -376 239 -38 0 -69 4
-69 9 0 4 35 42 79 83 74 72 121 105 215 152 76 38 110 152 66 224 -43 70
-114 88 -205 51z"/>
<path d="M4401 4640 c-133 -28 -410 -153 -444 -201 -48 -68 -22 -171 53 -209
56 -28 85 -25 176 18 99 48 208 92 228 92 13 0 13 -5 0 -50 -21 -70 -91 -218
-184 -390 -43 -80 -82 -157 -85 -172 -4 -15 -1 -44 5 -64 16 -47 106 -138 151
-152 19 -6 115 -16 214 -22 297 -18 326 -21 331 -35 8 -20 -86 -242 -191 -457
-42 -84 -49 -119 -35 -162 24 -74 110 -118 188 -97 69 19 99 67 232 366 83
187 110 279 110 374 0 212 -141 300 -487 301 -72 0 -138 3 -147 6 -12 5 0 34
58 152 118 237 146 320 147 437 1 87 -15 135 -61 187 -60 69 -159 98 -259 78z"/>
<path d="M3780 3670 c-165 -31 -298 -139 -307 -249 -12 -143 183 -207 263 -86
16 25 62 55 84 55 26 0 1 -100 -63 -253 l-41 -98 -75 -37 c-97 -48 -195 -140
-210 -197 -29 -109 73 -221 183 -201 19 4 61 26 93 50 73 55 113 74 243 121
166 59 218 93 246 161 30 73 3 173 -59 216 -18 12 -34 23 -35 24 -2 1 4 37 13
79 52 233 -43 403 -236 419 -30 3 -74 1 -99 -4z"/>
<path d="M2455 3521 c-98 -26 -139 -42 -264 -106 -120 -61 -148 -91 -158 -165
-7 -49 25 -119 66 -143 50 -29 105 -22 231 33 140 60 222 82 292 78 l53 -3 -3
-45 c-5 -64 -45 -177 -102 -290 -57 -110 -64 -162 -30 -218 54 -88 184 -98
257 -20 71 77 165 323 182 478 24 222 -46 356 -212 405 -69 21 -223 18 -312
-4z"/>
<path d="M1185 3250 c-72 -13 -209 -84 -265 -139 -64 -62 -82 -123 -60 -203
24 -85 101 -138 200 -138 52 0 60 -3 60 -18 0 -10 -14 -84 -31 -163 -28 -131
-32 -165 -36 -374 -8 -351 12 -430 120 -484 57 -28 105 -24 186 17 51 26 57
33 121 147 96 175 211 356 284 449 81 102 153 173 164 161 26 -30 37 -107 36
-250 -1 -155 -5 -179 -68 -480 -20 -93 -36 -188 -36 -211 0 -110 140 -196 239
-147 l39 19 -5 -35 c-6 -45 29 -265 64 -396 58 -225 132 -376 228 -471 110
-108 224 -144 351 -109 72 19 203 98 229 139 9 13 30 29 47 35 54 19 97 60
129 123 114 226 264 408 336 408 27 0 108 -36 193 -86 125 -73 284 -95 394
-53 91 33 173 120 190 199 4 15 21 34 44 48 48 29 78 74 92 135 12 56 5 92
-39 189 -38 82 -58 192 -41 213 18 22 70 34 225 51 77 8 167 22 200 31 138 35
234 107 283 211 25 52 27 67 27 182 0 81 -5 139 -14 165 -45 129 -152 192
-279 164 -103 -22 -178 -107 -189 -214 -7 -64 0 -61 -146 -70 -54 -3 -123 -13
-155 -21 -83 -21 -212 -87 -268 -138 -164 -147 -197 -389 -95 -682 17 -49 31
-92 31 -96 0 -18 -36 -5 -101 37 -209 135 -350 165 -516 110 -178 -60 -289
-177 -477 -506 -51 -90 -72 -118 -92 -123 -14 -4 -43 -19 -65 -33 -36 -24 -42
-25 -55 -11 -29 29 -82 211 -158 541 -8 38 -27 83 -41 102 -55 71 -173 97
-244 54 -18 -11 -35 -19 -36 -17 -2 2 12 84 30 183 73 396 85 659 41 877 -13
65 -34 137 -45 161 -48 99 -144 155 -244 144 -138 -17 -269 -123 -483 -392
-15 -19 -15 -18 -10 15 2 19 15 89 27 155 31 168 31 339 1 416 -55 139 -171
204 -317 179z"/>
<path d="M3005 2569 c-118 -25 -369 -96 -421 -119 -71 -31 -123 -107 -124
-181 0 -57 45 -135 96 -165 75 -44 100 -42 294 24 174 59 334 101 346 90 3 -4
-11 -46 -31 -95 -50 -121 -58 -150 -51 -197 15 -91 94 -156 190 -156 98 0 152
49 206 186 68 174 88 310 61 410 -26 97 -109 178 -215 209 -70 21 -240 18
-351 -6z"/>
</g>
</svg>
