<?xml version="1.0" standalone="no"?>
<!DOCTYPE svg PUBLIC "-//W3C//DTD SVG 20010904//EN"
 "http://www.w3.org/TR/2001/REC-SVG-20010904/DTD/svg10.dtd">
<svg version="1.0" xmlns="http://www.w3.org/2000/svg"
 width="600.000000pt" height="600.000000pt" viewBox="0 0 600.000000 600.000000"
 preserveAspectRatio="xMidYMid meet">
<metadata>
Created by potrace 1.15, written by Peter Selinger 2001-2017
</metadata>
<g transform="translate(0.000000,600.000000) scale(0.100000,-0.100000)"
fill="#16364b" stroke="none">
<path d="M3016 5055 c-73 -26 -131 -103 -142 -187 -11 -90 61 -159 141 -137
85 23 175 135 175 216 0 49 -26 92 -65 109 -42 17 -59 17 -109 -1z m94 -70
c29 -35 -24 -131 -96 -175 -44 -28 -64 -21 -64 24 0 46 16 85 48 120 43 45 89
58 112 31z"/>
<path d="M4765 4707 c-18 -28 -35 -242 -35 -448 0 -123 2 -139 21 -163 26 -34
79 -36 108 -4 32 33 36 74 36 344 0 234 -1 253 -19 273 -28 30 -90 29 -111 -2z"/>
<path d="M1660 4397 c-55 -18 -126 -95 -144 -158 -20 -65 -20 -92 -1 -155 13
-43 28 -71 98 -173 26 -39 72 -164 101 -276 53 -202 77 -382 87 -660 5 -143
14 -294 19 -335 5 -41 14 -199 19 -350 7 -212 14 -300 31 -384 39 -200 113
-369 209 -478 86 -97 245 -177 404 -201 l82 -13 -4 -189 c-4 -221 7 -308 55
-449 18 -55 31 -103 29 -106 -3 -4 -44 -10 -91 -12 -83 -4 -88 -6 -116 -36
-49 -55 -31 -134 38 -167 51 -24 135 -17 206 18 117 57 144 145 90 290 -58
153 -66 198 -66 382 -1 94 3 192 7 219 l9 48 46 -6 c105 -14 675 -38 782 -32
l115 6 1 -102 c2 -93 8 -126 67 -343 36 -131 63 -243 61 -247 -3 -4 -39 -8
-79 -8 -86 0 -134 -18 -159 -60 -30 -52 -14 -112 39 -138 84 -41 237 -9 307
65 60 64 62 125 8 299 -91 299 -111 411 -88 499 l13 49 160 27 c278 46 518
113 610 172 140 89 263 254 315 422 58 190 -13 513 -144 653 -86 92 -191 132
-346 132 -417 1 -833 86 -1108 227 -127 65 -297 166 -372 223 -92 68 -202 185
-260 275 -141 220 -454 680 -520 765 -19 25 -77 91 -128 147 -75 82 -108 109
-160 135 -73 36 -160 46 -222 25z m167 -173 c24 -14 62 -48 84 -77 23 -29 56
-64 74 -79 62 -52 134 -155 512 -740 187 -288 351 -428 748 -634 170 -88 265
-124 432 -163 173 -40 588 -91 739 -91 187 0 270 -70 340 -285 61 -190 12
-398 -129 -543 -87 -90 -179 -130 -451 -197 -296 -73 -579 -94 -1004 -76 -714
30 -728 32 -854 98 -128 67 -217 191 -268 374 -37 134 -51 241 -61 471 -5 125
-16 285 -24 355 -8 71 -18 216 -21 323 -6 223 -17 347 -45 510 -49 280 -108
469 -174 561 -70 98 -81 146 -44 193 28 35 86 36 146 0z"/>
<path d="M2450 2590 c-34 -34 -25 -82 22 -106 39 -20 67 -9 84 32 15 35 7 68
-20 86 -21 14 -66 8 -86 -12z"/>
<path d="M2930 2300 c-47 -47 -2 -116 72 -111 18 1 48 48 48 76 0 25 -38 55
-70 55 -17 0 -39 -9 -50 -20z"/>
<path d="M5298 4000 c-117 -19 -214 -87 -270 -192 -20 -37 -23 -57 -23 -148 0
-97 2 -109 29 -158 34 -61 95 -120 158 -154 36 -19 58 -23 133 -23 82 0 97 3
156 32 135 67 211 186 213 333 1 90 -26 158 -82 213 -92 89 -184 117 -314 97z
m81 -339 c19 -12 7 -39 -21 -50 -26 -10 -48 9 -48 41 0 13 8 18 28 18 15 0 33
-4 41 -9z"/>
<path d="M4185 3756 c-91 -29 -160 -88 -196 -171 -53 -120 -21 -275 75 -358
136 -118 381 -73 460 84 36 74 36 174 -2 279 -23 65 -34 79 -77 112 -82 62
-174 81 -260 54z m95 -291 c0 -28 -36 -53 -53 -36 -7 7 -5 18 7 35 21 33 46
34 46 1z"/>
<path d="M5347 1109 c-51 -20 -95 -143 -76 -212 14 -53 54 -80 106 -74 24 2
50 10 59 18 29 24 55 89 61 152 5 56 3 66 -18 91 -27 31 -86 42 -132 25z"/>
</g>
</svg>
