<?xml version="1.0" standalone="no"?>
<!DOCTYPE svg PUBLIC "-//W3C//DTD SVG 20010904//EN"
 "http://www.w3.org/TR/2001/REC-SVG-20010904/DTD/svg10.dtd">
<svg version="1.0" xmlns="http://www.w3.org/2000/svg"
 width="600.000000pt" height="600.000000pt" viewBox="0 0 600.000000 600.000000"
 preserveAspectRatio="xMidYMid meet">
<metadata>
Created by potrace 1.15, written by Peter Selinger 2001-2017
</metadata>
<g transform="translate(0.000000,600.000000) scale(0.100000,-0.100000)"
fill="#16364b" stroke="none">
<path d="M2134 5673 c-21 -4 -304 -236 -446 -366 -94 -86 -174 -180 -210 -248
-63 -116 -20 -243 97 -296 81 -36 298 -16 535 48 146 40 327 100 359 120 43
26 75 97 66 148 -9 55 -39 97 -84 121 -55 27 -69 26 -206 -20 -160 -54 -295
-91 -295 -80 0 5 11 17 24 27 64 49 333 309 349 336 63 115 -48 238 -189 210z"/>
<path d="M3083 5650 c-48 -29 -67 -65 -67 -126 0 -81 17 -98 189 -183 129 -63
158 -82 215 -140 72 -71 100 -129 100 -206 0 -104 -105 -222 -275 -306 -55
-28 -108 -58 -119 -67 -67 -61 -58 -187 18 -233 49 -30 110 -25 196 17 170 81
334 216 404 333 98 162 102 363 9 531 -92 168 -246 286 -491 374 -87 31 -136
33 -179 6z"/>
<path d="M985 5306 c-98 -48 -176 -113 -235 -198 -118 -167 -120 -348 -9 -557
49 -91 129 -194 178 -226 89 -61 221 -6 238 99 11 67 -4 104 -72 176 -75 80
-105 134 -112 205 -10 96 44 168 182 244 57 32 78 65 83 131 3 45 0 61 -20 90
-28 42 -80 70 -128 70 -20 0 -66 -15 -105 -34z"/>
<path d="M4700 4869 c-46 -26 -80 -77 -80 -117 0 -17 -5 -52 -12 -77 -25 -92
49 -291 145 -388 74 -76 133 -102 227 -102 62 0 85 5 132 28 105 52 163 150
161 275 -1 76 -33 148 -99 221 -58 65 -138 113 -251 151 -108 36 -173 38 -223
9z"/>
<path d="M2745 4817 c-86 -45 -194 -156 -235 -240 -57 -117 -54 -260 9 -352
88 -130 345 -211 427 -134 55 52 68 116 36 178 -22 44 -57 70 -112 82 -74 17
-110 38 -110 66 0 33 71 105 145 146 98 54 128 126 87 207 -42 85 -141 104
-247 47z"/>
<path d="M1865 4379 c-122 -13 -236 -77 -324 -182 -24 -28 -50 -66 -57 -84
-32 -75 -3 -163 66 -202 73 -41 136 -24 203 53 80 93 162 116 270 75 46 -18
60 -19 95 -10 114 31 154 142 88 242 -50 75 -201 123 -341 108z"/>
<path d="M2537 3804 c-48 -7 -107 -22 -131 -32 -105 -47 -117 -184 -22 -257
46 -35 86 -40 185 -21 46 9 116 16 157 16 87 0 89 -4 49 -100 -52 -124 -198
-328 -384 -538 -106 -120 -121 -145 -121 -204 0 -87 65 -148 158 -148 53 0 55
1 116 63 77 77 242 273 328 391 173 233 249 421 235 575 -5 62 -41 143 -79
178 -89 82 -273 111 -491 77z"/>
<path d="M4190 3774 c-190 -41 -320 -170 -320 -318 0 -111 61 -202 170 -254
49 -24 67 -27 160 -27 99 0 110 2 172 33 85 42 146 109 199 218 45 93 58 166
40 232 -15 55 -63 109 -109 122 -52 14 -235 11 -312 -6z m43 -295 c-15 -15
-27 -19 -40 -14 -16 6 -14 9 12 21 44 19 52 17 28 -7z"/>
<path d="M1165 3675 c-81 -15 -148 -40 -258 -97 -102 -53 -130 -89 -135 -174
-6 -84 21 -141 85 -183 60 -40 104 -48 155 -27 23 9 43 14 45 12 4 -4 -51
-142 -177 -441 -109 -258 -162 -464 -140 -544 21 -79 89 -132 184 -145 90 -11
107 -1 282 176 88 90 202 210 254 268 138 154 294 312 298 302 8 -24 -134
-719 -193 -949 -25 -95 -45 -183 -45 -195 1 -42 36 -104 72 -126 24 -15 52
-22 87 -22 44 0 56 5 90 35 46 42 47 43 110 256 105 351 124 449 193 989 16
127 6 284 -22 343 -58 122 -184 147 -312 61 -79 -54 -239 -196 -344 -307 -52
-55 -94 -96 -94 -91 0 6 42 95 94 200 102 206 136 300 136 375 0 107 -76 228
-167 266 -67 28 -117 33 -198 18z"/>
<path d="M3527 3336 c-113 -41 -185 -156 -218 -349 -10 -59 -9 -74 6 -113 19
-50 65 -91 113 -100 41 -8 179 12 259 37 154 50 232 192 188 345 -40 141 -210
229 -348 180z"/>
<path d="M4824 2761 c-211 -60 -314 -234 -244 -412 l21 -52 -37 33 c-51 45
-93 60 -163 60 -80 0 -154 -38 -197 -102 -42 -62 -47 -106 -27 -205 9 -45 15
-85 12 -88 -3 -2 -50 6 -105 20 -206 51 -351 29 -450 -70 -122 -122 -145 -255
-104 -600 12 -93 25 -186 30 -206 47 -173 278 -217 395 -75 70 86 77 137 49
354 -9 68 -14 125 -12 127 6 6 87 -23 157 -57 61 -30 66 -31 157 -24 110 8
167 27 228 79 78 65 135 218 136 364 0 76 -26 265 -44 328 l-14 46 40 -37 c62
-56 119 -77 193 -72 127 8 194 96 216 280 11 85 10 102 -4 140 -10 24 -17 58
-17 74 0 56 -66 115 -127 113 -15 0 -55 -8 -89 -18z"/>
<path d="M2915 2470 c-111 -15 -201 -55 -427 -187 -71 -41 -139 -88 -153 -104
-100 -120 -3 -309 160 -309 19 0 92 30 185 75 147 72 284 125 295 114 14 -15
-87 -268 -170 -425 -53 -101 -57 -113 -52 -160 19 -182 252 -244 351 -94 69
104 231 475 270 620 10 35 18 96 18 136 0 220 -213 369 -477 334z"/>
<path d="M2085 1891 c-79 -35 -121 -112 -113 -206 6 -68 39 -118 96 -146 24
-12 45 -27 47 -33 70 -229 78 -266 63 -284 -76 -86 -82 -255 -14 -397 38 -80
135 -215 210 -293 86 -91 240 -184 368 -224 96 -30 247 -30 359 0 78 21 189
71 223 101 69 61 63 205 -12 284 -66 70 -137 75 -250 20 -120 -58 -181 -56
-300 14 l-44 25 30 18 c52 32 92 108 92 177 0 61 -28 105 -129 203 -54 52
-108 113 -119 136 -23 45 -57 149 -96 298 -15 55 -39 124 -54 154 -32 65 -115
144 -169 160 -58 17 -142 14 -188 -7z"/>
</g>
</svg>
