<?xml version="1.0" standalone="no"?>
<!DOCTYPE svg PUBLIC "-//W3C//DTD SVG 20010904//EN"
 "http://www.w3.org/TR/2001/REC-SVG-20010904/DTD/svg10.dtd">
<svg version="1.0" xmlns="http://www.w3.org/2000/svg"
 width="600.000000pt" height="600.000000pt" viewBox="0 0 600.000000 600.000000"
 preserveAspectRatio="xMidYMid meet">
<metadata>
Created by potrace 1.15, written by Peter Selinger 2001-2017
</metadata>
<g transform="translate(0.000000,600.000000) scale(0.100000,-0.100000)"
fill="#16364b" stroke="none">
<path d="M3542 5263 c-7 -3 -19 -18 -28 -35 -15 -29 -15 -33 20 -102 57 -116
150 -206 213 -206 61 0 80 66 42 143 -73 145 -176 229 -247 200z m140 -177
c21 -33 38 -64 38 -70 0 -17 -69 56 -95 101 -56 95 -9 69 57 -31z"/>
<path d="M3025 5096 c-40 -17 -92 -78 -121 -140 -39 -83 -27 -201 21 -220 40
-15 84 -5 127 27 89 67 152 202 129 278 -6 21 -21 45 -34 54 -26 18 -81 19
-122 1z m83 -85 c2 -13 -4 -43 -13 -66 -17 -46 -96 -135 -119 -135 -35 0 -26
80 18 155 41 69 107 96 114 46z"/>
<path d="M4755 4726 c-32 -32 -40 -101 -39 -326 1 -220 13 -295 49 -327 35
-31 76 -29 106 3 l24 26 3 286 c2 157 1 296 -2 308 -10 37 -34 54 -77 54 -29
0 -47 -7 -64 -24z"/>
<path d="M1602 4265 c-62 -28 -95 -58 -119 -112 -46 -101 -21 -217 67 -308 94
-97 165 -347 225 -795 35 -264 44 -369 55 -685 5 -154 15 -327 21 -385 37
-346 177 -587 405 -695 58 -27 229 -75 269 -75 21 0 21 -2 21 -142 1 -155 3
-170 84 -437 22 -74 40 -143 40 -153 0 -16 -9 -18 -72 -18 -95 0 -141 -14
-172 -51 -47 -55 -26 -130 44 -159 74 -31 238 6 304 68 33 32 65 96 66 133 0
14 -25 107 -55 207 -73 242 -88 324 -83 433 2 49 9 94 15 100 7 7 34 7 89 -1
75 -10 637 -16 653 -6 4 3 54 6 112 7 96 1 104 0 101 -17 -18 -126 15 -299
102 -532 25 -68 46 -129 46 -137 0 -11 -14 -15 -57 -15 -121 0 -193 -44 -193
-118 0 -52 30 -88 82 -103 96 -25 240 25 295 104 24 34 28 50 28 106 -1 55 -9
85 -47 176 -105 255 -135 411 -99 518 14 42 5 38 171 62 251 35 535 115 650
182 87 51 227 192 267 268 48 93 63 156 63 271 0 153 -37 307 -107 447 -44 88
-98 146 -173 186 -116 62 -245 73 -420 36 -99 -21 -314 -34 -410 -25 -107 10
-335 67 -466 115 -315 118 -621 336 -783 558 -20 28 -92 139 -161 248 -148
235 -234 358 -306 439 -89 100 -267 253 -330 284 -72 35 -171 45 -222 21z
m141 -154 c42 -22 138 -105 268 -233 74 -73 119 -134 292 -395 211 -318 273
-395 432 -540 265 -241 477 -349 900 -458 215 -56 450 -59 700 -9 90 18 191
14 248 -9 104 -44 192 -185 232 -373 28 -133 14 -266 -37 -354 -33 -55 -117
-138 -180 -176 -89 -55 -320 -126 -513 -158 -369 -63 -974 -95 -1205 -65 -41
5 -145 14 -230 18 -166 9 -238 25 -338 71 -128 60 -228 199 -272 375 -30 126
-50 304 -50 458 0 169 -16 484 -31 617 -17 156 -97 618 -124 718 -46 173 -81
240 -209 397 -26 32 -24 94 4 117 29 23 66 23 113 -1z"/>
<path d="M2440 2550 c-11 -11 -20 -25 -20 -31 0 -41 66 -87 100 -69 23 12 40
41 40 68 0 48 -82 70 -120 32z"/>
<path d="M2889 2229 c-14 -14 -18 -27 -13 -42 15 -51 85 -74 117 -39 20 22 22
73 5 90 -20 20 -85 15 -109 -9z"/>
<path d="M2664 4219 c-23 -12 -54 -59 -54 -84 0 -32 31 -75 68 -94 62 -32 232
-88 308 -101 62 -11 74 -11 102 4 37 19 52 43 52 84 0 46 -29 72 -116 103 -43
15 -123 43 -177 63 -99 37 -145 43 -183 25z"/>
<path d="M5308 3980 c-202 -34 -335 -225 -283 -406 77 -269 379 -346 578 -147
57 57 85 112 99 196 21 120 -30 221 -153 302 -50 33 -86 49 -127 56 -31 5 -59
8 -62 8 -3 -1 -26 -5 -52 -9z m100 -325 c9 -9 -30 -45 -49 -45 -21 0 -43 35
-33 51 6 11 70 6 82 -6z"/>
<path d="M4210 3761 c-122 -38 -216 -150 -227 -270 -11 -115 44 -217 142 -266
148 -74 330 -10 401 140 47 99 24 259 -47 327 -65 62 -187 94 -269 69z m88
-278 c-2 -20 -9 -29 -25 -31 -27 -4 -31 19 -7 42 23 24 36 19 32 -11z"/>
<path d="M470 2015 c-25 -30 0 -50 154 -122 85 -40 159 -73 164 -73 19 0 40
29 36 47 -6 23 -58 53 -200 114 -127 54 -136 56 -154 34z"/>
<path d="M5322 1110 c-34 -14 -72 -103 -72 -168 0 -48 4 -58 34 -88 26 -26 42
-34 70 -34 85 0 130 60 130 178 1 69 -1 75 -27 98 -30 26 -90 32 -135 14z"/>
</g>
</svg>
