<?xml version="1.0" standalone="no"?>
<!DOCTYPE svg PUBLIC "-//W3C//DTD SVG 20010904//EN"
 "http://www.w3.org/TR/2001/REC-SVG-20010904/DTD/svg10.dtd">
<svg version="1.0" xmlns="http://www.w3.org/2000/svg"
 width="600.000000pt" height="600.000000pt" viewBox="0 0 600.000000 600.000000"
 preserveAspectRatio="xMidYMid meet">
<metadata>
Created by potrace 1.15, written by Peter Selinger 2001-2017
</metadata>
<g transform="translate(0.000000,600.000000) scale(0.100000,-0.100000)"
fill="#16364b" stroke="none">
<path d="M1371 5600 c-93 -89 -177 -172 -186 -186 -22 -34 -23 -95 -1 -128 25
-39 79 -59 134 -51 115 17 485 177 527 227 53 63 17 148 -63 148 -22 0 -56 -7
-75 -15 -48 -20 -51 -19 -33 7 27 38 20 95 -13 129 -24 24 -38 29 -76 29 -46
0 -47 -1 -214 -160z"/>
<path d="M2369 5435 c-14 -8 -31 -27 -37 -42 -6 -15 -13 -107 -15 -203 -5
-144 -10 -193 -31 -275 -49 -189 -115 -288 -247 -366 -72 -43 -93 -72 -92
-125 1 -48 26 -81 72 -95 44 -13 72 -2 178 68 209 138 343 493 331 877 l-3
118 -33 29 c-36 32 -80 37 -123 14z"/>
<path d="M3492 5286 c-52 -59 -55 -108 -11 -202 29 -61 119 -153 180 -182 60
-29 137 -30 172 -1 37 28 53 88 39 138 -29 93 -123 216 -195 253 -22 11 -66
23 -97 25 -54 5 -57 4 -88 -31z"/>
<path d="M2997 5136 c-85 -31 -153 -111 -184 -215 -40 -139 23 -246 145 -246
61 0 126 26 182 74 62 53 94 225 56 308 -32 73 -121 108 -199 79z"/>
<path d="M4773 4789 c-39 -11 -70 -49 -79 -96 -8 -45 11 -237 32 -323 42 -166
132 -293 227 -319 100 -29 191 12 240 108 47 93 33 207 -40 341 -62 112 -239
270 -328 293 -11 3 -34 1 -52 -4z"/>
<path d="M2678 4227 c-129 -37 -188 -156 -142 -289 30 -88 138 -166 247 -176
107 -10 268 66 366 172 42 46 43 50 39 102 -7 86 -32 105 -211 159 -129 40
-231 51 -299 32z"/>
<path d="M1079 4103 c-55 -34 -75 -112 -45 -172 20 -37 51 -56 106 -65 69 -11
151 -39 147 -50 -8 -23 -102 -47 -211 -53 -108 -6 -112 -7 -143 -38 -55 -55
-56 -130 -3 -183 48 -48 161 -53 335 -15 176 39 279 119 305 237 31 140 -93
278 -300 335 -89 25 -156 26 -191 4z"/>
<path d="M4220 3776 c-72 -17 -96 -28 -147 -64 -81 -60 -125 -150 -125 -256 1
-195 154 -333 337 -304 178 28 290 162 315 375 16 145 -12 194 -133 232 -86
26 -180 33 -247 17z m74 -298 c-15 -27 -38 -48 -51 -48 -21 0 -15 27 9 44 27
19 52 21 42 4z"/>
<path d="M5188 3711 c-112 -36 -193 -103 -245 -204 -24 -45 -27 -64 -28 -142
0 -78 4 -97 27 -146 36 -73 89 -126 156 -157 152 -69 374 39 443 216 29 75 31
178 5 247 -21 53 -120 166 -168 191 -37 19 -121 17 -190 -5z m72 -306 c0 -20
-38 -57 -50 -50 -15 9 -12 23 10 45 24 24 40 26 40 5z"/>
<path d="M1637 3700 c-41 -33 -51 -77 -37 -176 13 -103 41 -180 83 -236 83
-107 209 -103 259 9 56 128 -33 327 -181 402 -51 26 -91 27 -124 1z"/>
<path d="M3415 3362 c-39 -24 -72 -68 -130 -172 -60 -108 -70 -166 -32 -204
36 -36 71 -42 133 -22 110 35 214 172 214 283 0 46 -4 58 -33 89 -41 45 -104
56 -152 26z"/>
<path d="M2245 3063 c-127 -15 -247 -44 -414 -99 -285 -96 -372 -145 -511
-290 -89 -93 -139 -172 -183 -286 -29 -78 -31 -91 -32 -218 0 -148 11 -197 67
-300 47 -85 89 -131 231 -254 144 -123 238 -219 335 -338 100 -125 217 -205
377 -259 60 -20 89 -24 200 -24 151 0 192 12 419 116 72 34 171 76 219 95 189
73 397 195 627 369 185 140 267 231 329 366 125 270 39 532 -245 751 -220 169
-473 290 -664 317 -41 6 -118 17 -170 25 -199 31 -464 44 -585 29z m465 -394
c134 -16 420 -94 502 -135 168 -84 311 -205 343 -287 13 -35 15 -52 6 -83 -30
-113 -174 -264 -386 -405 -88 -58 -310 -174 -395 -207 -30 -11 -95 -43 -145
-71 -131 -75 -234 -105 -339 -99 -119 6 -164 35 -288 184 -74 89 -200 212
-367 358 -141 124 -166 168 -159 284 7 116 58 201 163 267 80 51 459 173 604
194 83 13 364 13 461 0z"/>
<path d="M425 2205 c-89 -47 -85 -111 18 -329 56 -118 110 -198 176 -259 117
-110 265 -126 352 -38 148 148 -15 402 -376 584 -111 57 -132 62 -170 42z"/>
<path d="M4674 1741 c-18 -11 -35 -24 -39 -30 -3 -6 -11 -8 -17 -5 -6 4 -26
10 -45 14 -73 17 -155 -31 -174 -102 -22 -83 27 -365 77 -441 33 -50 98 -81
151 -71 141 25 215 155 244 429 10 95 9 115 -4 147 -30 71 -126 100 -193 59z"/>
</g>
</svg>
