<?xml version="1.0" standalone="no"?>
<!DOCTYPE svg PUBLIC "-//W3C//DTD SVG 20010904//EN"
 "http://www.w3.org/TR/2001/REC-SVG-20010904/DTD/svg10.dtd">
<svg version="1.0" xmlns="http://www.w3.org/2000/svg"
 width="600.000000pt" height="600.000000pt" viewBox="0 0 600.000000 600.000000"
 preserveAspectRatio="xMidYMid meet">
<metadata>
Created by potrace 1.15, written by Peter Selinger 2001-2017
</metadata>
<g transform="translate(0.000000,600.000000) scale(0.100000,-0.100000)"
fill="#16364b" stroke="none">
<path d="M3155 5641 c-37 -16 -66 -58 -105 -149 -42 -96 -80 -227 -80 -273 0
-46 29 -113 68 -153 56 -59 169 -104 326 -131 46 -8 44 -10 -59 -65 -131 -70
-327 -211 -482 -348 -111 -98 -119 -177 -27 -262 53 -48 124 -83 349 -170 371
-142 477 -180 508 -180 81 0 147 70 147 154 0 95 -36 128 -200 181 -181 59
-450 163 -450 174 0 11 173 117 385 236 232 130 286 168 315 225 24 48 26 117
3 150 -69 104 -168 148 -418 186 -60 9 -121 20 -134 25 -28 11 -25 28 21 134
18 40 31 87 31 111 0 46 -32 110 -70 138 -29 21 -98 30 -128 17z"/>
<path d="M1503 5429 c-73 -15 -228 -129 -315 -233 -156 -186 -295 -466 -328
-664 -16 -97 -2 -160 46 -201 53 -47 85 -48 215 -6 211 68 439 121 439 101 0
-3 -41 -78 -92 -168 -109 -195 -196 -371 -204 -415 -8 -40 21 -160 44 -188 61
-73 128 -75 256 -6 50 27 138 70 196 96 266 118 300 141 320 213 25 92 -67
202 -169 202 -16 0 -55 -14 -86 -30 -32 -17 -60 -29 -62 -26 -2 2 19 44 47 92
120 210 124 381 12 474 -93 77 -299 89 -521 31 -39 -10 -71 -14 -71 -9 0 12
55 111 93 168 70 104 184 212 269 255 25 14 55 36 67 51 95 120 -8 294 -156
263z"/>
<path d="M4650 4441 c-36 -9 -141 -39 -235 -66 -152 -44 -174 -53 -207 -86
-38 -37 -44 -56 -39 -124 6 -67 81 -135 151 -135 18 0 95 20 172 45 77 25 144
45 149 45 26 0 -103 -203 -241 -381 -127 -162 -140 -185 -140 -237 0 -66 35
-118 102 -153 14 -8 41 -26 60 -40 24 -19 78 -38 203 -69 177 -44 270 -75 281
-91 11 -19 -98 -196 -243 -393 -90 -122 -103 -160 -73 -221 24 -50 67 -75 130
-75 62 0 106 26 153 89 272 367 326 461 335 580 6 95 -10 150 -65 211 -65 72
-134 102 -466 204 l-38 11 64 85 c97 130 140 197 189 295 122 242 122 419 0
496 -39 25 -56 29 -111 28 -37 0 -95 -8 -131 -18z"/>
<path d="M3793 3690 c-58 -35 -80 -113 -54 -193 13 -40 111 -137 156 -155 46
-19 73 -68 68 -124 l-5 -46 -72 5 c-52 4 -89 1 -131 -12 -200 -57 -376 -228
-362 -351 8 -78 79 -144 154 -144 58 1 108 34 147 99 54 87 57 89 189 84 103
-4 115 -2 151 19 47 28 76 79 76 134 0 40 1 42 39 48 76 12 130 109 116 211
-13 105 -112 256 -236 362 -95 81 -172 102 -236 63z"/>
<path d="M2500 3633 c-97 -16 -297 -108 -369 -170 -83 -70 -67 -204 30 -254
62 -31 105 -25 216 31 96 50 203 80 237 67 55 -21 -29 -256 -211 -588 -119
-219 -128 -248 -91 -318 34 -65 71 -81 189 -81 88 0 106 4 190 36 147 57 283
95 287 79 5 -23 -48 -164 -110 -295 -72 -151 -81 -203 -46 -270 13 -25 38 -55
57 -67 63 -42 170 -24 228 39 64 70 209 351 249 483 39 129 40 267 3 345 -74
158 -202 213 -409 175 -52 -10 -107 -20 -122 -22 l-28 -5 46 98 c95 204 120
372 74 500 -35 100 -117 180 -212 209 -48 14 -149 18 -208 8z"/>
<path d="M1090 3374 c-110 -30 -307 -159 -351 -231 -19 -30 -24 -51 -23 -98 2
-159 138 -256 273 -195 24 11 46 18 49 16 2 -3 -21 -94 -52 -203 -71 -250 -98
-422 -100 -640 -1 -176 2 -188 66 -236 50 -37 195 -57 250 -34 41 17 56 37
375 488 103 146 202 283 220 305 l32 39 14 -33 c17 -42 5 -137 -58 -465 -64
-328 -78 -436 -73 -548 7 -149 63 -246 164 -285 80 -30 160 2 195 80 29 64 20
135 -24 183 -18 21 -20 32 -14 126 3 62 26 203 56 353 84 417 92 509 71 779
-11 151 -39 213 -114 260 -42 25 -59 30 -110 29 -41 0 -74 -8 -102 -22 -55
-28 -161 -144 -264 -288 -148 -209 -242 -335 -246 -331 -2 2 9 46 26 98 79
245 111 395 111 531 1 122 -24 194 -90 258 -75 74 -167 95 -281 64z"/>
<path d="M4667 2204 c-69 -21 -122 -78 -144 -154 -17 -59 -19 -61 -46 -56 -88
18 -223 28 -302 23 -238 -15 -432 -123 -505 -280 -28 -59 -60 -204 -60 -271 0
-61 -13 -61 -73 -4 -209 199 -441 196 -639 -9 -68 -71 -149 -187 -182 -261
-10 -23 -23 -42 -27 -42 -4 0 -11 21 -14 48 -35 260 -64 374 -121 476 -102
183 -357 135 -357 -67 0 -36 10 -74 31 -122 38 -88 48 -139 67 -348 39 -417
152 -614 375 -657 155 -30 270 55 270 199 0 45 10 73 76 203 105 209 184 328
219 328 8 0 44 -35 82 -77 183 -208 235 -251 332 -273 156 -36 332 58 376 201
18 60 40 216 50 354 4 50 9 98 11 108 8 28 125 22 300 -14 171 -36 260 -35
358 1 80 30 165 111 202 192 25 56 29 76 32 186 3 100 1 132 -13 170 -25 64
-88 123 -154 145 -63 20 -81 20 -144 1z"/>
</g>
</svg>
