<?xml version="1.0" standalone="no"?>
<!DOCTYPE svg PUBLIC "-//W3C//DTD SVG 20010904//EN"
 "http://www.w3.org/TR/2001/REC-SVG-20010904/DTD/svg10.dtd">
<svg version="1.0" xmlns="http://www.w3.org/2000/svg"
 width="600.000000pt" height="600.000000pt" viewBox="0 0 600.000000 600.000000"
 preserveAspectRatio="xMidYMid meet">
<metadata>
Created by potrace 1.15, written by Peter Selinger 2001-2017
</metadata>
<g transform="translate(0.000000,600.000000) scale(0.100000,-0.100000)"
fill="#16364b" stroke="none">
<path d="M2025 5835 c-22 -8 -52 -29 -66 -47 -15 -18 -74 -90 -130 -161 -129
-158 -250 -331 -295 -420 -58 -113 -57 -217 3 -288 37 -43 74 -59 140 -59 68
1 133 25 261 98 407 233 490 283 514 306 85 83 36 241 -80 261 -49 8 -74 -3
-221 -93 -46 -29 -88 -52 -94 -52 -5 0 14 28 42 63 124 152 152 228 112 311
-36 73 -111 106 -186 81z"/>
<path d="M3025 5675 c-84 -30 -113 -103 -74 -182 23 -46 30 -51 196 -139 95
-50 198 -109 228 -130 112 -76 180 -171 205 -285 11 -49 10 -60 -4 -91 -20
-41 -80 -77 -171 -103 -129 -37 -183 -158 -114 -256 42 -60 122 -63 254 -10
213 85 325 222 325 399 0 166 -144 441 -299 570 -100 84 -177 127 -338 190
-122 49 -157 55 -208 37z"/>
<path d="M949 5371 c-138 -44 -267 -152 -322 -270 -61 -130 -45 -294 41 -426
40 -62 138 -162 181 -184 74 -40 141 -32 190 24 64 73 48 159 -44 239 -66 56
-95 109 -95 170 0 73 50 120 164 153 124 36 171 156 99 252 -47 61 -113 74
-214 42z"/>
<path d="M2773 5012 c-162 -65 -244 -303 -158 -461 50 -91 137 -143 272 -163
112 -16 180 0 227 53 64 70 48 183 -31 226 -32 17 -32 17 -13 38 88 94 19 245
-140 306 -61 23 -101 23 -157 1z"/>
<path d="M4763 4884 c-63 -42 -76 -72 -74 -176 6 -348 107 -521 312 -536 124
-9 222 47 276 156 58 118 23 265 -89 374 -96 93 -290 208 -353 208 -17 0 -49
-12 -72 -26z"/>
<path d="M1897 4636 c-72 -26 -148 -80 -173 -122 -44 -74 -22 -159 52 -201 53
-31 97 -29 161 7 77 44 95 41 124 -21 30 -66 75 -101 137 -107 62 -5 115 17
142 60 63 99 -42 296 -195 369 -50 24 -73 29 -135 29 -41 -1 -92 -7 -113 -14z"/>
<path d="M2973 3946 c-92 -30 -161 -86 -217 -174 -61 -98 -75 -245 -32 -338
72 -154 305 -270 412 -204 47 30 79 97 69 149 -13 72 -53 112 -135 136 -65 19
-78 69 -30 117 26 25 35 29 58 22 52 -16 129 -10 158 12 45 33 67 70 71 121 6
62 -23 109 -90 142 -60 29 -199 39 -264 17z"/>
<path d="M1220 3930 c-80 -13 -229 -58 -275 -83 -91 -51 -127 -173 -79 -268
32 -63 115 -104 188 -92 45 7 45 8 -19 -77 -141 -187 -154 -210 -383 -735 -54
-125 -46 -213 25 -279 54 -50 164 -56 236 -13 88 53 267 193 405 315 166 146
392 331 406 332 25 0 -23 -229 -90 -425 -52 -155 -101 -265 -203 -455 -169
-314 -178 -337 -161 -400 32 -118 170 -158 243 -70 24 28 154 253 250 430 114
211 200 459 257 740 30 144 26 349 -8 425 -42 91 -105 134 -198 135 -92 0
-189 -48 -374 -185 -55 -41 -102 -75 -105 -75 -3 0 19 35 50 78 83 116 166
252 186 302 45 119 31 231 -40 312 -68 77 -181 109 -311 88z"/>
<path d="M4272 3789 c-217 -33 -372 -177 -372 -347 0 -160 136 -275 325 -275
119 0 181 27 270 117 76 76 116 144 160 269 31 90 29 129 -12 178 -15 17 -42
38 -60 46 -43 17 -229 25 -311 12z m-12 -298 c0 -11 -45 -41 -60 -41 -19 0 -5
24 21 37 29 15 39 16 39 4z"/>
<path d="M3455 3391 c-46 -12 -68 -26 -109 -72 -46 -50 -99 -159 -123 -250
l-17 -66 25 -48 c39 -79 62 -90 187 -90 100 0 111 2 160 29 54 30 94 73 128
136 14 26 19 56 19 121 0 78 -3 90 -30 135 -51 82 -154 127 -240 105z"/>
<path d="M4932 2963 c-52 -29 -178 -149 -226 -216 -138 -194 -115 -370 58
-442 48 -20 148 -21 204 -1 96 34 170 106 219 213 24 51 28 70 28 163 0 125
-9 147 -96 231 -73 71 -124 85 -187 52z"/>
<path d="M4030 2551 c-91 -32 -160 -131 -160 -230 0 -20 18 -94 40 -165 22
-72 38 -131 36 -133 -1 -2 -21 6 -44 17 -67 33 -161 53 -215 47 -141 -17 -244
-134 -255 -289 -5 -77 6 -146 49 -299 16 -59 43 -169 59 -245 34 -156 57 -202
120 -234 89 -46 219 -10 287 78 57 75 66 147 33 272 -27 102 -26 109 10 73 71
-73 166 -85 288 -39 133 51 226 164 239 290 8 79 -8 153 -87 386 -38 113 -80
243 -94 290 -20 68 -33 93 -63 122 -70 68 -156 89 -243 59z"/>
<path d="M2050 2141 c-76 -23 -163 -102 -245 -221 -37 -54 -49 -81 -53 -119
-6 -66 2 -93 40 -137 41 -47 83 -64 153 -64 30 0 55 -3 55 -7 0 -5 -26 -19
-57 -33 -70 -30 -166 -118 -212 -194 -54 -90 -73 -171 -73 -316 -1 -281 86
-457 297 -600 163 -109 354 -201 463 -221 118 -23 274 7 417 78 210 106 305
202 305 310 0 104 -77 189 -181 200 -81 8 -124 -9 -212 -82 -119 -99 -144
-110 -258 -110 -90 0 -99 2 -170 37 -97 48 -201 142 -238 217 -74 146 -57 331
29 331 5 0 28 -28 52 -62 112 -166 201 -216 306 -173 49 21 81 52 103 100 36
79 21 156 -47 236 -73 85 -116 189 -78 189 9 0 107 49 218 110 184 100 316
160 316 142 0 -4 -14 -61 -31 -127 -41 -161 -99 -311 -161 -420 -42 -72 -53
-101 -56 -146 -15 -209 261 -268 384 -81 124 186 249 563 261 782 4 92 2 112
-17 163 -12 32 -36 76 -53 99 -66 86 -218 130 -370 108 -109 -16 -190 -47
-401 -152 -98 -49 -179 -88 -180 -86 -2 2 -8 28 -15 60 -31 145 -160 228 -291
189z"/>
</g>
</svg>
