<?xml version="1.0" standalone="no"?>
<!DOCTYPE svg PUBLIC "-//W3C//DTD SVG 20010904//EN"
 "http://www.w3.org/TR/2001/REC-SVG-20010904/DTD/svg10.dtd">
<svg version="1.0" xmlns="http://www.w3.org/2000/svg"
 width="600.000000pt" height="600.000000pt" viewBox="0 0 600.000000 600.000000"
 preserveAspectRatio="xMidYMid meet">
<metadata>
Created by potrace 1.15, written by Peter Selinger 2001-2017
</metadata>
<g transform="translate(0.000000,600.000000) scale(0.100000,-0.100000)"
fill="#16364b" stroke="none">
<path d="M2400 5397 c-25 -12 -25 -15 -32 -172 -14 -328 -50 -479 -140 -580
-34 -39 -112 -95 -195 -140 -61 -32 -81 -71 -60 -114 26 -55 102 -30 262 84
187 133 241 286 261 733 6 135 5 149 -12 169 -25 28 -54 35 -84 20z"/>
<path d="M3519 5273 c-39 -47 -43 -70 -25 -127 42 -136 165 -256 260 -256 50
0 90 49 83 103 -12 85 -113 235 -186 274 -53 28 -112 30 -132 6z"/>
<path d="M3004 5096 c-121 -53 -197 -227 -150 -341 15 -36 60 -65 98 -65 58 1
149 67 203 148 49 74 61 179 27 228 -30 43 -115 57 -178 30z m76 -122 c0 -4
-12 -28 -26 -54 -25 -45 -80 -98 -91 -87 -10 11 20 79 49 113 26 29 68 47 68
28z"/>
<path d="M4762 4743 c-7 -3 -19 -18 -27 -33 -19 -36 -21 -345 -4 -449 22 -129
88 -221 159 -221 38 0 90 38 113 84 26 50 34 174 17 270 -21 123 -106 301
-161 340 -23 15 -70 20 -97 9z"/>
<path d="M2633 4214 c-66 -33 -91 -118 -56 -191 35 -74 190 -143 321 -143 148
0 272 94 242 184 -15 48 -38 64 -132 98 -191 69 -308 85 -375 52z"/>
<path d="M5250 3976 c-157 -44 -244 -154 -243 -307 0 -65 5 -86 33 -143 39
-78 99 -138 177 -173 49 -22 65 -25 139 -21 71 4 94 10 151 39 86 44 144 113
173 205 53 173 -5 306 -166 383 -56 27 -75 31 -142 30 -42 0 -97 -6 -122 -13z
m136 -299 c11 -10 -10 -38 -34 -44 -18 -4 -29 -1 -39 12 -25 35 -17 48 28 42
22 -3 43 -7 45 -10z"/>
<path d="M4177 3755 c-138 -51 -240 -209 -224 -348 19 -156 144 -264 295 -255
121 7 219 77 276 197 28 60 31 74 30 167 0 116 -14 151 -79 196 -79 55 -213
74 -298 43z m103 -287 c0 -16 -30 -48 -46 -48 -21 0 -24 15 -8 38 16 23 54 30
54 10z"/>
<path d="M1180 3569 c-76 -10 -124 -32 -180 -85 -68 -64 -95 -128 -95 -229 0
-71 4 -89 33 -147 69 -140 177 -214 414 -282 165 -48 253 -269 378 -961 68
-372 191 -533 502 -658 111 -44 193 -58 388 -67 102 -5 259 -14 350 -21 250
-18 782 -15 965 5 331 37 593 117 840 255 270 151 440 444 438 756 -1 174 -47
315 -152 468 -229 331 -515 416 -881 264 -41 -17 -131 -69 -200 -116 -306
-209 -371 -244 -497 -266 -165 -30 -262 -14 -441 71 -233 110 -525 303 -755
498 -182 155 -235 195 -372 286 -139 92 -216 130 -335 168 -173 55 -301 74
-400 61z m237 -359 c192 -56 329 -138 588 -355 187 -157 500 -370 715 -487 25
-14 79 -43 120 -66 336 -183 647 -194 964 -36 50 25 172 99 271 164 200 130
287 170 386 178 158 11 302 -91 392 -278 28 -58 32 -77 35 -170 4 -121 -12
-186 -71 -292 -62 -110 -128 -166 -306 -256 -334 -170 -523 -200 -1198 -188
-205 3 -408 11 -450 16 -43 6 -143 15 -223 21 -168 12 -303 38 -377 75 -55 27
-112 84 -144 146 -25 48 -65 189 -74 258 -43 352 -180 784 -305 965 -88 128
-226 219 -380 250 -82 17 -133 42 -138 68 -5 27 75 22 195 -13z"/>
<path d="M2226 2348 c-9 -12 -16 -30 -16 -39 0 -24 49 -69 76 -69 47 0 72 80
36 113 -27 25 -78 22 -96 -5z"/>
<path d="M2867 2052 c-10 -10 -17 -30 -17 -44 0 -29 38 -68 67 -68 25 0 63 44
63 71 0 50 -80 78 -113 41z"/>
<path d="M3432 3334 c-43 -52 -145 -263 -146 -301 0 -42 20 -63 59 -63 42 0
76 27 126 102 118 173 130 298 29 298 -32 0 -43 -6 -68 -36z"/>
<path d="M476 2034 c-15 -15 -20 -34 -17 -62 1 -8 30 -48 63 -89 137 -169 288
-204 288 -67 0 37 -6 48 -43 86 -54 53 -213 148 -249 148 -15 0 -34 -7 -42
-16z"/>
<path d="M5329 1115 c-28 -15 -62 -84 -73 -147 -9 -49 18 -114 55 -133 87 -45
161 24 175 163 8 71 -4 103 -43 121 -33 15 -82 13 -114 -4z"/>
</g>
</svg>
