<?xml version="1.0" standalone="no"?>
<!DOCTYPE svg PUBLIC "-//W3C//DTD SVG 20010904//EN"
 "http://www.w3.org/TR/2001/REC-SVG-20010904/DTD/svg10.dtd">
<svg version="1.0" xmlns="http://www.w3.org/2000/svg"
 width="600.000000pt" height="600.000000pt" viewBox="0 0 600.000000 600.000000"
 preserveAspectRatio="xMidYMid meet">
<metadata>
Created by potrace 1.15, written by Peter Selinger 2001-2017
</metadata>
<g transform="translate(0.000000,600.000000) scale(0.100000,-0.100000)"
fill="#16364b" stroke="none">
<path d="M3015 5041 c-73 -44 -125 -139 -125 -227 0 -56 22 -94 55 -94 54 0
151 76 204 159 61 94 31 181 -61 181 -24 0 -56 -8 -73 -19z m104 -49 c13 -25
4 -58 -31 -110 -33 -48 -101 -102 -130 -102 -23 0 -25 54 -2 108 36 88 137
152 163 104z"/>
<path d="M1801 4627 c-54 -21 -107 -73 -138 -134 -40 -83 -39 -171 5 -269 57
-128 114 -479 132 -812 6 -103 18 -279 26 -392 12 -152 15 -260 10 -420 -8
-239 -2 -318 45 -595 40 -236 71 -351 119 -454 81 -168 234 -270 475 -314 l68
-13 -2 -141 c-3 -165 14 -279 66 -458 20 -66 38 -130 40 -142 5 -20 1 -21 -90
-25 -111 -4 -146 -21 -161 -80 -25 -98 54 -148 201 -127 112 16 192 74 212
153 12 47 7 73 -38 206 -56 164 -74 268 -75 432 -1 101 3 151 11 159 9 9 23 9
60 0 33 -9 164 -12 448 -11 220 1 419 1 443 1 l43 -1 -6 -72 c-7 -84 35 -357
79 -515 37 -130 40 -123 -51 -123 -96 0 -140 -19 -166 -72 -16 -33 -17 -40 -3
-72 20 -48 66 -70 141 -70 126 1 231 64 255 154 10 39 9 55 -10 125 -76 275
-108 551 -75 637 5 11 23 19 53 23 243 31 513 99 623 156 139 72 222 165 276
307 100 266 55 548 -117 723 -54 55 -86 77 -189 128 -68 35 -210 92 -315 128
-105 36 -236 86 -291 110 -55 25 -161 71 -235 103 -245 105 -469 230 -630 351
-198 149 -366 380 -630 865 -47 86 -115 195 -151 243 -36 48 -77 108 -91 132
-37 62 -110 133 -166 160 -55 27 -151 35 -201 16z m138 -151 c39 -21 86 -77
120 -145 16 -31 37 -64 47 -72 29 -23 96 -133 219 -359 188 -344 325 -540 486
-697 99 -96 118 -111 265 -209 141 -94 375 -213 589 -300 77 -31 145 -60 150
-64 12 -10 208 -84 385 -146 161 -56 339 -144 383 -189 80 -83 131 -220 131
-355 0 -208 -93 -369 -263 -454 -60 -31 -331 -97 -496 -121 -247 -37 -1231
-19 -1430 25 -333 75 -426 185 -484 575 -34 225 -41 343 -40 656 1 167 -2 315
-5 329 -8 36 -24 236 -36 460 -19 347 -86 741 -150 883 -11 23 -20 64 -20 90
0 86 73 132 149 93z"/>
<path d="M2528 2649 c-35 -20 -21 -82 23 -105 62 -32 118 47 69 96 -21 21 -64
26 -92 9z"/>
<path d="M2975 2426 c-28 -28 -24 -57 13 -86 31 -25 47 -25 72 0 27 27 26 75
-2 94 -31 22 -55 20 -83 -8z"/>
<path d="M5250 3985 c-191 -53 -268 -212 -203 -420 34 -108 101 -187 186 -220
59 -22 163 -17 229 13 70 31 143 104 179 180 43 89 51 197 20 267 -33 74 -65
111 -134 151 -55 33 -71 38 -142 41 -51 2 -100 -3 -135 -12z m108 -301 c26 -7
28 -26 6 -49 -20 -20 -36 -15 -51 15 -18 37 -5 47 45 34z"/>
<path d="M4140 3724 c-69 -32 -105 -65 -138 -129 -37 -69 -38 -194 -3 -272 33
-74 104 -137 177 -159 135 -39 296 31 355 155 47 97 20 256 -58 342 -81 90
-219 116 -333 63z m140 -277 c0 -20 -23 -32 -45 -23 -13 5 -14 10 -4 28 23 43
48 41 49 -5z"/>
<path d="M5340 1118 c-61 -32 -100 -180 -66 -246 19 -37 43 -52 85 -52 50 0
79 20 106 74 32 63 35 171 7 206 -22 27 -95 37 -132 18z"/>
</g>
</svg>
