<?xml version="1.0" standalone="no"?>
<!DOCTYPE svg PUBLIC "-//W3C//DTD SVG 20010904//EN"
 "http://www.w3.org/TR/2001/REC-SVG-20010904/DTD/svg10.dtd">
<svg version="1.0" xmlns="http://www.w3.org/2000/svg"
 width="600.000000pt" height="600.000000pt" viewBox="0 0 600.000000 600.000000"
 preserveAspectRatio="xMidYMid meet">
<metadata>
Created by potrace 1.15, written by Peter Selinger 2001-2017
</metadata>
<g transform="translate(0.000000,600.000000) scale(0.100000,-0.100000)"
fill="#16364b" stroke="none">
<path d="M1533 5786 c-59 -27 -73 -65 -104 -266 -26 -172 -36 -390 -20 -448
13 -47 68 -115 112 -138 40 -20 126 -17 177 6 98 44 236 220 357 455 53 101
57 113 53 162 -4 41 -11 60 -33 83 -38 40 -85 55 -129 40 -47 -15 -58 -31
-110 -151 -50 -119 -85 -185 -127 -243 -27 -37 -29 -38 -29 -15 0 24 33 285
45 365 18 106 -95 194 -192 150z"/>
<path d="M880 5502 c-193 -50 -341 -237 -340 -431 1 -136 104 -280 222 -311
51 -14 119 14 142 59 36 68 10 163 -53 196 -35 18 -51 43 -51 81 0 45 38 110
80 139 42 29 38 29 161 9 82 -13 146 50 136 133 -6 54 -32 84 -95 111 -69 29
-128 33 -202 14z"/>
<path d="M3338 5443 c-30 -19 -50 -59 -50 -98 0 -55 22 -83 119 -145 l95 -61
-31 -31 c-26 -26 -31 -38 -31 -78 0 -115 166 -239 304 -228 138 11 189 137
116 285 -50 102 -149 196 -304 293 -138 85 -168 94 -218 63z"/>
<path d="M3005 5166 c-94 -30 -152 -82 -201 -178 -31 -61 -43 -165 -25 -220
16 -50 63 -93 116 -108 40 -11 55 -11 108 4 87 24 173 73 196 110 27 43 45
145 38 216 -12 137 -115 215 -232 176z"/>
<path d="M2289 5136 c-45 -31 -56 -59 -63 -166 -11 -165 -41 -210 -190 -285
-52 -26 -104 -57 -115 -69 -50 -54 -46 -143 9 -190 60 -50 106 -44 267 38 141
71 216 154 268 296 36 98 48 287 21 338 -33 64 -131 83 -197 38z"/>
<path d="M4775 4814 c-62 -31 -70 -54 -69 -204 1 -148 20 -242 72 -348 35 -71
108 -147 169 -174 133 -59 278 9 319 148 44 153 -68 372 -261 509 -119 84
-170 100 -230 69z m243 -449 c-3 -3 -9 2 -12 12 -6 14 -5 15 5 6 7 -7 10 -15
7 -18z"/>
<path d="M2804 4175 c-171 -37 -275 -139 -274 -271 1 -87 82 -186 183 -221 76
-26 198 -22 312 12 88 26 222 89 271 128 54 42 69 129 34 196 -25 51 -54 73
-146 111 -140 58 -257 72 -380 45z"/>
<path d="M1030 4080 c-64 -28 -108 -106 -94 -167 20 -86 77 -126 193 -137 87
-8 159 -24 168 -39 15 -25 -88 -97 -367 -257 -80 -46 -160 -97 -179 -114 -86
-80 -81 -210 11 -266 61 -37 95 -28 279 70 93 50 173 90 179 90 5 0 10 -11 10
-24 0 -33 39 -86 80 -107 21 -12 55 -19 86 -19 45 0 60 6 118 45 100 69 108
71 179 35 129 -65 258 -23 297 95 21 63 5 123 -45 172 -59 57 -126 75 -256 71
-55 -2 -99 -1 -99 1 0 2 12 28 26 57 51 104 41 225 -27 327 -74 112 -201 166
-409 173 -76 3 -135 0 -150 -6z"/>
<path d="M4200 3765 c-83 -21 -126 -42 -171 -82 -67 -61 -84 -103 -84 -213 0
-82 4 -103 26 -151 31 -65 82 -119 142 -151 34 -18 58 -23 127 -23 73 0 93 4
141 28 75 36 151 114 189 193 38 80 73 232 64 281 -10 52 -48 90 -107 109 -72
22 -257 28 -327 9z m110 -290 c0 -10 -44 -45 -57 -45 -19 0 -16 27 5 39 17 11
52 15 52 6z"/>
<path d="M5074 3414 c-85 -42 -169 -115 -214 -184 -94 -146 -81 -323 29 -407
55 -43 110 -57 195 -50 138 12 269 109 316 235 30 78 25 185 -13 257 -30 59
-98 143 -136 167 -41 28 -97 22 -177 -18z"/>
<path d="M3398 3357 c-48 -28 -79 -70 -135 -182 -65 -128 -60 -185 20 -236 45
-29 161 -20 224 17 48 28 97 94 113 154 16 58 12 147 -9 188 -38 75 -140 103
-213 59z"/>
<path d="M2349 3030 c-108 -19 -193 -107 -285 -298 -79 -164 -105 -198 -203
-267 -88 -62 -210 -185 -268 -271 -98 -145 -184 -337 -225 -502 -32 -130 -30
-288 6 -407 32 -106 79 -199 141 -278 108 -137 362 -276 578 -318 98 -19 269
-15 360 10 241 64 511 275 618 484 58 112 166 415 190 532 15 73 15 308 -1
430 -13 107 -42 220 -71 278 -30 57 -121 145 -199 191 -79 47 -119 84 -217
200 -92 107 -102 118 -153 155 -71 51 -182 76 -271 61z m147 -487 c33 -43 67
-91 78 -108 27 -43 51 -61 146 -111 108 -55 136 -82 155 -147 23 -75 30 -222
16 -314 -23 -150 -127 -419 -212 -550 -111 -170 -271 -254 -460 -240 -153 12
-343 100 -413 192 -121 158 -93 434 68 659 47 66 77 95 234 226 152 126 220
216 282 375 32 81 39 95 44 95 2 0 30 -35 62 -77z"/>
<path d="M856 2650 c-65 -20 -103 -86 -86 -150 12 -43 38 -68 150 -139 130
-82 220 -206 220 -301 0 -54 -30 -111 -67 -126 -69 -29 -142 28 -221 173 -22
40 -51 77 -71 90 -60 40 -151 24 -182 -33 -33 -63 40 -219 163 -346 95 -96
189 -142 297 -142 67 0 84 4 139 34 73 39 110 79 154 168 27 55 32 76 36 165
4 90 1 111 -21 178 -62 184 -164 299 -342 387 -91 45 -127 54 -169 42z"/>
<path d="M4193 2221 c-55 -25 -94 -85 -101 -152 -4 -46 -7 -50 -26 -43 -49 16
-138 16 -177 -1 -45 -21 -87 -78 -96 -129 -8 -54 75 -480 102 -520 35 -52 81
-76 145 -76 32 0 77 -7 100 -15 120 -42 238 10 292 129 23 50 23 57 21 348 -1
176 -6 313 -13 337 -14 52 -54 99 -105 122 -51 24 -89 23 -142 0z"/>
</g>
</svg>
