<?xml version="1.0" standalone="no"?>
<!DOCTYPE svg PUBLIC "-//W3C//DTD SVG 20010904//EN"
 "http://www.w3.org/TR/2001/REC-SVG-20010904/DTD/svg10.dtd">
<svg version="1.0" xmlns="http://www.w3.org/2000/svg"
 width="600.000000pt" height="600.000000pt" viewBox="0 0 600.000000 600.000000"
 preserveAspectRatio="xMidYMid meet">
<metadata>
Created by potrace 1.15, written by Peter Selinger 2001-2017
</metadata>
<g transform="translate(0.000000,600.000000) scale(0.100000,-0.100000)"
fill="#16364b" stroke="none">
<path d="M2254 5803 c-119 -83 -403 -303 -499 -386 -243 -210 -306 -283 -321
-374 -12 -74 50 -154 140 -183 61 -20 202 -7 341 30 300 80 346 93 435 122
209 68 277 114 301 200 15 57 3 106 -35 144 -49 49 -94 54 -186 20 -199 -73
-383 -136 -387 -132 -6 5 116 103 280 226 77 56 148 117 158 134 57 93 -16
214 -134 224 -45 3 -58 0 -93 -25z"/>
<path d="M3105 5701 c-87 -26 -134 -156 -85 -236 24 -39 60 -57 175 -84 174
-41 306 -125 341 -217 12 -32 15 -64 12 -122 -8 -148 -89 -243 -295 -350 -131
-67 -153 -89 -161 -157 -9 -86 55 -157 141 -157 89 0 329 133 435 241 221 225
231 609 22 820 -98 98 -282 201 -430 239 -96 26 -130 31 -155 23z"/>
<path d="M915 5284 c-300 -156 -394 -409 -248 -672 41 -75 144 -188 227 -249
48 -36 66 -43 103 -43 60 0 106 29 132 84 41 84 17 161 -68 216 -90 57 -151
146 -151 218 0 51 32 99 95 139 107 69 126 84 145 116 13 20 20 50 20 80 0 86
-49 138 -134 144 -43 3 -62 -3 -121 -33z"/>
<path d="M2664 4950 c-64 -32 -177 -133 -219 -195 -120 -182 -108 -391 31
-531 92 -91 306 -177 399 -160 73 14 134 109 119 185 -9 41 -61 98 -100 106
-181 40 -249 95 -225 182 14 50 54 97 121 143 76 52 90 73 90 136 0 118 -110
186 -216 134z"/>
<path d="M4817 4960 c-39 -12 -95 -56 -118 -94 -41 -67 -12 -302 55 -442 65
-137 180 -219 306 -218 226 0 326 225 209 469 -53 113 -147 197 -281 253 -85
35 -132 44 -171 32z"/>
<path d="M1863 4435 c-176 -39 -373 -214 -373 -330 0 -75 76 -155 146 -155 46
0 108 37 142 85 35 50 80 82 128 91 24 4 48 -2 95 -25 76 -37 119 -39 179 -8
35 17 49 32 63 67 16 40 17 52 7 90 -23 86 -158 181 -275 194 -27 3 -78 -1
-112 -9z"/>
<path d="M2581 3819 c-79 -13 -118 -36 -146 -84 -66 -112 5 -245 125 -231 107
13 246 17 259 7 12 -8 13 -16 2 -53 -37 -125 -191 -335 -395 -540 -114 -114
-136 -170 -102 -253 28 -67 110 -92 188 -57 75 33 299 239 394 364 99 127 193
302 225 413 44 156 -18 316 -149 388 -98 53 -250 71 -401 46z"/>
<path d="M4297 3800 c-195 -24 -341 -126 -378 -263 -15 -57 -6 -163 18 -217
29 -66 96 -135 158 -166 48 -23 64 -26 132 -22 56 2 92 10 126 27 66 32 157
119 211 200 64 96 136 249 136 288 0 58 -44 120 -101 142 -38 14 -223 21 -302
11z m-27 -330 c-12 -22 -41 -40 -64 -40 -30 0 -16 21 27 40 52 24 50 24 37 0z"/>
<path d="M1131 3730 c-110 -23 -239 -80 -278 -122 -90 -97 -57 -255 68 -319
42 -21 109 -25 140 -9 35 19 30 7 -114 -290 -92 -191 -134 -293 -180 -435 -50
-157 -61 -221 -47 -273 13 -51 63 -110 107 -128 46 -20 132 -18 175 4 61 32
211 166 355 319 230 244 372 383 391 383 11 0 -2 -63 -68 -325 -23 -93 -59
-240 -80 -326 -21 -85 -64 -225 -95 -310 -59 -162 -63 -195 -30 -246 25 -37
75 -63 123 -63 94 0 128 38 201 224 73 189 114 315 152 476 35 146 102 399
130 486 34 109 21 297 -29 387 -31 57 -56 79 -119 103 -120 46 -260 -32 -547
-306 l-90 -85 44 80 c196 357 228 460 184 588 -22 65 -91 139 -155 167 -59 25
-170 34 -238 20z"/>
<path d="M3550 3366 c-124 -33 -199 -123 -241 -283 -23 -91 -25 -183 -4 -223
19 -37 62 -67 113 -79 100 -22 293 44 379 130 115 114 120 272 11 386 -59 61
-175 92 -258 69z"/>
<path d="M4843 2749 c-18 -5 -51 -31 -78 -61 -68 -75 -170 -234 -196 -303 -13
-33 -24 -62 -25 -64 -2 -2 -15 10 -29 27 -87 103 -271 95 -349 -16 -38 -54
-44 -119 -20 -238 10 -52 15 -97 11 -100 -4 -4 -39 2 -79 14 -236 68 -403 54
-499 -41 -89 -89 -108 -207 -69 -422 12 -66 32 -188 45 -271 12 -83 30 -164
38 -180 39 -75 102 -114 184 -114 102 0 174 44 219 133 35 68 34 129 -5 291
-17 70 -31 130 -31 132 0 6 89 -32 154 -66 69 -35 140 -40 240 -14 157 40 232
141 257 346 6 52 8 127 4 171 l-7 79 24 -9 c13 -4 57 -8 98 -8 66 0 83 5 138
34 184 100 312 372 241 517 -11 24 -35 52 -54 64 -18 11 -40 31 -49 45 -29 45
-105 70 -163 54z"/>
<path d="M2843 2385 c-123 -34 -290 -110 -453 -205 -77 -45 -110 -88 -118
-156 l-5 -44 -53 0 c-96 0 -227 -69 -273 -144 -45 -73 -37 -166 22 -232 36
-42 68 -59 124 -69 l41 -6 27 -107 c15 -59 29 -116 32 -128 4 -17 -3 -24 -41
-38 -59 -23 -144 -100 -178 -163 -59 -107 -58 -254 1 -380 65 -136 251 -339
375 -408 260 -145 497 -162 739 -51 108 49 136 71 163 130 39 83 28 160 -32
226 -68 75 -144 77 -289 9 -70 -34 -104 -44 -156 -47 -97 -6 -221 36 -311 105
-41 31 -107 111 -132 160 -16 33 -13 63 8 63 17 0 97 -53 121 -80 43 -48 118
-67 192 -49 36 10 60 25 99 65 116 118 109 238 -19 332 -102 76 -150 158 -188
323 -11 52 -32 136 -45 188 -13 52 -23 95 -22 96 2 1 22 7 46 14 24 7 117 48
207 91 176 84 231 107 240 99 3 -3 -11 -55 -31 -115 -34 -104 -107 -265 -174
-384 -26 -46 -30 -63 -27 -103 13 -146 230 -229 345 -132 61 51 161 296 248
606 46 162 52 275 20 349 -34 77 -81 126 -154 162 -62 30 -75 33 -182 35 -77
2 -132 -2 -167 -12z"/>
</g>
</svg>
