<?xml version="1.0" standalone="no"?>
<!DOCTYPE svg PUBLIC "-//W3C//DTD SVG 20010904//EN"
 "http://www.w3.org/TR/2001/REC-SVG-20010904/DTD/svg10.dtd">
<svg version="1.0" xmlns="http://www.w3.org/2000/svg"
 width="600.000000pt" height="600.000000pt" viewBox="0 0 600.000000 600.000000"
 preserveAspectRatio="xMidYMid meet">
<metadata>
Created by potrace 1.15, written by Peter Selinger 2001-2017
</metadata>
<g transform="translate(0.000000,600.000000) scale(0.100000,-0.100000)"
fill="#16364b" stroke="none">
<path d="M2595 5529 c-16 -5 -40 -17 -51 -27 -46 -39 -128 -240 -140 -344 -13
-107 41 -200 135 -233 56 -19 195 -20 325 0 55 8 108 15 119 15 14 0 -23 -44
-129 -153 -164 -167 -229 -249 -328 -407 -83 -132 -94 -164 -77 -233 8 -29 22
-66 32 -83 33 -55 58 -59 314 -56 222 3 412 -6 580 -29 75 -11 84 -10 124 10
46 24 80 81 81 134 0 40 -27 94 -60 117 -40 29 -184 48 -450 60 -123 6 -226
12 -227 14 -1 1 36 54 83 117 49 65 156 185 249 279 175 177 207 223 207 304
0 107 -78 187 -213 222 -74 19 -190 15 -327 -11 -125 -24 -127 -23 -96 50 32
74 35 140 8 185 -32 56 -102 86 -159 69z"/>
<path d="M1660 5134 c-163 -44 -373 -211 -516 -409 -91 -125 -107 -159 -102
-216 5 -53 26 -89 72 -123 25 -19 45 -21 235 -26 253 -6 261 -9 261 -98 1
-118 16 -202 41 -229 75 -81 212 -64 258 31 24 48 29 182 11 276 -33 175 -147
283 -330 314 -38 6 -71 14 -75 17 -18 19 171 148 239 163 134 32 168 206 55
287 -35 26 -86 30 -149 13z"/>
<path d="M4292 4728 c-145 -15 -419 -127 -463 -190 -65 -90 -7 -213 106 -226
37 -4 56 2 123 36 80 42 216 92 248 92 14 0 16 -7 11 -39 -7 -52 -85 -247
-163 -406 -65 -133 -75 -175 -52 -218 21 -41 93 -119 122 -134 33 -17 118 -18
222 -3 94 13 262 13 323 -2 42 -9 51 -15 51 -34 0 -41 -51 -198 -122 -376 -79
-198 -81 -221 -27 -282 72 -83 202 -89 252 -13 30 46 169 480 183 569 28 191
-36 317 -193 377 -73 28 -230 51 -350 51 -51 0 -93 2 -93 5 0 3 13 32 30 65
44 86 117 313 130 405 35 231 -87 349 -338 323z"/>
<path d="M1975 3969 c-44 -17 -172 -55 -285 -84 -113 -29 -216 -59 -228 -66
-28 -18 -62 -86 -62 -126 0 -72 74 -153 141 -153 34 0 336 79 487 126 62 20
127 46 145 58 62 42 84 127 49 195 -42 83 -120 98 -247 50z"/>
<path d="M3781 3720 c-102 -22 -280 -132 -401 -250 -75 -73 -77 -166 -5 -229
30 -26 44 -31 89 -31 43 0 60 5 88 28 115 88 203 154 219 163 16 8 19 6 19
-12 0 -41 -72 -237 -130 -353 l-58 -118 -62 -31 c-69 -35 -100 -76 -100 -133
0 -48 41 -116 86 -141 65 -38 109 -31 284 41 356 146 454 219 480 358 17 87
-20 169 -90 198 -30 12 -97 10 -134 -6 -16 -6 -18 -4 -12 12 4 10 19 62 33
114 40 155 21 256 -63 330 -65 57 -153 78 -243 60z"/>
<path d="M2375 3434 c-109 -20 -220 -51 -282 -80 -92 -44 -116 -136 -58 -225
47 -72 120 -84 238 -40 126 47 311 68 323 37 8 -22 -30 -152 -70 -238 -43 -91
-47 -149 -13 -198 35 -52 70 -73 129 -77 83 -6 123 22 174 124 23 45 54 122
70 170 25 75 29 104 29 198 0 123 -12 159 -82 236 -87 96 -253 130 -458 93z"/>
<path d="M1135 3131 c-74 -27 -147 -75 -175 -117 -21 -31 -25 -49 -25 -109 0
-63 3 -76 29 -109 33 -44 95 -75 149 -76 20 0 37 -5 37 -10 0 -6 -9 -86 -21
-178 -34 -267 -17 -641 33 -737 33 -63 87 -96 156 -97 84 0 156 41 192 112 10
19 31 45 48 57 16 12 52 63 80 115 98 182 301 464 346 481 17 7 24 -46 32
-228 7 -151 -5 -242 -61 -434 -19 -67 -35 -141 -35 -163 0 -141 199 -200 277
-82 24 37 101 361 115 485 10 93 9 135 -10 335 -25 262 -37 310 -97 370 -79
78 -180 84 -312 19 -88 -43 -214 -163 -307 -293 -33 -45 -61 -80 -63 -78 -2 1
2 40 8 87 6 46 12 163 13 259 1 148 -2 183 -18 229 -23 68 -77 128 -141 157
-63 30 -175 32 -250 5z"/>
<path d="M4855 2760 c-124 -22 -204 -107 -214 -229 l-6 -65 -75 -16 c-167 -37
-266 -82 -357 -164 -112 -101 -156 -209 -155 -386 0 -142 26 -262 81 -375 35
-72 38 -81 23 -91 -10 -7 -29 -23 -45 -38 -31 -28 -27 -29 -142 23 -157 71
-317 97 -447 72 -189 -37 -375 -203 -514 -457 -25 -47 -58 -92 -73 -102 -14
-9 -48 -36 -75 -59 -56 -50 -87 -54 -134 -20 -92 68 -176 220 -248 450 -38
119 -101 177 -191 177 -114 -1 -204 -105 -190 -219 14 -113 124 -378 212 -511
177 -266 423 -372 627 -272 36 17 95 59 134 92 38 33 85 67 104 76 54 25 86
61 153 173 73 121 155 223 216 266 37 26 51 30 104 29 55 0 78 -8 197 -64 132
-62 137 -64 232 -68 92 -4 101 -3 162 26 75 35 159 109 187 164 10 20 19 55
19 76 0 37 2 40 46 57 95 36 158 120 158 210 0 71 -19 117 -71 178 -59 68 -83
120 -83 183 0 50 1 52 38 70 20 9 94 32 164 50 70 18 150 43 178 55 119 51
205 143 240 256 26 83 28 264 4 321 -40 98 -147 152 -259 132z"/>
<path d="M3205 2479 c-27 -6 -144 -32 -260 -60 -115 -27 -239 -56 -275 -64
-109 -25 -151 -73 -151 -171 0 -80 37 -139 110 -176 30 -16 66 -28 81 -28 14
0 112 20 218 44 224 52 389 82 398 73 4 -3 -1 -29 -10 -56 -34 -105 -10 -188
71 -245 35 -24 52 -29 100 -29 156 0 237 122 237 353 0 92 -3 112 -25 161 -49
104 -122 164 -235 194 -64 16 -180 18 -259 4z"/>
</g>
</svg>
