<?xml version="1.0" standalone="no"?>
<!DOCTYPE svg PUBLIC "-//W3C//DTD SVG 20010904//EN"
 "http://www.w3.org/TR/2001/REC-SVG-20010904/DTD/svg10.dtd">
<svg version="1.0" xmlns="http://www.w3.org/2000/svg"
 width="600.000000pt" height="600.000000pt" viewBox="0 0 600.000000 600.000000"
 preserveAspectRatio="xMidYMid meet">
<metadata>
Created by potrace 1.15, written by Peter Selinger 2001-2017
</metadata>
<g transform="translate(0.000000,600.000000) scale(0.100000,-0.100000)"
fill="#16364b" stroke="none">
<path d="M1852 4726 c-100 -33 -162 -114 -169 -224 -3 -45 0 -80 10 -107 50
-133 60 -166 77 -248 27 -137 39 -289 44 -612 3 -159 12 -364 20 -455 26 -295
28 -362 17 -541 -19 -296 7 -603 65 -784 97 -297 278 -453 615 -529 l25 -5 -4
-138 c-4 -155 9 -243 73 -462 19 -66 35 -127 35 -136 0 -12 -14 -15 -72 -15
-102 -1 -148 -13 -180 -50 -81 -89 22 -183 173 -159 150 24 243 108 242 219 0
25 -19 106 -41 180 -23 74 -48 168 -57 208 -15 73 -20 243 -9 298 l6 29 476 1
477 2 1 -127 c1 -187 34 -360 99 -511 20 -46 33 -85 31 -87 -3 -3 -50 -6 -105
-6 -83 -2 -104 -5 -127 -23 -39 -29 -49 -65 -30 -106 26 -54 68 -73 161 -73
97 1 170 24 214 68 64 62 65 99 10 243 -50 134 -75 239 -89 377 -11 106 -6
216 11 248 5 10 28 19 61 23 90 12 473 86 529 102 133 39 247 140 314 279 61
125 79 204 78 350 0 140 -26 238 -90 342 -48 78 -77 110 -188 207 -103 90
-233 159 -430 227 -134 47 -288 121 -481 232 -71 41 -193 108 -272 150 -222
119 -359 226 -510 398 -120 137 -185 239 -301 469 -104 206 -146 279 -241 420
-32 47 -70 106 -85 132 -91 160 -247 238 -383 194z m143 -155 c49 -22 96 -74
131 -144 15 -29 38 -65 51 -81 42 -50 130 -208 242 -433 131 -263 195 -361
339 -516 243 -260 352 -341 687 -509 94 -47 229 -117 300 -155 145 -77 171
-88 335 -145 192 -66 284 -116 395 -214 53 -48 110 -108 127 -133 122 -192 89
-503 -70 -673 -68 -73 -120 -95 -316 -133 -368 -72 -530 -86 -1005 -85 -632 0
-845 42 -998 197 -101 101 -160 248 -195 483 -12 86 -14 252 -8 680 3 190 -1
277 -19 455 -12 126 -26 353 -31 530 -11 366 -33 525 -96 683 -43 105 -33 170
29 197 42 19 54 18 102 -4z"/>
<path d="M2570 2677 c-56 -28 -24 -117 42 -117 20 0 31 8 43 30 20 39 19 47
-10 75 -27 28 -39 30 -75 12z"/>
<path d="M2984 2464 c-33 -49 19 -115 78 -101 33 9 53 59 36 90 -15 30 -27 37
-65 37 -24 0 -37 -7 -49 -26z"/>
<path d="M5252 3965 c-104 -29 -160 -74 -203 -161 -26 -53 -32 -75 -31 -132 1
-169 119 -312 279 -338 86 -13 232 39 305 110 65 64 91 119 96 206 4 68 1 85
-21 133 -29 64 -82 121 -152 162 -43 25 -62 29 -135 32 -53 2 -105 -3 -138
-12z m127 -276 c17 -6 31 -15 31 -19 0 -11 -41 -40 -57 -40 -16 0 -36 38 -29
56 6 17 14 17 55 3z"/>
<path d="M5349 1106 c-39 -19 -71 -90 -77 -167 -5 -68 -4 -69 31 -104 26 -26
43 -35 69 -35 82 1 128 67 128 187 0 61 -4 76 -22 96 -27 29 -94 41 -129 23z"/>
</g>
</svg>
