<?xml version="1.0" standalone="no"?>
<!DOCTYPE svg PUBLIC "-//W3C//DTD SVG 20010904//EN"
 "http://www.w3.org/TR/2001/REC-SVG-20010904/DTD/svg10.dtd">
<svg version="1.0" xmlns="http://www.w3.org/2000/svg"
 width="600.000000pt" height="600.000000pt" viewBox="0 0 600.000000 600.000000"
 preserveAspectRatio="xMidYMid meet">
<metadata>
Created by potrace 1.15, written by Peter Selinger 2001-2017
</metadata>
<g transform="translate(0.000000,600.000000) scale(0.100000,-0.100000)"
fill="#16364b" stroke="none">
<path d="M3529 5270 c-25 -15 -42 -65 -35 -104 9 -46 74 -144 125 -188 23 -19
62 -41 86 -48 38 -11 48 -10 69 4 72 47 49 135 -68 263 -67 74 -131 100 -177
73z m121 -162 c15 -21 17 -28 6 -19 -16 13 -41 51 -33 51 2 0 14 -15 27 -32z"/>
<path d="M3022 5079 c-95 -38 -176 -184 -158 -283 8 -43 47 -92 81 -100 121
-30 288 188 245 319 -16 48 -53 75 -104 74 -22 0 -52 -4 -64 -10z m78 -111 c0
-50 -84 -168 -120 -168 -17 0 -11 69 10 109 35 69 110 109 110 59z"/>
<path d="M4761 4704 c-19 -24 -21 -42 -23 -183 -4 -284 1 -382 23 -427 47 -98
170 -80 198 30 38 151 -25 530 -97 586 -35 28 -76 26 -101 -6z"/>
<path d="M2665 4216 c-69 -31 -91 -106 -48 -164 49 -66 234 -127 383 -127 107
0 142 14 161 63 14 36 -4 97 -34 116 -32 22 -324 112 -382 120 -33 4 -60 1
-80 -8z"/>
<path d="M5253 3961 c-97 -33 -164 -94 -199 -180 -12 -31 -15 -63 -12 -124 7
-132 65 -235 167 -295 39 -23 57 -27 121 -26 61 0 86 5 134 29 172 82 260 304
182 454 -20 37 -92 104 -147 135 -38 22 -58 26 -120 26 -44 -1 -95 -8 -126
-19z m121 -271 c30 -11 26 -32 -9 -48 -21 -10 -26 -8 -36 9 -11 22 -6 49 10
49 5 0 21 -4 35 -10z"/>
<path d="M1369 3946 c-110 -39 -175 -148 -167 -279 8 -127 69 -209 204 -276
138 -68 216 -221 259 -506 9 -60 31 -207 50 -325 18 -118 45 -291 60 -385 78
-507 133 -660 286 -799 78 -70 231 -149 338 -173 44 -10 81 -20 81 -23 0 -3
-37 -24 -83 -47 -166 -86 -239 -165 -240 -263 -1 -62 21 -96 83 -127 38 -20
60 -23 160 -23 63 0 171 7 240 15 148 18 140 17 140 6 0 -5 -20 -21 -44 -35
-68 -40 -98 -81 -94 -129 2 -30 10 -45 31 -61 66 -49 157 -10 232 97 33 49 40
67 43 121 5 74 -13 117 -61 147 -29 18 -44 20 -157 15 -69 -2 -168 -10 -220
-16 -103 -12 -184 -6 -177 13 8 24 127 99 294 183 l172 86 308 -7 c169 -4 330
-8 357 -9 l50 -3 2 -48 c2 -26 10 -58 19 -71 24 -37 89 -64 178 -74 45 -6 82
-10 83 -10 0 0 0 -15 0 -34 0 -60 53 -96 141 -96 110 1 227 105 205 181 -22
77 -56 91 -240 100 -168 8 -232 16 -232 29 0 5 26 11 58 15 31 3 84 12 117 20
33 8 94 19 135 26 156 23 405 83 549 134 133 46 167 61 241 109 193 126 314
336 351 611 33 249 -111 560 -325 703 -107 72 -159 87 -286 86 -137 -2 -242
-34 -327 -100 -164 -128 -306 -191 -503 -225 -86 -14 -306 -12 -385 5 -199 42
-413 158 -572 309 -113 107 -187 207 -419 562 -114 176 -226 294 -355 378
-102 66 -310 170 -381 192 -62 18 -150 19 -199 1z m283 -285 c247 -119 347
-217 518 -506 241 -407 454 -614 806 -786 227 -111 447 -142 724 -104 221 31
401 104 563 226 109 83 164 103 258 97 132 -10 238 -90 304 -231 95 -201 84
-378 -33 -558 -98 -149 -207 -220 -483 -310 -318 -104 -485 -121 -1039 -108
-528 13 -777 25 -845 44 -145 38 -255 123 -310 239 -39 82 -71 222 -89 382
-10 82 -35 244 -57 359 -47 252 -52 280 -84 506 -37 262 -74 388 -144 495 -61
95 -119 143 -270 226 -17 9 -36 29 -41 44 -30 79 37 74 222 -15z"/>
<path d="M2342 2454 c-15 -11 -22 -25 -22 -50 0 -28 6 -38 33 -54 41 -25 43
-25 72 5 62 61 -11 150 -83 99z"/>
<path d="M2825 2046 c-31 -31 -22 -63 24 -90 32 -18 33 -18 59 1 35 26 40 65
11 92 -30 28 -64 27 -94 -3z"/>
<path d="M4174 3724 c-62 -30 -138 -108 -166 -171 -11 -25 -23 -72 -25 -104
-11 -117 70 -219 205 -255 53 -15 73 -15 124 -6 112 21 196 79 238 167 38 78
19 239 -36 305 -14 16 -52 43 -86 59 -81 41 -177 43 -254 5z m146 -235 c0 -23
-22 -49 -40 -49 -27 0 -25 25 2 44 26 19 38 20 38 5z"/>
<path d="M3468 3358 c-41 -34 -168 -273 -168 -317 0 -30 22 -51 54 -51 47 0
206 249 206 322 0 45 -57 73 -92 46z"/>
<path d="M462 2008 c-7 -7 -12 -24 -12 -38 0 -20 15 -36 73 -78 141 -104 272
-150 303 -107 38 52 2 88 -170 173 -125 61 -171 73 -194 50z"/>
<path d="M5336 1091 c-25 -28 -56 -116 -56 -161 0 -82 89 -134 157 -91 43 27
65 72 71 146 4 55 2 64 -23 93 -24 29 -32 32 -79 32 -39 0 -57 -5 -70 -19z"/>
</g>
</svg>
