<?xml version="1.0" standalone="no"?>
<!DOCTYPE svg PUBLIC "-//W3C//DTD SVG 20010904//EN"
 "http://www.w3.org/TR/2001/REC-SVG-20010904/DTD/svg10.dtd">
<svg version="1.0" xmlns="http://www.w3.org/2000/svg"
 width="600.000000pt" height="600.000000pt" viewBox="0 0 600.000000 600.000000"
 preserveAspectRatio="xMidYMid meet">
<metadata>
Created by potrace 1.15, written by Peter Selinger 2001-2017
</metadata>
<g transform="translate(0.000000,600.000000) scale(0.100000,-0.100000)"
fill="#16364b" stroke="none">
<path d="M1663 5815 c-18 -8 -41 -28 -51 -44 -18 -30 -91 -351 -113 -501 -16
-108 -7 -228 22 -287 53 -106 167 -138 277 -78 140 76 464 464 479 573 11 82
-62 162 -146 162 -66 0 -96 -22 -157 -118 -64 -98 -163 -226 -171 -218 -3 3
14 80 37 172 58 229 50 280 -50 332 -51 25 -81 27 -127 7z"/>
<path d="M3113 5590 c-61 -37 -85 -102 -60 -163 13 -30 44 -55 194 -154 181
-120 315 -237 356 -311 l19 -33 -35 6 c-49 9 -100 -10 -136 -50 -36 -41 -47
-91 -31 -139 14 -44 48 -69 125 -91 145 -42 296 26 339 153 20 59 20 104 -2
168 -58 168 -208 321 -546 558 -121 85 -160 95 -223 56z"/>
<path d="M883 5455 c-167 -37 -275 -157 -319 -352 -31 -142 2 -251 110 -358
74 -72 129 -100 181 -91 50 10 100 57 114 109 17 59 -3 106 -70 166 -44 40
-52 52 -56 91 -5 55 19 105 68 138 29 21 42 23 92 19 33 -3 73 -1 90 5 42 13
93 71 101 114 10 52 -22 118 -71 143 -53 27 -162 34 -240 16z"/>
<path d="M2913 5175 c-116 -58 -203 -232 -173 -343 33 -125 174 -187 335 -147
140 34 175 81 175 231 0 68 -5 100 -21 134 -60 134 -193 186 -316 125z"/>
<path d="M4753 4824 c-69 -45 -78 -70 -77 -214 0 -82 6 -149 18 -194 52 -215
186 -335 361 -324 76 5 115 21 170 70 60 52 80 101 80 193 -1 72 -5 88 -38
158 -61 124 -177 236 -324 311 -71 35 -135 35 -190 0z"/>
<path d="M2160 4819 c-107 -10 -207 -42 -254 -80 -71 -59 -71 -156 -1 -218 50
-43 94 -49 179 -21 40 13 113 26 166 30 108 7 151 25 180 73 44 71 34 144 -26
197 -31 27 -41 30 -97 29 -34 -1 -100 -5 -147 -10z"/>
<path d="M2835 4113 c-81 -17 -155 -67 -191 -129 -23 -38 -26 -53 -22 -104 6
-77 41 -130 127 -187 96 -65 181 -88 321 -87 107 1 124 4 245 43 148 49 185
76 205 147 17 58 0 121 -44 162 -46 43 -270 122 -430 151 -58 11 -171 13 -211
4z"/>
<path d="M992 4028 c-18 -13 -44 -47 -58 -76 -32 -63 -28 -125 11 -184 41 -61
86 -78 210 -78 58 0 105 -3 105 -6 0 -10 -68 -92 -135 -163 -33 -35 -132 -127
-220 -206 -179 -159 -262 -244 -282 -292 -16 -39 -17 -126 -2 -156 22 -42 73
-87 111 -97 41 -12 75 -6 129 21 35 18 38 18 75 -1 70 -36 89 -31 248 68 l86
53 38 -38 c21 -21 58 -54 81 -73 89 -74 95 -217 17 -383 -40 -82 -136 -209
-197 -257 -79 -62 -102 -72 -158 -64 -66 9 -114 -15 -148 -73 -66 -114 20
-223 177 -223 61 0 152 25 214 58 65 34 204 172 285 282 152 205 204 386 168
587 -21 116 -67 205 -143 279 l-62 61 63 31 62 31 33 -34 c64 -66 163 -68 228
-4 39 38 45 71 40 197 -4 112 -25 159 -82 186 -67 32 -114 22 -273 -55 -79
-39 -147 -69 -149 -67 -2 2 22 38 53 78 31 41 72 108 91 149 30 63 35 84 36
150 1 64 -3 85 -27 133 -66 134 -199 188 -464 188 -117 0 -131 -2 -161 -22z"/>
<path d="M4176 3763 c-66 -20 -146 -72 -182 -119 -45 -58 -64 -115 -64 -193 0
-116 69 -223 182 -283 35 -19 59 -23 128 -23 76 0 92 4 151 32 78 39 150 111
185 187 30 66 66 230 58 265 -11 44 -44 91 -77 108 -83 42 -283 57 -381 26z
m104 -293 c0 -5 -11 -17 -26 -26 -34 -23 -56 -4 -23 20 26 18 49 21 49 6z"/>
<path d="M3403 3399 c-25 -12 -58 -41 -78 -68 -46 -64 -116 -210 -121 -258 -6
-49 19 -100 66 -131 31 -21 44 -23 116 -20 64 3 90 10 125 30 71 42 122 125
138 226 14 88 -1 143 -56 194 -55 52 -121 61 -190 27z"/>
<path d="M5014 3254 c-162 -97 -261 -269 -252 -439 4 -84 32 -136 99 -185 141
-101 367 -22 457 160 24 49 27 67 27 155 0 87 -3 107 -26 155 -33 69 -99 149
-141 172 -52 27 -97 23 -164 -18z"/>
<path d="M3996 2475 c-44 -15 -91 -57 -113 -98 -20 -39 -17 -117 6 -205 l20
-74 -22 7 c-126 39 -240 -3 -304 -112 -56 -97 -35 -310 58 -579 63 -185 88
-219 182 -259 108 -45 245 14 282 121 13 37 14 38 66 42 109 6 227 101 259
205 22 74 14 179 -29 362 -60 259 -117 453 -146 496 -31 48 -86 85 -145 98
-57 13 -67 13 -114 -4z"/>
<path d="M2125 2466 c-90 -22 -146 -70 -330 -281 -48 -55 -94 -113 -102 -130
-9 -16 -34 -50 -55 -75 -86 -97 -170 -261 -207 -404 -61 -231 -50 -415 34
-593 125 -266 367 -460 650 -520 98 -21 313 -12 413 16 180 52 302 140 450
324 141 175 227 351 317 652 48 159 58 223 53 328 -14 248 -178 417 -406 417
-68 0 -188 -25 -270 -56 -35 -13 -68 -24 -72 -24 -4 0 -13 19 -20 43 -21 71
-69 156 -110 196 -22 21 -69 52 -104 69 -58 28 -85 35 -166 47 -14 2 -47 -2
-75 -9z m105 -463 c35 -107 69 -161 137 -218 69 -59 116 -79 171 -73 20 3 105
24 188 47 83 23 171 43 195 44 42 2 44 1 47 -28 6 -66 -94 -369 -199 -602 -38
-86 -145 -219 -210 -262 -91 -61 -146 -76 -274 -75 -149 0 -235 35 -359 146
-190 169 -176 541 30 780 26 29 54 70 63 90 17 37 168 218 182 218 4 0 17 -30
29 -67z"/>
</g>
</svg>
