<?xml version="1.0" standalone="no"?>
<!DOCTYPE svg PUBLIC "-//W3C//DTD SVG 20010904//EN"
 "http://www.w3.org/TR/2001/REC-SVG-20010904/DTD/svg10.dtd">
<svg version="1.0" xmlns="http://www.w3.org/2000/svg"
 width="600.000000pt" height="600.000000pt" viewBox="0 0 600.000000 600.000000"
 preserveAspectRatio="xMidYMid meet">
<metadata>
Created by potrace 1.15, written by Peter Selinger 2001-2017
</metadata>
<g transform="translate(0.000000,600.000000) scale(0.100000,-0.100000)"
fill="#16364b" stroke="none">
<path d="M2645 5528 c-35 -28 -90 -145 -117 -250 -28 -112 -22 -193 18 -250
62 -89 165 -115 382 -98 74 6 137 9 139 7 2 -3 -31 -34 -74 -70 -159 -133
-239 -228 -377 -450 -94 -152 -109 -190 -95 -241 11 -41 61 -111 90 -127 12
-6 92 -15 178 -20 167 -9 463 -41 598 -64 93 -16 135 -9 181 30 39 33 58 100
42 149 -13 42 -67 92 -107 100 -52 10 -177 26 -328 41 -227 23 -255 27 -255
35 0 4 33 51 74 106 79 106 167 196 312 316 49 42 102 92 117 112 130 170 24
358 -215 382 -36 3 -124 -1 -207 -10 -188 -21 -184 -21 -175 7 4 12 17 45 30
74 43 93 24 167 -55 220 -46 31 -118 31 -156 1z"/>
<path d="M1556 5165 c-217 -94 -417 -289 -530 -516 -53 -104 -57 -143 -23
-209 43 -84 99 -105 228 -83 94 15 277 21 327 9 39 -9 41 -25 11 -146 -12 -47
-22 -115 -23 -152 -1 -80 17 -112 84 -144 l43 -21 -99 -33 c-128 -42 -151 -54
-174 -93 -39 -63 -14 -161 51 -208 62 -44 173 -30 369 48 100 40 322 152 349
176 28 26 51 76 51 114 0 41 -36 105 -73 131 -57 38 -116 31 -236 -28 -56 -27
-105 -50 -107 -50 -3 0 4 16 16 35 36 58 83 266 84 365 0 71 -4 94 -25 141
-51 109 -139 167 -294 194 -48 8 -99 15 -114 15 -25 1 -25 2 18 41 61 55 170
126 225 146 83 31 136 112 119 183 -29 121 -126 151 -277 85z"/>
<path d="M4316 4673 c-104 -22 -323 -120 -374 -167 -104 -95 -40 -251 103
-250 37 0 68 10 121 37 76 38 231 93 240 85 12 -13 -45 -149 -150 -353 -62
-121 -116 -232 -119 -247 -12 -49 4 -89 65 -153 32 -34 70 -67 86 -73 15 -6
131 -13 257 -15 127 -3 244 -9 260 -14 26 -8 30 -14 27 -39 -6 -44 -66 -202
-138 -358 -39 -85 -64 -152 -64 -174 0 -72 57 -136 133 -149 84 -13 129 24
192 155 152 317 207 522 171 644 -23 80 -65 132 -135 168 -83 42 -122 49 -326
60 -98 6 -181 12 -183 14 -2 2 35 78 82 167 108 208 138 297 139 405 2 214
-143 310 -387 257z"/>
<path d="M3740 3665 c-119 -29 -246 -109 -297 -187 -71 -106 3 -227 133 -216
45 4 60 11 97 45 45 42 82 64 126 78 23 7 24 6 19 -33 -3 -22 -32 -106 -64
-187 l-59 -148 -55 -35 c-130 -83 -180 -143 -180 -217 0 -91 59 -150 150 -150
50 0 63 5 125 47 67 46 153 84 317 143 43 15 96 40 118 56 114 83 105 252 -17
310 -27 12 -50 24 -52 25 -2 2 7 40 19 86 41 153 13 269 -82 339 -78 56 -184
72 -298 44z"/>
<path d="M2395 3486 c-133 -35 -297 -101 -327 -134 -80 -84 -41 -232 68 -261
44 -12 59 -9 216 43 128 41 210 59 258 54 33 -3 35 -5 32 -38 -4 -51 -28 -121
-88 -251 -30 -64 -54 -129 -54 -145 0 -81 82 -163 161 -164 41 0 94 32 115 70
73 131 161 366 173 461 17 128 -14 215 -103 296 -104 95 -258 119 -451 69z"/>
<path d="M1160 3207 c-53 -15 -174 -79 -209 -110 -52 -48 -76 -147 -50 -214
25 -67 109 -123 185 -123 l46 0 -6 -77 c-4 -43 -17 -161 -28 -263 -35 -319
-27 -545 24 -628 41 -67 137 -104 216 -83 56 15 144 100 189 180 60 108 213
352 261 416 47 63 142 165 153 165 20 0 34 -106 34 -260 0 -174 -16 -287 -70
-505 -29 -116 -30 -134 -11 -179 45 -107 185 -136 264 -55 25 26 36 52 57 141
55 237 101 615 92 753 -11 160 -58 305 -125 385 -17 20 -54 49 -83 65 -133 73
-295 7 -456 -186 -38 -46 -89 -112 -113 -147 -24 -34 -45 -60 -47 -58 -2 2 3
69 13 148 10 78 18 211 18 293 1 136 -1 155 -22 200 -45 98 -115 146 -222 151
-36 2 -85 -2 -110 -9z"/>
<path d="M4808 2661 c-51 -17 -96 -51 -127 -97 -27 -42 -36 -73 -43 -159 -3
-29 -4 -29 -102 -47 -139 -25 -199 -43 -291 -91 -154 -80 -293 -255 -325 -411
-22 -109 14 -270 88 -397 38 -64 38 -66 21 -87 -9 -12 -22 -22 -28 -22 -6 0
-56 23 -111 50 -207 104 -327 138 -430 121 -117 -20 -205 -66 -291 -152 -68
-68 -97 -109 -220 -314 -77 -127 -104 -164 -133 -180 -20 -11 -54 -33 -77 -49
-49 -36 -61 -31 -105 43 -38 62 -106 264 -129 381 -26 135 -34 158 -66 195
-80 91 -228 81 -299 -21 -32 -48 -34 -95 -11 -224 67 -375 196 -617 391 -732
154 -91 305 -69 470 67 36 29 89 65 118 80 62 32 78 51 171 217 129 228 190
293 276 293 42 0 71 -11 181 -67 162 -83 223 -101 318 -96 54 2 85 10 129 33
96 48 176 151 177 225 0 8 18 25 40 38 84 48 133 161 110 254 -7 25 -29 71
-50 102 -39 57 -65 140 -59 186 6 39 77 68 251 100 84 16 173 36 198 45 187
67 270 210 257 442 -6 103 -27 161 -75 209 -58 58 -156 86 -224 65z"/>
<path d="M3135 2545 c-82 -14 -248 -56 -463 -118 -56 -16 -93 -34 -113 -53
-109 -103 -61 -277 88 -320 52 -15 55 -15 183 21 250 69 420 106 420 91 0 -4
-16 -47 -35 -96 -19 -49 -35 -106 -35 -126 0 -47 32 -103 77 -134 31 -21 48
-25 108 -25 62 0 77 4 113 28 66 46 141 206 163 349 25 163 -61 324 -199 373
-65 23 -199 27 -307 10z"/>
</g>
</svg>
