<?xml version="1.0" standalone="no"?>
<!DOCTYPE svg PUBLIC "-//W3C//DTD SVG 20010904//EN"
 "http://www.w3.org/TR/2001/REC-SVG-20010904/DTD/svg10.dtd">
<svg version="1.0" xmlns="http://www.w3.org/2000/svg"
 width="600.000000pt" height="600.000000pt" viewBox="0 0 600.000000 600.000000"
 preserveAspectRatio="xMidYMid meet">
<metadata>
Created by potrace 1.15, written by Peter Selinger 2001-2017
</metadata>
<g transform="translate(0.000000,600.000000) scale(0.100000,-0.100000)"
fill="#16364b" stroke="none">
<path d="M2482 5500 c-64 -15 -111 -80 -163 -221 -65 -177 -31 -302 99 -366
50 -25 67 -28 142 -26 48 1 136 13 203 27 174 38 171 41 80 -66 -142 -167
-275 -358 -390 -560 -54 -97 -58 -107 -56 -164 2 -109 47 -164 137 -172 28 -2
128 4 221 14 111 12 259 18 427 19 l258 1 30 29 c79 76 52 208 -52 250 -53 22
-391 32 -538 17 -52 -6 -97 -8 -99 -6 -13 13 116 186 282 376 234 270 240 280
241 378 1 78 -23 125 -89 170 -106 73 -248 77 -499 15 -55 -14 -102 -22 -105
-20 -3 3 6 27 18 53 35 71 42 102 31 143 -23 84 -96 129 -178 109z"/>
<path d="M1632 5044 c-218 -64 -407 -202 -537 -393 -44 -64 -49 -78 -49 -124
0 -60 23 -108 67 -141 26 -19 46 -22 230 -27 255 -8 301 -23 328 -108 6 -20
23 -60 36 -89 59 -126 222 -139 284 -22 26 48 24 82 -10 185 -36 106 -86 182
-153 232 -49 36 -193 93 -235 93 -34 0 -28 12 20 42 54 34 129 66 184 78 61
14 89 35 113 84 25 53 25 79 -1 132 -42 87 -122 104 -277 58z"/>
<path d="M4128 4805 c-71 -18 -169 -67 -273 -137 -98 -67 -125 -103 -125 -170
0 -94 56 -152 145 -152 45 0 59 6 131 57 90 63 173 104 219 109 28 3 30 0 33
-31 8 -83 -54 -268 -154 -459 -67 -129 -69 -157 -18 -249 41 -72 81 -103 134
-103 19 0 134 11 255 25 121 14 240 25 265 25 79 0 79 0 37 -167 -20 -81 -58
-214 -84 -295 -44 -139 -46 -150 -34 -190 33 -108 164 -142 243 -63 58 58 198
551 201 710 2 69 -2 88 -26 137 -69 140 -189 182 -463 159 -86 -7 -158 -10
-161 -7 -3 3 6 35 21 73 44 115 67 223 73 339 5 96 3 121 -16 181 -51 170
-216 255 -403 208z"/>
<path d="M2042 3969 c-68 -30 -200 -68 -364 -104 -157 -36 -198 -53 -231 -97
-29 -39 -33 -115 -8 -156 25 -39 76 -72 114 -72 15 0 118 18 230 41 209 41
400 98 441 130 55 43 71 131 36 200 -39 76 -126 99 -218 58z"/>
<path d="M3706 3685 c-110 -38 -393 -210 -441 -266 -34 -41 -41 -90 -20 -145
24 -64 74 -99 139 -99 48 0 60 6 186 91 74 50 146 97 159 104 23 12 24 12 17
-21 -8 -43 -63 -190 -128 -344 -37 -87 -61 -130 -89 -158 -106 -103 -52 -277
86 -277 58 0 429 156 551 232 71 44 149 123 170 173 44 107 -16 199 -140 212
-65 7 -138 -23 -160 -66 -15 -28 -76 -70 -76 -51 0 6 7 24 15 41 65 124 102
347 75 443 -15 56 -70 122 -117 141 -54 23 -147 18 -227 -10z"/>
<path d="M2438 3410 c-67 -8 -177 -34 -301 -72 -83 -25 -130 -66 -147 -127
-21 -81 33 -168 117 -186 22 -4 66 3 140 23 144 40 205 52 258 52 43 0 45 -1
45 -28 0 -31 -35 -140 -69 -212 -26 -58 -26 -86 2 -140 40 -80 131 -103 214
-55 36 22 49 39 82 108 62 129 83 203 88 303 7 119 -11 178 -76 244 -75 77
-197 108 -353 90z"/>
<path d="M1160 3116 c-74 -22 -94 -32 -128 -67 -61 -63 -64 -158 -8 -232 29
-38 65 -59 139 -81 15 -5 17 -22 17 -169 0 -90 -7 -235 -16 -323 -29 -282 -4
-467 70 -532 19 -16 55 -38 81 -48 117 -44 261 43 273 166 4 44 8 53 31 61 44
17 71 50 118 144 25 50 64 117 86 149 49 73 186 218 198 210 12 -7 11 -253 -1
-372 -6 -53 -24 -146 -40 -205 -35 -126 -37 -180 -10 -224 54 -89 203 -84 259
8 26 43 78 236 91 339 14 119 12 451 -4 525 -26 121 -73 195 -155 243 -64 37
-161 38 -242 0 -74 -34 -183 -130 -276 -241 -42 -51 -78 -94 -81 -97 -2 -3 -2
54 2 125 13 256 -19 440 -92 532 -66 84 -201 123 -312 89z"/>
<path d="M4824 2866 c-47 -21 -103 -74 -126 -120 -13 -26 -23 -67 -26 -112
l-4 -71 -82 -33 c-243 -99 -357 -183 -421 -310 -68 -135 -88 -338 -46 -470 24
-77 78 -170 128 -222 20 -21 35 -39 32 -42 -2 -2 -22 -13 -44 -24 -22 -11 -53
-34 -70 -51 -34 -36 -36 -36 -180 9 -251 78 -401 65 -575 -48 -76 -49 -214
-190 -284 -290 -34 -49 -75 -94 -100 -110 -22 -15 -66 -47 -96 -71 -129 -104
-205 -94 -328 45 -54 60 -137 210 -166 299 -26 81 -51 114 -109 140 -62 30
-108 31 -163 6 -88 -40 -128 -122 -104 -214 26 -103 111 -286 179 -385 69
-101 194 -213 311 -279 192 -108 411 -77 620 88 28 22 68 47 88 56 52 21 76
46 139 143 127 195 214 275 308 286 42 5 72 -1 190 -41 178 -59 270 -68 366
-36 160 53 273 180 268 299 l-3 57 43 7 c124 21 211 112 211 220 0 83 -17 117
-96 195 -79 76 -104 120 -104 177 0 31 5 38 43 60 23 13 74 35 114 49 129 46
205 89 269 152 103 101 150 235 141 403 -4 80 -8 98 -33 139 -16 26 -49 61
-72 78 -37 25 -54 30 -115 32 -46 2 -83 -2 -103 -11z"/>
<path d="M3275 2413 c-169 -15 -586 -97 -645 -128 -16 -8 -41 -31 -57 -51 -40
-53 -45 -150 -11 -214 27 -51 72 -85 131 -101 34 -9 74 -3 332 55 162 36 312
66 334 66 l41 0 -6 -44 c-9 -65 3 -112 39 -153 35 -40 97 -72 139 -73 87 0
154 64 190 184 32 106 30 205 -5 278 -71 145 -226 203 -482 181z"/>
</g>
</svg>
