<?xml version="1.0" standalone="no"?>
<!DOCTYPE svg PUBLIC "-//W3C//DTD SVG 20010904//EN"
 "http://www.w3.org/TR/2001/REC-SVG-20010904/DTD/svg10.dtd">
<svg version="1.0" xmlns="http://www.w3.org/2000/svg"
 width="600.000000pt" height="600.000000pt" viewBox="0 0 600.000000 600.000000"
 preserveAspectRatio="xMidYMid meet">
<metadata>
Created by potrace 1.15, written by Peter Selinger 2001-2017
</metadata>
<g transform="translate(0.000000,600.000000) scale(0.100000,-0.100000)"
fill="#16364b" stroke="none">
<path d="M3552 5283 c-16 -6 -42 -56 -42 -82 0 -11 12 -45 26 -75 68 -145 213
-237 274 -176 35 35 22 98 -41 190 -78 115 -157 167 -217 143z"/>
<path d="M2989 5071 c-83 -52 -146 -178 -136 -274 3 -41 10 -56 36 -79 17 -15
39 -28 49 -28 57 1 175 97 226 184 73 125 39 226 -78 226 -40 0 -63 -7 -97
-29z m107 -85 c9 -22 -33 -94 -83 -142 -25 -24 -49 -44 -54 -44 -15 0 -10 52
10 95 19 43 82 105 107 105 8 0 17 -6 20 -14z"/>
<path d="M4768 4725 c-44 -25 -51 -73 -45 -300 6 -225 19 -296 62 -332 54 -47
141 -20 171 53 17 39 19 205 4 285 -20 108 -64 252 -84 275 -27 31 -73 38
-108 19z"/>
<path d="M2654 4221 c-54 -23 -71 -108 -35 -167 62 -101 278 -170 412 -131 61
18 85 39 98 83 10 37 -4 91 -27 103 -9 5 -86 32 -170 61 -156 52 -239 68 -278
51z"/>
<path d="M5241 3975 c-102 -32 -188 -121 -212 -218 -17 -70 -7 -173 24 -240
32 -71 103 -141 173 -174 47 -21 66 -25 132 -21 133 6 220 66 283 193 28 57
34 81 37 155 3 52 0 102 -7 123 -19 57 -66 113 -128 154 -56 37 -61 38 -158
40 -65 2 -115 -2 -144 -12z m132 -296 c32 -17 32 -17 12 -39 -24 -27 -43 -25
-57 6 -10 21 -9 27 3 35 18 11 16 11 42 -2z"/>
<path d="M1380 3896 c-131 -35 -198 -129 -188 -260 10 -116 89 -221 216 -285
127 -64 194 -190 266 -503 53 -230 84 -408 96 -558 26 -340 53 -507 110 -683
46 -144 111 -227 235 -302 52 -31 214 -89 310 -110 30 -7 29 -7 -30 -34 -136
-62 -260 -161 -285 -227 -28 -74 -3 -146 63 -181 39 -21 173 -23 357 -5 69 6
155 15 193 18 37 4 67 3 67 -2 0 -5 -22 -24 -48 -42 -81 -55 -105 -125 -59
-177 51 -59 141 -38 207 49 110 146 106 278 -10 315 -40 13 -75 13 -290 -2
-135 -10 -263 -17 -285 -17 l-40 1 34 29 c49 42 156 91 326 150 83 29 155 55
160 60 15 11 451 20 588 12 l119 -7 13 -40 c27 -78 109 -122 253 -132 l82 -6
0 -29 c0 -86 161 -124 258 -60 36 24 82 91 82 120 0 36 -38 87 -80 108 -28 13
-76 19 -230 24 -107 4 -197 9 -200 10 -3 2 31 6 75 10 326 30 534 79 825 197
203 82 265 118 351 203 63 61 85 92 123 171 65 134 97 265 98 404 1 144 -13
208 -73 332 -40 83 -63 116 -122 175 -140 142 -269 201 -437 201 -162 0 -261
-36 -390 -143 -161 -132 -374 -208 -610 -217 -122 -4 -145 -2 -233 21 -200 52
-386 150 -517 273 -104 97 -170 179 -303 373 -140 204 -220 305 -336 421 -119
118 -210 183 -371 264 -188 94 -262 111 -370 81z m265 -290 c215 -107 341
-226 530 -499 206 -297 392 -508 548 -623 153 -113 412 -211 646 -245 278 -39
684 78 888 256 79 69 125 88 228 93 75 3 100 0 148 -18 154 -58 271 -266 271
-480 0 -154 -50 -283 -146 -379 -60 -59 -124 -94 -273 -151 -357 -137 -483
-163 -840 -175 -186 -7 -814 9 -965 24 -127 13 -329 57 -395 86 -68 30 -140
96 -171 157 -45 90 -104 366 -104 492 0 149 -128 843 -190 1027 -58 175 -157
308 -273 369 -98 52 -140 97 -116 127 21 24 71 10 214 -61z"/>
<path d="M2382 2462 c-30 -5 -56 -45 -48 -77 7 -29 58 -59 86 -50 10 3 26 22
35 41 15 32 15 38 1 58 -16 25 -38 34 -74 28z"/>
<path d="M2816 2049 c-33 -26 -34 -62 -1 -94 31 -32 58 -32 84 1 28 35 27 79
-1 98 -30 21 -50 20 -82 -5z"/>
<path d="M4205 3741 c-97 -25 -182 -99 -215 -189 -18 -46 -21 -72 -18 -132 5
-86 26 -135 84 -194 51 -53 105 -76 181 -76 177 0 313 132 313 303 0 78 -22
164 -51 201 -31 40 -138 87 -205 91 -33 2 -72 1 -89 -4z m76 -274 c-1 -4 -1
-14 -1 -22 0 -19 -39 -40 -51 -28 -11 11 28 66 43 61 5 -2 9 -7 9 -11z"/>
<path d="M3477 3360 c-50 -40 -191 -292 -185 -333 4 -29 45 -49 72 -35 26 14
46 37 105 123 99 144 123 219 79 249 -29 21 -40 20 -71 -4z"/>
<path d="M476 2024 c-26 -25 -19 -62 17 -96 93 -87 184 -146 251 -162 43 -10
76 15 76 59 0 29 -7 40 -41 65 -60 43 -253 150 -272 150 -8 0 -23 -7 -31 -16z"/>
<path d="M5373 1120 c-45 -10 -57 -23 -81 -78 -56 -133 -22 -252 72 -252 81 0
136 87 136 215 0 78 -5 92 -41 110 -31 16 -38 17 -86 5z"/>
</g>
</svg>
