<?xml version="1.0" standalone="no"?>
<!DOCTYPE svg PUBLIC "-//W3C//DTD SVG 20010904//EN"
 "http://www.w3.org/TR/2001/REC-SVG-20010904/DTD/svg10.dtd">
<svg version="1.0" xmlns="http://www.w3.org/2000/svg"
 width="600.000000pt" height="600.000000pt" viewBox="0 0 600.000000 600.000000"
 preserveAspectRatio="xMidYMid meet">
<metadata>
Created by potrace 1.15, written by Peter Selinger 2001-2017
</metadata>
<g transform="translate(0.000000,600.000000) scale(0.100000,-0.100000)"
fill="#16364b" stroke="none">
<path d="M3037 5080 c-105 -32 -192 -192 -153 -283 16 -39 41 -57 81 -57 86 0
215 142 215 238 0 56 -14 80 -55 98 -38 16 -48 16 -88 4z m78 -80 c14 -44 -59
-150 -128 -186 -36 -19 -47 -11 -47 35 0 50 38 120 80 149 42 28 86 29 95 2z"/>
<path d="M4762 4716 c-17 -23 -19 -48 -24 -268 -6 -271 -1 -344 27 -364 28
-21 61 -17 92 10 l28 24 4 213 c4 273 -3 354 -35 385 -30 31 -67 31 -92 0z"/>
<path d="M1694 4465 c-90 -45 -134 -114 -134 -210 0 -70 17 -111 83 -208 52
-75 77 -147 107 -305 31 -163 49 -344 60 -592 6 -124 16 -288 21 -365 6 -77
15 -304 19 -505 7 -311 11 -378 28 -450 78 -329 287 -550 578 -609 l88 -18 -2
-129 c-4 -155 19 -285 78 -459 22 -63 40 -119 40 -123 0 -5 -37 -12 -83 -14
-95 -6 -140 -25 -162 -68 -23 -45 -19 -85 14 -122 28 -32 32 -33 103 -33 119
1 228 61 269 150 26 57 24 76 -25 226 -64 194 -79 272 -79 426 -1 73 2 135 5
138 3 3 66 0 139 -7 78 -7 285 -13 497 -13 l362 0 -7 -45 c-23 -130 9 -367 73
-551 19 -56 33 -103 31 -106 -3 -2 -50 -5 -107 -6 -101 -2 -102 -2 -131 -35
-16 -18 -29 -41 -29 -53 0 -34 29 -78 63 -96 43 -23 156 -22 225 1 131 44 171
133 122 271 -40 112 -60 190 -80 310 -22 135 -25 211 -9 283 l10 50 62 6 c187
21 501 103 627 163 58 28 93 55 160 122 94 95 138 163 178 273 24 64 27 87 26
193 -1 100 -5 135 -28 210 -52 171 -141 295 -252 349 -37 18 -133 42 -306 77
-313 62 -385 80 -518 129 -58 21 -159 57 -225 80 -287 101 -475 208 -642 367
-112 108 -178 194 -400 523 -106 157 -241 345 -300 418 -59 73 -124 154 -143
179 -67 89 -133 153 -183 178 -70 34 -154 35 -223 0z m192 -170 c20 -15 48
-46 63 -68 14 -22 50 -65 79 -96 82 -86 201 -249 410 -561 216 -323 286 -414
404 -525 188 -177 352 -266 773 -419 223 -81 325 -111 535 -156 413 -88 439
-98 501 -183 80 -107 124 -254 116 -386 -4 -72 -11 -95 -46 -166 -47 -96 -128
-178 -220 -225 -69 -34 -313 -102 -471 -130 -270 -47 -788 -72 -1045 -51 -77
7 -215 16 -307 21 -249 14 -335 42 -450 148 -99 92 -162 216 -200 397 -17 82
-22 156 -29 420 -4 176 -13 356 -18 400 -5 44 -10 139 -11 210 -1 328 -38 719
-86 911 -32 131 -64 209 -120 294 -59 88 -67 138 -29 175 23 24 32 27 71 22
27 -3 58 -15 80 -32z"/>
<path d="M2520 2613 c-45 -16 -51 -64 -14 -98 48 -45 104 -22 104 43 0 46 -43
72 -90 55z"/>
<path d="M2990 2363 c-23 -8 -40 -34 -40 -59 0 -27 44 -64 76 -64 42 0 74 81
41 108 -16 14 -58 22 -77 15z"/>
<path d="M5218 3977 c-105 -30 -167 -100 -187 -211 -30 -164 56 -344 198 -413
49 -25 67 -28 146 -27 111 1 163 22 239 94 73 69 100 132 101 230 0 131 -56
214 -198 294 -62 34 -76 38 -160 42 -59 3 -109 -1 -139 -9z m160 -300 c31 -12
32 -13 17 -35 -21 -29 -51 -28 -71 4 -15 22 -15 27 -3 35 17 10 16 11 57 -4z"/>
<path d="M4223 3759 c-127 -24 -238 -149 -258 -290 -16 -112 59 -242 166 -289
43 -18 66 -21 128 -18 176 8 300 126 301 283 0 84 -36 190 -79 233 -63 64
-172 98 -258 81z m57 -324 c-16 -19 -50 -20 -50 0 0 8 10 25 22 37 l22 22 9
-22 c7 -15 6 -26 -3 -37z"/>
<path d="M5375 1113 c-31 -8 -46 -24 -71 -78 -53 -112 -14 -235 72 -235 34 0
82 33 103 70 27 48 39 157 22 198 -18 44 -64 60 -126 45z"/>
</g>
</svg>
