<?xml version="1.0" standalone="no"?>
<!DOCTYPE svg PUBLIC "-//W3C//DTD SVG 20010904//EN"
 "http://www.w3.org/TR/2001/REC-SVG-20010904/DTD/svg10.dtd">
<svg version="1.0" xmlns="http://www.w3.org/2000/svg"
 width="600.000000pt" height="600.000000pt" viewBox="0 0 600.000000 600.000000"
 preserveAspectRatio="xMidYMid meet">
<metadata>
Created by potrace 1.15, written by Peter Selinger 2001-2017
</metadata>
<g transform="translate(0.000000,600.000000) scale(0.100000,-0.100000)"
fill="#16364b" stroke="none">
<path d="M2005 4981 c-86 -21 -178 -101 -218 -189 -24 -53 -28 -167 -9 -237
12 -42 41 -382 68 -805 18 -284 22 -679 10 -992 l-8 -207 -72 -108 c-39 -60
-114 -185 -166 -277 -52 -92 -105 -179 -117 -192 -13 -14 -23 -34 -23 -45 0
-10 -7 -19 -15 -19 -24 0 -30 -28 -11 -49 12 -13 14 -21 7 -26 -6 -3 -11 -15
-11 -27 0 -17 4 -20 30 -14 28 5 30 4 24 -18 -3 -14 -1 -27 7 -32 14 -8 109
90 109 114 0 18 232 402 240 397 4 -2 10 -51 13 -107 25 -412 154 -692 377
-820 54 -31 188 -74 259 -84 l51 -7 0 -150 c0 -171 24 -315 84 -497 l35 -105
-22 -7 c-12 -3 -44 -6 -72 -7 -74 -2 -121 -18 -149 -52 -53 -62 -17 -149 68
-164 83 -16 240 37 295 100 59 68 59 107 1 265 -56 149 -81 279 -86 440 -3 87
-1 151 5 159 8 12 18 13 63 3 104 -23 328 -34 628 -30 267 3 304 1 301 -12 -3
-8 -6 -66 -9 -128 -5 -124 12 -249 55 -417 14 -55 28 -114 30 -131 l5 -32 -90
2 c-77 1 -94 -2 -119 -20 -58 -44 -48 -135 21 -171 75 -40 221 -10 295 60 69
66 75 119 32 271 -67 231 -93 425 -69 526 l13 54 110 14 c181 22 390 67 453
98 86 43 199 161 245 255 66 138 82 213 82 389 0 131 -4 169 -24 245 -41 159
-124 301 -237 404 -37 33 -62 61 -57 61 6 0 54 -13 106 -29 53 -17 112 -33
132 -37 20 -3 45 -15 55 -26 17 -18 23 -19 91 -8 40 6 75 13 78 16 3 3 0 13
-7 24 -6 10 -8 22 -3 25 5 2 9 21 9 40 0 30 -3 35 -23 35 -36 0 -85 21 -85 36
0 16 -26 19 -35 4 -7 -12 -6 -12 -240 52 -248 69 -276 76 -389 93 -112 17 -93
8 -435 225 -522 332 -631 408 -732 509 -114 114 -177 208 -269 396 -67 137
-200 444 -286 659 -56 140 -82 184 -144 239 -74 67 -162 90 -255 68z m150
-175 c38 -30 81 -107 105 -192 11 -36 23 -71 28 -77 5 -7 54 -118 110 -247
170 -399 232 -521 327 -648 99 -132 194 -211 490 -409 343 -230 637 -412 854
-530 245 -133 344 -214 419 -341 86 -148 107 -229 107 -422 0 -133 -2 -152
-28 -226 -47 -136 -113 -221 -211 -269 -32 -15 -123 -38 -246 -62 l-195 -37
-495 -1 c-415 0 -514 3 -610 17 -63 9 -146 20 -184 23 -151 13 -301 67 -382
139 -109 94 -175 255 -208 502 -28 209 -30 263 -30 1014 -1 695 -3 773 -23
985 -12 127 -25 273 -28 325 -4 52 -13 140 -21 194 -8 55 -14 118 -14 140 0
124 138 196 235 122z m-625 -2946 c0 -5 -2 -10 -4 -10 -3 0 -8 5 -11 10 -3 6
-1 10 4 10 6 0 11 -4 11 -10z"/>
<path d="M2620 2710 c-11 -11 -20 -29 -20 -39 0 -23 54 -71 80 -71 23 0 60 46
60 75 0 51 -80 75 -120 35z"/>
<path d="M3070 2587 c-38 -19 -39 -68 -4 -96 35 -27 61 -24 87 11 25 33 17 70
-18 86 -32 15 -34 15 -65 -1z"/>
<path d="M5262 3975 c-211 -46 -325 -264 -236 -451 29 -61 101 -131 169 -165
58 -28 71 -31 142 -28 98 5 176 41 248 113 60 62 93 126 108 211 9 54 8 73 -6
118 -24 77 -85 142 -171 183 -80 39 -142 43 -254 19z m125 -309 c10 -10 -29
-46 -48 -46 -18 0 -39 27 -39 51 0 12 75 8 87 -5z"/>
<path d="M5308 1100 c-33 -25 -62 -118 -56 -175 10 -89 81 -141 152 -111 57
24 82 93 77 214 -2 52 -48 92 -104 92 -29 0 -53 -7 -69 -20z"/>
</g>
</svg>
