<?xml version="1.0" standalone="no"?>
<!DOCTYPE svg PUBLIC "-//W3C//DTD SVG 20010904//EN"
 "http://www.w3.org/TR/2001/REC-SVG-20010904/DTD/svg10.dtd">
<svg version="1.0" xmlns="http://www.w3.org/2000/svg"
 width="600.000000pt" height="600.000000pt" viewBox="0 0 600.000000 600.000000"
 preserveAspectRatio="xMidYMid meet">
<metadata>
Created by potrace 1.15, written by Peter Selinger 2001-2017
</metadata>
<g transform="translate(0.000000,600.000000) scale(0.100000,-0.100000)"
fill="#16364b" stroke="none">
<path d="M1961 4929 c-118 -35 -194 -146 -195 -289 0 -41 7 -113 16 -160 10
-50 22 -186 28 -330 6 -135 17 -328 25 -430 23 -296 26 -472 17 -850 l-9 -355
-70 -150 c-74 -156 -179 -432 -190 -497 -3 -21 -10 -38 -15 -38 -6 0 -7 -10
-3 -22 4 -13 8 -36 8 -53 2 -26 6 -30 29 -28 21 1 28 -3 30 -20 2 -12 9 -22
17 -22 21 0 83 95 77 118 -2 11 0 27 5 36 5 9 27 66 48 126 21 61 46 128 56
150 l17 40 23 -155 c34 -230 79 -356 171 -486 61 -86 133 -148 228 -194 75
-37 237 -90 275 -90 14 0 16 -19 16 -172 0 -195 14 -283 72 -461 19 -60 32
-111 29 -114 -3 -3 -43 -9 -89 -13 -90 -9 -136 -26 -161 -62 -39 -55 -2 -130
69 -144 103 -19 255 36 308 112 44 63 45 104 4 230 -72 219 -98 387 -80 519 6
42 14 79 17 82 3 3 27 0 53 -5 114 -26 692 -46 838 -29 l70 8 0 -133 c1 -141
19 -240 84 -467 16 -53 25 -100 21 -104 -4 -4 -44 -10 -88 -12 -93 -5 -135
-22 -157 -65 -44 -84 19 -153 140 -153 106 0 198 45 240 117 40 70 40 97 -4
243 -77 256 -101 413 -81 531 10 59 15 71 33 76 12 3 114 17 227 31 263 33
303 41 373 77 173 87 285 293 312 573 9 91 -15 233 -56 331 -35 84 -103 185
-186 274 l-58 63 35 -8 c69 -15 125 -37 140 -56 14 -18 23 -19 95 -12 79 8 80
9 77 35 -1 15 2 29 8 33 5 3 10 19 10 34 0 24 -6 30 -40 40 -22 6 -49 21 -59
33 -12 12 -26 18 -36 14 -8 -3 -113 23 -233 59 -350 103 -445 141 -558 218
-44 31 -141 85 -215 121 -361 176 -536 284 -678 420 -69 66 -196 225 -276 346
-73 111 -119 197 -199 375 -33 72 -89 191 -126 265 -36 74 -76 162 -88 195
-70 188 -238 297 -391 254z m150 -172 c46 -31 93 -103 119 -184 13 -38 28 -75
36 -83 7 -8 60 -125 119 -260 58 -135 126 -279 150 -321 82 -142 251 -371 365
-493 136 -146 359 -295 686 -456 145 -72 258 -134 285 -158 70 -61 287 -214
408 -286 118 -71 191 -141 262 -250 72 -109 108 -277 89 -407 -29 -200 -105
-336 -220 -393 -60 -31 -66 -32 -280 -56 -102 -11 -275 -35 -385 -52 -184 -29
-218 -32 -415 -31 -465 4 -806 51 -980 135 -176 86 -278 268 -327 588 -15 102
-17 200 -18 885 0 424 -3 775 -7 780 -3 6 -11 105 -17 220 -19 340 -31 484
-53 589 -25 126 -19 177 27 223 27 27 40 33 78 33 29 0 55 -8 78 -23z m-461
-2961 c0 -3 -4 -8 -10 -11 -5 -3 -10 -1 -10 4 0 6 5 11 10 11 6 0 10 -2 10 -4z"/>
<path d="M2600 2720 c-20 -20 -25 -47 -12 -66 11 -16 55 -44 69 -44 23 0 53
39 53 69 0 55 -70 81 -110 41z"/>
<path d="M3046 2564 c-31 -31 -11 -85 42 -113 42 -23 90 35 71 86 -15 41 -83
58 -113 27z"/>
<path d="M5270 3976 c-25 -7 -56 -18 -69 -25 -45 -25 -113 -95 -139 -146 -23
-43 -27 -62 -26 -132 0 -74 4 -90 37 -157 76 -153 199 -213 352 -172 111 29
200 97 250 188 39 71 42 180 6 248 -39 75 -67 106 -143 156 -69 46 -77 49
-148 51 -41 1 -95 -4 -120 -11z m109 -297 c36 -13 37 -16 14 -41 -23 -26 -48
-22 -62 9 -10 21 -9 28 1 34 7 5 13 9 14 9 1 0 15 -5 33 -11z"/>
<path d="M5342 1094 c-54 -37 -89 -178 -62 -244 13 -33 55 -60 90 -60 72 0
124 81 125 197 0 62 -3 75 -24 97 -29 31 -93 36 -129 10z"/>
</g>
</svg>
