<?xml version="1.0" standalone="no"?>
<!DOCTYPE svg PUBLIC "-//W3C//DTD SVG 20010904//EN"
 "http://www.w3.org/TR/2001/REC-SVG-20010904/DTD/svg10.dtd">
<svg version="1.0" xmlns="http://www.w3.org/2000/svg"
 width="600.000000pt" height="600.000000pt" viewBox="0 0 600.000000 600.000000"
 preserveAspectRatio="xMidYMid meet">
<metadata>
Created by potrace 1.15, written by Peter Selinger 2001-2017
</metadata>
<g transform="translate(0.000000,600.000000) scale(0.100000,-0.100000)"
fill="#16364b" stroke="none">
<path d="M3041 5520 c-18 -4 -47 -21 -63 -38 -59 -58 -45 -157 32 -225 75 -67
107 -209 76 -340 -20 -84 -20 -120 -2 -155 49 -93 156 -116 232 -50 74 65 107
302 65 467 -55 218 -209 372 -340 341z"/>
<path d="M2053 5439 c-115 -24 -155 -157 -88 -294 30 -62 69 -94 170 -141 41
-19 82 -45 90 -57 8 -13 24 -90 35 -178 11 -85 25 -168 31 -186 12 -37 68 -90
104 -99 67 -17 141 26 169 97 15 37 16 56 6 163 -21 230 -28 267 -65 343 -43
87 -91 131 -189 172 -60 25 -72 34 -77 58 -18 87 -99 141 -186 122z"/>
<path d="M1413 4780 c-49 -11 -81 -36 -103 -80 -26 -51 -25 -95 3 -145 42 -74
69 -82 316 -88 218 -5 262 -12 356 -52 137 -59 252 77 183 215 -42 82 -174
130 -413 150 -138 11 -295 11 -342 0z"/>
<path d="M4320 4664 c-44 -28 -64 -64 -63 -116 1 -56 16 -82 89 -156 86 -88
124 -190 149 -402 10 -84 66 -140 140 -140 38 0 100 35 125 70 29 41 35 87 21
178 -28 176 -90 320 -195 451 -82 101 -125 131 -190 131 -29 0 -62 -7 -76 -16z"/>
<path d="M3187 4475 c-16 -8 -63 -45 -105 -83 -89 -79 -171 -145 -369 -297
-147 -112 -173 -144 -173 -211 0 -95 98 -166 182 -131 36 15 285 200 393 291
144 122 244 218 260 252 54 114 -76 238 -188 179z"/>
<path d="M1660 4338 c-62 -33 -85 -68 -85 -133 0 -96 47 -135 202 -165 165
-32 365 -45 479 -31 109 13 147 30 182 82 32 45 26 113 -12 163 -44 58 -54 61
-246 62 -125 1 -212 7 -307 23 -162 26 -159 26 -213 -1z"/>
<path d="M3765 3966 c-27 -12 -106 -61 -175 -108 -276 -186 -412 -263 -553
-313 -56 -20 -86 -37 -108 -63 -28 -32 -31 -40 -27 -89 5 -60 38 -105 95 -129
81 -35 124 -19 540 199 238 124 407 236 434 287 43 80 14 185 -61 222 -47 24
-85 22 -145 -6z"/>
<path d="M2255 3794 c-129 -35 -243 -47 -403 -40 -86 4 -169 7 -184 7 -126 0
-174 -204 -66 -284 37 -27 99 -36 268 -36 166 0 243 8 408 45 131 29 167 46
199 92 49 73 31 182 -36 216 -36 19 -116 19 -186 0z"/>
<path d="M5005 3638 c-119 -61 -160 -155 -130 -293 24 -104 16 -197 -23 -299
-52 -132 -233 -423 -355 -570 -82 -99 -97 -129 -97 -200 0 -127 94 -216 227
-216 93 0 145 30 239 141 104 122 153 188 244 328 154 239 229 417 252 595 11
84 10 114 -5 215 -20 140 -38 195 -77 243 -62 75 -189 101 -275 56z"/>
<path d="M1970 3142 c-76 -38 -101 -128 -57 -207 41 -74 199 -134 432 -165 50
-7 102 -19 117 -26 43 -22 119 -18 159 9 75 50 99 134 60 207 -38 72 -113 102
-313 125 -80 10 -160 26 -217 45 -103 35 -133 37 -181 12z"/>
<path d="M4403 3128 c-17 -6 -64 -40 -105 -76 -229 -203 -496 -314 -820 -340
-90 -8 -114 -13 -146 -35 -104 -68 -94 -207 18 -265 40 -21 54 -23 130 -17
371 27 752 182 1013 413 114 101 141 169 99 252 -30 59 -119 92 -189 68z"/>
<path d="M1452 2960 c-48 -11 -98 -49 -124 -95 -21 -37 -23 -54 -26 -215 -4
-202 7 -320 48 -480 38 -151 72 -244 131 -360 93 -181 150 -235 250 -235 104
0 179 78 179 185 0 55 -13 86 -66 160 -107 149 -167 411 -166 724 1 180 -6
216 -51 264 -42 46 -113 67 -175 52z"/>
<path d="M2095 2362 c-35 -12 -79 -43 -100 -70 -15 -21 -20 -43 -20 -94 0 -57
4 -70 25 -93 37 -41 80 -55 167 -55 102 0 147 -13 210 -61 81 -63 164 -65 227
-6 104 98 48 240 -127 322 -106 50 -309 80 -382 57z"/>
<path d="M4105 2080 c-232 -70 -353 -101 -583 -149 -247 -52 -525 -101 -572
-101 -49 0 -130 -50 -161 -98 -73 -116 2 -267 139 -279 71 -7 470 52 697 102
110 25 286 69 390 99 105 29 206 57 225 61 121 26 192 120 175 234 -13 91 -72
148 -162 156 -35 4 -75 -3 -148 -25z"/>
<path d="M4822 1709 c-20 -6 -70 -45 -125 -98 -151 -143 -268 -200 -653 -316
-223 -68 -411 -133 -476 -166 -110 -56 -134 -204 -46 -286 31 -29 90 -53 131
-53 18 0 73 14 123 30 49 17 217 64 374 105 383 99 487 139 649 247 94 64 231
200 259 259 78 161 -64 327 -236 278z"/>
<path d="M2100 1559 c-59 -24 -92 -79 -92 -151 0 -40 7 -59 42 -113 110 -169
270 -272 526 -338 78 -20 82 -20 127 -3 54 21 87 60 94 116 7 53 -2 83 -37
124 -25 28 -43 37 -103 50 -145 33 -264 105 -353 217 -30 38 -66 76 -79 85
-31 20 -93 27 -125 13z"/>
<path d="M2066 950 c-87 -28 -156 -120 -156 -209 0 -47 39 -108 88 -140 126
-80 421 -204 603 -252 177 -47 355 -26 604 72 88 34 111 48 144 86 63 71 68
154 13 222 -66 82 -153 98 -293 53 -192 -61 -306 -65 -461 -16 -94 30 -307
121 -373 159 -47 28 -124 40 -169 25z"/>
</g>
</svg>
