<?xml version="1.0" standalone="no"?>
<!DOCTYPE svg PUBLIC "-//W3C//DTD SVG 20010904//EN"
 "http://www.w3.org/TR/2001/REC-SVG-20010904/DTD/svg10.dtd">
<svg version="1.0" xmlns="http://www.w3.org/2000/svg"
 width="600.000000pt" height="600.000000pt" viewBox="0 0 600.000000 600.000000"
 preserveAspectRatio="xMidYMid meet">
<metadata>
Created by potrace 1.15, written by Peter Selinger 2001-2017
</metadata>
<g transform="translate(0.000000,600.000000) scale(0.100000,-0.100000)"
fill="#16364b" stroke="none">
<path d="M2370 5400 c-18 -18 -20 -33 -20 -142 0 -151 -16 -341 -36 -428 -32
-145 -113 -251 -237 -313 -91 -45 -120 -99 -77 -144 32 -35 56 -37 114 -10
134 62 251 169 305 280 53 108 74 245 87 559 l7 166 -26 26 c-33 33 -88 35
-117 6z"/>
<path d="M3521 5273 c-44 -55 -35 -104 39 -213 69 -101 174 -171 234 -156 77
19 88 118 26 217 -78 122 -153 179 -234 179 -36 0 -48 -5 -65 -27z"/>
<path d="M2982 5104 c-154 -76 -214 -286 -109 -383 82 -75 257 6 322 150 49
110 32 199 -47 240 -51 26 -104 24 -166 -7z m63 -171 c-24 -59 -86 -103 -64
-45 11 28 57 82 71 82 5 0 1 -17 -7 -37z"/>
<path d="M4764 4755 c-41 -28 -47 -63 -42 -258 4 -149 9 -194 27 -248 39 -124
101 -181 193 -181 203 0 218 321 28 576 -70 95 -107 126 -148 126 -21 0 -47
-7 -58 -15z"/>
<path d="M2645 4207 c-68 -31 -111 -116 -96 -192 10 -54 23 -75 69 -117 86
-78 239 -101 353 -55 67 28 143 81 166 116 10 15 17 46 17 74 0 71 -31 96
-174 142 -133 43 -280 57 -335 32z"/>
<path d="M1124 4122 c-34 -22 -74 -111 -74 -166 0 -132 95 -237 215 -238 120
-1 195 63 195 169 0 77 -73 162 -183 214 -86 40 -116 44 -153 21z"/>
<path d="M5204 3932 c-74 -26 -128 -74 -161 -140 -25 -51 -28 -67 -28 -162 0
-92 3 -112 26 -160 54 -116 127 -170 240 -178 155 -11 327 85 390 217 12 26
24 74 27 112 8 111 -42 192 -172 277 l-70 47 -101 3 c-77 2 -112 -2 -151 -16z
m172 -282 c26 -10 26 -11 9 -30 -24 -26 -62 -26 -70 0 -12 38 10 49 61 30z"/>
<path d="M4210 3762 c-73 -28 -102 -47 -158 -106 -188 -199 -125 -434 132
-486 106 -22 209 12 283 93 83 90 118 196 112 336 -4 78 -6 84 -36 111 -68 61
-237 87 -333 52z m90 -276 c0 -21 -28 -46 -51 -46 -16 0 -18 3 -9 20 18 33 60
51 60 26z"/>
<path d="M3463 3393 c-33 -6 -69 -54 -117 -157 -72 -150 -80 -179 -64 -212 19
-41 61 -59 98 -44 77 32 180 202 188 310 4 53 2 58 -28 83 -32 27 -36 28 -77
20z"/>
<path d="M1155 3270 c-223 -51 -360 -143 -433 -289 -34 -69 -37 -82 -37 -161
0 -79 3 -92 37 -162 66 -133 208 -256 345 -298 35 -11 101 -22 146 -26 134
-10 194 -31 249 -85 80 -80 119 -176 213 -519 83 -304 202 -458 428 -551 135
-56 222 -69 562 -80 329 -11 987 -4 1220 12 140 10 296 36 383 65 139 47 465
244 586 354 152 139 233 322 255 571 32 370 -100 614 -419 774 -133 67 -236
95 -370 102 -135 6 -224 -5 -344 -46 -106 -35 -176 -77 -276 -163 -111 -95
-166 -136 -224 -165 -46 -23 -63 -26 -161 -26 -97 0 -121 4 -210 33 -196 64
-405 180 -715 399 -154 107 -306 188 -405 215 -33 9 -155 27 -270 41 -254 30
-441 32 -560 5z m455 -405 c359 -32 405 -50 701 -262 217 -155 293 -203 394
-253 193 -93 357 -140 540 -155 179 -14 357 42 530 168 236 173 360 233 501
244 91 7 186 -20 272 -78 134 -89 178 -176 176 -354 -1 -142 -34 -254 -101
-342 -44 -57 -260 -191 -400 -247 -188 -75 -295 -89 -793 -107 -256 -9 -356
-9 -470 1 -80 7 -251 16 -380 20 -233 8 -280 14 -351 50 -93 48 -135 125 -213
399 -84 291 -160 445 -271 555 -118 115 -347 214 -500 216 -84 1 -165 40 -165
79 0 27 53 51 137 61 175 22 201 22 393 5z"/>
<path d="M480 2089 c-32 -12 -59 -48 -60 -76 0 -12 10 -34 23 -50 13 -15 36
-50 52 -78 104 -180 303 -258 360 -140 19 42 19 51 -4 100 -24 53 -80 108
-160 160 -123 79 -173 99 -211 84z"/>
<path d="M5235 1172 c-65 -36 -95 -86 -95 -165 0 -184 186 -233 235 -63 9 29
16 87 18 130 2 74 1 79 -26 102 -36 31 -70 30 -132 -4z"/>
</g>
</svg>
