<?xml version="1.0" standalone="no"?>
<!DOCTYPE svg PUBLIC "-//W3C//DTD SVG 20010904//EN"
 "http://www.w3.org/TR/2001/REC-SVG-20010904/DTD/svg10.dtd">
<svg version="1.0" xmlns="http://www.w3.org/2000/svg"
 width="600.000000pt" height="600.000000pt" viewBox="0 0 600.000000 600.000000"
 preserveAspectRatio="xMidYMid meet">
<metadata>
Created by potrace 1.15, written by Peter Selinger 2001-2017
</metadata>
<g transform="translate(0.000000,600.000000) scale(0.100000,-0.100000)"
fill="#16364b" stroke="none">
<path d="M3039 5607 c-75 -50 -140 -199 -147 -335 -4 -88 -3 -96 27 -157 57
-115 138 -162 307 -175 52 -3 96 -9 99 -12 3 -2 -28 -25 -68 -51 -149 -95
-459 -365 -514 -448 -22 -34 -25 -47 -21 -101 4 -59 7 -64 54 -106 66 -60 200
-122 369 -172 77 -23 213 -64 303 -91 179 -54 232 -59 292 -29 83 42 95 158
24 222 -44 38 -306 130 -596 208 -27 7 -48 18 -48 24 0 14 161 150 273 229 48
34 143 93 212 131 135 75 187 120 205 183 34 113 -75 230 -257 277 -33 9 -128
20 -213 25 -84 6 -158 15 -163 20 -12 12 10 77 55 160 33 63 35 104 8 149 -43
71 -135 93 -201 49z"/>
<path d="M1465 5384 c-156 -84 -361 -313 -455 -509 -21 -44 -62 -153 -90 -243
-44 -137 -52 -173 -48 -218 4 -45 11 -61 37 -88 19 -19 52 -39 76 -46 49 -14
61 -11 250 57 110 40 212 67 293 78 42 5 43 4 37 -17 -9 -30 -84 -179 -124
-246 -94 -159 -131 -263 -147 -412 -7 -56 23 -106 80 -134 34 -17 45 -17 90
-7 79 18 527 243 574 288 118 113 36 286 -124 260 -19 -3 -62 -22 -95 -42 -33
-21 -63 -35 -66 -32 -3 3 11 33 31 66 146 240 154 399 24 516 -70 63 -129 80
-258 78 -61 -1 -141 -10 -190 -22 -47 -10 -87 -18 -88 -16 -6 6 74 138 122
201 58 78 159 176 221 217 71 46 98 90 92 150 -11 121 -131 181 -242 121z"/>
<path d="M4591 4489 c-68 -13 -184 -55 -301 -107 -112 -51 -141 -78 -154 -148
-10 -48 26 -121 72 -148 55 -31 95 -25 243 37 75 31 141 57 147 57 34 0 -125
-289 -272 -494 -31 -43 -59 -89 -62 -102 -11 -42 5 -92 40 -126 108 -105 103
-102 276 -157 237 -74 310 -101 310 -115 0 -6 -41 -76 -91 -156 -149 -236
-198 -322 -205 -355 -6 -36 16 -98 48 -132 45 -48 132 -49 192 -2 40 32 204
287 275 426 82 164 100 277 57 368 -50 108 -101 134 -508 259 l-37 11 77 115
c138 206 217 388 229 525 5 64 3 79 -19 127 -14 30 -38 64 -54 75 -67 47 -160
62 -263 42z"/>
<path d="M3766 3676 c-107 -65 -114 -194 -15 -295 41 -41 66 -51 129 -51 67 0
77 -19 51 -97 -18 -54 -22 -59 -58 -67 -240 -53 -416 -154 -473 -272 -61 -124
67 -262 197 -213 15 5 55 38 88 73 72 74 107 87 215 80 65 -5 81 -3 120 18 52
27 90 84 90 139 0 27 8 43 34 68 19 18 47 61 63 95 25 54 28 72 28 161 0 92
-2 104 -29 153 -39 70 -138 161 -217 201 -81 40 -164 43 -223 7z"/>
<path d="M2410 3601 c-93 -28 -247 -109 -296 -156 -28 -26 -45 -52 -49 -76
-15 -81 38 -168 115 -189 49 -13 77 -6 165 41 84 45 171 71 222 67 37 -3 38
-4 41 -47 2 -24 -6 -73 -17 -112 -25 -81 -119 -304 -190 -448 -70 -142 -69
-165 12 -301 39 -65 92 -100 154 -100 28 0 78 16 155 49 125 55 279 103 291
92 9 -9 -60 -183 -122 -310 -60 -125 -57 -191 14 -269 75 -83 198 -74 268 20
26 35 131 257 177 373 101 254 67 446 -95 540 -90 51 -222 57 -390 16 -44 -11
-81 -18 -83 -16 -2 2 16 48 41 102 66 144 88 224 94 335 5 84 2 108 -17 169
-30 93 -93 164 -182 204 -83 38 -210 44 -308 16z"/>
<path d="M1122 3361 c-106 -27 -318 -177 -358 -253 -21 -41 -17 -116 9 -163
44 -77 151 -109 240 -72 27 12 37 13 37 4 0 -7 -22 -134 -49 -282 -66 -360
-74 -422 -69 -583 3 -125 5 -140 28 -173 33 -50 76 -77 139 -89 115 -22 167
-8 208 53 106 162 173 261 212 312 25 33 105 147 176 254 72 107 135 196 141
198 6 2 17 -14 24 -36 22 -69 -3 -270 -76 -606 -32 -148 -37 -188 -38 -310 -1
-113 3 -149 17 -187 20 -52 91 -124 132 -134 39 -10 105 2 134 24 70 51 88
125 50 197 -19 35 -21 50 -15 127 3 48 31 212 61 365 68 335 83 468 67 585
-40 291 -62 358 -140 413 -39 26 -52 30 -110 29 -88 -1 -129 -23 -231 -123
-61 -61 -114 -131 -217 -287 -74 -113 -138 -204 -140 -201 -3 3 2 31 10 63 8
33 34 154 57 269 52 259 57 372 21 450 -28 60 -73 110 -127 137 -44 23 -140
32 -193 19z"/>
<path d="M4730 2251 c-100 -32 -186 -116 -205 -199 -3 -17 -10 -32 -13 -32 -4
0 -50 7 -102 16 -129 23 -297 23 -380 1 -93 -25 -202 -81 -253 -131 -87 -84
-117 -181 -117 -380 l0 -129 -53 50 c-138 130 -284 171 -438 123 -170 -53
-304 -189 -417 -422 -31 -64 -59 -117 -62 -117 -3 -1 -17 74 -33 167 -66 403
-126 527 -263 548 -86 13 -176 -45 -204 -131 -14 -43 -7 -115 14 -148 28 -43
66 -204 91 -392 15 -104 33 -218 40 -252 21 -89 66 -184 114 -236 143 -155
469 -135 496 31 10 56 41 132 121 297 69 142 123 223 179 267 34 26 45 19 192
-122 153 -148 202 -175 318 -175 64 0 90 5 128 24 77 38 142 108 186 203 45
97 61 187 61 348 0 98 2 110 19 120 28 14 140 12 255 -5 206 -31 330 -13 438
65 194 139 226 478 55 584 -50 31 -121 42 -167 27z"/>
</g>
</svg>
