<?xml version="1.0" standalone="no"?>
<!DOCTYPE svg PUBLIC "-//W3C//DTD SVG 20010904//EN"
 "http://www.w3.org/TR/2001/REC-SVG-20010904/DTD/svg10.dtd">
<svg version="1.0" xmlns="http://www.w3.org/2000/svg"
 width="600.000000pt" height="600.000000pt" viewBox="0 0 600.000000 600.000000"
 preserveAspectRatio="xMidYMid meet">
<metadata>
Created by potrace 1.15, written by Peter Selinger 2001-2017
</metadata>
<g transform="translate(0.000000,600.000000) scale(0.100000,-0.100000)"
fill="#16364b" stroke="none">
<path d="M3070 5637 c-78 -41 -101 -135 -50 -206 10 -16 99 -79 197 -142 265
-170 333 -234 333 -317 0 -58 -77 -148 -195 -226 -48 -32 -226 -126 -239 -126
-3 0 -6 11 -6 24 0 12 -10 38 -22 56 -63 91 -128 96 -282 22 -172 -85 -267
-194 -282 -328 -19 -159 125 -301 317 -312 73 -4 77 -3 112 27 94 83 60 222
-63 251 -28 7 -50 16 -50 21 0 17 47 52 115 85 84 41 95 42 95 7 0 -35 29 -79
66 -104 51 -33 113 -25 217 27 270 136 430 293 492 483 27 82 18 218 -20 294
-54 108 -183 226 -400 364 -200 127 -254 143 -335 100z"/>
<path d="M1974 5521 c-17 -10 -42 -34 -55 -53 -13 -18 -79 -91 -146 -161 -212
-219 -286 -337 -287 -454 -1 -52 3 -67 29 -104 43 -61 92 -83 193 -88 107 -4
210 11 402 59 192 49 209 54 247 74 98 50 101 212 5 269 -43 24 -86 21 -183
-14 -80 -29 -260 -81 -265 -76 -1 1 36 43 83 92 202 214 243 309 181 413 -11
18 -33 39 -48 47 -41 21 -118 19 -156 -4z"/>
<path d="M1019 5313 c-91 -46 -200 -151 -247 -240 -63 -120 -88 -286 -61 -415
27 -127 136 -291 216 -325 52 -21 113 -17 156 12 47 32 67 72 67 130 0 54 -10
75 -57 129 -52 57 -73 110 -73 186 0 115 51 187 181 255 45 23 77 48 90 68 43
71 10 172 -70 214 -64 34 -114 30 -202 -14z"/>
<path d="M4639 4806 c-48 -33 -73 -86 -65 -140 8 -51 8 -68 0 -129 -9 -67 30
-141 121 -233 97 -98 144 -119 265 -119 81 0 102 4 144 25 88 45 135 125 136
228 0 155 -127 278 -377 362 -114 38 -175 39 -224 6z"/>
<path d="M1790 4344 c-92 -24 -161 -65 -237 -140 -89 -87 -118 -145 -108 -212
5 -35 16 -56 44 -83 71 -71 157 -63 238 22 26 27 71 61 100 76 47 22 60 25
116 18 34 -4 90 -8 124 -9 60 -1 65 1 99 36 46 45 57 113 28 173 -49 104 -244
162 -404 119z"/>
<path d="M2665 3789 c-110 -16 -276 -70 -312 -102 -39 -34 -58 -91 -49 -141 9
-49 59 -103 107 -117 35 -11 50 -9 142 19 56 17 129 35 161 38 l59 7 -7 -33
c-18 -91 -144 -326 -254 -472 -30 -40 -92 -111 -137 -158 -103 -107 -115 -125
-115 -176 0 -86 94 -163 182 -149 37 6 54 18 124 90 45 46 126 143 181 217
252 335 333 501 333 680 0 169 -81 267 -245 297 -66 12 -84 12 -170 0z"/>
<path d="M4220 3769 c-151 -12 -257 -62 -310 -146 -45 -70 -55 -116 -42 -192
27 -160 178 -271 351 -259 89 7 154 41 224 119 65 72 137 208 137 260 0 57
-38 156 -71 183 -42 35 -141 47 -289 35z m-10 -299 c-19 -13 -30 -13 -30 0 0
6 10 10 23 10 18 0 19 -2 7 -10z"/>
<path d="M1208 3640 c-114 -20 -332 -116 -386 -171 -40 -41 -66 -122 -56 -174
20 -108 134 -178 234 -142 24 9 46 15 47 13 4 -3 -57 -162 -146 -386 -83 -205
-171 -490 -171 -549 0 -65 54 -141 120 -169 46 -19 147 -33 187 -26 23 4 56
31 121 98 108 109 334 361 490 544 63 72 116 132 118 132 22 0 -85 -559 -156
-819 -97 -358 -96 -351 -76 -393 31 -66 111 -97 192 -77 61 16 99 56 114 121
7 29 41 148 75 263 74 248 85 305 126 615 36 282 47 472 30 550 -24 111 -91
170 -194 170 -108 0 -193 -65 -402 -309 -120 -139 -161 -180 -136 -132 6 10
33 75 60 142 109 274 141 407 121 503 -21 101 -98 177 -199 196 -30 5 -56 9
-60 9 -3 -1 -27 -5 -53 -9z"/>
<path d="M3543 3304 c-97 -35 -181 -148 -217 -290 -30 -116 -14 -184 53 -230
42 -29 118 -33 174 -9 20 8 49 15 65 15 52 0 144 30 196 65 55 36 97 99 111
162 10 49 -12 137 -48 190 -48 69 -119 106 -216 110 -51 2 -90 -3 -118 -13z"/>
<path d="M4750 2849 c-105 -47 -161 -133 -168 -254 -5 -107 20 -175 91 -249
163 -166 387 -81 387 146 0 77 -15 122 -53 157 -21 19 -24 29 -20 56 7 45 -26
113 -70 143 -42 28 -106 29 -167 1z"/>
<path d="M2881 2505 c-113 -25 -214 -64 -369 -140 -189 -92 -220 -126 -220
-235 0 -112 71 -193 171 -193 45 0 68 8 143 48 143 76 347 154 358 137 7 -12
-77 -220 -152 -377 -59 -124 -72 -160 -72 -200 0 -174 192 -264 319 -150 80
72 207 349 266 581 59 230 45 369 -47 455 -60 57 -130 82 -237 85 -59 2 -120
-2 -160 -11z"/>
<path d="M4385 2380 c-73 -17 -121 -58 -154 -130 -24 -52 -26 -110 -9 -209 7
-39 10 -72 7 -75 -2 -2 -51 12 -109 32 -86 29 -124 36 -205 40 -133 5 -195
-17 -276 -97 -106 -107 -132 -244 -105 -561 18 -211 28 -245 84 -303 53 -56
104 -79 172 -79 69 0 125 26 168 78 48 58 56 103 47 289 -6 152 -5 165 10 165
10 0 60 -18 111 -40 61 -26 109 -40 136 -40 80 1 183 20 234 45 59 29 132 102
164 165 60 118 65 327 10 528 -33 126 -172 219 -285 192z"/>
<path d="M2090 1858 c-25 -13 -59 -42 -77 -66 -57 -76 -44 -163 38 -247 36
-37 42 -53 83 -210 24 -94 49 -183 55 -198 6 -16 11 -54 11 -86 0 -115 36
-192 149 -321 136 -154 205 -210 351 -288 111 -59 174 -79 273 -88 163 -14
396 70 473 171 23 31 29 50 32 104 4 61 2 70 -30 115 -43 64 -101 96 -175 96
-44 0 -69 -8 -134 -42 -98 -51 -140 -53 -234 -13 l-66 28 7 42 c7 48 -20 121
-60 165 -12 14 -36 48 -51 75 -36 63 -117 149 -166 177 -42 23 -45 32 -109
272 -38 146 -75 221 -134 273 -74 65 -158 80 -236 41z"/>
</g>
</svg>
