<?xml version="1.0" standalone="no"?>
<!DOCTYPE svg PUBLIC "-//W3C//DTD SVG 20010904//EN"
 "http://www.w3.org/TR/2001/REC-SVG-20010904/DTD/svg10.dtd">
<svg version="1.0" xmlns="http://www.w3.org/2000/svg"
 width="600.000000pt" height="600.000000pt" viewBox="0 0 600.000000 600.000000"
 preserveAspectRatio="xMidYMid meet">
<metadata>
Created by potrace 1.15, written by Peter Selinger 2001-2017
</metadata>
<g transform="translate(0.000000,600.000000) scale(0.100000,-0.100000)"
fill="#16364b" stroke="none">
<path d="M2085 5821 c-22 -10 -52 -33 -67 -52 -14 -19 -92 -101 -173 -184
-156 -158 -276 -309 -322 -403 -69 -142 -25 -279 100 -313 89 -24 192 13 597
216 299 150 320 169 307 281 -9 80 -99 146 -174 128 -15 -4 -85 -36 -155 -71
-71 -35 -128 -60 -128 -57 0 3 45 53 99 111 55 57 106 119 115 138 37 78 9
168 -64 206 -44 24 -84 24 -135 0z"/>
<path d="M3060 5678 c-103 -29 -140 -165 -66 -240 14 -13 75 -46 136 -72 208
-92 337 -189 382 -290 16 -38 22 -70 23 -128 0 -70 -2 -79 -31 -115 -28 -35
-72 -61 -195 -118 -62 -28 -92 -76 -86 -138 5 -62 32 -97 91 -122 45 -18 50
-19 110 -3 203 53 340 179 401 367 23 71 16 228 -14 322 -54 171 -217 334
-447 448 -86 42 -244 103 -263 100 -3 0 -22 -5 -41 -11z"/>
<path d="M970 5364 c-171 -47 -292 -165 -335 -329 -17 -67 -20 -218 -4 -284
28 -124 121 -240 236 -293 50 -24 73 -29 104 -25 82 11 149 81 149 156 0 55
-25 97 -85 141 -88 65 -126 143 -105 219 12 44 74 105 118 116 96 23 152 80
152 154 0 115 -103 180 -230 145z"/>
<path d="M2715 4972 c-154 -74 -210 -336 -108 -501 54 -86 168 -141 293 -141
83 0 125 14 168 53 77 73 56 190 -41 226 -16 6 -54 11 -85 11 -84 0 -102 7
-102 40 0 26 1 27 48 22 126 -12 206 109 138 208 -56 83 -219 126 -311 82z"/>
<path d="M4795 4906 c-42 -18 -93 -79 -100 -120 -10 -48 12 -272 34 -349 47
-169 161 -269 305 -269 158 0 277 121 278 282 1 175 -110 315 -336 426 -93 46
-131 52 -181 30z"/>
<path d="M1889 4596 c-115 -33 -232 -125 -245 -191 -14 -79 41 -165 120 -186
50 -13 95 -5 137 26 95 68 120 68 162 1 86 -138 287 -71 287 95 0 90 -69 176
-187 231 -76 36 -197 46 -274 24z"/>
<path d="M2893 3919 c-78 -39 -129 -115 -165 -247 -41 -151 -24 -464 30 -555
62 -107 214 -103 271 7 l24 47 -16 87 c-19 99 -22 237 -6 311 8 40 15 51 40
61 94 40 129 172 64 249 -53 62 -161 80 -242 40z"/>
<path d="M1074 3841 c-126 -33 -138 -38 -176 -78 -122 -128 -33 -323 147 -323
30 0 55 -2 55 -5 0 -16 -116 -232 -196 -366 -145 -242 -264 -511 -264 -598 0
-77 41 -138 115 -172 87 -40 157 -19 287 87 69 56 230 195 248 214 22 23 391
363 413 380 l27 21 0 -28 c0 -42 -27 -220 -45 -304 -29 -130 -55 -200 -148
-389 -232 -476 -246 -516 -199 -591 27 -44 58 -59 124 -59 73 0 127 34 172
108 42 70 51 89 226 513 80 194 91 237 172 689 5 30 8 105 6 165 -3 96 -7 117
-31 166 -42 87 -128 137 -212 123 -79 -13 -153 -62 -326 -218 -71 -64 -129
-115 -129 -112 0 3 21 40 46 83 107 180 174 334 194 442 22 122 -39 225 -157
265 -76 26 -217 20 -349 -13z"/>
<path d="M4174 3775 c-177 -38 -277 -153 -278 -317 0 -65 5 -85 32 -140 36
-73 77 -118 141 -156 42 -24 55 -27 146 -27 95 0 103 2 162 34 74 40 156 123
206 209 41 71 94 192 102 237 9 44 -31 116 -75 137 -74 35 -321 48 -436 23z
m96 -304 c0 -14 -41 -41 -62 -41 -29 0 -21 20 15 35 38 17 47 18 47 6z"/>
<path d="M3482 3400 c-76 -18 -143 -83 -185 -181 -125 -286 -44 -413 232 -369
82 14 130 39 175 92 116 136 57 396 -103 453 -47 16 -68 17 -119 5z"/>
<path d="M4919 2907 c-76 -52 -231 -232 -275 -320 -100 -196 2 -388 199 -375
201 13 357 200 357 426 0 109 -12 139 -77 210 -82 87 -139 103 -204 59z"/>
<path d="M4095 2536 c-46 -20 -93 -63 -122 -113 -40 -68 -43 -160 -9 -294 14
-58 26 -107 26 -111 0 -3 -35 8 -77 25 -103 40 -204 43 -275 8 -62 -30 -132
-108 -159 -179 -31 -79 -37 -261 -15 -391 20 -116 76 -313 105 -369 26 -51 85
-96 148 -111 122 -31 257 63 283 197 7 37 3 71 -17 165 -14 65 -22 121 -19
125 4 3 21 -8 39 -26 134 -129 387 -73 476 105 50 100 46 234 -15 494 -18 80
-43 189 -54 242 -22 111 -35 139 -82 184 -61 59 -162 80 -233 49z"/>
<path d="M2865 2186 c-93 -26 -179 -63 -350 -148 l-170 -85 -30 51 c-23 40
-42 57 -85 79 -49 25 -62 28 -118 23 -39 -3 -77 -14 -98 -26 -43 -27 -109
-103 -153 -175 -87 -144 -25 -297 132 -323 42 -7 42 -8 45 -55 3 -38 0 -48
-15 -53 -52 -15 -132 -64 -174 -106 -144 -144 -171 -436 -61 -655 107 -212
383 -415 642 -474 74 -17 236 -12 322 10 136 35 304 126 377 205 62 66 58 198
-8 267 -74 78 -170 76 -285 -5 -83 -59 -131 -82 -198 -95 -63 -11 -152 -1
-221 26 -55 21 -163 92 -204 132 -91 91 -130 243 -76 296 25 25 53 12 127 -59
82 -79 134 -106 207 -106 124 1 210 106 179 220 -8 28 -34 66 -85 121 -75 81
-124 172 -140 260 -6 35 -5 36 25 43 17 3 75 30 128 60 141 80 344 176 386
183 l35 6 -18 -64 c-27 -94 -74 -205 -158 -379 -83 -172 -90 -197 -74 -258 29
-106 143 -171 249 -143 96 26 130 84 254 419 125 342 130 358 135 458 6 104
-4 147 -49 214 -67 99 -160 142 -318 147 -70 2 -122 -2 -155 -11z"/>
</g>
</svg>
