<?xml version="1.0" standalone="no"?>
<!DOCTYPE svg PUBLIC "-//W3C//DTD SVG 20010904//EN"
 "http://www.w3.org/TR/2001/REC-SVG-20010904/DTD/svg10.dtd">
<svg version="1.0" xmlns="http://www.w3.org/2000/svg"
 width="600.000000pt" height="600.000000pt" viewBox="0 0 600.000000 600.000000"
 preserveAspectRatio="xMidYMid meet">
<metadata>
Created by potrace 1.15, written by Peter Selinger 2001-2017
</metadata>
<g transform="translate(0.000000,600.000000) scale(0.100000,-0.100000)"
fill="#16364b" stroke="none">
<path d="M2175 5446 c-70 -31 -115 -127 -115 -243 0 -169 129 -260 356 -251
52 1 94 -1 94 -6 0 -4 -25 -61 -56 -125 -122 -253 -166 -443 -118 -508 34 -46
82 -73 131 -73 84 0 121 35 147 138 26 98 81 249 134 367 62 136 72 173 72
255 -1 105 -47 186 -135 233 -36 20 -54 22 -171 20 l-131 -1 4 46 c6 65 -20
111 -77 140 -50 25 -91 27 -135 8z"/>
<path d="M3625 5354 c-128 -40 -172 -175 -84 -259 30 -30 32 -30 142 -30 109
0 112 -1 125 -25 22 -41 7 -154 -39 -287 -37 -108 -40 -121 -29 -158 24 -82
103 -128 178 -104 67 21 92 56 136 195 35 111 48 194 49 304 0 183 -55 288
-183 348 -70 33 -216 41 -295 16z"/>
<path d="M1718 4865 c-155 -29 -351 -92 -433 -138 -56 -32 -85 -79 -85 -139 0
-84 46 -143 121 -156 l43 -7 -3 -47 c-6 -102 45 -148 189 -173 193 -33 384
-77 463 -105 127 -47 204 -35 248 37 40 65 7 169 -70 217 -98 62 -264 109
-481 137 -52 6 -99 15 -103 19 -10 8 116 47 197 60 32 5 78 7 101 3 125 -17
229 130 165 234 -34 56 -62 67 -174 70 -57 1 -135 -4 -178 -12z"/>
<path d="M3195 4371 c-80 -33 -323 -139 -530 -231 -167 -74 -195 -99 -195
-173 0 -59 21 -102 63 -127 50 -31 102 -25 224 24 141 57 593 273 617 294 69
63 57 185 -23 227 -43 21 -76 19 -156 -14z"/>
<path d="M4310 4391 c-88 -11 -130 -45 -151 -122 -17 -63 7 -129 59 -164 34
-23 45 -25 166 -25 137 0 195 -11 223 -43 27 -29 24 -182 -6 -318 -28 -126
-24 -162 22 -207 62 -60 154 -48 203 26 55 82 100 391 75 512 -36 171 -158
297 -321 329 -76 14 -204 20 -270 12z"/>
<path d="M2190 3874 c-174 -56 -319 -85 -460 -92 -166 -9 -186 -17 -221 -89
-38 -79 -15 -159 61 -210 28 -19 46 -23 115 -23 162 0 312 29 533 102 173 57
221 103 209 204 -11 102 -112 148 -237 108z"/>
<path d="M3660 3771 c-63 -20 -155 -66 -254 -125 -38 -22 -134 -75 -215 -116
-170 -87 -191 -109 -191 -196 0 -47 4 -57 34 -87 42 -42 91 -52 155 -30 25 8
130 58 233 109 103 52 191 94 196 94 4 0 6 -18 4 -40 -7 -75 38 -137 118 -161
55 -17 111 1 147 45 83 105 128 318 85 402 -55 108 -177 149 -312 105z"/>
<path d="M4942 3337 c-49 -19 -99 -63 -125 -110 -19 -37 -22 -54 -20 -152 2
-60 -2 -124 -8 -142 -5 -17 -64 -89 -130 -160 -129 -138 -172 -196 -223 -301
-91 -182 -117 -405 -63 -533 66 -158 265 -199 385 -79 61 60 76 104 74 207 -2
100 18 182 62 258 14 22 75 96 138 162 62 67 128 147 146 177 75 123 105 283
83 439 -16 116 -54 177 -135 219 -48 25 -139 32 -184 15z"/>
<path d="M2020 3212 c-77 -38 -104 -141 -59 -222 38 -67 61 -74 264 -80 l179
-5 -2 -45 c-4 -69 31 -130 88 -153 39 -16 52 -17 90 -7 144 39 177 270 58 405
-80 91 -202 125 -445 125 -111 0 -145 -3 -173 -18z"/>
<path d="M4301 3174 c-19 -8 -68 -47 -110 -87 -182 -173 -372 -265 -613 -297
-119 -15 -124 -17 -168 -56 -66 -60 -73 -141 -19 -207 43 -53 94 -63 217 -43
290 46 650 220 845 409 77 76 87 163 24 234 -53 60 -111 76 -176 47z"/>
<path d="M1255 2991 c-107 -48 -136 -168 -66 -267 33 -47 50 -120 82 -339 63
-445 129 -676 210 -738 111 -83 265 -34 300 95 14 54 8 99 -26 183 -39 97 -61
212 -90 467 -27 237 -49 348 -89 432 -69 148 -207 219 -321 167z"/>
<path d="M2109 2466 c-111 -31 -291 -154 -323 -220 -49 -103 31 -236 141 -236
56 0 86 16 148 80 47 49 91 80 114 80 5 0 18 -16 30 -35 17 -30 63 -67 96 -78
5 -2 -3 -18 -18 -37 -103 -122 -139 -345 -88 -538 29 -110 71 -203 106 -230
72 -57 168 -43 214 32 29 46 26 95 -9 196 -22 64 -30 103 -30 158 0 70 4 86
56 222 12 31 15 57 10 83 -8 44 -54 99 -96 117 l-30 12 30 34 c36 41 45 72 36
126 -9 56 -48 119 -107 172 -79 71 -172 91 -280 62z"/>
<path d="M3718 2178 c-120 -12 -918 -173 -956 -192 -34 -18 -76 -68 -87 -104
-13 -44 -7 -120 14 -160 25 -49 63 -77 122 -92 47 -12 122 0 559 94 182 39
346 66 406 66 22 0 61 -11 88 -25 58 -30 106 -31 161 -6 117 54 169 187 110
287 -62 105 -213 153 -417 132z"/>
<path d="M4618 1615 c-35 -9 -64 -28 -115 -76 -81 -76 -114 -90 -283 -119
-465 -79 -670 -159 -855 -331 -63 -59 -95 -118 -95 -175 0 -20 -3 -21 -38 -13
-51 11 -97 -1 -175 -48 -90 -55 -175 -77 -270 -71 -60 4 -90 12 -160 46 -97
47 -215 138 -284 218 -55 63 -112 94 -174 94 -116 -1 -221 -110 -204 -214 8
-55 19 -73 95 -157 145 -163 340 -294 495 -333 223 -56 466 -44 610 31 125 64
185 130 195 213 l5 45 47 -3 c59 -4 113 19 194 81 169 131 323 186 634 227
173 23 262 46 345 87 140 70 275 199 294 280 33 139 -109 258 -261 218z"/>
</g>
</svg>
