<?xml version="1.0" standalone="no"?>
<!DOCTYPE svg PUBLIC "-//W3C//DTD SVG 20010904//EN"
 "http://www.w3.org/TR/2001/REC-SVG-20010904/DTD/svg10.dtd">
<svg version="1.0" xmlns="http://www.w3.org/2000/svg"
 width="600.000000pt" height="600.000000pt" viewBox="0 0 600.000000 600.000000"
 preserveAspectRatio="xMidYMid meet">
<metadata>
Created by potrace 1.15, written by Peter Selinger 2001-2017
</metadata>
<g transform="translate(0.000000,600.000000) scale(0.100000,-0.100000)"
fill="#16364b" stroke="none">
<path d="M2605 5526 c-43 -19 -59 -41 -99 -133 -94 -220 -99 -322 -18 -406 64
-67 147 -80 397 -63 l130 8 -106 -103 c-141 -138 -171 -178 -359 -474 -87
-136 -96 -163 -75 -230 19 -58 53 -101 93 -116 16 -6 116 -9 242 -8 303 4 378
1 522 -18 145 -19 171 -13 214 43 57 74 12 204 -80 233 -87 28 -216 44 -398
50 l-198 6 59 78 c32 43 124 146 205 229 220 225 256 280 256 395 0 156 -130
234 -365 219 -55 -4 -140 -11 -188 -17 -49 -6 -91 -9 -93 -6 -3 3 8 35 25 71
52 111 35 193 -49 237 -41 22 -73 23 -115 5z"/>
<path d="M1690 5134 c-8 -3 -44 -14 -80 -26 -180 -57 -378 -205 -504 -378
-114 -155 -126 -242 -43 -328 39 -41 76 -51 152 -41 93 11 291 10 341 -2 24
-6 45 -12 45 -13 1 0 4 -62 8 -136 7 -151 16 -175 81 -206 74 -36 162 -12 208
57 23 33 23 40 20 194 -3 152 -4 163 -31 217 -30 60 -96 127 -158 159 -39 19
-180 59 -213 59 -18 0 -16 5 14 30 41 35 204 120 230 120 24 0 77 45 95 81 22
41 19 106 -7 147 -31 50 -107 82 -158 66z"/>
<path d="M4244 4725 c-75 -16 -178 -56 -264 -103 -129 -70 -160 -105 -160
-184 0 -58 30 -104 83 -128 69 -32 108 -26 212 30 87 47 212 100 237 100 40 0
-52 -257 -168 -472 -99 -182 -98 -204 4 -319 31 -35 53 -49 87 -58 25 -6 50
-9 55 -6 12 8 484 7 504 -1 38 -15 -1 -139 -129 -407 -75 -157 -84 -197 -58
-247 39 -75 123 -100 197 -57 43 24 56 46 164 274 95 200 135 329 136 433 1
72 -3 93 -24 135 -61 123 -221 175 -532 175 -71 0 -128 4 -128 9 0 4 22 55 49
112 157 336 179 501 85 625 -34 44 -94 79 -162 93 -67 14 -111 13 -188 -4z"/>
<path d="M1985 4010 c-99 -46 -249 -99 -384 -136 -128 -35 -160 -51 -193 -95
-65 -86 1 -220 109 -221 104 -1 570 144 656 204 93 65 83 214 -17 262 -48 23
-102 19 -171 -14z"/>
<path d="M3790 3703 c-148 -25 -393 -171 -440 -263 -24 -47 -25 -69 -5 -118
22 -51 52 -81 97 -93 59 -15 100 -2 183 61 42 31 100 69 128 84 l52 27 3 -30
c5 -45 -53 -205 -117 -327 -58 -109 -58 -109 -130 -149 -87 -48 -115 -87 -115
-157 0 -82 68 -148 153 -148 75 0 509 199 600 275 43 37 81 119 81 177 0 105
-53 161 -148 156 -49 -3 -53 -1 -49 17 42 176 46 231 21 316 -12 40 -28 66
-64 101 -67 65 -149 88 -250 71z"/>
<path d="M2415 3464 c-123 -30 -315 -105 -362 -140 -38 -29 -59 -86 -49 -138
10 -51 70 -111 125 -126 48 -13 43 -14 226 54 80 29 187 56 228 56 24 0 27 -3
27 -35 0 -42 -19 -100 -77 -234 -36 -84 -44 -113 -40 -143 14 -101 113 -155
210 -114 44 18 76 58 125 157 105 213 126 392 62 520 -24 46 -91 106 -149 132
-60 28 -237 34 -326 11z"/>
<path d="M1142 3161 c-75 -28 -137 -66 -160 -99 -88 -123 -3 -312 139 -312
l32 0 -7 -142 c-3 -79 -13 -224 -22 -323 -17 -191 -14 -291 13 -409 12 -55 22
-75 53 -106 38 -38 90 -60 143 -60 62 0 143 53 166 109 6 14 25 34 41 43 17 9
42 38 57 63 140 234 340 505 373 505 13 0 23 -188 17 -315 -4 -77 -19 -180
-42 -290 -41 -200 -42 -224 -13 -277 31 -55 80 -82 145 -82 99 0 132 45 167
225 48 244 60 354 59 559 -1 317 -24 424 -110 499 -81 72 -195 75 -333 9 -82
-40 -204 -160 -285 -280 -32 -48 -61 -86 -63 -83 -3 2 1 96 8 208 13 204 10
309 -10 379 -17 59 -71 130 -124 163 -64 39 -163 46 -244 16z"/>
<path d="M4801 2736 c-44 -16 -107 -69 -128 -109 -10 -18 -20 -64 -23 -107
l-5 -75 -65 -13 c-256 -53 -367 -99 -456 -189 -103 -105 -140 -243 -111 -414
21 -122 60 -248 101 -324 l33 -61 -44 -38 -44 -38 -72 27 c-40 15 -100 38
-134 51 -229 86 -457 41 -636 -126 -79 -74 -180 -203 -241 -307 -21 -35 -49
-69 -64 -77 -15 -8 -43 -29 -62 -46 -19 -17 -48 -38 -63 -46 -26 -14 -31 -13
-60 3 -71 42 -176 227 -237 418 -18 55 -44 115 -57 133 -48 65 -135 88 -210
57 -63 -26 -97 -70 -114 -143 -14 -62 51 -283 131 -443 99 -201 183 -305 287
-357 179 -90 365 -62 547 83 38 30 72 55 77 55 21 0 77 63 145 167 85 129 189
245 246 274 55 28 107 24 206 -17 207 -85 249 -97 336 -92 98 5 170 36 246
105 60 53 82 91 89 152 6 41 9 45 47 58 98 33 164 125 164 231 0 74 -10 102
-60 167 -53 68 -92 157 -88 197 3 37 4 37 198 78 206 43 328 127 402 277 l43
87 0 120 c0 106 -3 126 -22 162 -58 109 -190 161 -302 120z"/>
<path d="M3100 2490 c-185 -23 -454 -98 -514 -144 -69 -52 -98 -165 -63 -247
29 -70 102 -119 175 -119 21 0 117 25 213 55 160 51 361 96 373 84 3 -3 -4
-39 -16 -81 -15 -54 -19 -89 -14 -121 9 -62 56 -132 105 -157 78 -39 188 -17
244 49 36 43 67 147 76 256 9 110 0 178 -32 247 -31 69 -77 114 -156 151 -60
28 -73 31 -190 33 -69 1 -160 -1 -201 -6z"/>
</g>
</svg>
