<?xml version="1.0" standalone="no"?>
<!DOCTYPE svg PUBLIC "-//W3C//DTD SVG 20010904//EN"
 "http://www.w3.org/TR/2001/REC-SVG-20010904/DTD/svg10.dtd">
<svg version="1.0" xmlns="http://www.w3.org/2000/svg"
 width="600.000000pt" height="600.000000pt" viewBox="0 0 600.000000 600.000000"
 preserveAspectRatio="xMidYMid meet">
<metadata>
Created by potrace 1.15, written by Peter Selinger 2001-2017
</metadata>
<g transform="translate(0.000000,600.000000) scale(0.100000,-0.100000)"
fill="#16364b" stroke="none">
<path d="M3099 5616 c-27 -18 -47 -49 -86 -132 -87 -183 -103 -286 -59 -380
13 -28 40 -64 61 -82 52 -42 155 -79 262 -92 48 -7 95 -14 103 -17 8 -2 -29
-27 -86 -57 -137 -72 -250 -147 -369 -246 -189 -156 -217 -198 -195 -281 24
-87 208 -186 569 -306 124 -42 250 -86 280 -99 65 -29 115 -30 159 -4 54 33
74 75 70 147 -7 110 -33 126 -376 223 -218 62 -292 87 -292 99 0 18 166 127
396 260 269 157 314 199 314 296 0 150 -159 245 -461 274 -62 7 -122 14 -132
17 -23 7 -19 29 29 138 38 88 43 140 18 192 -35 72 -135 97 -205 50z"/>
<path d="M1448 5387 c-32 -20 -79 -52 -104 -74 -64 -51 -182 -188 -240 -276
-64 -96 -154 -288 -199 -422 -63 -184 -49 -263 52 -301 44 -17 49 -17 112 0
291 80 481 119 497 103 3 -3 -38 -79 -92 -169 -53 -90 -118 -206 -143 -258
-45 -93 -46 -97 -44 -182 3 -124 35 -174 125 -199 52 -14 74 -6 290 102 208
104 328 179 353 222 45 75 11 178 -71 217 -57 28 -100 21 -171 -26 -29 -19
-55 -34 -58 -34 -3 0 22 54 55 119 70 139 94 228 87 321 -12 177 -160 241
-442 191 -66 -11 -135 -25 -152 -30 -25 -7 -33 -6 -33 3 0 21 133 213 212 304
42 49 96 102 120 117 63 39 92 86 92 144 0 87 -57 151 -141 158 -41 4 -56 0
-105 -30z"/>
<path d="M4705 4493 c-107 -16 -444 -127 -497 -164 -14 -11 -34 -40 -44 -64
-14 -39 -15 -52 -5 -87 17 -54 57 -94 112 -108 41 -11 52 -9 197 40 84 29 155
50 158 47 10 -10 -113 -231 -294 -526 -40 -64 -52 -94 -52 -124 0 -52 27 -105
64 -128 17 -10 45 -32 63 -48 23 -22 63 -40 150 -66 218 -67 333 -108 333
-120 0 -6 -66 -110 -146 -231 -81 -120 -153 -233 -160 -251 -30 -69 -7 -147
53 -184 27 -17 45 -20 89 -17 65 6 97 32 146 117 17 30 85 136 151 235 135
203 166 263 174 338 7 71 -9 125 -53 176 -61 71 -131 105 -365 176 -75 22
-137 46 -137 51 -1 6 39 75 89 155 202 323 269 527 215 655 -39 92 -136 143
-241 128z"/>
<path d="M3780 3652 c-51 -25 -80 -74 -80 -134 0 -58 10 -80 59 -131 41 -44
80 -67 113 -67 13 0 31 -12 41 -25 16 -22 17 -30 6 -63 -6 -20 -13 -43 -15
-50 -3 -9 -14 -11 -38 -6 -54 10 -171 -15 -244 -52 -119 -59 -242 -211 -242
-297 0 -83 75 -160 155 -160 59 0 98 28 148 104 59 88 84 101 172 88 124 -20
219 18 245 97 7 19 9 46 6 58 -5 20 -1 25 21 31 47 11 85 47 110 102 34 75 30
182 -9 263 -28 57 -116 152 -178 193 -98 64 -202 84 -270 49z"/>
<path d="M2475 3601 c-96 -25 -141 -43 -245 -97 -103 -53 -131 -84 -138 -154
-8 -85 42 -150 126 -166 28 -5 51 2 131 44 99 52 205 92 241 92 17 0 20 -6 20
-48 0 -112 -90 -345 -242 -623 -49 -90 -58 -114 -58 -157 0 -70 34 -109 129
-147 94 -37 134 -35 261 13 123 47 238 82 268 82 l21 0 -23 -67 c-13 -38 -53
-134 -90 -215 -68 -151 -76 -187 -56 -258 11 -41 61 -94 103 -109 61 -23 148
-1 197 50 34 36 197 372 230 476 40 124 48 212 25 288 -53 185 -218 264 -460
221 -49 -9 -101 -19 -114 -23 -19 -5 -23 -3 -18 8 93 211 130 340 131 464 1
124 -20 182 -93 256 -89 89 -191 109 -346 70z"/>
<path d="M1090 3378 c-30 -11 -76 -34 -103 -50 -68 -40 -201 -142 -226 -173
-49 -64 -52 -147 -6 -217 48 -73 159 -100 240 -58 21 11 41 18 43 15 3 -2 -12
-66 -33 -142 -83 -305 -101 -412 -111 -689 -7 -164 -6 -173 15 -217 27 -56 65
-81 163 -108 159 -45 201 -12 394 296 48 77 150 231 228 343 124 180 142 201
153 186 20 -27 15 -124 -12 -284 -24 -136 -79 -577 -92 -735 -6 -78 13 -163
46 -202 83 -98 212 -98 285 0 30 41 29 134 -1 176 -18 24 -23 44 -23 93 0 95
26 291 66 492 55 283 70 428 56 544 -7 53 -12 116 -12 139 0 56 -32 156 -65
198 -37 49 -92 75 -160 75 -70 0 -113 -18 -175 -72 -70 -61 -137 -148 -231
-300 -85 -137 -188 -283 -194 -276 -2 2 7 44 21 93 54 196 114 511 114 600 0
60 -27 152 -58 198 -17 26 -47 51 -81 69 -68 35 -158 38 -241 6z"/>
<path d="M4672 2195 c-80 -35 -134 -97 -148 -169 -6 -34 -9 -37 -33 -31 -258
55 -432 43 -606 -42 -160 -78 -235 -206 -261 -443 -4 -36 -8 -68 -11 -72 -2
-4 -31 14 -63 41 -200 161 -409 162 -607 1 -32 -26 -78 -72 -101 -102 -44 -57
-109 -176 -130 -237 -7 -19 -14 -32 -17 -29 -3 2 -23 95 -44 205 -66 334 -124
438 -258 467 -74 16 -160 -33 -188 -109 -22 -57 -14 -118 27 -198 37 -75 62
-190 83 -392 43 -407 138 -567 359 -606 175 -30 297 43 299 179 1 98 187 490
261 551 22 19 42 4 190 -137 143 -137 201 -174 299 -192 144 -27 296 65 333
201 8 30 21 148 29 263 10 146 18 212 27 218 17 12 176 1 258 -17 95 -22 255
-30 317 -17 238 52 373 290 301 532 -27 91 -115 150 -223 150 -33 -1 -75 -7
-93 -15z"/>
</g>
</svg>
