<?xml version="1.0" standalone="no"?>
<!DOCTYPE svg PUBLIC "-//W3C//DTD SVG 20010904//EN"
 "http://www.w3.org/TR/2001/REC-SVG-20010904/DTD/svg10.dtd">
<svg version="1.0" xmlns="http://www.w3.org/2000/svg"
 width="600.000000pt" height="600.000000pt" viewBox="0 0 600.000000 600.000000"
 preserveAspectRatio="xMidYMid meet">
<metadata>
Created by potrace 1.15, written by Peter Selinger 2001-2017
</metadata>
<g transform="translate(0.000000,600.000000) scale(0.100000,-0.100000)"
fill="#16364b" stroke="none">
<path d="M2427 5465 c-27 -19 -47 -47 -77 -110 -74 -155 -87 -263 -42 -351 24
-47 43 -65 101 -95 61 -31 175 -28 349 9 72 16 132 26 132 23 0 -3 -43 -58
-96 -121 -121 -146 -219 -293 -325 -490 -81 -152 -83 -156 -82 -221 2 -78 20
-121 66 -150 36 -23 83 -22 372 6 83 8 249 15 370 15 200 0 223 2 252 20 46
28 67 65 67 119 0 61 -28 106 -81 132 -39 19 -59 20 -335 19 -161 -1 -296 -1
-300 -1 -9 1 86 160 160 266 30 44 96 130 147 190 50 61 108 133 128 161 96
133 58 271 -95 339 -90 40 -193 39 -386 -5 -79 -18 -145 -30 -148 -27 -3 3 8
34 25 69 34 70 39 114 16 159 -37 70 -146 92 -218 44z"/>
<path d="M1660 5070 c-200 -57 -426 -228 -555 -419 -43 -66 -48 -129 -12 -181
41 -61 66 -72 184 -81 199 -16 338 -51 373 -96 11 -14 29 -56 40 -93 15 -51
29 -76 55 -99 68 -59 155 -54 222 14 39 38 43 47 43 90 0 132 -88 298 -196
370 -51 34 -153 76 -217 90 l-29 6 24 18 c46 37 134 80 195 97 73 20 117 58
134 114 21 70 -3 127 -72 169 -42 26 -101 26 -189 1z"/>
<path d="M4087 4780 c-80 -21 -233 -94 -295 -139 -81 -60 -102 -134 -62 -215
27 -54 62 -78 122 -84 45 -4 54 -1 127 47 86 57 202 110 240 111 24 0 24 -1
18 -72 -6 -80 -41 -187 -126 -380 -63 -144 -65 -175 -15 -264 37 -66 71 -100
110 -110 12 -3 129 6 260 21 132 14 264 25 294 23 l55 -3 -2 -55 c-2 -73 -39
-186 -119 -366 -56 -127 -65 -155 -61 -191 6 -58 30 -91 84 -115 85 -37 157
-2 209 102 68 136 137 306 161 399 47 183 19 356 -74 448 -88 88 -165 103
-423 80 -91 -9 -167 -14 -169 -11 -2 2 12 41 32 86 61 145 78 213 84 343 5
108 3 126 -17 179 -60 159 -226 222 -433 166z"/>
<path d="M2016 3970 c-96 -42 -265 -88 -395 -109 -147 -24 -186 -52 -198 -139
-7 -54 11 -102 53 -143 35 -34 36 -34 122 -33 93 0 283 42 472 103 118 38 157
62 176 106 18 44 18 128 0 163 -44 84 -117 100 -230 52z"/>
<path d="M3750 3701 c-36 -10 -103 -37 -150 -61 -123 -61 -322 -194 -341 -227
-29 -50 -32 -88 -11 -137 24 -54 58 -78 120 -83 44 -4 54 0 148 60 125 81 233
141 240 134 8 -8 -8 -54 -81 -243 -79 -203 -115 -273 -153 -301 -17 -12 -36
-39 -42 -59 -36 -109 47 -203 170 -191 116 10 375 115 510 207 155 105 218
227 165 317 -52 88 -207 98 -261 17 -23 -33 -96 -106 -101 -100 -2 2 16 60 41
128 97 268 95 415 -7 505 -63 55 -134 65 -247 34z"/>
<path d="M2375 3384 c-141 -25 -297 -67 -329 -89 -120 -80 -61 -280 82 -280
26 1 108 17 182 37 74 20 160 38 190 40 l55 3 -3 -35 c-2 -19 -21 -88 -44
-154 -38 -111 -39 -121 -28 -162 24 -85 118 -139 195 -114 52 17 89 68 133
182 53 139 66 198 66 298 0 139 -54 230 -161 270 -65 24 -214 26 -338 4z"/>
<path d="M1198 3136 c-65 -19 -127 -52 -165 -88 -32 -31 -63 -102 -63 -142 0
-40 21 -95 47 -126 27 -33 91 -70 120 -70 45 -1 46 -6 28 -206 -27 -294 -7
-601 46 -711 13 -26 37 -53 66 -72 124 -83 265 -25 295 121 8 41 17 58 28 58
38 0 80 42 140 142 105 173 267 374 286 355 4 -4 2 -94 -4 -200 -10 -161 -18
-216 -47 -335 -41 -167 -42 -191 -14 -248 52 -108 189 -120 261 -23 54 72 119
476 121 754 2 115 -1 137 -22 190 -35 87 -118 168 -196 190 -71 21 -138 14
-209 -22 -62 -31 -177 -145 -273 -271 l-72 -93 6 194 c9 286 -19 420 -109 522
-72 81 -168 110 -270 81z"/>
<path d="M4791 2878 c-82 -41 -128 -134 -116 -238 6 -50 4 -58 -12 -65 -10 -4
-56 -20 -103 -37 -202 -71 -333 -163 -392 -274 -101 -188 -66 -471 84 -684 27
-40 48 -73 46 -74 -1 -1 -20 -13 -40 -25 -21 -12 -47 -36 -58 -52 -30 -40 -54
-44 -151 -18 -201 52 -323 61 -445 35 -180 -38 -369 -182 -514 -389 -29 -42
-63 -80 -74 -83 -11 -4 -45 -30 -76 -59 -62 -59 -107 -85 -146 -85 -107 0
-275 191 -350 398 -45 123 -115 173 -221 157 -40 -6 -56 -15 -95 -55 -53 -55
-74 -111 -64 -174 15 -88 136 -307 246 -441 148 -181 290 -257 485 -258 144
-2 266 44 378 142 35 31 78 63 94 72 17 9 59 54 94 100 141 186 269 284 383
296 39 4 84 -3 181 -28 104 -27 150 -33 230 -34 90 0 106 3 157 28 69 34 169
132 200 195 16 33 22 64 21 109 l0 63 31 0 c41 0 124 40 158 76 42 45 61 100
53 153 -10 67 -35 109 -103 173 -67 62 -88 96 -98 155 -8 52 4 62 165 122 74
28 155 63 180 78 78 45 149 120 186 197 48 97 59 167 45 274 -18 140 -55 203
-142 246 -68 34 -153 36 -217 4z"/>
<path d="M3290 2425 c-41 -8 -167 -36 -280 -63 -113 -27 -234 -55 -270 -62
-130 -25 -190 -85 -190 -190 0 -93 50 -157 142 -181 39 -11 62 -8 198 19 246
50 430 82 471 82 l37 0 -10 -36 c-37 -137 104 -264 257 -232 38 8 60 20 91 53
36 37 44 53 54 113 20 113 10 209 -33 295 -90 182 -234 244 -467 202z"/>
</g>
</svg>
