<?xml version="1.0" standalone="no"?>
<!DOCTYPE svg PUBLIC "-//W3C//DTD SVG 20010904//EN"
 "http://www.w3.org/TR/2001/REC-SVG-20010904/DTD/svg10.dtd">
<svg version="1.0" xmlns="http://www.w3.org/2000/svg"
 width="600.000000pt" height="600.000000pt" viewBox="0 0 600.000000 600.000000"
 preserveAspectRatio="xMidYMid meet">
<metadata>
Created by potrace 1.15, written by Peter Selinger 2001-2017
</metadata>
<g transform="translate(0.000000,600.000000) scale(0.100000,-0.100000)"
fill="#16364b" stroke="none">
<path d="M1625 5771 c-16 -10 -38 -27 -47 -37 -24 -28 -75 -221 -95 -357 -31
-218 6 -413 90 -481 34 -27 46 -31 101 -31 70 0 127 28 205 99 127 116 351
471 351 556 0 36 -30 95 -59 117 -30 23 -84 33 -123 23 -46 -13 -79 -47 -125
-129 -29 -53 -120 -196 -155 -246 -28 -39 -13 76 34 258 30 115 30 118 14 162
-30 77 -122 109 -191 66z"/>
<path d="M3185 5579 c-41 -13 -59 -28 -80 -68 -19 -38 -16 -88 9 -126 8 -13
71 -63 138 -111 119 -86 328 -278 328 -302 0 -7 -17 -12 -42 -12 -57 0 -103
-29 -118 -75 -39 -118 74 -217 250 -218 225 -2 297 175 163 402 -82 138 -211
263 -438 423 -92 65 -152 99 -172 97 -4 0 -21 -5 -38 -10z"/>
<path d="M852 5451 c-168 -63 -272 -223 -272 -421 0 -88 18 -163 53 -223 34
-57 115 -131 159 -146 88 -29 188 47 188 144 0 52 -23 99 -65 130 -20 16 -43
41 -51 56 -28 55 -11 131 41 179 24 22 35 25 108 25 45 0 91 6 102 12 91 52
97 174 12 235 -45 32 -199 37 -275 9z"/>
<path d="M2922 5168 c-23 -11 -61 -41 -84 -67 -94 -106 -120 -240 -65 -333 61
-104 188 -143 328 -102 143 42 164 72 156 214 -3 52 -11 112 -17 132 -17 57
-71 130 -115 155 -53 30 -142 31 -203 1z"/>
<path d="M2270 4869 c-14 -6 -35 -19 -46 -30 -12 -11 -52 -27 -90 -35 -208
-43 -284 -99 -284 -207 0 -60 33 -108 88 -127 42 -14 46 -14 135 17 51 18 135
42 187 54 164 37 211 76 218 178 2 44 -1 63 -18 89 -35 57 -127 86 -190 61z"/>
<path d="M4749 4837 c-18 -12 -44 -38 -57 -57 -23 -34 -24 -40 -18 -165 3 -78
13 -158 24 -201 73 -271 261 -407 440 -318 56 28 90 63 125 128 18 34 22 57
22 136 0 85 -3 102 -31 160 -61 129 -151 214 -309 296 -100 51 -144 56 -196
21z"/>
<path d="M2799 4116 c-63 -22 -103 -50 -134 -95 -28 -39 -30 -50 -30 -126 0
-77 2 -87 30 -126 38 -55 101 -94 185 -115 52 -13 92 -15 200 -11 217 10 384
48 431 98 52 56 48 148 -8 201 -30 28 -151 92 -242 128 -141 55 -345 77 -432
46z"/>
<path d="M1021 4066 c-53 -18 -88 -49 -112 -101 -25 -54 -24 -103 4 -156 38
-71 80 -89 210 -89 59 0 107 -3 107 -6 0 -22 -146 -181 -356 -389 -264 -261
-263 -260 -251 -361 14 -129 161 -207 261 -139 l37 25 35 -26 c47 -36 109 -42
160 -16 22 11 46 28 53 36 18 22 26 20 39 -8 6 -14 43 -46 81 -71 87 -57 111
-100 111 -198 0 -161 -127 -375 -263 -444 l-50 -25 -44 22 c-60 30 -111 21
-163 -29 -98 -93 -45 -238 104 -285 121 -38 287 8 396 110 93 87 244 339 285
474 22 75 30 213 16 279 -23 106 -102 230 -194 302 -29 23 -53 44 -55 48 -3 9
189 101 211 101 9 0 28 -11 43 -25 80 -74 218 -47 260 50 20 47 10 242 -14
274 -50 67 -147 91 -227 56 -62 -26 -265 -94 -265 -88 0 3 18 26 41 51 67 76
137 190 149 244 7 28 10 78 8 112 -10 121 -85 211 -214 257 -77 28 -333 37
-403 15z"/>
<path d="M4211 3775 c-183 -41 -288 -151 -299 -311 -9 -139 58 -246 184 -294
78 -29 186 -24 269 14 111 51 213 192 261 361 36 128 24 184 -48 221 -46 24
-276 30 -367 9z m59 -284 c0 -13 -41 -41 -58 -41 -20 0 -9 23 19 37 29 15 39
16 39 4z"/>
<path d="M3368 3361 c-57 -36 -115 -112 -162 -211 -41 -86 -44 -108 -16 -165
30 -62 68 -80 168 -77 161 4 237 82 264 269 10 72 10 82 -10 125 -27 62 -69
88 -143 88 -44 0 -64 -6 -101 -29z"/>
<path d="M5029 3272 c-109 -64 -183 -136 -230 -226 -28 -52 -34 -74 -37 -146
-5 -104 18 -174 79 -243 97 -110 240 -99 378 29 127 117 169 300 103 446 -23
51 -95 134 -134 154 -43 22 -107 17 -159 -14z"/>
<path d="M2139 2546 c-63 -17 -133 -71 -220 -169 -40 -45 -101 -111 -135 -147
-33 -36 -71 -85 -83 -110 -12 -25 -42 -74 -67 -110 -56 -80 -154 -279 -188
-381 -58 -172 -71 -398 -32 -540 53 -197 184 -343 443 -498 229 -136 447 -162
703 -85 104 32 148 54 220 109 68 53 93 80 209 224 156 193 210 318 274 626
47 226 62 363 47 446 -24 137 -100 241 -220 298 -51 24 -65 26 -180 25 -94 -1
-143 -6 -200 -22 -41 -12 -78 -18 -82 -14 -3 4 -17 35 -31 69 -63 155 -154
237 -312 278 -69 18 -85 18 -146 1z m142 -503 c29 -84 62 -134 122 -186 92
-78 123 -82 279 -38 120 35 224 55 238 46 33 -21 -19 -311 -90 -508 -49 -132
-108 -222 -240 -360 -47 -50 -84 -78 -139 -105 -72 -35 -79 -37 -175 -37 -116
1 -171 19 -299 98 -179 112 -234 239 -192 447 31 154 96 285 194 394 28 31 61
77 75 103 13 27 36 59 51 73 15 14 52 56 83 93 62 76 59 77 93 -20z"/>
<path d="M4062 2460 c-43 -10 -94 -46 -121 -85 -38 -55 -45 -100 -31 -193 7
-46 10 -85 8 -87 -2 -3 -20 0 -39 5 -55 16 -111 11 -166 -14 -96 -45 -151
-158 -139 -287 13 -148 115 -470 170 -542 42 -55 106 -86 178 -87 31 0 68 4
81 9 38 15 98 72 113 107 12 29 17 31 77 36 76 6 154 44 190 92 34 44 57 121
57 187 0 109 -114 678 -151 750 -41 82 -140 130 -227 109z"/>
</g>
</svg>
