<?xml version="1.0" standalone="no"?>
<!DOCTYPE svg PUBLIC "-//W3C//DTD SVG 20010904//EN"
 "http://www.w3.org/TR/2001/REC-SVG-20010904/DTD/svg10.dtd">
<svg version="1.0" xmlns="http://www.w3.org/2000/svg"
 width="600.000000pt" height="600.000000pt" viewBox="0 0 600.000000 600.000000"
 preserveAspectRatio="xMidYMid meet">
<metadata>
Created by potrace 1.15, written by Peter Selinger 2001-2017
</metadata>
<g transform="translate(0.000000,600.000000) scale(0.100000,-0.100000)"
fill="#16364b" stroke="none">
<path d="M3143 5620 c-42 -25 -61 -56 -89 -142 -106 -322 -1 -507 302 -534 41
-4 74 -10 74 -14 0 -4 -53 -38 -117 -76 -284 -165 -480 -317 -501 -387 -17
-56 -23 -161 -11 -198 35 -102 142 -153 424 -199 72 -12 166 -31 210 -42 92
-23 160 -20 198 8 82 61 75 189 -15 244 -35 21 -238 72 -363 91 -44 6 -84 15
-89 19 -21 20 228 185 459 305 204 105 246 147 247 249 1 145 -128 239 -394
286 -64 11 -128 24 -142 30 -33 12 -34 39 -1 136 29 86 31 133 10 175 -34 65
-135 90 -202 49z"/>
<path d="M1395 5405 c-110 -59 -225 -168 -308 -293 -115 -172 -215 -455 -220
-622 -2 -56 2 -74 19 -97 76 -102 213 -98 280 8 17 28 31 39 48 39 14 0 37 5
53 11 44 17 256 69 281 69 29 0 27 -6 -55 -225 -68 -179 -93 -267 -93 -326 0
-29 -7 -41 -40 -68 -95 -76 -69 -219 46 -250 51 -14 92 -2 185 50 86 49 232
118 352 166 102 41 140 74 155 135 14 56 7 88 -29 131 -55 67 -136 69 -261 6
-32 -16 -62 -29 -67 -29 -6 0 23 67 63 149 98 201 116 296 76 404 -23 60 -73
114 -140 149 -40 21 -57 23 -160 21 -85 -1 -140 -8 -210 -26 -52 -14 -97 -24
-99 -22 -6 6 58 112 101 168 60 77 107 124 165 168 63 47 83 82 83 144 0 64
-31 120 -80 145 -52 27 -87 25 -145 -5z"/>
<path d="M4670 4475 c-134 -24 -324 -72 -358 -89 -100 -52 -94 -199 11 -246
55 -25 74 -25 218 6 66 14 122 24 125 22 6 -6 -120 -188 -211 -306 -139 -178
-135 -172 -135 -214 0 -85 56 -148 140 -156 65 -6 97 13 170 105 94 116 374
542 388 589 34 116 -7 228 -102 274 -56 27 -151 33 -246 15z"/>
<path d="M3820 3670 c-70 -37 -95 -134 -51 -203 11 -17 69 -73 128 -122 81
-68 113 -102 130 -138 59 -124 219 -113 269 18 29 77 1 148 -91 238 -19 19
-42 53 -50 77 -21 60 -30 68 -119 112 -92 44 -157 50 -216 18z"/>
<path d="M2486 3644 c-75 -17 -218 -75 -284 -117 -56 -36 -82 -80 -82 -138 0
-84 68 -151 153 -151 31 0 67 12 123 40 83 41 153 67 218 78 l39 7 -5 -59 c-6
-63 -77 -256 -130 -354 -17 -30 -75 -129 -129 -221 -88 -147 -99 -170 -99
-212 0 -59 18 -104 56 -139 16 -14 44 -42 62 -62 64 -67 133 -71 250 -12 78
39 220 91 275 99 27 4 37 2 37 -8 0 -22 -67 -172 -134 -300 -35 -66 -66 -134
-69 -152 -9 -47 17 -123 55 -160 86 -83 202 -84 274 0 39 44 163 266 204 367
77 187 97 365 51 468 -30 66 -94 124 -170 153 -67 25 -239 31 -334 10 -32 -7
-61 -11 -63 -8 -3 2 20 53 50 113 29 60 66 142 80 183 36 99 59 241 51 305 -8
59 -46 150 -78 185 -83 89 -231 121 -401 85z"/>
<path d="M1130 3451 c-60 -13 -131 -49 -247 -127 -135 -89 -163 -127 -163
-218 0 -70 25 -124 76 -163 50 -38 150 -44 208 -14 22 11 41 20 42 18 1 -1
-15 -61 -37 -132 -114 -371 -170 -781 -124 -893 18 -43 50 -78 85 -97 45 -23
160 -47 195 -41 65 12 73 23 471 593 116 167 172 239 179 232 21 -21 8 -200
-30 -394 -83 -437 -96 -524 -93 -635 3 -89 8 -112 30 -155 76 -147 227 -179
298 -63 27 45 27 131 0 176 -35 57 -24 164 54 513 25 113 51 241 57 285 16
113 14 295 -5 382 -9 40 -16 97 -16 126 0 155 -82 261 -201 258 -110 -2 -191
-76 -380 -347 -188 -269 -201 -286 -205 -282 -3 2 13 67 35 144 50 177 89 350
102 454 21 169 -33 294 -153 355 -54 27 -123 37 -178 25z"/>
<path d="M4494 3426 c-17 -8 -41 -27 -53 -42 -19 -24 -22 -38 -19 -82 7 -82
40 -109 216 -171 161 -58 222 -86 222 -103 0 -19 -58 -116 -152 -254 -74 -109
-89 -139 -94 -180 -6 -60 16 -108 65 -141 43 -29 114 -31 154 -4 34 22 262
345 302 427 40 84 47 203 15 268 -31 65 -103 131 -185 172 -75 37 -366 124
-412 124 -15 -1 -42 -7 -59 -14z"/>
<path d="M3741 3189 c-227 -40 -434 -291 -351 -426 26 -43 74 -67 135 -67 68
0 108 24 150 90 28 44 40 54 53 48 30 -13 174 -17 213 -5 75 23 139 103 139
176 0 38 -31 104 -61 132 -54 49 -170 71 -278 52z"/>
<path d="M4625 2198 c-36 -13 -83 -44 -109 -73 -26 -29 -56 -95 -56 -127 0
-34 -6 -35 -136 -7 -124 26 -292 35 -362 20 -169 -36 -305 -171 -341 -339 -6
-29 -11 -99 -12 -155 0 -113 -13 -264 -22 -273 -3 -4 -31 17 -61 46 -159 152
-334 240 -477 240 -147 0 -253 -88 -354 -295 -30 -60 -56 -103 -58 -95 -3 8
-12 75 -22 148 -26 207 -86 394 -148 461 -56 61 -176 80 -237 39 -18 -13 -42
-35 -53 -50 -28 -37 -35 -134 -14 -191 34 -91 48 -159 72 -337 31 -229 40
-275 71 -372 29 -89 84 -179 139 -227 88 -76 253 -127 335 -102 53 16 116 72
131 118 6 20 9 57 6 83 -5 41 1 67 42 176 56 150 96 233 116 240 9 4 57 -29
121 -83 58 -48 129 -107 157 -131 130 -107 274 -146 388 -103 68 26 130 78
166 139 15 26 44 63 64 83 54 54 67 107 78 318 7 134 13 186 23 193 16 10 107
2 208 -20 48 -10 127 -16 220 -16 143 -1 146 0 212 31 126 59 207 174 229 324
31 215 -61 351 -235 348 -28 0 -64 -5 -81 -11z"/>
</g>
</svg>
