<?xml version="1.0" standalone="no"?>
<!DOCTYPE svg PUBLIC "-//W3C//DTD SVG 20010904//EN"
 "http://www.w3.org/TR/2001/REC-SVG-20010904/DTD/svg10.dtd">
<svg version="1.0" xmlns="http://www.w3.org/2000/svg"
 width="600.000000pt" height="600.000000pt" viewBox="0 0 600.000000 600.000000"
 preserveAspectRatio="xMidYMid meet">
<metadata>
Created by potrace 1.15, written by Peter Selinger 2001-2017
</metadata>
<g transform="translate(0.000000,600.000000) scale(0.100000,-0.100000)"
fill="#16364b" stroke="none">
<path d="M3144 5646 c-58 -26 -86 -87 -99 -216 -14 -133 36 -274 123 -351 50
-44 141 -90 231 -116 34 -10 61 -21 61 -25 0 -4 -102 -75 -227 -159 -233 -156
-338 -231 -360 -259 -7 -8 -18 -32 -25 -53 -6 -21 -20 -43 -31 -48 -10 -6 -28
-31 -39 -56 -42 -96 15 -196 134 -235 20 -6 133 -10 293 -8 230 1 265 3 302
20 81 36 110 137 57 200 -41 48 -70 57 -197 65 l-117 7 82 57 c330 226 385
267 452 342 71 79 93 176 57 254 -36 81 -125 136 -297 186 -207 60 -225 77
-204 208 11 73 11 83 -6 117 -11 21 -31 46 -45 57 -34 25 -105 31 -145 13z"/>
<path d="M1324 5384 c-196 -104 -374 -333 -433 -556 -46 -178 -53 -394 -14
-446 67 -90 207 -86 270 8 20 29 23 45 23 144 0 61 5 128 11 149 l10 38 23
-43 c47 -90 115 -107 261 -64 44 13 83 22 87 20 3 -2 -10 -50 -29 -107 -25
-71 -37 -126 -40 -184 -7 -105 0 -137 42 -208 19 -31 35 -58 35 -59 0 -2 -42
-28 -93 -60 -55 -34 -102 -72 -117 -93 -52 -77 -16 -193 73 -234 72 -32 90
-27 268 79 90 54 196 113 234 130 158 72 176 89 183 174 3 44 0 59 -20 88 -43
65 -103 80 -209 55 -22 -6 -27 -3 -33 18 -3 14 -20 39 -37 56 -35 36 -36 31
30 210 51 138 62 224 37 297 -21 66 -65 117 -123 146 -84 41 -244 27 -446 -38
-27 -9 -51 -14 -54 -11 -7 7 68 116 102 147 14 14 56 45 92 70 79 54 103 83
110 137 11 81 -67 163 -154 163 -24 0 -60 -11 -89 -26z"/>
<path d="M4573 4495 c-157 -16 -170 -19 -206 -53 -66 -62 -52 -185 26 -232 35
-22 102 -25 212 -11 33 5 62 6 65 4 2 -2 -63 -71 -145 -153 l-150 -150 0 -70
c0 -67 2 -71 36 -106 28 -28 47 -37 83 -41 25 -3 58 0 74 6 40 17 360 358 427
455 47 70 73 170 57 223 -29 96 -92 132 -244 138 -57 2 -163 -2 -235 -10z"/>
<path d="M3910 3699 c-82 -25 -130 -87 -130 -168 0 -88 45 -155 169 -253 88
-70 170 -114 231 -123 164 -23 249 214 104 290 -37 19 -39 22 -36 64 6 84 -27
127 -128 165 -78 29 -162 39 -210 25z"/>
<path d="M2605 3673 c-121 -17 -360 -105 -407 -150 -33 -31 -51 -90 -42 -130
16 -68 85 -123 154 -123 16 0 79 21 138 46 75 32 122 47 157 48 l50 1 -4 -49
c-8 -118 -104 -327 -267 -583 -81 -127 -88 -142 -88 -188 0 -35 7 -63 22 -89
12 -20 22 -49 22 -64 0 -78 52 -160 118 -187 70 -30 116 -21 298 59 190 83
214 92 214 77 0 -35 -71 -225 -126 -338 -50 -104 -64 -141 -64 -178 0 -152
156 -234 278 -145 46 33 129 188 206 383 125 317 127 478 9 593 -66 65 -111
79 -243 78 -95 0 -130 -5 -204 -28 -49 -14 -91 -25 -93 -22 -2 2 7 22 20 43
50 79 149 287 178 375 71 210 50 369 -63 485 -63 65 -169 100 -263 86z"/>
<path d="M1137 3480 c-64 -11 -193 -77 -292 -148 -64 -46 -85 -68 -107 -111
-34 -66 -35 -103 -6 -161 42 -82 151 -113 246 -70 39 18 42 18 42 1 0 -9 -32
-154 -71 -322 -96 -415 -109 -480 -116 -585 -5 -81 -3 -97 16 -136 27 -57 61
-81 151 -108 117 -35 159 -20 266 92 91 96 160 188 334 443 178 262 200 291
211 273 22 -34 -5 -236 -88 -660 -42 -218 -47 -258 -48 -383 0 -126 2 -144 22
-181 28 -53 74 -91 118 -100 110 -20 209 101 175 215 -24 81 -14 169 60 506
103 468 114 600 70 878 -19 124 -94 198 -205 205 -143 9 -210 -53 -464 -431
-111 -163 -139 -199 -127 -161 30 101 108 398 121 469 24 121 24 267 2 319
-53 122 -170 181 -310 156z"/>
<path d="M4550 3312 c-74 -37 -100 -123 -60 -201 15 -31 35 -46 102 -81 123
-64 208 -122 214 -147 7 -28 -31 -98 -101 -187 -60 -75 -74 -118 -56 -176 12
-42 67 -96 107 -106 33 -9 90 1 120 21 38 25 130 142 168 215 84 160 86 308 6
417 -44 60 -145 132 -282 203 -127 65 -161 71 -218 42z"/>
<path d="M3660 3221 c-100 -31 -191 -114 -245 -224 -47 -95 -55 -159 -26 -215
31 -62 72 -84 144 -79 49 3 62 8 92 37 20 19 41 51 47 72 11 36 13 38 47 32
49 -8 154 11 207 37 83 40 116 128 80 212 -19 46 -91 105 -150 122 -52 16
-154 19 -196 6z"/>
<path d="M4540 2231 c-81 -43 -130 -120 -130 -204 0 -29 -2 -56 -5 -58 -2 -3
-60 5 -127 18 -349 64 -565 -1 -663 -200 -44 -90 -52 -151 -59 -425 -6 -206
-7 -214 -28 -233 -39 -32 -32 -37 -321 204 -93 77 -177 122 -257 137 -150 28
-282 -64 -350 -246 -13 -35 -27 -60 -31 -56 -4 4 -12 68 -19 142 -29 350 -65
457 -168 502 -99 44 -211 6 -253 -86 -23 -50 -23 -88 -4 -188 8 -43 22 -144
30 -225 22 -206 32 -266 61 -357 56 -175 126 -273 257 -360 187 -124 321 -123
395 2 24 42 27 57 27 142 0 94 38 290 56 290 9 0 137 -95 257 -192 125 -99
178 -122 282 -123 74 0 93 4 145 29 33 17 81 51 106 76 38 38 49 58 60 103 9
45 16 57 31 57 53 0 139 69 169 135 21 48 39 198 39 330 0 52 3 95 8 95 4 0
68 -7 142 -16 175 -21 347 -14 445 16 178 56 249 164 247 374 -2 181 -36 261
-132 312 -57 31 -157 33 -210 5z"/>
</g>
</svg>
