<?xml version="1.0" standalone="no"?>
<!DOCTYPE svg PUBLIC "-//W3C//DTD SVG 20010904//EN"
 "http://www.w3.org/TR/2001/REC-SVG-20010904/DTD/svg10.dtd">
<svg version="1.0" xmlns="http://www.w3.org/2000/svg"
 width="600.000000pt" height="600.000000pt" viewBox="0 0 600.000000 600.000000"
 preserveAspectRatio="xMidYMid meet">
<metadata>
Created by potrace 1.15, written by Peter Selinger 2001-2017
</metadata>
<g transform="translate(0.000000,600.000000) scale(0.100000,-0.100000)"
fill="#16364b" stroke="none">
<path d="M1877 4750 c-53 -14 -97 -37 -135 -74 -87 -81 -97 -185 -33 -341 54
-132 85 -404 101 -900 6 -165 17 -356 25 -425 12 -94 15 -204 13 -440 l-3
-315 38 -224 c63 -367 125 -520 260 -652 90 -87 194 -136 339 -159 l78 -13 -8
-41 c-4 -22 -7 -108 -6 -191 0 -164 17 -268 61 -390 14 -38 28 -85 30 -102 l5
-33 -60 0 c-85 0 -119 -9 -152 -40 -24 -22 -30 -37 -30 -68 0 -98 144 -133
284 -69 73 34 109 82 114 155 3 47 -3 73 -32 150 -51 132 -69 241 -68 402 0
74 4 155 9 180 8 43 10 45 43 44 73 -3 402 -24 567 -36 132 -9 197 -9 275 -1
57 7 103 11 104 10 1 -1 -3 -45 -9 -98 -14 -133 9 -291 64 -449 22 -63 43
-127 46 -142 l5 -26 -107 -4 c-106 -3 -107 -3 -136 -36 -75 -84 1 -181 142
-182 169 0 292 117 261 250 -6 25 -26 90 -45 145 -38 109 -77 314 -77 405 0
54 15 158 24 168 2 2 107 21 233 43 125 22 255 47 288 55 106 27 184 72 265
154 125 125 174 255 174 460 -1 134 -26 255 -74 350 -16 32 -30 66 -30 74 0
22 -72 90 -181 171 -102 76 -230 143 -454 237 -66 28 -136 61 -155 72 -61 38
-170 92 -321 159 -177 79 -301 147 -435 238 -209 142 -298 236 -462 488 -75
114 -113 185 -281 531 -33 69 -84 162 -113 207 -29 46 -64 101 -78 124 -83
138 -232 212 -363 179z m111 -155 c53 -23 109 -81 144 -150 17 -33 40 -71 53
-85 27 -30 67 -107 179 -342 153 -322 376 -658 513 -774 141 -119 372 -256
711 -420 128 -62 246 -122 261 -134 16 -11 94 -47 173 -81 208 -89 246 -107
313 -147 92 -54 195 -140 195 -162 0 -11 12 -24 28 -32 56 -27 112 -192 112
-330 -1 -200 -96 -375 -243 -448 -71 -35 -134 -48 -452 -95 -126 -19 -273 -41
-325 -50 -119 -18 -300 -19 -640 0 -146 8 -308 15 -360 15 -189 1 -319 48
-413 150 -59 63 -123 178 -132 238 -3 20 -10 44 -14 52 -15 29 -31 116 -56
312 -23 180 -25 223 -23 530 2 269 -1 353 -14 438 -17 107 -29 275 -48 665
-18 362 -39 495 -101 651 -16 41 -29 87 -29 102 0 40 31 84 70 98 47 17 54 17
98 -1z"/>
<path d="M2550 2670 c-27 -27 -25 -52 6 -89 32 -38 65 -40 93 -5 27 35 26 59
-4 89 -29 30 -68 32 -95 5z"/>
<path d="M3002 2474 c-31 -22 -29 -67 4 -93 33 -26 58 -27 84 -1 60 60 -18
143 -88 94z"/>
<path d="M5235 3991 c-96 -24 -185 -108 -211 -199 -61 -209 75 -435 275 -459
61 -7 161 19 230 60 131 78 197 233 157 370 -24 81 -69 134 -161 189 l-80 48
-90 -1 c-49 -1 -103 -4 -120 -8z m150 -312 c12 -12 -31 -52 -49 -46 -15 5 -36
49 -29 60 7 11 63 1 78 -14z"/>
<path d="M5362 1094 c-20 -8 -35 -27 -49 -60 -46 -108 -38 -199 20 -234 39
-24 50 -24 91 -5 53 26 81 86 81 177 0 66 -3 80 -23 101 -27 29 -80 38 -120
21z"/>
</g>
</svg>
