<?xml version="1.0" standalone="no"?>
<!DOCTYPE svg PUBLIC "-//W3C//DTD SVG 20010904//EN"
 "http://www.w3.org/TR/2001/REC-SVG-20010904/DTD/svg10.dtd">
<svg version="1.0" xmlns="http://www.w3.org/2000/svg"
 width="600.000000pt" height="600.000000pt" viewBox="0 0 600.000000 600.000000"
 preserveAspectRatio="xMidYMid meet">
<metadata>
Created by potrace 1.15, written by Peter Selinger 2001-2017
</metadata>
<g transform="translate(0.000000,600.000000) scale(0.100000,-0.100000)"
fill="#16364b" stroke="none">
<path d="M1919 5814 c-33 -21 -52 -50 -139 -219 -40 -77 -101 -188 -136 -247
-96 -159 -128 -233 -132 -305 -3 -49 0 -71 17 -105 32 -65 63 -83 141 -83 80
0 129 24 375 180 352 223 383 249 392 329 10 88 -51 156 -141 156 -57 0 -87
-15 -189 -92 -43 -33 -80 -58 -82 -56 -2 1 24 51 57 110 70 124 80 173 53 244
-33 88 -143 132 -216 88z"/>
<path d="M3005 5683 c-88 -47 -107 -161 -38 -225 16 -14 69 -47 118 -73 206
-111 363 -244 417 -357 42 -87 60 -166 47 -205 -12 -39 -62 -68 -131 -79 -114
-18 -158 -166 -74 -250 43 -43 75 -50 161 -35 85 14 179 57 232 105 76 68 133
210 133 329 0 104 -50 250 -119 351 -95 138 -321 306 -566 421 -83 38 -133 44
-180 18z"/>
<path d="M946 5399 c-69 -17 -176 -81 -236 -141 -189 -189 -181 -472 18 -660
105 -99 172 -125 245 -94 73 30 110 112 88 188 -13 42 -30 63 -94 112 -127
100 -88 277 67 301 73 11 104 26 136 61 54 61 38 154 -36 210 -40 31 -118 41
-188 23z"/>
<path d="M2873 5079 c-92 -17 -197 -129 -223 -239 -27 -113 1 -239 67 -302 57
-54 117 -73 233 -72 125 0 186 21 220 76 27 42 23 125 -7 166 -16 22 -19 38
-15 92 3 55 0 74 -22 120 -58 122 -147 178 -253 159z"/>
<path d="M4769 4897 c-65 -44 -79 -77 -79 -193 0 -56 5 -136 10 -178 52 -369
313 -515 519 -290 75 82 104 149 104 239 0 88 -25 145 -101 226 -55 60 -175
146 -269 193 -68 34 -137 35 -184 3z"/>
<path d="M1899 4687 c-125 -43 -182 -98 -182 -178 0 -21 9 -52 20 -71 47 -80
137 -100 237 -51 29 14 60 23 69 20 8 -3 22 -28 32 -56 39 -118 170 -158 260
-80 62 55 70 137 23 241 -44 96 -117 152 -235 183 -79 21 -147 18 -224 -8z"/>
<path d="M1203 3975 c-230 -52 -309 -99 -339 -202 -13 -45 -14 -62 -4 -105 23
-95 122 -160 221 -144 32 5 40 4 36 -6 -2 -7 -53 -80 -112 -163 -138 -193
-206 -308 -316 -531 -101 -206 -112 -248 -81 -316 53 -120 213 -148 310 -55
20 19 71 58 112 87 96 68 329 261 496 412 17 16 62 53 100 83 l69 56 3 -68 c5
-109 -25 -273 -84 -448 -37 -111 -78 -189 -181 -345 -166 -250 -205 -324 -205
-378 0 -123 115 -203 224 -155 68 31 142 139 297 431 152 289 231 487 272 689
18 90 21 127 16 271 -5 184 -19 249 -64 303 -55 64 -154 85 -259 54 -54 -16
-158 -83 -269 -174 -38 -32 -76 -61 -84 -66 -18 -10 -15 -5 69 115 136 197
161 249 167 355 4 65 1 90 -16 136 -54 142 -199 205 -378 164z"/>
<path d="M2937 3979 c-95 -22 -173 -87 -215 -178 -37 -79 -37 -183 0 -263 70
-151 207 -225 421 -229 94 -2 132 12 171 64 29 39 30 140 1 179 -29 40 -89 65
-173 72 -41 3 -88 14 -105 24 l-32 17 48 3 c33 2 74 -5 126 -23 67 -23 83 -25
118 -16 126 34 165 181 71 268 -71 66 -307 111 -431 82z"/>
<path d="M4230 3794 c-62 -12 -153 -50 -197 -83 -155 -118 -156 -346 -1 -486
91 -82 218 -93 354 -31 69 32 161 123 196 196 43 91 82 232 74 273 -9 46 -50
95 -96 115 -35 15 -275 26 -330 16z m40 -303 c0 -10 -45 -41 -60 -41 -19 0
-10 27 13 38 28 13 47 15 47 3z"/>
<path d="M3440 3380 c-72 -24 -142 -99 -195 -206 -50 -102 -58 -173 -23 -223
39 -59 73 -72 190 -74 95 -2 107 0 154 25 102 54 157 147 157 264 -1 110 -60
198 -150 223 -51 15 -69 13 -133 -9z"/>
<path d="M4952 3025 c-18 -8 -59 -35 -91 -60 -183 -140 -252 -337 -179 -507
71 -166 286 -166 440 1 66 71 98 147 105 251 8 110 -12 170 -79 242 -29 30
-62 60 -73 65 -38 19 -89 22 -123 8z"/>
<path d="M4002 2587 c-57 -18 -126 -89 -145 -148 -23 -69 -22 -74 18 -224 19
-71 35 -133 35 -137 0 -4 -24 4 -52 17 -70 32 -126 40 -187 25 -112 -27 -205
-127 -231 -249 -19 -90 -6 -196 49 -415 27 -105 57 -227 66 -270 15 -69 23
-85 59 -121 62 -62 152 -73 241 -31 126 59 171 173 130 326 -20 74 -20 73 21
45 80 -54 154 -56 254 -5 82 41 126 83 163 154 28 55 31 70 31 151 0 78 -6
113 -51 270 -29 99 -66 249 -83 334 -32 159 -43 189 -81 230 -51 54 -154 75
-237 48z"/>
<path d="M2033 2172 c-94 -33 -160 -101 -238 -245 -30 -55 -38 -80 -38 -120 0
-65 23 -121 68 -162 l34 -33 -22 -15 c-39 -25 -127 -120 -165 -177 -101 -153
-123 -379 -57 -586 66 -207 239 -412 430 -509 117 -59 177 -70 370 -69 141 1
184 5 249 23 127 34 250 112 354 225 71 78 86 109 87 183 0 54 -4 67 -33 108
l-32 46 34 41 c48 55 175 308 231 456 125 334 125 522 0 660 -20 23 -62 54
-93 69 -52 25 -67 28 -167 27 -93 0 -123 -5 -195 -28 -82 -27 -269 -116 -398
-190 -42 -24 -64 -31 -67 -23 -2 7 -11 41 -20 76 -8 35 -24 82 -34 105 -55
125 -177 181 -298 138z m943 -544 c-34 -90 -178 -411 -220 -491 -27 -51 -36
-81 -36 -115 0 -58 28 -120 68 -154 l30 -25 -61 -65 c-109 -114 -213 -155
-367 -145 -99 6 -149 24 -240 82 -84 54 -123 96 -155 167 -72 157 -42 363 58
398 44 15 44 15 72 -44 78 -164 187 -223 305 -163 116 58 142 196 59 310 -16
22 -27 43 -24 46 14 24 335 197 440 237 96 37 99 35 71 -38z"/>
</g>
</svg>
