<?xml version="1.0" standalone="no"?>
<!DOCTYPE svg PUBLIC "-//W3C//DTD SVG 20010904//EN"
 "http://www.w3.org/TR/2001/REC-SVG-20010904/DTD/svg10.dtd">
<svg version="1.0" xmlns="http://www.w3.org/2000/svg"
 width="600.000000pt" height="600.000000pt" viewBox="0 0 600.000000 600.000000"
 preserveAspectRatio="xMidYMid meet">
<metadata>
Created by potrace 1.15, written by Peter Selinger 2001-2017
</metadata>
<g transform="translate(0.000000,600.000000) scale(0.100000,-0.100000)"
fill="#16364b" stroke="none">
<path d="M2365 5390 c-17 -18 -19 -42 -20 -233 -1 -171 -4 -225 -19 -277 -42
-152 -108 -240 -253 -335 -45 -30 -87 -63 -93 -74 -26 -50 0 -111 48 -111 20
0 127 60 182 102 101 78 174 174 217 286 40 108 53 195 59 407 6 195 6 201
-15 228 -28 34 -79 37 -106 7z"/>
<path d="M3528 5303 c-9 -10 -21 -34 -28 -53 -10 -30 -9 -41 9 -83 46 -106
136 -214 203 -241 54 -23 76 -20 110 14 28 28 30 35 26 85 -8 90 -112 240
-193 276 -52 24 -107 24 -127 2z"/>
<path d="M2985 5081 c-111 -52 -184 -211 -140 -305 45 -95 186 -85 291 20 101
102 98 246 -6 288 -52 21 -96 20 -145 -3z m85 -127 c0 -33 -82 -125 -97 -110
-11 11 9 60 37 87 25 26 60 39 60 23z"/>
<path d="M4773 4740 c-45 -18 -54 -49 -60 -202 -9 -232 28 -390 108 -463 29
-26 48 -35 75 -35 163 0 195 268 64 548 -68 145 -113 182 -187 152z"/>
<path d="M2673 4230 c-105 -24 -142 -123 -85 -230 31 -60 98 -113 165 -131 56
-15 211 -6 262 16 71 30 132 75 145 106 19 44 7 107 -27 140 -23 23 -54 34
-178 62 -167 39 -234 48 -282 37z"/>
<path d="M5251 3969 c-106 -21 -195 -96 -227 -191 -23 -70 -15 -185 17 -253
27 -59 109 -145 165 -173 91 -46 209 -49 299 -6 91 43 173 173 182 288 10 121
-46 217 -168 290 -87 52 -166 65 -268 45z m115 -299 c26 -10 26 -11 9 -30 -23
-25 -51 -26 -65 -1 -22 41 -1 52 56 31z"/>
<path d="M4185 3757 c-144 -48 -227 -145 -241 -284 -31 -298 366 -431 547
-184 50 67 71 134 76 246 6 130 -7 157 -92 200 -51 26 -72 30 -155 32 -59 2
-110 -2 -135 -10z m105 -265 c0 -18 -33 -52 -51 -52 -24 0 -24 15 1 40 20 20
50 27 50 12z"/>
<path d="M1130 3444 c-161 -29 -261 -92 -316 -201 -27 -54 -29 -66 -29 -168 0
-101 2 -115 28 -168 36 -73 106 -143 183 -184 74 -39 116 -50 238 -63 209 -22
244 -69 389 -520 47 -146 99 -319 117 -385 99 -378 213 -507 524 -591 182 -48
629 -81 941 -69 115 5 363 9 550 10 355 1 365 2 598 54 164 38 375 125 497
207 243 163 393 487 394 854 1 198 -41 294 -199 454 -214 217 -363 291 -590
290 -226 -1 -420 -80 -696 -281 -175 -128 -237 -160 -338 -175 -98 -14 -174
-2 -290 42 -107 41 -206 102 -728 443 -296 193 -460 279 -656 342 -230 74
-523 126 -617 109z m195 -374 c292 -57 602 -201 987 -458 169 -113 445 -280
546 -331 166 -83 324 -121 507 -121 181 0 318 50 500 181 252 183 302 212 425
250 53 17 100 23 160 24 76 0 92 -3 150 -32 126 -62 240 -188 274 -303 20 -69
21 -204 0 -283 -21 -81 -73 -182 -123 -239 -83 -94 -275 -196 -460 -244 -254
-66 -272 -67 -819 -72 -329 -2 -531 0 -585 8 -45 6 -136 15 -202 20 -177 15
-349 46 -416 76 -114 52 -156 123 -218 372 -99 396 -183 636 -273 778 -78 124
-241 250 -366 284 -24 6 -77 15 -117 19 -115 13 -191 64 -125 82 38 11 42 10
155 -11z"/>
<path d="M2209 2313 c-27 -7 -43 -47 -30 -72 17 -31 57 -54 81 -46 19 6 50 52
50 75 0 5 -9 19 -20 30 -19 19 -45 23 -81 13z"/>
<path d="M2867 2062 c-10 -10 -17 -32 -17 -49 0 -25 7 -36 36 -54 l36 -22 26
20 c37 28 42 85 10 107 -30 21 -71 20 -91 -2z"/>
<path d="M3410 3342 c-42 -45 -150 -251 -150 -288 0 -39 42 -74 89 -74 35 0
47 6 85 45 49 51 112 172 125 239 9 50 -6 99 -34 110 -43 16 -78 6 -115 -32z"/>
<path d="M500 2063 c-56 -21 -65 -74 -22 -125 15 -18 41 -51 57 -73 65 -88
135 -135 200 -135 48 0 70 13 85 49 25 60 -23 130 -140 204 -52 32 -156 88
-162 86 -2 0 -10 -3 -18 -6z"/>
<path d="M5340 1117 c-54 -26 -98 -180 -68 -237 8 -14 30 -34 50 -45 35 -18
40 -19 80 -5 60 21 88 77 88 178 0 64 -3 76 -25 97 -27 28 -83 33 -125 12z"/>
</g>
</svg>
