<?xml version="1.0" standalone="no"?>
<!DOCTYPE svg PUBLIC "-//W3C//DTD SVG 20010904//EN"
 "http://www.w3.org/TR/2001/REC-SVG-20010904/DTD/svg10.dtd">
<svg version="1.0" xmlns="http://www.w3.org/2000/svg"
 width="600.000000pt" height="600.000000pt" viewBox="0 0 600.000000 600.000000"
 preserveAspectRatio="xMidYMid meet">
<metadata>
Created by potrace 1.15, written by Peter Selinger 2001-2017
</metadata>
<g transform="translate(0.000000,600.000000) scale(0.100000,-0.100000)"
fill="#16364b" stroke="none">
<path d="M2111 5289 c-88 -31 -152 -87 -198 -174 l-27 -50 4 -545 c8 -964 4
-1250 -19 -1479 -12 -112 -22 -206 -24 -208 -7 -6 -176 -32 -307 -47 -144 -16
-311 -23 -327 -13 -6 4 -13 20 -16 37 -5 22 -12 30 -28 30 -19 0 -21 -4 -14
-37 l7 -38 -24 20 c-12 11 -34 29 -48 42 -17 15 -30 19 -40 13 -12 -8 -12 -14
5 -47 11 -21 21 -42 23 -46 3 -5 -18 -7 -44 -5 -60 4 -67 -18 -16 -44 47 -23
48 -26 11 -36 -24 -6 -34 -14 -34 -28 0 -18 8 -19 220 -17 189 1 347 12 573
39 l52 7 0 -156 c0 -156 17 -361 45 -537 41 -255 121 -422 268 -556 87 -80
170 -127 293 -166 l102 -33 -6 -30 c-4 -16 -7 -93 -6 -170 0 -152 16 -228 85
-415 18 -47 34 -97 36 -113 l5 -27 -76 0 c-118 0 -176 -35 -176 -106 0 -67 84
-112 184 -99 185 26 268 129 216 270 -94 256 -125 401 -116 540 3 50 8 101 12
114 7 22 9 23 63 15 31 -5 259 -9 506 -9 395 0 450 -2 446 -15 -2 -8 -6 -76
-9 -151 -6 -167 8 -270 55 -404 33 -97 49 -155 42 -155 -69 -4 -185 -22 -207
-34 -35 -18 -66 -77 -56 -109 20 -66 81 -85 198 -62 136 28 214 82 237 168 10
38 7 52 -34 177 -25 74 -52 177 -61 229 -16 93 -20 278 -7 336 l6 29 145 18
c80 9 176 24 213 32 200 45 376 212 443 420 25 75 26 93 26 251 -2 247 -47
466 -131 640 -41 83 -177 256 -232 296 -17 11 -29 23 -27 25 2 2 47 8 99 14
155 17 278 40 379 72 52 16 105 31 118 33 28 4 172 93 172 106 0 5 -6 12 -14
15 -8 3 -11 15 -8 30 4 21 1 24 -23 24 -24 0 -26 2 -15 15 10 12 10 19 1 28
-9 9 -21 7 -51 -11 -49 -28 -50 -28 -50 4 0 19 -5 25 -17 22 -13 -2 -19 -14
-21 -40 -3 -36 -4 -37 -80 -62 -165 -55 -334 -84 -532 -92 l-145 -6 -123 97
c-68 53 -154 121 -190 151 -161 132 -280 220 -389 289 -265 166 -314 200 -374
259 -101 99 -158 197 -245 424 -103 266 -136 385 -165 592 -25 184 -67 278
-165 369 -79 75 -145 101 -247 100 -44 0 -93 -8 -126 -20z m187 -145 c92 -38
171 -173 172 -293 0 -19 4 -48 10 -65 5 -17 16 -71 25 -119 21 -115 65 -242
158 -460 192 -445 242 -503 627 -733 187 -111 308 -199 507 -369 138 -118 167
-141 293 -237 126 -97 259 -231 318 -321 36 -55 57 -104 85 -198 57 -192 67
-252 68 -421 0 -128 -3 -164 -20 -218 -38 -121 -130 -227 -244 -281 -86 -40
-315 -78 -527 -88 -246 -11 -884 -7 -955 7 -33 6 -105 16 -160 21 -199 20
-309 65 -416 171 -152 149 -210 363 -240 890 -13 228 -9 354 21 635 30 275 43
664 28 833 -6 76 -13 337 -15 582 -2 245 -4 462 -4 482 -3 138 141 236 269
182z"/>
<path d="M2625 2816 c-13 -19 -14 -29 -6 -45 14 -26 50 -51 73 -51 44 0 77 77
46 108 -7 7 -31 12 -55 12 -34 0 -46 -5 -58 -24z"/>
<path d="M3142 2754 c-29 -20 -29 -64 1 -92 31 -29 61 -28 86 4 26 33 27 58 1
84 -24 24 -57 26 -88 4z"/>
<path d="M2860 1846 c-16 -16 -11 -42 11 -62 19 -17 36 -19 152 -17 123 1 133
3 150 24 15 19 16 24 4 43 -14 20 -23 21 -161 21 -81 0 -151 -4 -156 -9z"/>
</g>
</svg>
