<?xml version="1.0" standalone="no"?>
<!DOCTYPE svg PUBLIC "-//W3C//DTD SVG 20010904//EN"
 "http://www.w3.org/TR/2001/REC-SVG-20010904/DTD/svg10.dtd">
<svg version="1.0" xmlns="http://www.w3.org/2000/svg"
 width="600.000000pt" height="600.000000pt" viewBox="0 0 600.000000 600.000000"
 preserveAspectRatio="xMidYMid meet">
<metadata>
Created by potrace 1.15, written by Peter Selinger 2001-2017
</metadata>
<g transform="translate(0.000000,600.000000) scale(0.100000,-0.100000)"
fill="#16364b" stroke="none">
<path d="M2123 5694 c-48 -24 -565 -539 -609 -608 -33 -50 -39 -68 -42 -125
-3 -59 0 -71 26 -112 89 -139 303 -127 799 42 97 33 186 68 199 77 38 29 57
71 57 129 0 58 -16 90 -64 126 -54 40 -88 34 -313 -47 -116 -41 -211 -74 -213
-73 -3 4 188 190 304 297 66 60 83 82 88 113 14 76 -20 148 -86 182 -37 19
-106 19 -146 -1z"/>
<path d="M3106 5689 c-42 -12 -85 -57 -97 -103 -8 -31 -7 -48 5 -81 23 -58 46
-77 164 -128 302 -133 420 -297 336 -466 -41 -82 -120 -137 -357 -246 -108
-50 -125 -180 -34 -261 38 -35 42 -36 101 -32 49 3 83 14 176 60 144 71 265
167 337 266 71 99 95 166 101 278 11 234 -82 387 -335 546 -213 135 -333 186
-397 167z"/>
<path d="M1001 5310 c-169 -94 -283 -231 -322 -384 -29 -117 7 -307 83 -432
41 -68 142 -172 185 -190 93 -39 196 15 223 116 18 67 -2 114 -75 185 -66 63
-115 146 -115 196 0 83 46 147 159 222 36 23 73 53 83 67 68 93 -2 237 -120
247 -38 3 -57 -2 -101 -27z"/>
<path d="M4735 4879 c-57 -16 -92 -65 -114 -160 -18 -78 -19 -91 -6 -153 20
-94 78 -210 134 -266 25 -25 73 -59 106 -76 53 -26 71 -29 150 -29 78 0 97 4
141 27 92 49 134 120 134 231 0 139 -98 267 -270 350 -101 50 -203 88 -229 86
-9 0 -30 -5 -46 -10z"/>
<path d="M2810 4868 c-56 -14 -189 -116 -242 -185 -90 -119 -120 -265 -78
-378 40 -108 150 -192 300 -231 71 -18 109 -12 152 24 59 49 73 118 37 182
-22 39 -48 56 -133 86 -68 23 -89 46 -75 81 14 38 53 77 120 123 65 45 89 87
89 155 0 103 -75 166 -170 143z"/>
<path d="M1831 4365 c-122 -34 -258 -128 -320 -222 -34 -51 -41 -117 -18 -163
20 -39 74 -70 124 -70 56 0 74 10 149 79 42 40 76 62 114 74 53 17 56 17 122
-4 58 -19 73 -21 106 -11 77 23 122 82 122 160 0 57 -34 101 -105 137 -52 26
-73 30 -150 32 -56 2 -110 -3 -144 -12z"/>
<path d="M2520 3799 c-52 -11 -111 -28 -130 -37 -109 -53 -106 -218 5 -272 52
-25 82 -25 170 0 38 11 105 23 147 26 l78 7 0 -29 c0 -38 -74 -176 -184 -344
-106 -161 -159 -231 -249 -329 -92 -99 -104 -136 -71 -207 32 -67 114 -102
193 -82 87 22 272 237 439 510 146 240 200 378 188 482 -13 111 -112 234 -221
275 -74 28 -232 28 -365 0z"/>
<path d="M4160 3764 c-157 -42 -262 -163 -262 -300 -1 -111 71 -217 181 -271
47 -23 69 -28 136 -28 70 0 89 4 148 32 97 46 176 128 229 238 41 86 41 86 30
151 -12 72 -44 124 -91 148 -39 21 -183 46 -255 45 -33 0 -86 -7 -116 -15z
m80 -299 c-14 -16 -50 -21 -50 -6 0 11 18 19 44 20 15 1 16 -2 6 -14z"/>
<path d="M1143 3671 c-39 -10 -123 -43 -186 -74 -100 -49 -118 -62 -146 -103
-96 -145 -12 -310 148 -291 25 3 56 9 68 12 22 7 22 6 -8 -61 -106 -234 -227
-573 -260 -730 -36 -174 -23 -255 51 -317 52 -44 153 -60 212 -34 26 12 581
572 685 692 28 33 54 57 58 54 7 -8 -29 -262 -50 -353 -9 -38 -45 -156 -80
-262 -92 -282 -149 -503 -141 -548 20 -104 147 -149 241 -84 44 29 50 45 139
338 112 366 139 476 179 735 26 166 30 415 8 480 -32 96 -103 155 -187 155
-93 0 -172 -61 -391 -302 -75 -82 -137 -147 -139 -145 -2 2 16 51 39 108 106
252 149 431 128 528 -23 109 -83 179 -175 206 -63 19 -103 18 -193 -4z"/>
<path d="M3510 3335 c-60 -31 -126 -103 -156 -171 -32 -72 -55 -208 -44 -257
23 -102 99 -146 220 -126 227 37 310 82 366 195 51 105 23 242 -64 314 -86 71
-233 92 -322 45z"/>
<path d="M4825 2741 c-38 -10 -83 -23 -99 -30 -53 -21 -116 -74 -149 -125 -29
-46 -32 -58 -32 -126 0 -41 4 -90 9 -109 l8 -35 -33 29 c-19 15 -48 34 -66 42
-47 19 -132 17 -173 -6 -50 -26 -96 -91 -111 -155 -10 -48 -9 -67 9 -151 l20
-97 -21 5 c-12 3 -67 17 -122 32 -189 50 -348 23 -444 -75 -97 -100 -110 -240
-56 -640 20 -147 29 -174 77 -226 52 -57 108 -78 192 -72 153 9 222 126 187
314 -5 27 -13 87 -17 133 l-7 84 28 -7 c16 -4 58 -21 94 -38 83 -39 119 -43
226 -28 153 22 267 96 319 209 18 40 21 63 20 176 -1 115 -5 145 -36 263 l-35
132 31 -25 c159 -131 346 -69 406 134 29 100 34 170 16 222 -9 24 -16 55 -16
68 0 37 -41 89 -83 106 -46 18 -54 18 -142 -4z"/>
<path d="M2870 2441 c-98 -23 -162 -44 -292 -97 -217 -88 -275 -130 -298 -216
-23 -82 6 -161 76 -214 33 -25 46 -29 103 -29 54 1 77 7 127 32 138 72 366
155 381 139 20 -20 -96 -320 -172 -446 -33 -54 -38 -71 -38 -121 0 -145 148
-243 271 -180 55 29 94 75 157 187 96 172 148 325 175 512 34 227 -32 381
-184 434 -66 23 -205 22 -306 -1z"/>
<path d="M2083 1889 c-93 -36 -153 -129 -134 -209 18 -79 54 -120 133 -153 40
-17 40 -17 88 -199 l23 -87 -27 -32 c-52 -61 -69 -109 -74 -199 -7 -138 32
-226 168 -387 83 -97 161 -155 305 -224 179 -85 248 -104 375 -102 122 1 203
25 317 91 108 64 145 113 145 193 0 97 -76 163 -187 164 -49 0 -75 -7 -135
-35 -100 -47 -186 -49 -272 -7 -31 15 -61 27 -67 27 -26 0 -18 21 14 36 20 9
48 33 63 52 24 31 27 45 27 107 0 62 -4 78 -27 110 -14 21 -44 49 -66 64 -47
31 -133 124 -154 166 -9 17 -43 113 -77 215 -33 102 -76 217 -94 255 -36 75
-95 137 -153 161 -47 20 -130 17 -191 -7z"/>
</g>
</svg>
