<?xml version="1.0" standalone="no"?>
<!DOCTYPE svg PUBLIC "-//W3C//DTD SVG 20010904//EN"
 "http://www.w3.org/TR/2001/REC-SVG-20010904/DTD/svg10.dtd">
<svg version="1.0" xmlns="http://www.w3.org/2000/svg"
 width="600.000000pt" height="600.000000pt" viewBox="0 0 600.000000 600.000000"
 preserveAspectRatio="xMidYMid meet">
<metadata>
Created by potrace 1.15, written by Peter Selinger 2001-2017
</metadata>
<g transform="translate(0.000000,600.000000) scale(0.100000,-0.100000)"
fill="#16364b" stroke="none">
<path d="M1506 5769 c-53 -41 -126 -336 -127 -510 0 -134 17 -194 68 -239 64
-57 118 -64 198 -26 72 33 149 122 300 346 110 161 130 197 130 229 0 100
-118 154 -199 90 -14 -11 -47 -53 -72 -92 -46 -72 -139 -203 -157 -222 -16
-17 1 71 39 203 l35 123 -20 42 c-11 23 -34 50 -50 60 -41 24 -112 22 -145 -4z"/>
<path d="M891 5519 c-166 -28 -314 -189 -340 -370 -16 -118 16 -215 100 -299
81 -81 152 -89 216 -25 29 29 33 39 33 85 0 51 -2 54 -56 107 -55 52 -56 55
-51 99 6 61 48 120 102 146 42 20 45 21 87 5 81 -31 147 -15 182 43 18 32 21
88 5 122 -15 34 -65 65 -134 83 -65 17 -66 17 -144 4z"/>
<path d="M3415 5416 c-93 -42 -106 -147 -26 -204 22 -15 46 -31 55 -37 15 -9
14 -14 -1 -56 -16 -44 -16 -49 2 -95 23 -61 111 -151 180 -184 27 -13 75 -26
105 -28 45 -3 61 0 89 20 82 56 96 126 47 233 -55 120 -143 216 -277 301 -96
60 -130 70 -174 50z"/>
<path d="M2335 5252 c-65 -30 -78 -59 -87 -197 -20 -294 -50 -357 -216 -444
-104 -54 -132 -85 -132 -141 0 -60 60 -120 119 -120 29 0 193 83 255 130 115
84 181 187 212 326 8 38 17 139 21 225 l6 156 -34 36 c-43 46 -88 55 -144 29z"/>
<path d="M2963 5160 c-48 -15 -135 -101 -167 -164 -19 -37 -30 -77 -33 -118
-4 -55 -1 -70 24 -118 52 -102 150 -127 293 -74 98 37 125 66 140 152 25 138
0 238 -73 296 -30 24 -48 30 -95 32 -31 2 -71 -1 -89 -6z"/>
<path d="M4742 4766 l-37 -34 -3 -145 c-2 -80 1 -169 6 -198 37 -199 148 -309
312 -309 39 0 85 6 104 14 108 45 175 185 146 309 -18 76 -45 124 -108 189
-52 54 -188 156 -259 192 -18 9 -53 16 -78 16 -38 0 -52 -6 -83 -34z m268
-420 c-1 -6 -10 0 -20 13 -11 13 -20 28 -20 35 1 6 10 0 20 -13 11 -13 20 -28
20 -35z"/>
<path d="M2745 4193 c-130 -29 -209 -120 -209 -243 0 -109 57 -200 154 -243
69 -31 192 -28 295 7 97 33 223 99 276 144 65 56 66 145 1 212 -80 82 -380
154 -517 123z"/>
<path d="M1043 4070 c-83 -42 -111 -147 -58 -216 34 -44 51 -52 143 -70 42 -8
99 -21 125 -30 l49 -16 -23 -24 c-25 -27 -234 -135 -391 -204 -65 -28 -108
-53 -127 -76 -52 -58 -54 -147 -5 -211 53 -70 108 -70 268 -2 67 29 160 72
208 95 48 24 89 44 92 44 2 0 7 -16 10 -35 9 -47 47 -89 98 -110 48 -19 95
-14 146 16 l34 19 29 -24 c73 -61 214 -84 295 -47 111 51 147 213 70 314 -78
103 -240 149 -390 111 l-25 -6 20 51 c73 194 -48 346 -326 409 -149 34 -193
36 -242 12z"/>
<path d="M4260 3780 c-165 -30 -274 -122 -316 -266 -32 -111 -5 -215 77 -288
66 -60 121 -81 214 -81 71 0 88 4 147 33 135 66 216 203 243 409 13 98 -30
162 -122 181 -72 16 -192 22 -243 12z m50 -300 c0 -13 -41 -50 -57 -50 -16 0
-17 12 0 32 18 23 57 36 57 18z"/>
<path d="M5153 3479 c-68 -13 -172 -68 -220 -116 -25 -24 -57 -70 -71 -101
-23 -49 -27 -70 -27 -152 0 -89 2 -99 34 -158 38 -70 96 -123 155 -142 127
-41 305 52 387 203 32 57 34 69 34 152 0 104 -15 140 -92 227 -74 84 -116 103
-200 87z"/>
<path d="M3453 3400 c-73 -17 -118 -68 -195 -227 -56 -112 -57 -139 -12 -193
35 -40 78 -53 143 -40 68 13 112 40 151 93 88 120 98 297 18 349 -32 21 -67
27 -105 18z"/>
<path d="M2383 3152 c-120 -43 -179 -122 -258 -342 -58 -161 -100 -214 -230
-287 -64 -35 -211 -159 -263 -220 -113 -136 -242 -400 -276 -566 -45 -215 20
-493 156 -673 131 -173 509 -329 755 -310 376 28 641 209 814 556 52 105 84
215 118 403 55 303 63 523 25 686 -20 88 -81 213 -142 291 -28 36 -77 103
-109 150 -89 129 -202 239 -296 285 -68 34 -89 39 -160 42 -61 3 -95 -1 -134
-15z m251 -517 c15 -32 58 -92 96 -136 115 -130 143 -209 142 -404 -1 -181
-59 -456 -127 -600 -148 -316 -484 -442 -774 -290 -242 127 -311 391 -170 654
76 142 148 217 339 356 165 120 259 244 329 431 16 43 35 92 42 108 l13 29 42
-46 c22 -25 53 -71 68 -102z"/>
<path d="M674 2531 c-44 -27 -64 -59 -64 -104 0 -67 18 -88 115 -138 210 -109
337 -267 305 -379 -32 -113 -159 -30 -253 165 -27 55 -54 111 -60 125 -28 57
-124 75 -181 34 -35 -26 -57 -84 -47 -122 16 -55 104 -215 161 -291 127 -171
260 -245 394 -220 174 33 290 220 256 411 -34 192 -184 355 -458 495 -92 48
-122 52 -168 24z"/>
<path d="M4213 2170 c-44 -19 -78 -62 -88 -112 -4 -15 -8 -28 -9 -28 -2 0 -18
8 -37 17 -19 10 -55 18 -80 18 -96 0 -157 -87 -146 -208 7 -79 74 -383 92
-417 18 -35 54 -66 96 -84 20 -8 42 -22 49 -31 8 -9 35 -27 62 -41 125 -63
267 7 297 147 7 29 11 171 11 342 0 284 -1 293 -23 331 -26 47 -94 86 -146 86
-20 0 -55 -9 -78 -20z"/>
</g>
</svg>
