<?xml version="1.0" standalone="no"?>
<!DOCTYPE svg PUBLIC "-//W3C//DTD SVG 20010904//EN"
 "http://www.w3.org/TR/2001/REC-SVG-20010904/DTD/svg10.dtd">
<svg version="1.0" xmlns="http://www.w3.org/2000/svg"
 width="600.000000pt" height="600.000000pt" viewBox="0 0 600.000000 600.000000"
 preserveAspectRatio="xMidYMid meet">
<metadata>
Created by potrace 1.15, written by Peter Selinger 2001-2017
</metadata>
<g transform="translate(0.000000,600.000000) scale(0.100000,-0.100000)"
fill="#16364b" stroke="none">
<path d="M2028 5814 c-42 -18 -130 -125 -365 -444 -182 -247 -192 -264 -200
-327 -7 -63 21 -123 75 -157 129 -85 276 -43 622 176 36 22 115 68 175 101
120 65 149 88 171 129 31 60 6 144 -56 186 -30 20 -44 23 -95 20 -51 -4 -77
-14 -173 -67 -62 -35 -115 -61 -117 -59 -2 2 35 51 82 108 47 58 91 119 99
137 58 133 -77 255 -218 197z"/>
<path d="M3045 5678 c-64 -35 -91 -93 -75 -162 13 -57 51 -90 156 -135 194
-82 312 -169 367 -270 34 -61 61 -183 52 -231 -11 -57 -51 -99 -124 -132 -36
-16 -82 -37 -101 -46 -125 -62 -96 -246 43 -269 71 -11 264 73 345 150 45 43
97 130 116 196 20 68 21 222 1 313 -44 211 -209 397 -448 508 -167 77 -284
105 -332 78z"/>
<path d="M943 5365 c-294 -80 -437 -420 -294 -702 55 -111 183 -227 264 -240
81 -13 164 59 174 151 7 61 -17 105 -86 159 -152 117 -129 282 45 333 96 28
146 99 131 189 -8 47 -34 81 -83 105 -47 23 -79 24 -151 5z"/>
<path d="M2775 4981 c-72 -23 -133 -83 -174 -171 -23 -48 -26 -68 -26 -155 0
-92 2 -104 30 -154 59 -106 151 -153 305 -155 114 -1 162 16 200 71 70 103 -7
223 -135 210 -64 -7 -105 1 -105 20 0 12 8 13 39 8 104 -17 198 85 171 185
-12 44 -70 102 -130 129 -45 20 -132 27 -175 12z"/>
<path d="M4775 4898 c-87 -58 -98 -106 -70 -308 23 -170 55 -257 122 -331 113
-125 294 -124 407 2 87 96 100 230 38 363 -67 142 -264 292 -397 304 -44 3
-56 0 -100 -30z"/>
<path d="M1859 4586 c-109 -42 -190 -105 -209 -162 -24 -72 12 -152 84 -185
56 -25 95 -24 147 6 24 14 59 32 78 41 32 15 34 14 57 -7 13 -12 24 -28 24
-34 0 -17 61 -72 93 -84 44 -17 90 -13 137 12 112 59 105 194 -18 320 -73 75
-136 100 -257 104 -67 2 -112 -2 -136 -11z"/>
<path d="M2949 3946 c-96 -34 -166 -109 -212 -227 -61 -154 -57 -293 13 -436
63 -128 144 -187 233 -167 72 15 121 77 119 150 0 47 -12 74 -53 121 -40 46
-55 128 -37 201 l13 57 47 7 c59 8 92 32 119 85 65 132 -88 264 -242 209z"/>
<path d="M1125 3880 c-192 -37 -226 -51 -270 -110 -93 -126 19 -303 193 -304
34 0 62 -1 62 -2 0 -9 -146 -260 -227 -391 -184 -299 -270 -495 -261 -595 13
-131 152 -207 265 -145 89 48 355 259 515 408 176 164 313 279 333 279 21 0
-85 -432 -139 -570 -44 -110 -190 -396 -265 -519 -35 -58 -51 -95 -51 -119 0
-129 162 -208 259 -126 48 40 199 323 304 569 65 153 108 295 137 455 12 63
28 141 36 172 24 97 36 255 22 322 -23 118 -107 196 -212 196 -78 0 -154 -43
-331 -185 -86 -69 -154 -120 -149 -113 4 7 34 53 66 101 111 165 178 323 178
417 0 64 -29 139 -71 185 -80 87 -207 111 -394 75z"/>
<path d="M4308 3790 c-240 -28 -398 -163 -398 -340 1 -108 61 -204 164 -258
45 -24 62 -27 146 -27 120 0 167 21 263 116 55 55 76 86 116 171 91 191 96
241 33 302 -44 42 -161 55 -324 36z m-38 -299 c0 -12 -40 -41 -57 -41 -22 0
-14 19 15 34 32 18 42 19 42 7z"/>
<path d="M3443 3373 c-55 -19 -127 -98 -163 -178 -83 -184 -77 -273 20 -327
29 -16 51 -19 130 -16 80 3 104 8 150 32 192 96 246 303 114 432 -70 68 -162
89 -251 57z"/>
<path d="M4895 2946 c-36 -16 -150 -127 -205 -200 -59 -78 -92 -159 -97 -241
-4 -62 -1 -76 24 -125 72 -140 247 -158 400 -42 121 92 165 171 171 308 6 129
-10 174 -87 242 -84 74 -137 88 -206 58z"/>
<path d="M4065 2541 c-82 -37 -146 -144 -144 -240 0 -20 15 -88 33 -151 18
-63 32 -117 30 -119 -2 -2 -27 6 -56 17 -62 25 -131 41 -174 42 -99 1 -207
-72 -259 -177 -29 -56 -30 -62 -29 -193 1 -131 2 -142 58 -354 62 -236 78
-271 147 -318 77 -52 193 -52 257 -1 85 69 98 143 57 317 -15 64 -24 120 -21
124 4 3 19 -9 33 -27 30 -38 113 -81 159 -81 45 0 152 38 211 76 111 71 163
206 143 372 -12 96 -43 227 -96 402 -19 63 -42 138 -51 167 -40 134 -176 200
-298 144z"/>
<path d="M2960 2189 c-112 -12 -231 -62 -437 -182 -62 -36 -121 -71 -132 -77
-18 -9 -23 -5 -45 39 -53 104 -140 157 -245 149 -78 -5 -139 -43 -209 -128
-86 -105 -107 -146 -107 -210 0 -100 65 -171 176 -194 61 -12 64 -14 67 -44 2
-24 -1 -32 -13 -32 -37 0 -133 -57 -185 -109 -100 -102 -146 -239 -137 -411 6
-114 40 -226 94 -319 79 -133 262 -298 406 -365 125 -58 194 -71 362 -71 138
0 156 3 230 28 112 39 208 99 292 181 62 62 72 77 78 117 19 128 -71 238 -193
239 -68 0 -103 -16 -177 -80 -115 -99 -209 -130 -325 -106 -93 20 -139 45
-224 126 -57 54 -80 86 -106 142 -48 103 -54 213 -14 252 29 29 50 18 107 -58
132 -175 249 -209 352 -102 88 91 85 212 -8 292 -49 42 -85 102 -112 186 -24
76 -22 88 20 88 11 0 58 23 105 51 145 88 242 139 327 175 45 19 84 34 87 34
19 0 -13 -126 -66 -260 -30 -77 -111 -242 -155 -318 -22 -37 -25 -52 -21 -111
3 -56 9 -75 31 -105 81 -106 235 -92 315 29 18 28 72 129 120 225 219 435 239
694 65 851 -73 66 -183 92 -323 78z"/>
</g>
</svg>
