<?xml version="1.0" standalone="no"?>
<!DOCTYPE svg PUBLIC "-//W3C//DTD SVG 20010904//EN"
 "http://www.w3.org/TR/2001/REC-SVG-20010904/DTD/svg10.dtd">
<svg version="1.0" xmlns="http://www.w3.org/2000/svg"
 width="600.000000pt" height="600.000000pt" viewBox="0 0 600.000000 600.000000"
 preserveAspectRatio="xMidYMid meet">
<metadata>
Created by potrace 1.15, written by Peter Selinger 2001-2017
</metadata>
<g transform="translate(0.000000,600.000000) scale(0.100000,-0.100000)"
fill="#16364b" stroke="none">
<path d="M2176 5451 c-65 -34 -104 -110 -113 -222 -5 -57 -2 -74 19 -120 53
-115 134 -157 282 -145 45 4 102 10 129 13 32 4 47 2 47 -6 0 -6 -33 -84 -74
-174 -154 -338 -174 -434 -103 -504 43 -44 113 -56 165 -29 41 21 56 44 88
141 25 76 65 161 182 387 59 115 81 209 63 274 -25 93 -116 173 -221 195 -33
7 -98 9 -166 6 l-110 -5 3 51 c9 113 -95 188 -191 138z"/>
<path d="M3750 5339 c-116 -15 -195 -56 -221 -115 -25 -56 -13 -110 32 -148
50 -42 83 -44 208 -14 49 11 54 11 68 -7 27 -37 -1 -169 -73 -343 -40 -97 -43
-146 -11 -192 63 -94 202 -98 257 -7 23 37 94 256 110 340 17 86 14 217 -6
280 -48 153 -184 230 -364 206z"/>
<path d="M1654 4860 c-94 -24 -382 -154 -417 -188 -79 -75 -48 -200 60 -237
36 -12 38 -15 39 -57 3 -115 33 -133 331 -191 127 -26 271 -60 320 -77 48 -16
105 -30 126 -30 97 0 168 90 147 186 -13 58 -51 89 -155 123 -113 37 -361 99
-433 108 -92 10 -73 26 69 54 30 6 93 8 144 4 111 -7 148 8 183 75 27 53 27
82 3 136 -23 51 -71 88 -133 103 -69 16 -203 13 -284 -9z"/>
<path d="M3210 4384 c-19 -8 -132 -51 -250 -95 -247 -92 -391 -151 -438 -179
-115 -70 -87 -276 41 -297 30 -4 57 4 150 45 62 29 187 78 277 110 213 76 370
141 394 161 30 26 46 67 46 119 0 114 -111 183 -220 136z"/>
<path d="M4242 4330 c-83 -52 -80 -189 5 -246 26 -17 52 -22 150 -27 128 -7
183 -18 204 -44 20 -24 16 -148 -11 -286 -12 -65 -20 -134 -17 -153 19 -113
149 -159 231 -81 27 27 37 48 58 137 39 156 51 248 46 348 -3 76 -9 100 -36
155 -37 74 -89 125 -167 161 -74 35 -144 47 -295 53 -124 4 -138 3 -168 -17z"/>
<path d="M2035 3843 c-166 -39 -207 -45 -328 -48 -162 -5 -189 -15 -225 -85
-39 -76 -13 -171 60 -215 29 -17 50 -20 168 -19 137 0 247 14 479 60 180 36
212 61 219 171 4 56 1 68 -22 104 -29 43 -92 79 -136 77 -14 0 -110 -21 -215
-45z"/>
<path d="M3765 3783 c-70 -9 -175 -54 -435 -185 -185 -93 -283 -148 -298 -167
-34 -43 -37 -88 -10 -140 27 -53 74 -81 134 -81 52 0 179 50 343 136 109 57
123 61 117 42 -29 -96 -8 -158 67 -197 58 -29 121 -23 168 17 59 49 149 283
149 386 -1 89 -62 165 -150 185 -25 6 -47 10 -50 9 -3 0 -18 -3 -35 -5z"/>
<path d="M4915 3306 c-46 -20 -94 -64 -118 -110 -20 -37 -22 -53 -19 -162 3
-142 10 -126 -147 -312 -216 -257 -323 -516 -291 -700 16 -92 45 -156 92 -198
53 -48 101 -67 168 -67 151 0 254 148 210 302 -12 41 0 98 35 176 19 40 62 93
151 187 137 144 192 225 232 345 23 69 26 94 26 218 0 124 -2 146 -22 190 -30
65 -56 93 -117 121 -57 27 -150 32 -200 10z"/>
<path d="M2015 3211 c-91 -41 -111 -149 -43 -227 50 -57 80 -64 263 -64 90 0
171 -3 179 -6 13 -5 15 -14 10 -40 -15 -81 28 -153 104 -174 54 -14 110 0 157
41 94 83 80 294 -27 396 -74 72 -172 93 -433 93 -144 0 -176 -3 -210 -19z"/>
<path d="M4302 3170 c-13 -6 -57 -40 -97 -78 -40 -37 -98 -82 -129 -100 -124
-75 -399 -183 -501 -197 -75 -10 -132 -33 -159 -66 -92 -109 -18 -259 126
-259 112 0 472 108 615 185 131 69 253 173 317 269 46 69 29 170 -38 221 -36
28 -100 39 -134 25z"/>
<path d="M1270 3001 c-109 -58 -137 -189 -61 -285 34 -43 38 -67 51 -336 5
-107 14 -223 20 -258 22 -128 101 -337 156 -409 58 -77 177 -98 251 -44 43 31
72 83 80 141 4 27 -3 55 -25 106 -61 140 -81 249 -107 591 -21 271 -40 337
-119 430 -67 77 -171 105 -246 64z"/>
<path d="M2084 2500 c-33 -11 -89 -38 -125 -61 -82 -53 -194 -168 -209 -215
-27 -82 14 -169 94 -199 73 -28 109 -16 186 64 66 68 130 121 146 121 5 0 20
-18 34 -40 19 -31 50 -55 98 -76 2 -1 -11 -22 -27 -46 -45 -66 -87 -181 -107
-287 -14 -79 -15 -107 -6 -185 13 -100 49 -220 81 -265 66 -92 232 -75 286 29
22 42 19 80 -14 163 -57 143 -51 243 20 361 22 36 42 79 45 96 13 63 -42 150
-109 173 -18 7 -17 8 2 33 44 56 20 158 -57 244 -87 99 -211 132 -338 90z"/>
<path d="M3650 2174 c-41 -8 -169 -28 -285 -44 -279 -40 -560 -98 -598 -125
-17 -11 -44 -37 -61 -58 -28 -35 -31 -45 -31 -111 0 -64 3 -77 28 -109 36 -48
96 -78 155 -78 26 -1 97 8 157 20 61 11 162 27 225 35 158 21 295 42 425 66
140 25 150 25 189 -5 70 -54 184 -39 245 31 60 67 62 155 7 246 -80 132 -226
175 -456 132z"/>
<path d="M4594 1601 c-22 -10 -68 -43 -103 -74 -78 -69 -109 -80 -335 -112
-99 -14 -200 -30 -225 -36 -144 -31 -298 -102 -456 -210 -172 -117 -225 -172
-225 -236 l0 -28 -77 0 c-74 -1 -82 -3 -156 -47 -137 -81 -239 -88 -370 -25
-85 40 -147 86 -263 193 -99 91 -140 113 -207 114 -105 0 -187 -76 -187 -175
0 -69 22 -105 119 -197 309 -293 505 -391 755 -375 163 10 329 68 440 152 50
39 85 99 86 147 0 25 2 26 34 21 67 -11 103 5 189 79 190 164 303 210 604 247
290 35 433 90 559 216 51 50 76 83 84 112 48 159 -115 302 -266 234z"/>
</g>
</svg>
