<?xml version="1.0" standalone="no"?>
<!DOCTYPE svg PUBLIC "-//W3C//DTD SVG 20010904//EN"
 "http://www.w3.org/TR/2001/REC-SVG-20010904/DTD/svg10.dtd">
<svg version="1.0" xmlns="http://www.w3.org/2000/svg"
 width="600.000000pt" height="600.000000pt" viewBox="0 0 600.000000 600.000000"
 preserveAspectRatio="xMidYMid meet">
<metadata>
Created by potrace 1.15, written by Peter Selinger 2001-2017
</metadata>
<g transform="translate(0.000000,600.000000) scale(0.100000,-0.100000)"
fill="#16364b" stroke="none">
<path d="M3078 5650 c-81 -43 -99 -129 -48 -229 65 -130 150 -207 368 -336 63
-37 128 -80 145 -95 l32 -29 -30 -31 c-41 -44 -482 -334 -531 -350 -131 -43
-285 -144 -318 -209 -47 -93 -15 -195 75 -242 50 -25 153 -28 197 -5 41 21 72
74 72 124 0 39 1 41 48 56 26 8 67 20 90 26 26 7 61 27 85 50 23 21 123 92
223 158 288 191 359 278 359 437 0 69 -4 87 -27 126 -42 72 -102 125 -255 225
-150 99 -195 143 -247 241 -40 74 -82 103 -150 103 -30 -1 -66 -9 -88 -20z"/>
<path d="M1131 5319 c-178 -92 -326 -302 -350 -497 -21 -174 47 -405 139 -474
61 -45 165 -28 207 35 39 57 39 86 0 174 -43 98 -52 151 -38 227 20 109 90
212 179 263 95 53 132 105 132 182 0 70 -72 131 -154 131 -21 0 -66 -16 -115
-41z"/>
<path d="M1678 5261 c-73 -47 -103 -131 -69 -194 12 -23 11 -30 -22 -84 -107
-178 -132 -301 -83 -404 58 -121 191 -169 411 -148 109 10 172 24 195 42 77
62 85 164 18 233 -45 47 -89 57 -202 43 -53 -7 -99 -10 -102 -7 -3 4 25 68 63
143 68 137 68 138 68 221 0 68 -4 87 -21 110 -39 52 -70 68 -142 72 -61 3 -71
1 -114 -27z"/>
<path d="M4555 4676 c-67 -30 -105 -107 -90 -178 17 -74 67 -112 162 -123 74
-8 75 -23 3 -23 -112 0 -174 -104 -119 -201 35 -63 80 -85 178 -90 101 -4 174
10 256 51 250 122 256 384 12 499 -112 52 -347 90 -402 65z"/>
<path d="M1819 4265 c-114 -28 -230 -93 -329 -182 -65 -58 -80 -89 -80 -159 0
-54 2 -59 44 -100 40 -41 47 -44 95 -44 61 0 80 8 145 67 26 23 82 60 123 80
64 32 86 37 161 41 133 6 182 47 182 149 0 58 -33 114 -83 140 -43 22 -184 27
-258 8z"/>
<path d="M2485 3726 c-158 -41 -212 -68 -245 -121 -54 -87 5 -212 109 -230 30
-5 63 1 137 25 54 17 126 34 161 37 l63 6 0 -30 c0 -94 -184 -447 -340 -653
-73 -97 -80 -110 -80 -160 0 -86 59 -149 148 -157 64 -6 101 20 178 127 78
110 230 345 294 457 238 415 134 725 -244 723 -62 -1 -120 -8 -181 -24z"/>
<path d="M3977 3733 c-108 -36 -169 -144 -148 -259 27 -144 152 -259 314 -287
121 -20 235 27 295 121 62 97 65 175 12 236 -17 19 -30 43 -30 55 0 32 -26 77
-58 99 -64 46 -290 67 -385 35z"/>
<path d="M1210 3574 c-45 -9 -122 -36 -194 -69 -179 -82 -202 -94 -223 -116
-78 -85 -43 -236 69 -295 36 -19 122 -18 160 2 l31 16 -7 -29 c-4 -15 -37
-107 -73 -203 -97 -258 -120 -329 -142 -443 -28 -140 -44 -288 -35 -331 25
-136 230 -219 341 -138 40 29 149 143 303 316 137 154 194 228 295 380 l60 88
7 -33 c12 -58 -10 -241 -46 -380 -19 -74 -48 -186 -64 -249 -49 -189 -83 -369
-89 -465 -4 -80 -2 -95 19 -135 29 -57 94 -94 148 -85 86 16 140 86 140 184 0
51 34 283 64 442 8 41 33 142 56 224 68 247 74 287 72 504 0 111 -6 216 -13
245 -40 171 -159 238 -305 170 -60 -27 -209 -185 -311 -329 -51 -71 -104 -143
-119 -160 -31 -36 -33 -45 41 185 126 394 136 517 47 620 -19 23 -51 49 -72
60 -39 20 -117 31 -160 24z"/>
<path d="M3572 3259 c-96 -38 -186 -154 -226 -288 -22 -73 -20 -117 5 -158 49
-79 174 -97 244 -34 13 12 51 22 109 30 53 7 108 22 136 36 168 85 163 302 -8
402 -63 37 -183 43 -260 12z"/>
<path d="M4698 3039 c-39 -20 -61 -52 -72 -105 -10 -45 17 -161 59 -250 29
-63 35 -86 30 -115 -12 -70 39 -139 124 -168 101 -33 204 23 225 124 9 44 -17
132 -74 245 -28 56 -55 123 -60 151 -12 60 -33 91 -81 118 -46 26 -103 26
-151 0z"/>
<path d="M2980 2604 c-159 -29 -271 -68 -490 -171 -115 -54 -162 -96 -179
-160 -15 -53 -13 -82 8 -129 28 -62 80 -97 152 -102 56 -4 67 -1 221 70 171
79 265 114 276 104 8 -9 -88 -245 -155 -378 -46 -93 -53 -116 -53 -166 0 -174
202 -255 331 -132 26 24 63 88 122 210 152 310 202 508 164 641 -38 129 -146
208 -293 214 -44 2 -90 1 -104 -1z"/>
<path d="M4428 2310 c-91 -48 -125 -145 -103 -291 l7 -47 -79 20 c-60 16 -113
21 -233 22 -138 1 -162 -2 -223 -23 -120 -41 -198 -121 -234 -240 -31 -102
-12 -564 25 -638 83 -161 284 -192 396 -61 67 78 79 168 51 363 -21 147 -21
146 18 138 17 -3 68 -17 112 -30 140 -42 149 -43 252 -33 74 8 113 17 158 39
172 85 248 267 216 516 -19 148 -70 225 -180 271 -48 20 -138 17 -183 -6z"/>
<path d="M2165 1841 c-44 -11 -70 -27 -99 -61 -44 -54 -51 -94 -37 -243 23
-243 56 -364 153 -567 40 -83 63 -117 112 -165 75 -73 158 -129 247 -167 122
-51 206 -47 274 14 l35 30 94 -57 c222 -134 365 -154 534 -75 83 39 135 93
151 155 20 81 -1 148 -67 207 -71 64 -168 69 -265 13 l-48 -27 -47 17 c-26 10
-90 41 -142 68 -79 42 -112 68 -200 157 -58 58 -113 118 -123 132 -51 79 -156
109 -234 69 l-42 -21 -10 33 c-16 49 -38 183 -46 272 -13 140 -61 200 -175
218 -19 2 -48 2 -65 -2z"/>
</g>
</svg>
