<?xml version="1.0" standalone="no"?>
<!DOCTYPE svg PUBLIC "-//W3C//DTD SVG 20010904//EN"
 "http://www.w3.org/TR/2001/REC-SVG-20010904/DTD/svg10.dtd">
<svg version="1.0" xmlns="http://www.w3.org/2000/svg"
 width="600.000000pt" height="600.000000pt" viewBox="0 0 600.000000 600.000000"
 preserveAspectRatio="xMidYMid meet">
<metadata>
Created by potrace 1.15, written by Peter Selinger 2001-2017
</metadata>
<g transform="translate(0.000000,600.000000) scale(0.100000,-0.100000)"
fill="#16364b" stroke="none">
<path d="M3130 5628 c-84 -42 -170 -232 -170 -372 0 -39 5 -87 10 -106 18 -65
66 -127 122 -160 63 -36 97 -46 214 -63 l89 -13 -114 -62 c-122 -68 -224 -134
-309 -201 -85 -68 -192 -172 -209 -205 -24 -46 -13 -114 29 -178 67 -100 147
-141 458 -233 85 -26 203 -62 262 -81 123 -39 159 -42 208 -15 53 28 80 74 80
136 0 105 -42 134 -293 201 -293 78 -362 99 -362 111 0 24 191 153 380 258
238 132 301 178 338 246 32 60 34 108 8 164 -46 100 -166 144 -433 160 -160 9
-173 13 -172 56 0 19 17 69 38 112 50 105 53 127 27 181 -17 33 -33 50 -65 65
-54 27 -81 26 -136 -1z"/>
<path d="M1455 5402 c-201 -111 -365 -281 -466 -482 -72 -143 -139 -357 -139
-442 0 -71 52 -137 126 -158 37 -11 57 -8 225 34 187 47 353 75 366 63 9 -10
-24 -76 -136 -272 -50 -88 -105 -195 -121 -238 -29 -74 -30 -81 -19 -142 6
-36 21 -80 33 -98 24 -36 97 -77 138 -77 40 0 218 95 392 210 192 126 218 152
223 222 10 134 -127 192 -257 108 -28 -18 -53 -30 -57 -27 -3 4 13 35 35 69
107 165 137 292 92 396 -28 65 -92 123 -169 154 -78 31 -246 31 -380 -1 -51
-12 -96 -20 -98 -17 -7 7 47 107 99 183 61 88 163 186 246 237 75 45 102 86
102 153 0 60 -28 107 -80 134 -48 26 -96 23 -155 -9z"/>
<path d="M4667 4440 c-75 -13 -399 -110 -425 -126 -56 -36 -78 -123 -47 -183
20 -40 70 -79 108 -86 23 -5 73 7 177 40 79 25 148 44 153 42 4 -1 -72 -119
-169 -262 -98 -143 -184 -276 -191 -297 -19 -56 1 -114 54 -153 22 -16 48 -44
56 -62 25 -51 14 -45 403 -183 28 -10 63 -24 78 -32 l26 -13 -66 -99 c-84
-126 -166 -261 -205 -339 -26 -50 -30 -69 -26 -110 11 -114 132 -183 224 -127
31 19 57 60 238 375 129 226 137 242 143 311 12 158 -70 233 -388 352 -74 28
-147 54 -162 57 -16 4 -28 10 -28 14 0 3 16 29 36 56 91 126 235 351 278 436
60 120 75 197 52 267 -28 84 -91 124 -201 128 -38 2 -91 -1 -118 -6z"/>
<path d="M3827 3686 c-49 -18 -76 -42 -93 -83 -32 -76 -10 -135 76 -199 28
-21 72 -56 96 -78 42 -37 44 -41 44 -96 l0 -58 -42 10 c-56 13 -191 4 -248
-16 -101 -36 -203 -147 -249 -271 -28 -74 -21 -117 28 -167 78 -78 205 -56
257 45 9 16 27 40 41 53 21 19 29 21 51 12 15 -6 59 -11 97 -12 60 -1 77 3
116 26 59 35 94 106 84 172 l-7 43 40 6 c121 20 182 192 115 328 -31 63 -162
199 -243 252 -65 43 -111 52 -163 33z"/>
<path d="M2513 3615 c-174 -31 -389 -122 -423 -178 -58 -94 14 -215 133 -225
47 -4 63 1 133 36 84 42 200 82 240 82 20 0 24 -5 24 -33 0 -110 -127 -415
-267 -642 -64 -104 -68 -113 -68 -171 0 -51 4 -66 28 -97 42 -55 72 -66 179
-68 90 -2 97 -1 243 53 181 67 215 76 215 54 0 -22 -49 -142 -113 -278 -66
-141 -73 -166 -56 -225 38 -136 211 -188 320 -95 52 43 181 339 241 548 29
103 32 252 5 305 -47 95 -140 148 -273 157 -72 4 -182 -6 -261 -25 -21 -5 -20
1 22 98 90 206 123 343 106 448 -21 127 -94 216 -209 251 -73 23 -117 24 -219
5z"/>
<path d="M1144 3410 c-124 -26 -386 -220 -415 -307 -55 -169 124 -326 279
-245 23 12 42 19 42 16 0 -4 -31 -147 -69 -318 -107 -477 -123 -594 -96 -675
29 -88 95 -124 226 -125 109 -1 102 -7 376 320 93 110 170 221 306 440 61 97
73 91 71 -39 -2 -123 -34 -284 -99 -502 -65 -217 -81 -320 -66 -430 13 -94 37
-149 87 -204 87 -97 188 -107 263 -27 16 17 25 41 29 76 4 44 1 57 -28 103
-31 50 -32 55 -27 132 3 44 26 161 51 260 53 213 61 259 77 429 24 267 10 556
-30 640 -58 118 -180 161 -295 103 -67 -33 -122 -102 -303 -376 -96 -145 -176
-262 -178 -260 -2 3 14 81 36 174 59 251 71 336 72 475 0 135 -11 182 -59 251
-48 69 -158 108 -250 89z"/>
<path d="M4667 2200 c-73 -23 -125 -91 -143 -184 l-7 -38 -86 8 c-148 15 -378
10 -451 -9 -247 -66 -350 -193 -380 -468 -6 -57 -13 -106 -15 -108 -3 -2 -37
26 -76 63 -44 41 -101 80 -147 104 -71 34 -82 37 -167 37 -82 0 -97 -3 -157
-33 -123 -61 -207 -155 -311 -351 -63 -118 -55 -123 -78 44 -25 186 -78 364
-130 436 -68 96 -225 89 -299 -13 -42 -57 -42 -135 -1 -222 37 -79 47 -130 71
-364 22 -221 39 -299 85 -397 65 -137 211 -238 345 -239 76 -1 116 18 163 77
27 33 31 47 37 125 6 73 14 102 50 182 85 186 163 322 208 363 20 18 22 17
143 -98 196 -187 261 -232 369 -254 68 -14 150 4 213 48 57 39 72 58 106 128
33 67 47 147 60 339 4 73 11 137 15 143 11 17 98 13 253 -10 190 -28 336 -24
413 13 153 72 230 218 216 411 -7 100 -20 138 -66 191 -58 66 -161 100 -233
76z"/>
</g>
</svg>
