<?xml version="1.0" standalone="no"?>
<!DOCTYPE svg PUBLIC "-//W3C//DTD SVG 20010904//EN"
 "http://www.w3.org/TR/2001/REC-SVG-20010904/DTD/svg10.dtd">
<svg version="1.0" xmlns="http://www.w3.org/2000/svg"
 width="600.000000pt" height="600.000000pt" viewBox="0 0 600.000000 600.000000"
 preserveAspectRatio="xMidYMid meet">
<metadata>
Created by potrace 1.15, written by Peter Selinger 2001-2017
</metadata>
<g transform="translate(0.000000,600.000000) scale(0.100000,-0.100000)"
fill="#16364b" stroke="none">
<path d="M2236 5795 c-32 -17 -125 -95 -221 -186 -80 -75 -169 -149 -290 -241
-184 -139 -255 -236 -255 -351 0 -92 40 -155 117 -183 111 -39 385 11 768 141
241 82 273 105 283 203 5 62 -17 114 -63 142 -54 33 -103 26 -249 -34 -126
-53 -305 -111 -313 -102 -3 2 26 27 64 56 120 91 353 300 369 332 21 41 21
118 -1 155 -40 68 -146 102 -209 68z"/>
<path d="M3097 5656 c-46 -17 -64 -32 -83 -67 -28 -55 -13 -119 40 -168 20
-18 54 -30 134 -47 146 -30 212 -57 270 -109 72 -65 95 -125 90 -234 -3 -66
-10 -100 -32 -146 -48 -105 -106 -150 -281 -217 -97 -37 -135 -116 -97 -201
40 -90 117 -105 256 -48 278 112 447 345 448 616 1 177 -54 317 -172 434 -101
101 -201 145 -408 181 -132 23 -117 23 -165 6z"/>
<path d="M964 5305 c-165 -86 -280 -205 -323 -333 -52 -155 5 -379 132 -518
60 -67 151 -129 202 -138 82 -16 180 45 192 117 9 58 -20 109 -92 166 -34 27
-76 70 -93 97 -88 132 -62 217 92 306 94 54 121 81 136 134 29 101 -45 204
-144 204 -20 0 -63 -15 -102 -35z"/>
<path d="M4765 4940 c-31 -12 -61 -50 -86 -109 -22 -52 -22 -58 -11 -160 32
-287 147 -443 336 -458 119 -10 217 38 273 134 38 65 44 175 13 256 -41 110
-153 205 -353 303 -88 43 -131 51 -172 34z"/>
<path d="M2695 4905 c-126 -68 -228 -168 -278 -272 -28 -60 -32 -78 -32 -153
0 -186 94 -310 288 -376 102 -36 193 -41 234 -15 46 29 67 66 67 120 0 83 -36
115 -176 155 -32 9 -71 28 -88 42 -69 59 -18 154 126 235 111 63 132 159 52
236 -61 59 -118 67 -193 28z"/>
<path d="M1810 4387 c-87 -29 -158 -76 -221 -145 -64 -70 -83 -112 -76 -169 9
-84 74 -143 157 -143 56 0 86 17 124 70 35 49 102 90 147 90 13 0 46 -12 73
-26 112 -60 235 9 235 131 1 60 -35 114 -99 153 -111 66 -224 79 -340 39z"/>
<path d="M2645 3848 c-113 -21 -218 -59 -251 -92 -65 -65 -67 -164 -5 -227 41
-41 90 -51 170 -35 94 20 193 28 225 20 34 -8 31 -24 -20 -133 -43 -92 -90
-158 -269 -380 -223 -276 -224 -278 -191 -354 40 -93 164 -133 236 -74 24 19
248 279 327 380 154 196 255 414 256 557 3 234 -214 388 -478 338z"/>
<path d="M4277 3800 c-138 -25 -255 -89 -314 -171 -46 -65 -68 -155 -53 -222
43 -200 268 -295 466 -197 93 46 180 145 249 282 45 91 55 119 55 161 0 63
-25 109 -72 133 -38 20 -250 29 -331 14z m-20 -315 c-29 -25 -57 -33 -57 -15
0 11 49 39 70 39 10 0 5 -8 -13 -24z"/>
<path d="M1100 3691 c-116 -40 -230 -94 -256 -123 -97 -106 -70 -266 54 -320
37 -17 59 -20 114 -15 l68 6 -21 -41 c-126 -247 -273 -594 -310 -733 -12 -44
-22 -114 -23 -157 -1 -71 1 -78 30 -115 17 -21 45 -46 63 -57 44 -25 146 -33
191 -13 39 16 255 215 553 509 108 107 197 192 198 189 8 -50 -31 -307 -67
-441 -43 -160 -153 -518 -179 -582 -41 -100 -29 -177 34 -231 60 -50 138 -47
195 6 48 47 79 136 151 447 14 63 44 174 65 245 52 175 75 271 94 390 9 55 20
116 26 135 23 78 5 298 -31 380 -42 95 -111 132 -210 110 -73 -15 -124 -52
-291 -211 -79 -74 -165 -155 -192 -179 l-49 -45 86 170 c102 205 137 308 137
408 0 97 -23 159 -83 219 -83 84 -197 100 -347 49z"/>
<path d="M3533 3361 c-109 -37 -188 -140 -228 -296 -54 -211 28 -313 228 -285
125 18 216 58 284 126 61 61 83 113 83 197 0 81 -18 128 -68 180 -43 45 -79
65 -147 83 -65 18 -89 17 -152 -5z"/>
<path d="M4813 2665 c-150 -41 -257 -147 -271 -271 -2 -24 -5 -44 -6 -44 0 0
-23 11 -50 25 -95 48 -230 21 -291 -59 -43 -56 -51 -112 -32 -213 16 -83 21
-133 14 -133 -2 0 -37 12 -78 26 -155 54 -281 67 -377 39 -71 -22 -150 -96
-188 -177 -29 -62 -29 -66 -28 -233 0 -175 24 -356 61 -469 18 -57 76 -119
136 -147 101 -45 227 -7 287 88 44 69 46 107 12 273 -16 80 -28 147 -26 149 4
5 102 -29 159 -56 62 -28 113 -29 213 -2 102 27 164 62 220 124 70 77 87 133
86 280 -1 66 -9 154 -17 195 -8 41 -13 77 -12 79 2 2 17 -6 33 -17 15 -12 50
-26 76 -33 143 -36 286 81 336 275 28 109 26 167 -6 226 -46 85 -126 108 -251
75z"/>
<path d="M2850 2417 c-41 -12 -129 -51 -195 -86 -66 -36 -162 -86 -214 -112
-108 -55 -126 -70 -153 -123 -20 -40 -22 -115 -3 -158 6 -16 0 -18 -63 -18
-80 0 -136 -17 -195 -60 -66 -47 -82 -81 -82 -175 0 -64 4 -85 20 -107 25 -34
91 -68 132 -68 30 0 33 -3 48 -57 9 -32 24 -82 33 -112 l16 -53 -24 -19 c-78
-60 -99 -83 -129 -140 -31 -56 -34 -70 -33 -143 0 -133 41 -231 157 -381 132
-170 275 -269 509 -352 176 -62 326 -44 503 62 102 61 142 109 150 179 13 111
-78 216 -187 216 -15 0 -74 -23 -131 -52 -127 -63 -171 -66 -292 -20 -61 24
-177 86 -177 96 0 1 33 2 74 1 71 0 77 2 133 41 75 53 108 109 107 184 -1 73
-19 103 -103 179 -106 93 -127 136 -207 408 -25 87 -61 186 -79 221 l-33 62
46 0 c37 0 79 16 212 79 168 80 287 127 297 118 14 -14 -99 -305 -173 -446
-24 -46 -46 -99 -50 -118 -8 -44 20 -129 54 -167 33 -35 97 -66 137 -66 43 0
107 32 138 70 83 97 274 594 292 756 13 114 -35 237 -117 303 -93 75 -279 101
-418 58z"/>
</g>
</svg>
