<?xml version="1.0" standalone="no"?>
<!DOCTYPE svg PUBLIC "-//W3C//DTD SVG 20010904//EN"
 "http://www.w3.org/TR/2001/REC-SVG-20010904/DTD/svg10.dtd">
<svg version="1.0" xmlns="http://www.w3.org/2000/svg"
 width="600.000000pt" height="600.000000pt" viewBox="0 0 600.000000 600.000000"
 preserveAspectRatio="xMidYMid meet">
<metadata>
Created by potrace 1.15, written by Peter Selinger 2001-2017
</metadata>
<g transform="translate(0.000000,600.000000) scale(0.100000,-0.100000)"
fill="#16364b" stroke="none">
<path d="M1450 5699 c-292 -198 -310 -215 -310 -284 0 -36 5 -48 31 -69 41
-35 100 -34 254 3 66 16 165 39 220 51 147 33 165 45 165 112 0 19 -10 39 -29
59 -25 24 -37 29 -81 29 -51 0 -51 0 -36 22 26 37 20 76 -18 114 -50 50 -73
46 -196 -37z"/>
<path d="M2363 5430 c-50 -20 -54 -40 -57 -306 -3 -219 -5 -256 -23 -311 -39
-117 -93 -178 -218 -245 -91 -50 -121 -87 -111 -142 4 -18 17 -45 31 -60 36
-39 86 -35 190 15 159 75 271 209 310 370 21 85 29 289 20 474 l-7 149 -33 33
c-34 34 -61 40 -102 23z"/>
<path d="M3531 5323 c-41 -21 -73 -74 -73 -119 0 -54 59 -159 122 -218 67 -61
117 -88 181 -94 40 -4 50 -1 80 26 30 27 34 36 33 79 -1 119 -135 294 -246
324 -22 5 -45 12 -51 15 -7 2 -27 -4 -46 -13z"/>
<path d="M2969 5110 c-79 -42 -149 -155 -157 -256 -15 -192 148 -256 325 -126
79 58 109 216 61 312 -42 82 -146 114 -229 70z m53 -232 c-7 -7 -12 -8 -12 -2
0 6 3 14 7 17 3 4 9 5 12 2 2 -3 -1 -11 -7 -17z"/>
<path d="M4774 4780 c-45 -18 -71 -65 -79 -140 -20 -198 28 -404 117 -506 112
-127 308 -86 354 74 41 141 -39 338 -200 489 -89 85 -137 105 -192 83z"/>
<path d="M2653 4201 c-265 -91 -208 -377 85 -431 115 -20 236 17 344 108 82
68 101 96 106 157 6 73 -26 109 -123 136 -195 54 -318 63 -412 30z"/>
<path d="M1114 4110 c-38 -15 -74 -68 -74 -110 0 -49 46 -105 93 -115 52 -11
147 -57 140 -68 -7 -12 -85 -3 -174 20 -63 16 -67 16 -105 -3 -72 -35 -91
-116 -43 -178 24 -30 110 -59 226 -76 282 -41 467 180 316 378 -37 49 -134
108 -225 137 -82 26 -119 30 -154 15z"/>
<path d="M4247 3769 c-105 -25 -221 -119 -271 -220 -74 -153 -27 -296 126
-376 47 -24 64 -28 143 -28 105 0 146 17 226 92 82 76 128 206 129 356 0 110
-29 145 -142 172 -69 16 -152 18 -211 4z m49 -308 c-16 -29 -41 -45 -57 -35
-14 8 9 44 34 54 35 14 38 12 23 -19z"/>
<path d="M5162 3749 c-74 -24 -155 -86 -194 -150 -81 -130 -50 -312 72 -422
66 -60 130 -81 224 -75 134 9 248 84 307 203 55 112 47 235 -22 319 -34 41
-139 123 -176 137 -40 15 -144 9 -211 -12z m128 -301 c0 -16 -31 -48 -47 -48
-17 0 -17 47 0 53 23 10 47 7 47 -5z"/>
<path d="M1619 3691 c-34 -35 -36 -62 -13 -177 37 -190 86 -274 157 -274 46 0
92 44 100 95 11 68 -19 175 -78 281 -59 106 -111 129 -166 75z"/>
<path d="M3451 3363 c-40 -8 -104 -84 -158 -189 -64 -123 -69 -165 -24 -208
101 -97 305 73 319 265 5 65 -7 92 -51 119 -32 20 -41 21 -86 13z"/>
<path d="M1935 3066 c-121 -23 -417 -107 -481 -136 -252 -114 -419 -336 -439
-586 -9 -108 5 -190 51 -282 50 -102 115 -163 274 -258 85 -50 161 -104 205
-146 63 -59 80 -84 145 -210 65 -127 83 -152 154 -223 93 -92 181 -142 312
-175 180 -47 347 -34 543 41 58 23 165 53 236 69 179 38 271 64 400 112 295
109 610 317 732 482 105 141 167 332 167 511 0 127 -11 159 -94 279 -93 135
-207 233 -321 278 -51 20 -76 21 -399 24 -386 4 -363 1 -603 88 -309 112 -689
169 -882 132z m477 -421 c81 -15 126 -27 403 -105 99 -28 207 -55 240 -60 33
-5 182 -12 330 -16 182 -4 280 -11 301 -19 39 -16 108 -77 146 -129 32 -45 36
-85 13 -159 -91 -300 -432 -507 -1032 -626 -57 -11 -125 -32 -153 -46 -188
-95 -346 -113 -463 -53 -59 30 -117 96 -166 189 -119 225 -260 378 -454 490
-123 72 -137 83 -158 127 -17 35 -20 55 -16 100 12 113 107 206 257 253 62 19
274 63 350 73 64 8 326 -4 402 -19z"/>
<path d="M413 2176 c-46 -39 -47 -67 -2 -181 135 -341 288 -480 460 -420 122
43 150 162 68 281 -38 56 -148 149 -274 231 -55 36 -113 74 -128 85 -47 33
-88 34 -124 4z"/>
<path d="M4813 1610 c-18 -11 -33 -25 -33 -31 0 -8 -14 -9 -44 -5 -58 9 -105
-11 -142 -60 -27 -34 -29 -45 -29 -118 0 -98 27 -210 63 -266 28 -43 90 -80
133 -80 44 1 107 37 138 81 61 84 117 336 92 412 -26 79 -109 110 -178 67z"/>
</g>
</svg>
