<?xml version="1.0" standalone="no"?>
<!DOCTYPE svg PUBLIC "-//W3C//DTD SVG 20010904//EN"
 "http://www.w3.org/TR/2001/REC-SVG-20010904/DTD/svg10.dtd">
<svg version="1.0" xmlns="http://www.w3.org/2000/svg"
 width="600.000000pt" height="600.000000pt" viewBox="0 0 600.000000 600.000000"
 preserveAspectRatio="xMidYMid meet">
<metadata>
Created by potrace 1.15, written by Peter Selinger 2001-2017
</metadata>
<g transform="translate(0.000000,600.000000) scale(0.100000,-0.100000)"
fill="#16364b" stroke="none">
<path d="M2007 5076 c-96 -36 -163 -110 -193 -214 -17 -58 -16 -131 5 -277 6
-44 21 -201 35 -350 23 -256 24 -304 22 -930 l-3 -659 -165 -161 c-90 -88
-206 -195 -257 -238 -81 -68 -94 -75 -111 -65 -25 16 -52 -4 -32 -24 20 -20
14 -24 -28 -20 -46 5 -54 -13 -20 -43 23 -21 26 -35 7 -35 -19 0 -36 -20 -30
-36 3 -8 20 -14 41 -14 34 0 35 -1 18 -19 -19 -21 -14 -41 11 -41 18 0 129 66
140 84 5 6 44 41 88 76 44 36 133 118 197 182 64 65 119 118 122 118 3 0 6
-67 6 -148 0 -172 17 -285 67 -452 105 -354 265 -503 613 -574 l25 -5 0 -173
c0 -192 12 -265 71 -449 49 -151 51 -145 -50 -152 -121 -8 -176 -43 -176 -110
0 -89 100 -121 241 -77 77 23 130 65 158 123 30 61 26 105 -19 257 -61 204
-74 279 -75 422 0 84 4 131 12 139 9 9 28 8 80 -2 52 -11 162 -13 475 -12
l408 2 -6 -47 c-3 -26 -7 -55 -9 -64 -9 -50 20 -203 87 -447 21 -79 37 -149
35 -155 -2 -7 -36 -11 -90 -12 -77 0 -89 -3 -121 -27 -66 -51 -56 -128 20
-167 38 -19 145 -17 203 4 88 32 150 105 151 177 0 14 -22 99 -50 187 -89 289
-106 421 -65 517 l13 32 108 7 c159 9 354 49 430 86 200 98 336 407 338 770 0
133 -2 151 -27 224 -56 160 -149 281 -312 405 l-70 53 55 -5 c30 -3 136 -11
235 -17 99 -6 190 -16 202 -22 22 -11 36 -9 131 18 49 15 68 37 40 47 -10 3
-10 7 -1 19 7 8 9 18 5 22 -4 4 -7 18 -7 29 0 20 -5 22 -52 19 -40 -2 -53 1
-53 11 0 8 -6 20 -14 27 -12 9 -17 7 -28 -9 -17 -28 -55 -27 -366 4 -448 46
-404 35 -529 127 -102 75 -217 152 -563 380 -488 321 -584 451 -815 1098 -48
135 -92 261 -97 280 -17 61 -80 170 -125 216 -59 62 -138 96 -227 101 -45 2
-85 -2 -109 -11z m170 -157 c12 -4 40 -27 62 -49 37 -39 62 -90 104 -220 108
-330 305 -776 408 -925 94 -137 206 -227 659 -531 162 -108 350 -238 417 -288
68 -50 174 -126 236 -169 267 -187 372 -278 433 -379 73 -120 92 -222 74 -404
-29 -298 -118 -482 -258 -534 -31 -12 -122 -33 -202 -48 -145 -26 -146 -27
-660 -27 -363 0 -536 4 -586 12 -38 7 -124 17 -190 23 -367 32 -528 169 -627
536 l-32 119 4 355 c13 1233 0 1840 -46 2210 -21 165 -21 206 2 250 41 78 112
103 202 69z"/>
<path d="M2641 2744 c-12 -15 -21 -31 -21 -36 0 -16 57 -68 75 -68 23 0 65 49
65 75 0 55 -83 75 -119 29z"/>
<path d="M3097 2658 c-30 -11 -46 -51 -30 -77 5 -8 21 -24 36 -35 22 -16 31
-18 51 -8 28 12 41 49 32 86 -7 30 -50 46 -89 34z"/>
<path d="M5280 3974 c-155 -42 -244 -152 -244 -304 -1 -158 98 -303 231 -341
62 -17 197 -7 255 18 103 47 183 163 195 286 11 121 -43 219 -162 296 -95 62
-168 74 -275 45z m138 -299 c11 -11 -15 -40 -38 -43 -25 -4 -40 12 -40 42 0
16 5 18 36 13 20 -3 39 -9 42 -12z"/>
<path d="M5332 1094 c-50 -35 -82 -148 -62 -220 33 -118 162 -109 204 13 29
85 19 178 -23 210 -23 17 -92 16 -119 -3z"/>
</g>
</svg>
