<?xml version="1.0" standalone="no"?>
<!DOCTYPE svg PUBLIC "-//W3C//DTD SVG 20010904//EN"
 "http://www.w3.org/TR/2001/REC-SVG-20010904/DTD/svg10.dtd">
<svg version="1.0" xmlns="http://www.w3.org/2000/svg"
 width="600.000000pt" height="600.000000pt" viewBox="0 0 600.000000 600.000000"
 preserveAspectRatio="xMidYMid meet">
<metadata>
Created by potrace 1.15, written by Peter Selinger 2001-2017
</metadata>
<g transform="translate(0.000000,600.000000) scale(0.100000,-0.100000)"
fill="#16364b" stroke="none">
<path d="M3152 5660 c-43 -10 -88 -53 -103 -98 -14 -42 -5 -181 16 -261 32
-123 99 -211 197 -262 23 -12 94 -39 157 -59 l115 -36 -35 -26 c-19 -14 -124
-76 -234 -138 -326 -183 -393 -234 -410 -310 -3 -15 -19 -33 -42 -45 -104 -57
-91 -220 23 -275 49 -24 72 -24 340 -4 223 16 259 25 297 76 11 14 21 45 24
69 8 84 -46 143 -144 158 l-48 7 75 50 c41 28 130 83 197 123 221 129 296 214
296 330 0 132 -89 213 -318 292 -119 41 -188 78 -201 107 -3 9 -10 58 -14 108
-8 102 -27 144 -75 173 -40 24 -73 30 -113 21z"/>
<path d="M1283 5378 c-126 -68 -271 -230 -352 -394 -62 -124 -83 -214 -89
-378 -5 -150 4 -204 41 -244 71 -77 198 -67 255 18 23 34 23 40 17 160 -6 99
-4 140 9 195 36 150 127 287 231 346 68 38 102 76 113 124 10 44 -3 107 -29
143 -39 54 -126 67 -196 30z"/>
<path d="M1447 4995 c-97 -19 -129 -35 -157 -80 -18 -29 -21 -47 -18 -84 11
-116 115 -173 257 -140 24 5 45 8 48 6 2 -2 -8 -35 -21 -73 -30 -84 -56 -188
-56 -230 0 -87 70 -205 140 -234 16 -7 30 -15 30 -19 0 -3 -52 -32 -115 -64
-63 -32 -130 -73 -149 -90 -109 -103 -31 -287 122 -287 31 0 57 12 118 52 118
76 270 154 350 177 82 24 115 47 138 95 50 106 -19 211 -136 208 l-48 -1 0 43
c0 54 -31 102 -82 129 -21 10 -38 24 -38 31 0 7 16 59 36 117 78 230 47 366
-98 429 -68 29 -209 36 -321 15z"/>
<path d="M4524 4531 c-85 -9 -125 -33 -148 -93 -22 -53 -13 -108 22 -150 41
-49 76 -59 188 -51 81 5 96 4 92 -8 -2 -8 -58 -59 -124 -115 -136 -115 -164
-150 -164 -206 0 -83 52 -145 130 -155 52 -7 73 5 243 140 221 177 303 283
314 406 10 113 -45 182 -172 216 -69 18 -275 27 -381 16z"/>
<path d="M2570 3695 c-87 -19 -253 -79 -314 -113 -114 -63 -117 -215 -6 -273
52 -28 101 -24 179 15 85 43 181 76 221 76 27 0 30 -3 30 -31 0 -87 -165 -445
-296 -639 -66 -98 -78 -123 -82 -167 -3 -42 0 -60 20 -96 21 -36 24 -54 20
-99 -10 -126 66 -220 178 -220 36 0 72 13 175 65 142 70 252 114 262 103 15
-14 -41 -169 -113 -315 -74 -147 -76 -156 -71 -207 7 -67 34 -112 89 -150 35
-25 51 -29 109 -29 94 0 126 27 201 171 160 305 220 560 171 715 -23 73 -97
148 -178 179 -52 21 -77 24 -180 23 -102 0 -132 -4 -203 -27 -46 -15 -86 -26
-88 -24 -2 2 25 51 59 108 134 223 197 357 228 485 23 97 24 155 3 225 -54
182 -215 270 -414 225z"/>
<path d="M3928 3686 c-109 -40 -155 -122 -127 -224 19 -70 129 -177 234 -227
66 -32 93 -39 155 -42 64 -3 81 -1 115 19 109 64 123 197 26 259 -29 18 -36
28 -33 45 6 35 -17 91 -49 118 -59 50 -246 81 -321 52z"/>
<path d="M1145 3496 c-95 -30 -319 -160 -360 -208 -128 -152 58 -363 238 -271
16 8 31 12 34 10 2 -3 -13 -65 -36 -139 -22 -73 -60 -216 -85 -318 -25 -102
-57 -222 -71 -267 -13 -45 -30 -121 -36 -167 -11 -76 -10 -91 5 -131 35 -90
112 -140 232 -150 56 -5 75 -3 101 12 47 27 228 255 438 553 101 144 185 250
197 250 13 0 9 -75 -12 -204 -11 -66 -27 -173 -35 -236 -9 -63 -29 -180 -45
-260 -16 -80 -37 -201 -46 -270 -23 -181 -9 -263 55 -324 43 -41 128 -47 186
-14 77 45 103 121 74 219 -16 50 1 178 47 369 57 236 103 487 120 660 8 90
-11 315 -33 374 -48 131 -195 188 -317 124 -75 -39 -165 -145 -375 -441 -46
-64 -86 -115 -88 -113 -3 2 14 62 36 133 112 357 139 581 83 689 -57 112 -181
160 -307 120z"/>
<path d="M4569 3247 c-47 -31 -61 -62 -56 -125 5 -69 26 -96 119 -152 92 -55
165 -114 173 -140 8 -26 -19 -74 -77 -136 -56 -59 -72 -104 -56 -162 21 -80
99 -123 180 -101 61 16 175 133 218 224 28 59 33 80 34 150 1 72 -2 87 -32
147 -18 36 -53 89 -78 117 -45 50 -168 138 -251 180 -58 29 -130 28 -174 -2z"/>
<path d="M3662 3239 c-136 -27 -262 -165 -306 -333 -26 -98 12 -171 101 -195
70 -19 155 22 183 89 12 29 14 30 84 30 129 0 228 46 265 122 67 140 -36 275
-224 291 -33 3 -79 1 -103 -4z"/>
<path d="M4560 2271 c-112 -34 -179 -128 -180 -248 0 -35 -2 -63 -3 -63 -2 0
-46 9 -98 20 -121 27 -267 35 -343 21 -173 -32 -301 -160 -350 -347 -30 -116
-46 -451 -25 -523 3 -10 -7 -17 -30 -22 -18 -4 -47 -17 -63 -29 -35 -26 -39
-25 -138 49 -36 26 -94 68 -130 94 -36 26 -92 70 -125 98 -204 171 -391 155
-490 -43 -19 -39 -35 -77 -35 -84 0 -8 -4 -14 -10 -14 -5 0 -10 4 -10 8 0 26
-42 352 -56 427 -18 102 -44 152 -103 190 -86 57 -201 34 -248 -50 -25 -44
-30 -127 -13 -200 5 -22 16 -116 25 -210 27 -292 56 -418 126 -541 32 -57 112
-136 179 -179 58 -37 195 -85 243 -85 123 0 230 127 198 237 -10 35 6 183 20
183 5 0 75 -46 156 -103 259 -179 305 -202 412 -201 78 1 133 23 208 83 64 50
84 87 92 165 6 58 6 59 41 63 63 6 100 24 149 72 65 63 78 108 92 332 11 166
14 179 32 179 22 0 121 -24 182 -45 22 -7 81 -16 131 -20 225 -18 376 70 440
255 14 42 19 82 18 175 -1 205 -32 284 -133 337 -54 28 -108 35 -161 19z"/>
</g>
</svg>
