<?xml version="1.0" standalone="no"?>
<!DOCTYPE svg PUBLIC "-//W3C//DTD SVG 20010904//EN"
 "http://www.w3.org/TR/2001/REC-SVG-20010904/DTD/svg10.dtd">
<svg version="1.0" xmlns="http://www.w3.org/2000/svg"
 width="600.000000pt" height="600.000000pt" viewBox="0 0 600.000000 600.000000"
 preserveAspectRatio="xMidYMid meet">
<metadata>
Created by potrace 1.15, written by Peter Selinger 2001-2017
</metadata>
<g transform="translate(0.000000,600.000000) scale(0.100000,-0.100000)"
fill="#16364b" stroke="none">
<path d="M1632 5800 c-40 -25 -62 -71 -96 -205 -53 -212 -68 -319 -64 -454 3
-111 6 -132 29 -176 16 -31 42 -62 68 -80 38 -27 51 -30 116 -30 69 0 76 2
131 40 74 51 146 137 266 317 181 274 193 300 163 376 -24 60 -70 86 -141 80
-71 -6 -81 -16 -229 -238 l-117 -175 6 60 c7 64 35 181 68 283 29 90 21 136
-31 184 -35 33 -47 38 -88 38 -31 0 -60 -7 -81 -20z"/>
<path d="M3146 5571 c-65 -44 -90 -138 -52 -196 9 -14 90 -73 179 -132 153
-100 317 -241 317 -272 0 -6 -18 -11 -42 -11 -82 0 -130 -46 -130 -123 0 -81
58 -131 179 -157 151 -33 293 73 293 217 0 69 -25 134 -90 227 -65 94 -154
179 -290 276 -58 41 -138 98 -178 128 -86 64 -138 76 -186 43z"/>
<path d="M897 5460 c-105 -27 -230 -128 -281 -228 -65 -128 -73 -279 -21 -382
52 -103 170 -200 242 -200 45 1 110 35 127 69 35 67 13 140 -57 188 -85 59
-89 158 -8 226 29 24 41 27 108 27 86 0 116 13 153 67 50 73 33 174 -36 219
-31 21 -167 29 -227 14z"/>
<path d="M2980 5171 c-151 -46 -259 -255 -206 -396 34 -88 113 -131 225 -122
116 9 207 50 237 108 21 42 20 185 -2 252 -38 113 -157 187 -254 158z"/>
<path d="M2315 4885 c-5 -2 -22 -6 -36 -9 -15 -3 -42 -21 -60 -39 -26 -26 -53
-39 -118 -56 -105 -27 -200 -72 -226 -108 -14 -20 -20 -44 -20 -85 0 -68 24
-106 80 -127 41 -16 49 -14 180 32 39 14 103 35 143 47 140 43 202 106 202
206 0 53 -21 95 -59 116 -29 17 -70 28 -86 23z"/>
<path d="M4755 4831 c-11 -5 -33 -23 -50 -41 l-30 -31 0 -137 c1 -97 6 -156
18 -202 52 -194 164 -304 324 -317 80 -7 141 10 193 54 71 61 98 144 79 246
-26 145 -122 260 -309 366 -114 66 -177 83 -225 62z"/>
<path d="M2801 4130 c-99 -21 -172 -79 -199 -159 -44 -129 49 -256 234 -322
75 -27 248 -37 336 -20 85 17 236 69 272 94 34 24 66 89 66 137 0 50 -38 111
-85 137 -57 30 -238 90 -342 112 -110 24 -225 32 -282 21z"/>
<path d="M1005 4060 c-89 -28 -138 -136 -101 -224 32 -78 91 -108 223 -116 56
-3 105 -9 109 -13 4 -4 -37 -53 -92 -110 -54 -56 -150 -158 -213 -225 -62 -67
-154 -159 -205 -204 -114 -102 -126 -120 -126 -183 0 -60 23 -99 77 -132 62
-38 170 -26 225 24 17 15 20 15 41 -5 30 -28 89 -52 129 -52 18 0 53 12 78 26
43 24 45 25 55 7 13 -23 72 -83 108 -108 44 -31 78 -97 84 -162 15 -166 -118
-397 -275 -477 -31 -16 -37 -16 -73 -2 -89 36 -165 8 -195 -70 -64 -168 186
-286 398 -187 73 34 190 139 264 235 60 77 109 178 135 273 27 99 32 302 10
380 -30 105 -92 201 -171 261 -28 21 -50 41 -50 45 0 8 124 64 195 89 l51 18
32 -29 c60 -53 150 -51 207 6 19 19 37 49 40 67 9 51 -10 204 -29 233 -44 67
-124 81 -228 40 -51 -19 -222 -65 -245 -65 -3 0 14 21 39 48 145 156 183 301
112 432 -65 120 -192 168 -484 184 -52 3 -108 1 -125 -4z"/>
<path d="M4272 3789 c-234 -36 -374 -183 -360 -378 11 -153 118 -250 283 -259
115 -6 179 20 266 107 36 36 82 95 101 131 49 87 92 231 83 276 -8 47 -59 102
-103 113 -58 15 -201 21 -270 10z m-2 -314 c-25 -27 -63 -35 -54 -11 6 15 40
34 63 35 10 1 7 -7 -9 -24z"/>
<path d="M3425 3386 c-22 -9 -58 -35 -82 -60 -51 -57 -143 -233 -143 -275 0
-49 26 -99 62 -121 49 -29 168 -28 222 3 79 45 139 170 139 293 0 128 -89 199
-198 160z"/>
<path d="M5034 3266 c-198 -106 -294 -231 -294 -379 0 -69 30 -146 71 -184
126 -115 381 -70 480 85 71 112 87 261 39 354 -25 49 -81 115 -119 140 -42 29
-106 23 -177 -16z"/>
<path d="M2143 2532 c-83 -30 -118 -59 -243 -207 -46 -55 -107 -124 -135 -153
-27 -30 -56 -66 -64 -80 -8 -15 -36 -52 -63 -82 -161 -180 -232 -398 -232
-710 0 -153 2 -171 27 -245 41 -122 91 -199 202 -310 109 -110 179 -152 323
-194 367 -109 617 -69 867 139 66 55 205 209 256 285 45 67 107 198 140 297
61 181 118 528 104 632 -23 170 -145 299 -313 335 -82 17 -246 11 -363 -14
-23 -5 -27 -1 -49 52 -70 173 -176 257 -340 269 -48 3 -79 0 -117 -14z m142
-444 c37 -97 58 -133 119 -196 59 -62 111 -92 159 -92 18 0 91 13 163 30 71
16 146 30 167 30 l37 0 0 -77 c0 -126 -38 -305 -93 -441 -46 -115 -109 -210
-197 -301 -100 -103 -177 -146 -286 -162 -131 -18 -292 32 -427 134 -112 86
-150 162 -150 307 -1 191 85 389 219 503 19 17 47 51 62 76 14 25 43 65 63 89
21 24 57 72 81 107 24 36 46 65 50 65 3 0 18 -33 33 -72z"/>
<path d="M3996 2436 c-50 -23 -93 -73 -105 -124 -9 -40 -8 -60 13 -139 13 -51
23 -93 22 -93 0 0 -19 7 -41 15 -90 32 -175 9 -238 -66 -78 -91 -76 -188 12
-533 33 -131 68 -250 76 -263 36 -55 128 -84 201 -64 54 14 124 63 152 104 21
32 27 35 91 40 82 7 125 23 176 68 60 53 85 117 85 220 0 127 -103 648 -144
727 -22 42 -88 97 -135 110 -49 15 -128 14 -165 -2z"/>
</g>
</svg>
