<?xml version="1.0" standalone="no"?>
<!DOCTYPE svg PUBLIC "-//W3C//DTD SVG 20010904//EN"
 "http://www.w3.org/TR/2001/REC-SVG-20010904/DTD/svg10.dtd">
<svg version="1.0" xmlns="http://www.w3.org/2000/svg"
 width="600.000000pt" height="600.000000pt" viewBox="0 0 600.000000 600.000000"
 preserveAspectRatio="xMidYMid meet">
<metadata>
Created by potrace 1.15, written by Peter Selinger 2001-2017
</metadata>
<g transform="translate(0.000000,600.000000) scale(0.100000,-0.100000)"
fill="#16364b" stroke="none">
<path d="M2395 5411 c-44 -19 -52 -41 -59 -171 -13 -239 -50 -429 -105 -538
-35 -70 -109 -140 -188 -180 -72 -37 -87 -54 -87 -98 0 -48 33 -79 82 -77 96
4 293 161 359 288 68 129 112 356 115 590 2 132 -5 156 -52 180 -32 17 -37 17
-65 6z"/>
<path d="M3531 5298 c-14 -7 -34 -28 -44 -46 -74 -126 105 -372 269 -372 39 0
51 5 80 34 28 28 34 42 34 76 0 50 -50 152 -110 221 -61 72 -175 115 -229 87z"/>
<path d="M2985 5090 c-124 -64 -194 -217 -147 -323 25 -55 58 -79 121 -85 58
-5 109 10 173 50 55 35 78 82 85 179 6 79 -7 126 -47 164 -40 39 -125 45 -185
15z m69 -182 c-7 -26 -33 -58 -46 -58 -13 0 -10 12 12 48 23 37 45 43 34 10z"/>
<path d="M4774 4746 c-48 -21 -56 -56 -58 -233 -1 -178 11 -249 55 -333 64
-121 183 -160 272 -90 36 28 75 114 83 180 8 69 -14 159 -58 243 -55 103 -206
249 -255 247 -4 -1 -22 -7 -39 -14z"/>
<path d="M2646 4226 c-56 -21 -87 -47 -113 -92 -74 -128 39 -278 235 -314 109
-19 209 12 319 99 89 71 105 168 39 230 -62 58 -390 111 -480 77z"/>
<path d="M1099 4111 c-23 -24 -29 -38 -29 -74 0 -37 -6 -51 -30 -75 -52 -53
-35 -134 46 -214 99 -100 244 -105 340 -13 73 70 82 165 21 246 -28 38 -136
111 -205 138 -74 29 -107 27 -143 -8z"/>
<path d="M5315 3894 c-164 -19 -265 -78 -323 -188 -23 -44 -27 -64 -27 -136 0
-71 4 -94 27 -142 32 -69 98 -137 170 -175 47 -25 63 -28 148 -28 119 0 179
24 245 97 60 67 88 142 89 243 0 91 -19 146 -74 208 -55 63 -173 132 -215 126
-5 -1 -23 -4 -40 -5z m3 -310 c28 -8 28 -28 0 -48 -29 -21 -35 -20 -48 5 -9
15 -8 24 1 35 13 16 15 16 47 8z"/>
<path d="M4208 3766 c-153 -55 -257 -191 -258 -340 0 -82 21 -133 78 -190 112
-113 270 -124 398 -27 94 71 141 173 154 336 11 144 -6 179 -110 217 -55 20
-209 23 -262 4z m82 -291 c0 -17 -35 -55 -49 -55 -22 0 -20 22 3 45 28 28 46
32 46 10z"/>
<path d="M3455 3386 c-40 -17 -72 -66 -140 -208 -61 -130 -69 -175 -33 -208
12 -11 33 -20 47 -20 63 1 187 136 237 258 38 93 30 148 -26 177 -35 18 -46
18 -85 1z"/>
<path d="M1475 3180 c-226 -18 -375 -82 -518 -223 -165 -162 -197 -326 -102
-525 67 -141 212 -251 398 -301 199 -54 251 -108 357 -371 104 -258 169 -377
257 -467 96 -99 231 -165 403 -197 92 -18 293 -21 385 -6 33 5 218 14 410 20
373 11 469 19 635 51 228 45 497 156 645 266 322 241 481 548 462 892 -11 192
-55 277 -225 433 -136 125 -299 187 -487 188 -141 0 -214 -26 -431 -155 -191
-114 -237 -131 -395 -139 -233 -13 -383 34 -589 184 -316 230 -411 278 -655
331 -105 22 -391 32 -550 19z m388 -405 c102 -18 233 -58 302 -92 27 -14 117
-69 200 -121 301 -192 443 -252 710 -298 181 -32 333 -15 565 62 100 33 159
63 348 174 136 80 228 63 356 -65 70 -72 86 -109 86 -204 0 -141 -81 -296
-219 -420 -181 -162 -296 -218 -536 -265 -181 -35 -549 -52 -1105 -51 l-305 0
-51 27 c-91 48 -142 122 -205 299 -81 229 -159 369 -261 471 -106 106 -225
174 -383 218 -103 29 -131 44 -150 80 -32 62 -12 106 65 145 95 48 411 70 583
40z"/>
<path d="M464 2114 c-31 -15 -54 -50 -54 -80 0 -9 11 -37 25 -63 13 -25 40
-80 59 -121 80 -173 214 -254 341 -206 119 46 119 162 0 275 -74 70 -295 211
-329 211 -6 0 -25 -7 -42 -16z"/>
<path d="M5105 1356 c-17 -7 -36 -20 -44 -29 -7 -10 -20 -17 -28 -17 -29 0
-79 -31 -96 -59 -37 -64 -9 -207 54 -273 32 -34 41 -38 85 -38 62 0 107 26
132 77 23 46 42 148 42 230 0 65 -17 91 -73 112 -35 13 -35 13 -72 -3z"/>
</g>
</svg>
