<?xml version="1.0" standalone="no"?>
<!DOCTYPE svg PUBLIC "-//W3C//DTD SVG 20010904//EN"
 "http://www.w3.org/TR/2001/REC-SVG-20010904/DTD/svg10.dtd">
<svg version="1.0" xmlns="http://www.w3.org/2000/svg"
 width="600.000000pt" height="600.000000pt" viewBox="0 0 600.000000 600.000000"
 preserveAspectRatio="xMidYMid meet">
<metadata>
Created by potrace 1.15, written by Peter Selinger 2001-2017
</metadata>
<g transform="translate(0.000000,600.000000) scale(0.100000,-0.100000)"
fill="#16364b" stroke="none">
<path d="M3539 5270 c-9 -5 -22 -22 -28 -38 -21 -50 34 -168 110 -236 124
-113 248 -73 178 58 -35 66 -130 185 -164 206 -35 21 -70 25 -96 10z m146
-191 c16 -21 25 -42 22 -46 -15 -14 -118 122 -117 154 1 10 60 -57 95 -108z"/>
<path d="M3019 5080 c-78 -41 -139 -143 -139 -231 0 -136 107 -169 213 -65
100 97 133 252 64 301 -29 20 -94 18 -138 -5z m98 -75 c10 -29 -29 -108 -79
-158 -27 -27 -54 -47 -61 -44 -38 12 0 146 55 192 33 28 76 33 85 10z"/>
<path d="M4740 4705 c-23 -24 -23 -29 -24 -242 -1 -246 11 -341 50 -380 47
-47 116 -18 131 54 13 61 9 330 -6 438 -12 85 -18 104 -42 127 -35 36 -77 37
-109 3z"/>
<path d="M1566 4238 c-23 -7 -58 -29 -86 -57 -80 -76 -88 -161 -30 -279 17
-32 50 -78 76 -101 110 -104 152 -223 199 -561 14 -96 33 -231 44 -300 28
-173 39 -313 51 -615 17 -440 30 -526 105 -682 124 -256 305 -384 615 -437
l35 -6 -3 -128 c-4 -144 20 -321 65 -471 14 -47 28 -101 31 -118 l4 -33 -87 0
c-103 0 -146 -16 -169 -65 -20 -41 -20 -49 0 -86 45 -88 261 -77 358 17 21 20
42 47 47 61 17 46 9 123 -26 241 -63 215 -70 256 -70 414 0 80 2 148 5 150 3
1 218 2 478 0 l472 -3 -7 -27 c-13 -45 -6 -212 11 -288 19 -87 49 -158 104
-243 23 -35 42 -68 42 -73 0 -4 -34 -8 -76 -8 -48 0 -88 -6 -109 -15 -55 -27
-71 -92 -34 -139 28 -36 62 -48 133 -47 129 1 246 95 246 199 0 47 -14 78 -70
162 -59 87 -77 130 -90 213 -14 84 -9 169 12 232 l13 40 114 12 c205 21 320
52 529 139 236 99 385 248 458 459 25 71 28 95 28 210 0 111 -4 144 -27 230
-56 203 -138 325 -261 385 -124 61 -245 63 -419 6 -162 -53 -379 -60 -621 -21
-257 41 -397 95 -603 234 -157 105 -265 194 -353 288 -89 96 -128 152 -225
329 -166 300 -320 498 -488 625 -32 24 -83 63 -114 86 -90 70 -208 97 -307 71z
m160 -174 c18 -9 54 -35 79 -59 25 -23 70 -59 100 -80 125 -85 244 -239 390
-500 169 -304 267 -415 561 -637 280 -211 428 -281 729 -344 115 -24 153 -28
325 -28 210 -1 279 8 413 52 108 35 231 37 293 5 156 -82 254 -411 185 -624
-41 -129 -145 -251 -267 -316 -147 -77 -321 -131 -506 -158 -238 -35 -903 -43
-1321 -16 -300 20 -438 74 -544 216 -130 173 -170 350 -178 805 -8 375 -15
455 -60 685 -13 66 -33 185 -45 265 -44 294 -97 432 -217 561 -79 85 -95 124
-69 164 13 20 25 25 57 25 23 0 56 -7 75 -16z"/>
<path d="M2440 2559 c-30 -12 -40 -26 -40 -61 0 -29 40 -68 71 -68 28 0 59 40
59 76 0 47 -42 72 -90 53z"/>
<path d="M2897 2222 c-24 -26 -21 -59 8 -87 26 -27 66 -33 84 -12 6 8 14 28
17 44 12 59 -69 99 -109 55z"/>
<path d="M2646 4199 c-36 -42 -35 -92 2 -128 46 -46 294 -131 384 -131 55 0
98 43 98 98 0 67 -18 78 -259 158 -60 19 -124 34 -152 34 -40 0 -51 -4 -73
-31z"/>
<path d="M5245 3990 c-61 -15 -105 -40 -150 -85 -71 -70 -90 -121 -90 -235 0
-88 3 -101 33 -162 61 -125 163 -186 291 -175 179 15 319 130 350 285 25 131
-24 221 -178 328 -70 48 -172 65 -256 44z m104 -301 c17 -6 31 -17 31 -25 0
-13 -30 -34 -49 -34 -15 0 -34 39 -27 56 6 17 5 17 45 3z"/>
<path d="M4199 3737 c-91 -34 -159 -99 -207 -197 -22 -45 -27 -68 -27 -130 0
-111 45 -177 155 -229 176 -82 407 50 427 245 9 84 -14 190 -51 232 -65 74
-209 112 -297 79z m101 -271 c0 -30 -13 -46 -36 -46 -29 0 -30 10 -4 38 24 25
40 28 40 8z"/>
<path d="M474 1995 c-14 -36 6 -60 88 -107 171 -97 237 -116 262 -75 13 21 0
46 -35 64 -115 60 -275 133 -290 133 -11 0 -22 -7 -25 -15z"/>
<path d="M5342 1113 c-18 -7 -58 -91 -67 -140 -18 -107 61 -182 150 -141 44
20 68 72 73 159 4 73 3 79 -21 103 -21 21 -35 26 -74 25 -26 0 -54 -3 -61 -6z"/>
</g>
</svg>
