<?xml version="1.0" standalone="no"?>
<!DOCTYPE svg PUBLIC "-//W3C//DTD SVG 20010904//EN"
 "http://www.w3.org/TR/2001/REC-SVG-20010904/DTD/svg10.dtd">
<svg version="1.0" xmlns="http://www.w3.org/2000/svg"
 width="600.000000pt" height="600.000000pt" viewBox="0 0 600.000000 600.000000"
 preserveAspectRatio="xMidYMid meet">
<metadata>
Created by potrace 1.15, written by Peter Selinger 2001-2017
</metadata>
<g transform="translate(0.000000,600.000000) scale(0.100000,-0.100000)"
fill="#16364b" stroke="none">
<path d="M2813 5575 c-38 -16 -73 -69 -114 -171 -85 -211 -52 -385 86 -454 43
-22 63 -25 150 -25 55 0 134 4 175 8 l75 9 -262 -264 c-321 -322 -338 -343
-338 -413 0 -45 5 -58 42 -107 31 -41 54 -60 85 -72 24 -8 167 -36 318 -61
151 -25 320 -57 375 -70 121 -30 170 -31 213 -5 89 55 96 190 12 250 -37 26
-193 63 -432 103 -109 17 -198 35 -198 38 0 15 309 306 494 464 94 81 132 170
107 248 -25 75 -82 120 -197 158 -61 19 -91 22 -256 23 -102 1 -189 4 -193 7
-3 4 12 47 34 97 23 49 41 98 41 108 0 10 -9 36 -20 59 -35 72 -121 103 -197
70z"/>
<path d="M1523 5270 c-126 -57 -324 -239 -399 -366 -44 -74 -111 -227 -145
-326 -39 -117 6 -220 106 -242 19 -4 73 3 140 19 137 31 331 53 345 39 7 -7 2
-35 -16 -85 -14 -41 -45 -127 -67 -192 -44 -124 -43 -120 -11 -219 4 -12 -2
-18 -25 -23 -106 -23 -156 -181 -82 -256 46 -46 98 -54 189 -28 236 66 550
209 590 268 46 71 21 180 -50 217 -55 29 -103 22 -217 -30 -57 -25 -106 -45
-108 -42 -3 2 21 61 52 130 62 138 90 247 79 310 -17 106 -85 194 -182 238
-41 19 -66 22 -194 22 -82 1 -148 5 -148 9 0 5 21 35 46 68 59 76 163 166 237
204 74 37 100 72 105 144 3 46 0 62 -20 91 -46 68 -140 89 -225 50z"/>
<path d="M4370 4596 c-86 -26 -255 -96 -316 -131 -71 -41 -91 -114 -54 -189
27 -55 63 -79 125 -84 41 -3 62 1 104 22 68 35 220 96 237 96 8 0 14 -6 14
-14 0 -26 -144 -300 -229 -434 -46 -73 -87 -149 -92 -169 -10 -46 10 -109 43
-131 12 -9 32 -26 43 -38 43 -45 71 -54 226 -74 181 -23 378 -56 387 -64 17
-18 -72 -217 -183 -411 -68 -120 -76 -156 -46 -219 41 -84 135 -117 211 -75
39 22 49 36 120 184 145 298 211 499 196 598 -10 66 -60 136 -121 169 -60 33
-178 61 -340 83 -149 20 -165 23 -165 33 0 5 32 64 71 133 195 338 236 534
136 654 -70 85 -210 108 -367 61z"/>
<path d="M3764 3661 c-17 -4 -53 -18 -79 -31 -169 -82 -211 -291 -72 -361 76
-39 160 -12 202 64 26 48 49 45 53 -6 4 -46 -20 -132 -58 -206 -26 -51 -34
-58 -87 -79 -77 -31 -216 -125 -249 -167 -74 -97 -39 -213 73 -244 51 -14 101
1 154 45 68 56 117 81 248 123 150 49 184 70 217 138 32 64 27 126 -13 173
-24 29 -25 34 -15 88 20 105 21 119 11 186 -23 163 -134 270 -291 281 -35 2
-77 1 -94 -4z"/>
<path d="M2422 3551 c-103 -30 -299 -131 -337 -173 -63 -69 -56 -159 16 -221
43 -38 91 -52 136 -41 15 4 66 26 113 50 106 52 207 84 271 84 l49 0 0 -39 c0
-63 -46 -194 -121 -348 -40 -82 -69 -155 -69 -173 0 -74 49 -131 124 -146 l39
-7 -59 -27 c-86 -40 -122 -80 -138 -157 -15 -65 33 -167 92 -197 62 -31 86
-28 275 33 100 32 213 66 251 74 l68 16 -6 -31 c-3 -17 -24 -76 -46 -131 -44
-109 -50 -164 -25 -225 33 -77 107 -126 190 -125 95 1 142 43 195 177 74 189
109 364 89 457 -30 142 -116 218 -274 242 -112 16 -268 -7 -525 -79 l-25 -8
27 25 c36 32 158 258 207 384 47 119 65 210 56 279 -16 119 -99 227 -220 287
-65 32 -77 34 -180 36 -83 2 -125 -2 -173 -16z"/>
<path d="M1140 3268 c-59 -23 -211 -121 -247 -159 -29 -31 -53 -90 -53 -129 0
-107 119 -197 228 -172 30 6 42 6 42 -2 0 -11 -13 -114 -65 -506 -32 -245 -41
-401 -26 -456 13 -49 51 -90 106 -115 46 -21 102 -24 177 -8 76 16 122 69 253
292 150 255 232 380 300 455 l58 63 20 -58 c17 -50 19 -75 14 -188 -3 -71 -13
-187 -22 -257 -14 -118 -26 -187 -71 -421 -16 -82 -16 -90 0 -132 37 -95 147
-125 224 -60 l29 25 12 -63 c7 -34 32 -134 55 -222 24 -88 58 -214 76 -280 18
-66 48 -151 67 -190 45 -89 145 -190 228 -231 53 -26 70 -29 155 -29 87 0 101
3 167 34 42 19 89 51 112 75 21 22 55 54 76 69 28 22 51 60 101 165 103 217
222 382 275 382 28 0 89 -33 190 -101 129 -88 189 -113 281 -117 69 -4 84 -1
140 25 82 39 160 111 193 177 14 29 39 62 54 74 36 27 81 115 81 160 0 19 -14
78 -31 131 -17 53 -33 124 -36 158 l-6 62 39 10 c57 14 148 29 234 36 252 22
393 93 462 233 32 64 33 72 32 177 -1 159 -36 230 -140 281 -158 77 -334 -11
-334 -166 l0 -27 -122 -6 c-143 -6 -255 -35 -376 -96 -123 -62 -189 -126 -236
-226 -66 -141 -61 -350 13 -544 14 -38 16 -51 7 -48 -8 3 -67 37 -131 76 -148
89 -228 116 -351 115 -83 0 -97 -3 -159 -33 -156 -77 -322 -299 -434 -581 -16
-42 -30 -60 -55 -74 -19 -10 -39 -15 -46 -11 -34 21 -111 269 -150 485 -33
181 -38 197 -71 235 -65 74 -194 78 -284 10 -25 -19 -45 -32 -45 -29 0 3 14
58 31 122 45 172 69 373 75 632 6 213 5 231 -19 348 -29 139 -57 198 -119 242
-83 60 -166 63 -278 9 -83 -40 -240 -196 -325 -322 -33 -49 -61 -84 -63 -78
-2 5 8 84 22 175 57 363 24 521 -124 599 -64 33 -131 35 -210 5z"/>
</g>
</svg>
