<?xml version="1.0" standalone="no"?>
<!DOCTYPE svg PUBLIC "-//W3C//DTD SVG 20010904//EN"
 "http://www.w3.org/TR/2001/REC-SVG-20010904/DTD/svg10.dtd">
<svg version="1.0" xmlns="http://www.w3.org/2000/svg"
 width="600.000000pt" height="600.000000pt" viewBox="0 0 600.000000 600.000000"
 preserveAspectRatio="xMidYMid meet">
<metadata>
Created by potrace 1.15, written by Peter Selinger 2001-2017
</metadata>
<g transform="translate(0.000000,600.000000) scale(0.100000,-0.100000)"
fill="#16364b" stroke="none">
<path d="M2295 5819 c-17 -4 -80 -51 -140 -104 -61 -53 -144 -119 -185 -147
-257 -176 -451 -352 -500 -453 -51 -106 -19 -200 90 -260 53 -29 59 -30 185
-30 162 1 236 20 555 145 124 48 234 90 246 94 34 10 83 66 94 107 16 58 3
108 -39 150 -62 62 -87 60 -264 -14 -156 -66 -315 -122 -323 -115 -2 3 40 39
93 80 54 41 153 123 220 182 97 85 125 116 139 151 47 124 -53 249 -171 214z"/>
<path d="M3095 5671 c-69 -17 -105 -63 -105 -133 0 -86 55 -137 169 -158 88
-17 186 -47 241 -75 62 -32 126 -99 145 -153 41 -123 -4 -296 -99 -379 -41
-37 -127 -79 -181 -88 -115 -21 -161 -69 -153 -156 6 -56 33 -93 85 -115 63
-27 158 -8 293 58 273 133 413 483 310 774 -62 178 -210 319 -395 377 -48 16
-172 41 -245 50 -19 3 -48 2 -65 -2z"/>
<path d="M939 5303 c-95 -49 -196 -149 -238 -235 -45 -92 -61 -160 -61 -269 0
-152 34 -242 129 -343 83 -88 162 -136 223 -136 169 0 226 201 85 298 -114 79
-164 198 -124 295 18 41 82 99 145 131 74 38 102 76 102 140 0 64 -28 112 -80
138 -54 27 -99 22 -181 -19z"/>
<path d="M4757 4944 c-15 -8 -38 -32 -51 -53 -40 -63 -45 -97 -30 -212 31
-235 102 -376 225 -444 48 -27 63 -30 139 -30 75 0 91 3 132 27 88 52 138 143
138 252 -1 193 -134 358 -361 446 -86 33 -148 38 -192 14z"/>
<path d="M2671 4913 c-116 -63 -218 -185 -261 -313 -30 -89 -25 -191 15 -275
36 -76 139 -179 220 -222 76 -40 177 -66 219 -57 106 23 161 165 95 248 -26
33 -47 44 -117 62 -205 54 -209 169 -11 302 49 33 79 82 79 129 0 47 -40 106
-90 131 -58 29 -86 28 -149 -5z"/>
<path d="M1826 4394 c-88 -21 -174 -71 -248 -145 -75 -73 -88 -99 -88 -165 0
-78 44 -133 121 -154 62 -17 111 1 160 60 52 62 134 105 181 96 17 -3 56 -18
86 -33 51 -25 58 -26 101 -14 92 24 147 117 121 204 -15 53 -42 82 -102 113
-104 53 -217 66 -332 38z"/>
<path d="M2549 3825 c-41 -7 -89 -20 -106 -28 -64 -34 -104 -111 -89 -172 9
-37 63 -92 102 -105 26 -9 47 -9 79 -1 137 34 265 36 265 3 -1 -31 -57 -148
-125 -262 -87 -144 -190 -281 -300 -399 -91 -97 -105 -121 -105 -179 0 -107
108 -172 206 -126 57 27 290 294 447 512 219 305 262 512 136 656 -23 26 -59
56 -80 66 -94 48 -268 62 -430 35z"/>
<path d="M4238 3794 c-234 -56 -387 -262 -323 -431 25 -65 89 -131 160 -164
49 -24 74 -29 132 -29 183 0 325 125 423 375 52 131 33 213 -57 251 -43 18
-258 17 -335 -2z m12 -309 c-13 -14 -34 -25 -47 -25 -31 0 -21 18 21 36 46 20
52 17 26 -11z"/>
<path d="M1150 3696 c-58 -16 -231 -92 -273 -120 -108 -72 -93 -245 28 -313
44 -25 131 -31 166 -13 15 8 19 7 19 -4 0 -8 -61 -135 -135 -283 -122 -242
-140 -286 -190 -451 -66 -219 -69 -266 -26 -334 38 -60 95 -88 182 -88 42 0
75 6 96 18 46 24 462 430 612 596 121 133 126 138 129 109 4 -43 -33 -261 -62
-368 -14 -49 -73 -231 -131 -404 -58 -173 -105 -326 -105 -340 0 -40 33 -92
71 -113 40 -21 107 -23 152 -4 70 30 84 60 193 407 88 284 117 392 158 589 19
91 40 181 45 200 16 52 13 236 -4 304 -32 122 -107 186 -219 186 -112 0 -232
-85 -411 -293 -55 -64 -103 -117 -106 -117 -4 0 20 64 53 143 74 175 126 331
134 401 13 111 -47 227 -145 278 -44 23 -65 28 -120 27 -36 0 -86 -6 -111 -13z"/>
<path d="M3520 3370 c-106 -36 -180 -143 -216 -310 -40 -189 8 -270 159 -270
163 0 335 89 399 207 37 68 44 118 24 187 -28 94 -104 163 -213 191 -72 19
-86 19 -153 -5z"/>
<path d="M4875 2654 c-195 -34 -303 -112 -335 -243 l-12 -49 -56 30 c-49 26
-65 29 -118 26 -100 -6 -167 -63 -195 -163 -10 -33 -8 -59 10 -149 12 -60 20
-111 18 -113 -2 -2 -49 9 -103 24 -137 37 -285 39 -362 4 -69 -31 -153 -122
-183 -198 -38 -95 -37 -243 1 -477 17 -104 37 -203 45 -220 24 -49 64 -87 123
-114 106 -48 238 -9 289 87 30 57 30 113 -2 269 -26 126 -30 162 -19 162 4 0
49 -20 101 -45 106 -51 154 -56 271 -30 134 31 219 105 259 225 15 46 18 88
18 250 l0 195 44 -22 c90 -46 220 -21 297 55 85 85 138 212 139 332 0 63 -4
80 -23 108 -44 61 -96 75 -207 56z"/>
<path d="M2910 2420 c-98 -18 -260 -86 -458 -192 -106 -57 -140 -80 -159 -110
-26 -39 -35 -99 -21 -148 l7 -26 -70 4 c-197 11 -331 -147 -260 -304 24 -53
72 -89 140 -106 l53 -14 30 -99 c45 -150 44 -139 5 -164 -44 -27 -120 -108
-142 -152 -66 -126 -59 -300 17 -426 78 -130 289 -308 473 -398 161 -80 285
-102 413 -75 70 16 281 121 321 160 122 123 52 315 -120 328 -53 4 -63 1 -155
-49 -86 -46 -106 -54 -154 -53 -84 0 -214 63 -312 152 -50 45 -49 59 2 26 78
-52 183 -30 262 53 54 57 73 153 44 231 -11 32 -81 112 -97 112 -16 0 -100
129 -130 201 -17 40 -53 141 -80 223 -27 83 -58 165 -69 184 -11 18 -20 36
-20 40 0 4 24 8 53 8 52 1 88 15 392 153 93 42 115 48 115 31 0 -5 -14 -54
-31 -107 -33 -103 -91 -227 -161 -345 -35 -59 -42 -80 -42 -123 0 -124 116
-217 231 -186 80 22 141 97 243 301 139 277 193 512 146 638 -35 96 -124 181
-226 218 -54 19 -177 26 -240 14z"/>
</g>
</svg>
