<?xml version="1.0" standalone="no"?>
<!DOCTYPE svg PUBLIC "-//W3C//DTD SVG 20010904//EN"
 "http://www.w3.org/TR/2001/REC-SVG-20010904/DTD/svg10.dtd">
<svg version="1.0" xmlns="http://www.w3.org/2000/svg"
 width="600.000000pt" height="600.000000pt" viewBox="0 0 600.000000 600.000000"
 preserveAspectRatio="xMidYMid meet">
<metadata>
Created by potrace 1.15, written by Peter Selinger 2001-2017
</metadata>
<g transform="translate(0.000000,600.000000) scale(0.100000,-0.100000)"
fill="#16364b" stroke="none">
<path d="M2232 5813 c-31 -17 -157 -119 -472 -380 -194 -160 -266 -254 -277
-358 -15 -148 88 -236 260 -220 154 14 276 51 467 141 74 34 186 83 249 108
63 25 122 53 132 62 10 9 26 35 34 59 43 110 -72 226 -190 194 -22 -6 -116
-42 -209 -80 -93 -39 -171 -68 -173 -65 -5 5 157 145 285 246 122 97 149 170
90 252 -40 57 -130 76 -196 41z"/>
<path d="M3035 5649 c-66 -58 -71 -152 -12 -215 26 -28 51 -40 136 -64 180
-53 278 -114 326 -202 26 -47 27 -57 23 -138 -4 -71 -11 -97 -34 -140 -37 -67
-114 -136 -220 -195 -47 -26 -95 -61 -109 -77 -46 -54 -45 -141 1 -192 37 -39
89 -59 133 -51 88 17 276 141 385 255 112 118 153 210 163 375 17 278 -110
457 -427 599 -87 39 -224 76 -282 76 -39 0 -54 -6 -83 -31z"/>
<path d="M927 5316 c-133 -58 -249 -163 -303 -271 -27 -55 -29 -68 -29 -170 0
-107 1 -112 38 -190 61 -128 175 -262 275 -326 116 -74 247 2 245 142 -1 59
-26 103 -86 147 -51 38 -110 112 -132 165 -42 100 7 180 145 238 79 33 96 46
115 86 46 96 -38 213 -152 213 -21 0 -72 -15 -116 -34z"/>
<path d="M2704 4961 c-161 -59 -280 -194 -314 -355 -43 -207 100 -415 330
-480 105 -29 160 -30 209 -4 59 32 83 77 78 146 -3 41 -10 59 -33 83 -33 35
-74 59 -102 59 -39 0 -124 34 -153 61 -49 46 -36 120 31 177 8 7 43 26 77 42
72 33 103 74 103 133 0 49 -21 89 -65 122 -44 34 -97 39 -161 16z"/>
<path d="M4792 4952 c-34 -10 -90 -59 -108 -94 -35 -69 -1 -312 63 -447 102
-215 326 -287 475 -153 135 122 122 339 -29 503 -62 67 -137 114 -260 165 -83
34 -99 37 -141 26z"/>
<path d="M1855 4458 c-109 -15 -219 -85 -294 -188 -64 -89 -22 -213 81 -241
58 -15 105 2 163 61 27 27 68 57 91 66 45 17 47 17 154 -42 50 -27 86 -30 133
-10 53 22 87 70 87 122 0 55 -18 91 -65 133 -90 79 -222 117 -350 99z"/>
<path d="M2648 3840 c-111 -17 -158 -64 -158 -155 0 -107 83 -165 206 -145 29
5 65 5 81 1 61 -17 27 -111 -117 -324 -49 -73 -127 -179 -174 -236 -91 -110
-106 -145 -87 -204 12 -35 49 -76 88 -96 32 -16 110 -13 139 5 45 30 309 375
395 517 70 115 94 192 94 302 -1 102 -19 155 -76 220 -83 94 -235 139 -391
115z"/>
<path d="M4218 3784 c-205 -49 -325 -200 -297 -372 34 -212 247 -334 432 -250
71 33 150 107 217 204 59 85 130 232 130 270 0 73 -62 137 -150 154 -74 14
-264 11 -332 -6z m63 -318 c-24 -26 -58 -39 -66 -26 -9 14 40 47 74 49 10 1 7
-7 -8 -23z"/>
<path d="M1195 3774 c-94 -21 -288 -97 -331 -129 -66 -51 -93 -150 -60 -228
32 -78 146 -132 231 -108 21 6 40 9 42 7 2 -2 -26 -59 -63 -127 -205 -378
-342 -730 -330 -848 10 -106 88 -176 196 -174 98 2 116 14 395 282 61 59 191
182 289 276 l179 170 -7 -62 c-9 -81 -145 -629 -190 -766 -20 -59 -53 -146
-75 -193 -54 -114 -57 -138 -29 -193 31 -59 76 -84 145 -78 74 5 115 37 154
117 75 155 153 388 219 650 18 71 53 260 90 485 14 85 11 276 -5 331 -16 54
-62 106 -108 123 -43 17 -127 13 -172 -8 -61 -28 -130 -84 -284 -229 -76 -73
-142 -132 -145 -132 -3 0 39 87 93 193 116 226 135 277 135 372 0 56 -6 80
-26 120 -69 133 -186 184 -343 149z"/>
<path d="M3519 3366 c-125 -44 -207 -153 -245 -323 -20 -91 -13 -133 31 -182
55 -61 134 -75 266 -47 129 28 228 97 275 192 52 106 17 245 -78 315 -74 53
-175 72 -249 45z"/>
<path d="M4835 2763 c-92 -50 -270 -313 -299 -444 l-13 -54 -20 40 c-60 115
-196 159 -318 101 -60 -28 -87 -56 -114 -116 -27 -58 -26 -83 4 -197 14 -53
24 -97 23 -99 -2 -1 -29 6 -61 16 -140 46 -285 52 -362 15 -102 -50 -180 -175
-191 -305 -10 -122 60 -498 109 -585 30 -52 96 -101 165 -121 141 -41 272 48
272 184 0 26 -14 108 -31 181 -16 73 -28 136 -24 139 6 6 56 -18 131 -63 58
-35 116 -40 205 -21 138 31 220 99 265 220 28 75 26 288 -4 409 -12 48 -22 89
-22 91 0 2 18 -14 40 -35 97 -93 265 -71 393 50 62 59 100 123 122 206 18 69
20 217 4 248 -15 28 -117 130 -146 145 -31 17 -93 14 -128 -5z"/>
<path d="M2940 2354 c-95 -19 -207 -66 -438 -186 -169 -88 -195 -106 -216
-140 l-23 -39 -74 -3 c-87 -3 -137 -25 -210 -92 -58 -55 -79 -97 -79 -158 0
-106 62 -175 174 -194 l38 -7 24 -94 c13 -51 26 -101 29 -110 4 -13 -7 -21
-47 -36 -148 -53 -240 -239 -225 -455 10 -144 77 -271 216 -410 99 -98 189
-153 331 -202 89 -30 104 -33 230 -33 122 0 143 3 215 28 44 15 125 51 180 80
77 40 106 61 128 93 70 101 33 227 -80 270 -53 20 -106 15 -171 -18 -104 -54
-165 -73 -232 -72 -86 0 -193 34 -268 84 -77 52 -152 157 -159 224 -6 46 -5
46 24 46 28 0 60 -18 108 -63 34 -31 69 -45 131 -52 68 -8 121 3 170 37 69 46
93 152 54 233 -23 49 -35 63 -82 99 -86 64 -149 205 -202 448 l-23 107 26 6
c14 3 118 50 231 104 113 54 218 102 233 105 26 6 28 5 22 -16 -28 -91 -89
-238 -161 -384 -55 -113 -84 -184 -84 -205 0 -19 11 -57 24 -86 59 -127 225
-150 317 -45 62 70 216 431 298 697 44 141 21 262 -65 349 -63 63 -131 89
-243 92 -53 1 -107 0 -121 -2z"/>
</g>
</svg>
