<?xml version="1.0" standalone="no"?>
<!DOCTYPE svg PUBLIC "-//W3C//DTD SVG 20010904//EN"
 "http://www.w3.org/TR/2001/REC-SVG-20010904/DTD/svg10.dtd">
<svg version="1.0" xmlns="http://www.w3.org/2000/svg"
 width="600.000000pt" height="600.000000pt" viewBox="0 0 600.000000 600.000000"
 preserveAspectRatio="xMidYMid meet">
<metadata>
Created by potrace 1.15, written by Peter Selinger 2001-2017
</metadata>
<g transform="translate(0.000000,600.000000) scale(0.100000,-0.100000)"
fill="#16364b" stroke="none">
<path d="M3266 5470 c-41 -13 -85 -58 -98 -102 -9 -31 -8 -45 6 -81 22 -57 41
-74 117 -100 87 -31 103 -60 95 -177 -3 -47 -15 -118 -26 -159 -22 -83 -17
-127 21 -175 61 -78 182 -72 230 11 9 15 29 75 45 133 24 89 28 124 29 230 0
120 -1 128 -32 192 -54 114 -164 200 -291 227 -60 12 -57 12 -96 1z"/>
<path d="M2075 5426 c-112 -48 -141 -236 -54 -344 44 -55 109 -83 227 -96
l107 -12 -1 -35 c-1 -18 -11 -98 -23 -175 -45 -302 -18 -389 121 -389 49 0 61
4 88 30 41 38 47 55 70 193 11 62 29 148 39 190 31 122 36 191 17 255 -38 129
-149 212 -305 225 l-83 7 -4 39 c-8 97 -107 152 -199 112z"/>
<path d="M1590 4804 c-91 -17 -219 -48 -240 -59 -107 -55 -129 -180 -45 -254
50 -43 91 -48 199 -21 129 32 309 38 396 15 97 -27 131 -28 170 -8 105 54 105
189 0 261 -67 45 -154 64 -310 68 -80 1 -156 0 -170 -2z"/>
<path d="M4277 4518 c-39 -23 -77 -85 -77 -127 0 -35 35 -94 67 -112 15 -9 58
-26 95 -38 92 -30 129 -57 158 -116 21 -44 25 -67 30 -185 6 -150 15 -174 78
-204 72 -35 154 -9 196 63 17 29 19 52 19 185 0 171 -15 236 -78 332 -104 159
-371 269 -488 202z"/>
<path d="M3194 4465 c-29 -15 -76 -50 -355 -262 -58 -44 -151 -106 -207 -137
-114 -65 -137 -91 -137 -158 0 -75 58 -136 136 -145 38 -4 59 3 147 46 144 71
243 137 422 280 165 131 200 172 200 234 0 111 -113 189 -206 142z"/>
<path d="M1570 4418 c-54 -28 -80 -74 -80 -143 0 -99 55 -149 178 -160 43 -4
160 -18 262 -32 278 -37 347 -39 388 -13 64 40 79 134 31 201 -27 39 -85 65
-164 74 -33 3 -170 26 -305 51 -134 24 -249 44 -255 44 -6 0 -31 -10 -55 -22z"/>
<path d="M2155 3824 c-133 -28 -346 -49 -429 -41 -163 15 -261 -112 -185 -238
31 -51 67 -65 206 -77 158 -14 321 0 494 43 173 42 219 82 219 188 0 42 -5 56
-32 87 -38 43 -83 65 -130 63 -18 -1 -82 -12 -143 -25z"/>
<path d="M3715 3841 c-39 -10 -123 -53 -282 -144 -146 -85 -239 -133 -333
-172 -92 -38 -127 -67 -141 -117 -22 -85 35 -170 124 -183 57 -9 110 13 402
166 l229 121 33 -16 c131 -63 245 68 199 227 -29 100 -118 145 -231 118z"/>
<path d="M4985 3516 c-46 -20 -94 -64 -118 -110 -19 -37 -22 -56 -22 -196 l0
-156 -39 -79 c-21 -43 -73 -124 -115 -179 -171 -225 -251 -369 -290 -522 -31
-120 -12 -201 61 -271 70 -68 166 -82 256 -37 63 31 100 77 136 169 35 89 111
221 202 351 220 315 296 530 264 749 -15 109 -34 164 -72 209 -60 73 -184 107
-263 72z"/>
<path d="M1969 3157 c-18 -12 -44 -38 -57 -57 -20 -29 -23 -45 -20 -92 9 -128
77 -159 400 -183 86 -7 87 -7 107 -41 23 -39 88 -74 136 -74 39 0 104 31 134
63 29 32 39 108 21 162 -18 53 -84 122 -150 155 -65 32 -125 46 -275 60 -60 6
-126 15 -145 20 -60 17 -114 12 -151 -13z"/>
<path d="M4350 3159 c-14 -6 -61 -47 -105 -92 -203 -207 -400 -291 -759 -326
-97 -10 -124 -23 -164 -82 -47 -67 -15 -177 62 -213 45 -21 112 -20 281 5 300
43 595 181 804 375 78 72 101 111 101 168 0 117 -118 205 -220 165z"/>
<path d="M1375 2981 c-103 -25 -158 -118 -136 -230 6 -31 15 -108 21 -172 26
-308 97 -635 167 -776 39 -80 100 -156 144 -178 41 -22 134 -19 184 5 80 39
116 121 90 208 -9 28 -20 54 -25 57 -17 11 -57 97 -78 170 -31 106 -39 155
-72 411 -35 273 -51 352 -86 411 -40 69 -135 111 -209 94z"/>
<path d="M2186 2383 c-102 -17 -234 -78 -266 -122 -50 -71 -32 -169 37 -213
52 -31 108 -28 188 11 93 46 125 45 178 -6 116 -112 267 -59 267 95 0 86 -79
182 -182 220 -74 27 -130 31 -222 15z"/>
<path d="M4050 2114 c-14 -3 -124 -21 -245 -40 -121 -20 -389 -69 -595 -110
-334 -67 -379 -78 -409 -102 -48 -39 -71 -87 -71 -150 0 -63 16 -98 64 -140
54 -47 98 -57 198 -43 167 24 685 130 892 182 65 16 157 33 205 38 97 9 134
25 178 75 79 89 64 224 -29 272 -30 16 -143 26 -188 18z"/>
<path d="M2192 1770 c-18 -11 -41 -34 -52 -52 -70 -114 63 -434 237 -570 76
-59 114 -78 158 -78 153 0 218 175 103 278 -140 124 -192 199 -208 298 -11 67
-29 98 -73 124 -43 27 -121 26 -165 0z"/>
<path d="M4705 1655 c-16 -7 -63 -49 -103 -94 -95 -105 -140 -126 -414 -195
-265 -67 -415 -116 -584 -192 -150 -68 -197 -107 -212 -178 -27 -129 61 -235
196 -236 43 0 75 10 170 54 157 71 224 95 507 177 283 83 386 123 478 185 80
55 178 160 208 224 37 78 25 175 -27 221 -55 48 -153 63 -219 34z"/>
<path d="M2057 1019 c-54 -28 -90 -88 -95 -158 -7 -97 17 -127 198 -246 148
-97 314 -179 415 -206 338 -87 792 39 821 227 12 83 -37 158 -125 189 -63 22
-103 19 -186 -14 -103 -42 -180 -55 -288 -49 -142 8 -267 57 -436 170 -159
106 -162 108 -216 107 -30 0 -65 -8 -88 -20z"/>
</g>
</svg>
