<?xml version="1.0" standalone="no"?>
<!DOCTYPE svg PUBLIC "-//W3C//DTD SVG 20010904//EN"
 "http://www.w3.org/TR/2001/REC-SVG-20010904/DTD/svg10.dtd">
<svg version="1.0" xmlns="http://www.w3.org/2000/svg"
 width="600.000000pt" height="600.000000pt" viewBox="0 0 600.000000 600.000000"
 preserveAspectRatio="xMidYMid meet">
<metadata>
Created by potrace 1.15, written by Peter Selinger 2001-2017
</metadata>
<g transform="translate(0.000000,600.000000) scale(0.100000,-0.100000)"
fill="#16364b" stroke="none">
<path d="M1560 5793 c-8 -4 -53 -24 -100 -46 -47 -21 -149 -65 -228 -98 -78
-32 -156 -68 -172 -79 -56 -40 -56 -126 1 -155 35 -19 181 -19 442 -1 182 12
189 13 215 39 32 33 35 85 6 124 -16 22 -31 29 -64 31 l-43 3 27 28 c15 15 29
44 33 64 5 31 1 40 -25 67 -29 29 -58 36 -92 23z"/>
<path d="M2388 5405 c-34 -19 -46 -60 -48 -165 -1 -100 -33 -332 -56 -410 -38
-127 -95 -196 -226 -272 -49 -28 -93 -59 -98 -69 -6 -10 -10 -36 -10 -57 0
-33 6 -45 32 -67 39 -33 57 -30 161 26 97 53 192 131 242 198 88 121 135 327
138 604 l2 168 -33 30 c-36 32 -63 36 -104 14z"/>
<path d="M3540 5317 c-37 -19 -64 -75 -56 -118 15 -84 134 -237 216 -279 110
-56 210 17 180 131 -13 49 -63 130 -115 187 -56 63 -175 104 -225 79z"/>
<path d="M2993 5129 c-83 -41 -153 -162 -160 -277 -12 -189 146 -236 309 -93
55 49 88 132 88 220 -1 136 -117 210 -237 150z m41 -227 c-24 -36 -30 -12 -8
30 14 26 19 29 22 15 2 -10 -4 -30 -14 -45z"/>
<path d="M4761 4757 c-13 -6 -34 -25 -45 -40 -19 -26 -21 -41 -19 -145 4 -277
92 -477 224 -510 93 -23 182 34 213 138 43 144 -11 292 -163 452 -111 117
-150 136 -210 105z"/>
<path d="M2695 4223 c-74 -16 -124 -54 -157 -117 -23 -46 -21 -122 5 -173 66
-126 244 -180 411 -124 81 28 182 94 214 141 43 63 19 159 -48 195 -38 21
-205 63 -293 75 -81 10 -98 11 -132 3z"/>
<path d="M1115 4119 c-50 -29 -71 -100 -45 -150 9 -16 7 -21 -13 -28 -37 -14
-67 -59 -67 -100 0 -63 54 -121 157 -169 76 -35 177 -37 238 -5 144 78 166
212 54 325 -87 87 -269 159 -324 127z"/>
<path d="M5190 3831 c-75 -24 -96 -36 -153 -90 -76 -71 -92 -109 -91 -216 0
-113 21 -164 102 -244 138 -139 343 -132 482 15 63 67 92 129 98 215 9 123
-41 212 -169 297 -60 40 -65 42 -138 41 -44 0 -99 -8 -131 -18z m135 -291 c7
-12 -30 -50 -49 -50 -16 0 -31 34 -21 50 8 13 62 13 70 0z"/>
<path d="M4250 3779 c-110 -22 -213 -100 -259 -199 -35 -73 -37 -191 -4 -261
51 -112 141 -172 258 -173 87 0 145 24 215 90 85 79 130 206 130 368 0 86 -1
89 -33 121 -52 52 -190 77 -307 54z m70 -288 c0 -16 -41 -61 -56 -61 -28 0
-14 38 21 58 24 14 35 15 35 3z"/>
<path d="M3453 3385 c-43 -18 -112 -109 -163 -214 -58 -117 -61 -151 -22 -191
35 -35 67 -38 120 -13 96 45 212 225 212 328 0 47 -4 56 -31 79 -34 29 -68 32
-116 11z"/>
<path d="M1606 3129 c-197 -16 -355 -56 -466 -117 -171 -94 -282 -292 -266
-473 21 -234 159 -406 413 -518 128 -56 189 -95 232 -150 40 -50 109 -181 156
-294 116 -282 255 -417 501 -483 101 -28 321 -25 469 6 85 17 165 24 350 31
577 19 926 108 1175 297 122 93 296 258 345 326 87 123 142 281 165 482 21
184 -13 287 -134 402 -230 218 -429 303 -616 262 -25 -6 -117 -46 -205 -90
-197 -99 -270 -119 -455 -125 -240 -6 -309 13 -615 179 -220 120 -287 151
-397 184 -98 31 -292 70 -378 77 -153 12 -177 12 -274 4z m298 -395 c148 -24
283 -71 426 -151 187 -105 301 -160 419 -203 112 -41 258 -80 302 -80 15 0 48
-10 75 -22 46 -20 54 -20 132 -9 137 19 390 79 467 110 40 16 121 55 180 86
89 46 113 55 138 49 47 -10 105 -49 174 -117 76 -74 83 -102 52 -202 -53 -171
-107 -255 -245 -379 -209 -187 -361 -244 -754 -281 -86 -8 -241 -16 -345 -16
-109 -1 -224 -7 -270 -15 -285 -49 -433 -35 -517 49 -47 47 -72 93 -133 243
-82 202 -145 306 -244 402 -85 83 -154 122 -311 177 -125 43 -146 55 -167 99
-21 45 -11 97 29 142 40 46 68 59 186 90 174 46 258 51 406 28z"/>
<path d="M447 2130 c-40 -32 -45 -81 -14 -143 14 -29 34 -73 45 -99 43 -101
119 -189 205 -238 41 -24 64 -30 110 -30 73 0 111 21 137 76 56 115 -69 270
-342 422 -67 37 -105 40 -141 12z"/>
<path d="M5020 1429 c-13 -6 -31 -16 -40 -23 -8 -7 -35 -16 -60 -19 -53 -7
-95 -47 -105 -101 -9 -47 20 -180 51 -233 46 -79 135 -98 198 -42 42 36 67 99
91 230 16 83 16 102 5 129 -21 51 -88 80 -140 59z"/>
</g>
</svg>
