<?xml version="1.0" standalone="no"?>
<!DOCTYPE svg PUBLIC "-//W3C//DTD SVG 20010904//EN"
 "http://www.w3.org/TR/2001/REC-SVG-20010904/DTD/svg10.dtd">
<svg version="1.0" xmlns="http://www.w3.org/2000/svg"
 width="600.000000pt" height="600.000000pt" viewBox="0 0 600.000000 600.000000"
 preserveAspectRatio="xMidYMid meet">
<metadata>
Created by potrace 1.15, written by Peter Selinger 2001-2017
</metadata>
<g transform="translate(0.000000,600.000000) scale(0.100000,-0.100000)"
fill="#16364b" stroke="none">
<path d="M1550 5793 c-27 -5 -97 -74 -237 -232 -132 -148 -154 -202 -113 -269
39 -63 118 -69 248 -18 168 66 387 165 409 184 45 40 42 105 -8 154 -26 27
-35 29 -77 26 -26 -3 -64 -12 -86 -22 l-38 -17 21 27 c62 79 -14 187 -119 167z"/>
<path d="M2363 5431 c-17 -11 -34 -29 -38 -41 -4 -12 -8 -99 -10 -193 -4 -202
-25 -314 -78 -429 -45 -97 -102 -159 -194 -210 -76 -42 -103 -74 -103 -123 0
-34 25 -82 49 -95 61 -32 187 25 299 136 60 60 80 89 122 176 92 193 127 372
118 603 -5 131 -16 162 -64 183 -36 17 -64 15 -101 -7z"/>
<path d="M3520 5327 c-13 -7 -35 -28 -48 -47 -19 -29 -23 -44 -20 -87 6 -71
55 -166 120 -231 88 -90 161 -115 233 -83 87 38 97 127 28 249 -55 99 -124
164 -203 190 -74 26 -77 26 -110 9z"/>
<path d="M3015 5138 c-153 -33 -261 -284 -172 -401 39 -51 86 -70 166 -65 52
3 77 10 115 34 69 42 86 69 99 157 26 184 -65 305 -208 275z"/>
<path d="M4753 4781 c-18 -11 -39 -34 -48 -50 -19 -38 -20 -145 0 -271 41
-269 151 -430 296 -430 43 0 129 50 160 93 35 49 59 124 59 188 0 63 -32 164
-72 224 -72 111 -247 252 -325 261 -27 4 -47 -1 -70 -15z"/>
<path d="M2672 4205 c-59 -18 -106 -57 -139 -113 -49 -82 -33 -196 38 -272 63
-68 174 -101 269 -81 99 21 249 123 304 206 32 48 34 106 6 152 -22 37 -34 44
-116 72 -154 52 -273 64 -362 36z"/>
<path d="M1073 4080 c-62 -37 -82 -102 -52 -165 17 -36 54 -55 172 -90 48 -14
87 -29 87 -34 0 -26 -161 -56 -250 -46 -67 7 -114 -15 -142 -66 -23 -43 -23
-70 1 -117 31 -60 62 -72 188 -72 283 0 485 126 487 305 2 134 -106 230 -318
285 -99 25 -132 25 -173 0z"/>
<path d="M4270 3783 c-104 -17 -212 -79 -264 -150 -142 -194 -55 -429 174
-471 215 -40 385 142 406 433 5 69 3 84 -15 112 -11 18 -33 39 -49 47 -52 27
-179 41 -252 29z m4 -295 c-15 -27 -38 -48 -51 -48 -21 0 -15 27 9 44 27 19
52 21 42 4z"/>
<path d="M1645 3706 c-63 -28 -70 -46 -70 -175 0 -106 3 -121 29 -178 68 -149
208 -204 304 -119 106 93 93 275 -29 393 -73 70 -177 105 -234 79z"/>
<path d="M5245 3694 c-130 -29 -229 -78 -283 -139 -132 -150 -74 -394 120
-497 34 -18 59 -23 123 -23 69 0 89 4 147 32 128 60 188 150 196 291 4 77 2
87 -26 145 -29 59 -92 125 -162 170 -28 17 -84 28 -115 21z m-10 -344 c-10
-11 -24 -20 -32 -20 -21 0 -15 27 9 44 30 22 48 3 23 -24z"/>
<path d="M3423 3350 c-63 -38 -183 -237 -183 -302 0 -60 54 -108 122 -108 50
0 138 49 174 97 63 83 92 212 62 278 -24 54 -115 72 -175 35z"/>
<path d="M2430 3090 c-217 -15 -386 -60 -635 -170 -344 -151 -448 -224 -566
-405 -118 -180 -138 -500 -41 -690 28 -56 75 -109 339 -381 320 -330 400 -391
570 -435 188 -48 467 -3 688 109 203 103 522 296 658 398 98 74 237 215 296
302 151 223 168 379 64 586 -53 105 -86 150 -198 265 -133 138 -232 212 -405
305 -177 95 -462 138 -770 116z m399 -391 c128 -21 347 -156 502 -310 142
-140 163 -191 119 -288 -26 -56 -197 -226 -306 -303 -88 -63 -324 -213 -395
-251 -24 -13 -70 -40 -103 -61 -197 -127 -372 -157 -518 -89 -53 25 -79 47
-148 124 -46 52 -159 174 -251 271 -199 212 -214 239 -206 375 7 125 57 218
151 282 22 16 93 52 156 81 331 150 397 169 630 179 167 8 283 5 369 -10z"/>
<path d="M402 2204 c-28 -19 -52 -65 -52 -98 0 -34 35 -136 73 -211 72 -144
194 -284 297 -340 45 -24 67 -30 121 -30 56 0 71 4 101 27 73 56 87 173 34
283 -50 100 -186 218 -361 311 -49 26 -99 53 -110 61 -26 18 -76 17 -103 -3z
m344 -416 l29 -33 -32 29 c-18 17 -33 31 -33 33 0 8 8 1 36 -29z"/>
<path d="M4666 1775 c-22 -8 -48 -23 -59 -33 -19 -20 -20 -20 -54 0 -52 31
-124 21 -169 -23 -46 -46 -57 -109 -43 -236 24 -221 99 -344 218 -360 86 -12
144 33 181 142 35 101 90 391 80 423 -24 84 -77 114 -154 87z"/>
</g>
</svg>
