<?xml version="1.0" standalone="no"?>
<!DOCTYPE svg PUBLIC "-//W3C//DTD SVG 20010904//EN"
 "http://www.w3.org/TR/2001/REC-SVG-20010904/DTD/svg10.dtd">
<svg version="1.0" xmlns="http://www.w3.org/2000/svg"
 width="600.000000pt" height="600.000000pt" viewBox="0 0 600.000000 600.000000"
 preserveAspectRatio="xMidYMid meet">
<metadata>
Created by potrace 1.15, written by Peter Selinger 2001-2017
</metadata>
<g transform="translate(0.000000,600.000000) scale(0.100000,-0.100000)"
fill="#16364b" stroke="none">
<path d="M2354 5385 c-13 -21 -15 -42 -9 -137 13 -220 -25 -419 -106 -554 -42
-69 -86 -110 -177 -163 -38 -22 -72 -48 -76 -57 -19 -50 15 -114 63 -114 78 0
247 140 314 260 83 150 127 361 127 609 0 115 -2 131 -21 155 -29 36 -91 37
-115 1z"/>
<path d="M3532 5295 c-36 -26 -55 -72 -48 -118 16 -99 115 -213 212 -244 127
-40 192 51 130 182 -26 57 -105 149 -146 170 -46 24 -122 29 -148 10z"/>
<path d="M3014 5098 c-97 -31 -184 -145 -184 -240 0 -139 112 -200 236 -128
64 36 97 75 123 145 36 95 23 181 -31 219 -25 18 -96 20 -144 4z m56 -140 c0
-18 -39 -80 -59 -95 -33 -25 -42 -16 -26 25 22 54 85 106 85 70z"/>
<path d="M4785 4771 c-46 -20 -60 -49 -64 -138 -4 -100 14 -291 36 -383 29
-124 87 -190 166 -190 183 0 214 256 65 543 -70 134 -142 194 -203 168z"/>
<path d="M2647 4226 c-76 -28 -112 -82 -105 -158 6 -59 29 -93 92 -134 63 -42
154 -64 264 -64 179 0 305 78 288 178 -9 59 -37 77 -191 127 -212 67 -275 77
-348 51z"/>
<path d="M5285 3979 c-115 -11 -202 -73 -240 -172 -28 -73 -18 -194 23 -280
41 -88 112 -158 189 -187 84 -32 197 -25 271 15 149 81 224 277 159 418 -30
66 -90 125 -171 168 -67 37 -134 48 -231 38z m89 -299 c33 -12 33 -37 0 -52
-22 -11 -28 -10 -40 7 -18 25 -18 55 0 55 8 0 26 -4 40 -10z"/>
<path d="M4210 3759 c-55 -16 -141 -80 -177 -133 -67 -98 -79 -212 -31 -314
124 -263 510 -185 573 117 14 67 7 180 -14 219 -46 85 -235 144 -351 111z
m104 -291 c-15 -27 -38 -48 -51 -48 -18 0 -16 20 4 42 18 21 58 25 47 6z"/>
<path d="M3452 3368 c-12 -6 -36 -33 -52 -60 -45 -72 -120 -244 -120 -273 0
-36 33 -65 76 -65 96 0 255 267 218 365 -8 19 -55 45 -81 44 -10 0 -28 -5 -41
-11z"/>
<path d="M1027 3359 c-114 -27 -238 -124 -287 -224 -21 -42 -25 -64 -25 -145
0 -86 3 -100 29 -148 72 -129 253 -245 431 -277 173 -31 193 -36 237 -64 52
-33 116 -124 148 -209 12 -31 52 -178 90 -327 37 -148 84 -307 103 -352 64
-151 196 -323 304 -397 57 -38 154 -72 260 -90 115 -20 427 -41 573 -40 63 1
372 4 685 7 624 5 653 8 845 69 303 96 529 225 651 372 111 134 170 278 191
470 17 160 -11 371 -67 500 -67 156 -275 362 -442 437 -133 61 -252 69 -463
34 -251 -43 -378 -102 -585 -275 -55 -45 -123 -98 -152 -116 -156 -101 -351
-81 -645 66 -111 56 -197 112 -393 259 -177 132 -254 181 -385 247 -202 101
-371 148 -690 190 -188 24 -344 29 -413 13z m328 -369 c268 -38 414 -77 583
-156 135 -62 195 -101 407 -259 105 -78 231 -167 282 -197 223 -134 481 -208
724 -208 199 0 330 53 534 215 147 118 245 177 350 212 70 24 96 27 205 28
123 0 127 -1 194 -34 95 -46 186 -138 215 -216 36 -96 44 -152 38 -270 -8
-149 -45 -264 -113 -344 -54 -65 -240 -175 -369 -219 -129 -44 -202 -52 -590
-68 -360 -15 -490 -15 -1155 1 -318 7 -455 60 -534 205 -41 75 -91 229 -137
424 -51 215 -93 355 -129 426 -66 131 -174 242 -302 314 -81 44 -147 63 -280
81 -130 17 -208 51 -181 78 12 12 116 7 258 -13z"/>
<path d="M2156 2278 c-9 -12 -16 -30 -16 -39 0 -27 50 -69 82 -69 24 0 32 6
44 37 15 34 14 38 -4 62 -27 36 -84 41 -106 9z"/>
<path d="M2882 2090 c-35 -15 -48 -54 -28 -84 29 -46 92 -46 116 -2 19 36 6
72 -31 85 -18 6 -32 11 -33 10 -1 0 -11 -4 -24 -9z"/>
<path d="M460 2040 c-46 -46 -21 -96 120 -240 82 -83 169 -102 220 -48 26 29
26 83 -1 122 -30 44 -97 93 -197 143 -97 49 -114 51 -142 23z"/>
<path d="M5327 1092 c-28 -31 -57 -106 -57 -149 0 -81 40 -123 116 -123 29 0
44 7 69 34 35 38 45 71 45 151 0 79 -24 105 -99 105 -43 0 -62 -5 -74 -18z"/>
</g>
</svg>
