<?xml version="1.0" standalone="no"?>
<!DOCTYPE svg PUBLIC "-//W3C//DTD SVG 20010904//EN"
 "http://www.w3.org/TR/2001/REC-SVG-20010904/DTD/svg10.dtd">
<svg version="1.0" xmlns="http://www.w3.org/2000/svg"
 width="600.000000pt" height="600.000000pt" viewBox="0 0 600.000000 600.000000"
 preserveAspectRatio="xMidYMid meet">
<metadata>
Created by potrace 1.15, written by Peter Selinger 2001-2017
</metadata>
<g transform="translate(0.000000,600.000000) scale(0.100000,-0.100000)"
fill="#16364b" stroke="none">
<path d="M2274 5814 c-21 -15 -94 -71 -160 -124 -67 -54 -157 -122 -200 -151
-246 -164 -389 -291 -442 -394 -52 -100 -29 -209 57 -270 41 -29 46 -30 154
-30 92 1 134 6 237 33 360 92 618 175 678 219 43 32 62 72 62 130 0 81 -50
139 -128 150 -31 4 -66 -6 -178 -50 -146 -58 -333 -121 -339 -115 -2 2 44 41
103 86 346 265 399 321 388 410 -15 114 -137 170 -232 106z"/>
<path d="M3075 5670 c-53 -27 -77 -63 -83 -121 -9 -95 32 -141 139 -158 213
-35 336 -97 385 -196 24 -50 26 -63 21 -128 -12 -157 -75 -276 -173 -329 -27
-14 -81 -35 -119 -47 -94 -27 -127 -61 -132 -133 -5 -62 17 -106 69 -138 92
-56 335 25 463 154 71 71 112 140 150 250 81 238 73 414 -24 562 -100 153
-260 240 -536 289 -103 19 -112 19 -160 -5z"/>
<path d="M947 5297 c-205 -105 -314 -233 -339 -394 -20 -129 29 -280 133 -410
59 -75 169 -168 216 -184 105 -34 206 67 188 187 -6 40 -15 54 -58 93 -120
109 -152 153 -164 226 -15 91 38 164 159 222 111 54 149 128 110 217 -24 54
-70 86 -124 86 -24 0 -66 -15 -121 -43z"/>
<path d="M4805 4958 c-37 -13 -91 -63 -112 -102 -13 -24 -14 -53 -10 -145 12
-241 94 -404 236 -469 46 -21 64 -24 130 -20 112 7 188 55 239 152 23 44 27
63 27 136 0 73 -4 93 -28 142 -57 115 -194 230 -349 292 -72 28 -87 30 -133
14z"/>
<path d="M2628 4901 c-40 -27 -99 -76 -131 -108 -213 -214 -165 -538 101 -672
66 -33 190 -71 235 -71 61 0 131 62 143 126 16 87 -35 152 -137 174 -88 20
-141 50 -163 94 -17 35 -17 40 -2 81 16 42 66 95 150 159 91 69 85 204 -11
251 -58 28 -104 20 -185 -34z"/>
<path d="M1855 4416 c-191 -44 -375 -196 -375 -308 0 -70 53 -137 125 -158 64
-19 111 -1 174 65 86 89 153 106 239 60 86 -46 177 -26 222 47 95 156 -155
347 -385 294z"/>
<path d="M2533 3831 c-92 -19 -130 -41 -155 -92 -36 -69 -13 -153 52 -197 38
-26 48 -26 230 -3 103 12 156 4 152 -25 -15 -92 -219 -401 -432 -654 -80 -95
-90 -114 -90 -171 0 -108 108 -184 206 -144 45 18 64 39 327 390 138 182 202
277 238 350 100 204 85 353 -47 474 -75 69 -148 91 -293 90 -59 0 -143 -8
-188 -18z"/>
<path d="M4235 3800 c-164 -23 -275 -104 -319 -233 -69 -205 119 -439 333
-414 160 19 300 135 394 327 90 184 38 283 -163 309 -141 18 -182 19 -245 11z
m55 -308 c0 -11 -55 -42 -74 -42 -27 0 -18 20 17 35 36 16 57 19 57 7z"/>
<path d="M1185 3716 c-110 -25 -315 -117 -351 -158 -118 -133 3 -349 174 -310
24 6 42 7 40 4 -2 -4 -22 -45 -45 -92 -43 -90 -230 -621 -263 -752 -25 -94
-25 -122 -1 -173 22 -48 54 -79 103 -100 42 -17 124 -20 163 -5 15 6 187 168
383 361 322 317 357 348 360 324 3 -23 -57 -278 -170 -720 -23 -88 -56 -205
-75 -259 -39 -118 -41 -152 -10 -196 52 -77 135 -97 210 -51 76 47 158 284
303 881 31 129 63 259 72 287 19 69 12 304 -13 382 -35 111 -127 169 -239 149
-80 -15 -162 -75 -276 -203 -90 -101 -184 -201 -198 -209 -10 -6 -10 0 1 26 8
18 31 71 51 117 155 358 173 509 74 626 -59 70 -176 98 -293 71z"/>
<path d="M3555 3366 c-99 -31 -166 -91 -215 -189 -35 -72 -66 -219 -56 -272 9
-44 57 -101 105 -121 75 -33 248 4 358 75 101 65 149 156 141 265 -15 178
-172 293 -333 242z"/>
<path d="M4844 2666 c-150 -34 -262 -129 -295 -250 l-10 -35 -51 27 c-101 52
-236 27 -310 -57 -70 -80 -82 -152 -48 -305 11 -49 18 -91 17 -93 -2 -2 -39
13 -81 33 -94 43 -204 68 -266 59 -69 -9 -164 -60 -204 -108 -101 -125 -126
-265 -91 -517 31 -235 59 -316 128 -375 126 -108 311 -66 375 85 16 38 13 134
-8 304 -6 49 -9 91 -6 93 2 3 48 -18 101 -46 111 -58 138 -62 241 -30 182 56
285 171 300 336 6 61 -4 195 -22 318 l-6 39 23 -17 c46 -32 92 -47 148 -47 95
1 178 52 240 149 76 118 110 316 65 377 -51 69 -121 87 -240 60z"/>
<path d="M2881 2395 c-94 -27 -251 -93 -396 -169 -175 -91 -205 -123 -205
-219 l0 -62 -55 3 c-95 6 -214 -50 -265 -126 -35 -50 -40 -144 -11 -200 27
-52 86 -93 146 -100 39 -4 46 -8 51 -31 3 -14 18 -70 33 -123 l28 -96 -38 -18
c-55 -24 -128 -100 -156 -161 -47 -103 -48 -273 0 -376 31 -69 146 -199 234
-266 80 -61 296 -170 403 -203 109 -33 295 -33 395 1 94 32 194 83 227 115 90
90 73 233 -36 300 -66 41 -138 41 -221 -1 -94 -47 -161 -66 -214 -60 -75 9
-211 64 -272 110 -60 45 -156 153 -145 164 3 3 32 -19 64 -49 66 -64 113 -82
189 -76 43 4 66 13 111 45 72 51 102 100 102 171 0 66 -22 115 -68 150 -86 67
-104 88 -147 176 -30 62 -57 141 -85 250 -22 87 -51 182 -64 211 l-24 53 36 7
c21 4 82 33 137 65 163 94 309 160 323 145 8 -8 -104 -340 -154 -459 -41 -96
-46 -115 -42 -165 14 -199 263 -249 353 -72 37 73 178 432 215 546 42 131 51
250 24 326 -24 66 -92 142 -158 177 -44 22 -65 26 -156 29 -71 2 -123 -2 -159
-12z"/>
</g>
</svg>
