<?xml version="1.0" standalone="no"?>
<!DOCTYPE svg PUBLIC "-//W3C//DTD SVG 20010904//EN"
 "http://www.w3.org/TR/2001/REC-SVG-20010904/DTD/svg10.dtd">
<svg version="1.0" xmlns="http://www.w3.org/2000/svg"
 width="600.000000pt" height="600.000000pt" viewBox="0 0 600.000000 600.000000"
 preserveAspectRatio="xMidYMid meet">
<metadata>
Created by potrace 1.15, written by Peter Selinger 2001-2017
</metadata>
<g transform="translate(0.000000,600.000000) scale(0.100000,-0.100000)"
fill="#16364b" stroke="none">
<path d="M3141 5642 c-43 -21 -67 -66 -87 -163 -23 -110 -15 -237 21 -317 48
-108 126 -164 286 -207 50 -13 93 -26 95 -28 3 -2 -114 -84 -258 -181 -145
-97 -274 -187 -288 -199 -35 -30 -60 -68 -60 -89 0 -10 -13 -37 -30 -60 -65
-89 -24 -216 88 -272 32 -17 54 -19 419 -46 172 -13 203 -6 246 54 32 45 31
129 -2 175 -34 47 -73 60 -218 72 -70 5 -128 11 -130 13 -5 5 187 140 368 259
191 125 240 172 260 248 10 37 10 55 0 92 -29 103 -130 171 -340 231 -69 19
-136 43 -150 54 -33 24 -38 70 -17 161 11 50 13 77 6 103 -27 97 -124 144
-209 100z"/>
<path d="M1325 5389 c-125 -67 -268 -216 -355 -371 -41 -75 -95 -234 -110
-331 -7 -42 -11 -114 -8 -160 5 -96 24 -138 79 -175 47 -33 145 -28 185 8 41
38 55 81 48 144 -4 30 -4 66 0 81 l7 26 30 -25 c58 -49 99 -52 232 -16 66 17
121 29 124 27 2 -3 -13 -58 -34 -123 -33 -105 -38 -131 -38 -220 0 -94 2 -105
33 -164 25 -49 29 -66 20 -72 -7 -5 -35 -21 -63 -37 -83 -49 -108 -82 -113
-148 -3 -49 0 -64 20 -93 36 -53 83 -80 140 -80 42 0 63 9 151 61 94 55 171
95 349 178 56 27 70 38 87 74 36 75 22 138 -43 195 -31 27 -45 32 -85 32 -27
0 -68 -7 -91 -15 -56 -20 -55 -20 -80 21 -29 46 -24 80 31 244 53 158 64 272
31 337 -57 110 -182 153 -358 123 -32 -6 -101 -20 -152 -32 -51 -11 -95 -18
-98 -15 -9 8 68 116 118 166 23 24 68 61 100 82 92 63 112 156 52 237 -49 64
-134 81 -209 41z"/>
<path d="M4511 4498 c-109 -10 -148 -25 -178 -71 -47 -71 -37 -164 24 -217 40
-35 67 -37 190 -14 46 8 91 14 99 12 16 -3 -103 -158 -224 -293 -25 -27 -53
-63 -63 -80 -25 -39 -24 -111 0 -151 36 -60 149 -87 205 -50 29 18 340 388
404 479 49 70 75 142 76 211 1 85 -48 141 -150 172 -53 16 -229 17 -383 2z"/>
<path d="M3890 3683 c-70 -29 -116 -102 -106 -170 11 -79 107 -188 255 -287
90 -60 147 -74 206 -51 132 50 121 212 -18 270 -36 15 -37 18 -31 49 4 24 0
48 -15 80 -18 42 -27 50 -88 78 -67 30 -168 46 -203 31z"/>
<path d="M2525 3665 c-80 -15 -170 -47 -270 -97 -78 -40 -115 -88 -115 -149 0
-42 36 -104 76 -129 41 -28 113 -26 172 4 64 32 168 65 217 68 l40 3 -2 -55
c-2 -67 -34 -153 -120 -324 -76 -153 -97 -190 -172 -310 -49 -79 -56 -96 -56
-142 0 -39 6 -60 23 -83 12 -16 22 -36 22 -43 0 -33 23 -90 47 -119 59 -70
155 -86 265 -45 114 43 311 106 316 101 11 -10 -21 -89 -108 -265 -97 -198
-106 -233 -75 -307 20 -48 41 -71 87 -94 69 -35 157 -20 209 37 53 58 218 383
264 519 36 105 44 220 21 299 -22 73 -85 144 -159 177 -77 34 -213 37 -337 9
-52 -12 -105 -24 -118 -27 -20 -5 -16 8 46 135 181 370 206 627 74 755 -47 45
-104 74 -171 87 -66 12 -87 12 -176 -5z"/>
<path d="M1180 3484 c-154 -29 -391 -172 -437 -264 -53 -103 -3 -228 109 -274
49 -21 84 -20 137 4 l43 20 -7 -37 c-3 -21 -25 -103 -47 -183 -94 -339 -104
-391 -129 -651 -12 -126 -12 -127 12 -175 31 -62 81 -90 184 -99 104 -10 140
9 258 138 134 148 189 219 337 437 73 107 141 205 151 218 l18 23 12 -22 c13
-26 7 -109 -21 -279 -22 -130 -44 -219 -101 -403 -79 -260 -72 -422 24 -529
129 -142 349 -13 267 157 -20 41 -22 56 -16 118 4 40 18 119 32 177 136 572
149 663 127 895 -17 185 -28 236 -64 285 -61 83 -141 102 -236 55 -78 -39
-304 -283 -451 -488 -31 -43 -58 -74 -60 -69 -3 11 19 100 81 312 76 262 93
380 65 472 -15 52 -78 122 -127 141 -43 18 -123 28 -161 21z"/>
<path d="M4569 3351 c-92 -29 -125 -110 -80 -200 26 -49 28 -51 177 -126 71
-35 140 -73 153 -84 l24 -19 -22 -42 c-12 -24 -55 -87 -96 -139 -40 -53 -76
-111 -80 -128 -14 -67 36 -143 104 -158 44 -10 111 13 145 49 73 76 164 191
196 249 32 57 35 68 35 147 0 74 -4 92 -29 143 -55 107 -174 198 -358 271 -98
40 -134 47 -169 37z"/>
<path d="M3643 3206 c-60 -19 -104 -49 -156 -105 -52 -56 -78 -103 -102 -185
-29 -100 0 -177 81 -216 77 -38 164 -6 204 74 l19 40 98 1 c85 1 105 5 150 28
75 39 108 91 108 172 0 80 -30 128 -106 170 -48 26 -65 30 -154 32 -64 2 -115
-2 -142 -11z"/>
<path d="M4590 2251 c-99 -35 -170 -135 -170 -240 0 -38 -2 -41 -22 -36 -192
42 -413 51 -516 21 -128 -38 -227 -128 -267 -241 -16 -43 -18 -87 -18 -328 1
-258 -1 -278 -18 -287 -28 -16 -32 -14 -120 58 -330 269 -509 337 -670 257
-79 -40 -144 -131 -180 -252 -6 -24 -15 -43 -19 -43 -4 0 -10 24 -14 53 -3 28
-13 113 -22 187 -26 223 -51 319 -97 368 -71 77 -201 83 -281 13 -28 -25 -56
-87 -56 -125 0 -20 9 -68 19 -108 11 -40 27 -134 36 -208 38 -326 59 -427 106
-527 36 -76 130 -165 229 -217 183 -97 290 -100 367 -13 42 48 57 97 49 164
-5 39 1 89 19 180 14 69 28 130 31 135 6 9 81 -47 224 -167 47 -39 103 -84
125 -98 54 -37 155 -67 225 -67 140 0 291 87 325 187 7 21 21 43 32 48 61 33
92 59 113 97 24 42 25 48 25 258 l0 215 50 -3 c28 -2 97 -12 154 -23 81 -16
132 -20 230 -17 115 3 131 6 180 32 108 56 195 176 227 312 22 94 15 243 -13
299 -59 115 -164 158 -283 116z"/>
</g>
</svg>
