<?xml version="1.0" standalone="no"?>
<!DOCTYPE svg PUBLIC "-//W3C//DTD SVG 20010904//EN"
 "http://www.w3.org/TR/2001/REC-SVG-20010904/DTD/svg10.dtd">
<svg version="1.0" xmlns="http://www.w3.org/2000/svg"
 width="600.000000pt" height="600.000000pt" viewBox="0 0 600.000000 600.000000"
 preserveAspectRatio="xMidYMid meet">
<metadata>
Created by potrace 1.15, written by Peter Selinger 2001-2017
</metadata>
<g transform="translate(0.000000,600.000000) scale(0.100000,-0.100000)"
fill="#16364b" stroke="none">
<path d="M2393 5408 c-35 -17 -41 -52 -47 -253 -8 -292 -50 -446 -149 -546
-25 -24 -87 -67 -138 -94 -92 -49 -94 -51 -97 -88 -7 -87 54 -99 184 -37 257
123 362 359 367 818 l2 164 -28 24 c-30 26 -58 29 -94 12z"/>
<path d="M3509 5279 c-39 -42 -38 -87 3 -169 66 -133 201 -227 285 -199 36 11
63 52 63 92 0 86 -122 254 -212 292 -61 25 -105 20 -139 -16z"/>
<path d="M3005 5132 c-122 -57 -203 -266 -145 -371 53 -92 167 -87 279 14 74
67 104 236 54 303 -49 66 -119 86 -188 54z m59 -169 c-18 -54 -29 -75 -45 -84
-15 -8 -19 -6 -19 6 0 29 42 95 61 95 5 0 6 -8 3 -17z"/>
<path d="M4749 4731 l-29 -29 0 -164 c1 -252 32 -382 111 -452 62 -56 129 -60
189 -10 117 99 111 333 -14 508 -40 56 -114 137 -146 159 -37 26 -77 22 -111
-12z"/>
<path d="M2681 4231 c-77 -20 -125 -79 -125 -154 1 -89 49 -157 148 -210 35
-19 56 -22 156 -22 104 0 121 3 172 27 73 34 125 74 144 109 29 58 11 139 -39
172 -36 23 -253 75 -343 81 -44 3 -94 1 -113 -3z"/>
<path d="M1122 4130 c-33 -14 -72 -107 -72 -174 0 -139 84 -236 205 -236 75 0
153 47 176 107 39 104 -28 210 -181 282 -68 32 -90 36 -128 21z"/>
<path d="M5255 3946 c-108 -35 -190 -102 -229 -185 -16 -36 -21 -65 -21 -137
0 -84 2 -95 38 -166 74 -151 185 -204 340 -163 139 36 265 133 300 231 52 147
-10 293 -165 390 -58 36 -69 39 -143 41 -46 2 -97 -3 -120 -11z m133 -310 c6
-7 -17 -35 -39 -47 -14 -7 -22 -4 -35 15 -22 34 -10 50 34 43 19 -4 37 -8 40
-11z"/>
<path d="M4240 3769 c-214 -43 -352 -278 -262 -450 50 -96 175 -158 296 -145
186 19 306 165 306 372 0 120 -29 164 -133 202 -65 24 -149 33 -207 21z m60
-284 c0 -19 -46 -49 -60 -40 -8 5 -4 15 11 31 25 27 49 31 49 9z"/>
<path d="M3430 3354 c-40 -34 -150 -259 -150 -307 0 -46 34 -77 85 -77 34 0
46 7 96 58 69 72 125 199 116 267 -11 79 -87 109 -147 59z"/>
<path d="M1262 3249 c-67 -4 -146 -15 -175 -25 -271 -89 -423 -297 -377 -519
41 -198 208 -331 464 -370 123 -18 172 -31 223 -61 86 -50 130 -130 208 -385
84 -273 161 -423 283 -552 97 -102 206 -164 367 -210 63 -18 104 -20 410 -22
187 -1 419 -7 517 -13 350 -23 798 20 1048 100 195 62 453 208 586 331 112
103 208 266 256 433 32 111 33 349 1 471 -42 159 -112 263 -243 362 -87 66
-229 139 -320 164 -139 40 -297 40 -443 1 -105 -28 -236 -98 -372 -198 -165
-122 -224 -150 -341 -165 -109 -13 -204 -3 -324 35 -147 46 -217 87 -460 269
-275 206 -464 299 -703 346 -106 21 -356 24 -605 8z m548 -393 c181 -35 406
-155 680 -362 267 -201 430 -269 708 -295 105 -10 126 -9 212 9 126 27 240 76
402 174 185 113 246 145 330 175 183 64 366 29 495 -96 59 -57 78 -119 78
-251 -1 -150 -43 -281 -118 -366 -90 -103 -417 -266 -641 -319 -156 -37 -285
-43 -941 -40 -534 2 -617 5 -670 19 -171 48 -229 130 -356 503 -75 220 -127
342 -178 417 -110 160 -310 263 -544 281 -114 9 -172 36 -172 80 0 23 7 33 29
43 25 13 166 34 301 45 88 8 308 -2 385 -17z"/>
<path d="M474 2080 c-28 -11 -54 -48 -54 -76 0 -12 10 -32 23 -45 13 -13 35
-44 49 -69 65 -113 169 -191 257 -192 52 -1 86 22 101 66 29 90 -55 197 -219
279 -94 47 -118 53 -157 37z"/>
<path d="M5265 1183 c-48 -32 -60 -46 -85 -98 -51 -105 6 -226 109 -229 47 -1
86 24 116 75 14 24 20 57 23 126 4 92 4 92 -26 123 -39 39 -83 40 -137 3z"/>
</g>
</svg>
