<?xml version="1.0" standalone="no"?>
<!DOCTYPE svg PUBLIC "-//W3C//DTD SVG 20010904//EN"
 "http://www.w3.org/TR/2001/REC-SVG-20010904/DTD/svg10.dtd">
<svg version="1.0" xmlns="http://www.w3.org/2000/svg"
 width="600.000000pt" height="600.000000pt" viewBox="0 0 600.000000 600.000000"
 preserveAspectRatio="xMidYMid meet">
<metadata>
Created by potrace 1.15, written by Peter Selinger 2001-2017
</metadata>
<g transform="translate(0.000000,600.000000) scale(0.100000,-0.100000)"
fill="#16364b" stroke="none">
<path d="M3015 5535 c-48 -17 -80 -52 -96 -105 -16 -54 -1 -104 51 -167 74
-88 98 -223 64 -358 -19 -77 -13 -123 23 -165 49 -59 113 -75 179 -44 43 21
70 64 88 145 45 200 19 396 -70 545 -78 130 -155 178 -239 149z"/>
<path d="M1993 5419 c-84 -41 -106 -133 -59 -236 33 -70 96 -130 189 -182 52
-28 82 -53 93 -73 8 -16 28 -98 44 -182 29 -161 44 -202 85 -234 67 -53 170
-25 213 58 25 49 25 48 -2 225 -24 151 -42 220 -77 286 -40 75 -91 122 -180
168 -63 32 -74 43 -82 72 -27 103 -126 147 -224 98z"/>
<path d="M1458 4780 c-44 -6 -79 -16 -99 -31 -34 -24 -69 -89 -69 -129 0 -43
36 -106 72 -128 33 -20 48 -22 221 -22 204 0 296 -13 395 -54 72 -31 105 -32
151 -8 67 34 89 119 50 199 -27 57 -76 88 -204 129 -150 49 -338 64 -517 44z"/>
<path d="M4323 4690 c-38 -23 -60 -55 -69 -98 -11 -54 4 -96 61 -168 72 -90
148 -243 184 -372 33 -116 48 -144 94 -173 39 -24 106 -21 145 8 75 56 79 146
13 343 -48 144 -109 257 -196 368 -87 110 -158 138 -232 92z"/>
<path d="M3159 4472 c-14 -9 -50 -43 -80 -75 -79 -88 -250 -231 -393 -330
-140 -98 -166 -128 -166 -197 0 -60 29 -106 83 -130 80 -37 100 -29 292 105
208 144 302 228 426 377 67 81 76 151 28 212 -44 55 -137 74 -190 38z"/>
<path d="M1665 4341 c-108 -56 -119 -200 -22 -260 58 -35 269 -63 497 -65 169
-1 199 1 227 16 40 22 81 75 83 108 6 66 0 83 -44 126 l-43 44 -139 0 c-89 0
-187 7 -274 21 -216 32 -239 33 -285 10z"/>
<path d="M3816 3993 c-27 -7 -89 -47 -161 -103 -160 -124 -315 -213 -535 -306
-157 -66 -182 -81 -204 -128 -45 -96 13 -202 118 -213 55 -7 172 39 392 152
176 90 261 144 431 272 127 97 148 127 141 205 -9 89 -91 144 -182 121z"/>
<path d="M2190 3778 c-102 -18 -347 -28 -481 -19 -96 6 -146 -37 -156 -132 -6
-63 26 -132 72 -159 101 -58 556 -44 772 23 42 13 89 68 97 113 18 97 -69 199
-166 195 -18 -1 -80 -10 -138 -21z"/>
<path d="M5026 3656 c-59 -22 -123 -91 -143 -154 -16 -50 -16 -58 0 -135 39
-187 12 -286 -154 -569 -97 -166 -153 -247 -237 -346 -78 -93 -97 -140 -90
-227 12 -144 192 -231 334 -160 86 43 198 196 470 644 144 237 192 454 149
677 -29 153 -66 218 -147 260 -44 23 -134 28 -182 10z"/>
<path d="M1974 3130 c-113 -56 -110 -221 6 -280 63 -32 173 -58 297 -70 65 -6
146 -18 179 -26 76 -19 129 -8 181 40 29 27 36 41 40 82 12 124 -77 180 -334
210 -81 9 -167 25 -209 40 -86 29 -107 30 -160 4z"/>
<path d="M4427 3129 c-25 -6 -67 -33 -120 -78 -105 -88 -187 -141 -312 -201
-171 -82 -322 -124 -516 -144 -114 -12 -134 -17 -165 -41 -61 -47 -80 -123
-48 -191 35 -74 102 -97 242 -83 209 21 368 69 612 183 190 88 301 153 390
228 87 74 110 110 110 178 0 108 -84 173 -193 149z"/>
<path d="M1374 2930 c-22 -11 -51 -35 -65 -53 -23 -31 -24 -38 -23 -192 0
-157 21 -367 50 -515 67 -340 222 -579 375 -580 118 -1 209 87 209 202 0 55
-5 65 -81 179 -103 156 -169 429 -169 709 0 111 -3 129 -23 165 -35 61 -92 96
-168 102 -51 3 -72 0 -105 -17z"/>
<path d="M2071 2334 c-95 -49 -95 -195 -1 -253 17 -10 70 -26 118 -36 108 -21
183 -49 223 -83 41 -34 120 -42 173 -17 77 37 111 142 67 208 -60 92 -268 175
-477 192 -54 5 -76 2 -103 -11z"/>
<path d="M4175 2100 c-22 -5 -107 -29 -188 -54 -82 -26 -246 -66 -365 -91
-119 -24 -265 -55 -325 -69 -59 -13 -160 -30 -225 -36 -199 -19 -196 -18 -240
-56 -87 -74 -87 -218 0 -300 50 -48 69 -54 166 -54 99 0 215 18 367 56 55 14
185 43 290 64 121 24 263 62 390 103 110 36 216 68 235 72 85 17 150 88 150
164 0 127 -125 226 -255 201z"/>
<path d="M4851 1725 c-33 -10 -63 -34 -125 -98 -189 -197 -471 -318 -973 -416
-176 -34 -216 -51 -248 -100 -50 -77 -40 -159 26 -235 68 -77 131 -92 244 -57
33 10 155 40 270 66 453 101 722 226 934 435 92 90 111 125 111 200 0 142
-118 243 -239 205z"/>
<path d="M2070 1551 c-58 -30 -75 -63 -75 -139 0 -64 2 -70 48 -135 90 -126
270 -253 444 -313 154 -53 226 -43 287 39 29 39 30 140 1 179 -25 34 -76 62
-140 77 -27 7 -86 31 -130 53 -64 33 -100 61 -175 138 -52 53 -105 102 -117
108 -33 18 -104 14 -143 -7z"/>
<path d="M2012 943 c-103 -50 -131 -166 -63 -260 34 -47 266 -190 409 -254
232 -102 441 -114 787 -43 142 29 168 39 211 76 41 36 69 114 59 166 -16 87
-76 149 -168 174 -44 11 -58 10 -175 -20 -229 -57 -321 -65 -459 -36 -108 22
-180 53 -322 139 -119 72 -128 75 -185 75 -35 0 -75 -7 -94 -17z"/>
</g>
</svg>
