<?xml version="1.0" standalone="no"?>
<!DOCTYPE svg PUBLIC "-//W3C//DTD SVG 20010904//EN"
 "http://www.w3.org/TR/2001/REC-SVG-20010904/DTD/svg10.dtd">
<svg version="1.0" xmlns="http://www.w3.org/2000/svg"
 width="600.000000pt" height="600.000000pt" viewBox="0 0 600.000000 600.000000"
 preserveAspectRatio="xMidYMid meet">
<metadata>
Created by potrace 1.15, written by Peter Selinger 2001-2017
</metadata>
<g transform="translate(0.000000,600.000000) scale(0.100000,-0.100000)"
fill="#16364b" stroke="none">
<path d="M1775 5810 c-78 -18 -100 -46 -148 -195 -147 -449 -157 -641 -36
-723 28 -20 44 -23 94 -20 75 5 142 38 254 127 136 107 365 372 377 437 17 93
-53 174 -150 174 -67 0 -88 -15 -178 -125 -74 -90 -108 -124 -108 -110 0 4 18
67 41 139 43 142 44 173 7 234 -31 50 -95 76 -153 62z"/>
<path d="M3025 5651 c-49 -25 -75 -66 -75 -118 0 -58 27 -92 146 -177 145
-105 329 -254 381 -308 49 -52 123 -156 123 -175 0 -9 -15 -13 -51 -13 -98 0
-159 -54 -159 -141 0 -93 58 -140 181 -147 277 -16 398 198 265 469 -88 178
-315 397 -584 564 -111 69 -162 79 -227 46z"/>
<path d="M943 5440 c-133 -28 -269 -134 -330 -257 -33 -67 -38 -86 -41 -168
-8 -171 53 -303 182 -397 78 -56 184 -30 225 56 39 79 22 162 -44 211 -46 36
-65 73 -65 128 0 87 69 147 168 147 98 0 162 54 162 135 0 115 -108 176 -257
145z"/>
<path d="M2950 5181 c-72 -22 -125 -69 -173 -153 -132 -229 67 -441 335 -358
69 21 99 43 124 92 22 43 14 181 -15 259 -46 122 -165 192 -271 160z"/>
<path d="M4795 4867 c-98 -39 -116 -73 -116 -220 0 -198 48 -346 145 -443 206
-205 523 -38 466 244 -19 91 -65 168 -155 257 -129 128 -265 193 -340 162z"/>
<path d="M1989 4821 c-117 -37 -161 -85 -161 -172 0 -38 6 -57 27 -85 50 -66
122 -80 219 -43 64 25 81 22 89 -19 13 -67 100 -129 164 -119 80 13 123 70
123 163 0 122 -57 215 -164 265 -54 25 -72 29 -151 28 -57 0 -110 -7 -146 -18z"/>
<path d="M2864 4080 c-100 -21 -164 -68 -200 -145 -13 -27 -24 -66 -24 -85 1
-103 99 -196 247 -235 128 -33 620 -6 682 38 63 43 80 135 40 207 -25 44 -73
73 -208 125 -200 77 -430 118 -537 95z"/>
<path d="M1047 4050 c-106 -14 -167 -78 -167 -175 0 -69 42 -140 102 -171 16
-8 57 -14 103 -14 l77 0 -19 -24 c-10 -13 -54 -72 -98 -131 -44 -59 -156 -209
-248 -333 -205 -275 -239 -330 -245 -398 -10 -117 65 -214 166 -214 99 0 142
17 287 114 278 185 501 326 518 326 24 0 66 -50 73 -86 16 -88 -23 -230 -121
-429 -35 -71 -86 -164 -113 -205 -66 -100 -174 -215 -240 -258 -35 -22 -59
-46 -68 -68 -41 -99 16 -222 112 -240 99 -18 330 184 477 419 63 100 173 344
224 497 27 78 37 128 41 195 4 88 6 91 39 118 59 50 67 77 60 200 -12 203 -57
292 -162 323 -49 14 -60 14 -114 0 -58 -15 -198 -81 -308 -146 -29 -17 -53
-28 -53 -25 0 2 30 42 67 87 149 184 203 289 203 392 -1 86 -69 183 -160 225
-51 23 -68 25 -215 27 -88 1 -186 -1 -218 -6z"/>
<path d="M4237 3780 c-115 -29 -225 -115 -281 -220 -40 -74 -48 -187 -18 -246
27 -52 74 -98 131 -126 39 -19 62 -23 146 -23 90 0 106 3 160 29 80 39 171
132 213 218 103 210 95 310 -28 351 -64 22 -263 32 -323 17z m44 -310 c-25
-21 -51 -26 -51 -10 0 13 31 29 55 29 19 0 19 -1 -4 -19z"/>
<path d="M3402 3395 c-103 -46 -232 -229 -232 -328 0 -91 64 -141 192 -153 67
-6 82 -4 122 15 86 42 147 160 149 291 2 83 -15 126 -65 163 -35 26 -121 33
-166 12z"/>
<path d="M5031 3205 c-55 -25 -154 -100 -209 -159 -112 -123 -150 -283 -93
-394 109 -214 425 -156 547 101 68 143 56 265 -36 375 -73 88 -133 110 -209
77z"/>
<path d="M3904 2556 c-79 -37 -124 -108 -124 -195 0 -25 14 -98 30 -161 16
-63 27 -116 25 -118 -2 -2 -18 5 -37 14 -45 25 -161 25 -205 1 -48 -26 -92
-76 -121 -137 -23 -49 -26 -67 -24 -156 0 -64 9 -135 22 -191 24 -103 105
-352 130 -403 39 -76 113 -120 202 -120 126 0 248 110 248 224 l0 34 78 0
c101 -1 181 28 238 87 58 60 78 125 72 230 -6 84 -26 149 -122 400 -26 66 -63
179 -82 250 -39 142 -53 174 -87 206 -66 62 -156 75 -243 35z"/>
<path d="M2037 2350 c-63 -24 -125 -76 -191 -158 -56 -72 -149 -207 -158 -232
-3 -8 -35 -59 -72 -113 -145 -213 -202 -371 -213 -582 -9 -186 30 -339 129
-501 96 -159 372 -362 558 -410 138 -36 328 -15 520 57 136 51 238 110 308
179 211 205 312 420 402 850 44 208 51 352 21 432 -51 132 -204 218 -363 202
-82 -9 -209 -52 -335 -114 -94 -46 -116 -54 -120 -41 -27 94 -158 305 -228
369 -86 79 -166 98 -258 62z m88 -496 c9 -20 25 -77 35 -127 30 -147 48 -181
132 -247 63 -50 117 -66 179 -52 25 6 113 50 195 97 135 79 220 121 282 139
20 7 22 4 22 -31 0 -108 -93 -412 -170 -560 -52 -99 -183 -231 -264 -267 -115
-51 -254 -73 -346 -56 -132 24 -302 146 -355 253 -81 166 -43 432 89 632 31
45 59 91 63 101 3 11 16 31 27 46 12 14 34 45 49 67 16 23 32 41 37 41 4 0 15
-16 25 -36z"/>
</g>
</svg>
