<?xml version="1.0" standalone="no"?>
<!DOCTYPE svg PUBLIC "-//W3C//DTD SVG 20010904//EN"
 "http://www.w3.org/TR/2001/REC-SVG-20010904/DTD/svg10.dtd">
<svg version="1.0" xmlns="http://www.w3.org/2000/svg"
 width="600.000000pt" height="600.000000pt" viewBox="0 0 600.000000 600.000000"
 preserveAspectRatio="xMidYMid meet">
<metadata>
Created by potrace 1.15, written by Peter Selinger 2001-2017
</metadata>
<g transform="translate(0.000000,600.000000) scale(0.100000,-0.100000)"
fill="#16364b" stroke="none">
<path d="M2470 5482 c-28 -15 -45 -39 -88 -123 -82 -163 -91 -259 -32 -352 69
-109 222 -130 493 -67 65 15 77 15 73 3 -3 -7 -51 -67 -107 -132 -151 -177
-219 -278 -315 -465 -84 -163 -86 -171 -81 -222 7 -69 24 -103 67 -132 39 -27
57 -27 370 -2 101 8 183 8 325 -2 256 -16 257 -16 299 12 89 61 87 184 -4 252
-46 34 -133 43 -403 43 -141 0 -257 1 -257 3 0 13 146 221 210 300 43 53 115
141 159 196 86 106 110 148 122 211 24 127 -83 239 -239 252 -51 4 -104 -3
-222 -26 -85 -17 -167 -31 -183 -31 l-27 0 30 60 c36 71 37 103 7 160 -39 74
-123 101 -197 62z"/>
<path d="M1700 5085 c-78 -19 -179 -66 -277 -131 -97 -63 -250 -210 -308 -298
-36 -52 -40 -65 -40 -117 1 -65 19 -98 75 -136 29 -20 46 -23 144 -23 124 -1
245 -19 301 -45 40 -20 49 -36 72 -139 26 -116 98 -169 197 -146 55 12 87 38
115 94 l24 47 -17 77 c-45 208 -168 335 -381 397 -55 16 -57 18 -39 32 39 30
152 82 209 97 97 25 157 107 140 188 -10 42 -61 96 -103 108 -44 12 -42 12
-112 -5z"/>
<path d="M4178 4760 c-26 -4 -71 -16 -100 -25 -82 -27 -267 -126 -293 -157
-51 -60 -45 -151 14 -209 65 -65 113 -61 241 19 59 37 171 82 205 82 26 0 26
-1 20 -47 -11 -75 -71 -245 -141 -397 -76 -165 -79 -192 -32 -275 65 -114 81
-118 293 -75 102 21 161 27 275 28 l145 1 -1 -50 c-2 -59 -37 -179 -106 -360
-28 -71 -54 -143 -59 -159 -28 -95 87 -202 195 -182 70 13 79 30 172 316 82
251 87 271 92 373 4 85 1 116 -12 151 -41 108 -123 174 -244 197 -64 12 -237
8 -361 -7 -45 -6 -53 -5 -48 7 83 188 117 310 124 444 4 86 2 108 -17 157 -49
131 -195 199 -362 168z"/>
<path d="M2003 3969 c-78 -31 -297 -95 -438 -128 -79 -18 -94 -26 -127 -60
-46 -49 -56 -96 -33 -156 19 -52 60 -85 114 -92 67 -9 402 67 546 124 161 64
210 110 210 196 0 39 -6 61 -24 86 -48 67 -130 77 -248 30z"/>
<path d="M3658 3656 c-154 -53 -366 -186 -396 -249 -45 -94 22 -197 129 -197
37 0 59 9 130 54 46 29 120 69 164 88 l80 35 3 -22 c4 -30 -55 -187 -133 -353
-49 -104 -69 -137 -96 -155 -49 -33 -71 -80 -66 -145 7 -93 65 -148 155 -146
121 2 509 199 624 316 97 99 104 222 16 276 -82 51 -164 33 -223 -49 -19 -27
-39 -49 -44 -49 -5 0 4 36 20 81 38 105 63 248 55 318 -7 62 -37 135 -69 170
-65 71 -193 81 -349 27z"/>
<path d="M2365 3410 c-103 -27 -283 -99 -315 -126 -38 -33 -53 -75 -48 -135 4
-42 12 -57 41 -86 50 -51 102 -54 232 -13 116 36 260 63 288 54 28 -9 19 -68
-28 -179 -50 -118 -55 -173 -22 -224 46 -69 135 -90 208 -49 43 24 88 100 134
228 35 99 45 232 22 311 -55 189 -274 282 -512 219z"/>
<path d="M1150 3124 c-131 -26 -190 -79 -190 -175 0 -104 77 -187 190 -205
l42 -7 -5 -51 c-3 -28 -13 -107 -23 -176 -11 -83 -17 -195 -18 -335 -1 -292
22 -408 93 -468 115 -97 308 -25 328 122 5 35 11 44 40 58 41 19 48 28 125
168 101 185 247 369 278 350 10 -6 11 -56 7 -209 -5 -188 -7 -210 -41 -344
-42 -169 -45 -216 -13 -262 37 -55 70 -74 131 -74 61 -1 99 20 128 70 22 40
84 313 103 457 21 161 20 406 -1 478 -61 205 -245 287 -432 192 -79 -40 -202
-151 -284 -256 l-71 -92 6 60 c24 232 29 298 25 383 -7 155 -60 243 -176 294
-47 20 -185 33 -242 22z"/>
<path d="M4836 2845 c-104 -37 -166 -134 -166 -259 0 -44 -1 -45 -37 -55 -21
-6 -47 -11 -58 -11 -41 0 -187 -59 -251 -100 -146 -95 -234 -256 -234 -425 0
-154 79 -370 173 -472 11 -13 19 -24 16 -26 -2 -2 -20 -13 -39 -25 -20 -11
-46 -32 -59 -46 -30 -32 -61 -33 -167 -6 -112 29 -238 50 -298 50 -235 -1
-475 -157 -657 -427 -27 -40 -54 -73 -60 -73 -6 0 -36 -24 -67 -54 -93 -87
-124 -94 -207 -47 -112 64 -227 217 -285 379 -64 176 -274 206 -356 50 -33
-63 -4 -191 81 -359 82 -160 220 -314 353 -391 109 -62 269 -91 387 -69 79 14
191 70 253 126 27 25 55 45 60 45 22 0 75 56 133 140 73 107 195 226 269 263
71 35 150 36 285 1 136 -34 242 -41 324 -19 85 22 153 57 208 108 55 50 82
106 83 167 l0 45 53 13 c112 26 180 110 179 225 0 84 -21 129 -95 202 -75 74
-99 119 -95 178 3 39 6 43 50 64 26 13 102 38 170 56 198 54 275 106 329 222
50 106 61 274 26 390 -15 53 -92 130 -143 144 -52 15 -111 13 -158 -4z"/>
<path d="M3178 2419 c-169 -22 -501 -113 -552 -153 -74 -56 -96 -162 -51 -252
29 -58 66 -89 128 -106 42 -11 53 -9 218 45 227 73 278 86 373 94 l79 6 -7
-24 c-26 -86 -15 -155 32 -211 80 -94 263 -89 329 10 59 89 70 321 20 418 -51
101 -144 154 -299 174 -94 11 -174 11 -270 -1z"/>
</g>
</svg>
