<?xml version="1.0" standalone="no"?>
<!DOCTYPE svg PUBLIC "-//W3C//DTD SVG 20010904//EN"
 "http://www.w3.org/TR/2001/REC-SVG-20010904/DTD/svg10.dtd">
<svg version="1.0" xmlns="http://www.w3.org/2000/svg"
 width="600.000000pt" height="600.000000pt" viewBox="0 0 600.000000 600.000000"
 preserveAspectRatio="xMidYMid meet">
<metadata>
Created by potrace 1.15, written by Peter Selinger 2001-2017
</metadata>
<g transform="translate(0.000000,600.000000) scale(0.100000,-0.100000)"
fill="#16364b" stroke="none">
<path d="M1651 5783 c-18 -9 -42 -30 -52 -47 -25 -42 -88 -307 -100 -424 -22
-210 20 -381 106 -429 44 -25 108 -30 152 -11 67 28 156 104 233 196 94 112
247 337 260 382 17 61 -24 139 -87 165 -82 34 -151 10 -198 -71 -38 -66 -118
-182 -150 -219 l-26 -30 6 45 c4 25 20 103 37 173 34 144 32 179 -9 228 -48
56 -111 72 -172 42z"/>
<path d="M3112 5590 c-34 -21 -62 -71 -62 -112 0 -50 38 -102 112 -152 229
-156 392 -298 433 -375 l14 -29 -47 1 c-121 2 -192 -125 -123 -222 32 -45 99
-66 207 -66 83 0 94 2 140 30 33 21 60 48 82 85 28 47 32 63 32 125 0 60 -5
81 -34 140 -43 89 -143 213 -252 312 -93 85 -301 244 -351 268 -44 21 -111 19
-151 -5z"/>
<path d="M880 5434 c-298 -80 -413 -492 -197 -708 66 -65 118 -89 184 -84 41
4 60 11 83 33 68 65 62 148 -16 212 -78 64 -93 122 -52 194 33 60 61 73 151
74 92 2 120 17 155 87 17 34 22 55 17 81 -10 52 -41 97 -80 113 -44 18 -173
17 -245 -2z"/>
<path d="M2944 5162 c-139 -49 -227 -199 -190 -325 30 -102 113 -165 230 -174
123 -10 224 26 256 91 37 78 20 245 -35 328 -54 81 -164 115 -261 80z"/>
<path d="M4780 4859 c-33 -13 -68 -47 -88 -84 -12 -22 -16 -56 -15 -132 3
-318 150 -533 365 -533 80 0 129 18 176 63 60 58 77 101 77 202 0 80 -3 97
-31 155 -41 86 -108 166 -191 229 -130 98 -220 129 -293 100z"/>
<path d="M2195 4805 c-223 -46 -311 -87 -336 -153 -34 -89 41 -192 141 -192
25 0 73 9 106 19 34 11 105 25 159 31 121 13 158 30 192 87 46 79 21 181 -54
218 -40 20 -75 18 -208 -10z"/>
<path d="M2770 4090 c-30 -11 -70 -33 -89 -48 -114 -92 -104 -252 21 -342 129
-94 436 -106 705 -30 94 27 135 69 140 142 6 78 -17 114 -103 160 -215 114
-530 169 -674 118z"/>
<path d="M1037 4065 c-145 -51 -170 -249 -42 -322 34 -19 55 -23 138 -23 l99
0 -33 -42 c-18 -24 -65 -79 -104 -123 -39 -44 -116 -134 -172 -200 -55 -66
-148 -171 -206 -233 -117 -125 -134 -159 -122 -241 5 -35 16 -55 49 -87 63
-64 132 -76 208 -37 24 12 31 11 53 -3 18 -12 40 -15 79 -12 49 4 63 12 168
92 l115 87 36 -33 c19 -18 52 -46 73 -63 48 -38 64 -79 64 -161 0 -91 -22
-171 -81 -291 -53 -107 -110 -179 -192 -245 -43 -34 -55 -38 -104 -38 -99 0
-166 -59 -166 -146 0 -87 53 -129 163 -129 61 1 88 6 145 31 176 76 331 226
422 409 157 315 150 603 -18 776 -27 28 -49 52 -49 54 0 2 25 13 56 25 l57 21
34 -40 c60 -71 151 -79 218 -20 19 17 39 46 44 65 9 33 -1 203 -15 248 -28 91
-139 139 -234 101 -19 -7 -93 -36 -165 -64 -71 -28 -131 -51 -132 -51 -2 0 28
37 66 82 129 151 173 278 137 401 -32 111 -118 184 -252 212 -88 19 -286 19
-337 0z"/>
<path d="M4198 3761 c-74 -24 -115 -50 -171 -110 -74 -79 -101 -141 -101 -236
-1 -65 4 -88 22 -123 81 -152 260 -205 424 -124 121 60 227 204 273 374 22 81
10 133 -39 176 -64 56 -292 80 -408 43z m92 -316 c-26 -27 -50 -33 -50 -12 0
14 34 35 59 36 10 1 7 -7 -9 -24z"/>
<path d="M3417 3406 c-82 -30 -149 -105 -213 -240 -29 -61 -35 -84 -31 -114 7
-41 30 -76 70 -106 38 -28 162 -39 226 -20 103 30 168 162 159 323 -4 80 -31
124 -92 152 -48 22 -68 23 -119 5z"/>
<path d="M5021 3223 c-205 -110 -299 -239 -289 -397 6 -96 49 -164 133 -209
60 -33 180 -30 256 5 115 53 188 152 210 285 10 64 9 78 -9 140 -34 110 -134
212 -209 213 -12 0 -54 -17 -92 -37z"/>
<path d="M3971 2468 c-24 -11 -56 -39 -72 -60 -40 -56 -45 -109 -21 -215 11
-48 19 -90 17 -92 -3 -2 -19 2 -37 10 -49 20 -135 17 -189 -8 -93 -42 -138
-117 -139 -228 0 -79 46 -320 86 -446 53 -169 90 -226 181 -273 39 -20 132
-21 176 -2 44 19 94 73 110 121 14 39 16 40 63 43 166 8 284 130 284 294 0 98
-127 685 -164 756 -54 105 -191 152 -295 100z"/>
<path d="M2100 2461 c-52 -17 -117 -55 -169 -100 -71 -59 -208 -224 -231 -277
-10 -22 -45 -76 -78 -120 -99 -129 -187 -326 -223 -499 -19 -87 -16 -275 4
-359 69 -277 274 -484 594 -599 177 -64 405 -80 543 -38 136 41 289 136 365
227 159 190 320 533 406 863 27 102 30 129 27 226 -3 101 -6 116 -36 177 -102
207 -298 269 -582 182 -126 -38 -130 -39 -130 -21 0 9 -12 48 -26 87 -36 96
-91 156 -195 210 -73 38 -90 43 -163 46 -44 2 -92 0 -106 -5z m130 -491 c32
-108 51 -141 118 -198 104 -90 140 -92 359 -22 86 27 178 53 204 56 l49 7 0
-57 c0 -127 -64 -343 -156 -531 -60 -121 -107 -188 -202 -283 -123 -124 -283
-160 -456 -103 -133 44 -288 167 -336 266 -35 74 -40 223 -11 331 29 106 90
227 151 300 28 32 61 82 74 109 29 60 165 220 176 208 5 -4 18 -42 30 -83z"/>
</g>
</svg>
