<?xml version="1.0" standalone="no"?>
<!DOCTYPE svg PUBLIC "-//W3C//DTD SVG 20010904//EN"
 "http://www.w3.org/TR/2001/REC-SVG-20010904/DTD/svg10.dtd">
<svg version="1.0" xmlns="http://www.w3.org/2000/svg"
 width="600.000000pt" height="600.000000pt" viewBox="0 0 600.000000 600.000000"
 preserveAspectRatio="xMidYMid meet">
<metadata>
Created by potrace 1.15, written by Peter Selinger 2001-2017
</metadata>
<g transform="translate(0.000000,600.000000) scale(0.100000,-0.100000)"
fill="#16364b" stroke="none">
<path d="M2393 5378 c-18 -21 -21 -40 -26 -188 -16 -434 -79 -581 -295 -681
-92 -43 -114 -70 -94 -114 18 -39 55 -42 126 -9 198 92 302 207 341 376 23
103 47 330 48 469 2 126 1 131 -22 150 -31 25 -53 24 -78 -3z"/>
<path d="M3543 5290 c-25 -10 -53 -58 -53 -92 0 -41 58 -146 105 -192 104
-102 221 -114 240 -26 8 38 -25 113 -90 198 -70 93 -146 135 -202 112z"/>
<path d="M3040 5083 c-63 -22 -111 -63 -143 -121 -54 -99 -55 -198 -3 -259 34
-39 108 -39 160 1 123 93 186 239 144 330 -24 53 -89 74 -158 49z m40 -169
c-21 -48 -75 -114 -93 -114 -17 0 0 80 24 114 26 39 70 69 82 56 5 -4 -1 -30
-13 -56z"/>
<path d="M4751 4741 c-34 -26 -42 -109 -30 -286 19 -285 66 -395 171 -395 87
0 135 103 125 270 -6 107 -33 197 -93 310 -58 112 -116 145 -173 101z"/>
<path d="M2645 4214 c-48 -24 -65 -53 -65 -111 0 -44 5 -58 29 -86 101 -115
348 -151 498 -73 45 23 62 79 39 127 -20 43 -30 49 -157 92 -195 67 -287 81
-344 51z"/>
<path d="M5212 3973 c-71 -21 -151 -94 -182 -165 -34 -77 -33 -183 2 -259 47
-104 133 -178 236 -204 53 -14 68 -14 130 -1 132 27 232 99 283 201 29 59 31
71 27 134 -9 118 -83 210 -221 277 -63 30 -81 34 -147 33 -41 0 -99 -8 -128
-16z m164 -293 c26 -10 26 -11 9 -30 -22 -24 -60 -26 -69 -4 -17 43 4 55 60
34z"/>
<path d="M4232 3755 c-161 -35 -256 -148 -257 -305 0 -274 298 -404 480 -209
95 102 130 242 99 396 -18 89 -180 149 -322 118z m68 -284 c0 -23 -25 -51 -46
-51 -20 0 -17 27 6 50 25 25 40 26 40 1z"/>
<path d="M1201 3654 c-140 -49 -223 -156 -229 -295 -4 -67 0 -85 24 -138 47
-107 159 -188 291 -213 133 -24 185 -60 241 -166 54 -105 196 -674 218 -873
25 -239 71 -365 195 -529 84 -112 203 -202 309 -235 14 -4 41 -20 60 -35 61
-48 100 -56 260 -50 269 9 460 4 510 -15 112 -41 142 -40 196 10 l29 27 390
-6 c517 -9 575 1 881 153 201 101 265 143 367 245 191 189 269 358 269 581 -1
316 -225 659 -500 766 -80 31 -251 38 -359 14 -135 -30 -215 -70 -367 -184
-230 -173 -316 -214 -511 -247 -166 -27 -258 -9 -460 93 -163 82 -283 155
-393 237 -97 74 -136 113 -396 389 -157 167 -260 254 -374 316 -96 53 -282
127 -381 152 -89 23 -209 24 -270 3z m279 -309 c235 -76 330 -143 530 -371
237 -269 402 -406 710 -591 349 -209 401 -228 635 -227 129 0 178 4 251 22
215 51 325 108 528 271 184 148 220 165 351 166 82 0 108 -4 148 -22 102 -47
250 -225 283 -341 54 -186 -36 -427 -211 -562 -91 -70 -402 -196 -611 -247
l-109 -27 -506 -3 c-347 -3 -534 -1 -595 7 -49 7 -168 15 -264 20 -192 8 -267
25 -351 78 -131 84 -185 205 -218 492 -14 116 -31 206 -59 305 -22 77 -61 219
-86 315 -24 97 -57 209 -72 250 -83 233 -194 344 -399 401 -44 12 -92 28 -107
35 -29 15 -52 47 -41 58 15 15 91 3 193 -29z"/>
<path d="M2270 2400 c-26 -26 -25 -42 6 -79 44 -52 104 -31 104 37 0 56 -70
82 -110 42z"/>
<path d="M2842 2058 c-32 -32 17 -108 68 -108 31 0 60 28 60 57 0 47 -94 85
-128 51z"/>
<path d="M3431 3354 c-48 -40 -171 -270 -171 -318 0 -42 43 -72 82 -57 47 18
147 144 193 243 33 71 32 111 -1 137 -35 28 -66 26 -103 -5z"/>
<path d="M490 2027 c-18 -9 -26 -22 -28 -48 -3 -33 3 -41 80 -115 122 -117
196 -147 252 -103 64 50 7 132 -154 220 -104 58 -118 62 -150 46z"/>
<path d="M5351 1101 c-26 -26 -61 -124 -61 -171 0 -115 147 -140 199 -34 21
41 26 128 11 165 -22 53 -112 77 -149 40z"/>
</g>
</svg>
