<?xml version="1.0" standalone="no"?>
<!DOCTYPE svg PUBLIC "-//W3C//DTD SVG 20010904//EN"
 "http://www.w3.org/TR/2001/REC-SVG-20010904/DTD/svg10.dtd">
<svg version="1.0" xmlns="http://www.w3.org/2000/svg"
 width="600.000000pt" height="600.000000pt" viewBox="0 0 600.000000 600.000000"
 preserveAspectRatio="xMidYMid meet">
<metadata>
Created by potrace 1.15, written by Peter Selinger 2001-2017
</metadata>
<g transform="translate(0.000000,600.000000) scale(0.100000,-0.100000)"
fill="#16364b" stroke="none">
<path d="M2723 5549 c-111 -32 -241 -322 -204 -455 27 -98 91 -148 212 -164
66 -8 206 -6 312 4 20 2 37 1 37 -3 0 -4 -37 -39 -82 -76 -196 -164 -299 -283
-422 -488 -72 -118 -76 -156 -30 -232 42 -68 72 -88 141 -92 219 -13 560 -51
710 -79 123 -23 188 2 219 82 21 56 9 107 -37 152 -40 39 -73 47 -304 71 -251
27 -355 42 -355 50 0 12 138 152 318 322 101 95 197 192 213 216 69 100 62
204 -21 284 -84 82 -197 105 -443 87 -86 -6 -160 -8 -163 -5 -3 3 8 33 25 68
50 99 57 138 33 191 -14 32 -30 49 -55 61 -39 19 -56 20 -104 6z"/>
<path d="M1597 5166 c-103 -43 -189 -108 -338 -256 -139 -138 -200 -214 -248
-307 -43 -86 -18 -200 54 -239 34 -18 57 -18 255 6 93 12 244 10 257 -3 3 -4
-4 -53 -17 -109 -13 -57 -24 -129 -24 -160 -1 -48 4 -62 30 -95 16 -21 49 -48
73 -60 l43 -22 -39 -10 c-21 -5 -74 -19 -117 -30 -109 -27 -139 -57 -143 -143
-5 -76 22 -130 77 -159 52 -28 94 -24 272 30 264 80 430 152 468 204 71 95 3
230 -124 244 -35 4 -58 -1 -122 -30 -85 -38 -134 -58 -134 -54 0 2 9 20 20 42
11 22 20 49 20 61 0 11 9 65 21 119 40 195 24 301 -61 385 -54 55 -132 88
-224 96 -33 3 -76 7 -94 10 -33 5 -34 6 -15 26 41 45 152 125 227 164 67 34
84 48 103 84 29 54 29 101 2 157 -37 76 -114 93 -222 49z"/>
<path d="M4265 4651 c-78 -21 -188 -63 -289 -111 -80 -38 -106 -73 -106 -140
0 -55 25 -95 77 -127 53 -32 100 -29 187 12 90 42 234 91 243 81 18 -18 -84
-276 -187 -471 -32 -60 -61 -123 -64 -140 -9 -45 8 -89 56 -145 65 -75 85 -80
295 -73 217 7 372 -2 380 -24 6 -16 -36 -116 -156 -368 -86 -182 -95 -218 -65
-281 24 -50 68 -78 124 -78 82 0 96 18 221 272 129 264 158 340 166 439 8 98
-9 156 -62 209 -71 71 -201 104 -465 120 l-115 6 65 132 c73 145 103 233 120
346 22 154 -34 280 -149 337 -53 26 -187 28 -276 4z"/>
<path d="M3790 3669 c-131 -20 -228 -68 -312 -157 -55 -58 -58 -63 -58 -112 0
-83 44 -142 115 -156 54 -10 93 5 142 52 44 43 109 84 133 84 22 0 -21 -147
-93 -318 -26 -63 -36 -76 -71 -94 -77 -39 -153 -98 -174 -137 -43 -76 -16
-168 60 -211 59 -33 114 -24 209 34 42 25 147 75 233 110 165 67 215 98 247
150 56 91 15 211 -86 252 -41 17 -45 22 -40 44 3 14 9 76 12 138 4 91 2 121
-11 156 -51 133 -154 189 -306 165z"/>
<path d="M2415 3491 c-79 -21 -261 -99 -311 -133 -48 -33 -74 -85 -74 -148 0
-47 4 -56 38 -90 59 -59 91 -61 225 -11 149 55 218 71 299 71 l68 0 0 -31 c0
-50 -48 -178 -102 -272 -46 -81 -50 -93 -46 -138 11 -107 125 -161 232 -109
67 32 157 191 197 347 23 94 25 238 4 311 -30 100 -114 178 -226 207 -75 20
-218 18 -304 -4z"/>
<path d="M1192 3210 c-59 -12 -163 -65 -213 -108 -93 -80 -104 -196 -25 -280
40 -43 90 -64 146 -60 l45 2 -3 -34 c-2 -19 -18 -152 -37 -295 -18 -143 -36
-296 -40 -340 -7 -95 8 -222 31 -272 24 -49 83 -85 149 -91 81 -7 118 4 184
54 52 39 69 61 132 172 125 222 352 552 380 552 36 0 45 -332 15 -550 -9 -69
-28 -174 -41 -235 -14 -60 -25 -128 -25 -150 0 -114 114 -179 219 -126 62 32
79 69 125 271 42 182 51 274 51 505 0 192 -3 234 -24 330 -26 125 -61 205
-106 242 -96 82 -225 84 -337 6 -61 -41 -170 -155 -250 -261 -39 -51 -73 -90
-75 -88 -2 2 5 71 17 152 30 207 30 351 0 428 -26 67 -77 129 -129 156 -45 22
-132 32 -189 20z"/>
<path d="M4788 2636 c-57 -21 -86 -43 -113 -87 -26 -39 -44 -112 -41 -159 1
-24 -1 -25 -132 -42 -73 -9 -157 -24 -185 -34 -144 -46 -284 -162 -345 -286
-88 -179 -75 -357 40 -567 l40 -74 -21 -20 -20 -21 -128 62 c-243 116 -399
129 -570 46 -123 -59 -282 -243 -390 -451 -34 -66 -55 -95 -73 -101 -14 -5
-45 -26 -68 -46 -24 -20 -50 -36 -57 -36 -54 0 -167 260 -214 493 -24 112 -54
160 -124 193 -64 30 -117 30 -175 3 -63 -31 -102 -95 -102 -168 0 -102 89
-405 169 -577 81 -172 158 -262 275 -319 162 -80 333 -45 479 98 33 31 63 57
68 57 24 0 85 72 121 144 78 155 203 317 272 353 45 23 95 18 192 -22 263
-109 263 -109 359 -109 79 -1 97 2 146 27 75 37 155 121 171 182 10 37 19 49
46 62 69 33 112 113 112 210 0 39 -10 70 -50 148 -46 92 -70 167 -70 216 0 26
43 44 156 64 49 9 125 23 169 32 100 18 210 68 268 122 26 25 56 66 73 104 26
57 29 72 28 172 0 129 -19 202 -65 258 -58 70 -164 102 -241 73z"/>
<path d="M3130 2554 c-14 -2 -59 -9 -100 -15 -165 -23 -427 -98 -479 -136
-129 -98 -67 -314 97 -339 38 -6 76 0 192 30 178 45 331 76 376 76 l33 0 -13
-37 c-8 -21 -26 -63 -40 -93 -65 -138 7 -276 148 -288 105 -9 167 35 222 155
112 246 103 439 -28 560 -67 61 -141 85 -273 89 -60 1 -121 1 -135 -2z"/>
</g>
</svg>
