<?xml version="1.0" standalone="no"?>
<!DOCTYPE svg PUBLIC "-//W3C//DTD SVG 20010904//EN"
 "http://www.w3.org/TR/2001/REC-SVG-20010904/DTD/svg10.dtd">
<svg version="1.0" xmlns="http://www.w3.org/2000/svg"
 width="600.000000pt" height="600.000000pt" viewBox="0 0 600.000000 600.000000"
 preserveAspectRatio="xMidYMid meet">
<metadata>
Created by potrace 1.15, written by Peter Selinger 2001-2017
</metadata>
<g transform="translate(0.000000,600.000000) scale(0.100000,-0.100000)"
fill="#16364b" stroke="none">
<path d="M1584 5791 c-41 -25 -58 -63 -89 -211 -95 -437 19 -766 244 -710 125
31 217 153 404 535 63 129 68 164 32 218 -24 38 -97 71 -139 63 -58 -11 -83
-42 -166 -204 -44 -86 -95 -179 -113 -207 l-32 -50 -3 30 c-6 44 15 197 42
318 26 112 24 140 -8 189 -32 49 -115 63 -172 29z"/>
<path d="M3199 5545 c-61 -33 -77 -149 -28 -201 13 -14 66 -55 118 -92 91 -65
251 -206 251 -222 0 -4 -16 -11 -37 -15 -71 -13 -122 -97 -102 -170 13 -47 48
-86 102 -113 135 -68 284 -37 352 72 25 42 30 59 30 116 0 56 -6 77 -37 141
-62 126 -163 223 -441 426 -86 63 -105 73 -141 73 -22 -1 -53 -7 -67 -15z"/>
<path d="M860 5477 c-150 -35 -255 -139 -295 -292 -26 -101 -15 -218 27 -300
38 -73 148 -169 216 -190 62 -18 146 30 158 90 10 55 -12 102 -67 142 -59 42
-78 89 -59 147 26 81 99 129 162 107 47 -17 77 -13 123 14 44 25 75 79 75 131
0 65 -50 125 -119 144 -64 17 -164 20 -221 7z"/>
<path d="M2932 5155 c-59 -30 -117 -98 -153 -180 -16 -37 -23 -71 -23 -126 -1
-67 2 -81 29 -124 51 -82 133 -109 243 -81 148 38 195 81 205 189 13 136 -24
264 -90 314 -53 41 -140 44 -211 8z"/>
<path d="M2271 4942 c-38 -21 -71 -73 -71 -113 0 -34 -13 -44 -96 -73 -148
-51 -190 -79 -213 -139 -47 -123 63 -230 174 -171 17 9 69 31 116 49 198 76
268 129 296 224 29 100 -6 194 -84 227 -44 19 -82 18 -122 -4z"/>
<path d="M4775 4841 c-32 -14 -66 -57 -74 -93 -10 -47 5 -281 23 -359 45 -197
167 -323 311 -323 106 0 192 59 238 163 16 36 19 59 15 122 -10 162 -123 316
-320 433 -97 58 -153 75 -193 57z"/>
<path d="M2804 4135 c-144 -31 -229 -116 -228 -226 2 -168 221 -289 468 -259
156 18 329 75 376 123 48 50 53 137 10 196 -41 59 -288 153 -447 171 -105 12
-102 12 -179 -5z"/>
<path d="M999 4036 c-81 -56 -101 -171 -42 -243 41 -51 87 -73 153 -73 91 0
190 -12 190 -23 0 -18 -154 -161 -251 -234 -52 -39 -156 -107 -232 -153 -147
-88 -171 -110 -188 -173 -35 -131 72 -247 200 -218 22 5 70 27 105 50 36 22
67 41 70 41 2 0 7 -11 10 -24 3 -13 22 -38 41 -55 l35 -31 -20 -37 c-41 -78
-19 -143 72 -211 124 -93 172 -171 172 -282 0 -80 -25 -140 -85 -205 -84 -91
-151 -106 -225 -50 -73 56 -160 47 -205 -21 -27 -42 -26 -121 4 -165 31 -47
121 -106 187 -122 179 -46 441 107 549 320 49 98 64 247 36 376 -28 133 -141
294 -269 382 -31 21 -56 42 -56 47 0 13 133 96 213 133 40 18 105 43 145 55
71 22 73 22 110 4 84 -42 182 -11 222 70 27 58 24 182 -6 223 -50 66 -126 89
-199 59 -21 -9 -68 -23 -104 -31 -36 -8 -77 -17 -90 -21 -22 -6 -19 0 23 51
109 134 142 265 96 373 -57 133 -209 200 -475 209 -148 5 -150 4 -186 -21z"/>
<path d="M4320 3794 c-165 -25 -247 -60 -313 -134 -59 -65 -81 -131 -75 -219
15 -207 220 -336 426 -267 81 27 163 109 212 210 38 80 80 224 80 275 0 36
-33 87 -68 105 -52 27 -182 41 -262 30z m-30 -301 c0 -14 -34 -43 -52 -43 -25
0 -23 16 4 34 23 16 48 21 48 9z"/>
<path d="M3424 3400 c-50 -16 -112 -92 -165 -206 -63 -133 -66 -185 -15 -241
31 -34 39 -37 97 -41 36 -2 84 1 107 8 136 36 236 263 173 392 -36 74 -119
111 -197 88z"/>
<path d="M5063 3326 c-181 -85 -293 -254 -281 -424 7 -100 45 -161 133 -218
47 -30 194 -27 255 5 106 56 163 123 200 232 42 123 15 238 -80 349 -75 85
-132 100 -227 56z"/>
<path d="M2195 2708 c-50 -19 -128 -72 -163 -113 -19 -20 -71 -94 -117 -164
-46 -69 -108 -154 -139 -188 -30 -35 -58 -72 -62 -85 -3 -12 -38 -60 -76 -107
-85 -106 -151 -212 -187 -305 -142 -360 -77 -714 178 -966 313 -309 787 -331
1156 -53 90 67 207 183 261 258 85 116 181 363 231 591 21 95 26 148 27 264 1
163 -8 208 -62 313 -40 77 -89 123 -178 164 -57 27 -65 28 -223 29 l-164 0
-26 75 c-49 139 -114 220 -216 269 -56 27 -189 38 -240 18z m143 -562 c30 -66
105 -147 166 -178 38 -19 51 -20 218 -13 l177 7 8 -29 c13 -45 7 -180 -11
-274 -60 -316 -219 -574 -416 -674 -131 -67 -328 -56 -466 26 -78 46 -163 132
-196 199 -94 189 -29 446 166 659 30 33 62 74 71 92 10 18 42 61 72 97 31 36
78 101 106 145 l50 79 14 -38 c8 -22 27 -66 41 -98z"/>
<path d="M4038 2357 c-76 -46 -110 -122 -101 -227 6 -58 5 -62 -13 -57 -82 24
-141 16 -202 -30 -78 -58 -111 -158 -92 -280 13 -81 112 -413 139 -463 62
-116 212 -140 314 -49 38 33 52 39 89 39 102 0 189 55 234 145 49 101 44 218
-21 483 -18 75 -41 182 -50 237 -20 118 -45 168 -101 201 -56 33 -144 33 -196
1z"/>
</g>
</svg>
