<?xml version="1.0" standalone="no"?>
<!DOCTYPE svg PUBLIC "-//W3C//DTD SVG 20010904//EN"
 "http://www.w3.org/TR/2001/REC-SVG-20010904/DTD/svg10.dtd">
<svg version="1.0" xmlns="http://www.w3.org/2000/svg"
 width="600.000000pt" height="600.000000pt" viewBox="0 0 600.000000 600.000000"
 preserveAspectRatio="xMidYMid meet">
<metadata>
Created by potrace 1.15, written by Peter Selinger 2001-2017
</metadata>
<g transform="translate(0.000000,600.000000) scale(0.100000,-0.100000)"
fill="#16364b" stroke="none">
<path d="M1535 5786 c-72 -33 -96 -93 -115 -291 -18 -187 9 -384 69 -490 75
-134 223 -151 333 -37 70 72 130 169 234 376 113 228 118 255 55 317 -34 35
-44 39 -87 39 -85 0 -99 -15 -201 -223 -51 -103 -104 -204 -118 -224 l-25 -38
0 109 c0 76 8 145 26 236 23 117 24 130 11 163 -9 19 -27 43 -41 52 -35 23
-104 29 -141 11z"/>
<path d="M3314 5499 c-43 -12 -75 -50 -81 -98 -9 -66 11 -95 116 -175 53 -41
109 -86 124 -101 l28 -28 -35 -21 c-59 -33 -82 -107 -52 -165 35 -67 167 -146
264 -158 128 -15 231 67 219 173 -6 60 -40 124 -124 235 -84 112 -166 191
-285 272 -94 64 -129 77 -174 66z"/>
<path d="M870 5493 c-116 -24 -243 -129 -300 -248 -31 -64 -34 -78 -35 -165 0
-73 5 -106 20 -140 29 -68 73 -119 139 -162 49 -32 68 -38 112 -38 46 0 57 4
88 33 40 38 51 72 41 124 -6 35 -25 58 -105 126 -30 25 -32 30 -28 77 8 80 75
150 145 150 15 0 45 -5 65 -10 84 -24 168 32 168 112 0 56 -31 102 -83 123
-42 18 -178 29 -227 18z"/>
<path d="M2935 5156 c-61 -28 -119 -90 -154 -165 -21 -45 -26 -71 -26 -131 0
-91 26 -147 85 -186 36 -24 46 -26 112 -22 87 6 178 38 225 82 28 26 35 42 44
96 20 119 -3 243 -54 299 -51 55 -148 67 -232 27z"/>
<path d="M2283 5070 c-48 -29 -63 -67 -63 -159 0 -139 -29 -176 -191 -247
-125 -53 -149 -79 -149 -157 0 -56 34 -101 89 -118 35 -10 47 -8 157 36 225
90 298 152 350 299 23 62 20 249 -4 290 -41 70 -125 95 -189 56z"/>
<path d="M4783 4819 c-31 -15 -48 -33 -64 -66 -20 -42 -22 -55 -16 -177 10
-204 51 -330 134 -414 110 -110 275 -118 374 -19 52 51 73 104 73 183 0 64 -4
80 -41 155 -72 144 -181 257 -320 330 -66 35 -85 36 -140 8z"/>
<path d="M2757 4150 c-152 -48 -233 -164 -198 -282 7 -22 33 -62 57 -88 136
-145 392 -146 677 -3 96 48 134 118 109 202 -16 51 -54 84 -142 121 -167 70
-375 91 -503 50z"/>
<path d="M1071 4070 c-135 -32 -166 -217 -47 -284 30 -17 69 -27 146 -35 127
-14 150 -19 150 -37 0 -30 -202 -172 -440 -310 -159 -92 -166 -97 -192 -148
-25 -48 -21 -124 9 -164 28 -38 86 -64 141 -64 55 0 113 26 239 108 l82 53 12
-41 c21 -79 98 -124 169 -99 17 5 68 35 113 64 126 83 216 107 296 77 82 -32
127 -23 180 33 25 28 38 96 27 142 -10 41 -72 101 -128 125 -43 19 -65 21
-148 18 l-97 -3 34 52 c41 65 67 162 59 220 -17 128 -130 225 -316 272 -87 21
-240 33 -289 21z"/>
<path d="M4205 3766 c-121 -28 -189 -70 -232 -144 -36 -61 -44 -184 -18 -263
32 -97 83 -162 158 -201 32 -17 59 -23 117 -23 67 0 82 4 138 34 117 63 213
201 252 361 16 64 19 88 10 118 -13 50 -56 90 -116 108 -70 22 -236 27 -309
10z m95 -293 c0 -14 -34 -43 -52 -43 -25 0 -23 16 4 34 23 16 48 21 48 9z"/>
<path d="M3422 3398 c-49 -16 -102 -83 -160 -201 -65 -131 -68 -170 -18 -224
31 -34 39 -37 97 -41 98 -6 145 11 204 72 31 33 57 73 70 107 26 71 27 173 1
214 -39 66 -123 97 -194 73z"/>
<path d="M5102 3375 c-58 -25 -166 -101 -216 -151 -132 -133 -136 -315 -9
-440 138 -134 382 -79 476 109 75 148 48 307 -76 440 -49 53 -56 57 -97 57
-25 -1 -60 -7 -78 -15z"/>
<path d="M2226 2876 c-114 -48 -175 -127 -255 -328 -27 -67 -83 -135 -150
-180 -25 -18 -53 -41 -61 -52 -8 -12 -48 -57 -89 -101 -171 -183 -233 -302
-278 -530 -23 -122 -23 -318 1 -404 66 -240 279 -478 529 -590 87 -39 163 -54
277 -53 277 3 513 95 690 272 168 167 277 377 366 707 68 254 30 587 -86 741
-47 63 -140 123 -231 151 -138 41 -171 64 -234 162 -106 164 -189 220 -335
226 -73 3 -93 0 -144 -21z m211 -484 c28 -43 78 -105 110 -138 56 -58 61 -60
153 -83 137 -34 158 -45 175 -85 42 -99 38 -256 -11 -442 -86 -334 -246 -544
-459 -600 -65 -18 -226 -18 -291 0 -123 33 -261 143 -314 250 -54 110 -52 270
7 409 40 94 127 221 190 274 91 78 225 220 270 286 23 34 56 95 74 135 17 39
35 72 38 72 3 0 29 -35 58 -78z"/>
<path d="M968 2763 c-16 -2 -44 -19 -63 -37 -30 -29 -35 -40 -35 -78 0 -61 30
-102 110 -150 83 -50 145 -110 178 -173 22 -42 27 -63 27 -130 0 -69 -4 -86
-27 -126 -15 -25 -38 -54 -52 -63 -55 -35 -128 -11 -182 60 -54 71 -90 102
-132 114 -79 21 -162 -41 -162 -121 0 -63 88 -179 183 -240 135 -88 267 -101
391 -40 112 55 208 185 237 321 16 76 6 231 -20 305 -48 134 -143 239 -288
317 -70 37 -117 49 -165 41z"/>
<path d="M4115 2278 c-54 -32 -95 -100 -102 -172 -5 -47 -9 -56 -22 -50 -9 3
-35 9 -59 11 -86 11 -183 -55 -212 -142 -27 -81 2 -244 96 -548 9 -30 55 -77
95 -97 46 -24 128 -26 168 -6 19 10 38 12 64 7 41 -10 113 1 156 23 46 24 100
95 118 155 18 63 15 191 -12 511 -18 216 -26 244 -89 294 -51 42 -142 48 -201
14z"/>
</g>
</svg>
