<?xml version="1.0" standalone="no"?>
<!DOCTYPE svg PUBLIC "-//W3C//DTD SVG 20010904//EN"
 "http://www.w3.org/TR/2001/REC-SVG-20010904/DTD/svg10.dtd">
<svg version="1.0" xmlns="http://www.w3.org/2000/svg"
 width="600.000000pt" height="600.000000pt" viewBox="0 0 600.000000 600.000000"
 preserveAspectRatio="xMidYMid meet">
<metadata>
Created by potrace 1.15, written by Peter Selinger 2001-2017
</metadata>
<g transform="translate(0.000000,600.000000) scale(0.100000,-0.100000)"
fill="#16364b" stroke="none">
<path d="M3544 5255 c-10 -16 -14 -36 -11 -53 9 -44 77 -152 132 -209 55 -56
93 -72 132 -54 23 11 25 16 21 64 -4 54 -46 132 -111 207 -64 74 -132 93 -163
45z m176 -188 c14 -24 17 -37 9 -31 -30 18 -109 126 -108 149 0 15 74 -72 99
-118z"/>
<path d="M3020 5092 c-80 -43 -160 -204 -145 -291 7 -45 43 -81 80 -81 56 0
173 110 221 208 34 67 28 115 -16 155 -37 33 -88 36 -140 9z m90 -87 c0 -44
-27 -93 -79 -145 -55 -55 -81 -63 -81 -27 0 78 80 197 133 197 22 0 27 -5 27
-25z"/>
<path d="M4766 4727 c-21 -21 -24 -36 -32 -187 -15 -275 -12 -431 9 -463 35
-53 106 -47 141 13 19 32 21 51 21 260 0 277 -7 333 -45 372 -34 34 -63 36
-94 5z"/>
<path d="M1599 4227 c-100 -37 -163 -129 -163 -237 0 -86 27 -144 102 -223
107 -112 131 -187 213 -665 46 -272 66 -491 79 -852 9 -269 23 -376 66 -520
57 -186 140 -311 265 -396 92 -62 162 -90 294 -116 l100 -20 0 -197 c0 -213 9
-279 56 -421 39 -116 39 -120 -13 -121 -134 -1 -198 -40 -198 -118 0 -109 142
-143 289 -70 68 34 106 73 120 124 11 40 3 78 -32 162 -62 146 -72 202 -72
415 0 125 4 201 11 208 7 7 173 12 488 16 l478 6 -8 -59 c-12 -84 -7 -223 11
-298 17 -77 48 -140 104 -214 23 -30 41 -58 41 -62 0 -3 -41 -8 -90 -11 -71
-3 -96 -9 -117 -25 -56 -41 -51 -112 10 -157 24 -18 43 -21 115 -21 75 0 94 4
139 28 28 15 64 43 80 64 24 31 28 45 28 103 0 65 -1 68 -67 165 -83 124 -87
136 -95 252 -5 72 -2 107 11 157 l18 65 56 5 c266 27 568 111 722 201 76 45
190 156 241 235 130 199 144 445 41 697 -117 287 -341 389 -654 299 -126 -37
-191 -46 -318 -46 -122 0 -170 8 -462 76 -314 72 -451 139 -656 322 -93 83
-152 158 -408 527 -284 409 -288 414 -468 579 -64 58 -130 108 -160 122 -65
30 -149 39 -197 21z m138 -184 c18 -10 62 -45 99 -78 176 -160 194 -182 529
-670 186 -271 260 -362 369 -457 151 -130 301 -220 466 -277 64 -23 425 -109
570 -136 157 -30 393 -12 540 41 101 36 243 39 306 7 119 -63 204 -247 204
-443 0 -170 -49 -289 -165 -405 -81 -81 -125 -104 -308 -164 -313 -102 -403
-113 -867 -105 -195 3 -499 7 -675 8 -346 4 -380 8 -493 64 -179 87 -277 284
-311 622 -5 58 -13 221 -16 363 -8 380 -21 491 -91 822 -96 452 -123 529 -217
631 -82 88 -94 128 -52 169 29 30 67 32 112 8z"/>
<path d="M2421 2524 c-12 -15 -21 -31 -21 -36 0 -18 58 -68 79 -68 27 0 61 38
61 67 0 59 -82 84 -119 37z"/>
<path d="M2908 2219 c-18 -10 -23 -44 -12 -74 8 -20 58 -46 77 -39 16 6 37 46
37 69 0 41 -63 67 -102 44z"/>
<path d="M2654 4220 c-56 -22 -71 -99 -29 -149 43 -50 281 -131 387 -131 41 0
54 5 79 29 21 21 29 39 29 63 -1 61 -10 66 -293 164 -99 35 -135 40 -173 24z"/>
<path d="M5229 3967 c-158 -54 -232 -182 -199 -342 25 -122 100 -225 198 -271
50 -24 65 -26 141 -22 140 7 222 63 284 196 39 83 48 185 23 260 -24 70 -83
134 -159 171 -55 27 -74 31 -143 31 -55 0 -99 -7 -145 -23z m159 -272 c11 -11
-15 -40 -38 -43 -25 -4 -40 12 -40 42 0 16 5 18 36 13 20 -3 39 -9 42 -12z"/>
<path d="M4189 3746 c-87 -31 -174 -111 -212 -194 -29 -64 -30 -180 -2 -237
53 -107 152 -161 279 -153 125 8 214 68 265 177 49 108 23 290 -51 354 -70 59
-196 83 -279 53z m81 -281 c0 -28 -36 -53 -53 -36 -7 7 -5 18 7 35 21 33 46
34 46 1z"/>
<path d="M494 2002 c-20 -14 -23 -41 -6 -61 18 -20 183 -117 239 -140 49 -20
77 -12 81 24 3 35 6 33 -163 122 -122 64 -132 68 -151 55z"/>
<path d="M5321 1104 c-59 -75 -68 -206 -17 -251 33 -28 100 -31 132 -5 46 36
71 121 59 197 -9 63 -35 85 -101 85 -44 0 -56 -4 -73 -26z"/>
</g>
</svg>
