<?xml version="1.0" standalone="no"?>
<!DOCTYPE svg PUBLIC "-//W3C//DTD SVG 20010904//EN"
 "http://www.w3.org/TR/2001/REC-SVG-20010904/DTD/svg10.dtd">
<svg version="1.0" xmlns="http://www.w3.org/2000/svg"
 width="600.000000pt" height="600.000000pt" viewBox="0 0 600.000000 600.000000"
 preserveAspectRatio="xMidYMid meet">
<metadata>
Created by potrace 1.15, written by Peter Selinger 2001-2017
</metadata>
<g transform="translate(0.000000,600.000000) scale(0.100000,-0.100000)"
fill="#16364b" stroke="none">
<path d="M3085 5660 c-41 -27 -65 -75 -65 -130 0 -59 25 -98 97 -151 220 -162
382 -309 409 -374 13 -32 13 -39 -1 -69 -20 -41 -80 -104 -148 -154 -60 -45
-227 -146 -231 -141 -1 2 -10 16 -19 31 -22 35 -86 68 -129 68 -47 0 -185 -60
-268 -115 -154 -102 -215 -257 -152 -382 41 -80 108 -125 221 -148 79 -17 126
-8 173 34 26 23 32 36 35 82 5 67 -18 109 -78 139 l-42 22 28 18 c52 34 108
56 112 43 9 -27 49 -66 79 -79 82 -34 172 -3 377 133 201 133 333 314 353 485
12 101 -40 222 -137 316 -44 44 -416 342 -467 374 -37 24 -109 23 -147 -2z"/>
<path d="M1900 5478 c-18 -13 -47 -49 -64 -80 -17 -32 -67 -99 -111 -149 -214
-244 -265 -348 -230 -467 34 -113 123 -162 290 -162 147 0 466 69 521 113 34
27 54 75 54 132 0 56 -19 96 -60 125 -40 28 -93 24 -255 -19 -185 -49 -186
-47 -72 84 53 61 111 137 128 169 55 103 40 199 -41 253 -45 31 -115 31 -160
1z"/>
<path d="M1103 5321 c-173 -79 -320 -239 -367 -400 -45 -152 8 -352 133 -507
74 -93 152 -108 226 -43 65 57 72 148 16 218 -125 157 -96 327 72 433 121 76
139 96 145 161 4 48 1 63 -19 91 -13 19 -35 41 -50 50 -36 21 -105 20 -156 -3z"/>
<path d="M4660 4774 c-31 -13 -71 -59 -80 -94 -10 -37 -1 -90 20 -115 8 -10 6
-23 -10 -51 -29 -55 -26 -110 9 -165 87 -138 240 -207 397 -181 190 31 270
184 187 360 -57 121 -262 237 -438 247 -38 3 -77 2 -85 -1z"/>
<path d="M1815 4325 c-159 -33 -362 -168 -386 -257 -31 -118 70 -235 185 -214
21 4 58 26 93 56 81 70 148 94 238 85 138 -13 172 -11 202 11 93 69 98 184 10
261 -68 60 -213 84 -342 58z"/>
<path d="M2600 3793 c-62 -7 -160 -32 -211 -54 -119 -52 -135 -213 -27 -279
40 -24 86 -25 136 -4 40 17 168 44 208 44 37 0 39 -24 9 -113 -61 -184 -201
-427 -344 -600 -66 -80 -85 -124 -75 -172 15 -75 85 -135 155 -135 60 0 96 28
196 154 157 197 209 287 316 546 74 180 101 278 94 350 -17 187 -200 292 -457
263z"/>
<path d="M4160 3773 c-151 -19 -242 -91 -269 -215 -13 -55 1 -143 31 -202 34
-66 112 -141 181 -171 124 -56 232 -29 341 85 97 102 137 222 99 297 -11 21
-23 50 -26 65 -9 34 -51 85 -86 102 -43 22 -212 46 -271 39z"/>
<path d="M1183 3639 c-86 -14 -252 -90 -341 -156 -62 -46 -90 -145 -61 -220
14 -38 57 -83 96 -99 38 -16 120 -18 159 -4 15 6 28 9 30 7 3 -2 -34 -98 -81
-213 -162 -395 -234 -674 -205 -785 23 -86 75 -131 171 -149 92 -18 110 -7
270 158 164 168 279 293 435 471 60 69 115 126 122 129 16 5 12 -21 -40 -278
-43 -214 -46 -224 -124 -485 -65 -219 -97 -367 -88 -409 23 -106 145 -154 242
-96 37 23 56 57 71 130 6 30 40 143 75 251 65 199 88 289 150 595 44 216 56
333 45 456 -10 116 -36 184 -90 232 -51 47 -107 61 -181 48 -107 -20 -173 -77
-396 -344 -59 -70 -108 -125 -110 -123 -2 2 21 68 52 147 151 394 158 553 26
672 -68 61 -135 80 -227 65z"/>
<path d="M3614 3307 c-188 -62 -315 -209 -318 -366 -1 -60 2 -72 27 -104 52
-69 136 -90 207 -51 19 10 67 24 105 31 99 17 229 85 272 141 18 24 37 61 43
84 24 87 -32 200 -122 246 -57 29 -155 38 -214 19z"/>
<path d="M4754 2906 c-126 -55 -183 -208 -135 -363 61 -203 205 -296 337 -218
108 63 130 264 39 344 -35 30 -35 31 -23 75 10 39 9 50 -7 86 -34 75 -131 110
-211 76z"/>
<path d="M2945 2531 c-97 -16 -192 -51 -364 -136 -95 -47 -187 -95 -203 -107
-36 -25 -78 -109 -78 -156 0 -64 44 -138 102 -168 55 -29 110 -18 236 45 126
63 285 124 313 119 17 -3 16 -7 -3 -63 -11 -33 -56 -139 -101 -235 -96 -210
-104 -250 -62 -335 50 -103 166 -140 263 -85 52 29 65 49 135 211 177 406 212
589 142 732 -66 135 -215 204 -380 178z"/>
<path d="M4365 2344 c-22 -8 -55 -29 -74 -47 -66 -63 -83 -137 -60 -261 6 -32
9 -60 7 -62 -2 -2 -45 10 -95 26 -225 72 -382 60 -495 -39 -91 -81 -117 -179
-99 -380 7 -75 18 -210 25 -301 9 -108 19 -176 29 -195 75 -144 286 -154 376
-18 39 58 45 95 37 202 -15 190 -19 271 -13 271 3 0 52 -17 109 -37 116 -42
179 -46 307 -19 222 46 332 217 301 470 -14 117 -45 257 -64 294 -48 92 -181
136 -291 96z"/>
<path d="M2095 1841 c-47 -22 -99 -74 -114 -114 -23 -60 -9 -131 34 -177 17
-18 34 -67 64 -188 47 -187 89 -303 135 -370 18 -26 48 -69 66 -97 53 -77 257
-282 332 -331 233 -155 464 -208 640 -146 79 28 177 98 201 144 59 116 4 256
-114 288 -50 14 -89 6 -157 -33 -69 -39 -120 -34 -231 19 -76 36 -82 42 -92
79 -6 22 -20 52 -30 67 -11 15 -37 62 -59 106 -51 101 -145 195 -214 214 -25
7 -48 19 -51 28 -2 8 -20 82 -40 165 -53 222 -91 293 -186 340 -59 30 -127 32
-184 6z"/>
</g>
</svg>
