<?xml version="1.0" standalone="no"?>
<!DOCTYPE svg PUBLIC "-//W3C//DTD SVG 20010904//EN"
 "http://www.w3.org/TR/2001/REC-SVG-20010904/DTD/svg10.dtd">
<svg version="1.0" xmlns="http://www.w3.org/2000/svg"
 width="600.000000pt" height="600.000000pt" viewBox="0 0 600.000000 600.000000"
 preserveAspectRatio="xMidYMid meet">
<metadata>
Created by potrace 1.15, written by Peter Selinger 2001-2017
</metadata>
<g transform="translate(0.000000,600.000000) scale(0.100000,-0.100000)"
fill="#16364b" stroke="none">
<path d="M2723 5525 c-62 -26 -164 -204 -182 -314 -25 -157 69 -265 239 -273
36 -1 119 1 185 6 l120 8 -50 -43 c-156 -131 -378 -393 -477 -560 -48 -81 -49
-117 -5 -201 55 -103 71 -110 312 -128 195 -15 412 -39 508 -56 45 -8 97 -14
115 -14 50 0 100 28 129 71 22 33 25 47 21 94 -5 58 -23 87 -70 111 -30 16
-222 48 -378 64 -58 5 -142 15 -187 21 l-83 11 33 46 c45 64 223 242 352 353
132 114 170 161 186 233 30 136 -61 246 -232 282 -79 17 -116 15 -302 -12 -59
-9 -110 -14 -114 -11 -3 3 13 40 36 81 60 109 54 174 -18 223 -39 26 -90 29
-138 8z"/>
<path d="M1620 5196 c-213 -82 -422 -264 -557 -486 -50 -83 -83 -161 -83 -197
0 -51 41 -116 89 -142 43 -24 47 -24 125 -12 119 18 358 26 383 12 20 -10 21
-13 7 -68 -55 -229 -51 -280 26 -354 l49 -46 -52 -11 c-29 -6 -78 -16 -109
-22 -85 -17 -138 -80 -138 -165 0 -78 59 -150 134 -162 98 -16 597 156 679
235 61 58 56 153 -12 215 -66 59 -113 58 -251 -7 -69 -33 -83 -33 -70 -3 5 12
21 98 36 191 33 210 30 288 -12 365 -51 96 -139 139 -301 148 -57 3 -103 9
-103 12 0 10 78 83 137 129 29 22 82 54 117 71 78 37 108 75 113 145 5 58 -17
107 -59 139 -33 24 -103 31 -148 13z"/>
<path d="M4305 4665 c-69 -17 -291 -124 -336 -162 -81 -69 -79 -193 4 -243 50
-31 115 -26 195 14 64 32 171 76 220 91 18 5 22 3 22 -18 0 -65 -64 -201 -191
-404 -49 -78 -92 -155 -95 -172 -8 -39 11 -95 44 -129 15 -15 35 -40 45 -55
33 -51 62 -56 283 -50 190 6 316 -4 352 -26 16 -10 -1 -57 -132 -358 -103
-237 -111 -273 -77 -329 20 -33 75 -64 113 -64 13 0 44 10 68 23 44 21 48 28
160 253 185 370 210 482 136 609 -48 81 -145 127 -340 160 -49 8 -134 18 -188
22 -54 3 -98 10 -98 14 0 4 14 32 31 61 119 201 170 345 172 488 2 178 -86
276 -258 286 -42 2 -94 -2 -130 -11z"/>
<path d="M3700 3683 c-110 -44 -204 -122 -257 -211 -60 -101 12 -222 132 -222
54 0 96 22 138 74 32 38 99 86 122 86 10 0 5 -65 -10 -128 -15 -62 -55 -150
-102 -225 -17 -28 -40 -46 -81 -64 -87 -39 -185 -108 -206 -144 -27 -45 -26
-120 0 -157 12 -15 36 -38 55 -50 51 -35 137 -28 202 17 70 47 140 77 297 125
195 60 240 95 248 193 3 30 -1 66 -8 83 -12 28 -65 82 -104 105 -15 9 -15 17
-5 70 14 72 6 201 -15 272 -25 81 -73 143 -135 175 -74 39 -177 39 -271 1z"/>
<path d="M2460 3490 c-211 -46 -377 -110 -413 -161 -44 -61 -30 -161 29 -205
53 -41 108 -43 196 -6 116 48 275 92 335 92 l54 0 -7 -37 c-13 -72 -46 -166
-96 -275 -43 -95 -50 -116 -45 -155 6 -52 29 -88 78 -121 28 -20 43 -23 87
-20 73 6 102 37 172 183 150 311 157 536 23 655 -24 21 -65 46 -90 54 -62 21
-214 19 -323 -4z"/>
<path d="M1164 3210 c-59 -12 -110 -35 -180 -80 -89 -59 -126 -138 -103 -224
24 -91 109 -153 195 -143 51 5 49 12 29 -108 -43 -259 -60 -635 -34 -781 18
-106 105 -183 206 -184 54 0 86 13 144 57 41 31 58 57 138 217 50 99 122 223
159 275 62 88 206 251 221 251 15 0 31 -85 31 -163 0 -162 -43 -537 -75 -660
-8 -32 -15 -76 -15 -99 0 -110 120 -173 224 -117 36 19 38 19 31 2 -33 -82
-31 -107 31 -366 69 -290 119 -402 229 -513 96 -97 176 -136 290 -142 134 -7
239 33 358 136 27 23 53 42 59 42 30 0 76 52 103 117 78 186 177 351 242 400
62 47 103 40 284 -50 165 -83 237 -103 324 -93 116 13 267 129 281 214 5 34
12 42 46 58 116 52 156 200 89 331 -28 56 -61 175 -61 221 0 49 -4 48 193 62
89 7 159 17 195 30 121 43 216 136 263 259 27 70 37 229 20 306 -23 102 -113
175 -216 175 -124 0 -217 -98 -232 -246 -7 -63 9 -55 -173 -84 -154 -24 -216
-42 -302 -87 -200 -105 -254 -286 -187 -626 11 -53 28 -120 40 -148 20 -52 15
-79 -16 -79 -7 0 -68 28 -136 63 -154 79 -245 102 -366 94 -74 -4 -96 -10
-169 -46 -157 -78 -299 -238 -415 -469 -33 -67 -65 -122 -69 -122 -4 0 -31
-16 -60 -35 -29 -19 -58 -35 -65 -35 -8 0 -25 15 -39 33 -57 74 -111 233 -161
469 -29 136 -45 172 -94 205 -64 43 -158 40 -225 -9 -27 -20 -29 -20 -22 -2
54 133 118 581 120 829 1 117 -3 154 -22 223 -52 191 -142 288 -278 300 -132
11 -250 -77 -437 -323 -33 -44 -62 -82 -64 -84 -10 -13 -10 16 2 114 43 352
26 477 -74 568 -69 62 -164 87 -257 67z"/>
<path d="M3075 2564 c-100 -18 -238 -55 -377 -101 -144 -47 -200 -101 -214
-205 -13 -95 38 -174 127 -198 39 -11 55 -8 218 45 176 55 368 101 379 90 4
-3 -2 -36 -13 -73 -10 -37 -20 -95 -23 -129 -3 -54 0 -69 25 -114 53 -98 153
-135 243 -89 68 34 96 88 146 280 26 97 24 251 -3 311 -77 169 -246 230 -508
183z"/>
</g>
</svg>
