<?xml version="1.0" standalone="no"?>
<!DOCTYPE svg PUBLIC "-//W3C//DTD SVG 20010904//EN"
 "http://www.w3.org/TR/2001/REC-SVG-20010904/DTD/svg10.dtd">
<svg version="1.0" xmlns="http://www.w3.org/2000/svg"
 width="600.000000pt" height="600.000000pt" viewBox="0 0 600.000000 600.000000"
 preserveAspectRatio="xMidYMid meet">
<metadata>
Created by potrace 1.15, written by Peter Selinger 2001-2017
</metadata>
<g transform="translate(0.000000,600.000000) scale(0.100000,-0.100000)"
fill="#16364b" stroke="none">
<path d="M2334 5469 c-64 -19 -132 -129 -159 -255 -24 -116 11 -214 97 -271
40 -27 46 -28 172 -28 84 1 159 7 210 18 124 27 123 28 73 -50 -87 -137 -277
-461 -328 -563 -58 -114 -62 -135 -43 -270 15 -103 61 -150 147 -150 27 0 155
18 285 40 130 21 305 46 387 55 83 9 164 18 182 21 43 6 88 51 104 102 10 35
9 48 -5 87 -10 26 -31 54 -49 67 -29 21 -42 23 -137 21 -109 -3 -327 -24 -490
-48 -52 -8 -96 -13 -98 -11 -11 11 96 185 238 387 206 294 249 386 221 479
-15 50 -70 114 -125 143 -60 32 -236 31 -403 -2 -67 -14 -125 -22 -128 -19 -4
3 1 20 9 37 22 41 20 109 -4 148 -35 57 -94 81 -156 62z"/>
<path d="M1665 4991 c-148 -43 -325 -150 -446 -268 -110 -107 -124 -173 -60
-276 43 -66 65 -77 198 -93 265 -33 373 -71 468 -163 71 -70 91 -81 142 -81
81 0 143 68 143 156 0 43 -5 58 -34 95 -75 97 -220 187 -384 240 -39 13 -68
27 -64 31 19 19 134 51 210 58 72 6 87 11 112 35 79 76 57 214 -42 266 -48 24
-159 25 -243 0z"/>
<path d="M3955 4922 c-84 -25 -199 -89 -255 -142 -80 -75 -88 -166 -20 -224
58 -48 115 -46 207 10 72 43 154 74 198 74 29 0 36 -4 41 -26 17 -69 -25 -235
-102 -405 -24 -53 -47 -109 -50 -126 -9 -46 25 -114 68 -137 23 -12 43 -35 57
-63 22 -46 66 -79 117 -89 17 -3 105 6 195 20 291 45 334 45 345 2 8 -31 -38
-247 -86 -406 -22 -74 -40 -145 -40 -158 0 -42 41 -100 85 -122 49 -24 74 -25
119 -6 65 27 82 65 155 363 80 326 74 470 -26 570 -47 47 -93 70 -170 84 -68
13 -221 6 -364 -17 -55 -8 -103 -14 -108 -12 -5 2 6 40 24 85 138 341 98 617
-104 714 -63 31 -201 36 -286 11z"/>
<path d="M2041 3914 c-175 -63 -261 -83 -390 -93 -88 -6 -118 -12 -139 -28
-96 -72 -85 -226 21 -283 l46 -25 133 17 c182 23 414 93 532 161 110 62 105
227 -8 278 -23 10 -48 18 -56 18 -8 0 -71 -20 -139 -45z"/>
<path d="M3731 3735 c-57 -18 -144 -64 -256 -136 -49 -32 -139 -86 -199 -121
-118 -69 -146 -101 -146 -169 0 -66 65 -136 136 -146 34 -4 54 2 136 45 53 28
142 80 197 116 55 36 102 66 105 66 9 0 -64 -201 -126 -345 -52 -119 -59 -145
-54 -181 4 -34 1 -45 -15 -60 -89 -80 -50 -220 70 -254 73 -20 306 37 456 113
131 66 264 170 336 263 40 52 44 62 44 113 0 66 -25 109 -79 135 -77 36 -143
16 -231 -70 -78 -78 -237 -185 -251 -171 -3 3 35 105 84 228 98 246 112 292
112 371 -1 162 -149 256 -319 203z"/>
<path d="M2225 3314 c-66 -14 -139 -34 -162 -44 -101 -44 -113 -178 -23 -253
45 -39 86 -42 218 -18 65 11 146 21 180 21 59 0 62 -1 62 -25 0 -13 -11 -54
-25 -91 -14 -36 -25 -82 -25 -101 0 -107 104 -177 204 -139 56 22 71 39 106
125 83 204 71 362 -35 460 -72 66 -122 83 -260 87 -100 3 -140 0 -240 -22z"/>
<path d="M1187 3060 c-44 -14 -98 -59 -113 -96 -18 -42 -18 -115 0 -157 15
-38 66 -84 101 -93 33 -8 38 -49 37 -309 -2 -410 29 -617 106 -699 92 -98 234
-82 294 33 31 59 35 109 16 190 -6 28 -10 53 -7 55 2 2 27 -1 54 -7 44 -9 57
-7 97 11 49 21 56 30 150 177 60 94 125 175 141 175 7 0 22 -24 35 -53 21 -49
22 -58 12 -132 -6 -44 -24 -147 -40 -230 -61 -317 -61 -336 5 -394 63 -55 158
-51 209 10 30 36 30 34 56 209 10 74 31 200 45 279 27 158 31 215 14 258 -6
15 -19 60 -29 100 -34 131 -96 225 -174 265 -52 27 -152 28 -216 2 -122 -48
-252 -165 -330 -297 -25 -42 -48 -77 -52 -77 -3 0 -8 116 -10 258 -4 229 -7
264 -26 322 -42 129 -137 201 -272 206 -41 2 -88 -1 -103 -6z"/>
<path d="M4871 3036 c-51 -18 -106 -69 -130 -121 -17 -37 -21 -63 -20 -126 1
-44 0 -81 -2 -83 -2 -2 -56 -36 -119 -76 -139 -87 -241 -168 -282 -223 -77
-104 -118 -239 -118 -387 0 -158 51 -279 168 -398 35 -35 62 -65 60 -66 -2 -1
-17 -8 -35 -15 -18 -7 -48 -33 -68 -57 -50 -61 -80 -67 -265 -54 -236 17 -352
-3 -519 -91 -130 -68 -238 -148 -334 -248 -45 -48 -92 -90 -105 -96 -12 -5
-55 -42 -95 -81 -105 -105 -162 -115 -292 -53 -121 57 -244 180 -310 310 -53
105 -124 149 -208 130 -138 -32 -196 -174 -128 -310 70 -138 221 -302 366
-399 290 -192 621 -187 833 13 37 34 78 66 92 70 42 13 67 34 109 90 95 126
222 229 329 266 53 19 72 20 277 14 209 -7 223 -6 284 15 112 38 222 124 267
211 27 53 23 137 -9 191 -14 25 -33 51 -42 58 -13 11 -9 15 35 30 95 32 160
121 160 219 0 58 -17 99 -66 153 -39 43 -51 93 -34 143 16 48 32 62 185 163
166 111 244 187 290 284 75 159 67 374 -18 467 -55 60 -174 87 -256 57z"/>
<path d="M3345 2314 c-70 -11 -400 -78 -517 -105 -147 -35 -193 -62 -228 -134
-42 -86 -12 -183 68 -224 60 -30 111 -32 233 -11 219 37 530 80 584 80 52 0
55 -1 55 -25 0 -42 38 -103 81 -132 87 -58 203 -23 258 77 19 34 26 64 29 126
4 72 1 89 -21 137 -37 82 -94 138 -179 178 -70 32 -78 33 -203 35 -71 1 -143
0 -160 -2z"/>
</g>
</svg>
