<?xml version="1.0" standalone="no"?>
<!DOCTYPE svg PUBLIC "-//W3C//DTD SVG 20010904//EN"
 "http://www.w3.org/TR/2001/REC-SVG-20010904/DTD/svg10.dtd">
<svg version="1.0" xmlns="http://www.w3.org/2000/svg"
 width="600.000000pt" height="600.000000pt" viewBox="0 0 600.000000 600.000000"
 preserveAspectRatio="xMidYMid meet">
<metadata>
Created by potrace 1.15, written by Peter Selinger 2001-2017
</metadata>
<g transform="translate(0.000000,600.000000) scale(0.100000,-0.100000)"
fill="#16364b" stroke="none">
<path d="M1960 4973 c-64 -23 -141 -104 -168 -176 -26 -69 -29 -160 -7 -232
38 -124 47 -227 55 -635 5 -223 12 -547 16 -720 5 -224 3 -367 -6 -500 l-13
-185 -47 -70 c-25 -38 -70 -110 -100 -160 -95 -159 -223 -345 -238 -345 -9 0
-13 -7 -9 -19 3 -13 -3 -22 -20 -30 -24 -11 -24 -13 -9 -36 10 -15 12 -26 6
-30 -6 -3 -10 -15 -10 -27 0 -17 4 -20 30 -14 28 5 30 4 24 -18 -11 -44 16
-40 67 10 27 27 48 53 46 58 -2 6 40 69 93 141 53 71 114 156 135 188 21 31
41 57 45 57 3 0 12 -79 19 -175 17 -252 47 -351 152 -507 125 -185 297 -297
496 -323 l52 -7 -6 -126 c-7 -158 10 -344 44 -471 43 -163 48 -147 -46 -154
-45 -4 -98 -14 -117 -23 -61 -29 -82 -99 -44 -147 54 -69 266 -47 358 37 63
56 66 119 17 263 -20 56 -43 140 -51 185 -18 100 -21 370 -5 412 10 25 15 28
44 22 77 -16 452 -36 682 -36 l250 0 1 -98 c2 -142 40 -365 88 -517 38 -117
38 -115 -41 -115 -147 0 -218 -54 -190 -143 33 -101 305 -66 391 51 34 44 32
115 -4 222 -48 143 -70 262 -76 400 -7 152 2 202 36 211 14 4 124 21 245 37
128 18 243 39 275 51 281 106 418 549 294 956 -38 125 -94 217 -195 318 -48
48 -84 87 -80 87 4 0 72 -14 151 -30 92 -20 148 -36 155 -47 10 -14 21 -15 91
-4 86 13 104 22 85 45 -8 9 -8 16 -2 20 6 4 9 23 8 42 -2 35 -4 37 -42 40 -26
2 -45 11 -56 26 -15 20 -20 21 -41 10 -19 -11 -46 -8 -168 18 -80 17 -197 46
-260 65 -63 18 -162 45 -219 60 -84 21 -124 38 -200 85 -53 32 -179 101 -280
155 -214 112 -313 177 -483 319 -217 182 -343 331 -441 523 -68 134 -91 188
-182 433 -133 356 -159 406 -259 498 -95 86 -223 115 -336 75z m196 -164 c52
-31 109 -103 134 -167 13 -31 40 -93 61 -137 20 -44 58 -139 83 -212 111 -325
203 -496 381 -718 162 -200 362 -354 715 -548 80 -44 187 -105 237 -136 170
-103 585 -395 643 -452 106 -105 167 -237 191 -416 33 -249 -69 -526 -218
-588 -42 -18 -336 -67 -515 -86 -141 -16 -717 -16 -923 -1 -82 6 -211 13 -285
16 -210 6 -307 42 -415 151 -106 108 -171 247 -194 420 -41 302 -44 365 -48
1010 -2 352 -4 660 -5 685 0 25 1 180 2 345 2 318 -7 424 -50 589 -35 137 -23
206 43 246 43 27 119 26 163 -1z m-661 -2949 c3 -5 1 -10 -4 -10 -6 0 -11 5
-11 10 0 6 2 10 4 10 3 0 8 -4 11 -10z"/>
<path d="M2607 2732 c-28 -31 -22 -70 16 -92 17 -11 36 -20 40 -20 17 0 57 51
57 73 0 51 -78 78 -113 39z"/>
<path d="M3080 2618 c-49 -18 -54 -61 -11 -102 38 -36 70 -32 93 13 11 21 14
41 9 54 -11 29 -59 47 -91 35z"/>
<path d="M5253 3961 c-108 -37 -189 -118 -219 -220 -43 -143 41 -313 190 -386
50 -24 71 -29 137 -28 64 0 88 5 133 27 101 50 176 159 198 288 22 132 -45
236 -199 315 -58 29 -163 31 -240 4z m145 -286 c10 -10 -13 -40 -33 -44 -20
-3 -45 23 -45 47 0 11 9 13 36 9 20 -3 39 -9 42 -12z"/>
<path d="M5362 1111 c-18 -5 -41 -16 -52 -26 -30 -28 -53 -109 -48 -173 4 -47
10 -60 38 -85 28 -25 39 -28 72 -24 76 10 118 84 118 207 0 52 -4 71 -18 83
-23 21 -67 28 -110 18z"/>
</g>
</svg>
