<?xml version="1.0" standalone="no"?>
<!DOCTYPE svg PUBLIC "-//W3C//DTD SVG 20010904//EN"
 "http://www.w3.org/TR/2001/REC-SVG-20010904/DTD/svg10.dtd">
<svg version="1.0" xmlns="http://www.w3.org/2000/svg"
 width="600.000000pt" height="600.000000pt" viewBox="0 0 600.000000 600.000000"
 preserveAspectRatio="xMidYMid meet">
<metadata>
Created by potrace 1.15, written by Peter Selinger 2001-2017
</metadata>
<g transform="translate(0.000000,600.000000) scale(0.100000,-0.100000)"
fill="#16364b" stroke="none">
<path d="M3552 5257 c-6 -6 -13 -24 -17 -39 -16 -65 138 -276 214 -293 34 -7
65 10 76 44 15 50 -84 229 -153 276 -40 27 -102 34 -120 12z m126 -129 c71
-96 83 -140 19 -69 -40 45 -83 121 -68 121 6 0 28 -24 49 -52z"/>
<path d="M2984 5046 c-74 -45 -133 -168 -119 -244 14 -75 78 -101 153 -63 50
26 134 108 155 153 25 52 22 111 -6 144 -20 23 -34 28 -83 31 -50 3 -66 0
-100 -21z m116 -61 c27 -33 -33 -129 -107 -172 -38 -22 -44 -23 -49 -9 -17 45
26 133 85 173 40 27 54 28 71 8z"/>
<path d="M4751 4716 c-21 -22 -25 -41 -32 -123 -19 -229 -6 -456 28 -502 32
-42 99 -41 128 3 27 40 35 184 25 396 -12 225 -18 243 -86 248 -32 2 -44 -2
-63 -22z"/>
<path d="M1564 4232 c-58 -27 -92 -68 -111 -131 -25 -87 4 -182 87 -281 45
-55 80 -121 120 -232 66 -180 88 -286 135 -649 43 -338 46 -387 45 -662 -1
-299 10 -396 60 -557 67 -213 173 -348 338 -430 63 -31 181 -65 263 -75 l47
-6 -6 -128 c-5 -146 9 -229 78 -460 23 -73 39 -135 38 -137 -2 -1 -45 -5 -96
-8 -129 -8 -169 -31 -179 -105 -5 -36 -2 -44 29 -75 102 -102 368 -14 408 135
11 38 8 54 -34 188 -76 245 -96 362 -82 494 11 103 -5 98 261 80 127 -9 341
-17 476 -17 l246 -1 -4 -80 c-11 -175 22 -377 82 -507 40 -85 39 -86 -69 -90
-83 -3 -97 -6 -120 -27 -87 -82 1 -182 149 -168 109 10 193 57 221 124 21 50
17 86 -22 186 -19 51 -42 119 -50 152 -18 73 -29 335 -17 390 l9 39 144 22
c167 25 227 39 388 96 265 92 409 203 508 390 60 115 75 172 81 298 5 109 4
120 -25 207 -44 129 -84 196 -171 284 -146 147 -285 185 -523 143 -60 -11
-157 -17 -273 -18 -170 -1 -189 1 -330 32 -349 78 -502 139 -680 272 -186 139
-331 320 -560 694 -96 158 -259 339 -402 448 -15 12 -54 45 -85 73 -86 77
-156 108 -253 112 -64 3 -88 0 -121 -15z m174 -151 c20 -11 53 -36 72 -56 19
-20 67 -61 106 -90 130 -99 292 -285 390 -447 183 -305 361 -524 539 -663 202
-158 352 -224 755 -331 255 -67 373 -69 700 -12 185 32 269 11 370 -91 104
-106 160 -237 160 -375 0 -102 -31 -193 -96 -288 -85 -125 -175 -188 -360
-252 -192 -66 -290 -87 -524 -111 -303 -32 -372 -35 -610 -25 -129 6 -354 15
-500 20 -188 6 -283 14 -325 25 -161 44 -276 148 -338 305 -69 175 -87 314
-87 670 0 396 -15 552 -90 930 -59 300 -122 474 -210 585 -69 87 -90 124 -90
157 0 65 62 88 138 49z"/>
<path d="M2442 2554 c-28 -19 -28 -57 0 -84 29 -27 73 -26 92 2 46 65 -26 129
-92 82z"/>
<path d="M2887 2242 c-24 -26 -21 -65 6 -90 28 -26 59 -28 82 -5 52 51 33 113
-34 113 -24 0 -44 -7 -54 -18z"/>
<path d="M2632 4227 c-28 -29 -29 -93 -3 -123 40 -49 289 -144 383 -147 63 -3
103 33 103 93 0 67 -10 72 -294 171 -105 36 -159 38 -189 6z"/>
<path d="M5221 3969 c-52 -17 -75 -32 -121 -77 -46 -47 -59 -68 -73 -118 -21
-75 -21 -107 -2 -192 41 -175 184 -282 340 -253 150 28 251 116 295 259 52
167 3 296 -142 376 -41 23 -58 26 -140 25 -64 0 -113 -6 -157 -20z m147 -275
c29 -8 25 -34 -8 -51 -21 -11 -27 -10 -37 4 -31 41 -11 62 45 47z"/>
<path d="M4195 3748 c-88 -32 -175 -124 -201 -216 -49 -166 29 -316 190 -366
165 -52 344 70 371 254 8 52 -14 160 -44 218 -21 42 -79 86 -138 108 -45 16
-136 17 -178 2z m101 -314 c-7 -19 -46 -18 -46 1 0 8 10 25 23 38 l22 22 3
-23 c2 -13 1 -30 -2 -38z"/>
<path d="M470 2020 c-13 -24 1 -56 27 -64 10 -3 72 -35 138 -71 66 -36 127
-65 136 -65 9 0 22 7 29 15 11 13 10 20 -6 42 -20 27 -267 163 -296 163 -10 0
-22 -9 -28 -20z"/>
<path d="M5368 1105 c-18 -10 -33 -33 -48 -71 -44 -118 -35 -204 23 -229 73
-31 142 34 167 159 21 105 -5 156 -80 156 -19 -1 -47 -7 -62 -15z"/>
</g>
</svg>
