<?xml version="1.0" standalone="no"?>
<!DOCTYPE svg PUBLIC "-//W3C//DTD SVG 20010904//EN"
 "http://www.w3.org/TR/2001/REC-SVG-20010904/DTD/svg10.dtd">
<svg version="1.0" xmlns="http://www.w3.org/2000/svg"
 width="600.000000pt" height="600.000000pt" viewBox="0 0 600.000000 600.000000"
 preserveAspectRatio="xMidYMid meet">
<metadata>
Created by potrace 1.15, written by Peter Selinger 2001-2017
</metadata>
<g transform="translate(0.000000,600.000000) scale(0.100000,-0.100000)"
fill="#16364b" stroke="none">
<path d="M2225 5459 c-47 -13 -81 -57 -104 -133 -26 -85 -27 -161 -2 -226 56
-148 145 -185 386 -162 55 6 102 8 104 6 2 -1 -23 -49 -56 -106 -85 -150 -146
-270 -188 -377 -46 -117 -46 -183 0 -231 80 -83 198 -47 244 74 39 103 71 165
180 344 120 200 144 258 144 342 0 96 -64 191 -161 239 -50 25 -129 30 -274
18 l-97 -9 10 36 c11 40 0 96 -26 134 -31 43 -106 67 -160 51z"/>
<path d="M3707 5231 c-109 -36 -147 -79 -147 -169 0 -60 17 -101 56 -131 43
-34 83 -36 152 -7 75 32 127 34 142 7 24 -47 -1 -194 -61 -347 -21 -55 -39
-115 -39 -133 0 -127 148 -192 233 -103 56 58 135 289 158 458 25 193 -45 345
-190 412 -76 35 -218 41 -304 13z"/>
<path d="M1643 4886 c-136 -26 -287 -87 -388 -156 -101 -69 -99 -219 2 -285
23 -15 33 -30 37 -59 4 -22 14 -51 22 -65 31 -51 57 -62 227 -86 233 -34 308
-58 457 -146 27 -16 47 -19 89 -16 47 3 59 9 87 40 59 64 69 153 23 211 -41
52 -295 154 -501 202 -43 10 -78 21 -78 25 0 4 34 15 76 25 58 12 99 15 165
10 77 -6 94 -4 128 13 57 30 85 74 85 136 0 64 -30 116 -82 141 -48 24 -245
29 -349 10z"/>
<path d="M3155 4334 c-223 -65 -640 -203 -673 -224 -36 -22 -71 -88 -72 -132
0 -44 30 -106 62 -129 54 -39 92 -36 224 16 192 76 358 133 524 181 168 49
213 74 237 132 38 91 -46 193 -157 191 -14 0 -79 -16 -145 -35z"/>
<path d="M4273 4290 c-89 -13 -133 -61 -133 -146 0 -43 5 -56 35 -92 48 -56
78 -62 225 -50 67 6 147 7 177 3 72 -9 93 -30 93 -94 0 -70 -25 -206 -55 -292
-14 -41 -25 -90 -25 -109 0 -71 65 -130 142 -130 47 0 119 38 144 77 23 34 55
153 79 293 53 304 -43 485 -284 536 -71 15 -307 17 -398 4z"/>
<path d="M2200 3886 c-3 -2 -50 -17 -105 -31 -112 -29 -312 -55 -424 -55 -92
0 -151 -25 -187 -80 -68 -103 -13 -208 118 -223 92 -11 394 21 606 65 80 16
109 27 132 48 92 86 32 260 -96 277 -21 3 -41 2 -44 -1z"/>
<path d="M3730 3764 c-30 -8 -104 -42 -165 -75 -60 -33 -175 -91 -255 -130
-80 -38 -165 -80 -190 -92 -60 -30 -90 -76 -90 -140 0 -44 4 -54 38 -87 55
-55 94 -60 201 -25 100 32 246 99 332 151 33 20 62 35 64 33 1 -2 -14 -42 -36
-89 -21 -47 -39 -100 -39 -118 -1 -123 160 -165 251 -66 53 58 150 351 149
453 -1 91 -36 150 -105 182 -48 22 -81 23 -155 3z"/>
<path d="M4955 3271 c-72 -19 -132 -67 -166 -133 -23 -44 -25 -82 -15 -193 8
-78 7 -81 -20 -115 -15 -19 -67 -69 -116 -110 -125 -105 -178 -166 -226 -257
-69 -132 -87 -213 -87 -388 0 -134 3 -156 23 -208 29 -70 63 -112 112 -137 83
-42 160 -35 247 23 90 60 128 185 87 287 -20 50 -14 101 22 175 18 40 46 72
116 131 140 120 191 177 241 272 74 143 94 243 77 392 -12 103 -29 152 -68
193 -55 58 -153 88 -227 68z"/>
<path d="M2060 3260 c-49 -9 -75 -25 -106 -66 -55 -72 -37 -175 37 -219 30
-18 57 -21 231 -25 108 -3 200 -8 204 -13 4 -4 2 -29 -4 -56 -14 -63 -2 -107
40 -148 61 -59 134 -69 203 -28 91 53 124 228 66 351 -52 110 -132 165 -271
189 -86 15 -348 25 -400 15z"/>
<path d="M4255 3186 c-16 -8 -55 -39 -85 -71 -130 -135 -388 -266 -610 -310
-141 -29 -175 -61 -175 -165 0 -52 4 -71 23 -96 41 -55 75 -68 161 -61 241 19
749 281 872 450 28 38 30 48 27 102 -5 74 -33 119 -92 146 -48 22 -80 23 -121
5z"/>
<path d="M1225 3031 c-119 -55 -140 -206 -44 -313 22 -23 39 -47 39 -53 0 -5
5 -39 10 -75 5 -36 16 -160 25 -276 17 -236 31 -328 68 -425 53 -141 103 -209
175 -242 81 -35 157 -21 213 40 65 70 70 142 16 248 -62 124 -88 253 -107 530
-19 288 -49 407 -122 490 -76 86 -185 117 -273 76z"/>
<path d="M2083 2560 c-116 -23 -266 -154 -357 -311 -52 -91 -27 -187 60 -229
78 -38 135 -18 203 73 36 50 136 147 150 147 3 0 17 -20 30 -46 13 -25 31 -49
40 -54 42 -24 42 -24 5 -99 -19 -39 -42 -104 -51 -144 -29 -136 1 -427 53
-519 28 -47 101 -82 155 -73 54 9 106 55 120 108 9 33 7 55 -10 123 -37 146
-25 277 35 396 42 84 29 170 -36 220 -28 22 -29 25 -19 62 14 49 5 95 -31 166
-29 57 -96 127 -146 153 -29 15 -124 38 -147 36 -7 -1 -31 -5 -54 -9z"/>
<path d="M3593 2200 c-34 -5 -176 -31 -315 -58 -139 -28 -309 -58 -377 -67
-69 -10 -139 -23 -155 -31 -100 -41 -136 -177 -73 -273 29 -44 113 -91 161
-91 17 0 126 18 241 41 344 66 517 97 579 104 l58 7 39 -41 c86 -89 230 -76
304 28 26 37 30 51 30 109 -1 81 -22 130 -83 189 -60 59 -134 85 -252 89 -52
1 -123 -1 -157 -6z"/>
<path d="M4559 1596 c-45 -16 -70 -33 -102 -71 -60 -73 -126 -91 -410 -114
-206 -18 -344 -70 -555 -209 -171 -113 -258 -187 -274 -233 -8 -24 -15 -29
-44 -29 -46 0 -89 -19 -155 -69 -109 -83 -231 -93 -361 -28 -85 42 -161 105
-268 226 -88 99 -137 126 -211 119 -138 -14 -224 -145 -171 -260 21 -46 190
-229 292 -315 82 -70 217 -143 315 -169 95 -25 261 -30 348 -9 150 35 327 145
375 233 21 37 28 42 58 42 48 0 85 18 189 94 99 72 253 156 340 186 74 25 140
37 315 54 231 24 335 66 467 189 76 71 103 119 103 181 0 82 -39 142 -115 177
-47 22 -86 23 -136 5z"/>
</g>
</svg>
