<?xml version="1.0" standalone="no"?>
<!DOCTYPE svg PUBLIC "-//W3C//DTD SVG 20010904//EN"
 "http://www.w3.org/TR/2001/REC-SVG-20010904/DTD/svg10.dtd">
<svg version="1.0" xmlns="http://www.w3.org/2000/svg"
 width="600.000000pt" height="600.000000pt" viewBox="0 0 600.000000 600.000000"
 preserveAspectRatio="xMidYMid meet">
<metadata>
Created by potrace 1.15, written by Peter Selinger 2001-2017
</metadata>
<g transform="translate(0.000000,600.000000) scale(0.100000,-0.100000)"
fill="#16364b" stroke="none">
<path d="M1550 5793 c-37 -19 -75 -84 -202 -343 -60 -122 -72 -193 -43 -250
53 -103 155 -111 284 -25 93 63 341 265 365 298 42 57 18 139 -53 181 -50 29
-87 16 -180 -64 -45 -39 -81 -67 -81 -63 0 5 16 41 37 80 34 67 35 75 25 111
-23 75 -88 108 -152 75z"/>
<path d="M2373 5436 c-64 -29 -68 -46 -65 -275 6 -382 -48 -507 -263 -616
-127 -65 -158 -145 -84 -214 37 -35 87 -28 202 29 177 86 271 191 326 364 44
138 55 234 48 442 -4 138 -9 190 -21 213 -29 56 -90 80 -143 57z"/>
<path d="M3517 5340 c-14 -11 -33 -43 -42 -71 -17 -49 -16 -53 4 -116 26 -79
73 -153 137 -215 79 -76 159 -98 218 -59 82 55 73 162 -25 309 -50 74 -90 112
-151 143 -67 34 -106 37 -141 9z"/>
<path d="M2975 5119 c-163 -86 -228 -303 -120 -398 66 -57 137 -61 245 -14 77
34 98 57 121 136 53 172 -10 297 -150 297 -38 0 -69 -7 -96 -21z"/>
<path d="M4763 4785 c-58 -25 -73 -64 -73 -195 0 -246 48 -400 155 -499 85
-78 156 -90 246 -43 63 33 109 88 139 169 42 111 16 235 -72 344 -61 76 -300
240 -348 239 -8 -1 -30 -7 -47 -15z m217 -417 c21 -34 28 -70 11 -52 -13 12
-43 84 -36 84 3 0 14 -15 25 -32z"/>
<path d="M2694 4231 c-131 -34 -225 -138 -227 -251 -1 -82 22 -140 77 -195 57
-57 103 -75 188 -75 147 0 341 99 436 221 39 52 44 122 12 174 -29 47 -51 58
-180 95 -119 34 -244 47 -306 31z"/>
<path d="M1080 4103 c-71 -37 -102 -132 -66 -202 21 -41 53 -57 131 -70 86
-13 142 -29 150 -41 16 -26 -168 -115 -310 -150 -103 -26 -126 -39 -156 -87
-17 -28 -21 -45 -17 -93 5 -66 23 -94 76 -117 37 -15 92 -6 267 48 125 39 201
77 290 144 188 143 226 303 102 432 -94 99 -379 182 -467 136z"/>
<path d="M4230 3780 c-115 -24 -224 -112 -261 -210 -17 -44 -20 -71 -17 -135
5 -89 18 -122 73 -178 72 -74 174 -105 279 -86 77 14 127 40 181 94 71 70 104
149 125 292 17 120 -16 173 -127 206 -67 20 -196 28 -253 17z m71 -299 c-15
-28 -61 -43 -61 -20 0 16 31 38 53 39 14 0 16 -4 8 -19z"/>
<path d="M1740 3751 c-136 -47 -193 -111 -220 -248 -21 -107 13 -209 95 -281
61 -53 127 -75 214 -70 98 5 170 44 226 119 71 97 79 201 23 314 -26 53 -93
122 -143 147 -44 23 -153 33 -195 19z"/>
<path d="M5160 3584 c-223 -58 -334 -216 -286 -404 28 -109 93 -197 180 -243
62 -32 173 -31 246 4 174 83 256 310 171 476 -23 45 -138 159 -176 173 -35 13
-68 12 -135 -6z m34 -327 c-3 -8 -12 -18 -20 -21 -20 -8 -18 21 3 33 21 12 25
9 17 -12z"/>
<path d="M2650 3429 c-127 -17 -279 -103 -363 -206 -26 -32 -66 -96 -88 -143
-23 -47 -54 -113 -70 -147 -44 -92 -104 -145 -237 -209 -63 -30 -134 -68 -159
-85 -212 -146 -367 -385 -424 -654 -8 -33 -13 -118 -13 -190 0 -112 4 -142 27
-218 94 -308 326 -541 632 -637 90 -28 274 -38 381 -20 216 34 432 150 609
325 143 141 207 250 295 500 23 66 55 152 70 190 43 106 54 182 40 279 -19
143 -110 531 -151 646 -17 47 -35 111 -40 142 -18 120 -111 269 -214 345 -94
70 -188 96 -295 82z m72 -396 c10 -9 18 -25 18 -35 0 -10 20 -70 45 -132 25
-63 54 -149 65 -192 98 -383 118 -535 81 -616 -11 -26 -21 -54 -21 -62 0 -31
-65 -196 -118 -301 -49 -97 -68 -122 -161 -216 -88 -89 -119 -113 -183 -143
-200 -96 -384 -63 -611 108 -87 65 -140 142 -161 235 -20 86 -20 129 -2 223
46 235 161 382 368 467 159 65 303 181 387 310 22 35 68 117 101 182 43 84 72
127 102 153 46 40 63 44 90 19z"/>
<path d="M3473 3390 c-49 -11 -96 -52 -147 -128 -110 -166 -124 -259 -46 -305
38 -23 88 -21 154 3 91 35 163 135 186 263 21 113 -46 190 -147 167z"/>
<path d="M368 2293 c-28 -18 -48 -52 -48 -83 0 -31 99 -298 141 -380 21 -41
52 -95 68 -120 51 -75 158 -175 219 -206 137 -68 312 -27 358 83 44 104 -23
269 -166 413 -88 88 -168 143 -349 240 -139 74 -175 83 -223 53z m416 -459
c61 -61 104 -120 94 -130 -10 -10 -85 57 -129 117 -27 36 -49 69 -49 73 0 16
22 0 84 -60z"/>
<path d="M4105 1971 c-22 -12 -51 -37 -65 -58 -46 -67 -27 -207 59 -453 63
-178 107 -236 191 -247 125 -17 202 59 249 243 27 110 61 317 61 377 0 32 -7
61 -20 83 -23 36 -91 74 -133 74 -32 0 -94 -24 -119 -46 -15 -15 -20 -14 -51
10 -49 37 -119 44 -172 17z"/>
</g>
</svg>
