<?xml version="1.0" standalone="no"?>
<!DOCTYPE svg PUBLIC "-//W3C//DTD SVG 20010904//EN"
 "http://www.w3.org/TR/2001/REC-SVG-20010904/DTD/svg10.dtd">
<svg version="1.0" xmlns="http://www.w3.org/2000/svg"
 width="600.000000pt" height="600.000000pt" viewBox="0 0 600.000000 600.000000"
 preserveAspectRatio="xMidYMid meet">
<metadata>
Created by potrace 1.15, written by Peter Selinger 2001-2017
</metadata>
<g transform="translate(0.000000,600.000000) scale(0.100000,-0.100000)"
fill="#16364b" stroke="none">
<path d="M2877 5576 c-58 -21 -79 -46 -135 -164 -84 -172 -91 -269 -29 -373
64 -106 144 -135 357 -126 l145 6 -34 -27 c-76 -59 -135 -113 -335 -306 -115
-110 -217 -214 -228 -231 -54 -90 16 -225 135 -258 81 -23 173 -42 417 -87
124 -23 260 -50 303 -61 66 -17 85 -18 115 -8 130 41 152 208 35 267 -21 11
-76 29 -123 41 -76 18 -145 31 -417 72 -40 6 -73 15 -73 19 0 3 15 20 33 35
17 16 89 81 158 145 69 64 173 153 231 198 144 111 191 159 206 208 34 114 -7
193 -129 248 -81 37 -188 49 -366 41 -129 -6 -153 -4 -153 8 0 7 19 51 41 96
36 71 41 89 37 130 -10 99 -100 159 -191 127z"/>
<path d="M1489 5243 c-260 -131 -393 -297 -505 -629 -46 -139 -43 -184 16
-248 38 -40 39 -41 107 -41 44 1 109 12 184 32 142 39 286 53 294 30 4 -8 -21
-99 -55 -202 -62 -187 -69 -234 -46 -287 6 -14 0 -21 -33 -34 -155 -62 -150
-276 7 -292 40 -3 79 6 239 61 339 116 421 158 453 230 26 55 25 85 -3 137
-25 49 -75 80 -125 80 -18 0 -73 -19 -125 -45 -50 -24 -93 -40 -95 -35 -2 5
18 73 43 152 80 249 73 361 -29 464 -76 76 -136 96 -310 103 l-138 6 41 55
c58 78 152 155 248 201 84 41 128 81 139 125 15 59 -25 137 -87 169 -54 29
-117 19 -220 -32z"/>
<path d="M4425 4585 c-64 -17 -173 -61 -296 -118 -116 -54 -144 -85 -144 -162
0 -58 23 -96 72 -120 50 -24 85 -18 210 39 132 60 191 81 201 72 11 -12 -59
-162 -174 -368 -63 -114 -118 -222 -121 -241 -8 -50 21 -105 84 -162 31 -27
63 -54 71 -59 8 -4 71 -14 141 -22 132 -13 242 -33 330 -60 50 -14 52 -17 47
-42 -3 -15 -56 -126 -117 -247 -62 -121 -116 -233 -120 -249 -28 -98 81 -204
182 -176 51 14 73 42 156 197 161 300 213 431 213 536 0 96 -57 190 -142 233
-58 29 -214 67 -372 89 -60 8 -111 16 -112 18 -2 2 24 50 57 108 142 243 202
388 203 494 2 149 -105 256 -253 254 -37 0 -89 -6 -116 -14z"/>
<path d="M3789 3680 c-64 -11 -121 -42 -162 -91 -64 -75 -84 -176 -47 -237 59
-97 194 -95 252 4 52 89 51 -59 -2 -174 l-33 -72 -91 -44 c-105 -51 -194 -118
-233 -178 -39 -58 -40 -144 -3 -183 35 -38 73 -55 119 -55 57 0 90 15 141 65
54 53 146 96 255 120 95 20 143 45 173 89 32 46 30 121 -3 170 l-25 37 17 57
c26 86 23 232 -5 296 -64 140 -206 219 -353 196z"/>
<path d="M2481 3570 c-98 -21 -294 -106 -374 -162 -35 -25 -67 -87 -67 -131 0
-67 68 -136 142 -144 37 -4 56 1 116 31 109 55 240 96 306 96 56 0 56 0 56
-31 0 -78 -63 -247 -149 -399 -54 -94 -66 -139 -51 -189 10 -37 56 -91 76 -91
21 0 26 -20 7 -27 -66 -23 -123 -103 -123 -173 0 -85 80 -178 170 -200 57 -14
88 -8 190 32 129 52 270 98 317 105 l44 6 -7 -29 c-3 -16 -24 -83 -46 -148
-46 -139 -45 -185 2 -259 67 -106 240 -117 308 -20 50 72 126 305 142 432 13
98 2 171 -36 248 -76 155 -286 187 -652 96 -57 -13 -106 -23 -108 -20 -3 3 12
31 32 63 61 95 132 255 160 361 34 128 38 272 10 353 -25 72 -110 159 -181
184 -58 21 -218 30 -284 16z"/>
<path d="M1148 3251 c-78 -25 -250 -141 -279 -187 -24 -39 -36 -116 -25 -159
20 -79 142 -148 223 -126 20 6 39 9 41 7 3 -4 -8 -71 -64 -381 -23 -127 -28
-179 -28 -335 -1 -200 5 -236 52 -292 53 -62 165 -86 255 -54 54 20 72 39 135
146 135 232 444 672 460 656 17 -17 33 -91 39 -171 7 -113 -7 -239 -57 -525
-47 -261 -51 -344 -22 -392 54 -86 178 -92 241 -12 12 15 23 25 25 23 2 -2 16
-89 30 -194 42 -296 97 -498 165 -604 103 -160 264 -229 436 -186 76 19 184
71 192 92 3 8 29 29 58 48 48 30 58 43 115 157 79 155 154 272 219 339 47 49
52 51 89 47 27 -4 77 -32 165 -91 183 -125 296 -153 422 -106 74 27 158 105
181 167 10 26 28 55 40 65 35 27 74 115 74 164 0 24 -9 80 -21 124 -11 44 -21
117 -22 162 l-2 82 50 13 c28 7 126 17 220 22 223 13 294 33 376 107 94 85
151 302 120 454 -22 106 -112 179 -221 179 -123 0 -211 -84 -234 -221 l-6 -36
-163 -6 c-169 -6 -224 -16 -321 -60 -130 -60 -205 -144 -247 -276 -32 -101
-36 -276 -10 -421 11 -63 19 -115 18 -116 -1 -1 -36 23 -77 53 -141 104 -242
139 -386 131 -119 -6 -211 -53 -320 -162 -98 -99 -154 -182 -250 -375 -76
-152 -110 -195 -139 -171 -40 33 -94 220 -140 488 -37 217 -50 249 -111 292
-84 57 -171 47 -242 -27 l-43 -44 7 53 c3 29 22 134 41 233 19 99 38 222 42
274 12 163 -17 584 -48 690 -17 55 -60 101 -119 128 -45 21 -64 25 -114 20
-132 -12 -253 -111 -418 -345 -51 -73 -95 -130 -97 -128 -3 2 6 62 18 133 27
149 33 399 11 470 -23 76 -71 134 -140 170 -73 38 -111 40 -194 14z"/>
</g>
</svg>
