<?xml version="1.0" standalone="no"?>
<!DOCTYPE svg PUBLIC "-//W3C//DTD SVG 20010904//EN"
 "http://www.w3.org/TR/2001/REC-SVG-20010904/DTD/svg10.dtd">
<svg version="1.0" xmlns="http://www.w3.org/2000/svg"
 width="600.000000pt" height="600.000000pt" viewBox="0 0 600.000000 600.000000"
 preserveAspectRatio="xMidYMid meet">
<metadata>
Created by potrace 1.15, written by Peter Selinger 2001-2017
</metadata>
<g transform="translate(0.000000,600.000000) scale(0.100000,-0.100000)"
fill="#16364b" stroke="none">
<path d="M2368 5373 c-13 -15 -17 -59 -21 -228 -4 -173 -9 -225 -27 -295 -51
-195 -127 -304 -257 -366 -71 -33 -74 -36 -71 -67 2 -21 11 -36 29 -46 24 -13
31 -11 103 23 167 80 264 236 317 509 14 73 19 142 19 272 0 162 -2 177 -20
195 -25 25 -52 26 -72 3z"/>
<path d="M3541 5254 c-29 -37 -27 -57 15 -131 44 -79 130 -167 179 -183 42
-14 89 0 105 31 27 49 -9 142 -87 229 -56 62 -89 80 -147 80 -36 0 -48 -5 -65
-26z"/>
<path d="M3024 5111 c-86 -39 -155 -160 -158 -278 -1 -69 19 -107 68 -131 43
-21 103 6 167 76 124 136 145 289 45 336 -44 21 -71 20 -122 -3z m76 -108 c-1
-43 -33 -105 -81 -154 l-44 -44 -3 37 c-4 49 33 132 72 163 40 32 56 31 56 -2z"/>
<path d="M4772 4744 c-17 -7 -35 -21 -41 -33 -14 -25 -14 -318 -1 -421 19
-146 63 -220 130 -220 94 0 139 146 105 345 -19 115 -69 275 -96 309 -23 29
-58 37 -97 20z"/>
<path d="M2699 4220 c-48 -14 -71 -32 -85 -65 -31 -75 21 -142 147 -189 117
-44 198 -51 311 -30 43 8 78 51 78 95 0 69 -31 88 -265 164 -82 26 -150 36
-186 25z"/>
<path d="M5270 4000 c-78 -14 -128 -40 -174 -91 -54 -61 -76 -121 -76 -213 0
-169 74 -305 192 -356 71 -30 178 -25 260 13 75 34 151 106 185 175 40 82 45
200 11 274 -31 66 -71 107 -156 157 -74 43 -155 57 -242 41z m116 -333 c9 -9
-9 -35 -31 -45 -17 -8 -26 -8 -33 1 -14 19 -21 44 -14 52 7 7 70 0 78 -8z"/>
<path d="M1360 3865 c-152 -47 -216 -233 -134 -386 38 -71 115 -147 184 -181
68 -34 106 -87 160 -221 72 -180 102 -301 145 -587 14 -96 30 -191 35 -210 5
-19 16 -84 25 -145 72 -492 176 -714 398 -847 65 -39 214 -98 250 -98 35 0 14
-16 -66 -49 -172 -72 -241 -138 -241 -232 0 -130 144 -176 414 -134 184 28
279 39 286 32 4 -4 -14 -25 -39 -47 -72 -64 -83 -134 -25 -174 80 -56 196 29
233 171 23 90 -4 161 -77 199 -38 20 -132 17 -273 -6 -66 -11 -169 -23 -230
-26 -100 -6 -109 -5 -95 9 21 23 119 69 320 154 l174 73 338 0 337 0 20 -45
c32 -73 118 -111 272 -122 l86 -6 9 -35 c26 -104 194 -109 279 -9 45 52 52 80
31 124 -25 52 -79 72 -201 74 -98 1 -99 2 -40 10 267 38 362 65 606 171 203
89 270 130 359 214 158 151 242 326 257 534 11 158 -32 301 -142 466 -122 183
-299 284 -501 284 -157 0 -294 -51 -404 -152 -140 -128 -412 -213 -680 -211
-384 2 -617 159 -974 659 -197 276 -332 426 -487 544 -91 68 -313 183 -395
205 -71 18 -154 18 -214 0z m205 -256 c22 -12 77 -41 123 -65 45 -23 114 -66
152 -94 97 -72 259 -245 365 -389 188 -256 226 -305 312 -404 98 -112 230
-227 323 -281 288 -169 631 -201 1026 -96 192 51 294 103 422 213 80 69 142
91 250 85 142 -6 237 -80 320 -246 43 -87 46 -100 50 -185 4 -79 1 -103 -22
-170 -59 -176 -179 -306 -372 -404 -340 -172 -503 -203 -999 -184 -170 6 -474
13 -675 16 -391 5 -417 8 -519 59 -83 42 -143 105 -190 199 -50 99 -96 272
-111 423 -6 60 -18 159 -26 219 -8 61 -23 189 -34 285 -30 259 -65 377 -190
635 -74 150 -118 209 -200 262 -99 64 -130 92 -130 118 0 13 6 26 13 29 19 8
68 -3 112 -25z"/>
<path d="M2350 2450 c-27 -27 -25 -56 6 -85 38 -35 79 -33 99 5 8 16 15 36 15
45 0 25 -38 55 -70 55 -17 0 -39 -9 -50 -20z"/>
<path d="M2827 2052 c-23 -26 -21 -55 6 -80 44 -41 107 -17 107 40 0 52 -78
79 -113 40z"/>
<path d="M4232 3769 c-111 -19 -203 -88 -251 -189 -35 -75 -37 -203 -4 -266
36 -67 70 -101 135 -133 194 -97 398 35 439 284 16 98 0 197 -37 236 -53 55
-180 86 -282 68z m48 -298 c0 -23 -25 -51 -46 -51 -18 0 -18 20 2 48 19 27 44
29 44 3z"/>
<path d="M3444 3343 c-33 -35 -154 -286 -154 -318 0 -29 34 -55 61 -48 52 14
191 247 193 324 1 69 -54 92 -100 42z"/>
<path d="M476 2004 c-19 -19 -20 -45 -3 -66 19 -24 157 -123 204 -147 78 -39
143 -22 143 39 0 38 -47 76 -172 140 -100 52 -146 61 -172 34z"/>
<path d="M5353 1118 c-34 -16 -66 -94 -71 -169 -4 -59 -2 -68 22 -96 33 -40
67 -48 111 -27 51 24 77 73 83 154 2 38 2 80 -2 94 -11 46 -90 70 -143 44z"/>
</g>
</svg>
