<?xml version="1.0" standalone="no"?>
<!DOCTYPE svg PUBLIC "-//W3C//DTD SVG 20010904//EN"
 "http://www.w3.org/TR/2001/REC-SVG-20010904/DTD/svg10.dtd">
<svg version="1.0" xmlns="http://www.w3.org/2000/svg"
 width="600.000000pt" height="600.000000pt" viewBox="0 0 600.000000 600.000000"
 preserveAspectRatio="xMidYMid meet">
<metadata>
Created by potrace 1.15, written by Peter Selinger 2001-2017
</metadata>
<g transform="translate(0.000000,600.000000) scale(0.100000,-0.100000)"
fill="#16364b" stroke="none">
<path d="M2233 5450 c-38 -23 -53 -50 -83 -149 -39 -129 -15 -243 67 -310 64
-53 130 -62 337 -47 l118 9 -51 -94 c-82 -149 -258 -509 -276 -565 -22 -68 -8
-123 39 -161 l34 -27 -19 -35 c-52 -97 16 -201 131 -201 40 0 124 20 445 106
50 13 159 37 242 54 84 16 166 36 182 44 69 36 100 133 62 194 -27 42 -77 72
-123 72 -48 0 -340 -60 -541 -111 -87 -22 -162 -39 -168 -37 -13 4 109 252
206 418 197 338 223 444 133 546 -70 79 -180 104 -389 86 -73 -6 -135 -9 -137
-7 -2 2 1 12 7 23 6 12 11 43 11 71 0 39 -6 56 -27 82 -50 59 -139 77 -200 39z"/>
<path d="M3890 5100 c-111 -20 -236 -87 -270 -142 -13 -21 -20 -51 -20 -81 0
-121 88 -169 203 -110 74 37 145 55 170 41 17 -9 19 -17 14 -72 -3 -34 -31
-138 -61 -232 -31 -94 -56 -187 -56 -205 0 -121 147 -195 234 -119 38 34 114
204 162 365 33 114 39 262 11 340 -55 157 -216 247 -387 215z"/>
<path d="M1701 4940 c-86 -23 -213 -88 -373 -191 -140 -90 -156 -104 -169
-150 -17 -54 -4 -102 41 -155 22 -25 40 -51 40 -58 0 -15 74 -86 89 -86 25 0
252 -42 322 -60 119 -31 184 -57 237 -98 67 -51 112 -65 167 -51 82 21 134
102 119 187 -5 27 -21 51 -59 88 -90 89 -216 146 -394 179 -47 8 -87 17 -89
20 -16 16 192 85 256 85 43 0 82 21 121 65 27 31 31 43 31 95 0 103 -61 150
-192 149 -40 0 -106 -9 -147 -19z"/>
<path d="M4475 4243 c-278 -32 -319 -45 -349 -107 -31 -65 -17 -134 36 -184
35 -32 80 -42 144 -32 205 34 338 34 371 2 25 -25 11 -189 -29 -338 -18 -66
-32 -145 -32 -177 -1 -55 1 -61 36 -93 34 -30 44 -34 93 -34 104 0 149 44 195
185 70 220 91 413 55 515 -71 201 -256 294 -520 263z"/>
<path d="M2090 3894 c-103 -36 -264 -65 -390 -71 -137 -6 -167 -14 -205 -53
-24 -25 -30 -41 -33 -93 -3 -52 0 -67 20 -96 41 -62 79 -76 190 -74 267 6 603
94 655 172 30 44 31 122 3 169 -45 74 -120 88 -240 46z"/>
<path d="M3714 3736 c-80 -20 -236 -89 -399 -177 -167 -89 -179 -98 -206 -151
-51 -100 11 -208 118 -208 29 0 63 11 110 36 161 86 335 174 344 174 14 0 5
-25 -57 -167 -58 -132 -65 -176 -36 -230 42 -78 129 -104 205 -60 39 23 49 38
99 144 85 178 119 289 125 403 4 86 3 99 -19 140 -37 68 -94 103 -171 107 -34
1 -85 -3 -113 -11z"/>
<path d="M2175 3284 c-55 -7 -106 -13 -112 -13 -21 -2 -90 -69 -103 -101 -7
-17 -10 -52 -8 -81 4 -40 12 -57 38 -84 45 -46 80 -51 219 -31 114 16 252 21
263 10 3 -3 -3 -36 -13 -74 -25 -85 -15 -133 36 -185 67 -66 160 -67 222 -3
43 44 75 150 76 248 1 91 -26 153 -98 219 -111 102 -257 129 -520 95z"/>
<path d="M4225 3181 c-16 -11 -57 -47 -90 -81 -67 -69 -158 -133 -261 -184
-104 -50 -144 -61 -324 -91 -96 -16 -152 -147 -100 -233 46 -75 118 -88 282
-52 233 52 499 197 642 350 60 64 80 111 72 169 -15 110 -135 176 -221 122z"/>
<path d="M4911 3176 c-47 -17 -108 -71 -131 -117 -27 -53 -34 -112 -21 -182 6
-34 7 -67 2 -80 -5 -14 -62 -59 -132 -108 -201 -137 -281 -231 -341 -402 -34
-96 -46 -214 -29 -301 14 -78 79 -209 131 -269 106 -120 253 -123 352 -7 69
79 75 161 21 269 -36 73 -36 76 -25 130 7 31 20 67 30 81 10 14 82 74 160 133
187 142 252 228 288 383 23 101 16 294 -13 350 -58 109 -181 160 -292 120z"/>
<path d="M1221 3038 c-123 -61 -156 -232 -63 -326 20 -20 45 -41 55 -47 14 -8
19 -33 27 -140 6 -71 8 -157 5 -190 -9 -87 11 -330 35 -432 50 -213 145 -305
280 -273 138 33 193 151 136 288 -26 62 -46 150 -27 120 35 -55 148 -77 204
-39 16 10 49 49 74 87 49 74 101 134 145 165 l27 20 15 -34 c7 -19 23 -43 35
-54 l21 -20 -20 -59 c-54 -157 -71 -333 -51 -541 9 -98 38 -144 108 -175 52
-23 97 -19 137 13 52 41 58 66 50 227 -7 161 4 244 52 384 31 92 31 154 1 199
-17 25 -22 45 -19 71 6 51 -22 135 -63 190 -69 94 -194 135 -315 104 -36 -9
-85 -28 -110 -43 -65 -38 -188 -167 -259 -273 l-61 -91 0 53 c-2 173 -20 442
-35 508 -57 248 -228 385 -384 308z"/>
<path d="M3450 2253 c-166 -20 -691 -136 -733 -161 -17 -9 -44 -34 -60 -55
-26 -31 -32 -49 -35 -101 -5 -79 20 -134 80 -173 67 -44 133 -38 443 40 293
74 356 87 432 87 49 0 54 -2 69 -32 23 -46 44 -67 86 -89 97 -50 222 7 258
117 28 83 -10 212 -82 281 -18 18 -60 44 -93 60 -55 25 -71 27 -195 29 -74 1
-151 0 -170 -3z"/>
<path d="M4455 1561 c-22 -10 -53 -33 -70 -51 -58 -62 -90 -71 -287 -81 -328
-16 -463 -51 -633 -164 -91 -60 -228 -184 -268 -242 -20 -29 -38 -42 -70 -50
-26 -7 -65 -32 -102 -64 -122 -107 -227 -126 -351 -64 -71 36 -221 180 -283
273 -59 88 -106 117 -190 117 -52 0 -74 -5 -104 -23 -90 -57 -114 -177 -56
-281 47 -83 133 -194 192 -247 29 -26 95 -76 148 -110 254 -168 430 -206 621
-134 95 36 211 111 292 191 56 55 88 79 113 84 22 4 56 27 101 69 106 99 178
154 251 190 107 54 169 66 368 70 261 5 379 41 504 154 73 66 102 119 102 187
0 140 -150 235 -278 176z"/>
</g>
</svg>
