<?xml version="1.0" standalone="no"?>
<!DOCTYPE svg PUBLIC "-//W3C//DTD SVG 20010904//EN"
 "http://www.w3.org/TR/2001/REC-SVG-20010904/DTD/svg10.dtd">
<svg version="1.0" xmlns="http://www.w3.org/2000/svg"
 width="600.000000pt" height="600.000000pt" viewBox="0 0 600.000000 600.000000"
 preserveAspectRatio="xMidYMid meet">
<metadata>
Created by potrace 1.15, written by Peter Selinger 2001-2017
</metadata>
<g transform="translate(0.000000,600.000000) scale(0.100000,-0.100000)"
fill="#16364b" stroke="none">
<path d="M2855 5563 c-100 -25 -123 -140 -51 -258 65 -107 80 -169 81 -340 0
-160 4 -177 51 -214 86 -68 207 -11 233 109 24 112 8 241 -55 435 -31 95 -87
205 -117 232 -37 34 -93 48 -142 36z"/>
<path d="M1948 5423 c-36 -23 -68 -83 -68 -129 0 -76 92 -211 188 -278 51 -35
106 -113 196 -280 65 -118 76 -133 116 -153 24 -13 58 -23 75 -23 74 0 145 69
145 142 0 47 -84 221 -168 348 -50 75 -204 240 -224 240 -4 0 -22 25 -39 56
-18 31 -46 65 -63 75 -39 24 -121 25 -158 2z"/>
<path d="M1430 4774 c-126 -54 -148 -226 -36 -286 10 -5 65 -9 122 -9 189 2
366 -30 459 -84 58 -34 104 -40 151 -20 52 22 73 42 96 94 23 50 18 95 -13
135 -43 55 -222 123 -392 151 -100 16 -363 29 -387 19z"/>
<path d="M4375 4746 c-63 -29 -112 -112 -99 -170 14 -68 208 -539 239 -580 11
-14 39 -34 62 -42 89 -34 180 23 190 120 5 37 -7 75 -90 282 -53 132 -101 258
-108 282 -7 23 -26 59 -43 78 -25 29 -40 37 -76 40 -26 3 -58 -2 -75 -10z"/>
<path d="M3174 4498 c-24 -13 -80 -68 -131 -128 -103 -121 -178 -189 -351
-319 -89 -67 -128 -103 -138 -127 -43 -102 26 -204 137 -204 52 0 94 27 240
151 101 86 385 365 420 413 92 125 -44 289 -177 214z"/>
<path d="M1720 4319 c-89 -36 -125 -138 -78 -221 31 -55 67 -74 214 -109 117
-28 141 -30 254 -27 107 4 137 9 213 35 86 30 135 64 159 108 35 63 25 145
-24 192 -26 25 -37 28 -91 28 -34 0 -89 -8 -122 -18 -81 -23 -225 -22 -344 3
-103 22 -143 24 -181 9z"/>
<path d="M3821 4099 c-12 -5 -62 -46 -110 -90 -213 -201 -494 -384 -696 -455
-104 -36 -132 -56 -146 -105 -29 -94 54 -195 162 -198 37 -1 168 43 264 89
269 129 695 469 725 580 31 117 -87 224 -199 179z"/>
<path d="M2245 3763 c-122 -33 -284 -40 -424 -19 -140 21 -172 20 -211 -6 -81
-56 -100 -141 -47 -211 39 -51 67 -63 208 -88 179 -31 368 -24 528 20 141 38
170 54 199 111 52 101 -16 222 -123 219 -22 -1 -80 -12 -130 -26z"/>
<path d="M5081 3720 c-56 -13 -113 -61 -144 -120 -29 -54 -29 -57 -21 -150 14
-147 9 -258 -16 -346 -45 -167 -148 -322 -338 -513 -63 -62 -120 -128 -128
-147 -23 -56 -18 -152 11 -211 41 -81 109 -123 201 -123 104 0 169 47 347 250
214 244 326 453 373 697 27 144 12 379 -33 517 -22 69 -74 122 -136 141 -55
16 -66 17 -116 5z"/>
<path d="M1955 3110 c-50 -24 -75 -65 -75 -120 0 -74 35 -118 135 -168 113
-56 188 -74 341 -79 174 -7 204 -2 255 44 65 59 74 141 22 203 -43 51 -57 55
-243 60 l-175 5 -77 38 c-87 42 -125 46 -183 17z"/>
<path d="M4412 3119 c-13 -5 -58 -39 -100 -75 -246 -211 -521 -324 -863 -354
-125 -11 -149 -21 -180 -80 -25 -46 -24 -104 2 -158 42 -87 104 -98 324 -62
369 60 648 186 919 412 95 80 119 116 118 174 -1 105 -121 183 -220 143z"/>
<path d="M1491 2960 c-18 -4 -45 -17 -59 -27 -92 -69 -116 -160 -117 -433 0
-177 2 -191 33 -314 44 -171 73 -250 139 -377 72 -139 132 -215 190 -241 92
-41 189 -2 237 93 45 91 34 160 -43 261 -54 71 -97 171 -132 303 -44 167 -55
293 -40 450 12 117 11 135 -4 170 -37 89 -119 135 -204 115z"/>
<path d="M2125 2370 c-74 -30 -106 -139 -65 -219 27 -54 52 -71 192 -131 68
-29 149 -66 182 -83 93 -48 171 -37 229 33 49 58 44 141 -11 192 -39 36 -78
57 -263 142 -167 76 -212 88 -264 66z"/>
<path d="M4135 2039 c-145 -50 -325 -96 -670 -173 -226 -50 -305 -62 -455 -71
-91 -5 -111 -9 -149 -33 -142 -87 -109 -309 52 -353 73 -20 243 -3 559 56 430
81 567 116 800 207 107 41 133 56 162 89 64 75 74 195 22 264 -61 80 -123 83
-321 14z"/>
<path d="M4891 1715 c-30 -9 -66 -36 -120 -88 -238 -230 -504 -346 -989 -431
-92 -16 -154 -32 -176 -46 -65 -40 -96 -154 -62 -233 18 -43 76 -93 126 -108
35 -11 60 -9 168 10 154 27 415 91 537 132 128 44 339 147 458 225 114 74 277
231 302 290 46 110 -7 222 -120 253 -50 14 -69 13 -124 -4z"/>
<path d="M2010 1418 c-81 -41 -114 -133 -75 -209 32 -61 264 -223 396 -276 94
-38 162 -52 280 -60 98 -5 111 -4 154 17 119 57 132 205 25 276 -32 22 -57 27
-142 34 -164 14 -273 55 -413 156 -83 59 -131 84 -163 84 -10 0 -38 -10 -62
-22z"/>
<path d="M2014 911 c-123 -57 -147 -228 -44 -314 47 -40 304 -163 420 -201
247 -80 505 -87 801 -20 91 20 118 33 156 78 84 95 60 242 -49 297 -48 25
-109 23 -258 -7 -60 -12 -137 -17 -265 -17 -156 -1 -191 2 -260 21 -91 26
-176 63 -286 128 -94 55 -153 64 -215 35z"/>
</g>
</svg>
