<?xml version="1.0" standalone="no"?>
<!DOCTYPE svg PUBLIC "-//W3C//DTD SVG 20010904//EN"
 "http://www.w3.org/TR/2001/REC-SVG-20010904/DTD/svg10.dtd">
<svg version="1.0" xmlns="http://www.w3.org/2000/svg"
 width="600.000000pt" height="600.000000pt" viewBox="0 0 600.000000 600.000000"
 preserveAspectRatio="xMidYMid meet">
<metadata>
Created by potrace 1.15, written by Peter Selinger 2001-2017
</metadata>
<g transform="translate(0.000000,600.000000) scale(0.100000,-0.100000)"
fill="#16364b" stroke="none">
<path d="M2167 5830 c-31 -10 -52 -28 -305 -269 -257 -244 -351 -364 -371
-473 -19 -107 32 -205 120 -228 86 -23 222 14 609 167 319 126 347 144 372
236 16 62 -2 118 -53 159 -64 51 -93 49 -283 -26 -93 -37 -170 -65 -172 -63
-2 2 59 63 136 136 154 146 173 176 151 244 -17 51 -48 87 -95 108 -44 20 -66
22 -109 9z"/>
<path d="M3076 5690 c-69 -21 -110 -88 -104 -168 6 -72 37 -100 149 -137 183
-60 344 -166 390 -258 30 -57 37 -173 15 -231 -24 -63 -86 -120 -175 -162 -42
-20 -91 -43 -110 -52 -75 -37 -99 -116 -59 -191 48 -90 138 -103 278 -41 188
83 313 215 355 375 19 76 19 240 0 324 -45 189 -218 365 -465 472 -79 34 -223
81 -240 78 -3 0 -18 -5 -34 -9z"/>
<path d="M938 5336 c-188 -77 -321 -224 -347 -382 -22 -141 34 -281 171 -425
86 -91 161 -141 216 -146 120 -10 199 116 143 225 -11 20 -42 55 -71 77 -77
61 -123 133 -128 203 -4 52 -1 61 24 91 25 30 151 101 179 101 19 0 65 55 75
90 18 63 -19 144 -80 175 -42 22 -116 18 -182 -9z"/>
<path d="M2734 4966 c-94 -30 -202 -123 -243 -212 -69 -147 -41 -275 86 -395
104 -97 236 -147 361 -137 86 7 138 72 130 160 -9 84 -60 134 -154 148 -78 11
-122 28 -134 50 -30 56 11 120 77 120 143 0 181 201 49 264 -40 19 -115 20
-172 2z"/>
<path d="M4775 4915 c-41 -22 -74 -54 -92 -90 -13 -24 -15 -51 -10 -140 14
-241 87 -394 222 -462 106 -54 242 -25 337 71 68 68 93 126 93 211 0 148 -102
266 -321 372 -109 53 -179 65 -229 38z"/>
<path d="M1843 4515 c-87 -24 -167 -81 -224 -159 -64 -87 -18 -223 83 -245 52
-12 93 3 148 52 28 25 64 49 81 52 27 6 36 2 68 -28 72 -69 125 -82 198 -46
78 38 117 144 79 218 -23 43 -93 100 -164 134 -79 37 -186 46 -269 22z"/>
<path d="M2760 3868 c-25 -14 -55 -39 -67 -58 -41 -60 -25 -151 36 -202 28
-24 31 -32 31 -81 0 -113 -51 -263 -153 -451 -15 -27 -27 -60 -27 -73 0 -70
65 -139 141 -149 34 -4 54 0 88 18 37 19 53 37 93 108 57 100 121 261 151 380
17 66 21 116 22 225 0 131 -2 144 -26 190 -37 74 -92 108 -177 113 -56 3 -74
0 -112 -20z"/>
<path d="M1155 3811 c-137 -37 -239 -81 -276 -118 -94 -90 -65 -244 55 -303
45 -21 105 -28 144 -15 12 3 22 4 22 0 0 -8 -107 -193 -188 -324 -119 -193
-180 -334 -238 -548 -33 -123 -1 -223 89 -273 48 -28 139 -30 188 -5 19 10 99
83 179 163 123 124 515 494 589 557 l24 20 -7 -74 c-9 -101 -55 -291 -122
-501 -68 -213 -128 -362 -200 -497 -59 -112 -68 -166 -39 -224 44 -84 172 -93
242 -17 24 26 185 362 244 509 81 203 164 515 200 754 14 89 6 246 -15 306
-36 98 -138 157 -240 138 -88 -16 -155 -64 -377 -269 -51 -47 -90 -78 -87 -70
3 9 29 56 58 105 73 128 138 267 155 333 39 147 -6 271 -122 339 -62 36 -176
42 -278 14z"/>
<path d="M4183 3775 c-117 -32 -205 -100 -249 -192 -34 -69 -37 -166 -7 -234
112 -253 478 -248 655 9 50 72 108 219 108 272 0 58 -30 105 -84 134 -34 17
-62 20 -205 23 -124 2 -179 -1 -218 -12z m74 -300 c-31 -27 -57 -33 -57 -12 0
16 36 35 65 36 18 0 17 -2 -8 -24z"/>
<path d="M3499 3367 c-116 -43 -179 -125 -220 -284 -24 -97 -24 -136 2 -183
33 -59 81 -80 181 -80 130 0 220 37 292 121 112 131 70 343 -81 414 -47 23
-130 28 -174 12z"/>
<path d="M4848 2825 c-52 -35 -203 -219 -238 -290 -17 -33 -36 -86 -42 -118
-11 -50 -10 -64 7 -113 37 -109 151 -172 262 -145 108 28 205 107 258 211 50
99 67 270 32 335 -14 27 -106 119 -134 133 -38 21 -105 14 -145 -13z"/>
<path d="M4135 2472 c-43 -20 -101 -79 -116 -119 -17 -46 -10 -127 21 -218 43
-127 43 -128 -27 -99 -218 89 -409 41 -490 -124 -27 -54 -28 -63 -27 -197 0
-123 5 -165 42 -347 48 -235 50 -242 88 -287 75 -89 219 -95 314 -14 82 70 95
141 61 343 -10 58 -14 107 -9 108 5 2 17 -2 27 -10 10 -7 37 -27 60 -45 61
-46 129 -58 216 -38 82 19 119 37 163 79 70 65 97 156 96 321 -1 131 -18 241
-63 408 -36 130 -65 184 -123 223 -36 24 -55 29 -118 32 -57 2 -85 -2 -115
-16z"/>
<path d="M2940 2290 c-109 -17 -354 -116 -534 -216 -99 -56 -100 -56 -133 -40
-49 24 -103 29 -153 16 -95 -24 -239 -147 -275 -234 -51 -121 41 -248 190
-263 l53 -6 11 -56 c6 -31 14 -65 17 -77 4 -17 -1 -24 -28 -34 -66 -26 -169
-103 -207 -154 -58 -77 -81 -129 -90 -207 -37 -292 189 -609 541 -761 135 -58
198 -72 318 -72 164 0 269 36 448 153 76 50 97 69 112 104 34 74 23 155 -32
221 -40 49 -98 75 -166 76 -59 0 -88 -12 -178 -76 -83 -59 -140 -84 -197 -84
-65 0 -183 41 -262 91 -143 90 -237 250 -195 330 20 37 60 21 180 -73 89 -70
174 -77 254 -21 48 33 96 119 96 172 0 51 -35 115 -80 146 -22 15 -53 48 -69
74 -33 51 -95 228 -106 303 -6 42 -5 47 17 53 12 4 75 36 139 71 120 66 295
146 355 163 30 8 34 7 34 -9 0 -60 -103 -309 -203 -493 -39 -70 -48 -97 -49
-137 -1 -174 224 -245 336 -107 45 57 152 235 193 324 48 105 89 235 103 334
24 163 -15 307 -109 398 -79 77 -200 110 -331 91z"/>
</g>
</svg>
