<?xml version="1.0" standalone="no"?>
<!DOCTYPE svg PUBLIC "-//W3C//DTD SVG 20010904//EN"
 "http://www.w3.org/TR/2001/REC-SVG-20010904/DTD/svg10.dtd">
<svg version="1.0" xmlns="http://www.w3.org/2000/svg"
 width="600.000000pt" height="600.000000pt" viewBox="0 0 600.000000 600.000000"
 preserveAspectRatio="xMidYMid meet">
<metadata>
Created by potrace 1.15, written by Peter Selinger 2001-2017
</metadata>
<g transform="translate(0.000000,600.000000) scale(0.100000,-0.100000)"
fill="#16364b" stroke="none">
<path d="M3100 5637 c-51 -33 -70 -74 -76 -163 -15 -194 67 -344 235 -432 31
-16 94 -44 140 -63 l84 -33 -29 -23 c-16 -12 -143 -100 -282 -194 -138 -94
-261 -183 -273 -197 -11 -15 -23 -39 -26 -53 -3 -15 -22 -41 -43 -57 -68 -56
-87 -130 -50 -201 44 -87 105 -108 272 -92 64 6 169 11 235 11 137 0 189 17
223 72 40 66 18 162 -46 204 -16 11 -55 20 -98 24 l-71 5 210 140 c235 156
313 224 338 299 24 69 21 114 -9 175 -40 80 -134 141 -304 196 -108 35 -174
68 -194 97 -12 17 -16 47 -16 117 0 76 -4 100 -20 126 -40 64 -138 85 -200 42z"/>
<path d="M1287 5376 c-158 -81 -287 -214 -359 -374 -94 -208 -116 -534 -41
-623 52 -61 117 -75 183 -38 63 35 80 79 80 201 0 201 62 363 186 486 41 39
79 72 85 72 23 0 81 53 95 86 19 46 18 88 -6 133 -40 80 -131 103 -223 57z"/>
<path d="M1530 5003 c-92 -15 -176 -36 -200 -48 -127 -66 -89 -263 56 -291 17
-3 64 1 104 10 41 8 77 13 79 10 3 -3 -1 -19 -8 -37 -7 -18 -28 -75 -47 -127
-59 -167 -40 -282 60 -365 l45 -39 -89 -47 c-147 -78 -180 -112 -180 -190 0
-83 74 -159 154 -159 34 0 58 10 123 54 95 62 216 115 333 145 46 11 94 28
107 36 93 62 77 202 -30 256 -32 17 -51 20 -89 15 l-48 -7 0 32 c0 46 -28 96
-67 120 -19 12 -32 26 -30 33 105 276 123 392 77 475 -34 60 -83 97 -155 116
-56 14 -138 18 -195 8z"/>
<path d="M4468 4511 c-96 -20 -140 -140 -81 -220 44 -59 76 -71 195 -71 106 0
108 0 96 -20 -7 -12 -66 -66 -131 -121 -64 -56 -122 -109 -127 -119 -15 -29
-12 -99 7 -130 33 -57 122 -85 187 -60 15 5 68 41 120 79 217 163 335 324 336
456 0 98 -53 160 -165 190 -67 19 -373 30 -437 16z"/>
<path d="M3927 3706 c-116 -31 -158 -143 -101 -266 33 -72 167 -203 254 -250
54 -28 76 -34 127 -35 54 0 66 4 100 31 93 76 95 230 2 282 -26 15 -29 22 -29
70 0 96 -52 138 -206 167 -88 17 -85 17 -147 1z"/>
<path d="M2555 3664 c-33 -8 -120 -35 -193 -60 -146 -51 -183 -80 -196 -148
-9 -50 22 -119 66 -146 55 -33 89 -35 175 -6 83 28 203 56 241 56 50 0 21 -95
-104 -343 -92 -183 -109 -214 -187 -346 -43 -73 -50 -91 -50 -138 0 -39 6 -62
21 -83 17 -22 21 -42 21 -93 -1 -114 57 -185 160 -195 40 -3 64 3 162 46 128
55 285 109 294 100 9 -8 -53 -155 -130 -308 -85 -169 -87 -229 -12 -309 65
-68 161 -89 243 -52 53 24 82 64 145 195 203 431 219 663 57 815 -102 95 -239
101 -466 19 -46 -17 -85 -29 -87 -26 -2 2 39 82 90 178 159 296 208 447 185
577 -38 219 -205 322 -435 267z"/>
<path d="M1187 3498 c-82 -10 -194 -52 -302 -113 -126 -72 -155 -109 -155
-200 0 -121 113 -214 228 -188 26 5 55 13 64 18 16 6 17 4 8 -21 -17 -52 -157
-557 -173 -624 -22 -93 -40 -265 -31 -314 17 -107 74 -162 206 -200 70 -20
101 -20 138 -1 34 18 326 383 535 670 32 44 69 93 82 108 l23 28 10 -26 c12
-31 -3 -141 -49 -380 -54 -274 -95 -556 -95 -655 0 -80 4 -103 23 -143 30 -61
70 -90 135 -95 95 -7 163 66 151 163 -18 138 13 349 109 757 53 227 61 310 47
483 -18 219 -57 316 -142 361 -44 22 -118 18 -176 -11 -90 -45 -275 -250 -457
-508 -27 -37 -50 -66 -52 -64 -6 6 63 251 118 417 78 238 78 369 2 460 -57 67
-133 91 -247 78z"/>
<path d="M4567 3275 c-63 -33 -98 -110 -78 -176 16 -53 46 -86 104 -116 79
-39 186 -112 203 -138 14 -21 13 -27 -6 -65 -12 -23 -45 -67 -74 -99 -67 -73
-77 -113 -44 -179 26 -52 88 -92 143 -92 59 0 137 69 212 186 68 106 91 239
58 334 -35 99 -100 161 -305 289 -121 76 -157 85 -213 56z"/>
<path d="M3645 3213 c-118 -42 -225 -137 -273 -241 -35 -78 -38 -118 -10 -172
57 -111 203 -118 273 -14 19 30 21 30 110 30 49 0 110 5 133 12 55 16 127 82
143 129 30 91 -17 187 -114 237 -74 38 -186 46 -262 19z"/>
<path d="M4535 2261 c-47 -21 -98 -71 -120 -116 -9 -20 -15 -60 -15 -99 0 -75
11 -70 -100 -44 -33 8 -118 13 -215 13 -141 0 -168 -3 -227 -23 -170 -59 -265
-185 -289 -387 -5 -44 -9 -178 -7 -297 l2 -218 -52 -27 -51 -26 -30 24 c-68
55 -220 187 -269 234 -181 171 -379 204 -501 84 -30 -30 -46 -59 -101 -184
-13 -28 -15 -21 -31 110 -30 246 -63 395 -98 444 -50 70 -173 93 -248 45 -76
-50 -99 -119 -78 -234 8 -41 26 -174 40 -295 38 -330 72 -447 158 -541 83 -91
219 -171 340 -199 56 -13 70 -13 113 0 53 15 100 57 128 111 15 32 19 66 17
159 -2 59 21 190 33 189 12 0 121 -77 236 -166 55 -42 130 -92 167 -110 61
-30 76 -33 158 -33 83 0 95 2 153 34 100 55 152 126 152 213 0 23 5 27 39 33
51 8 125 58 157 104 46 67 57 130 57 324 0 97 1 177 2 177 22 0 180 -36 227
-51 48 -16 92 -21 183 -22 111 -2 124 0 177 25 115 54 190 152 223 290 17 73
19 222 4 288 -32 139 -207 229 -334 171z"/>
</g>
</svg>
