<?xml version="1.0" standalone="no"?>
<!DOCTYPE svg PUBLIC "-//W3C//DTD SVG 20010904//EN"
 "http://www.w3.org/TR/2001/REC-SVG-20010904/DTD/svg10.dtd">
<svg version="1.0" xmlns="http://www.w3.org/2000/svg"
 width="600.000000pt" height="600.000000pt" viewBox="0 0 600.000000 600.000000"
 preserveAspectRatio="xMidYMid meet">
<metadata>
Created by potrace 1.15, written by Peter Selinger 2001-2017
</metadata>
<g transform="translate(0.000000,600.000000) scale(0.100000,-0.100000)"
fill="#16364b" stroke="none">
<path d="M2863 5589 c-17 -5 -45 -25 -60 -44 -57 -69 -132 -283 -133 -377 0
-56 36 -140 77 -181 20 -20 61 -47 92 -59 50 -20 72 -22 201 -21 l145 2 -30
-26 c-221 -187 -419 -386 -533 -537 -27 -36 -30 -110 -5 -146 24 -35 82 -88
102 -94 45 -14 304 -68 431 -91 80 -14 202 -39 272 -56 l127 -31 45 21 c56 24
86 69 86 129 0 50 -19 92 -55 120 -26 21 -149 52 -285 72 -185 28 -326 53
-333 59 -10 9 326 340 423 416 41 32 96 80 121 106 106 107 77 251 -62 316
-73 34 -142 43 -324 43 -96 0 -176 4 -179 8 -3 5 15 52 40 105 39 83 45 102
39 137 -17 100 -108 158 -202 129z"/>
<path d="M1583 5289 c-65 -13 -145 -74 -259 -194 -220 -234 -325 -375 -371
-501 -28 -78 -28 -106 -4 -160 42 -92 95 -106 276 -75 72 12 181 25 242 28
l113 6 -19 -54 c-11 -30 -35 -90 -54 -134 -67 -158 -78 -234 -41 -292 13 -20
11 -23 -24 -40 -102 -50 -110 -196 -13 -260 46 -31 102 -30 187 5 38 16 148
55 244 87 222 73 263 95 291 151 16 34 19 53 14 86 -14 81 -116 151 -191 129
-16 -4 -62 -22 -103 -40 -78 -33 -106 -39 -98 -18 3 6 26 62 51 124 55 135 76
211 76 278 -2 195 -178 315 -424 287 -50 -5 -92 -9 -94 -8 -1 2 33 45 77 97
81 98 170 178 231 209 66 34 85 64 85 133 0 46 -5 69 -20 89 -39 51 -112 80
-172 67z"/>
<path d="M4431 4590 c-93 -25 -325 -124 -369 -156 -113 -87 -65 -254 74 -254
21 0 73 16 123 39 118 53 229 92 235 82 6 -9 -67 -174 -114 -258 -18 -32 -73
-115 -122 -186 -95 -135 -108 -170 -88 -232 12 -36 109 -139 153 -161 12 -6
63 -14 112 -18 149 -11 357 -50 407 -77 15 -8 16 -13 3 -48 -7 -21 -64 -145
-125 -276 -98 -207 -112 -241 -106 -273 17 -105 135 -154 232 -97 37 22 50 40
102 142 76 152 165 366 193 468 45 165 2 277 -134 347 -46 23 -223 70 -353 92
-48 9 -89 18 -92 20 -2 3 22 47 55 98 72 112 112 194 147 307 70 220 52 357
-55 428 -37 24 -54 28 -123 30 -56 2 -104 -3 -155 -17z"/>
<path d="M3758 3697 c-50 -14 -63 -22 -116 -71 -73 -67 -104 -198 -63 -263 69
-109 212 -92 265 32 3 6 9 3 16 -5 32 -43 -39 -282 -89 -302 -111 -44 -197
-95 -252 -148 -94 -92 -113 -169 -63 -247 62 -95 181 -96 269 -3 44 47 114 79
241 110 179 44 219 77 219 184 0 53 -4 68 -27 98 l-27 36 14 68 c46 215 -28
415 -178 488 -64 31 -146 40 -209 23z"/>
<path d="M2520 3539 c-160 -36 -387 -123 -432 -166 -96 -92 -25 -263 110 -263
30 0 67 13 130 44 121 60 234 98 285 94 l42 -3 -3 -48 c-3 -69 -42 -179 -123
-346 -76 -158 -84 -201 -49 -259 11 -18 34 -41 50 -51 l31 -18 -34 -21 c-19
-11 -47 -37 -63 -58 -25 -32 -29 -46 -29 -103 0 -57 4 -72 30 -108 37 -53 99
-85 163 -86 27 0 102 17 177 40 162 50 322 89 331 80 4 -4 -14 -68 -41 -142
-38 -109 -46 -143 -40 -173 31 -166 225 -231 330 -111 37 41 128 305 146 418
19 129 -13 234 -97 311 -80 73 -118 85 -274 84 -120 0 -148 -4 -255 -33 -66
-19 -130 -36 -142 -38 -19 -4 -14 9 42 121 91 182 154 329 170 399 44 188 -17
340 -169 419 -33 18 -62 22 -141 24 -55 2 -120 -2 -145 -7z"/>
<path d="M1150 3284 c-112 -24 -259 -111 -307 -182 -71 -106 -9 -264 115 -291
30 -6 63 -7 87 -1 22 5 41 7 43 6 1 -2 -13 -95 -32 -207 -40 -237 -42 -255
-56 -454 -17 -257 4 -345 95 -397 34 -19 53 -23 121 -21 128 2 142 14 260 203
186 301 407 610 436 610 23 0 28 -209 9 -380 -7 -58 -30 -231 -52 -385 -38
-269 -39 -282 -23 -323 37 -98 175 -123 255 -46 l26 25 6 -43 c12 -84 178
-654 211 -723 69 -145 165 -214 308 -223 123 -7 247 33 328 107 22 20 55 48
73 63 26 21 42 49 67 115 77 209 162 349 257 425 66 52 110 36 268 -91 180
-145 270 -176 388 -131 72 27 165 115 186 175 8 22 27 54 43 70 72 73 85 138
58 271 -29 135 -37 268 -19 280 8 5 104 10 214 11 166 2 211 6 265 22 199 61
309 249 279 480 -12 95 -46 154 -113 196 -42 25 -59 30 -115 30 -125 0 -226
-83 -240 -198 l-6 -52 -160 -7 c-181 -7 -281 -26 -373 -70 -98 -48 -162 -133
-193 -258 -19 -76 -17 -351 3 -450 9 -41 15 -76 13 -78 -2 -2 -32 19 -67 46
-78 62 -176 115 -247 136 -191 56 -424 -44 -577 -247 -41 -54 -224 -409 -224
-434 0 -6 -12 -15 -27 -22 -24 -11 -29 -10 -45 9 -29 36 -104 303 -163 583
-14 66 -23 85 -54 116 -44 44 -112 67 -168 56 -51 -9 -107 -39 -132 -71 -27
-35 -27 -27 4 150 46 267 83 695 71 841 -10 125 -34 244 -59 289 -13 23 -44
55 -72 75 -48 32 -53 33 -125 29 -87 -5 -146 -31 -237 -104 -95 -76 -160 -143
-240 -246 -42 -54 -77 -98 -78 -98 -1 0 11 75 27 168 59 351 49 492 -42 583
-48 48 -118 80 -174 78 -17 0 -60 -7 -96 -15z"/>
</g>
</svg>
