<?xml version="1.0" standalone="no"?>
<!DOCTYPE svg PUBLIC "-//W3C//DTD SVG 20010904//EN"
 "http://www.w3.org/TR/2001/REC-SVG-20010904/DTD/svg10.dtd">
<svg version="1.0" xmlns="http://www.w3.org/2000/svg"
 width="600.000000pt" height="600.000000pt" viewBox="0 0 600.000000 600.000000"
 preserveAspectRatio="xMidYMid meet">
<metadata>
Created by potrace 1.15, written by Peter Selinger 2001-2017
</metadata>
<g transform="translate(0.000000,600.000000) scale(0.100000,-0.100000)"
fill="#16364b" stroke="none">
<path d="M2386 5389 c-26 -20 -26 -21 -26 -167 0 -385 -80 -578 -285 -688 -80
-43 -95 -57 -95 -95 0 -29 40 -69 69 -69 33 0 186 97 242 153 124 123 177 272
199 558 5 68 10 159 10 202 0 70 -3 81 -25 102 -30 30 -54 31 -89 4z"/>
<path d="M3519 5244 l-21 -46 31 -61 c63 -128 162 -224 240 -234 33 -5 44 -1
65 20 16 16 26 37 26 55 0 69 -132 262 -203 295 -19 9 -54 17 -77 17 -39 0
-42 -2 -61 -46z"/>
<path d="M3021 5106 c-88 -32 -160 -134 -169 -242 -6 -74 7 -113 50 -149 34
-29 90 -33 141 -11 94 40 187 172 187 267 0 108 -102 174 -209 135z m55 -181
c-14 -37 -70 -95 -91 -95 -9 0 6 53 27 91 21 38 70 75 77 58 2 -6 -4 -30 -13
-54z"/>
<path d="M4775 4740 c-11 -4 -29 -18 -40 -30 -19 -21 -20 -36 -20 -214 0 -209
13 -301 51 -378 29 -57 59 -79 117 -85 93 -9 146 66 154 217 6 111 -15 211
-67 317 -64 130 -138 196 -195 173z"/>
<path d="M2644 4229 c-18 -5 -46 -25 -63 -44 -26 -30 -31 -44 -31 -89 0 -42 6
-61 28 -92 80 -111 314 -156 489 -94 79 28 113 62 113 115 0 72 -33 99 -185
146 -212 66 -283 78 -351 58z"/>
<path d="M5280 3981 c-90 -29 -184 -103 -223 -176 -18 -33 -22 -56 -22 -140 0
-90 3 -106 29 -159 70 -142 169 -195 329 -175 128 16 226 79 283 181 26 48 29
62 29 143 0 78 -4 96 -27 140 -34 63 -74 105 -146 152 -53 35 -63 38 -142 40
-47 1 -96 -1 -110 -6z m139 -307 c8 -8 -37 -44 -55 -44 -22 0 -42 49 -25 60
13 8 67 -3 80 -16z"/>
<path d="M4223 3770 c-222 -46 -342 -265 -248 -451 49 -95 137 -143 262 -142
102 0 171 30 237 104 61 68 86 138 86 242 0 97 -13 151 -44 182 -50 50 -203
84 -293 65z m67 -274 c0 -8 -7 -22 -16 -30 -34 -35 -60 -10 -27 26 19 22 43
24 43 4z"/>
<path d="M1085 3482 c-111 -34 -170 -75 -222 -153 -21 -32 -27 -55 -31 -118
-6 -99 14 -169 71 -252 74 -109 183 -166 368 -193 53 -8 110 -21 126 -29 127
-66 227 -327 288 -754 30 -210 44 -262 95 -366 46 -92 106 -171 187 -248 144
-138 300 -200 608 -245 133 -19 234 -21 1045 -12 561 5 613 11 844 89 222 75
391 174 521 304 193 193 277 415 246 657 -42 333 -201 590 -434 702 -119 57
-213 78 -352 78 -207 0 -303 -39 -591 -242 -223 -158 -335 -204 -499 -203
-120 0 -198 23 -374 110 -118 58 -482 297 -706 463 -317 236 -455 304 -800
395 -134 36 -303 43 -390 17z m323 -348 c258 -58 399 -130 700 -358 211 -159
420 -307 516 -365 292 -177 612 -267 848 -241 226 26 337 77 585 271 175 137
260 172 408 172 146 0 249 -54 344 -180 124 -167 129 -388 13 -587 -67 -114
-158 -189 -337 -279 -135 -67 -359 -120 -573 -135 -217 -15 -1315 31 -1480 62
-117 22 -193 58 -249 120 -84 92 -98 134 -188 556 -100 465 -161 618 -303 752
-85 80 -170 123 -282 144 -47 9 -108 20 -137 25 -50 10 -103 40 -103 60 0 17
123 9 238 -17z"/>
<path d="M2226 2319 c-15 -12 -26 -30 -26 -44 0 -28 43 -65 75 -65 25 0 49 24
59 57 5 17 1 29 -18 48 -31 30 -55 32 -90 4z"/>
<path d="M2872 2074 c-37 -26 -27 -76 19 -100 62 -32 118 47 69 96 -24 24 -57
26 -88 4z"/>
<path d="M3446 3388 c-37 -21 -67 -64 -126 -181 -37 -73 -60 -131 -60 -151 0
-56 57 -88 109 -62 56 30 167 212 184 304 14 73 -47 125 -107 90z"/>
<path d="M460 2034 c-30 -35 -16 -71 57 -151 83 -93 148 -140 207 -148 92 -14
143 52 99 127 -32 54 -261 188 -322 188 -15 0 -34 -7 -41 -16z"/>
<path d="M5365 1113 c-35 -9 -52 -33 -75 -104 -28 -85 -23 -140 14 -178 35
-35 94 -35 131 -1 45 42 59 79 59 162 1 65 -2 81 -20 98 -21 21 -74 33 -109
23z"/>
</g>
</svg>
