<?xml version="1.0" standalone="no"?>
<!DOCTYPE svg PUBLIC "-//W3C//DTD SVG 20010904//EN"
 "http://www.w3.org/TR/2001/REC-SVG-20010904/DTD/svg10.dtd">
<svg version="1.0" xmlns="http://www.w3.org/2000/svg"
 width="600.000000pt" height="600.000000pt" viewBox="0 0 600.000000 600.000000"
 preserveAspectRatio="xMidYMid meet">
<metadata>
Created by potrace 1.15, written by Peter Selinger 2001-2017
</metadata>
<g transform="translate(0.000000,600.000000) scale(0.100000,-0.100000)"
fill="#16364b" stroke="none">
<path d="M2371 5389 c-18 -20 -20 -36 -19 -213 0 -186 -8 -270 -37 -369 -35
-119 -120 -219 -236 -277 -35 -18 -72 -39 -81 -48 -22 -19 -23 -75 -2 -96 34
-34 64 -32 154 15 98 51 209 154 252 234 66 123 98 314 98 581 0 128 -2 144
-21 168 -26 33 -79 36 -108 5z"/>
<path d="M3533 5290 c-25 -10 -53 -58 -53 -91 0 -41 62 -150 122 -214 87 -93
164 -113 224 -58 24 22 26 30 22 77 -3 42 -14 67 -51 123 -49 74 -113 138
-150 152 -40 15 -92 20 -114 11z"/>
<path d="M3000 5122 c-82 -40 -148 -136 -157 -227 -8 -75 3 -120 38 -154 56
-56 132 -50 222 18 95 71 142 235 92 318 -36 60 -124 80 -195 45z m65 -162
c-8 -35 -62 -103 -75 -95 -14 9 13 73 44 106 33 35 41 32 31 -11z"/>
<path d="M4749 4731 l-32 -32 6 -157 c8 -222 42 -365 105 -436 63 -71 184 -55
235 32 62 106 2 353 -127 520 -59 77 -77 92 -119 99 -31 5 -40 1 -68 -26z"/>
<path d="M2657 4229 c-41 -12 -94 -59 -108 -96 -45 -119 60 -242 234 -274 76
-14 149 -3 231 34 103 48 145 108 125 180 -14 52 -44 71 -182 116 -138 44
-237 57 -300 40z"/>
<path d="M5235 3967 c-86 -29 -134 -67 -171 -137 -15 -28 -19 -57 -19 -140 0
-93 3 -112 27 -162 36 -77 106 -151 170 -178 71 -31 209 -26 283 10 115 56
187 165 193 290 6 126 -43 207 -172 282 -69 41 -74 42 -171 45 -63 2 -115 -2
-140 -10z m182 -301 c10 -10 -29 -46 -48 -46 -18 0 -39 27 -39 51 0 12 75 8
87 -5z"/>
<path d="M4193 3746 c-139 -45 -233 -175 -233 -320 0 -50 6 -75 31 -125 53
-105 145 -156 271 -150 130 7 239 83 296 207 38 82 44 220 13 281 -19 36 -33
48 -97 78 -62 29 -88 36 -156 39 -53 3 -98 -1 -125 -10z m117 -278 c0 -16 -31
-48 -47 -48 -18 0 -17 25 3 44 18 19 44 21 44 4z"/>
<path d="M3436 3359 c-37 -29 -169 -295 -160 -323 12 -39 35 -56 76 -56 34 0
46 7 92 53 65 64 118 168 124 242 4 47 1 57 -21 79 -32 32 -74 34 -111 5z"/>
<path d="M1010 3342 c-118 -39 -238 -143 -288 -250 -23 -49 -27 -70 -27 -147
0 -82 3 -97 33 -157 58 -118 176 -213 312 -252 30 -8 106 -20 168 -25 145 -12
202 -37 261 -116 84 -111 128 -222 197 -495 86 -341 132 -446 246 -566 58 -61
88 -83 162 -119 156 -77 227 -88 686 -110 173 -9 380 -23 460 -32 275 -31 608
-11 1045 63 349 58 698 232 816 406 190 280 229 682 94 975 -42 92 -79 144
-151 217 -215 215 -418 286 -699 242 -225 -34 -397 -106 -595 -249 -211 -151
-248 -170 -368 -186 -124 -16 -257 16 -434 105 -108 54 -121 62 -353 224 -464
324 -664 403 -1175 466 -209 26 -324 27 -390 6z m420 -388 c372 -52 474 -95
890 -373 146 -97 286 -189 312 -204 175 -101 384 -184 521 -208 110 -18 286
-7 376 25 122 43 227 98 397 210 171 112 259 153 401 187 170 41 297 9 420
-104 68 -64 104 -128 127 -227 41 -172 -5 -390 -105 -505 -46 -52 -233 -158
-354 -202 -172 -61 -676 -113 -966 -99 -79 4 -241 11 -359 16 -650 26 -782 43
-878 108 -84 57 -111 114 -197 419 -110 388 -201 580 -338 713 -111 108 -226
160 -408 184 -104 13 -153 30 -178 60 -11 13 -11 17 0 20 52 18 79 16 339 -20z"/>
<path d="M445 2045 c-34 -33 -32 -70 5 -107 17 -16 30 -32 30 -35 0 -17 86
-114 120 -137 56 -37 122 -52 160 -36 88 36 76 121 -28 203 -75 58 -213 137
-241 137 -12 0 -33 -11 -46 -25z"/>
<path d="M5307 1099 c-43 -25 -74 -134 -57 -198 22 -82 120 -109 179 -50 37
37 46 64 46 147 0 57 -3 66 -28 88 -21 18 -40 24 -75 24 -26 0 -55 -5 -65 -11z"/>
</g>
</svg>
