<?xml version="1.0" standalone="no"?>
<!DOCTYPE svg PUBLIC "-//W3C//DTD SVG 20010904//EN"
 "http://www.w3.org/TR/2001/REC-SVG-20010904/DTD/svg10.dtd">
<svg version="1.0" xmlns="http://www.w3.org/2000/svg"
 width="600.000000pt" height="600.000000pt" viewBox="0 0 600.000000 600.000000"
 preserveAspectRatio="xMidYMid meet">
<metadata>
Created by potrace 1.15, written by Peter Selinger 2001-2017
</metadata>
<g transform="translate(0.000000,600.000000) scale(0.100000,-0.100000)"
fill="#16364b" stroke="none">
<path d="M1767 5806 c-72 -26 -88 -50 -149 -221 -115 -321 -152 -533 -111
-627 29 -65 81 -101 153 -106 71 -5 110 7 191 59 75 49 250 217 372 358 122
142 137 184 97 265 -27 54 -62 78 -121 84 -84 8 -95 -1 -296 -237 -33 -38 -29
-13 17 124 22 65 40 137 40 160 0 59 -29 106 -80 133 -51 25 -61 26 -113 8z"/>
<path d="M3040 5668 c-66 -45 -90 -141 -51 -204 10 -17 63 -62 117 -99 239
-165 465 -395 490 -498 l6 -28 -49 7 c-90 11 -153 -45 -153 -137 0 -98 68
-150 198 -152 90 0 148 21 200 73 101 100 114 246 37 405 -68 139 -167 247
-410 446 -233 190 -261 209 -309 209 -28 0 -54 -8 -76 -22z"/>
<path d="M901 5445 c-75 -21 -143 -60 -200 -115 -102 -97 -145 -205 -139 -342
4 -75 9 -96 41 -160 40 -80 105 -155 175 -199 108 -69 232 -9 232 111 0 50
-24 93 -78 138 -77 64 -91 134 -41 203 29 41 54 52 136 59 90 8 136 36 159 97
28 72 -4 155 -74 196 -44 26 -142 31 -211 12z"/>
<path d="M2945 5166 c-27 -12 -69 -44 -93 -70 -139 -151 -129 -342 22 -412 86
-40 266 -27 336 24 14 10 33 35 44 56 17 35 18 47 8 135 -19 160 -54 231 -135
270 -57 28 -119 27 -182 -3z"/>
<path d="M4765 4864 c-80 -42 -101 -95 -91 -236 14 -204 57 -328 146 -422 63
-66 131 -98 210 -98 160 0 281 134 267 298 -13 165 -153 326 -384 443 -70 35
-104 38 -148 15z"/>
<path d="M2035 4826 c-125 -30 -185 -82 -193 -166 -10 -110 89 -184 197 -146
73 26 85 23 99 -30 33 -122 176 -165 259 -78 39 42 50 101 34 181 -38 190
-199 287 -396 239z"/>
<path d="M2895 4084 c-94 -23 -153 -58 -196 -117 -24 -33 -29 -50 -29 -99 0
-109 66 -185 200 -229 141 -47 615 -33 689 21 64 45 81 137 38 201 -27 41
-208 138 -351 189 -80 29 -105 33 -211 36 -66 1 -129 1 -140 -2z"/>
<path d="M1137 4059 c-136 -9 -188 -28 -225 -83 -52 -77 -49 -155 10 -222 48
-54 82 -68 166 -66 55 0 71 -2 64 -11 -42 -53 -140 -189 -192 -267 -35 -52
-102 -147 -150 -210 -103 -137 -198 -278 -230 -340 -49 -95 -18 -210 70 -259
37 -21 51 -23 112 -18 44 4 87 15 115 29 49 26 457 301 576 390 l78 58 29 -22
c30 -22 50 -83 50 -151 0 -49 -27 -164 -55 -237 -77 -202 -304 -508 -469 -634
-66 -50 -84 -127 -43 -187 52 -79 146 -89 242 -25 102 67 295 278 406 443 58
86 156 284 189 383 32 96 50 187 50 261 0 60 3 68 25 83 38 25 49 55 47 131
-8 271 -55 381 -178 414 -83 22 -171 -11 -363 -136 -46 -30 -85 -53 -86 -51
-2 2 37 57 85 123 121 163 154 229 158 321 5 89 -8 129 -58 187 -58 66 -118
88 -270 101 -19 1 -88 -1 -153 -5z"/>
<path d="M4274 3780 c-128 -19 -223 -71 -289 -161 -50 -68 -69 -129 -63 -201
9 -103 76 -191 176 -229 80 -30 213 -24 292 12 109 51 189 146 239 284 49 135
37 221 -36 258 -56 28 -235 49 -319 37z m7 -310 c-25 -21 -51 -26 -51 -10 0
13 31 29 55 29 19 0 19 -1 -4 -19z"/>
<path d="M3372 3403 c-49 -24 -105 -93 -158 -196 -57 -110 -63 -163 -23 -221
33 -49 80 -70 170 -74 62 -3 83 0 116 16 46 24 94 75 123 131 27 53 43 160 31
211 -26 115 -158 183 -259 133z"/>
<path d="M5015 3193 c-110 -59 -218 -171 -272 -280 -33 -66 -37 -85 -37 -147
0 -60 4 -79 26 -117 72 -123 259 -153 420 -67 108 57 162 153 163 288 0 108
-22 170 -91 255 -70 84 -138 106 -209 68z"/>
<path d="M3879 2562 c-118 -62 -143 -175 -81 -363 18 -53 32 -101 32 -107 0
-8 -13 -6 -41 3 -99 35 -228 4 -282 -67 -47 -61 -60 -106 -60 -198 1 -99 17
-172 78 -367 78 -245 101 -298 151 -342 132 -116 329 -54 374 118 6 24 9 58 6
76 l-6 31 65 -4 c55 -4 73 0 127 25 117 56 196 162 206 279 6 77 -21 170 -85
298 -62 124 -106 239 -143 381 -39 145 -48 163 -102 209 -73 63 -154 72 -239
28z"/>
<path d="M2027 2336 c-79 -29 -152 -95 -274 -248 -38 -47 -75 -99 -83 -115 -8
-15 -32 -50 -52 -76 -61 -78 -126 -221 -160 -352 -30 -115 -32 -129 -32 -310
0 -163 3 -201 22 -267 51 -186 124 -310 237 -400 106 -86 283 -164 450 -199
95 -21 375 -18 454 4 138 39 272 128 358 237 24 30 61 76 83 102 105 122 226
401 316 728 19 68 37 154 40 190 15 156 -71 322 -200 385 -113 55 -176 46
-465 -66 -112 -44 -205 -78 -206 -77 -1 2 -10 29 -19 61 -9 32 -40 106 -68
164 -84 176 -176 253 -303 252 -33 0 -77 -6 -98 -13z m78 -468 c9 -18 23 -73
31 -123 27 -156 53 -208 133 -262 62 -43 92 -53 157 -53 48 0 88 14 301 105
134 58 251 105 259 105 17 0 12 -30 -26 -155 -66 -214 -194 -515 -220 -515 -5
0 -22 -19 -38 -42 -103 -148 -243 -216 -428 -205 -140 8 -260 62 -355 160 -49
51 -73 94 -93 173 -53 206 -16 432 102 613 23 35 42 68 42 72 0 8 110 159 115
159 2 0 11 -15 20 -32z"/>
</g>
</svg>
