<?xml version="1.0" standalone="no"?>
<!DOCTYPE svg PUBLIC "-//W3C//DTD SVG 20010904//EN"
 "http://www.w3.org/TR/2001/REC-SVG-20010904/DTD/svg10.dtd">
<svg version="1.0" xmlns="http://www.w3.org/2000/svg"
 width="600.000000pt" height="600.000000pt" viewBox="0 0 600.000000 600.000000"
 preserveAspectRatio="xMidYMid meet">
<metadata>
Created by potrace 1.15, written by Peter Selinger 2001-2017
</metadata>
<g transform="translate(0.000000,600.000000) scale(0.100000,-0.100000)"
fill="#16364b" stroke="none">
<path d="M2250 5448 c-50 -26 -79 -74 -105 -174 -49 -190 32 -336 200 -358 28
-4 103 0 170 9 140 17 135 17 135 8 0 -5 -38 -66 -85 -138 -85 -128 -207 -363
-241 -460 -29 -85 0 -161 72 -191 l33 -14 -24 -36 c-49 -72 -31 -172 38 -214
43 -27 99 -25 188 6 126 43 424 122 583 154 83 17 161 38 174 46 13 9 33 36
44 61 23 51 19 98 -13 150 -20 33 -90 73 -126 73 -48 0 -233 -45 -454 -110
-248 -74 -268 -78 -251 -57 5 6 34 66 64 132 30 66 94 185 143 265 147 242
174 291 186 348 37 181 -104 327 -299 309 -36 -4 -102 -14 -149 -23 -46 -9
-86 -14 -89 -11 -3 3 0 15 6 27 18 33 14 106 -7 143 -19 33 -92 77 -128 77
-11 0 -41 -10 -65 -22z"/>
<path d="M3815 5111 c-88 -22 -193 -66 -222 -93 -71 -66 -44 -186 51 -229 57
-26 87 -24 169 13 44 19 89 32 117 32 l45 1 3 -64 c4 -76 -19 -158 -84 -308
-24 -56 -44 -112 -44 -124 0 -47 39 -107 84 -128 50 -25 75 -26 120 -7 45 19
66 52 124 192 76 186 86 231 87 369 0 112 -2 124 -29 183 -72 155 -222 213
-421 163z"/>
<path d="M1733 4936 c-146 -28 -290 -91 -456 -199 -67 -44 -88 -64 -106 -99
-36 -76 -21 -166 35 -203 13 -8 24 -25 24 -36 0 -30 28 -74 60 -93 16 -9 81
-25 147 -36 158 -27 342 -74 395 -101 24 -12 62 -35 84 -51 100 -72 218 -28
245 90 13 57 -5 105 -56 150 -80 71 -191 119 -435 190 l-65 19 83 26 c58 19
105 27 155 27 84 0 137 24 173 78 53 78 30 185 -47 224 -48 25 -148 30 -236
14z"/>
<path d="M4324 4242 c-74 -11 -131 -24 -147 -35 -92 -60 -88 -199 5 -258 29
-18 44 -20 123 -15 271 17 365 19 381 5 27 -22 14 -195 -27 -344 -44 -164 -46
-196 -18 -241 49 -80 157 -93 228 -28 38 33 50 63 103 254 8 28 12 111 12 220
1 159 -2 180 -22 232 -40 100 -101 161 -201 200 -76 29 -269 34 -437 10z"/>
<path d="M2105 3889 c-155 -51 -295 -79 -397 -79 -108 0 -156 -11 -197 -46
-39 -32 -65 -102 -57 -148 9 -49 62 -101 116 -116 131 -36 605 45 721 123 43
29 59 60 59 121 0 82 -54 152 -130 169 -15 3 -62 -6 -115 -24z"/>
<path d="M3722 3754 c-61 -16 -73 -22 -241 -118 -69 -40 -176 -99 -238 -130
-88 -45 -117 -65 -135 -93 -29 -48 -30 -122 -2 -160 67 -89 130 -92 295 -12
64 31 143 75 175 96 33 22 69 45 82 52 l22 12 -25 -67 c-14 -37 -41 -103 -61
-147 -27 -60 -35 -88 -31 -113 18 -107 153 -158 236 -88 45 38 195 421 208
531 13 113 -52 217 -149 241 -57 15 -69 14 -136 -4z"/>
<path d="M2182 3264 c-145 -18 -159 -22 -197 -55 -66 -58 -70 -143 -10 -204
42 -42 80 -50 194 -41 211 16 268 18 274 9 3 -5 -1 -36 -10 -69 -21 -78 -12
-124 32 -169 64 -64 165 -67 225 -7 67 67 97 279 54 372 -39 84 -124 146 -232
169 -68 14 -199 12 -330 -5z"/>
<path d="M4262 3213 c-12 -2 -66 -48 -120 -102 -111 -110 -223 -188 -332 -230
-76 -30 -208 -61 -255 -61 -79 0 -155 -90 -140 -168 15 -80 83 -132 174 -132
73 0 233 33 328 68 159 59 335 168 459 285 84 79 98 107 92 181 -9 106 -105
180 -206 159z"/>
<path d="M4920 3177 c-19 -6 -58 -34 -87 -62 -62 -61 -75 -99 -71 -226 l2 -92
-34 -29 c-19 -17 -73 -55 -119 -86 -200 -133 -272 -242 -301 -455 -23 -176 -8
-320 46 -434 65 -138 177 -191 307 -147 57 19 122 89 138 148 15 56 3 142 -26
192 -42 71 -31 178 24 237 14 16 73 61 131 100 123 84 214 172 252 243 91 169
71 469 -38 566 -56 50 -149 69 -224 45z"/>
<path d="M1219 3040 c-74 -39 -119 -115 -119 -201 0 -33 44 -139 58 -139 4 -1
20 -11 36 -24 l28 -24 9 -218 c12 -331 38 -488 103 -629 65 -140 186 -199 302
-146 96 44 128 143 79 248 -30 64 -65 160 -65 177 0 6 9 -3 19 -20 28 -46 77
-77 130 -81 61 -5 103 21 135 84 32 65 111 168 146 193 l29 21 22 -46 c12 -25
30 -51 40 -58 17 -13 17 -17 -11 -100 -47 -141 -56 -253 -37 -436 19 -171 33
-212 87 -248 65 -45 163 -22 204 48 19 32 20 71 4 206 -10 90 -9 113 6 185 10
46 29 112 43 148 15 35 29 79 34 98 9 44 -7 100 -39 134 -21 23 -25 38 -26 85
-3 151 -136 297 -285 310 -159 15 -316 -107 -456 -353 -25 -43 -45 -88 -45
-99 -1 -16 -2 -17 -9 -5 -13 23 -21 117 -31 357 -11 286 -33 379 -109 465 -70
81 -200 112 -282 68z"/>
<path d="M3478 2239 c-38 -5 -137 -24 -220 -43 -84 -19 -231 -51 -326 -70 -95
-20 -186 -43 -201 -51 -68 -34 -106 -113 -99 -200 8 -97 89 -165 196 -165 28
0 169 27 314 60 263 59 426 90 483 90 23 0 35 -7 48 -30 10 -16 39 -42 65 -57
38 -22 59 -28 107 -28 199 2 272 215 128 375 -87 97 -295 147 -495 119z"/>
<path d="M4513 1565 c-23 -7 -67 -35 -98 -62 -79 -71 -103 -76 -319 -68 -208
8 -283 -3 -422 -60 -105 -43 -171 -83 -258 -154 -72 -59 -183 -177 -205 -218
-6 -13 -19 -23 -29 -23 -28 -1 -95 -35 -132 -69 -19 -17 -60 -44 -90 -59 -47
-23 -67 -27 -141 -27 -78 0 -91 3 -160 37 -90 45 -189 132 -268 237 -78 104
-109 124 -187 119 -107 -7 -174 -73 -182 -178 -5 -68 19 -123 94 -221 156
-203 300 -307 494 -355 57 -15 110 -19 225 -18 144 0 154 1 235 32 98 37 206
113 258 182 25 33 46 48 77 58 30 8 71 37 135 96 102 93 202 155 312 193 66
23 95 26 293 33 240 9 272 15 396 82 72 38 175 135 195 183 8 19 14 58 14 86
0 124 -119 211 -237 174z"/>
</g>
</svg>
