<?xml version="1.0" standalone="no"?>
<!DOCTYPE svg PUBLIC "-//W3C//DTD SVG 20010904//EN"
 "http://www.w3.org/TR/2001/REC-SVG-20010904/DTD/svg10.dtd">
<svg version="1.0" xmlns="http://www.w3.org/2000/svg"
 width="600.000000pt" height="600.000000pt" viewBox="0 0 600.000000 600.000000"
 preserveAspectRatio="xMidYMid meet">
<metadata>
Created by potrace 1.15, written by Peter Selinger 2001-2017
</metadata>
<g transform="translate(0.000000,600.000000) scale(0.100000,-0.100000)"
fill="#16364b" stroke="none">
<path d="M2022 5025 c-69 -19 -86 -29 -139 -78 -53 -49 -77 -92 -93 -169 -10
-50 -9 -73 9 -165 27 -142 39 -296 46 -588 3 -132 10 -298 15 -370 5 -71 9
-346 10 -611 l0 -480 -111 -135 c-60 -74 -158 -195 -217 -269 -59 -74 -114
-135 -122 -135 -10 0 -14 -9 -13 -27 1 -23 -2 -28 -23 -28 -27 0 -31 -19 -12
-50 11 -16 9 -22 -6 -33 -27 -20 -11 -40 25 -33 27 5 28 4 23 -23 -3 -16 -2
-31 3 -34 13 -8 125 92 120 106 -3 11 114 162 258 334 l60 71 7 -161 c4 -89
12 -200 19 -247 33 -237 154 -436 336 -554 81 -52 197 -101 277 -118 l54 -10
5 -187 c5 -197 21 -314 64 -461 14 -47 28 -93 30 -102 5 -16 -4 -18 -81 -18
-52 0 -100 -6 -121 -14 -85 -36 -91 -142 -10 -181 43 -20 175 -20 244 1 63 18
125 72 142 121 14 44 7 93 -26 167 -61 138 -99 359 -93 546 l3 105 110 -5 c61
-3 284 -5 496 -5 l386 0 -5 -111 c-4 -96 -1 -128 23 -235 15 -68 45 -176 66
-240 21 -64 39 -121 39 -126 0 -6 -40 -12 -95 -15 -76 -3 -100 -8 -122 -24
-62 -46 -56 -132 12 -172 35 -20 49 -23 115 -18 83 5 131 22 179 62 68 57 79
136 35 251 -88 232 -125 470 -93 598 l11 43 81 11 c142 20 361 60 412 76 116
34 249 144 313 258 93 166 107 314 61 647 -27 197 -96 314 -254 431 -46 34
-83 64 -82 66 4 3 198 -32 297 -53 41 -9 79 -23 85 -31 9 -12 22 -12 82 -2 65
11 97 29 74 43 -5 3 -7 28 -5 56 4 49 3 50 -23 50 -44 0 -73 11 -73 26 0 22
-29 29 -43 11 -11 -15 -19 -15 -82 -1 -115 25 -473 92 -577 109 -92 14 -103
19 -195 78 -54 35 -172 117 -263 181 -91 65 -248 167 -350 228 -102 61 -215
134 -251 163 -225 181 -386 479 -599 1105 -56 166 -82 219 -136 279 -80 89
-202 126 -312 96z m137 -149 c66 -35 105 -98 159 -261 22 -67 94 -268 150
-420 51 -139 178 -392 254 -505 122 -183 200 -250 498 -430 181 -110 260 -161
555 -364 83 -57 238 -159 345 -227 322 -203 369 -242 424 -355 40 -81 58 -195
60 -369 1 -124 -2 -160 -18 -205 -45 -131 -115 -225 -204 -273 -59 -32 -373
-100 -542 -117 -364 -36 -1146 -14 -1353 39 -106 28 -190 74 -263 146 -103
102 -158 226 -190 430 -15 98 -17 177 -13 700 6 820 6 831 -9 1200 -16 412
-29 606 -48 710 -35 190 -27 244 45 292 40 27 107 31 150 9z"/>
<path d="M2640 2747 c-50 -25 -34 -93 27 -111 52 -16 87 76 41 108 -27 19 -35
19 -68 3z"/>
<path d="M3082 2614 c-33 -23 -26 -62 17 -91 41 -28 43 -28 69 -5 34 29 37 58
8 87 -29 29 -62 32 -94 9z"/>
<path d="M5259 3971 c-157 -50 -257 -184 -247 -331 12 -171 155 -310 320 -310
132 0 243 69 308 192 29 54 35 75 38 149 3 51 0 101 -7 122 -20 58 -68 116
-134 157 -59 38 -66 40 -142 39 -48 0 -102 -7 -136 -18z m136 -302 c7 -7 3
-16 -14 -30 -39 -32 -61 -20 -61 33 0 18 4 20 32 14 18 -3 37 -11 43 -17z"/>
<path d="M5360 1108 c-36 -19 -67 -72 -80 -134 -20 -95 15 -154 91 -154 75 0
128 78 129 186 0 44 -5 68 -18 84 -21 26 -87 36 -122 18z"/>
</g>
</svg>
