<?xml version="1.0" standalone="no"?>
<!DOCTYPE svg PUBLIC "-//W3C//DTD SVG 20010904//EN"
 "http://www.w3.org/TR/2001/REC-SVG-20010904/DTD/svg10.dtd">
<svg version="1.0" xmlns="http://www.w3.org/2000/svg"
 width="600.000000pt" height="600.000000pt" viewBox="0 0 600.000000 600.000000"
 preserveAspectRatio="xMidYMid meet">
<metadata>
Created by potrace 1.15, written by Peter Selinger 2001-2017
</metadata>
<g transform="translate(0.000000,600.000000) scale(0.100000,-0.100000)"
fill="#16364b" stroke="none">
<path d="M1538 5755 c-35 -20 -49 -48 -81 -160 -42 -147 -51 -203 -51 -335 -1
-110 2 -131 22 -177 55 -120 159 -153 264 -83 51 34 121 121 286 357 103 148
122 181 122 213 0 71 -66 118 -141 101 -64 -15 -57 -6 -258 -291 l-53 -75 5
50 c3 28 22 101 41 161 45 140 46 164 3 210 -28 31 -41 37 -83 40 -32 3 -58
-1 -76 -11z"/>
<path d="M853 5516 c-132 -43 -257 -177 -298 -320 -36 -124 1 -263 92 -347 77
-71 144 -86 204 -46 42 28 59 60 59 111 0 34 -7 45 -55 91 -48 47 -55 58 -55
92 0 50 36 108 90 144 51 35 78 36 146 8 59 -25 88 -21 132 16 37 31 47 70 33
122 -12 45 -48 82 -111 114 -56 28 -174 36 -237 15z"/>
<path d="M3375 5407 c-29 -29 -35 -42 -35 -76 0 -61 23 -97 85 -132 30 -17 57
-35 60 -40 3 -4 -1 -22 -10 -38 -31 -61 -8 -132 71 -220 112 -125 269 -135
326 -21 68 135 -68 365 -298 505 -50 30 -95 50 -121 53 -38 4 -46 1 -78 -31z"/>
<path d="M2310 5223 c-56 -29 -70 -70 -70 -199 0 -249 -39 -323 -217 -406
-101 -47 -127 -79 -120 -148 4 -35 13 -51 41 -77 55 -50 103 -47 236 18 86 43
118 65 175 123 117 118 144 196 152 431 4 141 2 164 -14 194 -37 70 -117 98
-183 64z"/>
<path d="M2960 5133 c-28 -10 -64 -36 -97 -69 -140 -144 -117 -357 44 -399 82
-21 226 16 286 73 64 61 77 250 24 331 -50 76 -151 101 -257 64z"/>
<path d="M4750 4798 c-72 -37 -82 -66 -77 -228 4 -109 10 -150 31 -217 32
-100 90 -188 151 -232 221 -159 488 18 421 279 -38 149 -158 276 -351 374 -96
49 -120 52 -175 24z m251 -440 c5 -10 6 -18 1 -18 -5 0 -14 11 -20 25 -22 49
-11 44 19 -7z"/>
<path d="M2763 4180 c-128 -26 -215 -123 -215 -239 0 -70 18 -116 68 -171 70
-77 195 -120 296 -101 100 18 158 46 280 134 74 53 108 107 108 171 0 81 -44
125 -166 165 -145 48 -266 61 -371 41z"/>
<path d="M1041 4059 c-55 -38 -75 -72 -75 -129 0 -86 53 -136 160 -151 38 -5
93 -16 123 -25 53 -15 53 -15 35 -36 -34 -38 -195 -136 -351 -214 -163 -81
-184 -100 -198 -175 -9 -51 23 -122 67 -149 42 -26 121 -26 180 -1 98 42 143
64 233 116 52 30 97 55 100 55 3 0 5 -11 5 -24 0 -28 35 -82 72 -110 42 -30
115 -27 167 7 48 32 53 33 75 8 9 -10 45 -31 79 -47 169 -76 321 -4 319 151
-1 101 -58 184 -162 234 -49 23 -67 26 -168 26 -103 0 -127 5 -103 19 18 12
44 134 37 179 -8 54 -52 125 -98 160 -82 63 -237 112 -387 123 -69 6 -79 4
-110 -17z"/>
<path d="M4185 3765 c-160 -41 -249 -151 -250 -310 0 -68 4 -89 28 -137 56
-115 161 -175 288 -166 169 12 308 150 360 358 50 195 -9 254 -261 265 -74 3
-123 0 -165 -10z m83 -301 c-18 -19 -32 -25 -45 -20 -17 7 -16 9 6 27 13 10
33 19 44 19 21 0 20 -1 -5 -26z"/>
<path d="M5125 3470 c-147 -57 -258 -160 -300 -280 -24 -69 -22 -175 5 -238
44 -102 130 -148 258 -139 134 9 256 82 322 193 33 55 35 63 35 149 0 104 -13
137 -98 244 -74 92 -124 108 -222 71z"/>
<path d="M3435 3362 c-22 -11 -54 -35 -72 -53 -41 -43 -130 -191 -142 -236
-14 -50 6 -102 49 -131 31 -21 42 -23 95 -17 105 11 179 63 228 160 24 47 41
146 33 188 -17 89 -105 130 -191 89z"/>
<path d="M2445 3120 c-69 -10 -141 -49 -196 -107 -63 -66 -79 -92 -128 -207
-67 -158 -100 -198 -241 -289 -95 -62 -242 -205 -313 -307 -162 -231 -247
-528 -218 -758 25 -196 151 -395 333 -525 330 -236 757 -233 1093 8 186 133
284 267 386 529 87 220 115 384 106 616 -12 291 -62 436 -206 595 -42 46 -94
109 -116 141 -57 82 -177 207 -233 243 -85 54 -172 74 -267 61z m115 -452 c23
-29 48 -68 56 -87 8 -19 52 -73 97 -120 123 -128 134 -159 144 -418 9 -234
-11 -339 -102 -528 -119 -250 -300 -385 -515 -385 -188 0 -405 122 -477 268
-26 53 -28 65 -28 182 1 112 4 133 29 200 69 183 129 255 362 437 159 123 243
230 323 406 24 53 50 97 57 97 7 0 31 -24 54 -52z"/>
<path d="M711 2573 c-49 -26 -74 -64 -74 -113 0 -54 23 -84 93 -122 198 -108
300 -206 335 -323 20 -64 6 -122 -31 -131 -72 -18 -193 100 -279 274 -38 79
-69 102 -130 102 -74 0 -125 -51 -125 -125 0 -118 227 -407 383 -487 54 -28
72 -32 142 -32 64 -1 88 4 122 22 57 30 107 82 141 145 25 48 27 60 27 173 l0
121 -43 87 c-68 137 -200 267 -379 372 -91 54 -134 63 -182 37z"/>
<path d="M4235 2186 c-43 -18 -102 -88 -116 -136 -10 -31 -16 -39 -28 -34
-109 47 -211 12 -263 -89 -18 -35 -20 -53 -15 -122 6 -82 67 -336 92 -385 21
-40 70 -78 118 -91 23 -6 54 -22 70 -35 106 -89 271 -28 341 126 38 83 49 174
48 398 -1 227 -12 289 -59 334 -50 48 -125 61 -188 34z"/>
</g>
</svg>
