<?xml version="1.0" standalone="no"?>
<!DOCTYPE svg PUBLIC "-//W3C//DTD SVG 20010904//EN"
 "http://www.w3.org/TR/2001/REC-SVG-20010904/DTD/svg10.dtd">
<svg version="1.0" xmlns="http://www.w3.org/2000/svg"
 width="600.000000pt" height="600.000000pt" viewBox="0 0 600.000000 600.000000"
 preserveAspectRatio="xMidYMid meet">
<metadata>
Created by potrace 1.15, written by Peter Selinger 2001-2017
</metadata>
<g transform="translate(0.000000,600.000000) scale(0.100000,-0.100000)"
fill="#16364b" stroke="none">
<path d="M2293 5469 c-41 -12 -76 -55 -103 -125 -64 -173 -49 -310 44 -391 19
-17 52 -37 73 -44 53 -19 178 -15 297 10 55 11 101 19 103 18 1 -2 -61 -109
-138 -238 -149 -247 -223 -390 -234 -451 -5 -28 -2 -48 15 -83 13 -26 28 -49
35 -51 8 -3 10 -22 7 -58 -5 -58 9 -95 52 -135 44 -41 96 -38 326 17 257 63
283 68 456 91 101 13 149 24 168 37 88 65 70 221 -31 266 -45 20 -49 20 -172
4 -69 -8 -220 -38 -336 -65 -115 -27 -212 -47 -215 -44 -11 10 100 205 197
345 192 280 233 357 233 443 0 88 -51 170 -133 212 -47 25 -62 27 -152 27 -73
0 -130 -7 -210 -27 -60 -14 -111 -24 -113 -22 -2 2 4 24 13 49 12 30 16 60 12
86 -5 41 -44 102 -75 119 -29 15 -85 20 -119 10z"/>
<path d="M3893 5035 c-61 -17 -139 -55 -201 -97 -125 -86 -100 -262 42 -285
28 -4 52 3 123 37 68 34 99 43 143 44 l55 1 3 -48 c4 -63 -24 -163 -92 -324
-31 -73 -56 -146 -56 -163 0 -41 33 -104 68 -129 16 -11 48 -23 71 -27 36 -6
41 -10 41 -34 0 -43 41 -111 80 -131 42 -23 84 -24 226 -4 123 18 293 24 312
12 31 -21 6 -228 -53 -421 -39 -129 -41 -145 -21 -184 40 -77 119 -102 200
-63 56 28 80 73 130 247 45 157 59 259 55 392 -4 97 -7 115 -34 167 -60 118
-153 159 -355 158 -120 -1 -351 -18 -397 -30 -32 -7 -30 5 25 137 84 198 96
248 97 390 0 124 0 126 -34 188 -63 115 -156 172 -294 178 -53 3 -101 -1 -134
-11z"/>
<path d="M1733 4946 c-186 -35 -365 -123 -521 -254 -63 -53 -82 -86 -82 -144
0 -43 8 -60 67 -142 44 -61 69 -74 199 -100 250 -51 378 -98 459 -171 44 -39
102 -59 144 -50 95 21 156 129 122 218 -32 83 -214 192 -407 242 -54 14 -100
27 -102 30 -7 6 69 42 127 59 30 9 73 16 95 16 160 1 247 187 129 277 -43 33
-120 39 -230 19z"/>
<path d="M2090 3903 c-123 -40 -257 -64 -403 -72 -148 -8 -167 -15 -211 -74
-28 -37 -28 -120 0 -167 33 -57 77 -80 150 -80 218 0 604 98 681 172 58 56 67
135 22 192 -48 61 -116 70 -239 29z"/>
<path d="M3760 3748 c-30 -5 -91 -26 -135 -48 -66 -32 -336 -186 -450 -257
-61 -37 -84 -137 -45 -200 24 -41 55 -60 106 -68 36 -6 52 -1 145 47 57 30
148 82 202 116 53 34 97 56 97 49 0 -21 -56 -158 -109 -267 -68 -140 -67 -205
5 -258 l27 -19 -44 -7 c-94 -14 -145 -72 -136 -154 5 -48 27 -84 70 -116 59
-44 245 -28 407 35 205 79 505 306 530 401 19 68 -11 133 -77 167 -35 18 -124
14 -158 -8 -17 -10 -54 -41 -82 -68 -78 -76 -291 -208 -308 -191 -3 3 37 104
89 226 123 289 130 310 131 409 0 75 -2 85 -30 125 -53 74 -129 103 -235 86z"/>
<path d="M2260 3305 c-8 -2 -59 -11 -113 -20 -81 -14 -105 -22 -132 -46 -87
-77 -61 -222 49 -264 41 -16 52 -16 148 -1 224 33 268 33 268 -4 0 -11 -9 -43
-19 -72 -35 -94 -31 -137 13 -186 33 -35 37 -37 99 -37 100 0 143 40 188 176
32 99 33 216 2 274 -29 56 -103 121 -171 153 -51 23 -71 26 -187 28 -71 2
-137 1 -145 -1z"/>
<path d="M4929 3123 c-52 -8 -132 -66 -164 -117 -28 -46 -30 -56 -30 -145 0
-53 -3 -101 -7 -107 -4 -7 -67 -51 -140 -99 -73 -49 -160 -115 -193 -149 -129
-131 -200 -363 -165 -538 21 -111 86 -231 166 -311 50 -50 83 -67 144 -74 196
-23 329 237 194 378 -48 50 -41 152 15 213 14 15 80 69 146 119 66 50 143 116
172 145 94 99 143 232 143 388 0 98 -15 165 -48 211 -41 57 -155 99 -233 86z"/>
<path d="M1215 3044 c-78 -29 -135 -108 -135 -189 0 -72 43 -139 120 -187 l25
-15 1 -319 c0 -262 4 -333 17 -394 27 -117 56 -198 85 -232 58 -68 166 -87
257 -44 111 52 141 136 90 252 -35 79 -34 87 12 67 52 -21 126 -13 159 18 14
13 43 56 65 97 43 76 141 192 164 192 8 0 16 -13 20 -29 3 -16 13 -35 21 -42
17 -14 18 -50 4 -99 -20 -67 -39 -236 -45 -405 -6 -160 -5 -172 14 -202 30
-47 73 -66 138 -61 114 10 146 66 162 283 7 98 21 197 41 284 34 144 33 169
-6 226 -13 20 -24 50 -24 66 0 45 -55 170 -96 218 -56 65 -104 86 -199 86 -70
0 -89 -4 -145 -32 -111 -54 -233 -180 -313 -323 -29 -51 -32 -53 -38 -30 -4
14 -7 131 -8 261 -1 254 -9 325 -47 406 -61 128 -212 194 -339 147z"/>
<path d="M3410 2283 c-72 -11 -345 -69 -493 -105 -189 -45 -232 -68 -275 -148
-65 -123 21 -272 156 -272 26 -1 148 24 272 55 244 60 381 87 447 87 40 0 43
-2 61 -44 63 -142 262 -144 343 -3 35 61 35 181 0 250 -46 88 -131 151 -242
176 -42 10 -217 13 -269 4z"/>
<path d="M4431 1555 c-19 -9 -56 -35 -82 -60 -26 -24 -58 -47 -71 -49 -12 -3
-126 -7 -253 -9 -224 -3 -232 -4 -314 -32 -169 -58 -380 -210 -532 -382 -21
-22 -53 -46 -72 -52 -19 -7 -61 -36 -93 -65 -80 -72 -116 -89 -189 -90 -121
-2 -257 102 -392 300 -71 104 -107 139 -161 154 -70 19 -129 8 -190 -37 -66
-49 -92 -155 -56 -226 35 -67 186 -257 264 -330 98 -92 190 -149 308 -190 77
-27 104 -31 227 -35 221 -7 326 29 452 155 40 40 81 73 90 73 9 0 67 52 129
115 126 128 229 201 332 237 63 21 80 23 267 20 222 -3 271 5 382 59 79 38
165 116 193 175 32 66 25 150 -17 201 -16 21 -44 46 -61 56 -43 25 -119 31
-161 12z"/>
</g>
</svg>
