<?xml version="1.0" standalone="no"?>
<!DOCTYPE svg PUBLIC "-//W3C//DTD SVG 20010904//EN"
 "http://www.w3.org/TR/2001/REC-SVG-20010904/DTD/svg10.dtd">
<svg version="1.0" xmlns="http://www.w3.org/2000/svg"
 width="600.000000pt" height="600.000000pt" viewBox="0 0 600.000000 600.000000"
 preserveAspectRatio="xMidYMid meet">
<metadata>
Created by potrace 1.15, written by Peter Selinger 2001-2017
</metadata>
<g transform="translate(0.000000,600.000000) scale(0.100000,-0.100000)"
fill="#16364b" stroke="none">
<path d="M2295 5681 c-111 -32 -202 -110 -253 -215 -38 -78 -46 -116 -71 -309
-18 -136 -21 -213 -21 -539 0 -230 -6 -467 -15 -602 -8 -121 -19 -358 -25
-525 -5 -168 -11 -306 -13 -307 -8 -9 -152 135 -196 195 -47 66 -131 217 -131
238 0 5 11 20 25 33 26 24 34 60 13 60 -6 0 -22 -10 -35 -22 l-23 -22 7 50
c10 75 9 88 -8 92 -10 2 -22 -11 -34 -38 -10 -22 -21 -40 -25 -40 -4 0 -14 18
-23 40 -10 25 -22 40 -33 40 -14 0 -16 -7 -11 -52 l6 -51 -27 26 c-31 30 -52
35 -52 12 0 -9 18 -47 40 -86 22 -39 43 -83 46 -98 11 -43 93 -202 140 -268
54 -76 133 -156 228 -230 39 -31 75 -60 80 -64 13 -12 8 -110 -16 -304 -32
-264 -16 -513 54 -835 43 -202 123 -361 224 -448 68 -59 211 -128 324 -156
l95 -24 -3 -34 c-1 -18 -3 -103 -4 -188 -1 -173 18 -289 71 -442 16 -45 28
-85 26 -89 -3 -3 -42 -9 -89 -12 -121 -8 -166 -36 -166 -102 0 -68 52 -99 159
-97 134 2 241 76 256 177 5 31 -3 66 -35 159 -57 167 -73 271 -68 436 5 143
16 187 46 175 41 -17 363 -37 642 -40 l305 -4 -5 -38 c-3 -21 -5 -94 -4 -163
0 -137 17 -238 65 -386 16 -50 29 -96 29 -103 0 -7 -23 -11 -66 -11 -135 0
-194 -34 -194 -111 0 -48 24 -74 81 -89 84 -23 236 16 295 75 18 17 38 50 44
72 12 39 10 51 -29 175 -65 208 -88 421 -58 538 l12 45 55 7 c30 3 100 7 155
7 200 2 316 41 411 136 58 58 113 164 138 265 21 86 34 277 41 600 6 248 5
270 -15 345 -28 108 -79 206 -188 359 l-92 128 85 29 c47 16 104 38 128 50 91
46 216 135 289 207 72 70 104 112 187 251 30 51 35 81 11 81 -5 0 -10 7 -10
15 0 19 -30 19 -56 0 -29 -22 -34 -18 -34 20 0 47 -24 46 -49 -2 l-19 -38 -11
28 c-6 15 -15 27 -20 27 -20 0 -23 -24 -11 -76 17 -69 10 -83 -87 -178 -120
-119 -327 -231 -463 -251 -45 -6 -45 -6 -84 45 -54 71 -128 143 -211 204 -104
78 -528 384 -621 449 -69 48 -168 130 -235 197 -39 38 -119 143 -148 193 -43
75 -96 242 -115 362 -8 55 -22 213 -31 350 -16 281 -32 364 -91 475 -64 122
-166 202 -292 229 -72 15 -126 13 -197 -8z m189 -153 c27 -8 61 -32 97 -68 94
-93 121 -197 139 -527 12 -236 23 -326 55 -447 63 -239 136 -359 349 -571 96
-95 158 -145 296 -239 280 -191 499 -355 588 -440 114 -109 395 -489 462 -625
44 -87 63 -188 56 -281 -4 -41 -11 -197 -16 -347 -12 -357 -32 -450 -114 -541
-83 -92 -139 -100 -771 -108 -431 -5 -625 2 -830 31 -22 3 -80 10 -130 16
-299 37 -470 150 -552 368 -79 209 -119 636 -83 881 6 41 15 242 20 445 12
510 28 887 42 1003 6 57 12 284 13 547 1 468 9 572 51 715 45 154 180 232 328
188z"/>
<path d="M2572 2954 c-31 -21 -29 -65 4 -98 38 -37 69 -34 93 11 18 34 13 60
-15 82 -32 25 -52 26 -82 5z"/>
<path d="M3195 2905 c-14 -13 -25 -31 -25 -40 0 -24 46 -65 74 -65 51 0 76 85
34 114 -32 22 -55 20 -83 -9z"/>
<path d="M3095 2013 c-89 -8 -210 -12 -271 -9 -118 5 -134 1 -134 -40 0 -32
18 -42 98 -54 58 -9 114 -8 279 5 122 10 235 14 276 10 75 -7 97 2 97 40 0 12
-6 27 -13 33 -12 11 -127 33 -157 31 -8 -1 -87 -8 -175 -16z"/>
</g>
</svg>
