<?xml version="1.0" standalone="no"?>
<!DOCTYPE svg PUBLIC "-//W3C//DTD SVG 20010904//EN"
 "http://www.w3.org/TR/2001/REC-SVG-20010904/DTD/svg10.dtd">
<svg version="1.0" xmlns="http://www.w3.org/2000/svg"
 width="600.000000pt" height="600.000000pt" viewBox="0 0 600.000000 600.000000"
 preserveAspectRatio="xMidYMid meet">
<metadata>
Created by potrace 1.15, written by Peter Selinger 2001-2017
</metadata>
<g transform="translate(0.000000,600.000000) scale(0.100000,-0.100000)"
fill="#16364b" stroke="none">
<path d="M2386 5401 c-37 -14 -44 -47 -38 -185 13 -358 -81 -597 -275 -695
-92 -46 -112 -84 -72 -135 30 -38 69 -34 151 14 153 92 250 237 299 448 16 66
22 138 26 297 5 195 4 212 -13 232 -22 25 -52 34 -78 24z"/>
<path d="M3534 5285 c-35 -24 -48 -68 -34 -111 53 -161 220 -304 306 -262 69
32 67 107 -6 222 -84 132 -200 198 -266 151z"/>
<path d="M3013 5112 c-100 -41 -176 -156 -177 -267 -1 -171 140 -205 278 -67
109 109 130 268 42 325 -39 26 -95 29 -143 9z m48 -175 c-12 -36 -76 -105 -87
-94 -14 14 19 92 54 127 30 29 37 32 40 17 2 -9 -1 -32 -7 -50z"/>
<path d="M4768 4723 c-45 -28 -53 -62 -52 -243 0 -181 14 -257 61 -338 62
-108 183 -107 238 3 26 52 27 210 2 305 -24 91 -96 237 -130 266 -34 28 -80
31 -119 7z"/>
<path d="M2653 4211 c-106 -50 -112 -181 -12 -259 112 -88 281 -106 413 -44
77 36 106 74 106 139 0 72 -33 98 -175 139 -155 46 -271 54 -332 25z"/>
<path d="M5200 3965 c-158 -51 -220 -255 -135 -443 38 -84 79 -128 150 -163
61 -30 69 -31 153 -27 115 5 197 43 270 122 144 158 94 364 -117 483 -63 36
-71 38 -171 40 -71 2 -120 -2 -150 -12z m206 -288 c11 -10 -10 -38 -34 -44
-18 -4 -29 -1 -39 12 -25 35 -17 48 28 42 22 -3 43 -7 45 -10z"/>
<path d="M4209 3757 c-158 -45 -259 -171 -259 -321 1 -193 239 -313 437 -222
129 61 205 210 188 376 -9 93 -30 123 -102 150 -71 27 -199 35 -264 17z m81
-261 c0 -8 -7 -22 -16 -30 -34 -35 -60 -10 -27 26 19 22 43 24 43 4z"/>
<path d="M1146 3489 c-302 -46 -412 -367 -204 -594 78 -86 160 -126 296 -145
101 -14 159 -42 220 -103 102 -104 147 -209 197 -457 37 -186 119 -495 155
-588 113 -289 315 -437 645 -471 119 -13 743 -31 1045 -31 573 1 952 64 1213
203 213 113 331 234 427 440 139 297 131 609 -21 843 -166 253 -429 388 -724
370 -214 -12 -346 -72 -595 -266 -207 -162 -286 -195 -465 -194 -86 0 -113 4
-194 32 -209 72 -465 227 -846 513 -262 196 -418 289 -618 366 -174 67 -402
102 -531 82z m234 -364 c277 -74 537 -213 840 -451 277 -217 429 -308 682
-410 298 -120 512 -132 778 -43 117 38 182 78 325 198 185 155 273 200 416
208 147 9 250 -35 362 -156 90 -98 130 -196 131 -321 1 -193 -127 -403 -313
-513 -183 -109 -321 -141 -741 -173 -252 -20 -1187 -22 -1350 -3 -247 28 -348
108 -433 344 -41 115 -94 331 -117 475 -30 198 -56 295 -102 390 -34 71 -57
100 -137 180 -137 136 -251 197 -410 218 -77 11 -134 38 -139 65 -5 26 93 22
208 -8z"/>
<path d="M2193 2318 c-32 -41 -21 -78 28 -104 28 -14 33 -14 55 0 32 22 40 60
20 91 -13 20 -25 25 -55 25 -21 0 -43 -6 -48 -12z"/>
<path d="M2877 2052 c-37 -40 -6 -112 48 -112 45 0 75 78 45 115 -17 21 -73
19 -93 -3z"/>
<path d="M3453 3366 c-53 -24 -193 -259 -193 -324 0 -52 59 -83 108 -58 60 31
167 188 192 283 13 51 -5 97 -42 107 -29 7 -27 8 -65 -8z"/>
<path d="M480 2037 c-19 -9 -26 -22 -28 -50 -3 -32 2 -44 31 -75 20 -20 56
-60 82 -89 80 -89 177 -119 225 -68 19 20 22 31 17 67 -5 35 -14 51 -55 89
-45 41 -175 117 -227 133 -11 3 -31 0 -45 -7z"/>
<path d="M5332 1104 c-31 -21 -62 -86 -69 -143 -18 -152 145 -197 208 -57 27
59 26 169 -1 196 -25 25 -105 27 -138 4z"/>
</g>
</svg>
