<?xml version="1.0" standalone="no"?>
<!DOCTYPE svg PUBLIC "-//W3C//DTD SVG 20010904//EN"
 "http://www.w3.org/TR/2001/REC-SVG-20010904/DTD/svg10.dtd">
<svg version="1.0" xmlns="http://www.w3.org/2000/svg"
 width="600.000000pt" height="600.000000pt" viewBox="0 0 600.000000 600.000000"
 preserveAspectRatio="xMidYMid meet">
<metadata>
Created by potrace 1.15, written by Peter Selinger 2001-2017
</metadata>
<g transform="translate(0.000000,600.000000) scale(0.100000,-0.100000)"
fill="#16364b" stroke="none">
<path d="M2170 5453 c-27 -10 -61 -47 -82 -88 -15 -28 -22 -66 -26 -130 -4
-83 -2 -95 21 -140 31 -61 68 -98 127 -124 38 -17 66 -21 183 -21 75 0 137 -3
137 -6 0 -3 -26 -65 -57 -137 -78 -182 -143 -380 -143 -436 0 -107 93 -169
186 -125 47 22 69 53 95 132 33 101 80 212 152 363 36 74 70 153 76 175 34
122 -22 234 -144 290 -60 28 -184 47 -269 42 l-61 -3 3 42 c5 57 -27 127 -70
153 -32 19 -94 25 -128 13z"/>
<path d="M3676 5354 c-133 -26 -186 -75 -186 -170 0 -45 5 -59 30 -87 37 -42
97 -60 155 -47 71 17 133 13 145 -9 24 -45 6 -146 -54 -307 -43 -113 -42 -145
5 -199 57 -65 155 -67 216 -5 32 33 103 191 130 291 27 96 24 257 -5 330 -40
101 -118 172 -222 203 -64 19 -120 19 -214 0z"/>
<path d="M1635 4856 c-90 -24 -318 -120 -365 -154 -14 -10 -35 -39 -48 -64
-21 -41 -22 -51 -12 -89 15 -56 68 -107 119 -115 l37 -6 -3 -51 c-5 -62 24
-121 72 -148 17 -10 100 -29 185 -43 203 -33 310 -58 404 -96 89 -35 107 -36
162 -11 47 22 70 50 85 105 12 46 -7 110 -44 143 -54 50 -252 114 -485 157
-74 13 -136 26 -138 29 -3 2 24 13 58 23 47 14 96 19 194 19 110 1 135 4 164
20 111 66 103 214 -15 275 -43 22 -64 25 -165 28 -95 2 -131 -2 -205 -22z"/>
<path d="M3120 4361 c-63 -26 -203 -88 -310 -138 -107 -50 -224 -104 -260
-120 -104 -47 -147 -117 -121 -196 13 -40 55 -85 89 -98 43 -17 96 -9 162 22
162 77 406 186 525 233 72 28 141 58 153 65 28 15 62 84 62 126 0 48 -34 110
-72 133 -53 33 -98 28 -228 -27z"/>
<path d="M4220 4348 c-74 -50 -89 -152 -33 -218 41 -49 67 -57 211 -63 154 -6
200 -22 215 -72 11 -39 2 -156 -22 -282 -26 -136 -11 -192 62 -227 76 -36 165
-10 204 60 29 52 53 220 53 373 0 157 -22 229 -92 307 -85 93 -204 131 -438
141 -120 5 -127 4 -160 -19z"/>
<path d="M2188 3865 c-23 -23 -383 -75 -521 -75 -89 0 -130 -19 -164 -77 -31
-53 -28 -113 6 -162 45 -62 62 -66 311 -66 194 1 239 4 328 23 208 45 257 79
256 177 -1 102 -74 185 -165 185 -25 0 -48 -2 -51 -5z"/>
<path d="M3625 3752 c-49 -21 -139 -64 -200 -96 -60 -32 -166 -88 -234 -124
-139 -73 -161 -97 -161 -175 0 -42 5 -53 38 -89 33 -35 46 -41 88 -45 54 -6
84 7 254 102 41 23 105 58 143 79 l67 37 -6 -39 c-9 -55 10 -104 56 -146 65
-59 135 -60 195 -3 67 64 126 318 95 411 -42 128 -163 160 -335 88z"/>
<path d="M4962 3331 c-63 -22 -117 -70 -144 -128 -15 -35 -18 -62 -16 -160 1
-84 -2 -125 -11 -142 -8 -14 -73 -86 -145 -160 -210 -217 -308 -403 -323 -612
-12 -173 60 -305 188 -343 66 -20 102 -20 165 -1 59 17 110 63 137 125 17 37
19 57 14 131 -12 164 26 249 189 422 63 67 132 148 154 179 74 111 106 257 89
412 -17 152 -48 217 -122 260 -60 34 -111 40 -175 17z"/>
<path d="M2205 3211 c-120 -5 -158 -10 -189 -25 -103 -51 -101 -189 4 -250 31
-18 52 -20 219 -21 l185 0 1 -60 c1 -46 6 -69 23 -92 59 -83 193 -83 257 1 33
43 50 149 36 216 -20 95 -69 163 -142 201 -42 21 -145 40 -204 37 -22 -1 -107
-4 -190 -7z"/>
<path d="M4285 3168 c-11 -6 -54 -43 -95 -82 -193 -184 -355 -260 -614 -290
-100 -12 -121 -18 -152 -41 -90 -69 -82 -193 16 -247 30 -17 49 -19 125 -15
110 6 303 48 405 89 192 76 453 250 521 347 51 73 21 184 -62 230 -40 23 -112
27 -144 9z"/>
<path d="M1320 3021 c-56 -18 -93 -44 -121 -89 -46 -72 -39 -178 16 -242 22
-25 33 -87 55 -290 26 -250 36 -322 66 -450 55 -243 110 -320 229 -320 84 0
152 42 186 115 26 56 24 96 -10 173 -47 107 -55 160 -106 655 -16 163 -46 271
-95 342 -30 44 -111 105 -139 105 -9 0 -25 2 -36 5 -11 2 -31 0 -45 -4z"/>
<path d="M2124 2511 c-139 -36 -364 -263 -364 -368 0 -75 61 -133 142 -133 67
0 93 13 170 85 37 35 81 71 97 80 30 15 30 15 58 -28 16 -23 45 -53 65 -65
l35 -24 -24 -26 c-38 -41 -92 -160 -109 -242 -38 -180 14 -437 108 -529 35
-34 103 -56 147 -46 62 13 111 76 111 143 0 17 -11 59 -25 95 -52 138 -50 248
5 363 35 71 38 120 10 175 -18 34 -59 70 -95 82 -5 2 2 18 17 35 48 58 48 131
0 215 -37 65 -115 141 -170 167 -51 24 -130 33 -178 21z"/>
<path d="M3712 2180 c-35 -5 -98 -16 -140 -24 -42 -8 -161 -31 -264 -50 -231
-45 -493 -108 -535 -129 -74 -39 -116 -134 -94 -216 16 -58 50 -104 96 -125
50 -24 120 -18 340 27 272 55 627 117 673 117 27 0 53 -8 77 -24 101 -69 244
-21 274 91 32 117 -61 275 -187 318 -59 20 -160 26 -240 15z"/>
<path d="M4593 1620 c-12 -5 -45 -33 -73 -63 -90 -95 -150 -118 -420 -163
-270 -45 -408 -97 -603 -228 -177 -119 -227 -172 -227 -244 l0 -29 -67 4 c-65
5 -71 3 -153 -40 -120 -63 -183 -80 -288 -75 -132 6 -177 31 -337 191 -74 74
-147 137 -170 148 -105 49 -232 -4 -263 -109 -29 -95 0 -151 149 -300 137
-135 200 -184 296 -229 105 -49 193 -64 368 -65 172 0 256 17 372 75 131 66
203 141 203 211 0 25 2 26 59 26 78 0 95 7 199 86 99 74 238 147 327 169 33 9
119 22 190 31 72 9 172 27 223 40 166 42 384 166 464 265 32 40 45 96 34 154
-9 45 -68 112 -121 136 -42 20 -125 24 -162 9z"/>
</g>
</svg>
