<?xml version="1.0" standalone="no"?>
<!DOCTYPE svg PUBLIC "-//W3C//DTD SVG 20010904//EN"
 "http://www.w3.org/TR/2001/REC-SVG-20010904/DTD/svg10.dtd">
<svg version="1.0" xmlns="http://www.w3.org/2000/svg"
 width="600.000000pt" height="600.000000pt" viewBox="0 0 600.000000 600.000000"
 preserveAspectRatio="xMidYMid meet">
<metadata>
Created by potrace 1.15, written by Peter Selinger 2001-2017
</metadata>
<g transform="translate(0.000000,600.000000) scale(0.100000,-0.100000)"
fill="#16364b" stroke="none">
<path d="M3092 5630 c-69 -42 -160 -291 -149 -408 15 -167 124 -265 329 -295
43 -6 78 -14 78 -17 0 -3 -28 -23 -63 -45 -174 -112 -508 -379 -533 -427 -8
-15 -14 -41 -14 -58 0 -122 143 -215 485 -314 220 -63 250 -73 357 -122 61
-28 87 -34 113 -30 69 13 115 73 115 150 0 99 -67 136 -519 289 -69 23 -126
47 -128 52 -6 19 266 196 467 303 144 78 203 128 219 189 29 108 -49 207 -210
267 -60 22 -176 43 -342 61 -35 4 -60 12 -63 20 -3 7 15 61 40 119 51 116 54
142 26 203 -35 78 -134 108 -208 63z"/>
<path d="M1507 5416 c-205 -74 -494 -431 -606 -749 -81 -230 -74 -325 28 -377
57 -29 92 -26 264 24 149 43 253 68 351 82 47 6 48 6 41 -17 -10 -33 -54 -111
-155 -274 -153 -246 -145 -229 -142 -319 3 -97 20 -132 82 -164 33 -17 55 -22
81 -18 41 7 499 227 570 275 62 42 83 83 77 151 -5 45 -11 59 -40 86 -23 20
-51 34 -78 39 -38 7 -52 3 -122 -33 -43 -23 -78 -40 -78 -38 0 1 23 43 50 92
61 108 90 197 90 274 0 109 -44 187 -132 235 -81 45 -180 46 -377 5 -84 -17
-155 -29 -158 -26 -8 8 93 172 169 273 68 91 139 159 210 202 50 30 78 78 78
133 0 102 -107 178 -203 144z"/>
<path d="M4595 4435 c-148 -39 -344 -102 -371 -119 -89 -59 -81 -189 16 -239
45 -22 91 -18 239 23 63 17 120 29 127 28 7 -2 -16 -45 -56 -108 -281 -432
-293 -452 -298 -510 -3 -46 0 -61 20 -89 12 -19 38 -42 57 -52 19 -10 46 -29
60 -43 14 -13 49 -31 76 -40 28 -8 104 -31 170 -51 158 -47 265 -85 265 -94 0
-13 -99 -167 -206 -321 -121 -174 -125 -181 -126 -229 -1 -97 84 -160 187
-139 55 11 82 39 174 176 247 370 309 516 267 626 -38 99 -136 157 -406 242
-116 36 -165 56 -164 66 1 8 44 79 96 159 51 79 111 172 131 206 134 220 150
386 49 480 -64 59 -158 68 -307 28z"/>
<path d="M3767 3648 c-40 -23 -77 -86 -77 -129 1 -69 93 -178 168 -198 58 -16
75 -46 59 -110 l-12 -51 -60 6 c-169 17 -339 -80 -429 -246 -53 -97 -30 -187
58 -229 72 -36 142 -21 187 39 13 18 40 50 60 71 l36 38 99 -6 c117 -7 157 5
199 62 22 28 29 48 29 85 1 43 4 50 25 55 45 11 83 48 108 102 21 46 25 66 21
126 -5 100 -41 171 -133 262 -134 133 -250 175 -338 123z"/>
<path d="M2447 3614 c-100 -24 -273 -119 -326 -179 -37 -43 -45 -70 -39 -136
4 -34 13 -58 29 -75 64 -69 133 -70 234 -4 78 51 181 90 235 90 l40 0 0 -44
c0 -100 -94 -346 -224 -586 -40 -74 -76 -148 -80 -163 -10 -40 9 -99 41 -129
31 -29 160 -78 208 -78 16 0 79 17 140 37 145 48 279 83 283 73 4 -12 -41
-116 -119 -274 -75 -151 -83 -192 -54 -263 20 -48 41 -71 87 -94 68 -35 160
-19 222 39 37 35 185 335 219 443 89 284 47 455 -132 537 -48 23 -68 26 -146
25 -50 -1 -124 -10 -168 -21 -91 -23 -88 -32 -34 98 46 109 74 217 82 317 17
189 -76 340 -239 388 -61 18 -182 18 -259 -1z"/>
<path d="M1083 3371 c-54 -20 -197 -109 -270 -167 -110 -90 -93 -280 32 -351
51 -29 118 -30 164 -2 18 11 35 18 37 16 2 -2 -15 -93 -37 -203 -75 -374 -90
-469 -96 -599 -7 -159 3 -205 57 -256 29 -28 56 -40 124 -59 136 -36 160 -24
278 140 33 47 111 171 173 275 100 168 179 285 258 380 l24 29 17 -31 c15 -29
15 -42 1 -150 -18 -144 -47 -327 -82 -533 -19 -109 -27 -192 -27 -280 -1 -117
1 -128 26 -176 32 -60 87 -110 140 -126 31 -9 45 -8 83 6 58 23 87 64 93 132
4 44 0 61 -22 99 -26 44 -27 47 -16 128 6 45 36 206 65 357 30 151 59 315 66
363 19 147 -4 470 -38 548 -23 52 -77 102 -129 119 -51 17 -136 7 -187 -23
-93 -55 -283 -275 -401 -466 -37 -61 -70 -111 -72 -111 -2 0 -1 12 1 28 14 85
41 226 71 362 44 210 50 280 30 360 -23 91 -59 138 -135 177 -75 39 -146 43
-228 14z"/>
<path d="M4649 2173 c-63 -32 -108 -92 -116 -154 -3 -22 -8 -41 -12 -43 -3 -2
-55 3 -116 10 -228 27 -379 14 -507 -44 -152 -69 -229 -189 -258 -403 -6 -46
-13 -90 -15 -96 -3 -8 -30 7 -72 39 -216 164 -422 165 -601 2 -80 -72 -141
-157 -199 -280 l-47 -99 -13 75 c-62 350 -115 495 -205 560 -95 69 -224 37
-278 -71 -29 -56 -26 -115 10 -182 55 -104 93 -264 125 -532 19 -156 37 -233
71 -300 65 -126 171 -187 326 -186 57 0 78 5 114 26 56 33 93 94 99 168 8 96
162 416 244 508 46 51 47 52 71 36 14 -9 80 -74 146 -145 154 -163 211 -197
324 -197 54 0 85 6 109 19 44 23 129 103 146 136 41 80 84 249 106 422 15 118
11 116 179 93 324 -43 382 -41 497 15 79 39 163 128 194 207 20 48 24 76 24
168 0 94 -4 116 -22 151 -62 117 -202 158 -324 97z"/>
</g>
</svg>
