<?xml version="1.0" standalone="no"?>
<!DOCTYPE svg PUBLIC "-//W3C//DTD SVG 20010904//EN"
 "http://www.w3.org/TR/2001/REC-SVG-20010904/DTD/svg10.dtd">
<svg version="1.0" xmlns="http://www.w3.org/2000/svg"
 width="600.000000pt" height="600.000000pt" viewBox="0 0 600.000000 600.000000"
 preserveAspectRatio="xMidYMid meet">
<metadata>
Created by potrace 1.15, written by Peter Selinger 2001-2017
</metadata>
<g transform="translate(0.000000,600.000000) scale(0.100000,-0.100000)"
fill="#16364b" stroke="none">
<path d="M3539 5260 c-9 -5 -22 -23 -29 -40 -12 -28 -10 -37 23 -104 66 -132
190 -222 256 -185 35 20 38 57 8 122 -33 71 -110 173 -150 197 -34 21 -82 25
-108 10z m169 -210 c28 -50 13 -52 -34 -4 -32 34 -85 122 -84 141 1 14 94 -94
118 -137z"/>
<path d="M3025 5058 c-125 -69 -178 -275 -83 -324 26 -14 38 -14 71 -4 47 14
121 80 147 130 39 77 34 162 -13 195 -25 17 -93 19 -122 3z m92 -74 c9 -25
-15 -91 -49 -130 -33 -37 -81 -67 -92 -57 -11 12 -6 72 10 113 27 68 114 117
131 74z"/>
<path d="M4775 4728 c-25 -22 -26 -29 -36 -181 -6 -87 -9 -223 -7 -302 3 -127
5 -147 24 -172 35 -46 100 -44 125 4 10 21 14 91 17 288 2 143 1 279 -3 303
-12 77 -67 105 -120 60z"/>
<path d="M1640 4323 c-94 -39 -154 -133 -154 -243 0 -79 24 -132 89 -200 114
-117 159 -306 200 -835 8 -110 29 -294 46 -410 25 -173 30 -227 24 -305 -13
-194 27 -459 97 -647 101 -267 273 -418 539 -471 l86 -17 -5 -150 c-5 -184 13
-314 64 -463 26 -76 32 -107 24 -112 -7 -4 -43 -10 -82 -14 -120 -11 -168 -44
-168 -118 0 -84 84 -119 205 -84 105 31 184 99 206 178 10 39 8 54 -30 173
-23 71 -47 155 -53 185 -13 59 -18 329 -6 370 l7 25 213 0 c117 0 303 6 413
13 109 8 229 11 265 7 l66 -7 -7 -56 c-9 -62 0 -146 31 -287 21 -101 63 -251
85 -308 8 -20 15 -49 15 -62 0 -25 -1 -25 -82 -25 -101 0 -145 -18 -171 -72
-16 -33 -17 -40 -3 -73 46 -108 289 -97 380 18 27 34 31 46 30 100 0 43 -10
89 -31 147 -37 103 -77 261 -97 390 -13 75 -14 108 -5 158 6 35 16 65 23 67 6
1 68 8 137 14 201 18 485 99 629 178 129 72 248 220 307 383 24 68 27 88 27
215 0 133 -2 144 -32 223 -46 123 -98 209 -166 278 -118 118 -231 158 -388
136 -184 -26 -400 -11 -694 48 -250 50 -403 112 -596 240 -160 106 -240 180
-375 350 -143 179 -208 272 -322 459 -98 162 -142 218 -245 313 -44 40 -123
114 -175 163 -53 50 -114 99 -136 110 -40 19 -155 31 -185 18z m148 -175 c10
-6 49 -42 87 -80 39 -37 109 -104 156 -148 66 -62 107 -112 170 -211 46 -72
114 -176 150 -232 75 -116 264 -361 363 -472 109 -122 342 -284 529 -370 159
-72 381 -128 647 -162 129 -16 170 -17 561 -10 95 2 97 1 147 -33 197 -134
273 -481 154 -704 -37 -71 -155 -186 -222 -217 -115 -54 -390 -125 -575 -148
-115 -14 -1013 -23 -1260 -12 -242 10 -303 24 -405 93 -133 88 -218 245 -271
499 -17 80 -23 160 -30 349 -5 160 -15 290 -28 375 -11 72 -25 222 -31 335
-18 367 -39 536 -85 690 -33 112 -85 214 -140 277 -73 83 -89 149 -46 186 30
28 90 25 129 -5z"/>
<path d="M2473 2590 c-21 -9 -43 -38 -43 -59 0 -20 53 -71 74 -71 27 0 52 25
61 62 5 21 1 33 -19 52 -27 28 -38 30 -73 16z"/>
<path d="M2896 2248 c-9 -12 -16 -31 -16 -41 0 -25 53 -77 79 -77 25 0 51 36
51 72 0 60 -82 93 -114 46z"/>
<path d="M2656 4219 c-40 -32 -49 -54 -36 -94 6 -18 21 -40 34 -48 26 -17 266
-99 342 -117 70 -16 119 4 132 52 11 41 -1 89 -28 107 -46 31 -336 121 -391
121 -15 0 -38 -9 -53 -21z"/>
<path d="M5289 3980 c-109 -18 -208 -91 -255 -186 -56 -114 -13 -290 94 -384
59 -53 89 -68 153 -80 145 -28 335 64 401 194 26 50 35 151 19 208 -19 67 -74
134 -152 184 -98 64 -163 79 -260 64z m103 -307 c13 -7 -10 -40 -32 -46 -24
-6 -50 17 -50 45 0 18 4 19 37 13 21 -4 41 -9 45 -12z"/>
<path d="M4189 3747 c-89 -33 -174 -112 -211 -195 -30 -66 -30 -172 -1 -228
48 -91 147 -147 258 -147 130 0 221 56 277 171 29 59 33 75 32 147 -1 60 -7
95 -25 140 -22 54 -30 63 -79 89 -45 25 -69 30 -135 33 -50 2 -93 -2 -116 -10z
m81 -287 c-11 -21 -50 -28 -50 -8 0 6 10 22 22 35 19 20 23 21 30 8 5 -8 4
-23 -2 -35z"/>
<path d="M499 2011 c-30 -24 -19 -47 33 -68 24 -9 91 -41 150 -71 105 -54 132
-59 144 -27 11 27 -27 55 -151 115 -154 73 -150 72 -176 51z"/>
<path d="M5337 1096 c-32 -34 -57 -112 -57 -174 0 -46 4 -58 29 -83 80 -80
190 9 191 154 0 92 -26 126 -98 127 -33 0 -48 -6 -65 -24z"/>
</g>
</svg>
