<?xml version="1.0" standalone="no"?>
<!DOCTYPE svg PUBLIC "-//W3C//DTD SVG 20010904//EN"
 "http://www.w3.org/TR/2001/REC-SVG-20010904/DTD/svg10.dtd">
<svg version="1.0" xmlns="http://www.w3.org/2000/svg"
 width="600.000000pt" height="600.000000pt" viewBox="0 0 600.000000 600.000000"
 preserveAspectRatio="xMidYMid meet">
<metadata>
Created by potrace 1.15, written by Peter Selinger 2001-2017
</metadata>
<g transform="translate(0.000000,600.000000) scale(0.100000,-0.100000)"
fill="#16364b" stroke="none">
<path d="M2382 5394 c-21 -15 -22 -21 -22 -175 0 -432 -66 -598 -277 -698 -90
-43 -103 -56 -103 -102 0 -43 27 -69 71 -69 50 0 207 88 269 150 126 126 165
270 177 656 l6 210 -28 22 c-33 26 -62 28 -93 6z"/>
<path d="M3529 5271 c-38 -38 -38 -75 2 -153 90 -179 258 -257 315 -146 23 44
11 104 -35 175 -89 138 -213 193 -282 124z"/>
<path d="M2992 5119 c-116 -58 -192 -228 -148 -333 45 -107 172 -101 286 13
105 105 121 279 30 326 -42 22 -117 19 -168 -6z m78 -134 c0 -27 -28 -71 -62
-100 -55 -46 -46 13 12 79 34 39 50 45 50 21z"/>
<path d="M4781 4753 c-55 -27 -65 -65 -58 -223 14 -324 72 -460 198 -460 92 0
149 67 157 184 6 99 -18 189 -83 322 -86 174 -137 216 -214 177z"/>
<path d="M2635 4201 c-87 -39 -121 -116 -87 -194 66 -148 332 -194 526 -89
120 65 113 193 -13 235 -202 67 -348 84 -426 48z"/>
<path d="M5239 3986 c-155 -42 -247 -171 -237 -332 10 -155 115 -281 266 -319
165 -43 352 53 410 208 27 70 29 173 6 241 -22 65 -98 144 -175 184 -57 28
-73 32 -144 31 -44 0 -101 -6 -126 -13z m158 -320 c7 -7 -15 -34 -38 -47 -22
-11 -49 13 -49 43 0 18 4 20 41 15 22 -3 43 -8 46 -11z"/>
<path d="M4205 3746 c-140 -44 -245 -173 -245 -300 0 -101 63 -191 168 -239
68 -32 188 -30 257 3 114 55 175 158 175 293 -1 104 -13 154 -46 188 -55 57
-213 85 -309 55z m73 -268 c-16 -24 -58 -37 -58 -19 0 17 30 41 52 41 19 0 19
-2 6 -22z"/>
<path d="M1092 3399 c-135 -23 -266 -119 -325 -238 -28 -57 -32 -76 -32 -146
0 -99 29 -169 105 -249 90 -96 201 -143 369 -157 130 -10 181 -29 228 -83 73
-82 166 -325 242 -632 70 -281 120 -401 218 -526 143 -181 339 -250 768 -269
320 -14 1420 4 1535 25 126 24 231 59 397 132 299 132 404 201 488 318 124
174 179 402 156 650 -43 459 -310 720 -769 752 -220 16 -442 -68 -739 -278
-179 -127 -293 -170 -453 -171 -176 -1 -361 89 -760 368 -194 137 -308 206
-465 281 -283 135 -457 191 -679 219 -135 16 -203 17 -284 4z m303 -381 c113
-23 344 -100 485 -162 144 -63 281 -144 541 -317 542 -362 725 -429 1006 -368
183 40 316 98 516 228 169 109 219 135 322 169 154 51 258 51 363 1 61 -30
162 -127 195 -188 73 -133 68 -358 -10 -518 -40 -80 -88 -123 -223 -199 -204
-115 -317 -161 -469 -190 -161 -31 -255 -34 -782 -23 -288 6 -616 12 -729 13
-174 2 -215 6 -271 23 -87 27 -117 44 -160 90 -60 63 -88 134 -154 397 -65
257 -98 364 -154 496 -93 217 -204 347 -368 429 -81 40 -115 49 -221 60 -135
14 -212 58 -140 80 41 12 123 5 253 -21z"/>
<path d="M2203 2290 c-32 -13 -47 -47 -34 -76 15 -33 56 -57 85 -50 32 8 61
68 46 96 -19 36 -55 47 -97 30z"/>
<path d="M2896 2057 c-29 -29 -26 -58 12 -87 31 -25 54 -25 75 -2 20 22 22 75
4 90 -30 25 -65 25 -91 -1z"/>
<path d="M3488 3382 c-31 -4 -74 -42 -118 -107 -46 -66 -110 -201 -110 -230 0
-39 41 -75 86 -75 31 0 45 8 98 63 69 71 146 208 146 261 0 37 -29 81 -57 87
-10 3 -30 3 -45 1z"/>
<path d="M475 2045 c-14 -13 -25 -31 -25 -40 0 -21 28 -75 39 -75 5 0 20 -17
32 -37 13 -21 41 -58 63 -81 104 -113 260 -117 260 -7 0 42 -25 78 -89 127
-71 53 -216 138 -237 138 -11 0 -30 -11 -43 -25z"/>
<path d="M5364 1110 c-35 -14 -68 -95 -72 -177 -4 -69 -3 -74 26 -103 51 -51
119 -34 160 38 28 50 40 158 23 200 -19 46 -81 65 -137 42z"/>
</g>
</svg>
