<?xml version="1.0" standalone="no"?>
<!DOCTYPE svg PUBLIC "-//W3C//DTD SVG 20010904//EN"
 "http://www.w3.org/TR/2001/REC-SVG-20010904/DTD/svg10.dtd">
<svg version="1.0" xmlns="http://www.w3.org/2000/svg"
 width="600.000000pt" height="600.000000pt" viewBox="0 0 600.000000 600.000000"
 preserveAspectRatio="xMidYMid meet">
<metadata>
Created by potrace 1.15, written by Peter Selinger 2001-2017
</metadata>
<g transform="translate(0.000000,600.000000) scale(0.100000,-0.100000)"
fill="#16364b" stroke="none">
<path d="M1454 5721 c-49 -39 -138 -107 -199 -153 -151 -114 -174 -162 -111
-235 34 -39 128 -43 246 -10 270 77 377 111 392 124 27 24 33 79 14 119 -19
42 -56 58 -114 50 l-42 -6 15 30 c27 53 12 111 -36 136 -49 25 -73 17 -165
-55z"/>
<path d="M2361 5402 c-27 -27 -28 -30 -34 -187 -7 -172 -26 -302 -57 -396 -53
-157 -111 -231 -228 -292 -100 -53 -118 -115 -50 -172 39 -33 84 -32 151 1
150 76 242 194 321 412 52 147 61 203 61 410 l0 194 -33 29 c-44 39 -93 40
-131 1z"/>
<path d="M3526 5319 c-40 -32 -69 -95 -63 -140 23 -174 242 -341 357 -273 70
42 77 129 19 233 -65 115 -111 158 -205 186 -65 20 -76 19 -108 -6z"/>
<path d="M3000 5104 c-68 -29 -132 -111 -162 -206 -23 -75 -23 -112 1 -165 24
-51 63 -73 130 -73 57 0 84 10 158 58 44 28 55 42 74 90 30 78 31 184 3 232
-43 73 -124 99 -204 64z m32 -236 c-7 -7 -12 -8 -12 -2 0 6 3 14 7 17 3 4 9 5
12 2 2 -3 -1 -11 -7 -17z"/>
<path d="M4785 4760 c-48 -19 -58 -45 -67 -173 -24 -354 61 -527 258 -527 203
1 268 242 124 458 -38 56 -178 198 -224 227 -30 18 -68 25 -91 15z"/>
<path d="M2699 4230 c-128 -23 -207 -128 -180 -242 30 -134 134 -208 291 -208
128 0 260 58 349 155 36 39 41 51 41 90 0 86 -40 129 -145 160 -152 44 -274
60 -356 45z"/>
<path d="M1089 4115 c-36 -20 -63 -78 -55 -124 9 -58 35 -83 117 -111 41 -14
85 -32 99 -40 l25 -13 -23 -10 c-16 -7 -47 -5 -106 6 -106 21 -131 21 -167 0
-31 -18 -59 -67 -59 -103 0 -35 28 -85 59 -103 43 -25 203 -50 275 -42 75 8
185 45 223 75 40 31 80 95 88 139 21 123 -87 233 -303 307 -107 37 -134 40
-173 19z"/>
<path d="M4200 3762 c-111 -30 -193 -96 -239 -192 -21 -45 -26 -69 -26 -135 0
-70 4 -87 30 -134 104 -188 333 -215 488 -56 77 79 127 212 127 338 0 112 -40
154 -172 181 -96 20 -126 19 -208 -2z m45 -319 c-19 -17 -31 -21 -38 -14 -12
12 8 40 38 51 31 12 31 -11 0 -37z"/>
<path d="M5181 3735 c-99 -28 -175 -87 -219 -170 -23 -43 -27 -62 -27 -140 0
-74 4 -98 23 -137 33 -67 101 -139 164 -173 45 -25 64 -30 123 -30 89 1 154
34 240 120 74 75 117 157 123 235 8 105 -30 166 -157 257 -63 46 -69 48 -141
50 -44 2 -98 -4 -129 -12z m114 -296 c8 -12 -22 -49 -40 -49 -23 0 -25 29 -2
45 25 18 34 19 42 4z"/>
<path d="M1653 3686 c-17 -8 -39 -29 -48 -46 -14 -28 -15 -39 -1 -118 34 -199
95 -292 191 -292 13 0 39 13 56 28 60 54 49 167 -32 323 -22 43 -48 84 -58 93
-25 23 -71 28 -108 12z"/>
<path d="M3454 3380 c-39 -16 -91 -90 -143 -204 -28 -62 -51 -128 -51 -145 0
-42 47 -91 87 -91 40 0 125 52 162 99 67 84 107 221 82 283 -12 31 -65 68 -96
67 -11 0 -29 -4 -41 -9z"/>
<path d="M1886 3048 c-138 -12 -336 -53 -425 -89 -144 -58 -283 -172 -356
-294 -88 -147 -114 -344 -66 -490 60 -182 146 -289 336 -421 175 -122 190
-136 300 -296 208 -301 380 -415 645 -426 137 -5 227 10 399 70 64 22 179 55
256 73 186 44 455 134 580 195 175 84 397 248 496 367 98 117 163 327 164 528
0 117 -1 122 -34 190 -49 100 -186 235 -296 291 -137 71 -164 76 -655 109
-227 15 -246 19 -517 114 -233 81 -291 91 -532 90 -108 -1 -241 -6 -295 -11z
m482 -378 c61 -10 98 -22 372 -119 156 -55 292 -82 425 -85 212 -5 489 -29
520 -44 84 -42 155 -126 155 -183 0 -81 -63 -204 -143 -279 -123 -116 -315
-232 -502 -303 -119 -45 -293 -94 -380 -106 -38 -6 -110 -24 -158 -40 -128
-44 -265 -71 -354 -71 -132 0 -212 55 -303 205 -122 201 -253 344 -413 452
-55 37 -109 77 -120 88 -101 108 -57 298 89 377 69 38 306 96 454 111 78 8
299 6 358 -3z"/>
<path d="M438 2194 c-59 -31 -61 -65 -12 -188 80 -200 153 -313 245 -381 204
-150 407 -5 298 213 -53 108 -206 236 -403 341 -65 34 -88 37 -128 15z"/>
<path d="M4790 1618 c-27 -17 -50 -23 -97 -23 -75 0 -112 -23 -131 -81 -11
-34 -10 -52 8 -144 43 -213 110 -315 208 -315 34 0 57 7 81 24 63 45 117 206
128 383 7 98 -3 124 -60 158 -42 26 -94 25 -137 -2z"/>
</g>
</svg>
