<?xml version="1.0" standalone="no"?>
<!DOCTYPE svg PUBLIC "-//W3C//DTD SVG 20010904//EN"
 "http://www.w3.org/TR/2001/REC-SVG-20010904/DTD/svg10.dtd">
<svg version="1.0" xmlns="http://www.w3.org/2000/svg"
 width="600.000000pt" height="600.000000pt" viewBox="0 0 600.000000 600.000000"
 preserveAspectRatio="xMidYMid meet">
<metadata>
Created by potrace 1.15, written by Peter Selinger 2001-2017
</metadata>
<g transform="translate(0.000000,600.000000) scale(0.100000,-0.100000)"
fill="#16364b" stroke="none">
<path d="M3045 5064 c-95 -49 -163 -185 -135 -270 28 -84 132 -69 228 33 69
74 84 173 33 224 -34 33 -78 38 -126 13z m89 -96 c-1 -44 -31 -90 -86 -135
-56 -46 -78 -44 -78 7 0 82 73 174 134 168 29 -3 31 -6 30 -40z"/>
<path d="M4762 4695 c-18 -22 -20 -49 -27 -312 l-7 -287 22 -18 c39 -31 98
-16 121 31 14 28 26 473 15 535 -14 71 -85 101 -124 51z"/>
<path d="M1683 4481 c-80 -37 -130 -141 -120 -250 5 -56 24 -106 81 -203 36
-63 99 -315 125 -499 29 -208 40 -343 51 -618 6 -133 13 -247 16 -252 3 -5 9
-141 14 -302 6 -186 15 -325 25 -382 38 -210 94 -381 160 -485 46 -74 146
-163 227 -203 41 -20 116 -46 168 -58 52 -11 100 -22 106 -24 8 -3 9 -17 2
-52 -28 -144 -2 -358 68 -566 20 -60 34 -111 31 -114 -3 -2 -43 -8 -89 -12
-92 -9 -116 -18 -147 -57 -23 -30 -27 -61 -10 -97 17 -38 54 -52 133 -52 113
0 213 46 260 119 35 54 33 98 -8 198 -76 184 -105 355 -86 503 7 49 16 97 20
105 12 21 342 15 600 -11 125 -12 222 -17 272 -13 l78 7 0 -84 c0 -95 17 -175
90 -421 28 -92 50 -174 50 -181 0 -16 -42 -27 -104 -27 -120 -1 -197 -111
-124 -179 31 -29 92 -35 171 -17 122 29 195 84 217 165 13 49 11 58 -51 241
-98 288 -117 399 -86 490 l12 34 110 18 c154 26 506 105 571 129 196 74 371
337 391 589 14 178 -67 402 -184 514 -84 79 -144 100 -523 181 -226 49 -241
54 -525 162 -304 116 -443 182 -595 284 -236 159 -333 272 -515 604 -113 205
-188 312 -338 481 -74 84 -149 172 -167 197 -94 132 -258 191 -377 138z m189
-164 c24 -18 63 -62 88 -98 25 -36 54 -74 65 -85 38 -37 192 -219 240 -284 26
-36 105 -162 175 -280 70 -118 149 -244 176 -280 103 -141 238 -262 441 -394
128 -84 240 -136 468 -221 99 -36 207 -78 239 -92 73 -32 214 -73 371 -108
210 -47 379 -91 413 -109 77 -40 166 -174 192 -291 15 -63 15 -175 0 -240 -17
-75 -75 -185 -131 -248 -70 -79 -134 -107 -384 -167 -385 -93 -613 -116 -870
-86 -86 9 -266 18 -463 21 -236 4 -343 9 -400 21 -209 42 -329 152 -403 369
-59 174 -89 388 -89 635 0 74 -5 173 -10 220 -5 47 -14 193 -20 325 -12 290
-23 417 -56 640 -46 308 -88 461 -161 579 -49 80 -56 144 -20 180 37 37 84 35
139 -7z"/>
<path d="M2517 2602 c-37 -41 -2 -112 55 -112 28 0 58 36 58 70 0 50 -79 80
-113 42z"/>
<path d="M2962 2354 c-22 -15 -29 -49 -14 -70 11 -16 55 -44 69 -44 23 0 53
39 53 69 0 56 -58 80 -108 45z"/>
<path d="M5255 3976 c-158 -39 -245 -148 -245 -307 0 -97 29 -169 96 -235 113
-114 256 -130 421 -49 123 61 186 156 186 280 0 129 -64 229 -185 290 -63 31
-79 35 -147 34 -42 0 -98 -6 -126 -13z m150 -297 c11 -11 -27 -49 -49 -49 -17
0 -40 45 -31 60 8 14 63 6 80 -11z"/>
<path d="M4230 3759 c-93 -18 -192 -115 -232 -226 -40 -115 -8 -250 77 -318
181 -147 462 -23 482 213 7 83 -33 204 -84 254 -71 67 -154 94 -243 77z m78
-306 c-2 -20 -9 -29 -25 -31 -25 -4 -29 9 -13 39 17 30 42 24 38 -8z"/>
<path d="M5337 1081 c-32 -38 -62 -148 -54 -198 17 -104 142 -120 195 -24 43
78 36 191 -15 230 -40 32 -95 28 -126 -8z"/>
</g>
</svg>
