<?xml version="1.0" standalone="no"?>
<!DOCTYPE svg PUBLIC "-//W3C//DTD SVG 20010904//EN"
 "http://www.w3.org/TR/2001/REC-SVG-20010904/DTD/svg10.dtd">
<svg version="1.0" xmlns="http://www.w3.org/2000/svg"
 width="600.000000pt" height="600.000000pt" viewBox="0 0 600.000000 600.000000"
 preserveAspectRatio="xMidYMid meet">
<metadata>
Created by potrace 1.15, written by Peter Selinger 2001-2017
</metadata>
<g transform="translate(0.000000,600.000000) scale(0.100000,-0.100000)"
fill="#16364b" stroke="none">
<path d="M1681 5822 c-32 -5 -66 -28 -86 -58 -18 -28 -76 -285 -100 -443 -37
-249 -3 -386 110 -441 90 -44 177 -16 292 93 75 72 152 177 247 339 81 139 99
183 91 224 -14 78 -112 144 -184 124 -49 -13 -67 -35 -136 -165 -73 -139 -127
-224 -132 -208 -5 14 18 173 43 297 21 104 13 156 -31 200 -33 33 -67 44 -114
38z"/>
<path d="M3174 5566 c-42 -19 -64 -52 -64 -99 0 -54 22 -91 78 -128 128 -88
292 -240 363 -336 l31 -43 -55 0 c-45 0 -61 -5 -86 -25 -40 -34 -55 -82 -42
-133 20 -74 107 -122 234 -130 94 -6 147 12 200 65 47 46 61 90 55 173 -12
159 -141 332 -385 516 -203 153 -251 174 -329 140z"/>
<path d="M899 5460 c-165 -22 -287 -142 -335 -332 -42 -161 22 -321 167 -421
67 -46 114 -55 160 -33 54 26 74 62 74 129 l0 58 -62 58 c-61 56 -63 60 -63
107 0 58 25 105 72 135 28 17 43 19 100 14 104 -9 169 29 184 111 23 123 -107
200 -297 174z"/>
<path d="M2969 5184 c-148 -45 -259 -267 -205 -409 46 -119 163 -148 341 -86
108 38 134 85 135 237 0 152 -28 215 -115 255 -47 22 -93 23 -156 3z"/>
<path d="M2267 4855 c-16 -8 -42 -26 -58 -39 -15 -13 -47 -27 -70 -31 -48 -8
-160 -45 -211 -69 -99 -48 -108 -199 -15 -256 42 -26 85 -25 155 4 31 13 93
34 137 45 110 30 154 49 193 85 46 42 62 77 62 131 0 60 -24 100 -75 125 -49
24 -80 25 -118 5z"/>
<path d="M4755 4836 c-16 -7 -41 -26 -55 -41 -24 -26 -25 -30 -24 -173 0 -108
5 -164 18 -212 57 -207 178 -324 336 -323 189 0 308 173 256 372 -33 121 -110
196 -329 320 -116 66 -157 78 -202 57z"/>
<path d="M2823 4125 c-142 -40 -207 -112 -207 -227 1 -113 80 -206 214 -250
151 -49 545 -1 640 78 62 52 61 152 -2 214 -38 38 -237 140 -333 170 -91 28
-240 36 -312 15z"/>
<path d="M1045 4038 c-36 -13 -82 -53 -101 -90 -36 -69 -4 -179 65 -225 30
-20 46 -23 132 -23 55 0 99 -4 99 -9 0 -5 -12 -24 -27 -43 -57 -69 -266 -299
-288 -315 -85 -67 -283 -250 -297 -276 -58 -103 30 -247 150 -247 40 0 99 24
128 51 l22 20 27 -25 c34 -31 96 -50 140 -42 17 4 53 20 79 37 27 16 49 29 50
27 1 -2 7 -15 14 -30 6 -15 39 -49 72 -75 92 -71 105 -98 105 -214 0 -92 -1
-98 -42 -180 -63 -126 -141 -212 -237 -261 -38 -20 -40 -20 -92 -2 -52 17 -55
17 -101 -2 -64 -26 -93 -70 -93 -140 0 -42 5 -59 26 -84 110 -130 360 -86 554
97 159 150 256 340 275 541 16 166 -63 339 -207 453 l-48 38 62 35 c35 19 82
42 105 51 l43 17 34 -30 c66 -58 158 -51 219 17 44 49 50 80 39 206 -10 116
-25 146 -85 177 -52 26 -103 21 -188 -19 -35 -17 -82 -36 -104 -43 -22 -7 -57
-21 -77 -31 -21 -11 -42 -19 -48 -19 -6 0 28 51 75 113 47 61 97 135 110 162
53 107 42 197 -31 275 -79 84 -200 120 -404 119 -69 0 -138 -5 -155 -11z"/>
<path d="M4233 3780 c-133 -24 -227 -82 -276 -169 -26 -47 -32 -68 -35 -142
-4 -77 -1 -93 20 -141 41 -89 102 -137 207 -164 201 -51 397 99 462 354 36
143 18 214 -66 248 -48 19 -234 28 -312 14z m47 -288 c0 -17 -40 -44 -55 -38
-20 7 -11 24 19 36 28 11 36 12 36 2z"/>
<path d="M3455 3411 c-76 -19 -132 -80 -205 -224 -48 -94 -52 -106 -48 -156 4
-47 10 -59 41 -88 35 -31 41 -33 109 -33 88 0 139 21 187 75 58 67 85 138 89
240 3 82 2 93 -20 125 -35 52 -95 75 -153 61z"/>
<path d="M5093 3300 c-71 -17 -214 -120 -277 -200 -128 -160 -87 -410 80 -490
129 -63 328 35 413 204 81 160 60 306 -62 430 -31 31 -62 56 -69 56 -7 0 -22
2 -33 4 -11 3 -35 1 -52 -4z"/>
<path d="M2140 2556 c-25 -6 -57 -20 -70 -29 -45 -32 -122 -111 -181 -187 -32
-41 -83 -105 -113 -142 -30 -37 -58 -78 -61 -90 -4 -13 -22 -41 -39 -63 -175
-218 -266 -476 -266 -751 0 -233 66 -411 207 -560 153 -162 396 -259 648 -258
270 1 409 66 621 287 145 151 194 217 249 332 91 192 185 550 185 705 0 71
-23 168 -54 228 -97 185 -291 250 -546 182 -41 -11 -80 -20 -87 -20 -6 0 -21
33 -33 72 -29 96 -50 135 -99 186 -49 50 -119 87 -203 107 -75 17 -98 18 -158
1z m125 -496 c28 -88 54 -130 117 -197 66 -68 109 -93 161 -93 19 0 95 15 168
34 74 19 152 36 174 38 l40 3 3 -49 c11 -168 -136 -557 -269 -716 -75 -88 -88
-100 -154 -144 -75 -50 -135 -66 -240 -66 -114 0 -180 19 -265 76 -87 57 -102
71 -149 139 -74 106 -88 246 -39 405 27 89 118 264 169 325 22 27 51 70 64 95
27 53 185 225 195 213 4 -4 15 -33 25 -63z"/>
<path d="M4005 2431 c-50 -22 -91 -69 -106 -121 -9 -31 -9 -59 0 -126 7 -47
10 -88 8 -90 -2 -2 -19 1 -38 6 -125 36 -254 -46 -296 -189 -30 -105 -6 -260
79 -495 47 -130 90 -191 159 -226 43 -22 130 -27 176 -9 37 14 91 67 108 105
12 29 17 31 77 36 133 11 230 87 265 207 21 73 13 193 -22 326 -15 55 -49 187
-76 294 -55 219 -66 239 -154 281 -51 25 -128 25 -180 1z"/>
</g>
</svg>
