<?xml version="1.0" standalone="no"?>
<!DOCTYPE svg PUBLIC "-//W3C//DTD SVG 20010904//EN"
 "http://www.w3.org/TR/2001/REC-SVG-20010904/DTD/svg10.dtd">
<svg version="1.0" xmlns="http://www.w3.org/2000/svg"
 width="600.000000pt" height="600.000000pt" viewBox="0 0 600.000000 600.000000"
 preserveAspectRatio="xMidYMid meet">
<metadata>
Created by potrace 1.15, written by Peter Selinger 2001-2017
</metadata>
<g transform="translate(0.000000,600.000000) scale(0.100000,-0.100000)"
fill="#16364b" stroke="none">
<path d="M2333 5450 c-81 -49 -164 -266 -144 -375 11 -59 37 -102 82 -134 81
-59 170 -63 402 -17 64 12 117 19 117 14 0 -5 -33 -53 -74 -107 -114 -151
-216 -312 -299 -471 -96 -185 -99 -197 -88 -289 11 -85 30 -117 86 -145 37
-18 46 -19 169 -7 72 7 223 25 336 41 113 16 260 32 328 36 102 5 128 10 155
28 42 28 57 60 57 121 0 56 -21 96 -66 126 -53 35 -281 25 -646 -27 -27 -4
-48 -4 -48 -1 0 4 25 50 56 104 66 114 147 234 265 390 46 61 95 133 108 159
47 93 38 189 -25 262 -92 108 -206 127 -448 73 -76 -18 -141 -29 -144 -27 -2
3 5 21 17 41 46 79 32 156 -38 202 -43 29 -113 31 -158 3z"/>
<path d="M1735 5016 c-159 -31 -357 -146 -532 -309 -77 -72 -93 -101 -93 -164
0 -50 12 -74 59 -127 35 -38 46 -41 227 -71 248 -41 325 -73 394 -160 45 -56
84 -79 139 -79 85 0 141 62 141 154 0 66 -35 124 -122 205 -72 67 -113 89
-242 130 -99 32 -100 32 -75 48 44 29 117 57 176 68 115 21 173 78 173 169 0
76 -54 134 -135 144 -22 3 -71 -1 -110 -8z"/>
<path d="M4045 4883 c-138 -29 -332 -136 -376 -207 -25 -38 -21 -111 7 -149
51 -70 142 -73 244 -9 70 44 180 85 214 80 19 -3 21 -9 20 -63 -1 -74 -44
-205 -121 -368 -50 -107 -55 -123 -50 -170 4 -42 10 -56 39 -82 19 -18 45 -48
57 -68 23 -38 90 -77 132 -77 13 0 76 12 139 26 78 17 160 27 255 31 176 7
174 8 157 -110 -14 -98 -47 -232 -92 -379 -30 -96 -32 -112 -22 -147 17 -55
46 -87 97 -106 95 -37 168 10 204 130 29 101 88 339 101 415 7 36 12 103 13
150 1 214 -95 318 -319 342 -81 9 -128 8 -253 -5 -85 -9 -156 -15 -158 -14 -1
2 15 46 36 98 62 153 84 254 79 373 -3 85 -8 109 -31 152 -34 66 -102 126
-168 147 -47 16 -155 21 -204 10z"/>
<path d="M2070 3928 c-68 -30 -254 -75 -387 -93 -148 -20 -172 -28 -210 -68
-76 -80 -61 -187 34 -236 69 -35 409 22 629 106 109 41 147 72 165 131 11 38
10 48 -7 90 -37 88 -124 115 -224 70z"/>
<path d="M3700 3697 c-30 -13 -116 -59 -190 -104 -74 -45 -177 -103 -229 -130
-112 -58 -136 -85 -136 -153 0 -79 58 -140 142 -147 41 -4 60 2 139 40 50 25
136 72 191 106 56 33 106 61 111 61 15 0 -39 -135 -134 -330 -46 -96 -84 -186
-84 -200 0 -14 -9 -43 -20 -65 -40 -79 -12 -168 65 -205 54 -26 100 -25 213 5
238 64 520 242 614 388 68 106 27 229 -88 267 -54 18 -106 -6 -188 -90 -71
-71 -216 -180 -216 -161 0 6 19 55 41 109 123 291 151 391 130 470 -15 53 -73
119 -126 143 -58 27 -165 25 -235 -4z"/>
<path d="M2365 3371 c-107 -13 -284 -54 -315 -73 -90 -54 -94 -194 -8 -258 44
-33 105 -35 231 -11 59 12 139 21 178 21 82 0 82 2 39 -120 -36 -102 -37 -151
-7 -204 45 -80 143 -104 210 -53 59 45 127 247 127 379 0 216 -191 350 -455
319z"/>
<path d="M1209 3076 c-66 -19 -106 -52 -136 -113 -48 -99 -14 -195 84 -240
l55 -25 -9 -177 c-14 -301 -9 -441 21 -567 49 -200 95 -263 201 -272 68 -6
114 10 159 54 59 58 66 107 31 221 -7 21 -5 22 30 12 81 -23 149 15 207 114
71 122 177 257 203 257 15 0 39 -76 36 -115 -8 -97 -45 -315 -71 -417 -35
-138 -32 -173 22 -225 69 -65 161 -64 224 2 24 26 36 54 53 122 44 183 86 487
78 562 -20 186 -94 328 -200 382 -63 32 -180 24 -271 -19 -85 -40 -207 -159
-285 -277 l-53 -80 6 210 c8 307 -12 414 -94 508 -70 79 -188 113 -291 83z"/>
<path d="M4877 3006 c-102 -37 -157 -122 -157 -242 0 -45 -5 -75 -12 -81 -7
-6 -56 -32 -108 -58 -121 -62 -192 -110 -255 -172 -86 -85 -146 -225 -160
-373 -14 -154 53 -341 163 -459 54 -57 56 -61 34 -66 -13 -3 -53 -33 -89 -67
l-66 -61 -86 7 c-47 3 -133 10 -190 16 -122 11 -220 1 -329 -36 -172 -57 -275
-134 -414 -307 -40 -49 -85 -94 -103 -103 -19 -8 -56 -42 -84 -74 -94 -108
-177 -126 -301 -64 -120 61 -241 188 -313 330 -49 97 -141 145 -235 123 -90
-20 -134 -75 -135 -168 0 -66 26 -127 112 -256 130 -198 346 -377 532 -442
177 -61 363 -5 552 166 28 27 71 58 94 69 25 13 70 56 117 111 140 165 226
230 340 253 44 10 87 8 230 -7 144 -15 191 -17 252 -8 137 20 270 106 328 213
45 82 36 186 -21 251 -12 15 -9 18 29 27 55 14 125 74 149 126 23 50 24 124 4
173 -8 20 -33 55 -54 79 -49 52 -66 108 -51 163 12 44 45 70 210 161 240 133
316 222 342 398 15 103 -7 244 -47 302 -54 78 -178 111 -278 76z"/>
<path d="M3420 2333 c-100 -10 -199 -29 -445 -84 -148 -34 -277 -66 -285 -72
-115 -85 -133 -200 -46 -295 57 -63 111 -69 287 -32 173 36 409 76 500 86 l66
6 7 -42 c15 -94 73 -151 160 -158 134 -11 226 94 226 259 0 228 -188 361 -470
332z"/>
</g>
</svg>
