<?xml version="1.0" standalone="no"?>
<!DOCTYPE svg PUBLIC "-//W3C//DTD SVG 20010904//EN"
 "http://www.w3.org/TR/2001/REC-SVG-20010904/DTD/svg10.dtd">
<svg version="1.0" xmlns="http://www.w3.org/2000/svg"
 width="600.000000pt" height="600.000000pt" viewBox="0 0 600.000000 600.000000"
 preserveAspectRatio="xMidYMid meet">
<metadata>
Created by potrace 1.15, written by Peter Selinger 2001-2017
</metadata>
<g transform="translate(0.000000,600.000000) scale(0.100000,-0.100000)"
fill="#16364b" stroke="none">
<path d="M2262 5800 c-18 -11 -73 -55 -122 -99 -49 -43 -135 -111 -192 -151
-191 -136 -252 -185 -344 -275 -168 -167 -199 -274 -108 -375 116 -128 363
-113 754 45 63 26 158 63 210 82 118 43 135 53 160 103 38 75 18 164 -45 206
-50 33 -107 23 -261 -43 -132 -57 -303 -118 -310 -110 -2 1 43 39 99 82 166
131 333 282 351 319 21 44 21 108 0 152 -35 73 -129 104 -192 64z"/>
<path d="M3090 5670 c-20 -5 -49 -24 -67 -44 -28 -30 -33 -43 -33 -84 0 -57
28 -106 75 -133 17 -10 81 -29 143 -43 134 -30 204 -60 262 -112 60 -54 90
-122 90 -205 0 -171 -95 -301 -255 -350 -132 -40 -158 -53 -178 -87 -39 -67
-19 -141 53 -189 58 -40 162 -24 310 49 210 102 341 324 342 578 0 162 -66
315 -189 432 -96 91 -200 139 -368 171 -121 23 -147 26 -185 17z"/>
<path d="M956 5310 c-216 -110 -324 -298 -314 -546 4 -91 8 -109 41 -178 42
-89 115 -172 201 -228 48 -31 68 -38 108 -38 85 0 151 54 163 133 10 67 -15
118 -90 177 -77 60 -117 123 -123 195 -7 91 37 151 165 222 125 69 136 194 23
271 -46 31 -101 29 -174 -8z"/>
<path d="M4780 4952 c-46 -22 -70 -49 -95 -103 -26 -59 -26 -62 -15 -152 32
-258 112 -409 251 -472 119 -53 259 -20 330 77 116 161 49 407 -148 541 -115
79 -275 133 -323 109z"/>
<path d="M2700 4923 c-33 -13 -140 -95 -178 -138 -56 -63 -108 -169 -122 -244
-28 -156 48 -309 205 -411 124 -81 252 -105 314 -61 37 26 70 90 71 134 0 69
-49 128 -124 147 -154 39 -205 95 -162 178 17 33 77 90 130 125 53 35 76 73
76 127 0 53 -34 111 -80 135 -28 15 -100 19 -130 8z"/>
<path d="M1840 4394 c-100 -21 -185 -69 -266 -149 -55 -55 -73 -80 -82 -116
-29 -116 70 -226 185 -204 28 5 52 21 95 65 31 32 71 66 89 75 46 24 106 21
169 -9 81 -38 127 -32 186 26 60 57 66 155 13 221 -40 51 -199 109 -293 106
-17 0 -60 -7 -96 -15z"/>
<path d="M2552 3824 c-96 -16 -129 -31 -166 -74 -31 -38 -40 -69 -33 -117 9
-51 32 -81 82 -105 44 -22 46 -22 132 -5 87 17 123 20 196 18 38 -1 39 -1 32
-33 -29 -131 -237 -452 -419 -646 -47 -51 -91 -104 -96 -118 -25 -66 -1 -151
52 -184 39 -24 107 -26 148 -5 38 20 212 211 330 364 236 305 314 455 314 611
1 242 -216 354 -572 294z"/>
<path d="M4238 3794 c-190 -45 -338 -197 -338 -343 1 -101 63 -195 165 -249
44 -23 62 -27 145 -27 80 0 103 4 143 24 107 52 201 168 266 324 60 146 49
220 -39 265 -39 19 -59 22 -165 21 -66 0 -146 -7 -177 -15z m3 -315 c-25 -20
-67 -27 -55 -8 8 14 67 39 74 32 3 -2 -6 -13 -19 -24z"/>
<path d="M1145 3692 c-68 -20 -236 -95 -277 -124 -30 -21 -68 -93 -68 -129 0
-132 132 -236 249 -195 23 7 41 10 41 6 0 -20 -67 -166 -125 -270 -90 -162
-126 -244 -173 -390 -90 -279 -98 -329 -63 -398 32 -63 82 -95 165 -106 72 -9
119 8 184 66 127 114 464 451 567 567 103 115 110 121 113 95 9 -75 -51 -364
-110 -527 -47 -130 -67 -193 -138 -415 -57 -180 -59 -207 -14 -255 32 -35 63
-47 120 -47 90 0 139 47 182 175 111 330 201 648 242 860 12 61 28 132 36 159
19 66 18 245 -1 319 -18 70 -53 124 -102 157 -31 21 -48 25 -112 25 -53 0 -87
-5 -111 -18 -77 -38 -174 -124 -291 -257 -67 -77 -124 -140 -126 -140 -3 0 24
68 72 179 144 337 155 489 42 602 -20 20 -53 45 -74 55 -53 25 -154 28 -228 6z"/>
<path d="M3555 3381 c-124 -30 -213 -144 -250 -317 -31 -147 -13 -222 62 -258
108 -51 350 18 451 129 156 171 73 393 -166 444 -58 12 -54 12 -97 2z"/>
<path d="M4845 2655 c-88 -20 -140 -40 -191 -76 -50 -34 -99 -103 -109 -153
-14 -70 -12 -69 -59 -41 -136 80 -297 11 -325 -139 -7 -36 -4 -71 12 -147 11
-55 18 -102 15 -104 -3 -3 -50 7 -104 22 -77 21 -122 27 -204 27 -123 1 -169
-15 -244 -84 -89 -82 -126 -179 -126 -329 0 -110 51 -455 75 -504 76 -160 314
-184 405 -41 38 61 39 114 5 282 -14 68 -25 132 -25 143 0 25 16 21 121 -32
87 -44 136 -49 252 -24 130 27 217 96 257 201 31 85 43 215 31 346 -14 151
-15 145 8 124 11 -10 37 -24 58 -32 131 -46 273 27 348 179 66 136 81 244 42
312 -46 82 -108 99 -242 70z"/>
<path d="M2894 2420 c-69 -14 -212 -74 -374 -155 -174 -86 -213 -113 -236
-156 -17 -33 -23 -101 -12 -139 l7 -25 -83 0 c-72 0 -90 -4 -141 -30 -77 -40
-117 -94 -123 -169 -8 -101 51 -182 153 -207 28 -6 51 -13 52 -13 1 -1 18 -56
38 -121 l37 -120 -28 -20 c-110 -79 -169 -173 -184 -290 -23 -184 50 -331 246
-496 259 -217 487 -306 682 -265 79 16 258 97 318 143 40 30 84 111 84 156 0
77 -66 160 -147 183 -65 19 -103 10 -203 -48 -104 -60 -157 -63 -272 -13 -73
32 -206 121 -196 131 2 2 24 -4 48 -12 63 -22 119 -11 178 33 26 20 53 44 60
52 42 54 55 152 27 219 -9 20 -49 68 -88 107 -93 89 -129 158 -211 402 -35
104 -74 205 -85 225 l-22 36 53 0 c57 0 83 10 328 120 74 33 148 64 163 67 27
7 28 6 21 -21 -28 -121 -93 -275 -176 -415 -52 -89 -61 -123 -47 -181 12 -54
64 -119 109 -138 49 -20 142 -9 183 23 108 82 306 512 336 727 23 173 -51 310
-206 382 -55 26 -79 31 -157 34 -50 2 -109 -1 -132 -6z"/>
</g>
</svg>
