<?xml version="1.0" standalone="no"?>
<!DOCTYPE svg PUBLIC "-//W3C//DTD SVG 20010904//EN"
 "http://www.w3.org/TR/2001/REC-SVG-20010904/DTD/svg10.dtd">
<svg version="1.0" xmlns="http://www.w3.org/2000/svg"
 width="600.000000pt" height="600.000000pt" viewBox="0 0 600.000000 600.000000"
 preserveAspectRatio="xMidYMid meet">
<metadata>
Created by potrace 1.15, written by Peter Selinger 2001-2017
</metadata>
<g transform="translate(0.000000,600.000000) scale(0.100000,-0.100000)"
fill="#16364b" stroke="none">
<path d="M3132 5621 c-91 -48 -204 -341 -181 -465 29 -156 144 -229 389 -248
l35 -3 -75 -44 c-112 -66 -287 -182 -355 -235 -81 -64 -184 -164 -201 -198
-33 -64 -9 -145 58 -193 134 -96 249 -146 507 -220 106 -30 224 -69 261 -85
38 -17 86 -30 107 -30 126 0 186 166 94 258 -40 39 -73 51 -468 162 -127 36
-163 49 -163 61 0 28 250 199 460 315 147 81 220 136 245 185 24 46 19 120
-11 165 -31 46 -45 57 -104 88 -80 41 -143 56 -302 70 -86 7 -161 17 -167 21
-15 9 -9 29 46 148 37 81 44 106 40 138 -7 53 -29 85 -77 109 -48 24 -94 25
-138 1z"/>
<path d="M1468 5401 c-103 -52 -284 -230 -384 -377 -107 -155 -167 -292 -200
-455 -21 -102 -14 -166 23 -209 53 -63 98 -72 203 -40 72 22 361 85 428 93 23
3 42 1 42 -3 0 -10 -42 -83 -164 -287 -138 -232 -150 -259 -144 -347 8 -124
58 -181 158 -181 50 0 75 10 280 113 327 163 373 200 373 297 0 129 -130 188
-257 116 -31 -18 -59 -32 -61 -30 -1 2 24 49 56 104 100 168 123 288 75 391
-70 151 -234 179 -571 100 -33 -8 -62 -13 -64 -10 -6 6 84 149 151 238 74 98
149 178 204 216 74 52 93 129 52 210 -39 75 -123 101 -200 61z"/>
<path d="M4625 4440 c-155 -41 -369 -120 -397 -147 -74 -71 -54 -204 37 -247
49 -23 76 -19 231 40 68 26 127 45 130 41 9 -9 -68 -136 -224 -366 -116 -171
-146 -223 -150 -256 -6 -53 21 -112 61 -134 16 -9 47 -31 69 -49 22 -17 50
-34 62 -37 11 -3 95 -21 186 -41 191 -42 264 -65 268 -85 1 -8 -67 -124 -152
-258 -174 -273 -182 -294 -144 -368 12 -26 35 -56 50 -67 38 -27 117 -28 155
-1 58 43 347 497 382 602 30 89 28 175 -5 242 -48 97 -154 151 -406 211 -76
18 -138 36 -138 41 0 4 29 50 65 102 77 113 214 375 245 467 13 38 22 93 23
131 3 169 -130 237 -348 179z"/>
<path d="M3785 3644 c-70 -36 -95 -90 -76 -161 14 -52 111 -145 172 -165 59
-20 79 -51 72 -108 l-5 -45 -107 0 c-120 -1 -185 -19 -267 -76 -183 -125 -238
-304 -122 -393 79 -59 172 -37 232 57 58 90 69 96 185 90 88 -5 104 -3 145 16
55 27 86 73 86 130 0 31 5 43 18 47 62 19 81 35 107 88 23 48 27 65 23 124 -5
102 -48 181 -148 275 -128 121 -236 162 -315 121z"/>
<path d="M2442 3596 c-107 -29 -305 -127 -334 -167 -49 -66 -39 -157 23 -214
34 -30 46 -35 90 -35 42 0 63 7 126 46 88 53 190 94 235 94 l31 0 -6 -63 c-12
-127 -122 -401 -266 -666 -31 -55 -41 -86 -41 -119 0 -82 41 -122 144 -141 88
-16 124 -13 191 15 144 61 327 116 341 102 8 -8 -56 -148 -123 -270 -90 -164
-95 -223 -26 -299 93 -102 243 -116 317 -29 30 36 154 290 189 387 30 81 57
215 57 277 0 58 -26 142 -61 197 -80 126 -249 167 -471 115 -32 -7 -58 -10
-58 -6 0 4 16 41 35 83 19 41 49 117 67 169 28 82 32 106 33 203 0 100 -2 115
-27 166 -34 68 -86 121 -147 151 -70 34 -198 35 -319 4z"/>
<path d="M1100 3381 c-75 -23 -239 -125 -313 -193 -72 -68 -86 -155 -41 -247
49 -97 160 -138 248 -92 22 11 41 20 42 18 1 -1 -22 -110 -52 -242 -63 -285
-84 -434 -84 -598 0 -145 16 -191 77 -231 42 -27 145 -56 199 -56 58 0 90 25
165 133 40 56 136 190 214 297 78 107 174 242 214 299 l74 104 15 -29 c20 -37
8 -125 -47 -364 -71 -308 -85 -407 -86 -585 0 -153 1 -163 27 -217 59 -126
200 -164 287 -77 58 57 61 139 8 211 -18 25 -20 37 -14 136 8 136 37 324 82
530 60 277 65 343 46 577 -10 130 -35 198 -91 249 -68 62 -152 71 -242 27 -92
-44 -235 -209 -379 -437 -43 -69 -86 -135 -94 -147 -15 -21 -15 -21 -15 -1 0
34 69 403 92 489 13 49 21 112 22 165 0 73 -3 92 -26 136 -61 116 -208 181
-328 145z"/>
<path d="M4673 2173 c-66 -23 -129 -90 -149 -158 l-16 -58 -62 7 c-33 4 -108
11 -166 17 -299 31 -534 -52 -618 -218 -30 -58 -50 -139 -62 -243 -6 -52 -12
-96 -15 -98 -2 -2 -25 17 -52 43 -58 57 -134 107 -187 125 -24 8 -68 11 -115
8 -189 -11 -342 -141 -492 -415 -19 -35 -37 -63 -40 -63 -4 0 -12 46 -19 103
-31 262 -107 462 -199 524 -65 44 -164 40 -226 -9 -65 -51 -84 -166 -40 -254
53 -108 66 -164 90 -404 25 -249 58 -350 151 -464 125 -152 319 -212 421 -130
51 42 83 105 83 166 0 128 209 558 271 558 21 0 52 -26 213 -178 140 -132 207
-167 316 -167 64 0 82 4 121 27 62 37 132 116 148 168 21 71 41 201 51 328 5
68 11 126 14 129 13 13 152 5 309 -17 149 -21 177 -22 240 -12 217 37 357 211
357 443 0 117 -46 199 -135 240 -48 22 -133 24 -192 2z"/>
</g>
</svg>
