<?xml version="1.0" standalone="no"?>
<!DOCTYPE svg PUBLIC "-//W3C//DTD SVG 20010904//EN"
 "http://www.w3.org/TR/2001/REC-SVG-20010904/DTD/svg10.dtd">
<svg version="1.0" xmlns="http://www.w3.org/2000/svg"
 width="600.000000pt" height="600.000000pt" viewBox="0 0 600.000000 600.000000"
 preserveAspectRatio="xMidYMid meet">
<metadata>
Created by potrace 1.15, written by Peter Selinger 2001-2017
</metadata>
<g transform="translate(0.000000,600.000000) scale(0.100000,-0.100000)"
fill="#16364b" stroke="none">
<path d="M3559 5283 c-19 -5 -39 -44 -39 -77 0 -39 62 -148 116 -201 108 -109
223 -89 181 32 -16 47 -82 145 -132 196 -49 50 -80 63 -126 50z m131 -184 c23
-32 37 -59 32 -59 -21 0 -112 118 -112 146 0 14 39 -28 80 -87z"/>
<path d="M3013 5054 c-143 -71 -189 -294 -69 -334 30 -10 42 -8 79 8 98 43
177 151 177 240 0 35 -6 49 -29 73 -25 24 -38 29 -78 29 -26 0 -63 -8 -80 -16z
m103 -79 c11 -27 -6 -65 -48 -111 -43 -47 -91 -78 -102 -67 -10 11 -7 62 8 96
28 68 126 124 142 82z"/>
<path d="M4805 4731 c-48 -20 -54 -40 -70 -217 -18 -201 -19 -349 -4 -393 13
-36 35 -51 78 -51 48 0 80 36 92 105 12 67 8 489 -5 518 -7 14 -57 49 -68 46
-2 0 -12 -4 -23 -8z"/>
<path d="M2673 4230 c-57 -24 -69 -116 -21 -167 75 -81 347 -149 440 -110 45
19 72 66 63 107 -8 34 -57 80 -87 80 -11 0 -83 20 -160 45 -156 50 -202 59
-235 45z"/>
<path d="M1562 4187 c-53 -17 -118 -81 -136 -134 -20 -58 -20 -95 0 -162 12
-43 30 -67 102 -139 l88 -87 36 -110 c35 -105 68 -266 103 -495 16 -113 28
-278 45 -650 16 -339 41 -519 96 -686 100 -306 267 -440 624 -498 l35 -6 0
-163 c1 -179 12 -242 82 -455 44 -133 44 -132 -65 -132 -94 0 -138 -18 -158
-65 -14 -33 -13 -40 3 -73 26 -54 72 -75 153 -68 87 7 149 29 200 73 45 39 70
85 70 129 0 14 -22 92 -49 172 -68 202 -85 292 -86 439 0 67 3 125 7 129 4 4
40 1 80 -5 45 -8 227 -15 476 -18 l404 -6 -7 -31 c-22 -106 -25 -145 -14 -216
14 -99 55 -182 129 -262 33 -36 60 -68 60 -71 0 -2 -39 -7 -87 -10 -82 -5 -89
-7 -115 -36 -32 -36 -35 -70 -11 -108 24 -36 71 -53 146 -53 51 0 76 6 123 30
75 38 108 83 108 150 0 56 -20 90 -109 191 -79 88 -98 135 -99 234 -1 67 3 89
25 136 l27 56 96 12 c210 27 536 111 661 172 184 88 349 291 391 478 35 154 0
374 -84 536 -42 81 -154 200 -220 234 -122 62 -223 63 -405 4 l-112 -37 -195
0 c-176 0 -212 3 -371 32 -403 73 -517 130 -780 392 -207 206 -231 237 -492
636 -99 151 -201 264 -316 349 -44 33 -111 84 -148 113 -108 83 -214 111 -311
79z m151 -173 c18 -9 52 -33 77 -53 25 -20 64 -49 87 -65 68 -46 182 -172 267
-296 272 -395 341 -484 481 -626 327 -331 491 -423 913 -518 203 -46 273 -56
407 -56 128 0 267 20 380 56 263 83 397 8 487 -272 31 -99 31 -264 0 -349 -47
-126 -149 -242 -265 -301 -46 -24 -411 -130 -552 -161 -90 -20 -909 -30 -1080
-13 -60 5 -155 15 -210 20 -333 33 -492 106 -589 273 -39 66 -91 224 -111 337
-11 64 -19 196 -26 410 -13 466 -24 562 -109 942 -76 340 -104 406 -215 515
-62 60 -75 78 -75 105 0 63 62 88 133 52z"/>
<path d="M2448 2549 c-10 -5 -22 -19 -28 -29 -21 -40 35 -103 83 -92 18 4 47
50 47 77 0 40 -62 68 -102 44z"/>
<path d="M2878 2204 c-37 -19 -39 -70 -5 -102 40 -37 87 -24 106 29 12 35 2
62 -29 79 -25 13 -39 12 -72 -6z"/>
<path d="M5183 3969 c-93 -36 -163 -143 -163 -249 0 -106 44 -230 107 -300 71
-79 109 -95 223 -95 83 1 101 4 146 27 137 72 226 244 197 383 -20 96 -77 159
-197 224 -55 29 -65 31 -160 30 -76 0 -114 -5 -153 -20z m181 -299 c33 -12 33
-25 1 -46 -30 -20 -55 -5 -55 32 0 26 14 30 54 14z"/>
<path d="M4193 3751 c-49 -13 -116 -56 -157 -102 -55 -60 -78 -118 -78 -198
-1 -116 50 -198 154 -250 81 -41 186 -44 264 -7 146 68 209 232 153 399 -28
85 -38 98 -100 132 -43 23 -68 29 -129 31 -41 2 -89 -1 -107 -5z m77 -276 c0
-28 -36 -53 -53 -36 -7 7 -5 18 7 35 21 33 46 34 46 1z"/>
<path d="M487 1999 c-8 -11 -13 -28 -10 -37 9 -34 251 -172 302 -172 34 0 54
21 49 52 -2 19 -32 38 -153 100 -82 42 -155 77 -162 77 -6 1 -18 -8 -26 -20z"/>
<path d="M5319 1110 c-21 -13 -58 -98 -65 -152 -7 -56 19 -107 67 -132 32 -18
42 -18 77 -8 65 20 86 59 90 163 4 86 4 86 -28 112 -24 21 -42 27 -78 27 -26
0 -54 -5 -63 -10z"/>
</g>
</svg>
