<?xml version="1.0" standalone="no"?>
<!DOCTYPE svg PUBLIC "-//W3C//DTD SVG 20010904//EN"
 "http://www.w3.org/TR/2001/REC-SVG-20010904/DTD/svg10.dtd">
<svg version="1.0" xmlns="http://www.w3.org/2000/svg"
 width="600.000000pt" height="600.000000pt" viewBox="0 0 600.000000 600.000000"
 preserveAspectRatio="xMidYMid meet">
<metadata>
Created by potrace 1.15, written by Peter Selinger 2001-2017
</metadata>
<g transform="translate(0.000000,600.000000) scale(0.100000,-0.100000)"
fill="#16364b" stroke="none">
<path d="M3142 5650 c-36 -16 -47 -29 -72 -82 -74 -159 -98 -369 -52 -455 62
-118 147 -164 346 -189 l49 -6 -224 -147 c-394 -259 -429 -297 -411 -437 6
-41 17 -85 25 -98 27 -40 123 -96 219 -125 133 -42 505 -133 558 -138 130 -11
206 163 112 257 -16 16 -56 35 -100 49 -71 21 -334 86 -399 98 -18 3 -33 9
-33 13 0 10 229 166 437 298 224 142 263 185 263 287 0 82 -51 143 -161 195
-69 32 -152 51 -302 69 -48 5 -92 13 -98 17 -16 10 -4 82 26 156 47 114 29
193 -55 236 -54 27 -73 27 -128 2z"/>
<path d="M1412 5396 c-117 -56 -262 -183 -336 -295 -123 -187 -236 -482 -236
-617 0 -77 55 -137 136 -150 48 -7 109 9 141 38 35 33 452 133 471 114 3 -4
-40 -97 -96 -209 -92 -183 -132 -288 -132 -346 0 -11 -9 -35 -20 -53 -29 -47
-27 -120 5 -174 30 -52 100 -90 147 -80 17 3 119 56 227 118 302 171 321 184
343 236 34 77 3 157 -76 193 -59 27 -86 24 -171 -21 -41 -22 -75 -36 -75 -32
0 4 31 70 69 145 121 238 129 350 32 447 -29 29 -65 53 -96 64 -103 35 -273
31 -443 -11 -34 -9 -65 -13 -68 -10 -9 9 56 129 101 187 60 77 108 120 193
174 60 39 77 55 94 93 23 52 20 103 -10 142 -52 70 -118 85 -200 47z"/>
<path d="M4640 4451 c-146 -33 -304 -80 -330 -99 -80 -58 -78 -203 4 -253 44
-27 92 -24 223 16 64 19 118 33 120 31 8 -8 -128 -209 -205 -303 -182 -223
-167 -199 -167 -264 0 -52 3 -61 34 -93 19 -19 47 -38 63 -42 25 -5 29 -10 23
-27 -18 -61 -17 -104 4 -145 26 -51 45 -61 223 -118 172 -56 248 -88 248 -107
0 -18 -60 -117 -160 -262 -105 -152 -117 -181 -101 -236 31 -104 159 -139 239
-65 34 30 201 267 255 361 32 54 52 105 63 156 15 70 15 79 0 133 -21 72 -76
133 -165 185 -67 39 -316 139 -404 163 -31 8 -46 17 -43 25 3 7 41 59 84 115
108 141 257 365 309 468 45 89 67 173 57 219 -34 140 -163 189 -374 142z"/>
<path d="M3810 3674 c-53 -38 -75 -93 -65 -161 6 -41 16 -54 117 -153 92 -88
114 -115 123 -151 7 -24 16 -52 20 -62 6 -15 0 -14 -46 8 -106 49 -270 29
-400 -47 -98 -58 -178 -150 -200 -230 -29 -109 78 -215 192 -189 54 12 80 34
119 98 30 48 40 57 60 55 166 -21 244 -10 296 42 53 53 62 124 25 194 -11 20
-10 20 38 4 46 -14 53 -14 95 2 80 31 114 109 89 205 -14 57 -30 84 -108 176
-28 33 -61 77 -73 97 -33 54 -143 121 -207 126 -37 2 -57 -1 -75 -14z"/>
<path d="M2531 3629 c-80 -14 -254 -74 -332 -115 -57 -30 -72 -44 -90 -81 -35
-71 -16 -134 56 -189 59 -44 107 -44 212 4 102 48 211 79 237 69 16 -6 18 -15
13 -55 -3 -26 -16 -78 -28 -117 -27 -82 -169 -366 -254 -510 -51 -84 -60 -107
-60 -146 0 -65 25 -95 121 -146 111 -59 141 -58 360 14 96 31 176 54 179 51 9
-9 -33 -113 -106 -266 -83 -171 -89 -217 -40 -294 68 -107 248 -133 328 -47
72 79 207 458 228 641 12 105 -27 230 -93 296 -87 86 -213 104 -391 57 -52
-14 -96 -24 -98 -22 -2 2 14 42 36 88 87 190 126 348 119 483 -10 183 -100
275 -283 290 -33 3 -84 0 -114 -5z"/>
<path d="M1110 3404 c-118 -31 -293 -140 -363 -226 -78 -96 -21 -255 104 -288
46 -13 87 -6 143 22 l39 20 -8 -49 c-3 -26 -29 -139 -56 -250 -80 -331 -110
-495 -112 -613 -2 -82 2 -112 15 -136 26 -47 83 -92 125 -99 21 -4 52 -11 70
-16 43 -14 104 4 148 42 19 17 86 99 148 182 218 292 351 473 398 540 l48 69
16 -32 c21 -42 14 -117 -36 -380 -84 -442 -108 -674 -79 -768 15 -49 69 -116
112 -138 85 -44 196 2 227 95 16 50 14 72 -14 127 -17 33 -25 65 -25 101 0 58
34 266 85 513 57 279 65 407 34 535 -6 22 -16 93 -24 159 -21 179 -69 257
-169 273 -100 16 -181 -45 -332 -250 -54 -73 -136 -184 -183 -247 -47 -63 -87
-117 -88 -119 -2 -2 -5 -2 -7 0 -2 2 19 78 45 169 68 227 91 344 91 470 1 85
-4 116 -21 162 -49 126 -170 175 -331 132z"/>
<path d="M4658 2219 c-75 -21 -147 -106 -162 -191 -4 -22 -13 -38 -20 -38 -8
0 -67 9 -131 20 -285 49 -483 11 -612 -118 -99 -99 -139 -209 -152 -426 -4
-75 -11 -139 -14 -142 -3 -3 -42 26 -87 64 -155 135 -231 172 -351 172 -127 0
-251 -62 -334 -168 -25 -31 -68 -101 -96 -155 -28 -54 -52 -97 -54 -95 -2 2
-11 62 -20 133 -21 172 -31 225 -61 316 -49 150 -109 209 -214 209 -61 0 -96
-17 -138 -64 -60 -68 -63 -124 -13 -260 24 -62 43 -187 60 -381 31 -346 153
-536 382 -590 113 -26 177 -15 240 42 45 41 63 93 54 157 -6 36 1 61 44 168
56 141 109 251 138 287 l19 23 60 -48 c32 -26 104 -94 159 -150 105 -107 158
-141 254 -164 91 -21 196 4 269 65 35 29 127 160 148 210 18 44 34 205 34 345
l0 120 61 0 c34 0 109 -7 168 -16 58 -9 167 -17 241 -17 163 -1 219 16 303 93
82 75 110 145 115 287 6 163 -19 224 -116 288 -43 28 -120 39 -174 24z"/>
</g>
</svg>
