<?xml version="1.0" standalone="no"?>
<!DOCTYPE svg PUBLIC "-//W3C//DTD SVG 20010904//EN"
 "http://www.w3.org/TR/2001/REC-SVG-20010904/DTD/svg10.dtd">
<svg version="1.0" xmlns="http://www.w3.org/2000/svg"
 width="600.000000pt" height="600.000000pt" viewBox="0 0 600.000000 600.000000"
 preserveAspectRatio="xMidYMid meet">
<metadata>
Created by potrace 1.15, written by Peter Selinger 2001-2017
</metadata>
<g transform="translate(0.000000,600.000000) scale(0.100000,-0.100000)"
fill="#16364b" stroke="none">
<path d="M2384 5400 c-12 -4 -24 -16 -28 -25 -3 -9 -5 -98 -5 -198 1 -101 -4
-211 -11 -246 -26 -144 -102 -300 -174 -357 -19 -16 -66 -45 -103 -65 -62 -34
-68 -40 -71 -72 -3 -29 2 -39 23 -53 33 -22 78 -10 161 44 81 53 155 139 202
236 85 174 109 314 97 550 -7 138 -9 151 -31 173 -25 25 -29 26 -60 13z"/>
<path d="M3510 5248 c-26 -44 -25 -62 9 -133 71 -151 227 -249 291 -185 44 44
18 130 -75 250 -57 74 -98 100 -159 100 -42 0 -48 -3 -66 -32z"/>
<path d="M3015 5095 c-23 -15 -51 -42 -63 -60 -52 -76 -88 -218 -70 -282 10
-38 51 -73 85 -73 87 0 219 153 239 278 19 122 -92 202 -191 137z m85 -117 c0
-34 -36 -101 -76 -138 l-37 -35 7 48 c7 54 26 97 58 127 28 26 48 26 48 -2z"/>
<path d="M4774 4751 c-40 -25 -51 -58 -58 -192 -12 -197 22 -426 72 -485 62
-73 150 -52 184 44 19 54 16 277 -6 382 -48 234 -103 305 -192 251z"/>
<path d="M2645 4206 c-45 -19 -85 -71 -85 -109 0 -106 169 -200 360 -201 149
-1 240 50 240 134 0 48 -38 96 -83 105 -17 4 -68 18 -112 32 -93 29 -213 53
-258 53 -18 -1 -46 -7 -62 -14z"/>
<path d="M5345 3980 c-155 -14 -261 -79 -316 -195 -58 -122 -32 -255 70 -354
75 -73 129 -95 231 -96 76 0 92 3 152 33 79 39 130 92 171 180 41 87 44 193 9
262 -33 63 -78 107 -142 139 -70 36 -89 39 -175 31z m34 -310 c11 -6 9 -12 -8
-29 -28 -28 -49 -27 -63 5 -19 41 17 53 71 24z"/>
<path d="M4223 3750 c-180 -37 -297 -217 -248 -385 23 -81 105 -163 188 -189
170 -53 353 63 387 247 13 65 -4 192 -31 237 -39 63 -194 110 -296 90z m57
-268 c0 -15 -32 -52 -45 -52 -23 0 -25 16 -4 38 19 21 49 30 49 14z"/>
<path d="M1258 3736 c-135 -36 -216 -152 -206 -294 11 -147 95 -237 287 -309
147 -55 222 -188 304 -543 48 -205 101 -457 127 -605 58 -331 128 -496 265
-624 35 -33 96 -78 134 -101 l69 -41 -15 -30 c-37 -74 15 -164 109 -190 52
-14 227 -14 358 0 186 21 290 8 290 -34 0 -76 97 -110 150 -53 41 45 11 141
-62 192 -12 9 -18 16 -13 16 6 0 156 1 335 3 494 5 798 30 950 79 119 38 318
132 412 194 127 85 303 279 370 408 68 133 90 407 45 564 -36 124 -97 222
-207 332 -145 146 -275 205 -446 203 -138 -2 -292 -55 -394 -137 -190 -152
-241 -187 -359 -246 -145 -72 -290 -106 -406 -95 -177 16 -468 157 -683 330
-91 74 -172 162 -306 335 -167 214 -368 399 -541 495 -91 51 -288 133 -360
150 -73 18 -144 18 -207 1z m260 -297 c260 -108 371 -200 630 -523 75 -93 175
-208 222 -256 379 -381 856 -564 1215 -467 253 69 490 189 654 331 92 80 185
113 291 103 115 -10 202 -67 279 -182 91 -136 118 -260 87 -404 -26 -122 -87
-233 -181 -327 -70 -71 -95 -88 -205 -142 -172 -85 -270 -111 -450 -123 -80
-5 -237 -18 -350 -30 -288 -28 -423 -32 -670 -20 -118 6 -296 13 -395 14 -122
3 -196 9 -230 19 -68 20 -147 62 -189 98 -101 90 -173 285 -206 565 -5 50 -15
110 -20 135 -5 25 -28 146 -51 269 -52 283 -84 395 -160 548 -91 185 -183 277
-340 338 -34 14 -73 35 -86 47 -65 61 16 65 155 7z"/>
<path d="M2306 2409 c-35 -28 -33 -61 5 -93 33 -28 38 -29 64 -20 17 7 45 54
45 77 0 22 -39 57 -64 57 -13 0 -35 -9 -50 -21z"/>
<path d="M2824 2044 c-22 -32 -10 -69 27 -91 34 -21 72 -11 87 22 26 57 1 95
-61 95 -28 0 -40 -6 -53 -26z"/>
<path d="M3435 3328 c-42 -50 -147 -266 -143 -296 2 -16 13 -32 31 -42 24 -13
30 -13 54 0 15 9 49 42 76 75 99 123 136 244 85 279 -36 26 -73 20 -103 -16z"/>
<path d="M454 1995 c-23 -35 -12 -57 69 -125 82 -69 194 -130 241 -130 79 0
103 70 44 128 -42 40 -268 152 -308 152 -20 0 -34 -8 -46 -25z"/>
<path d="M5354 1110 c-49 -20 -90 -167 -64 -230 32 -77 144 -79 190 -5 26 43
37 144 20 186 -20 48 -91 72 -146 49z"/>
</g>
</svg>
