<?xml version="1.0" standalone="no"?>
<!DOCTYPE svg PUBLIC "-//W3C//DTD SVG 20010904//EN"
 "http://www.w3.org/TR/2001/REC-SVG-20010904/DTD/svg10.dtd">
<svg version="1.0" xmlns="http://www.w3.org/2000/svg"
 width="600.000000pt" height="600.000000pt" viewBox="0 0 600.000000 600.000000"
 preserveAspectRatio="xMidYMid meet">
<metadata>
Created by potrace 1.15, written by Peter Selinger 2001-2017
</metadata>
<g transform="translate(0.000000,600.000000) scale(0.100000,-0.100000)"
fill="#16364b" stroke="none">
<path d="M2032 5070 c-108 -22 -194 -101 -228 -209 -20 -64 -15 -170 16 -361
16 -97 22 -205 30 -477 5 -194 11 -367 14 -385 3 -18 2 -258 -2 -533 l-8 -500
-240 -242 c-194 -196 -243 -240 -256 -232 -21 12 -32 -4 -23 -33 6 -18 4 -20
-15 -15 -49 13 -67 -19 -27 -48 15 -12 18 -19 9 -22 -21 -8 -43 -34 -37 -44 4
-5 23 -9 43 -9 28 0 33 -3 24 -12 -18 -18 -15 -48 5 -48 20 0 133 71 133 84 0
6 51 62 113 125 62 64 145 149 184 190 l70 74 8 -129 c16 -294 101 -610 204
-756 95 -137 237 -229 411 -266 l84 -18 -3 -130 c-3 -153 14 -246 84 -448 25
-72 45 -138 45 -147 0 -19 -39 -29 -117 -29 -121 0 -185 -90 -115 -160 37 -37
89 -46 175 -32 77 14 119 32 160 71 71 65 74 122 13 311 -68 210 -89 321 -84
445 2 57 6 107 10 110 3 3 52 1 109 -5 98 -11 264 -8 782 15 l108 5 -8 -53
c-21 -139 16 -416 82 -606 14 -41 22 -78 18 -82 -5 -4 -50 -9 -101 -11 -91 -3
-94 -4 -123 -36 -48 -54 -35 -123 31 -157 73 -38 237 -6 297 57 65 70 69 118
18 272 -88 268 -105 606 -32 620 12 3 120 16 240 31 245 29 302 45 380 109
112 91 186 226 223 406 22 111 15 343 -14 440 -49 164 -128 286 -275 425 -79
76 -94 95 -76 95 67 0 386 -54 401 -67 16 -14 27 -14 94 -3 76 13 97 28 75 53
-7 10 -7 17 1 25 6 6 7 18 3 29 -4 10 -8 27 -9 38 -1 16 -7 19 -31 17 -48 -4
-75 6 -75 28 0 24 -18 26 -35 3 -11 -15 -26 -14 -201 10 -104 14 -214 29 -244
32 -30 3 -106 13 -169 22 -99 15 -121 21 -160 50 -153 109 -297 203 -451 293
-403 236 -538 358 -752 680 -116 173 -195 337 -253 525 -74 234 -113 343 -146
405 -80 150 -243 239 -387 210z m124 -153 c74 -28 139 -115 173 -232 36 -121
136 -407 170 -483 73 -165 201 -390 289 -507 71 -97 248 -273 355 -354 80 -61
149 -105 442 -279 94 -55 207 -129 252 -164 46 -35 171 -130 278 -211 235
-178 311 -247 365 -334 76 -119 104 -215 115 -393 15 -219 -79 -436 -217 -506
-40 -20 -92 -30 -281 -55 -324 -41 -475 -50 -890 -52 -597 -3 -718 8 -849 74
-81 41 -171 127 -216 208 -41 74 -83 193 -114 325 -26 112 -28 251 -10 1096 9
415 9 643 2 784 -5 109 -10 255 -10 323 0 131 -19 321 -49 497 -27 154 -10
215 72 255 47 23 77 25 123 8z m-766 -2897 c0 -5 -2 -10 -4 -10 -3 0 -8 5 -11
10 -3 6 -1 10 4 10 6 0 11 -4 11 -10z"/>
<path d="M2660 2757 c-55 -27 -23 -117 41 -117 21 0 32 7 44 30 20 39 19 47
-10 75 -27 28 -39 30 -75 12z"/>
<path d="M3066 2634 c-25 -24 -20 -69 10 -93 34 -27 50 -26 79 4 47 46 24 105
-40 105 -18 0 -41 -7 -49 -16z"/>
<path d="M5258 3971 c-171 -55 -265 -199 -238 -367 22 -138 99 -239 206 -270
49 -14 68 -15 126 -5 147 24 263 104 319 217 27 55 32 77 33 137 0 121 -53
208 -169 272 -57 32 -69 35 -141 34 -47 0 -102 -7 -136 -18z m147 -312 c11
-12 -28 -49 -51 -49 -16 0 -29 43 -19 60 8 13 53 5 70 -11z"/>
<path d="M5300 1101 c-17 -16 -36 -52 -45 -85 -33 -114 13 -206 103 -206 85 0
149 150 111 259 -22 64 -119 83 -169 32z"/>
</g>
</svg>
