<?xml version="1.0" standalone="no"?>
<!DOCTYPE svg PUBLIC "-//W3C//DTD SVG 20010904//EN"
 "http://www.w3.org/TR/2001/REC-SVG-20010904/DTD/svg10.dtd">
<svg version="1.0" xmlns="http://www.w3.org/2000/svg"
 width="600.000000pt" height="600.000000pt" viewBox="0 0 600.000000 600.000000"
 preserveAspectRatio="xMidYMid meet">
<metadata>
Created by potrace 1.15, written by Peter Selinger 2001-2017
</metadata>
<g transform="translate(0.000000,600.000000) scale(0.100000,-0.100000)"
fill="#16364b" stroke="none">
<path d="M3012 5050 c-37 -23 -87 -97 -102 -150 -27 -96 1 -170 65 -170 69 0
182 106 206 193 13 51 -1 109 -34 132 -30 21 -96 19 -135 -5z m106 -42 c34
-34 -2 -123 -74 -187 -52 -45 -79 -52 -89 -20 -30 95 104 266 163 207z"/>
<path d="M1860 4711 c-139 -45 -217 -157 -208 -294 3 -47 13 -80 42 -136 92
-180 112 -310 126 -825 5 -188 14 -386 20 -441 5 -55 9 -275 8 -490 -4 -637
30 -824 185 -1030 99 -131 256 -220 469 -264 l57 -12 -7 -47 c-4 -26 -7 -103
-6 -172 1 -105 6 -145 32 -251 18 -69 41 -152 52 -184 11 -32 20 -69 20 -82 0
-22 -3 -23 -80 -23 -47 0 -95 -6 -115 -14 -67 -28 -91 -112 -46 -160 72 -76
296 -38 370 64 49 68 50 109 3 262 -23 73 -48 160 -57 193 -22 83 -31 265 -15
339 l12 58 31 -7 c61 -14 294 -16 592 -6 165 6 309 8 321 5 21 -5 21 -7 7 -72
-25 -114 1 -301 73 -538 19 -64 32 -119 29 -125 -4 -5 -37 -9 -75 -9 -41 0
-86 -7 -110 -16 -94 -38 -91 -143 6 -180 40 -15 55 -16 111 -7 85 15 164 55
199 100 44 58 43 106 -6 258 -50 155 -89 346 -90 431 0 34 7 84 16 111 l16 50
114 12 c134 15 311 50 433 87 210 63 357 204 420 402 112 349 46 542 -271 788
-131 102 -166 122 -393 223 -99 43 -205 93 -235 109 -30 17 -132 62 -227 101
-377 154 -599 295 -806 510 -133 139 -183 217 -324 496 -123 245 -162 317
-253 460 -31 50 -70 112 -85 139 -66 117 -163 186 -269 192 -33 2 -72 0 -86
-5z m113 -165 c42 -17 113 -97 142 -159 13 -27 32 -58 43 -70 40 -45 137 -219
249 -447 63 -129 143 -278 178 -330 75 -113 246 -297 360 -385 172 -135 445
-288 695 -390 63 -26 140 -60 170 -77 30 -16 144 -67 253 -114 255 -108 251
-106 387 -211 133 -102 187 -172 221 -285 64 -211 -61 -520 -247 -607 -97 -46
-402 -106 -618 -121 -200 -15 -921 -16 -981 -2 -27 6 -105 18 -172 27 -218 27
-363 86 -457 184 -118 125 -159 265 -187 643 -10 132 -10 212 -1 385 11 197
10 240 -7 448 -11 127 -25 352 -31 500 -19 460 -43 618 -119 781 -54 114 -55
162 -7 210 38 38 74 44 129 20z"/>
<path d="M2550 2667 c-38 -19 -40 -77 -4 -106 35 -27 69 -27 88 1 24 34 20 73
-10 97 -31 24 -40 25 -74 8z"/>
<path d="M3007 2450 c-35 -27 -35 -62 -1 -89 35 -27 65 -27 92 2 59 63 -23
140 -91 87z"/>
<path d="M5245 3966 c-161 -51 -247 -194 -216 -361 23 -123 89 -221 176 -261
140 -66 371 5 462 140 42 62 56 116 50 191 -9 114 -77 208 -199 273 -56 29
-68 32 -147 31 -47 0 -104 -6 -126 -13z m170 -297 c11 -12 -27 -49 -51 -49
-17 0 -37 47 -28 62 7 12 64 3 79 -13z"/>
<path d="M4213 3756 c-135 -43 -248 -188 -247 -321 0 -37 6 -72 17 -91 59
-112 208 -173 347 -144 148 31 228 144 218 309 -5 90 -40 177 -84 208 -69 49
-169 64 -251 39z m63 -261 c8 -20 -13 -45 -37 -45 -23 0 -24 9 -3 38 18 26 32
28 40 7z"/>
<path d="M5346 1091 c-23 -25 -56 -123 -56 -166 0 -126 146 -159 205 -46 36
71 27 184 -18 216 -31 22 -110 20 -131 -4z"/>
</g>
</svg>
