<?xml version="1.0" standalone="no"?>
<!DOCTYPE svg PUBLIC "-//W3C//DTD SVG 20010904//EN"
 "http://www.w3.org/TR/2001/REC-SVG-20010904/DTD/svg10.dtd">
<svg version="1.0" xmlns="http://www.w3.org/2000/svg"
 width="600.000000pt" height="600.000000pt" viewBox="0 0 600.000000 600.000000"
 preserveAspectRatio="xMidYMid meet">
<metadata>
Created by potrace 1.15, written by Peter Selinger 2001-2017
</metadata>
<g transform="translate(0.000000,600.000000) scale(0.100000,-0.100000)"
fill="#16364b" stroke="none">
<path d="M1538 5763 c-16 -4 -136 -149 -237 -286 -88 -120 -104 -201 -52 -259
27 -31 34 -33 89 -32 52 1 78 10 187 62 162 79 336 184 369 223 56 66 9 159
-81 159 -14 0 -55 -16 -90 -35 -34 -20 -63 -34 -63 -31 0 3 9 20 20 38 57 94
-29 191 -142 161z"/>
<path d="M2370 5436 c-14 -8 -31 -25 -37 -38 -7 -13 -14 -104 -17 -218 -10
-369 -72 -519 -258 -627 -92 -54 -118 -82 -118 -130 0 -47 54 -103 99 -103 57
0 190 81 274 166 143 145 203 338 214 690 l6 200 -29 33 c-34 38 -94 50 -134
27z"/>
<path d="M3530 5312 c-44 -22 -83 -93 -74 -137 32 -159 199 -321 311 -300 48
9 113 71 114 111 3 90 -24 160 -92 238 -46 52 -81 73 -154 92 -63 17 -63 17
-105 -4z"/>
<path d="M2970 5149 c-94 -43 -180 -171 -180 -270 0 -152 179 -239 331 -160
66 34 87 58 98 113 14 65 14 186 0 229 -33 99 -141 137 -249 88z"/>
<path d="M4763 4750 c-57 -34 -65 -56 -64 -182 0 -124 9 -184 41 -279 56 -168
157 -269 268 -269 64 0 138 44 180 108 37 55 37 56 37 156 -1 83 -5 110 -24
151 -68 149 -273 335 -371 335 -19 0 -49 -9 -67 -20z m226 -440 c0 -10 -3 -8
-9 5 -12 27 -12 43 0 25 5 -8 9 -22 9 -30z"/>
<path d="M2652 4227 c-125 -47 -180 -193 -123 -323 27 -59 61 -97 121 -132 41
-24 55 -27 145 -27 92 0 104 2 154 30 69 38 186 151 206 198 18 43 19 90 4
120 -26 49 -55 68 -163 103 -91 30 -129 37 -211 40 -64 2 -112 -1 -133 -9z"/>
<path d="M1084 4091 c-32 -20 -64 -74 -64 -110 0 -30 24 -83 47 -103 10 -10
50 -25 88 -33 81 -19 135 -40 135 -53 0 -10 -99 -56 -141 -66 -14 -3 -69 -12
-122 -20 -128 -19 -176 -55 -177 -134 0 -46 23 -86 66 -112 33 -21 44 -22 152
-17 229 10 418 102 478 232 49 105 16 251 -74 325 -106 88 -313 137 -388 91z"/>
<path d="M4166 3764 c-101 -24 -177 -88 -211 -177 -24 -65 -17 -202 14 -274
28 -64 100 -133 164 -158 68 -26 179 -17 238 18 119 70 195 193 224 356 26
148 -17 198 -199 236 -91 18 -151 18 -230 -1z m112 -306 c-18 -27 -58 -37 -58
-14 0 17 27 35 54 36 17 0 17 -2 4 -22z"/>
<path d="M1655 3693 c-67 -19 -94 -65 -102 -177 -10 -148 33 -251 131 -306 95
-55 201 -37 278 48 48 53 62 99 56 184 -5 59 -11 77 -42 123 -39 56 -65 77
-131 108 -40 19 -152 31 -190 20z"/>
<path d="M5166 3639 c-117 -40 -200 -109 -253 -212 -25 -46 -28 -63 -28 -147
0 -108 17 -152 83 -218 60 -60 104 -77 202 -77 73 0 93 4 142 28 66 32 145
113 177 181 47 100 51 194 12 281 -20 45 -102 132 -156 166 -39 25 -104 24
-179 -2z m54 -311 c0 -14 -30 -48 -42 -48 -13 0 -9 22 9 42 18 21 33 23 33 6z"/>
<path d="M3445 3378 c-85 -46 -215 -244 -215 -326 0 -68 59 -111 135 -99 130
21 233 150 243 304 4 70 4 73 -26 102 -25 25 -39 31 -74 31 -24 0 -52 -6 -63
-12z"/>
<path d="M2615 3219 c-149 -18 -287 -60 -437 -135 -66 -32 -133 -76 -273 -174
-38 -27 -108 -68 -155 -91 -171 -83 -337 -216 -429 -346 -84 -117 -130 -253
-138 -408 -8 -147 12 -249 73 -373 54 -110 90 -149 374 -401 213 -189 281
-234 421 -283 90 -31 100 -33 249 -33 154 0 156 1 268 39 251 86 580 314 818
566 73 78 213 260 249 324 124 224 91 450 -101 681 -40 50 -99 122 -130 160
-31 39 -80 95 -109 125 -29 30 -58 70 -65 88 -19 48 -129 144 -218 190 -133
69 -244 89 -397 71z m195 -426 c20 -21 75 -73 122 -115 47 -42 112 -112 144
-155 32 -43 79 -103 104 -133 126 -148 156 -216 127 -291 -9 -24 -27 -55 -40
-69 -12 -14 -49 -60 -81 -102 -31 -43 -85 -103 -119 -134 -93 -85 -326 -254
-351 -254 -4 0 -33 -18 -64 -39 -79 -53 -185 -106 -257 -127 -126 -37 -274
-16 -365 51 -19 14 -119 109 -222 211 -213 211 -228 235 -236 358 -12 198 86
363 257 431 138 56 289 136 366 195 181 139 242 171 370 195 39 7 101 13 139
14 68 1 71 0 106 -36z"/>
<path d="M419 2245 c-37 -20 -59 -58 -59 -104 0 -53 42 -192 86 -287 81 -173
176 -282 292 -337 55 -26 71 -29 136 -25 57 2 81 9 109 28 52 36 80 90 79 157
-1 168 -157 354 -418 499 -58 33 -115 65 -127 71 -29 17 -66 16 -98 -2z m401
-506 c0 -18 -71 53 -94 93 -15 27 -8 23 38 -24 31 -31 56 -62 56 -69z"/>
<path d="M4545 1848 c-11 -6 -30 -19 -41 -30 -21 -19 -23 -19 -55 -2 -70 36
-159 14 -198 -49 -17 -27 -21 -51 -21 -112 0 -95 33 -262 66 -335 59 -130 179
-192 280 -144 63 30 88 96 134 351 35 198 36 234 13 274 -30 51 -125 76 -178
47z"/>
</g>
</svg>
