<?xml version="1.0" standalone="no"?>
<!DOCTYPE svg PUBLIC "-//W3C//DTD SVG 20010904//EN"
 "http://www.w3.org/TR/2001/REC-SVG-20010904/DTD/svg10.dtd">
<svg version="1.0" xmlns="http://www.w3.org/2000/svg"
 width="600.000000pt" height="600.000000pt" viewBox="0 0 600.000000 600.000000"
 preserveAspectRatio="xMidYMid meet">
<metadata>
Created by potrace 1.15, written by Peter Selinger 2001-2017
</metadata>
<g transform="translate(0.000000,600.000000) scale(0.100000,-0.100000)"
fill="#16364b" stroke="none">
<path d="M1613 5770 c-46 -27 -62 -57 -89 -162 -59 -232 -77 -492 -40 -596 36
-104 112 -162 213 -162 122 0 201 76 369 356 154 256 177 301 169 344 -13 73
-69 120 -143 120 -77 0 -94 -18 -221 -230 -92 -155 -117 -190 -119 -170 -5 34
15 157 44 265 13 50 24 106 24 125 0 99 -120 163 -207 110z"/>
<path d="M3193 5580 c-45 -27 -66 -73 -61 -131 3 -26 12 -59 21 -72 9 -14 62
-60 119 -104 98 -76 288 -263 288 -283 0 -6 -15 -10 -32 -10 -70 0 -131 -62
-131 -133 0 -54 15 -82 61 -111 137 -85 320 -70 387 33 70 108 49 226 -72 401
-98 140 -190 228 -382 364 -104 73 -140 82 -198 46z"/>
<path d="M900 5460 c-125 -26 -236 -116 -293 -238 -40 -86 -50 -224 -22 -300
41 -109 143 -219 226 -242 44 -13 98 3 131 37 59 64 50 125 -33 204 -52 50
-59 61 -59 95 0 52 27 103 70 132 31 21 43 23 100 18 56 -5 70 -3 104 16 102
60 100 209 -4 260 -43 21 -159 30 -220 18z"/>
<path d="M2985 5161 c-50 -13 -89 -37 -134 -86 -62 -67 -85 -125 -85 -215 -1
-90 18 -129 83 -175 40 -28 48 -30 139 -30 80 0 106 5 150 24 79 36 96 65 100
182 9 224 -88 340 -253 300z"/>
<path d="M2272 4895 c-19 -8 -43 -32 -60 -59 -15 -25 -38 -49 -52 -55 -14 -5
-72 -27 -129 -47 -115 -42 -156 -74 -167 -129 -9 -48 1 -78 37 -120 55 -63 87
-64 256 -9 82 27 166 61 192 78 60 41 98 98 112 168 10 50 9 65 -6 104 -29 76
-103 104 -183 69z"/>
<path d="M4739 4806 c-53 -36 -64 -73 -63 -198 5 -373 225 -628 446 -517 98
49 158 140 166 250 12 167 -89 304 -320 436 -110 63 -168 71 -229 29z"/>
<path d="M2793 4111 c-64 -17 -122 -60 -153 -114 -49 -86 -37 -178 33 -254
117 -127 353 -157 597 -75 184 61 238 120 216 237 -16 83 -79 119 -306 177
-122 31 -322 46 -387 29z"/>
<path d="M1075 4070 c-65 -10 -94 -22 -128 -54 -35 -32 -47 -65 -47 -127 0
-52 24 -111 57 -141 43 -39 86 -48 202 -41 77 4 111 3 111 -5 0 -17 -111 -152
-176 -213 -52 -49 -133 -116 -376 -316 -76 -62 -104 -116 -95 -182 13 -102 83
-171 172 -171 44 0 62 6 103 34 l50 33 21 -28 c29 -39 88 -56 142 -40 23 7 42
11 43 9 1 -2 7 -15 14 -30 7 -17 33 -40 66 -58 153 -86 177 -225 76 -435 -45
-93 -91 -151 -157 -194 -55 -37 -71 -38 -139 -10 -69 29 -115 20 -166 -31 -34
-33 -38 -43 -38 -87 0 -73 37 -118 125 -152 162 -62 331 -17 470 124 226 231
308 591 189 827 -33 66 -112 149 -169 179 -25 13 -44 28 -42 34 5 14 131 81
217 114 l74 29 28 -24 c75 -62 201 -36 242 51 14 29 16 52 10 136 -8 118 -25
152 -94 187 -50 25 -90 23 -150 -9 -30 -16 -216 -89 -226 -89 -2 0 22 35 53
78 81 111 105 171 111 268 4 72 1 89 -20 136 -49 106 -128 166 -255 193 -72
15 -214 18 -298 5z"/>
<path d="M4186 3769 c-61 -15 -155 -69 -192 -113 -132 -155 -77 -405 110 -492
38 -18 69 -24 118 -24 210 0 385 191 404 440 6 72 -11 113 -61 146 -66 43
-276 67 -379 43z m69 -319 c-19 -21 -55 -27 -55 -10 0 11 62 41 69 34 2 -2 -4
-13 -14 -24z"/>
<path d="M3395 3401 c-70 -31 -165 -159 -206 -277 -16 -46 -18 -62 -8 -96 13
-51 54 -93 101 -106 45 -12 163 0 204 21 79 41 143 155 151 270 4 62 1 78 -19
117 -42 81 -135 111 -223 71z"/>
<path d="M5041 3282 c-124 -66 -235 -187 -262 -286 -15 -56 -6 -162 18 -217
66 -150 203 -201 346 -131 126 62 207 190 215 337 5 101 -19 172 -85 245 -79
88 -140 102 -232 52z"/>
<path d="M2185 2576 c-92 -29 -131 -59 -297 -229 -92 -94 -173 -185 -180 -201
-6 -17 -33 -59 -60 -94 -146 -192 -226 -396 -249 -632 -36 -363 114 -625 476
-833 250 -144 515 -140 815 14 183 93 306 225 415 444 63 126 148 362 200 555
35 126 43 272 22 357 -63 243 -234 347 -515 313 -166 -20 -148 -26 -185 65
-18 44 -43 95 -56 113 -36 51 -117 110 -173 127 -62 18 -158 18 -213 1z m113
-471 c32 -90 58 -130 122 -188 79 -70 107 -75 265 -46 72 13 159 24 195 24
l65 0 3 -63 c2 -40 -5 -93 -18 -145 -25 -103 -119 -358 -167 -455 -43 -88
-161 -226 -231 -271 -206 -132 -441 -100 -628 84 -96 94 -117 149 -118 295 0
79 6 125 22 184 38 132 117 271 198 346 14 14 34 41 44 60 11 19 40 58 65 85
25 28 67 76 92 108 26 32 51 56 56 54 5 -1 21 -34 35 -72z"/>
<path d="M4070 2438 c-58 -10 -118 -53 -144 -103 -23 -44 -26 -92 -12 -194 9
-61 8 -64 -10 -56 -32 14 -111 17 -146 6 -45 -15 -104 -74 -136 -135 -50 -100
-40 -267 30 -471 71 -204 115 -266 218 -300 91 -30 190 3 235 79 22 37 26 39
79 42 94 4 192 68 236 155 51 99 46 209 -21 456 -22 81 -51 201 -64 265 -14
65 -34 136 -45 158 -37 72 -130 114 -220 98z"/>
</g>
</svg>
