<?xml version="1.0" standalone="no"?>
<!DOCTYPE svg PUBLIC "-//W3C//DTD SVG 20010904//EN"
 "http://www.w3.org/TR/2001/REC-SVG-20010904/DTD/svg10.dtd">
<svg version="1.0" xmlns="http://www.w3.org/2000/svg"
 width="600.000000pt" height="600.000000pt" viewBox="0 0 600.000000 600.000000"
 preserveAspectRatio="xMidYMid meet">
<metadata>
Created by potrace 1.15, written by Peter Selinger 2001-2017
</metadata>
<g transform="translate(0.000000,600.000000) scale(0.100000,-0.100000)"
fill="#16364b" stroke="none">
<path d="M1700 5787 c-54 -28 -69 -57 -115 -217 -92 -323 -114 -530 -67 -617
32 -60 89 -96 162 -101 88 -6 152 27 259 136 101 101 329 408 349 468 30 92
-41 194 -135 194 -62 0 -105 -36 -203 -170 -52 -71 -98 -129 -103 -130 -9 0
-3 25 39 167 19 62 34 130 34 151 0 73 -71 142 -146 142 -17 0 -50 -10 -74
-23z"/>
<path d="M3080 5612 c-71 -35 -104 -137 -64 -197 9 -14 69 -59 133 -101 138
-91 210 -146 293 -222 59 -55 148 -165 148 -183 0 -5 -24 -9 -52 -9 -87 0
-141 -49 -142 -129 -1 -57 29 -103 87 -133 35 -18 59 -22 147 -22 119 -1 162
14 217 78 44 49 56 95 51 192 -4 70 -10 94 -41 156 -84 171 -274 368 -462 480
-178 106 -245 125 -315 90z"/>
<path d="M922 5459 c-236 -40 -390 -286 -338 -539 28 -134 89 -228 180 -280
62 -36 108 -38 166 -7 99 52 106 178 15 240 -53 36 -75 74 -75 127 0 89 57
144 147 142 62 -2 121 23 148 60 55 80 29 200 -53 242 -37 19 -127 26 -190 15z"/>
<path d="M2932 5149 c-52 -26 -104 -85 -139 -159 -60 -124 -24 -246 90 -304
73 -37 137 -43 227 -21 123 30 156 84 140 227 -10 84 -45 175 -83 216 -58 62
-157 79 -235 41z"/>
<path d="M4732 4831 c-56 -41 -66 -79 -58 -207 16 -246 101 -424 237 -499 73
-40 161 -41 235 -2 94 48 143 130 144 240 0 151 -90 290 -260 402 -159 104
-225 118 -298 66z"/>
<path d="M2080 4804 c-46 -8 -145 -46 -173 -66 -82 -58 -74 -184 15 -238 42
-25 84 -25 148 0 61 24 103 26 121 4 59 -72 200 -50 246 39 46 90 -6 198 -117
242 -44 17 -188 29 -240 19z"/>
<path d="M2776 4081 c-53 -22 -109 -70 -132 -113 -20 -39 -18 -122 5 -167 26
-50 91 -108 156 -137 85 -39 153 -47 345 -40 206 7 353 27 390 54 66 48 77
143 23 210 -41 51 -196 117 -418 179 -128 35 -300 41 -369 14z"/>
<path d="M1106 4070 c-62 -6 -86 -14 -119 -36 -124 -88 -112 -267 21 -326 37
-17 57 -19 114 -14 37 4 68 3 68 -1 0 -5 -59 -78 -131 -163 -182 -215 -434
-526 -470 -580 -27 -40 -30 -51 -27 -106 5 -75 39 -127 102 -154 54 -24 255
-25 301 -2 17 8 121 75 233 149 112 74 210 137 217 140 24 9 103 -65 115 -106
29 -106 -7 -239 -122 -446 -114 -205 -228 -340 -307 -363 -122 -37 -167 -173
-81 -246 124 -104 368 34 556 314 143 214 213 383 235 559 11 96 6 173 -17
257 -5 18 0 22 33 27 54 9 102 44 127 91 17 34 20 59 20 175 1 155 -8 184 -72
226 -84 56 -160 44 -378 -60 -74 -35 -134 -61 -134 -59 0 3 36 48 81 101 137
161 179 244 179 346 -1 131 -103 235 -260 265 -83 16 -196 21 -284 12z"/>
<path d="M4195 3761 c-76 -22 -130 -56 -186 -118 -88 -99 -111 -247 -54 -351
92 -168 310 -206 487 -84 89 61 154 174 185 320 15 74 16 87 3 124 -22 60 -70
94 -162 112 -99 20 -197 19 -273 -3z m90 -311 c-19 -21 -55 -27 -55 -10 0 11
62 41 69 34 2 -2 -4 -13 -14 -24z"/>
<path d="M3410 3397 c-56 -17 -151 -121 -200 -218 -36 -72 -41 -91 -37 -132 5
-54 40 -100 94 -123 51 -22 185 -18 233 6 78 40 130 140 138 266 4 71 2 88
-18 128 -36 75 -115 103 -210 73z"/>
<path d="M5020 3218 c-25 -12 -79 -56 -121 -97 -201 -201 -222 -424 -49 -521
38 -21 58 -25 130 -25 72 0 93 4 141 28 66 32 132 100 161 164 42 95 40 219
-4 308 -43 84 -136 164 -193 165 -11 0 -40 -10 -65 -22z"/>
<path d="M3989 2546 c-79 -21 -137 -82 -165 -173 -17 -54 -14 -102 16 -219 11
-43 18 -79 17 -81 -2 -2 -23 4 -47 12 -156 55 -308 -35 -327 -196 -12 -99 46
-383 118 -584 26 -73 41 -99 78 -136 81 -79 189 -88 284 -23 45 30 97 117 97
162 l0 32 65 0 c74 0 152 26 213 70 45 32 86 109 97 181 9 63 -17 203 -61 324
-64 176 -95 277 -121 390 -13 60 -31 124 -40 142 -21 44 -74 90 -120 102 -45
13 -46 13 -104 -3z"/>
<path d="M2009 2357 c-67 -28 -90 -44 -153 -105 -60 -58 -129 -154 -158 -218
-11 -27 -43 -82 -70 -122 -94 -140 -170 -312 -204 -462 -24 -109 -24 -334 0
-420 62 -219 242 -423 483 -548 116 -60 213 -83 348 -84 316 -1 588 116 731
315 21 28 48 63 61 76 31 33 137 242 167 332 13 41 50 173 81 294 90 345 82
449 -39 571 -80 79 -144 105 -277 112 -112 5 -202 -14 -349 -74 -50 -20 -92
-35 -94 -33 -1 2 -13 33 -26 68 -42 115 -186 274 -275 304 -69 24 -158 21
-226 -6z m131 -411 c6 -8 22 -54 35 -102 35 -126 59 -168 128 -225 110 -92
136 -92 351 0 157 68 276 111 303 111 29 0 8 -110 -69 -355 -71 -229 -131
-338 -251 -457 -116 -115 -373 -167 -525 -105 -236 95 -348 247 -328 443 15
148 89 341 172 449 20 26 41 62 47 79 12 36 106 176 117 176 4 0 13 -7 20 -14z"/>
</g>
</svg>
