<?xml version="1.0" standalone="no"?>
<!DOCTYPE svg PUBLIC "-//W3C//DTD SVG 20010904//EN"
 "http://www.w3.org/TR/2001/REC-SVG-20010904/DTD/svg10.dtd">
<svg version="1.0" xmlns="http://www.w3.org/2000/svg"
 width="600.000000pt" height="600.000000pt" viewBox="0 0 600.000000 600.000000"
 preserveAspectRatio="xMidYMid meet">
<metadata>
Created by potrace 1.15, written by Peter Selinger 2001-2017
</metadata>
<g transform="translate(0.000000,600.000000) scale(0.100000,-0.100000)"
fill="#16364b" stroke="none">
<path d="M2194 5831 c-17 -4 -45 -16 -62 -26 -50 -30 -626 -615 -655 -666 -39
-67 -44 -123 -15 -179 53 -102 185 -136 359 -90 147 38 671 245 727 287 109
82 65 259 -73 287 -37 8 -53 3 -249 -78 -87 -36 -161 -66 -164 -66 -4 0 63 66
147 147 86 83 160 162 167 180 50 117 -55 234 -182 204z"/>
<path d="M3040 5673 c-51 -26 -80 -76 -80 -135 0 -89 36 -125 163 -159 102
-28 245 -100 304 -153 111 -100 133 -272 50 -392 -37 -54 -128 -113 -222 -144
-96 -32 -136 -91 -115 -171 27 -101 133 -145 249 -104 171 60 295 166 370 315
52 105 64 168 59 310 -4 101 -8 124 -37 191 -77 183 -257 328 -519 418 -121
42 -176 48 -222 24z"/>
<path d="M939 5316 c-125 -52 -260 -167 -313 -266 -24 -44 -31 -70 -34 -137
-8 -152 53 -287 199 -435 117 -120 173 -141 253 -95 47 27 76 77 76 134 0 54
-12 84 -47 116 -15 14 -51 47 -80 72 -58 53 -93 114 -93 166 0 63 47 109 164
165 72 34 107 79 114 143 12 133 -98 196 -239 137z"/>
<path d="M2762 4965 c-119 -33 -221 -133 -262 -255 -32 -93 -26 -223 13 -302
55 -113 167 -187 319 -211 82 -13 131 -1 173 43 23 24 29 41 33 87 3 49 0 64
-20 93 -29 43 -83 80 -117 80 -42 0 -95 18 -119 40 -51 48 -10 141 68 154 53
8 107 56 121 108 9 33 7 49 -6 84 -30 80 -101 107 -203 79z"/>
<path d="M4775 4924 c-88 -45 -110 -97 -102 -233 13 -212 106 -384 249 -462
56 -30 71 -34 138 -34 64 0 83 5 122 28 130 76 180 252 111 398 -50 107 -154
195 -330 280 -89 43 -139 49 -188 23z"/>
<path d="M1845 4497 c-120 -40 -247 -149 -261 -223 -14 -76 29 -152 101 -179
64 -25 107 -14 169 44 88 83 106 86 166 36 82 -69 171 -69 236 0 93 99 47 223
-108 295 -64 30 -84 35 -168 37 -59 2 -110 -2 -135 -10z"/>
<path d="M2740 3875 c-53 -18 -81 -40 -109 -86 -51 -83 -2 -208 87 -225 18 -4
36 -13 39 -21 9 -24 -26 -171 -60 -253 -17 -41 -61 -120 -99 -176 -37 -55 -71
-115 -74 -132 -10 -49 20 -117 64 -147 46 -32 122 -34 169 -6 65 40 220 292
268 436 98 296 67 499 -89 590 -54 31 -136 40 -196 20z"/>
<path d="M4303 3809 c-180 -30 -343 -166 -389 -326 -54 -186 101 -362 311
-351 92 4 163 39 239 117 74 74 114 138 171 272 48 115 53 141 31 193 -25 59
-75 88 -169 97 -100 9 -127 9 -194 -2z m-3 -328 c0 -13 -50 -51 -66 -51 -24 0
-15 20 19 40 35 22 47 25 47 11z"/>
<path d="M1151 3799 c-80 -14 -231 -67 -267 -94 -97 -74 -96 -237 2 -311 33
-25 46 -29 106 -29 37 0 68 -2 68 -3 0 -2 -31 -59 -69 -127 -89 -160 -130
-247 -206 -435 -82 -206 -119 -338 -112 -401 14 -118 107 -209 214 -209 80 0
74 -4 523 429 135 131 266 257 293 280 46 43 47 43 47 17 0 -49 -50 -284 -90
-418 -48 -165 -153 -441 -231 -609 -33 -69 -59 -136 -59 -149 0 -39 39 -108
74 -130 47 -28 122 -27 166 3 28 18 50 57 133 237 120 261 167 380 206 519 31
108 64 266 76 356 4 28 14 77 22 110 22 86 21 306 -1 364 -35 95 -105 151
-189 151 -101 0 -168 -44 -421 -277 -49 -46 -91 -81 -93 -79 -2 2 23 55 57
117 123 229 168 365 157 475 -17 167 -176 251 -406 213z"/>
<path d="M3530 3390 c-120 -22 -220 -149 -255 -322 -20 -100 -19 -123 5 -173
37 -76 124 -103 262 -80 164 27 283 176 263 329 -8 59 -46 150 -78 184 -46 49
-128 75 -197 62z"/>
<path d="M4875 2826 c-57 -26 -210 -208 -259 -309 -36 -73 -59 -172 -51 -215
23 -124 129 -198 246 -173 178 38 304 202 325 422 10 98 0 131 -57 196 -77 89
-133 111 -204 79z"/>
<path d="M4169 2457 c-61 -23 -100 -58 -125 -111 -31 -66 -30 -100 5 -221 16
-55 27 -101 26 -103 -2 -2 -35 8 -75 22 -39 14 -102 31 -140 37 -171 26 -316
-71 -365 -245 -14 -48 -16 -89 -13 -215 4 -137 10 -175 42 -309 30 -123 44
-161 70 -195 96 -126 254 -150 351 -52 81 80 88 137 46 338 -12 55 -21 101
-21 103 0 13 34 -1 79 -31 95 -66 169 -69 320 -13 84 31 163 115 190 203 36
115 28 204 -43 515 -41 175 -64 219 -135 259 -53 29 -158 38 -212 18z"/>
<path d="M2950 2310 c-25 -4 -83 -22 -129 -39 -88 -32 -376 -178 -468 -237
-51 -33 -57 -34 -90 -23 -59 19 -163 7 -220 -26 -64 -38 -150 -121 -174 -167
-21 -41 -25 -121 -8 -165 23 -61 82 -102 163 -112 l49 -6 17 -83 16 -84 -25
-9 c-89 -32 -167 -105 -207 -194 -38 -83 -52 -227 -31 -329 29 -139 104 -272
225 -393 80 -82 156 -133 263 -180 221 -96 408 -103 583 -24 82 37 227 132
253 165 27 34 44 112 34 156 -24 106 -88 160 -190 160 -41 0 -60 -8 -127 -52
-162 -105 -215 -117 -344 -73 -133 45 -241 139 -300 259 -23 45 -30 74 -28
102 4 52 25 54 91 12 29 -18 59 -37 68 -43 9 -5 35 -23 57 -39 99 -68 233 -31
283 79 38 83 17 153 -72 239 -87 85 -121 157 -159 349 -25 121 -25 114 3 121
12 3 80 39 151 80 105 62 325 166 350 166 31 0 -42 -205 -151 -421 -93 -186
-95 -192 -91 -249 7 -105 78 -172 179 -172 97 1 137 42 253 258 165 307 227
505 206 666 -5 43 -18 99 -29 123 -28 63 -103 139 -161 164 -56 24 -171 34
-240 21z"/>
</g>
</svg>
