<?xml version="1.0" standalone="no"?>
<!DOCTYPE svg PUBLIC "-//W3C//DTD SVG 20010904//EN"
 "http://www.w3.org/TR/2001/REC-SVG-20010904/DTD/svg10.dtd">
<svg version="1.0" xmlns="http://www.w3.org/2000/svg"
 width="600.000000pt" height="600.000000pt" viewBox="0 0 600.000000 600.000000"
 preserveAspectRatio="xMidYMid meet">
<metadata>
Created by potrace 1.15, written by Peter Selinger 2001-2017
</metadata>
<g transform="translate(0.000000,600.000000) scale(0.100000,-0.100000)"
fill="#16364b" stroke="none">
<path d="M1520 5771 c-84 -45 -290 -163 -339 -193 -69 -43 -96 -81 -96 -136 0
-37 5 -48 34 -74 31 -27 39 -30 85 -25 106 11 526 87 545 98 49 32 55 107 11
151 -28 27 -36 30 -75 25 -49 -5 -53 -2 -29 24 9 10 16 35 16 56 0 29 -7 43
-31 65 -37 33 -72 36 -121 9z"/>
<path d="M2343 5416 l-28 -24 -6 -214 c-5 -170 -11 -229 -27 -290 -43 -159
-110 -254 -227 -322 -77 -46 -100 -74 -100 -128 0 -54 40 -93 94 -92 59 2 156
59 237 139 126 125 193 299 215 561 5 71 7 176 3 234 -6 96 -9 106 -35 132
-36 36 -86 38 -126 4z"/>
<path d="M3521 5304 c-26 -19 -51 -71 -51 -108 0 -13 18 -60 40 -104 51 -101
144 -193 212 -210 88 -22 158 26 158 110 0 78 -125 255 -211 299 -57 29 -119
34 -148 13z"/>
<path d="M2970 5112 c-106 -52 -190 -222 -161 -329 31 -116 139 -155 266 -94
83 39 120 76 139 141 21 70 21 162 -1 207 -9 19 -34 48 -56 64 -33 24 -50 29
-96 29 -32 0 -71 -8 -91 -18z m56 -228 c-4 -9 -9 -15 -11 -12 -3 3 -3 13 1 22
4 9 9 15 11 12 3 -3 3 -13 -1 -22z"/>
<path d="M4758 4761 l-33 -29 -3 -179 c-3 -191 8 -274 47 -352 74 -144 218
-191 322 -104 74 63 99 194 61 320 -52 169 -231 373 -329 373 -22 0 -43 -9
-65 -29z"/>
<path d="M2672 4205 c-131 -41 -187 -166 -127 -284 70 -139 262 -197 416 -124
81 38 181 129 204 185 36 92 -5 155 -128 192 -157 47 -280 58 -365 31z"/>
<path d="M1108 4112 c-38 -23 -61 -75 -54 -118 8 -41 55 -89 96 -97 48 -10
130 -48 124 -58 -7 -12 -58 -4 -146 22 -59 18 -70 19 -100 6 -55 -23 -73 -52
-73 -114 0 -49 3 -58 32 -83 73 -66 276 -95 388 -57 216 74 219 328 5 455 -51
30 -157 62 -204 62 -23 0 -53 -8 -68 -18z"/>
<path d="M4220 3780 c-110 -14 -210 -85 -253 -179 -33 -70 -31 -188 4 -262
108 -231 431 -239 563 -15 55 94 75 289 36 353 -23 38 -51 54 -145 81 -89 26
-136 31 -205 22z m48 -312 c-17 -26 -58 -37 -58 -16 0 21 21 38 48 38 23 0 24
-1 10 -22z"/>
<path d="M5281 3778 c-121 -14 -213 -58 -279 -134 -111 -126 -92 -329 43 -452
65 -60 124 -82 216 -82 134 0 249 73 306 195 24 52 28 72 28 150 0 119 -28
180 -120 261 -73 64 -102 73 -194 62z m24 -318 c6 -10 -29 -50 -45 -50 -17 0
-23 29 -10 45 14 17 46 20 55 5z"/>
<path d="M1626 3699 c-19 -15 -26 -30 -26 -54 0 -37 38 -177 77 -278 34 -92
58 -119 107 -120 82 -2 98 80 46 234 -71 212 -130 276 -204 218z"/>
<path d="M3464 3360 c-11 -4 -37 -27 -56 -49 -36 -42 -135 -214 -145 -251 -13
-48 41 -110 97 -110 35 0 114 46 154 90 56 62 96 153 96 218 0 46 -4 58 -29
83 -31 30 -73 37 -117 19z"/>
<path d="M1910 3068 c-134 -12 -427 -72 -499 -101 -286 -116 -447 -359 -428
-647 10 -154 72 -280 176 -361 25 -20 98 -61 161 -92 134 -65 235 -138 283
-205 19 -26 63 -102 98 -170 73 -142 143 -235 229 -308 198 -167 468 -193 820
-79 41 13 111 29 155 35 173 25 455 80 536 106 200 63 395 190 607 395 149
144 230 269 271 419 72 259 6 467 -214 668 -81 74 -187 128 -275 141 -65 9
-79 7 -240 -22 -56 -10 -160 -17 -305 -18 -260 -3 -260 -3 -537 107 -325 129
-531 161 -838 132z m360 -398 c108 -13 124 -19 305 -100 257 -116 447 -163
605 -149 47 4 173 15 280 23 107 9 212 20 233 25 23 6 52 5 72 0 42 -12 123
-84 165 -147 27 -41 31 -52 25 -91 -17 -113 -92 -225 -228 -338 -238 -198
-433 -285 -772 -343 -99 -17 -220 -45 -270 -62 -180 -62 -264 -80 -346 -75
-144 9 -217 70 -316 262 -73 144 -141 242 -218 314 -72 67 -198 153 -300 204
-132 66 -168 136 -130 248 23 66 67 114 138 148 141 69 524 109 757 81z"/>
<path d="M414 2166 c-40 -34 -35 -69 34 -226 97 -223 172 -320 278 -359 70
-27 109 -26 164 2 61 30 90 76 90 141 -1 100 -62 184 -225 306 -207 155 -284
186 -341 136z"/>
<path d="M4848 1573 c-16 -10 -28 -21 -28 -25 0 -3 -24 -4 -53 -1 -66 7 -108
-12 -131 -61 -21 -44 -20 -80 4 -196 25 -118 70 -214 113 -241 76 -46 178 -6
222 87 30 63 55 201 55 300 0 70 -2 76 -33 110 -40 44 -105 56 -149 27z"/>
</g>
</svg>
