<?xml version="1.0" standalone="no"?>
<!DOCTYPE svg PUBLIC "-//W3C//DTD SVG 20010904//EN"
 "http://www.w3.org/TR/2001/REC-SVG-20010904/DTD/svg10.dtd">
<svg version="1.0" xmlns="http://www.w3.org/2000/svg"
 width="600.000000pt" height="600.000000pt" viewBox="0 0 600.000000 600.000000"
 preserveAspectRatio="xMidYMid meet">
<metadata>
Created by potrace 1.15, written by Peter Selinger 2001-2017
</metadata>
<g transform="translate(0.000000,600.000000) scale(0.100000,-0.100000)"
fill="#16364b" stroke="none">
<path d="M2930 5589 c-42 -17 -71 -51 -101 -117 -91 -201 -92 -355 -2 -447 61
-63 108 -78 268 -83 77 -2 143 -7 148 -11 4 -4 -16 -27 -45 -52 -29 -24 -109
-96 -178 -159 -69 -63 -168 -153 -220 -200 -128 -116 -130 -117 -146 -156 -23
-55 5 -131 73 -196 51 -49 133 -77 381 -127 108 -22 259 -59 335 -82 159 -47
188 -47 245 6 36 32 37 36 37 100 0 64 -1 68 -37 100 -44 40 -135 71 -421 140
-108 26 -197 51 -197 55 0 19 250 223 430 353 58 41 122 93 142 114 35 36 68
105 68 142 0 42 -25 97 -62 137 -82 89 -201 124 -430 124 -86 0 -149 4 -153
10 -3 5 12 49 34 96 24 51 41 101 41 123 0 95 -116 167 -210 130z"/>
<path d="M1493 5300 c-99 -57 -336 -303 -441 -457 -62 -91 -109 -191 -133
-280 -20 -73 -21 -87 -9 -129 17 -59 67 -111 117 -120 28 -5 75 2 183 29 80
20 169 41 198 47 57 11 172 14 172 4 0 -3 -32 -73 -70 -155 -98 -209 -112
-246 -112 -306 0 -42 -4 -55 -25 -75 -38 -35 -55 -76 -55 -129 0 -92 65 -159
155 -159 103 0 528 174 625 255 80 67 60 205 -37 255 -60 30 -95 25 -195 -25
-49 -25 -90 -44 -92 -42 -2 2 17 52 42 113 67 161 87 244 82 330 -8 115 -57
183 -174 236 -42 20 -64 22 -164 21 -63 0 -137 -6 -165 -11 -27 -6 -52 -9 -54
-6 -5 5 132 175 202 250 30 32 80 75 111 94 93 58 116 135 65 219 -46 76 -137
92 -226 41z"/>
<path d="M4521 4539 c-110 -21 -381 -126 -419 -162 -93 -86 -54 -231 67 -252
39 -6 42 -5 226 63 102 38 145 47 145 32 0 -19 -98 -209 -146 -283 -24 -37
-80 -115 -124 -173 -119 -159 -119 -206 0 -312 84 -76 110 -83 390 -107 190
-16 220 -21 220 -34 0 -4 -29 -55 -64 -113 -35 -58 -101 -176 -146 -263 -77
-146 -82 -160 -78 -205 11 -113 117 -172 218 -120 44 22 52 35 219 343 56 103
114 214 127 248 70 171 25 302 -127 368 -57 25 -132 39 -302 55 -76 7 -140 16
-143 18 -3 3 16 37 41 74 60 90 187 348 220 447 89 269 -50 430 -324 376z"/>
<path d="M3752 3672 c-96 -34 -150 -114 -140 -206 13 -108 80 -169 180 -163
36 2 64 10 76 20 10 9 22 17 25 17 17 0 5 -98 -17 -146 -23 -50 -25 -51 -90
-68 -93 -23 -167 -58 -235 -110 -72 -56 -108 -97 -134 -155 -17 -38 -17 -49
-7 -88 15 -51 65 -98 116 -108 56 -10 105 10 159 66 78 79 172 119 284 119
118 0 191 74 176 179 -5 35 -2 59 10 87 9 21 19 78 22 125 5 70 2 100 -15 155
-64 208 -249 333 -410 276z"/>
<path d="M2490 3546 c-149 -31 -332 -99 -378 -140 -74 -66 -66 -178 17 -233
46 -31 97 -29 184 6 126 51 179 65 257 65 l75 1 0 -50 c-1 -93 -51 -214 -175
-421 -77 -130 -84 -158 -50 -224 19 -38 20 -42 4 -72 -25 -49 -16 -145 20
-197 33 -48 96 -81 153 -81 22 0 85 16 139 36 213 77 354 115 354 95 0 -14
-35 -99 -90 -214 -53 -113 -56 -175 -13 -245 69 -111 242 -126 309 -26 19 30
97 239 144 389 13 42 24 109 27 168 7 116 -9 168 -69 233 -94 102 -242 116
-504 48 -53 -14 -98 -23 -100 -21 -3 2 13 38 35 78 162 302 187 548 71 705
-18 25 -54 54 -92 74 -56 30 -72 34 -157 36 -55 2 -124 -2 -161 -10z"/>
<path d="M1145 3300 c-80 -19 -253 -134 -309 -203 -28 -35 -31 -46 -31 -106 0
-59 4 -72 28 -104 49 -65 129 -90 205 -64 23 8 42 13 42 12 0 -2 -18 -111 -41
-242 -65 -377 -79 -480 -79 -601 0 -126 11 -167 62 -219 36 -37 67 -49 153
-58 103 -11 138 12 218 145 90 151 138 222 271 400 72 96 149 203 171 237 22
35 43 63 48 63 12 0 29 -49 38 -110 13 -90 -8 -239 -69 -485 l-57 -230 0 -157
c0 -171 4 -184 69 -232 42 -32 123 -28 170 8 57 43 69 76 71 196 2 85 10 137
43 270 55 223 73 355 74 540 1 134 -3 170 -25 260 -14 58 -30 128 -37 156 -38
170 -171 249 -315 185 -71 -31 -200 -168 -325 -343 -57 -81 -105 -146 -107
-144 -2 1 11 97 28 212 19 125 32 253 33 319 1 101 -1 114 -26 161 -57 108
-184 164 -303 134z"/>
<path d="M4705 2361 c-78 -37 -122 -97 -132 -180 l-5 -48 -197 1 -196 1 -94
-33 c-214 -75 -316 -181 -340 -357 -11 -73 -2 -203 20 -304 6 -29 8 -55 5 -58
-3 -4 -19 5 -34 19 -86 81 -223 148 -334 163 -149 20 -315 -69 -444 -237 -49
-63 -155 -238 -219 -361 -22 -42 -43 -77 -46 -77 -10 0 -34 107 -64 275 -30
172 -78 361 -104 414 -35 67 -93 101 -174 101 -73 0 -132 -32 -174 -94 -43
-63 -43 -102 1 -259 19 -67 55 -210 80 -319 48 -213 70 -273 127 -359 45 -67
92 -110 162 -147 47 -24 62 -27 152 -27 139 0 194 23 271 113 31 37 61 80 67
97 19 54 111 229 161 302 56 84 146 173 175 173 10 0 73 -40 138 -89 136 -102
213 -144 296 -161 136 -27 288 55 353 193 14 29 37 72 51 97 31 51 32 70 19
311 -9 148 -8 156 10 163 10 4 73 6 139 5 66 -2 183 -3 260 -4 133 0 143 1
197 28 82 40 143 112 169 199 19 60 21 87 17 187 -4 99 -9 123 -31 166 -14 28
-36 60 -49 72 -57 53 -160 68 -233 34z"/>
</g>
</svg>
