<?xml version="1.0" standalone="no"?>
<!DOCTYPE svg PUBLIC "-//W3C//DTD SVG 20010904//EN"
 "http://www.w3.org/TR/2001/REC-SVG-20010904/DTD/svg10.dtd">
<svg version="1.0" xmlns="http://www.w3.org/2000/svg"
 width="600.000000pt" height="600.000000pt" viewBox="0 0 600.000000 600.000000"
 preserveAspectRatio="xMidYMid meet">
<metadata>
Created by potrace 1.15, written by Peter Selinger 2001-2017
</metadata>
<g transform="translate(0.000000,600.000000) scale(0.100000,-0.100000)"
fill="#16364b" stroke="none">
<path d="M2289 5437 c-63 -42 -119 -181 -121 -300 -1 -56 4 -77 28 -124 24
-45 39 -62 84 -87 51 -29 62 -31 145 -30 50 0 148 10 219 23 71 12 130 20 133
18 2 -2 -35 -55 -81 -118 -122 -163 -236 -358 -307 -525 -42 -98 -48 -152 -24
-194 8 -14 14 -40 15 -58 0 -40 32 -105 62 -126 43 -31 80 -29 199 7 101 32
175 48 314 72 22 4 121 10 220 14 203 7 231 16 267 81 40 73 0 183 -78 216
-74 31 -332 9 -579 -49 -55 -13 -102 -20 -103 -15 -10 25 188 339 317 503 94
120 122 173 128 245 5 48 2 67 -17 102 -31 61 -75 103 -134 129 -68 31 -197
30 -364 0 -68 -13 -126 -21 -128 -18 -3 3 1 18 9 34 28 53 30 89 8 137 -36 83
-138 113 -212 63z"/>
<path d="M1725 4984 c-187 -39 -378 -136 -513 -259 -85 -79 -102 -107 -102
-173 0 -40 7 -58 38 -102 53 -76 73 -87 187 -105 269 -42 404 -92 475 -176 69
-82 146 -101 225 -54 98 57 100 166 4 270 -85 92 -187 152 -334 196 l-89 26
42 22 c54 27 145 51 198 51 149 0 198 220 64 291 -33 18 -137 25 -195 13z"/>
<path d="M4042 4958 c-35 -4 -85 -14 -111 -23 -67 -22 -200 -100 -244 -143
-107 -104 -49 -262 96 -262 37 0 57 8 112 46 76 52 165 94 199 94 32 0 38 -28
25 -113 -15 -93 -57 -220 -119 -356 -43 -93 -51 -119 -46 -149 7 -47 33 -81
80 -105 21 -11 42 -32 47 -46 21 -54 84 -101 136 -101 15 0 96 14 178 31 144
29 307 41 334 25 20 -13 11 -115 -24 -272 -19 -85 -41 -178 -50 -206 -32 -107
-12 -186 57 -228 67 -41 162 -15 193 52 20 43 131 457 146 543 31 179 -38 316
-190 377 -50 20 -74 23 -211 23 -108 0 -187 -6 -258 -19 -57 -10 -105 -16
-106 -15 -2 2 14 48 36 102 63 156 90 274 92 402 1 99 -2 115 -25 165 -66 141
-177 198 -347 178z"/>
<path d="M2080 3909 c-93 -33 -248 -59 -397 -69 -94 -6 -152 -14 -172 -25
-119 -61 -60 -305 74 -305 17 0 118 11 225 25 360 45 511 102 536 201 18 73
-14 146 -78 180 -37 19 -121 16 -188 -7z"/>
<path d="M3770 3730 c-25 -4 -72 -19 -105 -32 -99 -41 -488 -258 -512 -286
-66 -79 -9 -219 96 -237 50 -8 76 3 285 123 88 51 163 92 167 92 11 0 -26 -97
-113 -300 -63 -148 -70 -170 -65 -212 5 -41 3 -49 -14 -59 -31 -16 -62 -94
-54 -135 9 -49 57 -100 113 -118 39 -13 62 -14 132 -6 224 27 424 134 627 336
63 63 83 90 88 118 16 81 -14 143 -82 172 -75 32 -141 10 -233 -80 -68 -66
-132 -114 -214 -161 -58 -34 -60 -47 30 165 82 193 121 305 130 370 21 158
-110 276 -276 250z"/>
<path d="M2355 3323 c-11 -2 -78 -15 -149 -29 -152 -30 -183 -44 -216 -92 -48
-69 -28 -146 51 -200 30 -21 43 -23 99 -19 36 3 103 14 150 26 47 11 115 21
153 21 79 0 79 2 41 -107 -15 -42 -26 -93 -26 -114 2 -144 178 -207 276 -99
52 58 89 180 90 296 0 86 -2 96 -34 160 -62 121 -148 165 -319 163 -53 -1
-105 -3 -116 -6z"/>
<path d="M1167 3058 c-80 -22 -136 -114 -122 -199 10 -55 58 -117 111 -140
l44 -20 0 -292 c0 -325 9 -405 61 -555 43 -121 61 -146 125 -178 46 -22 63
-26 105 -21 28 4 71 18 94 32 91 53 115 130 71 227 l-25 56 72 -4 c94 -7 124
11 168 98 47 92 94 163 147 220 l46 49 23 -51 c22 -51 22 -54 8 -144 -21 -124
-50 -406 -50 -487 0 -56 4 -71 27 -101 52 -68 151 -85 217 -39 53 38 57 58
112 538 l22 191 -20 44 c-11 23 -25 67 -32 97 -28 131 -117 248 -205 272 -56
15 -137 4 -204 -29 -76 -36 -186 -143 -264 -254 -34 -50 -70 -99 -78 -110 -13
-17 -15 4 -15 204 0 180 -4 237 -18 293 -51 201 -155 304 -312 311 -38 2 -87
-2 -108 -8z"/>
<path d="M4854 3041 c-22 -10 -56 -37 -76 -60 -47 -56 -62 -111 -53 -201 8
-84 15 -76 -127 -151 -116 -62 -245 -161 -286 -221 -82 -120 -117 -224 -116
-348 0 -79 6 -110 31 -185 40 -116 88 -199 152 -258 28 -26 51 -50 51 -52 0
-2 -13 -6 -30 -10 -16 -4 -59 -33 -94 -65 -75 -68 -109 -77 -221 -61 -164 24
-363 8 -495 -40 -132 -49 -252 -146 -361 -293 -34 -45 -72 -85 -88 -92 -16 -7
-58 -39 -95 -72 -88 -80 -144 -107 -221 -106 -140 0 -302 131 -424 342 -57 98
-100 127 -191 127 -57 0 -72 -4 -103 -28 -50 -38 -70 -80 -70 -149 0 -47 8
-73 46 -153 56 -116 90 -166 170 -251 216 -231 483 -328 731 -264 108 27 187
73 274 157 41 40 78 73 82 73 17 0 73 55 124 124 73 96 175 192 231 217 81 36
152 40 299 18 225 -33 329 -23 457 41 124 63 201 165 201 268 1 68 -21 123
-63 163 -32 30 -31 31 22 43 70 15 151 105 169 188 16 68 1 126 -44 176 -44
49 -56 74 -56 115 0 82 22 103 210 208 209 116 300 273 300 519 0 159 -37 237
-135 281 -53 24 -147 24 -201 0z"/>
<path d="M3365 2315 c-180 -29 -648 -149 -685 -175 -112 -80 -98 -267 25 -337
54 -31 97 -29 244 11 218 60 456 106 548 106 38 0 42 -3 48 -29 3 -17 19 -48
35 -69 78 -108 255 -109 327 -1 25 38 28 51 28 129 0 76 -4 93 -33 152 -41 83
-97 140 -176 177 -106 51 -208 61 -361 36z"/>
</g>
</svg>
