<?xml version="1.0" standalone="no"?>
<!DOCTYPE svg PUBLIC "-//W3C//DTD SVG 20010904//EN"
 "http://www.w3.org/TR/2001/REC-SVG-20010904/DTD/svg10.dtd">
<svg version="1.0" xmlns="http://www.w3.org/2000/svg"
 width="600.000000pt" height="600.000000pt" viewBox="0 0 600.000000 600.000000"
 preserveAspectRatio="xMidYMid meet">
<metadata>
Created by potrace 1.15, written by Peter Selinger 2001-2017
</metadata>
<g transform="translate(0.000000,600.000000) scale(0.100000,-0.100000)"
fill="#16364b" stroke="none">
<path d="M3072 5649 c-66 -43 -91 -142 -52 -206 11 -18 90 -85 177 -149 173
-128 289 -237 317 -299 19 -39 19 -39 -4 -83 -13 -24 -44 -62 -69 -84 -50 -45
-182 -133 -247 -166 l-41 -21 -22 29 c-54 74 -138 78 -272 13 -188 -90 -278
-196 -279 -325 0 -133 98 -239 248 -268 82 -15 146 12 176 73 34 73 10 159
-54 192 -17 9 -28 20 -25 26 4 5 30 21 58 35 40 21 52 23 56 13 10 -34 72 -78
117 -85 41 -6 55 -2 162 51 211 102 362 218 442 337 44 66 80 169 80 229 0
105 -98 279 -222 394 -67 62 -350 279 -396 304 -35 18 -113 13 -150 -10z"/>
<path d="M1899 5487 c-34 -18 -50 -36 -71 -77 -15 -30 -78 -117 -140 -193
-178 -218 -214 -287 -206 -399 6 -82 44 -133 132 -177 59 -30 78 -35 167 -39
125 -6 249 11 397 53 94 27 121 40 149 68 91 90 47 241 -78 270 -15 4 -58 -2
-100 -14 -181 -51 -269 -68 -269 -51 0 4 46 63 101 132 55 68 112 149 127 179
51 106 26 212 -62 252 -55 25 -94 24 -147 -4z"/>
<path d="M1098 5351 c-77 -31 -185 -109 -235 -169 -59 -73 -108 -175 -129
-270 -44 -196 38 -481 165 -577 55 -41 164 -31 216 20 63 63 60 138 -10 230
-25 33 -53 84 -61 114 -21 68 -14 161 14 217 25 49 95 115 154 144 80 41 110
83 110 156 0 116 -108 182 -224 135z"/>
<path d="M4650 4793 c-57 -22 -110 -94 -110 -150 0 -16 9 -46 19 -67 17 -33
18 -41 6 -60 -42 -66 -21 -138 65 -222 127 -126 305 -166 446 -100 102 48 150
129 142 240 -10 120 -92 224 -232 291 -113 54 -282 88 -336 68z"/>
<path d="M1796 4319 c-118 -28 -305 -178 -342 -275 -39 -103 27 -204 134 -204
54 0 94 20 157 80 61 56 152 95 205 86 118 -20 139 -19 179 7 100 66 97 233
-4 281 -72 34 -236 47 -329 25z"/>
<path d="M2595 3780 c-105 -17 -238 -59 -274 -89 -67 -53 -74 -151 -16 -213
57 -61 120 -73 230 -43 78 20 210 31 219 17 15 -24 -58 -207 -123 -306 -37
-57 -193 -276 -263 -368 -83 -110 -95 -154 -61 -225 31 -66 111 -91 187 -59
33 14 58 44 352 432 108 143 185 290 209 400 48 214 -29 383 -200 439 -62 20
-181 27 -260 15z"/>
<path d="M4023 3752 c-70 -25 -114 -61 -145 -118 -36 -67 -43 -127 -24 -203
21 -83 49 -135 102 -188 68 -67 141 -97 239 -98 68 0 89 4 138 28 77 38 147
112 191 201 52 104 49 136 -23 285 -33 70 -117 100 -306 107 -100 4 -129 2
-172 -14z"/>
<path d="M1125 3605 c-68 -19 -268 -119 -309 -156 -93 -82 -82 -234 23 -300
52 -33 119 -39 177 -14 30 12 35 13 31 1 -196 -510 -297 -825 -297 -927 0 -77
62 -145 154 -170 59 -16 156 -8 186 16 36 27 317 326 392 415 34 41 114 126
178 188 136 134 137 133 91 -64 -16 -71 -42 -192 -56 -269 -14 -77 -51 -237
-82 -355 -65 -254 -75 -348 -43 -398 22 -36 88 -71 133 -72 69 0 141 60 152
128 9 49 44 197 99 407 41 159 106 426 140 575 37 159 37 341 1 449 -9 27 -34
70 -56 94 -78 89 -193 97 -297 21 -26 -20 -134 -124 -240 -232 -146 -149 -189
-189 -178 -162 8 19 44 103 80 187 36 84 75 189 87 234 51 196 -7 354 -148
405 -48 17 -153 16 -218 -1z"/>
<path d="M3600 3330 c-37 -7 -87 -30 -134 -63 -85 -60 -186 -331 -157 -419 24
-74 107 -118 182 -98 23 7 52 17 63 25 12 7 46 15 76 18 191 18 313 147 281
297 -35 163 -167 265 -311 240z"/>
<path d="M4774 2886 c-182 -85 -220 -293 -89 -489 87 -130 207 -160 298 -74
74 70 78 248 8 314 -22 20 -22 22 -6 71 27 82 -4 156 -79 187 -48 20 -73 19
-132 -9z"/>
<path d="M2837 2524 c-128 -31 -461 -212 -507 -276 -69 -95 -37 -224 71 -278
65 -34 103 -27 250 45 137 67 277 119 303 113 17 -4 -22 -108 -133 -349 -80
-176 -87 -219 -50 -297 53 -108 221 -138 302 -54 62 64 211 425 268 646 25 99
23 241 -4 293 -45 85 -121 140 -225 162 -71 15 -203 13 -275 -5z"/>
<path d="M4360 2350 c-123 -58 -168 -161 -136 -315 9 -43 14 -80 12 -82 -2 -3
-55 15 -118 38 -99 37 -126 43 -215 47 -97 4 -105 3 -167 -26 -112 -52 -177
-140 -199 -266 -9 -51 -7 -106 6 -263 10 -109 21 -229 24 -268 7 -84 28 -129
82 -178 106 -96 272 -61 346 74 28 51 30 60 28 151 -2 53 -7 134 -12 180 -5
46 -8 85 -6 87 4 4 123 -34 205 -64 35 -14 64 -16 135 -12 50 4 107 11 127 17
96 28 187 124 224 237 37 112 15 433 -37 534 -52 104 -197 156 -299 109z"/>
<path d="M2090 1861 c-52 -28 -81 -65 -95 -118 -15 -59 -4 -112 35 -173 20
-31 40 -92 65 -195 79 -321 137 -426 364 -658 99 -102 171 -152 327 -230 180
-90 278 -105 429 -67 101 26 229 94 268 143 43 52 50 137 16 196 -28 50 -79
87 -139 100 -56 12 -96 4 -179 -39 -50 -25 -71 -31 -102 -27 -47 6 -209 93
-215 115 -3 10 -14 33 -24 52 -11 19 -38 70 -61 112 -22 43 -60 98 -82 124
-44 50 -120 104 -147 104 -38 0 -51 27 -94 196 -46 178 -75 250 -126 308 -63
71 -167 95 -240 57z"/>
</g>
</svg>
