<?xml version="1.0" standalone="no"?>
<!DOCTYPE svg PUBLIC "-//W3C//DTD SVG 20010904//EN"
 "http://www.w3.org/TR/2001/REC-SVG-20010904/DTD/svg10.dtd">
<svg version="1.0" xmlns="http://www.w3.org/2000/svg"
 width="600.000000pt" height="600.000000pt" viewBox="0 0 600.000000 600.000000"
 preserveAspectRatio="xMidYMid meet">
<metadata>
Created by potrace 1.15, written by Peter Selinger 2001-2017
</metadata>
<g transform="translate(0.000000,600.000000) scale(0.100000,-0.100000)"
fill="#16364b" stroke="none">
<path d="M2673 5540 c-60 -36 -153 -262 -153 -370 0 -62 28 -126 75 -169 65
-60 119 -73 323 -78 94 -3 172 -8 172 -12 -1 -3 -40 -35 -88 -71 -154 -115
-263 -234 -390 -427 -79 -118 -92 -145 -92 -189 0 -51 54 -149 97 -175 40 -25
166 -38 373 -39 130 0 261 -17 392 -50 99 -26 137 -25 179 3 86 57 90 181 9
245 -60 47 -328 110 -502 119 -71 3 -128 10 -128 14 0 4 26 41 59 81 60 75
150 155 301 268 208 156 266 264 208 380 -29 56 -90 103 -165 127 -49 15 -93
18 -278 18 -138 0 -221 4 -222 10 -4 13 5 40 29 94 11 24 22 58 25 76 7 46
-27 119 -69 145 -43 26 -113 26 -155 0z"/>
<path d="M1579 5191 c-210 -89 -390 -274 -534 -546 -43 -81 -47 -95 -43 -143
5 -61 29 -98 80 -126 35 -19 38 -19 164 -2 144 19 320 24 336 8 7 -7 5 -27 -5
-64 -34 -116 -50 -230 -38 -270 15 -47 52 -92 92 -108 39 -17 30 -22 -86 -50
-134 -32 -175 -71 -175 -165 0 -94 63 -165 146 -165 72 0 435 112 571 177 106
50 142 120 108 208 -32 86 -126 126 -210 90 -83 -36 -159 -65 -162 -62 -1 2 3
21 11 43 27 76 61 289 61 379 0 81 -3 95 -29 143 -58 104 -149 150 -316 161
l-105 7 66 65 c69 68 156 131 199 144 64 19 120 90 120 152 -1 52 -35 110 -79
132 -54 28 -93 26 -172 -8z"/>
<path d="M4315 4663 c-136 -29 -374 -151 -408 -210 -23 -39 -25 -108 -6 -148
19 -41 74 -75 119 -75 23 0 71 17 131 46 103 50 168 77 213 88 28 7 29 6 23
-24 -13 -61 -70 -189 -168 -371 -85 -160 -99 -193 -99 -233 0 -59 10 -78 77
-146 l55 -55 276 0 c152 0 290 -4 305 -9 38 -11 35 -20 -68 -236 -128 -269
-158 -347 -152 -394 13 -95 114 -159 200 -127 33 13 66 48 84 91 8 19 62 135
119 257 57 122 111 250 120 285 23 89 15 192 -19 251 -76 130 -205 177 -483
177 -85 0 -154 3 -154 6 0 3 31 65 69 137 38 73 84 173 102 222 28 79 32 103
33 195 1 89 -2 111 -21 146 -31 59 -93 110 -154 128 -64 19 -102 19 -194 -1z"/>
<path d="M3682 3636 c-78 -29 -132 -65 -190 -125 -73 -74 -89 -135 -53 -201
51 -97 179 -108 241 -20 22 30 96 80 120 80 21 0 5 -67 -53 -222 l-54 -142
-85 -53 c-99 -61 -144 -108 -154 -158 -9 -49 1 -80 40 -122 30 -33 39 -37 93
-41 56 -4 64 -1 139 41 43 25 126 62 184 82 229 80 273 105 304 169 19 39 21
108 5 139 -20 39 -81 96 -111 102 -32 8 -33 13 -13 79 19 64 19 190 0 247 -22
63 -70 118 -129 145 -71 33 -194 33 -284 0z"/>
<path d="M2490 3514 c-107 -22 -349 -116 -407 -160 -17 -13 -39 -44 -48 -69
-32 -82 0 -159 77 -190 52 -20 80 -16 188 31 98 43 262 86 310 82 25 -2 36 -8
38 -22 6 -30 -38 -153 -100 -275 -32 -65 -58 -129 -58 -146 0 -45 40 -116 79
-142 44 -29 113 -31 158 -3 26 16 47 49 102 162 122 250 154 393 117 523 -22
74 -104 160 -181 189 -50 18 -220 30 -275 20z"/>
<path d="M1163 3205 c-105 -29 -214 -97 -242 -153 -44 -86 -35 -165 25 -232
40 -44 88 -64 145 -58 48 4 47 17 14 -207 -42 -281 -32 -639 20 -749 10 -20
33 -50 53 -65 102 -85 231 -24 347 165 59 95 352 494 402 546 14 15 29 25 34
23 18 -12 31 -155 26 -275 -7 -129 -15 -172 -88 -450 -47 -184 -48 -216 -2
-271 50 -59 124 -74 192 -39 62 31 77 59 115 219 77 320 81 347 80 576 0 223
-18 352 -63 458 -42 98 -124 158 -216 159 -141 1 -223 -64 -478 -382 l-28 -35
6 40 c13 97 25 267 25 345 -1 214 -70 345 -204 385 -60 18 -95 18 -163 0z"/>
<path d="M4778 2609 c-49 -14 -117 -74 -139 -123 -10 -23 -19 -64 -19 -92 l0
-51 -114 -12 c-336 -34 -512 -155 -566 -390 -18 -75 -7 -256 19 -349 12 -41
34 -102 50 -137 28 -60 28 -64 12 -79 -10 -9 -22 -16 -27 -16 -5 0 -63 29
-129 65 -147 80 -223 105 -319 105 -89 0 -161 -21 -248 -71 -155 -91 -268
-219 -408 -466 -33 -58 -61 -95 -74 -99 -11 -3 -42 -19 -67 -35 -25 -16 -53
-29 -61 -29 -34 0 -107 130 -142 253 -9 32 -27 119 -40 195 -26 152 -40 189
-88 226 -111 84 -262 34 -305 -100 -16 -52 -16 -59 6 -186 61 -359 218 -642
406 -733 84 -40 203 -47 307 -15 80 24 148 59 191 98 15 14 48 37 75 51 44 24
51 34 107 147 84 169 165 275 252 333 79 52 110 46 283 -59 110 -66 169 -83
273 -78 66 3 94 10 141 33 103 52 196 153 196 213 0 12 11 24 29 31 36 16 97
78 110 114 6 16 11 54 11 86 0 49 -7 71 -49 153 -57 112 -81 199 -61 223 17
21 64 32 231 54 203 28 273 55 351 139 88 94 136 234 123 361 -10 108 -54 179
-137 222 -45 23 -130 32 -180 18z"/>
<path d="M3110 2565 c-150 -29 -484 -126 -543 -158 -115 -64 -117 -250 -5
-324 69 -46 118 -43 313 20 169 54 341 94 352 83 4 -3 -8 -48 -25 -99 -38
-109 -39 -145 -11 -204 55 -114 233 -132 326 -31 28 30 78 143 99 221 11 44
15 89 12 152 -8 158 -66 266 -173 320 -53 27 -68 30 -164 32 -59 1 -140 -4
-181 -12z"/>
</g>
</svg>
