<?xml version="1.0" standalone="no"?>
<!DOCTYPE svg PUBLIC "-//W3C//DTD SVG 20010904//EN"
 "http://www.w3.org/TR/2001/REC-SVG-20010904/DTD/svg10.dtd">
<svg version="1.0" xmlns="http://www.w3.org/2000/svg"
 width="600.000000pt" height="600.000000pt" viewBox="0 0 600.000000 600.000000"
 preserveAspectRatio="xMidYMid meet">
<metadata>
Created by potrace 1.15, written by Peter Selinger 2001-2017
</metadata>
<g transform="translate(0.000000,600.000000) scale(0.100000,-0.100000)"
fill="#16364b" stroke="none">
<path d="M1583 5765 c-59 -26 -74 -64 -98 -265 -41 -339 4 -563 126 -626 78
-40 193 -1 280 94 107 117 273 395 310 520 30 104 -62 204 -165 178 -47 -12
-83 -54 -111 -129 -37 -98 -121 -259 -157 -299 l-29 -33 6 80 c3 44 13 134 22
200 9 66 16 137 16 157 -1 100 -105 165 -200 123z"/>
<path d="M3213 5526 c-49 -22 -75 -71 -70 -129 5 -62 24 -82 167 -170 139 -86
174 -111 222 -156 41 -37 41 -51 1 -51 -35 0 -100 -69 -109 -114 -9 -51 20
-104 79 -143 59 -40 104 -53 180 -53 185 0 268 188 170 384 -63 126 -124 182
-371 340 -165 107 -206 120 -269 92z"/>
<path d="M855 5472 c-120 -41 -205 -117 -258 -230 -30 -63 -32 -74 -32 -177 0
-93 3 -118 23 -159 52 -114 161 -206 243 -206 60 0 110 33 126 82 18 54 1 100
-52 145 -24 20 -49 49 -56 65 -16 39 -5 93 26 134 41 54 73 65 162 59 68 -6
82 -4 111 15 78 48 83 170 10 236 -56 52 -206 70 -303 36z"/>
<path d="M2912 5144 c-77 -38 -144 -136 -163 -240 -29 -159 76 -287 224 -271
61 6 162 39 196 65 55 40 66 67 69 167 5 115 -13 176 -65 230 -75 77 -169 95
-261 49z"/>
<path d="M2280 4971 c-45 -23 -80 -84 -80 -138 0 -52 -21 -69 -148 -117 -50
-19 -105 -42 -122 -51 -89 -46 -93 -183 -7 -235 47 -29 78 -25 221 31 253 98
329 182 330 364 0 48 -5 80 -17 102 -32 61 -110 80 -177 44z"/>
<path d="M4752 4823 c-75 -37 -95 -117 -73 -286 36 -268 181 -457 351 -457 99
0 179 51 228 145 21 41 26 63 26 125 0 64 -5 85 -33 142 -17 38 -57 95 -88
128 -87 94 -289 220 -353 220 -14 0 -40 -8 -58 -17z"/>
<path d="M2772 4111 c-71 -25 -106 -54 -143 -125 -44 -82 -17 -216 55 -271
122 -93 281 -94 577 -4 103 31 141 54 164 99 32 62 8 146 -53 187 -49 32 -229
101 -312 118 -98 21 -222 19 -288 -4z"/>
<path d="M1011 4049 c-55 -38 -74 -72 -78 -136 -3 -47 1 -66 19 -98 36 -61 80
-80 215 -93 63 -6 118 -14 120 -16 23 -22 -270 -273 -490 -420 -140 -95 -167
-126 -167 -199 0 -64 28 -109 84 -136 74 -36 132 -26 244 43 l72 45 21 -40
c11 -22 36 -50 55 -61 l34 -20 -32 -18 c-64 -34 -89 -120 -55 -186 9 -17 45
-49 81 -72 80 -52 143 -122 157 -176 29 -108 -12 -246 -100 -333 -84 -85 -146
-94 -206 -33 -82 84 -192 55 -227 -61 -15 -53 1 -103 51 -160 59 -67 120 -94
211 -93 136 0 256 60 390 194 99 98 150 188 177 314 22 101 9 198 -37 293 -42
85 -167 217 -269 284 -41 27 -71 49 -65 49 5 0 41 20 79 45 88 58 207 115 311
151 80 28 81 28 135 11 121 -38 209 36 209 178 0 152 -110 243 -232 191 -40
-16 -181 -56 -186 -51 -2 1 18 32 43 68 124 178 136 307 36 407 -76 76 -261
133 -474 146 -85 6 -94 4 -126 -17z"/>
<path d="M4163 3761 c-193 -66 -291 -264 -215 -433 28 -63 87 -125 146 -155
42 -22 65 -27 126 -27 67 -1 85 3 145 33 78 39 138 94 191 177 45 70 94 202
94 252 0 43 -28 94 -65 118 -77 50 -320 71 -422 35z m97 -306 c-26 -28 -50
-33 -50 -10 0 15 31 33 59 34 10 1 7 -7 -9 -24z"/>
<path d="M3394 3396 c-17 -8 -50 -33 -73 -57 -51 -53 -141 -225 -141 -269 0
-89 73 -150 181 -150 86 0 133 15 178 56 57 51 92 137 94 232 2 70 -1 83 -25
119 -46 70 -141 101 -214 69z"/>
<path d="M5045 3315 c-131 -64 -233 -167 -271 -273 -7 -20 -13 -67 -14 -104 0
-117 50 -213 138 -265 66 -39 162 -39 245 -1 194 91 301 344 216 511 -28 54
-97 135 -131 153 -46 24 -106 17 -183 -21z"/>
<path d="M2206 2731 c-106 -43 -159 -99 -247 -262 -61 -112 -107 -177 -158
-221 -21 -18 -48 -49 -62 -68 -13 -19 -64 -78 -114 -131 -175 -186 -231 -326
-242 -609 -5 -126 -3 -157 16 -235 67 -280 348 -555 650 -637 107 -29 294 -29
406 1 210 55 446 222 586 414 75 102 174 354 251 637 97 352 -29 658 -303 734
-34 10 -109 21 -167 24 -78 5 -107 11 -113 22 -4 8 -26 54 -47 102 -73 158
-176 236 -328 244 -63 4 -89 0 -128 -15z m133 -491 c37 -92 69 -138 129 -182
84 -62 115 -70 247 -62 137 8 201 0 216 -27 48 -91 -61 -523 -183 -726 -42
-69 -187 -209 -254 -245 -142 -76 -325 -77 -462 -3 -192 104 -294 306 -261
516 22 143 83 252 217 388 45 46 82 88 82 93 0 6 32 44 70 85 39 42 92 111
117 154 26 43 50 75 54 71 3 -4 16 -32 28 -62z"/>
<path d="M4086 2368 c-52 -14 -112 -76 -126 -130 -11 -39 -8 -105 7 -165 5
-23 5 -23 -33 -7 -130 54 -263 -52 -272 -216 -7 -124 74 -457 133 -542 72
-106 235 -128 320 -43 27 28 42 35 73 35 101 0 204 72 235 165 24 68 21 173
-8 322 -13 71 -36 200 -50 288 -19 119 -32 170 -51 202 -44 75 -142 115 -228
91z"/>
</g>
</svg>
