<?xml version="1.0" standalone="no"?>
<!DOCTYPE svg PUBLIC "-//W3C//DTD SVG 20010904//EN"
 "http://www.w3.org/TR/2001/REC-SVG-20010904/DTD/svg10.dtd">
<svg version="1.0" xmlns="http://www.w3.org/2000/svg"
 width="600.000000pt" height="600.000000pt" viewBox="0 0 600.000000 600.000000"
 preserveAspectRatio="xMidYMid meet">
<metadata>
Created by potrace 1.15, written by Peter Selinger 2001-2017
</metadata>
<g transform="translate(0.000000,600.000000) scale(0.100000,-0.100000)"
fill="#16364b" stroke="none">
<path d="M2945 5600 c-36 -22 -62 -66 -101 -165 -23 -60 -27 -85 -28 -180 -1
-104 1 -113 29 -164 58 -105 143 -145 343 -158 l113 -8 -74 -52 c-193 -133
-524 -446 -547 -516 -18 -58 -5 -102 46 -157 52 -56 116 -83 295 -125 210 -50
343 -86 457 -121 129 -41 163 -40 216 6 66 58 69 164 7 224 -28 27 -204 84
-544 177 -68 19 -76 23 -65 37 34 40 183 150 356 260 224 144 283 200 303 287
10 47 10 60 -5 99 -43 113 -155 157 -446 176 -188 12 -200 15 -200 40 0 10 18
54 40 96 46 89 51 140 20 192 -43 69 -148 95 -215 52z"/>
<path d="M1457 5328 c-200 -109 -472 -488 -541 -756 -33 -126 -8 -209 78 -251
55 -27 31 -30 288 37 128 34 283 60 294 49 4 -4 -41 -103 -100 -220 -86 -169
-109 -223 -110 -259 -1 -25 -11 -59 -21 -74 -45 -69 -26 -187 37 -234 52 -38
104 -38 194 3 44 20 155 67 247 106 200 83 252 112 278 154 43 71 10 172 -70
214 -61 32 -94 29 -190 -17 -45 -22 -87 -40 -92 -40 -5 0 18 53 50 118 70 140
91 209 92 301 2 148 -73 229 -230 251 -69 10 -226 0 -313 -20 -27 -5 -38 -4
-38 4 0 25 115 178 180 239 38 36 100 84 139 107 92 53 122 110 101 190 -33
121 -151 164 -273 98z"/>
<path d="M4515 4515 c-90 -20 -356 -112 -385 -133 -83 -61 -76 -206 13 -261
53 -33 101 -27 242 29 69 28 139 53 156 57 l31 6 -43 -84 c-62 -124 -139 -246
-226 -361 -100 -131 -102 -135 -103 -187 0 -46 17 -68 113 -144 52 -41 84 -51
302 -96 239 -50 265 -58 265 -78 0 -9 -15 -44 -34 -77 -18 -34 -55 -101 -82
-151 -26 -49 -74 -135 -106 -190 -64 -111 -73 -156 -41 -222 42 -89 178 -109
244 -36 67 75 278 473 313 592 19 64 21 154 5 202 -40 119 -145 175 -448 236
-75 15 -138 28 -140 30 -2 1 31 54 73 117 254 384 303 570 181 692 -71 71
-185 91 -330 59z"/>
<path d="M3731 3658 c-174 -93 -72 -406 109 -335 21 8 41 12 44 9 13 -13 4
-64 -20 -121 -22 -51 -31 -61 -51 -61 -40 0 -172 -48 -218 -80 -54 -37 -130
-122 -158 -174 -58 -114 14 -246 135 -246 43 0 86 27 131 82 52 64 110 89 222
97 148 12 196 52 206 174 3 40 17 99 30 132 19 49 23 79 24 160 0 88 -3 107
-27 158 -80 169 -298 274 -427 205z"/>
<path d="M2498 3600 c-151 -26 -374 -143 -417 -220 -26 -47 -28 -120 -3 -162
25 -43 77 -72 132 -72 37 0 63 10 135 52 95 54 232 105 268 100 18 -2 22 -11
25 -50 4 -69 -45 -206 -154 -429 -54 -109 -94 -204 -94 -220 0 -16 7 -46 15
-66 11 -25 14 -51 9 -80 -16 -110 79 -213 198 -213 15 0 80 16 145 36 141 43
284 84 297 84 14 0 -1 -42 -69 -200 -37 -84 -65 -164 -65 -182 0 -92 56 -167
144 -193 74 -22 145 -5 194 47 24 26 152 376 179 488 44 186 -5 332 -135 403
-104 56 -219 56 -420 -2 -53 -15 -98 -25 -100 -21 -1 4 29 81 68 170 86 199
113 290 112 390 0 90 -18 145 -72 216 -76 101 -233 151 -392 124z"/>
<path d="M1174 3329 c-74 -12 -129 -39 -248 -119 -111 -74 -137 -105 -151
-182 -14 -72 35 -155 110 -189 49 -23 126 -24 165 -4 28 14 30 14 30 -2 0 -10
-7 -47 -15 -82 -22 -91 -43 -194 -77 -376 -38 -207 -49 -442 -24 -509 31 -80
93 -115 209 -118 121 -2 128 5 312 277 211 313 377 545 386 539 5 -3 9 -14 9
-24 0 -10 5 -22 10 -25 16 -10 12 -98 -14 -264 -14 -86 -30 -201 -35 -256 -6
-55 -20 -188 -32 -295 -22 -207 -20 -269 11 -329 50 -97 191 -96 264 2 16 22
20 41 19 85 -7 153 -3 222 21 397 14 105 40 260 57 345 51 254 46 342 -32 620
-33 117 -109 180 -219 180 -130 0 -206 -70 -434 -403 -48 -71 -90 -127 -92
-124 -2 2 14 96 37 208 78 386 54 540 -97 621 -60 31 -103 38 -170 27z"/>
<path d="M4684 2305 c-60 -30 -102 -84 -119 -153 -12 -46 -13 -47 -51 -45
-205 10 -332 5 -407 -15 -141 -39 -260 -118 -313 -208 -51 -87 -66 -156 -71
-330 l-6 -162 -60 49 c-33 26 -92 63 -131 82 -204 99 -355 70 -526 -102 -97
-98 -157 -193 -236 -374 -28 -65 -54 -120 -56 -123 -7 -6 -44 129 -74 274 -60
281 -109 405 -182 457 -38 26 -52 30 -111 30 -59 0 -72 -4 -104 -28 -80 -60
-96 -149 -51 -278 14 -41 45 -162 70 -269 83 -365 117 -455 208 -545 91 -91
237 -122 378 -81 102 29 136 74 214 281 50 133 82 198 145 291 58 86 104 134
129 134 19 0 56 -28 205 -153 38 -32 103 -75 144 -95 69 -34 82 -37 160 -37
70 0 95 4 132 23 62 30 135 103 150 149 6 20 21 52 33 72 20 34 21 50 21 258
0 163 3 225 12 234 21 21 121 22 294 5 244 -25 353 -2 442 93 78 84 111 190
106 337 -4 80 -8 96 -34 140 -43 69 -106 105 -192 111 -59 4 -75 1 -119 -22z"/>
</g>
</svg>
