<?xml version="1.0" standalone="no"?>
<!DOCTYPE svg PUBLIC "-//W3C//DTD SVG 20010904//EN"
 "http://www.w3.org/TR/2001/REC-SVG-20010904/DTD/svg10.dtd">
<svg version="1.0" xmlns="http://www.w3.org/2000/svg"
 width="600.000000pt" height="600.000000pt" viewBox="0 0 600.000000 600.000000"
 preserveAspectRatio="xMidYMid meet">
<metadata>
Created by potrace 1.15, written by Peter Selinger 2001-2017
</metadata>
<g transform="translate(0.000000,600.000000) scale(0.100000,-0.100000)"
fill="#16364b" stroke="none">
<path d="M3124 5645 c-98 -50 -133 -316 -62 -464 49 -101 164 -177 337 -222
50 -13 91 -26 91 -29 0 -3 -39 -27 -88 -54 -265 -150 -481 -293 -541 -357 -12
-13 -26 -41 -32 -62 -6 -22 -19 -48 -29 -59 -43 -46 -43 -133 0 -202 48 -79
142 -106 375 -106 77 0 170 -5 207 -9 87 -12 133 -1 175 42 78 77 57 199 -40
236 -15 6 -91 14 -168 17 -77 4 -142 10 -144 15 -7 10 142 109 360 239 228
136 287 189 305 271 32 142 -73 251 -301 314 -257 72 -255 70 -244 187 4 46 7
96 6 111 -2 41 -35 101 -67 122 -38 25 -102 29 -140 10z"/>
<path d="M1313 5359 c-121 -78 -295 -295 -377 -469 -50 -106 -77 -216 -83
-345 -5 -104 -4 -112 19 -145 34 -50 81 -72 146 -67 56 4 91 24 126 71 16 21
22 46 25 112 1 46 5 84 8 84 3 0 16 -9 30 -20 44 -34 83 -34 218 0 69 18 128
30 130 28 2 -2 -13 -55 -35 -118 -67 -198 -77 -338 -31 -429 l21 -40 -74 -50
c-82 -56 -106 -93 -106 -165 0 -36 6 -52 30 -79 66 -75 136 -75 261 1 111 66
203 111 321 156 108 42 152 77 170 137 29 98 -41 189 -147 189 -19 0 -63 -10
-96 -21 l-62 -22 -19 24 c-24 31 -19 57 44 227 43 117 51 150 55 227 4 84 3
94 -24 145 -73 141 -225 173 -474 99 -56 -16 -106 -28 -111 -27 -14 5 62 115
119 172 26 27 72 64 100 83 57 36 93 91 93 140 0 77 -76 143 -165 143 -42 0
-60 -7 -112 -41z"/>
<path d="M4507 4480 c-167 -28 -222 -67 -222 -158 0 -58 24 -94 84 -123 42
-21 47 -22 155 -9 61 7 119 11 128 9 21 -5 -54 -102 -198 -257 -104 -111 -121
-147 -104 -213 21 -79 119 -122 205 -89 39 15 133 108 248 244 213 254 272
388 218 494 -27 53 -60 79 -124 102 -73 26 -237 26 -390 0z"/>
<path d="M3875 3690 c-31 -13 -66 -50 -81 -86 -37 -88 0 -173 131 -300 128
-125 203 -174 264 -174 58 0 102 26 124 73 36 75 6 155 -78 210 -48 31 -50 33
-47 75 7 91 -39 152 -143 191 -57 21 -134 27 -170 11z"/>
<path d="M2480 3679 c-66 -11 -222 -84 -272 -128 -79 -69 -87 -171 -19 -244
33 -35 44 -41 93 -45 46 -3 63 0 114 26 81 41 164 64 216 60 l43 -3 -2 -46
c-6 -117 -132 -370 -311 -627 -82 -119 -88 -150 -42 -242 17 -36 39 -81 48
-100 22 -45 94 -89 158 -96 43 -5 73 3 247 65 202 72 227 79 227 60 0 -20 -73
-186 -131 -299 -74 -141 -83 -192 -47 -260 45 -84 150 -134 236 -110 94 25
118 65 242 410 90 249 104 305 98 386 -8 116 -69 193 -185 237 -80 30 -273 30
-383 0 -41 -12 -76 -20 -78 -18 -1 1 24 50 56 108 113 204 164 366 166 527 1
90 -3 112 -22 155 -43 93 -111 145 -229 176 -81 20 -134 22 -223 8z"/>
<path d="M1138 3481 c-60 -12 -159 -68 -260 -144 -51 -39 -99 -78 -106 -86
-85 -106 -63 -245 48 -301 52 -27 133 -27 183 0 20 11 37 16 37 11 0 -5 -16
-67 -35 -137 -94 -343 -145 -607 -145 -757 0 -153 36 -203 177 -247 103 -32
146 -25 198 33 22 24 69 85 105 137 370 529 462 653 474 639 20 -19 8 -161
-29 -359 -102 -545 -119 -693 -90 -781 20 -63 65 -123 107 -145 40 -21 110
-20 147 2 62 37 90 141 56 208 -8 15 -15 47 -15 70 0 55 32 256 70 440 69 337
83 491 66 707 -10 127 -18 176 -36 217 -52 121 -171 163 -291 102 -66 -34
-247 -249 -428 -508 -24 -34 -46 -61 -47 -59 -2 2 15 71 37 153 72 263 78 288
94 378 27 157 15 252 -43 332 -55 75 -173 116 -274 95z"/>
<path d="M4557 3366 c-48 -18 -76 -42 -93 -83 -26 -60 -13 -124 33 -165 10 -9
67 -37 128 -63 138 -58 205 -100 205 -129 0 -28 -57 -113 -136 -204 -75 -85
-92 -129 -72 -186 29 -85 146 -132 229 -92 38 19 130 126 194 226 63 98 80
151 80 250 0 74 -4 92 -28 140 -35 68 -65 101 -139 151 -92 63 -320 171 -356
169 -4 -1 -24 -7 -45 -14z"/>
<path d="M3696 3209 c-197 -46 -377 -297 -309 -429 61 -117 236 -104 288 22
l18 44 94 1 c82 1 102 5 151 30 71 35 102 78 102 142 0 138 -169 231 -344 190z"/>
<path d="M4575 2258 c-77 -27 -135 -121 -135 -220 0 -56 9 -54 -132 -32 -136
22 -338 15 -419 -14 -79 -28 -114 -48 -160 -89 -91 -83 -124 -189 -139 -457
-17 -274 -22 -320 -41 -324 -14 -3 -79 51 -278 231 -171 154 -360 191 -492 95
-46 -33 -125 -149 -154 -226 -11 -29 -23 -52 -26 -52 -4 0 -11 26 -14 58 -23
199 -69 419 -102 487 -53 106 -180 140 -277 74 -76 -52 -94 -136 -57 -267 10
-38 24 -111 31 -163 52 -418 70 -497 141 -615 92 -152 322 -280 440 -245 96
29 158 130 145 238 -9 80 57 351 84 341 4 -2 66 -52 136 -113 269 -231 389
-280 539 -224 77 29 168 114 189 177 12 36 23 50 47 61 17 7 45 28 63 46 58
58 66 89 80 301 8 119 17 199 24 206 9 9 37 8 119 -6 205 -33 248 -38 339 -34
111 5 179 34 252 109 92 93 132 206 132 370 0 92 -3 111 -25 155 -53 106 -202
169 -310 132z"/>
</g>
</svg>
