<?xml version="1.0" standalone="no"?>
<!DOCTYPE svg PUBLIC "-//W3C//DTD SVG 20010904//EN"
 "http://www.w3.org/TR/2001/REC-SVG-20010904/DTD/svg10.dtd">
<svg version="1.0" xmlns="http://www.w3.org/2000/svg"
 width="600.000000pt" height="600.000000pt" viewBox="0 0 600.000000 600.000000"
 preserveAspectRatio="xMidYMid meet">
<metadata>
Created by potrace 1.15, written by Peter Selinger 2001-2017
</metadata>
<g transform="translate(0.000000,600.000000) scale(0.100000,-0.100000)"
fill="#16364b" stroke="none">
<path d="M2382 5400 c-21 -20 -22 -29 -22 -188 0 -409 -83 -612 -288 -704 -86
-39 -102 -53 -102 -94 0 -39 22 -64 58 -64 50 0 212 88 273 149 133 133 199
371 199 715 0 153 -2 168 -20 186 -26 26 -70 26 -98 0z"/>
<path d="M3514 5293 c-31 -31 -42 -73 -32 -112 40 -144 168 -271 275 -271 12
0 35 12 52 26 36 30 41 77 15 140 -34 81 -123 192 -176 220 -38 20 -112 18
-134 -3z"/>
<path d="M3001 5114 c-151 -75 -210 -328 -91 -389 57 -29 112 -16 194 48 45
36 92 128 102 198 9 64 -21 129 -69 152 -48 23 -74 21 -136 -9z m73 -136 c-12
-40 -31 -72 -58 -97 -35 -33 -42 -21 -22 34 24 61 98 119 80 63z"/>
<path d="M4767 4739 c-43 -25 -51 -64 -52 -254 0 -186 9 -254 45 -325 29 -57
63 -82 117 -87 60 -6 109 23 138 82 27 56 32 176 10 269 -21 89 -115 288 -146
310 -26 18 -85 21 -112 5z"/>
<path d="M2642 4200 c-49 -26 -81 -66 -89 -114 -22 -135 224 -261 416 -212
146 37 216 105 192 185 -16 57 -46 77 -171 117 -152 48 -282 57 -348 24z"/>
<path d="M5212 3985 c-134 -42 -208 -153 -206 -311 1 -68 6 -90 32 -146 36
-74 100 -139 170 -171 74 -34 178 -30 262 9 75 36 146 104 181 172 32 64 38
175 14 240 -32 83 -157 193 -243 213 -54 13 -161 10 -210 -6z m153 -305 c21
-8 24 -13 16 -29 -17 -30 -49 -33 -67 -6 -26 40 -3 56 51 35z"/>
<path d="M4199 3757 c-103 -29 -182 -97 -226 -194 -70 -152 -18 -310 125 -380
75 -37 182 -39 254 -6 66 30 143 105 175 172 25 50 28 67 27 156 0 111 -11
144 -63 188 -68 57 -208 87 -292 64z m84 -297 c-7 -25 -41 -46 -54 -33 -14 14
-1 39 24 50 28 13 36 8 30 -17z"/>
<path d="M1078 3435 c-132 -33 -219 -98 -269 -200 -27 -56 -32 -76 -32 -142
-1 -139 54 -241 170 -320 83 -55 153 -80 265 -94 133 -16 180 -33 225 -82 114
-124 205 -385 238 -682 23 -203 95 -372 223 -523 96 -114 171 -171 282 -216
131 -54 206 -66 485 -76 143 -5 389 -15 546 -21 248 -10 322 -10 550 5 444 28
534 43 736 120 118 45 298 135 377 188 162 110 277 266 335 453 61 194 20 551
-85 741 -94 171 -272 307 -474 363 -136 38 -339 23 -503 -36 -110 -39 -177
-76 -358 -194 -213 -139 -285 -173 -397 -189 -101 -15 -169 -7 -297 36 -178
59 -320 138 -577 321 -366 261 -542 360 -793 446 -294 101 -515 136 -647 102z
m286 -360 c188 -38 395 -115 540 -202 33 -20 187 -120 341 -223 154 -102 319
-210 367 -239 189 -113 417 -204 578 -231 191 -32 479 27 644 132 28 18 98 71
156 118 167 134 257 181 385 199 223 32 423 -90 486 -294 61 -199 0 -462 -139
-601 -49 -48 -157 -118 -246 -160 -230 -106 -599 -154 -1026 -133 -102 5 -361
9 -576 9 -424 1 -473 6 -584 56 -126 56 -205 193 -239 414 -36 225 -122 501
-222 709 -53 108 -69 133 -137 200 -114 113 -216 163 -376 182 -99 12 -176 39
-176 63 0 32 70 32 224 1z"/>
<path d="M2200 2300 c-11 -11 -20 -27 -20 -36 0 -22 55 -74 78 -74 48 0 76 88
37 116 -27 20 -72 17 -95 -6z"/>
<path d="M2887 2062 c-10 -10 -17 -29 -17 -41 0 -28 46 -71 76 -71 45 0 72 80
38 114 -21 22 -77 20 -97 -2z"/>
<path d="M3452 3360 c-13 -6 -35 -24 -50 -42 -59 -70 -152 -237 -152 -272 0
-38 33 -66 77 -66 32 0 45 8 99 64 103 105 159 244 118 293 -23 26 -60 36 -92
23z"/>
<path d="M466 2018 c-24 -34 -19 -64 17 -101 17 -19 53 -59 79 -90 79 -91 173
-122 223 -72 63 63 -9 171 -167 251 -80 40 -130 44 -152 12z"/>
<path d="M5355 1111 c-12 -5 -26 -15 -32 -22 -17 -21 -53 -135 -53 -168 0
-121 153 -152 207 -41 9 19 19 67 21 106 4 63 1 74 -20 98 -25 30 -86 43 -123
27z"/>
</g>
</svg>
