<?xml version="1.0" standalone="no"?>
<!DOCTYPE svg PUBLIC "-//W3C//DTD SVG 20010904//EN"
 "http://www.w3.org/TR/2001/REC-SVG-20010904/DTD/svg10.dtd">
<svg version="1.0" xmlns="http://www.w3.org/2000/svg"
 width="600.000000pt" height="600.000000pt" viewBox="0 0 600.000000 600.000000"
 preserveAspectRatio="xMidYMid meet">
<metadata>
Created by potrace 1.15, written by Peter Selinger 2001-2017
</metadata>
<g transform="translate(0.000000,600.000000) scale(0.100000,-0.100000)"
fill="#16364b" stroke="none">
<path d="M1830 5799 c-49 -20 -83 -66 -160 -219 -95 -190 -137 -305 -156 -432
-16 -108 -9 -167 27 -225 53 -85 167 -103 281 -44 93 48 190 126 309 248 216
220 229 238 229 309 0 44 -21 84 -60 118 -26 21 -42 26 -90 26 -63 0 -65 -1
-209 -128 -34 -30 -61 -49 -61 -43 0 6 23 56 50 111 34 67 50 112 50 137 0
105 -112 181 -210 142z"/>
<path d="M2969 5701 c-49 -27 -73 -66 -73 -123 -1 -60 20 -89 110 -151 394
-272 510 -372 569 -490 54 -107 46 -157 -24 -157 -45 0 -109 -29 -140 -64 -18
-18 -26 -41 -29 -78 -7 -96 59 -158 169 -158 172 0 300 103 335 271 22 107 6
202 -54 324 -39 77 -61 105 -151 195 -115 114 -281 247 -458 367 -99 67 -119
77 -165 80 -39 2 -63 -2 -89 -16z"/>
<path d="M910 5426 c-148 -40 -253 -137 -300 -277 -25 -73 -30 -219 -11 -303
39 -166 201 -336 297 -312 75 19 124 90 124 181 0 63 -17 103 -56 134 -15 12
-38 36 -51 53 -42 58 -25 176 31 213 14 9 54 20 89 25 118 14 170 59 170 146
0 54 -38 114 -86 137 -41 20 -141 21 -207 3z"/>
<path d="M2938 5176 c-73 -20 -125 -65 -173 -151 -46 -82 -61 -153 -46 -221
33 -148 176 -219 360 -180 96 20 131 42 158 96 22 43 22 51 13 146 -11 116
-32 174 -86 234 -66 73 -143 99 -226 76z"/>
<path d="M4794 4890 c-45 -14 -102 -74 -114 -121 -13 -48 1 -215 26 -312 35
-135 122 -258 219 -306 127 -63 285 0 356 144 28 58 31 71 27 137 -6 131 -77
243 -217 347 -118 87 -232 130 -297 111z"/>
<path d="M2029 4820 c-78 -19 -147 -52 -180 -86 -31 -33 -34 -40 -34 -99 0
-54 4 -67 25 -90 52 -56 124 -70 197 -40 64 27 70 22 83 -84 7 -52 14 -69 40
-96 54 -56 146 -64 209 -18 14 11 36 39 49 64 57 107 -14 319 -133 401 -72 48
-172 67 -256 48z"/>
<path d="M1123 4035 c-61 -13 -125 -30 -141 -39 -34 -18 -90 -78 -103 -113
-14 -37 -11 -120 5 -152 37 -70 130 -119 203 -105 45 8 52 21 -117 -191 -75
-93 -157 -199 -182 -235 -124 -178 -268 -474 -268 -552 1 -47 31 -108 73 -145
88 -77 213 -67 285 25 18 22 94 84 169 138 75 54 202 151 282 214 142 113 323
245 369 269 21 11 22 10 22 -36 0 -106 -67 -297 -185 -528 -65 -129 -278 -490
-369 -627 -36 -54 -38 -61 -34 -118 4 -54 9 -65 40 -96 25 -25 47 -37 76 -41
110 -15 132 9 364 395 196 325 328 604 385 817 30 110 43 353 24 432 -33 130
-148 182 -308 139 -57 -15 -203 -87 -289 -142 -31 -20 -57 -34 -59 -32 -2 1
37 53 87 113 131 161 165 217 184 302 13 61 14 81 4 123 -12 50 -55 119 -94
152 -74 62 -229 74 -423 33z"/>
<path d="M2930 4054 c-165 -29 -260 -114 -260 -234 0 -119 90 -201 275 -251
109 -29 351 -37 482 -16 105 17 132 34 177 105 39 63 44 109 17 165 -19 39
-33 51 -99 85 -107 56 -221 100 -316 122 -82 19 -230 32 -276 24z"/>
<path d="M4254 3790 c-156 -23 -267 -96 -319 -211 -24 -55 -27 -71 -23 -138 8
-126 75 -224 192 -281 67 -32 179 -33 249 -2 105 47 211 182 281 358 53 133
45 198 -26 242 -57 35 -229 50 -354 32z m-7 -335 c-16 -14 -33 -23 -38 -19
-15 9 21 44 45 44 19 -1 19 -2 -7 -25z"/>
<path d="M3402 3403 c-54 -26 -105 -94 -155 -206 -54 -120 -61 -179 -27 -234
29 -48 70 -64 164 -66 72 -2 86 1 127 25 147 87 195 348 82 450 -50 46 -134
60 -191 31z"/>
<path d="M4956 3120 c-26 -17 -80 -63 -120 -103 -205 -205 -207 -460 -4 -547
132 -57 308 20 385 167 80 153 67 324 -34 437 -53 60 -82 76 -134 76 -33 0
-58 -8 -93 -30z"/>
<path d="M3897 2648 c-57 -15 -132 -89 -153 -150 -23 -71 -15 -129 41 -276 26
-68 45 -125 43 -128 -3 -2 -31 5 -63 16 -83 29 -140 26 -211 -10 -107 -53
-166 -159 -166 -295 l0 -80 -14 46 c-19 64 -71 138 -119 170 -159 104 -359 70
-663 -114 -62 -38 -115 -67 -116 -65 -2 1 -9 32 -15 68 -57 305 -175 453 -361
453 -127 -1 -235 -68 -336 -209 -75 -105 -114 -189 -114 -244 0 -40 -7 -59
-41 -110 -54 -82 -124 -229 -150 -315 -26 -87 -36 -289 -20 -392 14 -92 62
-231 103 -302 44 -75 214 -245 312 -310 151 -102 268 -141 429 -141 201 0 408
73 572 203 85 67 157 157 185 229 9 23 30 66 46 93 17 28 61 118 98 200 160
353 205 493 207 644 l0 86 19 -65 c15 -54 85 -253 157 -449 73 -201 361 -210
437 -13 20 53 20 87 1 142 -15 42 -15 42 8 35 12 -4 52 -9 88 -12 133 -10 284
86 323 205 50 155 15 313 -176 803 -75 190 -86 210 -142 248 -69 48 -132 59
-209 39z m-1827 -883 c0 -30 42 -358 49 -382 24 -81 113 -143 207 -143 62 0
94 16 351 176 180 112 239 145 290 165 l26 10 -7 -50 c-7 -55 -43 -179 -76
-261 -19 -47 -124 -265 -157 -325 -7 -11 -22 -42 -34 -70 -62 -134 -220 -217
-419 -219 -112 -1 -168 16 -261 76 -91 58 -163 136 -190 205 -19 48 -23 78
-23 173 -1 155 29 247 131 401 34 51 46 80 50 116 4 47 40 133 55 133 5 0 8
-2 8 -5z"/>
</g>
</svg>
