<?xml version="1.0" standalone="no"?>
<!DOCTYPE svg PUBLIC "-//W3C//DTD SVG 20010904//EN"
 "http://www.w3.org/TR/2001/REC-SVG-20010904/DTD/svg10.dtd">
<svg version="1.0" xmlns="http://www.w3.org/2000/svg"
 width="600.000000pt" height="600.000000pt" viewBox="0 0 600.000000 600.000000"
 preserveAspectRatio="xMidYMid meet">
<metadata>
Created by potrace 1.15, written by Peter Selinger 2001-2017
</metadata>
<g transform="translate(0.000000,600.000000) scale(0.100000,-0.100000)"
fill="#16364b" stroke="none">
<path d="M2653 5531 c-70 -18 -110 -61 -169 -185 -88 -186 -43 -347 113 -406
52 -19 77 -22 243 -21 l185 0 -35 -26 c-19 -15 -78 -70 -131 -122 -77 -77
-122 -137 -233 -305 -76 -115 -143 -224 -148 -243 -11 -40 10 -115 43 -158 48
-60 50 -60 444 -60 263 0 381 -4 437 -14 70 -12 82 -12 123 3 63 24 95 66 95
123 0 61 -31 110 -85 134 -76 34 -324 64 -588 72 l-78 2 52 75 c54 77 188 216
364 376 113 103 145 154 145 230 0 97 -69 166 -195 199 -63 16 -196 18 -370 6
-55 -4 -102 -6 -105 -4 -2 2 15 42 39 88 36 70 43 90 38 121 -15 89 -92 137
-184 115z"/>
<path d="M1635 5151 c-78 -28 -126 -55 -211 -120 -144 -108 -310 -297 -376
-426 -40 -78 -30 -150 27 -205 l36 -35 185 3 c184 4 267 -1 294 -18 12 -7 14
-34 12 -138 -4 -153 6 -187 68 -228 73 -48 163 -31 206 40 17 28 19 53 19 227
l0 195 -30 59 c-51 100 -155 161 -308 180 -31 4 -57 10 -57 14 0 3 31 30 68
59 60 47 93 66 212 121 103 48 104 211 2 269 -48 26 -80 27 -147 3z"/>
<path d="M4235 4690 c-132 -36 -331 -147 -365 -202 -42 -69 -17 -165 52 -209
49 -30 98 -21 196 39 87 53 218 110 228 99 18 -18 -60 -233 -163 -450 -63
-131 -75 -166 -75 -207 0 -31 6 -59 16 -73 9 -12 27 -38 40 -58 44 -66 53 -67
347 -39 92 9 149 9 214 1 48 -6 90 -13 93 -15 13 -13 -95 -357 -149 -473 -54
-116 -42 -184 42 -241 28 -20 44 -23 92 -20 97 7 106 22 217 343 120 348 125
478 19 583 -73 74 -173 101 -396 109 -90 3 -163 10 -163 15 0 4 17 43 39 86
76 152 131 340 131 449 0 115 -55 210 -150 259 -52 26 -177 28 -265 4z"/>
<path d="M1977 4004 c-90 -47 -212 -91 -327 -119 -212 -50 -240 -69 -248 -171
-8 -94 61 -174 151 -174 18 0 89 15 158 34 217 60 451 163 489 216 32 44 36
102 11 152 -43 88 -136 113 -234 62z"/>
<path d="M3725 3659 c-116 -28 -301 -153 -340 -230 -22 -41 -19 -117 5 -157
37 -60 110 -87 172 -63 13 5 44 27 70 50 45 40 154 111 170 111 21 0 -33 -161
-108 -319 l-48 -103 -75 -38 c-87 -43 -110 -65 -120 -112 -11 -52 4 -99 42
-135 59 -54 128 -63 201 -25 17 8 102 40 190 72 89 31 188 71 221 88 71 35
137 103 155 157 34 102 -34 204 -147 221 -40 6 -44 9 -39 28 4 11 12 58 18
103 20 144 -19 270 -101 328 -39 28 -50 30 -134 32 -51 1 -110 -3 -132 -8z"/>
<path d="M2475 3489 c-103 -17 -364 -117 -407 -156 -30 -27 -58 -88 -58 -125
0 -77 68 -148 143 -148 23 0 92 19 161 45 156 58 211 74 266 77 40 3 45 1 48
-20 5 -32 -43 -172 -96 -276 -38 -78 -44 -96 -40 -138 12 -116 138 -186 229
-125 62 41 178 314 207 486 15 87 15 99 -1 160 -31 117 -98 186 -213 216 -62
16 -158 18 -239 4z"/>
<path d="M1156 3179 c-50 -12 -154 -64 -185 -92 -30 -28 -60 -93 -61 -131 0
-90 62 -174 144 -195 26 -6 56 -9 67 -6 17 6 19 1 19 -52 0 -32 -7 -137 -15
-233 -28 -334 -15 -612 32 -693 11 -17 38 -46 62 -64 37 -29 51 -33 100 -33
48 0 65 5 99 30 23 16 48 43 56 59 9 16 22 31 30 34 8 3 26 23 39 44 13 21 50
81 83 133 62 101 162 244 277 399 67 89 71 92 81 70 5 -13 9 -94 9 -179 0
-170 -11 -250 -68 -481 -19 -79 -35 -158 -35 -174 0 -42 45 -109 90 -134 73
-41 171 -17 205 49 15 30 62 238 89 395 39 230 39 484 1 637 -53 212 -214 308
-380 228 -66 -32 -166 -129 -265 -257 -46 -60 -86 -111 -89 -115 -4 -4 -6 106
-6 245 0 232 -2 257 -22 322 -26 82 -75 145 -137 177 -47 24 -158 33 -220 17z"/>
<path d="M4847 2709 c-115 -27 -187 -120 -187 -240 0 -42 -3 -49 -22 -53 -233
-51 -350 -93 -455 -164 -75 -51 -127 -121 -161 -215 -22 -61 -26 -89 -25 -182
0 -129 16 -200 75 -328 l41 -88 -28 -29 c-16 -17 -35 -30 -42 -30 -7 0 -53 21
-103 46 -50 25 -116 54 -148 65 -191 66 -427 4 -587 -155 -75 -74 -133 -155
-228 -318 -60 -101 -52 -94 -203 -183 -32 -19 -35 -19 -61 -3 -69 41 -160 222
-214 427 -37 138 -63 181 -132 216 -59 29 -93 31 -145 10 -73 -31 -121 -102
-122 -180 0 -85 67 -309 135 -447 93 -189 193 -304 312 -361 65 -30 74 -32
188 -32 142 0 216 21 316 88 34 23 67 45 73 49 6 4 28 15 50 24 25 11 48 33
65 60 14 24 55 91 91 149 71 117 150 211 206 246 49 30 106 22 220 -29 120
-55 202 -76 299 -76 69 -1 89 4 146 31 37 17 85 47 107 68 48 43 92 125 92
172 0 26 5 35 25 43 37 14 114 89 136 132 45 89 35 170 -35 263 -50 68 -69
122 -64 179 3 36 7 40 43 53 22 8 87 23 145 34 358 68 471 191 454 494 -10
162 -58 240 -164 264 -25 6 -47 10 -50 10 -3 -1 -22 -5 -43 -10z"/>
<path d="M3180 2521 c-130 -28 -550 -141 -580 -156 -41 -21 -88 -80 -100 -126
-32 -117 58 -239 176 -239 22 0 100 18 174 41 181 54 420 109 420 96 0 -2 -11
-37 -25 -77 -29 -85 -31 -117 -10 -168 56 -133 222 -162 327 -57 24 24 40 65
79 205 7 25 13 90 13 145 0 132 -24 198 -99 272 -86 84 -193 102 -375 64z"/>
</g>
</svg>
