<?xml version="1.0" standalone="no"?>
<!DOCTYPE svg PUBLIC "-//W3C//DTD SVG 20010904//EN"
 "http://www.w3.org/TR/2001/REC-SVG-20010904/DTD/svg10.dtd">
<svg version="1.0" xmlns="http://www.w3.org/2000/svg"
 width="600.000000pt" height="600.000000pt" viewBox="0 0 600.000000 600.000000"
 preserveAspectRatio="xMidYMid meet">
<metadata>
Created by potrace 1.15, written by Peter Selinger 2001-2017
</metadata>
<g transform="translate(0.000000,600.000000) scale(0.100000,-0.100000)"
fill="#16364b" stroke="none">
<path d="M2376 5388 c-13 -18 -16 -53 -16 -173 -1 -391 -84 -606 -272 -700
-39 -19 -77 -40 -85 -46 -35 -30 5 -109 55 -109 43 0 165 71 222 129 66 67
130 184 159 291 30 108 51 293 51 456 0 124 -2 143 -18 157 -27 25 -78 22 -96
-5z"/>
<path d="M3553 5280 c-23 -9 -53 -58 -53 -86 0 -35 76 -161 131 -215 69 -68
128 -90 176 -65 71 36 55 132 -44 261 -65 84 -152 128 -210 105z"/>
<path d="M2967 5060 c-49 -31 -98 -96 -118 -158 -6 -19 -9 -61 -7 -95 4 -52 9
-64 36 -88 43 -39 91 -38 158 1 93 53 174 167 174 244 0 114 -132 166 -243 96z
m113 -103 c0 -25 -57 -102 -89 -120 -27 -16 -31 -16 -31 -2 0 31 41 96 73 115
38 23 47 25 47 7z"/>
<path d="M4751 4712 c-25 -25 -29 -38 -36 -116 -4 -48 -4 -124 0 -169 22 -279
62 -367 170 -367 54 0 90 24 116 77 21 42 24 62 24 163 -1 134 -18 194 -92
326 -64 116 -125 144 -182 86z"/>
<path d="M2624 4185 c-95 -57 -96 -167 -4 -234 80 -58 142 -75 275 -75 116 -1
123 0 187 32 75 37 105 79 94 136 -12 62 -46 78 -300 147 -102 28 -200 25
-252 -6z"/>
<path d="M5241 3984 c-70 -19 -111 -44 -160 -100 -107 -122 -91 -325 36 -452
65 -65 121 -87 218 -87 65 1 91 6 137 27 71 33 147 102 176 162 79 157 38 303
-112 403 -95 64 -182 78 -295 47z m123 -284 c33 -12 33 -25 1 -46 -30 -20 -55
-5 -55 32 0 26 14 30 54 14z"/>
<path d="M4213 3746 c-178 -58 -296 -245 -254 -402 15 -57 80 -127 149 -161
47 -23 70 -28 132 -28 132 0 234 66 292 191 25 53 30 76 29 141 0 90 -12 152
-36 189 -41 63 -214 102 -312 70z m82 -278 c-12 -39 -65 -67 -65 -34 0 15 46
56 62 56 5 0 6 -10 3 -22z"/>
<path d="M1239 3570 c-64 -8 -154 -47 -208 -89 -45 -35 -87 -109 -101 -179
-30 -140 68 -330 204 -397 28 -14 88 -32 133 -39 45 -8 95 -22 110 -30 46 -23
109 -98 146 -173 79 -158 162 -487 197 -778 33 -272 151 -491 328 -608 131
-87 262 -126 507 -149 200 -19 1348 -18 1495 1 290 37 489 103 714 235 254
149 389 370 440 719 21 139 20 218 -4 312 -35 137 -141 306 -243 386 -175 139
-441 184 -696 118 -129 -33 -200 -69 -387 -200 -263 -182 -338 -212 -524 -213
-93 0 -116 3 -197 31 -156 54 -382 175 -613 328 -124 82 -210 152 -411 334
-128 115 -247 195 -404 271 -212 103 -352 137 -486 120z m146 -300 c187 -53
356 -165 580 -381 146 -142 192 -175 540 -390 347 -214 511 -288 714 -323 138
-23 249 -21 367 9 138 35 259 96 474 240 111 74 213 134 252 149 239 90 432
30 531 -165 37 -73 50 -156 44 -264 -7 -114 -27 -189 -77 -291 -62 -128 -168
-213 -380 -305 -169 -73 -308 -100 -620 -120 -283 -18 -1292 4 -1410 31 -215
48 -307 172 -345 467 -38 289 -176 740 -292 953 -90 165 -228 281 -375 315
-110 25 -168 62 -131 84 26 15 49 13 128 -9z"/>
<path d="M2270 2363 c-43 -16 -52 -68 -17 -101 44 -41 107 -16 107 43 0 42
-49 73 -90 58z"/>
<path d="M2848 2069 c-28 -16 -23 -64 8 -88 49 -39 114 -17 114 37 0 49 -74
80 -122 51z"/>
<path d="M3453 3360 c-31 -12 -84 -89 -137 -196 -59 -119 -62 -134 -36 -167
17 -21 30 -27 60 -27 33 0 44 7 84 51 54 60 125 197 133 256 5 35 2 45 -20 67
-27 27 -47 31 -84 16z"/>
<path d="M460 2020 c-36 -36 -26 -65 49 -143 119 -124 227 -172 284 -127 31
25 37 72 11 108 -21 30 -112 91 -211 141 -94 47 -105 49 -133 21z"/>
<path d="M5344 1115 c-26 -18 -60 -95 -69 -157 -9 -63 9 -114 49 -139 39 -24
63 -24 103 1 40 24 61 65 74 138 12 72 3 127 -24 153 -25 23 -102 26 -133 4z"/>
</g>
</svg>
