<?xml version="1.0" standalone="no"?>
<!DOCTYPE svg PUBLIC "-//W3C//DTD SVG 20010904//EN"
 "http://www.w3.org/TR/2001/REC-SVG-20010904/DTD/svg10.dtd">
<svg version="1.0" xmlns="http://www.w3.org/2000/svg"
 width="600.000000pt" height="600.000000pt" viewBox="0 0 600.000000 600.000000"
 preserveAspectRatio="xMidYMid meet">
<metadata>
Created by potrace 1.15, written by Peter Selinger 2001-2017
</metadata>
<g transform="translate(0.000000,600.000000) scale(0.100000,-0.100000)"
fill="#16364b" stroke="none">
<path d="M2092 5450 c-42 -26 -68 -84 -83 -182 -9 -64 -9 -85 5 -131 34 -118
102 -156 290 -163 66 -3 121 -6 122 -7 2 -2 -42 -220 -85 -420 -27 -124 -9
-181 66 -213 42 -18 67 -18 110 3 58 27 77 71 138 313 69 275 79 369 45 447
-42 98 -158 173 -268 173 -26 0 -63 3 -83 6 -32 5 -35 9 -31 35 2 16 -5 47
-17 72 -38 79 -137 110 -209 67z"/>
<path d="M3390 5407 c-82 -57 -86 -152 -11 -220 29 -26 52 -37 88 -42 93 -12
103 -16 118 -45 28 -54 9 -207 -41 -325 -44 -106 20 -215 128 -215 90 0 134
56 185 239 78 281 8 509 -186 602 -36 18 -68 24 -146 27 -93 3 -102 2 -135
-21z"/>
<path d="M1645 4809 c-69 -11 -285 -74 -331 -96 -111 -53 -111 -193 0 -258 56
-33 89 -32 215 9 139 45 249 60 333 46 133 -23 135 -23 180 -1 47 23 88 80 88
122 -1 44 -37 107 -77 133 -74 49 -261 70 -408 45z"/>
<path d="M4264 4460 c-95 -48 -112 -183 -29 -243 14 -10 70 -27 126 -37 178
-34 196 -59 184 -254 -11 -188 -11 -193 11 -223 40 -53 70 -68 141 -68 61 0
66 2 97 36 31 33 34 45 46 139 16 131 8 255 -24 354 -59 185 -149 262 -354
302 -100 19 -150 18 -198 -6z"/>
<path d="M1531 4442 c-56 -28 -76 -64 -76 -137 0 -108 43 -145 200 -170 55 -9
193 -37 307 -62 238 -52 259 -52 319 5 55 53 70 114 43 179 -12 29 -31 54 -49
65 -37 21 -626 138 -697 138 -7 0 -28 -8 -47 -18z"/>
<path d="M3210 4436 c-66 -25 -335 -176 -657 -369 -52 -31 -74 -65 -80 -120
-8 -80 47 -145 130 -154 42 -5 57 1 181 66 74 39 170 92 213 117 43 26 146 82
230 126 190 99 225 136 209 222 -9 46 -41 85 -90 107 -48 22 -87 23 -136 5z"/>
<path d="M2178 3820 c-127 -38 -274 -53 -414 -45 -98 6 -116 5 -155 -13 -57
-25 -95 -67 -109 -120 -9 -36 -8 -49 9 -87 12 -26 33 -53 53 -65 32 -20 43
-21 258 -17 234 5 323 17 481 66 82 26 112 49 133 102 33 81 -12 176 -92 199
-49 13 -52 13 -164 -20z"/>
<path d="M3655 3789 c-33 -11 -187 -83 -342 -159 -311 -153 -323 -162 -323
-248 0 -85 51 -143 134 -150 52 -4 60 -1 267 106 118 60 224 113 237 117 17 5
28 -1 49 -26 52 -61 143 -77 204 -36 40 27 68 98 76 193 6 71 -7 121 -45 166
-51 61 -146 75 -257 37z"/>
<path d="M5015 3454 c-100 -25 -165 -78 -190 -155 -18 -52 -17 -76 5 -194 13
-68 13 -73 -12 -125 -15 -33 -63 -97 -120 -160 -114 -127 -161 -195 -232 -337
-76 -152 -107 -251 -113 -353 -4 -81 -3 -87 27 -138 74 -126 244 -165 359 -82
54 40 87 101 99 185 12 87 60 214 110 291 21 33 82 105 135 162 53 57 114 130
136 164 96 143 124 370 71 570 -15 54 -68 119 -120 144 -46 23 -119 36 -155
28z"/>
<path d="M2022 3198 c-116 -25 -161 -171 -78 -254 43 -43 83 -52 271 -63 87
-6 161 -13 165 -18 4 -4 13 -25 19 -45 25 -76 122 -129 200 -108 80 21 121 76
121 163 0 143 -93 253 -247 292 -32 8 -134 19 -227 25 -93 6 -171 12 -175 14
-3 1 -25 -1 -49 -6z"/>
<path d="M4315 3139 c-11 -7 -50 -40 -87 -75 -185 -173 -408 -263 -768 -309
-60 -7 -103 -35 -123 -78 -36 -75 -12 -154 62 -204 46 -31 126 -30 281 3 260
54 454 138 635 272 77 58 192 169 211 204 28 54 13 118 -40 168 -21 19 -39 25
-89 27 -36 2 -70 -1 -82 -8z"/>
<path d="M1325 2976 c-91 -42 -131 -154 -90 -253 9 -21 24 -128 36 -262 22
-239 52 -418 94 -548 35 -109 102 -229 148 -267 36 -28 45 -31 111 -31 64 0
77 3 108 27 81 62 102 179 48 272 -57 100 -93 270 -125 598 -28 275 -66 392
-145 444 -50 33 -137 43 -185 20z"/>
<path d="M2156 2439 c-118 -18 -297 -151 -311 -231 -10 -55 2 -102 33 -133 60
-61 137 -62 232 -5 37 22 81 45 99 50 30 8 35 6 86 -45 58 -58 96 -73 162 -60
48 9 99 60 109 109 12 64 -10 110 -89 190 -108 109 -197 143 -321 125z"/>
<path d="M3790 2145 c-36 -7 -112 -25 -170 -40 -58 -15 -257 -58 -442 -95
-366 -75 -388 -83 -438 -157 -34 -50 -36 -166 -4 -210 29 -38 79 -71 122 -79
49 -9 202 16 502 81 349 77 543 109 605 100 27 -4 77 -8 110 -9 74 -1 113 23
145 90 27 54 23 119 -9 182 -29 56 -104 119 -164 137 -61 18 -168 18 -257 0z"/>
<path d="M2255 1896 c-46 -21 -67 -51 -82 -119 -26 -127 -5 -284 56 -413 49
-103 154 -219 212 -234 95 -26 199 53 199 150 0 41 -13 66 -66 120 -73 76 -89
124 -89 270 0 108 -3 130 -21 160 -39 68 -136 98 -209 66z"/>
<path d="M4682 1645 c-18 -8 -59 -39 -90 -68 -109 -103 -164 -126 -437 -182
-347 -71 -592 -165 -749 -288 -134 -105 -83 -327 81 -353 51 -8 88 4 160 52
162 108 322 163 664 230 197 38 305 78 430 159 89 57 175 138 200 187 21 41
25 111 8 155 -36 95 -170 150 -267 108z"/>
<path d="M2085 1068 c-116 -40 -165 -150 -114 -251 46 -90 249 -258 403 -332
145 -71 231 -89 421 -89 145 0 168 3 248 27 252 77 334 148 325 282 -5 76 -38
127 -102 156 -57 26 -111 24 -176 -7 -148 -70 -290 -96 -405 -75 -116 22 -186
64 -401 243 -65 54 -132 69 -199 46z"/>
</g>
</svg>
