<?xml version="1.0" standalone="no"?>
<!DOCTYPE svg PUBLIC "-//W3C//DTD SVG 20010904//EN"
 "http://www.w3.org/TR/2001/REC-SVG-20010904/DTD/svg10.dtd">
<svg version="1.0" xmlns="http://www.w3.org/2000/svg"
 width="600.000000pt" height="600.000000pt" viewBox="0 0 600.000000 600.000000"
 preserveAspectRatio="xMidYMid meet">
<metadata>
Created by potrace 1.15, written by Peter Selinger 2001-2017
</metadata>
<g transform="translate(0.000000,600.000000) scale(0.100000,-0.100000)"
fill="#16364b" stroke="none">
<path d="M3160 5483 c-54 -28 -83 -78 -77 -136 5 -59 28 -92 92 -134 72 -48
90 -82 89 -173 0 -59 -6 -88 -29 -140 -38 -88 -44 -156 -15 -193 61 -78 187
-80 258 -5 12 14 36 62 54 109 28 74 32 96 32 189 1 61 -5 126 -13 155 -61
220 -267 392 -391 328z"/>
<path d="M2040 5432 c-52 -28 -80 -89 -80 -175 0 -98 16 -144 71 -199 40 -40
59 -50 135 -73 109 -32 117 -36 125 -66 3 -13 4 -99 1 -190 -6 -191 2 -225 56
-267 29 -22 46 -27 89 -26 107 1 145 60 159 245 16 229 12 306 -18 371 -49
104 -146 177 -275 208 -47 11 -53 15 -53 38 -1 40 -35 108 -64 127 -40 27
-105 30 -146 7z"/>
<path d="M1602 4770 c-232 -24 -306 -61 -319 -160 -7 -54 2 -83 38 -119 46
-47 92 -55 201 -35 138 25 317 23 393 -5 32 -11 79 -21 104 -21 82 0 145 65
145 151 0 118 -128 185 -369 194 -60 2 -147 0 -193 -5z"/>
<path d="M4340 4609 c-60 -24 -100 -85 -100 -152 0 -55 25 -89 91 -122 70 -36
114 -78 138 -134 23 -55 40 -157 41 -242 0 -69 15 -116 48 -151 69 -75 181
-49 234 55 19 38 20 52 15 177 -9 214 -57 349 -158 451 -99 100 -230 149 -309
118z"/>
<path d="M3175 4458 c-11 -7 -52 -39 -91 -73 -133 -117 -322 -250 -516 -366
-76 -45 -98 -133 -50 -198 54 -72 131 -89 214 -46 105 55 267 163 438 291 214
160 226 171 240 224 10 37 9 47 -12 88 -32 65 -76 92 -147 92 -31 0 -65 -6
-76 -12z"/>
<path d="M1604 4365 c-98 -59 -91 -201 13 -254 65 -32 291 -67 510 -78 112 -5
139 -3 178 11 61 24 95 73 95 139 0 100 -60 147 -186 147 -89 0 -299 23 -418
45 -109 21 -144 19 -192 -10z"/>
<path d="M3740 3885 c-25 -8 -119 -57 -210 -110 -196 -113 -380 -208 -470
-242 -87 -33 -109 -48 -127 -90 -31 -75 25 -167 117 -194 62 -19 116 3 453
177 228 118 306 154 335 154 85 0 137 65 130 162 -5 70 -27 104 -88 136 -50
25 -76 26 -140 7z"/>
<path d="M2235 3815 c-153 -45 -300 -67 -444 -67 -158 0 -180 -5 -224 -57 -38
-46 -44 -101 -15 -159 13 -26 36 -54 53 -64 37 -21 138 -38 227 -38 145 0 466
60 560 104 133 64 87 280 -63 292 -24 2 -66 -3 -94 -11z"/>
<path d="M5038 3596 c-48 -13 -61 -21 -112 -65 -38 -34 -76 -116 -76 -166 0
-22 8 -78 17 -124 32 -162 1 -244 -193 -506 -127 -172 -210 -298 -258 -393
-71 -141 2 -306 153 -342 81 -19 151 0 208 58 64 66 377 545 439 672 115 234
143 398 109 625 -18 120 -48 176 -115 216 -56 34 -111 42 -172 25z"/>
<path d="M1980 3151 c-48 -25 -80 -75 -80 -123 0 -117 95 -172 380 -218 89
-15 142 -29 155 -40 52 -46 136 -54 193 -20 77 47 97 153 42 228 -60 84 -127
111 -335 137 -66 9 -150 25 -187 35 -83 25 -124 25 -168 1z"/>
<path d="M4360 3133 c-14 -9 -54 -44 -90 -78 -83 -79 -163 -137 -253 -185
-135 -72 -349 -132 -522 -145 -116 -10 -149 -21 -184 -60 -57 -65 -51 -157 14
-214 58 -50 98 -57 233 -38 388 55 724 207 956 431 77 75 93 109 80 173 -8 41
-55 96 -98 117 -44 21 -105 21 -136 -1z"/>
<path d="M1365 2976 c-72 -32 -115 -100 -115 -182 0 -77 50 -503 71 -608 27
-132 51 -202 113 -319 60 -116 138 -223 184 -253 137 -93 321 35 283 198 -5
26 -24 69 -41 96 -123 200 -187 427 -210 742 -13 186 -23 224 -74 275 -60 60
-145 80 -211 51z"/>
<path d="M2101 2369 c-103 -17 -155 -72 -154 -160 1 -56 21 -96 68 -137 46
-41 73 -47 142 -33 107 21 191 8 206 -33 8 -21 80 -56 115 -56 33 0 86 33 115
71 46 64 29 172 -40 242 -98 101 -257 138 -452 106z"/>
<path d="M4025 2084 c-49 -8 -198 -41 -330 -73 -276 -69 -446 -102 -665 -132
-183 -24 -225 -43 -259 -112 -60 -123 14 -261 156 -291 70 -16 423 48 658 118
264 78 346 95 573 115 81 7 98 12 130 38 76 60 102 163 63 248 -46 100 -122
120 -326 89z"/>
<path d="M4745 1674 c-16 -8 -46 -30 -65 -48 -155 -145 -304 -217 -608 -292
-193 -47 -265 -73 -462 -166 -149 -71 -200 -125 -200 -213 0 -70 37 -125 105
-156 60 -28 93 -24 227 31 124 50 199 71 453 130 326 76 512 167 719 353 129
116 156 213 84 301 -17 21 -50 47 -72 57 -50 23 -140 24 -181 3z"/>
<path d="M2132 1643 c-72 -35 -102 -111 -76 -190 50 -148 199 -299 388 -392
100 -50 154 -63 204 -49 71 19 112 77 112 157 0 69 -35 108 -130 145 -81 32
-176 98 -211 147 -13 18 -38 61 -55 94 -40 77 -80 105 -148 105 -28 0 -66 -8
-84 -17z"/>
<path d="M2035 981 c-130 -60 -143 -218 -27 -323 145 -131 415 -252 654 -294
206 -36 466 15 630 123 105 70 103 250 -3 320 -60 40 -118 41 -210 5 -92 -37
-208 -62 -286 -62 -130 0 -320 70 -478 176 -38 26 -84 53 -102 60 -45 20 -130
17 -178 -5z"/>
</g>
</svg>
