<?xml version="1.0" standalone="no"?>
<!DOCTYPE svg PUBLIC "-//W3C//DTD SVG 20010904//EN"
 "http://www.w3.org/TR/2001/REC-SVG-20010904/DTD/svg10.dtd">
<svg version="1.0" xmlns="http://www.w3.org/2000/svg"
 width="600.000000pt" height="600.000000pt" viewBox="0 0 600.000000 600.000000"
 preserveAspectRatio="xMidYMid meet">
<metadata>
Created by potrace 1.15, written by Peter Selinger 2001-2017
</metadata>
<g transform="translate(0.000000,600.000000) scale(0.100000,-0.100000)"
fill="#16364b" stroke="none">
<path d="M2530 5502 c-64 -35 -160 -253 -160 -360 1 -84 50 -166 123 -203 69
-36 127 -40 309 -23 94 8 172 13 174 11 2 -2 -25 -29 -60 -60 -89 -79 -177
-192 -312 -399 -156 -242 -177 -283 -169 -333 10 -64 40 -122 73 -139 25 -13
68 -14 301 -9 187 4 326 2 446 -7 197 -15 218 -11 262 47 52 67 37 171 -31
212 -44 27 -173 41 -433 48 -123 3 -223 9 -223 13 0 21 146 188 317 362 211
215 237 252 237 344 0 80 -41 139 -128 184 l-69 35 -141 -2 c-78 0 -188 -8
-246 -17 -57 -8 -106 -13 -109 -10 -3 2 9 34 27 70 18 35 32 78 32 95 0 111
-127 192 -220 141z"/>
<path d="M1643 5116 c-195 -64 -420 -244 -549 -437 -38 -57 -48 -83 -52 -124
-5 -66 17 -117 67 -151 33 -22 45 -24 161 -24 200 0 335 -29 344 -73 3 -12 7
-61 9 -109 5 -94 22 -136 67 -170 81 -60 231 -6 258 94 14 53 -2 235 -28 303
-41 111 -168 211 -314 249 -32 9 -61 18 -63 20 -14 14 180 119 239 130 125 23
148 206 37 289 -40 29 -95 30 -176 3z"/>
<path d="M4235 4744 c-114 -24 -276 -91 -376 -155 -102 -65 -101 -187 2 -240
57 -28 99 -24 187 20 78 38 186 77 232 83 19 2 26 -2 28 -18 5 -38 -101 -312
-192 -493 -53 -104 -51 -150 10 -231 79 -104 102 -111 284 -81 124 21 317 27
370 12 22 -6 25 -12 21 -46 -4 -47 -77 -279 -133 -424 -52 -133 -50 -177 10
-232 50 -47 108 -59 170 -34 23 10 51 29 61 44 25 35 114 296 158 461 29 108
37 154 37 231 1 88 -1 99 -27 137 -57 87 -158 133 -336 153 -54 6 -140 8 -195
4 -92 -6 -98 -5 -93 12 3 10 30 77 61 148 108 256 132 403 82 511 -27 59 -82
107 -145 129 -41 14 -166 19 -216 9z"/>
<path d="M1975 3983 c-116 -50 -323 -120 -411 -138 -87 -18 -108 -27 -146 -63
-73 -68 -54 -193 36 -236 47 -22 99 -20 229 9 127 29 422 125 482 158 81 45
107 158 54 243 -45 73 -119 82 -244 27z"/>
<path d="M3760 3683 c-137 -23 -346 -134 -428 -228 -67 -75 -29 -198 68 -223
55 -14 95 -2 183 55 83 54 198 105 210 94 12 -12 -38 -155 -87 -246 -101 -187
-117 -210 -170 -236 -66 -32 -96 -76 -96 -142 0 -93 64 -157 158 -157 51 0
147 35 440 162 195 85 265 154 265 263 0 43 -6 62 -26 88 -44 58 -118 81 -183
57 -15 -6 -29 -9 -31 -7 -2 3 6 40 18 83 31 112 31 232 0 297 -54 111 -177
164 -321 140z"/>
<path d="M2355 3414 c-136 -25 -248 -55 -283 -76 -83 -51 -86 -184 -6 -247 53
-42 91 -44 194 -11 166 53 315 74 326 46 8 -21 -21 -115 -68 -219 -35 -78 -40
-97 -36 -144 13 -155 198 -208 273 -79 34 60 111 251 128 321 28 111 30 155 8
225 -25 80 -63 127 -132 165 -51 28 -61 30 -189 32 -87 1 -164 -3 -215 -13z"/>
<path d="M1165 3133 c-63 -26 -148 -85 -172 -122 -50 -74 -50 -156 0 -222 27
-37 93 -69 140 -69 35 0 37 -2 37 -33 0 -18 -9 -120 -19 -227 -29 -289 -33
-395 -21 -500 15 -129 25 -164 63 -207 104 -118 298 -85 346 59 6 19 24 40 40
50 23 12 47 50 96 149 37 73 90 167 118 208 54 78 177 211 195 211 6 0 13 -55
17 -142 8 -180 -8 -331 -56 -533 -23 -98 -24 -146 -3 -188 21 -39 32 -50 71
-71 62 -31 139 -15 182 40 24 30 41 87 75 249 38 182 49 316 41 515 -7 188
-24 288 -60 360 -29 57 -58 83 -119 111 -144 63 -357 -54 -535 -295 -35 -47
-66 -84 -69 -81 -3 2 1 73 8 157 18 212 11 368 -18 433 -48 106 -139 165 -252
164 -36 0 -83 -7 -105 -16z"/>
<path d="M4840 2795 c-100 -32 -162 -115 -166 -224 -2 -34 -5 -65 -7 -67 -2
-3 -60 -20 -128 -40 -308 -88 -447 -206 -504 -429 -39 -154 4 -336 120 -501
45 -66 53 -84 35 -84 -5 0 -28 -17 -51 -37 l-41 -37 -61 17 c-34 9 -100 28
-146 42 -128 38 -201 47 -288 35 -144 -20 -272 -89 -384 -206 -64 -69 -165
-194 -198 -248 -13 -20 -46 -52 -75 -71 -28 -19 -70 -51 -94 -70 -27 -21 -54
-35 -72 -35 -33 0 -90 45 -144 113 -48 60 -138 233 -162 309 -33 108 -107 168
-207 168 -98 0 -177 -77 -177 -173 0 -85 90 -341 158 -451 100 -160 230 -276
365 -324 96 -35 216 -36 299 -3 59 23 149 79 203 126 16 14 51 38 77 52 37 20
64 48 116 122 82 117 211 248 277 280 71 35 140 32 295 -14 102 -31 142 -38
220 -39 87 -1 100 2 162 31 118 56 208 158 208 238 0 27 4 35 18 35 29 1 95
35 125 66 91 92 86 222 -12 337 -66 77 -97 155 -92 228 2 23 35 35 194 68 78
16 168 41 199 54 156 69 228 212 228 451 0 122 -8 162 -42 212 -47 69 -156 99
-248 69z"/>
<path d="M3235 2469 c-158 -33 -583 -143 -616 -159 -101 -52 -131 -201 -57
-286 67 -76 110 -82 284 -38 153 38 391 84 436 84 32 0 33 -3 13 -60 -49 -139
42 -270 187 -270 114 0 174 74 213 262 47 221 -19 382 -185 455 -43 19 -206
26 -275 12z"/>
</g>
</svg>
