<?xml version="1.0" standalone="no"?>
<!DOCTYPE svg PUBLIC "-//W3C//DTD SVG 20010904//EN"
 "http://www.w3.org/TR/2001/REC-SVG-20010904/DTD/svg10.dtd">
<svg version="1.0" xmlns="http://www.w3.org/2000/svg"
 width="600.000000pt" height="600.000000pt" viewBox="0 0 600.000000 600.000000"
 preserveAspectRatio="xMidYMid meet">
<metadata>
Created by potrace 1.15, written by Peter Selinger 2001-2017
</metadata>
<g transform="translate(0.000000,600.000000) scale(0.100000,-0.100000)"
fill="#16364b" stroke="none">
<path d="M3033 5500 c-94 -57 -95 -175 -2 -249 83 -67 108 -183 74 -350 l-18
-89 24 -48 c44 -90 158 -120 223 -59 71 66 96 364 44 534 -63 208 -228 333
-345 261z"/>
<path d="M2015 5433 c-58 -31 -85 -80 -85 -151 0 -132 82 -244 219 -297 40
-16 79 -39 87 -51 9 -13 21 -85 30 -185 19 -204 34 -235 119 -258 74 -20 162
24 184 92 12 37 -2 332 -19 405 -30 124 -125 225 -261 276 -42 16 -47 21 -52
56 -13 102 -131 162 -222 113z"/>
<path d="M1395 4765 c-131 -46 -150 -216 -32 -280 31 -17 45 -17 168 -8 167
14 294 2 387 -34 89 -34 141 -39 186 -18 74 35 100 137 53 206 -40 60 -152
107 -320 134 -120 19 -387 20 -442 0z"/>
<path d="M4335 4651 c-49 -22 -69 -44 -84 -93 -19 -59 0 -109 60 -160 111 -95
165 -193 201 -368 12 -58 29 -110 44 -133 67 -102 229 -80 253 34 13 61 -26
251 -75 377 -69 174 -244 363 -336 362 -13 0 -41 -9 -63 -19z"/>
<path d="M3173 4487 c-12 -7 -86 -71 -165 -143 -190 -174 -235 -212 -347 -291
-51 -37 -102 -81 -112 -98 -39 -63 -15 -153 53 -196 26 -15 45 -19 88 -16 48
3 68 12 155 68 133 87 221 158 397 323 156 145 176 175 164 241 -8 40 -47 90
-87 110 -34 18 -116 19 -146 2z"/>
<path d="M1636 4358 c-104 -61 -112 -198 -15 -270 42 -32 369 -70 554 -65 168
4 204 15 243 71 43 63 22 174 -41 220 -27 20 -40 21 -190 18 -134 -2 -181 1
-272 19 -171 33 -232 35 -279 7z"/>
<path d="M3772 3945 c-18 -8 -96 -57 -175 -109 -182 -120 -354 -214 -487 -266
-156 -60 -168 -67 -190 -102 -49 -80 -3 -187 93 -218 32 -10 47 -9 109 10 99
30 288 112 383 167 44 25 149 93 233 150 84 56 158 103 165 103 15 0 59 45 76
77 16 32 13 101 -6 133 -35 61 -129 86 -201 55z"/>
<path d="M2260 3804 c-156 -39 -236 -47 -431 -47 -177 1 -199 0 -228 -18 -96
-58 -94 -198 3 -259 67 -40 327 -62 479 -39 98 15 262 56 320 81 121 52 131
217 17 276 -50 25 -80 26 -160 6z"/>
<path d="M5014 3611 c-52 -24 -111 -93 -128 -151 -9 -32 -12 -80 -9 -160 10
-217 -31 -309 -303 -690 -179 -251 -179 -251 -179 -330 1 -189 196 -308 366
-222 59 29 35 -3 352 482 126 193 141 220 176 325 51 154 63 319 36 519 -18
132 -45 186 -114 223 -55 29 -138 31 -197 4z"/>
<path d="M1983 3134 c-84 -42 -102 -156 -37 -233 44 -53 182 -92 374 -106 57
-4 109 -14 130 -25 54 -27 87 -32 133 -19 83 22 132 108 108 189 -17 56 -46
86 -115 119 -55 27 -80 32 -207 41 -79 6 -171 18 -204 27 -88 24 -145 26 -182
7z"/>
<path d="M4385 3116 c-16 -8 -55 -38 -85 -66 -182 -173 -514 -307 -852 -345
-168 -19 -229 -203 -96 -285 78 -47 330 -12 583 82 227 83 429 195 557 308 76
67 98 103 98 160 0 62 -28 110 -80 137 -49 26 -82 28 -125 9z"/>
<path d="M1379 2947 c-24 -13 -57 -43 -74 -66 l-30 -43 1 -161 c1 -248 27
-445 81 -612 59 -185 189 -398 268 -439 57 -30 147 -29 198 3 53 33 87 95 87
160 0 60 -9 80 -58 135 -99 111 -156 359 -177 771 -4 66 -11 134 -17 150 -38
105 -177 156 -279 102z"/>
<path d="M2107 2351 c-53 -11 -88 -39 -114 -91 -28 -54 -29 -85 -5 -129 28
-52 72 -71 164 -71 111 0 171 -15 220 -56 65 -55 95 -67 152 -61 40 3 55 11
77 35 55 61 58 154 8 224 -31 44 -115 99 -190 125 -77 26 -241 39 -312 24z"/>
<path d="M4035 2065 c-93 -25 -314 -74 -490 -110 -634 -127 -668 -135 -707
-161 -73 -47 -99 -153 -58 -235 24 -46 88 -96 135 -105 60 -11 511 66 835 142
58 14 170 44 250 68 80 24 181 52 225 61 143 32 201 94 193 210 -5 76 -38 127
-102 156 -59 27 -91 24 -281 -26z"/>
<path d="M4821 1687 c-20 -6 -68 -45 -118 -94 -157 -154 -229 -185 -798 -343
-174 -49 -343 -110 -386 -141 -97 -69 -86 -224 22 -296 75 -49 107 -49 261 6
47 17 176 54 285 82 460 117 641 203 850 403 128 122 164 199 132 283 -33 88
-145 133 -248 100z"/>
<path d="M2116 1610 c-63 -19 -106 -83 -106 -157 0 -65 52 -154 145 -248 105
-107 227 -181 371 -226 130 -41 200 -23 243 64 49 99 3 188 -117 228 -144 47
-261 133 -340 249 -25 37 -52 62 -82 78 -47 23 -67 26 -114 12z"/>
<path d="M2015 962 c-76 -35 -125 -123 -110 -195 14 -66 48 -108 130 -162 157
-104 345 -184 515 -221 102 -22 358 -25 460 -6 247 47 312 70 354 125 93 121
11 287 -154 312 -36 5 -65 0 -140 -24 -279 -91 -508 -53 -820 137 -63 39 -84
47 -135 49 -43 3 -71 -2 -100 -15z"/>
</g>
</svg>
