<?xml version="1.0" standalone="no"?>
<!DOCTYPE svg PUBLIC "-//W3C//DTD SVG 20010904//EN"
 "http://www.w3.org/TR/2001/REC-SVG-20010904/DTD/svg10.dtd">
<svg version="1.0" xmlns="http://www.w3.org/2000/svg"
 width="600.000000pt" height="600.000000pt" viewBox="0 0 600.000000 600.000000"
 preserveAspectRatio="xMidYMid meet">
<metadata>
Created by potrace 1.15, written by Peter Selinger 2001-2017
</metadata>
<g transform="translate(0.000000,600.000000) scale(0.100000,-0.100000)"
fill="#16364b" stroke="none">
<path d="M2380 5400 c-18 -18 -20 -33 -20 -182 0 -398 -81 -598 -282 -699 -81
-40 -98 -56 -98 -90 0 -31 40 -69 73 -69 40 0 170 74 231 130 152 142 226 382
226 729 0 148 -1 153 -25 176 -30 31 -77 33 -105 5z"/>
<path d="M3522 5293 c-20 -8 -42 -59 -42 -95 1 -74 87 -199 173 -248 68 -39
116 -40 158 -2 61 54 37 145 -68 262 -25 28 -63 60 -84 70 -36 19 -107 25
-137 13z"/>
<path d="M3002 5083 c-74 -36 -152 -164 -152 -249 0 -46 22 -98 51 -118 101
-70 309 100 309 254 0 42 -28 94 -60 114 -36 20 -105 20 -148 -1z m68 -144 c0
-21 -76 -107 -86 -97 -8 9 21 70 45 96 27 28 41 28 41 1z"/>
<path d="M4771 4746 c-41 -22 -50 -53 -51 -161 0 -115 23 -318 44 -389 38
-126 124 -182 220 -142 145 61 134 302 -25 572 -73 123 -124 156 -188 120z"/>
<path d="M2642 4214 c-39 -20 -78 -67 -87 -107 -19 -74 47 -177 143 -224 51
-25 68 -28 157 -28 95 0 103 2 163 34 90 49 122 89 122 151 0 76 -21 93 -175
141 -156 49 -270 60 -323 33z"/>
<path d="M5255 3966 c-103 -33 -179 -97 -220 -187 -51 -114 -23 -242 75 -339
73 -74 127 -95 240 -95 82 0 103 4 152 27 76 35 142 98 175 167 37 75 39 183
4 251 -39 76 -69 108 -139 150 -66 39 -71 40 -158 39 -49 0 -107 -6 -129 -13z
m139 -269 l30 -13 -22 -22 c-12 -12 -29 -22 -37 -22 -18 0 -38 37 -31 56 7 17
21 17 60 1z"/>
<path d="M4206 3764 c-64 -20 -113 -52 -160 -104 -114 -126 -118 -299 -10
-419 62 -69 120 -95 209 -95 54 0 83 6 126 26 152 70 218 205 190 389 -17 105
-33 127 -121 171 -90 45 -162 55 -234 32z m77 -301 c-10 -29 -24 -43 -44 -43
-23 0 -24 18 -2 42 21 24 55 24 46 1z"/>
<path d="M1079 3395 c-141 -28 -256 -114 -312 -233 -28 -60 -32 -76 -31 -152
1 -101 25 -173 83 -250 81 -108 186 -155 378 -169 67 -5 137 -17 161 -26 55
-22 143 -118 181 -198 51 -107 77 -199 142 -497 53 -249 114 -375 244 -505 87
-87 167 -139 288 -185 119 -47 205 -60 427 -70 113 -5 306 -14 430 -21 245
-13 703 -7 860 11 346 39 570 97 806 210 226 107 357 233 449 434 54 117 68
204 62 374 -12 322 -107 556 -287 705 -50 43 -177 106 -260 132 -75 23 -248
31 -350 16 -201 -30 -354 -95 -591 -252 -187 -124 -272 -166 -376 -184 -101
-18 -136 -18 -208 0 -108 28 -169 63 -629 367 -397 261 -824 433 -1227 492
-124 19 -151 19 -240 1z m301 -385 c149 -24 340 -80 460 -133 105 -47 271
-144 455 -267 185 -122 574 -356 658 -395 113 -52 193 -69 332 -68 214 2 358
57 615 237 183 129 247 165 355 202 69 24 96 28 195 28 114 1 117 0 192 -37
108 -53 176 -128 210 -233 35 -106 43 -199 25 -299 -39 -212 -106 -294 -332
-407 -191 -96 -343 -134 -605 -153 -47 -3 -186 -15 -310 -27 -188 -17 -267
-19 -480 -14 -140 3 -274 10 -298 16 -24 6 -116 15 -205 20 -244 14 -330 33
-419 89 -94 60 -133 144 -213 461 -66 262 -115 405 -182 533 -112 215 -336
368 -558 383 -90 6 -160 27 -169 51 -8 21 -3 25 41 33 45 8 80 5 233 -20z"/>
<path d="M2178 2279 c-53 -31 18 -138 72 -109 41 22 52 76 22 103 -21 19 -68
22 -94 6z"/>
<path d="M2887 2068 c-76 -26 -15 -138 62 -113 24 7 36 43 27 79 -7 30 -50 46
-89 34z"/>
<path d="M3408 3349 c-45 -47 -138 -233 -145 -291 -8 -52 24 -88 77 -88 29 0
45 8 78 39 77 73 152 214 152 286 0 47 -8 64 -41 80 -48 25 -78 19 -121 -26z"/>
<path d="M480 2040 c-29 -29 -27 -83 4 -107 13 -10 31 -34 40 -52 26 -49 94
-120 138 -142 100 -51 180 8 149 111 -15 50 -91 117 -193 170 -86 45 -109 49
-138 20z"/>
<path d="M5344 1115 c-26 -18 -60 -95 -69 -156 -18 -123 92 -190 175 -107 36
35 53 92 54 176 1 55 -2 66 -23 83 -28 23 -107 26 -137 4z"/>
</g>
</svg>
