<?xml version="1.0" standalone="no"?>
<!DOCTYPE svg PUBLIC "-//W3C//DTD SVG 20010904//EN"
 "http://www.w3.org/TR/2001/REC-SVG-20010904/DTD/svg10.dtd">
<svg version="1.0" xmlns="http://www.w3.org/2000/svg"
 width="600.000000pt" height="600.000000pt" viewBox="0 0 600.000000 600.000000"
 preserveAspectRatio="xMidYMid meet">
<metadata>
Created by potrace 1.15, written by Peter Selinger 2001-2017
</metadata>
<g transform="translate(0.000000,600.000000) scale(0.100000,-0.100000)"
fill="#16364b" stroke="none">
<path d="M3115 5617 c-59 -59 -105 -260 -85 -367 31 -166 125 -248 331 -290
57 -12 105 -23 107 -25 2 -2 -7 -10 -20 -18 -291 -177 -527 -335 -590 -395
-15 -14 -33 -41 -39 -61 -6 -20 -20 -54 -30 -77 -36 -77 -21 -144 45 -201 59
-53 127 -71 303 -83 87 -6 206 -17 265 -25 97 -14 110 -14 147 1 57 23 85 65
85 129 0 58 -20 95 -68 124 -33 20 -167 46 -298 57 -43 4 -78 10 -78 14 0 21
288 210 502 330 141 79 180 127 180 220 -2 137 -120 217 -422 285 -111 26
-130 38 -130 83 0 21 7 64 15 95 20 77 19 103 -6 153 -26 56 -72 84 -134 84
-40 0 -52 -5 -80 -33z"/>
<path d="M1345 5397 c-76 -41 -206 -169 -273 -268 -69 -103 -145 -257 -183
-370 -25 -73 -33 -117 -37 -195 -5 -122 6 -164 56 -202 30 -23 45 -27 98 -27
92 0 139 41 151 135 l5 37 42 -10 c35 -8 67 -4 180 22 134 30 186 37 186 25 0
-3 -24 -62 -54 -132 -30 -70 -60 -148 -67 -174 -11 -44 -8 -149 5 -208 5 -21
-1 -29 -41 -55 -85 -54 -109 -136 -64 -222 23 -47 80 -83 129 -83 15 0 89 30
163 68 74 37 186 85 249 106 63 22 128 45 143 53 93 46 89 205 -5 263 -56 34
-86 34 -180 1 -47 -17 -91 -31 -97 -31 -12 0 11 82 46 159 77 173 95 227 100
307 5 72 3 87 -19 135 -29 62 -66 102 -123 133 -66 35 -196 29 -359 -18 -71
-20 -131 -34 -133 -32 -6 6 24 62 70 131 51 75 129 158 183 196 96 66 99 204
5 266 -49 33 -102 30 -176 -10z"/>
<path d="M4710 4500 c-101 -12 -326 -67 -355 -86 -36 -23 -55 -65 -55 -119 0
-82 52 -145 119 -145 20 0 72 7 116 15 44 8 90 14 103 15 23 0 23 0 -7 -42
-46 -66 -138 -177 -224 -271 -87 -95 -104 -133 -88 -195 34 -124 193 -137 291
-25 18 21 75 82 126 136 51 54 116 128 143 165 112 149 169 312 142 404 -36
120 -139 169 -311 148z"/>
<path d="M3826 3700 c-70 -46 -86 -149 -37 -235 31 -54 280 -325 309 -337 9
-4 37 -7 62 -7 62 -1 112 34 136 94 25 67 9 112 -72 195 -55 57 -64 72 -64
103 0 80 -34 125 -135 173 -83 40 -153 45 -199 14z"/>
<path d="M2449 3666 c-116 -33 -268 -120 -300 -172 -43 -70 -21 -175 44 -214
51 -31 106 -26 195 19 88 44 170 71 219 71 42 0 43 -15 8 -135 -47 -160 -139
-352 -260 -544 -67 -106 -75 -123 -75 -167 0 -34 8 -61 24 -89 14 -22 33 -58
44 -80 38 -80 106 -125 189 -125 17 0 106 29 196 65 178 70 227 85 227 66 0
-22 -72 -205 -125 -321 -62 -132 -71 -171 -56 -228 37 -137 197 -176 304 -74
32 29 161 280 208 401 48 124 71 228 72 322 1 78 -2 92 -32 153 -82 167 -258
207 -533 122 -27 -8 -48 -14 -48 -12 0 2 22 50 49 107 52 112 111 277 132 374
21 98 16 231 -10 290 -30 68 -81 118 -155 151 -52 24 -76 29 -166 31 -65 1
-123 -3 -151 -11z"/>
<path d="M1150 3454 c-92 -18 -256 -95 -345 -161 -82 -62 -111 -142 -84 -236
13 -47 63 -106 106 -123 46 -20 122 -17 166 5 35 18 37 18 37 1 0 -9 -18 -80
-39 -156 -99 -349 -121 -474 -121 -684 0 -110 4 -142 19 -176 24 -53 74 -91
153 -115 80 -24 135 -24 172 0 37 25 141 163 240 321 165 262 340 511 350 499
36 -42 24 -152 -69 -629 -24 -124 -48 -270 -54 -325 -11 -109 -2 -216 24 -265
25 -49 79 -97 122 -110 37 -11 49 -11 88 5 87 33 125 132 85 221 -26 60 -25
69 42 384 104 493 116 668 67 990 -25 158 -128 242 -254 205 -81 -23 -144 -88
-346 -357 -99 -131 -181 -238 -184 -238 -4 0 8 45 66 233 100 329 100 533 0
640 -52 57 -155 87 -241 71z"/>
<path d="M4510 3392 c-90 -45 -109 -176 -34 -244 11 -9 66 -34 124 -56 105
-39 189 -78 223 -104 18 -14 18 -16 -4 -63 -13 -27 -61 -100 -107 -164 -97
-133 -106 -151 -97 -209 12 -79 101 -140 177 -122 58 14 68 21 127 99 120 157
199 302 221 404 24 104 -19 211 -115 287 -80 64 -378 190 -448 190 -18 0 -48
-8 -67 -18z"/>
<path d="M3688 3200 c-158 -40 -310 -197 -326 -337 -12 -108 112 -201 214
-158 51 21 72 41 96 92 18 38 22 41 44 32 34 -12 140 -11 187 2 52 14 102 61
123 116 33 86 -13 180 -111 229 -62 30 -162 40 -227 24z"/>
<path d="M4620 2240 c-58 -12 -87 -27 -129 -69 -41 -41 -71 -115 -71 -173 0
-34 3 -34 -164 -7 -92 15 -161 20 -236 17 -95 -3 -113 -6 -170 -35 -130 -64
-225 -196 -255 -355 -12 -62 -30 -276 -37 -423 -1 -16 -3 -33 -5 -38 -3 -4
-70 56 -151 134 -208 199 -281 238 -419 226 -142 -14 -256 -112 -333 -287 -43
-98 -42 -100 -65 125 -24 233 -64 361 -129 409 -91 68 -199 57 -273 -27 -51
-58 -59 -104 -34 -201 11 -45 32 -171 46 -281 29 -226 61 -370 103 -459 60
-126 154 -214 275 -255 125 -43 196 -37 263 22 52 45 66 79 69 171 2 67 11
102 48 201 57 152 68 175 81 175 6 0 74 -59 151 -130 154 -145 214 -189 293
-215 148 -48 315 22 376 156 13 29 38 60 66 81 83 63 108 140 134 413 l11 120
56 -2 c31 -1 98 -12 150 -24 134 -33 314 -33 382 -2 106 49 193 147 233 262
26 72 32 217 14 295 -26 115 -161 199 -280 176z"/>
</g>
</svg>
