<?xml version="1.0" standalone="no"?>
<!DOCTYPE svg PUBLIC "-//W3C//DTD SVG 20010904//EN"
 "http://www.w3.org/TR/2001/REC-SVG-20010904/DTD/svg10.dtd">
<svg version="1.0" xmlns="http://www.w3.org/2000/svg"
 width="600.000000pt" height="600.000000pt" viewBox="0 0 600.000000 600.000000"
 preserveAspectRatio="xMidYMid meet">
<metadata>
Created by potrace 1.15, written by Peter Selinger 2001-2017
</metadata>
<g transform="translate(0.000000,600.000000) scale(0.100000,-0.100000)"
fill="#16364b" stroke="none">
<path d="M3140 5633 c-42 -23 -92 -116 -139 -259 -82 -247 5 -368 309 -429 47
-9 86 -18 88 -20 2 -1 -36 -24 -84 -49 -47 -25 -119 -67 -158 -93 -103 -69
-361 -278 -391 -317 -55 -72 -42 -155 33 -212 75 -57 116 -75 652 -281 172
-67 232 -76 285 -43 74 46 95 149 46 219 -29 40 -50 50 -212 106 -174 59 -419
155 -419 163 0 10 162 113 290 184 258 144 325 185 366 224 96 93 80 211 -40
291 -62 42 -146 68 -309 94 -174 28 -181 31 -173 70 3 16 19 61 36 99 36 81
38 131 7 184 -43 77 -120 104 -187 69z"/>
<path d="M1425 5393 c-179 -109 -318 -272 -435 -508 -153 -308 -176 -490 -71
-564 51 -36 79 -36 201 4 202 65 440 120 440 101 0 -3 -42 -81 -94 -173 -114
-206 -157 -290 -186 -369 -21 -61 -22 -63 -5 -135 24 -107 65 -149 147 -149
39 0 74 13 195 74 81 40 200 97 264 126 64 28 133 65 153 82 70 58 70 151 -1
221 -64 64 -139 70 -226 16 -18 -10 -36 -19 -40 -19 -4 0 17 46 47 103 108
201 118 342 34 442 -82 97 -301 119 -545 56 -40 -11 -73 -17 -73 -15 0 14 69
138 106 190 55 77 174 190 239 228 71 41 104 74 116 119 29 110 -45 207 -158
207 -38 0 -61 -8 -108 -37z"/>
<path d="M4635 4441 c-252 -68 -407 -119 -431 -142 -73 -69 -46 -206 49 -249
23 -11 53 -20 66 -20 12 0 88 21 167 46 80 26 147 44 150 41 7 -7 -41 -100
-89 -172 -22 -33 -96 -133 -164 -223 -121 -160 -123 -163 -123 -215 0 -62 26
-110 71 -135 17 -9 49 -32 71 -49 22 -18 42 -33 44 -33 14 0 358 -92 404 -108
30 -10 56 -25 58 -34 4 -20 -112 -209 -220 -357 -123 -169 -134 -197 -100
-260 35 -66 137 -91 209 -53 49 26 299 365 362 490 99 195 59 362 -106 449
-54 29 -202 81 -338 119 -33 9 -63 18 -67 20 -4 3 31 57 78 121 174 237 254
417 254 568 0 84 -36 156 -95 190 -66 39 -122 40 -250 6z"/>
<path d="M3792 3690 c-66 -41 -86 -134 -46 -212 21 -41 97 -112 141 -132 56
-25 79 -63 75 -122 l-4 -49 -96 -1 c-115 0 -171 -19 -285 -93 -118 -78 -193
-186 -184 -268 6 -52 47 -110 93 -129 80 -34 158 -2 210 85 50 87 56 89 181
84 97 -5 113 -3 150 15 53 28 83 76 83 136 0 44 1 46 29 46 35 0 85 39 108 84
11 20 17 54 16 96 0 114 -62 230 -191 357 -117 114 -207 147 -280 103z"/>
<path d="M2474 3626 c-116 -27 -310 -122 -360 -178 -66 -72 -43 -192 46 -239
57 -31 109 -25 207 26 90 46 197 79 236 73 20 -3 22 -8 21 -58 -2 -74 -31
-155 -124 -345 -76 -155 -97 -194 -169 -318 -40 -70 -46 -135 -15 -187 32 -55
61 -70 161 -81 88 -10 96 -9 165 16 234 85 348 118 348 100 0 -18 -78 -212
-125 -310 -63 -133 -72 -191 -40 -258 28 -59 68 -82 146 -82 113 0 149 40 297
322 59 114 93 206 112 306 37 197 -38 362 -190 421 -61 24 -181 23 -295 -3
-49 -11 -90 -19 -91 -18 -1 1 16 43 38 92 88 197 114 313 97 431 -18 127 -91
230 -197 275 -61 27 -186 34 -268 15z"/>
<path d="M1119 3379 c-134 -31 -337 -160 -379 -241 -24 -46 -26 -133 -5 -186
44 -104 163 -151 260 -102 22 11 41 20 43 20 6 0 -8 -57 -58 -235 -80 -281
-122 -653 -88 -767 13 -44 65 -95 106 -103 15 -3 43 -10 63 -15 63 -17 123
-12 159 13 31 21 105 116 260 338 229 328 340 479 350 479 4 0 11 -15 18 -33
14 -39 -2 -158 -71 -517 -73 -376 -81 -505 -41 -624 23 -67 95 -140 152 -156
150 -40 256 127 167 262 -27 40 -27 44 -21 137 4 53 29 206 56 341 83 414 94
533 73 772 -8 103 -16 138 -37 182 -53 108 -167 146 -288 98 -60 -24 -157
-132 -287 -317 -119 -169 -216 -296 -219 -286 -2 5 19 83 47 173 89 295 107
471 61 593 -50 132 -187 206 -321 174z"/>
<path d="M4700 2211 c-95 -20 -162 -89 -185 -195 -5 -26 -9 -28 -38 -22 -148
31 -339 31 -452 1 -250 -66 -374 -204 -405 -452 -19 -150 -12 -143 -80 -80
-98 91 -220 147 -320 147 -103 0 -236 -66 -328 -164 -52 -55 -146 -191 -178
-258 -10 -21 -21 -38 -25 -38 -4 0 -10 26 -13 58 -33 278 -93 465 -173 531
-93 77 -234 57 -283 -40 -29 -56 -27 -143 5 -203 37 -69 52 -143 70 -331 18
-198 27 -248 66 -371 68 -213 192 -318 376 -319 63 0 76 3 115 30 55 39 88
102 88 170 0 41 11 72 59 170 99 205 203 365 236 365 7 0 49 -39 92 -87 208
-233 259 -267 398 -267 106 -1 166 26 239 105 48 51 56 66 70 132 9 41 25 154
35 251 9 97 22 181 28 187 15 15 128 12 213 -6 241 -51 288 -55 385 -30 127
33 223 119 267 241 31 87 31 258 -2 332 -44 102 -156 164 -260 143z"/>
</g>
</svg>
