<?xml version="1.0" standalone="no"?>
<!DOCTYPE svg PUBLIC "-//W3C//DTD SVG 20010904//EN"
 "http://www.w3.org/TR/2001/REC-SVG-20010904/DTD/svg10.dtd">
<svg version="1.0" xmlns="http://www.w3.org/2000/svg"
 width="600.000000pt" height="600.000000pt" viewBox="0 0 600.000000 600.000000"
 preserveAspectRatio="xMidYMid meet">
<metadata>
Created by potrace 1.15, written by Peter Selinger 2001-2017
</metadata>
<g transform="translate(0.000000,600.000000) scale(0.100000,-0.100000)"
fill="#16364b" stroke="none">
<path d="M3559 5270 c-9 -5 -22 -23 -29 -39 -11 -27 -9 -36 27 -102 47 -90
132 -184 179 -199 29 -10 39 -9 59 4 47 31 26 111 -60 232 -65 91 -133 131
-176 104z m142 -184 c45 -69 50 -90 13 -55 -30 26 -104 136 -104 152 0 19 52
-37 91 -97z"/>
<path d="M2996 5067 c-76 -43 -133 -157 -123 -245 13 -118 126 -124 231 -13
78 84 104 162 74 226 -25 56 -113 72 -182 32z m98 -53 c40 -15 2 -109 -70
-173 -65 -57 -78 -55 -72 13 5 66 41 125 89 149 40 20 34 18 53 11z"/>
<path d="M4765 4719 c-16 -16 -21 -46 -28 -167 -11 -203 -14 -402 -4 -434 11
-39 59 -62 100 -49 49 17 58 41 68 190 11 144 -2 406 -21 442 -23 42 -85 52
-115 18z"/>
<path d="M1645 4289 c-53 -13 -99 -45 -132 -93 -22 -30 -28 -53 -31 -107 -5
-86 25 -156 102 -240 87 -93 129 -233 171 -569 14 -113 28 -212 30 -220 8 -30
25 -250 35 -460 35 -750 82 -962 257 -1150 96 -104 247 -185 395 -211 l69 -12
-8 -46 c-13 -77 -7 -271 11 -366 10 -49 35 -143 57 -207 21 -65 39 -122 39
-126 0 -5 -37 -12 -81 -16 -122 -10 -159 -36 -159 -111 0 -71 62 -102 184 -93
125 10 205 72 214 167 3 38 -5 74 -42 182 -66 193 -91 395 -68 549 l7 45 115
-4 c63 -2 283 -7 488 -10 l374 -6 3 -130 c5 -207 38 -358 106 -499 16 -32 29
-64 29 -71 0 -10 -28 -14 -111 -17 l-111 -3 -29 -33 c-32 -36 -36 -60 -14
-101 23 -46 77 -66 170 -65 127 2 212 43 246 118 26 58 24 84 -17 189 -60 151
-86 256 -104 415 -9 80 -2 183 13 198 3 4 45 10 94 16 196 21 534 111 655 175
155 81 313 294 359 483 57 234 -59 557 -248 686 -129 89 -211 101 -485 74
-197 -19 -330 -6 -573 54 -350 87 -509 159 -750 340 -162 122 -259 234 -382
440 -155 260 -314 486 -407 580 -225 225 -339 287 -471 255z m144 -167 c34
-18 82 -59 209 -177 82 -77 188 -222 290 -400 205 -355 281 -452 486 -618 188
-153 303 -225 461 -286 133 -52 540 -168 640 -182 88 -12 307 -7 468 13 106
12 178 3 247 -32 89 -45 186 -199 217 -344 35 -166 -22 -336 -162 -485 -79
-84 -144 -118 -325 -171 -293 -86 -344 -93 -640 -94 -555 -2 -1066 24 -1220
61 -85 20 -194 72 -246 117 -86 74 -152 209 -173 356 -26 186 -49 469 -61 775
-5 127 -18 289 -29 360 -11 72 -29 204 -41 294 -49 379 -92 519 -196 632 -72
79 -90 132 -58 177 19 28 84 30 133 4z"/>
<path d="M2447 2552 c-30 -33 -20 -75 24 -97 55 -29 113 30 85 86 -16 32 -84
39 -109 11z"/>
<path d="M2922 2254 c-37 -25 -27 -76 19 -99 37 -20 45 -19 69 5 60 60 -18
143 -88 94z"/>
<path d="M2671 4238 c-14 -7 -33 -28 -44 -45 -25 -43 -15 -86 26 -117 61 -45
297 -126 368 -126 34 0 85 41 93 75 9 35 -17 92 -46 100 -12 4 -85 32 -160 61
-154 60 -202 71 -237 52z"/>
<path d="M5290 3993 c-50 -10 -146 -61 -182 -98 -64 -65 -83 -116 -83 -225 0
-85 3 -101 30 -153 36 -73 118 -149 181 -171 118 -40 276 0 381 97 63 58 95
126 101 212 8 133 -60 246 -190 313 -56 28 -72 32 -138 31 -41 -1 -86 -4 -100
-6z m128 -318 c9 -9 -30 -45 -50 -45 -24 0 -48 48 -29 60 13 7 67 -3 79 -15z"/>
<path d="M4190 3747 c-89 -25 -173 -97 -211 -181 -25 -55 -25 -166 0 -221 55
-123 222 -192 364 -151 163 47 242 208 188 384 -12 39 -32 84 -46 100 -53 63
-198 97 -295 69z m84 -253 c7 -19 1 -31 -25 -44 -27 -15 -37 14 -14 40 22 24
31 25 39 4z"/>
<path d="M490 2025 c-24 -29 1 -50 138 -122 150 -78 195 -90 208 -51 9 29 -9
43 -166 123 -134 68 -159 75 -180 50z"/>
<path d="M5378 1112 c-63 -5 -112 -87 -111 -184 1 -117 143 -145 201 -40 18
33 25 60 26 112 2 96 -23 120 -116 112z"/>
</g>
</svg>
