<?xml version="1.0" standalone="no"?>
<!DOCTYPE svg PUBLIC "-//W3C//DTD SVG 20010904//EN"
 "http://www.w3.org/TR/2001/REC-SVG-20010904/DTD/svg10.dtd">
<svg version="1.0" xmlns="http://www.w3.org/2000/svg"
 width="600.000000pt" height="600.000000pt" viewBox="0 0 600.000000 600.000000"
 preserveAspectRatio="xMidYMid meet">
<metadata>
Created by potrace 1.15, written by Peter Selinger 2001-2017
</metadata>
<g transform="translate(0.000000,600.000000) scale(0.100000,-0.100000)"
fill="#16364b" stroke="none">
<path d="M2354 5399 c-17 -19 -19 -39 -19 -252 0 -226 -1 -234 -27 -312 -34
-100 -92 -198 -140 -239 -20 -17 -70 -49 -110 -71 -83 -46 -103 -77 -77 -123
24 -43 60 -50 121 -22 141 64 210 134 283 285 82 169 104 303 95 571 -4 121
-8 145 -24 163 -25 28 -77 28 -102 0z"/>
<path d="M3524 5282 c-123 -86 44 -362 220 -362 133 0 135 142 5 284 -27 30
-64 61 -83 70 -35 16 -122 22 -142 8z"/>
<path d="M3029 5116 c-85 -30 -159 -117 -180 -211 -16 -72 -5 -118 38 -161 35
-35 38 -36 98 -32 124 8 214 112 223 259 8 128 -64 186 -179 145z m32 -194
c-11 -21 -31 -46 -45 -56 -25 -16 -26 -16 -26 4 0 31 26 75 57 100 36 29 42 8
14 -48z"/>
<path d="M4775 4771 c-49 -21 -57 -43 -56 -158 2 -151 27 -344 56 -427 32 -91
75 -136 136 -143 131 -13 201 142 155 340 -34 141 -149 342 -219 380 -35 19
-43 20 -72 8z"/>
<path d="M2651 4208 c-83 -43 -108 -111 -73 -191 68 -153 362 -201 534 -87 53
36 73 74 65 131 -6 45 -35 82 -75 97 -94 35 -227 64 -312 69 -85 4 -100 2
-139 -19z"/>
<path d="M5233 3966 c-103 -33 -167 -90 -211 -184 -32 -70 -29 -173 8 -245 53
-106 178 -191 297 -203 185 -20 357 127 371 316 4 54 0 76 -17 115 -33 76 -64
110 -148 161 -75 47 -78 48 -167 51 -57 2 -107 -2 -133 -11z m141 -269 c27
-12 28 -14 12 -30 -31 -30 -76 -15 -76 25 0 21 22 23 64 5z"/>
<path d="M4223 3760 c-111 -23 -211 -99 -248 -185 -79 -191 56 -398 260 -397
140 1 257 89 305 228 24 70 27 208 6 259 -16 37 -59 69 -116 85 -52 15 -159
20 -207 10z m61 -258 c9 -14 -24 -52 -45 -52 -24 0 -24 15 1 40 21 21 36 25
44 12z"/>
<path d="M1046 3394 c-134 -32 -245 -123 -287 -234 -17 -44 -20 -71 -17 -135
6 -99 40 -177 112 -253 91 -97 183 -134 379 -152 60 -6 121 -17 136 -24 69
-37 122 -125 192 -317 73 -201 168 -490 204 -621 40 -148 71 -218 126 -288 92
-116 279 -214 476 -249 129 -23 256 -32 648 -44 634 -18 691 -16 1046 43 302
51 429 88 668 198 161 73 239 121 296 178 142 145 223 427 213 737 -6 152 -29
249 -86 362 -111 222 -339 366 -633 400 -85 10 -241 -12 -360 -52 -136 -44
-242 -106 -399 -232 -164 -132 -253 -177 -378 -191 -108 -12 -180 -3 -298 36
-145 49 -265 118 -444 259 -208 163 -424 296 -653 405 -303 143 -737 224 -941
174z m279 -349 c367 -48 607 -154 1000 -443 94 -69 184 -135 200 -147 64 -47
282 -170 366 -207 145 -64 263 -90 409 -91 100 -1 142 4 210 22 175 46 271 98
485 261 123 94 214 140 329 170 179 46 330 13 438 -95 85 -86 108 -165 108
-373 0 -207 -39 -346 -114 -409 -67 -56 -361 -189 -506 -228 -196 -52 -282
-59 -830 -61 -904 -3 -1086 14 -1215 111 -68 53 -97 125 -145 358 -39 188 -93
355 -179 558 -83 195 -119 255 -201 338 -99 101 -238 161 -372 161 -77 0 -152
17 -183 42 -29 22 -24 34 15 41 46 8 65 7 185 -8z"/>
<path d="M2190 2310 c-11 -11 -20 -29 -20 -40 0 -28 44 -70 73 -70 29 0 45 17
53 57 5 25 1 34 -21 52 -34 26 -59 27 -85 1z"/>
<path d="M2887 2052 c-18 -19 -22 -59 -9 -79 16 -25 64 -42 86 -31 29 15 36
28 36 65 0 55 -76 86 -113 45z"/>
<path d="M3449 3355 c-48 -26 -189 -261 -189 -315 0 -37 44 -70 91 -70 39 0
48 5 95 54 62 64 123 178 131 246 5 43 3 51 -20 74 -29 29 -68 33 -108 11z"/>
<path d="M492 2040 c-19 -8 -42 -45 -42 -70 0 -4 19 -32 43 -60 123 -153 159
-180 237 -180 31 0 47 6 65 26 67 72 -5 175 -180 259 -76 37 -87 39 -123 25z"/>
<path d="M5358 1093 c-40 -46 -77 -175 -65 -224 12 -49 45 -79 86 -79 74 0
122 73 129 195 3 71 2 82 -17 103 -28 28 -110 32 -133 5z"/>
</g>
</svg>
