<?xml version="1.0" standalone="no"?>
<!DOCTYPE svg PUBLIC "-//W3C//DTD SVG 20010904//EN"
 "http://www.w3.org/TR/2001/REC-SVG-20010904/DTD/svg10.dtd">
<svg version="1.0" xmlns="http://www.w3.org/2000/svg"
 width="600.000000pt" height="600.000000pt" viewBox="0 0 600.000000 600.000000"
 preserveAspectRatio="xMidYMid meet">
<metadata>
Created by potrace 1.15, written by Peter Selinger 2001-2017
</metadata>
<g transform="translate(0.000000,600.000000) scale(0.100000,-0.100000)"
fill="#16364b" stroke="none">
<path d="M2288 5586 c-150 -43 -281 -188 -324 -357 -13 -53 -17 -168 -25 -669
-5 -333 -15 -702 -23 -820 -9 -118 -18 -315 -22 -437 -3 -123 -8 -223 -10
-223 -12 0 -158 79 -219 118 -81 52 -147 108 -205 174 l-41 48 22 39 c21 38
21 71 0 71 -6 0 -18 -15 -28 -32 l-18 -33 -5 67 c-3 36 -8 70 -12 73 -16 16
-36 -6 -43 -44 -9 -54 -19 -58 -45 -16 -13 20 -30 35 -41 35 -23 0 -24 -16 -4
-63 21 -50 20 -51 -19 -28 -75 46 -76 6 -3 -81 29 -35 68 -84 85 -110 69 -101
222 -213 440 -323 l133 -67 -8 -116 c-12 -178 -9 -565 6 -672 29 -221 101
-477 164 -588 88 -156 263 -275 451 -306 l70 -12 1 -160 c2 -173 11 -229 72
-447 19 -70 33 -133 30 -141 -5 -12 -21 -13 -79 -9 -90 7 -139 -11 -163 -57
-30 -59 -1 -123 68 -149 40 -15 125 -14 181 3 94 29 151 88 161 166 5 35 -3
74 -34 178 -64 211 -84 319 -85 464 -1 76 3 131 9 137 11 11 144 3 570 -34
138 -12 202 -13 278 -5 55 5 105 10 112 10 9 0 10 -13 3 -57 -14 -85 -3 -264
22 -363 12 -47 40 -129 62 -184 30 -72 37 -100 28 -106 -6 -4 -47 -10 -89 -13
-116 -7 -171 -44 -171 -113 0 -71 69 -111 175 -101 123 12 231 86 255 177 14
51 10 70 -46 220 -66 178 -87 284 -81 405 3 55 10 115 17 133 l12 32 161 0
c188 0 270 14 358 61 33 18 81 56 107 84 97 106 134 223 156 500 13 159 13
201 0 360 -24 302 -39 376 -101 499 -37 74 -143 236 -169 256 -18 16 -18 30 0
30 40 0 263 77 353 121 123 61 225 150 309 272 50 73 61 107 34 107 -5 0 -10
10 -10 21 0 22 -18 23 -63 4 -15 -6 -17 -2 -15 26 4 50 -25 51 -51 2 -20 -39
-20 -39 -36 13 -3 9 -11 14 -18 11 -13 -4 -15 -44 -4 -95 6 -29 2 -38 -36 -79
-87 -96 -266 -189 -456 -239 -146 -38 -135 -41 -274 95 -186 182 -246 230
-599 474 -270 188 -421 335 -527 515 -105 177 -171 436 -206 810 -18 199 -27
237 -71 329 -65 135 -174 213 -307 219 -41 2 -93 -3 -119 -10z m157 -157 c55
-15 92 -44 126 -97 38 -59 55 -151 68 -357 16 -261 78 -528 166 -721 57 -126
148 -249 298 -403 99 -103 180 -165 452 -351 99 -68 216 -151 260 -185 176
-137 469 -461 562 -620 80 -138 103 -224 128 -484 16 -164 16 -185 0 -345 -25
-261 -51 -351 -117 -418 -68 -67 -87 -72 -348 -79 -165 -4 -278 -13 -380 -29
-165 -25 -309 -24 -705 5 -121 9 -235 14 -253 11 -52 -8 -206 12 -269 35 -99
37 -180 103 -238 194 -71 112 -132 311 -160 520 -17 130 -20 466 -5 670 6 77
15 318 21 535 5 217 14 433 19 480 4 47 11 337 15 645 6 585 14 714 47 804 32
86 116 166 199 190 46 13 67 13 114 0z"/>
<path d="M2598 2919 c-29 -17 -23 -63 13 -93 38 -32 73 -33 93 -4 22 31 20 64
-4 88 -22 22 -73 26 -102 9z"/>
<path d="M3215 2878 c-45 -26 -47 -66 -4 -102 17 -14 35 -26 40 -26 19 0 59
49 59 73 0 48 -54 79 -95 55z"/>
<path d="M3022 1962 c-121 -13 -152 -13 -195 -2 -48 12 -51 12 -69 -10 -22
-28 -22 -32 0 -59 24 -30 111 -41 237 -29 55 5 162 11 239 13 76 2 143 8 148
13 5 5 8 22 6 38 -6 56 -97 64 -366 36z"/>
</g>
</svg>
