<?xml version="1.0" standalone="no"?>
<!DOCTYPE svg PUBLIC "-//W3C//DTD SVG 20010904//EN"
 "http://www.w3.org/TR/2001/REC-SVG-20010904/DTD/svg10.dtd">
<svg version="1.0" xmlns="http://www.w3.org/2000/svg"
 width="600.000000pt" height="600.000000pt" viewBox="0 0 600.000000 600.000000"
 preserveAspectRatio="xMidYMid meet">
<metadata>
Created by potrace 1.15, written by Peter Selinger 2001-2017
</metadata>
<g transform="translate(0.000000,600.000000) scale(0.100000,-0.100000)"
fill="#16364b" stroke="none">
<path d="M2317 5457 c-31 -17 -47 -38 -77 -102 -48 -100 -64 -171 -57 -246 6
-74 40 -134 95 -174 l44 -30 141 1 c108 0 165 6 237 22 103 24 120 26 120 14
0 -4 -61 -84 -136 -177 -149 -187 -207 -277 -292 -453 -57 -117 -57 -117 -55
-203 3 -134 47 -199 135 -199 18 0 94 16 169 35 152 38 265 51 509 60 191 7
228 14 269 56 66 66 62 159 -9 207 -35 24 -37 24 -230 17 -107 -3 -255 -10
-329 -16 -73 -5 -136 -8 -138 -5 -8 8 84 144 217 321 199 264 255 369 255 482
0 52 -4 68 -30 104 -18 26 -50 53 -80 68 -45 23 -60 26 -155 25 -71 -1 -154
-11 -258 -31 -84 -17 -154 -27 -157 -24 -2 4 5 27 17 51 63 141 -74 273 -205
197z"/>
<path d="M1700 4994 c-217 -47 -406 -149 -542 -292 -59 -61 -85 -122 -72 -165
27 -92 94 -146 204 -166 129 -24 294 -72 367 -106 57 -28 82 -47 110 -86 39
-51 100 -89 144 -89 14 0 45 10 69 23 75 38 106 137 67 213 -26 50 -112 139
-175 180 -31 21 -105 57 -164 79 l-108 41 58 27 c65 30 108 42 172 52 59 8
101 36 128 83 41 74 20 159 -50 202 -39 24 -111 25 -208 4z"/>
<path d="M4011 4860 c-148 -31 -320 -119 -361 -185 -37 -60 -16 -149 44 -187
46 -29 126 -21 191 19 92 57 242 92 261 61 25 -40 -8 -184 -97 -425 -56 -154
-59 -193 -14 -255 13 -18 33 -49 44 -69 22 -39 51 -62 93 -73 18 -4 88 7 190
30 165 36 324 53 392 40 36 -7 36 -8 36 -55 0 -56 -30 -166 -102 -370 -57
-162 -61 -221 -20 -279 32 -44 97 -67 150 -53 64 18 94 57 136 172 85 236 128
416 128 534 1 170 -76 274 -242 326 -86 27 -257 27 -387 1 -51 -10 -93 -15
-93 -11 0 5 14 50 30 101 117 360 86 562 -103 660 -33 17 -62 22 -137 24 -52
2 -115 -1 -139 -6z"/>
<path d="M2095 3935 c-102 -38 -280 -75 -464 -95 -58 -6 -117 -18 -132 -26
-36 -18 -66 -58 -80 -105 -24 -78 35 -165 119 -176 61 -8 422 46 579 86 109
28 144 49 171 101 18 35 22 55 18 89 -6 45 -42 103 -75 121 -35 18 -95 20
-136 5z"/>
<path d="M3720 3701 c-95 -30 -484 -243 -534 -292 -40 -38 -48 -127 -17 -176
26 -42 75 -67 131 -66 50 0 97 21 277 126 169 99 157 94 149 61 -13 -50 -102
-264 -160 -386 -31 -64 -56 -125 -56 -136 0 -11 -7 -33 -15 -48 -8 -16 -15
-50 -15 -76 0 -38 6 -54 30 -82 17 -19 51 -42 76 -52 39 -15 55 -16 130 -5
105 15 238 53 307 88 188 95 363 261 382 364 14 75 -37 171 -105 199 -18 7
-50 10 -77 7 -50 -5 -51 -6 -151 -126 -43 -50 -171 -155 -180 -147 -2 3 11 42
28 88 111 286 144 461 105 555 -21 50 -41 71 -97 99 -57 29 -128 31 -208 5z"/>
<path d="M2290 3333 c-53 -6 -191 -33 -227 -44 -18 -6 -44 -24 -57 -40 -71
-84 -21 -216 95 -251 35 -10 61 -8 172 10 73 13 160 22 195 22 l63 0 -7 -37
c-4 -21 -17 -68 -30 -104 -28 -79 -30 -109 -7 -156 31 -67 114 -97 188 -68 58
22 87 57 126 157 25 66 33 102 37 179 4 87 2 102 -20 151 -36 77 -78 121 -150
154 -59 27 -72 29 -203 30 -77 1 -156 0 -175 -3z"/>
<path d="M1180 3081 c-82 -27 -127 -70 -145 -139 -19 -73 -4 -132 49 -188 25
-26 55 -46 73 -50 40 -8 40 -9 48 -314 9 -364 31 -538 80 -647 52 -115 188
-136 276 -43 46 49 64 110 55 195 l-7 65 48 0 c67 0 111 32 153 112 77 147
192 298 226 298 18 0 27 -89 15 -156 -5 -32 -15 -113 -21 -179 -7 -66 -20
-173 -31 -238 -19 -116 -19 -118 -1 -161 21 -47 57 -77 114 -95 64 -21 150 16
182 77 23 45 46 168 62 326 8 83 22 193 30 244 16 97 17 95 -22 262 -48 211
-239 305 -434 214 -104 -49 -230 -177 -307 -312 -23 -40 -32 -49 -37 -37 -3 9
-6 107 -6 218 -1 287 -21 380 -102 472 -49 56 -100 78 -193 81 -44 2 -91 0
-105 -5z"/>
<path d="M4835 2976 c-96 -45 -129 -106 -123 -230 l3 -81 -106 -60 c-276 -157
-369 -246 -425 -404 -66 -187 5 -460 164 -623 l45 -47 -27 -11 c-15 -5 -30
-10 -34 -10 -4 0 -32 -20 -62 -45 -65 -54 -89 -56 -248 -25 -326 63 -588 -38
-824 -320 -39 -47 -86 -94 -104 -105 -18 -11 -56 -45 -84 -77 -27 -31 -69 -66
-93 -77 -150 -73 -336 57 -486 337 -36 66 -53 88 -87 108 -47 28 -118 34 -169
14 -71 -27 -134 -119 -135 -196 0 -83 152 -336 269 -446 163 -154 365 -229
579 -215 138 9 245 57 362 164 30 28 70 58 88 67 19 10 61 56 104 114 92 124
162 193 234 228 78 38 143 41 284 13 208 -40 336 -28 459 42 68 39 157 127
176 173 21 51 19 134 -5 181 -11 21 -19 39 -17 40 1 1 21 7 45 14 84 24 158
115 169 209 8 72 -11 125 -68 188 -58 64 -69 88 -69 151 0 57 22 79 156 152
183 99 275 174 330 266 55 95 66 229 28 363 -40 141 -196 211 -329 148z"/>
<path d="M3425 2353 c-66 -10 -584 -115 -640 -129 -91 -23 -112 -33 -149 -75
-104 -114 -43 -278 111 -295 49 -6 276 26 513 71 69 14 151 27 182 31 l57 7 7
-39 c16 -91 63 -143 145 -165 65 -17 123 2 176 56 48 50 58 90 57 220 -1 163
-58 257 -186 302 -43 16 -215 26 -273 16z"/>
</g>
</svg>
