<?xml version="1.0" standalone="no"?>
<!DOCTYPE svg PUBLIC "-//W3C//DTD SVG 20010904//EN"
 "http://www.w3.org/TR/2001/REC-SVG-20010904/DTD/svg10.dtd">
<svg version="1.0" xmlns="http://www.w3.org/2000/svg"
 width="600.000000pt" height="600.000000pt" viewBox="0 0 600.000000 600.000000"
 preserveAspectRatio="xMidYMid meet">
<metadata>
Created by potrace 1.15, written by Peter Selinger 2001-2017
</metadata>
<g transform="translate(0.000000,600.000000) scale(0.100000,-0.100000)"
fill="#16364b" stroke="none">
<path d="M3115 5495 c-76 -27 -116 -99 -100 -182 7 -36 42 -77 100 -117 15
-10 36 -39 47 -64 21 -46 21 -123 3 -307 -6 -54 -4 -64 21 -101 55 -84 155
-97 215 -28 42 49 74 230 66 377 -8 161 -65 284 -170 368 -77 61 -122 75 -182
54z"/>
<path d="M2057 5456 c-49 -18 -64 -32 -89 -79 -16 -33 -19 -54 -16 -116 7
-146 80 -229 240 -276 31 -9 61 -22 68 -30 7 -9 13 -80 15 -200 5 -204 10
-226 68 -269 40 -30 134 -30 174 0 62 46 63 56 54 310 -7 225 -8 230 -36 287
-49 99 -127 163 -240 197 -38 11 -42 15 -53 63 -14 60 -51 103 -101 117 -43
12 -37 12 -84 -4z"/>
<path d="M1494 4790 c-128 -11 -147 -16 -184 -55 -29 -30 -34 -43 -38 -94 -5
-69 15 -120 60 -153 35 -24 61 -26 248 -14 143 9 243 -1 360 -38 102 -33 157
-21 205 42 28 38 28 130 -1 169 -48 66 -222 124 -424 142 -63 6 -119 10 -125
10 -5 -1 -51 -5 -101 -9z"/>
<path d="M4355 4639 c-67 -21 -105 -74 -105 -147 0 -59 8 -70 125 -166 30 -25
56 -59 71 -90 24 -54 44 -172 44 -259 0 -97 57 -157 150 -157 54 0 102 27 131
72 19 30 20 44 15 168 -6 157 -23 237 -73 337 -42 86 -140 185 -223 226 -56
28 -85 31 -135 16z"/>
<path d="M3190 4453 c-14 -10 -70 -57 -124 -106 -125 -112 -222 -186 -378
-287 -130 -85 -158 -117 -158 -178 0 -82 63 -144 146 -144 39 0 62 10 147 62
179 108 289 192 424 325 110 108 133 136 139 168 10 58 -4 107 -41 144 -28 28
-40 33 -82 33 -30 0 -58 -7 -73 -17z"/>
<path d="M1602 4360 c-92 -56 -96 -178 -9 -244 60 -46 332 -89 567 -90 131 0
161 3 193 18 80 39 107 126 65 206 -42 77 -63 83 -272 85 -136 2 -211 7 -299
24 -149 26 -202 27 -245 1z"/>
<path d="M3749 3906 c-19 -7 -105 -59 -190 -115 -156 -104 -374 -220 -495
-263 -36 -12 -82 -37 -102 -54 -32 -27 -36 -36 -40 -91 -4 -60 -4 -62 36 -105
40 -43 41 -43 109 -43 64 0 77 4 215 72 158 77 285 149 442 251 54 35 120 70
145 78 71 21 111 72 111 142 0 105 -116 169 -231 128z"/>
<path d="M2195 3792 c-100 -23 -130 -26 -342 -27 -259 -1 -260 -1 -311 -76
-49 -71 -12 -183 72 -219 55 -24 274 -45 390 -37 93 7 244 40 351 77 94 33
135 82 135 166 0 86 -61 145 -147 143 -21 -1 -87 -13 -148 -27z"/>
<path d="M5027 3619 c-53 -12 -87 -32 -124 -71 -63 -65 -77 -143 -48 -263 21
-86 19 -175 -6 -248 -26 -77 -37 -96 -172 -284 -140 -197 -251 -365 -282 -428
-15 -29 -25 -68 -25 -93 0 -159 186 -277 337 -213 64 28 97 63 163 176 63 107
178 276 271 399 83 109 142 225 170 331 44 167 33 469 -21 574 -46 91 -163
144 -263 120z"/>
<path d="M4370 3153 c-8 -3 -58 -47 -110 -97 -215 -206 -400 -286 -767 -331
-134 -17 -168 -32 -194 -88 -22 -49 -22 -59 -8 -110 14 -53 63 -105 110 -117
65 -18 356 30 526 86 118 40 311 135 411 203 105 72 217 172 237 212 30 57 10
155 -42 201 -41 38 -120 57 -163 41z"/>
<path d="M1990 3131 c-101 -53 -107 -193 -11 -256 48 -32 159 -61 301 -81 90
-12 123 -21 152 -41 84 -57 187 -33 229 54 38 78 11 154 -74 211 -66 45 -118
61 -254 77 -71 9 -158 24 -195 35 -82 25 -104 25 -148 1z"/>
<path d="M1375 2943 c-47 -25 -66 -45 -88 -92 -17 -39 -19 -57 -13 -165 12
-218 29 -323 87 -561 54 -223 93 -327 164 -436 63 -97 135 -133 219 -109 96
27 166 139 150 240 -4 24 -25 68 -48 103 -52 77 -87 156 -121 271 -51 180 -67
281 -70 463 -4 182 -9 207 -57 249 -59 54 -160 71 -223 37z"/>
<path d="M2089 2350 c-59 -10 -80 -22 -114 -62 -24 -29 -27 -38 -23 -90 4 -49
9 -63 37 -92 42 -43 95 -59 169 -50 79 9 165 -10 205 -45 71 -63 134 -76 197
-42 42 22 80 83 80 129 0 101 -132 213 -295 248 -66 15 -184 16 -256 4z"/>
<path d="M4075 2095 c-38 -7 -155 -35 -260 -63 -356 -94 -596 -140 -825 -157
-123 -10 -153 -20 -193 -64 -40 -45 -52 -86 -45 -167 6 -68 45 -121 111 -148
l46 -19 269 37 c304 42 381 57 752 150 146 36 281 68 301 71 46 7 97 41 126
84 63 93 -5 243 -126 280 -46 13 -66 13 -156 -4z"/>
<path d="M4845 1725 c-5 -2 -23 -6 -39 -10 -18 -4 -63 -39 -115 -89 -105 -101
-153 -134 -284 -196 -130 -61 -188 -80 -416 -140 -295 -77 -455 -136 -505
-186 -92 -92 -65 -233 56 -295 55 -28 108 -24 211 17 85 34 161 55 433 117
214 49 490 170 630 276 114 85 210 190 225 243 14 52 6 115 -21 167 -23 46
-59 74 -115 90 -42 11 -44 12 -60 6z"/>
<path d="M2100 1628 c-56 -39 -75 -73 -75 -137 0 -47 6 -67 35 -116 103 -176
437 -407 566 -392 23 2 53 13 67 23 64 47 87 154 47 218 -21 35 -37 45 -121
76 -127 46 -213 123 -279 248 -41 78 -77 102 -152 102 -41 0 -64 -6 -88 -22z"/>
<path d="M2040 981 c-55 -29 -92 -97 -92 -168 0 -73 14 -108 60 -156 130 -135
329 -235 546 -274 121 -22 370 -22 488 0 132 24 245 57 280 81 42 28 78 98 78
153 0 157 -160 256 -317 194 -105 -41 -225 -64 -333 -64 -166 0 -263 37 -440
168 -47 34 -95 67 -107 74 -34 17 -124 13 -163 -8z"/>
</g>
</svg>
