<?xml version="1.0" standalone="no"?>
<!DOCTYPE svg PUBLIC "-//W3C//DTD SVG 20010904//EN"
 "http://www.w3.org/TR/2001/REC-SVG-20010904/DTD/svg10.dtd">
<svg version="1.0" xmlns="http://www.w3.org/2000/svg"
 width="600.000000pt" height="600.000000pt" viewBox="0 0 600.000000 600.000000"
 preserveAspectRatio="xMidYMid meet">
<metadata>
Created by potrace 1.15, written by Peter Selinger 2001-2017
</metadata>
<g transform="translate(0.000000,600.000000) scale(0.100000,-0.100000)"
fill="#16364b" stroke="none">
<path d="M3085 5636 c-44 -19 -76 -61 -128 -168 -57 -114 -81 -205 -74 -271 7
-59 51 -142 92 -172 44 -34 144 -64 233 -71 42 -3 83 -8 91 -10 8 -3 -13 -22
-50 -45 -106 -69 -362 -290 -477 -414 -101 -107 -108 -183 -24 -254 69 -59
204 -112 527 -205 105 -30 217 -65 250 -77 94 -33 123 -38 163 -27 112 30 145
164 62 245 -35 34 -219 98 -460 158 -80 21 -158 42 -174 49 l-29 12 99 82
c128 107 241 185 384 262 144 79 188 113 211 164 36 79 14 153 -65 223 -89 79
-176 104 -446 131 -58 5 -75 11 -78 24 -2 9 17 59 42 110 51 104 53 119 30
178 -28 70 -113 106 -179 76z"/>
<path d="M1465 5363 c-57 -29 -157 -107 -195 -150 -172 -197 -312 -424 -370
-601 -53 -165 -35 -268 55 -312 23 -11 51 -20 64 -20 12 0 79 18 150 39 192
59 411 99 411 74 0 -5 -31 -60 -70 -121 -71 -114 -141 -245 -168 -317 -14 -38
-27 -107 -38 -205 -6 -56 17 -105 65 -137 47 -32 98 -30 172 8 34 17 136 64
228 106 288 130 326 157 337 245 11 86 -56 158 -148 158 -37 0 -68 -10 -128
-40 -44 -22 -80 -38 -80 -36 0 3 29 53 65 113 72 120 105 209 105 287 0 104
-76 206 -181 242 -70 24 -269 24 -379 0 -106 -23 -105 -23 -74 32 94 162 205
283 323 351 62 36 76 50 93 89 35 78 13 149 -62 200 -45 30 -110 29 -175 -5z"/>
<path d="M4574 4490 c-102 -28 -344 -133 -376 -164 -33 -32 -51 -94 -42 -142
9 -46 55 -100 99 -114 43 -14 60 -9 221 65 66 30 120 51 122 46 7 -21 -146
-291 -307 -546 -43 -68 -43 -135 -1 -193 17 -23 35 -42 40 -42 5 0 28 -17 51
-37 37 -33 54 -40 207 -75 231 -54 302 -76 302 -94 0 -23 -130 -250 -221 -386
-96 -142 -106 -180 -68 -247 44 -79 158 -105 226 -52 38 30 192 272 257 406
79 161 99 225 100 320 2 181 -87 247 -454 335 -52 12 -99 26 -103 30 -5 4 22
57 59 116 75 121 171 315 204 414 28 80 37 194 20 244 -40 121 -161 163 -336
116z"/>
<path d="M3775 3672 c-46 -21 -92 -71 -101 -108 -11 -44 3 -105 36 -153 44
-64 74 -84 137 -89 47 -4 54 -7 60 -30 3 -14 0 -39 -6 -56 -7 -17 -15 -41 -18
-52 -4 -19 -13 -22 -96 -26 -134 -8 -210 -43 -310 -144 -120 -123 -127 -247
-17 -321 24 -17 47 -23 87 -23 67 0 96 16 146 82 50 65 86 79 208 81 81 2 102
5 125 23 42 31 64 65 71 109 4 27 20 55 49 88 57 64 84 138 84 232 0 93 -25
163 -82 231 -115 137 -274 203 -373 156z"/>
<path d="M2470 3611 c-154 -33 -355 -134 -387 -194 -51 -99 17 -222 131 -234
38 -5 55 1 127 40 100 54 194 87 249 87 37 0 40 -2 40 -27 0 -44 -27 -160 -60
-259 -37 -109 -94 -226 -172 -349 -77 -122 -81 -151 -35 -247 41 -86 73 -123
122 -144 46 -19 136 -18 183 2 140 60 362 129 362 113 0 -19 -68 -186 -110
-268 -52 -105 -61 -168 -32 -233 23 -52 70 -92 128 -107 51 -14 96 -6 152 26
38 21 48 37 96 136 113 237 156 371 158 496 2 176 -85 302 -241 348 -69 20
-168 12 -287 -22 -46 -14 -86 -25 -88 -25 -3 0 11 39 30 86 69 171 112 415 93
521 -26 141 -115 232 -257 262 -69 14 -100 13 -202 -8z"/>
<path d="M1131 3349 c-76 -15 -206 -89 -308 -175 -114 -97 -109 -236 12 -294
54 -26 139 -29 185 -5 18 9 34 15 36 13 2 -3 -3 -42 -11 -89 -8 -46 -20 -124
-26 -174 -6 -49 -21 -144 -34 -210 -45 -229 -55 -302 -56 -416 -2 -126 6 -152
59 -203 25 -23 44 -30 109 -39 100 -13 146 -4 188 36 30 28 155 199 484 662
l85 119 17 -38 c20 -45 18 -61 -21 -281 -16 -88 -34 -205 -39 -260 -6 -55 -18
-173 -27 -262 -22 -224 -18 -305 21 -369 38 -61 102 -98 155 -89 51 9 97 44
120 91 24 49 25 76 3 144 -15 46 -15 66 -5 173 25 259 34 327 62 481 44 235
55 358 40 442 -6 38 -15 107 -20 154 -13 138 -59 223 -143 265 -59 29 -76 30
-144 10 -108 -32 -201 -135 -373 -415 -56 -91 -108 -172 -117 -180 -14 -13
-15 -11 -9 20 42 221 78 467 83 563 6 116 6 117 -26 180 -35 70 -88 115 -164
141 -52 17 -70 18 -136 5z"/>
<path d="M4660 2226 c-55 -28 -108 -94 -116 -147 -4 -22 -10 -41 -14 -44 -3
-2 -55 5 -115 15 -403 73 -644 -72 -730 -440 -14 -58 -27 -131 -30 -162 l-6
-57 -77 65 c-41 35 -105 79 -141 97 -60 29 -74 32 -161 32 -90 0 -101 -2 -166
-35 -81 -41 -189 -142 -255 -240 -24 -36 -69 -116 -100 -178 -46 -92 -58 -109
-62 -90 -3 13 -17 95 -32 183 -45 276 -84 403 -141 460 -53 53 -140 70 -211
40 -49 -20 -71 -41 -95 -90 -29 -56 -27 -124 6 -220 15 -44 45 -183 66 -310
22 -126 47 -255 56 -285 59 -196 171 -312 332 -341 64 -12 164 -3 207 18 58
29 105 87 105 130 0 32 89 294 125 367 37 76 112 178 144 195 17 9 34 -3 128
-90 188 -175 304 -236 429 -226 179 13 313 168 334 387 5 52 10 139 10 192 0
53 4 108 9 122 15 39 75 43 234 15 227 -39 344 -27 457 49 104 70 158 170 167
308 10 147 -33 240 -132 285 -59 27 -167 25 -225 -5z"/>
</g>
</svg>
