<?xml version="1.0" standalone="no"?>
<!DOCTYPE svg PUBLIC "-//W3C//DTD SVG 20010904//EN"
 "http://www.w3.org/TR/2001/REC-SVG-20010904/DTD/svg10.dtd">
<svg version="1.0" xmlns="http://www.w3.org/2000/svg"
 width="600.000000pt" height="600.000000pt" viewBox="0 0 600.000000 600.000000"
 preserveAspectRatio="xMidYMid meet">
<metadata>
Created by potrace 1.15, written by Peter Selinger 2001-2017
</metadata>
<g transform="translate(0.000000,600.000000) scale(0.100000,-0.100000)"
fill="#16364b" stroke="none">
<path d="M1550 5789 c-33 -13 -68 -47 -86 -81 -45 -86 -67 -516 -32 -629 46
-147 182 -212 308 -149 83 42 215 223 326 450 84 171 87 219 18 279 -28 25
-43 31 -82 31 -80 0 -99 -20 -164 -166 -63 -141 -143 -284 -158 -284 -6 0 -10
10 -10 23 1 65 22 234 41 323 19 92 20 103 6 136 -9 20 -27 44 -41 53 -32 21
-93 28 -126 14z"/>
<path d="M872 5490 c-169 -36 -291 -163 -328 -343 -25 -121 5 -231 88 -323 55
-59 111 -94 153 -94 71 0 135 61 135 128 0 45 -14 69 -67 120 -44 41 -45 44
-41 92 6 55 40 109 92 141 31 20 38 21 166 3 45 -6 91 22 113 69 52 110 -34
204 -195 212 -40 2 -92 0 -116 -5z"/>
<path d="M3310 5468 c-48 -32 -67 -87 -51 -146 13 -47 15 -49 179 -152 50 -33
92 -63 92 -68 0 -5 -11 -14 -25 -20 -30 -14 -57 -64 -57 -108 0 -93 145 -207
262 -207 162 0 224 148 134 326 -60 121 -147 208 -328 325 -117 76 -154 85
-206 50z"/>
<path d="M2997 5149 c-58 -14 -89 -33 -136 -84 -52 -56 -78 -113 -87 -187 -12
-101 28 -176 114 -216 68 -31 145 -27 245 13 111 45 133 87 125 238 -6 115
-42 179 -123 220 -42 21 -93 27 -138 16z"/>
<path d="M2329 5131 c-78 -25 -105 -73 -113 -204 -9 -148 -46 -201 -186 -264
-90 -42 -117 -65 -130 -114 -21 -78 38 -159 117 -159 49 0 235 98 304 159 31
28 70 72 87 98 73 114 114 338 78 416 -10 19 -28 43 -40 51 -30 19 -84 27
-117 17z"/>
<path d="M4773 4825 c-18 -8 -42 -29 -54 -47 -19 -31 -20 -43 -15 -178 6 -162
22 -242 67 -333 40 -81 90 -133 164 -168 128 -61 266 -22 328 94 18 34 22 58
21 123 0 74 -4 90 -41 165 -67 140 -177 250 -324 323 -78 39 -98 42 -146 21z"/>
<path d="M2742 4144 c-121 -32 -192 -120 -192 -237 0 -226 281 -323 584 -202
120 48 196 96 222 141 41 69 26 160 -32 201 -42 29 -209 82 -311 99 -109 17
-202 17 -271 -2z"/>
<path d="M1055 4075 c-70 -38 -95 -83 -95 -168 0 -40 6 -63 23 -87 39 -58 62
-68 185 -79 62 -6 120 -14 128 -19 12 -7 1 -22 -53 -73 -110 -104 -255 -191
-421 -254 -40 -15 -86 -38 -102 -51 -81 -68 -57 -208 44 -265 76 -43 127 -29
312 82 45 27 85 49 88 49 3 0 6 -10 6 -21 0 -36 40 -88 83 -110 60 -31 118
-23 193 27 67 45 141 79 197 89 28 6 50 2 89 -15 118 -51 215 -11 246 102 15
56 0 107 -46 150 -55 50 -120 68 -255 68 l-109 0 25 30 c62 73 74 224 28 322
-68 143 -209 218 -438 233 -80 5 -103 3 -128 -10z"/>
<path d="M4260 3784 c-169 -33 -293 -137 -320 -270 -38 -181 90 -359 273 -380
116 -14 230 50 314 176 48 71 75 136 105 255 l21 81 -21 47 c-31 70 -80 89
-232 93 -63 1 -126 0 -140 -2z m22 -336 c-25 -26 -63 -18 -41 8 17 21 53 34
58 22 2 -6 -6 -19 -17 -30z"/>
<path d="M5050 3379 c-150 -75 -238 -192 -248 -328 -16 -227 164 -376 362
-300 140 54 236 203 236 368 0 78 -26 140 -89 216 -80 98 -135 107 -261 44z"/>
<path d="M3404 3390 c-37 -15 -95 -93 -145 -196 -52 -109 -58 -138 -34 -187
27 -56 60 -72 142 -70 87 3 137 25 180 80 42 53 59 89 73 157 27 129 -39 227
-152 225 -24 0 -52 -4 -64 -9z"/>
<path d="M2283 2926 c-122 -40 -180 -100 -268 -281 -73 -148 -105 -190 -176
-237 -57 -37 -200 -199 -267 -301 -65 -101 -148 -280 -173 -377 -18 -68 -23
-112 -23 -220 -1 -406 171 -654 565 -815 383 -156 810 -10 1061 363 123 184
180 332 239 617 29 139 33 180 34 310 0 132 -3 158 -24 220 -34 101 -72 164
-140 228 -53 51 -183 127 -217 127 -27 0 -94 68 -154 158 -72 107 -131 159
-220 193 -70 26 -181 34 -237 15z m155 -470 c23 -35 73 -95 110 -132 58 -59
80 -74 159 -107 51 -22 103 -47 116 -58 37 -28 52 -98 52 -234 0 -141 -17
-252 -57 -390 -39 -133 -89 -226 -168 -309 -165 -175 -350 -236 -555 -185
-127 32 -253 136 -312 257 -38 76 -38 76 -38 201 0 120 2 130 33 206 45 107
128 230 204 300 93 86 245 252 288 315 20 30 54 88 74 128 20 39 40 72 44 72
4 0 26 -29 50 -64z"/>
<path d="M899 2713 c-55 -34 -74 -105 -45 -162 10 -18 46 -45 102 -77 158 -88
234 -187 234 -301 0 -70 -28 -126 -80 -161 -66 -45 -133 -14 -223 104 -58 76
-84 94 -137 94 -77 0 -143 -64 -143 -139 0 -90 120 -234 244 -295 178 -86 360
-60 478 70 140 153 165 353 69 546 -107 213 -385 392 -499 321z"/>
<path d="M4205 2281 c-101 -25 -155 -95 -155 -200 l0 -50 -35 15 c-48 20 -101
18 -150 -6 -75 -36 -110 -116 -95 -215 24 -160 62 -385 71 -417 22 -84 107
-137 196 -124 58 9 74 9 139 1 95 -13 198 55 247 164 17 36 22 72 25 171 5
174 -22 529 -44 576 -31 64 -123 104 -199 85z"/>
</g>
</svg>
