<?xml version="1.0" standalone="no"?>
<!DOCTYPE svg PUBLIC "-//W3C//DTD SVG 20010904//EN"
 "http://www.w3.org/TR/2001/REC-SVG-20010904/DTD/svg10.dtd">
<svg version="1.0" xmlns="http://www.w3.org/2000/svg"
 width="600.000000pt" height="600.000000pt" viewBox="0 0 600.000000 600.000000"
 preserveAspectRatio="xMidYMid meet">
<metadata>
Created by potrace 1.15, written by Peter Selinger 2001-2017
</metadata>
<g transform="translate(0.000000,600.000000) scale(0.100000,-0.100000)"
fill="#16364b" stroke="none">
<path d="M2388 5373 c-12 -14 -17 -55 -21 -178 -13 -332 -58 -490 -170 -591
-27 -24 -82 -60 -123 -81 -84 -41 -96 -53 -96 -88 0 -32 19 -55 46 -55 37 0
200 88 258 140 133 119 171 240 199 647 11 156 11 174 -5 197 -20 31 -65 35
-88 9z"/>
<path d="M3535 5260 c-23 -44 -19 -70 25 -159 48 -95 126 -185 175 -201 70
-23 126 34 106 107 -17 62 -95 184 -149 236 -45 42 -56 47 -96 47 -40 0 -47
-3 -61 -30z"/>
<path d="M3015 5086 c-148 -68 -215 -274 -123 -373 31 -33 70 -38 122 -14 108
47 206 184 206 285 0 61 -19 92 -66 112 -47 20 -81 17 -139 -10z m87 -92 c16
-15 -29 -102 -75 -147 -58 -57 -74 -52 -56 18 18 71 104 156 131 129z"/>
<path d="M4781 4723 c-32 -26 -43 -117 -45 -353 -1 -173 2 -210 15 -235 27
-49 55 -68 98 -68 92 0 130 65 131 219 0 162 -46 385 -90 432 -25 27 -79 29
-109 5z"/>
<path d="M2643 4214 c-65 -32 -80 -122 -29 -188 46 -61 209 -126 316 -126 49
0 146 25 172 44 25 19 45 72 40 106 -5 35 -45 78 -81 86 -14 3 -51 15 -81 26
-70 25 -247 68 -280 68 -14 0 -39 -8 -57 -16z"/>
<path d="M5195 3972 c-67 -23 -118 -66 -152 -127 -26 -46 -28 -59 -28 -150 1
-81 5 -109 23 -148 28 -63 105 -143 167 -175 44 -24 62 -27 145 -27 86 0 101
3 161 31 134 64 203 161 203 283 -1 125 -70 222 -208 295 -66 34 -74 36 -165
36 -64 -1 -113 -6 -146 -18z m202 -276 c12 -11 -7 -36 -33 -42 -20 -5 -31 -2
-41 11 -25 35 -17 48 28 42 22 -3 43 -8 46 -11z"/>
<path d="M1315 3811 c-117 -29 -194 -128 -195 -250 0 -168 109 -318 269 -369
38 -11 69 -30 96 -58 85 -86 124 -198 174 -494 18 -102 47 -261 66 -355 23
-119 35 -213 40 -314 10 -221 47 -334 157 -484 76 -103 169 -181 277 -234 78
-39 90 -48 75 -56 -30 -16 -85 -70 -100 -99 -24 -46 -18 -102 14 -136 49 -52
131 -62 372 -43 345 28 366 26 334 -37 -13 -28 -14 -38 -4 -63 22 -53 81 -75
132 -48 28 15 58 86 58 140 0 57 -40 121 -96 156 -34 20 -52 23 -134 23 -52 0
-170 -7 -261 -16 -92 -8 -184 -14 -205 -12 l-39 3 50 17 c50 18 341 82 360 79
21 -2 377 -20 530 -26 143 -6 165 -9 212 -32 66 -32 143 -38 287 -25 l108 11
25 -30 c43 -51 149 -62 223 -24 39 20 82 79 89 122 6 35 8 36 81 55 175 45
383 138 484 216 127 98 257 242 320 355 61 110 80 199 81 377 0 134 -3 162
-21 206 -30 73 -96 166 -183 257 -172 180 -300 247 -477 247 -174 0 -293 -45
-409 -155 -83 -79 -128 -111 -212 -154 -221 -111 -568 -157 -768 -103 -160 44
-311 136 -428 262 -57 60 -163 197 -252 325 -85 121 -165 216 -289 343 -134
137 -212 203 -307 260 -73 43 -282 139 -348 159 -47 14 -136 16 -186 4z m258
-313 c67 -29 154 -74 193 -100 125 -84 290 -262 458 -493 47 -66 108 -149 133
-185 68 -94 214 -242 317 -322 142 -110 324 -188 509 -218 224 -36 574 29 828
155 111 54 160 89 245 170 83 79 144 105 242 105 37 0 84 -5 104 -10 133 -37
301 -237 329 -390 40 -227 -124 -509 -363 -624 -163 -78 -402 -146 -618 -177
-107 -15 -454 -15 -850 0 -168 6 -332 11 -366 11 -84 -1 -260 18 -330 36 -138
35 -230 108 -290 229 -39 80 -59 182 -69 355 -4 67 -19 165 -35 235 -45 193
-49 211 -75 393 -30 203 -60 314 -119 437 -84 177 -198 293 -328 334 -47 15
-98 62 -98 90 0 35 50 26 183 -31z"/>
<path d="M2337 2438 c-28 -10 -44 -45 -33 -73 3 -8 21 -23 41 -32 34 -16 35
-16 60 7 58 54 9 126 -68 98z"/>
<path d="M2816 2054 c-25 -25 -19 -59 15 -88 37 -31 62 -33 89 -6 27 27 26 75
-2 94 -29 20 -82 20 -102 0z"/>
<path d="M4220 3765 c-110 -31 -201 -117 -241 -230 -70 -200 77 -362 311 -342
210 18 320 200 256 422 -20 67 -48 98 -119 130 -69 32 -139 38 -207 20z m90
-267 c0 -16 -31 -48 -47 -48 -18 0 -17 25 3 44 18 19 44 21 44 4z"/>
<path d="M3423 3347 c-31 -36 -109 -182 -138 -259 -16 -44 -16 -49 -1 -73 13
-20 25 -25 56 -25 35 0 43 5 75 48 41 53 119 210 130 260 17 80 -66 113 -122
49z"/>
<path d="M482 2024 c-43 -30 -30 -64 51 -133 136 -116 266 -162 303 -106 21
32 12 57 -40 102 -44 39 -252 153 -277 153 -8 0 -25 -7 -37 -16z"/>
<path d="M5364 1111 c-41 -25 -69 -96 -69 -173 0 -49 4 -61 27 -85 46 -46 123
-31 164 32 8 13 21 53 27 89 9 56 9 70 -6 101 -26 55 -87 70 -143 36z"/>
</g>
</svg>
