<?xml version="1.0" standalone="no"?>
<!DOCTYPE svg PUBLIC "-//W3C//DTD SVG 20010904//EN"
 "http://www.w3.org/TR/2001/REC-SVG-20010904/DTD/svg10.dtd">
<svg version="1.0" xmlns="http://www.w3.org/2000/svg"
 width="600.000000pt" height="600.000000pt" viewBox="0 0 600.000000 600.000000"
 preserveAspectRatio="xMidYMid meet">
<metadata>
Created by potrace 1.15, written by Peter Selinger 2001-2017
</metadata>
<g transform="translate(0.000000,600.000000) scale(0.100000,-0.100000)"
fill="#16364b" stroke="none">
<path d="M1943 5809 c-37 -18 -53 -40 -139 -182 -54 -89 -142 -227 -195 -307
-137 -204 -156 -253 -128 -327 32 -86 149 -138 255 -112 62 15 104 36 229 112
54 34 183 109 285 168 214 123 234 143 228 225 -8 93 -78 149 -176 142 -49 -3
-71 -13 -156 -66 -54 -34 -101 -61 -103 -58 -2 2 25 49 62 103 37 56 68 115
71 135 13 76 -43 155 -123 177 -52 15 -62 14 -110 -10z"/>
<path d="M3016 5670 c-41 -37 -60 -87 -54 -144 8 -70 31 -93 145 -147 131 -61
221 -120 299 -198 79 -77 120 -139 144 -219 35 -112 1 -164 -125 -192 -89 -20
-137 -74 -137 -155 0 -77 49 -136 124 -150 44 -8 140 15 225 55 161 75 249
245 223 431 -40 278 -244 512 -607 693 -138 69 -183 73 -237 26z"/>
<path d="M965 5404 c-196 -39 -329 -173 -371 -375 -32 -153 23 -326 140 -441
64 -63 112 -88 172 -88 94 0 154 57 154 147 0 50 -22 94 -59 117 -42 26 -92
83 -102 116 -28 92 21 164 136 199 38 12 80 32 94 44 58 54 78 163 41 224 -36
60 -100 78 -205 57z"/>
<path d="M2803 5030 c-84 -43 -162 -154 -181 -260 -20 -107 16 -198 106 -267
60 -45 111 -58 234 -58 119 0 140 9 186 76 34 49 28 136 -12 178 -27 28 -27
30 -12 59 24 47 19 94 -17 163 -46 90 -95 123 -190 127 -58 2 -80 -1 -114 -18z"/>
<path d="M4749 4875 c-69 -51 -79 -96 -59 -283 12 -109 41 -225 69 -280 29
-57 88 -119 139 -150 64 -37 174 -39 240 -4 141 74 219 244 178 385 -31 108
-131 200 -327 301 -130 67 -182 73 -240 31z"/>
<path d="M1913 4676 c-55 -18 -122 -57 -152 -90 -33 -36 -41 -125 -16 -173 22
-41 67 -70 122 -79 33 -5 53 -1 98 20 82 37 92 35 119 -26 30 -68 65 -102 120
-118 55 -15 100 -2 142 41 26 27 29 37 29 92 -1 121 -96 261 -213 314 -68 32
-183 41 -249 19z"/>
<path d="M2930 3976 c-90 -24 -172 -95 -213 -184 -33 -73 -31 -198 5 -274 67
-144 215 -228 403 -228 70 0 85 3 118 25 41 28 77 89 77 131 0 78 -59 128
-173 143 -85 12 -137 33 -137 56 0 22 81 19 160 -6 45 -15 78 -20 101 -15 125
23 179 168 98 261 -67 76 -310 126 -439 91z"/>
<path d="M1195 3966 c-169 -33 -246 -65 -298 -126 -75 -88 -68 -193 17 -268
36 -32 102 -49 151 -40 14 3 25 3 25 1 0 -3 -49 -78 -108 -166 -205 -304 -317
-513 -382 -704 -26 -78 -29 -98 -21 -133 31 -138 191 -213 308 -145 23 14 43
30 43 34 0 9 100 93 385 324 94 75 219 178 280 227 60 50 113 90 117 90 12 0
10 -90 -3 -152 -23 -112 -88 -299 -163 -467 -43 -97 -90 -184 -250 -460 -54
-94 -66 -123 -66 -158 0 -141 154 -204 246 -101 42 46 247 361 290 446 41 80
124 287 210 519 67 183 91 396 63 548 -27 147 -107 214 -244 203 -100 -8 -186
-55 -358 -195 -50 -40 -92 -71 -94 -69 -2 2 27 53 65 112 175 276 211 388 163
514 -28 74 -63 115 -124 144 -66 33 -156 40 -252 22z"/>
<path d="M4262 3786 c-94 -18 -206 -72 -258 -125 -23 -23 -56 -69 -74 -103
-28 -52 -33 -72 -33 -128 0 -115 44 -180 159 -232 41 -19 66 -23 154 -23 95 0
110 3 165 29 121 59 224 198 286 387 l21 67 -21 46 c-16 38 -29 51 -65 67 -60
26 -233 34 -334 15z m-11 -306 c-13 -11 -33 -20 -45 -20 -21 1 -21 1 3 20 13
11 33 20 45 20 21 -1 21 -1 -3 -20z"/>
<path d="M3440 3393 c-63 -23 -131 -97 -182 -200 -38 -76 -43 -95 -43 -153 0
-57 4 -72 27 -102 41 -54 95 -71 216 -66 92 3 104 5 144 33 64 45 91 107 96
220 6 144 -25 221 -108 263 -51 25 -87 27 -150 5z"/>
<path d="M4920 3009 c-51 -31 -181 -166 -213 -222 -88 -150 -90 -308 -5 -399
127 -134 349 -76 451 119 62 118 79 255 45 363 -11 38 -87 123 -130 146 -40
21 -107 18 -148 -7z"/>
<path d="M3986 2554 c-57 -21 -103 -59 -128 -107 -34 -65 -30 -138 17 -280 21
-64 35 -120 32 -124 -4 -3 -28 3 -54 15 -153 65 -275 50 -364 -45 -46 -48 -67
-89 -80 -157 -13 -74 1 -159 60 -341 27 -82 61 -201 76 -263 32 -130 61 -179
127 -211 115 -55 264 5 316 129 20 49 18 124 -7 194 -12 33 -21 62 -21 66 0 4
26 -6 58 -22 49 -26 66 -29 122 -26 120 7 248 85 295 181 69 142 49 317 -82
717 -54 162 -61 178 -103 220 -67 68 -170 89 -264 54z"/>
<path d="M2060 2173 c-82 -29 -153 -89 -270 -233 -65 -80 -83 -121 -75 -170 9
-54 39 -97 91 -130 l46 -29 -39 -19 c-81 -42 -166 -162 -193 -273 -17 -74 -23
-277 -11 -379 22 -174 80 -303 189 -421 104 -112 250 -198 407 -240 102 -27
320 -37 422 -19 133 22 258 96 392 231 72 73 91 109 91 175 0 58 -23 107 -67
143 l-34 28 33 35 c38 40 246 451 277 546 57 171 66 401 21 516 -65 168 -247
238 -447 171 -105 -36 -324 -137 -423 -196 -46 -27 -86 -49 -89 -49 -4 0 -12
30 -19 66 -7 37 -22 89 -33 115 -36 83 -128 150 -204 148 -11 0 -40 -7 -65
-16z m910 -461 c0 -18 -71 -250 -99 -322 -16 -41 -54 -129 -85 -196 -45 -98
-56 -130 -56 -173 0 -63 27 -119 75 -158 l34 -27 -69 -68 c-116 -113 -229
-152 -372 -129 -141 22 -309 134 -363 240 -69 138 -73 310 -9 375 43 42 73 35
111 -27 47 -78 112 -148 158 -168 129 -59 265 25 265 163 0 57 -15 97 -64 168
-20 29 -36 58 -36 65 0 21 281 175 440 241 61 26 70 28 70 16z"/>
</g>
</svg>
