<?xml version="1.0" standalone="no"?>
<!DOCTYPE svg PUBLIC "-//W3C//DTD SVG 20010904//EN"
 "http://www.w3.org/TR/2001/REC-SVG-20010904/DTD/svg10.dtd">
<svg version="1.0" xmlns="http://www.w3.org/2000/svg"
 width="600.000000pt" height="600.000000pt" viewBox="0 0 600.000000 600.000000"
 preserveAspectRatio="xMidYMid meet">
<metadata>
Created by potrace 1.15, written by Peter Selinger 2001-2017
</metadata>
<g transform="translate(0.000000,600.000000) scale(0.100000,-0.100000)"
fill="#16364b" stroke="none">
<path d="M2310 5442 c-26 -14 -44 -37 -72 -92 -64 -126 -76 -246 -34 -335 62
-132 177 -157 449 -100 71 15 131 24 134 22 2 -3 -25 -47 -60 -99 -133 -193
-377 -636 -377 -684 0 -13 4 -43 10 -66 5 -24 12 -56 15 -72 9 -42 64 -93 110
-102 27 -5 73 1 154 19 231 52 431 77 619 77 l122 0 36 33 c78 72 58 203 -39
254 -62 32 -326 17 -556 -32 -40 -8 -79 -15 -88 -15 -33 0 132 265 296 475
111 143 139 193 148 266 5 40 1 58 -21 103 -74 152 -224 188 -518 126 -77 -16
-142 -30 -143 -30 -2 0 8 26 21 58 26 63 25 96 -7 148 -37 61 -130 82 -199 46z"/>
<path d="M1725 5010 c-51 -11 -156 -50 -222 -83 -77 -39 -251 -159 -316 -217
-69 -62 -87 -94 -87 -153 0 -49 42 -123 85 -151 14 -9 100 -32 192 -51 261
-53 336 -84 405 -166 53 -63 83 -79 146 -79 85 0 152 66 152 151 0 110 -194
274 -412 348 -29 10 -52 22 -51 27 3 18 114 54 193 63 88 10 121 26 150 74 43
69 19 168 -52 220 -31 23 -117 31 -183 17z"/>
<path d="M4045 4896 c-87 -18 -137 -36 -225 -82 -80 -42 -145 -94 -165 -135
-35 -67 -5 -157 62 -186 53 -22 103 -12 183 37 87 52 159 80 210 80 35 0 40
-3 46 -27 10 -40 -13 -182 -42 -265 -14 -39 -48 -116 -75 -171 -27 -55 -49
-113 -49 -129 0 -37 25 -85 61 -119 16 -15 29 -33 29 -41 0 -22 53 -67 91 -78
26 -8 57 -5 129 9 151 31 322 52 402 49 l73 -3 3 -41 c4 -59 -30 -216 -88
-399 -55 -172 -57 -203 -18 -257 56 -79 187 -76 237 6 26 42 103 270 132 386
31 128 33 328 5 410 -26 74 -102 150 -176 176 -69 24 -264 24 -415 1 -55 -9
-101 -15 -102 -14 -1 2 13 43 32 92 51 137 68 238 62 369 -5 130 -24 188 -80
251 -20 24 -56 53 -80 64 -56 27 -155 34 -242 17z"/>
<path d="M2030 3919 c-158 -55 -288 -87 -403 -99 -117 -12 -164 -33 -195 -88
-41 -73 -24 -146 45 -199 35 -27 41 -28 142 -27 120 1 227 21 375 69 244 80
293 107 328 180 36 74 5 149 -76 186 -58 26 -86 23 -216 -22z"/>
<path d="M3745 3720 c-126 -25 -548 -251 -586 -314 -58 -95 17 -226 129 -226
39 0 69 13 201 89 189 107 221 124 228 117 11 -11 -63 -209 -133 -356 -41 -86
-74 -168 -74 -183 0 -15 -9 -44 -20 -64 -11 -21 -20 -50 -20 -66 0 -68 56
-137 127 -156 73 -20 256 20 384 84 150 76 335 218 401 309 67 92 14 214 -101
232 -61 10 -117 -15 -169 -75 -42 -49 -204 -166 -220 -159 -5 1 13 51 40 111
90 200 127 387 99 504 -30 125 -137 183 -286 153z"/>
<path d="M2390 3353 c-101 -19 -329 -77 -348 -89 -80 -52 -81 -184 -3 -241 57
-43 92 -45 237 -13 72 16 157 33 188 36 54 7 56 6 56 -17 0 -13 -14 -62 -30
-109 -46 -132 -38 -190 35 -245 61 -47 158 -32 203 32 26 36 78 193 93 278 28
164 -40 307 -168 355 -41 15 -76 20 -146 19 -51 -1 -103 -4 -117 -6z"/>
<path d="M1182 3071 c-65 -22 -106 -60 -128 -118 -20 -53 -13 -120 17 -170 23
-37 84 -83 111 -83 34 0 43 -125 28 -389 -14 -240 -6 -349 36 -481 19 -61 35
-91 62 -118 101 -101 286 -71 338 54 18 43 18 81 -1 134 -8 23 -15 46 -15 50
0 3 25 5 57 2 86 -7 110 10 173 126 64 120 129 218 168 255 l29 28 16 -48 c15
-45 15 -61 -9 -268 -14 -121 -31 -251 -39 -290 -21 -97 -19 -136 8 -176 57
-86 189 -91 250 -8 26 36 65 247 102 559 15 122 15 139 1 185 -9 27 -26 86
-38 129 -31 112 -83 187 -154 222 -154 76 -344 -30 -515 -287 l-74 -111 -6
238 c-4 182 -10 254 -23 303 -38 139 -103 223 -200 260 -69 26 -124 26 -194 2z"/>
<path d="M4852 3004 c-50 -19 -95 -61 -124 -118 -18 -34 -22 -56 -20 -132 l2
-91 -111 -52 c-181 -84 -274 -158 -334 -266 -134 -242 -105 -555 71 -744 30
-32 54 -61 54 -64 0 -3 -13 -8 -29 -12 -16 -3 -55 -28 -86 -56 -65 -57 -73
-58 -231 -34 -328 49 -530 -14 -764 -241 -47 -46 -101 -103 -120 -128 -19 -25
-48 -51 -64 -57 -16 -7 -59 -42 -95 -77 -114 -112 -187 -128 -307 -67 -45 22
-91 56 -131 97 -82 83 -99 106 -153 206 -57 107 -99 144 -172 149 -68 5 -131
-25 -172 -84 -57 -82 -31 -182 94 -368 95 -141 264 -296 393 -362 237 -120
475 -80 707 117 30 26 73 57 96 68 26 13 59 46 94 94 112 150 228 243 345 273
74 19 116 19 230 0 137 -22 247 -19 328 9 158 56 267 166 267 271 0 43 -23
101 -52 132 -20 22 -20 23 -2 29 102 32 164 91 190 180 27 93 10 145 -87 266
-27 34 -30 124 -5 162 9 14 50 41 93 62 200 94 241 116 287 161 103 101 143
221 133 403 -6 115 -18 156 -62 208 -58 69 -175 98 -263 66z"/>
<path d="M3335 2321 c-44 -10 -195 -44 -335 -75 -140 -31 -265 -59 -277 -61
-29 -7 -90 -60 -108 -94 -57 -111 1 -248 120 -281 43 -12 58 -11 149 9 56 13
178 45 271 72 162 47 322 82 336 73 3 -2 9 -22 12 -45 7 -52 50 -107 108 -137
36 -19 54 -22 98 -18 95 9 154 72 173 184 28 166 -51 305 -209 366 -71 27
-235 31 -338 7z"/>
</g>
</svg>
