<?xml version="1.0" standalone="no"?>
<!DOCTYPE svg PUBLIC "-//W3C//DTD SVG 20010904//EN"
 "http://www.w3.org/TR/2001/REC-SVG-20010904/DTD/svg10.dtd">
<svg version="1.0" xmlns="http://www.w3.org/2000/svg"
 width="600.000000pt" height="600.000000pt" viewBox="0 0 600.000000 600.000000"
 preserveAspectRatio="xMidYMid meet">
<metadata>
Created by potrace 1.15, written by Peter Selinger 2001-2017
</metadata>
<g transform="translate(0.000000,600.000000) scale(0.100000,-0.100000)"
fill="#16364b" stroke="none">
<path d="M1855 5811 c-45 -27 -57 -44 -135 -186 -227 -409 -271 -551 -209
-671 68 -131 238 -126 440 14 119 82 435 367 448 404 34 98 -24 194 -130 213
-50 9 -91 -11 -197 -94 -50 -39 -93 -71 -96 -71 -3 0 19 50 50 112 50 99 56
117 52 159 -3 25 -14 60 -26 76 -43 60 -138 81 -197 44z"/>
<path d="M3008 5705 c-41 -23 -70 -79 -70 -135 0 -58 20 -96 70 -131 267 -185
359 -256 442 -339 105 -104 150 -179 150 -249 0 -47 -12 -57 -89 -67 -121 -16
-191 -122 -145 -219 24 -52 66 -75 135 -75 139 0 278 79 339 191 34 62 35 68
35 169 0 102 -1 107 -41 190 -109 225 -325 446 -600 614 -108 66 -173 81 -226
51z"/>
<path d="M965 5439 c-123 -18 -248 -106 -307 -215 -78 -144 -78 -366 -1 -517
30 -60 114 -146 165 -170 130 -61 257 42 227 184 -8 38 -24 63 -69 113 -73 81
-81 96 -81 154 -1 86 37 136 110 147 110 17 160 50 179 118 13 48 -1 103 -36
141 -44 46 -95 58 -187 45z"/>
<path d="M2897 5115 c-50 -17 -81 -46 -127 -117 -121 -185 -72 -368 113 -423
64 -19 127 -19 201 0 122 32 150 76 141 223 -7 125 -28 191 -78 248 -70 79
-155 103 -250 69z"/>
<path d="M4754 4871 c-60 -37 -74 -68 -74 -173 1 -398 245 -680 479 -553 139
76 192 214 140 367 -38 114 -108 190 -254 277 -174 105 -228 120 -291 82z"/>
<path d="M2000 4779 c-71 -14 -162 -64 -189 -104 -20 -29 -23 -44 -19 -92 4
-50 9 -60 45 -94 55 -51 110 -59 181 -29 29 12 58 20 66 17 8 -3 20 -25 26
-49 28 -105 79 -158 152 -158 48 0 87 20 122 60 21 25 26 42 26 85 0 106 -67
254 -143 315 -64 51 -162 69 -267 49z"/>
<path d="M2863 4026 c-88 -28 -147 -83 -173 -160 -48 -147 113 -342 324 -391
80 -19 295 -22 372 -5 74 16 121 66 139 150 4 19 14 44 22 56 21 33 33 83 26
114 -9 46 -56 84 -160 128 -260 111 -432 144 -550 108z"/>
<path d="M1099 4001 c-58 -10 -119 -26 -137 -35 -73 -37 -110 -136 -83 -219
25 -75 131 -137 209 -122 40 7 42 14 -44 -101 -183 -242 -291 -427 -413 -703
-69 -155 -73 -168 -69 -223 6 -78 43 -126 118 -151 46 -15 61 -16 103 -6 42
10 62 24 131 93 101 102 212 191 386 308 74 51 193 134 265 186 71 52 135 96
142 99 34 13 -1 -166 -62 -324 -62 -157 -330 -687 -432 -851 -38 -61 -45 -82
-45 -122 0 -89 65 -160 146 -160 90 0 123 42 324 410 155 284 225 427 275 561
99 263 143 569 102 705 -17 59 -71 118 -123 135 -55 18 -168 7 -233 -24 -47
-23 -187 -112 -289 -184 -31 -23 -23 -9 40 72 85 107 170 246 186 302 34 117
16 214 -53 285 -81 83 -228 106 -444 69z"/>
<path d="M4273 3801 c-140 -23 -241 -79 -305 -170 -110 -157 -51 -380 125
-473 64 -34 192 -33 268 3 118 56 223 205 273 391 18 67 22 97 16 125 -11 47
-64 98 -117 112 -55 15 -199 21 -260 12z m7 -318 c0 -14 -34 -43 -52 -43 -27
0 -22 17 10 34 30 17 42 19 42 9z"/>
<path d="M3405 3385 c-59 -21 -128 -101 -180 -210 -25 -51 -45 -105 -45 -119
0 -67 57 -136 128 -156 66 -18 190 -13 239 11 82 40 124 124 125 251 1 180
-114 277 -267 223z"/>
<path d="M4995 3099 c-45 -13 -186 -129 -229 -188 -60 -81 -85 -153 -86 -239
0 -131 65 -225 180 -259 51 -15 60 -15 120 1 155 40 252 153 279 323 12 80 1
164 -29 223 -26 50 -110 129 -150 140 -40 11 -44 11 -85 -1z"/>
<path d="M3902 2615 c-65 -20 -111 -61 -139 -123 -34 -74 -28 -124 36 -282 27
-68 49 -125 48 -126 -1 -1 -33 8 -72 22 -121 41 -211 25 -288 -49 -105 -103
-119 -240 -51 -518 28 -118 99 -340 124 -389 38 -74 116 -123 196 -123 133 0
270 153 251 281 -3 20 -9 51 -12 69 l-7 32 43 -22 c67 -34 165 -31 247 7 117
54 172 146 172 288 0 103 -19 184 -120 509 -4 14 -32 91 -61 170 -46 122 -61
151 -99 191 -68 70 -169 94 -268 63z"/>
<path d="M2013 2230 c-92 -19 -174 -85 -250 -202 -89 -137 -110 -215 -82 -297
10 -29 9 -35 -14 -59 -111 -118 -197 -358 -197 -546 0 -125 39 -276 97 -375
75 -129 236 -301 357 -380 137 -89 262 -123 451 -123 256 1 435 76 595 250 87
94 124 164 118 224 -4 36 4 59 44 139 71 142 129 301 194 525 82 286 83 377 9
491 -56 85 -162 133 -295 133 -137 0 -270 -46 -479 -165 -63 -36 -118 -65
-122 -65 -4 0 -10 17 -14 38 -16 86 -68 224 -105 280 -48 72 -114 118 -190
132 -59 11 -58 11 -117 0z m972 -637 c-12 -50 -156 -416 -208 -527 -47 -103
-49 -111 -44 -171 6 -59 4 -66 -22 -98 -63 -80 -149 -128 -265 -148 -178 -30
-326 28 -477 189 -80 84 -109 155 -109 267 0 130 44 244 128 333 25 26 55 64
67 85 l22 38 13 -68 c16 -86 51 -183 81 -228 49 -72 162 -97 241 -53 44 25 73
66 91 130 13 45 33 60 224 164 63 35 240 113 257 114 4 0 5 -12 1 -27z"/>
</g>
</svg>
