<?xml version="1.0" standalone="no"?>
<!DOCTYPE svg PUBLIC "-//W3C//DTD SVG 20010904//EN"
 "http://www.w3.org/TR/2001/REC-SVG-20010904/DTD/svg10.dtd">
<svg version="1.0" xmlns="http://www.w3.org/2000/svg"
 width="600.000000pt" height="600.000000pt" viewBox="0 0 600.000000 600.000000"
 preserveAspectRatio="xMidYMid meet">
<metadata>
Created by potrace 1.15, written by Peter Selinger 2001-2017
</metadata>
<g transform="translate(0.000000,600.000000) scale(0.100000,-0.100000)"
fill="#16364b" stroke="none">
<path d="M1560 5783 c-63 -24 -86 -62 -154 -261 -50 -147 -71 -259 -63 -333
15 -124 130 -184 250 -131 75 34 225 176 390 371 71 83 74 145 11 201 -54 47
-130 41 -179 -15 -11 -12 -58 -66 -105 -118 -47 -53 -86 -92 -88 -87 -4 11 26
92 62 170 45 96 30 167 -40 196 -35 15 -58 16 -84 7z"/>
<path d="M820 5532 c-73 -28 -102 -47 -158 -106 -77 -81 -115 -169 -120 -276
-5 -110 19 -177 89 -254 62 -68 120 -94 172 -77 42 14 65 38 77 80 13 47 -4
91 -55 137 -44 41 -50 56 -45 114 3 41 39 95 83 123 49 32 61 33 110 8 52 -27
73 -30 112 -20 53 15 85 60 85 121 0 46 -4 55 -39 89 -77 72 -210 98 -311 61z"/>
<path d="M3464 5404 c-65 -32 -86 -127 -40 -181 20 -24 24 -37 19 -70 -7 -55
29 -133 91 -195 159 -159 356 -119 356 73 0 124 -113 268 -270 347 -93 46
-110 49 -156 26z"/>
<path d="M2338 5323 c-45 -28 -50 -54 -43 -208 14 -304 -59 -466 -241 -534
-31 -12 -69 -28 -86 -37 -34 -18 -58 -67 -51 -106 6 -32 57 -86 90 -94 42 -11
109 2 179 35 170 80 262 196 316 402 19 73 22 109 22 274 0 160 -3 195 -17
222 -31 59 -112 81 -169 46z"/>
<path d="M2965 5146 c-59 -27 -113 -84 -152 -158 -22 -43 -27 -67 -27 -129 -1
-66 2 -81 26 -117 16 -23 43 -49 60 -58 102 -54 306 32 337 141 20 66 25 187
11 231 -34 106 -141 144 -255 90z"/>
<path d="M4758 4794 c-48 -25 -59 -63 -59 -193 -1 -65 2 -140 6 -167 34 -245
138 -387 295 -401 51 -5 67 -2 114 21 135 66 197 222 147 369 -38 111 -109
195 -241 289 -135 95 -201 116 -262 82z m262 -467 c0 -5 -5 -5 -11 -1 -11 6
-39 66 -39 81 1 10 50 -69 50 -80z"/>
<path d="M2724 4199 c-67 -16 -145 -69 -177 -120 -61 -99 -43 -234 41 -318
119 -119 318 -104 511 39 126 94 171 160 157 235 -8 42 -46 88 -83 103 -139
56 -353 85 -449 61z"/>
<path d="M1044 4071 c-85 -52 -84 -198 1 -251 19 -12 73 -27 122 -35 96 -16
153 -32 153 -45 0 -15 -133 -97 -217 -133 -45 -20 -128 -50 -185 -68 -81 -25
-110 -39 -135 -65 -66 -70 -46 -181 41 -223 23 -12 51 -21 62 -21 21 0 210 62
304 99 30 13 98 45 152 72 54 27 101 49 103 49 3 0 5 -11 5 -25 0 -15 7 -39
15 -54 16 -32 70 -81 89 -81 6 0 29 -20 50 -45 56 -67 124 -99 211 -99 79 0
130 20 185 76 71 71 94 193 51 275 -62 123 -222 187 -370 149 -35 -9 -65 -15
-66 -14 -1 2 2 30 8 63 19 111 -37 227 -140 293 -81 52 -261 102 -368 102 -22
0 -54 -9 -71 -19z"/>
<path d="M4202 3775 c-29 -8 -67 -22 -85 -31 -204 -104 -241 -360 -75 -521 59
-57 107 -76 196 -76 170 1 299 122 353 331 44 174 16 250 -110 287 -78 24
-214 28 -279 10z m69 -304 c-15 -28 -61 -43 -61 -20 0 16 31 38 53 39 14 0 16
-4 8 -19z"/>
<path d="M5144 3516 c-136 -50 -261 -172 -298 -291 -23 -72 -18 -172 12 -231
30 -58 92 -110 153 -128 66 -20 109 -20 184 -1 158 41 265 184 265 353 0 94
-21 147 -91 230 -83 98 -117 108 -225 68z"/>
<path d="M3424 3396 c-46 -20 -101 -91 -151 -196 -55 -114 -63 -162 -33 -208
21 -34 72 -62 111 -62 51 0 133 34 174 71 85 78 130 248 88 329 -36 70 -116
98 -189 66z"/>
<path d="M2433 3276 c-141 -46 -232 -153 -306 -357 -64 -175 -89 -207 -257
-320 -125 -84 -317 -275 -395 -392 -97 -149 -135 -276 -150 -507 -13 -195 27
-354 124 -502 176 -268 561 -432 876 -374 520 96 790 408 876 1011 37 261 17
595 -51 821 -12 38 -58 143 -103 234 -74 150 -88 172 -157 241 -56 57 -95 86
-152 114 -70 34 -87 38 -170 41 -61 3 -107 -1 -135 -10z m176 -405 c17 -22 37
-56 45 -78 7 -21 34 -72 58 -113 117 -197 175 -458 148 -669 -17 -133 -71
-317 -131 -439 -43 -88 -63 -116 -137 -191 -71 -71 -103 -96 -172 -129 -50
-24 -111 -46 -147 -51 -221 -34 -481 118 -543 318 -55 175 4 395 156 583 65
80 102 111 263 219 220 146 290 234 347 430 32 110 53 159 70 159 7 0 26 -18
43 -39z"/>
<path d="M524 2396 c-28 -28 -34 -41 -34 -77 0 -38 -4 -46 -29 -61 -34 -19
-54 -74 -41 -116 4 -15 24 -65 44 -111 96 -222 227 -376 381 -448 49 -23 74
-28 136 -28 67 0 81 4 125 30 30 19 60 49 79 79 28 46 30 57 30 140 0 106 -21
168 -97 282 -90 134 -201 225 -368 301 -125 56 -177 58 -226 9z m249 -298
c121 -82 227 -212 227 -281 0 -68 -126 13 -215 137 -39 55 -105 176 -105 192
0 10 28 -4 93 -48z"/>
<path d="M4285 2116 c-30 -13 -85 -69 -85 -86 0 -5 -19 0 -42 10 -110 50 -238
-8 -268 -120 -15 -56 9 -199 67 -400 11 -39 29 -68 62 -102 25 -26 56 -65 69
-86 33 -54 83 -85 147 -90 151 -12 230 90 254 329 22 221 31 404 22 436 -29
101 -132 150 -226 109z"/>
</g>
</svg>
