<?xml version="1.0" standalone="no"?>
<!DOCTYPE svg PUBLIC "-//W3C//DTD SVG 20010904//EN"
 "http://www.w3.org/TR/2001/REC-SVG-20010904/DTD/svg10.dtd">
<svg version="1.0" xmlns="http://www.w3.org/2000/svg"
 width="600.000000pt" height="600.000000pt" viewBox="0 0 600.000000 600.000000"
 preserveAspectRatio="xMidYMid meet">
<metadata>
Created by potrace 1.15, written by Peter Selinger 2001-2017
</metadata>
<g transform="translate(0.000000,600.000000) scale(0.100000,-0.100000)"
fill="#16364b" stroke="none">
<path d="M1443 5712 c-54 -43 -135 -106 -179 -139 -125 -95 -144 -117 -144
-167 0 -86 64 -124 178 -106 34 6 115 27 180 46 64 20 155 47 202 60 101 28
130 54 130 115 0 32 -7 47 -31 71 -28 29 -34 30 -85 25 l-55 -6 15 24 c43 65
-8 155 -88 155 -16 0 -60 -28 -123 -78z"/>
<path d="M2356 5399 c-23 -27 -26 -39 -26 -112 0 -228 -35 -426 -98 -561 -46
-97 -97 -150 -190 -199 -43 -23 -73 -46 -80 -62 -15 -33 -15 -40 3 -80 39 -81
137 -70 278 32 105 77 212 277 264 496 14 55 18 117 18 264 l0 192 -29 30
c-24 25 -38 31 -72 31 -35 0 -47 -5 -68 -31z"/>
<path d="M3528 5322 c-39 -23 -71 -96 -65 -143 23 -175 241 -341 357 -273 88
52 76 167 -31 310 -43 58 -85 88 -155 109 -62 19 -73 18 -106 -3z"/>
<path d="M2995 5102 c-70 -34 -130 -114 -159 -211 -21 -71 -20 -106 3 -158 24
-51 63 -73 130 -73 60 0 87 9 157 56 45 30 57 44 75 92 14 38 22 81 22 127 1
76 -13 113 -57 154 -35 33 -115 39 -171 13z m37 -234 c-7 -7 -12 -8 -12 -2 0
6 3 14 7 17 3 4 9 5 12 2 2 -3 -1 -11 -7 -17z"/>
<path d="M4785 4760 c-47 -18 -58 -45 -67 -163 -28 -354 60 -537 258 -537 77
0 128 29 169 94 27 45 30 57 30 136 0 80 -3 92 -39 166 -31 63 -59 98 -135
175 -125 124 -166 149 -216 129z"/>
<path d="M2699 4230 c-61 -10 -99 -31 -137 -74 -29 -33 -52 -89 -52 -127 0
-39 33 -119 65 -156 121 -142 386 -124 559 38 64 60 79 98 63 162 -14 55 -61
89 -170 120 -146 42 -237 52 -328 37z"/>
<path d="M1089 4115 c-36 -20 -63 -78 -55 -124 9 -58 35 -83 117 -112 93 -32
121 -47 113 -61 -8 -12 -127 -4 -169 12 -56 21 -95 13 -137 -30 -39 -39 -40
-42 -36 -92 4 -41 11 -57 35 -78 39 -35 133 -55 253 -54 168 1 282 53 333 153
15 30 27 66 27 80 0 119 -106 218 -308 287 -107 37 -134 40 -173 19z"/>
<path d="M4200 3762 c-111 -30 -193 -96 -239 -192 -21 -45 -26 -69 -26 -135 0
-70 4 -87 30 -134 104 -188 333 -215 488 -56 77 79 127 212 127 338 0 112 -40
154 -172 181 -96 20 -126 19 -208 -2z m45 -319 c-19 -17 -31 -21 -38 -14 -12
12 8 40 38 51 31 12 31 -11 0 -37z"/>
<path d="M5191 3734 c-111 -30 -185 -86 -233 -177 -19 -35 -23 -58 -23 -137 0
-86 3 -100 29 -148 39 -71 106 -136 172 -168 45 -22 64 -26 116 -22 85 5 149
38 228 118 136 136 167 283 83 397 -28 38 -134 120 -179 139 -42 18 -124 17
-193 -2z m104 -295 c8 -12 -23 -49 -41 -49 -25 0 -27 23 -4 42 25 21 36 22 45
7z"/>
<path d="M1650 3683 c-67 -34 -72 -93 -24 -261 38 -131 88 -192 158 -192 97 0
131 96 86 241 -19 64 -76 168 -108 201 -26 27 -72 31 -112 11z"/>
<path d="M3454 3380 c-39 -16 -92 -91 -143 -204 -60 -132 -63 -165 -22 -207
36 -36 66 -37 130 -4 86 43 167 171 178 280 6 64 -8 100 -49 125 -35 21 -60
24 -94 10z"/>
<path d="M1920 3049 c-216 -18 -406 -65 -535 -132 -108 -56 -246 -192 -294
-290 -97 -199 -95 -397 5 -588 60 -114 127 -185 270 -283 170 -118 218 -165
311 -304 93 -139 222 -274 312 -326 110 -64 200 -89 333 -94 141 -5 224 10
406 73 70 24 177 55 237 69 271 64 583 185 747 291 157 102 314 242 370 330
60 96 112 280 124 437 11 148 -34 256 -161 383 -115 114 -259 187 -402 205
-188 22 -278 31 -433 40 -186 12 -250 26 -501 114 -216 75 -281 86 -508 85
-102 -1 -229 -5 -281 -10z m570 -407 c52 -16 147 -49 210 -72 189 -68 293 -90
490 -100 320 -18 464 -35 503 -58 44 -28 122 -112 132 -141 12 -38 -4 -106
-41 -181 -73 -144 -305 -314 -580 -424 -129 -51 -274 -94 -378 -112 -49 -9
-135 -31 -190 -49 -135 -45 -239 -65 -333 -65 -90 1 -136 15 -191 58 -40 32
-43 35 -168 227 -95 146 -221 275 -355 365 -52 34 -102 69 -113 79 -36 32 -58
92 -58 157 0 103 61 193 167 244 51 25 207 64 332 84 54 9 109 18 123 20 14 3
99 3 190 1 151 -2 173 -5 260 -33z"/>
<path d="M444 2200 c-29 -11 -54 -49 -54 -79 0 -34 85 -241 134 -326 106 -184
270 -274 390 -215 60 29 89 77 88 146 -1 142 -143 292 -424 447 -67 37 -95 43
-134 27z"/>
<path d="M4805 1637 c-17 -8 -36 -21 -43 -29 -10 -12 -27 -15 -77 -10 -63 5
-65 4 -100 -31 -31 -31 -35 -41 -35 -87 0 -66 35 -218 67 -290 74 -169 223
-182 297 -26 29 61 61 197 71 302 5 56 3 78 -9 102 -33 63 -112 95 -171 69z"/>
</g>
</svg>
