<?xml version="1.0" standalone="no"?>
<!DOCTYPE svg PUBLIC "-//W3C//DTD SVG 20010904//EN"
 "http://www.w3.org/TR/2001/REC-SVG-20010904/DTD/svg10.dtd">
<svg version="1.0" xmlns="http://www.w3.org/2000/svg"
 width="600.000000pt" height="600.000000pt" viewBox="0 0 600.000000 600.000000"
 preserveAspectRatio="xMidYMid meet">
<metadata>
Created by potrace 1.15, written by Peter Selinger 2001-2017
</metadata>
<g transform="translate(0.000000,600.000000) scale(0.100000,-0.100000)"
fill="#16364b" stroke="none">
<path d="M2257 5540 c-88 -23 -172 -86 -229 -174 -85 -132 -89 -176 -93 -971
-2 -507 -7 -720 -19 -875 -9 -113 -19 -263 -23 -333 -3 -70 -10 -130 -14 -133
-11 -6 -193 84 -257 127 -39 27 -206 153 -260 196 -14 12 -14 16 1 48 9 20 17
40 17 45 0 19 -38 10 -52 -12 -15 -22 -16 -22 -22 22 -11 67 -16 80 -32 80 -8
0 -18 -18 -25 -45 -13 -51 -22 -55 -45 -20 -9 14 -25 25 -35 25 -23 0 -23 -7
-4 -53 20 -49 20 -50 -15 -32 -75 39 -68 -8 12 -77 34 -29 80 -71 103 -93 57
-57 261 -209 358 -266 45 -27 120 -64 165 -82 l84 -32 -9 -125 c-14 -215 -9
-541 11 -665 38 -243 106 -448 190 -574 92 -138 205 -218 391 -277 l99 -31 -4
-44 c-10 -89 -2 -266 15 -349 9 -47 37 -139 61 -204 44 -120 51 -146 37 -146
-54 -1 -181 -23 -200 -35 -14 -9 -31 -32 -39 -52 -14 -31 -13 -38 3 -71 22
-46 53 -62 120 -62 153 0 303 134 277 247 -3 15 -25 89 -49 163 -61 190 -79
291 -72 418 3 57 10 109 16 115 8 8 23 8 56 -1 25 -7 105 -12 178 -12 72 0
223 -7 334 -15 155 -12 227 -13 309 -5 59 5 109 8 112 5 2 -2 -1 -58 -8 -124
-9 -94 -9 -144 0 -222 11 -95 48 -248 70 -290 6 -10 10 -27 10 -38 0 -19 -5
-20 -92 -19 -121 3 -167 -21 -168 -84 -1 -80 63 -122 182 -121 128 1 223 60
249 155 9 36 7 53 -20 137 -52 168 -65 251 -65 426 0 96 4 170 11 186 11 26
14 26 160 38 222 17 277 26 347 59 110 51 181 130 224 244 28 74 39 146 52
347 12 181 -1 502 -25 622 -27 135 -102 284 -218 438 -49 64 -50 80 -6 81 33
0 264 81 354 124 104 49 169 91 234 151 47 43 131 148 131 163 0 19 -32 72
-44 72 -6 0 -21 -7 -34 -15 -21 -15 -21 -15 -19 22 3 51 -21 51 -48 1 -24 -45
-33 -47 -37 -10 -2 16 -9 27 -18 27 -12 0 -15 -14 -15 -64 0 -62 -1 -64 -42
-101 -98 -87 -392 -205 -571 -230 l-57 -7 -106 101 c-118 113 -446 351 -726
526 -342 214 -461 384 -558 795 -47 197 -65 296 -85 457 -27 222 -79 343 -187
438 -92 81 -221 116 -326 90z m172 -169 c41 -21 101 -83 124 -128 22 -42 46
-129 57 -208 34 -252 99 -573 140 -697 66 -197 177 -377 315 -513 92 -90 126
-113 393 -271 267 -157 527 -374 736 -613 120 -137 165 -199 214 -291 70 -130
82 -181 97 -417 28 -435 -21 -719 -138 -804 -60 -43 -123 -57 -302 -63 -153
-6 -192 -9 -435 -37 -68 -7 -159 -9 -260 -4 -85 3 -240 10 -345 15 -475 20
-639 62 -775 199 -106 106 -166 245 -212 489 -19 101 -22 152 -23 372 0 144 8
368 18 515 30 439 36 562 42 795 3 124 10 349 17 500 8 200 8 339 1 510 -12
255 -5 420 22 499 20 61 77 128 129 152 54 25 136 24 185 0z"/>
<path d="M2582 2894 c-45 -31 -15 -114 42 -114 57 0 80 74 34 113 -25 21 -47
22 -76 1z"/>
<path d="M3190 2867 c-37 -19 -39 -68 -4 -96 36 -28 68 -27 93 5 26 32 26 46
4 72 -23 28 -62 35 -93 19z"/>
<path d="M2770 1946 c-21 -21 -10 -55 23 -72 36 -19 97 -21 385 -13 137 4 175
8 182 19 13 21 12 33 -4 56 -14 18 -29 19 -296 19 -164 0 -285 -4 -290 -9z"/>
</g>
</svg>
