<?xml version="1.0" standalone="no"?>
<!DOCTYPE svg PUBLIC "-//W3C//DTD SVG 20010904//EN"
 "http://www.w3.org/TR/2001/REC-SVG-20010904/DTD/svg10.dtd">
<svg version="1.0" xmlns="http://www.w3.org/2000/svg"
 width="600.000000pt" height="600.000000pt" viewBox="0 0 600.000000 600.000000"
 preserveAspectRatio="xMidYMid meet">
<metadata>
Created by potrace 1.15, written by Peter Selinger 2001-2017
</metadata>
<g transform="translate(0.000000,600.000000) scale(0.100000,-0.100000)"
fill="#16364b" stroke="none">
<path d="M2326 5460 c-16 -5 -40 -19 -54 -32 -47 -43 -112 -218 -112 -300 0
-89 56 -173 140 -212 62 -28 190 -27 338 3 62 13 115 21 118 18 3 -2 -63 -107
-146 -232 -229 -348 -290 -488 -246 -573 9 -17 16 -52 16 -77 0 -92 64 -165
143 -165 21 0 91 13 155 29 201 51 415 90 565 104 162 16 203 31 231 91 43 91
-6 190 -107 217 -63 17 -264 -4 -490 -52 -109 -22 -201 -39 -204 -36 -16 16
72 163 248 413 147 209 175 259 191 336 10 48 9 62 -6 102 -34 90 -101 145
-200 166 -70 14 -134 8 -299 -30 -67 -16 -123 -27 -125 -25 -1 1 5 21 14 44
35 87 4 174 -73 207 -36 16 -55 16 -97 4z"/>
<path d="M3974 4980 c-28 -4 -69 -13 -90 -20 -74 -24 -194 -92 -229 -131 -29
-33 -35 -46 -35 -85 0 -60 31 -115 80 -143 57 -32 103 -27 198 21 69 35 94 43
140 43 l57 0 3 -59 c4 -73 -30 -195 -96 -351 -53 -125 -58 -172 -23 -228 13
-21 40 -44 66 -57 33 -16 45 -28 45 -43 0 -30 33 -82 65 -103 30 -20 66 -17
240 20 133 29 321 36 343 14 33 -33 5 -191 -74 -417 -43 -126 -45 -137 -34
-175 29 -98 126 -143 216 -100 48 23 65 51 117 199 74 209 99 316 100 425 1
83 -2 102 -25 151 -67 146 -202 219 -406 219 -74 0 -256 -23 -321 -40 -19 -5
-36 -8 -38 -6 -2 2 15 49 37 105 72 180 101 347 80 460 -37 208 -209 331 -416
301z"/>
<path d="M1655 4956 c-167 -44 -271 -92 -375 -172 -171 -132 -196 -204 -116
-330 25 -38 58 -77 73 -86 16 -9 94 -28 174 -42 254 -45 342 -76 419 -150 25
-24 56 -49 69 -56 39 -20 115 -15 156 10 64 40 94 135 61 198 -48 92 -243 209
-428 258 -38 10 -68 21 -68 25 0 14 121 51 199 60 102 12 146 35 172 93 24 53
24 80 -2 133 -42 86 -153 106 -334 59z"/>
<path d="M2000 3899 c-190 -61 -258 -77 -372 -89 -101 -10 -141 -29 -176 -81
-19 -27 -23 -44 -20 -85 5 -62 29 -97 87 -125 40 -20 53 -21 170 -16 93 5 157
14 246 37 137 35 297 85 337 106 69 36 96 137 56 213 -53 103 -110 110 -328
40z"/>
<path d="M3695 3699 c-33 -10 -166 -74 -295 -142 -227 -118 -236 -124 -257
-167 -28 -55 -29 -82 -3 -134 30 -60 64 -81 130 -81 50 1 70 9 242 103 102 56
191 102 197 102 16 0 -8 -59 -105 -257 -85 -173 -95 -209 -72 -258 11 -24 9
-28 -25 -56 -84 -69 -90 -154 -17 -226 45 -44 98 -54 202 -37 218 35 453 151
610 302 96 92 120 131 120 190 0 114 -98 194 -201 163 -26 -7 -55 -31 -96 -77
-32 -37 -86 -87 -119 -111 -63 -47 -155 -98 -162 -90 -3 2 15 46 39 98 126
269 169 487 117 589 -40 78 -96 110 -187 109 -32 0 -85 -9 -118 -20z"/>
<path d="M2335 3323 c-121 -16 -273 -46 -296 -59 -85 -43 -97 -168 -25 -240
47 -47 84 -50 221 -20 112 25 237 37 250 24 4 -3 -2 -35 -11 -70 -28 -96 -25
-175 8 -225 36 -54 85 -77 156 -71 49 4 59 9 93 45 52 56 89 174 89 283 0 177
-82 290 -239 326 -52 13 -178 16 -246 7z"/>
<path d="M1215 3074 c-146 -53 -183 -258 -63 -347 18 -13 41 -27 51 -30 9 -4
17 -12 18 -19 0 -7 1 -150 3 -318 2 -269 5 -318 25 -414 12 -60 31 -132 42
-160 55 -147 223 -192 332 -88 61 58 73 126 37 220 -27 70 -26 73 15 56 92
-38 149 -7 214 119 52 99 122 199 156 221 21 14 23 13 45 -40 l22 -55 -21
-137 c-20 -134 -37 -281 -48 -434 -5 -66 -3 -81 15 -110 26 -42 59 -58 118
-58 51 0 76 10 118 49 39 36 43 51 67 239 11 92 31 219 45 282 28 133 30 197
9 227 -9 12 -24 56 -35 98 -37 145 -111 247 -199 273 -165 50 -386 -85 -521
-318 l-55 -95 -7 60 c-4 33 -5 143 -2 245 7 206 -4 288 -50 377 -69 137 -207
202 -331 157z"/>
<path d="M4891 3066 c-50 -18 -106 -69 -130 -120 -17 -36 -21 -65 -21 -136 l0
-90 -76 -42 c-225 -128 -319 -209 -377 -328 -53 -108 -71 -187 -71 -310 0
-174 56 -314 175 -432 l67 -66 -34 -7 c-21 -4 -53 -24 -86 -55 -29 -28 -57
-51 -63 -52 -5 -1 -122 -2 -260 -3 -243 -1 -253 -1 -338 -28 -197 -61 -390
-195 -503 -348 -19 -26 -45 -50 -58 -53 -13 -3 -58 -37 -100 -75 -122 -111
-203 -126 -327 -60 -74 40 -177 146 -244 254 -27 43 -70 100 -95 126 -37 39
-54 48 -93 54 -63 10 -107 0 -154 -34 -44 -32 -74 -85 -80 -146 -14 -124 185
-402 379 -531 125 -84 289 -134 435 -134 146 0 338 74 447 172 33 29 82 64
110 78 32 16 63 42 84 70 119 163 196 233 295 266 42 15 74 17 172 14 66 -3
185 -5 265 -4 135 0 150 2 210 27 127 53 228 155 237 241 9 76 -4 114 -56 166
l-47 47 41 11 c99 26 166 111 173 217 5 76 -9 122 -53 175 -39 47 -50 85 -40
148 9 60 35 84 206 191 153 97 232 171 277 260 41 83 55 158 50 266 -8 142
-58 231 -154 271 -40 17 -117 17 -163 0z"/>
<path d="M3314 2300 c-106 -12 -218 -36 -351 -76 -65 -19 -147 -43 -183 -54
-133 -39 -202 -164 -155 -277 20 -48 41 -71 87 -94 54 -28 107 -24 261 20 164
47 288 68 457 77 l125 6 20 -53 c13 -34 33 -63 58 -83 34 -27 46 -31 102 -31
54 0 69 4 106 30 63 45 92 107 93 203 2 154 -83 265 -238 314 -70 23 -265 32
-382 18z"/>
</g>
</svg>
