<?xml version="1.0" standalone="no"?>
<!DOCTYPE svg PUBLIC "-//W3C//DTD SVG 20010904//EN"
 "http://www.w3.org/TR/2001/REC-SVG-20010904/DTD/svg10.dtd">
<svg version="1.0" xmlns="http://www.w3.org/2000/svg"
 width="600.000000pt" height="600.000000pt" viewBox="0 0 600.000000 600.000000"
 preserveAspectRatio="xMidYMid meet">
<metadata>
Created by potrace 1.15, written by Peter Selinger 2001-2017
</metadata>
<g transform="translate(0.000000,600.000000) scale(0.100000,-0.100000)"
fill="#16364b" stroke="none">
<path d="M1548 5762 c-18 -7 -199 -165 -311 -271 -84 -80 -101 -124 -71 -179
24 -46 55 -62 119 -62 40 0 95 18 275 91 124 49 234 96 246 104 28 18 48 68
40 100 -15 60 -85 82 -161 51 -38 -16 -42 -12 -20 18 25 33 19 89 -12 118 -30
28 -77 41 -105 30z"/>
<path d="M2349 5431 l-29 -29 0 -129 c-1 -247 -29 -407 -97 -535 -41 -79 -83
-120 -182 -178 -51 -29 -77 -51 -88 -75 -35 -74 22 -162 98 -152 43 6 184 94
242 153 120 119 206 331 228 562 12 125 5 322 -13 356 -31 62 -110 75 -159 27z"/>
<path d="M3506 5295 c-12 -13 -28 -42 -36 -64 -11 -35 -11 -46 4 -85 28 -72
76 -136 138 -182 131 -96 255 -74 275 50 8 51 -37 136 -111 213 -49 49 -72 64
-115 77 -81 24 -127 21 -155 -9z"/>
<path d="M2973 5105 c-86 -43 -145 -134 -159 -242 -8 -65 21 -132 70 -163 91
-55 273 7 318 108 28 62 35 175 15 223 -37 90 -147 123 -244 74z"/>
<path d="M4771 4757 c-61 -21 -73 -50 -72 -169 1 -207 57 -385 147 -470 154
-145 374 -41 374 177 0 149 -100 284 -320 432 -56 38 -86 45 -129 30z"/>
<path d="M2730 4230 c-150 -26 -240 -128 -227 -256 27 -262 398 -308 631 -78
54 53 76 93 76 134 -1 47 -32 115 -64 135 -66 43 -318 83 -416 65z"/>
<path d="M1094 4110 c-12 -4 -31 -20 -42 -35 -66 -84 -14 -182 105 -200 57 -8
136 -42 128 -54 -10 -18 -111 -32 -207 -29 -76 2 -101 -1 -122 -15 -60 -39
-81 -119 -47 -174 36 -57 69 -67 226 -66 155 1 236 18 319 67 70 41 100 93
104 183 4 64 1 80 -23 128 -27 57 -85 114 -146 146 -89 45 -241 71 -295 49z"/>
<path d="M4182 3749 c-80 -26 -158 -88 -197 -159 -27 -49 -30 -64 -30 -140 0
-99 20 -152 81 -220 142 -157 389 -103 502 108 60 112 85 299 48 355 -10 15
-28 33 -39 39 -79 42 -260 50 -365 17z m108 -289 c-9 -18 -40 -40 -54 -40 -3
0 -6 9 -6 20 0 21 24 39 53 40 15 0 16 -3 7 -20z"/>
<path d="M5213 3700 c-92 -24 -145 -52 -203 -106 -68 -64 -95 -128 -94 -229 0
-65 5 -91 25 -135 65 -140 191 -214 320 -190 127 24 219 94 272 208 27 57 32
79 32 147 0 102 -28 166 -109 248 -84 84 -112 91 -243 57z m47 -312 c0 -14
-30 -48 -42 -48 -12 0 -10 34 4 48 15 15 38 16 38 0z"/>
<path d="M1638 3684 c-39 -21 -48 -43 -48 -121 0 -248 162 -426 295 -322 63
51 75 167 25 265 -33 66 -105 141 -165 173 -46 25 -70 26 -107 5z"/>
<path d="M3450 3393 c-62 -20 -96 -62 -170 -213 -61 -122 -65 -166 -21 -211
36 -36 66 -37 135 -4 145 68 254 291 186 377 -32 41 -91 64 -130 51z"/>
<path d="M2140 3050 c-106 -14 -194 -39 -390 -107 -219 -77 -252 -93 -359
-174 -135 -101 -250 -254 -292 -389 -28 -90 -34 -206 -16 -307 28 -153 92
-257 215 -349 42 -32 109 -81 147 -110 108 -81 180 -158 267 -286 145 -213
289 -312 489 -333 128 -14 355 34 536 111 60 26 151 61 203 79 134 46 190 69
305 127 208 105 523 338 630 468 131 158 181 410 116 582 -47 123 -177 281
-303 366 -126 86 -316 158 -648 247 -96 26 -200 54 -230 62 -65 18 -562 27
-670 13z m570 -404 c47 -9 157 -34 245 -56 88 -22 171 -40 185 -40 14 0 61
-12 105 -26 222 -72 375 -204 375 -322 0 -25 -13 -66 -37 -113 -67 -133 -279
-322 -482 -427 -109 -57 -264 -116 -331 -127 -25 -4 -61 -15 -80 -25 -74 -37
-238 -93 -312 -106 -149 -26 -242 15 -344 153 -82 111 -283 306 -397 387 -145
102 -180 153 -179 259 0 97 61 194 166 266 76 52 399 161 536 180 41 6 86 13
100 15 53 10 369 -4 450 -18z"/>
<path d="M410 2207 c-27 -21 -50 -60 -50 -86 0 -36 67 -215 114 -306 47 -91
165 -219 231 -251 57 -27 173 -27 211 2 74 55 93 143 54 247 -49 130 -167 243
-358 346 -117 63 -168 75 -202 48z"/>
<path d="M4691 1725 c-19 -8 -39 -23 -46 -31 -9 -13 -16 -14 -33 -5 -29 16
-98 14 -132 -4 -16 -8 -39 -29 -51 -46 -19 -27 -22 -44 -21 -106 2 -83 38
-244 72 -315 41 -88 112 -128 197 -115 112 19 196 191 209 432 5 89 3 104 -15
132 -40 63 -115 87 -180 58z"/>
</g>
</svg>
