<?xml version="1.0" standalone="no"?>
<!DOCTYPE svg PUBLIC "-//W3C//DTD SVG 20010904//EN"
 "http://www.w3.org/TR/2001/REC-SVG-20010904/DTD/svg10.dtd">
<svg version="1.0" xmlns="http://www.w3.org/2000/svg"
 width="600.000000pt" height="600.000000pt" viewBox="0 0 600.000000 600.000000"
 preserveAspectRatio="xMidYMid meet">
<metadata>
Created by potrace 1.15, written by Peter Selinger 2001-2017
</metadata>
<g transform="translate(0.000000,600.000000) scale(0.100000,-0.100000)"
fill="#16364b" stroke="none">
<path d="M2068 5197 c-121 -45 -218 -179 -220 -304 0 -32 7 -122 16 -199 16
-129 16 -207 7 -865 -7 -469 -7 -756 -1 -814 11 -101 11 -228 1 -265 -5 -20
-40 -40 -191 -111 -102 -47 -243 -110 -314 -138 l-129 -53 -24 27 c-20 21 -28
24 -39 14 -13 -10 -12 -15 1 -35 18 -28 11 -30 -38 -9 -20 8 -43 15 -52 15
-23 0 -18 -34 10 -60 l26 -24 -38 -11 c-51 -14 -49 -36 6 -50 l44 -11 -26 -17
c-30 -20 -34 -35 -11 -44 16 -6 151 30 194 52 14 7 93 41 175 75 83 35 193 84
245 110 52 26 106 51 118 55 l24 7 -7 -84 c-8 -94 8 -315 32 -458 52 -315 230
-611 423 -707 61 -31 134 -53 222 -67 l37 -7 -6 -127 c-6 -151 14 -292 73
-495 20 -70 34 -130 31 -133 -3 -4 -37 -8 -74 -11 -107 -6 -130 -12 -162 -39
-36 -30 -47 -74 -31 -115 48 -115 341 -58 419 80 29 54 27 101 -14 220 -41
124 -82 300 -90 396 -7 74 7 201 24 218 6 6 26 5 58 -2 86 -19 539 -43 741
-40 l192 4 -6 -28 c-14 -67 -20 -189 -12 -272 12 -117 30 -194 74 -311 19 -53
33 -98 30 -102 -3 -3 -43 -7 -88 -9 -110 -5 -120 -8 -151 -39 -19 -19 -27 -37
-27 -61 0 -75 47 -107 155 -106 137 3 250 70 276 165 10 39 7 53 -34 183 -67
207 -72 233 -72 405 0 181 6 200 63 200 65 0 367 39 415 54 146 44 265 180
332 381 32 96 45 195 45 345 0 186 -25 293 -104 456 -44 89 -70 127 -129 190
-41 43 -100 99 -131 124 -30 25 -55 48 -56 51 0 3 65 3 144 1 86 -3 184 1 242
8 55 7 127 14 162 16 107 5 234 63 192 89 -5 3 -6 13 -3 22 4 9 -1 21 -10 27
-8 7 -15 21 -14 32 2 21 -11 22 -70 9 -29 -7 -33 -5 -33 14 0 33 -38 28 -42
-6 -3 -26 -8 -28 -73 -39 -133 -22 -271 -26 -490 -14 l-219 13 -126 101 c-179
146 -291 223 -588 406 -153 94 -256 174 -326 251 -119 131 -257 344 -317 488
-29 69 -42 119 -109 401 -29 126 -81 276 -122 352 -42 78 -133 169 -205 205
-68 32 -166 41 -225 20z m167 -166 c59 -26 128 -109 164 -195 17 -41 31 -81
31 -89 0 -8 9 -34 19 -58 11 -24 33 -109 50 -189 48 -227 66 -283 135 -420
104 -207 224 -380 347 -501 96 -95 156 -138 386 -277 206 -124 289 -182 476
-332 72 -58 174 -138 226 -179 168 -130 288 -239 336 -304 57 -77 131 -242
152 -340 21 -100 13 -322 -17 -431 -49 -181 -134 -286 -258 -315 -26 -6 -179
-25 -341 -41 -343 -35 -653 -39 -951 -14 -96 8 -240 19 -320 24 -170 10 -249
31 -338 90 -137 92 -246 287 -299 540 -21 97 -25 144 -26 300 0 114 6 238 16
325 21 179 22 216 13 470 -4 116 -8 523 -10 905 -2 619 -4 705 -20 786 -14 72
-15 100 -7 131 30 111 133 161 236 114z"/>
<path d="M2647 2792 c-25 -28 -20 -57 14 -86 37 -31 53 -32 79 -6 25 25 26 72
2 93 -25 22 -75 21 -95 -1z"/>
<path d="M3100 2690 c-33 -33 -24 -72 21 -96 44 -22 89 10 89 64 0 47 -73 69
-110 32z"/>
<path d="M2935 1823 c-23 -22 -18 -49 12 -73 22 -17 38 -20 87 -18 54 3 62 6
76 30 14 26 13 29 -5 47 -27 25 -149 36 -170 14z"/>
<path d="M5278 3980 c-72 -13 -152 -53 -180 -91 -52 -69 -62 -100 -62 -184 0
-144 64 -281 159 -340 43 -27 57 -30 129 -30 70 0 90 4 146 31 87 42 153 102
187 172 23 47 28 70 28 132 0 127 -53 213 -172 280 -64 36 -145 47 -235 30z
m81 -301 c36 -13 38 -20 11 -44 -31 -28 -71 1 -56 40 6 18 5 18 45 4z"/>
</g>
</svg>
