<?xml version="1.0" standalone="no"?>
<!DOCTYPE svg PUBLIC "-//W3C//DTD SVG 20010904//EN"
 "http://www.w3.org/TR/2001/REC-SVG-20010904/DTD/svg10.dtd">
<svg version="1.0" xmlns="http://www.w3.org/2000/svg"
 width="600.000000pt" height="600.000000pt" viewBox="0 0 600.000000 600.000000"
 preserveAspectRatio="xMidYMid meet">
<metadata>
Created by potrace 1.15, written by Peter Selinger 2001-2017
</metadata>
<g transform="translate(0.000000,600.000000) scale(0.100000,-0.100000)"
fill="#16364b" stroke="none">
<path d="M1865 5826 c-47 -21 -61 -42 -121 -187 -31 -74 -88 -201 -126 -284
-105 -224 -123 -284 -106 -357 20 -92 91 -143 190 -136 124 9 367 169 615 405
82 78 102 123 84 191 -12 42 -61 95 -104 111 -69 26 -124 4 -228 -91 -40 -37
-75 -66 -77 -63 -2 2 14 51 37 108 45 114 52 174 25 230 -32 66 -125 103 -189
73z"/>
<path d="M3015 5682 c-68 -32 -102 -106 -83 -181 13 -50 20 -56 153 -131 187
-106 287 -187 375 -305 71 -95 126 -217 114 -250 -7 -17 -57 -35 -96 -35 -73
0 -128 -57 -128 -134 0 -96 66 -156 173 -156 130 0 285 85 336 184 51 100 38
221 -43 392 -124 262 -266 400 -577 563 -135 71 -169 78 -224 53z"/>
<path d="M960 5429 c-82 -16 -190 -77 -261 -148 -183 -183 -184 -428 -2 -617
90 -94 147 -129 210 -129 64 0 99 23 132 88 19 38 22 56 17 92 -7 46 -27 72
-106 134 -77 62 -88 138 -29 206 31 35 57 46 152 65 124 25 178 151 106 251
-42 59 -115 78 -219 58z"/>
<path d="M2905 5131 c-76 -19 -159 -92 -197 -176 -32 -70 -33 -202 -1 -260 30
-56 80 -101 132 -120 84 -29 268 -10 331 35 15 11 35 38 44 60 15 38 15 47 -4
143 -37 187 -79 263 -164 303 -52 24 -87 28 -141 15z"/>
<path d="M4785 4907 c-47 -22 -93 -74 -101 -114 -11 -57 3 -231 26 -318 57
-223 185 -357 343 -358 74 0 120 18 177 70 102 91 116 253 35 412 -29 58 -130
170 -189 211 -68 46 -185 102 -224 106 -20 2 -51 -2 -67 -9z"/>
<path d="M1970 4788 c-36 -13 -86 -36 -113 -51 -106 -63 -116 -199 -18 -264
43 -29 110 -30 166 -3 22 11 45 19 52 20 19 0 32 -32 39 -95 4 -31 16 -71 28
-88 24 -36 97 -77 136 -77 36 0 110 40 134 72 24 34 32 114 17 192 -44 235
-238 365 -441 294z"/>
<path d="M2965 4029 c-128 -19 -212 -82 -250 -188 -19 -55 -19 -84 1 -150 30
-103 145 -183 309 -217 103 -21 354 -16 400 8 54 29 77 63 83 120 3 30 14 64
25 79 30 42 34 109 8 162 -26 53 -44 66 -153 113 -148 63 -304 90 -423 73z"/>
<path d="M1145 3999 c-215 -28 -280 -76 -280 -210 0 -57 4 -71 28 -103 49 -64
97 -88 172 -88 36 0 65 -1 65 -3 0 -2 -52 -75 -115 -162 -249 -341 -284 -391
-330 -461 -88 -137 -142 -289 -130 -363 10 -56 58 -125 104 -149 82 -41 177
-18 242 59 19 21 104 85 189 142 184 122 282 194 410 304 149 127 192 158 202
142 11 -21 -8 -171 -37 -280 -51 -198 -135 -369 -323 -658 -153 -236 -162
-254 -162 -309 1 -122 126 -201 220 -138 38 26 55 49 205 283 145 224 242 418
299 597 118 369 147 629 83 759 -48 98 -139 135 -258 105 -83 -22 -263 -123
-336 -189 -43 -38 -23 0 43 84 146 185 184 263 184 377 0 121 -73 224 -181
256 -58 17 -179 19 -294 5z"/>
<path d="M4222 3775 c-139 -39 -253 -132 -288 -237 -49 -144 12 -299 148 -374
45 -25 64 -29 128 -29 60 0 86 5 130 26 117 55 220 181 292 357 56 137 45 198
-47 246 -52 27 -282 34 -363 11z m58 -304 c0 -12 -40 -41 -57 -41 -22 0 -14
19 15 34 32 18 42 19 42 7z"/>
<path d="M3421 3405 c-76 -24 -148 -111 -206 -247 -50 -122 -30 -202 65 -250
46 -24 66 -28 134 -28 98 0 145 19 198 78 41 46 78 147 78 216 0 110 -62 208
-146 234 -51 15 -67 14 -123 -3z"/>
<path d="M4955 3073 c-49 -26 -137 -97 -183 -147 -125 -136 -141 -363 -33
-479 99 -107 278 -94 399 31 142 146 163 391 44 522 -18 19 -32 38 -32 42 0 4
-18 17 -40 28 -47 24 -113 25 -155 3z"/>
<path d="M3931 2606 c-47 -17 -108 -71 -131 -116 -33 -64 -27 -130 25 -276 24
-71 43 -129 41 -131 -1 -1 -26 6 -54 17 -114 43 -227 16 -312 -76 -87 -94
-117 -218 -91 -369 12 -69 136 -447 164 -502 25 -48 93 -100 148 -113 102 -25
198 20 244 114 24 49 27 64 22 123 -3 38 -9 80 -12 95 l-7 27 38 -18 c64 -31
99 -34 161 -16 174 51 278 165 290 319 7 85 -7 145 -82 331 -35 88 -83 225
-108 305 -53 174 -64 198 -117 242 -63 55 -145 71 -219 44z"/>
<path d="M1990 2219 c-73 -29 -177 -136 -247 -253 -63 -107 -71 -144 -45 -221
l20 -59 -38 -43 c-51 -59 -103 -161 -136 -268 -26 -84 -28 -103 -28 -275 -1
-183 -1 -186 30 -273 45 -124 86 -189 189 -292 149 -150 318 -248 479 -276
105 -18 255 -7 351 25 228 78 409 210 490 357 24 44 27 59 23 112 -4 52 -1 68
18 98 111 177 250 550 284 761 27 169 -41 318 -179 389 -60 31 -173 37 -260
14 -65 -17 -281 -110 -432 -186 -45 -22 -82 -39 -83 -37 -2 2 -15 52 -29 112
-42 175 -98 265 -192 311 -59 28 -148 30 -215 4z m990 -604 c0 -3 -16 -56 -36
-118 -46 -143 -99 -277 -165 -413 -52 -110 -60 -149 -46 -215 7 -35 4 -40 -44
-93 -35 -38 -73 -67 -122 -91 -182 -89 -365 -53 -526 105 -113 111 -156 222
-149 389 4 111 35 180 116 262 33 32 62 59 66 59 3 0 6 -9 6 -19 0 -32 47
-161 74 -201 70 -106 224 -125 302 -38 34 37 54 84 54 127 l0 41 103 51 c125
64 338 159 355 159 6 0 12 -2 12 -5z"/>
</g>
</svg>
