<?xml version="1.0" standalone="no"?>
<!DOCTYPE svg PUBLIC "-//W3C//DTD SVG 20010904//EN"
 "http://www.w3.org/TR/2001/REC-SVG-20010904/DTD/svg10.dtd">
<svg version="1.0" xmlns="http://www.w3.org/2000/svg"
 width="600.000000pt" height="600.000000pt" viewBox="0 0 600.000000 600.000000"
 preserveAspectRatio="xMidYMid meet">
<metadata>
Created by potrace 1.15, written by Peter Selinger 2001-2017
</metadata>
<g transform="translate(0.000000,600.000000) scale(0.100000,-0.100000)"
fill="#16364b" stroke="none">
<path d="M3089 5646 c-19 -13 -44 -43 -54 -66 -17 -38 -18 -50 -7 -121 26
-178 119 -292 350 -429 78 -46 142 -87 142 -90 0 -12 -96 -76 -291 -195 -256
-155 -283 -175 -304 -221 -13 -29 -30 -45 -67 -64 -95 -47 -151 -138 -133
-218 10 -47 59 -98 108 -111 64 -18 119 -1 172 54 48 48 74 59 202 79 51 8
102 20 113 26 49 26 73 105 50 164 -9 24 -5 27 73 70 186 101 322 217 373 319
84 165 7 303 -241 436 -211 113 -240 141 -271 264 -22 89 -62 127 -132 127
-34 0 -58 -7 -83 -24z"/>
<path d="M1170 5329 c-199 -100 -317 -292 -361 -589 -23 -157 10 -321 77 -379
83 -74 211 -54 259 39 20 39 19 76 -5 145 -65 190 47 432 247 533 90 46 115
111 73 196 -28 57 -78 89 -148 94 -51 3 -66 -1 -142 -39z"/>
<path d="M1605 5141 c-77 -19 -115 -67 -115 -144 0 -58 18 -96 62 -130 l32
-25 -31 -69 c-56 -122 -66 -194 -38 -274 48 -135 155 -199 333 -199 106 0 152
13 193 56 29 30 34 42 37 97 3 52 0 67 -20 96 -44 64 -70 76 -159 74 -59 -2
-79 0 -79 10 0 7 21 65 47 128 59 144 64 217 21 291 -49 82 -163 118 -283 89z"/>
<path d="M4535 4617 c-75 -34 -110 -116 -81 -190 24 -63 63 -85 175 -96 51 -6
96 -12 98 -15 6 -6 -74 -46 -140 -71 -94 -35 -139 -112 -117 -197 15 -53 56
-93 110 -108 37 -10 52 -9 109 10 310 102 485 294 426 469 -30 90 -126 157
-265 186 -105 22 -279 28 -315 12z"/>
<path d="M1850 4235 c-165 -43 -379 -167 -437 -254 -43 -64 -24 -156 42 -207
30 -22 48 -28 90 -28 48 -1 57 3 104 43 110 92 227 147 345 162 99 13 148 53
167 139 11 47 -7 102 -43 137 -41 39 -137 42 -268 8z"/>
<path d="M3950 3727 c-19 -6 -50 -27 -70 -47 -93 -93 -70 -240 58 -368 142
-142 323 -171 424 -70 44 44 78 114 78 160 0 39 -26 94 -56 117 -15 12 -24 29
-24 46 0 39 -28 92 -61 115 -66 48 -264 74 -349 47z"/>
<path d="M2495 3716 c-106 -24 -227 -76 -262 -113 -76 -80 -46 -206 62 -254
54 -25 73 -24 183 11 59 19 120 32 161 33 l66 2 -1 -46 c-3 -89 -101 -279
-245 -478 -166 -228 -179 -249 -179 -292 0 -38 32 -119 48 -119 4 -1 18 -9 30
-20 l24 -20 -20 -27 c-70 -100 -46 -231 52 -288 70 -41 110 -35 267 40 135 66
268 117 281 108 9 -5 -7 -46 -117 -298 -84 -191 -87 -201 -83 -261 7 -105 72
-168 178 -168 66 -1 137 36 168 86 40 65 201 390 226 456 101 266 60 456 -118
550 -48 26 -58 27 -191 27 -149 0 -214 -14 -344 -71 -30 -13 -56 -22 -58 -20
-3 2 36 62 86 134 155 221 227 371 277 578 55 226 10 359 -146 433 -48 22 -70
26 -170 28 -70 1 -139 -3 -175 -11z"/>
<path d="M1120 3530 c-66 -23 -161 -73 -250 -132 -88 -58 -112 -101 -108 -190
3 -55 9 -75 34 -110 57 -81 148 -109 227 -69 20 10 37 16 37 12 0 -4 -20 -67
-45 -141 -54 -160 -167 -545 -189 -647 -47 -211 3 -305 179 -334 111 -18 137
-7 240 104 48 50 137 162 198 247 61 85 136 186 166 224 143 177 163 201 173
205 19 7 2 -195 -30 -359 -17 -85 -54 -256 -83 -380 -42 -182 -52 -243 -53
-320 -1 -84 2 -100 24 -139 43 -75 136 -103 217 -64 56 26 73 64 73 161 0 65
10 126 46 275 126 523 137 613 115 978 -10 157 -23 204 -69 252 -40 42 -75 57
-134 57 -72 -1 -122 -25 -203 -101 -76 -71 -240 -258 -318 -362 -27 -37 -52
-66 -54 -64 -4 5 40 147 102 327 58 170 85 280 85 350 0 98 -60 190 -147 227
-47 19 -168 16 -233 -7z"/>
<path d="M3640 3265 c-113 -32 -198 -103 -250 -209 -41 -83 -56 -165 -41 -215
15 -52 77 -107 129 -116 51 -8 120 20 150 62 19 27 28 31 89 36 127 10 239 70
269 144 8 18 14 54 14 80 0 157 -182 267 -360 218z"/>
<path d="M4642 3139 c-50 -25 -74 -64 -74 -123 0 -57 11 -80 89 -173 37 -44
77 -97 87 -117 l19 -37 -30 -32 c-56 -59 -67 -110 -38 -167 53 -102 194 -102
295 -1 101 101 107 253 17 406 -35 59 -48 76 -127 165 -91 102 -151 122 -238
79z"/>
<path d="M4470 2290 c-107 -50 -158 -141 -139 -246 6 -31 8 -58 6 -60 -3 -3
-36 3 -73 12 -91 22 -318 30 -381 15 -160 -41 -281 -164 -319 -327 -13 -56
-15 -110 -12 -294 4 -206 6 -229 27 -275 41 -93 113 -144 214 -152 96 -8 175
36 219 121 23 45 25 101 12 334 l-6 124 48 -7 c27 -4 74 -12 104 -18 30 -7
111 -12 180 -11 353 3 492 145 459 465 -18 183 -48 251 -131 306 -55 37 -144
42 -208 13z"/>
<path d="M2165 1813 c-36 -19 -83 -61 -97 -88 -22 -40 -26 -88 -17 -240 13
-235 40 -378 100 -520 62 -151 141 -225 348 -327 142 -71 210 -84 272 -53 73
37 109 88 109 155 0 22 2 40 6 40 3 0 58 -36 124 -79 150 -100 210 -124 315
-124 90 -1 168 25 255 84 74 50 95 89 95 174 0 63 -3 76 -28 108 -62 82 -174
102 -260 47 -26 -16 -53 -30 -59 -30 -19 0 -260 160 -323 215 -33 29 -99 82
-148 118 -119 90 -182 106 -268 68 -46 -21 -88 -59 -109 -101 l-13 -24 -10 24
c-5 14 -12 118 -16 232 l-6 207 -31 43 c-40 57 -95 88 -159 87 -27 0 -63 -7
-80 -16z"/>
</g>
</svg>
