<?xml version="1.0" standalone="no"?>
<!DOCTYPE svg PUBLIC "-//W3C//DTD SVG 20010904//EN"
 "http://www.w3.org/TR/2001/REC-SVG-20010904/DTD/svg10.dtd">
<svg version="1.0" xmlns="http://www.w3.org/2000/svg"
 width="600.000000pt" height="600.000000pt" viewBox="0 0 600.000000 600.000000"
 preserveAspectRatio="xMidYMid meet">
<metadata>
Created by potrace 1.15, written by Peter Selinger 2001-2017
</metadata>
<g transform="translate(0.000000,600.000000) scale(0.100000,-0.100000)"
fill="#16364b" stroke="none">
<path d="M2363 5406 l-28 -24 3 -139 c9 -377 -81 -614 -271 -713 -34 -18 -72
-42 -84 -53 -30 -27 -31 -85 -2 -116 29 -31 73 -24 164 25 234 130 343 385
348 813 l2 183 -28 24 c-36 30 -68 31 -104 0z"/>
<path d="M3514 5293 c-28 -28 -46 -82 -38 -117 11 -55 66 -146 113 -188 93
-83 189 -102 242 -49 21 21 29 39 29 64 0 79 -121 250 -205 288 -52 24 -118
25 -141 2z"/>
<path d="M3007 5108 c-51 -14 -135 -92 -163 -153 -31 -66 -33 -154 -3 -202 70
-112 260 -66 334 82 39 77 46 174 17 221 -35 56 -101 74 -185 52z m43 -168 c0
-21 -31 -70 -50 -80 -29 -16 -26 15 6 57 25 33 44 43 44 23z"/>
<path d="M4728 4751 c-28 -24 -32 -36 -36 -90 -6 -80 15 -264 39 -353 47 -169
118 -248 222 -248 53 0 102 30 131 80 17 28 21 52 21 120 -1 159 -71 324 -190
447 -65 68 -73 73 -112 73 -33 0 -50 -7 -75 -29z"/>
<path d="M2678 4216 c-58 -21 -86 -43 -108 -86 -69 -135 53 -280 248 -297 121
-10 267 39 331 113 26 29 31 43 31 84 0 74 -36 110 -143 143 -184 58 -284 70
-359 43z"/>
<path d="M1130 4145 c-14 -7 -32 -26 -39 -42 -7 -15 -20 -40 -27 -55 -21 -40
-18 -154 7 -208 25 -56 44 -77 91 -101 44 -23 91 -24 146 -5 159 56 204 219
90 321 -48 44 -174 105 -215 105 -15 -1 -39 -7 -53 -15z"/>
<path d="M5283 3935 c-134 -24 -230 -102 -268 -216 -25 -75 -17 -185 20 -266
60 -134 177 -196 327 -172 132 21 226 87 280 197 29 59 33 76 33 152 0 71 -4
94 -26 141 -32 67 -81 116 -151 152 -60 30 -102 33 -215 12z m83 -305 c19 0
18 -19 -3 -42 -22 -25 -49 -23 -56 4 -7 26 10 51 30 43 8 -3 21 -5 29 -5z"/>
<path d="M4163 3749 c-165 -65 -261 -266 -196 -409 46 -102 132 -153 265 -158
76 -4 94 -1 142 21 77 36 138 95 171 168 22 50 28 81 32 163 5 94 3 103 -18
136 -15 22 -47 46 -84 65 -52 26 -72 30 -160 32 -82 3 -109 -1 -152 -18z m127
-258 c0 -5 -12 -19 -27 -31 -34 -26 -56 -11 -28 20 18 20 55 28 55 11z"/>
<path d="M3404 3325 c-44 -48 -154 -251 -154 -286 0 -11 13 -34 29 -50 31 -31
68 -37 114 -20 74 28 175 188 184 292 5 52 3 60 -20 83 -20 20 -36 26 -68 26
-38 0 -48 -5 -85 -45z"/>
<path d="M1460 3264 c-401 -19 -510 -46 -626 -155 -89 -85 -137 -229 -116
-348 17 -95 57 -168 136 -247 102 -102 201 -148 376 -175 103 -15 168 -42 214
-86 78 -76 104 -134 191 -423 71 -237 140 -381 222 -466 135 -141 333 -230
594 -269 127 -18 630 -21 804 -5 60 6 225 15 365 20 274 10 360 21 570 74 236
60 379 127 531 252 393 321 496 858 234 1214 -86 116 -235 236 -355 285 -269
109 -538 54 -913 -187 -164 -105 -234 -135 -350 -150 -218 -27 -398 39 -712
263 -342 243 -456 308 -620 353 -155 42 -342 59 -545 50z m320 -414 c87 -14
217 -53 280 -85 25 -13 156 -98 293 -189 274 -183 491 -298 641 -341 104 -30
261 -49 320 -40 164 26 331 94 547 225 362 219 537 235 726 65 103 -93 143
-206 123 -357 -12 -95 -40 -172 -93 -251 -97 -143 -356 -295 -599 -351 -156
-36 -522 -51 -1198 -51 -441 1 -478 4 -570 50 -112 56 -168 160 -289 530 -55
169 -94 273 -122 320 -106 183 -295 304 -532 341 -108 17 -166 40 -191 75 -19
28 -10 48 28 65 25 12 82 14 296 10 146 -2 299 -10 340 -16z"/>
<path d="M451 2076 c-26 -15 -50 -51 -51 -79 0 -10 10 -28 23 -40 13 -12 38
-46 56 -75 67 -105 201 -197 289 -197 35 0 48 5 68 28 34 40 39 71 20 121 -32
84 -127 159 -278 221 -94 39 -94 39 -127 21z"/>
<path d="M5254 1189 c-70 -35 -92 -63 -100 -123 -19 -136 87 -238 187 -179 38
23 68 95 75 186 6 71 6 75 -22 104 -42 45 -70 48 -140 12z"/>
</g>
</svg>
