<?xml version="1.0" standalone="no"?>
<!DOCTYPE svg PUBLIC "-//W3C//DTD SVG 20010904//EN"
 "http://www.w3.org/TR/2001/REC-SVG-20010904/DTD/svg10.dtd">
<svg version="1.0" xmlns="http://www.w3.org/2000/svg"
 width="600.000000pt" height="600.000000pt" viewBox="0 0 600.000000 600.000000"
 preserveAspectRatio="xMidYMid meet">
<metadata>
Created by potrace 1.15, written by Peter Selinger 2001-2017
</metadata>
<g transform="translate(0.000000,600.000000) scale(0.100000,-0.100000)"
fill="#16364b" stroke="none">
<path d="M2010 5021 c-84 -18 -175 -92 -206 -168 -33 -77 -36 -135 -14 -239
34 -165 59 -380 71 -620 13 -263 5 -1080 -13 -1294 l-11 -135 -47 -65 c-49
-69 -114 -167 -225 -345 -90 -143 -114 -175 -132 -175 -11 0 -13 -7 -9 -25 5
-20 3 -25 -13 -25 -29 0 -36 -18 -16 -40 15 -16 15 -22 5 -35 -21 -25 -5 -48
30 -40 29 6 30 6 24 -24 -5 -25 -3 -31 10 -31 20 0 128 99 121 111 -3 4 5 23
17 41 13 19 68 109 122 200 55 92 103 165 106 163 4 -2 10 -42 13 -87 12 -178
87 -459 164 -618 37 -77 60 -109 123 -172 98 -99 198 -150 340 -174 52 -9 96
-17 97 -18 1 -1 -3 -22 -9 -46 -26 -112 13 -375 86 -589 31 -88 32 -111 9
-111 -188 -5 -231 -18 -253 -71 -9 -21 -9 -34 2 -55 24 -49 62 -68 141 -72
125 -7 227 32 276 104 38 54 37 97 -2 205 -91 251 -125 455 -96 589 l11 51
106 -6 c59 -3 177 -11 262 -16 341 -23 403 -26 501 -21 l101 5 -8 -24 c-4 -13
-7 -85 -7 -159 1 -155 17 -245 70 -389 19 -53 37 -104 40 -114 5 -15 -4 -17
-83 -17 -102 0 -151 -18 -172 -63 -18 -37 0 -90 41 -121 56 -42 242 -20 319
37 30 22 68 91 68 124 0 11 -20 80 -45 154 -24 74 -51 175 -60 224 -17 97 -21
281 -7 330 10 35 15 37 200 60 271 34 367 70 478 180 85 83 133 167 169 290
33 117 44 225 34 355 -10 129 -28 201 -79 308 -53 111 -117 198 -203 278 -40
36 -63 63 -52 60 227 -58 335 -91 335 -102 0 -16 34 -18 118 -7 53 6 54 7 48
34 -3 16 -2 31 3 33 10 7 8 57 -3 74 -4 7 -20 12 -36 12 -39 0 -60 9 -60 26 0
20 -30 30 -40 14 -6 -10 -33 -6 -126 19 -140 37 -356 82 -507 107 -94 15 -117
23 -170 57 -34 22 -149 91 -257 154 -522 307 -733 479 -878 713 -136 218 -281
536 -409 894 -51 143 -126 236 -227 282 -58 26 -134 36 -186 25z m139 -172
c19 -11 43 -30 53 -42 22 -26 88 -156 88 -174 0 -8 11 -35 24 -61 14 -26 43
-93 65 -149 99 -250 239 -538 350 -718 71 -116 203 -248 381 -381 199 -149
308 -221 475 -317 83 -47 193 -115 245 -150 52 -36 163 -106 245 -157 249
-155 322 -214 395 -326 61 -94 97 -192 111 -307 32 -263 -63 -528 -225 -621
-48 -29 -184 -57 -421 -87 -206 -27 -471 -31 -810 -10 -126 7 -305 13 -397 12
-195 -1 -287 13 -379 60 -152 76 -247 232 -318 520 -41 170 -51 369 -32 662
23 334 34 977 22 1272 -17 409 -33 566 -82 785 -7 31 -9 72 -5 92 7 41 48 95
80 108 38 16 100 11 135 -11z m-659 -2969 c0 -5 -2 -10 -4 -10 -3 0 -8 5 -11
10 -3 6 -1 10 4 10 6 0 11 -4 11 -10z"/>
<path d="M2610 2730 c-11 -11 -20 -29 -20 -40 0 -31 44 -70 79 -70 35 0 51 22
51 69 0 55 -70 81 -110 41z"/>
<path d="M3095 2613 c-52 -13 -62 -68 -19 -102 34 -27 58 -27 84 1 48 52 5
118 -65 101z"/>
<path d="M5201 3979 c-216 -86 -256 -377 -76 -552 61 -60 118 -82 210 -82 71
0 89 4 145 32 126 62 199 162 208 284 3 52 0 75 -16 112 -28 63 -91 128 -172
177 -63 38 -74 42 -157 46 -74 4 -97 1 -142 -17z m175 -284 c19 -15 19 -15 0
-30 -37 -28 -66 -14 -66 31 0 19 41 18 66 -1z"/>
<path d="M5372 1120 c-18 -4 -42 -16 -53 -25 -20 -19 -59 -130 -59 -171 0 -44
31 -104 62 -120 81 -42 154 38 172 187 9 74 0 106 -35 124 -31 16 -38 17 -87
5z"/>
</g>
</svg>
