<?xml version="1.0" standalone="no"?>
<!DOCTYPE svg PUBLIC "-//W3C//DTD SVG 20010904//EN"
 "http://www.w3.org/TR/2001/REC-SVG-20010904/DTD/svg10.dtd">
<svg version="1.0" xmlns="http://www.w3.org/2000/svg"
 width="600.000000pt" height="600.000000pt" viewBox="0 0 600.000000 600.000000"
 preserveAspectRatio="xMidYMid meet">
<metadata>
Created by potrace 1.15, written by Peter Selinger 2001-2017
</metadata>
<g transform="translate(0.000000,600.000000) scale(0.100000,-0.100000)"
fill="#16364b" stroke="none">
<path d="M1979 5797 c-19 -13 -74 -80 -124 -153 -49 -72 -139 -201 -198 -287
-139 -201 -161 -248 -155 -333 5 -76 25 -109 89 -142 79 -41 142 -23 399 117
69 38 175 94 235 126 206 109 246 143 261 223 9 48 -20 117 -64 150 -29 22
-46 27 -91 27 -52 0 -64 -5 -163 -67 -58 -38 -109 -68 -112 -68 -4 0 27 49 68
109 98 144 108 183 66 260 -32 61 -146 82 -211 38z"/>
<path d="M3046 5690 c-60 -19 -106 -85 -106 -153 0 -35 33 -94 60 -108 8 -5
70 -35 138 -68 138 -68 186 -99 265 -171 69 -63 113 -131 138 -212 27 -90 25
-121 -12 -163 -25 -28 -48 -40 -114 -60 -93 -29 -129 -57 -146 -115 -29 -97
39 -190 138 -190 49 0 160 40 229 82 75 45 149 122 181 186 89 181 -12 488
-229 698 -88 86 -184 149 -332 219 -119 57 -165 69 -210 55z"/>
<path d="M939 5376 c-112 -31 -234 -128 -283 -224 -80 -159 -75 -354 14 -491
46 -73 161 -178 208 -190 68 -19 138 13 172 79 40 79 19 158 -60 214 -78 56
-108 143 -76 221 18 42 59 69 148 96 103 32 152 102 133 188 -8 38 -47 87 -86
106 -34 18 -107 18 -170 1z"/>
<path d="M2784 5021 c-151 -69 -225 -302 -146 -458 30 -57 100 -117 163 -139
74 -25 213 -24 266 2 55 28 83 75 83 142 0 52 -3 58 -42 96 l-43 41 23 45 c46
89 10 189 -92 258 -42 27 -57 32 -110 32 -38 0 -77 -8 -102 -19z"/>
<path d="M4784 4914 c-17 -8 -48 -32 -68 -53 -31 -32 -39 -48 -46 -102 -6 -40
-6 -97 0 -150 30 -269 165 -441 355 -457 92 -7 148 12 206 67 111 108 102 301
-23 488 -58 86 -124 142 -223 189 -78 38 -148 44 -201 18z"/>
<path d="M1964 4690 c-101 -15 -236 -97 -267 -163 -48 -101 8 -211 119 -232
35 -6 72 8 156 57 41 25 61 17 73 -30 29 -118 159 -167 253 -95 74 56 91 133
52 237 -57 150 -226 249 -386 226z"/>
<path d="M2997 3968 c-116 -15 -217 -91 -277 -208 -74 -146 -60 -280 41 -379
113 -110 332 -181 420 -136 91 47 91 191 0 250 -20 13 -63 31 -96 39 -67 17
-99 46 -89 80 14 48 29 51 176 29 44 -6 118 25 141 60 56 85 10 197 -98 242
-54 22 -148 32 -218 23z"/>
<path d="M1100 3910 c-119 -28 -153 -38 -187 -59 -86 -53 -99 -210 -24 -295
31 -35 90 -58 142 -54 27 1 49 -1 49 -6 0 -4 -44 -72 -98 -150 -153 -220 -213
-329 -310 -562 -85 -202 -94 -252 -57 -324 18 -35 65 -80 95 -92 97 -39 158
-27 238 47 98 88 280 237 449 363 89 67 195 151 236 187 42 36 78 65 81 65 10
0 7 -106 -5 -162 -26 -129 -50 -192 -200 -531 -116 -262 -131 -292 -213 -426
-42 -70 -51 -93 -51 -132 0 -81 59 -140 147 -146 113 -9 152 49 401 587 201
437 248 602 251 880 1 148 0 158 -25 211 -30 63 -74 101 -134 118 -115 31
-225 -17 -427 -187 -61 -51 -113 -91 -115 -88 -2 2 25 53 60 112 148 249 187
340 187 428 -1 100 -68 186 -171 219 -68 22 -220 21 -319 -3z"/>
<path d="M4315 3804 c-230 -35 -339 -98 -386 -224 -28 -73 -23 -204 8 -265 29
-55 88 -109 148 -137 69 -32 186 -31 267 1 72 28 156 103 203 181 47 78 108
263 102 312 -6 49 -42 97 -84 115 -35 14 -202 25 -258 17z m-21 -307 c-8 -21
-62 -49 -69 -36 -8 12 -9 12 30 32 37 20 46 21 39 4z"/>
<path d="M3490 3401 c-104 -32 -174 -123 -235 -306 -21 -63 -24 -82 -16 -113
22 -81 66 -111 172 -118 191 -14 309 98 309 291 0 117 -42 203 -114 236 -43
20 -75 22 -116 10z"/>
<path d="M4931 2978 c-54 -15 -209 -177 -247 -258 -57 -119 -66 -238 -24 -320
114 -222 463 -115 541 167 23 82 24 140 4 218 -13 50 -26 70 -76 121 -77 78
-122 94 -198 72z"/>
<path d="M4002 2529 c-73 -36 -122 -120 -122 -207 0 -27 14 -102 31 -166 17
-65 28 -120 25 -123 -3 -3 -36 7 -73 22 -91 38 -207 41 -269 8 -57 -30 -119
-104 -145 -172 -33 -87 -23 -230 30 -431 89 -340 111 -388 203 -434 92 -46
195 -31 266 37 85 81 97 177 39 317 -19 47 -33 87 -31 89 2 3 17 -7 32 -21 51
-48 91 -63 172 -62 128 0 245 69 293 173 33 72 30 263 -7 440 -28 136 -96 373
-121 421 -19 36 -80 89 -129 111 -57 26 -140 25 -194 -2z"/>
<path d="M2035 2151 c-78 -19 -152 -86 -219 -196 -74 -123 -84 -185 -41 -271
33 -67 87 -99 165 -97 l54 2 -64 -31 c-126 -60 -231 -193 -262 -330 -16 -73
-16 -269 1 -348 30 -142 109 -293 208 -396 148 -156 299 -220 543 -231 216 -9
360 28 504 131 139 99 205 178 206 246 0 106 -96 200 -205 200 -57 0 -107 -24
-178 -87 -40 -35 -97 -76 -127 -91 -48 -24 -67 -27 -150 -27 -82 0 -103 4
-150 26 -170 80 -279 224 -297 389 -7 72 2 125 28 151 31 31 56 24 85 -23 77
-123 170 -198 245 -198 54 0 130 43 161 92 55 84 50 149 -19 229 -43 51 -82
119 -83 146 0 6 15 16 33 23 19 6 103 56 188 111 150 98 247 150 303 165 24 6
27 4 23 -12 -3 -11 -15 -59 -27 -109 -41 -166 -102 -311 -188 -443 -46 -72
-58 -122 -42 -181 42 -159 273 -176 367 -28 37 58 135 257 168 342 72 184 132
447 122 535 -11 94 -29 132 -87 191 -60 60 -106 81 -219 100 -149 24 -292 -21
-543 -170 -85 -50 -157 -91 -160 -91 -3 0 -11 19 -18 43 -35 117 -112 205
-203 232 -54 16 -75 17 -122 6z"/>
</g>
</svg>
