<?xml version="1.0" standalone="no"?>
<!DOCTYPE svg PUBLIC "-//W3C//DTD SVG 20010904//EN"
 "http://www.w3.org/TR/2001/REC-SVG-20010904/DTD/svg10.dtd">
<svg version="1.0" xmlns="http://www.w3.org/2000/svg"
 width="600.000000pt" height="600.000000pt" viewBox="0 0 600.000000 600.000000"
 preserveAspectRatio="xMidYMid meet">
<metadata>
Created by potrace 1.15, written by Peter Selinger 2001-2017
</metadata>
<g transform="translate(0.000000,600.000000) scale(0.100000,-0.100000)"
fill="#16364b" stroke="none">
<path d="M1747 5771 c-42 -28 -56 -53 -99 -180 -119 -355 -157 -538 -129 -624
14 -42 62 -94 100 -109 41 -15 117 -11 163 10 101 45 276 205 429 392 103 126
111 140 112 199 1 87 -57 151 -138 151 -62 0 -96 -26 -190 -143 -48 -60 -89
-106 -92 -103 -3 2 11 57 31 122 20 64 36 134 36 156 0 50 -30 108 -68 131
-40 23 -119 22 -155 -2z"/>
<path d="M3042 5661 c-67 -43 -97 -133 -65 -198 20 -41 55 -70 189 -153 184
-115 339 -252 417 -370 20 -30 38 -66 39 -79 3 -23 0 -24 -62 -25 -50 -1 -72
-6 -96 -23 -45 -32 -67 -85 -61 -142 10 -91 100 -135 239 -116 118 16 203 67
242 143 47 95 41 177 -23 307 -81 164 -235 323 -519 538 -155 117 -177 130
-220 134 -35 3 -55 -1 -80 -16z"/>
<path d="M899 5426 c-152 -53 -273 -169 -318 -304 -64 -188 32 -425 206 -515
85 -44 201 14 219 108 12 68 -3 106 -68 166 -55 51 -61 60 -65 105 -4 40 0 56
19 84 39 57 82 80 152 80 82 0 124 23 155 83 27 55 24 95 -12 147 -50 74 -161
91 -288 46z"/>
<path d="M2924 5167 c-154 -74 -234 -266 -161 -389 68 -117 197 -153 364 -103
101 30 143 88 143 197 0 125 -47 233 -122 283 -61 41 -152 46 -224 12z"/>
<path d="M4775 4876 c-45 -20 -94 -75 -101 -114 -11 -55 4 -242 25 -325 48
-184 141 -286 291 -316 60 -12 138 -3 187 23 171 88 161 335 -22 543 -74 84
-271 204 -333 203 -9 -1 -30 -7 -47 -14z"/>
<path d="M2053 4849 c-98 -19 -174 -67 -199 -126 -55 -129 62 -241 191 -184
26 11 60 21 76 21 27 0 29 -3 29 -37 0 -77 64 -133 149 -133 58 0 104 22 137
66 25 33 29 45 27 98 -3 140 -98 252 -248 291 -64 16 -97 17 -162 4z"/>
<path d="M1180 4084 c-14 -2 -59 -9 -100 -15 -102 -15 -151 -44 -184 -111 -33
-66 -33 -110 0 -176 19 -38 38 -59 71 -79 41 -23 51 -25 119 -20 l75 6 -17
-27 c-10 -15 -48 -65 -84 -112 -78 -99 -363 -490 -438 -601 -29 -42 -59 -92
-67 -112 -31 -74 -12 -158 50 -219 73 -74 210 -59 332 35 33 25 181 127 328
226 l269 180 28 -20 c76 -54 38 -264 -99 -549 -99 -207 -191 -328 -380 -503
-69 -63 -53 -182 30 -232 43 -25 118 -23 159 6 113 78 240 215 338 364 65 100
250 470 285 573 18 52 29 107 32 170 5 79 9 94 25 103 11 6 29 31 40 56 18 41
19 58 13 182 -3 75 -13 159 -20 186 -23 84 -106 145 -194 145 -78 0 -152 -35
-316 -150 -102 -72 -110 -77 -100 -59 5 8 27 39 50 69 61 81 160 229 183 276
25 50 45 154 36 191 -20 84 -88 159 -174 193 -41 17 -81 23 -160 25 -58 2
-116 2 -130 -1z"/>
<path d="M2847 4060 c-123 -39 -187 -111 -187 -210 0 -104 96 -195 247 -236
132 -35 581 -11 643 34 83 62 92 171 19 239 -29 26 -208 112 -299 143 -157 53
-316 65 -423 30z"/>
<path d="M4158 3761 c-75 -24 -118 -52 -172 -112 -57 -64 -80 -130 -74 -213 6
-73 32 -128 85 -177 66 -64 115 -82 218 -83 204 -2 332 102 406 326 34 106 33
150 -8 199 -35 41 -66 55 -150 68 -107 16 -238 13 -305 -8z m97 -281 c-18 -20
-55 -28 -55 -12 0 10 38 30 59 31 11 1 10 -4 -4 -19z"/>
<path d="M3395 3396 c-48 -21 -93 -80 -151 -199 -58 -118 -64 -152 -36 -207
29 -58 73 -80 159 -80 87 0 131 19 186 79 58 64 80 116 85 202 4 62 1 82 -16
115 -45 88 -142 127 -227 90z"/>
<path d="M4970 3164 c-159 -120 -265 -316 -245 -454 45 -307 388 -308 544 -2
25 49 51 152 51 203 0 71 -37 162 -87 219 -59 65 -88 80 -152 80 -43 0 -57 -6
-111 -46z"/>
<path d="M3918 2606 c-93 -25 -153 -97 -165 -195 -4 -39 3 -73 36 -180 23 -73
40 -135 38 -137 -2 -2 -23 3 -47 11 -60 21 -152 19 -199 -4 -54 -28 -106 -90
-126 -151 -37 -110 3 -359 101 -629 50 -138 84 -189 153 -223 98 -50 199 -32
272 49 40 44 63 120 53 171 l-6 28 66 -4 c118 -8 233 54 293 155 22 37 28 62
31 130 6 107 -4 155 -87 419 -38 121 -85 272 -105 337 -40 127 -70 173 -135
207 -51 25 -117 32 -173 16z"/>
<path d="M2030 2321 c-50 -16 -107 -50 -158 -96 -51 -46 -183 -230 -197 -275
-4 -12 -25 -45 -47 -74 -46 -60 -119 -208 -141 -286 -44 -155 -61 -283 -62
-455 0 -187 9 -233 67 -349 59 -118 291 -312 481 -402 152 -72 337 -82 542
-30 195 50 351 148 461 291 88 115 104 141 152 250 184 416 264 689 249 853
-19 197 -186 320 -395 291 -63 -9 -221 -64 -381 -133 -46 -20 -87 -33 -91 -29
-3 4 -14 35 -24 68 -29 94 -103 232 -154 288 -63 68 -128 97 -212 96 -36 0
-76 -4 -90 -8z m70 -471 c11 -21 30 -83 41 -137 27 -122 56 -181 114 -230 111
-93 167 -97 314 -24 193 97 407 188 418 177 7 -7 -39 -170 -79 -281 -61 -166
-154 -365 -187 -399 -16 -17 -36 -45 -44 -61 -8 -17 -38 -52 -66 -79 -130
-121 -337 -149 -499 -67 -71 36 -176 112 -221 160 -104 112 -123 293 -56 526
28 96 47 136 105 226 22 34 40 70 40 79 0 10 7 23 15 30 9 7 30 37 48 67 17
29 33 53 34 53 1 0 12 -18 23 -40z"/>
</g>
</svg>
