<?xml version="1.0" standalone="no"?>
<!DOCTYPE svg PUBLIC "-//W3C//DTD SVG 20010904//EN"
 "http://www.w3.org/TR/2001/REC-SVG-20010904/DTD/svg10.dtd">
<svg version="1.0" xmlns="http://www.w3.org/2000/svg"
 width="600.000000pt" height="600.000000pt" viewBox="0 0 600.000000 600.000000"
 preserveAspectRatio="xMidYMid meet">
<metadata>
Created by potrace 1.15, written by Peter Selinger 2001-2017
</metadata>
<g transform="translate(0.000000,600.000000) scale(0.100000,-0.100000)"
fill="#16364b" stroke="none">
<path d="M1387 5671 c-191 -116 -245 -162 -257 -213 -15 -69 34 -128 106 -128
17 0 98 13 180 29 82 16 196 37 253 47 110 19 135 32 147 79 15 61 -39 118
-113 117 -40 -1 -42 0 -33 18 26 48 4 113 -47 139 -43 22 -78 9 -236 -88z"/>
<path d="M2369 5425 c-14 -8 -31 -27 -37 -42 -6 -15 -13 -109 -16 -208 -5
-189 -19 -276 -62 -400 -45 -128 -107 -200 -226 -261 -56 -28 -78 -57 -78
-102 0 -39 34 -78 76 -88 46 -12 163 56 255 146 65 63 84 91 127 180 94 194
126 354 115 587 -6 137 -17 173 -60 192 -32 15 -62 13 -94 -4z"/>
<path d="M3534 5319 c-31 -15 -56 -66 -56 -110 1 -87 135 -280 219 -315 101
-43 193 11 193 112 0 59 -53 157 -125 231 -48 49 -71 64 -114 77 -62 18 -87
19 -117 5z"/>
<path d="M3016 5145 c-81 -29 -155 -135 -181 -263 -38 -182 78 -274 241 -192
87 43 120 80 145 162 49 160 -3 276 -136 302 -16 3 -47 -1 -69 -9z m24 -246
c-7 -11 -14 -19 -16 -16 -7 7 7 37 17 37 6 0 5 -9 -1 -21z"/>
<path d="M4765 4762 c-47 -29 -56 -46 -67 -128 -12 -92 3 -263 32 -356 56
-181 182 -281 296 -233 79 33 126 100 143 204 25 152 -38 294 -199 448 -86 83
-144 102 -205 65z"/>
<path d="M2624 4206 c-85 -39 -120 -105 -111 -206 23 -255 324 -314 574 -111
75 62 102 118 83 175 -21 63 -45 83 -133 110 -204 62 -328 72 -413 32z"/>
<path d="M1135 4113 c-35 -9 -63 -34 -80 -70 -34 -71 9 -137 105 -163 77 -20
143 -52 128 -61 -16 -10 -71 -4 -156 18 -110 27 -179 2 -198 -72 -23 -92 55
-146 258 -181 146 -25 249 4 327 92 45 51 56 89 49 165 -6 62 -44 119 -113
171 -79 60 -259 117 -320 101z"/>
<path d="M4271 3779 c-235 -47 -405 -307 -308 -472 49 -83 144 -127 276 -127
94 0 159 22 218 73 81 72 127 180 139 331 6 80 5 88 -17 121 -17 24 -40 41
-74 54 -61 22 -174 32 -234 20z m29 -289 c-14 -26 -49 -45 -62 -32 -11 11 36
52 59 52 11 0 11 -4 3 -20z"/>
<path d="M5285 3753 c-294 -40 -434 -233 -332 -457 72 -156 221 -232 377 -192
165 42 274 180 274 346 0 82 -33 150 -101 210 -93 82 -142 103 -218 93z m-1
-341 c-6 -9 -21 -18 -33 -20 -30 -5 -29 36 2 47 29 11 45 -3 31 -27z"/>
<path d="M1665 3708 c-53 -29 -57 -70 -21 -229 37 -162 83 -239 144 -239 66 0
99 59 82 150 -21 115 -93 287 -131 314 -27 19 -46 20 -74 4z"/>
<path d="M3434 3370 c-37 -15 -93 -91 -144 -196 -57 -116 -63 -157 -26 -197
38 -41 86 -44 152 -12 94 46 168 177 169 298 0 54 -3 61 -33 88 -33 30 -75 37
-118 19z"/>
<path d="M1961 3069 c-150 -13 -386 -69 -504 -120 -199 -84 -385 -276 -439
-453 -32 -102 -31 -245 0 -346 50 -158 132 -253 305 -356 210 -124 253 -163
347 -309 139 -214 235 -315 361 -378 121 -61 178 -71 369 -64 168 6 276 24
390 65 30 10 91 27 135 37 108 24 488 148 596 195 48 21 125 62 171 92 97 63
346 276 399 340 132 160 186 320 177 522 -6 110 -20 157 -76 245 -76 122 -184
200 -355 259 l-102 35 -295 4 c-414 5 -401 2 -805 148 -153 55 -220 70 -375
84 -128 12 -162 12 -299 0z m436 -415 c42 -8 145 -40 227 -71 195 -71 221 -79
344 -103 90 -17 144 -20 421 -20 l317 0 45 -28 c54 -35 116 -103 135 -147 11
-28 11 -41 -1 -90 -54 -204 -315 -451 -565 -535 -97 -32 -490 -130 -523 -130
-16 0 -61 -13 -100 -29 -195 -79 -354 -101 -463 -64 -68 23 -142 101 -229 242
-80 129 -151 218 -221 277 -56 47 -219 156 -292 196 -70 38 -104 86 -110 153
-19 231 252 361 756 364 131 1 205 -3 259 -15z"/>
<path d="M425 2168 c-62 -36 -60 -86 9 -233 123 -260 228 -365 364 -365 69 0
114 25 143 80 28 52 24 107 -13 180 -54 109 -157 199 -347 304 -85 47 -120 54
-156 34z"/>
<path d="M4825 1598 c-11 -6 -25 -19 -32 -28 -10 -14 -23 -16 -64 -12 -67 6
-113 -17 -141 -72 -17 -34 -19 -50 -13 -110 8 -89 47 -211 80 -256 63 -85 173
-93 241 -18 51 55 82 151 104 319 13 97 4 128 -46 168 -30 23 -96 28 -129 9z"/>
</g>
</svg>
