<?xml version="1.0" standalone="no"?>
<!DOCTYPE svg PUBLIC "-//W3C//DTD SVG 20010904//EN"
 "http://www.w3.org/TR/2001/REC-SVG-20010904/DTD/svg10.dtd">
<svg version="1.0" xmlns="http://www.w3.org/2000/svg"
 width="600.000000pt" height="600.000000pt" viewBox="0 0 600.000000 600.000000"
 preserveAspectRatio="xMidYMid meet">
<metadata>
Created by potrace 1.15, written by Peter Selinger 2001-2017
</metadata>
<g transform="translate(0.000000,600.000000) scale(0.100000,-0.100000)"
fill="#16364b" stroke="none">
<path d="M2143 5316 c-134 -44 -245 -183 -259 -324 -3 -31 1 -148 10 -259 18
-227 20 -486 5 -643 -5 -58 -14 -325 -20 -595 -11 -537 -16 -645 -29 -659 -23
-23 -157 -38 -397 -43 l-251 -5 -9 43 c-11 54 -38 62 -38 12 0 -18 -2 -33 -5
-33 -2 0 -23 18 -45 40 -33 33 -44 38 -53 28 -8 -10 -6 -25 9 -57 l19 -43 -51
7 c-46 6 -51 5 -47 -11 2 -10 20 -28 41 -40 30 -17 35 -23 22 -28 -9 -3 -25
-6 -36 -6 -28 0 -25 -36 5 -44 53 -13 378 -28 486 -21 110 6 306 30 335 41 7
3 16 -3 19 -13 3 -10 8 -157 11 -328 7 -397 21 -509 85 -665 88 -218 285 -371
550 -425 55 -11 55 -11 52 -46 -1 -18 -3 -106 -4 -194 -2 -181 11 -265 68
-425 48 -134 49 -130 -43 -130 -97 0 -136 -20 -154 -79 -10 -34 -9 -44 8 -73
26 -44 56 -58 129 -58 109 0 200 48 235 124 27 59 24 89 -20 213 -52 145 -71
250 -71 392 0 116 14 228 30 245 5 5 36 4 72 -3 91 -16 661 -45 776 -39 l97 5
1 -136 c1 -153 19 -237 94 -437 56 -149 57 -144 -39 -144 -114 0 -172 -28
-186 -91 -29 -133 238 -178 367 -61 78 71 86 133 32 262 -86 204 -124 344
-124 451 0 55 14 152 24 166 1 1 104 14 228 27 249 28 301 42 391 106 142 102
217 288 239 592 14 185 8 238 -50 439 -57 198 -121 314 -248 448 -35 38 -64
71 -64 73 0 3 35 8 78 12 154 13 348 56 465 101 20 8 46 15 57 15 31 0 160 90
160 111 0 11 -5 19 -11 19 -6 0 -8 7 -5 16 8 20 -11 44 -34 44 -13 0 -16 6
-12 25 6 32 -19 34 -55 5 -33 -26 -41 -25 -45 3 -5 38 -33 27 -36 -16 -4 -44
-15 -51 -153 -95 -150 -48 -289 -73 -445 -79 l-141 -6 -94 85 c-163 146 -246
208 -564 420 -171 114 -346 237 -388 273 -111 94 -197 208 -267 350 -70 143
-88 200 -135 427 -80 384 -108 480 -166 567 -50 74 -98 117 -168 149 -66 31
-175 39 -238 18z m172 -155 c22 -10 54 -34 72 -52 38 -41 86 -143 102 -219 7
-30 18 -74 26 -97 8 -23 33 -135 56 -250 81 -410 151 -558 363 -768 110 -110
298 -249 651 -482 148 -98 253 -181 415 -326 370 -332 429 -407 494 -631 52
-177 60 -232 53 -392 -11 -239 -51 -375 -140 -466 -80 -83 -115 -91 -511 -128
-301 -27 -516 -25 -1016 10 -375 27 -525 69 -643 178 -60 57 -95 107 -130 190
-65 152 -84 298 -98 738 -10 305 -9 375 5 545 9 106 19 345 22 529 2 184 12
418 21 519 18 212 14 473 -12 721 -9 85 -14 176 -11 202 16 147 157 237 281
179z"/>
<path d="M2639 2846 c-12 -6 -27 -19 -33 -29 -24 -38 53 -115 91 -91 10 6 25
23 33 37 13 24 13 30 0 54 -18 32 -59 45 -91 29z"/>
<path d="M3140 2750 c-11 -11 -20 -29 -20 -40 0 -27 47 -70 76 -70 25 0 64 43
64 71 0 29 -36 59 -70 59 -17 0 -39 -9 -50 -20z"/>
<path d="M2864 1847 c-16 -9 -18 -45 -4 -67 8 -12 36 -15 162 -13 144 2 154 4
171 24 15 19 16 24 3 43 -13 20 -22 21 -165 21 -84 0 -159 -4 -167 -8z"/>
</g>
</svg>
