<?xml version="1.0" standalone="no"?>
<!DOCTYPE svg PUBLIC "-//W3C//DTD SVG 20010904//EN"
 "http://www.w3.org/TR/2001/REC-SVG-20010904/DTD/svg10.dtd">
<svg version="1.0" xmlns="http://www.w3.org/2000/svg"
 width="600.000000pt" height="600.000000pt" viewBox="0 0 600.000000 600.000000"
 preserveAspectRatio="xMidYMid meet">
<metadata>
Created by potrace 1.15, written by Peter Selinger 2001-2017
</metadata>
<g transform="translate(0.000000,600.000000) scale(0.100000,-0.100000)"
fill="#16364b" stroke="none">
<path d="M2772 5550 c-52 -33 -140 -228 -157 -352 -16 -110 50 -215 161 -258
52 -20 78 -23 211 -24 84 -1 153 -2 153 -3 0 0 -33 -25 -72 -54 -111 -81 -241
-212 -337 -339 -166 -219 -181 -250 -157 -321 18 -51 69 -113 108 -132 19 -8
107 -22 203 -32 288 -28 406 -44 520 -70 63 -15 123 -23 141 -20 64 11 114 75
114 145 0 46 -34 104 -72 123 -49 26 -228 63 -422 88 -94 12 -179 24 -190 28
-16 6 -13 14 31 66 79 96 210 213 340 307 185 134 243 208 243 310 0 82 -63
157 -159 192 -60 21 -141 24 -348 12 -132 -8 -153 -7 -153 6 0 8 18 50 41 94
34 65 40 86 36 118 -10 75 -69 127 -149 133 -41 3 -60 -1 -86 -17z"/>
<path d="M1588 5236 c-223 -92 -451 -319 -575 -573 -25 -51 -47 -111 -50 -133
-8 -55 20 -124 63 -156 45 -35 99 -40 204 -19 47 9 145 19 217 22 117 5 133 4
139 -10 3 -9 -15 -79 -42 -154 -54 -157 -59 -211 -25 -269 12 -20 21 -38 19
-39 -2 -1 -25 -8 -53 -14 -71 -18 -110 -45 -134 -95 -37 -75 -21 -152 41 -199
54 -41 97 -43 224 -8 137 37 228 73 387 152 128 64 160 86 183 131 45 87 -26
195 -135 206 -44 4 -61 -1 -146 -42 -54 -26 -99 -45 -102 -42 -3 3 16 74 43
158 44 136 49 163 49 243 0 81 -3 95 -30 145 -60 109 -157 153 -337 154 -65 1
-108 5 -108 11 0 23 207 211 263 240 32 16 69 42 83 58 70 83 40 220 -54 247
-51 14 -59 13 -124 -14z"/>
<path d="M4415 4624 c-103 -26 -382 -141 -419 -173 -24 -20 -46 -72 -46 -108
0 -38 33 -89 72 -113 49 -30 113 -26 195 11 89 40 214 89 229 89 18 0 -16
-105 -68 -208 -24 -48 -86 -150 -136 -226 -77 -116 -92 -145 -92 -178 0 -56
21 -94 90 -163 l61 -60 177 -7 c246 -9 362 -29 362 -63 0 -25 -57 -167 -133
-330 -38 -82 -76 -167 -83 -188 -41 -111 67 -217 189 -186 82 20 123 87 232
379 77 208 95 274 95 358 0 206 -122 283 -504 322 -55 6 -101 12 -103 14 -2 2
13 30 33 62 57 88 130 250 155 339 30 110 31 235 2 290 -48 92 -118 137 -217
141 -39 2 -80 1 -91 -2z"/>
<path d="M3763 3696 c-102 -33 -185 -106 -229 -200 -38 -82 -28 -136 36 -190
25 -21 42 -26 83 -26 65 0 109 26 136 78 20 39 44 57 62 46 29 -17 -3 -153
-62 -269 -30 -58 -35 -62 -121 -104 -66 -32 -109 -62 -159 -110 -59 -58 -68
-72 -74 -112 -14 -97 52 -179 143 -179 51 0 72 10 131 62 60 52 147 93 266
124 55 14 118 36 140 47 48 26 85 87 85 140 0 44 -30 109 -61 131 -21 14 -21
17 -8 63 8 28 14 93 14 153 0 97 -2 110 -31 171 -55 116 -139 177 -253 185
-31 2 -74 -2 -98 -10z"/>
<path d="M2530 3560 c-142 -19 -391 -117 -456 -179 -64 -60 -66 -141 -7 -212
58 -68 136 -76 251 -25 135 59 225 87 296 93 l69 6 -5 -59 c-7 -77 -47 -194
-108 -321 -38 -78 -50 -113 -50 -149 0 -61 29 -107 84 -133 93 -46 159 -15
223 104 56 106 100 219 130 335 31 122 30 287 -4 361 -24 54 -79 111 -131 138
-71 36 -200 54 -292 41z"/>
<path d="M1149 3247 c-53 -15 -110 -47 -195 -110 -79 -58 -108 -114 -102 -192
9 -112 93 -181 209 -173 l59 4 -5 -30 c-60 -358 -88 -592 -89 -741 -1 -146 9
-190 52 -239 26 -28 92 -56 138 -56 55 0 144 27 171 53 13 11 55 81 95 155 75
139 196 331 276 436 62 82 153 186 162 186 4 0 15 -21 25 -47 33 -86 4 -445
-61 -745 -49 -228 -43 -282 33 -329 41 -26 116 -28 160 -6 l30 16 7 -72 c8
-85 69 -392 97 -492 38 -129 84 -211 168 -295 105 -106 184 -145 296 -145 66
0 90 5 137 27 65 30 139 84 169 122 11 14 27 26 35 26 31 0 95 75 149 175 94
175 227 346 281 359 29 8 88 -15 180 -69 225 -133 342 -152 486 -79 67 34 141
109 162 165 10 26 29 53 47 64 57 38 99 120 99 192 0 18 -16 79 -36 135 -25
71 -36 123 -37 168 l-2 65 38 12 c21 7 111 19 200 27 224 20 317 55 406 151
79 86 114 224 92 369 -15 103 -51 160 -124 198 -85 43 -205 30 -280 -33 -49
-40 -70 -81 -77 -149 l-5 -55 -115 -11 c-276 -28 -467 -115 -545 -249 -84
-142 -91 -369 -19 -584 19 -57 32 -106 30 -109 -3 -2 -66 30 -139 72 -166 95
-248 126 -340 126 -123 0 -234 -56 -363 -185 -82 -82 -151 -180 -245 -352 -63
-116 -71 -126 -124 -159 -41 -24 -61 -31 -70 -24 -46 38 -125 298 -145 481 -7
57 -19 123 -27 146 -37 108 -185 155 -290 93 -19 -11 -36 -20 -37 -20 -2 0 5
30 16 68 55 195 100 551 101 802 1 257 -79 446 -209 496 -57 22 -144 14 -205
-16 -100 -51 -230 -174 -343 -323 -33 -42 -61 -75 -63 -73 -2 2 5 55 17 118
26 144 36 315 21 392 -38 202 -183 310 -352 263z"/>
<path d="M3073 2605 c-34 -7 -165 -43 -290 -80 -215 -62 -230 -68 -265 -104
-65 -69 -70 -149 -14 -232 28 -41 97 -79 143 -79 17 0 122 22 233 50 232 56
290 67 290 52 0 -6 -16 -60 -35 -122 -31 -99 -34 -116 -25 -157 28 -122 154
-187 260 -133 49 25 75 62 106 152 107 314 106 475 -4 581 -67 65 -114 81
-232 84 -63 2 -130 -3 -167 -12z"/>
</g>
</svg>
