<?xml version="1.0" standalone="no"?>
<!DOCTYPE svg PUBLIC "-//W3C//DTD SVG 20010904//EN"
 "http://www.w3.org/TR/2001/REC-SVG-20010904/DTD/svg10.dtd">
<svg version="1.0" xmlns="http://www.w3.org/2000/svg"
 width="600.000000pt" height="600.000000pt" viewBox="0 0 600.000000 600.000000"
 preserveAspectRatio="xMidYMid meet">
<metadata>
Created by potrace 1.15, written by Peter Selinger 2001-2017
</metadata>
<g transform="translate(0.000000,600.000000) scale(0.100000,-0.100000)"
fill="#16364b" stroke="none">
<path d="M2405 5420 c-39 -15 -42 -32 -48 -210 -7 -210 -28 -322 -85 -444 -51
-107 -109 -167 -219 -224 -86 -44 -103 -62 -103 -107 0 -31 41 -75 70 -75 38
0 193 88 244 137 141 139 216 348 238 662 14 197 9 235 -32 256 -32 17 -37 17
-65 5z"/>
<path d="M3531 5275 c-31 -41 -34 -76 -11 -135 41 -104 132 -218 197 -246 47
-21 69 -17 105 15 28 25 33 36 32 74 -2 87 -115 256 -197 296 -60 29 -101 27
-126 -4z"/>
<path d="M2994 5096 c-146 -64 -210 -276 -109 -365 63 -55 141 -50 235 16 40
28 61 53 83 97 55 108 37 210 -43 251 -36 18 -124 19 -166 1z m86 -141 c0 -35
-56 -105 -83 -105 -16 0 4 55 31 83 23 24 52 36 52 22z"/>
<path d="M4753 4735 l-36 -36 6 -177 c12 -342 69 -472 208 -472 57 0 103 31
131 88 34 70 32 218 -4 319 -32 89 -105 215 -156 271 -32 35 -45 42 -76 42
-30 0 -45 -7 -73 -35z"/>
<path d="M2632 4199 c-79 -39 -108 -113 -78 -194 43 -112 227 -193 377 -166
151 26 254 119 234 210 -11 49 -48 76 -153 109 -212 68 -306 78 -380 41z"/>
<path d="M1120 4142 c-56 -56 -75 -213 -34 -282 65 -111 232 -107 305 8 66
105 15 215 -128 278 -72 32 -108 31 -143 -4z"/>
<path d="M5324 4000 c-113 -16 -216 -86 -270 -182 -26 -48 -29 -62 -29 -143 0
-77 4 -98 27 -148 41 -87 81 -132 146 -164 158 -77 359 9 442 189 30 64 34 83
34 153 -1 119 -45 194 -152 258 -63 38 -118 48 -198 37z m53 -311 l28 -11 -29
-24 c-32 -28 -56 -19 -56 22 0 27 14 30 57 13z"/>
<path d="M4159 3751 c-145 -46 -217 -152 -206 -301 11 -157 123 -276 272 -288
93 -7 156 17 226 87 74 74 101 143 107 269 5 119 -2 154 -38 190 -58 59 -243
81 -361 43z m121 -261 c0 -13 -37 -50 -49 -50 -18 0 -20 17 -5 38 15 22 54 31
54 12z"/>
<path d="M3460 3362 c-73 -36 -222 -279 -204 -331 13 -37 66 -64 106 -56 68
15 201 190 223 293 9 42 -9 86 -41 101 -33 15 -43 14 -84 -7z"/>
<path d="M1032 3330 c-123 -26 -261 -131 -309 -237 -84 -181 7 -422 195 -517
77 -39 149 -55 289 -65 116 -8 139 -13 184 -38 53 -29 109 -92 147 -168 28
-56 54 -143 107 -361 54 -225 76 -296 122 -388 83 -170 212 -313 336 -374 133
-65 235 -80 697 -101 124 -6 335 -16 469 -23 326 -16 486 -1 989 91 266 49
353 76 506 152 225 114 347 241 429 449 112 282 104 561 -21 820 -174 360
-664 508 -1141 345 -97 -33 -203 -91 -297 -162 -261 -198 -278 -206 -444 -206
-98 0 -127 4 -200 28 -151 49 -263 114 -470 274 -147 113 -386 268 -503 325
-213 104 -338 134 -612 146 -383 18 -431 19 -473 10z m492 -395 c71 -8 169
-25 218 -36 151 -35 413 -180 691 -382 330 -240 449 -292 754 -332 274 -36
371 -11 633 162 182 120 231 147 341 187 271 98 434 87 594 -41 116 -92 176
-311 135 -488 -15 -66 -64 -164 -107 -215 -38 -44 -176 -129 -306 -190 -272
-125 -589 -166 -1207 -156 -195 3 -380 10 -410 16 -30 6 -145 15 -255 19 -440
19 -495 76 -634 651 -71 292 -118 399 -227 518 -134 147 -319 232 -507 232
-65 0 -118 15 -149 40 -20 17 -21 21 -8 30 20 15 272 6 444 -15z"/>
<path d="M459 2031 c-36 -36 -37 -62 -4 -98 13 -16 45 -56 69 -90 88 -121 218
-158 271 -77 50 77 -24 179 -190 259 -88 43 -108 43 -146 6z"/>
<path d="M5346 1091 c-26 -29 -56 -116 -56 -166 0 -57 17 -93 51 -111 92 -47
168 30 169 169 0 63 -3 71 -29 98 -24 23 -38 29 -74 29 -30 0 -49 -6 -61 -19z"/>
</g>
</svg>
