<?xml version="1.0" standalone="no"?>
<!DOCTYPE svg PUBLIC "-//W3C//DTD SVG 20010904//EN"
 "http://www.w3.org/TR/2001/REC-SVG-20010904/DTD/svg10.dtd">
<svg version="1.0" xmlns="http://www.w3.org/2000/svg"
 width="600.000000pt" height="600.000000pt" viewBox="0 0 600.000000 600.000000"
 preserveAspectRatio="xMidYMid meet">
<metadata>
Created by potrace 1.15, written by Peter Selinger 2001-2017
</metadata>
<g transform="translate(0.000000,600.000000) scale(0.100000,-0.100000)"
fill="#16364b" stroke="none">
<path d="M1527 5771 c-15 -10 -34 -27 -41 -37 -19 -27 -44 -114 -60 -213 -47
-283 -18 -467 86 -533 81 -53 165 -33 255 61 109 113 323 447 323 503 0 52
-28 95 -76 119 -80 38 -124 14 -189 -108 -60 -113 -147 -253 -157 -253 -5 0
-8 6 -8 13 1 16 33 179 56 282 16 75 16 82 0 116 -9 19 -29 43 -45 52 -38 23
-109 22 -144 -2z"/>
<path d="M805 5506 c-134 -43 -221 -150 -261 -322 -29 -126 -2 -237 80 -318
79 -80 160 -105 226 -71 51 26 75 98 49 148 -7 12 -34 43 -60 68 -42 38 -49
51 -49 82 0 53 21 97 63 134 49 43 90 50 147 24 55 -25 82 -26 126 -5 41 20
64 59 64 110 0 56 -32 99 -98 131 -48 23 -72 28 -152 30 -58 2 -111 -3 -135
-11z"/>
<path d="M3356 5420 c-43 -38 -53 -83 -30 -139 12 -31 30 -49 80 -81 35 -22
64 -43 64 -46 0 -3 -9 -17 -20 -31 -14 -17 -20 -41 -20 -73 0 -82 75 -171 191
-225 173 -80 325 39 265 208 -41 113 -147 240 -270 321 -160 106 -202 117
-260 66z"/>
<path d="M2313 5214 c-58 -29 -67 -54 -74 -214 -4 -80 -12 -161 -18 -181 -20
-66 -73 -114 -186 -168 -122 -59 -149 -88 -142 -158 6 -58 30 -91 85 -115 l47
-21 84 29 c173 60 292 147 346 254 41 81 55 166 55 341 0 146 -1 158 -23 190
-39 59 -108 75 -174 43z"/>
<path d="M2981 5159 c-88 -27 -178 -127 -202 -222 -26 -108 13 -219 91 -260
57 -30 171 -19 257 24 90 45 106 76 107 208 1 84 -2 102 -24 145 -47 93 -136
133 -229 105z"/>
<path d="M4780 4809 c-68 -40 -75 -59 -78 -209 -2 -94 1 -157 12 -209 31 -150
107 -265 208 -317 60 -31 163 -33 223 -5 149 69 176 246 68 455 -71 137 -274
306 -367 306 -17 0 -47 -10 -66 -21z m220 -456 c0 -22 -8 -14 -19 20 -10 29
-9 30 4 13 8 -11 15 -26 15 -33z"/>
<path d="M2761 4184 c-76 -20 -167 -72 -202 -113 -40 -48 -61 -124 -50 -174
31 -131 196 -229 362 -213 110 10 252 69 357 148 70 52 92 89 92 155 0 46 -4
58 -35 92 -29 32 -51 44 -123 66 -179 57 -293 68 -401 39z"/>
<path d="M1054 4086 c-52 -23 -87 -79 -92 -145 -4 -54 -2 -61 28 -94 35 -40
62 -50 186 -66 86 -10 137 -28 131 -45 -10 -31 -162 -127 -347 -219 -198 -99
-206 -103 -229 -147 -20 -38 -23 -54 -17 -93 13 -85 109 -165 185 -154 38 5
169 63 306 135 44 23 84 43 89 44 5 2 14 -15 20 -38 21 -78 68 -114 147 -114
38 0 58 8 105 39 54 37 61 39 79 25 109 -80 253 -88 317 -17 71 78 62 203 -22
284 -65 64 -128 84 -248 83 -83 -2 -93 0 -86 15 42 102 45 201 8 281 -66 144
-210 221 -439 235 -66 4 -98 2 -121 -9z"/>
<path d="M4240 3760 c-107 -23 -222 -108 -265 -195 -30 -61 -28 -184 5 -248
49 -97 141 -151 255 -152 60 0 81 5 137 33 119 58 195 163 240 331 18 68 19
87 10 119 -16 53 -44 79 -105 97 -64 19 -217 27 -277 15z m70 -280 c0 -14 -48
-43 -60 -35 -14 8 -3 24 24 35 28 12 36 12 36 0z"/>
<path d="M5105 3455 c-120 -37 -229 -125 -275 -220 -34 -69 -35 -206 -2 -278
30 -65 104 -142 158 -163 136 -52 344 54 419 213 20 42 29 78 32 138 7 106
-15 159 -100 242 -84 82 -138 98 -232 68z"/>
<path d="M3397 3388 c-47 -30 -77 -74 -138 -204 -54 -114 -59 -152 -29 -202
30 -49 79 -66 144 -51 74 17 116 41 164 93 82 89 112 208 73 288 -41 85 -141
121 -214 76z"/>
<path d="M2375 3090 c-64 -16 -104 -41 -149 -91 -44 -49 -61 -79 -151 -277
-43 -93 -98 -151 -211 -225 -89 -58 -257 -231 -324 -333 -68 -104 -123 -220
-156 -330 -36 -120 -45 -324 -19 -441 33 -148 118 -294 248 -423 175 -176 374
-253 657 -254 160 -1 194 6 325 71 232 115 414 300 506 514 105 241 175 658
151 889 -21 198 -81 329 -212 460 -36 36 -83 92 -105 125 -57 86 -210 238
-270 268 -103 51 -208 68 -290 47z m168 -457 c29 -38 59 -83 66 -100 8 -18 55
-71 108 -120 112 -102 128 -132 145 -271 21 -176 -21 -481 -89 -636 -74 -170
-241 -330 -395 -377 -255 -80 -577 87 -634 330 -36 153 3 328 111 491 46 69
112 135 261 260 180 152 236 219 314 378 30 62 55 112 57 112 1 0 26 -30 56
-67z"/>
<path d="M715 2557 c-44 -44 -53 -93 -29 -144 15 -30 35 -47 97 -80 181 -96
281 -206 293 -321 7 -64 -22 -112 -67 -112 -64 0 -134 73 -217 225 -38 70 -56
93 -85 108 -48 25 -96 17 -137 -24 -56 -57 -53 -103 16 -226 168 -297 375
-416 562 -323 136 69 201 210 179 395 -21 183 -167 351 -428 494 -97 53 -137
55 -184 8z"/>
<path d="M4236 2196 c-54 -20 -95 -63 -109 -114 -11 -41 -12 -42 -42 -35 -123
32 -250 -46 -262 -159 -5 -49 67 -410 92 -457 20 -39 59 -68 109 -83 22 -7 55
-22 71 -34 115 -86 284 -34 334 101 29 77 43 252 39 486 l-3 196 -28 36 c-49
64 -129 89 -201 63z"/>
</g>
</svg>
