<?xml version="1.0" standalone="no"?>
<!DOCTYPE svg PUBLIC "-//W3C//DTD SVG 20010904//EN"
 "http://www.w3.org/TR/2001/REC-SVG-20010904/DTD/svg10.dtd">
<svg version="1.0" xmlns="http://www.w3.org/2000/svg"
 width="600.000000pt" height="600.000000pt" viewBox="0 0 600.000000 600.000000"
 preserveAspectRatio="xMidYMid meet">
<metadata>
Created by potrace 1.15, written by Peter Selinger 2001-2017
</metadata>
<g transform="translate(0.000000,600.000000) scale(0.100000,-0.100000)"
fill="#16364b" stroke="none">
<path d="M2378 5400 l-26 -19 -5 -238 c-4 -203 -8 -250 -27 -318 -44 -163
-116 -253 -261 -325 -42 -22 -79 -46 -83 -55 -19 -50 8 -95 57 -95 37 0 144
52 217 105 168 124 239 342 240 732 0 94 -3 179 -6 188 -6 15 -53 45 -72 45
-5 0 -21 -9 -34 -20z"/>
<path d="M3527 5279 c-22 -13 -47 -61 -47 -91 0 -35 44 -121 85 -166 89 -100
191 -131 252 -78 24 21 28 32 28 78 0 43 -6 63 -33 105 -39 61 -99 121 -144
146 -36 19 -113 22 -141 6z"/>
<path d="M3016 5104 c-97 -31 -186 -152 -186 -253 0 -81 61 -147 135 -145 141
3 288 218 228 333 -36 69 -95 91 -177 65z m54 -131 c0 -20 -44 -90 -66 -106
-30 -22 -39 -17 -30 17 10 42 96 121 96 89z"/>
<path d="M4743 4724 l-26 -26 6 -147 c11 -246 44 -412 93 -471 78 -92 180 -70
235 52 21 45 24 68 24 158 -1 95 -4 112 -31 176 -34 78 -145 246 -178 269 -34
24 -93 19 -123 -11z"/>
<path d="M2625 4207 c-56 -31 -84 -98 -66 -158 16 -54 80 -122 139 -147 144
-62 344 -41 434 45 49 47 47 123 -5 171 -21 20 -147 64 -273 96 -91 24 -180
21 -229 -7z"/>
<path d="M5238 3975 c-95 -36 -185 -127 -209 -212 -43 -155 63 -359 213 -409
158 -52 354 36 425 194 70 151 21 285 -141 390 -70 46 -73 47 -161 49 -59 2
-103 -2 -127 -12z m147 -296 c14 -13 -30 -53 -49 -46 -20 8 -30 32 -22 52 6
16 51 12 71 -6z"/>
<path d="M4196 3754 c-84 -27 -162 -88 -197 -156 -57 -111 -31 -282 53 -353
64 -54 107 -69 199 -70 79 0 92 3 155 35 127 65 182 172 170 333 -8 119 -33
164 -108 197 -69 30 -200 37 -272 14z m124 -252 c0 -18 -33 -52 -51 -52 -24 0
-24 15 1 40 20 20 50 27 50 12z"/>
<path d="M1050 3406 c-76 -20 -138 -57 -191 -113 -88 -93 -116 -200 -85 -322
53 -207 226 -338 481 -365 83 -9 161 -48 216 -106 78 -83 109 -163 194 -500
81 -321 109 -407 168 -511 117 -208 281 -320 515 -353 137 -20 554 -31 1147
-31 l510 0 160 28 c260 46 374 78 520 151 308 152 413 263 503 531 78 231 81
379 11 604 -75 244 -200 391 -422 497 -108 51 -197 67 -352 61 -117 -3 -141
-8 -240 -41 -137 -46 -222 -92 -389 -208 -214 -149 -297 -186 -451 -203 -129
-14 -323 53 -543 186 -37 23 -134 93 -215 156 -189 146 -298 217 -467 302
-194 99 -360 149 -720 221 -164 32 -273 37 -350 16z m355 -381 c161 -36 365
-105 478 -161 134 -67 206 -110 457 -272 601 -389 724 -442 988 -429 233 11
394 73 642 248 197 138 308 188 459 205 217 24 411 -124 466 -358 41 -176 -15
-385 -137 -507 -38 -38 -85 -67 -191 -120 -198 -97 -329 -136 -559 -165 -143
-19 -1075 -24 -1173 -7 -33 6 -127 11 -208 11 -277 0 -402 51 -491 199 -58 97
-127 311 -172 536 -69 341 -146 488 -324 622 -108 81 -235 132 -370 148 -30 3
-69 11 -86 16 -38 12 -69 43 -59 60 11 17 138 6 280 -26z"/>
<path d="M2193 2305 c-18 -8 -33 -18 -33 -24 0 -5 -3 -16 -6 -25 -8 -21 39
-66 69 -66 56 0 89 84 45 114 -27 19 -34 19 -75 1z"/>
<path d="M2870 2060 c-27 -27 -25 -56 5 -85 36 -37 70 -32 94 12 17 33 13 60
-11 77 -31 22 -64 20 -88 -4z"/>
<path d="M3463 3370 c-28 -12 -81 -93 -139 -215 -57 -120 -57 -143 -2 -171 37
-19 63 -11 112 35 79 74 157 236 142 295 -13 53 -61 77 -113 56z"/>
<path d="M456 2035 c-35 -35 -29 -71 21 -125 12 -14 39 -45 59 -70 70 -87 154
-130 212 -109 18 6 37 19 42 29 15 27 12 77 -5 110 -27 53 -232 180 -289 180
-14 0 -31 -7 -40 -15z"/>
<path d="M5322 1115 c-61 -27 -99 -171 -62 -240 30 -55 115 -73 165 -33 38 30
55 76 55 153 0 79 -11 102 -55 121 -42 17 -61 17 -103 -1z"/>
</g>
</svg>
