<?xml version="1.0" standalone="no"?>
<!DOCTYPE svg PUBLIC "-//W3C//DTD SVG 20010904//EN"
 "http://www.w3.org/TR/2001/REC-SVG-20010904/DTD/svg10.dtd">
<svg version="1.0" xmlns="http://www.w3.org/2000/svg"
 width="600.000000pt" height="600.000000pt" viewBox="0 0 600.000000 600.000000"
 preserveAspectRatio="xMidYMid meet">
<metadata>
Created by potrace 1.15, written by Peter Selinger 2001-2017
</metadata>
<g transform="translate(0.000000,600.000000) scale(0.100000,-0.100000)"
fill="#16364b" stroke="none">
<path d="M3300 5441 c-46 -24 -70 -59 -77 -108 -12 -92 42 -159 141 -172 61
-8 80 -20 103 -65 22 -43 12 -134 -26 -231 -18 -46 -31 -99 -31 -124 0 -38 5
-49 40 -82 52 -50 108 -60 173 -31 54 24 84 75 116 195 56 216 27 401 -81 509
-104 105 -271 156 -358 109z"/>
<path d="M2095 5436 c-89 -40 -138 -182 -103 -297 30 -100 115 -151 283 -168
54 -5 100 -12 103 -15 6 -7 -12 -165 -38 -329 -16 -100 -17 -124 -6 -155 14
-42 61 -78 112 -88 45 -8 122 30 145 71 15 27 53 216 81 410 13 92 5 161 -26
222 -53 105 -139 159 -273 171 l-78 7 -5 51 c-6 62 -31 101 -75 120 -42 17
-81 17 -120 0z"/>
<path d="M1615 4800 c-124 -13 -277 -47 -305 -68 -35 -26 -70 -91 -70 -130 0
-46 35 -109 73 -133 39 -24 103 -22 247 10 118 26 291 28 368 6 145 -43 265
76 205 202 -34 73 -140 111 -323 118 -63 2 -151 0 -195 -5z"/>
<path d="M4314 4530 c-27 -11 -72 -65 -80 -96 -10 -38 2 -100 24 -131 23 -32
42 -43 124 -73 79 -29 121 -60 135 -100 9 -25 11 -82 7 -200 -5 -155 -4 -167
15 -198 44 -69 126 -90 201 -52 28 14 45 33 64 72 23 48 26 69 32 213 6 132 4
171 -10 225 -31 119 -111 212 -237 275 -128 65 -221 87 -275 65z"/>
<path d="M3213 4440 c-12 -5 -75 -45 -140 -88 -65 -43 -199 -125 -298 -182
-210 -119 -239 -140 -261 -182 -24 -47 -15 -140 17 -174 49 -52 109 -68 159
-40 14 7 117 68 230 134 255 151 448 279 473 313 28 38 32 106 10 149 -35 67
-120 98 -190 70z"/>
<path d="M1552 4423 c-102 -50 -111 -207 -17 -269 24 -15 136 -39 473 -100 46
-8 120 -16 166 -17 73 -2 86 1 119 23 101 69 103 225 4 277 -19 9 -75 19 -141
24 -61 5 -200 24 -309 44 -224 40 -249 41 -295 18z"/>
<path d="M2225 3814 c-100 -28 -277 -45 -440 -43 -131 2 -166 0 -190 -13 -89
-47 -121 -146 -72 -218 31 -46 77 -67 165 -76 145 -13 609 38 689 77 109 53
111 218 3 271 -42 20 -88 21 -155 2z"/>
<path d="M3650 3801 c-41 -15 -140 -61 -220 -101 -80 -41 -206 -104 -282 -142
-111 -55 -140 -74 -158 -104 -67 -107 -2 -234 121 -234 59 0 151 38 396 166
l183 95 30 -22 c43 -32 115 -32 163 1 51 35 71 80 75 175 3 71 1 84 -20 115
-59 87 -149 103 -288 51z"/>
<path d="M4991 3497 c-49 -19 -108 -72 -133 -120 -17 -34 -21 -56 -19 -112 8
-185 6 -208 -20 -265 -14 -30 -61 -102 -105 -160 -98 -129 -142 -199 -228
-362 -85 -161 -126 -272 -126 -341 0 -118 113 -219 245 -221 114 -2 182 60
229 206 32 98 100 222 170 312 28 36 84 106 124 157 88 111 144 223 173 344
18 75 20 110 16 215 -7 183 -37 263 -125 324 -34 24 -54 31 -105 33 -34 1 -77
-3 -96 -10z"/>
<path d="M1998 3193 c-100 -48 -129 -194 -54 -269 42 -42 85 -53 373 -89 47
-6 54 -10 71 -43 29 -57 64 -77 132 -77 66 0 99 18 138 76 52 74 4 213 -95
278 -69 46 -138 68 -311 100 -86 17 -170 32 -187 35 -19 4 -44 0 -67 -11z"/>
<path d="M4335 3148 c-11 -6 -49 -38 -85 -71 -112 -102 -215 -165 -381 -232
-134 -54 -228 -81 -352 -99 -54 -8 -111 -23 -127 -33 -35 -20 -70 -86 -70
-129 1 -45 34 -108 71 -135 30 -21 44 -24 114 -22 214 4 573 126 771 260 86
59 230 188 260 233 71 108 -1 240 -130 240 -28 0 -60 -6 -71 -12z"/>
<path d="M1324 2971 c-90 -41 -121 -129 -90 -253 9 -35 32 -176 51 -312 57
-401 120 -621 212 -744 59 -78 176 -95 251 -36 78 62 107 186 62 264 -82 143
-130 340 -175 725 -29 247 -52 307 -137 349 -62 31 -117 33 -174 7z"/>
<path d="M2080 2386 c-93 -33 -162 -78 -188 -124 -58 -104 11 -222 130 -222
31 0 67 10 110 30 85 40 136 41 166 0 65 -88 180 -99 259 -26 29 27 36 41 40
82 6 60 -8 92 -64 148 -129 129 -292 170 -453 112z"/>
<path d="M3945 2100 c-27 -5 -124 -18 -215 -29 -190 -25 -271 -40 -465 -87
-77 -19 -202 -43 -279 -55 -76 -11 -150 -26 -165 -33 -83 -44 -124 -161 -87
-249 17 -43 76 -93 123 -106 55 -15 198 6 458 69 226 54 283 65 520 98 131 19
231 28 266 25 71 -7 121 15 156 68 38 57 41 115 10 182 -48 105 -154 143 -322
117z"/>
<path d="M2183 1809 c-17 -11 -42 -41 -54 -66 -19 -40 -21 -55 -15 -129 11
-147 63 -259 178 -379 72 -77 144 -130 197 -145 64 -18 147 28 177 97 33 76 9
136 -79 202 -94 72 -140 153 -153 273 -7 76 -38 128 -87 151 -49 24 -124 22
-164 -4z"/>
<path d="M4715 1652 c-22 -11 -61 -42 -87 -70 -107 -115 -180 -149 -423 -197
-324 -65 -686 -192 -769 -271 -57 -55 -83 -167 -55 -241 19 -50 68 -91 123
-103 59 -13 75 -9 264 69 171 71 327 122 537 176 99 26 215 60 257 76 166 64
370 235 397 331 44 156 -105 296 -244 230z"/>
<path d="M2045 1053 c-102 -53 -142 -167 -96 -270 35 -77 258 -235 445 -316
139 -60 238 -79 396 -79 151 0 243 15 376 63 149 55 198 109 199 225 0 50 -5
68 -27 102 -55 82 -136 96 -263 43 -139 -58 -293 -75 -426 -47 -117 25 -231
94 -370 222 -78 72 -166 93 -234 57z"/>
</g>
</svg>
