<?xml version="1.0" standalone="no"?>
<!DOCTYPE svg PUBLIC "-//W3C//DTD SVG 20010904//EN"
 "http://www.w3.org/TR/2001/REC-SVG-20010904/DTD/svg10.dtd">
<svg version="1.0" xmlns="http://www.w3.org/2000/svg"
 width="600.000000pt" height="600.000000pt" viewBox="0 0 600.000000 600.000000"
 preserveAspectRatio="xMidYMid meet">
<metadata>
Created by potrace 1.15, written by Peter Selinger 2001-2017
</metadata>
<g transform="translate(0.000000,600.000000) scale(0.100000,-0.100000)"
fill="#16364b" stroke="none">
<path d="M1377 5633 c-183 -181 -217 -223 -217 -267 0 -49 33 -93 81 -107 35
-11 52 -10 113 5 153 39 448 164 489 207 44 47 33 119 -23 152 -35 21 -67 21
-113 2 -48 -20 -48 -20 -31 21 30 73 -18 144 -99 144 -39 0 -46 -6 -200 -157z"/>
<path d="M2389 5445 c-38 -20 -47 -54 -53 -200 -6 -159 -39 -384 -67 -468 -42
-125 -96 -185 -225 -250 -85 -43 -99 -58 -99 -109 0 -33 7 -46 33 -69 43 -38
76 -37 160 5 170 85 275 198 327 351 35 105 75 419 75 597 0 97 -1 100 -29
129 -33 33 -78 38 -122 14z"/>
<path d="M3523 5310 c-12 -5 -34 -27 -49 -49 -22 -33 -26 -49 -21 -82 12 -93
115 -232 206 -279 89 -45 168 -30 204 40 50 98 -48 295 -173 349 -59 25 -135
35 -167 21z"/>
<path d="M2960 5124 c-86 -37 -160 -154 -160 -254 1 -185 174 -254 352 -141
51 32 63 59 74 161 19 173 -121 297 -266 234z"/>
<path d="M4732 4746 l-37 -35 1 -118 c2 -326 124 -563 290 -563 56 0 85 12
131 54 73 65 109 179 92 285 -17 109 -86 210 -212 309 -142 112 -200 127 -265
68z"/>
<path d="M2690 4236 c-131 -29 -203 -111 -204 -231 0 -110 74 -205 184 -235
54 -15 180 -12 241 6 133 39 271 145 285 217 9 51 -9 109 -45 144 -33 33 -194
87 -306 103 -84 12 -86 12 -155 -4z"/>
<path d="M1094 4110 c-58 -23 -87 -107 -60 -168 23 -49 45 -64 146 -95 47 -14
94 -32 104 -40 33 -24 -65 -41 -194 -34 -93 6 -110 4 -137 -13 -44 -26 -66
-63 -66 -111 0 -89 59 -126 218 -135 275 -16 485 108 485 286 0 124 -104 219
-317 291 -87 29 -140 35 -179 19z"/>
<path d="M4195 3756 c-121 -29 -208 -101 -241 -198 -25 -75 -17 -178 20 -250
88 -174 279 -217 454 -102 102 67 152 169 160 330 7 150 -20 187 -160 219 -79
18 -163 18 -233 1z m69 -307 c-17 -19 -54 -26 -54 -11 0 5 8 16 18 24 39 35
70 24 36 -13z"/>
<path d="M5190 3701 c-118 -38 -199 -97 -248 -180 -25 -42 -27 -55 -27 -151 0
-100 2 -108 34 -167 54 -100 125 -143 237 -143 297 0 491 326 318 533 -26 31
-107 97 -141 115 -31 17 -109 14 -173 -7z m70 -305 c0 -16 -26 -46 -41 -46
-16 0 -10 39 9 49 24 14 32 13 32 -3z"/>
<path d="M1644 3685 c-37 -25 -47 -67 -42 -173 8 -154 58 -256 144 -294 118
-52 221 59 193 207 -10 58 -58 157 -93 197 -64 72 -152 99 -202 63z"/>
<path d="M3444 3376 c-44 -19 -75 -64 -139 -200 -61 -130 -69 -178 -35 -214
35 -37 64 -38 136 -2 103 50 184 169 192 281 5 69 -14 110 -62 133 -41 19 -51
19 -92 2z"/>
<path d="M2232 3070 c-114 -13 -205 -38 -367 -103 -82 -33 -190 -73 -238 -89
-274 -88 -430 -233 -514 -474 -24 -70 -27 -94 -27 -204 0 -140 15 -213 67
-318 42 -87 98 -146 246 -262 142 -111 221 -188 308 -305 179 -237 367 -336
611 -322 121 7 235 40 396 113 66 31 195 86 286 124 286 117 417 190 610 339
171 132 250 222 315 363 80 175 82 330 4 485 -90 180 -297 344 -584 463 -108
45 -424 140 -570 172 -102 22 -416 33 -543 18z m487 -404 c96 -20 420 -111
491 -139 180 -69 336 -190 371 -289 37 -105 -105 -309 -310 -446 -119 -80
-482 -252 -530 -252 -6 0 -60 -24 -119 -54 -208 -104 -354 -127 -462 -73 -69
34 -91 54 -164 147 -83 105 -201 220 -336 329 -169 136 -197 183 -187 306 11
143 101 248 283 329 241 108 338 142 449 160 66 10 441 -3 514 -18z"/>
<path d="M418 2203 c-56 -35 -60 -83 -18 -209 102 -303 266 -484 437 -484 215
0 229 271 25 479 -70 70 -121 106 -256 176 -111 58 -144 65 -188 38z"/>
<path d="M4665 1727 c-17 -8 -36 -21 -43 -30 -12 -14 -17 -14 -57 4 -80 35
-145 2 -165 -85 -17 -77 46 -363 98 -439 53 -80 150 -104 226 -58 86 54 145
224 149 432 2 94 -8 119 -65 162 -33 25 -104 31 -143 14z"/>
</g>
</svg>
