<?xml version="1.0" standalone="no"?>
<!DOCTYPE svg PUBLIC "-//W3C//DTD SVG 20010904//EN"
 "http://www.w3.org/TR/2001/REC-SVG-20010904/DTD/svg10.dtd">
<svg version="1.0" xmlns="http://www.w3.org/2000/svg"
 width="600.000000pt" height="600.000000pt" viewBox="0 0 600.000000 600.000000"
 preserveAspectRatio="xMidYMid meet">
<metadata>
Created by potrace 1.15, written by Peter Selinger 2001-2017
</metadata>
<g transform="translate(0.000000,600.000000) scale(0.100000,-0.100000)"
fill="#16364b" stroke="none">
<path d="M2109 5265 c-108 -34 -196 -122 -225 -223 -15 -52 -16 -78 -4 -280 7
-123 10 -260 6 -305 -4 -45 -1 -205 5 -355 11 -240 11 -308 -5 -570 -31 -537
-43 -712 -47 -716 -8 -7 -396 -96 -459 -105 -36 -5 -89 -11 -119 -13 -54 -3
-54 -3 -66 32 -8 24 -18 35 -31 35 -20 0 -22 -13 -9 -54 7 -22 2 -20 -45 17
-41 33 -56 40 -66 31 -14 -12 -13 -16 18 -61 25 -37 23 -40 -24 -36 -35 2 -43
0 -46 -15 -3 -13 7 -22 37 -34 46 -18 46 -28 0 -37 -22 -4 -30 -11 -27 -23 3
-14 15 -19 63 -21 146 -8 356 21 748 105 l27 6 0 -74 c0 -79 20 -322 45 -559
25 -241 69 -357 201 -533 108 -144 228 -223 380 -252 42 -8 76 -15 77 -15 1 0
2 -73 2 -163 0 -185 13 -262 76 -450 22 -64 37 -122 34 -127 -3 -6 -39 -10
-78 -10 -94 0 -136 -21 -157 -78 -21 -60 1 -103 65 -127 87 -34 241 12 296 88
47 65 47 108 0 245 -64 186 -84 293 -85 464 -1 80 1 149 4 152 3 3 109 -2 235
-10 167 -11 300 -13 485 -9 l255 7 0 -168 c1 -215 13 -273 116 -521 16 -39 9
-47 -39 -46 -20 1 -66 -1 -101 -4 -79 -6 -121 -40 -121 -95 0 -72 56 -108 169
-108 132 0 237 60 261 149 14 52 11 66 -40 193 -95 237 -124 458 -75 574 13
32 16 34 66 34 109 0 385 32 439 51 164 57 275 201 337 436 23 87 26 118 27
278 l1 180 -58 170 c-83 244 -126 319 -274 476 -35 37 -63 69 -63 71 0 3 64 8
143 11 148 7 290 31 391 66 32 11 62 18 67 15 9 -5 155 82 166 99 2 4 -1 15
-8 24 -7 8 -13 25 -14 37 0 14 -7 22 -21 24 -16 2 -20 8 -16 28 6 30 -22 33
-58 4 -32 -25 -37 -25 -44 5 -12 47 -46 25 -46 -30 0 -20 -10 -27 -78 -49
-163 -55 -306 -71 -588 -67 l-81 1 -84 70 c-86 71 -125 99 -404 282 -213 140
-433 305 -523 392 -146 140 -248 303 -341 541 -71 182 -90 249 -136 475 -41
206 -77 291 -158 373 -75 77 -151 111 -252 114 -49 2 -98 -3 -126 -12z m186
-154 c76 -34 146 -142 165 -253 17 -103 90 -373 131 -482 53 -145 183 -410
250 -511 30 -44 90 -118 134 -164 90 -94 350 -293 574 -439 262 -171 277 -181
333 -224 171 -133 453 -408 518 -506 38 -55 62 -110 102 -230 l53 -157 0 -190
c0 -206 -9 -259 -63 -373 -36 -77 -113 -154 -177 -176 -77 -26 -396 -54 -756
-67 -270 -9 -373 -8 -595 4 -148 9 -306 15 -352 16 -193 1 -328 75 -436 240
-89 136 -104 197 -148 577 -41 361 -44 625 -10 967 18 182 23 299 25 575 3
538 -2 881 -14 1070 -6 95 -8 189 -5 208 8 41 59 102 101 120 43 19 123 17
170 -5z"/>
<path d="M2608 2826 c-33 -25 -21 -79 23 -102 62 -32 118 47 69 96 -23 23 -67
26 -92 6z"/>
<path d="M3122 2734 c-36 -25 -27 -76 18 -99 36 -18 67 -9 85 26 20 37 19 45
-7 69 -26 24 -65 26 -96 4z"/>
<path d="M2892 1848 c-17 -17 -15 -53 5 -69 19 -17 256 -23 284 -8 27 14 33
47 13 70 -15 17 -31 19 -154 19 -92 0 -140 -4 -148 -12z"/>
<path d="M5270 3997 c-145 -34 -240 -129 -269 -267 -30 -144 58 -299 207 -368
176 -81 446 36 498 216 30 103 -8 235 -90 317 -98 96 -218 132 -346 102z m123
-326 c12 -12 -6 -38 -34 -46 -26 -9 -49 11 -49 43 0 23 3 24 37 19 20 -4 41
-11 46 -16z"/>
</g>
</svg>
