<?xml version="1.0" standalone="no"?>
<!DOCTYPE svg PUBLIC "-//W3C//DTD SVG 20010904//EN"
 "http://www.w3.org/TR/2001/REC-SVG-20010904/DTD/svg10.dtd">
<svg version="1.0" xmlns="http://www.w3.org/2000/svg"
 width="600.000000pt" height="600.000000pt" viewBox="0 0 600.000000 600.000000"
 preserveAspectRatio="xMidYMid meet">
<metadata>
Created by potrace 1.15, written by Peter Selinger 2001-2017
</metadata>
<g transform="translate(0.000000,600.000000) scale(0.100000,-0.100000)"
fill="#16364b" stroke="none">
<path d="M3124 5632 c-17 -11 -38 -35 -47 -54 -31 -65 -67 -210 -67 -269 0
-122 67 -227 181 -283 41 -20 234 -77 289 -86 3 0 -62 -34 -143 -75 -82 -41
-185 -99 -230 -129 -94 -63 -260 -205 -279 -238 -11 -21 -20 -63 -34 -159 -13
-82 64 -175 176 -216 30 -12 123 -33 205 -47 83 -15 192 -36 243 -46 113 -24
144 -25 189 -3 104 49 117 214 22 272 -38 23 -99 35 -303 61 -88 11 -161 22
-163 24 -6 5 135 108 223 163 44 28 134 81 200 118 222 126 276 174 290 262 8
54 -10 106 -54 155 -63 70 -141 105 -337 152 -155 38 -175 48 -175 89 0 19 7
56 15 83 41 135 -7 233 -117 241 -40 3 -61 -1 -84 -15z"/>
<path d="M1386 5390 c-85 -47 -124 -76 -199 -149 -142 -137 -242 -335 -303
-596 -34 -143 -36 -233 -8 -271 53 -72 128 -91 204 -52 49 25 90 77 90 114 0
17 6 24 19 24 11 0 69 16 129 34 113 36 239 59 248 45 2 -4 -22 -76 -55 -161
-76 -196 -83 -226 -83 -323 l1 -80 -39 -22 c-75 -44 -103 -164 -53 -231 36
-49 70 -66 126 -66 46 0 80 14 307 128 140 71 266 138 278 150 75 68 68 189
-14 242 -42 28 -107 21 -197 -21 -43 -20 -82 -35 -87 -33 -5 2 11 50 36 108
84 193 107 274 108 375 1 67 -3 98 -16 120 -28 52 -77 93 -136 116 -51 19 -71
21 -187 16 -82 -3 -157 -12 -203 -24 -40 -11 -75 -17 -77 -14 -2 4 17 36 41
73 46 69 156 186 234 249 41 33 44 38 48 95 5 67 -8 102 -52 143 -36 34 -108
39 -160 11z"/>
<path d="M4615 4473 c-102 -14 -269 -45 -289 -54 -59 -27 -92 -125 -66 -190 8
-17 31 -44 53 -60 48 -35 96 -37 243 -14 53 9 98 14 101 11 14 -13 -118 -194
-242 -331 -86 -96 -95 -111 -95 -167 0 -108 118 -179 223 -134 61 26 310 329
394 480 128 228 107 400 -56 455 -32 10 -199 13 -266 4z"/>
<path d="M3846 3657 c-65 -37 -92 -113 -66 -184 6 -15 66 -83 133 -150 67 -67
136 -138 153 -158 26 -32 37 -38 80 -42 133 -12 209 123 135 239 -16 25 -49
62 -74 83 -35 29 -46 46 -50 75 -8 59 -35 90 -111 126 -85 41 -143 44 -200 11z"/>
<path d="M2535 3660 c-132 -18 -336 -114 -380 -178 -47 -69 -26 -168 46 -211
56 -34 92 -35 166 -3 123 53 234 80 262 63 30 -19 -12 -179 -87 -326 -22 -44
-93 -163 -157 -265 l-116 -185 3 -58 c3 -40 11 -66 26 -85 12 -15 36 -45 53
-67 40 -53 112 -95 165 -95 23 0 86 16 140 36 120 44 281 94 301 94 21 0 13
-20 -92 -230 -51 -102 -95 -199 -98 -217 -15 -76 45 -178 128 -217 56 -27 134
-18 182 21 70 56 241 402 284 575 27 106 23 219 -10 295 -27 61 -92 125 -159
156 -66 31 -204 30 -325 -2 -49 -12 -91 -21 -93 -18 -3 3 13 40 34 83 126 252
165 513 98 656 -64 135 -201 200 -371 178z"/>
<path d="M1127 3449 c-20 -5 -59 -20 -86 -33 -63 -32 -239 -163 -273 -204 -79
-94 -55 -226 52 -283 46 -25 134 -25 183 0 20 10 37 15 37 10 0 -5 -9 -42 -20
-83 -12 -41 -32 -134 -45 -208 -26 -147 -39 -204 -81 -353 -24 -84 -28 -120
-29 -221 0 -115 1 -122 28 -162 31 -47 83 -78 160 -93 70 -14 112 -13 148 1
42 18 221 251 407 531 100 151 185 268 194 269 14 0 21 -74 14 -159 -6 -91
-54 -405 -81 -531 -45 -214 -57 -422 -30 -501 40 -112 147 -159 239 -106 70
40 97 135 59 214 -21 45 -14 100 52 398 77 347 93 579 61 874 -24 218 -66 288
-177 299 -82 8 -128 -17 -238 -127 -142 -142 -238 -265 -358 -459 -8 -13 -17
-22 -19 -19 -9 8 46 255 92 412 74 259 64 370 -46 468 -72 65 -153 87 -243 66z"/>
<path d="M4547 3419 c-110 -18 -151 -138 -76 -223 22 -26 60 -46 162 -86 72
-29 151 -63 174 -77 36 -21 41 -27 34 -46 -5 -12 -54 -94 -110 -181 -90 -142
-101 -165 -101 -205 0 -86 56 -141 145 -141 62 0 87 25 229 237 129 193 152
247 144 348 -6 74 -32 127 -90 181 -66 64 -120 93 -262 141 -155 52 -198 61
-249 52z"/>
<path d="M3655 3194 c-106 -34 -201 -118 -253 -224 -37 -74 -38 -169 -4 -218
31 -43 77 -65 133 -66 64 0 107 29 145 95 23 40 35 53 50 51 64 -11 155 -12
192 -3 83 23 142 98 142 181 0 120 -94 190 -265 196 -63 3 -105 -1 -140 -12z"/>
<path d="M4606 2230 c-22 -11 -51 -30 -64 -43 -34 -31 -72 -115 -72 -159 0
-45 1 -44 -120 -23 -287 51 -460 17 -590 -114 -108 -109 -150 -227 -176 -494
-9 -95 -20 -176 -24 -180 -4 -5 -31 14 -61 40 -203 183 -337 254 -476 252 -79
-1 -115 -12 -177 -56 -58 -41 -118 -119 -178 -230 -26 -49 -48 -83 -48 -77 0
39 -23 233 -36 308 -18 112 -58 231 -90 274 -52 68 -168 97 -239 59 -62 -32
-115 -112 -115 -174 0 -15 11 -72 25 -128 13 -55 34 -172 45 -260 56 -436 151
-611 375 -694 129 -48 246 -25 302 61 24 36 28 53 30 122 1 66 10 103 43 200
51 147 86 219 103 209 7 -4 50 -39 96 -77 183 -155 239 -197 308 -232 61 -31
86 -38 151 -42 66 -4 85 -1 120 17 62 32 108 76 136 132 13 28 45 68 70 90 24
21 54 58 65 82 23 47 56 225 67 360 8 105 8 105 139 82 243 -42 284 -47 351
-42 181 13 323 154 354 352 14 88 4 205 -22 267 -21 50 -81 112 -124 128 -42
16 -126 11 -168 -10z"/>
</g>
</svg>
