<?xml version="1.0" standalone="no"?>
<!DOCTYPE svg PUBLIC "-//W3C//DTD SVG 20010904//EN"
 "http://www.w3.org/TR/2001/REC-SVG-20010904/DTD/svg10.dtd">
<svg version="1.0" xmlns="http://www.w3.org/2000/svg"
 width="600.000000pt" height="600.000000pt" viewBox="0 0 600.000000 600.000000"
 preserveAspectRatio="xMidYMid meet">
<metadata>
Created by potrace 1.15, written by Peter Selinger 2001-2017
</metadata>
<g transform="translate(0.000000,600.000000) scale(0.100000,-0.100000)"
fill="#16364b" stroke="none">
<path d="M3110 5652 c-41 -20 -80 -83 -80 -130 0 -63 28 -98 218 -267 203
-180 272 -254 272 -290 0 -32 -82 -105 -244 -214 -74 -50 -137 -91 -141 -91
-3 0 -18 9 -34 21 -56 41 -153 19 -305 -69 -124 -72 -185 -149 -193 -243 -11
-114 70 -221 197 -260 44 -13 77 -18 103 -14 110 19 150 153 71 236 l-27 28
37 18 c24 11 40 14 44 7 21 -29 68 -54 104 -54 49 0 74 13 223 115 66 45 169
115 230 156 197 133 255 211 255 345 0 64 -4 81 -40 150 -53 106 -125 190
-266 309 -65 55 -149 127 -187 160 -116 102 -169 122 -237 87z"/>
<path d="M1850 5432 c-35 -17 -73 -76 -85 -132 -3 -14 -50 -79 -105 -145 -181
-218 -223 -353 -150 -484 48 -85 127 -116 279 -108 108 5 351 58 434 94 81 35
113 141 65 213 -58 85 -113 95 -287 51 -124 -31 -161 -37 -161 -24 0 3 44 66
99 138 123 164 135 186 135 256 1 46 -4 62 -28 93 -48 64 -127 83 -196 48z"/>
<path d="M1105 5335 c-168 -95 -309 -265 -350 -420 -44 -172 13 -404 132 -536
62 -68 142 -75 208 -18 63 56 68 134 15 219 -113 181 -63 372 125 480 61 35
79 53 100 103 20 49 19 90 -5 137 -40 79 -126 92 -225 35z"/>
<path d="M4626 4750 c-63 -19 -115 -100 -101 -158 3 -15 17 -43 29 -62 23 -35
23 -36 5 -70 -39 -73 -12 -155 73 -219 80 -60 141 -84 229 -89 170 -10 307 78
338 218 36 165 -115 292 -443 370 -90 22 -89 22 -130 10z"/>
<path d="M1889 4309 c-135 -20 -273 -87 -378 -184 -68 -64 -85 -99 -79 -159 7
-55 32 -90 84 -116 74 -37 139 -22 215 49 67 63 156 104 221 101 126 -6 137
-5 164 16 72 53 91 128 52 204 -39 76 -145 110 -279 89z"/>
<path d="M2501 3749 c-180 -47 -222 -80 -229 -180 -5 -70 19 -118 72 -143 47
-22 88 -20 180 9 82 27 192 46 214 38 30 -12 -3 -107 -88 -248 -68 -113 -240
-372 -295 -445 -58 -76 -75 -112 -75 -160 0 -106 94 -173 194 -140 46 15 69
44 286 355 166 239 226 334 256 404 51 119 62 237 30 331 -26 75 -110 159
-189 188 -87 33 -209 30 -356 -9z"/>
<path d="M4084 3741 c-95 -23 -193 -106 -214 -180 -37 -134 45 -283 197 -358
50 -24 70 -28 143 -28 68 0 93 5 125 22 80 42 167 159 205 276 14 43 0 117
-26 138 -8 6 -14 22 -14 34 0 34 -46 83 -88 95 -42 11 -281 12 -328 1z"/>
<path d="M1200 3620 c-84 -11 -165 -37 -262 -86 -118 -59 -164 -102 -184 -170
-30 -105 11 -198 108 -239 45 -18 81 -19 131 -1 20 8 37 10 37 5 0 -4 -15 -56
-34 -116 -247 -773 -260 -835 -203 -921 15 -23 45 -51 67 -62 52 -27 146 -36
195 -20 52 17 176 138 359 350 83 96 196 221 251 278 55 57 102 108 103 113 2
5 8 9 13 9 17 0 9 -61 -32 -264 -49 -247 -67 -320 -125 -510 -79 -258 -91
-367 -51 -446 43 -86 136 -116 207 -67 50 33 69 74 85 179 8 51 37 168 65 261
60 199 76 266 136 559 52 257 62 369 45 488 -18 121 -63 199 -136 237 -44 24
-132 20 -185 -7 -43 -22 -215 -187 -379 -364 -45 -48 -83 -87 -85 -85 -2 2 25
72 61 154 160 375 180 520 88 641 -49 64 -160 98 -275 84z"/>
<path d="M3580 3311 c-110 -34 -197 -143 -234 -292 -30 -122 -18 -185 46 -232
57 -42 133 -42 189 1 13 10 53 24 89 30 139 25 245 104 275 206 46 153 -94
298 -284 295 -31 0 -67 -4 -81 -8z"/>
<path d="M4749 2920 c-45 -24 -86 -71 -112 -129 -16 -36 -18 -60 -15 -123 4
-68 11 -90 47 -162 45 -90 107 -161 158 -182 87 -37 177 -2 209 81 15 40 16
55 6 108 -13 70 -33 102 -85 136 -33 22 -35 26 -23 40 8 9 20 37 27 63 12 42
11 53 -7 95 -36 86 -122 117 -205 73z"/>
<path d="M2902 2549 c-30 -5 -88 -21 -130 -35 -101 -33 -389 -184 -426 -223
-16 -17 -34 -52 -42 -80 -34 -133 69 -258 196 -237 19 3 96 36 170 74 129 64
268 118 289 110 11 -4 -45 -149 -132 -339 -59 -128 -67 -153 -67 -205 0 -70
26 -122 83 -168 31 -25 49 -31 101 -34 115 -7 137 15 248 258 133 291 172 416
172 555 1 85 -3 108 -23 153 -29 65 -104 134 -169 157 -57 20 -197 28 -270 14z"/>
<path d="M4450 2360 c-105 -21 -176 -91 -195 -190 -3 -19 1 -66 9 -105 8 -38
12 -73 10 -77 -2 -4 -21 -1 -42 6 -21 8 -81 24 -135 36 -139 32 -250 26 -339
-18 -101 -50 -184 -152 -214 -264 -18 -69 -18 -246 1 -421 18 -171 29 -207 77
-262 104 -118 282 -118 372 1 57 74 62 111 41 304 -9 92 -16 172 -14 178 4 11
57 -6 219 -67 63 -23 138 -26 226 -8 115 24 195 92 251 213 23 49 28 76 31
159 5 115 -28 336 -58 395 -46 88 -146 138 -240 120z"/>
<path d="M2089 1847 c-95 -51 -128 -170 -76 -273 14 -27 33 -83 42 -124 77
-339 139 -479 259 -587 28 -25 101 -79 161 -120 61 -40 135 -94 165 -119 30
-24 79 -58 108 -74 28 -17 76 -44 106 -60 159 -89 332 -89 512 0 139 68 190
149 160 253 -40 138 -181 184 -306 101 -67 -44 -94 -42 -205 15 -161 84 -181
103 -220 200 -67 167 -162 261 -265 261 -18 0 -33 7 -39 18 -5 10 -28 90 -51
177 -44 165 -79 249 -124 298 -56 60 -151 74 -227 34z"/>
</g>
</svg>
