<?xml version="1.0" standalone="no"?>
<!DOCTYPE svg PUBLIC "-//W3C//DTD SVG 20010904//EN"
 "http://www.w3.org/TR/2001/REC-SVG-20010904/DTD/svg10.dtd">
<svg version="1.0" xmlns="http://www.w3.org/2000/svg"
 width="600.000000pt" height="600.000000pt" viewBox="0 0 600.000000 600.000000"
 preserveAspectRatio="xMidYMid meet">
<metadata>
Created by potrace 1.15, written by Peter Selinger 2001-2017
</metadata>
<g transform="translate(0.000000,600.000000) scale(0.100000,-0.100000)"
fill="#16364b" stroke="none">
<path d="M1508 5780 c-30 -23 -192 -267 -239 -360 -55 -107 -42 -190 37 -230
40 -20 107 -16 157 10 112 58 412 257 429 285 24 40 23 75 -5 116 -48 71 -102
74 -197 9 -33 -22 -60 -38 -60 -34 0 3 10 19 21 36 12 16 24 50 27 74 4 39 1
47 -31 79 -28 28 -43 35 -75 35 -24 0 -49 -8 -64 -20z"/>
<path d="M2378 5443 c-40 -25 -48 -54 -48 -176 0 -145 -15 -282 -41 -381 -44
-173 -107 -257 -242 -323 -47 -23 -94 -54 -106 -69 -53 -68 5 -174 96 -174 41
0 221 92 270 138 102 96 193 302 228 517 20 123 20 362 0 413 -26 65 -99 91
-157 55z"/>
<path d="M3523 5330 c-39 -16 -78 -89 -76 -142 4 -141 162 -298 300 -298 46 0
58 4 89 33 29 26 37 42 41 80 12 105 -121 284 -238 320 -62 19 -83 20 -116 7z"/>
<path d="M3009 5144 c-61 -18 -124 -82 -162 -162 -25 -54 -29 -72 -25 -130 4
-79 28 -120 85 -148 102 -48 277 18 302 114 44 168 4 302 -100 332 -41 12 -43
12 -100 -6z"/>
<path d="M4751 4763 c-54 -27 -65 -66 -58 -213 15 -333 143 -520 348 -508 56
3 76 9 110 33 61 44 84 93 84 185 0 63 -5 85 -32 142 -63 134 -152 235 -281
321 -83 56 -123 65 -171 40z m239 -450 c0 -22 -8 -14 -19 20 -10 29 -9 30 4
13 8 -11 15 -26 15 -33z"/>
<path d="M2721 4220 c-110 -23 -207 -101 -230 -183 -40 -143 53 -286 207 -318
116 -24 238 22 360 136 107 99 134 171 96 252 -22 46 -46 60 -151 89 -99 28
-217 38 -282 24z"/>
<path d="M1056 4076 c-44 -45 -55 -101 -29 -153 25 -51 55 -70 153 -94 47 -11
96 -28 109 -36 l24 -16 -24 -13 c-47 -27 -153 -54 -247 -65 -53 -6 -108 -17
-123 -25 -99 -51 -90 -183 15 -237 37 -19 46 -20 150 -9 249 26 407 97 471
213 25 45 30 65 30 124 0 157 -108 264 -325 324 -41 12 -96 21 -122 21 -41 0
-52 -5 -82 -34z"/>
<path d="M4225 3761 c-78 -22 -109 -40 -167 -90 -162 -143 -126 -397 71 -488
46 -22 63 -25 130 -21 176 10 304 134 346 333 26 125 17 193 -32 237 -50 46
-237 61 -348 29z m85 -281 c-9 -18 -40 -40 -54 -40 -15 0 -4 31 16 44 33 23
51 21 38 -4z"/>
<path d="M1663 3689 c-63 -18 -94 -88 -94 -213 0 -174 105 -297 255 -296 128
1 223 130 196 269 -34 181 -192 288 -357 240z"/>
<path d="M5240 3630 c-112 -19 -225 -78 -274 -143 -60 -81 -85 -183 -65 -275
31 -154 133 -242 279 -242 139 0 266 83 327 215 38 82 40 196 4 268 -30 57
-151 177 -179 177 -11 0 -26 2 -34 4 -7 2 -33 0 -58 -4z m0 -317 c0 -10 -32
-43 -42 -43 -15 0 -8 29 10 39 20 12 32 14 32 4z"/>
<path d="M3414 3381 c-45 -27 -75 -71 -133 -190 -64 -130 -66 -168 -17 -217
42 -42 75 -44 150 -8 72 34 119 83 161 167 28 56 35 81 35 128 0 53 -3 63 -33
95 -28 31 -41 37 -83 41 -37 3 -57 -1 -80 -16z"/>
<path d="M2600 3230 c-261 -36 -338 -71 -530 -235 -101 -86 -163 -130 -220
-157 -256 -119 -358 -188 -459 -310 -135 -163 -209 -417 -181 -624 14 -112 62
-239 123 -332 54 -81 317 -365 410 -443 107 -90 283 -159 450 -178 147 -17
337 19 498 92 169 77 393 252 540 422 72 84 157 192 184 235 16 25 45 68 66
95 85 114 122 225 121 362 0 115 -22 211 -73 320 -39 86 -156 263 -241 364
-27 33 -56 81 -65 109 -32 98 -201 226 -350 264 -79 21 -191 27 -273 16z m294
-524 c208 -207 321 -377 333 -499 5 -59 -8 -89 -87 -196 -25 -34 -77 -106
-117 -160 -107 -146 -199 -239 -311 -314 -197 -134 -359 -193 -501 -185 -100
6 -147 28 -279 130 -163 126 -305 268 -332 330 -48 112 -35 219 43 357 44 78
146 182 208 213 19 9 81 39 139 67 120 59 196 113 327 235 105 97 148 127 218
151 61 20 152 34 184 27 14 -3 90 -71 175 -156z"/>
<path d="M403 2260 c-13 -5 -32 -24 -43 -42 -25 -40 -22 -77 15 -199 76 -243
227 -444 375 -500 95 -36 215 -24 273 29 82 74 72 220 -22 340 -55 70 -238
206 -453 336 -77 46 -103 53 -145 36z m407 -486 c37 -42 33 -55 -8 -26 -29 21
-102 105 -102 117 0 11 75 -52 110 -91z"/>
<path d="M4482 1861 l-40 -30 -38 20 c-47 23 -95 24 -140 3 -79 -38 -96 -112
-70 -310 32 -245 97 -359 217 -379 48 -8 113 11 145 44 15 14 37 47 50 72 42
85 120 438 108 494 -22 103 -144 149 -232 86z"/>
</g>
</svg>
