<?xml version="1.0" standalone="no"?>
<!DOCTYPE svg PUBLIC "-//W3C//DTD SVG 20010904//EN"
 "http://www.w3.org/TR/2001/REC-SVG-20010904/DTD/svg10.dtd">
<svg version="1.0" xmlns="http://www.w3.org/2000/svg"
 width="600.000000pt" height="600.000000pt" viewBox="0 0 600.000000 600.000000"
 preserveAspectRatio="xMidYMid meet">
<metadata>
Created by potrace 1.15, written by Peter Selinger 2001-2017
</metadata>
<g transform="translate(0.000000,600.000000) scale(0.100000,-0.100000)"
fill="#16364b" stroke="none">
<path d="M1526 5759 c-51 -40 -208 -385 -222 -485 -8 -66 20 -135 65 -158 45
-24 114 -20 170 9 77 38 204 139 329 260 115 111 115 111 115 158 0 55 -26 90
-79 107 -49 16 -104 -13 -189 -99 -38 -39 -73 -71 -77 -71 -5 0 10 36 32 80
45 89 49 121 21 164 -39 58 -115 74 -165 35z"/>
<path d="M2375 5456 c-60 -26 -63 -39 -68 -302 -3 -188 -8 -253 -22 -304 -40
-148 -112 -238 -241 -303 -91 -46 -109 -67 -109 -127 0 -34 6 -55 20 -70 28
-32 80 -52 113 -44 58 14 188 90 246 145 151 142 208 325 222 714 5 160 4 196
-9 227 -26 62 -94 90 -152 64z"/>
<path d="M3496 5317 c-35 -36 -50 -99 -36 -155 39 -157 187 -302 308 -302 123
0 170 111 101 240 -78 147 -180 228 -296 238 -45 4 -55 1 -77 -21z"/>
<path d="M2965 5157 c-56 -27 -122 -94 -156 -159 -18 -33 -23 -60 -24 -119 0
-66 3 -81 28 -117 38 -58 95 -86 178 -86 56 0 77 5 135 34 98 50 107 66 112
205 5 138 -9 190 -65 232 -51 39 -139 43 -208 10z"/>
<path d="M4761 4777 c-13 -6 -34 -25 -45 -40 -19 -26 -21 -41 -20 -175 2 -212
34 -327 120 -422 100 -111 278 -123 376 -26 47 48 63 93 63 182 0 73 -4 88
-38 157 -42 85 -117 167 -218 239 -128 92 -186 112 -238 85z m229 -427 c11
-21 16 -41 11 -44 -8 -5 -51 69 -51 88 0 16 21 -7 40 -44z"/>
<path d="M2675 4226 c-55 -17 -80 -32 -127 -74 -57 -52 -82 -105 -83 -177 -1
-145 139 -257 321 -258 73 -1 89 3 149 32 93 46 229 178 245 239 8 30 8 53 0
81 -12 44 -63 99 -100 107 -14 4 -45 13 -70 21 -134 43 -256 54 -335 29z"/>
<path d="M1075 4096 c-65 -29 -105 -106 -91 -174 10 -44 63 -89 121 -103 122
-29 186 -51 183 -62 -7 -22 -146 -83 -278 -122 -72 -21 -142 -47 -156 -57 -36
-29 -54 -71 -54 -125 0 -85 57 -143 141 -143 34 0 159 30 259 62 92 29 206 90
277 147 l61 50 -15 -45 c-19 -56 -14 -155 11 -205 31 -65 84 -117 153 -151 57
-28 77 -33 142 -33 125 0 221 58 277 168 108 210 -25 436 -258 439 -70 1 -121
-14 -192 -57 -33 -19 -61 -34 -63 -32 -2 3 1 17 8 33 18 48 13 136 -10 182
-51 100 -130 153 -302 203 -127 36 -177 42 -214 25z"/>
<path d="M4219 3760 c-77 -13 -154 -56 -208 -115 -122 -134 -122 -319 -1 -429
65 -59 122 -81 210 -81 65 0 84 4 141 32 120 59 206 181 228 323 27 165 -4
217 -149 255 -70 19 -166 25 -221 15z m51 -299 c0 -16 -31 -41 -51 -41 -25 0
-24 15 3 34 25 18 48 21 48 7z"/>
<path d="M5140 3557 c-237 -81 -345 -281 -252 -469 38 -77 92 -130 169 -165
188 -86 427 92 441 328 4 67 1 84 -21 132 -28 61 -127 170 -171 186 -42 17
-94 13 -166 -12z m41 -340 c-16 -16 -26 0 -10 19 9 11 15 12 17 4 2 -6 -1 -17
-7 -23z"/>
<path d="M2579 3511 c-114 -23 -233 -126 -306 -267 -37 -71 -52 -114 -110
-312 -25 -83 -86 -143 -201 -198 -236 -113 -415 -279 -531 -494 -85 -159 -122
-296 -122 -457 0 -256 88 -475 255 -630 350 -328 822 -354 1201 -68 166 125
259 240 325 404 70 171 130 488 137 722 10 301 -53 739 -137 956 -95 245 -302
384 -511 344z m105 -420 c25 -27 83 -225 111 -377 35 -190 45 -351 35 -544
-24 -429 -114 -641 -335 -789 -102 -68 -171 -92 -280 -98 -74 -4 -101 -1 -152
16 -139 47 -277 158 -326 262 -88 188 -38 431 132 645 58 71 118 115 219 158
135 57 213 105 289 181 88 88 128 166 173 339 39 147 75 226 105 226 6 0 20
-8 29 -19z"/>
<path d="M3424 3376 c-16 -7 -46 -32 -65 -54 -51 -60 -131 -211 -136 -258 -5
-35 -1 -46 27 -77 40 -46 80 -54 153 -33 63 18 108 52 141 105 55 87 73 215
39 272 -31 52 -98 71 -159 45z"/>
<path d="M395 2311 c-11 -5 -31 -21 -45 -36 -36 -39 -32 -103 13 -238 93 -275
270 -524 423 -594 46 -21 67 -25 123 -21 92 5 143 38 178 115 22 48 25 65 20
127 -13 170 -120 320 -332 461 -129 86 -303 185 -333 190 -15 2 -36 1 -47 -4z
m392 -500 c95 -117 102 -183 7 -78 -48 53 -124 163 -124 179 0 17 72 -45 117
-101z"/>
<path d="M4345 2038 c-11 -6 -32 -21 -46 -35 -23 -22 -27 -22 -39 -8 -41 49
-135 60 -190 22 -80 -53 -88 -112 -50 -337 52 -308 101 -411 210 -440 106 -28
206 57 259 221 16 51 71 386 71 437 0 52 -19 91 -60 126 -25 21 -42 26 -83 26
-29 0 -61 -6 -72 -12z"/>
</g>
</svg>
