<?xml version="1.0" standalone="no"?>
<!DOCTYPE svg PUBLIC "-//W3C//DTD SVG 20010904//EN"
 "http://www.w3.org/TR/2001/REC-SVG-20010904/DTD/svg10.dtd">
<svg version="1.0" xmlns="http://www.w3.org/2000/svg"
 width="600.000000pt" height="600.000000pt" viewBox="0 0 600.000000 600.000000"
 preserveAspectRatio="xMidYMid meet">
<metadata>
Created by potrace 1.15, written by Peter Selinger 2001-2017
</metadata>
<g transform="translate(0.000000,600.000000) scale(0.100000,-0.100000)"
fill="#16364b" stroke="none">
<path d="M2264 5456 c-42 -19 -68 -58 -100 -152 -57 -172 -9 -325 121 -380 51
-21 177 -21 299 1 49 8 91 14 93 11 3 -2 -37 -71 -88 -153 -109 -173 -231
-406 -254 -486 -20 -70 -9 -124 36 -161 29 -25 29 -26 14 -55 -8 -17 -15 -52
-15 -79 0 -41 5 -55 28 -80 16 -17 47 -35 70 -42 39 -10 61 -6 270 49 264 70
370 95 504 121 53 10 110 26 127 34 36 19 69 64 77 104 14 67 -48 154 -118
167 -40 8 -191 -16 -313 -48 -312 -84 -376 -100 -381 -95 -7 7 84 197 140 291
24 40 79 131 122 202 97 158 112 188 125 260 20 107 -42 225 -144 274 -58 28
-169 27 -312 -3 -60 -13 -111 -22 -113 -21 -2 2 4 25 13 53 20 61 9 115 -32
154 -50 48 -110 59 -169 34z"/>
<path d="M3899 5076 c-77 -16 -188 -59 -242 -93 -100 -63 -102 -193 -5 -253
48 -29 89 -25 175 17 94 46 177 57 187 25 14 -42 -37 -243 -103 -405 -37 -92
-39 -126 -9 -179 30 -52 79 -81 139 -82 84 -2 125 44 184 205 59 162 95 320
96 424 1 100 -5 132 -33 188 -67 133 -211 190 -389 153z"/>
<path d="M1728 4950 c-128 -23 -326 -113 -471 -216 -84 -60 -116 -107 -117
-172 0 -39 20 -92 43 -110 9 -8 27 -38 41 -67 31 -69 55 -80 191 -94 262 -26
358 -58 463 -153 66 -60 108 -76 159 -63 93 23 152 151 108 234 -23 45 -122
127 -204 170 -74 38 -200 82 -274 96 -20 4 -34 11 -31 16 11 18 141 50 220 53
97 5 132 24 164 86 25 48 25 83 1 136 -30 66 -71 89 -166 91 -44 1 -101 -2
-127 -7z"/>
<path d="M4520 4229 c-115 -12 -312 -57 -339 -77 -90 -67 -93 -201 -7 -253 41
-25 79 -24 227 6 155 32 268 42 297 26 40 -21 27 -111 -48 -351 -22 -69 -40
-143 -40 -164 0 -106 96 -179 194 -146 56 18 79 60 120 215 20 77 47 181 61
230 96 346 -92 553 -465 514z"/>
<path d="M2076 3879 c-96 -31 -238 -54 -404 -65 -120 -8 -174 -30 -209 -83
-65 -97 11 -231 131 -231 81 0 327 32 424 55 201 48 292 99 312 175 17 65 -17
142 -75 166 -47 19 -76 17 -179 -17z"/>
<path d="M3685 3726 c-67 -17 -144 -54 -304 -148 -73 -43 -159 -92 -190 -107
-109 -56 -148 -124 -116 -207 21 -54 63 -86 124 -92 44 -4 62 3 259 103 117
59 216 105 219 101 7 -7 -37 -132 -80 -226 -35 -76 -38 -134 -11 -180 54 -93
168 -106 241 -28 32 34 119 244 148 355 27 104 33 229 14 298 -7 23 -28 57
-53 81 -61 62 -140 78 -251 50z"/>
<path d="M2175 3279 c-140 -21 -163 -31 -203 -90 -47 -68 -7 -181 77 -217 33
-14 51 -13 191 2 245 26 246 26 216 -68 -22 -72 -20 -117 7 -156 52 -77 129
-98 207 -58 79 40 120 132 120 267 0 207 -167 344 -414 340 -39 -1 -129 -10
-201 -20z"/>
<path d="M4235 3181 c-11 -5 -48 -41 -83 -80 -134 -151 -340 -256 -540 -277
-82 -9 -131 -38 -160 -94 -39 -77 -17 -150 58 -192 80 -45 376 11 565 105 130
65 277 189 349 294 54 80 42 176 -27 225 -33 24 -126 35 -162 19z"/>
<path d="M4892 3157 c-19 -6 -53 -30 -76 -53 -59 -58 -79 -126 -70 -228 l7
-76 -34 -29 c-19 -16 -83 -71 -144 -123 -161 -137 -249 -264 -291 -418 -22
-81 -25 -262 -5 -340 29 -116 97 -217 168 -246 39 -17 142 -18 194 -3 52 16
108 64 130 113 30 66 25 133 -16 212 -39 75 -44 125 -20 195 20 57 28 65 176
180 187 145 248 223 288 369 24 84 28 238 10 305 -14 52 -90 126 -145 143 -49
14 -126 14 -172 -1z"/>
<path d="M1225 3038 c-51 -19 -82 -46 -104 -91 -24 -49 -26 -75 -10 -132 11
-38 77 -117 107 -126 10 -3 15 -65 23 -264 5 -143 14 -298 19 -345 13 -103 54
-273 81 -335 81 -182 378 -121 379 78 0 21 -13 70 -30 109 -40 94 -39 104 8
72 31 -22 45 -25 90 -22 63 6 93 31 148 125 21 35 64 89 97 120 l59 56 25 -44
c13 -24 29 -47 35 -50 12 -8 10 -20 -23 -134 -21 -74 -23 -98 -22 -307 0 -205
2 -230 20 -260 60 -102 193 -105 267 -5 19 25 22 48 28 205 5 152 11 194 37
297 42 161 40 194 -9 250 -10 11 -20 42 -22 70 -3 28 -16 76 -30 107 -86 186
-286 239 -476 125 -77 -46 -181 -159 -238 -260 -27 -48 -52 -87 -55 -87 -10 0
-20 146 -28 400 -9 257 -15 287 -75 364 -40 52 -119 88 -205 92 -36 2 -79 -1
-96 -8z"/>
<path d="M3523 2258 c-51 -4 -173 -26 -270 -48 -98 -23 -250 -55 -338 -71
-182 -34 -221 -53 -256 -121 -62 -121 14 -271 143 -285 29 -3 141 15 338 55
331 68 482 90 488 72 9 -25 67 -82 101 -99 55 -28 97 -34 152 -21 127 31 169
152 110 311 -61 161 -209 227 -468 207z"/>
<path d="M4463 1575 c-18 -8 -55 -34 -81 -59 -78 -73 -100 -79 -312 -83 -219
-3 -297 -19 -435 -87 -146 -72 -372 -230 -447 -314 -21 -23 -51 -43 -77 -50
-24 -8 -65 -34 -98 -64 -115 -104 -214 -120 -345 -55 -95 47 -209 151 -274
250 -65 100 -81 116 -139 132 -123 35 -235 -48 -243 -181 -5 -75 14 -118 107
-248 200 -280 578 -432 871 -349 118 33 238 101 325 183 32 30 66 51 95 60 36
10 64 31 138 106 107 108 179 160 277 199 62 25 89 29 240 37 264 13 316 22
410 68 109 52 217 154 235 220 27 99 -9 191 -91 232 -41 21 -112 23 -156 3z"/>
</g>
</svg>
