<?xml version="1.0" standalone="no"?>
<!DOCTYPE svg PUBLIC "-//W3C//DTD SVG 20010904//EN"
 "http://www.w3.org/TR/2001/REC-SVG-20010904/DTD/svg10.dtd">
<svg version="1.0" xmlns="http://www.w3.org/2000/svg"
 width="600.000000pt" height="600.000000pt" viewBox="0 0 600.000000 600.000000"
 preserveAspectRatio="xMidYMid meet">
<metadata>
Created by potrace 1.15, written by Peter Selinger 2001-2017
</metadata>
<g transform="translate(0.000000,600.000000) scale(0.100000,-0.100000)"
fill="#16364b" stroke="none">
<path d="M1465 5718 c-95 -98 -233 -273 -257 -327 -24 -52 -19 -103 13 -137
54 -57 133 -39 409 95 218 106 240 124 240 187 0 90 -80 130 -170 84 -51 -26
-56 -25 -35 7 27 41 25 106 -4 137 -20 21 -34 26 -75 26 -49 0 -52 -1 -121
-72z"/>
<path d="M2375 5441 c-11 -5 -29 -19 -40 -31 -18 -20 -21 -41 -27 -224 -5
-156 -11 -219 -27 -279 -46 -174 -116 -269 -251 -343 -58 -31 -79 -49 -93 -77
-23 -45 -16 -85 20 -121 43 -43 92 -36 197 26 240 143 349 385 363 803 6 180
1 205 -49 235 -35 21 -60 24 -93 11z"/>
<path d="M3534 5326 c-33 -15 -71 -71 -81 -117 -7 -37 20 -121 59 -182 43 -67
127 -133 195 -153 51 -15 58 -15 99 1 85 32 99 120 39 241 -49 100 -112 168
-180 193 -80 30 -97 32 -131 17z"/>
<path d="M2962 5112 c-160 -63 -228 -298 -114 -394 70 -59 161 -61 270 -8 71
36 85 56 102 149 21 115 -16 213 -94 250 -51 25 -106 26 -164 3z"/>
<path d="M4765 4761 c-11 -5 -31 -21 -45 -36 -24 -26 -25 -32 -23 -148 1 -139
23 -238 73 -336 65 -130 145 -186 254 -179 75 4 120 31 160 91 84 130 15 330
-167 487 -124 106 -201 143 -252 121z"/>
<path d="M2690 4231 c-57 -13 -93 -31 -123 -59 -120 -113 -86 -327 63 -405 52
-28 60 -29 155 -25 91 4 108 8 177 41 87 42 193 134 215 184 26 64 10 145 -38
190 -53 48 -349 97 -449 74z"/>
<path d="M1085 4110 c-84 -34 -101 -173 -28 -230 14 -11 62 -31 106 -45 95
-29 116 -40 102 -53 -24 -23 -96 -35 -194 -34 -114 1 -144 -8 -180 -54 -15
-19 -21 -41 -21 -75 0 -42 5 -55 34 -87 l35 -37 138 0 c108 0 150 4 193 18
184 62 289 166 290 285 0 122 -101 214 -320 289 -98 34 -121 37 -155 23z"/>
<path d="M4213 3770 c-201 -41 -328 -240 -268 -419 24 -74 100 -154 173 -181
166 -63 378 36 441 205 26 70 43 212 31 256 -12 42 -45 76 -95 98 -82 36 -212
55 -282 41z m58 -309 c-16 -29 -61 -42 -61 -18 0 20 22 37 47 37 20 0 22 -3
14 -19z"/>
<path d="M1630 3702 c-57 -30 -72 -71 -67 -182 8 -194 97 -320 227 -320 106 0
191 112 176 233 -13 116 -110 236 -218 270 -68 21 -75 21 -118 -1z"/>
<path d="M5170 3682 c-125 -33 -220 -113 -260 -218 -58 -155 26 -350 177 -415
83 -35 227 -19 312 36 56 36 118 105 143 160 18 40 23 67 23 140 0 80 -3 95
-27 136 -29 50 -119 131 -176 161 -44 22 -106 22 -192 0z m80 -306 c0 -19 -27
-46 -46 -46 -20 0 -17 17 6 40 23 23 40 26 40 6z"/>
<path d="M3413 3361 c-69 -50 -191 -267 -178 -318 31 -127 206 -116 297 18 41
61 68 143 68 205 0 50 -3 59 -34 90 -45 45 -95 47 -153 5z"/>
<path d="M2370 3070 c-201 -20 -259 -31 -388 -72 -103 -33 -361 -141 -463
-194 -346 -182 -494 -600 -333 -943 49 -106 91 -158 212 -264 131 -115 238
-225 329 -337 82 -101 163 -169 258 -215 110 -54 181 -69 310 -62 192 9 330
56 591 201 472 260 866 559 951 722 133 253 47 556 -227 805 -107 97 -181 147
-310 213 -143 72 -307 132 -415 150 -114 20 -288 19 -515 -4z m450 -404 c154
-28 328 -102 450 -192 90 -66 198 -172 221 -216 51 -100 1 -199 -181 -352
-209 -178 -346 -264 -630 -399 -226 -107 -301 -131 -410 -130 -124 1 -179 33
-272 156 -106 141 -167 205 -305 320 -162 135 -188 176 -186 292 2 161 88 275
261 345 42 17 124 51 182 75 119 50 257 91 345 104 98 14 441 12 525 -3z"/>
<path d="M424 2211 c-47 -29 -60 -76 -39 -148 73 -259 214 -471 360 -539 37
-18 68 -24 117 -24 60 0 71 3 110 33 33 25 47 45 61 87 17 50 17 59 2 124 -27
121 -108 234 -229 320 -87 62 -290 166 -323 166 -15 0 -42 -9 -59 -19z m358
-435 c10 -19 10 -20 -6 -7 -9 8 -22 24 -28 35 -10 19 -10 20 6 7 9 -8 22 -24
28 -35z"/>
<path d="M4645 1756 c-17 -7 -36 -20 -44 -30 -13 -15 -16 -15 -40 1 -15 10
-46 17 -74 17 -51 0 -85 -19 -121 -68 -43 -57 -28 -261 29 -389 59 -135 172
-198 272 -150 64 30 85 82 134 341 l33 174 -19 36 c-24 43 -78 82 -114 82 -14
-1 -40 -7 -56 -14z"/>
</g>
</svg>
