<?xml version="1.0" standalone="no"?>
<!DOCTYPE svg PUBLIC "-//W3C//DTD SVG 20010904//EN"
 "http://www.w3.org/TR/2001/REC-SVG-20010904/DTD/svg10.dtd">
<svg version="1.0" xmlns="http://www.w3.org/2000/svg"
 width="600.000000pt" height="600.000000pt" viewBox="0 0 600.000000 600.000000"
 preserveAspectRatio="xMidYMid meet">
<metadata>
Created by potrace 1.15, written by Peter Selinger 2001-2017
</metadata>
<g transform="translate(0.000000,600.000000) scale(0.100000,-0.100000)"
fill="#16364b" stroke="none">
<path d="M1463 5732 c-43 -32 -123 -88 -178 -126 -170 -117 -205 -164 -175
-237 31 -74 74 -75 365 -9 284 64 290 66 315 97 32 41 27 88 -15 130 -34 34
-38 35 -86 30 -49 -6 -49 -6 -34 16 8 12 15 39 15 60 0 31 -7 45 -31 68 -49
45 -83 40 -176 -29z"/>
<path d="M2368 5413 c-15 -10 -32 -29 -37 -43 -5 -14 -12 -106 -15 -205 -6
-214 -29 -336 -81 -441 -40 -82 -91 -133 -191 -192 -89 -52 -111 -94 -82 -157
12 -27 55 -55 83 -55 10 0 54 19 98 42 163 84 279 233 326 418 39 156 66 530
42 589 -24 58 -89 77 -143 44z"/>
<path d="M3523 5315 c-12 -8 -29 -35 -38 -60 -17 -42 -17 -47 0 -97 22 -69 48
-111 110 -177 90 -96 183 -119 247 -62 30 27 33 34 33 88 0 50 -5 67 -40 123
-93 153 -236 238 -312 185z"/>
<path d="M2985 5136 c-60 -28 -129 -100 -158 -164 -13 -30 -22 -75 -25 -127
-3 -72 -1 -84 20 -115 59 -87 141 -90 262 -9 59 39 78 59 96 96 50 106 62 203
32 263 -39 79 -131 101 -227 56z m27 -238 c-7 -7 -12 -8 -12 -2 0 6 3 14 7 17
3 4 9 5 12 2 2 -3 -1 -11 -7 -17z"/>
<path d="M4757 4734 c-30 -30 -34 -50 -40 -189 -6 -128 7 -259 33 -328 46
-122 164 -191 284 -165 91 19 146 94 146 199 -1 143 -113 347 -256 463 -47 39
-63 46 -99 46 -32 0 -48 -6 -68 -26z"/>
<path d="M2681 4214 c-112 -30 -181 -109 -181 -206 0 -151 193 -275 370 -238
119 25 266 142 290 229 13 50 -1 113 -34 146 -22 22 -124 58 -217 75 -72 14
-164 11 -228 -6z"/>
<path d="M1103 4116 c-48 -22 -66 -57 -61 -116 7 -68 33 -93 128 -125 42 -14
86 -32 96 -40 17 -13 13 -14 -44 -15 -34 0 -89 8 -122 17 -56 15 -63 15 -95 0
-112 -53 -93 -205 30 -238 220 -60 439 9 501 157 55 132 -63 278 -281 347 -78
25 -117 28 -152 13z"/>
<path d="M4190 3763 c-106 -37 -206 -131 -245 -231 -27 -66 -18 -175 19 -229
56 -83 166 -129 292 -121 93 6 167 41 228 109 62 69 88 141 94 262 5 110 -5
146 -48 177 -66 47 -248 65 -340 33z m80 -263 c0 -15 -38 -50 -55 -50 -26 0
-15 28 20 48 25 14 35 15 35 2z"/>
<path d="M5217 3749 c-107 -25 -215 -103 -257 -185 -21 -40 -25 -63 -25 -129
0 -70 4 -89 32 -146 61 -124 177 -196 295 -186 126 11 253 103 312 227 26 54
31 77 31 135 0 59 -5 79 -30 123 -16 30 -43 65 -60 79 -16 13 -39 32 -50 41
-54 46 -70 52 -140 51 -38 -1 -87 -5 -108 -10z m79 -304 c8 -20 -13 -45 -37
-45 -24 0 -25 35 -1 49 24 14 32 13 38 -4z"/>
<path d="M1619 3701 c-16 -16 -29 -38 -29 -49 0 -49 51 -267 75 -321 27 -60
65 -91 110 -91 23 0 73 30 81 49 37 90 15 205 -69 357 -48 86 -115 108 -168
55z"/>
<path d="M3414 3338 c-43 -38 -154 -259 -154 -307 0 -70 77 -109 150 -76 109
49 203 231 176 340 -19 77 -108 99 -172 43z"/>
<path d="M1990 3064 c-167 -11 -443 -64 -551 -105 -266 -102 -409 -319 -413
-624 0 -64 5 -133 13 -165 35 -144 128 -269 255 -342 190 -110 284 -202 377
-368 78 -141 124 -203 197 -263 66 -55 183 -118 262 -141 158 -47 400 -27 640
53 47 16 150 43 230 61 333 74 488 129 624 222 107 72 393 307 451 370 132
143 211 411 171 583 -39 164 -183 338 -352 423 -96 48 -154 60 -339 66 -485
18 -520 22 -711 92 -144 52 -330 101 -447 118 -109 16 -316 26 -407 20z m308
-390 c71 -10 180 -40 334 -90 357 -116 346 -114 703 -125 171 -6 324 -12 342
-15 40 -6 119 -64 161 -119 46 -61 44 -108 -10 -216 -32 -65 -59 -101 -121
-162 -147 -143 -267 -222 -441 -287 -125 -48 -388 -125 -461 -135 -27 -5 -95
-25 -151 -46 -138 -52 -224 -71 -319 -71 -161 1 -219 43 -340 246 -129 217
-221 315 -425 453 -129 88 -160 136 -160 246 0 110 59 194 165 235 45 17 260
70 350 86 108 19 246 19 373 0z"/>
<path d="M453 2165 c-30 -13 -63 -59 -63 -88 0 -19 90 -218 136 -300 104 -186
241 -264 360 -206 90 43 108 158 44 277 -59 112 -166 205 -326 286 -99 50
-104 52 -151 31z"/>
<path d="M4803 1620 c-18 -11 -33 -24 -33 -29 0 -6 -23 -7 -53 -4 -72 7 -112
-14 -138 -72 -17 -38 -18 -52 -9 -112 31 -222 67 -305 146 -343 106 -52 199
20 247 190 20 71 37 185 37 247 0 113 -106 179 -197 123z"/>
</g>
</svg>
