<?xml version="1.0" standalone="no"?>
<!DOCTYPE svg PUBLIC "-//W3C//DTD SVG 20010904//EN"
 "http://www.w3.org/TR/2001/REC-SVG-20010904/DTD/svg10.dtd">
<svg version="1.0" xmlns="http://www.w3.org/2000/svg"
 width="600.000000pt" height="600.000000pt" viewBox="0 0 600.000000 600.000000"
 preserveAspectRatio="xMidYMid meet">
<metadata>
Created by potrace 1.15, written by Peter Selinger 2001-2017
</metadata>
<g transform="translate(0.000000,600.000000) scale(0.100000,-0.100000)"
fill="#16364b" stroke="none">
<path d="M1685 5782 c-56 -36 -68 -58 -104 -192 -45 -169 -65 -302 -66 -440 0
-125 2 -139 25 -185 47 -94 138 -117 246 -63 110 54 269 219 414 426 89 128
100 162 75 227 -20 54 -62 86 -119 92 -69 8 -109 -17 -168 -106 -85 -127 -152
-214 -156 -203 -1 5 13 76 34 157 43 177 42 212 -10 263 -29 30 -43 36 -88 39
-40 3 -60 -1 -83 -15z"/>
<path d="M3135 5626 c-41 -18 -83 -69 -91 -111 -11 -63 18 -101 142 -185 190
-128 303 -233 390 -362 19 -27 34 -54 34 -59 0 -4 -21 -6 -47 -3 -40 5 -54 2
-83 -18 -95 -64 -90 -194 11 -253 28 -17 52 -20 139 -20 119 0 162 16 217 78
101 116 80 277 -62 462 -148 194 -510 486 -599 485 -12 -1 -35 -7 -51 -14z"/>
<path d="M880 5459 c-115 -23 -218 -108 -272 -226 -40 -88 -61 -201 -53 -280
17 -161 174 -333 304 -333 76 0 139 50 148 119 8 55 -12 96 -61 130 -91 63
-115 123 -80 196 26 56 65 75 155 75 88 0 128 20 161 80 40 73 -1 179 -84 218
-50 23 -154 34 -218 21z"/>
<path d="M2935 5176 c-108 -50 -195 -179 -195 -289 0 -96 46 -161 146 -203 52
-23 181 -23 258 0 109 32 135 88 117 245 -12 99 -37 169 -74 210 -57 62 -165
78 -252 37z"/>
<path d="M4749 4837 c-18 -12 -44 -38 -57 -57 -23 -33 -24 -41 -19 -146 8
-141 30 -240 75 -331 64 -130 171 -213 278 -213 158 0 307 188 275 348 -30
151 -124 245 -376 377 -97 51 -128 55 -176 22z"/>
<path d="M2025 4812 c-122 -37 -165 -69 -184 -138 -19 -70 31 -153 107 -174
50 -13 66 -13 110 6 20 8 62 20 92 25 46 7 60 6 93 -11 99 -52 197 13 197 132
0 66 -28 108 -94 142 -49 26 -69 30 -159 33 -77 2 -117 -2 -162 -15z"/>
<path d="M2860 4114 c-176 -33 -266 -149 -225 -289 27 -95 91 -147 224 -184
151 -42 304 -37 510 16 116 30 159 60 181 128 31 93 -16 153 -168 220 -172 76
-421 127 -522 109z"/>
<path d="M1069 4060 c-25 -4 -60 -15 -77 -24 -112 -58 -123 -234 -20 -308 29
-20 46 -23 137 -25 57 -1 105 -4 107 -6 7 -7 -117 -150 -241 -277 -214 -220
-344 -373 -376 -445 -38 -83 -14 -187 56 -240 43 -33 126 -45 175 -25 24 10
39 10 73 1 63 -18 101 -1 266 123 80 60 150 110 157 113 19 7 130 -83 145
-119 21 -51 15 -152 -16 -248 -58 -184 -128 -313 -219 -409 -68 -70 -101 -91
-145 -91 -102 0 -168 -87 -141 -186 14 -49 49 -86 102 -108 47 -20 69 -20 143
-1 196 51 400 298 505 610 56 165 73 260 68 379 -6 123 -29 190 -98 281 -45
59 -47 65 -29 70 24 8 25 7 48 -36 25 -46 94 -82 144 -76 47 6 99 41 124 82
26 42 26 274 1 321 -38 70 -116 109 -193 97 -22 -3 -107 -37 -190 -74 -82 -37
-152 -66 -154 -64 -2 2 23 33 55 69 187 209 215 396 80 532 -73 73 -118 86
-296 90 -80 1 -166 -1 -191 -6z"/>
<path d="M4201 3785 c-173 -49 -280 -181 -268 -331 21 -269 299 -390 508 -222
114 92 242 339 225 433 -9 48 -58 99 -111 115 -65 19 -291 23 -354 5z m89
-310 c-24 -25 -50 -33 -50 -16 0 13 41 41 59 41 10 0 8 -7 -9 -25z"/>
<path d="M3385 3401 c-56 -25 -107 -86 -160 -190 -58 -116 -64 -156 -35 -215
32 -67 69 -86 169 -86 95 0 153 22 201 76 54 61 72 111 78 205 4 75 2 93 -16
131 -43 87 -145 121 -237 79z"/>
<path d="M5013 3216 c-127 -73 -223 -158 -261 -231 -23 -43 -27 -62 -27 -140
0 -99 12 -133 69 -193 56 -60 100 -77 196 -76 74 0 95 4 150 31 120 57 178
142 187 272 4 61 1 89 -16 139 -21 62 -67 142 -81 142 -3 0 -13 12 -20 26 -31
57 -124 71 -197 30z"/>
<path d="M3970 2515 c-45 -21 -78 -51 -100 -95 -31 -61 -33 -100 -11 -205 12
-54 19 -100 16 -103 -3 -3 -16 0 -30 6 -39 18 -134 14 -180 -7 -44 -20 -110
-87 -126 -129 -39 -102 -28 -208 45 -432 24 -74 58 -181 75 -236 26 -85 37
-107 67 -134 46 -40 73 -50 132 -50 92 0 197 72 225 155 l14 40 69 7 c38 3 86
11 106 17 54 17 131 91 158 153 20 47 22 64 17 158 -5 95 -11 123 -67 290 -34
102 -75 242 -91 313 -34 152 -56 198 -111 234 -51 34 -152 43 -208 18z"/>
<path d="M2069 2437 c-59 -22 -102 -53 -160 -114 -71 -75 -173 -209 -218 -288
-20 -34 -61 -100 -93 -146 -145 -217 -210 -409 -210 -624 0 -232 70 -413 214
-552 122 -117 319 -234 465 -274 99 -28 306 -30 428 -5 162 34 346 151 455
291 25 31 56 69 69 84 95 106 231 394 298 631 47 168 56 332 25 437 -26 86
-71 154 -134 204 -52 40 -155 79 -213 79 -60 0 -206 -30 -311 -64 l-103 -34
-17 52 c-36 110 -77 166 -173 240 -88 68 -137 89 -216 93 -43 2 -84 -2 -106
-10z m120 -421 c6 -7 25 -53 41 -100 37 -110 57 -143 125 -200 113 -97 137
-98 391 -16 102 33 197 60 210 60 29 0 30 -15 10 -124 -37 -191 -155 -475
-241 -576 -25 -30 -65 -77 -87 -104 -95 -112 -221 -162 -388 -154 -91 5 -108
8 -173 42 -96 48 -205 131 -238 181 -61 89 -72 201 -39 366 33 159 82 270 165
369 20 24 44 60 54 81 20 40 139 189 151 189 4 0 13 -6 19 -14z"/>
</g>
</svg>
