<?xml version="1.0" standalone="no"?>
<!DOCTYPE svg PUBLIC "-//W3C//DTD SVG 20010904//EN"
 "http://www.w3.org/TR/2001/REC-SVG-20010904/DTD/svg10.dtd">
<svg version="1.0" xmlns="http://www.w3.org/2000/svg"
 width="600.000000pt" height="600.000000pt" viewBox="0 0 600.000000 600.000000"
 preserveAspectRatio="xMidYMid meet">
<metadata>
Created by potrace 1.15, written by Peter Selinger 2001-2017
</metadata>
<g transform="translate(0.000000,600.000000) scale(0.100000,-0.100000)"
fill="#16364b" stroke="none">
<path d="M2383 5410 c-33 -14 -40 -36 -47 -155 -15 -241 -37 -435 -54 -492
-22 -70 -69 -142 -115 -177 -17 -13 -66 -41 -107 -63 -90 -45 -109 -73 -87
-126 9 -21 26 -38 46 -47 29 -12 39 -10 102 15 202 79 318 221 354 430 8 50
19 180 24 290 12 257 7 305 -34 323 -30 14 -51 14 -82 2z"/>
<path d="M3555 5312 c-27 -5 -65 -41 -80 -76 -32 -75 54 -229 163 -293 36 -21
60 -27 105 -28 55 0 61 2 93 37 43 47 45 91 8 164 -32 64 -106 149 -146 170
-34 17 -113 32 -143 26z"/>
<path d="M3032 5150 c-52 -12 -109 -56 -146 -113 -138 -210 -26 -420 172 -321
69 34 107 80 132 160 55 180 -18 308 -158 274z m15 -205 c-12 -42 -57 -89 -57
-61 0 30 42 96 61 96 4 0 2 -16 -4 -35z"/>
<path d="M4746 4754 l-26 -27 0 -167 c0 -91 5 -193 11 -226 34 -189 103 -284
208 -284 65 0 99 25 143 105 32 57 32 224 1 308 -30 80 -100 182 -176 255 -77
73 -115 81 -161 36z"/>
<path d="M2678 4220 c-76 -23 -138 -96 -138 -161 0 -77 56 -160 134 -202 34
-18 58 -22 141 -21 111 0 178 21 269 84 59 40 79 71 80 125 1 64 -34 96 -138
129 -172 54 -277 67 -348 46z"/>
<path d="M1130 4149 c-37 -15 -58 -38 -65 -71 -4 -17 -16 -46 -27 -65 -36 -60
-8 -162 64 -232 112 -111 294 -99 349 23 54 118 -10 231 -176 311 -83 41 -112
48 -145 34z"/>
<path d="M5227 3910 c-91 -23 -161 -82 -199 -168 -30 -68 -23 -216 15 -297 34
-73 86 -128 152 -163 68 -35 185 -36 262 -3 63 28 132 98 163 167 33 71 39
205 13 265 -28 63 -67 104 -146 157 -65 43 -74 46 -146 48 -42 2 -93 -1 -114
-6z m118 -304 c19 -14 19 -15 1 -35 -25 -28 -44 -27 -52 3 -11 44 14 59 51 32z"/>
<path d="M4210 3760 c-111 -28 -194 -90 -237 -178 -24 -49 -28 -69 -28 -142 0
-73 4 -93 28 -142 49 -100 135 -151 257 -152 65 -1 84 3 140 31 75 37 105 65
154 146 41 69 66 169 66 262 0 138 -52 178 -235 182 -60 1 -126 -2 -145 -7z
m90 -273 c0 -22 -31 -57 -51 -57 -26 0 -24 16 6 45 26 27 45 32 45 12z"/>
<path d="M3426 3349 c-32 -25 -156 -267 -156 -304 0 -38 42 -75 83 -75 96 0
217 168 217 301 0 40 -5 55 -25 74 -31 32 -82 33 -119 4z"/>
<path d="M1328 3210 c-250 -19 -409 -94 -503 -236 -88 -132 -99 -282 -32 -417
41 -84 110 -155 201 -206 68 -39 118 -57 231 -81 128 -28 206 -69 254 -133 54
-72 83 -133 167 -351 126 -325 268 -535 421 -620 116 -66 303 -92 533 -77 74
6 270 12 435 16 691 13 946 31 1093 77 146 45 304 133 487 271 377 286 506
707 324 1057 -79 153 -259 345 -373 399 -89 43 -167 55 -304 48 -202 -10 -317
-50 -591 -201 -146 -81 -225 -111 -326 -122 -143 -16 -241 -10 -330 20 -101
35 -140 57 -414 239 -328 216 -491 290 -703 317 -91 11 -420 11 -570 0z m528
-391 c195 -20 273 -54 461 -205 277 -223 530 -345 786 -379 153 -20 205 -19
325 4 186 36 288 79 517 218 149 90 222 117 315 116 83 0 152 -32 236 -107 68
-62 97 -116 113 -213 21 -132 -28 -296 -116 -394 -51 -56 -252 -189 -386 -254
-211 -103 -300 -115 -889 -114 -341 0 -469 -4 -580 -17 -118 -13 -159 -14
-233 -4 -228 29 -293 112 -455 585 -83 242 -120 316 -189 385 -94 93 -257 166
-439 197 -114 19 -161 38 -182 75 -29 54 29 97 148 108 122 12 448 11 568 -1z"/>
<path d="M472 2080 c-40 -25 -58 -65 -43 -97 6 -13 18 -26 26 -29 8 -4 15 -11
15 -16 0 -22 71 -126 117 -171 129 -128 273 -112 273 30 0 93 -85 195 -214
259 -93 45 -132 51 -174 24z"/>
<path d="M5168 1227 c-14 -12 -41 -30 -58 -39 -68 -38 -75 -141 -17 -240 26
-42 40 -56 72 -66 81 -27 133 28 154 165 17 110 14 137 -15 172 -21 26 -33 31
-67 31 -29 0 -50 -7 -69 -23z"/>
</g>
</svg>
