<?xml version="1.0" standalone="no"?>
<!DOCTYPE svg PUBLIC "-//W3C//DTD SVG 20010904//EN"
 "http://www.w3.org/TR/2001/REC-SVG-20010904/DTD/svg10.dtd">
<svg version="1.0" xmlns="http://www.w3.org/2000/svg"
 width="600.000000pt" height="600.000000pt" viewBox="0 0 600.000000 600.000000"
 preserveAspectRatio="xMidYMid meet">
<metadata>
Created by potrace 1.15, written by Peter Selinger 2001-2017
</metadata>
<g transform="translate(0.000000,600.000000) scale(0.100000,-0.100000)"
fill="#16364b" stroke="none">
<path d="M2274 5449 c-110 -32 -188 -278 -126 -397 59 -111 176 -140 425 -106
26 4 47 3 47 -2 0 -5 -32 -63 -71 -129 -148 -247 -237 -453 -225 -517 10 -51
41 -95 85 -118 47 -23 89 -25 134 -6 45 19 61 40 96 129 41 102 91 200 195
380 143 250 156 334 71 464 -74 113 -192 136 -434 87 -31 -7 -34 -5 -26 12 5
10 10 42 13 70 3 46 1 55 -28 87 -18 21 -47 41 -68 47 -42 11 -46 11 -88 -1z"/>
<path d="M3835 5169 c-77 -12 -176 -45 -216 -72 -73 -50 -96 -124 -60 -194 43
-85 132 -108 237 -60 77 34 152 46 165 26 26 -42 -4 -186 -75 -351 -48 -113
-53 -138 -35 -185 35 -94 153 -117 223 -44 30 31 117 230 153 350 17 59 27
119 30 192 5 98 3 111 -19 160 -35 77 -71 114 -141 149 -71 34 -164 45 -262
29z"/>
<path d="M1760 4904 c-187 -26 -348 -80 -485 -162 -97 -58 -125 -95 -125 -164
0 -58 19 -99 58 -127 17 -12 34 -37 41 -62 16 -54 57 -95 107 -107 21 -5 97
-17 167 -27 201 -26 308 -62 414 -137 112 -81 255 -13 255 121 0 89 -36 129
-177 200 -86 42 -198 79 -335 109 l-85 18 70 24 c44 15 106 25 170 30 114 7
155 24 192 79 33 49 38 93 17 138 -37 75 -110 92 -284 67z"/>
<path d="M2894 4251 c-209 -54 -389 -103 -400 -109 -77 -41 -101 -150 -49
-228 17 -27 86 -63 120 -64 39 0 817 227 843 247 41 29 64 81 59 129 -8 76
-68 125 -150 123 -23 0 -213 -45 -423 -98z"/>
<path d="M4337 4270 c-128 -10 -163 -22 -201 -73 -28 -38 -28 -117 0 -154 46
-62 66 -68 182 -63 183 8 315 5 340 -8 35 -20 31 -119 -15 -289 -47 -180 -50
-210 -24 -261 53 -104 187 -121 253 -31 45 61 116 448 103 559 -15 134 -68
226 -156 271 -89 45 -271 64 -482 49z"/>
<path d="M2094 3880 c-140 -43 -284 -70 -420 -79 -133 -8 -154 -16 -198 -74
-28 -38 -28 -126 0 -164 55 -73 105 -86 274 -72 153 12 242 30 385 76 147 47
198 74 226 119 42 69 22 164 -44 204 -44 27 -111 24 -223 -10z"/>
<path d="M3670 3725 c-68 -19 -129 -48 -305 -143 -88 -48 -187 -101 -219 -117
-74 -37 -101 -72 -101 -130 0 -50 23 -87 76 -123 59 -41 105 -29 331 83 109
54 200 96 204 93 3 -4 -15 -54 -40 -112 -49 -112 -54 -138 -32 -189 41 -100
175 -126 248 -50 33 35 101 188 134 301 44 152 29 288 -37 349 -56 51 -160 67
-259 38z"/>
<path d="M2240 3270 c-198 -21 -209 -24 -244 -57 -79 -73 -72 -204 14 -248 27
-14 58 -15 237 -9 l206 7 -7 -34 c-4 -19 -9 -59 -12 -90 -6 -52 -4 -58 25 -92
84 -95 234 -68 290 52 22 48 26 70 26 151 0 81 -4 103 -26 150 -51 109 -119
160 -240 180 -76 12 -63 12 -269 -10z"/>
<path d="M4903 3199 c-49 -24 -89 -68 -111 -119 -11 -27 -13 -58 -8 -138 l7
-103 -32 -30 c-17 -16 -74 -59 -128 -96 -186 -129 -278 -249 -321 -419 -43
-169 -34 -316 28 -448 58 -124 121 -169 237 -170 86 -1 144 27 189 92 26 37
31 54 34 118 4 64 1 81 -22 128 -45 92 -29 196 42 270 20 21 71 65 112 98 248
196 330 337 317 543 -2 44 -10 99 -18 123 -16 55 -81 129 -134 153 -55 26
-139 25 -192 -2z"/>
<path d="M4255 3158 c-11 -6 -49 -39 -85 -73 -152 -144 -349 -236 -575 -269
-106 -16 -135 -30 -172 -86 -46 -67 -20 -160 57 -202 61 -34 230 -13 417 53
173 60 394 191 503 298 84 82 100 139 61 211 -34 65 -146 102 -206 68z"/>
<path d="M1233 3040 c-68 -21 -123 -102 -123 -180 1 -41 38 -113 75 -145 l35
-30 10 -195 c21 -410 80 -723 152 -806 43 -49 78 -64 145 -64 80 0 149 45 179
116 18 44 18 136 -1 181 -43 103 -68 279 -85 593 -14 277 -36 361 -116 449
-60 67 -190 105 -271 81z"/>
<path d="M2034 2572 c-95 -34 -226 -151 -314 -282 -74 -109 -66 -198 23 -264
36 -26 120 -28 159 -2 15 9 54 55 87 100 59 81 122 146 142 146 5 0 14 -12 20
-27 6 -16 24 -42 41 -60 l30 -31 -26 -79 c-39 -118 -56 -208 -56 -308 0 -121
25 -286 50 -335 53 -104 206 -96 260 15 21 44 21 49 10 169 -14 143 -5 237 36
372 13 45 24 95 24 111 0 35 -32 101 -59 119 -17 12 -19 22 -15 62 12 100 -66
226 -172 278 -72 35 -168 42 -240 16z"/>
<path d="M3475 2223 c-108 -11 -730 -120 -753 -132 -11 -6 -31 -24 -46 -41
-91 -109 -28 -289 112 -321 38 -8 236 17 502 65 158 29 251 43 336 51 l62 7
28 -37 c38 -50 91 -75 159 -75 64 0 102 16 139 60 53 63 56 150 10 242 -49 97
-125 152 -242 177 -50 10 -217 12 -307 4z"/>
<path d="M4512 1585 c-18 -8 -57 -34 -85 -59 -91 -77 -105 -81 -333 -96 -226
-14 -360 -47 -506 -122 -121 -62 -323 -241 -366 -324 -8 -15 -24 -23 -56 -26
-31 -4 -66 -20 -119 -56 -164 -109 -289 -116 -426 -22 -61 42 -174 155 -236
238 -81 108 -204 123 -308 36 -67 -56 -94 -138 -68 -207 13 -32 109 -144 204
-236 305 -296 584 -364 889 -218 94 46 202 127 233 177 18 29 32 40 49 40 41
0 71 16 140 74 135 115 328 219 461 250 39 8 131 20 205 26 180 15 260 32 350
76 99 49 213 159 230 224 42 154 -112 288 -258 225z"/>
</g>
</svg>
