<?xml version="1.0" standalone="no"?>
<!DOCTYPE svg PUBLIC "-//W3C//DTD SVG 20010904//EN"
 "http://www.w3.org/TR/2001/REC-SVG-20010904/DTD/svg10.dtd">
<svg version="1.0" xmlns="http://www.w3.org/2000/svg"
 width="600.000000pt" height="600.000000pt" viewBox="0 0 600.000000 600.000000"
 preserveAspectRatio="xMidYMid meet">
<metadata>
Created by potrace 1.15, written by Peter Selinger 2001-2017
</metadata>
<g transform="translate(0.000000,600.000000) scale(0.100000,-0.100000)"
fill="#16364b" stroke="none">
<path d="M2134 5456 c-97 -42 -155 -232 -105 -341 45 -99 130 -135 318 -135
68 0 123 -2 123 -4 0 -2 -16 -48 -36 -102 -40 -111 -124 -407 -124 -438 0 -40
39 -102 79 -124 46 -26 90 -28 137 -6 50 24 70 58 99 174 24 96 50 173 124
380 49 136 41 211 -33 297 -61 70 -181 113 -318 113 l-58 0 0 49 c0 109 -106
180 -206 137z"/>
<path d="M3520 5431 c-52 -11 -87 -38 -110 -85 -25 -53 -25 -79 1 -132 29 -61
73 -85 160 -89 48 -1 76 -7 86 -18 37 -37 32 -168 -11 -302 -30 -94 -32 -134
-9 -182 27 -58 85 -87 167 -84 52 2 99 63 134 171 110 347 33 611 -204 699
-60 23 -162 33 -214 22z"/>
<path d="M1710 4853 c-82 -13 -180 -38 -287 -75 -162 -54 -203 -93 -203 -191
0 -51 28 -100 72 -128 26 -16 45 -19 91 -16 31 2 57 3 57 2 0 0 -9 -18 -20
-40 -26 -50 -25 -98 0 -151 29 -58 57 -74 169 -90 143 -21 239 -41 408 -85
133 -35 158 -39 192 -29 136 36 164 197 49 283 -39 29 -270 91 -481 128 -103
18 -182 36 -175 40 22 12 161 38 218 40 30 1 84 -1 120 -5 57 -6 70 -4 104 16
98 58 100 189 4 261 -49 37 -212 57 -318 40z"/>
<path d="M4294 4434 c-106 -36 -138 -167 -61 -250 31 -34 36 -36 142 -48 182
-22 190 -29 189 -161 -1 -50 -7 -134 -14 -187 -15 -114 -6 -152 44 -196 87
-76 215 -36 246 77 14 53 30 212 30 306 0 250 -115 402 -340 448 -110 23 -190
27 -236 11z"/>
<path d="M3240 4396 c-19 -8 -69 -31 -110 -51 -41 -21 -124 -57 -185 -82 -136
-54 -393 -178 -418 -201 -54 -49 -66 -148 -26 -207 26 -38 73 -65 111 -65 14
0 85 31 159 69 74 38 188 93 254 121 188 82 347 165 379 198 55 59 40 164 -29
203 -43 25 -95 30 -135 15z"/>
<path d="M2195 3834 c-127 -35 -381 -66 -512 -62 -98 3 -137 -16 -171 -82 -38
-74 -12 -162 60 -205 30 -18 50 -20 223 -19 196 0 289 11 460 55 138 35 185
79 185 173 0 126 -97 181 -245 140z"/>
<path d="M3648 3787 c-31 -13 -153 -76 -270 -139 -117 -63 -240 -128 -273
-144 -50 -24 -64 -37 -83 -76 -29 -57 -23 -105 20 -154 40 -45 95 -62 155 -46
45 12 244 109 361 176 35 20 67 36 71 36 4 0 13 -16 19 -35 25 -68 109 -112
177 -94 60 17 84 46 110 138 46 159 29 266 -51 328 -53 40 -154 44 -236 10z"/>
<path d="M4985 3411 c-69 -18 -117 -55 -151 -121 -15 -29 -18 -59 -19 -181 l0
-146 -36 -54 c-20 -30 -72 -97 -116 -149 -200 -238 -272 -409 -273 -646 0 -92
3 -107 28 -155 67 -130 235 -167 339 -76 53 47 75 99 83 202 13 149 60 248
193 402 134 155 165 198 209 288 79 165 90 374 25 504 -44 89 -187 156 -282
132z"/>
<path d="M1985 3171 c-56 -38 -81 -120 -54 -174 20 -39 61 -76 97 -88 19 -6
110 -14 201 -18 l165 -6 8 -39 c17 -81 82 -136 161 -136 81 0 136 73 137 181
0 125 -56 220 -160 267 -53 25 -64 26 -290 29 -223 4 -237 3 -265 -16z"/>
<path d="M4315 3148 c-11 -6 -51 -41 -90 -78 -117 -114 -262 -196 -435 -246
-87 -25 -254 -54 -313 -54 -41 0 -93 -33 -125 -80 -19 -28 -23 -44 -19 -82 9
-101 92 -156 213 -144 337 35 730 203 919 395 69 70 73 79 74 147 1 62 -27
110 -79 136 -39 20 -114 23 -145 6z"/>
<path d="M1345 3005 c-5 -2 -22 -6 -37 -9 -37 -8 -98 -63 -114 -103 -21 -48
-17 -112 10 -169 31 -67 41 -118 66 -326 40 -340 74 -485 147 -636 43 -87 87
-134 142 -150 140 -43 270 50 271 192 0 38 -9 67 -38 125 -84 165 -125 322
-157 596 -13 116 -30 234 -37 264 -16 72 -64 149 -113 183 -36 24 -114 43
-140 33z"/>
<path d="M2153 2455 c-131 -29 -309 -147 -333 -221 -24 -72 18 -157 95 -194
68 -33 118 -23 194 41 33 27 76 56 97 65 37 16 39 16 54 -7 35 -54 64 -79 101
-89 72 -20 151 16 183 84 22 47 20 92 -8 151 -64 139 -219 208 -383 170z"/>
<path d="M3785 2164 c-16 -3 -120 -25 -230 -49 -240 -53 -370 -78 -572 -109
-166 -26 -198 -39 -246 -98 -86 -107 -12 -283 128 -303 69 -11 362 37 730 120
202 45 289 54 333 31 47 -24 139 -21 193 7 94 50 139 157 104 245 -21 53 -91
115 -153 137 -47 17 -224 28 -287 19z"/>
<path d="M2304 1970 c-73 -37 -117 -153 -117 -310 1 -114 20 -195 74 -308 79
-164 167 -220 266 -170 65 32 87 66 87 132 0 45 -6 62 -41 117 -78 119 -95
208 -65 329 28 110 7 174 -69 212 -45 23 -85 23 -135 -2z"/>
<path d="M4678 1638 c-23 -6 -67 -36 -110 -75 -113 -101 -152 -116 -428 -164
-99 -17 -223 -46 -285 -66 -126 -42 -315 -135 -429 -212 -67 -46 -82 -61 -103
-108 -21 -45 -24 -64 -19 -104 l7 -50 -42 22 c-61 31 -120 23 -206 -28 -104
-62 -157 -76 -266 -71 -73 3 -106 10 -162 34 -90 38 -200 113 -296 202 -61 55
-87 72 -127 81 -127 31 -254 -63 -254 -189 0 -34 7 -61 23 -88 57 -94 317
-290 467 -353 132 -55 199 -70 327 -76 102 -5 134 -2 205 16 140 35 309 130
364 204 17 23 21 43 21 103 0 41 1 74 3 74 1 0 15 -8 29 -17 18 -12 47 -18 88
-18 55 0 69 6 180 67 202 112 292 143 555 193 258 48 351 81 494 172 77 50
181 144 201 183 75 147 -73 314 -237 268z"/>
</g>
</svg>
