<?xml version="1.0" standalone="no"?>
<!DOCTYPE svg PUBLIC "-//W3C//DTD SVG 20010904//EN"
 "http://www.w3.org/TR/2001/REC-SVG-20010904/DTD/svg10.dtd">
<svg version="1.0" xmlns="http://www.w3.org/2000/svg"
 width="600.000000pt" height="600.000000pt" viewBox="0 0 600.000000 600.000000"
 preserveAspectRatio="xMidYMid meet">
<metadata>
Created by potrace 1.15, written by Peter Selinger 2001-2017
</metadata>
<g transform="translate(0.000000,600.000000) scale(0.100000,-0.100000)"
fill="#16364b" stroke="none">
<path d="M1570 5789 c-14 -4 -68 -27 -120 -51 -52 -25 -151 -66 -220 -93 -155
-58 -176 -70 -196 -114 -15 -31 -15 -37 -1 -66 21 -45 68 -63 178 -71 91 -6
347 9 436 25 63 12 93 44 93 98 0 56 -35 93 -88 93 l-34 0 31 29 c70 66 12
176 -79 150z"/>
<path d="M2365 5418 c-38 -22 -42 -40 -49 -217 -17 -412 -89 -599 -262 -681
-34 -16 -68 -38 -74 -49 -26 -49 5 -114 61 -126 47 -11 166 51 238 122 146
147 233 464 219 804 -4 93 -8 113 -24 130 -25 24 -82 34 -109 17z"/>
<path d="M3508 5293 c-9 -10 -21 -34 -28 -53 -40 -114 145 -340 279 -342 79
-1 121 56 100 135 -24 90 -131 225 -204 258 -53 24 -127 25 -147 2z"/>
<path d="M2992 5115 c-102 -44 -174 -155 -180 -274 -4 -79 17 -125 69 -153 63
-34 128 -20 220 48 98 72 148 251 92 330 -42 59 -129 80 -201 49z m24 -230
c-16 -25 -36 -33 -36 -16 0 4 10 21 22 36 26 33 38 16 14 -20z"/>
<path d="M4759 4767 c-51 -34 -60 -62 -60 -191 0 -210 59 -410 140 -477 100
-83 225 -46 281 83 19 44 22 65 18 143 -3 80 -8 100 -41 169 -47 98 -109 186
-175 249 -43 39 -57 47 -90 47 -24 0 -52 -9 -73 -23z"/>
<path d="M2645 4214 c-52 -19 -83 -49 -107 -103 -71 -158 134 -341 337 -302
120 23 266 105 293 166 21 46 15 91 -18 128 -24 28 -49 41 -131 66 -186 59
-298 73 -374 45z"/>
<path d="M1113 4121 c-44 -27 -56 -55 -51 -112 3 -27 2 -49 -3 -49 -4 0 -21
-12 -38 -26 -27 -22 -31 -32 -31 -75 0 -46 4 -53 46 -94 25 -24 75 -59 112
-77 176 -87 365 1 365 169 0 101 -91 197 -240 253 -85 32 -122 35 -160 11z"/>
<path d="M5251 3860 c-83 -12 -178 -65 -223 -125 -55 -72 -71 -130 -66 -229 7
-130 73 -232 184 -287 41 -20 64 -24 140 -24 84 0 96 3 160 35 117 60 174 161
174 309 0 83 -17 133 -65 189 -42 50 -136 119 -180 131 -44 12 -46 12 -124 1z
m64 -303 c17 -13 17 -15 -4 -36 -12 -12 -28 -20 -34 -18 -17 5 -21 48 -5 58
18 12 21 11 43 -4z"/>
<path d="M4188 3746 c-148 -53 -233 -167 -233 -311 1 -83 24 -135 84 -187 59
-50 126 -71 219 -66 179 8 304 136 321 327 9 103 0 139 -42 178 -68 62 -252
93 -349 59z m132 -253 c0 -14 -34 -43 -52 -43 -25 0 -23 16 4 34 23 16 48 21
48 9z"/>
<path d="M3428 3364 c-36 -19 -77 -80 -138 -206 -57 -115 -58 -136 -9 -180 35
-33 74 -36 128 -9 83 43 162 177 169 288 4 58 2 64 -26 93 -34 34 -79 39 -124
14z"/>
<path d="M1625 3150 c-107 -8 -287 -41 -363 -66 -161 -54 -296 -167 -359 -300
-37 -77 -38 -82 -38 -194 0 -111 1 -117 36 -190 45 -94 101 -165 176 -223 62
-48 153 -96 218 -117 75 -23 178 -84 226 -132 55 -57 114 -164 163 -302 61
-167 108 -248 199 -343 106 -110 234 -176 397 -202 94 -15 315 -13 428 4 112
17 409 42 597 50 183 9 298 30 469 86 259 85 398 161 580 317 124 108 204 207
266 336 68 139 92 234 92 371 1 93 -4 123 -26 192 -61 190 -258 401 -434 466
-44 16 -81 21 -162 21 -129 1 -194 -19 -331 -100 -226 -134 -270 -146 -522
-144 -277 2 -360 29 -643 211 -197 127 -258 155 -479 219 -120 35 -330 52
-490 40z m327 -394 c158 -30 236 -67 433 -202 61 -42 141 -91 178 -110 134
-68 311 -124 461 -145 42 -5 93 -17 113 -26 44 -18 96 -14 308 22 212 37 280
62 476 177 139 82 161 88 220 58 50 -26 155 -122 175 -162 35 -68 5 -252 -62
-378 -46 -87 -78 -120 -190 -196 -212 -143 -385 -203 -689 -238 -129 -15 -396
-35 -530 -40 -38 -1 -122 -14 -185 -29 -148 -33 -248 -41 -334 -27 -151 24
-210 86 -300 315 -168 423 -278 539 -606 635 -96 28 -134 52 -155 96 -31 65 0
136 74 174 41 20 185 63 266 78 77 15 265 14 347 -2z"/>
<path d="M449 2115 c-15 -8 -32 -29 -38 -46 -10 -29 -7 -41 35 -127 110 -229
208 -322 341 -322 96 0 156 52 156 133 0 112 -110 226 -320 331 -96 48 -131
54 -174 31z"/>
<path d="M5050 1423 c-8 -3 -26 -16 -40 -28 -14 -12 -42 -25 -64 -28 -92 -14
-128 -107 -91 -231 28 -92 74 -146 142 -166 36 -11 46 -10 79 6 71 35 97 94
114 258 9 85 8 103 -7 133 -22 48 -84 74 -133 56z"/>
</g>
</svg>
