<?xml version="1.0" standalone="no"?>
<!DOCTYPE svg PUBLIC "-//W3C//DTD SVG 20010904//EN"
 "http://www.w3.org/TR/2001/REC-SVG-20010904/DTD/svg10.dtd">
<svg version="1.0" xmlns="http://www.w3.org/2000/svg"
 width="600.000000pt" height="600.000000pt" viewBox="0 0 600.000000 600.000000"
 preserveAspectRatio="xMidYMid meet">
<metadata>
Created by potrace 1.15, written by Peter Selinger 2001-2017
</metadata>
<g transform="translate(0.000000,600.000000) scale(0.100000,-0.100000)"
fill="#16364b" stroke="none">
<path d="M2297 5580 c-95 -24 -214 -113 -277 -207 -71 -108 -91 -277 -82 -680
2 -122 -1 -329 -7 -460 -6 -131 -16 -434 -21 -673 -6 -239 -13 -450 -16 -467
l-6 -33 -69 36 c-128 67 -266 177 -355 281 -44 52 -45 53 -29 82 8 17 15 37
15 46 0 22 -27 18 -41 -6 -15 -30 -29 -8 -29 47 0 72 -41 66 -55 -8 -4 -21
-10 -38 -14 -38 -4 0 -17 14 -29 30 -42 56 -70 25 -37 -40 18 -34 15 -36 -26
-15 -30 16 -49 13 -49 -8 0 -6 26 -36 58 -67 32 -30 70 -71 84 -90 47 -63 191
-202 272 -262 44 -33 127 -82 185 -110 58 -29 107 -52 108 -53 1 0 -2 -151 -7
-335 -15 -500 4 -669 91 -844 121 -242 298 -395 521 -451 l66 -17 0 -152 c0
-171 16 -263 77 -456 21 -63 39 -127 42 -142 l5 -28 -75 0 c-99 0 -132 -8
-162 -38 -49 -49 -22 -128 51 -152 44 -15 141 -14 197 1 56 15 121 81 137 138
14 52 9 81 -31 215 -70 227 -102 436 -85 550 l8 48 41 -6 c182 -27 378 -40
612 -40 143 0 277 3 298 7 l38 8 -8 -48 c-4 -26 -8 -93 -7 -148 0 -86 8 -129
52 -307 29 -114 52 -209 52 -211 0 -2 -40 -7 -90 -9 -102 -6 -132 -20 -157
-74 -21 -42 -11 -78 30 -108 59 -44 230 -18 303 47 69 59 80 124 43 238 -37
116 -78 284 -89 370 -9 69 -8 99 4 163 9 44 19 83 24 88 4 4 99 11 212 17 171
7 215 13 262 31 164 62 261 185 288 368 38 254 47 469 29 677 -23 263 -80 429
-211 608 -58 80 -66 97 -45 97 25 0 197 60 299 106 170 75 281 156 379 280 46
59 61 94 39 94 -5 0 -10 9 -10 19 0 26 -19 31 -53 14 l-29 -15 6 30 c5 20 2
33 -8 41 -13 11 -19 7 -38 -25 l-23 -39 -9 28 c-6 17 -16 26 -26 25 -12 -3
-14 -16 -12 -64 l4 -61 -49 -42 c-95 -82 -442 -233 -571 -247 l-47 -6 -79 87
c-141 155 -279 261 -749 575 -322 215 -457 384 -528 658 -21 81 -63 341 -74
452 -31 330 -69 452 -178 567 -89 95 -228 141 -340 113z m162 -179 c96 -49
158 -168 180 -346 85 -674 126 -827 279 -1040 118 -164 182 -217 582 -485 352
-236 485 -342 644 -513 251 -270 328 -429 355 -740 15 -170 14 -267 -4 -422
-30 -253 -60 -350 -126 -410 -68 -61 -92 -66 -330 -75 -119 -5 -287 -17 -375
-27 -212 -24 -593 -24 -744 1 -58 9 -139 21 -180 27 -270 37 -375 77 -481 183
-142 141 -214 325 -240 613 -12 128 -11 145 30 988 30 602 45 1113 46 1585 1
464 2 470 62 561 69 104 205 149 302 100z"/>
<path d="M2577 2912 c-37 -41 -2 -112 56 -112 52 0 73 95 27 120 -29 15 -65
12 -83 -8z"/>
<path d="M3177 2862 c-24 -26 -21 -49 8 -77 45 -46 115 -23 115 37 0 14 -8 32
-18 41 -25 23 -85 22 -105 -1z"/>
<path d="M2770 1962 c-34 -28 -21 -66 27 -84 51 -17 547 -15 569 2 20 18 17
44 -7 66 -20 18 -40 19 -278 19 -141 0 -263 4 -272 8 -10 5 -24 1 -39 -11z"/>
</g>
</svg>
