<?xml version="1.0" standalone="no"?>
<!DOCTYPE svg PUBLIC "-//W3C//DTD SVG 20010904//EN"
 "http://www.w3.org/TR/2001/REC-SVG-20010904/DTD/svg10.dtd">
<svg version="1.0" xmlns="http://www.w3.org/2000/svg"
 width="600.000000pt" height="600.000000pt" viewBox="0 0 600.000000 600.000000"
 preserveAspectRatio="xMidYMid meet">
<metadata>
Created by potrace 1.15, written by Peter Selinger 2001-2017
</metadata>
<g transform="translate(0.000000,600.000000) scale(0.100000,-0.100000)"
fill="#16364b" stroke="none">
<path d="M3057 5076 c-59 -22 -103 -62 -132 -120 -33 -68 -41 -122 -25 -171
25 -75 102 -73 184 5 61 57 97 125 104 190 7 80 -53 124 -131 96z m76 -67 c25
-39 -63 -178 -135 -215 -38 -20 -48 -11 -48 41 0 47 12 82 43 128 40 59 116
84 140 46z"/>
<path d="M1823 4681 c-63 -16 -124 -66 -156 -126 -17 -32 -21 -58 -21 -125 0
-75 4 -93 33 -155 21 -46 37 -103 47 -165 83 -549 91 -621 104 -860 5 -107 13
-220 17 -250 3 -30 7 -253 8 -495 1 -436 1 -441 28 -567 48 -226 105 -378 177
-474 88 -117 262 -213 434 -241 l50 -8 -3 -165 c-2 -196 12 -294 69 -458 26
-77 35 -114 27 -117 -7 -2 -45 -6 -85 -9 -85 -7 -123 -24 -140 -61 -65 -142
182 -202 320 -77 73 66 86 139 44 240 -61 146 -87 282 -87 461 0 148 10 187
44 176 38 -11 368 -24 668 -24 l287 -1 0 -122 c-1 -134 24 -298 67 -453 38
-137 42 -129 -72 -142 -93 -10 -98 -11 -131 -48 -29 -32 -33 -42 -29 -73 8
-44 37 -76 86 -91 54 -16 90 -14 162 9 153 47 209 160 159 321 -28 94 -56 229
-75 364 -14 103 -14 129 -3 185 l13 65 130 21 c378 63 552 121 666 223 186
166 238 447 138 745 -49 147 -111 223 -274 337 -111 77 -202 120 -415 197
-168 61 -467 190 -665 287 -226 111 -431 247 -537 358 -117 122 -322 433 -473
717 -120 226 -252 444 -302 500 -60 67 -131 102 -212 106 -36 2 -81 -1 -98 -5z
m152 -169 c48 -30 91 -80 130 -151 20 -36 49 -84 64 -106 16 -22 71 -121 122
-220 101 -197 183 -335 325 -551 146 -222 239 -312 481 -462 196 -121 355
-205 535 -282 90 -39 174 -76 188 -84 14 -8 115 -44 224 -80 109 -37 226 -80
260 -96 89 -43 245 -159 286 -212 65 -87 103 -214 102 -343 -2 -188 -76 -337
-211 -424 -94 -61 -479 -143 -757 -161 -279 -19 -1086 10 -1249 45 -221 47
-351 197 -424 488 -45 180 -55 291 -45 507 10 209 8 448 -6 655 -6 77 -15 225
-20 329 -6 103 -21 268 -35 365 -13 97 -29 221 -35 276 -17 151 -35 227 -74
309 -46 97 -48 146 -7 187 24 23 38 29 73 29 24 0 56 -8 73 -18z"/>
<path d="M2560 2650 c-28 -28 -25 -54 11 -84 37 -31 39 -32 73 -5 33 26 37 83
7 99 -31 16 -69 12 -91 -10z"/>
<path d="M2987 2442 c-38 -41 0 -112 59 -112 47 0 72 80 36 113 -25 22 -75 21
-95 -1z"/>
<path d="M5243 3982 c-162 -58 -242 -193 -214 -363 20 -122 86 -224 175 -272
56 -30 177 -29 256 2 247 96 321 394 137 556 -88 78 -113 89 -212 92 -68 3
-103 -1 -142 -15z m135 -298 c26 -7 28 -17 6 -38 -22 -23 -53 -20 -63 7 -14
36 3 45 57 31z"/>
<path d="M4172 3739 c-64 -25 -137 -95 -171 -164 -17 -35 -26 -72 -29 -125 -4
-70 -2 -79 30 -140 146 -282 544 -157 541 170 -1 74 -31 171 -65 207 -12 12
-44 34 -72 48 -64 32 -156 33 -234 4z m98 -304 c-12 -14 -50 -21 -50 -9 0 11
23 49 34 56 17 12 31 -29 16 -47z"/>
<path d="M5354 1105 c-27 -19 -61 -97 -70 -162 -12 -92 25 -153 92 -153 43 0
77 30 102 88 45 105 38 213 -15 233 -36 13 -86 11 -109 -6z"/>
</g>
</svg>
