<?xml version="1.0" standalone="no"?>
<!DOCTYPE svg PUBLIC "-//W3C//DTD SVG 20010904//EN"
 "http://www.w3.org/TR/2001/REC-SVG-20010904/DTD/svg10.dtd">
<svg version="1.0" xmlns="http://www.w3.org/2000/svg"
 width="600.000000pt" height="600.000000pt" viewBox="0 0 600.000000 600.000000"
 preserveAspectRatio="xMidYMid meet">
<metadata>
Created by potrace 1.15, written by Peter Selinger 2001-2017
</metadata>
<g transform="translate(0.000000,600.000000) scale(0.100000,-0.100000)"
fill="#16364b" stroke="none">
<path d="M3130 5632 c-23 -12 -43 -35 -60 -68 -23 -44 -25 -61 -25 -169 0
-111 2 -125 29 -182 31 -69 107 -148 172 -181 21 -11 87 -35 146 -53 59 -17
105 -36 103 -40 -3 -4 -105 -71 -227 -150 -348 -223 -383 -250 -404 -306 -10
-26 -33 -60 -51 -76 -38 -34 -58 -91 -49 -139 9 -50 54 -113 97 -138 46 -25
76 -26 369 -16 184 6 219 10 245 26 90 56 86 193 -7 250 -26 16 -51 20 -115
20 -46 0 -83 4 -83 8 0 13 130 107 270 196 147 94 192 127 241 177 101 105
105 256 9 343 -54 48 -113 76 -265 125 -71 23 -141 50 -153 60 -29 21 -41 72
-30 126 19 101 0 158 -62 190 -39 20 -108 19 -150 -3z"/>
<path d="M1295 5381 c-123 -62 -253 -193 -328 -331 -74 -135 -127 -364 -127
-550 0 -84 3 -101 23 -131 33 -49 80 -71 145 -66 56 4 91 24 126 71 18 24 22
47 27 179 5 115 12 168 28 217 26 82 44 111 35 57 -8 -49 18 -118 57 -151 43
-36 87 -41 189 -20 49 10 92 15 95 12 3 -3 -10 -48 -30 -100 -43 -116 -59
-196 -52 -267 7 -62 48 -152 83 -180 13 -10 24 -23 24 -27 0 -5 -31 -26 -68
-47 -149 -84 -192 -131 -192 -209 0 -48 31 -100 76 -126 62 -36 112 -27 227
42 118 70 182 99 321 145 93 31 114 41 138 72 41 50 46 102 16 158 -36 69 -66
86 -153 85 l-73 0 -7 35 c-4 20 -21 49 -41 69 -19 19 -34 40 -34 47 0 8 21 69
47 137 91 243 66 380 -87 460 -40 20 -58 23 -160 22 -161 -1 -287 -32 -337
-82 l-37 -36 29 53 c39 70 117 150 188 190 93 53 124 124 89 203 -23 53 -74
89 -135 95 -33 4 -55 -2 -102 -26z"/>
<path d="M4459 4501 c-62 -9 -97 -34 -121 -88 -24 -55 -18 -99 19 -143 47 -56
74 -63 205 -57 65 3 118 2 118 -3 0 -9 -113 -125 -212 -219 -84 -79 -99 -118
-69 -186 36 -82 133 -111 213 -62 46 27 258 234 344 336 79 91 108 150 109
216 0 100 -62 170 -180 200 -61 16 -330 19 -426 6z"/>
<path d="M3869 3697 c-94 -62 -92 -204 6 -322 58 -72 144 -149 207 -187 52
-32 71 -38 117 -38 100 0 161 60 161 156 0 64 -29 111 -86 139 -40 20 -41 21
-40 75 0 97 -35 136 -162 179 -84 28 -159 28 -203 -2z"/>
<path d="M2574 3666 c-83 -16 -302 -89 -359 -119 -100 -55 -98 -185 5 -254 50
-35 106 -30 209 16 101 45 204 76 226 67 53 -20 -95 -364 -266 -621 -47 -71
-92 -141 -98 -153 -20 -37 -15 -108 8 -148 12 -19 21 -50 21 -68 0 -41 17 -93
44 -129 25 -34 110 -77 153 -77 19 0 82 20 141 44 122 50 303 108 311 100 13
-12 -71 -201 -173 -389 -23 -42 -27 -59 -24 -111 4 -71 30 -116 87 -154 54
-36 152 -35 208 2 43 28 105 129 192 311 172 361 150 613 -64 718 -64 31 -65
31 -182 26 -89 -4 -138 -11 -198 -31 -44 -14 -86 -26 -92 -26 -7 0 3 24 23 55
120 189 224 501 224 675 0 200 -163 310 -396 266z"/>
<path d="M1090 3482 c-30 -10 -71 -27 -90 -37 -67 -35 -207 -134 -233 -165
-81 -96 -48 -248 67 -305 60 -30 109 -32 159 -6 20 10 39 16 41 12 5 -9 -37
-169 -89 -341 -53 -175 -79 -311 -95 -488 -14 -153 -8 -191 40 -246 33 -37 56
-48 144 -71 93 -23 135 -8 220 79 90 94 166 194 261 346 121 194 267 398 286
399 19 2 16 -65 -11 -264 -32 -234 -54 -367 -96 -585 -14 -74 -26 -173 -27
-220 -2 -74 1 -92 24 -135 33 -65 77 -95 139 -95 105 0 179 112 141 212 -11
29 5 129 49 316 53 229 69 318 96 531 22 175 25 227 19 346 -9 182 -29 247
-89 303 -56 51 -109 67 -178 53 -106 -23 -188 -106 -461 -468 -75 -100 -91
-117 -82 -90 127 388 159 521 153 637 -5 86 -29 147 -78 204 -73 83 -200 115
-310 78z"/>
<path d="M4565 3292 c-47 -30 -69 -70 -69 -127 0 -65 23 -97 94 -132 96 -46
194 -106 223 -134 28 -28 28 -29 11 -61 -9 -18 -52 -69 -95 -114 -84 -88 -94
-110 -86 -182 4 -37 12 -53 41 -79 30 -28 43 -33 86 -33 31 0 66 8 89 20 49
24 201 186 230 245 57 114 51 226 -16 325 -49 70 -122 128 -269 214 -135 78
-187 91 -239 58z"/>
<path d="M3690 3230 c-175 -37 -354 -218 -354 -359 0 -95 75 -166 167 -158 55
5 91 27 128 82 l26 38 72 -2 c182 -6 301 70 301 192 0 144 -163 243 -340 207z"/>
<path d="M4585 2241 c-104 -27 -167 -106 -170 -214 -1 -31 -4 -59 -6 -62 -3
-2 -49 8 -104 22 -139 37 -317 39 -420 5 -150 -49 -239 -143 -275 -289 -15
-63 -20 -124 -22 -320 l-4 -243 -49 -24 c-27 -14 -54 -22 -61 -18 -13 8 -154
113 -247 185 -167 129 -283 187 -372 187 -116 0 -219 -91 -266 -234 -12 -36
-25 -63 -29 -61 -8 5 -28 130 -60 367 -10 81 -25 159 -34 175 -88 169 -346
123 -364 -66 -9 -98 36 -411 85 -586 52 -188 105 -303 175 -377 111 -116 328
-186 424 -135 78 41 125 135 106 215 -8 38 2 149 23 241 l6 24 22 -21 c69 -63
327 -253 382 -281 143 -71 257 -59 403 41 53 36 90 91 100 147 7 40 9 43 60
60 31 11 70 34 92 56 61 60 70 99 70 318 l0 190 73 -6 c39 -3 99 -14 132 -23
44 -13 98 -18 205 -18 139 -1 147 0 201 27 153 76 217 208 206 422 -7 127 -19
170 -60 220 -51 63 -147 96 -222 76z"/>
</g>
</svg>
