<?xml version="1.0" standalone="no"?>
<!DOCTYPE svg PUBLIC "-//W3C//DTD SVG 20010904//EN"
 "http://www.w3.org/TR/2001/REC-SVG-20010904/DTD/svg10.dtd">
<svg version="1.0" xmlns="http://www.w3.org/2000/svg"
 width="600.000000pt" height="600.000000pt" viewBox="0 0 600.000000 600.000000"
 preserveAspectRatio="xMidYMid meet">
<metadata>
Created by potrace 1.15, written by Peter Selinger 2001-2017
</metadata>
<g transform="translate(0.000000,600.000000) scale(0.100000,-0.100000)"
fill="#16364b" stroke="none">
<path d="M2185 5457 c-44 -21 -64 -48 -91 -122 -57 -156 -14 -298 110 -363 48
-26 59 -27 189 -27 75 0 137 -3 137 -7 0 -4 -35 -76 -78 -161 -79 -155 -142
-325 -142 -385 0 -54 34 -107 83 -131 53 -26 70 -26 124 -2 51 24 65 45 98
146 14 44 65 159 112 255 47 96 94 200 104 230 55 156 -3 295 -143 346 -34 13
-69 15 -174 10 l-130 -6 3 58 c5 64 -15 112 -59 145 -33 25 -104 31 -143 14z"/>
<path d="M3648 5322 c-67 -24 -97 -51 -114 -100 -18 -55 -6 -109 37 -151 39
-40 88 -48 154 -27 104 33 125 19 125 -81 -1 -77 -12 -126 -61 -260 -48 -128
-47 -161 2 -218 55 -62 144 -67 203 -11 65 62 134 275 143 441 11 207 -65 345
-223 405 -69 25 -197 26 -266 2z"/>
<path d="M1730 4891 c-114 -21 -291 -86 -425 -156 -43 -23 -66 -42 -82 -71
-29 -50 -30 -117 -3 -162 21 -35 74 -72 103 -72 14 0 17 -9 17 -50 0 -112 40
-143 221 -170 221 -32 284 -48 471 -120 88 -34 163 -8 203 71 34 65 10 166
-49 204 -77 51 -260 107 -451 140 -121 21 -128 24 -100 35 71 28 156 43 250
44 83 1 104 4 126 20 45 35 63 68 67 126 4 64 -20 111 -77 144 -38 22 -191 31
-271 17z"/>
<path d="M3115 4361 c-120 -44 -379 -149 -552 -222 -101 -44 -133 -83 -133
-164 0 -89 54 -145 141 -145 37 0 93 20 271 99 124 55 288 123 364 151 176 66
188 72 213 113 59 95 -14 217 -129 217 -29 -1 -93 -18 -175 -49z"/>
<path d="M4225 4337 c-17 -8 -43 -29 -58 -46 -51 -61 -29 -166 43 -210 25 -15
60 -19 193 -24 89 -3 177 -11 194 -17 61 -22 66 -105 17 -305 -32 -131 -31
-178 2 -222 70 -92 199 -82 244 20 11 23 31 100 45 171 65 323 8 514 -179 594
-96 42 -438 68 -501 39z"/>
<path d="M2110 3859 c-151 -47 -326 -79 -431 -79 -108 0 -160 -19 -196 -73
-50 -73 -18 -183 63 -222 52 -24 241 -22 397 4 134 24 361 85 395 107 95 62
74 235 -34 280 -47 20 -86 16 -194 -17z"/>
<path d="M3700 3776 c-25 -7 -173 -78 -330 -158 -226 -116 -290 -153 -307
-178 -47 -68 -17 -182 57 -221 65 -35 94 -28 318 86 113 58 207 105 209 105 1
0 -5 -16 -13 -35 -44 -107 17 -215 122 -215 84 0 131 58 189 234 53 160 44
261 -31 333 -62 60 -123 74 -214 49z"/>
<path d="M4964 3309 c-51 -12 -118 -68 -146 -122 -18 -37 -20 -53 -15 -142 3
-55 3 -113 0 -130 -4 -22 -45 -68 -149 -170 -142 -140 -194 -207 -241 -314
-83 -187 -100 -390 -42 -520 27 -61 54 -89 114 -117 159 -75 342 40 336 211
-5 141 -4 150 23 212 23 51 48 81 151 177 142 133 192 202 232 318 26 77 28
94 28 233 0 119 -4 161 -18 205 -40 118 -156 186 -273 159z"/>
<path d="M2155 3231 c-135 -7 -173 -20 -205 -74 -47 -76 -10 -171 84 -219 36
-18 55 -20 210 -17 l171 4 1 -60 c2 -72 14 -105 51 -139 56 -52 145 -46 204
13 44 44 59 91 59 192 0 175 -87 273 -265 299 -72 10 -107 10 -310 1z"/>
<path d="M4335 3175 c-5 -2 -23 -6 -38 -10 -16 -3 -65 -40 -111 -83 -94 -89
-193 -157 -298 -207 -80 -38 -249 -85 -307 -85 -110 0 -201 -73 -201 -160 0
-69 50 -127 123 -144 56 -13 309 32 422 76 168 65 390 207 518 332 54 52 67
79 67 142 0 59 -50 116 -115 133 -24 6 -45 11 -47 10 -2 0 -7 -2 -13 -4z"/>
<path d="M1255 3006 c-60 -27 -115 -114 -115 -181 0 -37 29 -108 55 -135 22
-23 27 -48 55 -255 55 -409 89 -571 146 -695 45 -98 94 -133 187 -133 48 0 65
5 100 29 48 33 87 102 87 152 0 19 -16 80 -35 136 -36 107 -38 122 -65 504
-22 304 -107 505 -243 571 -50 24 -127 27 -172 7z"/>
<path d="M2086 2475 c-83 -34 -151 -83 -234 -169 -80 -82 -92 -105 -92 -177 0
-44 5 -55 38 -90 28 -31 47 -42 79 -46 70 -9 91 3 193 108 53 54 101 99 107
99 6 0 22 -18 37 -41 16 -23 42 -47 62 -55 20 -8 34 -18 32 -22 -2 -4 -22 -46
-45 -93 -64 -131 -87 -232 -80 -354 6 -109 40 -236 80 -296 12 -19 42 -44 67
-57 77 -40 155 -16 192 59 24 46 23 82 -7 169 -19 55 -25 94 -25 154 0 83 12
119 80 236 46 80 7 194 -81 230 -27 12 -28 13 -12 37 38 57 10 153 -69 239
-86 94 -202 119 -322 69z"/>
<path d="M3540 2174 c-287 -39 -718 -138 -780 -180 -98 -66 -121 -207 -47
-291 35 -40 81 -63 127 -63 17 0 99 16 183 34 254 58 533 110 677 126 70 8 77
7 105 -14 67 -51 137 -56 216 -15 74 37 130 139 115 211 -17 87 -94 162 -196
192 -67 20 -251 20 -400 0z"/>
<path d="M4564 1621 c-23 -10 -54 -35 -70 -55 -36 -45 -90 -84 -144 -102 -22
-8 -131 -30 -243 -50 -210 -36 -271 -50 -372 -83 -143 -45 -267 -117 -373
-216 -68 -63 -88 -93 -100 -152 l-8 -38 -62 -6 c-51 -5 -72 -13 -122 -48 -32
-23 -79 -51 -103 -61 -170 -75 -383 9 -571 227 -90 103 -137 133 -209 133
-131 0 -228 -122 -203 -253 28 -147 352 -404 629 -499 122 -42 262 -46 377
-10 94 30 188 78 266 135 67 49 99 93 109 150 7 36 9 37 40 31 52 -9 106 12
190 76 134 101 314 183 460 209 33 6 126 20 208 30 162 22 282 58 374 112 73
44 189 156 208 202 30 72 15 157 -39 215 -56 62 -170 87 -242 53z"/>
</g>
</svg>
