<?xml version="1.0" standalone="no"?>
<!DOCTYPE svg PUBLIC "-//W3C//DTD SVG 20010904//EN"
 "http://www.w3.org/TR/2001/REC-SVG-20010904/DTD/svg10.dtd">
<svg version="1.0" xmlns="http://www.w3.org/2000/svg"
 width="600.000000pt" height="600.000000pt" viewBox="0 0 600.000000 600.000000"
 preserveAspectRatio="xMidYMid meet">
<metadata>
Created by potrace 1.15, written by Peter Selinger 2001-2017
</metadata>
<g transform="translate(0.000000,600.000000) scale(0.100000,-0.100000)"
fill="#16364b" stroke="none">
<path d="M2055 5811 c-22 -10 -49 -29 -60 -42 -280 -337 -451 -553 -490 -621
-36 -64 -40 -134 -9 -193 23 -46 106 -95 158 -95 79 1 221 51 459 164 334 159
364 174 389 205 72 84 23 214 -89 239 -57 13 -80 7 -217 -54 -66 -30 -121 -52
-123 -50 -2 1 38 47 88 102 137 149 149 175 110 259 -22 49 -48 73 -98 91 -51
18 -71 17 -118 -5z"/>
<path d="M3022 5680 c-92 -56 -97 -197 -9 -255 14 -9 59 -27 101 -40 41 -13
108 -40 148 -60 176 -89 256 -182 288 -337 22 -110 -18 -172 -150 -230 -174
-77 -200 -102 -200 -192 0 -89 54 -146 139 -146 64 0 218 66 327 141 123 84
194 233 180 379 -11 105 -33 199 -65 266 -87 185 -227 322 -425 414 -171 80
-271 98 -334 60z"/>
<path d="M932 5356 c-135 -50 -243 -146 -301 -266 -35 -72 -36 -79 -36 -186 0
-110 0 -111 42 -196 48 -95 117 -174 205 -232 47 -32 66 -38 107 -38 105 0
176 88 150 186 -8 31 -30 59 -84 111 -95 92 -111 125 -107 219 3 48 74 107
160 135 50 15 79 31 96 52 48 57 43 139 -12 192 -56 53 -120 60 -220 23z"/>
<path d="M2750 4981 c-81 -26 -137 -80 -179 -171 -22 -48 -25 -68 -25 -155 1
-118 18 -168 86 -241 74 -80 190 -121 322 -112 56 3 70 8 96 33 54 51 62 129
22 198 -26 43 -69 64 -150 72 -75 7 -106 24 -100 54 2 12 18 17 65 21 71 6
108 28 136 81 38 72 4 159 -79 199 -49 24 -152 35 -194 21z"/>
<path d="M4785 4925 c-97 -53 -110 -107 -80 -331 26 -195 66 -291 144 -351
112 -86 251 -78 367 21 90 77 121 187 85 304 -40 131 -143 242 -297 319 -106
52 -171 64 -219 38z"/>
<path d="M1910 4587 c-97 -22 -235 -109 -265 -167 -38 -74 -8 -172 65 -212 46
-25 130 -20 168 10 41 33 102 64 119 60 9 -2 30 -23 48 -48 75 -107 216 -108
279 -1 24 41 25 114 3 157 -79 152 -255 237 -417 201z"/>
<path d="M2884 3912 c-35 -19 -73 -61 -97 -108 -52 -101 -84 -354 -67 -529 16
-171 38 -222 106 -251 72 -30 143 -11 186 48 21 30 23 41 18 118 -7 126 -5
339 3 391 6 35 14 49 36 62 40 24 75 98 68 144 -18 110 -156 178 -253 125z"/>
<path d="M1195 3854 c-111 -25 -247 -71 -286 -98 -42 -29 -89 -114 -89 -160 1
-44 32 -107 68 -138 44 -37 95 -52 153 -44 l49 7 -86 -128 c-48 -70 -117 -191
-154 -268 -103 -212 -220 -519 -220 -576 0 -59 43 -124 102 -155 43 -22 136
-18 185 9 78 41 361 276 528 438 131 126 278 259 288 259 13 0 7 -94 -12 -175
-26 -109 -123 -404 -178 -545 -54 -138 -97 -225 -170 -344 -59 -97 -69 -127
-59 -181 21 -111 179 -163 253 -83 27 29 171 274 230 393 51 101 223 610 253
749 32 145 20 350 -26 438 -43 84 -123 138 -201 138 -87 0 -150 -40 -366 -228
-59 -52 -109 -93 -111 -91 -2 2 31 63 75 134 93 153 134 247 149 337 35 224
-134 366 -375 312z"/>
<path d="M4235 3790 c-174 -28 -278 -98 -321 -217 -39 -109 8 -276 102 -365
80 -75 219 -95 324 -46 30 14 76 44 102 67 58 52 155 195 188 276 13 33 29 69
37 80 20 29 16 103 -7 140 -34 55 -76 67 -230 71 -74 2 -162 -1 -195 -6z m15
-325 c-24 -26 -65 -35 -58 -12 5 14 46 37 67 37 10 0 7 -8 -9 -25z"/>
<path d="M3445 3391 c-84 -39 -152 -144 -189 -292 -31 -125 -16 -189 57 -243
24 -18 43 -21 125 -21 53 0 117 6 142 13 72 21 134 72 166 139 25 51 29 69 28
143 -1 94 -19 149 -70 209 -57 68 -174 91 -259 52z"/>
<path d="M4905 2911 c-70 -43 -195 -198 -244 -300 -29 -61 -35 -88 -39 -155
-3 -71 -1 -87 20 -126 14 -25 44 -58 67 -75 36 -25 54 -30 115 -33 65 -4 79
-1 134 27 115 58 205 177 233 309 14 69 6 189 -15 228 -17 33 -101 116 -133
133 -34 17 -104 13 -138 -8z"/>
<path d="M4120 2521 c-108 -33 -180 -129 -180 -237 0 -22 13 -90 29 -151 16
-62 26 -113 22 -113 -4 0 -41 12 -82 27 -102 36 -243 39 -305 6 -55 -29 -119
-103 -138 -160 -26 -75 -21 -199 13 -328 109 -420 115 -437 184 -489 42 -32
109 -56 156 -56 51 0 141 47 169 89 30 46 45 106 37 150 -4 20 -20 74 -36 120
-37 105 -35 123 6 89 68 -57 151 -82 225 -68 150 28 249 104 288 220 27 78 29
185 6 315 -28 165 -104 458 -126 491 -54 78 -178 122 -268 95z"/>
<path d="M2954 2220 c-145 -31 -306 -98 -500 -210 -49 -28 -90 -47 -92 -41
-11 34 -69 95 -105 112 -106 48 -207 9 -343 -133 -91 -97 -114 -135 -114 -193
0 -98 92 -185 195 -185 35 0 45 -16 45 -71 0 -21 -6 -28 -27 -34 -16 -3 -49
-20 -75 -36 -108 -69 -171 -178 -189 -325 -42 -340 117 -642 416 -788 143 -71
234 -91 400 -91 132 0 145 2 235 33 185 64 346 182 370 271 28 105 -41 217
-150 241 -73 16 -120 3 -202 -57 -110 -81 -180 -113 -251 -113 -128 0 -228 39
-339 132 -65 54 -121 166 -126 252 -5 107 42 150 96 85 78 -94 151 -158 192
-169 82 -22 169 16 214 92 54 95 44 173 -37 265 -59 67 -98 149 -121 250 -9
40 -16 74 -16 76 0 3 14 7 31 11 17 3 103 44 191 92 158 85 218 113 292 140
l39 14 -6 -32 c-10 -66 -100 -297 -173 -445 -78 -159 -88 -204 -63 -270 14
-38 67 -92 108 -109 43 -18 122 -18 164 0 54 23 83 64 165 236 125 260 179
426 198 610 17 166 -62 320 -191 375 -47 20 -172 28 -231 15z"/>
</g>
</svg>
