<?xml version="1.0" standalone="no"?>
<!DOCTYPE svg PUBLIC "-//W3C//DTD SVG 20010904//EN"
 "http://www.w3.org/TR/2001/REC-SVG-20010904/DTD/svg10.dtd">
<svg version="1.0" xmlns="http://www.w3.org/2000/svg"
 width="600.000000pt" height="600.000000pt" viewBox="0 0 600.000000 600.000000"
 preserveAspectRatio="xMidYMid meet">
<metadata>
Created by potrace 1.15, written by Peter Selinger 2001-2017
</metadata>
<g transform="translate(0.000000,600.000000) scale(0.100000,-0.100000)"
fill="#16364b" stroke="none">
<path d="M2280 5802 c-35 -18 -446 -319 -570 -417 -91 -73 -192 -183 -220
-240 -51 -105 -21 -224 70 -275 41 -23 55 -25 165 -24 183 0 359 38 648 140
158 56 217 81 241 102 70 64 62 187 -16 245 -52 39 -109 34 -250 -21 -136 -54
-302 -106 -319 -100 -5 2 5 14 23 27 18 14 120 92 227 175 164 127 197 157
213 194 58 130 -85 260 -212 194z"/>
<path d="M3115 5673 c-87 -22 -134 -141 -85 -220 26 -43 39 -49 155 -68 171
-29 274 -86 319 -177 32 -65 34 -140 6 -252 -39 -154 -100 -224 -233 -267
-110 -35 -147 -77 -147 -166 0 -86 55 -143 138 -143 72 0 211 59 307 130 165
123 231 264 260 560 13 126 -35 266 -125 372 -50 57 -169 139 -247 168 -102
38 -301 74 -348 63z"/>
<path d="M935 5296 c-168 -80 -283 -206 -321 -351 -41 -154 18 -333 159 -483
68 -71 167 -142 210 -149 112 -18 208 104 164 209 -8 19 -34 50 -57 69 -133
106 -170 158 -170 238 0 78 41 126 159 186 73 36 104 65 121 110 16 42 4 109
-27 145 -59 70 -131 78 -238 26z"/>
<path d="M4803 4949 c-38 -11 -119 -98 -126 -136 -7 -36 9 -187 28 -271 31
-134 108 -248 198 -293 25 -13 68 -24 108 -27 56 -4 75 -1 121 20 68 31 123
87 155 156 37 78 31 182 -15 274 -61 124 -192 228 -341 272 -60 18 -81 19
-128 5z"/>
<path d="M2727 4940 c-43 -13 -149 -93 -205 -155 -28 -31 -68 -90 -89 -132
-36 -74 -38 -81 -38 -177 0 -93 2 -106 32 -167 55 -112 169 -200 312 -243 99
-29 165 -17 210 40 67 85 15 198 -111 239 -106 34 -168 86 -168 141 0 10 11
36 25 59 24 42 63 76 142 127 51 32 73 72 73 130 0 97 -92 167 -183 138z"/>
<path d="M1820 4394 c-86 -23 -137 -52 -206 -116 -80 -76 -119 -149 -109 -208
9 -55 66 -116 118 -125 69 -13 107 1 167 65 89 94 148 112 228 71 116 -59 235
14 237 145 0 38 -6 60 -21 81 -62 84 -266 127 -414 87z"/>
<path d="M2645 3841 c-117 -15 -215 -43 -246 -68 -96 -81 -72 -224 46 -268 44
-17 50 -17 143 0 53 10 126 19 162 19 64 1 65 1 62 -24 -7 -50 -67 -176 -123
-259 -32 -48 -132 -168 -223 -269 -175 -193 -195 -226 -182 -297 10 -53 79
-120 134 -129 76 -12 115 18 299 229 455 520 542 937 221 1051 -51 18 -208 26
-293 15z"/>
<path d="M4195 3786 c-236 -48 -357 -249 -266 -442 36 -76 88 -129 159 -161
48 -22 64 -25 141 -21 196 9 344 133 431 360 36 93 34 139 -7 189 -38 45 -74
59 -191 74 -127 17 -186 17 -267 1z m56 -317 c-26 -21 -65 -26 -59 -6 5 13 69
38 78 30 3 -3 -6 -13 -19 -24z"/>
<path d="M1155 3716 c-142 -34 -270 -92 -317 -144 -87 -96 -54 -252 65 -308
60 -28 89 -30 146 -9 22 8 41 11 41 7 0 -4 -56 -121 -125 -260 -161 -327 -265
-606 -265 -713 0 -60 43 -128 96 -154 43 -21 135 -31 188 -21 65 12 364 294
574 541 164 192 190 221 196 214 7 -6 -27 -195 -73 -409 -48 -225 -106 -437
-160 -588 -47 -131 -50 -161 -18 -222 41 -83 123 -116 201 -82 59 27 77 57
127 213 52 165 201 771 224 914 4 22 14 62 22 89 23 72 14 271 -16 348 -37 96
-123 158 -219 158 -83 0 -160 -47 -287 -175 -60 -61 -135 -141 -165 -178 -30
-38 -56 -64 -57 -60 -2 5 35 94 81 198 100 227 125 297 133 380 10 111 -36
199 -131 247 -52 26 -178 33 -261 14z"/>
<path d="M3514 3374 c-100 -36 -178 -152 -210 -313 -38 -196 19 -277 194 -273
182 4 313 67 366 175 37 75 42 134 21 215 -43 156 -220 250 -371 196z"/>
<path d="M4841 2675 c-84 -19 -179 -64 -231 -111 -39 -35 -90 -118 -90 -146
-1 -35 -16 -39 -65 -17 -38 17 -61 20 -110 17 -76 -7 -131 -34 -183 -93 -56
-64 -68 -118 -47 -216 9 -41 18 -86 22 -101 3 -16 3 -28 0 -28 -3 0 -48 14
-99 32 -83 29 -105 32 -208 33 -106 0 -119 -2 -166 -27 -63 -33 -118 -95 -138
-156 -22 -63 -20 -202 4 -342 11 -63 26 -171 32 -240 14 -164 45 -228 128
-270 78 -39 164 -30 236 25 43 33 91 116 100 172 5 37 -6 181 -22 284 -8 51 0
50 109 -6 104 -53 140 -61 227 -45 257 44 365 243 299 550 -12 58 -24 117 -27
132 l-4 28 48 -27 c41 -23 61 -27 119 -27 116 0 197 60 254 185 39 86 74 254
62 296 -30 106 -95 131 -250 98z"/>
<path d="M2906 2404 c-96 -21 -196 -63 -389 -161 -109 -56 -178 -98 -197 -120
-35 -39 -53 -101 -44 -148 l6 -35 -69 0 c-58 0 -80 -5 -131 -30 -97 -49 -142
-116 -142 -210 1 -96 90 -190 180 -190 26 0 30 -5 44 -52 19 -69 47 -190 44
-193 -73 -44 -114 -74 -139 -103 -100 -114 -106 -262 -18 -435 80 -158 188
-284 300 -350 81 -47 252 -114 344 -134 114 -24 241 -13 382 36 63 22 132 51
153 66 105 72 95 240 -18 319 -64 45 -135 43 -267 -8 -133 -51 -181 -52 -294
-3 -96 42 -151 84 -222 169 -57 68 -57 96 -1 31 54 -61 97 -83 164 -83 50 0
64 5 119 42 74 50 104 90 113 151 10 69 -13 114 -100 192 -106 95 -135 157
-194 415 -17 74 -41 158 -55 187 -13 28 -21 54 -17 57 3 3 17 6 31 6 15 0 75
29 133 64 116 69 260 134 314 143 19 3 34 4 34 1 0 -27 -140 -387 -190 -488
-35 -71 -44 -120 -29 -172 16 -62 45 -97 103 -124 61 -29 107 -30 161 -5 114
53 209 248 311 639 47 180 50 270 10 358 -53 118 -140 174 -280 180 -50 2
-108 -2 -150 -12z"/>
</g>
</svg>
