<?xml version="1.0" standalone="no"?>
<!DOCTYPE svg PUBLIC "-//W3C//DTD SVG 20010904//EN"
 "http://www.w3.org/TR/2001/REC-SVG-20010904/DTD/svg10.dtd">
<svg version="1.0" xmlns="http://www.w3.org/2000/svg"
 width="600.000000pt" height="600.000000pt" viewBox="0 0 600.000000 600.000000"
 preserveAspectRatio="xMidYMid meet">
<metadata>
Created by potrace 1.15, written by Peter Selinger 2001-2017
</metadata>
<g transform="translate(0.000000,600.000000) scale(0.100000,-0.100000)"
fill="#16364b" stroke="none">
<path d="M3026 5580 c-18 -17 -52 -65 -74 -108 -87 -168 -104 -283 -56 -380
51 -103 144 -151 312 -159 56 -3 102 -9 102 -12 0 -3 -24 -22 -53 -41 -142
-96 -491 -399 -540 -470 -23 -33 -22 -117 1 -151 62 -92 166 -140 522 -239
102 -28 223 -64 270 -81 99 -34 143 -36 188 -9 36 22 71 87 72 132 0 46 -30
106 -64 127 -37 23 -153 58 -331 101 -172 42 -265 70 -265 80 0 14 166 158
270 236 52 39 145 101 207 138 166 99 215 164 193 260 -27 121 -161 186 -427
206 -171 13 -193 16 -193 32 0 6 20 53 45 106 48 102 52 125 31 175 -36 88
-142 116 -210 57z"/>
<path d="M1519 5366 c-83 -29 -234 -139 -315 -229 -102 -112 -184 -267 -261
-491 -61 -177 -54 -270 26 -323 46 -31 89 -29 207 8 186 57 404 104 404 87 0
-11 -27 -67 -92 -188 -121 -226 -148 -306 -164 -475 -6 -59 17 -104 68 -135
51 -31 97 -26 196 24 48 24 146 67 217 96 264 107 305 137 305 228 0 92 -55
152 -145 160 -45 4 -61 -1 -133 -37 -45 -23 -82 -39 -82 -37 0 2 21 41 46 87
94 170 119 251 112 367 -7 129 -78 194 -234 212 -83 9 -268 -2 -337 -21 -22
-6 -41 -8 -44 -5 -7 6 43 91 93 156 68 90 161 168 260 218 55 28 86 79 86 141
0 78 -37 131 -109 157 -47 16 -59 16 -104 0z"/>
<path d="M4600 4509 c-66 -11 -371 -113 -421 -141 -111 -61 -90 -232 34 -266
43 -12 64 -8 231 52 71 26 130 45 132 43 2 -2 -46 -93 -107 -203 -228 -411
-236 -431 -208 -511 12 -35 126 -140 166 -153 16 -5 102 -23 193 -40 167 -32
270 -57 270 -67 0 -3 -35 -62 -78 -132 -136 -219 -205 -351 -209 -401 -10
-117 116 -200 213 -141 23 14 65 74 145 208 208 347 255 488 205 608 -45 107
-139 153 -406 200 -79 14 -148 25 -153 25 -4 0 8 28 28 63 58 99 220 436 245
507 40 116 30 227 -29 294 -45 51 -145 74 -251 55z"/>
<path d="M3765 3657 c-97 -45 -123 -169 -58 -276 38 -61 82 -84 150 -77 50 4
53 3 59 -21 5 -18 -1 -43 -19 -79 -26 -52 -29 -54 -66 -54 -51 0 -161 -34
-236 -73 -81 -43 -187 -148 -210 -209 -24 -64 -8 -124 45 -172 77 -70 171 -54
241 40 22 30 58 67 81 82 38 24 52 27 158 32 128 6 156 16 190 73 11 18 20 49
20 70 0 20 4 37 9 37 19 0 73 105 88 172 27 119 -6 242 -87 326 -43 46 -112
94 -165 117 -55 23 -162 29 -200 12z"/>
<path d="M2498 3610 c-72 -12 -145 -38 -231 -82 -153 -80 -197 -126 -197 -212
0 -61 29 -110 81 -136 66 -34 109 -27 217 35 91 52 201 95 242 95 35 0 36 -50
4 -166 -35 -125 -130 -334 -218 -478 -20 -33 -37 -69 -38 -80 -3 -43 4 -82 18
-103 8 -12 14 -32 14 -43 0 -32 28 -92 58 -123 33 -35 108 -58 154 -47 18 4
85 25 148 47 121 42 258 79 265 71 9 -9 -38 -131 -96 -245 -66 -133 -72 -170
-38 -241 57 -116 215 -147 302 -57 43 44 158 266 198 385 29 83 33 108 34 200
0 93 -3 111 -26 161 -73 156 -208 218 -410 190 -51 -7 -115 -20 -142 -28 -27
-8 -51 -12 -54 -10 -2 3 16 53 41 111 134 313 147 530 40 655 -76 88 -215 126
-366 101z"/>
<path d="M1145 3350 c-99 -12 -187 -54 -307 -148 -93 -72 -121 -159 -78 -246
23 -48 84 -91 141 -101 24 -4 59 -1 95 10 31 9 57 15 59 13 1 -2 -4 -30 -11
-63 -75 -348 -84 -399 -99 -603 -20 -279 -19 -317 5 -366 30 -61 75 -87 174
-99 97 -11 123 -7 166 30 70 58 235 294 360 513 78 138 178 289 191 290 3 0
12 -18 19 -40 30 -90 -4 -390 -70 -619 -84 -294 -57 -512 74 -592 42 -26 121
-25 164 1 67 41 87 111 56 191 -24 58 -14 156 35 376 22 100 48 228 56 284 22
147 30 361 16 434 -7 33 -19 100 -27 148 -8 48 -24 108 -35 133 -66 139 -246
164 -373 53 -70 -62 -252 -313 -351 -482 -46 -79 -45 -76 26 243 27 123 32
166 33 280 0 118 -3 142 -23 193 -30 76 -61 111 -124 141 -64 30 -95 34 -172
26z"/>
<path d="M4726 2284 c-84 -30 -158 -115 -171 -195 l-7 -39 -56 8 c-32 4 -131
7 -222 7 -127 -1 -180 -5 -230 -19 -190 -52 -302 -151 -352 -311 -5 -16 -13
-98 -16 -182 l-7 -152 -70 56 c-129 103 -259 147 -376 125 -92 -17 -146 -48
-230 -131 -81 -81 -144 -170 -242 -345 -48 -86 -63 -105 -68 -90 -4 11 -15 80
-24 154 -27 214 -75 393 -131 482 -31 49 -89 78 -154 78 -63 0 -106 -18 -147
-61 -59 -63 -68 -129 -29 -225 29 -71 57 -199 86 -394 12 -80 31 -178 41 -218
39 -154 126 -268 245 -324 58 -27 77 -31 149 -30 136 0 198 41 240 157 43 121
226 450 292 524 39 44 39 44 69 28 17 -9 75 -58 129 -109 174 -165 227 -193
370 -193 78 0 97 4 141 27 55 29 118 92 129 129 4 13 16 44 27 69 18 39 21 67
22 256 0 117 5 216 9 221 5 4 75 6 155 3 402 -12 448 -6 555 70 102 73 156
186 164 340 4 74 2 104 -11 135 -30 70 -66 113 -119 140 -57 28 -103 31 -161
9z"/>
</g>
</svg>
