<?xml version="1.0" standalone="no"?>
<!DOCTYPE svg PUBLIC "-//W3C//DTD SVG 20010904//EN"
 "http://www.w3.org/TR/2001/REC-SVG-20010904/DTD/svg10.dtd">
<svg version="1.0" xmlns="http://www.w3.org/2000/svg"
 width="600.000000pt" height="600.000000pt" viewBox="0 0 600.000000 600.000000"
 preserveAspectRatio="xMidYMid meet">
<metadata>
Created by potrace 1.15, written by Peter Selinger 2001-2017
</metadata>
<g transform="translate(0.000000,600.000000) scale(0.100000,-0.100000)"
fill="#16364b" stroke="none">
<path d="M3059 5090 c-107 -31 -194 -224 -145 -318 32 -63 94 -55 171 21 90
91 120 218 63 272 -28 28 -55 35 -89 25z m61 -71 c14 -26 5 -72 -26 -125 -28
-50 -88 -104 -113 -104 -39 0 -34 86 10 171 36 71 106 102 129 58z"/>
<path d="M1796 4653 c-42 -11 -98 -56 -127 -101 -60 -96 -62 -174 -4 -302 66
-148 76 -207 160 -970 26 -238 42 -665 33 -915 -16 -485 36 -697 232 -938 27
-34 124 -104 185 -134 76 -38 120 -52 208 -67 l72 -12 0 -175 c1 -186 17 -291
70 -457 36 -113 38 -108 -56 -116 -135 -11 -179 -42 -179 -123 0 -52 21 -77
81 -94 35 -11 55 -10 122 4 102 21 175 67 206 129 29 61 27 97 -14 210 -52
146 -77 282 -79 423 0 66 3 137 7 159 l8 38 42 -7 c34 -6 329 -11 875 -15 l42
0 -6 -53 c-7 -62 10 -166 71 -440 25 -108 45 -208 45 -221 0 -23 -5 -25 -67
-31 -96 -10 -145 -34 -167 -79 -11 -23 -15 -48 -11 -63 32 -128 274 -96 372
49 51 78 51 101 -6 309 -66 241 -85 346 -78 434 8 98 10 102 70 110 88 11 540
103 583 118 132 47 263 159 316 269 67 137 74 314 23 518 -38 150 -75 222
-154 300 -68 67 -236 175 -322 206 -24 8 -118 42 -209 74 -144 51 -532 220
-708 309 -98 49 -239 138 -352 220 -278 202 -396 346 -582 709 -100 193 -194
362 -242 432 -17 25 -39 61 -50 80 -74 140 -196 221 -329 219 -34 -1 -71 -4
-81 -6z m159 -169 c48 -33 69 -57 101 -119 15 -27 37 -61 49 -75 35 -37 151
-235 245 -415 151 -291 260 -445 436 -616 188 -182 376 -299 797 -496 120 -56
224 -106 230 -112 16 -13 141 -62 322 -126 188 -68 190 -68 309 -139 124 -74
166 -117 205 -211 49 -118 64 -195 59 -317 -4 -99 -7 -113 -41 -182 -44 -88
-113 -156 -202 -197 -67 -31 -443 -110 -607 -128 -209 -23 -1137 -7 -1345 23
-218 32 -371 162 -443 376 -53 158 -74 387 -61 672 11 229 0 551 -24 758 -33
276 -54 470 -60 560 -15 221 -61 444 -120 575 -34 79 -33 128 4 166 39 38 93
40 146 3z"/>
<path d="M2535 2626 c-15 -22 -15 -27 -1 -53 30 -59 98 -63 112 -6 11 42 -14
77 -58 81 -30 3 -40 -1 -53 -22z"/>
<path d="M3002 2440 c-35 -15 -48 -54 -28 -84 17 -27 56 -42 80 -33 25 10 49
55 42 80 -3 13 -17 29 -31 35 -30 14 -32 14 -63 2z"/>
<path d="M5293 3999 c-117 -22 -223 -110 -262 -214 -19 -50 -22 -74 -19 -145
7 -129 59 -220 157 -274 67 -36 138 -43 221 -22 141 36 231 100 281 201 28 58
31 71 27 137 -6 119 -54 194 -174 274 -73 49 -141 61 -231 43z m114 -313 c12
-11 -8 -36 -33 -42 -28 -7 -44 7 -44 40 0 16 5 18 36 13 20 -3 39 -8 41 -11z"/>
<path d="M4207 3746 c-176 -65 -274 -269 -203 -421 33 -72 69 -110 131 -139
147 -70 314 -1 387 161 42 92 25 264 -34 338 -49 62 -194 94 -281 61z m83
-279 c0 -25 -17 -47 -37 -47 -18 0 -16 30 4 52 22 24 33 23 33 -5z"/>
<path d="M5347 1099 c-56 -34 -87 -197 -50 -260 34 -57 102 -62 153 -10 34 33
50 86 50 163 0 75 -26 108 -90 114 -25 3 -53 -1 -63 -7z"/>
</g>
</svg>
