<?xml version="1.0" standalone="no"?>
<!DOCTYPE svg PUBLIC "-//W3C//DTD SVG 20010904//EN"
 "http://www.w3.org/TR/2001/REC-SVG-20010904/DTD/svg10.dtd">
<svg version="1.0" xmlns="http://www.w3.org/2000/svg"
 width="600.000000pt" height="600.000000pt" viewBox="0 0 600.000000 600.000000"
 preserveAspectRatio="xMidYMid meet">
<metadata>
Created by potrace 1.15, written by Peter Selinger 2001-2017
</metadata>
<g transform="translate(0.000000,600.000000) scale(0.100000,-0.100000)"
fill="#16364b" stroke="none">
<path d="M2058 5166 c-26 -7 -71 -31 -102 -54 -94 -71 -145 -215 -117 -332 6
-25 18 -135 27 -244 15 -180 16 -233 4 -535 -12 -318 -10 -696 6 -1007 4 -67
3 -159 0 -206 l-8 -85 -176 -106 c-97 -58 -235 -138 -306 -177 l-129 -71 -21
20 c-15 14 -26 17 -36 11 -13 -8 -13 -13 -2 -31 17 -27 11 -32 -22 -19 -62 23
-91 -5 -46 -45 27 -24 25 -31 -10 -38 -21 -5 -30 -12 -30 -27 0 -17 6 -20 42
-20 l41 0 -21 -23 c-27 -29 -28 -47 -3 -47 26 0 125 45 191 87 30 19 105 61
165 95 61 33 160 91 221 129 62 38 115 69 118 69 3 0 6 -33 6 -72 0 -234 42
-545 96 -706 90 -273 221 -390 543 -487 l74 -22 2 -184 c2 -197 14 -288 61
-444 41 -137 44 -129 -61 -136 -49 -3 -100 -11 -112 -17 -64 -35 -84 -119 -37
-163 24 -22 34 -24 122 -24 80 0 106 4 147 23 60 28 91 55 116 104 27 53 24
107 -15 227 -58 178 -71 259 -71 428 0 83 3 155 7 159 5 4 38 2 75 -4 42 -7
225 -13 472 -14 l403 -3 -6 -58 c-11 -110 25 -272 114 -511 22 -60 40 -117 40
-127 0 -14 -12 -19 -67 -24 -130 -12 -203 -59 -203 -129 0 -64 69 -94 172 -76
96 17 156 39 194 73 83 72 83 119 5 320 -89 228 -105 288 -106 387 0 47 6 103
12 126 l13 40 246 32 c135 18 267 41 293 51 143 54 237 173 295 373 58 200 78
480 43 608 -10 36 -40 112 -68 168 -44 90 -62 116 -142 196 -51 51 -114 111
-142 134 l-50 42 255 -1 c160 0 259 -4 267 -10 13 -12 159 26 169 43 3 5 -2
18 -12 29 -10 11 -12 19 -6 19 17 0 15 30 -3 36 -10 4 -13 14 -8 32 6 25 6 25
-45 18 -47 -6 -51 -5 -54 15 -4 32 -26 35 -39 5 -8 -18 -23 -28 -46 -32 -42
-8 -493 4 -616 16 -87 9 -89 10 -155 63 -94 75 -138 104 -326 212 -232 132
-418 259 -568 387 -111 95 -288 326 -365 474 -64 124 -128 308 -249 724 -51
174 -156 293 -294 334 -63 19 -98 19 -162 2z m150 -162 c20 -8 50 -27 65 -42
34 -31 81 -122 92 -172 14 -68 183 -566 228 -670 91 -211 212 -398 341 -525
95 -94 441 -345 621 -450 50 -29 135 -79 190 -111 55 -32 130 -84 167 -114
508 -416 537 -443 591 -554 62 -128 71 -176 63 -361 -14 -344 -97 -538 -254
-589 -26 -9 -159 -30 -297 -48 l-250 -33 -410 2 c-416 1 -521 8 -744 49 -103
19 -236 63 -296 99 -135 79 -222 231 -260 455 -46 267 -56 515 -30 725 19 150
19 266 0 470 -17 193 -19 555 -3 720 26 271 11 692 -34 940 -28 159 84 266
220 209z"/>
<path d="M2646 2769 c-37 -29 -34 -64 7 -89 42 -26 53 -25 82 5 65 64 -16 141
-89 84z"/>
<path d="M3105 2688 c-27 -15 -35 -28 -35 -60 0 -50 70 -77 103 -40 20 22 22
75 5 90 -23 17 -52 22 -73 10z"/>
<path d="M2956 1798 c-22 -12 -20 -51 2 -71 21 -19 102 -23 133 -7 22 12 26
64 7 77 -18 11 -123 12 -142 1z"/>
<path d="M5290 3997 c-166 -39 -276 -162 -273 -306 2 -84 20 -144 67 -214 46
-69 103 -113 176 -134 46 -14 66 -14 123 -4 182 31 304 160 315 336 4 66 2 81
-22 129 -32 66 -95 125 -176 166 -72 37 -134 44 -210 27z m98 -311 c8 -8 -12
-35 -33 -44 -22 -10 -27 -8 -41 13 -22 34 -10 48 35 40 20 -4 37 -8 39 -9z"/>
</g>
</svg>
