<?xml version="1.0" standalone="no"?>
<!DOCTYPE svg PUBLIC "-//W3C//DTD SVG 20010904//EN"
 "http://www.w3.org/TR/2001/REC-SVG-20010904/DTD/svg10.dtd">
<svg version="1.0" xmlns="http://www.w3.org/2000/svg"
 width="600.000000pt" height="600.000000pt" viewBox="0 0 600.000000 600.000000"
 preserveAspectRatio="xMidYMid meet">
<metadata>
Created by potrace 1.15, written by Peter Selinger 2001-2017
</metadata>
<g transform="translate(0.000000,600.000000) scale(0.100000,-0.100000)"
fill="#16364b" stroke="none">
<path d="M1906 4855 c-90 -32 -160 -121 -178 -226 -9 -53 -8 -76 6 -134 97
-393 99 -413 97 -1045 0 -300 3 -630 8 -735 8 -183 7 -193 -16 -280 -32 -119
-68 -303 -88 -448 -18 -136 -19 -157 -10 -212 7 -46 13 -86 14 -99 1 -4 11 -6
24 -2 15 4 27 -1 37 -14 19 -25 29 -17 58 44 16 33 20 52 13 60 -7 8 -7 32 -1
72 6 32 10 61 11 64 0 3 14 -44 30 -105 44 -165 97 -263 194 -361 67 -68 95
-89 175 -127 52 -25 131 -53 175 -62 111 -24 108 -23 100 -43 -4 -9 -10 -65
-13 -123 -6 -131 10 -214 81 -432 58 -179 59 -177 -31 -177 -142 0 -234 -72
-191 -149 21 -38 56 -51 135 -51 136 0 257 57 290 137 23 54 16 97 -41 266
-72 215 -92 330 -78 443 6 46 13 87 16 91 4 3 40 0 82 -6 41 -6 259 -14 484
-18 l408 -6 -9 -41 c-16 -69 -11 -234 11 -336 10 -52 36 -140 56 -195 20 -55
38 -109 39 -119 1 -22 -27 -33 -89 -35 -107 -3 -165 -44 -165 -118 0 -78 60
-112 175 -100 151 15 266 130 253 251 -3 22 -24 92 -47 155 -77 208 -105 380
-81 494 13 64 19 69 105 82 28 4 145 24 260 46 173 32 223 46 285 76 182 88
298 290 316 548 10 144 -28 304 -105 437 -21 37 -37 69 -34 72 3 2 20 2 38 -1
52 -8 88 4 82 28 -3 11 1 32 9 47 21 41 18 49 -33 79 -27 15 -52 33 -58 39 -5
6 -21 14 -35 17 -14 3 -59 19 -100 37 -41 18 -188 76 -327 130 -175 68 -282
116 -350 157 -54 33 -152 88 -218 123 -157 83 -513 296 -592 353 -87 65 -171
151 -252 259 -140 190 -239 373 -346 643 -88 221 -166 381 -208 425 -117 123
-250 168 -371 125z m196 -172 c44 -30 90 -95 114 -162 10 -25 28 -64 40 -86
12 -22 57 -125 99 -230 120 -298 206 -451 358 -641 126 -156 228 -241 526
-438 160 -107 339 -216 426 -261 83 -43 164 -87 180 -99 42 -31 148 -92 305
-176 74 -40 161 -88 193 -107 71 -43 202 -190 242 -271 137 -278 46 -639 -188
-748 -29 -13 -61 -24 -72 -24 -11 0 -108 -18 -215 -40 -272 -56 -358 -63 -725
-62 -573 2 -888 38 -1047 118 -199 100 -294 300 -328 689 -14 168 -32 802 -25
905 4 47 2 306 -4 575 -10 531 -20 641 -77 843 -29 101 -28 154 1 198 38 58
127 66 197 17z"/>
<path d="M2590 2697 c-20 -10 -25 -20 -25 -51 0 -76 86 -102 120 -36 20 39 19
47 -10 75 -27 28 -48 31 -85 12z"/>
<path d="M3034 2533 c-19 -14 -35 -53 -29 -72 8 -26 51 -53 78 -49 11 2 29 17
40 35 16 28 17 36 5 60 -10 22 -21 29 -48 31 -19 1 -40 -1 -46 -5z"/>
<path d="M5210 3971 c-176 -57 -243 -246 -156 -436 103 -226 356 -265 524 -81
30 34 59 78 71 111 25 65 28 160 7 210 -21 50 -90 120 -160 162 -58 36 -65 38
-161 40 -55 1 -111 -1 -125 -6z m170 -301 c0 -14 -30 -40 -46 -40 -22 0 -42
49 -24 60 14 9 70 -7 70 -20z"/>
<path d="M5360 1107 c-32 -16 -69 -106 -70 -170 0 -41 5 -53 29 -78 34 -34 92
-40 130 -13 59 42 83 189 39 237 -28 30 -92 42 -128 24z"/>
</g>
</svg>
