<?xml version="1.0" standalone="no"?>
<!DOCTYPE svg PUBLIC "-//W3C//DTD SVG 20010904//EN"
 "http://www.w3.org/TR/2001/REC-SVG-20010904/DTD/svg10.dtd">
<svg version="1.0" xmlns="http://www.w3.org/2000/svg"
 width="600.000000pt" height="600.000000pt" viewBox="0 0 600.000000 600.000000"
 preserveAspectRatio="xMidYMid meet">
<metadata>
Created by potrace 1.15, written by Peter Selinger 2001-2017
</metadata>
<g transform="translate(0.000000,600.000000) scale(0.100000,-0.100000)"
fill="#16364b" stroke="none">
<path d="M3135 5636 c-54 -25 -74 -57 -92 -147 -18 -97 -8 -202 28 -275 44
-91 149 -169 308 -229 56 -20 101 -40 101 -44 -1 -3 -63 -44 -140 -90 -163
-99 -436 -290 -467 -328 -12 -15 -25 -38 -28 -52 -4 -14 -19 -40 -35 -58 -82
-93 -42 -224 85 -279 58 -25 553 -38 603 -16 85 38 115 158 55 224 -33 36 -71
48 -195 59 -67 5 -124 11 -125 13 -2 1 90 63 203 137 293 191 358 240 389 292
63 109 35 220 -79 304 -70 52 -139 85 -278 133 -138 47 -142 52 -135 165 7
102 -5 142 -54 178 -34 25 -105 31 -144 13z"/>
<path d="M1355 5418 c-57 -21 -141 -86 -222 -172 -67 -70 -91 -105 -137 -198
-117 -237 -173 -570 -110 -655 35 -46 70 -66 126 -70 64 -5 111 17 146 68 22
31 23 41 18 119 -3 47 -2 103 2 125 l8 40 18 -27 c48 -72 118 -84 259 -42 49
14 91 23 94 20 4 -3 -6 -45 -20 -93 -65 -217 -61 -329 20 -474 2 -3 -35 -31
-81 -62 -91 -61 -126 -107 -126 -168 0 -40 27 -97 55 -115 65 -43 125 -36 218
24 88 57 227 125 332 162 114 39 132 52 156 103 40 89 10 177 -74 211 -43 18
-52 19 -95 7 -89 -25 -85 -26 -119 26 -37 57 -38 45 22 233 50 156 60 218 44
288 -15 70 -56 124 -120 156 -89 44 -241 35 -438 -25 -35 -10 -66 -17 -69 -14
-3 2 10 30 29 61 38 63 129 152 180 177 70 33 118 113 103 173 -21 88 -137
152 -219 122z"/>
<path d="M4640 4519 c-140 -15 -250 -37 -276 -54 -93 -61 -83 -209 19 -259 37
-17 42 -17 153 -1 63 10 117 15 121 12 6 -7 -81 -113 -217 -263 -90 -100 -107
-140 -90 -203 13 -48 66 -98 116 -107 70 -13 104 7 216 129 336 361 362 400
363 533 0 73 -3 84 -29 118 -66 87 -182 116 -376 95z"/>
<path d="M3864 3672 c-82 -39 -114 -129 -76 -214 26 -59 76 -114 165 -181 172
-131 279 -149 357 -61 55 63 35 167 -42 214 -18 11 -41 20 -51 20 -15 0 -17 6
-11 34 15 83 -28 141 -131 174 -98 33 -162 37 -211 14z"/>
<path d="M2503 3645 c-115 -30 -291 -99 -320 -127 -70 -66 -48 -200 41 -242
54 -26 95 -20 197 28 98 46 223 85 235 73 19 -19 -75 -296 -156 -457 -23 -47
-67 -121 -98 -165 -132 -190 -124 -176 -119 -228 2 -27 13 -61 26 -77 11 -16
21 -37 21 -47 0 -81 73 -176 147 -191 56 -12 84 -5 285 72 132 51 188 66 188
51 0 -17 -72 -189 -127 -305 -60 -126 -64 -139 -61 -192 3 -45 11 -66 34 -95
83 -104 236 -109 319 -12 15 19 56 93 91 164 101 212 154 393 154 532 0 140
-46 220 -158 275 -64 32 -72 33 -177 32 -87 -1 -128 -6 -195 -27 -47 -14 -86
-24 -88 -22 -2 2 12 31 32 64 77 132 147 340 181 535 19 112 19 136 -2 210
-21 75 -77 135 -148 159 -70 24 -190 21 -302 -8z"/>
<path d="M1215 3483 c-46 -6 -125 -33 -175 -61 -79 -43 -219 -143 -249 -178
-108 -123 -24 -304 141 -304 35 0 67 7 92 21 36 19 38 19 32 2 -4 -10 -27 -81
-51 -159 -113 -364 -175 -713 -146 -822 12 -44 58 -105 95 -124 11 -6 52 -19
91 -29 76 -20 121 -15 160 19 12 9 85 102 164 206 79 105 173 226 210 270 63
76 151 196 215 295 l28 44 14 -31 c25 -61 -3 -239 -94 -592 -89 -345 -104
-544 -45 -638 15 -25 44 -55 62 -66 71 -41 187 -13 230 57 25 40 27 110 6 147
-29 51 -15 164 55 435 71 278 101 574 82 805 -14 155 -32 219 -80 272 -62 69
-131 84 -227 51 -82 -28 -241 -205 -435 -485 -30 -43 -57 -78 -60 -78 -7 0 23
138 55 250 94 338 109 456 72 552 -36 92 -141 153 -242 141z"/>
<path d="M4533 3320 c-64 -38 -80 -114 -40 -185 19 -34 40 -49 149 -105 142
-73 188 -104 188 -126 0 -27 -32 -78 -100 -159 -90 -108 -94 -117 -91 -199 1
-40 65 -101 114 -110 64 -12 114 19 203 125 100 121 130 169 154 248 24 77 25
115 4 178 -38 115 -134 197 -348 299 -128 60 -178 68 -233 34z"/>
<path d="M3650 3211 c-123 -40 -216 -140 -261 -280 -35 -107 -8 -185 77 -223
84 -37 187 5 214 87 10 32 14 34 38 27 91 -25 247 15 289 74 75 104 33 229
-97 294 -35 18 -66 24 -140 26 -52 2 -106 0 -120 -5z"/>
<path d="M4590 2251 c-125 -41 -190 -122 -190 -237 l0 -57 -42 6 c-24 4 -94
16 -157 27 -62 11 -141 20 -175 20 -216 0 -385 -141 -430 -357 -13 -62 -22
-178 -31 -402 -3 -77 -5 -85 -28 -99 -30 -18 -14 -27 -192 113 -228 180 -279
209 -395 221 -141 15 -269 -89 -336 -273 -15 -40 -28 -72 -30 -70 -2 1 -13 66
-24 142 -24 158 -51 281 -81 372 -52 157 -209 210 -310 103 -58 -60 -65 -107
-35 -238 14 -59 34 -177 46 -262 32 -245 52 -329 109 -454 42 -92 134 -184
233 -231 139 -66 230 -68 302 -5 51 45 67 87 65 172 -1 55 7 100 31 183 18 61
34 113 37 117 5 9 105 -62 203 -144 183 -153 286 -195 417 -168 127 26 231
105 255 193 10 39 15 45 52 55 54 15 109 62 135 114 22 48 37 146 47 321 l6
117 37 0 c20 0 79 -9 131 -20 105 -22 290 -27 352 -10 62 18 159 90 200 149
60 86 80 151 86 273 7 168 -23 251 -112 303 -48 28 -132 41 -176 26z"/>
</g>
</svg>
