<?xml version="1.0" standalone="no"?>
<!DOCTYPE svg PUBLIC "-//W3C//DTD SVG 20010904//EN"
 "http://www.w3.org/TR/2001/REC-SVG-20010904/DTD/svg10.dtd">
<svg version="1.0" xmlns="http://www.w3.org/2000/svg"
 width="600.000000pt" height="600.000000pt" viewBox="0 0 600.000000 600.000000"
 preserveAspectRatio="xMidYMid meet">
<metadata>
Created by potrace 1.15, written by Peter Selinger 2001-2017
</metadata>
<g transform="translate(0.000000,600.000000) scale(0.100000,-0.100000)"
fill="#16364b" stroke="none">
<path d="M2197 5466 c-117 -49 -187 -115 -241 -226 l-31 -65 -1 -355 c0 -195
-6 -409 -12 -475 -7 -66 -12 -296 -12 -515 0 -370 -14 -827 -26 -839 -7 -7
-195 36 -304 71 -52 17 -136 50 -187 74 l-92 44 10 32 c14 50 12 70 -8 66 -10
-2 -22 -18 -27 -37 l-10 -33 -20 58 c-25 71 -50 79 -54 19 -5 -67 -8 -70 -45
-43 -52 40 -77 16 -37 -35 28 -35 25 -40 -14 -33 -24 5 -35 3 -39 -8 -7 -18 9
-32 113 -93 180 -107 259 -138 521 -203 l175 -44 0 -260 c-1 -368 37 -696 99
-862 57 -151 169 -296 295 -380 67 -45 180 -88 262 -99 l47 -6 -6 -117 c-8
-176 26 -436 73 -548 8 -19 14 -44 14 -57 0 -23 -3 -24 -89 -30 -49 -3 -102
-12 -118 -21 -73 -37 -67 -143 11 -180 47 -22 113 -20 193 6 85 28 155 92 172
155 11 39 8 53 -29 163 -61 180 -74 260 -74 447 -1 106 3 166 10 173 8 8 34 8
95 1 408 -51 579 -65 728 -57 69 4 135 9 148 13 l24 6 -7 -95 c-10 -148 18
-317 88 -522 22 -65 27 -91 18 -96 -6 -4 -47 -10 -89 -13 -90 -6 -134 -25
-156 -67 -46 -88 29 -151 157 -131 173 29 258 92 258 193 0 19 -14 74 -30 124
-76 221 -107 440 -81 566 14 66 -1 61 226 78 165 13 249 35 330 88 112 72 185
174 225 312 18 62 23 109 27 275 4 185 3 216 -25 406 -42 286 -89 398 -246
582 -36 43 -52 69 -44 72 7 2 60 16 117 31 246 63 486 176 589 277 63 62 72
80 50 94 -7 4 -13 15 -13 23 0 11 -10 14 -36 13 -34 -2 -35 -1 -31 28 6 41
-19 38 -57 -8 l-30 -38 -1 28 c0 24 -4 28 -22 25 -21 -3 -23 -8 -20 -49 3 -42
1 -49 -27 -68 -119 -85 -523 -221 -656 -221 -20 0 -64 37 -203 173 -191 185
-234 218 -501 381 -218 134 -286 182 -379 270 -89 85 -159 176 -211 276 -80
153 -152 424 -191 715 -30 223 -46 295 -86 374 -40 79 -116 161 -183 193 -70
35 -196 37 -274 4z m225 -157 c81 -42 129 -150 148 -339 37 -360 98 -596 215
-835 114 -231 251 -373 553 -572 114 -75 250 -164 302 -199 125 -82 204 -151
451 -392 327 -319 359 -377 420 -752 18 -114 21 -161 16 -310 -7 -248 -39
-351 -139 -448 -66 -64 -121 -80 -337 -97 -102 -8 -247 -23 -321 -32 -195 -25
-529 -23 -765 6 -99 11 -236 23 -305 25 -141 4 -198 15 -279 54 -80 38 -198
158 -239 244 -58 118 -71 180 -107 498 -29 248 -33 440 -15 680 27 367 33 527
36 970 2 261 7 667 11 901 l8 425 30 60 c32 62 93 114 159 133 41 13 111 4
158 -20z"/>
<path d="M2587 2882 c-27 -29 -21 -67 14 -96 38 -32 44 -32 74 -1 30 29 33 75
7 98 -25 22 -75 21 -95 -1z"/>
<path d="M3180 2837 c-38 -19 -40 -77 -4 -106 49 -39 88 -24 100 37 5 25 1 36
-19 56 -29 29 -41 31 -77 13z"/>
<path d="M2793 1939 c-28 -28 -5 -69 47 -83 45 -13 444 -33 463 -24 21 11 22
51 2 72 -21 21 -51 24 -255 31 -96 3 -191 8 -210 11 -22 3 -40 1 -47 -7z"/>
</g>
</svg>
