<?xml version="1.0" standalone="no"?>
<!DOCTYPE svg PUBLIC "-//W3C//DTD SVG 20010904//EN"
 "http://www.w3.org/TR/2001/REC-SVG-20010904/DTD/svg10.dtd">
<svg version="1.0" xmlns="http://www.w3.org/2000/svg"
 width="600.000000pt" height="600.000000pt" viewBox="0 0 600.000000 600.000000"
 preserveAspectRatio="xMidYMid meet">
<metadata>
Created by potrace 1.15, written by Peter Selinger 2001-2017
</metadata>
<g transform="translate(0.000000,600.000000) scale(0.100000,-0.100000)"
fill="#16364b" stroke="none">
<path d="M3001 5058 c-56 -30 -106 -101 -121 -171 -26 -128 59 -189 160 -116
55 40 84 74 110 125 63 126 -29 226 -149 162z m90 -48 c10 -6 19 -20 19 -31 0
-57 -104 -179 -152 -179 -19 0 -20 5 -16 54 5 66 41 125 89 149 41 20 36 19
60 7z"/>
<path d="M4784 4720 c-12 -5 -27 -24 -32 -42 -6 -18 -14 -156 -17 -306 -6
-244 -5 -275 10 -298 21 -32 53 -44 86 -32 47 16 52 42 57 335 5 294 1 321
-44 342 -29 13 -31 13 -60 1z"/>
<path d="M1736 4503 c-28 -8 -87 -47 -113 -74 -32 -35 -63 -108 -63 -150 0
-56 28 -132 72 -189 83 -110 106 -214 148 -665 26 -280 38 -490 45 -785 9
-340 33 -733 51 -820 44 -216 192 -419 366 -504 71 -35 186 -68 278 -81 l45
-5 1 -188 c0 -201 16 -306 69 -474 14 -42 25 -84 25 -91 0 -12 -22 -16 -101
-19 -99 -4 -102 -4 -130 -36 -49 -55 -34 -129 33 -163 98 -50 289 7 349 105
28 46 24 107 -16 218 -64 181 -97 414 -81 571 l8 68 81 -6 c360 -25 576 -36
718 -36 l166 0 0 -117 c-1 -127 21 -269 74 -471 16 -63 29 -120 29 -126 0 -8
-24 -15 -67 -19 -93 -10 -128 -22 -158 -57 -48 -58 -23 -135 51 -159 75 -25
206 14 273 81 72 71 76 129 26 315 -41 154 -75 345 -75 423 0 53 13 127 23
137 3 3 49 9 102 15 186 17 443 78 550 129 132 64 234 170 310 325 61 122 79
197 79 325 0 239 -118 464 -284 542 -64 30 -231 73 -481 123 -230 46 -334 81
-609 205 -370 168 -512 260 -696 453 -129 135 -177 206 -464 681 -139 229
-204 320 -295 411 -81 82 -138 108 -240 111 -44 2 -89 0 -99 -3z m175 -174
c39 -19 82 -64 118 -122 12 -20 26 -37 31 -37 15 0 75 -91 171 -255 415 -717
635 -939 1159 -1175 337 -152 470 -197 795 -264 303 -63 349 -76 395 -104 85
-53 140 -154 161 -295 33 -237 -91 -506 -275 -595 -74 -37 -310 -95 -466 -116
-227 -31 -402 -38 -630 -26 -691 36 -838 46 -915 65 -227 54 -366 204 -415
445 -24 122 -46 431 -60 833 -12 338 -23 501 -64 902 -38 372 -63 471 -144
584 -58 80 -51 155 18 178 39 13 68 9 121 -18z"/>
<path d="M2510 2633 c-24 -9 -40 -35 -40 -64 0 -32 41 -69 76 -69 43 0 71 74
42 113 -14 18 -55 29 -78 20z"/>
<path d="M2972 2354 c-41 -28 -25 -92 28 -114 28 -12 33 -11 55 10 48 45 22
120 -40 120 -11 0 -31 -7 -43 -16z"/>
<path d="M5312 3979 c-73 -12 -146 -52 -207 -113 -68 -68 -97 -131 -98 -215
-1 -57 4 -75 33 -129 79 -148 233 -218 390 -178 108 28 199 92 247 174 21 36
28 62 31 127 5 87 -8 127 -65 202 -41 54 -156 123 -221 134 -31 5 -57 8 -57 8
0 -1 -24 -5 -53 -10z m102 -299 c12 -12 -9 -35 -41 -45 -19 -5 -25 -1 -33 20
-6 15 -7 31 -4 37 7 11 63 3 78 -12z"/>
<path d="M4174 3729 c-71 -27 -137 -88 -171 -157 -24 -49 -28 -69 -28 -142 0
-94 18 -141 72 -192 55 -52 111 -73 193 -73 223 0 360 198 291 422 -23 77 -52
111 -121 142 -60 27 -166 27 -236 0z m131 -249 c9 -15 -4 -47 -22 -54 -27 -11
-38 10 -19 38 17 28 31 32 41 16z"/>
<path d="M5371 1114 c-41 -17 -72 -85 -79 -170 -4 -60 -3 -64 27 -95 29 -28
36 -31 74 -26 74 10 119 86 121 204 1 41 -4 57 -20 73 -25 26 -81 32 -123 14z"/>
</g>
</svg>
