<?xml version="1.0" standalone="no"?>
<!DOCTYPE svg PUBLIC "-//W3C//DTD SVG 20010904//EN"
 "http://www.w3.org/TR/2001/REC-SVG-20010904/DTD/svg10.dtd">
<svg version="1.0" xmlns="http://www.w3.org/2000/svg"
 width="600.000000pt" height="600.000000pt" viewBox="0 0 600.000000 600.000000"
 preserveAspectRatio="xMidYMid meet">
<metadata>
Created by potrace 1.15, written by Peter Selinger 2001-2017
</metadata>
<g transform="translate(0.000000,600.000000) scale(0.100000,-0.100000)"
fill="#16364b" stroke="none">
<path d="M1375 5644 c-104 -69 -205 -140 -222 -157 -40 -38 -51 -83 -29 -125
38 -73 98 -71 476 19 188 44 210 58 210 131 0 62 -54 97 -127 83 -36 -6 -37
-6 -22 12 26 29 31 59 15 97 -14 35 -58 66 -93 66 -10 0 -103 -57 -208 -126z"/>
<path d="M2374 5434 c-44 -22 -54 -51 -54 -162 0 -200 -26 -378 -75 -507 -45
-120 -98 -181 -205 -235 -64 -33 -80 -52 -80 -100 0 -44 47 -90 92 -90 53 0
166 69 239 147 99 105 158 233 195 423 17 90 32 429 20 474 -7 27 -58 66 -86
66 -8 0 -29 -7 -46 -16z"/>
<path d="M3520 5316 c-14 -8 -36 -35 -49 -61 -23 -47 -23 -47 -6 -111 48 -180
224 -314 335 -257 45 23 73 76 66 126 -10 88 -120 246 -197 284 -59 30 -117
37 -149 19z"/>
<path d="M2953 5110 c-121 -69 -192 -271 -135 -380 51 -96 201 -87 312 19 67
64 102 234 64 314 -39 82 -145 102 -241 47z m57 -221 c-7 -11 -14 -19 -16 -16
-7 7 7 37 17 37 6 0 5 -9 -1 -21z"/>
<path d="M4755 4745 c-44 -22 -58 -51 -63 -130 -10 -158 29 -359 86 -444 86
-128 264 -149 355 -42 99 118 39 334 -141 502 -124 116 -180 143 -237 114z"/>
<path d="M2674 4231 c-91 -24 -167 -100 -180 -182 -15 -90 44 -185 143 -231
127 -60 269 -47 408 37 122 73 166 138 145 213 -19 73 -62 99 -245 147 -71 18
-227 28 -271 16z"/>
<path d="M1141 4112 c-68 -10 -109 -75 -91 -142 13 -49 43 -73 128 -99 37 -12
78 -27 91 -35 24 -13 24 -14 4 -20 -12 -4 -54 1 -94 10 -152 34 -183 30 -219
-29 -25 -41 -25 -83 0 -124 24 -40 55 -56 157 -82 243 -62 432 25 433 200 1
158 -132 279 -350 318 -19 4 -46 5 -59 3z"/>
<path d="M4250 3780 c-107 -18 -219 -101 -266 -196 -68 -139 -6 -321 132 -390
29 -14 60 -19 124 -19 78 0 90 3 148 34 119 65 190 181 203 330 11 137 -23
192 -141 224 -73 20 -145 26 -200 17z m50 -284 c0 -19 -27 -46 -46 -46 -24 0
-12 33 16 47 31 16 30 16 30 -1z"/>
<path d="M5203 3765 c-124 -38 -205 -123 -238 -250 -31 -122 -6 -238 71 -325
66 -72 112 -94 199 -95 95 0 181 41 256 123 70 77 102 148 107 239 3 60 0 80
-20 125 -26 56 -115 150 -171 180 -39 21 -143 23 -204 3z m102 -295 c8 -13
-42 -63 -55 -55 -15 9 -12 31 6 49 18 18 40 21 49 6z"/>
<path d="M1630 3672 c-16 -17 -30 -38 -30 -47 0 -39 62 -270 86 -321 32 -68
76 -94 126 -73 37 15 48 37 48 98 0 74 -86 307 -128 344 -9 9 -29 19 -44 22
-22 6 -33 1 -58 -23z"/>
<path d="M3414 3381 c-16 -10 -44 -40 -62 -67 -43 -67 -112 -226 -112 -257 0
-61 46 -107 107 -107 37 0 123 50 158 92 45 53 89 156 93 220 4 56 3 59 -36
98 -33 33 -47 40 -78 40 -22 0 -53 -8 -70 -19z"/>
<path d="M1945 3053 c-322 -26 -544 -97 -693 -223 -174 -146 -262 -331 -248
-520 14 -194 117 -343 311 -451 157 -86 241 -174 349 -365 114 -199 189 -288
317 -370 110 -72 173 -89 324 -88 147 0 250 19 426 78 70 24 157 43 255 56
268 37 413 79 609 175 155 75 244 134 361 235 165 144 259 274 316 440 30 87
32 105 33 220 0 121 -1 128 -32 191 -63 127 -218 283 -345 346 -106 53 -134
56 -468 54 -348 -3 -396 2 -560 60 -322 114 -447 143 -680 159 -141 10 -192
10 -275 3z m338 -388 c64 -10 183 -41 322 -86 329 -106 396 -118 675 -130 129
-5 276 -6 325 -2 50 4 101 6 115 5 55 -7 160 -95 199 -170 23 -43 -22 -175
-93 -270 -101 -138 -365 -309 -598 -386 -115 -39 -336 -86 -403 -86 -24 0 -93
-15 -153 -34 -151 -48 -247 -66 -344 -66 -144 1 -200 42 -313 231 -123 207
-203 288 -420 427 -60 39 -123 81 -139 93 -115 90 -89 265 52 359 62 41 253
98 412 123 64 10 270 6 363 -8z"/>
<path d="M409 2161 c-39 -39 -38 -76 5 -179 79 -190 194 -343 297 -398 113
-59 224 -24 265 83 41 107 -38 245 -204 356 -120 80 -280 167 -307 167 -16 0
-38 -12 -56 -29z"/>
<path d="M4812 1565 c-26 -21 -37 -24 -70 -19 -49 8 -102 -9 -132 -41 -47 -50
-32 -235 28 -355 70 -141 238 -129 311 22 55 114 81 318 48 369 -36 55 -134
67 -185 24z"/>
</g>
</svg>
