<?xml version="1.0" standalone="no"?>
<!DOCTYPE svg PUBLIC "-//W3C//DTD SVG 20010904//EN"
 "http://www.w3.org/TR/2001/REC-SVG-20010904/DTD/svg10.dtd">
<svg version="1.0" xmlns="http://www.w3.org/2000/svg"
 width="600.000000pt" height="600.000000pt" viewBox="0 0 600.000000 600.000000"
 preserveAspectRatio="xMidYMid meet">
<metadata>
Created by potrace 1.15, written by Peter Selinger 2001-2017
</metadata>
<g transform="translate(0.000000,600.000000) scale(0.100000,-0.100000)"
fill="#16364b" stroke="none">
<path d="M2595 5514 c-50 -26 -70 -51 -114 -142 -44 -93 -64 -182 -54 -235 7
-39 45 -106 75 -135 13 -11 50 -33 83 -49 53 -24 71 -27 165 -28 58 0 142 6
188 14 45 7 84 12 86 10 2 -2 -33 -42 -77 -89 -179 -187 -263 -290 -400 -493
-82 -121 -87 -131 -87 -180 1 -67 29 -131 72 -157 30 -18 50 -20 198 -20 188
0 338 -11 557 -41 l153 -21 45 22 c82 40 111 138 62 211 -43 65 -93 76 -457
104 -107 8 -203 15 -213 15 -16 0 -14 6 12 42 31 42 169 194 334 367 49 51
109 120 132 153 104 140 76 280 -71 353 -77 38 -193 44 -362 20 -65 -9 -130
-15 -145 -13 l-26 3 31 69 c34 78 34 129 1 175 -41 56 -128 77 -188 45z"/>
<path d="M1612 5151 c-190 -71 -439 -306 -552 -523 -30 -57 -40 -88 -40 -122
0 -60 29 -117 72 -140 36 -20 37 -20 254 4 84 10 139 11 180 4 l59 -9 -3 -120
c-2 -66 -1 -134 3 -152 15 -80 109 -136 191 -114 43 11 101 61 115 98 16 42
28 260 19 320 -27 165 -133 259 -321 285 -46 6 -86 13 -87 14 -16 11 176 147
239 169 88 31 121 73 121 151 0 122 -116 184 -250 135z"/>
<path d="M4296 4709 c-83 -13 -207 -59 -302 -110 -95 -51 -140 -88 -155 -127
-15 -39 -10 -105 10 -138 20 -33 75 -64 113 -64 13 0 85 31 159 68 74 38 154
73 177 79 39 10 42 9 42 -8 0 -35 -89 -261 -161 -409 -87 -177 -92 -194 -77
-240 14 -44 102 -145 143 -164 26 -13 77 -14 313 -9 262 6 282 5 288 -11 12
-32 -27 -139 -124 -341 -106 -220 -116 -258 -76 -312 32 -43 82 -73 124 -73
66 0 98 32 173 175 148 283 191 405 191 550 1 107 -13 153 -63 208 -90 100
-172 122 -423 113 -98 -3 -178 -4 -178 -1 0 2 12 30 26 62 153 346 188 522
127 635 -57 105 -167 144 -327 117z"/>
<path d="M1965 3999 c-102 -44 -284 -106 -409 -139 -143 -38 -186 -78 -186
-172 0 -84 66 -148 152 -148 107 0 476 116 613 193 45 25 85 92 85 142 0 49
-40 118 -80 137 -50 25 -95 22 -175 -13z"/>
<path d="M3765 3690 c-91 -19 -201 -76 -304 -157 -93 -73 -113 -99 -118 -160
-8 -90 56 -163 144 -163 52 0 73 10 133 63 51 45 179 122 187 113 17 -17 -64
-243 -135 -375 -37 -69 -44 -76 -108 -110 -81 -43 -114 -85 -114 -145 0 -54
29 -100 79 -126 76 -38 94 -34 431 102 175 71 249 120 290 191 48 84 40 178
-22 233 -31 29 -90 47 -124 38 -31 -8 -31 -23 2 126 37 171 -18 300 -151 356
-45 18 -138 26 -190 14z"/>
<path d="M2370 3441 c-142 -31 -281 -82 -318 -116 -39 -36 -52 -99 -33 -158
16 -47 80 -104 127 -113 37 -7 46 -5 170 40 143 51 289 71 301 40 10 -27 -17
-124 -68 -241 -27 -61 -49 -124 -49 -138 0 -104 110 -171 215 -130 51 19 78
50 124 142 70 141 96 244 89 365 -7 141 -65 230 -190 294 -47 24 -66 28 -168
31 -85 2 -137 -2 -200 -16z"/>
<path d="M1140 3166 c-124 -48 -190 -103 -210 -177 -31 -114 62 -238 179 -239
l34 0 -6 -107 c-18 -292 -29 -618 -25 -709 4 -87 8 -108 31 -147 35 -59 99
-92 177 -91 84 1 129 29 210 131 5 6 18 18 30 26 11 8 48 65 81 128 86 161
194 322 274 408 67 71 69 72 79 50 5 -13 10 -109 10 -214 1 -208 -9 -280 -66
-475 -34 -117 -37 -164 -13 -209 41 -81 180 -82 247 -3 56 67 122 296 140 490
12 128 1 376 -24 522 -29 170 -112 255 -250 254 -57 0 -78 -6 -145 -39 -62
-31 -97 -58 -173 -134 -53 -53 -116 -126 -140 -163 -48 -72 -65 -85 -56 -40 4
15 7 133 9 262 2 203 0 243 -16 293 -21 68 -79 137 -142 170 -50 26 -183 33
-235 13z"/>
<path d="M4775 2713 c-48 -25 -66 -45 -91 -98 -17 -35 -24 -68 -24 -111 l0
-61 -68 -11 c-335 -56 -550 -216 -600 -447 -21 -97 -22 -124 -11 -195 15 -98
41 -170 95 -264 l46 -78 -33 -34 c-18 -19 -40 -34 -49 -34 -9 0 -71 22 -138
49 -66 27 -151 57 -189 66 -253 64 -499 -98 -725 -478 -30 -49 -56 -78 -92
-102 -28 -19 -66 -46 -83 -61 -41 -33 -74 -34 -117 -1 -86 66 -159 208 -206
402 -42 172 -61 201 -155 230 -126 39 -265 -54 -265 -178 0 -90 150 -461 242
-596 50 -73 158 -173 224 -208 184 -98 327 -78 518 70 44 35 103 74 129 86 51
25 79 60 173 220 59 100 163 216 213 237 52 23 100 14 236 -44 137 -58 187
-71 266 -72 170 0 359 139 359 265 0 15 15 27 60 47 141 62 169 227 63 369
-52 69 -83 143 -83 199 0 53 22 64 200 94 247 43 350 114 412 284 24 66 29
227 9 299 -16 59 -68 122 -121 149 -55 28 -149 32 -195 7z"/>
<path d="M3145 2501 c-110 -20 -241 -54 -413 -107 -157 -49 -212 -101 -212
-203 0 -51 15 -89 48 -124 63 -66 130 -73 286 -27 202 59 431 105 441 90 3 -4
-4 -36 -15 -70 -11 -35 -20 -72 -20 -84 0 -71 55 -157 117 -182 75 -32 174 -2
219 65 13 20 38 75 56 121 28 75 32 97 32 190 1 94 -2 111 -25 161 -33 70 -89
127 -154 158 -69 33 -220 38 -360 12z"/>
</g>
</svg>
