<?xml version="1.0" standalone="no"?>
<!DOCTYPE svg PUBLIC "-//W3C//DTD SVG 20010904//EN"
 "http://www.w3.org/TR/2001/REC-SVG-20010904/DTD/svg10.dtd">
<svg version="1.0" xmlns="http://www.w3.org/2000/svg"
 width="600.000000pt" height="600.000000pt" viewBox="0 0 600.000000 600.000000"
 preserveAspectRatio="xMidYMid meet">
<metadata>
Created by potrace 1.15, written by Peter Selinger 2001-2017
</metadata>
<g transform="translate(0.000000,600.000000) scale(0.100000,-0.100000)"
fill="#16364b" stroke="none">
<path d="M3085 5665 c-91 -33 -122 -135 -64 -216 11 -15 63 -58 117 -95 213
-147 339 -261 369 -332 39 -95 -42 -186 -292 -326 -55 -31 -105 -56 -112 -56
-6 0 -14 13 -18 30 -3 16 -22 43 -41 60 -52 45 -100 42 -211 -15 -164 -84
-245 -166 -279 -283 -46 -158 93 -338 276 -357 42 -5 63 -2 90 12 103 54 108
202 8 263 -18 11 -43 20 -55 20 -34 0 -28 13 20 47 85 61 127 74 127 38 0 -22
52 -77 87 -91 56 -24 86 -17 230 57 160 82 237 127 311 182 145 109 227 316
188 474 -33 136 -95 207 -321 372 -326 238 -344 248 -430 216z"/>
<path d="M1952 5520 c-18 -11 -41 -34 -50 -52 -9 -17 -39 -58 -67 -91 -166
-198 -289 -358 -313 -406 -37 -77 -37 -159 0 -217 37 -57 80 -91 140 -109 88
-26 104 -24 468 59 214 49 245 63 272 123 33 75 12 140 -62 191 -18 12 -47 22
-65 22 -17 0 -106 -20 -196 -44 -90 -24 -166 -42 -168 -40 -2 2 23 33 55 70
192 216 246 324 209 420 -33 86 -143 123 -223 74z"/>
<path d="M1076 5326 c-182 -95 -318 -254 -356 -415 -59 -254 135 -621 312
-587 79 15 128 74 128 156 0 47 -10 71 -53 119 -79 91 -98 205 -51 299 30 60
74 100 165 152 75 42 101 80 102 149 1 84 -54 149 -134 158 -37 4 -56 -1 -113
-31z"/>
<path d="M4673 4810 c-56 -25 -83 -70 -83 -136 0 -28 6 -59 14 -70 13 -16 13
-22 1 -41 -8 -12 -17 -40 -21 -61 -12 -78 69 -203 175 -271 151 -97 371 -67
441 59 20 37 25 59 24 120 0 194 -149 330 -440 404 -74 19 -60 20 -111 -4z"/>
<path d="M1835 4319 c-95 -27 -239 -99 -300 -149 -65 -54 -98 -113 -90 -160
16 -85 77 -140 155 -140 50 0 69 10 148 81 30 28 76 57 110 69 57 22 62 22
192 4 42 -6 114 28 143 67 51 70 21 172 -63 219 -63 34 -195 38 -295 9z"/>
<path d="M2570 3760 c-182 -43 -233 -68 -265 -131 -48 -92 25 -209 130 -209
22 0 74 11 115 24 88 28 185 42 194 28 17 -27 -73 -223 -174 -382 -30 -47
-104 -148 -164 -225 -133 -170 -140 -183 -131 -241 19 -129 188 -175 278 -75
49 54 208 267 268 357 61 94 179 333 209 424 32 97 37 187 14 249 -60 167
-241 236 -474 181z"/>
<path d="M4130 3754 c-112 -22 -186 -70 -224 -145 -71 -143 6 -320 173 -397
45 -21 71 -26 136 -27 71 0 88 4 147 33 104 51 186 158 218 282 11 41 10 51
-20 127 -46 120 -60 127 -255 129 -82 1 -161 0 -175 -2z"/>
<path d="M1215 3635 c-126 -34 -349 -136 -397 -182 -59 -57 -75 -172 -31 -231
49 -66 140 -90 216 -59 20 9 37 14 37 12 0 -3 -14 -39 -31 -81 -48 -122 -196
-603 -218 -713 -30 -144 -28 -206 8 -263 35 -54 90 -84 176 -93 43 -5 71 -3
95 7 65 28 322 308 654 712 21 26 40 45 42 43 3 -3 0 -54 -6 -113 -15 -157
-81 -471 -144 -690 -86 -297 -94 -376 -48 -441 62 -87 199 -80 246 12 9 17 29
86 45 155 16 69 46 179 66 245 106 349 135 520 142 847 6 266 0 312 -50 379
-33 45 -99 73 -158 66 -112 -14 -192 -77 -360 -285 -125 -155 -169 -205 -169
-192 0 5 13 42 29 82 16 40 57 159 91 263 95 288 94 386 -6 474 -43 37 -105
62 -156 60 -13 0 -46 -6 -73 -14z"/>
<path d="M3590 3341 c-93 -19 -193 -98 -239 -189 -31 -60 -51 -148 -52 -220
-1 -76 28 -129 84 -155 43 -21 125 -22 152 -3 11 7 45 17 75 21 245 31 367
170 318 363 -16 64 -94 143 -163 165 -64 20 -131 27 -175 18z"/>
<path d="M4762 2854 c-70 -35 -134 -108 -157 -179 -15 -49 -16 -65 -5 -118 25
-130 120 -251 220 -281 67 -20 81 -20 128 0 86 36 131 124 117 233 -8 64 -17
85 -53 123 -20 21 -23 33 -18 58 7 38 -9 107 -32 135 -51 61 -116 71 -200 29z"/>
<path d="M2838 2499 c-69 -19 -309 -119 -407 -168 -94 -48 -131 -101 -131
-186 0 -81 39 -141 115 -176 69 -32 117 -25 255 37 68 31 166 72 217 90 l93
34 0 -26 c0 -60 -98 -293 -195 -463 -30 -52 -32 -101 -6 -156 60 -129 208
-160 311 -66 124 113 290 550 290 765 0 137 -91 269 -217 316 -72 27 -230 27
-325 -1z"/>
<path d="M4363 2364 c-55 -27 -109 -94 -123 -154 -10 -43 -10 -71 0 -152 7
-54 11 -100 9 -102 -2 -3 -58 14 -124 37 -111 38 -128 41 -230 41 -96 1 -115
-2 -153 -22 -94 -50 -161 -133 -188 -234 -16 -62 -18 -234 -4 -340 5 -40 14
-119 19 -174 10 -108 22 -142 73 -199 46 -53 102 -78 173 -79 101 -2 184 64
216 171 9 34 9 71 -5 203 -10 89 -16 164 -14 166 3 2 45 -10 94 -26 160 -55
156 -54 252 -36 109 21 179 55 240 114 117 114 145 284 96 571 -20 117 -64
181 -146 215 -48 20 -144 20 -185 0z"/>
<path d="M2115 1878 c-145 -51 -188 -217 -83 -325 25 -26 37 -56 70 -183 21
-84 50 -182 64 -219 14 -36 38 -106 54 -154 39 -115 76 -169 212 -308 l113
-116 165 -82 c224 -111 309 -128 467 -95 221 45 326 139 310 275 -7 60 -36
109 -84 146 -28 21 -49 28 -99 31 -58 4 -70 1 -148 -38 -101 -50 -132 -50
-244 5 -61 30 -69 37 -65 58 7 34 -14 102 -41 134 -12 15 -40 61 -61 100 -46
90 -103 156 -171 199 l-51 33 -41 166 c-22 91 -53 191 -68 221 -63 124 -191
190 -299 152z"/>
</g>
</svg>
