<?xml version="1.0" standalone="no"?>
<!DOCTYPE svg PUBLIC "-//W3C//DTD SVG 20010904//EN"
 "http://www.w3.org/TR/2001/REC-SVG-20010904/DTD/svg10.dtd">
<svg version="1.0" xmlns="http://www.w3.org/2000/svg"
 width="600.000000pt" height="600.000000pt" viewBox="0 0 600.000000 600.000000"
 preserveAspectRatio="xMidYMid meet">
<metadata>
Created by potrace 1.15, written by Peter Selinger 2001-2017
</metadata>
<g transform="translate(0.000000,600.000000) scale(0.100000,-0.100000)"
fill="#16364b" stroke="none">
<path d="M3019 5607 c-41 -28 -91 -107 -121 -196 -17 -50 -23 -88 -23 -157 0
-84 3 -96 35 -159 61 -119 145 -162 331 -172 l107 -6 -86 -54 c-145 -91 -231
-157 -372 -286 -154 -140 -180 -173 -180 -229 0 -50 19 -85 71 -133 61 -55
183 -108 449 -196 129 -42 267 -89 305 -104 113 -43 183 -24 225 61 42 86 15
169 -70 211 -25 12 -115 41 -200 64 -258 69 -365 100 -373 108 -22 22 247 237
435 349 72 42 151 95 176 117 140 123 92 291 -105 365 -80 30 -155 40 -315 40
-75 0 -139 4 -142 9 -8 12 25 104 63 175 36 68 39 108 11 154 -39 63 -155 84
-221 39z"/>
<path d="M1525 5373 c-63 -16 -230 -137 -323 -233 -118 -121 -184 -239 -261
-466 -59 -174 -66 -242 -29 -290 32 -42 48 -52 98 -64 39 -9 59 -7 160 20 245
65 420 93 420 69 0 -8 -36 -81 -81 -164 -123 -230 -170 -334 -179 -395 -5 -30
-13 -69 -19 -87 -27 -88 49 -183 147 -183 89 0 503 202 599 293 41 38 57 86
48 143 -18 123 -140 159 -274 81 -34 -21 -66 -37 -71 -37 -5 0 20 51 56 113
75 130 104 214 104 301 -1 109 -56 188 -159 227 -71 27 -275 38 -387 19 -42
-6 -78 -9 -81 -7 -7 7 24 64 67 122 62 84 239 235 275 235 17 0 62 51 74 83
25 64 -3 157 -58 197 -30 20 -92 32 -126 23z"/>
<path d="M4595 4496 c-77 -15 -110 -26 -282 -91 -64 -24 -126 -54 -139 -66
-46 -44 -54 -128 -17 -185 18 -27 89 -64 125 -64 14 0 89 23 168 50 78 28 145
48 148 46 6 -7 -61 -148 -101 -211 -17 -27 -61 -90 -97 -140 -137 -185 -152
-207 -166 -240 -8 -19 -14 -44 -14 -57 0 -39 40 -108 74 -124 17 -9 45 -29 61
-45 23 -22 53 -34 120 -50 50 -11 128 -29 175 -40 138 -32 230 -61 230 -73 0
-6 -37 -72 -81 -146 -224 -371 -233 -391 -209 -464 14 -44 58 -82 111 -96 57
-16 120 14 155 72 35 57 239 410 274 473 112 202 59 375 -138 448 -37 13 -134
41 -217 62 -82 21 -154 41 -158 45 -5 4 31 65 79 136 133 196 201 355 219 515
22 182 -113 285 -320 245z"/>
<path d="M3760 3638 c-88 -45 -115 -137 -67 -228 36 -68 86 -103 148 -104 68
-2 78 -23 46 -95 -20 -47 -25 -51 -57 -51 -64 -1 -170 -29 -231 -61 -105 -57
-219 -200 -219 -277 0 -101 98 -185 196 -166 41 8 98 53 120 95 8 16 35 41 62
56 42 25 55 28 132 26 108 -3 147 8 189 51 26 26 34 45 38 83 4 31 13 57 29
73 12 14 32 46 43 71 63 142 15 320 -117 439 -109 97 -228 131 -312 88z"/>
<path d="M2466 3609 c-26 -5 -78 -23 -114 -39 -80 -37 -226 -134 -245 -164
-70 -105 -22 -233 90 -243 54 -6 80 4 183 67 69 43 172 80 221 80 27 0 29 -2
29 -41 0 -89 -110 -349 -244 -579 -68 -114 -71 -148 -25 -260 66 -162 150
-196 317 -125 92 38 223 80 295 94 42 7 47 7 47 -10 0 -10 -38 -93 -85 -185
-94 -183 -102 -221 -66 -292 69 -134 254 -166 336 -58 34 44 151 303 186 410
37 113 42 233 12 312 -42 109 -123 190 -217 215 -62 17 -204 12 -307 -11 -51
-11 -94 -18 -97 -16 -2 3 22 60 53 128 73 155 103 240 114 324 24 164 -50 308
-189 373 -45 20 -73 26 -150 27 -52 2 -117 -2 -144 -7z"/>
<path d="M1155 3360 c-75 -16 -170 -61 -270 -128 -114 -77 -145 -120 -145
-204 0 -154 142 -250 278 -188 l42 19 -6 -27 c-4 -15 -24 -89 -45 -165 -70
-251 -84 -340 -84 -542 0 -202 9 -246 58 -302 41 -47 97 -71 183 -79 62 -5 73
-4 104 18 19 13 55 53 79 88 24 36 113 157 196 270 134 180 186 255 293 424
l25 40 18 -35 c35 -63 8 -290 -65 -549 -24 -85 -50 -182 -57 -215 -19 -87 -17
-248 4 -316 22 -75 92 -154 149 -170 141 -37 256 103 181 220 -23 35 -12 158
31 361 52 245 76 565 56 725 -6 44 -14 119 -19 166 -5 51 -18 103 -30 126 -42
83 -130 131 -215 118 -110 -18 -172 -76 -381 -360 -81 -110 -151 -201 -155
-203 -4 -2 7 57 26 130 56 222 67 293 68 438 0 125 -2 139 -25 190 -57 121
-167 177 -294 150z"/>
<path d="M4695 2259 c-76 -29 -125 -91 -140 -176 -4 -24 -10 -43 -15 -43 -4 0
-68 7 -141 16 -192 22 -335 2 -469 -66 -163 -82 -249 -241 -267 -492 -3 -49
-9 -88 -12 -88 -3 0 -33 23 -66 51 -77 64 -180 116 -249 124 -207 26 -409
-135 -585 -470 -24 -44 -46 -84 -50 -88 -5 -4 -11 23 -15 60 -10 102 -54 315
-83 407 -48 154 -86 205 -166 227 -105 28 -223 -49 -243 -160 -7 -37 -4 -50
44 -191 16 -47 39 -148 51 -225 12 -77 29 -185 38 -240 21 -137 46 -212 92
-281 73 -109 187 -174 304 -174 114 1 191 58 222 167 17 61 151 327 228 453
25 41 59 88 76 104 l30 29 30 -20 c17 -10 70 -57 118 -104 49 -47 112 -104
140 -127 185 -143 397 -93 508 120 53 102 54 110 66 322 5 105 12 192 15 195
3 4 135 6 292 6 252 0 293 2 339 18 73 26 143 92 179 169 28 60 29 70 29 204
0 136 -1 142 -27 182 -39 58 -104 93 -181 98 -34 2 -75 -1 -92 -7z"/>
</g>
</svg>
