<?xml version="1.0" standalone="no"?>
<!DOCTYPE svg PUBLIC "-//W3C//DTD SVG 20010904//EN"
 "http://www.w3.org/TR/2001/REC-SVG-20010904/DTD/svg10.dtd">
<svg version="1.0" xmlns="http://www.w3.org/2000/svg"
 width="600.000000pt" height="600.000000pt" viewBox="0 0 600.000000 600.000000"
 preserveAspectRatio="xMidYMid meet">
<metadata>
Created by potrace 1.15, written by Peter Selinger 2001-2017
</metadata>
<g transform="translate(0.000000,600.000000) scale(0.100000,-0.100000)"
fill="#16364b" stroke="none">
<path d="M2940 5603 c-46 -17 -75 -52 -111 -129 -52 -111 -72 -186 -73 -269
-1 -93 22 -151 82 -208 64 -59 120 -76 278 -85 l129 -7 -55 -35 c-86 -55 -214
-166 -346 -301 -193 -197 -204 -212 -204 -284 0 -43 5 -51 53 -102 50 -52 58
-56 157 -84 58 -17 197 -52 310 -79 113 -27 243 -60 289 -74 102 -31 155 -33
199 -6 84 51 98 177 25 242 -26 24 -161 61 -402 109 -116 23 -216 46 -223 51
-9 6 9 30 67 84 95 90 144 128 330 259 216 151 245 185 245 293 0 70 -30 123
-97 172 -80 59 -134 70 -345 70 -118 0 -188 4 -188 10 0 5 18 50 40 99 46 102
50 146 18 203 -34 61 -117 94 -178 71z"/>
<path d="M1505 5291 c-88 -42 -171 -107 -260 -204 -155 -170 -283 -380 -321
-527 -21 -78 -14 -127 23 -170 54 -64 106 -73 245 -41 171 40 388 63 388 42 0
-12 -47 -123 -111 -261 -47 -101 -54 -123 -54 -180 0 -61 -2 -67 -32 -93 -44
-39 -60 -92 -43 -151 19 -67 89 -126 152 -126 32 0 290 105 453 185 133 65
153 78 178 116 54 85 28 182 -59 221 -58 25 -84 20 -199 -37 -49 -25 -91 -42
-93 -37 -1 5 24 64 57 131 88 183 100 275 47 379 -37 73 -105 127 -191 155
-69 23 -196 31 -280 18 -38 -5 -71 -8 -73 -6 -8 7 96 141 141 182 55 50 127
100 181 123 87 39 126 88 126 157 0 133 -132 192 -275 124z"/>
<path d="M4465 4543 c-87 -18 -331 -106 -364 -131 -90 -67 -85 -193 9 -243 52
-28 94 -24 244 27 75 25 146 44 157 42 18 -3 13 -15 -48 -118 -38 -63 -117
-187 -176 -275 -59 -88 -110 -170 -113 -182 -14 -53 5 -96 69 -156 34 -32 74
-65 88 -72 15 -8 90 -23 168 -35 127 -18 354 -69 366 -82 9 -9 -26 -80 -133
-273 -58 -104 -112 -208 -120 -229 -34 -101 50 -226 153 -226 57 0 85 27 133
128 25 53 74 149 110 212 36 63 85 157 110 208 40 83 46 104 50 176 4 71 1 89
-18 127 -30 59 -54 84 -120 124 -69 42 -191 80 -351 109 -85 16 -123 27 -121
36 2 7 39 69 84 139 150 234 218 382 218 475 0 56 -40 136 -86 174 -73 60
-172 75 -309 45z"/>
<path d="M3722 3675 c-89 -45 -140 -140 -127 -236 12 -90 65 -143 141 -141 43
0 114 33 114 53 0 5 5 9 11 9 20 0 5 -111 -25 -177 -26 -58 -30 -62 -74 -73
-92 -23 -174 -72 -253 -152 -84 -83 -104 -124 -97 -193 11 -93 94 -149 193
-131 27 5 53 24 100 72 74 76 118 97 245 119 113 20 151 41 179 99 24 48 26
73 10 125 -9 29 -7 51 10 115 25 95 26 161 6 241 -23 88 -54 144 -110 200 -65
66 -113 88 -200 93 -60 3 -77 0 -123 -23z"/>
<path d="M2445 3574 c-86 -20 -279 -119 -330 -168 -54 -51 -73 -110 -55 -170
22 -73 96 -117 171 -101 16 4 76 28 132 54 124 58 177 73 242 69 l50 -3 -2
-48 c-4 -62 -49 -178 -119 -302 -125 -221 -136 -247 -131 -292 2 -22 14 -54
25 -70 l21 -30 -25 -48 c-44 -89 -22 -187 56 -244 66 -48 107 -49 230 -6 96
33 357 105 382 105 16 0 1 -45 -56 -166 -29 -61 -56 -123 -60 -138 -10 -41 11
-103 52 -148 86 -96 216 -105 295 -20 34 36 140 292 163 394 33 144 2 280 -82
363 -99 97 -247 119 -474 70 -69 -15 -137 -29 -153 -32 -27 -5 -27 -4 49 148
124 250 147 318 148 440 0 77 -3 93 -32 152 -33 67 -96 133 -157 165 -82 42
-225 53 -340 26z"/>
<path d="M1139 3300 c-104 -18 -285 -135 -320 -208 -28 -57 -23 -144 10 -190
53 -75 139 -109 212 -83 18 6 35 9 38 6 2 -3 -10 -94 -28 -203 -42 -256 -81
-586 -81 -685 0 -92 14 -131 63 -174 82 -72 246 -81 311 -17 37 38 104 141
234 364 105 180 169 275 260 388 l35 43 18 -41 c35 -78 23 -231 -45 -613 -47
-259 -44 -393 9 -463 50 -65 128 -87 198 -56 74 33 80 49 82 235 2 132 8 193
33 327 17 91 36 210 43 264 15 126 6 316 -19 416 -11 41 -23 95 -27 120 -31
189 -181 278 -336 200 -83 -43 -323 -311 -385 -431 -8 -16 -18 -29 -23 -29 -9
0 -11 -11 30 225 41 233 45 376 11 450 -31 68 -66 102 -137 136 -62 30 -99 34
-186 19z"/>
<path d="M4770 2390 c-98 -18 -190 -120 -190 -211 0 -14 -22 -17 -177 -22
-204 -5 -290 -23 -404 -83 -131 -69 -206 -176 -229 -325 -9 -61 -8 -102 5
-208 8 -73 18 -144 22 -159 7 -31 15 -36 -101 61 -39 32 -103 74 -143 94 -64
32 -83 36 -151 37 -96 1 -157 -19 -254 -84 -147 -96 -250 -233 -393 -519 -42
-84 -59 -111 -66 -100 -17 26 -40 114 -70 269 -64 327 -95 418 -161 474 -82
71 -186 69 -251 -3 -57 -64 -59 -100 -15 -306 15 -66 38 -180 52 -253 48 -243
106 -388 195 -482 105 -112 276 -140 433 -70 68 30 159 134 193 222 63 164
159 322 244 401 70 66 90 64 188 -18 197 -165 269 -200 392 -193 116 6 236 87
285 192 14 29 32 59 41 66 21 18 46 66 56 110 5 23 1 82 -11 168 -11 73 -20
150 -20 172 0 38 0 38 50 49 28 6 82 11 121 11 105 0 256 18 329 40 139 41
251 147 287 269 24 82 20 216 -8 275 -41 89 -151 144 -249 126z"/>
</g>
</svg>
