<?xml version="1.0" standalone="no"?>
<!DOCTYPE svg PUBLIC "-//W3C//DTD SVG 20010904//EN"
 "http://www.w3.org/TR/2001/REC-SVG-20010904/DTD/svg10.dtd">
<svg version="1.0" xmlns="http://www.w3.org/2000/svg"
 width="600.000000pt" height="600.000000pt" viewBox="0 0 600.000000 600.000000"
 preserveAspectRatio="xMidYMid meet">
<metadata>
Created by potrace 1.15, written by Peter Selinger 2001-2017
</metadata>
<g transform="translate(0.000000,600.000000) scale(0.100000,-0.100000)"
fill="#16364b" stroke="none">
<path d="M3105 5641 c-47 -29 -64 -54 -92 -133 -58 -162 -37 -305 56 -398 58
-58 135 -94 281 -132 63 -17 116 -31 117 -32 2 -1 -39 -24 -90 -51 -125 -65
-256 -153 -415 -280 -140 -111 -146 -119 -178 -232 -15 -54 -15 -69 -5 -105
15 -49 56 -90 123 -124 66 -34 147 -51 328 -69 85 -8 191 -22 235 -31 89 -17
131 -13 170 18 81 64 67 192 -27 236 -50 24 -155 45 -316 63 -71 8 -111 17
-109 23 7 22 240 183 377 261 78 44 168 97 201 119 130 84 152 199 58 301 -71
77 -161 119 -341 160 -62 14 -132 32 -155 41 -38 14 -43 19 -43 47 0 18 12 59
25 92 29 71 32 135 8 177 -37 62 -146 88 -208 49z"/>
<path d="M1383 5410 c-136 -68 -331 -312 -442 -552 -64 -136 -104 -339 -87
-432 14 -74 99 -128 176 -111 39 9 94 55 110 94 8 21 20 30 43 34 18 2 104 23
192 46 88 23 166 40 173 39 9 -2 -5 -38 -42 -113 -77 -152 -98 -221 -100 -319
0 -45 3 -97 7 -116 8 -34 6 -37 -29 -60 -99 -66 -95 -199 7 -253 70 -37 108
-25 397 128 294 155 304 163 310 254 4 66 -19 110 -70 137 -51 26 -104 20
-191 -21 -43 -20 -80 -35 -83 -32 -6 5 40 126 102 272 33 79 38 100 38 170 1
64 -4 88 -21 121 -28 53 -79 97 -137 119 -65 25 -253 16 -391 -18 -55 -14
-101 -24 -103 -22 -7 7 58 123 101 181 50 68 105 118 186 166 65 39 91 83 91
151 0 59 -19 98 -65 132 -53 41 -98 42 -172 5z"/>
<path d="M4645 4481 c-217 -45 -299 -70 -328 -99 -54 -55 -54 -150 1 -204 42
-43 80 -48 202 -26 58 10 113 17 123 16 15 -2 -3 -29 -79 -123 -133 -165 -208
-264 -227 -302 -47 -90 16 -213 117 -230 64 -10 97 17 234 194 292 379 321
424 342 525 14 70 6 114 -31 172 -56 89 -173 114 -354 77z"/>
<path d="M3850 3672 c-96 -52 -107 -169 -24 -258 16 -17 66 -63 111 -104 45
-40 90 -89 100 -109 22 -43 75 -81 115 -81 101 0 181 116 148 215 -7 20 -39
65 -71 99 -38 41 -59 72 -59 87 0 49 -37 89 -116 125 -95 44 -156 52 -204 26z"/>
<path d="M2509 3636 c-114 -24 -280 -98 -337 -150 -103 -92 -41 -266 95 -266
31 0 67 12 126 41 98 50 179 79 219 79 26 0 28 -2 28 -43 0 -112 -115 -383
-264 -619 -58 -93 -66 -112 -66 -155 0 -52 15 -82 89 -178 77 -101 132 -108
312 -36 133 52 246 87 255 78 9 -8 -63 -173 -133 -306 -62 -118 -65 -126 -61
-181 9 -122 110 -199 233 -176 55 11 99 58 169 182 119 209 175 348 196 488
27 176 -50 323 -193 373 -67 23 -206 23 -306 0 -40 -10 -75 -16 -78 -13 -2 2
12 37 33 77 55 110 100 234 119 328 22 109 17 237 -12 303 -30 66 -94 132
-155 158 -65 28 -179 34 -269 16z"/>
<path d="M1082 3430 c-102 -36 -265 -140 -316 -200 -82 -98 -35 -258 89 -306
50 -19 114 -14 153 12 13 9 26 13 29 10 7 -7 -15 -87 -67 -251 -72 -225 -94
-344 -106 -596 -8 -162 -3 -199 36 -243 33 -37 55 -47 143 -67 83 -18 137 -2
200 59 127 122 235 270 497 675 58 89 65 97 77 81 23 -31 15 -122 -48 -536
-69 -457 -75 -543 -39 -626 60 -138 214 -171 287 -62 29 46 34 126 9 162 -34
48 -9 243 94 733 37 174 43 321 18 420 -9 33 -19 89 -23 125 -18 177 -79 261
-189 262 -123 2 -192 -61 -456 -417 -156 -211 -139 -189 -144 -184 -3 2 17 77
44 165 127 420 135 595 33 714 -74 86 -201 113 -321 70z"/>
<path d="M4491 3413 c-89 -44 -97 -183 -14 -241 16 -10 89 -41 163 -67 141
-50 205 -78 215 -94 12 -21 -91 -191 -181 -297 -82 -97 -93 -159 -37 -224 35
-42 74 -60 130 -60 66 0 99 23 171 119 135 178 221 351 230 458 6 84 -14 136
-80 201 -63 62 -150 110 -283 152 -55 17 -126 40 -158 51 -70 23 -111 24 -156
2z"/>
<path d="M3712 3200 c-165 -35 -328 -205 -339 -354 -7 -90 56 -156 150 -156
76 0 117 28 162 112 13 24 30 41 37 39 88 -25 149 -23 218 5 107 45 153 185
90 274 -46 65 -203 104 -318 80z"/>
<path d="M4597 2236 c-72 -26 -121 -95 -138 -195 -8 -40 -16 -61 -25 -61 -8 0
-60 7 -117 16 -145 22 -316 22 -395 -1 -89 -25 -169 -80 -224 -154 -80 -106
-110 -211 -128 -456 -7 -82 -13 -151 -14 -152 -1 -2 -34 23 -72 55 -128 108
-239 187 -293 210 -99 43 -203 48 -291 14 -85 -33 -178 -143 -231 -272 -18
-44 -36 -77 -39 -73 -4 5 -17 79 -29 167 -34 238 -77 383 -128 428 -30 27 -89
48 -136 48 -69 0 -126 -36 -159 -99 -33 -62 -35 -103 -9 -168 28 -72 47 -170
70 -353 37 -294 77 -412 177 -520 97 -105 282 -177 383 -150 53 14 116 70 132
117 6 20 9 57 6 85 -5 37 1 72 24 151 37 124 87 254 100 263 13 8 103 -62 204
-157 44 -41 102 -92 128 -112 107 -80 237 -101 350 -58 66 26 162 112 173 154
3 15 21 36 38 47 18 11 44 41 59 68 23 43 28 67 37 198 6 82 13 173 16 202 l5
52 59 0 c33 0 108 -7 167 -16 66 -10 150 -15 218 -13 100 4 116 7 176 36 164
81 250 247 237 458 -9 133 -63 204 -184 241 -58 17 -97 17 -147 0z"/>
</g>
</svg>
