<?xml version="1.0" standalone="no"?>
<!DOCTYPE svg PUBLIC "-//W3C//DTD SVG 20010904//EN"
 "http://www.w3.org/TR/2001/REC-SVG-20010904/DTD/svg10.dtd">
<svg version="1.0" xmlns="http://www.w3.org/2000/svg"
 width="600.000000pt" height="600.000000pt" viewBox="0 0 600.000000 600.000000"
 preserveAspectRatio="xMidYMid meet">
<metadata>
Created by potrace 1.15, written by Peter Selinger 2001-2017
</metadata>
<g transform="translate(0.000000,600.000000) scale(0.100000,-0.100000)"
fill="#16364b" stroke="none">
<path d="M2197 5446 c-62 -17 -93 -47 -131 -126 -26 -56 -30 -77 -31 -147 0
-76 2 -83 31 -120 60 -73 77 -78 267 -76 92 1 167 0 167 -2 0 -2 -14 -34 -31
-72 -83 -183 -166 -459 -154 -514 10 -45 73 -106 119 -114 51 -10 109 8 139
44 13 16 35 70 51 125 15 53 58 172 96 264 37 92 73 194 80 227 23 112 -4 203
-82 269 -59 51 -127 69 -242 64 l-93 -3 4 45 c9 100 -82 164 -190 136z"/>
<path d="M3646 5389 c-107 -15 -164 -80 -153 -175 6 -55 30 -91 83 -122 34
-20 48 -21 114 -16 92 7 110 -3 117 -67 6 -52 -23 -178 -62 -265 -57 -128 -6
-240 114 -251 69 -7 107 23 153 119 69 140 92 236 92 379 l1 125 -38 77 c-56
114 -145 178 -267 192 -30 3 -64 8 -75 9 -11 2 -47 -1 -79 -5z"/>
<path d="M1665 4854 c-135 -21 -373 -101 -417 -141 -52 -47 -64 -137 -27 -202
25 -45 51 -63 104 -71 29 -4 39 -10 36 -20 -25 -84 3 -166 67 -199 23 -11 89
-25 172 -35 163 -21 282 -47 412 -92 113 -39 147 -42 197 -13 52 29 74 65 78
123 5 66 -19 114 -72 143 -58 31 -380 116 -600 158 l-40 8 45 14 c63 20 215
28 276 15 120 -26 201 49 179 165 -9 48 -76 116 -130 133 -42 12 -228 22 -280
14z"/>
<path d="M3175 4374 c-44 -20 -172 -74 -284 -121 -302 -125 -383 -165 -405
-198 -65 -99 5 -229 122 -228 36 0 87 18 222 78 96 43 254 111 350 152 200 84
214 92 240 136 42 68 14 156 -60 195 -60 30 -91 28 -185 -14z"/>
<path d="M4309 4390 c-94 -12 -149 -67 -149 -147 0 -21 8 -51 19 -66 34 -52
57 -61 186 -68 136 -9 194 -25 212 -60 17 -32 16 -133 -2 -253 -20 -135 -19
-167 8 -206 36 -53 70 -73 134 -78 48 -3 64 0 92 20 19 13 43 37 52 53 34 60
52 371 28 487 -52 248 -256 360 -580 318z"/>
<path d="M2190 3865 c-108 -37 -238 -57 -407 -64 -152 -6 -175 -9 -200 -27
-69 -51 -91 -128 -56 -201 34 -73 112 -91 313 -73 201 17 465 77 518 117 87
65 94 180 15 238 -35 25 -123 30 -183 10z"/>
<path d="M3650 3752 c-189 -64 -544 -236 -587 -285 -103 -118 2 -301 149 -258
33 10 203 90 400 189 3 2 6 -16 6 -40 0 -59 16 -94 54 -118 59 -36 153 -20
195 34 12 14 38 68 59 119 34 83 38 101 39 183 0 84 -2 93 -28 127 -60 79
-152 94 -287 49z"/>
<path d="M4960 3350 c-40 -13 -67 -32 -101 -68 -58 -64 -70 -106 -62 -234 6
-95 5 -99 -22 -140 -16 -24 -72 -87 -124 -141 -153 -157 -219 -265 -262 -429
-18 -67 -23 -111 -23 -233 -1 -135 1 -154 21 -190 40 -76 105 -116 187 -116
72 0 129 25 176 79 48 54 64 107 56 183 -5 44 -2 71 15 120 36 105 58 139 148
234 207 216 276 335 296 515 8 65 -9 215 -32 284 -21 67 -84 129 -145 144 -60
15 -62 15 -128 -8z"/>
<path d="M2014 3231 c-28 -12 -72 -67 -80 -97 -10 -40 2 -114 23 -142 51 -69
96 -81 311 -81 l142 -1 0 -47 c0 -164 192 -225 272 -86 11 18 22 61 25 100 14
175 -80 290 -280 339 -72 17 -381 29 -413 15z"/>
<path d="M4308 3150 c-15 -4 -58 -35 -96 -68 -81 -69 -159 -115 -323 -188
-136 -61 -284 -110 -360 -120 -105 -13 -169 -75 -169 -163 0 -75 56 -144 126
-157 90 -17 405 76 612 180 159 80 376 253 402 320 15 41 12 104 -7 136 -33
56 -112 82 -185 60z"/>
<path d="M1325 3020 c-90 -21 -144 -83 -152 -177 -5 -52 -2 -65 31 -126 38
-74 37 -67 77 -407 43 -371 112 -575 222 -664 34 -27 46 -31 102 -31 55 0 68
4 102 31 84 67 99 157 45 282 -53 123 -79 260 -112 582 -11 107 -26 221 -35
253 -45 173 -165 284 -280 257z"/>
<path d="M2087 2460 c-113 -36 -283 -161 -308 -227 -24 -64 -1 -145 52 -186
76 -58 136 -49 224 33 62 57 111 90 137 90 7 0 23 -18 35 -39 15 -26 38 -46
68 -61 l46 -22 -35 -24 c-43 -30 -89 -120 -112 -221 -22 -100 -15 -272 15
-356 29 -82 80 -175 109 -198 89 -70 220 -29 252 79 14 44 10 61 -44 189 -14
34 -29 88 -32 120 -6 59 -2 76 52 213 23 60 13 110 -30 153 -18 18 -48 38 -67
43 l-34 10 32 17 c41 22 71 65 79 115 13 84 -71 208 -178 262 -52 25 -72 30
-132 29 -40 0 -96 -8 -129 -19z"/>
<path d="M3725 2173 c-47 -6 -212 -38 -420 -82 -104 -22 -257 -52 -340 -66
-91 -16 -165 -35 -187 -48 -52 -29 -90 -87 -96 -146 -6 -66 12 -113 58 -155
64 -57 92 -60 270 -26 149 29 615 107 771 130 73 10 77 10 120 -14 80 -46 170
-28 236 48 109 124 37 295 -147 350 -50 15 -186 20 -265 9z"/>
<path d="M4635 1641 c-49 -12 -76 -30 -142 -93 -35 -33 -86 -69 -118 -83 -31
-14 -146 -43 -258 -65 -307 -61 -484 -130 -713 -278 -105 -69 -135 -105 -142
-173 -4 -47 -5 -48 -31 -41 -14 4 -49 7 -78 6 -42 0 -63 -7 -105 -35 -229
-150 -393 -115 -678 147 -84 76 -119 94 -192 94 -115 0 -198 -81 -198 -192 0
-33 6 -71 14 -87 18 -35 121 -131 223 -209 239 -182 386 -243 582 -244 120 0
207 20 329 78 170 79 232 143 235 241 2 41 4 44 26 38 92 -23 121 -15 229 62
90 65 201 122 292 151 82 26 94 28 270 51 160 22 278 55 385 109 163 82 303
202 324 278 13 48 13 50 0 97 -27 98 -155 173 -254 148z"/>
</g>
</svg>
