<?xml version="1.0" standalone="no"?>
<!DOCTYPE svg PUBLIC "-//W3C//DTD SVG 20010904//EN"
 "http://www.w3.org/TR/2001/REC-SVG-20010904/DTD/svg10.dtd">
<svg version="1.0" xmlns="http://www.w3.org/2000/svg"
 width="600.000000pt" height="600.000000pt" viewBox="0 0 600.000000 600.000000"
 preserveAspectRatio="xMidYMid meet">
<metadata>
Created by potrace 1.15, written by Peter Selinger 2001-2017
</metadata>
<g transform="translate(0.000000,600.000000) scale(0.100000,-0.100000)"
fill="#16364b" stroke="none">
<path d="M2945 5596 c-44 -19 -75 -60 -129 -168 -74 -151 -84 -269 -29 -370
58 -106 133 -139 332 -147 l145 -6 -78 -54 c-43 -29 -112 -81 -154 -114 -93
-74 -324 -297 -363 -351 -74 -100 -4 -218 159 -270 67 -21 278 -79 547 -151
199 -53 201 -54 247 -44 119 26 163 169 77 250 -42 40 -221 93 -578 173 -34 8
-65 17 -67 19 -14 13 216 198 401 322 207 140 255 196 255 297 0 66 -29 120
-88 165 -76 58 -122 67 -349 67 -111 1 -205 4 -209 9 -4 4 7 40 25 80 60 130
64 144 57 181 -12 65 -85 127 -148 126 -13 -1 -37 -7 -53 -14z"/>
<path d="M1524 5315 c-137 -68 -408 -361 -520 -561 -114 -205 -113 -369 5
-426 l45 -22 105 28 c213 57 411 91 411 72 0 -4 -19 -51 -41 -104 -97 -228
-137 -364 -121 -412 10 -27 8 -31 -19 -51 -89 -63 -73 -192 28 -235 18 -8 46
-14 63 -14 30 0 424 153 545 212 32 15 72 40 87 55 56 53 60 135 11 193 -63
76 -134 80 -257 14 -47 -25 -86 -43 -86 -39 0 3 20 54 44 113 88 213 101 313
55 412 -67 141 -207 196 -426 168 -62 -9 -103 -10 -103 -4 0 15 147 186 212
246 33 30 80 67 106 81 26 15 57 41 70 59 47 70 15 176 -68 218 -57 28 -84 28
-146 -3z"/>
<path d="M4459 4540 c-70 -20 -306 -119 -346 -146 -54 -34 -69 -137 -30 -194
62 -93 112 -95 298 -17 75 31 142 57 148 57 33 0 -71 -206 -204 -405 -82 -121
-109 -170 -112 -201 -7 -53 19 -107 63 -135 19 -11 37 -26 41 -32 24 -36 57
-49 171 -67 133 -22 272 -52 344 -76 l47 -15 -13 -37 c-17 -48 -78 -169 -178
-355 -74 -136 -80 -152 -75 -193 10 -92 95 -163 177 -149 73 12 94 41 215 290
151 309 167 352 173 452 4 70 1 88 -17 127 -25 50 -72 96 -130 125 -48 25
-248 84 -361 107 -47 10 -86 18 -88 20 -2 1 33 57 78 124 138 209 200 361 200
491 0 195 -172 294 -401 229z"/>
<path d="M3783 3691 c-118 -30 -198 -158 -178 -287 9 -65 66 -124 118 -124 47
0 86 15 121 48 l28 27 -4 -60 c-3 -39 -14 -80 -34 -119 -28 -57 -31 -60 -101
-86 -183 -70 -323 -195 -323 -289 0 -104 109 -182 210 -152 23 7 57 31 86 61
57 59 113 87 214 107 138 26 158 34 194 74 42 46 52 90 34 144 -13 37 -12 46
11 110 20 57 25 89 25 175 1 99 -1 109 -31 171 -71 143 -238 234 -370 200z"/>
<path d="M2509 3546 c-173 -31 -388 -108 -430 -155 -38 -41 -46 -98 -21 -154
37 -83 118 -113 213 -79 167 61 205 73 264 83 36 6 77 8 91 5 25 -7 26 -10 21
-55 -8 -69 -48 -160 -148 -341 -99 -177 -108 -214 -69 -290 20 -38 20 -39 0
-82 -27 -59 -25 -104 6 -167 36 -71 86 -104 168 -109 51 -3 82 3 186 37 206
67 310 92 310 76 0 -24 -45 -135 -90 -223 -35 -68 -43 -93 -42 -136 0 -58 17
-99 54 -133 70 -66 208 -54 279 23 69 76 158 262 184 384 45 213 -11 370 -160
448 -48 26 -56 27 -195 26 -126 -1 -159 -5 -257 -31 -73 -19 -113 -26 -113
-19 0 7 29 75 64 151 99 216 120 289 121 415 0 93 -3 112 -26 160 -68 144
-210 201 -410 166z"/>
<path d="M1145 3313 c-60 -18 -201 -110 -266 -173 -130 -125 -55 -320 123
-320 29 0 60 4 68 9 8 6 17 8 20 6 4 -2 -16 -131 -43 -287 -44 -259 -49 -298
-50 -458 -2 -186 5 -231 45 -290 38 -55 71 -74 143 -78 86 -6 128 3 158 34 14
13 67 95 118 182 51 86 120 202 152 257 61 103 192 299 233 347 l22 28 21 -43
c39 -80 25 -296 -40 -632 -28 -142 -33 -193 -34 -310 0 -123 2 -144 20 -175
57 -96 197 -98 261 -2 18 26 22 51 27 159 3 83 16 181 36 278 51 253 64 360
64 525 0 146 -2 164 -37 304 -20 82 -44 163 -53 180 -38 75 -103 116 -185 116
-66 0 -125 -26 -195 -86 -55 -47 -187 -217 -278 -357 -27 -42 -53 -77 -56 -77
-4 0 -3 19 2 43 4 23 20 103 34 177 32 163 43 357 25 438 -40 179 -166 257
-335 205z"/>
<path d="M4733 2371 c-73 -19 -136 -89 -154 -169 l-10 -51 -177 2 c-201 2
-257 -8 -376 -71 -125 -65 -195 -159 -237 -318 -17 -63 -21 -112 -23 -236 0
-87 -3 -158 -6 -158 -3 0 -38 25 -79 56 -131 98 -230 137 -357 138 -72 0 -89
-4 -147 -32 -127 -63 -211 -169 -378 -484 -51 -97 -97 -174 -101 -172 -3 2
-19 57 -33 122 -113 493 -135 569 -180 614 -113 113 -310 42 -323 -117 -3 -40
3 -79 26 -157 17 -57 52 -182 77 -278 25 -96 59 -216 76 -267 70 -213 200
-333 361 -333 109 0 169 28 256 119 40 42 85 99 99 126 36 70 198 329 246 392
63 84 63 84 214 -37 149 -120 257 -159 384 -139 106 17 212 86 251 162 11 23
34 59 51 81 43 55 58 119 46 203 -13 89 -16 289 -6 300 5 4 115 8 245 9 220 0
241 2 294 23 109 42 178 106 223 203 66 143 55 319 -23 401 -56 59 -159 88
-239 68z"/>
</g>
</svg>
