<?xml version="1.0" standalone="no"?>
<!DOCTYPE svg PUBLIC "-//W3C//DTD SVG 20010904//EN"
 "http://www.w3.org/TR/2001/REC-SVG-20010904/DTD/svg10.dtd">
<svg version="1.0" xmlns="http://www.w3.org/2000/svg"
 width="600.000000pt" height="600.000000pt" viewBox="0 0 600.000000 600.000000"
 preserveAspectRatio="xMidYMid meet">
<metadata>
Created by potrace 1.15, written by Peter Selinger 2001-2017
</metadata>
<g transform="translate(0.000000,600.000000) scale(0.100000,-0.100000)"
fill="#16364b" stroke="none">
<path d="M2997 5039 c-51 -42 -89 -119 -94 -194 -4 -51 -2 -64 17 -87 30 -39
74 -37 136 5 95 63 147 164 125 239 -15 48 -44 68 -101 68 -36 0 -53 -6 -83
-31z m121 -31 c34 -34 -2 -123 -74 -187 -52 -45 -79 -52 -89 -20 -30 95 104
266 163 207z"/>
<path d="M1802 4679 c-103 -51 -152 -133 -152 -253 0 -62 5 -80 36 -141 92
-180 111 -284 124 -675 6 -168 17 -406 25 -530 11 -152 15 -341 13 -580 -5
-609 31 -800 186 -1007 91 -121 224 -200 419 -250 l106 -26 -7 -46 c-4 -25 -7
-102 -6 -171 1 -105 6 -145 32 -251 18 -69 41 -152 52 -184 11 -32 20 -69 20
-82 0 -22 -3 -23 -80 -23 -47 0 -95 -6 -115 -14 -67 -28 -91 -112 -46 -160 72
-76 296 -38 370 64 49 68 50 109 3 262 -23 73 -48 160 -57 193 -22 83 -31 265
-15 339 l12 58 31 -7 c61 -14 294 -16 592 -6 165 6 309 8 321 5 20 -5 20 -7 6
-72 -24 -114 2 -302 74 -538 19 -64 32 -119 29 -125 -4 -5 -37 -9 -75 -9 -41
0 -86 -7 -110 -16 -94 -38 -91 -143 6 -180 40 -15 55 -16 111 -7 85 15 164 55
199 100 44 58 43 106 -6 258 -50 155 -89 346 -90 431 0 34 7 84 16 111 l16 50
114 12 c141 15 318 51 444 91 169 52 298 156 369 297 78 156 112 384 77 508
-36 125 -167 285 -322 393 -32 23 -79 56 -104 74 -24 17 -130 69 -235 115
-104 46 -224 102 -266 123 -42 22 -136 64 -210 93 -397 161 -637 310 -838 523
-124 131 -192 237 -327 506 -62 124 -144 278 -182 340 -38 62 -93 153 -123
202 -74 121 -119 169 -191 205 -85 43 -161 43 -246 0z m177 -143 c39 -21 96
-87 127 -148 14 -29 36 -64 49 -78 41 -46 152 -245 268 -482 69 -141 140 -269
178 -323 79 -111 287 -321 394 -397 178 -126 427 -260 650 -351 61 -24 146
-63 190 -85 44 -22 169 -77 278 -122 176 -74 211 -93 305 -163 59 -43 120 -91
135 -105 83 -77 136 -203 137 -322 0 -196 -120 -422 -260 -487 -104 -48 -405
-108 -624 -123 -200 -15 -921 -16 -981 -2 -27 6 -105 18 -172 27 -330 42 -501
156 -577 387 -59 182 -85 500 -68 833 6 121 9 240 6 265 -17 177 -35 432 -44
645 -21 488 -43 637 -118 796 -52 110 -55 121 -42 168 19 71 99 103 169 67z"/>
<path d="M2530 2655 c-33 -40 7 -115 61 -115 52 0 80 78 41 113 -23 21 -85 22
-102 2z"/>
<path d="M2997 2442 c-40 -44 -6 -102 60 -102 26 0 36 6 48 30 8 16 15 35 15
43 0 43 -91 64 -123 29z"/>
<path d="M5245 3966 c-161 -51 -247 -194 -216 -361 23 -123 89 -221 176 -261
140 -66 371 5 462 140 42 62 56 116 50 191 -9 114 -77 208 -199 273 -56 29
-68 32 -147 31 -47 0 -104 -6 -126 -13z m170 -297 c11 -12 -27 -49 -51 -49
-17 0 -37 47 -28 62 7 12 64 3 79 -13z"/>
<path d="M4213 3756 c-135 -43 -248 -188 -247 -321 0 -94 51 -166 148 -211
177 -82 381 0 427 170 29 105 -13 277 -77 323 -69 49 -169 64 -251 39z m63
-261 c8 -20 -13 -45 -37 -45 -23 0 -24 9 -3 38 18 26 32 28 40 7z"/>
<path d="M5346 1091 c-23 -25 -56 -123 -56 -166 0 -126 146 -159 205 -46 36
71 27 184 -18 216 -31 22 -110 20 -131 -4z"/>
</g>
</svg>
