<?xml version="1.0" standalone="no"?>
<!DOCTYPE svg PUBLIC "-//W3C//DTD SVG 20010904//EN"
 "http://www.w3.org/TR/2001/REC-SVG-20010904/DTD/svg10.dtd">
<svg version="1.0" xmlns="http://www.w3.org/2000/svg"
 width="600.000000pt" height="600.000000pt" viewBox="0 0 600.000000 600.000000"
 preserveAspectRatio="xMidYMid meet">
<metadata>
Created by potrace 1.15, written by Peter Selinger 2001-2017
</metadata>
<g transform="translate(0.000000,600.000000) scale(0.100000,-0.100000)"
fill="#16364b" stroke="none">
<path d="M1534 5761 c-37 -22 -154 -228 -210 -367 -57 -141 -42 -245 41 -280
85 -35 146 -5 428 209 142 108 173 138 180 173 13 69 -44 144 -109 144 -46 0
-63 -10 -157 -87 -43 -36 -81 -63 -83 -60 -2 2 14 35 36 73 56 95 52 161 -10
197 -37 22 -78 21 -116 -2z"/>
<path d="M2341 5424 c-44 -31 -51 -68 -40 -205 12 -142 5 -300 -17 -385 -33
-129 -108 -216 -238 -278 -87 -41 -116 -73 -116 -128 0 -32 7 -47 35 -75 33
-33 39 -35 84 -31 120 12 307 141 380 263 72 119 108 332 97 570 -3 72 -6 152
-6 178 0 40 -5 54 -29 78 -25 24 -38 29 -78 29 -29 0 -58 -7 -72 -16z"/>
<path d="M3543 5324 c-43 -22 -78 -92 -69 -142 22 -141 192 -322 301 -322 38
0 95 36 112 70 56 110 -61 326 -204 380 -81 30 -104 33 -140 14z"/>
<path d="M2960 5137 c-89 -43 -164 -141 -176 -230 -17 -123 83 -237 209 -237
35 0 142 36 185 62 42 26 51 45 67 136 23 132 -7 223 -89 273 -44 27 -137 25
-196 -4z"/>
<path d="M4747 4782 c-48 -30 -61 -84 -54 -235 10 -207 47 -324 130 -414 61
-66 126 -96 212 -97 138 -1 216 66 223 194 11 189 -129 401 -356 538 -60 36
-111 41 -155 14z m239 -433 c8 -17 14 -38 12 -47 -2 -11 -12 1 -26 30 -12 26
-22 50 -22 53 0 14 21 -8 36 -36z"/>
<path d="M2695 4216 c-90 -29 -140 -70 -174 -146 -39 -85 -20 -203 45 -278
124 -146 340 -114 551 82 104 96 119 182 45 257 -33 32 -50 39 -167 68 -140
33 -232 39 -300 17z"/>
<path d="M1095 4100 c-67 -14 -108 -66 -108 -135 0 -78 57 -135 153 -150 60
-10 170 -44 170 -53 0 -13 -85 -59 -147 -81 -34 -11 -117 -34 -185 -51 -67
-17 -130 -38 -141 -48 -66 -60 -61 -170 10 -220 44 -30 77 -34 171 -17 242 42
416 123 510 237 17 22 32 38 32 35 0 -3 -7 -34 -16 -69 -34 -132 4 -268 95
-333 127 -93 305 -81 414 28 56 56 80 117 80 202 0 127 -71 239 -182 289 -119
53 -208 48 -306 -19 l-64 -44 11 30 c27 78 -13 204 -83 264 -86 72 -332 152
-414 135z"/>
<path d="M4159 3755 c-84 -27 -174 -105 -201 -175 -45 -116 -16 -253 76 -348
58 -61 107 -84 191 -90 142 -9 267 76 340 230 37 78 64 212 52 260 -21 84
-120 128 -302 134 -78 3 -123 0 -156 -11z m111 -295 c-9 -18 -40 -40 -54 -40
-3 0 -6 9 -6 20 0 21 24 39 53 40 15 0 16 -3 7 -20z"/>
<path d="M5165 3567 c-195 -73 -323 -260 -295 -430 24 -149 129 -242 271 -241
155 0 287 98 341 251 26 76 22 198 -10 259 -26 51 -112 153 -144 170 -34 19
-95 16 -163 -9z m25 -342 c-7 -8 -17 -15 -23 -15 -5 0 -2 9 8 20 21 23 35 19
15 -5z"/>
<path d="M2537 3446 c-171 -72 -264 -186 -354 -435 -19 -53 -45 -115 -58 -138
-37 -62 -107 -118 -210 -166 -228 -109 -370 -244 -475 -455 -88 -175 -124
-327 -123 -517 0 -208 49 -366 157 -510 93 -125 309 -259 511 -317 110 -31
312 -32 427 0 186 51 328 133 461 266 148 150 270 349 321 526 63 224 86 662
46 895 -25 148 -53 266 -85 367 -14 42 -25 88 -25 102 0 42 -86 198 -145 263
-42 46 -76 72 -133 100 -68 34 -85 38 -166 41 -78 2 -99 -1 -149 -22z m176
-395 c9 -16 17 -38 17 -48 0 -11 11 -51 24 -89 80 -238 138 -629 116 -790 -4
-32 -13 -99 -20 -149 -21 -157 -77 -313 -149 -419 -36 -54 -155 -167 -221
-211 -88 -58 -171 -85 -264 -85 -172 0 -377 107 -451 235 -35 61 -50 139 -49
260 1 265 125 478 340 579 110 53 198 113 273 189 86 87 129 153 180 278 68
164 110 246 137 268 30 24 44 20 67 -18z"/>
<path d="M3424 3366 c-43 -19 -92 -80 -154 -191 -58 -106 -62 -145 -19 -191
48 -51 120 -54 216 -8 112 54 187 221 144 322 -16 39 -84 82 -127 82 -16 -1
-43 -7 -60 -14z"/>
<path d="M404 2311 c-11 -5 -33 -23 -47 -41 -35 -41 -35 -89 -2 -206 83 -290
292 -557 478 -609 172 -49 309 75 279 253 -31 184 -157 327 -418 477 -66 37
-139 81 -163 97 -48 32 -94 43 -127 29z m354 -460 c55 -45 130 -146 119 -158
-11 -11 -99 71 -154 143 -79 103 -73 106 35 15z"/>
<path d="M4375 2024 c-16 -8 -40 -25 -52 -36 l-22 -21 -30 26 c-83 69 -240 21
-280 -86 -28 -74 -6 -232 61 -436 68 -205 146 -276 273 -248 122 26 170 128
225 481 33 208 32 238 -16 289 -45 48 -104 60 -159 31z"/>
</g>
</svg>
