<?xml version="1.0" standalone="no"?>
<!DOCTYPE svg PUBLIC "-//W3C//DTD SVG 20010904//EN"
 "http://www.w3.org/TR/2001/REC-SVG-20010904/DTD/svg10.dtd">
<svg version="1.0" xmlns="http://www.w3.org/2000/svg"
 width="600.000000pt" height="600.000000pt" viewBox="0 0 600.000000 600.000000"
 preserveAspectRatio="xMidYMid meet">
<metadata>
Created by potrace 1.15, written by Peter Selinger 2001-2017
</metadata>
<g transform="translate(0.000000,600.000000) scale(0.100000,-0.100000)"
fill="#16364b" stroke="none">
<path d="M2699 5527 c-41 -27 -112 -132 -140 -207 -25 -67 -28 -161 -6 -211
22 -53 81 -114 133 -138 64 -31 168 -41 298 -31 61 5 112 8 113 6 2 -2 -22
-28 -54 -57 -184 -169 -250 -245 -372 -429 -67 -102 -127 -204 -133 -226 -10
-36 -9 -47 11 -85 30 -58 57 -86 95 -98 17 -5 114 -15 216 -21 204 -12 351
-30 510 -61 159 -32 221 -18 272 59 37 57 14 158 -45 197 -45 29 -358 86 -554
100 -51 4 -93 12 -93 17 0 14 118 154 166 198 22 20 86 76 144 125 206 176
249 234 250 335 0 110 -82 190 -232 225 -77 18 -137 19 -295 3 -67 -6 -126 -9
-130 -5 -3 4 7 38 25 75 17 37 34 81 37 99 9 45 -25 117 -64 137 -44 23 -111
20 -152 -7z"/>
<path d="M1565 5208 c-195 -86 -423 -339 -543 -604 -54 -120 -36 -221 48 -264
50 -26 50 -26 213 10 124 28 296 44 311 30 3 -3 -10 -68 -29 -144 -19 -77 -35
-160 -35 -185 0 -54 28 -106 65 -123 14 -6 25 -15 25 -19 0 -7 -44 -25 -137
-54 -64 -20 -96 -44 -117 -89 -45 -96 23 -206 128 -206 72 0 431 117 566 185
104 52 130 85 130 161 0 137 -123 193 -268 120 -37 -18 -77 -36 -89 -40 -20
-6 -21 -5 -13 21 20 61 70 302 76 359 13 125 -47 234 -161 289 -56 28 -191 48
-252 38 -18 -3 -33 -1 -33 4 0 14 98 113 160 162 30 24 77 53 105 66 62 28 80
48 96 107 11 40 10 52 -5 92 -36 95 -137 130 -241 84z"/>
<path d="M4335 4655 c-77 -17 -126 -35 -249 -88 -167 -71 -213 -138 -164 -235
48 -96 113 -110 239 -50 80 38 198 78 231 78 17 0 19 -4 13 -27 -7 -31 -147
-338 -206 -453 -21 -41 -41 -87 -44 -101 -10 -42 12 -103 55 -150 22 -24 40
-47 40 -51 0 -3 16 -16 35 -28 33 -20 42 -21 198 -14 182 8 334 -7 344 -33 8
-21 -79 -285 -144 -436 -47 -108 -55 -134 -50 -169 11 -83 75 -132 164 -125
83 6 111 34 170 174 196 458 213 632 78 769 -76 76 -194 114 -361 114 -39 0
-92 3 -117 6 l-46 7 50 98 c124 245 171 464 126 581 -23 60 -91 122 -152 137
-56 14 -134 13 -210 -4z"/>
<path d="M3745 3691 c-93 -27 -164 -68 -227 -132 -90 -89 -107 -150 -65 -223
37 -65 119 -93 194 -66 15 6 48 33 73 60 25 28 63 57 84 66 l39 16 -6 -59 c-8
-74 -36 -157 -89 -259 -41 -81 -42 -82 -107 -109 -88 -36 -184 -100 -206 -138
-24 -40 -24 -111 -1 -155 25 -49 86 -84 145 -85 40 -1 60 6 118 41 59 36 135
67 380 158 95 35 163 112 163 185 0 54 -37 116 -85 144 l-43 26 16 47 c10 31
15 89 16 167 1 112 -1 124 -27 177 -67 136 -205 188 -372 139z"/>
<path d="M2492 3519 c-137 -24 -388 -134 -439 -192 -90 -102 -26 -247 109
-247 29 0 68 12 115 34 145 70 306 115 360 101 21 -5 23 -9 17 -43 -11 -58
-52 -168 -105 -278 -27 -56 -49 -115 -49 -133 0 -44 22 -91 59 -126 29 -27 39
-30 96 -30 48 0 70 5 92 21 36 26 142 234 185 363 29 86 32 109 33 211 0 109
-2 118 -30 168 -58 106 -148 154 -294 158 -53 2 -120 -1 -149 -7z"/>
<path d="M1135 3216 c-101 -32 -194 -94 -225 -148 -42 -75 -27 -163 37 -223
37 -34 115 -59 159 -51 33 7 34 6 34 -26 0 -54 -37 -352 -66 -523 -42 -260
-28 -424 42 -486 32 -28 81 -49 129 -55 36 -5 55 -2 98 20 74 36 107 73 168
191 97 188 262 434 364 543 l60 64 15 -33 c12 -27 15 -74 14 -224 0 -204 -12
-278 -85 -567 -35 -136 -30 -179 25 -234 48 -48 115 -55 198 -20 15 7 15 4 0
-37 -15 -42 -15 -50 7 -152 29 -142 110 -389 161 -495 78 -159 156 -246 280
-311 39 -21 59 -24 145 -24 94 0 104 2 169 35 39 19 95 58 127 87 31 29 61 53
66 53 6 0 28 13 50 29 28 20 55 56 88 118 114 209 243 372 308 388 36 9 84 -8
212 -75 139 -74 205 -93 299 -88 94 4 172 42 249 120 42 43 61 71 69 104 9 32
21 50 38 59 72 37 119 119 120 207 0 47 -7 69 -40 132 -43 81 -75 185 -66 214
9 28 87 50 246 72 170 23 190 28 270 71 75 40 132 103 162 178 18 46 22 76 22
171 0 144 -15 205 -62 260 -44 52 -84 70 -154 70 -130 0 -247 -108 -248 -227
0 -48 14 -42 -149 -63 -257 -35 -470 -185 -552 -392 -29 -73 -36 -203 -15
-286 14 -55 69 -180 106 -239 16 -24 7 -53 -15 -53 -9 0 -53 18 -98 41 -166
83 -251 108 -367 109 -239 0 -414 -146 -650 -547 -23 -40 -45 -73 -49 -73 -4
0 -38 -19 -76 -41 l-69 -42 -19 24 c-55 66 -122 265 -153 454 -9 55 -22 111
-29 125 -48 93 -200 139 -296 89 -40 -20 -40 -20 -30 0 20 36 80 257 96 353
48 272 34 659 -30 837 -63 178 -247 218 -427 93 -70 -49 -162 -137 -243 -233
-41 -49 -75 -83 -75 -75 0 8 9 70 21 138 38 227 26 376 -40 480 -68 108 -200
154 -326 114z"/>
<path d="M3012 2560 c-108 -25 -388 -108 -427 -127 -157 -79 -153 -301 7 -368
57 -23 84 -19 245 40 152 55 267 89 336 98 45 7 46 6 11 -119 -23 -85 -24
-100 -14 -150 14 -65 60 -129 112 -156 78 -40 174 -16 216 55 23 39 76 189 97
278 51 217 -36 388 -229 452 -68 23 -244 21 -354 -3z"/>
</g>
</svg>
