<?xml version="1.0" standalone="no"?>
<!DOCTYPE svg PUBLIC "-//W3C//DTD SVG 20010904//EN"
 "http://www.w3.org/TR/2001/REC-SVG-20010904/DTD/svg10.dtd">
<svg version="1.0" xmlns="http://www.w3.org/2000/svg"
 width="600.000000pt" height="600.000000pt" viewBox="0 0 600.000000 600.000000"
 preserveAspectRatio="xMidYMid meet">
<metadata>
Created by potrace 1.15, written by Peter Selinger 2001-2017
</metadata>
<g transform="translate(0.000000,600.000000) scale(0.100000,-0.100000)"
fill="#16364b" stroke="none">
<path d="M2195 5446 c-113 -37 -202 -113 -252 -213 l-28 -58 -1 -775 c-1 -426
-4 -836 -8 -910 -12 -240 -26 -454 -32 -504 l-6 -49 -60 7 c-111 11 -305 55
-435 98 l-128 43 3 42 c3 33 0 44 -13 49 -20 8 -26 2 -34 -38 l-7 -33 -29 55
c-39 73 -61 74 -57 3 1 -29 0 -53 -2 -53 -3 0 -21 8 -41 17 -27 13 -38 14 -47
5 -9 -9 -5 -19 20 -45 18 -18 32 -36 32 -39 0 -3 -17 -5 -37 -4 -27 1 -38 -4
-41 -15 -2 -12 33 -30 144 -73 241 -94 438 -144 643 -162 l73 -7 -7 -166 c-26
-622 130 -1116 408 -1288 82 -51 106 -61 211 -88 l89 -23 2 -173 c2 -195 15
-276 72 -452 19 -60 32 -115 29 -123 -4 -10 -23 -14 -63 -14 -107 0 -174 -36
-188 -100 -7 -33 15 -84 42 -95 106 -44 280 0 343 86 47 66 47 105 -4 259 -66
200 -79 273 -80 437 -1 89 3 146 10 153 8 8 37 8 100 1 130 -14 771 -35 844
-28 l62 7 -6 -33 c-3 -17 -8 -79 -12 -137 -10 -165 11 -291 80 -473 19 -50 23
-69 14 -72 -7 -2 -55 -5 -106 -7 -107 -5 -141 -22 -156 -80 -12 -49 9 -88 64
-116 55 -27 117 -28 198 -3 76 23 116 52 146 104 41 71 41 95 2 209 -50 147
-64 208 -76 336 -10 103 -4 198 16 263 3 13 34 18 167 28 205 16 247 24 327
63 122 59 216 182 254 329 22 87 39 271 39 429 1 115 -5 175 -26 292 -43 237
-76 308 -229 499 -49 60 -88 111 -88 113 0 2 33 7 73 10 153 16 286 58 473
153 94 47 150 83 195 125 57 52 62 59 47 71 -9 7 -16 22 -15 33 2 16 -4 19
-31 16 -30 -2 -32 0 -26 22 9 38 -14 42 -50 7 -39 -38 -46 -39 -46 -5 0 19 -5
25 -17 22 -13 -2 -19 -16 -23 -53 l-5 -49 -80 -43 c-158 -84 -342 -135 -537
-149 l-97 -7 -92 87 c-113 107 -254 214 -559 426 -329 230 -421 308 -543 467
-148 194 -212 378 -267 768 -18 127 -41 252 -55 295 -64 195 -215 330 -375
337 -36 1 -83 -3 -105 -11z m171 -177 c51 -24 95 -72 128 -137 28 -58 40 -105
61 -252 44 -309 71 -433 132 -585 67 -171 159 -310 303 -459 120 -124 165
-159 435 -341 329 -222 392 -272 536 -421 349 -363 422 -449 474 -561 29 -60
71 -279 82 -428 7 -100 -13 -369 -34 -455 -38 -156 -115 -235 -254 -260 -149
-26 -516 -43 -784 -35 -538 14 -829 34 -948 64 -258 67 -399 263 -461 641 -40
249 -45 606 -12 920 35 330 39 454 38 1290 -1 481 3 850 8 870 37 139 174 208
296 149z"/>
<path d="M2617 2878 c-37 -13 -46 -51 -20 -86 38 -51 113 -32 113 28 0 50 -40
75 -93 58z"/>
<path d="M3157 2802 c-10 -10 -17 -30 -17 -44 0 -29 38 -68 67 -68 27 0 56 33
56 65 0 56 -70 87 -106 47z"/>
<path d="M2816 1915 c-24 -24 -20 -52 11 -72 24 -16 53 -18 218 -19 104 0 198
3 208 8 9 5 17 19 17 32 0 46 -20 51 -209 51 -97 0 -188 4 -202 8 -19 6 -31 4
-43 -8z"/>
</g>
</svg>
