<?xml version="1.0" standalone="no"?>
<!DOCTYPE svg PUBLIC "-//W3C//DTD SVG 20010904//EN"
 "http://www.w3.org/TR/2001/REC-SVG-20010904/DTD/svg10.dtd">
<svg version="1.0" xmlns="http://www.w3.org/2000/svg"
 width="600.000000pt" height="600.000000pt" viewBox="0 0 600.000000 600.000000"
 preserveAspectRatio="xMidYMid meet">
<metadata>
Created by potrace 1.15, written by Peter Selinger 2001-2017
</metadata>
<g transform="translate(0.000000,600.000000) scale(0.100000,-0.100000)"
fill="#16364b" stroke="none">
<path d="M2047 5039 c-134 -20 -238 -125 -269 -270 -10 -48 -8 -73 20 -214 17
-88 34 -182 38 -210 7 -49 16 -755 18 -1406 l1 -325 -74 -80 c-66 -71 -124
-142 -304 -371 -38 -48 -64 -73 -75 -71 -12 2 -17 -4 -17 -22 0 -20 -6 -26
-28 -28 -30 -4 -35 -23 -12 -42 14 -12 13 -16 -6 -36 -27 -29 -17 -45 23 -37
29 6 30 5 19 -16 -12 -21 -8 -41 9 -41 15 0 120 91 120 104 0 7 14 25 31 42
17 16 93 103 168 194 75 90 137 158 138 150 1 -8 9 -100 18 -205 35 -414 84
-562 236 -716 80 -81 207 -148 349 -183 l95 -24 -3 -139 c-2 -76 1 -168 7
-204 14 -83 60 -243 96 -332 15 -38 25 -71 22 -73 -3 -3 -43 -9 -89 -13 -122
-11 -158 -38 -158 -117 0 -52 28 -90 79 -105 80 -24 241 46 296 130 34 51 35
110 2 198 -74 193 -100 328 -95 489 2 76 7 127 15 135 9 9 32 8 100 -2 63 -10
198 -14 476 -14 l388 0 -5 -30 c-29 -166 0 -345 90 -558 49 -117 49 -117 -39
-117 -133 0 -187 -31 -187 -107 0 -90 93 -131 232 -102 64 14 104 33 141 68
72 66 76 138 16 279 -81 188 -110 297 -112 412 -1 70 17 165 33 175 9 6 155
28 365 55 172 22 245 47 314 106 79 67 139 199 193 427 17 70 22 125 22 232 1
128 -1 147 -28 228 -51 155 -151 294 -294 409 -35 28 -61 52 -59 55 10 10 383
-60 399 -74 13 -12 29 -14 65 -9 92 13 103 17 103 37 0 10 -5 19 -11 19 -8 0
-8 4 -1 13 7 8 9 29 5 50 -5 34 -8 37 -38 37 -44 0 -65 9 -65 26 0 22 -29 29
-43 11 -11 -15 -20 -15 -107 2 -96 19 -201 34 -475 71 -127 17 -155 24 -185
46 -91 67 -239 159 -385 239 -187 102 -254 148 -471 329 -245 204 -352 344
-462 607 -147 354 -242 591 -242 603 0 7 -18 50 -40 94 -82 164 -212 243 -363
221z m86 -150 c75 -21 144 -113 177 -239 7 -25 16 -49 20 -55 12 -16 76 -174
147 -365 158 -425 308 -637 628 -887 157 -121 246 -179 475 -307 96 -54 216
-127 265 -162 50 -35 169 -118 265 -183 277 -188 352 -259 418 -395 45 -93 55
-154 50 -312 -10 -313 -103 -518 -253 -558 -58 -16 -531 -70 -755 -87 -176
-13 -649 -6 -720 11 -25 6 -85 15 -135 21 -277 31 -456 106 -549 230 -75 99
-105 203 -130 439 -31 301 -33 367 -21 711 6 186 4 303 -10 545 -16 268 -17
338 -7 538 21 402 16 493 -48 800 -16 78 -18 107 -10 137 14 50 60 103 102
116 44 14 47 15 91 2z"/>
<path d="M2620 2740 c-11 -11 -20 -29 -20 -39 0 -29 48 -81 74 -81 56 0 76 82
30 119 -33 26 -58 27 -84 1z"/>
<path d="M3080 2610 c-11 -11 -20 -27 -20 -36 0 -25 56 -74 84 -74 30 0 56 33
56 72 0 52 -80 78 -120 38z"/>
<path d="M5225 3973 c-106 -43 -174 -118 -200 -222 -29 -110 8 -235 95 -321
100 -101 231 -120 362 -54 104 53 186 177 195 298 5 60 3 72 -27 132 -26 52
-44 75 -93 111 -34 25 -76 52 -94 59 -45 19 -187 17 -238 -3z m164 -289 c10
-10 -16 -39 -38 -42 -15 -2 -24 4 -30 20 -5 13 -6 27 -4 32 5 8 62 1 72 -10z"/>
<path d="M5359 1110 c-22 -13 -59 -101 -66 -159 -11 -93 49 -149 130 -120 33
11 46 23 66 62 31 61 35 159 8 200 -15 24 -24 27 -70 27 -28 0 -59 -5 -68 -10z"/>
</g>
</svg>
