<?xml version="1.0" standalone="no"?>
<!DOCTYPE svg PUBLIC "-//W3C//DTD SVG 20010904//EN"
 "http://www.w3.org/TR/2001/REC-SVG-20010904/DTD/svg10.dtd">
<svg version="1.0" xmlns="http://www.w3.org/2000/svg"
 width="600.000000pt" height="600.000000pt" viewBox="0 0 600.000000 600.000000"
 preserveAspectRatio="xMidYMid meet">
<metadata>
Created by potrace 1.15, written by Peter Selinger 2001-2017
</metadata>
<g transform="translate(0.000000,600.000000) scale(0.100000,-0.100000)"
fill="#16364b" stroke="none">
<path d="M3270 5463 c-41 -21 -77 -71 -86 -119 -5 -25 0 -46 17 -81 24 -48 47
-65 127 -94 74 -27 87 -145 33 -308 -27 -82 -30 -99 -20 -134 13 -50 45 -82
97 -98 35 -10 48 -9 87 5 25 10 56 32 69 49 33 43 74 169 87 267 20 145 -33
320 -126 419 -84 89 -212 132 -285 94z"/>
<path d="M2053 5409 c-65 -41 -97 -165 -68 -264 30 -106 105 -154 269 -175 44
-5 82 -12 85 -15 3 -3 -1 -45 -8 -93 -26 -164 -29 -197 -30 -276 -1 -67 3 -85
22 -113 23 -35 80 -63 125 -63 67 1 142 77 142 145 0 17 11 99 25 183 14 84
25 181 25 217 0 171 -108 284 -288 301 l-72 7 0 36 c0 42 -26 85 -66 112 -40
26 -119 25 -161 -2z"/>
<path d="M1490 4769 c-137 -26 -187 -51 -218 -111 -30 -59 -24 -114 19 -163
54 -61 87 -65 264 -31 91 17 268 20 335 5 96 -22 153 -22 188 0 90 57 95 180
11 244 -19 14 -65 35 -104 48 -101 32 -345 37 -495 8z"/>
<path d="M4289 4546 c-37 -26 -69 -85 -69 -131 0 -70 48 -125 139 -160 142
-54 171 -106 171 -308 0 -103 3 -124 20 -153 58 -93 218 -95 266 -3 22 44 19
303 -5 395 -43 167 -139 271 -321 351 -94 41 -150 43 -201 9z"/>
<path d="M3117 4381 c-53 -38 -152 -102 -219 -142 -384 -226 -388 -230 -388
-328 0 -94 52 -151 138 -151 31 0 63 16 163 79 68 43 184 116 258 161 177 110
286 192 306 229 22 43 19 129 -4 165 -27 40 -57 55 -112 56 -40 0 -56 -8 -142
-69z"/>
<path d="M1562 4391 c-51 -33 -74 -77 -69 -137 4 -63 33 -106 90 -132 49 -23
394 -70 577 -78 101 -5 119 -3 150 14 74 40 102 146 59 222 -33 59 -56 67
-224 74 -82 3 -208 15 -280 26 -208 33 -264 35 -303 11z"/>
<path d="M3718 3844 c-26 -8 -89 -37 -140 -65 -125 -68 -441 -223 -509 -249
-66 -26 -95 -52 -110 -97 -22 -68 15 -149 85 -182 59 -29 92 -26 199 15 123
49 166 71 338 175 l147 87 40 -13 c177 -61 272 237 102 323 -51 25 -85 27
-152 6z"/>
<path d="M2220 3809 c-153 -35 -347 -60 -459 -58 -118 2 -150 -8 -194 -61 -73
-86 -29 -209 86 -241 59 -17 283 -14 407 5 177 27 310 58 343 80 93 63 95 209
2 266 -46 28 -92 31 -185 9z"/>
<path d="M4995 3511 c-49 -22 -90 -63 -118 -116 -19 -36 -22 -56 -22 -185 0
-138 -1 -148 -27 -201 -16 -31 -62 -103 -105 -160 -129 -175 -227 -347 -306
-539 -54 -131 -40 -258 35 -326 62 -57 148 -76 227 -49 74 24 121 74 161 170
62 151 148 310 253 467 206 308 260 472 227 689 -20 137 -61 208 -142 250 -48
24 -130 25 -183 0z"/>
<path d="M1973 3156 c-73 -33 -106 -141 -64 -210 37 -60 86 -75 324 -101 77
-8 140 -15 142 -15 2 0 12 -16 24 -35 23 -40 87 -75 136 -75 43 0 105 39 126
80 39 72 17 181 -50 253 -56 61 -107 75 -376 98 -222 20 -229 20 -262 5z"/>
<path d="M4355 3126 c-16 -8 -54 -35 -84 -60 -196 -170 -483 -293 -758 -327
-126 -15 -168 -36 -201 -101 -32 -62 -24 -115 24 -163 59 -59 135 -65 344 -28
246 43 585 209 793 388 101 86 130 162 92 236 -33 62 -134 89 -210 55z"/>
<path d="M1353 2971 c-26 -12 -52 -35 -70 -62 -33 -50 -35 -84 -15 -334 38
-480 48 -527 158 -726 80 -145 142 -217 203 -238 111 -37 224 18 252 121 14
53 5 88 -48 186 -79 146 -108 256 -133 502 -15 152 -67 414 -90 459 -50 98
-158 136 -257 92z"/>
<path d="M2160 2409 c-30 -5 -89 -26 -130 -47 -60 -29 -80 -45 -97 -77 -61
-108 8 -255 120 -255 21 0 63 12 93 26 31 14 73 28 95 31 37 5 44 2 83 -36 67
-66 126 -74 209 -28 117 65 98 198 -43 301 -103 76 -214 105 -330 85z"/>
<path d="M3990 2093 c-14 -2 -146 -24 -295 -48 -148 -25 -315 -54 -370 -65
-118 -25 -347 -60 -390 -60 -78 0 -158 -48 -192 -114 -20 -39 -20 -123 0 -162
24 -47 91 -102 133 -110 67 -12 193 4 594 80 262 49 526 88 633 93 88 5 114
10 140 27 69 47 99 133 77 217 -15 56 -80 123 -135 138 -39 11 -144 13 -195 4z"/>
<path d="M2194 1746 c-40 -18 -83 -74 -90 -118 -14 -86 76 -288 178 -402 32
-36 93 -88 134 -116 67 -44 82 -50 128 -50 93 0 166 71 166 160 0 61 -29 104
-95 143 -105 60 -182 157 -209 260 -8 31 -22 67 -31 80 -33 51 -117 71 -181
43z"/>
<path d="M4751 1668 c-36 -8 -58 -24 -121 -88 -128 -129 -172 -150 -490 -229
-423 -104 -622 -170 -689 -227 -108 -93 -90 -274 34 -334 62 -30 122 -23 240
28 151 66 319 121 558 183 270 69 370 112 495 214 86 69 177 169 193 212 5 13
9 45 9 70 0 115 -109 196 -229 171z"/>
<path d="M2070 1035 c-49 -15 -107 -65 -121 -103 -16 -42 -10 -113 14 -160 16
-33 48 -67 118 -122 219 -175 387 -247 630 -271 217 -20 454 21 581 102 131
84 109 289 -37 345 -53 20 -105 14 -173 -20 -79 -38 -140 -51 -247 -50 -195 2
-373 71 -543 211 -95 78 -143 93 -222 68z"/>
</g>
</svg>
