<?xml version="1.0" standalone="no"?>
<!DOCTYPE svg PUBLIC "-//W3C//DTD SVG 20010904//EN"
 "http://www.w3.org/TR/2001/REC-SVG-20010904/DTD/svg10.dtd">
<svg version="1.0" xmlns="http://www.w3.org/2000/svg"
 width="600.000000pt" height="600.000000pt" viewBox="0 0 600.000000 600.000000"
 preserveAspectRatio="xMidYMid meet">
<metadata>
Created by potrace 1.15, written by Peter Selinger 2001-2017
</metadata>
<g transform="translate(0.000000,600.000000) scale(0.100000,-0.100000)"
fill="#16364b" stroke="none">
<path d="M1360 5668 c-125 -63 -219 -117 -243 -140 -35 -33 -38 -40 -35 -84 3
-43 7 -51 38 -72 39 -26 28 -27 250 6 80 12 194 28 253 36 128 16 157 34 157
97 0 48 -44 89 -96 89 l-35 0 16 31 c20 37 13 78 -18 108 -47 43 -67 39 -287
-71z"/>
<path d="M2368 5435 c-42 -24 -48 -44 -48 -175 0 -216 -30 -398 -85 -513 -37
-80 -98 -143 -187 -194 -48 -28 -85 -57 -94 -74 -37 -73 1 -154 73 -154 52 0
189 81 264 156 155 155 240 461 222 793 -6 99 -9 112 -32 138 -32 34 -76 43
-113 23z"/>
<path d="M3528 5318 c-31 -11 -60 -65 -60 -115 0 -50 63 -172 123 -237 104
-114 218 -127 264 -30 14 31 15 43 5 82 -20 84 -107 213 -171 258 -48 33 -126
54 -161 42z"/>
<path d="M2979 5110 c-53 -28 -96 -77 -132 -150 -27 -54 -32 -76 -32 -135 0
-78 15 -111 62 -142 55 -36 175 -5 255 65 72 64 110 226 71 302 -39 76 -142
103 -224 60z m51 -202 c0 -19 -18 -43 -25 -36 -4 3 -2 16 5 27 12 24 20 27 20
9z"/>
<path d="M4743 4770 c-46 -28 -57 -77 -49 -228 11 -197 55 -336 133 -416 70
-72 159 -87 229 -40 76 52 103 109 104 217 0 132 -52 244 -169 363 -121 122
-179 147 -248 104z"/>
<path d="M2735 4231 c-97 -16 -184 -72 -211 -138 -19 -44 -18 -118 2 -159 21
-45 90 -100 152 -124 149 -57 287 -21 422 109 44 42 60 65 65 94 10 53 -2 103
-33 138 -49 54 -274 99 -397 80z"/>
<path d="M1107 4100 c-59 -47 -56 -148 6 -193 18 -13 53 -31 78 -41 25 -9 54
-23 65 -31 18 -14 18 -14 1 -15 -10 0 -53 14 -95 31 -55 22 -86 29 -109 24
-33 -6 -76 -48 -88 -86 -11 -32 3 -84 28 -107 54 -51 229 -99 315 -86 170 25
289 166 242 288 -26 69 -133 150 -272 205 -89 36 -135 39 -171 11z"/>
<path d="M5214 3780 c-212 -42 -323 -273 -229 -478 91 -201 328 -242 496 -85
73 69 101 129 107 231 5 89 -8 142 -51 199 -24 32 -117 112 -154 131 -24 13
-107 14 -169 2z m90 -308 c7 -12 -22 -52 -38 -52 -21 0 -27 28 -10 45 17 16
40 20 48 7z"/>
<path d="M4248 3765 c-112 -28 -194 -88 -251 -183 -100 -166 -59 -323 107
-410 44 -23 63 -27 141 -27 76 0 97 4 135 24 71 38 107 69 143 124 50 77 67
128 77 239 11 113 2 149 -45 186 -60 48 -213 71 -307 47z m52 -310 c-13 -25
-46 -42 -58 -30 -10 9 12 38 39 52 30 15 36 9 19 -22z"/>
<path d="M1653 3701 c-18 -11 -35 -31 -38 -43 -6 -25 34 -229 62 -318 20 -62
52 -87 96 -76 45 11 67 41 67 89 0 65 -64 316 -86 337 -30 29 -65 33 -101 11z"/>
<path d="M3419 3367 c-40 -27 -92 -101 -149 -215 -34 -66 -41 -89 -36 -116 13
-68 77 -92 149 -57 99 48 197 194 197 293 0 60 -11 83 -50 103 -40 21 -71 19
-111 -8z"/>
<path d="M1745 3086 c-139 -24 -267 -56 -344 -87 -189 -76 -336 -223 -403
-405 -19 -49 -22 -79 -22 -179 0 -105 4 -128 26 -187 57 -145 155 -253 303
-333 192 -105 243 -160 370 -400 74 -140 130 -208 242 -294 57 -43 196 -107
274 -126 151 -36 344 -29 531 19 51 14 136 32 188 40 219 35 561 109 659 142
195 65 343 161 542 352 162 155 225 250 275 419 21 71 26 111 28 203 1 141
-14 197 -82 301 -182 278 -414 381 -687 304 -119 -34 -289 -54 -456 -55 -212
0 -312 25 -659 164 -91 37 -214 80 -275 97 -97 27 -129 31 -270 35 -105 2
-187 -1 -240 -10z m325 -397 c193 -23 275 -48 493 -143 159 -70 254 -102 377
-128 151 -31 181 -31 430 -4 256 29 328 40 407 62 45 13 56 13 85 1 45 -19 99
-67 144 -128 33 -46 36 -55 32 -102 -8 -102 -103 -249 -222 -346 -38 -31 -100
-81 -137 -112 -88 -71 -192 -123 -320 -160 -104 -30 -405 -90 -540 -108 -42
-6 -96 -19 -121 -30 -26 -11 -94 -32 -154 -46 -132 -34 -238 -32 -322 5 -65
28 -140 108 -177 188 -73 155 -111 224 -157 285 -80 108 -218 217 -373 295
-127 63 -157 101 -156 195 0 34 8 62 26 92 44 76 113 117 264 155 158 40 272
48 421 29z"/>
<path d="M433 2175 c-12 -8 -27 -31 -33 -49 -10 -31 -8 -43 18 -103 16 -37 43
-102 61 -143 75 -177 215 -300 341 -300 51 0 121 38 144 79 46 81 8 191 -102
292 -37 34 -127 101 -201 150 -143 94 -181 107 -228 74z"/>
<path d="M4890 1543 c-14 -9 -29 -23 -33 -30 -5 -8 -21 -11 -50 -7 -34 5 -49
1 -77 -18 -65 -44 -74 -95 -40 -236 37 -153 91 -222 175 -222 103 0 154 87
189 324 13 83 13 104 2 131 -29 68 -110 96 -166 58z"/>
</g>
</svg>
