<?xml version="1.0" standalone="no"?>
<!DOCTYPE svg PUBLIC "-//W3C//DTD SVG 20010904//EN"
 "http://www.w3.org/TR/2001/REC-SVG-20010904/DTD/svg10.dtd">
<svg version="1.0" xmlns="http://www.w3.org/2000/svg"
 width="600.000000pt" height="600.000000pt" viewBox="0 0 600.000000 600.000000"
 preserveAspectRatio="xMidYMid meet">
<metadata>
Created by potrace 1.15, written by Peter Selinger 2001-2017
</metadata>
<g transform="translate(0.000000,600.000000) scale(0.100000,-0.100000)"
fill="#16364b" stroke="none">
<path d="M3113 5650 c-45 -27 -64 -71 -70 -160 -11 -156 36 -299 125 -382 57
-54 105 -80 223 -122 47 -17 87 -35 89 -41 2 -5 -91 -69 -206 -142 -281 -177
-362 -238 -385 -288 -10 -22 -19 -47 -19 -56 0 -8 -14 -26 -31 -38 -52 -39
-74 -121 -48 -188 17 -45 67 -90 116 -103 35 -10 68 -11 156 -1 62 6 170 13
240 16 71 3 137 10 147 15 33 18 77 78 84 115 6 28 2 47 -16 83 -30 60 -72 82
-155 82 -35 0 -63 4 -63 8 0 5 97 73 216 152 284 189 344 254 344 372 0 125
-88 206 -305 278 -199 66 -219 87 -210 215 5 71 3 85 -17 124 -14 26 -38 51
-58 62 -46 25 -116 24 -157 -1z"/>
<path d="M1321 5409 c-74 -29 -215 -176 -322 -336 -108 -159 -149 -289 -149
-470 0 -140 12 -191 53 -231 60 -56 133 -63 205 -20 56 34 64 61 56 206 -5
100 -3 142 10 196 31 133 135 287 223 331 97 50 133 98 133 178 0 101 -117
183 -209 146z"/>
<path d="M1485 4990 c-110 -12 -155 -28 -197 -70 -33 -33 -38 -44 -38 -84 0
-124 101 -186 251 -157 34 7 63 10 66 7 3 -3 -7 -45 -22 -93 -18 -58 -29 -119
-32 -178 -7 -120 16 -185 88 -249 l49 -44 -106 -63 c-109 -66 -169 -120 -180
-164 -16 -63 28 -144 93 -171 61 -26 91 -18 201 50 105 66 237 124 330 146 90
21 144 99 127 186 -13 74 -108 136 -179 118 -23 -6 -26 -3 -26 22 -1 45 -36
113 -70 132 -16 9 -30 24 -30 33 0 8 18 60 39 116 54 137 67 209 52 277 -24
106 -98 167 -227 186 -76 11 -88 11 -189 0z"/>
<path d="M4554 4531 c-86 -5 -106 -10 -141 -33 -95 -63 -96 -189 -1 -249 29
-17 47 -19 151 -17 64 2 117 0 117 -4 0 -8 -112 -105 -207 -180 -68 -54 -93
-94 -93 -148 0 -91 102 -167 187 -139 43 14 151 107 329 284 170 167 200 227
169 331 -18 61 -72 117 -135 139 -52 19 -222 26 -376 16z"/>
<path d="M3905 3691 c-72 -33 -105 -86 -105 -168 0 -71 33 -128 129 -223 114
-113 193 -154 287 -148 43 3 73 10 91 24 36 26 73 99 73 144 0 52 -38 110 -87
134 -37 19 -42 24 -37 48 8 40 -14 108 -45 139 -34 34 -144 69 -215 69 -28 0
-69 -9 -91 -19z"/>
<path d="M2570 3694 c-59 -9 -162 -40 -257 -76 -76 -29 -110 -48 -132 -73 -70
-80 -43 -193 56 -237 54 -24 101 -20 172 16 82 42 245 84 256 66 8 -13 -18
-105 -52 -185 -53 -127 -201 -415 -278 -542 -47 -77 -59 -122 -45 -173 6 -21
17 -46 25 -54 10 -9 15 -35 15 -72 0 -109 66 -190 163 -201 37 -5 63 4 183 57
137 60 278 109 289 99 7 -8 -32 -100 -125 -294 -69 -145 -81 -178 -81 -221 -1
-159 171 -247 299 -155 45 33 97 127 190 346 100 237 117 295 117 410 0 85 -3
106 -23 143 -97 182 -279 226 -564 136 -44 -14 -82 -23 -85 -21 -2 3 27 63 66
134 138 253 210 451 213 588 2 85 -12 139 -52 193 -67 93 -203 138 -350 116z"/>
<path d="M1115 3496 c-121 -38 -313 -172 -352 -245 -44 -85 -20 -191 58 -254
47 -37 139 -48 189 -23 18 9 37 16 41 16 4 0 -23 -92 -61 -205 -84 -249 -114
-371 -135 -535 -22 -182 -20 -226 13 -291 32 -63 66 -86 155 -105 74 -16 119
-7 161 32 34 32 197 238 395 497 79 104 163 209 186 235 l42 47 7 -32 c9 -39
-28 -266 -96 -598 -49 -234 -52 -259 -52 -400 -1 -140 1 -153 24 -198 34 -68
71 -92 140 -92 67 0 100 21 131 83 17 34 20 52 14 90 -18 122 -9 191 61 482
20 80 49 224 67 320 28 157 31 196 31 380 1 177 -2 213 -18 264 -61 186 -213
232 -362 109 -51 -41 -189 -203 -333 -391 -52 -67 -96 -121 -97 -119 -2 1 26
92 62 201 124 384 135 547 44 658 -47 57 -120 88 -204 87 -39 0 -89 -6 -111
-13z"/>
<path d="M4590 3263 c-71 -37 -98 -119 -66 -197 15 -36 15 -36 152 -126 50
-33 99 -71 109 -86 23 -35 9 -67 -65 -149 -32 -34 -63 -79 -69 -98 -38 -114
98 -226 206 -170 47 24 139 132 180 210 41 77 65 179 57 235 -17 109 -83 185
-270 309 -137 90 -176 102 -234 72z"/>
<path d="M3651 3224 c-82 -22 -147 -62 -211 -130 -116 -124 -133 -269 -41
-347 85 -71 197 -50 249 48 9 17 19 19 96 16 98 -3 176 16 218 53 45 40 68 87
68 136 -1 116 -95 206 -241 230 -77 12 -71 12 -138 -6z"/>
<path d="M4534 2264 c-103 -38 -170 -139 -162 -246 5 -70 12 -68 -160 -36
-289 53 -482 9 -577 -133 -50 -73 -58 -133 -57 -429 0 -146 2 -271 4 -279 2
-8 -10 -18 -27 -24 -16 -5 -42 -19 -58 -29 l-27 -20 -67 49 c-63 45 -107 76
-300 213 -185 130 -350 155 -450 67 -43 -38 -80 -113 -89 -181 -5 -33 -9 -44
-15 -33 -9 15 -35 175 -65 392 -20 150 -41 192 -116 229 -28 14 -68 26 -87 26
-79 -1 -159 -62 -182 -140 -10 -32 -8 -70 11 -212 72 -562 134 -718 342 -859
202 -138 333 -137 402 2 22 44 26 66 26 135 0 96 26 227 44 217 6 -4 88 -57
181 -119 211 -139 278 -167 395 -168 71 -1 94 4 140 25 109 51 169 128 170
217 0 41 1 42 33 42 77 1 166 72 187 150 6 22 10 117 10 213 0 94 -1 180 0
190 0 23 24 22 148 -8 115 -28 279 -34 374 -14 168 36 269 141 299 313 17 101
7 271 -19 321 -57 114 -195 171 -308 129z"/>
</g>
</svg>
