<?xml version="1.0" standalone="no"?>
<!DOCTYPE svg PUBLIC "-//W3C//DTD SVG 20010904//EN"
 "http://www.w3.org/TR/2001/REC-SVG-20010904/DTD/svg10.dtd">
<svg version="1.0" xmlns="http://www.w3.org/2000/svg"
 width="600.000000pt" height="600.000000pt" viewBox="0 0 600.000000 600.000000"
 preserveAspectRatio="xMidYMid meet">
<metadata>
Created by potrace 1.15, written by Peter Selinger 2001-2017
</metadata>
<g transform="translate(0.000000,600.000000) scale(0.100000,-0.100000)"
fill="#16364b" stroke="none">
<path d="M1965 5806 c-41 -19 -72 -55 -141 -166 -32 -52 -104 -162 -160 -245
-56 -82 -116 -178 -134 -212 -73 -139 -43 -264 74 -308 79 -30 140 -9 396 140
466 271 460 267 460 358 0 89 -59 163 -139 174 -45 6 -71 -6 -187 -89 -47 -33
-87 -58 -90 -56 -2 3 24 53 60 111 74 123 87 169 59 224 -10 20 -30 46 -45 56
-34 25 -113 32 -153 13z"/>
<path d="M3000 5678 c-74 -51 -101 -136 -65 -212 18 -38 28 -44 141 -91 260
-108 421 -259 468 -439 13 -50 14 -63 1 -91 -14 -36 -63 -67 -125 -80 -55 -12
-89 -36 -110 -80 -37 -77 -17 -158 50 -203 31 -21 44 -23 105 -19 150 9 303
107 359 228 58 124 56 251 -5 409 -40 105 -92 183 -189 284 -101 105 -194 170
-357 249 -153 74 -216 84 -273 45z"/>
<path d="M939 5381 c-85 -27 -154 -69 -208 -126 -82 -86 -117 -175 -127 -315
-10 -149 38 -283 136 -381 66 -66 121 -92 180 -87 85 8 140 69 140 153 0 50
-24 93 -80 143 -88 77 -103 183 -38 257 23 27 48 40 112 60 89 27 116 48 141
107 20 49 19 73 -6 124 -39 82 -126 105 -250 65z"/>
<path d="M2785 5026 c-63 -30 -97 -66 -132 -141 -23 -50 -27 -74 -28 -145 0
-71 4 -94 26 -140 34 -71 79 -115 148 -141 48 -18 72 -20 161 -17 117 5 155
19 190 68 24 34 36 95 26 134 -3 13 -18 38 -32 55 -23 28 -25 35 -15 63 23 66
2 134 -66 208 -73 82 -179 103 -278 56z"/>
<path d="M4765 4903 c-83 -44 -105 -85 -105 -202 0 -155 44 -318 112 -419 69
-101 187 -159 300 -149 206 19 290 239 178 472 -57 119 -153 208 -296 276 -90
43 -140 48 -189 22z"/>
<path d="M1905 4685 c-47 -18 -130 -79 -158 -117 -31 -41 -33 -115 -5 -162 45
-76 133 -97 218 -50 68 37 91 31 110 -31 20 -66 74 -121 129 -130 50 -8 123
24 155 68 33 45 29 164 -8 239 -33 67 -108 141 -174 171 -61 27 -208 34 -267
12z"/>
<path d="M2943 3956 c-101 -33 -187 -107 -224 -193 -13 -30 -19 -68 -19 -117
0 -89 30 -157 95 -214 131 -115 378 -179 465 -119 74 50 89 142 36 212 -36 46
-87 71 -164 78 -63 7 -122 29 -122 48 0 5 12 14 28 20 20 8 42 6 92 -7 97 -26
162 -29 199 -9 63 32 90 120 56 185 -21 40 -71 76 -141 101 -76 27 -240 35
-301 15z"/>
<path d="M1093 3916 c-119 -26 -144 -36 -181 -70 -61 -54 -75 -158 -32 -234
38 -68 117 -107 184 -92 20 4 36 4 36 0 0 -13 -132 -237 -230 -390 -167 -260
-270 -478 -270 -570 0 -168 188 -248 308 -132 99 96 436 365 612 489 80 56
156 111 170 122 22 17 26 18 31 4 16 -46 -31 -250 -98 -418 -49 -125 -295
-613 -362 -720 -90 -144 41 -311 186 -237 59 30 91 81 268 427 59 116 120 233
134 260 88 166 150 343 181 514 30 173 22 351 -21 451 -40 93 -137 150 -231
135 -71 -11 -196 -78 -315 -169 -62 -47 -113 -82 -113 -78 0 4 41 70 90 147
109 169 147 243 160 313 20 106 -31 198 -132 242 -81 35 -228 37 -375 6z"/>
<path d="M4305 3790 c-223 -31 -395 -200 -395 -389 0 -210 252 -337 463 -233
78 39 177 140 224 229 39 73 83 202 83 241 0 36 -35 89 -78 118 -46 31 -195
48 -297 34z m-11 -324 c-7 -18 -52 -41 -61 -32 -9 9 33 46 53 46 7 0 11 -6 8
-14z"/>
<path d="M3444 3386 c-68 -30 -145 -144 -194 -286 -25 -74 -22 -126 11 -172
29 -41 66 -56 145 -62 140 -9 226 32 271 131 46 101 41 245 -12 325 -45 68
-145 97 -221 64z"/>
<path d="M4972 3020 c-43 -10 -166 -113 -224 -188 -68 -90 -92 -158 -93 -267
0 -80 3 -95 27 -136 29 -50 82 -90 142 -109 118 -38 288 58 358 202 34 70 47
126 48 206 0 100 -16 146 -74 208 -71 77 -118 99 -184 84z"/>
<path d="M3949 2542 c-78 -40 -112 -94 -117 -180 -4 -63 0 -78 43 -183 67
-164 68 -151 -12 -122 -93 34 -207 42 -270 18 -96 -37 -163 -128 -178 -241
-10 -72 7 -166 63 -349 27 -88 57 -194 67 -235 24 -100 47 -144 96 -179 140
-102 350 14 349 191 -1 29 -7 80 -15 113 -15 62 -12 81 8 54 38 -51 147 -67
247 -34 204 65 267 214 216 505 -43 242 -130 531 -177 585 -76 86 -216 111
-320 57z"/>
<path d="M2047 2179 c-62 -14 -109 -44 -163 -100 -63 -67 -134 -186 -145 -242
-16 -86 27 -181 97 -214 19 -9 34 -20 34 -24 0 -4 -21 -23 -47 -42 -92 -67
-174 -180 -205 -280 -18 -60 -20 -86 -15 -200 6 -152 29 -254 82 -362 101
-204 315 -382 535 -445 115 -33 273 -38 383 -11 151 36 289 111 411 222 71 64
96 112 96 179 0 67 -19 109 -66 149 -35 28 -37 33 -22 42 43 25 84 84 148 214
114 234 196 485 207 635 12 173 -78 351 -207 409 -87 39 -190 24 -378 -55 -59
-25 -141 -59 -182 -76 -41 -18 -112 -51 -158 -74 -54 -28 -84 -39 -87 -31 -2
7 -8 39 -14 72 -25 133 -90 212 -192 234 -56 12 -60 12 -112 0z m933 -477 c0
-20 -71 -263 -95 -327 -15 -38 -45 -104 -67 -145 -92 -169 -98 -183 -98 -223
0 -53 34 -122 71 -144 16 -10 28 -20 27 -23 -11 -26 -174 -157 -227 -183 -59
-29 -74 -32 -151 -31 -100 1 -161 20 -240 74 -64 43 -140 122 -165 170 -61
117 -66 278 -12 357 19 28 60 53 88 53 4 0 26 -34 49 -76 84 -154 177 -204
286 -155 110 50 155 202 85 290 -41 51 -74 112 -65 121 17 16 483 250 498 250
9 0 16 -4 16 -8z"/>
</g>
</svg>
