<?xml version="1.0" standalone="no"?>
<!DOCTYPE svg PUBLIC "-//W3C//DTD SVG 20010904//EN"
 "http://www.w3.org/TR/2001/REC-SVG-20010904/DTD/svg10.dtd">
<svg version="1.0" xmlns="http://www.w3.org/2000/svg"
 width="600.000000pt" height="600.000000pt" viewBox="0 0 600.000000 600.000000"
 preserveAspectRatio="xMidYMid meet">
<metadata>
Created by potrace 1.15, written by Peter Selinger 2001-2017
</metadata>
<g transform="translate(0.000000,600.000000) scale(0.100000,-0.100000)"
fill="#16364b" stroke="none">
<path d="M2277 5441 c-38 -25 -51 -46 -89 -138 -26 -66 -32 -91 -32 -163 -1
-116 32 -176 119 -223 34 -19 55 -22 145 -21 64 1 142 9 200 22 52 11 96 19
97 18 2 -1 -35 -57 -82 -124 -46 -67 -109 -164 -140 -216 -60 -100 -152 -297
-161 -346 -9 -44 3 -92 30 -121 21 -23 23 -33 19 -90 -5 -74 14 -115 69 -149
47 -28 87 -25 255 20 81 22 243 58 358 81 116 22 233 44 262 50 117 23 183
122 139 207 -38 74 -81 86 -228 62 -62 -10 -187 -30 -278 -45 -91 -15 -201
-35 -244 -45 -44 -11 -81 -18 -83 -16 -11 10 129 261 212 380 213 309 249 408
191 531 -29 61 -56 87 -121 116 -67 30 -151 28 -306 -7 -66 -14 -122 -24 -125
-21 -3 3 2 22 10 42 31 74 10 150 -53 192 -43 29 -123 31 -164 4z"/>
<path d="M3913 5069 c-75 -13 -150 -43 -223 -91 -50 -33 -71 -54 -89 -92 -22
-44 -23 -53 -12 -95 28 -109 130 -145 231 -80 57 36 122 59 166 59 30 0 34 -3
40 -35 11 -58 -15 -193 -63 -330 -52 -150 -62 -218 -39 -263 25 -49 72 -76
133 -77 l53 0 -6 -32 c-9 -46 13 -99 51 -129 57 -43 88 -46 244 -24 160 23
311 26 329 8 28 -28 3 -181 -63 -393 -19 -62 -35 -130 -35 -152 0 -121 157
-172 245 -78 23 23 40 63 67 151 87 284 99 484 36 613 -31 65 -106 135 -175
162 -87 35 -280 33 -457 -4 -72 -15 -131 -25 -133 -23 -2 2 10 34 26 72 152
359 128 653 -63 781 -72 49 -169 68 -263 52z"/>
<path d="M1704 4950 c-199 -40 -488 -205 -542 -310 -28 -54 -25 -129 7 -170
11 -14 30 -44 42 -68 28 -56 57 -69 197 -93 241 -40 375 -87 462 -160 82 -69
175 -66 240 8 40 45 42 120 5 174 -55 83 -219 179 -389 230 l-91 27 37 16 c64
27 149 46 210 46 52 0 60 3 97 38 81 77 61 205 -40 257 -31 16 -164 19 -235 5z"/>
<path d="M2125 3924 c-135 -51 -419 -104 -554 -104 -14 0 -39 -16 -62 -39 -37
-37 -39 -42 -39 -100 0 -70 15 -107 60 -145 28 -23 40 -26 104 -26 151 0 420
45 568 96 114 38 157 96 143 191 -8 56 -61 118 -113 133 -47 13 -58 12 -107
-6z"/>
<path d="M3710 3751 c-41 -13 -128 -59 -265 -141 -71 -42 -164 -96 -206 -118
-104 -57 -122 -79 -126 -150 -5 -74 19 -115 84 -144 70 -31 91 -22 376 150 59
36 110 62 113 60 3 -3 -16 -59 -41 -124 -93 -237 -99 -256 -91 -297 9 -49 67
-113 109 -123 28 -6 29 -8 12 -14 -11 -4 -43 -11 -71 -14 -100 -14 -154 -71
-154 -163 0 -44 5 -58 31 -88 45 -51 89 -61 200 -46 166 22 393 113 554 221
92 62 201 178 214 228 29 105 -69 206 -180 186 -44 -8 -73 -27 -131 -85 -57
-57 -230 -164 -323 -199 l-24 -9 19 32 c26 45 168 399 192 477 11 36 20 99 21
140 2 63 -2 82 -23 120 -14 24 -44 58 -68 75 -38 26 -53 30 -120 32 -42 1 -88
-1 -102 -6z"/>
<path d="M2335 3300 c-27 -4 -99 -15 -159 -24 -131 -20 -165 -34 -200 -78 -47
-62 -28 -160 38 -203 48 -32 93 -35 205 -15 58 11 141 23 184 26 90 8 91 7 57
-91 -25 -73 -25 -115 0 -164 50 -100 192 -110 248 -19 26 43 57 144 72 241 11
68 11 85 -4 142 -22 77 -67 134 -133 165 -38 18 -69 23 -153 26 -58 1 -127 -1
-155 -6z"/>
<path d="M4904 3130 c-18 -6 -55 -30 -82 -55 -68 -61 -85 -108 -86 -238 l-1
-102 -120 -82 c-248 -168 -338 -301 -364 -531 -24 -220 53 -431 187 -509 60
-36 156 -38 218 -5 74 38 144 146 144 221 0 34 -21 90 -50 132 -22 33 -30 56
-30 91 0 93 27 128 170 220 129 84 199 157 249 260 87 183 97 412 22 517 -49
68 -172 107 -257 81z"/>
<path d="M1218 3044 c-56 -17 -124 -89 -134 -141 -18 -94 18 -181 91 -225 19
-10 36 -30 40 -45 11 -47 25 -244 25 -378 1 -190 38 -415 85 -505 21 -40 79
-87 122 -99 47 -13 49 -13 95 -1 110 31 168 162 125 286 -8 22 -17 54 -20 72
l-7 32 29 -21 c44 -32 110 -36 166 -9 36 17 57 39 97 98 55 82 147 182 166
182 7 0 17 -12 23 -27 6 -16 19 -37 29 -48 19 -20 19 -23 -10 -145 -37 -155
-48 -237 -56 -398 -6 -106 -4 -133 9 -159 43 -82 133 -112 214 -72 77 38 89
71 97 252 5 107 16 200 38 313 l31 162 -26 54 c-15 30 -27 66 -27 79 0 67 -52
178 -111 237 -55 56 -104 76 -189 76 -66 0 -84 -4 -153 -37 -97 -47 -202 -148
-284 -273 l-58 -89 -12 218 c-17 332 -51 457 -147 551 -73 70 -152 90 -248 60z"/>
<path d="M3435 2273 c-11 -2 -148 -29 -305 -59 -400 -77 -406 -79 -446 -109
-39 -30 -73 -94 -74 -136 0 -79 64 -161 146 -185 49 -14 60 -13 220 16 93 18
241 47 329 67 88 19 192 37 231 40 l70 6 14 -33 c34 -82 111 -134 200 -134 69
-1 116 25 148 80 20 34 22 50 19 119 -7 162 -96 269 -266 321 -43 13 -237 18
-286 7z"/>
<path d="M4445 1544 c-16 -8 -50 -35 -75 -59 -67 -65 -79 -68 -290 -60 -211 7
-302 -4 -440 -55 -146 -53 -324 -194 -425 -337 -19 -26 -43 -47 -64 -54 -19
-6 -60 -35 -92 -65 -129 -118 -214 -127 -387 -40 -119 60 -209 140 -287 256
-49 73 -66 90 -112 114 -61 31 -170 11 -215 -40 -27 -31 -48 -90 -48 -137 0
-75 101 -220 257 -368 195 -184 369 -259 603 -259 176 0 300 49 420 167 41 40
76 73 78 73 26 0 86 49 151 125 93 108 179 173 271 206 62 22 77 23 282 21
242 -3 296 5 403 61 71 37 189 150 210 201 41 97 -7 221 -98 255 -41 16 -107
13 -142 -5z"/>
</g>
</svg>
