<?xml version="1.0" standalone="no"?>
<!DOCTYPE svg PUBLIC "-//W3C//DTD SVG 20010904//EN"
 "http://www.w3.org/TR/2001/REC-SVG-20010904/DTD/svg10.dtd">
<svg version="1.0" xmlns="http://www.w3.org/2000/svg"
 width="600.000000pt" height="600.000000pt" viewBox="0 0 600.000000 600.000000"
 preserveAspectRatio="xMidYMid meet">
<metadata>
Created by potrace 1.15, written by Peter Selinger 2001-2017
</metadata>
<g transform="translate(0.000000,600.000000) scale(0.100000,-0.100000)"
fill="#16364b" stroke="none">
<path d="M3039 5497 c-62 -41 -86 -125 -54 -186 8 -16 33 -43 55 -61 22 -18
50 -51 62 -74 30 -58 35 -172 13 -271 -14 -64 -15 -85 -5 -120 27 -97 137
-144 218 -95 42 26 59 67 77 188 34 225 0 398 -102 528 -86 107 -187 143 -264
91z"/>
<path d="M2010 5428 c-60 -42 -75 -71 -75 -151 1 -137 73 -235 214 -291 39
-16 78 -37 88 -48 13 -14 20 -57 31 -186 14 -179 23 -207 75 -246 21 -15 43
-21 82 -21 60 0 95 20 133 75 21 32 22 39 16 189 -3 86 -12 189 -20 228 -27
128 -116 230 -244 279 -60 23 -70 32 -70 63 0 100 -143 168 -230 109z"/>
<path d="M1396 4766 c-108 -41 -149 -163 -81 -244 43 -51 70 -56 219 -44 186
16 298 3 424 -47 29 -11 67 -21 85 -21 70 0 137 71 137 146 0 88 -75 145 -247
191 -86 22 -123 26 -298 29 -157 4 -208 1 -239 -10z"/>
<path d="M4321 4643 c-37 -19 -68 -62 -77 -108 -9 -49 20 -106 80 -156 107
-89 149 -168 191 -361 22 -95 30 -117 57 -145 79 -82 208 -56 238 48 7 24 5
59 -6 124 -31 183 -68 288 -140 396 -48 72 -170 194 -210 210 -38 14 -95 11
-133 -8z"/>
<path d="M3173 4483 c-18 -10 -92 -73 -165 -140 -163 -148 -277 -243 -366
-304 -81 -55 -112 -97 -112 -153 0 -81 67 -146 150 -146 38 0 61 9 130 52 132
80 252 174 420 330 178 165 196 194 170 270 -22 61 -86 108 -148 108 -26 0
-62 -8 -79 -17z"/>
<path d="M1655 4372 c-22 -11 -50 -30 -62 -43 -67 -74 -53 -199 28 -240 60
-31 323 -63 519 -64 199 0 234 10 278 75 31 45 28 130 -6 177 -39 55 -71 63
-228 56 -124 -5 -155 -3 -284 21 -207 39 -201 39 -245 18z"/>
<path d="M3762 3935 c-19 -8 -104 -61 -190 -117 -177 -116 -373 -219 -511
-268 -57 -21 -104 -44 -122 -62 -74 -75 -32 -205 78 -238 39 -12 49 -10 150
24 160 55 329 141 503 257 85 57 182 117 215 134 74 37 105 80 105 144 0 52
-22 93 -66 122 -35 23 -114 25 -162 4z"/>
<path d="M2210 3795 c-137 -32 -300 -46 -447 -38 -129 6 -155 0 -202 -51 -18
-19 -26 -41 -29 -81 -4 -47 -1 -61 21 -94 14 -21 42 -46 63 -56 45 -21 208
-44 316 -45 141 0 438 64 497 108 89 66 93 194 8 254 -42 30 -105 31 -227 3z"/>
<path d="M5031 3613 c-24 -9 -64 -35 -87 -58 -60 -61 -75 -116 -68 -253 12
-220 -31 -314 -348 -758 -74 -104 -119 -178 -128 -208 -43 -156 81 -310 250
-310 68 0 114 17 158 57 12 12 66 89 119 171 53 83 139 216 191 295 151 228
191 324 213 512 18 156 -2 383 -41 459 -48 94 -151 131 -259 93z"/>
<path d="M1983 3134 c-68 -34 -96 -130 -59 -202 37 -71 152 -112 368 -132 68
-6 132 -17 144 -25 131 -85 298 22 255 165 -17 56 -45 86 -115 120 -56 28 -79
32 -227 45 -90 8 -186 21 -214 29 -64 20 -111 20 -152 0z"/>
<path d="M4377 3111 c-20 -10 -61 -42 -91 -71 -66 -64 -117 -99 -216 -149
-180 -92 -368 -151 -558 -176 -118 -16 -141 -23 -180 -59 -79 -71 -65 -192 28
-238 88 -45 360 -1 612 98 273 107 552 285 603 385 38 72 3 174 -70 209 -51
25 -81 25 -128 1z"/>
<path d="M1385 2951 c-86 -39 -115 -99 -115 -235 0 -217 38 -506 85 -651 58
-176 188 -395 262 -437 17 -10 54 -21 82 -25 100 -12 197 64 208 161 7 62 0
85 -51 152 -58 79 -93 151 -116 239 -23 90 -58 370 -66 530 -3 66 -10 135 -16
153 -32 107 -166 163 -273 113z"/>
<path d="M2107 2350 c-108 -21 -170 -141 -117 -227 30 -49 66 -63 167 -63 104
-1 157 -11 192 -39 106 -82 158 -98 220 -63 68 37 92 141 51 222 -23 45 -102
109 -173 139 -85 37 -240 51 -340 31z"/>
<path d="M4025 2065 c-93 -25 -240 -58 -325 -75 -513 -102 -800 -163 -837
-180 -122 -56 -140 -231 -31 -313 61 -46 95 -49 278 -22 304 46 635 116 870
186 91 27 198 56 239 64 88 19 120 34 154 74 79 94 51 238 -55 290 -62 30
-100 26 -293 -24z"/>
<path d="M4814 1685 c-25 -10 -66 -42 -110 -86 -143 -147 -259 -201 -674 -313
-206 -55 -376 -110 -457 -146 -162 -73 -167 -245 -11 -345 46 -28 112 -23 218
17 52 20 187 60 299 88 345 88 533 160 695 267 83 56 256 223 281 272 26 52
23 133 -8 179 -45 68 -148 98 -233 67z"/>
<path d="M2090 1601 c-44 -23 -80 -84 -80 -135 0 -81 120 -253 238 -340 118
-86 303 -166 385 -166 51 0 100 28 128 72 16 26 19 46 17 95 -3 55 -8 67 -36
96 -21 21 -54 40 -90 51 -130 41 -258 135 -330 245 -20 30 -52 66 -71 78 -42
29 -112 31 -161 4z"/>
<path d="M2061 978 c-51 -9 -107 -49 -135 -97 -24 -41 -25 -125 -3 -168 35
-66 191 -169 377 -248 272 -114 506 -131 839 -60 147 32 197 57 235 118 62
100 23 213 -92 271 -62 32 -118 31 -220 -4 -267 -89 -499 -50 -799 133 -90 55
-135 67 -202 55z"/>
</g>
</svg>
