<?xml version="1.0" standalone="no"?>
<!DOCTYPE svg PUBLIC "-//W3C//DTD SVG 20010904//EN"
 "http://www.w3.org/TR/2001/REC-SVG-20010904/DTD/svg10.dtd">
<svg version="1.0" xmlns="http://www.w3.org/2000/svg"
 width="600.000000pt" height="600.000000pt" viewBox="0 0 600.000000 600.000000"
 preserveAspectRatio="xMidYMid meet">
<metadata>
Created by potrace 1.15, written by Peter Selinger 2001-2017
</metadata>
<g transform="translate(0.000000,600.000000) scale(0.100000,-0.100000)"
fill="#16364b" stroke="none">
<path d="M3054 5103 c-40 -8 -100 -70 -128 -132 -48 -108 -45 -192 9 -227 40
-26 85 -11 151 49 101 92 135 213 77 277 -28 30 -68 42 -109 33z m64 -106 c5
-37 -34 -111 -80 -153 -41 -37 -63 -43 -72 -18 -8 20 10 99 31 132 44 72 115
95 121 39z"/>
<path d="M4763 4730 c-42 -17 -45 -36 -41 -335 3 -270 4 -285 24 -312 18 -23
29 -28 65 -28 38 0 45 4 62 33 26 44 34 249 18 428 -14 157 -24 190 -61 209
-33 17 -36 17 -67 5z"/>
<path d="M1641 4334 c-146 -53 -196 -188 -124 -334 18 -36 44 -78 59 -95 92
-104 143 -362 204 -1040 11 -126 25 -264 30 -305 5 -41 12 -124 15 -185 10
-182 34 -428 50 -513 20 -105 46 -179 95 -270 109 -201 253 -312 452 -349 46
-8 93 -17 105 -19 21 -4 21 -8 21 -146 0 -160 19 -276 78 -480 19 -66 34 -126
34 -134 0 -11 -19 -14 -90 -14 -107 0 -145 -15 -166 -65 -42 -102 58 -174 203
-146 110 22 191 82 214 162 10 32 9 49 -5 97 -97 332 -120 452 -114 601 4 118
10 130 66 113 64 -20 378 -26 596 -13 109 7 219 10 245 6 l46 -6 1 -117 c1
-141 33 -293 100 -479 24 -67 44 -124 44 -126 0 -3 -47 -7 -104 -9 -94 -3
-107 -5 -130 -27 -20 -19 -26 -34 -26 -66 0 -53 20 -79 75 -101 82 -31 239 -1
302 58 32 30 57 101 49 140 -3 18 -29 93 -57 168 -73 191 -101 306 -101 415
-1 119 9 145 59 145 164 0 570 120 749 220 93 53 236 189 277 264 84 153 109
330 68 481 -52 189 -169 342 -317 412 l-79 38 -180 -3 c-434 -6 -810 47 -1049
149 -226 96 -374 212 -603 472 -138 156 -223 273 -328 448 -48 79 -111 174
-141 212 -88 107 -388 404 -435 427 -56 29 -132 35 -188 14z m127 -158 c24
-13 73 -61 138 -137 12 -13 37 -37 56 -54 73 -62 155 -165 266 -335 134 -204
162 -241 338 -455 225 -275 394 -416 649 -545 134 -68 274 -114 420 -140 176
-31 468 -51 695 -48 205 2 205 2 256 -24 131 -68 234 -258 234 -434 0 -127
-45 -236 -139 -336 -74 -80 -168 -134 -336 -193 -328 -117 -382 -128 -640
-126 -110 0 -285 -4 -390 -9 -148 -7 -226 -6 -355 6 -91 8 -223 18 -294 24
-228 16 -350 56 -447 147 -141 131 -192 289 -223 683 -9 113 -23 257 -31 320
-24 184 -34 294 -45 465 -11 173 -20 257 -51 465 -43 293 -91 441 -181 557
-51 66 -62 129 -29 162 24 24 70 27 109 7z"/>
<path d="M2442 2584 c-15 -11 -22 -25 -22 -50 0 -28 6 -38 31 -53 35 -22 56
-18 81 13 53 64 -22 138 -90 90z"/>
<path d="M2900 2270 c-11 -11 -20 -27 -20 -36 0 -21 63 -84 84 -84 25 0 56 37
56 68 0 62 -77 95 -120 52z"/>
<path d="M2664 4229 c-23 -12 -54 -59 -54 -84 0 -59 53 -98 210 -153 133 -46
193 -57 230 -42 55 23 79 106 43 149 -10 11 -45 29 -78 40 -33 10 -113 38
-179 60 -125 43 -139 46 -172 30z"/>
<path d="M5313 3999 c-207 -26 -325 -193 -279 -393 30 -127 104 -228 191 -262
33 -12 64 -15 120 -12 136 9 272 95 332 210 23 45 27 66 27 133 0 72 -3 86
-34 143 -37 71 -72 103 -157 149 -68 35 -115 43 -200 32z m67 -329 c12 -7 12
-13 4 -27 -22 -36 -74 -23 -74 18 0 14 7 19 28 19 15 0 34 -5 42 -10z"/>
<path d="M4183 3731 c-63 -29 -100 -60 -138 -115 -115 -169 -59 -368 123 -436
64 -24 108 -25 182 -4 75 21 146 76 183 142 39 71 42 158 8 250 -55 146 -224
223 -358 163z m127 -269 c0 -10 -5 -23 -12 -30 -13 -13 -48 -16 -48 -4 0 16
32 52 46 52 8 0 14 -8 14 -18z"/>
<path d="M5353 1098 c-29 -32 -58 -123 -58 -185 0 -59 25 -102 69 -118 36 -12
93 17 118 62 42 72 41 210 -2 245 -33 26 -101 24 -127 -4z"/>
</g>
</svg>
