<?xml version="1.0" standalone="no"?>
<!DOCTYPE svg PUBLIC "-//W3C//DTD SVG 20010904//EN"
 "http://www.w3.org/TR/2001/REC-SVG-20010904/DTD/svg10.dtd">
<svg version="1.0" xmlns="http://www.w3.org/2000/svg"
 width="600.000000pt" height="600.000000pt" viewBox="0 0 600.000000 600.000000"
 preserveAspectRatio="xMidYMid meet">
<metadata>
Created by potrace 1.15, written by Peter Selinger 2001-2017
</metadata>
<g transform="translate(0.000000,600.000000) scale(0.100000,-0.100000)"
fill="#16364b" stroke="none">
<path d="M3044 5611 c-43 -20 -76 -65 -128 -175 -83 -176 -83 -308 1 -406 62
-72 171 -109 328 -110 66 -1 77 -3 61 -13 -231 -145 -382 -264 -532 -418 -63
-65 -83 -93 -88 -122 -10 -55 8 -99 60 -147 58 -53 135 -88 310 -141 77 -23
240 -73 364 -111 233 -71 250 -74 313 -41 15 8 37 28 47 46 45 74 9 162 -85
210 -41 20 -354 127 -492 167 -62 18 -113 36 -113 40 0 11 92 88 183 153 42
30 150 97 239 149 246 141 305 210 277 322 -28 114 -161 175 -414 190 -211 13
-225 16 -225 40 0 12 18 59 40 105 46 96 52 156 20 208 -39 64 -101 84 -166
54z"/>
<path d="M1461 5360 c-95 -48 -169 -113 -256 -225 -185 -237 -326 -522 -325
-660 0 -51 30 -115 65 -143 48 -38 84 -38 223 2 150 43 274 66 355 66 56 0 58
-1 51 -22 -7 -23 -46 -90 -129 -223 -59 -93 -105 -204 -105 -253 0 -22 -7 -56
-15 -75 -20 -48 -19 -83 4 -133 23 -51 70 -85 126 -91 34 -4 59 2 135 36 51
23 147 64 214 91 196 78 250 105 279 139 79 94 13 237 -114 249 -43 4 -62 -1
-130 -33 -44 -20 -82 -36 -84 -34 -2 2 23 50 54 106 69 121 91 185 98 275 14
169 -72 264 -256 287 -84 11 -247 1 -321 -19 -62 -17 -64 -14 -30 48 75 133
173 240 277 301 122 72 130 79 148 125 31 80 -3 162 -85 204 -61 31 -86 28
-179 -18z"/>
<path d="M4570 4500 c-118 -19 -367 -114 -411 -156 -61 -58 -58 -156 6 -213
64 -56 88 -53 313 27 61 22 112 36 112 30 0 -13 -93 -198 -127 -251 -14 -23
-70 -103 -123 -177 -53 -74 -102 -145 -108 -157 -15 -28 -15 -98 -1 -126 15
-29 60 -77 72 -77 5 0 27 -16 48 -35 21 -19 49 -37 61 -39 13 -3 86 -17 163
-31 181 -34 295 -64 295 -79 0 -6 -28 -57 -61 -111 -227 -369 -245 -414 -199
-505 37 -73 137 -100 204 -56 13 8 45 55 71 103 26 48 81 140 123 203 175 267
211 381 155 498 -51 107 -183 170 -473 227 -47 10 -87 19 -89 21 -2 2 7 18 21
36 120 161 272 499 285 633 16 178 -117 271 -337 235z"/>
<path d="M3787 3656 c-124 -46 -156 -186 -67 -299 31 -39 57 -51 125 -57 58
-5 60 -6 63 -35 2 -17 -6 -52 -18 -78 -20 -45 -22 -47 -63 -47 -59 0 -149 -25
-226 -63 -72 -35 -177 -132 -204 -189 -39 -83 -10 -164 76 -207 39 -19 56 -22
95 -16 41 6 55 15 108 70 51 53 71 67 119 80 39 12 73 15 106 11 64 -9 121 7
164 45 35 31 63 99 49 120 -3 6 3 19 15 30 12 11 33 43 48 72 24 46 27 63 28
152 0 97 -1 104 -39 179 -87 176 -254 279 -379 232z"/>
<path d="M2465 3565 c-98 -26 -237 -77 -300 -109 -103 -54 -113 -190 -18 -260
52 -38 100 -33 224 23 107 50 201 81 242 81 18 0 19 -6 14 -72 -8 -127 -81
-317 -203 -529 -67 -118 -73 -150 -45 -214 12 -26 21 -56 21 -67 0 -25 33 -88
57 -110 26 -24 87 -48 122 -48 16 0 75 16 132 37 132 46 301 95 307 88 7 -7
-40 -117 -104 -247 -30 -59 -56 -125 -60 -147 -21 -133 97 -246 221 -211 94
26 125 63 220 253 97 196 125 288 125 413 0 140 -58 247 -168 312 -44 25 -54
27 -162 26 -94 0 -131 -5 -200 -26 -47 -15 -86 -25 -88 -24 -1 2 13 36 32 77
19 41 51 124 72 184 37 106 38 115 39 245 0 128 -1 138 -27 186 -34 64 -105
128 -165 148 -67 23 -181 20 -288 -9z"/>
<path d="M1118 3351 c-123 -40 -307 -160 -338 -222 -26 -50 -26 -140 -1 -194
45 -97 137 -138 228 -100 20 8 38 14 40 12 2 -2 -21 -127 -51 -278 -73 -367
-79 -413 -80 -564 -1 -104 2 -136 16 -161 21 -39 81 -92 111 -98 113 -25 138
-27 179 -16 56 15 105 68 188 204 157 258 202 325 314 476 65 88 121 160 125
160 12 0 31 -65 31 -105 0 -21 -11 -116 -25 -209 -44 -305 -77 -645 -73 -743
4 -83 7 -97 34 -135 41 -59 87 -88 139 -88 110 0 187 126 140 230 -15 33 -17
55 -11 127 9 116 40 322 77 513 39 197 49 388 26 487 -9 38 -21 99 -27 137
-28 171 -126 259 -250 226 -59 -16 -101 -45 -197 -134 -99 -92 -207 -219 -287
-338 -33 -49 -61 -86 -63 -84 -4 4 26 172 78 426 16 80 29 175 29 211 0 214
-150 324 -352 260z"/>
<path d="M4694 2276 c-72 -32 -132 -107 -149 -184 l-7 -32 -66 7 c-37 5 -132
8 -212 8 -160 -1 -209 -11 -336 -71 -182 -86 -244 -204 -244 -472 l0 -132 -81
69 c-92 80 -159 116 -244 132 -118 22 -245 -25 -350 -129 -67 -66 -180 -233
-258 -381 l-55 -104 -10 39 c-6 21 -18 104 -26 184 -21 189 -37 256 -91 366
-49 100 -89 138 -167 156 -112 25 -218 -64 -218 -182 0 -14 13 -64 29 -110 22
-64 35 -132 51 -270 27 -236 50 -333 105 -445 68 -141 156 -218 284 -251 119
-30 255 9 297 86 7 14 41 97 75 185 69 177 106 258 152 325 47 68 97 120 117
120 10 0 71 -51 137 -112 74 -71 143 -126 183 -148 63 -34 68 -35 175 -35 106
0 112 1 173 34 70 38 105 78 148 166 28 59 28 62 32 277 3 183 6 219 19 230
19 15 125 16 379 4 160 -8 175 -8 241 12 130 40 208 139 233 296 24 152 -15
275 -108 340 -36 25 -54 31 -110 33 -42 2 -79 -2 -98 -11z"/>
</g>
</svg>
