<?xml version="1.0" standalone="no"?>
<!DOCTYPE svg PUBLIC "-//W3C//DTD SVG 20010904//EN"
 "http://www.w3.org/TR/2001/REC-SVG-20010904/DTD/svg10.dtd">
<svg version="1.0" xmlns="http://www.w3.org/2000/svg"
 width="600.000000pt" height="600.000000pt" viewBox="0 0 600.000000 600.000000"
 preserveAspectRatio="xMidYMid meet">
<metadata>
Created by potrace 1.15, written by Peter Selinger 2001-2017
</metadata>
<g transform="translate(0.000000,600.000000) scale(0.100000,-0.100000)"
fill="#16364b" stroke="none">
<path d="M2215 5831 c-22 -10 -67 -47 -100 -81 -33 -34 -157 -149 -276 -256
-311 -278 -369 -350 -369 -458 0 -75 32 -124 100 -159 52 -27 60 -28 150 -23
139 8 309 61 685 216 161 66 188 84 206 137 30 92 -61 213 -160 213 -17 0 -72
-19 -123 -41 -261 -116 -297 -128 -248 -88 92 77 305 290 321 321 25 50 25
123 -1 166 -21 34 -87 72 -125 72 -11 0 -38 -9 -60 -19z"/>
<path d="M3062 5681 c-120 -76 -96 -265 36 -286 200 -31 347 -107 407 -210 37
-62 50 -146 36 -217 -22 -103 -95 -175 -270 -265 -79 -40 -98 -54 -115 -88
-53 -102 2 -217 110 -232 33 -4 55 3 140 46 341 174 489 432 414 725 -61 240
-240 410 -535 511 -111 37 -181 42 -223 16z"/>
<path d="M929 5311 c-128 -54 -212 -131 -268 -246 -96 -194 -54 -401 116 -585
30 -33 78 -76 105 -97 42 -31 59 -37 99 -37 74 0 131 51 150 131 14 66 -7 109
-85 173 -36 30 -78 73 -93 94 -34 52 -42 118 -18 163 17 31 89 86 145 110 103
44 147 177 87 263 -47 67 -130 78 -238 31z"/>
<path d="M2764 4966 c-132 -42 -262 -154 -305 -263 -18 -46 -23 -78 -24 -153
0 -85 3 -101 29 -155 61 -123 183 -210 338 -241 83 -16 90 -16 133 0 65 25 95
69 95 137 0 37 -6 63 -20 83 -19 31 -85 76 -108 76 -8 0 -39 7 -70 16 -71 21
-102 51 -102 100 0 55 37 98 107 124 68 25 91 43 109 87 51 120 -54 230 -182
189z"/>
<path d="M4796 4945 c-49 -17 -102 -69 -117 -113 -25 -77 11 -292 71 -418 73
-152 183 -240 300 -238 107 2 206 69 260 176 25 50 30 73 30 129 0 174 -110
308 -345 420 -119 56 -148 63 -199 44z"/>
<path d="M1831 4474 c-117 -31 -260 -145 -281 -224 -12 -44 -2 -99 24 -136 33
-47 128 -68 192 -43 16 5 50 30 76 55 81 76 122 82 192 27 39 -31 57 -38 105
-41 99 -7 161 45 161 136 0 54 -18 89 -69 135 -104 94 -258 129 -400 91z"/>
<path d="M2717 3860 c-84 -21 -125 -59 -146 -135 -14 -52 0 -103 40 -140 28
-28 35 -30 105 -29 86 2 87 0 58 -97 -31 -104 -111 -241 -247 -422 -43 -57
-68 -100 -72 -126 -17 -100 82 -186 183 -159 47 13 101 69 232 243 165 218
233 383 234 560 1 74 -3 99 -23 143 -29 64 -94 124 -159 147 -59 20 -155 27
-205 15z"/>
<path d="M1193 3780 c-62 -9 -201 -54 -258 -82 -62 -31 -94 -67 -111 -124 -26
-91 11 -191 87 -233 40 -23 117 -28 151 -10 11 6 22 8 25 5 9 -8 -119 -266
-194 -390 -144 -240 -206 -399 -207 -532 -1 -73 2 -85 29 -130 41 -66 100 -99
177 -98 67 1 74 5 228 133 116 96 228 201 484 451 l138 135 -7 -50 c-13 -99
-58 -283 -120 -489 -75 -250 -116 -366 -179 -502 -25 -56 -46 -112 -46 -126 0
-41 42 -109 80 -129 80 -43 172 -13 214 70 91 179 283 739 316 922 12 63 28
147 36 187 21 98 24 340 5 406 -19 64 -81 129 -139 147 -61 18 -136 1 -210
-48 -31 -21 -124 -104 -207 -185 -82 -81 -151 -146 -152 -144 -1 1 31 72 71
156 120 254 140 311 140 410 1 69 -3 93 -21 125 -55 104 -176 150 -330 125z"/>
<path d="M4203 3779 c-141 -24 -253 -102 -282 -199 -35 -116 -2 -241 89 -332
84 -84 170 -105 295 -73 114 30 206 101 277 215 45 72 96 182 104 224 8 48
-25 120 -65 141 -61 31 -294 45 -418 24z m62 -289 c-9 -15 -62 -40 -69 -33
-12 12 -6 24 17 33 30 12 60 12 52 0z"/>
<path d="M3553 3399 c-155 -28 -283 -219 -283 -426 0 -96 52 -152 157 -169 95
-15 270 37 336 101 105 100 123 256 46 377 -60 93 -151 135 -256 117z"/>
<path d="M4844 2791 c-87 -62 -219 -232 -260 -331 -31 -76 -41 -173 -24 -225
17 -53 73 -111 126 -131 95 -36 220 11 323 122 71 76 116 163 137 267 24 117
15 155 -54 230 -76 84 -97 97 -158 97 -40 0 -59 -6 -90 -29z"/>
<path d="M4195 2459 c-45 -13 -105 -67 -126 -113 -24 -53 -24 -115 1 -238 12
-55 18 -103 15 -106 -3 -3 -33 8 -68 25 -94 46 -135 57 -217 57 -59 0 -86 -6
-125 -24 -69 -34 -131 -99 -168 -178 -31 -64 -32 -72 -32 -192 1 -128 4 -152
57 -375 36 -153 52 -188 108 -239 55 -49 97 -66 164 -66 67 0 93 9 141 52 83
73 93 156 41 346 -39 142 -36 146 60 84 101 -66 149 -74 257 -46 178 46 289
165 303 326 7 77 -13 204 -62 383 -43 160 -49 176 -86 226 -53 73 -167 107
-263 78z"/>
<path d="M2900 2325 c-98 -22 -137 -38 -365 -152 -130 -64 -222 -116 -240
-136 -29 -31 -33 -32 -98 -29 -95 5 -153 -18 -234 -92 -70 -64 -89 -94 -99
-153 -18 -114 75 -222 192 -223 41 0 41 0 48 -42 3 -24 12 -69 20 -100 l14
-58 -58 -31 c-77 -41 -161 -126 -195 -197 -23 -47 -29 -75 -33 -157 -4 -88 -1
-109 21 -172 35 -101 105 -203 216 -313 246 -243 476 -329 733 -275 143 30
350 138 394 205 91 137 -22 317 -185 297 -26 -3 -76 -22 -116 -44 -39 -22 -91
-47 -115 -57 -131 -54 -342 19 -470 162 -65 72 -94 132 -85 172 8 39 38 40 91
4 21 -15 73 -41 114 -58 128 -53 222 -35 284 52 24 34 29 51 29 99 0 73 -9 91
-99 185 -101 103 -132 174 -178 398 -19 90 -20 110 -4 110 7 0 102 42 212 94
200 93 268 121 285 114 11 -4 -33 -144 -78 -248 -18 -41 -63 -129 -99 -195
-54 -98 -66 -127 -66 -165 0 -166 225 -263 343 -148 58 57 210 397 256 574 76
291 16 494 -166 562 -75 28 -188 35 -269 17z"/>
</g>
</svg>
