<?xml version="1.0" standalone="no"?>
<!DOCTYPE svg PUBLIC "-//W3C//DTD SVG 20010904//EN"
 "http://www.w3.org/TR/2001/REC-SVG-20010904/DTD/svg10.dtd">
<svg version="1.0" xmlns="http://www.w3.org/2000/svg"
 width="600.000000pt" height="600.000000pt" viewBox="0 0 600.000000 600.000000"
 preserveAspectRatio="xMidYMid meet">
<metadata>
Created by potrace 1.15, written by Peter Selinger 2001-2017
</metadata>
<g transform="translate(0.000000,600.000000) scale(0.100000,-0.100000)"
fill="#16364b" stroke="none">
<path d="M1534 5754 c-44 -21 -59 -55 -87 -189 -67 -314 -58 -509 25 -594 67
-68 142 -90 225 -66 47 14 69 28 115 75 92 94 186 254 273 464 46 112 47 156
1 202 -30 30 -40 34 -85 34 -72 0 -108 -36 -156 -155 -47 -114 -107 -231 -141
-270 l-25 -30 5 95 c3 52 13 133 22 180 8 47 18 103 21 126 13 103 -96 176
-193 128z"/>
<path d="M853 5510 c-67 -14 -135 -48 -176 -88 -116 -111 -152 -331 -80 -485
48 -102 145 -187 213 -187 58 0 120 66 120 128 0 43 -19 79 -69 125 -63 59
-65 135 -5 206 39 47 75 56 133 35 42 -15 56 -16 90 -5 83 24 124 132 75 198
-41 55 -200 94 -301 73z"/>
<path d="M3340 5483 c-64 -21 -90 -56 -90 -123 0 -59 22 -93 82 -130 29 -18
82 -53 117 -77 l63 -46 -31 -20 c-39 -24 -61 -65 -61 -112 0 -29 9 -45 45 -84
94 -101 253 -148 342 -102 90 45 117 142 69 246 -35 78 -102 169 -169 232 -57
54 -291 213 -313 213 -7 0 -18 2 -26 4 -7 3 -20 2 -28 -1z"/>
<path d="M2978 5156 c-94 -26 -174 -118 -204 -236 -29 -115 9 -210 104 -257
44 -22 62 -25 110 -20 59 5 162 45 195 75 33 30 47 70 54 150 15 201 -102 332
-259 288z"/>
<path d="M2284 5094 c-48 -24 -64 -61 -64 -152 0 -136 -18 -162 -167 -234 -57
-27 -112 -61 -123 -75 -39 -50 -44 -104 -15 -175 11 -27 69 -58 108 -58 37 0
49 5 209 79 192 88 279 238 265 455 -6 87 -20 115 -77 154 -38 26 -91 28 -136
6z"/>
<path d="M4765 4816 c-42 -18 -83 -69 -91 -112 -9 -48 3 -182 22 -264 21 -85
92 -235 137 -285 106 -122 275 -134 381 -29 71 72 92 185 52 289 -59 152 -194
303 -335 373 -88 44 -117 49 -166 28z"/>
<path d="M2784 4146 c-150 -36 -241 -156 -214 -281 39 -182 243 -249 515 -170
119 35 250 99 276 137 43 60 34 150 -19 201 -35 33 -201 91 -320 112 -100 18
-168 18 -238 1z"/>
<path d="M1044 4061 c-28 -12 -72 -66 -80 -97 -17 -69 21 -165 78 -195 12 -7
71 -20 132 -31 61 -10 115 -23 121 -29 26 -26 -209 -183 -505 -336 -88 -45
-114 -80 -114 -155 0 -54 21 -89 74 -125 65 -45 154 -27 345 69 83 42 92 43
98 9 8 -41 61 -97 104 -112 54 -18 105 -6 164 39 62 46 117 75 176 92 38 12
47 11 92 -9 116 -49 222 -2 246 110 16 73 -40 160 -131 205 -50 24 -61 26
-164 22 -61 -2 -109 -1 -107 2 35 61 67 144 73 186 15 125 -68 238 -217 293
-129 48 -339 82 -385 62z"/>
<path d="M4267 3788 c-147 -13 -267 -91 -320 -206 -30 -65 -30 -190 0 -247 29
-55 89 -110 148 -136 74 -33 190 -32 266 3 71 33 152 114 189 193 30 63 70
209 70 256 0 34 -37 88 -77 111 -39 23 -170 36 -276 26z m3 -288 c0 -5 -11
-17 -26 -26 -34 -23 -56 -4 -23 20 26 18 49 21 49 6z"/>
<path d="M5037 3388 c-89 -47 -162 -112 -202 -180 -116 -203 -29 -449 170
-482 119 -20 311 88 373 210 34 66 46 151 32 220 -16 76 -37 118 -98 189 -61
72 -83 84 -147 84 -39 0 -67 -8 -128 -41z"/>
<path d="M3420 3397 c-49 -23 -90 -59 -133 -115 -54 -70 -107 -173 -107 -207
0 -36 23 -78 60 -109 28 -23 40 -26 111 -26 60 0 90 5 124 21 93 44 162 189
153 319 -4 52 -9 66 -36 92 -27 27 -39 32 -89 35 -32 1 -69 -3 -83 -10z"/>
<path d="M2279 2937 c-110 -41 -170 -108 -256 -282 -77 -157 -103 -191 -188
-248 -76 -51 -232 -216 -293 -310 -147 -228 -217 -563 -167 -801 52 -245 273
-478 546 -574 172 -61 391 -80 523 -46 185 48 448 237 564 406 114 166 236
508 273 767 17 120 7 277 -24 368 -58 171 -150 267 -311 328 -101 38 -139 70
-211 177 -113 166 -192 219 -335 225 -55 2 -98 -2 -121 -10z m175 -472 c79
-103 132 -165 155 -181 12 -9 70 -35 128 -59 58 -25 113 -51 123 -60 41 -37
57 -163 35 -286 -28 -165 -133 -443 -209 -555 -38 -57 -142 -160 -196 -194
-165 -106 -374 -91 -561 38 -116 80 -164 156 -180 281 -15 123 31 286 118 419
20 31 117 136 214 232 186 185 217 223 281 351 22 44 41 79 43 77 2 -2 24 -30
49 -63z"/>
<path d="M870 2714 c-53 -48 -68 -100 -45 -161 14 -37 27 -49 88 -85 105 -62
199 -159 226 -231 33 -91 23 -171 -30 -228 -60 -65 -147 -25 -225 102 -38 63
-74 89 -123 89 -47 0 -79 -17 -101 -52 -37 -61 -36 -92 5 -174 49 -97 132
-182 221 -225 63 -31 76 -34 164 -34 84 0 102 3 152 28 101 50 172 156 204
308 46 215 -54 442 -265 603 -142 108 -202 122 -271 60z"/>
<path d="M4181 2269 c-73 -29 -131 -114 -131 -193 0 -32 -3 -37 -17 -31 -10 4
-42 10 -71 13 -133 12 -232 -87 -232 -232 0 -108 85 -396 136 -463 47 -62 148
-95 224 -74 14 4 44 1 70 -7 109 -35 231 34 264 150 14 46 15 101 8 393 -8
384 -9 388 -88 432 -42 24 -119 30 -163 12z"/>
</g>
</svg>
