<?xml version="1.0" standalone="no"?>
<!DOCTYPE svg PUBLIC "-//W3C//DTD SVG 20010904//EN"
 "http://www.w3.org/TR/2001/REC-SVG-20010904/DTD/svg10.dtd">
<svg version="1.0" xmlns="http://www.w3.org/2000/svg"
 width="600.000000pt" height="600.000000pt" viewBox="0 0 600.000000 600.000000"
 preserveAspectRatio="xMidYMid meet">
<metadata>
Created by potrace 1.15, written by Peter Selinger 2001-2017
</metadata>
<g transform="translate(0.000000,600.000000) scale(0.100000,-0.100000)"
fill="#16364b" stroke="none">
<path d="M1996 5820 c-43 -13 -58 -30 -179 -205 -177 -254 -254 -371 -289
-443 -61 -126 -46 -244 39 -302 30 -21 48 -25 103 -24 58 0 80 6 155 42 49 24
163 91 254 151 91 60 207 132 257 161 105 61 137 100 137 164 0 59 -29 106
-83 134 -76 38 -135 25 -282 -64 -33 -20 -61 -34 -64 -31 -2 2 28 48 67 102
76 102 90 138 78 194 -19 85 -113 145 -193 121z"/>
<path d="M3015 5706 c-63 -27 -107 -109 -91 -169 14 -56 50 -89 166 -149 153
-79 328 -196 380 -255 58 -65 103 -163 108 -235 4 -55 3 -59 -28 -88 -21 -20
-60 -39 -114 -55 -92 -28 -128 -57 -144 -117 -21 -77 26 -156 105 -177 32 -9
54 -7 116 8 41 11 93 29 114 40 101 51 182 141 219 241 48 134 -12 381 -131
538 -84 111 -318 289 -502 383 -102 52 -143 59 -198 35z"/>
<path d="M950 5381 c-150 -41 -272 -139 -333 -268 -28 -60 -32 -80 -35 -173
-3 -88 0 -116 18 -170 39 -119 121 -215 234 -272 77 -39 183 -19 228 45 32 45
30 115 -6 161 -15 20 -31 36 -36 36 -16 0 -90 71 -105 99 -13 27 -18 56 -16
105 2 44 56 90 134 115 87 27 112 44 137 95 28 59 26 113 -6 163 -49 74 -111
93 -214 64z"/>
<path d="M2775 5011 c-60 -35 -83 -58 -128 -133 -93 -156 -60 -319 82 -405 98
-59 267 -68 363 -20 55 28 93 96 82 151 -6 36 -46 88 -74 98 -13 4 -12 8 4 27
12 13 21 41 24 76 4 45 0 61 -22 99 -74 126 -218 172 -331 107z"/>
<path d="M4750 4897 c-77 -41 -85 -60 -84 -205 1 -206 55 -354 165 -457 88
-80 164 -100 269 -69 79 23 172 118 195 199 44 149 -42 312 -226 431 -106 67
-218 124 -248 124 -15 0 -47 -10 -71 -23z"/>
<path d="M1925 4650 c-91 -19 -183 -73 -215 -125 -26 -42 -26 -110 0 -153 47
-76 138 -94 225 -42 72 43 87 40 115 -21 30 -62 68 -91 130 -97 84 -8 160 50
176 135 12 65 -42 170 -121 233 -76 60 -213 91 -310 70z"/>
<path d="M2987 3979 c-104 -25 -218 -114 -264 -208 -23 -47 -28 -69 -28 -136
0 -145 53 -257 155 -328 107 -74 286 -106 347 -61 69 51 87 149 44 232 -25 49
-66 78 -125 88 -62 10 -96 31 -96 59 0 42 26 58 84 51 144 -18 150 -17 184 3
99 62 96 208 -5 259 -92 47 -204 63 -296 41z"/>
<path d="M1145 3909 c-190 -29 -253 -57 -291 -130 -21 -41 -18 -132 6 -179 36
-70 125 -117 201 -107 22 3 39 2 39 -2 0 -11 -97 -172 -174 -290 -37 -57 -92
-147 -121 -200 -62 -110 -180 -372 -197 -436 -29 -108 59 -215 177 -215 52 0
114 28 141 64 23 29 200 175 379 310 118 90 242 190 320 260 17 15 42 36 58
47 l27 20 0 -74 c0 -83 -20 -205 -52 -312 -49 -164 -206 -500 -319 -679 -72
-115 -83 -146 -68 -200 29 -106 152 -152 244 -92 31 21 119 164 205 335 157
312 211 445 259 631 52 200 64 287 59 438 -3 126 -6 142 -31 194 -48 98 -145
143 -256 119 -95 -20 -219 -96 -345 -210 -61 -55 -76 -63 -54 -28 69 108 187
313 205 357 60 147 6 303 -127 363 -52 23 -189 31 -285 16z"/>
<path d="M4185 3777 c-110 -28 -194 -89 -238 -170 -18 -35 -22 -57 -22 -132 1
-107 20 -158 86 -230 96 -104 222 -129 349 -69 126 60 212 162 269 320 37 100
38 124 10 180 -24 51 -64 78 -139 94 -85 18 -257 22 -315 7z m95 -317 c-26
-21 -60 -27 -60 -10 0 14 32 29 60 29 l25 1 -25 -20z"/>
<path d="M3485 3391 c-105 -26 -167 -110 -231 -316 -30 -97 -24 -142 26 -190
27 -26 39 -30 104 -33 204 -11 357 114 359 293 1 33 -5 77 -12 98 -34 100
-152 170 -246 148z"/>
<path d="M4931 2979 c-13 -5 -52 -32 -86 -60 -172 -139 -258 -332 -210 -468
23 -67 54 -102 113 -129 45 -20 64 -24 114 -19 125 11 263 108 320 225 31 62
33 74 33 167 0 78 -4 108 -19 135 -23 44 -118 137 -152 150 -31 12 -81 12
-113 -1z"/>
<path d="M4027 2559 c-79 -19 -133 -64 -163 -134 -28 -67 -21 -127 30 -258 25
-66 46 -125 46 -132 0 -10 -15 -7 -59 11 -84 33 -185 48 -245 34 -65 -14 -97
-32 -136 -76 -90 -103 -91 -218 -5 -539 24 -88 53 -200 64 -249 24 -103 54
-149 115 -177 126 -57 282 19 322 157 17 58 13 85 -32 254 -7 25 -6 24 27 -6
45 -42 70 -54 132 -64 94 -14 229 34 298 107 70 73 84 113 84 243 -1 131 -6
151 -117 487 -60 182 -75 219 -109 256 -60 69 -169 106 -252 86z"/>
<path d="M2068 2159 c-86 -14 -150 -69 -236 -202 -71 -109 -78 -175 -30 -270
21 -41 65 -74 115 -83 l32 -6 -59 -39 c-166 -112 -259 -296 -260 -515 -1 -345
293 -694 660 -785 114 -29 258 -23 380 16 179 57 384 188 438 280 33 58 26
151 -15 203 -38 48 -87 72 -146 72 -63 0 -108 -20 -169 -75 -103 -93 -237
-135 -365 -115 -152 23 -328 153 -373 275 -41 112 -37 208 11 269 34 44 61 34
114 -39 25 -36 71 -84 102 -107 50 -38 62 -43 123 -46 80 -5 139 20 170 71 39
63 21 180 -37 242 -30 33 -60 78 -76 117 l-15 36 46 24 c187 96 301 152 382
186 114 48 140 56 140 44 0 -13 -49 -129 -105 -247 -26 -55 -65 -145 -87 -200
-22 -55 -49 -121 -59 -148 -10 -26 -19 -57 -19 -70 0 -89 70 -177 155 -195 81
-17 140 2 194 63 77 88 268 533 301 701 18 90 9 226 -20 299 -32 83 -124 174
-199 198 -121 39 -186 23 -541 -131 l-255 -111 -16 67 c-34 145 -88 203 -209
225 -14 2 -46 1 -72 -4z"/>
</g>
</svg>
