<?xml version="1.0" standalone="no"?>
<!DOCTYPE svg PUBLIC "-//W3C//DTD SVG 20010904//EN"
 "http://www.w3.org/TR/2001/REC-SVG-20010904/DTD/svg10.dtd">
<svg version="1.0" xmlns="http://www.w3.org/2000/svg"
 width="600.000000pt" height="600.000000pt" viewBox="0 0 600.000000 600.000000"
 preserveAspectRatio="xMidYMid meet">
<metadata>
Created by potrace 1.15, written by Peter Selinger 2001-2017
</metadata>
<g transform="translate(0.000000,600.000000) scale(0.100000,-0.100000)"
fill="#16364b" stroke="none">
<path d="M2310 5443 c-94 -34 -176 -289 -131 -403 58 -144 169 -176 436 -125
71 13 131 23 133 20 3 -2 -25 -44 -60 -92 -157 -212 -217 -316 -297 -512 -54
-131 -62 -185 -36 -231 8 -14 14 -43 15 -65 0 -77 59 -135 135 -135 20 0 71 9
113 19 236 61 364 80 573 90 149 7 169 9 197 30 86 61 81 189 -8 249 -33 23
-41 24 -135 18 -156 -10 -360 -35 -468 -57 -54 -11 -101 -18 -104 -15 -15 15
121 231 284 450 121 161 163 238 170 312 11 108 -53 198 -164 230 -71 21 -204
15 -367 -16 -60 -11 -112 -18 -114 -15 -3 3 2 21 11 40 35 73 15 158 -46 195
-31 19 -102 26 -137 13z"/>
<path d="M1672 4990 c-155 -41 -337 -147 -458 -267 -68 -67 -91 -118 -80 -182
6 -40 69 -135 106 -162 14 -11 83 -30 159 -44 142 -28 273 -65 331 -95 19 -10
59 -43 89 -74 64 -67 107 -82 176 -65 89 22 135 100 113 188 -9 37 -27 61 -87
121 -82 82 -157 125 -306 176 -44 15 -84 30 -88 34 -15 13 119 59 199 69 84
10 115 27 152 81 26 39 29 106 7 150 -8 16 -32 42 -52 57 -31 24 -47 28 -112
30 -51 2 -100 -4 -149 -17z"/>
<path d="M4006 4970 c-73 -13 -140 -37 -227 -81 -134 -67 -179 -123 -163 -205
14 -74 97 -134 166 -120 17 3 58 23 92 44 64 41 163 82 196 82 51 0 34 -124
-51 -378 -32 -97 -59 -193 -59 -213 0 -52 39 -120 85 -146 27 -15 42 -32 51
-60 17 -49 65 -93 103 -93 16 0 76 11 133 25 236 56 391 70 423 38 30 -29 13
-120 -90 -493 -22 -79 -15 -126 22 -171 66 -78 187 -77 228 2 18 34 85 241
110 339 41 157 38 348 -6 451 -26 58 -80 112 -144 141 -76 34 -225 36 -435 4
-91 -13 -166 -23 -167 -22 -2 1 20 67 47 145 76 216 96 327 79 430 -31 194
-200 315 -393 281z"/>
<path d="M2071 3914 c-80 -26 -229 -55 -416 -79 -65 -8 -129 -22 -142 -30 -58
-39 -77 -116 -45 -188 39 -89 88 -100 309 -72 167 21 263 41 377 78 114 37
157 69 176 134 11 36 11 49 -4 88 -35 91 -120 114 -255 69z"/>
<path d="M3740 3700 c-150 -36 -521 -202 -572 -256 -76 -82 -35 -241 68 -260
49 -9 75 0 181 63 107 62 283 147 290 139 3 -3 -38 -103 -92 -223 -95 -212
-97 -219 -91 -275 5 -48 3 -59 -13 -70 -32 -23 -61 -81 -61 -124 0 -50 31
-100 80 -128 93 -55 397 12 594 131 67 40 261 227 295 283 63 105 -12 220
-144 220 -64 0 -104 -20 -147 -73 -21 -25 -59 -61 -85 -80 -62 -45 -182 -111
-190 -104 -3 3 22 70 55 149 70 166 99 256 112 350 28 196 -88 303 -280 258z"/>
<path d="M2305 3334 c-182 -28 -251 -45 -285 -73 -71 -57 -77 -142 -13 -212
51 -56 92 -66 212 -50 225 31 281 32 281 5 0 -7 -12 -48 -26 -91 -40 -122 -17
-200 72 -243 99 -48 160 -2 213 161 47 143 53 246 19 320 -32 69 -77 112 -157
151 -58 29 -72 32 -175 34 -61 1 -124 0 -141 -2z"/>
<path d="M1209 3077 c-58 -22 -96 -54 -118 -100 -23 -47 -27 -119 -10 -164 13
-36 74 -98 110 -113 35 -15 36 -25 44 -401 9 -465 30 -560 140 -624 39 -23 67
-28 129 -26 39 1 110 73 125 126 13 47 14 122 2 182 -5 23 -6 44 -4 47 3 2 20
-2 40 -10 74 -31 144 7 210 114 71 116 172 242 194 242 8 0 41 -89 40 -110 0
-8 -9 -67 -19 -130 -11 -63 -32 -202 -48 -307 -27 -190 -27 -193 -9 -234 33
-72 117 -119 186 -104 36 8 85 48 105 86 8 16 26 119 39 229 14 110 37 255 51
323 25 123 24 163 -2 202 -8 11 -14 33 -14 51 0 17 -9 56 -19 87 -55 158 -180
250 -315 232 -117 -15 -255 -128 -371 -304 -33 -50 -63 -91 -67 -91 -5 0 -8
88 -8 195 0 269 -27 393 -108 500 -56 73 -119 109 -201 112 -38 2 -81 -3 -102
-10z"/>
<path d="M4913 3060 c-51 -12 -96 -43 -128 -89 -28 -39 -30 -51 -35 -149 l-5
-105 -88 -51 c-123 -72 -198 -129 -289 -219 -64 -64 -87 -96 -124 -173 -42
-86 -47 -104 -52 -183 -3 -55 0 -109 8 -142 31 -129 111 -269 204 -357 45 -43
52 -54 38 -58 -54 -17 -94 -40 -123 -70 -50 -52 -85 -57 -241 -38 -270 33
-456 -4 -637 -129 -62 -42 -183 -159 -242 -233 -28 -35 -60 -65 -74 -68 -14
-4 -60 -38 -102 -76 -94 -86 -151 -108 -235 -91 -114 24 -257 141 -359 293
-90 133 -159 172 -262 147 -132 -31 -177 -173 -96 -301 178 -282 402 -468 619
-514 103 -22 254 -15 335 16 71 27 179 95 255 160 30 26 72 55 93 65 21 10 62
45 90 79 107 126 205 216 264 244 51 24 70 27 158 27 55 -1 163 -5 241 -9 161
-10 209 -3 319 49 80 39 169 119 196 180 36 78 13 187 -48 235 -22 17 -23 20
-7 20 32 1 97 36 133 71 50 50 81 123 81 192 0 65 -16 103 -66 159 -61 69 -54
167 17 220 19 14 72 47 119 73 161 91 233 158 289 271 42 87 54 152 49 264 -4
81 -10 109 -32 154 -33 67 -90 115 -159 133 -56 14 -58 14 -104 3z"/>
<path d="M3430 2314 c-88 -11 -182 -29 -405 -80 -310 -70 -309 -70 -349 -105
-97 -85 -89 -237 16 -306 61 -41 113 -36 389 36 215 55 384 91 429 91 11 0 23
-15 34 -44 60 -158 278 -204 363 -76 19 27 23 47 23 112 0 175 -88 299 -248
348 -66 21 -185 32 -252 24z"/>
</g>
</svg>
