<?xml version="1.0" standalone="no"?>
<!DOCTYPE svg PUBLIC "-//W3C//DTD SVG 20010904//EN"
 "http://www.w3.org/TR/2001/REC-SVG-20010904/DTD/svg10.dtd">
<svg version="1.0" xmlns="http://www.w3.org/2000/svg"
 width="600.000000pt" height="600.000000pt" viewBox="0 0 600.000000 600.000000"
 preserveAspectRatio="xMidYMid meet">
<metadata>
Created by potrace 1.15, written by Peter Selinger 2001-2017
</metadata>
<g transform="translate(0.000000,600.000000) scale(0.100000,-0.100000)"
fill="#16364b" stroke="none">
<path d="M3551 5267 c-28 -35 -24 -76 13 -153 66 -133 180 -224 240 -192 29
15 36 28 36 66 0 61 -109 233 -173 272 -37 23 -99 26 -116 7z m143 -163 c21
-30 36 -57 33 -60 -6 -6 -54 51 -73 87 -24 48 -1 32 40 -27z"/>
<path d="M3029 5066 c-120 -43 -199 -195 -156 -299 19 -45 41 -59 88 -59 97 2
249 163 249 264 0 84 -86 128 -181 94z m81 -98 c0 -35 -47 -105 -96 -143 -26
-19 -51 -32 -56 -29 -17 11 -1 84 25 121 47 66 127 99 127 51z"/>
<path d="M4756 4716 c-33 -32 -41 -130 -27 -321 16 -215 28 -273 62 -307 61
-62 137 -20 159 88 16 77 8 249 -20 379 -35 173 -43 185 -115 185 -24 0 -43
-8 -59 -24z"/>
<path d="M2651 4214 c-56 -40 -59 -131 -5 -173 109 -86 403 -145 477 -96 49
32 59 112 19 148 -24 21 -356 128 -417 134 -37 3 -56 0 -74 -13z"/>
<path d="M1454 4066 c-83 -39 -134 -122 -134 -219 0 -81 46 -167 118 -221 31
-22 69 -54 85 -70 67 -69 144 -279 181 -498 30 -172 99 -733 116 -933 35 -422
112 -641 264 -755 100 -75 260 -139 388 -155 30 -4 60 -10 66 -14 7 -4 -1 -30
-23 -76 -44 -91 -65 -173 -65 -255 0 -112 43 -177 161 -248 78 -47 75 -65 -16
-78 -59 -8 -120 -36 -135 -63 -5 -11 -10 -35 -10 -55 0 -69 80 -100 184 -72
160 45 243 164 188 272 -24 47 -56 77 -139 133 -83 55 -99 86 -83 160 13 60
92 229 123 262 10 10 23 16 29 13 15 -10 539 -33 740 -34 l157 0 -15 -27 c-8
-16 -14 -56 -14 -94 0 -118 55 -192 188 -252 l47 -21 -42 -10 c-57 -15 -93
-51 -93 -93 0 -71 43 -103 137 -103 131 1 238 105 214 210 -17 77 -46 101
-192 159 -77 30 -99 53 -99 99 0 33 9 47 58 100 36 38 67 62 79 62 56 0 499
99 613 136 251 83 442 296 517 575 24 90 24 273 0 359 -70 256 -249 431 -472
461 -131 18 -238 -3 -375 -71 -350 -177 -899 -128 -1253 112 -136 92 -211 181
-452 528 -347 500 -459 614 -745 757 -66 34 -85 38 -160 41 -73 2 -92 -1 -136
-22z m191 -181 c28 -13 71 -39 97 -57 25 -18 65 -44 88 -58 111 -67 345 -345
576 -685 217 -321 364 -467 556 -555 80 -35 306 -112 413 -139 301 -77 653
-44 910 84 109 54 168 69 244 62 129 -11 212 -76 281 -218 50 -103 63 -170 58
-283 -5 -99 -28 -169 -89 -273 -46 -76 -155 -183 -226 -220 -118 -63 -329
-119 -598 -160 -100 -15 -184 -18 -515 -18 -364 0 -465 4 -850 35 -193 16
-303 54 -391 137 -114 106 -152 250 -189 710 -6 73 -15 156 -20 185 -5 29 -23
161 -40 293 -39 308 -53 390 -95 553 -59 228 -131 377 -218 445 -79 62 -117
104 -117 128 1 61 46 73 125 34z"/>
<path d="M2397 2502 c-25 -27 -21 -66 9 -96 33 -32 68 -33 88 -4 24 34 20 73
-10 97 -33 26 -66 27 -87 3z"/>
<path d="M2847 2142 c-10 -10 -17 -28 -17 -40 0 -25 44 -62 76 -62 25 0 64 43
64 70 0 46 -90 69 -123 32z"/>
<path d="M5240 3991 c-158 -51 -243 -196 -210 -357 24 -116 96 -218 187 -264
72 -37 178 -35 256 5 71 36 140 108 175 183 35 77 37 186 4 250 -29 54 -84
107 -158 152 -53 32 -66 35 -144 37 -47 1 -96 -1 -110 -6z m118 -292 c26 -9
30 -14 22 -29 -22 -41 -70 -30 -70 16 0 27 5 28 48 13z"/>
<path d="M4204 3760 c-223 -73 -299 -356 -140 -516 144 -143 360 -96 457 101
53 108 49 278 -8 346 -63 74 -200 105 -309 69z m86 -285 c0 -14 -8 -29 -21
-36 -32 -17 -43 3 -19 34 27 34 40 34 40 2z"/>
<path d="M468 1995 c-14 -31 -2 -46 96 -113 83 -58 168 -102 194 -102 30 0 55
35 48 65 -7 27 -39 50 -179 126 -103 56 -142 62 -159 24z"/>
<path d="M5354 1105 c-30 -21 -65 -108 -66 -165 0 -81 31 -119 97 -120 69 0
106 42 125 142 20 105 -10 158 -88 158 -26 0 -57 -7 -68 -15z"/>
</g>
</svg>
