<?xml version="1.0" standalone="no"?>
<!DOCTYPE svg PUBLIC "-//W3C//DTD SVG 20010904//EN"
 "http://www.w3.org/TR/2001/REC-SVG-20010904/DTD/svg10.dtd">
<svg version="1.0" xmlns="http://www.w3.org/2000/svg"
 width="600.000000pt" height="600.000000pt" viewBox="0 0 600.000000 600.000000"
 preserveAspectRatio="xMidYMid meet">
<metadata>
Created by potrace 1.15, written by Peter Selinger 2001-2017
</metadata>
<g transform="translate(0.000000,600.000000) scale(0.100000,-0.100000)"
fill="#16364b" stroke="none">
<path d="M2109 5437 c-39 -26 -75 -105 -90 -200 -12 -71 -6 -105 28 -169 49
-91 126 -123 296 -123 64 0 117 -3 117 -6 0 -4 -16 -42 -36 -85 -47 -101 -97
-248 -118 -346 -17 -75 -17 -79 3 -122 12 -28 33 -53 53 -66 64 -39 163 -18
202 42 8 13 24 61 36 108 26 103 57 190 103 291 76 168 89 257 48 342 -46 96
-123 133 -292 143 l-107 7 9 24 c11 29 -2 86 -26 121 -43 61 -163 82 -226 39z"/>
<path d="M3575 5431 c-93 -16 -145 -75 -145 -166 0 -98 53 -145 165 -145 58 0
69 -3 92 -26 24 -24 25 -30 20 -99 -3 -44 -18 -106 -37 -161 -18 -49 -35 -103
-37 -121 -12 -75 49 -155 127 -168 33 -6 51 -2 88 17 53 27 82 77 132 227 79
236 49 415 -90 544 -86 80 -204 117 -315 98z"/>
<path d="M1605 4825 c-113 -19 -258 -59 -310 -88 -96 -53 -112 -182 -31 -256
20 -19 40 -26 86 -29 33 -2 60 -6 60 -9 0 -2 -8 -15 -17 -29 -24 -38 -23 -116
3 -150 38 -51 66 -63 219 -94 83 -16 222 -51 310 -77 186 -55 245 -60 290 -25
84 66 98 188 30 252 -27 26 -330 109 -546 151 -65 13 -119 26 -119 30 0 9 119
29 190 31 30 2 94 -1 142 -6 75 -7 91 -6 113 8 59 39 81 120 51 189 -18 43
-52 73 -106 93 -63 23 -251 27 -365 9z"/>
<path d="M4281 4424 c-90 -47 -104 -184 -26 -253 29 -25 44 -30 117 -35 137
-11 160 -17 189 -45 35 -35 43 -98 29 -216 -23 -193 -23 -217 -1 -253 61 -96
186 -93 244 6 43 73 62 369 32 485 -53 204 -199 306 -459 322 -74 5 -97 3
-125 -11z"/>
<path d="M3180 4390 c-36 -17 -108 -50 -160 -72 -52 -22 -187 -83 -300 -135
-224 -103 -273 -139 -285 -207 -10 -52 1 -85 44 -128 36 -35 43 -38 98 -38 54
0 74 7 223 81 146 72 289 136 505 224 81 33 131 80 141 131 15 83 -55 164
-148 171 -44 3 -64 -1 -118 -27z"/>
<path d="M2150 3829 c-138 -43 -250 -60 -375 -58 -170 2 -172 2 -205 -18 -77
-45 -100 -157 -46 -228 16 -20 44 -43 62 -51 119 -50 711 45 789 126 71 74 38
205 -61 246 -44 18 -52 17 -164 -17z"/>
<path d="M3713 3795 c-104 -28 -624 -275 -671 -318 -37 -34 -52 -71 -52 -127
0 -59 20 -100 60 -124 58 -34 91 -24 332 99 124 63 229 115 234 115 5 0 16
-17 25 -39 20 -46 74 -90 123 -98 47 -7 116 19 143 55 27 36 70 158 79 219 13
102 -42 194 -133 221 -50 15 -74 14 -140 -3z"/>
<path d="M4998 3410 c-66 -12 -129 -59 -161 -120 -29 -55 -29 -56 -22 -180 6
-99 4 -133 -7 -160 -15 -35 -69 -104 -188 -242 -175 -202 -290 -519 -250 -687
21 -90 95 -161 190 -183 42 -10 59 -9 104 5 101 32 165 122 166 232 0 66 32
167 74 239 14 24 65 86 112 137 190 205 263 343 280 532 7 80 -9 231 -30 282
-43 102 -162 166 -268 145z"/>
<path d="M2014 3216 c-17 -8 -44 -31 -60 -52 -25 -32 -29 -46 -29 -100 0 -71
19 -105 76 -139 30 -17 58 -21 214 -25 l180 -5 6 -36 c7 -46 37 -96 71 -122
39 -29 123 -34 168 -9 59 32 80 74 80 156 0 90 -29 156 -94 213 -90 80 -179
106 -404 122 -183 13 -170 13 -208 -3z"/>
<path d="M4307 3145 c-16 -8 -52 -36 -80 -61 -155 -139 -402 -253 -668 -308
-69 -14 -135 -34 -149 -44 -69 -51 -91 -141 -50 -208 22 -35 91 -74 131 -74
94 0 388 76 541 139 184 77 435 256 479 343 24 47 24 99 0 146 -35 69 -137
102 -204 67z"/>
<path d="M1315 2983 c-105 -55 -146 -174 -91 -267 31 -54 33 -66 51 -316 9
-118 22 -255 31 -304 31 -184 111 -374 184 -440 90 -81 212 -68 286 30 25 32
29 46 29 104 0 45 -5 74 -17 92 -63 96 -101 257 -132 563 -26 249 -38 323 -63
384 -25 60 -83 131 -124 151 -46 24 -113 25 -154 3z"/>
<path d="M2119 2446 c-111 -31 -273 -136 -305 -198 -53 -102 28 -238 141 -238
44 0 69 12 115 55 48 45 109 85 130 85 10 0 29 -17 43 -38 85 -129 297 -68
297 86 0 85 -81 190 -184 238 -58 27 -158 31 -237 10z"/>
<path d="M3765 2163 c-16 -2 -77 -16 -134 -29 -58 -13 -262 -54 -453 -89 -216
-40 -364 -73 -388 -85 -113 -58 -140 -205 -54 -300 44 -49 89 -64 168 -57 115
10 571 88 731 124 251 56 249 56 302 38 153 -52 313 99 264 248 -15 44 -78
102 -140 130 -36 16 -70 21 -156 23 -60 1 -123 0 -140 -3z"/>
<path d="M2292 1969 c-137 -68 -164 -387 -51 -610 71 -142 120 -189 196 -189
59 0 105 25 137 74 39 58 33 121 -17 196 -71 108 -94 224 -62 315 34 94 8 181
-65 217 -46 24 -86 23 -138 -3z"/>
<path d="M4625 1622 c-22 -11 -56 -36 -75 -57 -48 -51 -106 -89 -163 -109 -26
-9 -138 -31 -250 -50 -308 -53 -467 -107 -627 -211 -114 -75 -174 -140 -190
-203 -6 -29 -9 -68 -6 -87 8 -39 3 -41 -34 -20 -48 28 -111 19 -202 -29 -123
-64 -179 -80 -278 -80 -70 1 -98 6 -162 31 -92 36 -217 119 -310 203 -74 67
-119 90 -175 90 -146 -1 -241 -169 -161 -285 53 -77 278 -246 438 -329 163
-84 228 -101 390 -101 158 1 216 14 358 82 154 73 214 155 199 268 -4 25 -5
45 -4 45 2 0 20 -9 42 -20 70 -36 125 -25 214 42 141 106 289 161 551 204 251
41 307 57 432 119 123 62 255 167 298 237 13 22 20 50 20 84 0 65 -45 137
-105 168 -56 29 -148 32 -200 8z"/>
</g>
</svg>
