<?xml version="1.0" standalone="no"?>
<!DOCTYPE svg PUBLIC "-//W3C//DTD SVG 20010904//EN"
 "http://www.w3.org/TR/2001/REC-SVG-20010904/DTD/svg10.dtd">
<svg version="1.0" xmlns="http://www.w3.org/2000/svg"
 width="600.000000pt" height="600.000000pt" viewBox="0 0 600.000000 600.000000"
 preserveAspectRatio="xMidYMid meet">
<metadata>
Created by potrace 1.15, written by Peter Selinger 2001-2017
</metadata>
<g transform="translate(0.000000,600.000000) scale(0.100000,-0.100000)"
fill="#16364b" stroke="none">
<path d="M2101 5669 c-30 -12 -489 -466 -548 -541 -24 -32 -53 -79 -64 -104
-24 -52 -28 -138 -9 -175 89 -173 360 -174 830 -2 147 54 176 72 201 127 49
109 -11 216 -121 216 -24 0 -114 -23 -209 -54 -268 -87 -265 -96 -44 121 164
160 193 193 199 225 12 69 -20 143 -78 178 -36 21 -114 26 -157 9z"/>
<path d="M3075 5660 c-50 -24 -75 -65 -75 -120 0 -81 38 -123 155 -171 296
-122 432 -296 354 -456 -37 -77 -156 -165 -327 -243 -81 -37 -111 -70 -119
-130 -8 -55 26 -120 76 -148 66 -37 92 -32 266 55 186 93 334 213 385 313 70
137 66 336 -8 490 -63 129 -263 290 -475 382 -125 54 -170 59 -232 28z"/>
<path d="M1045 5324 c-123 -65 -281 -208 -325 -294 -91 -178 -55 -384 97 -564
77 -92 129 -128 190 -133 63 -5 111 19 140 72 43 77 29 130 -60 224 -60 64
-97 135 -97 187 0 47 50 121 112 165 135 97 161 130 161 214 1 61 -23 109 -66
135 -44 27 -93 25 -152 -6z"/>
<path d="M4713 4866 c-54 -25 -70 -63 -78 -189 -6 -102 -4 -119 18 -189 55
-172 161 -275 303 -293 107 -15 224 47 279 146 26 47 30 64 30 129 -1 92 -22
137 -93 201 -63 56 -134 99 -260 155 -116 52 -155 60 -199 40z"/>
<path d="M2809 4837 c-19 -8 -63 -30 -97 -51 -138 -83 -222 -192 -243 -315
-35 -199 140 -392 371 -408 80 -5 122 16 150 80 25 54 25 81 -1 133 -21 44
-81 84 -125 84 -30 0 -84 38 -84 58 0 29 65 98 131 137 69 42 92 80 93 148 0
99 -100 168 -195 134z"/>
<path d="M1824 4355 c-94 -20 -170 -61 -246 -133 -82 -78 -108 -123 -108 -189
0 -66 34 -115 95 -138 68 -26 117 -9 190 65 91 94 173 121 258 85 74 -31 152
-9 195 55 32 48 28 137 -9 176 -34 36 -90 63 -168 80 -80 17 -127 17 -207 -1z"/>
<path d="M2545 3794 c-163 -30 -203 -54 -225 -135 -15 -54 3 -115 46 -155 48
-46 90 -50 199 -19 49 14 116 25 149 25 l58 0 -7 -37 c-18 -99 -162 -359 -284
-513 -20 -25 -71 -84 -113 -132 -43 -49 -80 -99 -84 -113 -23 -91 75 -205 177
-205 48 0 87 27 160 111 204 238 380 522 445 716 30 92 38 234 15 297 -20 56
-78 115 -141 144 -48 22 -71 26 -185 28 -85 2 -158 -2 -210 -12z"/>
<path d="M4244 3781 c-118 -19 -232 -75 -287 -141 -55 -65 -72 -109 -72 -191
0 -67 3 -81 30 -124 61 -99 165 -149 305 -148 159 1 274 82 358 251 41 82 47
103 47 156 0 76 -35 152 -81 178 -37 21 -216 32 -300 19z m24 -297 c-8 -9 -26
-14 -39 -12 l-24 5 25 11 c14 6 32 11 40 11 12 1 12 -2 -2 -15z"/>
<path d="M1220 3664 c-100 -18 -327 -105 -386 -150 -93 -69 -82 -230 19 -288
53 -30 93 -37 142 -26 44 10 53 7 38 -12 -40 -50 -187 -479 -254 -736 -57
-222 -51 -281 33 -345 60 -46 178 -61 236 -29 71 38 378 357 625 651 44 51 81
90 84 87 13 -13 -53 -400 -98 -581 -12 -44 -52 -177 -91 -295 -77 -235 -86
-291 -52 -338 40 -54 124 -77 191 -51 47 17 82 59 99 118 9 31 45 137 81 236
92 256 131 438 174 810 23 201 22 344 -3 419 -30 93 -126 149 -216 126 -103
-26 -175 -86 -385 -318 -65 -73 -121 -131 -123 -129 -2 2 21 61 51 132 157
368 174 490 85 620 -47 69 -162 114 -250 99z"/>
<path d="M3515 3316 c-101 -47 -166 -152 -193 -311 -15 -86 -15 -95 2 -139 34
-88 122 -127 220 -97 17 6 62 18 100 27 188 47 291 200 240 360 -47 150 -226
227 -369 160z"/>
<path d="M4825 2776 c-103 -33 -186 -96 -222 -168 -71 -144 -9 -329 132 -394
73 -34 145 -32 211 6 80 46 119 123 130 260 6 69 4 84 -15 120 -11 22 -21 51
-21 64 0 33 -39 86 -80 107 -40 22 -78 23 -135 5z"/>
<path d="M2868 2441 c-95 -26 -161 -54 -338 -142 -85 -42 -167 -90 -182 -106
-83 -87 -73 -226 20 -288 31 -21 52 -26 96 -26 49 0 74 8 189 65 135 66 313
134 324 123 14 -15 -83 -235 -191 -436 -38 -69 -46 -94 -46 -135 1 -106 78
-179 189 -179 111 0 143 33 264 274 148 294 204 459 194 573 -12 128 -101 242
-219 280 -68 22 -213 20 -300 -3z"/>
<path d="M4310 2379 c-55 -25 -96 -62 -120 -109 -30 -59 -34 -104 -15 -201 10
-49 15 -92 12 -95 -3 -3 -49 9 -104 27 -83 28 -113 33 -198 33 -88 1 -107 -2
-157 -26 -104 -48 -192 -167 -219 -296 -23 -113 13 -509 54 -588 22 -42 86
-101 129 -119 46 -19 128 -19 172 -1 46 19 113 82 136 125 33 66 34 130 4 358
l-7 53 69 -24 c38 -13 95 -36 128 -51 53 -25 65 -27 133 -21 153 14 245 73
307 197 48 95 60 162 53 294 -5 103 -33 268 -55 326 -43 113 -204 172 -322
118z"/>
<path d="M2098 1866 c-53 -19 -82 -40 -113 -80 -40 -52 -43 -95 -11 -161 26
-52 55 -79 131 -121 15 -8 29 -46 57 -152 l37 -142 -33 -50 c-42 -64 -59 -144
-47 -226 15 -103 54 -164 215 -333 85 -88 198 -170 309 -224 215 -104 351
-104 572 2 113 54 156 92 181 157 30 78 7 142 -68 192 -35 23 -52 27 -108 27
-56 0 -79 -6 -149 -39 -70 -33 -89 -38 -132 -34 -42 4 -179 62 -179 76 0 2 12
13 26 25 89 69 81 234 -15 305 -20 15 -64 55 -99 90 -35 34 -67 62 -71 62 -17
0 -64 127 -102 276 -57 224 -96 292 -194 338 -61 30 -145 34 -207 12z"/>
</g>
</svg>
