<?xml version="1.0" standalone="no"?>
<!DOCTYPE svg PUBLIC "-//W3C//DTD SVG 20010904//EN"
 "http://www.w3.org/TR/2001/REC-SVG-20010904/DTD/svg10.dtd">
<svg version="1.0" xmlns="http://www.w3.org/2000/svg"
 width="600.000000pt" height="600.000000pt" viewBox="0 0 600.000000 600.000000"
 preserveAspectRatio="xMidYMid meet">
<metadata>
Created by potrace 1.15, written by Peter Selinger 2001-2017
</metadata>
<g transform="translate(0.000000,600.000000) scale(0.100000,-0.100000)"
fill="#16364b" stroke="none">
<path d="M2195 5440 c-71 -16 -115 -61 -150 -153 -33 -89 -33 -156 0 -213 47
-81 141 -114 322 -114 62 0 113 -3 113 -6 0 -3 -16 -40 -36 -82 -71 -152 -144
-384 -144 -456 0 -111 136 -195 223 -137 43 28 54 50 86 174 37 138 58 198
124 342 82 181 77 296 -19 391 -60 60 -127 79 -254 70 l-96 -6 0 53 c1 97 -75
159 -169 137z"/>
<path d="M3574 5409 c-130 -30 -145 -204 -24 -286 28 -20 44 -22 112 -20 69 2
81 -1 94 -17 32 -44 11 -197 -43 -314 -63 -137 -8 -252 119 -252 87 0 131 53
181 220 40 132 50 202 45 303 -6 120 -43 203 -120 272 -64 57 -90 71 -170 90
-70 16 -132 18 -194 4z"/>
<path d="M1705 4845 c-202 -32 -406 -98 -455 -147 -96 -95 -27 -258 110 -258
41 0 49 -7 29 -27 -6 -6 -10 -36 -10 -67 0 -102 56 -157 176 -171 121 -14 325
-55 444 -90 141 -40 160 -42 218 -16 90 42 99 166 17 243 -66 61 -246 117
-517 158 -81 13 -144 26 -140 30 23 22 188 50 291 50 97 0 113 3 142 23 98 66
91 210 -13 261 -51 24 -177 29 -292 11z"/>
<path d="M4289 4411 c-47 -15 -78 -42 -99 -85 -25 -52 -25 -77 -1 -124 30 -59
67 -74 200 -82 121 -8 183 -25 199 -57 27 -51 20 -168 -19 -344 -11 -50 -10
-59 7 -95 28 -58 77 -87 137 -81 96 9 127 54 157 231 22 130 25 226 10 306
-31 161 -143 281 -300 318 -62 14 -259 23 -291 13z"/>
<path d="M3180 4380 c-36 -18 -130 -61 -210 -97 -80 -36 -214 -101 -298 -145
-181 -95 -195 -110 -189 -201 3 -51 8 -62 39 -94 29 -29 45 -37 85 -40 44 -4
67 5 307 117 378 175 462 222 486 270 26 51 25 99 -2 140 -56 82 -120 97 -218
50z"/>
<path d="M2225 3859 c-111 -34 -292 -62 -450 -68 -194 -8 -230 -19 -272 -83
-47 -70 -26 -160 47 -203 32 -18 52 -20 225 -20 199 1 259 8 470 61 152 38
201 87 193 190 -5 60 -23 86 -80 115 -40 20 -85 23 -133 8z"/>
<path d="M3640 3769 c-60 -21 -182 -81 -423 -208 -167 -88 -190 -108 -203
-179 -9 -45 20 -116 58 -143 16 -12 49 -24 73 -27 45 -5 77 10 377 172 64 35
89 44 92 34 2 -7 7 -25 10 -40 23 -103 178 -151 253 -78 31 30 75 157 88 251
12 92 -27 179 -96 218 -48 27 -152 27 -229 0z"/>
<path d="M4913 3365 c-54 -27 -96 -78 -114 -136 -6 -20 -7 -77 -3 -140 5 -88
4 -112 -10 -141 -9 -19 -68 -92 -131 -162 -121 -135 -162 -195 -225 -329 -77
-164 -105 -376 -66 -495 53 -159 258 -214 387 -103 59 50 79 99 79 196 0 96
19 175 65 270 26 53 61 98 147 188 120 127 179 210 204 292 35 113 26 345 -17
445 -27 60 -54 88 -114 116 -68 32 -136 32 -202 -1z"/>
<path d="M2016 3209 c-62 -17 -113 -94 -100 -153 9 -45 49 -93 96 -117 35 -18
69 -23 216 -30 96 -4 177 -10 180 -13 2 -3 6 -22 8 -42 14 -152 210 -198 287
-67 44 76 28 211 -36 295 -39 52 -136 104 -217 117 -73 13 -397 20 -434 10z"/>
<path d="M4322 3153 c-12 -2 -60 -39 -105 -81 -173 -159 -414 -266 -680 -302
-43 -5 -91 -17 -107 -25 -89 -46 -106 -185 -29 -249 62 -53 117 -52 339 4 269
67 483 172 636 311 138 125 164 181 124 263 -31 66 -97 95 -178 79z"/>
<path d="M1315 3016 c-103 -46 -149 -197 -92 -300 30 -55 33 -69 52 -316 35
-432 119 -689 249 -757 49 -25 136 -21 189 10 94 55 119 158 63 266 -57 110
-77 209 -106 513 -35 369 -74 483 -192 568 -46 34 -109 40 -163 16z"/>
<path d="M2077 2469 c-120 -48 -269 -184 -280 -256 -13 -80 33 -158 109 -183
54 -18 97 -5 161 50 100 86 152 101 173 49 32 -77 139 -110 215 -67 55 31 88
97 81 157 -13 96 -118 223 -212 255 -66 22 -186 20 -247 -5z"/>
<path d="M3755 2166 c-44 -7 -161 -34 -260 -59 -230 -58 -313 -73 -512 -92
-89 -8 -175 -20 -190 -26 -35 -13 -71 -46 -89 -81 -16 -31 -19 -115 -4 -152
16 -43 79 -104 125 -122 42 -15 53 -15 182 0 209 25 378 53 593 97 230 47 298
51 355 20 54 -29 128 -28 172 2 72 49 88 150 40 250 -68 137 -214 195 -412
163z"/>
<path d="M2336 2010 c-52 -16 -93 -67 -121 -149 -68 -204 -48 -388 59 -543 54
-80 83 -100 149 -106 146 -12 218 121 140 258 -64 113 -78 217 -43 317 25 72
25 119 0 160 -32 54 -119 83 -184 63z"/>
<path d="M4631 1625 c-18 -8 -62 -41 -96 -73 -100 -94 -146 -110 -405 -143
-85 -11 -181 -26 -214 -35 -147 -38 -336 -133 -509 -257 -78 -56 -109 -106
-110 -180 -1 -44 -3 -48 -21 -42 -12 4 -43 9 -69 12 -44 5 -58 1 -164 -53
l-116 -59 -107 0 -107 0 -94 47 c-63 31 -126 74 -192 130 -179 152 -213 168
-306 147 -111 -25 -171 -127 -141 -239 9 -32 28 -59 73 -103 176 -171 429
-324 594 -361 90 -20 248 -20 332 -1 115 28 278 103 339 159 38 34 62 90 62
147 0 45 2 50 18 44 88 -36 131 -28 244 48 111 73 248 139 348 166 41 12 155
34 255 51 241 40 349 77 485 170 130 88 189 163 190 236 0 54 -49 135 -103
168 -58 35 -135 44 -186 21z"/>
</g>
</svg>
