<?xml version="1.0" standalone="no"?>
<!DOCTYPE svg PUBLIC "-//W3C//DTD SVG 20010904//EN"
 "http://www.w3.org/TR/2001/REC-SVG-20010904/DTD/svg10.dtd">
<svg version="1.0" xmlns="http://www.w3.org/2000/svg"
 width="600.000000pt" height="600.000000pt" viewBox="0 0 600.000000 600.000000"
 preserveAspectRatio="xMidYMid meet">
<metadata>
Created by potrace 1.15, written by Peter Selinger 2001-2017
</metadata>
<g transform="translate(0.000000,600.000000) scale(0.100000,-0.100000)"
fill="#16364b" stroke="none">
<path d="M2330 5464 c-106 -43 -186 -332 -123 -449 75 -140 212 -170 486 -106
76 18 140 31 142 29 2 -2 -32 -51 -77 -108 -105 -138 -154 -211 -277 -413
-143 -238 -151 -255 -151 -329 0 -87 27 -140 87 -169 l46 -22 161 32 c229 45
375 61 571 61 142 0 176 3 205 18 107 53 107 203 0 266 -32 19 -50 21 -210 20
-120 -1 -219 -8 -315 -23 -77 -11 -143 -21 -148 -21 -10 0 24 65 80 153 44 67
124 176 278 377 36 47 77 110 92 140 57 119 24 231 -86 293 -83 47 -155 47
-372 3 -97 -20 -186 -36 -197 -36 l-21 0 19 46 c38 86 19 164 -50 216 -26 19
-113 32 -140 22z"/>
<path d="M1708 5001 c-267 -58 -415 -138 -540 -293 -55 -68 -72 -114 -66 -180
10 -95 67 -142 187 -152 104 -8 267 -41 337 -67 55 -21 101 -59 162 -137 56
-71 153 -78 217 -14 77 77 54 196 -62 322 -60 65 -115 97 -233 135 -47 15 -89
31 -93 35 -11 10 138 68 211 82 43 9 65 21 98 52 53 51 65 98 38 152 -39 79
-110 97 -256 65z"/>
<path d="M4085 4865 c-116 -22 -221 -68 -337 -146 -72 -49 -98 -89 -98 -149 0
-85 61 -143 148 -143 34 0 55 8 101 41 88 61 179 105 233 110 44 4 47 3 54
-23 9 -37 -1 -156 -20 -230 -9 -33 -47 -123 -86 -201 -78 -158 -86 -200 -48
-250 13 -16 26 -33 30 -39 4 -5 22 -28 42 -50 34 -39 35 -40 103 -40 45 0 107
11 183 32 181 50 350 64 400 33 37 -23 4 -185 -87 -434 -62 -172 -64 -200 -16
-257 63 -75 164 -78 230 -7 19 20 79 172 135 343 88 270 55 485 -90 586 -99
69 -273 88 -474 50 -54 -10 -98 -16 -98 -14 0 3 13 42 29 88 42 118 61 220 61
327 0 111 -20 195 -61 259 -67 104 -182 144 -334 114z"/>
<path d="M2007 3924 c-124 -49 -243 -81 -381 -104 -133 -22 -167 -41 -187
-110 -21 -69 24 -162 91 -190 43 -18 220 -8 338 19 111 25 302 86 354 112 88
45 108 154 46 244 -49 74 -124 82 -261 29z"/>
<path d="M3730 3693 c-120 -23 -522 -237 -561 -299 -23 -38 -25 -104 -4 -147
24 -49 62 -72 120 -72 45 0 62 7 159 69 117 73 269 149 274 136 2 -5 -9 -37
-24 -72 -15 -34 -48 -124 -74 -198 -27 -74 -59 -164 -73 -200 -54 -144 -69
-207 -57 -249 13 -48 66 -97 114 -106 103 -20 415 98 569 216 157 119 245 239
231 313 -14 77 -80 136 -152 136 -54 0 -103 -28 -169 -95 -61 -63 -176 -155
-194 -155 -11 0 31 113 110 297 92 214 93 294 6 371 -24 21 -61 44 -83 50 -38
12 -142 14 -192 5z"/>
<path d="M2370 3344 c-175 -35 -311 -70 -339 -86 -47 -29 -71 -74 -71 -132 0
-43 4 -53 38 -86 56 -56 87 -59 245 -21 73 18 166 35 206 38 l74 6 -6 -45 c-4
-25 -18 -72 -33 -104 -45 -99 -30 -180 41 -224 153 -94 301 53 313 313 4 94 3
100 -27 162 -36 73 -83 118 -160 153 -46 21 -73 26 -156 28 -55 1 -111 0 -125
-2z"/>
<path d="M1208 3106 c-104 -28 -165 -95 -175 -190 -10 -94 50 -180 140 -201
l27 -7 0 -162 c0 -251 27 -692 45 -754 54 -180 271 -209 351 -47 24 50 26 64
21 129 -5 69 -4 73 14 69 32 -9 87 7 118 33 16 13 55 70 86 127 92 164 180
278 204 263 21 -13 23 -82 6 -254 -11 -113 -27 -218 -46 -290 -33 -130 -35
-161 -13 -209 50 -104 218 -114 276 -16 29 49 68 257 93 489 21 205 22 232 10
293 -20 92 -39 144 -74 194 -60 87 -140 130 -244 129 -56 0 -80 -6 -131 -31
-109 -54 -217 -166 -301 -316 l-34 -60 -1 80 c-1 44 -1 150 0 235 0 85 -5 182
-11 215 -24 131 -108 246 -204 278 -57 20 -92 20 -157 3z"/>
<path d="M4886 2995 c-56 -20 -105 -63 -135 -120 -22 -43 -26 -63 -26 -135 l0
-85 -45 -22 c-25 -13 -85 -42 -135 -65 -150 -71 -248 -154 -309 -263 -48 -85
-69 -178 -69 -310 1 -172 42 -275 159 -392 29 -30 54 -56 54 -58 0 -1 -11 -6
-25 -9 -14 -4 -50 -29 -80 -56 -65 -59 -66 -59 -239 -29 -169 29 -330 23 -434
-15 -162 -60 -332 -193 -455 -354 -22 -29 -53 -60 -68 -68 -16 -8 -47 -39 -70
-70 -83 -109 -171 -131 -290 -72 -88 44 -228 185 -293 297 -54 92 -104 133
-177 145 -115 18 -219 -73 -219 -192 0 -41 67 -169 136 -259 133 -174 369
-343 539 -388 77 -20 197 -19 266 1 84 25 198 88 267 149 35 30 68 55 74 55
25 0 72 48 128 129 73 107 167 199 240 236 76 39 170 44 313 16 247 -48 392
-15 528 119 50 50 68 76 78 112 17 60 7 126 -24 173 -17 25 -21 37 -12 40 6 2
30 9 51 16 88 27 166 150 150 239 -10 51 -40 107 -70 126 -34 23 -54 65 -54
113 0 76 11 86 177 168 188 91 256 148 307 257 48 101 70 208 63 315 -6 107
-27 161 -83 210 -65 57 -142 73 -218 46z"/>
<path d="M3360 2344 c-126 -15 -575 -94 -653 -115 -52 -14 -121 -82 -130 -129
-18 -85 6 -156 69 -208 68 -57 64 -57 494 26 140 28 276 52 301 56 l47 5 4
-54 c9 -103 90 -174 186 -161 91 12 148 71 177 181 44 170 -13 316 -147 376
-46 20 -70 23 -183 25 -71 1 -146 0 -165 -2z"/>
</g>
</svg>
