<?xml version="1.0" standalone="no"?>
<!DOCTYPE svg PUBLIC "-//W3C//DTD SVG 20010904//EN"
 "http://www.w3.org/TR/2001/REC-SVG-20010904/DTD/svg10.dtd">
<svg version="1.0" xmlns="http://www.w3.org/2000/svg"
 width="600.000000pt" height="600.000000pt" viewBox="0 0 600.000000 600.000000"
 preserveAspectRatio="xMidYMid meet">
<metadata>
Created by potrace 1.15, written by Peter Selinger 2001-2017
</metadata>
<g transform="translate(0.000000,600.000000) scale(0.100000,-0.100000)"
fill="#16364b" stroke="none">
<path d="M3092 5663 c-43 -21 -82 -88 -82 -140 0 -61 30 -96 195 -228 180
-143 311 -269 320 -308 13 -50 -32 -93 -252 -244 l-113 -77 -25 24 c-18 17
-40 25 -77 28 -49 4 -63 -1 -175 -57 -179 -90 -264 -177 -292 -301 -29 -130
77 -242 242 -256 48 -4 70 -1 97 13 48 25 80 76 80 127 0 43 -29 102 -55 112
-24 10 -18 20 25 39 40 18 41 18 63 -2 61 -56 123 -58 216 -7 126 70 414 267
472 324 77 76 109 143 109 232 0 151 -99 299 -319 475 -53 42 -135 112 -183
155 -48 43 -99 85 -115 93 -37 19 -90 19 -131 -2z"/>
<path d="M1862 5440 c-37 -22 -72 -75 -72 -106 0 -12 -24 -53 -53 -90 -168
-217 -228 -328 -234 -438 -3 -60 0 -78 20 -116 49 -94 161 -136 337 -127 129
7 351 51 404 80 94 53 102 178 16 250 -43 37 -88 42 -188 23 -124 -24 -222
-34 -222 -23 0 4 37 55 83 112 103 129 137 190 144 259 7 70 -9 117 -58 160
-34 32 -45 36 -92 36 -34 0 -63 -7 -85 -20z"/>
<path d="M1059 5338 c-127 -63 -231 -200 -275 -363 -25 -92 -30 -277 -10 -367
30 -135 104 -267 169 -300 104 -52 227 29 227 149 0 28 -11 58 -39 104 -67
111 -84 196 -57 294 27 101 77 160 183 214 68 34 88 54 100 101 28 104 -57
199 -178 200 -43 0 -71 -7 -120 -32z"/>
<path d="M4666 4780 c-93 -29 -142 -167 -86 -243 18 -24 21 -33 11 -46 -21
-29 -41 -80 -41 -106 0 -69 80 -159 188 -212 51 -25 68 -28 157 -28 89 0 106
3 151 27 135 71 177 206 111 352 -50 108 -136 180 -274 225 -100 33 -175 44
-217 31z"/>
<path d="M1813 4305 c-145 -32 -354 -183 -373 -267 -20 -94 35 -180 123 -195
53 -8 81 2 137 52 28 25 74 57 103 72 53 27 92 31 228 24 78 -4 141 43 155
115 8 46 -19 116 -57 148 -61 52 -209 76 -316 51z"/>
<path d="M2560 3784 c-14 -3 -68 -18 -122 -35 -107 -32 -139 -59 -158 -129
-25 -94 41 -190 130 -190 19 0 75 11 125 25 52 14 117 25 152 25 75 0 77 -6
37 -106 -48 -122 -156 -296 -366 -597 -55 -78 -62 -93 -65 -145 -6 -87 38
-145 121 -159 86 -14 136 27 307 253 95 125 152 228 232 419 109 258 126 370
73 479 -31 64 -69 99 -146 135 -48 23 -69 26 -175 27 -66 1 -131 0 -145 -2z"/>
<path d="M4138 3750 c-97 -17 -151 -41 -203 -94 -60 -60 -81 -118 -72 -197 21
-179 219 -323 397 -289 112 21 225 132 269 262 26 77 27 124 2 164 -10 17 -22
44 -25 61 -10 46 -57 85 -113 94 -60 10 -193 9 -255 -1z"/>
<path d="M1165 3611 c-58 -17 -150 -55 -288 -120 -53 -26 -72 -41 -92 -75 -58
-100 -2 -234 113 -266 48 -13 69 -12 115 4 26 10 37 10 37 2 0 -6 -25 -72 -56
-146 -118 -284 -195 -537 -224 -733 -12 -84 -5 -127 32 -179 44 -64 190 -112
266 -90 40 12 147 124 400 421 128 150 300 331 315 331 11 0 8 -15 -63 -357
-17 -78 -46 -234 -65 -345 -19 -112 -47 -256 -61 -321 -29 -129 -27 -171 9
-205 50 -47 144 -56 208 -20 40 22 79 84 79 124 0 11 25 128 56 259 70 306
141 643 159 767 36 237 3 436 -86 517 -74 68 -185 62 -286 -14 -58 -43 -244
-229 -361 -360 -77 -85 -76 -81 28 165 123 292 144 377 116 472 -45 157 -176
220 -351 169z"/>
<path d="M3545 3279 c-150 -62 -246 -201 -249 -360 -1 -57 2 -70 27 -102 15
-20 41 -44 57 -52 38 -20 107 -19 145 1 17 9 68 23 115 31 161 26 264 96 297
200 32 102 -19 218 -119 270 -73 37 -200 43 -273 12z"/>
<path d="M4756 2945 c-52 -18 -100 -67 -127 -128 -45 -107 -2 -274 100 -389
57 -65 101 -90 161 -92 115 -3 176 123 125 264 -17 47 -60 100 -81 100 -22 0
-25 19 -9 44 23 35 22 112 -2 144 -45 60 -104 80 -167 57z"/>
<path d="M2930 2535 c-119 -25 -345 -110 -493 -187 -97 -51 -127 -94 -127
-182 0 -67 15 -101 64 -144 43 -37 103 -55 154 -46 20 4 89 31 152 59 152 69
300 128 307 121 8 -7 -35 -130 -75 -216 -19 -41 -64 -125 -99 -187 -57 -98
-65 -118 -65 -165 -1 -110 71 -188 181 -196 85 -6 140 21 184 90 65 102 169
354 234 563 31 99 36 249 11 305 -76 164 -221 227 -428 185z"/>
<path d="M4417 2346 c-59 -22 -103 -61 -131 -118 -28 -56 -32 -111 -17 -218 5
-30 8 -56 7 -57 -2 -2 -56 15 -121 37 -244 83 -381 71 -495 -42 -87 -88 -120
-182 -120 -343 1 -138 26 -464 38 -496 71 -181 350 -167 430 21 12 29 14 70 9
228 -3 105 -4 192 -1 192 3 0 55 -20 115 -45 119 -49 172 -55 280 -35 132 25
255 122 300 238 46 118 32 446 -23 545 -35 63 -93 98 -169 103 -40 3 -78 -1
-102 -10z"/>
<path d="M2133 1869 c-39 -11 -91 -62 -109 -106 -20 -48 -17 -122 6 -166 11
-21 34 -93 50 -160 62 -260 131 -430 219 -534 29 -35 94 -94 144 -132 51 -38
110 -88 132 -111 88 -92 263 -194 386 -224 83 -20 223 -21 302 0 140 36 269
127 283 199 25 136 -61 238 -201 238 -48 0 -73 -6 -124 -32 -86 -44 -122 -40
-258 30 -118 61 -142 84 -168 154 -59 166 -161 281 -267 300 -21 4 -38 8 -38
10 0 1 -9 37 -20 81 -12 43 -30 119 -40 168 -49 222 -157 326 -297 285z"/>
</g>
</svg>
