<?xml version="1.0" standalone="no"?>
<!DOCTYPE svg PUBLIC "-//W3C//DTD SVG 20010904//EN"
 "http://www.w3.org/TR/2001/REC-SVG-20010904/DTD/svg10.dtd">
<svg version="1.0" xmlns="http://www.w3.org/2000/svg"
 width="600.000000pt" height="600.000000pt" viewBox="0 0 600.000000 600.000000"
 preserveAspectRatio="xMidYMid meet">
<metadata>
Created by potrace 1.15, written by Peter Selinger 2001-2017
</metadata>
<g transform="translate(0.000000,600.000000) scale(0.100000,-0.100000)"
fill="#16364b" stroke="none">
<path d="M1603 5801 c-17 -11 -37 -29 -43 -41 -16 -29 -66 -302 -80 -434 -20
-185 13 -330 91 -400 47 -43 102 -61 162 -52 71 11 126 54 204 157 86 116 122
177 207 346 74 148 82 192 46 251 -38 61 -130 80 -191 39 -27 -18 -51 -57
-114 -182 -44 -88 -93 -178 -109 -200 l-28 -40 6 80 c3 44 15 132 26 195 11
63 20 133 20 155 0 104 -115 177 -197 126z"/>
<path d="M3214 5565 c-41 -21 -64 -64 -64 -120 0 -64 18 -90 113 -160 44 -33
128 -107 186 -164 l106 -104 -40 -7 c-105 -16 -156 -119 -100 -204 38 -58 188
-114 268 -101 130 22 203 117 195 251 -4 59 -11 83 -43 140 -50 92 -200 239
-377 373 -149 112 -185 126 -244 96z"/>
<path d="M906 5469 c-120 -28 -272 -156 -329 -276 -29 -62 -32 -77 -32 -163 0
-82 4 -103 27 -152 74 -160 248 -246 344 -173 40 30 64 78 64 125 0 43 -35
107 -68 124 -49 26 -77 64 -76 105 2 49 25 89 72 122 50 35 78 41 139 28 47
-11 56 -10 99 12 38 19 50 32 61 63 44 132 -113 229 -301 185z"/>
<path d="M2980 5171 c-132 -41 -230 -167 -230 -299 0 -101 48 -170 139 -201
52 -17 145 -13 212 9 122 41 139 66 139 203 0 197 -66 299 -192 296 -24 0 -54
-4 -68 -8z"/>
<path d="M2299 4920 c-48 -14 -77 -41 -98 -90 -19 -44 -26 -50 -78 -70 -171
-62 -194 -73 -217 -101 -78 -92 -10 -229 112 -229 30 0 232 69 290 99 123 64
192 228 139 328 -26 49 -96 78 -148 63z"/>
<path d="M4744 4828 c-46 -43 -52 -74 -42 -247 16 -281 67 -391 217 -459 64
-29 165 -34 222 -10 45 19 106 72 125 109 85 166 -15 395 -240 543 -164 109
-219 121 -282 64z"/>
<path d="M2835 4116 c-109 -26 -192 -85 -226 -160 -34 -74 -18 -143 49 -217
137 -152 418 -168 698 -39 97 45 126 79 132 155 5 66 -18 118 -67 150 -50 32
-211 90 -303 109 -90 19 -212 19 -283 2z"/>
<path d="M1000 4048 c-115 -62 -121 -211 -12 -285 34 -23 61 -28 195 -39 42
-3 77 -9 77 -14 0 -21 -377 -381 -506 -483 -104 -82 -130 -115 -140 -173 -8
-56 10 -106 51 -143 65 -57 156 -51 246 15 l48 35 33 -36 c18 -20 51 -42 73
-49 30 -10 41 -20 43 -38 7 -57 36 -98 103 -147 76 -56 114 -111 129 -189 19
-101 -25 -225 -111 -313 -82 -84 -161 -109 -213 -68 -90 71 -216 -4 -216 -129
0 -72 46 -132 129 -169 151 -66 460 81 589 279 83 129 123 333 93 479 -27 128
-132 280 -249 361 l-45 31 24 18 c44 34 174 98 253 123 l78 26 42 -25 c60 -35
133 -35 176 1 53 45 63 75 55 170 -9 100 -34 158 -84 191 -42 29 -109 30 -160
4 -20 -10 -67 -26 -106 -35 -38 -9 -81 -19 -94 -23 -21 -5 -17 3 29 63 120
155 145 291 75 409 -62 106 -200 159 -450 171 -103 6 -113 4 -155 -18z"/>
<path d="M4210 3784 c-76 -20 -129 -54 -188 -119 -127 -138 -129 -328 -5 -447
60 -58 124 -82 218 -83 66 0 90 5 138 27 119 56 218 202 253 372 18 90 14 126
-21 171 -31 41 -76 62 -171 80 -94 18 -153 18 -224 -1z m80 -311 c0 -14 -34
-43 -52 -43 -25 0 -23 16 4 34 23 16 48 21 48 9z"/>
<path d="M3441 3399 c-19 -6 -57 -34 -85 -63 -57 -59 -144 -206 -153 -259 -7
-44 19 -100 61 -130 27 -19 42 -22 109 -19 94 3 135 19 182 75 52 61 78 137
79 232 1 87 -12 120 -59 151 -31 20 -90 26 -134 13z"/>
<path d="M5035 3301 c-145 -73 -243 -198 -267 -343 -37 -211 126 -361 328
-304 167 48 274 201 274 389 0 85 -20 134 -81 207 -52 62 -78 79 -131 86 -37
5 -55 0 -123 -35z"/>
<path d="M2190 2621 c-30 -9 -66 -23 -79 -31 -42 -22 -120 -101 -196 -195 -39
-49 -78 -97 -86 -105 -70 -74 -119 -134 -119 -147 0 -8 -22 -43 -49 -77 -314
-396 -371 -899 -136 -1191 173 -215 397 -327 700 -350 164 -12 330 37 493 145
286 188 439 432 552 875 70 273 73 404 15 533 -29 63 -115 156 -170 185 -96
48 -184 57 -345 32 -52 -8 -98 -15 -101 -15 -4 0 -12 21 -19 48 -45 167 -130
262 -267 297 -74 19 -125 18 -193 -4z m136 -518 c23 -51 49 -88 91 -128 105
-102 143 -110 366 -78 89 12 121 13 129 5 17 -17 22 -121 9 -199 -30 -175
-137 -437 -221 -538 -92 -112 -164 -176 -239 -213 -73 -36 -78 -37 -185 -36
-134 0 -202 20 -303 87 -87 58 -137 108 -165 166 -20 39 -23 62 -23 151 0 92
4 116 33 199 47 136 115 272 169 338 26 32 55 73 65 91 9 19 41 61 71 95 30
34 77 88 103 120 47 55 49 57 58 35 5 -13 24 -55 42 -95z"/>
<path d="M4046 2405 c-115 -41 -147 -114 -122 -277 l8 -56 -38 13 c-81 29
-151 12 -214 -54 -56 -57 -70 -101 -70 -217 1 -135 42 -299 116 -461 36 -80
69 -116 129 -144 83 -38 204 -9 259 64 23 30 33 35 86 40 129 14 216 79 247
186 20 69 13 172 -21 326 -13 61 -39 178 -56 260 -18 83 -37 168 -42 190 -14
56 -71 109 -138 129 -65 19 -93 20 -144 1z"/>
</g>
</svg>
