<?xml version="1.0" standalone="no"?>
<!DOCTYPE svg PUBLIC "-//W3C//DTD SVG 20010904//EN"
 "http://www.w3.org/TR/2001/REC-SVG-20010904/DTD/svg10.dtd">
<svg version="1.0" xmlns="http://www.w3.org/2000/svg"
 width="600.000000pt" height="600.000000pt" viewBox="0 0 600.000000 600.000000"
 preserveAspectRatio="xMidYMid meet">
<metadata>
Created by potrace 1.15, written by Peter Selinger 2001-2017
</metadata>
<g transform="translate(0.000000,600.000000) scale(0.100000,-0.100000)"
fill="#16364b" stroke="none">
<path d="M1358 5666 c-241 -115 -278 -142 -278 -205 0 -89 43 -117 164 -107
112 9 453 64 477 76 45 25 53 97 14 135 -18 19 -35 25 -67 25 -24 0 -38 4 -32
8 39 26 43 89 9 130 -43 51 -57 48 -287 -62z"/>
<path d="M2361 5404 c-30 -25 -31 -28 -31 -111 0 -120 -18 -312 -40 -421 -36
-181 -101 -277 -232 -343 -42 -21 -82 -48 -88 -58 -19 -37 -12 -81 19 -112 40
-40 77 -38 176 11 233 112 337 345 352 782 6 192 1 222 -45 258 -34 27 -75 25
-111 -6z"/>
<path d="M3529 5295 c-14 -7 -34 -32 -44 -54 -24 -53 -12 -93 54 -193 91 -136
199 -195 279 -154 68 35 74 126 17 235 -47 89 -106 145 -176 165 -64 19 -96
20 -130 1z"/>
<path d="M3020 5131 c-50 -16 -87 -41 -114 -76 -67 -87 -101 -215 -77 -288 7
-20 28 -50 47 -67 30 -26 43 -30 90 -30 38 0 69 7 104 25 113 57 155 125 155
251 0 61 -4 76 -27 110 -44 63 -118 94 -178 75z m20 -218 c0 -22 -17 -50 -25
-42 -5 6 14 59 22 59 1 0 3 -8 3 -17z"/>
<path d="M4754 4751 c-17 -10 -35 -32 -41 -47 -48 -125 1 -440 88 -573 74
-113 198 -141 288 -66 50 42 71 100 71 192 0 157 -83 315 -239 458 -24 22 -51
43 -60 47 -30 13 -76 8 -107 -11z"/>
<path d="M2690 4214 c-80 -22 -146 -69 -176 -126 -16 -31 -18 -105 -5 -141 27
-71 118 -135 224 -157 121 -25 273 27 376 128 68 67 83 113 57 176 -28 66 -43
74 -236 117 -101 22 -165 23 -240 3z"/>
<path d="M1077 4100 c-35 -28 -52 -81 -38 -122 17 -48 37 -65 115 -94 73 -27
102 -44 75 -44 -7 0 -43 14 -77 30 -84 40 -134 40 -173 1 -23 -23 -29 -38 -29
-71 0 -54 12 -75 60 -105 130 -82 319 -101 431 -44 51 25 96 89 105 145 5 36
1 54 -20 99 -15 30 -41 65 -57 79 -76 64 -263 146 -332 146 -19 0 -46 -9 -60
-20z"/>
<path d="M5220 3787 c-89 -30 -150 -68 -198 -122 -51 -58 -72 -119 -72 -206 0
-213 154 -347 354 -310 188 35 279 145 279 336 0 126 -25 190 -107 267 l-61
58 -65 -1 c-39 0 -91 -9 -130 -22z m85 -297 c6 -10 -29 -50 -44 -50 -16 0 -23
19 -16 40 7 21 49 28 60 10z"/>
<path d="M4210 3777 c-172 -49 -259 -164 -248 -326 8 -109 74 -212 163 -252
58 -27 177 -25 252 3 78 29 152 103 183 183 27 71 46 207 36 259 -9 50 -60 98
-127 119 -72 24 -201 31 -259 14z m100 -275 c0 -13 -24 -39 -42 -45 -28 -10
-33 14 -8 35 23 19 50 24 50 10z"/>
<path d="M3465 3376 c-42 -18 -91 -69 -140 -146 -96 -148 -109 -208 -54 -254
17 -14 42 -26 57 -26 68 0 175 85 231 183 63 111 66 202 8 237 -37 23 -60 24
-102 6z"/>
<path d="M1665 3089 c-187 -14 -309 -51 -413 -126 -70 -49 -198 -180 -243
-247 -136 -204 -95 -449 111 -656 61 -62 96 -86 189 -135 132 -68 212 -125
260 -185 19 -23 69 -110 112 -192 91 -174 150 -260 234 -343 102 -101 232
-155 375 -155 93 0 294 24 445 53 72 14 202 33 290 42 467 48 749 144 990 336
250 198 423 432 471 634 23 98 21 233 -5 315 -28 91 -69 151 -176 257 -72 73
-107 100 -166 128 -139 65 -262 70 -419 14 -207 -74 -323 -90 -570 -78 -236
10 -304 32 -585 189 -49 27 -124 61 -165 75 -92 30 -275 62 -435 75 -133 11
-155 11 -300 -1z m457 -414 c184 -36 207 -44 433 -156 211 -105 265 -123 410
-139 49 -6 108 -15 131 -21 29 -8 91 -7 215 0 282 19 379 38 518 104 74 35
108 36 154 8 35 -21 104 -91 131 -131 42 -64 -11 -227 -117 -356 -40 -48 -229
-199 -308 -245 -212 -123 -536 -210 -842 -225 -62 -3 -168 -15 -237 -26 -70
-11 -178 -21 -245 -22 -106 -1 -125 2 -161 21 -70 37 -111 91 -195 254 -142
279 -240 378 -507 515 -126 65 -139 75 -164 133 -18 38 -18 49 -8 87 26 91
107 149 273 195 162 45 297 46 519 4z"/>
<path d="M442 2163 c-18 -7 -42 -57 -42 -87 0 -27 13 -59 87 -213 56 -118 130
-200 219 -244 53 -26 72 -31 110 -26 89 10 139 73 130 165 -11 124 -115 233
-364 380 -50 30 -104 40 -140 25z"/>
<path d="M4924 1501 c-18 -11 -35 -25 -39 -31 -4 -7 -18 -9 -35 -5 -40 9 -96
-18 -120 -57 -25 -42 -25 -90 0 -196 36 -150 85 -212 167 -212 39 0 50 5 83
38 45 45 71 112 100 260 27 132 22 165 -29 199 -41 28 -86 29 -127 4z"/>
</g>
</svg>
