<?xml version="1.0" standalone="no"?>
<!DOCTYPE svg PUBLIC "-//W3C//DTD SVG 20010904//EN"
 "http://www.w3.org/TR/2001/REC-SVG-20010904/DTD/svg10.dtd">
<svg version="1.0" xmlns="http://www.w3.org/2000/svg"
 width="600.000000pt" height="600.000000pt" viewBox="0 0 600.000000 600.000000"
 preserveAspectRatio="xMidYMid meet">
<metadata>
Created by potrace 1.15, written by Peter Selinger 2001-2017
</metadata>
<g transform="translate(0.000000,600.000000) scale(0.100000,-0.100000)"
fill="#16364b" stroke="none">
<path d="M3122 5643 c-39 -19 -61 -49 -90 -123 -51 -130 -53 -235 -7 -338 50
-113 140 -175 307 -214 54 -13 98 -26 98 -29 0 -3 -18 -15 -39 -27 -59 -33
-491 -349 -533 -389 -27 -26 -44 -57 -62 -113 -14 -42 -26 -90 -26 -106 0 -66
80 -139 185 -169 28 -8 136 -28 240 -45 105 -17 208 -34 230 -40 67 -16 134
-12 170 10 35 22 65 73 65 112 -1 38 -35 103 -68 126 -35 26 -178 65 -311 86
-52 9 -96 17 -98 20 -6 6 240 181 342 243 44 28 112 66 150 86 130 68 185 133
185 217 0 131 -111 212 -376 276 -145 34 -183 47 -196 68 -10 16 1 64 34 140
32 75 33 116 3 163 -39 59 -133 81 -203 46z"/>
<path d="M1395 5392 c-108 -52 -258 -181 -342 -295 -146 -198 -257 -594 -196
-697 36 -61 146 -90 213 -55 36 19 67 58 75 95 6 26 11 30 40 30 19 0 89 13
156 30 149 36 219 47 219 32 0 -5 -22 -57 -49 -114 -74 -155 -94 -220 -95
-313 -1 -44 3 -96 7 -116 8 -34 7 -37 -28 -57 -93 -56 -82 -208 19 -267 72
-42 100 -36 265 59 80 46 196 109 257 139 116 58 147 86 163 144 14 51 3 90
-38 133 -66 69 -121 71 -263 6 -39 -17 -58 -22 -58 -13 0 12 28 80 108 268 87
203 60 348 -79 424 -79 42 -181 46 -354 11 -71 -15 -138 -29 -148 -32 -16 -5
-15 0 7 44 43 84 140 198 215 249 96 67 115 97 109 173 -4 53 -9 65 -39 95
-44 45 -105 55 -164 27z"/>
<path d="M4695 4493 c-11 -2 -94 -18 -185 -35 -159 -30 -166 -32 -201 -67 -66
-66 -71 -155 -11 -222 40 -45 94 -48 232 -14 60 16 113 26 116 23 6 -7 -74
-122 -206 -298 -106 -141 -110 -148 -110 -203 0 -106 118 -180 210 -132 36 19
399 514 450 614 27 55 37 145 20 195 -16 50 -66 105 -115 127 -38 18 -145 24
-200 12z"/>
<path d="M2552 3679 c-91 -11 -167 -35 -252 -80 -139 -72 -180 -121 -180 -216
0 -87 55 -143 142 -143 32 0 60 10 110 39 87 51 182 89 233 93 38 3 40 2 43
-29 7 -73 -95 -313 -249 -583 -98 -171 -112 -202 -116 -250 -4 -60 -4 -60 75
-164 53 -70 107 -100 182 -100 43 0 92 13 225 61 219 79 215 78 215 57 0 -26
-67 -188 -132 -319 -52 -104 -60 -128 -60 -177 0 -67 20 -107 72 -143 77 -53
178 -41 245 29 30 32 56 80 102 192 78 185 147 376 162 444 37 170 -33 316
-177 370 -50 19 -70 21 -167 17 -60 -3 -144 -14 -185 -25 -41 -11 -76 -19 -78
-17 -1 1 20 51 49 111 116 247 159 380 159 494 0 231 -171 371 -418 339z"/>
<path d="M3864 3669 c-41 -12 -91 -69 -99 -113 -15 -75 28 -137 178 -264 43
-37 85 -79 93 -94 35 -68 130 -96 203 -59 55 29 81 72 81 137 0 58 -26 101
-98 166 -29 26 -42 46 -42 64 0 68 -73 124 -206 159 -65 17 -66 17 -110 4z"/>
<path d="M1110 3434 c-127 -34 -336 -161 -377 -229 -12 -21 -18 -50 -18 -95 0
-54 5 -72 28 -107 52 -82 170 -113 250 -65 20 12 37 18 37 13 0 -14 -49 -229
-85 -371 -53 -208 -75 -355 -75 -498 0 -108 3 -132 21 -170 27 -54 83 -92 173
-116 124 -34 160 -11 291 186 92 137 160 230 270 368 50 63 113 147 140 185
27 39 51 72 53 75 12 15 32 -41 32 -89 0 -86 -16 -169 -75 -391 -65 -248 -82
-323 -95 -441 -27 -240 49 -401 189 -401 127 0 201 123 139 233 -20 37 -21 43
-10 126 6 49 23 131 37 183 44 164 84 351 96 451 19 166 -1 540 -37 666 -37
133 -167 188 -292 124 -49 -25 -144 -126 -213 -226 -31 -44 -100 -145 -154
-224 -55 -79 -101 -139 -102 -134 -2 6 21 109 51 229 70 281 86 368 86 468 -1
209 -143 308 -360 250z"/>
<path d="M4499 3393 c-59 -50 -73 -116 -39 -183 26 -51 43 -61 186 -115 65
-25 142 -56 171 -70 51 -23 53 -25 43 -51 -14 -37 -111 -185 -176 -267 -58
-75 -71 -111 -55 -160 18 -54 62 -89 119 -95 66 -6 111 17 160 81 233 310 287
430 251 562 -14 52 -112 149 -195 192 -88 47 -341 133 -391 133 -31 0 -50 -7
-74 -27z"/>
<path d="M3697 3200 c-118 -30 -227 -122 -287 -243 -22 -44 -40 -92 -40 -108
0 -102 108 -181 205 -149 52 17 90 53 110 105 l17 46 47 -8 c25 -4 73 -7 106
-5 139 6 230 109 196 222 -16 54 -44 85 -104 115 -60 29 -184 41 -250 25z"/>
<path d="M4629 2236 c-41 -14 -81 -43 -108 -78 -25 -31 -51 -111 -51 -155 l0
-36 -57 6 c-32 3 -129 13 -216 23 -133 15 -172 16 -240 6 -161 -23 -281 -108
-328 -231 -30 -79 -39 -154 -39 -326 0 -152 -8 -255 -19 -255 -3 0 -40 32 -81
71 -116 110 -219 189 -290 223 -58 28 -75 31 -160 31 -86 0 -101 -3 -153 -30
-83 -41 -148 -117 -209 -242 -28 -57 -52 -102 -53 -101 -2 2 -13 71 -25 153
-23 152 -66 318 -100 384 -65 127 -224 148 -313 41 -56 -67 -58 -108 -8 -275
12 -38 35 -162 51 -275 45 -313 80 -415 179 -522 68 -74 186 -135 277 -144
138 -14 226 78 221 231 -1 42 10 75 66 201 90 202 85 195 133 159 22 -16 93
-82 159 -147 145 -143 205 -178 305 -179 82 -1 111 6 183 44 57 30 147 117
147 142 0 6 22 30 49 53 26 22 55 56 64 75 19 39 37 211 37 351 l0 99 87 -7
c49 -4 110 -12 137 -17 27 -5 108 -9 181 -9 158 0 233 19 310 78 116 88 170
209 169 377 0 85 -4 108 -26 156 -50 110 -171 164 -279 125z"/>
</g>
</svg>
