<?xml version="1.0" standalone="no"?>
<!DOCTYPE svg PUBLIC "-//W3C//DTD SVG 20010904//EN"
 "http://www.w3.org/TR/2001/REC-SVG-20010904/DTD/svg10.dtd">
<svg version="1.0" xmlns="http://www.w3.org/2000/svg"
 width="600.000000pt" height="600.000000pt" viewBox="0 0 600.000000 600.000000"
 preserveAspectRatio="xMidYMid meet">
<metadata>
Created by potrace 1.15, written by Peter Selinger 2001-2017
</metadata>
<g transform="translate(0.000000,600.000000) scale(0.100000,-0.100000)"
fill="#16364b" stroke="none">
<path d="M3133 5640 c-50 -26 -74 -69 -98 -183 -23 -102 -17 -242 13 -308 44
-100 160 -173 324 -204 51 -10 97 -21 101 -25 11 -9 -22 -29 -213 -130 -269
-141 -430 -262 -445 -331 -4 -19 -16 -53 -27 -77 -49 -104 18 -222 152 -268
22 -8 125 -25 228 -39 103 -13 223 -30 268 -36 78 -12 82 -12 124 12 54 30 80
77 80 144 0 67 -26 108 -82 129 -23 9 -116 24 -206 33 -89 10 -163 23 -164 28
-2 13 129 101 257 172 332 187 413 248 435 332 42 157 -98 283 -385 347 -66
14 -133 33 -149 41 l-28 15 7 81 c13 150 12 183 -11 213 -51 69 -114 88 -181
54z"/>
<path d="M1387 5396 c-150 -55 -331 -252 -442 -481 -64 -132 -86 -219 -92
-360 -5 -118 -4 -121 22 -161 36 -54 72 -74 132 -74 90 0 153 63 153 153 0 41
3 48 18 43 55 -16 77 -15 183 12 146 38 209 48 209 33 0 -7 -21 -64 -46 -127
-73 -185 -89 -291 -58 -393 8 -29 14 -54 12 -56 -2 -1 -29 -19 -61 -39 -62
-39 -87 -78 -87 -136 0 -82 58 -141 146 -148 50 -4 60 -1 161 56 59 33 179 95
266 138 182 89 202 108 202 191 0 58 -20 93 -75 131 -46 31 -103 29 -185 -8
-37 -16 -71 -30 -76 -30 -25 0 -1 85 81 290 54 136 65 243 31 313 -25 51 -77
92 -147 113 -70 21 -258 18 -374 -6 -52 -11 -101 -20 -108 -20 -13 0 44 96 88
146 35 41 117 106 171 137 163 93 51 347 -124 283z"/>
<path d="M4642 4490 c-126 -13 -280 -47 -312 -70 -78 -56 -79 -167 -1 -233 45
-37 84 -40 214 -13 79 16 117 20 117 12 0 -19 -105 -166 -192 -270 -46 -54
-91 -110 -100 -125 -39 -57 -12 -151 54 -191 40 -24 86 -25 132 -3 72 34 350
395 440 570 50 99 41 189 -27 257 -63 62 -160 82 -325 66z"/>
<path d="M3865 3702 c-51 -24 -91 -70 -99 -116 -16 -83 32 -161 210 -343 119
-122 156 -143 223 -123 80 23 121 76 121 156 0 55 -24 98 -89 158 -24 23 -31
38 -31 68 0 82 -37 129 -140 177 -87 41 -143 47 -195 23z"/>
<path d="M2575 3650 c-135 -25 -367 -106 -415 -147 -100 -84 -26 -253 111
-253 17 0 61 13 98 29 72 32 231 81 262 81 29 0 24 -47 -17 -158 -59 -158
-145 -328 -244 -482 -81 -125 -94 -151 -98 -196 -3 -37 1 -59 14 -83 11 -18
33 -58 49 -89 43 -80 90 -115 163 -120 54 -4 67 0 167 47 110 52 283 116 291
108 8 -8 -57 -179 -122 -323 -68 -148 -76 -192 -51 -262 25 -66 100 -122 166
-122 81 0 133 49 218 208 159 297 195 396 197 547 1 95 -1 104 -32 167 -40 82
-105 142 -175 163 -64 19 -182 19 -267 0 -36 -8 -78 -18 -93 -21 l-28 -7 54
104 c136 260 187 507 130 631 -30 66 -95 132 -154 157 -57 25 -152 34 -224 21z"/>
<path d="M1103 3456 c-98 -31 -308 -182 -349 -251 -46 -80 -26 -187 46 -243
55 -43 161 -51 207 -17 39 30 40 14 6 -97 -99 -325 -145 -569 -147 -768 -1
-130 0 -136 26 -176 35 -54 77 -79 167 -99 101 -23 140 -9 207 78 26 34 89
114 140 177 83 105 168 228 329 477 33 51 63 93 67 93 27 0 21 -162 -12 -357
-12 -67 -43 -205 -71 -305 -87 -321 -77 -480 37 -591 46 -44 92 -61 147 -54
110 15 170 139 108 226 -37 51 -27 143 53 486 58 248 78 516 56 780 -9 102
-15 129 -41 183 -43 89 -88 117 -183 117 -47 -1 -82 -6 -103 -18 -69 -37 -168
-155 -318 -381 -82 -124 -151 -221 -153 -217 -2 5 22 106 52 224 96 374 107
500 53 609 -29 56 -86 107 -146 127 -44 14 -125 13 -178 -3z"/>
<path d="M4540 3399 c-62 -25 -100 -85 -100 -158 0 -79 27 -102 195 -165 144
-54 225 -97 225 -119 0 -19 -84 -158 -142 -234 -67 -88 -82 -130 -67 -186 21
-82 99 -134 174 -117 44 10 54 18 125 105 138 169 192 283 194 410 1 70 -3 88
-30 145 -57 118 -137 178 -374 277 -127 54 -156 59 -200 42z"/>
<path d="M3612 3181 c-86 -42 -159 -118 -207 -214 -44 -90 -50 -145 -19 -198
31 -52 78 -79 139 -79 67 0 112 29 144 93 20 41 26 47 45 40 11 -4 55 -8 96
-8 257 2 316 248 87 367 -32 16 -64 23 -132 25 -84 4 -94 2 -153 -26z"/>
<path d="M4599 2226 c-92 -33 -159 -116 -159 -198 0 -57 6 -56 -140 -27 -147
30 -303 30 -389 0 -123 -43 -212 -117 -257 -216 -38 -83 -52 -159 -70 -385 -9
-118 -18 -217 -20 -219 -2 -2 -32 21 -66 51 -83 72 -259 190 -341 228 -220
103 -391 31 -514 -216 -25 -52 -48 -92 -50 -91 -2 2 -7 73 -13 158 -18 278
-46 396 -107 449 -45 40 -72 50 -135 50 -151 0 -222 -119 -168 -280 11 -33 24
-112 30 -182 32 -379 37 -410 95 -536 77 -167 277 -302 447 -302 123 0 214
108 189 223 -11 47 38 288 72 352 l12 24 95 -75 c52 -41 129 -101 170 -133
216 -168 390 -181 531 -41 25 26 52 63 58 83 9 25 24 43 55 61 98 58 126 132
148 402 l12 144 49 0 c27 0 92 -9 145 -19 258 -51 403 -29 524 78 73 65 102
134 106 254 7 165 -26 273 -100 329 -63 47 -138 60 -209 34z"/>
</g>
</svg>
