<?xml version="1.0" standalone="no"?>
<!DOCTYPE svg PUBLIC "-//W3C//DTD SVG 20010904//EN"
 "http://www.w3.org/TR/2001/REC-SVG-20010904/DTD/svg10.dtd">
<svg version="1.0" xmlns="http://www.w3.org/2000/svg"
 width="600.000000pt" height="600.000000pt" viewBox="0 0 600.000000 600.000000"
 preserveAspectRatio="xMidYMid meet">
<metadata>
Created by potrace 1.15, written by Peter Selinger 2001-2017
</metadata>
<g transform="translate(0.000000,600.000000) scale(0.100000,-0.100000)"
fill="#16364b" stroke="none">
<path d="M3083 5651 c-67 -31 -90 -100 -59 -174 19 -45 173 -190 312 -293 147
-109 224 -184 224 -217 0 -42 -77 -105 -284 -231 -109 -67 -109 -67 -142 -51
-48 23 -97 18 -182 -16 -165 -65 -285 -157 -331 -252 -33 -69 -27 -159 15
-219 43 -62 120 -99 211 -101 59 -2 75 2 106 23 20 14 44 39 52 57 27 57 14
136 -29 172 -23 19 -20 27 15 41 26 11 35 10 67 -7 53 -30 96 -36 139 -22 54
18 264 140 368 214 240 171 317 311 266 476 -40 128 -129 228 -351 394 -58 43
-137 107 -177 142 -97 86 -142 99 -220 64z"/>
<path d="M1843 5410 c-34 -20 -73 -85 -73 -121 0 -12 -31 -60 -69 -108 -122
-153 -176 -255 -201 -375 -21 -105 10 -180 94 -224 47 -25 60 -27 171 -26 191
1 457 55 516 104 32 26 34 31 34 93 0 59 -3 69 -30 97 -70 73 -134 84 -300 50
-103 -21 -145 -25 -145 -12 1 4 41 61 90 127 50 66 100 140 112 165 44 89 21
190 -53 234 -37 22 -107 20 -146 -4z"/>
<path d="M1114 5351 c-207 -75 -337 -273 -351 -536 -8 -148 28 -272 115 -400
72 -104 180 -114 256 -25 40 48 36 100 -16 200 -41 79 -43 85 -42 168 1 147
53 228 199 310 60 34 73 46 89 85 17 41 18 51 7 89 -16 52 -65 100 -118 116
-54 16 -78 15 -139 -7z"/>
<path d="M4615 4749 c-17 -4 -44 -22 -60 -39 -50 -52 -45 -164 9 -209 13 -11
11 -17 -10 -48 -65 -96 2 -210 176 -296 57 -28 74 -32 145 -32 94 0 138 19
216 92 90 85 130 203 95 286 -31 75 -112 122 -347 202 -172 58 -176 58 -224
44z"/>
<path d="M1825 4305 c-89 -17 -135 -36 -211 -90 -118 -84 -195 -188 -194 -261
1 -38 39 -104 72 -124 37 -22 116 -27 151 -8 12 6 45 32 74 58 87 80 129 95
258 95 89 0 116 3 138 18 58 38 84 146 53 221 -19 46 -64 74 -143 91 -81 17
-106 17 -198 0z"/>
<path d="M2581 3769 c-75 -10 -189 -43 -244 -71 -68 -34 -96 -132 -58 -206 25
-48 47 -67 96 -82 35 -10 49 -9 103 9 87 30 180 51 225 51 47 0 48 -14 9 -126
-49 -140 -209 -411 -373 -630 -42 -56 -48 -109 -19 -169 38 -77 132 -108 210
-67 23 12 69 64 130 145 225 298 375 595 400 789 33 264 -150 400 -479 357z"/>
<path d="M4050 3734 c-75 -20 -129 -60 -163 -119 -25 -45 -27 -58 -24 -126 4
-87 27 -135 98 -207 88 -88 234 -125 349 -87 105 35 230 199 230 303 0 26 -9
62 -24 91 -13 25 -29 59 -37 75 -8 16 -25 37 -39 47 -52 38 -283 51 -390 23z"/>
<path d="M1190 3599 c-97 -11 -349 -126 -395 -180 -116 -139 36 -356 209 -299
21 7 39 10 41 8 4 -4 -81 -248 -159 -455 -93 -247 -137 -444 -117 -520 23 -84
87 -133 204 -154 102 -19 129 -4 278 149 68 70 160 172 204 226 44 55 136 167
205 250 161 195 158 216 52 -314 -71 -352 -122 -625 -128 -686 -7 -73 15 -119
72 -151 100 -58 200 5 225 142 22 122 82 386 145 638 77 310 99 458 90 612 -9
188 -51 275 -153 322 -45 21 -65 25 -110 20 -120 -12 -188 -69 -368 -307 -130
-172 -168 -217 -150 -174 59 140 152 468 161 573 19 196 -110 322 -306 300z"/>
<path d="M3595 3316 c-60 -19 -96 -40 -136 -80 -72 -72 -129 -217 -129 -328 0
-46 5 -62 26 -88 55 -65 132 -78 213 -36 25 14 77 30 115 36 229 37 340 217
233 377 -40 59 -97 98 -173 118 -69 18 -95 18 -149 1z"/>
<path d="M4730 2931 c-127 -85 -155 -248 -71 -416 83 -168 186 -228 297 -174
65 31 87 74 82 157 -5 87 -31 140 -87 170 l-42 24 23 36 c28 46 30 127 5 166
-46 70 -135 86 -207 37z"/>
<path d="M2895 2531 c-148 -39 -481 -186 -524 -232 -89 -94 -78 -220 27 -293
69 -49 120 -43 267 28 127 61 260 116 283 116 10 0 12 -7 7 -27 -14 -57 -110
-301 -152 -387 -33 -68 -43 -101 -43 -138 0 -119 100 -207 221 -196 97 10 131
57 239 327 65 163 113 321 131 425 30 176 -26 306 -156 367 -52 25 -72 29
-145 28 -49 0 -115 -8 -155 -18z"/>
<path d="M4395 2340 c-45 -14 -101 -65 -124 -113 -24 -50 -29 -111 -17 -215
l9 -73 -54 22 c-30 12 -92 35 -139 52 -187 65 -349 23 -445 -117 -61 -90 -70
-148 -56 -391 6 -115 11 -238 11 -273 0 -97 17 -150 65 -197 95 -96 261 -79
340 34 l30 43 -3 205 c-1 112 0 208 3 213 6 9 127 -31 149 -49 49 -40 258 -32
350 13 150 73 238 266 222 487 -14 203 -52 281 -163 339 -47 24 -133 34 -178
20z"/>
<path d="M2127 1876 c-48 -17 -74 -41 -98 -88 -31 -60 -34 -108 -11 -185 12
-37 26 -97 32 -133 18 -107 68 -285 111 -393 78 -199 184 -313 384 -414 409
-207 423 -212 550 -220 110 -7 185 10 301 67 116 57 164 112 164 190 0 65 -60
145 -129 172 -53 20 -132 12 -201 -21 -36 -17 -79 -31 -96 -31 -36 0 -240 97
-294 140 -27 21 -40 43 -54 87 -37 121 -120 243 -190 280 -16 8 -48 21 -70 27
l-41 12 -22 94 c-13 52 -29 123 -38 158 -33 143 -91 227 -174 257 -53 18 -74
18 -124 1z"/>
</g>
</svg>
