<?xml version="1.0" standalone="no"?>
<!DOCTYPE svg PUBLIC "-//W3C//DTD SVG 20010904//EN"
 "http://www.w3.org/TR/2001/REC-SVG-20010904/DTD/svg10.dtd">
<svg version="1.0" xmlns="http://www.w3.org/2000/svg"
 width="600.000000pt" height="600.000000pt" viewBox="0 0 600.000000 600.000000"
 preserveAspectRatio="xMidYMid meet">
<metadata>
Created by potrace 1.15, written by Peter Selinger 2001-2017
</metadata>
<g transform="translate(0.000000,600.000000) scale(0.100000,-0.100000)"
fill="#16364b" stroke="none">
<path d="M2896 5530 c-57 -18 -96 -73 -96 -137 0 -27 13 -60 45 -113 64 -106
70 -132 70 -310 0 -144 2 -157 22 -186 23 -32 86 -64 126 -64 12 0 41 9 64 19
67 31 85 78 91 232 7 195 -30 342 -117 467 -22 31 -53 65 -68 74 -36 20 -100
29 -137 18z"/>
<path d="M1962 5430 c-73 -45 -92 -133 -48 -225 30 -61 65 -99 161 -170 88
-65 108 -98 166 -281 28 -87 49 -135 70 -159 80 -91 217 -54 250 67 9 35 5 56
-31 181 -71 241 -132 340 -262 428 -42 29 -65 53 -83 90 -15 28 -40 58 -58 69
-43 27 -121 27 -165 0z"/>
<path d="M1473 4771 c-60 -5 -77 -11 -110 -37 -76 -61 -82 -154 -14 -227 l39
-41 153 -8 c203 -10 329 -25 398 -49 129 -46 175 -43 227 14 56 60 53 153 -7
221 -38 44 -147 90 -259 109 -98 18 -322 27 -427 18z"/>
<path d="M4333 4730 c-18 -10 -39 -34 -49 -51 -31 -61 -17 -112 114 -399 129
-286 158 -329 228 -350 58 -17 123 11 148 65 27 57 18 98 -73 320 -116 283
-168 385 -210 413 -43 28 -113 30 -158 2z"/>
<path d="M3191 4509 c-13 -5 -103 -90 -200 -188 -97 -97 -231 -221 -299 -275
-67 -54 -129 -110 -137 -126 -34 -66 -10 -167 49 -205 29 -19 104 -22 135 -5
60 32 274 193 339 254 86 82 272 313 289 359 17 46 15 76 -6 124 -29 64 -101
90 -170 62z"/>
<path d="M1734 4310 c-138 -31 -167 -209 -43 -271 65 -34 510 -53 644 -28 101
18 145 66 145 156 0 57 -26 104 -72 134 -29 18 -42 19 -108 13 -91 -10 -381
-11 -470 -3 -36 4 -79 3 -96 -1z"/>
<path d="M3812 4090 c-12 -5 -71 -58 -130 -118 -178 -179 -378 -315 -572 -388
-165 -63 -198 -80 -220 -116 -26 -41 -23 -116 7 -156 28 -38 92 -72 136 -72
95 0 515 215 724 372 99 74 222 200 247 253 63 131 -62 277 -192 225z"/>
<path d="M2245 3765 c-87 -15 -398 -21 -510 -10 -58 5 -76 3 -105 -13 -74 -41
-98 -149 -51 -225 47 -77 129 -92 466 -84 247 6 351 19 400 51 68 45 85 140
39 213 -49 74 -104 90 -239 68z"/>
<path d="M5035 3691 c-46 -20 -101 -79 -122 -128 -18 -43 -19 -101 -3 -180 21
-104 9 -262 -27 -358 -55 -149 -157 -296 -320 -466 -128 -133 -152 -176 -153
-262 0 -101 63 -181 164 -208 100 -27 167 3 300 135 118 118 209 232 296 371
149 239 202 393 217 628 12 198 -25 344 -106 420 -72 67 -164 85 -246 48z"/>
<path d="M1984 3139 c-69 -20 -124 -110 -110 -181 15 -82 72 -128 224 -181 76
-26 106 -30 256 -37 154 -8 175 -7 212 9 84 37 117 138 72 215 -35 60 -74 74
-229 87 -147 11 -221 28 -287 64 -52 29 -96 37 -138 24z"/>
<path d="M4428 3116 c-21 -7 -63 -36 -95 -63 -227 -196 -573 -339 -901 -372
-112 -12 -151 -33 -182 -96 -37 -76 -6 -161 73 -202 71 -36 340 5 606 93 245
82 405 171 594 331 98 84 117 112 117 177 0 36 -6 52 -31 81 -18 20 -39 40
-48 44 -32 17 -96 21 -133 7z"/>
<path d="M1454 2940 c-53 -12 -95 -50 -123 -109 -25 -55 -26 -61 -26 -261 0
-224 6 -267 71 -493 59 -210 175 -409 272 -469 52 -32 142 -32 195 1 72 44
109 130 93 215 -4 21 -28 62 -57 98 -98 121 -167 294 -196 488 -14 91 -14 124
-3 242 12 134 12 137 -10 182 -26 54 -68 89 -125 105 -44 12 -47 12 -91 1z"/>
<path d="M2127 2345 c-82 -29 -118 -94 -97 -171 16 -57 50 -85 142 -119 99
-37 203 -85 262 -123 116 -74 239 -13 240 119 0 30 -8 58 -23 82 -39 63 -183
140 -379 201 -95 30 -94 30 -145 11z"/>
<path d="M4150 2080 c-30 -10 -135 -48 -233 -84 -169 -63 -326 -113 -429 -136
-54 -11 -308 -44 -473 -60 -130 -13 -181 -34 -221 -91 -21 -30 -29 -56 -32
-100 -5 -72 8 -108 59 -153 61 -56 66 -56 404 -16 338 39 521 83 862 206 128
46 238 84 245 84 34 0 100 45 123 84 42 72 32 151 -28 215 -67 70 -163 88
-277 51z"/>
<path d="M4910 1740 c-47 -8 -81 -32 -127 -88 -158 -194 -403 -327 -738 -401
-433 -96 -436 -96 -487 -144 -64 -59 -82 -161 -41 -228 30 -47 91 -80 150 -81
49 0 367 56 528 94 169 39 427 138 550 210 99 58 183 126 270 220 97 105 130
170 122 239 -14 119 -115 198 -227 179z"/>
<path d="M2009 1454 c-60 -38 -87 -126 -60 -197 23 -60 204 -204 348 -276 193
-96 388 -129 463 -78 96 64 97 205 2 260 -19 11 -67 23 -114 28 -153 18 -280
76 -397 185 -36 33 -77 68 -91 77 -31 22 -116 22 -151 1z"/>
<path d="M2024 921 c-63 -29 -114 -110 -114 -181 0 -14 12 -49 26 -78 20 -40
38 -59 82 -86 151 -91 331 -164 487 -198 41 -9 142 -13 320 -13 281 1 364 11
454 58 116 59 122 245 11 322 -51 35 -111 42 -197 22 -112 -27 -205 -37 -327
-37 -198 0 -317 34 -503 145 -112 67 -171 79 -239 46z"/>
</g>
</svg>
