<?xml version="1.0" standalone="no"?>
<!DOCTYPE svg PUBLIC "-//W3C//DTD SVG 20010904//EN"
 "http://www.w3.org/TR/2001/REC-SVG-20010904/DTD/svg10.dtd">
<svg version="1.0" xmlns="http://www.w3.org/2000/svg"
 width="600.000000pt" height="600.000000pt" viewBox="0 0 600.000000 600.000000"
 preserveAspectRatio="xMidYMid meet">
<metadata>
Created by potrace 1.15, written by Peter Selinger 2001-2017
</metadata>
<g transform="translate(0.000000,600.000000) scale(0.100000,-0.100000)"
fill="#16364b" stroke="none">
<path d="M1535 5761 c-19 -8 -44 -38 -177 -206 -150 -191 -175 -277 -103 -345
59 -56 206 -9 484 155 170 100 200 137 166 208 -31 66 -90 73 -182 23 -35 -19
-63 -32 -63 -30 0 2 9 18 20 36 24 39 25 69 5 108 -26 50 -95 73 -150 51z"/>
<path d="M2380 5439 c-53 -21 -60 -43 -60 -189 -1 -312 -46 -499 -148 -612
-20 -22 -72 -61 -115 -86 -91 -53 -117 -81 -117 -129 0 -26 8 -43 34 -69 50
-50 83 -46 190 19 256 155 350 362 363 803 l6 200 -29 33 c-32 35 -82 48 -124
30z"/>
<path d="M3530 5312 c-45 -22 -83 -93 -74 -137 10 -51 53 -136 91 -183 104
-127 225 -154 302 -67 27 31 31 43 31 93 0 67 -32 139 -93 208 -44 50 -79 71
-152 90 -63 17 -63 17 -105 -4z"/>
<path d="M2962 5144 c-112 -56 -189 -197 -168 -309 10 -53 75 -119 131 -135
86 -24 197 3 262 62 12 11 27 43 32 70 14 65 14 186 0 229 -35 103 -145 139
-257 83z"/>
<path d="M4764 4751 c-58 -35 -64 -53 -64 -186 0 -362 187 -617 385 -526 155
71 192 284 80 461 -83 131 -255 270 -335 270 -19 0 -49 -9 -66 -19z m225 -441
c0 -10 -3 -8 -9 5 -12 27 -12 43 0 25 5 -8 9 -22 9 -30z"/>
<path d="M2652 4227 c-126 -48 -179 -191 -122 -326 44 -100 144 -161 267 -161
80 0 144 24 222 84 154 119 190 223 108 314 -13 14 -63 36 -132 58 -88 29
-130 37 -210 40 -65 2 -112 -1 -133 -9z"/>
<path d="M1084 4091 c-32 -20 -64 -74 -64 -110 0 -39 28 -90 60 -110 17 -10
59 -24 93 -31 65 -13 117 -35 117 -49 0 -9 -68 -40 -130 -60 -19 -6 -73 -15
-120 -19 -128 -13 -176 -46 -187 -129 -6 -47 26 -100 77 -125 93 -47 360 2
498 92 137 88 179 223 111 358 -47 94 -122 148 -254 182 -99 25 -161 26 -201
1z"/>
<path d="M4205 3773 c-86 -19 -127 -37 -169 -74 -76 -67 -91 -105 -91 -229 0
-89 4 -113 24 -157 29 -64 101 -134 164 -158 68 -26 179 -17 238 18 119 70
195 193 224 356 26 148 -17 198 -199 236 -72 14 -148 18 -191 8z m73 -315
c-18 -27 -58 -37 -58 -14 0 17 27 35 54 36 17 0 17 -2 4 -22z"/>
<path d="M1653 3694 c-44 -10 -80 -56 -93 -119 -44 -211 67 -396 237 -395 61
0 120 27 159 72 119 135 62 342 -115 421 -44 19 -144 30 -188 21z"/>
<path d="M5215 3656 c-131 -32 -238 -111 -296 -218 -32 -59 -34 -69 -34 -153
0 -78 4 -97 27 -141 77 -147 239 -201 390 -131 182 83 278 309 198 467 -42 84
-180 197 -230 189 -3 0 -27 -6 -55 -13z m5 -329 c0 -8 -9 -22 -19 -31 -26 -23
-39 -2 -15 25 20 22 34 25 34 6z"/>
<path d="M3445 3378 c-85 -46 -215 -244 -215 -326 0 -68 59 -111 135 -99 130
21 233 150 243 304 4 70 4 73 -26 102 -25 25 -39 31 -74 31 -24 0 -52 -6 -63
-12z"/>
<path d="M2625 3213 c-243 -29 -434 -104 -665 -260 -69 -47 -170 -108 -225
-135 -143 -72 -232 -137 -333 -243 -100 -105 -143 -173 -185 -288 -26 -71 -30
-100 -35 -218 -5 -157 9 -244 58 -347 56 -118 88 -155 299 -343 329 -294 364
-320 521 -370 236 -77 488 -37 750 118 286 169 533 373 676 558 30 38 72 93
94 120 90 112 140 246 140 372 0 190 -88 336 -402 669 -43 46 -78 89 -78 96 0
24 -68 95 -134 143 -151 107 -308 149 -481 128z m199 -435 c23 -24 84 -81 135
-127 50 -46 113 -111 139 -145 25 -33 79 -99 118 -146 84 -99 114 -155 114
-207 0 -58 -18 -87 -179 -280 -63 -76 -210 -196 -332 -272 -350 -217 -421
-246 -584 -239 -135 6 -163 24 -409 264 -228 222 -251 256 -262 376 -7 70 12
162 48 238 43 89 149 174 263 210 82 26 224 105 345 193 69 49 153 103 188
119 74 36 177 56 290 57 l82 1 44 -42z"/>
<path d="M423 2244 c-51 -25 -66 -58 -60 -123 12 -125 109 -348 200 -461 56
-70 155 -143 215 -160 60 -16 138 -12 181 10 111 56 132 174 57 325 -43 88
-148 198 -254 268 -101 67 -268 157 -289 157 -10 0 -32 -8 -50 -16z m397 -506
c0 -17 -72 56 -93 94 -15 26 -7 21 37 -25 31 -32 56 -63 56 -69z"/>
<path d="M4555 1841 c-22 -10 -46 -25 -53 -33 -11 -14 -16 -14 -49 3 -68 35
-135 20 -186 -41 -15 -17 -29 -46 -33 -66 -8 -44 20 -241 46 -326 49 -158 150
-237 273 -214 82 15 113 85 162 367 43 244 38 280 -46 313 -50 20 -65 20 -114
-3z"/>
</g>
</svg>
