<?xml version="1.0" standalone="no"?>
<!DOCTYPE svg PUBLIC "-//W3C//DTD SVG 20010904//EN"
 "http://www.w3.org/TR/2001/REC-SVG-20010904/DTD/svg10.dtd">
<svg version="1.0" xmlns="http://www.w3.org/2000/svg"
 width="600.000000pt" height="600.000000pt" viewBox="0 0 600.000000 600.000000"
 preserveAspectRatio="xMidYMid meet">
<metadata>
Created by potrace 1.15, written by Peter Selinger 2001-2017
</metadata>
<g transform="translate(0.000000,600.000000) scale(0.100000,-0.100000)"
fill="#16364b" stroke="none">
<path d="M3563 5293 c-7 -2 -20 -20 -29 -38 -15 -32 -14 -35 19 -109 36 -77
110 -167 159 -192 37 -19 92 -18 109 2 21 26 14 84 -16 144 -72 142 -172 222
-242 193z m94 -120 c27 -34 73 -107 73 -117 0 -16 -49 36 -75 80 -14 23 -25
45 -25 48 0 11 13 6 27 -11z"/>
<path d="M3024 5091 c-108 -49 -182 -187 -155 -289 33 -120 167 -105 266 30
79 107 92 204 33 253 -36 30 -86 32 -144 6z m92 -76 c15 -39 -62 -162 -124
-198 -30 -17 -31 -17 -37 4 -17 54 37 163 96 192 42 21 58 21 65 2z"/>
<path d="M4758 4725 c-15 -9 -31 -28 -35 -43 -14 -50 -9 -422 6 -497 23 -112
89 -158 146 -101 34 34 38 72 32 289 -6 205 -21 306 -53 337 -27 27 -64 32
-96 15z"/>
<path d="M2655 4221 c-58 -25 -80 -107 -40 -151 42 -46 193 -101 352 -127 103
-16 107 -16 142 3 49 26 64 81 34 122 -27 36 -42 43 -223 101 -165 52 -233 66
-265 52z"/>
<path d="M1513 4156 c-88 -41 -141 -139 -130 -237 10 -85 48 -144 151 -238 60
-55 131 -216 170 -391 50 -221 98 -655 126 -1135 12 -204 34 -331 83 -475 45
-130 87 -200 174 -287 103 -104 247 -169 416 -189 l57 -7 0 -166 c0 -197 13
-316 47 -431 37 -123 39 -140 17 -141 -11 -1 -30 -2 -44 -3 -14 -1 -47 -3 -74
-4 -40 -2 -54 -8 -82 -36 -79 -79 -17 -176 113 -176 112 0 218 51 253 120 28
55 25 90 -16 211 -19 57 -42 136 -50 174 -16 79 -31 387 -20 429 l7 27 82 -6
c45 -3 177 -13 292 -21 116 -9 292 -16 393 -15 100 0 182 -2 182 -3 0 -2 -7
-23 -15 -46 -8 -24 -15 -77 -15 -120 0 -66 4 -86 31 -140 26 -50 47 -74 110
-123 42 -34 75 -65 73 -69 -3 -5 -27 -8 -53 -8 -67 0 -109 -17 -126 -51 -19
-35 -19 -53 0 -88 34 -66 170 -83 265 -33 129 67 120 204 -20 320 -133 110
-140 121 -140 212 0 33 44 137 68 162 4 4 56 14 115 23 230 32 550 123 689
197 152 80 295 259 355 443 37 117 43 263 14 370 -70 253 -257 446 -462 478
-82 12 -191 -6 -309 -52 -92 -36 -195 -51 -350 -51 -392 0 -650 75 -919 268
-195 139 -299 257 -484 552 -212 339 -346 481 -669 713 -94 68 -214 85 -305
43z m185 -175 c20 -10 57 -36 82 -58 25 -21 70 -55 101 -75 109 -74 243 -225
373 -423 241 -366 274 -412 353 -496 156 -163 473 -379 649 -439 82 -29 195
-54 357 -80 116 -19 164 -22 305 -18 187 6 265 21 407 76 74 29 103 35 166 35
139 1 227 -63 299 -218 47 -100 60 -154 60 -248 0 -140 -62 -279 -175 -392
-83 -83 -144 -117 -320 -178 -141 -49 -265 -77 -445 -102 -159 -22 -636 -31
-860 -15 -96 6 -272 15 -390 20 -235 9 -273 17 -365 75 -178 113 -276 369
-291 764 -16 426 -85 978 -155 1241 -49 186 -98 274 -208 380 -75 72 -91 108
-66 146 19 30 70 32 123 5z"/>
<path d="M2420 2530 c-27 -27 -25 -56 5 -85 43 -44 94 -26 110 37 14 56 -71
92 -115 48z"/>
<path d="M2902 2189 c-25 -9 -39 -55 -25 -78 5 -8 21 -24 36 -35 24 -18 27
-18 51 -2 70 45 17 144 -62 115z"/>
<path d="M5225 3973 c-132 -53 -205 -164 -205 -309 0 -96 31 -166 104 -240 74
-73 144 -104 240 -104 106 0 162 23 231 93 77 78 110 157 109 262 0 120 -53
204 -173 275 -66 40 -68 40 -167 39 -67 0 -112 -5 -139 -16z m163 -289 c29 -8
25 -34 -8 -51 -21 -11 -27 -10 -37 4 -31 41 -11 62 45 47z"/>
<path d="M4183 3752 c-137 -49 -202 -141 -202 -287 -1 -119 58 -209 168 -258
66 -29 200 -21 263 16 125 73 176 216 134 373 -20 75 -41 100 -114 136 -82 41
-170 48 -249 20z m117 -256 c0 -30 -13 -46 -36 -46 -28 0 -30 7 -8 38 17 25
44 30 44 8z"/>
<path d="M480 1990 c-6 -12 -8 -28 -5 -38 6 -19 110 -82 228 -138 65 -30 84
-35 105 -28 30 10 42 53 20 71 -7 6 -53 31 -103 56 -217 107 -227 111 -245 77z"/>
<path d="M5345 1094 c-24 -26 -53 -99 -56 -144 -5 -60 2 -83 32 -111 72 -67
163 -11 189 118 23 108 -7 163 -91 163 -41 0 -54 -5 -74 -26z"/>
</g>
</svg>
