<?xml version="1.0" standalone="no"?>
<!DOCTYPE svg PUBLIC "-//W3C//DTD SVG 20010904//EN"
 "http://www.w3.org/TR/2001/REC-SVG-20010904/DTD/svg10.dtd">
<svg version="1.0" xmlns="http://www.w3.org/2000/svg"
 width="600.000000pt" height="600.000000pt" viewBox="0 0 600.000000 600.000000"
 preserveAspectRatio="xMidYMid meet">
<metadata>
Created by potrace 1.15, written by Peter Selinger 2001-2017
</metadata>
<g transform="translate(0.000000,600.000000) scale(0.100000,-0.100000)"
fill="#16364b" stroke="none">
<path d="M2260 5452 c-26 -13 -43 -33 -66 -81 -56 -113 -68 -223 -34 -314 32
-85 96 -135 196 -151 35 -6 213 12 298 31 39 8 37 4 -76 -176 -103 -164 -215
-378 -241 -463 -22 -69 -11 -127 33 -168 25 -24 27 -28 14 -51 -7 -13 -13 -47
-14 -75 0 -87 53 -130 152 -122 29 3 168 34 308 70 140 37 313 78 383 92 145
29 176 42 209 88 46 65 27 148 -46 202 -53 40 -188 21 -558 -80 -98 -26 -180
-45 -183 -42 -10 10 112 244 210 403 135 220 150 245 168 299 45 131 -7 262
-128 321 -70 35 -155 35 -315 1 -63 -13 -116 -23 -117 -22 -1 1 4 20 12 41 19
55 18 82 -6 131 -35 73 -126 103 -199 66z"/>
<path d="M3862 5060 c-87 -24 -191 -72 -232 -107 -78 -65 -57 -200 36 -239 50
-21 69 -18 166 27 59 27 104 41 136 42 l47 2 3 -42 c5 -67 -34 -207 -119 -425
-19 -52 -20 -62 -9 -102 15 -56 62 -101 121 -117 43 -11 50 -10 95 12 41 20
53 33 78 84 81 166 139 389 140 540 1 99 -2 116 -25 165 -35 75 -67 111 -131
145 -71 39 -196 45 -306 15z"/>
<path d="M1715 4950 c-142 -30 -363 -137 -498 -243 -47 -37 -77 -94 -77 -147
0 -45 31 -114 55 -123 8 -4 15 -14 15 -24 0 -31 39 -84 73 -97 17 -8 83 -19
146 -25 255 -26 341 -55 440 -146 95 -87 152 -97 222 -38 47 40 73 104 64 162
-6 40 -15 54 -71 109 -80 77 -225 151 -364 186 l-95 24 45 20 c61 26 139 42
207 42 71 0 114 26 142 84 27 54 26 81 -1 136 -37 71 -64 85 -171 87 -51 1
-110 -2 -132 -7z"/>
<path d="M4385 4205 c-165 -32 -209 -48 -241 -91 -27 -35 -41 -96 -30 -138 10
-40 55 -85 95 -96 31 -8 66 -4 187 20 151 31 288 42 313 26 26 -17 8 -139 -48
-317 -28 -92 -51 -183 -51 -203 0 -96 92 -170 182 -146 68 19 88 51 129 205
20 77 49 183 63 235 19 68 26 120 27 184 0 80 -3 95 -31 152 -37 76 -101 135
-179 165 -86 34 -248 36 -416 4z"/>
<path d="M2092 3884 c-94 -31 -213 -52 -396 -68 -107 -10 -153 -18 -178 -33
-108 -63 -103 -215 9 -268 34 -17 49 -17 170 -6 72 6 174 18 225 27 106 18
287 74 336 104 97 60 96 214 -3 256 -47 19 -77 17 -163 -12z"/>
<path d="M3674 3721 c-68 -19 -163 -67 -292 -145 -48 -29 -123 -71 -168 -95
-112 -58 -137 -86 -141 -158 -5 -70 16 -111 70 -136 65 -31 92 -24 317 88 117
58 215 104 218 101 6 -7 -40 -139 -79 -225 -42 -92 -45 -127 -17 -181 43 -84
145 -112 218 -60 33 24 59 70 116 206 57 138 74 209 81 331 7 136 -7 184 -68
236 -68 59 -144 70 -255 38z"/>
<path d="M2165 3279 c-123 -20 -151 -32 -188 -80 -61 -83 0 -218 105 -235 18
-3 88 1 155 10 130 17 229 21 236 9 3 -5 -2 -30 -10 -58 -34 -116 -27 -162 33
-215 62 -54 150 -52 214 6 53 48 82 136 81 243 -2 161 -88 271 -249 321 -81
25 -211 25 -377 -1z"/>
<path d="M4142 3092 c-145 -147 -318 -238 -499 -263 -103 -14 -146 -33 -179
-81 -53 -76 -26 -176 58 -214 86 -39 357 16 553 111 143 69 329 236 372 333
19 42 15 93 -10 136 -29 51 -77 76 -145 76 l-54 0 -96 -98z"/>
<path d="M4908 3159 c-54 -16 -121 -79 -148 -140 -19 -46 -21 -62 -15 -139 l7
-88 -74 -58 c-262 -210 -362 -343 -402 -537 -48 -233 22 -478 158 -550 65 -34
165 -31 241 8 50 26 63 39 88 85 38 73 35 142 -11 229 -24 47 -32 74 -32 114
1 99 33 140 222 281 204 152 286 313 276 545 -3 88 -7 104 -33 146 -54 86
-176 132 -277 104z"/>
<path d="M1204 3031 c-119 -55 -137 -212 -35 -304 21 -19 43 -36 50 -38 8 -3
14 -84 21 -264 5 -143 15 -303 21 -355 12 -108 48 -258 77 -323 76 -173 353
-133 378 53 5 36 0 60 -25 122 -42 103 -41 114 5 83 48 -33 109 -33 154 -2 18
12 52 53 74 91 40 67 144 186 163 186 6 0 18 -18 28 -40 10 -23 25 -44 32 -49
11 -6 9 -24 -13 -102 -24 -86 -27 -114 -31 -320 -5 -201 -3 -231 12 -263 54
-114 204 -124 275 -19 24 34 25 46 32 217 5 158 10 197 38 305 35 139 34 172
-7 222 -20 23 -27 43 -28 80 -3 67 -53 167 -112 219 -92 80 -241 92 -365 27
-101 -52 -208 -166 -273 -291 -22 -42 -43 -76 -46 -76 -10 0 -20 135 -28 385
-9 264 -17 307 -74 379 -64 81 -231 121 -323 77z"/>
<path d="M3485 2259 c-38 -5 -119 -21 -180 -35 -94 -22 -298 -64 -515 -106
-99 -19 -173 -122 -155 -217 16 -87 65 -141 146 -162 40 -10 71 -6 319 45 287
58 447 86 491 86 19 0 33 -10 50 -35 51 -74 156 -117 236 -96 49 13 97 51 118
92 22 41 19 147 -5 213 -41 107 -107 169 -218 202 -62 19 -199 25 -287 13z"/>
<path d="M4460 1574 c-19 -8 -55 -35 -80 -59 -73 -71 -98 -78 -305 -81 -198
-2 -277 -15 -390 -62 -130 -54 -365 -211 -480 -322 -33 -32 -72 -60 -86 -64
-27 -6 -58 -27 -139 -93 -62 -52 -142 -78 -206 -68 -120 18 -290 149 -388 302
-25 39 -58 81 -72 92 -123 97 -304 -3 -304 -168 0 -57 17 -98 83 -196 155
-230 374 -368 647 -405 195 -27 409 49 580 205 25 23 64 47 88 54 34 9 66 35
151 119 112 112 186 163 279 195 60 20 224 37 364 37 48 0 111 5 140 11 89 18
207 81 274 146 79 75 98 112 99 189 0 50 -5 68 -28 103 -48 72 -146 100 -227
65z"/>
</g>
</svg>
