<?xml version="1.0" standalone="no"?>
<!DOCTYPE svg PUBLIC "-//W3C//DTD SVG 20010904//EN"
 "http://www.w3.org/TR/2001/REC-SVG-20010904/DTD/svg10.dtd">
<svg version="1.0" xmlns="http://www.w3.org/2000/svg"
 width="600.000000pt" height="600.000000pt" viewBox="0 0 600.000000 600.000000"
 preserveAspectRatio="xMidYMid meet">
<metadata>
Created by potrace 1.15, written by Peter Selinger 2001-2017
</metadata>
<g transform="translate(0.000000,600.000000) scale(0.100000,-0.100000)"
fill="#16364b" stroke="none">
<path d="M2104 5231 c-101 -26 -177 -92 -226 -198 -35 -75 -38 -117 -19 -368
33 -457 34 -514 22 -866 -9 -224 -10 -452 -6 -646 4 -166 5 -321 1 -345 l-7
-44 -152 -57 c-147 -55 -461 -157 -482 -157 -6 0 -19 14 -29 31 -29 49 -54 21
-31 -35 7 -17 2 -16 -42 9 -72 38 -95 22 -48 -33 34 -40 32 -50 -12 -54 -27
-2 -39 -8 -41 -21 -4 -18 1 -20 53 -32 l30 -7 -27 -22 c-28 -22 -35 -40 -19
-50 9 -6 166 35 196 52 11 6 97 36 191 66 94 30 221 75 283 100 61 24 111 44
111 43 0 -1 2 -85 4 -187 5 -220 36 -492 71 -633 78 -310 257 -490 542 -544
l88 -16 0 -176 c1 -194 16 -292 75 -470 17 -50 28 -96 25 -102 -4 -5 -34 -9
-68 -9 -80 0 -123 -13 -159 -47 -37 -36 -39 -99 -4 -139 20 -24 32 -28 89 -32
98 -6 185 25 252 92 74 73 77 100 25 253 -61 178 -83 295 -83 448 0 155 10
190 51 181 56 -13 387 -26 662 -25 l285 1 -3 -29 c-16 -183 7 -382 68 -596 17
-60 29 -111 26 -114 -3 -3 -41 -9 -85 -13 -95 -10 -136 -29 -158 -75 -21 -43
-9 -90 30 -119 52 -39 190 -24 272 29 99 64 124 152 82 281 -52 159 -87 346
-87 468 0 67 15 166 28 177 4 4 92 14 196 24 104 9 214 23 244 31 225 59 394
308 409 604 14 265 -50 536 -168 712 -23 35 -86 107 -138 160 l-97 97 81 5
c44 3 159 11 255 18 96 6 197 13 224 14 63 2 186 59 186 86 0 10 -5 18 -10 18
-6 0 -8 11 -4 26 5 20 2 26 -14 30 -13 4 -18 12 -15 24 7 26 -12 33 -46 15
-40 -20 -49 -19 -53 8 -5 33 -30 27 -40 -9 -8 -30 -11 -32 -80 -42 -137 -20
-378 -34 -533 -31 l-154 4 -43 41 c-113 108 -256 210 -463 331 -201 117 -474
304 -556 381 -86 81 -159 174 -212 272 -78 142 -211 522 -283 810 -51 204
-121 313 -240 371 -67 33 -159 46 -220 30z m168 -180 c71 -45 103 -101 138
-241 65 -264 174 -581 271 -789 90 -192 214 -347 384 -482 113 -91 369 -260
525 -349 191 -109 302 -186 403 -279 46 -42 135 -123 198 -179 218 -197 282
-287 343 -477 44 -137 59 -369 31 -498 -31 -148 -132 -286 -238 -325 -66 -25
-80 -27 -382 -58 -331 -33 -545 -39 -865 -24 -146 7 -323 14 -395 15 -155 2
-227 16 -320 60 -122 58 -210 164 -260 315 -76 231 -112 684 -76 975 11 85 12
166 5 360 -10 292 -10 435 1 910 7 295 5 384 -10 570 -9 121 -18 263 -19 316
-1 89 1 98 27 138 51 77 155 95 239 42z"/>
<path d="M2620 2805 c-21 -26 -15 -67 14 -92 54 -46 106 -15 96 57 -6 44 -82
69 -110 35z"/>
<path d="M3116 2714 c-35 -35 -7 -96 50 -110 52 -13 87 72 46 109 -23 21 -76
22 -96 1z"/>
<path d="M2920 1826 c-17 -17 -11 -54 12 -70 26 -19 177 -22 209 -6 23 13 25
53 4 74 -12 12 -37 15 -115 13 -55 -1 -105 -6 -110 -11z"/>
<path d="M5290 3978 c-149 -23 -243 -119 -257 -261 -14 -152 71 -316 189 -367
139 -60 338 26 423 182 23 42 30 69 33 134 7 128 -36 203 -157 273 -74 43
-136 54 -231 39z m99 -304 c10 -9 -16 -39 -37 -42 -23 -3 -48 31 -36 49 6 10
61 5 73 -7z"/>
</g>
</svg>
