<?xml version="1.0" standalone="no"?>
<!DOCTYPE svg PUBLIC "-//W3C//DTD SVG 20010904//EN"
 "http://www.w3.org/TR/2001/REC-SVG-20010904/DTD/svg10.dtd">
<svg version="1.0" xmlns="http://www.w3.org/2000/svg"
 width="600.000000pt" height="600.000000pt" viewBox="0 0 600.000000 600.000000"
 preserveAspectRatio="xMidYMid meet">
<metadata>
Created by potrace 1.15, written by Peter Selinger 2001-2017
</metadata>
<g transform="translate(0.000000,600.000000) scale(0.100000,-0.100000)"
fill="#16364b" stroke="none">
<path d="M2327 5719 c-55 -13 -132 -55 -179 -97 -94 -84 -133 -182 -170 -422
-19 -129 -22 -189 -23 -535 -1 -214 -5 -412 -9 -440 -3 -27 -13 -243 -21 -480
-8 -236 -18 -458 -21 -493 l-7 -63 -64 63 c-73 72 -162 199 -212 306 l-35 72
33 34 c44 45 25 81 -21 39 -17 -15 -18 -15 -18 8 0 13 4 41 9 61 6 28 5 40 -5
48 -10 9 -19 2 -40 -29 -15 -23 -28 -41 -30 -41 -2 0 -11 18 -20 40 -11 28
-22 40 -33 38 -12 -3 -15 -13 -12 -47 l3 -45 -32 28 c-56 46 -60 18 -12 -73
23 -43 42 -85 42 -94 0 -9 29 -74 65 -145 90 -179 191 -312 326 -428 l47 -40
-10 -284 c-12 -363 -6 -702 15 -790 36 -156 109 -295 221 -426 86 -99 228
-190 361 -230 33 -10 63 -20 67 -24 4 -3 2 -50 -4 -105 -18 -171 11 -373 82
-566 17 -45 28 -84 26 -87 -3 -2 -43 -7 -89 -11 -98 -7 -131 -25 -147 -78 -15
-50 -1 -87 42 -113 64 -39 204 -20 286 40 83 60 92 128 36 260 -62 149 -78
233 -79 420 0 91 4 178 8 194 8 27 10 28 50 22 133 -21 605 -48 777 -44 l155
3 1 -150 0 -150 57 -194 c39 -133 54 -198 47 -206 -6 -7 -41 -15 -79 -18 -82
-7 -125 -26 -151 -70 -55 -90 24 -170 149 -152 114 16 214 89 239 174 20 66
14 104 -55 313 -62 188 -67 210 -67 293 0 50 5 108 12 131 l12 41 187 6 c203
7 273 19 356 64 96 53 177 168 211 300 25 99 58 510 60 743 1 200 -1 220 -22
290 -29 92 -94 223 -173 346 -32 51 -59 95 -59 97 0 3 35 17 78 32 143 50 280
136 405 254 81 77 132 148 183 257 32 70 35 79 20 89 -9 7 -16 17 -16 24 0 16
-35 14 -50 -4 -21 -25 -40 -18 -40 15 0 23 -5 30 -19 30 -13 0 -21 -9 -26 -30
-8 -36 -11 -37 -35 -7 -13 15 -22 19 -29 11 -8 -7 -6 -26 8 -67 l20 -56 -26
-38 c-84 -126 -278 -262 -459 -323 -117 -38 -133 -38 -166 4 -33 41 -203 189
-318 276 -47 35 -150 119 -230 185 -157 132 -218 175 -353 250 -214 119 -326
262 -411 525 -49 151 -74 315 -86 572 -12 256 -28 354 -74 453 -89 190 -273
288 -459 244z m164 -164 c61 -21 109 -63 143 -125 44 -81 56 -141 66 -335 13
-235 26 -354 56 -498 53 -253 164 -494 294 -640 56 -63 130 -119 268 -201 112
-67 145 -91 464 -336 306 -233 546 -512 669 -774 63 -135 74 -215 60 -440 -18
-289 -41 -534 -57 -604 -27 -123 -78 -193 -169 -233 -45 -21 -73 -23 -285 -30
-129 -4 -325 -11 -435 -15 -200 -7 -719 18 -755 36 -8 4 -51 11 -95 14 -102 9
-227 38 -296 69 -150 67 -274 211 -335 388 -61 179 -79 354 -65 635 6 109 15
312 21 449 6 138 18 342 26 455 8 113 14 277 14 365 1 88 5 219 11 290 6 72
12 328 14 570 4 384 7 458 25 578 12 75 27 157 34 182 50 165 186 248 327 200z"/>
<path d="M2590 2967 c-19 -10 -25 -20 -25 -47 0 -28 6 -39 34 -57 41 -28 42
-28 75 -2 65 51 -8 145 -84 106z"/>
<path d="M3207 2912 c-24 -27 -21 -55 9 -86 32 -31 47 -33 74 -6 22 22 27 79
8 98 -18 18 -73 14 -91 -6z"/>
<path d="M2727 2022 c-23 -25 -15 -60 16 -71 52 -20 278 -32 467 -26 107 4
203 9 213 11 25 8 40 40 28 63 -14 25 -76 31 -246 22 -134 -7 -302 -1 -410 14
-43 6 -53 4 -68 -13z"/>
</g>
</svg>
