<?xml version="1.0" standalone="no"?>
<!DOCTYPE svg PUBLIC "-//W3C//DTD SVG 20010904//EN"
 "http://www.w3.org/TR/2001/REC-SVG-20010904/DTD/svg10.dtd">
<svg version="1.0" xmlns="http://www.w3.org/2000/svg"
 width="600.000000pt" height="600.000000pt" viewBox="0 0 600.000000 600.000000"
 preserveAspectRatio="xMidYMid meet">
<metadata>
Created by potrace 1.15, written by Peter Selinger 2001-2017
</metadata>
<g transform="translate(0.000000,600.000000) scale(0.100000,-0.100000)"
fill="#16364b" stroke="none">
<path d="M3051 5640 c-53 -12 -84 -41 -118 -110 -77 -155 -104 -331 -65 -420
10 -25 31 -60 46 -77 52 -61 183 -103 324 -103 34 0 62 -3 61 -7 0 -5 -34 -32
-75 -61 -176 -126 -503 -414 -528 -465 -73 -154 72 -263 461 -347 159 -34 285
-68 376 -100 47 -16 100 -30 117 -30 79 0 143 66 143 145 0 117 -79 158 -495
255 -92 21 -175 43 -184 48 -13 7 7 27 102 104 152 121 248 191 354 258 125
80 157 108 185 164 28 55 30 74 15 128 -30 108 -149 166 -384 188 -207 20
-217 21 -223 36 -3 7 16 58 41 112 52 110 55 137 25 198 -32 67 -103 100 -178
84z"/>
<path d="M1481 5354 c-105 -48 -322 -294 -455 -514 -108 -178 -155 -381 -107
-458 25 -39 76 -72 113 -72 16 0 88 16 160 35 175 45 332 72 381 66 9 -1 -24
-68 -85 -171 -85 -143 -138 -273 -138 -336 0 -19 -7 -57 -16 -83 -12 -39 -13
-57 -4 -89 20 -76 88 -132 158 -132 52 0 502 206 563 258 111 93 55 275 -85
275 -29 0 -63 -12 -118 -42 -43 -24 -78 -41 -78 -38 0 2 23 52 50 111 70 150
90 214 90 291 0 109 -44 180 -145 233 -46 25 -59 26 -170 26 -72 -1 -149 -8
-193 -18 -99 -22 -106 -21 -91 6 60 111 244 324 328 378 63 40 85 82 79 147
-6 63 -38 109 -92 134 -55 25 -81 24 -145 -7z"/>
<path d="M4565 4501 c-33 -10 -130 -45 -216 -79 -191 -76 -214 -96 -214 -180
0 -72 27 -113 90 -138 51 -19 29 -24 258 60 53 20 97 31 97 26 0 -40 -134
-262 -304 -504 -31 -44 -58 -94 -62 -112 -8 -46 12 -99 49 -129 18 -14 53 -43
79 -65 57 -46 35 -39 292 -90 115 -23 218 -46 228 -51 17 -9 17 -12 -7 -59
-14 -27 -82 -145 -152 -262 -108 -182 -126 -219 -126 -255 0 -77 51 -125 133
-125 68 0 108 29 156 112 21 36 72 117 113 180 41 63 91 142 111 175 141 231
119 409 -62 490 -36 16 -132 42 -228 61 -91 18 -175 36 -187 39 -20 5 -17 12
52 120 179 280 263 526 226 663 -14 51 -64 110 -108 128 -44 19 -145 16 -218
-5z"/>
<path d="M3825 3675 c-5 -2 -22 -6 -37 -9 -37 -8 -86 -52 -103 -93 -22 -53
-18 -104 13 -163 38 -73 69 -94 150 -100 61 -5 67 -7 70 -28 2 -13 -7 -47 -19
-77 -22 -54 -24 -55 -63 -55 -115 -1 -257 -61 -348 -148 -96 -91 -126 -155
-107 -226 19 -72 79 -116 156 -116 52 0 89 22 145 84 63 71 107 89 229 90 84
1 100 4 131 26 45 30 68 68 68 113 0 20 8 43 21 58 12 13 33 49 48 79 22 47
25 69 26 150 0 88 -3 100 -33 163 -43 87 -137 188 -205 221 -49 23 -120 39
-142 31z"/>
<path d="M2490 3585 c-150 -28 -368 -119 -409 -171 -66 -84 -14 -214 97 -244
54 -14 88 -7 174 36 77 39 196 74 250 74 37 0 38 -1 38 -39 0 -86 -64 -236
-224 -526 -71 -128 -81 -176 -52 -233 7 -15 16 -46 19 -70 12 -92 93 -164 186
-165 31 0 108 21 228 61 182 62 223 71 223 52 0 -17 -68 -193 -100 -262 -51
-108 -38 -194 40 -261 79 -67 202 -70 267 -7 23 22 44 73 96 227 74 218 97
310 97 394 0 140 -91 274 -213 315 -67 22 -190 14 -321 -20 -54 -15 -100 -25
-102 -23 -2 2 23 64 57 138 79 174 108 261 115 352 22 259 -186 425 -466 372z"/>
<path d="M1163 3360 c-79 -19 -225 -114 -330 -215 -37 -36 -55 -63 -63 -95
-39 -144 113 -274 254 -215 28 12 36 13 36 2 0 -13 -65 -367 -102 -557 -28
-143 -30 -337 -5 -402 33 -86 106 -131 234 -144 100 -11 100 -11 324 329 331
504 349 528 349 478 0 -11 5 -23 11 -27 9 -5 10 -40 5 -123 -6 -111 -23 -221
-81 -521 -29 -149 -37 -354 -17 -424 26 -90 82 -136 167 -136 124 0 194 101
150 216 -22 59 -16 140 31 396 69 382 78 560 41 814 -17 117 -32 162 -67 207
-53 68 -171 89 -264 49 -88 -39 -245 -215 -387 -432 -40 -61 -74 -108 -76
-107 -2 2 15 103 37 223 84 448 64 606 -85 675 -41 19 -105 23 -162 9z"/>
<path d="M4750 2311 c-97 -20 -170 -89 -197 -184 -16 -55 -18 -58 -42 -53 -14
3 -93 9 -176 12 -132 6 -161 4 -238 -15 -48 -11 -122 -37 -164 -58 -193 -94
-272 -243 -273 -516 l0 -99 -47 40 c-143 118 -231 156 -344 150 -99 -6 -167
-39 -266 -131 -84 -79 -154 -180 -244 -352 l-64 -120 -7 45 c-4 25 -17 106
-28 180 -35 222 -91 392 -148 454 -73 77 -199 86 -276 18 -54 -48 -71 -158
-36 -240 28 -67 55 -173 90 -357 84 -435 136 -536 303 -587 118 -35 265 -11
324 53 11 13 60 116 107 229 127 299 215 440 267 427 13 -3 76 -50 139 -103
189 -160 272 -204 385 -204 139 0 233 63 299 199 l41 86 -1 217 -2 217 55 12
c45 10 84 9 229 -6 256 -26 361 -9 458 76 95 84 154 271 128 409 -25 136 -146
226 -272 201z"/>
</g>
</svg>
