<?xml version="1.0" standalone="no"?>
<!DOCTYPE svg PUBLIC "-//W3C//DTD SVG 20010904//EN"
 "http://www.w3.org/TR/2001/REC-SVG-20010904/DTD/svg10.dtd">
<svg version="1.0" xmlns="http://www.w3.org/2000/svg"
 width="600.000000pt" height="600.000000pt" viewBox="0 0 600.000000 600.000000"
 preserveAspectRatio="xMidYMid meet">
<metadata>
Created by potrace 1.15, written by Peter Selinger 2001-2017
</metadata>
<g transform="translate(0.000000,600.000000) scale(0.100000,-0.100000)"
fill="#16364b" stroke="none">
<path d="M1925 5791 c-39 -24 -65 -54 -100 -116 -16 -27 -78 -124 -139 -215
-60 -91 -128 -201 -150 -245 -38 -74 -41 -86 -41 -162 0 -91 13 -118 75 -160
37 -26 114 -31 171 -11 32 11 313 166 519 286 161 94 212 159 196 246 -8 43
-45 89 -86 106 -17 7 -53 11 -83 8 -46 -4 -65 -13 -138 -65 -46 -33 -97 -69
-114 -79 l-30 -19 16 25 c46 72 108 190 117 222 12 44 1 100 -26 137 -41 57
-131 77 -187 42z"/>
<path d="M3013 5688 c-79 -56 -84 -169 -11 -234 12 -12 65 -43 116 -70 147
-78 284 -191 355 -293 70 -102 105 -230 76 -283 -12 -23 -83 -57 -119 -58 -35
0 -86 -34 -111 -72 -15 -25 -19 -45 -16 -81 5 -57 30 -94 79 -122 33 -17 44
-18 111 -9 209 31 339 159 372 370 15 96 -39 264 -127 395 -106 160 -308 323
-546 443 -85 43 -133 46 -179 14z"/>
<path d="M965 5397 c-150 -49 -301 -172 -356 -291 -77 -165 -31 -345 127 -496
117 -111 193 -136 264 -87 53 35 73 70 72 122 0 57 -16 82 -90 139 -142 109
-119 233 53 285 87 25 110 41 136 94 39 75 25 161 -35 216 -31 30 -110 38
-171 18z"/>
<path d="M2815 5062 c-57 -27 -121 -97 -158 -172 -28 -57 -32 -74 -32 -150 0
-68 5 -93 22 -126 53 -100 167 -153 305 -141 160 14 227 56 236 147 4 42 0 56
-21 89 -23 34 -25 43 -16 75 21 75 -44 212 -123 262 -57 36 -155 44 -213 16z"/>
<path d="M4813 4898 c-25 -5 -59 -24 -87 -49 -59 -52 -70 -92 -63 -226 15
-267 164 -462 354 -465 82 -1 138 19 194 69 102 92 132 234 76 354 -51 106
-176 219 -322 291 -63 31 -99 37 -152 26z"/>
<path d="M1929 4724 c-66 -20 -133 -60 -168 -99 -78 -89 -37 -224 78 -255 46
-12 61 -9 139 27 62 29 74 24 91 -40 29 -118 131 -176 227 -131 73 35 93 125
54 239 -71 207 -245 314 -421 259z"/>
<path d="M2930 3984 c-147 -40 -249 -152 -258 -285 -15 -202 180 -348 498
-374 89 -8 132 10 162 66 35 66 10 176 -49 214 l-26 17 54 18 c62 21 94 53
109 110 24 88 -25 158 -142 204 -122 48 -242 58 -348 30z m235 -322 l50 -17
-53 -3 c-62 -4 -163 25 -141 39 17 11 78 3 144 -19z"/>
<path d="M1125 3941 c-138 -25 -168 -36 -208 -80 -119 -131 -32 -330 139 -319
30 1 54 0 54 -3 0 -4 -39 -53 -86 -110 -118 -144 -205 -279 -290 -449 -93
-188 -154 -354 -154 -420 0 -88 45 -150 129 -178 72 -25 157 -2 218 57 108
107 592 505 737 607 l66 46 0 -55 c0 -70 -35 -207 -95 -372 -56 -154 -78 -198
-200 -410 -128 -222 -225 -411 -225 -439 0 -97 79 -172 171 -164 97 10 143 70
332 438 186 362 297 642 328 825 15 90 5 252 -21 337 -27 89 -69 144 -133 174
-62 29 -87 30 -164 6 -54 -17 -207 -111 -322 -199 -24 -18 -46 -31 -48 -29 -3
2 24 40 59 84 78 100 156 227 179 295 29 82 25 173 -9 238 -65 124 -212 163
-457 120z"/>
<path d="M4182 3774 c-71 -19 -106 -38 -159 -87 -69 -63 -97 -126 -97 -217 0
-60 5 -86 26 -131 76 -164 264 -231 428 -153 118 57 219 178 280 336 32 85 33
113 4 170 -21 41 -71 65 -173 82 -115 19 -238 20 -309 0z m118 -293 c0 -12
-40 -41 -57 -41 -24 0 -13 28 15 38 36 14 42 14 42 3z"/>
<path d="M3425 3385 c-68 -37 -124 -121 -180 -270 -30 -79 -31 -114 -6 -163
29 -57 64 -72 168 -72 75 0 97 4 140 26 98 48 163 146 170 254 4 57 1 72 -24
119 -15 30 -45 69 -66 85 -32 26 -48 31 -105 34 -48 2 -76 -2 -97 -13z"/>
<path d="M4923 2996 c-244 -184 -341 -435 -220 -572 92 -106 243 -105 373 1
114 94 184 288 154 431 -11 50 -20 67 -70 118 -55 57 -60 60 -116 64 -58 4
-61 3 -121 -42z"/>
<path d="M3949 2557 c-24 -13 -57 -42 -73 -65 -44 -62 -45 -126 -7 -281 17
-69 29 -127 26 -129 -2 -3 -28 6 -57 19 -79 35 -167 33 -237 -6 -61 -33 -110
-89 -143 -161 -20 -43 -23 -64 -22 -169 1 -108 4 -132 38 -240 20 -66 52 -176
71 -245 36 -126 59 -172 107 -210 35 -27 102 -50 147 -50 42 0 116 31 149 63
67 62 84 173 43 277 -27 71 -27 75 7 52 43 -31 127 -55 175 -50 109 13 224 95
269 193 19 43 23 65 22 155 -1 116 -7 143 -104 460 -32 107 -64 213 -69 236
-35 136 -218 216 -342 151z"/>
<path d="M2004 2171 c-80 -37 -166 -135 -233 -268 -53 -106 -37 -203 43 -270
l35 -28 -57 -45 c-72 -57 -143 -151 -173 -227 -49 -127 -34 -401 33 -575 78
-206 275 -368 571 -471 86 -29 101 -32 227 -32 117 0 144 3 200 23 150 54 292
143 382 240 60 64 71 86 71 147 0 54 -16 94 -59 144 l-27 32 22 23 c22 24 189
332 261 482 77 162 106 290 97 434 -8 141 -62 229 -174 286 -53 26 -67 29
-158 28 -81 0 -114 -5 -175 -26 -81 -28 -286 -125 -414 -196 -43 -24 -79 -42
-81 -40 -1 2 -10 35 -19 73 -34 139 -77 208 -159 255 -63 36 -148 41 -213 11z
m996 -505 c0 -28 -93 -245 -187 -434 -92 -186 -95 -196 -91 -248 4 -41 13 -66
38 -102 l33 -46 -61 -57 c-72 -68 -166 -116 -243 -125 -189 -22 -432 107 -488
259 -24 65 -29 194 -10 260 13 47 64 104 101 113 24 5 28 1 58 -61 37 -77 87
-137 130 -155 17 -7 55 -11 89 -8 110 8 181 85 181 198 0 42 -7 66 -36 117
-20 36 -34 66 -32 68 22 21 481 234 506 235 6 0 12 -6 12 -14z"/>
</g>
</svg>
