<?xml version="1.0" standalone="no"?>
<!DOCTYPE svg PUBLIC "-//W3C//DTD SVG 20010904//EN"
 "http://www.w3.org/TR/2001/REC-SVG-20010904/DTD/svg10.dtd">
<svg version="1.0" xmlns="http://www.w3.org/2000/svg"
 width="600.000000pt" height="600.000000pt" viewBox="0 0 600.000000 600.000000"
 preserveAspectRatio="xMidYMid meet">
<metadata>
Created by potrace 1.15, written by Peter Selinger 2001-2017
</metadata>
<g transform="translate(0.000000,600.000000) scale(0.100000,-0.100000)"
fill="#16364b" stroke="none">
<path d="M2108 5448 c-56 -15 -102 -71 -118 -146 -28 -136 11 -234 115 -287
53 -27 69 -30 172 -34 105 -3 113 -5 113 -23 0 -11 -18 -119 -40 -239 -22
-121 -40 -229 -40 -240 0 -70 67 -129 145 -129 94 0 138 52 160 188 8 50 29
153 46 229 36 160 40 258 14 318 -51 119 -139 173 -300 184 l-79 6 -1 42 c-2
93 -93 156 -187 131z"/>
<path d="M3335 5438 c-146 -51 -113 -248 45 -274 69 -11 98 -30 106 -70 11
-58 -2 -163 -30 -240 -14 -39 -26 -89 -26 -110 0 -124 161 -194 250 -109 35
34 73 135 100 264 23 113 25 167 9 243 -25 118 -92 208 -191 256 -99 48 -198
63 -263 40z"/>
<path d="M1635 4800 c-127 -15 -277 -50 -312 -73 -46 -31 -63 -67 -63 -131 0
-52 3 -59 43 -100 57 -60 86 -64 217 -30 133 34 315 44 402 21 112 -29 198 19
213 120 8 49 -28 120 -73 146 -77 45 -262 65 -427 47z"/>
<path d="M4272 4480 c-66 -40 -89 -116 -56 -186 24 -51 55 -70 142 -89 160
-35 175 -59 171 -289 -3 -145 -1 -164 16 -194 29 -49 73 -72 135 -72 47 0 56
4 90 38 45 44 55 77 71 227 24 226 -7 344 -113 440 -125 112 -367 179 -456
125z"/>
<path d="M3175 4447 c-22 -13 -130 -84 -240 -158 -110 -74 -247 -161 -304
-194 -107 -61 -135 -90 -147 -153 -9 -46 20 -116 59 -144 24 -17 45 -23 82
-22 56 1 15 -23 489 282 281 180 293 192 283 278 -12 108 -127 165 -222 111z"/>
<path d="M1576 4440 c-35 -11 -73 -45 -93 -84 -32 -62 2 -168 65 -200 39 -20
582 -116 657 -116 112 0 185 138 122 231 -30 46 -74 65 -192 84 -55 9 -194 34
-308 55 -114 22 -211 40 -215 39 -4 0 -20 -5 -36 -9z"/>
<path d="M3674 3831 c-53 -19 -76 -31 -259 -139 -60 -36 -171 -94 -245 -129
-139 -67 -172 -89 -196 -135 -16 -31 -18 -105 -4 -142 15 -41 67 -68 121 -63
57 5 344 134 484 217 55 33 104 60 109 60 4 0 22 -12 39 -26 27 -23 38 -26 87
-22 103 7 155 74 155 200 0 70 -2 79 -31 115 -62 78 -156 101 -260 64z"/>
<path d="M2190 3819 c-136 -34 -290 -52 -427 -51 -120 0 -135 -1 -165 -21 -90
-61 -89 -191 2 -259 56 -41 204 -48 435 -18 198 25 328 54 364 80 40 28 64 93
56 148 -11 74 -91 144 -162 141 -15 -1 -62 -10 -103 -20z"/>
<path d="M4976 3476 c-52 -19 -86 -45 -114 -86 -40 -59 -47 -101 -34 -208 19
-159 3 -205 -140 -398 -112 -150 -183 -269 -240 -399 -97 -223 -98 -316 -4
-410 119 -120 297 -111 380 18 8 12 24 58 36 102 29 108 98 252 169 350 214
297 270 423 279 637 8 207 -34 322 -139 376 -58 29 -141 37 -193 18z"/>
<path d="M2005 3180 c-28 -11 -72 -60 -84 -93 -28 -74 -1 -161 59 -192 27 -14
236 -34 367 -35 27 0 35 -7 55 -42 44 -79 134 -111 208 -73 102 53 92 242 -19
337 -60 51 -147 75 -339 93 -181 17 -218 18 -247 5z"/>
<path d="M4323 3133 c-17 -10 -62 -44 -100 -77 -205 -176 -439 -282 -679 -306
-119 -12 -152 -25 -186 -72 -18 -25 -23 -46 -23 -90 0 -64 18 -97 76 -137 31
-21 41 -23 124 -18 110 6 304 49 403 88 241 96 568 316 602 404 14 37 12 90
-4 129 -32 77 -144 118 -213 79z"/>
<path d="M1335 2977 c-88 -50 -124 -153 -92 -260 9 -28 28 -146 42 -262 55
-439 134 -709 241 -819 116 -120 303 -26 304 152 0 41 -8 69 -39 131 -61 120
-94 270 -131 601 -22 187 -40 292 -59 343 -44 114 -170 168 -266 114z"/>
<path d="M2099 2385 c-102 -33 -190 -91 -214 -141 -51 -108 16 -216 133 -216
33 0 66 9 111 32 35 18 82 35 105 37 38 4 43 2 69 -36 68 -99 218 -87 267 22
26 57 25 93 -6 155 -76 152 -263 211 -465 147z"/>
<path d="M3890 2105 c-47 -8 -209 -39 -360 -69 -151 -30 -349 -66 -440 -81
-265 -42 -263 -42 -314 -86 -35 -31 -50 -53 -62 -95 -14 -49 -14 -59 0 -107
16 -56 40 -84 96 -112 28 -14 50 -17 120 -12 136 9 419 61 687 126 316 77 356
83 447 75 65 -6 80 -4 120 16 54 25 81 60 97 122 11 39 10 52 -5 91 -24 63
-48 92 -101 117 -58 28 -170 34 -285 15z"/>
<path d="M2220 1832 c-73 -36 -98 -113 -80 -245 22 -158 79 -267 202 -389 87
-87 126 -111 178 -111 73 0 127 48 137 121 8 63 -13 107 -83 175 -88 84 -124
156 -129 264 -5 94 -13 119 -51 155 -54 50 -114 61 -174 30z"/>
<path d="M4712 1658 c-18 -6 -69 -44 -113 -83 -122 -111 -232 -156 -511 -210
-265 -51 -376 -87 -548 -176 -106 -55 -125 -69 -160 -119 -21 -30 -25 -46 -25
-112 0 -70 2 -79 31 -115 73 -92 162 -103 299 -39 178 84 288 121 548 181 327
76 456 134 588 265 48 47 96 104 108 127 27 53 27 133 2 190 -35 76 -137 118
-219 91z"/>
<path d="M2053 1036 c-67 -32 -105 -86 -111 -160 -7 -81 10 -116 92 -194 213
-202 456 -295 771 -294 252 0 469 73 541 182 58 87 24 224 -66 270 -59 30
-118 26 -211 -15 -125 -55 -188 -68 -314 -63 -156 6 -233 41 -412 192 -135
113 -189 128 -290 82z"/>
</g>
</svg>
