<?xml version="1.0" standalone="no"?>
<!DOCTYPE svg PUBLIC "-//W3C//DTD SVG 20010904//EN"
 "http://www.w3.org/TR/2001/REC-SVG-20010904/DTD/svg10.dtd">
<svg version="1.0" xmlns="http://www.w3.org/2000/svg"
 width="600.000000pt" height="600.000000pt" viewBox="0 0 600.000000 600.000000"
 preserveAspectRatio="xMidYMid meet">
<metadata>
Created by potrace 1.15, written by Peter Selinger 2001-2017
</metadata>
<g transform="translate(0.000000,600.000000) scale(0.100000,-0.100000)"
fill="#16364b" stroke="none">
<path d="M3544 5280 c-34 -14 -50 -65 -34 -109 32 -91 123 -201 198 -240 56
-29 122 -4 122 46 0 54 -105 223 -170 274 -39 31 -85 42 -116 29z m107 -153
c9 -12 24 -35 34 -52 l19 -30 -25 22 c-27 25 -64 83 -52 83 4 0 15 -11 24 -23z"/>
<path d="M3044 5079 c-77 -22 -155 -145 -162 -255 -5 -72 13 -109 58 -119 81
-18 224 117 251 235 21 93 -56 166 -147 139z m62 -103 c14 -37 -89 -176 -132
-176 -20 0 -11 46 22 112 34 67 95 103 110 64z"/>
<path d="M4775 4749 c-36 -17 -46 -48 -52 -153 -11 -193 27 -449 73 -499 43
-47 122 -30 145 31 35 91 30 274 -13 472 -21 101 -32 128 -57 147 -19 15 -68
16 -96 2z"/>
<path d="M2651 4208 c-14 -7 -34 -28 -44 -46 -17 -29 -18 -39 -8 -72 15 -50
58 -83 153 -120 211 -82 383 -55 383 59 0 62 -28 82 -190 137 -152 51 -251 65
-294 42z"/>
<path d="M1464 4021 c-73 -19 -152 -100 -174 -180 -32 -117 24 -245 144 -325
67 -45 108 -91 146 -166 63 -124 105 -287 134 -520 28 -217 67 -542 77 -630
30 -281 105 -572 180 -696 78 -129 261 -249 454 -296 50 -13 92 -24 94 -25 2
-1 -29 -37 -68 -79 -40 -41 -81 -95 -91 -119 -42 -98 -34 -187 21 -250 37 -42
114 -68 257 -86 50 -6 92 -15 92 -20 0 -4 -30 -17 -67 -30 -80 -26 -123 -64
-123 -107 0 -44 9 -61 41 -77 112 -58 319 81 319 214 0 50 -35 108 -80 131
-21 11 -96 29 -166 41 -70 11 -136 25 -146 30 -51 27 9 130 153 260 l84 76
220 -9 c121 -5 308 -12 415 -16 166 -6 194 -9 191 -22 -20 -87 -5 -160 45
-206 19 -19 61 -41 99 -54 68 -23 75 -29 50 -50 -17 -15 -20 -72 -4 -102 6
-11 31 -29 56 -40 77 -34 178 -2 233 74 37 51 40 101 7 149 -30 45 -72 63
-202 88 -181 34 -196 61 -77 137 72 47 84 51 192 68 236 36 567 129 704 198
78 39 160 103 221 170 192 212 238 449 143 736 -77 233 -226 397 -411 453 -56
18 -86 20 -170 16 -118 -5 -180 -23 -257 -72 -90 -57 -210 -112 -295 -135
-112 -30 -355 -39 -475 -16 -388 73 -641 264 -960 726 -203 295 -334 449 -460
541 -63 47 -224 139 -328 190 -68 32 -161 45 -218 30z m111 -215 c19 -8 56
-29 81 -47 25 -17 76 -46 113 -65 142 -71 248 -178 418 -418 129 -183 183
-252 330 -423 191 -221 313 -322 486 -403 423 -196 914 -190 1232 15 118 76
131 80 230 80 78 0 97 -4 147 -28 137 -67 258 -284 258 -462 0 -172 -107 -360
-263 -459 -65 -41 -324 -133 -499 -176 -261 -64 -545 -78 -1073 -51 -126 7
-246 12 -265 13 -343 10 -491 55 -594 181 -92 112 -153 339 -171 632 -4 61
-22 211 -40 335 -19 124 -41 275 -50 335 -67 467 -144 653 -330 790 -41 30
-81 65 -89 77 -21 30 -20 65 2 77 23 14 37 13 77 -3z"/>
<path d="M2401 2491 c-29 -29 -26 -58 10 -92 37 -35 52 -36 79 -7 39 42 20
103 -36 114 -25 5 -37 1 -53 -15z"/>
<path d="M2825 2090 c-24 -27 -12 -66 28 -90 41 -25 43 -25 72 5 47 47 21 105
-47 105 -22 0 -41 -7 -53 -20z"/>
<path d="M5235 3986 c-158 -50 -228 -179 -191 -354 27 -130 102 -233 204 -280
45 -20 65 -23 130 -20 160 7 265 99 308 270 40 154 -21 287 -168 367 -52 29
-63 31 -150 30 -51 0 -111 -6 -133 -13z m142 -297 l28 -11 -29 -25 -30 -25
-18 22 c-36 45 -13 63 49 39z"/>
<path d="M4174 3729 c-74 -28 -137 -88 -175 -165 -27 -55 -32 -76 -32 -137 -1
-86 16 -129 72 -190 61 -66 126 -90 221 -85 127 7 222 75 278 197 48 103 31
266 -34 328 -74 70 -223 93 -330 52z m116 -274 c0 -14 -8 -29 -19 -35 -44 -23
-55 -2 -19 37 28 30 38 29 38 -2z"/>
<path d="M480 2006 c-23 -29 -7 -59 55 -103 66 -47 205 -119 247 -129 28 -6
68 23 68 50 0 34 -56 79 -159 127 -58 27 -114 54 -123 59 -26 15 -74 12 -88
-4z"/>
<path d="M5363 1105 c-42 -29 -80 -163 -63 -225 19 -71 101 -93 159 -44 66 56
82 212 26 267 -21 21 -93 22 -122 2z"/>
</g>
</svg>
