<?xml version="1.0" standalone="no"?>
<!DOCTYPE svg PUBLIC "-//W3C//DTD SVG 20010904//EN"
 "http://www.w3.org/TR/2001/REC-SVG-20010904/DTD/svg10.dtd">
<svg version="1.0" xmlns="http://www.w3.org/2000/svg"
 width="600.000000pt" height="600.000000pt" viewBox="0 0 600.000000 600.000000"
 preserveAspectRatio="xMidYMid meet">
<metadata>
Created by potrace 1.15, written by Peter Selinger 2001-2017
</metadata>
<g transform="translate(0.000000,600.000000) scale(0.100000,-0.100000)"
fill="#16364b" stroke="none">
<path d="M1900 5803 c-44 -17 -78 -59 -166 -204 -105 -175 -193 -352 -218
-441 -71 -247 92 -377 331 -263 94 44 151 85 277 200 55 49 139 125 187 167
94 84 116 122 106 185 -13 80 -77 133 -159 133 -50 0 -76 -15 -184 -100 -42
-34 -78 -59 -81 -57 -2 3 21 50 51 105 43 76 56 110 56 142 0 84 -57 141 -140
139 -25 0 -52 -3 -60 -6z"/>
<path d="M3017 5695 c-21 -7 -47 -21 -57 -30 -43 -39 -50 -128 -15 -182 9 -13
49 -45 88 -70 40 -26 104 -67 142 -91 109 -70 228 -166 284 -229 64 -72 131
-198 131 -248 0 -31 -4 -38 -32 -49 -18 -8 -55 -17 -81 -20 -140 -21 -180
-193 -61 -267 30 -18 49 -22 109 -21 126 3 246 61 306 149 83 120 79 254 -16
450 -114 240 -262 380 -580 551 -125 67 -163 77 -218 57z"/>
<path d="M879 5402 c-126 -34 -204 -105 -270 -246 -17 -36 -36 -95 -42 -131
-29 -167 58 -350 213 -451 59 -38 76 -44 122 -44 94 0 158 61 158 150 0 58
-25 99 -83 135 -55 35 -97 97 -97 142 0 49 33 108 72 126 18 8 60 20 93 26 98
18 149 69 149 149 0 57 -23 99 -72 132 -46 32 -149 37 -243 12z"/>
<path d="M2878 5109 c-125 -30 -228 -188 -215 -330 13 -142 120 -229 281 -229
74 0 190 24 223 45 39 26 64 75 59 115 -21 169 -47 246 -106 314 -60 68 -163
105 -242 85z"/>
<path d="M4754 4901 c-23 -10 -54 -36 -70 -57 -25 -32 -29 -48 -32 -114 -9
-185 67 -392 190 -521 87 -91 194 -114 295 -63 158 78 220 272 142 440 -46 99
-206 230 -369 301 -87 38 -101 39 -156 14z"/>
<path d="M2005 4750 c-63 -11 -162 -47 -196 -71 -59 -41 -65 -145 -13 -201 57
-59 120 -71 204 -38 28 11 55 20 59 20 10 0 27 -41 36 -87 20 -102 145 -147
232 -84 22 16 48 46 58 67 16 33 17 47 8 100 -12 68 -51 155 -94 208 -59 70
-181 106 -294 86z"/>
<path d="M2900 4026 c-190 -55 -273 -213 -196 -370 33 -67 90 -119 171 -157
91 -43 181 -59 355 -65 144 -5 157 -4 188 15 48 31 72 77 72 139 0 39 6 61 20
79 49 63 46 155 -7 206 -33 31 -189 106 -288 137 -86 27 -248 36 -315 16z"/>
<path d="M1100 3994 c-107 -19 -154 -40 -194 -84 -39 -43 -51 -87 -44 -161 9
-94 91 -162 194 -160 30 0 54 -3 52 -7 -2 -4 -74 -115 -162 -247 -247 -374
-313 -490 -360 -633 -45 -135 0 -243 117 -281 71 -24 141 2 215 79 26 26 133
112 237 191 105 79 272 207 372 286 100 78 185 138 188 133 13 -21 -17 -179
-55 -293 -67 -202 -163 -386 -394 -757 -82 -133 -96 -161 -96 -198 0 -91 49
-152 129 -160 82 -8 114 18 219 177 244 368 373 649 468 1017 35 133 45 353
20 437 -30 104 -110 166 -213 167 -94 0 -183 -47 -359 -192 -39 -32 -74 -58
-78 -58 -3 0 17 35 46 78 94 139 158 256 180 326 49 161 -12 288 -166 340 -57
20 -209 20 -316 0z"/>
<path d="M4213 3765 c-146 -40 -246 -136 -273 -262 -38 -176 112 -363 290
-363 95 0 208 57 285 142 80 89 164 300 150 375 -10 54 -59 98 -123 112 -73
15 -265 13 -329 -4z m87 -295 c0 -12 -34 -30 -57 -30 -16 1 -15 3 6 20 25 21
51 26 51 10z"/>
<path d="M3451 3388 c-66 -15 -123 -78 -183 -204 -61 -129 -68 -167 -39 -226
32 -66 77 -88 182 -88 98 0 153 21 212 78 68 66 101 198 74 293 -16 54 -65
113 -112 137 -33 16 -88 20 -134 10z"/>
<path d="M4948 3061 c-71 -45 -194 -167 -233 -231 -82 -135 -82 -279 -1 -368
68 -76 200 -90 318 -35 192 90 281 299 212 497 -16 45 -83 123 -128 149 -48
27 -114 22 -168 -12z"/>
<path d="M3914 2594 c-50 -18 -104 -68 -127 -117 -28 -59 -22 -123 28 -263 25
-70 43 -129 42 -131 -2 -1 -29 6 -60 17 -236 83 -432 -103 -388 -370 6 -35 50
-183 98 -328 81 -246 90 -267 127 -303 170 -167 447 17 367 244 -11 31 -19 57
-18 57 1 0 27 -9 57 -21 65 -25 115 -22 204 12 75 29 157 103 184 167 48 112
39 214 -43 452 -91 266 -154 439 -174 478 -49 97 -186 145 -297 106z"/>
<path d="M2043 2239 c-98 -18 -182 -85 -268 -213 -102 -154 -115 -217 -65
-317 l22 -42 -40 -41 c-112 -118 -191 -301 -192 -447 0 -70 34 -254 65 -344
75 -226 177 -331 438 -455 235 -112 417 -143 605 -104 210 43 358 151 451 328
33 62 41 129 21 181 -8 22 -4 37 30 98 51 93 189 392 223 482 37 98 67 230 67
295 -1 156 -83 297 -204 351 -132 58 -286 24 -596 -130 -64 -32 -125 -64 -137
-72 -12 -7 -24 -11 -26 -9 -2 3 -13 43 -25 89 -65 247 -204 379 -369 350z
m951 -626 c-37 -153 -144 -432 -216 -562 -43 -79 -50 -118 -34 -196 8 -39 6
-43 -39 -93 -30 -33 -70 -63 -113 -84 -63 -31 -72 -33 -177 -32 -126 0 -169
13 -288 87 -136 85 -193 164 -217 295 -24 137 22 271 129 374 l58 57 33 -100
c37 -114 72 -168 125 -193 66 -31 108 -32 170 -2 73 36 108 93 108 175 -1 51
2 58 26 72 14 9 71 42 126 74 131 76 285 155 302 155 10 0 12 -8 7 -27z"/>
</g>
</svg>
