<?xml version="1.0" standalone="no"?>
<!DOCTYPE svg PUBLIC "-//W3C//DTD SVG 20010904//EN"
 "http://www.w3.org/TR/2001/REC-SVG-20010904/DTD/svg10.dtd">
<svg version="1.0" xmlns="http://www.w3.org/2000/svg"
 width="600.000000pt" height="600.000000pt" viewBox="0 0 600.000000 600.000000"
 preserveAspectRatio="xMidYMid meet">
<metadata>
Created by potrace 1.15, written by Peter Selinger 2001-2017
</metadata>
<g transform="translate(0.000000,600.000000) scale(0.100000,-0.100000)"
fill="#16364b" stroke="none">
<path d="M2166 5440 c-49 -43 -71 -113 -71 -225 0 -81 3 -95 30 -144 63 -113
136 -142 319 -124 61 6 112 10 114 8 2 -2 -18 -45 -43 -96 -119 -236 -210
-475 -200 -526 12 -65 85 -123 155 -123 39 0 103 32 122 62 8 13 34 79 57 148
23 69 80 204 127 300 100 209 115 266 90 347 -13 40 -32 69 -65 103 -67 67
-113 80 -278 80 -90 0 -132 3 -128 10 12 20 7 98 -9 132 -24 50 -72 78 -134
78 -43 0 -57 -5 -86 -30z"/>
<path d="M3701 5290 c-132 -36 -176 -76 -176 -163 0 -63 27 -106 82 -132 38
-18 47 -17 159 16 22 7 52 9 67 5 25 -6 27 -10 27 -65 0 -65 -22 -146 -81
-294 -22 -53 -39 -109 -39 -123 0 -42 26 -90 66 -120 30 -23 48 -29 88 -29 75
0 109 29 155 129 138 300 155 475 63 639 -32 57 -103 117 -160 136 -69 22
-171 23 -251 1z"/>
<path d="M1690 4865 c-110 -19 -250 -67 -370 -127 -89 -45 -108 -59 -127 -93
-13 -22 -23 -55 -23 -73 0 -68 52 -137 112 -149 24 -5 28 -10 28 -40 0 -49 23
-97 59 -123 24 -16 60 -26 144 -37 219 -28 373 -66 479 -119 96 -48 187 -23
228 62 25 51 23 102 -8 144 -40 56 -283 153 -487 195 l-110 23 55 18 c40 13
89 18 180 19 141 2 177 14 210 68 61 100 17 213 -91 236 -65 14 -184 12 -279
-4z"/>
<path d="M3135 4336 c-60 -23 -227 -84 -370 -136 -143 -51 -272 -101 -286
-111 -59 -41 -74 -131 -31 -189 22 -30 97 -70 132 -70 14 0 79 18 145 39 135
44 607 216 636 232 82 43 76 212 -9 262 -46 26 -96 20 -217 -27z"/>
<path d="M4233 4320 c-17 -6 -45 -24 -62 -41 -27 -26 -31 -38 -31 -82 0 -62
25 -108 72 -134 27 -14 61 -18 188 -19 150 -2 205 -11 222 -37 15 -24 8 -135
-18 -273 -30 -157 -28 -196 13 -245 50 -59 131 -75 190 -39 48 29 61 56 90
191 21 101 26 152 27 279 1 150 0 157 -27 212 -42 86 -116 142 -232 175 -61
18 -385 27 -432 13z"/>
<path d="M2140 3879 c-142 -51 -343 -89 -467 -89 -114 0 -173 -47 -180 -144
-5 -62 18 -110 68 -145 33 -22 39 -23 169 -18 237 9 576 99 634 168 46 54 46
134 -1 189 -53 63 -122 75 -223 39z"/>
<path d="M3690 3744 c-141 -38 -558 -231 -602 -279 -55 -58 -55 -151 -2 -215
29 -33 89 -54 130 -44 15 4 98 45 183 91 159 86 221 116 228 110 2 -2 -6 -24
-17 -48 -35 -78 -22 -140 40 -193 24 -20 42 -26 78 -26 81 0 106 24 172 163
31 67 62 143 69 169 51 214 -66 329 -279 272z"/>
<path d="M4936 3275 c-52 -18 -106 -63 -129 -109 -21 -41 -24 -79 -12 -203 l8
-81 -135 -134 c-98 -97 -148 -156 -186 -218 -148 -241 -174 -593 -54 -719 96
-101 275 -86 353 27 25 37 26 53 17 257 -4 102 28 154 196 325 188 190 242
276 265 421 11 68 0 189 -25 278 -20 71 -90 143 -156 159 -60 15 -93 15 -142
-3z"/>
<path d="M2113 3251 c-60 -4 -89 -11 -110 -27 -89 -65 -78 -208 20 -262 26
-14 67 -18 212 -22 l180 -5 0 -65 c0 -104 49 -167 137 -177 109 -12 178 82
178 243 0 171 -115 285 -314 313 -80 11 -162 12 -303 2z"/>
<path d="M4267 3145 c-16 -8 -58 -41 -93 -74 -106 -96 -401 -232 -589 -269
-54 -11 -109 -29 -124 -39 -127 -94 -72 -283 82 -283 150 0 529 135 710 253
99 65 212 172 233 222 28 69 7 140 -56 183 -39 26 -119 30 -163 7z"/>
<path d="M1290 3015 c-94 -42 -145 -142 -121 -233 6 -21 27 -59 46 -84 l35
-45 9 -279 c10 -304 19 -357 81 -508 71 -170 135 -231 245 -231 160 0 246 150
161 284 -78 123 -103 258 -125 686 -10 188 -27 260 -79 325 -66 81 -177 118
-252 85z"/>
<path d="M2105 2526 c-83 -20 -175 -76 -250 -151 -97 -96 -135 -157 -135 -212
0 -137 160 -215 248 -120 16 18 54 58 83 90 30 33 66 65 81 73 27 14 28 13 48
-26 18 -34 59 -71 94 -83 4 -1 -8 -32 -27 -67 -20 -36 -43 -90 -52 -120 -25
-84 -30 -248 -11 -360 33 -203 80 -280 171 -280 54 0 93 18 128 59 34 40 41
93 22 161 -22 80 -30 197 -16 259 6 30 29 90 51 135 22 45 40 93 40 106 -1 56
-42 117 -104 155 -15 9 -15 13 0 52 15 37 15 48 4 89 -30 106 -129 211 -227
240 -54 17 -81 16 -148 0z"/>
<path d="M3675 2194 c-16 -3 -169 -30 -340 -60 -170 -31 -362 -65 -425 -76
-135 -23 -173 -39 -214 -91 -28 -35 -31 -46 -31 -111 0 -63 4 -78 28 -115 32
-48 91 -80 149 -81 20 0 117 13 215 30 98 16 305 50 461 76 l283 47 22 -21
c87 -79 230 -67 292 26 85 128 10 286 -166 353 -54 21 -206 33 -274 23z"/>
<path d="M4567 1616 c-16 -9 -52 -36 -80 -61 -104 -94 -175 -119 -382 -136
-276 -22 -410 -67 -625 -212 -160 -107 -230 -179 -254 -259 -4 -14 -16 -18
-53 -18 -49 0 -64 -7 -169 -78 -88 -59 -173 -74 -271 -48 -136 36 -252 113
-378 250 -96 104 -127 122 -202 113 -95 -10 -169 -96 -167 -192 1 -64 18 -96
106 -196 97 -110 228 -209 363 -274 139 -68 234 -90 380 -89 136 1 220 20 343
80 114 55 176 111 193 176 12 44 14 46 44 41 50 -8 107 14 160 62 126 115 250
185 371 210 38 7 143 21 234 29 199 19 257 34 376 92 108 53 230 159 264 230
45 92 23 196 -54 258 -32 26 -47 31 -104 34 -47 2 -76 -2 -95 -12z"/>
</g>
</svg>
