<?xml version="1.0" standalone="no"?>
<!DOCTYPE svg PUBLIC "-//W3C//DTD SVG 20010904//EN"
 "http://www.w3.org/TR/2001/REC-SVG-20010904/DTD/svg10.dtd">
<svg version="1.0" xmlns="http://www.w3.org/2000/svg"
 width="600.000000pt" height="600.000000pt" viewBox="0 0 600.000000 600.000000"
 preserveAspectRatio="xMidYMid meet">
<metadata>
Created by potrace 1.15, written by Peter Selinger 2001-2017
</metadata>
<g transform="translate(0.000000,600.000000) scale(0.100000,-0.100000)"
fill="#16364b" stroke="none">
<path d="M2365 5390 c-16 -17 -18 -44 -19 -242 -2 -248 -9 -287 -71 -415 -42
-86 -107 -148 -215 -207 -85 -47 -110 -79 -95 -123 6 -15 23 -34 38 -43 26
-14 31 -13 124 34 175 89 276 215 339 421 27 87 28 99 28 321 1 214 0 233 -18
253 -25 28 -86 29 -111 1z"/>
<path d="M3522 5295 c-34 -25 -55 -73 -49 -112 9 -55 65 -156 114 -207 60 -61
109 -86 172 -86 43 0 53 4 75 31 42 50 32 100 -41 211 -78 117 -132 161 -209
173 -28 4 -46 1 -62 -10z"/>
<path d="M2999 5117 c-108 -57 -184 -260 -134 -357 29 -56 112 -77 180 -44 93
44 152 133 163 246 12 140 -91 217 -209 155z m61 -175 c-9 -34 -56 -90 -66
-79 -9 9 19 78 42 102 32 34 38 28 24 -23z"/>
<path d="M4745 4725 c-24 -23 -25 -29 -25 -154 0 -271 46 -435 139 -498 69
-47 153 -19 200 66 30 54 39 164 21 242 -23 98 -106 242 -189 327 -35 36 -47
42 -81 42 -30 0 -47 -7 -65 -25z"/>
<path d="M2673 4231 c-58 -15 -97 -45 -121 -93 -39 -78 -14 -158 70 -218 140
-102 393 -89 515 26 38 36 43 45 43 86 0 47 -23 88 -61 108 -10 6 -81 29 -156
50 -144 42 -236 55 -290 41z"/>
<path d="M1154 4145 c-112 -47 -128 -281 -24 -355 40 -28 121 -38 175 -20 44
14 100 62 121 101 7 15 14 50 14 78 0 69 -43 125 -130 168 -80 39 -116 45
-156 28z"/>
<path d="M5234 3982 c-74 -28 -130 -69 -164 -120 -41 -62 -53 -113 -48 -204 8
-134 85 -255 197 -306 66 -30 168 -32 244 -5 111 40 203 166 216 297 15 139
-33 239 -150 311 -61 37 -69 40 -154 42 -69 3 -102 -1 -141 -15z m143 -301
c18 -9 -12 -51 -36 -51 -24 0 -47 50 -29 61 12 8 39 4 65 -10z"/>
<path d="M4206 3764 c-65 -21 -112 -52 -164 -108 -140 -152 -105 -364 75 -452
45 -22 68 -27 126 -27 199 2 327 130 333 333 4 118 -7 158 -52 198 -69 60
-222 87 -318 56z m74 -274 c0 -13 -37 -50 -49 -50 -18 0 -20 17 -5 38 15 22
54 31 54 12z"/>
<path d="M3443 3385 c-38 -16 -99 -106 -156 -228 -41 -86 -45 -112 -21 -145
24 -34 59 -44 97 -28 45 18 141 127 177 199 53 106 52 164 -3 197 -38 23 -51
24 -94 5z"/>
<path d="M975 3291 c-97 -24 -157 -56 -221 -114 -112 -102 -152 -251 -103
-382 39 -105 210 -252 352 -303 25 -9 101 -18 188 -22 154 -8 179 -15 232 -66
91 -85 161 -258 277 -679 57 -209 103 -300 199 -396 202 -201 509 -259 1347
-259 757 1 968 15 1139 72 175 58 501 212 601 284 114 81 200 202 250 349 60
181 36 521 -53 743 -63 157 -148 260 -297 357 -94 61 -179 99 -272 121 -86 19
-268 19 -363 -1 -158 -33 -349 -124 -596 -284 -180 -117 -222 -137 -317 -152
-186 -29 -316 17 -566 197 -68 49 -170 122 -225 162 -195 142 -397 247 -628
327 -169 59 -225 65 -568 64 -257 0 -317 -3 -376 -18z m772 -371 c158 -38 288
-112 581 -332 224 -169 294 -214 432 -284 208 -104 356 -140 555 -132 195 8
338 66 562 226 166 118 206 141 305 177 247 88 431 61 579 -85 39 -39 62 -72
77 -113 80 -214 36 -511 -93 -625 -58 -51 -256 -152 -375 -191 -272 -90 -516
-109 -1175 -91 -708 18 -849 34 -967 109 -71 45 -112 117 -170 300 -109 343
-132 409 -166 486 -125 279 -269 422 -475 470 -34 8 -105 15 -158 15 -105 0
-186 19 -213 49 -18 19 -17 20 10 26 16 4 34 8 39 10 6 2 136 4 290 4 246 1
290 -2 362 -19z"/>
<path d="M455 2050 c-26 -28 -25 -88 1 -109 10 -9 34 -40 52 -68 62 -96 147
-152 233 -153 66 0 99 28 99 84 0 69 -73 140 -242 234 -68 37 -116 41 -143 12z"/>
<path d="M5344 1116 c-56 -25 -98 -148 -75 -219 20 -60 89 -85 150 -54 34 17
69 91 77 163 6 54 4 63 -17 88 -29 33 -89 43 -135 22z"/>
</g>
</svg>
