<?xml version="1.0" standalone="no"?>
<!DOCTYPE svg PUBLIC "-//W3C//DTD SVG 20010904//EN"
 "http://www.w3.org/TR/2001/REC-SVG-20010904/DTD/svg10.dtd">
<svg version="1.0" xmlns="http://www.w3.org/2000/svg"
 width="600.000000pt" height="600.000000pt" viewBox="0 0 600.000000 600.000000"
 preserveAspectRatio="xMidYMid meet">
<metadata>
Created by potrace 1.15, written by Peter Selinger 2001-2017
</metadata>
<g transform="translate(0.000000,600.000000) scale(0.100000,-0.100000)"
fill="#16364b" stroke="none">
<path d="M2363 5408 c-17 -19 -21 -42 -27 -140 -12 -230 -57 -447 -113 -550
-35 -64 -103 -130 -174 -167 -86 -47 -116 -96 -93 -156 10 -25 62 -44 95 -35
102 30 268 166 326 270 76 134 122 338 130 580 l6 155 -28 33 c-34 40 -90 45
-122 10z"/>
<path d="M3524 5313 c-37 -31 -57 -82 -50 -129 9 -68 51 -150 108 -210 63 -67
112 -94 170 -94 53 0 85 21 105 67 12 30 12 41 -1 86 -15 52 -65 142 -112 204
-54 71 -176 113 -220 76z"/>
<path d="M2982 5094 c-61 -30 -96 -69 -130 -143 -92 -200 60 -342 245 -229 48
29 63 45 87 94 25 49 30 72 30 134 1 86 -13 118 -67 150 -44 27 -103 25 -165
-6z m54 -210 c-17 -25 -36 -32 -36 -13 0 7 10 28 23 48 20 33 22 34 25 13 2
-13 -4 -34 -12 -48z"/>
<path d="M4791 4767 c-13 -6 -34 -25 -45 -40 -19 -26 -21 -44 -24 -189 -4
-178 7 -267 42 -343 52 -114 154 -161 252 -116 53 24 81 64 101 145 14 60 14
73 0 152 -20 108 -66 206 -141 302 -77 97 -125 120 -185 89z"/>
<path d="M2675 4231 c-59 -15 -93 -40 -115 -87 -53 -108 14 -246 149 -308 34
-15 67 -20 126 -20 69 -1 89 4 148 31 122 58 187 125 187 195 -1 82 -37 108
-210 152 -146 36 -238 48 -285 37z"/>
<path d="M1144 4125 c-39 -16 -64 -51 -64 -88 0 -16 -11 -42 -25 -59 -30 -36
-32 -75 -5 -129 53 -104 142 -162 248 -162 53 -1 68 4 103 29 54 37 79 85 79
148 0 100 -59 173 -184 231 -91 42 -114 47 -152 30z"/>
<path d="M5237 3880 c-59 -15 -130 -55 -170 -97 -57 -58 -81 -116 -85 -205 -4
-66 -1 -84 22 -134 40 -87 87 -138 161 -175 60 -29 70 -31 144 -27 164 9 301
118 347 273 37 128 -12 228 -160 329 -54 37 -63 40 -139 42 -45 2 -99 -1 -120
-6z m122 -309 c11 -7 9 -13 -8 -30 -25 -25 -49 -27 -57 -6 -14 37 27 60 65 36z"/>
<path d="M4213 3759 c-68 -13 -128 -44 -173 -89 -58 -58 -84 -119 -84 -200 -1
-218 221 -352 426 -257 77 35 123 79 160 155 31 63 33 73 33 173 0 101 -2 109
-25 134 -35 37 -91 64 -169 81 -73 15 -105 16 -168 3z m75 -281 c-18 -27 -58
-37 -58 -14 0 17 27 35 54 36 17 0 17 -2 4 -22z"/>
<path d="M3465 3393 c-40 -10 -69 -50 -130 -178 -75 -157 -80 -176 -60 -215
32 -61 93 -52 175 26 72 68 129 173 137 248 5 48 3 56 -23 84 -30 32 -63 44
-99 35z"/>
<path d="M1393 3195 c-234 -30 -372 -84 -474 -186 -68 -68 -104 -139 -126
-244 -31 -156 21 -313 145 -434 85 -83 163 -123 315 -161 218 -53 257 -95 383
-406 167 -413 309 -580 550 -646 98 -26 298 -29 944 -11 384 10 454 15 595 37
352 57 489 117 784 341 193 145 298 302 357 530 23 91 25 114 21 245 -3 125
-8 156 -31 224 -34 100 -81 170 -162 245 -187 171 -381 248 -556 222 -115 -18
-219 -57 -418 -158 -260 -132 -285 -140 -466 -148 -135 -7 -158 -5 -234 14
-113 29 -245 97 -442 227 -212 140 -278 174 -425 223 -270 89 -518 117 -760
86z m458 -370 c178 -31 274 -75 449 -207 175 -131 208 -153 319 -209 119 -59
247 -102 361 -123 234 -42 263 -45 355 -35 239 25 334 56 552 181 221 126 287
141 391 93 79 -37 187 -144 201 -200 31 -123 -12 -295 -106 -417 -37 -50 -270
-229 -355 -274 -128 -67 -242 -95 -463 -114 -124 -10 -742 -25 -1065 -25
l-185 0 -65 32 c-104 51 -152 126 -240 378 -138 392 -303 566 -611 640 -134
33 -151 39 -179 65 -62 58 -46 115 43 155 43 19 156 45 297 68 61 10 224 6
301 -8z"/>
<path d="M435 2085 c-29 -28 -33 -80 -10 -111 8 -10 35 -60 59 -110 24 -50 61
-110 82 -134 93 -103 241 -119 303 -32 57 80 -3 191 -162 299 -170 117 -226
135 -272 88z"/>
<path d="M5107 1300 c-14 -11 -31 -20 -37 -20 -29 0 -79 -34 -90 -61 -31 -73
16 -224 84 -272 38 -27 97 -28 124 -4 31 28 59 104 72 198 15 104 9 134 -33
159 -41 25 -87 25 -120 0z"/>
</g>
</svg>
