<?xml version="1.0" standalone="no"?>
<!DOCTYPE svg PUBLIC "-//W3C//DTD SVG 20010904//EN"
 "http://www.w3.org/TR/2001/REC-SVG-20010904/DTD/svg10.dtd">
<svg version="1.0" xmlns="http://www.w3.org/2000/svg"
 width="600.000000pt" height="600.000000pt" viewBox="0 0 600.000000 600.000000"
 preserveAspectRatio="xMidYMid meet">
<metadata>
Created by potrace 1.15, written by Peter Selinger 2001-2017
</metadata>
<g transform="translate(0.000000,600.000000) scale(0.100000,-0.100000)"
fill="#16364b" stroke="none">
<path d="M1533 5754 c-44 -22 -58 -47 -78 -139 -23 -103 -32 -369 -16 -460 31
-178 106 -275 212 -275 79 0 120 20 189 90 73 74 136 175 246 397 83 166 95
212 70 265 -32 67 -108 86 -181 45 -36 -20 -48 -39 -115 -173 -41 -82 -95
-183 -119 -224 -42 -70 -45 -72 -54 -49 -13 35 -1 171 28 306 24 113 24 118 7
152 -35 72 -118 100 -189 65z"/>
<path d="M3326 5509 c-61 -17 -102 -84 -91 -148 8 -49 24 -65 135 -143 94 -67
160 -120 160 -131 0 -3 -16 -14 -36 -23 -51 -25 -81 -91 -65 -145 20 -67 131
-145 240 -168 140 -30 246 67 220 202 -21 116 -161 310 -309 430 -141 114
-199 142 -254 126z"/>
<path d="M878 5500 c-199 -35 -338 -213 -338 -429 0 -63 5 -92 24 -134 46
-105 154 -197 230 -197 73 0 136 62 136 133 0 50 -19 85 -68 124 -49 39 -59
76 -37 129 38 91 121 138 191 109 95 -40 184 8 184 100 0 117 -153 196 -322
165z"/>
<path d="M3000 5158 c-79 -22 -164 -113 -196 -210 -23 -70 -17 -196 12 -234
42 -57 69 -69 153 -69 69 0 85 4 152 37 85 42 102 64 119 158 39 216 -74 366
-240 318z"/>
<path d="M2301 5082 c-62 -31 -75 -61 -81 -179 l-5 -106 -46 -41 c-30 -26 -77
-53 -135 -76 -106 -42 -140 -69 -154 -120 -22 -83 38 -160 124 -160 49 0 262
91 346 148 113 77 163 180 164 337 1 117 -15 156 -80 192 -47 27 -87 29 -133
5z"/>
<path d="M4750 4828 c-68 -47 -75 -66 -73 -201 3 -255 101 -466 249 -538 65
-31 159 -23 217 18 169 118 179 339 25 517 -51 59 -179 156 -260 197 -69 35
-114 37 -158 7z"/>
<path d="M2755 4141 c-220 -58 -264 -295 -78 -422 97 -67 262 -89 398 -54 96
26 239 92 274 129 59 61 60 154 3 216 -30 33 -137 78 -264 111 -88 23 -278 35
-333 20z"/>
<path d="M1056 4080 c-100 -31 -146 -175 -85 -265 34 -49 66 -64 171 -75 111
-13 150 -22 155 -37 5 -13 -115 -115 -221 -187 -39 -27 -123 -73 -186 -103
-63 -30 -130 -61 -148 -70 -47 -24 -72 -70 -72 -135 0 -99 77 -178 172 -178
35 0 71 13 159 57 63 31 118 57 122 58 5 0 15 -18 22 -39 22 -62 55 -89 117
-94 46 -3 58 0 93 24 123 86 177 117 235 135 58 18 72 19 128 8 121 -22 205
11 237 95 33 86 -7 163 -107 206 -48 21 -64 22 -170 17 l-117 -5 40 53 c125
166 100 333 -66 430 -104 61 -405 127 -479 105z"/>
<path d="M4202 3774 c-73 -19 -131 -55 -189 -117 -62 -66 -93 -131 -100 -207
-8 -90 11 -145 72 -206 121 -121 319 -132 462 -24 95 71 166 214 179 362 5 55
3 67 -18 98 -30 45 -93 76 -192 95 -95 18 -145 18 -214 -1z m66 -306 c-6 -18
-55 -44 -65 -34 -10 9 33 46 54 46 8 0 13 -6 11 -12z"/>
<path d="M3415 3385 c-87 -30 -235 -240 -235 -332 0 -78 67 -136 155 -135 151
1 240 84 275 256 21 104 -4 177 -74 210 -41 19 -68 20 -121 1z"/>
<path d="M5080 3367 c-66 -33 -118 -71 -179 -130 -169 -165 -160 -408 19 -500
49 -26 63 -28 131 -25 167 9 294 121 334 293 18 77 14 146 -14 210 -20 46
-101 144 -134 162 -35 19 -107 15 -157 -10z"/>
<path d="M2229 2861 c-116 -46 -170 -109 -243 -286 -52 -124 -85 -170 -159
-220 -28 -19 -66 -54 -86 -79 -20 -25 -68 -83 -107 -128 -121 -142 -201 -296
-241 -464 -25 -108 -25 -351 1 -444 42 -157 146 -305 299 -425 145 -115 297
-172 518 -193 286 -27 475 51 717 300 185 189 263 379 337 821 51 303 22 454
-118 603 -66 71 -157 122 -257 144 -97 21 -131 49 -191 150 -61 105 -131 179
-198 212 -64 32 -205 36 -272 9z m201 -482 c37 -64 130 -178 167 -204 12 -9
75 -27 140 -41 65 -15 126 -30 135 -35 68 -36 34 -332 -68 -607 -50 -134 -83
-196 -147 -278 -120 -153 -246 -220 -412 -218 -146 1 -272 58 -376 172 -90 98
-127 208 -116 342 14 171 109 338 272 477 87 74 210 202 252 261 19 26 50 80
70 120 20 39 39 72 42 72 3 0 22 -28 41 -61z"/>
<path d="M995 2793 c-59 -15 -105 -76 -105 -138 0 -57 23 -88 96 -131 169 -98
255 -229 225 -341 -23 -85 -94 -153 -158 -153 -48 0 -87 26 -135 88 -63 84
-130 100 -200 49 -28 -21 -58 -82 -58 -119 0 -67 105 -196 202 -249 61 -33 67
-34 173 -34 105 0 113 2 179 34 203 99 316 334 261 546 -42 162 -196 338 -369
425 -59 30 -72 32 -111 23z"/>
<path d="M4120 2288 c-26 -14 -57 -41 -75 -66 -27 -39 -30 -52 -29 -114 l1
-69 -26 8 c-14 4 -52 8 -83 7 -45 0 -65 -6 -95 -27 -105 -73 -113 -166 -39
-467 27 -107 54 -207 62 -222 38 -73 141 -107 219 -73 25 11 69 19 115 20 214
5 309 163 281 465 -12 124 -56 396 -72 437 -24 64 -109 123 -176 123 -22 0
-59 -10 -83 -22z"/>
</g>
</svg>
