<?xml version="1.0" standalone="no"?>
<!DOCTYPE svg PUBLIC "-//W3C//DTD SVG 20010904//EN"
 "http://www.w3.org/TR/2001/REC-SVG-20010904/DTD/svg10.dtd">
<svg version="1.0" xmlns="http://www.w3.org/2000/svg"
 width="600.000000pt" height="600.000000pt" viewBox="0 0 600.000000 600.000000"
 preserveAspectRatio="xMidYMid meet">
<metadata>
Created by potrace 1.15, written by Peter Selinger 2001-2017
</metadata>
<g transform="translate(0.000000,600.000000) scale(0.100000,-0.100000)"
fill="#16364b" stroke="none">
<path d="M3145 5660 c-77 -16 -115 -72 -115 -167 0 -131 49 -242 148 -334 60
-57 102 -80 325 -184 20 -9 37 -21 37 -26 0 -4 -30 -25 -67 -45 -301 -166
-504 -293 -547 -344 -13 -16 -26 -46 -30 -68 -5 -35 -11 -43 -51 -62 -100 -48
-132 -154 -75 -248 36 -59 119 -78 188 -43 62 31 141 52 261 66 125 15 151 27
182 85 33 61 24 135 -23 186 l-19 21 113 75 c62 41 142 92 178 114 89 53 175
140 189 190 28 99 4 178 -77 259 -35 35 -84 65 -189 115 -196 96 -243 142
-243 242 -1 111 -86 189 -185 168z"/>
<path d="M1250 5363 c-35 -18 -94 -67 -166 -138 -171 -170 -233 -292 -254
-500 -18 -179 4 -326 57 -377 61 -59 168 -58 231 0 43 41 54 91 37 166 -50
210 48 451 233 574 66 44 95 89 95 147 0 79 -57 144 -134 152 -34 3 -56 -2
-99 -24z"/>
<path d="M1562 5106 c-105 -21 -162 -81 -162 -168 0 -92 47 -150 133 -164 20
-4 37 -7 37 -8 0 -1 -13 -40 -29 -86 -40 -119 -47 -184 -27 -255 31 -106 117
-172 252 -196 l68 -12 -64 -22 c-140 -46 -339 -171 -381 -238 -30 -48 -22
-127 16 -167 33 -34 91 -54 132 -44 15 3 64 30 108 60 102 67 211 111 312 125
97 13 132 32 161 89 34 66 27 130 -21 178 -30 30 -44 36 -91 40 -54 4 -71 14
-42 25 7 3 23 26 36 52 51 104 -16 215 -129 215 -22 0 -42 4 -45 9 -3 4 12 60
34 123 22 63 43 142 46 174 21 197 -129 315 -344 270z"/>
<path d="M4492 4569 c-57 -29 -85 -70 -90 -135 -4 -50 -2 -56 30 -88 42 -42
90 -56 196 -56 58 0 82 -4 80 -11 -2 -7 -53 -42 -113 -80 -127 -78 -155 -111
-155 -179 0 -84 69 -150 155 -150 109 0 421 225 484 349 34 66 38 137 12 197
-57 128 -166 174 -416 174 -122 0 -145 -3 -183 -21z"/>
<path d="M2587 3695 c-88 -17 -238 -65 -307 -98 -52 -25 -90 -76 -90 -120 0
-45 35 -109 72 -134 59 -39 91 -38 223 6 66 22 141 43 168 46 46 7 47 7 47
-19 0 -80 -186 -441 -347 -675 -68 -98 -70 -166 -8 -238 35 -41 35 -41 18 -74
-46 -91 -20 -201 59 -252 67 -43 103 -38 259 39 144 71 258 118 267 109 9 -9
-48 -165 -119 -324 -74 -165 -84 -214 -55 -282 15 -36 66 -89 103 -108 30 -15
119 -14 151 3 46 24 66 54 175 266 136 264 161 340 162 480 0 94 -3 111 -28
166 -34 74 -104 145 -170 174 -107 47 -272 34 -431 -35 -44 -19 -81 -33 -83
-32 -1 2 34 66 78 143 225 387 305 639 254 794 -47 143 -194 203 -398 165z"/>
<path d="M3902 3689 c-98 -49 -126 -165 -68 -282 36 -75 147 -184 223 -222 67
-32 161 -44 217 -25 77 25 133 99 142 188 6 58 -17 108 -63 137 -29 18 -32 25
-33 68 0 39 -5 53 -32 82 -27 28 -48 39 -113 55 -109 27 -217 26 -273 -1z"/>
<path d="M1133 3515 c-66 -18 -146 -59 -248 -127 -88 -58 -120 -98 -130 -159
-25 -149 143 -289 269 -224 15 8 32 15 36 15 5 0 -14 -66 -41 -147 -69 -203
-166 -548 -184 -652 -21 -123 -20 -185 7 -232 25 -46 49 -63 106 -79 68 -18
144 -15 189 8 74 38 240 227 387 442 96 139 249 340 259 340 29 0 -31 -436
-102 -737 -64 -271 -75 -407 -37 -497 49 -118 224 -135 293 -29 15 23 18 51
19 173 0 119 5 166 27 260 138 610 140 627 120 905 -17 225 -27 273 -64 325
-36 49 -80 70 -147 70 -110 0 -203 -81 -426 -376 -70 -93 -132 -170 -136 -172
-5 -2 11 57 36 130 106 313 139 483 114 586 -16 69 -60 133 -111 162 -53 29
-160 36 -236 15z"/>
<path d="M3660 3262 c-95 -13 -184 -70 -240 -154 -42 -63 -80 -169 -80 -222 1
-51 34 -112 79 -142 36 -23 48 -26 103 -22 57 4 64 7 97 45 36 40 37 40 121
45 120 6 192 44 231 120 41 80 14 186 -64 253 -62 53 -173 88 -247 77z"/>
<path d="M4631 3178 c-55 -28 -81 -62 -88 -115 -8 -57 17 -102 89 -159 64 -52
148 -147 148 -169 0 -7 -16 -25 -35 -39 -45 -35 -65 -74 -65 -128 0 -110 109
-169 216 -118 49 24 124 101 152 156 68 133 19 287 -144 449 -140 140 -194
164 -273 123z"/>
<path d="M4529 2286 c-62 -22 -100 -49 -133 -94 -28 -40 -31 -52 -34 -131 l-4
-88 -86 17 c-129 26 -228 33 -307 20 -177 -28 -313 -143 -367 -313 -17 -52
-21 -98 -25 -277 -6 -232 3 -316 37 -362 11 -15 20 -28 20 -30 0 -2 -37 -3
-83 -3 -75 0 -88 -3 -126 -28 -23 -15 -47 -25 -54 -21 -33 19 -275 204 -292
224 -25 28 -166 139 -222 173 -136 85 -277 46 -320 -90 -14 -44 -18 -51 -25
-34 -11 30 -36 222 -43 336 -8 128 -17 156 -65 199 -74 66 -171 72 -250 15
-58 -42 -85 -104 -76 -178 4 -31 13 -123 22 -206 45 -461 107 -601 327 -748
45 -30 116 -72 157 -93 126 -64 225 -51 287 38 33 49 43 102 30 172 -6 31 -8
59 -4 62 3 3 61 -35 129 -86 182 -137 258 -165 392 -148 101 14 263 115 301
189 19 36 19 112 1 148 l-15 28 78 -5 c64 -4 86 -1 129 18 60 26 117 86 132
139 5 20 10 123 10 229 l0 193 38 -7 c20 -3 66 -13 102 -22 83 -19 266 -26
333 -12 238 49 344 232 308 529 -13 107 -33 153 -90 204 -60 54 -137 70 -212
43z"/>
</g>
</svg>
