<?xml version="1.0" standalone="no"?>
<!DOCTYPE svg PUBLIC "-//W3C//DTD SVG 20010904//EN"
 "http://www.w3.org/TR/2001/REC-SVG-20010904/DTD/svg10.dtd">
<svg version="1.0" xmlns="http://www.w3.org/2000/svg"
 width="600.000000pt" height="600.000000pt" viewBox="0 0 600.000000 600.000000"
 preserveAspectRatio="xMidYMid meet">
<metadata>
Created by potrace 1.15, written by Peter Selinger 2001-2017
</metadata>
<g transform="translate(0.000000,600.000000) scale(0.100000,-0.100000)"
fill="#16364b" stroke="none">
<path d="M3134 5641 c-80 -36 -104 -99 -104 -270 0 -89 3 -103 31 -159 51
-103 134 -162 323 -227 l118 -42 -28 -20 c-16 -11 -114 -71 -219 -133 -263
-157 -395 -260 -395 -308 0 -10 -16 -39 -35 -66 -30 -42 -35 -58 -35 -103 0
-83 36 -136 115 -169 30 -12 78 -17 205 -19 91 -1 209 -8 262 -15 89 -11 100
-11 134 6 112 56 108 205 -6 261 -28 14 -82 27 -145 34 -55 7 -103 15 -107 18
-4 4 49 38 118 76 193 108 355 217 411 279 124 136 108 293 -40 391 -57 37
-109 58 -262 104 -55 17 -111 40 -124 52 -24 23 -25 43 -6 179 6 37 3 51 -17
80 -44 66 -118 86 -194 51z"/>
<path d="M1299 5369 c-153 -99 -272 -233 -351 -396 -83 -171 -125 -390 -99
-515 26 -124 160 -178 252 -101 44 37 52 64 54 183 2 102 10 160 24 160 3 0
14 -14 23 -30 22 -39 74 -70 118 -70 19 0 79 10 132 22 54 12 100 19 103 16 4
-3 -13 -61 -36 -129 -36 -105 -42 -136 -42 -204 0 -88 18 -144 68 -203 15 -18
26 -34 24 -35 -200 -128 -214 -143 -214 -228 0 -86 53 -147 136 -156 38 -4 55
1 119 36 163 89 269 140 355 170 49 18 101 42 113 54 78 72 68 185 -21 251
-30 22 -104 28 -163 13 -28 -7 -32 -5 -43 22 -7 16 -23 39 -36 51 -30 28 -27
44 31 200 52 142 62 208 40 281 -50 171 -227 221 -545 154 -36 -7 -67 -12 -70
-10 -8 8 40 72 91 122 29 28 76 64 103 80 64 36 100 102 90 161 -14 84 -76
142 -151 142 -31 0 -56 -10 -105 -41z"/>
<path d="M4545 4484 c-156 -18 -190 -33 -224 -97 -28 -56 -23 -101 16 -147 48
-57 71 -63 216 -55 l130 7 -34 -43 c-19 -24 -85 -97 -148 -162 -113 -117 -115
-119 -119 -172 -7 -84 39 -145 121 -160 66 -13 97 7 239 154 134 139 244 280
280 359 29 64 34 143 14 195 -20 54 -47 80 -110 108 -64 28 -205 33 -381 13z"/>
<path d="M2480 3660 c-41 -11 -121 -42 -177 -70 -120 -59 -143 -87 -143 -170
0 -136 119 -192 256 -122 81 41 175 72 219 72 33 0 35 -2 35 -31 0 -50 -57
-206 -116 -319 -31 -58 -105 -180 -166 -272 -125 -190 -136 -222 -98 -293 12
-22 24 -58 27 -80 6 -49 23 -82 59 -118 67 -67 143 -73 277 -21 206 81 270
104 287 104 18 0 18 -3 -4 -67 -33 -95 -58 -156 -117 -285 -45 -100 -51 -118
-47 -164 9 -111 94 -180 209 -172 115 8 166 71 279 345 75 181 104 297 104
418 1 81 -3 109 -20 146 -29 63 -78 116 -138 147 -48 25 -59 27 -176 26 -105
-1 -139 -5 -213 -27 -48 -15 -91 -27 -96 -27 -5 0 16 44 45 98 103 184 174
338 195 422 29 114 24 233 -14 306 -35 69 -115 140 -180 159 -69 20 -196 18
-287 -5z"/>
<path d="M3865 3657 c-76 -43 -105 -138 -66 -222 32 -72 174 -189 297 -247 54
-25 74 -30 115 -26 83 8 139 64 146 145 5 62 -22 108 -78 131 -39 16 -40 18
-35 55 13 79 -34 134 -141 167 -90 28 -186 27 -238 -3z"/>
<path d="M1110 3464 c-138 -36 -337 -163 -370 -237 -34 -73 -24 -146 28 -201
53 -56 142 -72 222 -40 23 9 43 14 46 11 3 -3 -19 -88 -50 -189 -107 -356
-146 -550 -146 -722 0 -160 39 -210 190 -243 75 -16 117 -11 154 18 15 12 73
78 129 148 56 69 152 186 214 259 61 74 152 193 202 264 l90 131 11 -29 c22
-56 -5 -213 -88 -509 -76 -275 -94 -377 -90 -509 3 -105 5 -116 33 -161 17
-26 47 -62 68 -79 32 -25 47 -30 91 -30 61 0 97 19 127 67 23 36 22 109 -2
165 -12 28 -11 48 4 150 9 64 33 189 52 277 110 498 120 566 106 782 -11 177
-30 233 -94 288 -88 75 -208 67 -306 -21 -65 -58 -109 -116 -249 -324 -106
-157 -145 -210 -154 -210 -3 0 17 71 43 159 106 354 128 532 77 642 -32 69
-78 113 -146 139 -61 23 -115 24 -192 4z"/>
<path d="M4552 3321 c-34 -16 -47 -30 -63 -67 -41 -93 -6 -149 140 -224 53
-27 116 -64 140 -81 63 -47 56 -70 -70 -224 -84 -103 -94 -138 -59 -210 36
-74 137 -108 210 -70 42 22 176 189 216 270 62 126 57 241 -16 354 -50 77
-128 137 -265 207 -128 65 -172 73 -233 45z"/>
<path d="M3709 3210 c-122 -21 -244 -120 -304 -245 -60 -124 -41 -208 57 -249
79 -33 166 2 202 80 l20 42 100 4 c88 3 107 7 148 31 98 57 124 176 57 261
-47 60 -174 95 -280 76z"/>
<path d="M4540 2244 c-82 -35 -130 -111 -130 -204 0 -70 0 -70 -110 -45 -108
25 -294 30 -367 12 -90 -24 -159 -62 -215 -119 -99 -101 -116 -166 -129 -488
l-10 -245 -27 -22 c-15 -13 -30 -23 -33 -23 -5 0 -173 136 -268 218 -147 127
-189 147 -311 147 -82 0 -102 -3 -144 -25 -76 -39 -142 -127 -176 -235 -7 -22
-16 -43 -19 -48 -4 -4 -18 52 -30 125 -28 164 -77 361 -101 408 -54 106 -163
148 -266 101 -46 -21 -78 -57 -94 -107 -13 -40 -11 -64 19 -219 12 -60 33
-171 47 -245 65 -350 104 -451 207 -546 161 -148 368 -205 463 -128 64 51 76
85 70 189 -5 66 -1 118 13 193 10 57 21 105 24 108 3 3 78 -53 167 -124 105
-85 192 -146 247 -174 81 -41 90 -43 172 -43 71 0 95 4 136 25 93 45 174 141
175 205 0 15 11 25 36 34 48 17 101 65 126 115 19 36 23 67 30 246 5 113 13
209 18 214 6 6 54 3 127 -9 422 -68 651 23 703 280 17 81 5 234 -22 297 -23
53 -82 112 -134 134 -44 18 -150 17 -194 -2z"/>
</g>
</svg>
