<?xml version="1.0" standalone="no"?>
<!DOCTYPE svg PUBLIC "-//W3C//DTD SVG 20010904//EN"
 "http://www.w3.org/TR/2001/REC-SVG-20010904/DTD/svg10.dtd">
<svg version="1.0" xmlns="http://www.w3.org/2000/svg"
 width="600.000000pt" height="600.000000pt" viewBox="0 0 600.000000 600.000000"
 preserveAspectRatio="xMidYMid meet">
<metadata>
Created by potrace 1.15, written by Peter Selinger 2001-2017
</metadata>
<g transform="translate(0.000000,600.000000) scale(0.100000,-0.100000)"
fill="#16364b" stroke="none">
<path d="M2061 5829 c-53 -11 -78 -36 -185 -181 -56 -75 -145 -194 -198 -264
-164 -215 -205 -321 -164 -429 33 -85 102 -118 202 -96 55 13 207 83 323 150
36 21 143 78 236 126 94 49 182 97 198 107 85 60 74 196 -22 252 -62 36 -105
27 -250 -52 -72 -40 -133 -72 -136 -72 -4 0 23 37 58 83 103 132 127 174 127
226 0 100 -90 171 -189 150z"/>
<path d="M3000 5662 c-59 -59 -65 -122 -18 -192 18 -27 49 -45 151 -91 258
-116 370 -219 413 -383 39 -145 -10 -222 -172 -272 -136 -41 -183 -114 -138
-211 39 -80 129 -103 255 -63 172 55 290 153 341 282 44 111 18 319 -59 471
-90 179 -222 306 -423 407 -125 63 -204 90 -261 90 -46 0 -55 -4 -89 -38z"/>
<path d="M920 5371 c-86 -28 -139 -59 -201 -118 -198 -188 -186 -490 28 -698
103 -101 197 -129 283 -85 47 24 70 64 70 122 0 59 -20 93 -97 163 -158 143
-134 275 62 334 39 12 77 27 85 34 59 46 67 130 21 194 -52 72 -138 91 -251
54z"/>
<path d="M2722 4974 c-64 -32 -106 -79 -146 -164 -27 -57 -31 -75 -30 -150 0
-72 4 -93 26 -136 31 -59 94 -119 152 -145 98 -43 260 -48 324 -9 91 55 92
178 3 237 -29 19 -47 23 -117 23 -70 0 -84 3 -84 16 0 13 7 15 40 9 75 -13
155 45 174 128 11 46 -10 101 -55 142 -88 79 -191 97 -287 49z"/>
<path d="M4748 4887 c-71 -54 -80 -82 -74 -222 13 -340 214 -569 440 -503 28
8 60 32 101 73 72 72 95 128 95 231 0 59 -5 81 -30 131 -54 108 -140 189 -295
277 -69 40 -88 46 -137 46 -48 0 -63 -5 -100 -33z"/>
<path d="M1905 4627 c-97 -32 -199 -107 -231 -168 -39 -76 3 -185 83 -215 54
-21 103 -12 147 26 18 16 46 34 62 40 26 10 31 9 49 -13 11 -13 28 -39 37 -56
20 -37 86 -70 138 -71 78 0 150 67 150 140 0 50 -60 168 -114 223 -69 71 -126
100 -210 103 -41 2 -88 -2 -111 -9z"/>
<path d="M2965 3951 c-100 -25 -172 -107 -221 -251 -14 -42 -18 -85 -19 -180
0 -143 15 -196 83 -285 98 -130 224 -152 306 -55 44 53 31 145 -29 200 -41 38
-55 73 -55 139 0 88 11 111 56 111 128 0 183 184 82 276 -45 42 -134 62 -203
45z"/>
<path d="M1155 3875 c-105 -16 -202 -43 -242 -67 -102 -61 -109 -225 -13 -312
43 -39 90 -52 152 -42 50 8 50 8 -30 -105 -85 -123 -149 -231 -198 -334 -48
-104 -176 -411 -194 -469 -38 -120 47 -241 179 -254 65 -6 93 10 231 137 122
112 175 157 410 347 80 65 176 145 213 177 37 33 70 57 73 55 8 -9 -15 -136
-47 -256 -50 -192 -137 -403 -307 -751 -72 -148 -86 -184 -86 -227 -1 -89 61
-154 147 -154 82 0 97 21 332 486 112 221 161 364 216 634 39 188 43 218 43
360 l1 155 -31 55 c-61 108 -171 143 -279 87 -54 -27 -117 -75 -270 -205 -54
-46 -100 -81 -102 -78 -3 3 21 47 54 98 73 113 145 254 167 327 24 81 21 168
-7 222 -57 109 -197 148 -412 114z"/>
<path d="M4263 3785 c-190 -41 -339 -181 -351 -331 -9 -109 58 -218 166 -271
49 -24 69 -28 142 -28 69 0 94 4 133 24 106 52 214 182 280 337 49 114 51 131
25 183 -13 25 -34 53 -48 63 -52 38 -226 49 -347 23z m27 -292 c-1 -15 -51
-44 -68 -41 -13 3 -9 9 18 26 37 23 50 27 50 15z"/>
<path d="M3445 3376 c-66 -30 -118 -106 -171 -254 -40 -110 -43 -156 -11 -203
37 -56 78 -71 182 -67 197 8 310 113 310 288 0 85 -20 133 -77 187 -62 59
-162 80 -233 49z"/>
<path d="M4922 2935 c-49 -21 -157 -129 -213 -213 -51 -76 -89 -179 -89 -239
0 -128 98 -225 229 -227 114 -2 231 87 296 227 52 109 65 237 32 302 -6 11
-34 48 -64 82 -71 81 -120 99 -191 68z"/>
<path d="M4105 2521 c-69 -17 -127 -64 -159 -128 -23 -45 -20 -129 8 -260 13
-62 20 -113 16 -113 -4 0 -38 14 -75 31 -76 36 -174 48 -241 30 -92 -25 -177
-117 -215 -234 -30 -92 -23 -203 25 -402 59 -245 82 -311 124 -357 91 -101
243 -105 340 -8 79 79 91 156 47 308 -15 52 -24 96 -21 100 4 3 21 -8 39 -25
70 -66 149 -85 243 -58 128 37 211 102 261 203 56 114 34 264 -107 742 -21 72
-59 119 -119 150 -43 21 -124 32 -166 21z"/>
<path d="M2885 2171 c-110 -33 -258 -103 -478 -225 -54 -31 -67 -32 -67 -8 0
38 -60 121 -107 149 -62 36 -148 38 -214 4 -78 -40 -211 -186 -245 -268 -48
-113 47 -243 178 -243 33 0 48 -5 52 -16 14 -36 5 -50 -46 -73 -62 -28 -140
-99 -175 -159 -79 -135 -96 -399 -36 -587 60 -191 221 -360 412 -434 161 -62
404 -94 540 -71 136 23 329 142 417 257 95 125 13 305 -139 305 -60 0 -84 -12
-155 -76 -75 -67 -118 -90 -198 -107 -158 -32 -422 76 -498 205 -38 65 -59
151 -53 216 9 107 58 141 100 70 31 -51 119 -141 161 -163 95 -49 222 -13 265
76 24 50 27 122 8 170 -8 18 -37 55 -64 83 -51 52 -118 171 -129 230 -6 29 -4
32 29 38 19 3 133 58 253 120 121 63 229 117 242 121 30 9 29 -3 -13 -162 -41
-155 -59 -202 -131 -345 -62 -123 -68 -172 -33 -244 47 -99 181 -137 265 -76
76 56 167 258 274 612 76 248 85 330 50 425 -29 77 -103 152 -175 178 -66 23
-209 22 -290 -2z"/>
</g>
</svg>
