<?xml version="1.0" standalone="no"?>
<!DOCTYPE svg PUBLIC "-//W3C//DTD SVG 20010904//EN"
 "http://www.w3.org/TR/2001/REC-SVG-20010904/DTD/svg10.dtd">
<svg version="1.0" xmlns="http://www.w3.org/2000/svg"
 width="600.000000pt" height="600.000000pt" viewBox="0 0 600.000000 600.000000"
 preserveAspectRatio="xMidYMid meet">
<metadata>
Created by potrace 1.15, written by Peter Selinger 2001-2017
</metadata>
<g transform="translate(0.000000,600.000000) scale(0.100000,-0.100000)"
fill="#16364b" stroke="none">
<path d="M1545 5766 c-23 -10 -54 -52 -129 -171 -124 -199 -148 -248 -154
-309 -11 -114 74 -170 201 -132 115 34 453 266 484 331 33 70 -18 155 -93 155
-41 0 -63 -11 -119 -55 -22 -18 -53 -41 -70 -51 l-30 -19 22 35 c38 61 53 94
53 115 0 31 -36 82 -69 100 -36 18 -56 18 -96 1z"/>
<path d="M2369 5456 c-46 -15 -74 -57 -73 -109 9 -467 7 -495 -48 -617 -40
-90 -96 -144 -194 -191 -82 -38 -124 -76 -124 -111 0 -66 56 -118 128 -118 42
0 170 58 239 108 88 65 167 210 199 367 17 77 31 518 20 579 -14 76 -77 115
-147 92z"/>
<path d="M3516 5329 c-29 -23 -56 -78 -56 -115 0 -105 134 -291 237 -330 94
-36 180 9 190 100 12 99 -114 282 -232 337 -72 34 -103 36 -139 8z"/>
<path d="M2967 5136 c-107 -39 -187 -148 -187 -256 1 -176 152 -248 338 -160
69 32 83 51 107 134 36 123 -1 237 -88 277 -49 22 -116 24 -170 5z"/>
<path d="M4775 4786 c-47 -21 -65 -48 -76 -117 -12 -74 -4 -225 16 -317 39
-168 143 -277 275 -289 148 -14 261 115 247 283 -5 73 -31 134 -88 210 -74 97
-244 226 -314 239 -17 3 -43 -1 -60 -9z m210 -426 c8 -16 15 -33 15 -37 -1
-13 -40 41 -40 55 0 20 9 14 25 -18z"/>
<path d="M2740 4231 c-138 -26 -231 -110 -246 -223 -23 -170 183 -331 370
-288 110 25 238 115 305 217 42 62 43 132 5 189 -37 54 -47 60 -152 84 -106
25 -216 33 -282 21z"/>
<path d="M1092 4087 c-79 -30 -118 -103 -90 -175 18 -49 64 -78 145 -91 38 -7
92 -19 121 -27 64 -18 60 -29 -25 -70 -73 -34 -127 -50 -248 -74 -109 -22
-138 -38 -166 -90 -47 -88 7 -200 96 -200 44 0 274 58 367 92 260 95 367 273
271 449 -45 83 -124 137 -244 168 -103 26 -187 33 -227 18z"/>
<path d="M4204 3762 c-114 -34 -205 -107 -255 -203 -28 -55 -36 -153 -18 -216
18 -66 103 -151 178 -177 80 -28 178 -25 246 8 115 57 209 202 247 382 21 100
21 102 2 140 -30 61 -74 78 -219 81 -93 2 -134 -1 -181 -15z m66 -292 c-9 -18
-40 -40 -54 -40 -3 0 -6 5 -6 12 0 19 32 48 52 48 16 0 17 -3 8 -20z"/>
<path d="M1670 3726 c-25 -13 -52 -32 -61 -42 -52 -60 -69 -221 -36 -321 61
-177 289 -260 420 -152 56 46 81 110 80 205 -1 134 -63 245 -171 302 -77 41
-162 44 -232 8z"/>
<path d="M5153 3585 c-110 -30 -199 -97 -248 -186 -23 -43 -30 -69 -33 -134
-5 -98 19 -170 79 -238 149 -170 418 -120 524 97 42 86 47 202 13 278 -24 52
-121 157 -170 185 -30 16 -100 15 -165 -2z m67 -304 c0 -5 -8 -17 -17 -27 -20
-20 -32 -1 -13 21 14 17 30 20 30 6z"/>
<path d="M3425 3390 c-64 -25 -195 -252 -195 -335 0 -85 69 -128 162 -101 94
28 141 73 178 172 43 116 36 201 -21 249 -32 26 -83 32 -124 15z"/>
<path d="M2575 3363 c-42 -9 -112 -38 -163 -66 -78 -44 -156 -127 -244 -262
-113 -173 -148 -205 -296 -276 -154 -74 -223 -120 -312 -211 -126 -127 -224
-298 -272 -475 -30 -113 -30 -317 0 -428 25 -91 76 -203 124 -272 52 -76 193
-217 271 -271 94 -65 159 -97 267 -132 119 -39 196 -52 311 -51 223 0 422 87
638 275 164 143 292 333 390 578 16 40 45 105 64 143 19 39 41 90 48 115 18
63 15 228 -5 334 -21 109 -111 367 -172 493 -24 51 -44 105 -44 120 0 47 -54
145 -116 213 -114 123 -239 181 -388 179 -44 -1 -90 -3 -101 -6z m183 -412 c2
-14 31 -76 64 -138 78 -147 206 -516 215 -619 5 -67 4 -76 -25 -130 -17 -33
-50 -106 -72 -164 -81 -208 -172 -328 -332 -438 -241 -165 -456 -191 -643 -78
-70 42 -156 108 -214 165 -147 143 -157 362 -25 568 81 126 158 198 275 254
151 73 282 188 421 369 150 194 210 243 293 238 34 -3 41 -7 43 -27z"/>
<path d="M394 2281 c-46 -28 -60 -70 -44 -138 39 -174 126 -373 217 -491 108
-140 208 -206 317 -206 191 1 272 178 172 378 -59 121 -217 262 -443 399 -138
83 -166 90 -219 58z m380 -452 c59 -63 92 -116 81 -127 -4 -4 -30 18 -59 49
-54 60 -104 139 -88 139 6 0 35 -27 66 -61z"/>
<path d="M4429 1950 c-19 -10 -41 -25 -48 -34 -11 -13 -17 -11 -49 11 -31 21
-46 24 -94 21 -106 -8 -177 -83 -178 -188 0 -128 77 -408 133 -482 46 -61 107
-91 175 -84 129 12 176 93 237 406 35 181 37 254 7 301 -40 65 -115 85 -183
49z"/>
</g>
</svg>
