<?xml version="1.0" standalone="no"?>
<!DOCTYPE svg PUBLIC "-//W3C//DTD SVG 20010904//EN"
 "http://www.w3.org/TR/2001/REC-SVG-20010904/DTD/svg10.dtd">
<svg version="1.0" xmlns="http://www.w3.org/2000/svg"
 width="600.000000pt" height="600.000000pt" viewBox="0 0 600.000000 600.000000"
 preserveAspectRatio="xMidYMid meet">
<metadata>
Created by potrace 1.15, written by Peter Selinger 2001-2017
</metadata>
<g transform="translate(0.000000,600.000000) scale(0.100000,-0.100000)"
fill="#16364b" stroke="none">
<path d="M3105 5656 c-55 -25 -80 -62 -80 -120 0 -45 8 -65 65 -165 88 -154
154 -223 312 -327 l130 -85 -23 -26 c-38 -39 -139 -110 -342 -239 -225 -143
-196 -125 -288 -168 -188 -87 -257 -227 -167 -341 48 -61 171 -85 236 -45 34
21 72 74 72 102 0 19 30 30 138 52 87 18 124 42 146 96 13 34 35 52 153 131
171 114 215 148 276 213 64 69 100 144 105 221 8 125 -63 215 -264 334 -118
69 -178 132 -233 241 -39 79 -54 99 -87 117 -44 26 -104 29 -149 9z"/>
<path d="M1152 5339 c-44 -22 -105 -63 -136 -90 -159 -142 -252 -408 -225
-644 18 -159 67 -241 160 -266 89 -24 174 33 194 128 5 24 -1 56 -20 113 -24
69 -27 91 -23 168 3 75 9 100 36 154 38 78 98 140 172 178 65 33 93 62 109
112 22 66 -14 140 -86 177 -43 22 -98 13 -181 -30z"/>
<path d="M1670 5253 c-98 -40 -138 -157 -80 -236 l22 -29 -42 -85 c-54 -110
-77 -216 -61 -288 40 -176 202 -258 446 -226 102 14 134 28 167 73 31 44 32
124 2 164 -45 62 -66 69 -180 66 -58 -1 -104 2 -104 7 0 5 20 61 45 124 25 64
50 149 56 189 10 64 9 79 -8 127 -13 38 -30 64 -57 85 -34 28 -45 31 -114 33
-43 1 -84 0 -92 -4z"/>
<path d="M4530 4643 c-102 -53 -108 -202 -9 -262 17 -10 56 -22 87 -25 108
-13 129 -18 107 -27 -11 -4 -36 -8 -55 -8 -89 -2 -171 -54 -182 -116 -14 -71
41 -155 116 -177 83 -25 333 39 443 114 108 73 141 188 87 297 -47 94 -142
147 -334 185 -189 38 -219 40 -260 19z"/>
<path d="M1874 4260 c-128 -23 -350 -122 -426 -190 -40 -35 -42 -40 -42 -91 0
-63 17 -99 70 -152 41 -41 98 -61 141 -51 15 4 57 29 92 55 102 79 178 111
275 119 63 5 91 12 115 29 89 64 84 210 -8 264 -37 22 -144 30 -217 17z"/>
<path d="M2587 3734 c-132 -29 -299 -95 -333 -130 -51 -53 -54 -118 -8 -180
49 -66 129 -80 235 -40 104 38 209 60 222 47 34 -34 -79 -288 -223 -501 -50
-74 -112 -166 -138 -204 -43 -63 -47 -75 -47 -127 0 -43 5 -65 21 -85 30 -41
68 -66 108 -73 l36 -6 -47 -35 c-61 -45 -88 -99 -88 -171 0 -74 37 -132 102
-161 71 -31 126 -22 272 46 133 62 245 106 267 106 8 0 14 -8 14 -17 0 -33
-89 -235 -156 -355 -72 -130 -83 -182 -51 -244 41 -79 113 -120 197 -112 94 9
111 28 221 252 54 111 117 258 140 326 37 110 42 137 43 220 1 80 -3 103 -23
147 -28 64 -84 116 -160 152 -51 23 -67 26 -171 25 -129 -1 -229 -25 -367 -89
-40 -18 -73 -31 -73 -27 0 4 56 86 125 182 193 271 275 437 310 625 21 111 16
185 -20 262 -69 151 -214 211 -408 167z"/>
<path d="M3989 3726 c-58 -15 -102 -47 -131 -94 -18 -29 -23 -51 -23 -107 0
-91 35 -164 120 -251 186 -190 421 -153 499 78 17 49 18 62 7 98 -7 23 -23 50
-36 62 -13 12 -26 37 -30 59 -15 88 -68 129 -200 154 -91 18 -144 18 -206 1z"/>
<path d="M1210 3573 c-93 -16 -228 -76 -353 -156 -164 -105 -109 -341 83 -355
36 -3 69 1 93 11 20 9 37 12 37 7 0 -5 -12 -35 -26 -67 -108 -240 -234 -704
-234 -860 0 -48 25 -106 62 -140 56 -52 180 -77 240 -49 63 30 282 273 522
579 77 97 143 177 148 177 24 0 4 -159 -62 -485 -61 -298 -98 -510 -105 -600
-6 -72 -4 -84 17 -124 55 -103 187 -108 261 -9 14 19 22 53 28 123 10 105 39
250 100 505 49 203 75 340 83 445 8 103 -9 429 -25 477 -15 47 -62 104 -101
124 -44 23 -120 19 -175 -7 -86 -42 -321 -287 -441 -461 -26 -37 -48 -65 -50
-63 -8 7 39 157 93 295 89 229 99 265 99 360 1 74 -3 92 -26 136 -30 56 -72
97 -124 119 -39 16 -108 25 -144 18z"/>
<path d="M3610 3281 c-81 -26 -162 -93 -207 -171 -37 -62 -73 -179 -73 -233 0
-89 56 -147 143 -147 49 0 122 29 129 52 3 7 42 17 100 24 142 18 225 68 262
156 46 109 -16 238 -142 299 -48 24 -167 35 -212 20z"/>
<path d="M4683 3061 c-107 -49 -112 -152 -15 -336 47 -88 48 -91 34 -127 -31
-82 18 -158 115 -178 146 -31 260 72 239 215 -7 47 -158 359 -193 397 -23 26
-74 48 -110 48 -15 0 -47 -9 -70 -19z"/>
<path d="M4457 2316 c-58 -21 -103 -61 -128 -113 -21 -42 -24 -61 -23 -150 1
-57 -1 -103 -5 -103 -3 0 -58 12 -121 27 -154 35 -299 37 -381 5 -82 -33 -135
-75 -178 -142 -64 -98 -67 -128 -57 -473 7 -239 13 -266 69 -326 92 -96 232
-93 318 8 52 60 59 95 59 305 0 174 1 187 18 182 9 -3 44 -12 77 -21 33 -9 79
-24 103 -32 53 -20 205 -11 297 18 194 60 285 218 272 473 -7 145 -22 207 -61
259 -60 79 -173 115 -259 83z"/>
<path d="M2135 1856 c-39 -17 -80 -65 -96 -113 -18 -56 -6 -351 20 -480 41
-198 115 -372 195 -460 89 -98 286 -217 381 -230 64 -8 125 18 174 74 l39 46
58 -35 c95 -58 180 -97 241 -113 127 -33 262 -9 374 68 81 55 101 91 97 177
-4 78 -29 132 -82 174 -31 25 -46 30 -91 30 -46 0 -62 -5 -102 -33 -26 -18
-57 -34 -69 -33 -25 0 -212 101 -289 156 -50 36 -163 142 -243 227 -76 83
-185 94 -259 26 -13 -11 -25 -18 -29 -15 -11 12 -44 196 -50 283 -7 107 -18
149 -51 193 -48 64 -145 90 -218 58z"/>
</g>
</svg>
