<?xml version="1.0" standalone="no"?>
<!DOCTYPE svg PUBLIC "-//W3C//DTD SVG 20010904//EN"
 "http://www.w3.org/TR/2001/REC-SVG-20010904/DTD/svg10.dtd">
<svg version="1.0" xmlns="http://www.w3.org/2000/svg"
 width="600.000000pt" height="600.000000pt" viewBox="0 0 600.000000 600.000000"
 preserveAspectRatio="xMidYMid meet">
<metadata>
Created by potrace 1.15, written by Peter Selinger 2001-2017
</metadata>
<g transform="translate(0.000000,600.000000) scale(0.100000,-0.100000)"
fill="#16364b" stroke="none">
<path d="M3041 5600 c-53 -12 -83 -41 -118 -110 -83 -165 -104 -309 -59 -405
49 -106 146 -156 319 -163 59 -2 107 -8 105 -12 -2 -5 -47 -42 -101 -83 -154
-117 -304 -244 -404 -342 -73 -72 -93 -97 -98 -127 -10 -54 0 -83 48 -135 64
-70 123 -92 482 -182 110 -28 240 -64 289 -81 50 -16 110 -30 134 -30 116 0
181 118 117 213 -14 20 -38 43 -53 51 -45 22 -268 93 -432 136 -85 23 -159 45
-163 49 -15 15 222 204 440 349 183 123 221 171 210 268 -15 135 -162 214
-397 214 -63 0 -139 3 -168 7 -51 6 -53 7 -47 32 4 14 24 63 46 107 21 45 39
93 39 107 0 91 -93 159 -189 137z"/>
<path d="M1510 5356 c-103 -36 -278 -195 -390 -354 -80 -113 -172 -291 -205
-395 -44 -137 -29 -221 47 -267 42 -25 90 -25 210 0 237 49 398 70 398 51 0
-5 -42 -91 -94 -192 -98 -191 -141 -299 -132 -331 2 -11 -6 -35 -20 -55 -62
-92 9 -223 121 -223 32 0 103 26 281 103 291 125 342 152 371 196 68 100 -24
241 -158 241 -14 0 -64 -20 -112 -45 -48 -25 -87 -43 -87 -39 0 4 26 59 59
123 92 183 114 273 86 366 -43 149 -188 201 -451 161 -60 -10 -118 -20 -128
-23 -18 -5 -17 -2 4 33 81 136 207 273 313 341 97 62 118 121 77 211 -23 51
-63 88 -110 102 -42 12 -37 12 -80 -4z"/>
<path d="M4509 4510 c-93 -27 -318 -126 -347 -152 -49 -46 -67 -120 -41 -171
21 -41 63 -77 100 -87 41 -11 45 -10 214 58 55 22 110 43 123 47 l23 7 -27
-54 c-31 -62 -233 -403 -276 -466 -50 -73 -50 -161 0 -205 127 -114 107 -104
258 -137 185 -41 315 -80 321 -98 8 -19 -10 -54 -135 -264 -140 -234 -142
-239 -142 -290 0 -78 66 -148 138 -148 49 0 107 34 140 82 16 24 69 111 119
193 145 242 185 339 187 455 1 66 -3 82 -29 129 -51 93 -141 137 -425 210 -63
16 -116 33 -117 38 -2 5 45 84 105 174 60 91 125 195 146 231 119 213 98 370
-59 444 -63 30 -178 32 -276 4z"/>
<path d="M3781 3688 c-49 -17 -107 -76 -121 -125 -26 -86 20 -202 95 -237 36
-17 58 -18 150 -4 30 5 31 -39 1 -108 l-24 -59 -74 -21 c-157 -44 -268 -113
-344 -216 -38 -52 -44 -67 -44 -110 0 -66 29 -114 84 -139 80 -36 139 -19 205
60 60 71 105 92 216 101 49 3 99 11 110 17 48 27 95 104 95 158 0 14 13 52 29
83 73 144 80 268 23 384 -76 154 -271 259 -401 216z"/>
<path d="M2452 3595 c-115 -32 -294 -126 -336 -176 -73 -86 -44 -210 57 -248
47 -18 64 -13 203 55 115 58 142 67 191 68 l58 1 -2 -61 c-2 -107 -87 -318
-215 -537 -46 -79 -58 -139 -37 -189 7 -18 12 -46 10 -64 -5 -64 42 -140 111
-175 52 -27 114 -24 232 11 119 35 318 81 324 75 9 -8 -30 -100 -95 -224 -61
-116 -65 -127 -61 -176 14 -172 228 -236 342 -103 19 22 66 102 104 178 84
165 115 278 115 415 0 106 -20 162 -79 220 -94 94 -238 113 -488 64 -54 -11
-101 -18 -103 -15 -3 2 13 44 35 93 171 380 146 658 -70 769 -45 24 -68 28
-148 31 -62 2 -113 -2 -148 -12z"/>
<path d="M1085 3336 c-131 -34 -281 -133 -322 -211 -21 -39 -21 -131 -1 -170
18 -33 62 -77 95 -94 31 -16 139 -14 172 4 16 8 31 12 33 10 6 -7 -14 -141
-45 -300 -52 -262 -61 -335 -61 -510 -1 -168 -1 -171 26 -217 37 -62 82 -88
174 -99 65 -8 80 -7 119 10 52 23 63 38 250 329 121 188 319 472 330 472 2 0
12 -16 21 -35 21 -45 16 -154 -20 -415 -64 -465 -68 -503 -64 -590 3 -74 8
-94 30 -127 62 -94 172 -94 242 1 18 24 21 43 22 144 1 89 10 165 38 317 87
476 92 563 41 878 -23 145 -56 212 -131 258 -46 28 -133 30 -190 3 -73 -34
-173 -149 -313 -357 -73 -109 -135 -197 -137 -195 -2 3 14 83 36 179 86 383
79 529 -31 637 -77 75 -204 107 -314 78z"/>
<path d="M4695 2296 c-77 -35 -135 -109 -149 -190 l-7 -38 -92 8 c-144 14
-303 10 -377 -9 -160 -42 -282 -135 -340 -259 -39 -83 -50 -147 -50 -284 0
-63 -2 -114 -5 -114 -2 0 -34 22 -71 50 -124 92 -219 125 -342 118 -58 -4 -90
-12 -132 -33 -114 -58 -247 -218 -347 -420 -28 -55 -56 -117 -62 -138 -7 -20
-16 -35 -20 -32 -14 8 -40 116 -70 295 -33 191 -71 337 -103 387 -31 51 -99
86 -167 86 -65 0 -91 -11 -144 -62 -25 -24 -43 -53 -53 -88 -15 -51 -14 -55
15 -160 17 -59 53 -209 81 -333 55 -250 74 -312 121 -401 90 -168 237 -243
414 -210 132 25 170 71 246 301 60 181 126 302 213 394 33 36 35 37 63 22 15
-8 79 -57 142 -109 188 -156 261 -192 371 -184 122 8 207 73 290 223 l55 99 0
200 0 200 60 3 c33 2 130 -2 215 -8 245 -20 365 12 469 125 75 83 95 143 95
287 0 110 -2 121 -30 175 -57 111 -176 152 -289 99z"/>
</g>
</svg>
