<?xml version="1.0" standalone="no"?>
<!DOCTYPE svg PUBLIC "-//W3C//DTD SVG 20010904//EN"
 "http://www.w3.org/TR/2001/REC-SVG-20010904/DTD/svg10.dtd">
<svg version="1.0" xmlns="http://www.w3.org/2000/svg"
 width="600.000000pt" height="600.000000pt" viewBox="0 0 600.000000 600.000000"
 preserveAspectRatio="xMidYMid meet">
<metadata>
Created by potrace 1.15, written by Peter Selinger 2001-2017
</metadata>
<g transform="translate(0.000000,600.000000) scale(0.100000,-0.100000)"
fill="#16364b" stroke="none">
<path d="M1525 5772 c-46 -29 -60 -65 -117 -312 -23 -101 -31 -161 -32 -240
-1 -122 12 -160 71 -200 48 -33 136 -34 206 -2 90 40 218 180 347 379 56 86
70 115 70 146 0 53 -26 93 -78 119 -38 18 -49 19 -81 9 -45 -13 -54 -23 -116
-126 -70 -118 -139 -212 -143 -195 -1 8 13 77 33 154 40 159 41 170 17 215
-35 64 -118 89 -177 53z"/>
<path d="M838 5521 c-73 -29 -112 -57 -170 -120 -64 -68 -104 -149 -125 -246
-18 -87 -10 -146 27 -212 43 -75 148 -153 206 -153 31 0 85 33 99 61 31 58 17
101 -51 165 -63 59 -60 114 11 193 52 57 91 68 151 42 68 -31 107 -28 149 12
57 52 60 126 9 187 -65 76 -210 110 -306 71z"/>
<path d="M3403 5401 c-21 -13 -36 -33 -44 -60 -18 -61 3 -107 68 -150 44 -29
50 -37 42 -53 -19 -35 -13 -95 14 -140 32 -54 111 -129 166 -158 137 -70 264
-2 248 132 -15 123 -156 299 -314 391 -99 58 -136 66 -180 38z"/>
<path d="M2349 5263 c-50 -31 -62 -66 -70 -212 -15 -278 -70 -379 -248 -451
-113 -46 -145 -92 -122 -171 8 -27 23 -47 44 -60 49 -31 113 -22 230 34 215
101 301 244 337 552 13 117 13 238 -1 268 -24 52 -116 74 -170 40z"/>
<path d="M2942 5135 c-113 -58 -187 -203 -162 -319 13 -62 49 -110 103 -137
62 -32 166 -23 254 22 86 44 104 76 111 198 4 80 2 94 -21 144 -34 75 -86 110
-171 115 -51 3 -70 -1 -114 -23z"/>
<path d="M4743 4786 c-48 -41 -56 -79 -48 -230 8 -156 24 -245 59 -319 75
-158 224 -233 355 -177 131 57 196 220 146 369 -40 122 -135 223 -303 322
-110 66 -162 74 -209 35z m252 -427 c9 -17 14 -33 11 -36 -4 -4 -36 49 -36 62
0 13 11 2 25 -26z"/>
<path d="M2735 4183 c-151 -54 -225 -138 -225 -255 0 -97 51 -166 160 -217 73
-33 204 -34 295 -2 105 38 250 133 287 189 25 37 24 118 -2 159 -26 43 -51 58
-167 100 -124 45 -265 55 -348 26z"/>
<path d="M1062 4080 c-19 -4 -47 -20 -63 -36 -58 -56 -62 -137 -8 -199 31 -35
63 -49 139 -60 69 -10 174 -37 185 -47 24 -21 -108 -96 -350 -198 -167 -71
-208 -101 -224 -165 -32 -128 91 -241 216 -199 58 20 266 116 346 161 33 18
60 33 62 33 1 0 5 -18 8 -39 13 -99 111 -149 203 -105 34 16 36 16 62 -9 50
-48 118 -71 208 -72 69 0 85 3 117 25 73 50 102 145 73 242 -40 138 -201 232
-355 207 -30 -4 -56 -7 -58 -5 -2 1 4 22 12 46 47 133 -12 263 -153 334 -111
55 -347 104 -420 86z"/>
<path d="M4200 3775 c-110 -31 -194 -100 -239 -195 -76 -162 32 -398 202 -441
203 -51 399 131 461 428 23 114 0 164 -94 199 -65 23 -259 29 -330 9z m70
-304 c0 -5 -12 -19 -27 -31 -25 -19 -28 -20 -31 -5 -2 9 2 22 8 30 14 17 50
20 50 6z"/>
<path d="M5190 3493 c-57 -10 -172 -76 -235 -134 -75 -71 -115 -145 -122 -229
-17 -185 147 -336 326 -299 216 44 351 275 269 459 -29 64 -130 186 -161 195
-37 11 -51 12 -77 8z"/>
<path d="M3413 3379 c-51 -25 -95 -82 -153 -199 -49 -97 -55 -145 -24 -187 34
-46 80 -64 144 -57 145 17 250 139 250 292 0 75 -24 120 -80 149 -53 28 -83
29 -137 2z"/>
<path d="M2456 3180 c-63 -16 -155 -71 -192 -114 -48 -55 -87 -126 -118 -213
-58 -165 -113 -233 -240 -299 -212 -110 -343 -251 -462 -497 -72 -150 -104
-275 -111 -437 -10 -234 42 -372 204 -540 183 -191 350 -288 553 -320 395 -62
826 187 1001 578 45 99 105 284 131 403 30 141 33 431 4 554 -45 193 -96 318
-177 430 -24 33 -62 89 -83 125 -93 154 -193 262 -280 305 -60 29 -166 41
-230 25z m109 -442 c21 -24 45 -62 55 -85 10 -23 46 -75 80 -115 82 -97 106
-140 129 -230 79 -307 -6 -740 -184 -936 -65 -72 -222 -179 -310 -212 -85 -32
-208 -33 -290 -2 -82 31 -191 108 -241 169 -63 77 -86 148 -87 263 0 244 138
486 349 608 106 61 190 128 246 195 85 103 93 118 189 365 12 31 22 28 64 -20z"/>
<path d="M675 2520 c-42 -17 -70 -59 -70 -105 0 -60 27 -92 118 -141 101 -55
164 -103 229 -173 69 -74 90 -118 86 -178 -6 -87 -61 -84 -154 10 -45 47 -73
89 -113 169 -62 128 -93 158 -158 158 -38 0 -50 -5 -79 -34 -32 -32 -39 -52
-35 -101 1 -11 31 -78 67 -150 101 -205 191 -302 322 -344 122 -41 215 -20
302 67 132 132 136 326 10 494 -79 105 -223 217 -386 302 -70 36 -101 42 -139
26z"/>
<path d="M4256 2165 c-51 -18 -94 -61 -108 -107 -6 -21 -12 -38 -12 -38 -1 0
-19 9 -41 20 -79 41 -160 15 -195 -63 -24 -51 -24 -95 -4 -207 8 -47 21 -138
30 -203 8 -66 21 -132 29 -147 17 -33 59 -68 91 -76 13 -3 29 -16 37 -27 8
-12 35 -33 61 -46 39 -19 59 -22 107 -19 103 7 183 84 214 203 20 80 37 345
29 475 -9 155 -43 212 -140 239 -48 13 -50 13 -98 -4z"/>
</g>
</svg>
