<?xml version="1.0" standalone="no"?>
<!DOCTYPE svg PUBLIC "-//W3C//DTD SVG 20010904//EN"
 "http://www.w3.org/TR/2001/REC-SVG-20010904/DTD/svg10.dtd">
<svg version="1.0" xmlns="http://www.w3.org/2000/svg"
 width="600.000000pt" height="600.000000pt" viewBox="0 0 600.000000 600.000000"
 preserveAspectRatio="xMidYMid meet">
<metadata>
Created by potrace 1.15, written by Peter Selinger 2001-2017
</metadata>
<g transform="translate(0.000000,600.000000) scale(0.100000,-0.100000)"
fill="#16364b" stroke="none">
<path d="M2191 5825 c-18 -9 -62 -42 -97 -74 -35 -33 -134 -120 -221 -193 -87
-73 -185 -160 -219 -193 -157 -158 -211 -280 -169 -383 51 -119 151 -142 376
-83 272 71 655 226 708 287 55 61 53 150 -3 211 -28 31 -40 37 -87 40 -50 4
-65 -1 -194 -60 -141 -65 -213 -92 -220 -85 -3 2 29 33 71 68 41 35 117 107
168 160 78 81 95 103 101 138 20 123 -99 216 -214 167z"/>
<path d="M3061 5676 c-66 -24 -107 -101 -91 -172 14 -60 53 -91 160 -124 305
-97 413 -203 398 -394 -7 -77 -38 -145 -90 -192 -41 -37 -150 -95 -215 -114
-51 -16 -80 -41 -100 -88 -28 -67 9 -150 80 -182 58 -27 90 -25 184 13 279
114 419 294 438 564 20 272 -130 499 -405 614 -62 26 -290 90 -315 88 -5 0
-25 -6 -44 -13z"/>
<path d="M935 5336 c-195 -62 -335 -254 -335 -461 0 -173 102 -350 264 -456
49 -32 68 -39 110 -39 167 0 227 190 89 282 -145 96 -190 238 -100 314 17 15
65 43 105 62 99 47 126 83 120 155 -5 67 -33 108 -91 136 -49 24 -103 26 -162
7z"/>
<path d="M2739 4966 c-119 -32 -214 -127 -251 -251 -18 -62 -26 -167 -17 -231
24 -167 132 -263 337 -299 98 -17 133 -13 179 21 99 75 38 249 -94 269 -75 11
-128 38 -142 73 -25 61 12 121 89 147 132 44 142 209 16 266 -48 22 -55 22
-117 5z"/>
<path d="M4815 4928 c-43 -16 -103 -65 -120 -99 -20 -38 -19 -180 1 -272 39
-171 158 -334 273 -370 70 -22 98 -21 167 4 71 27 136 90 172 167 35 74 36
182 4 255 -43 96 -177 212 -326 283 -83 40 -128 48 -171 32z"/>
<path d="M1833 4476 c-81 -30 -151 -76 -206 -135 -80 -85 -86 -169 -19 -240
67 -70 156 -65 244 14 73 66 126 72 188 20 49 -41 96 -56 143 -46 77 18 127
82 127 164 0 85 -96 186 -216 227 -79 28 -180 26 -261 -4z"/>
<path d="M2709 3875 c-173 -55 -148 -305 31 -305 37 0 40 -2 40 -28 0 -78 -71
-228 -204 -433 -75 -115 -86 -137 -86 -176 0 -119 125 -206 228 -159 58 27
146 157 263 389 87 172 111 251 111 367 1 115 -22 184 -83 254 -82 93 -191
126 -300 91z"/>
<path d="M1142 3785 c-104 -24 -234 -73 -271 -103 -162 -131 -29 -389 172
-334 20 6 37 8 37 6 0 -2 -11 -21 -24 -42 -35 -56 -90 -167 -168 -342 -161
-357 -208 -489 -208 -580 0 -62 35 -127 89 -165 37 -26 52 -30 104 -30 75 1
98 12 214 107 137 111 162 135 410 381 128 127 235 228 239 225 24 -25 -124
-614 -212 -848 -20 -52 -59 -136 -85 -187 -52 -97 -59 -135 -34 -183 45 -88
180 -105 265 -33 112 94 318 760 381 1233 12 83 6 226 -10 281 -17 55 -52 101
-96 126 -130 73 -256 18 -497 -215 -65 -63 -118 -112 -118 -108 0 4 49 102
109 219 114 224 140 303 125 385 -15 82 -66 153 -137 189 -64 33 -186 40 -285
18z"/>
<path d="M4214 3785 c-155 -34 -265 -131 -300 -265 -35 -139 40 -282 183 -347
77 -35 184 -30 262 12 72 40 133 95 186 169 58 82 135 243 135 284 0 78 -61
135 -160 151 -87 14 -231 12 -306 -4z m32 -321 c-28 -25 -47 -27 -53 -8 -4 13
34 32 62 33 18 0 17 -3 -9 -25z"/>
<path d="M3475 3357 c-92 -44 -159 -142 -196 -285 -24 -95 -24 -123 1 -171 40
-79 120 -109 238 -91 232 38 369 218 306 403 -17 50 -78 118 -128 144 -17 9
-62 18 -101 20 -58 3 -78 0 -120 -20z"/>
<path d="M4879 2797 c-63 -33 -240 -232 -281 -315 -42 -86 -50 -179 -20 -238
73 -142 274 -166 417 -49 130 106 195 454 99 526 -11 8 -24 23 -30 34 -17 31
-74 65 -109 65 -17 0 -52 -10 -76 -23z"/>
<path d="M4159 2442 c-112 -58 -139 -147 -95 -317 14 -55 23 -101 21 -103 -2
-2 -34 8 -72 23 -226 91 -395 32 -497 -172 -66 -131 -59 -339 21 -627 30 -111
42 -135 89 -176 58 -50 109 -70 187 -70 176 0 239 110 188 332 -11 46 -23 107
-26 136 l-7 53 39 -20 c22 -11 45 -27 53 -36 24 -29 88 -55 132 -55 60 1 166
31 229 67 63 35 121 106 146 178 28 79 23 279 -10 421 -53 230 -68 275 -106
317 -74 82 -191 102 -292 49z"/>
<path d="M2935 2310 c-27 -5 -81 -19 -120 -31 -85 -28 -445 -208 -495 -248
-34 -27 -41 -29 -102 -24 -96 8 -154 -14 -235 -91 -36 -33 -74 -79 -84 -101
-53 -116 19 -251 141 -263 l49 -4 11 -57 c6 -31 16 -73 21 -95 6 -21 9 -39 7
-40 -2 -1 -24 -10 -50 -20 -26 -9 -69 -38 -96 -64 -88 -83 -122 -183 -122
-352 1 -167 49 -278 184 -419 114 -118 312 -250 437 -290 122 -39 237 -32 406
24 112 37 255 105 291 139 37 33 52 70 52 128 -1 129 -100 224 -214 205 -19
-3 -70 -26 -114 -52 -106 -62 -176 -80 -249 -65 -84 18 -184 62 -256 113 -122
87 -208 245 -149 275 21 11 36 7 87 -28 22 -15 51 -31 65 -35 14 -4 36 -15 50
-25 96 -67 242 -43 285 47 19 40 19 104 0 150 -9 21 -44 67 -79 103 -94 97
-135 188 -170 381 -19 103 -20 129 -3 129 6 0 80 38 162 85 131 74 284 145
314 145 21 0 -86 -302 -166 -470 -60 -124 -72 -177 -53 -235 14 -44 62 -100
101 -121 73 -37 194 -3 237 68 70 114 128 251 228 528 63 177 78 229 82 292 4
69 2 83 -22 132 -69 140 -250 218 -431 186z"/>
</g>
</svg>
