<?xml version="1.0" standalone="no"?>
<!DOCTYPE svg PUBLIC "-//W3C//DTD SVG 20010904//EN"
 "http://www.w3.org/TR/2001/REC-SVG-20010904/DTD/svg10.dtd">
<svg version="1.0" xmlns="http://www.w3.org/2000/svg"
 width="600.000000pt" height="600.000000pt" viewBox="0 0 600.000000 600.000000"
 preserveAspectRatio="xMidYMid meet">
<metadata>
Created by potrace 1.15, written by Peter Selinger 2001-2017
</metadata>
<g transform="translate(0.000000,600.000000) scale(0.100000,-0.100000)"
fill="#16364b" stroke="none">
<path d="M2105 5816 c-16 -7 -73 -62 -126 -122 -53 -60 -155 -174 -228 -254
-195 -213 -250 -300 -251 -398 0 -90 44 -152 129 -180 108 -37 228 6 704 256
200 105 219 121 224 194 7 92 -52 152 -148 151 -38 -1 -73 -15 -193 -78 -80
-42 -146 -73 -146 -68 0 5 16 25 36 44 20 18 76 80 124 136 93 107 108 139 97
209 -16 97 -127 152 -222 110z"/>
<path d="M3082 5699 c-89 -19 -139 -135 -96 -226 21 -43 39 -55 134 -89 202
-71 346 -173 399 -280 34 -67 40 -184 13 -234 -27 -50 -103 -104 -204 -146
-97 -41 -136 -74 -148 -130 -18 -79 25 -153 101 -176 35 -10 47 -8 111 17 265
101 415 249 443 436 8 56 -10 194 -37 279 -71 224 -257 397 -553 515 -91 36
-123 43 -163 34z"/>
<path d="M987 5345 c-148 -55 -295 -173 -347 -279 -92 -186 -15 -433 181 -580
102 -77 176 -84 244 -25 68 60 69 157 3 216 -100 88 -136 130 -147 169 -25 93
29 159 174 213 72 27 102 53 116 102 30 97 -47 200 -148 198 -21 0 -55 -7 -76
-14z"/>
<path d="M2739 4967 c-112 -32 -199 -118 -239 -237 -27 -80 -23 -164 10 -229
32 -63 111 -136 190 -176 76 -38 214 -70 265 -61 94 18 143 125 97 216 -22 46
-89 80 -155 80 -65 0 -107 22 -107 58 0 44 14 56 68 56 114 2 182 119 126 217
-38 66 -160 102 -255 76z"/>
<path d="M4765 4921 c-89 -41 -109 -93 -95 -240 24 -248 104 -403 245 -471
140 -68 312 -11 380 125 84 168 -6 367 -224 495 -83 48 -223 110 -248 110 -10
0 -36 -9 -58 -19z"/>
<path d="M1876 4539 c-107 -26 -225 -121 -245 -196 -41 -151 149 -259 254
-143 25 27 67 50 94 50 10 0 31 -15 46 -32 44 -53 74 -68 134 -68 69 0 117 28
142 84 24 53 24 80 -2 132 -47 98 -180 176 -308 180 -42 2 -93 -1 -115 -7z"/>
<path d="M2843 3911 c-63 -29 -79 -69 -86 -217 -9 -159 -31 -316 -64 -439 -36
-137 -39 -201 -13 -243 28 -45 76 -72 128 -72 110 0 146 58 209 340 21 93 27
150 31 301 5 203 -1 237 -46 291 -25 29 -77 58 -104 58 -7 0 -32 -9 -55 -19z"/>
<path d="M1215 3861 c-167 -27 -318 -90 -360 -151 -62 -90 -38 -213 54 -272
41 -26 53 -29 109 -26 34 2 62 3 62 1 0 -1 -29 -47 -65 -102 -85 -130 -145
-258 -245 -521 -134 -352 -135 -356 -121 -409 7 -25 22 -57 34 -70 53 -58 157
-77 232 -42 22 10 74 47 116 82 226 191 459 395 571 500 69 65 131 119 137
119 7 0 9 -14 7 -37 -3 -21 -8 -65 -11 -98 -12 -124 -74 -325 -156 -506 -238
-523 -261 -591 -219 -657 46 -74 162 -81 240 -15 40 33 75 104 219 441 141
331 182 450 221 642 62 302 29 518 -92 598 -35 22 -52 27 -107 27 -107 0 -204
-58 -399 -239 -52 -47 -96 -86 -99 -86 -2 0 8 24 24 53 16 28 62 112 103 185
75 137 110 235 110 309 0 55 -34 146 -72 188 -60 70 -178 104 -293 86z"/>
<path d="M4194 3776 c-120 -28 -213 -97 -260 -193 -73 -148 -1 -344 154 -420
49 -24 69 -28 142 -28 76 0 93 4 151 32 129 64 220 187 288 390 32 97 10 167
-65 204 -56 27 -316 36 -410 15z m86 -305 c0 -12 -46 -41 -65 -41 -23 0 -13
23 16 37 28 15 49 17 49 4z"/>
<path d="M3464 3386 c-42 -19 -101 -72 -130 -118 -29 -45 -80 -194 -89 -258
-8 -57 24 -124 75 -158 32 -22 43 -23 140 -20 117 5 166 22 238 84 147 125
117 386 -53 465 -47 22 -136 24 -181 5z"/>
<path d="M4895 2861 c-16 -10 -82 -72 -146 -138 -131 -135 -170 -200 -177
-294 -7 -99 35 -176 122 -222 62 -33 164 -30 236 5 105 52 191 164 225 293 18
70 19 202 2 231 -24 41 -93 116 -119 130 -38 20 -107 18 -143 -5z"/>
<path d="M4130 2487 c-59 -31 -82 -52 -106 -92 -37 -65 -40 -123 -10 -245 31
-127 32 -144 9 -136 -10 3 -56 19 -103 35 -142 51 -241 40 -339 -39 -70 -54
-121 -184 -121 -304 0 -141 82 -533 125 -597 31 -48 79 -84 132 -99 120 -36
263 59 294 194 10 47 9 62 -20 170 -18 65 -30 120 -27 123 6 6 45 -15 79 -43
16 -13 54 -31 85 -40 71 -21 152 -10 245 34 182 85 240 264 172 533 -32 127
-126 397 -150 429 -44 59 -92 84 -170 88 -46 2 -79 -2 -95 -11z"/>
<path d="M2950 2249 c-107 -19 -198 -54 -401 -157 l-206 -104 -47 36 c-83 63
-186 71 -272 21 -50 -30 -137 -123 -166 -179 -64 -121 11 -271 141 -284 55 -5
56 -6 66 -85 5 -41 4 -57 -4 -57 -30 0 -126 -58 -165 -100 -87 -93 -118 -191
-118 -369 0 -126 17 -203 72 -316 95 -198 296 -358 535 -426 105 -30 289 -33
380 -5 124 37 327 163 376 234 33 49 38 135 10 190 -22 44 -86 89 -131 92 -68
5 -89 -2 -183 -65 -138 -91 -205 -107 -331 -81 -149 31 -248 106 -317 242 -38
75 -44 95 -44 150 0 35 5 68 12 75 22 22 65 -2 137 -77 91 -97 119 -114 186
-114 129 0 225 130 190 259 -8 32 -27 57 -72 100 -69 65 -111 139 -139 249
-26 102 -25 118 8 127 14 3 87 43 161 87 122 73 318 167 350 168 6 0 12 -8 12
-17 0 -57 -88 -272 -188 -463 -57 -108 -66 -132 -65 -177 1 -122 134 -221 248
-183 64 21 93 57 164 199 189 377 261 603 240 755 -15 113 -90 216 -187 257
-54 24 -173 32 -252 18z"/>
</g>
</svg>
