<?xml version="1.0" standalone="no"?>
<!DOCTYPE svg PUBLIC "-//W3C//DTD SVG 20010904//EN"
 "http://www.w3.org/TR/2001/REC-SVG-20010904/DTD/svg10.dtd">
<svg version="1.0" xmlns="http://www.w3.org/2000/svg"
 width="600.000000pt" height="600.000000pt" viewBox="0 0 600.000000 600.000000"
 preserveAspectRatio="xMidYMid meet">
<metadata>
Created by potrace 1.15, written by Peter Selinger 2001-2017
</metadata>
<g transform="translate(0.000000,600.000000) scale(0.100000,-0.100000)"
fill="#16364b" stroke="none">
<path d="M2367 5400 l-25 -20 -5 -222 c-4 -184 -8 -236 -25 -296 -48 -173
-130 -291 -242 -351 -75 -40 -90 -55 -90 -90 0 -33 27 -61 59 -61 41 0 145 64
211 130 101 100 173 254 205 437 16 87 23 411 10 452 -5 16 -43 41 -64 41 -5
0 -20 -9 -34 -20z"/>
<path d="M3532 5284 c-24 -11 -54 -85 -48 -118 24 -125 162 -275 254 -276 76
-1 117 72 89 154 -23 67 -100 178 -145 210 -38 26 -121 43 -150 30z"/>
<path d="M2995 5087 c-152 -72 -216 -300 -106 -374 46 -31 95 -29 157 6 189
109 221 373 47 388 -36 3 -61 -2 -98 -20z m85 -117 c0 -34 -78 -140 -102 -140
-13 0 -9 39 7 69 15 30 70 81 86 81 5 0 9 -5 9 -10z"/>
<path d="M4773 4754 c-17 -9 -36 -28 -42 -42 -7 -16 -12 -98 -12 -202 -1 -261
29 -383 110 -437 67 -45 136 -20 177 64 54 110 28 298 -66 491 -63 127 -103
157 -167 126z"/>
<path d="M2644 4226 c-97 -44 -108 -167 -22 -249 78 -74 218 -111 330 -88 126
26 194 88 185 170 -7 64 -34 84 -177 131 -143 47 -262 61 -316 36z"/>
<path d="M5229 3974 c-102 -31 -194 -123 -220 -217 -6 -23 -9 -76 -7 -117 13
-222 185 -358 388 -306 95 24 158 57 218 111 79 71 97 112 96 215 0 137 -54
225 -180 294 -61 34 -69 36 -157 35 -51 0 -113 -7 -138 -15z m149 -300 c31 -9
28 -31 -7 -48 -26 -14 -30 -14 -45 3 -36 40 -11 62 52 45z"/>
<path d="M4215 3766 c-75 -19 -125 -48 -178 -105 -69 -73 -92 -129 -92 -221 0
-90 22 -138 89 -197 159 -140 427 -61 502 147 9 25 18 92 21 151 8 159 -14
192 -148 224 -76 17 -126 18 -194 1z m65 -264 c0 -18 -33 -52 -51 -52 -24 0
-24 15 1 40 20 20 50 27 50 12z"/>
<path d="M1184 3530 c-110 -16 -176 -50 -241 -124 -86 -98 -108 -238 -54 -351
56 -120 216 -234 379 -271 215 -48 283 -182 482 -954 32 -124 68 -251 80 -282
29 -77 91 -168 148 -219 86 -75 249 -140 432 -173 270 -48 1528 -72 1743 -33
148 26 294 78 477 168 259 127 373 213 471 355 101 148 150 370 128 586 -20
195 -83 313 -272 506 -176 180 -335 244 -546 221 -173 -19 -315 -82 -570 -251
-214 -141 -287 -176 -409 -196 -160 -26 -292 3 -516 117 -183 93 -388 224
-584 373 -221 168 -486 346 -597 402 -109 54 -294 111 -406 126 -46 5 -86 9
-89 9 -3 -1 -28 -5 -56 -9z m186 -347 c243 -51 411 -143 809 -447 501 -381
627 -454 906 -525 184 -46 339 -49 505 -9 122 29 202 72 495 266 80 53 225
121 295 138 81 21 184 14 246 -16 99 -49 215 -185 254 -300 30 -88 24 -242
-13 -342 -69 -190 -140 -252 -427 -373 -219 -92 -385 -134 -570 -141 -147 -7
-1016 13 -1180 26 -147 11 -319 42 -398 72 -30 11 -75 39 -98 60 -80 74 -104
146 -209 628 -36 168 -80 348 -96 400 -56 173 -145 301 -271 390 -84 59 -149
85 -264 105 -86 15 -115 25 -146 53 -50 43 4 48 162 15z"/>
<path d="M2226 2334 c-26 -26 -20 -69 15 -98 37 -31 53 -32 79 -6 26 26 26 81
2 103 -23 21 -76 22 -96 1z"/>
<path d="M2861 2051 c-12 -12 -21 -32 -21 -46 0 -28 43 -75 67 -75 48 0 82 63
60 109 -17 35 -76 42 -106 12z"/>
<path d="M3440 3353 c-34 -28 -160 -274 -160 -312 0 -31 35 -61 72 -61 44 0
107 70 160 176 51 103 61 171 29 203 -28 28 -63 26 -101 -6z"/>
<path d="M470 2040 c-30 -30 -25 -70 13 -112 17 -21 53 -62 80 -92 83 -96 192
-132 242 -81 67 66 1 152 -205 264 -85 46 -102 49 -130 21z"/>
<path d="M5385 1113 c-42 -6 -61 -27 -86 -92 -30 -80 -23 -165 15 -198 42 -36
99 -32 141 10 38 38 55 89 55 169 0 86 -42 123 -125 111z"/>
</g>
</svg>
