<?xml version="1.0" standalone="no"?>
<!DOCTYPE svg PUBLIC "-//W3C//DTD SVG 20010904//EN"
 "http://www.w3.org/TR/2001/REC-SVG-20010904/DTD/svg10.dtd">
<svg version="1.0" xmlns="http://www.w3.org/2000/svg"
 width="600.000000pt" height="600.000000pt" viewBox="0 0 600.000000 600.000000"
 preserveAspectRatio="xMidYMid meet">
<metadata>
Created by potrace 1.15, written by Peter Selinger 2001-2017
</metadata>
<g transform="translate(0.000000,600.000000) scale(0.100000,-0.100000)"
fill="#16364b" stroke="none">
<path d="M2075 5835 c-43 -15 -52 -24 -204 -215 -55 -69 -153 -191 -218 -271
-161 -197 -184 -235 -189 -306 -7 -79 21 -126 96 -166 50 -26 62 -29 126 -24
92 7 178 43 529 223 311 161 320 168 313 267 -5 64 -25 98 -78 135 -38 25
-101 29 -140 9 -14 -8 -71 -40 -128 -72 -57 -31 -105 -55 -108 -52 -3 2 20 33
49 68 30 35 75 95 101 132 41 61 46 74 46 124 0 115 -92 185 -195 148z"/>
<path d="M3035 5666 c-41 -18 -83 -69 -91 -110 -8 -46 25 -120 63 -139 15 -8
71 -29 123 -47 306 -104 440 -238 440 -439 0 -105 -52 -162 -191 -211 -133
-47 -171 -103 -144 -215 7 -32 52 -73 91 -84 70 -19 260 60 358 150 102 93
167 242 167 381 0 106 -14 177 -51 255 -99 213 -261 338 -568 437 -121 39
-151 42 -197 22z"/>
<path d="M929 5355 c-142 -46 -247 -136 -308 -265 -24 -50 -26 -66 -26 -180 0
-124 0 -126 38 -204 68 -143 238 -287 323 -273 75 12 144 88 144 158 -1 44
-34 99 -84 137 -92 69 -129 138 -112 206 11 44 64 94 122 116 91 34 112 48
140 95 63 109 -4 236 -123 235 -21 -1 -72 -12 -114 -25z"/>
<path d="M2742 4974 c-62 -31 -106 -79 -141 -154 -22 -47 -26 -69 -26 -150 0
-90 2 -98 36 -160 61 -111 168 -173 324 -185 56 -5 77 -3 105 12 101 53 109
207 14 269 -14 10 -56 21 -92 26 -85 10 -102 16 -102 36 0 15 10 17 64 17 55
0 68 4 91 25 43 40 58 77 52 134 -4 44 -10 55 -50 91 -77 70 -182 85 -275 39z"/>
<path d="M4787 4940 c-49 -15 -94 -57 -113 -106 -15 -41 -16 -57 -6 -164 14
-142 45 -245 101 -339 67 -113 149 -171 253 -179 205 -16 348 192 279 406 -41
126 -152 238 -327 329 -108 56 -144 66 -187 53z"/>
<path d="M1868 4595 c-89 -24 -195 -100 -218 -155 -16 -40 -8 -120 15 -152 34
-44 67 -62 125 -66 47 -3 60 0 90 22 96 69 120 70 164 7 43 -61 87 -83 157
-79 70 5 114 35 141 95 26 60 17 108 -35 186 -46 68 -114 116 -201 142 -60 18
-174 18 -238 0z"/>
<path d="M2948 3924 c-88 -27 -167 -131 -203 -269 -22 -82 -22 -252 0 -334 44
-171 125 -252 233 -236 36 5 56 16 89 50 40 39 43 46 43 96 0 40 -6 63 -23 89
-35 52 -47 95 -47 171 0 92 9 113 58 127 47 14 87 57 103 111 26 86 -23 169
-114 196 -61 18 -78 18 -139 -1z"/>
<path d="M1125 3885 c-199 -52 -251 -79 -284 -148 -70 -145 49 -300 220 -284
60 5 60 5 46 -16 -252 -387 -363 -602 -447 -862 -34 -109 -34 -144 1 -202 58
-94 207 -105 290 -22 18 18 151 130 351 296 42 34 140 122 219 194 156 142
207 184 214 177 9 -8 -23 -168 -59 -298 -69 -253 -120 -370 -349 -812 -35 -68
-39 -81 -33 -123 13 -84 93 -145 169 -130 63 13 99 48 163 156 192 324 273
543 379 1031 72 327 44 484 -97 543 -112 46 -210 3 -443 -195 -118 -101 -124
-103 -80 -34 155 241 187 305 204 400 26 143 -47 287 -173 339 -54 23 -184 18
-291 -10z"/>
<path d="M4199 3782 c-122 -32 -206 -97 -260 -202 -31 -61 -32 -166 -2 -231
28 -63 82 -120 140 -149 42 -22 61 -25 148 -25 93 0 105 2 167 33 96 47 182
143 248 276 27 56 53 116 56 133 9 44 -25 115 -67 141 -70 43 -306 56 -430 24z
m72 -302 c-24 -20 -61 -27 -61 -12 0 12 40 31 65 31 19 0 19 -1 -4 -19z"/>
<path d="M3449 3390 c-79 -43 -148 -165 -185 -329 -20 -86 -9 -133 41 -181 36
-35 37 -35 140 -38 93 -3 110 -1 157 21 74 34 113 69 142 131 66 140 31 302
-84 381 -56 39 -155 46 -211 15z"/>
<path d="M4898 2922 c-40 -26 -132 -127 -188 -206 -68 -95 -92 -162 -94 -261
-1 -100 25 -162 87 -203 35 -23 51 -27 116 -27 66 1 84 5 140 34 74 38 159
118 190 179 47 93 62 202 40 303 -9 43 -22 64 -68 112 -31 32 -68 65 -83 73
-37 19 -107 18 -140 -4z"/>
<path d="M4065 2526 c-60 -28 -97 -66 -124 -126 -30 -65 -26 -124 14 -249 19
-59 35 -114 35 -123 0 -11 -17 -8 -87 15 -100 34 -211 41 -277 18 -52 -18
-122 -84 -154 -146 -26 -48 -27 -57 -27 -200 1 -163 14 -241 81 -459 38 -123
61 -163 118 -200 144 -93 320 -26 366 141 13 44 12 56 -17 168 -17 66 -29 122
-27 124 2 2 22 -13 45 -32 86 -74 186 -84 303 -29 78 36 139 99 168 171 19 47
22 75 22 171 0 65 -8 154 -18 205 -32 170 -96 418 -115 449 -71 113 -195 155
-306 102z"/>
<path d="M2905 2181 c-89 -24 -188 -67 -392 -170 l-163 -81 -20 39 c-27 55
-84 107 -136 127 -60 23 -147 15 -201 -19 -81 -51 -201 -208 -210 -275 -14
-105 79 -212 185 -212 33 0 41 -4 46 -22 13 -52 8 -63 -37 -75 -59 -16 -157
-90 -195 -148 -87 -131 -112 -319 -66 -485 52 -184 246 -431 415 -527 108 -62
258 -94 430 -94 105 0 139 4 203 25 135 43 325 175 366 256 46 91 12 208 -73
249 -83 40 -166 24 -264 -52 -81 -62 -142 -93 -209 -107 -160 -33 -368 89
-457 269 -31 62 -37 84 -37 138 0 35 5 73 10 84 16 28 56 24 82 -8 13 -16 54
-60 93 -99 54 -54 81 -73 116 -83 115 -32 239 65 239 187 0 57 -16 89 -76 152
-54 56 -103 142 -123 215 -16 57 -14 63 19 70 16 4 85 43 152 87 171 111 364
205 383 186 7 -7 -78 -280 -120 -382 -20 -49 -56 -128 -81 -175 -34 -66 -44
-95 -44 -133 0 -128 100 -206 230 -179 125 25 168 100 316 536 84 249 102 342
85 436 -21 123 -110 236 -209 268 -68 22 -181 23 -257 2z"/>
</g>
</svg>
