<?xml version="1.0" standalone="no"?>
<!DOCTYPE svg PUBLIC "-//W3C//DTD SVG 20010904//EN"
 "http://www.w3.org/TR/2001/REC-SVG-20010904/DTD/svg10.dtd">
<svg version="1.0" xmlns="http://www.w3.org/2000/svg"
 width="600.000000pt" height="600.000000pt" viewBox="0 0 600.000000 600.000000"
 preserveAspectRatio="xMidYMid meet">
<metadata>
Created by potrace 1.15, written by Peter Selinger 2001-2017
</metadata>
<g transform="translate(0.000000,600.000000) scale(0.100000,-0.100000)"
fill="#16364b" stroke="none">
<path d="M3125 5679 c-74 -21 -117 -105 -101 -193 10 -50 136 -181 305 -315
139 -110 211 -180 211 -205 0 -29 -115 -125 -294 -245 -69 -47 -81 -52 -103
-42 -44 20 -101 12 -191 -26 -121 -51 -192 -95 -248 -150 -87 -87 -115 -191
-75 -278 38 -84 108 -127 216 -133 61 -3 75 -1 104 20 68 46 89 129 51 203
-11 21 -19 39 -17 40 29 23 49 24 87 4 67 -35 116 -24 238 52 248 154 441 320
492 422 77 154 17 300 -207 504 -54 48 -154 143 -223 211 -143 139 -170 153
-245 131z"/>
<path d="M1836 5400 c-58 -18 -106 -85 -106 -148 0 -20 -27 -68 -90 -157 -98
-140 -133 -206 -150 -281 -24 -107 24 -198 130 -247 120 -55 542 -18 625 54
83 73 59 196 -48 248 -55 27 -73 26 -228 -6 -71 -14 -132 -24 -135 -20 -4 3
26 52 66 108 40 56 88 131 107 166 56 109 43 206 -37 264 -30 22 -95 31 -134
19z"/>
<path d="M1110 5333 c-41 -23 -102 -73 -166 -137 -83 -84 -108 -116 -142 -186
-51 -103 -66 -177 -59 -290 10 -156 89 -338 168 -384 47 -28 135 -26 183 3 78
48 88 133 28 227 -50 77 -62 114 -62 189 0 49 6 75 31 123 32 64 106 140 168
172 67 34 111 102 111 170 0 43 -42 111 -80 131 -54 29 -105 24 -180 -18z"/>
<path d="M4592 4734 c-91 -47 -109 -179 -34 -248 l21 -18 -25 -26 c-49 -54
-44 -146 13 -199 135 -128 402 -137 540 -18 115 98 114 257 -1 364 -114 103
-424 191 -514 145z"/>
<path d="M1830 4310 c-110 -20 -195 -67 -299 -165 -80 -76 -101 -114 -101
-184 0 -42 5 -56 30 -85 65 -74 148 -72 238 5 31 27 82 62 112 77 50 25 65 27
170 27 106 0 118 2 147 24 43 32 67 93 58 149 -9 60 -72 124 -140 141 -65 16
-161 22 -215 11z"/>
<path d="M4052 3754 c-80 -21 -136 -64 -168 -129 -23 -49 -26 -64 -22 -124 6
-86 42 -154 115 -221 92 -84 216 -112 329 -73 60 20 150 106 184 177 36 75 38
133 6 179 -14 21 -26 47 -26 59 0 32 -38 87 -73 104 -39 21 -166 43 -237 43
-30 0 -79 -7 -108 -15z"/>
<path d="M2625 3753 c-134 -21 -281 -73 -319 -112 -89 -93 -20 -261 107 -261
19 0 56 7 83 15 142 44 254 58 254 32 0 -27 -33 -124 -62 -182 -39 -77 -117
-193 -260 -386 -137 -184 -140 -189 -141 -249 -1 -62 30 -113 83 -134 52 -21
75 -20 126 3 33 15 65 49 149 157 307 397 414 606 417 819 1 93 -24 164 -75
217 -58 60 -114 80 -232 83 -55 2 -113 1 -130 -2z"/>
<path d="M1109 3591 c-72 -23 -257 -122 -286 -153 -79 -84 -65 -217 30 -292
35 -28 46 -31 105 -31 37 0 77 4 89 8 23 8 23 8 -7 -72 -16 -45 -61 -150 -99
-234 -98 -218 -99 -220 -132 -345 -37 -145 -53 -280 -39 -333 24 -89 109 -147
226 -156 61 -5 77 -3 101 13 56 38 431 433 563 593 l135 164 3 -41 c2 -23 -6
-97 -18 -166 -21 -123 -32 -169 -130 -516 -60 -214 -90 -348 -90 -405 0 -81
67 -145 153 -145 85 0 140 47 153 131 13 91 86 402 143 614 75 274 89 344 101
499 26 317 -51 470 -237 468 -108 -1 -195 -68 -344 -265 -105 -139 -180 -229
-185 -224 -2 2 10 41 27 88 77 207 129 422 129 529 0 217 -177 340 -391 271z"/>
<path d="M3608 3296 c-134 -48 -216 -144 -259 -303 -26 -97 -21 -139 22 -188
51 -58 149 -70 209 -27 14 10 61 24 105 31 150 24 239 90 271 199 28 97 -3
188 -84 246 -74 54 -181 71 -264 42z"/>
<path d="M4762 2980 c-68 -16 -132 -97 -145 -186 -19 -118 87 -354 188 -420
82 -53 180 -30 217 52 37 84 3 211 -68 257 -42 27 -49 48 -30 86 58 112 -39
239 -162 211z"/>
<path d="M2895 2553 c-93 -20 -199 -61 -382 -148 -169 -81 -206 -115 -219
-201 -17 -117 96 -230 212 -211 18 3 122 46 232 96 110 50 207 91 216 91 9 0
16 -7 16 -15 0 -40 -67 -216 -131 -343 -38 -78 -73 -157 -76 -176 -11 -71 39
-161 109 -197 62 -32 154 -24 205 17 77 61 243 443 283 651 18 91 9 217 -19
273 -27 53 -84 115 -126 137 -82 44 -196 53 -320 26z"/>
<path d="M4414 2329 c-57 -16 -127 -71 -151 -119 -25 -51 -29 -108 -12 -194 7
-31 10 -59 7 -62 -3 -3 -52 13 -109 34 -180 69 -279 77 -383 32 -58 -25 -145
-110 -173 -170 -41 -89 -48 -145 -46 -345 3 -268 13 -354 50 -413 89 -145 287
-144 378 2 l30 49 5 197 5 197 80 -24 c155 -48 162 -48 277 -26 128 25 204 60
267 123 96 95 132 231 111 412 -6 54 -18 121 -26 148 -37 126 -177 198 -310
159z"/>
<path d="M2130 1868 c-109 -31 -165 -144 -126 -254 7 -22 25 -97 40 -169 54
-261 136 -461 233 -565 31 -34 84 -81 118 -105 77 -56 221 -125 257 -125 31 0
79 -22 228 -105 133 -74 183 -88 289 -83 74 3 97 9 165 42 97 47 171 117 182
171 16 88 -23 187 -88 221 -58 31 -119 22 -193 -26 -63 -41 -68 -42 -104 -32
-52 16 -217 112 -269 157 -31 27 -55 63 -86 130 -72 153 -147 217 -266 227
l-35 3 -41 162 c-23 89 -51 186 -63 216 -22 53 -65 104 -106 125 -33 16 -98
21 -135 10z"/>
</g>
</svg>
