<?xml version="1.0" standalone="no"?>
<!DOCTYPE svg PUBLIC "-//W3C//DTD SVG 20010904//EN"
 "http://www.w3.org/TR/2001/REC-SVG-20010904/DTD/svg10.dtd">
<svg version="1.0" xmlns="http://www.w3.org/2000/svg"
 width="600.000000pt" height="600.000000pt" viewBox="0 0 600.000000 600.000000"
 preserveAspectRatio="xMidYMid meet">
<metadata>
Created by potrace 1.15, written by Peter Selinger 2001-2017
</metadata>
<g transform="translate(0.000000,600.000000) scale(0.100000,-0.100000)"
fill="#16364b" stroke="none">
<path d="M2943 5544 c-84 -42 -99 -170 -28 -244 13 -14 38 -56 56 -93 40 -87
50 -203 25 -289 -20 -70 -20 -111 -1 -148 43 -83 183 -78 241 8 35 51 59 165
57 272 -3 161 -55 319 -142 428 -63 79 -135 102 -208 66z"/>
<path d="M2016 5420 c-57 -18 -96 -73 -96 -138 0 -100 72 -203 190 -271 84
-48 100 -77 145 -268 22 -92 44 -162 57 -178 63 -81 194 -72 248 17 27 44 25
99 -5 252 -30 152 -43 190 -86 262 -42 70 -90 111 -174 153 -56 27 -69 38 -84
74 -22 49 -43 71 -94 92 -40 17 -58 17 -101 5z"/>
<path d="M1473 4780 c-72 -10 -113 -29 -142 -66 -57 -73 -43 -173 31 -226 31
-22 42 -23 213 -24 201 -2 302 -17 384 -58 84 -43 154 -30 205 36 47 63 43
144 -10 207 -28 34 -139 83 -252 112 -88 23 -327 34 -429 19z"/>
<path d="M4323 4700 c-42 -25 -63 -68 -63 -126 0 -37 8 -59 39 -108 72 -115
161 -306 197 -427 25 -84 78 -129 151 -129 76 0 143 68 143 146 0 92 -137 420
-234 559 -23 32 -57 70 -75 82 -43 29 -113 31 -158 3z"/>
<path d="M3161 4517 c-14 -6 -54 -46 -89 -87 -156 -182 -212 -237 -346 -344
-134 -107 -149 -124 -169 -188 -9 -27 12 -87 43 -121 27 -30 32 -32 97 -32
l68 0 115 86 c63 47 150 115 192 152 96 84 285 298 305 345 27 64 -9 152 -77
187 -35 18 -106 19 -139 2z"/>
<path d="M1682 4323 c-74 -36 -101 -125 -60 -203 32 -63 69 -83 198 -109 222
-44 387 -46 530 -5 139 40 179 168 81 257 -50 45 -90 53 -203 37 -101 -13
-186 -8 -348 21 -128 23 -156 23 -198 2z"/>
<path d="M3810 4037 c-14 -7 -72 -52 -129 -100 -57 -48 -147 -113 -200 -146
-112 -69 -320 -173 -438 -220 -130 -52 -176 -124 -137 -220 31 -79 96 -105
186 -75 215 71 507 236 785 443 89 67 115 92 128 124 47 116 -88 250 -195 194z"/>
<path d="M2250 3774 c-135 -38 -292 -50 -428 -31 -127 16 -166 12 -216 -26
-89 -69 -85 -194 9 -248 65 -38 362 -52 530 -24 131 21 286 62 314 83 68 50
87 123 52 195 -39 81 -107 94 -261 51z"/>
<path d="M4973 3665 c-59 -30 -102 -85 -113 -145 -7 -40 -6 -53 25 -190 34
-153 7 -265 -116 -475 -80 -136 -160 -248 -263 -364 -38 -42 -70 -89 -76 -110
-40 -143 37 -281 172 -310 102 -22 174 11 273 126 73 86 161 212 279 402 175
279 229 431 229 641 1 176 -51 318 -139 385 -87 67 -187 81 -271 40z"/>
<path d="M1973 3130 c-98 -44 -114 -180 -30 -258 59 -55 231 -104 407 -117 52
-3 112 -11 132 -17 30 -9 46 -8 83 7 134 50 136 254 3 304 -15 5 -84 15 -155
21 -160 14 -220 25 -289 56 -66 29 -95 30 -151 4z"/>
<path d="M4393 3137 c-12 -7 -58 -43 -103 -82 -274 -235 -465 -320 -808 -359
-76 -9 -132 -21 -148 -31 -64 -42 -84 -142 -41 -205 56 -82 124 -95 325 -61
166 28 288 70 472 163 267 134 488 287 524 361 51 108 -28 228 -150 227 -27
-1 -59 -6 -71 -13z"/>
<path d="M1425 2935 c-45 -23 -91 -80 -106 -133 -10 -34 -14 -109 -13 -267 0
-238 12 -320 69 -492 65 -192 192 -390 278 -432 85 -41 180 -20 245 53 55 63
57 170 3 234 -171 204 -258 512 -223 793 16 128 -3 185 -78 237 -40 27 -128
30 -175 7z"/>
<path d="M2093 2330 c-84 -51 -84 -190 1 -245 14 -9 59 -25 101 -36 94 -23
159 -51 205 -88 52 -42 74 -51 121 -51 56 0 107 33 130 84 23 52 23 80 0 132
-36 78 -168 157 -338 200 -117 29 -177 31 -220 4z"/>
<path d="M3995 2034 c-425 -137 -561 -170 -875 -209 -200 -25 -235 -33 -278
-64 -65 -48 -99 -154 -72 -223 17 -44 67 -97 107 -114 100 -43 371 2 853 142
107 31 287 83 400 115 249 72 253 73 290 115 106 122 13 316 -151 313 -26 0
-137 -30 -274 -75z"/>
<path d="M4851 1695 c-19 -9 -73 -53 -120 -98 -167 -160 -249 -199 -626 -296
-540 -139 -542 -140 -595 -213 -73 -100 -35 -236 77 -283 89 -37 206 -11 822
182 228 72 498 234 631 380 84 91 100 156 60 239 -42 85 -162 128 -249 89z"/>
<path d="M2084 1509 c-66 -19 -110 -111 -92 -194 27 -121 216 -271 436 -346
161 -55 273 -71 322 -46 69 35 93 148 46 217 -31 46 -52 56 -168 79 -147 29
-215 67 -329 182 -72 72 -107 100 -135 108 -22 6 -41 11 -44 10 -3 0 -19 -5
-36 -10z"/>
<path d="M2057 930 c-40 -12 -95 -57 -118 -94 -23 -37 -25 -112 -5 -160 22
-54 80 -100 204 -164 114 -59 274 -118 443 -164 121 -32 328 -33 448 0 136 37
234 79 268 114 80 82 83 195 9 276 -52 58 -117 66 -243 28 -219 -66 -355 -57
-593 39 -58 23 -143 61 -190 85 -89 45 -166 59 -223 40z"/>
</g>
</svg>
