<?xml version="1.0" standalone="no"?>
<!DOCTYPE svg PUBLIC "-//W3C//DTD SVG 20010904//EN"
 "http://www.w3.org/TR/2001/REC-SVG-20010904/DTD/svg10.dtd">
<svg version="1.0" xmlns="http://www.w3.org/2000/svg"
 width="600.000000pt" height="600.000000pt" viewBox="0 0 600.000000 600.000000"
 preserveAspectRatio="xMidYMid meet">
<metadata>
Created by potrace 1.15, written by Peter Selinger 2001-2017
</metadata>
<g transform="translate(0.000000,600.000000) scale(0.100000,-0.100000)"
fill="#16364b" stroke="none">
<path d="M3327 5446 c-70 -26 -107 -76 -107 -146 0 -89 47 -138 143 -150 48
-5 65 -12 84 -34 32 -38 32 -134 -2 -250 -33 -115 -32 -153 4 -204 48 -65 133
-79 194 -32 44 35 121 268 134 405 9 97 -22 200 -84 282 -74 97 -268 165 -366
129z"/>
<path d="M2084 5431 c-47 -28 -73 -73 -89 -148 -16 -75 -12 -117 18 -181 39
-85 121 -126 275 -138 45 -4 85 -11 88 -16 3 -4 -6 -63 -20 -131 -41 -202 -57
-308 -51 -336 7 -33 48 -79 82 -92 41 -16 115 -11 150 11 49 29 64 62 74 152
5 46 21 141 35 212 35 176 35 254 0 328 -46 98 -135 156 -250 165 -102 7 -101
7 -102 56 -1 52 -32 108 -69 125 -39 18 -106 14 -141 -7z"/>
<path d="M1543 4800 c-112 -16 -226 -52 -255 -80 -62 -63 -59 -164 9 -227 55
-53 90 -58 218 -33 146 28 284 36 360 20 111 -23 122 -23 169 0 59 28 86 72
86 140 0 49 -3 56 -43 95 -64 65 -143 86 -332 90 -82 2 -178 0 -212 -5z"/>
<path d="M4296 4520 c-86 -26 -126 -143 -73 -221 23 -34 57 -51 167 -84 83
-25 120 -52 143 -104 19 -41 21 -63 19 -200 -1 -161 2 -176 46 -223 34 -37 81
-45 138 -23 86 33 115 120 116 345 1 130 -19 208 -73 287 -60 87 -197 170
-349 212 -81 23 -91 24 -134 11z"/>
<path d="M3215 4423 c-17 -10 -69 -43 -115 -74 -47 -32 -173 -105 -280 -164
-249 -136 -255 -140 -282 -178 -28 -40 -31 -121 -5 -161 27 -40 76 -66 126
-66 38 0 75 18 275 131 291 166 428 252 460 290 50 59 44 149 -14 204 -39 37
-119 46 -165 18z"/>
<path d="M1554 4416 c-17 -8 -44 -30 -59 -50 -49 -64 -32 -169 35 -217 52 -37
566 -125 683 -117 130 9 197 133 133 243 -33 56 -75 72 -211 80 -114 6 -305
32 -433 60 -88 18 -108 18 -148 1z"/>
<path d="M2215 3814 c-129 -34 -282 -46 -448 -34 -150 11 -181 5 -224 -41 -69
-75 -49 -196 39 -242 48 -24 297 -39 441 -26 163 16 338 62 395 106 87 66 82
197 -10 244 -47 24 -81 23 -193 -7z"/>
<path d="M3708 3825 c-21 -7 -106 -50 -190 -94 -84 -44 -227 -111 -318 -150
-90 -38 -176 -82 -192 -96 -81 -77 -47 -216 60 -244 35 -10 51 -8 104 9 204
68 341 128 467 205 32 19 62 35 67 35 4 0 18 -9 30 -21 58 -54 169 -21 212 64
31 59 33 147 6 202 -31 63 -84 98 -152 102 -32 1 -73 -3 -94 -12z"/>
<path d="M4992 3497 c-19 -6 -56 -30 -82 -54 -38 -34 -54 -57 -67 -99 -16 -52
-16 -59 2 -148 31 -159 9 -230 -117 -374 -134 -153 -204 -251 -261 -364 -68
-138 -107 -254 -107 -322 0 -129 134 -241 268 -222 98 13 160 73 197 190 44
136 109 245 238 399 177 213 251 392 251 612 0 253 -87 397 -238 394 -28 -1
-66 -6 -84 -12z"/>
<path d="M2025 3181 c-47 -12 -84 -40 -106 -82 -25 -49 -24 -92 2 -147 35 -70
104 -92 341 -107 l108 -7 28 -41 c78 -117 239 -115 300 3 27 53 24 110 -9 175
-56 109 -152 162 -317 176 -142 12 -286 28 -303 33 -8 2 -28 1 -44 -3z"/>
<path d="M4352 3145 c-19 -8 -66 -45 -105 -81 -178 -165 -399 -266 -657 -299
-175 -23 -195 -30 -226 -71 -56 -73 -39 -180 36 -232 40 -27 97 -28 250 -7
259 37 482 123 674 259 103 74 223 186 236 222 29 75 -9 167 -83 203 -50 24
-79 26 -125 6z"/>
<path d="M1380 2981 c-48 -10 -72 -24 -108 -65 -52 -60 -59 -100 -33 -208 11
-51 30 -179 41 -283 30 -293 56 -400 141 -570 82 -167 157 -235 259 -235 89 0
159 52 181 132 14 53 5 87 -46 183 -68 128 -92 220 -120 465 -20 177 -58 371
-86 442 -42 108 -127 159 -229 139z"/>
<path d="M2125 2382 c-94 -29 -184 -73 -210 -104 -50 -60 -42 -148 19 -207 29
-28 45 -35 88 -39 45 -3 64 1 128 32 94 45 113 45 153 0 42 -47 76 -64 132
-64 74 0 131 40 154 109 27 82 -51 195 -178 258 -71 35 -196 42 -286 15z"/>
<path d="M3835 2089 c-60 -11 -213 -40 -339 -65 -251 -49 -381 -69 -526 -80
-117 -8 -160 -25 -205 -76 -78 -91 -44 -237 68 -295 43 -22 92 -19 367 21 224
33 316 52 655 130 66 16 140 26 185 26 91 0 148 24 194 83 28 35 31 46 31 105
0 81 -23 119 -88 151 -56 27 -187 27 -342 0z"/>
<path d="M2261 1830 c-45 -11 -82 -39 -104 -81 -15 -28 -18 -50 -14 -124 8
-150 78 -303 195 -427 77 -82 109 -100 172 -100 96 0 170 71 170 162 0 57 -18
86 -93 153 -84 73 -126 154 -137 260 -8 81 -21 110 -65 136 -39 24 -81 31
-124 21z"/>
<path d="M4681 1664 c-19 -8 -67 -46 -107 -84 -110 -104 -167 -128 -514 -216
-196 -49 -352 -104 -490 -174 -131 -66 -164 -92 -189 -149 -60 -140 23 -271
171 -271 45 0 72 10 179 63 148 75 234 103 469 157 356 80 491 142 648 299 77
77 112 138 112 197 0 47 -28 111 -61 141 -55 51 -150 67 -218 37z"/>
<path d="M2089 1060 c-44 -13 -79 -41 -104 -84 -73 -126 -31 -215 170 -366
161 -121 301 -182 495 -216 123 -21 303 -14 409 16 89 25 211 80 258 116 108
82 92 243 -30 307 -61 31 -123 27 -214 -16 -97 -46 -176 -61 -273 -53 -185 14
-367 95 -519 231 -75 67 -128 85 -192 65z"/>
</g>
</svg>
