<?xml version="1.0" standalone="no"?>
<!DOCTYPE svg PUBLIC "-//W3C//DTD SVG 20010904//EN"
 "http://www.w3.org/TR/2001/REC-SVG-20010904/DTD/svg10.dtd">
<svg version="1.0" xmlns="http://www.w3.org/2000/svg"
 width="600.000000pt" height="600.000000pt" viewBox="0 0 600.000000 600.000000"
 preserveAspectRatio="xMidYMid meet">
<metadata>
Created by potrace 1.15, written by Peter Selinger 2001-2017
</metadata>
<g transform="translate(0.000000,600.000000) scale(0.100000,-0.100000)"
fill="#16364b" stroke="none">
<path d="M2750 5543 c-47 -18 -76 -52 -121 -147 -78 -163 -87 -261 -34 -352
60 -103 153 -138 363 -137 78 1 142 0 142 -1 0 -2 -37 -32 -82 -69 -100 -79
-166 -147 -285 -292 -169 -207 -183 -230 -183 -292 0 -44 7 -67 31 -109 55
-96 74 -103 383 -129 181 -15 301 -32 434 -60 97 -20 140 -19 179 5 105 63
100 209 -9 266 -36 19 -325 69 -483 85 -71 6 -134 16 -139 20 -11 10 103 147
185 224 34 31 107 92 163 135 56 43 124 102 153 132 168 171 67 366 -199 385
-46 3 -148 0 -227 -6 -80 -7 -147 -9 -152 -4 -5 5 7 42 27 83 43 88 49 148 18
200 -31 54 -109 84 -164 63z"/>
<path d="M1576 5209 c-130 -53 -336 -223 -450 -372 -67 -88 -129 -203 -151
-279 -20 -70 -9 -121 36 -173 46 -52 88 -60 206 -36 135 27 221 35 298 26 78
-8 77 -2 35 -169 -43 -169 -41 -196 23 -263 34 -36 36 -33 -56 -57 -72 -18
-102 -37 -123 -78 -40 -78 -6 -186 72 -223 54 -25 112 -16 308 49 246 82 360
132 396 172 73 83 33 226 -72 254 -44 13 -70 7 -163 -35 -38 -18 -80 -35 -92
-39 l-21 -7 19 73 c11 40 29 106 39 147 29 107 27 221 -4 288 -55 117 -168
185 -341 206 l-107 12 53 54 c70 70 148 127 212 156 83 37 117 84 117 163 0
60 -29 109 -80 134 -45 23 -93 22 -154 -3z"/>
<path d="M4305 4640 c-79 -21 -210 -75 -300 -123 -50 -27 -63 -39 -79 -78 -25
-63 -16 -109 33 -161 32 -35 45 -41 87 -45 42 -4 60 0 110 25 78 39 243 97
252 88 20 -21 -128 -367 -219 -511 -38 -61 -44 -77 -44 -126 0 -53 3 -60 45
-106 75 -83 101 -93 268 -109 81 -7 185 -14 232 -14 47 0 102 -3 123 -7 37 -6
39 -8 33 -35 -9 -46 -58 -162 -145 -344 -45 -93 -81 -182 -81 -197 0 -41 34
-99 68 -119 44 -26 121 -24 163 5 39 26 93 123 195 351 100 226 123 345 89
447 -48 141 -181 198 -467 199 -76 0 -138 4 -138 9 0 5 20 47 45 93 52 98 117
290 135 397 47 282 -126 435 -405 361z"/>
<path d="M3761 3675 c-171 -48 -317 -200 -297 -309 17 -90 124 -143 205 -102
15 8 44 35 64 59 35 43 91 77 105 63 12 -12 -35 -172 -79 -266 l-42 -90 -93
-46 c-114 -55 -189 -122 -199 -176 -14 -75 44 -169 116 -188 49 -13 92 -3 151
38 68 46 119 70 240 108 124 40 214 81 240 111 10 10 27 40 39 67 36 81 7 174
-69 221 -32 20 -33 21 -25 70 4 28 8 95 8 150 0 88 -3 106 -27 150 -33 63 -70
98 -131 125 -63 28 -139 34 -206 15z"/>
<path d="M2410 3484 c-159 -37 -287 -82 -326 -116 -62 -54 -69 -146 -17 -208
58 -70 109 -75 258 -25 115 38 283 70 320 61 18 -5 25 -13 25 -30 0 -45 -42
-161 -101 -277 -68 -134 -75 -182 -36 -239 64 -95 196 -91 263 8 29 42 109
226 147 337 26 76 31 105 31 190 1 96 -1 102 -35 165 -40 74 -98 120 -182 145
-77 23 -222 18 -347 -11z"/>
<path d="M1185 3246 c-71 -19 -96 -30 -169 -76 -112 -71 -153 -136 -144 -231
10 -105 92 -173 206 -171 34 0 62 -1 62 -2 0 -2 -13 -68 -29 -148 -63 -309
-77 -521 -47 -693 18 -101 27 -124 67 -169 56 -65 144 -83 231 -49 65 25 86
49 138 159 26 55 66 134 90 175 75 128 332 489 349 489 4 0 15 -21 25 -47 24
-64 33 -295 17 -418 -7 -49 -31 -169 -53 -265 -52 -228 -57 -278 -29 -323 11
-18 32 -39 46 -45 39 -18 116 -15 150 6 l30 19 2 -86 c2 -96 34 -315 63 -433
58 -234 167 -396 315 -469 78 -38 188 -50 277 -29 76 18 172 67 221 113 23 22
60 50 82 61 36 20 48 37 115 171 109 217 200 343 268 372 31 13 38 12 85 -10
29 -14 86 -50 127 -80 177 -133 317 -157 463 -79 61 33 143 121 152 164 5 21
29 54 69 93 95 92 109 171 55 301 -37 88 -59 167 -59 212 0 28 5 35 36 48 20
8 88 19 152 25 253 21 327 43 400 123 81 88 115 190 116 351 1 140 -14 196
-69 250 -63 64 -157 79 -236 39 -78 -39 -125 -108 -144 -209 l-11 -60 -64 -8
c-139 -16 -240 -38 -307 -66 -342 -141 -448 -435 -293 -811 30 -72 32 -100 9
-100 -6 0 -70 36 -142 79 -169 102 -235 124 -344 119 -121 -6 -208 -52 -328
-172 -107 -107 -172 -200 -249 -354 -45 -89 -63 -115 -89 -128 -17 -9 -45 -27
-60 -40 -38 -32 -51 -30 -80 9 -69 91 -106 205 -142 442 -29 182 -45 216 -120
261 -39 22 -54 26 -104 22 -38 -3 -68 -11 -89 -27 -18 -12 -32 -20 -32 -18 0
7 70 316 93 412 19 78 22 118 21 305 0 198 -2 224 -27 330 -34 146 -66 210
-124 255 -59 45 -104 59 -169 52 -112 -11 -217 -96 -379 -301 -54 -69 -100
-124 -102 -123 -1 2 7 53 19 113 18 86 23 143 23 274 0 150 -3 170 -24 224
-56 141 -179 208 -316 172z"/>
<path d="M3105 2588 c-59 -11 -461 -122 -522 -144 -153 -55 -158 -277 -8 -345
55 -25 83 -24 205 12 110 32 325 82 399 94 50 8 51 17 -5 -127 -19 -48 -34
-100 -34 -115 1 -43 34 -108 71 -136 85 -63 180 -57 254 17 50 50 120 208 137
307 27 156 -37 320 -152 393 -83 53 -212 70 -345 44z"/>
</g>
</svg>
