<?xml version="1.0" standalone="no"?>
<!DOCTYPE svg PUBLIC "-//W3C//DTD SVG 20010904//EN"
 "http://www.w3.org/TR/2001/REC-SVG-20010904/DTD/svg10.dtd">
<svg version="1.0" xmlns="http://www.w3.org/2000/svg"
 width="600.000000pt" height="600.000000pt" viewBox="0 0 600.000000 600.000000"
 preserveAspectRatio="xMidYMid meet">
<metadata>
Created by potrace 1.15, written by Peter Selinger 2001-2017
</metadata>
<g transform="translate(0.000000,600.000000) scale(0.100000,-0.100000)"
fill="#16364b" stroke="none">
<path d="M1970 4901 c-80 -17 -148 -74 -186 -156 -28 -60 -32 -173 -9 -251 32
-110 72 -609 62 -779 -4 -55 0 -194 8 -310 10 -153 12 -301 8 -545 l-6 -335
-64 -168 c-65 -170 -153 -469 -153 -517 0 -14 -5 -31 -12 -38 -8 -8 -8 -15 1
-25 6 -8 10 -25 9 -38 -3 -21 1 -24 24 -21 19 2 28 -3 33 -18 3 -11 10 -20 15
-20 18 0 74 85 76 114 1 30 55 250 72 296 6 17 11 3 21 -61 7 -46 28 -142 46
-214 77 -299 155 -412 350 -506 79 -38 215 -79 263 -79 l25 0 -6 -92 c-11
-154 18 -326 94 -556 17 -51 29 -99 26 -106 -4 -9 -36 -15 -102 -19 -111 -8
-156 -28 -174 -78 -15 -42 7 -92 51 -115 67 -36 210 -13 301 47 107 71 119
135 59 315 -73 219 -95 325 -96 456 0 65 2 119 5 122 2 2 164 -3 359 -11 195
-8 416 -12 490 -8 l135 6 -3 -98 c-6 -157 35 -405 89 -547 32 -85 31 -86 -65
-86 -100 0 -137 -11 -159 -49 -50 -85 25 -171 147 -171 141 0 266 105 266 223
0 19 -15 78 -34 133 -64 186 -96 409 -77 534 7 41 14 76 16 79 3 2 82 15 177
28 266 36 348 52 407 79 225 103 347 412 297 752 -27 181 -71 285 -173 410
-29 36 -51 67 -49 70 11 11 114 -40 119 -59 4 -16 14 -19 64 -19 83 0 106 8
99 33 -3 12 -1 27 5 33 6 7 9 25 7 39 -2 21 -11 30 -43 41 -22 7 -45 20 -51
29 -6 8 -23 15 -37 15 -13 0 -84 22 -156 49 -199 76 -347 119 -495 146 -71 12
-204 90 -466 273 -74 51 -211 139 -305 194 -286 170 -355 230 -491 434 -85
127 -168 289 -249 489 -53 130 -104 241 -191 423 -79 163 -238 262 -374 233z
m151 -194 c29 -21 54 -54 75 -97 101 -201 127 -260 184 -410 97 -258 174 -405
297 -569 125 -166 215 -245 483 -418 102 -66 257 -167 345 -225 210 -137 387
-239 566 -325 156 -75 270 -147 333 -209 53 -54 121 -151 151 -215 113 -249
43 -658 -132 -769 -59 -38 -88 -43 -468 -88 -304 -35 -334 -37 -605 -35 -508
2 -824 28 -957 78 -212 80 -293 204 -370 565 -16 76 -18 149 -20 685 -1 335
-6 651 -12 715 -6 63 -11 250 -11 415 0 309 -20 556 -55 700 -37 152 0 235
106 235 38 0 56 -6 90 -33z m-426 -2927 c3 -5 1 -10 -4 -10 -6 0 -11 5 -11 10
0 6 2 10 4 10 3 0 8 -4 11 -10z"/>
<path d="M2608 2709 c-43 -24 -42 -73 1 -106 41 -31 101 2 101 56 0 48 -58 76
-102 50z"/>
<path d="M3062 2554 c-38 -26 -28 -85 19 -109 37 -20 45 -19 69 7 42 45 14
118 -45 118 -11 0 -31 -7 -43 -16z"/>
<path d="M5210 3969 c-76 -31 -161 -116 -185 -188 -41 -123 -1 -275 95 -365
82 -76 120 -91 235 -91 88 1 107 4 157 28 147 72 230 245 186 390 -17 56 -93
134 -187 191 -76 45 -85 48 -163 52 -68 4 -93 0 -138 -17z m187 -313 c10 -9
-12 -37 -33 -42 -29 -7 -54 11 -54 39 0 17 4 19 42 13 23 -4 44 -8 45 -10z"/>
<path d="M5343 1110 c-43 -18 -91 -149 -79 -215 4 -19 18 -48 32 -65 21 -25
33 -30 69 -30 85 0 129 62 129 187 1 71 -2 85 -20 104 -24 24 -96 35 -131 19z"/>
</g>
</svg>
