<?xml version="1.0" standalone="no"?>
<!DOCTYPE svg PUBLIC "-//W3C//DTD SVG 20010904//EN"
 "http://www.w3.org/TR/2001/REC-SVG-20010904/DTD/svg10.dtd">
<svg version="1.0" xmlns="http://www.w3.org/2000/svg"
 width="600.000000pt" height="600.000000pt" viewBox="0 0 600.000000 600.000000"
 preserveAspectRatio="xMidYMid meet">
<metadata>
Created by potrace 1.15, written by Peter Selinger 2001-2017
</metadata>
<g transform="translate(0.000000,600.000000) scale(0.100000,-0.100000)"
fill="#16364b" stroke="none">
<path d="M1345 5656 c-115 -57 -218 -113 -229 -124 -10 -12 -21 -41 -23 -66
-5 -40 -2 -48 25 -76 27 -26 37 -30 88 -30 31 0 120 7 198 15 329 36 332 37
360 77 41 59 -2 138 -75 138 -43 0 -46 4 -24 26 24 25 19 91 -10 119 -43 44
-78 35 -310 -79z"/>
<path d="M2377 5429 c-33 -19 -47 -72 -47 -177 0 -191 -43 -428 -99 -548 -41
-88 -91 -139 -177 -180 -41 -19 -79 -44 -84 -54 -28 -52 8 -116 71 -126 85
-14 264 120 343 256 83 142 136 393 136 648 l0 134 -29 29 c-31 31 -79 38
-114 18z"/>
<path d="M3530 5308 c-38 -20 -72 -86 -65 -128 15 -93 112 -227 195 -270 155
-80 261 27 184 184 -44 89 -106 161 -166 189 -68 33 -116 41 -148 25z"/>
<path d="M3019 5145 c-138 -44 -244 -250 -195 -378 30 -80 92 -113 181 -96 57
11 153 73 178 116 24 42 49 179 42 228 -16 110 -101 163 -206 130z m10 -247
c-7 -13 -14 -18 -16 -11 -3 7 1 22 8 35 7 13 14 18 16 11 3 -7 -1 -22 -8 -35z"/>
<path d="M4752 4747 c-35 -20 -49 -47 -56 -114 -15 -131 29 -370 84 -458 95
-154 273 -157 352 -6 24 45 28 65 28 130 -1 86 -23 153 -80 236 -40 58 -160
179 -204 206 -35 22 -90 24 -124 6z"/>
<path d="M2625 4212 c-95 -46 -134 -139 -103 -246 19 -64 108 -147 182 -170
121 -38 254 1 375 110 87 79 104 156 47 217 -37 40 -237 96 -371 103 -75 4
-97 2 -130 -14z"/>
<path d="M1066 4091 c-54 -57 -43 -162 22 -194 15 -8 57 -24 95 -36 37 -13 67
-27 67 -31 0 -10 -91 15 -132 36 -36 19 -98 18 -126 -2 -34 -23 -55 -71 -48
-109 14 -74 73 -114 209 -142 75 -15 95 -16 159 -5 190 33 281 178 193 311
-54 80 -277 201 -373 201 -29 0 -45 -7 -66 -29z"/>
<path d="M5256 3799 c-207 -30 -338 -199 -306 -394 31 -188 171 -296 346 -266
120 21 212 88 261 190 23 48 27 69 28 146 0 79 -4 97 -28 147 -44 89 -174 194
-232 187 -5 -1 -37 -5 -69 -10z m44 -321 c0 -16 -31 -48 -47 -48 -13 0 -18 41
-6 53 11 12 53 8 53 -5z"/>
<path d="M4260 3780 c-105 -21 -217 -110 -269 -214 -30 -59 -33 -71 -29 -134
8 -152 124 -248 294 -245 192 3 334 179 334 416 0 104 -38 145 -160 174 -59
14 -114 15 -170 3z m34 -301 c-17 -19 -54 -26 -54 -11 0 5 8 16 18 24 39 35
70 24 36 -13z"/>
<path d="M3418 3373 c-35 -22 -103 -127 -150 -235 -36 -80 -38 -91 -28 -123
50 -153 288 -7 345 212 12 47 12 60 1 87 -29 69 -107 96 -168 59z"/>
<path d="M1815 3093 c-377 -47 -411 -55 -512 -114 -77 -45 -291 -259 -326
-325 -32 -61 -57 -153 -57 -209 0 -96 54 -231 127 -316 66 -77 128 -124 238
-181 194 -99 226 -133 355 -384 134 -259 227 -362 403 -444 192 -90 379 -93
687 -10 41 11 127 24 190 30 288 26 441 42 510 56 151 31 412 155 563 268 142
107 360 364 429 506 75 153 94 324 50 450 -46 134 -229 328 -379 402 l-86 43
-126 0 c-118 -1 -132 -3 -231 -37 -151 -52 -287 -71 -479 -66 -182 5 -210 13
-481 132 -353 156 -535 207 -732 205 -62 -1 -126 -4 -143 -6z m255 -388 c134
-20 200 -43 422 -144 225 -103 341 -144 453 -161 44 -6 106 -18 138 -26 53
-14 76 -14 270 6 226 22 338 44 438 85 73 29 89 30 130 10 52 -27 165 -132
183 -170 22 -45 15 -95 -24 -182 -42 -91 -78 -139 -189 -248 -224 -219 -335
-265 -771 -320 -107 -14 -227 -25 -266 -25 -50 0 -114 -11 -210 -36 -175 -46
-340 -57 -423 -29 -80 26 -143 96 -221 243 -141 267 -206 357 -317 441 -61 46
-238 141 -262 141 -22 0 -79 68 -90 105 -22 81 32 171 132 219 94 44 330 94
492 105 11 0 63 -6 115 -14z"/>
<path d="M453 2156 c-17 -8 -36 -23 -42 -35 -15 -28 -14 -78 3 -109 8 -15 27
-56 42 -92 105 -248 282 -382 429 -325 84 32 119 128 81 220 -32 76 -149 178
-322 282 -115 69 -146 78 -191 59z"/>
<path d="M4908 1504 c-16 -8 -28 -19 -28 -24 0 -5 -25 -8 -55 -7 -49 2 -58 -1
-86 -29 -43 -43 -48 -95 -19 -210 50 -199 125 -267 235 -214 78 38 107 101
127 278 13 124 7 155 -44 197 -34 29 -88 33 -130 9z"/>
</g>
</svg>
