<?xml version="1.0" standalone="no"?>
<!DOCTYPE svg PUBLIC "-//W3C//DTD SVG 20010904//EN"
 "http://www.w3.org/TR/2001/REC-SVG-20010904/DTD/svg10.dtd">
<svg version="1.0" xmlns="http://www.w3.org/2000/svg"
 width="600.000000pt" height="600.000000pt" viewBox="0 0 600.000000 600.000000"
 preserveAspectRatio="xMidYMid meet">
<metadata>
Created by potrace 1.15, written by Peter Selinger 2001-2017
</metadata>
<g transform="translate(0.000000,600.000000) scale(0.100000,-0.100000)"
fill="#16364b" stroke="none">
<path d="M2091 5149 c-101 -20 -195 -91 -232 -175 -36 -80 -41 -143 -25 -282
8 -70 18 -264 21 -432 3 -168 10 -366 15 -440 14 -201 11 -969 -3 -1059 l-12
-74 -117 -76 c-64 -42 -189 -124 -277 -184 -88 -59 -163 -107 -167 -107 -4 0
-16 8 -26 17 -26 23 -49 2 -30 -27 14 -23 6 -25 -46 -11 -45 13 -54 -10 -17
-49 l27 -28 -32 -7 c-25 -5 -31 -11 -28 -28 2 -17 12 -23 42 -27 l38 -5 -21
-19 c-25 -22 -27 -44 -6 -52 18 -7 141 49 175 80 49 45 446 326 460 326 4 0
10 -62 13 -137 7 -156 31 -371 53 -483 67 -327 297 -575 589 -635 l60 -12 -3
-124 c-4 -167 25 -348 89 -546 32 -97 31 -98 -84 -98 l-99 0 -29 -33 c-36 -41
-38 -80 -3 -121 78 -93 330 -54 390 61 26 50 20 112 -24 243 -68 204 -101 410
-87 540 l7 66 96 -6 c54 -3 169 -11 257 -17 88 -6 268 -12 400 -14 170 -3 239
-7 237 -15 -2 -6 -5 -46 -9 -88 -7 -97 22 -251 83 -440 24 -74 44 -141 44
-148 0 -10 -22 -13 -91 -13 -50 0 -100 -5 -112 -11 -76 -39 -75 -138 1 -175
111 -52 291 -9 345 84 30 51 24 112 -22 239 -68 188 -95 305 -95 413 0 52 5
113 12 136 l12 40 197 23 c232 27 289 41 362 84 193 116 290 366 293 756 1
133 -2 168 -21 236 -40 143 -80 206 -223 347 -70 69 -128 128 -128 130 0 2 53
1 117 -2 65 -3 174 -2 243 1 69 3 130 2 137 -3 16 -12 173 39 173 57 0 8 -4
16 -9 19 -4 3 -6 17 -3 31 2 14 0 25 -7 25 -6 0 -10 10 -8 23 2 24 -9 26 -70
12 -28 -6 -32 -5 -35 16 -4 29 -31 32 -37 4 -2 -11 -8 -23 -15 -27 -20 -13
-287 -9 -421 7 -222 26 -307 44 -340 71 -122 98 -224 163 -732 462 -161 95
-249 167 -345 282 -228 272 -320 468 -473 1014 -60 212 -117 302 -228 355 -70
33 -132 43 -196 30z m151 -191 c45 -34 93 -126 117 -224 11 -43 32 -115 46
-159 14 -44 46 -145 71 -225 85 -270 183 -439 421 -720 112 -132 205 -210 363
-303 69 -41 215 -127 325 -192 268 -158 341 -211 545 -401 30 -28 100 -90 155
-138 121 -105 155 -143 201 -219 60 -102 74 -159 74 -309 0 -277 -51 -466
-156 -578 -57 -61 -115 -85 -234 -99 -525 -61 -558 -63 -775 -56 -550 18 -779
31 -879 51 -265 52 -430 262 -480 611 -40 276 -42 429 -11 713 18 173 18 831
-1 1105 -14 207 -37 791 -38 975 -1 85 2 99 23 128 39 55 77 74 143 69 41 -2
65 -10 90 -29z"/>
<path d="M2652 2764 c-31 -22 -28 -57 9 -88 17 -14 37 -26 45 -26 22 0 64 46
64 70 0 50 -71 77 -118 44z"/>
<path d="M3096 2654 c-25 -25 -19 -59 15 -88 38 -32 44 -32 74 -1 29 28 31 51
9 83 -18 26 -74 30 -98 6z"/>
<path d="M2946 1765 c-23 -23 -20 -52 8 -70 46 -30 136 21 110 63 -15 24 -96
29 -118 7z"/>
<path d="M5214 3973 c-82 -24 -143 -77 -184 -158 -31 -62 -35 -77 -34 -146 1
-103 40 -186 121 -258 142 -127 359 -115 497 26 60 62 89 135 90 223 0 116
-45 189 -167 267 -99 63 -211 79 -323 46z m165 -302 c20 -13 6 -39 -25 -47
-28 -7 -54 14 -54 43 0 15 57 18 79 4z"/>
</g>
</svg>
