<?xml version="1.0" standalone="no"?>
<!DOCTYPE svg PUBLIC "-//W3C//DTD SVG 20010904//EN"
 "http://www.w3.org/TR/2001/REC-SVG-20010904/DTD/svg10.dtd">
<svg version="1.0" xmlns="http://www.w3.org/2000/svg"
 width="600.000000pt" height="600.000000pt" viewBox="0 0 600.000000 600.000000"
 preserveAspectRatio="xMidYMid meet">
<metadata>
Created by potrace 1.15, written by Peter Selinger 2001-2017
</metadata>
<g transform="translate(0.000000,600.000000) scale(0.100000,-0.100000)"
fill="#16364b" stroke="none">
<path d="M3025 5066 c-70 -31 -135 -149 -135 -247 0 -40 5 -55 25 -74 32 -32
61 -31 116 4 55 36 81 63 113 125 37 71 36 137 -3 177 -33 32 -67 37 -116 15z
m85 -67 c23 -42 -37 -157 -105 -199 -48 -30 -55 -26 -55 28 0 114 122 244 160
171z"/>
<path d="M4765 4706 c-21 -15 -26 -73 -41 -422 -7 -166 -6 -172 14 -192 27
-27 75 -29 100 -4 20 20 20 24 38 432 6 139 6 146 -16 173 -24 30 -64 36 -95
13z"/>
<path d="M1735 4536 c-27 -12 -66 -41 -86 -63 -84 -93 -91 -207 -21 -335 49
-90 59 -126 116 -408 76 -378 82 -463 106 -1385 7 -297 11 -343 34 -457 46
-222 84 -324 160 -425 95 -126 266 -213 467 -238 l45 -6 -4 -143 c-5 -165 10
-257 79 -473 22 -69 38 -127 35 -130 -2 -3 -44 -8 -93 -12 -129 -11 -172 -40
-173 -118 0 -34 5 -46 30 -67 40 -33 85 -41 156 -26 88 18 150 48 189 92 67
73 70 119 20 267 -59 175 -85 313 -84 437 1 60 4 123 8 139 8 35 -13 34 241
10 171 -16 351 -16 637 1 l102 6 -6 -108 c-8 -172 24 -376 89 -552 16 -46 27
-86 24 -90 -3 -3 -46 -9 -94 -12 -100 -8 -132 -20 -155 -60 -24 -40 -21 -74 9
-109 67 -80 261 -58 349 41 66 72 71 128 25 264 -59 173 -91 351 -89 493 2
138 -1 133 114 153 184 31 465 107 553 149 222 107 375 375 358 629 -11 171
-78 353 -159 434 -25 25 -69 57 -98 72 -64 32 -226 83 -374 118 -153 37 -294
81 -400 126 -49 21 -155 66 -235 100 -184 78 -427 204 -553 286 -190 124 -265
222 -575 746 -87 146 -169 267 -266 389 -34 42 -82 104 -108 137 -105 135
-251 185 -373 128z m160 -145 c47 -22 80 -55 129 -133 20 -31 42 -61 50 -65
30 -17 184 -237 260 -370 203 -356 370 -600 480 -700 142 -130 444 -295 861
-471 187 -78 297 -116 453 -158 227 -60 419 -124 459 -153 104 -75 163 -331
118 -506 -42 -160 -164 -300 -305 -350 -74 -26 -307 -83 -430 -104 -126 -23
-565 -51 -774 -51 -72 0 -174 5 -226 10 -52 6 -177 17 -277 25 -207 16 -289
32 -371 74 -149 75 -228 199 -282 441 -31 142 -42 273 -45 555 -8 649 -27 989
-69 1220 -49 270 -96 448 -145 540 -42 82 -48 140 -16 175 38 43 72 48 130 21z"/>
<path d="M2497 2612 c-30 -33 -19 -75 25 -98 16 -8 38 -12 49 -9 23 8 50 61
42 84 -15 42 -86 56 -116 23z"/>
<path d="M2974 2376 c-25 -21 -27 -27 -19 -52 6 -15 25 -36 42 -47 l32 -18 26
25 c42 42 28 92 -32 110 -15 5 -30 -1 -49 -18z"/>
<path d="M5195 3973 c-68 -24 -137 -93 -160 -162 -12 -38 -16 -75 -14 -135 4
-71 9 -92 42 -159 75 -152 211 -216 362 -172 159 46 275 180 275 321 0 112
-65 200 -204 278 -64 36 -77 39 -160 43 -67 2 -104 -1 -141 -14z m181 -293
c26 -10 26 -11 9 -30 -30 -33 -75 -20 -75 22 0 21 24 23 66 8z"/>
<path d="M4235 3756 c-66 -16 -89 -29 -148 -85 -99 -91 -134 -228 -86 -328 59
-122 205 -180 349 -137 73 22 159 107 185 183 23 70 17 176 -14 248 -43 98
-165 149 -286 119z m51 -261 c8 -20 -13 -45 -37 -45 -23 0 -24 9 -3 38 18 26
32 28 40 7z"/>
<path d="M5322 1087 c-33 -35 -52 -91 -52 -153 0 -50 3 -59 34 -90 39 -39 75
-44 122 -15 37 22 60 68 69 138 8 60 -7 118 -35 133 -10 6 -41 10 -68 10 -37
0 -53 -5 -70 -23z"/>
</g>
</svg>
