<?xml version="1.0" standalone="no"?>
<!DOCTYPE svg PUBLIC "-//W3C//DTD SVG 20010904//EN"
 "http://www.w3.org/TR/2001/REC-SVG-20010904/DTD/svg10.dtd">
<svg version="1.0" xmlns="http://www.w3.org/2000/svg"
 width="600.000000pt" height="600.000000pt" viewBox="0 0 600.000000 600.000000"
 preserveAspectRatio="xMidYMid meet">
<metadata>
Created by potrace 1.15, written by Peter Selinger 2001-2017
</metadata>
<g transform="translate(0.000000,600.000000) scale(0.100000,-0.100000)"
fill="#16364b" stroke="none">
<path d="M1715 5796 c-68 -30 -89 -76 -161 -351 -43 -167 -68 -325 -61 -395
10 -118 79 -190 187 -198 129 -9 236 79 461 381 165 221 175 245 144 325 -24
58 -65 86 -131 87 -71 0 -89 -15 -204 -168 -52 -69 -98 -126 -102 -126 -8 -1
1 32 48 190 31 102 34 122 25 156 -24 89 -121 136 -206 99z"/>
<path d="M3070 5608 c-52 -36 -72 -69 -72 -122 0 -26 7 -58 16 -71 9 -14 69
-59 134 -101 197 -128 337 -248 411 -353 43 -61 41 -69 -16 -64 -121 12 -194
-125 -116 -217 39 -47 78 -62 175 -68 110 -6 164 8 222 60 62 53 80 105 74
210 -6 122 -59 227 -186 371 -126 142 -239 230 -417 324 -117 61 -169 69 -225
31z"/>
<path d="M935 5459 c-112 -14 -201 -67 -271 -161 -144 -196 -106 -514 79 -646
62 -45 117 -52 180 -24 107 48 118 180 21 246 -52 35 -74 73 -74 127 0 52 30
106 70 126 14 7 49 13 78 13 92 0 151 42 172 121 19 68 -17 152 -78 183 -36
18 -104 24 -177 15z"/>
<path d="M2932 5149 c-75 -38 -153 -152 -168 -247 -15 -99 44 -191 150 -231
68 -25 115 -26 202 -5 117 30 150 85 134 226 -10 84 -45 175 -83 216 -58 62
-157 79 -235 41z"/>
<path d="M4732 4831 c-56 -41 -66 -79 -58 -207 16 -246 101 -424 237 -499 109
-59 247 -29 323 71 48 63 59 103 54 193 -10 171 -138 325 -365 440 -83 41
-135 42 -191 2z"/>
<path d="M2059 4800 c-138 -35 -198 -80 -206 -154 -7 -55 9 -98 49 -131 44
-37 90 -42 162 -16 78 27 105 26 134 -4 56 -58 156 -51 217 16 31 35 35 45 35
95 0 87 -34 135 -125 175 -56 25 -203 35 -266 19z"/>
<path d="M2789 4084 c-59 -18 -134 -84 -149 -130 -18 -53 -8 -127 24 -174 32
-49 103 -102 176 -132 52 -22 68 -23 275 -22 238 1 385 19 430 51 51 37 70
124 41 181 -32 61 -86 91 -293 162 -214 74 -397 97 -504 64z"/>
<path d="M1108 4070 c-51 -5 -89 -15 -113 -30 -99 -61 -126 -203 -54 -285 44
-49 104 -69 184 -61 36 4 65 3 65 -1 0 -5 -60 -79 -132 -164 -305 -359 -483
-590 -497 -644 -11 -45 -1 -100 26 -142 25 -38 98 -76 146 -75 23 0 81 0 128
1 l87 1 242 160 243 160 48 -41 c53 -44 64 -74 63 -165 -2 -69 -35 -163 -105
-301 -117 -228 -249 -395 -335 -423 -82 -27 -124 -76 -124 -147 0 -86 70 -140
169 -130 179 19 393 238 562 577 85 170 116 307 106 462 -4 51 -9 105 -13 119
-5 24 -3 27 31 32 20 3 52 18 71 32 57 43 67 75 71 220 4 121 3 133 -19 175
-44 85 -131 116 -240 86 -33 -9 -121 -46 -196 -81 -74 -36 -137 -65 -138 -65
-2 0 34 46 81 101 112 134 150 192 170 264 41 139 -19 269 -150 325 -86 37
-244 54 -377 40z"/>
<path d="M4195 3761 c-76 -22 -130 -56 -186 -118 -88 -99 -111 -247 -54 -351
92 -168 310 -206 487 -84 89 61 154 174 185 320 15 74 16 87 3 124 -22 60 -70
94 -162 112 -99 20 -197 19 -273 -3z m90 -311 c-19 -21 -55 -27 -55 -10 0 11
62 41 69 34 2 -2 -4 -13 -14 -24z"/>
<path d="M3393 3389 c-61 -30 -135 -116 -183 -212 -36 -70 -41 -89 -37 -130 5
-54 40 -100 94 -123 51 -22 185 -18 233 6 81 41 131 141 137 275 4 75 1 96
-15 125 -41 74 -145 101 -229 59z"/>
<path d="M5046 3225 c-156 -54 -327 -301 -313 -451 12 -125 90 -194 227 -202
105 -6 175 22 251 97 71 72 99 141 99 246 0 101 -27 169 -96 244 -63 68 -108
86 -168 66z"/>
<path d="M3975 2549 c-17 -5 -50 -25 -73 -45 -90 -76 -110 -174 -69 -334 14
-52 24 -96 22 -98 -1 -1 -21 5 -45 13 -58 20 -146 19 -195 -4 -122 -56 -158
-173 -121 -386 34 -194 115 -451 162 -512 40 -53 121 -87 192 -80 103 11 196
97 209 195 l5 40 77 4 c210 12 323 153 291 365 -13 85 -18 100 -92 308 -27 77
-64 201 -82 275 -18 74 -40 149 -48 165 -44 83 -139 122 -233 94z"/>
<path d="M2029 2361 c-67 -21 -128 -62 -190 -128 -55 -56 -122 -154 -145 -209
-9 -21 -40 -75 -70 -120 -116 -174 -194 -380 -215 -563 -39 -339 93 -602 406
-808 179 -119 348 -159 563 -134 275 32 477 132 597 296 16 22 46 59 66 82 43
50 149 260 178 351 44 137 131 504 137 574 13 152 -56 282 -184 347 -54 28
-151 51 -211 51 -96 0 -253 -44 -418 -116 -7 -4 -15 6 -19 23 -21 88 -144 263
-225 319 -44 30 -124 54 -179 53 -19 0 -60 -8 -91 -18z m115 -438 c7 -16 23
-64 35 -108 27 -99 57 -151 118 -205 101 -88 149 -91 322 -14 167 74 263 112
311 123 l40 9 0 -33 c0 -79 -105 -423 -171 -562 -58 -121 -168 -242 -263 -288
-115 -56 -263 -78 -366 -54 -72 16 -180 73 -252 133 -51 43 -74 70 -100 123
-31 64 -33 73 -32 168 2 159 56 319 155 465 25 36 57 90 72 120 31 64 93 150
107 150 5 0 16 -12 24 -27z"/>
</g>
</svg>
