<?xml version="1.0" standalone="no"?>
<!DOCTYPE svg PUBLIC "-//W3C//DTD SVG 20010904//EN"
 "http://www.w3.org/TR/2001/REC-SVG-20010904/DTD/svg10.dtd">
<svg version="1.0" xmlns="http://www.w3.org/2000/svg"
 width="600.000000pt" height="600.000000pt" viewBox="0 0 600.000000 600.000000"
 preserveAspectRatio="xMidYMid meet">
<metadata>
Created by potrace 1.15, written by Peter Selinger 2001-2017
</metadata>
<g transform="translate(0.000000,600.000000) scale(0.100000,-0.100000)"
fill="#16364b" stroke="none">
<path d="M2385 5430 c-47 -18 -49 -29 -50 -269 -1 -205 -3 -233 -24 -301 -57
-188 -129 -286 -261 -356 -71 -37 -75 -41 -78 -76 -2 -27 3 -43 17 -57 37 -37
66 -37 147 4 136 67 224 184 292 390 48 148 57 212 57 427 0 184 -1 199 -20
217 -25 24 -54 32 -80 21z"/>
<path d="M3544 5309 c-19 -10 -44 -50 -58 -91 -6 -19 21 -103 49 -158 22 -43
111 -138 147 -156 61 -32 139 -12 167 43 27 53 -7 158 -85 265 -57 77 -164
124 -220 97z"/>
<path d="M2982 5099 c-55 -27 -116 -98 -136 -156 -73 -214 115 -334 287 -183
45 39 76 106 84 181 15 142 -104 222 -235 158z m77 -170 c-14 -41 -26 -57 -52
-71 -19 -10 -19 -8 -14 23 6 30 62 97 73 86 2 -2 -1 -19 -7 -38z"/>
<path d="M4761 4767 c-13 -6 -34 -25 -45 -40 -53 -72 0 -484 76 -597 53 -77
139 -101 212 -58 150 87 110 395 -81 628 -65 79 -106 96 -162 67z"/>
<path d="M2696 4209 c-61 -14 -110 -47 -140 -92 -51 -78 -24 -164 72 -226 111
-71 283 -81 403 -22 101 49 139 91 139 153 0 80 -25 103 -165 146 -171 52
-228 60 -309 41z"/>
<path d="M1148 4144 c-34 -18 -55 -58 -69 -127 -27 -143 45 -257 164 -257 140
0 235 131 184 253 -20 46 -86 101 -151 126 -66 25 -91 26 -128 5z"/>
<path d="M5257 3970 c-98 -25 -172 -83 -208 -165 -72 -162 16 -397 173 -465
149 -64 365 33 441 197 31 69 31 191 -1 251 -29 54 -84 107 -154 150 -46 27
-67 33 -134 37 -43 2 -96 0 -117 -5z m123 -300 c19 -12 2 -43 -25 -49 -19 -3
-45 23 -45 46 0 15 48 17 70 3z"/>
<path d="M4189 3756 c-156 -42 -256 -176 -247 -332 7 -114 62 -199 163 -252
41 -21 63 -26 125 -26 131 1 243 72 302 192 31 63 33 73 33 172 0 130 -16 162
-102 207 -95 50 -185 63 -274 39z m91 -284 c0 -18 -33 -52 -51 -52 -23 0 -25
17 -2 42 16 18 53 25 53 10z"/>
<path d="M3465 3361 c-34 -10 -60 -34 -97 -86 -53 -74 -118 -208 -118 -242 0
-60 67 -91 129 -58 79 40 191 217 191 300 0 60 -52 103 -105 86z"/>
<path d="M1006 3277 c-83 -14 -190 -70 -248 -129 -226 -233 -104 -586 241
-694 25 -8 100 -19 166 -24 158 -13 206 -30 271 -95 83 -82 132 -190 260 -568
101 -300 135 -368 229 -462 81 -81 167 -130 300 -171 102 -32 34 -29 1082 -40
570 -7 672 -2 892 37 313 56 621 193 775 346 204 202 310 603 240 912 -28 125
-112 248 -259 382 -190 173 -305 224 -510 223 -267 -1 -517 -86 -812 -276
-156 -101 -188 -118 -270 -138 -92 -24 -148 -25 -244 -5 -143 30 -291 108
-474 250 -370 287 -541 384 -775 442 -53 13 -133 16 -440 17 -206 1 -397 -2
-424 -7z m779 -387 c134 -34 180 -62 559 -329 429 -302 650 -395 936 -394 189
0 286 36 515 189 162 107 252 153 380 192 270 83 392 68 535 -65 67 -61 102
-127 119 -217 28 -150 -2 -346 -68 -454 -53 -88 -283 -226 -462 -276 -47 -13
-143 -34 -215 -47 -144 -25 -136 -25 -1169 -17 -516 4 -532 5 -593 26 -155 55
-196 116 -271 402 -54 208 -81 283 -144 403 -185 355 -340 475 -653 507 -122
13 -189 33 -204 60 -22 41 18 45 369 43 252 -2 295 -4 366 -23z"/>
<path d="M469 2048 c-31 -26 -42 -57 -29 -89 7 -16 16 -29 21 -29 4 0 21 -19
37 -43 76 -109 178 -180 265 -181 42 -1 52 3 74 28 21 25 24 37 21 77 -3 30
-14 58 -29 76 -85 104 -307 203 -360 161z"/>
<path d="M5363 1129 c-41 -12 -59 -38 -84 -122 -25 -79 -20 -122 17 -167 21
-25 33 -30 69 -30 74 0 114 52 130 167 15 113 -42 179 -132 152z"/>
</g>
</svg>
