<?xml version="1.0" standalone="no"?>
<!DOCTYPE svg PUBLIC "-//W3C//DTD SVG 20010904//EN"
 "http://www.w3.org/TR/2001/REC-SVG-20010904/DTD/svg10.dtd">
<svg version="1.0" xmlns="http://www.w3.org/2000/svg"
 width="600.000000pt" height="600.000000pt" viewBox="0 0 600.000000 600.000000"
 preserveAspectRatio="xMidYMid meet">
<metadata>
Created by potrace 1.15, written by Peter Selinger 2001-2017
</metadata>
<g transform="translate(0.000000,600.000000) scale(0.100000,-0.100000)"
fill="#16364b" stroke="none">
<path d="M2153 5827 c-37 -21 -361 -336 -494 -481 -150 -163 -189 -227 -189
-309 0 -47 5 -62 33 -99 37 -48 97 -77 162 -77 128 -2 497 118 771 250 120 57
144 85 144 168 0 59 -10 82 -53 128 -36 38 -87 58 -125 48 -15 -4 -86 -33
-157 -64 -72 -32 -142 -62 -155 -66 -16 -5 25 43 116 137 110 111 145 153 154
185 18 60 6 110 -40 155 -34 35 -42 38 -91 38 -30 -1 -64 -6 -76 -13z"/>
<path d="M3020 5667 c-94 -63 -98 -205 -8 -250 18 -9 75 -28 127 -42 123 -33
221 -86 292 -156 72 -70 95 -134 86 -247 -5 -62 -11 -82 -38 -122 -37 -54
-125 -116 -212 -150 -64 -25 -92 -54 -107 -111 -15 -53 3 -114 45 -156 58 -58
142 -46 298 45 237 137 354 369 319 630 -32 241 -235 433 -577 548 -122 40
-178 43 -225 11z"/>
<path d="M978 5330 c-319 -112 -461 -421 -321 -701 55 -111 170 -214 267 -240
113 -31 226 79 196 190 -10 39 -35 65 -119 126 -56 39 -95 118 -85 170 10 53
44 87 131 133 91 47 120 72 139 118 19 46 17 88 -6 134 -40 78 -109 102 -202
70z"/>
<path d="M2730 4963 c-107 -37 -185 -121 -221 -236 -30 -97 -24 -228 14 -308
30 -62 102 -136 164 -167 52 -27 151 -52 205 -52 148 0 215 166 109 271 -29
29 -48 39 -86 44 -67 10 -131 38 -145 65 -14 26 -5 73 19 94 10 9 39 20 65 25
141 26 167 204 39 270 -31 16 -110 13 -163 -6z"/>
<path d="M4775 4934 c-47 -24 -94 -75 -104 -112 -27 -97 36 -347 118 -467 152
-223 397 -234 509 -21 24 45 27 62 27 146 0 87 -3 101 -32 160 -64 130 -185
224 -367 286 -81 28 -110 30 -151 8z"/>
<path d="M1827 4510 c-59 -15 -116 -48 -169 -98 -61 -57 -78 -88 -78 -144 0
-149 168 -213 270 -103 59 64 110 70 163 20 46 -44 74 -55 136 -55 53 0 99 25
135 73 33 44 29 123 -8 171 -68 90 -173 137 -316 142 -52 2 -112 -1 -133 -6z"/>
<path d="M2750 3857 c-47 -25 -80 -74 -80 -120 0 -43 37 -106 76 -129 40 -23
40 -30 14 -131 -22 -88 -74 -203 -136 -299 -70 -109 -77 -126 -72 -179 9 -86
76 -149 160 -149 83 0 122 42 232 252 100 189 142 348 134 497 -8 133 -53 217
-140 262 -52 27 -133 25 -188 -4z"/>
<path d="M1197 3820 c-81 -14 -271 -78 -307 -102 -105 -71 -105 -221 1 -298
55 -40 101 -53 165 -48 30 3 54 2 54 0 0 -9 -71 -133 -162 -284 -113 -187
-175 -318 -233 -493 -60 -183 -61 -232 -8 -304 53 -69 169 -92 254 -48 106 54
354 265 589 501 102 102 189 186 193 186 23 0 -32 -325 -79 -465 -14 -44 -61
-156 -104 -250 -157 -343 -180 -398 -180 -434 0 -44 29 -108 61 -138 28 -26
89 -53 119 -53 26 0 80 27 98 49 27 33 82 161 135 316 30 88 78 219 106 292
68 176 97 280 128 453 45 254 50 379 21 495 -24 100 -99 160 -199 158 -95 -2
-177 -55 -399 -262 -55 -51 -100 -89 -100 -84 0 6 23 50 52 99 114 197 178
357 178 444 0 100 -67 207 -154 250 -51 24 -155 34 -229 20z"/>
<path d="M4201 3779 c-123 -22 -230 -99 -273 -197 -42 -95 -7 -242 77 -327 65
-64 108 -80 215 -80 88 0 100 3 163 34 116 58 222 185 287 342 17 43 21 66 16
95 -10 49 -68 108 -121 123 -55 15 -298 22 -364 10z m50 -299 c-24 -21 -43
-25 -55 -13 -9 9 33 32 59 32 19 0 19 -1 -4 -19z"/>
<path d="M3465 3389 c-60 -30 -103 -77 -140 -154 -35 -71 -65 -193 -65 -261 0
-42 34 -108 67 -129 38 -25 112 -35 192 -24 203 25 320 152 309 334 -6 85 -34
143 -98 198 -70 59 -186 75 -265 36z"/>
<path d="M4862 2833 c-37 -18 -158 -160 -210 -245 -49 -83 -75 -163 -76 -243
-1 -83 21 -133 78 -179 35 -29 43 -31 119 -31 65 0 92 5 128 23 137 67 218
209 235 412 8 99 -3 132 -71 203 -75 79 -131 96 -203 60z"/>
<path d="M4172 2496 c-69 -22 -119 -63 -147 -119 -33 -67 -32 -112 5 -232 28
-91 35 -125 26 -125 -2 0 -35 12 -72 26 -47 18 -97 28 -156 32 -80 4 -92 3
-142 -22 -107 -52 -189 -180 -208 -323 -12 -89 -2 -198 36 -393 13 -69 27
-144 31 -167 16 -101 100 -173 202 -173 97 0 176 42 219 117 41 69 45 110 22
260 -11 74 -18 136 -15 139 8 8 47 -15 88 -51 49 -44 98 -59 173 -52 143 12
240 72 296 181 31 62 35 77 38 170 3 66 -1 130 -11 181 -31 159 -89 391 -107
425 -53 104 -175 159 -278 126z"/>
<path d="M2945 2280 c-85 -18 -215 -73 -419 -179 l-213 -110 -52 19 c-65 25
-153 26 -207 1 -52 -24 -137 -110 -165 -169 -67 -138 16 -302 153 -302 l46 0
11 -62 c6 -35 14 -72 17 -84 5 -17 -5 -25 -58 -52 -83 -41 -169 -127 -209
-208 -27 -54 -33 -79 -37 -158 -5 -109 6 -170 54 -274 71 -155 205 -312 319
-374 126 -67 348 -121 500 -121 96 0 121 4 197 30 93 32 214 97 274 146 148
122 18 396 -164 348 -24 -6 -64 -27 -89 -46 -67 -51 -144 -85 -205 -92 -106
-11 -281 59 -386 154 -107 97 -150 253 -70 253 23 0 112 -44 156 -77 50 -38
96 -53 160 -53 96 0 161 57 170 148 7 73 -12 115 -83 187 -78 78 -118 158
-150 303 -31 136 -31 138 6 151 17 6 82 40 145 77 130 75 299 154 331 154 l22
0 -19 -62 c-41 -140 -85 -249 -171 -422 -68 -138 -76 -191 -36 -261 57 -101
183 -122 271 -45 83 73 237 387 317 645 29 94 34 124 34 210 0 95 -2 103 -34
163 -61 112 -151 164 -291 168 -47 2 -103 -1 -125 -6z"/>
</g>
</svg>
