<?xml version="1.0" standalone="no"?>
<!DOCTYPE svg PUBLIC "-//W3C//DTD SVG 20010904//EN"
 "http://www.w3.org/TR/2001/REC-SVG-20010904/DTD/svg10.dtd">
<svg version="1.0" xmlns="http://www.w3.org/2000/svg"
 width="600.000000pt" height="600.000000pt" viewBox="0 0 600.000000 600.000000"
 preserveAspectRatio="xMidYMid meet">
<metadata>
Created by potrace 1.15, written by Peter Selinger 2001-2017
</metadata>
<g transform="translate(0.000000,600.000000) scale(0.100000,-0.100000)"
fill="#16364b" stroke="none">
<path d="M2962 5592 c-18 -10 -44 -35 -58 -56 -38 -56 -111 -214 -123 -266
-36 -158 27 -275 173 -322 17 -6 94 -13 171 -17 l140 -6 -49 -35 c-164 -118
-531 -451 -562 -512 -32 -62 -11 -131 63 -200 56 -52 95 -66 258 -98 55 -11
170 -33 256 -49 86 -17 199 -44 251 -61 109 -34 125 -36 170 -14 48 23 71 60
75 118 5 69 -20 110 -90 141 -58 27 -277 89 -464 131 l-123 28 23 24 c54 58
186 159 368 280 257 171 290 210 276 328 -6 57 -45 108 -115 150 -77 47 -162
64 -348 71 -122 5 -164 9 -164 19 0 7 21 55 46 108 37 76 45 102 40 128 -19
104 -124 158 -214 110z"/>
<path d="M1505 5321 c-207 -105 -473 -448 -569 -735 -14 -43 -26 -99 -26 -125
0 -90 68 -161 153 -161 21 0 91 13 155 29 138 35 311 71 341 71 12 0 21 -5 21
-11 0 -6 -31 -78 -70 -159 -95 -202 -130 -293 -130 -339 0 -26 -7 -44 -21 -57
-37 -34 -52 -73 -46 -128 3 -40 11 -55 35 -77 39 -35 96 -51 142 -40 62 15
271 101 436 180 182 88 205 109 212 196 5 63 -14 105 -61 134 -57 35 -113 28
-218 -25 -50 -25 -93 -43 -95 -41 -3 2 24 60 58 128 68 133 88 198 88 286 0
78 -17 127 -62 178 -75 85 -170 101 -378 65 -63 -11 -121 -20 -128 -20 -16 0
-3 21 99 160 89 121 154 186 224 227 27 16 58 44 69 62 26 45 25 109 -3 154
-28 46 -62 67 -119 73 -39 5 -57 0 -107 -25z"/>
<path d="M4540 4553 c-133 -22 -395 -128 -435 -175 -57 -68 -53 -161 10 -217
56 -49 92 -50 204 -6 138 53 211 78 217 73 10 -11 -81 -180 -292 -543 -27 -46
-32 -121 -10 -163 14 -28 114 -120 152 -140 12 -6 121 -23 243 -36 123 -14
227 -29 233 -32 5 -3 7 -18 3 -33 -7 -30 -100 -201 -204 -376 -83 -140 -91
-169 -65 -234 41 -98 176 -122 246 -45 15 17 130 215 261 447 55 98 87 189 87
245 -1 48 -33 118 -73 160 -69 72 -172 108 -397 138 -69 9 -131 19 -137 23 -9
5 18 62 93 191 58 102 121 215 140 253 87 171 83 308 -12 403 -61 61 -155 85
-264 67z"/>
<path d="M3732 3667 c-42 -16 -91 -63 -108 -104 -26 -60 -10 -158 33 -205 48
-53 147 -74 207 -43 15 8 30 15 32 15 14 0 0 -92 -22 -140 l-25 -57 -79 -17
c-111 -24 -193 -68 -272 -146 -76 -76 -102 -126 -95 -188 9 -84 73 -142 157
-142 53 0 73 11 140 76 69 66 125 92 237 106 96 12 153 36 180 77 10 15 20 58
24 101 3 41 19 108 34 149 23 65 26 86 23 165 -3 74 -9 102 -31 148 -62 126
-190 211 -327 215 -41 1 -90 -3 -108 -10z"/>
<path d="M2535 3579 c-136 -20 -380 -118 -445 -179 -16 -15 -33 -46 -40 -69
-38 -143 107 -250 240 -176 151 85 273 135 327 135 21 0 23 -5 23 -43 0 -110
-76 -315 -180 -488 -75 -124 -86 -169 -56 -227 12 -23 12 -35 -1 -87 -13 -49
-14 -68 -4 -103 17 -60 75 -116 136 -131 57 -14 84 -9 179 34 141 64 330 123
341 106 2 -5 -20 -80 -50 -167 -39 -113 -55 -174 -55 -212 0 -180 212 -270
327 -139 35 40 141 318 168 441 46 206 -17 357 -180 433 -56 26 -67 28 -185
27 -100 -2 -143 -7 -215 -27 -49 -14 -91 -24 -93 -22 -2 2 7 20 20 42 105 170
177 467 150 615 -33 177 -191 270 -407 237z"/>
<path d="M1150 3330 c-68 -12 -116 -34 -215 -101 -96 -64 -132 -105 -145 -166
-20 -86 36 -194 117 -229 39 -17 103 -18 138 -2 14 6 27 9 30 6 3 -3 -15 -88
-39 -189 -50 -207 -66 -324 -66 -496 0 -262 26 -343 123 -389 72 -33 179 -34
228 -1 32 21 130 161 298 428 36 57 108 161 160 231 l96 129 17 -38 c23 -52
22 -101 -7 -282 -28 -183 -65 -558 -65 -670 0 -93 12 -135 53 -178 37 -39 86
-57 134 -50 50 8 80 31 104 78 18 36 20 51 14 127 -8 96 6 277 36 482 57 386
58 451 6 692 -27 124 -61 187 -126 233 -38 27 -51 30 -114 30 -131 0 -191 -54
-383 -345 -69 -106 -128 -190 -130 -187 -3 3 9 76 25 163 59 312 63 457 14
567 -53 117 -175 180 -303 157z"/>
<path d="M4662 2359 c-63 -32 -112 -108 -112 -175 0 -21 -6 -23 -67 -28 -280
-24 -379 -44 -500 -101 -206 -96 -269 -251 -233 -569 6 -49 8 -91 6 -94 -3 -2
-30 18 -61 46 -112 99 -246 144 -367 123 -78 -13 -221 -84 -306 -152 -113 -91
-181 -196 -261 -411 -21 -56 -43 -104 -48 -105 -12 -4 -38 81 -123 411 -39
148 -76 269 -87 284 -39 53 -90 85 -142 90 -27 2 -61 2 -75 -2 -61 -15 -125
-104 -126 -172 0 -18 16 -90 35 -160 19 -71 55 -222 79 -335 61 -283 90 -358
172 -449 95 -105 301 -130 446 -53 60 33 125 127 172 249 64 169 134 289 219
376 26 25 55 49 66 53 30 9 75 -19 171 -109 48 -45 116 -97 151 -116 59 -32
71 -35 154 -35 82 0 95 3 150 32 74 38 140 95 162 137 9 17 33 51 54 75 60 68
64 98 44 289 -13 124 -14 167 -6 175 8 8 90 14 244 19 133 3 249 11 272 18
115 35 191 99 239 199 30 64 31 71 31 201 0 148 -11 184 -72 242 -71 68 -197
88 -281 47z"/>
</g>
</svg>
