<?xml version="1.0" standalone="no"?>
<!DOCTYPE svg PUBLIC "-//W3C//DTD SVG 20010904//EN"
 "http://www.w3.org/TR/2001/REC-SVG-20010904/DTD/svg10.dtd">
<svg version="1.0" xmlns="http://www.w3.org/2000/svg"
 width="600.000000pt" height="600.000000pt" viewBox="0 0 600.000000 600.000000"
 preserveAspectRatio="xMidYMid meet">
<metadata>
Created by potrace 1.15, written by Peter Selinger 2001-2017
</metadata>
<g transform="translate(0.000000,600.000000) scale(0.100000,-0.100000)"
fill="#16364b" stroke="none">
<path d="M2115 5452 c-46 -29 -63 -53 -85 -118 -30 -87 -28 -172 5 -240 49
-100 141 -144 300 -144 52 0 95 -4 95 -9 0 -4 -18 -57 -41 -116 -41 -111 -72
-230 -84 -322 -17 -129 99 -220 211 -167 46 22 71 67 89 161 15 78 42 163 104
329 55 148 50 233 -19 316 -40 48 -135 95 -208 103 -31 3 -76 8 -99 11 l-43 5
0 47 c-1 90 -58 153 -144 159 -38 3 -59 -1 -81 -15z"/>
<path d="M3434 5401 c-48 -30 -64 -59 -64 -117 0 -92 70 -154 174 -154 75 0
98 -20 104 -93 5 -67 -9 -131 -55 -246 -53 -130 -36 -202 55 -237 39 -16 45
-16 87 0 55 21 76 48 109 134 108 286 96 497 -35 630 -69 69 -136 96 -249 100
-81 3 -100 0 -126 -17z"/>
<path d="M1641 4830 c-78 -17 -244 -71 -306 -100 -77 -37 -110 -87 -102 -157
5 -51 29 -88 77 -120 41 -29 84 -29 175 -3 179 52 294 66 414 50 82 -12 92
-11 127 6 78 38 103 117 65 200 -39 85 -130 125 -296 130 -60 1 -130 -1 -154
-6z"/>
<path d="M4255 4450 c-96 -61 -96 -201 -1 -252 11 -6 66 -19 123 -28 179 -31
199 -57 189 -250 -3 -63 -9 -145 -12 -181 -7 -78 9 -119 59 -149 62 -38 155
-13 196 53 46 75 67 357 36 479 -36 136 -107 233 -208 282 -127 62 -321 85
-382 46z"/>
<path d="M1530 4449 c-44 -9 -97 -66 -106 -113 -13 -74 21 -147 85 -180 15 -8
123 -26 241 -41 118 -15 257 -35 309 -46 118 -24 135 -24 181 2 56 32 83 87
78 157 -4 48 -10 60 -40 87 -38 36 -49 38 -428 95 -113 18 -223 35 -245 39
-22 4 -56 4 -75 0z"/>
<path d="M3236 4423 c-10 -3 -116 -59 -235 -126 -119 -67 -279 -150 -356 -185
-77 -35 -148 -71 -157 -79 -10 -9 -25 -35 -34 -59 -14 -38 -15 -50 -4 -89 22
-79 101 -127 181 -111 48 9 461 217 604 303 84 51 138 91 152 112 44 65 24
174 -39 215 -26 17 -84 27 -112 19z"/>
<path d="M2160 3829 c-113 -29 -286 -49 -423 -49 -107 0 -127 -3 -162 -23 -54
-30 -90 -100 -80 -157 8 -49 47 -98 92 -116 92 -39 703 16 786 71 31 20 57 73
57 116 0 46 -36 115 -76 146 -44 33 -99 37 -194 12z"/>
<path d="M3700 3781 c-30 -10 -140 -58 -245 -108 -104 -49 -238 -111 -296
-137 -132 -59 -161 -86 -166 -158 -5 -62 17 -106 69 -138 66 -40 100 -31 358
94 204 99 236 113 245 99 35 -56 62 -76 111 -80 86 -9 135 31 167 132 46 148
18 253 -77 296 -51 23 -95 23 -166 0z"/>
<path d="M4953 3434 c-23 -8 -59 -35 -81 -58 -53 -57 -66 -116 -47 -206 32
-148 15 -202 -106 -350 -118 -144 -163 -213 -236 -362 -84 -167 -112 -246
-120 -334 -11 -117 32 -201 130 -250 43 -22 60 -26 123 -22 61 3 79 8 115 33
55 39 86 101 99 195 18 140 74 244 226 415 123 139 183 232 219 339 44 132 50
296 15 425 -35 132 -209 222 -337 175z"/>
<path d="M2020 3209 c-118 -47 -135 -214 -29 -278 37 -22 103 -36 266 -55 131
-16 143 -19 143 -42 0 -35 42 -94 80 -114 80 -41 161 -16 201 62 41 80 12 233
-57 302 -66 65 -126 83 -392 116 -184 23 -178 22 -212 9z"/>
<path d="M4315 3168 c-11 -6 -57 -46 -102 -90 -134 -127 -254 -195 -461 -262
-62 -20 -165 -45 -229 -56 -123 -21 -149 -34 -179 -92 -33 -63 -2 -160 65
-205 25 -17 48 -23 89 -23 120 0 479 102 635 181 179 90 385 262 409 341 23
77 -23 172 -99 204 -39 17 -100 18 -128 2z"/>
<path d="M1325 2985 c-75 -29 -125 -96 -125 -170 0 -19 9 -58 20 -87 16 -40
25 -103 36 -253 26 -349 56 -490 141 -664 56 -114 110 -174 172 -191 100 -26
204 19 243 107 24 55 20 104 -13 166 -102 189 -126 285 -159 657 -27 293 -53
379 -128 423 -43 25 -136 31 -187 12z"/>
<path d="M2116 2445 c-128 -33 -275 -141 -294 -218 -38 -149 127 -262 249
-171 42 32 95 59 131 68 23 5 31 0 58 -38 71 -99 200 -101 273 -5 34 47 34
101 -2 174 -75 152 -249 232 -415 190z"/>
<path d="M3790 2153 c-14 -2 -90 -20 -169 -39 -80 -19 -210 -45 -290 -59 -160
-26 -308 -55 -445 -87 -79 -18 -94 -25 -132 -63 -64 -64 -80 -143 -45 -220 23
-52 71 -92 118 -101 38 -7 417 51 798 122 215 40 289 44 367 19 55 -17 58 -17
114 1 47 15 65 28 91 62 29 38 33 51 33 105 0 75 -23 128 -76 179 -65 64 -114
81 -234 84 -58 1 -116 0 -130 -3z"/>
<path d="M2240 1898 c-44 -30 -60 -63 -71 -150 -24 -188 64 -436 199 -566 72
-69 189 -50 235 38 26 50 18 118 -19 171 -102 145 -123 211 -103 323 24 127
-26 197 -145 204 -52 3 -66 0 -96 -20z"/>
<path d="M4677 1635 c-21 -7 -69 -42 -105 -78 -104 -100 -173 -128 -447 -182
-475 -95 -721 -200 -770 -330 -25 -64 -17 -152 18 -202 43 -62 104 -89 188
-85 15 1 62 25 105 54 165 107 278 145 648 213 171 32 251 57 361 113 99 51
223 159 256 224 41 80 13 192 -60 242 -66 46 -126 56 -194 31z"/>
<path d="M2074 1061 c-80 -36 -128 -141 -105 -228 29 -107 339 -326 583 -412
228 -79 420 -59 683 74 117 59 152 98 162 182 5 44 2 61 -20 105 -37 74 -82
103 -161 103 -52 0 -75 -7 -156 -47 -160 -78 -286 -87 -432 -30 -87 33 -218
116 -303 191 -33 30 -74 60 -92 67 -45 19 -110 17 -159 -5z"/>
</g>
</svg>
