<?xml version="1.0" standalone="no"?>
<!DOCTYPE svg PUBLIC "-//W3C//DTD SVG 20010904//EN"
 "http://www.w3.org/TR/2001/REC-SVG-20010904/DTD/svg10.dtd">
<svg version="1.0" xmlns="http://www.w3.org/2000/svg"
 width="600.000000pt" height="600.000000pt" viewBox="0 0 600.000000 600.000000"
 preserveAspectRatio="xMidYMid meet">
<metadata>
Created by potrace 1.15, written by Peter Selinger 2001-2017
</metadata>
<g transform="translate(0.000000,600.000000) scale(0.100000,-0.100000)"
fill="#16364b" stroke="none">
<path d="M1714 5796 c-50 -22 -72 -61 -119 -210 -62 -192 -87 -319 -89 -446
-1 -124 16 -182 70 -229 103 -91 236 -49 411 130 114 118 300 360 313 409 26
96 -41 190 -135 190 -59 0 -92 -26 -198 -153 -53 -63 -101 -118 -107 -122 -14
-9 -7 20 42 165 44 131 45 147 18 200 -35 69 -130 99 -206 66z"/>
<path d="M3093 5649 c-39 -12 -80 -59 -89 -103 -9 -53 25 -119 82 -158 99 -69
293 -229 381 -314 78 -77 133 -151 133 -182 0 -5 -21 -7 -47 -5 -88 8 -159
-66 -150 -156 10 -90 75 -135 197 -135 88 1 148 23 202 76 59 60 73 100 73
214 0 96 -2 103 -38 178 -29 59 -60 99 -125 165 -104 105 -321 287 -435 364
-86 59 -130 72 -184 56z"/>
<path d="M880 5447 c-250 -85 -369 -383 -249 -625 35 -71 124 -167 175 -188
100 -42 204 29 204 138 0 58 -18 96 -62 133 -67 56 -86 121 -54 183 31 59 61
76 148 83 91 8 122 25 151 80 36 67 9 155 -61 201 -40 27 -168 24 -252 -5z"/>
<path d="M2949 5176 c-167 -59 -266 -254 -196 -386 26 -50 98 -104 160 -121
97 -27 245 -5 306 47 46 38 56 84 42 188 -7 49 -21 111 -31 140 -44 117 -165
174 -281 132z"/>
<path d="M4750 4838 c-68 -47 -75 -67 -73 -196 5 -319 155 -544 362 -544 67 0
114 17 165 62 63 56 81 101 81 205 0 80 -3 97 -31 155 -40 85 -126 177 -228
244 -155 103 -211 118 -276 74z"/>
<path d="M2020 4795 c-84 -24 -140 -55 -161 -89 -39 -64 -15 -155 53 -196 50
-30 94 -35 153 -16 75 23 88 21 124 -24 54 -68 150 -78 206 -22 36 35 45 62
45 125 -1 90 -48 165 -131 208 -57 30 -206 37 -289 14z"/>
<path d="M2843 4076 c-63 -21 -107 -51 -139 -97 -24 -35 -29 -54 -32 -113 -2
-59 1 -77 20 -111 32 -55 97 -101 181 -127 62 -20 93 -23 227 -22 127 0 177 5
277 27 67 14 133 33 147 42 28 19 66 90 66 123 0 33 -24 84 -51 109 -36 33
-203 108 -320 144 -124 37 -303 49 -376 25z"/>
<path d="M1041 4060 c-53 -11 -82 -30 -114 -72 -49 -66 -43 -158 15 -224 48
-55 80 -67 175 -65 l84 1 -33 -43 c-121 -155 -191 -243 -327 -406 -274 -329
-303 -379 -280 -479 13 -58 44 -98 96 -123 39 -19 53 -20 149 -14 118 8 109 4
307 148 71 51 321 207 333 207 2 0 22 -12 44 -26 51 -34 64 -74 57 -173 -16
-239 -257 -629 -446 -724 -81 -40 -104 -70 -109 -144 -3 -48 0 -64 20 -92 58
-86 129 -98 244 -41 103 50 215 168 342 359 198 301 243 422 246 662 l1 145
36 16 c20 8 49 32 65 53 27 36 29 45 32 151 7 226 -61 344 -198 344 -58 0
-104 -22 -242 -112 -148 -97 -143 -94 -133 -77 5 8 27 39 50 69 97 129 169
271 180 357 17 121 -64 246 -185 287 -63 21 -332 32 -409 16z"/>
<path d="M4240 3776 c-147 -31 -227 -79 -278 -164 -24 -42 -27 -57 -27 -137 0
-76 4 -99 26 -145 56 -121 137 -180 255 -188 68 -4 80 -2 138 27 116 57 205
177 267 358 44 130 36 196 -28 239 -23 15 -51 19 -158 21 -81 1 -154 -3 -195
-11z m50 -305 c-11 -21 -47 -37 -58 -26 -9 9 35 45 54 45 11 0 12 -4 4 -19z"/>
<path d="M3401 3419 c-54 -17 -125 -98 -181 -210 -39 -78 -50 -111 -50 -147 0
-56 26 -104 72 -132 49 -30 166 -28 233 4 95 44 162 151 172 275 5 59 2 76
-17 116 -40 82 -136 122 -229 94z"/>
<path d="M5059 3220 c-45 -13 -162 -94 -215 -148 -28 -28 -63 -75 -80 -104
-27 -49 -29 -61 -29 -153 0 -115 16 -156 83 -217 51 -46 98 -61 181 -56 126 7
236 85 295 208 28 59 31 74 31 165 0 83 -4 109 -23 151 -30 66 -105 139 -157
153 -45 12 -50 12 -86 1z"/>
<path d="M3922 2549 c-52 -16 -109 -80 -127 -142 -17 -60 -15 -80 31 -237 13
-46 24 -88 24 -92 0 -4 -19 -1 -41 7 -103 37 -214 7 -275 -73 -46 -60 -59
-109 -58 -217 2 -112 24 -224 76 -374 79 -229 126 -295 236 -327 133 -39 261
49 264 181 l1 45 64 0 c123 0 236 78 280 191 21 55 23 224 4 324 -43 228 -146
554 -195 617 -62 81 -192 126 -284 97z"/>
<path d="M2026 2365 c-58 -20 -142 -82 -190 -139 -62 -73 -121 -165 -137 -211
-8 -22 -28 -62 -45 -90 -59 -95 -185 -343 -215 -426 -95 -259 -3 -652 200
-855 111 -111 242 -187 406 -235 71 -21 100 -24 265 -23 163 0 195 3 267 23
87 24 172 70 248 135 41 33 111 115 236 272 80 101 161 285 244 560 58 189 68
246 63 357 -3 81 -8 103 -36 160 -59 120 -163 189 -293 195 -95 5 -185 -17
-363 -87 -71 -28 -133 -48 -137 -45 -5 3 -9 12 -9 19 0 57 -176 301 -254 354
-76 50 -171 64 -250 36z m143 -560 c28 -113 49 -153 108 -205 99 -87 157 -97
283 -50 150 55 374 128 405 132 29 3 30 2 27 -32 -9 -89 -129 -398 -204 -525
-76 -129 -205 -265 -293 -311 -85 -45 -151 -57 -262 -52 -82 5 -102 10 -166
41 -177 88 -266 236 -267 443 0 115 68 309 149 428 17 25 40 65 50 89 11 25
39 75 63 111 l43 67 21 -24 c11 -14 31 -64 43 -112z"/>
</g>
</svg>
