<?xml version="1.0" standalone="no"?>
<!DOCTYPE svg PUBLIC "-//W3C//DTD SVG 20010904//EN"
 "http://www.w3.org/TR/2001/REC-SVG-20010904/DTD/svg10.dtd">
<svg version="1.0" xmlns="http://www.w3.org/2000/svg"
 width="600.000000pt" height="600.000000pt" viewBox="0 0 600.000000 600.000000"
 preserveAspectRatio="xMidYMid meet">
<metadata>
Created by potrace 1.15, written by Peter Selinger 2001-2017
</metadata>
<g transform="translate(0.000000,600.000000) scale(0.100000,-0.100000)"
fill="#16364b" stroke="none">
<path d="M1883 4796 c-77 -24 -141 -81 -174 -156 -32 -70 -29 -157 11 -271 43
-124 78 -322 90 -499 5 -80 12 -314 15 -520 3 -206 10 -469 16 -585 8 -173 7
-237 -5 -364 -16 -158 -19 -356 -8 -516 5 -66 12 -99 27 -120 11 -17 22 -41
25 -55 4 -19 12 -26 35 -28 27 -3 37 -14 82 -91 65 -111 135 -187 229 -251 77
-51 190 -93 281 -105 l48 -7 -4 -130 c-4 -163 14 -272 79 -468 27 -79 46 -148
44 -152 -3 -4 -25 -8 -49 -8 -127 0 -205 -45 -205 -117 0 -21 7 -48 15 -60 51
-73 258 -35 344 62 66 76 66 112 2 321 -63 205 -85 328 -79 444 2 49 7 92 10
95 3 3 92 -2 199 -11 153 -12 257 -14 491 -9 l297 7 -1 -114 c0 -142 23 -325
64 -491 36 -149 37 -146 -57 -147 -84 -1 -141 -28 -162 -77 -14 -35 -14 -40 3
-73 35 -64 127 -75 251 -29 97 37 153 104 153 184 0 20 -11 75 -25 123 -13 48
-31 127 -40 177 -19 108 -31 333 -21 397 l7 45 74 7 c140 13 378 67 484 110
188 76 328 233 372 416 31 128 7 336 -56 494 -30 74 -30 85 -8 125 l18 30 -45
46 c-119 123 -303 232 -605 360 -60 26 -155 71 -210 101 -55 31 -176 94 -270
141 -406 205 -539 295 -718 482 -151 159 -191 223 -428 701 -208 418 -224 447
-279 501 -92 90 -204 120 -317 85z m116 -142 c53 -11 114 -74 150 -156 17 -40
38 -84 46 -98 8 -14 88 -173 178 -355 115 -231 183 -356 227 -415 120 -162
380 -409 555 -527 33 -22 193 -109 355 -193 162 -84 313 -166 335 -181 23 -15
141 -79 263 -143 123 -63 238 -125 255 -137 59 -40 195 -190 225 -248 47 -88
82 -220 82 -311 0 -179 -96 -336 -252 -412 -127 -63 -404 -115 -673 -128 -237
-11 -644 -11 -790 0 -60 5 -171 13 -245 19 -254 20 -381 64 -484 169 -67 68
-78 84 -115 159 -37 75 -58 141 -82 255 -21 97 -20 74 -49 1133 -24 862 -27
922 -54 1075 -13 80 -39 190 -56 245 -45 138 -32 208 43 240 37 16 44 17 86 9z"/>
<path d="M2565 2690 c-23 -26 -13 -64 27 -93 23 -17 32 -19 52 -9 32 14 44 57
25 91 -20 35 -77 41 -104 11z"/>
<path d="M3040 2517 c-39 -20 -39 -67 1 -101 22 -19 37 -25 53 -20 51 16 62
80 20 113 -31 24 -40 25 -74 8z"/>
<path d="M5250 3985 c-109 -31 -172 -84 -218 -184 -36 -79 -36 -194 0 -273 33
-72 98 -142 163 -176 42 -23 63 -27 131 -27 73 0 88 4 157 38 86 42 135 92
176 177 22 47 26 69 26 145 0 130 -38 193 -165 270 -50 31 -69 36 -137 40 -53
3 -96 0 -133 -10z m124 -318 l30 -13 -22 -22 c-12 -12 -29 -22 -37 -22 -18 0
-38 37 -31 56 7 17 21 17 60 1z"/>
<path d="M5322 1117 c-36 -17 -73 -98 -73 -162 -2 -113 78 -168 162 -112 41
27 68 96 69 175 0 46 -4 58 -29 83 -32 32 -84 38 -129 16z"/>
</g>
</svg>
