<?xml version="1.0" standalone="no"?>
<!DOCTYPE svg PUBLIC "-//W3C//DTD SVG 20010904//EN"
 "http://www.w3.org/TR/2001/REC-SVG-20010904/DTD/svg10.dtd">
<svg version="1.0" xmlns="http://www.w3.org/2000/svg"
 width="600.000000pt" height="600.000000pt" viewBox="0 0 600.000000 600.000000"
 preserveAspectRatio="xMidYMid meet">
<metadata>
Created by potrace 1.15, written by Peter Selinger 2001-2017
</metadata>
<g transform="translate(0.000000,600.000000) scale(0.100000,-0.100000)"
fill="#16364b" stroke="none">
<path d="M2110 5448 c-51 -26 -83 -79 -102 -168 -24 -115 19 -211 116 -259 40
-20 73 -26 175 -33 69 -5 129 -9 132 -11 4 -1 -13 -61 -37 -133 -50 -150 -84
-303 -84 -376 0 -65 27 -110 84 -137 53 -26 69 -26 121 -1 53 26 72 60 100
183 13 56 49 167 81 247 90 225 87 311 -15 403 -74 67 -151 95 -303 113 l-58
6 0 40 c0 111 -110 177 -210 126z"/>
<path d="M3465 5419 c-87 -25 -131 -137 -83 -209 31 -47 96 -79 161 -78 42 0
55 -4 70 -24 17 -20 19 -35 15 -108 -4 -69 -13 -104 -44 -180 -42 -105 -48
-153 -21 -194 24 -36 75 -66 112 -66 45 0 117 40 138 77 28 48 77 196 93 280
42 223 -20 388 -176 468 -79 40 -194 55 -265 34z"/>
<path d="M1670 4843 c-82 -9 -211 -36 -295 -64 -121 -38 -155 -75 -155 -166 0
-61 25 -111 70 -141 45 -30 102 -26 260 18 98 28 132 32 230 32 63 1 140 -1
170 -3 44 -3 63 1 92 19 98 61 86 217 -20 271 -68 34 -218 48 -352 34z"/>
<path d="M4285 4483 c-89 -23 -135 -146 -82 -223 36 -54 65 -68 170 -85 197
-31 213 -53 203 -290 -5 -146 -4 -162 13 -189 30 -45 70 -66 126 -66 63 0 111
28 132 78 25 58 23 344 -3 432 -55 181 -196 290 -433 334 -86 17 -93 17 -126
9z"/>
<path d="M1505 4462 c-78 -37 -111 -151 -62 -222 37 -56 72 -69 289 -106 112
-19 260 -46 330 -60 150 -30 188 -25 237 31 39 45 47 90 26 141 -31 75 -64 96
-205 130 -76 18 -386 75 -545 100 -18 3 -47 -3 -70 -14z"/>
<path d="M3222 4428 c-18 -5 -70 -30 -115 -57 -45 -27 -150 -84 -232 -128
-220 -118 -318 -172 -335 -186 -50 -39 -65 -119 -35 -177 21 -41 74 -70 129
-70 72 0 454 194 671 340 77 52 95 79 95 143 0 93 -86 159 -178 135z"/>
<path d="M2170 3844 c-121 -34 -325 -58 -440 -51 -111 6 -161 -6 -202 -52 -71
-79 -50 -188 45 -238 38 -19 259 -37 378 -29 101 6 212 34 349 87 135 52 185
134 138 227 -43 85 -112 99 -268 56z"/>
<path d="M3679 3810 c-61 -15 -137 -53 -279 -137 -150 -89 -199 -115 -313
-168 -64 -30 -80 -42 -97 -75 -24 -48 -25 -81 -3 -127 22 -47 66 -73 124 -73
38 0 76 15 223 90 98 50 205 102 238 116 l62 26 30 -36 c56 -65 135 -82 207
-45 61 30 94 107 94 214 0 95 -20 133 -96 184 -51 36 -125 47 -190 31z"/>
<path d="M4976 3446 c-50 -19 -104 -70 -127 -123 -17 -35 -19 -62 -17 -170 3
-124 2 -130 -26 -183 -30 -58 -61 -99 -161 -215 -189 -219 -333 -586 -285
-730 17 -53 76 -114 135 -141 145 -68 312 15 330 165 20 165 90 315 220 472
173 207 233 317 257 474 14 91 -2 254 -31 319 -49 109 -188 172 -295 132z"/>
<path d="M4348 3175 c-22 -7 -76 -49 -134 -104 -208 -197 -352 -261 -660 -294
-143 -16 -179 -30 -209 -79 -25 -42 -23 -118 4 -162 24 -39 91 -76 137 -76 58
0 351 51 439 76 50 14 123 41 162 59 190 88 437 288 464 377 38 121 -86 244
-203 203z"/>
<path d="M1992 3160 c-96 -59 -95 -183 1 -254 26 -19 44 -21 213 -24 129 -3
186 -7 189 -15 2 -7 6 -25 9 -40 4 -15 22 -44 40 -64 29 -33 39 -37 92 -41 50
-3 65 0 93 20 53 36 73 77 73 156 1 115 -43 197 -133 247 l-54 30 -245 3
c-231 2 -247 1 -278 -18z"/>
<path d="M1305 2982 c-99 -62 -141 -185 -91 -266 19 -30 33 -93 72 -326 47
-277 71 -388 109 -500 69 -202 120 -277 207 -301 87 -23 172 18 217 105 39 76
34 130 -21 246 -81 167 -124 331 -158 607 -35 276 -63 364 -136 420 -49 37
-152 45 -199 15z"/>
<path d="M2100 2405 c-93 -30 -207 -99 -237 -144 -38 -56 -28 -129 25 -184 66
-70 141 -77 222 -21 55 38 110 64 134 64 8 0 23 -16 35 -35 31 -53 76 -77 134
-72 54 5 91 27 125 77 46 69 18 166 -75 250 -99 91 -217 112 -363 65z"/>
<path d="M3780 2148 c-25 -5 -119 -27 -210 -49 -91 -22 -295 -62 -454 -89
-259 -44 -294 -52 -330 -77 -160 -111 -76 -353 123 -353 106 0 573 77 891 146
152 33 169 35 216 24 59 -15 86 -10 134 23 75 50 103 163 60 246 -25 51 -91
106 -148 125 -51 18 -208 20 -282 4z"/>
<path d="M2285 1910 c-56 -17 -95 -70 -116 -157 -46 -193 -4 -346 138 -502 76
-83 123 -111 189 -111 62 0 107 29 134 85 34 70 22 110 -55 194 -88 96 -107
150 -103 292 3 95 1 110 -18 135 -45 60 -105 83 -169 64z"/>
<path d="M4635 1646 c-16 -8 -55 -37 -85 -66 -98 -92 -167 -122 -480 -210
-253 -70 -346 -103 -475 -167 -207 -102 -274 -167 -275 -266 0 -117 107 -211
220 -192 21 3 69 24 106 47 214 125 348 174 650 237 216 44 364 112 526 240
104 82 130 118 131 180 2 107 -99 199 -226 207 -41 3 -72 0 -92 -10z"/>
<path d="M2085 1076 c-108 -40 -155 -175 -95 -274 39 -64 312 -268 446 -333
202 -98 447 -114 654 -44 95 32 187 83 231 126 91 91 65 244 -53 303 -74 37
-108 34 -213 -19 -114 -58 -195 -73 -297 -56 -129 21 -264 92 -403 211 -105
90 -187 116 -270 86z"/>
</g>
</svg>
