<?xml version="1.0" standalone="no"?>
<!DOCTYPE svg PUBLIC "-//W3C//DTD SVG 20010904//EN"
 "http://www.w3.org/TR/2001/REC-SVG-20010904/DTD/svg10.dtd">
<svg version="1.0" xmlns="http://www.w3.org/2000/svg"
 width="600.000000pt" height="600.000000pt" viewBox="0 0 600.000000 600.000000"
 preserveAspectRatio="xMidYMid meet">
<metadata>
Created by potrace 1.15, written by Peter Selinger 2001-2017
</metadata>
<g transform="translate(0.000000,600.000000) scale(0.100000,-0.100000)"
fill="#16364b" stroke="none">
<path d="M2445 5475 c-45 -16 -59 -33 -103 -119 -71 -138 -89 -239 -58 -320
20 -53 78 -108 132 -127 54 -19 185 -15 333 10 68 12 125 20 127 18 2 -2 -19
-30 -46 -61 -106 -121 -297 -399 -396 -576 -57 -101 -59 -108 -57 -171 1 -71
16 -110 55 -147 41 -38 73 -41 203 -19 126 20 407 28 660 17 114 -5 122 -4
159 19 99 62 92 213 -12 259 -31 13 -91 17 -350 21 l-313 6 99 147 c108 160
144 206 274 347 47 51 98 115 113 142 63 116 14 226 -129 290 -64 28 -177 28
-349 0 -70 -12 -145 -21 -167 -21 l-40 0 31 51 c27 43 31 57 27 98 -10 103
-101 168 -193 136z"/>
<path d="M1649 5057 c-100 -36 -221 -104 -309 -174 -87 -69 -210 -206 -240
-269 -39 -79 -20 -153 54 -209 33 -25 45 -28 178 -36 207 -12 293 -34 328 -83
8 -11 29 -54 45 -96 36 -90 72 -120 144 -120 127 0 175 110 117 265 -62 163
-165 260 -326 306 -25 7 -49 16 -53 19 -19 17 173 110 226 110 30 0 83 34 98
62 38 71 28 147 -25 206 -32 34 -38 36 -102 39 -53 3 -84 -2 -135 -20z"/>
<path d="M4100 4795 c-112 -28 -301 -131 -345 -190 -50 -65 -42 -149 20 -203
67 -59 121 -52 255 33 55 36 140 72 194 82 l29 6 -5 -79 c-6 -94 -53 -240
-135 -417 -62 -134 -63 -144 -17 -242 19 -38 41 -68 64 -83 32 -22 42 -24 125
-18 50 3 178 16 287 27 108 12 203 19 212 16 35 -14 4 -174 -89 -451 -49 -147
-52 -183 -20 -233 54 -82 186 -82 240 1 22 34 109 286 140 404 66 259 52 412
-47 509 -92 90 -185 102 -512 67 -66 -7 -69 -6 -61 12 4 10 29 78 54 149 l46
130 0 140 c0 133 -1 143 -28 197 -33 67 -91 121 -155 142 -55 19 -176 20 -252
1z"/>
<path d="M2035 3965 c-88 -38 -264 -90 -405 -120 -143 -30 -181 -50 -211 -113
-36 -73 -8 -151 68 -187 29 -14 51 -16 107 -11 163 15 576 121 635 162 51 36
66 135 31 204 -43 84 -124 108 -225 65z"/>
<path d="M3752 3710 c-69 -25 -151 -70 -340 -187 -84 -52 -160 -106 -168 -119
-68 -103 33 -248 151 -216 22 6 114 56 205 112 111 68 166 96 168 87 9 -45
-200 -497 -256 -553 -52 -52 -55 -145 -6 -203 39 -46 102 -66 168 -53 132 27
390 142 524 234 123 86 178 165 170 248 -9 88 -77 145 -171 144 -54 -1 -88
-21 -127 -77 -24 -34 -89 -91 -97 -83 -2 2 12 50 31 107 42 125 56 205 56 320
0 133 -37 211 -117 245 -45 19 -128 17 -191 -6z"/>
<path d="M2440 3393 c-100 -13 -340 -66 -370 -82 -102 -52 -106 -211 -8 -271
45 -27 75 -25 235 14 163 40 248 52 258 37 10 -17 -20 -118 -59 -202 -21 -44
-36 -92 -36 -113 0 -111 118 -184 222 -138 54 23 78 55 118 155 49 122 64 193
65 302 0 148 -36 219 -140 273 -43 22 -64 26 -150 28 -55 1 -116 0 -135 -3z"/>
<path d="M1161 3120 c-119 -25 -181 -85 -181 -174 1 -96 66 -184 153 -208 l42
-11 0 -376 c1 -547 16 -603 171 -656 128 -43 264 42 264 167 0 43 1 45 38 56
49 15 75 44 101 109 55 139 129 258 210 338 48 47 51 48 53 25 11 -185 -6
-462 -37 -595 -29 -124 -26 -170 11 -215 48 -57 132 -60 200 -8 44 34 51 46
79 137 57 181 72 343 57 596 -16 250 -58 349 -172 408 -49 25 -62 28 -120 24
-36 -3 -83 -13 -105 -22 -103 -43 -259 -188 -331 -306 -19 -33 -38 -59 -40
-59 -3 0 -2 114 2 253 7 242 6 256 -15 318 -28 85 -68 131 -144 169 -69 34
-161 46 -236 30z"/>
<path d="M4856 2900 c-106 -32 -174 -146 -160 -268 l6 -58 -118 -38 c-338
-109 -484 -270 -484 -536 0 -158 48 -288 161 -435 l49 -65 -26 -6 c-14 -4 -46
-24 -71 -45 -24 -22 -53 -39 -63 -39 -10 0 -72 15 -138 34 -151 44 -222 52
-309 36 -206 -38 -478 -229 -615 -430 -18 -27 -42 -52 -52 -56 -10 -3 -48 -33
-83 -66 -67 -62 -114 -88 -159 -88 -46 0 -117 42 -184 110 -77 78 -116 141
-171 276 -57 140 -94 174 -189 174 -121 0 -209 -99 -198 -219 10 -102 159
-363 289 -505 231 -252 574 -286 819 -81 30 26 71 55 91 65 39 20 74 57 164
175 68 88 164 174 236 210 63 32 129 32 282 0 133 -28 266 -33 339 -11 116 36
225 112 263 186 17 32 22 102 11 138 -5 16 3 21 53 35 109 30 171 109 171 214
-1 80 -27 133 -108 212 -71 70 -101 132 -88 184 6 27 65 59 196 105 130 46
160 61 226 108 142 101 202 247 174 429 -15 97 -28 130 -71 180 -61 69 -160
99 -243 75z"/>
<path d="M3280 2395 c-144 -24 -595 -137 -633 -158 -87 -49 -114 -170 -58
-259 33 -52 96 -88 155 -88 20 0 119 20 219 44 167 41 286 65 393 80 l40 6 0
-74 c-1 -68 2 -77 30 -113 87 -110 243 -108 315 5 57 90 77 275 40 372 -26 68
-61 112 -115 144 -93 54 -225 69 -386 41z"/>
</g>
</svg>
