<?xml version="1.0" standalone="no"?>
<!DOCTYPE svg PUBLIC "-//W3C//DTD SVG 20010904//EN"
 "http://www.w3.org/TR/2001/REC-SVG-20010904/DTD/svg10.dtd">
<svg version="1.0" xmlns="http://www.w3.org/2000/svg"
 width="600.000000pt" height="600.000000pt" viewBox="0 0 600.000000 600.000000"
 preserveAspectRatio="xMidYMid meet">
<metadata>
Created by potrace 1.15, written by Peter Selinger 2001-2017
</metadata>
<g transform="translate(0.000000,600.000000) scale(0.100000,-0.100000)"
fill="#16364b" stroke="none">
<path d="M3025 5056 c-65 -29 -120 -107 -136 -191 -10 -53 -2 -89 27 -120 66
-71 219 30 260 173 26 89 -10 152 -86 152 -19 -1 -48 -7 -65 -14z m98 -67 c28
-45 -92 -215 -146 -207 -55 8 -13 163 56 207 36 24 75 24 90 0z"/>
<path d="M4780 4737 c-13 -7 -28 -24 -32 -37 -5 -21 -39 -529 -38 -582 0 -26
40 -58 72 -58 39 0 65 30 72 82 7 49 26 423 26 503 0 79 -45 120 -100 92z"/>
<path d="M1754 4566 c-56 -26 -118 -91 -135 -144 -7 -20 -9 -69 -7 -116 4 -69
10 -92 42 -154 46 -91 80 -236 101 -437 9 -82 27 -238 40 -345 28 -232 34
-340 45 -900 5 -234 14 -459 20 -502 43 -309 197 -560 412 -669 49 -25 139
-51 251 -74 24 -5 26 -9 20 -33 -11 -43 -8 -231 5 -292 7 -30 37 -134 68 -231
32 -97 54 -184 51 -193 -5 -13 -22 -16 -82 -16 -91 0 -138 -17 -159 -59 -23
-44 -20 -77 13 -113 29 -33 30 -33 123 -33 103 0 167 21 221 73 72 68 73 113
6 314 -77 235 -93 306 -93 435 0 62 4 117 10 123 6 6 93 4 259 -6 146 -9 348
-14 492 -12 l244 3 -7 -40 c-20 -114 10 -307 87 -568 16 -54 27 -102 24 -108
-4 -5 -40 -9 -81 -9 -90 0 -137 -18 -158 -59 -49 -94 27 -170 159 -158 122 12
211 70 234 154 15 54 15 56 -29 204 -78 258 -106 458 -79 563 l11 43 91 13
c167 22 515 97 569 123 115 52 206 149 291 307 116 218 124 399 26 599 -48 97
-143 200 -224 243 -62 32 -231 92 -435 153 -85 25 -198 65 -250 87 -52 22
-165 68 -250 103 -377 152 -589 276 -768 452 -178 175 -424 515 -571 790 -86
162 -209 351 -270 417 -89 95 -209 122 -317 72z m165 -150 c39 -20 96 -86 125
-145 14 -27 30 -53 36 -56 17 -10 54 -73 141 -237 88 -165 151 -265 255 -403
231 -308 396 -483 554 -589 260 -174 750 -389 1165 -511 83 -24 197 -61 255
-81 95 -34 111 -44 166 -99 83 -82 116 -163 122 -297 3 -80 0 -110 -18 -170
-44 -147 -134 -271 -237 -325 -84 -45 -440 -119 -723 -150 -176 -19 -578 -20
-815 -3 -77 6 -192 14 -255 19 -145 10 -189 17 -270 42 -84 26 -137 58 -197
117 -174 171 -233 427 -232 1017 1 267 -15 585 -36 735 -17 125 -39 315 -59
535 -19 193 -43 293 -97 403 -47 94 -49 144 -8 188 26 28 84 32 128 10z"/>
<path d="M2516 2619 c-35 -28 -33 -61 5 -93 37 -31 53 -32 79 -6 29 29 26 74
-6 99 -15 12 -32 21 -39 21 -7 0 -24 -9 -39 -21z"/>
<path d="M2976 2379 c-14 -11 -26 -29 -26 -40 0 -28 44 -69 74 -69 51 0 76 85
34 114 -30 21 -50 20 -82 -5z"/>
<path d="M5249 3967 c-137 -39 -221 -137 -236 -277 -6 -60 14 -149 44 -199 31
-50 98 -113 148 -139 72 -37 197 -43 277 -12 113 42 202 167 214 301 11 118
-52 227 -171 298 -52 32 -66 35 -144 38 -49 2 -106 -3 -132 -10z m140 -301
l24 -13 -22 -22 c-28 -28 -45 -27 -60 5 -19 43 8 58 58 30z"/>
<path d="M4193 3752 c-94 -34 -188 -131 -213 -222 -16 -56 -12 -141 9 -185 44
-94 151 -159 261 -159 176 1 303 143 287 319 -11 117 -50 187 -127 229 -68 37
-146 43 -217 18z m77 -267 c0 -30 -37 -55 -46 -30 -6 15 21 55 38 55 4 0 8
-11 8 -25z"/>
<path d="M5342 1095 c-52 -38 -84 -152 -62 -220 12 -38 59 -75 93 -75 40 0 86
32 107 74 29 62 28 165 -3 201 -29 34 -100 45 -135 20z"/>
</g>
</svg>
