<?xml version="1.0" standalone="no"?>
<!DOCTYPE svg PUBLIC "-//W3C//DTD SVG 20010904//EN"
 "http://www.w3.org/TR/2001/REC-SVG-20010904/DTD/svg10.dtd">
<svg version="1.0" xmlns="http://www.w3.org/2000/svg"
 width="600.000000pt" height="600.000000pt" viewBox="0 0 600.000000 600.000000"
 preserveAspectRatio="xMidYMid meet">
<metadata>
Created by potrace 1.15, written by Peter Selinger 2001-2017
</metadata>
<g transform="translate(0.000000,600.000000) scale(0.100000,-0.100000)"
fill="#16364b" stroke="none">
<path d="M1895 4803 c-171 -62 -235 -219 -166 -413 22 -64 54 -248 75 -435 26
-230 38 -618 31 -1030 -5 -329 -9 -410 -27 -520 -29 -172 -30 -552 -2 -610 9
-20 20 -50 23 -68 5 -21 13 -33 26 -35 11 -2 31 -8 43 -15 20 -9 25 -8 34 7 8
15 18 2 58 -81 124 -257 276 -363 570 -396 12 -2 14 -25 12 -137 -4 -161 19
-308 72 -475 20 -60 36 -118 36 -127 0 -16 -11 -18 -86 -18 -104 0 -150 -18
-170 -66 -44 -104 105 -164 278 -112 46 13 103 60 124 100 25 48 20 105 -19
228 -78 248 -105 406 -88 526 6 36 11 68 13 69 2 2 84 0 183 -5 106 -5 267 -5
390 0 116 5 247 10 293 10 l82 0 0 -100 c0 -107 17 -206 77 -463 43 -182 44
-177 -55 -177 -106 0 -162 -39 -162 -112 0 -39 23 -70 67 -92 89 -45 263 14
318 108 40 70 40 96 -5 266 -69 264 -83 342 -78 452 2 54 8 102 13 107 6 5 60
16 120 25 213 31 442 83 511 115 138 65 235 200 291 406 23 84 27 121 27 230
1 141 -9 186 -65 299 -28 58 -29 59 -9 73 10 7 17 20 14 28 -3 8 1 24 10 37
24 33 21 40 -36 83 -111 84 -376 216 -624 310 -60 23 -148 64 -195 92 -46 27
-164 88 -262 136 -203 98 -297 157 -480 300 -344 268 -490 461 -682 907 -36
85 -82 184 -102 220 -19 36 -51 96 -70 134 -90 181 -260 272 -408 219z m143
-157 c46 -24 89 -78 127 -156 20 -41 51 -102 70 -135 19 -33 69 -134 111 -225
164 -354 208 -427 350 -591 100 -115 198 -204 353 -323 212 -161 328 -234 566
-353 82 -42 189 -100 238 -129 48 -30 170 -95 270 -145 211 -106 280 -152 369
-248 149 -161 187 -326 128 -556 -41 -160 -114 -271 -211 -320 -42 -22 -199
-59 -423 -101 -107 -19 -800 -36 -1021 -24 -88 5 -227 11 -310 13 -216 7 -317
41 -417 142 -102 103 -184 289 -231 525 -21 101 -22 132 -22 885 0 429 -4 812
-8 850 -29 253 -41 346 -62 470 -14 77 -34 171 -45 210 -24 83 -25 116 -5 155
33 65 109 89 173 56z m-128 -2896 c0 -5 -8 -10 -17 -10 -15 0 -16 2 -3 10 19
12 20 12 20 0z"/>
<path d="M2564 2695 c-29 -29 -26 -59 10 -87 40 -33 84 -16 100 39 9 27 -32
73 -64 73 -11 0 -32 -11 -46 -25z"/>
<path d="M3026 2521 c-25 -28 -16 -62 23 -88 19 -13 38 -23 43 -23 17 0 58 49
58 70 0 52 -88 81 -124 41z"/>
<path d="M5204 3962 c-94 -33 -143 -89 -171 -196 -15 -55 -16 -75 -6 -133 24
-139 80 -226 178 -274 60 -29 71 -31 132 -26 132 13 257 97 313 211 79 160 16
327 -153 407 -55 25 -73 29 -152 29 -59 -1 -107 -7 -141 -18z m184 -287 c11
-11 -15 -40 -38 -43 -25 -4 -40 12 -40 42 0 16 5 18 36 13 20 -3 39 -9 42 -12z"/>
<path d="M5321 1093 c-25 -21 -61 -119 -61 -165 0 -44 29 -100 60 -116 34 -18
97 -8 126 19 56 52 69 206 23 256 -29 29 -115 33 -148 6z"/>
</g>
</svg>
