<?xml version="1.0" standalone="no"?>
<!DOCTYPE svg PUBLIC "-//W3C//DTD SVG 20010904//EN"
 "http://www.w3.org/TR/2001/REC-SVG-20010904/DTD/svg10.dtd">
<svg version="1.0" xmlns="http://www.w3.org/2000/svg"
 width="600.000000pt" height="600.000000pt" viewBox="0 0 600.000000 600.000000"
 preserveAspectRatio="xMidYMid meet">
<metadata>
Created by potrace 1.15, written by Peter Selinger 2001-2017
</metadata>
<g transform="translate(0.000000,600.000000) scale(0.100000,-0.100000)"
fill="#16364b" stroke="none">
<path d="M2219 5437 c-62 -41 -111 -210 -90 -309 22 -102 71 -161 160 -193 52
-18 117 -19 268 -4 62 7 116 9 120 6 3 -4 -17 -39 -45 -79 -126 -178 -171
-252 -239 -386 -61 -120 -73 -152 -73 -193 0 -40 5 -54 31 -84 18 -20 45 -43
60 -51 l29 -14 -20 -33 c-54 -87 9 -213 117 -233 35 -7 121 14 343 81 80 24
217 63 305 86 175 45 202 56 240 96 67 73 30 184 -70 212 -41 11 -168 -12
-470 -84 -228 -55 -278 -66 -282 -61 -6 5 40 123 77 195 17 36 89 148 158 250
69 102 136 209 149 238 62 136 5 291 -133 359 -47 23 -65 26 -146 25 -51 0
-136 -9 -188 -20 -52 -10 -96 -18 -98 -16 -1 1 2 14 8 29 50 133 -97 260 -211
183z"/>
<path d="M3832 5094 c-77 -20 -197 -72 -215 -92 -28 -31 -49 -93 -43 -126 9
-49 59 -102 106 -114 45 -11 65 -7 166 33 40 16 79 25 102 23 36 -3 37 -4 40
-46 4 -52 -26 -172 -74 -295 -57 -146 -62 -175 -35 -230 41 -84 146 -110 224
-55 31 22 67 92 118 230 53 146 72 235 73 348 1 100 -1 109 -32 172 -58 117
-148 169 -295 167 -45 0 -106 -7 -135 -15z"/>
<path d="M1719 4924 c-163 -29 -380 -119 -500 -208 -98 -72 -106 -178 -20
-260 17 -17 31 -38 31 -49 0 -30 70 -94 115 -105 22 -5 101 -21 175 -35 185
-35 284 -68 356 -119 94 -66 178 -64 242 5 31 33 44 92 31 139 -22 86 -205
196 -407 247 -62 15 -115 30 -117 33 -10 10 155 58 200 58 74 0 131 19 169 56
79 76 65 194 -28 238 -42 20 -140 20 -247 0z"/>
<path d="M4463 4249 c-134 -13 -243 -37 -279 -61 -106 -72 -72 -235 53 -262
17 -4 69 -2 115 4 111 15 266 16 311 1 26 -9 39 -20 43 -38 15 -58 -17 -229
-76 -403 -33 -99 -3 -172 84 -205 56 -21 104 -14 146 22 40 33 53 59 89 181
68 231 72 399 12 528 -84 180 -249 257 -498 233z"/>
<path d="M2148 3924 c-9 -8 -198 -61 -285 -79 -43 -9 -129 -20 -190 -25 -78
-5 -121 -13 -138 -24 -87 -57 -86 -202 3 -262 44 -30 102 -36 232 -24 183 17
427 79 523 133 102 57 105 206 5 267 -31 19 -136 29 -150 14z"/>
<path d="M3675 3741 c-69 -25 -138 -60 -300 -156 -77 -45 -164 -95 -194 -111
-72 -39 -96 -72 -95 -134 1 -80 72 -150 153 -150 32 0 145 54 300 144 63 36
119 66 123 66 8 0 -6 -38 -68 -188 -51 -124 -42 -195 32 -246 94 -64 188 -13
229 124 4 14 32 83 61 153 77 183 97 256 92 328 -11 152 -166 231 -333 170z"/>
<path d="M2228 3280 c-172 -22 -180 -24 -218 -56 -88 -75 -78 -198 20 -253 43
-24 44 -24 184 -13 157 14 256 15 256 5 0 -4 -10 -37 -21 -73 -25 -75 -21
-122 12 -164 62 -78 192 -77 247 1 41 60 78 233 67 313 -16 109 -81 196 -175
231 -75 29 -201 32 -372 9z"/>
<path d="M4237 3195 c-16 -8 -61 -49 -100 -91 -141 -151 -349 -258 -551 -284
-100 -12 -154 -59 -163 -141 -6 -58 28 -125 77 -152 29 -15 48 -17 108 -13
180 14 492 128 632 231 74 54 207 199 220 241 25 74 -10 160 -84 205 -37 23
-100 25 -139 4z"/>
<path d="M4906 3160 c-57 -23 -108 -68 -132 -118 -13 -29 -16 -53 -11 -123 4
-49 4 -95 1 -103 -3 -9 -56 -56 -118 -104 -235 -188 -330 -332 -363 -552 -31
-203 34 -422 146 -495 120 -79 285 -32 354 100 31 60 28 148 -6 209 -33 60
-35 114 -6 191 18 49 35 68 137 158 151 133 199 184 245 260 59 96 72 152 72
302 0 138 -8 168 -59 223 -57 64 -174 87 -260 52z"/>
<path d="M1245 3043 c-84 -44 -141 -140 -133 -225 6 -56 45 -121 87 -143 33
-16 28 19 52 -360 14 -238 38 -387 81 -525 26 -82 50 -115 98 -140 113 -57
240 10 270 143 11 50 9 68 -20 157 -10 30 -21 78 -25 105 l-7 50 24 -35 c33
-49 82 -72 136 -66 62 8 94 31 147 102 44 60 148 164 165 164 4 0 11 -11 14
-24 3 -13 19 -38 35 -55 l29 -31 -29 -91 c-52 -160 -64 -262 -50 -427 12 -154
22 -184 71 -226 42 -35 121 -37 170 -3 63 42 70 70 69 266 -1 163 1 183 25
266 15 50 32 107 38 128 13 47 -2 108 -37 143 -19 19 -22 31 -18 61 13 100
-95 251 -206 286 -70 22 -124 21 -204 -3 -83 -26 -169 -83 -245 -164 -64 -68
-132 -172 -133 -202 0 -15 -2 -14 -10 5 -5 13 -14 114 -19 225 -20 380 -31
443 -100 533 -67 89 -195 129 -275 86z"/>
<path d="M3415 2229 c-33 -5 -112 -19 -175 -30 -63 -11 -202 -35 -308 -54
-207 -36 -238 -48 -280 -109 -68 -99 -12 -241 109 -277 31 -10 57 -10 107 -2
114 19 749 93 794 93 4 0 15 -14 23 -31 35 -66 155 -114 230 -89 111 37 154
152 105 284 -39 103 -130 179 -255 212 -56 15 -256 17 -350 3z"/>
<path d="M4465 1550 c-23 -11 -59 -39 -80 -61 -61 -64 -84 -70 -315 -79 -233
-9 -298 -23 -440 -93 -120 -58 -343 -210 -420 -284 -38 -37 -73 -63 -86 -63
-22 0 -50 -18 -134 -87 -61 -51 -140 -78 -197 -67 -126 23 -303 158 -411 314
-46 66 -100 100 -162 100 -123 -1 -223 -114 -207 -234 8 -55 79 -154 189 -264
119 -118 191 -172 303 -227 103 -51 180 -73 281 -82 182 -15 402 73 546 219
32 32 65 58 73 58 38 0 87 35 185 132 166 165 271 205 509 196 301 -12 471 51
604 225 42 55 54 113 37 175 -12 47 -59 106 -101 128 -41 21 -126 18 -174 -6z"/>
</g>
</svg>
