<?xml version="1.0" standalone="no"?>
<!DOCTYPE svg PUBLIC "-//W3C//DTD SVG 20010904//EN"
 "http://www.w3.org/TR/2001/REC-SVG-20010904/DTD/svg10.dtd">
<svg version="1.0" xmlns="http://www.w3.org/2000/svg"
 width="600.000000pt" height="600.000000pt" viewBox="0 0 600.000000 600.000000"
 preserveAspectRatio="xMidYMid meet">
<metadata>
Created by potrace 1.15, written by Peter Selinger 2001-2017
</metadata>
<g transform="translate(0.000000,600.000000) scale(0.100000,-0.100000)"
fill="#16364b" stroke="none">
<path d="M3150 5649 c-63 -26 -86 -68 -100 -187 -31 -253 76 -409 338 -493 39
-12 72 -26 72 -30 0 -7 -111 -85 -350 -244 -187 -125 -260 -189 -260 -226 0
-16 -12 -36 -34 -56 -72 -63 -70 -163 4 -234 63 -61 128 -67 504 -52 190 7
215 16 250 86 23 47 16 94 -21 138 -36 43 -62 50 -188 58 l-110 6 210 144
c254 175 354 268 379 351 21 69 20 105 -3 155 -37 82 -121 134 -308 190 -197
60 -213 77 -193 205 11 72 11 82 -6 116 -11 21 -31 46 -45 57 -31 23 -104 31
-139 16z"/>
<path d="M1341 5395 c-129 -57 -310 -245 -394 -412 -86 -169 -127 -524 -70
-601 67 -90 207 -87 270 7 20 29 22 45 22 149 0 73 5 134 14 162 l14 45 17
-40 c24 -55 63 -93 108 -106 32 -8 55 -5 134 16 53 14 99 25 104 25 4 0 -8
-48 -27 -107 -61 -184 -57 -302 14 -404 l33 -49 -32 -19 c-113 -67 -172 -110
-190 -139 -21 -35 -26 -100 -10 -142 24 -63 127 -122 183 -105 13 4 96 50 184
103 87 53 200 114 250 135 129 56 155 85 155 176 0 56 -28 99 -83 128 -30 15
-107 14 -148 -2 -12 -5 -20 2 -28 27 -6 18 -25 46 -41 63 l-30 31 41 114 c62
175 72 218 66 285 -7 93 -56 172 -132 213 -52 29 -227 23 -354 -11 -57 -16
-118 -35 -134 -43 l-29 -16 23 43 c31 56 141 166 204 204 93 56 118 155 57
227 -47 55 -122 72 -191 43z"/>
<path d="M4548 4496 c-84 -9 -136 -19 -153 -30 -95 -62 -84 -210 19 -260 35
-17 48 -18 144 -8 59 6 109 8 112 6 3 -3 -59 -68 -138 -145 -79 -77 -147 -151
-152 -165 -12 -32 -13 -85 -1 -116 14 -36 60 -77 100 -88 73 -19 96 -4 276
184 241 252 285 313 300 418 13 87 -24 154 -105 191 -57 26 -221 31 -402 13z"/>
<path d="M3910 3699 c-111 -34 -163 -156 -110 -260 43 -83 182 -204 293 -255
141 -64 256 -9 265 125 4 68 -20 113 -73 138 -32 15 -35 19 -29 50 8 45 -18
114 -54 140 -66 49 -224 82 -292 62z"/>
<path d="M2550 3665 c-85 -19 -282 -92 -322 -119 -50 -34 -70 -68 -70 -120 0
-62 27 -106 82 -133 58 -30 93 -29 165 5 65 31 161 66 211 76 41 9 48 -8 33
-87 -25 -138 -138 -364 -314 -631 -33 -49 -39 -66 -39 -110 0 -36 7 -64 22
-90 12 -20 22 -54 22 -74 1 -69 48 -145 113 -179 64 -34 118 -24 295 55 89 40
176 75 193 79 29 5 30 5 23 -23 -20 -84 -73 -222 -125 -326 -49 -98 -59 -126
-59 -169 0 -133 126 -215 245 -160 22 10 50 29 62 42 48 53 179 343 238 529
36 115 45 252 20 317 -24 63 -94 135 -158 164 -76 35 -215 33 -351 -4 -54 -15
-101 -25 -103 -23 -2 2 9 26 26 53 46 74 157 310 181 383 62 192 37 361 -69
467 -82 81 -189 107 -321 78z"/>
<path d="M1111 3474 c-72 -19 -179 -77 -274 -147 -65 -48 -83 -68 -104 -113
-33 -73 -26 -129 22 -183 56 -61 128 -75 217 -41 28 11 53 19 54 17 0 -1 -13
-63 -31 -137 -126 -531 -155 -672 -162 -776 -5 -92 -4 -106 16 -147 27 -56 68
-83 160 -108 109 -28 148 -15 243 82 87 89 196 232 353 464 60 88 129 186 153
218 50 65 62 63 62 -11 0 -51 -48 -354 -89 -562 -85 -425 -82 -581 12 -668
107 -100 290 28 246 172 -7 23 -12 71 -11 108 2 63 16 136 110 593 38 181 66
400 57 441 -3 10 -9 76 -14 146 -10 134 -30 198 -74 247 -34 37 -96 61 -157
61 -116 0 -198 -68 -352 -290 -46 -66 -114 -165 -152 -220 -38 -55 -71 -99
-72 -97 -2 2 19 84 47 182 98 354 117 527 70 633 -28 62 -85 115 -149 136 -56
19 -110 19 -181 0z"/>
<path d="M4539 3297 c-39 -26 -69 -79 -69 -122 0 -64 38 -106 148 -165 125
-68 192 -115 192 -135 0 -27 -41 -97 -103 -178 -57 -73 -61 -83 -61 -132 -1
-60 18 -95 74 -132 41 -28 103 -30 146 -4 48 29 153 162 192 241 25 51 42 113
48 174 17 168 -81 290 -346 426 -115 58 -165 65 -221 27z"/>
<path d="M3638 3215 c-55 -20 -122 -69 -162 -118 -47 -58 -98 -169 -104 -227
-15 -156 169 -231 271 -111 14 17 28 43 31 58 6 28 8 28 84 29 161 1 262 70
262 177 0 79 -67 160 -158 191 -56 19 -173 20 -224 1z"/>
<path d="M4577 2246 c-99 -27 -167 -115 -172 -223 -3 -67 14 -64 -159 -31
-147 27 -332 22 -419 -11 -114 -44 -201 -137 -238 -251 -18 -55 -23 -105 -30
-320 -5 -140 -11 -259 -13 -265 -2 -5 -17 -18 -33 -27 -35 -20 -17 -31 -222
137 -229 188 -279 215 -399 215 -147 0 -228 -76 -317 -295 -9 -22 -13 0 -40
252 -28 262 -59 339 -150 383 -37 18 -58 21 -106 18 -66 -5 -100 -24 -136 -78
-34 -49 -38 -92 -19 -209 9 -58 23 -171 31 -251 22 -220 45 -320 108 -460 65
-146 240 -285 404 -321 45 -10 59 -10 98 5 90 35 143 134 129 243 -5 41 0 78
21 163 25 102 29 110 45 98 10 -7 49 -35 87 -62 37 -27 93 -71 123 -96 78 -67
171 -125 224 -140 66 -18 180 -9 236 20 102 51 154 111 168 191 7 38 10 41 60
58 57 20 114 67 139 116 21 40 43 206 43 333 l0 104 48 -6 c26 -3 89 -11 140
-17 54 -7 144 -10 215 -6 250 11 374 86 424 256 12 42 14 84 11 176 -4 102 -9
130 -30 177 -30 64 -88 111 -159 127 -53 13 -53 13 -112 -3z"/>
</g>
</svg>
