<?xml version="1.0" standalone="no"?>
<!DOCTYPE svg PUBLIC "-//W3C//DTD SVG 20010904//EN"
 "http://www.w3.org/TR/2001/REC-SVG-20010904/DTD/svg10.dtd">
<svg version="1.0" xmlns="http://www.w3.org/2000/svg"
 width="600.000000pt" height="600.000000pt" viewBox="0 0 600.000000 600.000000"
 preserveAspectRatio="xMidYMid meet">
<metadata>
Created by potrace 1.15, written by Peter Selinger 2001-2017
</metadata>
<g transform="translate(0.000000,600.000000) scale(0.100000,-0.100000)"
fill="#16364b" stroke="none">
<path d="M2916 5590 c-16 -5 -41 -21 -56 -35 -34 -33 -94 -159 -116 -245 -32
-126 4 -265 86 -330 68 -54 103 -63 253 -69 l137 -6 -83 -70 c-150 -126 -257
-228 -373 -355 -125 -136 -144 -173 -124 -234 12 -36 61 -94 100 -119 14 -9
178 -54 365 -101 187 -47 367 -93 400 -102 76 -21 107 -14 156 35 59 58 70
129 32 203 -24 49 -48 56 -432 128 -118 22 -217 43 -220 46 -10 10 179 184
334 308 83 66 169 138 193 160 108 102 116 213 22 307 -76 76 -129 91 -355 99
-104 4 -191 8 -192 9 -10 5 2 43 37 121 34 74 40 96 34 126 -7 36 -51 97 -83
113 -28 14 -85 20 -115 11z"/>
<path d="M1525 5276 c-110 -51 -308 -222 -406 -351 -67 -87 -121 -179 -159
-270 -64 -156 -47 -263 52 -315 52 -27 36 -29 263 25 61 14 156 29 213 32
l103 6 -20 -49 c-11 -27 -37 -87 -59 -134 -71 -154 -94 -229 -89 -290 4 -53 3
-56 -26 -75 -134 -87 -82 -285 74 -285 101 0 611 212 653 272 60 85 28 195
-68 239 -60 27 -81 24 -188 -28 -54 -25 -100 -44 -103 -41 -3 3 21 68 53 144
71 166 82 202 82 274 0 90 -16 129 -75 187 -77 75 -154 98 -332 98 -153 0
-151 -4 -50 99 83 84 151 136 228 174 77 38 99 70 99 140 0 63 -42 125 -103
153 -55 24 -82 24 -142 -5z"/>
<path d="M4443 4576 c-150 -29 -367 -119 -403 -168 -49 -66 -33 -173 32 -219
54 -39 92 -36 254 20 81 29 154 50 161 49 16 -3 -19 -75 -182 -368 -147 -267
-149 -298 -25 -408 79 -71 88 -74 296 -92 154 -13 274 -29 292 -39 16 -9 -66
-175 -191 -387 -86 -146 -95 -185 -56 -253 33 -58 65 -76 136 -76 55 0 65 3
93 30 17 16 56 79 87 140 30 60 75 146 98 190 69 128 123 259 136 330 11 57
10 73 -5 121 -38 119 -124 172 -332 203 -71 11 -161 22 -200 26 -39 4 -75 10
-81 13 -7 5 18 60 68 152 193 352 222 432 199 544 -31 153 -181 229 -377 192z"/>
<path d="M3702 3644 c-108 -54 -162 -184 -116 -280 18 -37 77 -78 130 -89 42
-8 108 19 138 58 l25 31 7 -28 c10 -40 -1 -88 -37 -166 -27 -59 -36 -70 -63
-76 -110 -23 -291 -125 -347 -196 -43 -53 -51 -135 -20 -186 40 -62 128 -95
197 -72 20 7 63 36 94 65 63 58 122 84 263 117 67 15 97 28 124 51 60 53 79
127 48 187 -14 27 -13 33 7 82 18 43 22 73 22 163 1 98 -2 116 -25 165 -37 80
-81 125 -161 165 -64 31 -79 35 -152 35 -68 0 -91 -4 -134 -26z"/>
<path d="M2470 3551 c-95 -23 -135 -38 -240 -91 -115 -57 -145 -82 -165 -134
-31 -82 3 -157 86 -190 53 -21 74 -17 202 44 114 54 211 83 266 78 l36 -3 -1
-55 c-2 -74 -31 -155 -120 -338 -54 -112 -74 -163 -74 -193 0 -41 33 -119 50
-119 18 0 10 -22 -20 -56 -103 -118 -28 -294 132 -311 42 -4 81 2 183 30 151
41 293 72 300 66 7 -8 -24 -128 -52 -198 -44 -109 -33 -190 34 -252 87 -81
215 -79 277 5 28 38 96 195 127 296 18 59 23 98 23 185 1 104 -1 113 -31 170
-36 70 -115 148 -178 176 -100 44 -230 40 -418 -14 -64 -19 -117 -30 -117 -25
0 5 18 41 40 81 51 94 91 192 120 297 19 68 24 111 24 210 1 111 -2 131 -23
177 -28 62 -94 127 -159 155 -66 30 -203 34 -302 9z"/>
<path d="M1116 3265 c-67 -27 -183 -102 -238 -154 -101 -93 -80 -254 39 -312
37 -18 56 -21 109 -16 35 2 64 1 64 -4 0 -15 -50 -363 -65 -449 -40 -236 -38
-412 7 -492 23 -41 66 -73 116 -88 46 -13 166 4 196 28 25 19 101 130 331 482
100 154 209 300 224 300 11 0 31 -78 31 -120 0 -80 -31 -339 -67 -555 -45
-267 -51 -423 -18 -467 59 -80 195 -75 251 9 23 35 34 33 34 -5 0 -14 14 -73
31 -131 17 -58 55 -199 84 -313 37 -143 65 -229 89 -276 94 -177 239 -263 407
-240 88 12 158 47 238 119 61 54 74 73 112 158 132 296 250 455 324 437 13 -3
70 -40 126 -82 174 -129 247 -164 349 -164 107 0 263 103 304 200 8 19 26 46
41 60 31 29 60 81 69 126 4 20 -3 83 -19 167 -15 74 -25 152 -23 174 3 36 5
39 48 50 25 6 121 12 215 12 198 1 280 12 352 47 129 62 202 214 190 395 -10
137 -51 204 -152 250 -78 36 -206 17 -268 -39 -31 -27 -58 -91 -64 -146 l-5
-52 -162 4 c-186 5 -242 -6 -371 -68 -101 -49 -148 -88 -197 -164 -76 -118
-96 -253 -62 -431 8 -44 17 -95 21 -113 l6 -33 -95 64 c-137 92 -197 112 -329
112 -104 0 -108 -1 -185 -40 -59 -30 -100 -61 -165 -125 -116 -116 -166 -196
-283 -452 -19 -43 -40 -78 -46 -78 -23 0 -64 122 -126 380 -35 146 -69 277
-75 292 -17 41 -82 95 -129 108 -88 24 -189 -20 -231 -100 l-19 -35 0 52 c0
28 7 86 15 128 30 161 104 654 110 740 7 97 -4 192 -35 320 -37 146 -101 205
-226 205 -59 0 -81 -5 -130 -30 -120 -59 -249 -188 -372 -369 -33 -48 -58 -77
-60 -68 -2 9 9 98 24 199 33 220 37 370 11 443 -51 149 -200 212 -351 150z"/>
</g>
</svg>
