<?xml version="1.0" standalone="no"?>
<!DOCTYPE svg PUBLIC "-//W3C//DTD SVG 20010904//EN"
 "http://www.w3.org/TR/2001/REC-SVG-20010904/DTD/svg10.dtd">
<svg version="1.0" xmlns="http://www.w3.org/2000/svg"
 width="600.000000pt" height="600.000000pt" viewBox="0 0 600.000000 600.000000"
 preserveAspectRatio="xMidYMid meet">
<metadata>
Created by potrace 1.15, written by Peter Selinger 2001-2017
</metadata>
<g transform="translate(0.000000,600.000000) scale(0.100000,-0.100000)"
fill="#16364b" stroke="none">
<path d="M2615 5520 c-36 -15 -65 -55 -100 -144 -68 -167 -80 -257 -46 -332
23 -52 54 -81 111 -107 38 -18 64 -21 160 -21 63 0 156 3 205 7 l90 7 -45 -41
c-120 -111 -227 -219 -267 -271 -79 -103 -245 -381 -250 -420 -11 -79 57 -181
129 -192 18 -3 173 -7 343 -9 236 -3 336 -8 417 -22 116 -19 140 -17 182 16
82 65 77 213 -9 253 -44 21 -263 45 -467 53 -98 3 -178 8 -178 10 0 8 63 97
104 148 22 28 113 124 201 215 89 91 174 186 189 212 59 102 40 217 -47 277
-94 64 -203 80 -422 61 -80 -7 -148 -10 -151 -7 -3 2 7 33 21 68 44 107 30
188 -38 229 -33 21 -96 25 -132 10z"/>
<path d="M1609 5157 c-123 -51 -323 -212 -434 -349 -75 -94 -141 -199 -155
-249 -20 -68 26 -155 98 -185 27 -12 61 -13 210 -3 114 8 193 9 222 3 l45 -10
-4 -146 c-3 -138 -2 -149 19 -183 28 -46 73 -69 134 -68 53 1 88 21 122 70 17
25 23 57 32 179 13 170 6 222 -37 298 -53 96 -183 166 -307 166 -30 0 -54 4
-54 9 0 26 191 165 249 181 93 25 135 130 91 227 -37 82 -122 104 -231 60z"/>
<path d="M4280 4714 c-138 -27 -379 -131 -423 -183 -67 -80 -6 -219 105 -237
31 -5 53 1 130 39 95 46 193 82 238 89 21 3 25 0 22 -21 -7 -48 -96 -271 -174
-433 -85 -177 -88 -191 -52 -258 20 -38 118 -128 149 -136 15 -4 72 -2 126 5
116 13 418 15 437 2 23 -14 -4 -91 -153 -441 -65 -152 -74 -209 -39 -258 50
-67 144 -77 208 -21 38 33 206 388 251 529 32 101 43 233 25 300 -16 60 -88
131 -161 158 -79 29 -220 45 -358 40 -67 -2 -121 -3 -121 -2 0 1 16 37 36 80
52 115 111 293 130 392 32 171 -8 277 -126 338 -35 18 -191 29 -250 18z"/>
<path d="M1960 4007 c-95 -43 -248 -98 -370 -133 -52 -14 -108 -33 -123 -41
-67 -34 -88 -137 -42 -206 50 -73 118 -84 276 -43 261 68 465 153 499 208 28
47 27 124 -2 168 -58 85 -125 98 -238 47z"/>
<path d="M3755 3670 c-96 -20 -209 -80 -308 -163 -56 -47 -77 -82 -77 -132 0
-88 58 -145 147 -145 47 0 57 4 114 50 63 51 166 106 177 96 11 -11 -28 -124
-91 -265 l-65 -144 -61 -34 c-96 -54 -141 -113 -141 -183 1 -34 41 -101 72
-120 57 -35 105 -27 221 35 56 30 163 79 238 109 178 71 210 88 247 131 38 42
46 71 39 132 -8 78 -76 143 -150 143 -44 0 -43 -7 -13 105 22 80 21 189 -3
240 -52 116 -199 177 -346 145z"/>
<path d="M2345 3456 c-122 -32 -243 -81 -273 -108 -73 -68 -67 -192 12 -246
51 -35 85 -37 182 -8 131 38 227 56 300 56 60 0 64 -1 64 -22 0 -53 -48 -172
-112 -281 -52 -89 -31 -185 52 -228 61 -33 140 -19 187 32 31 34 115 216 148
319 68 218 4 385 -182 473 -62 29 -78 32 -178 34 -90 3 -126 -1 -200 -21z"/>
<path d="M1161 3205 c-187 -53 -285 -168 -250 -293 25 -88 124 -162 218 -162
17 0 31 -3 31 -7 0 -5 -11 -84 -25 -177 -13 -94 -30 -225 -36 -293 -13 -136
-7 -378 10 -434 22 -72 107 -128 194 -129 57 0 131 32 155 68 9 14 33 42 54
61 20 20 57 77 83 126 119 225 323 515 363 515 17 0 27 -105 26 -280 -1 -176
-15 -285 -59 -453 -29 -114 -31 -147 -8 -194 41 -86 167 -114 238 -52 40 35
69 114 104 286 56 272 52 637 -9 834 -54 178 -211 256 -367 184 -69 -31 -199
-159 -303 -298 -40 -54 -74 -96 -76 -95 -1 2 6 64 17 138 48 342 34 475 -62
584 -63 72 -188 102 -298 71z"/>
<path d="M4794 2704 c-56 -20 -123 -79 -145 -128 -11 -24 -19 -64 -19 -97 l0
-57 -87 -11 c-335 -45 -515 -211 -539 -498 -11 -131 26 -293 97 -421 l33 -59
-29 -26 c-17 -15 -38 -27 -48 -27 -9 0 -58 21 -108 46 -211 106 -409 113 -599
22 -144 -69 -286 -232 -398 -455 -25 -50 -49 -84 -62 -88 -11 -3 -38 -22 -61
-41 -78 -65 -109 -55 -198 64 -61 81 -105 182 -138 317 -32 133 -39 149 -83
189 -87 78 -250 58 -302 -37 -42 -80 -5 -282 94 -512 119 -275 399 -475 609
-437 88 17 166 51 233 102 34 26 80 57 102 68 51 26 60 37 128 162 73 132 131
213 190 268 97 89 150 91 334 13 150 -64 237 -85 318 -78 147 14 304 142 304
248 0 35 3 40 43 57 144 64 170 247 53 384 -56 65 -86 189 -53 216 17 14 133
48 252 73 241 50 364 160 396 356 14 84 0 213 -30 271 -55 109 -173 156 -287
116z"/>
<path d="M3235 2520 c-116 -13 -574 -125 -643 -157 -56 -26 -102 -100 -102
-163 0 -37 24 -94 53 -127 63 -71 129 -79 292 -33 110 31 312 74 403 86 62 8
64 4 25 -76 -55 -115 -27 -222 71 -270 53 -25 136 -29 187 -7 76 32 114 94
150 242 22 92 24 142 8 217 -46 220 -194 315 -444 288z"/>
</g>
</svg>
