<?xml version="1.0" standalone="no"?>
<!DOCTYPE svg PUBLIC "-//W3C//DTD SVG 20010904//EN"
 "http://www.w3.org/TR/2001/REC-SVG-20010904/DTD/svg10.dtd">
<svg version="1.0" xmlns="http://www.w3.org/2000/svg"
 width="600.000000pt" height="600.000000pt" viewBox="0 0 600.000000 600.000000"
 preserveAspectRatio="xMidYMid meet">
<metadata>
Created by potrace 1.15, written by Peter Selinger 2001-2017
</metadata>
<g transform="translate(0.000000,600.000000) scale(0.100000,-0.100000)"
fill="#16364b" stroke="none">
<path d="M2396 5440 c-35 -31 -100 -153 -130 -243 -37 -110 -10 -222 66 -277
85 -62 195 -62 430 0 62 16 113 28 115 26 2 -2 -29 -43 -70 -92 -162 -196
-272 -363 -359 -544 -69 -145 -73 -158 -60 -225 15 -73 42 -109 95 -130 42
-16 48 -15 168 10 161 34 300 41 531 26 187 -13 187 -13 228 10 41 23 80 85
80 127 0 33 -19 74 -47 104 -42 44 -102 50 -414 47 -154 -2 -279 -2 -279 0 0
11 159 241 229 331 219 281 248 326 258 409 11 96 -47 186 -139 217 -73 24
-207 13 -378 -30 -74 -19 -136 -31 -138 -27 -1 4 9 32 23 62 40 88 30 148 -35
203 -26 21 -42 26 -85 26 -46 0 -60 -5 -89 -30z"/>
<path d="M1702 5044 c-212 -46 -439 -190 -563 -357 -68 -91 -81 -142 -55 -211
29 -77 50 -88 178 -97 156 -11 192 -17 277 -45 100 -34 124 -53 168 -136 44
-84 74 -108 137 -115 92 -11 165 48 174 138 4 40 -1 58 -37 125 -67 129 -167
217 -318 279 -37 16 -72 32 -77 37 -14 12 110 64 192 81 103 22 140 50 161
125 20 69 -31 155 -108 181 -41 13 -48 13 -129 -5z"/>
<path d="M4065 4806 c-116 -28 -206 -69 -308 -143 -62 -46 -80 -82 -75 -148 5
-62 33 -106 84 -130 55 -26 111 -16 188 35 77 49 198 99 244 100 l32 0 0 -57
c0 -107 -42 -230 -142 -425 -53 -104 -60 -124 -56 -161 7 -54 55 -136 98 -164
42 -29 76 -29 197 1 196 50 424 75 461 52 7 -4 12 -23 12 -41 0 -42 -66 -303
-115 -454 -41 -125 -42 -141 -15 -196 47 -97 198 -116 253 -32 17 27 74 204
138 435 53 194 63 321 29 399 -26 62 -92 126 -157 154 -99 42 -271 47 -437 13
-38 -8 -71 -12 -74 -10 -2 3 7 35 21 73 60 161 80 256 80 373 -1 150 -64 262
-176 310 -66 29 -196 36 -282 16z"/>
<path d="M1990 3939 c-116 -40 -302 -82 -418 -95 -81 -9 -121 -35 -146 -97
-18 -42 -19 -53 -7 -95 21 -78 76 -122 154 -122 98 0 330 52 542 121 136 44
177 74 196 141 13 49 6 82 -28 127 -55 72 -127 77 -293 20z"/>
<path d="M3735 3686 c-142 -33 -459 -197 -509 -264 -12 -15 -21 -47 -23 -76
-6 -82 43 -142 124 -153 31 -4 51 2 103 31 106 59 307 156 323 156 13 0 12
-10 -8 -69 -21 -62 -114 -259 -135 -286 -4 -5 -27 -46 -50 -90 -24 -44 -50
-89 -60 -100 -44 -54 -51 -116 -19 -181 54 -113 148 -110 434 12 252 107 389
204 446 315 56 112 -21 249 -141 249 -48 0 -86 -25 -130 -86 -38 -51 -118
-120 -127 -110 -3 2 1 14 7 27 20 37 70 190 85 262 19 89 19 188 -1 235 -46
112 -171 162 -319 128z"/>
<path d="M2295 3374 c-44 -8 -115 -24 -158 -35 -66 -18 -82 -27 -112 -61 -87
-103 -27 -258 101 -258 23 0 83 9 135 20 52 11 134 23 183 27 l89 6 -6 -47
c-4 -26 -23 -85 -43 -132 -31 -71 -36 -92 -32 -136 5 -43 11 -57 41 -84 59
-55 150 -55 212 -1 29 25 96 174 125 280 60 217 -15 372 -205 422 -73 19 -222
18 -330 -1z"/>
<path d="M1141 3090 c-55 -20 -73 -31 -105 -65 -45 -48 -60 -143 -32 -208 17
-43 76 -93 125 -108 l39 -11 -2 -362 c-1 -313 1 -373 17 -450 23 -113 37 -147
77 -183 80 -71 195 -69 273 5 42 40 60 80 60 138 0 52 0 52 36 58 51 8 94 49
142 136 96 171 238 364 256 347 12 -13 8 -344 -6 -412 -7 -33 -26 -104 -42
-159 -35 -119 -36 -162 -6 -206 38 -56 72 -75 135 -75 64 0 112 26 137 74 24
47 75 258 86 360 14 116 5 377 -16 476 -39 183 -135 279 -280 280 -57 0 -81
-5 -129 -29 -77 -38 -201 -163 -281 -285 -33 -50 -62 -91 -65 -91 -3 0 -5 127
-5 283 0 271 -1 284 -23 339 -28 68 -91 129 -159 152 -63 22 -166 20 -232 -4z"/>
<path d="M4895 2921 c-73 -19 -142 -77 -169 -143 -10 -22 -16 -67 -16 -112 0
-41 -4 -77 -9 -81 -6 -3 -56 -19 -112 -36 -314 -93 -428 -231 -445 -539 -10
-175 39 -334 136 -443 23 -26 41 -49 39 -51 -2 -1 -18 -8 -35 -15 -17 -7 -48
-30 -70 -52 -43 -44 -72 -49 -164 -25 -92 24 -220 46 -267 46 -116 0 -266 -52
-388 -133 -78 -53 -215 -185 -273 -264 -25 -35 -50 -63 -55 -63 -4 0 -43 -33
-86 -74 -85 -81 -126 -100 -186 -86 -111 25 -269 177 -356 341 -58 111 -87
140 -162 160 -54 14 -108 3 -157 -32 -76 -56 -93 -147 -46 -254 35 -78 138
-231 221 -328 141 -165 279 -243 470 -266 181 -22 345 31 460 148 21 23 44 41
50 41 20 1 62 46 113 121 69 100 154 188 231 238 112 72 165 76 351 30 167
-41 273 -39 370 7 77 37 160 109 196 170 28 48 36 133 16 171 -13 24 -7 33 22
33 29 1 106 37 134 63 93 87 79 252 -29 339 -78 62 -103 157 -54 202 14 13 60
37 102 54 129 51 194 81 237 112 148 103 216 233 216 411 0 113 -14 178 -50
227 -47 65 -157 104 -235 83z"/>
<path d="M3360 2394 c-139 -14 -244 -32 -440 -80 -124 -30 -243 -64 -265 -74
-107 -51 -133 -197 -53 -295 68 -82 120 -85 353 -21 188 51 363 86 436 86 l48
0 -6 -53 c-11 -105 63 -187 177 -195 72 -5 124 20 164 81 38 60 50 110 51 212
0 74 -4 98 -23 137 -56 113 -150 178 -288 198 -68 9 -86 10 -154 4z"/>
</g>
</svg>
