<?xml version="1.0" standalone="no"?>
<!DOCTYPE svg PUBLIC "-//W3C//DTD SVG 20010904//EN"
 "http://www.w3.org/TR/2001/REC-SVG-20010904/DTD/svg10.dtd">
<svg version="1.0" xmlns="http://www.w3.org/2000/svg"
 width="600.000000pt" height="600.000000pt" viewBox="0 0 600.000000 600.000000"
 preserveAspectRatio="xMidYMid meet">
<metadata>
Created by potrace 1.15, written by Peter Selinger 2001-2017
</metadata>
<g transform="translate(0.000000,600.000000) scale(0.100000,-0.100000)"
fill="#16364b" stroke="none">
<path d="M1855 5806 c-49 -22 -67 -50 -187 -286 -133 -261 -168 -355 -168
-453 0 -107 40 -166 133 -196 116 -38 304 71 577 333 74 71 144 145 154 164
50 89 -3 210 -99 228 -53 10 -93 -10 -194 -97 -51 -44 -95 -78 -98 -76 -2 3
18 47 46 99 57 109 68 152 51 202 -24 75 -138 118 -215 82z"/>
<path d="M3005 5676 c-38 -17 -60 -42 -80 -90 -31 -73 0 -145 83 -193 174
-100 359 -243 446 -344 86 -101 135 -211 104 -236 -7 -7 -43 -17 -78 -22 -73
-12 -105 -31 -131 -81 -40 -74 -13 -159 62 -198 37 -20 53 -22 104 -16 236 26
375 143 375 316 0 63 -23 139 -70 230 -51 99 -85 150 -167 250 -120 145 -230
229 -446 342 -112 59 -148 66 -202 42z"/>
<path d="M975 5414 c-133 -30 -236 -94 -311 -196 -131 -179 -107 -431 57 -582
121 -113 229 -127 308 -42 18 19 26 41 29 81 5 65 -15 102 -79 148 -54 38 -79
82 -79 141 0 43 4 53 38 86 30 30 49 40 97 49 120 23 166 66 173 161 10 131
-77 188 -233 154z"/>
<path d="M2874 5104 c-51 -18 -117 -83 -146 -144 -31 -62 -37 -175 -13 -237
50 -132 199 -188 365 -140 62 18 91 44 115 100 13 32 14 50 4 130 -20 158 -65
244 -150 288 -45 23 -116 24 -175 3z"/>
<path d="M4770 4899 c-39 -16 -89 -58 -105 -89 -20 -39 -20 -170 1 -263 22
-104 102 -260 171 -337 70 -77 134 -110 213 -110 80 0 121 15 175 62 64 57 88
113 88 208 1 220 -150 412 -405 514 -71 28 -98 31 -138 15z"/>
<path d="M2005 4806 c-110 -30 -168 -68 -196 -130 -24 -52 -23 -90 1 -143 37
-82 122 -104 221 -58 66 30 75 24 90 -65 12 -74 17 -85 58 -125 26 -24 41 -30
94 -33 57 -4 66 -1 94 22 17 15 39 47 49 72 36 95 -22 298 -112 388 -73 73
-190 101 -299 72z"/>
<path d="M1235 4033 c-210 -24 -250 -35 -299 -75 -44 -36 -71 -111 -62 -172
16 -107 109 -185 204 -172 43 6 44 5 31 -14 -8 -11 -62 -90 -121 -177 -59 -87
-163 -241 -232 -342 -220 -324 -260 -456 -168 -555 81 -87 195 -85 287 4 22
21 94 74 160 118 66 44 161 113 210 153 50 40 126 102 170 137 44 36 127 96
185 135 l105 69 3 -56 c2 -39 -6 -89 -28 -168 -80 -288 -129 -397 -282 -633
-149 -230 -230 -375 -236 -421 -6 -56 27 -126 73 -154 51 -32 95 -35 147 -12
58 25 100 83 254 353 222 385 248 446 331 758 45 171 47 180 47 326 1 137 -1
155 -23 202 -24 55 -84 117 -127 133 -41 16 -137 11 -195 -9 -68 -23 -165 -72
-247 -124 -35 -21 -65 -38 -67 -35 -2 2 24 37 59 78 169 202 216 289 216 398
0 86 -60 181 -141 223 -58 29 -165 43 -254 32z"/>
<path d="M2950 4023 c-62 -7 -155 -42 -192 -73 -43 -35 -78 -103 -78 -149 0
-130 122 -247 310 -298 93 -26 400 -26 446 -1 45 25 82 73 89 116 4 20 15 53
26 73 25 48 25 124 -1 166 -55 91 -409 189 -600 166z"/>
<path d="M4196 3790 c-100 -26 -168 -63 -217 -118 -87 -100 -103 -239 -40
-366 56 -115 158 -180 281 -180 174 0 303 131 405 412 54 147 40 209 -55 250
-58 25 -277 26 -374 2z m68 -314 c-7 -18 -54 -50 -61 -42 -10 10 7 37 29 46
33 13 38 12 32 -4z"/>
<path d="M3404 3392 c-22 -11 -55 -38 -73 -61 -45 -56 -121 -235 -121 -284 0
-95 64 -151 188 -161 126 -11 190 21 239 121 25 51 28 69 28 153 0 85 -3 100
-28 145 -51 92 -145 127 -233 87z"/>
<path d="M4958 3070 c-79 -52 -192 -179 -233 -262 -82 -167 -45 -322 92 -385
143 -66 324 20 410 195 36 71 38 82 38 166 0 109 -18 155 -91 234 -83 91 -137
104 -216 52z"/>
<path d="M3916 2621 c-103 -36 -166 -121 -166 -223 0 -44 11 -82 50 -179 28
-68 50 -126 50 -130 0 -4 -27 2 -61 12 -189 59 -343 -30 -380 -219 -20 -105 3
-232 102 -568 29 -97 62 -190 73 -207 92 -134 308 -104 389 53 26 50 28 62 24
130 -3 41 -9 85 -13 98 l-7 23 39 -20 c89 -45 173 -33 282 39 74 49 126 123
148 212 30 113 4 223 -160 677 -77 211 -84 227 -123 262 -62 57 -156 72 -247
40z"/>
<path d="M1972 2224 c-74 -37 -160 -135 -217 -248 -40 -78 -47 -101 -46 -148
0 -30 5 -67 10 -82 10 -24 6 -32 -33 -80 -181 -223 -236 -420 -192 -686 30
-176 78 -272 201 -395 135 -137 309 -239 485 -286 111 -29 293 -32 389 -6 147
40 296 124 396 222 82 81 105 123 105 193 0 41 11 70 63 173 97 190 211 495
253 674 60 260 -90 455 -350 455 -134 0 -320 -67 -517 -186 -31 -19 -61 -34
-65 -34 -5 0 -19 44 -32 98 -56 240 -168 362 -333 362 -50 0 -77 -6 -117 -26z
m88 -520 c0 -8 -5 -12 -10 -9 -6 4 -8 11 -5 16 9 14 15 11 15 -7z m936 -104
c-19 -97 -166 -448 -252 -604 -20 -36 -27 -61 -26 -98 1 -61 -20 -94 -96 -149
-86 -61 -164 -82 -287 -77 -99 3 -107 5 -189 47 -113 57 -204 140 -239 219
-80 177 -50 386 74 522 23 25 51 65 62 90 l21 45 12 -90 c14 -112 21 -139 49
-195 41 -80 88 -110 176 -110 86 0 159 52 197 140 18 43 28 50 166 129 132 75
307 160 330 161 5 0 6 -14 2 -30z"/>
</g>
</svg>
