<?xml version="1.0" standalone="no"?>
<!DOCTYPE svg PUBLIC "-//W3C//DTD SVG 20010904//EN"
 "http://www.w3.org/TR/2001/REC-SVG-20010904/DTD/svg10.dtd">
<svg version="1.0" xmlns="http://www.w3.org/2000/svg"
 width="600.000000pt" height="600.000000pt" viewBox="0 0 600.000000 600.000000"
 preserveAspectRatio="xMidYMid meet">
<metadata>
Created by potrace 1.15, written by Peter Selinger 2001-2017
</metadata>
<g transform="translate(0.000000,600.000000) scale(0.100000,-0.100000)"
fill="#16364b" stroke="none">
<path d="M2999 5607 c-38 -25 -105 -143 -138 -245 -28 -84 -29 -200 -1 -257
51 -104 146 -154 318 -163 56 -2 102 -8 102 -12 0 -4 -18 -19 -40 -34 -57 -38
-317 -257 -424 -357 -117 -110 -146 -150 -146 -203 0 -95 62 -139 323 -226
111 -37 294 -100 406 -139 113 -39 215 -71 229 -71 87 0 166 111 142 201 -6
20 -21 48 -35 61 -37 37 -365 156 -565 205 -85 21 -92 28 -55 58 104 87 272
206 460 327 146 94 185 144 185 236 0 79 -52 140 -155 180 -72 28 -140 41
-308 56 -81 7 -152 17 -158 23 -6 6 7 42 37 103 54 109 62 151 37 200 -40 77
-143 105 -214 57z"/>
<path d="M1509 5357 c-115 -43 -323 -228 -418 -372 -62 -95 -132 -237 -167
-343 -49 -143 -32 -257 46 -309 46 -32 100 -29 249 12 134 36 282 65 338 65
31 0 34 -2 28 -22 -4 -13 -61 -127 -126 -255 -75 -145 -119 -243 -119 -262 0
-17 -9 -45 -20 -63 -26 -44 -27 -122 0 -165 22 -37 86 -73 129 -73 33 0 236
77 341 130 141 70 291 163 313 194 30 43 31 132 1 173 -32 42 -78 65 -133 65
-37 0 -64 -9 -125 -42 -42 -23 -80 -40 -83 -37 -3 4 15 41 40 84 119 205 141
356 69 473 -22 35 -43 53 -96 80 -64 32 -74 34 -189 38 -108 4 -216 -5 -285
-24 -19 -5 -21 -3 -15 12 40 107 200 283 318 350 43 24 76 52 88 72 69 118
-55 266 -184 219z"/>
<path d="M4564 4506 c-77 -18 -361 -123 -395 -147 -52 -37 -74 -121 -45 -177
26 -50 62 -75 116 -80 43 -4 70 3 190 48 77 29 143 50 147 47 16 -17 -157
-337 -277 -513 -72 -104 -72 -185 -1 -244 20 -17 50 -44 66 -60 38 -38 53 -42
270 -85 184 -36 245 -52 245 -62 0 -13 -118 -227 -202 -366 -55 -91 -92 -163
-95 -186 -7 -50 17 -102 63 -137 31 -24 47 -29 94 -29 76 0 99 18 161 122 79
133 224 422 249 498 29 87 30 176 2 230 -57 113 -145 155 -427 206 -66 12
-121 23 -123 24 -2 2 23 45 54 96 161 265 257 528 238 648 -16 102 -96 170
-206 177 -35 2 -90 -3 -124 -10z"/>
<path d="M3763 3659 c-72 -35 -105 -116 -83 -200 15 -59 53 -115 91 -134 32
-17 91 -22 126 -11 34 11 38 -34 9 -101 -24 -57 -25 -58 -73 -64 -127 -17
-231 -66 -314 -151 -63 -64 -109 -145 -109 -192 1 -87 69 -156 155 -156 67 0
107 23 150 85 51 75 112 105 213 105 118 0 178 42 189 133 4 23 18 60 33 82
75 110 95 256 51 367 -41 105 -157 208 -271 242 -72 21 -117 20 -167 -5z"/>
<path d="M2520 3575 c-162 -34 -382 -131 -420 -184 -66 -93 -10 -219 105 -236
41 -7 56 -2 174 54 147 70 236 95 252 71 13 -20 1 -120 -23 -199 -29 -95 -77
-193 -163 -336 -85 -141 -97 -183 -72 -243 8 -20 18 -59 21 -87 11 -90 72
-152 168 -169 31 -6 71 4 215 53 167 55 253 79 253 69 0 -15 -68 -206 -96
-270 -45 -102 -47 -174 -5 -240 52 -83 163 -112 245 -65 67 38 70 45 193 407
66 192 79 295 49 374 -71 185 -272 242 -555 156 -33 -10 -61 -17 -61 -15 0 2
16 39 34 84 100 233 125 484 62 612 -72 144 -203 202 -376 164z"/>
<path d="M1074 3321 c-129 -47 -271 -147 -305 -213 -42 -82 -8 -192 73 -234
47 -24 126 -29 172 -10 22 9 41 14 44 12 5 -5 3 -16 -57 -340 -54 -289 -67
-422 -52 -555 14 -128 44 -190 114 -235 32 -21 147 -45 182 -39 70 13 93 42
251 315 99 170 282 454 338 523 l24 30 18 -38 c20 -42 18 -80 -30 -402 -75
-512 -83 -673 -34 -756 45 -76 131 -109 197 -74 75 38 106 117 77 197 -16 45
-15 54 9 220 14 95 28 191 31 213 3 22 19 123 36 225 34 205 42 413 21 510 -7
30 -17 84 -24 120 -17 102 -51 155 -121 191 -81 42 -193 17 -282 -63 -58 -51
-205 -241 -311 -401 -32 -48 -60 -86 -61 -84 -2 2 15 95 38 208 37 179 42 221
42 344 1 139 1 141 -32 208 -28 56 -43 74 -89 105 -52 34 -63 37 -137 40 -60
2 -94 -3 -132 -17z"/>
<path d="M4686 2286 c-70 -26 -120 -88 -132 -164 l-6 -39 -192 1 c-214 1 -264
-8 -393 -68 -127 -61 -204 -155 -232 -286 -7 -30 -15 -119 -18 -197 -3 -79 -8
-143 -10 -143 -3 0 -34 27 -71 60 -36 33 -95 75 -131 93 -59 29 -74 32 -151
32 -97 -1 -135 -13 -246 -76 -170 -97 -322 -290 -398 -503 -3 -10 -9 -16 -12
-14 -3 3 -25 104 -49 223 -78 386 -116 464 -238 497 -98 26 -207 -41 -236
-145 -13 -45 -12 -53 18 -145 18 -53 52 -198 77 -322 51 -262 79 -351 137
-445 78 -128 189 -182 353 -172 145 8 184 39 246 193 89 223 171 372 256 466
53 59 66 55 202 -76 153 -147 198 -171 325 -171 79 0 96 4 143 28 77 41 132
100 176 192 l38 80 8 204 c6 146 12 206 21 211 30 19 108 20 254 4 130 -14
169 -15 233 -6 228 36 372 212 372 455 0 86 -2 97 -29 139 -54 85 -212 132
-315 94z"/>
</g>
</svg>
