<?xml version="1.0" standalone="no"?>
<!DOCTYPE svg PUBLIC "-//W3C//DTD SVG 20010904//EN"
 "http://www.w3.org/TR/2001/REC-SVG-20010904/DTD/svg10.dtd">
<svg version="1.0" xmlns="http://www.w3.org/2000/svg"
 width="600.000000pt" height="600.000000pt" viewBox="0 0 600.000000 600.000000"
 preserveAspectRatio="xMidYMid meet">
<metadata>
Created by potrace 1.15, written by Peter Selinger 2001-2017
</metadata>
<g transform="translate(0.000000,600.000000) scale(0.100000,-0.100000)"
fill="#16364b" stroke="none">
<path d="M1506 5759 c-41 -35 -49 -58 -77 -224 -40 -226 -12 -465 63 -551 62
-70 128 -82 216 -38 92 46 234 228 346 446 65 125 71 172 33 229 -28 42 -60
59 -113 59 -61 0 -85 -25 -152 -164 -67 -140 -153 -278 -159 -258 -6 17 12
159 39 299 24 128 20 153 -27 200 -29 29 -40 33 -84 33 -42 0 -56 -5 -85 -31z"/>
<path d="M805 5486 c-163 -52 -253 -206 -243 -416 3 -71 9 -96 37 -152 39 -80
111 -151 168 -168 86 -26 174 51 158 138 -5 27 -21 50 -58 84 -51 47 -52 48
-52 107 0 51 4 64 31 98 17 21 43 44 59 52 25 12 35 11 89 -8 69 -24 111 -18
152 20 46 43 43 138 -5 187 -61 60 -234 90 -336 58z"/>
<path d="M3325 5437 c-41 -41 -53 -93 -34 -145 13 -34 74 -83 189 -152 13 -8
11 -13 -12 -32 -35 -31 -48 -59 -48 -106 0 -88 157 -204 278 -206 115 -1 197
79 195 192 -3 134 -117 272 -333 405 -149 92 -181 98 -235 44z"/>
<path d="M2932 5134 c-131 -65 -206 -240 -153 -359 27 -61 45 -82 95 -107 94
-48 288 -2 342 80 26 39 32 191 10 265 -18 61 -53 110 -97 132 -46 24 -137 19
-197 -11z"/>
<path d="M2283 5121 c-46 -29 -55 -54 -54 -147 3 -167 -25 -208 -198 -290 -61
-28 -110 -58 -121 -74 -64 -89 -2 -220 105 -220 35 0 233 82 298 123 68 44
123 106 155 176 23 48 27 73 30 181 5 145 -5 194 -48 235 -40 38 -119 46 -167
16z"/>
<path d="M4774 4830 c-11 -4 -33 -23 -49 -41 l-28 -34 6 -145 c7 -164 27 -257
78 -358 43 -83 122 -156 192 -177 103 -31 214 21 272 126 26 47 30 64 30 134
0 69 -4 89 -31 145 -42 89 -115 174 -210 244 -139 102 -204 129 -260 106z"/>
<path d="M2714 4139 c-91 -35 -163 -127 -164 -210 0 -20 7 -55 15 -78 55 -158
247 -220 459 -150 94 31 258 113 285 142 49 53 34 163 -28 206 -39 27 -153 69
-245 91 -109 27 -252 26 -322 -1z"/>
<path d="M1040 4083 c-71 -30 -115 -101 -107 -176 4 -51 26 -88 70 -121 22
-16 55 -23 158 -32 72 -7 136 -17 142 -23 31 -31 -158 -169 -390 -284 -209
-103 -227 -121 -227 -212 0 -60 22 -101 72 -135 71 -49 130 -33 379 105 l82
46 10 -39 c19 -68 81 -112 159 -112 41 0 58 6 98 35 27 20 75 48 107 64 l58
29 57 -29 c80 -41 144 -47 202 -17 109 56 119 208 19 292 -64 54 -113 69 -230
69 l-107 0 24 46 c34 65 47 147 34 207 -30 132 -131 221 -309 269 -59 16 -275
29 -301 18z"/>
<path d="M4188 3756 c-108 -31 -195 -105 -229 -195 -56 -149 24 -342 165 -396
62 -24 174 -17 241 15 111 53 215 198 255 356 29 118 -1 185 -97 214 -58 18
-279 22 -335 6z m107 -296 c-18 -20 -55 -28 -55 -12 0 16 24 32 49 32 23 0 24
-1 6 -20z"/>
<path d="M5061 3399 c-106 -53 -200 -139 -241 -221 -92 -186 35 -435 222 -432
119 2 289 121 347 244 35 74 37 192 3 260 -27 56 -110 158 -143 176 -45 25
-101 17 -188 -27z"/>
<path d="M3415 3406 c-60 -26 -117 -111 -179 -270 -32 -79 -29 -118 10 -165
34 -40 80 -52 153 -40 78 14 128 45 168 103 44 65 66 143 61 220 -5 75 -33
120 -92 147 -48 22 -80 23 -121 5z"/>
<path d="M2290 2978 c-92 -35 -159 -113 -232 -265 -80 -170 -104 -202 -190
-259 -81 -54 -222 -189 -286 -274 -59 -80 -127 -219 -166 -340 -64 -198 -71
-392 -20 -567 74 -256 271 -455 525 -532 126 -38 183 -46 349 -46 164 0 165 0
268 36 256 91 449 271 590 554 93 187 145 442 146 715 1 167 0 179 -27 255
-56 158 -134 253 -267 324 -93 49 -162 112 -242 221 -73 101 -144 162 -208
183 -72 23 -172 21 -240 -5z m155 -425 c27 -41 126 -162 157 -192 15 -14 78
-50 140 -81 129 -63 142 -79 160 -200 13 -85 -6 -209 -57 -389 -61 -210 -119
-330 -207 -426 -113 -124 -226 -177 -383 -178 -118 -2 -205 21 -300 78 -210
126 -252 294 -146 584 56 153 131 264 226 333 22 16 79 65 127 109 99 91 170
190 219 310 18 43 36 79 40 79 4 0 15 -12 24 -27z"/>
<path d="M840 2663 c-49 -25 -75 -79 -60 -130 15 -54 25 -65 120 -121 152 -91
230 -192 230 -300 0 -92 -56 -162 -129 -162 -42 0 -90 51 -136 144 -45 91 -71
116 -123 123 -80 11 -152 -70 -139 -153 11 -65 94 -218 151 -277 77 -81 141
-110 241 -111 68 0 89 4 145 30 90 42 172 120 212 201 28 56 33 79 36 158 5
116 -9 185 -60 288 -58 116 -151 206 -278 270 -111 57 -160 66 -210 40z"/>
<path d="M4185 2235 c-68 -24 -125 -107 -125 -184 0 -20 -4 -22 -22 -17 -112
34 -204 3 -248 -85 -38 -74 -22 -202 56 -441 53 -162 113 -221 224 -221 30 0
67 -6 82 -13 38 -19 115 -17 164 5 58 26 111 93 134 169 26 84 26 234 1 479
-23 219 -37 254 -123 297 -58 29 -85 31 -143 11z"/>
</g>
</svg>
