<?xml version="1.0" standalone="no"?>
<!DOCTYPE svg PUBLIC "-//W3C//DTD SVG 20010904//EN"
 "http://www.w3.org/TR/2001/REC-SVG-20010904/DTD/svg10.dtd">
<svg version="1.0" xmlns="http://www.w3.org/2000/svg"
 width="600.000000pt" height="600.000000pt" viewBox="0 0 600.000000 600.000000"
 preserveAspectRatio="xMidYMid meet">
<metadata>
Created by potrace 1.15, written by Peter Selinger 2001-2017
</metadata>
<g transform="translate(0.000000,600.000000) scale(0.100000,-0.100000)"
fill="#16364b" stroke="none">
<path d="M1855 5802 c-16 -11 -35 -25 -42 -33 -24 -30 -271 -528 -291 -588
-43 -126 -23 -227 53 -280 96 -65 210 -44 388 72 91 59 131 93 290 241 109
101 147 153 147 200 0 64 -51 130 -114 147 -61 16 -109 -2 -206 -81 -47 -37
-86 -64 -88 -59 -2 5 20 50 50 101 45 79 53 101 53 144 0 88 -71 154 -167 154
-24 0 -56 -8 -73 -18z"/>
<path d="M2995 5696 c-17 -7 -43 -28 -58 -45 -50 -60 -30 -160 40 -203 253
-158 393 -265 480 -367 64 -75 133 -199 133 -239 0 -28 -24 -50 -63 -56 -18
-3 -49 -8 -69 -11 -42 -7 -92 -44 -113 -86 -35 -66 -6 -149 65 -186 48 -26 80
-28 165 -12 181 33 300 153 312 314 7 77 -27 180 -96 297 -138 233 -272 360
-566 536 -119 71 -173 85 -230 58z"/>
<path d="M985 5410 c-112 -20 -209 -74 -293 -163 -171 -183 -158 -443 32 -633
78 -79 127 -102 190 -90 45 9 93 48 111 93 32 76 11 142 -62 196 -137 101 -93
264 77 284 95 11 160 78 160 166 0 112 -84 169 -215 147z"/>
<path d="M2910 5131 c-79 -24 -146 -89 -188 -180 -34 -73 -36 -183 -5 -251 43
-94 123 -142 238 -143 97 0 175 24 213 67 40 46 45 73 33 200 -16 167 -59 246
-156 292 -51 24 -90 28 -135 15z"/>
<path d="M4805 4898 c-42 -15 -103 -75 -116 -117 -16 -47 -5 -205 20 -304 49
-187 163 -310 308 -333 96 -15 217 57 270 160 22 42 27 65 27 127 1 68 -3 83
-37 152 -61 123 -197 246 -337 304 -60 25 -89 27 -135 11z"/>
<path d="M1944 4751 c-114 -39 -164 -90 -164 -170 0 -130 101 -188 229 -132
52 22 55 22 68 5 7 -10 13 -33 13 -52 0 -145 194 -200 296 -84 36 41 47 87 40
161 -11 125 -88 228 -202 271 -70 26 -206 27 -280 1z"/>
<path d="M2895 4023 c-64 -14 -110 -40 -149 -84 -57 -63 -73 -120 -57 -194 35
-154 202 -263 437 -285 102 -9 255 5 302 27 43 20 82 78 82 121 0 19 10 48 22
65 32 45 36 131 8 175 -33 54 -225 135 -394 167 -73 14 -206 18 -251 8z"/>
<path d="M1166 4005 c-206 -29 -246 -47 -285 -128 -43 -89 -15 -195 67 -252
38 -26 53 -30 108 -30 35 0 64 -2 64 -5 0 -3 -37 -52 -81 -109 -216 -277 -370
-512 -445 -678 -43 -96 -49 -116 -49 -179 0 -63 3 -75 29 -108 39 -52 123 -90
182 -83 50 5 102 37 130 78 20 31 120 107 284 216 105 71 204 147 270 207 75
69 231 196 240 196 15 0 12 -119 -5 -202 -24 -115 -88 -292 -175 -485 -88
-195 -160 -322 -257 -455 -35 -47 -68 -100 -74 -118 -34 -97 74 -207 184 -186
56 10 96 45 168 146 137 191 208 337 346 713 101 275 141 428 152 580 15 201
-14 300 -106 354 -119 70 -253 28 -468 -147 -98 -79 -105 -82 -61 -20 198 275
248 367 250 463 4 183 -178 273 -468 232z"/>
<path d="M4253 3790 c-158 -29 -272 -113 -319 -236 -27 -72 -16 -183 26 -263
134 -251 462 -211 613 76 51 97 100 239 100 291 0 52 -25 90 -77 116 -29 14
-65 19 -164 22 -70 2 -150 -1 -179 -6z m27 -317 c0 -14 -34 -43 -52 -43 -27 0
-22 17 10 34 30 17 42 19 42 9z"/>
<path d="M3395 3391 c-74 -33 -153 -147 -199 -284 -19 -58 -10 -109 29 -155
35 -42 78 -59 167 -66 100 -9 148 5 203 55 104 96 124 297 39 399 -57 67 -157
89 -239 51z"/>
<path d="M4980 3093 c-36 -14 -141 -97 -197 -156 -69 -75 -108 -147 -123 -230
-20 -106 29 -210 124 -260 63 -33 182 -31 258 5 76 35 151 107 185 177 25 50
28 67 28 156 0 81 -4 109 -21 145 -26 55 -109 145 -147 159 -30 12 -82 13
-107 4z"/>
<path d="M3924 2616 c-47 -21 -103 -74 -126 -120 -32 -63 -28 -131 15 -263 52
-157 52 -157 -25 -126 -195 79 -388 -70 -388 -300 0 -71 24 -190 55 -277 9
-25 41 -125 70 -224 59 -193 81 -233 145 -266 53 -27 149 -27 205 0 117 57
177 201 130 313 -19 46 -19 51 3 42 103 -40 186 -36 288 12 58 27 92 61 127
127 19 36 22 56 21 156 0 128 -20 213 -95 423 -23 61 -61 173 -86 247 -54 163
-75 201 -126 237 -33 23 -52 28 -111 31 -45 1 -82 -3 -102 -12z"/>
<path d="M2040 2234 c-96 -30 -188 -124 -282 -286 -41 -71 -48 -90 -48 -137 0
-30 5 -69 12 -87 11 -30 9 -35 -20 -68 -99 -113 -173 -263 -197 -400 -32 -186
-14 -338 58 -486 35 -72 57 -101 146 -191 175 -174 332 -265 512 -294 304 -49
533 18 729 215 94 93 124 151 117 223 -4 42 0 58 18 88 34 53 136 258 189 380
157 363 156 673 -4 784 -88 61 -248 82 -375 50 -84 -21 -250 -104 -356 -176
-49 -34 -92 -59 -95 -57 -3 3 -14 42 -24 87 -45 187 -141 323 -250 355 -63 19
-71 19 -130 0z m945 -656 c-28 -168 -108 -370 -213 -538 -42 -67 -47 -82 -49
-140 -1 -36 -2 -68 -3 -71 0 -4 -23 -29 -50 -56 -117 -116 -295 -151 -458 -91
-69 26 -189 107 -237 159 -149 166 -130 434 45 616 l59 63 6 -38 c14 -85 55
-198 86 -236 97 -116 278 -95 340 39 10 22 19 49 19 60 1 33 390 275 443 275
17 0 18 -5 12 -42z"/>
</g>
</svg>
