<?xml version="1.0" standalone="no"?>
<!DOCTYPE svg PUBLIC "-//W3C//DTD SVG 20010904//EN"
 "http://www.w3.org/TR/2001/REC-SVG-20010904/DTD/svg10.dtd">
<svg version="1.0" xmlns="http://www.w3.org/2000/svg"
 width="600.000000pt" height="600.000000pt" viewBox="0 0 600.000000 600.000000"
 preserveAspectRatio="xMidYMid meet">
<metadata>
Created by potrace 1.15, written by Peter Selinger 2001-2017
</metadata>
<g transform="translate(0.000000,600.000000) scale(0.100000,-0.100000)"
fill="#16364b" stroke="none">
<path d="M2393 5418 c-36 -17 -53 -68 -53 -153 0 -79 -18 -225 -46 -370 -38
-199 -82 -271 -214 -352 -47 -28 -95 -60 -107 -72 -47 -42 -18 -131 42 -131
55 0 234 110 306 187 58 62 93 122 119 203 30 96 72 397 73 533 2 118 2 119
-26 143 -30 26 -58 29 -94 12z"/>
<path d="M3522 5315 c-62 -44 -68 -123 -16 -222 78 -153 222 -247 307 -201 80
42 59 143 -65 310 -74 100 -173 150 -226 113z"/>
<path d="M2963 5089 c-149 -74 -199 -317 -80 -389 57 -35 119 -23 219 41 86
56 134 209 90 289 -43 78 -140 103 -229 59z m67 -189 c-14 -35 -50 -61 -50
-36 0 17 50 79 58 72 2 -3 -1 -19 -8 -36z"/>
<path d="M4727 4736 c-34 -31 -41 -77 -34 -205 16 -275 83 -430 199 -461 78
-21 139 2 186 70 67 99 48 273 -44 407 -50 72 -151 181 -185 198 -43 23 -92
19 -122 -9z"/>
<path d="M2660 4231 c-55 -18 -91 -44 -117 -83 -37 -55 -37 -134 -2 -199 27
-49 98 -102 162 -121 69 -20 212 -15 279 11 76 29 147 78 175 120 44 66 22
171 -44 204 -95 48 -383 92 -453 68z"/>
<path d="M1100 4125 c-15 -16 -24 -39 -26 -63 -1 -22 -8 -50 -17 -63 -29 -45
-30 -75 -4 -132 46 -102 136 -167 232 -167 130 0 228 112 196 223 -19 61 -102
139 -203 188 -98 47 -144 51 -178 14z"/>
<path d="M5190 3883 c-131 -45 -204 -152 -204 -298 0 -66 4 -90 26 -137 35
-76 107 -151 177 -185 78 -39 190 -39 271 -2 76 36 126 82 160 149 98 193 34
365 -177 473 -42 22 -190 22 -253 0z m160 -293 c21 -13 1 -44 -32 -48 -19 -2
-27 2 -31 20 -9 33 28 50 63 28z"/>
<path d="M4204 3760 c-46 -9 -127 -49 -159 -77 -153 -134 -126 -364 54 -471
63 -37 183 -43 262 -13 75 29 141 88 176 159 23 47 28 72 31 154 5 110 -5 145
-49 182 -60 51 -225 85 -315 66z m76 -266 c0 -20 -24 -44 -45 -44 -31 0 -32
14 -3 34 22 16 48 21 48 10z"/>
<path d="M3427 3364 c-16 -8 -46 -43 -68 -77 -51 -78 -119 -220 -119 -248 0
-31 53 -79 87 -79 95 0 239 172 250 299 5 50 2 61 -18 85 -30 34 -91 44 -132
20z"/>
<path d="M1407 3189 c-226 -22 -282 -32 -364 -69 -284 -128 -339 -506 -110
-755 74 -81 160 -126 321 -165 212 -52 262 -105 346 -373 80 -251 170 -402
322 -541 164 -150 401 -219 688 -202 63 4 183 9 265 12 153 5 240 12 470 39
72 8 212 19 312 25 208 12 308 28 431 72 99 34 301 133 377 183 248 166 382
374 430 669 30 184 14 340 -47 464 -77 155 -332 345 -534 395 -196 50 -333 21
-585 -125 -212 -122 -277 -149 -382 -162 -185 -22 -268 -12 -397 47 -75 35
-321 172 -501 280 -189 113 -227 132 -323 166 -184 65 -364 75 -719 40z m378
-379 c112 -11 242 -41 313 -72 26 -11 99 -55 162 -98 183 -122 282 -178 452
-257 226 -105 289 -128 411 -152 l108 -22 107 26 c168 40 370 104 436 137 34
17 99 55 146 86 174 113 236 133 332 107 95 -25 238 -128 264 -192 41 -98 -13
-352 -105 -488 -66 -99 -272 -232 -446 -289 -110 -35 -199 -53 -340 -65 -66
-6 -178 -19 -250 -28 -139 -17 -352 -21 -780 -12 -227 4 -255 7 -305 27 -121
48 -193 145 -289 388 -35 88 -77 186 -93 219 -119 237 -322 409 -546 461 -89
21 -127 38 -157 70 -44 47 -29 105 33 132 66 28 358 40 547 22z"/>
<path d="M437 2100 c-33 -26 -43 -71 -23 -107 8 -15 35 -69 59 -120 107 -219
282 -306 376 -187 19 24 22 38 19 85 -3 45 -11 66 -41 107 -59 79 -289 242
-343 242 -12 0 -33 -9 -47 -20z"/>
<path d="M5117 1280 c-19 -16 -42 -30 -50 -30 -28 0 -75 -57 -82 -99 -7 -43
14 -134 43 -184 23 -39 72 -67 116 -67 78 0 122 86 133 262 6 94 5 97 -20 122
-38 38 -95 36 -140 -4z"/>
</g>
</svg>
