<?xml version="1.0" standalone="no"?>
<!DOCTYPE svg PUBLIC "-//W3C//DTD SVG 20010904//EN"
 "http://www.w3.org/TR/2001/REC-SVG-20010904/DTD/svg10.dtd">
<svg version="1.0" xmlns="http://www.w3.org/2000/svg"
 width="600.000000pt" height="600.000000pt" viewBox="0 0 600.000000 600.000000"
 preserveAspectRatio="xMidYMid meet">
<metadata>
Created by potrace 1.15, written by Peter Selinger 2001-2017
</metadata>
<g transform="translate(0.000000,600.000000) scale(0.100000,-0.100000)"
fill="#16364b" stroke="none">
<path d="M2310 5543 c-14 -2 -58 -20 -98 -40 -91 -43 -197 -143 -235 -223 -47
-96 -50 -139 -46 -660 5 -651 -24 -1563 -50 -1592 -11 -12 -167 57 -253 112
-45 28 -129 86 -186 127 -87 64 -103 79 -98 97 20 66 19 76 -3 76 -14 0 -23
-8 -27 -25 -10 -39 -21 -30 -35 33 -18 73 -40 77 -53 10 -5 -27 -12 -48 -16
-48 -4 0 -17 11 -30 25 -43 45 -70 18 -34 -33 20 -29 12 -39 -22 -23 -14 6
-30 9 -35 6 -21 -14 -5 -36 63 -89 40 -31 125 -97 188 -147 208 -165 302 -221
445 -269 l80 -27 -1 -44 c-1 -24 -5 -123 -9 -219 -7 -155 -5 -202 19 -415 43
-384 66 -470 167 -626 120 -182 261 -283 454 -323 l59 -13 -4 -49 c-10 -103
-3 -301 13 -386 10 -47 33 -132 52 -189 19 -56 32 -106 29 -111 -3 -4 -29 -8
-57 -8 -81 -1 -129 -16 -159 -50 -51 -56 -31 -130 40 -150 112 -31 261 18 312
103 36 59 35 95 -9 223 -55 165 -72 258 -73 399 -1 136 7 201 27 209 8 3 40 1
72 -4 32 -6 249 -10 481 -10 l424 0 -9 -53 c-4 -28 -8 -108 -7 -177 0 -107 5
-144 33 -255 18 -71 42 -151 52 -177 31 -80 28 -88 -36 -88 -132 0 -209 -43
-209 -116 0 -47 44 -89 104 -99 99 -17 247 40 296 114 43 66 42 100 -9 257
-25 76 -53 175 -63 219 -23 99 -25 281 -3 340 l14 40 195 6 c108 3 215 11 240
18 71 20 158 71 209 122 91 92 131 212 151 462 15 191 13 277 -15 490 -35 270
-69 362 -212 571 -41 59 -73 109 -71 110 2 2 41 10 86 20 280 58 533 202 667
380 27 35 28 39 12 51 -9 7 -17 20 -17 29 0 18 -22 21 -51 6 -17 -10 -19 -7
-19 25 0 47 -22 46 -51 -2 -23 -37 -23 -37 -29 -13 -3 14 -14 26 -23 28 -14 3
-17 -5 -17 -56 0 -67 -6 -75 -109 -141 -110 -70 -303 -134 -490 -161 l-83 -13
-91 91 c-114 113 -148 139 -529 396 -330 223 -431 303 -519 412 -105 129 -158
226 -217 400 -69 204 -102 359 -127 600 -18 177 -34 246 -76 324 -63 118 -166
190 -281 195 -35 2 -74 1 -88 -2z m147 -179 c48 -24 98 -91 118 -157 9 -29 20
-108 26 -176 32 -392 144 -759 305 -1003 57 -85 168 -205 263 -282 36 -29 181
-131 321 -226 140 -95 291 -200 335 -233 76 -58 206 -181 270 -257 209 -245
263 -317 310 -411 48 -95 62 -152 86 -359 17 -151 20 -216 15 -357 -12 -326
-60 -455 -196 -516 -65 -29 -320 -40 -910 -39 -547 0 -837 12 -920 38 -181 54
-315 198 -380 409 -11 39 -35 178 -52 310 -41 313 -41 488 -4 955 41 526 55
1054 45 1770 -4 320 -2 340 50 421 36 57 87 97 154 121 59 21 109 18 164 -8z"/>
<path d="M2600 2900 c-27 -27 -25 -62 3 -88 52 -49 116 -11 108 65 -4 42 -77
57 -111 23z"/>
<path d="M3174 2865 c-30 -30 -26 -58 12 -92 29 -27 56 -29 78 -7 38 37 27 96
-20 114 -36 14 -42 13 -70 -15z"/>
<path d="M2777 1967 c-26 -18 -18 -59 13 -74 47 -22 154 -32 350 -34 175 0
195 1 207 17 16 22 16 26 0 48 -19 26 -90 35 -247 29 -120 -5 -220 3 -285 22
-11 3 -28 0 -38 -8z"/>
</g>
</svg>
