<?xml version="1.0" standalone="no"?>
<!DOCTYPE svg PUBLIC "-//W3C//DTD SVG 20010904//EN"
 "http://www.w3.org/TR/2001/REC-SVG-20010904/DTD/svg10.dtd">
<svg version="1.0" xmlns="http://www.w3.org/2000/svg"
 width="600.000000pt" height="600.000000pt" viewBox="0 0 600.000000 600.000000"
 preserveAspectRatio="xMidYMid meet">
<metadata>
Created by potrace 1.15, written by Peter Selinger 2001-2017
</metadata>
<g transform="translate(0.000000,600.000000) scale(0.100000,-0.100000)"
fill="#16364b" stroke="none">
<path d="M2401 5392 c-28 -27 -28 -30 -34 -182 -7 -176 -34 -316 -88 -446 -55
-134 -109 -198 -213 -253 -79 -41 -86 -48 -86 -82 0 -36 32 -69 67 -69 40 0
149 66 212 129 136 136 235 431 248 742 l6 145 -28 22 c-36 29 -51 28 -84 -6z"/>
<path d="M3536 5281 c-33 -37 -32 -94 4 -167 35 -71 130 -177 174 -194 117
-44 172 46 106 176 -33 67 -118 167 -161 189 -41 21 -102 19 -123 -4z"/>
<path d="M3034 5099 c-54 -15 -127 -72 -157 -120 -56 -91 -44 -206 25 -249
124 -75 328 76 328 244 0 101 -87 157 -196 125z m39 -177 c-24 -46 -86 -92
-91 -68 -5 25 30 78 68 104 42 28 49 16 23 -36z"/>
<path d="M4763 4750 c-18 -11 -36 -32 -40 -47 -13 -48 -9 -363 6 -428 32 -142
85 -205 173 -205 96 0 137 69 138 230 0 125 -22 219 -78 324 -71 135 -127 170
-199 126z"/>
<path d="M2635 4212 c-138 -65 -96 -247 74 -326 67 -31 242 -30 322 2 119 47
169 121 134 195 -21 46 -53 60 -225 103 -182 46 -251 51 -305 26z"/>
<path d="M5250 3975 c-148 -42 -217 -148 -208 -318 11 -197 143 -337 306 -325
77 5 177 54 227 109 54 60 96 157 103 235 4 58 2 71 -28 130 -26 53 -44 74
-93 111 -34 25 -73 49 -86 54 -46 18 -164 20 -221 4z m149 -301 c11 -11 -17
-39 -40 -39 -19 0 -25 6 -27 29 -3 28 -2 29 29 22 18 -3 35 -9 38 -12z"/>
<path d="M4244 3770 c-105 -21 -203 -102 -252 -208 -22 -46 -27 -72 -27 -132
0 -87 20 -134 82 -193 62 -61 115 -82 208 -82 70 0 87 4 133 29 114 63 174
167 180 309 2 48 1 103 -2 122 -9 48 -49 91 -110 119 -45 21 -145 48 -164 45
-4 -1 -26 -5 -48 -9z m46 -295 c0 -17 -35 -55 -50 -55 -19 0 -10 39 12 54 28
20 38 20 38 1z"/>
<path d="M1115 3479 c-118 -12 -224 -89 -281 -204 -25 -52 -29 -71 -29 -145 0
-78 4 -92 38 -162 70 -145 183 -227 342 -248 135 -19 176 -29 213 -56 82 -59
142 -170 202 -369 23 -77 59 -195 81 -264 22 -68 51 -172 65 -230 58 -244 96
-338 170 -420 103 -114 272 -198 500 -245 155 -33 417 -49 654 -41 124 5 394
9 601 11 218 1 409 7 455 14 107 15 251 52 359 91 114 41 342 157 409 208 209
157 320 390 333 696 11 268 -60 443 -256 628 -192 181 -421 241 -693 180 -145
-32 -317 -113 -533 -253 -210 -136 -276 -160 -435 -160 -161 0 -294 53 -547
218 -92 60 -222 143 -288 184 -66 41 -172 109 -235 150 -324 212 -529 307
-815 379 -141 36 -227 46 -310 38z m206 -369 c343 -62 572 -175 993 -495 376
-284 516 -355 811 -410 266 -50 421 -43 567 23 35 16 140 80 235 144 266 178
394 232 553 232 121 -1 185 -27 271 -113 77 -77 105 -127 126 -225 17 -81 11
-231 -13 -325 -44 -166 -112 -243 -295 -333 -199 -98 -326 -130 -584 -148
-522 -34 -1070 -44 -1173 -21 -26 6 -110 18 -187 26 -326 38 -428 83 -494 218
-31 62 -41 100 -125 452 -59 246 -116 429 -167 533 -104 212 -288 345 -514
370 -96 11 -139 24 -167 49 -29 26 -22 34 38 42 6 0 62 -8 125 -19z"/>
<path d="M2202 2328 c-36 -36 6 -118 61 -118 46 0 66 80 29 113 -22 20 -73 22
-90 5z"/>
<path d="M2866 2059 c-41 -33 -34 -89 15 -115 37 -19 65 -5 84 39 31 74 -36
126 -99 76z"/>
<path d="M3470 3371 c-46 -13 -171 -195 -212 -307 -17 -48 12 -88 67 -92 36
-3 43 1 101 62 69 72 140 183 150 233 9 48 -3 81 -36 98 -31 16 -33 16 -70 6z"/>
<path d="M472 2044 c-31 -22 -31 -86 1 -111 13 -10 37 -39 54 -64 83 -121 200
-173 258 -114 65 64 -9 170 -184 263 -87 47 -97 49 -129 26z"/>
<path d="M5359 1108 c-38 -30 -74 -147 -63 -203 7 -40 44 -81 78 -87 13 -3 39
0 57 6 84 28 119 190 56 261 -26 30 -102 43 -128 23z"/>
</g>
</svg>
