<?xml version="1.0" standalone="no"?>
<!DOCTYPE svg PUBLIC "-//W3C//DTD SVG 20010904//EN"
 "http://www.w3.org/TR/2001/REC-SVG-20010904/DTD/svg10.dtd">
<svg version="1.0" xmlns="http://www.w3.org/2000/svg"
 width="600.000000pt" height="600.000000pt" viewBox="0 0 600.000000 600.000000"
 preserveAspectRatio="xMidYMid meet">
<metadata>
Created by potrace 1.15, written by Peter Selinger 2001-2017
</metadata>
<g transform="translate(0.000000,600.000000) scale(0.100000,-0.100000)"
fill="#16364b" stroke="none">
<path d="M2025 5835 c-22 -8 -41 -15 -42 -15 -1 0 -33 -42 -72 -92 -39 -51
-108 -138 -152 -193 -96 -118 -183 -245 -230 -335 -30 -58 -34 -74 -34 -146 0
-73 3 -84 29 -118 47 -62 80 -78 161 -74 87 4 133 25 419 190 350 201 356 205
378 256 47 104 -21 216 -129 216 -42 0 -64 -10 -167 -72 -65 -40 -123 -72
-127 -72 -5 0 14 28 42 63 27 34 67 87 87 117 33 49 37 62 37 120 0 52 -5 72
-23 98 -42 58 -112 80 -177 57z"/>
<path d="M3055 5683 c-70 -14 -108 -51 -120 -113 -4 -26 0 -47 17 -80 21 -42
33 -50 162 -117 276 -144 367 -212 423 -320 36 -68 58 -152 48 -185 -16 -53
-74 -93 -180 -123 -140 -41 -191 -181 -99 -273 33 -33 37 -34 97 -30 115 8
319 111 381 193 50 65 79 144 84 225 3 64 -1 89 -27 170 -55 170 -165 335
-291 437 -77 62 -180 118 -315 171 -105 41 -147 52 -180 45z"/>
<path d="M979 5379 c-99 -23 -233 -108 -297 -188 -113 -141 -122 -346 -21
-506 64 -103 184 -208 252 -220 53 -10 121 25 147 76 39 75 17 144 -69 217
-68 57 -95 110 -89 174 8 74 57 117 169 147 92 25 145 109 121 190 -30 98
-103 136 -213 110z"/>
<path d="M2800 5021 c-125 -40 -209 -157 -218 -302 -6 -106 15 -168 82 -235
69 -68 139 -95 266 -101 85 -4 100 -2 139 19 54 28 81 75 81 138 0 55 -27 103
-70 125 -29 15 -30 18 -17 33 26 30 47 80 47 113 0 65 -81 158 -171 196 -38
16 -110 23 -139 14z"/>
<path d="M4788 4902 c-32 -13 -87 -73 -96 -105 -11 -41 3 -248 23 -336 33
-142 101 -233 203 -271 191 -72 388 61 386 260 -1 130 -83 249 -243 354 -137
90 -219 119 -273 98z"/>
<path d="M1903 4635 c-92 -28 -185 -103 -199 -161 -17 -68 15 -137 80 -171 40
-21 114 -13 155 16 18 13 46 24 63 25 27 1 34 -4 55 -46 46 -91 140 -130 226
-95 83 35 98 122 42 235 -84 168 -257 249 -422 197z"/>
<path d="M2968 3941 c-153 -49 -257 -189 -266 -357 -6 -112 13 -167 85 -245
60 -65 162 -121 241 -134 59 -10 126 23 152 76 47 91 4 187 -99 224 -59 20
-71 32 -71 67 0 41 52 93 83 83 61 -18 104 -17 145 4 23 12 49 32 58 46 41 63
34 148 -16 195 -60 56 -205 75 -312 41z"/>
<path d="M1235 3929 c-83 -11 -258 -63 -300 -89 -66 -41 -106 -142 -86 -215
26 -96 103 -153 193 -141 39 6 48 4 42 -6 -5 -7 -43 -61 -84 -119 -42 -59 -93
-135 -112 -170 -34 -60 -205 -439 -249 -552 -56 -142 5 -268 139 -284 54 -6
141 17 163 43 7 9 52 42 100 75 85 59 134 99 338 278 114 100 336 281 345 281
13 0 4 -81 -19 -184 -55 -245 -151 -474 -359 -861 -67 -123 -76 -146 -76 -193
0 -29 7 -66 15 -82 45 -87 160 -104 227 -32 28 29 202 331 273 472 113 225
184 441 245 747 8 38 11 111 8 195 -4 111 -8 142 -27 186 -59 132 -191 168
-342 92 -75 -39 -188 -113 -279 -184 -35 -28 -60 -44 -55 -36 5 8 55 83 111
166 121 181 146 240 147 344 1 62 -3 84 -26 126 -58 114 -175 164 -332 143z"/>
<path d="M4271 3789 c-153 -23 -284 -109 -340 -221 -101 -200 47 -401 294
-401 119 0 181 27 270 117 77 78 111 133 155 257 36 97 36 110 9 165 -30 64
-78 83 -215 89 -60 2 -138 -1 -173 -6z m-11 -298 c0 -11 -45 -41 -60 -41 -19
0 -5 24 21 37 29 15 39 16 39 4z"/>
<path d="M3455 3391 c-46 -12 -68 -26 -109 -72 -46 -50 -99 -159 -123 -250
l-17 -66 25 -48 c37 -75 63 -89 174 -93 83 -3 100 -1 147 20 77 36 113 71 149
143 28 58 31 71 28 138 -4 61 -10 83 -34 123 -51 82 -154 127 -240 105z"/>
<path d="M4947 2966 c-45 -16 -168 -125 -225 -198 -114 -149 -139 -288 -68
-381 42 -56 86 -84 152 -97 200 -42 399 135 412 366 6 115 -12 164 -90 242
-38 39 -74 65 -97 72 -43 12 -37 12 -84 -4z"/>
<path d="M4002 2539 c-63 -32 -113 -105 -127 -186 -7 -44 6 -106 51 -247 14
-43 23 -80 21 -82 -2 -2 -22 5 -45 16 -67 33 -161 53 -214 47 -65 -8 -115 -34
-165 -84 -109 -113 -119 -226 -42 -506 17 -59 43 -168 59 -242 16 -73 36 -147
44 -164 27 -52 80 -84 146 -89 68 -5 113 8 169 48 92 67 119 174 82 318 -28
107 -27 111 12 75 76 -73 164 -85 283 -40 167 64 254 195 241 362 -4 53 -27
138 -86 316 -44 134 -87 270 -96 302 -19 68 -70 131 -130 158 -56 26 -148 25
-203 -2z"/>
<path d="M2030 2133 c-33 -11 -67 -38 -125 -98 -163 -166 -196 -284 -107 -378
41 -43 75 -57 142 -57 33 0 60 -3 60 -7 0 -5 -30 -24 -67 -43 -128 -66 -225
-192 -259 -336 -20 -86 -14 -308 10 -399 56 -206 195 -343 506 -501 129 -65
193 -85 290 -91 179 -11 416 83 575 229 69 63 88 98 88 164 0 123 -114 218
-241 200 -56 -8 -96 -29 -162 -88 -81 -72 -159 -108 -234 -108 -121 0 -221 44
-335 147 -39 35 -69 74 -92 120 -32 64 -34 74 -34 169 0 86 3 105 19 123 31
35 61 27 90 -24 37 -62 129 -160 170 -179 122 -58 266 38 266 177 0 61 -12 89
-65 151 -44 52 -95 146 -95 177 0 10 11 20 28 24 15 4 77 35 137 70 185 105
370 193 382 181 6 -6 -43 -193 -78 -298 -17 -51 -62 -153 -100 -226 -58 -113
-69 -140 -69 -183 0 -56 15 -92 57 -131 37 -35 73 -48 136 -48 101 1 161 47
235 182 124 225 228 588 220 768 -5 101 -30 163 -93 226 -64 64 -136 87 -270
88 -100 1 -119 -2 -208 -32 -53 -19 -177 -74 -274 -123 -98 -49 -178 -89 -180
-89 -1 0 -5 20 -8 44 -4 24 -22 70 -39 102 -56 101 -160 137 -276 97z"/>
</g>
</svg>
