<?xml version="1.0" standalone="no"?>
<!DOCTYPE svg PUBLIC "-//W3C//DTD SVG 20010904//EN"
 "http://www.w3.org/TR/2001/REC-SVG-20010904/DTD/svg10.dtd">
<svg version="1.0" xmlns="http://www.w3.org/2000/svg"
 width="600.000000pt" height="600.000000pt" viewBox="0 0 600.000000 600.000000"
 preserveAspectRatio="xMidYMid meet">
<metadata>
Created by potrace 1.15, written by Peter Selinger 2001-2017
</metadata>
<g transform="translate(0.000000,600.000000) scale(0.100000,-0.100000)"
fill="#16364b" stroke="none">
<path d="M2367 5382 c-14 -16 -17 -44 -17 -188 0 -396 -80 -600 -274 -699 -32
-16 -65 -40 -73 -52 -26 -39 7 -93 55 -93 41 0 170 81 230 144 58 61 121 182
147 281 42 160 62 557 29 603 -19 28 -74 30 -97 4z"/>
<path d="M3534 5302 c-18 -12 -34 -49 -34 -80 0 -43 55 -145 111 -206 79 -87
152 -109 206 -62 41 35 38 96 -8 171 -47 77 -112 149 -153 169 -35 17 -103 21
-122 8z"/>
<path d="M3002 5093 c-48 -23 -108 -97 -133 -162 -30 -78 -32 -179 -3 -218 49
-66 121 -54 219 38 135 127 166 276 69 340 -36 23 -106 25 -152 2z m78 -128
c0 -39 -84 -155 -112 -155 -10 0 0 45 20 85 30 62 92 109 92 70z"/>
<path d="M4773 4740 c-12 -5 -29 -21 -39 -35 -15 -23 -16 -49 -11 -233 6 -210
16 -280 52 -356 36 -74 125 -100 183 -51 48 41 65 95 65 215 0 92 -4 117 -32
199 -35 103 -88 206 -123 238 -28 25 -66 34 -95 23z"/>
<path d="M2632 4200 c-37 -23 -72 -75 -72 -108 0 -97 116 -176 295 -201 177
-25 315 39 315 145 0 72 -37 104 -157 137 -195 54 -322 63 -381 27z"/>
<path d="M5240 3972 c-145 -54 -215 -148 -213 -287 3 -218 164 -379 345 -345
139 27 253 128 292 260 47 159 -10 284 -166 363 -45 23 -65 27 -133 26 -48 0
-98 -7 -125 -17z m145 -293 c10 -10 -27 -49 -46 -49 -13 0 -31 40 -25 57 7 16
52 11 71 -8z"/>
<path d="M4179 3757 c-105 -36 -172 -97 -204 -186 -18 -51 -19 -162 -2 -208
66 -179 298 -242 459 -124 87 64 133 163 132 281 -2 151 -35 204 -148 239 -87
27 -154 26 -237 -2z m101 -261 c0 -8 -7 -22 -16 -30 -8 -9 -22 -16 -30 -16
-19 0 -18 25 2 44 19 20 44 21 44 2z"/>
<path d="M1166 3615 c-100 -28 -182 -108 -207 -200 -6 -22 -9 -74 -7 -115 6
-98 38 -170 110 -241 65 -65 128 -101 228 -128 41 -12 95 -33 119 -49 94 -58
158 -201 221 -492 29 -136 63 -274 160 -664 24 -93 55 -191 77 -235 82 -172
270 -294 533 -346 132 -26 479 -38 720 -25 118 7 382 13 585 15 381 2 420 6
640 55 147 32 342 115 454 193 165 115 309 303 371 483 26 73 50 220 50 299 0
239 -119 490 -295 622 -181 136 -455 176 -681 99 -101 -34 -135 -54 -279 -161
-256 -191 -390 -245 -603 -245 -148 0 -411 100 -622 236 -178 114 -295 208
-551 443 -162 149 -271 229 -394 290 -95 48 -289 125 -392 156 -71 22 -180 27
-237 10z m290 -356 c117 -38 231 -93 300 -145 27 -21 117 -102 200 -181 197
-187 247 -227 504 -398 296 -197 416 -255 670 -323 127 -33 144 -36 290 -36
129 0 169 4 235 22 105 29 257 103 375 184 52 35 132 90 177 121 108 74 211
107 331 107 108 0 175 -28 243 -100 193 -205 163 -567 -65 -796 -60 -59 -91
-80 -196 -132 -79 -39 -161 -71 -221 -86 -175 -45 -507 -63 -1255 -71 -425 -4
-536 -2 -603 9 -156 28 -261 98 -316 214 -26 54 -77 243 -90 332 -13 87 -87
416 -121 539 -125 447 -247 610 -509 682 -116 31 -167 62 -150 90 11 17 87 5
201 -32z"/>
<path d="M2268 2369 c-30 -17 -40 -46 -27 -71 40 -74 129 -58 129 24 0 45 -59
73 -102 47z"/>
<path d="M2861 2044 c-24 -31 -25 -35 -10 -67 28 -62 97 -57 119 8 10 30 9 40
-4 60 -23 35 -77 35 -105 -1z"/>
<path d="M3483 3350 c-30 -12 -81 -85 -144 -206 -49 -92 -52 -104 -41 -128 17
-38 58 -51 99 -32 65 31 183 223 183 299 0 61 -41 89 -97 67z"/>
<path d="M492 2040 c-30 -12 -46 -54 -31 -82 28 -52 148 -172 199 -198 81 -41
160 -11 160 62 0 43 -68 107 -181 169 -98 55 -116 61 -147 49z"/>
<path d="M5348 1121 c-50 -10 -64 -24 -89 -89 -42 -114 -1 -202 94 -202 47 0
76 20 101 68 21 42 28 116 16 162 -9 33 -18 44 -45 56 -19 8 -36 13 -37 13 -2
-1 -20 -5 -40 -8z"/>
</g>
</svg>
