<?xml version="1.0" standalone="no"?>
<!DOCTYPE svg PUBLIC "-//W3C//DTD SVG 20010904//EN"
 "http://www.w3.org/TR/2001/REC-SVG-20010904/DTD/svg10.dtd">
<svg version="1.0" xmlns="http://www.w3.org/2000/svg"
 width="600.000000pt" height="600.000000pt" viewBox="0 0 600.000000 600.000000"
 preserveAspectRatio="xMidYMid meet">
<metadata>
Created by potrace 1.15, written by Peter Selinger 2001-2017
</metadata>
<g transform="translate(0.000000,600.000000) scale(0.100000,-0.100000)"
fill="#16364b" stroke="none">
<path d="M1564 5778 c-31 -29 -37 -44 -54 -125 -64 -318 -76 -559 -32 -658 43
-94 104 -135 200 -135 160 0 297 161 466 548 57 130 61 150 40 201 -38 96
-158 120 -226 45 -9 -11 -39 -75 -66 -144 -52 -133 -110 -252 -137 -285 -15
-19 -16 -13 -10 89 3 59 12 158 20 219 20 145 19 176 -5 214 -24 40 -67 63
-120 63 -32 0 -48 -7 -76 -32z"/>
<path d="M3222 5520 c-62 -38 -77 -125 -32 -182 10 -14 74 -65 142 -113 117
-85 228 -180 228 -195 0 -4 -18 -10 -39 -14 -27 -4 -48 -16 -70 -41 -27 -31
-31 -44 -31 -90 0 -47 4 -59 32 -91 43 -48 139 -94 198 -94 73 0 119 18 166
65 58 58 81 134 66 216 -30 160 -149 292 -445 493 -110 74 -153 84 -215 46z"/>
<path d="M880 5475 c-123 -35 -250 -141 -304 -254 -26 -55 -32 -81 -34 -153
-7 -155 50 -265 183 -355 67 -45 136 -36 188 26 58 70 45 149 -40 226 -49 45
-54 54 -55 91 -1 63 45 134 100 155 14 5 55 7 91 4 59 -6 70 -4 100 17 100 68
105 184 10 234 -45 23 -171 28 -239 9z"/>
<path d="M2951 5163 c-56 -20 -122 -87 -158 -161 -22 -45 -29 -74 -31 -137 -4
-99 20 -154 86 -200 39 -27 52 -30 115 -30 54 0 91 7 149 28 123 46 144 83
136 246 -3 72 -9 99 -34 147 -53 106 -154 147 -263 107z"/>
<path d="M2269 4957 c-41 -27 -59 -60 -59 -108 0 -20 -6 -41 -13 -47 -7 -6
-64 -30 -127 -53 -132 -48 -166 -67 -191 -106 -24 -35 -25 -105 -2 -143 20
-34 81 -70 118 -70 47 0 332 99 382 133 57 38 88 83 109 154 18 63 11 146 -17
192 -42 70 -135 92 -200 48z"/>
<path d="M4759 4827 c-57 -38 -61 -54 -55 -222 8 -230 39 -333 123 -419 116
-119 309 -118 400 3 100 130 73 309 -68 456 -98 102 -266 205 -335 205 -17 0
-46 -10 -65 -23z"/>
<path d="M2785 4141 c-145 -36 -222 -164 -181 -302 62 -211 401 -257 716 -99
64 32 83 51 106 105 30 72 2 151 -65 184 -49 25 -208 76 -311 101 -85 20 -207
25 -265 11z"/>
<path d="M1040 4050 c-32 -14 -78 -58 -96 -92 -22 -43 -18 -129 9 -168 44 -66
66 -74 202 -80 68 -3 126 -8 130 -12 12 -12 -14 -46 -97 -123 -106 -98 -171
-145 -342 -243 -75 -44 -147 -88 -158 -99 -76 -69 -63 -208 26 -274 21 -16 48
-24 86 -27 56 -4 75 5 191 81 25 17 26 17 50 -20 13 -21 39 -47 57 -59 l32
-22 -23 -19 c-53 -42 -72 -125 -42 -183 8 -16 49 -54 91 -85 83 -62 126 -120
144 -196 14 -58 9 -105 -21 -183 -36 -97 -145 -196 -215 -196 -16 0 -43 15
-71 40 -25 22 -60 42 -78 46 -100 18 -188 -82 -156 -178 13 -40 80 -108 135
-137 142 -74 333 -37 473 92 218 203 273 531 128 772 -49 81 -96 129 -183 185
l-73 47 103 70 c122 83 181 114 282 148 71 24 78 24 106 10 37 -19 113 -19
150 0 16 8 39 29 52 47 20 29 23 45 23 120 0 72 -3 91 -21 115 -51 68 -134 92
-207 59 -29 -13 -165 -46 -189 -46 -5 0 6 21 25 48 65 88 90 150 95 232 4 63
1 85 -18 128 -37 85 -120 150 -240 187 -67 20 -322 31 -360 15z"/>
<path d="M4179 3761 c-256 -82 -329 -363 -139 -534 128 -116 321 -100 455 38
86 87 142 233 133 344 -4 48 -10 59 -45 91 -73 69 -282 100 -404 61z m111
-291 c0 -5 -11 -17 -26 -26 -34 -23 -56 -4 -23 20 26 18 49 21 49 6z"/>
<path d="M3394 3402 c-51 -32 -90 -90 -138 -201 -59 -137 -62 -184 -12 -239
l35 -37 79 1 c61 1 91 6 127 24 114 55 188 248 137 362 -27 63 -80 100 -145
105 -39 3 -60 -1 -83 -15z"/>
<path d="M5049 3323 c-103 -51 -207 -155 -238 -238 -71 -188 3 -384 163 -430
69 -20 118 -14 202 26 74 35 145 108 182 187 24 50 27 69 27 157 0 117 -14
156 -89 247 -47 56 -101 88 -150 88 -13 0 -57 -17 -97 -37z"/>
<path d="M2174 2720 c-80 -32 -138 -91 -240 -246 -58 -88 -111 -157 -140 -181
-25 -21 -55 -56 -66 -77 -11 -22 -46 -73 -77 -115 -153 -201 -231 -398 -250
-629 -15 -188 12 -346 81 -472 166 -303 433 -454 803 -454 156 0 216 14 360
84 224 109 418 317 501 535 71 190 165 538 179 670 9 82 -10 207 -44 280 -86
186 -213 251 -471 244 -131 -5 -107 -22 -179 131 -73 158 -187 243 -331 247
-56 2 -88 -2 -126 -17z m155 -483 c28 -84 77 -154 144 -205 76 -59 100 -64
255 -53 72 5 140 7 151 4 20 -5 34 -37 45 -104 16 -93 -43 -316 -141 -535
-103 -230 -237 -365 -402 -404 -63 -15 -202 -8 -271 13 -138 44 -276 164 -315
276 -25 72 -20 221 10 325 42 145 93 233 207 353 37 40 68 76 68 81 0 5 18 28
41 53 49 53 127 168 153 226 10 23 22 40 27 38 4 -3 17 -33 28 -68z"/>
<path d="M4075 2373 c-56 -15 -109 -70 -126 -130 -11 -40 -9 -68 7 -149 l6
-32 -52 14 c-101 26 -182 -14 -236 -116 -38 -72 -13 -310 56 -533 27 -86 37
-105 78 -146 88 -88 198 -94 282 -16 28 26 46 34 93 38 175 17 258 127 243
323 -7 96 -82 562 -98 614 -25 79 -92 130 -176 135 -32 2 -66 1 -77 -2z"/>
</g>
</svg>
