<?xml version="1.0" standalone="no"?>
<!DOCTYPE svg PUBLIC "-//W3C//DTD SVG 20010904//EN"
 "http://www.w3.org/TR/2001/REC-SVG-20010904/DTD/svg10.dtd">
<svg version="1.0" xmlns="http://www.w3.org/2000/svg"
 width="600.000000pt" height="600.000000pt" viewBox="0 0 600.000000 600.000000"
 preserveAspectRatio="xMidYMid meet">
<metadata>
Created by potrace 1.15, written by Peter Selinger 2001-2017
</metadata>
<g transform="translate(0.000000,600.000000) scale(0.100000,-0.100000)"
fill="#16364b" stroke="none">
<path d="M1548 5768 c-29 -10 -86 -91 -191 -269 -90 -153 -110 -220 -84 -280
25 -59 50 -74 126 -74 63 0 73 3 150 50 128 77 364 257 379 289 22 48 15 85
-22 122 -47 47 -96 47 -157 1 -24 -18 -62 -46 -84 -63 l-39 -29 23 40 c58 97
60 105 36 161 -10 23 -26 39 -49 49 -40 17 -50 17 -88 3z"/>
<path d="M2343 5416 l-28 -24 -6 -224 c-6 -245 -15 -297 -74 -424 -44 -97 -90
-144 -188 -194 -96 -50 -116 -71 -117 -123 0 -28 8 -46 33 -72 46 -51 89 -56
169 -18 191 90 305 254 370 533 28 122 38 462 14 508 -32 62 -122 82 -173 38z"/>
<path d="M3511 5332 c-46 -23 -84 -93 -78 -144 13 -96 95 -212 186 -261 71
-39 125 -44 181 -15 119 62 111 206 -20 340 -47 48 -65 59 -126 77 -86 25 -99
26 -143 3z"/>
<path d="M3007 5139 c-58 -14 -91 -34 -140 -89 -114 -126 -99 -295 31 -352 91
-40 242 -7 296 65 18 25 21 42 21 140 0 88 -4 119 -18 144 -41 77 -111 110
-190 92z"/>
<path d="M4775 4785 c-16 -9 -41 -31 -54 -51 -24 -34 -25 -43 -24 -177 2 -201
40 -336 124 -432 149 -169 403 -91 426 130 17 161 -158 431 -339 526 -44 23
-92 24 -133 4z m222 -478 c-3 -7 -12 5 -21 25 -23 53 -19 71 5 25 11 -21 18
-44 16 -50z"/>
<path d="M2740 4230 c-182 -32 -294 -167 -260 -312 18 -73 101 -156 181 -181
105 -32 229 -13 333 54 61 38 173 144 193 182 30 59 11 146 -39 179 -34 22
-233 76 -303 81 -33 3 -80 2 -105 -3z"/>
<path d="M1073 4104 c-21 -8 -39 -14 -40 -14 -1 0 -11 -15 -22 -34 -29 -47
-28 -122 2 -167 27 -41 57 -56 134 -70 85 -15 155 -39 150 -52 -11 -33 -172
-95 -317 -122 -46 -8 -95 -22 -107 -31 -41 -27 -65 -74 -60 -121 6 -58 30 -91
85 -115 46 -21 48 -21 132 -3 110 22 276 77 357 117 81 39 160 110 184 163 12
26 19 64 19 108 0 149 -103 253 -316 316 -117 35 -158 40 -201 25z"/>
<path d="M4229 3760 c-105 -18 -202 -87 -254 -181 -27 -48 -30 -63 -30 -139 0
-98 19 -144 85 -210 65 -65 113 -85 205 -85 68 0 89 4 138 28 123 61 203 179
232 342 15 88 15 90 -7 134 -29 57 -81 84 -203 106 -95 16 -98 16 -166 5z m51
-297 c0 -14 -34 -43 -52 -43 -22 0 -23 8 -1 32 15 17 53 25 53 11z"/>
<path d="M1692 3712 c-29 -11 -64 -30 -77 -42 -39 -37 -65 -119 -65 -209 0
-67 4 -86 31 -139 84 -170 289 -213 414 -87 199 198 -38 571 -303 477z"/>
<path d="M5180 3617 c-161 -55 -269 -161 -300 -295 -32 -137 47 -298 172 -352
43 -18 65 -22 128 -18 130 8 242 76 298 182 24 45 27 62 27 151 0 89 -3 106
-28 157 -51 103 -154 199 -214 198 -10 0 -47 -11 -83 -23z m21 -350 c-14 -15
-21 -17 -21 -8 0 21 33 56 38 41 3 -7 -5 -22 -17 -33z"/>
<path d="M3425 3387 c-46 -21 -88 -76 -144 -187 -60 -119 -65 -162 -26 -209
41 -48 83 -57 159 -31 79 26 129 72 168 155 36 79 45 148 24 197 -29 69 -116
104 -181 75z"/>
<path d="M2615 3364 c-227 -58 -338 -138 -471 -339 -85 -129 -156 -200 -239
-239 -213 -100 -265 -134 -381 -251 -143 -145 -221 -288 -266 -489 -23 -106
-27 -245 -9 -331 24 -110 107 -274 182 -359 74 -84 359 -300 469 -356 152 -77
320 -91 522 -45 382 86 645 301 838 684 131 258 181 370 191 426 14 75 5 203
-22 307 -27 106 -141 389 -194 482 -25 44 -46 95 -50 123 -17 117 -157 287
-290 352 -62 30 -81 34 -165 37 -52 2 -104 1 -115 -2z m106 -401 c29 -74 45
-104 115 -215 81 -130 181 -336 210 -433 9 -33 18 -92 18 -131 1 -61 -3 -76
-27 -112 -15 -23 -40 -78 -57 -123 -37 -102 -97 -215 -161 -300 -78 -105 -226
-228 -344 -284 -165 -79 -300 -84 -431 -17 -55 28 -171 117 -270 207 -111 101
-137 153 -142 285 -7 178 44 308 172 436 74 73 90 84 185 124 198 83 308 176
440 373 87 130 132 176 191 199 67 25 89 23 101 -9z"/>
<path d="M379 2271 c-36 -36 -38 -75 -9 -181 98 -364 285 -602 484 -617 83 -7
158 31 194 97 36 68 28 155 -26 263 -76 152 -193 266 -392 381 -47 28 -96 58
-109 68 -15 11 -41 18 -68 18 -36 0 -50 -6 -74 -29z m381 -442 c87 -105 103
-160 23 -78 -43 43 -101 139 -84 139 5 0 32 -28 61 -61z"/>
<path d="M4449 1953 c-15 -2 -44 -19 -65 -37 l-39 -33 -35 23 c-71 49 -179 22
-215 -53 -25 -53 -13 -208 31 -398 43 -181 121 -275 229 -275 91 0 159 66 198
193 49 155 89 410 75 466 -21 79 -93 125 -179 114z"/>
</g>
</svg>
