<?xml version="1.0" standalone="no"?>
<!DOCTYPE svg PUBLIC "-//W3C//DTD SVG 20010904//EN"
 "http://www.w3.org/TR/2001/REC-SVG-20010904/DTD/svg10.dtd">
<svg version="1.0" xmlns="http://www.w3.org/2000/svg"
 width="600.000000pt" height="600.000000pt" viewBox="0 0 600.000000 600.000000"
 preserveAspectRatio="xMidYMid meet">
<metadata>
Created by potrace 1.15, written by Peter Selinger 2001-2017
</metadata>
<g transform="translate(0.000000,600.000000) scale(0.100000,-0.100000)"
fill="#16364b" stroke="none">
<path d="M2472 5493 c-41 -20 -61 -48 -107 -148 -76 -168 -85 -273 -29 -356
67 -99 175 -118 417 -74 82 15 151 25 154 22 3 -4 -25 -39 -62 -79 -84 -91
-248 -309 -308 -408 -25 -42 -65 -116 -89 -165 -51 -107 -55 -166 -17 -242 47
-90 93 -97 414 -62 116 13 264 22 380 23 181 1 192 2 228 24 50 32 70 73 65
132 -5 52 -28 90 -71 115 -56 34 -326 45 -534 21 -71 -8 -113 -9 -113 -3 0 17
129 205 192 281 33 39 101 115 151 170 51 54 106 119 124 143 88 123 47 250
-105 325 -95 47 -210 51 -398 13 -74 -15 -137 -25 -140 -23 -2 3 7 29 21 59
46 100 25 185 -55 227 -52 26 -74 27 -118 5z"/>
<path d="M1695 5075 c-81 -22 -243 -109 -336 -179 -104 -79 -259 -228 -288
-276 -26 -44 -27 -90 -1 -140 38 -75 101 -100 258 -100 148 0 294 -33 319 -72
4 -7 21 -53 38 -102 25 -74 37 -95 68 -120 33 -26 48 -31 92 -31 60 0 95 20
133 75 29 44 28 98 -3 194 -57 174 -170 280 -345 325 -74 20 -74 19 -60 36 22
26 131 82 195 100 105 30 155 84 155 167 0 54 -27 100 -73 121 -41 20 -83 20
-152 2z"/>
<path d="M4185 4799 c-152 -21 -403 -150 -438 -225 -50 -104 22 -216 139 -216
35 0 59 9 102 35 117 71 251 125 275 110 6 -4 7 -35 4 -82 -10 -112 -45 -216
-143 -418 -67 -139 -68 -163 -15 -252 60 -101 89 -111 236 -82 154 29 281 43
380 39 l90 -3 -1 -51 c-2 -60 -46 -213 -115 -402 -27 -74 -49 -145 -49 -158 0
-39 37 -102 70 -119 66 -34 160 -3 195 65 71 138 168 413 186 532 32 204 -19
319 -171 391 -57 27 -77 31 -176 35 -62 3 -156 -1 -209 -7 -54 -6 -99 -10
-101 -8 -2 1 13 44 32 94 53 143 65 199 71 329 6 140 -7 203 -60 280 -26 37
-49 57 -98 81 -74 36 -120 44 -204 32z"/>
<path d="M2020 3959 c-116 -41 -254 -74 -385 -94 -135 -20 -159 -29 -192 -72
-36 -47 -41 -109 -14 -167 45 -92 107 -104 311 -61 218 46 429 121 490 173 85
72 76 183 -20 232 -53 27 -89 25 -190 -11z"/>
<path d="M3740 3694 c-130 -34 -442 -214 -480 -276 -43 -70 -13 -180 60 -220
60 -33 104 -21 233 65 99 66 187 117 201 117 20 0 -184 -497 -211 -513 -29
-17 -64 -64 -75 -98 -25 -85 44 -177 140 -187 84 -8 356 93 538 200 91 53 186
147 204 204 35 106 -39 194 -165 194 -68 0 -123 -26 -148 -69 -18 -31 -63 -68
-72 -59 -3 3 13 52 34 110 73 194 91 298 66 383 -39 136 -162 192 -325 149z"/>
<path d="M2403 3419 c-78 -9 -310 -80 -358 -109 -91 -56 -87 -202 7 -260 43
-27 114 -23 233 14 58 18 123 30 183 33 86 5 92 4 92 -14 0 -35 -28 -128 -59
-193 -38 -79 -40 -133 -8 -180 33 -49 70 -72 124 -77 60 -5 128 26 160 75 34
51 83 177 100 256 61 290 -151 494 -474 455z"/>
<path d="M1235 3141 c-97 -24 -189 -91 -224 -165 -53 -109 1 -232 116 -261
l48 -12 0 -379 c0 -326 2 -389 17 -452 28 -114 57 -156 130 -187 111 -46 220
13 251 135 12 45 18 54 53 69 49 22 43 14 168 214 111 178 202 307 217 307 16
0 20 -45 22 -211 2 -176 -4 -215 -55 -384 -35 -114 -38 -170 -11 -215 57 -98
217 -95 274 5 29 50 79 260 89 377 12 145 -10 464 -39 559 -38 122 -101 189
-197 210 -107 24 -224 -29 -340 -154 -36 -39 -92 -112 -126 -161 -59 -89 -86
-118 -74 -79 3 11 7 120 8 244 3 238 -5 297 -52 389 -60 118 -167 177 -275
151z"/>
<path d="M4814 2866 c-86 -38 -142 -146 -129 -250 8 -64 16 -59 -144 -115
-312 -110 -434 -268 -435 -566 0 -88 4 -123 22 -175 28 -81 68 -152 121 -211
l41 -47 -29 -11 c-15 -7 -45 -30 -67 -52 -47 -49 -60 -49 -224 -7 -107 27
-143 32 -250 33 -131 0 -203 -16 -304 -67 -102 -51 -231 -179 -340 -335 -27
-40 -56 -73 -63 -73 -7 0 -39 -27 -71 -60 -76 -77 -117 -95 -170 -77 -116 40
-253 219 -327 429 -31 90 -83 128 -174 128 -110 0 -193 -81 -194 -189 -1 -55
28 -141 93 -276 97 -203 253 -371 419 -452 87 -43 100 -46 191 -51 158 -7 270
36 383 151 29 28 66 59 82 68 17 9 51 47 78 85 178 258 267 334 391 334 31 0
112 -14 179 -31 148 -38 272 -43 355 -15 155 53 284 204 269 316 l-5 38 47 7
c228 33 282 270 93 408 -84 62 -120 168 -68 203 14 8 77 36 142 60 162 62 246
108 312 173 106 105 145 235 118 389 -22 125 -73 197 -171 238 -43 18 -130 18
-171 0z"/>
<path d="M3190 2410 c-58 -10 -188 -39 -290 -63 -102 -25 -201 -48 -220 -52
-165 -32 -189 -250 -39 -360 57 -43 98 -42 285 9 207 55 304 75 406 83 l78 6
-7 -34 c-30 -135 33 -246 146 -257 133 -12 227 119 238 335 5 83 3 96 -21 150
-35 76 -94 135 -170 169 -54 25 -74 29 -181 31 -84 2 -152 -3 -225 -17z"/>
</g>
</svg>
