<?xml version="1.0" standalone="no"?>
<!DOCTYPE svg PUBLIC "-//W3C//DTD SVG 20010904//EN"
 "http://www.w3.org/TR/2001/REC-SVG-20010904/DTD/svg10.dtd">
<svg version="1.0" xmlns="http://www.w3.org/2000/svg"
 width="600.000000pt" height="600.000000pt" viewBox="0 0 600.000000 600.000000"
 preserveAspectRatio="xMidYMid meet">
<metadata>
Created by potrace 1.15, written by Peter Selinger 2001-2017
</metadata>
<g transform="translate(0.000000,600.000000) scale(0.100000,-0.100000)"
fill="#16364b" stroke="none">
<path d="M2783 5560 c-69 -42 -80 -116 -34 -232 44 -110 61 -209 61 -359 0
-121 2 -136 22 -165 58 -85 185 -83 245 5 42 62 39 249 -8 463 -20 93 -60 208
-85 246 -39 60 -138 81 -201 42z"/>
<path d="M1968 5443 c-61 -30 -83 -67 -83 -143 0 -58 4 -71 36 -120 20 -30 67
-92 105 -138 38 -45 104 -142 146 -215 128 -219 139 -235 176 -253 105 -50
231 45 220 165 -7 74 -167 336 -310 509 -44 54 -92 114 -107 134 -48 67 -119
91 -183 61z"/>
<path d="M4375 4771 c-81 -50 -101 -106 -80 -225 27 -151 81 -285 166 -412 27
-40 60 -81 75 -93 96 -76 229 -19 229 98 0 37 -10 63 -52 136 -58 100 -105
227 -128 348 -17 89 -42 138 -80 155 -38 18 -96 14 -130 -7z"/>
<path d="M1434 4756 c-91 -41 -128 -164 -71 -237 35 -46 66 -54 227 -61 176
-7 239 -21 355 -78 103 -50 116 -53 164 -40 48 13 97 66 107 115 9 49 -19 119
-59 149 -76 57 -220 114 -357 141 -114 23 -327 29 -366 11z"/>
<path d="M3180 4521 c-21 -11 -82 -77 -155 -167 -144 -178 -263 -301 -367
-377 -63 -46 -79 -63 -87 -95 -37 -138 124 -233 254 -151 78 49 183 139 270
230 95 99 271 326 292 376 38 92 -41 203 -144 203 -16 0 -44 -8 -63 -19z"/>
<path d="M1720 4278 c-92 -63 -91 -191 2 -261 38 -28 220 -56 370 -57 135 0
300 25 356 54 101 52 99 195 -4 253 -47 27 -93 29 -194 7 -85 -18 -230 -14
-340 11 -96 21 -151 19 -190 -7z"/>
<path d="M3870 4173 c-44 -14 -67 -34 -125 -108 -113 -143 -273 -283 -432
-379 -71 -42 -209 -107 -268 -126 -132 -41 -166 -73 -172 -154 -7 -87 57 -156
144 -156 82 0 306 96 452 195 133 89 225 168 386 329 190 191 210 229 164 322
-27 57 -98 94 -149 77z"/>
<path d="M2255 3763 c-92 -21 -136 -26 -275 -27 -91 0 -199 3 -240 8 -70 7
-77 6 -110 -16 -100 -68 -91 -217 17 -269 43 -21 66 -24 211 -27 173 -5 319 7
487 39 106 20 136 36 173 89 58 86 -5 212 -113 224 -23 3 -86 -6 -150 -21z"/>
<path d="M5075 3781 c-74 -18 -131 -67 -164 -141 -25 -55 -26 -116 -5 -207 23
-99 14 -274 -19 -368 -62 -178 -189 -358 -341 -484 -144 -119 -174 -258 -76
-352 74 -70 220 -92 309 -45 94 49 231 189 353 363 131 185 188 298 230 457
42 160 33 474 -18 630 -36 108 -156 174 -269 147z"/>
<path d="M1953 3131 c-88 -41 -125 -162 -74 -245 51 -83 229 -156 380 -156
115 0 296 26 333 48 97 57 90 209 -12 264 -30 15 -57 18 -185 18 -162 -1 -184
3 -289 59 -67 36 -95 38 -153 12z"/>
<path d="M4421 3124 c-19 -8 -55 -34 -80 -57 -127 -119 -311 -232 -451 -277
-101 -32 -297 -72 -445 -90 -118 -15 -149 -25 -179 -61 -57 -67 -52 -160 11
-220 34 -34 35 -34 121 -33 105 2 409 46 535 78 240 61 425 167 620 355 89 86
105 123 86 193 -13 51 -65 103 -117 118 -48 13 -60 12 -101 -6z"/>
<path d="M1417 2920 c-87 -48 -121 -162 -120 -415 0 -232 29 -376 113 -551 71
-147 203 -325 269 -362 79 -44 198 -17 246 57 59 91 52 183 -20 255 -96 95
-150 194 -185 339 -27 112 -36 299 -20 421 l13 97 -29 57 c-40 77 -94 115
-171 119 -44 2 -67 -2 -96 -17z"/>
<path d="M2178 2350 c-94 -28 -138 -135 -89 -217 21 -33 157 -119 329 -208 82
-42 99 -47 141 -43 63 6 105 37 126 93 37 95 -1 153 -146 225 -53 27 -131 69
-173 94 -42 25 -93 50 -114 55 -42 12 -38 12 -74 1z"/>
<path d="M4195 2084 c-166 -71 -361 -146 -453 -173 -222 -66 -616 -140 -745
-141 -81 0 -158 -45 -193 -112 -18 -35 -18 -116 0 -159 17 -41 71 -94 109
-108 53 -20 152 -11 527 50 379 61 457 82 678 183 68 31 163 70 210 86 113 40
159 71 183 123 38 84 12 180 -64 241 -35 28 -47 31 -115 34 -64 2 -87 -2 -137
-24z"/>
<path d="M4942 1747 c-44 -9 -48 -12 -192 -161 -122 -127 -245 -198 -471 -271
-180 -58 -363 -102 -503 -119 -71 -9 -141 -23 -156 -31 -125 -65 -118 -269 13
-337 58 -30 153 -27 342 11 488 100 822 259 1089 519 88 87 106 119 106 194 0
131 -104 221 -228 195z"/>
<path d="M2005 1376 c-72 -32 -110 -124 -85 -201 32 -96 253 -239 462 -299
112 -32 245 -50 325 -43 70 5 120 34 154 91 59 97 -22 215 -149 216 -160 0
-360 74 -511 187 -83 62 -138 76 -196 49z"/>
<path d="M2015 886 c-134 -59 -155 -260 -36 -339 162 -108 473 -208 693 -226
178 -13 390 15 560 75 166 58 205 260 68 350 -59 39 -105 40 -275 6 -82 -17
-184 -33 -226 -37 -153 -13 -331 28 -538 125 -136 64 -185 73 -246 46z"/>
</g>
</svg>
