<?xml version="1.0" standalone="no"?>
<!DOCTYPE svg PUBLIC "-//W3C//DTD SVG 20010904//EN"
 "http://www.w3.org/TR/2001/REC-SVG-20010904/DTD/svg10.dtd">
<svg version="1.0" xmlns="http://www.w3.org/2000/svg"
 width="600.000000pt" height="600.000000pt" viewBox="0 0 600.000000 600.000000"
 preserveAspectRatio="xMidYMid meet">
<metadata>
Created by potrace 1.15, written by Peter Selinger 2001-2017
</metadata>
<g transform="translate(0.000000,600.000000) scale(0.100000,-0.100000)"
fill="#16364b" stroke="none">
<path d="M2366 5470 c-43 -14 -71 -45 -110 -125 -64 -130 -80 -232 -51 -314
51 -147 173 -181 438 -125 67 14 137 28 156 31 l35 6 -67 -84 c-134 -168 -239
-337 -374 -600 -55 -108 -58 -118 -55 -179 3 -84 32 -131 96 -155 43 -17 50
-16 163 4 247 44 333 53 570 60 240 6 242 6 268 31 38 36 55 73 55 122 0 60
-30 105 -87 130 -44 19 -60 20 -247 15 -111 -3 -246 -13 -300 -21 -55 -9 -101
-14 -104 -12 -4 5 38 84 97 185 50 85 108 167 212 301 108 140 137 190 145
253 12 85 -48 177 -148 226 -53 27 -72 31 -142 31 -45 0 -124 -10 -176 -21
-52 -11 -122 -26 -155 -33 -33 -7 -63 -11 -67 -9 -5 2 3 25 17 51 32 60 33
118 3 162 -43 63 -109 90 -172 70z"/>
<path d="M1685 5011 c-121 -35 -275 -130 -436 -268 -139 -119 -159 -162 -120
-249 33 -73 67 -90 241 -119 273 -45 324 -68 387 -168 47 -74 93 -102 155 -94
79 11 128 68 128 153 0 40 -7 62 -36 110 -71 119 -169 194 -303 235 -44 13
-81 28 -81 32 0 12 120 66 160 72 135 21 190 70 190 168 0 122 -120 176 -285
128z"/>
<path d="M4118 4849 c-158 -25 -383 -137 -429 -213 -41 -67 -12 -161 61 -199
50 -26 99 -17 175 33 82 53 169 89 218 90 l37 0 0 -49 c0 -66 -38 -193 -116
-387 -35 -89 -64 -171 -64 -181 0 -41 26 -96 85 -180 8 -12 34 -27 57 -33 37
-10 54 -8 162 24 165 49 304 76 391 76 97 0 103 -7 86 -108 -13 -76 -60 -268
-107 -430 -26 -92 -23 -142 14 -191 25 -34 87 -56 135 -47 67 13 96 55 149
216 94 288 123 441 107 575 -16 129 -74 209 -184 251 -72 27 -262 25 -409 -4
-60 -12 -111 -21 -112 -19 -1 1 16 55 38 120 89 267 92 421 9 539 -62 89 -185
137 -303 117z"/>
<path d="M2020 3924 c-84 -29 -230 -60 -444 -92 -58 -9 -75 -16 -103 -45 -38
-37 -51 -88 -39 -152 9 -47 65 -102 112 -111 100 -19 597 91 701 155 96 59 84
210 -21 260 -56 28 -93 25 -206 -15z"/>
<path d="M3760 3693 c-109 -18 -524 -222 -570 -280 -62 -79 -35 -184 57 -225
62 -27 102 -18 215 49 116 68 247 135 258 131 5 -2 0 -23 -10 -48 -35 -82
-163 -414 -191 -495 -33 -96 -35 -126 -9 -183 15 -34 29 -47 66 -64 43 -18 54
-19 114 -9 159 26 371 116 504 215 83 61 175 158 199 209 59 123 -62 255 -200
218 -28 -8 -62 -33 -119 -89 -69 -69 -169 -141 -178 -131 -2 2 25 76 59 164
69 175 100 298 90 360 -19 131 -135 203 -285 178z"/>
<path d="M2275 3355 c-126 -23 -205 -44 -231 -61 -61 -40 -85 -165 -44 -231
38 -62 93 -75 217 -49 122 26 282 41 295 28 9 -9 2 -40 -26 -126 -41 -125 -41
-156 -4 -209 24 -34 87 -67 128 -67 47 0 103 33 127 76 32 59 80 210 93 297
26 170 -47 299 -193 342 -63 19 -262 18 -362 0z"/>
<path d="M1167 3073 c-89 -30 -159 -136 -141 -216 16 -78 77 -146 140 -159 29
-5 37 -116 25 -343 -13 -243 5 -399 63 -563 40 -112 111 -151 221 -121 55 15
120 82 135 139 11 41 10 61 -6 124 -6 25 -4 26 35 26 67 0 117 32 159 102 56
92 144 208 196 258 71 69 77 49 51 -182 -8 -73 -29 -195 -47 -270 -37 -159
-33 -193 28 -252 68 -66 161 -73 217 -18 24 24 35 51 58 148 41 173 73 410 73
549 1 114 -1 123 -31 187 -60 127 -166 201 -290 200 -78 -1 -142 -29 -220 -97
-47 -41 -169 -179 -218 -248 l-20 -27 0 177 c-1 335 -65 510 -210 579 -60 28
-145 31 -218 7z"/>
<path d="M4850 2984 c-50 -22 -99 -71 -126 -129 -19 -40 -24 -67 -24 -132 l0
-82 -142 -69 c-222 -108 -322 -213 -368 -384 -31 -114 -25 -271 13 -370 31
-82 83 -164 143 -228 l45 -48 -43 -20 c-24 -11 -59 -36 -77 -56 -42 -44 -66
-45 -207 -15 -130 29 -302 31 -394 5 -167 -46 -333 -160 -466 -319 -42 -50
-89 -98 -103 -106 -14 -7 -58 -44 -96 -81 -110 -106 -174 -121 -282 -69 -60
29 -173 144 -231 236 -24 37 -58 91 -75 118 -68 107 -220 138 -305 61 -67 -60
-72 -140 -15 -259 195 -405 454 -604 762 -584 137 8 266 65 399 176 32 27 68
51 79 55 39 12 72 46 133 135 72 105 159 194 220 223 63 31 136 33 286 9 72
-12 164 -21 205 -21 294 1 502 202 405 393 l-23 47 37 10 c59 16 115 63 144
121 46 94 29 183 -53 272 -52 57 -70 117 -48 168 12 30 27 42 79 67 237 112
277 134 329 180 59 53 107 134 129 215 16 61 8 252 -15 325 -19 63 -74 128
-130 153 -49 23 -137 24 -185 3z"/>
<path d="M3270 2344 c-47 -8 -168 -34 -270 -58 -102 -25 -212 -50 -245 -56
-49 -10 -68 -20 -101 -54 -72 -72 -80 -160 -23 -251 32 -50 90 -84 144 -85 17
0 111 20 211 44 190 46 335 73 419 78 l49 3 7 -46 c21 -142 145 -210 269 -146
86 43 130 139 130 279 0 116 -56 220 -144 265 -86 44 -273 56 -446 27z"/>
</g>
</svg>
