<?xml version="1.0" standalone="no"?>
<!DOCTYPE svg PUBLIC "-//W3C//DTD SVG 20010904//EN"
 "http://www.w3.org/TR/2001/REC-SVG-20010904/DTD/svg10.dtd">
<svg version="1.0" xmlns="http://www.w3.org/2000/svg"
 width="600.000000pt" height="600.000000pt" viewBox="0 0 600.000000 600.000000"
 preserveAspectRatio="xMidYMid meet">
<metadata>
Created by potrace 1.15, written by Peter Selinger 2001-2017
</metadata>
<g transform="translate(0.000000,600.000000) scale(0.100000,-0.100000)"
fill="#16364b" stroke="none">
<path d="M2770 5569 c-39 -16 -60 -40 -95 -109 -76 -151 -97 -308 -54 -397 28
-59 87 -106 158 -128 49 -14 84 -17 205 -13 l146 4 -199 -195 c-201 -199 -337
-363 -361 -436 -7 -20 -9 -52 -6 -70 7 -38 74 -128 107 -146 12 -6 112 -24
223 -39 258 -36 365 -55 502 -87 124 -29 147 -27 198 17 75 67 63 200 -23 245
-30 15 -294 63 -471 85 -145 19 -142 16 -80 86 29 32 148 154 266 269 194 192
214 215 229 264 36 113 -3 202 -115 258 -89 45 -173 56 -352 48 -112 -6 -148
-4 -148 5 0 6 14 43 31 82 42 96 45 126 21 181 -31 70 -112 104 -182 76z"/>
<path d="M1640 5242 c-14 -2 -53 -17 -87 -32 -207 -94 -428 -327 -543 -574
-52 -109 -60 -166 -32 -229 41 -91 102 -102 296 -49 129 35 288 53 300 33 4
-6 -6 -64 -23 -128 -43 -172 -46 -206 -27 -257 9 -24 28 -53 41 -66 14 -13 25
-27 25 -31 0 -4 -34 -15 -75 -24 -58 -13 -84 -25 -109 -49 -93 -87 -55 -235
69 -276 69 -23 256 28 462 125 175 83 228 118 252 168 27 55 26 92 -2 141 -50
90 -128 101 -260 38 -48 -23 -89 -42 -92 -42 -7 0 3 50 37 185 40 157 43 258
9 332 -28 63 -94 126 -164 158 -62 29 -182 49 -249 43 -26 -3 -48 -1 -48 3 0
34 173 179 275 229 59 29 74 42 93 80 39 75 16 172 -47 204 -34 17 -70 24
-101 18z"/>
<path d="M4340 4625 c-55 -14 -232 -82 -323 -125 -108 -51 -129 -169 -43 -249
46 -43 105 -40 227 12 121 52 208 81 216 73 15 -15 -80 -229 -198 -443 -71
-128 -87 -179 -75 -228 7 -28 106 -134 141 -153 12 -6 108 -15 215 -21 219
-13 295 -20 328 -32 l22 -9 -24 -62 c-13 -35 -38 -94 -56 -133 -101 -221 -150
-349 -150 -389 0 -95 102 -175 194 -152 78 19 117 92 266 506 82 224 81 337
-3 435 -59 71 -188 109 -418 124 -77 5 -142 11 -145 13 -2 2 30 69 71 149 166
325 188 517 71 633 -23 24 -59 47 -82 54 -53 15 -164 14 -234 -3z"/>
<path d="M3759 3660 c-107 -19 -238 -117 -274 -205 -56 -132 61 -257 196 -211
24 8 53 27 64 41 43 57 74 85 94 85 44 0 19 -127 -50 -261 -39 -75 -41 -77
-107 -105 -92 -39 -206 -118 -233 -160 -39 -64 -26 -146 32 -193 67 -53 152
-49 225 10 52 43 161 93 264 124 117 35 190 73 217 114 50 75 39 168 -27 236
-38 38 -39 43 -30 75 6 19 11 79 11 133 1 91 -1 103 -31 164 -60 122 -196 182
-351 153z"/>
<path d="M2521 3539 c-77 -13 -241 -70 -341 -117 -116 -55 -150 -94 -150 -174
0 -79 66 -148 141 -148 22 0 76 19 142 50 117 55 259 100 318 100 34 0 39 -3
39 -23 0 -40 -29 -126 -96 -283 -35 -84 -64 -161 -64 -173 0 -43 33 -103 73
-132 61 -44 140 -37 188 17 33 37 139 251 168 339 88 267 45 444 -129 524 -44
20 -73 26 -145 27 -49 2 -114 -2 -144 -7z"/>
<path d="M1098 3226 c-37 -13 -98 -45 -137 -70 -55 -37 -75 -57 -95 -98 -30
-60 -31 -76 -11 -144 16 -54 70 -115 118 -133 16 -6 55 -11 88 -11 45 0 59 -3
59 -15 0 -8 -11 -88 -25 -178 -31 -206 -58 -536 -53 -648 5 -101 26 -151 84
-192 52 -36 122 -45 197 -23 94 27 110 48 267 341 109 203 195 329 288 419 45
44 52 47 57 30 4 -10 11 -29 16 -41 37 -95 6 -508 -62 -810 -25 -114 -17 -154
40 -206 52 -47 114 -58 171 -29 l40 19 0 -71 c0 -111 19 -294 40 -377 81 -329
284 -574 492 -596 109 -11 265 61 333 155 17 22 36 41 42 41 7 1 30 16 51 35
28 26 48 59 75 128 48 122 111 228 182 306 110 121 127 120 350 -14 119 -71
191 -96 282 -97 61 0 82 4 137 32 76 37 160 123 177 181 7 22 22 46 35 55 118
77 140 187 78 379 -41 127 -53 209 -33 221 7 5 89 12 183 16 247 10 344 48
435 165 59 78 85 156 85 264 1 124 -7 158 -50 209 -51 60 -105 85 -179 85
-122 -1 -213 -88 -231 -221 l-6 -50 -128 -6 c-440 -23 -576 -128 -588 -457 -5
-143 11 -251 57 -381 23 -63 26 -82 15 -86 -7 -3 -50 18 -96 45 -113 69 -186
99 -281 118 -221 45 -421 -54 -598 -296 -74 -101 -95 -136 -144 -247 -35 -76
-49 -97 -77 -112 -18 -10 -47 -26 -65 -37 -39 -23 -46 -18 -91 66 -54 103 -85
220 -108 412 -17 148 -30 185 -82 228 -61 50 -147 52 -217 5 -19 -14 -35 -23
-35 -22 0 1 7 38 15 82 21 107 81 505 96 635 28 250 -33 510 -143 604 -120
103 -274 81 -428 -61 -64 -59 -201 -228 -230 -283 -23 -43 -22 -6 1 142 30
190 32 363 4 436 -59 159 -216 222 -397 158z"/>
<path d="M3040 2603 c-166 -26 -408 -97 -472 -139 -111 -72 -107 -253 7 -319
73 -42 102 -41 299 14 189 54 294 76 304 66 7 -7 -16 -94 -48 -180 -62 -167
64 -320 228 -275 69 18 115 68 155 168 71 179 96 352 63 445 -37 102 -135 184
-255 211 -64 15 -216 20 -281 9z"/>
</g>
</svg>
