<?xml version="1.0" standalone="no"?>
<!DOCTYPE svg PUBLIC "-//W3C//DTD SVG 20010904//EN"
 "http://www.w3.org/TR/2001/REC-SVG-20010904/DTD/svg10.dtd">
<svg version="1.0" xmlns="http://www.w3.org/2000/svg"
 width="600.000000pt" height="600.000000pt" viewBox="0 0 600.000000 600.000000"
 preserveAspectRatio="xMidYMid meet">
<metadata>
Created by potrace 1.15, written by Peter Selinger 2001-2017
</metadata>
<g transform="translate(0.000000,600.000000) scale(0.100000,-0.100000)"
fill="#16364b" stroke="none">
<path d="M1528 5762 c-57 -35 -208 -434 -208 -549 0 -46 26 -100 60 -125 81
-59 211 -14 369 128 91 82 250 274 257 311 13 70 -39 133 -110 133 -55 -1 -71
-12 -153 -105 -38 -44 -78 -87 -88 -95 -17 -14 -17 -13 -10 10 4 14 20 56 36
95 33 79 36 113 14 155 -29 56 -112 77 -167 42z"/>
<path d="M805 5526 c-111 -35 -187 -101 -237 -205 -28 -59 -32 -76 -32 -156
-1 -77 3 -98 25 -146 51 -109 147 -187 214 -175 58 11 105 74 105 139 -1 41
-15 66 -62 106 -29 25 -38 41 -38 64 0 47 38 115 79 142 58 38 83 40 145 11
30 -14 64 -26 76 -26 34 0 79 28 96 61 52 102 -79 200 -266 198 -36 0 -83 -6
-105 -13z"/>
<path d="M2365 5401 c-11 -5 -29 -19 -40 -31 -18 -20 -20 -37 -21 -219 -1
-221 -13 -294 -66 -393 -39 -73 -83 -112 -198 -173 -49 -26 -95 -57 -103 -69
-52 -80 -7 -186 80 -186 57 0 240 100 321 175 83 77 124 149 159 282 22 87 26
124 30 320 5 198 4 225 -11 249 -29 43 -102 65 -151 45z"/>
<path d="M3466 5339 c-28 -33 -33 -78 -17 -133 5 -17 14 -53 20 -79 27 -117
147 -245 254 -271 73 -17 159 37 173 109 20 110 -106 295 -254 369 -93 47
-140 48 -176 5z"/>
<path d="M2979 5137 c-71 -27 -132 -83 -171 -157 -35 -68 -33 -171 5 -228 59
-90 185 -108 318 -46 76 36 92 60 109 169 18 112 -8 201 -72 246 -39 28 -135
36 -189 16z"/>
<path d="M4759 4777 c-57 -38 -61 -54 -56 -227 5 -175 27 -267 87 -360 118
-184 346 -188 446 -8 25 46 29 63 29 133 0 70 -4 89 -32 146 -39 79 -129 179
-221 247 -129 95 -190 112 -253 69z m244 -406 c22 -37 23 -59 3 -42 -17 14
-39 71 -28 71 4 0 15 -13 25 -29z"/>
<path d="M2695 4216 c-135 -43 -204 -129 -205 -254 0 -103 51 -182 150 -234
37 -19 60 -23 135 -23 77 0 98 4 149 28 127 59 268 181 286 247 24 88 -26 163
-126 194 -191 57 -303 69 -389 42z"/>
<path d="M1069 4081 c-95 -30 -139 -137 -89 -218 26 -44 56 -61 126 -73 115
-21 204 -42 209 -51 18 -28 -239 -147 -398 -185 -99 -23 -137 -59 -137 -129 0
-37 6 -52 36 -84 44 -49 109 -76 162 -67 133 21 357 112 477 194 l60 41 6 -37
c22 -125 30 -154 48 -189 43 -85 158 -153 260 -153 135 0 250 97 268 225 12
90 -45 226 -119 285 -89 70 -208 82 -309 33 l-59 -30 7 36 c29 135 -43 264
-183 328 -56 25 -218 68 -294 76 -25 3 -57 2 -71 -2z"/>
<path d="M4170 3765 c-288 -81 -343 -450 -85 -567 41 -18 68 -22 145 -23 88 0
101 3 162 33 123 60 185 155 207 316 14 98 2 146 -47 186 -67 55 -274 85 -382
55z m110 -275 c0 -15 -48 -43 -60 -35 -8 5 -6 13 6 26 18 20 54 26 54 9z"/>
<path d="M5131 3534 c-117 -31 -211 -107 -257 -207 -24 -53 -26 -68 -22 -146
3 -69 10 -99 31 -143 59 -120 172 -182 290 -160 160 30 269 141 297 305 21
118 -8 193 -111 294 -79 76 -119 86 -228 57z m33 -329 c-4 -8 -11 -15 -16 -15
-6 0 -5 6 2 15 7 8 14 15 16 15 2 0 1 -7 -2 -15z"/>
<path d="M2508 3387 c-143 -54 -242 -174 -334 -408 -76 -192 -106 -228 -259
-309 -250 -131 -446 -367 -546 -657 -84 -243 -57 -541 68 -746 75 -124 228
-259 378 -335 220 -110 534 -103 791 17 227 107 393 279 514 533 92 194 114
344 108 753 -4 263 -6 287 -31 397 -37 158 -124 408 -172 493 -52 95 -144 184
-238 230 -64 32 -87 38 -159 41 -55 3 -95 0 -120 -9z m163 -403 c21 -35 55
-122 105 -271 84 -254 97 -676 28 -942 -40 -154 -100 -267 -192 -359 -181
-182 -400 -225 -619 -121 -76 36 -168 105 -207 155 -104 133 -110 338 -16 521
86 165 192 278 332 352 255 135 345 236 433 491 44 129 85 210 104 210 5 0 19
-16 32 -36z"/>
<path d="M3412 3373 c-41 -20 -87 -84 -146 -200 -52 -106 -59 -157 -26 -204
29 -39 76 -51 140 -34 87 23 138 68 183 163 37 80 47 173 23 221 -33 64 -108
87 -174 54z"/>
<path d="M453 2349 c-17 -11 -39 -36 -48 -57 -10 -20 -25 -45 -33 -55 -29 -33
-19 -103 31 -215 141 -315 337 -523 509 -540 179 -17 297 148 244 343 -30 113
-103 217 -221 314 -100 82 -181 135 -287 186 -102 50 -146 56 -195 24z m273
-349 c98 -68 204 -196 204 -247 0 -27 -2 -27 -38 -9 -40 21 -114 103 -172 192
-68 104 -67 114 6 64z"/>
<path d="M4313 2069 c-23 -11 -49 -31 -58 -45 l-16 -24 -28 21 c-36 27 -107
35 -156 19 -50 -17 -111 -73 -126 -117 -22 -67 29 -374 74 -442 13 -20 32 -57
42 -83 21 -56 75 -122 118 -145 40 -20 123 -21 162 0 109 56 160 190 201 532
9 78 14 157 10 177 -9 48 -41 87 -90 109 -53 24 -82 24 -133 -2z"/>
</g>
</svg>
