<?xml version="1.0" standalone="no"?>
<!DOCTYPE svg PUBLIC "-//W3C//DTD SVG 20010904//EN"
 "http://www.w3.org/TR/2001/REC-SVG-20010904/DTD/svg10.dtd">
<svg version="1.0" xmlns="http://www.w3.org/2000/svg"
 width="600.000000pt" height="600.000000pt" viewBox="0 0 600.000000 600.000000"
 preserveAspectRatio="xMidYMid meet">
<metadata>
Created by potrace 1.15, written by Peter Selinger 2001-2017
</metadata>
<g transform="translate(0.000000,600.000000) scale(0.100000,-0.100000)"
fill="#16364b" stroke="none">
<path d="M3531 5241 c-28 -39 -27 -47 14 -128 41 -83 110 -152 178 -178 43
-16 48 -16 72 -1 48 31 30 88 -65 215 -93 123 -156 152 -199 92z m156 -158
c20 -29 34 -55 31 -58 -8 -8 -65 51 -94 97 -57 90 -3 57 63 -39z"/>
<path d="M3035 5066 c-94 -42 -169 -186 -145 -275 20 -75 84 -92 161 -43 127
81 188 246 114 309 -30 26 -83 30 -130 9z m85 -93 c0 -39 -28 -89 -76 -133
-79 -73 -109 -40 -60 66 41 87 136 134 136 67z"/>
<path d="M4771 4699 c-27 -29 -35 -113 -36 -359 0 -182 2 -209 18 -233 37 -58
107 -54 132 6 18 44 29 283 20 441 -6 106 -10 131 -26 147 -26 26 -83 25 -108
-2z"/>
<path d="M1590 4258 c-53 -19 -126 -95 -140 -148 -27 -99 10 -197 110 -293 45
-44 64 -71 84 -125 45 -117 83 -289 120 -538 55 -369 66 -480 72 -744 8 -372
26 -514 90 -705 95 -285 269 -443 542 -490 46 -8 85 -15 86 -15 0 0 1 -84 1
-188 1 -206 13 -289 66 -443 16 -48 29 -91 29 -98 0 -7 -26 -11 -74 -11 -122
0 -176 -32 -176 -105 0 -77 78 -114 200 -94 104 17 174 65 199 138 17 51 14
78 -20 171 -56 159 -70 233 -76 411 -3 92 -3 177 0 190 l6 24 263 0 c145 0
358 4 474 8 l210 9 0 -124 c0 -171 30 -290 123 -492 23 -49 41 -94 41 -101 0
-8 -27 -15 -77 -19 -42 -4 -91 -13 -108 -20 -68 -29 -96 -107 -55 -158 60 -77
258 -50 352 49 34 35 58 92 58 136 0 23 -25 85 -71 178 -107 216 -140 376
-106 509 l12 45 74 7 c88 9 462 79 576 108 122 31 198 74 291 165 124 122 193
259 213 425 36 287 -128 609 -357 699 -77 31 -182 28 -307 -6 -94 -26 -112
-28 -290 -27 -174 1 -202 3 -337 33 -185 39 -288 75 -454 156 -331 161 -486
313 -829 810 -155 225 -266 363 -397 491 -158 156 -207 186 -313 190 -38 2
-86 -2 -105 -8z m158 -163 c20 -9 64 -42 97 -75 33 -32 93 -90 133 -127 88
-81 196 -222 364 -478 204 -308 364 -492 537 -615 431 -309 993 -442 1449
-344 132 28 170 29 239 9 78 -23 135 -80 188 -188 124 -251 89 -497 -94 -669
-93 -88 -146 -113 -318 -153 -363 -84 -725 -110 -1428 -102 -468 5 -496 9
-611 78 -144 87 -243 275 -290 554 -10 60 -18 211 -24 460 -9 363 -17 458 -60
695 -6 30 -22 127 -35 215 -47 300 -101 447 -204 558 -66 71 -81 95 -81 131 0
59 63 82 138 51z"/>
<path d="M2432 2564 c-30 -21 -28 -59 4 -89 33 -30 57 -32 84 -5 41 41 13 110
-45 110 -11 0 -31 -7 -43 -16z"/>
<path d="M2880 2230 c-11 -11 -20 -26 -20 -34 0 -26 50 -76 76 -76 54 0 85 78
46 113 -25 23 -78 21 -102 -3z"/>
<path d="M2664 4220 c-61 -24 -84 -111 -41 -154 27 -27 158 -79 266 -107 156
-40 236 -16 236 70 0 28 -7 47 -20 60 -20 20 -369 142 -402 140 -10 0 -28 -4
-39 -9z"/>
<path d="M5247 3989 c-97 -23 -185 -103 -212 -192 -73 -246 113 -499 336 -457
155 30 286 164 304 313 14 111 -34 199 -151 278 -61 41 -88 53 -137 60 -73 10
-89 10 -140 -2z m107 -309 c37 -14 31 -41 -10 -54 -16 -5 -23 0 -32 20 -19 41
-5 52 42 34z"/>
<path d="M4146 3745 c-175 -72 -233 -268 -132 -451 91 -165 277 -191 425 -58
93 83 128 204 98 332 -19 77 -35 103 -89 142 -86 63 -202 76 -302 35z m122
-287 c-2 -25 -8 -34 -25 -36 -28 -4 -31 22 -6 50 24 27 35 22 31 -14z"/>
<path d="M496 2009 c-8 -12 -12 -26 -10 -33 6 -13 302 -156 325 -156 23 0 42
26 35 47 -7 21 -101 75 -224 127 -98 42 -106 43 -126 15z"/>
<path d="M5297 1093 c-19 -22 -43 -86 -51 -133 -20 -126 95 -218 181 -146 70
59 72 249 4 286 -33 17 -116 12 -134 -7z"/>
</g>
</svg>
