<?xml version="1.0" standalone="no"?>
<!DOCTYPE svg PUBLIC "-//W3C//DTD SVG 20010904//EN"
 "http://www.w3.org/TR/2001/REC-SVG-20010904/DTD/svg10.dtd">
<svg version="1.0" xmlns="http://www.w3.org/2000/svg"
 width="600.000000pt" height="600.000000pt" viewBox="0 0 600.000000 600.000000"
 preserveAspectRatio="xMidYMid meet">
<metadata>
Created by potrace 1.15, written by Peter Selinger 2001-2017
</metadata>
<g transform="translate(0.000000,600.000000) scale(0.100000,-0.100000)"
fill="#16364b" stroke="none">
<path d="M2385 5420 c-40 -15 -43 -30 -48 -250 -4 -173 -9 -230 -25 -291 -44
-165 -121 -265 -256 -334 -75 -38 -96 -62 -96 -111 0 -29 49 -84 75 -84 9 0
54 18 100 40 142 68 236 172 295 327 49 130 61 209 67 440 l6 212 -31 30 c-31
31 -51 36 -87 21z"/>
<path d="M3514 5296 c-11 -8 -28 -32 -38 -54 -17 -38 -17 -43 -2 -90 44 -132
164 -242 265 -242 79 0 121 40 121 118 0 79 -103 226 -185 263 -48 22 -133 25
-161 5z"/>
<path d="M2971 5088 c-113 -56 -178 -249 -114 -336 66 -89 169 -94 272 -13 49
39 81 117 81 198 0 136 -118 211 -239 151z m85 -170 c-7 -35 -32 -68 -52 -68
-18 0 -1 46 28 78 28 29 32 28 24 -10z"/>
<path d="M4773 4730 c-43 -26 -53 -68 -53 -220 1 -252 53 -402 157 -446 99
-43 197 24 223 151 25 121 -29 286 -144 438 -73 98 -118 117 -183 77z"/>
<path d="M2655 4208 c-83 -30 -130 -99 -122 -181 5 -55 26 -88 86 -134 119
-91 319 -82 476 22 78 52 96 111 52 176 -19 28 -37 39 -107 62 -198 65 -310
81 -385 55z"/>
<path d="M1119 4123 c-17 -10 -37 -40 -53 -80 -31 -76 -28 -138 11 -215 64
-130 261 -147 338 -30 75 114 17 230 -155 311 -73 35 -103 38 -141 14z"/>
<path d="M5225 3931 c-199 -52 -282 -276 -178 -487 32 -66 105 -136 161 -152
148 -45 360 57 439 212 22 41 27 65 27 126 1 114 -42 184 -161 261 -66 44 -68
44 -162 46 -53 1 -109 -2 -126 -6z m119 -291 c30 -11 33 -27 9 -46 -27 -20
-42 -17 -55 12 -10 21 -9 27 3 35 17 11 13 11 43 -1z"/>
<path d="M4205 3756 c-93 -30 -175 -99 -216 -183 -28 -57 -37 -164 -19 -219
18 -53 82 -118 143 -144 183 -79 409 18 456 195 19 70 14 193 -10 242 -45 92
-229 149 -354 109z m95 -270 c0 -21 -26 -38 -52 -34 l-23 3 23 23 c25 25 52
29 52 8z"/>
<path d="M3463 3360 c-32 -13 -78 -81 -140 -205 -46 -94 -53 -115 -44 -136 34
-91 141 -75 218 34 100 139 119 255 50 297 -35 22 -50 23 -84 10z"/>
<path d="M1285 3249 c-229 -12 -340 -49 -445 -145 -179 -166 -183 -431 -10
-604 100 -100 208 -149 395 -181 256 -43 294 -88 440 -525 109 -323 159 -419
277 -530 64 -60 157 -112 237 -134 140 -37 204 -42 676 -48 748 -9 774 -9 910
17 432 81 657 161 896 319 275 183 393 388 406 708 10 248 -47 419 -200 589
-317 354 -696 364 -1181 30 -171 -117 -212 -136 -331 -151 -210 -27 -377 25
-625 195 -463 319 -517 349 -735 413 -199 58 -345 67 -710 47z m602 -403 c151
-42 230 -88 454 -262 154 -121 260 -189 384 -249 187 -90 319 -127 501 -141
164 -12 323 41 605 202 330 188 481 222 628 144 86 -46 176 -142 202 -215 43
-120 36 -294 -16 -411 -37 -83 -68 -116 -173 -186 -218 -146 -380 -203 -659
-233 -188 -21 -542 -28 -813 -17 -181 7 -251 6 -359 -6 -109 -13 -152 -13
-225 -4 -104 13 -199 54 -242 105 -39 46 -79 137 -109 247 -87 319 -172 523
-262 634 -110 136 -292 218 -532 241 -90 8 -144 28 -166 62 -34 51 22 79 213
103 214 27 443 22 569 -14z"/>
<path d="M450 2052 c-37 -38 -38 -62 -1 -104 15 -18 36 -47 45 -65 27 -53 121
-141 178 -168 92 -43 168 -30 200 35 27 55 8 109 -61 180 -66 67 -205 140
-282 148 -43 4 -51 1 -79 -26z"/>
<path d="M5280 1222 c-44 -20 -103 -67 -120 -95 -41 -66 -16 -193 45 -233 14
-9 43 -17 64 -17 84 0 130 70 132 199 2 88 -11 122 -57 142 -28 13 -42 14 -64
4z"/>
</g>
</svg>
