<?xml version="1.0" standalone="no"?>
<!DOCTYPE svg PUBLIC "-//W3C//DTD SVG 20010904//EN"
 "http://www.w3.org/TR/2001/REC-SVG-20010904/DTD/svg10.dtd">
<svg version="1.0" xmlns="http://www.w3.org/2000/svg"
 width="600.000000pt" height="600.000000pt" viewBox="0 0 600.000000 600.000000"
 preserveAspectRatio="xMidYMid meet">
<metadata>
Created by potrace 1.15, written by Peter Selinger 2001-2017
</metadata>
<g transform="translate(0.000000,600.000000) scale(0.100000,-0.100000)"
fill="#16364b" stroke="none">
<path d="M1530 5782 c-58 -31 -76 -78 -96 -242 -10 -81 -18 -220 -18 -315 -1
-164 0 -172 25 -220 64 -126 216 -163 336 -82 86 58 210 257 327 528 50 117
53 133 32 184 -30 70 -122 96 -187 52 -28 -19 -42 -44 -86 -152 -82 -202 -151
-332 -167 -314 -6 7 13 238 29 351 14 96 14 110 0 145 -9 21 -28 47 -42 57
-38 28 -110 32 -153 8z"/>
<path d="M838 5476 c-228 -94 -347 -349 -252 -541 47 -93 157 -185 221 -185
74 0 123 48 123 119 0 51 -25 97 -69 126 -38 25 -55 64 -46 107 19 88 97 148
166 128 90 -26 166 4 189 74 14 44 0 103 -32 134 -69 64 -197 81 -300 38z"/>
<path d="M3330 5487 c-52 -18 -83 -70 -77 -131 5 -58 17 -70 173 -180 84 -60
95 -71 80 -80 -66 -40 -93 -89 -82 -151 9 -47 108 -137 181 -164 200 -75 343
72 261 271 -31 76 -101 172 -176 242 -94 86 -281 208 -317 205 -4 0 -24 -5
-43 -12z"/>
<path d="M3005 5161 c-85 -21 -179 -102 -216 -186 -61 -137 -9 -284 116 -325
98 -32 288 37 321 117 22 52 22 205 0 270 -20 60 -67 107 -123 122 -42 12 -55
12 -98 2z"/>
<path d="M2320 5103 c-80 -26 -93 -52 -100 -195 -5 -113 -6 -118 -35 -149 -17
-18 -78 -54 -141 -84 -61 -29 -119 -63 -128 -76 -41 -58 -24 -142 36 -179 50
-30 104 -26 207 18 230 100 320 194 340 357 10 87 -2 205 -26 245 -27 47 -105
79 -153 63z"/>
<path d="M4763 4821 c-62 -39 -67 -55 -60 -219 3 -81 13 -175 21 -210 47 -190
164 -305 311 -306 146 0 245 108 245 266 0 164 -118 318 -342 444 -79 45 -132
52 -175 25z"/>
<path d="M2751 4151 c-67 -24 -98 -47 -136 -102 -25 -37 -30 -56 -33 -116 -5
-91 10 -135 63 -188 105 -105 323 -105 568 0 112 48 149 86 155 158 8 98 -21
129 -183 194 -180 73 -325 91 -434 54z"/>
<path d="M1031 4069 c-59 -41 -76 -73 -76 -143 0 -53 4 -68 28 -99 44 -58 67
-68 175 -77 120 -11 152 -18 152 -35 0 -32 -174 -157 -415 -300 -82 -48 -162
-99 -178 -114 -75 -69 -52 -202 42 -251 80 -40 135 -25 306 85 46 30 89 55 94
55 5 0 12 -15 15 -33 4 -19 21 -48 41 -67 28 -27 44 -34 87 -38 46 -3 59 0 93
24 118 82 143 96 206 115 73 22 82 22 162 -7 40 -14 55 -15 87 -5 78 23 130
90 130 167 0 55 -32 97 -102 134 -59 32 -66 33 -180 34 -65 1 -118 4 -118 7 0
4 6 12 14 18 32 26 59 115 60 191 0 93 -22 146 -88 211 -85 85 -219 132 -406
145 -89 6 -97 5 -129 -17z"/>
<path d="M4157 3754 c-97 -34 -164 -90 -197 -166 -46 -108 -12 -273 74 -361
63 -64 109 -82 206 -82 73 0 93 4 141 28 117 57 212 191 244 342 21 100 19
146 -8 186 -39 59 -83 73 -242 76 -130 3 -146 2 -218 -23z m143 -271 c-1 -23
-54 -60 -64 -45 -6 11 5 26 29 40 24 13 35 15 35 5z"/>
<path d="M5084 3369 c-117 -61 -204 -143 -255 -239 -33 -63 -34 -195 -2 -256
51 -96 150 -150 256 -142 151 12 263 111 303 269 28 108 0 219 -76 306 -17 19
-30 38 -30 43 0 17 -68 50 -103 50 -20 0 -60 -13 -93 -31z"/>
<path d="M3393 3370 c-42 -25 -84 -84 -139 -192 -55 -109 -58 -152 -13 -202
38 -44 82 -57 158 -46 73 10 109 28 151 76 80 91 106 232 57 305 -51 76 -144
102 -214 59z"/>
<path d="M2265 2918 c-45 -16 -96 -51 -138 -93 -39 -39 -103 -156 -127 -230
-29 -91 -64 -141 -174 -250 -216 -215 -312 -348 -389 -540 -103 -258 -108
-441 -17 -641 58 -129 180 -278 296 -360 329 -235 833 -205 1151 68 147 126
267 328 328 551 41 152 87 458 87 582 1 178 -42 304 -135 397 -58 58 -99 80
-211 112 -122 36 -146 55 -218 174 -109 179 -201 243 -351 241 -40 0 -85 -5
-102 -11z m169 -521 c30 -46 77 -107 103 -134 50 -53 44 -51 245 -107 51 -15
60 -21 74 -54 11 -24 18 -77 22 -149 8 -188 -39 -408 -125 -583 -108 -221
-332 -363 -548 -347 -98 8 -167 33 -249 92 -81 58 -137 127 -167 205 -28 74
-23 233 11 330 49 143 118 259 200 335 112 106 222 220 249 259 35 50 84 148
100 199 7 20 16 37 21 37 4 0 33 -38 64 -83z"/>
<path d="M922 2736 c-53 -29 -80 -123 -52 -177 6 -11 50 -44 97 -75 152 -98
223 -196 223 -307 0 -58 -42 -140 -84 -167 -73 -45 -141 -16 -215 89 -49 70
-91 101 -136 101 -69 0 -135 -66 -135 -135 0 -73 105 -216 205 -281 134 -85
296 -83 434 5 133 86 201 219 201 396 0 232 -122 410 -366 534 -67 34 -131 40
-172 17z"/>
<path d="M4127 2259 c-54 -28 -88 -85 -94 -159 -5 -51 -9 -60 -22 -54 -78 32
-165 17 -218 -38 -66 -68 -69 -147 -18 -359 69 -278 87 -319 158 -356 36 -18
123 -21 153 -5 12 6 46 8 82 5 112 -10 215 52 263 160 22 48 24 64 23 212 -1
173 -38 456 -67 511 -48 92 -170 131 -260 83z"/>
</g>
</svg>
