<?xml version="1.0" standalone="no"?>
<!DOCTYPE svg PUBLIC "-//W3C//DTD SVG 20010904//EN"
 "http://www.w3.org/TR/2001/REC-SVG-20010904/DTD/svg10.dtd">
<svg version="1.0" xmlns="http://www.w3.org/2000/svg"
 width="600.000000pt" height="600.000000pt" viewBox="0 0 600.000000 600.000000"
 preserveAspectRatio="xMidYMid meet">
<metadata>
Created by potrace 1.15, written by Peter Selinger 2001-2017
</metadata>
<g transform="translate(0.000000,600.000000) scale(0.100000,-0.100000)"
fill="#16364b" stroke="none">
<path d="M2749 5541 c-34 -34 -39 -44 -39 -85 0 -32 10 -68 30 -109 51 -107
61 -165 61 -342 -1 -143 1 -164 19 -193 42 -68 156 -91 219 -44 46 34 62 75
73 184 18 187 -4 364 -59 472 -59 116 -112 156 -209 156 -52 0 -59 -3 -95 -39z"/>
<path d="M1950 5438 c-57 -29 -94 -94 -85 -148 9 -49 65 -132 150 -220 79 -82
125 -149 231 -339 80 -142 105 -166 179 -166 88 0 145 61 145 157 0 35 -13 68
-66 163 -97 174 -162 268 -257 370 -45 50 -94 107 -107 129 -23 39 -84 75
-125 76 -12 0 -41 -10 -65 -22z"/>
<path d="M1410 4774 c-24 -10 -61 -47 -76 -76 -35 -67 -2 -160 71 -207 39 -24
58 -29 151 -35 186 -12 416 -60 459 -96 7 -6 35 -13 61 -16 67 -7 112 18 143
79 21 43 22 51 11 95 -19 80 -78 127 -229 182 -144 53 -251 72 -421 76 -85 2
-162 1 -170 -2z"/>
<path d="M4361 4763 c-36 -18 -67 -60 -76 -105 -17 -75 96 -387 203 -566 63
-104 134 -136 218 -96 43 21 64 59 64 119 0 36 -10 66 -44 128 -57 107 -112
245 -137 351 -12 46 -29 98 -40 115 -40 65 -119 88 -188 54z"/>
<path d="M3204 4530 c-45 -10 -61 -24 -165 -144 -155 -181 -247 -273 -364
-367 -61 -48 -117 -100 -123 -114 -30 -66 -1 -159 58 -190 34 -17 97 -19 136
-5 39 15 215 164 315 267 130 132 288 331 300 376 29 107 -55 201 -157 177z"/>
<path d="M2265 4285 c-66 -17 -160 -18 -325 -3 -74 6 -148 8 -163 4 -15 -3
-44 -21 -63 -39 -75 -69 -57 -183 36 -232 63 -33 432 -50 560 -26 134 25 190
74 190 167 0 118 -89 166 -235 129z"/>
<path d="M3825 4124 c-16 -8 -58 -46 -92 -83 -74 -82 -203 -192 -298 -255 -99
-66 -284 -159 -411 -205 -138 -51 -169 -79 -169 -154 0 -90 72 -157 168 -157
117 0 424 156 676 343 109 82 315 277 338 320 20 39 13 105 -15 145 -41 57
-134 79 -197 46z"/>
<path d="M2265 3764 c-108 -23 -303 -35 -405 -24 -147 15 -182 13 -221 -13
-98 -66 -106 -183 -17 -250 54 -41 132 -52 358 -51 298 0 459 32 508 101 44
62 40 131 -11 190 -55 62 -98 72 -212 47z"/>
<path d="M5058 3737 c-62 -18 -121 -58 -146 -99 -32 -52 -37 -106 -17 -195 50
-220 -7 -472 -148 -658 -47 -62 -167 -182 -249 -247 -65 -53 -91 -111 -86
-193 5 -83 41 -137 117 -177 42 -22 66 -28 115 -27 77 1 110 13 188 69 137
100 293 279 396 456 127 219 183 485 153 730 -26 212 -56 286 -132 325 -52 26
-130 33 -191 16z"/>
<path d="M1965 3126 c-42 -18 -83 -69 -91 -112 -20 -107 49 -185 224 -253 64
-25 76 -26 252 -26 179 0 187 1 235 25 37 20 55 37 73 72 33 64 24 118 -27
169 -50 50 -94 61 -194 47 -130 -17 -194 -7 -300 46 -97 49 -123 53 -172 32z"/>
<path d="M4418 3117 c-15 -7 -44 -28 -65 -47 -81 -76 -182 -145 -278 -191
-172 -81 -462 -166 -644 -188 -108 -14 -141 -28 -170 -74 -25 -41 -28 -115 -6
-156 19 -38 68 -78 104 -86 43 -9 256 21 416 60 273 65 453 139 625 255 117
79 216 172 230 216 25 76 -16 166 -92 203 -50 24 -80 26 -120 8z"/>
<path d="M1434 2936 c-48 -21 -101 -91 -114 -150 -18 -79 -24 -282 -11 -392
34 -290 118 -521 248 -683 76 -96 114 -121 192 -128 96 -9 164 24 201 98 39
76 23 149 -54 243 -50 62 -123 205 -156 306 -47 148 -60 296 -39 462 10 76 9
94 -5 131 -20 52 -58 95 -102 113 -42 18 -119 17 -160 0z"/>
<path d="M2185 2373 c-66 -17 -110 -82 -103 -154 9 -88 25 -102 277 -241 145
-80 169 -90 202 -85 79 10 133 76 132 159 -1 95 -42 131 -287 254 -140 69
-172 79 -221 67z"/>
<path d="M4255 2095 c-41 -13 -283 -99 -510 -180 -240 -86 -408 -118 -736
-141 -140 -9 -214 -70 -226 -186 -10 -97 44 -172 141 -199 69 -19 533 44 773
105 178 45 690 229 743 266 60 43 88 157 56 233 -25 62 -114 118 -181 116 -11
0 -38 -6 -60 -14z"/>
<path d="M4920 1757 c-23 -7 -58 -35 -100 -81 -104 -112 -161 -166 -220 -206
-196 -133 -542 -244 -827 -265 -150 -12 -217 -55 -245 -159 -31 -118 62 -236
188 -236 56 0 225 24 352 50 277 57 587 179 786 308 79 51 244 212 293 285 42
64 51 131 25 189 -25 55 -66 93 -121 113 -49 17 -81 18 -131 2z"/>
<path d="M2035 1400 c-76 -16 -115 -65 -115 -144 0 -60 21 -93 98 -156 165
-135 370 -215 619 -241 108 -11 114 -10 158 11 54 26 79 66 79 130 0 55 -23
101 -66 131 -28 20 -49 24 -163 30 -190 10 -277 43 -420 158 -38 31 -76 61
-84 65 -24 15 -75 22 -106 16z"/>
<path d="M2000 908 c-121 -61 -154 -213 -67 -306 62 -67 415 -204 625 -244 42
-8 145 -13 272 -12 172 0 222 4 309 23 121 26 147 37 189 85 76 87 46 234 -59
289 -39 21 -81 19 -249 -8 -231 -37 -503 10 -769 135 -144 68 -181 73 -251 38z"/>
</g>
</svg>
