<?xml version="1.0" standalone="no"?>
<!DOCTYPE svg PUBLIC "-//W3C//DTD SVG 20010904//EN"
 "http://www.w3.org/TR/2001/REC-SVG-20010904/DTD/svg10.dtd">
<svg version="1.0" xmlns="http://www.w3.org/2000/svg"
 width="600.000000pt" height="600.000000pt" viewBox="0 0 600.000000 600.000000"
 preserveAspectRatio="xMidYMid meet">
<metadata>
Created by potrace 1.15, written by Peter Selinger 2001-2017
</metadata>
<g transform="translate(0.000000,600.000000) scale(0.100000,-0.100000)"
fill="#16364b" stroke="none">
<path d="M2257 5530 c-107 -19 -225 -107 -276 -208 -54 -106 -55 -117 -57
-677 0 -286 -6 -576 -12 -645 -6 -71 -9 -196 -5 -290 3 -99 1 -210 -6 -279 -7
-62 -16 -183 -21 -269 -5 -85 -12 -157 -14 -159 -3 -3 -49 9 -103 27 -109 35
-236 98 -361 180 -79 53 -83 56 -76 85 11 52 10 70 -6 70 -8 0 -21 -13 -29
-30 l-15 -30 -15 62 c-9 34 -19 65 -23 69 -16 16 -38 -20 -38 -62 0 -24 -3
-44 -7 -44 -4 0 -21 14 -39 31 -50 48 -75 16 -33 -43 24 -33 20 -45 -9 -29
-32 17 -62 14 -62 -7 0 -10 27 -35 67 -62 37 -25 86 -60 110 -78 73 -54 309
-188 399 -226 47 -20 121 -45 164 -57 l80 -22 0 -381 c0 -422 8 -519 51 -650
45 -136 108 -234 224 -351 84 -85 113 -108 185 -142 47 -23 120 -52 163 -65
l78 -23 -8 -80 c-19 -197 0 -409 52 -572 38 -118 41 -113 -66 -113 -90 0 -91
0 -125 -34 -38 -38 -43 -70 -19 -116 31 -59 116 -81 216 -56 78 20 137 59 166
111 31 54 29 88 -12 201 -48 132 -65 211 -72 329 -6 102 10 262 28 298 8 14
16 17 32 11 12 -4 229 -10 482 -13 402 -5 460 -8 456 -21 -1 -8 -5 -60 -8
-116 -9 -167 21 -354 82 -502 14 -35 23 -68 19 -74 -4 -7 -27 -8 -62 -5 -122
13 -202 -25 -202 -96 0 -110 176 -150 327 -74 107 53 128 137 73 287 -66 177
-95 409 -68 535 l13 60 190 6 c135 4 202 11 231 22 163 61 276 180 328 347 30
93 59 330 58 465 -1 95 -30 342 -51 436 -39 170 -120 325 -238 452 -19 21 -33
40 -30 43 2 3 44 15 93 29 282 75 516 198 621 324 54 66 65 91 39 91 -8 0 -16
10 -18 23 -3 23 -16 26 -55 13 -21 -7 -22 -5 -17 23 9 45 -24 41 -55 -7 -25
-37 -25 -37 -31 -12 -4 16 -13 25 -25 25 -18 0 -20 -6 -17 -55 l4 -55 -46 -34
c-138 -98 -472 -221 -603 -221 -48 0 -52 2 -144 87 -51 48 -142 133 -200 189
-145 138 -267 231 -439 331 -294 173 -374 238 -452 368 -103 172 -226 571
-267 870 -12 83 -28 179 -37 215 -60 248 -254 405 -457 370z m149 -181 c53
-25 100 -77 130 -144 24 -54 31 -83 69 -311 44 -261 107 -494 194 -713 112
-281 199 -375 531 -566 203 -117 296 -184 435 -314 28 -25 135 -125 239 -220
214 -198 260 -245 334 -343 103 -137 134 -228 164 -478 34 -292 14 -567 -51
-705 -40 -86 -89 -137 -163 -170 -60 -27 -73 -29 -283 -38 -350 -15 -1267 10
-1407 38 -56 11 -161 47 -210 71 -66 33 -169 133 -219 212 -120 190 -151 354
-150 802 0 282 25 883 38 903 11 18 27 765 28 1282 l0 520 24 53 c25 55 74
106 125 128 47 20 123 17 172 -7z"/>
<path d="M2602 2904 c-33 -23 -29 -66 9 -98 39 -33 62 -33 88 0 28 36 26 68
-5 93 -32 25 -61 27 -92 5z"/>
<path d="M3177 2852 c-10 -10 -17 -30 -17 -44 0 -29 38 -68 67 -68 26 0 63 44
63 75 0 49 -79 75 -113 37z"/>
<path d="M2794 1943 c-17 -13 -22 -36 -13 -60 14 -39 70 -46 317 -38 223 8
224 8 235 32 8 19 7 27 -7 41 -15 15 -43 17 -239 17 -122 0 -235 3 -252 8 -16
4 -35 4 -41 0z"/>
</g>
</svg>
