<?xml version="1.0" standalone="no"?>
<!DOCTYPE svg PUBLIC "-//W3C//DTD SVG 20010904//EN"
 "http://www.w3.org/TR/2001/REC-SVG-20010904/DTD/svg10.dtd">
<svg version="1.0" xmlns="http://www.w3.org/2000/svg"
 width="600.000000pt" height="600.000000pt" viewBox="0 0 600.000000 600.000000"
 preserveAspectRatio="xMidYMid meet">
<metadata>
Created by potrace 1.15, written by Peter Selinger 2001-2017
</metadata>
<g transform="translate(0.000000,600.000000) scale(0.100000,-0.100000)"
fill="#16364b" stroke="none">
<path d="M2373 5396 l-28 -24 -1 -199 c-1 -229 -16 -309 -84 -450 -51 -104
-112 -168 -207 -213 -80 -38 -102 -66 -84 -113 21 -56 74 -61 168 -14 162 78
278 266 333 537 17 83 21 141 22 280 l0 174 -27 23 c-33 29 -57 29 -92 -1z"/>
<path d="M3517 5280 c-37 -44 -42 -72 -22 -133 47 -147 162 -257 269 -257 37
0 48 5 70 31 47 56 28 124 -74 261 -58 79 -108 115 -171 124 -42 6 -47 4 -72
-26z"/>
<path d="M2984 5100 c-94 -53 -154 -152 -154 -253 0 -97 43 -147 125 -147 148
0 302 231 246 368 -28 68 -129 83 -217 32z m74 -150 c-10 -31 -62 -90 -79 -90
-12 0 -11 6 7 43 36 70 94 108 72 47z"/>
<path d="M4749 4741 c-29 -29 -29 -30 -29 -153 1 -142 20 -318 44 -399 44
-149 180 -203 274 -109 106 105 57 396 -99 593 -82 103 -135 122 -190 68z"/>
<path d="M2670 4215 c-134 -42 -166 -176 -64 -271 109 -102 308 -119 477 -42
83 39 107 66 107 124 0 71 -38 104 -161 143 -192 61 -275 72 -359 46z"/>
<path d="M1163 4153 c-51 -10 -103 -116 -103 -210 0 -47 21 -106 48 -136 51
-57 153 -73 229 -36 59 29 86 70 91 140 6 77 -25 132 -102 183 -45 30 -134 71
-140 65 0 -1 -11 -4 -23 -6z"/>
<path d="M5269 3967 c-66 -19 -131 -60 -177 -112 -104 -119 -96 -303 19 -429
68 -74 128 -99 228 -94 173 8 316 138 340 309 18 132 -26 217 -158 305 -39 25
-54 29 -125 31 -45 2 -102 -3 -127 -10z m127 -300 c11 -10 -11 -38 -33 -43
-27 -7 -43 7 -43 40 0 16 5 18 36 13 20 -3 38 -8 40 -10z"/>
<path d="M4201 3740 c-186 -68 -285 -265 -208 -415 30 -59 66 -95 127 -127 61
-31 183 -32 252 -1 62 28 134 96 164 155 46 90 49 268 7 327 -52 72 -228 104
-342 61z m109 -250 c0 -15 -38 -50 -55 -50 -21 0 -19 10 7 37 22 24 48 31 48
13z"/>
<path d="M3448 3372 c-28 -14 -44 -39 -100 -153 -38 -75 -71 -149 -74 -165 -8
-44 27 -84 73 -84 74 0 213 182 229 300 5 36 2 50 -15 72 -31 39 -72 50 -113
30z"/>
<path d="M993 3306 c-147 -34 -256 -116 -311 -234 -24 -51 -27 -68 -27 -167 0
-98 3 -116 27 -168 15 -31 50 -82 79 -112 108 -114 219 -161 417 -175 157 -11
209 -28 267 -87 84 -84 123 -171 185 -416 73 -288 112 -383 220 -525 81 -107
158 -175 255 -223 111 -55 227 -77 470 -90 230 -12 251 -13 558 -39 412 -36
594 -26 1095 60 254 43 366 76 507 146 304 153 475 354 521 613 17 98 17 364
0 461 -29 157 -93 285 -199 397 -108 113 -238 191 -397 239 -53 15 -96 19
-225 19 -158 0 -161 -1 -266 -37 -132 -45 -290 -124 -479 -238 -238 -144 -305
-170 -439 -170 -168 0 -352 94 -734 379 -443 329 -559 366 -1182 376 -219 4
-293 2 -342 -9z m637 -396 c228 -30 364 -89 603 -263 221 -160 340 -236 506
-321 245 -125 395 -163 600 -154 176 9 311 66 578 244 201 134 326 186 483
200 124 12 220 -19 325 -104 113 -90 151 -206 142 -431 -7 -179 -37 -269 -114
-345 -192 -188 -524 -273 -1138 -292 -237 -7 -659 9 -800 30 -55 8 -156 20
-225 27 -154 14 -284 40 -336 67 -51 26 -116 96 -148 160 -14 28 -42 105 -61
171 -19 67 -51 176 -71 244 -90 310 -237 517 -436 615 -107 53 -189 72 -316
72 -65 0 -115 5 -136 14 -64 27 -57 55 16 66 83 11 444 12 528 0z"/>
<path d="M480 2073 c-49 -18 -70 -94 -34 -124 9 -7 29 -33 46 -58 94 -140 217
-203 307 -156 33 16 41 33 41 81 0 55 -89 133 -250 221 -64 35 -89 43 -110 36z"/>
<path d="M5365 1132 c-33 -7 -53 -32 -76 -91 -48 -128 17 -244 118 -210 54 18
85 67 91 148 2 38 2 81 -2 95 -11 43 -73 71 -131 58z"/>
</g>
</svg>
