<?xml version="1.0" standalone="no"?>
<!DOCTYPE svg PUBLIC "-//W3C//DTD SVG 20010904//EN"
 "http://www.w3.org/TR/2001/REC-SVG-20010904/DTD/svg10.dtd">
<svg version="1.0" xmlns="http://www.w3.org/2000/svg"
 width="600.000000pt" height="600.000000pt" viewBox="0 0 600.000000 600.000000"
 preserveAspectRatio="xMidYMid meet">
<metadata>
Created by potrace 1.15, written by Peter Selinger 2001-2017
</metadata>
<g transform="translate(0.000000,600.000000) scale(0.100000,-0.100000)"
fill="#16364b" stroke="none">
<path d="M1514 5768 c-69 -52 -346 -313 -359 -339 -46 -88 17 -176 118 -165
118 13 497 151 540 197 39 42 38 100 -3 141 -27 26 -36 29 -73 25 -23 -2 -53
-8 -66 -12 -24 -8 -24 -8 -8 16 9 13 17 41 17 62 0 83 -97 127 -166 75z"/>
<path d="M2359 5411 c-27 -28 -29 -34 -29 -112 0 -127 -20 -304 -45 -405 -45
-176 -112 -274 -235 -338 -88 -47 -105 -70 -101 -144 2 -38 44 -72 90 -72 62
0 174 63 256 145 145 145 217 363 232 705 8 203 -10 250 -100 250 -29 0 -46
-7 -68 -29z"/>
<path d="M3533 5315 c-43 -18 -77 -85 -69 -133 22 -135 174 -282 292 -282 149
0 166 172 32 324 -45 52 -80 73 -153 92 -61 17 -62 17 -102 -1z"/>
<path d="M2972 5124 c-59 -29 -111 -87 -144 -160 -32 -69 -33 -199 -2 -241 59
-80 139 -94 243 -42 97 48 126 84 146 175 32 140 6 230 -75 272 -58 29 -104
28 -168 -4z"/>
<path d="M4780 4763 c-80 -25 -95 -57 -86 -194 16 -264 117 -465 253 -505 92
-27 182 16 227 108 67 139 34 271 -103 409 -115 115 -245 197 -291 182z"/>
<path d="M2630 4208 c-161 -87 -137 -323 42 -414 135 -69 339 -20 474 112 78
76 85 141 21 210 -47 52 -229 105 -382 111 -102 4 -113 3 -155 -19z"/>
<path d="M1082 4104 c-75 -38 -83 -147 -16 -205 11 -9 58 -28 105 -42 161 -50
136 -74 -67 -63 -80 4 -131 3 -146 -5 -39 -18 -63 -59 -63 -111 0 -38 5 -52
30 -78 45 -47 117 -64 265 -64 106 0 133 3 182 22 125 50 198 139 198 244 0
126 -99 219 -310 288 -94 30 -139 34 -178 14z"/>
<path d="M4245 3776 c-168 -41 -302 -184 -313 -337 -15 -209 242 -343 456
-237 107 54 194 203 215 369 17 138 -9 176 -139 204 -82 17 -151 18 -219 1z
m11 -313 c-15 -13 -31 -21 -36 -18 -15 9 0 35 29 49 37 20 41 -1 7 -31z"/>
<path d="M5195 3704 c-108 -26 -194 -96 -238 -193 -32 -70 -30 -188 5 -262 34
-73 89 -134 152 -167 140 -72 331 1 410 156 74 146 44 300 -80 407 -93 80
-127 88 -249 59z m85 -301 c0 -12 -33 -43 -47 -43 -16 0 -17 22 -1 38 13 13
48 17 48 5z"/>
<path d="M1653 3686 c-52 -23 -66 -56 -65 -148 2 -164 44 -267 125 -307 116
-57 215 39 188 183 -24 133 -114 263 -192 280 -13 3 -38 -1 -56 -8z"/>
<path d="M3444 3370 c-11 -4 -33 -23 -49 -42 -33 -39 -145 -263 -145 -290 0
-10 7 -32 15 -48 29 -56 78 -64 155 -25 84 43 155 153 175 272 15 95 -66 168
-151 133z"/>
<path d="M2081 3049 c-199 -22 -432 -88 -576 -162 -247 -128 -425 -336 -455
-531 -28 -179 49 -418 178 -557 30 -33 110 -98 177 -145 142 -98 205 -157 258
-237 20 -31 53 -82 73 -112 72 -110 187 -204 307 -251 206 -81 406 -68 682 43
60 25 190 71 287 104 224 74 313 110 413 163 165 88 412 283 492 388 77 102
121 228 143 409 22 179 -14 289 -140 423 -110 117 -192 164 -432 250 -182 64
-279 90 -398 106 -47 6 -146 24 -220 40 -281 61 -359 72 -535 75 -93 2 -208
-1 -254 -6z m570 -399 c63 -11 186 -40 274 -65 88 -25 185 -50 216 -55 74 -14
330 -100 399 -135 119 -60 177 -133 165 -206 -12 -72 -72 -175 -144 -248 -144
-146 -416 -290 -719 -380 -55 -16 -142 -50 -194 -75 -117 -56 -174 -75 -268
-88 -158 -23 -246 23 -381 200 -109 141 -269 301 -398 396 -117 86 -147 122
-162 199 -26 128 50 269 181 337 50 26 350 102 490 125 135 21 406 19 541 -5z"/>
<path d="M427 2189 c-15 -11 -32 -37 -38 -57 -9 -33 -7 -46 21 -117 35 -88
117 -247 160 -310 43 -62 119 -132 169 -156 64 -30 144 -30 197 0 136 77 102
278 -75 439 -90 82 -330 222 -381 222 -15 0 -39 -9 -53 -21z"/>
<path d="M4696 1675 c-34 -23 -41 -24 -75 -14 -49 15 -97 0 -137 -42 -27 -29
-29 -35 -28 -112 1 -86 30 -223 64 -301 62 -139 209 -169 298 -61 80 98 138
413 89 488 -45 69 -143 88 -211 42z"/>
</g>
</svg>
