<?xml version="1.0" standalone="no"?>
<!DOCTYPE svg PUBLIC "-//W3C//DTD SVG 20010904//EN"
 "http://www.w3.org/TR/2001/REC-SVG-20010904/DTD/svg10.dtd">
<svg version="1.0" xmlns="http://www.w3.org/2000/svg"
 width="600.000000pt" height="600.000000pt" viewBox="0 0 600.000000 600.000000"
 preserveAspectRatio="xMidYMid meet">
<metadata>
Created by potrace 1.15, written by Peter Selinger 2001-2017
</metadata>
<g transform="translate(0.000000,600.000000) scale(0.100000,-0.100000)"
fill="#16364b" stroke="none">
<path d="M1712 5814 c-46 -24 -57 -43 -103 -190 -151 -479 -163 -547 -115
-651 18 -39 35 -58 70 -78 91 -54 182 -40 302 43 111 79 418 412 451 490 29
69 -13 162 -87 192 -40 17 -122 8 -152 -16 -13 -10 -51 -50 -85 -89 -33 -38
-79 -90 -102 -115 -42 -45 -42 -45 -36 -15 3 17 24 78 45 136 22 59 43 120 46
136 8 42 -25 114 -66 143 -43 31 -122 37 -168 14z"/>
<path d="M3095 5643 c-62 -17 -105 -76 -105 -146 0 -59 19 -81 138 -163 112
-78 266 -198 336 -264 51 -47 136 -159 136 -179 0 -7 -21 -11 -54 -11 -154 0
-209 -170 -85 -263 39 -28 155 -43 231 -29 73 14 144 54 175 100 76 114 36
319 -96 477 -48 58 -215 213 -316 293 -27 22 -98 71 -157 110 -105 71 -154 88
-203 75z"/>
<path d="M935 5449 c-184 -26 -347 -194 -375 -386 -23 -167 47 -322 191 -419
41 -27 61 -34 101 -34 89 0 148 58 148 145 0 50 -21 85 -79 134 -75 63 -90
141 -40 205 30 39 56 50 135 56 113 10 164 62 164 168 0 105 -89 153 -245 131z"/>
<path d="M2925 5171 c-22 -10 -59 -38 -83 -62 -83 -85 -118 -200 -92 -294 17
-62 91 -128 161 -145 102 -25 264 12 314 71 22 27 25 40 25 108 0 206 -91 341
-229 341 -33 0 -73 -8 -96 -19z"/>
<path d="M4775 4865 c-48 -17 -92 -66 -101 -114 -4 -19 -4 -79 -1 -133 15
-239 97 -405 233 -472 181 -89 372 5 402 197 30 191 -75 333 -358 485 -90 48
-122 55 -175 37z"/>
<path d="M2044 4816 c-88 -20 -155 -55 -182 -96 -32 -48 -28 -137 9 -176 50
-53 116 -68 182 -41 18 8 48 17 67 20 33 6 36 4 55 -30 56 -105 194 -111 255
-11 28 45 27 137 -1 195 -57 117 -220 176 -385 139z"/>
<path d="M2895 4090 c-171 -31 -262 -138 -234 -276 19 -95 106 -166 245 -201
114 -28 331 -23 473 10 62 14 127 35 145 45 46 27 76 77 76 129 0 91 -29 115
-237 203 -196 81 -349 111 -468 90z"/>
<path d="M1045 4051 c-52 -9 -77 -24 -109 -61 -35 -42 -50 -98 -42 -155 6 -37
17 -56 51 -90 53 -54 100 -68 192 -59 66 7 68 6 52 -12 -8 -10 -56 -66 -105
-124 -174 -203 -371 -455 -473 -607 -75 -110 -63 -218 30 -280 41 -27 47 -28
147 -25 72 2 114 8 136 19 34 18 274 179 435 292 97 69 105 72 128 60 14 -7
35 -26 48 -41 64 -76 29 -312 -77 -508 -92 -172 -245 -348 -347 -399 -66 -34
-84 -53 -100 -103 -25 -77 34 -177 113 -192 111 -21 271 103 467 360 131 172
192 288 228 434 26 106 44 289 36 355 l-6 51 41 18 c22 9 52 34 68 53 27 36
27 38 27 188 0 149 0 152 -28 194 -18 27 -44 50 -70 62 -85 38 -164 21 -366
-80 -57 -29 -105 -50 -108 -47 -3 3 20 34 52 68 80 86 150 197 165 259 19 78
8 171 -27 227 -36 58 -99 107 -166 128 -58 18 -322 28 -392 15z"/>
<path d="M4249 3800 c-212 -33 -343 -177 -325 -355 12 -120 92 -236 194 -283
48 -21 64 -24 125 -19 45 4 89 15 122 31 76 38 159 126 206 221 38 78 79 204
79 245 0 35 -39 100 -73 120 -58 36 -226 56 -328 40z m-1 -337 c-28 -27 -60
-24 -36 4 13 16 50 33 57 27 3 -3 -7 -16 -21 -31z"/>
<path d="M3403 3404 c-18 -9 -49 -34 -68 -55 -37 -41 -115 -188 -135 -254 -16
-54 0 -111 40 -150 40 -38 138 -51 218 -29 160 45 255 304 161 436 -44 61
-147 86 -216 52z"/>
<path d="M5064 3220 c-79 -17 -244 -147 -303 -238 -17 -26 -38 -76 -47 -112
-45 -178 56 -321 231 -323 200 -3 367 172 368 388 1 65 -3 88 -22 125 -28 53
-96 136 -119 145 -37 15 -79 21 -108 15z"/>
<path d="M3914 2550 c-69 -35 -109 -85 -125 -157 -9 -42 -7 -61 19 -163 17
-63 34 -124 38 -134 6 -17 4 -18 -17 -12 -128 36 -186 32 -252 -17 -23 -18
-55 -57 -72 -87 -29 -53 -30 -59 -29 -185 1 -155 25 -285 89 -476 47 -143 76
-189 138 -221 58 -30 156 -30 213 0 75 39 124 115 124 195 0 26 2 27 54 27 85
0 161 34 232 105 86 84 108 145 101 275 -3 52 -15 131 -27 175 -48 178 -183
580 -206 615 -59 89 -174 114 -280 60z"/>
<path d="M2012 2364 c-29 -14 -82 -57 -122 -97 -72 -74 -220 -262 -220 -280 0
-5 -22 -39 -49 -76 -109 -149 -184 -312 -216 -471 -13 -65 -16 -115 -12 -215
6 -154 27 -236 94 -375 39 -80 59 -108 137 -185 105 -105 205 -163 378 -219
152 -49 226 -61 383 -61 118 0 151 4 212 23 126 41 248 128 345 246 27 34 64
77 83 96 82 87 176 263 218 411 114 399 145 592 113 703 -23 79 -106 164 -189
195 -116 43 -236 25 -479 -72 l-137 -55 -12 37 c-21 65 -50 114 -121 208 -123
161 -194 212 -299 213 -40 0 -70 -7 -107 -26z m123 -466 c8 -13 27 -61 41
-108 36 -118 55 -151 117 -204 107 -91 159 -96 338 -32 68 24 177 63 242 87
64 23 120 39 123 36 19 -19 -98 -373 -176 -532 -52 -107 -69 -130 -152 -216
-72 -75 -108 -103 -158 -127 -156 -74 -310 -61 -492 41 -96 54 -153 109 -190
185 -32 65 -33 70 -32 192 1 178 37 305 123 433 25 38 53 81 61 97 29 54 115
170 127 170 6 0 19 -10 28 -22z"/>
</g>
</svg>
