<?xml version="1.0" standalone="no"?>
<!DOCTYPE svg PUBLIC "-//W3C//DTD SVG 20010904//EN"
 "http://www.w3.org/TR/2001/REC-SVG-20010904/DTD/svg10.dtd">
<svg version="1.0" xmlns="http://www.w3.org/2000/svg"
 width="600.000000pt" height="600.000000pt" viewBox="0 0 600.000000 600.000000"
 preserveAspectRatio="xMidYMid meet">
<metadata>
Created by potrace 1.15, written by Peter Selinger 2001-2017
</metadata>
<g transform="translate(0.000000,600.000000) scale(0.100000,-0.100000)"
fill="#16364b" stroke="none">
<path d="M2052 5803 c-36 -21 -148 -143 -260 -286 -42 -54 -126 -160 -186
-235 -126 -160 -150 -205 -144 -272 6 -64 39 -107 106 -138 45 -20 65 -24 116
-20 81 7 153 38 381 162 105 57 245 131 313 165 136 68 162 95 162 166 0 82
-63 138 -155 139 -49 1 -110 -21 -249 -90 -27 -14 -51 -22 -53 -20 -3 3 40 52
96 110 104 111 120 141 107 203 -4 16 -20 45 -36 65 -54 65 -133 85 -198 51z"/>
<path d="M3032 5687 c-18 -5 -46 -25 -62 -44 -24 -27 -30 -43 -30 -79 0 -48
17 -89 46 -115 11 -8 62 -33 114 -54 291 -118 419 -247 437 -441 11 -115 -50
-190 -187 -231 -30 -9 -67 -28 -83 -42 -55 -50 -60 -142 -10 -201 51 -61 105
-73 204 -44 242 71 395 311 375 590 -14 199 -89 312 -316 479 -73 53 -277 155
-359 179 -61 18 -82 19 -129 3z"/>
<path d="M915 5347 c-130 -49 -243 -149 -298 -265 -30 -62 -32 -75 -32 -173 0
-102 1 -107 39 -184 43 -86 153 -208 236 -261 93 -58 198 -27 235 69 13 36 15
51 6 83 -14 47 -32 69 -94 114 -69 49 -107 111 -107 173 0 46 4 54 43 91 26
26 64 48 99 60 31 10 68 30 83 44 77 71 70 193 -14 249 -44 30 -115 30 -196 0z"/>
<path d="M2787 5006 c-192 -53 -311 -307 -227 -480 57 -119 180 -188 359 -202
67 -5 81 -3 121 18 58 30 83 75 77 141 -8 87 -62 136 -158 143 -100 8 -109 11
-109 39 0 24 2 25 39 19 92 -15 162 45 169 144 4 75 -18 116 -84 153 -61 34
-124 43 -187 25z"/>
<path d="M4805 4916 c-45 -20 -94 -75 -101 -114 -11 -56 3 -281 22 -352 9 -36
25 -82 36 -103 29 -58 96 -125 153 -155 43 -23 63 -27 135 -27 95 0 122 10
182 69 84 82 102 238 41 367 -59 126 -147 211 -297 289 -81 42 -121 48 -171
26z"/>
<path d="M1868 4597 c-71 -30 -142 -81 -182 -130 -27 -34 -31 -47 -31 -97 0
-94 57 -154 148 -154 45 -1 61 5 108 36 88 59 108 58 144 -12 40 -77 131 -108
207 -71 118 57 100 207 -42 351 -73 75 -116 94 -215 97 -66 3 -90 -1 -137 -20z"/>
<path d="M2889 3930 c-69 -36 -121 -119 -156 -250 -13 -48 -17 -104 -17 -215
0 -136 2 -157 27 -231 21 -64 36 -89 66 -117 91 -82 219 -46 250 71 10 37 4
79 -19 137 -15 37 -25 207 -16 267 6 37 11 47 31 52 38 10 84 55 96 95 13 44
0 104 -32 145 -49 63 -157 84 -230 46z"/>
<path d="M1150 3874 c-94 -18 -201 -48 -238 -65 -79 -39 -116 -152 -78 -242
32 -77 128 -134 211 -125 25 3 45 4 45 1 0 -20 -100 -204 -227 -414 -145 -242
-223 -400 -239 -484 -18 -95 32 -196 118 -239 29 -14 62 -26 75 -26 40 0 93
28 147 77 29 27 133 111 232 187 238 186 315 252 518 443 5 4 6 -30 3 -83 -16
-232 -117 -508 -299 -818 -80 -135 -128 -236 -128 -267 0 -89 82 -173 169
-173 61 0 91 23 132 99 18 33 59 107 92 164 91 159 201 394 241 514 32 94 54
196 97 431 5 32 13 105 16 161 10 174 -23 289 -99 341 -36 25 -50 29 -113 29
-58 0 -81 -5 -123 -27 -68 -35 -144 -94 -260 -202 -52 -47 -95 -86 -97 -86 -2
0 44 93 102 208 92 180 107 217 116 282 18 132 -29 232 -137 287 -44 23 -65
27 -151 29 -55 1 -111 0 -125 -2z"/>
<path d="M4250 3790 c-220 -27 -353 -163 -353 -360 0 -118 67 -221 178 -272
78 -36 189 -32 276 9 118 55 203 153 284 327 64 136 59 215 -15 259 -49 29
-260 50 -370 37z m10 -326 c-21 -24 -51 -37 -62 -26 -12 12 28 42 55 42 17 0
17 -2 7 -16z"/>
<path d="M3455 3371 c-111 -50 -215 -231 -215 -376 0 -42 5 -57 32 -89 44 -54
80 -66 195 -66 77 0 108 5 143 21 101 46 140 114 140 244 0 129 -39 220 -114
266 -40 24 -126 24 -181 0z"/>
<path d="M4923 2924 c-45 -22 -213 -191 -258 -260 -120 -181 -85 -371 79 -424
90 -29 229 21 310 111 101 113 164 324 126 424 -14 36 -99 134 -132 151 -35
18 -85 17 -125 -2z"/>
<path d="M4085 2522 c-51 -24 -119 -98 -136 -148 -20 -59 -14 -128 21 -248 17
-60 29 -110 27 -113 -2 -2 -34 10 -71 27 -89 40 -178 54 -248 39 -65 -14 -79
-21 -130 -67 -63 -57 -91 -122 -96 -222 -5 -99 9 -186 73 -442 49 -196 58
-218 107 -265 144 -136 388 -37 388 158 0 31 -9 92 -20 135 -11 44 -20 90 -20
104 0 24 1 23 38 -12 71 -68 133 -84 239 -62 146 30 232 100 271 219 38 114
28 194 -58 454 -28 85 -60 191 -71 235 -39 153 -100 218 -213 223 -44 3 -72
-1 -101 -15z"/>
<path d="M2935 2190 c-89 -13 -221 -64 -403 -157 -89 -46 -167 -83 -172 -83
-5 0 -17 16 -26 35 -22 47 -88 103 -138 116 -50 13 -123 6 -173 -17 -50 -23
-195 -170 -222 -226 -65 -135 44 -291 192 -276 26 2 32 -1 38 -22 15 -55 10
-64 -49 -92 -116 -55 -226 -180 -265 -302 -24 -77 -26 -199 -3 -286 37 -143
146 -328 257 -437 105 -103 194 -154 345 -199 208 -61 441 -36 619 66 80 46
190 135 213 172 82 133 -25 301 -192 302 -70 0 -108 -16 -176 -77 -70 -62
-161 -101 -234 -100 -119 1 -214 43 -314 138 -87 81 -132 166 -139 257 -7 109
40 152 95 87 114 -137 171 -178 242 -179 49 0 118 37 154 83 25 31 31 49 34
102 4 56 1 70 -22 108 -14 25 -32 47 -41 50 -38 15 -108 162 -130 275 -6 29
-4 32 18 32 14 0 67 23 118 50 159 85 308 160 360 180 46 19 49 19 49 2 0 -56
-101 -318 -181 -472 -38 -72 -62 -132 -66 -161 -15 -126 112 -233 238 -199 62
17 103 62 172 188 120 218 155 306 213 537 46 179 48 261 9 340 -60 123 -234
191 -420 165z"/>
</g>
</svg>
