<?xml version="1.0" standalone="no"?>
<!DOCTYPE svg PUBLIC "-//W3C//DTD SVG 20010904//EN"
 "http://www.w3.org/TR/2001/REC-SVG-20010904/DTD/svg10.dtd">
<svg version="1.0" xmlns="http://www.w3.org/2000/svg"
 width="600.000000pt" height="600.000000pt" viewBox="0 0 600.000000 600.000000"
 preserveAspectRatio="xMidYMid meet">
<metadata>
Created by potrace 1.15, written by Peter Selinger 2001-2017
</metadata>
<g transform="translate(0.000000,600.000000) scale(0.100000,-0.100000)"
fill="#16364b" stroke="none">
<path d="M1897 5788 c-29 -17 -47 -42 -84 -112 -25 -50 -88 -161 -138 -246
-122 -204 -133 -225 -156 -283 -64 -162 26 -298 186 -285 103 9 314 131 567
328 123 96 158 142 158 208 0 110 -107 190 -201 149 -19 -8 -72 -47 -119 -85
-47 -39 -86 -69 -89 -67 -2 2 23 54 54 116 67 130 74 184 35 239 -43 61 -142
78 -213 38z"/>
<path d="M3017 5696 c-46 -17 -64 -32 -83 -67 -35 -69 -7 -155 65 -196 161
-91 212 -123 301 -190 155 -115 255 -252 268 -369 4 -39 1 -47 -26 -72 -21
-20 -48 -31 -92 -40 -78 -14 -107 -33 -131 -85 -23 -52 -24 -75 -3 -127 34
-84 121 -104 255 -60 125 42 200 106 251 217 100 212 -3 473 -273 698 -160
133 -398 287 -464 299 -16 3 -47 -1 -68 -8z"/>
<path d="M903 5391 c-158 -46 -266 -158 -317 -330 -54 -183 38 -412 211 -521
86 -55 201 -31 244 50 39 72 17 139 -65 199 -64 48 -89 89 -89 148 0 75 40
114 151 144 37 11 78 27 92 37 32 23 70 97 70 136 0 40 -34 107 -68 131 -38
28 -146 31 -229 6z"/>
<path d="M2877 5099 c-127 -31 -220 -170 -220 -329 0 -137 64 -232 180 -266
75 -22 206 -14 267 16 78 37 108 133 67 213 -13 26 -17 46 -12 69 8 37 -7 118
-32 164 -54 105 -153 157 -250 133z"/>
<path d="M4795 4910 c-43 -13 -105 -68 -121 -106 -21 -50 -18 -205 6 -300 57
-226 198 -379 350 -379 105 0 213 76 263 185 33 71 29 178 -10 261 -59 126
-169 230 -318 303 -79 39 -127 49 -170 36z"/>
<path d="M1923 4710 c-187 -61 -241 -216 -109 -314 37 -28 107 -26 165 4 32
17 48 21 59 13 15 -9 19 -20 36 -94 8 -38 61 -85 111 -99 114 -32 215 42 215
157 -1 134 -88 272 -205 324 -71 32 -189 36 -272 9z"/>
<path d="M2934 3989 c-67 -16 -146 -69 -181 -122 -108 -161 -48 -358 138 -452
73 -38 167 -55 300 -55 104 0 120 2 149 23 69 45 93 134 57 207 -22 43 -22 43
13 63 60 36 86 129 56 200 -20 49 -64 80 -157 112 -71 24 -103 29 -209 31 -69
2 -143 -1 -166 -7z"/>
<path d="M1129 3970 c-172 -21 -226 -45 -266 -115 -70 -124 27 -278 175 -279
28 0 52 -2 52 -5 0 -3 -11 -21 -24 -40 -28 -42 -229 -367 -303 -491 -78 -130
-151 -277 -173 -349 -22 -70 -20 -112 10 -171 57 -113 211 -134 307 -43 21 20
79 65 128 101 50 36 142 106 205 157 63 51 196 153 295 228 l180 137 3 -61 c5
-101 -47 -291 -140 -510 -58 -138 -247 -482 -319 -581 -76 -105 -86 -147 -49
-224 56 -114 214 -96 314 37 149 198 426 778 498 1041 19 71 23 108 23 258 0
146 -3 186 -20 240 -45 148 -166 194 -339 130 -62 -24 -195 -105 -287 -176
-73 -56 -72 -46 9 67 105 148 150 224 171 287 28 82 27 154 -3 217 -49 104
-126 146 -280 150 -56 2 -131 0 -167 -5z"/>
<path d="M4270 3780 c-206 -36 -360 -199 -360 -382 0 -76 25 -132 84 -186 121
-111 330 -107 465 10 46 40 106 119 137 180 33 65 74 194 74 233 0 36 -32 88
-70 116 -44 32 -221 48 -330 29z m20 -325 c-23 -24 -60 -34 -60 -16 0 9 57 40
74 41 5 0 -1 -11 -14 -25z"/>
<path d="M3446 3385 c-74 -26 -129 -96 -192 -246 -39 -93 -43 -149 -14 -196
30 -50 61 -64 145 -69 87 -6 134 5 193 43 107 69 145 291 69 405 -25 37 -98
78 -137 78 -14 -1 -42 -7 -64 -15z"/>
<path d="M4904 3017 c-263 -194 -332 -483 -148 -624 34 -25 45 -28 118 -28 71
0 89 4 147 32 122 61 201 165 219 291 15 110 -12 201 -87 288 -56 66 -87 84
-146 84 -37 0 -55 -8 -103 -43z"/>
<path d="M3972 2585 c-92 -28 -152 -107 -152 -197 0 -25 16 -97 35 -159 40
-131 43 -155 18 -144 -55 23 -140 45 -172 45 -106 0 -218 -83 -261 -195 -74
-192 40 -705 186 -833 129 -114 310 -88 375 53 26 57 24 133 -6 207 -14 34
-24 63 -22 64 1 2 25 -8 53 -22 102 -50 216 -36 329 41 124 85 154 220 100
445 -36 148 -171 548 -200 592 -32 49 -84 87 -141 104 -57 17 -86 17 -142 -1z"/>
<path d="M2040 2191 c-94 -29 -215 -160 -281 -306 -34 -75 -21 -163 34 -223
l21 -22 -25 -17 c-55 -36 -156 -152 -191 -219 -48 -92 -68 -176 -68 -296 0
-299 132 -543 384 -709 168 -111 328 -155 531 -146 214 9 382 79 531 220 141
133 166 223 91 330 -17 25 -18 30 -4 45 68 77 257 535 308 747 21 88 25 199 9
257 -53 188 -280 266 -535 183 -89 -29 -295 -125 -387 -181 -32 -20 -62 -34
-65 -31 -3 3 -11 36 -18 74 -39 204 -129 305 -270 302 -22 0 -51 -4 -65 -8z
m956 -552 c-11 -58 -117 -314 -194 -469 -66 -134 -77 -162 -76 -207 0 -38 7
-61 27 -91 l27 -41 -51 -55 c-171 -187 -451 -180 -674 17 -110 97 -161 264
-121 400 19 65 65 124 115 144 37 16 42 13 61 -37 22 -60 88 -154 126 -179 25
-17 54 -26 94 -29 114 -8 199 62 208 172 4 49 -7 87 -45 157 -10 18 446 243
501 248 5 1 6 -13 2 -30z"/>
</g>
</svg>
