<?xml version="1.0" standalone="no"?>
<!DOCTYPE svg PUBLIC "-//W3C//DTD SVG 20010904//EN"
 "http://www.w3.org/TR/2001/REC-SVG-20010904/DTD/svg10.dtd">
<svg version="1.0" xmlns="http://www.w3.org/2000/svg"
 width="600.000000pt" height="600.000000pt" viewBox="0 0 600.000000 600.000000"
 preserveAspectRatio="xMidYMid meet">
<metadata>
Created by potrace 1.15, written by Peter Selinger 2001-2017
</metadata>
<g transform="translate(0.000000,600.000000) scale(0.100000,-0.100000)"
fill="#16364b" stroke="none">
<path d="M2615 5502 c-40 -25 -47 -34 -91 -122 -85 -169 -84 -288 2 -374 76
-75 184 -96 368 -71 70 9 130 14 133 11 4 -3 -46 -59 -109 -124 -168 -170
-192 -200 -341 -415 -110 -160 -119 -186 -87 -268 45 -113 53 -116 379 -129
144 -6 306 -15 359 -20 53 -6 135 -13 182 -16 83 -6 86 -6 118 21 65 54 80
126 40 185 -51 74 -73 79 -428 106 -124 9 -229 20 -234 24 -20 19 164 238 364
435 162 158 189 198 190 273 0 86 -49 153 -147 199 -81 38 -162 40 -329 9
-135 -25 -214 -32 -214 -21 0 3 14 33 31 66 26 49 31 68 27 104 -7 56 -41 103
-92 126 -52 24 -83 24 -121 1z"/>
<path d="M1630 5171 c-132 -42 -263 -125 -365 -232 -87 -91 -127 -146 -199
-274 -48 -86 -56 -107 -56 -153 0 -62 17 -99 62 -137 31 -26 35 -27 113 -21
173 13 325 18 360 12 l36 -7 -6 -142 c-7 -138 -6 -143 16 -176 40 -57 74 -76
134 -76 60 0 98 21 128 73 22 37 42 243 34 344 -10 124 -64 206 -171 258 -38
18 -71 24 -147 28 -55 3 -99 8 -99 11 0 13 106 110 164 150 32 22 74 45 95 52
55 18 91 48 112 93 24 53 24 97 0 144 -36 71 -104 88 -211 53z"/>
<path d="M4225 4689 c-150 -43 -343 -149 -369 -203 -34 -72 -9 -154 60 -193
59 -34 115 -30 194 13 88 47 205 102 235 110 22 5 25 3 25 -22 0 -44 -48 -191
-90 -274 -21 -41 -70 -124 -109 -184 -65 -100 -71 -113 -71 -162 0 -50 3 -57
55 -117 74 -88 85 -91 264 -71 140 15 321 15 379 -2 20 -6 22 -11 17 -38 -10
-49 -123 -383 -156 -460 -37 -85 -39 -142 -9 -190 58 -95 201 -109 260 -26 27
38 166 461 190 581 31 151 23 226 -30 304 -69 100 -179 135 -424 135 l-153 0
43 88 c83 169 133 369 120 481 -13 110 -64 186 -151 227 -64 31 -178 32 -280
3z"/>
<path d="M1941 4015 c-131 -63 -237 -101 -372 -135 -111 -27 -147 -46 -170
-92 -50 -99 6 -221 109 -235 74 -10 434 104 587 185 58 30 74 45 93 82 28 55
25 114 -9 164 -52 77 -123 86 -238 31z"/>
<path d="M3767 3689 c-155 -31 -375 -197 -391 -295 -13 -76 35 -151 107 -169
53 -14 95 4 164 66 56 51 128 99 148 99 18 0 -27 -146 -97 -312 -50 -118 -51
-119 -102 -145 -110 -55 -148 -101 -148 -181 0 -51 20 -84 72 -119 53 -37 117
-31 210 16 42 22 134 63 204 91 164 65 216 92 258 132 44 42 73 115 64 161
-15 78 -89 147 -159 147 -36 0 -39 2 -33 23 22 73 37 188 31 242 -19 181 -152
280 -328 244z"/>
<path d="M2405 3474 c-89 -20 -284 -94 -330 -125 -86 -59 -87 -198 -2 -254 49
-31 89 -30 200 9 184 63 340 85 354 50 9 -25 -24 -119 -83 -234 -44 -86 -54
-113 -54 -155 0 -143 169 -208 267 -103 26 27 111 205 142 296 35 102 47 201
32 266 -24 108 -110 202 -221 241 -65 24 -220 28 -305 9z"/>
<path d="M1120 3172 c-107 -36 -180 -84 -207 -135 -20 -38 -22 -132 -3 -167
37 -72 100 -112 177 -114 29 0 53 -2 53 -3 0 -2 -9 -90 -19 -196 -45 -445 -36
-685 31 -780 44 -61 152 -85 234 -51 60 25 157 136 229 262 85 147 176 284
271 406 61 78 78 96 86 83 19 -36 40 -223 35 -322 -6 -98 -39 -280 -78 -420
-10 -38 -19 -87 -19 -108 0 -72 46 -128 121 -148 43 -11 50 -10 95 12 64 31
74 54 123 269 51 224 65 338 57 470 -10 153 -43 372 -68 437 -27 74 -88 135
-158 158 -143 47 -292 -43 -490 -298 -44 -57 -76 -91 -78 -82 -2 8 1 63 7 122
15 146 14 337 -3 398 -25 96 -71 157 -150 197 -58 30 -172 34 -246 10z"/>
<path d="M4829 2676 c-68 -18 -111 -47 -145 -98 -32 -47 -50 -122 -39 -157 6
-21 6 -21 -125 -41 -365 -56 -554 -244 -552 -549 2 -142 43 -284 113 -383 l19
-26 -31 -31 c-17 -17 -37 -31 -44 -31 -7 0 -73 24 -147 54 -185 75 -242 89
-359 84 -87 -3 -104 -7 -170 -40 -127 -63 -262 -221 -388 -456 -28 -53 -51
-82 -65 -86 -11 -3 -45 -23 -75 -46 -29 -22 -62 -40 -73 -40 -11 0 -37 17 -57
37 -78 79 -150 235 -201 435 -33 133 -54 169 -118 199 -122 59 -262 -34 -262
-175 0 -90 58 -329 113 -465 66 -162 194 -307 332 -376 79 -39 81 -40 195 -40
112 0 117 1 193 37 43 21 100 55 125 76 26 22 65 48 87 60 51 25 62 39 115
137 75 140 188 304 232 335 66 48 98 43 332 -55 159 -67 286 -67 399 -1 84 49
157 148 157 212 0 27 7 36 55 65 67 41 112 102 127 173 15 68 2 116 -49 183
-45 59 -73 121 -76 170 -2 35 1 40 34 55 19 10 98 30 175 44 280 51 408 152
445 349 14 74 5 221 -16 273 -24 56 -73 101 -129 117 -58 18 -66 18 -127 1z"/>
<path d="M3145 2525 c-88 -15 -306 -70 -472 -121 -130 -39 -183 -97 -183 -199
0 -86 54 -155 136 -173 44 -9 63 -6 229 36 143 37 393 84 405 77 5 -3 0 -37
-11 -75 -10 -38 -19 -86 -19 -107 0 -82 82 -185 158 -198 96 -16 173 37 215
150 63 166 77 305 41 406 -27 76 -110 159 -187 188 -77 28 -198 34 -312 16z"/>
</g>
</svg>
