<?xml version="1.0" standalone="no"?>
<!DOCTYPE svg PUBLIC "-//W3C//DTD SVG 20010904//EN"
 "http://www.w3.org/TR/2001/REC-SVG-20010904/DTD/svg10.dtd">
<svg version="1.0" xmlns="http://www.w3.org/2000/svg"
 width="600.000000pt" height="600.000000pt" viewBox="0 0 600.000000 600.000000"
 preserveAspectRatio="xMidYMid meet">
<metadata>
Created by potrace 1.15, written by Peter Selinger 2001-2017
</metadata>
<g transform="translate(0.000000,600.000000) scale(0.100000,-0.100000)"
fill="#16364b" stroke="none">
<path d="M3520 5240 l-20 -39 20 -54 c60 -161 220 -276 292 -210 26 24 22 71
-12 139 -67 134 -142 204 -216 204 -41 0 -45 -3 -64 -40z m158 -149 c13 -23
21 -41 18 -41 -8 0 -66 81 -66 93 0 17 25 -10 48 -52z"/>
<path d="M3021 5079 c-46 -18 -106 -76 -130 -125 -70 -140 -10 -276 108 -244
51 13 130 85 164 149 50 91 44 190 -12 221 -24 12 -98 12 -130 -1z m83 -87 c3
-5 1 -26 -5 -47 -11 -40 -102 -145 -125 -145 -21 0 -17 64 6 109 32 64 106
113 124 83z"/>
<path d="M4776 4707 c-20 -21 -25 -38 -31 -120 -4 -53 -5 -172 -3 -264 4 -184
16 -230 64 -252 113 -51 177 76 154 305 -18 171 -58 327 -90 344 -31 17 -70
11 -94 -13z"/>
<path d="M2635 4198 c-34 -27 -53 -70 -47 -109 15 -102 337 -209 467 -155 41
17 65 52 72 104 4 31 0 44 -22 70 -15 18 -35 32 -44 32 -10 0 -51 11 -92 25
-174 60 -286 71 -334 33z"/>
<path d="M1445 4003 c-60 -24 -102 -59 -132 -111 -25 -41 -28 -57 -28 -132 0
-69 4 -93 23 -129 28 -52 98 -122 145 -145 97 -45 186 -227 227 -461 56 -315
106 -723 115 -925 10 -240 40 -381 110 -520 109 -216 274 -340 506 -380 35 -6
77 -13 93 -16 l28 -6 -49 -52 c-76 -78 -122 -144 -138 -199 -20 -66 -19 -83 5
-132 28 -57 78 -83 245 -125 77 -19 139 -39 138 -45 -1 -5 -30 -18 -65 -27
-71 -20 -128 -69 -128 -112 0 -109 137 -140 258 -58 121 82 153 210 75 301
-37 44 -84 62 -263 101 -52 11 -101 24 -109 29 -33 21 16 91 164 233 l80 77
195 -11 c107 -5 295 -7 417 -4 l223 6 -6 -58 c-8 -77 8 -123 57 -165 37 -33
120 -67 160 -67 25 0 24 -6 -6 -42 -30 -36 -32 -67 -5 -100 29 -38 72 -52 140
-45 71 6 120 34 161 90 32 44 36 80 15 132 -19 45 -71 70 -194 95 -144 30
-162 37 -162 66 0 20 11 30 61 54 34 16 66 33 73 39 6 5 59 16 118 25 304 48
627 156 773 260 237 170 368 527 296 809 -52 203 -204 396 -380 484 -51 26
-65 28 -166 28 -129 0 -204 -21 -306 -86 -185 -116 -403 -168 -654 -156 -194
9 -342 49 -530 143 -185 92 -312 203 -419 368 -29 44 -91 140 -138 211 -132
204 -365 476 -503 589 -61 50 -244 155 -299 171 -64 19 -170 18 -221 -2z m183
-220 c189 -101 261 -157 390 -303 103 -117 238 -293 322 -420 220 -334 378
-485 634 -606 105 -49 241 -96 341 -119 110 -25 437 -32 561 -11 135 22 278
69 355 116 143 88 187 105 274 104 100 0 156 -25 220 -97 118 -130 173 -347
130 -512 -40 -153 -152 -298 -280 -362 -149 -75 -428 -161 -611 -188 -150 -22
-754 -38 -959 -25 -88 6 -241 14 -340 19 -304 15 -432 67 -527 213 -79 121
-109 250 -132 560 -9 115 -31 308 -50 430 -19 123 -42 279 -51 348 -32 237
-66 362 -140 516 -49 101 -115 181 -181 220 -50 29 -94 77 -94 103 0 48 62 54
138 14z"/>
<path d="M2388 2479 c-29 -16 -23 -73 8 -98 33 -26 56 -27 76 -3 44 49 24 112
-35 112 -17 0 -40 -5 -49 -11z"/>
<path d="M2817 2082 c-24 -26 -21 -59 8 -87 32 -33 68 -32 94 1 25 32 26 52 5
82 -20 28 -83 31 -107 4z"/>
<path d="M5267 3990 c-92 -24 -174 -85 -215 -164 -24 -46 -27 -62 -27 -151 0
-122 20 -171 105 -255 102 -103 230 -117 378 -41 141 72 223 252 178 389 -26
77 -66 125 -151 177 -72 45 -82 49 -154 51 -42 2 -93 -1 -114 -6z m129 -323
c9 -9 -9 -35 -31 -45 -17 -8 -26 -8 -33 1 -14 19 -21 44 -14 52 7 7 70 0 78
-8z"/>
<path d="M4145 3722 c-119 -57 -191 -177 -182 -302 5 -82 31 -134 96 -192 52
-47 127 -78 190 -78 21 0 66 10 102 22 85 29 167 108 194 187 28 86 4 236 -49
298 -43 51 -131 88 -216 91 -66 3 -82 -1 -135 -26z m135 -260 c0 -10 -5 -23
-12 -30 -15 -15 -48 -16 -48 0 0 16 31 48 47 48 7 0 13 -8 13 -18z"/>
<path d="M462 1998 c-29 -29 -13 -57 61 -109 89 -63 198 -119 232 -119 34 0
59 39 46 72 -11 30 -40 48 -178 117 -104 52 -140 60 -161 39z"/>
<path d="M5377 1118 c-47 -17 -96 -150 -83 -223 7 -38 56 -85 87 -85 44 0 88
28 110 71 23 45 36 140 25 183 -11 45 -83 73 -139 54z"/>
</g>
</svg>
