<?xml version="1.0" standalone="no"?>
<!DOCTYPE svg PUBLIC "-//W3C//DTD SVG 20010904//EN"
 "http://www.w3.org/TR/2001/REC-SVG-20010904/DTD/svg10.dtd">
<svg version="1.0" xmlns="http://www.w3.org/2000/svg"
 width="600.000000pt" height="600.000000pt" viewBox="0 0 600.000000 600.000000"
 preserveAspectRatio="xMidYMid meet">
<metadata>
Created by potrace 1.15, written by Peter Selinger 2001-2017
</metadata>
<g transform="translate(0.000000,600.000000) scale(0.100000,-0.100000)"
fill="#16364b" stroke="none">
<path d="M2044 5820 c-12 -5 -53 -46 -90 -93 -38 -46 -121 -141 -184 -211
-188 -208 -293 -367 -305 -462 -13 -94 45 -178 141 -203 72 -19 168 9 319 92
39 22 169 91 290 154 121 63 232 127 248 141 93 88 13 262 -121 262 -16 0 -84
-27 -152 -60 -67 -34 -124 -59 -126 -58 -1 2 34 44 78 93 102 114 118 140 118
193 0 53 -18 90 -65 131 -30 26 -44 31 -83 30 -26 0 -57 -4 -68 -9z"/>
<path d="M3009 5659 c-121 -71 -77 -219 78 -264 198 -58 343 -162 405 -291 38
-82 60 -187 48 -239 -12 -56 -71 -106 -157 -134 -76 -24 -103 -43 -127 -89
-32 -61 -12 -136 49 -184 24 -19 42 -23 95 -23 56 0 77 6 152 43 119 58 206
139 254 238 32 64 37 85 41 166 14 260 -131 515 -376 662 -45 27 -135 69 -199
92 -137 51 -205 56 -263 23z"/>
<path d="M960 5377 c-352 -119 -470 -503 -240 -781 48 -58 115 -115 157 -132
89 -38 191 13 209 104 11 52 -14 103 -85 172 -37 36 -75 83 -85 104 -22 47
-17 116 11 155 18 25 39 37 157 93 141 67 121 273 -29 301 -19 3 -56 -3 -95
-16z"/>
<path d="M2809 4996 c-57 -20 -105 -54 -150 -104 -136 -154 -128 -347 18 -458
75 -57 144 -78 264 -78 100 -1 107 0 142 27 84 64 70 194 -25 243 -20 10 -51
15 -87 13 -78 -3 -101 -1 -101 11 0 5 22 9 48 9 82 -2 141 43 163 123 38 141
-123 267 -272 214z"/>
<path d="M4765 4904 c-98 -51 -120 -116 -94 -287 30 -209 123 -363 259 -432
44 -23 174 -32 223 -16 49 17 122 83 140 129 37 93 30 198 -22 307 -54 114
-166 210 -330 281 -84 37 -131 42 -176 18z"/>
<path d="M1943 4650 c-63 -13 -130 -45 -190 -91 -103 -80 -120 -180 -44 -262
32 -33 45 -40 87 -44 41 -4 55 -1 84 21 48 36 96 57 113 50 8 -3 22 -23 32
-44 45 -99 138 -135 231 -89 89 42 108 131 54 245 -74 154 -226 243 -367 214z"/>
<path d="M2943 3943 c-56 -19 -135 -91 -172 -156 -69 -121 -91 -309 -51 -439
56 -182 213 -282 340 -216 25 13 55 38 67 57 44 66 21 161 -47 196 -54 28 -75
114 -47 195 11 33 15 35 66 42 60 7 95 28 129 79 20 29 23 44 20 96 -3 55 -8
67 -37 97 -58 60 -177 82 -268 49z"/>
<path d="M1190 3883 c-100 -19 -241 -58 -272 -75 -98 -55 -125 -185 -57 -277
41 -58 97 -83 170 -79 33 2 59 1 59 -1 0 -2 -42 -62 -93 -135 -153 -216 -212
-327 -323 -607 -72 -183 -73 -234 -2 -314 60 -70 169 -96 241 -59 30 16 174
135 282 233 57 52 75 68 319 281 217 188 216 188 216 161 0 -42 -40 -220 -70
-316 -85 -263 -254 -655 -337 -780 -40 -61 -51 -116 -33 -169 26 -81 135 -119
219 -77 50 26 92 86 181 262 169 332 296 714 340 1029 40 281 -40 444 -217
443 -92 -1 -173 -48 -387 -226 -44 -37 -81 -65 -83 -63 -2 2 31 59 73 127 163
261 195 386 133 505 -53 100 -117 137 -244 140 -49 1 -101 0 -115 -3z"/>
<path d="M4325 3804 c-16 -3 -63 -11 -103 -19 -197 -39 -312 -160 -312 -329 0
-87 23 -147 81 -210 83 -91 195 -123 319 -92 152 39 250 149 335 376 41 111
44 154 12 200 -38 58 -73 71 -194 75 -59 2 -121 1 -138 -1z m-35 -310 c0 -12
-45 -43 -62 -44 -27 0 -22 17 10 34 28 16 52 20 52 10z"/>
<path d="M3490 3411 c-103 -32 -153 -96 -219 -284 -36 -102 -39 -148 -12 -197
29 -55 70 -74 165 -74 144 -1 239 51 292 160 32 65 38 158 15 236 -15 52 -68
121 -110 142 -35 18 -100 27 -131 17z"/>
<path d="M4930 2939 c-33 -13 -193 -179 -239 -249 -61 -90 -76 -135 -76 -220
0 -67 4 -82 28 -118 91 -139 296 -141 433 -5 92 92 145 259 125 391 -11 70
-27 97 -100 165 -46 43 -54 47 -98 46 -26 0 -59 -5 -73 -10z"/>
<path d="M4053 2515 c-58 -29 -106 -91 -124 -159 -14 -50 -6 -136 21 -240 11
-44 19 -80 18 -82 -2 -1 -37 9 -78 24 -100 34 -224 37 -290 6 -131 -62 -190
-208 -161 -394 15 -90 59 -263 107 -418 27 -89 43 -122 72 -154 49 -55 102
-78 180 -78 68 0 109 15 155 59 74 68 84 153 38 316 -16 55 -25 101 -20 103 5
2 20 -10 34 -26 64 -76 179 -93 289 -43 176 80 245 234 202 450 -9 46 -40 163
-67 260 -28 97 -57 200 -65 228 -26 95 -106 160 -208 170 -42 4 -61 0 -103
-22z"/>
<path d="M2960 2190 c-109 -17 -258 -83 -478 -214 -110 -66 -132 -72 -132 -38
0 32 -58 118 -98 146 -77 53 -181 48 -264 -14 -56 -42 -157 -163 -184 -219
-11 -24 -15 -52 -12 -97 3 -52 9 -70 34 -101 37 -46 89 -73 143 -76 31 -1 41
-5 43 -19 0 -10 1 -23 2 -29 1 -5 -24 -20 -55 -33 -187 -76 -276 -241 -267
-496 7 -186 60 -308 198 -453 121 -128 343 -262 501 -303 177 -46 380 2 574
136 164 114 214 209 166 315 -34 76 -116 123 -193 111 -54 -9 -86 -27 -152
-84 -162 -142 -320 -155 -487 -41 -107 73 -136 104 -181 196 -35 70 -40 90
-40 147 0 72 19 116 51 116 11 0 39 -27 70 -70 55 -74 119 -132 164 -149 107
-41 234 37 251 153 11 70 -10 129 -71 204 -64 78 -77 102 -109 194 -24 73 -25
71 26 82 14 3 123 53 242 111 119 58 230 108 247 111 31 7 32 6 25 -22 -21
-95 -104 -318 -165 -443 -80 -167 -89 -205 -62 -275 26 -71 77 -109 152 -114
125 -9 171 31 270 233 74 150 124 277 168 427 23 80 27 111 28 223 0 127 -1
132 -33 201 -39 83 -88 135 -152 163 -55 23 -146 32 -220 21z"/>
</g>
</svg>
