<?xml version="1.0" standalone="no"?>
<!DOCTYPE svg PUBLIC "-//W3C//DTD SVG 20010904//EN"
 "http://www.w3.org/TR/2001/REC-SVG-20010904/DTD/svg10.dtd">
<svg version="1.0" xmlns="http://www.w3.org/2000/svg"
 width="600.000000pt" height="600.000000pt" viewBox="0 0 600.000000 600.000000"
 preserveAspectRatio="xMidYMid meet">
<metadata>
Created by potrace 1.15, written by Peter Selinger 2001-2017
</metadata>
<g transform="translate(0.000000,600.000000) scale(0.100000,-0.100000)"
fill="#16364b" stroke="none">
<path d="M2268 5812 c-15 -9 -114 -83 -222 -164 -310 -234 -544 -444 -587
-528 -14 -29 -23 -64 -23 -97 -1 -43 4 -57 30 -89 53 -66 92 -79 224 -78 110
1 127 5 379 73 311 84 490 150 537 198 73 73 68 197 -11 249 -47 31 -93 28
-195 -11 -128 -50 -352 -126 -357 -121 -5 5 162 138 316 253 58 43 114 90 125
105 28 39 26 107 -5 153 -45 66 -152 96 -211 57z"/>
<path d="M3082 5689 c-74 -37 -106 -153 -62 -224 24 -39 60 -57 175 -84 167
-40 297 -119 336 -206 12 -26 19 -64 19 -107 0 -159 -86 -268 -297 -376 -137
-71 -163 -98 -163 -173 0 -60 30 -106 84 -130 55 -24 83 -19 204 37 311 144
462 349 462 628 0 255 -125 425 -414 562 -82 39 -189 73 -272 88 -20 3 -45 -2
-72 -15z"/>
<path d="M932 5291 c-135 -65 -242 -164 -295 -271 -58 -117 -49 -263 26 -404
37 -70 149 -193 231 -253 48 -36 66 -43 103 -43 60 0 110 31 134 84 38 84 14
157 -73 216 -126 87 -179 204 -128 288 12 20 56 56 110 90 100 64 130 103 130
172 0 84 -49 140 -129 147 -36 3 -60 -2 -109 -26z"/>
<path d="M2664 4950 c-109 -54 -232 -187 -275 -297 -18 -46 -23 -78 -23 -158
-1 -94 1 -105 32 -167 56 -115 176 -204 332 -247 98 -27 148 -27 190 2 68 45
93 140 54 207 -18 30 -85 70 -117 70 -30 0 -127 41 -157 66 -74 63 -32 178 97
261 60 38 83 75 83 130 0 57 -29 104 -80 131 -54 27 -83 28 -136 2z"/>
<path d="M4817 4960 c-39 -12 -95 -56 -118 -94 -41 -67 -12 -302 55 -442 99
-209 334 -286 477 -157 76 69 103 169 79 288 -38 187 -186 339 -389 399 -60
18 -64 18 -104 6z"/>
<path d="M1804 4416 c-91 -33 -152 -73 -215 -136 -93 -96 -120 -177 -80 -250
55 -105 191 -107 262 -3 32 46 87 88 130 98 19 5 48 -3 97 -24 81 -35 132 -39
182 -12 71 38 95 133 51 204 -27 45 -106 103 -171 128 -70 27 -177 25 -256 -5z"/>
<path d="M2575 3817 c-84 -16 -106 -27 -141 -73 -51 -67 -43 -154 21 -214 30
-28 70 -31 221 -16 45 5 98 6 119 2 36 -7 37 -8 30 -44 -20 -108 -180 -335
-378 -535 -128 -129 -128 -129 -138 -180 -11 -60 5 -111 44 -140 77 -58 146
-39 277 75 52 45 101 87 108 93 42 34 185 204 238 286 132 200 190 370 166
481 -27 117 -104 205 -219 248 -71 27 -243 35 -348 17z"/>
<path d="M4297 3800 c-195 -24 -341 -126 -378 -263 -15 -57 -6 -163 18 -217
29 -66 96 -135 158 -166 48 -23 64 -26 132 -22 56 2 92 10 126 27 66 32 157
119 211 200 64 96 136 249 136 288 0 58 -44 120 -101 142 -38 14 -223 21 -302
11z m-27 -330 c-12 -22 -41 -40 -64 -40 -30 0 -16 21 27 40 52 24 50 24 37 0z"/>
<path d="M1175 3734 c-103 -21 -136 -30 -198 -55 -91 -38 -135 -72 -158 -123
-41 -90 -6 -203 80 -258 42 -27 52 -29 114 -25 65 4 67 4 61 -17 -4 -11 -49
-109 -101 -216 -143 -294 -196 -430 -239 -605 -31 -129 -24 -175 35 -238 39
-43 74 -57 141 -57 76 0 101 13 210 105 107 91 188 170 373 367 144 153 253
255 262 246 3 -2 -17 -92 -45 -199 -27 -107 -68 -275 -90 -374 -37 -158 -62
-241 -153 -497 -19 -56 -19 -59 -2 -103 23 -61 72 -95 139 -95 98 0 125 34
214 266 61 159 92 261 132 429 35 150 103 403 131 491 13 40 19 89 19 145 -1
234 -83 355 -240 353 -112 -1 -212 -69 -489 -329 l-75 -70 44 80 c104 190 179
349 190 402 38 183 -55 336 -228 372 -53 11 -89 12 -127 5z"/>
<path d="M3549 3366 c-146 -39 -244 -191 -256 -396 -5 -77 -3 -88 18 -119 51
-73 149 -93 275 -56 173 50 287 160 301 289 20 175 -165 329 -338 282z"/>
<path d="M4825 2740 c-61 -24 -275 -343 -275 -409 0 -7 -17 2 -40 23 -51 46
-100 66 -162 66 -163 0 -251 -139 -203 -320 15 -56 20 -110 9 -110 -3 0 -51
12 -107 27 -138 36 -318 39 -387 7 -57 -27 -113 -84 -142 -143 -30 -62 -35
-178 -13 -301 9 -52 29 -177 45 -276 15 -100 35 -194 43 -210 40 -77 102 -114
192 -114 96 0 167 45 212 134 34 68 33 126 -6 290 -17 70 -31 130 -31 132 0 7
78 -25 143 -60 56 -30 79 -36 128 -36 87 0 181 27 242 69 103 72 158 243 144
452 l-6 87 47 -15 c136 -41 323 71 411 246 44 90 66 190 56 258 -6 41 -16 56
-72 111 -35 35 -79 72 -96 82 -33 21 -96 25 -132 10z"/>
<path d="M2904 2400 c-112 -15 -390 -135 -540 -233 -54 -35 -94 -100 -94 -153
l0 -32 -67 -4 c-80 -5 -142 -32 -209 -91 -97 -85 -109 -195 -32 -283 37 -42
72 -61 127 -70 34 -5 42 -11 47 -33 3 -14 17 -70 31 -124 14 -54 24 -100 22
-101 -2 -2 -26 -15 -54 -29 -79 -40 -131 -91 -167 -165 -31 -63 -33 -73 -32
-172 0 -85 5 -116 23 -163 45 -115 228 -330 351 -413 139 -94 380 -163 524
-150 83 8 188 42 296 96 101 51 132 93 138 184 7 115 -59 196 -168 204 -50 4
-68 -1 -138 -32 -168 -76 -201 -80 -326 -41 -114 35 -195 92 -261 183 -51 69
-70 122 -45 122 21 0 70 -31 120 -75 97 -86 197 -86 291 2 67 63 93 120 86
189 -7 65 -31 101 -103 155 -60 44 -106 101 -136 168 -17 36 -118 417 -118
444 0 4 14 7 30 7 18 0 114 40 231 96 110 52 209 94 219 92 18 -3 17 -10 -21
-123 -39 -117 -92 -235 -164 -363 -40 -72 -43 -108 -16 -168 46 -101 201 -148
303 -92 34 19 50 39 85 105 24 45 62 129 83 187 61 159 140 442 147 521 13
162 -73 293 -221 338 -67 20 -166 27 -242 17z"/>
</g>
</svg>
