<?xml version="1.0" standalone="no"?>
<!DOCTYPE svg PUBLIC "-//W3C//DTD SVG 20010904//EN"
 "http://www.w3.org/TR/2001/REC-SVG-20010904/DTD/svg10.dtd">
<svg version="1.0" xmlns="http://www.w3.org/2000/svg"
 width="600.000000pt" height="600.000000pt" viewBox="0 0 600.000000 600.000000"
 preserveAspectRatio="xMidYMid meet">
<metadata>
Created by potrace 1.15, written by Peter Selinger 2001-2017
</metadata>
<g transform="translate(0.000000,600.000000) scale(0.100000,-0.100000)"
fill="#16364b" stroke="none">
<path d="M2287 5650 c-69 -22 -117 -52 -175 -110 -127 -127 -155 -265 -172
-829 -5 -176 -12 -332 -16 -347 -4 -15 -1 -137 6 -271 11 -195 11 -274 1 -391
-6 -81 -16 -237 -21 -346 -6 -110 -12 -201 -14 -204 -8 -8 -121 82 -205 162
-46 45 -110 117 -143 160 l-58 80 36 37 c50 51 28 85 -23 37 -13 -12 -25 -19
-28 -17 -2 3 3 31 11 63 12 46 13 61 3 67 -19 12 -34 1 -58 -42 -25 -45 -35
-44 -51 6 -8 25 -17 35 -32 35 -19 0 -20 -4 -15 -51 l6 -51 -35 27 c-28 22
-38 25 -44 14 -9 -13 0 -35 30 -79 10 -14 35 -56 55 -95 21 -38 58 -97 83
-130 73 -96 259 -274 365 -349 80 -56 97 -73 97 -94 0 -14 -7 -114 -16 -222
-43 -516 50 -1026 227 -1257 82 -106 226 -194 378 -231 l73 -18 -1 -124 c-2
-172 32 -379 89 -544 30 -88 31 -86 -59 -86 -102 0 -135 -7 -166 -36 -34 -31
-34 -86 -1 -119 76 -76 298 -47 371 50 46 59 45 114 -3 275 -61 204 -76 287
-76 437 -1 72 2 134 6 138 3 4 39 2 80 -4 98 -14 296 -16 633 -6 l280 8 0
-149 c0 -163 19 -277 75 -456 43 -134 45 -128 -52 -128 -100 0 -144 -18 -173
-72 -18 -35 -19 -38 -3 -72 24 -48 68 -69 148 -69 114 0 194 37 241 112 40 62
38 108 -10 255 -70 216 -93 376 -72 503 l12 71 87 6 c262 20 347 37 445 88
103 55 176 159 211 303 47 190 68 797 32 949 -23 100 -105 263 -191 379 -42
56 -61 89 -53 92 7 2 36 12 63 21 70 23 198 88 279 143 93 61 236 198 282 269
20 31 48 74 62 96 23 33 24 40 11 50 -8 6 -18 19 -22 29 -8 21 -25 21 -51 2
-29 -22 -36 -19 -36 20 0 48 -25 46 -46 -2 -16 -37 -16 -37 -27 -15 -13 27
-43 25 -39 -3 1 -11 5 -41 8 -66 l6 -46 -68 -69 c-142 -143 -356 -265 -511
-290 l-38 -6 -109 122 c-60 67 -152 158 -205 202 -97 81 -359 259 -556 378
-59 36 -136 91 -171 123 -114 104 -208 270 -291 512 -86 252 -110 369 -123
605 -12 203 -29 298 -66 377 -80 168 -284 252 -467 193z m199 -159 c74 -34
120 -98 148 -207 8 -32 22 -144 30 -249 23 -268 65 -444 173 -710 138 -341
232 -459 484 -610 383 -230 561 -372 794 -636 268 -302 357 -444 386 -613 13
-81 7 -486 -11 -651 -29 -271 -99 -397 -243 -440 -113 -34 -403 -47 -927 -42
-520 6 -751 17 -836 40 -135 38 -259 142 -321 269 -62 127 -111 329 -133 550
-13 126 -10 371 9 623 6 83 15 267 21 410 5 143 15 349 22 457 9 154 9 237 0
380 -11 154 -10 209 3 348 8 91 15 264 15 384 0 467 41 620 182 690 64 32 143
34 204 7z"/>
<path d="M2576 2934 c-24 -23 -19 -60 10 -83 33 -26 58 -27 84 -1 41 41 13
100 -48 100 -17 0 -38 -7 -46 -16z"/>
<path d="M3225 2932 c-55 -12 -62 -66 -14 -107 40 -33 78 -30 98 7 29 52 -23
114 -84 100z"/>
<path d="M2739 1988 c-50 -40 -20 -84 68 -100 48 -9 109 -8 262 2 110 7 234
10 275 6 70 -6 76 -5 86 15 9 15 9 28 2 44 -19 41 -96 49 -318 35 -179 -12
-309 -10 -344 4 -9 4 -23 1 -31 -6z"/>
</g>
</svg>
