<?xml version="1.0" standalone="no"?>
<!DOCTYPE svg PUBLIC "-//W3C//DTD SVG 20010904//EN"
 "http://www.w3.org/TR/2001/REC-SVG-20010904/DTD/svg10.dtd">
<svg version="1.0" xmlns="http://www.w3.org/2000/svg"
 width="600.000000pt" height="600.000000pt" viewBox="0 0 600.000000 600.000000"
 preserveAspectRatio="xMidYMid meet">
<metadata>
Created by potrace 1.15, written by Peter Selinger 2001-2017
</metadata>
<g transform="translate(0.000000,600.000000) scale(0.100000,-0.100000)"
fill="#16364b" stroke="none">
<path d="M2344 5460 c-45 -14 -86 -65 -124 -156 -27 -63 -34 -96 -37 -164 -4
-78 -2 -90 24 -140 21 -41 40 -62 77 -85 46 -28 55 -30 145 -29 65 1 135 10
214 29 64 14 121 25 126 23 5 -2 -22 -46 -60 -98 -195 -264 -287 -423 -345
-596 -25 -74 -25 -78 -10 -125 9 -26 16 -62 16 -79 0 -63 52 -124 115 -136 21
-4 132 14 316 51 156 31 348 62 427 70 111 11 150 18 177 35 75 46 98 141 49
200 -49 57 -74 64 -229 63 -119 -1 -166 -6 -314 -37 -203 -42 -202 -42 -194
-18 27 74 166 294 329 522 124 172 143 296 58 389 -85 95 -223 109 -467 48
-157 -39 -148 -44 -111 54 15 40 16 52 6 87 -22 73 -109 115 -188 92z"/>
<path d="M1765 5010 c-33 -4 -78 -13 -100 -20 -151 -49 -475 -266 -537 -359
-11 -15 -18 -45 -18 -72 0 -38 7 -56 41 -102 22 -32 53 -64 69 -72 16 -8 82
-24 147 -35 310 -53 345 -67 456 -188 64 -70 152 -80 218 -25 59 50 74 124 40
192 -27 52 -127 142 -208 188 -37 20 -110 52 -163 70 -52 18 -99 35 -105 37
-29 11 163 76 228 76 114 0 188 120 137 224 -35 74 -93 98 -205 86z"/>
<path d="M3965 4905 c-110 -30 -249 -108 -304 -171 -27 -30 -31 -43 -31 -91 0
-51 3 -58 40 -95 39 -39 42 -40 98 -36 44 3 68 11 105 36 58 41 166 82 212 82
29 0 36 -4 41 -25 10 -42 -13 -138 -83 -346 -78 -233 -79 -248 -5 -319 26 -24
54 -58 63 -75 18 -33 69 -72 107 -82 14 -3 86 4 161 16 288 45 395 49 408 15
12 -32 -22 -182 -79 -346 -87 -253 -84 -240 -59 -291 49 -101 198 -117 260
-28 17 25 82 210 115 331 44 164 59 351 33 436 -41 136 -144 208 -316 220 -70
6 -359 -18 -395 -32 -23 -9 -20 9 19 118 93 262 104 411 40 539 -30 59 -103
123 -162 143 -57 20 -198 20 -268 1z"/>
<path d="M2085 3924 c-85 -30 -212 -56 -405 -84 -112 -16 -153 -26 -181 -45
-91 -59 -90 -196 2 -248 29 -16 48 -18 124 -13 280 17 591 91 661 158 62 59
65 155 7 210 -57 54 -103 59 -208 22z"/>
<path d="M3743 3735 c-76 -17 -204 -78 -393 -189 -180 -106 -186 -110 -206
-148 -33 -63 2 -164 70 -204 64 -37 99 -27 308 93 115 67 194 106 196 99 5
-22 -69 -218 -134 -357 -41 -87 -64 -148 -64 -171 0 -21 -9 -46 -21 -62 -27
-34 -36 -105 -19 -146 17 -41 72 -88 114 -95 41 -8 169 10 256 37 196 60 432
207 517 322 37 50 43 65 43 108 0 92 -60 158 -144 158 -60 0 -88 -15 -159 -88
-58 -59 -219 -161 -225 -143 -2 5 10 36 27 68 53 107 109 249 131 339 26 101
24 218 -3 270 -26 50 -78 94 -131 109 -59 18 -81 18 -163 0z"/>
<path d="M2315 3341 c-217 -38 -257 -51 -296 -90 -51 -51 -60 -105 -27 -169
18 -35 36 -52 72 -71 l48 -25 161 32 c89 18 177 32 195 32 30 0 32 -2 32 -33
0 -19 -9 -60 -20 -92 -38 -110 -18 -190 56 -232 51 -29 97 -29 149 2 34 20 48
37 74 95 123 276 55 495 -174 555 -75 19 -143 18 -270 -4z"/>
<path d="M1196 3079 c-184 -46 -218 -286 -50 -360 42 -19 42 -19 48 -82 3 -34
8 -120 11 -192 17 -385 51 -597 112 -703 19 -33 38 -50 76 -68 58 -27 75 -28
129 -14 107 30 163 147 123 260 -20 57 -19 61 11 50 54 -21 119 -6 155 36 9
11 37 60 64 109 63 120 120 200 166 232 15 12 19 7 34 -41 16 -50 16 -62 1
-168 -8 -62 -20 -160 -26 -218 -5 -58 -15 -142 -21 -187 -10 -73 -9 -85 9
-125 23 -53 46 -73 94 -86 77 -21 162 27 186 105 6 20 21 108 33 197 11 89 31
223 44 299 21 123 22 144 10 190 -7 29 -19 77 -25 107 -36 159 -147 270 -271
270 -172 0 -356 -143 -475 -370 l-29 -55 -6 65 c-4 36 -7 124 -8 195 -3 305
-60 460 -192 528 -61 31 -141 42 -203 26z"/>
<path d="M4871 3016 c-47 -17 -105 -68 -127 -113 -15 -29 -19 -60 -19 -132 l0
-94 -121 -64 c-267 -142 -350 -243 -390 -477 -35 -199 22 -385 157 -518 68
-67 68 -68 42 -74 -15 -4 -56 -34 -91 -67 l-65 -60 -136 9 c-324 21 -473 3
-610 -72 -110 -61 -237 -172 -343 -301 -14 -17 -42 -38 -61 -47 -19 -8 -63
-40 -97 -71 -34 -31 -83 -66 -108 -77 -61 -27 -141 -20 -213 18 -95 52 -230
205 -280 318 -39 90 -87 126 -164 126 -109 0 -205 -98 -205 -210 0 -145 268
-473 471 -575 107 -55 176 -70 314 -70 110 0 140 4 196 23 82 28 163 76 237
141 32 26 75 58 98 69 26 13 65 52 112 110 171 214 265 263 460 241 219 -25
286 -28 355 -19 141 20 284 117 338 228 39 80 27 190 -27 253 -12 13 -8 17 34
28 60 15 116 60 143 114 17 32 20 54 17 106 -3 67 -23 112 -80 184 -33 41 -38
152 -9 188 11 14 80 57 152 95 103 53 147 83 196 132 115 113 166 267 144 433
-12 90 -26 123 -73 169 -64 64 -163 87 -247 56z"/>
<path d="M3390 2333 c-218 -23 -635 -117 -707 -159 -47 -27 -88 -88 -98 -145
-22 -118 105 -248 218 -223 18 4 113 29 212 55 222 60 366 89 449 89 l63 0 6
-40 c6 -49 43 -100 94 -131 55 -35 155 -34 206 1 61 42 82 90 82 195 0 76 -4
98 -26 146 -75 160 -257 238 -499 212z"/>
</g>
</svg>
