<?xml version="1.0" standalone="no"?>
<!DOCTYPE svg PUBLIC "-//W3C//DTD SVG 20010904//EN"
 "http://www.w3.org/TR/2001/REC-SVG-20010904/DTD/svg10.dtd">
<svg version="1.0" xmlns="http://www.w3.org/2000/svg"
 width="600.000000pt" height="600.000000pt" viewBox="0 0 600.000000 600.000000"
 preserveAspectRatio="xMidYMid meet">
<metadata>
Created by potrace 1.15, written by Peter Selinger 2001-2017
</metadata>
<g transform="translate(0.000000,600.000000) scale(0.100000,-0.100000)"
fill="#16364b" stroke="none">
<path d="M2397 5382 c-12 -13 -17 -37 -17 -83 0 -187 -37 -493 -70 -582 -32
-86 -105 -159 -204 -206 -44 -21 -89 -41 -99 -45 -39 -13 -34 -75 8 -94 22
-10 37 -8 100 17 98 38 164 81 221 144 90 101 115 183 139 470 20 238 20 361
-1 381 -21 21 -57 20 -77 -2z"/>
<path d="M3550 5300 c-16 -4 -31 -19 -43 -44 -18 -37 -18 -39 4 -103 58 -175
218 -304 289 -233 43 43 32 103 -45 225 -75 120 -142 171 -205 155z"/>
<path d="M3015 5111 c-124 -56 -201 -250 -145 -362 46 -89 135 -88 223 3 54
55 103 149 113 216 19 127 -74 196 -191 143z m81 -106 c9 -22 -39 -115 -82
-160 l-39 -40 -3 34 c-5 49 23 115 64 151 39 33 52 37 60 15z"/>
<path d="M4775 4746 c-51 -22 -56 -49 -56 -270 -1 -220 11 -319 45 -369 59
-87 157 -69 201 37 54 129 -22 544 -110 598 -35 21 -40 21 -80 4z"/>
<path d="M2650 4212 c-73 -36 -84 -126 -23 -185 63 -59 213 -107 336 -107 100
0 151 15 184 54 30 35 27 85 -7 121 -34 36 -345 134 -425 135 -16 0 -46 -8
-65 -18z"/>
<path d="M5294 3999 c-123 -20 -235 -107 -268 -207 -77 -230 90 -466 329 -464
140 1 250 70 309 195 77 163 23 332 -137 430 -80 49 -141 61 -233 46z m75
-310 c36 -13 37 -16 14 -41 -23 -26 -51 -22 -65 8 -10 21 -9 27 3 35 8 5 14 9
15 9 1 0 15 -5 33 -11z"/>
<path d="M1322 3789 c-98 -17 -176 -70 -213 -146 -53 -112 -18 -264 85 -361
49 -46 70 -58 197 -115 36 -16 68 -40 91 -68 65 -80 127 -225 162 -379 28
-123 96 -541 112 -683 37 -334 94 -502 218 -634 57 -62 164 -136 239 -168 l39
-16 -42 -37 c-35 -31 -43 -45 -46 -82 -10 -95 59 -163 186 -180 77 -11 96 -10
310 16 69 9 152 14 185 12 l60 -3 3 -52 c3 -44 8 -56 33 -78 35 -29 49 -31 89
-10 37 19 53 73 41 138 -12 64 -71 132 -135 157 -38 14 -156 12 -283 -4 -165
-22 -235 -27 -273 -17 l-35 8 50 8 c28 4 109 18 180 31 122 22 142 23 290 14
88 -6 261 -13 385 -16 145 -4 242 -11 274 -20 64 -18 120 -18 280 2 120 15
130 15 139 -1 14 -26 71 -45 135 -45 76 0 118 26 152 97 l25 51 90 22 c196 49
378 134 501 236 378 313 448 744 187 1146 -80 122 -209 215 -353 253 -72 19
-220 19 -295 0 -86 -22 -211 -86 -275 -141 -112 -96 -306 -203 -460 -252 -299
-96 -585 -50 -835 136 -164 121 -290 264 -507 574 -232 332 -369 445 -674 557
-94 34 -215 63 -249 60 -5 -1 -34 -5 -63 -10z m211 -295 c285 -110 413 -233
737 -705 265 -387 633 -608 1040 -626 149 -6 244 9 419 67 248 81 415 165 538
269 113 96 221 131 337 110 80 -14 122 -37 178 -97 99 -105 154 -260 145 -407
-9 -155 -70 -282 -191 -398 -130 -126 -459 -246 -786 -287 -138 -17 -553 -40
-720 -40 -85 0 -209 5 -275 11 -66 6 -203 12 -305 14 -102 1 -198 5 -215 9
-248 63 -353 214 -400 579 -32 245 -108 703 -135 806 -40 158 -137 365 -219
469 -58 73 -120 119 -212 157 -89 38 -119 59 -119 86 0 38 49 34 183 -17z"/>
<path d="M2297 2402 c-25 -28 -21 -67 9 -91 46 -36 89 -21 100 35 12 60 -69
100 -109 56z"/>
<path d="M2834 2062 c-54 -36 -21 -112 49 -112 50 0 76 70 39 103 -19 17 -68
22 -88 9z"/>
<path d="M4223 3770 c-167 -34 -268 -156 -267 -320 1 -198 187 -336 377 -281
63 18 148 95 182 165 51 105 43 294 -17 362 -50 57 -183 93 -275 74z m57 -283
c0 -19 -29 -57 -45 -57 -24 0 -25 17 -4 44 22 27 49 35 49 13z"/>
<path d="M3447 3332 c-39 -40 -159 -289 -152 -313 9 -27 50 -52 74 -44 34 11
100 94 146 188 50 99 56 146 25 177 -28 28 -61 25 -93 -8z"/>
<path d="M475 2018 c-26 -15 -35 -28 -35 -55 0 -16 24 -39 86 -86 142 -107
238 -142 278 -101 20 19 21 63 1 91 -21 30 -102 79 -192 117 -105 45 -115 47
-138 34z"/>
<path d="M5343 1105 c-47 -33 -82 -204 -50 -246 34 -45 101 -51 145 -14 39 33
62 92 65 167 2 54 -1 62 -26 84 -33 28 -100 33 -134 9z"/>
</g>
</svg>
