<?xml version="1.0" standalone="no"?>
<!DOCTYPE svg PUBLIC "-//W3C//DTD SVG 20010904//EN"
 "http://www.w3.org/TR/2001/REC-SVG-20010904/DTD/svg10.dtd">
<svg version="1.0" xmlns="http://www.w3.org/2000/svg"
 width="600.000000pt" height="600.000000pt" viewBox="0 0 600.000000 600.000000"
 preserveAspectRatio="xMidYMid meet">
<metadata>
Created by potrace 1.15, written by Peter Selinger 2001-2017
</metadata>
<g transform="translate(0.000000,600.000000) scale(0.100000,-0.100000)"
fill="#16364b" stroke="none">
<path d="M1831 5809 c-42 -21 -47 -29 -141 -223 -128 -263 -172 -389 -177
-516 -4 -85 -2 -100 19 -139 34 -66 67 -86 141 -86 126 1 262 90 509 335 146
145 179 182 189 218 23 79 -23 161 -100 182 -55 14 -94 -1 -168 -67 -103 -91
-134 -116 -138 -111 -3 3 20 54 50 114 38 76 55 120 55 147 0 125 -127 202
-239 146z"/>
<path d="M3036 5699 c-62 -18 -106 -84 -106 -159 0 -67 22 -94 143 -177 324
-224 516 -422 505 -519 -3 -30 -17 -38 -91 -49 -21 -3 -52 -19 -72 -36 -68
-60 -68 -158 0 -226 30 -30 38 -33 96 -33 165 0 284 72 347 209 22 47 27 70
27 146 0 205 -95 336 -445 610 -163 127 -316 231 -350 238 -14 3 -38 1 -54 -4z"/>
<path d="M893 5419 c-127 -40 -237 -140 -285 -259 -20 -48 -23 -73 -23 -190 1
-117 4 -142 24 -190 50 -120 155 -217 245 -227 95 -11 176 62 176 158 0 51
-24 96 -76 141 -65 57 -82 128 -46 198 25 51 70 76 149 85 82 9 118 26 143 68
43 70 17 163 -59 214 -44 30 -157 31 -248 2z"/>
<path d="M2895 5128 c-107 -39 -185 -151 -185 -267 0 -187 157 -300 363 -261
77 14 120 38 148 82 18 29 20 44 15 113 -11 152 -54 253 -134 309 -36 25 -54
31 -110 33 -37 1 -80 -2 -97 -9z"/>
<path d="M4775 4886 c-42 -19 -82 -62 -95 -102 -27 -81 26 -373 87 -486 36
-66 108 -137 168 -164 127 -60 277 3 346 144 19 38 23 64 24 137 0 77 -4 98
-27 147 -50 107 -170 212 -329 287 -101 48 -134 55 -174 37z"/>
<path d="M2050 4830 c-135 -25 -240 -97 -254 -173 -9 -46 20 -111 61 -141 39
-28 120 -33 183 -10 50 18 52 18 65 0 8 -10 16 -44 20 -75 11 -112 66 -171
159 -171 38 0 61 6 87 24 51 35 69 79 69 170 0 246 -177 416 -390 376z"/>
<path d="M2900 4026 c-72 -15 -136 -52 -174 -99 -41 -51 -49 -143 -17 -204 75
-149 361 -228 694 -193 116 12 144 28 184 110 64 128 41 197 -92 267 -210 111
-431 155 -595 119z"/>
<path d="M1078 4021 c-130 -14 -203 -75 -215 -180 -11 -102 84 -191 203 -191
30 0 54 -4 54 -8 0 -5 -39 -56 -88 -114 -94 -113 -212 -284 -294 -426 -72
-125 -167 -327 -180 -383 -45 -194 201 -318 329 -165 31 37 259 211 423 323
58 40 166 117 240 172 74 56 138 101 143 101 17 0 5 -116 -23 -224 -52 -202
-134 -397 -240 -571 -121 -200 -179 -287 -231 -354 -68 -85 -86 -134 -68 -189
22 -71 81 -112 159 -112 61 0 101 22 151 81 65 78 76 95 224 349 183 317 252
480 326 778 29 116 31 133 27 261 -6 157 -21 208 -82 278 -60 69 -116 89 -199
72 -65 -15 -112 -43 -252 -153 -66 -52 -121 -93 -123 -91 -2 2 23 39 56 83 32
43 89 128 126 187 104 165 127 256 86 333 -38 72 -81 105 -166 127 -71 18
-279 27 -386 16z"/>
<path d="M4250 3780 c-255 -44 -395 -262 -296 -459 37 -73 80 -116 144 -148
120 -58 264 -22 381 97 84 85 181 283 181 369 0 45 -30 95 -67 115 -58 30
-241 44 -343 26z m15 -320 c-20 -22 -49 -27 -43 -7 5 13 50 39 57 32 2 -3 -4
-14 -14 -25z"/>
<path d="M3383 3391 c-53 -25 -115 -102 -167 -211 -33 -68 -41 -96 -41 -140 0
-102 67 -156 198 -159 86 -1 152 25 206 84 70 76 86 117 86 226 0 85 -3 99
-24 131 -39 57 -84 82 -155 85 -45 3 -72 -2 -103 -16z"/>
<path d="M4993 3105 c-102 -44 -237 -166 -279 -251 -62 -127 -47 -289 35 -377
82 -89 224 -87 358 5 193 131 228 430 68 576 -68 62 -118 75 -182 47z"/>
<path d="M3904 2631 c-106 -26 -184 -121 -184 -226 0 -17 22 -95 50 -175 27
-79 48 -146 46 -147 -2 -2 -24 6 -49 17 -139 62 -279 15 -342 -115 -21 -42
-28 -75 -33 -141 -5 -84 -5 -85 -17 -49 -56 161 -226 241 -431 202 -101 -19
-191 -56 -358 -147 -70 -38 -131 -70 -135 -70 -4 0 -15 33 -24 73 -60 259
-200 418 -366 417 -122 -1 -257 -129 -345 -328 -22 -50 -27 -75 -24 -120 3
-54 0 -61 -49 -135 -215 -321 -252 -690 -96 -956 166 -282 623 -505 929 -452
231 41 554 269 580 412 4 19 22 60 41 91 77 130 128 260 216 553 64 211 77
265 78 326 1 49 3 44 24 -61 29 -142 65 -250 117 -357 56 -116 127 -175 242
-204 89 -22 190 24 227 105 24 54 24 139 -1 194 -10 23 -17 42 -14 42 2 0 21
-7 42 -16 127 -53 313 31 378 171 52 115 41 216 -56 495 -119 339 -159 449
-180 490 -45 88 -160 136 -266 111z m-1819 -988 c39 -266 64 -343 128 -382 82
-50 176 -32 249 48 78 84 548 327 548 282 0 -21 -72 -227 -122 -348 -27 -67
-74 -164 -105 -215 -30 -51 -57 -106 -60 -123 -14 -73 -96 -159 -201 -208 -63
-30 -73 -32 -182 -31 -137 0 -190 17 -316 100 -141 93 -184 161 -192 304 -7
137 38 274 141 424 56 82 71 125 63 183 -6 43 5 83 23 83 5 0 16 -53 26 -117z"/>
</g>
</svg>
