<?xml version="1.0" standalone="no"?>
<!DOCTYPE svg PUBLIC "-//W3C//DTD SVG 20010904//EN"
 "http://www.w3.org/TR/2001/REC-SVG-20010904/DTD/svg10.dtd">
<svg version="1.0" xmlns="http://www.w3.org/2000/svg"
 width="600.000000pt" height="600.000000pt" viewBox="0 0 600.000000 600.000000"
 preserveAspectRatio="xMidYMid meet">
<metadata>
Created by potrace 1.15, written by Peter Selinger 2001-2017
</metadata>
<g transform="translate(0.000000,600.000000) scale(0.100000,-0.100000)"
fill="#16364b" stroke="none">
<path d="M1875 4777 c-98 -33 -173 -102 -195 -181 -19 -71 -9 -170 27 -251 70
-158 103 -364 128 -810 14 -226 15 -327 7 -520 -14 -323 -14 -766 -2 -895 17
-174 41 -313 59 -340 10 -14 29 -56 44 -94 60 -156 161 -286 286 -368 73 -48
194 -93 278 -105 48 -6 47 -3 34 -105 -13 -99 2 -195 64 -418 30 -110 55 -209
55 -220 0 -18 -7 -20 -85 -20 -135 0 -195 -35 -195 -115 0 -176 404 -108 451
76 11 42 9 55 -26 175 -99 337 -115 426 -96 540 l12 69 447 -1 c246 -1 463 -2
483 -3 l37 -1 -9 -37 c-28 -122 1 -341 72 -535 23 -62 42 -124 43 -138 1 -25
0 -25 -71 -22 -40 2 -89 -2 -108 -8 -42 -14 -75 -53 -75 -89 0 -82 99 -134
214 -113 123 23 203 92 213 184 4 36 -4 67 -47 178 -75 194 -102 305 -103 420
-1 67 4 106 15 131 15 35 18 36 79 42 140 14 526 95 590 125 179 82 288 247
319 479 19 146 -11 316 -81 457 -16 32 -29 68 -29 81 0 29 -89 116 -212 208
-105 78 -265 159 -414 211 -129 44 -638 306 -766 394 -177 121 -381 284 -473
377 -106 107 -159 192 -251 403 -68 154 -178 369 -223 437 -25 37 -71 114
-134 225 -66 118 -154 180 -262 186 -33 2 -78 -2 -100 -9z m131 -156 c45 -21
99 -87 139 -172 14 -30 42 -76 61 -104 32 -45 73 -126 304 -600 108 -220 191
-311 503 -554 190 -147 317 -227 520 -328 111 -56 239 -122 285 -147 46 -26
148 -71 227 -101 242 -90 285 -115 406 -235 59 -58 121 -128 138 -155 99 -156
109 -393 25 -571 -33 -69 -113 -157 -167 -183 -24 -11 -96 -32 -162 -45 -66
-14 -174 -38 -240 -53 l-120 -28 -535 0 c-868 1 -933 6 -1066 86 -169 102
-291 353 -323 664 -17 168 -23 787 -9 1031 25 466 -45 1094 -145 1289 -25 51
-27 130 -4 166 20 29 70 59 102 59 11 0 38 -9 61 -19z"/>
<path d="M2541 2664 c-12 -15 -21 -32 -21 -39 0 -17 57 -65 76 -65 23 0 64 47
64 73 0 57 -82 78 -119 31z"/>
<path d="M3012 2494 c-31 -21 -28 -60 7 -95 36 -36 54 -36 80 -3 33 42 27 80
-16 103 -29 15 -44 14 -71 -5z"/>
<path d="M5305 3990 c-160 -29 -254 -120 -271 -263 -17 -145 67 -321 180 -379
60 -31 156 -35 234 -10 153 49 245 178 246 347 1 127 -49 212 -162 276 -63 35
-138 45 -227 29z m95 -336 c0 -23 -46 -40 -65 -24 -18 15 -20 47 -2 53 20 7
67 -14 67 -29z"/>
<path d="M5345 1096 c-28 -28 -55 -113 -55 -173 0 -88 89 -137 157 -87 41 31
57 70 61 156 4 72 2 79 -22 102 -35 36 -106 37 -141 2z"/>
</g>
</svg>
