<?xml version="1.0" standalone="no"?>
<!DOCTYPE svg PUBLIC "-//W3C//DTD SVG 20010904//EN"
 "http://www.w3.org/TR/2001/REC-SVG-20010904/DTD/svg10.dtd">
<svg version="1.0" xmlns="http://www.w3.org/2000/svg"
 width="600.000000pt" height="600.000000pt" viewBox="0 0 600.000000 600.000000"
 preserveAspectRatio="xMidYMid meet">
<metadata>
Created by potrace 1.15, written by Peter Selinger 2001-2017
</metadata>
<g transform="translate(0.000000,600.000000) scale(0.100000,-0.100000)"
fill="#16364b" stroke="none">
<path d="M1459 5699 c-52 -39 -134 -99 -184 -134 -126 -89 -150 -116 -150
-170 0 -76 74 -125 169 -110 116 19 468 113 503 136 93 58 18 209 -88 179 -48
-14 -52 -13 -35 12 32 45 13 119 -35 144 -53 27 -80 18 -180 -57z"/>
<path d="M2352 5401 l-29 -29 -6 -184 c-8 -226 -30 -340 -87 -455 -46 -94 -91
-138 -200 -198 -57 -31 -76 -48 -88 -75 -28 -68 20 -140 95 -140 45 0 188 87
258 158 74 74 131 176 169 302 37 126 50 235 51 428 l0 174 -28 24 c-41 35
-97 33 -135 -5z"/>
<path d="M3512 5335 c-12 -9 -29 -33 -38 -53 -66 -154 175 -437 323 -380 70
26 96 106 63 189 -18 46 -76 138 -109 172 -60 66 -193 105 -239 72z"/>
<path d="M2982 5134 c-87 -43 -151 -136 -171 -250 -31 -174 90 -272 248 -199
129 60 165 120 166 275 0 68 -4 92 -21 120 -47 81 -129 101 -222 54z"/>
<path d="M4735 4727 c-30 -30 -33 -39 -40 -120 -21 -256 67 -497 202 -554 51
-21 122 -16 167 10 116 71 151 251 77 402 -38 76 -162 214 -239 265 -65 43
-122 42 -167 -3z"/>
<path d="M2678 4217 c-108 -31 -180 -113 -180 -206 2 -166 167 -276 363 -241
127 22 301 131 329 205 25 67 3 145 -53 182 -80 53 -355 89 -459 60z"/>
<path d="M1067 4099 c-31 -23 -52 -86 -43 -122 11 -44 54 -85 109 -103 80 -25
147 -55 147 -65 0 -13 -117 -10 -189 5 -79 16 -120 7 -155 -35 -28 -33 -34
-81 -15 -121 29 -65 169 -103 349 -96 88 4 113 9 155 30 86 44 125 106 125
196 0 98 -71 192 -192 253 -156 79 -243 96 -291 58z"/>
<path d="M4154 3759 c-68 -26 -132 -84 -169 -150 -40 -74 -47 -188 -16 -270
46 -121 141 -189 267 -189 210 0 343 147 361 400 9 131 -18 167 -156 210 -85
27 -216 26 -287 -1z m130 -310 c-17 -18 -54 -27 -54 -11 0 15 16 31 40 40 31
12 38 -2 14 -29z"/>
<path d="M5178 3726 c-123 -36 -202 -99 -246 -195 -53 -115 -9 -277 103 -379
159 -145 382 -91 492 120 24 47 27 64 28 148 0 117 -20 167 -97 241 -101 98
-139 107 -280 65z m92 -299 c0 -19 -37 -50 -49 -42 -25 15 -2 55 31 55 10 0
18 -6 18 -13z"/>
<path d="M1627 3678 c-41 -32 -38 -114 10 -263 41 -129 87 -184 157 -192 40
-5 48 -2 75 24 41 41 49 91 27 173 -20 77 -64 154 -127 221 -39 43 -50 49 -85
49 -22 0 -48 -6 -57 -12z"/>
<path d="M3414 3351 c-36 -22 -99 -113 -150 -216 -34 -68 -35 -76 -24 -110 25
-74 107 -95 199 -49 114 57 194 240 147 333 -31 60 -111 79 -172 42z"/>
<path d="M2175 3059 c-153 -8 -248 -25 -484 -85 -205 -52 -305 -97 -406 -181
-176 -148 -263 -330 -252 -528 12 -205 106 -344 349 -517 168 -119 237 -193
311 -335 91 -173 169 -254 312 -323 204 -98 427 -91 721 23 51 20 167 54 258
76 415 103 643 215 892 438 197 176 293 371 294 594 0 119 -18 183 -76 271
-96 144 -275 273 -434 312 -282 70 -442 102 -565 111 -50 4 -151 27 -270 60
-297 84 -392 96 -650 84z m298 -400 c32 -6 128 -30 213 -54 191 -55 372 -92
501 -105 54 -5 134 -18 178 -29 44 -10 112 -24 150 -31 39 -6 89 -20 112 -30
49 -22 138 -107 154 -146 14 -38 -3 -111 -43 -188 -45 -87 -199 -237 -307
-300 -137 -80 -519 -229 -646 -251 -22 -4 -87 -28 -145 -52 -211 -90 -341
-104 -454 -49 -68 33 -105 76 -187 214 -79 131 -226 284 -369 382 -156 107
-200 165 -200 263 0 84 68 191 153 240 97 56 370 128 577 151 52 6 247 -3 313
-15z"/>
<path d="M418 2205 c-65 -36 -63 -81 11 -245 127 -281 223 -386 369 -406 119
-15 222 62 222 167 0 62 -23 112 -82 174 -87 94 -401 309 -467 320 -14 3 -38
-2 -53 -10z"/>
<path d="M4775 1656 c-16 -7 -38 -23 -49 -34 -14 -16 -23 -19 -37 -12 -30 16
-90 11 -125 -10 -21 -14 -39 -36 -50 -66 -16 -42 -16 -49 1 -137 46 -238 114
-335 226 -325 93 9 154 85 191 238 25 101 33 257 16 289 -31 57 -114 85 -173
57z"/>
</g>
</svg>
