<?xml version="1.0" standalone="no"?>
<!DOCTYPE svg PUBLIC "-//W3C//DTD SVG 20010904//EN"
 "http://www.w3.org/TR/2001/REC-SVG-20010904/DTD/svg10.dtd">
<svg version="1.0" xmlns="http://www.w3.org/2000/svg"
 width="600.000000pt" height="600.000000pt" viewBox="0 0 600.000000 600.000000"
 preserveAspectRatio="xMidYMid meet">
<metadata>
Created by potrace 1.15, written by Peter Selinger 2001-2017
</metadata>
<g transform="translate(0.000000,600.000000) scale(0.100000,-0.100000)"
fill="#16364b" stroke="none">
<path d="M3125 5656 c-76 -34 -100 -96 -100 -261 0 -114 2 -123 31 -185 17
-36 51 -85 75 -109 50 -50 168 -109 272 -136 37 -9 67 -21 67 -26 0 -8 -130
-96 -350 -235 -174 -110 -233 -161 -249 -214 -7 -24 -26 -56 -42 -72 -57 -58
-59 -151 -3 -218 48 -57 72 -63 274 -71 102 -5 224 -11 271 -15 l85 -7 37 33
c67 58 73 162 13 227 -34 38 -66 48 -184 59 l-76 7 25 20 c13 10 89 58 169
105 305 180 385 249 410 352 38 159 -72 271 -343 349 -192 56 -208 74 -186
210 11 64 10 73 -11 115 -35 74 -113 104 -185 72z"/>
<path d="M1280 5364 c-204 -113 -327 -280 -404 -548 -53 -181 -58 -370 -13
-437 36 -53 69 -71 126 -71 37 0 61 6 85 23 59 40 69 69 71 198 2 88 8 133 25
185 16 50 24 65 31 55 5 -8 9 -23 9 -34 0 -27 32 -73 66 -96 36 -23 104 -25
186 -3 33 8 71 14 84 12 l23 -3 -35 -80 c-45 -103 -64 -179 -64 -251 0 -73 23
-126 80 -185 36 -38 40 -45 25 -54 -92 -55 -203 -135 -218 -156 -25 -35 -25
-113 0 -147 38 -50 71 -67 132 -67 51 1 67 6 142 51 111 66 225 120 324 152
102 33 133 54 157 110 57 127 -77 249 -215 196 -10 -4 -18 5 -26 29 -6 18 -25
47 -41 62 -17 16 -30 39 -30 51 0 12 21 76 46 141 73 186 71 289 -9 380 -49
56 -99 76 -203 81 -96 5 -283 -19 -341 -43 -18 -8 -33 -11 -33 -8 0 3 19 31
42 60 40 52 139 133 162 133 6 0 28 14 48 31 66 53 75 146 21 209 -61 73 -150
81 -253 24z"/>
<path d="M4534 4501 c-135 -7 -154 -15 -180 -78 -30 -69 -2 -166 58 -204 30
-19 43 -20 151 -15 71 3 117 1 117 -5 0 -5 -60 -69 -132 -141 -73 -73 -141
-144 -150 -158 -11 -15 -18 -44 -18 -72 0 -39 5 -52 33 -81 43 -46 101 -62
155 -44 66 23 274 225 397 386 112 148 125 284 34 354 -70 52 -216 70 -465 58z"/>
<path d="M3899 3721 c-77 -25 -119 -87 -119 -173 1 -62 25 -113 89 -190 146
-174 310 -247 415 -186 118 68 101 225 -30 283 -30 13 -31 17 -27 58 6 50 -22
117 -60 142 -76 49 -214 83 -268 66z"/>
<path d="M2493 3670 c-131 -34 -268 -97 -310 -142 -12 -13 -27 -43 -34 -68
-25 -94 39 -187 136 -197 39 -5 56 0 123 35 92 48 189 82 233 82 l32 0 -6 -47
c-12 -100 -159 -419 -299 -653 -56 -93 -63 -111 -63 -157 0 -38 6 -59 23 -82
15 -21 22 -44 22 -76 0 -77 41 -140 113 -170 63 -26 109 -19 240 37 121 51
259 99 265 93 15 -14 -81 -257 -144 -367 -72 -125 -76 -198 -17 -269 67 -79
195 -78 270 3 12 13 43 61 68 108 209 384 263 607 185 760 -87 170 -271 217
-529 134 -42 -13 -79 -24 -83 -24 -4 0 31 78 78 173 46 94 103 228 126 297 39
116 42 133 42 235 1 95 -2 116 -21 151 -36 67 -70 101 -135 133 -55 28 -70 31
-152 30 -53 0 -121 -8 -163 -19z"/>
<path d="M1105 3486 c-104 -33 -304 -162 -344 -221 -29 -43 -39 -126 -21 -179
36 -109 164 -167 265 -119 19 9 37 14 40 11 3 -3 -17 -70 -46 -149 -126 -356
-146 -438 -155 -639 -7 -158 2 -204 51 -259 37 -40 79 -62 162 -81 58 -13 95
-8 135 18 31 21 152 178 331 431 162 230 269 363 281 351 5 -5 9 -28 8 -52 0
-50 -52 -359 -82 -498 -78 -355 -95 -492 -70 -580 18 -64 67 -129 113 -150
112 -51 237 15 237 125 0 22 -7 51 -16 64 -26 36 -13 201 31 391 111 483 132
603 121 710 -3 36 -10 108 -15 160 -5 52 -14 114 -21 137 -41 137 -205 203
-338 137 -58 -29 -107 -83 -197 -214 -72 -106 -247 -341 -251 -337 -2 1 21 74
51 162 62 181 87 312 89 465 1 121 -15 183 -66 244 -62 76 -186 106 -293 72z"/>
<path d="M4596 3310 c-35 -11 -63 -36 -83 -74 -20 -39 -13 -128 14 -164 11
-15 70 -54 138 -89 65 -34 132 -75 148 -91 l29 -29 -21 -41 c-12 -23 -47 -70
-79 -104 -82 -88 -92 -106 -92 -158 0 -94 79 -154 177 -135 29 5 54 23 108 79
262 270 256 493 -18 673 -90 59 -253 143 -275 142 -9 0 -30 -5 -46 -9z"/>
<path d="M3635 3223 c-121 -44 -215 -127 -267 -239 -41 -88 -46 -139 -19 -193
61 -118 240 -113 290 7 11 27 12 27 119 27 91 1 114 4 155 24 162 79 133 282
-52 364 -64 28 -163 32 -226 10z"/>
<path d="M4523 2220 c-71 -41 -113 -111 -113 -191 l0 -56 -79 18 c-137 32
-250 42 -340 29 -191 -26 -313 -99 -374 -225 -44 -89 -51 -143 -51 -405 l-1
-245 -35 -22 c-19 -12 -38 -23 -42 -23 -4 0 -35 24 -70 53 -295 246 -409 311
-543 311 -139 0 -240 -90 -285 -257 -7 -26 -15 -46 -17 -43 -2 2 -18 89 -34
193 -35 226 -61 335 -91 380 -28 40 -109 83 -157 83 -79 -1 -150 -54 -173
-132 -10 -33 -8 -53 15 -146 30 -124 33 -139 47 -287 36 -372 99 -509 290
-625 138 -83 275 -114 346 -77 74 38 121 125 109 203 -6 43 20 241 34 256 8 9
108 -60 239 -165 191 -153 325 -187 462 -117 89 45 140 109 149 189 6 42 9 45
48 58 52 18 128 83 153 134 27 52 40 149 40 307 l0 132 33 0 c41 0 203 -26
217 -35 25 -15 213 -25 273 -15 156 29 265 131 296 278 21 99 8 280 -25 345
-62 122 -203 164 -321 97z"/>
</g>
</svg>
