<?xml version="1.0" standalone="no"?>
<!DOCTYPE svg PUBLIC "-//W3C//DTD SVG 20010904//EN"
 "http://www.w3.org/TR/2001/REC-SVG-20010904/DTD/svg10.dtd">
<svg version="1.0" xmlns="http://www.w3.org/2000/svg"
 width="600.000000pt" height="600.000000pt" viewBox="0 0 600.000000 600.000000"
 preserveAspectRatio="xMidYMid meet">
<metadata>
Created by potrace 1.15, written by Peter Selinger 2001-2017
</metadata>
<g transform="translate(0.000000,600.000000) scale(0.100000,-0.100000)"
fill="#16364b" stroke="none">
<path d="M2178 5716 c-30 -16 -152 -107 -268 -200 -89 -72 -294 -278 -357
-358 -60 -79 -83 -132 -83 -198 0 -78 37 -136 115 -178 23 -13 56 -17 150 -16
104 0 138 5 260 36 206 54 485 147 522 174 39 30 68 100 59 147 -14 75 -83
137 -152 137 -17 0 -126 -31 -242 -69 -117 -38 -212 -65 -212 -61 0 12 198
190 327 293 78 63 109 117 99 172 -19 100 -134 164 -218 121z"/>
<path d="M3110 5670 c-43 -10 -85 -56 -101 -109 -10 -34 -9 -47 6 -87 20 -54
49 -74 149 -105 222 -67 345 -185 348 -332 2 -138 -77 -233 -270 -324 -135
-64 -158 -82 -173 -136 -9 -33 -7 -45 13 -85 29 -57 63 -83 120 -89 35 -4 65
3 150 36 118 46 195 96 281 179 157 154 226 362 183 554 -47 212 -256 391
-555 477 -94 27 -112 29 -151 21z"/>
<path d="M959 5293 c-90 -45 -190 -142 -236 -229 -116 -219 -61 -492 139 -680
91 -86 174 -95 249 -27 85 77 76 158 -27 260 -70 68 -114 146 -114 201 0 74
43 128 158 198 83 50 112 90 112 153 0 96 -62 161 -155 161 -40 0 -69 -8 -126
-37z"/>
<path d="M4700 4883 c-29 -31 -39 -49 -45 -93 -27 -174 31 -399 127 -497 61
-62 125 -87 223 -88 70 0 87 4 133 29 94 53 142 136 142 250 0 96 -24 150
-105 232 -102 103 -296 204 -392 204 -39 0 -51 -5 -83 -37z"/>
<path d="M2749 4861 c-156 -78 -275 -229 -301 -382 -20 -122 24 -233 119 -303
102 -75 291 -118 360 -82 71 36 96 133 53 203 -25 41 -53 59 -118 72 -29 6
-66 18 -82 26 -67 34 -22 120 114 219 116 86 69 267 -69 266 -22 -1 -56 -9
-76 -19z"/>
<path d="M1870 4373 c-185 -31 -399 -203 -400 -322 0 -41 39 -109 76 -131 43
-27 114 -29 152 -4 15 10 44 37 66 61 73 83 143 100 250 62 61 -21 96 -19 149
8 68 35 90 145 42 216 -53 77 -215 130 -335 110z"/>
<path d="M2650 3834 c-14 -3 -68 -17 -120 -30 -138 -37 -190 -84 -190 -174 0
-50 19 -89 60 -124 40 -33 76 -33 204 -1 54 14 119 25 144 25 l45 0 -6 -37
c-13 -77 -131 -289 -248 -442 -32 -42 -101 -123 -154 -181 -102 -112 -121
-151 -109 -216 9 -47 55 -100 100 -114 21 -7 55 -9 82 -5 43 6 55 14 152 113
172 176 332 405 435 624 52 112 69 180 69 273 0 123 -61 218 -173 268 -36 17
-69 22 -156 23 -60 1 -121 0 -135 -2z"/>
<path d="M4116 3769 c-85 -29 -141 -72 -176 -132 -37 -64 -46 -123 -32 -200
21 -110 83 -203 172 -255 41 -24 55 -27 145 -27 94 0 104 2 164 34 117 60 213
188 251 329 20 76 -13 181 -69 221 -72 51 -341 69 -455 30z m164 -304 c-13
-16 -60 -21 -60 -6 0 12 18 19 49 20 20 1 21 -1 11 -14z"/>
<path d="M1124 3670 c-148 -39 -272 -102 -309 -158 -54 -83 -52 -180 5 -246
42 -48 78 -60 160 -54 39 3 70 4 70 3 0 -1 -20 -48 -44 -103 -96 -216 -276
-739 -283 -822 -8 -102 55 -173 169 -191 109 -17 128 -8 291 145 79 74 192
187 253 252 183 199 309 325 312 315 5 -14 -32 -206 -69 -361 -93 -388 -131
-540 -160 -637 -34 -119 -35 -173 -3 -216 55 -74 185 -75 242 -2 36 46 171
482 226 734 70 315 90 438 94 589 4 175 -9 233 -67 291 -75 75 -194 73 -309
-5 -31 -21 -132 -115 -224 -208 -93 -94 -168 -166 -168 -161 0 6 40 93 89 195
117 242 131 281 138 371 10 127 -32 205 -138 258 -53 26 -73 31 -133 30 -39 0
-103 -8 -142 -19z"/>
<path d="M3560 3342 c-140 -53 -216 -148 -261 -320 -31 -120 -12 -189 64 -229
59 -30 291 -2 388 47 159 82 210 263 113 406 -65 96 -197 138 -304 96z"/>
<path d="M4849 2745 c-132 -32 -231 -101 -275 -190 -22 -47 -26 -65 -22 -120
2 -36 3 -65 2 -65 -1 0 -23 12 -50 27 -38 22 -62 28 -109 28 -72 0 -115 -22
-161 -83 -49 -63 -58 -125 -38 -244 10 -54 15 -100 12 -103 -2 -3 -43 5 -89
17 -66 18 -112 22 -219 23 -130 0 -137 -1 -194 -30 -152 -77 -219 -236 -195
-467 16 -165 47 -354 64 -395 22 -53 71 -101 130 -129 137 -65 292 16 320 166
3 20 -3 97 -14 173 -12 77 -21 150 -21 164 0 31 10 28 138 -34 l94 -46 81 7
c45 3 98 10 117 16 93 26 173 108 207 215 31 97 29 369 -4 550 l-6 30 34 -32
c85 -81 217 -85 310 -11 34 28 88 109 104 157 32 98 36 167 13 235 -25 73 -50
112 -86 130 -44 22 -84 25 -143 11z"/>
<path d="M2900 2444 c-81 -17 -310 -108 -450 -178 -122 -61 -157 -99 -166
-181 -5 -42 -1 -59 23 -105 37 -72 93 -112 166 -118 51 -4 66 1 258 88 111 50
216 94 231 97 l28 5 -19 -53 c-29 -85 -104 -264 -160 -382 -55 -117 -62 -161
-36 -224 33 -79 97 -117 186 -111 110 8 140 51 299 432 110 265 134 347 127
431 -12 148 -126 270 -285 304 -67 14 -120 13 -202 -5z"/>
<path d="M2083 1909 c-82 -31 -143 -114 -143 -194 0 -76 61 -162 135 -191 41
-15 45 -19 55 -68 6 -28 22 -88 36 -134 l25 -83 -30 -25 c-100 -84 -119 -301
-41 -455 25 -49 123 -171 188 -234 122 -119 432 -255 582 -255 66 0 188 29
290 68 153 60 223 145 204 250 -5 25 -21 52 -53 83 -37 38 -56 49 -101 58 -65
13 -98 6 -195 -40 -94 -44 -153 -44 -255 0 -41 18 -79 37 -84 41 -5 5 13 20
40 33 58 29 78 50 99 100 34 83 8 180 -66 238 -144 113 -191 196 -254 449 -56
220 -128 329 -244 368 -50 18 -129 14 -188 -9z"/>
</g>
</svg>
