<?xml version="1.0" standalone="no"?>
<!DOCTYPE svg PUBLIC "-//W3C//DTD SVG 20010904//EN"
 "http://www.w3.org/TR/2001/REC-SVG-20010904/DTD/svg10.dtd">
<svg version="1.0" xmlns="http://www.w3.org/2000/svg"
 width="600.000000pt" height="600.000000pt" viewBox="0 0 600.000000 600.000000"
 preserveAspectRatio="xMidYMid meet">
<metadata>
Created by potrace 1.15, written by Peter Selinger 2001-2017
</metadata>
<g transform="translate(0.000000,600.000000) scale(0.100000,-0.100000)"
fill="#16364b" stroke="none">
<path d="M3004 5531 c-45 -21 -82 -71 -91 -125 -7 -46 13 -101 53 -145 81 -91
114 -212 94 -353 -14 -99 -10 -124 26 -168 35 -41 74 -60 126 -60 95 0 138 60
159 218 24 179 -32 380 -152 539 -75 100 -140 129 -215 94z"/>
<path d="M2000 5423 c-50 -26 -80 -76 -80 -133 0 -117 63 -203 205 -278 60
-32 95 -57 107 -77 9 -17 31 -100 48 -184 16 -85 38 -168 48 -185 69 -117 239
-92 266 39 4 19 -7 97 -29 205 -57 277 -112 369 -267 442 -71 34 -75 38 -81
75 -4 26 -18 50 -41 72 -29 28 -45 35 -88 38 -38 3 -63 -1 -88 -14z"/>
<path d="M1570 4774 c-157 -22 -201 -37 -244 -84 -32 -35 -36 -46 -36 -93 0
-66 25 -109 81 -137 41 -21 46 -21 213 -10 191 12 301 4 400 -30 37 -14 69
-19 90 -14 117 21 169 147 105 251 -23 37 -111 84 -204 108 -85 23 -278 27
-405 9z"/>
<path d="M4330 4677 c-39 -20 -70 -74 -70 -123 0 -59 13 -87 64 -142 92 -98
142 -208 171 -376 17 -103 37 -142 84 -170 79 -46 173 -10 206 79 17 42 17 50
0 139 -22 124 -72 268 -123 353 -49 84 -146 200 -191 230 -38 26 -101 30 -141
10z"/>
<path d="M3185 4488 c-11 -6 -74 -64 -141 -128 -138 -134 -236 -214 -381 -311
-110 -74 -133 -103 -133 -167 0 -83 75 -146 165 -139 44 3 68 15 190 97 77 51
172 119 211 152 77 63 226 220 268 282 47 70 27 161 -46 206 -36 22 -101 26
-133 8z"/>
<path d="M1702 4337 c-54 -10 -108 -63 -118 -112 -12 -68 10 -121 67 -158 52
-35 454 -68 621 -53 87 9 128 30 166 86 32 47 27 127 -9 166 -45 49 -60 51
-329 58 -140 3 -277 10 -305 14 -27 4 -69 4 -93 -1z"/>
<path d="M3834 3979 c-18 -5 -101 -54 -185 -110 -161 -106 -349 -203 -559
-289 -68 -28 -133 -58 -143 -68 -30 -27 -47 -68 -47 -112 0 -82 57 -140 137
-140 69 0 371 127 593 250 158 88 337 207 363 242 28 37 33 114 10 158 -30 57
-106 88 -169 69z"/>
<path d="M2299 3806 c-2 -2 -40 -12 -83 -21 -136 -27 -260 -35 -398 -24 -148
13 -181 6 -227 -46 -73 -84 -38 -208 68 -244 57 -19 260 -33 366 -26 105 7
252 32 346 59 89 26 131 76 131 157 0 85 -65 149 -152 149 -26 0 -49 -2 -51
-4z"/>
<path d="M5016 3650 c-60 -23 -112 -71 -137 -125 -21 -44 -25 -138 -9 -181 18
-47 24 -169 10 -236 -6 -35 -27 -94 -44 -133 -39 -82 -187 -306 -326 -490 -70
-93 -102 -144 -110 -178 -24 -92 11 -187 88 -242 40 -27 51 -30 120 -30 94 1
135 20 207 96 113 120 330 421 392 542 37 74 83 203 104 297 42 181 33 480
-17 585 -46 98 -165 139 -278 95z"/>
<path d="M1972 3143 c-98 -48 -108 -197 -16 -253 54 -34 169 -68 282 -85 132
-20 175 -29 230 -49 53 -20 103 -10 145 30 36 33 47 63 47 123 0 110 -81 162
-291 186 -151 18 -198 27 -251 50 -48 19 -104 19 -146 -2z"/>
<path d="M4377 3124 c-16 -8 -57 -38 -90 -65 -211 -171 -536 -306 -818 -340
-71 -9 -110 -19 -132 -33 -104 -71 -103 -211 3 -267 43 -24 118 -24 266 -4
311 44 584 161 824 354 173 139 207 193 176 274 -23 62 -66 91 -141 94 -41 2
-69 -2 -88 -13z"/>
<path d="M1400 2948 c-73 -40 -101 -96 -112 -226 -17 -198 10 -478 63 -647 39
-127 158 -339 244 -433 122 -135 335 -52 335 130 0 55 -1 58 -76 164 -78 112
-135 248 -170 409 -13 61 -18 130 -18 291 -1 205 -2 211 -25 246 -57 83 -157
110 -241 66z"/>
<path d="M2060 2344 c-43 -37 -60 -75 -60 -135 0 -62 31 -124 75 -147 16 -8
66 -21 110 -27 111 -17 156 -31 196 -60 19 -13 44 -32 57 -41 28 -21 108 -29
144 -15 39 15 80 74 85 124 6 48 -18 106 -59 144 -67 62 -241 141 -371 169
-102 21 -140 19 -177 -12z"/>
<path d="M4165 2083 c-11 -2 -144 -38 -295 -78 -325 -88 -432 -112 -725 -160
-121 -21 -235 -44 -254 -53 -124 -57 -155 -211 -60 -296 51 -47 105 -61 183
-47 34 6 146 22 249 36 241 32 311 47 717 145 310 75 337 83 367 112 44 43 63
87 63 147 0 132 -115 223 -245 194z"/>
<path d="M4820 1718 c-29 -15 -70 -53 -118 -111 -149 -177 -303 -252 -707
-342 -218 -49 -395 -95 -425 -110 -65 -34 -110 -110 -110 -187 0 -81 60 -156
142 -179 39 -10 62 -7 253 41 116 28 266 65 335 82 325 79 574 208 764 395
104 104 131 150 131 228 -1 90 -38 148 -120 186 -53 25 -91 24 -145 -3z"/>
<path d="M2071 1541 c-44 -24 -81 -85 -81 -136 0 -90 146 -260 294 -344 130
-74 332 -132 409 -117 75 14 125 87 114 168 -11 80 -47 110 -168 139 -151 36
-257 103 -341 216 -22 30 -54 63 -71 74 -40 24 -111 24 -156 0z"/>
<path d="M2015 937 c-92 -52 -121 -163 -65 -255 40 -66 343 -233 538 -297 230
-75 374 -72 655 16 101 32 136 47 167 76 101 90 77 259 -44 317 -48 23 -86 20
-190 -13 -141 -45 -230 -56 -334 -42 -144 20 -316 83 -505 184 -85 46 -158 50
-222 14z"/>
</g>
</svg>
