<?xml version="1.0" standalone="no"?>
<!DOCTYPE svg PUBLIC "-//W3C//DTD SVG 20010904//EN"
 "http://www.w3.org/TR/2001/REC-SVG-20010904/DTD/svg10.dtd">
<svg version="1.0" xmlns="http://www.w3.org/2000/svg"
 width="600.000000pt" height="600.000000pt" viewBox="0 0 600.000000 600.000000"
 preserveAspectRatio="xMidYMid meet">
<metadata>
Created by potrace 1.15, written by Peter Selinger 2001-2017
</metadata>
<g transform="translate(0.000000,600.000000) scale(0.100000,-0.100000)"
fill="#16364b" stroke="none">
<path d="M1947 4935 c-156 -58 -241 -236 -192 -401 24 -82 43 -230 55 -424 6
-102 15 -234 21 -295 22 -251 26 -402 19 -836 l-7 -457 -35 -58 c-58 -96 -113
-211 -178 -375 -34 -85 -69 -168 -77 -186 -8 -18 -12 -37 -8 -42 3 -6 0 -11
-8 -11 -21 0 -27 -23 -11 -45 10 -13 11 -22 3 -32 -20 -23 -2 -45 29 -38 25 5
29 3 28 -17 -1 -12 6 -24 14 -25 19 -4 92 91 89 115 -1 9 5 33 13 52 8 19 42
101 74 183 32 81 62 147 65 147 3 0 9 -37 13 -82 16 -193 93 -465 168 -592 90
-153 254 -263 433 -291 22 -3 52 -8 68 -11 l27 -6 0 -128 c0 -149 15 -240 72
-435 23 -77 43 -152 46 -168 l4 -27 -86 0 c-52 0 -100 -6 -120 -14 -93 -39
-86 -155 11 -187 94 -31 272 21 329 97 44 57 43 109 -5 257 -82 252 -115 442
-97 561 l8 48 46 -6 c178 -23 467 -40 687 -40 l250 0 -3 -77 c-4 -85 11 -182
65 -429 20 -91 36 -174 37 -185 1 -18 -7 -21 -79 -26 -95 -6 -136 -25 -159
-73 -20 -42 -20 -50 -1 -86 22 -43 76 -57 163 -41 92 16 167 54 202 102 44 61
44 89 5 243 -58 226 -78 356 -72 471 2 55 7 107 11 116 5 11 62 25 209 53 325
61 339 65 394 91 132 65 236 211 289 405 27 99 25 309 -5 420 -38 144 -116
281 -225 398 -27 28 -43 52 -36 52 7 0 57 -16 111 -36 70 -26 98 -41 102 -55
5 -18 13 -20 83 -17 l77 3 4 67 c3 66 3 66 -26 73 -16 3 -42 18 -58 33 -15 15
-39 28 -53 28 -14 1 -73 20 -131 42 -58 23 -208 66 -333 96 -217 53 -232 58
-314 109 -48 30 -166 96 -262 147 -269 143 -588 354 -717 473 -177 165 -307
392 -438 762 -124 353 -164 440 -235 514 -71 74 -154 111 -245 110 -38 0 -87
-7 -108 -14z m161 -161 c75 -31 131 -107 166 -223 9 -29 20 -59 25 -65 6 -7
32 -75 59 -152 64 -182 96 -262 145 -359 99 -200 230 -388 349 -500 134 -127
520 -388 783 -530 99 -54 207 -117 241 -140 33 -23 154 -102 268 -175 235
-150 295 -201 365 -305 60 -90 86 -158 107 -277 41 -237 -64 -514 -222 -586
-53 -23 -378 -91 -564 -118 -181 -25 -563 -29 -815 -9 -115 10 -280 21 -365
25 -179 9 -253 28 -346 88 -105 68 -176 174 -233 348 -76 235 -85 364 -70
1027 16 680 15 803 -4 962 -9 72 -21 202 -27 290 -15 219 -27 322 -51 440 -32
153 -16 218 62 257 42 22 78 23 127 2z"/>
<path d="M2598 2708 c-32 -25 -32 -56 1 -88 36 -37 63 -38 90 -4 26 33 27 66
3 87 -22 20 -72 22 -94 5z"/>
<path d="M3035 2565 c-38 -37 -29 -76 22 -103 30 -17 39 -15 63 10 28 30 27
82 -2 102 -32 22 -55 20 -83 -9z"/>
<path d="M5223 3956 c-136 -43 -217 -154 -216 -296 1 -135 71 -243 199 -306
69 -35 83 -38 157 -38 98 0 172 29 235 92 92 92 129 251 82 359 -26 62 -96
131 -174 172 -54 28 -67 31 -150 30 -50 0 -110 -6 -133 -13z m146 -287 c36
-13 37 -16 14 -41 -23 -25 -48 -22 -62 8 -19 42 -6 52 48 33z"/>
<path d="M5357 1109 c-38 -22 -82 -144 -71 -198 21 -101 148 -109 199 -11 8
15 18 54 23 86 11 65 1 109 -28 124 -24 13 -100 12 -123 -1z"/>
</g>
</svg>
