<?xml version="1.0" standalone="no"?>
<!DOCTYPE svg PUBLIC "-//W3C//DTD SVG 20010904//EN"
 "http://www.w3.org/TR/2001/REC-SVG-20010904/DTD/svg10.dtd">
<svg version="1.0" xmlns="http://www.w3.org/2000/svg"
 width="600.000000pt" height="600.000000pt" viewBox="0 0 600.000000 600.000000"
 preserveAspectRatio="xMidYMid meet">
<metadata>
Created by potrace 1.15, written by Peter Selinger 2001-2017
</metadata>
<g transform="translate(0.000000,600.000000) scale(0.100000,-0.100000)"
fill="#16364b" stroke="none">
<path d="M2254 5809 c-32 -23 -113 -83 -179 -134 -66 -50 -167 -124 -225 -165
-192 -135 -323 -247 -370 -317 -46 -71 -66 -147 -51 -201 15 -57 47 -99 96
-125 117 -63 566 20 990 184 141 54 175 90 175 180 0 79 -44 138 -117 158 -40
11 -69 3 -228 -64 -111 -47 -312 -111 -321 -103 -2 3 24 24 58 48 160 110 390
306 413 351 8 15 15 50 15 76 0 89 -63 153 -151 153 -37 0 -56 -7 -105 -41z"/>
<path d="M3067 5679 c-74 -39 -98 -124 -55 -201 29 -51 67 -73 153 -88 256
-46 385 -151 385 -311 -1 -109 -57 -256 -121 -313 -35 -32 -131 -76 -166 -76
-33 0 -104 -42 -118 -71 -36 -69 -7 -152 67 -190 35 -18 53 -20 103 -16 245
24 427 204 501 496 70 276 -11 489 -244 642 -87 57 -228 114 -335 134 -101 19
-124 18 -170 -6z"/>
<path d="M945 5303 c-173 -90 -293 -242 -317 -401 -30 -192 82 -408 274 -533
52 -33 69 -39 115 -39 30 0 67 7 84 15 64 34 89 128 50 192 -11 17 -44 50 -74
72 -97 71 -147 147 -147 223 0 66 39 113 153 180 61 35 90 92 90 170 -1 127
-107 184 -228 121z"/>
<path d="M2739 4950 c-46 -14 -143 -86 -206 -154 -135 -144 -180 -346 -108
-491 61 -126 260 -245 410 -245 98 0 168 99 143 200 -13 49 -55 85 -113 94
-120 20 -185 66 -185 130 0 59 64 137 163 200 86 54 91 200 8 248 -35 21 -80
28 -112 18z"/>
<path d="M4828 4946 c-57 -20 -114 -71 -133 -118 -20 -52 -14 -180 15 -294 67
-263 264 -393 452 -301 94 46 149 131 156 242 11 174 -101 338 -293 430 -105
50 -146 59 -197 41z"/>
<path d="M1840 4419 c-124 -21 -247 -116 -309 -239 -36 -73 -40 -129 -13 -179
20 -38 73 -71 111 -71 45 0 109 39 145 90 46 64 105 103 154 102 20 0 63 -12
96 -27 72 -34 139 -30 192 10 61 47 66 142 10 204 -74 83 -250 133 -386 110z"/>
<path d="M2675 3845 c-102 -18 -202 -50 -240 -77 -70 -47 -100 -153 -61 -213
25 -37 75 -65 119 -65 21 0 73 9 115 19 98 25 173 34 190 23 32 -22 -84 -245
-227 -435 -38 -50 -113 -141 -166 -202 -105 -119 -122 -145 -126 -190 -5 -63
2 -86 34 -121 43 -47 112 -57 173 -26 44 23 268 247 336 337 119 158 244 376
283 495 26 80 26 211 -2 271 -45 100 -133 167 -248 188 -71 13 -90 13 -180 -4z"/>
<path d="M4227 3799 c-201 -26 -330 -151 -331 -319 -1 -124 62 -237 164 -294
51 -29 62 -31 150 -31 86 0 101 3 161 31 116 55 200 151 281 320 61 128 55
200 -19 250 -52 35 -282 59 -406 43z m43 -308 c0 -14 -41 -41 -62 -41 -29 0
-21 20 15 35 38 17 47 18 47 6z"/>
<path d="M1135 3709 c-116 -27 -250 -83 -293 -123 -128 -116 -45 -336 126
-336 29 0 62 5 74 11 11 6 22 9 24 6 3 -3 -18 -55 -46 -117 -76 -170 -285
-686 -309 -764 -26 -84 -26 -107 -2 -154 36 -71 95 -102 193 -102 81 1 121 20
223 106 164 138 242 214 405 394 92 102 179 196 194 209 l26 24 0 -25 c0 -110
-123 -620 -205 -853 -87 -245 -90 -258 -76 -304 25 -84 94 -137 169 -128 66 7
96 43 141 168 21 57 61 166 90 241 96 257 211 749 218 927 10 262 -74 401
-242 401 -114 0 -234 -90 -445 -333 -41 -47 -76 -84 -78 -82 -3 2 36 95 85
207 50 112 99 228 109 258 26 79 24 184 -3 236 -30 57 -97 111 -157 129 -55
16 -159 18 -221 4z"/>
<path d="M3525 3367 c-127 -49 -198 -156 -232 -344 -10 -61 -11 -92 -4 -121
12 -42 61 -95 104 -111 58 -22 176 -10 279 29 87 32 142 80 179 155 29 60 31
70 27 142 -3 52 -12 92 -26 119 -27 53 -100 117 -150 132 -49 15 -137 14 -177
-1z"/>
<path d="M4871 2649 c-113 -22 -205 -64 -261 -120 -33 -33 -80 -118 -80 -144
0 -19 -14 -19 -30 0 -7 8 -37 22 -67 31 -134 39 -269 -36 -309 -172 -16 -56
-16 -62 6 -162 12 -57 20 -106 17 -108 -2 -3 -29 5 -58 17 -109 43 -154 53
-244 53 -79 1 -97 -2 -147 -27 -187 -92 -231 -285 -162 -715 25 -161 41 -211
77 -251 77 -84 243 -82 345 4 72 61 90 132 68 279 -15 101 -21 186 -12 186 9
0 86 -34 131 -58 60 -32 136 -35 235 -9 175 47 258 164 268 380 4 93 -7 218
-24 279 -5 15 2 14 44 -8 183 -95 356 12 415 256 30 124 31 174 8 222 -35 73
-95 92 -220 67z"/>
<path d="M2939 2420 c-84 -13 -170 -45 -299 -110 -314 -158 -361 -198 -368
-313 l-4 -62 -57 -1 c-98 -2 -232 -78 -271 -153 -62 -122 35 -271 177 -271
l38 0 34 -108 c18 -59 35 -112 38 -118 2 -7 -20 -25 -50 -42 -95 -54 -157
-146 -178 -267 -24 -142 7 -247 115 -393 144 -193 284 -293 501 -358 80 -24
244 -24 340 1 96 24 224 85 272 128 97 88 77 259 -37 317 -63 32 -117 26 -228
-24 -127 -58 -162 -63 -242 -36 -133 45 -207 97 -280 195 -81 110 -73 127 18
35 66 -66 93 -80 158 -80 51 0 90 17 153 68 50 41 71 83 71 146 0 68 -15 95
-98 176 -101 98 -133 162 -229 449 -24 74 -51 147 -59 162 -19 37 -19 36 22
44 20 3 111 43 203 89 191 95 278 132 287 123 15 -15 -79 -271 -166 -450 -40
-82 -50 -113 -50 -152 1 -132 112 -227 228 -196 81 21 109 52 173 185 65 138
122 278 169 416 63 189 74 280 44 379 -22 74 -116 170 -194 199 -68 24 -157
33 -231 22z"/>
</g>
</svg>
