<?xml version="1.0" standalone="no"?>
<!DOCTYPE svg PUBLIC "-//W3C//DTD SVG 20010904//EN"
 "http://www.w3.org/TR/2001/REC-SVG-20010904/DTD/svg10.dtd">
<svg version="1.0" xmlns="http://www.w3.org/2000/svg"
 width="600.000000pt" height="600.000000pt" viewBox="0 0 600.000000 600.000000"
 preserveAspectRatio="xMidYMid meet">
<metadata>
Created by potrace 1.15, written by Peter Selinger 2001-2017
</metadata>
<g transform="translate(0.000000,600.000000) scale(0.100000,-0.100000)"
fill="#16364b" stroke="none">
<path d="M2212 5828 c-136 -75 -620 -530 -690 -649 -71 -122 -47 -246 61 -301
87 -44 304 -6 662 115 353 120 395 145 395 242 0 90 -78 175 -161 175 -21 0
-118 -27 -216 -61 -98 -33 -187 -63 -198 -66 -31 -8 50 68 210 197 77 62 148
125 159 141 25 40 25 122 -1 158 -34 46 -81 71 -133 71 -30 0 -62 -8 -88 -22z"/>
<path d="M3061 5668 c-51 -34 -73 -71 -78 -125 -8 -92 41 -146 147 -164 172
-28 320 -104 373 -191 38 -62 47 -150 22 -233 -13 -48 -28 -70 -79 -121 -53
-52 -85 -73 -199 -129 -155 -75 -172 -91 -172 -170 0 -91 65 -155 159 -155 32
0 72 14 162 60 197 99 312 202 383 347 126 254 52 567 -172 727 -119 85 -315
160 -452 173 -52 4 -65 2 -94 -19z"/>
<path d="M959 5340 c-122 -36 -259 -155 -314 -272 -79 -167 -67 -294 46 -462
51 -77 199 -225 252 -252 93 -49 209 38 209 156 0 58 -20 99 -67 134 -53 41
-79 66 -113 115 -42 58 -55 106 -41 156 14 51 57 90 149 134 93 45 124 85 117
148 -11 104 -131 176 -238 143z"/>
<path d="M2698 4946 c-111 -45 -223 -148 -272 -248 -20 -42 -29 -77 -33 -135
-14 -214 136 -387 381 -440 86 -19 133 -12 176 23 95 81 38 234 -99 263 -108
23 -166 69 -166 131 0 52 44 104 124 148 71 40 101 85 101 155 0 52 -27 93
-76 113 -46 19 -70 17 -136 -10z"/>
<path d="M4774 4927 c-70 -48 -94 -95 -94 -183 -1 -436 296 -690 530 -455 79
79 95 117 95 221 0 76 -4 92 -33 150 -56 113 -152 202 -283 265 -98 47 -149
47 -215 2z"/>
<path d="M1915 4448 c-124 -15 -257 -87 -351 -190 -23 -25 -45 -60 -49 -77
-21 -98 55 -191 155 -191 51 0 84 17 135 70 47 49 103 80 144 80 16 0 55 -13
86 -30 31 -16 71 -30 89 -30 73 1 155 83 156 158 0 131 -177 234 -365 210z"/>
<path d="M2615 3847 c-67 -17 -102 -42 -126 -88 -41 -81 -14 -172 63 -214 33
-18 43 -18 115 -8 43 6 90 9 106 6 23 -5 27 -10 27 -39 0 -100 -155 -352 -330
-538 -93 -98 -100 -111 -100 -175 0 -44 4 -55 38 -90 41 -43 87 -58 150 -46
48 8 156 117 301 303 134 172 190 267 230 386 45 136 45 233 1 322 -37 77
-101 135 -179 165 -69 27 -222 35 -296 16z"/>
<path d="M4191 3775 c-175 -40 -281 -151 -281 -295 0 -126 92 -269 204 -315
85 -36 226 -9 329 62 101 70 247 309 247 404 0 58 -28 103 -82 130 -37 19 -62
22 -198 25 -111 3 -173 0 -219 -11z m74 -304 c-24 -24 -56 -31 -62 -13 -5 13
29 30 62 31 19 1 19 1 0 -18z"/>
<path d="M1075 3736 c-190 -56 -250 -97 -280 -192 -47 -150 79 -293 226 -256
24 6 44 10 46 9 1 -1 -38 -86 -86 -188 -170 -356 -227 -494 -267 -644 -28
-105 -29 -137 -9 -196 40 -111 166 -168 273 -123 20 8 89 65 152 127 63 62
169 164 235 227 101 97 211 212 348 365 l27 30 0 -42 c0 -121 -45 -367 -92
-508 -22 -67 -157 -418 -194 -507 -42 -101 -26 -186 45 -234 46 -31 119 -33
167 -3 44 27 71 85 177 384 96 269 138 426 162 595 8 63 20 140 25 170 22 121
32 230 28 320 -3 78 -8 103 -28 140 -68 121 -203 129 -356 21 -38 -27 -132
-110 -209 -185 -77 -75 -141 -136 -142 -136 -1 0 34 73 78 163 100 204 129
292 129 395 0 90 -19 138 -76 202 -58 64 -103 83 -209 87 -72 2 -106 -2 -170
-21z"/>
<path d="M3523 3392 c-28 -10 -68 -31 -88 -47 -119 -90 -213 -386 -149 -471
40 -54 70 -68 148 -72 93 -5 219 25 294 71 122 73 176 200 138 329 -44 151
-203 240 -343 190z"/>
<path d="M4834 2782 c-39 -21 -91 -82 -161 -189 -61 -94 -90 -153 -113 -235
l-16 -57 -34 47 c-90 120 -242 135 -342 32 -74 -77 -84 -143 -44 -295 14 -49
20 -91 16 -93 -5 -2 -40 6 -77 17 -238 71 -396 42 -496 -91 -60 -79 -71 -212
-37 -433 12 -71 27 -175 34 -230 16 -116 24 -139 62 -184 54 -64 161 -89 238
-57 47 19 114 82 137 128 29 57 32 110 15 252 -9 71 -15 130 -13 133 5 4 79
-31 132 -62 56 -34 109 -40 185 -20 150 39 217 106 257 258 18 69 23 262 10
366 l-8 64 30 -26 c69 -58 160 -60 269 -6 155 76 252 240 252 427 0 83 -18
133 -57 160 -14 9 -39 32 -56 51 -56 60 -124 76 -183 43z"/>
<path d="M2925 2364 c-104 -23 -231 -75 -415 -170 -167 -86 -240 -141 -240
-183 0 -17 -8 -19 -74 -19 -91 0 -146 -22 -217 -89 -61 -56 -79 -94 -79 -163
0 -111 85 -200 190 -200 33 0 40 -4 45 -22 2 -13 14 -61 25 -107 11 -46 20
-89 20 -96 0 -6 -25 -22 -55 -34 -72 -30 -153 -116 -183 -196 -46 -119 -53
-281 -16 -388 19 -56 93 -172 152 -238 48 -53 165 -144 235 -183 76 -41 214
-94 279 -107 69 -14 187 -7 273 15 33 9 120 45 193 81 110 55 137 72 158 105
66 99 27 232 -81 281 -63 29 -91 24 -225 -41 -103 -50 -133 -60 -177 -60 -109
0 -289 91 -376 191 -125 143 -107 253 23 143 72 -60 106 -74 182 -74 116 0
183 35 219 115 38 84 14 177 -62 235 -109 82 -142 151 -199 410 -17 80 -34
153 -36 163 -4 12 0 17 13 17 10 0 59 23 108 51 130 74 315 166 349 175 l29 7
-7 -44 c-13 -81 -66 -223 -148 -392 -77 -160 -80 -170 -75 -219 16 -132 150
-205 272 -149 50 23 71 47 122 136 99 173 169 343 214 521 27 108 31 139 27
218 -5 107 -26 163 -87 229 -24 26 -64 54 -93 67 -69 29 -188 35 -283 14z"/>
</g>
</svg>
