<?xml version="1.0" standalone="no"?>
<!DOCTYPE svg PUBLIC "-//W3C//DTD SVG 20010904//EN"
 "http://www.w3.org/TR/2001/REC-SVG-20010904/DTD/svg10.dtd">
<svg version="1.0" xmlns="http://www.w3.org/2000/svg"
 width="600.000000pt" height="600.000000pt" viewBox="0 0 600.000000 600.000000"
 preserveAspectRatio="xMidYMid meet">
<metadata>
Created by potrace 1.15, written by Peter Selinger 2001-2017
</metadata>
<g transform="translate(0.000000,600.000000) scale(0.100000,-0.100000)"
fill="#16364b" stroke="none">
<path d="M1355 5664 c-221 -145 -256 -176 -258 -226 -1 -43 25 -85 59 -98 45
-18 106 -11 354 40 232 47 246 51 273 80 63 70 3 170 -94 157 -43 -6 -46 -2
-24 27 30 39 11 107 -36 132 -54 28 -76 19 -274 -112z"/>
<path d="M2368 5415 c-26 -15 -55 -76 -44 -93 10 -17 -14 -383 -30 -455 -36
-160 -98 -244 -225 -308 -43 -21 -85 -49 -93 -61 -25 -35 -20 -91 10 -127 39
-46 88 -43 200 13 179 90 274 226 320 461 24 116 27 471 5 523 -23 55 -88 77
-143 47z"/>
<path d="M3530 5312 c-42 -21 -82 -92 -74 -131 14 -66 76 -171 128 -219 68
-62 111 -82 174 -82 40 0 57 6 81 26 59 49 52 135 -20 249 -55 88 -115 138
-187 159 -71 19 -60 20 -102 -2z"/>
<path d="M2989 5110 c-89 -47 -152 -165 -153 -287 -1 -83 16 -116 78 -147 33
-16 45 -17 94 -7 68 14 158 65 183 105 28 45 42 152 29 211 -27 121 -132 178
-231 125z m55 -224 c-3 -9 -10 -16 -15 -16 -6 0 -5 9 1 21 13 24 24 20 14 -5z"/>
<path d="M4763 4760 c-42 -25 -46 -49 -41 -272 3 -154 7 -192 25 -240 41 -112
113 -185 200 -203 73 -15 168 41 204 120 60 131 -29 380 -187 524 -104 95
-141 108 -201 71z"/>
<path d="M2725 4231 c-130 -21 -224 -107 -225 -207 0 -52 31 -125 70 -164 102
-102 325 -109 485 -15 59 34 132 111 146 152 20 63 -13 148 -70 177 -75 39
-310 72 -406 57z"/>
<path d="M1119 4124 c-43 -18 -69 -59 -69 -112 0 -62 34 -95 129 -127 43 -14
87 -33 97 -41 17 -14 14 -15 -41 -10 -33 3 -80 12 -104 21 -55 19 -84 19 -122
0 -61 -32 -85 -109 -53 -164 21 -36 44 -50 123 -73 201 -58 376 -19 452 99 35
57 39 134 10 198 -37 82 -152 161 -297 204 -83 24 -79 24 -125 5z"/>
<path d="M4185 3771 c-101 -26 -189 -104 -225 -197 -42 -111 -11 -241 77 -326
124 -120 312 -104 442 37 59 65 88 136 103 251 12 95 0 134 -55 171 -78 52
-258 86 -342 64z m85 -286 c0 -19 -48 -51 -60 -39 -11 11 -2 27 25 42 27 15
35 15 35 -3z"/>
<path d="M5225 3766 c-124 -28 -215 -95 -265 -193 -21 -40 -25 -62 -25 -138 0
-107 22 -163 93 -233 64 -64 120 -87 217 -87 113 0 174 24 251 100 75 73 104
141 104 243 0 95 -29 152 -114 228 -37 32 -78 65 -91 72 -38 19 -105 23 -170
8z m75 -314 c0 -23 -19 -42 -42 -42 -21 0 -24 30 -6 48 18 18 48 15 48 -6z"/>
<path d="M1639 3691 c-16 -16 -29 -39 -29 -50 0 -33 39 -209 61 -278 30 -93
85 -132 142 -101 70 37 68 122 -8 321 -53 138 -103 170 -166 108z"/>
<path d="M3443 3374 c-40 -20 -79 -80 -138 -213 -52 -117 -53 -144 -3 -186 39
-33 71 -32 134 5 120 68 199 253 149 349 -13 27 -68 61 -97 61 -7 0 -27 -8
-45 -16z"/>
<path d="M1990 3083 c-158 -11 -508 -80 -599 -117 -249 -101 -415 -331 -414
-576 0 -236 126 -447 338 -568 213 -121 270 -176 369 -361 97 -181 162 -248
311 -321 128 -62 194 -80 331 -87 130 -7 254 11 393 57 50 16 148 38 218 50
156 25 297 62 508 133 316 107 410 159 571 321 234 235 332 435 321 652 -5
110 -35 183 -116 284 -118 147 -205 224 -307 272 -61 29 -79 32 -159 33 -49 0
-142 -6 -205 -12 -63 -7 -189 -13 -280 -13 -204 0 -283 15 -527 100 -240 83
-361 118 -468 134 -104 16 -220 24 -285 19z m261 -418 c72 -9 150 -29 240 -60
319 -112 554 -175 648 -175 76 0 383 18 504 30 79 8 104 7 132 -5 41 -17 137
-104 166 -152 18 -30 19 -38 10 -85 -21 -93 -87 -203 -190 -310 -108 -114
-200 -178 -321 -226 -136 -55 -473 -135 -635 -151 -44 -5 -132 -22 -196 -39
-211 -56 -331 -60 -422 -17 -55 26 -120 98 -172 192 -117 212 -205 310 -386
428 -57 37 -125 81 -150 98 -65 42 -92 86 -97 157 -5 73 11 122 56 172 49 54
112 83 233 108 249 51 396 60 580 35z"/>
<path d="M460 2193 c-28 -11 -59 -45 -65 -73 -4 -19 6 -58 35 -129 57 -145 84
-196 147 -279 67 -88 145 -147 218 -163 47 -10 57 -9 91 7 57 28 87 90 81 168
-12 142 -132 282 -361 420 -78 47 -118 60 -146 49z"/>
<path d="M4831 1567 c-30 -20 -39 -22 -72 -13 -31 8 -45 7 -74 -7 -73 -35 -91
-111 -60 -258 37 -177 113 -257 216 -229 99 27 154 130 179 332 10 80 9 91 -9
125 -36 72 -117 94 -180 50z"/>
</g>
</svg>
