<?xml version="1.0" standalone="no"?>
<!DOCTYPE svg PUBLIC "-//W3C//DTD SVG 20010904//EN"
 "http://www.w3.org/TR/2001/REC-SVG-20010904/DTD/svg10.dtd">
<svg version="1.0" xmlns="http://www.w3.org/2000/svg"
 width="600.000000pt" height="600.000000pt" viewBox="0 0 600.000000 600.000000"
 preserveAspectRatio="xMidYMid meet">
<metadata>
Created by potrace 1.15, written by Peter Selinger 2001-2017
</metadata>
<g transform="translate(0.000000,600.000000) scale(0.100000,-0.100000)"
fill="#16364b" stroke="none">
<path d="M3015 5064 c-87 -45 -140 -140 -133 -237 4 -50 9 -64 32 -84 49 -42
116 -24 191 52 50 50 95 134 95 178 0 35 -24 83 -49 97 -29 15 -102 12 -136
-6z m113 -73 c7 -44 -27 -108 -84 -161 -31 -27 -62 -50 -70 -50 -8 0 -19 12
-24 26 -31 81 64 220 145 212 23 -2 31 -9 33 -27z"/>
<path d="M4778 4736 c-12 -6 -26 -23 -30 -36 -7 -27 -39 -494 -38 -572 0 -59
25 -88 73 -88 71 0 76 27 93 462 6 162 5 190 -9 211 -19 29 -57 39 -89 23z"/>
<path d="M1777 4546 c-60 -16 -113 -59 -152 -121 -28 -45 -30 -55 -30 -145 0
-92 2 -100 38 -168 70 -134 114 -371 142 -757 9 -121 27 -312 42 -425 20 -163
27 -273 33 -535 7 -298 10 -343 34 -460 77 -385 197 -565 445 -670 35 -14 102
-34 150 -44 l86 -18 -3 -159 c-5 -195 9 -299 54 -429 55 -155 57 -141 -23
-149 -91 -9 -129 -22 -153 -53 -42 -54 -14 -130 56 -153 87 -29 255 36 305
117 33 53 29 113 -16 212 -58 131 -77 245 -73 433 2 87 7 161 13 166 12 11
411 -2 555 -18 102 -12 323 -14 374 -5 l31 6 1 -148 c0 -128 4 -162 28 -252
15 -57 43 -144 63 -193 19 -50 31 -94 26 -98 -4 -5 -49 -10 -100 -12 -74 -2
-97 -7 -120 -24 -50 -37 -56 -101 -13 -144 71 -71 302 -32 374 63 45 59 44
104 -9 252 -50 140 -90 294 -100 390 -7 60 7 171 24 188 4 4 150 37 323 71
364 74 405 89 503 191 70 72 146 201 178 300 33 103 30 266 -7 390 -52 172
-142 302 -247 355 -72 37 -283 108 -449 151 -201 51 -192 49 -425 136 -505
190 -839 412 -1022 680 -33 48 -118 185 -188 303 -137 231 -265 427 -325 500
-20 25 -53 71 -74 102 -53 82 -132 151 -196 171 -61 20 -88 20 -153 3z m150
-185 c22 -16 60 -60 85 -97 25 -38 56 -78 68 -89 35 -31 125 -169 285 -440 81
-137 174 -288 205 -336 134 -199 320 -357 640 -544 219 -128 471 -233 725
-302 369 -100 514 -146 594 -187 74 -39 147 -148 187 -282 24 -78 24 -228 1
-304 -36 -117 -134 -243 -226 -289 -48 -25 -194 -59 -401 -95 -423 -73 -558
-81 -905 -58 -104 6 -292 14 -416 17 -178 4 -243 9 -302 24 -203 52 -320 168
-392 386 -54 166 -66 273 -75 640 -8 323 -18 486 -40 655 -5 41 -16 163 -25
270 -40 494 -77 698 -157 854 -33 67 -39 87 -35 120 12 86 105 115 184 57z"/>
<path d="M2523 2640 c-44 -18 -42 -85 3 -115 34 -22 70 -12 89 25 20 39 19 47
-10 75 -25 26 -45 30 -82 15z"/>
<path d="M2946 2368 c-9 -12 -16 -31 -16 -41 0 -24 48 -67 75 -67 50 0 80 87
40 116 -30 22 -81 18 -99 -8z"/>
<path d="M5275 3986 c-155 -49 -265 -178 -265 -312 0 -96 65 -218 148 -279
178 -129 446 -50 523 154 28 76 24 195 -9 263 -27 54 -87 118 -135 143 -17 9
-43 23 -57 31 -31 17 -150 17 -205 0z m94 -287 c36 -13 37 -16 14 -41 -23 -26
-48 -22 -62 9 -10 21 -9 28 1 34 7 5 13 9 14 9 1 0 15 -5 33 -11z"/>
<path d="M4190 3751 c-108 -35 -198 -139 -221 -253 -22 -111 43 -230 153 -279
74 -32 192 -32 265 0 58 26 117 84 141 140 23 53 19 154 -8 226 -32 82 -44 99
-102 136 -43 28 -60 33 -127 35 -42 2 -87 0 -101 -5z m78 -268 c-2 -20 -9 -29
-25 -31 -25 -4 -29 9 -13 39 17 30 42 24 38 -8z"/>
<path d="M5310 1098 c-24 -26 -50 -107 -50 -155 0 -68 48 -123 107 -123 83 0
123 56 123 170 0 66 -2 74 -29 101 -25 24 -37 29 -80 29 -39 0 -55 -5 -71 -22z"/>
</g>
</svg>
