<?xml version="1.0" standalone="no"?>
<!DOCTYPE svg PUBLIC "-//W3C//DTD SVG 20010904//EN"
 "http://www.w3.org/TR/2001/REC-SVG-20010904/DTD/svg10.dtd">
<svg version="1.0" xmlns="http://www.w3.org/2000/svg"
 width="600.000000pt" height="600.000000pt" viewBox="0 0 600.000000 600.000000"
 preserveAspectRatio="xMidYMid meet">
<metadata>
Created by potrace 1.15, written by Peter Selinger 2001-2017
</metadata>
<g transform="translate(0.000000,600.000000) scale(0.100000,-0.100000)"
fill="#16364b" stroke="none">
<path d="M2480 5478 c-39 -21 -51 -36 -91 -115 -77 -155 -89 -262 -41 -354 61
-118 169 -142 418 -95 76 15 147 29 157 32 9 3 17 1 17 -3 0 -5 -52 -67 -117
-139 -175 -194 -289 -358 -392 -563 -57 -112 -34 -228 53 -270 l46 -23 302 21
c167 12 368 21 448 21 131 0 150 2 190 23 82 41 113 125 71 193 -37 61 -54 64
-415 64 -179 0 -326 4 -326 8 0 22 113 164 275 347 231 260 249 287 253 379 4
67 2 74 -30 120 -39 58 -123 109 -208 127 -67 14 -196 1 -343 -34 -53 -14 -99
-22 -101 -18 -2 3 6 31 20 61 29 68 30 125 4 167 -42 69 -117 89 -190 51z"/>
<path d="M1655 5106 c-112 -35 -289 -141 -383 -229 -60 -57 -162 -188 -194
-251 -16 -30 -19 -53 -16 -98 5 -70 27 -104 88 -135 38 -20 60 -23 161 -23
124 0 248 -18 297 -44 32 -16 47 -51 72 -164 21 -90 99 -144 186 -127 49 9
109 69 118 118 9 49 -28 208 -66 285 -54 108 -171 192 -310 223 -32 7 -58 15
-58 19 0 24 151 111 230 134 81 23 130 80 130 153 0 49 -28 102 -70 131 -38
25 -118 29 -185 8z"/>
<path d="M4155 4782 c-133 -40 -338 -171 -369 -237 -37 -77 -2 -168 76 -200
57 -23 91 -14 183 46 86 57 164 95 215 105 l33 7 -5 -74 c-8 -103 -49 -218
-141 -399 -71 -140 -78 -159 -74 -201 5 -60 52 -138 99 -163 35 -20 35 -20
185 7 174 32 339 48 403 38 40 -5 45 -9 48 -34 4 -34 -54 -271 -108 -441 -46
-143 -49 -180 -17 -227 32 -48 81 -71 140 -66 87 7 98 27 184 313 107 358 119
436 87 543 -21 71 -89 140 -170 171 -49 20 -78 24 -179 24 -66 1 -159 -3 -207
-7 l-88 -9 30 70 c63 149 83 236 84 377 1 107 -3 139 -19 184 -24 65 -83 134
-139 163 -57 29 -171 34 -251 10z"/>
<path d="M1984 3954 c-75 -31 -291 -89 -425 -114 -141 -27 -214 -141 -152
-238 38 -61 117 -76 263 -48 309 60 501 124 553 185 37 45 44 107 19 165 -41
92 -119 107 -258 50z"/>
<path d="M3695 3666 c-97 -24 -193 -67 -298 -135 -116 -76 -137 -100 -144
-164 -9 -86 59 -157 150 -157 43 0 61 7 136 55 85 54 228 121 238 111 14 -13
-61 -212 -147 -392 -40 -83 -54 -103 -80 -114 -91 -38 -105 -169 -25 -239 59
-51 102 -57 209 -26 325 93 562 253 606 409 24 86 -13 161 -98 198 -75 33
-150 2 -196 -82 -15 -27 -31 -50 -36 -50 -4 0 3 34 16 76 88 288 64 449 -78
509 -45 18 -180 19 -253 1z"/>
<path d="M2400 3414 c-105 -22 -307 -85 -340 -106 -32 -19 -69 -86 -70 -125 0
-39 31 -103 62 -124 50 -36 94 -35 215 4 108 35 243 67 283 67 38 0 21 -80
-50 -235 -28 -59 -31 -78 -28 -129 4 -54 8 -62 45 -97 51 -48 98 -58 158 -34
56 21 75 48 125 173 58 147 80 235 80 323 0 66 -4 84 -32 140 -57 111 -149
160 -302 158 -45 0 -110 -7 -146 -15z"/>
<path d="M1187 3139 c-167 -39 -248 -172 -181 -300 21 -42 88 -87 140 -95 27
-4 44 -11 44 -20 0 -8 -7 -109 -16 -226 -10 -134 -14 -273 -11 -373 10 -333
68 -450 222 -450 103 0 187 65 201 156 4 25 13 41 24 44 41 13 72 51 119 148
27 56 71 136 98 177 71 108 172 232 183 225 28 -17 2 -463 -35 -630 -30 -132
-31 -160 -6 -205 52 -99 196 -108 256 -17 21 32 50 137 76 272 20 101 21 131
16 357 -7 265 -20 354 -63 439 -44 88 -136 138 -226 124 -89 -13 -167 -61
-273 -169 -55 -56 -120 -129 -145 -163 -24 -34 -46 -61 -48 -58 -2 2 1 77 8
167 12 175 4 296 -26 386 -55 163 -199 248 -357 211z"/>
<path d="M4850 2847 c-19 -6 -58 -34 -86 -62 -56 -56 -78 -116 -72 -196 l3
-44 -105 -35 c-58 -20 -134 -48 -169 -64 -257 -111 -373 -285 -358 -536 7
-128 62 -251 166 -371 35 -40 41 -53 30 -60 -8 -5 -17 -9 -22 -9 -4 0 -28 -19
-53 -42 l-45 -41 -152 37 c-84 20 -183 41 -222 47 -116 17 -229 -3 -340 -59
-92 -47 -225 -180 -330 -329 -44 -62 -88 -116 -98 -119 -11 -3 -38 -23 -61
-44 -126 -116 -182 -118 -277 -12 -53 59 -119 172 -165 284 -50 120 -67 149
-108 183 -30 24 -48 30 -100 33 -116 8 -196 -61 -204 -176 -3 -47 3 -75 32
-155 126 -346 348 -578 593 -619 141 -23 295 25 423 134 36 30 80 62 97 72 23
11 59 55 113 136 94 141 194 250 254 279 64 31 130 27 286 -18 74 -21 162 -42
196 -46 118 -13 234 25 332 111 70 62 95 105 98 173 l3 56 41 7 c77 13 149 73
175 147 19 55 19 74 -1 142 -13 43 -29 67 -80 118 -79 77 -106 127 -102 184 3
38 7 44 43 61 22 10 99 36 170 58 72 22 152 52 179 66 153 83 230 224 229 417
0 50 -6 108 -12 131 -35 130 -170 202 -301 161z"/>
<path d="M3180 2431 c-174 -38 -546 -142 -570 -160 -47 -34 -70 -79 -70 -138
0 -70 23 -118 73 -154 62 -45 110 -47 245 -10 164 44 340 79 440 87 l85 7 -7
-34 c-23 -106 -15 -165 30 -219 36 -42 74 -60 129 -60 62 0 105 20 147 69 70
82 110 309 74 419 -24 71 -84 135 -164 174 -64 32 -72 33 -197 35 -96 2 -152
-2 -215 -16z"/>
</g>
</svg>
