<?xml version="1.0" standalone="no"?>
<!DOCTYPE svg PUBLIC "-//W3C//DTD SVG 20010904//EN"
 "http://www.w3.org/TR/2001/REC-SVG-20010904/DTD/svg10.dtd">
<svg version="1.0" xmlns="http://www.w3.org/2000/svg"
 width="600.000000pt" height="600.000000pt" viewBox="0 0 600.000000 600.000000"
 preserveAspectRatio="xMidYMid meet">
<metadata>
Created by potrace 1.15, written by Peter Selinger 2001-2017
</metadata>
<g transform="translate(0.000000,600.000000) scale(0.100000,-0.100000)"
fill="#16364b" stroke="none">
<path d="M1530 5751 c-8 -5 -100 -42 -205 -81 -104 -40 -209 -83 -232 -96 -72
-42 -93 -110 -49 -161 23 -27 28 -28 118 -28 165 1 526 23 547 35 75 40 42
160 -44 160 -39 0 -45 9 -16 27 42 27 31 116 -18 143 -24 12 -80 13 -101 1z"/>
<path d="M2404 5423 c-12 -2 -32 -15 -45 -29 -21 -23 -24 -37 -30 -162 -8
-166 -23 -270 -56 -382 -47 -163 -107 -243 -228 -304 -32 -16 -66 -37 -77 -48
-25 -25 -24 -88 2 -121 31 -39 67 -42 141 -12 196 79 305 235 364 522 27 129
52 400 42 454 -11 56 -61 92 -113 82z"/>
<path d="M3522 5314 c-37 -26 -65 -91 -58 -136 22 -140 159 -271 283 -272 44
-1 56 3 82 28 56 53 50 120 -19 224 -59 88 -117 140 -174 157 -63 19 -86 19
-114 -1z"/>
<path d="M3024 5131 c-113 -29 -204 -147 -211 -276 -3 -59 -1 -76 19 -109 45
-76 139 -97 233 -52 86 41 114 72 136 151 34 123 16 230 -45 270 -30 20 -89
27 -132 16z m1 -247 c-25 -38 -32 -19 -10 23 15 26 21 32 23 19 2 -9 -4 -28
-13 -42z"/>
<path d="M4791 4749 c-56 -12 -84 -49 -92 -121 -15 -148 27 -369 88 -461 47
-71 91 -100 161 -105 49 -3 63 0 99 24 25 17 53 48 70 78 25 45 28 61 28 136
0 74 -4 93 -31 150 -56 117 -199 282 -259 298 -17 5 -45 5 -64 1z"/>
<path d="M2658 4211 c-145 -47 -194 -206 -99 -321 91 -111 285 -132 455 -49
124 61 172 119 163 197 -8 69 -49 102 -177 142 -83 25 -127 33 -210 36 -58 2
-117 0 -132 -5z"/>
<path d="M1091 4104 c-40 -36 -50 -88 -27 -135 20 -40 20 -39 -2 -39 -28 0
-63 -30 -79 -67 -11 -28 -12 -42 -2 -70 23 -70 197 -153 318 -153 212 1 287
231 120 371 -61 51 -189 111 -249 117 -41 4 -51 1 -79 -24z"/>
<path d="M5185 3826 c-104 -33 -177 -95 -218 -184 -15 -35 -21 -68 -21 -127
-1 -70 3 -88 30 -145 107 -222 349 -262 540 -88 76 70 119 160 119 248 -1 69
-16 109 -63 165 -27 33 -120 103 -170 129 -38 19 -158 21 -217 2z m124 -295
c17 -11 -1 -46 -28 -54 -24 -6 -31 0 -31 29 0 30 31 43 59 25z"/>
<path d="M4262 3770 c-67 -14 -146 -54 -196 -100 -133 -123 -136 -322 -7 -443
64 -60 123 -81 208 -75 181 13 304 160 320 384 7 96 -6 143 -48 179 -53 44
-193 72 -277 55z m52 -292 c-15 -27 -38 -48 -51 -48 -21 0 -15 27 9 44 27 19
52 21 42 4z"/>
<path d="M3461 3362 c-14 -2 -35 -11 -48 -19 -47 -31 -173 -248 -173 -298 0
-40 50 -85 95 -85 102 0 234 137 259 268 6 36 -11 89 -36 110 -21 17 -67 29
-97 24z"/>
<path d="M1520 3104 c-197 -27 -313 -69 -418 -153 -200 -162 -265 -427 -157
-647 66 -135 162 -218 325 -279 197 -75 234 -113 359 -367 96 -194 168 -298
273 -393 200 -181 444 -234 758 -164 55 12 179 26 295 34 200 13 267 22 550
70 333 56 481 111 635 239 145 121 345 371 423 531 64 131 72 166 72 320 0
136 -1 142 -31 206 -59 125 -214 277 -365 358 -173 93 -309 95 -465 4 -138
-79 -194 -104 -288 -127 -80 -20 -114 -22 -281 -21 -261 3 -356 28 -555 144
-269 156 -277 160 -435 206 -194 56 -458 71 -695 39z m450 -374 c147 -21 237
-56 410 -160 257 -154 389 -207 578 -230 48 -6 117 -21 153 -32 l66 -21 184
27 c101 15 220 34 264 43 85 17 216 72 291 122 90 62 99 64 148 43 59 -27 182
-144 197 -189 21 -65 -20 -204 -92 -310 -67 -97 -281 -284 -389 -338 -38 -19
-107 -46 -154 -59 -127 -37 -417 -82 -641 -100 -223 -18 -252 -23 -380 -60
-241 -71 -388 -35 -502 120 -27 38 -94 152 -148 254 -53 102 -117 213 -141
247 -84 118 -196 198 -363 257 -121 43 -157 74 -168 141 -7 46 2 77 33 115 37
44 82 64 214 94 191 43 318 54 440 36z"/>
<path d="M455 2151 c-35 -15 -57 -48 -57 -86 0 -19 4 -41 10 -48 5 -6 24 -48
42 -91 39 -94 116 -211 167 -257 59 -52 136 -82 193 -77 64 6 97 30 122 85 56
126 -51 268 -318 420 -97 56 -128 67 -159 54z"/>
<path d="M4995 1466 c-17 -7 -36 -20 -44 -29 -7 -10 -28 -17 -45 -17 -70 0
-126 -61 -126 -136 0 -103 44 -220 100 -268 25 -21 42 -26 84 -26 103 0 156
67 176 221 21 170 8 228 -55 255 -41 17 -51 17 -90 0z"/>
</g>
</svg>
