<?xml version="1.0" standalone="no"?>
<!DOCTYPE svg PUBLIC "-//W3C//DTD SVG 20010904//EN"
 "http://www.w3.org/TR/2001/REC-SVG-20010904/DTD/svg10.dtd">
<svg version="1.0" xmlns="http://www.w3.org/2000/svg"
 width="600.000000pt" height="600.000000pt" viewBox="0 0 600.000000 600.000000"
 preserveAspectRatio="xMidYMid meet">
<metadata>
Created by potrace 1.15, written by Peter Selinger 2001-2017
</metadata>
<g transform="translate(0.000000,600.000000) scale(0.100000,-0.100000)"
fill="#16364b" stroke="none">
<path d="M2650 5543 c-27 -14 -44 -35 -71 -92 -62 -124 -84 -204 -84 -307 0
-81 3 -94 27 -131 17 -26 45 -49 75 -64 46 -23 58 -24 251 -24 111 0 201 -3
200 -6 -2 -3 -43 -40 -93 -81 -161 -135 -245 -235 -387 -463 -89 -142 -97
-172 -67 -246 46 -118 49 -119 448 -129 214 -6 358 -14 419 -25 113 -19 153
-11 202 40 33 34 35 41 35 100 0 54 -4 67 -25 90 -14 15 -34 32 -45 38 -40 21
-215 42 -549 65 l-99 7 53 65 c30 36 149 160 265 275 242 242 260 267 253 370
-5 81 -39 127 -123 169 -53 26 -71 30 -179 33 -67 2 -173 0 -236 -5 -63 -5
-119 -6 -123 -2 -4 4 9 41 29 84 30 63 36 84 31 118 -14 102 -122 165 -207
121z"/>
<path d="M1565 5136 c-190 -94 -435 -336 -525 -520 -29 -58 -32 -73 -28 -131
4 -59 7 -69 39 -101 47 -47 90 -52 205 -26 158 36 325 40 337 8 3 -6 -1 -68
-8 -136 -16 -151 -9 -193 43 -244 43 -44 100 -62 145 -46 47 16 75 37 92 69
19 38 49 289 42 362 -14 156 -133 276 -314 314 -38 8 -79 15 -93 15 -23 1 -22
3 21 43 56 51 138 101 208 127 29 10 60 25 68 32 24 20 43 72 43 119 0 86 -56
149 -139 156 -39 3 -60 -3 -136 -41z"/>
<path d="M4323 4689 c-90 -15 -339 -125 -391 -173 -78 -70 -66 -198 22 -240
60 -28 94 -21 242 53 171 86 184 90 184 60 0 -36 -66 -222 -111 -311 -23 -45
-68 -125 -101 -176 -32 -50 -61 -105 -64 -122 -9 -42 9 -83 62 -145 71 -82 85
-85 373 -91 135 -3 257 -7 270 -10 21 -4 22 -9 16 -42 -10 -54 -59 -178 -136
-344 -76 -162 -81 -191 -46 -252 43 -76 142 -102 208 -55 53 38 229 427 264
584 40 180 -23 333 -164 399 -43 19 -61 21 -262 20 l-216 -1 42 91 c67 144
132 316 144 380 26 141 5 242 -64 311 -66 67 -145 85 -272 64z"/>
<path d="M1965 3999 c-112 -50 -260 -97 -390 -124 -159 -34 -204 -68 -212
-162 -6 -70 27 -130 90 -162 l48 -24 82 17 c245 52 547 179 596 251 66 97 12
221 -100 231 -34 3 -60 -3 -114 -27z"/>
<path d="M3699 3677 c-133 -45 -283 -162 -308 -240 -32 -97 44 -197 149 -197
51 0 84 17 135 70 34 36 119 90 141 90 11 0 -6 -98 -30 -174 -12 -39 -42 -114
-65 -166 l-43 -95 -91 -45 c-82 -40 -94 -50 -114 -90 -13 -24 -23 -58 -23 -75
0 -47 40 -116 80 -137 54 -28 101 -23 188 21 43 22 134 60 203 86 265 100 339
166 339 302 0 88 -48 155 -126 175 -42 12 -45 15 -39 38 3 14 8 70 11 125 5
86 3 108 -15 155 -45 119 -132 180 -255 180 -47 0 -94 -8 -137 -23z"/>
<path d="M2430 3494 c-47 -9 -132 -32 -190 -51 -198 -66 -246 -108 -238 -207
5 -60 31 -101 81 -128 48 -26 83 -22 228 27 126 42 245 64 297 57 22 -3 23 -7
17 -40 -10 -55 -33 -116 -82 -227 -54 -120 -61 -159 -38 -206 50 -99 143 -137
220 -89 27 16 45 47 98 163 91 199 117 287 117 396 0 78 -3 95 -31 150 -36 71
-93 119 -174 146 -72 24 -204 27 -305 9z"/>
<path d="M1145 3177 c-65 -22 -140 -64 -173 -97 -112 -112 -33 -306 130 -318
l58 -4 0 -42 c0 -22 -9 -108 -20 -191 -47 -350 -54 -443 -41 -559 13 -119 28
-166 69 -210 49 -52 139 -72 209 -45 62 23 135 117 221 282 45 88 106 193 134
235 55 80 195 232 215 232 16 0 22 -22 35 -132 18 -163 -10 -395 -76 -633 -30
-106 -32 -135 -9 -182 22 -47 66 -73 126 -73 99 0 141 46 186 203 55 194 101
498 101 667 0 112 -28 256 -63 334 -78 169 -239 241 -385 170 -69 -33 -200
-160 -295 -288 -78 -103 -77 -106 -46 99 24 159 21 298 -6 377 -21 58 -84 132
-139 160 -51 26 -172 34 -231 15z"/>
<path d="M4811 2678 c-91 -16 -160 -103 -168 -211 l-5 -62 -105 -17 c-198 -33
-374 -114 -463 -215 -89 -102 -147 -274 -136 -407 7 -87 49 -220 93 -293 l34
-57 -28 -28 -28 -27 -145 69 c-221 105 -320 114 -477 41 -183 -86 -330 -242
-453 -483 -35 -68 -50 -87 -79 -101 -20 -9 -51 -28 -70 -42 -19 -14 -40 -25
-47 -25 -25 0 -84 73 -129 162 -50 95 -96 221 -120 327 -21 86 -52 138 -100
166 -76 44 -152 42 -226 -8 -38 -25 -79 -97 -79 -138 0 -73 113 -389 197 -551
86 -168 155 -242 277 -299 153 -71 364 -38 497 80 24 21 58 45 74 54 42 21 60
44 96 118 78 160 212 319 304 360 58 26 87 21 215 -33 112 -48 135 -55 218
-68 120 -20 227 16 324 108 54 52 70 77 82 134 5 20 17 32 44 43 20 9 50 28
65 43 82 77 82 184 2 307 -49 74 -65 118 -65 181 0 32 5 45 23 56 36 24 113
46 247 72 69 13 151 34 182 46 115 43 210 162 239 298 15 74 7 208 -17 257
-49 103 -162 163 -273 143z"/>
<path d="M3081 2524 c-97 -17 -426 -102 -470 -120 -48 -20 -71 -42 -92 -89
-57 -125 35 -275 168 -275 21 0 148 23 283 50 252 51 290 57 290 41 0 -5 -13
-43 -30 -84 -32 -81 -36 -110 -19 -154 26 -68 88 -106 174 -106 100 0 156 41
208 153 62 137 78 232 53 330 -25 98 -91 191 -161 227 -82 44 -253 55 -404 27z"/>
</g>
</svg>
