<?xml version="1.0" standalone="no"?>
<!DOCTYPE svg PUBLIC "-//W3C//DTD SVG 20010904//EN"
 "http://www.w3.org/TR/2001/REC-SVG-20010904/DTD/svg10.dtd">
<svg version="1.0" xmlns="http://www.w3.org/2000/svg"
 width="600.000000pt" height="600.000000pt" viewBox="0 0 600.000000 600.000000"
 preserveAspectRatio="xMidYMid meet">
<metadata>
Created by potrace 1.15, written by Peter Selinger 2001-2017
</metadata>
<g transform="translate(0.000000,600.000000) scale(0.100000,-0.100000)"
fill="#16364b" stroke="none">
<path d="M3112 5660 c-90 -55 -96 -171 -17 -332 60 -123 146 -204 340 -321 95
-58 96 -59 78 -79 -17 -19 -304 -212 -478 -321 -46 -30 -84 -62 -97 -82 -13
-23 -37 -42 -72 -58 -60 -28 -130 -87 -152 -128 -8 -16 -14 -49 -14 -75 0 -83
66 -144 155 -144 60 0 106 20 137 60 27 35 105 62 215 75 32 4 69 13 83 20 58
30 92 97 83 162 -5 30 -1 34 68 79 195 124 248 162 304 218 81 81 100 122 100
211 -1 118 -57 196 -218 301 -196 128 -210 139 -239 178 -16 22 -38 72 -49
110 -23 78 -30 91 -73 124 -37 29 -108 30 -154 2z"/>
<path d="M1270 5376 c-118 -42 -319 -245 -398 -402 -55 -109 -67 -165 -67
-319 0 -146 13 -209 56 -280 60 -100 216 -89 268 19 25 50 26 86 6 152 -22 71
-20 186 5 258 39 113 127 220 232 281 56 33 98 94 98 145 0 49 -42 113 -90
138 -50 25 -61 26 -110 8z"/>
<path d="M1618 5171 c-80 -16 -128 -74 -128 -155 0 -55 27 -106 67 -127 28
-15 28 -19 -1 -77 -38 -77 -57 -148 -58 -214 -2 -180 136 -277 395 -278 142 0
197 42 197 148 0 54 -25 100 -73 136 -22 16 -47 22 -113 25 -46 1 -84 7 -84
13 0 5 18 50 39 101 68 161 77 231 40 317 -42 98 -143 137 -281 111z"/>
<path d="M4490 4618 c-68 -36 -92 -143 -47 -208 33 -50 75 -67 182 -75 52 -4
95 -10 95 -14 0 -4 -51 -27 -112 -52 -93 -36 -117 -50 -135 -78 -48 -71 -20
-175 57 -213 49 -25 86 -22 187 13 143 50 259 115 328 184 89 88 107 163 60
256 -43 84 -155 140 -350 174 -136 24 -235 29 -265 13z"/>
<path d="M1855 4249 c-172 -40 -401 -159 -446 -233 -69 -113 65 -295 193 -263
13 4 49 26 80 50 109 84 257 147 348 147 21 0 50 10 71 24 99 67 87 211 -21
266 -43 22 -150 26 -225 9z"/>
<path d="M3966 3730 c-85 -26 -141 -101 -140 -191 1 -83 39 -156 126 -244 87
-86 153 -116 257 -116 79 0 126 18 183 69 93 84 104 197 25 270 -14 13 -28 40
-32 60 -9 49 -37 93 -72 113 -67 39 -269 62 -347 39z"/>
<path d="M2565 3700 c-93 -25 -259 -86 -289 -105 -80 -53 -71 -192 16 -245 48
-29 92 -25 211 20 59 22 127 43 152 47 l45 6 0 -31 c0 -88 -103 -290 -324
-631 -75 -117 -86 -139 -86 -178 0 -59 25 -110 70 -142 l36 -26 -29 -42 c-83
-116 -15 -282 122 -300 33 -5 58 3 158 50 183 86 323 139 323 123 0 -15 -78
-202 -138 -331 -53 -115 -65 -149 -65 -192 0 -169 205 -249 327 -127 41 41
148 267 195 414 62 195 74 248 74 340 1 73 -3 92 -26 136 -33 64 -89 113 -159
139 -111 41 -302 17 -482 -60 -44 -19 -81 -33 -83 -31 -3 3 110 202 232 407
139 233 182 356 173 488 -9 123 -77 224 -181 272 -55 25 -177 24 -272 -1z"/>
<path d="M1115 3545 c-102 -26 -288 -140 -343 -210 -31 -39 -46 -114 -32 -163
29 -109 136 -162 248 -123 28 10 52 15 52 10 0 -4 -25 -92 -57 -196 -111 -370
-124 -419 -149 -542 -14 -69 -26 -158 -27 -197 -1 -63 2 -77 26 -113 33 -50
61 -68 129 -87 69 -18 102 -18 144 2 58 28 352 361 558 632 121 159 134 164
121 49 -13 -119 -56 -389 -95 -589 -75 -383 -76 -507 -4 -575 39 -36 78 -47
135 -38 77 13 139 107 124 189 -10 49 10 164 70 411 69 285 86 397 86 564 0
222 -16 441 -35 486 -41 97 -121 135 -225 105 -78 -22 -199 -145 -411 -418
-52 -67 -96 -119 -98 -114 -1 4 21 70 48 147 72 198 120 367 127 450 19 232
-160 378 -392 320z"/>
<path d="M3620 3271 c-125 -41 -207 -140 -256 -307 -36 -125 16 -226 124 -241
56 -8 86 2 130 41 33 30 44 34 112 38 163 10 254 92 254 228 0 102 -44 169
-148 222 -45 23 -170 34 -216 19z"/>
<path d="M4675 3147 c-38 -18 -60 -43 -80 -91 -24 -56 -13 -93 60 -204 34 -53
71 -113 80 -133 17 -35 17 -37 -4 -65 -33 -46 -37 -110 -9 -164 56 -110 196
-118 285 -17 99 113 58 283 -142 597 -51 80 -121 108 -190 77z"/>
<path d="M4483 2294 c-24 -9 -60 -35 -86 -63 -58 -62 -79 -126 -70 -218 6 -61
5 -65 -13 -60 -225 63 -408 73 -529 27 -81 -31 -163 -113 -196 -195 -23 -58
-24 -67 -23 -330 1 -288 6 -332 50 -396 30 -44 102 -85 166 -94 103 -15 219
49 254 142 16 41 16 62 6 231 -6 102 -9 188 -7 190 5 5 147 -25 208 -45 63
-20 235 -5 321 28 183 71 289 300 257 558 -12 94 -40 152 -90 189 -70 51 -165
65 -248 36z"/>
<path d="M2161 1842 c-19 -9 -48 -34 -65 -55 l-31 -39 0 -206 c0 -264 23 -400
98 -582 66 -164 170 -265 363 -357 84 -40 154 -51 207 -34 50 17 114 90 128
145 6 26 15 46 19 46 3 0 57 -34 119 -74 120 -80 199 -112 297 -122 111 -12
232 30 323 112 142 128 75 316 -114 318 -49 1 -69 -4 -109 -28 -46 -27 -50
-28 -80 -13 -44 21 -241 169 -306 231 -79 74 -233 185 -272 197 -76 21 -148 2
-203 -55 -22 -22 -45 -50 -51 -61 -17 -30 -33 79 -40 270 -7 184 -12 209 -57
255 -64 66 -158 88 -226 52z"/>
</g>
</svg>
