<?xml version="1.0" standalone="no"?>
<!DOCTYPE svg PUBLIC "-//W3C//DTD SVG 20010904//EN"
 "http://www.w3.org/TR/2001/REC-SVG-20010904/DTD/svg10.dtd">
<svg version="1.0" xmlns="http://www.w3.org/2000/svg"
 width="600.000000pt" height="600.000000pt" viewBox="0 0 600.000000 600.000000"
 preserveAspectRatio="xMidYMid meet">
<metadata>
Created by potrace 1.15, written by Peter Selinger 2001-2017
</metadata>
<g transform="translate(0.000000,600.000000) scale(0.100000,-0.100000)"
fill="#16364b" stroke="none">
<path d="M2176 5475 c-96 -36 -176 -126 -224 -251 -27 -69 -27 -69 -28 -369
-1 -165 -7 -507 -13 -760 -7 -253 -15 -609 -19 -792 -4 -182 -11 -335 -15
-339 -21 -21 -335 73 -503 150 l-99 45 0 47 c0 57 -19 68 -38 22 l-14 -33 -26
58 c-32 71 -51 71 -55 -1 l-3 -52 -40 27 c-33 22 -42 24 -49 12 -6 -9 -3 -21
8 -34 46 -52 46 -54 4 -48 -41 5 -61 -7 -39 -25 6 -5 100 -54 207 -109 209
-107 377 -169 538 -199 l92 -18 0 -276 c0 -386 24 -575 105 -817 47 -142 103
-238 188 -322 82 -82 203 -149 319 -176 l77 -18 -6 -116 c-7 -143 8 -237 73
-451 25 -85 47 -162 48 -170 1 -12 -19 -16 -102 -20 -102 -5 -104 -6 -133 -38
-46 -51 -33 -104 34 -139 39 -20 154 -22 212 -3 88 28 144 100 145 185 0 22
-20 110 -44 195 -24 85 -50 180 -57 210 -15 60 -19 268 -6 313 8 28 9 29 65
23 31 -4 252 -7 489 -9 427 -2 433 -2 426 -22 -3 -11 -6 -74 -6 -140 0 -150
21 -254 79 -402 24 -61 44 -116 44 -121 0 -5 -42 -11 -94 -14 -106 -6 -152
-25 -175 -72 -30 -62 24 -128 116 -142 56 -8 173 10 221 35 64 33 85 64 90
131 4 51 -1 74 -38 171 -62 166 -83 271 -83 414 0 66 5 134 10 150 l9 30 195
17 c220 19 257 27 341 69 163 82 240 224 267 494 24 241 0 583 -53 750 -35
109 -103 225 -192 329 -46 53 -70 88 -62 90 7 2 65 16 128 31 235 55 471 164
573 263 55 55 73 92 42 92 -9 0 -12 6 -8 16 8 22 -15 34 -44 23 -23 -9 -24 -7
-18 20 9 42 -18 48 -52 11 -32 -36 -41 -37 -45 -8 -2 13 -11 24 -20 26 -14 3
-17 -6 -20 -55 l-3 -58 -110 -55 c-162 -81 -379 -150 -519 -164 l-58 -6 -157
153 c-214 209 -243 231 -561 412 -85 49 -188 110 -227 137 -97 65 -204 173
-268 272 -133 206 -184 370 -244 797 -17 118 -40 244 -52 280 -44 138 -155
276 -264 330 -62 30 -197 37 -259 14z m204 -165 c51 -26 107 -92 140 -164 29
-61 66 -223 95 -411 74 -481 183 -735 416 -965 99 -98 141 -127 484 -335 261
-158 333 -213 549 -425 217 -214 307 -319 359 -419 51 -97 64 -148 88 -331 32
-250 15 -524 -41 -672 -31 -83 -105 -161 -178 -188 -82 -31 -473 -62 -802 -64
-456 -2 -928 12 -995 29 -260 68 -398 287 -461 735 -21 147 -30 584 -14 735 6
66 16 280 21 475 5 195 14 549 21 785 6 237 11 561 9 721 -4 333 2 374 66 445
72 80 152 96 243 49z"/>
<path d="M2598 2878 c-32 -25 -32 -56 1 -88 16 -17 36 -30 44 -30 23 0 55 32
62 62 13 51 -63 90 -107 56z"/>
<path d="M3163 2825 c-30 -21 -29 -60 2 -90 30 -31 69 -32 89 -3 32 45 13 94
-39 103 -19 4 -38 0 -52 -10z"/>
<path d="M2800 1916 c-16 -16 -12 -41 9 -60 30 -28 120 -36 268 -25 75 5 151
7 169 3 25 -5 35 -1 47 16 16 22 12 55 -7 68 -17 11 -475 9 -486 -2z"/>
</g>
</svg>
