<?xml version="1.0" standalone="no"?>
<!DOCTYPE svg PUBLIC "-//W3C//DTD SVG 20010904//EN"
 "http://www.w3.org/TR/2001/REC-SVG-20010904/DTD/svg10.dtd">
<svg version="1.0" xmlns="http://www.w3.org/2000/svg"
 width="600.000000pt" height="600.000000pt" viewBox="0 0 600.000000 600.000000"
 preserveAspectRatio="xMidYMid meet">
<metadata>
Created by potrace 1.15, written by Peter Selinger 2001-2017
</metadata>
<g transform="translate(0.000000,600.000000) scale(0.100000,-0.100000)"
fill="#16364b" stroke="none">
<path d="M2117 5793 c-55 -43 -393 -356 -470 -437 -149 -155 -197 -232 -197
-319 0 -66 35 -124 94 -159 34 -19 54 -23 121 -22 88 1 129 13 495 152 342
130 383 152 417 216 20 38 13 118 -14 154 -10 15 -39 37 -64 50 -61 32 -103
25 -284 -47 -82 -33 -151 -58 -153 -56 -2 1 41 42 95 91 203 184 213 195 213
246 0 125 -155 205 -253 131z"/>
<path d="M3054 5671 c-40 -24 -64 -77 -64 -140 0 -75 39 -114 140 -142 167
-45 316 -144 368 -243 23 -45 26 -63 27 -146 0 -72 -4 -103 -17 -126 -39 -71
-119 -129 -237 -171 -36 -14 -78 -36 -94 -51 -60 -57 -55 -158 9 -219 63 -59
130 -55 283 18 215 102 315 218 355 412 31 149 15 310 -40 419 -66 131 -312
301 -556 384 -86 29 -132 30 -174 5z"/>
<path d="M943 5341 c-146 -53 -247 -140 -310 -267 -37 -76 -38 -81 -38 -184
l0 -107 47 -95 c51 -102 130 -194 223 -259 120 -83 260 -14 257 129 0 54 -17
79 -91 136 -121 94 -156 199 -88 271 17 19 68 54 112 78 62 33 84 51 102 82
42 74 22 167 -46 212 -42 28 -96 29 -168 4z"/>
<path d="M2745 4961 c-75 -27 -94 -39 -159 -100 -126 -121 -153 -261 -82 -417
58 -126 213 -224 380 -239 51 -5 66 -3 94 14 68 44 89 118 53 196 -26 58 -70
91 -138 105 -110 23 -148 60 -123 120 16 38 46 60 83 60 85 0 156 109 127 195
-6 19 -25 46 -41 60 -25 20 -41 25 -87 25 -31 -1 -80 -9 -107 -19z"/>
<path d="M4774 4940 c-40 -16 -92 -75 -103 -117 -24 -87 17 -329 76 -446 70
-141 171 -212 298 -211 281 3 377 356 158 578 -57 58 -161 127 -258 171 -76
35 -128 43 -171 25z"/>
<path d="M1851 4521 c-99 -37 -234 -140 -267 -203 -31 -59 -9 -138 51 -184 30
-22 50 -29 100 -32 l63 -4 61 56 c75 69 103 73 160 21 50 -46 92 -58 145 -44
115 30 162 161 96 261 -34 51 -72 83 -140 118 -64 33 -194 38 -269 11z"/>
<path d="M2785 3878 c-142 -50 -166 -207 -44 -284 35 -22 37 -26 33 -61 -16
-112 -61 -222 -163 -393 -49 -83 -56 -102 -56 -147 0 -117 123 -189 224 -132
43 24 83 81 159 226 126 242 174 480 128 636 -37 125 -165 196 -281 155z"/>
<path d="M1255 3814 c-48 -8 -133 -33 -240 -72 -124 -45 -169 -82 -191 -158
-14 -49 -14 -59 0 -108 27 -91 111 -140 206 -118 25 6 47 9 49 6 2 -2 -13 -30
-34 -61 -129 -195 -385 -788 -385 -893 0 -36 33 -101 66 -132 77 -71 180 -64
283 20 141 115 295 252 446 396 228 217 271 256 280 256 22 0 -39 -357 -86
-499 -19 -58 -145 -365 -246 -599 -29 -66 -35 -91 -31 -126 12 -104 111 -154
214 -107 50 23 70 50 129 177 239 511 340 867 340 1194 0 174 -12 228 -66 293
-42 51 -96 77 -161 77 -98 -1 -168 -46 -462 -302 -48 -42 -49 -42 -32 -11 8
17 43 76 77 129 90 142 147 267 161 351 10 63 10 79 -5 127 -20 63 -63 111
-122 137 -42 19 -139 30 -190 23z"/>
<path d="M4202 3775 c-131 -29 -241 -116 -271 -215 -14 -46 -14 -133 -1 -180
25 -90 110 -178 194 -201 62 -17 156 -12 219 11 73 28 167 97 212 157 44 59
121 217 130 266 9 46 -23 115 -64 140 -61 36 -297 48 -419 22z m103 -285 c-12
-19 -63 -41 -70 -29 -8 12 -8 12 20 27 25 14 58 15 50 2z"/>
<path d="M3462 3374 c-28 -14 -65 -42 -83 -62 -63 -71 -119 -226 -119 -328 0
-103 77 -164 205 -164 80 0 174 21 220 50 106 65 159 188 135 307 -36 179
-206 273 -358 197z"/>
<path d="M4864 2821 c-82 -60 -206 -207 -247 -292 -57 -116 -55 -220 5 -293
124 -150 385 -82 489 129 39 79 63 200 54 271 -6 48 -14 63 -67 123 -33 39
-73 74 -90 80 -55 19 -102 13 -144 -18z"/>
<path d="M4134 2471 c-57 -26 -110 -92 -123 -153 -12 -55 -11 -60 31 -206 17
-57 28 -105 26 -107 -2 -3 -40 11 -84 30 -185 79 -333 62 -433 -51 -54 -61
-71 -121 -71 -248 0 -172 70 -537 118 -616 49 -79 151 -124 245 -106 47 9 112
54 142 99 46 67 51 118 26 267 -12 73 -20 134 -18 136 2 2 19 -7 38 -21 93
-67 133 -85 190 -85 112 0 238 66 298 157 84 127 82 270 -10 630 -46 181 -69
224 -144 265 -63 34 -166 38 -231 9z"/>
<path d="M2935 2275 c-88 -19 -189 -62 -423 -179 l-210 -105 -42 20 c-58 28
-143 27 -205 -2 -55 -26 -164 -131 -188 -182 -31 -65 -18 -154 32 -211 24 -28
71 -49 121 -55 l44 -6 18 -75 c9 -41 17 -77 18 -80 0 -3 -24 -14 -52 -24 -74
-26 -158 -111 -188 -191 -27 -71 -38 -247 -22 -335 49 -261 297 -521 602 -631
56 -20 84 -23 200 -23 120 0 143 3 205 25 113 42 275 148 321 210 12 17 27 52
33 78 26 123 -58 231 -179 231 -52 0 -80 -12 -147 -62 -94 -69 -165 -100 -231
-100 -154 0 -308 91 -391 231 -66 112 -80 211 -30 211 23 0 92 -44 157 -101
24 -21 60 -43 79 -50 122 -40 255 63 257 200 1 70 -21 110 -87 157 -76 55
-125 147 -168 314 -22 89 -23 110 -6 110 8 0 63 30 123 67 125 76 261 142 353
172 35 12 66 21 69 21 9 0 -8 -61 -44 -157 -34 -93 -97 -226 -177 -376 -46
-86 -50 -144 -11 -203 38 -59 87 -87 160 -92 120 -8 175 49 308 322 151 311
182 545 96 722 -69 142 -201 192 -395 149z"/>
</g>
</svg>
