<?xml version="1.0" standalone="no"?>
<!DOCTYPE svg PUBLIC "-//W3C//DTD SVG 20010904//EN"
 "http://www.w3.org/TR/2001/REC-SVG-20010904/DTD/svg10.dtd">
<svg version="1.0" xmlns="http://www.w3.org/2000/svg"
 width="600.000000pt" height="600.000000pt" viewBox="0 0 600.000000 600.000000"
 preserveAspectRatio="xMidYMid meet">
<metadata>
Created by potrace 1.15, written by Peter Selinger 2001-2017
</metadata>
<g transform="translate(0.000000,600.000000) scale(0.100000,-0.100000)"
fill="#16364b" stroke="none">
<path d="M2234 5446 c-59 -26 -106 -143 -106 -267 0 -56 6 -81 27 -125 60
-122 153 -150 404 -123 55 6 107 9 116 7 13 -2 4 -20 -41 -83 -107 -149 -185
-273 -249 -401 -53 -103 -65 -136 -65 -174 0 -55 28 -103 75 -129 17 -9 32
-17 34 -19 3 -1 -3 -18 -12 -37 -38 -80 -6 -173 73 -213 57 -29 77 -27 324 45
105 30 274 77 374 104 186 49 220 65 254 117 37 56 11 144 -51 177 -57 29
-145 15 -590 -89 -107 -26 -196 -45 -197 -43 -6 6 36 109 77 191 22 43 100
168 174 277 133 196 165 261 165 334 0 92 -79 205 -172 245 -39 17 -72 23
-128 23 -64 -1 -214 -22 -272 -39 -15 -4 -16 3 -11 68 5 69 4 75 -22 106 -50
60 -114 77 -181 48z"/>
<path d="M3902 5100 c-133 -20 -274 -84 -305 -138 -38 -65 -17 -154 46 -192
43 -27 103 -25 168 4 60 26 145 47 165 39 41 -16 8 -190 -76 -392 -53 -129
-35 -212 56 -253 52 -23 90 -19 142 12 39 24 91 127 142 279 61 181 76 332 45
438 -44 149 -199 231 -383 203z"/>
<path d="M1710 4925 c-198 -36 -488 -175 -544 -260 -42 -64 -33 -145 24 -204
22 -23 40 -48 40 -56 0 -21 56 -81 87 -93 16 -6 82 -21 148 -32 231 -40 330
-73 418 -137 91 -67 196 -54 247 29 24 39 26 107 5 147 -45 89 -280 210 -458
236 -26 4 -49 11 -52 15 -11 19 169 69 248 70 57 0 95 18 130 60 67 79 48 190
-39 226 -41 17 -154 17 -254 -1z"/>
<path d="M4373 4234 c-121 -17 -165 -30 -197 -55 -84 -66 -71 -191 26 -244 34
-18 43 -18 160 -7 233 23 332 13 344 -35 16 -63 -10 -212 -71 -396 -21 -66
-24 -85 -15 -115 13 -47 27 -64 70 -91 72 -43 169 -18 211 54 41 70 109 361
109 467 0 82 -28 182 -69 245 -110 171 -271 221 -568 177z"/>
<path d="M2065 3900 c-168 -51 -261 -70 -395 -80 -120 -8 -147 -19 -181 -73
-15 -25 -19 -45 -17 -88 5 -64 32 -110 81 -137 43 -23 209 -20 362 8 143 25
357 94 396 127 109 92 61 255 -81 277 -24 4 -75 -7 -165 -34z"/>
<path d="M3680 3742 c-71 -24 -134 -56 -278 -144 -64 -38 -144 -84 -177 -100
-90 -45 -123 -73 -134 -115 -26 -94 51 -193 148 -193 32 0 163 63 311 149 58
34 108 61 112 61 9 0 -8 -49 -61 -172 -60 -142 -53 -222 27 -274 38 -25 113
-24 149 2 34 25 48 51 119 229 93 235 106 277 111 350 4 60 1 76 -19 115 -14
25 -43 58 -66 74 -54 38 -158 46 -242 18z"/>
<path d="M2220 3280 c-159 -20 -171 -23 -210 -57 -85 -71 -79 -186 14 -247 38
-26 46 -27 111 -22 183 16 335 19 335 7 0 -6 -9 -37 -20 -68 -25 -72 -25 -94
0 -143 47 -91 159 -112 239 -44 59 50 107 267 81 373 -15 65 -60 132 -109 164
-90 60 -196 69 -441 37z"/>
<path d="M4240 3197 c-14 -8 -69 -56 -121 -108 -56 -55 -123 -111 -165 -135
-99 -58 -237 -111 -324 -125 -41 -6 -85 -13 -97 -15 -37 -7 -92 -62 -103 -105
-27 -99 45 -199 143 -199 116 0 352 72 537 162 115 57 132 69 226 162 140 139
162 206 101 297 -48 71 -133 99 -197 66z"/>
<path d="M4900 3154 c-55 -24 -99 -62 -121 -107 -19 -36 -21 -52 -16 -131 3
-51 2 -97 -4 -107 -5 -10 -46 -46 -91 -80 -241 -184 -347 -334 -384 -544 -18
-101 -18 -164 0 -258 47 -245 213 -365 383 -279 128 66 170 199 105 334 -30
60 -31 69 -22 116 16 86 43 125 152 218 245 209 315 321 326 525 8 168 -27
256 -122 304 -58 29 -150 33 -206 9z"/>
<path d="M1244 3046 c-75 -33 -134 -131 -134 -220 0 -53 35 -114 82 -145 l36
-23 6 -92 c26 -447 42 -579 87 -749 35 -128 95 -187 190 -187 145 0 223 144
170 315 -10 33 -22 80 -26 104 l-7 44 31 -36 c38 -43 87 -61 141 -52 52 9 78
31 146 121 78 103 164 172 164 131 0 -8 14 -33 31 -57 l31 -43 -25 -86 c-15
-47 -32 -106 -39 -131 -17 -59 -16 -368 1 -429 36 -128 183 -160 265 -58 l31
39 1 186 c1 174 3 194 29 282 45 152 45 201 3 255 -16 21 -23 44 -24 79 -2
107 -98 235 -201 270 -137 47 -299 -10 -444 -156 -53 -54 -127 -158 -142 -202
-3 -6 -7 -9 -10 -6 -8 7 -27 282 -27 387 0 175 -34 304 -100 385 -62 75 -185
109 -266 74z"/>
<path d="M3530 2244 c-14 -2 -65 -9 -115 -15 -49 -6 -198 -30 -330 -54 -132
-24 -260 -46 -285 -50 -85 -14 -137 -50 -165 -118 -42 -100 19 -218 127 -248
34 -9 66 -7 172 10 72 12 237 32 366 46 129 13 261 27 292 31 l56 7 54 -55
c60 -62 120 -85 185 -73 139 25 190 166 115 317 -18 36 -49 81 -69 99 -91 80
-261 123 -403 103z"/>
<path d="M4472 1556 c-18 -9 -56 -38 -85 -65 -29 -27 -66 -55 -82 -62 -17 -6
-122 -15 -235 -19 -248 -10 -308 -23 -461 -101 -128 -64 -342 -213 -414 -288
-24 -24 -56 -45 -79 -52 -21 -6 -68 -35 -104 -66 -35 -30 -81 -62 -101 -70
-48 -20 -137 -19 -185 2 -111 47 -236 154 -333 283 -68 91 -101 112 -171 112
-115 0 -212 -97 -212 -210 1 -67 84 -184 229 -322 230 -219 471 -310 702 -264
143 29 337 135 410 225 23 29 40 40 71 45 34 6 58 24 162 124 189 182 245 203
551 201 197 -1 281 13 383 65 64 32 165 126 199 183 50 85 26 199 -53 260 -44
33 -138 43 -192 19z"/>
</g>
</svg>
