<?xml version="1.0" standalone="no"?>
<!DOCTYPE svg PUBLIC "-//W3C//DTD SVG 20010904//EN"
 "http://www.w3.org/TR/2001/REC-SVG-20010904/DTD/svg10.dtd">
<svg version="1.0" xmlns="http://www.w3.org/2000/svg"
 width="600.000000pt" height="600.000000pt" viewBox="0 0 600.000000 600.000000"
 preserveAspectRatio="xMidYMid meet">
<metadata>
Created by potrace 1.15, written by Peter Selinger 2001-2017
</metadata>
<g transform="translate(0.000000,600.000000) scale(0.100000,-0.100000)"
fill="#16364b" stroke="none">
<path d="M3552 5290 c-13 -6 -30 -26 -38 -46 -14 -34 -14 -41 2 -83 22 -61 50
-109 88 -150 106 -116 238 -122 223 -11 -10 79 -139 259 -204 286 -37 16 -40
16 -71 4z m121 -192 l18 -33 -30 35 c-17 19 -31 38 -31 43 0 16 24 -9 43 -45z"/>
<path d="M3015 5066 c-101 -61 -166 -236 -120 -323 35 -65 108 -57 193 22 109
100 146 233 83 296 -38 38 -98 40 -156 5z m95 -91 c0 -37 -26 -83 -73 -132
-54 -56 -72 -57 -63 -2 10 61 39 110 86 142 34 24 50 21 50 -8z"/>
<path d="M4745 4715 c-24 -23 -25 -29 -25 -157 0 -155 15 -363 30 -417 22 -83
90 -123 146 -86 84 55 98 307 28 522 -15 43 -32 90 -40 105 -31 60 -97 76
-139 33z"/>
<path d="M2664 4221 c-60 -26 -83 -114 -43 -165 62 -79 281 -148 400 -126 66
13 99 42 106 97 8 64 -17 83 -193 142 -156 53 -233 68 -270 52z"/>
<path d="M5270 3987 c-76 -22 -123 -49 -175 -102 -57 -56 -81 -101 -94 -172
-36 -189 131 -383 328 -383 148 0 291 85 354 210 32 65 31 187 -2 250 -33 64
-85 115 -165 162 -59 35 -80 41 -135 44 -36 2 -86 -2 -111 -9z m106 -307 c26
-10 26 -11 9 -30 -22 -24 -60 -26 -69 -4 -17 43 4 55 60 34z"/>
<path d="M1434 3976 c-64 -20 -103 -48 -134 -94 -53 -80 -58 -188 -14 -274 23
-45 103 -119 156 -146 58 -29 99 -74 142 -160 64 -128 85 -217 116 -502 28
-253 37 -325 60 -465 11 -66 27 -172 35 -235 72 -518 162 -695 417 -822 73
-36 178 -73 236 -83 23 -4 44 -10 47 -15 2 -4 -24 -26 -59 -48 -119 -78 -186
-172 -186 -263 0 -131 98 -179 368 -179 67 0 122 -4 122 -8 0 -4 -23 -16 -51
-27 -59 -23 -109 -74 -109 -111 0 -39 50 -84 95 -84 113 0 259 150 240 248
-18 98 -70 121 -295 133 -91 4 -178 13 -193 18 l-28 11 18 31 c22 38 98 96
244 186 l110 66 172 -1 c94 -1 269 -7 388 -14 l217 -12 4 -63 c3 -43 10 -71
24 -90 27 -36 100 -72 175 -85 50 -8 59 -13 53 -27 -35 -85 10 -141 112 -141
97 0 204 87 204 166 0 99 -46 129 -224 145 -61 6 -127 14 -146 18 -45 9 -52
37 -13 52 15 6 55 24 89 40 39 18 103 35 180 48 626 103 884 238 1025 536 104
222 115 442 30 629 -84 187 -270 370 -423 418 -148 45 -345 3 -473 -103 -137
-113 -333 -169 -590 -169 -336 0 -531 82 -787 328 -171 165 -249 260 -393 477
-206 313 -300 403 -598 573 -186 106 -267 128 -363 98z m127 -218 c19 -6 51
-22 73 -36 21 -13 72 -41 114 -63 185 -96 303 -217 462 -479 45 -74 103 -164
128 -200 63 -90 327 -351 442 -436 297 -220 454 -271 804 -261 315 9 510 63
682 190 106 78 117 82 229 82 86 0 106 -3 145 -24 75 -40 153 -129 206 -235
43 -88 47 -101 52 -188 6 -116 -7 -179 -58 -284 -72 -150 -197 -248 -399 -314
-176 -57 -288 -78 -616 -116 -273 -31 -329 -32 -720 -16 -165 7 -328 12 -362
11 -97 -1 -262 20 -338 42 -241 71 -338 235 -381 642 -8 84 -28 222 -44 307
-42 225 -57 326 -75 495 -27 252 -55 372 -116 500 -54 114 -115 185 -214 250
-85 56 -105 77 -105 114 0 31 35 39 91 19z"/>
<path d="M2382 2474 c-31 -22 -29 -67 4 -93 34 -27 58 -27 84 1 57 62 -18 141
-88 92z"/>
<path d="M2848 2079 c-28 -16 -23 -64 8 -88 35 -27 69 -27 88 1 22 31 20 51
-7 76 -25 23 -61 28 -89 11z"/>
<path d="M4205 3767 c-94 -31 -166 -93 -207 -175 -34 -69 -33 -197 1 -267 73
-146 199 -201 351 -150 76 25 160 109 185 185 32 95 15 265 -33 330 -50 67
-205 107 -297 77z m85 -290 c0 -28 -17 -47 -42 -47 -25 0 -23 25 4 50 28 26
38 25 38 -3z"/>
<path d="M3452 3355 c-34 -28 -152 -284 -152 -329 0 -38 39 -55 74 -32 35 22
104 127 143 216 44 101 43 134 -4 159 -28 15 -27 15 -61 -14z"/>
<path d="M458 1996 c-6 -14 -8 -31 -5 -39 9 -24 154 -126 232 -164 72 -34 76
-35 100 -19 17 11 25 26 25 46 0 37 -52 79 -182 149 -111 58 -152 64 -170 27z"/>
<path d="M5329 1107 c-25 -19 -56 -87 -64 -138 -12 -82 36 -149 109 -149 32 0
85 45 102 87 8 18 14 63 14 101 0 90 -18 112 -93 112 -29 0 -59 -6 -68 -13z"/>
</g>
</svg>
