<?xml version="1.0" standalone="no"?>
<!DOCTYPE svg PUBLIC "-//W3C//DTD SVG 20010904//EN"
 "http://www.w3.org/TR/2001/REC-SVG-20010904/DTD/svg10.dtd">
<svg version="1.0" xmlns="http://www.w3.org/2000/svg"
 width="600.000000pt" height="600.000000pt" viewBox="0 0 600.000000 600.000000"
 preserveAspectRatio="xMidYMid meet">
<metadata>
Created by potrace 1.15, written by Peter Selinger 2001-2017
</metadata>
<g transform="translate(0.000000,600.000000) scale(0.100000,-0.100000)"
fill="#16364b" stroke="none">
<path d="M1983 4899 c-133 -26 -233 -147 -233 -284 0 -22 7 -68 16 -100 28
-110 34 -155 44 -383 6 -125 18 -317 26 -427 12 -148 15 -269 11 -465 -3 -146
0 -366 5 -491 l11 -225 -111 -305 c-112 -309 -135 -379 -127 -388 3 -2 0 -10
-6 -17 -6 -8 -7 -22 -3 -36 5 -13 9 -34 9 -48 0 -21 4 -25 27 -22 21 2 27 -2
30 -19 2 -13 8 -24 15 -26 16 -6 75 83 72 110 -3 22 76 274 91 290 4 4 10 -27
14 -70 10 -126 51 -277 106 -390 59 -122 145 -215 257 -282 75 -44 203 -91
251 -91 48 0 52 -8 41 -94 -17 -139 17 -345 90 -544 45 -120 44 -122 -31 -122
-123 0 -178 -35 -178 -112 0 -112 114 -149 255 -84 70 32 100 57 126 108 28
56 24 104 -25 250 -60 181 -80 287 -80 435 -1 102 2 125 16 139 15 15 23 16
56 6 28 -8 176 -12 496 -12 303 0 455 -3 451 -10 -16 -26 -24 -196 -14 -287
11 -105 52 -272 90 -370 13 -34 20 -65 17 -69 -4 -4 -45 -10 -92 -14 -90 -9
-121 -20 -148 -54 -19 -23 -23 -77 -8 -106 16 -30 92 -54 147 -45 144 21 240
81 262 162 13 48 8 72 -43 218 -41 117 -76 305 -76 412 0 81 16 163 34 168 6
2 71 9 145 15 208 17 354 46 438 86 137 65 235 184 290 349 24 72 27 96 27
230 2 259 -52 429 -187 592 -21 25 -36 48 -33 50 9 10 104 -47 109 -66 4 -15
17 -20 70 -26 79 -9 90 -6 92 26 2 13 6 38 9 54 7 28 4 32 -43 58 -28 16 -51
35 -51 43 0 8 -9 14 -20 14 -11 0 -60 20 -109 45 -96 48 -233 97 -456 165 -77
23 -162 55 -190 70 -78 43 -150 82 -280 150 -642 337 -796 480 -1049 971 -52
101 -117 246 -145 321 -120 322 -144 370 -224 445 -61 58 -115 88 -172 98 -22
4 -47 8 -55 10 -8 1 -34 -1 -57 -6z m110 -163 c63 -26 124 -108 157 -210 7
-22 21 -53 31 -70 9 -17 36 -78 59 -136 53 -135 257 -553 317 -650 185 -300
381 -452 978 -760 110 -57 223 -118 250 -135 28 -17 106 -65 175 -105 252
-148 343 -213 410 -291 78 -90 115 -169 142 -296 63 -307 -51 -587 -266 -648
-51 -14 -182 -32 -450 -61 -312 -33 -1181 -27 -1390 11 -270 48 -413 226 -471
585 -29 179 -45 837 -31 1275 7 223 5 325 -7 500 -9 121 -19 270 -22 330 -10
190 -24 306 -52 427 -26 115 -26 118 -8 163 28 76 100 104 178 71z m-403
-2966 c0 -5 -2 -10 -4 -10 -3 0 -8 5 -11 10 -3 6 -1 10 4 10 6 0 11 -4 11 -10z"/>
<path d="M2612 2720 c-28 -12 -46 -54 -32 -80 13 -25 50 -50 73 -50 26 0 67
45 67 74 0 15 -11 33 -26 45 -29 23 -46 25 -82 11z"/>
<path d="M3050 2540 c-11 -11 -20 -29 -20 -40 0 -32 44 -70 80 -70 26 0 33 6
46 35 15 36 7 69 -20 87 -21 14 -66 8 -86 -12z"/>
<path d="M5192 3962 c-98 -35 -152 -110 -160 -223 -14 -198 108 -378 275 -405
115 -18 279 59 356 168 37 52 41 63 45 135 4 65 1 86 -17 124 -29 61 -101 129
-185 175 -64 34 -77 38 -165 41 -76 3 -107 0 -149 -15z m177 -283 c17 -6 31
-17 31 -25 0 -13 -30 -34 -49 -34 -15 0 -44 47 -36 60 8 13 14 13 54 -1z"/>
<path d="M5334 1118 c-58 -28 -95 -188 -60 -256 24 -47 69 -67 117 -53 64 19
99 90 99 198 0 58 -3 68 -29 94 -32 31 -84 38 -127 17z"/>
</g>
</svg>
