<?xml version="1.0" standalone="no"?>
<!DOCTYPE svg PUBLIC "-//W3C//DTD SVG 20010904//EN"
 "http://www.w3.org/TR/2001/REC-SVG-20010904/DTD/svg10.dtd">
<svg version="1.0" xmlns="http://www.w3.org/2000/svg"
 width="600.000000pt" height="600.000000pt" viewBox="0 0 600.000000 600.000000"
 preserveAspectRatio="xMidYMid meet">
<metadata>
Created by potrace 1.15, written by Peter Selinger 2001-2017
</metadata>
<g transform="translate(0.000000,600.000000) scale(0.100000,-0.100000)"
fill="#16364b" stroke="none">
<path d="M2370 5395 c-20 -22 -24 -38 -31 -152 -7 -124 -36 -335 -59 -438 -17
-77 -67 -172 -115 -218 -23 -23 -74 -57 -113 -76 -97 -47 -116 -89 -63 -142
38 -38 66 -37 149 5 146 74 248 193 296 345 33 103 66 340 73 517 6 135 5 142
-16 163 -30 30 -90 29 -121 -4z"/>
<path d="M3517 5299 c-9 -5 -26 -28 -38 -50 -19 -38 -19 -43 -4 -87 35 -104
144 -220 229 -243 86 -24 156 23 156 104 0 86 -130 252 -216 276 -49 14 -103
14 -127 0z"/>
<path d="M2996 5136 c-88 -33 -177 -166 -180 -268 -4 -179 156 -234 307 -105
44 38 87 142 87 210 0 50 -34 123 -70 149 -35 25 -98 31 -144 14z m45 -199
c-12 -35 -46 -75 -56 -65 -9 8 15 61 37 85 27 29 33 23 19 -20z"/>
<path d="M4760 4751 c-14 -4 -35 -22 -49 -41 -22 -34 -23 -40 -17 -160 14
-288 88 -479 196 -511 79 -24 143 9 186 93 52 103 41 240 -32 378 -41 79 -164
217 -211 236 -35 15 -36 15 -73 5z"/>
<path d="M2705 4231 c-98 -26 -155 -90 -155 -176 0 -186 268 -285 483 -179 63
31 100 61 127 106 48 79 4 174 -92 198 -18 5 -64 18 -101 29 -77 22 -216 34
-262 22z"/>
<path d="M1130 4133 c-46 -24 -98 -119 -99 -182 -2 -126 139 -244 269 -226
181 27 238 205 104 324 -45 39 -141 84 -205 96 -23 4 -45 0 -69 -12z"/>
<path d="M5230 3914 c-112 -31 -204 -111 -236 -206 -49 -150 30 -343 169 -412
119 -60 300 -11 405 109 55 62 75 112 80 201 4 72 1 89 -20 135 -29 63 -62 98
-138 147 -49 32 -63 36 -130 39 -45 2 -97 -3 -130 -13z m110 -284 c21 -14 0
-45 -31 -45 -19 0 -25 6 -27 28 -3 23 0 27 20 27 13 0 30 -5 38 -10z"/>
<path d="M4190 3756 c-66 -19 -106 -42 -152 -88 -60 -60 -82 -117 -82 -210 0
-65 5 -86 32 -140 38 -78 82 -124 147 -154 89 -42 215 -25 298 41 96 76 142
195 135 350 -5 120 -25 155 -106 186 -71 26 -207 34 -272 15z m100 -275 c0
-16 -41 -61 -56 -61 -20 0 -17 27 6 50 20 20 50 27 50 11z"/>
<path d="M3445 3366 c-41 -18 -80 -71 -142 -195 -61 -121 -66 -159 -27 -196
31 -28 71 -32 113 -10 70 35 178 191 196 282 9 46 -10 96 -44 116 -34 20 -55
21 -96 3z"/>
<path d="M1249 3240 c-183 -17 -293 -64 -381 -159 -118 -127 -148 -328 -77
-517 15 -40 39 -75 84 -120 84 -86 170 -126 331 -155 148 -26 201 -48 258
-109 67 -71 85 -115 171 -405 57 -193 149 -350 274 -467 162 -153 430 -239
696 -223 61 3 191 8 290 10 481 12 1028 36 1122 50 292 45 523 165 750 391
201 201 303 491 259 742 -28 160 -100 309 -207 429 -174 194 -327 261 -574
249 -226 -10 -350 -53 -558 -194 -200 -134 -239 -152 -356 -163 -102 -8 -198
0 -290 27 -124 36 -332 159 -611 364 -174 128 -338 195 -580 235 -111 19 -470
28 -601 15z m397 -391 c198 -13 326 -38 418 -82 40 -19 137 -81 216 -138 357
-258 540 -350 760 -385 52 -8 125 -19 161 -25 47 -7 96 -7 167 1 193 21 272
52 471 185 255 170 414 210 556 141 75 -37 178 -135 203 -193 49 -114 51 -245
7 -375 -44 -130 -90 -184 -249 -292 -93 -64 -145 -89 -246 -120 -158 -48 -234
-57 -615 -66 -198 -5 -468 -13 -600 -17 -466 -15 -557 -9 -659 45 -99 53 -149
141 -246 428 -111 328 -206 487 -349 583 -106 71 -169 95 -396 146 -80 18
-125 52 -125 97 0 21 8 32 33 45 56 30 249 39 493 22z"/>
<path d="M453 2090 c-52 -22 -65 -87 -25 -128 9 -9 33 -44 52 -76 68 -114 203
-210 297 -211 70 0 95 24 100 97 4 46 0 59 -26 100 -37 58 -127 126 -236 179
-90 43 -130 53 -162 39z"/>
<path d="M5204 1227 c-12 -6 -40 -22 -63 -35 -47 -25 -71 -69 -71 -125 0 -53
30 -126 67 -163 28 -28 41 -34 76 -34 77 0 117 72 132 237 7 71 6 73 -23 103
-33 33 -80 40 -118 17z"/>
</g>
</svg>
