<?xml version="1.0" standalone="no"?>
<!DOCTYPE svg PUBLIC "-//W3C//DTD SVG 20010904//EN"
 "http://www.w3.org/TR/2001/REC-SVG-20010904/DTD/svg10.dtd">
<svg version="1.0" xmlns="http://www.w3.org/2000/svg"
 width="600.000000pt" height="600.000000pt" viewBox="0 0 600.000000 600.000000"
 preserveAspectRatio="xMidYMid meet">
<metadata>
Created by potrace 1.15, written by Peter Selinger 2001-2017
</metadata>
<g transform="translate(0.000000,600.000000) scale(0.100000,-0.100000)"
fill="#16364b" stroke="none">
<path d="M1545 5761 c-37 -16 -56 -48 -85 -149 -46 -162 -62 -250 -63 -357 -2
-125 17 -185 74 -241 38 -37 43 -39 102 -39 49 0 72 6 107 27 87 51 217 208
337 407 76 128 82 168 32 225 -37 43 -81 54 -132 32 -38 -15 -46 -26 -140
-188 -26 -46 -63 -101 -82 -123 l-35 -40 6 35 c3 19 19 90 35 158 34 146 35
157 9 199 -32 54 -106 78 -165 54z"/>
<path d="M847 5491 c-181 -60 -309 -233 -311 -422 -1 -116 70 -226 181 -283
64 -32 149 -7 180 54 29 57 0 160 -48 175 -34 11 -64 55 -63 94 2 73 83 161
149 161 15 0 45 -5 65 -11 55 -17 107 -4 147 36 61 61 39 155 -45 191 -59 25
-186 28 -255 5z"/>
<path d="M3415 5439 c-42 -12 -85 -59 -91 -101 -9 -54 19 -102 80 -138 85 -50
82 -45 57 -75 -26 -34 -28 -93 -5 -142 26 -54 125 -148 177 -168 60 -23 142
-17 185 13 75 54 91 163 38 277 -55 122 -136 201 -296 295 -75 44 -103 51
-145 39z"/>
<path d="M2332 5229 c-60 -30 -78 -70 -86 -194 -8 -120 -31 -236 -56 -286 -28
-53 -92 -104 -172 -136 -80 -31 -118 -69 -118 -116 0 -42 31 -92 72 -117 52
-32 100 -26 206 26 219 106 330 308 347 630 6 110 5 122 -15 152 -21 34 -72
62 -112 62 -13 0 -42 -10 -66 -21z"/>
<path d="M2965 5142 c-54 -25 -110 -85 -143 -152 -23 -46 -27 -68 -27 -136 0
-70 3 -85 27 -121 14 -22 43 -48 65 -59 83 -42 261 -10 325 58 49 53 51 222 4
317 -49 95 -159 136 -251 93z"/>
<path d="M4712 4776 l-37 -34 0 -134 c0 -148 16 -230 67 -331 88 -176 252
-248 389 -170 66 37 103 82 129 156 24 67 25 125 5 194 -30 102 -104 171 -306
287 -97 55 -123 66 -162 66 -40 0 -53 -5 -85 -34z m283 -398 l16 -33 -21 24
c-11 13 -20 27 -20 32 0 18 10 8 25 -23z"/>
<path d="M2772 4189 c-99 -17 -180 -69 -222 -142 -25 -43 -30 -63 -30 -117 1
-163 114 -254 315 -254 140 1 257 38 389 125 70 46 106 97 106 150 0 47 -36
115 -73 138 -52 31 -236 89 -320 100 -87 12 -91 12 -165 0z"/>
<path d="M1055 4066 c-94 -41 -122 -160 -59 -244 34 -43 70 -58 164 -67 41 -3
92 -11 114 -17 l39 -9 -34 -35 c-73 -76 -238 -169 -398 -225 -118 -41 -152
-64 -170 -115 -33 -96 43 -204 143 -204 33 0 150 46 313 125 l133 63 10 -38
c19 -70 113 -129 184 -116 18 4 53 20 78 36 l46 30 50 -34 c69 -46 113 -59
182 -54 75 5 122 37 155 102 63 126 4 251 -144 307 -67 25 -162 34 -218 21
-24 -5 -43 -8 -43 -6 0 2 9 27 21 56 62 157 -17 316 -189 382 -125 48 -315 69
-377 42z"/>
<path d="M4205 3756 c-133 -42 -220 -124 -260 -245 -31 -93 -3 -190 77 -270
60 -59 133 -84 228 -79 185 11 322 145 366 361 29 142 -5 202 -133 231 -84 19
-221 20 -278 2z m75 -273 c0 -12 -33 -43 -47 -43 -22 0 -15 30 10 40 28 11 37
12 37 3z"/>
<path d="M5130 3466 c-163 -60 -270 -168 -306 -308 -34 -132 20 -268 127 -324
80 -41 214 -37 302 8 61 31 130 101 163 165 25 51 29 69 29 143 0 65 -5 96
-21 130 -26 56 -119 167 -156 186 -33 17 -91 17 -138 0z"/>
<path d="M3405 3391 c-47 -28 -81 -75 -129 -175 -61 -127 -71 -165 -57 -208
19 -56 54 -83 109 -82 105 1 178 44 241 142 39 61 65 160 56 213 -17 100 -138
161 -220 110z"/>
<path d="M2399 3120 c-88 -16 -156 -65 -211 -155 -14 -22 -46 -94 -72 -161
-73 -190 -110 -236 -245 -303 -71 -36 -219 -157 -272 -223 -107 -132 -202
-314 -247 -476 -53 -191 -29 -450 58 -623 89 -177 260 -313 501 -397 300 -105
562 -69 834 113 172 115 266 228 360 429 53 113 89 229 120 389 48 245 50 437
5 608 -39 150 -94 250 -201 361 -32 35 -86 100 -119 144 -116 159 -208 243
-308 278 -54 19 -145 27 -203 16z m149 -449 c23 -27 52 -69 66 -94 13 -25 60
-82 104 -125 93 -93 116 -142 132 -280 20 -172 11 -293 -36 -480 -51 -207
-126 -341 -243 -436 -139 -113 -243 -151 -397 -144 -82 3 -100 8 -170 42 -101
50 -205 151 -252 248 -96 196 -38 436 153 633 39 40 96 89 127 111 194 133
272 203 336 303 35 54 55 97 113 249 5 12 12 22 17 22 5 0 27 -22 50 -49z"/>
<path d="M731 2592 c-45 -22 -75 -80 -67 -126 10 -52 37 -79 133 -132 99 -55
199 -147 232 -212 46 -90 34 -203 -22 -218 -66 -16 -146 61 -217 211 -51 106
-67 127 -113 144 -66 25 -151 -33 -164 -113 -4 -28 2 -52 30 -110 143 -300
360 -442 562 -365 155 58 242 236 201 411 -45 195 -204 381 -417 487 -91 46
-109 49 -158 23z"/>
<path d="M4254 2190 c-42 -13 -100 -78 -115 -130 -10 -31 -16 -39 -28 -34 -9
4 -41 9 -72 11 -101 9 -187 -59 -197 -155 -5 -52 58 -410 82 -467 16 -38 68
-81 111 -90 17 -4 58 -21 92 -38 53 -25 70 -29 110 -23 100 13 180 91 202 197
6 28 11 109 11 182 0 72 5 193 11 268 11 128 10 139 -9 182 -34 77 -122 120
-198 97z"/>
</g>
</svg>
