<?xml version="1.0" standalone="no"?>
<!DOCTYPE svg PUBLIC "-//W3C//DTD SVG 20010904//EN"
 "http://www.w3.org/TR/2001/REC-SVG-20010904/DTD/svg10.dtd">
<svg version="1.0" xmlns="http://www.w3.org/2000/svg"
 width="600.000000pt" height="600.000000pt" viewBox="0 0 600.000000 600.000000"
 preserveAspectRatio="xMidYMid meet">
<metadata>
Created by potrace 1.15, written by Peter Selinger 2001-2017
</metadata>
<g transform="translate(0.000000,600.000000) scale(0.100000,-0.100000)"
fill="#16364b" stroke="none">
<path d="M2004 5811 c-30 -18 -53 -47 -219 -281 -49 -69 -129 -174 -177 -235
-49 -60 -98 -130 -110 -154 -68 -139 6 -271 152 -271 93 0 195 41 530 211 232
117 287 153 312 199 57 108 -19 237 -134 227 -37 -3 -68 -18 -156 -75 -143
-93 -156 -98 -113 -41 18 24 58 82 90 128 55 83 56 85 56 157 0 63 -3 76 -25
99 -14 15 -37 33 -52 41 -39 20 -117 18 -154 -5z"/>
<path d="M3025 5686 c-50 -22 -77 -60 -82 -113 -4 -42 -1 -54 26 -90 25 -35
51 -52 147 -97 211 -101 343 -205 392 -309 32 -67 54 -165 46 -201 -14 -64
-66 -107 -165 -136 -74 -22 -112 -48 -134 -90 -41 -80 11 -179 103 -196 54
-10 157 13 247 56 174 83 269 240 251 413 -10 97 -46 218 -89 302 -49 94 -173
226 -277 294 -80 52 -244 133 -324 161 -68 23 -99 24 -141 6z"/>
<path d="M959 5366 c-83 -29 -162 -81 -226 -149 -177 -187 -161 -455 37 -656
103 -104 178 -132 256 -95 69 33 100 116 70 188 -9 21 -43 63 -77 94 -74 69
-99 114 -99 181 0 39 6 56 26 81 27 32 79 62 126 74 14 3 40 18 58 32 90 76
83 211 -13 255 -53 24 -77 23 -158 -5z"/>
<path d="M2772 4985 c-110 -51 -212 -203 -212 -315 0 -106 71 -204 189 -259
50 -23 68 -26 161 -26 116 1 148 11 193 64 37 44 42 82 19 134 -21 47 -67 77
-117 77 l-28 0 34 23 c101 68 106 191 9 267 -82 65 -160 76 -248 35z m138
-325 c12 -8 11 -10 -7 -10 -13 0 -23 5 -23 10 0 13 11 13 30 0z"/>
<path d="M4758 4883 c-65 -50 -72 -71 -65 -202 18 -325 132 -497 340 -509 221
-13 342 201 239 422 -52 111 -159 207 -312 280 -95 46 -151 48 -202 9z"/>
<path d="M1912 4634 c-149 -40 -258 -156 -236 -251 30 -129 166 -163 283 -72
13 11 36 19 52 19 23 0 32 -7 48 -37 47 -92 134 -127 211 -85 82 45 103 136
53 230 -53 98 -135 167 -233 196 -65 19 -108 19 -178 0z"/>
<path d="M2995 3961 c-78 -19 -171 -89 -221 -166 -118 -185 -94 -466 51 -594
136 -119 297 -81 321 75 9 60 -25 127 -86 169 -49 35 -63 71 -50 131 15 66 35
84 91 84 92 0 159 58 159 136 0 124 -122 199 -265 165z"/>
<path d="M1195 3904 c-272 -65 -308 -81 -347 -157 -45 -89 -19 -203 59 -257
30 -21 48 -25 103 -24 l66 0 -104 -165 c-181 -289 -361 -685 -364 -797 -2
-122 91 -205 214 -191 62 8 96 28 250 148 175 137 273 223 465 408 92 88 171
161 175 161 20 0 -6 -223 -42 -366 -41 -159 -181 -474 -310 -699 -78 -134 -85
-167 -50 -234 26 -53 75 -81 136 -81 89 0 119 34 233 259 108 213 216 457 250
564 17 54 42 157 56 230 14 73 31 159 38 192 6 33 12 130 12 215 0 140 -2 159
-22 196 -57 107 -163 147 -291 109 -67 -20 -206 -114 -305 -205 -43 -40 -80
-71 -82 -68 -2 2 41 82 96 178 115 203 133 249 133 345 1 102 -43 174 -134
221 -34 17 -187 29 -235 18z"/>
<path d="M4173 3775 c-168 -47 -261 -153 -271 -308 -2 -40 1 -90 7 -112 25
-94 109 -178 205 -207 23 -7 73 -13 111 -12 89 0 158 30 237 103 73 66 123
143 171 260 33 81 38 100 32 140 -10 64 -61 114 -135 130 -91 20 -297 24 -357
6z m84 -320 c-31 -27 -57 -33 -57 -12 0 16 36 35 65 36 18 0 17 -2 -8 -24z"/>
<path d="M3445 3366 c-89 -41 -157 -132 -204 -273 -40 -120 -20 -197 63 -234
38 -17 54 -18 138 -10 113 11 171 35 227 96 48 52 64 105 63 202 -1 111 -39
186 -114 224 -50 25 -112 24 -173 -5z"/>
<path d="M4895 2941 c-48 -29 -145 -131 -187 -196 -105 -162 -103 -351 5 -439
30 -24 49 -31 98 -34 54 -4 68 -1 133 31 143 71 237 210 244 360 3 56 0 90
-12 120 -19 48 -99 138 -144 161 -41 21 -100 20 -137 -3z"/>
<path d="M4058 2535 c-86 -32 -144 -104 -155 -193 -4 -37 3 -82 27 -181 18
-72 30 -134 27 -137 -3 -3 -22 3 -44 14 -99 51 -204 64 -284 37 -65 -22 -110
-64 -149 -137 -33 -60 -34 -68 -38 -190 -5 -152 13 -276 65 -447 43 -141 61
-179 109 -221 52 -45 99 -63 165 -62 88 0 162 48 205 133 46 91 42 133 -34
349 -3 8 10 1 29 -17 84 -78 188 -106 286 -78 117 34 179 83 222 175 23 49 26
67 25 160 -1 95 -7 128 -64 345 -34 132 -66 257 -71 279 -14 57 -34 90 -79
128 -65 56 -160 73 -242 43z"/>
<path d="M2991 2190 c-64 -10 -148 -44 -285 -118 -138 -74 -334 -172 -344
-172 -5 0 -16 25 -26 56 -13 41 -31 70 -64 103 -70 69 -150 87 -245 55 -55
-19 -134 -99 -193 -196 -37 -60 -39 -67 -39 -145 0 -76 2 -84 31 -120 37 -46
87 -73 137 -73 33 0 37 -3 37 -24 0 -19 -8 -27 -35 -36 -97 -32 -217 -163
-250 -274 -80 -262 2 -584 200 -782 190 -191 507 -290 734 -230 235 63 472
215 500 322 23 85 -23 195 -97 233 -93 48 -155 37 -257 -46 -127 -102 -216
-127 -356 -98 -150 30 -286 120 -344 226 -37 68 -48 202 -21 244 25 37 47 30
86 -27 75 -111 195 -174 286 -149 159 43 195 211 69 331 -46 44 -78 100 -99
169 -21 71 -21 71 12 71 15 0 72 25 127 56 175 97 430 212 443 199 12 -12 -28
-107 -150 -352 -130 -263 -130 -263 -126 -323 3 -48 10 -67 34 -97 44 -54 76
-75 127 -80 137 -16 190 40 327 347 132 294 180 447 180 571 0 235 -173 391
-399 359z"/>
</g>
</svg>
