<?xml version="1.0" standalone="no"?>
<!DOCTYPE svg PUBLIC "-//W3C//DTD SVG 20010904//EN"
 "http://www.w3.org/TR/2001/REC-SVG-20010904/DTD/svg10.dtd">
<svg version="1.0" xmlns="http://www.w3.org/2000/svg"
 width="600.000000pt" height="600.000000pt" viewBox="0 0 600.000000 600.000000"
 preserveAspectRatio="xMidYMid meet">
<metadata>
Created by potrace 1.15, written by Peter Selinger 2001-2017
</metadata>
<g transform="translate(0.000000,600.000000) scale(0.100000,-0.100000)"
fill="#16364b" stroke="none">
<path d="M3000 5599 c-42 -17 -70 -50 -110 -129 -81 -161 -104 -304 -62 -386
62 -122 140 -160 345 -173 l109 -6 -64 -44 c-166 -117 -477 -389 -525 -461
-28 -40 -30 -104 -5 -141 22 -33 78 -82 117 -101 54 -28 196 -68 410 -118 116
-26 253 -62 306 -79 53 -17 109 -31 125 -31 64 0 134 72 134 138 0 40 -32 105
-62 127 -35 24 -192 70 -418 121 -113 25 -209 49 -214 54 -11 11 155 147 313
258 280 196 335 255 336 361 1 152 -141 221 -449 221 -79 0 -151 3 -159 6 -18
7 -10 36 42 144 36 76 39 116 10 171 -31 62 -114 94 -179 68z"/>
<path d="M1538 5347 c-152 -57 -351 -244 -459 -432 -86 -149 -159 -350 -159
-437 0 -88 48 -153 122 -164 20 -4 87 8 173 29 153 39 293 67 332 67 32 0 30
-6 -59 -190 -85 -176 -108 -239 -108 -297 0 -29 -7 -54 -21 -72 -69 -94 -3
-245 114 -258 35 -4 64 4 177 52 176 75 344 155 397 188 51 33 75 75 76 136 1
85 -55 149 -138 158 -36 5 -55 -1 -130 -41 -49 -25 -90 -45 -91 -43 -2 2 19
54 46 115 90 200 106 323 57 419 -52 102 -140 139 -300 130 -56 -4 -118 -11
-137 -16 -68 -18 -110 -22 -110 -11 0 6 28 52 61 102 76 113 195 234 272 276
96 54 127 129 86 209 -38 73 -125 107 -201 80z"/>
<path d="M4529 4520 c-56 -16 -267 -89 -352 -122 -47 -18 -87 -73 -87 -119 0
-80 49 -140 127 -155 23 -4 71 8 182 46 84 29 154 50 157 47 11 -11 -65 -140
-221 -378 -131 -198 -139 -214 -138 -272 1 -52 36 -111 76 -127 12 -4 32 -20
45 -34 32 -38 48 -42 247 -65 158 -19 208 -27 293 -46 12 -3 22 -10 22 -17 0
-10 -88 -166 -225 -399 -35 -58 -66 -119 -69 -136 -10 -45 9 -104 44 -138 24
-23 41 -30 89 -33 84 -6 123 18 187 116 80 123 191 322 236 423 35 81 42 106
45 179 4 81 2 88 -27 138 -60 103 -165 149 -440 192 -74 12 -136 23 -138 25
-2 1 49 93 112 204 64 111 129 227 145 259 63 125 76 228 40 311 -47 111 -180
149 -350 101z"/>
<path d="M3740 3633 c-67 -34 -100 -85 -100 -154 0 -83 32 -144 92 -175 32
-17 101 -18 130 -3 44 23 47 -42 6 -127 -20 -39 -26 -44 -67 -50 -189 -28
-391 -195 -391 -323 0 -70 58 -138 133 -157 53 -12 114 14 163 71 58 68 119
95 237 105 94 7 121 20 161 74 14 19 22 45 23 84 1 34 13 83 28 119 63 154 33
325 -79 450 -62 68 -133 105 -215 110 -58 4 -73 1 -121 -24z"/>
<path d="M2538 3569 c-157 -21 -411 -132 -455 -198 -30 -45 -32 -132 -3 -179
22 -35 72 -62 116 -62 14 0 76 24 138 54 61 30 144 62 185 72 117 28 127 10
86 -151 -28 -111 -76 -220 -165 -370 -68 -116 -78 -147 -57 -196 9 -22 12 -54
9 -90 -6 -82 27 -137 110 -180 60 -31 127 -25 320 30 217 61 238 65 238 46 0
-22 -47 -146 -91 -243 -37 -79 -40 -93 -36 -146 6 -70 41 -119 107 -153 53
-28 102 -29 155 -4 61 28 88 64 159 211 86 178 110 266 111 395 0 88 -3 107
-27 156 -53 114 -157 185 -285 196 -73 6 -197 -13 -303 -46 -33 -11 -60 -18
-60 -16 0 1 27 58 59 126 142 295 152 490 36 642 -67 88 -194 127 -347 106z"/>
<path d="M1125 3330 c-115 -24 -288 -129 -329 -199 -25 -44 -25 -133 1 -192
22 -49 80 -105 119 -115 28 -7 109 -1 138 11 18 8 19 5 12 -36 -4 -24 -20
-100 -36 -169 -48 -204 -62 -297 -67 -450 -12 -326 49 -448 232 -465 105 -9
120 2 231 179 51 81 139 211 195 289 57 78 138 193 182 255 l80 113 19 -43
c34 -73 18 -203 -66 -562 -79 -333 -67 -512 39 -585 107 -73 244 8 235 138
-10 129 -1 223 38 421 68 344 75 502 30 735 -31 164 -35 179 -71 231 -46 69
-103 97 -185 91 -114 -9 -176 -66 -394 -359 -62 -83 -114 -145 -116 -139 -2 6
3 44 12 84 40 186 60 327 60 442 1 105 -2 126 -22 170 -30 64 -64 100 -127
132 -55 28 -142 38 -210 23z"/>
<path d="M4725 2351 c-97 -25 -155 -91 -174 -196 l-6 -39 -47 3 c-26 1 -109
-3 -185 -9 -283 -23 -437 -88 -526 -222 -63 -95 -80 -170 -79 -350 l0 -157
-65 54 c-212 175 -388 184 -590 31 -112 -85 -185 -184 -290 -396 -66 -134 -72
-143 -81 -119 -6 14 -29 120 -52 235 -89 450 -130 527 -283 527 -48 0 -65 -5
-100 -29 -50 -35 -87 -102 -87 -159 0 -22 12 -75 25 -118 14 -44 48 -191 75
-329 32 -159 60 -275 79 -319 58 -138 151 -239 268 -291 94 -42 248 -20 310
45 36 37 93 147 118 227 25 76 76 183 125 259 51 79 137 171 160 171 18 0 48
-23 175 -133 131 -113 248 -157 367 -137 106 17 214 87 247 159 9 20 30 56 46
80 l30 45 0 215 0 214 30 9 c17 5 122 11 235 14 233 6 291 14 365 48 112 51
184 154 206 296 20 130 -3 234 -64 298 -59 62 -157 93 -232 73z"/>
</g>
</svg>
