<?xml version="1.0" standalone="no"?>
<!DOCTYPE svg PUBLIC "-//W3C//DTD SVG 20010904//EN"
 "http://www.w3.org/TR/2001/REC-SVG-20010904/DTD/svg10.dtd">
<svg version="1.0" xmlns="http://www.w3.org/2000/svg"
 width="600.000000pt" height="600.000000pt" viewBox="0 0 600.000000 600.000000"
 preserveAspectRatio="xMidYMid meet">
<metadata>
Created by potrace 1.15, written by Peter Selinger 2001-2017
</metadata>
<g transform="translate(0.000000,600.000000) scale(0.100000,-0.100000)"
fill="#16364b" stroke="none">
<path d="M2356 5392 c-14 -17 -16 -44 -15 -213 2 -212 -8 -283 -55 -398 -53
-131 -110 -198 -221 -258 -84 -46 -101 -77 -68 -121 34 -46 66 -51 129 -18
127 67 206 160 273 321 63 149 73 210 78 440 5 204 4 211 -17 238 -26 33 -78
37 -104 9z"/>
<path d="M3506 5279 c-17 -20 -26 -43 -26 -64 0 -83 114 -241 206 -286 87 -42
159 -7 159 79 0 54 -45 136 -120 220 -52 58 -97 82 -153 82 -33 0 -45 -6 -66
-31z"/>
<path d="M3000 5115 c-82 -37 -148 -137 -157 -235 -16 -178 162 -230 296 -85
41 44 71 121 71 179 -1 44 -34 111 -64 131 -37 24 -104 29 -146 10z m70 -145
c0 -12 -7 -34 -15 -50 -17 -34 -68 -76 -73 -61 -6 19 18 78 43 105 29 31 45
33 45 6z"/>
<path d="M4752 4743 c-29 -29 -30 -31 -37 -174 -11 -239 28 -417 106 -484 110
-92 219 11 219 205 0 138 -70 336 -153 433 -45 53 -95 61 -135 20z"/>
<path d="M2637 4209 c-98 -52 -104 -177 -11 -258 107 -95 288 -113 417 -43 71
38 97 73 97 130 0 79 -24 106 -122 136 -202 61 -312 72 -381 35z"/>
<path d="M5225 3976 c-100 -31 -181 -118 -206 -219 -16 -65 -6 -161 25 -230
32 -72 110 -151 184 -185 205 -94 436 69 450 319 8 133 -40 222 -157 293 -57
35 -61 36 -157 35 -55 0 -117 -6 -139 -13z m152 -315 c18 -9 -12 -51 -36 -51
-24 0 -47 50 -29 61 12 8 39 4 65 -10z"/>
<path d="M4209 3754 c-100 -30 -193 -123 -221 -217 -22 -78 -15 -158 21 -231
84 -171 279 -206 448 -80 79 59 123 164 123 291 0 123 -27 173 -115 213 -93
42 -173 50 -256 24z m111 -282 c0 -18 -33 -52 -51 -52 -24 0 -24 15 1 40 20
20 50 27 50 12z"/>
<path d="M1105 3464 c-149 -36 -265 -160 -297 -319 -31 -155 68 -322 241 -409
63 -32 184 -66 234 -66 13 0 47 -7 76 -16 118 -35 202 -170 272 -434 22 -85
64 -247 94 -360 86 -331 134 -433 258 -546 74 -66 208 -135 322 -165 120 -31
480 -45 1100 -41 543 4 667 11 876 53 346 68 660 242 805 445 103 143 150 285
161 475 13 254 -47 449 -192 617 -230 267 -515 334 -902 211 -124 -39 -226
-94 -389 -210 -166 -118 -236 -156 -320 -174 -193 -41 -303 -5 -654 212 -107
66 -260 161 -340 210 -80 49 -205 129 -279 176 -170 109 -401 224 -556 276
-228 77 -380 96 -510 65z m214 -339 c273 -48 491 -155 976 -480 165 -111 344
-227 398 -259 256 -151 470 -219 682 -219 199 1 334 54 620 243 233 155 349
202 495 202 106 1 174 -24 248 -88 105 -92 150 -189 159 -344 6 -118 -13 -217
-62 -316 -91 -186 -342 -314 -775 -394 -139 -26 -663 -45 -960 -36 -367 12
-602 26 -671 41 -209 43 -295 144 -355 419 -145 660 -205 814 -382 977 -119
110 -228 163 -358 174 -77 7 -146 28 -165 51 -15 18 -9 24 33 34 18 4 33 8 33
9 0 1 38 -6 84 -14z"/>
<path d="M2240 2333 c-44 -16 -52 -72 -15 -108 30 -31 69 -32 89 -3 24 34 20
73 -10 97 -27 21 -37 24 -64 14z"/>
<path d="M2882 2064 c-49 -34 -7 -135 51 -120 45 11 67 96 31 123 -24 17 -55
17 -82 -3z"/>
<path d="M3436 3349 c-29 -22 -166 -293 -166 -326 0 -33 29 -63 61 -63 37 0
105 61 161 143 83 123 101 207 52 246 -34 27 -74 27 -108 0z"/>
<path d="M494 2040 c-24 -9 -44 -57 -35 -81 3 -8 20 -31 37 -50 18 -18 53 -57
79 -86 55 -61 115 -93 172 -93 91 0 125 83 62 154 -34 40 -138 108 -216 142
-58 26 -67 27 -99 14z"/>
<path d="M5342 1093 c-29 -25 -62 -115 -62 -169 0 -77 36 -124 95 -124 76 0
125 72 125 184 0 61 -3 70 -29 97 -35 35 -96 40 -129 12z"/>
</g>
</svg>
