<?xml version="1.0" standalone="no"?>
<!DOCTYPE svg PUBLIC "-//W3C//DTD SVG 20010904//EN"
 "http://www.w3.org/TR/2001/REC-SVG-20010904/DTD/svg10.dtd">
<svg version="1.0" xmlns="http://www.w3.org/2000/svg"
 width="600.000000pt" height="600.000000pt" viewBox="0 0 600.000000 600.000000"
 preserveAspectRatio="xMidYMid meet">
<metadata>
Created by potrace 1.15, written by Peter Selinger 2001-2017
</metadata>
<g transform="translate(0.000000,600.000000) scale(0.100000,-0.100000)"
fill="#16364b" stroke="none">
<path d="M1511 5743 c-17 -16 -69 -91 -118 -168 -169 -271 -182 -314 -119
-383 33 -35 37 -37 98 -37 55 0 73 6 143 44 99 53 381 247 406 280 50 63 2
161 -80 161 -32 0 -56 -11 -121 -55 -44 -30 -80 -51 -80 -47 0 4 14 27 30 51
61 90 20 180 -82 181 -38 0 -54 -5 -77 -27z"/>
<path d="M2369 5435 c-14 -8 -31 -27 -37 -42 -6 -15 -13 -109 -16 -208 -5
-199 -20 -288 -68 -402 -38 -91 -92 -153 -193 -218 -44 -29 -86 -59 -93 -67
-22 -27 -32 -77 -21 -106 41 -109 138 -95 311 42 183 146 279 416 282 799 l1
158 -33 30 c-37 33 -88 38 -133 14z"/>
<path d="M3512 5324 c-26 -18 -52 -75 -52 -114 0 -49 66 -163 130 -224 123
-118 233 -126 287 -22 34 65 -11 176 -112 281 -77 79 -198 118 -253 79z"/>
<path d="M2997 5146 c-64 -18 -123 -60 -163 -119 -89 -130 -65 -277 54 -329
61 -27 125 -19 218 27 65 32 73 39 93 85 12 28 27 76 33 106 31 152 -89 269
-235 230z"/>
<path d="M4737 4749 c-40 -30 -50 -86 -43 -219 9 -151 38 -272 82 -347 47 -77
68 -98 128 -128 115 -57 241 -12 302 108 89 175 -7 367 -276 550 -97 65 -145
74 -193 36z m248 -410 c9 -17 14 -33 11 -36 -4 -4 -36 49 -36 62 0 13 11 2 25
-26z"/>
<path d="M2667 4226 c-74 -20 -128 -63 -159 -125 -94 -185 63 -387 298 -383
114 2 238 65 335 169 73 78 85 145 39 220 -28 47 -57 62 -182 94 -138 35 -264
44 -331 25z"/>
<path d="M1063 4090 c-80 -48 -85 -174 -9 -224 14 -9 57 -23 96 -31 80 -17
140 -40 140 -53 0 -26 -153 -72 -352 -106 -105 -18 -151 -143 -82 -225 41 -49
79 -56 197 -36 272 45 440 133 502 260 28 57 27 166 -2 221 -46 87 -160 159
-306 194 -103 25 -144 25 -184 0z"/>
<path d="M4170 3766 c-77 -23 -98 -34 -144 -76 -61 -57 -89 -125 -88 -220 0
-234 192 -385 396 -313 124 44 235 205 257 371 13 98 9 120 -32 167 -22 25
-49 41 -97 56 -84 26 -229 34 -292 15z m110 -293 c0 -14 -34 -43 -52 -43 -22
0 -23 8 -1 32 15 17 53 25 53 11z"/>
<path d="M1670 3719 c-58 -18 -87 -46 -109 -104 -58 -155 -18 -319 96 -397 55
-39 86 -48 156 -48 106 1 185 49 235 145 35 68 37 180 4 242 -53 101 -159 166
-277 170 -38 1 -86 -3 -105 -8z"/>
<path d="M5156 3625 c-128 -53 -225 -145 -267 -254 -58 -155 30 -340 188 -397
123 -43 325 25 394 134 86 135 48 328 -92 475 -63 65 -66 67 -114 67 -30 0
-74 -10 -109 -25z m55 -348 l-21 -21 0 21 c0 12 8 26 18 32 26 15 28 -7 3 -32z"/>
<path d="M3442 3383 c-45 -22 -108 -95 -167 -194 -41 -70 -50 -92 -50 -132 0
-41 5 -53 28 -73 15 -13 39 -27 53 -30 41 -11 140 25 188 67 62 54 117 165
124 245 5 62 4 64 -31 99 -40 40 -88 46 -145 18z"/>
<path d="M2530 3299 c-157 -41 -258 -108 -371 -247 -130 -161 -170 -194 -321
-269 -304 -149 -503 -382 -594 -693 -26 -90 -26 -290 0 -375 46 -152 128 -279
271 -420 252 -249 486 -365 734 -365 142 0 234 25 396 104 316 155 580 416
698 691 21 49 58 131 82 180 24 50 49 114 55 144 19 81 7 239 -23 331 -23 68
-138 316 -222 480 -18 36 -36 86 -40 113 -20 131 -193 285 -372 332 -78 20
-202 18 -293 -6z m230 -393 c0 -8 30 -58 66 -113 37 -54 89 -145 116 -203 27
-58 56 -118 65 -135 118 -224 128 -280 67 -381 -20 -32 -42 -75 -49 -95 -36
-99 -128 -248 -208 -336 -111 -120 -350 -271 -479 -302 -124 -29 -240 -4 -367
81 -98 66 -251 189 -288 232 -99 112 -109 290 -26 436 80 139 215 276 344 349
162 93 265 168 381 279 137 131 167 154 238 180 66 25 140 29 140 8z"/>
<path d="M378 2265 c-33 -19 -48 -44 -48 -82 0 -28 74 -236 124 -347 39 -88
129 -218 187 -270 130 -117 288 -138 373 -50 66 68 72 173 16 292 -67 143
-204 270 -428 398 -127 72 -177 85 -224 59z m365 -425 c50 -55 91 -119 82
-128 -9 -9 -82 74 -113 128 -29 51 -15 51 31 0z"/>
<path d="M4204 1916 c-71 -32 -94 -98 -75 -214 16 -96 94 -370 119 -419 79
-153 251 -137 328 31 41 91 104 376 104 470 0 117 -152 187 -248 116 l-30 -23
-33 24 c-39 28 -120 36 -165 15z"/>
</g>
</svg>
