<?xml version="1.0" standalone="no"?>
<!DOCTYPE svg PUBLIC "-//W3C//DTD SVG 20010904//EN"
 "http://www.w3.org/TR/2001/REC-SVG-20010904/DTD/svg10.dtd">
<svg version="1.0" xmlns="http://www.w3.org/2000/svg"
 width="600.000000pt" height="600.000000pt" viewBox="0 0 600.000000 600.000000"
 preserveAspectRatio="xMidYMid meet">
<metadata>
Created by potrace 1.15, written by Peter Selinger 2001-2017
</metadata>
<g transform="translate(0.000000,600.000000) scale(0.100000,-0.100000)"
fill="#16364b" stroke="none">
<path d="M3035 5054 c-84 -43 -145 -141 -145 -232 0 -43 5 -58 25 -77 31 -32
61 -31 116 3 90 58 158 159 159 235 0 75 -78 111 -155 71z m93 -77 c5 -37 -36
-105 -94 -156 -68 -60 -101 -52 -87 22 17 90 92 170 153 164 19 -1 26 -8 28
-30z"/>
<path d="M4782 4710 c-12 -5 -26 -20 -31 -32 -9 -27 -32 -339 -34 -480 -2 -79
1 -100 15 -114 24 -25 77 -22 98 4 19 23 22 43 42 381 l12 204 -28 23 c-29 26
-39 28 -74 14z"/>
<path d="M1741 4549 c-120 -61 -158 -239 -82 -389 46 -90 106 -346 130 -550
16 -133 31 -489 41 -935 7 -349 10 -396 38 -580 39 -256 53 -320 93 -429 49
-135 118 -232 214 -301 88 -63 171 -95 366 -139 l26 -6 -5 -174 c-6 -238 8
-346 72 -548 l15 -48 -82 0 c-102 0 -145 -19 -165 -71 -12 -32 -12 -41 2 -71
23 -48 70 -68 160 -68 150 0 256 72 256 175 0 19 -18 77 -39 129 -63 151 -76
224 -76 426 0 96 4 188 8 204 8 28 8 28 65 21 158 -21 376 -21 763 0 l137 8
-5 -89 c-9 -152 37 -376 113 -562 19 -46 32 -87 29 -93 -4 -5 -42 -9 -86 -9
-95 0 -142 -17 -163 -59 -20 -37 -20 -54 -1 -90 18 -37 63 -54 135 -54 112 1
212 45 258 113 34 51 27 117 -29 260 -73 186 -94 282 -94 437 0 75 4 136 10
142 6 5 69 17 140 26 165 20 441 79 520 111 247 100 385 320 385 611 0 215
-90 402 -245 508 -77 52 -258 129 -460 195 -88 29 -196 68 -240 87 -134 58
-173 73 -354 135 -213 72 -305 114 -441 205 -309 205 -424 347 -675 828 -111
215 -175 317 -267 430 -149 183 -212 226 -343 232 -68 4 -87 1 -124 -18z m215
-164 c20 -15 51 -48 68 -73 17 -25 52 -70 79 -100 71 -83 104 -136 259 -419
154 -283 202 -360 285 -467 119 -151 245 -267 418 -383 118 -79 203 -121 350
-173 255 -90 341 -123 370 -140 44 -25 263 -105 390 -141 131 -37 322 -119
386 -165 102 -74 168 -219 169 -368 0 -205 -89 -370 -248 -454 -110 -59 -379
-106 -840 -149 -313 -29 -652 -35 -772 -14 -36 6 -112 18 -170 26 -409 58
-563 169 -629 454 -35 148 -61 412 -71 711 -5 157 -14 384 -20 505 -5 121 -12
285 -15 365 -14 324 -93 710 -173 840 -39 62 -24 153 28 174 33 12 100 -2 136
-29z"/>
<path d="M2530 2630 c-28 -28 -25 -57 9 -91 35 -35 64 -37 85 -7 23 32 20 71
-7 96 -29 27 -61 28 -87 2z"/>
<path d="M2982 2394 c-33 -23 -29 -67 8 -94 41 -29 77 -20 95 22 7 18 10 39 8
47 -14 41 -71 54 -111 25z"/>
<path d="M5235 3997 c-87 -29 -145 -76 -180 -147 -56 -111 -10 -320 96 -435
108 -117 312 -119 430 -4 69 67 102 142 107 244 7 141 -43 232 -170 307 -67
39 -76 42 -157 45 -52 2 -102 -2 -126 -10z m149 -307 c12 -12 -8 -36 -34 -43
-21 -5 -40 17 -40 49 0 13 6 15 32 10 18 -3 37 -11 42 -16z"/>
<path d="M4215 3751 c-157 -40 -284 -236 -246 -378 18 -65 68 -123 140 -160
55 -29 72 -33 139 -33 135 1 226 48 279 145 70 127 0 319 -144 397 -53 29
-122 41 -168 29z m58 -280 c6 -23 -10 -41 -35 -41 -22 0 -23 23 -2 44 20 21
31 20 37 -3z"/>
<path d="M5367 1108 c-34 -12 -61 -63 -78 -144 -15 -72 -7 -107 31 -145 34
-34 63 -36 108 -9 48 30 75 97 76 188 1 69 -1 75 -27 98 -30 25 -63 29 -110
12z"/>
</g>
</svg>
