<?xml version="1.0" standalone="no"?>
<!DOCTYPE svg PUBLIC "-//W3C//DTD SVG 20010904//EN"
 "http://www.w3.org/TR/2001/REC-SVG-20010904/DTD/svg10.dtd">
<svg version="1.0" xmlns="http://www.w3.org/2000/svg"
 width="600.000000pt" height="600.000000pt" viewBox="0 0 600.000000 600.000000"
 preserveAspectRatio="xMidYMid meet">
<metadata>
Created by potrace 1.15, written by Peter Selinger 2001-2017
</metadata>
<g transform="translate(0.000000,600.000000) scale(0.100000,-0.100000)"
fill="#16364b" stroke="none">
<path d="M2580 5498 c-22 -15 -47 -50 -72 -98 -100 -194 -104 -347 -12 -432
64 -58 170 -70 389 -43 65 8 120 13 122 11 2 -2 -22 -28 -54 -57 -144 -135
-270 -280 -377 -437 -111 -163 -124 -212 -86 -315 20 -53 53 -93 100 -118 19
-10 114 -15 400 -20 206 -4 398 -10 425 -14 128 -17 220 116 155 223 -37 60
-62 65 -449 87 -140 8 -255 16 -257 18 -2 1 27 43 64 92 70 94 250 280 389
403 151 134 174 248 68 341 -103 90 -246 111 -500 72 -76 -12 -140 -20 -142
-18 -2 2 12 37 32 78 19 40 35 86 35 102 0 42 -24 90 -59 120 -43 36 -122 38
-171 5z"/>
<path d="M1624 5136 c-96 -35 -161 -78 -291 -194 -161 -142 -246 -239 -302
-346 -47 -89 -38 -158 28 -221 37 -34 46 -35 331 -21 105 6 164 5 183 -3 l27
-11 0 -119 c0 -66 5 -132 11 -148 24 -64 95 -113 165 -113 50 0 91 27 115 78
20 40 21 56 17 215 -3 121 -9 185 -20 215 -44 121 -126 175 -293 194 l-99 11
40 35 c71 63 150 118 217 151 106 53 141 134 95 220 -43 81 -113 99 -224 57z"/>
<path d="M4318 4710 c-82 -13 -265 -76 -360 -124 -100 -50 -123 -79 -122 -149
0 -91 59 -147 153 -147 40 0 69 9 134 41 97 49 199 89 228 89 18 0 20 -4 14
-32 -23 -109 -98 -283 -185 -433 -72 -122 -83 -156 -70 -204 13 -48 115 -156
160 -170 25 -8 65 -8 135 -1 55 5 176 10 268 10 142 0 169 -2 174 -15 8 -22
-26 -110 -113 -291 -96 -200 -114 -248 -114 -304 0 -125 139 -183 233 -97 47
43 237 436 268 557 27 106 23 193 -13 271 -71 152 -202 202 -478 183 -74 -6
-137 -9 -139 -8 -1 2 20 56 47 121 105 245 143 429 113 541 -32 118 -173 186
-333 162z"/>
<path d="M1983 3990 c-89 -41 -217 -82 -376 -120 -182 -42 -227 -79 -227 -185
0 -81 59 -137 144 -136 84 0 456 111 591 176 49 24 77 45 95 71 63 94 0 212
-117 220 -37 3 -62 -3 -110 -26z"/>
<path d="M3743 3675 c-91 -25 -179 -77 -286 -168 -32 -27 -64 -62 -72 -78 -34
-66 -7 -146 59 -179 70 -34 129 -22 198 39 50 43 171 106 176 91 8 -22 -49
-174 -111 -300 -61 -122 -63 -125 -119 -155 -70 -37 -106 -70 -124 -112 -41
-96 25 -200 133 -210 42 -4 61 2 152 47 57 28 147 69 200 91 213 91 287 144
312 227 33 111 -42 222 -151 222 -25 0 -30 3 -26 18 44 143 48 251 12 328 -57
123 -201 180 -353 139z"/>
<path d="M2405 3474 c-84 -18 -218 -62 -297 -97 -72 -32 -98 -70 -98 -143 0
-59 26 -105 79 -141 46 -31 95 -29 188 8 100 39 247 79 296 79 35 0 37 -2 37
-33 0 -34 -36 -150 -85 -270 -33 -81 -31 -147 5 -199 38 -56 68 -73 132 -73
78 0 95 19 164 181 110 255 132 427 69 542 -35 64 -71 96 -145 131 -47 22 -71
26 -165 28 -71 2 -135 -3 -180 -13z"/>
<path d="M1102 3156 c-127 -48 -182 -108 -182 -201 0 -106 99 -205 205 -205
21 0 35 -5 35 -12 0 -7 -12 -71 -27 -143 -25 -120 -27 -148 -28 -365 0 -362
29 -476 134 -530 80 -40 178 -15 222 57 13 21 39 54 58 73 19 19 75 105 125
190 51 85 120 196 154 247 68 101 166 212 177 201 4 -4 8 -92 8 -195 0 -205
-6 -248 -70 -495 -41 -157 -39 -189 10 -245 73 -83 197 -83 251 -1 31 47 112
431 137 648 16 143 7 356 -19 437 -43 135 -125 203 -244 203 -144 -1 -301
-109 -455 -314 -78 -104 -94 -121 -88 -89 3 10 14 89 26 176 27 200 24 337
-10 415 -29 65 -103 134 -168 156 -68 23 -175 20 -251 -8z"/>
<path d="M4772 2714 c-85 -42 -143 -151 -126 -238 l6 -33 -119 -27 c-383 -90
-543 -257 -543 -567 0 -119 25 -226 79 -332 l40 -79 -32 -28 c-18 -16 -38 -30
-46 -30 -7 0 -58 20 -113 45 -132 59 -204 77 -313 77 -159 0 -281 -60 -435
-212 -88 -88 -167 -192 -234 -312 -16 -28 -40 -55 -59 -64 -18 -9 -49 -32 -70
-50 -20 -19 -48 -34 -61 -34 -61 0 -158 176 -250 456 -38 117 -104 178 -207
191 -112 15 -209 -64 -209 -171 0 -75 120 -382 208 -533 148 -253 339 -380
518 -345 78 16 165 59 241 121 35 28 77 57 95 64 49 21 80 54 128 138 149 255
260 361 363 345 22 -4 92 -27 154 -51 131 -51 221 -70 304 -62 146 13 309 150
309 260 0 31 4 36 45 52 64 24 104 61 131 120 42 90 28 179 -44 268 -40 49
-66 118 -66 176 -1 45 -1 45 45 62 25 10 91 25 145 34 306 51 416 129 455 324
14 75 7 223 -16 299 -41 138 -192 201 -323 136z"/>
<path d="M3152 2505 c-40 -8 -114 -26 -165 -41 -51 -14 -152 -44 -226 -65
-151 -44 -169 -53 -211 -111 -26 -35 -30 -50 -30 -102 0 -71 19 -109 75 -152
64 -49 110 -45 329 26 165 53 362 97 375 84 3 -3 -1 -26 -9 -52 -24 -81 -25
-174 -1 -219 29 -58 82 -100 135 -108 36 -6 55 -2 100 18 67 31 92 67 137 197
27 80 33 110 33 190 1 88 -1 100 -32 162 -37 75 -79 114 -169 155 -49 23 -74
27 -163 29 -60 2 -136 -3 -178 -11z"/>
</g>
</svg>
