<?xml version="1.0" standalone="no"?>
<!DOCTYPE svg PUBLIC "-//W3C//DTD SVG 20010904//EN"
 "http://www.w3.org/TR/2001/REC-SVG-20010904/DTD/svg10.dtd">
<svg version="1.0" xmlns="http://www.w3.org/2000/svg"
 width="600.000000pt" height="600.000000pt" viewBox="0 0 600.000000 600.000000"
 preserveAspectRatio="xMidYMid meet">
<metadata>
Created by potrace 1.15, written by Peter Selinger 2001-2017
</metadata>
<g transform="translate(0.000000,600.000000) scale(0.100000,-0.100000)"
fill="#16364b" stroke="none">
<path d="M2378 5380 l-26 -20 -5 -212 c-4 -169 -9 -228 -24 -283 -42 -151
-122 -255 -253 -324 -79 -42 -100 -63 -100 -100 0 -37 23 -61 59 -61 37 0 183
89 245 148 145 140 196 308 196 646 0 131 -4 187 -12 198 -22 27 -53 30 -80 8z"/>
<path d="M3529 5280 c-8 -5 -21 -27 -28 -48 -12 -37 -11 -43 18 -105 87 -183
257 -269 305 -155 25 58 -14 155 -97 246 -23 24 -53 50 -68 58 -31 16 -106 18
-130 4z"/>
<path d="M2982 5072 c-83 -56 -132 -150 -132 -256 0 -93 35 -135 111 -136 80
0 171 77 224 192 59 126 8 228 -113 228 -37 0 -59 -7 -90 -28z m108 -104 c-1
-28 -39 -96 -76 -133 -36 -38 -38 -39 -42 -17 -5 34 16 90 50 128 30 34 68 46
68 22z"/>
<path d="M4759 4727 c-33 -25 -39 -55 -39 -184 0 -147 21 -320 45 -381 48
-119 177 -132 233 -22 22 41 23 54 19 155 -4 90 -11 126 -37 200 -38 107 -92
208 -123 230 -26 18 -76 19 -98 2z"/>
<path d="M2667 4226 c-21 -8 -47 -22 -57 -31 -48 -43 -50 -120 -4 -174 51 -61
218 -120 340 -121 57 0 146 24 181 48 33 24 48 80 34 125 -16 49 -34 61 -136
96 -183 62 -296 80 -358 57z"/>
<path d="M5270 3976 c-105 -29 -171 -81 -218 -170 -23 -44 -27 -63 -27 -141 0
-80 3 -97 29 -148 35 -68 108 -140 174 -170 71 -33 197 -31 273 5 120 55 195
162 206 294 11 138 -44 238 -171 309 -58 32 -69 35 -142 34 -43 0 -99 -6 -124
-13z m127 -307 l28 -11 -28 -24 c-34 -29 -43 -30 -57 -3 -23 42 2 59 57 38z"/>
<path d="M4224 3760 c-190 -40 -308 -237 -248 -413 21 -61 91 -139 151 -168
137 -65 309 4 383 154 41 84 51 152 36 256 -10 70 -17 88 -39 107 -59 50 -198
82 -283 64z m46 -281 c0 -23 -22 -49 -40 -49 -24 0 -26 17 -3 42 18 20 43 24
43 7z"/>
<path d="M1223 3670 c-91 -19 -164 -75 -205 -159 -17 -36 -22 -64 -23 -126 0
-71 4 -88 32 -145 17 -36 47 -79 65 -97 52 -50 146 -102 238 -130 73 -23 92
-34 137 -78 59 -59 106 -148 156 -291 44 -126 63 -216 82 -381 32 -277 108
-610 170 -738 19 -40 53 -96 75 -124 48 -61 158 -140 237 -171 32 -13 74 -38
93 -56 65 -60 110 -66 463 -62 l312 3 59 -27 c77 -37 116 -36 159 1 l33 30
315 4 c344 5 408 13 692 81 317 77 477 162 653 349 267 284 328 656 157 967
-107 194 -231 306 -408 365 -66 23 -98 27 -180 27 -184 0 -294 -40 -521 -193
-219 -149 -326 -195 -556 -245 -196 -43 -404 20 -723 219 -131 81 -237 171
-344 288 -382 423 -534 538 -854 644 -140 46 -239 61 -314 45z m244 -324 c207
-71 310 -139 465 -310 161 -176 356 -366 439 -428 141 -105 416 -284 516 -336
250 -128 435 -148 746 -77 146 33 253 86 481 238 104 70 215 136 245 148 205
77 361 22 486 -171 67 -103 80 -149 80 -270 -1 -95 -4 -112 -32 -177 -38 -90
-105 -184 -185 -263 -164 -160 -531 -274 -923 -286 -173 -6 -876 10 -1120 25
-222 14 -364 49 -443 111 -121 96 -189 313 -242 770 -17 144 -37 231 -90 392
-116 350 -235 500 -450 564 -87 27 -150 64 -150 90 0 24 72 16 177 -20z"/>
<path d="M2275 2385 c-33 -32 -31 -48 6 -79 37 -31 49 -32 83 -5 33 26 35 71
4 93 -32 23 -65 20 -93 -9z"/>
<path d="M2837 2052 c-25 -28 -21 -67 9 -91 36 -28 58 -26 83 5 27 34 26 50
-4 79 -29 30 -65 32 -88 7z"/>
<path d="M3494 3380 c-11 -4 -37 -27 -56 -49 -41 -48 -158 -269 -158 -298 0
-27 31 -53 62 -53 58 0 227 235 236 329 4 42 1 50 -19 65 -26 18 -34 19 -65 6z"/>
<path d="M472 2024 c-41 -28 -29 -64 46 -143 117 -123 224 -170 272 -119 58
63 -17 150 -217 252 -61 30 -71 31 -101 10z"/>
<path d="M5313 1108 c-53 -26 -90 -167 -59 -226 20 -39 44 -52 94 -52 70 0
113 54 127 158 8 63 -6 105 -41 121 -31 14 -92 13 -121 -1z"/>
</g>
</svg>
