<?xml version="1.0" standalone="no"?>
<!DOCTYPE svg PUBLIC "-//W3C//DTD SVG 20010904//EN"
 "http://www.w3.org/TR/2001/REC-SVG-20010904/DTD/svg10.dtd">
<svg version="1.0" xmlns="http://www.w3.org/2000/svg"
 width="600.000000pt" height="600.000000pt" viewBox="0 0 600.000000 600.000000"
 preserveAspectRatio="xMidYMid meet">
<metadata>
Created by potrace 1.15, written by Peter Selinger 2001-2017
</metadata>
<g transform="translate(0.000000,600.000000) scale(0.100000,-0.100000)"
fill="#16364b" stroke="none">
<path d="M1490 5729 c-41 -22 -136 -71 -210 -109 -144 -74 -195 -113 -205
-161 -14 -61 37 -119 103 -119 44 0 491 68 529 81 18 6 42 22 53 36 53 68 -9
160 -95 139 l-25 -6 20 32 c24 39 25 60 6 97 -15 28 -53 51 -84 51 -9 -1 -51
-19 -92 -41z"/>
<path d="M2380 5413 l-33 -30 -8 -149 c-9 -159 -30 -327 -53 -409 -35 -131
-103 -209 -241 -280 -42 -22 -84 -49 -91 -60 -23 -32 -18 -92 11 -120 37 -38
83 -33 180 20 192 104 286 207 329 355 32 114 69 504 57 598 -9 62 -32 90 -83
98 -29 5 -41 1 -68 -23z"/>
<path d="M3512 5304 c-21 -10 -62 -81 -62 -109 0 -13 11 -49 24 -79 73 -165
217 -270 321 -236 43 14 75 60 75 106 0 77 -121 254 -203 295 -39 21 -130 34
-155 23z"/>
<path d="M2992 5137 c-48 -15 -119 -89 -150 -155 -38 -81 -42 -181 -10 -241
55 -105 192 -106 311 -2 79 70 98 256 35 344 -23 33 -90 67 -128 66 -14 -1
-40 -6 -58 -12z m34 -242 c-3 -8 -10 -15 -15 -15 -7 0 -6 10 1 26 12 26 25 16
14 -11z"/>
<path d="M4760 4758 c-56 -38 -64 -66 -63 -208 1 -241 79 -443 192 -499 86
-43 151 -33 217 33 46 45 64 93 64 171 0 149 -110 366 -241 476 -64 54 -117
62 -169 27z"/>
<path d="M2635 4211 c-48 -22 -69 -44 -90 -94 -34 -83 -8 -195 62 -263 79 -77
190 -94 331 -49 83 26 178 82 225 132 77 83 39 194 -76 223 -23 6 -69 20 -102
30 -145 45 -280 53 -350 21z"/>
<path d="M1124 4120 c-35 -14 -64 -59 -64 -100 0 -60 34 -99 114 -131 38 -16
76 -35 85 -44 14 -14 13 -15 -19 -9 -19 4 -63 18 -98 32 -57 22 -68 23 -103
13 -48 -14 -79 -59 -79 -113 0 -69 65 -117 212 -154 143 -37 289 19 339 131
64 140 -40 289 -252 361 -75 25 -101 28 -135 14z"/>
<path d="M5223 3765 c-113 -31 -197 -96 -243 -190 -21 -42 -25 -65 -25 -140 0
-105 23 -163 88 -228 58 -58 118 -82 203 -81 62 0 82 5 147 37 129 64 200 171
201 307 1 108 -24 156 -132 253 -66 59 -131 71 -239 42z m77 -295 c12 -7 12
-12 -4 -29 -11 -12 -25 -21 -31 -21 -20 0 -26 28 -9 45 18 17 24 18 44 5z"/>
<path d="M4227 3760 c-52 -13 -130 -54 -170 -90 -19 -16 -49 -58 -68 -92 -31
-58 -34 -70 -34 -148 0 -68 5 -93 22 -125 76 -142 247 -196 391 -124 138 69
232 238 232 419 0 75 -27 110 -108 140 -65 25 -205 35 -265 20z m83 -278 c0
-4 -7 -18 -16 -30 -18 -27 -57 -30 -52 -5 4 24 68 56 68 35z"/>
<path d="M1616 3699 c-18 -14 -26 -30 -26 -53 0 -40 85 -310 111 -352 35 -57
115 -53 139 7 20 46 3 118 -72 312 -23 59 -36 81 -58 92 -39 20 -62 19 -94 -6z"/>
<path d="M3453 3389 c-17 -5 -49 -29 -71 -54 -50 -57 -142 -236 -142 -276 0
-46 56 -99 104 -99 103 0 208 117 247 273 27 108 -41 185 -138 156z"/>
<path d="M1885 3084 c-191 -29 -245 -38 -336 -58 -173 -39 -305 -111 -415
-227 -73 -78 -119 -153 -150 -244 -23 -70 -26 -91 -21 -170 8 -155 74 -297
181 -390 28 -25 105 -73 171 -107 166 -87 235 -155 330 -333 149 -277 296
-427 477 -486 64 -21 91 -24 218 -23 120 0 165 5 263 28 65 15 137 34 159 42
23 8 109 21 192 30 415 42 591 95 855 259 120 75 183 124 278 216 100 96 150
161 196 254 93 188 132 426 92 561 -36 122 -209 306 -349 374 -136 65 -240 73
-384 28 -119 -36 -457 -50 -604 -24 -42 8 -127 35 -190 61 -296 121 -419 162
-575 190 -87 16 -330 28 -388 19z m315 -409 c107 -16 171 -38 320 -108 127
-60 311 -122 440 -147 57 -12 107 -23 111 -26 9 -5 488 23 527 31 15 3 66 15
113 27 104 25 141 20 198 -28 62 -54 101 -115 101 -161 0 -49 -38 -154 -83
-235 -38 -68 -169 -204 -252 -264 -189 -135 -467 -211 -833 -228 -62 -3 -121
-10 -132 -16 -10 -5 -72 -24 -137 -41 -158 -42 -304 -46 -375 -10 -69 34 -126
102 -197 235 -155 294 -252 396 -485 511 -92 46 -126 68 -143 94 -41 61 -25
162 35 224 114 119 493 187 792 142z"/>
<path d="M444 2166 c-22 -10 -35 -25 -44 -50 -10 -31 -9 -42 9 -78 11 -24 34
-77 51 -118 91 -221 200 -336 327 -347 49 -4 63 -1 93 19 52 35 72 81 67 153
-10 140 -134 278 -349 390 -93 49 -107 51 -154 31z"/>
<path d="M4913 1573 c-13 -3 -35 -17 -49 -33 -23 -23 -33 -27 -64 -23 -69 9
-137 -48 -147 -125 -6 -47 21 -196 47 -254 48 -109 141 -149 221 -95 58 38 96
135 124 320 15 94 14 101 -4 142 -24 55 -69 78 -128 68z"/>
</g>
</svg>
