<?xml version="1.0" standalone="no"?>
<!DOCTYPE svg PUBLIC "-//W3C//DTD SVG 20010904//EN"
 "http://www.w3.org/TR/2001/REC-SVG-20010904/DTD/svg10.dtd">
<svg version="1.0" xmlns="http://www.w3.org/2000/svg"
 width="600.000000pt" height="600.000000pt" viewBox="0 0 600.000000 600.000000"
 preserveAspectRatio="xMidYMid meet">
<metadata>
Created by potrace 1.15, written by Peter Selinger 2001-2017
</metadata>
<g transform="translate(0.000000,600.000000) scale(0.100000,-0.100000)"
fill="#16364b" stroke="none">
<path d="M1543 5766 c-17 -8 -38 -25 -47 -38 -30 -47 -71 -267 -82 -448 -11
-174 26 -274 119 -319 52 -25 87 -26 153 -5 98 33 288 260 393 470 46 92 52
141 21 191 -24 40 -54 56 -105 56 -66 0 -89 -23 -160 -162 -35 -70 -84 -154
-107 -186 l-43 -60 -3 38 c-2 21 8 101 22 177 31 168 32 186 6 227 -36 60
-108 85 -167 59z"/>
<path d="M885 5496 c-128 -33 -230 -112 -287 -223 -79 -152 -74 -274 16 -396
30 -41 111 -98 152 -107 80 -18 154 36 154 113 -1 51 -13 72 -67 121 -36 32
-43 45 -43 75 0 50 29 100 80 139 39 30 49 33 84 27 113 -17 137 -17 162 0 61
40 81 121 44 180 -40 64 -187 100 -295 71z"/>
<path d="M3314 5441 c-46 -28 -61 -73 -43 -125 12 -35 27 -49 109 -103 52 -35
100 -64 105 -66 6 -2 -4 -17 -22 -34 -55 -52 -56 -99 -3 -171 66 -91 178 -147
279 -140 98 7 151 64 151 161 0 59 -21 114 -69 184 -67 99 -138 158 -324 272
-77 47 -131 54 -183 22z"/>
<path d="M2971 5179 c-99 -40 -191 -201 -191 -336 0 -139 102 -218 237 -184
62 16 141 55 175 88 68 65 64 275 -7 369 -48 63 -144 91 -214 63z"/>
<path d="M2313 5140 c-57 -25 -83 -69 -83 -140 0 -87 -19 -181 -45 -227 -27
-46 -59 -69 -179 -128 -94 -47 -121 -78 -120 -139 2 -74 54 -126 128 -126 47
0 187 60 268 116 136 92 210 243 224 455 8 116 -7 159 -67 189 -48 25 -73 25
-126 0z"/>
<path d="M4733 4789 c-53 -34 -67 -78 -60 -188 8 -117 35 -219 88 -330 71
-147 163 -221 274 -221 168 0 284 157 254 343 -24 149 -126 256 -363 381 -82
43 -142 48 -193 15z m295 -434 c-3 -3 -9 2 -12 12 -6 14 -5 15 5 6 7 -7 10
-15 7 -18z"/>
<path d="M2732 4151 c-150 -52 -221 -202 -158 -336 12 -28 39 -65 60 -83 63
-55 98 -66 226 -66 140 -1 220 21 349 99 120 72 159 138 132 223 -17 57 -45
82 -122 113 -172 70 -370 90 -487 50z"/>
<path d="M1025 4065 c-44 -24 -66 -46 -81 -82 -19 -45 -17 -80 6 -127 30 -62
71 -84 185 -101 118 -18 175 -33 175 -45 0 -27 -246 -181 -435 -270 -148 -71
-185 -107 -185 -184 0 -81 62 -145 148 -154 52 -5 142 27 304 109 83 42 97 41
98 -3 0 -22 46 -75 81 -93 56 -29 120 -16 195 41 16 13 52 33 78 45 l48 21 65
-33 c155 -79 278 -28 275 113 -2 83 -59 161 -152 209 -37 19 -61 23 -141 23
l-97 0 28 50 c57 104 62 202 15 282 -53 90 -140 140 -315 180 -145 33 -256 40
-295 19z"/>
<path d="M4184 3765 c-77 -17 -115 -36 -170 -87 -103 -95 -111 -260 -18 -405
109 -171 335 -175 493 -8 67 70 97 137 117 261 15 90 16 102 2 135 -25 58 -71
86 -172 104 -105 18 -170 18 -252 0z m96 -282 c0 -15 -34 -43 -52 -43 -26 0
-18 22 13 37 27 14 39 16 39 6z"/>
<path d="M5053 3396 c-154 -74 -244 -199 -245 -343 0 -85 25 -154 76 -207 116
-119 337 -113 448 13 64 72 106 208 93 301 -4 26 -16 68 -28 93 -25 52 -119
154 -155 168 -49 19 -115 10 -189 -25z"/>
<path d="M3415 3391 c-43 -18 -97 -90 -146 -191 -71 -146 -69 -192 14 -254 30
-23 104 -26 173 -7 166 45 242 340 111 433 -33 23 -117 34 -152 19z"/>
<path d="M2330 3001 c-123 -40 -194 -114 -289 -298 -64 -125 -80 -149 -141
-205 -105 -97 -114 -106 -220 -221 -181 -197 -241 -293 -285 -459 -81 -309
-71 -507 37 -684 43 -72 165 -194 253 -254 98 -66 219 -125 322 -157 79 -24
104 -27 243 -27 141 0 163 2 245 27 177 54 332 147 426 258 118 138 202 296
274 514 64 194 79 296 72 479 -14 351 -80 501 -267 606 -82 46 -132 95 -217
210 -122 166 -193 212 -338 217 -49 1 -101 -1 -115 -6z m191 -542 l76 -104
125 -62 c138 -69 146 -78 169 -184 32 -147 -34 -489 -135 -700 -65 -136 -216
-267 -358 -310 -91 -28 -243 -23 -329 10 -68 26 -195 113 -238 162 -161 188
-63 574 201 790 74 61 186 182 235 254 22 33 64 111 94 174 50 107 54 112 68
94 9 -11 50 -67 92 -124z"/>
<path d="M813 2670 c-65 -39 -84 -133 -38 -188 13 -16 61 -50 107 -77 139 -81
231 -192 245 -295 7 -51 -1 -82 -33 -119 -59 -71 -158 -17 -252 138 -63 105
-141 128 -214 62 -26 -23 -32 -37 -36 -83 -4 -50 0 -63 34 -128 97 -185 254
-288 424 -278 96 6 159 37 228 112 63 69 93 144 100 248 9 151 -44 276 -177
414 -81 83 -132 124 -216 173 -79 46 -122 52 -172 21z"/>
<path d="M4170 2221 c-46 -24 -90 -87 -97 -139 -3 -23 -8 -42 -12 -42 -3 1
-25 5 -49 9 -71 14 -128 -4 -182 -58 -70 -70 -71 -90 -16 -366 25 -125 53
-241 63 -258 27 -47 95 -78 168 -77 33 1 89 -2 125 -5 38 -4 82 -3 106 4 56
15 117 70 145 133 24 53 24 54 21 368 -2 303 -3 317 -25 360 -29 59 -82 90
-157 90 -35 0 -68 -7 -90 -19z"/>
</g>
</svg>
