<?xml version="1.0" standalone="no"?>
<!DOCTYPE svg PUBLIC "-//W3C//DTD SVG 20010904//EN"
 "http://www.w3.org/TR/2001/REC-SVG-20010904/DTD/svg10.dtd">
<svg version="1.0" xmlns="http://www.w3.org/2000/svg"
 width="600.000000pt" height="600.000000pt" viewBox="0 0 600.000000 600.000000"
 preserveAspectRatio="xMidYMid meet">
<metadata>
Created by potrace 1.15, written by Peter Selinger 2001-2017
</metadata>
<g transform="translate(0.000000,600.000000) scale(0.100000,-0.100000)"
fill="#16364b" stroke="none">
<path d="M1966 5820 c-53 -16 -54 -17 -337 -458 -177 -275 -195 -346 -111
-436 37 -39 81 -56 149 -56 72 0 98 12 353 160 261 151 360 213 392 247 99
105 2 299 -132 263 -21 -6 -58 -27 -82 -47 -52 -43 -158 -116 -163 -111 -2 1
25 48 60 103 73 117 90 168 76 223 -15 53 -38 82 -85 103 -44 20 -74 22 -120
9z"/>
<path d="M3025 5686 c-86 -38 -123 -152 -72 -226 16 -25 54 -50 142 -94 265
-134 397 -251 451 -402 50 -137 24 -189 -111 -219 -84 -18 -128 -52 -144 -110
-21 -78 35 -166 116 -181 90 -17 250 44 332 126 136 136 158 340 60 550 -85
182 -285 359 -583 515 -110 57 -140 64 -191 41z"/>
<path d="M935 5376 c-92 -30 -153 -66 -208 -125 -108 -115 -151 -284 -112
-436 44 -169 193 -325 310 -325 83 0 155 72 155 155 0 51 -20 84 -83 138 -62
52 -87 97 -87 154 0 79 59 141 149 158 85 16 143 86 144 174 2 119 -103 161
-268 107z"/>
<path d="M2842 5055 c-83 -36 -147 -114 -176 -214 -21 -70 -20 -133 2 -197 25
-72 58 -109 129 -145 60 -30 66 -31 167 -27 86 3 110 7 132 24 73 54 92 129
52 203 -23 42 -23 47 -10 85 13 37 13 47 -2 98 -42 145 -176 224 -294 173z"/>
<path d="M4775 4904 c-97 -51 -112 -113 -80 -343 31 -219 88 -324 211 -385
109 -55 232 -41 318 36 139 121 132 348 -14 498 -62 64 -165 130 -273 174 -96
40 -119 43 -162 20z"/>
<path d="M1905 4703 c-149 -54 -220 -169 -167 -273 36 -72 135 -103 207 -64
81 45 85 46 99 35 8 -7 19 -33 25 -58 8 -30 25 -60 49 -84 114 -113 307 -3
277 158 -23 125 -86 211 -192 263 -59 30 -80 34 -158 37 -68 3 -102 -1 -140
-14z"/>
<path d="M1100 3957 c-157 -44 -214 -88 -240 -186 -32 -120 82 -236 213 -218
48 7 48 7 -38 -117 -288 -416 -448 -701 -463 -822 -8 -76 40 -164 111 -200 67
-35 181 -13 230 45 12 14 69 60 127 101 58 41 139 102 180 135 230 185 484
375 501 375 25 0 -2 -152 -54 -305 -100 -291 -224 -543 -423 -855 -31 -48 -35
-61 -31 -103 8 -88 72 -142 160 -134 65 6 91 27 159 128 125 186 397 724 457
905 53 158 65 240 57 394 -11 227 -58 312 -187 341 -87 20 -222 -37 -395 -164
-72 -53 -114 -81 -114 -75 0 2 38 55 85 118 47 63 102 149 122 190 36 71 38
80 38 170 0 84 -3 101 -27 146 -40 76 -73 110 -133 138 -79 38 -182 35 -335
-7z"/>
<path d="M2901 3970 c-90 -33 -164 -105 -192 -187 -17 -53 -7 -169 20 -225 31
-64 112 -142 185 -178 112 -55 275 -76 342 -44 93 44 120 177 49 244 -33 31
-32 37 8 44 37 7 94 57 108 94 17 43 10 107 -14 143 -66 98 -360 162 -506 109z
m247 -315 c29 -9 52 -20 52 -25 0 -12 -1 -12 -73 0 -31 5 -67 16 -79 24 -22
16 -22 16 13 16 19 0 59 -7 87 -15z"/>
<path d="M4231 3788 c-124 -17 -240 -98 -291 -203 -35 -70 -35 -189 -1 -255
40 -77 79 -117 143 -149 175 -88 402 10 506 218 49 98 77 198 68 245 -9 46
-57 102 -99 115 -84 27 -240 41 -326 29z m39 -307 c0 -13 -41 -41 -58 -41 -20
0 -9 23 19 37 29 15 39 16 39 4z"/>
<path d="M3438 3398 c-80 -21 -154 -116 -213 -272 -45 -120 -26 -207 55 -249
29 -14 50 -17 120 -12 185 13 296 112 308 276 7 95 -11 153 -64 205 -59 59
-121 75 -206 52z"/>
<path d="M4919 3001 c-165 -106 -269 -264 -271 -411 -2 -243 251 -333 459
-163 89 73 139 197 130 318 -3 39 -12 88 -21 109 -17 42 -93 131 -135 158 -41
28 -109 23 -162 -11z"/>
<path d="M4003 2586 c-59 -19 -99 -51 -129 -101 -39 -68 -41 -128 -5 -280 16
-71 29 -130 28 -132 -2 -1 -27 10 -57 25 -47 23 -67 27 -145 27 -81 0 -95 -3
-144 -30 -63 -35 -114 -98 -136 -169 -44 -144 16 -485 129 -731 39 -84 97
-138 170 -160 62 -19 93 -19 144 -1 62 22 99 55 127 110 33 66 33 128 -1 212
-14 36 -24 68 -21 71 3 3 19 -5 36 -16 17 -12 56 -27 86 -34 51 -10 63 -9 123
12 119 41 204 109 254 204 19 35 23 58 23 132 0 85 -4 101 -68 285 -37 107
-82 249 -101 316 -19 67 -41 134 -49 150 -47 91 -168 141 -264 110z"/>
<path d="M1993 2175 c-78 -34 -176 -142 -243 -269 -50 -96 -38 -178 36 -250
37 -36 38 -38 19 -48 -11 -6 -48 -39 -81 -73 -70 -70 -134 -190 -155 -290 -19
-89 -16 -276 5 -354 60 -221 271 -452 518 -565 135 -63 194 -78 320 -83 100
-5 127 -2 190 17 138 41 270 125 397 251 117 117 132 210 49 296 l-30 31 21
14 c53 32 163 244 226 433 77 232 100 340 99 465 0 106 -2 120 -28 173 -76
154 -237 212 -435 157 -85 -24 -255 -104 -390 -184 -51 -31 -97 -56 -102 -56
-4 0 -13 19 -19 43 -6 23 -22 74 -37 112 -33 85 -105 164 -169 183 -55 16
-151 15 -191 -3z m981 -542 c-19 -136 -107 -360 -202 -517 -62 -102 -67 -177
-17 -250 l24 -35 -70 -71 c-49 -50 -88 -80 -135 -102 -61 -28 -71 -30 -157
-26 -81 3 -100 8 -155 38 -34 18 -98 64 -142 102 -68 59 -85 81 -121 153 -36
73 -43 96 -47 165 -4 71 -2 85 22 134 28 57 57 83 104 92 25 5 30 1 51 -40 38
-72 112 -157 160 -183 115 -61 239 -6 272 120 16 58 2 120 -42 187 -28 42 -29
45 -12 58 49 35 435 222 461 222 10 0 12 -11 6 -47z"/>
</g>
</svg>
