<?xml version="1.0" standalone="no"?>
<!DOCTYPE svg PUBLIC "-//W3C//DTD SVG 20010904//EN"
 "http://www.w3.org/TR/2001/REC-SVG-20010904/DTD/svg10.dtd">
<svg version="1.0" xmlns="http://www.w3.org/2000/svg"
 width="600.000000pt" height="600.000000pt" viewBox="0 0 600.000000 600.000000"
 preserveAspectRatio="xMidYMid meet">
<metadata>
Created by potrace 1.15, written by Peter Selinger 2001-2017
</metadata>
<g transform="translate(0.000000,600.000000) scale(0.100000,-0.100000)"
fill="#16364b" stroke="none">
<path d="M3072 5650 c-47 -29 -72 -75 -72 -137 0 -48 3 -55 51 -107 28 -31
122 -114 208 -185 169 -138 247 -213 257 -244 9 -28 -42 -74 -219 -201 -137
-98 -149 -105 -175 -95 -42 17 -98 2 -218 -56 -174 -84 -274 -197 -274 -308 0
-57 14 -94 48 -130 66 -70 204 -99 270 -58 65 41 90 122 57 185 -19 35 -19 33
6 46 16 9 28 8 56 -5 62 -30 104 -17 250 74 157 97 343 228 396 279 110 105
147 224 105 337 -40 106 -151 231 -328 369 -58 44 -139 115 -180 157 -41 42
-85 81 -97 87 -34 18 -104 14 -141 -8z"/>
<path d="M1802 5371 c-41 -27 -72 -77 -72 -119 0 -27 -16 -54 -81 -134 -44
-55 -96 -123 -114 -152 -40 -60 -69 -164 -62 -219 13 -99 90 -183 195 -213
104 -31 445 -4 532 41 86 44 99 165 26 238 -52 52 -103 62 -223 43 -110 -18
-173 -20 -173 -8 0 4 35 58 79 119 96 138 114 173 119 244 8 103 -46 169 -142
176 -39 3 -59 -1 -84 -16z"/>
<path d="M1099 5323 c-101 -50 -193 -143 -242 -243 -60 -122 -80 -214 -81
-365 0 -143 11 -185 76 -295 76 -127 233 -132 296 -10 30 58 25 101 -21 177
-46 74 -61 137 -54 218 10 107 64 187 167 250 32 20 70 49 84 66 69 82 46 193
-47 228 -52 20 -101 13 -178 -26z"/>
<path d="M4584 4722 c-91 -58 -107 -167 -34 -237 l29 -28 -27 -35 c-35 -46
-38 -135 -6 -178 33 -44 110 -92 186 -115 178 -54 349 24 430 197 55 117 27
214 -84 286 -100 66 -246 112 -388 124 -64 4 -80 2 -106 -14z"/>
<path d="M1865 4299 c-120 -17 -222 -68 -339 -172 -73 -65 -103 -123 -92 -181
20 -108 166 -150 263 -76 21 17 55 43 77 60 67 51 140 73 223 66 85 -8 125 5
166 53 22 27 27 42 27 88 0 52 -3 58 -43 98 -59 59 -158 82 -282 64z"/>
<path d="M2535 3756 c-107 -28 -193 -61 -219 -84 -69 -63 -59 -196 17 -247 47
-31 89 -29 191 5 60 21 117 33 153 34 l58 1 -3 -35 c-11 -112 -143 -342 -366
-635 -89 -117 -100 -155 -68 -229 32 -72 114 -110 185 -87 43 15 79 52 164
176 353 509 414 632 401 813 -7 86 -38 153 -103 218 -95 96 -225 118 -410 70z"/>
<path d="M4068 3759 c-153 -22 -236 -121 -226 -271 7 -99 41 -170 118 -241 80
-74 148 -100 250 -95 129 7 225 74 284 197 39 83 41 143 4 198 -13 21 -28 49
-31 63 -12 45 -46 89 -85 109 -64 33 -223 53 -314 40z"/>
<path d="M1150 3605 c-75 -17 -297 -125 -336 -164 -34 -33 -44 -61 -44 -117 0
-136 134 -246 256 -209 24 7 44 10 44 6 0 -3 -24 -69 -54 -146 -81 -213 -189
-549 -222 -694 -39 -173 22 -268 182 -286 50 -6 67 -4 100 13 50 25 374 356
478 487 144 182 184 230 211 255 l28 25 -7 -60 c-13 -109 -76 -406 -132 -625
-91 -353 -105 -478 -61 -554 40 -70 135 -97 213 -60 57 27 76 64 85 166 7 79
22 142 99 433 11 39 40 183 67 320 46 245 47 254 47 450 1 197 1 201 -25 250
-33 61 -51 78 -114 106 -58 26 -120 22 -187 -12 -60 -30 -287 -261 -386 -393
-45 -60 -82 -105 -82 -99 0 23 37 131 100 288 87 216 93 241 93 350 1 72 -4
99 -21 136 -55 117 -180 168 -332 134z"/>
<path d="M3586 3280 c-123 -37 -232 -196 -253 -371 -11 -91 56 -169 151 -177
43 -3 57 0 90 23 25 17 62 30 100 36 83 11 180 61 216 110 91 126 33 311 -117
374 -38 16 -140 19 -187 5z"/>
<path d="M4706 2944 c-45 -31 -86 -110 -86 -169 0 -102 84 -303 163 -391 41
-45 46 -48 103 -51 47 -3 66 0 92 16 97 61 93 196 -7 283 -48 41 -64 85 -45
119 19 34 17 98 -4 139 -40 79 -141 105 -216 54z"/>
<path d="M2920 2555 c-89 -16 -230 -64 -399 -136 -177 -74 -211 -109 -211
-214 0 -89 44 -157 122 -190 66 -27 100 -20 282 61 265 118 281 123 264 72
-25 -78 -95 -242 -151 -353 -67 -135 -76 -188 -42 -259 41 -85 164 -122 255
-76 49 25 62 44 152 225 178 356 227 564 166 696 -45 96 -126 158 -237 179
-68 13 -107 12 -201 -5z"/>
<path d="M4438 2330 c-74 -22 -149 -93 -169 -160 -10 -32 -10 -58 0 -121 7
-45 11 -83 9 -85 -2 -2 -60 15 -128 38 -112 37 -136 42 -225 42 -96 1 -103 -1
-163 -33 -105 -57 -179 -154 -218 -286 -21 -72 -22 -241 -4 -414 20 -189 47
-246 143 -301 94 -54 197 -49 272 12 77 64 87 126 59 370 -9 77 -13 142 -10
145 3 3 59 -11 126 -31 66 -20 129 -36 139 -36 52 0 223 43 277 70 78 38 145
109 173 183 17 47 21 79 21 170 0 142 -21 291 -48 344 -43 83 -153 123 -254
93z"/>
<path d="M2165 1861 c-70 -17 -128 -74 -147 -144 -12 -45 -10 -53 20 -140 18
-50 47 -166 66 -257 56 -268 101 -369 218 -482 100 -97 279 -208 334 -208 22
0 63 -20 130 -62 139 -87 226 -119 339 -126 109 -5 175 7 262 51 119 59 178
160 155 265 -31 134 -177 190 -300 114 -29 -17 -66 -32 -83 -32 -32 0 -95 28
-144 65 -16 12 -45 30 -62 39 -41 21 -163 134 -163 151 0 7 -16 44 -36 83 -55
111 -130 162 -238 162 -40 0 -37 -8 -66 155 -26 144 -53 239 -79 282 -40 64
-133 102 -206 84z"/>
</g>
</svg>
