<?xml version="1.0" standalone="no"?>
<!DOCTYPE svg PUBLIC "-//W3C//DTD SVG 20010904//EN"
 "http://www.w3.org/TR/2001/REC-SVG-20010904/DTD/svg10.dtd">
<svg version="1.0" xmlns="http://www.w3.org/2000/svg"
 width="600.000000pt" height="600.000000pt" viewBox="0 0 600.000000 600.000000"
 preserveAspectRatio="xMidYMid meet">
<metadata>
Created by potrace 1.15, written by Peter Selinger 2001-2017
</metadata>
<g transform="translate(0.000000,600.000000) scale(0.100000,-0.100000)"
fill="#16364b" stroke="none">
<path d="M3165 5636 c-43 -19 -69 -52 -99 -123 -120 -288 -39 -472 239 -544
39 -10 80 -19 92 -19 47 0 28 -19 -70 -70 -137 -71 -254 -151 -399 -273 -136
-113 -157 -146 -156 -237 0 -90 14 -125 61 -163 81 -66 163 -96 397 -143 69
-13 171 -36 228 -50 116 -29 155 -27 201 12 60 50 64 137 9 199 -40 47 -122
72 -470 144 -32 7 -58 16 -58 20 0 11 157 123 235 168 39 23 135 73 215 113
227 113 276 159 287 266 5 41 1 62 -20 106 -43 96 -132 144 -350 189 -176 36
-197 44 -197 75 0 13 14 60 30 106 36 98 37 124 7 169 -40 61 -117 84 -182 55z"/>
<path d="M1438 5416 c-53 -19 -154 -94 -230 -172 -190 -195 -283 -379 -348
-681 -25 -118 -19 -155 31 -197 69 -58 157 -55 227 8 30 26 58 38 142 59 58
14 139 31 180 37 41 6 90 13 108 16 22 3 32 1 32 -8 0 -7 -36 -78 -80 -158
-89 -161 -118 -241 -122 -331 -1 -36 -8 -65 -16 -71 -46 -39 -57 -143 -19
-199 31 -46 83 -79 125 -79 25 0 110 38 296 131 143 72 271 141 283 152 33 29
57 99 49 141 -14 74 -89 125 -163 111 -20 -4 -67 -22 -105 -41 -37 -19 -70
-34 -73 -34 -3 0 26 62 65 139 99 197 121 298 83 393 -38 97 -110 156 -217
178 -71 14 -147 8 -309 -27 -65 -14 -121 -23 -123 -20 -8 8 44 106 91 172 52
74 157 174 216 206 117 65 121 217 6 269 -49 23 -78 24 -129 6z"/>
<path d="M4715 4474 c-74 -12 -387 -99 -414 -115 -116 -70 -80 -239 56 -265
20 -4 82 5 165 25 73 16 134 28 136 26 13 -12 -111 -183 -244 -336 -53 -60
-102 -122 -110 -137 -43 -82 16 -189 110 -199 l46 -6 -25 -29 c-55 -66 -53
-163 6 -212 17 -14 56 -33 87 -42 231 -64 352 -107 352 -125 0 -23 -75 -153
-142 -247 -124 -176 -131 -189 -131 -236 0 -51 29 -103 71 -128 38 -23 115
-23 153 -1 34 21 198 235 269 352 60 101 80 163 80 247 0 165 -97 278 -302
354 -100 36 -289 90 -319 90 -29 0 -27 3 72 112 180 198 258 305 334 456 41
81 48 103 52 173 8 104 -16 159 -86 207 -40 28 -59 33 -117 37 -38 2 -82 1
-99 -1z"/>
<path d="M3815 3694 c-44 -22 -68 -61 -73 -119 -6 -70 8 -93 133 -222 57 -59
105 -116 105 -126 0 -36 33 -89 71 -114 105 -69 233 3 233 132 0 65 -28 123
-104 213 -33 39 -62 83 -66 98 -9 37 -59 84 -131 122 -68 36 -120 41 -168 16z"/>
<path d="M2485 3650 c-111 -23 -277 -107 -345 -173 -84 -82 -48 -238 61 -267
52 -14 95 -2 189 55 67 41 179 85 215 85 23 0 26 -35 11 -108 -25 -121 -113
-314 -258 -568 -38 -67 -71 -137 -74 -155 -10 -68 52 -146 166 -208 68 -37 98
-36 211 4 184 66 281 96 287 90 11 -10 -28 -105 -109 -269 -84 -169 -91 -198
-63 -264 45 -109 162 -154 269 -102 33 16 54 37 85 85 248 394 300 716 140
875 -91 92 -212 112 -396 65 -53 -14 -99 -23 -101 -21 -2 2 17 50 41 108 60
138 91 237 106 331 44 268 -74 437 -310 443 -47 2 -103 -1 -125 -6z"/>
<path d="M1110 3420 c-98 -31 -286 -145 -340 -207 -102 -115 -28 -301 127
-319 38 -5 61 -2 98 15 26 12 50 20 52 17 2 -2 -5 -37 -16 -77 -12 -41 -37
-150 -56 -244 -20 -93 -50 -226 -67 -295 -23 -93 -32 -156 -36 -246 -5 -132 2
-159 57 -217 34 -38 61 -51 149 -72 69 -16 75 -16 117 -1 39 15 58 36 168 184
117 157 380 537 422 610 11 17 22 32 26 32 4 0 13 -16 19 -36 21 -61 -2 -214
-84 -577 -77 -338 -81 -475 -18 -590 71 -132 247 -142 310 -17 29 59 28 87 -9
156 l-30 58 10 101 c6 56 22 155 36 221 97 448 112 553 95 689 -6 47 -15 97
-20 111 -6 14 -10 45 -10 69 0 111 -39 211 -99 250 -81 54 -179 42 -262 -33
-50 -44 -267 -316 -364 -456 -26 -37 -49 -65 -51 -63 -2 2 24 111 57 243 58
228 61 245 63 369 1 152 -10 199 -60 255 -52 58 -106 80 -190 79 -38 0 -80 -4
-94 -9z"/>
<path d="M3695 3187 c-178 -47 -335 -207 -335 -343 0 -94 81 -163 180 -151 65
8 94 29 134 96 18 31 39 55 47 54 8 -1 34 -7 59 -13 25 -7 71 -9 103 -6 169
17 243 151 151 273 -57 75 -224 119 -339 90z"/>
<path d="M4629 2207 c-83 -31 -159 -127 -159 -199 0 -24 -4 -28 -29 -28 -16 0
-60 6 -98 14 -276 58 -437 34 -567 -85 -118 -108 -154 -197 -167 -423 -5 -89
-12 -176 -15 -195 l-5 -34 -87 86 c-143 142 -206 183 -324 213 -81 21 -163 14
-233 -20 -100 -50 -207 -190 -261 -343 -10 -29 -21 -53 -24 -53 -4 0 -17 62
-29 138 -60 365 -125 504 -250 531 -43 9 -60 8 -103 -7 -113 -38 -146 -141
-90 -282 37 -93 66 -227 92 -435 11 -88 27 -187 35 -220 48 -191 172 -310 365
-351 83 -17 137 -12 190 18 61 34 75 62 77 158 1 69 10 109 42 210 44 137 100
254 122 258 8 1 73 -53 145 -121 194 -182 273 -227 398 -227 99 1 215 67 270
153 15 25 34 48 41 51 7 2 25 24 39 48 28 48 41 131 52 336 7 121 7 124 33
134 18 6 92 6 231 -2 235 -14 315 -7 409 35 63 29 135 95 165 153 48 92 59
288 20 364 -53 105 -184 163 -285 125z"/>
</g>
</svg>
