<?xml version="1.0" standalone="no"?>
<!DOCTYPE svg PUBLIC "-//W3C//DTD SVG 20010904//EN"
 "http://www.w3.org/TR/2001/REC-SVG-20010904/DTD/svg10.dtd">
<svg version="1.0" xmlns="http://www.w3.org/2000/svg"
 width="600.000000pt" height="600.000000pt" viewBox="0 0 600.000000 600.000000"
 preserveAspectRatio="xMidYMid meet">
<metadata>
Created by potrace 1.15, written by Peter Selinger 2001-2017
</metadata>
<g transform="translate(0.000000,600.000000) scale(0.100000,-0.100000)"
fill="#16364b" stroke="none">
<path d="M3559 5261 c-35 -28 -30 -75 14 -146 45 -74 81 -115 131 -149 44 -30
72 -33 103 -11 55 39 27 135 -70 242 -74 80 -132 101 -178 64z m137 -143 c20
-27 34 -51 32 -54 -6 -6 -72 66 -87 95 -22 40 17 12 55 -41z"/>
<path d="M3024 5076 c-82 -36 -151 -135 -161 -231 -8 -78 28 -135 87 -135 63
0 195 115 237 206 23 50 24 60 14 96 -21 68 -101 97 -177 64z m86 -100 c0 -40
-62 -119 -128 -164 -51 -34 -52 34 -2 116 39 63 130 97 130 48z"/>
<path d="M4751 4701 c-30 -30 -34 -94 -22 -283 20 -284 30 -327 82 -349 51
-20 109 15 131 80 22 65 14 251 -17 386 -29 129 -45 169 -70 179 -33 12 -85 6
-104 -13z"/>
<path d="M2634 4206 c-71 -71 -31 -139 114 -195 173 -66 280 -81 329 -45 39
29 51 76 30 118 -13 29 -29 39 -129 79 -130 52 -219 77 -273 77 -29 0 -45 -8
-71 -34z"/>
<path d="M1499 4137 c-61 -23 -97 -55 -125 -112 -22 -45 -26 -65 -22 -109 7
-84 56 -173 135 -246 37 -33 74 -73 83 -88 49 -82 83 -200 135 -467 41 -209
52 -294 60 -460 3 -71 12 -182 20 -245 8 -63 22 -173 30 -245 29 -232 74 -443
119 -555 58 -142 153 -244 289 -309 82 -40 213 -82 295 -96 39 -6 43 -9 38
-30 -15 -59 -28 -238 -23 -311 7 -99 31 -170 91 -269 25 -42 46 -82 46 -90 0
-9 -20 -15 -67 -20 -88 -9 -97 -12 -132 -41 -55 -46 -49 -117 11 -155 27 -16
44 -19 93 -16 153 12 268 120 252 237 -3 22 -32 87 -65 147 -34 60 -66 130
-73 156 -14 56 -7 243 11 324 l12 53 86 -5 c48 -3 261 -8 474 -11 l387 -6 -21
-42 c-26 -51 -36 -176 -18 -231 18 -53 63 -100 143 -147 73 -44 74 -56 4 -57
-106 -3 -165 -114 -98 -182 27 -26 36 -29 95 -29 141 0 276 91 276 187 0 78
-30 114 -158 191 -114 67 -126 84 -120 157 4 43 13 66 45 112 46 65 43 64 223
82 201 19 418 80 595 167 189 92 330 253 401 455 35 100 44 274 19 369 -55
210 -169 371 -314 445 -119 59 -349 78 -461 38 -190 -70 -234 -84 -310 -100
-122 -26 -359 -23 -497 6 -378 79 -636 261 -898 631 -388 551 -458 633 -675
795 -58 43 -130 89 -159 103 -66 30 -177 39 -232 19z m159 -196 c20 -10 57
-36 82 -58 25 -21 65 -52 90 -67 108 -70 184 -160 470 -561 182 -254 227 -312
320 -409 247 -258 541 -402 943 -460 232 -34 441 -7 667 87 140 58 209 71 295
57 39 -6 89 -20 112 -31 88 -42 193 -193 227 -325 68 -262 -92 -547 -366 -654
-198 -77 -347 -106 -728 -140 -212 -20 -252 -20 -692 -10 -328 7 -493 15 -555
25 -369 64 -466 212 -518 795 -8 96 -20 211 -25 255 -5 44 -17 159 -25 255
-18 210 -40 337 -99 575 -78 314 -115 394 -238 516 -67 66 -78 83 -78 111 0
19 5 39 12 46 18 18 64 15 106 -7z"/>
<path d="M2420 2510 c-11 -11 -20 -29 -20 -39 0 -21 53 -71 76 -71 24 0 54 38
54 68 0 57 -69 83 -110 42z"/>
<path d="M2858 2169 c-12 -6 -18 -22 -18 -45 0 -28 6 -38 33 -54 40 -25 52
-25 77 0 25 25 26 72 2 93 -21 19 -68 22 -94 6z"/>
<path d="M5269 3991 c-94 -18 -175 -75 -217 -155 -24 -46 -27 -62 -27 -151 0
-88 3 -107 27 -157 33 -71 108 -148 174 -178 73 -35 198 -34 276 2 146 67 232
217 208 365 -16 99 -70 168 -183 235 -59 34 -78 40 -140 43 -40 2 -93 0 -118
-4z m109 -312 c27 -9 30 -14 22 -29 -23 -43 -80 -31 -80 16 0 27 12 29 58 13z"/>
<path d="M4227 3750 c-134 -34 -253 -176 -265 -317 -9 -112 45 -198 158 -252
219 -103 470 98 430 344 -15 90 -28 121 -68 156 -69 61 -173 89 -255 69z m73
-283 c0 -25 -26 -49 -49 -45 l-23 3 22 28 c23 28 50 36 50 14z"/>
<path d="M480 2000 c-16 -30 1 -54 83 -108 127 -86 204 -117 245 -99 27 13 30
57 5 79 -28 25 -280 148 -303 148 -10 0 -24 -9 -30 -20z"/>
<path d="M5340 1117 c-35 -17 -71 -95 -77 -164 -5 -67 18 -116 64 -134 85 -32
163 66 163 207 0 52 -4 67 -22 84 -25 23 -88 27 -128 7z"/>
</g>
</svg>
