<?xml version="1.0" standalone="no"?>
<!DOCTYPE svg PUBLIC "-//W3C//DTD SVG 20010904//EN"
 "http://www.w3.org/TR/2001/REC-SVG-20010904/DTD/svg10.dtd">
<svg version="1.0" xmlns="http://www.w3.org/2000/svg"
 width="600.000000pt" height="600.000000pt" viewBox="0 0 600.000000 600.000000"
 preserveAspectRatio="xMidYMid meet">
<metadata>
Created by potrace 1.15, written by Peter Selinger 2001-2017
</metadata>
<g transform="translate(0.000000,600.000000) scale(0.100000,-0.100000)"
fill="#16364b" stroke="none">
<path d="M2372 5388 c-5 -7 -12 -109 -15 -228 -7 -245 -21 -330 -72 -435 -42
-87 -98 -145 -197 -202 -93 -55 -100 -62 -96 -105 2 -25 10 -36 32 -46 26 -13
33 -11 102 24 265 136 348 308 361 744 5 200 5 206 -17 233 -23 29 -79 38 -98
15z"/>
<path d="M3522 5273 c-17 -7 -42 -57 -42 -86 0 -47 68 -163 126 -216 149 -137
286 -54 194 118 -41 75 -104 147 -151 171 -36 19 -98 25 -127 13z"/>
<path d="M3013 5109 c-142 -70 -214 -312 -116 -389 121 -95 362 178 297 339
-28 71 -100 90 -181 50z m59 -160 c-20 -46 -87 -117 -98 -106 -13 12 29 102
63 136 45 46 63 31 35 -30z"/>
<path d="M4754 4727 c-23 -20 -27 -33 -36 -117 -9 -98 1 -279 22 -375 21 -99
87 -175 150 -175 35 0 89 37 112 77 62 106 11 389 -104 572 -28 45 -102 54
-144 18z"/>
<path d="M2645 4216 c-45 -20 -67 -50 -72 -100 -7 -58 1 -87 34 -126 90 -107
290 -143 426 -76 78 38 107 75 107 136 0 85 -31 103 -280 160 -99 23 -172 25
-215 6z"/>
<path d="M5223 3969 c-85 -27 -141 -72 -178 -144 -27 -53 -30 -68 -30 -154 0
-84 4 -103 28 -152 35 -71 98 -135 165 -166 74 -35 191 -31 273 9 172 85 251
289 178 458 -27 60 -72 106 -141 141 -51 26 -67 29 -145 28 -58 0 -109 -7
-150 -20z m157 -299 c20 -13 1 -44 -30 -48 -24 -4 -40 12 -40 41 0 19 44 24
70 7z"/>
<path d="M4194 3756 c-171 -42 -278 -205 -244 -374 29 -142 141 -232 289 -232
124 0 223 66 283 188 31 62 33 75 36 182 3 98 0 120 -16 150 -45 82 -204 121
-348 86z m106 -272 c0 -11 -23 -49 -34 -56 -36 -24 -49 9 -16 42 18 18 50 28
50 14z"/>
<path d="M1222 3599 c-130 -17 -244 -99 -277 -200 -26 -78 -17 -195 22 -281
60 -130 146 -194 304 -228 133 -29 177 -63 261 -202 81 -132 110 -238 183
-658 68 -396 123 -551 238 -672 138 -145 312 -200 692 -219 267 -14 1364 -19
1470 -7 159 18 298 65 519 174 249 124 365 214 460 357 100 150 131 265 124
460 -6 163 -32 259 -118 433 -96 195 -191 282 -374 345 -140 49 -253 49 -446
2 -155 -38 -243 -85 -446 -243 -150 -117 -242 -165 -345 -181 -256 -40 -511
64 -979 399 -128 92 -198 150 -354 297 -136 128 -222 199 -305 252 -199 128
-448 196 -629 172z m218 -324 c77 -24 217 -98 292 -155 35 -26 118 -100 185
-164 141 -135 244 -222 357 -302 45 -32 119 -86 166 -120 395 -288 764 -405
1101 -350 209 35 295 75 550 258 190 135 259 168 369 175 92 7 166 -12 236
-60 62 -42 165 -177 194 -254 86 -227 -27 -509 -256 -644 -184 -109 -326 -168
-466 -193 -125 -24 -378 -32 -838 -30 -818 5 -1013 28 -1134 135 -95 84 -153
266 -217 685 -27 183 -57 297 -114 434 -137 336 -251 460 -485 525 -52 15
-105 36 -118 48 -51 48 39 54 178 12z"/>
<path d="M2230 2355 c-32 -38 9 -115 61 -115 49 0 78 79 41 113 -23 21 -85 22
-102 2z"/>
<path d="M2840 2048 c-25 -28 -25 -48 1 -82 26 -33 71 -35 93 -4 19 27 21 79
4 96 -20 20 -75 14 -98 -10z"/>
<path d="M3438 3379 c-47 -27 -168 -268 -168 -333 0 -42 26 -66 73 -66 29 0
42 7 72 43 46 53 121 207 130 267 5 38 3 50 -15 73 -23 28 -60 35 -92 16z"/>
<path d="M450 2021 c-24 -45 -12 -69 73 -155 45 -46 101 -93 124 -105 83 -42
157 -19 155 48 -1 59 -40 95 -187 180 -98 56 -147 65 -165 32z"/>
<path d="M5368 1108 c-31 -11 -62 -67 -79 -146 -14 -68 -5 -118 28 -148 49
-46 122 -25 163 48 20 36 24 57 25 125 0 71 -3 85 -21 104 -24 23 -75 31 -116
17z"/>
</g>
</svg>
