<?xml version="1.0" standalone="no"?>
<!DOCTYPE svg PUBLIC "-//W3C//DTD SVG 20010904//EN"
 "http://www.w3.org/TR/2001/REC-SVG-20010904/DTD/svg10.dtd">
<svg version="1.0" xmlns="http://www.w3.org/2000/svg"
 width="600.000000pt" height="600.000000pt" viewBox="0 0 600.000000 600.000000"
 preserveAspectRatio="xMidYMid meet">
<metadata>
Created by potrace 1.15, written by Peter Selinger 2001-2017
</metadata>
<g transform="translate(0.000000,600.000000) scale(0.100000,-0.100000)"
fill="#16364b" stroke="none">
<path d="M2979 5607 c-42 -27 -142 -218 -160 -305 -15 -74 -7 -167 19 -219 53
-102 148 -148 335 -161 l98 -7 -74 -51 c-162 -113 -456 -380 -509 -463 -50
-80 -32 -153 55 -219 59 -45 169 -83 443 -156 94 -25 222 -61 283 -81 125 -39
147 -41 195 -21 99 41 125 151 54 232 -36 41 -111 66 -430 144 -120 29 -218
56 -218 61 0 11 95 100 177 166 38 30 138 101 223 158 167 111 221 158 250
215 31 61 34 103 12 153 -43 97 -157 140 -413 157 -206 14 -212 15 -204 48 4
15 24 62 46 105 44 87 49 137 22 194 -34 72 -135 97 -204 50z"/>
<path d="M1474 5314 c-139 -83 -436 -425 -518 -598 -68 -142 -84 -270 -43
-339 53 -87 111 -95 298 -42 132 38 268 65 330 65 34 0 39 -3 39 -24 0 -13
-47 -117 -105 -230 -75 -148 -105 -217 -105 -242 0 -24 -9 -46 -25 -65 -64
-77 -34 -208 58 -249 59 -27 81 -25 197 17 200 71 448 215 494 287 33 51 35
110 4 156 -62 90 -136 100 -239 33 -36 -24 -70 -43 -76 -43 -6 0 8 46 31 103
58 140 78 219 80 307 3 218 -166 313 -473 266 -57 -9 -106 -14 -108 -13 -2 2
16 32 39 66 61 92 198 232 279 287 89 60 112 90 112 142 0 85 -69 152 -158
152 -41 0 -63 -7 -111 -36z"/>
<path d="M4565 4516 c-68 -17 -153 -46 -306 -105 -125 -49 -159 -78 -166 -145
-7 -56 9 -97 52 -135 58 -50 87 -49 244 13 76 30 151 58 166 62 l27 7 -53
-103 c-65 -127 -143 -246 -242 -370 -120 -149 -117 -190 21 -300 10 -8 28 -23
40 -34 13 -11 73 -29 154 -47 225 -48 352 -79 368 -89 13 -8 1 -37 -69 -175
-46 -91 -112 -209 -147 -262 -54 -84 -64 -105 -64 -144 0 -107 106 -159 216
-107 54 25 102 85 200 250 230 387 244 550 61 673 -62 42 -190 85 -352 120
-65 14 -121 27 -122 29 -2 2 10 20 25 42 114 158 273 457 293 552 39 188 -129
318 -346 268z"/>
<path d="M3755 3682 c-110 -52 -144 -178 -79 -289 49 -85 107 -103 221 -68 34
11 39 -39 11 -110 l-24 -58 -84 -27 c-157 -49 -282 -134 -349 -238 -72 -112
-10 -252 112 -252 54 0 84 19 155 98 71 81 114 101 230 107 77 4 120 21 151
61 22 28 41 85 40 119 -1 11 12 49 28 85 25 58 28 76 28 170 0 97 -2 110 -32
173 -39 81 -123 173 -194 212 -68 37 -157 44 -214 17z"/>
<path d="M2475 3575 c-135 -25 -329 -110 -384 -169 -36 -38 -41 -121 -11 -174
26 -47 83 -82 132 -82 20 0 73 17 119 39 147 67 278 94 299 61 31 -48 -54
-278 -195 -522 -65 -114 -72 -141 -51 -192 9 -21 16 -65 16 -98 0 -32 7 -72
14 -87 22 -41 80 -88 126 -102 37 -11 52 -9 168 24 129 37 331 81 338 74 9 -9
-31 -99 -91 -208 -79 -142 -85 -186 -34 -262 72 -109 212 -116 305 -15 58 63
159 253 193 363 76 246 26 419 -144 497 -72 33 -270 33 -398 -1 -49 -12 -91
-21 -93 -18 -2 2 23 61 57 131 84 177 110 255 116 357 8 125 -18 199 -101 287
-48 51 -110 85 -184 101 -65 14 -107 13 -197 -4z"/>
<path d="M1093 3311 c-107 -39 -267 -156 -294 -215 -43 -95 -1 -213 93 -262
36 -18 112 -18 148 1 28 15 30 14 30 -3 0 -10 -16 -81 -35 -158 -54 -220 -77
-378 -76 -543 0 -146 12 -234 37 -283 36 -70 112 -109 219 -111 65 -2 76 1
100 23 14 13 36 40 48 60 11 19 58 91 103 160 44 69 119 188 164 265 104 174
215 336 223 324 2 -2 11 -23 21 -46 16 -35 17 -57 12 -140 -11 -153 -26 -259
-52 -373 -70 -295 -81 -424 -47 -544 35 -124 138 -185 235 -137 24 11 54 36
67 56 21 31 23 41 16 92 -13 100 -7 196 24 360 83 444 97 641 56 818 -7 33
-16 78 -20 100 -17 113 -67 193 -139 226 -81 37 -159 16 -259 -66 -81 -67
-206 -209 -290 -329 -99 -141 -97 -139 -87 -86 5 25 24 115 44 200 44 194 60
311 51 375 -13 105 -69 186 -157 231 -59 30 -158 32 -235 5z"/>
<path d="M4710 2319 c-83 -37 -134 -106 -147 -195 l-6 -46 -36 6 c-20 3 -101
8 -181 12 -170 7 -226 -3 -355 -67 -183 -91 -244 -209 -245 -471 0 -64 -3
-123 -6 -132 -5 -12 -18 -5 -63 35 -205 183 -482 177 -675 -16 -84 -84 -151
-187 -234 -357 -37 -76 -70 -138 -73 -138 -3 0 -20 73 -39 163 -66 330 -106
478 -141 528 -61 87 -214 79 -297 -15 -52 -59 -54 -116 -9 -262 14 -45 40
-151 57 -235 74 -359 111 -467 190 -553 23 -25 68 -58 99 -73 50 -25 67 -28
151 -27 76 0 105 5 147 23 76 33 82 42 199 281 112 231 247 420 299 420 27 0
48 -17 182 -148 104 -102 168 -139 259 -148 128 -13 244 50 333 181 78 117 81
128 81 345 0 149 3 190 14 199 10 9 89 11 283 9 l268 -3 62 29 c110 50 172
137 193 269 20 129 -3 264 -57 327 -68 79 -161 101 -253 59z"/>
</g>
</svg>
