<?xml version="1.0" standalone="no"?>
<!DOCTYPE svg PUBLIC "-//W3C//DTD SVG 20010904//EN"
 "http://www.w3.org/TR/2001/REC-SVG-20010904/DTD/svg10.dtd">
<svg version="1.0" xmlns="http://www.w3.org/2000/svg"
 width="600.000000pt" height="600.000000pt" viewBox="0 0 600.000000 600.000000"
 preserveAspectRatio="xMidYMid meet">
<metadata>
Created by potrace 1.15, written by Peter Selinger 2001-2017
</metadata>
<g transform="translate(0.000000,600.000000) scale(0.100000,-0.100000)"
fill="#16364b" stroke="none">
<path d="M2166 5414 c-95 -30 -163 -90 -211 -184 -55 -109 -55 -110 -44 -738
11 -610 9 -683 -22 -1044 -10 -124 -22 -292 -25 -372 -4 -81 -10 -148 -13
-151 -12 -7 -336 24 -410 40 -40 8 -106 25 -147 38 l-74 22 0 43 c0 35 -3 42
-20 42 -15 0 -20 -7 -20 -25 0 -37 -15 -31 -47 20 -16 25 -36 45 -45 45 -21 0
-22 -11 -8 -59 5 -19 8 -36 7 -38 -2 -1 -20 6 -40 17 -20 11 -41 20 -47 20
-21 0 -9 -31 22 -60 l33 -29 -42 -1 c-30 0 -43 -4 -43 -14 0 -13 24 -24 267
-115 96 -36 284 -75 438 -91 61 -6 124 -13 141 -15 l31 -5 6 -253 c10 -455 54
-703 155 -887 124 -225 276 -352 475 -398 l77 -17 0 -128 c0 -216 20 -353 77
-519 15 -43 23 -81 19 -85 -4 -4 -48 -11 -98 -14 -83 -6 -93 -9 -120 -36 -57
-57 -35 -137 46 -168 38 -15 54 -16 108 -6 82 14 163 56 202 104 45 56 43 122
-6 242 -20 50 -46 135 -57 190 -23 114 -37 300 -27 366 l7 45 167 -3 c92 -2
271 -8 397 -13 127 -5 271 -6 320 -1 50 4 93 6 96 5 3 -2 0 -36 -8 -76 -26
-132 -2 -324 68 -531 42 -128 44 -124 -53 -129 -93 -5 -138 -23 -156 -63 -39
-86 35 -156 150 -141 127 17 224 81 249 165 12 41 11 49 -34 180 -66 194 -90
322 -84 441 3 52 11 113 19 135 15 39 17 40 72 47 31 4 128 12 216 17 167 11
245 29 325 76 69 41 133 114 175 200 56 114 74 214 74 415 0 151 -3 181 -37
359 -21 106 -47 219 -59 250 -33 90 -107 206 -196 307 -50 57 -78 96 -70 98 7
3 33 7 58 11 76 10 268 55 348 81 126 41 233 94 300 147 60 49 73 69 52 82 -5
3 -10 15 -10 26 0 15 -7 19 -35 19 -32 0 -35 2 -26 19 21 39 -21 42 -60 5
l-28 -27 -7 27 c-10 40 -39 30 -41 -14 -1 -19 -2 -40 -2 -46 -1 -15 -121 -69
-222 -99 -96 -29 -309 -70 -417 -80 l-72 -6 -88 73 c-288 239 -617 474 -823
588 -205 113 -354 320 -458 637 -50 151 -74 264 -105 493 -14 102 -31 203 -37
225 -36 127 -131 246 -237 296 -80 38 -189 48 -266 23z m199 -158 c62 -29 87
-55 119 -127 28 -61 38 -106 56 -269 38 -341 143 -656 304 -910 110 -175 224
-280 446 -411 182 -108 239 -148 460 -322 376 -297 605 -527 688 -693 17 -34
38 -97 46 -140 62 -318 66 -346 66 -472 0 -207 -40 -338 -128 -425 -79 -77
-116 -88 -352 -103 -113 -7 -263 -20 -335 -29 -109 -14 -182 -16 -460 -10
-181 4 -411 7 -510 7 -252 0 -327 17 -447 105 -54 39 -127 132 -168 214 -61
120 -88 228 -114 464 -38 333 -38 633 -1 1105 31 383 40 814 27 1325 -14 543
-12 556 56 636 67 78 156 98 247 55z"/>
<path d="M2606 2844 c-26 -26 -20 -70 13 -93 16 -12 34 -21 40 -21 19 0 61 48
61 70 0 49 -79 80 -114 44z"/>
<path d="M3142 2784 c-40 -27 -24 -82 29 -104 30 -13 33 -12 55 14 29 33 30
60 4 86 -24 24 -57 26 -88 4z"/>
<path d="M2847 1912 c-24 -27 -21 -49 10 -69 23 -15 56 -19 219 -21 188 -4
192 -3 199 17 20 64 -33 84 -209 79 -67 -1 -139 1 -161 5 -34 7 -44 5 -58 -11z"/>
</g>
</svg>
