<?xml version="1.0" standalone="no"?>
<!DOCTYPE svg PUBLIC "-//W3C//DTD SVG 20010904//EN"
 "http://www.w3.org/TR/2001/REC-SVG-20010904/DTD/svg10.dtd">
<svg version="1.0" xmlns="http://www.w3.org/2000/svg"
 width="600.000000pt" height="600.000000pt" viewBox="0 0 600.000000 600.000000"
 preserveAspectRatio="xMidYMid meet">
<metadata>
Created by potrace 1.15, written by Peter Selinger 2001-2017
</metadata>
<g transform="translate(0.000000,600.000000) scale(0.100000,-0.100000)"
fill="#16364b" stroke="none">
<path d="M3552 5263 c-7 -3 -19 -18 -28 -35 -14 -28 -14 -34 2 -77 47 -124
153 -231 229 -231 87 0 72 97 -39 248 -62 84 -115 115 -164 95z m127 -173 c51
-74 54 -80 43 -80 -24 0 -92 84 -118 146 l-16 39 27 -25 c15 -14 44 -50 64
-80z"/>
<path d="M3015 5063 c-110 -58 -176 -205 -130 -292 18 -36 63 -53 107 -41 47
14 129 89 163 151 60 110 29 200 -68 199 -23 -1 -55 -8 -72 -17z m93 -88 c3
-37 -35 -97 -91 -143 -52 -42 -73 -39 -70 12 3 51 40 115 83 144 46 31 74 26
78 -13z"/>
<path d="M4763 4718 c-12 -6 -27 -26 -34 -45 -12 -38 -14 -476 -1 -532 17 -77
113 -95 149 -28 16 28 18 62 17 283 -1 270 -6 302 -50 323 -30 13 -52 13 -81
-1z"/>
<path d="M1629 4307 c-107 -40 -154 -102 -147 -195 5 -73 37 -135 104 -208 60
-64 83 -116 108 -239 20 -103 60 -422 86 -690 11 -115 27 -262 35 -325 9 -63
20 -220 25 -348 17 -450 91 -714 246 -881 102 -110 244 -182 390 -196 l69 -7
0 -192 c0 -213 11 -281 71 -442 47 -127 48 -124 -38 -124 -84 0 -134 -20 -157
-62 -23 -40 -5 -96 39 -126 78 -53 257 -8 321 81 40 55 39 106 -6 222 -49 129
-66 204 -75 339 -9 117 1 281 17 297 5 5 81 4 168 -2 88 -5 308 -13 488 -16
l328 -6 -7 -31 c-13 -55 -7 -248 10 -346 18 -103 42 -187 75 -263 36 -83 35
-84 -79 -89 -94 -3 -101 -5 -130 -33 -23 -22 -30 -38 -30 -66 0 -109 173 -151
319 -76 105 53 137 155 88 272 -76 181 -125 485 -98 610 6 28 10 31 76 43 225
41 532 129 653 188 162 79 291 217 343 371 21 60 24 86 23 218 0 134 -3 159
-28 240 -58 189 -139 301 -264 363 -106 52 -147 57 -361 42 -330 -23 -528 -5
-811 75 -266 75 -447 190 -682 431 -100 103 -132 147 -521 704 -87 124 -136
182 -266 309 -133 130 -189 163 -286 168 -34 2 -76 -3 -96 -10z m148 -156 c24
-11 90 -68 160 -138 98 -97 140 -149 233 -288 158 -236 368 -523 461 -630 166
-192 419 -389 594 -464 105 -44 285 -96 433 -125 167 -33 505 -46 679 -27 96
11 120 10 173 -3 104 -27 167 -85 222 -205 113 -246 83 -493 -77 -638 -76 -69
-135 -98 -320 -159 -403 -132 -518 -145 -1095 -124 -190 7 -437 13 -550 15
-125 1 -224 7 -255 15 -285 73 -417 344 -440 900 -3 85 -15 220 -25 300 -23
176 -37 310 -45 450 -4 58 -17 182 -30 275 -14 94 -31 224 -40 290 -28 208
-57 290 -135 380 -59 68 -71 89 -72 126 -1 22 6 38 22 51 28 23 54 23 107 -1z"/>
<path d="M2472 2564 c-31 -22 -29 -67 4 -93 34 -27 58 -27 84 1 57 62 -18 141
-88 92z"/>
<path d="M2897 2252 c-24 -27 -21 -59 9 -87 48 -45 104 -22 104 43 0 54 -77
84 -113 44z"/>
<path d="M2674 4220 c-32 -13 -64 -59 -64 -92 0 -44 43 -80 139 -117 115 -44
278 -84 317 -77 38 8 72 42 79 81 8 40 -25 92 -62 101 -15 3 -73 22 -128 41
-212 75 -239 80 -281 63z"/>
<path d="M5280 3990 c-134 -23 -225 -111 -244 -235 -17 -104 37 -268 112 -343
115 -115 345 -85 482 65 108 118 108 278 -1 397 -89 97 -216 140 -349 116z
m104 -290 c33 -12 33 -25 0 -47 -25 -16 -27 -16 -40 2 -18 25 -18 55 0 55 8 0
26 -4 40 -10z"/>
<path d="M4226 3753 c-97 -29 -186 -110 -235 -213 -20 -43 -26 -70 -26 -125 1
-78 14 -112 66 -163 57 -56 113 -76 209 -77 76 0 91 3 138 29 67 37 107 82
145 165 39 82 41 175 7 264 -18 48 -30 64 -67 87 -44 28 -121 51 -166 49 -12
0 -44 -7 -71 -16z m74 -293 c-11 -21 -50 -28 -50 -8 0 6 10 22 22 35 19 20 23
21 30 8 5 -8 4 -23 -2 -35z"/>
<path d="M470 2015 c-15 -18 -10 -45 10 -56 82 -46 280 -129 300 -127 32 4 37
31 10 56 -19 17 -284 142 -301 142 -4 0 -12 -7 -19 -15z"/>
<path d="M5345 1096 c-31 -31 -68 -150 -60 -195 9 -49 32 -78 71 -91 28 -10
40 -9 71 7 45 22 70 62 84 136 12 68 -1 129 -34 152 -34 24 -103 20 -132 -9z"/>
</g>
</svg>
