<?xml version="1.0" standalone="no"?>
<!DOCTYPE svg PUBLIC "-//W3C//DTD SVG 20010904//EN"
 "http://www.w3.org/TR/2001/REC-SVG-20010904/DTD/svg10.dtd">
<svg version="1.0" xmlns="http://www.w3.org/2000/svg"
 width="600.000000pt" height="600.000000pt" viewBox="0 0 600.000000 600.000000"
 preserveAspectRatio="xMidYMid meet">
<metadata>
Created by potrace 1.15, written by Peter Selinger 2001-2017
</metadata>
<g transform="translate(0.000000,600.000000) scale(0.100000,-0.100000)"
fill="#16364b" stroke="none">
<path d="M2474 5486 c-35 -16 -59 -46 -102 -131 -101 -202 -75 -369 68 -429
80 -33 240 -26 423 18 31 8 57 11 57 8 0 -4 -56 -73 -124 -154 -152 -182 -216
-277 -311 -465 -79 -153 -87 -187 -65 -262 13 -45 55 -89 97 -100 22 -6 79 -4
170 6 159 18 506 20 630 4 91 -11 131 -4 171 33 51 45 65 107 38 169 -20 47
-58 78 -118 94 -67 18 -391 28 -510 16 -65 -7 -88 -6 -88 3 0 20 135 214 225
324 253 310 270 337 263 431 -5 75 -43 131 -115 171 -80 45 -153 47 -343 9
-148 -30 -210 -37 -210 -26 0 3 12 27 26 54 39 75 34 148 -14 194 -49 47 -109
58 -168 33z"/>
<path d="M1650 5066 c-153 -54 -282 -137 -405 -261 -49 -49 -108 -116 -130
-148 -35 -52 -40 -66 -40 -116 0 -48 5 -64 28 -94 15 -20 38 -42 50 -49 12 -7
85 -15 167 -19 161 -8 267 -30 303 -63 16 -15 30 -47 42 -97 10 -41 26 -87 36
-104 51 -86 193 -88 264 -4 34 42 40 89 21 167 -49 198 -153 308 -356 377 -36
13 -65 26 -65 31 0 17 131 84 195 100 82 20 124 51 145 108 24 63 14 110 -35
158 -35 35 -42 38 -96 38 -36 0 -85 -10 -124 -24z"/>
<path d="M4123 4751 c-148 -40 -331 -140 -357 -195 -20 -42 -21 -108 -1 -145
44 -85 132 -106 219 -51 72 46 155 86 215 104 30 9 56 16 58 16 2 0 3 -20 3
-44 0 -74 -65 -260 -164 -466 -45 -93 -47 -144 -10 -209 38 -66 73 -100 110
-107 19 -3 87 5 166 21 73 14 185 31 248 37 136 13 193 5 198 -30 6 -37 -37
-189 -101 -357 -83 -221 -82 -217 -58 -269 45 -102 181 -135 250 -62 24 25
146 377 181 521 25 102 26 223 3 289 -24 66 -82 129 -151 163 -51 25 -69 28
-188 31 -72 3 -171 -1 -219 -7 -48 -7 -89 -10 -91 -8 -3 2 14 49 36 105 64
159 83 241 84 367 1 96 -2 116 -23 157 -27 55 -84 111 -138 134 -60 25 -185
28 -270 5z"/>
<path d="M2010 3969 c-93 -36 -285 -92 -409 -119 -108 -24 -139 -38 -174 -79
-37 -45 -44 -101 -17 -155 41 -85 93 -99 255 -66 282 56 488 126 557 188 110
99 47 264 -99 261 -21 0 -72 -13 -113 -30z"/>
<path d="M3667 3660 c-48 -16 -108 -41 -135 -54 -80 -41 -226 -141 -254 -175
-51 -60 -47 -130 13 -186 22 -22 41 -29 83 -33 52 -4 58 -2 153 57 54 33 131
74 171 90 66 27 72 28 72 12 0 -31 -50 -168 -105 -290 -83 -184 -95 -205 -129
-228 -90 -58 -86 -197 6 -266 48 -36 104 -33 209 8 117 46 303 141 389 197
146 96 214 199 190 289 -20 73 -114 123 -189 100 -39 -11 -49 -20 -112 -94
-17 -21 -34 -35 -37 -33 -2 3 5 27 16 53 65 152 85 356 43 448 -44 100 -102
135 -221 135 -57 0 -96 -8 -163 -30z"/>
<path d="M2420 3424 c-49 -10 -151 -44 -253 -84 -135 -52 -167 -86 -167 -176
0 -85 60 -144 147 -144 21 0 74 12 118 26 107 34 205 54 266 54 45 0 49 -2 49
-23 0 -35 -27 -118 -60 -189 -52 -110 -33 -196 53 -239 49 -25 115 -22 156 8
86 64 168 299 158 454 -6 93 -36 157 -102 218 -73 67 -141 93 -249 97 -50 1
-102 0 -116 -2z"/>
<path d="M1125 3116 c-83 -24 -101 -33 -128 -65 -90 -108 -4 -283 151 -307 51
-8 50 4 21 -211 -39 -289 -27 -644 25 -766 33 -77 142 -123 229 -97 82 24 147
99 147 169 0 25 7 34 38 50 49 25 63 42 110 136 79 159 250 385 290 385 9 0
12 -42 12 -167 0 -187 -7 -244 -51 -418 -35 -136 -35 -195 0 -244 59 -82 186
-87 244 -9 26 35 92 310 112 462 21 171 21 415 0 486 -58 187 -218 273 -390
209 -104 -39 -239 -156 -343 -297 -26 -35 -48 -58 -50 -52 -2 6 1 48 8 93 6
45 14 154 17 242 5 149 4 164 -17 220 -28 75 -96 145 -166 169 -67 24 -196 30
-259 12z"/>
<path d="M4858 2856 c-26 -7 -55 -19 -65 -26 -85 -65 -113 -115 -120 -216 l-6
-73 -56 -11 c-297 -60 -475 -219 -512 -459 -25 -166 48 -409 163 -540 l30 -34
-29 -12 c-17 -7 -46 -29 -65 -49 -43 -44 -50 -44 -220 -6 -243 54 -367 48
-520 -23 -135 -63 -285 -199 -390 -354 -26 -40 -61 -79 -76 -87 -16 -8 -41
-30 -58 -49 -38 -45 -92 -77 -129 -77 -47 0 -124 51 -202 133 -56 59 -82 97
-118 174 -26 54 -56 118 -68 143 -49 100 -180 137 -270 76 -82 -55 -97 -138
-51 -268 60 -166 149 -309 262 -422 143 -142 271 -199 452 -200 145 -1 231 30
347 126 28 24 70 54 92 67 26 16 58 51 93 105 29 45 89 117 133 162 145 146
237 171 435 119 132 -35 238 -42 319 -20 90 23 155 59 217 117 58 54 77 96 76
164 l-1 43 52 11 c105 22 173 98 184 203 9 88 -17 148 -97 226 -71 70 -104
134 -98 187 4 40 57 67 204 105 66 17 146 44 180 60 149 70 226 233 211 448
-11 148 -74 236 -188 260 -59 13 -51 13 -111 -3z"/>
<path d="M3240 2419 c-52 -4 -122 -12 -155 -18 -85 -16 -395 -101 -425 -116
-62 -32 -110 -112 -110 -182 0 -59 42 -137 89 -169 69 -45 105 -43 296 20 191
62 269 82 369 92 l68 7 -8 -44 c-30 -156 52 -259 208 -259 63 0 106 18 145 63
37 43 50 82 64 196 15 131 -8 225 -75 299 -81 89 -243 128 -466 111z"/>
</g>
</svg>
