<?xml version="1.0" standalone="no"?>
<!DOCTYPE svg PUBLIC "-//W3C//DTD SVG 20010904//EN"
 "http://www.w3.org/TR/2001/REC-SVG-20010904/DTD/svg10.dtd">
<svg version="1.0" xmlns="http://www.w3.org/2000/svg"
 width="600.000000pt" height="600.000000pt" viewBox="0 0 600.000000 600.000000"
 preserveAspectRatio="xMidYMid meet">
<metadata>
Created by potrace 1.15, written by Peter Selinger 2001-2017
</metadata>
<g transform="translate(0.000000,600.000000) scale(0.100000,-0.100000)"
fill="#16364b" stroke="none">
<path d="M2696 5527 c-69 -39 -166 -230 -166 -325 0 -95 57 -184 144 -227 75
-37 164 -47 298 -35 62 5 114 8 116 5 3 -2 -65 -73 -150 -157 -106 -106 -171
-179 -209 -238 -31 -47 -86 -131 -123 -186 -79 -119 -89 -159 -57 -222 27 -53
68 -91 106 -97 16 -3 130 -12 251 -20 213 -14 341 -30 487 -61 134 -28 192
-12 244 65 40 59 22 149 -38 193 -42 31 -355 88 -566 104 -51 3 -93 8 -93 11
0 19 161 191 253 271 195 170 268 244 293 297 43 91 25 177 -52 244 -91 81
-239 107 -440 80 -44 -6 -96 -9 -116 -7 l-37 3 35 74 c50 108 43 179 -22 230
-36 29 -107 28 -158 -2z"/>
<path d="M1570 5207 c-125 -52 -271 -181 -397 -352 -92 -124 -174 -284 -181
-354 -6 -69 25 -134 79 -161 49 -26 49 -26 211 10 125 28 298 44 312 29 3 -3
-8 -59 -24 -125 -43 -173 -47 -221 -22 -271 13 -25 34 -46 52 -54 16 -8 30
-17 30 -20 0 -4 -43 -21 -96 -38 -111 -36 -145 -57 -168 -105 -46 -97 23 -206
130 -206 67 0 364 94 537 170 125 55 159 92 159 176 0 82 -56 144 -139 151
-41 4 -62 -2 -136 -36 -49 -23 -92 -41 -97 -41 -4 0 -2 19 5 43 24 80 64 272
71 338 13 131 -47 239 -164 295 -49 24 -73 28 -169 32 -62 2 -113 8 -113 12 0
4 40 46 90 93 60 57 111 96 153 116 34 16 72 40 84 53 72 76 49 197 -47 246
-56 28 -90 28 -160 -1z"/>
<path d="M4323 4655 c-74 -16 -247 -84 -328 -129 -72 -39 -98 -81 -92 -145 5
-46 27 -83 69 -114 38 -28 104 -24 174 11 101 50 264 101 264 82 0 -20 -70
-181 -165 -379 -52 -108 -95 -209 -95 -224 0 -39 23 -89 56 -124 16 -17 42
-45 57 -62 16 -17 36 -32 45 -32 10 -1 118 -2 242 -3 261 -1 286 -7 274 -59
-15 -71 -94 -299 -143 -411 -55 -127 -60 -159 -35 -212 36 -75 150 -103 226
-56 39 24 61 65 130 237 98 245 128 352 128 457 0 106 -22 161 -89 229 -46 45
-68 59 -126 77 -74 24 -216 42 -327 42 -38 0 -68 2 -68 5 0 3 18 38 39 78 124
225 183 500 132 613 -23 49 -88 107 -140 122 -50 15 -150 14 -228 -3z"/>
<path d="M3745 3691 c-89 -26 -156 -64 -223 -126 -68 -62 -92 -105 -92 -163 0
-75 71 -142 152 -142 55 0 83 14 135 70 27 27 65 57 86 65 l37 15 0 -33 c0
-90 -118 -377 -155 -377 -26 0 -177 -82 -214 -115 -111 -100 -47 -272 103
-278 34 -2 66 10 157 56 63 32 169 77 237 102 150 54 196 79 236 128 27 34 31
46 31 101 0 53 -4 68 -27 98 -15 19 -43 43 -62 52 -20 9 -36 18 -36 20 0 2 7
23 17 47 11 31 16 78 17 164 1 112 -1 124 -27 177 -67 136 -205 188 -372 139z"/>
<path d="M2503 3519 c-115 -17 -367 -120 -434 -176 -55 -47 -74 -125 -45 -181
27 -52 62 -75 121 -80 49 -4 66 0 143 36 159 73 322 115 355 89 14 -11 14 -19
-4 -85 -10 -40 -46 -131 -79 -201 -35 -74 -60 -140 -60 -159 0 -45 22 -92 59
-127 29 -27 39 -30 94 -30 93 0 115 20 187 169 32 66 74 164 91 216 29 83 33
108 33 205 1 101 -1 115 -27 167 -50 102 -147 156 -291 163 -45 2 -109 0 -143
-6z"/>
<path d="M1140 3214 c-107 -29 -216 -105 -239 -167 -15 -40 -14 -113 3 -146
36 -69 131 -119 205 -107 l34 5 -7 -92 c-7 -97 -30 -267 -66 -502 -39 -253
-16 -406 69 -463 84 -55 169 -53 254 8 46 33 62 54 102 132 121 235 322 530
423 621 19 18 20 17 32 -15 18 -48 24 -282 10 -396 -6 -53 -30 -173 -52 -267
-52 -217 -58 -282 -27 -331 24 -39 85 -73 132 -74 15 0 44 7 64 15 19 8 37 15
39 15 2 0 -4 -17 -13 -37 -19 -46 -13 -96 27 -248 110 -415 235 -627 420 -714
74 -34 177 -40 257 -15 62 20 197 104 216 136 7 10 30 27 52 37 53 24 74 49
130 151 108 196 213 333 280 364 49 23 75 16 227 -61 142 -72 206 -93 290 -93
138 0 305 118 338 239 7 26 19 41 45 55 71 38 126 152 111 229 -3 18 -26 73
-52 122 -34 68 -47 105 -51 152 l-6 61 68 21 c37 12 120 28 185 36 242 30 367
103 422 249 39 101 32 309 -12 395 -41 82 -132 123 -225 102 -115 -26 -205
-125 -205 -226 l0 -43 -102 -12 c-219 -27 -388 -109 -500 -243 -159 -192 -167
-400 -23 -646 29 -50 34 -65 25 -77 -19 -21 -32 -18 -138 35 -141 70 -213 93
-317 98 -251 14 -428 -121 -658 -504 -55 -91 -72 -112 -109 -131 -24 -12 -58
-32 -77 -44 l-34 -22 -24 30 c-50 63 -122 275 -149 441 -18 115 -24 132 -64
172 -45 44 -84 62 -150 68 -43 4 -67 1 -101 -14 l-44 -20 37 114 c50 150 77
303 88 503 19 309 -22 577 -100 672 -42 51 -103 78 -177 78 -76 0 -112 -12
-197 -68 -72 -47 -219 -189 -282 -272 -21 -27 -40 -48 -42 -46 -2 3 5 62 16
133 30 191 34 241 22 323 -20 145 -98 254 -204 285 -61 18 -105 18 -176 -1z"/>
<path d="M3045 2564 c-193 -43 -458 -127 -501 -160 -93 -69 -96 -223 -8 -306
70 -65 116 -63 326 12 177 63 272 90 324 90 36 0 36 0 -1 -124 -26 -88 -18
-162 25 -224 53 -78 122 -110 194 -91 76 20 111 71 167 249 30 93 34 118 34
215 0 97 -3 116 -25 160 -34 69 -91 122 -169 158 -59 27 -78 31 -181 33 -77 3
-138 -2 -185 -12z"/>
</g>
</svg>
