<?xml version="1.0" standalone="no"?>
<!DOCTYPE svg PUBLIC "-//W3C//DTD SVG 20010904//EN"
 "http://www.w3.org/TR/2001/REC-SVG-20010904/DTD/svg10.dtd">
<svg version="1.0" xmlns="http://www.w3.org/2000/svg"
 width="600.000000pt" height="600.000000pt" viewBox="0 0 600.000000 600.000000"
 preserveAspectRatio="xMidYMid meet">
<metadata>
Created by potrace 1.15, written by Peter Selinger 2001-2017
</metadata>
<g transform="translate(0.000000,600.000000) scale(0.100000,-0.100000)"
fill="#16364b" stroke="none">
<path d="M3102 5648 c-18 -6 -46 -27 -63 -46 -28 -31 -31 -41 -27 -82 9 -91
130 -228 343 -387 156 -118 195 -151 195 -169 0 -21 -71 -77 -195 -153 -66
-41 -150 -97 -187 -123 -38 -28 -98 -59 -140 -74 -40 -13 -115 -45 -166 -70
-207 -100 -270 -227 -179 -361 40 -58 93 -86 172 -91 47 -2 67 1 93 17 51 32
74 77 69 134 -5 57 7 67 80 67 61 0 68 4 331 185 237 163 351 265 392 350 34
70 35 191 2 252 -33 64 -106 130 -238 218 -123 82 -214 164 -274 249 -19 27
-46 58 -60 68 -31 22 -105 31 -148 16z"/>
<path d="M1153 5346 c-171 -92 -312 -253 -365 -416 -29 -90 -28 -263 1 -374
31 -116 77 -195 131 -223 112 -59 250 10 250 126 0 28 -12 64 -37 114 -35 67
-38 78 -37 157 0 115 27 182 103 258 31 32 82 70 113 86 36 17 65 41 78 61 42
68 14 184 -53 225 -49 30 -110 26 -184 -14z"/>
<path d="M1720 5290 c-19 -10 -43 -32 -53 -49 -18 -31 -25 -111 -12 -150 4
-15 -12 -50 -58 -128 -74 -123 -97 -183 -97 -253 0 -91 61 -183 150 -224 38
-18 63 -21 165 -20 123 1 275 28 335 59 103 53 96 204 -11 264 -46 26 -88 26
-209 1 -52 -10 -96 -17 -99 -14 -3 3 5 24 18 47 105 188 123 229 128 285 8 87
-27 143 -112 183 -51 23 -100 23 -145 -1z"/>
<path d="M4552 4690 c-88 -54 -96 -177 -16 -251 16 -15 40 -30 53 -34 l23 -7
-28 -18 c-50 -30 -67 -57 -72 -114 -5 -65 18 -120 61 -146 43 -27 149 -44 231
-37 225 17 377 175 337 350 -32 139 -153 224 -375 262 -120 20 -174 19 -214
-5z"/>
<path d="M1815 4266 c-140 -38 -308 -145 -375 -238 -24 -32 -30 -51 -30 -90 0
-86 51 -140 133 -140 57 0 85 13 141 61 94 81 205 121 328 118 64 -2 81 1 105
19 102 75 98 224 -7 276 -51 26 -191 23 -295 -6z"/>
<path d="M2510 3734 c-181 -38 -259 -98 -260 -199 0 -47 40 -116 80 -137 47
-24 90 -23 183 7 44 14 107 26 140 28 l62 2 -1 -50 c-3 -107 -90 -257 -333
-573 -31 -40 -66 -89 -78 -110 -41 -68 -25 -152 39 -208 43 -38 92 -49 144
-32 45 15 56 29 286 365 222 326 256 397 265 569 4 79 2 112 -11 151 -32 98
-117 167 -234 192 -70 15 -202 13 -282 -5z"/>
<path d="M4042 3729 c-122 -24 -203 -132 -188 -252 11 -100 96 -211 207 -272
75 -41 183 -47 257 -15 136 59 225 258 157 351 -26 36 -36 55 -55 107 -7 18
-25 41 -41 52 -46 34 -234 50 -337 29z"/>
<path d="M1151 3590 c-60 -13 -150 -56 -252 -122 -69 -45 -90 -64 -108 -100
-51 -106 -11 -220 94 -269 50 -23 93 -24 145 -3 23 9 42 15 44 13 2 -2 -23
-69 -55 -149 -33 -80 -72 -185 -88 -235 -37 -114 -128 -475 -137 -544 -8 -64
14 -129 57 -165 57 -49 182 -70 237 -42 15 8 88 79 163 157 183 194 214 230
356 404 151 185 160 195 167 195 20 0 -29 -287 -108 -637 -69 -302 -76 -345
-76 -446 0 -103 14 -137 73 -181 39 -28 126 -28 164 0 53 40 66 68 73 161 10
113 14 132 66 351 24 101 65 292 91 425 44 227 47 252 47 412 1 145 -2 177
-18 220 -28 73 -54 102 -113 132 -45 22 -63 25 -112 20 -31 -2 -75 -14 -97
-25 -54 -27 -147 -125 -246 -257 -119 -157 -183 -236 -186 -227 -1 5 14 53 33
107 83 228 132 476 115 581 -27 164 -165 258 -329 224z"/>
<path d="M3588 3300 c-68 -20 -158 -102 -196 -177 -35 -69 -66 -177 -66 -230
0 -43 5 -58 30 -89 35 -44 98 -69 148 -60 19 4 52 19 73 35 29 21 61 32 114
40 100 16 181 54 229 108 107 122 47 298 -124 362 -59 22 -155 27 -208 11z"/>
<path d="M4692 3010 c-91 -56 -96 -224 -11 -392 16 -31 33 -78 39 -105 12 -51
53 -103 102 -129 66 -34 163 -2 198 66 33 64 27 98 -42 231 -53 104 -62 130
-68 192 -3 40 -12 82 -19 95 -32 59 -135 81 -199 42z"/>
<path d="M2920 2589 c-88 -15 -203 -57 -375 -136 -179 -82 -215 -111 -235
-193 -15 -63 0 -119 46 -170 71 -79 159 -88 276 -29 133 67 348 145 348 126 0
-23 -65 -177 -131 -310 -67 -136 -79 -167 -79 -210 0 -130 114 -228 229 -197
21 5 50 19 64 30 32 25 234 430 272 545 39 117 45 258 15 340 -29 78 -112 162
-186 188 -62 22 -170 29 -244 16z"/>
<path d="M4412 2295 c-115 -50 -162 -146 -137 -277 7 -38 11 -68 8 -68 -2 0
-56 14 -120 31 -100 27 -129 30 -217 27 -84 -2 -111 -8 -158 -30 -105 -49
-186 -145 -224 -265 -31 -101 -27 -427 8 -568 22 -90 109 -166 205 -181 103
-15 209 47 253 148 22 52 23 56 11 193 -14 174 -14 225 0 225 14 0 119 -26
185 -46 42 -12 66 -13 136 -4 117 14 176 33 246 80 63 42 97 85 134 165 38 85
37 277 -3 428 -12 46 -69 112 -120 138 -46 23 -158 25 -207 4z"/>
<path d="M2185 1865 c-5 -2 -22 -6 -37 -9 -38 -9 -96 -62 -113 -104 -18 -40
-19 -79 -5 -153 5 -30 19 -117 31 -194 27 -176 58 -284 116 -405 55 -114 123
-186 261 -279 179 -120 260 -143 348 -101 l42 21 92 -60 c107 -71 166 -91 265
-91 147 0 340 92 384 183 51 104 5 208 -108 246 -58 19 -102 13 -178 -25 l-72
-35 -50 24 c-157 79 -327 230 -405 359 -52 86 -152 121 -241 84 l-34 -15 -11
37 c-5 20 -21 116 -35 212 -28 197 -45 236 -120 276 -38 20 -108 36 -130 29z"/>
</g>
</svg>
