<?xml version="1.0" standalone="no"?>
<!DOCTYPE svg PUBLIC "-//W3C//DTD SVG 20010904//EN"
 "http://www.w3.org/TR/2001/REC-SVG-20010904/DTD/svg10.dtd">
<svg version="1.0" xmlns="http://www.w3.org/2000/svg"
 width="600.000000pt" height="600.000000pt" viewBox="0 0 600.000000 600.000000"
 preserveAspectRatio="xMidYMid meet">
<metadata>
Created by potrace 1.15, written by Peter Selinger 2001-2017
</metadata>
<g transform="translate(0.000000,600.000000) scale(0.100000,-0.100000)"
fill="#16364b" stroke="none">
<path d="M1535 5791 c-28 -12 -319 -311 -338 -347 -26 -52 -30 -90 -11 -129
33 -71 100 -86 204 -45 145 57 407 175 427 193 28 25 37 68 24 110 -19 58 -95
84 -151 52 -39 -22 -54 -19 -36 7 34 48 14 127 -39 153 -36 17 -50 18 -80 6z"/>
<path d="M2351 5412 l-28 -28 -6 -214 c-4 -185 -9 -228 -30 -311 -46 -177
-110 -266 -232 -323 -86 -40 -105 -61 -105 -112 0 -35 5 -47 31 -68 43 -37 72
-41 127 -20 208 79 330 239 395 517 18 79 21 124 22 310 l0 219 -33 29 c-45
40 -102 41 -141 1z"/>
<path d="M3510 5308 c-21 -15 -42 -41 -54 -70 -19 -45 -19 -46 3 -117 18 -59
32 -82 81 -135 190 -202 425 -103 297 126 -71 127 -151 193 -257 213 -27 5
-43 1 -70 -17z"/>
<path d="M3018 5141 c-114 -37 -201 -162 -202 -291 -1 -51 4 -73 22 -102 26
-41 91 -78 140 -78 45 0 131 35 174 70 32 26 39 41 54 106 37 169 -12 288
-122 299 -21 3 -51 0 -66 -4z"/>
<path d="M4753 4766 c-45 -20 -63 -62 -63 -143 0 -161 45 -341 109 -442 103
-159 310 -162 387 -5 24 49 26 63 22 137 -4 71 -9 92 -42 153 -44 84 -136 180
-240 252 -81 57 -126 69 -173 48z"/>
<path d="M2727 4230 c-67 -12 -146 -59 -182 -109 -24 -34 -30 -54 -33 -109 -3
-58 0 -74 25 -122 53 -101 173 -155 297 -132 115 22 253 106 316 194 23 32 30
52 30 89 0 76 -35 109 -159 148 -93 30 -197 52 -231 50 -8 -1 -37 -5 -63 -9z"/>
<path d="M1078 4094 c-53 -28 -73 -105 -44 -163 19 -36 53 -58 112 -71 58 -13
144 -49 144 -61 0 -17 -58 -24 -183 -21 -137 2 -170 -6 -201 -50 -23 -33 -21
-109 5 -142 37 -47 73 -58 209 -64 135 -5 203 5 275 40 67 33 104 67 135 121
24 42 30 64 30 112 0 132 -107 235 -306 294 -83 24 -138 26 -176 5z"/>
<path d="M4213 3780 c-98 -21 -195 -97 -240 -189 -54 -109 -30 -255 57 -354
47 -55 81 -75 149 -93 81 -20 149 -7 222 44 99 69 163 189 179 336 12 101 1
144 -45 185 -61 53 -228 91 -322 71z m67 -308 c0 -14 -40 -52 -55 -52 -22 0
-18 27 7 44 24 17 48 21 48 8z"/>
<path d="M1644 3720 c-40 -16 -54 -49 -54 -128 0 -150 49 -299 114 -345 17
-12 50 -22 80 -25 64 -5 111 23 144 88 63 121 -28 329 -173 396 -53 25 -77 28
-111 14z"/>
<path d="M5220 3708 c-124 -20 -228 -95 -283 -207 -29 -59 -32 -74 -32 -151 1
-64 6 -96 21 -131 51 -111 143 -170 266 -170 201 0 362 146 376 342 7 97 -23
156 -118 238 -96 83 -131 95 -230 79z m40 -321 c0 -8 -9 -22 -20 -32 -16 -14
-23 -16 -32 -7 -9 9 -7 16 7 32 21 23 45 26 45 7z"/>
<path d="M3415 3352 c-39 -24 -70 -65 -134 -178 -59 -104 -65 -146 -27 -187
57 -61 155 -40 248 54 70 69 101 133 102 207 1 49 -2 56 -36 88 -31 28 -46 34
-80 34 -24 0 -56 -8 -73 -18z"/>
<path d="M2135 3060 c-27 -4 -78 -15 -113 -24 -70 -19 -379 -139 -482 -187
-266 -126 -433 -382 -434 -664 -1 -211 89 -382 284 -546 140 -118 238 -221
305 -320 103 -152 212 -240 356 -287 128 -42 236 -51 358 -31 92 14 165 41
331 118 80 38 177 78 215 91 116 37 243 102 380 195 346 234 464 344 550 515
127 252 106 468 -62 650 -123 132 -471 341 -698 418 -180 61 -286 74 -630 78
-170 1 -332 -1 -360 -6z m665 -385 c116 -17 337 -91 428 -141 88 -49 205 -127
265 -178 185 -154 107 -318 -268 -565 -154 -101 -401 -237 -465 -256 -14 -4
-69 -32 -122 -62 -138 -78 -224 -106 -323 -105 -142 0 -217 44 -327 191 -83
112 -215 250 -346 363 -51 45 -104 101 -120 127 -24 40 -27 56 -27 131 0 71 4
94 26 140 34 71 95 131 172 169 98 49 341 140 430 161 156 37 514 50 677 25z"/>
<path d="M430 2229 c-77 -31 -83 -72 -30 -219 55 -155 91 -225 156 -304 157
-191 377 -229 461 -81 62 109 6 236 -167 380 -90 75 -238 171 -325 212 -56 25
-60 26 -95 12z"/>
<path d="M4655 1729 c-16 -13 -33 -27 -36 -32 -3 -4 -26 -2 -50 4 -25 7 -58 9
-74 5 -36 -9 -92 -65 -101 -102 -10 -38 18 -209 52 -315 44 -141 98 -193 196
-186 129 8 195 128 220 402 13 136 9 162 -31 207 -24 27 -36 32 -87 36 -50 3
-63 1 -89 -19z"/>
</g>
</svg>
