<?xml version="1.0" standalone="no"?>
<!DOCTYPE svg PUBLIC "-//W3C//DTD SVG 20010904//EN"
 "http://www.w3.org/TR/2001/REC-SVG-20010904/DTD/svg10.dtd">
<svg version="1.0" xmlns="http://www.w3.org/2000/svg"
 width="600.000000pt" height="600.000000pt" viewBox="0 0 600.000000 600.000000"
 preserveAspectRatio="xMidYMid meet">
<metadata>
Created by potrace 1.15, written by Peter Selinger 2001-2017
</metadata>
<g transform="translate(0.000000,600.000000) scale(0.100000,-0.100000)"
fill="#16364b" stroke="none">
<path d="M3085 5627 c-62 -62 -64 -129 -5 -232 74 -130 163 -223 330 -347 41
-31 84 -66 95 -78 l20 -22 -50 -45 c-46 -41 -213 -162 -362 -261 -34 -23 -83
-49 -110 -58 -152 -50 -285 -141 -323 -219 -27 -56 -24 -137 6 -177 41 -55 83
-73 166 -73 76 0 78 1 114 36 28 29 37 47 41 83 6 54 21 65 113 85 30 6 67 19
82 29 289 189 450 303 507 360 86 87 124 162 129 258 7 130 -40 195 -241 333
-148 100 -228 177 -277 265 -41 72 -77 96 -148 96 -48 0 -58 -4 -87 -33z"/>
<path d="M1209 5371 c-72 -23 -159 -80 -235 -156 -65 -64 -89 -97 -122 -165
-72 -148 -89 -287 -56 -448 21 -103 79 -220 123 -249 71 -48 171 -21 212 57
25 47 24 91 -6 175 -38 109 -28 232 28 327 34 58 112 130 176 163 30 15 60 39
71 58 25 40 26 107 3 154 -29 63 -127 105 -194 84z"/>
<path d="M1712 5273 c-71 -35 -103 -111 -82 -196 l12 -53 -42 -69 c-67 -109
-100 -190 -107 -259 -5 -54 -2 -71 19 -118 27 -58 57 -85 135 -121 44 -20 63
-22 218 -21 226 0 287 21 327 110 26 59 12 111 -40 154 -55 46 -95 53 -217 39
-58 -6 -108 -9 -111 -7 -3 3 24 61 59 129 92 178 108 281 54 360 -44 65 -150
89 -225 52z"/>
<path d="M4571 4658 c-58 -39 -76 -72 -76 -136 0 -91 34 -125 144 -147 l66
-13 -49 -1 c-160 -3 -224 -196 -88 -265 98 -49 349 -5 474 83 162 113 118 324
-86 420 -68 32 -205 68 -293 77 -50 5 -63 3 -92 -18z"/>
<path d="M1830 4270 c-154 -29 -379 -162 -425 -251 -53 -101 37 -239 155 -239
49 0 70 10 130 63 25 22 81 57 124 78 73 35 87 39 160 39 95 0 139 18 173 69
49 73 12 179 -80 227 -34 18 -174 26 -237 14z"/>
<path d="M2576 3744 c-95 -17 -219 -58 -264 -88 -45 -30 -76 -96 -70 -151 7
-59 39 -100 95 -121 45 -18 47 -18 152 10 59 15 138 28 176 29 l70 2 -3 -30
c-5 -62 -137 -292 -365 -638 -62 -96 -71 -114 -71 -155 1 -91 58 -152 148
-160 80 -6 103 16 238 228 262 411 348 605 348 782 0 161 -96 271 -260 297
-80 13 -95 13 -194 -5z"/>
<path d="M4013 3734 c-54 -19 -128 -85 -155 -137 -28 -56 -28 -146 -1 -207 88
-195 358 -275 520 -153 41 31 91 109 109 169 17 56 8 100 -29 143 -13 16 -27
47 -30 68 -9 56 -57 98 -133 117 -77 20 -224 20 -281 0z"/>
<path d="M1095 3561 c-66 -23 -104 -44 -198 -104 -95 -61 -130 -111 -130 -191
0 -75 41 -139 113 -176 32 -17 128 -17 158 -1 13 7 26 11 28 8 2 -2 -23 -69
-56 -148 -102 -242 -219 -610 -235 -742 -4 -31 -4 -73 -1 -93 10 -49 78 -116
142 -138 65 -23 174 -32 202 -17 11 6 92 93 178 193 87 101 161 185 164 188
13 11 200 232 260 307 36 45 69 82 74 82 14 1 -1 -175 -24 -287 -11 -54 -49
-202 -85 -328 -111 -392 -129 -525 -82 -595 60 -90 217 -93 281 -6 17 23 21
44 22 110 2 141 29 277 118 595 79 283 81 294 80 527 0 187 -3 218 -22 282
-35 115 -91 165 -184 165 -85 -1 -146 -38 -271 -165 -62 -62 -157 -166 -212
-230 -55 -65 -101 -114 -103 -109 -1 5 18 62 44 128 139 360 162 462 128 570
-23 74 -108 166 -170 183 -59 16 -162 13 -219 -8z"/>
<path d="M3583 3272 c-66 -23 -126 -65 -164 -113 -62 -79 -108 -221 -95 -293
23 -121 185 -170 281 -86 13 12 45 19 94 23 187 15 286 140 241 302 -38 134
-216 217 -357 167z"/>
<path d="M4715 3039 c-17 -4 -46 -25 -65 -44 -35 -36 -35 -37 -35 -128 0 -88
2 -96 43 -180 30 -64 42 -101 42 -134 0 -39 5 -51 38 -83 83 -83 221 -79 279
9 17 25 23 48 23 90 0 50 -7 68 -61 166 -40 72 -64 130 -71 168 -12 66 -45
112 -95 133 -36 16 -54 16 -98 3z"/>
<path d="M2890 2589 c-147 -39 -463 -184 -514 -235 -38 -38 -66 -100 -66 -147
0 -87 76 -166 170 -175 43 -4 61 1 157 48 146 70 307 125 311 105 5 -23 -66
-220 -124 -343 -29 -62 -56 -128 -60 -146 -15 -83 57 -192 143 -215 52 -14
123 0 174 35 71 49 186 288 233 485 67 277 51 417 -58 517 -62 57 -137 82
-244 81 -48 0 -103 -5 -122 -10z"/>
<path d="M4445 2306 c-45 -20 -92 -73 -110 -124 -9 -29 -15 -81 -15 -143 l0
-97 -52 14 c-174 47 -325 62 -426 40 -187 -39 -280 -153 -284 -347 -3 -133 14
-523 23 -556 44 -144 253 -171 372 -48 63 65 70 98 65 315 -2 104 -1 190 2
190 10 0 171 -56 212 -74 43 -18 148 -21 229 -6 163 31 278 159 310 343 15 90
7 287 -15 345 -37 100 -123 162 -225 162 -31 -1 -69 -7 -86 -14z"/>
<path d="M2153 1870 c-66 -15 -116 -68 -129 -137 -3 -17 5 -95 20 -175 14 -79
32 -195 41 -258 30 -216 83 -356 171 -450 57 -61 187 -149 297 -200 118 -55
204 -54 265 3 l23 22 62 -34 c208 -113 283 -137 382 -127 106 11 254 96 291
167 21 41 18 122 -6 169 -48 94 -155 120 -267 66 l-60 -28 -39 19 c-228 113
-391 238 -452 347 -41 71 -101 109 -175 109 -30 1 -65 -6 -84 -16 l-32 -17
-12 58 c-6 31 -21 122 -33 202 -13 80 -30 159 -39 176 -40 78 -140 124 -224
104z"/>
</g>
</svg>
