<?xml version="1.0" standalone="no"?>
<!DOCTYPE svg PUBLIC "-//W3C//DTD SVG 20010904//EN"
 "http://www.w3.org/TR/2001/REC-SVG-20010904/DTD/svg10.dtd">
<svg version="1.0" xmlns="http://www.w3.org/2000/svg"
 width="600.000000pt" height="600.000000pt" viewBox="0 0 600.000000 600.000000"
 preserveAspectRatio="xMidYMid meet">
<metadata>
Created by potrace 1.15, written by Peter Selinger 2001-2017
</metadata>
<g transform="translate(0.000000,600.000000) scale(0.100000,-0.100000)"
fill="#16364b" stroke="none">
<path d="M2089 5217 c-133 -50 -233 -180 -245 -319 -3 -34 2 -151 11 -258 14
-159 18 -351 21 -1033 3 -547 1 -844 -6 -856 -12 -23 -346 -167 -515 -222 -91
-30 -121 -36 -126 -27 -24 42 -38 53 -50 41 -10 -10 -10 -18 -1 -38 14 -30 12
-30 -38 -5 -72 36 -89 22 -44 -37 l25 -33 -34 0 c-40 0 -63 -20 -45 -38 7 -7
22 -12 34 -12 34 0 39 -18 10 -32 -25 -11 -34 -32 -18 -42 9 -5 146 24 268 58
117 32 280 91 414 149 l105 46 6 -242 c7 -245 16 -323 60 -492 84 -327 266
-513 569 -586 30 -7 56 -13 57 -13 0 -1 -3 -37 -7 -81 -14 -142 4 -257 82
-517 22 -75 38 -143 35 -151 -4 -10 -29 -16 -94 -19 -94 -6 -141 -22 -167 -60
-36 -51 -9 -118 59 -144 40 -15 55 -16 110 -5 123 22 211 78 246 156 27 59 24
88 -31 266 -69 222 -81 292 -78 424 l3 110 30 -3 c17 -1 84 -7 150 -13 66 -6
276 -11 466 -12 l345 -2 -9 -55 c-5 -30 -6 -113 -3 -185 5 -140 24 -230 75
-362 45 -115 49 -110 -74 -115 -96 -3 -107 -6 -130 -28 -53 -54 -33 -134 41
-165 47 -19 146 -19 213 0 68 21 135 84 150 143 13 48 10 63 -43 206 -53 140
-78 270 -79 396 0 135 13 187 51 194 46 9 171 25 287 37 61 6 136 19 167 29
169 52 282 192 345 427 24 91 26 114 27 313 1 210 0 217 -27 299 -62 185 -137
302 -278 435 l-92 86 159 0 c88 1 210 7 273 14 62 7 121 11 131 9 21 -6 170
61 170 76 0 5 -7 14 -16 19 -11 6 -13 11 -5 16 17 11 13 34 -8 41 -13 4 -17
12 -13 30 5 29 -10 32 -48 10 -35 -20 -48 -18 -52 8 -4 33 -30 27 -40 -9 -7
-28 -13 -32 -55 -37 -156 -20 -340 -29 -513 -25 l-196 4 -116 86 c-63 47 -145
111 -183 143 -125 106 -311 240 -515 371 -290 186 -384 279 -480 472 -63 128
-106 257 -160 476 -102 418 -134 501 -224 592 -75 74 -124 97 -221 101 -51 2
-93 -2 -116 -10z m163 -151 c43 -19 104 -85 129 -142 11 -24 28 -77 39 -118
10 -42 23 -84 28 -93 6 -10 28 -94 51 -188 110 -450 236 -700 445 -878 41 -34
165 -124 277 -199 112 -76 263 -182 334 -237 227 -175 479 -364 566 -426 46
-33 138 -114 205 -180 109 -107 126 -129 162 -205 73 -157 77 -175 77 -370 -1
-127 -6 -198 -18 -260 -44 -212 -159 -347 -309 -365 -23 -3 -189 -22 -368 -41
-325 -36 -325 -36 -645 -30 -176 3 -345 11 -375 16 -30 6 -98 15 -150 20 -306
33 -472 126 -569 317 -37 75 -76 206 -97 328 -24 142 -29 431 -10 628 13 139
16 308 16 971 0 752 -1 815 -22 1007 -25 238 -26 271 -9 322 16 48 66 106 106
123 40 18 95 17 137 0z"/>
<path d="M2642 2804 c-37 -25 -27 -76 19 -99 38 -20 46 -19 74 10 46 45 20
105 -45 105 -14 0 -36 -7 -48 -16z"/>
<path d="M3122 2714 c-42 -29 -18 -101 40 -120 17 -5 27 0 45 20 30 35 29 61
-2 91 -28 29 -51 31 -83 9z"/>
<path d="M2919 1824 c-19 -24 -6 -58 31 -77 28 -14 48 -16 100 -11 72 7 90 17
90 48 0 45 -14 51 -114 52 -69 1 -99 -2 -107 -12z"/>
<path d="M5262 3974 c-175 -47 -281 -224 -238 -396 29 -115 127 -221 229 -249
71 -19 185 -7 246 26 117 64 183 178 184 320 1 68 -3 87 -26 130 -35 67 -52
86 -114 129 -82 56 -174 69 -281 40z m123 -308 c19 -14 19 -15 1 -35 -24 -27
-42 -27 -56 0 -23 42 14 65 55 35z"/>
</g>
</svg>
