<?xml version="1.0" standalone="no"?>
<!DOCTYPE svg PUBLIC "-//W3C//DTD SVG 20010904//EN"
 "http://www.w3.org/TR/2001/REC-SVG-20010904/DTD/svg10.dtd">
<svg version="1.0" xmlns="http://www.w3.org/2000/svg"
 width="600.000000pt" height="600.000000pt" viewBox="0 0 600.000000 600.000000"
 preserveAspectRatio="xMidYMid meet">
<metadata>
Created by potrace 1.15, written by Peter Selinger 2001-2017
</metadata>
<g transform="translate(0.000000,600.000000) scale(0.100000,-0.100000)"
fill="#16364b" stroke="none">
<path d="M2193 5735 c-51 -22 -384 -306 -545 -465 -113 -112 -153 -158 -172
-200 -58 -124 -10 -249 111 -292 53 -18 237 -15 348 6 171 33 538 166 587 213
73 70 53 199 -40 251 -22 12 -53 22 -70 22 -17 0 -117 -29 -224 -65 -106 -36
-199 -64 -207 -63 -14 3 117 130 296 288 91 80 120 132 109 192 -19 100 -106
151 -193 113z"/>
<path d="M3095 5673 c-69 -18 -109 -81 -103 -160 7 -78 35 -103 167 -148 228
-79 330 -163 362 -301 10 -42 9 -60 -6 -109 -33 -116 -101 -184 -262 -261
-104 -50 -139 -85 -148 -149 -13 -82 54 -165 132 -165 47 0 190 61 283 121 91
58 209 177 244 247 41 81 58 156 57 255 -1 180 -52 299 -180 427 -67 66 -106
96 -176 132 -151 78 -313 126 -370 111z"/>
<path d="M984 5301 c-232 -117 -359 -309 -340 -514 13 -140 69 -251 184 -370
81 -83 106 -97 171 -97 39 0 56 6 81 26 39 34 60 74 60 118 0 54 -14 79 -80
145 -103 103 -134 205 -89 298 24 49 67 86 157 133 73 39 102 82 102 152 0 56
-29 102 -79 128 -56 28 -78 26 -167 -19z"/>
<path d="M4741 4892 c-45 -22 -71 -58 -84 -118 -23 -100 0 -265 53 -377 55
-116 158 -186 286 -195 131 -8 229 45 274 150 18 43 22 65 18 128 -10 176
-147 315 -396 404 -86 31 -106 32 -151 8z"/>
<path d="M2710 4853 c-87 -45 -193 -141 -238 -215 -67 -112 -73 -253 -15 -361
68 -124 243 -227 387 -227 119 0 190 110 140 216 -21 44 -59 70 -118 84 -102
23 -155 63 -140 106 16 42 66 92 130 129 81 48 112 79 120 122 16 86 -72 183
-166 183 -15 0 -60 -17 -100 -37z"/>
<path d="M1778 4361 c-120 -39 -282 -157 -308 -226 -26 -69 -1 -151 59 -190
82 -54 141 -46 220 29 31 30 71 61 90 71 45 23 110 21 159 -4 77 -39 153 -20
206 52 33 45 29 132 -7 180 -70 92 -273 134 -419 88z"/>
<path d="M2493 3806 c-96 -18 -133 -41 -161 -98 -31 -61 -23 -109 27 -160 52
-51 102 -63 194 -44 71 14 150 21 216 18 33 -2 33 -2 26 -39 -14 -80 -177
-351 -301 -503 -29 -36 -89 -105 -134 -154 -87 -96 -95 -113 -87 -182 10 -96
114 -151 210 -111 91 39 436 484 558 723 135 261 89 476 -114 540 -71 23 -335
28 -434 10z"/>
<path d="M4115 3769 c-79 -25 -133 -64 -172 -123 -43 -63 -57 -117 -49 -191
12 -120 98 -240 204 -286 59 -26 165 -25 234 1 108 41 219 153 292 296 29 58
36 82 36 130 0 72 -23 121 -71 149 -78 45 -363 60 -474 24z m135 -304 c-13
-16 -60 -21 -60 -6 0 12 18 19 49 20 20 1 21 -1 11 -14z"/>
<path d="M1155 3695 c-76 -14 -189 -59 -264 -105 -94 -58 -124 -177 -68 -273
44 -74 148 -115 223 -87 15 6 29 8 31 6 3 -3 -47 -112 -110 -243 -120 -248
-172 -385 -213 -563 -37 -161 -31 -222 30 -288 32 -36 71 -52 140 -59 113 -10
150 20 516 412 107 115 223 238 258 274 l62 66 -6 -55 c-7 -66 -88 -473 -115
-583 -11 -43 -51 -166 -89 -274 -39 -108 -70 -211 -70 -232 1 -86 64 -159 144
-168 81 -10 131 36 161 147 10 36 47 136 81 222 87 216 107 290 162 603 42
239 47 287 47 415 0 165 -9 202 -63 262 -51 57 -105 82 -173 82 -107 -1 -181
-56 -374 -279 -64 -75 -119 -134 -122 -131 -2 2 12 43 31 90 111 266 166 438
166 514 0 111 -79 215 -186 245 -70 20 -103 20 -199 2z"/>
<path d="M3530 3343 c-102 -44 -176 -133 -216 -260 -37 -116 -40 -170 -12
-222 36 -67 74 -84 178 -77 303 20 484 194 414 398 -21 63 -78 126 -138 154
-60 28 -170 32 -226 7z"/>
<path d="M4799 2725 c-110 -30 -191 -93 -240 -187 -18 -33 -23 -59 -23 -110 0
-38 -1 -68 -3 -68 -2 0 -21 9 -43 20 -117 60 -286 -17 -327 -148 -16 -51 -16
-57 4 -160 12 -59 20 -108 18 -111 -2 -2 -44 10 -92 27 -231 79 -373 67 -481
-40 -83 -81 -108 -183 -92 -364 23 -242 52 -428 77 -476 68 -138 295 -156 389
-32 36 47 42 119 21 257 -26 170 -28 197 -14 197 7 0 52 -20 100 -45 103 -53
147 -57 269 -24 94 26 185 82 228 140 85 118 103 374 40 588 -5 19 -8 37 -5
39 2 2 19 -8 38 -22 47 -36 110 -56 179 -56 139 0 220 98 248 298 17 128 -19
241 -90 277 -35 18 -136 18 -201 0z"/>
<path d="M2909 2436 c-83 -18 -313 -103 -444 -165 -110 -52 -157 -95 -174
-158 -14 -50 -13 -90 3 -136 18 -48 41 -74 88 -98 59 -30 112 -25 209 22 180
88 376 165 388 154 13 -13 -106 -302 -189 -461 -49 -92 -52 -145 -15 -220 29
-58 87 -100 151 -110 102 -15 155 22 224 156 97 189 230 595 230 701 0 177
-143 318 -328 325 -42 2 -107 -3 -143 -10z"/>
<path d="M2086 1885 c-87 -36 -134 -86 -150 -162 -18 -81 47 -179 137 -209 29
-9 53 -17 54 -18 5 -4 63 -228 63 -243 0 -8 -18 -35 -39 -58 -71 -77 -86 -117
-86 -225 0 -88 3 -100 33 -160 40 -79 117 -175 237 -296 84 -83 102 -96 226
-158 250 -124 412 -128 636 -16 118 60 153 99 161 179 8 88 -30 159 -102 192
-64 29 -117 24 -210 -18 -57 -26 -99 -38 -143 -41 -58 -4 -70 -1 -153 38 -49
24 -90 46 -90 50 0 3 25 17 55 29 63 26 109 74 124 128 15 53 14 68 -10 123
-17 39 -36 60 -90 99 -118 87 -145 135 -225 409 -69 236 -124 328 -220 368
-52 22 -140 17 -208 -11z"/>
</g>
</svg>
