<?xml version="1.0" standalone="no"?>
<!DOCTYPE svg PUBLIC "-//W3C//DTD SVG 20010904//EN"
 "http://www.w3.org/TR/2001/REC-SVG-20010904/DTD/svg10.dtd">
<svg version="1.0" xmlns="http://www.w3.org/2000/svg"
 width="600.000000pt" height="600.000000pt" viewBox="0 0 600.000000 600.000000"
 preserveAspectRatio="xMidYMid meet">
<metadata>
Created by potrace 1.15, written by Peter Selinger 2001-2017
</metadata>
<g transform="translate(0.000000,600.000000) scale(0.100000,-0.100000)"
fill="#16364b" stroke="none">
<path d="M2234 5840 c-35 -14 -197 -141 -317 -247 -161 -144 -356 -349 -396
-417 -71 -118 -46 -243 60 -296 102 -53 392 7 832 171 174 65 211 89 227 149
26 96 -65 210 -167 210 -17 0 -117 -29 -223 -66 -106 -36 -194 -63 -197 -61
-5 6 95 93 255 222 153 122 176 167 133 261 -25 55 -74 84 -137 83 -27 0 -58
-4 -70 -9z"/>
<path d="M3060 5668 c-50 -34 -72 -71 -77 -125 -8 -92 41 -146 147 -164 172
-28 320 -104 373 -191 38 -62 47 -150 22 -233 -14 -49 -28 -70 -80 -121 -52
-51 -88 -75 -199 -129 -147 -72 -165 -89 -173 -159 -10 -89 49 -156 144 -164
50 -4 63 0 176 56 241 121 380 271 431 469 20 78 20 208 0 287 -18 71 -71 175
-115 229 -81 99 -259 196 -438 241 -128 32 -168 33 -211 4z"/>
<path d="M959 5341 c-224 -72 -397 -326 -359 -528 21 -114 96 -237 217 -355
92 -90 136 -118 186 -118 80 0 151 79 151 170 0 61 -18 91 -88 147 -33 26 -74
70 -93 96 -87 128 -55 221 102 293 84 38 115 69 122 121 15 111 -123 211 -238
174z"/>
<path d="M2718 4956 c-111 -40 -241 -153 -290 -254 -31 -62 -33 -74 -33 -167
0 -93 2 -105 33 -167 57 -116 173 -204 320 -243 123 -31 197 -11 235 67 21 42
16 88 -13 136 -25 41 -57 60 -127 79 -142 37 -194 106 -143 190 18 31 43 51
130 106 19 12 45 38 57 56 45 67 19 167 -52 197 -42 17 -69 17 -117 0z"/>
<path d="M4774 4927 c-70 -48 -94 -95 -94 -183 0 -256 107 -475 260 -529 128
-45 270 26 341 171 29 59 31 70 27 139 -10 154 -123 301 -299 389 -117 59
-164 62 -235 13z"/>
<path d="M1885 4444 c-121 -31 -235 -95 -308 -173 -72 -77 -84 -129 -47 -200
53 -104 211 -112 275 -15 9 14 37 38 63 55 59 37 104 38 157 2 32 -22 51 -28
96 -28 71 0 119 33 144 100 35 91 -5 166 -119 224 -59 31 -77 35 -154 37 -48
2 -96 1 -107 -2z"/>
<path d="M2617 3846 c-32 -7 -70 -21 -85 -32 -32 -24 -72 -98 -72 -134 1 -43
37 -108 72 -130 30 -19 43 -20 149 -14 134 8 136 7 114 -74 -31 -120 -173
-337 -322 -492 -94 -99 -113 -129 -113 -181 0 -87 95 -160 187 -143 30 5 55
24 123 93 178 180 353 424 409 571 61 156 62 266 4 372 -77 141 -265 207 -466
164z"/>
<path d="M4191 3775 c-175 -40 -281 -151 -281 -295 0 -126 92 -269 204 -315
85 -36 226 -9 329 62 101 70 247 309 247 404 0 58 -28 103 -82 130 -37 19 -62
22 -198 25 -111 3 -173 0 -219 -11z m74 -304 c-24 -24 -56 -31 -62 -13 -5 13
29 30 62 31 19 1 19 1 0 -18z"/>
<path d="M1150 3754 c-107 -21 -260 -81 -298 -117 -96 -89 -86 -255 20 -324
33 -22 53 -28 97 -28 31 0 66 4 79 8 27 10 28 11 -58 -168 -174 -363 -238
-518 -275 -662 -29 -111 -30 -135 -10 -194 30 -85 107 -139 197 -139 29 1 65
6 80 13 41 19 500 461 628 606 63 71 118 130 123 130 11 1 9 -55 -9 -191 -26
-211 -58 -316 -240 -781 -59 -150 -63 -181 -35 -243 51 -112 208 -116 269 -7
12 22 53 125 91 229 140 386 174 510 206 764 9 69 21 141 27 160 7 20 12 104
12 195 1 147 -1 163 -21 202 -61 113 -196 130 -334 42 -34 -22 -130 -107 -214
-190 -83 -82 -155 -149 -158 -149 -4 0 27 68 68 151 42 83 89 190 105 239 67
198 20 356 -126 430 -48 23 -162 36 -224 24z"/>
<path d="M3525 3393 c-108 -39 -183 -129 -228 -275 -47 -153 -45 -218 11 -272
50 -47 106 -57 216 -41 169 25 271 87 326 197 87 174 -29 381 -225 403 -35 4
-65 0 -100 -12z"/>
<path d="M4853 2789 c-38 -11 -105 -83 -178 -194 -62 -93 -91 -154 -115 -240
l-17 -60 -16 31 c-43 83 -158 136 -252 115 -93 -21 -157 -95 -170 -197 -5 -36
0 -74 19 -148 15 -55 24 -101 21 -104 -3 -3 -39 5 -80 17 -218 63 -370 45
-467 -56 -88 -91 -105 -208 -68 -459 12 -82 28 -192 35 -244 15 -110 23 -134
60 -179 56 -66 159 -90 239 -57 47 19 114 82 137 128 29 57 32 110 15 252 -9
71 -15 131 -12 133 2 2 26 -7 52 -21 120 -62 140 -70 189 -70 107 -1 224 56
276 134 64 95 93 289 71 465 -6 44 -9 81 -7 84 2 2 18 -8 35 -22 114 -96 365
13 455 196 53 110 72 259 41 330 -20 45 -128 146 -173 163 -44 15 -47 15 -90
3z"/>
<path d="M2950 2374 c-14 -3 -74 -21 -135 -41 -95 -31 -211 -86 -443 -209 -54
-28 -102 -83 -102 -116 0 -16 -10 -18 -72 -18 -85 0 -146 -25 -217 -86 -104
-90 -108 -233 -8 -321 34 -30 127 -60 147 -48 10 6 12 0 39 -115 11 -47 22
-92 26 -101 4 -11 -8 -21 -48 -37 -151 -63 -230 -210 -230 -427 0 -121 19
-180 90 -287 94 -141 215 -242 387 -323 149 -71 186 -80 316 -79 97 0 128 4
196 27 123 41 282 126 317 169 80 99 22 264 -104 298 -55 15 -75 10 -196 -52
-133 -67 -188 -73 -301 -33 -144 52 -274 161 -323 271 -19 43 -16 84 8 84 21
0 65 -25 88 -50 11 -12 40 -34 64 -48 38 -22 55 -26 120 -25 143 3 231 77 231
196 0 68 -22 107 -96 173 -102 89 -130 151 -184 396 -17 79 -33 150 -36 159
-3 12 3 19 21 23 15 4 70 32 123 63 124 72 311 163 336 163 16 0 17 -5 12 -37
-15 -86 -72 -237 -143 -381 -41 -84 -77 -170 -80 -191 -10 -77 37 -158 112
-192 54 -25 100 -23 162 6 62 28 92 70 189 265 71 141 121 279 154 422 53 232
-4 405 -159 479 -35 17 -68 23 -141 25 -52 1 -106 0 -120 -2z"/>
</g>
</svg>
