<?xml version="1.0" standalone="no"?>
<!DOCTYPE svg PUBLIC "-//W3C//DTD SVG 20010904//EN"
 "http://www.w3.org/TR/2001/REC-SVG-20010904/DTD/svg10.dtd">
<svg version="1.0" xmlns="http://www.w3.org/2000/svg"
 width="600.000000pt" height="600.000000pt" viewBox="0 0 600.000000 600.000000"
 preserveAspectRatio="xMidYMid meet">
<metadata>
Created by potrace 1.15, written by Peter Selinger 2001-2017
</metadata>
<g transform="translate(0.000000,600.000000) scale(0.100000,-0.100000)"
fill="#16364b" stroke="none">
<path d="M1850 5803 c-50 -19 -73 -51 -156 -221 -189 -390 -226 -550 -153
-668 29 -48 98 -78 159 -71 144 17 352 167 617 443 82 85 94 178 31 250 -55
63 -154 63 -220 1 -123 -118 -159 -150 -163 -145 -3 2 16 51 42 109 70 158 64
224 -27 287 -32 21 -93 29 -130 15z"/>
<path d="M3030 5708 c-43 -12 -78 -43 -96 -85 -38 -88 -5 -139 163 -250 333
-223 503 -394 503 -509 0 -39 -16 -53 -67 -60 -124 -17 -188 -107 -149 -209
31 -80 97 -107 208 -85 120 23 205 89 257 199 23 50 26 68 26 166 0 121 -12
165 -71 265 -75 124 -348 365 -574 504 -111 69 -145 80 -200 64z"/>
<path d="M900 5407 c-211 -72 -330 -229 -330 -434 0 -163 108 -345 247 -417
115 -59 243 47 218 182 -5 28 -22 52 -69 97 -93 90 -109 165 -50 235 35 41 55
50 131 61 83 12 118 33 144 87 36 74 9 161 -61 197 -44 22 -153 19 -230 -8z"/>
<path d="M2943 5149 c-65 -12 -108 -36 -153 -86 -118 -127 -128 -306 -23 -405
53 -51 118 -72 218 -71 146 1 239 49 260 134 10 41 -11 198 -36 263 -44 120
-153 187 -266 165z"/>
<path d="M4792 4869 c-34 -13 -74 -46 -94 -77 -14 -21 -18 -48 -18 -115 0
-311 165 -550 379 -550 76 0 122 17 175 63 75 66 100 159 72 268 -42 164 -155
293 -335 384 -78 39 -130 47 -179 27z"/>
<path d="M1941 4765 c-87 -30 -126 -56 -146 -95 -36 -69 -4 -148 75 -187 52
-27 99 -29 157 -7 54 21 70 10 79 -54 16 -115 95 -178 189 -152 49 14 100 62
111 106 10 41 -3 146 -26 205 -32 80 -91 153 -147 180 -73 36 -194 38 -292 4z"/>
<path d="M1185 4039 c-107 -16 -217 -48 -251 -74 -48 -37 -74 -93 -74 -158 0
-44 5 -62 31 -96 38 -53 103 -84 165 -79 24 2 44 0 44 -4 0 -4 -40 -60 -88
-125 -160 -213 -327 -479 -411 -653 -66 -137 -77 -209 -43 -276 39 -76 108
-118 192 -118 64 1 107 20 147 67 15 18 96 81 178 140 83 59 211 159 285 223
144 125 325 264 342 264 7 0 9 -27 6 -77 -7 -105 -59 -258 -192 -557 -58 -131
-106 -239 -106 -241 0 -14 -107 -191 -162 -268 -54 -75 -72 -108 -75 -141 -11
-90 34 -155 110 -163 68 -8 109 11 172 78 108 117 169 222 295 504 174 390
208 477 251 660 16 68 22 125 23 235 1 140 0 147 -27 203 -81 165 -280 152
-572 -36 -38 -25 -71 -44 -73 -42 -2 2 33 51 79 108 146 182 188 276 176 393
-6 59 -24 99 -69 149 -69 80 -188 108 -353 84z"/>
<path d="M2903 4039 c-103 -20 -179 -78 -208 -158 -68 -195 113 -348 445 -376
99 -8 312 10 351 31 32 16 79 70 79 90 0 8 9 32 20 54 26 51 26 125 0 167 -40
66 -273 156 -487 188 -107 16 -137 17 -200 4z"/>
<path d="M4178 3762 c-121 -33 -214 -115 -249 -220 -16 -50 -6 -159 20 -209
66 -131 189 -195 328 -173 172 28 307 164 372 374 26 84 17 129 -34 180 -42
43 -100 57 -255 62 -89 3 -130 0 -182 -14z m77 -292 c-19 -21 -55 -27 -55 -10
0 11 35 28 59 29 11 1 10 -4 -4 -19z"/>
<path d="M3422 3407 c-49 -15 -117 -98 -169 -206 -73 -148 -68 -228 18 -280
48 -29 168 -38 223 -17 54 21 130 99 158 164 26 57 35 166 18 216 -34 104
-142 157 -248 123z"/>
<path d="M5011 3104 c-49 -21 -167 -120 -214 -178 -76 -97 -92 -140 -92 -246
0 -86 3 -99 28 -143 15 -26 47 -60 69 -75 37 -24 51 -27 122 -27 67 1 90 5
137 28 62 30 129 91 164 152 57 96 69 243 28 336 -27 60 -113 145 -161 158
-45 13 -40 13 -81 -5z"/>
<path d="M3924 2612 c-94 -33 -150 -99 -161 -189 -4 -38 3 -77 36 -188 23 -77
41 -143 41 -147 0 -3 -24 3 -52 14 -73 29 -159 28 -221 -2 -103 -49 -176 -174
-178 -304 l0 -61 -19 60 c-45 143 -166 216 -358 216 -137 1 -282 -55 -474
-182 -50 -33 -92 -58 -93 -57 -2 2 -12 40 -23 85 -25 100 -81 222 -126 277
-73 89 -195 125 -311 91 -87 -25 -163 -105 -238 -253 -57 -113 -67 -154 -48
-204 8 -20 1 -33 -41 -83 -72 -87 -136 -195 -166 -277 -23 -65 -26 -88 -26
-203 1 -106 5 -150 27 -235 73 -300 167 -431 403 -565 220 -125 468 -165 684
-109 234 60 468 253 486 402 4 28 31 98 70 177 110 224 220 558 248 755 7 52
14 82 15 65 3 -76 127 -457 175 -540 44 -74 126 -124 207 -125 56 0 133 44
168 97 17 25 34 61 37 80 6 34 1 106 -12 150 -6 23 -6 23 32 7 167 -70 434
133 434 330 0 58 -28 157 -88 311 -27 72 -64 184 -82 250 -65 246 -72 264
-105 298 -66 68 -155 90 -241 59z m-1849 -1027 c17 -138 38 -232 60 -276 21
-40 80 -87 124 -99 77 -20 179 25 217 96 14 25 56 59 155 124 133 88 281 171
328 185 23 7 24 6 18 -31 -16 -99 -95 -308 -179 -473 -60 -119 -88 -185 -88
-209 0 -69 -108 -176 -220 -218 -66 -25 -210 -25 -275 0 -145 56 -276 169
-314 271 -31 82 -44 208 -31 293 13 80 55 175 102 228 18 22 40 47 47 57 20
25 30 92 21 134 -9 38 -3 70 11 56 4 -4 15 -66 24 -138z"/>
</g>
</svg>
