<?xml version="1.0" standalone="no"?>
<!DOCTYPE svg PUBLIC "-//W3C//DTD SVG 20010904//EN"
 "http://www.w3.org/TR/2001/REC-SVG-20010904/DTD/svg10.dtd">
<svg version="1.0" xmlns="http://www.w3.org/2000/svg"
 width="600.000000pt" height="600.000000pt" viewBox="0 0 600.000000 600.000000"
 preserveAspectRatio="xMidYMid meet">
<metadata>
Created by potrace 1.15, written by Peter Selinger 2001-2017
</metadata>
<g transform="translate(0.000000,600.000000) scale(0.100000,-0.100000)"
fill="#16364b" stroke="none">
<path d="M2402 5392 c-16 -16 -20 -42 -25 -148 -13 -247 -74 -495 -152 -608
-38 -56 -79 -90 -197 -161 -45 -28 -51 -76 -12 -101 26 -18 28 -17 110 25 150
77 254 219 304 416 33 128 61 311 67 436 6 109 5 117 -16 138 -26 26 -55 27
-79 3z"/>
<path d="M3519 5258 c-24 -40 -20 -80 16 -155 53 -106 179 -204 243 -188 98
24 76 148 -50 289 -59 67 -92 86 -148 86 -35 0 -43 -4 -61 -32z"/>
<path d="M3035 5088 c-108 -38 -185 -153 -185 -274 0 -208 218 -167 334 63 45
90 30 175 -38 207 -39 18 -67 19 -111 4z m55 -131 c0 -38 -93 -155 -123 -157
-11 0 1 57 21 95 18 36 69 85 88 85 8 0 14 -10 14 -23z"/>
<path d="M4745 4735 c-24 -23 -25 -30 -25 -152 0 -316 38 -501 110 -538 126
-65 208 71 180 300 -19 154 -107 377 -160 405 -33 18 -79 12 -105 -15z"/>
<path d="M2652 4213 c-39 -19 -62 -59 -62 -108 0 -81 66 -140 203 -180 73 -21
209 -22 281 -1 91 27 128 91 89 156 -20 35 -30 40 -163 84 -198 67 -287 79
-348 49z"/>
<path d="M5308 3974 c-126 -30 -218 -98 -268 -196 -37 -75 -41 -170 -11 -240
26 -60 99 -138 163 -173 47 -27 62 -30 138 -30 76 0 93 4 152 33 131 64 208
183 208 322 0 126 -50 216 -149 269 -67 35 -133 40 -233 15z m86 -303 c19 -7
19 -8 -2 -29 -37 -37 -72 -25 -72 24 0 15 41 18 74 5z"/>
<path d="M4173 3752 c-148 -53 -231 -174 -221 -322 11 -151 125 -250 287 -250
72 0 115 12 173 49 59 38 104 99 125 170 14 48 14 67 4 141 -16 107 -37 137
-134 185 -92 45 -161 53 -234 27z m97 -270 c0 -10 -5 -23 -12 -30 -17 -17 -48
-15 -48 2 0 14 36 46 52 46 5 0 8 -8 8 -18z"/>
<path d="M1263 3706 c-143 -47 -222 -145 -223 -277 0 -52 6 -76 26 -115 50
-95 143 -171 264 -215 80 -29 141 -87 192 -185 52 -98 81 -195 127 -416 154
-745 229 -979 358 -1128 45 -50 140 -122 186 -139 20 -8 25 -19 30 -56 6 -55
30 -92 78 -120 30 -18 52 -20 179 -20 80 0 217 4 305 9 182 10 197 7 265 -65
40 -42 56 -47 99 -25 48 25 63 83 36 136 -9 17 -14 30 -13 30 2 1 161 5 354
10 620 16 864 61 1141 211 252 137 406 305 484 532 70 205 63 398 -22 570
-101 205 -268 363 -444 422 -63 21 -98 27 -170 27 -158 -1 -279 -50 -439 -179
-229 -184 -546 -298 -760 -274 -149 17 -261 52 -406 127 -182 93 -344 240
-586 529 -298 356 -470 492 -740 581 -127 42 -250 53 -321 30z m246 -295 c55
-21 139 -64 187 -96 105 -70 284 -245 420 -410 219 -266 508 -507 737 -615
266 -125 483 -154 722 -96 131 32 322 101 460 167 99 48 142 75 248 157 73 57
153 85 244 85 61 0 82 -4 137 -32 83 -41 153 -118 209 -230 40 -80 42 -89 45
-192 5 -119 -5 -163 -62 -279 -21 -44 -56 -91 -111 -146 -69 -71 -94 -88 -186
-132 -274 -132 -450 -161 -1094 -183 -269 -9 -384 -9 -495 0 -80 7 -215 16
-300 21 -348 22 -469 79 -555 263 -53 111 -83 231 -126 497 -92 564 -138 718
-276 930 -88 134 -177 204 -327 256 -48 17 -86 45 -86 64 0 6 25 10 55 10 39
0 82 -11 154 -39z"/>
<path d="M2297 2382 c-25 -27 -22 -69 7 -87 55 -36 131 14 110 72 -8 24 -15
28 -55 31 -34 2 -49 -2 -62 -16z"/>
<path d="M2860 2067 c-37 -19 -39 -68 -4 -96 33 -26 46 -26 72 -3 34 29 37 58
8 87 -28 28 -40 30 -76 12z"/>
<path d="M3429 3338 c-44 -60 -139 -265 -139 -299 0 -41 40 -66 78 -50 39 17
96 92 147 195 66 129 58 196 -23 196 -26 0 -38 -8 -63 -42z"/>
<path d="M472 2024 c-15 -10 -22 -25 -22 -49 0 -28 10 -43 69 -97 77 -71 166
-124 227 -133 31 -5 45 -2 67 15 57 45 27 95 -99 170 -171 101 -210 116 -242
94z"/>
<path d="M5389 1112 c-45 -4 -72 -31 -93 -95 -30 -91 -15 -191 33 -217 50 -26
115 1 146 60 8 15 19 57 25 93 18 117 -17 168 -111 159z"/>
</g>
</svg>
