<?xml version="1.0" standalone="no"?>
<!DOCTYPE svg PUBLIC "-//W3C//DTD SVG 20010904//EN"
 "http://www.w3.org/TR/2001/REC-SVG-20010904/DTD/svg10.dtd">
<svg version="1.0" xmlns="http://www.w3.org/2000/svg"
 width="600.000000pt" height="600.000000pt" viewBox="0 0 600.000000 600.000000"
 preserveAspectRatio="xMidYMid meet">
<metadata>
Created by potrace 1.15, written by Peter Selinger 2001-2017
</metadata>
<g transform="translate(0.000000,600.000000) scale(0.100000,-0.100000)"
fill="#16364b" stroke="none">
<path d="M3093 5650 c-56 -34 -82 -95 -69 -165 9 -48 89 -125 298 -287 163
-126 248 -207 248 -234 0 -25 -69 -80 -233 -187 -155 -101 -167 -107 -203
-102 -44 7 -119 -18 -270 -90 -154 -74 -234 -166 -234 -268 0 -115 81 -194
217 -212 104 -14 182 54 170 149 -3 23 -8 49 -12 58 -11 27 32 40 69 21 19
-10 46 -14 76 -11 39 4 77 26 260 148 227 151 284 193 338 250 80 84 113 184
93 282 -25 120 -123 240 -336 410 -66 52 -151 128 -190 168 -38 40 -80 76 -93
81 -39 15 -95 10 -129 -11z"/>
<path d="M1816 5370 c-61 -19 -106 -83 -106 -152 0 -38 -10 -57 -86 -163 -99
-139 -112 -162 -130 -230 -27 -101 -11 -168 57 -237 87 -87 219 -99 484 -43
162 34 179 41 215 81 80 92 -5 245 -138 248 -26 0 -97 -10 -159 -24 -62 -13
-115 -21 -119 -17 -4 4 24 53 63 109 105 154 117 181 118 263 0 58 -4 75 -23
101 -42 56 -116 83 -176 64z"/>
<path d="M1190 5357 c-61 -22 -149 -87 -240 -176 -97 -96 -163 -189 -185 -265
-20 -65 -19 -203 1 -285 19 -77 74 -201 110 -248 85 -111 258 -68 281 71 5 29
-2 52 -38 123 -42 83 -44 92 -44 173 0 67 5 93 22 125 31 60 90 119 168 173
38 26 80 62 92 81 76 113 -42 273 -167 228z"/>
<path d="M4593 4701 c-82 -52 -86 -186 -7 -246 18 -14 18 -15 -8 -37 -37 -31
-61 -92 -53 -135 25 -136 302 -213 481 -134 109 48 157 115 158 216 0 100 -63
193 -175 258 -64 37 -224 87 -299 93 -54 4 -70 2 -97 -15z"/>
<path d="M1860 4295 c-125 -26 -229 -75 -336 -158 -85 -67 -108 -108 -102
-179 9 -88 75 -148 163 -148 50 0 55 3 125 65 104 94 161 119 285 125 110 6
132 14 170 64 20 26 25 44 25 89 0 51 -4 61 -36 96 -53 60 -151 75 -294 46z"/>
<path d="M2625 3755 c-103 -20 -290 -80 -323 -104 -80 -57 -81 -185 -2 -241
46 -33 111 -36 211 -11 46 12 117 24 157 28 84 7 84 7 50 -84 -31 -86 -67
-146 -224 -378 -169 -250 -194 -295 -194 -347 0 -143 168 -210 267 -106 27 29
151 201 260 363 51 75 127 236 169 360 33 98 37 122 38 215 1 99 -1 108 -29
158 -69 126 -210 181 -380 147z"/>
<path d="M4040 3751 c-127 -41 -191 -125 -191 -249 0 -145 126 -296 283 -338
69 -18 114 -18 172 2 110 38 235 209 224 308 -3 24 -14 57 -25 73 -11 15 -25
47 -31 69 -19 64 -62 100 -146 120 -79 19 -247 28 -286 15z"/>
<path d="M1115 3576 c-67 -22 -272 -121 -306 -148 -54 -43 -76 -146 -45 -207
32 -60 114 -111 182 -111 11 0 42 6 68 14 34 10 46 11 43 3 -59 -144 -181
-462 -200 -522 -60 -191 -91 -409 -67 -479 28 -87 101 -135 218 -143 l75 -6
95 99 c52 54 171 187 265 294 178 202 326 362 341 369 19 8 -64 -416 -136
-689 -84 -321 -94 -414 -55 -490 29 -58 93 -94 151 -85 84 13 128 75 140 195
3 36 22 124 42 195 83 306 164 637 174 718 7 49 10 162 8 255 -3 165 -3 168
-35 233 -45 90 -93 124 -177 124 -40 0 -75 -7 -101 -19 -46 -23 -191 -165
-349 -344 -60 -68 -110 -121 -112 -119 -3 2 5 26 17 53 11 27 41 103 65 168
116 310 123 463 27 576 -76 88 -190 111 -328 66z"/>
<path d="M3552 3289 c-67 -26 -146 -103 -178 -173 -33 -73 -59 -194 -50 -240
9 -47 57 -101 103 -117 50 -16 117 -6 156 24 21 16 58 30 98 37 84 14 181 62
218 107 74 90 61 210 -34 305 -54 54 -99 72 -185 75 -57 2 -87 -2 -128 -18z"/>
<path d="M4724 2962 c-63 -40 -104 -126 -104 -217 0 -133 111 -344 204 -386
53 -24 88 -24 136 1 57 29 85 74 84 135 0 53 -33 130 -65 153 -31 22 -43 78
-29 137 17 71 7 114 -35 155 -31 30 -42 34 -98 38 -48 2 -69 -1 -93 -16z"/>
<path d="M2897 2554 c-156 -34 -484 -180 -534 -237 -82 -93 -60 -217 47 -277
71 -39 131 -33 265 28 134 60 305 125 313 118 13 -14 -51 -160 -165 -376 -68
-128 -79 -170 -62 -232 15 -58 43 -95 89 -118 74 -38 168 -20 231 44 28 28
151 284 218 452 57 145 75 217 75 314 0 138 -49 222 -159 271 -64 29 -218 36
-318 13z"/>
<path d="M4415 2324 c-45 -24 -74 -54 -98 -99 -20 -35 -22 -54 -20 -162 l2
-121 -108 38 c-221 79 -336 86 -451 29 -100 -51 -170 -147 -192 -267 -9 -48
-8 -86 6 -193 9 -74 20 -186 22 -249 7 -141 23 -195 72 -243 48 -46 98 -67
164 -67 127 1 228 105 228 236 0 22 -7 97 -15 168 -8 71 -13 131 -10 134 5 5
102 -20 190 -50 50 -17 74 -19 148 -14 145 11 242 59 312 153 55 76 75 154 75
297 -1 295 -67 416 -229 423 -47 2 -75 -1 -96 -13z"/>
<path d="M2148 1880 c-116 -36 -170 -139 -135 -257 9 -29 28 -117 42 -195 44
-234 120 -441 196 -532 41 -48 162 -139 284 -212 79 -47 102 -56 162 -62 56
-6 84 -16 141 -50 138 -82 228 -112 340 -112 155 0 346 90 392 185 82 169 -98
349 -260 261 -120 -66 -124 -67 -168 -52 -79 28 -239 117 -290 162 -37 32 -63
67 -88 119 -37 75 -98 146 -149 173 -16 8 -55 16 -86 16 l-56 1 -16 70 c-9 38
-23 113 -32 165 -31 191 -66 264 -146 305 -36 19 -98 26 -131 15z"/>
</g>
</svg>
