<?xml version="1.0" standalone="no"?>
<!DOCTYPE svg PUBLIC "-//W3C//DTD SVG 20010904//EN"
 "http://www.w3.org/TR/2001/REC-SVG-20010904/DTD/svg10.dtd">
<svg version="1.0" xmlns="http://www.w3.org/2000/svg"
 width="600.000000pt" height="600.000000pt" viewBox="0 0 600.000000 600.000000"
 preserveAspectRatio="xMidYMid meet">
<metadata>
Created by potrace 1.15, written by Peter Selinger 2001-2017
</metadata>
<g transform="translate(0.000000,600.000000) scale(0.100000,-0.100000)"
fill="#16364b" stroke="none">
<path d="M2320 5449 c-44 -28 -54 -40 -90 -118 -66 -142 -76 -225 -35 -308 60
-119 206 -154 439 -104 54 11 104 21 112 21 8 0 -25 -54 -74 -122 -180 -251
-220 -317 -288 -476 -46 -107 -56 -172 -33 -214 7 -12 12 -49 13 -82 2 -119
84 -169 221 -136 176 42 606 110 698 110 128 0 197 79 167 189 -11 43 -64 97
-106 107 -35 9 -230 -11 -457 -47 -103 -16 -192 -29 -198 -29 -22 0 155 317
279 500 107 159 123 191 129 262 8 78 -15 134 -76 191 -92 86 -182 95 -401 38
-63 -17 -116 -28 -118 -26 -2 2 4 24 13 49 40 105 -12 204 -112 213 -37 3 -56
-1 -83 -18z"/>
<path d="M1741 4995 c-121 -27 -275 -114 -482 -271 -108 -81 -129 -111 -129
-177 0 -42 11 -65 70 -144 28 -37 65 -52 190 -77 258 -52 372 -96 452 -174 44
-42 52 -46 107 -50 48 -3 66 0 93 16 46 29 78 88 78 146 0 61 -15 89 -89 159
-76 73 -173 120 -308 148 -77 17 -100 25 -93 34 18 22 133 73 207 93 85 23
117 42 143 85 44 71 32 142 -33 191 -45 34 -116 41 -206 21z"/>
<path d="M3935 4965 c-132 -35 -276 -110 -306 -158 -54 -89 11 -211 124 -232
33 -6 51 -1 142 45 69 35 120 54 153 58 49 4 50 4 57 -27 17 -79 -28 -267
-101 -419 -25 -52 -48 -109 -50 -126 -8 -49 32 -116 85 -142 34 -17 47 -30 57
-60 7 -22 28 -51 46 -66 41 -36 84 -36 215 -3 173 43 327 58 363 35 31 -19 12
-144 -62 -418 -37 -138 -40 -157 -29 -192 26 -86 100 -132 179 -111 68 19 90
53 139 223 93 319 113 468 78 585 -20 68 -88 143 -157 174 -48 22 -66 24 -203
24 -134 0 -253 -14 -363 -42 l-23 -5 27 58 c108 241 130 476 59 631 -32 70
-102 137 -171 162 -64 25 -181 27 -259 6z"/>
<path d="M2057 3915 c-131 -46 -267 -73 -410 -83 -135 -10 -158 -21 -194 -92
-28 -55 -29 -92 -2 -146 25 -54 72 -84 129 -84 153 0 562 95 666 156 94 54
100 200 10 259 -44 29 -94 27 -199 -10z"/>
<path d="M3710 3704 c-72 -19 -492 -228 -535 -266 -103 -90 -39 -251 99 -251
31 0 83 22 232 99 106 55 195 96 198 93 9 -9 -20 -80 -110 -269 -67 -142 -76
-166 -71 -203 2 -23 8 -49 12 -59 4 -11 -2 -21 -23 -33 -91 -54 -87 -199 8
-262 102 -70 410 28 695 220 91 62 191 167 206 217 19 61 0 124 -51 173 -35
33 -45 37 -90 37 -65 0 -95 -16 -148 -79 -23 -28 -69 -70 -100 -95 -72 -55
-198 -125 -189 -105 140 330 193 472 203 548 12 93 -36 181 -126 226 -46 24
-142 28 -210 9z"/>
<path d="M2310 3333 c-110 -12 -264 -43 -286 -58 -90 -58 -81 -197 17 -262 52
-34 94 -36 295 -9 78 11 149 16 158 13 18 -7 16 -28 -11 -102 -34 -95 -36
-113 -18 -160 24 -63 65 -90 137 -90 48 1 63 5 95 31 47 38 84 124 108 250 20
111 11 173 -38 255 -37 62 -109 111 -189 128 -46 10 -192 12 -268 4z"/>
<path d="M4925 3073 c-58 -13 -90 -28 -121 -56 -67 -58 -87 -127 -70 -243 7
-50 7 -52 -26 -77 -18 -13 -67 -44 -108 -67 -183 -104 -263 -179 -320 -299
-45 -94 -61 -164 -61 -271 0 -165 59 -317 166 -426 l61 -62 -39 -12 c-22 -6
-59 -32 -88 -61 -28 -27 -62 -54 -75 -59 -14 -6 -118 -9 -232 -9 -162 2 -224
-2 -287 -15 -208 -45 -341 -133 -499 -329 -40 -50 -78 -88 -92 -91 -14 -4 -56
-35 -94 -70 -114 -105 -193 -120 -316 -61 -83 41 -215 175 -284 289 -65 106
-102 137 -171 144 -68 6 -127 -18 -178 -74 -49 -52 -61 -80 -61 -140 0 -54 23
-103 98 -204 214 -290 455 -431 737 -432 177 0 301 53 409 173 26 29 62 59 78
66 16 7 82 66 146 130 204 206 300 243 567 222 179 -14 244 -6 350 44 81 39
186 131 218 191 42 81 17 209 -48 252 -31 20 -26 30 23 38 159 25 241 269 127
376 -57 54 -52 164 10 219 18 15 84 59 146 97 269 161 355 326 305 587 -17 88
-33 122 -77 165 -51 50 -137 79 -194 65z"/>
<path d="M1183 3061 c-171 -44 -178 -286 -11 -350 l25 -9 6 -269 c9 -372 30
-526 88 -650 24 -50 39 -68 74 -88 24 -14 60 -29 79 -32 51 -8 119 14 157 51
60 58 73 125 42 222 -18 59 -15 71 15 55 36 -19 106 -13 143 12 19 12 62 65
95 116 61 91 148 191 169 191 5 0 20 -20 33 -43 l23 -44 -25 -139 c-31 -170
-59 -424 -50 -461 19 -81 100 -142 171 -128 43 8 84 34 106 69 11 16 24 85 36
193 11 92 34 230 51 306 35 162 36 167 11 221 -10 23 -24 64 -30 91 -26 107
-80 185 -162 230 -47 26 -64 30 -129 29 -171 -1 -343 -122 -462 -325 -21 -35
-38 -61 -39 -59 0 3 -4 129 -9 280 -8 307 -15 341 -80 427 -51 68 -127 105
-222 109 -40 2 -88 -1 -105 -5z"/>
<path d="M3320 2285 c-157 -25 -579 -114 -607 -129 -64 -33 -103 -101 -103
-179 0 -44 5 -62 30 -95 35 -48 94 -82 144 -82 19 0 135 20 258 44 292 59 394
76 445 76 39 0 42 -2 53 -35 6 -20 24 -50 38 -67 31 -37 114 -78 160 -78 67 0
145 50 180 115 11 21 16 56 17 115 0 73 -4 92 -27 135 -49 94 -140 159 -257
184 -68 14 -224 12 -331 -4z"/>
</g>
</svg>
