<?xml version="1.0" standalone="no"?>
<!DOCTYPE svg PUBLIC "-//W3C//DTD SVG 20010904//EN"
 "http://www.w3.org/TR/2001/REC-SVG-20010904/DTD/svg10.dtd">
<svg version="1.0" xmlns="http://www.w3.org/2000/svg"
 width="600.000000pt" height="600.000000pt" viewBox="0 0 600.000000 600.000000"
 preserveAspectRatio="xMidYMid meet">
<metadata>
Created by potrace 1.15, written by Peter Selinger 2001-2017
</metadata>
<g transform="translate(0.000000,600.000000) scale(0.100000,-0.100000)"
fill="#16364b" stroke="none">
<path d="M2677 5540 c-73 -13 -139 -109 -178 -259 -43 -164 11 -284 152 -337
33 -13 91 -19 233 -23 l189 -6 -109 -91 c-149 -125 -269 -253 -354 -380 -124
-186 -135 -219 -101 -302 26 -65 66 -110 109 -121 20 -6 125 -11 232 -11 224
0 404 -13 527 -36 102 -19 136 -14 186 27 81 67 70 196 -21 243 -71 35 -340
76 -506 76 -69 0 -127 4 -130 8 -13 21 125 172 289 317 158 140 226 209 250
250 64 108 30 222 -84 279 -85 43 -139 49 -353 43 -226 -6 -215 -11 -178 85
55 145 -20 261 -153 238z"/>
<path d="M1585 5169 c-91 -37 -189 -111 -321 -243 -190 -190 -278 -318 -278
-406 0 -77 52 -144 125 -159 18 -4 94 -1 169 6 162 15 270 16 289 4 13 -8 13
-23 -2 -114 -9 -58 -17 -131 -17 -163 0 -98 46 -148 149 -163 l46 -6 -140 -43
c-165 -50 -199 -66 -227 -105 -47 -66 -27 -153 44 -197 51 -31 117 -25 315 25
418 107 483 143 483 265 0 54 -27 102 -72 130 -47 30 -128 22 -251 -24 -117
-43 -133 -45 -89 -10 45 36 50 49 73 182 26 153 28 274 5 327 -58 135 -174
205 -343 205 -40 0 -73 4 -73 9 0 22 198 175 249 192 80 27 121 81 121 161 0
121 -120 181 -255 127z"/>
<path d="M4360 4679 c-75 -11 -281 -79 -384 -127 -99 -47 -121 -76 -113 -150
9 -84 76 -142 164 -142 43 0 70 8 141 44 89 45 209 96 224 96 13 0 9 -25 -18
-112 -35 -111 -107 -260 -188 -388 -69 -110 -75 -130 -52 -183 18 -42 115
-143 152 -158 17 -7 132 -14 286 -18 141 -3 260 -10 264 -14 13 -12 -37 -147
-128 -349 -44 -99 -82 -197 -84 -217 -5 -42 25 -102 67 -134 36 -26 108 -33
145 -14 44 23 57 42 119 177 156 342 190 451 183 580 -6 94 -31 146 -94 195
-76 58 -124 68 -341 73 -106 2 -193 7 -193 12 0 4 18 46 41 94 22 48 61 149
86 224 36 110 46 156 50 233 5 83 3 101 -16 144 -28 63 -45 82 -101 110 -53
26 -133 36 -210 24z"/>
<path d="M3750 3694 c-14 -3 -63 -24 -109 -46 -107 -51 -232 -169 -250 -235
-17 -61 -1 -112 48 -156 70 -63 169 -55 225 18 29 38 110 99 145 110 24 7 24
7 17 -43 -9 -71 -40 -162 -93 -273 l-45 -96 -76 -39 c-145 -74 -188 -148 -144
-248 25 -56 70 -86 131 -86 34 0 61 10 120 44 42 25 148 74 236 111 244 101
295 144 303 255 7 100 -39 172 -121 190 -17 4 -31 11 -30 16 1 5 8 44 17 86
20 97 20 152 1 209 -22 64 -64 110 -135 148 -51 27 -74 34 -138 36 -42 2 -88
1 -102 -1z"/>
<path d="M2462 3480 c-130 -27 -353 -109 -391 -143 -72 -66 -66 -200 11 -247
48 -29 95 -25 211 19 119 44 256 81 304 81 31 0 33 -2 33 -33 0 -54 -38 -174
-91 -288 -43 -92 -49 -113 -43 -145 16 -85 121 -150 202 -126 56 17 91 57 137
156 168 358 148 595 -60 704 -44 23 -63 26 -160 28 -60 2 -129 -1 -153 -6z"/>
<path d="M1156 3209 c-57 -14 -155 -69 -202 -114 -67 -64 -80 -136 -40 -222
33 -69 86 -105 167 -111 52 -4 59 -7 59 -26 0 -11 -14 -140 -30 -286 -44 -390
-37 -588 22 -677 25 -36 107 -83 146 -83 88 0 186 81 277 228 31 51 89 137
129 190 40 53 116 161 171 240 54 78 102 142 106 142 16 0 22 -42 27 -178 2
-82 -1 -177 -8 -225 -10 -72 -60 -285 -90 -387 -34 -116 28 -219 146 -244 41
-9 108 18 133 53 38 53 105 377 121 584 16 216 -16 491 -69 596 -70 136 -203
185 -334 122 -73 -35 -141 -103 -255 -256 -58 -77 -107 -142 -109 -144 -10
-13 -11 12 -3 69 5 36 10 155 10 265 1 177 -1 208 -20 268 -48 155 -191 234
-354 196z"/>
<path d="M4785 2654 c-82 -30 -144 -118 -145 -206 0 -54 3 -53 -115 -63 -301
-27 -517 -196 -570 -450 -30 -142 -11 -267 64 -420 l50 -100 -27 -27 -27 -27
-118 55 c-264 123 -431 124 -605 5 -107 -73 -232 -222 -357 -424 -34 -56 -57
-82 -80 -91 -18 -8 -51 -28 -75 -45 -24 -17 -50 -31 -60 -31 -65 0 -185 247
-226 467 -19 104 -29 131 -57 161 -69 74 -196 83 -266 19 -59 -55 -73 -139
-46 -282 59 -310 230 -611 394 -694 138 -71 292 -63 447 24 35 20 76 46 91 59
15 13 39 27 53 31 52 15 86 55 154 176 100 179 183 297 229 327 64 42 97 36
271 -51 183 -92 251 -108 343 -82 140 40 272 161 273 251 0 16 13 28 48 45 84
43 134 147 117 248 -4 22 -23 66 -44 98 -50 79 -71 134 -71 192 0 48 1 49 40
65 21 8 102 27 178 41 210 38 275 66 354 154 66 73 93 163 92 301 0 83 -5 114
-21 150 -52 115 -171 167 -288 124z"/>
<path d="M3090 2521 c-47 -10 -120 -28 -162 -40 -43 -12 -136 -35 -208 -51
-72 -15 -145 -37 -163 -47 -35 -20 -77 -92 -77 -133 0 -83 66 -175 147 -206
53 -21 57 -20 358 50 210 48 255 54 255 34 0 -7 -12 -48 -25 -92 -18 -55 -24
-89 -19 -115 27 -153 191 -220 305 -124 37 31 54 63 85 161 36 115 47 184 42
270 -8 136 -67 229 -178 281 -74 34 -234 40 -360 12z"/>
</g>
</svg>
