<?xml version="1.0" standalone="no"?>
<!DOCTYPE svg PUBLIC "-//W3C//DTD SVG 20010904//EN"
 "http://www.w3.org/TR/2001/REC-SVG-20010904/DTD/svg10.dtd">
<svg version="1.0" xmlns="http://www.w3.org/2000/svg"
 width="600.000000pt" height="600.000000pt" viewBox="0 0 600.000000 600.000000"
 preserveAspectRatio="xMidYMid meet">
<metadata>
Created by potrace 1.15, written by Peter Selinger 2001-2017
</metadata>
<g transform="translate(0.000000,600.000000) scale(0.100000,-0.100000)"
fill="#16364b" stroke="none">
<path d="M2230 5531 c-167 -55 -262 -190 -291 -416 -10 -74 -12 -242 -10 -649
2 -304 -2 -658 -8 -790 -6 -133 -15 -332 -20 -444 -5 -112 -12 -206 -15 -209
-16 -16 -325 131 -454 216 -62 41 -92 67 -88 76 2 7 8 30 12 49 5 32 4 36 -14
36 -13 0 -22 -9 -26 -26 -9 -34 -17 -25 -36 39 -10 33 -22 53 -33 55 -14 3
-17 -5 -17 -47 0 -28 -4 -51 -8 -51 -5 0 -19 11 -32 25 -47 50 -67 20 -28 -43
21 -34 21 -35 2 -28 -41 18 -64 19 -64 3 0 -17 200 -188 280 -239 76 -49 232
-125 371 -182 l116 -48 -5 -281 c-3 -222 -1 -312 12 -424 50 -432 161 -694
348 -826 90 -62 165 -92 281 -112 l39 -6 -8 -42 c-12 -67 -7 -215 11 -302 9
-44 41 -153 70 -241 30 -89 55 -166 55 -172 0 -6 -42 -12 -101 -14 -96 -3
-102 -4 -125 -31 -45 -53 -23 -128 46 -157 45 -19 175 -9 226 18 55 28 101 83
110 129 8 40 3 60 -59 260 -56 181 -79 316 -75 437 1 57 5 107 8 110 8 8 332
-12 575 -35 169 -16 242 -18 316 -12 l97 9 -5 -121 -5 -120 57 -195 c32 -107
60 -210 63 -227 l4 -33 -63 0 c-35 0 -81 -5 -101 -10 -72 -20 -111 -103 -73
-157 44 -63 224 -49 323 25 89 65 92 120 17 341 -94 278 -105 348 -71 463 l16
56 72 6 c40 3 118 8 173 11 134 8 198 22 271 57 123 60 202 155 244 296 24 79
60 390 60 512 0 115 -26 355 -45 432 -30 113 -87 209 -217 364 -37 45 -68 84
-68 87 0 3 19 8 43 12 77 13 250 75 362 130 140 67 230 134 307 224 59 70 60
72 43 91 -10 11 -15 20 -10 20 4 0 2 7 -5 14 -8 11 -18 12 -36 5 -34 -12 -32
-13 -30 22 2 45 -19 47 -46 5 -27 -42 -35 -44 -40 -14 -2 13 -11 24 -21 26
-16 3 -18 -3 -16 -51 3 -65 -3 -74 -85 -129 -124 -85 -379 -186 -525 -209
l-74 -11 -106 104 c-293 287 -426 397 -706 583 -192 128 -263 188 -346 293
-77 95 -121 177 -159 289 -44 134 -108 457 -125 638 -19 201 -70 332 -166 428
-80 80 -149 110 -259 114 -47 1 -96 -1 -110 -6z m161 -153 c55 -16 110 -67
147 -135 29 -56 46 -118 71 -263 43 -249 104 -567 121 -630 26 -94 116 -277
172 -351 111 -147 208 -232 426 -375 98 -64 204 -137 237 -162 378 -288 764
-693 871 -916 41 -85 50 -129 64 -336 9 -136 9 -195 -4 -335 -22 -248 -51
-341 -132 -422 -61 -61 -132 -79 -379 -98 -110 -8 -234 -19 -275 -25 -91 -11
-322 -12 -405 0 -33 5 -215 14 -405 19 -190 6 -372 16 -405 21 -218 38 -355
215 -424 547 -59 285 -72 644 -37 998 27 277 60 1507 51 1880 -8 299 -1 376
41 463 51 106 156 153 265 120z"/>
<path d="M2613 2902 c-24 -4 -53 -37 -53 -60 0 -22 48 -62 74 -62 30 0 56 33
56 71 0 38 -31 59 -77 51z"/>
<path d="M3177 2862 c-39 -43 3 -117 62 -110 36 4 67 59 50 90 -7 13 -17 26
-23 30 -21 14 -73 8 -89 -10z"/>
<path d="M2767 1945 c-33 -33 -12 -68 51 -84 44 -12 493 -18 510 -7 21 13 13
55 -13 72 -21 14 -61 17 -252 19 -126 1 -240 5 -254 9 -18 6 -31 3 -42 -9z"/>
</g>
</svg>
