<?xml version="1.0" standalone="no"?>
<!DOCTYPE svg PUBLIC "-//W3C//DTD SVG 20010904//EN"
 "http://www.w3.org/TR/2001/REC-SVG-20010904/DTD/svg10.dtd">
<svg version="1.0" xmlns="http://www.w3.org/2000/svg"
 width="600.000000pt" height="600.000000pt" viewBox="0 0 600.000000 600.000000"
 preserveAspectRatio="xMidYMid meet">
<metadata>
Created by potrace 1.15, written by Peter Selinger 2001-2017
</metadata>
<g transform="translate(0.000000,600.000000) scale(0.100000,-0.100000)"
fill="#16364b" stroke="none">
<path d="M2013 5083 c-59 -20 -137 -94 -168 -156 -33 -69 -47 -154 -35 -219
21 -106 32 -287 40 -643 5 -203 14 -518 20 -700 14 -409 2 -710 -29 -735 -11
-8 -95 -73 -186 -145 -92 -71 -208 -162 -258 -201 -78 -62 -93 -70 -109 -60
-24 14 -41 -9 -27 -36 9 -16 5 -18 -31 -18 -31 0 -40 -4 -40 -18 0 -9 10 -23
22 -31 l22 -13 -27 -15 c-39 -20 -35 -43 8 -43 l35 0 -16 -25 c-15 -22 -15
-25 0 -31 16 -6 135 59 149 82 4 7 64 54 135 105 70 51 171 127 225 171 54 43
99 78 101 78 2 0 7 -64 10 -142 17 -351 82 -607 196 -773 87 -126 238 -224
410 -266 l86 -21 -4 -132 c-5 -157 15 -269 84 -472 24 -73 44 -140 44 -148 0
-13 -13 -16 -67 -16 -121 0 -178 -31 -189 -101 -24 -145 294 -136 393 10 33
49 30 115 -12 237 -76 224 -110 407 -99 531 7 79 15 87 64 73 17 -5 234 -14
483 -21 249 -6 453 -13 454 -14 2 -1 -2 -39 -9 -84 -18 -131 17 -373 82 -564
11 -32 18 -62 15 -66 -2 -5 -42 -10 -87 -13 -93 -5 -138 -23 -156 -63 -27 -59
-6 -108 54 -131 84 -32 228 8 306 85 69 69 70 89 14 279 -72 247 -92 403 -64
520 l11 50 71 7 c123 11 349 45 401 60 174 49 320 232 381 476 24 97 30 345
11 445 -40 213 -152 391 -340 541 -38 30 -67 56 -65 58 8 7 483 -47 489 -56 8
-14 142 8 167 28 16 12 16 14 1 26 -13 9 -14 16 -5 30 8 13 8 19 -1 25 -6 4
-11 16 -10 27 2 16 -5 20 -33 22 -19 1 -43 2 -52 2 -11 1 -18 9 -18 21 0 13
-7 20 -20 20 -12 0 -20 -7 -20 -16 0 -19 -31 -18 -300 12 -80 8 -219 23 -310
33 l-166 17 -59 45 c-81 62 -298 204 -478 314 -366 222 -608 456 -737 713 -28
58 -126 289 -201 480 -38 97 -89 247 -89 264 0 32 -73 162 -117 209 -68 74
-147 109 -238 108 -38 0 -89 -7 -112 -16z m193 -169 c21 -15 45 -34 52 -43 22
-27 60 -113 76 -171 8 -30 24 -77 35 -105 295 -717 316 -757 498 -960 166
-184 269 -264 608 -470 160 -97 350 -226 435 -295 25 -20 119 -88 210 -150
216 -149 328 -259 388 -380 62 -127 76 -191 76 -355 -1 -163 -17 -249 -68
-360 -38 -82 -99 -155 -160 -190 -91 -52 -571 -114 -781 -100 -49 3 -234 10
-410 15 -332 10 -565 29 -670 56 -164 42 -298 143 -362 274 -41 84 -80 218
-100 350 -19 121 -21 342 -8 925 10 456 -17 1409 -47 1643 -21 157 -17 222 14
269 49 75 143 95 214 47z"/>
<path d="M2635 2745 c-31 -30 -31 -36 1 -74 31 -37 77 -42 94 -12 18 34 12 78
-12 95 -32 22 -55 20 -83 -9z"/>
<path d="M3076 2648 c-24 -34 -19 -63 15 -92 39 -33 62 -33 88 0 43 55 16 114
-52 114 -26 0 -40 -6 -51 -22z"/>
<path d="M2966 1764 c-34 -33 -12 -74 39 -74 50 0 83 48 53 78 -17 17 -74 15
-92 -4z"/>
<path d="M5236 3975 c-105 -29 -189 -109 -218 -208 -6 -23 -12 -76 -12 -118 0
-63 5 -86 31 -141 55 -117 137 -178 249 -186 166 -11 340 83 402 217 21 46 24
64 20 130 -8 131 -79 229 -211 292 -52 24 -74 29 -137 28 -41 0 -97 -7 -124
-14z m151 -306 l28 -11 -29 -24 c-32 -29 -46 -27 -63 6 -20 40 5 52 64 29z"/>
<path d="M5337 1099 c-11 -6 -30 -34 -43 -63 -54 -116 -14 -222 83 -219 109 3
168 229 73 278 -34 17 -87 19 -113 4z"/>
</g>
</svg>
