<?xml version="1.0" standalone="no"?>
<!DOCTYPE svg PUBLIC "-//W3C//DTD SVG 20010904//EN"
 "http://www.w3.org/TR/2001/REC-SVG-20010904/DTD/svg10.dtd">
<svg version="1.0" xmlns="http://www.w3.org/2000/svg"
 width="600.000000pt" height="600.000000pt" viewBox="0 0 600.000000 600.000000"
 preserveAspectRatio="xMidYMid meet">
<metadata>
Created by potrace 1.15, written by Peter Selinger 2001-2017
</metadata>
<g transform="translate(0.000000,600.000000) scale(0.100000,-0.100000)"
fill="#16364b" stroke="none">
<path d="M2378 5391 l-26 -21 -4 -207 c-4 -204 -5 -210 -38 -307 -54 -159
-130 -257 -252 -324 -80 -43 -112 -107 -73 -146 30 -30 53 -28 123 8 130 69
209 150 277 286 86 172 115 295 114 485 0 128 -10 201 -30 220 -26 25 -63 28
-91 6z"/>
<path d="M3543 5315 c-18 -8 -35 -27 -47 -53 -19 -41 -19 -42 2 -98 59 -153
188 -266 282 -248 17 4 42 20 55 36 46 54 28 130 -60 254 -25 34 -60 72 -79
83 -47 29 -117 41 -153 26z"/>
<path d="M3005 5094 c-16 -8 -40 -25 -53 -37 -38 -35 -83 -139 -89 -203 -4
-51 -2 -64 19 -94 49 -73 128 -77 218 -12 156 114 144 362 -19 362 -25 0 -59
-7 -76 -16z m62 -181 c-18 -33 -52 -66 -65 -62 -16 7 8 66 40 100 31 32 33 33
36 12 2 -12 -3 -34 -11 -50z"/>
<path d="M4773 4770 c-46 -19 -54 -49 -60 -212 -6 -165 4 -262 37 -356 35 -99
109 -152 183 -131 137 37 149 296 26 545 -66 134 -122 181 -186 154z"/>
<path d="M2655 4225 c-22 -8 -55 -31 -72 -51 -53 -61 -44 -144 24 -205 71 -64
156 -93 273 -93 72 0 94 4 148 28 76 35 122 84 122 129 0 42 -31 91 -66 105
-262 101 -343 117 -429 87z"/>
<path d="M5267 3990 c-95 -24 -172 -83 -215 -165 -24 -44 -27 -61 -27 -150 0
-88 3 -107 27 -157 31 -68 96 -133 164 -168 37 -19 69 -26 131 -28 71 -4 88
-1 142 23 96 43 159 122 195 244 44 148 -8 279 -143 365 -61 38 -69 40 -150
43 -47 1 -103 -2 -124 -7z m117 -313 l30 -13 -22 -22 c-12 -12 -29 -22 -37
-22 -18 0 -38 37 -31 56 7 17 21 17 60 1z"/>
<path d="M4180 3756 c-96 -27 -159 -76 -199 -158 -54 -108 -39 -242 38 -330
62 -69 119 -93 226 -93 81 0 95 3 143 29 67 37 117 92 150 165 21 45 27 75 30
161 7 158 -15 195 -130 226 -64 17 -196 17 -258 0z m110 -254 c0 -18 -33 -52
-51 -52 -24 0 -24 15 1 40 20 20 50 27 50 12z"/>
<path d="M1041 3425 c-121 -34 -213 -111 -268 -223 -24 -49 -28 -69 -28 -142
0 -76 4 -93 32 -151 42 -84 130 -169 217 -210 68 -32 188 -58 267 -59 99 0
174 -46 238 -144 77 -117 108 -218 166 -531 41 -227 65 -314 110 -411 113
-246 286 -378 540 -414 44 -6 175 -15 290 -20 116 -5 284 -14 375 -20 190 -14
805 -8 1000 10 306 27 468 78 831 261 121 61 144 77 205 142 105 111 193 308
229 511 19 111 19 180 0 289 -29 166 -85 268 -224 407 -114 114 -211 180 -323
222 -197 72 -496 37 -738 -88 -47 -24 -141 -88 -210 -143 -149 -119 -214 -160
-283 -178 -76 -21 -219 -20 -297 1 -109 30 -315 138 -495 260 -472 321 -537
362 -660 421 -203 98 -336 141 -598 191 -169 32 -304 39 -376 19z m299 -370
c193 -29 362 -86 587 -196 141 -69 330 -190 598 -384 319 -231 537 -315 812
-315 206 0 323 44 553 209 162 116 247 165 354 201 175 60 286 61 400 3 65
-33 165 -130 199 -191 105 -193 63 -499 -87 -630 -91 -79 -416 -212 -641 -261
-126 -27 -242 -38 -618 -57 -333 -17 -492 -12 -626 17 -26 6 -118 14 -206 19
-357 20 -471 68 -549 234 -41 86 -63 159 -111 376 -86 385 -113 470 -196 596
-116 179 -342 313 -526 314 -93 0 -196 40 -179 69 10 15 121 14 236 -4z"/>
<path d="M2196 2319 c-15 -12 -26 -30 -26 -45 0 -29 44 -74 72 -74 27 0 68 45
68 74 0 27 -41 66 -70 66 -10 0 -29 -9 -44 -21z"/>
<path d="M2873 2078 c-47 -23 -29 -91 32 -113 24 -8 30 -6 51 18 13 16 24 36
24 46 0 39 -66 69 -107 49z"/>
<path d="M3454 3380 c-12 -4 -36 -26 -53 -47 -43 -51 -141 -248 -141 -282 0
-40 37 -71 85 -71 34 0 45 7 86 50 79 84 146 232 135 296 -10 49 -61 75 -112
54z"/>
<path d="M476 2037 c-14 -15 -26 -33 -26 -42 0 -21 28 -75 39 -75 5 0 20 -18
34 -39 100 -151 259 -209 301 -110 31 74 -27 152 -175 232 -113 62 -140 67
-173 34z"/>
<path d="M5320 1107 c-54 -27 -87 -155 -56 -215 46 -88 173 -80 212 14 18 44
18 128 -1 163 -23 45 -102 65 -155 38z"/>
</g>
</svg>
