<?xml version="1.0" standalone="no"?>
<!DOCTYPE svg PUBLIC "-//W3C//DTD SVG 20010904//EN"
 "http://www.w3.org/TR/2001/REC-SVG-20010904/DTD/svg10.dtd">
<svg version="1.0" xmlns="http://www.w3.org/2000/svg"
 width="600.000000pt" height="600.000000pt" viewBox="0 0 600.000000 600.000000"
 preserveAspectRatio="xMidYMid meet">
<metadata>
Created by potrace 1.15, written by Peter Selinger 2001-2017
</metadata>
<g transform="translate(0.000000,600.000000) scale(0.100000,-0.100000)"
fill="#16364b" stroke="none">
<path d="M3559 5270 c-9 -5 -22 -23 -29 -39 -11 -27 -9 -36 27 -102 47 -90
132 -184 179 -199 49 -16 84 6 84 54 0 58 -99 222 -160 266 -35 25 -79 34
-101 20z m142 -184 c45 -69 50 -90 13 -55 -30 26 -104 136 -104 152 0 19 52
-37 91 -97z"/>
<path d="M2996 5067 c-76 -43 -133 -157 -123 -245 13 -119 126 -124 232 -11
75 81 102 161 73 224 -25 56 -113 72 -182 32z m98 -53 c40 -15 4 -106 -68
-172 -60 -55 -76 -55 -76 1 0 56 36 125 80 155 36 24 40 25 64 16z"/>
<path d="M4765 4719 c-16 -16 -21 -46 -28 -167 -11 -203 -14 -402 -4 -434 11
-40 59 -62 102 -48 31 10 39 21 59 84 10 29 7 434 -3 495 -10 62 -36 91 -81
91 -15 0 -35 -9 -45 -21z"/>
<path d="M1602 4279 c-150 -76 -162 -257 -27 -409 106 -118 131 -201 185 -615
40 -306 48 -386 60 -643 12 -254 35 -542 55 -695 17 -127 59 -258 111 -347 58
-100 172 -207 274 -257 79 -39 219 -83 262 -83 17 0 18 -5 11 -47 -13 -79 -7
-272 11 -368 10 -49 35 -143 57 -207 21 -65 39 -122 39 -126 0 -5 -37 -12 -81
-16 -122 -10 -159 -36 -159 -111 0 -71 62 -102 184 -93 125 10 205 72 214 167
3 38 -5 74 -42 182 -66 193 -91 395 -68 549 l7 45 115 -4 c63 -2 283 -7 488
-10 l374 -6 3 -130 c5 -207 38 -358 106 -499 16 -32 29 -64 29 -71 0 -10 -28
-14 -111 -17 l-111 -3 -29 -33 c-32 -36 -36 -60 -14 -101 23 -46 77 -66 170
-65 127 2 212 43 246 118 26 58 24 84 -17 189 -60 151 -86 256 -104 415 -9 80
-2 183 13 198 3 4 45 10 94 16 195 21 535 112 653 174 183 97 343 336 369 553
28 232 -97 514 -279 631 -108 69 -191 80 -451 59 -190 -16 -338 -2 -549 51
-254 63 -416 119 -536 186 -98 54 -247 159 -327 229 -140 122 -177 172 -396
523 -192 309 -277 415 -465 574 -104 88 -152 111 -246 115 -62 3 -83 0 -118
-18z m189 -149 c21 -11 62 -42 90 -68 210 -193 282 -286 453 -586 140 -245
157 -268 301 -412 205 -205 417 -351 625 -427 83 -31 377 -120 540 -164 68
-19 398 -21 543 -4 198 23 307 -32 396 -198 105 -199 100 -384 -17 -562 -57
-88 -142 -168 -215 -203 -63 -31 -278 -95 -442 -132 -113 -26 -135 -27 -385
-28 -612 -2 -1092 25 -1247 70 -102 29 -142 49 -210 103 -93 75 -159 206 -182
361 -25 174 -48 467 -61 780 -5 129 -17 282 -25 340 -9 58 -27 191 -40 295
-31 231 -59 377 -92 470 -31 87 -55 127 -110 188 -43 46 -73 101 -73 132 0 9
11 27 25 40 30 31 72 32 126 5z"/>
<path d="M2456 2559 c-14 -11 -26 -31 -26 -43 0 -44 70 -83 106 -58 13 9 34
46 34 62 0 18 -48 60 -68 60 -11 0 -31 -9 -46 -21z"/>
<path d="M2917 2252 c-24 -27 -21 -58 9 -81 57 -45 113 -13 104 59 -4 40 -83
55 -113 22z"/>
<path d="M2670 4237 c-14 -7 -34 -29 -45 -49 -19 -35 -19 -38 -2 -73 14 -30
31 -43 91 -70 96 -45 216 -84 281 -91 48 -6 55 -4 85 24 27 23 34 37 34 65 0
37 -34 87 -60 87 -6 0 -54 18 -105 39 -107 44 -215 81 -238 81 -9 0 -27 -6
-41 -13z"/>
<path d="M5290 3993 c-50 -10 -146 -61 -182 -98 -64 -65 -83 -116 -83 -225 0
-85 3 -101 30 -153 36 -73 118 -149 181 -171 118 -40 276 0 381 97 63 58 95
126 101 212 8 133 -60 246 -190 313 -56 28 -72 32 -138 31 -41 -1 -86 -4 -100
-6z m128 -318 c9 -9 -30 -45 -50 -45 -24 0 -48 48 -29 60 13 7 67 -3 79 -15z"/>
<path d="M4190 3747 c-89 -25 -173 -97 -211 -181 -25 -55 -25 -166 0 -221 55
-123 222 -192 364 -151 163 47 242 208 188 384 -12 39 -32 84 -46 100 -53 63
-198 97 -295 69z m84 -252 c8 -22 -3 -42 -25 -48 -28 -7 -36 19 -14 43 22 24
31 25 39 5z"/>
<path d="M490 2025 c-24 -29 1 -50 142 -123 151 -77 192 -87 204 -50 9 29 -9
43 -166 123 -134 68 -159 75 -180 50z"/>
<path d="M5378 1112 c-63 -5 -112 -87 -111 -184 1 -117 143 -145 201 -40 18
33 25 60 26 112 2 96 -23 120 -116 112z"/>
</g>
</svg>
