<?xml version="1.0" standalone="no"?>
<!DOCTYPE svg PUBLIC "-//W3C//DTD SVG 20010904//EN"
 "http://www.w3.org/TR/2001/REC-SVG-20010904/DTD/svg10.dtd">
<svg version="1.0" xmlns="http://www.w3.org/2000/svg"
 width="600.000000pt" height="600.000000pt" viewBox="0 0 600.000000 600.000000"
 preserveAspectRatio="xMidYMid meet">
<metadata>
Created by potrace 1.15, written by Peter Selinger 2001-2017
</metadata>
<g transform="translate(0.000000,600.000000) scale(0.100000,-0.100000)"
fill="#16364b" stroke="none">
<path d="M2374 5396 c-17 -13 -19 -25 -16 -121 6 -229 -30 -440 -99 -577 -39
-77 -116 -154 -197 -197 -70 -36 -91 -66 -72 -100 23 -44 55 -45 132 -4 193
101 306 289 348 578 5 39 10 145 10 237 0 161 -1 167 -22 182 -28 20 -58 20
-84 2z"/>
<path d="M3529 5310 c-8 -5 -24 -27 -34 -49 -17 -39 -17 -43 0 -88 51 -138
162 -243 255 -243 44 0 90 47 90 93 0 74 -117 244 -194 281 -37 18 -92 21
-117 6z"/>
<path d="M2983 5093 c-82 -55 -133 -151 -133 -250 0 -95 41 -143 121 -143 92
0 192 95 224 214 21 76 12 125 -29 173 -19 22 -33 27 -82 31 -52 3 -64 0 -101
-25z m97 -113 c0 -35 -26 -83 -64 -119 l-36 -35 0 35 c0 37 30 94 63 121 29
23 37 22 37 -2z"/>
<path d="M4779 4753 c-49 -30 -54 -47 -57 -222 -4 -195 10 -311 47 -384 60
-119 188 -108 238 21 26 69 24 222 -6 327 -29 104 -92 238 -122 258 -29 21
-66 21 -100 0z"/>
<path d="M2650 4217 c-30 -15 -70 -73 -70 -101 0 -82 51 -151 148 -198 62 -31
73 -33 172 -33 89 0 113 4 158 24 66 30 95 69 95 128 0 67 -32 92 -173 136
-192 60 -276 71 -330 44z"/>
<path d="M5215 3982 c-169 -58 -232 -229 -160 -433 51 -143 166 -229 288 -216
131 14 249 94 306 209 26 51 31 73 31 132 -1 116 -39 179 -160 261 -98 67
-202 83 -305 47z m173 -307 c9 -9 -30 -45 -48 -45 -18 0 -30 19 -30 47 0 12 8
14 36 10 20 -3 39 -9 42 -12z"/>
<path d="M4220 3766 c-115 -26 -204 -99 -241 -196 -52 -136 19 -302 153 -360
43 -19 65 -22 128 -18 121 7 211 66 266 175 27 54 29 66 28 163 0 119 -14 158
-67 191 -71 43 -187 63 -267 45z m60 -264 c0 -10 -5 -23 -12 -30 -17 -17 -48
-15 -48 2 0 14 36 46 52 46 5 0 8 -8 8 -18z"/>
<path d="M1174 3581 c-121 -35 -222 -120 -257 -217 -23 -65 -22 -157 3 -212
47 -105 194 -202 365 -242 50 -12 104 -30 122 -41 145 -89 230 -338 313 -909
11 -80 30 -175 41 -212 54 -184 248 -446 385 -520 74 -40 183 -67 323 -78 69
-5 194 -15 276 -22 206 -18 1024 -17 1165 0 349 43 495 84 742 208 181 90 241
129 326 209 108 100 182 226 223 380 29 107 32 310 6 405 -36 132 -118 268
-234 385 -159 162 -297 225 -493 225 -169 0 -283 -44 -480 -184 -179 -129
-236 -165 -315 -202 -99 -48 -162 -63 -280 -70 -166 -10 -277 27 -610 203
-301 159 -384 220 -670 495 -222 212 -331 289 -495 349 -190 69 -334 85 -456
50z m261 -332 c202 -56 300 -116 465 -284 237 -241 368 -344 633 -497 510
-293 828 -360 1177 -246 136 44 225 95 430 248 63 47 144 99 180 115 57 26 76
29 160 30 123 0 167 -19 264 -117 129 -131 169 -217 169 -363 0 -96 -21 -176
-71 -265 -58 -105 -120 -157 -289 -240 -300 -148 -371 -165 -776 -195 -419
-31 -811 -29 -958 4 -24 6 -105 15 -179 21 -274 21 -394 70 -481 197 -66 96
-85 158 -169 568 -50 240 -138 514 -212 659 -86 167 -205 265 -359 296 -123
25 -189 55 -189 87 0 22 87 15 205 -18z"/>
<path d="M2236 2347 c-12 -9 -17 -23 -14 -47 2 -29 10 -39 40 -55 38 -20 38
-20 57 0 11 11 23 32 26 47 13 51 -62 89 -109 55z"/>
<path d="M2836 2067 c-45 -33 10 -128 66 -114 25 7 48 43 48 76 0 43 -74 67
-114 38z"/>
<path d="M3421 3350 c-35 -49 -131 -270 -131 -303 0 -58 82 -78 127 -29 67 71
138 205 149 279 9 58 -20 93 -78 93 -33 0 -42 -5 -67 -40z"/>
<path d="M480 2030 c-38 -38 -27 -70 58 -158 92 -95 156 -135 219 -136 38 -1
49 4 70 28 58 68 2 133 -211 245 -89 46 -108 49 -136 21z"/>
<path d="M5363 1108 c-29 -14 -65 -100 -71 -168 -4 -49 -1 -60 22 -87 33 -39
73 -49 119 -29 85 35 116 225 44 270 -31 19 -88 26 -114 14z"/>
</g>
</svg>
