<?xml version="1.0" standalone="no"?>
<!DOCTYPE svg PUBLIC "-//W3C//DTD SVG 20010904//EN"
 "http://www.w3.org/TR/2001/REC-SVG-20010904/DTD/svg10.dtd">
<svg version="1.0" xmlns="http://www.w3.org/2000/svg"
 width="600.000000pt" height="600.000000pt" viewBox="0 0 600.000000 600.000000"
 preserveAspectRatio="xMidYMid meet">
<metadata>
Created by potrace 1.15, written by Peter Selinger 2001-2017
</metadata>
<g transform="translate(0.000000,600.000000) scale(0.100000,-0.100000)"
fill="#16364b" stroke="none">
<path d="M2377 5386 c-10 -11 -15 -59 -20 -198 -14 -416 -85 -591 -284 -696
-65 -34 -81 -58 -64 -91 18 -33 48 -35 104 -6 188 98 284 241 333 500 23 118
26 463 5 488 -17 21 -55 22 -74 3z"/>
<path d="M3542 5284 c-17 -8 -42 -58 -42 -87 0 -78 129 -235 212 -257 81 -22
140 38 118 120 -15 56 -89 159 -137 194 -41 28 -119 44 -151 30z"/>
<path d="M3015 5083 c-51 -26 -92 -73 -120 -134 -76 -170 8 -310 143 -240 73
38 136 123 161 219 33 121 -76 212 -184 155z m85 -115 c0 -35 -39 -105 -76
-138 -47 -41 -58 -39 -50 11 9 59 42 117 78 139 36 21 48 18 48 -12z"/>
<path d="M4775 4704 c-28 -30 -38 -120 -39 -334 0 -204 34 -293 116 -307 33
-5 41 -2 71 28 57 57 71 169 42 349 -22 134 -53 241 -77 268 -30 31 -82 30
-113 -4z"/>
<path d="M2641 4202 c-26 -26 -31 -38 -31 -79 0 -58 22 -95 80 -134 72 -49
146 -71 252 -77 164 -8 228 24 228 114 0 71 -22 86 -205 145 -96 30 -187 53
-227 56 -64 5 -68 4 -97 -25z"/>
<path d="M5201 3969 c-82 -26 -149 -92 -181 -176 -32 -85 -26 -206 14 -287 69
-142 200 -210 353 -186 232 37 370 259 284 455 -26 59 -66 101 -141 151 -102
67 -209 81 -329 43z m164 -291 c31 -14 31 -22 3 -42 -32 -23 -47 -20 -58 10
-17 43 4 55 55 32z"/>
<path d="M1368 3879 c-79 -18 -139 -72 -189 -169 -30 -58 -33 -176 -6 -231 31
-62 96 -118 192 -164 50 -24 100 -54 112 -67 42 -45 92 -140 133 -256 87 -243
137 -494 160 -797 25 -334 88 -583 187 -732 74 -111 218 -209 366 -247 33 -8
61 -16 63 -19 2 -2 -34 -22 -80 -45 -151 -75 -215 -177 -170 -269 11 -20 35
-47 54 -58 52 -30 204 -32 406 -6 89 12 181 21 205 21 l43 0 -36 -37 c-20 -21
-41 -48 -47 -61 -16 -31 -6 -74 24 -102 20 -19 32 -22 70 -18 52 6 77 25 110
83 68 116 45 240 -52 281 -44 19 -110 18 -301 -6 -90 -12 -198 -20 -240 -18
l-77 3 85 42 c47 23 153 63 235 89 l150 47 364 1 363 1 14 -26 c30 -60 122
-89 279 -89 l111 0 13 -35 c16 -46 60 -69 128 -68 62 0 106 26 143 82 42 64
28 117 -44 162 -35 21 -43 18 129 54 436 90 648 225 794 505 124 239 149 436
81 635 -66 192 -204 358 -360 433 -47 22 -112 45 -144 51 -190 35 -384 -22
-524 -153 -152 -142 -278 -196 -578 -247 -95 -16 -268 -7 -366 20 -91 24 -202
77 -273 131 -84 62 -295 288 -427 455 -30 39 -102 142 -161 230 -58 88 -133
190 -167 227 -91 100 -240 207 -393 283 -181 89 -272 110 -379 84z m152 -253
c328 -126 421 -209 705 -626 258 -379 335 -474 463 -568 344 -253 690 -300
1167 -156 195 58 302 115 423 226 88 81 145 103 262 103 72 -1 94 -5 142 -28
135 -66 248 -269 250 -450 1 -126 -44 -233 -157 -366 -107 -126 -183 -175
-372 -237 -212 -69 -409 -98 -915 -135 -272 -19 -327 -21 -470 -11 -90 7 -179
16 -198 21 -19 5 -89 14 -155 20 -232 21 -382 64 -460 133 -58 51 -85 94 -118
184 -47 130 -67 255 -92 583 -26 331 -40 426 -80 565 -31 106 -116 320 -163
409 -49 94 -132 177 -218 217 -112 51 -115 53 -129 81 -11 20 -11 29 -2 38 15
15 74 13 117 -3z"/>
<path d="M2316 2449 c-33 -26 -33 -49 0 -88 36 -43 80 -43 98 0 17 40 11 64
-22 89 -31 25 -43 25 -76 -1z"/>
<path d="M2812 2044 c-47 -33 -9 -114 54 -114 48 0 71 73 34 110 -24 24 -57
26 -88 4z"/>
<path d="M4217 3759 c-95 -22 -174 -87 -215 -178 -35 -76 -36 -182 -2 -259 29
-66 102 -134 164 -152 99 -28 231 8 309 84 77 74 109 199 86 331 -14 81 -28
106 -75 134 -76 45 -179 61 -267 40z m93 -282 c0 -28 -17 -47 -42 -47 -23 0
-23 11 3 44 25 32 39 33 39 3z"/>
<path d="M3446 3343 c-42 -45 -156 -266 -156 -302 0 -43 37 -62 75 -37 56 37
171 213 189 290 16 68 -58 103 -108 49z"/>
<path d="M476 2027 c-10 -8 -18 -26 -18 -41 0 -50 186 -203 268 -220 23 -5 37
-1 57 14 57 45 24 94 -116 178 -145 87 -159 92 -191 69z"/>
<path d="M5336 1101 c-28 -31 -59 -132 -53 -176 11 -75 88 -116 157 -82 77 38
96 244 25 271 -36 14 -112 6 -129 -13z"/>
</g>
</svg>
