<?xml version="1.0" standalone="no"?>
<!DOCTYPE svg PUBLIC "-//W3C//DTD SVG 20010904//EN"
 "http://www.w3.org/TR/2001/REC-SVG-20010904/DTD/svg10.dtd">
<svg version="1.0" xmlns="http://www.w3.org/2000/svg"
 width="600.000000pt" height="600.000000pt" viewBox="0 0 600.000000 600.000000"
 preserveAspectRatio="xMidYMid meet">
<metadata>
Created by potrace 1.15, written by Peter Selinger 2001-2017
</metadata>
<g transform="translate(0.000000,600.000000) scale(0.100000,-0.100000)"
fill="#16364b" stroke="none">
<path d="M1582 5769 c-74 -15 -95 -60 -133 -279 -28 -168 -24 -385 10 -471 30
-78 89 -143 148 -163 57 -20 67 -20 130 -1 100 30 194 142 311 371 88 173 132
285 132 336 0 150 -188 178 -257 38 -12 -25 -60 -124 -106 -220 -117 -244
-116 -243 -117 -97 0 87 6 147 22 220 32 146 31 189 -8 228 -35 34 -83 49
-132 38z"/>
<path d="M3301 5522 c-80 -12 -127 -122 -87 -201 8 -15 59 -61 113 -101 105
-79 193 -157 193 -171 0 -5 -7 -9 -16 -9 -9 0 -28 -7 -44 -16 -67 -40 -81
-130 -29 -188 46 -53 144 -98 227 -104 121 -8 198 36 228 132 15 49 15 56 -1
112 -39 135 -165 282 -380 444 -127 95 -155 109 -204 102z"/>
<path d="M892 5499 c-149 -20 -286 -144 -334 -302 -55 -184 23 -374 187 -456
118 -59 224 19 200 146 -5 29 -22 53 -71 99 -56 54 -64 66 -64 98 0 49 34 112
73 137 27 17 42 19 92 14 113 -13 153 -2 186 52 30 47 22 113 -17 154 -44 46
-155 71 -252 58z"/>
<path d="M2990 5146 c-134 -36 -230 -163 -230 -304 1 -189 154 -252 372 -155
78 35 98 75 98 199 0 143 -30 211 -110 252 -50 25 -66 26 -130 8z"/>
<path d="M2275 5022 c-46 -29 -56 -45 -66 -118 -5 -38 -17 -79 -25 -92 -9 -14
-53 -41 -102 -63 -123 -56 -131 -60 -158 -87 -81 -82 -34 -227 79 -239 40 -5
58 2 187 68 158 80 211 123 257 211 26 49 28 62 28 161 l0 108 -37 35 c-32 29
-45 34 -85 34 -29 0 -60 -7 -78 -18z"/>
<path d="M4754 4810 c-32 -13 -72 -67 -80 -107 -10 -52 3 -207 25 -288 35
-134 110 -252 194 -304 117 -72 271 -34 348 87 43 68 54 115 42 187 -15 88
-49 152 -118 221 -58 59 -183 147 -273 193 -42 21 -101 26 -138 11z"/>
<path d="M2792 4135 c-215 -47 -300 -242 -171 -389 100 -114 334 -136 579 -56
178 58 234 106 234 201 0 70 -32 110 -124 158 -176 91 -357 121 -518 86z"/>
<path d="M1010 4039 c-101 -61 -115 -176 -31 -252 42 -38 51 -40 198 -57 51
-6 105 -15 120 -21 l28 -11 -55 -50 c-62 -56 -245 -185 -383 -270 -50 -32
-112 -70 -137 -85 -52 -33 -90 -93 -90 -143 0 -58 38 -122 90 -148 70 -36 119
-27 234 41 52 32 96 57 99 57 2 0 7 -13 10 -28 8 -41 57 -89 103 -101 53 -14
92 -2 160 49 85 64 195 119 270 135 61 13 75 13 119 -1 70 -22 122 -8 170 48
43 51 57 99 45 151 -20 90 -123 142 -231 118 -24 -5 -72 -12 -107 -15 l-64 -6
30 38 c113 144 99 330 -36 453 -58 54 -128 85 -236 104 -132 23 -262 20 -306
-6z"/>
<path d="M4235 3781 c-132 -22 -233 -88 -283 -186 -21 -41 -26 -64 -26 -125 0
-91 28 -154 96 -216 65 -60 118 -77 225 -72 110 5 179 36 254 115 74 78 139
240 139 347 0 53 -37 98 -97 118 -60 20 -235 31 -308 19z m15 -296 c-26 -28
-50 -33 -50 -10 0 15 31 33 59 34 10 1 7 -7 -9 -24z"/>
<path d="M3395 3372 c-88 -41 -218 -229 -217 -313 1 -46 31 -93 72 -114 42
-22 165 -19 215 4 66 31 124 97 150 172 21 57 21 148 1 187 -37 72 -140 102
-221 64z"/>
<path d="M5062 3338 c-128 -67 -233 -176 -262 -271 -18 -62 -14 -149 11 -207
38 -87 144 -160 233 -160 48 0 132 25 180 54 55 32 108 94 144 166 23 47 27
68 27 140 0 104 -22 155 -105 243 -53 57 -59 60 -111 64 -46 4 -63 0 -117 -29z"/>
<path d="M1065 2851 c-52 -23 -90 -94 -80 -151 8 -46 26 -66 112 -123 119 -79
163 -147 164 -253 1 -115 -60 -228 -145 -268 -62 -29 -83 -22 -151 48 -72 76
-111 89 -172 60 -51 -26 -87 -93 -78 -149 12 -79 83 -162 185 -216 40 -21 58
-24 160 -24 109 0 119 2 183 32 176 84 297 292 297 512 0 149 -54 276 -164
386 -120 120 -241 177 -311 146z"/>
<path d="M2216 2804 c-127 -39 -184 -104 -260 -294 -43 -108 -86 -171 -145
-215 -22 -16 -49 -46 -60 -65 -11 -20 -43 -62 -72 -95 -130 -148 -266 -415
-304 -595 -43 -206 13 -413 163 -601 239 -299 536 -411 895 -338 303 61 475
205 665 556 130 240 185 441 199 724 17 336 -133 525 -437 554 -127 11 -132
15 -197 132 -73 135 -144 203 -239 233 -77 23 -140 25 -208 4z m128 -461 c36
-78 80 -134 152 -197 86 -76 124 -90 283 -105 71 -7 109 -15 120 -26 26 -25
20 -195 -12 -330 -64 -275 -150 -444 -295 -576 -152 -139 -373 -175 -550 -88
-73 36 -167 119 -211 187 -34 53 -61 145 -61 207 0 96 71 285 150 400 17 25
61 78 98 119 132 146 193 230 245 338 29 59 55 108 58 108 3 0 13 -17 23 -37z"/>
<path d="M4090 2329 c-36 -14 -89 -69 -106 -108 -8 -19 -14 -66 -14 -107 l0
-73 -27 15 c-32 16 -90 18 -127 4 -14 -5 -46 -28 -70 -50 -80 -74 -95 -175
-51 -341 35 -134 110 -336 139 -374 60 -78 186 -98 260 -42 27 21 46 27 84 27
113 0 213 69 249 173 27 79 22 226 -16 417 -16 85 -37 200 -46 255 -18 116
-44 164 -105 195 -43 22 -126 26 -170 9z"/>
</g>
</svg>
