<?xml version="1.0" standalone="no"?>
<!DOCTYPE svg PUBLIC "-//W3C//DTD SVG 20010904//EN"
 "http://www.w3.org/TR/2001/REC-SVG-20010904/DTD/svg10.dtd">
<svg version="1.0" xmlns="http://www.w3.org/2000/svg"
 width="600.000000pt" height="600.000000pt" viewBox="0 0 600.000000 600.000000"
 preserveAspectRatio="xMidYMid meet">
<metadata>
Created by potrace 1.15, written by Peter Selinger 2001-2017
</metadata>
<g transform="translate(0.000000,600.000000) scale(0.100000,-0.100000)"
fill="#16364b" stroke="none">
<path d="M3035 5076 c-96 -41 -173 -222 -131 -304 68 -131 317 99 275 253 -17
60 -76 81 -144 51z m83 -88 c2 -14 -6 -44 -17 -66 -22 -42 -105 -122 -127
-122 -22 0 -17 79 7 125 44 86 130 125 137 63z"/>
<path d="M4764 4729 c-17 -19 -20 -44 -27 -298 -7 -222 -6 -284 5 -316 15 -46
51 -65 95 -49 53 18 57 43 58 346 0 265 -1 278 -21 305 -28 37 -82 43 -110 12z"/>
<path d="M1696 4400 c-88 -28 -154 -117 -163 -220 -7 -70 9 -121 66 -216 49
-80 92 -210 126 -379 37 -181 54 -341 70 -655 8 -157 17 -301 20 -320 2 -19 7
-145 10 -280 9 -357 42 -544 127 -719 57 -116 160 -220 270 -273 83 -41 213
-82 293 -92 l51 -7 1 -137 c1 -153 19 -279 65 -457 17 -66 33 -132 36 -148 l4
-27 -73 0 c-103 -1 -149 -13 -181 -50 -30 -33 -37 -84 -17 -122 14 -26 84 -58
129 -58 82 0 193 46 247 102 66 69 69 129 13 321 -62 214 -74 287 -75 429 0
69 3 130 8 134 4 4 29 3 55 -4 66 -16 566 -36 739 -29 l145 5 -7 -72 c-11
-114 38 -350 110 -538 19 -49 35 -95 35 -102 0 -8 -35 -15 -100 -22 -89 -9
-103 -14 -130 -39 -59 -56 -44 -130 33 -166 110 -49 289 9 342 112 27 51 19
118 -30 248 -25 66 -56 164 -70 218 -29 108 -43 277 -28 333 11 40 9 40 203
70 236 37 477 96 560 137 107 52 231 178 287 290 55 110 67 171 60 318 -9 206
-70 368 -182 480 -89 90 -180 125 -323 125 -192 0 -382 39 -756 154 -355 110
-492 177 -688 337 -198 163 -458 490 -694 873 -127 206 -275 369 -378 417 -71
33 -159 45 -210 29z m153 -178 c23 -15 61 -54 84 -85 24 -32 52 -64 64 -72 30
-21 118 -140 209 -285 257 -407 483 -671 739 -866 204 -154 291 -197 568 -285
89 -28 194 -61 232 -75 190 -65 391 -101 622 -113 193 -9 236 -22 294 -89 77
-87 114 -218 114 -403 l0 -135 -37 -76 c-46 -93 -133 -178 -228 -224 -96 -47
-315 -95 -630 -140 -149 -21 -677 -30 -890 -15 -228 16 -449 38 -500 50 -263
60 -393 189 -464 461 -34 128 -46 242 -46 446 0 95 -4 216 -10 270 -5 55 -17
225 -25 379 -15 276 -26 379 -66 605 -43 248 -80 363 -156 485 -49 80 -56 126
-22 169 29 37 91 36 148 -2z"/>
<path d="M2482 2598 c-12 -6 -25 -23 -29 -36 -5 -20 1 -31 26 -54 37 -33 50
-35 85 -7 29 23 35 69 13 88 -21 17 -69 22 -95 9z"/>
<path d="M2943 2325 c-32 -23 -30 -68 3 -94 32 -25 57 -27 78 -5 19 19 21 64
4 87 -19 24 -60 30 -85 12z"/>
<path d="M5293 3985 c-174 -39 -277 -159 -278 -325 0 -62 5 -85 28 -132 35
-72 98 -137 162 -168 41 -20 65 -25 130 -25 71 0 89 4 147 33 195 96 267 347
148 509 -17 23 -59 59 -93 80 -72 44 -141 52 -244 28z m102 -326 c14 -13 -29
-53 -49 -46 -20 8 -30 32 -22 53 5 12 13 14 34 9 15 -3 31 -11 37 -16z"/>
<path d="M4203 3750 c-82 -19 -186 -111 -225 -198 -31 -68 -30 -163 3 -222 89
-161 353 -187 486 -48 52 54 77 121 77 208 1 142 -48 223 -156 255 -54 16
-131 18 -185 5z m75 -267 c-2 -22 -9 -29 -30 -31 -33 -4 -36 10 -8 38 28 28
42 25 38 -7z"/>
<path d="M5357 1099 c-30 -23 -67 -128 -67 -191 0 -101 87 -148 159 -84 73 65
84 263 16 290 -33 12 -83 6 -108 -15z"/>
</g>
</svg>
