<?xml version="1.0" standalone="no"?>
<!DOCTYPE svg PUBLIC "-//W3C//DTD SVG 20010904//EN"
 "http://www.w3.org/TR/2001/REC-SVG-20010904/DTD/svg10.dtd">
<svg version="1.0" xmlns="http://www.w3.org/2000/svg"
 width="600.000000pt" height="600.000000pt" viewBox="0 0 600.000000 600.000000"
 preserveAspectRatio="xMidYMid meet">
<metadata>
Created by potrace 1.15, written by Peter Selinger 2001-2017
</metadata>
<g transform="translate(0.000000,600.000000) scale(0.100000,-0.100000)"
fill="#16364b" stroke="none">
<path d="M1528 5762 c-32 -19 -94 -152 -157 -338 -53 -156 -60 -216 -33 -277
52 -118 191 -114 347 10 102 81 309 314 321 361 16 59 -22 124 -82 141 -53 14
-88 -4 -161 -86 -144 -164 -144 -164 -88 -26 39 96 42 130 20 173 -29 56 -112
77 -167 42z"/>
<path d="M817 5529 c-219 -52 -347 -312 -253 -515 43 -92 132 -174 190 -174
68 0 126 65 126 140 0 40 -13 65 -61 110 -59 56 -49 122 28 191 57 52 92 57
153 25 27 -14 61 -26 75 -26 66 0 122 63 111 124 -6 33 -43 74 -86 96 -69 36
-197 49 -283 29z"/>
<path d="M2333 5376 l-28 -24 -1 -194 c-2 -354 -52 -463 -258 -568 -88 -45
-119 -74 -131 -123 -9 -36 11 -93 42 -117 42 -33 82 -25 205 37 90 46 128 72
184 128 79 78 114 138 144 247 29 107 40 222 40 406 l0 164 -34 34 c-30 30
-40 34 -84 34 -39 0 -57 -6 -79 -24z"/>
<path d="M3490 5362 c-50 -24 -66 -77 -46 -146 8 -28 20 -72 26 -98 29 -114
160 -249 255 -263 115 -18 197 76 166 191 -14 53 -79 152 -136 210 -40 40
-189 124 -219 124 -6 0 -27 -8 -46 -18z"/>
<path d="M2955 5127 c-70 -33 -141 -114 -161 -185 -31 -107 4 -210 86 -252 74
-38 217 -18 302 42 59 41 84 243 41 325 -34 62 -75 87 -153 91 -52 2 -75 -2
-115 -21z"/>
<path d="M4759 4777 c-57 -38 -61 -54 -56 -227 5 -175 27 -267 87 -360 98
-153 283 -185 398 -70 58 58 77 105 77 195 0 71 -4 88 -34 150 -66 136 -304
335 -400 335 -23 0 -51 -9 -72 -23z m244 -406 c22 -37 23 -59 3 -42 -17 14
-39 71 -28 71 4 0 15 -13 25 -29z"/>
<path d="M2700 4217 c-131 -37 -209 -131 -210 -252 0 -104 51 -185 150 -237
37 -19 60 -23 136 -23 84 0 95 2 167 38 82 41 213 140 246 186 33 46 37 102
12 155 -28 57 -45 67 -176 106 -127 37 -254 47 -325 27z"/>
<path d="M1075 4080 c-126 -28 -157 -196 -50 -266 14 -9 75 -25 134 -35 138
-23 168 -34 151 -55 -37 -44 -236 -132 -380 -169 -77 -19 -100 -30 -122 -55
-75 -82 12 -229 136 -230 107 0 373 102 516 199 l45 31 13 -48 c7 -26 19 -69
26 -97 25 -97 74 -158 160 -196 189 -83 389 32 388 224 0 120 -65 232 -166
285 -43 22 -64 27 -131 27 -68 0 -88 -5 -133 -28 l-53 -28 8 28 c12 44 7 135
-11 176 -48 111 -166 183 -363 220 -117 23 -135 25 -168 17z"/>
<path d="M4170 3765 c-288 -81 -343 -450 -85 -567 41 -18 68 -22 145 -23 88 0
101 3 162 33 123 60 185 155 207 317 13 93 4 139 -38 179 -61 58 -279 92 -391
61z m110 -275 c0 -15 -48 -43 -60 -35 -8 5 -6 13 6 26 18 20 54 26 54 9z"/>
<path d="M5143 3535 c-257 -69 -367 -299 -250 -519 73 -136 222 -181 373 -112
175 80 260 309 175 473 -26 51 -117 138 -163 158 -45 18 -67 18 -135 0z m21
-330 c-4 -8 -11 -15 -16 -15 -6 0 -5 6 2 15 7 8 14 15 16 15 2 0 1 -7 -2 -15z"/>
<path d="M2482 3369 c-116 -45 -228 -187 -308 -391 -74 -187 -110 -232 -242
-302 -215 -112 -360 -258 -477 -478 -119 -224 -158 -434 -120 -651 40 -231
159 -411 359 -545 156 -105 258 -139 436 -148 252 -13 465 55 680 217 90 68
134 116 215 239 165 248 203 408 206 855 2 369 -11 440 -149 820 -54 148 -127
249 -232 320 -123 84 -255 107 -368 64z m214 -446 c4 -16 27 -79 51 -141 24
-62 55 -170 70 -240 25 -117 27 -145 27 -357 0 -258 -11 -349 -65 -501 -76
-218 -208 -360 -395 -424 -136 -47 -257 -35 -409 39 -261 128 -342 373 -211
645 83 174 186 286 340 372 258 145 338 233 420 467 56 158 69 189 92 211 17
18 19 18 46 -13 15 -17 31 -43 34 -58z"/>
<path d="M3412 3373 c-41 -20 -87 -84 -146 -200 -34 -68 -46 -104 -46 -136 0
-86 65 -127 160 -102 88 23 138 68 183 163 42 90 48 183 15 232 -41 60 -101
75 -166 43z"/>
<path d="M470 2361 c-19 -10 -42 -31 -50 -47 -8 -16 -25 -46 -37 -66 -36 -59
-30 -102 30 -236 86 -190 203 -357 306 -436 73 -56 104 -71 172 -85 109 -23
206 24 254 123 25 51 27 64 23 145 -4 79 -9 98 -42 167 -71 142 -256 302 -478
409 -102 50 -127 54 -178 26z m282 -372 c84 -62 133 -119 165 -186 28 -62 24
-79 -15 -59 -57 31 -144 130 -200 228 -50 86 -44 88 50 17z"/>
<path d="M4315 2078 c-11 -6 -34 -24 -52 -41 -31 -29 -32 -30 -58 -13 -15 10
-51 20 -80 23 -93 10 -185 -55 -206 -144 -13 -61 48 -383 81 -426 10 -13 30
-48 43 -78 28 -64 77 -123 120 -146 39 -20 125 -19 164 1 46 23 99 88 122 149
42 113 100 491 86 563 -7 42 -49 93 -92 110 -39 17 -100 18 -128 2z"/>
</g>
</svg>
