<?xml version="1.0" standalone="no"?>
<!DOCTYPE svg PUBLIC "-//W3C//DTD SVG 20010904//EN"
 "http://www.w3.org/TR/2001/REC-SVG-20010904/DTD/svg10.dtd">
<svg version="1.0" xmlns="http://www.w3.org/2000/svg"
 width="600.000000pt" height="600.000000pt" viewBox="0 0 600.000000 600.000000"
 preserveAspectRatio="xMidYMid meet">
<metadata>
Created by potrace 1.15, written by Peter Selinger 2001-2017
</metadata>
<g transform="translate(0.000000,600.000000) scale(0.100000,-0.100000)"
fill="#16364b" stroke="none">
<path d="M1854 5809 c-51 -15 -88 -58 -119 -139 -72 -193 -102 -264 -161 -382
-78 -153 -94 -197 -94 -255 0 -99 82 -173 194 -173 142 0 282 89 594 379 139
128 154 160 112 241 -23 46 -60 74 -118 89 -73 20 -113 2 -216 -98 -49 -47
-86 -77 -82 -66 65 177 78 227 72 268 -15 99 -96 160 -182 136z"/>
<path d="M2973 5670 c-83 -50 -85 -180 -4 -237 12 -8 59 -35 104 -60 122 -67
203 -131 317 -249 146 -152 212 -261 180 -299 -6 -8 -33 -17 -58 -20 -67 -8
-106 -31 -131 -75 -40 -71 -19 -163 48 -207 58 -39 195 -27 297 25 58 30 103
78 133 142 54 116 25 300 -69 444 -99 149 -427 424 -630 526 -72 36 -139 40
-187 10z"/>
<path d="M943 5420 c-131 -18 -248 -104 -306 -228 -31 -65 -32 -71 -32 -202 0
-132 1 -137 33 -204 39 -83 110 -169 171 -208 35 -22 57 -28 99 -28 50 0 58 3
92 38 75 75 65 160 -31 250 -64 61 -86 109 -73 165 15 70 53 100 141 112 29 4
67 17 85 29 67 44 88 143 45 206 -42 64 -110 85 -224 70z"/>
<path d="M2962 5139 c-138 -26 -241 -144 -250 -287 -6 -81 16 -139 70 -187 60
-55 100 -69 198 -69 122 -1 191 22 231 77 30 41 31 44 25 122 -15 178 -59 286
-133 323 -50 25 -89 31 -141 21z"/>
<path d="M4738 4854 c-59 -42 -72 -80 -63 -193 19 -273 101 -441 246 -506 55
-24 71 -27 135 -23 91 6 154 41 201 112 43 62 56 116 51 196 -12 158 -141 299
-373 406 -93 43 -145 45 -197 8z"/>
<path d="M1980 4794 c-125 -34 -178 -79 -187 -158 -13 -113 118 -199 231 -152
61 26 74 22 86 -26 24 -101 32 -118 61 -142 53 -45 121 -47 179 -6 66 47 81
140 40 260 -38 113 -89 176 -175 216 -59 28 -149 31 -235 8z"/>
<path d="M1110 4030 c-52 -11 -108 -25 -124 -32 -39 -16 -84 -55 -100 -87 -67
-134 31 -274 192 -272 l53 0 -18 -27 c-10 -15 -76 -115 -148 -222 -71 -107
-164 -244 -207 -304 -173 -240 -239 -396 -208 -491 14 -44 62 -100 101 -121
69 -35 185 -6 231 57 13 17 70 63 128 102 136 91 238 168 380 287 154 129 289
230 307 230 37 0 -15 -241 -90 -422 -49 -117 -258 -534 -310 -617 -22 -36 -62
-94 -89 -129 -56 -72 -68 -99 -68 -150 0 -92 100 -166 191 -142 72 20 166 154
357 510 245 456 323 673 338 944 13 229 -45 344 -187 370 -98 18 -207 -31
-451 -204 -20 -14 -20 -13 -9 5 6 11 49 69 96 129 111 145 146 217 152 316 5
62 2 85 -14 121 -29 65 -76 113 -135 140 -74 32 -235 36 -368 9z"/>
<path d="M2844 4039 c-52 -15 -127 -72 -151 -114 -30 -52 -31 -133 -3 -191 26
-53 112 -135 176 -167 89 -44 143 -52 374 -52 209 0 216 1 265 25 43 22 55 35
87 95 68 127 48 200 -69 258 -206 104 -395 157 -547 156 -55 0 -115 -5 -132
-10z"/>
<path d="M4176 3761 c-299 -99 -353 -441 -91 -579 43 -23 62 -27 140 -27 79 0
97 4 147 28 111 54 215 188 269 344 32 93 22 150 -33 199 -39 36 -88 46 -233
50 -119 4 -149 1 -199 -15z m94 -280 c0 -13 -41 -41 -58 -41 -20 0 -9 23 19
37 29 15 39 16 39 4z"/>
<path d="M3435 3394 c-66 -16 -117 -73 -184 -203 -55 -108 -62 -149 -35 -207
26 -54 74 -77 170 -82 104 -6 157 17 214 89 51 64 65 108 65 204 0 66 -4 86
-23 117 -46 75 -121 104 -207 82z"/>
<path d="M4990 3104 c-56 -24 -175 -120 -219 -177 -58 -76 -83 -140 -89 -223
-6 -88 14 -154 64 -213 49 -57 87 -74 160 -75 186 0 354 200 354 421 0 86 -28
153 -87 214 -65 67 -117 82 -183 53z"/>
<path d="M3903 2624 c-82 -29 -153 -133 -153 -223 0 -32 41 -187 69 -261 11
-30 19 -55 18 -56 -1 -2 -29 6 -61 17 -229 75 -402 -61 -382 -301 l6 -75 -30
62 c-62 132 -161 202 -295 211 -121 7 -270 -42 -519 -173 -113 -59 -125 -60
-126 -10 0 11 -9 53 -20 93 -46 166 -115 268 -213 317 -41 20 -65 25 -127 25
-66 0 -86 -4 -138 -31 -86 -43 -171 -141 -248 -289 -22 -41 -29 -71 -31 -115
-1 -52 -7 -69 -39 -115 -100 -148 -134 -271 -141 -505 -6 -204 14 -325 71
-440 98 -195 363 -411 576 -471 93 -26 386 -27 480 -1 89 24 178 67 246 118
103 78 224 243 224 305 0 12 21 58 46 101 150 252 285 635 288 811 0 45 4 74
8 65 3 -10 43 -134 87 -276 45 -142 88 -271 96 -288 48 -93 209 -120 321 -54
66 39 98 93 102 176 2 38 -1 83 -7 100 -6 18 -9 34 -7 36 2 3 19 -3 37 -12 80
-42 236 -7 314 71 54 55 75 114 75 213 0 94 -14 152 -89 384 -33 100 -78 252
-101 337 -47 176 -66 210 -144 246 -59 28 -129 30 -193 8z m-1843 -956 c37
-262 56 -331 103 -376 92 -89 249 -81 309 16 12 19 44 49 73 67 120 77 440
234 452 222 13 -13 -126 -393 -203 -556 -30 -63 -57 -132 -61 -154 -12 -80
-117 -176 -230 -213 -41 -13 -87 -18 -158 -18 -96 0 -104 2 -179 39 -53 26
-103 62 -156 112 -124 116 -155 204 -148 408 5 137 26 207 84 278 55 67 77
123 71 176 -5 45 5 81 22 81 5 0 14 -37 21 -82z"/>
</g>
</svg>
