<?xml version="1.0" standalone="no"?>
<!DOCTYPE svg PUBLIC "-//W3C//DTD SVG 20010904//EN"
 "http://www.w3.org/TR/2001/REC-SVG-20010904/DTD/svg10.dtd">
<svg version="1.0" xmlns="http://www.w3.org/2000/svg"
 width="600.000000pt" height="600.000000pt" viewBox="0 0 600.000000 600.000000"
 preserveAspectRatio="xMidYMid meet">
<metadata>
Created by potrace 1.15, written by Peter Selinger 2001-2017
</metadata>
<g transform="translate(0.000000,600.000000) scale(0.100000,-0.100000)"
fill="#16364b" stroke="none">
<path d="M3120 5638 c-77 -39 -126 -169 -118 -311 9 -163 105 -263 333 -347
50 -18 93 -36 98 -40 4 -3 -35 -32 -86 -64 -107 -66 -341 -240 -434 -322 -49
-43 -66 -65 -77 -102 -8 -26 -21 -60 -30 -77 -44 -82 8 -197 111 -249 47 -24
191 -43 415 -56 181 -11 199 -11 233 6 53 25 77 67 72 125 -5 59 -36 102 -86
122 -43 18 -173 36 -261 38 -110 2 -110 6 8 93 59 44 184 130 277 192 189 123
256 186 273 256 35 139 -94 257 -368 338 -153 45 -174 57 -178 101 -2 20 6 60
17 90 30 77 28 130 -6 170 -51 61 -120 74 -193 37z"/>
<path d="M1347 5366 c-149 -90 -314 -279 -397 -454 -66 -137 -112 -379 -91
-472 17 -75 84 -126 157 -117 80 9 130 64 141 158 5 41 9 49 22 44 43 -17 85
-14 196 14 66 16 137 33 159 37 37 6 38 6 31 -17 -4 -13 -26 -57 -47 -99 -71
-133 -83 -175 -83 -280 0 -71 4 -103 17 -126 l17 -32 -58 -36 c-64 -39 -91
-84 -91 -151 0 -91 80 -175 168 -175 16 0 112 43 223 99 107 54 219 109 249
121 72 30 115 72 130 124 24 85 -27 173 -113 197 -42 12 -68 6 -216 -49 -29
-11 -3 84 64 233 59 129 69 160 73 223 3 52 0 84 -12 115 -20 54 -78 114 -136
141 -64 30 -207 27 -357 -6 -62 -14 -113 -22 -113 -18 0 14 83 126 128 173 26
27 73 67 105 89 71 48 97 88 97 148 0 58 -28 103 -79 130 -61 31 -116 26 -184
-14z"/>
<path d="M4700 4504 c-126 -16 -313 -46 -332 -53 -52 -20 -88 -80 -88 -147 0
-58 28 -106 74 -128 43 -20 78 -20 183 0 136 25 136 26 27 -111 -53 -66 -122
-147 -154 -180 -92 -95 -111 -156 -70 -222 39 -65 110 -87 185 -59 101 39 452
469 491 603 48 166 -39 289 -212 297 -38 2 -85 2 -104 0z"/>
<path d="M3854 3701 c-47 -22 -80 -59 -95 -110 -15 -52 2 -107 55 -178 50 -66
242 -260 277 -279 37 -21 116 -17 154 6 30 19 65 79 65 113 0 45 -28 97 -81
152 -52 54 -59 67 -59 101 0 22 -10 60 -22 84 -19 37 -35 51 -93 82 -90 46
-146 55 -201 29z"/>
<path d="M2464 3651 c-117 -32 -253 -110 -290 -166 -47 -71 -36 -166 25 -216
55 -45 115 -41 231 15 94 46 187 73 214 63 21 -8 20 -28 -4 -122 -33 -131
-111 -283 -274 -535 -79 -121 -81 -127 -81 -186 0 -50 5 -67 26 -95 14 -19 29
-45 32 -59 9 -36 61 -95 101 -114 58 -27 107 -21 214 30 108 50 254 104 282
104 18 0 18 -2 4 -45 -9 -24 -54 -121 -100 -216 -91 -185 -101 -227 -68 -292
42 -82 108 -121 199 -115 102 6 122 29 261 293 35 66 77 163 95 215 30 87 32
106 33 225 1 117 -1 134 -22 172 -59 111 -145 164 -276 171 -66 3 -102 -2
-196 -26 -63 -17 -116 -29 -118 -28 -1 2 22 52 52 112 127 255 174 485 131
631 -20 66 -81 135 -151 169 -76 37 -215 43 -320 15z"/>
<path d="M1092 3445 c-131 -45 -323 -157 -356 -208 -31 -47 -39 -111 -22 -169
35 -122 159 -181 268 -128 23 11 43 20 45 20 4 0 -6 -54 -73 -355 -96 -438
-113 -603 -71 -685 27 -54 65 -77 157 -96 80 -17 128 -9 171 28 45 39 228 271
404 513 92 127 173 236 180 243 10 11 14 8 23 -17 14 -39 4 -130 -42 -411 -65
-402 -88 -580 -84 -672 3 -77 6 -91 33 -130 40 -57 87 -81 145 -73 55 7 103
38 129 86 25 45 26 85 4 140 -20 52 -15 99 57 464 64 328 73 395 74 550 2 259
-26 427 -82 488 -31 34 -95 61 -147 61 -110 1 -179 -51 -310 -234 -110 -154
-257 -342 -262 -337 -2 3 14 63 36 133 56 182 68 234 82 359 15 143 8 257 -20
320 -29 65 -46 83 -106 111 -66 31 -138 31 -233 -1z"/>
<path d="M4504 3381 c-91 -56 -107 -181 -31 -248 18 -16 69 -42 112 -57 115
-41 245 -105 245 -119 0 -19 -36 -81 -121 -210 -60 -91 -79 -127 -79 -153 0
-109 94 -172 195 -130 43 18 207 235 266 353 76 150 63 273 -41 366 -88 79
-388 217 -472 217 -25 0 -56 -8 -74 -19z"/>
<path d="M3628 3205 c-93 -34 -179 -118 -229 -222 -41 -87 -46 -137 -17 -193
42 -82 136 -112 219 -70 30 16 46 34 66 75 22 45 29 52 44 44 10 -5 53 -9 96
-9 95 0 164 29 201 84 29 42 31 108 6 161 -23 49 -103 111 -166 130 -63 18
-170 18 -220 0z"/>
<path d="M4605 2227 c-103 -41 -154 -108 -162 -211 l-5 -63 -87 13 c-47 6
-140 20 -206 30 -96 14 -134 15 -191 7 -182 -26 -316 -153 -353 -333 -6 -30
-11 -134 -11 -230 0 -96 -3 -201 -7 -232 l-8 -58 -77 71 c-191 173 -314 256
-429 285 -184 47 -320 -44 -425 -286 -18 -41 -35 -68 -38 -60 -2 8 -10 65 -16
125 -23 212 -75 404 -126 458 -38 41 -82 60 -140 59 -80 -1 -141 -37 -175
-104 -25 -50 -24 -101 5 -202 14 -47 34 -165 46 -263 44 -368 75 -470 177
-572 120 -119 331 -178 440 -123 40 21 82 66 98 107 4 11 9 54 10 95 2 58 13
107 49 218 26 78 50 142 53 142 15 0 126 -93 228 -191 62 -59 132 -115 159
-128 58 -29 134 -39 204 -29 109 17 236 105 261 181 8 24 26 43 57 63 74 47
96 94 105 232 4 65 5 159 2 209 -5 83 -4 93 12 99 10 4 81 -6 159 -22 178 -36
360 -41 442 -10 115 42 199 132 235 250 19 58 21 84 16 165 -13 211 -80 312
-211 318 -33 1 -75 -3 -91 -10z"/>
</g>
</svg>
