<?xml version="1.0" standalone="no"?>
<!DOCTYPE svg PUBLIC "-//W3C//DTD SVG 20010904//EN"
 "http://www.w3.org/TR/2001/REC-SVG-20010904/DTD/svg10.dtd">
<svg version="1.0" xmlns="http://www.w3.org/2000/svg"
 width="600.000000pt" height="600.000000pt" viewBox="0 0 600.000000 600.000000"
 preserveAspectRatio="xMidYMid meet">
<metadata>
Created by potrace 1.15, written by Peter Selinger 2001-2017
</metadata>
<g transform="translate(0.000000,600.000000) scale(0.100000,-0.100000)"
fill="#16364b" stroke="none">
<path d="M2131 5690 c-32 -14 -225 -178 -362 -308 -117 -111 -216 -227 -249
-292 -31 -61 -46 -161 -31 -212 33 -109 91 -141 254 -140 199 2 315 30 569
138 70 30 131 54 137 54 5 0 23 12 41 26 87 74 79 185 -19 251 -51 34 -102 30
-244 -21 -177 -63 -256 -88 -268 -84 -5 2 72 80 171 173 100 94 188 182 196
197 33 64 8 152 -57 201 -31 22 -103 31 -138 17z"/>
<path d="M3063 5658 c-18 -13 -39 -37 -48 -55 -19 -39 -19 -116 -1 -152 18
-34 40 -48 131 -86 468 -193 513 -460 110 -661 -127 -64 -151 -84 -166 -135
-25 -83 21 -160 108 -179 92 -21 339 109 486 255 177 178 202 407 67 635 -85
145 -262 277 -495 370 -92 36 -148 39 -192 8z"/>
<path d="M997 5326 c-71 -31 -147 -85 -185 -134 -97 -123 -153 -350 -123 -505
17 -91 65 -180 139 -259 101 -107 156 -127 236 -88 50 25 77 60 83 110 8 59
-2 84 -64 152 -86 97 -115 178 -93 267 17 71 67 124 161 171 43 22 86 51 94
64 63 96 -14 229 -141 241 -38 4 -63 0 -107 -19z"/>
<path d="M4735 4871 c-29 -12 -75 -61 -80 -85 -22 -112 -23 -192 -1 -276 38
-149 119 -265 219 -315 162 -80 361 28 397 215 18 95 -28 216 -112 296 -114
109 -342 198 -423 165z"/>
<path d="M2745 4817 c-44 -23 -104 -59 -132 -80 -169 -124 -216 -329 -110
-484 90 -131 318 -225 422 -173 46 24 75 74 75 134 0 82 -41 128 -130 147 -64
13 -109 34 -116 54 -14 36 49 99 165 168 86 51 115 133 71 205 -51 83 -126 92
-245 29z"/>
<path d="M1770 4361 c-30 -9 -66 -23 -80 -30 -55 -29 -133 -97 -175 -153 -41
-54 -45 -65 -45 -115 0 -97 65 -163 160 -163 55 0 91 20 137 77 77 94 161 124
246 88 49 -20 110 -19 155 4 99 51 95 179 -7 248 -90 61 -275 81 -391 44z"/>
<path d="M2685 3813 c-50 -7 -183 -42 -241 -64 -71 -27 -106 -71 -112 -143 -5
-61 13 -104 55 -134 46 -32 84 -35 180 -12 48 12 119 24 157 27 l69 6 -6 -29
c-26 -130 -120 -275 -325 -499 -177 -193 -215 -261 -192 -340 28 -94 116 -138
204 -101 42 18 301 311 442 502 107 144 174 298 195 446 10 71 10 91 -4 139
-9 30 -30 74 -46 96 -61 84 -216 128 -376 106z"/>
<path d="M4266 3790 c-220 -40 -376 -187 -376 -355 1 -106 50 -179 159 -232
50 -25 67 -28 161 -28 97 0 109 2 158 29 100 56 204 185 253 315 16 44 20 69
15 115 -12 121 -60 156 -219 162 -56 1 -124 -1 -151 -6z m14 -296 c0 -10 -33
-33 -47 -34 -21 0 -14 20 10 30 27 11 37 12 37 4z"/>
<path d="M1150 3684 c-99 -19 -284 -107 -323 -154 -120 -142 25 -368 205 -319
22 6 42 8 44 6 3 -3 -32 -85 -76 -183 -173 -379 -270 -664 -270 -789 0 -121
108 -204 247 -193 36 3 65 13 93 33 51 35 492 493 634 658 33 37 61 66 63 63
7 -7 -17 -236 -33 -313 -8 -40 -60 -222 -115 -405 -55 -183 -102 -355 -105
-383 -5 -42 -1 -59 23 -105 23 -44 38 -60 77 -79 46 -23 51 -24 89 -10 64 22
92 67 131 209 19 69 46 177 61 240 15 63 44 176 65 251 58 199 67 245 96 449
34 244 31 390 -11 475 -60 124 -188 149 -321 63 -27 -17 -130 -113 -228 -212
-99 -100 -177 -174 -174 -166 3 8 38 86 77 172 116 257 146 403 106 519 -36
105 -132 170 -258 175 -40 1 -83 0 -97 -2z"/>
<path d="M3543 3344 c-49 -18 -126 -83 -157 -133 -55 -89 -94 -259 -74 -325
15 -47 66 -93 114 -102 89 -17 305 45 381 110 132 112 98 353 -62 431 -66 33
-145 40 -202 19z"/>
<path d="M4779 2754 c-74 -22 -140 -73 -176 -133 -54 -91 -62 -172 -27 -291
l7 -25 -29 27 c-83 78 -214 78 -304 1 -77 -66 -95 -145 -65 -283 20 -93 20
-103 -5 -90 -12 6 -62 25 -113 42 -77 26 -108 32 -192 32 -88 1 -107 -2 -155
-25 -181 -85 -226 -228 -185 -584 31 -268 46 -316 110 -373 107 -94 255 -78
342 36 53 70 58 104 36 280 -10 84 -17 155 -15 157 4 4 102 -32 176 -66 42
-18 61 -21 120 -16 141 12 224 53 291 144 53 73 75 155 75 283 0 104 -27 305
-49 364 l-11 27 42 -34 c93 -75 173 -93 257 -57 96 42 156 142 168 284 5 61 2
80 -16 120 -11 27 -21 55 -21 64 0 29 -42 82 -84 107 -49 29 -105 32 -177 9z"/>
<path d="M2869 2445 c-87 -21 -202 -70 -366 -156 -164 -86 -208 -122 -224
-182 -31 -117 79 -246 212 -247 38 0 74 14 198 76 84 41 181 86 217 100 l64
24 0 -23 c0 -42 -88 -284 -144 -395 -59 -117 -69 -167 -45 -229 17 -46 69 -92
122 -108 76 -22 140 -3 194 58 38 44 165 299 199 402 61 186 81 399 47 506
-25 77 -100 152 -172 173 -67 20 -223 20 -302 1z"/>
<path d="M2123 1890 c-111 -23 -173 -98 -173 -210 0 -77 29 -126 93 -155 l52
-24 39 -131 39 -131 -21 -22 c-12 -12 -31 -45 -44 -72 -32 -71 -32 -224 1
-307 48 -123 175 -273 316 -373 99 -70 298 -169 373 -185 76 -16 173 -8 262
21 81 27 207 90 249 125 88 74 95 201 15 276 -68 63 -131 64 -255 3 -115 -56
-146 -57 -253 -7 l-79 37 39 25 c51 33 84 99 84 164 -1 74 -28 127 -92 174
-82 61 -154 146 -178 210 -12 31 -40 122 -61 202 -48 172 -74 233 -124 288
-66 74 -183 112 -282 92z"/>
</g>
</svg>
