<?xml version="1.0" standalone="no"?>
<!DOCTYPE svg PUBLIC "-//W3C//DTD SVG 20010904//EN"
 "http://www.w3.org/TR/2001/REC-SVG-20010904/DTD/svg10.dtd">
<svg version="1.0" xmlns="http://www.w3.org/2000/svg"
 width="600.000000pt" height="600.000000pt" viewBox="0 0 600.000000 600.000000"
 preserveAspectRatio="xMidYMid meet">
<metadata>
Created by potrace 1.15, written by Peter Selinger 2001-2017
</metadata>
<g transform="translate(0.000000,600.000000) scale(0.100000,-0.100000)"
fill="#16364b" stroke="none">
<path d="M2385 5458 c-41 -35 -70 -88 -109 -196 -59 -165 -21 -297 102 -359
58 -29 189 -25 344 11 71 16 131 27 134 23 3 -3 -18 -36 -48 -74 -72 -90 -113
-151 -255 -383 -163 -264 -183 -306 -183 -375 0 -68 28 -128 73 -156 37 -24
72 -22 312 10 83 12 258 26 390 32 132 6 253 16 268 22 37 13 74 62 82 109 11
57 -26 125 -79 149 -36 16 -66 18 -236 18 -107 0 -241 -6 -298 -13 -57 -6
-105 -9 -108 -5 -11 18 177 286 350 499 97 120 127 174 134 241 6 60 -12 112
-54 159 -86 95 -238 111 -491 51 -79 -19 -145 -32 -149 -29 -3 3 6 29 20 57
63 123 6 241 -116 241 -39 0 -54 -6 -83 -32z"/>
<path d="M1695 5066 c-160 -45 -304 -130 -436 -257 -76 -74 -156 -174 -169
-214 -26 -78 15 -173 82 -193 18 -6 85 -16 148 -22 139 -13 230 -33 290 -63
39 -20 51 -34 88 -105 51 -98 92 -133 160 -139 35 -3 55 1 80 16 86 54 93 140
24 283 -66 136 -167 221 -320 268 -29 9 -54 21 -55 26 -3 15 144 83 203 94 62
12 95 32 128 81 20 28 23 43 20 87 -10 117 -111 175 -243 138z"/>
<path d="M4070 4805 c-129 -36 -327 -151 -356 -207 -24 -45 -15 -130 17 -164
65 -70 126 -72 229 -7 87 54 170 90 220 95 l35 3 -1 -60 c-2 -71 -50 -227
-131 -419 -63 -150 -64 -164 -8 -256 60 -98 96 -109 249 -74 222 50 400 67
476 45 23 -7 25 -11 23 -67 -2 -72 -31 -165 -120 -374 -54 -129 -64 -161 -60
-194 11 -83 91 -140 185 -133 81 6 100 31 170 222 100 270 126 398 110 541
-28 251 -243 344 -647 278 -39 -6 -44 -5 -38 10 55 144 99 338 99 446 1 145
-57 247 -171 302 -59 29 -200 35 -281 13z"/>
<path d="M2012 3934 c-111 -46 -252 -80 -387 -95 -119 -12 -152 -24 -184 -65
-87 -111 -11 -264 132 -264 131 0 602 132 667 186 81 69 54 218 -47 260 -49
21 -89 16 -181 -22z"/>
<path d="M3690 3696 c-96 -33 -169 -73 -321 -174 -142 -94 -169 -124 -169
-189 0 -45 41 -113 80 -135 51 -28 97 -18 188 40 90 58 263 152 280 152 26 0
-60 -216 -170 -428 -33 -65 -66 -124 -73 -132 -43 -50 -49 -129 -15 -184 22
-36 90 -76 129 -76 38 0 228 67 336 119 262 125 416 276 403 396 -9 79 -72
135 -153 135 -51 0 -83 -19 -141 -87 -51 -57 -124 -112 -111 -82 34 77 80 201
93 247 22 83 29 203 14 256 -39 141 -199 202 -370 142z"/>
<path d="M2315 3375 c-155 -22 -242 -42 -270 -62 -30 -22 -65 -89 -65 -126 0
-43 30 -106 62 -128 46 -33 91 -33 253 0 162 33 265 40 265 18 0 -24 -30 -113
-60 -180 -46 -102 -38 -164 30 -220 61 -52 154 -45 208 17 32 37 84 153 107
242 51 198 9 350 -117 419 -50 28 -59 30 -183 32 -71 1 -175 -5 -230 -12z"/>
<path d="M1182 3095 c-76 -23 -133 -71 -158 -132 -16 -37 -18 -120 -5 -155 15
-39 73 -89 119 -101 l42 -11 0 -311 c0 -318 8 -412 45 -538 30 -103 98 -157
196 -157 113 0 193 73 193 176 1 53 2 54 34 60 51 10 89 49 126 130 66 141
231 364 258 348 7 -5 8 -69 4 -193 -9 -220 -17 -290 -52 -434 -26 -105 -26
-109 -9 -152 32 -86 127 -118 215 -73 57 29 80 71 115 208 23 90 28 140 38
345 12 276 4 362 -41 459 -77 165 -234 219 -391 136 -72 -39 -184 -153 -268
-272 -30 -43 -58 -80 -61 -82 -4 -2 -6 59 -4 135 7 223 -16 387 -67 486 -26
52 -99 116 -149 131 -51 15 -126 14 -180 -3z"/>
<path d="M4834 2901 c-85 -39 -126 -104 -133 -215 l-6 -78 -40 -15 c-200 -76
-333 -151 -405 -229 -129 -140 -160 -372 -84 -615 23 -73 83 -180 117 -208 24
-20 21 -29 -15 -44 -18 -8 -53 -31 -76 -51 -24 -20 -50 -36 -57 -36 -7 0 -56
11 -109 25 -148 38 -226 47 -322 35 -231 -29 -373 -123 -548 -364 -43 -58 -86
-108 -97 -111 -11 -4 -45 -30 -77 -59 -104 -97 -179 -118 -264 -75 -88 45
-201 191 -265 342 -43 103 -64 131 -116 156 -127 61 -277 -19 -277 -148 0 -81
110 -312 218 -458 147 -198 330 -303 529 -303 151 0 263 44 390 152 35 29 76
63 93 76 16 13 58 65 92 115 79 117 200 240 264 269 64 29 150 29 269 0 250
-60 417 -27 554 110 78 78 98 149 66 231 -5 11 -2 17 7 17 37 0 122 34 154 62
48 43 67 83 68 148 1 73 -39 157 -99 206 -70 57 -104 150 -75 205 14 25 61 48
190 94 58 20 125 48 150 62 147 83 230 252 230 469 0 120 -20 171 -89 219 -37
26 -53 30 -119 33 -59 2 -86 -2 -118 -17z"/>
<path d="M3370 2394 c-14 -3 -146 -28 -293 -55 -312 -58 -408 -81 -441 -106
-101 -76 -99 -241 5 -310 62 -41 95 -43 229 -17 153 31 519 94 543 94 14 0 17
-10 17 -60 0 -170 160 -254 303 -159 73 48 92 97 92 244 0 116 -1 123 -33 187
-59 121 -156 178 -312 183 -47 2 -96 1 -110 -1z"/>
</g>
</svg>
