<?xml version="1.0" standalone="no"?>
<!DOCTYPE svg PUBLIC "-//W3C//DTD SVG 20010904//EN"
 "http://www.w3.org/TR/2001/REC-SVG-20010904/DTD/svg10.dtd">
<svg version="1.0" xmlns="http://www.w3.org/2000/svg"
 width="600.000000pt" height="600.000000pt" viewBox="0 0 600.000000 600.000000"
 preserveAspectRatio="xMidYMid meet">
<metadata>
Created by potrace 1.15, written by Peter Selinger 2001-2017
</metadata>
<g transform="translate(0.000000,600.000000) scale(0.100000,-0.100000)"
fill="#16364b" stroke="none">
<path d="M2263 5460 c-41 -25 -57 -50 -89 -141 -56 -162 -25 -308 79 -373 45
-28 54 -30 145 -28 53 1 141 7 194 15 54 8 100 12 102 10 2 -3 -21 -41 -53
-86 -89 -129 -146 -224 -195 -327 -55 -118 -106 -262 -106 -301 0 -37 34 -105
60 -121 16 -10 18 -20 13 -73 -4 -52 -2 -65 19 -95 27 -40 79 -70 124 -70 29
0 184 38 453 110 62 16 168 37 234 46 67 8 134 22 149 30 89 46 91 202 5 259
-41 26 -79 32 -152 24 -116 -14 -216 -37 -407 -94 -100 -30 -184 -52 -186 -50
-19 18 120 298 238 480 46 71 97 155 113 187 91 184 -3 354 -210 375 -30 3
-115 0 -189 -7 -74 -7 -137 -10 -140 -8 -2 3 3 22 12 43 53 128 -98 266 -213
195z"/>
<path d="M3855 5072 c-122 -37 -240 -104 -269 -153 -54 -92 29 -229 140 -229
30 0 65 12 123 42 60 31 92 42 128 42 l48 1 3 -58 c4 -74 -26 -197 -84 -344
-24 -62 -47 -125 -50 -142 -8 -41 11 -92 47 -127 27 -26 37 -29 93 -29 l63 0
-1 -52 c0 -59 19 -93 74 -130 42 -29 70 -29 238 3 139 26 287 36 310 21 32
-21 0 -214 -68 -412 -50 -146 -38 -219 43 -256 53 -24 81 -23 134 1 54 24 75
58 117 195 77 248 97 375 77 482 -35 191 -185 303 -405 303 -69 0 -257 -30
-373 -59 -40 -10 -73 -16 -73 -14 0 2 16 42 35 89 109 263 148 432 125 546
-24 122 -91 218 -188 265 -73 35 -197 42 -287 15z"/>
<path d="M1743 4956 c-157 -25 -319 -92 -458 -187 -128 -88 -147 -113 -147
-188 0 -49 31 -121 53 -121 5 0 15 -15 22 -33 22 -51 78 -95 134 -102 86 -12
246 -45 321 -65 95 -26 153 -57 226 -119 34 -29 74 -54 92 -57 103 -19 199 95
164 195 -36 104 -219 225 -440 291 -41 12 -69 25 -64 30 19 18 162 50 226 50
61 0 71 3 101 30 45 39 61 79 55 139 -12 121 -104 165 -285 137z"/>
<path d="M2095 3893 c-118 -42 -272 -73 -400 -79 -138 -6 -180 -20 -214 -69
-58 -86 -37 -185 51 -231 68 -35 318 -6 564 67 221 65 277 106 277 204 0 121
-117 166 -278 108z"/>
<path d="M3695 3701 c-139 -44 -501 -211 -544 -251 -29 -28 -51 -80 -51 -121
0 -41 38 -107 72 -125 57 -30 92 -20 304 87 111 56 206 100 213 98 6 -2 -18
-67 -60 -159 -55 -118 -72 -166 -72 -202 -2 -127 154 -205 240 -119 29 29 131
249 191 411 47 129 50 223 9 292 -55 94 -173 129 -302 89z"/>
<path d="M2170 3300 c-103 -13 -129 -21 -160 -47 -86 -72 -80 -177 16 -249 43
-33 42 -33 287 -20 l157 9 0 -22 c0 -12 -9 -47 -20 -78 -26 -73 -25 -109 3
-157 62 -109 240 -99 296 16 95 199 52 402 -106 495 -83 48 -153 63 -291 62
-70 -1 -152 -5 -182 -9z"/>
<path d="M4215 3161 c-16 -10 -50 -40 -75 -66 -117 -122 -390 -255 -525 -255
-173 0 -241 -202 -95 -282 103 -57 484 44 683 181 63 43 153 127 199 184 34
44 38 55 38 105 0 64 -19 102 -66 133 -39 25 -119 25 -159 0z"/>
<path d="M4879 3122 c-39 -20 -62 -41 -84 -77 -29 -47 -30 -53 -30 -164 l0
-116 -55 -36 c-30 -20 -86 -56 -125 -80 -38 -24 -102 -75 -141 -114 -123 -122
-166 -246 -168 -485 -1 -188 29 -281 126 -386 110 -120 301 -89 381 61 29 55
29 154 -1 212 -12 23 -26 44 -31 48 -17 10 -24 93 -11 143 14 61 32 78 182
176 244 160 317 284 305 521 -6 131 -26 191 -80 247 -79 81 -174 99 -268 50z"/>
<path d="M1226 3046 c-21 -8 -52 -27 -68 -43 -38 -35 -78 -118 -78 -161 0 -64
54 -152 106 -172 28 -11 31 -29 54 -335 23 -293 41 -425 76 -536 20 -63 32
-84 68 -117 66 -61 145 -68 217 -19 73 49 98 149 64 261 -8 27 -15 57 -15 67
0 18 2 18 33 -1 44 -27 119 -27 164 1 21 13 61 63 107 133 40 61 89 126 109
145 l36 34 16 -39 c9 -21 23 -46 32 -56 10 -11 14 -27 10 -45 -4 -16 -17 -77
-31 -138 -31 -137 -45 -249 -47 -386 -2 -90 1 -112 18 -140 43 -74 131 -104
206 -71 74 33 79 48 93 266 9 133 20 225 38 303 14 61 26 126 26 143 0 31 -31
103 -50 115 -5 3 -10 21 -10 39 0 51 -39 152 -84 219 -56 82 -126 122 -211
121 -127 -2 -221 -80 -370 -309 l-90 -138 -7 184 c-15 399 -78 587 -222 661
-51 26 -139 33 -190 14z"/>
<path d="M3390 2260 c-482 -103 -674 -151 -706 -175 -125 -95 -85 -301 67
-347 37 -10 57 -8 212 30 179 43 271 59 497 87 127 16 135 16 145 0 54 -93 85
-117 158 -123 70 -6 117 10 163 54 96 93 92 260 -8 364 -116 119 -303 158
-528 110z"/>
<path d="M4450 1543 c-14 -9 -46 -36 -71 -59 -26 -24 -64 -47 -86 -53 -22 -6
-127 -11 -235 -11 -260 1 -340 -15 -516 -104 -120 -60 -245 -172 -345 -308
-16 -21 -36 -38 -45 -38 -23 0 -70 -30 -117 -74 -102 -95 -207 -112 -331 -52
-91 43 -174 121 -278 261 -99 132 -141 160 -238 159 -146 -2 -219 -143 -147
-286 111 -220 280 -384 504 -489 123 -57 191 -72 320 -67 175 7 299 60 439
189 39 36 91 75 116 87 31 14 61 42 92 83 105 137 181 203 275 240 54 21 74
23 308 24 270 1 295 5 415 63 63 31 165 128 186 178 8 18 14 60 14 92 0 109
-74 182 -183 182 -33 0 -62 -6 -77 -17z"/>
</g>
</svg>
