<?xml version="1.0" standalone="no"?>
<!DOCTYPE svg PUBLIC "-//W3C//DTD SVG 20010904//EN"
 "http://www.w3.org/TR/2001/REC-SVG-20010904/DTD/svg10.dtd">
<svg version="1.0" xmlns="http://www.w3.org/2000/svg"
 width="600.000000pt" height="600.000000pt" viewBox="0 0 600.000000 600.000000"
 preserveAspectRatio="xMidYMid meet">
<metadata>
Created by potrace 1.15, written by Peter Selinger 2001-2017
</metadata>
<g transform="translate(0.000000,600.000000) scale(0.100000,-0.100000)"
fill="#16364b" stroke="none">
<path d="M2355 5395 c-25 -24 -25 -26 -25 -207 0 -101 -4 -210 -10 -243 -38
-207 -124 -337 -277 -418 -55 -29 -73 -44 -82 -68 -14 -39 2 -77 41 -98 25
-14 31 -13 100 22 155 79 257 191 319 351 53 138 69 237 69 444 l0 184 -29 29
c-36 36 -73 37 -106 4z"/>
<path d="M3542 5295 c-25 -19 -52 -65 -52 -92 0 -27 53 -133 89 -178 18 -21
55 -56 83 -77 42 -32 58 -38 99 -38 56 0 93 26 105 75 19 76 -84 248 -178 296
-55 28 -118 34 -146 14z"/>
<path d="M3038 5130 c-109 -34 -197 -148 -205 -265 -9 -130 89 -208 203 -160
72 30 123 76 155 141 56 113 47 215 -22 266 -29 21 -94 30 -131 18z m21 -192
c-9 -35 -61 -88 -67 -70 -3 11 22 66 40 90 6 6 16 12 24 12 9 0 10 -8 3 -32z"/>
<path d="M4775 4773 c-53 -13 -85 -73 -85 -158 0 -145 39 -367 81 -466 26 -59
86 -114 136 -124 26 -5 46 0 81 17 39 19 52 34 77 82 26 51 31 73 33 151 3 81
0 103 -25 177 -34 97 -85 179 -163 260 -55 57 -89 72 -135 61z"/>
<path d="M2647 4226 c-138 -51 -159 -217 -40 -315 77 -63 253 -91 354 -56 118
41 196 129 186 208 -8 60 -37 80 -180 126 -148 48 -257 61 -320 37z"/>
<path d="M1145 4146 c-47 -20 -89 -106 -90 -181 0 -152 123 -250 278 -221 76
14 137 120 120 208 -16 86 -86 154 -197 191 -59 20 -71 20 -111 3z"/>
<path d="M5233 3936 c-150 -49 -238 -160 -237 -301 1 -226 158 -371 373 -344
202 25 331 157 331 337 -1 122 -68 203 -248 302 -36 19 -166 23 -219 6z m125
-272 c27 -8 29 -30 3 -44 -30 -15 -49 -12 -61 10 -19 35 3 48 58 34z"/>
<path d="M4191 3764 c-63 -22 -109 -54 -159 -108 -157 -171 -118 -395 84 -472
33 -12 64 -15 126 -12 101 6 163 34 226 102 68 74 85 122 89 256 4 102 2 119
-16 147 -50 80 -237 126 -350 87z m79 -276 c0 -19 -31 -48 -52 -48 -24 0 -23
9 4 37 23 25 48 31 48 11z"/>
<path d="M3454 3380 c-59 -24 -197 -254 -198 -329 0 -47 40 -81 97 -81 37 0
47 6 97 58 67 68 121 185 124 265 1 42 -3 52 -27 73 -29 25 -56 29 -93 14z"/>
<path d="M1235 3260 c-82 -5 -177 -16 -209 -25 -209 -56 -329 -225 -313 -436
11 -138 72 -254 176 -332 91 -68 153 -88 386 -127 95 -16 157 -52 212 -122 61
-80 101 -172 187 -426 41 -119 85 -243 99 -274 64 -143 176 -261 311 -327 150
-74 263 -90 611 -90 138 1 315 -6 415 -15 312 -27 343 -28 480 -17 297 25 611
87 795 156 160 60 319 157 441 268 117 106 203 256 251 435 24 87 26 116 27
277 1 199 -11 266 -66 382 -81 173 -325 332 -589 384 -93 18 -257 6 -354 -26
-115 -38 -265 -112 -423 -208 -75 -46 -159 -93 -187 -104 -71 -30 -191 -47
-288 -41 -154 10 -263 61 -602 278 -342 218 -448 273 -643 334 -180 56 -400
74 -717 56z m567 -399 c142 -37 216 -78 528 -298 362 -254 646 -365 940 -366
167 -1 296 46 508 182 323 207 555 259 747 165 72 -36 149 -105 168 -152 8
-21 21 -75 28 -120 21 -140 -16 -346 -79 -437 -41 -58 -133 -129 -242 -184
-162 -83 -326 -128 -565 -156 -119 -14 -196 -16 -505 -9 -201 4 -471 6 -600 6
-348 -2 -461 16 -541 87 -25 21 -57 61 -71 87 -25 47 -36 78 -109 314 -149
482 -377 717 -734 755 -85 9 -151 32 -174 61 -42 53 3 76 164 85 202 12 449 2
537 -20z"/>
<path d="M433 2075 c-29 -21 -39 -70 -19 -98 8 -12 41 -60 73 -107 95 -138
203 -201 287 -166 49 20 73 74 57 126 -23 78 -104 152 -240 221 -81 42 -124
48 -158 24z"/>
<path d="M5247 1160 c-63 -40 -87 -81 -87 -148 0 -99 47 -162 122 -162 87 0
131 67 132 203 1 85 0 90 -27 113 -38 32 -81 31 -140 -6z"/>
</g>
</svg>
