<?xml version="1.0" standalone="no"?>
<!DOCTYPE svg PUBLIC "-//W3C//DTD SVG 20010904//EN"
 "http://www.w3.org/TR/2001/REC-SVG-20010904/DTD/svg10.dtd">
<svg version="1.0" xmlns="http://www.w3.org/2000/svg"
 width="600.000000pt" height="600.000000pt" viewBox="0 0 600.000000 600.000000"
 preserveAspectRatio="xMidYMid meet">
<metadata>
Created by potrace 1.15, written by Peter Selinger 2001-2017
</metadata>
<g transform="translate(0.000000,600.000000) scale(0.100000,-0.100000)"
fill="#16364b" stroke="none">
<path d="M1872 4834 c-64 -32 -115 -90 -142 -161 -29 -78 -26 -152 10 -251 39
-108 76 -296 89 -455 12 -143 13 -713 1 -1202 -6 -263 -11 -339 -28 -427 -12
-59 -28 -199 -37 -312 -14 -186 -14 -210 0 -251 8 -25 15 -57 15 -70 0 -21 5
-25 29 -25 16 0 31 -6 35 -15 9 -24 33 -6 51 37 9 22 17 39 19 37 2 -2 18 -41
35 -85 18 -45 49 -108 69 -140 85 -131 255 -243 440 -287 l93 -23 3 -154 c3
-178 21 -270 113 -583 5 -15 -3 -17 -81 -17 -132 0 -191 -34 -191 -110 0 -80
91 -124 211 -102 123 22 193 75 214 162 14 57 12 63 -46 270 -66 238 -88 397
-68 499 l7 32 61 -5 c33 -3 254 -8 490 -11 l428 -6 -1 -113 c-2 -132 27 -354
64 -480 14 -48 25 -92 25 -100 0 -10 -21 -13 -94 -12 -81 1 -98 -2 -123 -20
-62 -47 -50 -134 24 -169 27 -13 59 -19 108 -18 113 1 201 50 237 130 23 53
21 80 -16 218 -32 117 -66 344 -65 430 0 33 6 80 12 104 l12 45 128 18 c167
24 382 80 463 120 161 80 287 236 330 408 25 99 15 315 -20 433 -15 49 -35
106 -46 127 -25 49 -25 52 3 50 40 -4 48 0 45 18 -1 9 4 32 11 50 14 32 13 35
-15 58 -16 14 -42 36 -58 49 -15 14 -33 25 -40 25 -7 0 -16 4 -21 9 -36 35
-367 178 -560 242 -55 18 -127 49 -160 69 -76 46 -169 96 -369 200 -284 147
-419 243 -611 435 -135 135 -203 226 -301 400 -61 110 -294 573 -373 743 -63
137 -166 212 -292 212 -50 0 -77 -6 -117 -26z m194 -145 c40 -25 82 -83 113
-159 12 -30 51 -113 86 -185 35 -71 106 -218 158 -325 152 -315 249 -460 427
-638 162 -161 333 -280 615 -427 214 -111 321 -171 388 -217 32 -21 165 -91
295 -155 l237 -117 91 -90 c105 -106 134 -157 165 -296 46 -210 0 -398 -131
-529 -64 -64 -125 -93 -290 -135 -273 -71 -277 -71 -855 -69 -836 3 -883 6
-1021 75 -58 29 -142 101 -178 153 -83 120 -144 337 -165 585 -14 168 -18 785
-7 1100 6 178 5 335 -3 520 -17 372 -40 532 -96 689 -27 75 -32 143 -11 179
33 60 120 80 182 41z m-196 -2939 c0 -5 -10 -10 -22 -9 -22 0 -22 1 -3 9 11 5
21 9 23 9 1 1 2 -3 2 -9z"/>
<path d="M2582 2698 c-22 -22 -14 -75 14 -97 34 -27 55 -26 82 2 27 28 28 68
4 90 -22 20 -83 22 -100 5z"/>
<path d="M3046 2529 c-34 -26 -34 -62 0 -88 36 -28 68 -26 93 5 27 34 27 58
-1 84 -28 26 -58 26 -92 -1z"/>
<path d="M5237 3989 c-161 -38 -264 -204 -236 -382 12 -77 40 -129 100 -189
72 -72 124 -93 234 -93 71 0 100 5 137 22 199 91 271 364 137 516 -99 114
-233 159 -372 126z m117 -319 c33 -12 33 -25 0 -47 -25 -16 -27 -16 -40 2 -18
25 -18 55 0 55 8 0 26 -4 40 -10z"/>
<path d="M5333 1085 c-29 -20 -63 -114 -63 -175 0 -89 73 -140 152 -107 51 21
78 82 78 176 0 65 -3 74 -26 96 -32 29 -106 34 -141 10z"/>
</g>
</svg>
