<?xml version="1.0" standalone="no"?>
<!DOCTYPE svg PUBLIC "-//W3C//DTD SVG 20010904//EN"
 "http://www.w3.org/TR/2001/REC-SVG-20010904/DTD/svg10.dtd">
<svg version="1.0" xmlns="http://www.w3.org/2000/svg"
 width="600.000000pt" height="600.000000pt" viewBox="0 0 600.000000 600.000000"
 preserveAspectRatio="xMidYMid meet">
<metadata>
Created by potrace 1.15, written by Peter Selinger 2001-2017
</metadata>
<g transform="translate(0.000000,600.000000) scale(0.100000,-0.100000)"
fill="#16364b" stroke="none">
<path d="M2900 5517 c-76 -50 -97 -149 -48 -222 15 -22 37 -69 50 -105 20 -57
23 -84 23 -220 0 -144 2 -157 22 -186 58 -80 191 -85 251 -9 12 15 27 46 33
69 18 66 15 212 -6 296 -30 123 -105 294 -158 361 -35 44 -114 52 -167 16z"/>
<path d="M2007 5445 c-161 -57 -127 -255 72 -421 89 -74 114 -114 186 -286 67
-161 91 -189 168 -196 65 -5 109 14 137 61 31 50 25 99 -30 239 -96 247 -139
313 -272 417 -46 36 -69 61 -73 81 -9 42 -43 80 -89 101 -49 22 -50 22 -99 4z"/>
<path d="M1405 4780 c-17 -5 -46 -25 -64 -44 -64 -66 -51 -177 28 -234 39 -29
43 -29 203 -35 175 -6 294 -28 390 -69 75 -33 145 -31 192 6 51 39 69 71 69
122 0 80 -43 116 -213 178 -166 61 -249 77 -420 82 -85 2 -169 -1 -185 -6z"/>
<path d="M4350 4712 c-39 -20 -80 -89 -80 -133 0 -14 25 -77 55 -138 65 -133
112 -246 149 -357 33 -100 85 -154 148 -154 39 1 104 36 128 69 41 59 38 92
-25 257 -57 146 -144 338 -184 402 -43 67 -122 90 -191 54z"/>
<path d="M3185 4519 c-11 -6 -105 -98 -210 -204 -104 -105 -236 -229 -292
-274 -133 -109 -156 -158 -112 -247 15 -31 32 -48 63 -63 79 -39 116 -25 264
96 138 114 234 209 357 357 127 154 143 201 99 288 -26 50 -116 75 -169 47z"/>
<path d="M1710 4323 c-51 -19 -90 -83 -90 -150 0 -58 26 -105 71 -128 71 -37
486 -60 630 -35 115 20 169 72 169 163 0 81 -48 145 -117 154 -21 3 -76 -2
-122 -11 -103 -20 -225 -20 -356 -1 -104 15 -159 17 -185 8z"/>
<path d="M3785 4051 c-16 -10 -60 -46 -97 -81 -200 -184 -362 -287 -634 -400
-114 -47 -147 -75 -164 -135 -20 -73 19 -146 94 -175 37 -14 64 -8 179 39 213
87 404 191 546 298 90 67 267 237 287 275 32 61 9 143 -49 178 -42 26 -121 26
-162 1z"/>
<path d="M2275 3774 c-77 -19 -363 -29 -478 -16 -106 12 -145 3 -193 -41 -65
-59 -67 -152 -5 -216 33 -34 45 -40 127 -54 234 -43 405 -40 595 8 121 30 157
50 187 103 39 70 23 148 -41 196 -44 34 -110 40 -192 20z"/>
<path d="M5013 3694 c-59 -21 -118 -89 -139 -160 -15 -53 -15 -61 1 -123 26
-103 31 -236 10 -306 -41 -143 -210 -402 -381 -586 -74 -78 -93 -113 -101
-179 -19 -163 166 -282 326 -209 48 21 208 178 310 303 170 208 304 476 340
680 25 141 5 342 -45 444 -31 63 -94 114 -168 137 -60 18 -98 18 -153 -1z"/>
<path d="M1960 3114 c-47 -21 -67 -40 -81 -81 -49 -149 147 -255 524 -284 147
-11 148 -11 194 12 61 32 86 76 80 147 -3 41 -10 59 -33 83 -53 56 -74 62
-264 69 -173 8 -211 15 -285 54 -37 20 -89 20 -135 0z"/>
<path d="M4398 3116 c-15 -8 -61 -44 -103 -81 -234 -204 -452 -293 -827 -340
-138 -17 -178 -35 -208 -96 -35 -68 -21 -131 40 -182 17 -15 47 -29 68 -33 87
-17 430 44 612 108 204 72 348 160 539 328 81 71 101 104 101 168 0 56 -28
100 -81 127 -35 19 -106 19 -141 1z"/>
<path d="M1387 2921 c-66 -42 -89 -93 -95 -204 -8 -161 26 -472 68 -627 45
-163 200 -423 296 -496 27 -21 50 -29 93 -32 120 -9 201 70 201 195 0 58 -18
103 -58 142 -30 30 -91 133 -113 190 -47 126 -79 350 -79 564 0 123 -13 175
-56 225 -67 79 -172 96 -257 43z"/>
<path d="M2113 2359 c-98 -48 -112 -216 -24 -278 14 -10 80 -37 146 -60 66
-23 150 -60 188 -83 84 -51 137 -59 195 -29 50 25 82 81 82 141 0 78 -37 119
-165 183 -84 42 -346 147 -366 147 -8 0 -33 -9 -56 -21z"/>
<path d="M4095 2049 c-77 -26 -210 -66 -295 -88 -144 -37 -579 -128 -800 -167
-52 -9 -106 -22 -120 -29 -35 -18 -87 -75 -99 -108 -40 -106 31 -225 144 -242
79 -12 668 90 990 172 99 25 242 65 317 89 123 40 140 48 171 84 94 110 64
284 -56 329 -51 19 -110 10 -252 -40z"/>
<path d="M4852 1729 c-27 -14 -63 -47 -97 -88 -130 -164 -254 -240 -516 -315
-205 -58 -317 -85 -459 -112 -174 -31 -193 -38 -229 -79 -99 -113 -39 -297
109 -335 39 -11 62 -9 174 14 233 48 655 181 821 260 136 64 230 130 337 236
130 129 156 189 127 293 -21 77 -111 146 -189 147 -19 0 -54 -10 -78 -21z"/>
<path d="M2054 1461 c-72 -33 -104 -97 -90 -178 6 -30 23 -53 86 -113 43 -41
103 -90 134 -108 130 -79 347 -153 489 -168 109 -11 177 40 177 134 0 98 -58
154 -175 172 -89 13 -147 31 -225 69 -78 39 -109 60 -192 133 -91 80 -132 92
-204 59z"/>
<path d="M2020 918 c-24 -13 -57 -40 -74 -61 -26 -32 -31 -48 -34 -105 -5
-114 37 -163 221 -255 186 -93 420 -141 687 -141 142 0 196 4 289 23 63 12
131 29 150 37 73 31 131 112 131 184 0 75 -62 161 -129 180 -49 14 -52 13
-166 -16 -264 -66 -491 -33 -824 121 -135 63 -180 69 -251 33z"/>
</g>
</svg>
