<?xml version="1.0" standalone="no"?>
<!DOCTYPE svg PUBLIC "-//W3C//DTD SVG 20010904//EN"
 "http://www.w3.org/TR/2001/REC-SVG-20010904/DTD/svg10.dtd">
<svg version="1.0" xmlns="http://www.w3.org/2000/svg"
 width="600.000000pt" height="600.000000pt" viewBox="0 0 600.000000 600.000000"
 preserveAspectRatio="xMidYMid meet">
<metadata>
Created by potrace 1.15, written by Peter Selinger 2001-2017
</metadata>
<g transform="translate(0.000000,600.000000) scale(0.100000,-0.100000)"
fill="#16364b" stroke="none">
<path d="M2386 5368 c-12 -17 -16 -51 -16 -148 0 -409 -83 -619 -286 -722 -76
-38 -90 -54 -80 -91 11 -45 47 -45 139 -1 238 114 337 349 340 806 1 107 -3
151 -12 162 -20 24 -67 20 -85 -6z"/>
<path d="M3530 5248 c-26 -44 -25 -54 11 -127 51 -102 152 -191 217 -191 29 0
70 37 77 70 12 56 -71 193 -155 255 -25 19 -46 25 -82 25 -44 0 -50 -3 -68
-32z"/>
<path d="M3025 5066 c-67 -31 -134 -128 -150 -218 -17 -91 26 -158 100 -158
118 0 270 199 236 310 -6 20 -20 45 -31 55 -26 24 -114 30 -155 11z m85 -114
c0 -33 -41 -94 -91 -136 l-34 -29 -3 24 c-8 51 25 115 78 152 35 25 50 21 50
-11z"/>
<path d="M4782 4730 c-12 -5 -27 -21 -32 -35 -6 -15 -11 -142 -13 -283 -2
-247 -1 -259 20 -305 17 -36 31 -51 59 -63 131 -55 193 102 149 376 -29 175
-69 281 -115 305 -33 17 -36 17 -68 5z"/>
<path d="M2639 4205 c-15 -8 -34 -31 -44 -50 -31 -67 3 -128 98 -174 93 -46
178 -64 272 -59 92 5 137 24 160 68 40 77 7 118 -132 165 -201 67 -297 81
-354 50z"/>
<path d="M5262 3964 c-103 -27 -176 -85 -219 -172 -55 -113 -28 -269 64 -372
98 -109 212 -125 368 -51 135 64 205 163 213 301 4 67 1 85 -20 131 -30 65
-77 112 -149 151 -46 24 -65 28 -129 27 -41 0 -99 -7 -128 -15z m136 -289 c9
-9 -30 -45 -50 -45 -19 0 -40 37 -31 54 6 8 71 2 81 -9z"/>
<path d="M1362 3885 c-59 -18 -106 -57 -139 -113 -25 -42 -28 -56 -28 -142 0
-81 4 -102 25 -144 31 -60 113 -136 186 -172 59 -29 87 -60 127 -139 40 -82
106 -271 132 -379 31 -132 92 -569 100 -721 16 -309 60 -462 181 -632 89 -124
227 -215 384 -250 44 -10 80 -20 80 -23 0 -3 -37 -20 -82 -39 -59 -25 -98 -50
-141 -91 -58 -54 -60 -59 -65 -114 -4 -52 -2 -60 23 -86 34 -35 114 -55 189
-46 118 14 488 36 497 30 6 -4 -9 -24 -35 -49 -38 -34 -46 -48 -46 -76 0 -68
59 -111 124 -89 68 22 136 132 136 219 0 52 -30 102 -76 125 -34 18 -54 21
-163 18 -69 -1 -187 -9 -264 -17 -166 -18 -211 -19 -202 -5 13 22 131 72 302
130 l177 60 166 0 c175 -1 499 -22 518 -34 7 -4 12 -13 12 -19 1 -19 33 -53
71 -73 28 -16 56 -19 168 -19 l133 -1 13 -30 c21 -52 117 -77 202 -53 67 18
133 87 133 138 0 49 -38 85 -105 102 l-50 13 131 27 c252 52 465 129 594 214
78 52 201 176 259 263 108 160 146 290 138 467 -7 134 -24 203 -82 320 -94
190 -268 337 -443 374 -67 14 -205 14 -274 0 -79 -16 -186 -72 -248 -130 -157
-146 -349 -230 -597 -260 -162 -19 -315 11 -486 97 -218 109 -393 269 -524
478 -304 486 -415 597 -772 775 -228 113 -282 127 -379 96z m188 -270 c25 -13
73 -38 107 -54 225 -107 390 -273 627 -633 83 -128 218 -301 258 -333 7 -6 40
-33 73 -62 90 -76 243 -177 341 -223 236 -111 484 -136 744 -76 237 55 400
135 561 277 37 32 80 64 95 70 56 21 140 29 194 19 141 -27 231 -103 312 -266
46 -93 51 -109 55 -190 6 -104 -10 -181 -58 -276 -112 -222 -277 -328 -667
-428 -252 -65 -504 -81 -927 -61 -137 7 -359 12 -493 13 -194 0 -261 4 -331
18 -282 58 -391 239 -430 720 -11 130 -55 481 -76 613 -18 107 -46 200 -105
346 -111 277 -162 350 -301 432 -65 38 -99 73 -99 104 0 24 68 18 120 -10z"/>
<path d="M2340 2430 c-27 -27 -25 -62 3 -88 47 -44 110 -13 110 55 0 51 -74
72 -113 33z"/>
<path d="M2826 2038 c-9 -12 -16 -31 -16 -41 0 -23 47 -67 71 -67 48 0 78 80
43 114 -24 24 -80 20 -98 -6z"/>
<path d="M4197 3755 c-95 -35 -182 -130 -213 -231 -61 -203 78 -388 280 -372
210 17 343 237 282 467 -18 67 -36 87 -111 122 -49 24 -73 29 -130 28 -38 0
-87 -7 -108 -14z m103 -311 c-14 -16 -50 -19 -50 -4 0 6 12 23 28 38 l27 27 3
-23 c2 -13 -2 -30 -8 -38z"/>
<path d="M3443 3326 c-39 -44 -153 -267 -153 -300 0 -29 24 -56 50 -56 51 0
210 246 210 326 0 35 -26 64 -57 64 -12 0 -34 -15 -50 -34z"/>
<path d="M471 2001 c-38 -38 -32 -50 74 -127 134 -98 230 -129 268 -86 45 50
2 100 -150 174 -127 61 -163 68 -192 39z"/>
<path d="M5367 1113 c-25 -7 -68 -97 -74 -158 -9 -86 28 -135 101 -135 71 0
116 70 116 182 0 45 -5 60 -25 82 -13 14 -32 26 -42 26 -10 0 -27 2 -38 4 -11
2 -28 2 -38 -1z"/>
</g>
</svg>
