<?xml version="1.0" standalone="no"?>
<!DOCTYPE svg PUBLIC "-//W3C//DTD SVG 20010904//EN"
 "http://www.w3.org/TR/2001/REC-SVG-20010904/DTD/svg10.dtd">
<svg version="1.0" xmlns="http://www.w3.org/2000/svg"
 width="600.000000pt" height="600.000000pt" viewBox="0 0 600.000000 600.000000"
 preserveAspectRatio="xMidYMid meet">
<metadata>
Created by potrace 1.15, written by Peter Selinger 2001-2017
</metadata>
<g transform="translate(0.000000,600.000000) scale(0.100000,-0.100000)"
fill="#16364b" stroke="none">
<path d="M1484 5719 c-38 -28 -126 -88 -196 -135 -139 -92 -168 -125 -168
-193 0 -34 6 -49 31 -73 29 -29 33 -30 92 -26 34 3 169 32 300 64 269 66 287
75 287 146 0 31 -7 46 -30 70 -28 28 -35 30 -85 26 l-54 -5 15 29 c32 62 -24
148 -97 148 -16 0 -54 -20 -95 -51z"/>
<path d="M2359 5401 c-27 -28 -29 -34 -29 -113 0 -113 -17 -282 -40 -397 -35
-172 -99 -264 -235 -338 -86 -47 -114 -90 -95 -149 16 -46 62 -77 111 -71 64
8 190 77 250 139 108 109 155 239 183 498 27 255 30 373 12 408 -32 61 -108
72 -157 23z"/>
<path d="M3502 5324 c-27 -19 -62 -85 -62 -118 0 -50 44 -139 96 -196 72 -77
142 -114 217 -115 54 0 61 3 88 33 55 62 36 154 -59 280 -49 66 -93 98 -156
117 -64 19 -96 19 -124 -1z"/>
<path d="M2965 5106 c-96 -44 -165 -154 -165 -264 0 -155 98 -221 235 -158
117 53 154 102 171 226 12 87 -32 178 -99 205 -51 21 -83 19 -142 -9z"/>
<path d="M4761 4768 c-13 -7 -34 -26 -45 -41 -19 -26 -21 -41 -20 -175 2 -235
43 -373 136 -456 91 -83 202 -83 283 -1 49 49 70 112 68 203 -4 150 -89 288
-258 417 -78 60 -124 74 -164 53z"/>
<path d="M2688 4205 c-229 -63 -251 -306 -38 -417 38 -19 60 -23 135 -23 110
1 184 28 288 107 94 70 121 112 115 181 -4 53 -26 94 -60 116 -10 6 -58 20
-108 31 -103 23 -258 26 -332 5z"/>
<path d="M1104 4110 c-59 -23 -87 -106 -58 -167 20 -40 43 -55 153 -95 36 -13
66 -29 69 -36 5 -17 -108 -16 -178 3 -41 11 -63 12 -86 5 -102 -34 -111 -182
-14 -231 59 -30 198 -45 283 -31 127 22 230 88 263 168 18 43 18 125 0 169
-33 78 -152 162 -290 204 -72 22 -108 25 -142 11z"/>
<path d="M4193 3751 c-234 -80 -321 -352 -165 -515 135 -141 360 -105 483 78
49 73 70 139 76 243 6 94 -5 133 -46 162 -71 51 -248 67 -348 32z m107 -269
c0 -18 -33 -52 -51 -52 -26 0 -24 15 7 39 28 22 44 27 44 13z"/>
<path d="M5280 3754 c-240 -45 -372 -178 -357 -360 9 -114 77 -218 176 -266
38 -19 62 -23 136 -23 77 1 99 5 150 28 73 34 128 85 163 152 21 40 27 68 30
141 4 83 2 97 -23 151 -33 75 -127 171 -176 182 -19 4 -62 2 -99 -5z m10 -314
c0 -12 -37 -50 -49 -50 -17 0 -20 29 -5 45 17 17 54 20 54 5z"/>
<path d="M1643 3695 c-17 -7 -36 -22 -42 -34 -35 -65 25 -304 96 -382 31 -34
41 -39 80 -39 36 0 50 6 74 29 25 26 29 37 29 86 0 30 -9 83 -21 117 -22 66
-89 186 -117 211 -26 22 -64 27 -99 12z"/>
<path d="M3422 3380 c-62 -38 -187 -269 -185 -343 1 -47 33 -84 79 -93 43 -8
122 34 174 93 58 66 103 167 108 240 4 59 2 64 -26 93 -25 24 -39 30 -74 30
-25 0 -56 -8 -76 -20z"/>
<path d="M1885 3051 c-126 -23 -307 -73 -378 -105 -136 -60 -303 -206 -375
-328 -76 -129 -109 -303 -83 -440 17 -85 69 -191 128 -259 26 -31 110 -103
187 -160 163 -122 192 -153 301 -319 122 -187 232 -279 420 -355 97 -39 165
-48 300 -42 123 6 195 21 365 76 53 17 147 38 210 46 361 51 565 140 824 361
172 146 288 288 363 441 79 163 89 315 29 437 -64 128 -249 330 -351 382 -109
56 -155 63 -476 73 -330 9 -269 -2 -604 114 -202 70 -313 89 -555 93 -167 3
-223 0 -305 -15z m480 -376 c67 -10 168 -38 306 -86 250 -85 318 -98 519 -99
211 -1 403 -21 455 -48 42 -21 106 -83 145 -140 31 -46 24 -115 -20 -207 -27
-55 -57 -93 -139 -176 -135 -134 -218 -196 -356 -263 -161 -79 -331 -126 -454
-126 -26 0 -81 -11 -121 -25 -121 -41 -239 -67 -335 -72 -167 -10 -232 27
-345 193 -148 218 -258 332 -438 453 -118 79 -145 114 -150 195 -3 48 1 74 18
114 25 57 104 138 167 170 66 34 272 102 353 117 101 18 274 18 395 0z"/>
<path d="M419 2195 c-14 -8 -32 -29 -39 -46 -17 -40 -3 -85 75 -244 99 -200
222 -330 339 -356 48 -10 61 -10 101 5 27 11 56 32 73 54 23 31 27 45 27 106
0 49 -6 83 -19 109 -25 51 -96 128 -169 184 -84 65 -317 203 -341 203 -12 -1
-33 -7 -47 -15z"/>
<path d="M4806 1639 c-16 -4 -39 -17 -51 -29 -19 -18 -30 -20 -77 -14 -94 11
-148 -36 -148 -128 0 -59 45 -238 74 -296 45 -89 110 -131 182 -117 80 15 139
108 174 280 43 211 19 286 -100 308 -14 3 -38 1 -54 -4z"/>
</g>
</svg>
