<?xml version="1.0" standalone="no"?>
<!DOCTYPE svg PUBLIC "-//W3C//DTD SVG 20010904//EN"
 "http://www.w3.org/TR/2001/REC-SVG-20010904/DTD/svg10.dtd">
<svg version="1.0" xmlns="http://www.w3.org/2000/svg"
 width="600.000000pt" height="600.000000pt" viewBox="0 0 600.000000 600.000000"
 preserveAspectRatio="xMidYMid meet">
<metadata>
Created by potrace 1.15, written by Peter Selinger 2001-2017
</metadata>
<g transform="translate(0.000000,600.000000) scale(0.100000,-0.100000)"
fill="#16364b" stroke="none">
<path d="M2072 5231 c-97 -33 -179 -120 -209 -219 -15 -53 -15 -76 1 -357 9
-165 21 -361 26 -435 16 -241 4 -1386 -15 -1447 -8 -25 -31 -35 -250 -108
-114 -38 -386 -115 -406 -115 -4 0 -12 14 -19 30 -8 18 -20 30 -31 30 -21 0
-25 -21 -9 -51 14 -25 4 -24 -45 6 -71 44 -99 25 -50 -33 14 -17 25 -32 25
-35 0 -3 -19 -7 -42 -9 -31 -2 -44 -8 -46 -20 -2 -12 9 -20 45 -31 l48 -14
-32 -13 c-22 -8 -33 -19 -33 -32 0 -19 4 -20 60 -14 92 11 234 50 495 138 132
44 245 82 250 84 7 3 10 -89 11 -263 1 -430 36 -570 205 -807 119 -167 257
-255 454 -290 l70 -13 -2 -34 c-2 -19 -4 -115 -5 -214 -2 -197 6 -256 52 -393
35 -100 34 -102 -58 -102 -105 0 -162 -38 -162 -107 0 -44 43 -91 94 -103 90
-20 227 32 279 106 41 58 40 114 -1 222 -18 45 -39 115 -48 155 -20 90 -22
297 -5 394 l13 73 86 -8 c48 -4 270 -7 494 -7 l406 0 -5 -105 c-6 -114 12
-251 64 -488 31 -144 32 -142 -65 -142 -77 0 -127 -21 -153 -64 -54 -89 21
-167 147 -152 111 13 197 63 234 136 18 35 15 113 -9 204 -48 183 -75 418 -61
540 5 43 11 80 12 81 2 2 93 10 204 19 225 17 279 31 376 99 109 76 194 222
230 396 17 81 19 124 15 281 -5 214 -21 285 -106 463 -54 114 -108 192 -205
294 l-65 70 167 6 c92 4 210 13 262 21 52 8 109 14 126 14 30 -1 134 49 164
78 13 14 13 17 -2 28 -12 9 -14 16 -7 23 14 14 3 33 -17 33 -10 0 -13 7 -8 24
8 34 -10 40 -55 16 -50 -25 -51 -25 -51 4 0 49 -34 37 -42 -14 -3 -23 -10 -26
-93 -42 -143 -26 -365 -42 -509 -34 l-129 6 -116 94 c-171 137 -262 203 -403
288 -162 99 -412 273 -510 355 -221 184 -312 370 -459 935 -90 348 -126 421
-250 513 -101 74 -217 94 -327 56z m208 -167 c78 -42 147 -150 172 -269 6 -27
14 -54 18 -60 4 -5 36 -118 70 -250 99 -380 156 -521 270 -673 77 -103 175
-193 325 -300 66 -47 156 -111 200 -142 44 -31 158 -107 252 -168 194 -125
283 -190 463 -340 327 -274 421 -405 485 -685 19 -82 23 -369 7 -439 -32 -129
-91 -231 -169 -288 -56 -41 -138 -58 -343 -70 -96 -5 -254 -17 -350 -26 -156
-15 -226 -15 -640 -5 -503 13 -562 20 -665 70 -85 42 -136 89 -203 190 -99
148 -148 292 -173 511 -14 122 -8 266 20 495 40 321 37 1799 -4 2154 -17 151
-14 189 21 244 52 81 151 102 244 51z"/>
<path d="M2613 2784 c-15 -24 -15 -29 -2 -52 8 -15 27 -33 41 -42 25 -14 29
-13 52 9 49 46 24 111 -42 111 -23 0 -36 -7 -49 -26z"/>
<path d="M3120 2720 c-34 -34 -21 -79 31 -105 37 -20 62 -13 77 21 18 37 15
58 -11 82 -29 27 -71 28 -97 2z"/>
<path d="M2924 1817 c-8 -4 -14 -18 -14 -31 0 -47 43 -61 156 -51 105 9 141
37 99 79 -12 12 -38 15 -121 13 -58 -1 -112 -6 -120 -10z"/>
<path d="M5275 3976 c-114 -29 -196 -90 -242 -180 -48 -95 -31 -228 43 -324
71 -94 163 -142 272 -142 138 0 232 62 293 192 31 68 34 80 34 174 0 93 -2
104 -27 142 -38 57 -74 88 -142 122 -66 34 -140 39 -231 16z m93 -279 c22 -13
22 -14 5 -29 -34 -28 -42 -29 -58 -4 -28 42 3 60 53 33z"/>
</g>
</svg>
