<?xml version="1.0" standalone="no"?>
<!DOCTYPE svg PUBLIC "-//W3C//DTD SVG 20010904//EN"
 "http://www.w3.org/TR/2001/REC-SVG-20010904/DTD/svg10.dtd">
<svg version="1.0" xmlns="http://www.w3.org/2000/svg"
 width="600.000000pt" height="600.000000pt" viewBox="0 0 600.000000 600.000000"
 preserveAspectRatio="xMidYMid meet">
<metadata>
Created by potrace 1.15, written by Peter Selinger 2001-2017
</metadata>
<g transform="translate(0.000000,600.000000) scale(0.100000,-0.100000)"
fill="#16364b" stroke="none">
<path d="M2105 5282 c-94 -33 -162 -94 -203 -182 -21 -45 -26 -69 -25 -135 0
-44 2 -480 4 -970 3 -799 1 -904 -15 -1030 -9 -76 -18 -141 -20 -142 -1 -1
-45 -11 -97 -22 -151 -31 -357 -59 -458 -63 l-94 -3 -12 35 c-7 20 -20 37 -30
39 -15 3 -17 -2 -12 -33 3 -20 3 -36 0 -36 -3 0 -23 16 -44 35 -64 57 -92 39
-48 -32 12 -19 20 -36 17 -38 -2 -2 -21 0 -43 5 -21 5 -43 7 -47 4 -19 -12 -5
-32 32 -49 45 -20 44 -30 -1 -39 -22 -4 -30 -11 -27 -23 3 -17 21 -18 233 -17
236 0 346 11 535 54 46 10 85 18 86 17 1 -1 6 -128 13 -282 15 -372 45 -523
144 -720 128 -255 276 -382 502 -429 50 -10 60 -16 58 -32 -24 -187 -10 -308
63 -541 26 -81 47 -157 48 -168 1 -18 -7 -21 -95 -26 -100 -7 -122 -14 -153
-47 -24 -27 -24 -87 1 -114 78 -88 311 -46 384 69 42 67 39 110 -21 300 -61
195 -84 323 -76 417 12 126 -7 115 179 110 89 -3 254 -14 367 -26 193 -19 374
-21 435 -3 19 6 20 1 21 -132 0 -133 2 -145 52 -338 29 -109 52 -203 52 -207
0 -4 -30 -8 -67 -8 -90 0 -136 -14 -167 -51 -57 -67 -17 -150 78 -164 99 -15
232 39 283 114 39 58 38 101 -7 256 -23 77 -51 195 -62 263 -20 115 -21 128
-7 209 17 104 -6 93 260 123 104 11 209 27 234 34 214 65 329 291 350 691 8
143 -4 237 -52 420 -46 177 -95 257 -248 411 -47 46 -85 86 -85 89 0 3 21 5
48 5 74 0 300 36 414 66 57 15 118 29 137 32 32 4 120 50 166 86 19 15 19 17
3 29 -9 7 -16 22 -15 32 1 12 -7 24 -20 30 -16 6 -21 15 -17 27 9 28 -21 32
-59 9 -43 -26 -45 -26 -49 1 -2 13 -11 24 -20 26 -13 2 -17 -5 -20 -35 -3 -37
-5 -39 -64 -60 -149 -53 -452 -98 -606 -91 -78 4 -91 7 -115 30 -66 61 -610
461 -738 542 -235 149 -340 245 -449 410 -109 163 -151 280 -262 731 -67 273
-106 366 -188 449 -75 75 -132 100 -231 104 -57 2 -94 -3 -130 -16z m179 -146
c53 -22 101 -71 134 -138 34 -71 52 -133 123 -433 58 -242 94 -353 155 -481
117 -246 278 -421 529 -574 179 -109 285 -182 532 -366 215 -160 258 -197 443
-383 134 -135 217 -226 240 -265 39 -66 95 -252 113 -368 12 -86 -1 -285 -28
-412 -19 -88 -63 -182 -109 -234 -58 -63 -109 -80 -323 -102 -104 -10 -253
-28 -333 -39 -170 -25 -297 -26 -475 -6 -71 8 -191 15 -265 15 -194 1 -428 17
-506 35 -207 48 -354 204 -443 471 -48 142 -60 236 -72 564 -11 295 -11 313
12 535 23 224 24 252 23 1035 -1 443 -3 853 -5 911 -4 103 -3 107 26 155 50
81 146 115 229 80z"/>
<path d="M2606 2811 c-38 -42 11 -122 67 -107 36 9 55 60 36 95 -19 34 -77 41
-103 12z"/>
<path d="M3143 2750 c-55 -22 -51 -85 8 -115 30 -16 33 -16 58 3 36 27 41 84
9 106 -25 18 -42 19 -75 6z"/>
<path d="M2869 1854 c-17 -21 -6 -58 21 -71 16 -8 70 -13 151 -13 138 0 157 7
145 55 -8 31 -19 33 -179 38 -93 2 -131 0 -138 -9z"/>
</g>
</svg>
