<?xml version="1.0" standalone="no"?>
<!DOCTYPE svg PUBLIC "-//W3C//DTD SVG 20010904//EN"
 "http://www.w3.org/TR/2001/REC-SVG-20010904/DTD/svg10.dtd">
<svg version="1.0" xmlns="http://www.w3.org/2000/svg"
 width="600.000000pt" height="600.000000pt" viewBox="0 0 600.000000 600.000000"
 preserveAspectRatio="xMidYMid meet">
<metadata>
Created by potrace 1.15, written by Peter Selinger 2001-2017
</metadata>
<g transform="translate(0.000000,600.000000) scale(0.100000,-0.100000)"
fill="#16364b" stroke="none">
<path d="M1915 5801 c-49 -22 -62 -37 -111 -126 -21 -38 -69 -121 -107 -184
-181 -301 -223 -455 -155 -559 57 -85 156 -102 276 -47 111 51 568 378 603
432 27 41 25 121 -3 163 -30 44 -82 70 -138 70 -49 0 -67 -10 -195 -103 -37
-27 -68 -47 -70 -45 -2 1 23 50 56 108 46 82 59 114 59 148 0 63 -31 116 -83
141 -53 26 -80 26 -132 2z"/>
<path d="M3042 5705 c-92 -40 -130 -174 -71 -249 11 -14 59 -46 107 -71 263
-135 439 -290 491 -431 44 -116 22 -162 -89 -188 -107 -25 -154 -73 -154 -159
-1 -68 35 -120 93 -138 80 -24 256 32 334 107 89 85 121 173 115 317 -4 87 -9
113 -37 179 -43 103 -95 180 -177 268 -105 111 -343 283 -488 351 -69 33 -78
34 -124 14z"/>
<path d="M964 5406 c-159 -50 -294 -176 -345 -323 -24 -70 -25 -197 -3 -274
31 -106 127 -229 215 -274 74 -39 161 -8 199 71 40 81 24 146 -54 219 -66 61
-84 109 -66 175 7 24 26 58 44 76 30 30 44 35 174 60 12 2 36 17 54 33 26 23
32 36 35 82 9 130 -105 201 -253 155z"/>
<path d="M2822 5064 c-106 -53 -175 -169 -176 -299 0 -86 27 -148 86 -200 62
-53 120 -68 246 -63 124 4 173 22 209 77 26 38 31 108 11 144 -7 12 -13 51
-14 87 -2 78 -27 141 -81 201 -74 82 -182 103 -281 53z"/>
<path d="M4797 4876 c-54 -20 -107 -63 -123 -102 -32 -77 -8 -288 47 -396 83
-164 234 -257 373 -228 143 29 237 158 222 302 -12 119 -102 244 -246 341 -82
56 -171 97 -210 96 -14 0 -42 -6 -63 -13z"/>
<path d="M1998 4739 c-65 -10 -184 -67 -213 -100 -35 -43 -41 -100 -16 -152
25 -50 54 -72 115 -89 41 -11 51 -10 98 10 81 34 99 28 114 -33 11 -47 42
-102 66 -120 65 -45 141 -39 193 15 93 98 -20 380 -180 450 -51 22 -117 29
-177 19z"/>
<path d="M2905 3996 c-143 -35 -230 -140 -229 -277 1 -192 177 -323 464 -344
184 -13 270 35 270 152 0 28 -7 58 -16 71 -15 22 -14 24 25 62 67 65 68 155 3
220 -44 44 -171 93 -299 115 -101 18 -150 18 -218 1z"/>
<path d="M1060 3961 c-98 -17 -143 -35 -171 -67 -73 -83 -63 -217 21 -287 38
-32 102 -51 147 -42 18 3 33 3 33 -1 0 -9 -36 -58 -120 -165 -115 -144 -180
-247 -268 -424 -135 -270 -155 -355 -109 -445 35 -70 85 -103 161 -108 78 -5
124 9 162 49 16 16 51 46 79 67 27 20 104 82 170 137 66 55 214 171 330 258
199 150 210 156 218 135 20 -55 -33 -264 -117 -456 -58 -132 -115 -240 -263
-497 -67 -115 -125 -227 -128 -248 -15 -78 45 -169 120 -183 49 -9 81 1 120
39 51 49 252 394 380 652 193 391 217 469 216 718 0 186 -15 255 -67 316 -46
54 -104 74 -191 69 -91 -5 -146 -34 -312 -164 -73 -57 -135 -104 -137 -104 -2
0 32 53 75 118 44 64 103 162 132 216 47 89 53 107 57 176 3 60 0 85 -14 115
-48 102 -146 146 -322 144 -59 0 -150 -8 -202 -18z"/>
<path d="M4305 3789 c-124 -19 -224 -68 -294 -145 -88 -96 -107 -220 -51 -332
80 -159 249 -220 404 -143 119 58 222 198 291 392 23 66 25 81 16 116 -14 50
-53 90 -100 102 -57 15 -200 20 -266 10z m-5 -318 c0 -5 -12 -16 -26 -26 -34
-22 -56 -4 -23 19 26 18 49 21 49 7z"/>
<path d="M3425 3396 c-64 -28 -113 -97 -170 -240 -55 -136 -42 -221 39 -260
54 -26 188 -22 251 8 102 47 167 155 166 275 0 67 -16 111 -57 160 -53 63
-157 89 -229 57z"/>
<path d="M4943 3053 c-93 -51 -211 -185 -266 -300 -28 -60 -32 -78 -32 -153 0
-75 3 -90 28 -133 36 -61 94 -103 164 -118 48 -11 65 -10 120 4 167 44 270
179 281 370 7 128 -14 196 -81 269 -29 31 -62 61 -74 67 -33 17 -104 13 -140
-6z"/>
<path d="M3955 2587 c-65 -31 -111 -84 -130 -152 -19 -63 -13 -103 35 -258 16
-50 27 -93 25 -95 -2 -2 -30 6 -62 18 -87 33 -185 31 -257 -4 -69 -34 -129
-100 -157 -175 -35 -92 -24 -188 46 -391 31 -91 67 -212 81 -268 32 -134 43
-161 87 -199 86 -76 215 -64 305 28 66 68 89 175 58 279 -22 73 -21 74 22 45
73 -48 173 -49 274 -1 144 68 210 213 179 392 -16 89 -184 612 -220 684 -53
105 -179 148 -286 97z"/>
<path d="M2019 2207 c-25 -7 -59 -23 -76 -35 -51 -36 -138 -137 -189 -218 -40
-64 -49 -87 -52 -135 -5 -62 19 -129 58 -164 19 -17 19 -19 -40 -81 -136 -146
-189 -367 -145 -605 21 -110 59 -229 98 -304 35 -66 166 -206 234 -249 265
-165 507 -207 743 -127 141 48 242 105 331 189 125 117 157 211 106 312 l-23
44 34 51 c44 66 164 313 192 395 67 200 97 414 71 516 -30 119 -96 204 -189
246 -37 17 -68 22 -142 22 -125 1 -188 -20 -435 -145 l-192 -97 -13 56 c-53
242 -204 376 -371 329z m947 -554 c-3 -10 -17 -60 -31 -111 -30 -108 -82 -242
-154 -396 -60 -129 -64 -168 -24 -250 l26 -54 -37 -50 c-122 -167 -372 -206
-571 -89 -157 92 -222 202 -232 393 -5 94 -4 105 20 155 32 66 42 79 89 107
l36 23 37 -77 c49 -102 113 -167 182 -183 89 -22 163 12 205 92 28 53 29 137
4 190 -11 22 -15 42 -10 47 27 26 425 220 452 220 8 0 11 -7 8 -17z"/>
</g>
</svg>
