<?xml version="1.0" standalone="no"?>
<!DOCTYPE svg PUBLIC "-//W3C//DTD SVG 20010904//EN"
 "http://www.w3.org/TR/2001/REC-SVG-20010904/DTD/svg10.dtd">
<svg version="1.0" xmlns="http://www.w3.org/2000/svg"
 width="600.000000pt" height="600.000000pt" viewBox="0 0 600.000000 600.000000"
 preserveAspectRatio="xMidYMid meet">
<metadata>
Created by potrace 1.15, written by Peter Selinger 2001-2017
</metadata>
<g transform="translate(0.000000,600.000000) scale(0.100000,-0.100000)"
fill="#16364b" stroke="none">
<path d="M2420 5403 c-44 -17 -50 -33 -50 -137 0 -271 -62 -496 -171 -620 -23
-26 -77 -68 -120 -93 -90 -52 -106 -68 -115 -110 -5 -26 -1 -37 19 -57 35 -35
60 -33 143 14 82 45 171 123 215 187 103 149 162 365 175 643 6 113 5 127 -12
147 -20 23 -59 36 -84 26z"/>
<path d="M3528 5300 c-9 -6 -26 -26 -38 -45 -18 -28 -21 -45 -16 -78 10 -64
50 -141 103 -198 87 -93 173 -115 235 -60 29 26 33 36 33 78 0 61 -50 164
-112 233 -59 65 -156 98 -205 70z"/>
<path d="M3041 5139 c-184 -55 -281 -319 -153 -414 59 -44 171 -15 245 63 34
36 77 152 77 210 0 110 -71 170 -169 141z m13 -187 c-17 -41 -60 -90 -70 -79
-17 16 57 133 77 121 5 -3 2 -22 -7 -42z"/>
<path d="M4778 4754 c-15 -8 -33 -24 -39 -37 -18 -33 -23 -197 -10 -328 19
-196 67 -294 157 -318 74 -20 140 14 179 92 55 112 24 294 -82 469 -78 130
-132 162 -205 122z"/>
<path d="M2696 4229 c-78 -18 -126 -74 -126 -146 0 -62 18 -107 58 -148 111
-113 315 -124 465 -24 61 40 81 77 75 139 -8 77 -34 103 -135 135 -95 30 -220
55 -268 54 -16 -1 -47 -5 -69 -10z"/>
<path d="M1148 4148 c-59 -21 -100 -155 -78 -249 30 -125 186 -187 292 -116
46 30 81 101 73 147 -14 80 -69 142 -170 193 -66 33 -85 37 -117 25z"/>
<path d="M5243 3995 c-142 -44 -232 -152 -241 -291 -8 -130 50 -247 155 -314
214 -136 517 39 531 308 4 63 1 80 -23 127 -31 63 -80 109 -166 153 -54 28
-71 32 -138 31 -42 0 -95 -6 -118 -14z m125 -291 c29 -8 25 -34 -8 -51 -21
-11 -27 -10 -37 4 -31 41 -11 62 45 47z"/>
<path d="M4213 3766 c-60 -19 -103 -48 -160 -109 -160 -169 -143 -359 39 -443
54 -25 75 -29 148 -29 78 0 90 3 148 34 74 40 115 84 151 161 22 48 25 68 25
156 -1 118 -17 155 -81 191 -89 49 -190 64 -270 39z m97 -273 c0 -14 -34 -43
-52 -43 -22 0 -23 8 -1 32 15 17 53 25 53 11z"/>
<path d="M3421 3353 c-38 -39 -151 -272 -151 -311 0 -35 38 -72 74 -72 78 0
215 207 218 327 0 39 -4 51 -26 70 -39 34 -72 29 -115 -14z"/>
<path d="M1048 3309 c-159 -23 -305 -126 -367 -258 -23 -49 -26 -68 -26 -161
0 -100 2 -108 36 -180 43 -89 104 -154 187 -198 79 -42 150 -59 299 -72 158
-14 216 -34 276 -99 78 -84 137 -219 245 -567 63 -200 92 -271 148 -355 55
-83 129 -147 236 -203 229 -120 381 -135 1348 -135 741 0 794 5 1060 91 116
37 328 138 430 205 99 66 171 146 220 247 164 341 167 746 8 1019 -98 169
-285 298 -514 357 -165 43 -294 35 -524 -31 -206 -59 -269 -94 -464 -258 -66
-55 -143 -111 -172 -126 -142 -72 -303 -53 -552 65 -127 61 -198 108 -382 256
-335 268 -518 360 -795 399 -111 16 -597 19 -697 4z m727 -413 c124 -35 154
-52 690 -404 121 -80 261 -166 310 -193 228 -122 505 -167 700 -114 94 25 248
104 397 203 173 115 227 142 375 188 99 32 133 37 213 38 86 1 101 -2 160 -30
183 -87 268 -247 257 -484 -11 -243 -93 -356 -351 -486 -273 -137 -511 -163
-1336 -145 -527 11 -653 18 -810 47 -192 35 -246 93 -325 349 -162 531 -228
670 -379 800 -126 109 -231 145 -446 154 -127 5 -160 10 -182 25 -37 24 -35
33 10 46 111 32 609 36 717 6z"/>
<path d="M452 2047 c-29 -31 -28 -72 3 -111 14 -17 47 -60 73 -96 79 -109 193
-159 254 -111 30 24 43 67 33 113 -11 49 -106 136 -202 186 -93 48 -130 52
-161 19z"/>
<path d="M5322 1105 c-51 -37 -81 -143 -57 -203 30 -75 132 -96 182 -37 48 55
56 186 15 227 -28 28 -109 36 -140 13z"/>
</g>
</svg>
