<?xml version="1.0" standalone="no"?>
<!DOCTYPE svg PUBLIC "-//W3C//DTD SVG 20010904//EN"
 "http://www.w3.org/TR/2001/REC-SVG-20010904/DTD/svg10.dtd">
<svg version="1.0" xmlns="http://www.w3.org/2000/svg"
 width="600.000000pt" height="600.000000pt" viewBox="0 0 600.000000 600.000000"
 preserveAspectRatio="xMidYMid meet">
<metadata>
Created by potrace 1.15, written by Peter Selinger 2001-2017
</metadata>
<g transform="translate(0.000000,600.000000) scale(0.100000,-0.100000)"
fill="#16364b" stroke="none">
<path d="M2867 5584 c-56 -31 -136 -231 -144 -365 -5 -78 -3 -92 19 -140 30
-65 66 -103 133 -137 46 -24 63 -26 197 -30 l147 -4 -102 -73 c-118 -83 -228
-189 -375 -359 -143 -166 -154 -218 -66 -315 55 -61 84 -71 299 -106 189 -31
298 -55 456 -101 129 -38 157 -41 199 -19 88 46 105 168 32 238 -46 44 -429
165 -575 183 -31 3 -60 11 -63 16 -4 6 28 44 71 85 74 72 123 106 357 253 124
78 202 151 217 206 35 124 -28 217 -178 265 -53 17 -104 22 -258 28 -106 4
-195 9 -198 13 -4 3 15 49 40 102 40 82 46 102 40 134 -9 52 -47 106 -88 125
-43 21 -123 21 -160 1z"/>
<path d="M1567 5306 c-70 -26 -151 -87 -258 -196 -181 -184 -303 -360 -353
-512 -31 -90 -32 -138 -7 -194 36 -79 106 -106 212 -80 192 47 363 73 399 61
25 -8 16 -38 -77 -259 -66 -157 -75 -184 -69 -222 5 -39 3 -44 -30 -69 -72
-55 -94 -137 -55 -201 22 -36 75 -64 122 -64 17 0 91 22 163 50 72 27 193 72
269 99 75 27 157 61 181 75 135 79 80 286 -76 286 -37 0 -68 -10 -128 -40 -44
-22 -86 -40 -94 -40 -10 0 2 34 39 118 29 64 60 149 70 187 42 167 -19 306
-164 374 -52 24 -65 26 -203 26 -169 0 -163 -9 -66 105 76 88 163 162 245 205
70 37 110 101 99 159 -19 101 -126 166 -219 132z"/>
<path d="M4423 4555 c-68 -19 -210 -74 -295 -114 -89 -43 -115 -83 -110 -175
3 -40 67 -102 117 -112 40 -7 36 -8 244 66 63 22 116 38 119 36 10 -10 -23
-77 -129 -265 -61 -108 -124 -218 -139 -246 -35 -62 -45 -111 -30 -150 11 -29
57 -85 70 -85 4 0 23 -15 43 -34 20 -19 54 -38 80 -44 42 -11 449 -82 468 -82
26 0 17 -18 -213 -458 -44 -85 -48 -129 -15 -187 28 -51 96 -88 149 -82 78 10
85 20 260 366 107 213 132 283 132 376 1 59 -3 78 -28 123 -64 115 -165 157
-445 186 -79 8 -145 17 -148 19 -6 6 52 120 149 294 99 179 128 254 128 334 0
100 -43 170 -134 216 -63 33 -191 41 -273 18z"/>
<path d="M3785 3661 c-44 -11 -87 -36 -116 -68 -34 -36 -46 -60 -59 -119 -39
-171 122 -272 242 -152 l40 40 -4 -64 c-2 -45 -13 -82 -33 -124 l-30 -59 -100
-40 c-122 -50 -179 -83 -246 -143 -81 -72 -98 -137 -58 -218 32 -67 104 -103
176 -89 26 5 56 25 102 69 36 34 77 69 91 78 34 20 111 44 190 59 102 19 144
48 175 121 18 46 19 81 0 133 -13 36 -12 46 7 110 70 226 -21 403 -237 460
-63 16 -92 17 -140 6z"/>
<path d="M2509 3541 c-191 -42 -376 -112 -421 -161 -65 -70 -53 -183 25 -230
52 -32 118 -26 212 19 127 60 286 108 320 94 14 -5 16 -14 11 -47 -16 -97 -93
-281 -178 -425 -69 -118 -76 -187 -23 -249 l25 -29 -21 -19 c-33 -30 -49 -69
-49 -122 0 -67 46 -135 115 -171 73 -38 127 -33 335 26 244 70 240 70 240 41
0 -13 -21 -72 -46 -133 -25 -60 -51 -129 -56 -151 -28 -108 48 -206 159 -206
100 0 168 53 242 187 80 144 114 249 115 360 1 78 -3 98 -26 148 -34 73 -117
155 -190 190 -110 52 -212 46 -443 -28 -60 -19 -111 -35 -112 -35 -2 0 12 30
31 68 43 87 119 278 153 384 21 68 26 104 27 198 1 107 -1 119 -26 167 -66
124 -215 169 -419 124z"/>
<path d="M1105 3270 c-87 -28 -244 -134 -272 -185 -67 -119 16 -267 150 -269
29 -1 64 2 78 6 l26 8 -29 -168 c-49 -283 -69 -441 -75 -597 -7 -179 2 -223
56 -276 44 -44 91 -59 191 -59 77 0 125 18 158 59 53 66 161 230 245 370 105
174 230 365 245 375 5 3 17 -14 26 -37 32 -85 16 -334 -50 -777 -14 -96 -24
-196 -21 -223 11 -119 132 -181 221 -113 52 39 67 76 76 186 5 54 25 190 44
303 57 330 68 544 37 692 -54 248 -66 280 -128 336 -92 84 -223 73 -335 -26
-75 -67 -180 -208 -296 -395 l-22 -35 0 32 c0 17 10 96 22 175 15 97 22 191
22 293 1 135 -1 155 -21 196 -61 126 -197 177 -348 129z"/>
<path d="M4762 2430 c-81 -19 -158 -105 -169 -189 l-5 -38 -140 -7 c-331 -16
-523 -106 -613 -290 -56 -113 -63 -261 -21 -463 7 -35 11 -63 9 -63 -1 0 -41
29 -88 65 -125 93 -181 118 -286 123 -104 5 -175 -13 -269 -68 -153 -90 -317
-321 -425 -599 -11 -30 -26 -56 -32 -58 -29 -10 -76 125 -133 383 -55 252 -74
312 -110 356 -106 128 -294 90 -341 -70 -15 -52 -8 -87 86 -442 91 -342 127
-422 240 -529 79 -75 130 -95 240 -96 78 0 98 4 150 28 72 34 188 149 218 217
100 230 173 355 254 435 50 48 78 61 113 50 12 -4 75 -47 141 -97 156 -117
210 -141 316 -146 71 -4 89 -1 135 21 64 29 124 88 158 155 14 27 37 67 52 88
47 68 55 119 35 236 -10 57 -20 135 -24 175 l-6 71 39 12 c22 6 111 15 199 21
321 19 379 34 465 125 83 87 118 199 107 340 -10 135 -73 223 -182 253 -45 12
-65 12 -113 1z"/>
</g>
</svg>
