<?xml version="1.0" standalone="no"?>
<!DOCTYPE svg PUBLIC "-//W3C//DTD SVG 20010904//EN"
 "http://www.w3.org/TR/2001/REC-SVG-20010904/DTD/svg10.dtd">
<svg version="1.0" xmlns="http://www.w3.org/2000/svg"
 width="600.000000pt" height="600.000000pt" viewBox="0 0 600.000000 600.000000"
 preserveAspectRatio="xMidYMid meet">
<metadata>
Created by potrace 1.15, written by Peter Selinger 2001-2017
</metadata>
<g transform="translate(0.000000,600.000000) scale(0.100000,-0.100000)"
fill="#16364b" stroke="none">
<path d="M1935 5826 c-41 -19 -71 -49 -96 -98 -12 -23 -63 -114 -114 -202
-206 -359 -244 -467 -196 -571 35 -78 106 -115 189 -100 54 10 165 68 361 190
323 201 389 265 377 363 -12 89 -68 142 -150 142 -57 0 -68 -5 -179 -92 -49
-37 -93 -68 -97 -68 -4 0 19 50 53 111 72 133 81 180 45 249 -17 33 -35 51
-68 68 -50 25 -82 27 -125 8z"/>
<path d="M3042 5700 c-61 -14 -102 -70 -102 -138 0 -62 33 -100 135 -155 204
-111 342 -228 416 -356 46 -78 84 -192 75 -226 -8 -33 -59 -63 -119 -71 -82
-11 -127 -66 -127 -156 0 -80 58 -138 137 -138 160 0 352 121 401 253 55 147
5 360 -124 528 -81 105 -261 253 -444 364 -157 95 -190 108 -248 95z"/>
<path d="M952 5404 c-181 -48 -317 -185 -353 -355 -15 -71 -6 -191 21 -261 36
-96 114 -200 194 -259 71 -52 169 -35 217 37 50 76 30 170 -52 249 -68 65 -82
96 -77 162 6 70 48 116 123 134 139 32 185 71 185 159 0 120 -106 175 -258
134z"/>
<path d="M2876 5095 c-58 -20 -103 -57 -151 -121 -109 -145 -114 -303 -14
-403 61 -62 108 -76 244 -76 101 1 128 4 167 22 81 37 109 117 71 201 -9 20
-17 64 -18 97 -2 121 -57 223 -144 268 -60 30 -97 33 -155 12z"/>
<path d="M4764 4891 c-17 -10 -42 -34 -55 -53 -22 -31 -24 -41 -22 -153 3
-264 77 -438 216 -509 76 -39 145 -44 217 -17 75 28 120 68 161 143 31 58 34
70 34 148 0 66 -5 96 -22 133 -45 97 -173 204 -344 287 -93 45 -138 50 -185
21z"/>
<path d="M1960 4741 c-86 -28 -180 -93 -205 -142 -23 -43 -19 -120 8 -160 48
-72 130 -85 205 -34 56 38 79 34 92 -17 29 -110 78 -152 168 -145 66 5 100 28
131 90 22 44 23 52 12 105 -23 119 -105 238 -195 284 -45 23 -171 34 -216 19z"/>
<path d="M1225 3994 c-131 -31 -228 -61 -262 -81 -75 -42 -119 -150 -93 -227
30 -91 118 -146 205 -126 19 4 35 6 35 4 0 -6 -179 -293 -266 -426 -119 -183
-167 -269 -215 -388 -51 -126 -58 -174 -35 -235 26 -67 105 -125 171 -125 40
0 95 28 144 74 31 29 112 91 181 137 142 95 226 160 390 302 109 94 230 187
244 187 13 0 5 -109 -14 -183 -51 -201 -183 -473 -413 -851 -90 -147 -97 -162
-97 -211 0 -86 59 -153 143 -162 80 -9 98 9 245 254 141 236 393 742 434 873
20 66 23 95 23 235 0 131 -3 170 -19 215 -45 129 -106 182 -217 188 -47 3 -86
-1 -122 -13 -62 -19 -215 -104 -272 -149 -86 -69 -80 -55 56 139 91 130 116
183 125 269 12 116 -43 224 -138 272 -42 22 -69 28 -133 30 -44 2 -89 1 -100
-2z"/>
<path d="M2963 3989 c-162 -28 -265 -136 -265 -279 0 -173 146 -317 359 -355
220 -40 330 2 341 129 4 45 0 63 -18 93 -20 35 -21 38 -5 48 63 37 95 85 95
142 0 44 -39 112 -80 138 -101 64 -309 105 -427 84z m167 -319 c20 -6 21 -8 5
-8 -11 0 -29 3 -40 8 -25 11 1 11 35 0z"/>
<path d="M4280 3781 c-89 -10 -185 -45 -243 -87 -120 -88 -171 -269 -109 -391
60 -116 233 -194 364 -163 78 19 126 46 188 109 93 94 187 307 177 404 -5 60
-45 104 -103 117 -61 13 -203 19 -274 11z m-20 -326 c-23 -25 -60 -34 -60 -15
0 11 49 39 69 40 10 0 7 -8 -9 -25z"/>
<path d="M3438 3376 c-78 -30 -139 -96 -197 -212 -62 -126 -61 -191 6 -256 33
-32 37 -33 129 -36 117 -5 168 12 229 73 108 108 115 325 13 408 -45 36 -120
45 -180 23z"/>
<path d="M4954 3054 c-46 -22 -180 -158 -224 -226 -90 -138 -100 -271 -30
-381 77 -121 266 -118 394 6 108 107 162 295 125 441 -12 49 -98 149 -142 165
-39 15 -87 13 -123 -5z"/>
<path d="M3950 2584 c-79 -34 -131 -113 -131 -198 0 -39 12 -86 46 -175 26
-68 45 -125 42 -127 -2 -3 -29 5 -58 16 -162 64 -313 -1 -392 -168 -31 -65
-32 -70 -32 -207 1 -162 15 -240 81 -447 51 -157 84 -209 157 -247 125 -64
284 3 342 143 19 46 19 142 0 196 -8 23 -15 49 -15 58 0 13 2 13 18 -1 96 -87
331 -46 406 71 42 65 49 105 43 241 -7 149 -37 283 -127 556 -67 202 -89 238
-172 279 -61 30 -151 35 -208 10z"/>
<path d="M1972 2174 c-63 -31 -155 -129 -219 -232 -72 -116 -71 -210 4 -293
l35 -38 -49 -50 c-61 -62 -107 -139 -140 -233 -21 -60 -27 -97 -31 -204 -5
-145 10 -245 54 -361 80 -215 309 -412 574 -495 105 -32 292 -33 395 -1 88 28
218 91 293 141 76 53 187 171 202 217 18 54 6 130 -25 171 l-26 34 21 30 c29
41 140 274 188 395 165 418 180 577 66 704 -68 75 -136 105 -254 109 -160 6
-297 -40 -531 -178 -123 -73 -138 -76 -139 -29 0 29 -47 155 -73 195 -85 133
-221 180 -345 118z m1022 -511 c-30 -127 -121 -356 -211 -537 -42 -83 -45 -94
-41 -152 3 -46 11 -72 31 -102 l27 -41 -49 -53 c-137 -150 -368 -182 -565 -80
-166 86 -247 231 -232 410 9 115 42 174 118 213 l38 19 14 -34 c19 -47 79
-139 108 -166 12 -12 41 -31 63 -41 174 -81 338 116 229 276 -21 31 -23 40
-12 50 47 43 386 236 448 256 39 12 41 11 34 -18z"/>
</g>
</svg>
