<?xml version="1.0" standalone="no"?>
<!DOCTYPE svg PUBLIC "-//W3C//DTD SVG 20010904//EN"
 "http://www.w3.org/TR/2001/REC-SVG-20010904/DTD/svg10.dtd">
<svg version="1.0" xmlns="http://www.w3.org/2000/svg"
 width="600.000000pt" height="600.000000pt" viewBox="0 0 600.000000 600.000000"
 preserveAspectRatio="xMidYMid meet">
<metadata>
Created by potrace 1.15, written by Peter Selinger 2001-2017
</metadata>
<g transform="translate(0.000000,600.000000) scale(0.100000,-0.100000)"
fill="#16364b" stroke="none">
<path d="M1545 5770 c-52 -26 -63 -46 -118 -215 -89 -270 -105 -375 -69 -445
37 -74 145 -96 247 -51 107 48 269 195 390 356 51 68 62 108 45 159 -25 76
-107 110 -177 72 -12 -6 -57 -58 -101 -116 -87 -115 -122 -152 -122 -130 0 8
18 67 41 133 55 158 47 207 -38 243 -42 18 -51 18 -98 -6z"/>
<path d="M803 5512 c-104 -37 -178 -106 -227 -212 -73 -157 -56 -320 43 -419
44 -44 108 -81 142 -81 45 0 91 32 111 78 29 66 19 104 -48 167 -62 60 -67 83
-33 152 42 87 123 122 197 84 72 -37 146 -20 177 39 34 67 3 128 -90 174 -78
39 -193 46 -272 18z"/>
<path d="M3431 5368 c-61 -41 -65 -105 -10 -160 22 -23 29 -39 29 -69 0 -84
96 -212 192 -257 92 -43 197 -22 231 45 38 73 26 151 -37 247 -48 72 -116 123
-224 171 -112 49 -139 52 -181 23z"/>
<path d="M2381 5313 c-68 -35 -75 -56 -82 -231 -7 -174 -25 -248 -80 -328 -36
-52 -71 -79 -167 -129 -109 -57 -148 -121 -122 -199 14 -44 57 -76 102 -76 40
0 209 94 288 161 57 48 127 149 153 220 27 72 45 184 57 343 8 119 7 153 -4
179 -27 65 -87 90 -145 60z"/>
<path d="M3005 5176 c-64 -20 -99 -42 -139 -87 -124 -136 -122 -324 4 -397 66
-39 142 -37 237 7 40 19 81 43 91 55 45 48 62 223 29 308 -22 56 -72 103 -124
117 -46 13 -48 13 -98 -3z"/>
<path d="M4735 4767 c-43 -43 -49 -87 -36 -253 16 -197 61 -313 151 -384 128
-101 300 -91 375 21 104 159 16 392 -207 546 -161 111 -226 127 -283 70z m265
-409 c23 -39 26 -55 6 -39 -14 12 -39 71 -30 71 2 0 13 -15 24 -32z"/>
<path d="M2672 4201 c-110 -38 -184 -134 -184 -239 -1 -103 51 -181 151 -226
151 -68 335 -30 513 104 82 62 109 99 115 154 6 51 -14 96 -54 123 -29 20
-173 66 -278 89 -86 19 -200 17 -263 -5z"/>
<path d="M1087 4088 c-76 -20 -128 -106 -107 -177 22 -77 59 -107 151 -122 35
-5 89 -17 119 -25 l55 -16 -36 -32 c-52 -44 -238 -139 -349 -177 -110 -38
-134 -52 -155 -96 -47 -98 26 -213 135 -213 65 0 275 87 428 177 48 28 74 38
77 30 2 -6 6 -25 10 -41 9 -41 63 -92 115 -107 25 -7 65 -30 88 -50 63 -55
127 -83 199 -87 76 -5 124 10 176 57 53 48 77 101 77 177 0 110 -63 199 -180
252 -45 21 -70 26 -135 25 -44 0 -93 -5 -109 -12 -16 -6 -30 -10 -32 -8 -3 2
3 23 11 47 46 131 -12 248 -160 323 -57 28 -177 63 -250 72 -27 3 -59 8 -70 9
-11 2 -37 -1 -58 -6z"/>
<path d="M4152 3759 c-84 -27 -158 -88 -197 -164 -27 -53 -30 -68 -30 -149 0
-74 4 -99 22 -131 44 -83 125 -136 235 -155 183 -32 352 90 416 300 59 195 30
271 -117 304 -98 22 -249 20 -329 -5z m105 -294 c-31 -28 -47 -32 -47 -12 0
21 22 37 50 37 l25 -1 -28 -24z"/>
<path d="M5125 3482 c-216 -75 -338 -280 -279 -468 22 -72 91 -147 150 -163
165 -46 391 70 454 234 30 78 32 183 5 240 -21 42 -100 125 -150 156 -38 24
-113 24 -180 1z"/>
<path d="M3424 3386 c-47 -21 -101 -92 -155 -202 -52 -107 -59 -146 -34 -194
24 -46 68 -64 137 -56 116 12 181 71 220 199 30 101 22 178 -25 224 -39 40
-94 51 -143 29z"/>
<path d="M2481 3284 c-169 -45 -281 -169 -380 -420 -29 -72 -66 -147 -83 -168
-16 -20 -65 -60 -107 -88 -219 -147 -382 -320 -473 -503 -73 -146 -110 -296
-110 -448 0 -474 319 -799 841 -858 247 -28 462 52 678 255 185 173 273 344
337 656 52 255 59 311 60 485 1 247 -39 418 -136 581 -22 38 -56 101 -75 139
-52 105 -115 194 -180 257 -67 63 -117 91 -200 113 -70 18 -102 18 -172 -1z
m136 -420 c15 -21 44 -69 63 -108 20 -39 55 -105 78 -147 66 -118 85 -221 86
-449 1 -465 -107 -737 -359 -902 -79 -51 -150 -71 -255 -70 -212 1 -408 111
-482 269 -40 84 -50 220 -24 323 50 200 183 365 391 485 83 48 185 146 245
235 25 36 74 131 111 212 101 219 97 215 146 152z"/>
<path d="M593 2453 c-13 -2 -37 -18 -54 -36 -29 -29 -31 -34 -27 -90 4 -56 3
-59 -24 -73 -38 -20 -61 -68 -55 -114 6 -44 102 -239 163 -332 94 -141 174
-211 285 -248 209 -71 384 106 335 338 -17 82 -47 145 -110 228 -75 101 -222
216 -368 289 -88 44 -99 47 -145 38z m156 -319 c119 -81 214 -200 227 -286 12
-81 -43 -71 -130 23 -36 39 -70 92 -104 161 -76 159 -76 158 7 102z"/>
<path d="M4287 2116 c-47 -17 -81 -48 -97 -87 -7 -16 -14 -29 -16 -29 -2 0
-21 9 -41 20 -77 41 -168 18 -204 -52 -24 -47 -24 -77 0 -225 11 -65 23 -147
26 -183 8 -75 15 -90 64 -146 20 -23 48 -60 62 -82 73 -109 239 -107 324 4 63
82 106 290 108 527 2 112 -1 138 -17 170 -37 74 -132 111 -209 83z"/>
</g>
</svg>
