<?xml version="1.0" standalone="no"?>
<!DOCTYPE svg PUBLIC "-//W3C//DTD SVG 20010904//EN"
 "http://www.w3.org/TR/2001/REC-SVG-20010904/DTD/svg10.dtd">
<svg version="1.0" xmlns="http://www.w3.org/2000/svg"
 width="600.000000pt" height="600.000000pt" viewBox="0 0 600.000000 600.000000"
 preserveAspectRatio="xMidYMid meet">
<metadata>
Created by potrace 1.15, written by Peter Selinger 2001-2017
</metadata>
<g transform="translate(0.000000,600.000000) scale(0.100000,-0.100000)"
fill="#16364b" stroke="none">
<path d="M3526 5268 c-24 -33 -19 -76 14 -142 62 -123 147 -206 209 -206 44 0
57 8 70 42 24 63 -68 236 -161 305 -43 31 -110 32 -132 1z m163 -185 c6 -13 9
-23 7 -23 -7 0 -56 73 -56 84 0 10 32 -30 49 -61z"/>
<path d="M3036 5115 c-90 -32 -166 -150 -174 -272 -5 -80 9 -116 52 -132 41
-16 77 1 147 66 123 116 165 249 100 314 -16 16 -36 29 -44 29 -9 0 -21 2 -29
5 -7 2 -30 -2 -52 -10z m55 -97 c3 -27 -4 -54 -18 -82 -17 -33 -101 -126 -114
-126 -17 0 -9 66 15 115 33 71 113 135 117 93z"/>
<path d="M4765 4734 c-25 -27 -25 -27 -25 -247 0 -240 10 -330 44 -379 46 -68
123 -59 158 18 42 95 29 322 -28 508 -38 121 -94 159 -149 100z"/>
<path d="M2644 4196 c-63 -63 -39 -140 62 -193 180 -95 383 -103 423 -16 31
68 0 130 -79 158 -181 65 -253 85 -311 85 -56 0 -64 -3 -95 -34z"/>
<path d="M1417 4006 c-167 -62 -213 -292 -90 -454 34 -46 55 -64 119 -107 61
-40 100 -88 142 -171 65 -128 89 -229 127 -517 29 -217 52 -371 65 -437 5 -25
16 -130 25 -235 33 -407 86 -569 228 -701 87 -81 206 -134 400 -180 42 -10 76
-21 75 -25 -2 -3 -38 -34 -80 -68 -195 -154 -222 -310 -65 -376 31 -13 267
-44 340 -45 33 0 16 -19 -33 -35 -96 -32 -130 -116 -71 -176 58 -57 154 -30
243 69 91 101 61 234 -61 271 -23 6 -81 16 -129 21 -170 19 -222 30 -222 49 0
27 65 83 202 174 l127 84 208 6 c114 4 293 10 397 13 l189 7 -7 -46 c-18 -116
58 -199 202 -222 41 -7 52 -21 31 -42 -6 -6 -9 -28 -7 -49 6 -72 101 -108 211
-79 66 17 95 36 126 81 25 37 27 72 4 119 -23 49 -90 79 -238 106 -116 21
-175 41 -175 58 0 14 23 28 60 36 19 4 51 15 70 25 20 10 82 23 145 30 216 23
448 84 669 177 209 87 345 245 432 499 24 69 27 95 28 209 1 153 -18 235 -89
381 -76 156 -178 246 -338 296 -59 19 -95 23 -197 23 -145 0 -211 -16 -286
-69 -106 -75 -183 -117 -274 -148 l-95 -33 -240 0 c-279 0 -354 13 -510 89
-222 108 -398 282 -676 666 -230 318 -308 400 -504 532 -66 44 -141 96 -166
114 -106 77 -232 110 -312 80z m158 -244 c17 -8 49 -30 72 -48 23 -19 45 -34
50 -34 5 0 50 -27 99 -59 124 -81 232 -199 393 -427 154 -217 245 -325 398
-475 214 -211 423 -343 624 -392 216 -54 573 -48 759 13 88 30 229 103 297
156 77 60 135 77 237 72 138 -7 226 -63 304 -192 140 -231 107 -490 -87 -684
-73 -73 -155 -117 -320 -172 -338 -111 -583 -140 -1211 -140 -752 0 -980 58
-1081 273 -39 85 -56 176 -79 437 -13 150 -31 282 -55 395 -19 94 -48 261 -65
372 -16 111 -36 230 -45 265 -55 236 -149 395 -299 504 -67 49 -96 87 -96 126
0 40 37 44 105 10z"/>
<path d="M2392 2484 c-31 -22 -29 -67 4 -93 35 -27 69 -27 88 1 34 48 7 108
-49 108 -11 0 -31 -7 -43 -16z"/>
<path d="M2837 2072 c-25 -28 -20 -57 14 -86 39 -33 62 -33 88 0 27 34 26 50
-4 79 -29 30 -75 33 -98 7z"/>
<path d="M5281 3999 c-76 -13 -133 -41 -178 -86 -64 -64 -78 -103 -78 -218 0
-91 3 -106 31 -165 59 -124 129 -179 238 -187 158 -13 318 73 383 206 23 47
28 69 28 136 0 67 -4 88 -27 130 -73 138 -234 213 -397 184z m95 -299 c26 -10
26 -11 9 -30 -22 -24 -60 -26 -69 -4 -17 43 4 55 60 34z"/>
<path d="M4190 3761 c-76 -24 -134 -65 -170 -120 -84 -126 -76 -276 21 -394
130 -158 384 -112 474 86 40 88 51 178 32 272 -14 68 -21 84 -49 108 -40 34
-144 67 -207 66 -25 0 -71 -8 -101 -18z m80 -291 c0 -30 -30 -57 -50 -45 -18
11 17 65 48 74 1 1 2 -12 2 -29z"/>
<path d="M461 2011 c-12 -12 -21 -28 -21 -36 0 -48 252 -205 328 -205 28 0 62
29 62 54 0 34 -32 58 -175 129 -165 82 -169 83 -194 58z"/>
<path d="M5337 1110 c-38 -30 -70 -123 -64 -189 3 -44 9 -59 31 -78 38 -32 95
-31 135 3 62 52 82 224 31 266 -31 25 -100 24 -133 -2z"/>
</g>
</svg>
