<?xml version="1.0" standalone="no"?>
<!DOCTYPE svg PUBLIC "-//W3C//DTD SVG 20010904//EN"
 "http://www.w3.org/TR/2001/REC-SVG-20010904/DTD/svg10.dtd">
<svg version="1.0" xmlns="http://www.w3.org/2000/svg"
 width="600.000000pt" height="600.000000pt" viewBox="0 0 600.000000 600.000000"
 preserveAspectRatio="xMidYMid meet">
<metadata>
Created by potrace 1.15, written by Peter Selinger 2001-2017
</metadata>
<g transform="translate(0.000000,600.000000) scale(0.100000,-0.100000)"
fill="#16364b" stroke="none">
<path d="M1890 4838 c-19 -7 -60 -37 -91 -68 -95 -95 -110 -189 -55 -346 14
-39 32 -122 40 -185 24 -178 47 -648 52 -1054 2 -203 9 -434 14 -512 11 -154
6 -199 -45 -418 -14 -60 -39 -177 -56 -260 -28 -133 -30 -156 -20 -200 7 -27
13 -61 14 -75 2 -20 8 -25 28 -25 15 -1 34 -8 43 -18 22 -22 39 -13 59 29 20
40 21 61 6 66 -5 2 -7 11 -3 21 5 13 15 -4 39 -63 54 -133 158 -275 270 -367
85 -70 191 -115 327 -137 l36 -7 -5 -132 c-7 -166 11 -282 72 -464 25 -73 45
-137 45 -143 0 -6 -26 -10 -62 -10 -131 -1 -188 -34 -188 -109 0 -77 60 -117
163 -109 85 7 159 41 206 94 53 61 59 103 25 196 -80 222 -106 342 -106 493 0
56 6 121 12 145 l11 42 41 -6 c22 -4 111 -11 197 -16 86 -5 203 -15 261 -22
58 -7 186 -13 286 -13 l181 0 -1 -135 c-1 -171 25 -305 94 -484 17 -43 28 -82
24 -87 -3 -5 -39 -9 -79 -9 -91 0 -150 -21 -170 -61 -50 -96 33 -159 183 -138
138 20 221 84 229 177 4 37 -3 67 -30 137 -40 106 -71 227 -88 344 -13 90 -8
236 9 267 8 15 46 27 179 57 92 20 211 44 263 52 177 29 270 73 355 167 104
115 145 224 152 398 7 182 -14 275 -113 495 -2 6 14 10 38 10 36 0 43 3 43 20
0 11 6 30 13 42 18 33 15 47 -17 66 -16 9 -39 28 -52 42 -13 13 -29 25 -35 25
-5 0 -60 29 -122 64 -136 78 -330 166 -461 210 -99 33 -522 240 -642 314 -86
53 -405 263 -449 296 -67 51 -152 142 -202 216 -42 64 -212 398 -457 902 -73
149 -124 211 -213 258 -52 28 -75 34 -138 36 -41 2 -91 -2 -110 -8z m176 -164
c47 -23 92 -77 126 -154 16 -36 36 -76 44 -90 7 -14 98 -191 200 -395 102
-203 207 -406 232 -450 73 -124 205 -251 377 -360 77 -49 190 -123 250 -166
100 -69 278 -179 291 -179 3 0 80 -36 172 -81 609 -296 603 -293 707 -411 140
-160 195 -298 195 -488 0 -145 -37 -250 -123 -346 -57 -63 -125 -100 -218
-118 -687 -135 -625 -132 -1425 -76 -78 6 -182 10 -230 10 -49 0 -118 5 -154
10 -194 31 -370 191 -440 400 -41 123 -51 215 -60 530 -5 168 -14 348 -20 400
-5 56 -7 200 -3 350 6 255 -8 801 -28 1065 -11 151 -25 226 -65 348 -28 85
-28 129 1 174 29 44 108 57 171 27z"/>
<path d="M2603 2700 c-26 -11 -47 -46 -37 -63 32 -57 82 -73 108 -35 40 57 -8
123 -71 98z"/>
<path d="M3004 2514 c-23 -34 -10 -72 33 -97 l32 -18 26 25 c32 32 34 79 3
100 -35 25 -75 20 -94 -10z"/>
<path d="M5294 3990 c-271 -57 -361 -378 -160 -568 69 -65 126 -86 216 -80
128 9 240 90 298 216 22 47 26 71 27 142 0 76 -3 91 -30 138 -32 58 -62 88
-132 128 -50 30 -145 40 -219 24z m104 -315 c9 -9 -30 -45 -48 -45 -18 0 -30
19 -30 47 0 12 8 14 36 10 20 -3 39 -9 42 -12z"/>
<path d="M5331 1084 c-34 -44 -57 -131 -53 -207 3 -40 52 -87 91 -87 81 0 131
74 131 196 0 98 -20 124 -95 124 -46 0 -57 -4 -74 -26z"/>
</g>
</svg>
