<?xml version="1.0" standalone="no"?>
<!DOCTYPE svg PUBLIC "-//W3C//DTD SVG 20010904//EN"
 "http://www.w3.org/TR/2001/REC-SVG-20010904/DTD/svg10.dtd">
<svg version="1.0" xmlns="http://www.w3.org/2000/svg"
 width="600.000000pt" height="600.000000pt" viewBox="0 0 600.000000 600.000000"
 preserveAspectRatio="xMidYMid meet">
<metadata>
Created by potrace 1.15, written by Peter Selinger 2001-2017
</metadata>
<g transform="translate(0.000000,600.000000) scale(0.100000,-0.100000)"
fill="#16364b" stroke="none">
<path d="M2413 5472 c-42 -23 -76 -69 -112 -157 -35 -83 -53 -179 -42 -226 39
-174 188 -233 452 -180 125 25 179 33 179 25 0 -3 -26 -36 -58 -72 -69 -79
-93 -113 -242 -335 -62 -93 -133 -207 -157 -254 -44 -82 -45 -87 -41 -154 6
-84 36 -129 101 -154 42 -16 55 -15 253 5 155 17 269 22 440 22 209 0 235 2
262 18 47 29 66 66 66 124 0 63 -26 105 -81 132 -35 17 -64 19 -345 18 -170 0
-308 1 -308 4 0 20 189 262 338 432 130 149 165 205 170 279 5 71 -18 123 -80
175 -92 79 -250 96 -478 51 -174 -35 -166 -37 -130 35 48 94 38 162 -29 207
-41 28 -111 30 -158 5z"/>
<path d="M1690 5066 c-70 -20 -109 -39 -185 -88 -140 -90 -318 -243 -396 -341
-34 -43 -39 -56 -39 -100 0 -34 7 -63 20 -85 32 -53 69 -68 178 -76 208 -15
327 -43 371 -87 15 -14 35 -52 45 -85 24 -76 69 -120 130 -129 59 -9 108 8
145 50 56 64 52 133 -15 272 -57 120 -142 188 -283 229 -42 12 -76 26 -75 30
2 15 120 82 175 100 101 32 109 36 138 69 40 46 48 101 23 158 -37 83 -125
114 -232 83z"/>
<path d="M4135 4814 c-121 -27 -337 -147 -388 -216 -49 -66 -25 -183 48 -228
55 -34 109 -24 187 34 66 49 182 111 232 122 l29 7 -6 -75 c-7 -100 -63 -264
-138 -406 -75 -145 -77 -173 -16 -264 32 -47 54 -69 91 -87 48 -24 49 -24 190
-13 77 7 206 21 285 32 79 11 152 18 162 15 43 -14 16 -135 -88 -399 -83 -209
-86 -229 -37 -293 65 -85 202 -81 249 7 15 29 149 415 166 480 7 25 12 92 13
150 1 139 -25 219 -93 289 -85 87 -204 107 -434 72 -77 -12 -143 -21 -147 -21
-5 0 6 45 25 100 114 340 82 591 -87 674 -68 33 -152 40 -243 20z"/>
<path d="M2021 3964 c-92 -36 -235 -71 -395 -98 -148 -25 -173 -37 -214 -97
-32 -46 -27 -126 9 -165 44 -48 75 -57 168 -51 164 9 491 91 613 153 88 45
120 128 77 204 -46 81 -138 100 -258 54z"/>
<path d="M3765 3729 c-68 -13 -202 -81 -370 -187 -120 -76 -143 -95 -162 -133
-13 -24 -23 -57 -23 -74 0 -41 38 -114 73 -139 20 -15 43 -21 75 -20 50 0 50
1 232 119 52 34 112 72 134 85 l38 23 -7 -44 c-20 -117 -184 -480 -246 -541
-68 -68 -44 -200 45 -242 51 -24 104 -20 222 19 329 108 566 287 590 447 7 44
-30 116 -75 145 -51 34 -116 31 -169 -7 -23 -17 -42 -34 -42 -40 0 -13 -57
-76 -91 -101 l-29 -20 36 98 c50 139 76 255 77 349 1 69 -3 89 -27 138 -34 68
-86 110 -157 125 -56 12 -55 12 -124 0z"/>
<path d="M2310 3390 c-101 -21 -238 -65 -261 -83 -82 -63 -76 -204 10 -263 44
-29 82 -30 199 -5 124 28 236 42 273 34 31 -6 31 -7 25 -52 -3 -25 -24 -84
-46 -129 -23 -49 -40 -99 -40 -119 0 -136 165 -198 274 -102 39 33 98 163 123
269 75 322 -183 531 -557 450z"/>
<path d="M1209 3135 c-106 -34 -199 -128 -214 -214 -15 -90 51 -190 141 -212
l47 -12 -8 -316 c-9 -376 -8 -415 12 -506 26 -119 89 -188 184 -201 105 -14
209 83 209 196 0 22 6 29 29 33 47 10 88 54 147 158 64 115 157 242 211 289
33 30 37 31 43 14 8 -25 -6 -309 -20 -404 -6 -41 -20 -109 -31 -152 -25 -101
-24 -147 4 -188 34 -51 70 -73 129 -78 44 -3 59 0 87 20 54 36 68 65 95 188
38 171 45 236 52 445 5 156 3 202 -10 258 -32 137 -104 227 -207 260 -63 21
-80 21 -153 2 -103 -27 -212 -123 -332 -292 -36 -51 -67 -93 -68 -93 0 0 -1
123 -1 272 0 236 -2 281 -18 334 -48 157 -190 243 -328 199z"/>
<path d="M4876 2900 c-51 -16 -103 -60 -132 -113 -25 -46 -29 -61 -28 -129 l2
-77 -102 -37 c-186 -68 -338 -154 -409 -233 -128 -142 -152 -385 -56 -574 33
-66 130 -192 161 -208 26 -14 22 -23 -15 -37 -18 -7 -52 -28 -74 -47 -23 -19
-52 -35 -65 -35 -12 0 -81 16 -153 35 -261 70 -401 41 -643 -133 -117 -83
-193 -154 -267 -247 -37 -47 -70 -85 -74 -85 -4 0 -39 -31 -77 -68 -95 -93
-135 -99 -234 -37 -106 67 -200 190 -263 345 -42 102 -74 145 -124 166 -130
56 -283 -81 -257 -229 8 -52 56 -165 102 -242 104 -175 303 -364 469 -443 75
-36 82 -37 183 -36 84 0 116 4 161 22 71 28 165 89 227 145 26 24 61 49 78 56
40 16 69 48 129 139 66 102 134 173 218 229 96 64 148 68 333 24 148 -35 225
-39 305 -15 79 24 119 47 182 104 77 70 112 142 104 214 l-5 54 36 7 c93 17
173 92 193 180 10 43 9 61 -6 110 -14 51 -27 69 -95 135 -80 78 -97 111 -88
171 4 28 65 64 178 105 176 64 273 129 324 218 46 78 70 181 70 296 0 87 -4
112 -21 145 -56 106 -163 156 -267 125z"/>
<path d="M3316 2389 c-98 -10 -136 -18 -402 -79 -250 -58 -252 -59 -298 -104
-89 -89 -62 -238 51 -288 61 -27 119 -22 413 35 129 25 254 48 276 51 l42 6 4
-69 c3 -54 9 -77 31 -110 69 -105 195 -118 279 -30 42 44 63 102 78 221 34
271 -138 404 -474 367z"/>
</g>
</svg>
