<?xml version="1.0" standalone="no"?>
<!DOCTYPE svg PUBLIC "-//W3C//DTD SVG 20010904//EN"
 "http://www.w3.org/TR/2001/REC-SVG-20010904/DTD/svg10.dtd">
<svg version="1.0" xmlns="http://www.w3.org/2000/svg"
 width="600.000000pt" height="600.000000pt" viewBox="0 0 600.000000 600.000000"
 preserveAspectRatio="xMidYMid meet">
<metadata>
Created by potrace 1.15, written by Peter Selinger 2001-2017
</metadata>
<g transform="translate(0.000000,600.000000) scale(0.100000,-0.100000)"
fill="#16364b" stroke="none">
<path d="M2367 5386 c-11 -12 -16 -61 -20 -228 -6 -245 -21 -329 -87 -463 -43
-89 -101 -152 -185 -200 -76 -43 -93 -75 -59 -109 26 -26 64 -18 141 30 201
126 314 402 312 764 0 125 -11 199 -30 211 -21 13 -56 11 -72 -5z"/>
<path d="M3544 5290 c-12 -5 -31 -25 -44 -45 -22 -35 -22 -37 -5 -88 33 -101
102 -187 180 -223 64 -30 97 -30 131 0 21 18 28 32 27 59 -2 76 -124 255 -196
288 -46 20 -61 22 -93 9z"/>
<path d="M3015 5083 c-65 -34 -112 -98 -140 -189 -30 -100 -13 -180 44 -204
98 -40 271 144 271 289 0 47 -4 57 -34 87 -27 27 -42 34 -72 34 -22 -1 -52 -8
-69 -17z m75 -113 c0 -45 -88 -170 -119 -170 -17 0 -5 52 25 112 34 67 94 104
94 58z"/>
<path d="M4745 4735 c-25 -24 -25 -25 -25 -223 0 -331 34 -445 137 -459 46 -6
88 22 109 73 21 49 18 239 -5 349 -22 108 -68 228 -98 261 -30 33 -85 33 -118
-1z"/>
<path d="M2641 4217 c-46 -27 -62 -85 -40 -144 34 -91 184 -163 339 -163 135
0 212 42 212 115 0 69 -22 84 -198 143 -173 58 -270 73 -313 49z"/>
<path d="M5273 3975 c-72 -20 -122 -47 -159 -87 -59 -62 -69 -92 -69 -208 0
-98 2 -109 32 -171 35 -71 86 -125 155 -161 36 -19 59 -23 138 -23 84 0 102 3
152 28 72 35 140 110 169 185 32 84 30 194 -4 264 -32 66 -85 117 -162 157
-51 26 -70 31 -130 30 -38 0 -94 -7 -122 -14z m141 -295 c12 -12 -8 -36 -35
-43 -22 -6 -56 34 -44 54 8 12 63 5 79 -11z"/>
<path d="M1308 3786 c-46 -12 -107 -52 -140 -91 -29 -34 -51 -120 -43 -175 18
-128 106 -236 251 -305 116 -56 153 -99 218 -257 80 -194 128 -415 161 -738
30 -300 80 -529 149 -682 54 -121 164 -228 299 -288 42 -19 77 -37 77 -40 0
-3 -18 -15 -40 -28 -85 -48 -122 -164 -74 -230 54 -73 163 -86 450 -52 191 22
271 23 267 5 -1 -5 -8 -24 -15 -42 -15 -41 -3 -78 34 -106 23 -17 34 -19 64
-11 58 14 79 51 79 137 0 65 -3 77 -32 118 -59 85 -102 91 -408 59 -210 -22
-279 -25 -270 -11 9 16 95 40 261 75 157 32 161 32 324 24 91 -4 228 -15 305
-23 77 -8 161 -15 186 -15 28 0 51 -6 58 -14 18 -22 98 -46 151 -46 25 0 99 7
165 16 l119 15 23 -30 c40 -51 159 -64 235 -25 42 22 90 92 86 127 -3 29 -1
30 97 63 128 43 327 140 421 205 85 59 221 189 281 269 197 263 195 643 -5
938 -91 133 -244 230 -412 260 -81 14 -98 14 -183 0 -142 -23 -224 -67 -342
-181 -151 -146 -307 -226 -534 -273 -142 -29 -213 -30 -344 -3 -231 46 -428
156 -586 325 -74 79 -118 142 -241 344 -46 74 -104 167 -130 205 -137 201
-291 313 -590 428 -177 68 -268 81 -372 53z m182 -250 c381 -147 460 -211 693
-562 185 -281 276 -392 417 -508 196 -163 379 -248 624 -291 141 -24 255 -20
390 14 292 74 512 184 656 329 100 100 260 138 385 92 110 -41 231 -198 264
-341 15 -62 13 -185 -3 -245 -40 -152 -199 -344 -359 -433 -217 -122 -363
-163 -667 -191 -254 -23 -395 -25 -585 -5 -77 8 -201 15 -275 15 -74 0 -200 5
-280 10 -398 29 -542 83 -622 236 -73 140 -101 273 -133 629 -28 316 -54 462
-120 660 -58 177 -113 282 -194 368 -53 56 -82 76 -168 119 -74 36 -108 59
-118 78 -8 15 -11 30 -8 34 11 10 66 6 103 -8z"/>
<path d="M2328 2438 c-30 -24 -31 -56 -4 -83 46 -46 116 -23 116 37 0 48 -71
78 -112 46z"/>
<path d="M2845 2045 c-14 -13 -25 -33 -25 -43 0 -19 45 -72 61 -72 21 0 41 15
54 41 20 38 19 55 -5 79 -27 27 -56 25 -85 -5z"/>
<path d="M4195 3741 c-124 -33 -207 -116 -241 -240 -25 -87 -9 -152 52 -220
64 -71 129 -94 249 -89 140 6 233 58 288 162 17 32 21 58 21 116 0 144 -39
208 -151 250 -62 24 -169 34 -218 21z m85 -261 c0 -18 -26 -40 -49 -40 -16 0
-13 21 6 42 21 24 43 23 43 -2z"/>
<path d="M3440 3370 c-42 -42 -144 -281 -138 -326 2 -18 13 -34 30 -43 25 -14
29 -14 55 5 35 26 83 104 123 201 38 90 43 149 15 169 -27 20 -62 17 -85 -6z"/>
<path d="M452 2028 c-7 -7 -12 -26 -12 -42 0 -25 11 -41 54 -78 147 -129 285
-179 324 -118 32 51 -5 86 -198 190 -112 60 -146 70 -168 48z"/>
<path d="M5384 1123 c-40 -5 -67 -35 -88 -97 -21 -66 -20 -124 4 -163 35 -59
121 -57 167 3 23 31 27 48 31 118 4 76 2 84 -19 108 -27 29 -49 36 -95 31z"/>
</g>
</svg>
