<?xml version="1.0" standalone="no"?>
<!DOCTYPE svg PUBLIC "-//W3C//DTD SVG 20010904//EN"
 "http://www.w3.org/TR/2001/REC-SVG-20010904/DTD/svg10.dtd">
<svg version="1.0" xmlns="http://www.w3.org/2000/svg"
 width="600.000000pt" height="600.000000pt" viewBox="0 0 600.000000 600.000000"
 preserveAspectRatio="xMidYMid meet">
<metadata>
Created by potrace 1.15, written by Peter Selinger 2001-2017
</metadata>
<g transform="translate(0.000000,600.000000) scale(0.100000,-0.100000)"
fill="#16364b" stroke="none">
<path d="M1523 5781 c-34 -22 -80 -85 -165 -231 -96 -164 -118 -213 -118 -265
0 -42 5 -52 39 -86 35 -36 43 -39 93 -39 41 0 71 8 128 36 132 63 399 262 420
314 29 70 -24 150 -99 150 -37 0 -68 -16 -148 -78 -40 -30 -41 -24 -5 30 40
61 38 120 -6 159 -39 35 -91 39 -139 10z"/>
<path d="M2374 5446 c-61 -27 -64 -40 -64 -257 0 -177 -3 -206 -25 -295 -46
-181 -104 -264 -238 -342 -94 -54 -120 -89 -113 -146 6 -55 43 -89 94 -89 71
0 237 109 314 207 58 72 124 214 154 331 23 87 27 126 31 306 6 233 0 259 -62
285 -42 17 -51 17 -91 0z"/>
<path d="M3505 5297 c-19 -19 -37 -46 -41 -61 -22 -90 112 -281 233 -332 68
-29 143 -11 178 43 43 64 10 171 -84 275 -47 53 -78 72 -150 94 -73 22 -99 18
-136 -19z"/>
<path d="M2987 5155 c-79 -28 -152 -116 -182 -220 -35 -119 19 -220 131 -245
73 -17 217 42 255 104 10 16 26 63 35 103 20 83 11 151 -28 205 -42 59 -132
82 -211 53z"/>
<path d="M4742 4754 c-47 -33 -55 -68 -49 -209 10 -201 51 -328 133 -412 56
-55 96 -75 169 -80 107 -8 198 56 226 161 17 64 6 162 -27 231 -56 121 -302
325 -390 325 -22 0 -50 -7 -62 -16z m244 -416 c14 -28 15 -31 2 -20 -14 11
-31 52 -22 52 2 0 11 -15 20 -32z"/>
<path d="M2666 4224 c-101 -37 -156 -120 -156 -234 1 -139 88 -241 220 -257
111 -13 264 44 382 142 70 58 98 103 98 157 0 34 -30 93 -59 115 -17 13 -177
66 -251 82 -64 15 -188 12 -234 -5z"/>
<path d="M1084 4086 c-67 -29 -94 -108 -60 -175 21 -39 55 -59 133 -76 82 -19
163 -46 163 -56 0 -12 -100 -50 -169 -64 -36 -8 -98 -17 -138 -21 -42 -4 -85
-14 -103 -25 -37 -23 -74 -99 -65 -132 26 -91 61 -117 156 -117 74 0 220 22
299 46 222 65 358 249 296 399 -41 97 -174 180 -348 216 -109 22 -123 23 -164
5z"/>
<path d="M4202 3751 c-181 -62 -301 -247 -257 -396 44 -153 269 -236 432 -159
52 25 128 101 167 168 43 71 70 186 64 263 -4 49 -10 61 -40 89 -43 39 -106
54 -226 54 -58 -1 -105 -7 -140 -19z m108 -259 c0 -17 -39 -44 -57 -40 -16 3
-16 5 5 26 22 22 52 30 52 14z"/>
<path d="M1664 3701 c-61 -28 -94 -111 -94 -237 0 -132 50 -228 143 -273 54
-26 144 -28 194 -4 87 41 141 144 130 249 -11 107 -86 222 -171 263 -55 27
-145 28 -202 2z"/>
<path d="M5199 3642 c-136 -45 -228 -124 -281 -241 -24 -51 -30 -78 -30 -135
0 -126 50 -214 150 -263 142 -70 351 -6 440 134 92 145 78 310 -37 421 -105
101 -146 115 -242 84z m32 -330 c-5 -10 -17 -24 -25 -32 -23 -18 -22 7 1 32
21 23 37 23 24 0z"/>
<path d="M3421 3373 c-43 -21 -80 -73 -142 -195 -58 -115 -63 -160 -24 -206
35 -42 70 -47 137 -22 67 25 120 76 158 151 63 123 55 235 -20 274 -37 19 -67
19 -109 -2z"/>
<path d="M2595 3269 c-181 -44 -322 -114 -448 -225 -157 -138 -234 -195 -317
-235 -233 -112 -294 -152 -392 -258 -93 -100 -145 -206 -184 -371 -77 -325
-55 -487 90 -675 54 -70 286 -289 391 -370 219 -167 559 -221 827 -129 107 36
202 92 355 207 255 192 429 367 493 494 13 26 48 87 77 135 54 90 96 198 108
280 9 62 -10 175 -47 270 -29 76 -180 319 -274 442 -27 34 -51 79 -58 107 -27
102 -147 224 -286 292 -81 40 -89 42 -190 44 -58 1 -123 -2 -145 -8z m161
-421 c9 -18 67 -84 128 -148 176 -183 313 -400 323 -510 6 -63 -4 -90 -63
-167 -19 -24 -34 -49 -34 -55 0 -25 -81 -139 -150 -212 -101 -106 -380 -314
-500 -374 -73 -36 -77 -37 -190 -37 -169 0 -205 19 -434 230 -207 189 -217
205 -224 345 -5 113 10 188 58 286 49 101 133 184 235 233 123 58 278 151 374
225 122 93 208 152 247 171 46 21 133 44 176 44 32 1 40 -3 54 -31z"/>
<path d="M430 2263 c-61 -19 -90 -57 -90 -116 0 -36 42 -167 83 -259 41 -92
111 -192 183 -262 144 -140 286 -172 386 -88 105 88 63 284 -96 451 -78 81
-153 134 -296 209 -122 64 -146 73 -170 65z m340 -466 c55 -68 63 -86 26 -62
-22 15 -106 117 -106 129 0 17 36 -14 80 -67z"/>
<path d="M4510 1899 c-14 -6 -35 -19 -47 -31 l-22 -20 -26 20 c-34 27 -103 37
-147 23 -19 -6 -50 -27 -69 -47 l-34 -35 1 -117 c1 -124 23 -245 65 -357 72
-194 273 -216 359 -40 56 113 125 396 118 476 -10 95 -113 162 -198 128z"/>
</g>
</svg>
