<?xml version="1.0" standalone="no"?>
<!DOCTYPE svg PUBLIC "-//W3C//DTD SVG 20010904//EN"
 "http://www.w3.org/TR/2001/REC-SVG-20010904/DTD/svg10.dtd">
<svg version="1.0" xmlns="http://www.w3.org/2000/svg"
 width="600.000000pt" height="600.000000pt" viewBox="0 0 600.000000 600.000000"
 preserveAspectRatio="xMidYMid meet">
<metadata>
Created by potrace 1.15, written by Peter Selinger 2001-2017
</metadata>
<g transform="translate(0.000000,600.000000) scale(0.100000,-0.100000)"
fill="#16364b" stroke="none">
<path d="M1521 5743 c-20 -19 -40 -60 -65 -131 -113 -325 -119 -502 -17 -569
106 -71 247 -10 409 177 94 110 202 271 209 314 12 74 -59 146 -130 132 -48
-10 -73 -30 -118 -98 -64 -96 -152 -203 -157 -190 -2 6 13 63 32 125 20 63 36
130 36 150 0 94 -131 153 -199 90z"/>
<path d="M813 5522 c-158 -57 -273 -235 -273 -426 0 -72 4 -90 31 -144 83
-166 272 -210 309 -71 13 49 1 80 -57 142 -43 47 -45 51 -41 98 11 115 130
197 207 143 30 -22 93 -21 126 0 66 43 86 140 40 194 -59 70 -233 103 -342 64z"/>
<path d="M3415 5406 c-17 -7 -39 -29 -49 -48 -32 -60 -10 -115 68 -171 15 -11
17 -17 7 -35 -46 -85 77 -270 214 -321 68 -26 109 -26 155 -3 75 38 101 130
60 219 -54 121 -155 235 -273 313 -97 63 -126 71 -182 46z"/>
<path d="M2354 5280 c-12 -5 -32 -23 -44 -40 -19 -27 -23 -50 -30 -168 -16
-264 -63 -342 -265 -445 -27 -14 -60 -36 -71 -49 -89 -98 -16 -247 103 -210
18 6 78 34 131 64 222 122 314 273 343 565 19 183 4 253 -59 282 -27 13 -78
13 -108 1z"/>
<path d="M2963 5161 c-84 -39 -162 -147 -182 -254 -17 -95 9 -171 76 -217 31
-21 48 -25 112 -25 66 1 85 5 145 36 91 45 107 75 114 208 2 56 0 114 -7 138
-13 49 -51 97 -92 118 -39 21 -116 18 -166 -4z"/>
<path d="M4733 4781 c-57 -36 -66 -68 -61 -216 5 -110 10 -143 35 -215 66
-192 175 -292 318 -293 237 -1 339 286 174 494 -40 51 -122 112 -248 187 -111
65 -166 76 -218 43z m267 -416 c7 -14 11 -28 7 -31 -3 -3 -13 8 -22 25 -8 17
-12 31 -7 31 5 0 15 -11 22 -25z"/>
<path d="M2738 4209 c-143 -16 -241 -118 -241 -254 0 -69 23 -123 74 -173 46
-45 102 -70 189 -83 133 -21 272 21 425 127 86 60 118 110 112 173 -9 85 -42
109 -228 165 -129 39 -244 54 -331 45z"/>
<path d="M1039 4069 c-69 -41 -96 -125 -64 -192 23 -49 70 -75 155 -87 85 -12
180 -37 180 -48 -1 -30 -266 -172 -422 -227 -88 -31 -123 -60 -140 -117 -24
-81 53 -185 145 -195 68 -8 230 50 388 139 48 26 89 48 93 48 3 0 6 -12 6 -28
0 -88 102 -155 185 -123 15 6 30 0 59 -25 99 -85 286 -86 363 -3 76 83 68 225
-18 323 -72 82 -200 122 -309 97 -24 -5 -46 -8 -48 -6 -2 2 4 27 13 55 20 61
17 138 -9 191 -57 120 -232 203 -451 215 -80 4 -94 3 -126 -17z"/>
<path d="M4208 3781 c-76 -25 -115 -50 -177 -116 -72 -76 -96 -131 -95 -225 0
-59 5 -86 24 -125 76 -155 250 -218 398 -144 111 55 196 179 241 353 55 209 9
266 -219 273 -92 2 -126 -1 -172 -16z m82 -298 c0 -12 -43 -53 -57 -53 -21 0
-15 27 9 44 23 17 48 21 48 9z"/>
<path d="M5128 3496 c-129 -53 -219 -128 -272 -226 -41 -75 -48 -189 -17 -272
42 -110 136 -177 247 -178 200 -1 374 169 374 365 0 88 -28 158 -95 236 -90
104 -134 118 -237 75z"/>
<path d="M3405 3371 c-47 -28 -82 -75 -136 -182 -57 -115 -62 -155 -24 -205
43 -57 135 -63 231 -18 76 36 149 176 142 271 -10 118 -123 189 -213 134z"/>
<path d="M2495 3217 c-169 -43 -281 -162 -354 -375 -52 -152 -108 -224 -222
-287 -80 -43 -206 -144 -284 -227 -86 -91 -153 -190 -210 -310 -61 -132 -79
-210 -79 -348 0 -378 175 -655 515 -814 157 -73 346 -107 486 -86 256 39 500
204 659 446 194 297 254 479 254 775 -1 299 -80 598 -204 767 -18 26 -50 79
-71 117 -82 155 -190 282 -279 324 -54 27 -147 34 -211 18z m75 -439 c17 -18
43 -60 60 -93 16 -33 59 -100 94 -150 40 -56 73 -114 86 -153 46 -142 52 -485
11 -628 -45 -158 -146 -349 -229 -437 -48 -51 -135 -109 -197 -133 -76 -29
-238 -27 -327 4 -128 44 -269 155 -317 249 -35 71 -54 161 -48 243 6 94 35
170 98 265 54 80 190 214 245 240 76 36 214 138 275 202 74 80 108 139 150
260 31 93 60 163 66 163 2 0 17 -15 33 -32z"/>
<path d="M631 2487 c-58 -30 -85 -109 -57 -169 13 -27 36 -45 102 -82 228
-124 373 -278 350 -370 -5 -21 -12 -26 -39 -26 -78 0 -192 116 -277 282 -28
53 -60 104 -72 113 -54 37 -140 10 -173 -55 -23 -45 -18 -71 30 -166 75 -150
201 -298 307 -361 204 -123 418 -43 468 176 18 77 8 161 -29 236 -41 83 -171
206 -324 308 -187 125 -231 143 -286 114z"/>
<path d="M4277 2146 c-50 -18 -73 -40 -94 -88 -12 -28 -21 -37 -33 -32 -86 37
-123 41 -173 20 -74 -31 -113 -111 -104 -215 7 -82 71 -361 92 -402 9 -17 35
-42 59 -57 23 -15 58 -45 77 -66 109 -125 292 -67 345 108 10 34 18 129 25
281 5 127 12 253 15 280 13 120 -98 211 -209 171z"/>
</g>
</svg>
