<?xml version="1.0" standalone="no"?>
<!DOCTYPE svg PUBLIC "-//W3C//DTD SVG 20010904//EN"
 "http://www.w3.org/TR/2001/REC-SVG-20010904/DTD/svg10.dtd">
<svg version="1.0" xmlns="http://www.w3.org/2000/svg"
 width="600.000000pt" height="600.000000pt" viewBox="0 0 600.000000 600.000000"
 preserveAspectRatio="xMidYMid meet">
<metadata>
Created by potrace 1.15, written by Peter Selinger 2001-2017
</metadata>
<g transform="translate(0.000000,600.000000) scale(0.100000,-0.100000)"
fill="#16364b" stroke="none">
<path d="M2303 5439 c-36 -18 -49 -33 -78 -93 -62 -125 -78 -217 -51 -294 22
-61 52 -97 109 -128 75 -40 158 -43 321 -10 71 15 130 25 132 23 2 -1 -26 -42
-61 -89 -168 -227 -273 -405 -325 -548 -33 -88 -31 -125 7 -180 9 -13 18 -43
20 -67 3 -54 24 -96 65 -126 55 -41 78 -41 303 7 116 25 287 56 380 70 231 36
263 43 293 67 91 71 79 195 -24 240 -38 17 -52 18 -145 9 -143 -14 -289 -36
-448 -66 -73 -14 -136 -23 -139 -19 -3 3 12 39 33 80 36 72 70 123 261 402
119 173 137 213 138 299 1 67 -1 75 -39 129 -91 132 -203 154 -448 85 -65 -18
-121 -30 -124 -26 -4 3 1 22 10 41 37 78 10 172 -58 201 -47 19 -83 18 -132
-7z"/>
<path d="M1722 4995 c-162 -36 -329 -126 -499 -269 -80 -66 -103 -103 -103
-166 0 -51 9 -69 72 -142 53 -61 77 -73 173 -83 91 -9 208 -34 285 -60 69 -24
160 -78 160 -95 0 -6 19 -24 43 -41 37 -27 48 -30 95 -27 32 3 64 13 80 25 63
47 83 134 47 203 -29 57 -134 152 -205 186 -65 32 -193 74 -223 74 -9 0 -19 5
-22 10 -10 16 120 69 199 81 87 13 138 44 167 101 37 72 12 149 -60 191 -41
25 -131 30 -209 12z"/>
<path d="M3967 4989 c-112 -16 -289 -109 -327 -171 -39 -64 -18 -166 42 -210
46 -32 103 -29 163 8 68 41 131 64 185 67 l45 2 3 -58 c5 -89 -59 -312 -128
-446 -26 -52 -25 -96 3 -146 18 -31 34 -44 75 -60 38 -15 52 -25 52 -40 0 -35
38 -83 81 -106 49 -25 63 -24 246 15 141 30 254 42 307 32 35 -7 36 -8 36 -54
0 -54 -32 -193 -84 -364 -42 -137 -44 -169 -13 -223 48 -86 164 -100 229 -28
23 25 50 105 98 288 49 190 64 289 57 368 -22 231 -175 328 -465 297 -59 -6
-153 -19 -209 -29 -62 -11 -103 -14 -103 -8 0 5 15 49 34 97 73 184 91 263 91
405 0 129 0 130 -34 193 -52 96 -128 151 -236 171 -65 12 -66 12 -148 0z"/>
<path d="M2075 3934 c-191 -68 -299 -95 -424 -106 -144 -13 -180 -28 -211 -89
-37 -72 -23 -144 40 -204 l32 -30 116 1 c140 2 244 24 459 95 176 58 209 78
241 139 41 79 11 163 -72 201 -54 24 -96 23 -181 -7z"/>
<path d="M3702 3720 c-60 -13 -160 -63 -347 -174 -194 -115 -222 -137 -235
-185 -25 -95 56 -191 162 -191 19 0 141 62 306 155 57 31 106 55 109 51 10
-10 -54 -171 -118 -296 -61 -119 -68 -152 -45 -205 12 -28 11 -31 -18 -50 -17
-11 -41 -36 -54 -55 -20 -30 -23 -44 -20 -97 3 -55 8 -67 38 -98 42 -44 88
-59 148 -50 130 19 411 136 550 229 79 52 200 166 231 216 28 46 28 123 1 168
-57 93 -196 97 -264 7 -36 -46 -137 -120 -228 -166 -43 -22 -78 -37 -78 -34 0
3 21 46 46 96 107 215 172 415 157 491 -8 45 -36 98 -65 124 -64 59 -176 85
-276 64z"/>
<path d="M2205 3310 c-151 -27 -181 -37 -209 -70 -51 -61 -44 -149 16 -207 45
-43 95 -53 188 -37 192 34 280 37 280 10 0 -6 -11 -47 -25 -91 -29 -90 -27
-134 9 -187 44 -67 147 -87 210 -42 56 40 116 214 116 335 0 105 -56 196 -160
256 -93 55 -239 67 -425 33z"/>
<path d="M4864 3067 c-62 -30 -118 -94 -133 -153 -7 -26 -9 -71 -5 -108 7 -73
22 -57 -147 -166 -185 -120 -250 -194 -294 -333 -62 -197 -57 -440 12 -570 34
-64 121 -154 158 -163 25 -6 23 -8 -31 -30 -32 -13 -76 -41 -98 -63 -23 -22
-53 -44 -69 -50 -16 -6 -116 -10 -245 -9 -191 1 -226 -1 -293 -20 -182 -49
-370 -177 -523 -354 -30 -35 -58 -58 -76 -61 -15 -4 -56 -33 -91 -67 -35 -33
-84 -69 -108 -81 -159 -74 -405 81 -534 338 -50 97 -137 135 -232 99 -83 -32
-146 -140 -129 -220 24 -116 276 -413 428 -505 122 -73 255 -111 393 -111 169
0 298 52 431 174 45 42 89 76 98 76 9 0 66 52 127 116 119 124 209 190 297
220 47 16 89 19 280 19 206 1 230 3 284 23 120 44 237 136 279 217 31 60 28
143 -7 195 -15 22 -38 46 -51 52 -30 13 -23 28 13 28 40 1 111 41 143 80 66
83 63 184 -9 288 -43 63 -46 71 -46 130 1 82 14 100 150 189 207 137 236 158
279 211 52 62 82 137 91 226 7 72 -10 212 -32 266 -48 114 -197 171 -310 117z"/>
<path d="M1212 3047 c-18 -5 -53 -28 -77 -49 -88 -78 -96 -203 -17 -268 20
-16 48 -32 64 -35 l28 -7 0 -103 c0 -150 18 -441 36 -575 23 -174 51 -276 88
-318 53 -61 129 -78 204 -47 106 45 144 149 106 287 -18 64 -16 75 14 59 30
-16 89 -13 128 5 28 13 49 41 103 133 95 160 181 253 181 196 0 -9 9 -33 19
-53 19 -37 19 -39 0 -137 -10 -55 -24 -198 -31 -318 -10 -195 -10 -221 5 -251
42 -89 156 -120 231 -63 53 41 65 72 76 209 6 68 18 188 26 268 8 80 18 171
21 202 5 49 2 63 -21 103 -14 26 -26 60 -26 75 0 69 -66 207 -124 258 -74 65
-192 70 -306 12 -92 -46 -221 -179 -280 -287 -25 -45 -48 -83 -52 -83 -8 0 -9
26 -13 345 -2 160 -6 200 -24 255 -40 128 -136 201 -261 199 -36 -1 -80 -6
-98 -12z"/>
<path d="M3260 2285 c-154 -17 -553 -118 -596 -150 -116 -89 -67 -296 79 -336
52 -14 85 -9 273 36 236 58 373 85 461 92 l82 6 6 -36 c8 -41 63 -111 107
-133 32 -17 91 -21 129 -9 118 36 178 217 115 350 -78 167 -277 222 -656 180z"/>
</g>
</svg>
