<?xml version="1.0" standalone="no"?>
<!DOCTYPE svg PUBLIC "-//W3C//DTD SVG 20010904//EN"
 "http://www.w3.org/TR/2001/REC-SVG-20010904/DTD/svg10.dtd">
<svg version="1.0" xmlns="http://www.w3.org/2000/svg"
 width="600.000000pt" height="600.000000pt" viewBox="0 0 600.000000 600.000000"
 preserveAspectRatio="xMidYMid meet">
<metadata>
Created by potrace 1.15, written by Peter Selinger 2001-2017
</metadata>
<g transform="translate(0.000000,600.000000) scale(0.100000,-0.100000)"
fill="#16364b" stroke="none">
<path d="M3150 5468 c-60 -31 -92 -86 -87 -149 5 -58 38 -106 86 -126 104 -43
140 -142 106 -293 -27 -115 -28 -141 -8 -180 57 -111 203 -105 261 11 26 52
62 226 62 298 0 176 -96 338 -246 418 -84 45 -119 49 -174 21z"/>
<path d="M2030 5427 c-54 -36 -73 -78 -73 -161 0 -83 17 -128 70 -187 45 -50
88 -72 189 -99 43 -12 82 -27 87 -33 5 -7 6 -100 2 -207 -6 -216 -1 -241 58
-284 40 -30 134 -29 174 0 59 44 62 58 65 309 l3 230 -28 60 c-50 106 -122
165 -247 201 l-75 22 -7 42 c-4 24 -15 53 -23 67 -41 62 -134 82 -195 40z"/>
<path d="M1660 4803 c-97 -8 -277 -45 -318 -65 -32 -15 -49 -32 -65 -64 -19
-40 -20 -49 -9 -92 15 -56 63 -106 118 -121 31 -9 61 -6 148 10 142 27 311 24
401 -9 73 -27 88 -27 141 -1 83 39 112 136 65 212 -50 82 -290 147 -481 130z"/>
<path d="M4335 4600 c-43 -18 -78 -67 -82 -117 -6 -74 18 -110 102 -155 129
-70 162 -133 171 -323 7 -160 10 -171 55 -216 35 -35 44 -39 88 -39 59 0 108
30 133 80 14 27 18 60 18 145 0 140 -28 276 -74 370 -85 171 -297 303 -411
255z"/>
<path d="M3196 4455 c-15 -8 -58 -41 -95 -73 -119 -104 -202 -163 -429 -301
-113 -70 -142 -102 -149 -165 -10 -82 46 -147 132 -154 54 -4 57 -3 212 88 87
51 185 111 218 133 111 75 266 213 291 259 21 40 18 124 -6 163 -36 58 -115
81 -174 50z"/>
<path d="M1602 4390 c-92 -56 -97 -204 -8 -259 32 -20 239 -70 374 -90 111
-17 311 -16 354 2 87 37 118 147 64 230 -32 47 -87 64 -231 70 -86 4 -183 16
-285 36 -182 36 -224 38 -268 11z"/>
<path d="M3755 3866 c-44 -14 -154 -69 -280 -141 -144 -81 -278 -149 -385
-196 -130 -56 -154 -84 -147 -168 3 -47 9 -59 40 -87 39 -36 88 -50 143 -40
19 4 172 77 339 162 279 142 307 154 357 154 71 0 113 26 140 87 38 85 3 188
-76 224 -48 22 -76 23 -131 5z"/>
<path d="M2220 3802 c-91 -25 -107 -26 -355 -27 -234 0 -263 -2 -287 -18 -83
-56 -75 -208 13 -261 62 -37 348 -48 537 -21 282 40 357 83 357 204 0 72 -33
121 -93 139 -51 15 -59 15 -172 -16z"/>
<path d="M4972 3544 c-56 -28 -92 -67 -117 -127 -19 -45 -19 -94 0 -172 8 -33
15 -85 15 -116 0 -110 -18 -147 -232 -463 -112 -165 -214 -343 -229 -401 -6
-22 -8 -64 -5 -93 16 -132 109 -214 224 -197 100 15 153 62 226 199 72 134
149 256 245 385 160 214 210 322 232 501 19 157 -9 346 -61 418 -64 88 -195
117 -298 66z"/>
<path d="M1968 3155 c-48 -32 -68 -72 -68 -130 0 -78 48 -138 130 -164 45 -14
194 -38 287 -46 58 -6 75 -11 95 -32 74 -79 194 -67 246 25 43 76 21 156 -63
230 -59 52 -103 66 -310 104 -245 44 -272 45 -317 13z"/>
<path d="M4355 3128 c-11 -7 -40 -33 -65 -58 -108 -110 -275 -205 -477 -268
-151 -48 -206 -60 -329 -72 -152 -14 -198 -54 -192 -167 4 -56 8 -67 38 -98
51 -53 91 -61 220 -47 206 23 401 88 665 220 188 94 325 193 360 263 40 76
-12 196 -98 228 -37 14 -97 13 -122 -1z"/>
<path d="M1334 2961 c-41 -25 -71 -65 -84 -110 -17 -63 79 -700 136 -898 78
-274 198 -394 349 -348 135 40 175 173 91 300 -87 132 -135 326 -175 713 -13
121 -27 206 -37 228 -21 44 -74 97 -118 118 -46 22 -123 21 -162 -3z"/>
<path d="M2175 2364 c-11 -2 -45 -9 -75 -15 -125 -24 -180 -75 -180 -164 0
-62 28 -108 84 -134 51 -25 62 -26 152 -5 88 21 133 13 182 -30 52 -47 74 -56
129 -56 93 0 163 63 163 147 0 56 -17 89 -73 140 -97 89 -263 140 -382 117z"/>
<path d="M4110 2093 c-119 -12 -611 -99 -880 -155 -80 -16 -193 -38 -253 -48
-127 -22 -177 -47 -217 -109 -25 -37 -30 -55 -30 -104 0 -81 32 -136 96 -167
67 -33 83 -31 759 93 165 31 359 63 430 72 250 31 271 39 314 116 67 118 18
267 -97 299 -37 10 -54 10 -122 3z"/>
<path d="M2168 1690 c-66 -20 -108 -73 -108 -138 0 -131 170 -365 351 -482
128 -82 190 -88 261 -21 33 30 41 45 45 83 10 91 -22 141 -126 191 -105 51
-201 162 -225 259 -10 42 -63 96 -104 108 -42 11 -56 11 -94 0z"/>
<path d="M4762 1679 c-23 -7 -64 -42 -125 -105 -126 -131 -184 -159 -547 -259
-357 -99 -540 -160 -591 -197 -40 -29 -78 -94 -79 -133 -1 -103 111 -215 214
-215 21 0 81 17 134 39 134 53 220 80 493 155 372 102 467 146 598 276 108
106 153 176 159 244 6 70 -11 118 -53 155 -54 47 -128 61 -203 40z"/>
<path d="M2022 1013 c-109 -54 -144 -193 -72 -291 57 -80 283 -228 468 -308
233 -101 454 -106 699 -15 220 81 278 127 298 232 19 101 -104 219 -229 219
-13 0 -78 -20 -143 -44 -151 -57 -222 -70 -331 -64 -146 9 -275 65 -406 175
-113 96 -143 113 -201 113 -27 0 -65 -8 -83 -17z"/>
</g>
</svg>
