<?xml version="1.0" standalone="no"?>
<!DOCTYPE svg PUBLIC "-//W3C//DTD SVG 20010904//EN"
 "http://www.w3.org/TR/2001/REC-SVG-20010904/DTD/svg10.dtd">
<svg version="1.0" xmlns="http://www.w3.org/2000/svg"
 width="600.000000pt" height="600.000000pt" viewBox="0 0 600.000000 600.000000"
 preserveAspectRatio="xMidYMid meet">
<metadata>
Created by potrace 1.15, written by Peter Selinger 2001-2017
</metadata>
<g transform="translate(0.000000,600.000000) scale(0.100000,-0.100000)"
fill="#16364b" stroke="none">
<path d="M2382 5387 c-21 -22 -22 -33 -22 -178 0 -315 -56 -507 -174 -603 -22
-19 -78 -52 -124 -75 -80 -40 -102 -63 -102 -106 0 -27 46 -68 76 -68 44 0
196 80 257 134 142 126 202 321 214 695 6 176 5 182 -16 203 -29 29 -81 28
-109 -2z"/>
<path d="M3537 5299 c-11 -6 -27 -29 -37 -51 -20 -46 -15 -80 25 -158 54 -106
130 -180 205 -200 103 -28 161 66 110 177 -22 51 -72 127 -109 166 -50 55
-155 90 -194 66z"/>
<path d="M3030 5121 c-112 -34 -193 -145 -193 -262 0 -164 165 -213 306 -90
68 60 98 203 59 281 -11 23 -33 43 -62 58 -46 23 -68 26 -110 13z m40 -168 c0
-25 -35 -80 -59 -93 -17 -9 -21 -8 -21 5 0 21 17 54 43 83 25 27 37 28 37 5z"/>
<path d="M4774 4750 c-46 -18 -54 -46 -54 -180 0 -351 93 -544 247 -510 75 17
123 98 123 207 0 114 -56 263 -146 390 -65 91 -112 117 -170 93z"/>
<path d="M2715 4231 c-48 -12 -91 -38 -118 -70 -71 -85 -26 -206 101 -268 50
-25 68 -28 152 -28 87 0 100 3 160 33 107 54 140 92 140 158 0 69 -31 96 -158
137 -110 36 -224 52 -277 38z"/>
<path d="M1115 4148 c-30 -27 -55 -109 -55 -183 0 -155 157 -246 281 -162 99
66 107 189 18 275 -42 41 -146 92 -187 92 -18 0 -42 -10 -57 -22z"/>
<path d="M5204 3962 c-120 -42 -185 -139 -185 -276 0 -160 84 -291 221 -347
56 -22 175 -17 238 10 68 30 143 112 173 189 32 81 32 200 0 262 -32 63 -76
106 -147 146 -58 32 -66 34 -155 34 -63 -1 -111 -6 -145 -18z m184 -287 c9 -9
-30 -45 -48 -45 -18 0 -30 19 -30 47 0 12 8 14 36 10 20 -3 39 -9 42 -12z"/>
<path d="M4234 3780 c-103 -21 -203 -101 -252 -200 -37 -76 -38 -183 -2 -254
54 -106 155 -161 283 -154 207 11 334 193 308 443 -7 62 -11 71 -43 100 -61
52 -204 84 -294 65z m46 -285 c0 -17 -35 -55 -49 -55 -22 0 -20 22 3 45 28 28
46 32 46 10z"/>
<path d="M3450 3344 c-53 -34 -200 -254 -200 -301 0 -38 42 -73 89 -73 90 0
235 172 249 297 4 36 1 48 -18 68 -28 29 -81 33 -120 9z"/>
<path d="M981 3315 c-140 -32 -256 -119 -309 -232 -23 -49 -27 -71 -27 -148 0
-82 3 -97 32 -156 37 -75 103 -147 187 -200 96 -63 154 -80 309 -90 162 -10
206 -25 260 -90 70 -86 128 -235 237 -614 48 -164 119 -315 187 -400 98 -121
249 -209 452 -262 83 -22 121 -26 276 -28 99 -1 254 -5 345 -9 91 -4 390 -3
665 3 531 10 609 17 804 72 164 46 407 158 545 252 231 156 352 453 318 781
-16 153 -43 253 -98 364 -104 212 -337 381 -588 429 -191 36 -455 -11 -670
-119 -80 -40 -120 -67 -259 -171 -156 -117 -199 -138 -308 -149 -101 -10 -184
3 -293 47 -132 53 -357 188 -546 328 -400 297 -576 363 -1030 387 -370 20
-422 21 -489 5z m554 -380 c234 -8 360 -57 620 -241 346 -245 536 -364 675
-424 158 -69 362 -106 539 -98 171 8 245 42 506 232 193 140 402 213 587 204
123 -6 186 -35 284 -132 92 -91 115 -146 122 -297 6 -132 -10 -228 -52 -316
-39 -80 -86 -126 -204 -196 -256 -151 -616 -226 -1025 -211 -84 3 -379 6 -657
8 -483 3 -508 4 -570 24 -178 58 -227 129 -325 472 -67 232 -115 356 -197 507
-114 212 -226 315 -398 368 -30 9 -114 20 -187 25 -104 6 -141 12 -178 30 -25
12 -44 27 -42 34 8 24 86 26 502 11z"/>
<path d="M462 2050 c-34 -32 -38 -67 -13 -98 11 -15 39 -52 60 -83 67 -95 151
-151 229 -153 36 -1 48 4 68 27 44 51 30 112 -42 180 -55 53 -219 147 -255
147 -14 0 -35 -9 -47 -20z"/>
<path d="M5341 1113 c-7 -3 -24 -28 -37 -57 -28 -60 -32 -142 -8 -187 35 -69
135 -69 180 -1 45 66 40 203 -9 237 -21 14 -97 19 -126 8z"/>
</g>
</svg>
