<?xml version="1.0" standalone="no"?>
<!DOCTYPE svg PUBLIC "-//W3C//DTD SVG 20010904//EN"
 "http://www.w3.org/TR/2001/REC-SVG-20010904/DTD/svg10.dtd">
<svg version="1.0" xmlns="http://www.w3.org/2000/svg"
 width="600.000000pt" height="600.000000pt" viewBox="0 0 600.000000 600.000000"
 preserveAspectRatio="xMidYMid meet">
<metadata>
Created by potrace 1.15, written by Peter Selinger 2001-2017
</metadata>
<g transform="translate(0.000000,600.000000) scale(0.100000,-0.100000)"
fill="#16364b" stroke="none">
<path d="M3010 5087 c-85 -44 -149 -159 -137 -248 15 -113 132 -120 225 -14
54 61 86 130 86 188 1 41 -3 52 -27 73 -36 31 -87 31 -147 1z m94 -43 c45 -17
-3 -127 -85 -197 -56 -49 -73 -45 -77 15 -5 73 33 136 103 172 34 18 37 18 59
10z"/>
<path d="M4793 4735 c-16 -7 -33 -20 -36 -28 -3 -8 -8 -71 -12 -139 -3 -67
-11 -199 -16 -291 -11 -156 -10 -169 6 -187 25 -27 77 -26 109 3 36 31 46 112
46 388 0 203 -2 227 -17 241 -28 24 -47 27 -80 13z"/>
<path d="M1715 4506 c-96 -43 -149 -164 -125 -283 7 -32 25 -84 42 -116 35
-71 68 -192 107 -402 50 -267 69 -497 81 -1015 9 -387 10 -391 71 -759 44
-267 95 -408 181 -506 85 -96 216 -158 394 -186 l79 -13 1 -195 c0 -211 13
-296 70 -483 15 -49 25 -91 21 -94 -3 -3 -43 -7 -90 -9 -117 -4 -166 -34 -167
-103 0 -45 24 -77 71 -96 90 -36 243 -2 311 71 59 62 61 111 12 253 -19 58
-44 146 -55 195 -22 103 -35 313 -25 399 l8 58 36 -6 c21 -3 116 -10 213 -15
97 -6 235 -18 305 -27 78 -10 192 -17 289 -16 l160 1 1 -122 c0 -119 35 -342
78 -507 19 -73 12 -80 -81 -80 -108 0 -163 -35 -163 -105 0 -90 104 -128 239
-86 78 24 128 62 152 115 25 55 24 82 -10 216 -44 172 -74 441 -61 527 6 37
12 68 13 70 2 1 58 14 125 28 155 33 489 128 539 154 160 81 299 254 343 426
71 276 -50 598 -266 712 -60 31 -159 62 -364 114 -179 46 -285 78 -410 125
-63 23 -173 64 -245 89 -359 129 -641 311 -798 517 -58 76 -172 253 -388 598
-70 113 -147 230 -171 261 -148 191 -211 249 -316 289 -61 23 -162 26 -207 6z
m201 -168 c27 -18 63 -53 80 -78 18 -25 50 -65 72 -90 67 -77 112 -145 317
-475 254 -407 271 -432 380 -540 203 -204 472 -364 835 -497 74 -27 162 -60
195 -73 71 -27 275 -85 430 -120 291 -66 354 -91 409 -156 81 -96 128 -285
106 -423 -32 -201 -171 -354 -375 -411 -33 -10 -125 -36 -205 -60 -285 -84
-535 -108 -846 -82 -104 9 -288 21 -408 27 -247 12 -349 23 -451 46 -94 22
-203 73 -254 119 -47 42 -103 149 -126 240 -38 150 -82 550 -90 830 -14 507
-47 905 -96 1175 -44 245 -62 304 -133 435 -9 17 -16 51 -16 77 0 38 5 50 26
67 40 32 92 27 150 -11z"/>
<path d="M2513 2618 c-47 -23 -29 -91 30 -112 22 -8 31 -6 52 14 62 59 -2 137
-82 98z"/>
<path d="M2940 2355 c-21 -26 -15 -67 14 -92 38 -33 72 -30 91 7 27 52 -2 100
-59 100 -19 0 -39 -7 -46 -15z"/>
<path d="M5233 3976 c-150 -38 -231 -172 -205 -339 34 -221 212 -348 408 -292
158 45 262 158 272 296 9 126 -53 222 -192 299 -62 34 -83 40 -152 44 -50 4
-98 1 -131 -8z m169 -304 c11 -11 -12 -38 -38 -46 -16 -5 -23 0 -32 19 -19 42
-15 48 25 42 20 -4 40 -10 45 -15z"/>
<path d="M4173 3737 c-163 -60 -258 -274 -188 -421 23 -47 76 -101 130 -129
32 -18 57 -22 130 -22 73 0 98 4 130 22 106 56 169 160 168 278 -1 176 -104
286 -268 284 -38 0 -84 -6 -102 -12z m111 -263 c8 -21 8 -20 -10 -38 -36 -36
-62 -2 -27 36 20 22 29 23 37 2z"/>
<path d="M5336 1091 c-28 -31 -56 -117 -56 -172 0 -43 5 -55 29 -80 34 -34 77
-38 121 -13 44 27 63 69 68 155 4 73 3 79 -21 103 -33 33 -114 37 -141 7z"/>
</g>
</svg>
