<?xml version="1.0" standalone="no"?>
<!DOCTYPE svg PUBLIC "-//W3C//DTD SVG 20010904//EN"
 "http://www.w3.org/TR/2001/REC-SVG-20010904/DTD/svg10.dtd">
<svg version="1.0" xmlns="http://www.w3.org/2000/svg"
 width="600.000000pt" height="600.000000pt" viewBox="0 0 600.000000 600.000000"
 preserveAspectRatio="xMidYMid meet">
<metadata>
Created by potrace 1.15, written by Peter Selinger 2001-2017
</metadata>
<g transform="translate(0.000000,600.000000) scale(0.100000,-0.100000)"
fill="#16364b" stroke="none">
<path d="M1495 5770 c-38 -17 -145 -55 -236 -84 -234 -76 -249 -86 -249 -158
0 -41 21 -72 63 -96 28 -15 63 -17 294 -16 285 1 313 6 338 55 23 43 18 77
-14 110 -22 21 -39 29 -68 30 -31 0 -34 2 -17 9 54 22 71 100 32 144 -35 39
-64 40 -143 6z"/>
<path d="M2373 5410 c-38 -23 -40 -33 -47 -220 -10 -278 -71 -482 -175 -593
-14 -16 -56 -46 -92 -67 -80 -48 -93 -62 -93 -107 0 -48 43 -87 89 -80 68 11
201 108 268 195 128 166 191 381 192 653 0 174 -6 198 -60 224 -42 19 -43 19
-82 -5z"/>
<path d="M3538 5291 c-13 -11 -30 -38 -38 -60 -13 -39 -12 -44 23 -115 21 -41
57 -97 82 -124 45 -49 131 -102 167 -102 55 0 108 59 108 118 0 89 -143 268
-232 290 -64 16 -81 15 -110 -7z"/>
<path d="M3023 5113 c-166 -58 -257 -343 -134 -416 90 -53 254 24 315 148 58
120 40 226 -47 266 -50 22 -77 23 -134 2z m37 -180 c0 -15 -40 -73 -50 -73
-15 0 -12 10 13 47 21 31 37 42 37 26z"/>
<path d="M4730 4752 c-39 -39 -45 -83 -32 -226 26 -278 103 -444 222 -476 119
-32 220 72 220 226 0 146 -61 275 -196 412 -89 90 -91 92 -138 92 -39 0 -53
-5 -76 -28z"/>
<path d="M2652 4227 c-91 -35 -149 -122 -137 -205 9 -57 25 -89 62 -123 123
-112 345 -120 503 -19 97 62 131 122 111 197 -17 63 -56 92 -173 125 -119 35
-307 48 -366 25z"/>
<path d="M1133 4125 c-44 -19 -68 -60 -66 -113 1 -37 -2 -45 -22 -54 -33 -15
-58 -71 -50 -109 9 -42 88 -114 163 -150 112 -54 207 -49 278 14 48 42 64 77
64 142 0 115 -78 201 -233 260 -77 29 -90 30 -134 10z"/>
<path d="M5240 3847 c-173 -39 -283 -163 -283 -317 0 -131 70 -243 188 -301
62 -30 68 -31 162 -27 149 6 220 48 281 163 24 45 27 61 27 160 0 95 -3 116
-22 151 -32 60 -63 94 -128 138 -47 33 -67 40 -114 43 -31 1 -81 -3 -111 -10z
m81 -307 c19 0 8 -30 -17 -46 -22 -15 -27 -15 -35 -3 -20 32 -3 64 29 53 8 -2
18 -4 23 -4z"/>
<path d="M4244 3760 c-112 -23 -206 -96 -259 -202 -60 -120 -46 -235 37 -310
63 -56 114 -73 223 -73 88 0 106 3 155 27 30 15 64 35 75 45 77 68 115 169
115 301 0 121 -23 153 -133 191 -66 23 -159 32 -213 21z m60 -301 c-17 -18
-54 -27 -54 -11 0 15 16 31 40 40 31 12 38 -2 14 -29z"/>
<path d="M3412 3365 c-40 -34 -85 -105 -129 -206 -41 -95 -44 -131 -12 -165
73 -77 190 -11 264 150 68 147 48 246 -51 246 -31 0 -51 -7 -72 -25z"/>
<path d="M1530 3145 c-313 -44 -441 -93 -549 -210 -145 -160 -160 -380 -40
-606 65 -121 166 -198 336 -253 176 -58 236 -123 358 -385 48 -102 111 -223
141 -267 105 -159 234 -263 384 -309 85 -26 345 -32 485 -10 73 12 210 20 410
25 330 8 506 28 708 79 276 70 438 167 674 400 135 134 224 275 278 441 25 77
28 99 28 230 1 125 -2 153 -21 203 -27 74 -61 120 -142 193 -299 270 -535 327
-776 188 -168 -98 -222 -124 -308 -148 -78 -23 -109 -26 -265 -28 -161 -2
-182 -1 -246 21 -88 29 -325 143 -516 249 -170 94 -286 144 -401 173 -112 27
-388 35 -538 14z m508 -404 c84 -22 174 -65 322 -152 124 -73 347 -185 443
-223 78 -31 208 -66 246 -66 14 0 53 -9 87 -19 59 -19 63 -19 165 -1 333 57
467 102 698 230 32 18 68 30 90 30 51 0 148 -60 221 -136 l60 -62 0 -75 c0
-130 -50 -247 -150 -347 -79 -80 -231 -195 -322 -245 -200 -109 -503 -164
-933 -171 -137 -2 -281 -8 -320 -13 -38 -6 -134 -11 -212 -11 -118 0 -151 3
-195 20 -101 38 -154 109 -238 315 -101 248 -148 324 -260 428 -122 113 -243
191 -366 236 -85 31 -119 68 -119 131 0 57 20 84 85 113 105 48 545 59 698 18z"/>
<path d="M454 2126 c-52 -23 -58 -75 -20 -153 13 -26 39 -79 57 -117 93 -194
286 -294 381 -198 43 42 50 112 18 178 -42 86 -206 222 -342 284 -51 23 -54
23 -94 6z"/>
<path d="M5033 1377 c-15 -13 -46 -27 -68 -30 -27 -4 -49 -16 -69 -38 -27 -30
-28 -36 -24 -105 13 -200 164 -316 275 -212 35 33 62 118 69 221 6 80 4 99
-11 124 -38 64 -120 83 -172 40z"/>
</g>
</svg>
