<?xml version="1.0" standalone="no"?>
<!DOCTYPE svg PUBLIC "-//W3C//DTD SVG 20010904//EN"
 "http://www.w3.org/TR/2001/REC-SVG-20010904/DTD/svg10.dtd">
<svg version="1.0" xmlns="http://www.w3.org/2000/svg"
 width="600.000000pt" height="600.000000pt" viewBox="0 0 600.000000 600.000000"
 preserveAspectRatio="xMidYMid meet">
<metadata>
Created by potrace 1.15, written by Peter Selinger 2001-2017
</metadata>
<g transform="translate(0.000000,600.000000) scale(0.100000,-0.100000)"
fill="#16364b" stroke="none">
<path d="M3090 5492 c-95 -48 -107 -192 -19 -240 123 -66 155 -170 108 -356
-17 -68 -19 -90 -10 -123 21 -77 79 -123 154 -123 100 0 161 117 174 332 10
174 -31 298 -138 413 -97 103 -190 137 -269 97z"/>
<path d="M2020 5438 c-59 -41 -75 -71 -78 -156 -3 -68 0 -83 25 -132 45 -88
92 -117 261 -160 28 -7 46 -19 52 -33 6 -12 13 -106 18 -209 7 -165 10 -191
28 -215 37 -49 70 -67 124 -67 54 0 87 18 124 68 19 25 21 44 24 227 3 162 0
211 -13 257 -39 133 -126 217 -274 261 -53 16 -54 18 -66 66 -9 34 -24 59 -49
82 -31 29 -43 33 -89 33 -40 0 -63 -6 -87 -22z"/>
<path d="M1530 4769 c-107 -12 -161 -27 -188 -52 -78 -72 -66 -192 24 -245 42
-25 56 -25 229 -2 119 16 272 7 349 -20 96 -34 176 -7 215 74 27 56 26 90 -4
142 -48 81 -165 114 -400 113 -82 -1 -184 -5 -225 -10z"/>
<path d="M4323 4614 c-68 -34 -95 -133 -54 -201 11 -17 44 -47 73 -66 62 -39
114 -96 135 -145 19 -46 43 -172 43 -228 0 -60 21 -106 60 -134 76 -54 179
-29 219 54 21 41 21 50 11 146 -23 231 -92 373 -234 489 -118 95 -186 118
-253 85z"/>
<path d="M3175 4468 c-11 -6 -66 -51 -123 -100 -57 -49 -194 -149 -305 -222
-218 -144 -237 -163 -237 -239 0 -83 70 -147 161 -147 39 0 62 10 155 66 223
135 336 217 447 324 l110 106 4 60 c5 69 -16 111 -69 144 -37 22 -111 26 -143
8z"/>
<path d="M1630 4372 c-23 -12 -43 -35 -59 -65 -32 -66 -24 -124 27 -178 31
-34 48 -42 107 -54 293 -60 543 -70 621 -26 108 61 124 207 31 275 -26 19 -43
21 -215 22 -139 1 -220 7 -314 23 -155 25 -155 25 -198 3z"/>
<path d="M3735 3886 c-27 -13 -109 -60 -181 -104 -157 -96 -299 -169 -449
-229 -60 -24 -122 -56 -138 -71 -89 -85 -29 -242 93 -242 35 0 218 61 328 109
88 39 161 81 313 182 89 58 129 78 165 84 39 5 57 15 86 46 35 36 38 45 38 96
0 45 -5 63 -26 90 -51 67 -138 82 -229 39z"/>
<path d="M2212 3800 c-110 -33 -276 -46 -410 -32 -113 11 -118 11 -161 -11
-58 -29 -83 -64 -89 -125 -3 -39 0 -59 18 -89 38 -69 62 -76 250 -81 251 -6
545 40 611 95 58 49 71 102 44 171 -34 85 -131 111 -263 72z"/>
<path d="M5016 3596 c-118 -44 -178 -165 -155 -308 22 -131 0 -211 -109 -390
-38 -62 -102 -174 -142 -248 -40 -74 -103 -182 -141 -240 -81 -125 -100 -185
-80 -258 19 -74 55 -120 114 -148 63 -29 119 -30 190 -4 73 28 109 69 222 260
54 91 137 223 183 294 201 308 239 426 230 718 -5 166 -16 208 -66 261 -61 64
-169 92 -246 63z"/>
<path d="M1973 3160 c-42 -25 -63 -68 -63 -126 0 -53 34 -121 72 -146 49 -33
174 -69 291 -84 98 -13 130 -22 161 -43 82 -55 202 -25 247 61 24 48 24 71 -2
126 -46 94 -140 137 -399 181 -63 11 -132 27 -152 35 -51 22 -116 20 -155 -4z"/>
<path d="M4367 3151 c-21 -11 -47 -31 -59 -46 -42 -54 -168 -152 -260 -202
-161 -88 -368 -153 -573 -178 -82 -10 -128 -21 -145 -33 -108 -80 -87 -232 38
-282 61 -24 316 14 501 76 130 43 360 154 466 225 112 74 231 196 245 251 21
76 -18 154 -94 189 -52 24 -73 24 -119 0z"/>
<path d="M1385 2947 c-44 -25 -80 -72 -94 -123 -13 -47 5 -572 23 -659 41
-202 211 -499 316 -553 96 -50 220 -9 262 85 32 72 22 123 -45 235 -62 102
-79 144 -107 263 -20 83 -54 351 -65 515 -10 148 -25 183 -100 234 -50 35
-132 36 -190 3z"/>
<path d="M2152 2349 c-49 -5 -99 -16 -120 -27 -100 -51 -100 -193 -1 -261 31
-21 41 -23 124 -18 110 7 158 -3 199 -41 43 -41 68 -52 118 -52 85 0 148 65
148 153 0 26 -6 60 -14 76 -36 69 -172 154 -265 166 -88 11 -107 11 -189 4z"/>
<path d="M4130 2092 c-40 -3 -457 -74 -575 -98 -44 -9 -159 -35 -255 -59 -96
-23 -215 -48 -265 -55 -170 -23 -194 -30 -235 -67 -94 -84 -74 -234 42 -310
38 -25 50 -28 127 -27 113 2 227 22 516 94 251 63 380 87 605 114 164 21 210
40 248 105 34 58 35 127 4 192 -37 77 -117 119 -212 111z"/>
<path d="M4771 1685 c-19 -9 -77 -57 -131 -108 -139 -134 -236 -179 -565 -261
-170 -42 -240 -66 -418 -141 -183 -77 -237 -130 -237 -235 0 -45 11 -72 44
-108 61 -68 136 -71 298 -14 64 23 226 68 358 101 465 117 588 174 789 365
101 97 131 145 131 213 0 66 -17 109 -61 149 -58 53 -139 68 -208 39z"/>
<path d="M2135 1646 c-56 -25 -95 -85 -95 -145 0 -40 70 -174 130 -248 81
-102 222 -197 359 -244 67 -24 106 -24 151 -1 108 54 108 221 0 274 -19 10
-65 32 -103 49 -89 42 -186 132 -238 221 -33 56 -49 74 -82 89 -49 22 -81 23
-122 5z"/>
<path d="M2035 984 c-79 -43 -122 -118 -113 -198 10 -87 57 -126 302 -250 250
-127 395 -162 641 -153 119 4 169 11 243 31 146 41 199 72 233 138 46 91 6
217 -83 264 -44 23 -103 16 -216 -23 -101 -35 -113 -37 -227 -36 -187 1 -342
53 -545 184 -74 47 -91 54 -144 56 -42 2 -70 -2 -91 -13z"/>
</g>
</svg>
