<?xml version="1.0" standalone="no"?>
<!DOCTYPE svg PUBLIC "-//W3C//DTD SVG 20010904//EN"
 "http://www.w3.org/TR/2001/REC-SVG-20010904/DTD/svg10.dtd">
<svg version="1.0" xmlns="http://www.w3.org/2000/svg"
 width="600.000000pt" height="600.000000pt" viewBox="0 0 600.000000 600.000000"
 preserveAspectRatio="xMidYMid meet">
<metadata>
Created by potrace 1.15, written by Peter Selinger 2001-2017
</metadata>
<g transform="translate(0.000000,600.000000) scale(0.100000,-0.100000)"
fill="#16364b" stroke="none">
<path d="M1355 5684 c-246 -123 -271 -140 -285 -194 -24 -88 40 -148 144 -135
184 24 511 77 527 86 46 24 51 99 10 140 -23 23 -38 29 -72 29 -41 0 -41 1
-25 19 9 10 19 34 23 53 4 29 0 41 -23 67 -51 56 -66 52 -299 -65z"/>
<path d="M2390 5428 c-45 -24 -60 -71 -60 -193 0 -152 -26 -365 -56 -453 -43
-129 -85 -177 -209 -244 -46 -25 -85 -54 -94 -69 -31 -55 19 -129 88 -129 101
0 298 153 368 285 63 120 94 307 97 587 1 166 1 168 -24 192 -31 31 -77 41
-110 24z"/>
<path d="M3513 5310 c-31 -13 -63 -68 -63 -109 0 -54 57 -160 119 -221 68 -68
113 -90 181 -90 44 0 56 4 82 30 28 28 30 35 26 85 -6 66 -50 143 -128 226
-44 45 -66 61 -109 73 -61 18 -76 19 -108 6z"/>
<path d="M2978 5140 c-75 -40 -144 -166 -155 -281 -7 -71 21 -139 69 -169 44
-28 119 -22 188 16 100 54 132 116 133 254 1 89 -24 149 -76 180 -41 26 -111
25 -159 0z m62 -207 c0 -22 -17 -50 -25 -42 -5 6 14 59 22 59 1 0 3 -8 3 -17z"/>
<path d="M4764 4762 c-12 -9 -27 -27 -33 -39 -14 -28 -14 -296 0 -382 15 -88
61 -183 106 -220 101 -83 236 -74 305 20 83 112 -39 430 -228 592 -45 38 -63
47 -92 47 -20 0 -47 -8 -58 -18z"/>
<path d="M2663 4226 c-60 -19 -99 -51 -130 -103 -91 -156 57 -323 288 -323
132 0 251 51 338 145 36 39 41 51 41 90 0 92 -34 126 -167 167 -117 36 -297
48 -370 24z"/>
<path d="M1122 4141 c-34 -9 -80 -58 -87 -91 -9 -43 3 -87 31 -109 13 -10 63
-31 111 -47 64 -21 81 -29 62 -32 -14 -1 -46 4 -70 13 -121 45 -153 44 -201
-7 -22 -24 -28 -39 -28 -75 0 -67 39 -100 165 -142 173 -58 309 -45 391 37 89
89 84 211 -12 305 -50 49 -104 81 -196 116 -83 32 -133 42 -166 32z"/>
<path d="M5228 3780 c-63 -11 -145 -50 -189 -88 -19 -17 -48 -55 -65 -84 -27
-49 -29 -61 -29 -153 0 -115 17 -164 80 -233 55 -61 115 -86 202 -86 63 1 83
6 147 38 83 41 148 105 187 183 19 39 24 64 24 133 0 75 -3 91 -29 137 -16 29
-56 76 -89 105 -59 51 -63 53 -126 55 -36 1 -87 -2 -113 -7z m72 -310 c0 -13
-37 -50 -50 -50 -17 0 -23 29 -10 45 14 17 60 21 60 5z"/>
<path d="M4215 3766 c-103 -33 -195 -108 -237 -194 -35 -72 -37 -175 -6 -244
55 -120 145 -183 263 -182 159 0 284 120 335 321 38 146 26 243 -32 274 -70
38 -242 51 -323 25z m65 -286 c0 -6 -12 -23 -26 -37 -20 -20 -28 -23 -37 -14
-9 10 -5 18 16 37 30 26 47 31 47 14z"/>
<path d="M3432 3367 c-32 -18 -65 -70 -124 -199 -60 -130 -64 -170 -23 -205
14 -13 36 -23 48 -23 34 0 121 55 162 102 46 52 105 172 105 211 0 91 -94 155
-168 114z"/>
<path d="M1730 3089 c-125 -16 -316 -61 -390 -91 -202 -84 -323 -216 -371
-409 -18 -68 -20 -102 -16 -193 5 -122 26 -197 77 -275 64 -100 118 -143 273
-218 196 -96 253 -148 358 -336 76 -137 149 -239 233 -325 188 -197 434 -238
806 -137 58 16 168 34 280 45 375 39 606 95 825 199 127 61 219 127 340 243
232 222 335 425 336 663 0 128 -23 206 -90 301 -121 171 -289 287 -458 315
-82 13 -184 -3 -292 -47 -142 -58 -382 -85 -559 -63 -127 15 -230 52 -432 154
-208 104 -270 128 -403 149 -219 37 -371 44 -517 25z m305 -404 c207 -29 251
-42 451 -130 209 -91 316 -127 459 -151 50 -9 114 -22 142 -29 45 -12 83 -12
245 0 230 17 321 34 439 81 105 42 123 40 208 -30 77 -63 121 -122 121 -161 0
-88 -73 -239 -154 -320 -151 -150 -294 -236 -508 -306 -185 -61 -480 -119
-604 -119 -26 0 -84 -11 -128 -24 -142 -43 -240 -59 -345 -54 -83 3 -103 7
-143 31 -64 37 -114 98 -178 213 -87 161 -158 265 -229 334 -68 68 -213 170
-336 236 -80 43 -111 68 -131 106 -17 32 -18 115 -3 155 14 38 66 90 111 114
36 18 166 53 233 62 71 10 258 6 350 -8z"/>
<path d="M445 2148 c-51 -28 -70 -91 -42 -133 8 -11 29 -54 47 -95 50 -110
103 -190 165 -249 65 -61 107 -81 172 -81 90 0 143 55 143 148 0 125 -136 271
-365 391 -64 33 -88 37 -120 19z"/>
<path d="M4930 1533 c-8 -3 -25 -14 -37 -25 -17 -16 -29 -19 -61 -13 -50 8
-95 -13 -117 -55 -31 -60 -10 -256 38 -350 55 -107 174 -121 251 -30 34 41 54
114 71 257 15 126 9 159 -31 195 -21 18 -89 31 -114 21z"/>
</g>
</svg>
