<?xml version="1.0" standalone="no"?>
<!DOCTYPE svg PUBLIC "-//W3C//DTD SVG 20010904//EN"
 "http://www.w3.org/TR/2001/REC-SVG-20010904/DTD/svg10.dtd">
<svg version="1.0" xmlns="http://www.w3.org/2000/svg"
 width="600.000000pt" height="600.000000pt" viewBox="0 0 600.000000 600.000000"
 preserveAspectRatio="xMidYMid meet">
<metadata>
Created by potrace 1.15, written by Peter Selinger 2001-2017
</metadata>
<g transform="translate(0.000000,600.000000) scale(0.100000,-0.100000)"
fill="#16364b" stroke="none">
<path d="M2055 5802 c-39 -24 -147 -141 -251 -272 -46 -58 -133 -168 -195
-245 -129 -163 -153 -207 -147 -275 6 -63 39 -107 102 -136 110 -51 216 -22
491 134 44 25 159 85 257 134 202 101 228 123 228 196 0 89 -60 146 -155 146
-39 0 -76 -12 -174 -57 -69 -31 -126 -55 -128 -53 -3 2 36 46 85 97 111 117
122 134 122 182 0 117 -141 206 -235 149z"/>
<path d="M3023 5680 c-79 -36 -108 -131 -60 -201 18 -27 47 -45 148 -89 157
-68 224 -108 294 -172 67 -61 103 -120 121 -197 39 -162 -18 -254 -186 -302
-83 -23 -125 -81 -118 -159 8 -85 71 -140 157 -140 49 0 158 40 223 81 155
100 250 316 234 533 -14 187 -84 297 -281 444 -139 104 -390 223 -469 222 -12
0 -40 -9 -63 -20z"/>
<path d="M918 5346 c-145 -60 -240 -141 -296 -255 -36 -72 -37 -79 -37 -181 0
-103 1 -108 39 -186 31 -63 57 -97 126 -165 102 -100 162 -134 222 -126 78 10
132 70 132 146 0 60 -17 88 -91 145 -79 63 -113 116 -113 179 0 44 4 54 38 87
22 22 61 46 98 59 33 13 73 34 89 48 77 72 71 194 -14 250 -45 31 -117 30
-193 -1z"/>
<path d="M2733 4985 c-65 -33 -137 -109 -171 -183 -23 -49 -27 -70 -27 -147 0
-78 4 -97 27 -141 64 -122 210 -194 392 -194 130 0 201 102 147 213 -31 63
-61 80 -154 88 -82 6 -113 22 -101 52 5 13 15 15 48 11 144 -20 225 172 114
272 -67 62 -184 74 -275 29z"/>
<path d="M4812 4919 c-34 -13 -74 -46 -94 -77 -15 -22 -18 -49 -18 -142 1
-269 66 -425 212 -505 47 -27 62 -30 138 -30 96 0 123 11 182 71 89 88 103
240 35 378 -62 125 -160 216 -310 287 -63 30 -104 35 -145 18z"/>
<path d="M1907 4610 c-89 -27 -214 -117 -241 -174 -35 -75 -9 -163 60 -203 61
-35 110 -31 182 17 80 54 101 53 146 -10 43 -60 72 -80 126 -87 53 -7 114 20
140 62 33 54 27 120 -18 195 -50 82 -120 152 -185 184 -40 20 -65 26 -116 25
-37 0 -79 -5 -94 -9z"/>
<path d="M2895 3935 c-49 -27 -84 -66 -115 -130 -47 -96 -63 -182 -64 -345 -1
-149 11 -224 51 -307 47 -99 194 -114 262 -27 31 40 36 89 17 164 -22 81 -31
197 -22 281 7 62 9 65 46 82 103 48 107 181 7 261 -46 37 -133 47 -182 21z"/>
<path d="M1170 3873 c-19 -2 -84 -16 -144 -30 -91 -21 -115 -31 -147 -60 -46
-42 -63 -88 -57 -159 9 -110 100 -188 210 -182 54 3 57 2 52 -17 -18 -55 -102
-207 -253 -452 -136 -224 -212 -392 -211 -472 2 -140 140 -255 255 -211 14 5
58 38 98 72 39 35 160 132 268 215 108 84 258 209 332 278 75 69 139 125 143
125 15 0 -7 -181 -35 -292 -49 -195 -101 -313 -278 -630 -57 -104 -107 -203
-110 -222 -16 -99 94 -210 190 -192 54 10 72 30 140 153 35 65 86 156 112 203
145 258 226 489 271 765 29 178 32 209 33 291 2 155 -30 248 -102 299 -37 27
-50 30 -112 30 -107 -1 -187 -48 -371 -220 -58 -54 -106 -96 -108 -94 -2 2 31
69 73 150 104 197 130 258 143 329 34 194 -97 335 -305 328 -29 0 -68 -3 -87
-5z"/>
<path d="M4250 3790 c-220 -27 -353 -163 -353 -360 0 -118 67 -221 178 -272
78 -36 189 -32 276 9 118 55 203 153 284 327 64 136 59 215 -15 259 -49 29
-260 50 -370 37z m10 -326 c-21 -24 -51 -37 -62 -26 -12 12 28 42 55 42 17 0
17 -2 7 -16z"/>
<path d="M3455 3366 c-150 -70 -266 -339 -192 -446 43 -64 68 -75 179 -78 123
-5 174 8 232 59 58 51 79 104 79 199 0 133 -46 235 -124 276 -42 21 -116 17
-174 -10z"/>
<path d="M4923 2924 c-44 -22 -243 -229 -275 -285 -76 -138 -77 -250 -1 -338
64 -75 182 -92 288 -41 139 67 255 265 255 436 0 69 -11 95 -67 159 -70 82
-131 103 -200 69z"/>
<path d="M4085 2516 c-88 -41 -144 -129 -145 -227 0 -33 12 -100 31 -163 17
-60 29 -110 26 -112 -2 -3 -34 9 -71 26 -161 72 -307 55 -396 -46 -103 -118
-104 -248 -5 -646 49 -196 58 -219 107 -265 144 -136 388 -37 388 158 0 31 -9
92 -20 135 -11 44 -20 90 -20 104 0 23 1 23 38 -12 73 -72 168 -87 293 -49
114 36 182 100 219 206 36 105 24 213 -50 430 -23 66 -54 169 -71 228 -35 131
-57 176 -101 209 -71 53 -144 61 -223 24z"/>
<path d="M2914 2190 c-82 -15 -203 -64 -385 -155 -161 -81 -189 -90 -189 -62
0 23 -61 87 -103 109 -59 31 -155 30 -217 -2 -61 -31 -180 -154 -213 -220 -31
-61 -34 -104 -12 -158 32 -75 102 -121 186 -122 40 0 48 -3 53 -22 14 -54 8
-65 -50 -93 -70 -34 -179 -136 -221 -207 -109 -181 -76 -416 94 -675 108 -164
264 -280 458 -339 79 -24 107 -28 230 -28 165 -1 224 12 361 80 166 81 274
193 274 284 0 43 -29 108 -61 137 -61 55 -157 80 -230 60 -14 -3 -57 -32 -95
-62 -100 -80 -164 -109 -244 -108 -167 0 -327 103 -416 268 -33 61 -38 77 -38
137 0 51 4 72 18 87 26 29 43 26 74 -11 71 -85 130 -142 166 -160 82 -42 197
-4 243 80 49 89 36 167 -39 245 -56 58 -89 117 -111 197 -30 110 -30 107 6
114 17 4 91 38 162 77 139 75 296 152 333 164 31 9 29 -11 -17 -146 -50 -148
-80 -219 -153 -359 -55 -106 -60 -119 -56 -167 9 -102 85 -173 189 -173 62 0
111 22 147 66 44 53 197 359 231 459 55 164 93 335 93 413 0 131 -67 222 -199
272 -66 24 -191 34 -269 20z"/>
</g>
</svg>
