<?xml version="1.0" standalone="no"?>
<!DOCTYPE svg PUBLIC "-//W3C//DTD SVG 20010904//EN"
 "http://www.w3.org/TR/2001/REC-SVG-20010904/DTD/svg10.dtd">
<svg version="1.0" xmlns="http://www.w3.org/2000/svg"
 width="600.000000pt" height="600.000000pt" viewBox="0 0 600.000000 600.000000"
 preserveAspectRatio="xMidYMid meet">
<metadata>
Created by potrace 1.15, written by Peter Selinger 2001-2017
</metadata>
<g transform="translate(0.000000,600.000000) scale(0.100000,-0.100000)"
fill="#16364b" stroke="none">
<path d="M2255 5828 c-78 -44 -473 -366 -597 -487 -176 -170 -228 -265 -199
-360 47 -157 218 -183 526 -78 79 27 340 126 578 219 15 6 38 23 51 39 75 89
11 230 -112 246 -40 5 -122 -19 -341 -104 -63 -24 -118 -42 -122 -41 -11 4 98
97 256 215 82 62 149 121 162 142 62 98 -11 221 -131 221 -28 0 -60 -6 -71
-12z"/>
<path d="M3070 5681 c-79 -42 -104 -170 -47 -244 28 -37 50 -48 148 -70 163
-38 300 -112 348 -190 45 -73 36 -191 -22 -288 -42 -69 -124 -135 -258 -204
-117 -61 -139 -84 -147 -150 -9 -85 50 -154 139 -163 41 -4 61 1 124 31 281
134 448 332 486 578 28 178 -21 329 -143 445 -108 104 -320 214 -494 258 -79
20 -92 20 -134 -3z"/>
<path d="M908 5278 c-156 -80 -275 -228 -297 -368 -11 -66 1 -158 29 -233 45
-120 173 -261 288 -318 102 -51 223 25 222 140 -1 63 -17 87 -101 151 -91 68
-136 144 -124 207 8 45 63 102 134 138 75 37 107 69 121 120 21 77 -12 155
-82 191 -48 25 -100 17 -190 -28z"/>
<path d="M2673 4956 c-122 -55 -237 -182 -278 -305 -76 -230 95 -496 362 -566
112 -29 172 -15 218 52 17 26 25 51 25 81 0 86 -44 133 -156 167 -92 28 -139
62 -161 113 -13 31 -12 38 9 81 17 34 40 57 90 91 97 65 110 80 115 137 5 53
-17 98 -69 136 -34 26 -113 32 -155 13z"/>
<path d="M4753 4950 c-18 -10 -44 -38 -59 -60 -26 -39 -27 -44 -21 -143 16
-254 115 -450 265 -524 48 -23 69 -28 132 -27 80 0 112 12 170 61 108 91 107
311 -3 460 -55 74 -135 134 -266 201 -117 58 -164 65 -218 32z"/>
<path d="M1843 4445 c-90 -20 -179 -70 -250 -142 -75 -75 -93 -121 -73 -185
17 -60 75 -112 139 -128 46 -11 55 -10 93 9 24 12 57 41 75 65 33 45 84 76
126 76 13 0 42 -12 63 -26 98 -67 211 -27 245 85 33 110 -62 214 -229 250 -67
14 -110 13 -189 -4z"/>
<path d="M2525 3831 c-48 -12 -75 -30 -95 -64 -37 -61 -20 -139 43 -194 41
-36 61 -41 202 -46 55 -2 110 -9 123 -16 33 -17 28 -57 -18 -147 -50 -100
-123 -196 -286 -380 -71 -80 -134 -157 -141 -172 -43 -97 21 -202 122 -202 62
0 100 27 235 167 222 230 343 398 391 544 34 105 34 243 0 313 -52 105 -144
164 -296 191 -90 15 -227 18 -280 6z"/>
<path d="M4241 3795 c-189 -53 -336 -211 -336 -360 1 -110 80 -212 197 -251
81 -27 199 -16 283 25 118 58 190 149 265 332 36 89 38 144 7 189 -41 62 -72
72 -225 76 -101 3 -151 0 -191 -11z m48 -301 c-20 -25 -67 -46 -74 -33 -8 12
-9 12 30 32 41 22 62 23 44 1z"/>
<path d="M1220 3759 c-66 -7 -104 -19 -230 -71 -152 -62 -190 -105 -190 -209
0 -75 34 -129 102 -163 55 -28 100 -32 144 -16 36 14 40 7 16 -32 -11 -18 -65
-123 -120 -233 -147 -294 -244 -571 -246 -701 -1 -61 3 -76 27 -112 38 -58 95
-86 177 -86 41 0 76 6 95 16 17 9 166 153 331 320 166 166 330 330 364 363
l62 60 -5 -70 c-8 -90 -104 -506 -152 -654 -20 -62 -63 -179 -96 -259 -65
-160 -71 -200 -39 -262 47 -92 165 -113 233 -42 49 51 196 450 279 757 28 105
67 246 87 315 31 109 35 139 35 235 0 257 -85 389 -249 388 -112 -1 -197 -55
-387 -245 -76 -75 -138 -133 -138 -129 0 5 47 104 104 220 137 279 151 352 91
471 -53 105 -158 155 -295 139z"/>
<path d="M3520 3381 c-110 -36 -184 -131 -215 -279 -34 -166 -14 -244 75 -290
40 -21 55 -23 130 -19 215 12 355 135 355 312 -1 117 -52 198 -161 251 -55 27
-143 39 -184 25z"/>
<path d="M4845 2761 c-68 -28 -259 -293 -299 -415 -6 -18 -10 -16 -45 18 -63
62 -155 80 -249 50 -97 -32 -163 -112 -165 -203 -1 -25 9 -83 22 -129 13 -45
22 -85 19 -88 -3 -2 -45 7 -94 22 -121 36 -267 39 -335 8 -67 -31 -124 -87
-156 -152 -26 -53 -28 -66 -28 -182 0 -76 9 -184 22 -275 12 -82 24 -179 28
-214 11 -109 60 -176 150 -200 115 -31 259 68 296 202 9 32 8 79 -1 190 -6 82
-10 151 -7 153 6 6 57 -21 137 -72 54 -35 57 -36 140 -31 108 5 176 33 230 94
64 73 83 136 88 288 2 72 -1 162 -6 200 -5 39 -8 72 -6 74 2 2 12 -4 23 -13
51 -47 150 -51 234 -11 142 67 286 295 287 453 0 77 -7 91 -79 163 -31 31 -66
61 -78 68 -25 13 -98 14 -128 2z"/>
<path d="M2915 2384 c-84 -21 -179 -61 -366 -155 -229 -114 -258 -136 -280
-209 l-12 -40 -57 0 c-76 0 -134 -21 -201 -75 -110 -87 -128 -208 -47 -301 39
-44 79 -65 142 -73 l49 -6 32 -123 c28 -109 30 -125 16 -129 -95 -31 -182
-107 -224 -193 -38 -77 -54 -199 -39 -282 27 -146 148 -321 307 -441 221 -166
459 -222 660 -155 78 26 250 116 283 148 30 30 62 96 62 130 0 88 -61 171
-140 190 -63 15 -91 9 -224 -53 -130 -59 -182 -64 -283 -24 -108 43 -166 92
-242 201 -86 124 -29 169 82 66 89 -81 153 -87 255 -20 83 53 122 115 122 191
0 62 -26 104 -97 160 -106 83 -140 151 -204 412 -21 86 -39 160 -39 162 0 3 6
5 13 5 8 0 99 43 203 95 184 92 280 133 291 122 12 -13 -94 -284 -177 -448
-56 -111 -67 -154 -50 -204 28 -85 103 -134 205 -135 61 0 113 21 143 59 25
32 100 188 136 284 147 393 175 515 141 616 -24 72 -99 152 -182 193 -59 29
-77 33 -162 35 -53 1 -105 0 -116 -3z"/>
</g>
</svg>
