<?xml version="1.0" standalone="no"?>
<!DOCTYPE svg PUBLIC "-//W3C//DTD SVG 20010904//EN"
 "http://www.w3.org/TR/2001/REC-SVG-20010904/DTD/svg10.dtd">
<svg version="1.0" xmlns="http://www.w3.org/2000/svg"
 width="600.000000pt" height="600.000000pt" viewBox="0 0 600.000000 600.000000"
 preserveAspectRatio="xMidYMid meet">
<metadata>
Created by potrace 1.15, written by Peter Selinger 2001-2017
</metadata>
<g transform="translate(0.000000,600.000000) scale(0.100000,-0.100000)"
fill="#16364b" stroke="none">
<path d="M3071 5628 c-37 -19 -52 -36 -87 -100 -123 -225 -136 -367 -41 -475
16 -19 48 -43 70 -54 50 -26 156 -49 230 -49 31 0 57 -4 57 -9 0 -4 -31 -29
-69 -54 -147 -98 -494 -415 -525 -481 -19 -40 -21 -95 -4 -131 32 -70 192
-140 569 -249 123 -35 248 -74 277 -85 135 -53 246 1 246 120 0 52 -19 87 -65
121 -36 27 -197 79 -424 138 -110 28 -204 55 -208 59 -9 9 82 91 205 183 83
62 195 132 340 212 73 40 125 86 139 123 14 38 11 112 -7 149 -33 69 -148 144
-266 172 -25 7 -102 17 -170 22 -67 6 -131 13 -141 16 -22 7 -18 22 34 126 45
89 50 144 19 195 -40 67 -110 87 -179 51z"/>
<path d="M1493 5375 c-239 -104 -596 -617 -620 -891 -7 -77 8 -124 52 -163 56
-49 88 -49 243 -3 75 23 155 46 177 51 60 14 225 35 231 28 7 -7 -15 -49 -79
-150 -103 -161 -164 -294 -178 -392 -21 -136 -21 -149 -2 -185 39 -76 129
-101 208 -59 22 12 117 57 212 100 248 113 307 144 336 179 61 72 40 182 -43
225 -50 26 -107 19 -195 -24 -44 -21 -81 -38 -83 -36 -1 1 27 51 63 111 72
121 105 210 105 288 0 105 -77 206 -184 243 -69 24 -259 23 -374 -1 -46 -10
-86 -15 -89 -13 -16 17 134 234 206 299 31 28 88 69 126 93 92 56 110 81 110
155 0 66 -18 99 -75 138 -38 25 -98 29 -147 7z"/>
<path d="M4565 4491 c-111 -31 -338 -133 -372 -166 -59 -59 -57 -154 7 -217
55 -56 89 -53 257 23 74 33 137 58 140 55 12 -12 -96 -205 -304 -545 -43 -71
-46 -138 -8 -194 14 -20 30 -37 36 -37 5 0 29 -18 53 -40 41 -38 50 -41 252
-89 229 -54 264 -65 264 -82 0 -28 -141 -271 -247 -427 -68 -100 -76 -132 -49
-196 28 -66 115 -108 184 -88 49 15 77 45 162 177 140 216 250 471 250 576 0
96 -47 173 -138 226 -57 34 -97 47 -276 93 -81 22 -151 41 -153 44 -3 3 24 54
60 114 76 125 176 328 207 421 57 173 26 302 -85 352 -51 24 -158 24 -240 0z"/>
<path d="M3775 3672 c-46 -21 -92 -71 -101 -108 -28 -110 69 -244 176 -244 34
0 50 -4 54 -16 10 -25 7 -54 -8 -82 -8 -15 -17 -35 -20 -44 -4 -15 -17 -18
-64 -18 -72 0 -161 -23 -224 -57 -61 -33 -157 -135 -188 -197 -56 -116 20
-236 149 -236 66 0 94 16 142 79 51 66 89 82 207 84 84 2 105 5 128 23 42 31
64 65 71 109 3 25 18 53 37 75 43 47 60 75 81 139 25 76 17 187 -18 261 -81
167 -302 288 -422 232z"/>
<path d="M2515 3619 c-124 -19 -347 -113 -405 -171 -134 -134 45 -340 209
-240 99 60 210 102 271 102 39 0 40 -1 40 -34 0 -55 -55 -255 -98 -353 -21
-50 -71 -144 -111 -211 -40 -66 -76 -134 -81 -151 -11 -38 -1 -79 40 -164 26
-55 42 -75 77 -98 72 -45 119 -47 221 -9 145 54 341 114 348 107 10 -9 -30
-114 -93 -247 -45 -93 -55 -125 -56 -170 -3 -98 64 -176 163 -194 49 -8 130
17 162 51 43 45 171 337 202 459 45 180 20 318 -76 415 -99 100 -237 119 -439
59 -36 -11 -71 -20 -77 -20 -6 0 2 32 20 73 69 162 118 437 97 539 -40 189
-202 290 -414 257z"/>
<path d="M1099 3340 c-87 -26 -287 -162 -327 -222 -21 -33 -27 -53 -27 -97 1
-89 48 -139 152 -161 43 -9 59 -8 108 8 l57 20 -6 -32 c-4 -17 -18 -109 -31
-205 -14 -95 -34 -217 -45 -270 -49 -239 -65 -450 -39 -518 13 -35 46 -71 83
-90 38 -20 164 -29 208 -14 54 18 78 48 388 486 150 212 232 325 236 325 2 0
11 -17 19 -37 17 -41 11 -113 -25 -289 -27 -128 -80 -618 -80 -729 0 -150 75
-244 187 -233 61 6 96 30 123 84 24 49 25 85 3 146 -16 45 -15 57 6 265 13
120 36 290 52 378 48 263 55 365 36 487 -9 57 -18 127 -21 156 -5 55 -41 141
-73 178 -49 55 -117 77 -190 62 -119 -26 -221 -136 -398 -427 -98 -163 -134
-210 -122 -161 3 14 13 66 21 115 77 452 83 543 42 630 -47 100 -135 155 -246
154 -36 0 -77 -4 -91 -9z"/>
<path d="M4710 2251 c-90 -28 -170 -114 -170 -186 0 -31 -18 -32 -133 -10 -99
19 -266 19 -336 0 -125 -33 -237 -114 -298 -216 -46 -78 -92 -223 -105 -339
-7 -55 -16 -100 -21 -100 -5 0 -31 20 -58 44 -170 153 -317 184 -482 103 -136
-67 -261 -216 -364 -434 -54 -114 -52 -116 -83 74 -33 199 -49 271 -82 371
-25 74 -39 100 -69 127 -113 101 -280 50 -320 -98 -12 -46 -7 -83 27 -185 14
-40 42 -177 64 -305 43 -253 54 -296 100 -391 77 -163 231 -251 405 -231 110
12 176 62 194 147 18 82 92 300 124 363 55 111 131 205 165 205 9 0 58 -39
107 -86 109 -102 192 -165 271 -201 84 -39 195 -39 275 0 78 38 135 98 180
192 l39 80 11 205 c6 113 15 209 20 214 18 19 126 17 245 -3 202 -35 312 -24
423 42 64 38 111 93 148 173 26 54 28 69 28 174 0 100 -3 120 -22 157 -49 92
-181 145 -283 114z"/>
</g>
</svg>
