<?xml version="1.0" standalone="no"?>
<!DOCTYPE svg PUBLIC "-//W3C//DTD SVG 20010904//EN"
 "http://www.w3.org/TR/2001/REC-SVG-20010904/DTD/svg10.dtd">
<svg version="1.0" xmlns="http://www.w3.org/2000/svg"
 width="600.000000pt" height="600.000000pt" viewBox="0 0 600.000000 600.000000"
 preserveAspectRatio="xMidYMid meet">
<metadata>
Created by potrace 1.15, written by Peter Selinger 2001-2017
</metadata>
<g transform="translate(0.000000,600.000000) scale(0.100000,-0.100000)"
fill="#16364b" stroke="none">
<path d="M1655 5811 c-23 -10 -49 -30 -58 -44 -23 -36 -92 -318 -107 -441 -24
-184 1 -338 63 -405 112 -119 274 -59 441 164 138 183 256 383 256 432 0 109
-95 177 -195 139 -34 -13 -51 -29 -76 -69 -89 -142 -204 -308 -207 -299 -5 16
25 168 54 276 29 111 30 135 3 187 -14 29 -32 46 -62 60 -52 23 -62 23 -112 0z"/>
<path d="M3149 5577 c-42 -28 -65 -87 -55 -140 10 -53 55 -99 176 -180 177
-118 276 -201 329 -275 l21 -30 -56 -4 c-47 -4 -61 -10 -91 -40 -29 -30 -37
-45 -41 -87 -4 -50 -3 -53 35 -89 68 -65 220 -93 306 -57 53 22 105 81 122
138 19 66 19 82 -5 159 -32 103 -137 244 -265 354 -58 50 -287 217 -349 255
-41 25 -86 24 -127 -4z"/>
<path d="M908 5461 c-121 -39 -245 -149 -300 -267 -72 -155 -38 -345 84 -461
89 -84 158 -103 224 -63 34 22 74 90 74 128 0 43 -32 102 -76 137 -86 71 -80
171 16 238 17 12 44 17 93 17 47 0 79 6 105 19 103 53 101 213 -4 257 -46 19
-147 17 -216 -5z"/>
<path d="M2969 5163 c-47 -8 -132 -67 -171 -117 -110 -147 -51 -343 119 -392
98 -29 256 7 312 71 47 54 55 194 16 290 -44 105 -162 168 -276 148z"/>
<path d="M2285 4858 c-11 -6 -31 -21 -45 -34 -16 -14 -71 -35 -153 -59 -196
-54 -233 -80 -243 -162 -6 -48 20 -100 65 -130 40 -27 105 -30 169 -8 23 8 86
24 140 36 209 45 274 95 274 209 0 91 -61 160 -140 160 -26 0 -56 -6 -67 -12z"/>
<path d="M4775 4846 c-42 -19 -82 -62 -96 -104 -15 -47 -6 -246 16 -327 35
-133 111 -242 199 -287 97 -49 218 -30 305 48 120 108 137 270 43 407 -64 92
-168 178 -294 243 -73 37 -122 43 -173 20z"/>
<path d="M2835 4111 c-98 -17 -180 -82 -204 -160 -35 -117 19 -219 149 -284
142 -72 329 -76 515 -13 157 54 215 105 215 189 0 83 -42 124 -180 175 -208
77 -393 112 -495 93z"/>
<path d="M1025 4034 c-67 -35 -96 -81 -97 -153 0 -53 17 -94 54 -128 35 -33
72 -43 161 -43 45 0 88 -4 96 -9 17 -11 -55 -84 -403 -416 -109 -104 -207
-203 -217 -220 -23 -36 -25 -124 -5 -163 34 -66 116 -110 181 -98 18 4 50 18
71 32 l37 25 27 -19 c39 -30 100 -44 138 -32 18 5 55 25 81 44 27 20 51 36 54
36 2 0 10 -14 17 -30 7 -17 27 -40 44 -52 98 -67 135 -127 143 -232 12 -169
-101 -389 -244 -473 -40 -23 -48 -25 -82 -14 -85 25 -160 2 -193 -60 -47 -88
13 -190 136 -229 62 -20 170 -8 241 25 139 66 299 270 369 471 75 214 75 399
-1 547 -24 48 -105 139 -152 170 -14 9 -22 19 -19 22 3 3 50 26 104 50 l98 44
37 -34 c61 -55 140 -58 208 -8 54 41 63 76 53 208 -8 100 -12 118 -35 148 -51
67 -157 84 -233 38 -34 -21 -235 -103 -240 -98 -2 2 22 36 52 76 129 171 158
305 95 428 -58 113 -186 163 -416 163 -99 0 -137 -4 -160 -16z"/>
<path d="M4190 3784 c-103 -28 -189 -96 -238 -189 -36 -67 -38 -186 -5 -256
27 -59 92 -125 148 -150 90 -40 214 -34 309 13 57 29 130 107 165 175 33 66
81 226 81 270 0 35 -31 87 -65 109 -63 41 -287 57 -395 28z m90 -290 c0 -12
-35 -33 -54 -34 -18 0 -18 1 -1 20 17 19 55 28 55 14z"/>
<path d="M3404 3401 c-52 -24 -100 -85 -160 -208 -41 -84 -46 -101 -42 -145 7
-73 46 -109 130 -119 124 -16 208 33 268 156 21 42 25 65 25 140 0 79 -3 94
-24 124 -26 36 -90 71 -131 71 -14 0 -44 -9 -66 -19z"/>
<path d="M5084 3290 c-53 -12 -145 -71 -204 -130 -169 -169 -196 -389 -63
-499 67 -56 162 -73 258 -47 152 40 253 152 275 304 15 111 -15 211 -91 295
-62 69 -113 92 -175 77z"/>
<path d="M2113 2532 c-57 -20 -96 -47 -164 -116 -72 -70 -211 -245 -240 -301
-14 -27 -47 -79 -72 -116 -68 -96 -161 -281 -197 -387 -59 -177 -72 -385 -34
-537 34 -133 144 -283 287 -391 80 -60 130 -85 269 -132 284 -98 508 -95 713
9 116 60 197 128 279 238 92 123 100 137 189 316 88 176 137 297 169 415 31
118 32 317 0 402 -45 123 -138 224 -243 265 -64 25 -268 23 -367 -4 l-72 -20
-46 93 c-59 122 -145 206 -250 246 -98 37 -157 43 -221 20z m147 -497 c12 -38
33 -88 45 -110 22 -39 98 -110 142 -133 37 -20 117 -13 260 22 76 19 161 38
190 41 51 7 52 6 59 -21 24 -94 -83 -479 -180 -648 -48 -84 -162 -211 -230
-257 -152 -101 -335 -104 -518 -6 -238 126 -303 257 -252 505 29 143 88 253
208 391 31 36 56 70 56 77 0 19 183 226 191 216 3 -4 17 -38 29 -77z"/>
<path d="M4005 2455 c-73 -39 -124 -116 -125 -187 0 -20 7 -67 15 -104 9 -36
14 -68 12 -70 -2 -3 -16 0 -31 6 -34 13 -110 13 -156 0 -48 -13 -106 -63 -132
-113 -30 -57 -27 -153 7 -272 14 -49 47 -174 73 -276 27 -102 57 -197 68 -211
38 -51 82 -73 148 -73 86 0 150 33 196 103 33 51 35 52 82 52 69 0 150 34 191
80 45 49 52 63 67 133 16 78 2 186 -61 467 -28 124 -57 254 -65 290 -18 82
-40 117 -92 154 -53 37 -148 47 -197 21z"/>
</g>
</svg>
