<?xml version="1.0" standalone="no"?>
<!DOCTYPE svg PUBLIC "-//W3C//DTD SVG 20010904//EN"
 "http://www.w3.org/TR/2001/REC-SVG-20010904/DTD/svg10.dtd">
<svg version="1.0" xmlns="http://www.w3.org/2000/svg"
 width="600.000000pt" height="600.000000pt" viewBox="0 0 600.000000 600.000000"
 preserveAspectRatio="xMidYMid meet">
<metadata>
Created by potrace 1.15, written by Peter Selinger 2001-2017
</metadata>
<g transform="translate(0.000000,600.000000) scale(0.100000,-0.100000)"
fill="#16364b" stroke="none">
<path d="M2875 5566 c-42 -19 -60 -41 -94 -121 -106 -251 -79 -420 78 -493 51
-24 66 -26 177 -25 67 0 136 4 153 8 43 9 38 -4 -17 -45 -53 -39 -417 -404
-493 -493 -45 -54 -49 -62 -49 -112 0 -47 5 -59 41 -105 22 -28 54 -60 72 -70
38 -23 178 -57 433 -105 105 -19 224 -44 265 -55 125 -33 179 -24 233 40 50
60 28 165 -44 209 -44 26 -163 56 -394 100 -110 20 -201 41 -203 47 -7 20 282
290 418 391 153 115 195 157 205 208 22 119 -49 210 -200 258 -63 20 -90 22
-253 21 -150 -1 -183 1 -183 12 0 8 16 48 35 90 20 43 35 91 35 112 0 100
-119 170 -215 128z"/>
<path d="M1523 5271 c-179 -83 -413 -332 -526 -556 -81 -162 -92 -255 -41
-323 55 -71 115 -76 334 -27 136 30 300 44 300 26 0 -7 -32 -89 -72 -184 -73
-176 -91 -253 -69 -295 10 -18 6 -23 -31 -44 -105 -58 -109 -197 -7 -266 67
-46 163 -20 515 144 123 58 172 86 198 114 71 79 50 186 -46 236 -50 26 -101
17 -202 -33 -53 -26 -98 -44 -102 -40 -4 3 15 55 41 114 73 164 88 210 89 288
1 121 -60 208 -180 256 -53 21 -75 23 -206 23 -100 0 -145 3 -141 11 4 5 29
37 57 69 65 76 167 160 232 192 79 39 114 84 114 149 0 47 -32 108 -72 136
-44 32 -129 36 -185 10z"/>
<path d="M4466 4584 c-71 -16 -243 -82 -356 -137 -79 -39 -110 -80 -110 -146
0 -28 8 -59 20 -79 20 -33 87 -71 125 -72 11 0 80 29 155 64 177 85 190 90
190 71 0 -25 -166 -348 -246 -480 -104 -173 -103 -205 19 -322 49 -47 73 -63
103 -68 21 -3 50 -8 64 -11 14 -2 97 -8 185 -14 88 -5 177 -13 199 -16 36 -6
38 -8 32 -35 -3 -16 -60 -138 -126 -270 -66 -132 -120 -250 -120 -262 1 -40
38 -106 72 -127 44 -27 112 -26 153 1 43 30 256 425 306 567 39 113 37 211 -7
279 -53 81 -120 106 -357 133 -95 11 -187 22 -205 25 l-33 6 37 67 c21 37 79
148 129 247 121 236 145 333 109 438 -42 122 -174 178 -338 141z"/>
<path d="M3731 3668 c-106 -40 -166 -129 -166 -243 0 -84 19 -116 83 -141 57
-23 107 -8 156 46 20 22 38 40 41 40 13 0 3 -96 -16 -146 -36 -97 -55 -121
-107 -139 -116 -38 -273 -150 -309 -218 -33 -65 -11 -148 49 -185 76 -47 151
-37 223 29 70 65 145 94 325 129 106 20 165 79 157 157 -2 22 -14 55 -27 73
-22 31 -22 33 -6 88 37 134 30 238 -24 349 -75 152 -230 218 -379 161z"/>
<path d="M2520 3558 c-89 -11 -291 -76 -375 -121 -74 -40 -105 -83 -105 -146
0 -82 57 -152 136 -167 27 -5 50 1 111 31 112 54 208 84 285 92 82 7 86 2 69
-99 -16 -97 -66 -225 -134 -345 -32 -56 -60 -117 -64 -136 -6 -42 18 -99 53
-122 l25 -16 -39 -29 c-101 -73 -89 -208 24 -289 56 -40 124 -39 279 2 192 51
325 81 332 73 9 -8 -9 -58 -63 -173 -49 -104 -54 -146 -25 -208 52 -113 193
-160 288 -98 45 29 68 71 124 224 48 132 71 238 72 330 1 78 -2 92 -31 152
-48 98 -133 157 -248 172 -65 8 -191 -13 -349 -59 -66 -19 -121 -33 -123 -31
-2 2 15 35 37 73 50 83 133 269 160 357 33 107 37 201 12 281 -58 189 -223
281 -451 252z"/>
<path d="M1191 3288 c-116 -18 -303 -135 -341 -213 -45 -94 -10 -199 83 -246
34 -18 53 -21 109 -17 62 5 68 4 68 -14 0 -11 -20 -135 -45 -276 -66 -377 -82
-570 -54 -653 28 -82 95 -121 207 -120 116 1 120 5 265 226 102 156 416 555
436 555 4 0 13 -21 20 -46 21 -71 8 -239 -34 -439 -59 -280 -75 -383 -75 -479
0 -80 3 -96 24 -127 60 -88 179 -92 249 -9 31 36 37 37 37 8 0 -13 24 -124 54
-248 30 -124 67 -274 81 -335 34 -149 70 -222 150 -305 93 -95 159 -125 280
-125 121 0 178 26 280 130 67 67 82 91 143 219 104 215 214 372 281 397 32 13
74 -10 209 -113 146 -111 195 -133 297 -133 67 0 89 4 137 28 63 31 152 120
162 164 4 15 23 44 41 65 69 75 78 132 45 270 -11 46 -23 117 -26 159 -6 72
-5 78 15 89 12 6 103 18 202 25 99 8 201 21 227 29 130 38 241 126 285 224 51
113 60 299 18 380 -38 74 -113 122 -189 122 -48 0 -133 -42 -168 -83 -37 -44
-74 -125 -74 -163 l0 -32 -182 -4 c-164 -4 -191 -8 -265 -32 -160 -52 -260
-146 -304 -286 -32 -97 -36 -255 -10 -400 11 -63 19 -115 18 -116 -1 -1 -35
22 -75 52 -254 186 -487 186 -679 1 -82 -79 -160 -193 -273 -404 -50 -94 -98
-174 -106 -177 -28 -11 -56 82 -116 384 -33 162 -67 311 -77 329 -10 19 -34
49 -55 65 -31 26 -48 31 -105 34 -92 5 -158 -29 -199 -103 -21 -37 -14 42 18
211 47 255 54 326 54 569 1 269 -16 405 -61 495 -55 109 -178 146 -298 90 -63
-30 -221 -186 -334 -333 -46 -59 -85 -106 -87 -105 -1 2 6 46 17 98 31 150 51
347 44 424 -13 135 -61 219 -152 268 -58 31 -101 37 -172 26z"/>
</g>
</svg>
