<?xml version="1.0" standalone="no"?>
<!DOCTYPE svg PUBLIC "-//W3C//DTD SVG 20010904//EN"
 "http://www.w3.org/TR/2001/REC-SVG-20010904/DTD/svg10.dtd">
<svg version="1.0" xmlns="http://www.w3.org/2000/svg"
 width="600.000000pt" height="600.000000pt" viewBox="0 0 600.000000 600.000000"
 preserveAspectRatio="xMidYMid meet">
<metadata>
Created by potrace 1.15, written by Peter Selinger 2001-2017
</metadata>
<g transform="translate(0.000000,600.000000) scale(0.100000,-0.100000)"
fill="#16364b" stroke="none">
<path d="M2393 5374 c-19 -20 -24 -32 -19 -54 8 -41 -12 -247 -34 -354 -48
-234 -113 -342 -270 -448 -53 -36 -66 -50 -68 -74 -2 -20 4 -36 18 -49 20 -18
21 -18 63 2 112 55 220 159 274 267 71 139 122 382 126 597 2 83 -1 100 -17
118 -25 28 -41 27 -73 -5z"/>
<path d="M3554 5280 c-29 -12 -54 -49 -54 -80 0 -31 58 -131 103 -178 104
-109 227 -113 227 -7 0 73 -107 222 -186 260 -36 17 -58 18 -90 5z"/>
<path d="M2990 5071 c-47 -25 -73 -55 -105 -120 -65 -130 -31 -261 67 -261 61
0 173 91 217 178 44 86 36 153 -25 201 -34 27 -105 27 -154 2z m100 -108 c0
-43 -92 -163 -126 -163 -17 0 -17 5 1 66 24 81 125 160 125 97z"/>
<path d="M4743 4734 l-26 -26 6 -231 c6 -234 15 -307 50 -374 21 -39 44 -53
89 -53 81 0 113 69 112 240 0 124 -32 280 -79 386 -38 85 -101 109 -152 58z"/>
<path d="M2643 4226 c-73 -33 -88 -127 -31 -191 96 -110 366 -158 469 -84 78
55 52 175 -43 199 -18 5 -84 25 -146 44 -136 43 -205 52 -249 32z"/>
<path d="M5269 3980 c-102 -18 -184 -75 -225 -156 -15 -31 -19 -60 -19 -139 0
-89 3 -107 28 -160 39 -83 70 -121 129 -154 91 -52 193 -49 313 8 121 57 187
154 193 282 5 90 -19 150 -83 215 -38 37 -54 48 -132 88 -36 18 -145 27 -204
16z m90 -281 c36 -13 38 -19 10 -45 -25 -23 -53 -9 -57 30 -4 29 1 31 47 15z"/>
<path d="M1387 3860 c-111 -19 -194 -88 -223 -186 -43 -147 50 -309 228 -397
79 -39 119 -80 163 -166 35 -69 95 -245 125 -364 33 -136 85 -489 95 -642 19
-325 93 -540 240 -703 85 -93 178 -148 319 -187 l58 -16 -81 -47 c-108 -63
-164 -112 -191 -167 -41 -84 -4 -154 93 -176 41 -9 94 -8 253 5 208 17 344 20
344 10 0 -4 -19 -23 -42 -44 -40 -35 -43 -41 -42 -86 1 -39 6 -52 28 -71 79
-67 189 10 227 160 24 96 -22 177 -111 196 -45 10 -335 -4 -522 -25 -37 -4
-58 -3 -58 3 0 18 132 80 235 111 266 80 243 78 618 72 l337 -5 18 -35 c11
-23 33 -43 62 -57 39 -20 60 -23 167 -23 112 0 123 -2 123 -18 0 -54 129 -97
218 -73 62 17 122 81 122 131 0 48 -21 74 -85 105 -44 21 -47 24 -22 25 46 0
210 39 314 74 405 137 542 236 662 479 80 161 105 253 105 382 0 113 -19 195
-82 348 -66 161 -137 245 -260 306 -155 78 -418 81 -585 7 -35 -15 -86 -53
-137 -100 -136 -127 -280 -184 -560 -221 -416 -56 -681 73 -1007 487 -34 42
-115 157 -182 256 -195 292 -284 389 -451 498 -117 76 -360 166 -440 163 -14
-1 -46 -5 -73 -9z m175 -266 c210 -82 292 -141 445 -319 76 -89 162 -204 243
-325 103 -155 223 -311 291 -378 166 -165 374 -284 604 -343 117 -30 341 -33
485 -6 320 59 511 140 640 271 61 63 125 93 219 102 64 7 158 -9 211 -36 76
-39 157 -158 206 -300 30 -88 25 -226 -10 -313 -39 -93 -92 -173 -162 -241
-46 -45 -86 -71 -179 -116 -199 -96 -343 -139 -525 -155 -36 -3 -157 -15 -270
-28 -172 -18 -259 -22 -540 -22 -216 1 -355 5 -390 12 -30 7 -100 17 -155 23
-493 53 -603 175 -659 725 -62 607 -76 693 -142 857 -93 234 -181 384 -259
444 -21 15 -74 46 -119 69 -87 43 -126 86 -96 105 27 17 69 11 162 -26z"/>
<path d="M2322 2438 c-21 -21 -14 -67 14 -93 33 -30 57 -32 84 -5 43 43 13
110 -49 110 -20 0 -42 -5 -49 -12z"/>
<path d="M2842 2034 c-27 -19 -30 -74 -4 -96 30 -26 50 -28 76 -7 33 26 37 92
7 109 -28 14 -53 13 -79 -6z"/>
<path d="M4185 3756 c-66 -21 -121 -53 -150 -88 -109 -129 -104 -317 11 -432
55 -55 114 -79 195 -79 201 0 352 204 309 420 -16 85 -27 105 -66 132 -81 56
-209 76 -299 47z m95 -279 c0 -28 -17 -47 -42 -47 -24 0 -23 19 4 47 27 29 38
29 38 0z"/>
<path d="M3448 3353 c-32 -35 -75 -113 -128 -231 -40 -89 -41 -94 -26 -118 22
-32 56 -31 88 4 57 61 159 235 174 295 16 68 -58 103 -108 50z"/>
<path d="M475 2010 c-14 -16 -16 -26 -9 -44 23 -59 247 -206 313 -206 36 0 61
28 61 68 0 39 -40 70 -192 150 -109 56 -145 63 -173 32z"/>
<path d="M5345 1094 c-29 -31 -55 -105 -55 -156 0 -89 65 -137 137 -101 46 22
70 62 84 137 12 65 -1 120 -31 136 -10 6 -39 10 -65 10 -37 0 -51 -5 -70 -26z"/>
</g>
</svg>
