<?xml version="1.0" standalone="no"?>
<!DOCTYPE svg PUBLIC "-//W3C//DTD SVG 20010904//EN"
 "http://www.w3.org/TR/2001/REC-SVG-20010904/DTD/svg10.dtd">
<svg version="1.0" xmlns="http://www.w3.org/2000/svg"
 width="600.000000pt" height="600.000000pt" viewBox="0 0 600.000000 600.000000"
 preserveAspectRatio="xMidYMid meet">
<metadata>
Created by potrace 1.15, written by Peter Selinger 2001-2017
</metadata>
<g transform="translate(0.000000,600.000000) scale(0.100000,-0.100000)"
fill="#16364b" stroke="none">
<path d="M2384 5419 c-44 -16 -47 -31 -41 -189 16 -392 -71 -599 -300 -714
-29 -14 -57 -35 -63 -47 -26 -48 19 -113 78 -112 41 0 149 70 223 144 51 50
78 88 113 160 60 123 84 222 96 397 13 185 5 309 -22 338 -22 25 -56 34 -84
23z"/>
<path d="M3533 5318 c-23 -11 -43 -55 -43 -96 0 -30 55 -133 111 -207 98 -130
229 -155 255 -49 14 54 -46 177 -133 274 -60 67 -141 100 -190 78z"/>
<path d="M3008 5127 c-69 -26 -138 -103 -166 -186 -31 -88 -5 -188 58 -225
126 -74 330 83 330 255 0 118 -112 196 -222 156z m52 -174 c-15 -50 -21 -62
-46 -78 -28 -18 -32 -7 -13 42 22 58 76 91 59 36z"/>
<path d="M4773 4750 c-12 -5 -29 -21 -39 -35 -15 -22 -16 -48 -12 -208 8 -261
44 -389 127 -444 44 -30 120 -31 165 -3 112 69 112 293 1 482 -42 72 -122 172
-154 194 -25 17 -64 23 -88 14z"/>
<path d="M2656 4223 c-134 -49 -157 -219 -40 -308 63 -48 129 -68 229 -68 70
0 103 5 148 22 118 46 186 124 172 198 -10 56 -39 76 -182 122 -160 51 -252
61 -327 34z"/>
<path d="M1151 4137 c-60 -30 -98 -177 -72 -274 36 -131 191 -170 301 -75 121
103 80 245 -94 332 -64 32 -97 37 -135 17z"/>
<path d="M5229 3937 c-199 -68 -280 -258 -189 -443 63 -128 181 -199 320 -192
134 6 243 78 299 197 22 47 26 70 26 146 0 75 -4 98 -23 135 -31 60 -75 104
-143 146 -53 32 -62 34 -140 34 -60 0 -103 -7 -150 -23z m156 -298 c14 -13
-29 -53 -49 -46 -20 8 -30 32 -22 53 5 12 13 14 34 9 15 -3 31 -11 37 -16z"/>
<path d="M4193 3751 c-82 -21 -168 -94 -205 -176 -34 -75 -33 -191 4 -265 32
-66 77 -113 132 -143 60 -32 173 -31 241 3 67 32 127 97 167 178 31 63 33 73
33 173 0 131 -10 148 -109 198 -58 30 -79 35 -149 37 -45 2 -96 -1 -114 -5z
m107 -282 c0 -23 -22 -49 -40 -49 -27 0 -25 25 2 44 26 19 38 20 38 5z"/>
<path d="M3483 3393 c-37 -7 -88 -76 -152 -203 -66 -132 -76 -183 -43 -213 43
-39 105 -9 180 86 64 81 113 174 119 229 4 37 1 49 -18 70 -26 28 -51 37 -86
31z"/>
<path d="M1195 3301 c-230 -23 -429 -140 -507 -299 -29 -58 -33 -76 -33 -147
0 -71 4 -88 34 -149 83 -169 260 -278 496 -306 139 -16 190 -34 247 -87 82
-78 131 -180 244 -508 123 -357 196 -473 362 -579 151 -96 263 -118 721 -141
229 -12 340 -13 491 -5 107 5 290 14 406 20 453 22 805 89 1015 195 282 141
430 320 503 612 70 273 -24 670 -198 843 -143 142 -365 230 -579 230 -238 0
-477 -87 -781 -283 -192 -124 -211 -131 -371 -132 -117 0 -137 3 -204 27 -144
54 -253 122 -421 263 -173 146 -267 204 -460 288 -151 65 -297 114 -414 138
-113 23 -408 34 -551 20z m592 -411 c41 -11 108 -35 147 -54 104 -51 309 -181
441 -282 291 -223 459 -313 679 -364 280 -65 479 -12 836 221 209 137 310 178
457 186 137 8 224 -21 335 -111 164 -134 186 -458 45 -669 -39 -59 -162 -154
-268 -207 -124 -63 -261 -90 -519 -105 -58 -3 -170 -12 -250 -20 -417 -41
-675 -44 -855 -11 -44 8 -140 17 -214 21 -73 3 -172 13 -218 21 -216 37 -264
96 -376 456 -103 328 -183 486 -316 619 -132 132 -219 167 -433 179 -117 6
-153 11 -180 27 -82 48 -32 76 170 98 264 28 392 27 519 -5z"/>
<path d="M445 2055 c-31 -30 -33 -75 -5 -100 11 -10 34 -42 51 -71 56 -99 175
-184 256 -184 38 0 79 26 93 60 37 88 -54 199 -235 286 -84 41 -127 43 -160 9z"/>
<path d="M5314 1140 c-12 -5 -30 -21 -41 -37 -78 -112 -42 -264 64 -267 76 -2
121 61 130 181 6 70 5 73 -25 102 -24 24 -39 31 -69 30 -21 0 -48 -4 -59 -9z"/>
</g>
</svg>
