<?xml version="1.0" standalone="no"?>
<!DOCTYPE svg PUBLIC "-//W3C//DTD SVG 20010904//EN"
 "http://www.w3.org/TR/2001/REC-SVG-20010904/DTD/svg10.dtd">
<svg version="1.0" xmlns="http://www.w3.org/2000/svg"
 width="600.000000pt" height="600.000000pt" viewBox="0 0 600.000000 600.000000"
 preserveAspectRatio="xMidYMid meet">
<metadata>
Created by potrace 1.15, written by Peter Selinger 2001-2017
</metadata>
<g transform="translate(0.000000,600.000000) scale(0.100000,-0.100000)"
fill="#16364b" stroke="none">
<path d="M1564 5763 c-40 -8 -66 -51 -116 -190 -127 -356 -133 -467 -28 -525
47 -26 146 -21 211 11 69 33 215 158 291 248 103 122 138 179 138 223 0 52
-36 103 -82 114 -58 15 -96 -2 -146 -64 -100 -124 -177 -211 -179 -203 -2 5
15 62 37 126 44 128 47 154 26 196 -25 48 -93 77 -152 64z"/>
<path d="M862 5539 c-155 -26 -280 -160 -318 -341 -29 -135 1 -242 91 -327 82
-78 150 -89 214 -35 63 52 53 136 -23 206 -47 44 -51 51 -50 92 2 79 78 166
147 166 15 0 45 -9 67 -20 51 -26 89 -25 131 3 84 57 78 158 -14 211 -77 44
-159 59 -245 45z"/>
<path d="M3423 5374 c-59 -46 -64 -131 -11 -183 25 -24 28 -32 19 -49 -17 -31
-13 -62 13 -117 31 -66 95 -128 169 -165 185 -93 336 29 253 205 -30 64 -106
165 -159 211 -64 55 -187 124 -222 124 -17 0 -44 -11 -62 -26z"/>
<path d="M2345 5306 c-65 -29 -70 -45 -67 -187 7 -317 -44 -433 -230 -524 -91
-44 -122 -78 -122 -129 0 -72 49 -120 124 -120 56 0 213 75 281 134 102 88
160 217 179 401 12 120 3 332 -15 369 -30 59 -93 83 -150 56z"/>
<path d="M2954 5141 c-142 -65 -218 -232 -164 -359 39 -90 111 -130 218 -119
67 7 175 57 198 92 26 40 32 215 10 282 -16 49 -50 90 -93 112 -33 17 -123 13
-169 -8z"/>
<path d="M4749 4787 c-18 -12 -44 -38 -57 -57 -23 -33 -24 -41 -19 -160 12
-296 138 -498 323 -517 47 -5 63 -2 119 26 151 74 207 250 130 407 -49 100
-189 230 -317 295 -72 36 -131 38 -179 6z m261 -433 c0 -8 -2 -14 -5 -14 -6 0
-35 56 -35 67 1 14 40 -39 40 -53z"/>
<path d="M2730 4196 c-171 -47 -265 -182 -218 -317 28 -83 111 -148 222 -176
57 -14 79 -14 139 -5 144 22 357 161 386 251 11 35 11 51 1 84 -19 64 -63 98
-167 130 -163 49 -270 59 -363 33z"/>
<path d="M1040 4078 c-91 -61 -93 -209 -3 -261 17 -10 62 -23 100 -28 37 -6
90 -17 116 -26 47 -15 48 -16 31 -35 -45 -48 -235 -149 -401 -212 -82 -31
-128 -75 -139 -132 -9 -51 11 -107 51 -143 30 -26 44 -31 85 -31 75 0 290 81
437 164 34 20 64 32 66 28 2 -4 7 -20 11 -36 17 -68 78 -115 153 -118 26 -1
48 -10 71 -29 190 -166 450 -75 429 150 -10 112 -88 213 -190 247 -49 16 -180
16 -233 -1 -20 -6 -20 -6 4 69 23 69 24 81 13 130 -28 125 -130 200 -348 257
-40 10 -106 21 -145 25 -66 5 -76 4 -108 -18z"/>
<path d="M4183 3755 c-114 -35 -201 -119 -233 -223 -24 -77 -25 -102 -4 -171
34 -117 148 -194 284 -193 204 1 342 139 372 375 9 68 8 83 -7 118 -10 22 -31
49 -46 59 -62 45 -272 65 -366 35z m92 -285 c-18 -20 -55 -28 -55 -11 0 12 21
28 45 33 28 6 31 1 10 -22z"/>
<path d="M5135 3517 c-198 -78 -328 -250 -310 -411 13 -117 74 -206 167 -246
43 -19 65 -22 128 -18 254 15 401 278 285 513 -13 28 -50 78 -82 113 -57 60
-60 62 -108 61 -28 0 -63 -6 -80 -12z"/>
<path d="M3433 3390 c-44 -18 -104 -95 -158 -202 -60 -120 -66 -155 -35 -206
31 -50 81 -67 150 -52 72 16 100 31 138 75 68 76 113 220 92 293 -12 44 -17
51 -54 80 -30 23 -91 29 -133 12z"/>
<path d="M2479 3250 c-70 -21 -154 -77 -220 -148 -68 -73 -92 -115 -177 -302
-40 -91 -79 -131 -208 -216 -121 -80 -259 -203 -331 -296 -134 -174 -213 -412
-213 -639 0 -227 65 -415 191 -553 70 -76 124 -117 236 -179 258 -142 477
-169 727 -90 154 48 306 144 422 265 110 114 212 291 260 452 84 280 107 713
50 938 -28 111 -58 179 -130 302 -29 50 -70 121 -90 158 -85 156 -203 271
-311 304 -51 15 -163 17 -206 4z m161 -468 c16 -25 30 -49 30 -54 0 -5 27 -49
60 -98 37 -55 69 -118 84 -164 91 -278 32 -806 -115 -1026 -22 -32 -66 -83
-99 -114 -230 -212 -528 -226 -737 -32 -32 30 -71 76 -85 103 -56 101 -56 253
-3 438 59 203 141 307 330 420 200 119 291 224 380 437 73 174 71 171 100 152
13 -9 38 -36 55 -62z"/>
<path d="M593 2460 c-51 -31 -69 -85 -50 -152 6 -24 4 -28 -12 -28 -29 0 -78
-46 -91 -85 -15 -47 6 -118 73 -249 162 -317 374 -453 560 -362 197 96 207
365 21 607 -70 91 -214 198 -355 264 -65 30 -103 31 -146 5z m150 -297 c135
-89 228 -209 229 -294 0 -22 -4 -45 -10 -51 -32 -32 -139 58 -210 178 -38 63
-92 185 -92 206 0 14 11 9 83 -39z"/>
<path d="M4233 2140 c-36 -16 -73 -57 -86 -94 -2 -5 -24 -1 -50 9 -58 22 -106
16 -154 -21 -78 -59 -89 -124 -53 -295 45 -216 71 -285 116 -316 14 -10 54
-46 87 -80 85 -84 165 -104 252 -64 115 53 137 133 150 541 6 201 6 206 -17
250 -42 82 -151 113 -245 70z"/>
</g>
</svg>
