<?xml version="1.0" standalone="no"?>
<!DOCTYPE svg PUBLIC "-//W3C//DTD SVG 20010904//EN"
 "http://www.w3.org/TR/2001/REC-SVG-20010904/DTD/svg10.dtd">
<svg version="1.0" xmlns="http://www.w3.org/2000/svg"
 width="600.000000pt" height="600.000000pt" viewBox="0 0 600.000000 600.000000"
 preserveAspectRatio="xMidYMid meet">
<metadata>
Created by potrace 1.15, written by Peter Selinger 2001-2017
</metadata>
<g transform="translate(0.000000,600.000000) scale(0.100000,-0.100000)"
fill="#16364b" stroke="none">
<path d="M2377 5382 c-14 -15 -17 -42 -17 -157 0 -393 -95 -620 -298 -716 -64
-30 -82 -47 -82 -79 0 -93 139 -49 281 90 128 125 187 279 209 548 18 218 12
300 -24 324 -20 13 -53 8 -69 -10z"/>
<path d="M3532 5303 c-7 -3 -22 -23 -33 -44 -17 -34 -18 -45 -8 -82 48 -178
226 -325 317 -261 29 20 29 80 1 137 -32 62 -113 178 -145 209 -43 40 -95 56
-132 41z"/>
<path d="M2995 5077 c-132 -75 -196 -333 -96 -387 93 -49 273 116 288 262 6
67 -7 102 -49 128 -43 26 -93 25 -143 -3z m61 -181 c-26 -44 -79 -96 -98 -96
-13 0 -1 55 22 100 19 37 55 74 80 82 26 8 23 -39 -4 -86z"/>
<path d="M4774 4746 c-28 -23 -28 -25 -37 -192 -15 -294 -2 -400 55 -461 44
-47 126 -36 164 22 71 108 -3 592 -97 640 -39 20 -53 19 -85 -9z"/>
<path d="M2675 4233 c-89 -25 -114 -137 -45 -208 88 -90 303 -140 438 -100 62
19 92 53 92 106 0 71 -40 95 -288 174 -76 25 -164 37 -197 28z"/>
<path d="M5226 3975 c-140 -39 -215 -156 -204 -316 13 -176 156 -319 318 -319
113 0 244 70 307 164 42 62 56 116 50 194 -9 116 -75 210 -186 267 -44 22 -63
25 -143 24 -51 0 -115 -7 -142 -14z m161 -278 c25 -14 20 -28 -15 -46 -20 -11
-26 -10 -38 6 -7 10 -14 26 -14 36 0 20 34 23 67 4z"/>
<path d="M1280 3781 c-152 -50 -239 -192 -209 -340 26 -131 129 -225 303 -278
61 -18 133 -89 174 -169 91 -180 169 -542 207 -960 22 -242 46 -333 123 -468
80 -143 198 -263 311 -317 l69 -33 -33 -38 c-64 -71 -66 -164 -5 -209 50 -37
109 -40 382 -17 304 26 311 25 302 -46 -6 -39 -3 -48 19 -70 50 -50 133 -24
157 48 24 74 -28 176 -115 224 -38 21 -162 20 -404 -2 -95 -10 -176 -15 -179
-12 -10 11 58 28 187 47 117 17 153 18 275 9 78 -5 251 -10 386 -10 188 0 256
-4 294 -15 58 -18 196 -20 315 -5 l84 11 29 -28 c24 -23 39 -28 96 -31 88 -4
143 22 190 92 32 48 38 52 145 91 135 50 316 133 412 188 85 50 246 208 294
289 109 186 140 452 76 643 -74 221 -250 413 -451 492 -59 23 -84 27 -174 27
-174 1 -303 -50 -475 -189 -191 -155 -353 -234 -569 -281 -243 -52 -566 68
-815 302 -45 43 -132 144 -198 232 -322 430 -460 570 -663 672 -35 18 -127 59
-205 92 -128 55 -147 61 -225 64 -47 2 -96 0 -110 -5z m235 -306 c137 -54 234
-103 301 -151 85 -60 210 -196 366 -397 260 -336 371 -450 553 -569 282 -186
575 -247 840 -178 263 70 538 209 685 346 154 144 383 134 520 -22 156 -179
196 -390 109 -583 -67 -148 -145 -215 -390 -336 -253 -125 -359 -153 -660
-176 -183 -14 -950 -7 -1024 9 -27 6 -106 16 -175 22 -323 28 -453 92 -534
264 -40 83 -60 177 -81 371 -25 243 -84 597 -122 735 -21 80 -61 185 -99 262
-90 184 -188 278 -354 339 -74 27 -126 69 -117 94 10 25 67 16 182 -30z"/>
<path d="M2310 2411 c-26 -50 9 -111 63 -111 50 0 77 79 39 113 -26 24 -88 22
-102 -2z"/>
<path d="M2830 2040 c-27 -27 -25 -56 6 -85 50 -47 104 -19 104 52 0 52 -70
73 -110 33z"/>
<path d="M4199 3754 c-228 -70 -304 -368 -136 -532 55 -54 105 -74 185 -73
120 1 226 72 284 189 31 62 33 73 33 172 0 123 -16 172 -69 207 -80 52 -201
67 -297 37z m111 -277 c0 -20 -30 -57 -46 -57 -19 0 -18 29 3 52 19 21 43 24
43 5z"/>
<path d="M3436 3348 c-58 -58 -166 -265 -166 -316 0 -30 34 -54 71 -50 27 2
43 14 80 62 61 75 139 227 139 270 0 69 -70 88 -124 34z"/>
<path d="M480 2020 c-32 -32 -24 -57 35 -112 75 -69 111 -96 170 -124 62 -29
108 -31 135 -4 32 32 26 72 -18 112 -43 39 -250 148 -281 148 -12 0 -30 -9
-41 -20z"/>
<path d="M5365 1121 c-70 -29 -120 -203 -80 -280 17 -34 64 -55 103 -46 62 13
101 87 109 206 5 73 4 79 -20 103 -27 27 -71 33 -112 17z"/>
</g>
</svg>
