<?xml version="1.0" standalone="no"?>
<!DOCTYPE svg PUBLIC "-//W3C//DTD SVG 20010904//EN"
 "http://www.w3.org/TR/2001/REC-SVG-20010904/DTD/svg10.dtd">
<svg version="1.0" xmlns="http://www.w3.org/2000/svg"
 width="600.000000pt" height="600.000000pt" viewBox="0 0 600.000000 600.000000"
 preserveAspectRatio="xMidYMid meet">
<metadata>
Created by potrace 1.15, written by Peter Selinger 2001-2017
</metadata>
<g transform="translate(0.000000,600.000000) scale(0.100000,-0.100000)"
fill="#16364b" stroke="none">
<path d="M3529 5249 c-16 -17 -29 -39 -29 -49 0 -9 16 -48 34 -86 79 -157 217
-242 275 -168 28 35 26 58 -8 129 -40 86 -105 163 -154 186 -59 26 -84 24
-118 -12z m153 -157 c16 -24 28 -46 25 -48 -6 -7 -54 51 -74 90 -15 29 -15 30
1 17 10 -8 31 -35 48 -59z"/>
<path d="M3015 5081 c-82 -37 -143 -129 -152 -230 -12 -127 72 -180 178 -113
145 92 196 291 89 347 -38 20 -66 19 -115 -4z m82 -86 c15 -42 -90 -195 -134
-195 -21 0 -12 64 17 124 30 64 102 107 117 71z"/>
<path d="M4789 4745 c-15 -8 -30 -22 -34 -32 -10 -25 -19 -510 -10 -568 9 -63
41 -95 93 -95 93 0 128 81 119 275 -6 124 -37 309 -63 376 -11 26 -25 41 -46
48 -17 6 -31 11 -32 11 -1 -1 -13 -7 -27 -15z"/>
<path d="M2647 4210 c-60 -47 -52 -125 18 -169 97 -62 322 -116 399 -97 42 10
66 44 66 92 0 61 -27 85 -145 127 -208 74 -289 85 -338 47z"/>
<path d="M1455 4036 c-134 -63 -181 -200 -115 -333 29 -58 63 -95 173 -185 55
-46 125 -176 162 -303 15 -53 34 -162 46 -269 11 -100 26 -219 34 -266 26
-160 45 -335 55 -520 17 -300 51 -467 126 -610 104 -200 300 -331 546 -365
l47 -7 -50 -74 c-91 -133 -110 -229 -63 -322 28 -57 61 -84 179 -147 108 -57
109 -60 18 -76 -80 -14 -119 -39 -132 -83 -17 -65 13 -118 79 -136 72 -19 207
39 260 112 25 34 30 51 30 95 0 105 -37 148 -196 231 -101 53 -109 59 -112 89
-5 46 25 104 103 208 l68 90 331 -1 c560 -1 569 -1 561 -21 -38 -90 -26 -185
31 -252 22 -26 61 -53 106 -74 l71 -34 -31 -11 c-63 -22 -77 -105 -26 -153 39
-37 138 -39 207 -6 129 64 143 211 25 273 -15 8 -70 29 -123 48 -114 41 -135
57 -135 102 0 27 10 40 61 85 60 51 62 53 157 66 201 27 517 119 687 198 168
78 287 194 361 350 57 123 77 208 77 330 0 81 -5 114 -27 178 -84 248 -222
407 -413 477 -55 20 -76 22 -175 18 -126 -6 -175 -20 -286 -86 -127 -75 -313
-122 -481 -122 -222 0 -380 37 -576 135 -283 141 -449 309 -701 706 -62 98
-133 205 -157 236 -66 86 -202 212 -289 268 -267 173 -294 185 -396 185 -50 0
-80 -6 -117 -24z m156 -187 c19 -7 57 -29 84 -49 28 -20 71 -47 96 -60 141
-68 288 -218 425 -432 208 -326 405 -562 580 -693 183 -138 521 -258 798 -283
231 -21 503 37 678 144 79 48 130 64 207 64 103 0 155 -22 231 -99 119 -121
182 -293 161 -441 -16 -111 -75 -225 -161 -311 -83 -82 -180 -132 -415 -212
-323 -110 -415 -120 -970 -112 -220 4 -501 8 -625 9 -215 2 -228 3 -304 29
-90 32 -144 66 -203 130 -108 118 -158 295 -183 656 -5 84 -25 269 -44 410
-19 141 -42 317 -51 391 -44 367 -139 584 -313 712 -51 38 -92 89 -92 115 0
17 29 43 49 43 10 0 33 -5 52 -11z"/>
<path d="M2370 2505 c-22 -27 -15 -67 19 -97 38 -34 45 -35 76 -3 48 47 22
115 -44 115 -22 0 -44 -6 -51 -15z"/>
<path d="M2847 2122 c-25 -28 -21 -67 9 -91 36 -28 58 -26 83 5 40 51 18 104
-43 104 -19 0 -40 -8 -49 -18z"/>
<path d="M5275 3986 c-78 -19 -126 -46 -181 -101 -67 -66 -88 -128 -82 -234 6
-92 35 -157 103 -224 63 -61 124 -90 207 -95 178 -11 325 112 358 300 26 150
-33 266 -174 338 -67 34 -139 39 -231 16z m105 -306 c12 -7 11 -12 -5 -30 -26
-29 -59 -23 -63 13 -3 24 0 27 25 27 15 0 35 -4 43 -10z"/>
<path d="M4184 3759 c-85 -24 -180 -121 -204 -207 -37 -133 25 -283 142 -347
133 -74 326 -10 398 131 47 92 26 285 -38 350 -47 47 -139 84 -207 83 -33 0
-74 -5 -91 -10z m96 -278 c0 -22 -19 -41 -42 -41 -24 0 -23 25 2 50 23 23 40
19 40 -9z"/>
<path d="M457 2003 c-4 -3 -7 -19 -7 -34 0 -24 10 -35 58 -65 89 -58 232 -124
267 -124 36 0 55 15 55 45 0 28 -20 45 -100 85 -162 81 -254 113 -273 93z"/>
<path d="M5342 1110 c-32 -14 -72 -103 -72 -163 0 -43 5 -54 35 -84 32 -32 39
-35 78 -30 31 4 49 14 69 37 47 57 64 178 30 220 -21 26 -100 37 -140 20z"/>
</g>
</svg>
