<?xml version="1.0" standalone="no"?>
<!DOCTYPE svg PUBLIC "-//W3C//DTD SVG 20010904//EN"
 "http://www.w3.org/TR/2001/REC-SVG-20010904/DTD/svg10.dtd">
<svg version="1.0" xmlns="http://www.w3.org/2000/svg"
 width="600.000000pt" height="600.000000pt" viewBox="0 0 600.000000 600.000000"
 preserveAspectRatio="xMidYMid meet">
<metadata>
Created by potrace 1.15, written by Peter Selinger 2001-2017
</metadata>
<g transform="translate(0.000000,600.000000) scale(0.100000,-0.100000)"
fill="#16364b" stroke="none">
<path d="M3112 5660 c-73 -45 -90 -130 -51 -251 52 -160 153 -272 348 -388
l125 -74 -42 -36 c-23 -20 -143 -101 -268 -181 -242 -155 -289 -190 -299 -221
-4 -11 -30 -31 -58 -45 -149 -75 -206 -183 -144 -275 58 -87 206 -93 267 -11
25 33 56 45 190 67 152 26 195 63 195 167 l-1 61 86 55 c183 118 226 149 285
207 80 79 100 121 100 210 -1 53 -6 81 -24 115 -35 66 -121 143 -245 217 -61
37 -134 90 -162 118 -43 43 -53 61 -69 120 -23 87 -38 115 -79 143 -41 28
-109 29 -154 2z"/>
<path d="M1260 5375 c-93 -42 -239 -180 -329 -310 -98 -142 -126 -233 -126
-415 0 -207 46 -313 148 -338 83 -21 163 25 189 109 9 33 9 52 -2 97 -8 32
-15 102 -15 157 0 94 2 104 36 175 43 91 129 187 205 230 75 43 99 80 99 152
0 60 -17 94 -66 130 -35 25 -97 31 -139 13z"/>
<path d="M1587 5156 c-69 -25 -107 -76 -107 -141 0 -66 21 -99 98 -150 1 -2
-13 -38 -32 -82 -90 -203 -58 -344 94 -421 115 -57 324 -69 391 -22 82 59 75
187 -14 251 -36 26 -48 29 -119 29 -48 0 -78 4 -78 11 0 5 16 49 35 96 70 168
80 246 41 330 -37 78 -85 106 -189 110 -54 2 -95 -2 -120 -11z"/>
<path d="M4483 4610 c-46 -28 -67 -65 -67 -119 0 -92 50 -139 163 -153 42 -5
92 -12 111 -15 l35 -5 -26 -13 c-14 -8 -61 -28 -105 -45 -91 -36 -130 -69
-144 -120 -21 -76 39 -171 116 -186 81 -15 350 104 467 206 170 150 104 343
-143 414 -56 16 -305 56 -350 56 -14 0 -39 -9 -57 -20z"/>
<path d="M1850 4246 c-117 -26 -243 -81 -354 -155 -80 -53 -106 -89 -106 -147
0 -104 84 -194 180 -194 41 0 55 6 116 53 97 73 206 124 296 138 99 16 125 26
155 66 57 75 30 184 -57 230 -49 26 -136 30 -230 9z"/>
<path d="M3968 3730 c-58 -17 -97 -51 -124 -107 -26 -53 -27 -59 -17 -119 20
-114 145 -261 259 -304 69 -25 172 -28 226 -6 81 34 158 135 158 207 0 42 -27
96 -62 122 -20 15 -28 29 -28 51 0 38 -30 89 -65 112 -63 41 -270 67 -347 44z"/>
<path d="M2564 3700 c-91 -25 -228 -75 -274 -101 -50 -28 -70 -66 -70 -129 0
-49 3 -56 45 -97 44 -44 45 -45 102 -40 34 2 96 19 148 39 50 20 111 39 138
43 l47 7 0 -31 c0 -79 -111 -300 -289 -577 -108 -166 -121 -192 -121 -231 0
-60 20 -104 66 -141 35 -29 37 -32 21 -50 -91 -100 -39 -277 93 -312 51 -14
72 -8 220 64 131 64 265 115 275 104 7 -7 -65 -186 -136 -336 -63 -134 -71
-169 -54 -234 38 -148 228 -187 330 -67 73 86 214 449 251 645 26 140 1 238
-77 309 -71 64 -119 80 -239 80 -116 -1 -210 -21 -339 -74 -41 -17 -77 -31
-82 -31 -8 0 18 46 213 377 155 265 196 378 184 517 -10 125 -88 234 -193 270
-62 21 -171 19 -259 -4z"/>
<path d="M1150 3550 c-76 -13 -155 -48 -249 -111 -107 -71 -145 -114 -162
-181 -16 -69 1 -127 52 -172 60 -54 128 -68 199 -40 23 9 43 14 45 12 5 -5
-53 -211 -129 -461 -71 -229 -112 -460 -96 -532 19 -84 95 -140 207 -151 81
-9 100 3 219 133 54 59 101 110 104 113 33 30 220 258 315 383 77 102 122 154
129 147 18 -18 -27 -337 -98 -702 -48 -243 -62 -373 -48 -444 21 -102 76 -150
164 -142 61 6 96 31 126 89 19 35 22 54 18 94 -8 70 6 155 68 414 73 302 87
396 88 560 0 217 -17 450 -36 496 -32 76 -87 115 -158 114 -120 -2 -207 -81
-487 -442 -46 -59 -86 -105 -89 -103 -2 3 7 35 21 73 108 287 150 444 151 558
0 79 -3 96 -26 141 -35 67 -107 130 -171 149 -54 16 -86 17 -157 5z"/>
<path d="M3603 3261 c-94 -32 -149 -87 -203 -202 -37 -81 -55 -162 -46 -211
13 -73 84 -128 163 -128 39 0 99 30 120 60 9 13 31 18 92 22 109 6 183 43 225
111 124 202 -108 432 -351 348z"/>
<path d="M4653 3139 c-17 -11 -42 -40 -54 -65 -28 -60 -22 -112 21 -166 18
-22 56 -80 86 -130 l53 -91 -24 -29 c-61 -73 -34 -192 54 -238 46 -23 68 -25
122 -8 126 37 181 181 129 334 -45 130 -192 374 -241 399 -40 21 -108 19 -146
-6z"/>
<path d="M4510 2301 c-80 -25 -149 -92 -170 -167 -8 -26 -11 -73 -8 -115 l5
-71 -26 7 c-108 29 -269 55 -336 55 -136 0 -246 -41 -317 -118 -86 -94 -103
-184 -94 -497 7 -253 17 -302 71 -358 119 -122 343 -84 401 69 14 37 16 65 10
181 -4 76 -9 162 -13 192 l-6 54 39 -7 c22 -4 84 -18 139 -32 93 -23 107 -24
201 -15 135 14 200 39 273 106 107 100 158 247 148 430 -7 127 -21 167 -75
221 -61 62 -163 89 -242 65z"/>
<path d="M2164 1841 c-47 -21 -78 -57 -95 -108 -16 -49 -6 -368 15 -488 38
-211 113 -391 198 -476 107 -107 296 -209 387 -209 98 0 178 70 196 173 5 24
12 36 19 34 7 -3 60 -37 119 -75 141 -93 198 -115 314 -120 106 -5 167 11 248
63 63 41 100 80 119 127 40 94 1 182 -96 223 -59 24 -118 19 -183 -15 l-58
-30 -42 24 c-23 14 -62 42 -86 62 -24 20 -61 47 -81 60 -20 13 -65 50 -100 82
-99 92 -264 210 -304 218 -90 17 -181 -21 -230 -96 -15 -22 -28 -39 -30 -38
-7 8 -23 179 -29 308 -7 167 -22 211 -83 253 -74 51 -129 59 -198 28z"/>
</g>
</svg>
