<?xml version="1.0" standalone="no"?>
<!DOCTYPE svg PUBLIC "-//W3C//DTD SVG 20010904//EN"
 "http://www.w3.org/TR/2001/REC-SVG-20010904/DTD/svg10.dtd">
<svg version="1.0" xmlns="http://www.w3.org/2000/svg"
 width="600.000000pt" height="600.000000pt" viewBox="0 0 600.000000 600.000000"
 preserveAspectRatio="xMidYMid meet">
<metadata>
Created by potrace 1.15, written by Peter Selinger 2001-2017
</metadata>
<g transform="translate(0.000000,600.000000) scale(0.100000,-0.100000)"
fill="#16364b" stroke="none">
<path d="M3226 5470 c-63 -20 -104 -89 -91 -153 12 -51 42 -85 104 -117 42
-21 63 -38 75 -63 25 -53 21 -148 -10 -232 -53 -144 -38 -217 53 -257 85 -37
165 -4 208 88 91 192 85 398 -14 551 -80 123 -235 211 -325 183z"/>
<path d="M2051 5439 c-48 -29 -68 -57 -82 -113 -26 -107 12 -218 94 -274 49
-34 86 -47 181 -63 l69 -12 -9 -166 c-16 -290 -11 -323 51 -381 23 -21 36 -25
90 -25 54 0 67 4 90 25 41 38 55 73 55 138 0 33 7 128 16 213 17 172 13 230
-21 305 -47 106 -140 172 -275 196 l-60 10 0 40 c0 104 -108 162 -199 107z"/>
<path d="M1555 4785 c-106 -20 -197 -45 -223 -61 -63 -41 -83 -150 -39 -215
12 -19 40 -43 61 -53 36 -17 45 -18 95 -7 217 48 372 51 485 12 71 -25 107
-26 152 -5 70 34 93 119 53 201 -27 56 -79 87 -204 118 -111 29 -259 32 -380
10z"/>
<path d="M4278 4561 c-70 -62 -71 -173 -1 -238 19 -18 39 -33 45 -33 24 0 125
-72 147 -105 33 -48 51 -133 51 -238 0 -102 15 -145 64 -180 42 -30 123 -31
162 -1 62 46 69 64 72 204 6 221 -39 343 -169 464 -94 87 -206 149 -279 154
-52 4 -60 2 -92 -27z"/>
<path d="M3188 4472 c-21 -9 -102 -74 -180 -143 -176 -155 -252 -213 -374
-285 -107 -63 -129 -92 -121 -159 2 -24 13 -54 23 -69 25 -33 91 -66 135 -66
47 0 156 65 327 195 246 187 368 292 383 327 32 77 -1 165 -75 199 -51 23 -71
23 -118 1z"/>
<path d="M1580 4387 c-88 -59 -97 -181 -18 -254 34 -32 95 -43 445 -83 268
-31 324 -26 371 35 84 107 -14 245 -175 245 -23 0 -148 18 -278 40 -275 47
-300 48 -345 17z"/>
<path d="M3740 3876 c-25 -6 -117 -51 -205 -98 -88 -47 -198 -104 -245 -126
-287 -134 -315 -152 -339 -215 -18 -48 -13 -111 12 -148 55 -81 107 -77 326
25 151 70 207 101 396 222 60 38 75 44 106 39 51 -9 112 12 149 50 79 81 30
222 -87 254 -46 13 -56 13 -113 -3z"/>
<path d="M2210 3809 c-164 -41 -299 -59 -447 -59 -167 0 -204 -12 -242 -80
-27 -48 -27 -85 2 -140 17 -35 34 -51 72 -70 47 -24 58 -25 215 -24 182 1 283
15 466 65 138 38 170 56 196 115 33 75 3 155 -71 194 -48 24 -92 24 -191 -1z"/>
<path d="M5028 3560 c-125 -38 -201 -159 -177 -283 16 -83 13 -196 -6 -247
-18 -45 -87 -152 -213 -330 -179 -251 -262 -428 -247 -526 20 -135 97 -206
222 -206 51 0 76 6 129 32 79 38 85 47 208 280 51 96 127 229 168 295 135 214
188 340 208 488 16 115 -5 318 -40 387 -47 92 -156 139 -252 110z"/>
<path d="M1963 3150 c-60 -36 -86 -106 -63 -174 25 -76 104 -110 336 -146 132
-20 139 -22 171 -55 78 -80 209 -60 254 39 34 76 18 138 -55 211 -66 66 -129
88 -324 110 -79 9 -155 20 -169 26 -41 16 -115 11 -150 -11z"/>
<path d="M4344 3114 c-21 -14 -57 -43 -79 -64 -89 -85 -301 -201 -460 -254
-90 -29 -238 -61 -332 -71 -137 -15 -206 -118 -151 -225 34 -67 74 -86 174
-83 225 7 443 80 731 244 219 125 345 232 359 303 24 133 -127 227 -242 150z"/>
<path d="M1358 2960 c-47 -25 -96 -86 -104 -129 -4 -19 1 -86 10 -150 9 -64
23 -199 31 -301 18 -223 26 -275 60 -388 55 -181 164 -356 242 -388 48 -20
127 -18 173 6 60 31 93 81 98 151 4 55 2 64 -36 126 -86 142 -113 238 -142
497 -22 196 -47 390 -56 446 -10 55 -43 106 -84 129 -49 28 -140 28 -192 1z"/>
<path d="M2075 2369 c-77 -27 -111 -52 -135 -99 -24 -47 -26 -129 -5 -170 38
-74 100 -92 216 -60 102 27 133 22 183 -30 98 -104 268 -38 268 105 0 81 -61
159 -174 220 -107 58 -244 71 -353 34z"/>
<path d="M3985 2084 c-38 -8 -178 -30 -310 -49 -132 -19 -287 -46 -345 -59
-58 -14 -177 -41 -265 -61 -237 -54 -236 -53 -281 -99 -75 -74 -79 -166 -11
-243 41 -47 99 -73 164 -73 66 0 239 30 428 74 83 19 204 44 270 55 294 49
515 81 552 81 105 0 190 142 153 255 -16 47 -66 104 -107 121 -41 18 -157 16
-248 -2z"/>
<path d="M2184 1711 c-110 -28 -149 -122 -103 -248 60 -161 213 -312 405 -400
116 -53 228 3 241 119 8 70 -23 121 -95 157 -120 61 -205 139 -248 231 -14 30
-31 65 -37 78 -22 47 -102 78 -163 63z"/>
<path d="M4805 1703 c-54 -11 -99 -41 -168 -117 -112 -123 -204 -166 -547
-255 -311 -81 -569 -173 -627 -225 -66 -57 -88 -140 -58 -213 20 -48 41 -71
87 -94 56 -28 117 -24 211 15 135 55 248 91 522 165 301 81 347 96 447 146 91
46 160 99 238 181 80 87 94 115 95 195 0 56 -4 73 -30 114 -41 66 -107 100
-170 88z"/>
<path d="M2035 1003 c-98 -51 -140 -154 -101 -247 33 -80 310 -248 532 -322
154 -52 292 -69 427 -55 231 25 418 114 458 218 15 41 10 114 -12 160 -25 51
-59 78 -120 93 -39 10 -53 9 -105 -10 -189 -68 -266 -81 -388 -68 -128 13
-246 62 -411 169 -49 32 -103 62 -118 68 -41 16 -127 13 -162 -6z"/>
</g>
</svg>
