<?xml version="1.0" standalone="no"?>
<!DOCTYPE svg PUBLIC "-//W3C//DTD SVG 20010904//EN"
 "http://www.w3.org/TR/2001/REC-SVG-20010904/DTD/svg10.dtd">
<svg version="1.0" xmlns="http://www.w3.org/2000/svg"
 width="600.000000pt" height="600.000000pt" viewBox="0 0 600.000000 600.000000"
 preserveAspectRatio="xMidYMid meet">
<metadata>
Created by potrace 1.15, written by Peter Selinger 2001-2017
</metadata>
<g transform="translate(0.000000,600.000000) scale(0.100000,-0.100000)"
fill="#16364b" stroke="none">
<path d="M2163 5837 c-12 -7 -144 -133 -295 -282 -294 -290 -358 -369 -379
-465 -13 -59 -2 -114 32 -162 26 -36 96 -68 150 -68 94 0 316 76 566 193 76
36 172 79 213 97 90 37 107 52 122 101 9 32 8 46 -6 83 -21 55 -83 113 -130
121 -43 9 -75 -2 -237 -76 -71 -33 -131 -59 -136 -59 -4 0 61 69 144 153 160
161 174 184 159 258 -18 89 -129 147 -203 106z"/>
<path d="M3051 5662 c-89 -45 -113 -167 -48 -236 27 -28 46 -37 127 -55 193
-44 346 -146 383 -255 20 -58 22 -162 5 -218 -13 -46 -73 -117 -124 -149 -20
-12 -67 -34 -105 -49 -86 -33 -114 -57 -130 -109 -25 -84 46 -181 133 -181 44
0 159 40 243 84 87 45 197 157 236 239 46 99 59 160 59 277 0 181 -47 296
-170 421 -106 107 -243 179 -439 229 -97 25 -126 25 -170 2z"/>
<path d="M938 5337 c-143 -60 -244 -173 -291 -322 -30 -96 -29 -263 1 -347 40
-109 124 -203 229 -254 83 -41 162 -24 215 47 50 66 25 154 -64 224 -65 51
-88 82 -103 141 -25 97 13 168 115 215 105 50 114 56 134 89 55 92 -17 211
-135 225 -33 4 -59 -1 -101 -18z"/>
<path d="M2740 4969 c-262 -51 -385 -387 -216 -594 74 -90 194 -143 341 -152
83 -5 93 -3 124 18 91 63 93 195 5 250 -19 11 -64 25 -101 30 -91 13 -127 35
-131 80 -4 51 27 86 82 94 90 14 143 73 133 148 -7 53 -33 87 -87 115 -46 23
-76 25 -150 11z"/>
<path d="M4780 4929 c-41 -16 -100 -81 -110 -120 -13 -47 2 -193 29 -277 43
-138 144 -266 249 -313 65 -29 166 -28 227 1 115 56 175 196 141 331 -38 147
-157 261 -372 354 -81 36 -120 41 -164 24z"/>
<path d="M1908 4530 c-85 -15 -181 -68 -269 -150 -55 -50 -75 -140 -44 -199
20 -40 70 -79 110 -87 54 -10 94 5 151 57 74 67 110 68 170 5 68 -71 151 -75
217 -11 78 76 71 167 -21 266 -88 95 -201 138 -314 119z"/>
<path d="M2767 3900 c-16 -5 -43 -20 -61 -34 -93 -71 -86 -222 13 -266 l33
-15 -5 -60 c-10 -108 -70 -264 -167 -435 -51 -90 -33 -171 51 -228 29 -20 44
-23 96 -20 82 5 104 26 181 177 111 214 171 440 159 595 -16 207 -147 332
-300 286z"/>
<path d="M1165 3795 c-159 -40 -275 -87 -312 -127 -125 -134 -7 -333 187 -315
33 3 58 2 56 -1 -2 -4 -64 -108 -138 -232 -167 -278 -209 -361 -259 -512 -52
-153 -54 -218 -13 -285 50 -80 153 -115 237 -79 18 7 64 40 103 72 39 32 116
95 170 139 55 44 173 152 264 241 154 150 228 219 274 254 18 14 19 13 12 -35
-19 -124 -146 -565 -221 -767 -25 -66 -70 -169 -99 -228 -66 -130 -73 -162
-51 -218 30 -74 96 -112 170 -98 67 13 80 35 241 409 107 249 188 502 259 807
24 100 25 276 2 350 -40 133 -155 198 -276 155 -57 -20 -171 -102 -314 -225
-65 -56 -120 -100 -122 -98 -2 2 29 54 70 116 134 206 175 302 175 409 0 105
-62 208 -154 255 -53 28 -177 33 -261 13z"/>
<path d="M4254 3780 c-222 -24 -337 -128 -338 -305 -1 -137 72 -258 189 -315
72 -36 199 -36 269 0 113 57 200 164 273 335 48 114 51 141 22 202 -27 56 -57
71 -171 83 -103 11 -140 11 -244 0z m36 -325 c-23 -24 -60 -34 -60 -16 0 17
33 35 74 40 5 0 -1 -10 -14 -24z"/>
<path d="M3497 3396 c-118 -43 -185 -140 -223 -326 -19 -94 -13 -137 23 -180
37 -45 74 -60 143 -60 199 0 350 99 381 250 41 197 -146 379 -324 316z"/>
<path d="M4895 2836 c-41 -18 -157 -143 -215 -232 -51 -79 -85 -167 -96 -249
-21 -170 123 -278 287 -216 156 60 273 232 286 422 8 114 1 139 -65 208 -76
80 -127 98 -197 67z"/>
<path d="M4155 2456 c-84 -38 -135 -115 -135 -200 0 -24 9 -88 20 -141 11 -54
18 -100 15 -103 -3 -3 -37 9 -76 26 -147 65 -258 65 -356 -1 -108 -72 -157
-189 -156 -367 1 -249 67 -503 154 -589 71 -70 185 -100 273 -71 37 12 101 76
116 116 17 43 11 132 -14 222 -49 174 -45 191 26 132 49 -40 115 -70 158 -70
43 0 148 30 213 60 70 33 142 102 174 168 39 80 39 204 -1 347 -16 55 -43 160
-62 233 -34 138 -56 181 -111 220 -69 48 -160 55 -238 18z"/>
<path d="M2952 2289 c-65 -11 -183 -59 -343 -139 -66 -33 -163 -80 -217 -104
l-97 -43 -40 18 c-55 24 -167 24 -220 0 -56 -25 -159 -123 -184 -175 -66 -136
33 -286 189 -286 l37 0 17 -86 c10 -47 16 -87 14 -87 -140 -68 -227 -146 -277
-249 -32 -64 -33 -69 -29 -175 3 -94 7 -117 33 -173 58 -129 147 -261 235
-350 100 -100 167 -142 298 -186 235 -78 399 -69 591 32 187 99 251 166 251
262 0 121 -113 206 -241 182 -25 -5 -81 -30 -125 -56 -147 -87 -206 -98 -329
-57 -148 48 -308 219 -309 332 -1 43 1 46 27 49 16 2 39 -5 56 -17 16 -12 32
-21 37 -21 4 0 38 -21 75 -46 60 -41 74 -47 121 -47 183 0 260 201 129 332
-59 59 -90 104 -117 172 -29 70 -78 285 -69 300 4 5 15 9 26 9 24 0 92 28 317
132 96 44 176 77 180 74 13 -14 -60 -196 -150 -374 -54 -107 -100 -208 -104
-226 -7 -41 8 -98 38 -142 76 -111 257 -102 330 16 41 67 162 362 225 550 69
203 78 289 42 385 -55 148 -228 228 -417 194z"/>
</g>
</svg>
