<?xml version="1.0" standalone="no"?>
<!DOCTYPE svg PUBLIC "-//W3C//DTD SVG 20010904//EN"
 "http://www.w3.org/TR/2001/REC-SVG-20010904/DTD/svg10.dtd">
<svg version="1.0" xmlns="http://www.w3.org/2000/svg"
 width="600.000000pt" height="600.000000pt" viewBox="0 0 600.000000 600.000000"
 preserveAspectRatio="xMidYMid meet">
<metadata>
Created by potrace 1.15, written by Peter Selinger 2001-2017
</metadata>
<g transform="translate(0.000000,600.000000) scale(0.100000,-0.100000)"
fill="#16364b" stroke="none">
<path d="M3147 5635 c-81 -28 -107 -82 -107 -217 1 -142 73 -278 188 -355 33
-22 108 -57 166 -78 58 -21 106 -40 106 -44 0 -6 -112 -79 -399 -261 -180
-113 -217 -146 -227 -196 -4 -23 -14 -38 -28 -44 -24 -9 -58 -44 -75 -77 -18
-36 -13 -102 11 -145 40 -71 113 -94 248 -78 47 6 161 10 254 10 l169 0 37 38
c49 48 59 95 35 158 -23 61 -71 96 -141 102 -30 2 -57 8 -59 12 -3 5 23 25 57
46 110 66 231 146 304 201 142 106 192 206 159 318 -27 94 -125 166 -317 234
-112 39 -141 54 -168 88 -20 25 -22 37 -17 103 3 53 0 86 -10 112 -26 65 -113
100 -186 73z"/>
<path d="M1275 5367 c-85 -46 -221 -183 -278 -281 -93 -160 -139 -332 -140
-522 0 -104 2 -126 21 -165 27 -55 71 -83 132 -83 56 0 104 27 132 73 18 29
22 52 24 150 1 94 6 131 28 196 49 152 149 296 240 350 110 64 141 161 81 252
-47 70 -142 83 -240 30z"/>
<path d="M1475 4986 c-49 -12 -103 -30 -118 -41 -59 -38 -86 -149 -52 -215 36
-70 101 -91 200 -65 36 10 67 16 70 14 2 -3 -14 -52 -37 -110 -36 -91 -42
-114 -42 -184 -1 -98 19 -142 94 -207 l51 -45 -43 -19 c-72 -32 -212 -130
-230 -162 -37 -63 -11 -167 53 -213 18 -13 52 -24 80 -27 46 -4 54 -1 124 46
95 64 178 103 291 137 155 45 192 74 201 157 11 93 -54 168 -153 176 -53 4
-54 5 -54 36 -1 47 -35 114 -70 134 -16 9 -30 21 -30 27 0 5 20 59 45 120 55
136 65 209 40 289 -21 67 -75 132 -129 157 -57 26 -176 24 -291 -5z"/>
<path d="M4430 4512 c-101 -50 -109 -206 -14 -268 22 -15 46 -17 145 -15 65 1
119 0 119 -2 0 -2 -61 -57 -135 -122 -74 -65 -141 -133 -150 -151 -45 -96 28
-224 129 -224 20 0 47 5 59 11 20 10 157 140 368 349 108 107 141 179 119 260
-15 54 -69 113 -128 138 -97 42 -444 58 -512 24z"/>
<path d="M2460 3687 c-146 -44 -249 -109 -276 -174 -31 -73 -7 -159 55 -200
50 -33 111 -31 185 8 79 42 161 69 208 69 37 0 38 -1 38 -37 0 -63 -30 -164
-79 -268 -42 -89 -93 -168 -264 -418 -41 -60 -47 -75 -47 -120 0 -34 7 -66 21
-91 14 -27 19 -49 15 -70 -9 -47 18 -127 56 -165 79 -81 163 -85 328 -14 162
70 257 105 274 101 20 -4 -42 -167 -135 -354 -67 -134 -71 -146 -67 -194 8
-84 63 -140 146 -148 106 -10 158 32 244 195 112 214 189 414 209 546 25 162
-45 284 -193 333 -71 23 -229 14 -362 -20 -55 -14 -101 -24 -103 -22 -2 2 21
43 52 90 77 118 169 313 196 416 30 117 31 264 2 338 -26 64 -76 132 -121 163
-91 62 -244 77 -382 36z"/>
<path d="M3885 3680 c-88 -44 -116 -152 -66 -250 34 -66 184 -208 260 -247
125 -64 249 -35 301 72 36 74 15 145 -56 187 -31 18 -34 24 -34 68 0 87 -53
137 -183 171 -93 25 -171 24 -222 -1z"/>
<path d="M1163 3510 c-121 -26 -361 -152 -410 -216 -60 -80 -34 -206 55 -269
36 -25 53 -30 101 -30 39 0 66 6 85 18 15 10 30 16 32 14 10 -10 -50 -284 -91
-417 -109 -354 -139 -562 -92 -645 39 -69 171 -114 273 -93 44 9 59 21 144
107 95 97 157 176 358 459 60 84 126 174 147 199 38 45 39 46 47 22 5 -13 6
-44 3 -69 -17 -118 -80 -434 -121 -605 -70 -291 -71 -441 -4 -534 38 -52 76
-71 141 -71 58 0 106 24 134 66 17 26 17 44 -1 178 -8 61 5 147 61 396 95 423
109 516 110 720 0 152 -3 194 -18 236 -33 95 -118 156 -217 155 -139 0 -210
-66 -430 -396 -148 -222 -150 -224 -114 -107 109 346 150 574 125 695 -30 140
-164 220 -318 187z"/>
<path d="M4605 3266 c-69 -31 -110 -116 -85 -176 15 -36 47 -63 130 -110 68
-38 135 -92 150 -121 15 -27 -9 -68 -86 -150 -62 -66 -64 -70 -64 -121 0 -66
27 -114 75 -134 83 -34 134 -13 243 100 106 111 132 163 132 267 0 70 -4 84
-40 157 -91 182 -341 340 -455 288z"/>
<path d="M3583 3214 c-127 -61 -257 -282 -232 -393 10 -46 64 -96 112 -105 54
-10 116 10 154 51 18 19 33 40 33 46 0 8 30 12 98 12 143 1 210 36 254 134 45
98 -22 212 -153 262 -75 29 -199 26 -266 -7z"/>
<path d="M4567 2270 c-54 -14 -96 -37 -130 -74 -42 -45 -57 -87 -57 -161 0
-36 -2 -65 -4 -65 -3 0 -54 10 -113 21 -321 63 -540 -6 -635 -199 l-33 -67 -3
-309 -2 -310 -38 -11 c-20 -7 -49 -19 -64 -29 -32 -21 -39 -18 -136 61 -38 32
-98 81 -132 108 -34 28 -85 69 -113 93 -168 140 -362 158 -469 45 -27 -28 -68
-112 -83 -168 l-8 -30 -8 28 c-4 16 -13 79 -19 140 -14 149 -38 314 -51 355
-47 146 -261 180 -344 54 -34 -52 -39 -87 -22 -162 9 -36 25 -150 37 -255 40
-361 97 -517 234 -643 96 -87 272 -159 367 -150 62 6 122 46 149 98 19 37 20
51 14 169 -4 71 -3 135 2 144 10 17 64 -17 259 -158 44 -32 114 -74 155 -94
67 -32 84 -36 156 -36 72 0 87 4 155 37 118 59 179 131 179 211 0 34 1 35 59
46 79 16 136 58 167 124 23 50 24 61 24 261 l0 209 48 -6 c26 -3 88 -18 137
-33 75 -23 110 -27 210 -28 102 0 128 3 176 22 111 44 182 118 215 227 34 108
27 330 -12 408 -50 100 -162 153 -267 127z"/>
</g>
</svg>
