<?xml version="1.0" standalone="no"?>
<!DOCTYPE svg PUBLIC "-//W3C//DTD SVG 20010904//EN"
 "http://www.w3.org/TR/2001/REC-SVG-20010904/DTD/svg10.dtd">
<svg version="1.0" xmlns="http://www.w3.org/2000/svg"
 width="600.000000pt" height="600.000000pt" viewBox="0 0 600.000000 600.000000"
 preserveAspectRatio="xMidYMid meet">
<metadata>
Created by potrace 1.15, written by Peter Selinger 2001-2017
</metadata>
<g transform="translate(0.000000,600.000000) scale(0.100000,-0.100000)"
fill="#16364b" stroke="none">
<path d="M2224 5450 c-45 -23 -73 -66 -98 -149 -44 -149 1 -277 117 -339 50
-26 58 -27 195 -26 78 0 142 -3 142 -6 0 -3 -34 -66 -75 -140 -107 -193 -175
-373 -175 -465 0 -132 167 -194 247 -91 11 14 34 64 51 113 18 48 59 138 92
198 193 353 218 441 160 556 -28 54 -96 107 -160 126 -44 13 -80 14 -177 9
l-123 -6 10 26 c15 38 12 74 -9 120 -36 80 -122 112 -197 74z"/>
<path d="M3725 5257 c-79 -21 -140 -52 -163 -84 -63 -88 -21 -204 84 -232 35
-9 52 -8 105 9 35 11 81 20 102 20 31 0 39 -4 48 -27 18 -48 -7 -162 -72 -325
-22 -53 -39 -110 -39 -127 0 -46 23 -93 59 -124 27 -22 42 -27 88 -27 52 0 59
3 92 38 61 65 149 297 171 455 18 123 -18 258 -89 340 -18 20 -57 48 -87 63
-46 23 -72 28 -152 30 -58 2 -117 -2 -147 -9z"/>
<path d="M1740 4905 c-104 -20 -202 -56 -366 -134 -171 -83 -199 -111 -199
-200 0 -67 29 -115 81 -137 30 -13 34 -19 34 -53 0 -45 32 -97 75 -122 17 -10
101 -29 190 -44 240 -39 326 -60 411 -99 120 -56 210 -46 254 27 39 63 16 164
-49 214 -88 69 -214 115 -398 143 -166 26 -173 28 -153 41 36 23 175 59 228
59 78 0 126 15 169 53 86 76 82 196 -9 243 -44 23 -171 27 -268 9z"/>
<path d="M3135 4334 c-498 -158 -629 -210 -668 -265 -28 -39 -32 -106 -10
-149 22 -42 76 -80 114 -80 16 0 84 22 151 50 118 47 214 77 508 155 74 19
145 42 158 51 91 60 81 217 -18 266 -49 25 -77 22 -235 -28z"/>
<path d="M4294 4301 c-104 -10 -150 -48 -161 -130 -7 -48 24 -116 65 -146 25
-18 43 -20 217 -20 105 0 198 -4 207 -9 38 -18 35 -153 -7 -341 -14 -60 -25
-122 -25 -138 0 -66 63 -132 135 -143 37 -5 54 -2 92 17 60 31 79 68 108 211
82 409 9 616 -242 684 -67 17 -283 26 -389 15z"/>
<path d="M2085 3863 c-167 -43 -273 -62 -413 -72 -88 -6 -118 -12 -139 -27
-50 -37 -68 -72 -68 -127 0 -162 174 -195 578 -111 171 36 289 72 316 97 80
73 62 211 -34 257 -54 26 -85 24 -240 -17z"/>
<path d="M3670 3754 c-41 -14 -192 -85 -335 -157 -289 -147 -305 -160 -305
-245 0 -80 61 -142 139 -142 19 0 109 41 246 111 119 61 218 109 220 107 2 -2
-8 -30 -22 -63 -33 -78 -34 -140 -4 -189 58 -93 207 -101 261 -14 23 38 73
184 95 278 62 270 -55 395 -295 314z"/>
<path d="M4967 3249 c-92 -22 -167 -85 -187 -158 -6 -23 -8 -74 -4 -126 l7
-88 -89 -81 c-165 -150 -238 -230 -281 -306 -63 -113 -94 -217 -100 -335 -13
-261 89 -430 267 -443 110 -7 216 78 240 194 11 50 9 63 -10 125 -20 60 -21
76 -12 122 17 81 39 124 91 175 27 26 88 85 136 132 95 92 173 200 199 277 40
116 39 293 -2 386 -26 59 -78 105 -136 122 -55 17 -64 17 -119 4z"/>
<path d="M2011 3228 c-55 -37 -74 -71 -78 -135 -5 -73 19 -116 80 -143 36 -17
66 -20 207 -20 205 0 214 -2 203 -44 -14 -55 -9 -113 13 -143 74 -100 211 -97
263 6 28 54 44 152 39 229 -8 115 -71 208 -168 248 -39 16 -79 19 -285 22
-237 3 -240 3 -274 -20z"/>
<path d="M4292 3199 c-23 -5 -57 -32 -120 -96 -48 -50 -108 -104 -133 -121
-125 -84 -287 -143 -459 -169 -120 -17 -149 -30 -182 -75 -31 -44 -33 -134 -2
-174 54 -73 115 -86 276 -59 198 33 424 121 566 222 93 66 228 204 242 249 41
124 -64 250 -188 223z"/>
<path d="M1245 3035 c-123 -58 -150 -205 -56 -308 50 -56 51 -59 96 -557 16
-177 32 -265 66 -373 29 -90 55 -127 109 -155 114 -59 265 27 285 163 5 30 -2
64 -24 130 -31 95 -64 304 -76 480 -19 301 -74 479 -171 565 -74 65 -163 86
-229 55z"/>
<path d="M2009 2513 c-54 -27 -96 -59 -159 -123 -150 -150 -173 -235 -86 -325
30 -31 52 -44 82 -49 64 -11 109 13 192 104 41 44 87 87 103 96 29 15 30 15
44 -19 8 -18 30 -50 50 -69 l37 -36 -35 -73 c-57 -119 -78 -207 -78 -334 0
-121 30 -291 58 -334 53 -81 154 -94 228 -30 52 46 62 90 41 191 -31 159 -18
275 45 400 48 96 32 185 -42 226 -25 14 -28 21 -22 42 34 112 -60 279 -192
341 -90 43 -168 41 -266 -8z"/>
<path d="M3565 2199 c-38 -5 -153 -30 -255 -55 -102 -25 -265 -58 -363 -74
-193 -31 -226 -45 -267 -113 -76 -125 20 -287 170 -287 40 0 341 65 510 110
129 35 176 43 280 47 l126 6 18 -27 c21 -32 108 -76 151 -76 17 0 51 10 75 23
161 81 99 353 -98 428 -66 25 -232 34 -347 18z"/>
<path d="M4571 1598 c-19 -7 -60 -36 -91 -65 -79 -73 -122 -90 -281 -108 -490
-55 -681 -125 -893 -327 -53 -50 -81 -86 -91 -113 -11 -33 -18 -40 -42 -43
-68 -6 -93 -14 -129 -44 -22 -17 -68 -44 -103 -61 -54 -26 -77 -31 -140 -30
-136 0 -264 72 -432 243 -86 87 -115 111 -149 120 -154 42 -288 -119 -221
-266 25 -56 191 -227 287 -296 203 -146 420 -214 603 -189 199 26 460 172 473
264 2 16 13 23 43 29 22 4 50 10 63 13 12 3 55 35 95 72 188 173 320 227 622
253 230 19 334 50 455 131 69 47 153 134 170 177 18 46 8 124 -21 166 -45 66
-143 99 -218 74z"/>
</g>
</svg>
