<?xml version="1.0" standalone="no"?>
<!DOCTYPE svg PUBLIC "-//W3C//DTD SVG 20010904//EN"
 "http://www.w3.org/TR/2001/REC-SVG-20010904/DTD/svg10.dtd">
<svg version="1.0" xmlns="http://www.w3.org/2000/svg"
 width="600.000000pt" height="600.000000pt" viewBox="0 0 600.000000 600.000000"
 preserveAspectRatio="xMidYMid meet">
<metadata>
Created by potrace 1.15, written by Peter Selinger 2001-2017
</metadata>
<g transform="translate(0.000000,600.000000) scale(0.100000,-0.100000)"
fill="#16364b" stroke="none">
<path d="M1561 5757 c-48 -17 -64 -44 -121 -199 -65 -177 -80 -236 -86 -328
-5 -65 -3 -81 18 -119 34 -65 67 -86 137 -86 92 1 165 48 324 212 109 113 174
192 198 241 19 38 20 49 10 81 -21 71 -95 108 -161 81 -17 -7 -68 -58 -119
-119 -48 -58 -99 -115 -111 -126 l-23 -20 8 25 c4 14 25 69 46 124 21 54 39
110 39 125 0 39 -36 90 -75 107 -40 16 -40 16 -84 1z"/>
<path d="M854 5521 c-110 -28 -211 -116 -269 -233 -90 -183 -55 -360 91 -457
79 -52 165 -36 200 37 26 54 12 98 -49 155 -45 41 -52 53 -51 85 1 113 135
214 210 157 29 -22 110 -19 144 5 57 41 63 134 12 183 -60 58 -200 91 -288 68z"/>
<path d="M3413 5370 c-40 -24 -53 -48 -53 -101 0 -36 6 -48 38 -78 33 -32 38
-42 34 -72 -12 -106 178 -289 300 -289 102 0 173 89 148 187 -15 60 -83 165
-149 229 -59 58 -213 144 -257 144 -16 0 -43 -9 -61 -20z"/>
<path d="M2355 5320 c-11 -4 -31 -20 -45 -34 -23 -25 -24 -33 -26 -165 -4
-218 -52 -378 -139 -461 -20 -19 -68 -53 -108 -75 -88 -50 -121 -93 -114 -148
6 -45 29 -74 74 -93 41 -18 81 -5 185 56 161 96 248 217 303 422 29 108 51
321 41 392 -11 68 -57 116 -112 115 -22 0 -48 -4 -59 -9z"/>
<path d="M2965 5133 c-90 -23 -185 -166 -185 -277 0 -177 140 -241 336 -154
63 28 90 66 104 147 16 96 2 164 -47 221 -20 23 -52 49 -70 56 -32 14 -98 17
-138 7z"/>
<path d="M4745 4800 c-11 -4 -31 -20 -45 -35 -24 -26 -25 -30 -24 -173 1 -130
4 -156 27 -228 66 -202 191 -303 360 -291 139 9 213 93 211 237 -2 178 -121
333 -354 459 -76 41 -129 51 -175 31z m260 -441 c9 -16 12 -29 7 -29 -5 0 -15
12 -22 28 -8 15 -16 31 -19 36 -2 5 1 6 8 2 6 -4 18 -20 26 -37z"/>
<path d="M2675 4195 c-107 -43 -165 -144 -151 -262 17 -146 126 -243 270 -243
127 1 318 79 421 173 53 48 58 56 62 104 7 68 -1 95 -38 137 -24 28 -48 40
-127 64 -138 43 -191 52 -290 52 -69 0 -100 -6 -147 -25z"/>
<path d="M1065 4086 c-56 -25 -95 -85 -95 -144 1 -41 34 -107 67 -130 20 -14
58 -24 115 -32 47 -6 100 -15 118 -21 l31 -11 -28 -30 c-62 -66 -204 -144
-363 -199 -61 -22 -107 -45 -130 -65 -34 -31 -35 -35 -35 -104 0 -70 1 -72 37
-106 57 -52 94 -50 268 13 156 56 236 92 294 132 55 38 66 39 66 3 0 -60 78
-132 145 -132 16 0 44 -15 73 -39 139 -117 301 -114 387 7 27 40 30 51 30 125
0 68 -5 91 -26 137 -68 141 -217 214 -359 176 -30 -8 -56 -13 -58 -12 -1 2 3
16 9 32 19 51 16 144 -8 190 -55 105 -203 184 -400 213 -90 14 -101 13 -138
-3z"/>
<path d="M4176 3764 c-154 -37 -248 -154 -249 -309 -1 -173 122 -295 298 -295
180 0 325 140 370 358 19 94 19 107 -5 157 -25 51 -55 69 -152 89 -93 19 -183
19 -262 0z m114 -273 c0 -16 -31 -41 -51 -41 -30 0 -22 19 14 35 39 17 37 17
37 6z"/>
<path d="M5095 3487 c-196 -73 -306 -246 -265 -416 17 -72 78 -159 141 -201
44 -30 61 -35 123 -38 137 -7 262 71 322 200 26 56 29 74 29 158 0 78 -4 103
-22 140 -25 50 -116 152 -150 169 -34 17 -113 12 -178 -12z"/>
<path d="M3420 3372 c-19 -10 -52 -41 -73 -68 -44 -58 -127 -220 -127 -250 0
-42 22 -84 57 -105 30 -19 44 -21 98 -16 86 8 139 37 176 95 43 68 62 141 57
223 -3 62 -7 73 -35 100 -40 40 -102 49 -153 21z"/>
<path d="M2486 3269 c-54 -13 -133 -54 -183 -95 -57 -47 -134 -166 -173 -266
-66 -172 -94 -211 -209 -295 -91 -66 -325 -300 -398 -398 -66 -87 -113 -177
-149 -280 -26 -74 -28 -92 -29 -235 0 -131 3 -168 23 -239 90 -331 235 -502
512 -604 193 -72 400 -95 539 -61 213 53 482 248 590 427 97 162 177 346 211
488 27 112 35 302 21 519 -17 265 -54 396 -156 556 -21 32 -54 90 -73 129 -82
167 -183 284 -289 332 -63 29 -170 39 -237 22z m140 -471 c35 -77 70 -143 113
-216 80 -135 94 -203 99 -481 3 -154 0 -260 -8 -309 -45 -277 -219 -514 -433
-589 -80 -28 -260 -24 -347 7 -119 42 -235 130 -284 215 -75 127 -76 326 -3
470 68 136 200 276 355 379 118 79 226 182 277 265 19 32 57 118 85 191 65
171 66 172 105 127 17 -20 36 -46 41 -59z"/>
<path d="M563 2440 c-56 -34 -81 -98 -60 -156 6 -16 1 -23 -26 -36 -34 -16
-67 -68 -67 -105 0 -10 15 -52 33 -94 78 -178 247 -378 371 -439 78 -38 178
-50 251 -30 157 44 223 248 136 425 -56 113 -254 290 -460 411 -85 50 -127 55
-178 24z m192 -324 c99 -67 220 -190 233 -240 12 -42 5 -76 -15 -76 -43 0
-137 71 -197 148 -74 97 -138 222 -115 222 7 0 49 -24 94 -54z"/>
<path d="M4265 2136 c-39 -17 -84 -63 -91 -92 l-6 -23 -39 19 c-49 25 -99 25
-148 1 -43 -23 -64 -50 -80 -107 -9 -33 -5 -69 25 -233 20 -107 40 -205 45
-218 5 -13 30 -46 56 -74 27 -28 66 -70 88 -94 79 -85 203 -84 288 1 38 38 56
83 73 184 18 111 36 480 24 519 -28 100 -144 157 -235 117z"/>
</g>
</svg>
