<?xml version="1.0" standalone="no"?>
<!DOCTYPE svg PUBLIC "-//W3C//DTD SVG 20010904//EN"
 "http://www.w3.org/TR/2001/REC-SVG-20010904/DTD/svg10.dtd">
<svg version="1.0" xmlns="http://www.w3.org/2000/svg"
 width="600.000000pt" height="600.000000pt" viewBox="0 0 600.000000 600.000000"
 preserveAspectRatio="xMidYMid meet">
<metadata>
Created by potrace 1.15, written by Peter Selinger 2001-2017
</metadata>
<g transform="translate(0.000000,600.000000) scale(0.100000,-0.100000)"
fill="#16364b" stroke="none">
<path d="M2400 5403 c-35 -12 -40 -35 -40 -192 0 -232 -31 -396 -100 -531 -32
-62 -114 -139 -194 -180 -37 -19 -72 -43 -78 -53 -15 -28 -2 -62 29 -76 25
-11 35 -9 113 31 246 124 360 376 360 794 0 140 -2 165 -17 182 -20 23 -50 33
-73 25z"/>
<path d="M3521 5274 c-39 -50 -20 -123 59 -227 92 -122 213 -158 255 -76 22
41 19 69 -15 136 -61 122 -147 193 -234 193 -36 0 -48 -5 -65 -26z"/>
<path d="M3044 5120 c-75 -23 -152 -141 -175 -269 -19 -111 13 -174 90 -174
102 0 252 185 254 313 1 95 -79 157 -169 130z m47 -151 c-5 -39 -37 -92 -76
-129 l-37 -35 7 40 c8 48 38 108 67 135 27 25 44 21 39 -11z"/>
<path d="M4753 4716 c-26 -22 -28 -31 -33 -113 -11 -171 16 -398 55 -474 21
-39 71 -69 115 -69 97 0 148 113 129 288 -14 130 -91 329 -144 370 -37 29 -86
29 -122 -2z"/>
<path d="M2644 4216 c-46 -20 -64 -52 -64 -112 0 -44 5 -60 33 -95 64 -84 218
-140 343 -125 181 21 269 128 182 220 -30 32 -48 38 -216 80 -195 49 -229 53
-278 32z"/>
<path d="M5233 3971 c-156 -54 -240 -193 -213 -357 20 -120 109 -234 217 -274
74 -28 212 -25 283 7 67 30 135 96 167 161 24 48 28 69 28 137 -1 102 -35 184
-105 249 -79 74 -134 96 -237 96 -58 -1 -106 -7 -140 -19z m163 -291 c25 -10
26 -11 10 -29 -25 -28 -54 -33 -66 -11 -25 46 -2 62 56 40z"/>
<path d="M4175 3745 c-79 -32 -164 -120 -194 -200 -78 -207 63 -397 284 -383
95 7 162 37 224 103 65 69 86 136 78 248 -11 135 -45 184 -166 233 -75 31
-148 31 -226 -1z m125 -273 c0 -10 -5 -23 -12 -30 -17 -17 -48 -15 -48 2 0 14
36 46 52 46 5 0 8 -8 8 -18z"/>
<path d="M1181 3634 c-165 -44 -248 -213 -195 -395 43 -147 151 -241 317 -275
88 -19 113 -32 164 -87 120 -130 184 -365 268 -980 33 -247 113 -417 261 -558
168 -158 334 -193 1079 -222 415 -16 660 -13 877 12 303 35 466 76 643 162
346 167 523 380 599 714 33 146 28 296 -16 414 -61 165 -241 357 -415 445
-129 65 -310 73 -473 21 -112 -36 -135 -48 -315 -170 -224 -152 -327 -199
-505 -230 -111 -20 -167 -19 -273 5 -179 39 -311 108 -537 279 -158 119 -273
216 -425 356 -66 61 -142 131 -168 155 -141 129 -303 228 -487 296 -194 71
-295 86 -399 58z m266 -315 c97 -31 232 -93 286 -131 58 -42 147 -127 252
-240 122 -133 214 -214 433 -382 271 -207 379 -270 582 -336 155 -51 243 -64
392 -57 309 13 445 63 717 261 179 130 215 150 308 172 185 43 341 -39 438
-230 103 -205 42 -483 -145 -659 -68 -65 -238 -161 -374 -212 -201 -76 -524
-107 -891 -87 -199 11 -319 16 -655 27 -267 9 -421 34 -521 86 -120 61 -196
209 -229 444 -38 281 -122 626 -206 854 -100 269 -212 374 -471 441 -41 10
-103 53 -103 71 0 19 93 8 187 -22z"/>
<path d="M2266 2364 c-25 -24 -20 -69 10 -93 15 -12 35 -21 45 -21 28 0 59 36
59 69 0 39 -24 61 -65 61 -18 0 -41 -7 -49 -16z"/>
<path d="M2865 2072 c-50 -10 -61 -63 -21 -101 32 -30 75 -25 95 11 30 52 -12
103 -74 90z"/>
<path d="M3475 3373 c-11 -3 -31 -15 -44 -26 -31 -29 -113 -153 -152 -232 -27
-55 -29 -66 -18 -87 16 -31 28 -38 65 -38 25 0 41 10 75 48 63 67 93 108 128
178 39 77 40 115 5 143 -15 12 -29 20 -33 20 -3 -1 -15 -3 -26 -6z"/>
<path d="M480 2030 c-39 -39 -27 -69 63 -162 117 -123 199 -156 252 -103 63
62 1 143 -185 244 -85 46 -102 49 -130 21z"/>
<path d="M5338 1099 c-10 -5 -26 -29 -37 -53 -57 -131 -21 -246 79 -246 77 0
125 78 125 203 0 60 -3 71 -24 88 -26 21 -113 26 -143 8z"/>
</g>
</svg>
