<?xml version="1.0" standalone="no"?>
<!DOCTYPE svg PUBLIC "-//W3C//DTD SVG 20010904//EN"
 "http://www.w3.org/TR/2001/REC-SVG-20010904/DTD/svg10.dtd">
<svg version="1.0" xmlns="http://www.w3.org/2000/svg"
 width="600.000000pt" height="600.000000pt" viewBox="0 0 600.000000 600.000000"
 preserveAspectRatio="xMidYMid meet">
<metadata>
Created by potrace 1.15, written by Peter Selinger 2001-2017
</metadata>
<g transform="translate(0.000000,600.000000) scale(0.100000,-0.100000)"
fill="#16364b" stroke="none">
<path d="M2972 5599 c-39 -20 -48 -32 -97 -133 -83 -174 -97 -272 -49 -371 49
-105 131 -142 337 -153 l122 -7 -75 -51 c-93 -64 -134 -98 -285 -237 -226
-209 -263 -248 -270 -290 -11 -60 10 -110 74 -170 83 -79 143 -100 497 -172
117 -24 246 -55 286 -69 89 -31 132 -33 176 -6 70 43 95 147 52 218 -31 51
-140 89 -423 147 -189 39 -257 55 -257 61 0 3 16 19 37 37 116 102 206 171
353 270 195 132 245 175 276 242 46 98 21 183 -69 235 -80 46 -180 64 -469 86
-45 3 -78 10 -78 16 0 6 21 53 46 105 39 78 45 100 41 131 -17 104 -130 160
-225 111z"/>
<path d="M1516 5334 c-138 -70 -242 -173 -424 -418 -132 -178 -192 -311 -192
-423 0 -94 53 -163 135 -178 19 -4 89 9 185 34 141 36 337 67 349 56 9 -10
-21 -86 -85 -216 -81 -164 -114 -250 -114 -297 0 -19 -12 -59 -26 -88 -29 -60
-28 -96 5 -150 21 -35 75 -64 118 -64 16 0 66 18 111 40 46 22 145 64 220 94
75 30 166 68 203 84 110 50 148 119 114 208 -22 58 -68 93 -131 100 -44 5 -59
0 -142 -40 -51 -25 -95 -46 -97 -46 -2 0 23 51 55 114 32 63 66 141 75 172 50
174 -8 310 -165 383 -46 21 -73 26 -163 29 -61 3 -135 -1 -169 -8 -33 -6 -62
-10 -64 -7 -9 8 127 175 194 239 39 36 102 84 140 107 78 45 103 76 110 136 7
63 -24 117 -85 149 -45 23 -100 20 -157 -10z"/>
<path d="M4485 4521 c-68 -19 -280 -105 -323 -132 -11 -7 -30 -30 -42 -52 -54
-96 18 -217 129 -217 16 0 67 15 113 33 114 47 188 70 195 63 4 -3 -43 -88
-104 -188 -166 -275 -223 -386 -223 -437 0 -49 25 -91 75 -124 18 -12 48 -34
67 -49 28 -22 74 -36 263 -78 127 -28 233 -55 238 -59 10 -10 -55 -140 -170
-344 -66 -116 -97 -182 -100 -211 -11 -89 59 -171 146 -171 71 0 92 21 167
168 37 73 98 182 136 242 111 177 132 227 136 316 5 104 -24 161 -115 226 -59
42 -134 66 -323 103 -85 17 -161 32 -167 35 -16 6 42 115 165 308 119 188 144
242 150 327 8 113 -27 179 -122 227 -69 36 -190 41 -291 14z"/>
<path d="M3767 3646 c-89 -24 -149 -115 -132 -197 24 -118 120 -176 220 -135
34 14 35 14 41 -8 4 -15 -5 -44 -25 -83 l-30 -60 -68 -17 c-107 -26 -171 -62
-244 -137 -71 -73 -119 -154 -119 -202 0 -105 110 -173 215 -133 33 13 56 33
87 74 60 78 112 103 228 110 70 4 98 10 122 26 53 36 73 71 75 134 1 42 10 76
34 127 32 66 34 77 34 175 0 96 -2 109 -27 151 -75 128 -273 212 -411 175z"/>
<path d="M2445 3565 c-162 -42 -324 -120 -355 -171 -45 -72 -11 -188 66 -220
57 -24 100 -17 198 30 112 54 187 79 240 80 40 1 41 0 44 -37 8 -92 -78 -313
-198 -513 -59 -97 -68 -135 -46 -187 10 -25 13 -53 9 -86 -10 -88 34 -162 120
-202 63 -28 103 -24 306 35 234 68 231 67 231 51 0 -18 -42 -127 -89 -233 -50
-110 -54 -172 -17 -236 36 -62 92 -89 171 -84 100 6 127 33 193 194 29 71 71
183 94 249 36 106 41 131 42 215 1 109 -15 153 -79 208 -98 86 -268 100 -518
42 -90 -21 -88 -26 -32 88 61 125 115 331 115 438 0 168 -88 301 -228 344 -83
26 -156 25 -267 -5z"/>
<path d="M1170 3328 c-30 -4 -79 -20 -109 -33 -72 -34 -215 -130 -246 -167
-57 -67 -58 -172 -2 -235 58 -66 141 -88 214 -58 20 8 38 14 39 12 2 -2 -14
-99 -37 -216 -60 -317 -69 -392 -69 -552 0 -171 13 -229 62 -276 44 -41 64
-50 139 -62 77 -13 125 -2 161 36 14 16 75 102 135 193 61 91 147 217 193 280
45 63 112 161 149 217 36 56 69 102 73 103 3 0 14 -14 22 -32 21 -41 21 -191
1 -318 -9 -52 -34 -178 -57 -280 -38 -169 -42 -197 -42 -330 -1 -160 9 -194
71 -252 114 -106 292 -3 254 148 -20 80 -14 145 44 439 52 265 64 530 31 675
-10 41 -24 105 -31 141 -33 160 -104 239 -217 239 -101 0 -238 -110 -361 -290
-32 -47 -88 -128 -124 -180 -76 -110 -73 -133 -22 190 41 256 45 402 13 470
-52 110 -153 160 -284 138z"/>
<path d="M4700 2324 c-68 -30 -121 -98 -136 -178 l-7 -39 -121 7 c-195 10
-334 -13 -474 -82 -191 -93 -252 -214 -252 -503 0 -150 11 -143 -96 -56 -33
26 -88 62 -124 80 -59 29 -73 32 -160 32 -85 0 -101 -3 -150 -28 -145 -75
-217 -157 -383 -435 -63 -106 -118 -189 -121 -184 -3 6 -13 54 -22 108 -55
348 -91 498 -136 564 -48 70 -158 100 -234 64 -47 -22 -91 -75 -105 -126 -10
-38 -8 -56 14 -148 29 -114 40 -173 58 -295 19 -138 66 -303 113 -399 51 -105
105 -164 186 -204 46 -23 68 -27 135 -27 84 1 163 22 201 53 33 27 89 112 135
203 58 117 224 393 261 434 16 19 38 35 48 35 19 0 88 -49 150 -106 168 -155
244 -198 355 -198 55 0 80 5 114 23 60 31 148 116 175 167 11 23 34 65 50 95
l29 54 -7 193 -7 192 28 11 c19 8 63 8 138 3 61 -5 164 -9 230 -8 100 0 130 4
178 23 105 41 192 127 231 228 26 69 33 224 13 294 -31 105 -114 169 -218 169
-30 -1 -70 -8 -89 -16z"/>
</g>
</svg>
