<?xml version="1.0" standalone="no"?>
<!DOCTYPE svg PUBLIC "-//W3C//DTD SVG 20010904//EN"
 "http://www.w3.org/TR/2001/REC-SVG-20010904/DTD/svg10.dtd">
<svg version="1.0" xmlns="http://www.w3.org/2000/svg"
 width="600.000000pt" height="600.000000pt" viewBox="0 0 600.000000 600.000000"
 preserveAspectRatio="xMidYMid meet">
<metadata>
Created by potrace 1.15, written by Peter Selinger 2001-2017
</metadata>
<g transform="translate(0.000000,600.000000) scale(0.100000,-0.100000)"
fill="#16364b" stroke="none">
<path d="M2115 5802 c-22 -10 -58 -41 -80 -68 -21 -27 -132 -141 -245 -254
-263 -263 -329 -351 -330 -442 0 -108 93 -191 214 -190 110 1 243 55 651 265
142 73 185 99 202 126 30 44 30 98 1 141 -37 54 -69 72 -126 72 -42 -1 -73
-13 -191 -71 -78 -39 -141 -68 -141 -65 0 3 51 60 114 125 129 134 151 171
143 237 -12 106 -117 168 -212 124z"/>
<path d="M3031 5673 c-44 -22 -71 -67 -71 -121 0 -86 49 -136 170 -172 272
-80 410 -221 410 -419 0 -76 -29 -133 -94 -180 -53 -38 -66 -45 -153 -82 -67
-27 -93 -66 -93 -137 0 -43 5 -57 31 -87 49 -55 91 -61 190 -28 202 66 358
228 399 414 18 82 9 258 -18 333 -62 170 -196 304 -408 406 -173 83 -293 107
-363 73z"/>
<path d="M970 5376 c-219 -62 -349 -255 -350 -517 0 -142 47 -249 159 -360 96
-94 148 -118 212 -98 77 25 121 107 104 195 -5 29 -24 55 -84 113 -56 55 -80
87 -89 117 -33 113 4 177 140 244 94 46 113 72 113 158 0 51 -5 73 -20 94 -42
56 -110 75 -185 54z"/>
<path d="M2669 4956 c-104 -56 -161 -164 -163 -306 -1 -100 13 -151 57 -216
68 -101 180 -153 333 -155 66 -1 91 3 116 18 79 46 104 152 52 221 -32 42 -69
57 -154 66 -78 9 -110 27 -110 62 0 45 17 64 50 58 75 -16 154 29 166 94 10
52 -26 115 -84 150 -38 22 -60 27 -131 29 -76 3 -91 0 -132 -21z"/>
<path d="M4779 4927 c-18 -12 -44 -38 -57 -57 -23 -34 -24 -40 -19 -165 12
-271 75 -432 201 -510 43 -26 59 -30 120 -30 89 1 155 32 215 102 176 205 54
486 -286 657 -67 33 -128 34 -174 3z"/>
<path d="M1875 4549 c-73 -25 -180 -95 -228 -148 -96 -107 -32 -251 111 -251
50 0 85 17 155 76 43 37 88 32 121 -11 36 -46 74 -65 134 -65 137 0 199 151
109 266 -105 135 -253 184 -402 133z"/>
<path d="M2885 3921 c-46 -12 -72 -28 -101 -67 -25 -33 -28 -44 -35 -180 -11
-184 -37 -350 -74 -478 -22 -74 -19 -137 8 -177 34 -51 82 -79 134 -79 58 0
99 25 123 75 35 74 131 541 146 713 5 58 2 73 -18 112 -32 63 -112 98 -183 81z"/>
<path d="M1210 3830 c-85 -8 -228 -44 -280 -71 -125 -62 -148 -210 -49 -307
43 -42 119 -65 174 -52 22 5 41 7 43 5 5 -5 -84 -166 -224 -406 -149 -255
-224 -435 -224 -538 0 -90 70 -178 160 -202 76 -19 113 -2 257 118 110 92 267
227 283 243 9 10 274 245 330 293 30 26 58 47 61 47 9 0 1 -70 -18 -150 -16
-67 -168 -506 -222 -643 -30 -75 -79 -174 -141 -286 -18 -32 -30 -68 -30 -90
1 -84 89 -173 173 -173 26 0 56 8 72 18 49 32 176 312 338 744 143 383 157
439 157 625 0 173 -20 244 -84 303 -119 110 -259 69 -499 -144 -49 -44 -103
-90 -119 -104 l-31 -25 17 34 c10 18 38 68 63 110 72 122 139 262 153 320 23
96 -1 190 -64 252 -51 51 -93 68 -201 83 -11 1 -54 0 -95 -4z"/>
<path d="M4233 3779 c-159 -27 -263 -103 -303 -223 -18 -54 -9 -179 17 -238
73 -164 243 -227 405 -151 116 55 226 176 298 330 42 89 47 114 29 160 -27 71
-93 109 -216 123 -101 11 -157 11 -230 -1z m54 -324 c-30 -26 -61 -34 -55 -12
5 14 46 37 68 37 10 -1 5 -9 -13 -25z"/>
<path d="M3489 3387 c-120 -45 -190 -142 -234 -325 -20 -83 -16 -129 16 -173
30 -42 75 -59 158 -59 168 0 286 57 344 165 31 58 31 192 0 256 -26 51 -74
104 -114 125 -41 21 -128 26 -170 11z"/>
<path d="M4865 2871 c-45 -27 -160 -155 -216 -240 -88 -132 -102 -238 -46
-331 89 -151 296 -152 441 -2 91 93 127 181 127 306 1 45 -5 95 -11 111 -13
35 -112 140 -152 161 -38 20 -107 18 -143 -5z"/>
<path d="M4165 2511 c-73 -19 -133 -70 -162 -138 -26 -64 -18 -119 53 -365 4
-13 -14 -8 -83 25 -83 40 -93 42 -178 42 -108 0 -146 -16 -218 -94 -89 -95
-124 -219 -114 -400 9 -162 68 -368 128 -450 57 -79 172 -130 264 -117 60 10
122 57 147 113 23 52 21 118 -6 242 -10 41 -16 88 -14 104 l3 29 40 -37 c89
-83 166 -93 287 -36 158 75 238 195 238 359 0 128 -57 396 -119 563 -44 116
-161 187 -266 160z"/>
<path d="M2925 2250 c-105 -23 -356 -136 -520 -235 -46 -28 -63 -34 -75 -26
-80 57 -105 66 -180 66 -54 0 -86 -5 -115 -19 -53 -26 -166 -141 -193 -197
-67 -138 20 -286 171 -295 l52 -2 12 -49 c19 -73 18 -76 -48 -106 -80 -38
-187 -139 -229 -219 -30 -55 -35 -75 -38 -152 -6 -109 9 -179 55 -271 117
-235 323 -417 563 -497 88 -30 105 -32 225 -32 113 0 140 4 210 27 89 30 200
92 288 162 63 50 107 124 107 181 0 52 -47 131 -93 158 -89 50 -152 40 -262
-44 -88 -67 -143 -91 -219 -97 -119 -9 -273 56 -376 159 -99 100 -137 278 -58
278 26 0 55 -18 117 -73 73 -65 106 -80 173 -80 112 0 198 85 198 197 0 65
-18 99 -83 157 -67 59 -102 124 -133 245 -13 53 -24 100 -24 105 0 4 16 12 35
18 19 5 84 36 144 70 119 65 302 155 340 166 22 7 23 5 16 -27 -24 -117 -125
-362 -210 -508 -36 -63 -32 -150 9 -205 70 -91 209 -100 290 -19 38 39 102
169 190 388 115 284 130 335 130 446 0 77 -5 104 -22 144 -36 78 -77 122 -148
157 -57 28 -76 32 -162 35 -53 2 -115 -1 -137 -6z"/>
</g>
</svg>
