<?xml version="1.0" standalone="no"?>
<!DOCTYPE svg PUBLIC "-//W3C//DTD SVG 20010904//EN"
 "http://www.w3.org/TR/2001/REC-SVG-20010904/DTD/svg10.dtd">
<svg version="1.0" xmlns="http://www.w3.org/2000/svg"
 width="600.000000pt" height="600.000000pt" viewBox="0 0 600.000000 600.000000"
 preserveAspectRatio="xMidYMid meet">
<metadata>
Created by potrace 1.15, written by Peter Selinger 2001-2017
</metadata>
<g transform="translate(0.000000,600.000000) scale(0.100000,-0.100000)"
fill="#16364b" stroke="none">
<path d="M2253 5636 c-109 -35 -183 -106 -224 -214 -12 -32 -33 -118 -47 -192
-24 -131 -25 -149 -27 -590 -2 -301 -8 -530 -18 -675 -9 -121 -21 -326 -27
-455 -5 -129 -13 -263 -16 -298 l-6 -62 -45 37 c-90 74 -247 273 -307 390 -16
32 -16 33 14 66 16 19 30 40 30 46 0 19 -39 12 -52 -9 -20 -31 -27 -24 -17 18
22 97 -2 122 -47 50 l-27 -42 -19 38 c-13 25 -25 36 -36 34 -14 -3 -16 -13
-13 -53 l3 -50 -24 23 c-28 25 -58 29 -58 7 0 -8 20 -47 45 -87 25 -40 45 -78
45 -85 0 -18 89 -160 147 -236 77 -101 190 -213 280 -280 l85 -62 -7 -85 c-4
-47 -13 -130 -21 -185 -32 -226 -28 -484 12 -715 30 -174 112 -360 222 -504
87 -113 236 -198 399 -226 71 -13 72 -14 65 -39 -4 -14 -7 -82 -6 -151 1 -138
15 -208 85 -434 22 -70 37 -132 32 -136 -4 -4 -47 -10 -94 -12 -59 -3 -95 -10
-113 -21 -67 -44 -79 -122 -27 -169 27 -24 40 -28 95 -28 113 0 221 51 270
128 43 66 41 91 -17 298 -30 104 -60 227 -67 273 -12 80 -9 238 6 262 7 11 57
8 294 -17 74 -8 178 -19 230 -25 52 -5 178 -10 279 -10 l183 1 -6 -28 c-4 -15
-9 -68 -13 -118 -7 -106 9 -198 64 -374 19 -63 38 -127 40 -143 l5 -27 -92 0
c-124 0 -169 -27 -170 -101 0 -75 97 -120 218 -100 112 18 182 68 203 144 12
46 13 41 -55 261 -66 213 -79 352 -45 466 14 45 6 44 265 60 225 14 319 51
401 159 46 59 72 154 88 321 8 80 19 181 25 225 29 241 21 528 -20 691 -26
102 -93 241 -159 327 -28 38 -53 73 -54 78 -1 5 34 24 78 42 153 64 297 153
402 250 57 52 117 137 174 245 41 78 43 85 26 96 -9 7 -17 18 -17 24 0 22 -21
23 -46 3 -36 -28 -42 -26 -40 11 2 51 -27 48 -48 -4 -17 -41 -19 -42 -25 -18
-4 14 -15 26 -24 28 -20 4 -23 -32 -6 -92 10 -36 8 -42 -27 -92 -86 -126 -348
-300 -518 -346 l-48 -13 -50 55 c-187 203 -269 277 -460 421 -110 83 -271 197
-357 254 -86 56 -191 135 -234 175 -225 210 -320 490 -346 1021 -9 174 -15
219 -35 285 -43 135 -114 221 -225 272 -48 22 -72 26 -171 29 -78 2 -129 -2
-157 -11z m241 -142 c26 -9 63 -33 83 -53 73 -75 90 -136 108 -388 20 -270 61
-512 117 -683 82 -252 246 -460 481 -610 485 -309 572 -379 848 -680 264 -287
314 -370 356 -580 21 -107 21 -448 0 -615 -9 -71 -21 -171 -27 -221 -15 -130
-34 -188 -79 -233 -55 -55 -110 -70 -296 -81 -88 -6 -218 -15 -289 -20 -166
-13 -411 -13 -546 0 -129 12 -326 27 -525 40 -178 11 -239 23 -322 60 -175 79
-329 336 -384 640 -20 110 -17 427 5 560 12 74 20 204 26 435 9 348 24 670 40
870 28 370 34 563 20 792 -10 181 -10 249 -1 332 36 306 74 390 197 435 53 20
130 19 188 0z"/>
<path d="M2582 2958 c-19 -19 -14 -65 10 -88 38 -35 68 -37 95 -6 28 33 29 46
2 80 -15 20 -29 26 -58 26 -20 0 -42 -5 -49 -12z"/>
<path d="M3213 2935 c-46 -33 -19 -99 50 -121 24 -8 67 34 67 65 0 51 -75 86
-117 56z"/>
<path d="M3120 2005 c-145 -16 -294 -18 -342 -5 -83 24 -110 -47 -33 -85 34
-16 59 -20 160 -19 66 1 163 7 215 13 52 7 141 12 197 12 100 0 103 1 109 24
8 31 -1 44 -42 61 -39 16 -105 16 -264 -1z"/>
</g>
</svg>
