<?xml version="1.0" standalone="no"?>
<!DOCTYPE svg PUBLIC "-//W3C//DTD SVG 20010904//EN"
 "http://www.w3.org/TR/2001/REC-SVG-20010904/DTD/svg10.dtd">
<svg version="1.0" xmlns="http://www.w3.org/2000/svg"
 width="600.000000pt" height="600.000000pt" viewBox="0 0 600.000000 600.000000"
 preserveAspectRatio="xMidYMid meet">
<metadata>
Created by potrace 1.15, written by Peter Selinger 2001-2017
</metadata>
<g transform="translate(0.000000,600.000000) scale(0.100000,-0.100000)"
fill="#16364b" stroke="none">
<path d="M3004 5071 c-101 -62 -159 -234 -104 -311 40 -56 96 -47 173 28 76
74 120 178 98 235 -25 65 -102 87 -167 48z m101 -48 c39 -38 -36 -187 -115
-228 -36 -18 -50 -4 -50 50 0 75 57 164 120 188 24 9 28 8 45 -10z"/>
<path d="M4771 4701 c-11 -11 -22 -39 -25 -63 -13 -97 -26 -306 -26 -409 0
-137 13 -169 71 -169 54 0 60 20 70 237 5 109 14 236 20 282 9 77 8 87 -9 110
-25 34 -73 40 -101 12z"/>
<path d="M1775 4586 c-46 -20 -93 -63 -123 -115 -23 -39 -27 -57 -27 -121 0
-69 4 -82 47 -167 82 -165 114 -349 143 -838 8 -143 22 -372 30 -510 10 -164
15 -369 13 -595 -3 -330 -2 -348 19 -422 43 -151 132 -300 247 -413 108 -107
225 -166 356 -181 33 -4 62 -9 64 -13 2 -3 0 -37 -5 -76 -17 -132 19 -336 96
-553 19 -53 35 -100 35 -103 0 -3 -37 -9 -82 -13 -102 -8 -146 -28 -165 -74
-40 -96 45 -159 181 -134 86 16 162 57 197 105 39 54 39 111 -1 210 -71 179
-118 433 -105 570 l7 78 101 -7 c56 -3 200 -17 320 -30 151 -17 275 -24 403
-24 l186 0 -8 -42 c-21 -127 6 -354 62 -513 52 -146 54 -137 -46 -151 -111
-14 -124 -19 -155 -55 -46 -55 -22 -125 51 -149 66 -22 213 16 292 77 38 29
71 93 72 137 0 16 -18 84 -39 150 -63 193 -96 429 -75 536 8 37 -1 33 136 54
148 23 429 99 517 141 218 104 329 280 356 571 13 141 -36 347 -109 458 -50
74 -115 122 -250 185 -125 59 -211 86 -427 136 -164 38 -465 150 -684 255
-376 181 -668 497 -1020 1105 -54 94 -117 196 -139 229 -23 32 -45 66 -51 75
-83 132 -127 179 -208 219 -51 26 -162 30 -212 8z m131 -136 c25 0 98 -76 138
-142 21 -35 55 -85 77 -113 21 -27 76 -115 121 -194 98 -172 275 -447 378
-586 95 -128 295 -328 433 -431 133 -100 250 -162 482 -254 99 -39 211 -85
248 -101 38 -17 171 -57 297 -89 224 -58 419 -130 496 -182 99 -68 159 -267
134 -447 -28 -207 -119 -354 -262 -423 -53 -26 -240 -81 -398 -117 -241 -56
-534 -65 -950 -29 -140 12 -320 21 -400 20 -80 -1 -174 3 -210 8 -219 34 -395
237 -463 534 -19 82 -21 126 -22 461 -2 527 -39 1201 -80 1477 -23 153 -61
291 -105 386 -41 87 -50 144 -29 183 12 23 67 51 87 44 8 -3 20 -5 28 -5z"/>
<path d="M2523 2645 c-31 -22 -35 -52 -10 -80 33 -36 61 -40 90 -13 36 33 42
63 18 87 -25 25 -68 27 -98 6z"/>
<path d="M2973 2418 c-30 -39 -19 -79 28 -103 30 -16 33 -16 58 3 33 24 41 80
15 99 -23 17 -89 17 -101 1z"/>
<path d="M5196 3960 c-127 -50 -189 -186 -156 -345 39 -189 169 -308 319 -291
176 21 316 165 329 337 4 60 1 75 -22 123 -32 65 -90 119 -176 164 -58 29 -70
32 -154 32 -65 -1 -105 -6 -140 -20z m192 -295 c10 -10 -13 -40 -33 -44 -20
-3 -45 23 -45 47 0 11 9 13 36 9 20 -3 39 -9 42 -12z"/>
<path d="M4155 3736 c-150 -71 -234 -266 -175 -405 28 -64 94 -124 162 -147
140 -46 323 27 384 153 49 102 14 277 -69 348 -93 80 -202 98 -302 51z m118
-265 c6 -23 -10 -41 -35 -41 -22 0 -23 23 -2 44 20 21 31 20 37 -3z"/>
<path d="M5359 1110 c-25 -14 -61 -107 -66 -171 -5 -54 -4 -60 25 -88 55 -56
138 -36 179 42 10 20 16 59 17 104 1 63 -2 75 -23 97 -20 21 -34 26 -70 26
-25 0 -53 -5 -62 -10z"/>
</g>
</svg>
