<?xml version="1.0" standalone="no"?>
<!DOCTYPE svg PUBLIC "-//W3C//DTD SVG 20010904//EN"
 "http://www.w3.org/TR/2001/REC-SVG-20010904/DTD/svg10.dtd">
<svg version="1.0" xmlns="http://www.w3.org/2000/svg"
 width="600.000000pt" height="600.000000pt" viewBox="0 0 600.000000 600.000000"
 preserveAspectRatio="xMidYMid meet">
<metadata>
Created by potrace 1.15, written by Peter Selinger 2001-2017
</metadata>
<g transform="translate(0.000000,600.000000) scale(0.100000,-0.100000)"
fill="#16364b" stroke="none">
<path d="M2152 5808 c-123 -68 -565 -511 -652 -654 -31 -51 -35 -66 -35 -124
0 -56 4 -73 28 -109 56 -85 175 -103 327 -51 90 30 453 171 575 223 124 52
155 73 177 117 51 101 -11 217 -122 228 -41 4 -68 -5 -215 -67 -92 -40 -169
-70 -172 -68 -2 3 65 69 148 148 151 144 179 180 179 239 0 116 -126 178 -238
118z"/>
<path d="M3064 5676 c-65 -28 -105 -118 -85 -187 17 -55 57 -83 156 -108 156
-39 285 -117 340 -205 27 -44 30 -59 33 -142 7 -170 -44 -250 -210 -331 -47
-23 -95 -54 -107 -68 -94 -120 15 -290 156 -245 56 18 150 67 216 112 177 120
267 303 267 542 0 166 -44 273 -160 386 -106 103 -253 181 -444 235 -100 28
-119 30 -162 11z"/>
<path d="M913 5340 c-116 -41 -209 -125 -270 -243 -98 -188 -59 -392 107 -570
88 -94 179 -157 226 -157 149 0 216 171 107 271 -118 108 -173 187 -173 251 0
65 52 134 123 163 118 47 146 74 154 146 6 52 -21 99 -76 136 -42 29 -123 30
-198 3z"/>
<path d="M2720 4962 c-73 -24 -125 -59 -180 -118 -150 -161 -138 -381 29 -537
81 -76 209 -127 316 -127 122 0 196 109 145 214 -26 55 -68 83 -146 97 -66 12
-89 22 -121 52 -53 48 -10 137 72 150 56 9 104 42 121 82 18 44 18 69 -2 112
-39 80 -130 109 -234 75z"/>
<path d="M4784 4949 c-43 -12 -101 -79 -110 -125 -10 -53 3 -187 26 -278 54
-210 191 -346 350 -346 141 1 248 95 280 247 9 42 8 64 -5 115 -35 139 -146
242 -389 359 -83 40 -100 43 -152 28z"/>
<path d="M1867 4510 c-72 -22 -167 -84 -229 -147 -73 -75 -85 -128 -45 -203
13 -25 37 -51 57 -61 65 -35 157 -17 201 40 26 33 88 71 116 71 12 0 37 -13
55 -29 48 -41 71 -51 120 -51 52 0 100 27 129 72 31 50 23 135 -18 185 -99
123 -242 169 -386 123z"/>
<path d="M2730 3871 c-82 -25 -121 -68 -122 -135 -2 -70 56 -148 120 -162 50
-11 50 -11 45 -56 -13 -105 -84 -267 -183 -418 -63 -95 -79 -143 -66 -194 18
-71 110 -120 185 -97 57 17 82 41 159 153 84 124 132 218 175 341 29 85 31
102 32 222 0 120 -2 134 -26 186 -35 74 -94 132 -154 153 -51 17 -122 20 -165
7z"/>
<path d="M4298 3809 c-175 -23 -306 -109 -379 -249 -35 -67 -34 -185 3 -256
55 -104 152 -164 278 -172 61 -3 86 0 135 19 108 40 223 175 325 379 64 128
57 188 -29 247 -46 31 -217 48 -333 32z m-28 -328 c0 -13 -50 -51 -66 -51 -24
0 -15 20 19 40 35 22 47 25 47 11z"/>
<path d="M1157 3794 c-88 -19 -228 -70 -269 -98 -18 -12 -43 -37 -56 -56 -21
-30 -23 -44 -20 -107 3 -62 7 -76 34 -109 56 -70 148 -101 218 -74 15 5 26 6
26 0 0 -21 -96 -213 -191 -382 -113 -200 -165 -319 -205 -465 -38 -139 -20
-213 64 -265 47 -30 150 -32 201 -4 125 67 444 353 683 614 42 45 79 82 82 82
18 0 -9 -269 -40 -395 -44 -175 -105 -335 -216 -558 -86 -173 -93 -208 -58
-277 35 -69 121 -111 184 -90 52 17 81 56 141 195 168 383 237 602 290 920 8
50 19 108 25 130 14 58 12 240 -4 307 -26 111 -101 172 -211 170 -119 -1 -209
-55 -387 -233 -71 -69 -128 -125 -128 -123 0 1 45 94 100 206 113 228 130 275
130 363 0 113 -73 214 -181 248 -62 20 -121 20 -212 1z"/>
<path d="M3465 3371 c-83 -37 -144 -133 -180 -281 -35 -143 -23 -211 44 -253
31 -19 50 -22 131 -21 169 1 270 49 323 153 22 45 27 67 27 131 0 66 -4 86
-31 138 -62 126 -201 185 -314 133z"/>
<path d="M4855 2821 c-50 -21 -167 -181 -227 -308 -87 -185 -55 -339 78 -383
116 -39 309 73 383 221 38 77 55 157 48 239 -6 86 -17 106 -94 175 -60 53 -70
59 -117 62 -28 1 -60 -1 -71 -6z"/>
<path d="M4181 2466 c-46 -17 -105 -68 -125 -109 -21 -47 -20 -121 4 -198 32
-105 40 -149 26 -149 -6 0 -43 13 -82 30 -176 74 -338 52 -434 -58 -79 -89
-100 -167 -100 -367 0 -199 53 -431 119 -522 35 -48 115 -91 187 -99 129 -15
264 100 264 226 0 13 -14 80 -31 148 -17 67 -29 127 -27 132 3 10 33 -4 115
-55 123 -77 336 -23 438 111 86 113 90 239 16 551 -27 116 -59 229 -70 251
-23 45 -71 89 -118 109 -39 16 -136 16 -182 -1z"/>
<path d="M2910 2313 c-71 -15 -549 -245 -601 -290 -15 -12 -25 -12 -74 2 -98
29 -175 4 -273 -89 -106 -100 -127 -203 -60 -302 27 -40 108 -84 155 -84 28 0
34 -4 38 -27 4 -16 12 -55 20 -87 8 -33 12 -63 9 -67 -2 -4 -17 -10 -34 -14
-44 -10 -141 -77 -178 -124 -107 -135 -128 -349 -52 -518 115 -254 527 -534
785 -533 208 1 509 143 576 272 57 110 -29 253 -160 266 -67 6 -84 1 -166 -54
-152 -101 -219 -114 -351 -71 -134 44 -240 128 -298 236 -30 57 -40 141 -18
163 13 13 47 1 91 -33 57 -43 128 -90 158 -104 76 -35 175 -3 228 73 25 36 30
53 29 100 -1 74 -12 93 -94 173 -93 91 -133 171 -165 340 -9 46 -18 94 -21
106 -3 16 2 23 18 28 13 4 64 33 113 65 144 92 386 203 404 185 16 -17 -40
-163 -144 -370 -126 -253 -135 -286 -96 -363 24 -47 45 -66 101 -91 51 -23 79
-25 133 -10 72 20 102 59 202 263 165 338 210 498 188 655 -20 132 -81 229
-177 279 -44 23 -65 26 -156 28 -58 1 -116 0 -130 -3z"/>
</g>
</svg>
