<?xml version="1.0" standalone="no"?>
<!DOCTYPE svg PUBLIC "-//W3C//DTD SVG 20010904//EN"
 "http://www.w3.org/TR/2001/REC-SVG-20010904/DTD/svg10.dtd">
<svg version="1.0" xmlns="http://www.w3.org/2000/svg"
 width="600.000000pt" height="600.000000pt" viewBox="0 0 600.000000 600.000000"
 preserveAspectRatio="xMidYMid meet">
<metadata>
Created by potrace 1.15, written by Peter Selinger 2001-2017
</metadata>
<g transform="translate(0.000000,600.000000) scale(0.100000,-0.100000)"
fill="#16364b" stroke="none">
<path d="M1550 5762 c-31 -14 -356 -251 -383 -279 -40 -42 -49 -84 -29 -125
32 -62 102 -73 233 -38 41 11 150 40 243 65 187 48 205 59 206 126 0 55 -62
108 -111 94 -11 -3 -29 -8 -40 -11 -21 -6 -21 -5 -5 17 9 13 16 42 16 65 0 35
-5 47 -31 68 -30 25 -67 32 -99 18z"/>
<path d="M2368 5411 l-33 -29 -7 -169 c-16 -398 -89 -563 -295 -666 -82 -42
-93 -54 -100 -105 -4 -31 0 -44 22 -70 35 -41 84 -43 158 -6 223 113 333 256
390 509 24 108 41 319 32 420 -6 79 -10 92 -35 117 -39 39 -88 38 -132 -1z"/>
<path d="M3555 5341 c-26 -11 -49 -38 -65 -79 -48 -123 142 -372 285 -372 32
0 82 36 101 71 33 65 -8 185 -98 284 -63 70 -173 117 -223 96z"/>
<path d="M2992 5118 c-123 -60 -207 -284 -147 -387 32 -55 69 -76 128 -75 58
0 96 17 174 75 46 35 55 47 73 105 54 177 -2 304 -134 304 -32 0 -67 -8 -94
-22z"/>
<path d="M4730 4742 c-36 -37 -45 -91 -37 -241 8 -150 20 -212 57 -288 51
-104 128 -153 236 -153 157 1 232 141 175 327 -36 121 -123 233 -263 338 -75
56 -123 61 -168 17z"/>
<path d="M2642 4205 c-80 -41 -107 -88 -107 -184 0 -88 17 -131 73 -186 86
-83 254 -89 381 -13 56 34 142 109 162 142 36 59 14 153 -43 182 -82 43 -214
77 -313 81 -93 4 -103 3 -153 -22z"/>
<path d="M1079 4101 c-85 -67 -52 -204 56 -232 22 -5 64 -19 93 -31 99 -39 36
-46 -185 -22 -48 5 -54 4 -90 -29 -34 -32 -38 -40 -38 -86 0 -41 5 -55 29 -80
34 -36 63 -46 172 -61 259 -37 468 113 420 301 -24 92 -102 160 -251 220 -104
41 -171 48 -206 20z"/>
<path d="M4215 3757 c-111 -29 -190 -88 -232 -174 -23 -48 -27 -69 -27 -137 0
-95 21 -150 80 -215 51 -57 105 -83 184 -89 122 -8 214 39 287 146 51 75 62
109 72 227 10 104 1 147 -38 186 -53 52 -226 82 -326 56z m85 -287 c0 -15 -38
-50 -55 -50 -22 0 -18 27 7 44 26 18 48 21 48 6z"/>
<path d="M5204 3745 c-178 -39 -296 -161 -297 -308 0 -83 15 -133 63 -204 68
-101 164 -149 282 -141 190 14 317 159 305 348 -6 97 -32 156 -104 232 -86 90
-123 101 -249 73z m66 -314 c0 -24 -25 -45 -45 -37 -19 7 -19 21 1 40 21 22
44 20 44 -3z"/>
<path d="M1621 3704 c-26 -22 -31 -33 -31 -72 0 -53 39 -208 71 -283 46 -106
138 -142 201 -79 30 30 30 32 26 113 -5 94 -30 159 -100 258 -64 91 -112 110
-167 63z"/>
<path d="M3455 3376 c-64 -28 -209 -230 -222 -309 -5 -32 -1 -41 30 -72 44
-44 90 -47 165 -9 89 44 170 163 180 264 6 69 -3 95 -42 119 -38 24 -68 26
-111 7z"/>
<path d="M1845 3039 c-158 -28 -289 -64 -374 -105 -201 -95 -345 -253 -407
-449 -73 -231 -22 -456 139 -618 40 -39 109 -98 153 -130 115 -82 201 -170
301 -310 107 -150 147 -193 232 -256 245 -181 502 -204 834 -75 51 19 151 50
222 69 183 47 286 85 473 175 201 98 298 160 432 281 226 202 308 310 346 459
21 82 15 211 -14 293 -64 180 -264 372 -447 431 -89 28 -556 105 -645 106 -32
0 -119 17 -205 40 -225 61 -307 78 -468 95 -201 21 -433 19 -572 -6z m510
-374 c55 -8 136 -25 180 -38 275 -82 339 -99 429 -113 56 -8 153 -17 216 -20
63 -2 151 -10 195 -18 44 -8 115 -20 158 -25 100 -14 162 -46 226 -118 44 -49
51 -63 51 -99 0 -178 -349 -486 -689 -608 -74 -27 -323 -86 -361 -86 -12 0
-55 -16 -97 -36 -173 -81 -324 -110 -432 -84 -69 16 -152 80 -209 160 -91 129
-261 336 -328 401 -38 36 -99 85 -136 108 -115 72 -156 138 -145 232 19 156
139 248 422 320 157 40 346 49 520 24z"/>
<path d="M421 2186 c-28 -15 -50 -52 -51 -82 0 -39 105 -258 171 -355 87 -129
176 -189 277 -189 65 0 108 21 146 73 33 45 29 137 -9 205 -57 104 -170 201
-350 301 -112 63 -142 70 -184 47z"/>
<path d="M4805 1643 c-11 -3 -35 -16 -52 -29 -29 -22 -37 -24 -70 -15 -47 13
-101 0 -130 -31 -35 -38 -42 -85 -27 -184 31 -206 86 -301 177 -311 62 -7 109
11 155 61 47 51 77 125 97 243 29 164 16 220 -58 254 -43 19 -56 21 -92 12z"/>
</g>
</svg>
