<?xml version="1.0" standalone="no"?>
<!DOCTYPE svg PUBLIC "-//W3C//DTD SVG 20010904//EN"
 "http://www.w3.org/TR/2001/REC-SVG-20010904/DTD/svg10.dtd">
<svg version="1.0" xmlns="http://www.w3.org/2000/svg"
 width="600.000000pt" height="600.000000pt" viewBox="0 0 600.000000 600.000000"
 preserveAspectRatio="xMidYMid meet">
<metadata>
Created by potrace 1.15, written by Peter Selinger 2001-2017
</metadata>
<g transform="translate(0.000000,600.000000) scale(0.100000,-0.100000)"
fill="#16364b" stroke="none">
<path d="M2315 5451 c-42 -26 -57 -46 -92 -127 -70 -159 -67 -269 10 -349 64
-66 129 -82 269 -66 59 6 139 19 178 27 39 9 73 14 76 11 3 -3 -17 -36 -45
-74 -167 -228 -233 -340 -325 -548 -54 -120 -57 -133 -52 -185 3 -30 8 -79 10
-108 7 -83 47 -129 123 -139 39 -5 188 17 448 67 185 36 342 60 386 60 122 0
197 134 128 231 -35 49 -81 59 -221 48 -67 -5 -190 -21 -273 -35 -188 -32
-235 -38 -235 -30 0 28 141 271 264 456 114 170 157 264 158 342 1 71 -14 108
-63 157 -86 86 -170 94 -443 40 -134 -26 -130 -27 -106 21 25 49 26 115 1 156
-36 60 -136 83 -196 45z"/>
<path d="M1705 4994 c-136 -33 -394 -185 -519 -308 -85 -83 -88 -155 -11 -250
52 -63 93 -82 205 -91 122 -11 260 -42 327 -75 48 -24 74 -45 109 -92 69 -89
146 -112 214 -65 76 51 92 164 36 245 -76 110 -181 185 -317 228 -46 14 -95
29 -109 34 -24 7 -22 9 25 30 71 31 101 40 173 50 134 18 199 126 140 232 -42
75 -133 95 -273 62z"/>
<path d="M4045 4950 c-116 -17 -220 -62 -319 -138 -61 -46 -89 -92 -89 -146 0
-60 25 -100 78 -126 59 -28 100 -22 180 30 33 22 80 48 105 58 119 52 140 39
122 -76 -15 -102 -51 -211 -119 -355 -46 -98 -54 -123 -49 -153 8 -41 59 -102
92 -110 13 -3 24 -14 24 -23 0 -34 41 -82 87 -103 43 -19 54 -20 118 -10 181
28 395 45 442 36 l48 -9 3 -56 c3 -66 -18 -156 -85 -361 -41 -128 -44 -144
-34 -178 22 -74 115 -124 189 -102 21 7 48 23 61 36 23 25 82 198 128 376 33
128 41 286 19 362 -30 106 -120 191 -235 225 -74 22 -272 21 -405 -1 -54 -9
-101 -15 -103 -12 -3 2 12 47 31 100 60 160 80 255 80 391 1 116 0 123 -32
187 -49 101 -119 148 -237 160 -27 3 -72 2 -100 -2z"/>
<path d="M2085 3909 c-103 -42 -278 -77 -466 -94 -117 -10 -169 -56 -169 -150
0 -59 25 -106 72 -135 65 -40 268 -18 518 54 220 64 270 101 270 200 0 121
-99 176 -225 125z"/>
<path d="M3668 3706 c-110 -39 -466 -238 -505 -282 -50 -55 -42 -149 18 -206
35 -33 46 -38 87 -38 42 0 66 11 202 91 174 103 217 125 225 117 4 -3 -35
-108 -86 -233 -87 -216 -91 -231 -85 -282 4 -32 2 -53 -3 -53 -6 0 -22 -20
-36 -43 -52 -89 -24 -180 69 -226 47 -23 52 -24 122 -12 167 28 371 118 517
227 108 81 213 194 229 245 33 111 -77 205 -207 177 -34 -7 -59 -23 -98 -60
-29 -28 -70 -62 -92 -78 -45 -31 -169 -100 -178 -100 -8 0 11 48 77 204 126
295 129 457 8 541 -61 42 -166 47 -264 11z"/>
<path d="M2260 3336 c-190 -26 -223 -38 -263 -96 -21 -30 -23 -107 -3 -153 16
-40 66 -83 109 -95 21 -6 77 -3 167 9 74 10 157 19 184 19 l49 0 -7 -46 c-3
-25 -15 -66 -26 -91 -24 -54 -26 -123 -5 -162 30 -60 127 -78 205 -38 56 28
83 68 115 170 71 223 27 378 -128 456 -63 32 -74 34 -185 37 -64 2 -160 -3
-212 -10z"/>
<path d="M1191 3075 c-159 -50 -187 -257 -48 -352 26 -17 52 -33 58 -35 7 -2
11 -51 10 -148 -1 -329 23 -586 68 -738 16 -55 48 -97 91 -121 35 -19 53 -23
105 -19 78 5 135 40 165 102 24 50 25 93 5 160 -20 65 -19 67 11 56 72 -28
158 1 197 65 97 160 184 275 207 275 5 0 18 -21 31 -46 l22 -47 -27 -191 c-15
-105 -36 -238 -47 -295 -22 -119 -16 -161 28 -203 55 -52 119 -61 191 -27 82
40 102 105 132 432 24 262 25 290 2 341 -10 23 -24 64 -31 91 -30 124 -106
230 -187 261 -151 57 -358 -62 -504 -289 -30 -48 -58 -86 -62 -87 -5 0 -8 105
-8 233 0 127 -4 257 -9 287 -39 232 -205 356 -400 295z"/>
<path d="M4893 3044 c-101 -36 -162 -146 -149 -270 8 -76 6 -79 -109 -133
-294 -139 -437 -340 -438 -616 -1 -105 14 -176 55 -263 34 -72 114 -172 158
-198 33 -20 39 -34 15 -34 -24 0 -74 -28 -130 -73 l-50 -39 -75 5 c-41 4 -118
11 -170 18 -158 19 -298 -4 -430 -71 -120 -61 -308 -212 -385 -311 -24 -29
-57 -57 -81 -68 -23 -10 -65 -42 -95 -70 -65 -61 -125 -93 -191 -99 -107 -10
-232 88 -359 283 -81 125 -107 155 -154 176 -22 10 -63 19 -93 19 -136 0 -223
-116 -180 -241 26 -78 184 -293 290 -395 321 -311 623 -324 935 -41 32 29 74
60 94 69 20 9 58 43 85 75 133 158 248 249 353 280 47 13 79 14 206 7 232 -14
291 -10 385 21 138 46 251 150 266 246 8 49 -12 113 -48 154 -17 20 -29 37
-27 39 2 1 23 8 47 15 80 23 157 124 169 221 9 73 -4 117 -46 163 -50 55 -61
78 -61 126 0 79 23 100 220 202 130 67 217 145 260 233 85 172 75 407 -21 511
-64 69 -155 91 -246 59z"/>
<path d="M3335 2303 c-245 -32 -604 -113 -656 -147 -95 -63 -104 -224 -18
-303 31 -28 90 -53 128 -53 16 0 139 25 273 55 234 53 399 85 445 85 16 0 23
-8 28 -32 11 -52 43 -101 82 -128 53 -36 144 -35 200 2 62 41 87 101 87 213 1
75 -3 98 -23 138 -43 87 -119 143 -229 166 -50 10 -250 13 -317 4z"/>
</g>
</svg>
