<?xml version="1.0" standalone="no"?>
<!DOCTYPE svg PUBLIC "-//W3C//DTD SVG 20010904//EN"
 "http://www.w3.org/TR/2001/REC-SVG-20010904/DTD/svg10.dtd">
<svg version="1.0" xmlns="http://www.w3.org/2000/svg"
 width="600.000000pt" height="600.000000pt" viewBox="0 0 600.000000 600.000000"
 preserveAspectRatio="xMidYMid meet">
<metadata>
Created by potrace 1.15, written by Peter Selinger 2001-2017
</metadata>
<g transform="translate(0.000000,600.000000) scale(0.100000,-0.100000)"
fill="#16364b" stroke="none">
<path d="M2295 5627 c-116 -38 -234 -151 -283 -270 -52 -125 -66 -246 -64
-542 1 -143 -3 -314 -8 -380 -13 -156 -47 -830 -56 -1102 -4 -117 -11 -213
-15 -213 -4 0 -43 23 -86 52 -90 60 -195 161 -275 268 l-56 74 25 44 c20 34
23 46 14 55 -10 9 -18 5 -36 -18 l-24 -29 -3 69 c-4 101 -24 99 -62 -10 -6
-18 -9 -16 -29 15 -26 42 -39 52 -51 40 -7 -7 -6 -25 1 -52 6 -24 10 -44 8
-46 -2 -2 -15 4 -29 13 -24 16 -56 15 -56 -2 0 -4 27 -42 60 -83 33 -41 60
-79 60 -84 0 -20 136 -189 206 -256 74 -70 185 -148 292 -205 61 -33 58 -11
36 -258 -35 -395 9 -759 126 -1029 113 -262 254 -375 550 -442 l25 -5 1 -188
c1 -210 15 -313 64 -466 16 -52 30 -97 30 -100 0 -3 -35 -8 -77 -12 -138 -11
-193 -45 -193 -120 0 -36 48 -82 95 -91 125 -23 307 72 335 175 11 40 9 52
-15 120 -47 134 -65 204 -80 306 -15 102 -18 275 -6 330 6 26 11 30 36 28 17
-2 104 -9 195 -17 124 -11 238 -14 459 -9 l294 6 -7 -57 c-22 -173 2 -319 93
-565 36 -95 32 -105 -30 -95 -53 8 -149 -12 -176 -38 -50 -47 -35 -132 29
-159 43 -18 170 -16 226 5 24 8 57 25 74 37 34 25 67 89 68 132 0 15 -22 87
-49 160 -88 240 -112 376 -87 496 9 41 17 75 19 77 1 2 84 8 182 13 99 6 203
17 231 25 168 45 287 175 328 356 23 100 46 402 46 598 0 349 -50 532 -201
731 -34 45 -60 83 -58 85 2 1 33 13 69 25 102 36 275 128 358 191 97 73 176
154 241 250 41 59 49 77 38 85 -7 5 -16 18 -20 28 -8 21 -26 22 -54 2 -21 -15
-22 -14 -25 17 -4 45 -24 46 -50 2 -20 -34 -22 -35 -29 -15 -5 11 -16 21 -25
21 -14 0 -16 -8 -10 -62 l7 -61 -63 -61 c-114 -109 -284 -209 -443 -261 -132
-43 -110 -55 -360 198 -228 231 -318 306 -500 417 -195 119 -284 180 -345 237
-210 194 -338 541 -365 988 -18 288 -61 411 -191 538 -91 89 -226 127 -329 94z
m161 -166 c22 -10 58 -36 78 -57 72 -74 98 -151 121 -364 55 -509 169 -852
361 -1083 84 -101 149 -150 404 -306 184 -113 249 -165 446 -358 99 -98 232
-227 295 -288 168 -162 255 -295 301 -463 18 -65 22 -113 26 -312 6 -356 -20
-617 -72 -718 -41 -80 -132 -133 -256 -152 -119 -17 -957 -31 -1150 -19 -91 6
-176 14 -190 19 -14 5 -67 11 -117 15 -258 17 -437 115 -538 295 -126 223
-180 606 -140 995 13 128 17 252 16 500 0 182 4 409 9 505 5 96 14 267 20 380
6 113 18 288 26 390 9 102 13 214 10 250 -11 116 -7 392 8 487 22 145 74 230
168 277 62 31 117 33 174 7z"/>
<path d="M2610 2948 c-30 -11 -40 -25 -40 -61 0 -20 8 -32 33 -47 17 -11 36
-20 40 -20 17 0 57 51 57 73 0 41 -48 71 -90 55z"/>
<path d="M3200 2888 c-27 -29 -25 -44 9 -79 35 -34 49 -36 85 -8 30 24 35 69
10 93 -23 24 -79 20 -104 -6z"/>
<path d="M3050 1993 c-64 -9 -147 -12 -213 -9 -100 4 -108 3 -118 -16 -18 -34
3 -64 55 -77 64 -16 130 -14 332 9 101 12 196 18 221 14 50 -7 73 6 73 42 0
42 -34 54 -145 53 -55 -1 -147 -8 -205 -16z"/>
</g>
</svg>
