<?xml version="1.0" standalone="no"?>
<!DOCTYPE svg PUBLIC "-//W3C//DTD SVG 20010904//EN"
 "http://www.w3.org/TR/2001/REC-SVG-20010904/DTD/svg10.dtd">
<svg version="1.0" xmlns="http://www.w3.org/2000/svg"
 width="600.000000pt" height="600.000000pt" viewBox="0 0 600.000000 600.000000"
 preserveAspectRatio="xMidYMid meet">
<metadata>
Created by potrace 1.15, written by Peter Selinger 2001-2017
</metadata>
<g transform="translate(0.000000,600.000000) scale(0.100000,-0.100000)"
fill="#16364b" stroke="none">
<path d="M3078 5622 c-20 -9 -45 -28 -56 -42 -24 -32 -85 -177 -108 -254 -67
-236 54 -377 339 -395 l102 -6 -95 -64 c-195 -131 -523 -398 -547 -446 -21
-40 -19 -108 4 -144 61 -97 220 -168 528 -236 88 -20 214 -54 279 -76 136 -46
166 -46 221 2 48 42 62 97 40 154 -8 24 -24 50 -33 58 -34 31 -219 96 -387
137 -196 47 -235 59 -235 69 0 8 186 159 280 227 30 22 89 60 130 84 41 24
105 60 141 81 122 70 163 137 139 225 -15 53 -66 114 -123 147 -84 50 -163 69
-327 81 l-155 11 1 30 c1 17 21 72 44 123 48 106 48 139 3 193 -49 58 -117 73
-185 41z"/>
<path d="M1464 5364 c-142 -75 -282 -217 -401 -409 -198 -320 -240 -507 -136
-611 49 -49 78 -51 234 -9 133 35 361 85 387 85 8 0 -24 -71 -76 -172 -136
-263 -185 -400 -184 -525 0 -71 68 -133 145 -133 60 0 418 163 564 256 93 59
121 132 82 211 -52 104 -139 121 -266 52 l-75 -42 66 124 c76 144 101 227 93
314 -7 94 -40 144 -122 188 -57 31 -244 30 -404 -1 -62 -13 -115 -21 -117 -20
-2 2 21 44 51 93 91 152 195 261 314 328 68 39 91 75 91 147 0 130 -120 191
-246 124z"/>
<path d="M4558 4480 c-105 -26 -316 -107 -354 -136 -87 -65 -83 -213 6 -259
50 -26 101 -18 234 35 157 63 163 63 135 8 -33 -67 -144 -246 -199 -323 -131
-184 -150 -216 -150 -253 0 -48 29 -95 77 -125 21 -14 46 -33 56 -44 24 -27
57 -40 297 -118 113 -37 208 -70 213 -74 4 -4 -16 -45 -45 -92 -244 -398 -265
-449 -218 -527 43 -70 136 -93 200 -49 20 13 54 59 87 117 30 52 90 151 135
219 122 188 150 249 156 337 6 91 -12 145 -66 196 -53 52 -131 88 -339 154
-101 33 -183 62 -183 65 0 3 45 68 100 145 109 151 203 328 221 413 6 30 9 87
7 127 -5 82 -28 128 -86 172 -31 24 -45 27 -121 29 -58 2 -111 -4 -163 -17z"/>
<path d="M3769 3677 c-21 -14 -41 -41 -53 -70 -18 -42 -19 -54 -8 -104 22
-106 88 -173 169 -173 59 0 70 -22 47 -94 l-17 -55 -51 -6 c-75 -10 -193 -52
-257 -91 -65 -39 -160 -137 -189 -194 -57 -111 11 -240 126 -240 54 0 98 30
149 103 63 91 88 102 222 102 97 0 115 3 139 21 45 33 66 68 72 120 4 35 12
54 29 67 57 45 93 179 74 274 -19 96 -55 160 -131 234 -123 119 -243 159 -321
106z"/>
<path d="M2466 3614 c-80 -15 -270 -105 -330 -155 -66 -55 -84 -135 -47 -207
24 -47 72 -75 127 -74 32 0 61 11 116 44 111 67 193 98 257 98 l34 0 -7 -62
c-13 -129 -107 -365 -238 -602 -57 -102 -68 -171 -35 -217 9 -13 32 -47 52
-74 36 -54 79 -81 144 -91 31 -5 61 3 166 46 115 46 304 105 312 96 8 -7 -32
-97 -102 -232 -61 -117 -75 -154 -75 -190 0 -58 19 -103 61 -142 43 -41 89
-56 151 -50 82 8 110 40 210 234 111 215 138 292 145 409 4 77 2 99 -17 149
-30 79 -97 146 -173 175 -71 26 -215 29 -334 6 -43 -8 -79 -15 -80 -15 -1 0
14 37 33 83 88 202 118 327 112 460 -4 75 -9 102 -31 144 -50 96 -126 151
-242 172 -74 14 -122 13 -209 -5z"/>
<path d="M1130 3371 c-90 -30 -322 -195 -361 -257 -30 -49 -38 -138 -15 -182
23 -45 64 -79 115 -97 65 -22 93 -19 182 19 16 7 15 -2 -86 -474 -62 -288 -60
-473 6 -553 43 -52 80 -68 169 -74 119 -9 126 -3 278 210 72 100 160 232 198
292 69 112 194 288 213 299 5 4 17 -7 26 -24 13 -24 15 -47 10 -103 -9 -97
-40 -296 -70 -442 -58 -284 -70 -451 -40 -551 50 -170 239 -207 306 -60 24 54
24 90 -3 144 l-21 45 21 121 c11 67 37 199 56 293 68 327 78 493 48 773 -12
112 -23 151 -56 200 -40 61 -89 85 -171 85 -87 0 -135 -25 -222 -118 -63 -68
-199 -252 -292 -395 -30 -45 -56 -81 -58 -78 -2 2 16 88 41 192 59 247 67 299
67 408 1 144 -44 234 -144 294 -59 36 -146 50 -197 33z"/>
<path d="M4665 2251 c-68 -30 -135 -123 -135 -184 l0 -25 -222 -5 c-246 -6
-306 -16 -410 -68 -33 -17 -83 -53 -109 -80 -88 -91 -119 -190 -119 -386 0
-57 -3 -103 -8 -103 -4 0 -21 14 -37 32 -49 52 -144 107 -232 135 -103 31
-218 30 -296 -5 -101 -45 -216 -186 -315 -388 -27 -54 -53 -110 -57 -123 -12
-40 -22 -11 -49 144 -53 304 -109 474 -173 521 -34 25 -87 44 -122 44 -111 0
-211 -99 -211 -208 0 -13 13 -54 29 -90 49 -112 90 -270 130 -494 35 -198 92
-325 181 -400 70 -61 123 -81 226 -86 78 -4 96 -1 132 17 51 26 97 87 105 139
8 44 102 267 154 362 53 98 132 190 162 190 8 0 76 -60 151 -134 167 -165 209
-190 325 -190 75 -1 85 2 139 34 124 74 182 193 197 405 20 265 18 252 42 259
12 3 108 6 212 6 334 0 440 24 536 120 71 71 100 141 107 261 6 109 -13 178
-65 238 -20 24 -55 52 -77 62 -53 24 -139 24 -191 0z"/>
</g>
</svg>
