<?xml version="1.0" standalone="no"?>
<!DOCTYPE svg PUBLIC "-//W3C//DTD SVG 20010904//EN"
 "http://www.w3.org/TR/2001/REC-SVG-20010904/DTD/svg10.dtd">
<svg version="1.0" xmlns="http://www.w3.org/2000/svg"
 width="600.000000pt" height="600.000000pt" viewBox="0 0 600.000000 600.000000"
 preserveAspectRatio="xMidYMid meet">
<metadata>
Created by potrace 1.15, written by Peter Selinger 2001-2017
</metadata>
<g transform="translate(0.000000,600.000000) scale(0.100000,-0.100000)"
fill="#16364b" stroke="none">
<path d="M3112 5650 c-61 -37 -99 -170 -90 -314 7 -106 46 -192 116 -258 61
-58 101 -78 230 -118 56 -17 102 -33 102 -35 0 -2 -69 -45 -152 -96 -329 -200
-447 -288 -473 -351 -9 -23 -27 -55 -40 -70 -56 -66 -52 -156 8 -225 63 -72
96 -78 529 -98 l147 -7 42 40 c40 37 43 43 47 103 3 54 1 68 -18 92 -36 45
-76 60 -180 64 -134 5 -164 11 -151 27 18 21 194 136 356 231 83 49 172 109
199 134 109 102 114 208 17 314 -52 56 -133 96 -290 142 -202 59 -213 69 -193
186 17 97 15 134 -8 180 -39 75 -128 101 -198 59z"/>
<path d="M1334 5385 c-134 -67 -281 -234 -378 -429 -77 -153 -100 -242 -100
-386 -1 -93 3 -122 18 -153 39 -79 139 -111 205 -65 59 39 74 78 82 200 3 60
9 111 12 115 4 3 15 -5 26 -19 11 -13 38 -33 61 -43 38 -17 47 -18 103 -5 111
24 192 37 195 30 1 -4 -13 -48 -33 -98 -48 -125 -65 -195 -65 -269 0 -65 29
-161 55 -183 26 -21 17 -34 -61 -82 -61 -39 -79 -56 -95 -92 -33 -76 -3 -158
73 -197 54 -28 92 -21 177 30 99 60 187 97 313 132 149 41 188 77 188 174 0
128 -92 183 -232 140 -27 -8 -48 -10 -48 -6 0 5 -12 25 -26 46 -32 47 -31 53
37 240 62 169 68 244 29 333 -64 147 -225 186 -484 118 -54 -15 -101 -24 -104
-21 -6 6 41 74 88 127 19 22 66 60 104 86 83 56 109 98 103 161 -12 115 -132
173 -243 116z"/>
<path d="M4480 4500 c-30 -4 -70 -14 -87 -24 -38 -19 -73 -81 -73 -128 0 -52
39 -119 82 -141 36 -18 40 -18 147 -1 61 10 113 15 117 11 10 -10 -142 -208
-244 -317 -62 -67 -67 -151 -11 -215 40 -45 95 -62 148 -46 52 15 123 93 295
322 146 194 184 259 192 335 12 103 -69 181 -211 204 -67 11 -271 11 -355 0z"/>
<path d="M2509 3689 c-76 -11 -146 -39 -235 -95 -65 -40 -80 -54 -100 -98 -38
-81 -27 -153 29 -204 47 -44 95 -41 209 13 76 36 117 49 165 53 l63 5 0 -50
c0 -27 -7 -74 -16 -104 -16 -53 -154 -329 -263 -524 -49 -88 -56 -107 -56
-157 0 -43 5 -63 23 -87 12 -16 22 -40 22 -53 1 -67 68 -147 140 -169 47 -14
74 -8 225 54 61 25 143 55 184 66 l73 20 -6 -32 c-4 -18 -49 -117 -101 -220
-80 -159 -95 -195 -95 -235 1 -129 125 -233 241 -202 67 18 101 62 203 260
108 210 139 287 162 402 65 322 -179 488 -570 388 -44 -11 -81 -19 -82 -17 -2
2 26 54 62 117 156 275 190 369 182 505 -11 175 -97 296 -243 344 -74 24 -143
30 -216 20z"/>
<path d="M3864 3670 c-77 -39 -105 -131 -63 -216 42 -87 252 -255 353 -281 57
-15 108 -5 150 28 85 67 70 196 -28 240 -40 18 -41 19 -41 71 0 87 -37 122
-165 157 -94 26 -154 27 -206 1z"/>
<path d="M1085 3461 c-150 -54 -310 -166 -341 -238 -17 -39 -18 -111 -3 -150
13 -36 46 -71 83 -90 39 -20 141 -20 189 0 20 9 37 13 37 10 0 -3 -16 -56 -36
-117 -36 -111 -94 -342 -134 -531 -23 -107 -37 -310 -26 -369 14 -74 84 -126
199 -147 85 -16 132 -3 181 49 71 75 224 274 321 418 55 82 133 193 174 248
63 85 75 97 82 81 18 -46 2 -176 -81 -680 -65 -390 -63 -468 10 -557 70 -84
197 -72 246 24 19 36 20 107 4 138 -16 30 -9 82 51 380 95 471 100 501 102
620 2 129 -17 337 -38 406 -31 105 -112 161 -217 151 -114 -10 -205 -100 -463
-459 -54 -76 -100 -136 -102 -134 -2 1 20 81 48 177 80 273 99 357 106 460 10
157 -33 251 -138 304 -61 31 -177 34 -254 6z"/>
<path d="M4565 3336 c-17 -7 -44 -28 -59 -47 -24 -28 -28 -40 -24 -80 7 -69
33 -98 144 -154 54 -27 120 -67 146 -87 44 -35 46 -40 37 -66 -5 -15 -43 -73
-84 -127 -83 -110 -101 -153 -90 -211 9 -49 71 -114 111 -115 94 -4 114 10
216 147 114 153 142 217 143 319 0 65 -5 89 -24 125 -56 107 -148 183 -316
261 -99 45 -156 56 -200 35z"/>
<path d="M3684 3230 c-64 -13 -108 -35 -155 -77 -81 -73 -149 -210 -149 -301
0 -149 184 -209 273 -90 14 18 28 42 31 54 6 19 12 20 85 16 86 -5 134 6 193
44 106 68 102 230 -8 303 -65 43 -191 67 -270 51z"/>
<path d="M4552 2239 c-82 -41 -144 -149 -129 -225 2 -13 1 -26 -2 -29 -4 -2
-45 5 -92 16 -254 58 -493 19 -623 -101 -51 -48 -98 -134 -121 -225 -15 -62
-38 -469 -28 -516 4 -20 -1 -31 -18 -42 -27 -19 -28 -19 -115 59 -190 169
-268 230 -334 264 -196 99 -347 33 -464 -204 -24 -48 -46 -84 -49 -79 -3 5
-10 80 -17 168 -13 185 -42 343 -73 398 -67 120 -247 119 -332 -1 -26 -37 -30
-53 -30 -105 0 -34 8 -109 17 -167 10 -58 27 -176 38 -262 22 -166 54 -295 97
-387 38 -80 130 -169 223 -214 144 -71 266 -78 340 -18 58 47 74 84 75 175 1
60 10 110 34 194 19 61 37 112 42 112 9 0 164 -119 265 -203 38 -32 100 -74
138 -93 60 -29 78 -34 140 -33 87 0 140 20 208 79 49 42 87 105 88 145 0 14
13 25 46 39 129 53 152 113 170 439 l7 127 31 0 c17 0 74 -6 126 -14 306 -46
456 -23 569 85 24 24 57 71 75 108 30 64 31 69 31 211 0 144 0 145 -31 200
-18 32 -49 68 -73 85 -36 25 -53 30 -114 33 -58 2 -80 -1 -115 -19z"/>
</g>
</svg>
