<?xml version="1.0" standalone="no"?>
<!DOCTYPE svg PUBLIC "-//W3C//DTD SVG 20010904//EN"
 "http://www.w3.org/TR/2001/REC-SVG-20010904/DTD/svg10.dtd">
<svg version="1.0" xmlns="http://www.w3.org/2000/svg"
 width="600.000000pt" height="600.000000pt" viewBox="0 0 600.000000 600.000000"
 preserveAspectRatio="xMidYMid meet">
<metadata>
Created by potrace 1.15, written by Peter Selinger 2001-2017
</metadata>
<g transform="translate(0.000000,600.000000) scale(0.100000,-0.100000)"
fill="#16364b" stroke="none">
<path d="M2413 5383 c-17 -15 -22 -40 -32 -163 -30 -387 -122 -597 -306 -700
-78 -43 -95 -58 -95 -85 0 -31 34 -59 62 -52 32 9 139 75 194 121 146 123 254
444 254 758 0 99 -2 108 -22 122 -28 20 -31 20 -55 -1z"/>
<path d="M3529 5261 c-37 -37 -37 -63 2 -140 73 -145 210 -229 280 -172 51 41
16 156 -78 261 -76 84 -152 103 -204 51z"/>
<path d="M3037 5100 c-49 -15 -92 -56 -126 -119 -66 -124 -62 -237 10 -275 35
-19 38 -19 82 -2 90 34 197 182 197 272 0 87 -81 149 -163 124z m59 -114 c10
-25 -37 -115 -80 -153 l-41 -38 -3 34 c-5 47 23 115 59 146 34 28 57 32 65 11z"/>
<path d="M4795 4749 c-40 -20 -46 -46 -54 -228 -12 -289 7 -424 67 -471 54
-43 127 -8 151 72 29 95 8 381 -39 529 -23 75 -28 82 -57 98 -26 13 -41 13
-68 0z"/>
<path d="M2663 4216 c-58 -26 -78 -97 -46 -163 33 -71 190 -144 313 -147 123
-2 193 46 193 131 0 71 -14 80 -251 159 -95 32 -168 39 -209 20z"/>
<path d="M5255 3967 c-70 -19 -110 -42 -162 -93 -59 -59 -84 -121 -84 -205 0
-138 91 -273 210 -314 184 -62 402 63 457 262 38 139 -13 237 -171 328 -40 23
-64 29 -125 32 -41 1 -97 -3 -125 -10z m104 -278 c37 -13 39 -22 9 -43 -32
-23 -47 -20 -59 11 -8 23 -2 40 17 43 1 0 15 -5 33 -11z"/>
<path d="M1364 3914 c-55 -20 -120 -77 -146 -128 -13 -26 -23 -67 -26 -112 -4
-62 -1 -79 23 -132 33 -74 111 -152 187 -188 73 -33 92 -50 132 -118 51 -84
69 -139 138 -406 82 -319 86 -344 103 -585 16 -231 21 -266 66 -435 63 -233
113 -341 199 -428 84 -85 172 -129 375 -185 l50 -13 -85 -44 c-242 -122 -328
-236 -257 -341 28 -41 60 -58 142 -72 64 -11 192 0 439 39 54 8 101 13 103 10
3 -3 -22 -31 -56 -63 -55 -53 -61 -62 -61 -99 0 -87 89 -117 172 -58 54 37
118 154 118 215 0 50 -20 97 -54 129 -37 34 -115 37 -301 10 -82 -11 -195 -23
-250 -26 l-100 -5 33 29 c43 38 185 107 342 167 69 26 136 53 150 60 18 9 121
14 353 19 297 5 327 5 327 -10 0 -9 10 -34 22 -55 36 -64 153 -109 286 -109
40 0 42 -1 42 -30 0 -56 55 -90 147 -90 67 0 107 18 159 71 50 51 54 102 10
148 -38 39 -85 48 -285 55 -89 4 -170 11 -180 17 -12 7 -3 8 33 4 83 -11 428
37 621 86 391 99 582 232 714 496 124 247 128 447 16 718 -103 250 -273 367
-535 368 -176 0 -303 -45 -423 -151 -119 -105 -271 -160 -508 -183 -299 -29
-523 27 -727 181 -94 70 -266 246 -348 355 -34 44 -112 154 -174 245 -236 346
-329 431 -623 575 -151 74 -161 77 -240 81 -57 3 -95 -1 -123 -12z m266 -285
c69 -34 150 -79 180 -100 91 -62 212 -196 301 -334 15 -22 52 -80 84 -130 136
-213 372 -477 529 -592 123 -91 282 -160 471 -205 75 -18 119 -22 265 -22 342
1 610 77 786 224 111 93 212 128 328 115 121 -13 196 -71 265 -204 54 -105 71
-169 71 -270 -1 -150 -70 -302 -195 -427 -59 -59 -91 -81 -176 -122 -186 -90
-356 -135 -614 -162 -134 -14 -1017 -8 -1211 8 -252 21 -412 67 -499 143 -115
101 -198 349 -215 639 -14 229 -29 343 -71 510 -10 41 -34 153 -54 249 -55
262 -96 372 -180 481 -39 51 -65 70 -198 151 -76 46 -91 109 -25 109 20 0 82
-24 158 -61z"/>
<path d="M2335 2446 c-31 -31 -27 -59 13 -93 35 -30 56 -29 81 3 38 48 21 99
-36 110 -26 5 -37 1 -58 -20z"/>
<path d="M2800 2050 c-11 -11 -20 -29 -20 -40 0 -27 43 -70 69 -70 48 0 80 80
45 114 -22 22 -70 20 -94 -4z"/>
<path d="M4250 3753 c-49 -10 -146 -61 -178 -94 -60 -59 -85 -123 -86 -214 0
-67 4 -89 27 -137 70 -144 224 -197 362 -125 125 66 186 172 186 321 -1 144
-24 190 -111 228 -45 20 -153 31 -200 21z m60 -288 c0 -14 -8 -29 -21 -36 -32
-17 -43 3 -19 34 27 34 40 34 40 2z"/>
<path d="M3443 3368 c-35 -39 -153 -291 -153 -328 0 -11 11 -27 25 -36 23 -15
27 -15 50 0 57 38 171 231 181 309 6 39 3 46 -17 61 -32 22 -62 20 -86 -6z"/>
<path d="M472 2024 c-33 -23 -28 -58 13 -96 109 -99 214 -158 281 -158 47 0
64 14 64 51 0 36 -33 62 -177 142 -141 78 -152 81 -181 61z"/>
<path d="M5364 1111 c-17 -4 -36 -11 -43 -15 -24 -15 -54 -92 -59 -151 -7 -97
28 -147 104 -147 79 0 123 69 124 193 0 59 -4 82 -17 98 -21 24 -64 33 -109
22z"/>
</g>
</svg>
