<?xml version="1.0" standalone="no"?>
<!DOCTYPE svg PUBLIC "-//W3C//DTD SVG 20010904//EN"
 "http://www.w3.org/TR/2001/REC-SVG-20010904/DTD/svg10.dtd">
<svg version="1.0" xmlns="http://www.w3.org/2000/svg"
 width="600.000000pt" height="600.000000pt" viewBox="0 0 600.000000 600.000000"
 preserveAspectRatio="xMidYMid meet">
<metadata>
Created by potrace 1.15, written by Peter Selinger 2001-2017
</metadata>
<g transform="translate(0.000000,600.000000) scale(0.100000,-0.100000)"
fill="#16364b" stroke="none">
<path d="M1718 5798 c-60 -16 -92 -62 -136 -200 -65 -201 -77 -265 -77 -428 0
-136 2 -148 26 -195 54 -106 169 -139 277 -80 72 39 209 184 306 326 44 62 92
131 108 152 65 83 71 148 21 207 -53 63 -132 79 -194 37 -19 -12 -76 -78 -129
-146 -52 -67 -96 -118 -98 -112 -2 7 15 72 37 145 50 164 52 203 11 250 -17
18 -43 37 -58 40 -15 4 -34 8 -42 10 -8 2 -32 -1 -52 -6z"/>
<path d="M3095 5639 c-36 -11 -55 -26 -78 -59 -22 -32 -22 -107 1 -141 9 -15
87 -73 172 -130 176 -117 334 -264 388 -360 18 -31 32 -59 32 -62 0 -3 -21 -4
-47 -1 -65 7 -110 -19 -142 -79 -27 -52 -24 -90 9 -145 46 -75 213 -103 313
-52 134 68 194 240 136 394 -62 166 -237 344 -531 540 -150 100 -191 115 -253
95z"/>
<path d="M896 5439 c-64 -15 -156 -70 -211 -126 -105 -107 -154 -266 -121
-393 21 -83 68 -160 130 -217 63 -56 98 -74 145 -75 100 -1 178 102 151 202
-8 28 -25 51 -61 82 -81 68 -100 129 -59 196 32 52 74 72 153 72 113 0 170 40
170 120 0 91 -77 151 -193 149 -36 -1 -82 -5 -104 -10z"/>
<path d="M2967 5189 c-58 -14 -91 -34 -137 -86 -158 -178 -106 -395 104 -434
69 -13 190 3 253 32 70 33 89 111 62 255 -22 121 -79 198 -168 230 -41 15 -61
16 -114 3z"/>
<path d="M4765 4861 c-35 -15 -85 -73 -91 -109 -4 -19 -4 -76 0 -126 19 -252
103 -417 246 -485 104 -49 231 -30 301 46 85 91 90 247 11 383 -57 99 -192
214 -323 275 -54 25 -107 31 -144 16z"/>
<path d="M2083 4810 c-76 -14 -157 -47 -187 -77 -51 -51 -58 -142 -15 -197 46
-58 106 -69 199 -36 71 25 103 25 126 -1 30 -33 69 -49 118 -49 39 0 52 6 85
36 68 61 79 146 27 224 -52 79 -212 124 -353 100z"/>
<path d="M2835 4110 c-123 -30 -194 -114 -195 -228 0 -125 84 -214 240 -253
36 -9 111 -14 215 -14 136 1 178 5 283 28 72 16 136 36 153 48 73 51 85 160
27 234 -39 50 -299 153 -456 180 -89 16 -216 18 -267 5z"/>
<path d="M1041 4058 c-57 -13 -125 -80 -141 -139 -24 -88 18 -187 95 -223 31
-15 51 -17 118 -11 l81 7 -29 -38 c-39 -53 -113 -140 -219 -259 -122 -136
-196 -231 -279 -355 -83 -123 -94 -173 -59 -252 34 -79 132 -130 207 -109 19
5 60 7 92 4 65 -6 51 -14 276 148 64 47 141 100 171 117 l54 33 46 -31 c63
-43 76 -72 76 -168 0 -146 -67 -303 -214 -498 -93 -125 -181 -201 -240 -211
-70 -11 -136 -93 -136 -169 0 -36 40 -101 74 -119 26 -14 48 -17 102 -13 159
11 293 121 496 403 139 193 182 297 200 477 11 112 4 246 -18 324 -5 19 -1 22
46 26 58 6 96 29 125 79 17 29 20 51 20 154 -1 70 -6 136 -14 158 -36 104
-141 158 -251 127 -19 -5 -100 -47 -180 -94 -80 -46 -147 -82 -148 -81 -2 2
26 45 63 96 96 134 142 216 160 284 18 71 18 98 1 148 -34 94 -104 153 -212
181 -70 18 -290 20 -363 4z"/>
<path d="M4203 3765 c-137 -42 -257 -173 -281 -307 -45 -237 229 -409 457
-288 117 63 199 181 243 353 19 75 20 91 9 128 -20 65 -55 94 -138 113 -85 19
-231 20 -290 1z m97 -304 c0 -5 -12 -16 -26 -26 -34 -22 -56 -4 -23 19 26 18
49 21 49 7z"/>
<path d="M3397 3405 c-73 -38 -139 -116 -193 -230 -38 -77 -42 -120 -17 -172
24 -51 75 -80 156 -87 92 -9 142 6 193 58 55 55 85 136 91 246 5 99 -10 140
-66 177 -40 27 -120 31 -164 8z"/>
<path d="M5015 3223 c-53 -28 -133 -92 -184 -145 -96 -100 -137 -227 -107
-330 48 -166 203 -236 363 -164 69 31 148 106 181 172 49 97 55 241 13 322
-27 53 -95 128 -132 148 -37 18 -97 17 -134 -3z"/>
<path d="M3958 2531 c-83 -27 -142 -97 -154 -182 -5 -34 2 -73 25 -158 18 -63
30 -115 28 -117 -2 -3 -20 3 -40 11 -80 33 -177 12 -241 -51 -114 -115 -99
-312 56 -710 43 -111 80 -159 148 -194 47 -24 138 -27 178 -6 59 31 112 116
112 181 0 21 5 23 68 27 114 7 214 67 259 157 14 29 18 60 18 156 -1 118 -2
125 -73 380 -127 453 -119 435 -198 481 -48 28 -138 40 -186 25z"/>
<path d="M2065 2377 c-60 -20 -96 -41 -158 -91 -60 -50 -211 -230 -222 -268
-5 -13 -29 -54 -55 -93 -180 -269 -261 -532 -230 -752 26 -195 94 -364 192
-481 104 -124 275 -235 443 -288 90 -28 317 -26 438 4 187 47 306 112 418 228
183 191 215 233 279 366 46 95 139 373 177 528 34 141 31 287 -9 370 -38 81
-89 134 -166 172 -63 31 -73 33 -167 32 -93 -1 -110 -4 -250 -53 -82 -29 -158
-53 -169 -54 -14 -2 -23 10 -35 48 -25 76 -52 114 -147 204 -125 121 -235 162
-339 128z m135 -535 c28 -89 40 -111 83 -158 116 -127 162 -132 427 -46 240
78 269 87 277 78 11 -11 -33 -146 -114 -350 -85 -216 -116 -277 -182 -355
-108 -129 -177 -179 -292 -212 -62 -18 -234 -15 -286 4 -96 36 -221 136 -257
208 -90 176 -63 443 65 648 27 42 60 101 75 131 27 55 66 112 113 163 24 26
26 27 42 10 9 -10 31 -64 49 -121z"/>
</g>
</svg>
