<?xml version="1.0" standalone="no"?>
<!DOCTYPE svg PUBLIC "-//W3C//DTD SVG 20010904//EN"
 "http://www.w3.org/TR/2001/REC-SVG-20010904/DTD/svg10.dtd">
<svg version="1.0" xmlns="http://www.w3.org/2000/svg"
 width="600.000000pt" height="600.000000pt" viewBox="0 0 600.000000 600.000000"
 preserveAspectRatio="xMidYMid meet">
<metadata>
Created by potrace 1.15, written by Peter Selinger 2001-2017
</metadata>
<g transform="translate(0.000000,600.000000) scale(0.100000,-0.100000)"
fill="#16364b" stroke="none">
<path d="M1611 5802 c-19 -9 -43 -28 -52 -42 -21 -29 -81 -290 -105 -453 -33
-225 5 -354 123 -424 41 -24 59 -28 118 -27 79 0 99 9 163 68 99 91 352 522
352 600 0 44 -40 105 -88 133 -54 32 -121 28 -158 -8 -12 -13 -64 -105 -113
-204 -90 -178 -116 -223 -125 -214 -9 9 15 205 40 323 15 71 23 133 20 152 -8
42 -42 83 -82 100 -43 18 -52 18 -93 -4z"/>
<path d="M3185 5550 c-54 -22 -90 -96 -75 -151 16 -56 36 -74 171 -159 149
-93 196 -127 251 -178 41 -39 41 -52 0 -52 -67 0 -130 -78 -118 -148 7 -47 45
-84 119 -119 53 -24 75 -28 149 -28 81 0 88 2 125 31 108 86 114 253 13 404
-69 104 -163 182 -393 322 -118 73 -149 88 -182 87 -22 0 -49 -4 -60 -9z"/>
<path d="M908 5480 c-209 -37 -330 -170 -345 -380 -9 -131 33 -246 122 -336
76 -76 145 -95 214 -60 45 23 75 92 66 148 -5 31 -20 53 -60 93 -68 67 -77
104 -44 172 14 27 39 58 59 71 31 21 42 23 107 16 63 -5 76 -4 106 15 42 26
67 75 67 130 0 57 -44 105 -108 120 -74 16 -133 20 -184 11z"/>
<path d="M2937 5156 c-118 -43 -208 -208 -183 -339 10 -53 76 -122 142 -146
69 -26 134 -27 217 -1 120 37 155 89 142 208 -14 134 -69 226 -159 268 -57 27
-103 29 -159 10z"/>
<path d="M2274 4931 c-42 -25 -72 -66 -80 -107 -3 -18 -11 -37 -18 -42 -6 -5
-60 -29 -119 -52 -60 -24 -122 -54 -138 -67 -82 -70 -39 -219 69 -238 30 -5
59 2 142 35 167 65 196 80 244 129 113 115 124 297 20 346 -43 20 -82 19 -120
-4z"/>
<path d="M4759 4806 c-56 -38 -63 -66 -56 -234 4 -86 13 -172 22 -206 49 -177
160 -286 293 -286 98 0 179 52 233 152 32 58 34 69 34 153 0 75 -4 97 -23 134
-35 66 -107 137 -202 201 -170 115 -233 132 -301 86z"/>
<path d="M2818 4120 c-174 -30 -261 -190 -184 -339 57 -107 237 -166 436 -141
182 23 354 86 388 143 42 69 36 150 -15 199 -54 51 -255 117 -423 137 -94 12
-133 12 -202 1z"/>
<path d="M1025 4059 c-63 -24 -115 -94 -115 -156 1 -48 36 -110 78 -138 34
-22 58 -28 148 -36 60 -5 112 -13 116 -17 13 -13 -308 -316 -499 -470 -57 -46
-110 -96 -118 -112 -45 -87 -17 -186 65 -227 74 -38 120 -30 218 40 l43 31 30
-37 c16 -20 45 -42 64 -48 28 -10 35 -19 35 -39 0 -57 21 -99 66 -137 157
-130 184 -169 184 -271 0 -115 -103 -285 -214 -353 -42 -26 -64 -24 -110 11
-120 91 -274 -49 -196 -177 71 -117 261 -157 410 -87 145 68 357 344 406 527
28 106 8 217 -61 332 -44 73 -140 173 -215 223 -30 20 -59 40 -64 43 -9 8 100
82 181 122 26 14 78 35 115 47 l67 22 44 -21 c84 -41 184 -18 220 50 15 28 17
48 11 114 -7 94 -32 147 -80 170 -41 19 -117 19 -154 0 -16 -8 -62 -22 -102
-29 -40 -8 -86 -18 -103 -22 -28 -7 -27 -4 28 57 32 35 74 97 95 138 32 65 36
83 36 145 -1 153 -104 254 -296 291 -104 20 -296 28 -333 14z"/>
<path d="M4174 3764 c-86 -21 -162 -69 -201 -127 -40 -60 -53 -104 -53 -183 0
-118 48 -197 149 -247 59 -29 74 -32 156 -32 82 0 97 3 157 33 115 57 203 175
242 328 22 84 20 125 -7 165 -39 60 -83 73 -242 76 -98 2 -158 -2 -201 -13z
m97 -285 c-24 -20 -51 -25 -51 -10 0 12 21 28 45 33 30 7 33 -2 6 -23z"/>
<path d="M3438 3400 c-63 -19 -134 -103 -200 -236 -33 -68 -39 -89 -34 -118 7
-37 45 -89 78 -107 29 -16 118 -20 170 -8 102 23 179 158 178 313 -1 114 -90
187 -192 156z"/>
<path d="M5029 3303 c-100 -51 -189 -140 -231 -229 -29 -60 -33 -79 -32 -149
1 -127 50 -218 144 -269 45 -24 60 -28 114 -24 122 7 245 96 316 228 34 63 35
69 35 170 0 119 -8 141 -82 225 -87 97 -146 108 -264 48z"/>
<path d="M2172 2639 c-65 -25 -137 -94 -213 -204 -31 -44 -92 -114 -136 -155
-43 -41 -88 -88 -98 -105 -11 -16 -44 -57 -74 -90 -116 -128 -183 -261 -222
-445 -19 -88 -23 -138 -23 -305 -1 -180 1 -207 21 -270 57 -180 214 -335 468
-461 133 -66 225 -87 370 -87 258 0 460 93 661 306 98 105 154 189 224 342
196 423 237 744 121 935 -37 62 -123 140 -191 173 l-65 32 -173 0 -173 0 -39
77 c-72 145 -134 214 -231 257 -59 27 -156 27 -227 0z m137 -499 c47 -115 136
-200 233 -224 15 -3 71 0 125 8 169 25 242 29 258 16 50 -42 11 -274 -90 -530
-59 -152 -113 -236 -213 -338 -116 -119 -187 -154 -319 -160 -119 -6 -207 16
-305 73 -98 57 -158 112 -193 176 -29 52 -30 59 -30 174 1 142 17 210 80 340
32 66 63 112 119 173 42 45 76 86 76 92 0 5 27 40 61 77 34 37 82 98 106 136
25 37 49 67 53 67 3 0 21 -36 39 -80z"/>
<path d="M4070 2414 c-54 -19 -95 -55 -122 -109 -21 -39 -21 -94 -1 -204 5
-31 4 -33 -13 -26 -11 4 -46 10 -80 13 -48 3 -69 0 -101 -17 -46 -23 -89 -70
-111 -121 -20 -46 -18 -178 3 -261 36 -143 119 -396 137 -422 30 -43 88 -67
158 -67 71 0 118 21 169 74 31 32 41 36 84 36 70 0 121 18 167 58 89 76 105
166 71 388 -42 264 -92 518 -111 554 -25 49 -80 96 -127 109 -50 14 -69 13
-123 -5z"/>
</g>
</svg>
