<?xml version="1.0" standalone="no"?>
<!DOCTYPE svg PUBLIC "-//W3C//DTD SVG 20010904//EN"
 "http://www.w3.org/TR/2001/REC-SVG-20010904/DTD/svg10.dtd">
<svg version="1.0" xmlns="http://www.w3.org/2000/svg"
 width="600.000000pt" height="600.000000pt" viewBox="0 0 600.000000 600.000000"
 preserveAspectRatio="xMidYMid meet">
<metadata>
Created by potrace 1.15, written by Peter Selinger 2001-2017
</metadata>
<g transform="translate(0.000000,600.000000) scale(0.100000,-0.100000)"
fill="#16364b" stroke="none">
<path d="M2103 5686 c-510 -384 -606 -475 -633 -603 -21 -96 26 -185 116 -219
37 -14 66 -16 172 -11 173 7 294 35 477 107 44 17 138 54 209 81 160 61 188
78 211 128 42 94 -19 204 -121 218 -32 4 -79 -10 -256 -76 -119 -45 -225 -81
-235 -81 -24 1 3 23 234 197 200 150 219 173 210 249 -9 80 -82 144 -166 144
-36 0 -59 -14 -218 -134z"/>
<path d="M3054 5656 c-48 -21 -74 -62 -74 -113 0 -99 45 -135 210 -168 134
-27 205 -54 266 -99 97 -72 123 -162 88 -300 -37 -147 -121 -225 -322 -301
-57 -21 -78 -35 -97 -63 -50 -73 -23 -175 55 -214 47 -24 83 -23 168 6 303
103 471 311 497 616 22 259 -114 475 -360 571 -149 58 -372 92 -431 65z"/>
<path d="M912 5285 c-202 -99 -312 -257 -312 -445 1 -86 14 -141 56 -225 67
-135 221 -293 308 -316 78 -21 165 40 182 126 8 45 -12 110 -44 139 -15 13
-53 48 -84 76 -63 58 -108 135 -108 188 0 76 61 142 183 198 31 14 67 38 81
54 84 101 6 250 -131 250 -25 0 -71 -16 -131 -45z"/>
<path d="M4829 4957 c-58 -22 -117 -75 -135 -123 -19 -49 -14 -152 11 -278 21
-101 86 -226 146 -280 74 -66 111 -81 204 -81 69 0 86 4 125 27 114 67 164
190 136 328 -34 159 -144 297 -297 369 -99 47 -141 55 -190 38z"/>
<path d="M2660 4933 c-31 -16 -88 -61 -131 -103 -117 -117 -178 -260 -166
-390 16 -177 135 -303 337 -359 132 -37 212 -23 256 45 26 39 23 113 -6 153
-24 34 -89 70 -126 71 -11 0 -49 14 -83 31 -79 40 -102 79 -81 137 20 57 55
97 130 148 37 25 76 61 85 79 25 45 16 126 -16 161 -57 61 -116 69 -199 27z"/>
<path d="M1793 4411 c-107 -27 -252 -150 -288 -243 -21 -56 -9 -112 35 -162
40 -44 79 -60 140 -54 54 5 90 30 116 80 21 40 78 79 123 85 31 4 52 -1 92
-22 117 -61 239 0 239 120 0 74 -57 133 -169 176 -61 24 -229 35 -288 20z"/>
<path d="M2650 3844 c-14 -2 -67 -11 -118 -20 -76 -13 -100 -22 -127 -45 -80
-70 -58 -217 39 -263 40 -19 69 -20 201 -5 122 14 188 4 193 -28 5 -31 -57
-148 -127 -239 -32 -44 -140 -166 -239 -271 -121 -129 -184 -205 -192 -229
-37 -112 52 -221 164 -200 44 8 129 79 266 222 211 219 374 461 416 619 53
198 -35 371 -224 436 -55 19 -200 32 -252 23z"/>
<path d="M4249 3781 c-83 -12 -167 -41 -218 -76 -52 -35 -105 -108 -121 -163
-38 -137 26 -288 149 -355 139 -76 301 -44 431 87 74 75 88 95 151 218 56 112
62 156 26 209 -39 59 -94 79 -238 84 -68 2 -149 0 -180 -4z m17 -317 c-28 -24
-56 -29 -58 -9 -1 13 41 35 67 35 18 -1 17 -3 -9 -26z"/>
<path d="M1226 3719 c-52 -8 -59 -11 -206 -72 -165 -68 -178 -76 -205 -121
-49 -85 -22 -182 67 -242 54 -37 109 -48 162 -33 21 6 40 9 42 7 3 -4 -128
-270 -207 -418 -102 -191 -180 -448 -165 -543 17 -103 85 -168 186 -175 108
-8 101 -13 497 387 287 290 362 361 363 342 0 -13 -18 -94 -39 -180 -22 -86
-53 -226 -70 -312 -45 -222 -86 -351 -165 -519 -56 -118 -18 -218 95 -250 44
-13 98 2 131 37 31 33 175 351 217 479 15 49 38 148 50 219 24 141 85 416 101
454 16 35 13 257 -4 320 -32 118 -102 176 -211 174 -107 -1 -178 -48 -391
-255 l-145 -141 79 159 c103 212 135 307 136 404 0 186 -139 309 -318 279z"/>
<path d="M3516 3374 c-118 -43 -197 -168 -226 -358 -13 -90 -3 -140 37 -178
52 -48 90 -61 163 -55 248 21 419 192 381 379 -35 168 -202 268 -355 212z"/>
<path d="M4858 2660 c-137 -56 -248 -145 -294 -237 -16 -32 -30 -60 -31 -61
-1 -2 -18 8 -39 22 -60 41 -129 52 -198 32 -60 -18 -126 -69 -151 -117 -32
-61 -36 -113 -16 -211 11 -51 18 -95 16 -97 -2 -2 -46 8 -97 23 -130 36 -219
43 -293 21 -189 -55 -281 -232 -246 -476 25 -170 70 -399 85 -427 26 -50 104
-111 164 -128 95 -28 170 -3 235 79 46 56 47 121 7 298 -17 77 -30 142 -28
144 5 5 86 -25 144 -54 64 -31 112 -35 185 -15 256 70 343 211 325 527 l-7
118 42 -22 c60 -30 143 -36 210 -14 91 31 185 144 228 276 19 59 29 171 18
204 -21 64 -118 136 -183 134 -16 0 -50 -9 -76 -19z"/>
<path d="M2950 2409 c-95 -16 -240 -70 -385 -144 -244 -124 -285 -161 -285
-261 l0 -49 -55 3 c-97 6 -215 -51 -273 -132 -37 -53 -41 -136 -10 -191 31
-53 93 -94 153 -103 l49 -7 26 -105 c15 -58 30 -115 34 -127 6 -18 0 -26 -37
-48 -60 -34 -143 -124 -170 -182 -32 -69 -31 -234 2 -313 52 -127 195 -305
303 -378 66 -46 188 -105 293 -142 80 -29 102 -33 200 -33 122 -1 189 13 311
64 154 64 207 121 206 224 -1 83 -46 149 -127 186 -67 31 -114 25 -240 -31
-122 -54 -171 -63 -241 -40 -68 22 -148 67 -197 111 -48 42 -147 164 -147 180
0 20 25 6 78 -45 73 -68 89 -76 155 -76 140 0 270 175 227 306 -8 25 -39 63
-85 109 -87 85 -118 145 -208 405 -35 102 -67 193 -71 202 -6 13 -2 18 21 23
15 3 114 48 218 100 185 91 261 122 272 112 13 -14 -98 -326 -167 -467 -38
-78 -41 -90 -37 -144 9 -106 81 -176 181 -176 57 0 119 31 153 78 88 120 239
471 279 648 50 228 -53 405 -261 443 -66 12 -87 12 -165 0z"/>
</g>
</svg>
