<?xml version="1.0" standalone="no"?>
<!DOCTYPE svg PUBLIC "-//W3C//DTD SVG 20010904//EN"
 "http://www.w3.org/TR/2001/REC-SVG-20010904/DTD/svg10.dtd">
<svg version="1.0" xmlns="http://www.w3.org/2000/svg"
 width="600.000000pt" height="600.000000pt" viewBox="0 0 600.000000 600.000000"
 preserveAspectRatio="xMidYMid meet">
<metadata>
Created by potrace 1.15, written by Peter Selinger 2001-2017
</metadata>
<g transform="translate(0.000000,600.000000) scale(0.100000,-0.100000)"
fill="#16364b" stroke="none">
<path d="M2358 5415 c-31 -17 -52 -72 -45 -118 2 -17 1 -104 -4 -192 -16 -311
-79 -446 -257 -548 -107 -62 -131 -120 -73 -178 38 -38 75 -38 154 2 202 102
299 256 342 544 17 115 20 426 5 456 -11 20 -60 49 -82 49 -7 -1 -25 -7 -40
-15z"/>
<path d="M3540 5300 c-34 -8 -70 -65 -70 -109 0 -49 50 -150 101 -206 61 -66
121 -99 182 -99 43 0 53 4 78 32 21 24 29 42 29 70 -1 83 -107 244 -190 287
-40 20 -101 32 -130 25z"/>
<path d="M2972 5094 c-150 -75 -212 -283 -112 -379 44 -42 127 -47 197 -12 78
40 110 72 133 135 30 79 31 167 2 214 -43 70 -131 87 -220 42z m54 -209 c-9
-14 -21 -25 -26 -25 -17 0 -11 26 12 56 19 24 23 25 26 11 2 -10 -4 -29 -12
-42z"/>
<path d="M4774 4783 c-12 -2 -34 -17 -50 -34 -26 -27 -28 -36 -32 -123 -8
-183 32 -395 93 -488 59 -90 164 -124 235 -76 72 49 103 125 102 248 -1 101
-30 190 -90 276 -52 74 -174 194 -197 194 -7 0 -19 2 -27 4 -7 2 -23 1 -34 -1z"/>
<path d="M2662 4211 c-61 -21 -96 -51 -123 -103 -36 -70 -18 -143 50 -209 127
-123 365 -114 512 18 71 64 87 128 49 191 -26 42 -104 75 -255 107 -93 20
-169 18 -233 -4z"/>
<path d="M1110 4123 c-25 -23 -33 -39 -37 -78 -3 -28 -12 -54 -20 -59 -23 -13
-43 -71 -37 -103 14 -73 119 -170 209 -194 88 -24 194 12 245 83 24 33 30 51
30 95 0 102 -55 167 -196 235 -113 54 -152 59 -194 21z"/>
<path d="M5237 3869 c-91 -21 -173 -84 -215 -163 -23 -44 -27 -63 -27 -141 0
-72 5 -100 23 -139 36 -79 86 -132 157 -167 60 -29 70 -31 143 -27 100 6 187
45 254 113 69 70 98 134 98 214 0 114 -51 192 -180 279 -61 41 -66 42 -139 41
-42 -1 -93 -5 -114 -10z m113 -299 c12 -7 12 -13 4 -27 -15 -24 -52 -29 -60
-9 -14 37 20 59 56 36z"/>
<path d="M4217 3780 c-106 -27 -201 -104 -246 -199 -22 -47 -26 -70 -26 -146
0 -81 3 -95 29 -143 114 -205 391 -202 525 6 55 85 73 154 75 274 1 129 -10
151 -98 186 -65 26 -197 37 -259 22z m63 -299 c0 -16 -41 -61 -56 -61 -20 0
-17 27 6 50 20 20 50 27 50 11z"/>
<path d="M3396 3327 c-28 -28 -75 -95 -103 -148 -67 -120 -70 -165 -12 -194
15 -8 37 -15 49 -15 93 0 236 173 247 300 5 53 3 61 -20 84 -20 20 -36 26 -68
26 -39 0 -48 -5 -93 -53z"/>
<path d="M1460 3184 c-266 -32 -399 -81 -508 -187 -52 -51 -108 -161 -123
-242 -29 -158 36 -334 169 -463 64 -61 143 -102 265 -137 124 -36 174 -64 243
-137 71 -76 124 -175 189 -353 57 -156 93 -230 151 -311 91 -129 215 -215 360
-251 136 -34 708 -17 1064 32 102 14 244 29 315 35 268 21 388 45 533 108 139
60 313 190 478 358 153 156 228 367 228 649 1 196 -50 304 -217 460 -165 156
-342 212 -553 174 -97 -17 -149 -37 -344 -129 -102 -48 -209 -95 -237 -105
-67 -21 -271 -29 -373 -14 -175 26 -375 112 -600 260 -153 100 -229 138 -351
177 -174 56 -277 72 -474 77 -99 2 -196 1 -215 -1z m427 -389 c51 -8 129 -28
173 -44 81 -30 98 -40 305 -183 261 -180 497 -270 853 -325 39 -6 203 20 332
54 130 33 238 79 383 161 136 77 173 92 227 92 86 0 257 -126 279 -205 26 -94
9 -210 -49 -331 -42 -88 -91 -140 -258 -274 -130 -105 -245 -156 -411 -184
-193 -33 -426 -49 -731 -51 -168 -1 -363 -5 -435 -9 -335 -19 -413 28 -515
309 -55 152 -100 257 -141 327 -116 199 -312 348 -535 409 -94 25 -126 42
-148 79 -35 59 -8 116 68 145 109 42 431 58 603 30z"/>
<path d="M436 2105 c-39 -37 -34 -74 28 -201 88 -179 144 -238 254 -270 68
-20 118 -8 155 36 71 84 24 204 -121 310 -101 73 -235 150 -263 150 -14 0 -38
-11 -53 -25z"/>
<path d="M5098 1325 c-16 -9 -28 -20 -28 -25 0 -6 -10 -10 -22 -10 -34 0 -87
-36 -99 -68 -30 -77 23 -237 91 -274 69 -38 144 -9 189 72 21 37 25 61 29 150
4 101 3 107 -20 134 -29 35 -98 45 -140 21z"/>
</g>
</svg>
