<?xml version="1.0" standalone="no"?>
<!DOCTYPE svg PUBLIC "-//W3C//DTD SVG 20010904//EN"
 "http://www.w3.org/TR/2001/REC-SVG-20010904/DTD/svg10.dtd">
<svg version="1.0" xmlns="http://www.w3.org/2000/svg"
 width="600.000000pt" height="600.000000pt" viewBox="0 0 600.000000 600.000000"
 preserveAspectRatio="xMidYMid meet">
<metadata>
Created by potrace 1.15, written by Peter Selinger 2001-2017
</metadata>
<g transform="translate(0.000000,600.000000) scale(0.100000,-0.100000)"
fill="#16364b" stroke="none">
<path d="M3145 5656 c-75 -32 -125 -148 -125 -287 0 -190 101 -302 339 -375
172 -53 163 -46 111 -79 -24 -15 -99 -57 -165 -93 -248 -132 -445 -281 -461
-347 -4 -16 -20 -45 -35 -62 -64 -74 -60 -166 10 -233 53 -51 99 -61 300 -65
97 -3 214 -7 261 -10 76 -5 90 -4 129 17 102 54 107 179 11 250 -26 19 -135
37 -227 38 -29 0 -53 4 -53 9 0 9 100 74 295 191 239 144 335 248 335 363 -1
131 -122 230 -355 291 -55 15 -120 37 -145 49 l-45 22 1 60 c1 33 5 86 9 117
7 49 5 61 -14 91 -13 22 -37 41 -61 51 -48 19 -75 20 -115 2z"/>
<path d="M1352 5385 c-93 -28 -259 -178 -346 -312 -89 -137 -137 -270 -156
-427 -20 -169 0 -256 73 -310 39 -29 115 -29 154 0 51 38 67 79 74 193 10 148
36 224 53 156 3 -13 22 -36 41 -51 45 -34 97 -36 217 -9 48 11 90 16 94 13 3
-4 -14 -56 -39 -115 -89 -212 -87 -319 9 -433 29 -34 29 -34 -21 -62 -152 -84
-195 -161 -145 -262 27 -56 79 -89 138 -90 40 -1 61 7 134 52 108 66 272 144
360 172 130 41 177 142 113 241 -41 64 -120 83 -222 53 -17 -5 -24 1 -38 29
-9 19 -25 43 -36 53 -10 9 -19 23 -19 30 0 7 23 81 52 166 45 135 52 163 52
238 1 70 -3 92 -22 128 -27 51 -84 94 -147 112 -85 24 -307 -5 -439 -56 -16
-6 -14 1 11 37 49 70 104 127 163 168 70 48 100 91 100 145 0 102 -103 172
-208 141z"/>
<path d="M4531 4494 c-79 -9 -134 -20 -153 -31 -77 -45 -91 -163 -28 -229 45
-46 88 -56 181 -44 41 5 89 10 107 10 28 0 31 -2 23 -17 -6 -10 -67 -76 -137
-148 -70 -71 -135 -143 -146 -160 -44 -72 -9 -164 74 -199 41 -17 53 -18 88
-7 52 15 92 52 244 221 206 229 240 275 260 354 13 48 13 64 1 108 -16 63 -81
130 -141 147 -51 14 -218 12 -373 -5z"/>
<path d="M3860 3688 c-94 -48 -115 -167 -48 -270 68 -107 256 -250 345 -264
55 -8 128 26 161 76 48 72 14 180 -69 217 -39 17 -40 18 -34 55 8 44 -21 113
-58 139 -34 25 -171 69 -214 69 -21 0 -59 -10 -83 -22z"/>
<path d="M2521 3690 c-125 -26 -295 -104 -339 -154 -67 -77 -45 -189 48 -236
55 -28 110 -25 190 10 80 35 181 63 213 58 49 -7 25 -144 -51 -289 -22 -41
-86 -153 -143 -249 -154 -261 -161 -277 -156 -329 3 -23 14 -56 26 -72 12 -15
21 -42 21 -59 0 -73 64 -149 142 -170 49 -14 89 -2 263 78 119 54 212 85 219
73 6 -9 -78 -219 -139 -346 -67 -139 -65 -213 9 -293 73 -81 238 -84 307 -6
47 53 165 328 205 479 65 245 46 394 -62 483 -93 77 -289 97 -471 49 -51 -13
-93 -22 -93 -20 0 2 28 52 62 111 139 242 182 368 183 542 0 106 -2 119 -28
172 -52 106 -153 167 -285 174 -42 1 -97 -1 -121 -6z"/>
<path d="M1139 3489 c-113 -26 -354 -173 -382 -232 -42 -87 -4 -222 79 -280
56 -39 109 -45 168 -18 42 18 47 19 42 3 -3 -9 -31 -96 -61 -192 -110 -347
-150 -548 -143 -721 3 -76 6 -90 31 -122 38 -50 70 -65 158 -73 107 -9 126 1
250 142 57 66 143 163 192 218 48 54 140 167 204 250 141 185 132 174 143 156
18 -29 9 -117 -35 -340 -48 -240 -105 -627 -105 -713 0 -136 76 -237 177 -237
111 0 184 99 148 202 -8 23 -15 57 -15 75 0 74 44 363 90 594 28 136 53 290
56 341 8 120 -11 380 -31 438 -54 158 -224 192 -365 73 -49 -41 -219 -241
-328 -385 -52 -71 -97 -126 -99 -124 -3 2 17 80 43 173 119 428 130 493 100
597 -39 133 -176 209 -317 175z"/>
<path d="M4545 3318 c-64 -35 -91 -93 -75 -162 13 -58 52 -90 194 -160 72 -35
141 -75 153 -88 l23 -24 -25 -50 c-14 -27 -52 -82 -85 -123 -71 -88 -85 -124
-71 -179 26 -93 126 -139 209 -94 47 25 157 164 203 257 74 150 75 264 2 362
-52 70 -115 115 -277 199 -149 77 -201 90 -251 62z"/>
<path d="M3650 3202 c-112 -37 -202 -118 -250 -225 -41 -92 -45 -119 -22 -170
26 -58 71 -89 136 -95 71 -6 123 20 154 75 22 41 23 41 60 31 75 -21 200 9
243 58 65 75 64 190 -4 262 -65 71 -210 100 -317 64z"/>
<path d="M4590 2251 c-108 -33 -173 -118 -175 -228 0 -34 -3 -65 -6 -67 -3 -3
-72 6 -155 20 -196 33 -313 31 -397 -8 -118 -56 -209 -173 -236 -308 -12 -59
-33 -494 -25 -515 3 -7 -11 -22 -32 -34 l-36 -22 -37 28 c-20 15 -63 50 -97
78 -213 175 -281 221 -380 255 -196 68 -355 -20 -415 -230 -26 -91 -27 -87
-59 150 -25 188 -48 306 -66 341 -20 40 -80 87 -119 95 -90 17 -178 -25 -215
-101 -25 -53 -24 -79 9 -235 11 -52 25 -149 31 -215 28 -309 81 -472 185 -576
130 -130 338 -205 431 -156 37 19 77 62 100 107 13 26 17 55 16 115 -1 79 31
271 49 289 5 6 17 2 31 -11 66 -60 324 -244 379 -271 93 -45 174 -57 252 -37
71 18 154 69 191 117 13 18 31 55 37 81 11 39 18 49 44 57 71 23 137 93 156
165 6 22 14 119 18 215 l6 175 50 -3 c28 -1 90 -10 139 -19 127 -23 329 -14
409 17 168 66 243 219 218 443 -15 138 -27 174 -82 229 -61 61 -140 83 -219
59z"/>
</g>
</svg>
