<?xml version="1.0" standalone="no"?>
<!DOCTYPE svg PUBLIC "-//W3C//DTD SVG 20010904//EN"
 "http://www.w3.org/TR/2001/REC-SVG-20010904/DTD/svg10.dtd">
<svg version="1.0" xmlns="http://www.w3.org/2000/svg"
 width="600.000000pt" height="600.000000pt" viewBox="0 0 600.000000 600.000000"
 preserveAspectRatio="xMidYMid meet">
<metadata>
Created by potrace 1.15, written by Peter Selinger 2001-2017
</metadata>
<g transform="translate(0.000000,600.000000) scale(0.100000,-0.100000)"
fill="#16364b" stroke="none">
<path d="M2230 5441 c-42 -22 -73 -80 -95 -173 -18 -81 -18 -121 -1 -171 53
-148 176 -197 422 -167 58 7 108 9 111 6 3 -3 -35 -70 -84 -149 -50 -78 -127
-217 -173 -307 -77 -156 -82 -168 -78 -218 5 -61 39 -104 95 -123 18 -6 33
-13 33 -15 0 -3 -10 -18 -22 -34 -43 -59 -20 -159 48 -201 40 -25 96 -24 170
1 94 33 323 95 517 140 152 36 184 46 213 72 69 60 68 156 -1 217 -29 25 -44
31 -84 31 -70 0 -442 -88 -624 -147 -43 -14 -80 -23 -81 -22 -2 2 13 45 34 96
42 106 97 203 218 388 116 177 146 242 150 331 5 84 -14 130 -77 187 -74 66
-187 82 -385 52 -125 -19 -117 -20 -106 11 51 132 -80 260 -200 195z"/>
<path d="M3815 5124 c-106 -24 -210 -70 -245 -110 -78 -89 -2 -236 122 -236
25 1 67 12 100 27 32 15 82 29 112 32 51 5 53 4 60 -21 14 -57 -27 -211 -105
-393 -36 -84 -17 -154 54 -207 39 -28 121 -29 159 -1 45 33 139 266 173 425
20 93 19 234 0 291 -56 162 -227 238 -430 193z"/>
<path d="M1735 4920 c-55 -9 -129 -25 -164 -34 -163 -43 -380 -167 -407 -232
-30 -70 -6 -160 54 -203 17 -11 32 -34 35 -50 8 -37 58 -95 94 -109 16 -6 94
-20 175 -32 181 -25 279 -56 376 -120 66 -43 83 -50 127 -50 59 0 107 25 128
67 42 83 28 146 -48 218 -89 86 -190 132 -368 169 -59 12 -109 26 -110 31 -4
16 133 56 219 65 93 10 130 25 168 70 50 61 49 147 -4 191 -53 44 -112 49
-275 19z"/>
<path d="M4330 4241 c-80 -10 -136 -23 -153 -34 -41 -27 -60 -72 -55 -132 5
-63 33 -106 85 -130 39 -19 43 -19 278 5 111 12 188 6 210 -17 32 -32 10 -165
-60 -373 -40 -116 -44 -136 -35 -169 14 -54 59 -92 114 -98 96 -11 153 31 185
135 65 214 84 315 85 437 1 110 -1 125 -25 176 -91 193 -264 248 -629 200z"/>
<path d="M2075 3885 c-102 -30 -261 -60 -448 -83 -85 -11 -134 -39 -162 -92
-35 -68 -6 -156 65 -193 71 -37 358 -5 610 69 68 19 136 42 151 50 114 58 125
210 19 264 -53 27 -104 24 -235 -15z"/>
<path d="M3714 3756 c-54 -17 -147 -65 -279 -144 -60 -36 -160 -88 -221 -117
-66 -31 -119 -63 -132 -80 -86 -110 23 -256 161 -215 49 14 311 144 383 188
27 17 50 28 52 23 3 -10 -50 -137 -82 -194 -46 -83 -43 -149 12 -199 57 -53
134 -56 197 -6 34 27 101 164 151 313 34 100 38 120 38 220 1 125 -9 153 -71
195 -43 29 -145 37 -209 16z"/>
<path d="M2163 3285 c-76 -8 -132 -19 -150 -30 -39 -23 -71 -72 -78 -120 -8
-52 26 -120 75 -153 34 -23 36 -23 239 -16 l204 7 -7 -34 c-19 -104 -17 -143
6 -184 30 -50 89 -85 146 -85 85 0 125 47 158 185 31 132 4 252 -76 339 -90
97 -225 121 -517 91z"/>
<path d="M4927 3186 c-70 -19 -127 -63 -156 -121 -24 -45 -26 -59 -24 -155 2
-71 -1 -110 -10 -121 -6 -8 -46 -41 -87 -73 -41 -32 -110 -89 -152 -127 -66
-60 -84 -84 -123 -162 -54 -110 -76 -207 -76 -338 0 -212 80 -369 210 -414 57
-19 86 -19 146 1 67 24 120 80 141 150 19 68 14 115 -22 187 -21 41 -25 60
-21 98 10 85 35 118 159 206 185 132 256 225 298 387 39 155 33 325 -14 396
-48 73 -173 113 -269 86z"/>
<path d="M4226 3155 c-16 -8 -47 -34 -69 -56 -57 -57 -106 -89 -234 -153 -125
-63 -222 -97 -338 -121 -117 -23 -164 -65 -172 -152 -7 -81 40 -145 120 -162
87 -20 373 51 532 133 158 81 348 240 376 313 26 70 -1 155 -63 193 -40 24
-111 26 -152 5z"/>
<path d="M1208 3030 c-56 -30 -91 -82 -96 -145 -6 -73 11 -118 63 -163 43 -38
44 -41 54 -123 6 -46 15 -174 21 -284 19 -358 64 -548 147 -627 97 -92 231
-63 286 61 25 56 24 117 -1 208 -11 39 -23 102 -26 140 -4 48 -3 58 3 34 20
-75 82 -123 160 -123 59 0 102 21 138 69 110 149 203 220 203 157 0 -9 14 -30
31 -47 l31 -31 -31 -100 c-59 -195 -66 -238 -66 -423 0 -158 2 -174 21 -199
41 -55 70 -69 144 -69 81 0 113 18 146 82 19 38 21 53 16 187 -5 162 2 219 50
367 36 109 34 149 -10 201 -22 26 -27 42 -28 87 -1 94 -71 204 -156 244 -20 9
-59 22 -88 29 -195 45 -480 -145 -566 -377 -9 -25 -19 59 -33 296 -13 206 -30
307 -67 390 -64 141 -232 219 -346 159z"/>
<path d="M3317 2224 c-65 -8 -178 -30 -250 -49 -73 -20 -170 -44 -216 -56
-138 -34 -191 -84 -199 -189 -8 -106 58 -194 155 -207 24 -3 101 9 203 30 150
33 559 97 613 97 13 0 33 -13 49 -33 68 -86 215 -91 301 -9 69 65 90 169 49
248 -26 51 -91 110 -149 136 -111 49 -315 61 -556 32z"/>
<path d="M4485 1584 c-16 -8 -48 -36 -69 -61 -60 -69 -81 -75 -326 -84 -118
-4 -235 -13 -260 -19 -125 -30 -265 -104 -412 -216 -85 -66 -216 -191 -223
-215 -4 -10 -12 -19 -18 -19 -39 0 -94 -27 -139 -67 -132 -117 -246 -122 -402
-18 -63 42 -174 147 -249 238 -53 63 -82 81 -152 97 -134 30 -251 -80 -230
-217 19 -130 312 -417 519 -508 145 -64 282 -85 401 -60 137 28 368 155 427
235 15 22 34 32 61 37 44 7 94 39 200 133 174 152 309 200 558 200 219 0 357
54 501 196 73 72 97 136 78 213 -13 57 -56 112 -104 135 -43 20 -122 21 -161
0z"/>
</g>
</svg>
