<?xml version="1.0" standalone="no"?>
<!DOCTYPE svg PUBLIC "-//W3C//DTD SVG 20010904//EN"
 "http://www.w3.org/TR/2001/REC-SVG-20010904/DTD/svg10.dtd">
<svg version="1.0" xmlns="http://www.w3.org/2000/svg"
 width="600.000000pt" height="600.000000pt" viewBox="0 0 600.000000 600.000000"
 preserveAspectRatio="xMidYMid meet">
<metadata>
Created by potrace 1.15, written by Peter Selinger 2001-2017
</metadata>
<g transform="translate(0.000000,600.000000) scale(0.100000,-0.100000)"
fill="#16364b" stroke="none">
<path d="M2292 5837 c-18 -7 -76 -48 -130 -93 -53 -44 -180 -143 -282 -220
-315 -236 -418 -360 -408 -491 5 -67 39 -127 90 -158 28 -17 50 -20 158 -19
110 1 141 5 260 37 271 72 589 185 632 224 79 71 75 215 -5 268 -48 31 -87 29
-178 -8 -143 -59 -399 -144 -399 -133 0 2 59 47 131 101 206 153 309 242 326
283 48 115 -79 252 -195 209z"/>
<path d="M3092 5670 c-85 -19 -136 -124 -98 -198 26 -49 53 -64 187 -98 154
-39 239 -76 299 -130 58 -52 80 -103 79 -184 0 -153 -83 -250 -309 -361 -113
-56 -144 -78 -166 -121 -48 -91 27 -218 128 -218 47 0 176 63 306 150 218 146
309 290 319 510 7 131 -6 196 -58 301 -90 178 -254 284 -514 333 -123 22 -138
24 -173 16z"/>
<path d="M905 5293 c-99 -53 -192 -148 -238 -244 -70 -145 -72 -296 -5 -429
56 -114 238 -280 323 -296 25 -4 46 0 77 15 59 29 81 63 86 131 5 68 -12 108
-60 141 -54 37 -119 102 -138 139 -61 119 -20 204 139 287 109 57 134 113 89
203 -49 96 -152 116 -273 53z"/>
<path d="M2674 4944 c-326 -173 -419 -502 -204 -714 88 -87 257 -159 372 -160
102 0 168 83 138 174 -19 59 -61 92 -153 120 -103 32 -143 56 -164 101 -31 66
16 147 127 218 80 51 93 69 97 135 5 69 -19 116 -72 138 -50 20 -86 17 -141
-12z"/>
<path d="M4801 4940 c-32 -14 -82 -57 -103 -89 -13 -19 -18 -47 -18 -109 0
-219 86 -412 219 -490 40 -24 57 -27 131 -27 98 0 140 17 202 82 178 186 77
439 -239 598 -81 40 -149 53 -192 35z"/>
<path d="M1828 4425 c-105 -27 -204 -93 -278 -186 -35 -44 -40 -57 -40 -101 0
-60 26 -108 73 -136 82 -50 138 -37 222 52 80 84 111 92 196 47 100 -53 200
-36 241 40 24 44 23 75 -4 129 -61 119 -257 194 -410 155z"/>
<path d="M2583 3830 c-49 -10 -92 -31 -114 -56 -73 -84 -61 -197 26 -247 13
-8 72 -12 161 -12 157 0 179 -7 167 -54 -31 -124 -181 -336 -395 -557 -43 -45
-85 -98 -93 -117 -55 -132 58 -248 188 -193 40 17 273 251 369 371 125 157
191 271 228 394 68 223 -42 412 -272 466 -67 16 -197 18 -265 5z"/>
<path d="M4275 3796 c-241 -47 -374 -183 -363 -371 14 -218 227 -361 420 -281
75 31 129 75 190 155 61 80 169 301 175 356 5 51 -21 103 -65 128 -44 26 -254
33 -357 13z m-13 -346 c-36 -33 -52 -38 -52 -15 0 15 45 44 70 44 9 0 3 -11
-18 -29z"/>
<path d="M1110 3721 c-112 -38 -239 -97 -269 -124 -57 -53 -76 -149 -42 -222
22 -48 44 -69 94 -90 46 -19 88 -19 132 -1 19 8 35 11 35 7 0 -5 -38 -87 -84
-182 -46 -96 -105 -232 -131 -303 -60 -167 -135 -438 -135 -490 0 -105 92
-186 213 -186 77 0 102 20 382 304 275 279 444 440 453 432 8 -9 -19 -139 -64
-306 -84 -314 -115 -414 -198 -634 -62 -163 -67 -208 -35 -265 44 -79 140
-106 209 -59 40 29 42 31 144 273 102 242 129 326 201 621 31 126 62 251 70
278 17 55 19 180 5 279 -33 223 -183 314 -359 216 -71 -40 -134 -93 -289 -244
l-123 -119 34 74 c19 41 56 120 82 175 101 215 122 338 76 440 -65 146 -208
191 -401 126z"/>
<path d="M3513 3364 c-125 -45 -220 -216 -225 -405 -3 -110 71 -175 193 -172
75 2 186 27 241 54 91 46 158 152 158 250 0 84 -25 146 -85 206 -78 77 -182
102 -282 67z"/>
<path d="M4855 2739 c-38 -12 -57 -28 -128 -112 -96 -114 -149 -200 -181 -291
-6 -17 -12 -14 -53 27 -116 116 -275 100 -353 -35 -42 -74 -46 -119 -22 -251
11 -61 19 -113 17 -115 -1 -1 -36 10 -77 27 -109 43 -152 53 -240 53 -97 0
-164 -29 -226 -96 -100 -109 -113 -207 -64 -492 17 -99 35 -210 40 -247 12
-81 44 -135 103 -174 52 -34 136 -42 192 -19 89 39 167 146 167 233 0 39 -34
236 -46 268 -10 24 14 18 108 -30 127 -64 159 -70 252 -51 91 19 124 35 181
87 91 84 128 238 102 419 -9 58 -14 106 -13 107 2 2 17 -2 35 -8 87 -30 217
12 316 103 100 91 169 279 150 405 -6 38 -17 56 -73 113 -59 59 -112 92 -146
89 -6 0 -24 -5 -41 -10z"/>
<path d="M2850 2370 c-41 -10 -106 -31 -145 -45 -89 -34 -290 -136 -343 -175
-48 -34 -82 -94 -82 -143 l0 -34 -59 -6 c-33 -4 -79 -14 -103 -24 -56 -21
-150 -85 -177 -118 -93 -120 -13 -283 148 -302 48 -5 52 -8 61 -42 37 -136 50
-189 50 -199 0 -6 -21 -23 -47 -36 -121 -61 -201 -176 -212 -304 -14 -154 23
-256 154 -424 125 -161 250 -251 440 -317 89 -30 112 -34 205 -34 132 -1 205
18 338 84 105 53 137 81 174 152 27 53 22 139 -11 185 -32 46 -94 75 -161 76
-45 1 -74 -8 -165 -48 -143 -64 -184 -68 -290 -27 -95 36 -175 97 -238 179
-72 94 -85 142 -39 142 21 0 93 -45 105 -66 17 -29 93 -64 140 -64 61 0 88 12
143 62 57 53 84 104 84 162 0 69 -15 95 -99 176 -98 95 -127 152 -185 377 -25
92 -49 180 -54 194 -12 30 -7 39 21 39 11 0 84 34 163 75 136 72 259 125 288
125 29 0 -59 -261 -148 -437 -74 -148 -75 -214 -8 -287 80 -85 214 -85 294 0
27 29 124 223 172 347 42 106 95 288 107 369 30 190 -51 348 -203 393 -71 21
-223 18 -318 -5z"/>
</g>
</svg>
