<?xml version="1.0" standalone="no"?>
<!DOCTYPE svg PUBLIC "-//W3C//DTD SVG 20010904//EN"
 "http://www.w3.org/TR/2001/REC-SVG-20010904/DTD/svg10.dtd">
<svg version="1.0" xmlns="http://www.w3.org/2000/svg"
 width="600.000000pt" height="600.000000pt" viewBox="0 0 600.000000 600.000000"
 preserveAspectRatio="xMidYMid meet">
<metadata>
Created by potrace 1.15, written by Peter Selinger 2001-2017
</metadata>
<g transform="translate(0.000000,600.000000) scale(0.100000,-0.100000)"
fill="#16364b" stroke="none">
<path d="M2020 5808 c-46 -13 -69 -35 -143 -138 -34 -47 -101 -135 -149 -197
-104 -133 -170 -228 -206 -297 -22 -42 -26 -65 -27 -127 0 -68 3 -79 29 -113
41 -54 104 -80 175 -73 46 5 108 32 357 157 363 181 413 212 438 268 47 105
-26 212 -145 212 -33 0 -69 -14 -165 -65 -68 -36 -126 -65 -129 -65 -3 0 28
44 68 98 93 121 97 130 97 189 0 105 -98 179 -200 151z"/>
<path d="M3005 5681 c-45 -27 -65 -54 -72 -94 -14 -89 22 -129 190 -211 282
-136 408 -277 424 -473 6 -60 5 -63 -28 -96 -19 -18 -56 -42 -84 -51 -126 -45
-152 -66 -169 -139 -17 -72 34 -155 107 -175 80 -22 260 53 358 148 85 83 112
143 117 262 4 82 0 110 -22 187 -57 201 -152 327 -357 472 -103 73 -167 110
-272 155 -90 39 -147 43 -192 15z"/>
<path d="M995 5383 c-42 -10 -141 -56 -191 -88 -76 -49 -150 -130 -187 -204
-29 -59 -32 -74 -31 -151 0 -98 21 -165 83 -270 81 -135 189 -230 263 -230
104 0 175 98 147 202 -8 33 -28 59 -79 108 -83 79 -104 117 -97 177 8 69 64
117 172 144 106 27 159 129 119 228 -32 76 -105 107 -199 84z"/>
<path d="M2813 5019 c-126 -24 -246 -184 -247 -329 -1 -119 67 -216 194 -277
45 -22 72 -28 157 -31 62 -3 115 0 137 8 47 15 92 69 101 119 10 58 -24 126
-74 149 -20 9 -38 18 -40 19 -3 2 5 13 16 26 33 35 43 62 43 112 0 55 -16 88
-67 137 -61 59 -140 83 -220 67z"/>
<path d="M4794 4910 c-44 -10 -99 -55 -119 -97 -15 -31 -17 -54 -12 -132 12
-178 68 -321 165 -419 86 -87 184 -123 279 -102 132 30 206 129 204 274 -2
178 -121 325 -346 431 -103 49 -128 55 -171 45z"/>
<path d="M1890 4634 c-54 -19 -147 -80 -172 -114 -31 -42 -33 -92 -8 -144 45
-93 140 -116 242 -58 30 18 63 32 72 32 9 0 26 -21 40 -49 55 -107 152 -141
237 -80 37 26 63 97 54 146 -18 98 -129 224 -230 262 -67 25 -169 27 -235 5z"/>
<path d="M2977 3946 c-216 -58 -357 -388 -240 -563 62 -93 157 -162 261 -188
78 -20 128 -9 170 39 37 42 47 82 33 133 -15 53 -53 90 -126 123 -68 30 -78
48 -63 107 12 46 39 62 89 53 149 -27 246 133 148 245 -52 59 -164 80 -272 51z"/>
<path d="M1227 3910 c-32 -5 -110 -24 -174 -41 -99 -28 -122 -38 -152 -68 -36
-36 -61 -95 -61 -142 0 -13 11 -47 24 -75 37 -79 101 -116 199 -116 l58 1 -22
-37 c-13 -20 -70 -107 -128 -192 -58 -85 -134 -197 -169 -249 -97 -143 -148
-259 -181 -411 -32 -147 98 -276 243 -239 49 12 134 83 347 289 80 77 495 398
508 392 18 -8 -20 -185 -73 -337 -156 -452 -210 -580 -320 -764 -65 -111 -73
-162 -33 -222 46 -70 126 -85 197 -36 61 41 256 394 352 635 140 353 198 586
198 799 0 188 -31 268 -123 315 -107 54 -203 17 -407 -158 -176 -151 -198
-163 -130 -74 42 55 128 203 166 284 102 221 71 365 -91 428 -53 21 -156 29
-228 18z"/>
<path d="M4270 3803 c-155 -26 -291 -129 -336 -255 -19 -54 -18 -153 3 -214
24 -70 120 -165 191 -188 119 -40 246 -2 348 101 74 74 117 147 161 270 49
135 37 198 -45 246 -54 32 -237 54 -322 40z m18 -335 c-6 -18 -55 -44 -65 -34
-10 9 33 46 54 46 8 0 13 -6 11 -12z"/>
<path d="M3435 3385 c-47 -25 -70 -52 -105 -116 -40 -76 -90 -223 -90 -267 0
-52 26 -96 71 -122 36 -20 51 -22 132 -18 148 6 234 57 285 166 20 45 24 65
21 131 -3 65 -9 85 -34 126 -46 75 -101 109 -183 113 -48 2 -76 -2 -97 -13z"/>
<path d="M4915 2951 c-52 -23 -146 -117 -195 -193 -58 -90 -83 -173 -79 -267
5 -91 32 -143 101 -188 36 -24 52 -28 112 -28 81 1 130 21 197 82 89 81 140
190 142 308 3 123 -8 148 -120 258 -25 24 -78 47 -108 47 -5 0 -28 -9 -50 -19z"/>
<path d="M4045 2531 c-79 -36 -133 -114 -142 -205 -3 -34 4 -91 21 -170 14
-66 24 -121 22 -123 -2 -2 -27 5 -56 16 -201 76 -352 39 -427 -106 -40 -79
-49 -151 -34 -278 19 -162 93 -469 132 -546 51 -102 194 -144 315 -94 44 18
102 72 125 116 30 59 25 131 -16 246 -19 54 -35 100 -35 102 0 1 16 -11 35
-28 97 -84 201 -103 318 -56 87 35 130 74 169 152 27 55 33 80 36 153 2 49 -1
118 -7 154 -15 86 -137 529 -155 564 -52 99 -199 150 -301 103z"/>
<path d="M2943 2156 c-96 -22 -309 -111 -449 -187 -69 -38 -130 -69 -135 -69
-5 0 -11 12 -15 28 -30 138 -112 217 -224 216 -111 -1 -212 -75 -318 -233 -50
-75 -65 -125 -52 -169 25 -90 92 -141 194 -151 59 -6 85 -25 49 -37 -217 -73
-333 -251 -333 -514 0 -207 89 -406 245 -548 225 -206 529 -303 765 -243 148
37 267 103 374 208 88 86 113 159 84 244 -34 101 -140 154 -235 118 -15 -6
-58 -39 -95 -75 -75 -72 -148 -110 -232 -120 -175 -21 -402 100 -478 253 -28
56 -33 81 -36 148 -2 67 0 85 18 113 28 45 49 51 72 21 131 -170 180 -209 264
-209 90 0 141 31 175 105 36 79 15 157 -62 230 -44 42 -105 155 -96 179 3 8
18 17 34 21 15 3 78 42 138 86 112 80 303 184 363 195 41 8 41 2 -2 -117 -46
-126 -81 -207 -160 -375 -71 -150 -78 -186 -50 -252 53 -128 194 -166 292 -77
72 65 258 465 311 670 12 44 24 109 27 145 14 152 -71 322 -191 380 -56 27
-161 34 -242 16z"/>
</g>
</svg>
