<?xml version="1.0" standalone="no"?>
<!DOCTYPE svg PUBLIC "-//W3C//DTD SVG 20010904//EN"
 "http://www.w3.org/TR/2001/REC-SVG-20010904/DTD/svg10.dtd">
<svg version="1.0" xmlns="http://www.w3.org/2000/svg"
 width="600.000000pt" height="600.000000pt" viewBox="0 0 600.000000 600.000000"
 preserveAspectRatio="xMidYMid meet">
<metadata>
Created by potrace 1.15, written by Peter Selinger 2001-2017
</metadata>
<g transform="translate(0.000000,600.000000) scale(0.100000,-0.100000)"
fill="#16364b" stroke="none">
<path d="M2197 5445 c-63 -33 -97 -119 -97 -247 0 -63 5 -84 28 -129 32 -62
94 -113 155 -130 43 -12 235 -7 270 6 9 4 17 3 17 -3 0 -6 -32 -63 -72 -129
-123 -203 -206 -404 -193 -472 14 -76 74 -123 155 -123 49 0 94 18 122 49 9
10 33 64 52 120 44 127 87 219 163 359 121 219 132 326 42 428 -67 76 -151 95
-309 71 -138 -20 -130 -22 -118 21 34 123 -103 237 -215 179z"/>
<path d="M3728 5261 c-154 -42 -218 -95 -218 -181 0 -36 6 -48 38 -80 52 -52
91 -58 191 -30 48 14 88 20 105 16 25 -6 26 -9 26 -73 0 -73 -25 -174 -72
-293 -34 -85 -37 -142 -13 -194 44 -92 167 -112 238 -38 47 49 116 272 138
445 20 154 -26 320 -106 384 -80 64 -196 79 -327 44z"/>
<path d="M1736 4884 c-115 -21 -245 -67 -374 -131 -154 -77 -182 -107 -182
-197 0 -52 31 -103 77 -125 29 -14 33 -21 33 -56 0 -85 63 -136 185 -149 202
-23 380 -69 479 -125 96 -54 159 -50 215 14 60 69 63 159 7 223 -59 67 -256
139 -463 169 -62 9 -110 20 -107 24 12 20 172 61 249 63 52 1 93 8 118 20 109
53 140 197 55 258 -27 18 -47 23 -123 25 -49 1 -126 -4 -169 -13z"/>
<path d="M3175 4376 c-55 -18 -181 -65 -280 -103 -99 -39 -231 -87 -293 -108
-125 -41 -164 -69 -183 -136 -16 -53 1 -108 45 -147 61 -53 84 -52 309 26 450
156 583 204 604 218 69 45 73 177 7 235 -57 50 -95 53 -209 15z"/>
<path d="M4325 4311 c-85 -7 -121 -24 -151 -69 -53 -81 -25 -191 60 -227 19
-8 65 -11 145 -7 139 5 225 -9 242 -41 16 -30 5 -216 -21 -346 l-20 -105 22
-45 c60 -121 235 -119 288 3 34 76 52 195 54 341 1 158 -10 219 -57 308 -47
89 -136 151 -252 175 -72 15 -217 21 -310 13z"/>
<path d="M2160 3874 c-120 -40 -205 -53 -365 -60 -175 -6 -230 -16 -267 -48
-83 -73 -73 -185 23 -241 31 -18 51 -20 214 -19 141 1 202 6 283 23 133 28
258 74 294 108 72 69 56 193 -30 237 -50 25 -76 25 -152 0z"/>
<path d="M3670 3734 c-68 -18 -155 -58 -330 -149 -74 -39 -166 -86 -205 -105
-80 -40 -115 -83 -115 -139 0 -45 30 -95 72 -121 53 -32 102 -26 209 26 189
92 331 155 336 150 3 -3 -7 -33 -22 -67 -21 -47 -26 -71 -22 -102 11 -77 73
-129 157 -129 97 0 134 45 196 232 35 107 40 255 11 307 -53 99 -154 133 -287
97z"/>
<path d="M4936 3250 c-60 -23 -112 -71 -137 -125 -14 -31 -19 -64 -19 -145 l0
-104 -144 -142 c-193 -189 -271 -310 -317 -494 -65 -257 86 -520 298 -520 153
0 257 157 208 314 -23 71 -16 155 17 228 19 42 55 82 162 183 213 201 250 271
250 475 1 159 -17 224 -77 283 -67 67 -149 83 -241 47z"/>
<path d="M2125 3241 c-95 -7 -140 -30 -172 -87 -44 -77 -19 -167 57 -207 31
-16 53 -18 215 -12 99 3 186 2 193 -3 10 -7 11 -19 3 -54 -13 -59 0 -105 41
-145 63 -60 151 -61 209 -4 61 62 84 252 41 346 -29 63 -73 110 -137 143 -47
25 -58 26 -210 28 -88 1 -196 -1 -240 -5z"/>
<path d="M4287 3156 c-20 -8 -68 -43 -105 -78 -156 -147 -380 -246 -630 -279
-97 -13 -130 -26 -161 -65 -66 -84 -14 -214 99 -244 51 -14 161 0 320 40 189
47 321 109 468 220 162 122 234 222 216 297 -22 89 -120 141 -207 109z"/>
<path d="M1270 3034 c-81 -35 -130 -111 -130 -202 0 -50 5 -66 30 -100 17 -23
34 -42 39 -42 16 0 40 -172 46 -325 12 -312 54 -520 130 -650 81 -139 312
-103 355 55 12 43 6 71 -35 189 -28 78 -44 246 -45 458 0 240 -87 496 -195
578 -68 52 -134 65 -195 39z"/>
<path d="M2112 2530 c-96 -20 -193 -96 -314 -246 -31 -38 -62 -82 -67 -98 -28
-72 1 -155 64 -182 81 -33 152 -8 223 81 44 56 84 94 124 120 27 17 27 17 41
-17 8 -18 31 -48 51 -66 l38 -33 -35 -67 c-96 -183 -110 -360 -46 -587 15 -52
74 -110 127 -124 81 -22 160 21 183 99 10 34 9 51 -15 133 -43 154 -34 236 40
359 61 100 53 186 -23 233 -25 15 -31 25 -27 40 19 59 15 112 -11 166 -66 140
-211 218 -353 189z"/>
<path d="M3525 2179 c-71 -10 -182 -26 -245 -35 -109 -15 -350 -67 -469 -101
-90 -26 -161 -116 -161 -203 1 -41 35 -105 72 -133 61 -47 109 -53 228 -28
159 33 252 48 400 66 74 9 182 25 239 36 141 26 155 25 202 -13 77 -62 202
-46 262 34 32 43 50 108 41 156 -17 96 -101 196 -191 226 -62 21 -212 19 -378
-5z"/>
<path d="M4587 1596 c-42 -15 -54 -24 -110 -80 -54 -53 -109 -74 -239 -92
-326 -44 -462 -77 -604 -143 -165 -78 -349 -225 -379 -305 -16 -43 -18 -44
-68 -48 -43 -3 -67 -14 -130 -57 -79 -54 -173 -91 -230 -91 -131 1 -297 103
-428 264 -106 130 -134 150 -214 150 -94 0 -161 -53 -186 -147 -16 -57 -2
-121 39 -182 45 -66 232 -247 312 -302 325 -221 581 -229 887 -31 86 56 130
102 144 149 11 34 14 36 54 37 52 0 94 21 154 77 167 154 290 205 555 231 256
24 349 49 470 128 83 53 183 149 202 195 18 42 18 102 0 144 -17 43 -76 93
-123 106 -48 14 -59 13 -106 -3z"/>
</g>
</svg>
