<?xml version="1.0" standalone="no"?>
<!DOCTYPE svg PUBLIC "-//W3C//DTD SVG 20010904//EN"
 "http://www.w3.org/TR/2001/REC-SVG-20010904/DTD/svg10.dtd">
<svg version="1.0" xmlns="http://www.w3.org/2000/svg"
 width="600.000000pt" height="600.000000pt" viewBox="0 0 600.000000 600.000000"
 preserveAspectRatio="xMidYMid meet">
<metadata>
Created by potrace 1.15, written by Peter Selinger 2001-2017
</metadata>
<g transform="translate(0.000000,600.000000) scale(0.100000,-0.100000)"
fill="#16364b" stroke="none">
<path d="M2381 5384 c-19 -24 -21 -40 -21 -177 0 -247 -34 -417 -105 -524 -42
-63 -82 -94 -194 -153 -73 -39 -87 -50 -95 -78 -13 -46 17 -86 66 -90 39 -3
140 41 219 96 171 117 242 320 256 728 6 176 5 182 -15 202 -32 32 -85 29
-111 -4z"/>
<path d="M3537 5300 c-23 -15 -50 -69 -49 -101 1 -34 51 -142 91 -196 39 -53
102 -100 153 -113 71 -20 128 27 128 103 -1 53 -62 167 -129 240 -50 55 -155
90 -194 67z"/>
<path d="M3035 5121 c-111 -27 -197 -140 -198 -261 -1 -165 165 -215 306 -91
68 60 98 203 59 281 -11 23 -33 43 -62 58 -47 23 -57 24 -105 13z m35 -168 c0
-25 -35 -80 -59 -93 -17 -9 -21 -8 -21 5 0 21 17 54 43 83 25 27 37 28 37 5z"/>
<path d="M4768 4744 c-42 -22 -48 -43 -48 -176 0 -354 95 -545 250 -506 50 13
93 61 110 125 35 123 -29 329 -153 491 -60 78 -104 97 -159 66z"/>
<path d="M2715 4231 c-161 -41 -203 -202 -78 -298 124 -94 289 -96 430 -3 28
18 58 45 67 61 25 42 21 102 -9 137 -49 58 -320 126 -410 103z"/>
<path d="M1115 4148 c-54 -47 -72 -201 -32 -278 82 -163 337 -106 337 75 0 78
-52 145 -154 195 -71 36 -115 38 -151 8z"/>
<path d="M5204 3962 c-120 -42 -185 -139 -185 -276 0 -160 84 -291 221 -347
56 -22 175 -17 238 10 68 30 143 112 173 189 32 81 32 200 0 262 -32 63 -76
106 -147 146 -58 32 -66 34 -155 34 -63 -1 -111 -6 -145 -18z m184 -287 c9 -9
-30 -45 -48 -45 -18 0 -30 19 -30 47 0 12 8 14 36 10 20 -3 39 -9 42 -12z"/>
<path d="M4234 3780 c-103 -21 -203 -101 -252 -200 -37 -76 -38 -183 -2 -254
54 -106 155 -161 283 -154 207 11 334 193 308 443 -7 62 -11 71 -43 100 -61
52 -204 84 -294 65z m46 -285 c0 -17 -35 -55 -49 -55 -22 0 -20 22 3 45 28 28
46 32 46 10z"/>
<path d="M3410 3302 c-62 -64 -160 -223 -160 -259 0 -13 11 -35 25 -48 54 -55
143 -20 223 87 56 74 84 131 90 184 6 60 -23 94 -82 94 -36 0 -46 -6 -96 -58z"/>
<path d="M949 3312 c-136 -46 -218 -115 -271 -228 -28 -61 -30 -71 -26 -157 3
-81 8 -100 38 -155 43 -82 138 -170 232 -217 83 -40 190 -63 312 -64 200 -3
265 -101 417 -635 126 -443 258 -604 582 -710 121 -40 186 -48 442 -54 344
-10 1250 -3 1380 9 248 24 452 82 674 192 277 138 386 240 470 442 51 122 64
194 64 350 -1 343 -105 575 -333 745 -242 179 -520 215 -840 109 -142 -47
-277 -120 -423 -231 -73 -54 -160 -113 -194 -130 -58 -28 -72 -31 -170 -32
-87 -1 -122 3 -183 22 -134 42 -311 140 -528 291 -68 47 -181 126 -250 174
-317 221 -529 275 -1147 292 -167 5 -197 3 -246 -13z m600 -373 c148 -12 265
-41 364 -90 61 -31 149 -89 402 -266 451 -315 641 -396 965 -410 217 -9 320
27 527 180 156 116 242 164 378 210 114 39 126 41 245 41 118 1 128 -1 185
-28 88 -44 196 -154 225 -231 28 -75 38 -239 20 -343 -15 -89 -66 -196 -116
-243 -91 -85 -291 -183 -474 -233 -225 -60 -416 -78 -743 -70 -127 3 -428 6
-667 8 -413 2 -438 4 -500 24 -178 59 -227 129 -326 475 -62 217 -95 309 -167
452 -103 208 -192 313 -316 379 -95 49 -162 66 -309 75 -100 7 -138 14 -170
30 -45 23 -53 37 -24 44 35 9 371 7 501 -4z"/>
<path d="M460 2042 c-38 -39 -38 -61 3 -110 17 -21 46 -59 63 -84 102 -147
304 -176 304 -44 0 66 -65 134 -206 215 -100 57 -125 61 -164 23z"/>
<path d="M5341 1113 c-7 -3 -24 -28 -37 -57 -28 -60 -32 -142 -8 -187 35 -69
135 -69 180 -1 45 66 40 203 -9 237 -21 14 -97 19 -126 8z"/>
</g>
</svg>
