<?xml version="1.0" standalone="no"?>
<!DOCTYPE svg PUBLIC "-//W3C//DTD SVG 20010904//EN"
 "http://www.w3.org/TR/2001/REC-SVG-20010904/DTD/svg10.dtd">
<svg version="1.0" xmlns="http://www.w3.org/2000/svg"
 width="600.000000pt" height="600.000000pt" viewBox="0 0 600.000000 600.000000"
 preserveAspectRatio="xMidYMid meet">
<metadata>
Created by potrace 1.15, written by Peter Selinger 2001-2017
</metadata>
<g transform="translate(0.000000,600.000000) scale(0.100000,-0.100000)"
fill="#16364b" stroke="none">
<path d="M3557 5267 c-10 -6 -20 -29 -23 -49 -11 -66 73 -198 164 -258 89 -59
161 -30 149 60 -9 67 -115 213 -178 246 -34 17 -89 18 -112 1z m142 -171 c-3
-3 -11 5 -18 17 -13 21 -12 21 5 5 10 -10 16 -20 13 -22z"/>
<path d="M3012 5059 c-58 -29 -126 -107 -142 -163 -27 -98 4 -186 71 -201 90
-20 279 167 279 277 0 95 -104 138 -208 87z m98 -96 c0 -51 -140 -200 -148
-158 -13 62 65 175 121 175 19 0 27 -5 27 -17z"/>
<path d="M4741 4714 c-19 -24 -21 -40 -21 -178 1 -162 13 -323 30 -387 27 -99
114 -135 171 -71 42 47 52 99 46 237 -5 126 -26 223 -73 341 -29 70 -44 84
-98 84 -25 0 -40 -7 -55 -26z"/>
<path d="M2635 4187 c-29 -29 -35 -42 -35 -78 0 -36 6 -47 39 -79 45 -43 148
-84 252 -101 82 -14 189 0 229 29 38 28 48 82 24 123 -18 31 -33 38 -164 83
-113 38 -163 50 -227 54 l-83 4 -35 -35z"/>
<path d="M5299 3990 c-110 -20 -206 -84 -254 -171 -27 -49 -30 -62 -30 -149 0
-85 3 -101 29 -153 36 -70 108 -139 179 -172 62 -30 170 -34 238 -10 125 44
209 182 211 349 2 131 -45 212 -161 277 -60 34 -131 44 -212 29z m71 -320 c19
-12 2 -43 -25 -49 -19 -3 -45 23 -45 46 0 15 48 17 70 3z"/>
<path d="M1393 3916 c-126 -40 -193 -128 -193 -252 0 -119 70 -218 197 -281
89 -44 140 -97 187 -197 44 -92 68 -192 111 -456 44 -276 62 -407 80 -605 44
-473 161 -734 387 -863 51 -29 151 -60 258 -79 l45 -8 -90 -50 c-101 -57 -185
-129 -209 -179 -38 -80 -7 -161 72 -187 36 -12 352 -7 500 7 77 8 80 -3 12
-45 -64 -39 -82 -68 -78 -122 3 -36 8 -47 37 -66 19 -13 43 -23 53 -23 56 0
151 77 190 153 29 59 34 134 10 177 -49 89 -130 96 -586 53 -56 -5 -68 -4 -64
8 7 25 151 113 273 168 66 30 140 63 165 75 44 22 52 22 408 18 345 -4 362 -5
362 -23 0 -35 32 -99 60 -119 33 -23 129 -50 181 -50 53 0 69 -9 69 -37 0 -60
53 -96 140 -96 97 0 190 72 190 147 0 41 -35 92 -73 106 -17 7 -106 16 -197
20 -91 4 -176 12 -190 18 l-25 10 25 5 c14 4 52 8 85 10 163 12 407 68 658
151 267 89 367 138 468 233 127 118 210 333 211 542 0 121 -20 209 -76 327
-88 186 -170 275 -316 347 -82 40 -89 41 -201 45 -167 6 -267 -26 -380 -123
-160 -137 -367 -199 -664 -199 -156 0 -177 2 -260 27 -115 35 -271 112 -356
176 -132 100 -319 311 -452 511 -119 178 -212 293 -335 412 -130 126 -195 174
-335 248 -149 78 -252 97 -354 66z m197 -243 c188 -88 237 -120 349 -233 88
-88 171 -197 273 -358 97 -155 137 -208 250 -338 199 -231 390 -363 639 -444
149 -49 253 -63 414 -57 332 14 584 96 764 250 92 79 212 102 329 63 109 -37
221 -178 267 -341 32 -108 10 -280 -50 -396 -27 -52 -124 -147 -186 -184 -111
-65 -403 -174 -594 -222 l-110 -28 -435 0 c-541 0 -998 10 -1070 24 -82 16
-190 73 -239 126 -88 95 -150 280 -176 525 -30 275 -37 322 -95 675 -68 407
-81 463 -145 592 -57 116 -142 206 -236 250 -74 36 -109 66 -109 93 0 46 65
48 160 3z"/>
<path d="M2365 2460 c-56 -22 -56 -77 -2 -110 17 -11 36 -20 40 -20 17 0 57
51 57 73 0 41 -54 74 -95 57z"/>
<path d="M2836 2036 c-32 -31 -33 -50 -1 -81 45 -46 105 -20 105 46 0 30 -14
45 -52 54 -21 5 -33 1 -52 -19z"/>
<path d="M4230 3751 c-92 -20 -177 -85 -225 -172 -26 -47 -30 -64 -30 -134 0
-89 12 -120 67 -174 86 -86 237 -109 358 -55 101 45 159 132 160 237 0 69 -25
174 -48 202 -57 68 -193 114 -282 96z m60 -265 c0 -8 -7 -22 -16 -30 -8 -9
-22 -16 -30 -16 -20 0 -17 37 4 49 24 15 42 13 42 -3z"/>
<path d="M3446 3328 c-48 -64 -158 -287 -151 -308 8 -26 40 -43 65 -35 47 15
169 189 195 279 13 44 13 52 0 73 -24 36 -77 32 -109 -9z"/>
<path d="M476 2004 c-34 -33 -20 -59 65 -124 139 -104 216 -132 252 -92 45 50
-3 106 -158 182 -107 53 -134 59 -159 34z"/>
<path d="M5361 1107 c-36 -18 -59 -55 -76 -121 -32 -128 44 -213 144 -161 56
29 93 164 67 243 -14 43 -86 64 -135 39z"/>
</g>
</svg>
