<?xml version="1.0" standalone="no"?>
<!DOCTYPE svg PUBLIC "-//W3C//DTD SVG 20010904//EN"
 "http://www.w3.org/TR/2001/REC-SVG-20010904/DTD/svg10.dtd">
<svg version="1.0" xmlns="http://www.w3.org/2000/svg"
 width="600.000000pt" height="600.000000pt" viewBox="0 0 600.000000 600.000000"
 preserveAspectRatio="xMidYMid meet">
<metadata>
Created by potrace 1.15, written by Peter Selinger 2001-2017
</metadata>
<g transform="translate(0.000000,600.000000) scale(0.100000,-0.100000)"
fill="#16364b" stroke="none">
<path d="M2368 5373 c-13 -15 -17 -59 -21 -228 -4 -173 -9 -225 -27 -295 -51
-195 -127 -304 -257 -366 -71 -33 -74 -36 -71 -67 2 -22 11 -36 30 -46 24 -14
31 -13 103 23 167 83 263 237 316 509 14 73 19 142 19 272 0 162 -2 177 -20
195 -25 25 -52 26 -72 3z"/>
<path d="M3541 5254 c-29 -37 -27 -57 15 -131 44 -79 130 -167 179 -183 42
-14 89 0 105 31 27 49 -9 142 -87 229 -56 62 -89 80 -147 80 -36 0 -48 -5 -65
-26z"/>
<path d="M3024 5111 c-115 -52 -197 -264 -141 -368 40 -76 130 -61 221 38 123
133 143 285 42 333 -44 21 -71 20 -122 -3z m76 -106 c0 -53 -65 -161 -113
-186 -19 -11 -20 -9 -14 39 7 62 37 123 74 151 37 27 53 26 53 -4z"/>
<path d="M4773 4745 c-17 -7 -36 -22 -42 -34 -7 -12 -11 -85 -11 -183 1 -260
24 -384 81 -433 66 -55 140 -14 165 90 7 33 14 81 14 106 0 70 -26 208 -61
314 -42 133 -79 169 -146 140z"/>
<path d="M2699 4220 c-45 -13 -68 -30 -85 -62 -22 -42 -11 -87 29 -125 84 -80
285 -129 418 -100 53 11 89 51 89 98 0 69 -31 88 -265 164 -82 26 -150 36
-186 25z"/>
<path d="M5270 4000 c-78 -14 -128 -40 -174 -91 -54 -61 -76 -121 -76 -213 0
-169 74 -305 192 -356 71 -30 178 -25 260 13 75 34 151 106 185 175 40 82 45
200 11 274 -31 66 -71 107 -156 157 -74 43 -155 57 -242 41z m116 -333 c9 -9
-9 -35 -31 -45 -17 -8 -26 -8 -33 1 -14 19 -21 44 -14 52 7 7 70 0 78 -8z"/>
<path d="M1346 3854 c-120 -44 -183 -160 -156 -291 7 -32 20 -74 30 -94 29
-57 104 -133 162 -163 96 -52 123 -87 186 -238 69 -165 104 -304 141 -553 11
-77 30 -187 40 -245 11 -58 30 -161 41 -230 72 -434 171 -628 385 -754 44 -26
119 -59 168 -74 48 -14 87 -29 87 -32 0 -3 -17 -12 -37 -19 -128 -46 -228
-112 -259 -172 -37 -72 -4 -162 71 -196 57 -26 268 -23 435 5 69 12 141 22
160 22 l34 0 -52 -53 c-44 -45 -52 -58 -52 -90 0 -52 14 -73 55 -87 50 -16 96
1 143 55 97 111 92 264 -10 314 -56 27 -117 27 -273 1 -147 -25 -335 -38 -335
-23 0 15 132 78 330 158 l165 67 333 -5 c184 -3 336 -8 339 -10 2 -3 12 -20
22 -38 35 -64 117 -94 314 -115 51 -5 57 -8 57 -28 0 -44 68 -86 137 -86 84 0
183 87 183 160 0 58 -78 110 -164 110 -48 0 -27 7 70 24 126 21 227 55 431
142 209 90 292 138 375 218 261 251 331 606 177 901 -55 107 -97 162 -176 235
-114 104 -233 150 -393 150 -149 0 -298 -49 -367 -122 -85 -89 -220 -159 -388
-202 -324 -84 -610 -48 -836 105 -125 84 -320 301 -489 544 -159 229 -315 400
-467 512 -90 67 -290 172 -373 197 -66 20 -191 20 -244 0z m290 -290 c252
-130 397 -266 629 -593 337 -475 555 -649 918 -732 121 -28 348 -31 487 -6
296 54 474 129 609 256 71 67 136 91 244 91 134 0 213 -48 298 -177 155 -238
112 -486 -120 -706 -61 -58 -96 -79 -224 -142 -320 -155 -492 -185 -948 -166
-151 6 -449 13 -664 16 -427 5 -443 7 -558 68 -164 87 -261 309 -296 682 -22
238 -73 616 -93 690 -29 108 -67 203 -149 374 -58 118 -81 154 -128 201 -31
32 -80 69 -108 83 -50 26 -103 77 -103 101 0 46 62 34 206 -40z"/>
<path d="M2350 2450 c-26 -26 -25 -53 3 -84 22 -25 34 -30 70 -27 25 1 51 65
37 91 -23 42 -78 52 -110 20z"/>
<path d="M2827 2052 c-23 -26 -21 -55 6 -80 44 -41 107 -17 107 40 0 52 -78
79 -113 40z"/>
<path d="M4220 3767 c-113 -26 -192 -89 -239 -187 -35 -75 -37 -203 -4 -266
36 -67 70 -101 135 -133 194 -97 398 35 439 284 16 98 0 197 -37 236 -55 58
-194 89 -294 66z m60 -296 c0 -20 -25 -51 -40 -51 -18 0 -21 22 -6 45 20 30
46 33 46 6z"/>
<path d="M3444 3343 c-32 -34 -154 -286 -154 -316 1 -63 58 -68 108 -11 88
103 162 266 143 316 -17 46 -61 50 -97 11z"/>
<path d="M495 2018 c-26 -15 -35 -28 -35 -54 0 -24 130 -128 212 -170 59 -30
123 -32 138 -5 32 60 -5 101 -160 180 -115 59 -129 63 -155 49z"/>
<path d="M5353 1118 c-34 -16 -66 -94 -71 -169 -4 -59 -2 -68 22 -96 33 -40
67 -48 111 -27 51 24 77 73 83 154 2 38 2 80 -2 94 -11 46 -90 70 -143 44z"/>
</g>
</svg>
