<?xml version="1.0" standalone="no"?>
<!DOCTYPE svg PUBLIC "-//W3C//DTD SVG 20010904//EN"
 "http://www.w3.org/TR/2001/REC-SVG-20010904/DTD/svg10.dtd">
<svg version="1.0" xmlns="http://www.w3.org/2000/svg"
 width="600.000000pt" height="600.000000pt" viewBox="0 0 600.000000 600.000000"
 preserveAspectRatio="xMidYMid meet">
<metadata>
Created by potrace 1.15, written by Peter Selinger 2001-2017
</metadata>
<g transform="translate(0.000000,600.000000) scale(0.100000,-0.100000)"
fill="#16364b" stroke="none">
<path d="M3144 5641 c-45 -21 -67 -47 -112 -136 -148 -297 -69 -468 256 -547
51 -12 92 -25 92 -28 0 -3 -26 -21 -57 -39 -67 -40 -248 -172 -378 -277 -164
-131 -185 -157 -185 -228 0 -42 41 -134 71 -162 27 -25 142 -84 209 -107 86
-31 525 -167 557 -173 72 -14 155 47 168 125 8 48 -21 120 -58 143 -12 8 -132
52 -267 97 -135 46 -256 88 -269 93 -23 8 -20 12 55 62 43 29 162 99 263 155
300 167 333 191 369 269 20 43 23 62 17 100 -19 127 -112 183 -369 221 -149
22 -225 38 -245 50 -18 12 -2 59 51 146 46 78 52 124 22 176 -42 71 -117 95
-190 60z"/>
<path d="M1435 5419 c-192 -103 -352 -281 -459 -510 -75 -162 -115 -315 -116
-445 0 -94 65 -174 143 -174 16 0 81 21 145 46 220 87 400 139 418 121 4 -4
-18 -48 -49 -99 -152 -256 -211 -399 -222 -538 -6 -79 -5 -88 17 -119 32 -48
68 -72 116 -78 37 -5 60 4 214 77 405 194 419 203 439 270 29 95 -66 210 -172
210 -9 0 -47 -15 -85 -34 -38 -19 -70 -33 -72 -32 -2 2 24 55 57 118 59 111
101 236 101 301 0 93 -67 181 -161 213 -94 31 -288 19 -481 -31 -16 -4 -28 -3
-28 2 0 18 90 165 140 227 56 71 124 132 209 189 70 47 91 79 91 143 0 127
-132 203 -245 143z"/>
<path d="M4725 4459 c-83 -14 -431 -116 -458 -134 -80 -52 -72 -182 15 -234
55 -34 93 -34 238 3 74 19 136 33 138 31 5 -5 -50 -103 -102 -180 -47 -71 -92
-126 -203 -253 -84 -96 -102 -134 -89 -187 8 -30 60 -92 85 -100 9 -3 22 -23
28 -48 21 -79 56 -99 288 -177 114 -38 212 -73 218 -79 10 -10 -33 -86 -179
-316 -84 -133 -89 -143 -89 -195 0 -88 59 -150 142 -150 59 0 90 30 183 175
213 335 250 410 250 507 -1 71 -27 125 -86 177 -67 59 -164 102 -339 151 -82
23 -154 45 -158 50 -5 4 24 52 63 106 162 219 292 440 320 543 53 199 -71 344
-265 310z"/>
<path d="M3794 3661 c-51 -31 -78 -77 -77 -132 1 -61 22 -95 87 -142 30 -21
72 -57 94 -80 33 -35 41 -50 44 -89 3 -46 3 -47 -22 -40 -14 4 -65 7 -115 7
-82 -1 -97 -4 -166 -37 -180 -84 -298 -293 -229 -406 40 -66 132 -92 200 -57
32 16 74 67 85 103 3 12 18 35 31 52 21 25 29 28 50 20 45 -18 154 -12 198 10
64 32 81 63 81 145 l0 70 40 -3 c52 -4 102 23 139 76 41 58 41 136 0 213 -34
63 -196 230 -268 277 -59 38 -123 43 -172 13z"/>
<path d="M2475 3610 c-145 -38 -321 -123 -356 -171 -49 -69 -30 -169 40 -216
53 -36 99 -31 196 22 93 51 184 85 227 85 25 0 28 -3 28 -33 0 -91 -80 -307
-215 -585 -47 -95 -87 -183 -91 -196 -16 -66 48 -168 117 -186 21 -5 56 -14
78 -20 60 -16 77 -13 180 31 90 38 262 99 281 99 15 0 -14 -68 -106 -257 -74
-151 -87 -185 -87 -228 0 -172 201 -258 321 -137 49 50 200 346 249 487 33 97
37 121 37 205 0 103 -10 134 -63 207 -21 28 -50 51 -97 74 -61 30 -79 34 -168
37 -66 2 -127 -2 -175 -12 -41 -9 -77 -14 -79 -11 -2 2 14 50 36 107 66 167
85 256 86 388 1 100 -2 122 -22 165 -30 65 -75 112 -137 141 -63 30 -177 32
-280 4z"/>
<path d="M1115 3417 c-22 -8 -59 -24 -82 -36 -50 -25 -201 -137 -255 -189 -99
-95 -85 -242 29 -298 56 -27 157 -26 206 3 46 28 46 25 12 -106 -27 -105 -94
-398 -126 -556 -27 -129 -30 -295 -7 -346 24 -51 89 -107 135 -114 21 -4 51
-11 67 -16 39 -12 104 6 140 39 50 48 295 380 437 595 l138 209 17 -36 c17
-34 17 -43 1 -173 -10 -76 -31 -203 -48 -283 -90 -432 -102 -532 -79 -641 25
-116 117 -196 213 -185 58 6 112 38 132 76 24 46 19 111 -11 156 -24 36 -26
45 -21 114 3 41 32 199 65 350 80 363 82 376 82 505 0 79 -6 135 -20 189 -11
43 -24 112 -29 154 -22 172 -84 252 -196 252 -122 0 -196 -74 -400 -400 -98
-157 -174 -265 -181 -258 -2 2 17 76 42 164 70 249 88 351 89 494 0 106 -3
132 -21 171 -61 132 -208 206 -329 166z"/>
<path d="M4697 2199 c-96 -23 -188 -103 -209 -185 -13 -45 -13 -46 -48 -40
-176 30 -287 38 -368 27 -143 -20 -259 -75 -334 -159 -75 -83 -104 -171 -114
-348 -4 -63 -11 -117 -15 -120 -5 -2 -17 4 -28 15 -83 83 -192 151 -300 186
-74 24 -199 17 -261 -15 -107 -54 -203 -167 -289 -339 -23 -45 -44 -81 -47
-78 -3 2 -11 51 -20 108 -44 309 -129 493 -243 527 -79 24 -144 9 -196 -47
-61 -64 -69 -136 -25 -229 38 -81 63 -181 89 -352 54 -356 70 -420 127 -502
60 -87 172 -151 288 -164 67 -8 117 8 167 53 45 40 59 79 62 165 3 59 10 76
102 251 55 104 114 205 131 225 l31 36 29 -19 c16 -10 76 -66 134 -123 186
-185 236 -215 355 -216 84 -1 158 30 217 91 33 35 49 58 93 135 19 34 41 175
50 323 4 61 12 116 18 123 13 16 82 15 278 -3 124 -12 179 -13 237 -5 218 30
372 208 372 429 0 98 -15 139 -69 192 -64 62 -126 79 -214 58z"/>
</g>
</svg>
