<?xml version="1.0" standalone="no"?>
<!DOCTYPE svg PUBLIC "-//W3C//DTD SVG 20010904//EN"
 "http://www.w3.org/TR/2001/REC-SVG-20010904/DTD/svg10.dtd">
<svg version="1.0" xmlns="http://www.w3.org/2000/svg"
 width="600.000000pt" height="600.000000pt" viewBox="0 0 600.000000 600.000000"
 preserveAspectRatio="xMidYMid meet">
<metadata>
Created by potrace 1.15, written by Peter Selinger 2001-2017
</metadata>
<g transform="translate(0.000000,600.000000) scale(0.100000,-0.100000)"
fill="#16364b" stroke="none">
<path d="M3529 5249 c-16 -17 -29 -39 -29 -48 0 -30 58 -138 97 -182 90 -100
169 -127 212 -73 28 35 26 58 -8 129 -40 86 -111 169 -161 189 -58 23 -78 20
-111 -15z m153 -157 c16 -24 28 -46 25 -48 -6 -7 -54 51 -74 90 -15 29 -15 30
1 17 10 -8 31 -35 48 -59z"/>
<path d="M3020 5084 c-81 -35 -148 -135 -157 -234 -12 -127 74 -179 180 -109
141 93 192 279 93 340 -37 23 -69 24 -116 3z m77 -89 c16 -42 -89 -195 -134
-195 -21 0 -12 64 17 124 30 64 102 107 117 71z"/>
<path d="M4793 4745 c-16 -7 -33 -21 -38 -31 -10 -26 -19 -510 -11 -569 10
-64 41 -95 96 -95 91 0 127 89 117 285 -7 118 -39 304 -63 366 -19 47 -56 63
-101 44z"/>
<path d="M2639 4201 c-38 -39 -40 -96 -5 -134 49 -53 263 -127 368 -127 93 0
127 26 128 97 0 60 -27 84 -145 126 -150 53 -203 67 -263 67 -46 0 -58 -4 -83
-29z"/>
<path d="M1486 4055 c-110 -39 -187 -156 -171 -259 11 -65 63 -153 118 -199
100 -84 142 -133 179 -209 52 -107 85 -228 104 -381 16 -138 71 -550 79 -602
3 -16 10 -117 15 -225 21 -406 80 -610 223 -766 33 -36 87 -83 119 -105 97
-66 151 -86 341 -126 l37 -8 -36 -54 c-65 -96 -88 -158 -88 -236 -1 -116 35
-165 185 -251 107 -62 105 -71 -19 -89 -61 -10 -102 -53 -102 -108 1 -97 90
-133 216 -86 61 23 127 76 150 120 20 39 18 113 -5 157 -27 52 -63 83 -161
137 -47 25 -93 54 -102 62 -40 36 -9 129 86 259 l55 75 288 4 c158 2 363 1
454 -2 l167 -6 -14 -33 c-19 -45 -18 -148 2 -190 22 -47 86 -102 153 -131 53
-24 55 -26 31 -35 -66 -25 -87 -81 -53 -138 22 -38 52 -50 121 -50 70 0 127
25 169 73 38 43 48 82 34 134 -17 62 -67 98 -201 142 -36 11 -80 30 -97 41
-28 17 -33 25 -33 59 0 35 6 43 64 93 59 51 70 56 128 62 164 18 423 86 616
162 241 94 378 211 462 398 71 157 89 332 49 476 -48 174 -175 359 -303 442
-94 60 -178 82 -295 75 -110 -6 -184 -29 -271 -83 -78 -48 -209 -91 -339 -111
-91 -14 -127 -15 -251 -5 -175 14 -291 43 -434 111 -302 142 -487 321 -726
706 -179 287 -294 418 -471 533 -180 117 -209 134 -266 158 -66 27 -147 31
-207 9z m149 -209 c28 -12 64 -34 80 -48 17 -13 57 -39 90 -58 148 -82 265
-199 390 -392 283 -434 468 -647 673 -775 153 -96 374 -178 587 -219 128 -25
381 -25 494 0 109 23 249 77 331 126 81 49 142 64 229 58 49 -4 82 -13 121
-34 128 -70 240 -271 241 -436 1 -93 -8 -133 -53 -227 -30 -63 -57 -100 -108
-151 -83 -83 -180 -133 -415 -213 -313 -106 -435 -123 -855 -113 -157 4 -424
7 -595 7 -418 0 -497 17 -624 135 -130 120 -184 295 -211 684 -6 85 -24 252
-40 370 -16 118 -36 278 -45 355 -33 293 -68 435 -142 578 -46 88 -94 144
-211 247 -42 37 -52 52 -52 77 0 56 38 65 115 29z"/>
<path d="M2390 2517 c-35 -17 -40 -70 -9 -103 44 -47 109 -19 109 47 0 46 -56
78 -100 56z"/>
<path d="M2863 2140 c-25 -10 -38 -48 -28 -79 9 -30 60 -55 85 -41 44 23 54
89 18 114 -25 18 -42 19 -75 6z"/>
<path d="M5275 3986 c-78 -19 -126 -46 -181 -101 -67 -66 -88 -128 -82 -234 6
-92 35 -157 103 -224 63 -61 124 -90 207 -95 178 -11 325 112 358 300 26 150
-33 266 -174 338 -67 34 -139 39 -231 16z m105 -306 c12 -7 11 -12 -5 -30 -26
-29 -59 -23 -63 13 -3 24 0 27 25 27 15 0 35 -4 43 -10z"/>
<path d="M4184 3760 c-86 -27 -180 -123 -204 -208 -37 -133 25 -283 142 -347
43 -24 65 -30 118 -30 225 1 355 181 292 404 -24 85 -53 120 -127 158 -55 29
-165 40 -221 23z m96 -279 c0 -22 -19 -41 -42 -41 -24 0 -23 25 2 50 23 23 40
19 40 -9z"/>
<path d="M457 2003 c-4 -3 -7 -19 -7 -35 0 -33 37 -59 185 -134 133 -66 195
-69 195 -9 0 28 -20 45 -100 85 -162 81 -254 113 -273 93z"/>
<path d="M5342 1110 c-32 -14 -72 -103 -72 -163 0 -43 5 -54 35 -84 32 -32 39
-35 78 -30 31 4 49 14 69 37 47 57 64 178 30 220 -21 26 -100 37 -140 20z"/>
</g>
</svg>
