<?xml version="1.0" standalone="no"?>
<!DOCTYPE svg PUBLIC "-//W3C//DTD SVG 20010904//EN"
 "http://www.w3.org/TR/2001/REC-SVG-20010904/DTD/svg10.dtd">
<svg version="1.0" xmlns="http://www.w3.org/2000/svg"
 width="600.000000pt" height="600.000000pt" viewBox="0 0 600.000000 600.000000"
 preserveAspectRatio="xMidYMid meet">
<metadata>
Created by potrace 1.15, written by Peter Selinger 2001-2017
</metadata>
<g transform="translate(0.000000,600.000000) scale(0.100000,-0.100000)"
fill="#16364b" stroke="none">
<path d="M3102 5633 c-79 -39 -100 -134 -47 -215 60 -91 184 -206 345 -320 36
-25 85 -67 108 -92 l43 -47 -20 -28 c-22 -31 -148 -122 -293 -214 -73 -46 -98
-56 -119 -52 -65 15 -287 -86 -379 -172 -135 -125 -130 -288 12 -361 64 -33
164 -36 204 -6 63 47 89 123 64 185 -17 39 -1 53 50 42 70 -14 100 -6 219 63
293 168 470 310 520 418 48 104 36 204 -36 314 -49 73 -124 147 -296 291 -81
68 -155 134 -164 147 -39 60 -139 83 -211 47z"/>
<path d="M1206 5373 c-62 -17 -204 -130 -276 -220 -104 -129 -150 -255 -150
-417 0 -104 19 -184 65 -276 39 -77 78 -115 135 -130 81 -22 168 29 190 110
13 48 6 82 -30 140 -45 71 -63 142 -58 214 10 116 64 199 183 276 72 47 105
99 105 166 0 87 -86 158 -164 137z"/>
<path d="M1741 5343 c-46 -23 -71 -67 -71 -127 0 -44 -7 -61 -71 -159 -88
-134 -111 -191 -112 -277 -1 -52 4 -75 25 -116 77 -148 221 -190 493 -144 72
12 149 30 172 40 78 34 106 126 62 199 -28 47 -56 68 -110 85 -39 12 -58 12
-115 1 -131 -24 -174 -27 -174 -12 0 7 31 66 69 130 78 131 94 171 93 235 -3
119 -149 200 -261 145z"/>
<path d="M4605 4712 c-95 -44 -115 -172 -39 -248 l35 -34 -29 -25 c-17 -14
-37 -44 -47 -67 -50 -125 67 -218 275 -218 122 0 206 29 282 98 140 126 86
337 -112 437 -62 32 -171 61 -260 69 -52 5 -73 3 -105 -12z"/>
<path d="M1802 4280 c-96 -26 -196 -79 -278 -149 -84 -71 -106 -109 -101 -176
4 -63 36 -108 91 -130 56 -23 96 -13 158 41 29 25 87 62 128 82 71 34 80 36
181 36 99 1 108 3 141 28 89 68 87 193 -5 262 -40 30 -215 33 -315 6z"/>
<path d="M2563 3756 c-105 -17 -242 -62 -271 -90 -36 -32 -52 -70 -52 -123 0
-86 63 -153 146 -153 22 0 80 14 130 30 49 17 122 33 162 37 l72 6 0 -26 c0
-57 -255 -497 -372 -643 -88 -109 -102 -137 -95 -187 11 -78 79 -137 159 -137
28 0 62 7 77 16 33 19 167 198 264 351 85 134 186 339 228 464 44 128 46 230
7 305 -69 131 -235 186 -455 150z"/>
<path d="M4037 3736 c-72 -20 -127 -63 -160 -126 -26 -49 -28 -62 -24 -122 6
-86 41 -160 108 -226 75 -75 138 -105 229 -110 67 -4 82 -1 128 22 68 34 124
92 161 168 47 94 49 119 12 189 -17 32 -31 68 -31 80 0 11 -17 38 -38 61 -34
36 -47 42 -123 59 -97 21 -193 23 -262 5z"/>
<path d="M1110 3581 c-90 -29 -251 -113 -291 -153 -86 -84 -69 -223 36 -288
42 -26 139 -38 184 -22 19 7 31 7 31 1 0 -5 -22 -58 -49 -117 -67 -146 -99
-225 -128 -307 -64 -186 -120 -486 -103 -558 20 -90 85 -143 188 -153 50 -6
68 -3 105 15 57 27 247 222 421 431 178 213 270 318 279 319 18 2 2 -104 -67
-452 -107 -538 -130 -677 -116 -726 29 -110 160 -146 244 -68 40 38 38 31 111
397 31 157 77 384 102 505 45 214 47 225 47 405 1 174 0 188 -23 237 -24 55
-84 117 -127 133 -41 16 -126 11 -172 -10 -58 -26 -127 -94 -299 -292 -80 -93
-148 -166 -151 -164 -2 3 19 64 48 137 66 168 107 295 121 377 30 174 -25 303
-154 357 -49 20 -168 19 -237 -4z"/>
<path d="M3568 3295 c-135 -51 -224 -184 -243 -358 -11 -102 28 -164 118 -188
49 -13 109 1 144 34 15 13 45 23 85 29 101 13 158 38 215 93 37 36 55 63 63
95 26 99 -34 216 -140 274 -65 35 -180 46 -242 21z"/>
<path d="M4708 2984 c-15 -8 -40 -36 -55 -62 -25 -41 -28 -56 -27 -127 2 -96
29 -176 104 -301 57 -94 93 -125 153 -131 129 -13 200 128 127 252 -73 123
-77 137 -65 230 8 62 -16 105 -74 135 -47 24 -124 26 -163 4z"/>
<path d="M2900 2555 c-124 -25 -473 -152 -528 -192 -66 -49 -88 -139 -53 -219
27 -60 45 -81 95 -106 68 -35 115 -28 276 39 181 75 266 106 279 102 6 -3 -7
-56 -33 -134 -47 -139 -72 -197 -136 -314 -45 -83 -50 -123 -21 -179 61 -120
225 -139 326 -37 70 71 166 263 196 395 68 292 79 391 54 475 -23 82 -87 144
-171 168 -71 20 -191 21 -284 2z"/>
<path d="M4460 2331 c-43 -13 -84 -38 -111 -68 -58 -62 -73 -120 -58 -226 6
-43 10 -80 8 -82 -2 -2 -65 17 -139 42 -115 39 -146 46 -220 47 -112 1 -175
-22 -250 -91 -126 -116 -167 -294 -141 -608 15 -176 25 -224 63 -276 81 -112
278 -121 374 -18 60 65 67 104 56 306 -5 98 -8 180 -6 182 5 5 137 -37 194
-62 37 -17 58 -19 136 -14 118 8 189 35 257 97 70 64 114 152 129 258 10 67 9
104 -5 217 -18 147 -37 204 -83 247 -51 48 -139 69 -204 49z"/>
<path d="M2165 1871 c-68 -17 -127 -74 -146 -143 -12 -44 -12 -40 38 -338 19
-119 71 -279 120 -373 65 -126 252 -292 410 -364 45 -21 65 -24 106 -19 47 5
57 2 127 -39 221 -129 379 -155 529 -85 159 75 230 173 201 279 -34 126 -170
168 -290 91 -66 -43 -89 -39 -231 42 -141 79 -223 156 -269 252 -36 76 -88
139 -134 163 -17 9 -60 19 -96 22 l-65 6 -42 186 c-23 103 -49 201 -58 219
-23 45 -72 88 -109 95 -17 4 -38 8 -46 10 -8 1 -28 0 -45 -4z"/>
</g>
</svg>
