<?xml version="1.0" standalone="no"?>
<!DOCTYPE svg PUBLIC "-//W3C//DTD SVG 20010904//EN"
 "http://www.w3.org/TR/2001/REC-SVG-20010904/DTD/svg10.dtd">
<svg version="1.0" xmlns="http://www.w3.org/2000/svg"
 width="600.000000pt" height="600.000000pt" viewBox="0 0 600.000000 600.000000"
 preserveAspectRatio="xMidYMid meet">
<metadata>
Created by potrace 1.15, written by Peter Selinger 2001-2017
</metadata>
<g transform="translate(0.000000,600.000000) scale(0.100000,-0.100000)"
fill="#16364b" stroke="none">
<path d="M3547 5257 c-29 -21 -32 -78 -7 -128 82 -162 227 -259 277 -183 29
44 -4 126 -95 239 -59 74 -132 104 -175 72z m156 -187 c10 -16 14 -30 10 -30
-10 0 -83 93 -83 105 0 14 53 -41 73 -75z"/>
<path d="M3032 5076 c-125 -45 -204 -257 -126 -341 34 -37 107 -35 160 4 53
38 92 85 120 146 39 83 28 139 -35 182 -37 25 -69 28 -119 9z m81 -90 c18 -46
-79 -186 -129 -186 -21 0 -18 63 6 109 34 68 109 114 123 77z"/>
<path d="M4774 4729 c-14 -15 -21 -43 -26 -102 -10 -122 -9 -436 2 -482 12
-51 41 -75 92 -75 33 0 47 6 73 34 36 38 45 74 45 178 0 133 -49 419 -77 450
-23 26 -85 24 -109 -3z"/>
<path d="M2663 4218 c-44 -11 -73 -51 -73 -101 0 -34 6 -46 39 -77 60 -57 254
-119 371 -120 105 0 153 35 153 112 0 47 -31 83 -81 94 -15 4 -84 23 -153 44
-156 48 -215 59 -256 48z"/>
<path d="M1487 4076 c-110 -40 -190 -165 -170 -268 16 -84 66 -150 156 -205
27 -16 64 -51 82 -78 88 -123 158 -403 185 -737 53 -661 119 -1042 214 -1238
80 -165 285 -301 514 -340 40 -6 72 -13 72 -15 0 -1 -16 -29 -35 -61 -56 -93
-76 -158 -77 -249 -1 -129 36 -181 185 -263 42 -24 77 -49 77 -56 0 -9 -16
-17 -42 -21 -117 -18 -172 -57 -172 -120 0 -68 66 -103 158 -83 147 31 253
139 230 235 -19 79 -65 125 -203 199 -71 38 -85 61 -78 125 8 62 42 138 104
230 46 70 48 71 82 65 119 -20 310 -27 570 -21 274 7 284 7 276 -11 -40 -100
-22 -208 47 -275 18 -17 65 -47 103 -65 42 -19 64 -35 55 -37 -8 -3 -28 -9
-44 -14 -68 -21 -91 -112 -42 -162 24 -24 33 -26 109 -26 101 0 163 26 209 89
26 35 29 48 25 89 -6 67 -31 96 -123 140 -192 92 -189 90 -192 133 -4 36 0 42
54 91 55 49 60 52 128 58 175 16 298 47 516 130 207 78 292 127 391 225 73 72
94 101 132 180 84 173 111 370 72 520 -23 88 -94 233 -148 301 -51 64 -132
121 -215 151 -47 18 -80 22 -187 22 -147 1 -164 -3 -310 -75 -170 -84 -337
-114 -580 -107 -135 5 -159 8 -245 37 -115 39 -319 139 -420 207 -104 69 -220
188 -325 334 -171 238 -429 565 -518 657 -102 105 -339 276 -422 305 -59 21
-145 22 -198 4z m154 -199 c222 -116 325 -207 485 -427 98 -136 278 -381 385
-527 135 -182 270 -303 424 -380 125 -63 367 -152 489 -181 96 -22 134 -26
281 -26 236 0 405 33 535 104 144 79 160 85 250 84 134 0 211 -45 289 -168 70
-111 93 -179 99 -286 4 -84 1 -104 -22 -173 -42 -126 -126 -235 -231 -299 -76
-47 -422 -169 -575 -203 -54 -12 -173 -20 -425 -28 -391 -13 -589 -12 -715 3
-47 6 -159 15 -250 20 -180 9 -251 24 -350 72 -156 76 -237 226 -284 528 -8
52 -17 133 -21 180 -3 47 -15 148 -25 225 -11 77 -29 237 -40 355 -31 315 -86
595 -147 750 -48 120 -96 179 -222 272 -25 18 -49 46 -54 62 -8 25 -7 32 13
48 30 24 57 23 111 -5z"/>
<path d="M2385 2485 c-29 -28 -31 -42 -9 -73 20 -30 51 -44 74 -37 19 6 50 52
50 75 0 19 -48 60 -70 60 -11 0 -32 -11 -45 -25z"/>
<path d="M2853 2143 c-62 -30 -35 -113 38 -113 48 0 82 63 52 98 -26 29 -53
34 -90 15z"/>
<path d="M5237 3970 c-139 -35 -219 -136 -225 -285 -5 -101 20 -173 83 -243
168 -186 426 -152 540 72 37 74 40 84 40 165 0 100 -18 145 -83 203 -80 72
-124 91 -225 94 -51 2 -109 -1 -130 -6z m141 -293 c19 -11 20 -15 10 -29 -7
-9 -22 -19 -34 -22 -16 -5 -23 0 -32 20 -20 43 7 58 56 31z"/>
<path d="M4193 3766 c-53 -17 -122 -57 -150 -88 -12 -12 -34 -50 -50 -83 -39
-86 -39 -186 2 -268 53 -106 140 -160 258 -159 121 0 211 62 265 181 45 98 27
279 -35 343 -66 69 -201 103 -290 74z m87 -284 c0 -10 -5 -23 -12 -30 -15 -15
-48 -16 -48 0 0 16 31 48 47 48 7 0 13 -8 13 -18z"/>
<path d="M486 2004 c-31 -30 -18 -51 65 -109 117 -83 195 -120 228 -109 14 5
30 21 35 37 14 39 -16 66 -155 137 -124 63 -148 70 -173 44z"/>
<path d="M5343 1105 c-26 -18 -63 -112 -63 -161 0 -47 24 -90 60 -109 91 -47
169 28 170 163 0 57 -3 67 -29 93 -24 23 -38 29 -73 29 -24 0 -53 -7 -65 -15z"/>
</g>
</svg>
