<?xml version="1.0" standalone="no"?>
<!DOCTYPE svg PUBLIC "-//W3C//DTD SVG 20010904//EN"
 "http://www.w3.org/TR/2001/REC-SVG-20010904/DTD/svg10.dtd">
<svg version="1.0" xmlns="http://www.w3.org/2000/svg"
 width="600.000000pt" height="600.000000pt" viewBox="0 0 600.000000 600.000000"
 preserveAspectRatio="xMidYMid meet">
<metadata>
Created by potrace 1.15, written by Peter Selinger 2001-2017
</metadata>
<g transform="translate(0.000000,600.000000) scale(0.100000,-0.100000)"
fill="#16364b" stroke="none">
<path d="M3018 5057 c-73 -44 -128 -146 -128 -239 0 -62 35 -104 78 -93 93 22
212 177 212 275 0 15 -9 39 -21 54 -27 34 -88 36 -141 3z m91 -36 c39 -25 -23
-155 -102 -212 -47 -34 -61 -33 -65 5 -8 64 55 177 113 202 36 16 36 16 54 5z"/>
<path d="M1837 4619 c-56 -13 -89 -33 -131 -79 -94 -104 -105 -221 -35 -368
61 -129 102 -393 143 -927 27 -346 38 -577 41 -865 3 -233 7 -305 23 -397 59
-327 148 -514 297 -630 80 -61 213 -114 325 -128 l55 -7 0 -211 c1 -230 8
-279 64 -442 22 -61 27 -87 18 -90 -7 -2 -52 -8 -102 -13 -82 -9 -92 -13 -117
-41 -32 -36 -36 -76 -10 -107 27 -34 56 -44 125 -44 153 0 277 89 277 200 0
17 -16 71 -35 121 -46 118 -64 207 -71 354 -5 101 5 258 18 271 2 2 69 -1 148
-6 80 -5 296 -12 480 -15 184 -4 336 -8 338 -10 1 -1 -2 -14 -8 -29 -5 -15
-10 -69 -10 -119 0 -118 40 -289 114 -481 14 -37 26 -75 26 -82 0 -11 -20 -14
-86 -14 -118 0 -155 -19 -177 -91 -3 -9 3 -34 13 -56 13 -30 27 -44 59 -56 94
-38 230 -9 296 64 69 77 73 134 16 276 -105 266 -138 421 -111 532 14 61 31
71 115 71 144 0 406 69 564 150 173 87 284 208 338 365 26 73 28 92 28 230 0
170 -13 232 -71 351 -36 73 -110 156 -172 194 -79 48 -260 122 -417 170 -166
50 -246 79 -545 195 -253 98 -407 180 -592 317 -220 163 -375 360 -592 756
-100 183 -193 332 -260 417 -18 22 -47 66 -66 98 -50 85 -125 152 -190 171
-59 18 -68 18 -123 5z m105 -181 c26 -15 55 -47 86 -93 25 -38 61 -87 79 -107
52 -59 134 -191 213 -343 142 -273 228 -410 362 -576 197 -245 523 -459 941
-619 86 -33 170 -66 185 -74 15 -7 136 -48 270 -90 134 -42 269 -88 300 -102
31 -14 80 -35 107 -45 95 -35 153 -102 196 -224 69 -197 28 -423 -102 -560
-64 -68 -121 -101 -264 -155 -288 -108 -381 -118 -986 -101 -884 24 -878 24
-1004 89 -157 81 -251 264 -301 589 -12 80 -17 195 -19 443 -3 354 -10 487
-51 930 -52 573 -77 714 -153 855 -13 25 -21 58 -21 88 0 42 5 54 34 83 40 40
72 43 128 12z"/>
<path d="M2525 2637 c-23 -19 -27 -29 -21 -51 8 -31 61 -67 85 -58 24 9 40 34
41 63 0 59 -59 86 -105 46z"/>
<path d="M2982 2410 c-12 -12 -22 -28 -22 -36 0 -21 54 -74 75 -74 24 0 65 46
65 73 0 53 -76 76 -118 37z"/>
<path d="M5237 3969 c-92 -22 -179 -96 -212 -182 -27 -72 -18 -195 20 -266 37
-67 103 -133 164 -162 63 -31 180 -37 250 -14 72 24 152 100 193 183 28 56 33
76 33 141 0 55 -6 87 -19 114 -29 58 -96 120 -177 160 -64 33 -80 37 -143 36
-39 -1 -88 -5 -109 -10z m133 -289 c19 -12 2 -43 -25 -49 -19 -3 -45 23 -45
46 0 15 48 17 70 3z"/>
<path d="M4161 3738 c-61 -30 -134 -107 -166 -174 -53 -111 -43 -219 26 -298
183 -208 554 -64 526 204 -19 175 -129 290 -278 290 -45 0 -77 -6 -108 -22z
m129 -278 c0 -21 -34 -45 -50 -35 -7 4 -6 14 1 28 22 40 49 44 49 7z"/>
<path d="M5375 1123 c-32 -8 -47 -25 -71 -78 -27 -58 -32 -140 -9 -171 8 -12
28 -27 44 -34 65 -27 135 14 161 94 17 53 8 142 -16 167 -21 20 -75 31 -109
22z"/>
</g>
</svg>
