<?xml version="1.0" standalone="no"?>
<!DOCTYPE svg PUBLIC "-//W3C//DTD SVG 20010904//EN"
 "http://www.w3.org/TR/2001/REC-SVG-20010904/DTD/svg10.dtd">
<svg version="1.0" xmlns="http://www.w3.org/2000/svg"
 width="600.000000pt" height="600.000000pt" viewBox="0 0 600.000000 600.000000"
 preserveAspectRatio="xMidYMid meet">
<metadata>
Created by potrace 1.15, written by Peter Selinger 2001-2017
</metadata>
<g transform="translate(0.000000,600.000000) scale(0.100000,-0.100000)"
fill="#16364b" stroke="none">
<path d="M2845 5576 c-39 -18 -73 -55 -124 -137 -105 -168 -113 -289 -26 -414
30 -44 51 -61 103 -87 59 -29 74 -32 156 -32 50 0 120 3 156 7 l65 8 -159
-153 c-162 -156 -347 -352 -398 -422 -32 -44 -37 -99 -14 -145 21 -40 89 -98
122 -105 16 -3 130 -23 254 -46 124 -22 301 -57 393 -77 l169 -36 45 19 c55
23 83 57 90 111 7 51 -24 113 -69 141 -48 29 -212 67 -421 98 -100 15 -186 31
-190 34 -8 7 233 242 426 415 54 49 109 107 122 130 69 117 24 247 -108 306
-49 22 -66 24 -264 27 -117 2 -213 5 -213 7 0 2 20 45 45 96 25 51 45 104 45
118 -1 39 -35 107 -64 126 -35 23 -104 29 -141 11z"/>
<path d="M1523 5225 c-91 -47 -211 -152 -321 -279 -109 -126 -160 -201 -212
-308 -62 -128 -51 -217 32 -268 54 -33 89 -34 225 -7 157 32 288 49 318 41 20
-5 22 -9 14 -42 -5 -20 -31 -103 -59 -185 -53 -155 -60 -209 -35 -258 15 -29
15 -29 -12 -39 -81 -30 -120 -72 -129 -141 -11 -87 56 -159 148 -159 51 0 242
60 468 147 161 62 195 83 215 136 29 78 -7 152 -97 198 -57 29 -104 24 -201
-21 -75 -35 -107 -46 -107 -37 0 1 23 70 51 152 83 245 80 363 -10 456 -68 69
-135 91 -288 97 -68 2 -123 7 -123 12 0 4 35 41 78 82 71 68 185 148 210 148
6 0 27 13 45 30 83 72 66 226 -28 266 -57 23 -106 18 -182 -21z"/>
<path d="M4431 4610 c-83 -18 -176 -52 -286 -107 -130 -65 -131 -66 -156 -114
-51 -101 12 -209 122 -209 21 0 69 17 120 41 107 52 230 101 237 95 13 -13
-133 -302 -243 -481 -100 -164 -99 -202 10 -299 73 -65 71 -64 350 -101 201
-26 275 -40 275 -52 0 -4 -54 -116 -120 -250 -66 -134 -123 -256 -126 -273
-22 -106 84 -209 186 -180 71 20 106 74 234 367 120 274 141 357 112 457 -20
68 -82 136 -151 166 -65 28 -181 47 -333 55 -73 4 -134 10 -136 14 -3 3 42 99
100 213 122 244 154 330 154 423 0 105 -39 173 -125 217 -46 24 -154 32 -224
18z"/>
<path d="M3761 3670 c-137 -28 -240 -136 -241 -253 0 -80 45 -140 116 -153 49
-9 118 27 147 77 13 23 29 39 41 39 16 0 18 -6 14 -52 -4 -50 -70 -230 -86
-236 -39 -13 -185 -106 -231 -148 -69 -63 -96 -118 -86 -176 12 -68 80 -128
145 -128 40 0 64 13 125 68 64 58 150 97 272 123 140 30 183 59 204 139 15 58
1 113 -42 159 l-31 34 16 63 c61 242 -49 424 -269 447 -27 3 -70 1 -94 -3z"/>
<path d="M2580 3539 c-102 -14 -327 -73 -412 -109 -89 -36 -118 -68 -125 -134
-6 -54 25 -119 70 -146 46 -29 103 -25 188 11 94 40 248 79 312 79 l50 0 -7
-46 c-7 -54 -58 -185 -128 -330 -54 -113 -63 -167 -34 -222 46 -89 164 -104
241 -32 31 29 233 447 251 520 38 153 -28 314 -157 381 -32 16 -146 41 -174
38 -5 -1 -39 -5 -75 -10z"/>
<path d="M1136 3279 c-96 -23 -270 -140 -299 -202 -23 -48 -22 -119 3 -168 38
-74 157 -126 229 -101 17 6 32 8 35 4 2 -4 -5 -61 -15 -127 -10 -66 -26 -163
-34 -215 -27 -173 -40 -407 -27 -510 13 -110 34 -155 90 -194 38 -27 49 -30
117 -28 121 2 134 13 255 217 179 300 259 413 372 524 l51 51 19 -53 c27 -74
17 -230 -34 -537 -49 -295 -56 -441 -22 -487 11 -15 40 -38 65 -51 55 -29 125
-26 170 7 17 13 32 21 33 19 2 -1 11 -79 20 -173 20 -198 35 -274 77 -399 102
-307 276 -455 492 -417 86 14 175 56 244 113 29 24 67 52 85 63 26 16 52 58
130 208 104 202 170 302 219 338 40 28 86 21 153 -26 28 -19 87 -60 130 -90
112 -77 171 -98 271 -93 57 3 94 11 127 27 67 33 133 94 159 148 12 26 37 60
55 76 86 74 99 147 55 291 -34 107 -53 209 -45 231 7 18 79 32 229 45 66 5
147 17 180 25 152 40 263 121 317 233 28 60 32 78 36 179 4 107 3 116 -23 168
-104 214 -418 154 -444 -85 l-6 -55 -170 -7 c-296 -12 -428 -65 -513 -208 -73
-124 -84 -356 -26 -584 8 -32 13 -60 11 -63 -3 -2 -33 16 -68 40 -247 173
-445 177 -669 14 -119 -86 -219 -217 -350 -455 -52 -95 -67 -115 -98 -129 -21
-9 -40 -19 -44 -21 -12 -6 -64 108 -91 198 -30 97 -42 163 -62 326 -17 137
-34 175 -100 221 -66 46 -153 42 -212 -10 l-36 -32 6 80 c4 45 21 177 39 295
28 193 32 239 32 450 0 211 -2 244 -22 323 -28 110 -51 157 -99 196 -55 46
-101 57 -174 43 -139 -26 -314 -175 -496 -421 -14 -20 -10 28 14 145 22 112
27 167 28 284 0 136 -2 149 -26 200 -36 76 -75 119 -134 146 -54 25 -134 30
-209 13z"/>
<path d="M3019 2645 c-220 -37 -454 -117 -506 -173 -96 -104 -81 -266 30 -324
61 -31 116 -28 227 14 145 55 385 114 395 98 5 -9 -20 -86 -60 -180 -50 -118
-19 -231 80 -287 47 -27 131 -31 174 -8 60 31 88 78 148 250 66 191 66 333 2
463 -55 113 -156 163 -325 161 -49 -1 -123 -7 -165 -14z"/>
</g>
</svg>
