<?xml version="1.0" standalone="no"?>
<!DOCTYPE svg PUBLIC "-//W3C//DTD SVG 20010904//EN"
 "http://www.w3.org/TR/2001/REC-SVG-20010904/DTD/svg10.dtd">
<svg version="1.0" xmlns="http://www.w3.org/2000/svg"
 width="600.000000pt" height="600.000000pt" viewBox="0 0 600.000000 600.000000"
 preserveAspectRatio="xMidYMid meet">
<metadata>
Created by potrace 1.15, written by Peter Selinger 2001-2017
</metadata>
<g transform="translate(0.000000,600.000000) scale(0.100000,-0.100000)"
fill="#16364b" stroke="none">
<path d="M1700 5792 c-62 -28 -90 -73 -133 -209 -55 -174 -78 -303 -78 -449 0
-115 10 -162 48 -212 52 -69 123 -92 208 -68 98 29 190 120 343 341 42 61 102
145 134 188 48 65 58 86 58 119 0 53 -29 98 -80 127 -47 26 -102 25 -145 -3
-14 -9 -73 -79 -133 -156 -59 -76 -108 -133 -110 -126 -1 7 20 83 48 170 l52
159 -17 44 c-22 58 -63 83 -130 82 -27 0 -57 -3 -65 -7z"/>
<path d="M3102 5600 c-38 -23 -72 -75 -72 -109 0 -55 37 -104 117 -156 150
-97 335 -267 412 -378 40 -59 40 -70 -4 -61 -51 9 -120 -27 -145 -77 -25 -49
-25 -80 1 -130 29 -58 88 -83 194 -83 157 0 268 85 290 221 14 87 -36 231
-117 335 -120 156 -327 328 -512 427 -68 36 -117 40 -164 11z"/>
<path d="M970 5450 c-201 -26 -357 -158 -406 -344 -49 -182 41 -381 210 -468
80 -41 178 -7 210 73 27 68 14 103 -65 180 -66 63 -69 68 -69 114 0 95 69 154
181 155 95 0 161 63 161 154 0 109 -76 156 -222 136z"/>
<path d="M2990 5156 c-90 -24 -157 -84 -200 -177 -23 -52 -26 -145 -6 -192 40
-96 154 -145 291 -126 132 18 175 62 175 180 0 180 -55 290 -158 319 -44 12
-45 12 -102 -4z"/>
<path d="M4811 4869 c-68 -14 -124 -78 -135 -153 -9 -55 9 -237 30 -307 24
-80 60 -146 110 -199 125 -133 354 -143 444 -18 96 132 44 344 -124 514 -119
119 -241 181 -325 163z"/>
<path d="M2039 4805 c-42 -14 -91 -35 -109 -47 -114 -79 -80 -268 49 -272 20
0 59 9 87 21 81 35 124 39 165 14 97 -60 219 15 219 134 0 69 -29 112 -99 148
-48 24 -66 27 -145 27 -68 -1 -110 -7 -167 -25z"/>
<path d="M2852 4099 c-130 -22 -212 -110 -212 -226 1 -97 66 -180 176 -224 54
-22 72 -23 229 -22 222 2 410 29 460 67 63 48 71 144 17 208 -45 53 -274 150
-428 182 -100 20 -181 25 -242 15z"/>
<path d="M1050 4059 c-51 -10 -82 -30 -122 -80 -59 -74 -42 -185 39 -239 32
-22 49 -25 145 -28 59 -2 108 -7 108 -11 0 -5 -29 -41 -65 -82 -125 -143 -494
-588 -534 -645 -91 -129 33 -316 184 -276 23 6 65 9 93 5 68 -8 88 -1 168 54
38 26 120 80 183 120 l114 73 26 -23 c14 -14 39 -32 54 -42 86 -55 75 -208
-29 -418 -106 -212 -251 -367 -346 -367 -76 0 -138 -75 -138 -167 0 -47 4 -58
34 -91 l35 -37 98 0 c85 1 106 4 157 28 158 73 297 239 427 510 140 294 137
577 -7 732 -20 22 -23 30 -12 36 9 6 19 -3 33 -32 56 -109 195 -106 260 5 23
39 25 55 27 167 2 80 -2 137 -11 161 -24 71 -109 117 -193 104 -28 -4 -99 -37
-194 -90 -82 -46 -151 -82 -153 -81 -2 2 12 23 31 47 59 73 119 167 150 235
79 174 26 335 -134 409 -60 27 -70 29 -223 31 -88 1 -180 -2 -205 -8z"/>
<path d="M4235 3785 c-89 -19 -154 -53 -211 -110 -150 -149 -115 -386 70 -483
44 -23 63 -27 136 -27 109 0 176 29 259 113 116 115 193 342 147 431 -23 43
-60 62 -155 77 -104 17 -166 17 -246 -1z m55 -310 c-24 -25 -50 -33 -50 -16 0
13 41 41 59 41 10 0 8 -7 -9 -25z"/>
<path d="M3401 3398 c-52 -15 -131 -103 -184 -206 -53 -103 -58 -142 -24 -193
34 -51 88 -76 177 -84 65 -6 85 -4 122 13 74 33 131 118 148 225 16 99 -2 162
-60 210 -50 43 -112 55 -179 35z"/>
<path d="M5048 3236 c-100 -36 -254 -168 -300 -256 -16 -31 -24 -67 -26 -118
-4 -63 -1 -80 23 -127 31 -63 88 -117 144 -133 76 -23 200 -10 272 28 38 21
110 93 129 130 32 62 44 149 30 216 -16 77 -42 126 -102 196 -34 40 -61 61
-86 68 -44 12 -38 12 -84 -4z"/>
<path d="M3987 2506 c-62 -23 -96 -57 -132 -131 -30 -60 -30 -83 -5 -205 10
-52 18 -96 16 -98 -2 -2 -25 4 -50 12 -99 34 -199 15 -262 -48 -85 -85 -85
-186 1 -470 68 -225 115 -336 163 -383 131 -128 329 -78 373 95 l11 42 62 0
c106 0 202 63 244 159 42 95 4 382 -100 763 -33 122 -46 154 -75 188 -64 74
-166 106 -246 76z"/>
<path d="M2077 2430 c-64 -16 -114 -48 -188 -117 -72 -68 -181 -219 -193 -268
-4 -15 -35 -73 -68 -129 -118 -194 -195 -384 -219 -539 -22 -137 4 -335 59
-461 93 -208 403 -451 640 -501 412 -88 886 222 1087 710 75 180 136 402 149
545 15 151 -34 303 -126 385 -118 106 -277 113 -549 26 -52 -17 -96 -27 -99
-23 -3 4 -17 34 -29 67 -13 33 -40 82 -60 108 -39 52 -156 147 -220 177 -48
24 -132 32 -184 20z m92 -437 c5 -10 21 -54 36 -98 37 -109 64 -152 134 -218
47 -43 71 -58 109 -66 58 -12 55 -13 272 67 91 33 182 63 203 67 35 7 37 6 37
-18 0 -83 -119 -447 -194 -595 -31 -61 -143 -200 -190 -236 -20 -15 -66 -41
-104 -59 -64 -30 -73 -32 -187 -32 -116 0 -123 1 -188 33 -169 83 -272 191
-298 311 -31 144 42 392 172 583 21 31 41 69 45 85 9 38 113 193 130 193 7 0
17 -8 23 -17z"/>
</g>
</svg>
