<?xml version="1.0" standalone="no"?>
<!DOCTYPE svg PUBLIC "-//W3C//DTD SVG 20010904//EN"
 "http://www.w3.org/TR/2001/REC-SVG-20010904/DTD/svg10.dtd">
<svg version="1.0" xmlns="http://www.w3.org/2000/svg"
 width="600.000000pt" height="600.000000pt" viewBox="0 0 600.000000 600.000000"
 preserveAspectRatio="xMidYMid meet">
<metadata>
Created by potrace 1.15, written by Peter Selinger 2001-2017
</metadata>
<g transform="translate(0.000000,600.000000) scale(0.100000,-0.100000)"
fill="#16364b" stroke="none">
<path d="M2460 5472 c-44 -24 -80 -76 -120 -169 -71 -170 -40 -310 83 -376 38
-20 56 -22 177 -22 84 1 171 7 229 18 52 10 96 15 99 13 2 -3 -28 -40 -68 -83
-205 -218 -442 -560 -464 -668 -9 -41 10 -134 33 -165 10 -14 33 -33 50 -44
32 -18 38 -18 201 -2 123 12 248 17 453 15 309 -2 321 0 366 57 60 76 23 199
-67 223 -20 6 -173 11 -339 13 -167 1 -303 6 -303 11 0 14 80 112 200 247 140
157 228 268 270 343 65 116 47 232 -47 304 -81 61 -141 63 -450 17 -67 -10
-125 -16 -128 -12 -4 3 5 29 19 57 61 119 11 221 -116 237 -31 4 -52 0 -78
-14z"/>
<path d="M1675 5061 c-225 -59 -388 -172 -533 -369 -87 -117 -98 -173 -51
-250 32 -53 86 -72 210 -72 105 0 264 -21 299 -40 35 -19 48 -40 75 -121 18
-52 40 -95 61 -119 97 -107 254 -49 254 93 0 50 -38 175 -72 240 -56 104 -162
180 -298 211 -34 8 -64 17 -67 20 -7 6 92 70 142 91 22 9 60 21 85 26 80 18
140 85 140 155 0 51 -37 111 -84 133 -51 25 -70 25 -161 2z"/>
<path d="M4155 4774 c-100 -25 -253 -90 -342 -145 -90 -56 -82 -202 12 -249
51 -25 103 -17 185 28 73 39 193 82 231 82 25 0 25 -34 -1 -131 -25 -94 -63
-192 -134 -345 -70 -152 -72 -176 -13 -261 30 -45 55 -69 86 -84 43 -22 44
-22 140 -4 258 47 421 65 476 51 27 -7 27 -9 22 -59 -9 -68 -42 -177 -112
-367 -32 -85 -60 -173 -62 -195 -12 -113 116 -194 208 -132 49 33 70 70 137
239 132 335 159 505 102 634 -24 55 -91 121 -149 147 -64 29 -218 34 -375 12
-65 -9 -120 -14 -122 -12 -2 2 12 48 32 102 106 297 103 495 -9 613 -55 58
-101 75 -202 78 -49 2 -99 1 -110 -2z"/>
<path d="M2065 3964 c-197 -76 -314 -105 -475 -120 -85 -7 -117 -20 -153 -64
-62 -73 -36 -190 53 -238 40 -21 53 -23 122 -18 94 7 162 23 338 82 263 88
315 128 308 236 -5 65 -29 100 -85 124 -40 17 -58 17 -108 -2z"/>
<path d="M3723 3685 c-112 -30 -205 -77 -356 -178 -70 -47 -93 -67 -108 -100
-23 -53 -23 -71 1 -124 24 -53 70 -83 129 -83 37 0 64 12 168 74 122 73 208
114 219 103 12 -11 -59 -194 -132 -340 -57 -114 -84 -157 -105 -169 -86 -50
-93 -184 -13 -247 46 -36 97 -44 162 -26 175 50 355 132 480 218 80 55 112 89
144 151 93 181 -146 319 -262 151 -24 -35 -60 -65 -60 -50 0 2 13 37 30 78 47
117 64 194 64 287 0 73 -4 92 -27 137 -58 113 -186 158 -334 118z"/>
<path d="M2347 3400 c-159 -30 -279 -68 -310 -98 -97 -93 -25 -272 110 -272
23 0 104 15 180 34 162 39 223 49 240 38 17 -11 -4 -92 -53 -203 -44 -98 -49
-153 -18 -196 46 -62 129 -79 199 -40 33 18 47 37 82 107 65 132 95 233 101
331 7 143 -36 232 -142 286 -46 25 -63 27 -171 30 -85 1 -149 -3 -218 -17z"/>
<path d="M1200 3131 c-177 -57 -251 -185 -184 -319 28 -56 68 -87 130 -100 35
-7 39 -11 42 -42 2 -19 -4 -138 -13 -264 -42 -543 11 -733 200 -730 115 1 215
85 215 180 0 17 9 27 33 38 45 19 68 49 111 146 68 154 175 312 253 373 l25
20 -4 -254 c-4 -228 -8 -268 -33 -390 l-28 -137 22 -44 c52 -108 195 -117 255
-16 21 34 81 323 95 453 5 55 13 165 16 245 7 209 -20 307 -111 395 -112 109
-272 96 -426 -35 -72 -60 -160 -159 -211 -237 -23 -35 -43 -60 -45 -54 -2 5 4
96 12 202 23 304 4 412 -89 506 -39 38 -66 55 -105 67 -67 20 -91 19 -160 -3z"/>
<path d="M4803 2835 c-90 -45 -139 -140 -126 -245 l6 -49 -44 -11 c-120 -31
-160 -44 -234 -80 -151 -73 -253 -181 -293 -309 -23 -77 -23 -271 1 -361 24
-87 70 -180 120 -236 32 -36 37 -48 26 -55 -8 -5 -17 -9 -21 -9 -4 0 -30 -20
-58 -45 -28 -25 -52 -45 -55 -45 -2 0 -53 16 -114 35 -147 46 -228 59 -320 52
-224 -19 -409 -143 -593 -399 -35 -48 -71 -90 -82 -94 -10 -3 -47 -31 -83 -61
-36 -30 -77 -61 -92 -69 -120 -63 -271 96 -380 401 -24 67 -42 99 -70 126
-118 115 -311 3 -311 -180 0 -89 95 -323 173 -425 85 -112 193 -209 285 -255
206 -104 451 -74 640 79 33 26 69 51 80 54 40 13 70 47 138 157 81 130 157
218 222 257 68 39 134 36 293 -16 193 -62 279 -65 395 -11 59 28 148 109 181
167 23 38 27 57 27 114 -1 64 0 68 21 68 32 0 101 26 137 51 37 27 78 111 77
159 0 76 -44 155 -115 208 -53 40 -84 96 -84 155 0 69 29 87 232 138 68 17
145 43 172 58 107 57 187 168 206 284 10 63 -3 200 -23 249 -23 54 -86 118
-142 144 -67 32 -127 31 -192 -1z"/>
<path d="M3260 2433 c-306 -50 -554 -110 -612 -148 -46 -30 -86 -97 -94 -157
-10 -70 29 -147 92 -184 67 -40 116 -36 309 19 164 48 308 77 376 77 l39 0 -6
-59 c-9 -81 1 -125 39 -168 89 -101 244 -95 320 13 54 77 73 273 37 380 -56
162 -178 236 -385 233 -49 -1 -101 -4 -115 -6z"/>
</g>
</svg>
