<?xml version="1.0" standalone="no"?>
<!DOCTYPE svg PUBLIC "-//W3C//DTD SVG 20010904//EN"
 "http://www.w3.org/TR/2001/REC-SVG-20010904/DTD/svg10.dtd">
<svg version="1.0" xmlns="http://www.w3.org/2000/svg"
 width="600.000000pt" height="600.000000pt" viewBox="0 0 600.000000 600.000000"
 preserveAspectRatio="xMidYMid meet">
<metadata>
Created by potrace 1.15, written by Peter Selinger 2001-2017
</metadata>
<g transform="translate(0.000000,600.000000) scale(0.100000,-0.100000)"
fill="#16364b" stroke="none">
<path d="M3537 5282 c-46 -50 -34 -124 38 -227 97 -142 255 -181 255 -64 0 78
-115 254 -192 295 -37 19 -82 18 -101 -4z m150 -208 c-5 -6 -47 59 -47 72 0 5
12 -9 26 -29 14 -21 24 -41 21 -43z"/>
<path d="M3038 5088 c-93 -25 -168 -134 -176 -255 -4 -70 -4 -73 26 -102 53
-54 119 -34 210 63 115 121 126 250 27 292 -38 16 -36 16 -87 2z m58 -103 c10
-24 -34 -100 -81 -144 -49 -45 -65 -51 -65 -22 0 54 45 132 94 162 37 23 45
23 52 4z"/>
<path d="M4761 4741 c-14 -11 -26 -34 -32 -62 -11 -61 -11 -222 1 -375 15
-181 42 -234 119 -234 69 0 121 90 121 208 0 133 -64 443 -96 467 -26 20 -84
18 -113 -4z"/>
<path d="M2652 4200 c-42 -26 -65 -79 -54 -123 23 -90 277 -174 441 -146 87
16 121 47 121 114 0 67 -23 83 -182 130 -168 48 -276 57 -326 25z"/>
<path d="M5208 3977 c-97 -28 -173 -105 -199 -202 -18 -66 -7 -182 25 -250 35
-77 108 -147 184 -175 183 -69 448 66 492 251 33 135 -36 250 -201 338 -68 37
-85 41 -165 46 -58 3 -105 0 -136 -8z m168 -297 c26 -10 26 -11 9 -30 -25 -28
-59 -26 -73 5 -7 14 -12 28 -12 30 0 9 48 5 76 -5z"/>
<path d="M1402 3957 c-93 -34 -159 -137 -149 -232 3 -30 15 -74 26 -99 23 -53
105 -137 159 -165 68 -35 107 -97 155 -246 92 -280 170 -718 193 -1080 8 -126
21 -266 29 -311 52 -279 188 -475 400 -575 62 -30 201 -69 242 -69 12 0 23 -3
23 -7 0 -5 -31 -28 -67 -53 -176 -119 -248 -255 -178 -338 41 -49 98 -62 328
-76 114 -7 210 -16 213 -19 3 -3 -21 -19 -54 -36 -74 -38 -102 -71 -102 -123
0 -77 81 -118 158 -79 85 43 172 165 172 240 0 47 -33 113 -67 133 -44 25
-135 38 -278 38 -157 0 -225 8 -225 25 0 23 97 101 235 188 l135 86 397 3 398
3 -3 -41 c-8 -109 69 -183 228 -218 23 -5 25 -9 22 -45 -5 -48 10 -76 51 -101
98 -60 287 27 287 131 0 82 -66 126 -235 153 -148 25 -207 43 -203 64 2 12 21
20 62 29 33 6 70 16 83 22 13 6 46 11 73 11 79 0 273 28 346 51 65 20 200 79
429 189 169 81 279 189 355 345 59 121 75 190 75 335 0 143 -13 196 -77 325
-79 160 -195 283 -327 348 -83 41 -86 42 -190 42 -128 0 -221 -26 -313 -89
-122 -83 -163 -106 -237 -135 -146 -55 -217 -66 -431 -65 -178 0 -203 2 -292
26 -198 54 -344 143 -511 311 -103 104 -186 209 -349 444 -191 273 -312 409
-448 502 -73 50 -244 135 -310 155 -62 19 -180 20 -228 3z m261 -244 c228
-115 309 -196 555 -563 379 -565 629 -761 1085 -847 131 -25 420 -24 537 1
161 35 297 93 436 189 103 71 165 91 258 85 149 -10 260 -113 334 -310 83
-221 -18 -474 -248 -623 -113 -73 -364 -183 -490 -214 -156 -40 -266 -44 -980
-44 l-685 0 -80 26 c-134 44 -220 116 -277 232 -57 113 -82 238 -103 505 -8
107 -33 297 -59 450 -125 736 -196 933 -373 1035 -93 54 -125 101 -85 125 27
16 74 3 175 -47z"/>
<path d="M2352 2474 c-42 -29 -23 -91 34 -108 31 -9 74 28 74 64 0 32 -31 60
-65 60 -11 0 -31 -7 -43 -16z"/>
<path d="M2822 2064 c-51 -36 -1 -136 60 -121 47 12 64 95 26 121 -29 20 -58
20 -86 0z"/>
<path d="M4170 3755 c-75 -24 -140 -82 -180 -159 -31 -62 -35 -77 -35 -150 0
-64 5 -89 22 -122 99 -185 352 -215 508 -60 57 58 79 125 72 220 -7 97 -32
173 -70 211 -67 66 -210 93 -317 60z m120 -274 c0 -23 -25 -51 -46 -51 -19 0
-18 29 3 52 21 24 43 23 43 -1z"/>
<path d="M3436 3328 c-39 -52 -136 -258 -136 -289 0 -33 30 -54 63 -45 44 11
161 203 173 284 12 79 -53 112 -100 50z"/>
<path d="M483 2010 c-12 -5 -25 -21 -29 -36 -8 -33 11 -51 131 -123 136 -81
197 -97 228 -63 23 25 21 58 -4 83 -20 20 -241 130 -284 142 -11 3 -30 2 -42
-3z"/>
<path d="M5310 1092 c-28 -28 -60 -113 -60 -159 0 -37 30 -101 55 -117 31 -20
84 -20 113 0 32 22 59 81 67 146 14 111 -15 158 -96 158 -42 0 -55 -5 -79 -28z"/>
</g>
</svg>
