<?xml version="1.0" standalone="no"?>
<!DOCTYPE svg PUBLIC "-//W3C//DTD SVG 20010904//EN"
 "http://www.w3.org/TR/2001/REC-SVG-20010904/DTD/svg10.dtd">
<svg version="1.0" xmlns="http://www.w3.org/2000/svg"
 width="600.000000pt" height="600.000000pt" viewBox="0 0 600.000000 600.000000"
 preserveAspectRatio="xMidYMid meet">
<metadata>
Created by potrace 1.15, written by Peter Selinger 2001-2017
</metadata>
<g transform="translate(0.000000,600.000000) scale(0.100000,-0.100000)"
fill="#16364b" stroke="none">
<path d="M2176 5444 c-124 -39 -206 -134 -251 -288 -15 -51 -16 -90 -10 -334
5 -170 3 -386 -4 -557 -6 -154 -16 -489 -21 -745 -6 -256 -13 -494 -17 -529
l-6 -63 -72 6 c-104 9 -242 49 -392 113 l-132 56 -3 46 c-2 34 -7 47 -20 49
-13 3 -18 -3 -18 -22 0 -42 -14 -37 -43 15 -38 67 -62 67 -54 -1 3 -27 4 -50
2 -50 -2 0 -20 10 -40 21 -27 16 -39 19 -48 10 -8 -8 -2 -20 24 -47 l34 -36
-40 4 c-29 2 -41 -1 -43 -12 -2 -11 47 -38 163 -93 292 -138 440 -189 588
-203 40 -3 77 -11 83 -16 9 -6 12 -112 13 -371 2 -399 10 -482 61 -647 48
-154 123 -268 225 -345 91 -68 187 -110 414 -181 8 -3 11 -13 8 -27 -3 -12 -9
-78 -12 -147 -8 -151 12 -343 50 -473 14 -48 25 -94 25 -102 0 -12 -16 -15
-83 -15 -104 0 -146 -19 -166 -76 -39 -110 89 -176 249 -128 153 45 204 149
145 296 -50 126 -67 215 -72 373 -4 130 5 257 21 272 2 3 57 0 123 -6 324 -29
595 -43 711 -37 l124 6 -9 -42 c-4 -24 -8 -88 -7 -143 0 -112 26 -220 95 -404
22 -57 37 -107 33 -110 -3 -3 -50 -8 -105 -11 -98 -5 -101 -6 -130 -38 -31
-34 -35 -55 -19 -96 16 -44 65 -66 147 -66 92 0 166 27 215 77 74 76 75 114 4
292 -76 189 -100 286 -99 391 1 47 8 105 16 130 l14 45 69 12 c38 6 130 19
204 27 224 26 300 52 389 132 124 111 174 306 175 679 2 420 -47 563 -278 811
-36 40 -66 74 -66 77 0 3 30 10 68 16 189 32 344 85 504 172 134 74 246 189
183 189 -8 0 -11 8 -8 20 6 21 -2 24 -45 20 -19 -1 -23 2 -18 18 4 12 0 24
-10 33 -14 11 -20 9 -43 -19 -31 -38 -39 -40 -43 -10 -2 13 -11 24 -20 26 -15
3 -18 -4 -18 -50 l0 -54 -88 -47 c-149 -78 -358 -139 -528 -154 l-74 -6 -73
70 c-97 93 -184 161 -357 278 -455 308 -563 392 -698 545 -201 227 -279 420
-343 844 -11 72 -24 162 -30 200 -38 250 -202 428 -406 441 -45 3 -84 0 -117
-11z m202 -165 c86 -42 150 -159 171 -314 54 -389 146 -727 244 -889 114 -189
313 -385 548 -540 533 -352 562 -376 800 -633 79 -86 149 -161 154 -167 139
-148 192 -245 213 -393 22 -153 21 -506 -2 -628 -31 -162 -96 -264 -195 -307
-50 -21 -527 -80 -756 -93 -195 -10 -569 13 -850 53 -456 66 -609 218 -677
672 -16 112 -17 742 -1 995 21 320 35 879 38 1494 2 581 2 586 24 637 52 120
175 168 289 113z"/>
<path d="M2602 2884 c-46 -32 -11 -124 48 -124 33 0 48 15 56 58 5 25 1 36
-19 56 -30 30 -53 33 -85 10z"/>
<path d="M3153 2808 c-29 -38 -19 -79 27 -103 36 -19 66 -7 80 31 14 35 13 41
-10 64 -23 23 -82 27 -97 8z"/>
<path d="M2810 1906 c-18 -18 -11 -55 13 -70 38 -25 114 -29 276 -16 160 13
191 23 191 60 0 10 -6 23 -13 29 -17 13 -453 10 -467 -3z"/>
</g>
</svg>
