<?xml version="1.0" standalone="no"?>
<!DOCTYPE svg PUBLIC "-//W3C//DTD SVG 20010904//EN"
 "http://www.w3.org/TR/2001/REC-SVG-20010904/DTD/svg10.dtd">
<svg version="1.0" xmlns="http://www.w3.org/2000/svg"
 width="600.000000pt" height="600.000000pt" viewBox="0 0 600.000000 600.000000"
 preserveAspectRatio="xMidYMid meet">
<metadata>
Created by potrace 1.15, written by Peter Selinger 2001-2017
</metadata>
<g transform="translate(0.000000,600.000000) scale(0.100000,-0.100000)"
fill="#16364b" stroke="none">
<path d="M3526 5248 c-27 -39 -19 -79 30 -153 56 -87 98 -131 146 -156 45 -23
67 -24 96 -3 30 21 30 85 0 141 -39 71 -114 159 -151 176 -51 24 -102 22 -121
-5z m162 -173 c-3 -4 -16 9 -28 27 l-23 33 28 -27 c16 -15 26 -30 23 -33z"/>
<path d="M3015 5092 c-85 -41 -149 -151 -150 -259 0 -144 106 -177 223 -68 91
84 135 192 106 263 -29 71 -106 98 -179 64z m85 -109 c0 -41 -37 -108 -81
-148 -48 -43 -63 -38 -54 19 13 77 73 154 123 156 6 0 12 -12 12 -27z"/>
<path d="M4763 4752 c-12 -9 -27 -30 -32 -45 -24 -64 -4 -456 29 -571 21 -72
83 -110 137 -84 43 20 65 77 71 183 6 112 -9 220 -50 378 -24 92 -36 122 -56
137 -30 24 -70 25 -99 2z"/>
<path d="M2638 4213 c-61 -39 -61 -129 0 -190 85 -85 285 -135 407 -102 79 22
120 90 90 152 -19 42 -22 43 -215 103 -177 55 -242 63 -282 37z"/>
<path d="M5296 3989 c-108 -26 -217 -114 -263 -215 -21 -47 -25 -66 -21 -132
4 -95 31 -154 100 -222 68 -67 140 -94 228 -87 146 13 286 92 343 196 42 74
48 171 16 256 -27 72 -99 147 -179 188 -44 22 -68 27 -120 26 -36 -1 -82 -5
-104 -10z m116 -316 c13 -7 -10 -41 -32 -48 -27 -9 -50 11 -50 42 0 24 2 25
37 18 21 -4 41 -9 45 -12z"/>
<path d="M1412 3941 c-65 -22 -126 -79 -148 -138 -45 -118 31 -271 183 -369
100 -65 135 -145 225 -519 103 -429 103 -430 117 -702 14 -267 65 -497 147
-670 87 -183 208 -273 439 -329 61 -14 111 -27 112 -28 2 -2 -30 -23 -70 -49
-83 -52 -181 -150 -202 -201 -8 -20 -15 -54 -15 -76 0 -64 23 -98 88 -128 57
-27 58 -27 270 -25 116 1 212 -1 212 -6 0 -4 -22 -18 -50 -31 -71 -33 -105
-72 -105 -119 0 -48 16 -68 66 -82 52 -16 114 8 174 67 108 104 114 246 13
301 -29 16 -64 18 -263 21 -126 2 -234 7 -239 13 -12 11 32 59 92 101 24 16
106 63 183 104 l140 74 374 0 375 0 0 -33 c0 -116 77 -183 233 -202 l57 -7 -6
-38 c-12 -71 39 -113 136 -113 73 0 133 26 175 76 42 49 47 102 14 148 -30 43
-69 59 -167 70 -166 18 -248 31 -261 39 -24 14 -2 28 66 40 36 6 74 15 83 20
9 5 72 16 140 25 209 27 316 61 600 192 138 63 186 92 264 158 77 66 145 154
196 255 57 113 71 170 71 290 0 133 -24 230 -92 368 -131 270 -380 395 -666
336 -89 -18 -154 -49 -238 -111 -76 -57 -111 -75 -213 -107 -122 -38 -249 -56
-402 -56 -255 1 -435 62 -669 228 -136 96 -240 211 -355 392 -185 291 -201
315 -279 412 -128 159 -237 246 -436 347 -164 83 -262 99 -369 62z m159 -223
c19 -6 52 -23 74 -38 22 -14 65 -39 96 -54 79 -39 175 -113 255 -198 76 -80
120 -141 238 -328 127 -201 191 -280 341 -419 194 -180 409 -311 597 -365 353
-101 909 -17 1108 169 14 12 45 33 70 46 39 21 59 24 155 24 109 0 112 -1 169
-35 81 -49 150 -139 206 -270 29 -68 38 -181 20 -247 -34 -125 -150 -281 -269
-362 -111 -76 -326 -175 -446 -207 -177 -47 -596 -69 -1045 -55 -461 15 -693
45 -842 110 -58 24 -131 90 -164 146 -73 125 -134 392 -134 588 0 132 -16 244
-65 472 -24 110 -55 261 -70 335 -63 322 -142 467 -318 587 -101 69 -84 138
24 101z"/>
<path d="M2382 2484 c-33 -23 -29 -67 7 -93 37 -27 52 -26 79 2 41 44 16 107
-43 107 -11 0 -31 -7 -43 -16z"/>
<path d="M2830 2077 c-54 -28 -48 -83 12 -117 25 -14 29 -13 52 9 26 24 34 64
18 88 -14 22 -57 32 -82 20z"/>
<path d="M4214 3756 c-153 -38 -254 -165 -254 -319 0 -106 51 -185 154 -240
33 -17 58 -22 126 -22 73 0 93 4 142 28 69 34 121 91 149 166 18 47 20 72 17
157 -6 131 -20 157 -108 201 -76 38 -152 48 -226 29z m76 -267 c0 -23 -22 -49
-40 -49 -24 0 -26 17 -3 42 18 20 43 24 43 7z"/>
<path d="M3447 3345 c-38 -41 -159 -293 -152 -315 8 -26 40 -43 66 -35 45 15
172 222 185 303 11 68 -51 98 -99 47z"/>
<path d="M466 2011 c-27 -29 -13 -54 65 -120 83 -69 175 -121 216 -121 40 0
67 31 59 65 -8 29 -56 66 -188 143 -99 56 -126 62 -152 33z"/>
<path d="M5343 1105 c-28 -20 -63 -114 -63 -171 0 -80 38 -123 107 -124 74 0
123 72 123 183 0 26 -7 61 -15 76 -24 47 -109 66 -152 36z"/>
</g>
</svg>
