<?xml version="1.0" standalone="no"?>
<!DOCTYPE svg PUBLIC "-//W3C//DTD SVG 20010904//EN"
 "http://www.w3.org/TR/2001/REC-SVG-20010904/DTD/svg10.dtd">
<svg version="1.0" xmlns="http://www.w3.org/2000/svg"
 width="600.000000pt" height="600.000000pt" viewBox="0 0 600.000000 600.000000"
 preserveAspectRatio="xMidYMid meet">
<metadata>
Created by potrace 1.15, written by Peter Selinger 2001-2017
</metadata>
<g transform="translate(0.000000,600.000000) scale(0.100000,-0.100000)"
fill="#16364b" stroke="none">
<path d="M2405 5418 c-40 -21 -45 -39 -45 -147 0 -130 -24 -349 -50 -454 -38
-151 -103 -232 -238 -294 -95 -43 -112 -58 -112 -95 0 -41 15 -64 50 -76 37
-13 66 -5 176 48 145 70 237 185 279 350 40 154 72 574 49 635 -7 17 -54 45
-76 45 -7 0 -22 -6 -33 -12z"/>
<path d="M3538 5286 c-21 -16 -38 -58 -38 -95 0 -63 125 -222 206 -261 57 -28
90 -26 125 9 23 24 29 38 29 73 0 85 -100 231 -185 269 -47 22 -113 24 -137 5z"/>
<path d="M3010 5107 c-45 -14 -120 -89 -149 -149 -53 -110 -32 -226 46 -262
51 -23 97 -12 180 43 61 41 109 108 133 185 24 77 -9 151 -80 180 -46 18 -79
19 -130 3z m50 -162 c0 -16 -35 -74 -52 -84 -26 -16 -33 -8 -18 21 22 41 70
85 70 63z"/>
<path d="M4753 4750 c-17 -10 -36 -27 -41 -37 -18 -33 -24 -147 -12 -238 25
-200 80 -347 153 -410 39 -34 46 -36 95 -33 41 4 59 11 84 34 119 112 95 367
-57 579 -87 122 -147 151 -222 105z"/>
<path d="M2645 4205 c-104 -40 -151 -141 -109 -231 46 -96 223 -168 356 -144
122 22 251 108 264 175 8 43 -11 102 -39 120 -12 8 -74 30 -137 51 -137 43
-268 54 -335 29z"/>
<path d="M1107 4136 c-14 -13 -29 -37 -33 -53 -4 -15 -13 -37 -20 -48 -18 -25
-18 -99 0 -159 38 -126 147 -183 267 -141 119 42 166 172 100 277 -34 53 -67
78 -156 119 -80 36 -123 37 -158 5z"/>
<path d="M5272 3930 c-117 -25 -213 -95 -262 -192 -76 -154 -4 -356 156 -434
49 -24 62 -26 142 -22 105 6 166 31 232 98 56 55 89 124 103 210 18 121 -29
222 -142 299 -53 36 -71 42 -124 46 -34 2 -81 0 -105 -5z m83 -292 c7 -6 2
-16 -14 -29 -31 -25 -39 -24 -53 7 -10 21 -9 27 3 34 15 10 48 4 64 -12z"/>
<path d="M4197 3760 c-94 -24 -182 -95 -220 -179 -16 -35 -22 -66 -22 -126 0
-69 4 -86 27 -126 57 -97 141 -143 263 -143 103 -1 169 22 234 80 63 57 91
127 96 240 6 148 -18 191 -131 234 -66 25 -188 35 -247 20z m81 -282 c-18 -27
-58 -37 -58 -14 0 17 27 35 54 36 17 0 17 -2 4 -22z"/>
<path d="M3444 3371 c-17 -10 -47 -41 -67 -68 -45 -62 -127 -229 -127 -261 0
-33 51 -82 87 -82 65 0 150 80 209 196 58 114 57 196 -3 223 -35 16 -64 14
-99 -8z"/>
<path d="M1315 3249 c-77 -4 -170 -14 -207 -23 -158 -37 -269 -119 -330 -243
-32 -65 -33 -73 -33 -188 0 -118 1 -121 37 -197 73 -148 212 -252 370 -278 40
-6 97 -15 127 -21 158 -27 245 -151 371 -529 82 -248 131 -340 240 -450 91
-93 180 -147 310 -188 150 -48 110 -47 1000 -39 575 5 634 12 1015 117 252 69
348 115 488 231 231 192 340 409 354 709 9 201 -33 371 -122 492 -57 78 -169
163 -300 228 -223 111 -368 129 -546 70 -87 -28 -159 -63 -530 -252 -109 -56
-124 -61 -235 -75 -270 -37 -434 29 -849 338 -334 249 -413 282 -720 299 -180
10 -240 10 -440 -1z m480 -390 c214 -27 290 -66 545 -274 136 -112 201 -154
335 -220 187 -92 381 -136 615 -139 186 -2 243 19 605 214 132 71 270 123 360
134 95 12 199 -29 303 -120 89 -78 118 -164 110 -323 -10 -180 -69 -287 -212
-383 -270 -180 -541 -250 -1091 -279 -106 -6 -259 -7 -345 -3 -85 4 -270 8
-410 8 -244 1 -258 2 -313 25 -137 55 -195 146 -284 446 -77 261 -179 445
-319 573 -117 108 -227 159 -394 182 -88 12 -157 43 -172 76 -29 63 27 85 242
94 184 7 305 4 425 -11z"/>
<path d="M433 2080 c-12 -10 -24 -29 -28 -40 -7 -22 11 -80 26 -80 4 0 22 -27
40 -60 63 -118 181 -210 272 -210 87 0 128 101 75 187 -32 53 -122 126 -217
176 -96 51 -136 58 -168 27z"/>
<path d="M5237 1220 c-14 -11 -30 -20 -35 -20 -5 0 -26 -18 -46 -40 -32 -36
-36 -46 -36 -97 0 -103 52 -173 130 -173 48 0 86 25 109 73 25 52 44 187 31
221 -21 55 -104 75 -153 36z"/>
</g>
</svg>
