<?xml version="1.0" standalone="no"?>
<!DOCTYPE svg PUBLIC "-//W3C//DTD SVG 20010904//EN"
 "http://www.w3.org/TR/2001/REC-SVG-20010904/DTD/svg10.dtd">
<svg version="1.0" xmlns="http://www.w3.org/2000/svg"
 width="600.000000pt" height="600.000000pt" viewBox="0 0 600.000000 600.000000"
 preserveAspectRatio="xMidYMid meet">
<metadata>
Created by potrace 1.15, written by Peter Selinger 2001-2017
</metadata>
<g transform="translate(0.000000,600.000000) scale(0.100000,-0.100000)"
fill="#16364b" stroke="none">
<path d="M2245 5443 c-71 -18 -115 -102 -123 -235 -4 -69 -1 -98 13 -133 50
-133 148 -171 375 -145 61 7 113 10 116 8 3 -3 -34 -79 -81 -169 -164 -311
-215 -423 -215 -471 0 -102 96 -163 191 -120 57 25 68 39 118 149 44 97 78
159 180 336 136 234 163 326 126 423 -38 101 -125 164 -235 172 -56 4 -215
-16 -273 -34 -16 -5 -18 -3 -10 18 4 12 8 46 8 75 0 44 -5 56 -29 82 -40 42
-102 59 -161 44z"/>
<path d="M3763 5161 c-100 -27 -179 -67 -204 -103 -30 -41 -35 -104 -12 -148
41 -79 132 -101 234 -56 71 31 126 41 145 25 34 -28 11 -154 -61 -349 -39
-104 -45 -132 -40 -167 16 -109 140 -158 224 -88 55 47 163 329 181 473 11 86
-1 194 -29 257 -25 56 -85 121 -135 148 -59 30 -205 34 -303 8z"/>
<path d="M1710 4924 c-134 -26 -484 -199 -532 -265 -48 -65 -25 -162 50 -211
26 -18 41 -36 45 -56 8 -40 60 -98 100 -111 18 -6 73 -17 122 -26 117 -20 280
-59 336 -81 24 -10 70 -34 103 -53 100 -59 194 -41 244 47 29 52 29 109 0 152
-45 66 -243 152 -508 220 -39 11 -42 13 -25 23 38 21 131 37 218 37 122 0 172
30 198 117 10 36 10 49 -5 85 -37 96 -83 121 -221 124 -55 1 -111 0 -125 -2z"/>
<path d="M3010 4294 c-317 -76 -510 -137 -551 -171 -39 -33 -59 -73 -59 -120
0 -80 64 -146 138 -145 20 0 91 21 158 46 66 25 242 75 390 111 149 36 284 74
302 85 101 62 92 200 -15 246 -50 21 -78 17 -363 -52z"/>
<path d="M4278 4270 c-79 -10 -127 -36 -153 -83 -24 -45 -16 -118 16 -154 47
-50 62 -52 280 -50 166 2 210 -1 234 -13 30 -15 30 -16 29 -95 0 -61 -9 -111
-37 -208 -20 -71 -37 -148 -37 -170 0 -119 122 -195 217 -137 41 25 49 40 84
173 63 241 77 340 59 436 -29 162 -139 269 -306 300 -65 12 -284 12 -386 1z"/>
<path d="M2100 3890 c-125 -38 -306 -71 -423 -77 -98 -5 -124 -10 -150 -27
-90 -60 -88 -202 3 -263 63 -43 255 -27 595 48 77 17 152 37 167 45 89 46 102
178 23 254 -30 29 -42 34 -92 37 -37 1 -82 -5 -123 -17z"/>
<path d="M3685 3740 c-44 -10 -139 -52 -225 -99 -271 -146 -345 -189 -363
-213 -29 -39 -34 -123 -9 -168 23 -42 84 -80 130 -80 23 0 98 33 238 105 137
70 204 100 204 91 0 -8 -18 -57 -40 -107 -53 -122 -53 -158 -1 -210 36 -36 43
-39 95 -39 64 0 103 16 138 58 29 34 111 225 132 307 22 81 20 180 -3 230 -48
104 -172 156 -296 125z"/>
<path d="M2035 3266 c-110 -49 -128 -235 -28 -302 24 -16 43 -18 138 -14 148
7 292 6 299 0 3 -3 -2 -32 -10 -63 -11 -44 -12 -66 -4 -96 13 -48 62 -98 113
-113 32 -10 45 -8 85 8 58 24 86 70 108 176 48 224 -49 362 -284 404 -102 18
-376 18 -417 0z"/>
<path d="M4929 3216 c-61 -22 -96 -54 -128 -118 -29 -56 -31 -69 -31 -164 0
-124 -2 -127 -154 -242 -130 -98 -183 -152 -234 -238 -145 -243 -132 -524 31
-701 56 -61 103 -83 175 -83 75 0 138 37 179 107 24 41 28 58 28 123 0 57 -6
86 -23 119 -29 58 -28 122 2 186 20 45 37 60 145 134 141 97 211 169 257 265
50 105 68 198 62 330 -7 134 -24 182 -84 235 -64 57 -149 74 -225 47z"/>
<path d="M4245 3153 c-16 -9 -51 -35 -76 -58 -56 -52 -104 -83 -220 -141 -124
-62 -257 -112 -356 -134 -45 -10 -97 -26 -114 -36 -85 -50 -91 -191 -11 -254
61 -49 150 -45 357 15 255 74 623 322 654 441 11 43 3 89 -23 129 -33 51 -148
72 -211 38z"/>
<path d="M1270 3031 c-83 -25 -143 -94 -156 -178 -9 -58 16 -122 63 -164 43
-37 44 -41 73 -349 24 -255 40 -346 80 -464 56 -165 110 -224 219 -233 150
-13 234 127 167 278 -50 116 -78 264 -96 524 -19 265 -39 366 -95 460 -51 88
-176 149 -255 126z"/>
<path d="M2059 2536 c-163 -47 -364 -241 -384 -371 -13 -81 69 -174 153 -175
52 0 87 24 147 104 54 73 125 136 152 136 7 0 19 -15 27 -33 7 -19 26 -43 41
-55 l27 -22 -31 -73 c-55 -134 -72 -293 -51 -482 13 -113 23 -145 58 -177 72
-69 196 -51 247 36 20 32 21 54 10 241 -7 138 -3 161 60 337 22 62 14 108 -29
156 -25 28 -31 42 -25 57 23 60 -11 173 -73 241 -21 23 -62 52 -91 64 -63 28
-172 35 -238 16z"/>
<path d="M3600 2223 c-197 -15 -577 -80 -790 -134 -113 -29 -170 -92 -170
-189 0 -63 27 -119 76 -156 51 -40 118 -42 279 -10 127 25 620 96 667 96 14 0
37 -13 54 -31 46 -48 80 -62 143 -57 148 11 233 163 167 303 -12 28 -34 64
-49 80 -35 43 -123 83 -204 95 -67 9 -85 10 -173 3z"/>
<path d="M4488 1557 c-20 -12 -46 -35 -58 -50 -44 -56 -89 -69 -270 -78 -331
-17 -521 -66 -687 -176 -79 -52 -209 -177 -249 -239 -28 -44 -39 -52 -73 -58
-23 -3 -57 -20 -83 -41 -111 -90 -189 -120 -282 -112 -135 12 -272 115 -439
331 -69 90 -201 103 -280 28 -54 -50 -75 -124 -57 -191 14 -51 77 -137 176
-236 149 -150 301 -246 453 -287 98 -26 259 -28 351 -5 135 35 323 154 379
240 17 25 32 37 48 37 46 0 94 30 183 114 157 149 237 182 485 196 225 13 268
18 343 42 178 55 351 212 352 321 0 36 -25 95 -53 125 -59 64 -170 82 -239 39z"/>
</g>
</svg>
