<?xml version="1.0" standalone="no"?>
<!DOCTYPE svg PUBLIC "-//W3C//DTD SVG 20010904//EN"
 "http://www.w3.org/TR/2001/REC-SVG-20010904/DTD/svg10.dtd">
<svg version="1.0" xmlns="http://www.w3.org/2000/svg"
 width="600.000000pt" height="600.000000pt" viewBox="0 0 600.000000 600.000000"
 preserveAspectRatio="xMidYMid meet">
<metadata>
Created by potrace 1.15, written by Peter Selinger 2001-2017
</metadata>
<g transform="translate(0.000000,600.000000) scale(0.100000,-0.100000)"
fill="#16364b" stroke="none">
<path d="M3022 5093 c-105 -58 -173 -194 -142 -287 13 -40 43 -66 78 -66 91 0
222 157 222 268 0 85 -79 127 -158 85z m88 -88 c0 -49 -30 -103 -85 -154 -50
-46 -78 -50 -83 -12 -11 77 73 201 136 201 30 0 32 -2 32 -35z"/>
<path d="M4772 4725 c-12 -14 -22 -48 -25 -82 -11 -109 -18 -458 -10 -502 16
-88 98 -107 135 -31 14 30 17 78 20 317 3 264 2 283 -16 302 -27 30 -79 28
-104 -4z"/>
<path d="M1706 4446 c-49 -18 -100 -68 -127 -124 -39 -80 -13 -217 57 -297 61
-70 84 -159 124 -470 38 -301 50 -459 50 -655 0 -187 16 -541 30 -665 18 -152
59 -389 89 -510 75 -294 217 -422 545 -490 44 -9 82 -18 86 -20 4 -2 3 -28 -1
-57 -27 -187 4 -434 78 -631 14 -38 22 -71 18 -75 -4 -4 -50 -9 -102 -12 -92
-6 -96 -7 -124 -38 -68 -76 -2 -162 123 -162 69 0 153 25 196 57 79 60 91 133
42 254 -69 172 -100 382 -80 548 6 52 13 97 15 99 2 2 50 -1 107 -8 64 -8 240
-13 470 -14 l367 -1 -6 -81 c-9 -133 37 -361 107 -526 46 -108 46 -108 -55
-108 -129 0 -175 -26 -175 -100 0 -97 140 -149 276 -103 65 22 101 49 130 99
36 61 31 105 -25 253 -86 223 -124 455 -92 552 11 34 13 35 94 47 106 17 504
108 575 133 118 41 222 125 304 247 185 274 184 528 -2 774 -60 79 -142 147
-225 188 -61 29 -229 66 -505 110 -103 17 -204 44 -430 117 -162 52 -327 110
-366 128 -140 64 -341 218 -468 357 -75 83 -181 243 -331 498 -131 223 -188
300 -364 487 -112 120 -155 158 -199 180 -66 32 -149 40 -206 19z m141 -152
c19 -9 55 -42 81 -72 26 -31 67 -74 91 -96 110 -103 237 -286 405 -584 121
-214 215 -340 347 -466 225 -214 363 -292 734 -416 356 -120 388 -129 530
-151 212 -33 434 -79 482 -100 73 -31 166 -133 215 -235 39 -81 43 -96 46
-184 4 -110 -13 -178 -71 -282 -43 -77 -149 -181 -213 -209 -87 -39 -423 -119
-600 -144 -179 -25 -525 -37 -797 -26 -135 5 -263 14 -284 20 -21 5 -85 15
-142 21 -277 30 -460 114 -537 245 -96 165 -147 554 -174 1340 -10 277 -22
428 -56 705 -27 222 -70 352 -150 462 -50 67 -57 126 -21 162 30 30 64 33 114
10z"/>
<path d="M2477 2592 c-24 -26 -21 -49 8 -77 35 -36 80 -34 100 4 17 34 8 74
-20 85 -31 12 -72 6 -88 -12z"/>
<path d="M2960 2340 c-30 -7 -51 -45 -41 -74 5 -12 23 -29 40 -40 32 -18 33
-18 59 1 29 22 41 75 22 98 -13 16 -48 23 -80 15z"/>
<path d="M5247 3999 c-84 -20 -163 -82 -205 -163 -24 -45 -27 -62 -27 -151 0
-119 18 -167 90 -244 66 -71 131 -101 217 -101 121 0 220 55 287 158 95 148
84 314 -29 415 -77 69 -143 97 -225 96 -39 -1 -87 -5 -108 -10z m123 -319 c12
-7 12 -12 -4 -29 -32 -36 -66 -23 -66 25 0 16 46 19 70 4z"/>
<path d="M4185 3726 c-108 -51 -185 -163 -193 -281 -4 -62 -1 -78 21 -121 27
-53 75 -101 130 -131 48 -26 177 -24 238 3 98 45 166 136 176 238 8 74 -26
189 -69 233 -80 82 -203 106 -303 59z m125 -266 c0 -16 -26 -40 -44 -40 -11 0
-6 36 6 48 18 18 38 14 38 -8z"/>
<path d="M5333 1108 c-31 -15 -66 -91 -70 -152 -5 -67 21 -110 75 -126 91 -28
155 45 156 178 1 66 -2 76 -23 93 -26 21 -101 25 -138 7z"/>
</g>
</svg>
