<?xml version="1.0" standalone="no"?>
<!DOCTYPE svg PUBLIC "-//W3C//DTD SVG 20010904//EN"
 "http://www.w3.org/TR/2001/REC-SVG-20010904/DTD/svg10.dtd">
<svg version="1.0" xmlns="http://www.w3.org/2000/svg"
 width="600.000000pt" height="600.000000pt" viewBox="0 0 600.000000 600.000000"
 preserveAspectRatio="xMidYMid meet">
<metadata>
Created by potrace 1.15, written by Peter Selinger 2001-2017
</metadata>
<g transform="translate(0.000000,600.000000) scale(0.100000,-0.100000)"
fill="#16364b" stroke="none">
<path d="M3162 5672 c-42 -13 -80 -61 -117 -149 -80 -190 -92 -302 -42 -399
47 -92 142 -155 264 -174 32 -6 79 -13 105 -17 l48 -8 -98 -59 c-293 -178
-478 -321 -519 -399 -21 -42 -9 -175 21 -219 52 -77 166 -124 431 -177 83 -17
192 -42 243 -56 76 -21 99 -24 130 -16 38 11 80 47 101 88 26 52 3 146 -44
177 -32 21 -153 55 -357 102 -93 21 -168 40 -168 44 0 8 192 134 310 203 52
30 139 81 193 112 120 70 164 107 188 160 76 166 -87 311 -386 345 -55 6 -122
16 -149 22 l-48 11 6 44 c3 24 17 72 31 107 42 106 28 197 -38 240 -29 19 -75
27 -105 18z"/>
<path d="M1443 5405 c-89 -38 -220 -148 -306 -255 -81 -102 -178 -264 -221
-370 -40 -96 -76 -248 -76 -315 0 -145 165 -219 270 -120 40 38 445 153 466
133 3 -4 -14 -42 -39 -85 -115 -200 -165 -327 -174 -438 -4 -44 -13 -80 -24
-97 -26 -36 -26 -123 1 -162 29 -45 87 -76 141 -76 40 0 70 14 235 108 104 60
216 123 249 142 80 43 123 86 136 133 14 51 4 91 -32 132 -59 67 -131 69 -251
9 -38 -19 -71 -34 -73 -32 -2 2 28 59 66 128 80 145 109 227 109 314 0 74 -23
129 -75 179 -80 78 -186 85 -427 31 -88 -20 -161 -34 -163 -32 -6 6 104 178
155 242 48 61 109 120 187 183 85 67 75 195 -19 244 -44 22 -90 24 -135 4z"/>
<path d="M4600 4445 c-77 -15 -254 -62 -293 -77 -95 -37 -114 -175 -33 -246
54 -47 78 -48 225 -7 72 20 136 35 141 33 5 -2 -32 -59 -82 -128 -51 -69 -130
-179 -175 -244 -77 -112 -83 -123 -83 -170 0 -84 40 -136 123 -160 16 -5 16
-8 3 -28 -24 -37 -30 -99 -13 -141 20 -46 61 -71 140 -87 91 -17 272 -78 298
-99 l23 -18 -29 -49 c-16 -27 -70 -112 -120 -189 -114 -173 -125 -195 -125
-240 0 -49 34 -112 73 -135 41 -26 112 -26 152 -1 31 18 110 131 219 311 122
200 154 288 135 378 -28 135 -163 223 -484 312 -66 19 -124 37 -129 41 -10 8
22 56 159 239 226 302 289 413 289 520 1 86 -29 136 -105 174 -47 23 -64 26
-148 25 -53 0 -125 -7 -161 -14z"/>
<path d="M3842 3708 c-43 -14 -89 -68 -98 -114 -13 -68 9 -109 126 -229 92
-96 109 -118 115 -154 24 -141 211 -178 283 -55 18 31 22 50 19 94 -4 67 -21
104 -90 194 -28 38 -62 88 -74 111 -36 70 -137 143 -218 158 -16 3 -45 0 -63
-5z"/>
<path d="M2505 3643 c-110 -23 -291 -102 -349 -152 -25 -21 -56 -89 -56 -124
0 -41 36 -105 73 -127 58 -36 116 -27 217 31 90 51 203 94 227 85 26 -10 10
-114 -43 -271 -38 -115 -89 -210 -197 -373 -53 -78 -98 -155 -102 -171 -9 -40
10 -103 40 -133 14 -14 53 -42 87 -64 98 -60 137 -59 325 10 183 66 223 75
223 52 0 -24 -82 -229 -135 -338 -51 -104 -57 -156 -26 -223 53 -117 192 -145
280 -55 66 66 215 333 257 460 24 74 28 101 28 205 1 104 -3 128 -23 180 -34
85 -110 158 -187 181 -68 20 -179 15 -275 -12 -33 -9 -62 -14 -66 -11 -3 4 11
43 31 87 116 255 145 460 82 592 -38 80 -110 142 -193 168 -76 23 -121 24
-218 3z"/>
<path d="M1152 3440 c-86 -18 -204 -85 -334 -190 -73 -60 -100 -100 -106 -160
-6 -65 2 -93 39 -134 59 -68 153 -82 239 -37 22 11 40 18 40 15 0 -4 -22 -85
-50 -180 -27 -96 -59 -220 -71 -276 -25 -126 -34 -321 -21 -449 17 -156 53
-204 188 -253 85 -31 119 -32 160 -7 35 21 123 149 284 411 91 148 258 408
277 429 10 13 32 -40 32 -79 1 -70 -35 -322 -64 -455 -73 -336 -78 -369 -79
-491 -1 -115 0 -123 29 -179 56 -109 155 -151 244 -103 84 45 112 141 61 210
-34 47 -30 89 49 433 16 72 37 177 45 235 22 142 31 388 17 470 -6 36 -16 108
-21 160 -6 52 -15 111 -21 130 -29 93 -98 150 -181 150 -124 0 -239 -116 -494
-495 -54 -80 -99 -144 -100 -142 -3 3 39 196 85 387 70 288 75 398 24 493 -48
87 -158 130 -271 107z"/>
<path d="M3710 3186 c-174 -48 -350 -224 -350 -348 0 -71 43 -128 112 -149 74
-24 149 14 190 95 11 22 29 51 40 63 17 18 24 20 50 11 16 -6 65 -8 108 -6 97
6 164 36 191 88 83 154 -127 305 -341 246z"/>
<path d="M4620 2200 c-72 -38 -120 -117 -120 -196 0 -41 4 -41 -185 -14 -310
44 -469 15 -589 -107 -89 -90 -122 -184 -131 -378 -3 -71 -8 -147 -11 -168
l-6 -37 -66 61 c-234 212 -441 256 -609 129 -63 -47 -139 -148 -194 -259 -24
-49 -47 -90 -50 -90 -4 -1 -10 32 -14 72 -18 197 -67 401 -113 477 -83 134
-247 138 -338 8 -39 -55 -42 -110 -10 -186 31 -74 47 -145 76 -347 49 -347
106 -482 248 -594 79 -61 206 -94 276 -71 41 13 90 51 109 84 6 11 14 62 18
111 4 71 13 110 43 184 60 150 135 291 156 291 3 0 62 -52 131 -116 216 -201
303 -250 429 -242 102 8 183 57 247 153 18 27 49 69 67 92 45 55 76 184 84
353 l7 125 38 3 c21 2 102 -6 179 -18 102 -16 174 -21 258 -19 106 4 121 7
181 36 81 40 140 102 182 191 30 63 32 74 32 182 0 72 -5 130 -14 154 -18 51
-76 115 -126 137 -53 24 -139 24 -185 -1z"/>
</g>
</svg>
