<?xml version="1.0" standalone="no"?>
<!DOCTYPE svg PUBLIC "-//W3C//DTD SVG 20010904//EN"
 "http://www.w3.org/TR/2001/REC-SVG-20010904/DTD/svg10.dtd">
<svg version="1.0" xmlns="http://www.w3.org/2000/svg"
 width="600.000000pt" height="600.000000pt" viewBox="0 0 600.000000 600.000000"
 preserveAspectRatio="xMidYMid meet">
<metadata>
Created by potrace 1.15, written by Peter Selinger 2001-2017
</metadata>
<g transform="translate(0.000000,600.000000) scale(0.100000,-0.100000)"
fill="#16364b" stroke="none">
<path d="M2257 5551 c-132 -43 -231 -146 -276 -285 -37 -112 -44 -214 -46
-681 -2 -247 -8 -520 -14 -605 -6 -85 -14 -325 -17 -532 -4 -217 -11 -378 -16
-378 -18 0 -264 130 -333 176 -99 66 -174 127 -175 142 0 7 7 29 15 48 8 20
12 40 9 45 -10 18 -34 9 -48 -18 -17 -32 -21 -25 -30 52 -10 82 -40 88 -52 10
-3 -25 -10 -45 -14 -45 -4 0 -20 16 -35 36 -47 61 -57 21 -18 -75 4 -9 -7 -6
-31 9 -27 16 -41 19 -48 12 -15 -15 2 -38 129 -168 127 -130 189 -172 439
-301 l186 -95 -6 -42 c-15 -99 -36 -327 -36 -387 0 -109 45 -500 70 -616 18
-79 48 -169 76 -230 94 -201 272 -334 499 -374 l67 -11 -9 -62 c-13 -100 -8
-274 11 -366 9 -47 35 -138 57 -204 22 -65 38 -125 35 -132 -4 -10 -25 -14
-78 -14 -91 0 -136 -20 -161 -73 -50 -101 64 -164 223 -123 116 30 180 89 187
174 4 37 -3 67 -31 140 -77 196 -107 387 -86 535 16 115 24 125 86 109 85 -20
408 -35 672 -30 l254 5 -6 -39 c-25 -158 -12 -313 49 -553 19 -71 31 -133 29
-136 -2 -4 -39 -10 -82 -14 -92 -9 -138 -28 -157 -66 -45 -87 30 -160 147
-145 122 16 224 81 246 154 18 58 15 78 -23 216 -40 146 -65 303 -65 403 0 69
15 171 26 182 3 3 81 9 173 12 111 4 187 12 226 24 186 53 329 212 370 410 8
38 19 142 26 230 10 142 9 185 -10 380 -32 345 -80 475 -255 684 -37 44 -39
61 -7 61 31 0 285 86 363 123 117 56 206 131 287 243 52 73 63 104 36 104 -9
0 -12 6 -8 16 9 25 -17 34 -50 17 l-30 -15 6 30 c8 39 -10 58 -35 35 -10 -9
-18 -22 -18 -28 0 -7 -6 -18 -14 -24 -12 -10 -15 -7 -18 16 -2 18 -10 29 -22
31 -18 4 -19 -1 -13 -66 l7 -70 -53 -46 c-28 -26 -90 -66 -137 -90 -96 -49
-291 -117 -392 -136 l-67 -12 -73 72 c-40 40 -104 98 -143 129 -103 84 -468
349 -635 459 -290 193 -388 325 -505 676 -61 180 -81 278 -100 481 -29 301
-58 387 -170 501 -108 110 -232 147 -358 105z m166 -152 c74 -20 149 -111 175
-214 6 -22 18 -123 27 -225 24 -277 44 -362 146 -618 149 -373 250 -496 584
-712 251 -163 472 -323 594 -429 81 -72 317 -329 387 -422 64 -85 116 -188
138 -274 27 -103 49 -402 43 -580 -9 -250 -48 -369 -154 -465 -79 -73 -108
-79 -423 -97 -331 -19 -931 -21 -1040 -4 -41 7 -121 16 -178 20 -257 22 -393
73 -504 189 -61 63 -94 122 -126 222 -65 202 -104 686 -73 910 13 99 28 410
41 865 6 204 15 429 21 500 5 72 8 321 7 555 -2 508 7 588 74 683 41 58 128
106 193 107 17 0 47 -5 68 -11z"/>
<path d="M2595 2905 c-39 -38 -30 -76 25 -105 39 -21 90 22 90 76 0 23 -38 54
-65 54 -14 0 -37 -11 -50 -25z"/>
<path d="M3184 2846 c-13 -21 -14 -29 -2 -51 7 -15 25 -34 40 -43 24 -14 28
-14 51 1 33 21 42 62 22 93 -22 34 -88 34 -111 0z"/>
<path d="M2773 1969 c-7 -7 -13 -23 -13 -35 0 -53 74 -65 365 -59 202 4 231 6
242 22 17 23 16 30 -8 54 -21 21 -28 21 -243 18 -121 -2 -246 0 -276 4 -40 6
-58 5 -67 -4z"/>
</g>
</svg>
