<?xml version="1.0" standalone="no"?>
<!DOCTYPE svg PUBLIC "-//W3C//DTD SVG 20010904//EN"
 "http://www.w3.org/TR/2001/REC-SVG-20010904/DTD/svg10.dtd">
<svg version="1.0" xmlns="http://www.w3.org/2000/svg"
 width="600.000000pt" height="600.000000pt" viewBox="0 0 600.000000 600.000000"
 preserveAspectRatio="xMidYMid meet">
<metadata>
Created by potrace 1.15, written by Peter Selinger 2001-2017
</metadata>
<g transform="translate(0.000000,600.000000) scale(0.100000,-0.100000)"
fill="#16364b" stroke="none">
<path d="M2175 5289 c-118 -17 -218 -87 -272 -191 -24 -47 -27 -64 -26 -148 0
-52 3 -360 7 -685 9 -753 8 -781 -10 -955 -8 -80 -18 -223 -23 -318 -4 -95
-12 -176 -17 -181 -31 -28 -324 -73 -493 -75 l-125 -1 -9 33 c-7 22 -16 32
-30 32 -17 0 -18 -5 -13 -35 4 -19 5 -35 3 -35 -2 0 -24 16 -48 35 -24 19 -50
35 -56 35 -19 0 -16 -31 7 -65 11 -16 20 -33 20 -37 0 -5 -21 -7 -47 -5 -36 1
-48 -2 -48 -12 0 -15 14 -25 60 -42 l30 -11 -35 -13 c-46 -16 -50 -50 -5 -49
278 9 536 33 680 65 49 10 92 19 95 19 4 0 10 -96 13 -214 8 -242 20 -373 47
-496 71 -318 211 -540 407 -643 63 -33 181 -71 243 -79 l25 -3 1 -130 c1 -161
22 -285 79 -463 49 -156 51 -149 -45 -151 -109 -3 -170 -47 -170 -125 0 -48
24 -82 66 -92 55 -14 155 3 222 37 131 68 157 141 103 289 -77 209 -118 432
-103 560 l7 65 50 -2 c28 -1 156 -8 285 -14 129 -6 325 -13 435 -14 110 -1
202 -6 203 -11 2 -5 1 -40 -3 -79 -11 -123 21 -302 94 -519 17 -49 28 -93 26
-96 -3 -4 -42 -11 -87 -15 -97 -8 -137 -24 -161 -64 -36 -61 -6 -124 68 -141
81 -19 229 21 288 78 71 68 73 120 11 302 -25 74 -54 175 -65 225 -28 134 -23
314 10 335 6 3 89 11 185 18 254 17 338 50 450 174 116 128 171 283 195 548
14 148 4 211 -60 409 -78 238 -130 329 -265 464 -37 37 -65 69 -63 70 2 2 63
11 134 21 149 20 305 49 385 71 30 8 64 15 75 15 24 0 114 45 152 77 25 20 26
24 13 35 -9 7 -14 21 -12 31 2 12 -4 20 -17 24 -16 4 -20 11 -16 24 9 29 -20
34 -54 10 -37 -26 -51 -27 -44 -1 3 13 -1 22 -11 26 -21 8 -27 2 -35 -38 -6
-28 -13 -34 -51 -46 -123 -36 -396 -79 -621 -97 l-77 -6 -83 69 c-142 117
-308 236 -502 361 -247 159 -322 215 -428 323 -275 280 -385 509 -483 1008
-15 74 -34 162 -42 194 -33 130 -102 230 -190 278 -43 23 -67 30 -149 42 -11
2 -47 -1 -80 -5z m162 -185 c64 -52 101 -135 122 -269 48 -313 168 -678 279
-850 169 -261 377 -452 724 -663 142 -87 262 -174 399 -289 304 -256 349 -295
415 -365 121 -128 159 -194 224 -393 52 -158 60 -252 37 -425 -35 -257 -128
-407 -282 -454 -62 -19 -525 -59 -700 -60 -249 -2 -968 25 -1042 39 -142 27
-245 99 -333 233 -93 141 -152 319 -177 532 -26 231 -7 939 32 1130 3 14 9 85
15 158 8 105 7 198 -6 430 -12 209 -15 366 -10 530 3 131 1 306 -5 401 -12
192 -6 231 41 285 46 52 85 67 162 64 57 -3 72 -8 105 -34z"/>
<path d="M2626 2829 c-14 -11 -26 -31 -26 -43 0 -28 49 -76 78 -76 31 0 62 35
62 69 0 32 -39 71 -70 71 -10 0 -29 -9 -44 -21z"/>
<path d="M3125 2735 c-14 -13 -25 -31 -25 -40 0 -24 46 -65 74 -65 28 0 66 45
66 78 0 25 -36 52 -68 52 -12 0 -34 -11 -47 -25z"/>
<path d="M3055 1850 c-27 -5 -71 -6 -97 -3 -51 6 -78 -7 -78 -36 1 -51 60 -64
213 -47 109 13 126 21 127 57 0 38 -48 47 -165 29z"/>
</g>
</svg>
