<?xml version="1.0" standalone="no"?>
<!DOCTYPE svg PUBLIC "-//W3C//DTD SVG 20010904//EN"
 "http://www.w3.org/TR/2001/REC-SVG-20010904/DTD/svg10.dtd">
<svg version="1.0" xmlns="http://www.w3.org/2000/svg"
 width="600.000000pt" height="600.000000pt" viewBox="0 0 600.000000 600.000000"
 preserveAspectRatio="xMidYMid meet">
<metadata>
Created by potrace 1.15, written by Peter Selinger 2001-2017
</metadata>
<g transform="translate(0.000000,600.000000) scale(0.100000,-0.100000)"
fill="#16364b" stroke="none">
<path d="M3114 5680 c-48 -11 -82 -41 -100 -88 -30 -76 8 -152 99 -199 249
-126 417 -291 417 -411 0 -94 -121 -208 -330 -312 -47 -23 -94 -51 -106 -61
l-21 -19 5 52 c5 63 -23 113 -78 140 -50 26 -92 22 -163 -13 -216 -109 -314
-236 -305 -394 6 -85 29 -135 95 -202 55 -55 118 -89 195 -105 66 -14 98 -7
143 33 65 57 71 149 14 214 -28 32 -54 44 -121 59 -16 4 -28 11 -28 16 0 18
72 78 133 110 34 18 72 44 85 59 l24 26 -9 -25 c-12 -39 -7 -95 13 -128 21
-37 81 -72 121 -72 38 0 234 95 339 165 109 73 202 174 251 271 37 76 38 81
38 183 0 101 -2 109 -37 183 -52 109 -105 182 -189 264 -90 86 -163 136 -294
201 -108 54 -143 64 -191 53z"/>
<path d="M2028 5569 c-26 -15 -396 -385 -450 -449 -100 -119 -133 -242 -89
-327 24 -49 56 -76 116 -99 61 -23 205 -15 360 20 66 15 152 34 190 42 171 38
227 53 250 68 89 58 78 199 -20 253 -51 29 -67 29 -178 -4 -96 -27 -280 -72
-285 -68 -1 1 56 60 126 131 146 146 192 215 192 284 0 92 -63 160 -149 160
-25 0 -54 -5 -63 -11z"/>
<path d="M1053 5336 c-398 -190 -481 -615 -183 -937 8 -9 33 -28 54 -43 69
-46 170 -32 214 31 46 66 35 128 -39 211 -60 68 -91 141 -92 216 -1 112 54
188 179 248 75 36 104 74 104 137 0 123 -121 192 -237 137z"/>
<path d="M4674 4831 c-23 -10 -52 -34 -65 -52 -24 -34 -26 -45 -32 -235 -1
-41 44 -129 102 -201 90 -110 212 -172 318 -159 193 23 309 220 227 384 -52
105 -201 203 -388 257 -105 30 -109 30 -162 6z"/>
<path d="M1824 4355 c-97 -21 -180 -69 -259 -149 -39 -39 -79 -89 -90 -111
-40 -84 -13 -185 59 -219 72 -34 134 -14 199 66 38 46 109 91 163 102 19 4 49
1 75 -8 65 -23 129 -20 170 7 99 66 88 216 -21 276 -87 48 -185 60 -296 36z"/>
<path d="M2516 3770 c-115 -25 -140 -35 -176 -76 -73 -84 -35 -214 72 -246 34
-10 52 -8 126 11 48 13 120 25 161 29 l74 5 -5 -40 c-8 -56 -75 -186 -171
-328 -89 -134 -113 -165 -239 -312 -99 -117 -111 -147 -83 -219 31 -81 119
-120 200 -89 53 20 109 86 332 394 225 310 285 432 287 586 2 133 -51 217
-174 274 -49 22 -70 26 -185 28 -99 2 -151 -2 -219 -17z"/>
<path d="M4155 3773 c-183 -24 -291 -147 -270 -308 13 -111 104 -238 204 -287
70 -35 177 -32 254 6 79 38 164 124 209 211 48 92 54 128 33 201 -35 122 -65
145 -230 169 -98 15 -139 16 -200 8z m65 -313 c0 -5 -9 -10 -20 -10 -11 0 -20
5 -20 10 0 6 9 10 20 10 11 0 20 -4 20 -10z"/>
<path d="M1153 3660 c-112 -24 -290 -121 -327 -178 -94 -144 -17 -322 139
-322 25 0 60 7 76 16 17 8 33 14 35 12 7 -7 -62 -181 -138 -348 -111 -245
-145 -343 -169 -492 -28 -182 23 -273 169 -300 94 -18 123 -5 223 99 104 109
432 469 528 581 l71 82 0 -38 c0 -63 -29 -247 -61 -392 -16 -74 -41 -189 -55
-255 -13 -66 -43 -199 -66 -296 -46 -198 -46 -228 3 -284 44 -49 95 -63 154
-41 81 31 105 85 170 391 14 66 43 192 65 280 51 213 66 299 86 494 22 219 16
410 -14 467 -24 47 -72 91 -108 100 -14 4 -51 4 -83 2 -108 -8 -221 -98 -411
-331 -52 -64 -98 -116 -102 -117 -3 0 18 63 47 139 100 260 120 333 120 446 0
91 -2 104 -27 146 -66 112 -194 167 -325 139z"/>
<path d="M3550 3339 c-113 -45 -202 -172 -235 -337 -16 -78 -16 -87 -1 -125
33 -84 88 -122 165 -114 256 29 382 90 442 214 27 56 23 156 -9 219 -67 131
-229 195 -362 143z"/>
<path d="M4742 2810 c-135 -68 -195 -203 -158 -351 47 -184 219 -292 352 -221
40 21 83 82 100 138 22 78 16 183 -14 223 -16 22 -22 44 -22 83 0 138 -119
197 -258 128z"/>
<path d="M2935 2495 c-113 -20 -219 -60 -410 -154 -163 -81 -183 -93 -207
-132 -55 -85 -46 -164 26 -235 47 -48 109 -69 169 -60 21 4 97 36 170 73 163
81 288 135 296 128 16 -17 -108 -306 -192 -450 -64 -109 -68 -173 -15 -250 29
-43 67 -65 126 -72 61 -7 113 9 159 50 44 38 125 199 258 512 96 225 99 357
12 471 -43 57 -110 100 -182 119 -70 18 -115 18 -210 0z"/>
<path d="M4347 2355 c-50 -19 -86 -48 -119 -97 -37 -55 -43 -107 -23 -217 10
-50 15 -94 12 -97 -2 -3 -49 13 -103 34 -133 53 -192 65 -278 60 -86 -6 -141
-31 -203 -95 -112 -116 -140 -273 -108 -593 20 -200 37 -253 96 -304 95 -81
216 -73 319 20 83 75 101 157 82 369 -5 55 -8 101 -7 103 3 4 132 -45 184 -70
37 -18 55 -20 132 -15 170 11 271 89 331 256 41 112 21 436 -33 543 -48 94
-177 141 -282 103z"/>
<path d="M2071 1883 c-46 -23 -88 -93 -96 -157 -9 -73 9 -132 55 -178 34 -34
40 -50 70 -170 18 -73 40 -155 49 -183 14 -39 15 -60 7 -94 -13 -58 4 -156 39
-228 34 -69 183 -226 290 -306 94 -70 294 -169 386 -191 83 -20 204 -20 283 0
64 16 188 74 220 102 66 60 76 198 20 269 -68 85 -158 99 -272 40 -91 -47
-155 -50 -244 -10 -55 24 -59 28 -53 52 26 98 15 142 -52 218 -24 26 -62 73
-86 103 -24 30 -70 74 -104 97 l-60 43 -32 137 c-75 320 -93 359 -197 428 -48
32 -67 38 -123 42 -49 3 -75 -1 -100 -14z"/>
</g>
</svg>
