<?xml version="1.0" standalone="no"?>
<!DOCTYPE svg PUBLIC "-//W3C//DTD SVG 20010904//EN"
 "http://www.w3.org/TR/2001/REC-SVG-20010904/DTD/svg10.dtd">
<svg version="1.0" xmlns="http://www.w3.org/2000/svg"
 width="600.000000pt" height="600.000000pt" viewBox="0 0 600.000000 600.000000"
 preserveAspectRatio="xMidYMid meet">
<metadata>
Created by potrace 1.15, written by Peter Selinger 2001-2017
</metadata>
<g transform="translate(0.000000,600.000000) scale(0.100000,-0.100000)"
fill="#16364b" stroke="none">
<path d="M3531 5254 c-28 -36 -27 -55 11 -131 73 -149 198 -233 258 -173 11
11 20 32 20 48 0 63 -109 230 -173 265 -47 26 -91 22 -116 -9z m116 -101 c41
-53 76 -113 70 -119 -8 -9 -65 57 -92 108 -31 57 -18 63 22 11z"/>
<path d="M3040 5088 c-150 -42 -241 -300 -125 -355 46 -22 97 -7 159 48 69 61
106 130 106 200 0 48 -4 60 -26 83 -15 14 -32 26 -40 26 -7 0 -18 2 -26 4 -7
2 -29 0 -48 -6z m63 -91 c14 -37 -48 -140 -108 -177 -45 -28 -59 -19 -51 32 8
52 32 96 69 130 31 30 81 38 90 15z"/>
<path d="M4761 4724 c-16 -20 -21 -41 -21 -83 0 -31 -5 -135 -11 -231 -13
-188 -5 -286 26 -320 38 -42 114 -24 135 31 18 51 25 366 10 487 -14 116 -30
142 -85 142 -24 0 -39 -7 -54 -26z"/>
<path d="M2645 4228 c-60 -32 -74 -111 -29 -153 73 -68 414 -150 478 -115 52
27 61 104 19 149 -24 25 -56 38 -206 80 -182 52 -227 59 -262 39z"/>
<path d="M1575 4212 c-82 -39 -136 -128 -138 -227 -1 -77 25 -129 93 -187 99
-84 136 -187 185 -508 13 -85 35 -222 50 -305 18 -106 29 -212 35 -365 25
-572 89 -921 206 -1116 88 -147 229 -237 438 -280 39 -7 80 -16 91 -19 19 -4
20 -12 20 -182 0 -157 3 -193 28 -304 15 -69 36 -152 47 -184 33 -97 35 -95
-75 -95 -110 0 -145 -13 -165 -60 -11 -27 -11 -37 3 -65 21 -43 62 -64 140
-72 76 -7 177 17 224 53 80 61 89 119 40 254 -19 52 -47 145 -63 205 -24 97
-28 129 -28 267 -1 86 1 158 4 160 3 2 163 1 355 -4 193 -5 408 -8 479 -8 117
0 127 -2 121 -17 -20 -53 -28 -177 -16 -255 16 -107 32 -146 102 -251 33 -49
59 -92 59 -98 0 -5 -17 -9 -37 -9 -76 0 -157 -19 -180 -42 -35 -35 -39 -77
-11 -118 47 -70 165 -76 281 -16 84 43 120 90 125 164 4 57 3 59 -52 137 -122
174 -141 225 -134 369 4 104 29 160 73 164 120 13 518 103 657 148 232 76 419
309 474 588 23 114 11 206 -39 331 -80 196 -199 321 -358 376 -88 31 -223 31
-334 0 -175 -49 -386 -63 -545 -37 -571 95 -812 253 -1169 764 -63 89 -180
245 -381 502 -98 126 -279 287 -370 329 -73 34 -178 40 -235 13z m163 -161
c20 -11 57 -38 80 -60 24 -23 48 -41 52 -41 41 0 394 -436 633 -782 148 -213
327 -388 513 -502 157 -96 420 -180 734 -237 118 -21 350 -1 533 45 51 13 109
27 129 30 52 9 155 -11 205 -40 122 -71 243 -292 243 -444 -1 -125 -66 -274
-169 -383 -100 -106 -133 -122 -406 -192 -195 -50 -356 -79 -535 -96 -157 -15
-1035 4 -1175 25 -185 28 -307 77 -387 157 -132 133 -184 378 -208 984 -13
333 -20 395 -70 630 -21 99 -48 232 -60 295 -45 238 -98 369 -180 443 -65 59
-84 90 -76 129 12 59 73 75 144 39z"/>
<path d="M2436 2539 c-15 -12 -26 -30 -26 -44 0 -25 51 -75 76 -75 20 0 52 35
60 66 6 22 2 32 -20 51 -33 28 -56 29 -90 2z"/>
<path d="M2896 2218 c-22 -32 -20 -55 9 -83 45 -46 105 -20 105 46 0 55 -83
82 -114 37z"/>
<path d="M5219 3974 c-62 -19 -141 -90 -167 -151 -56 -132 -25 -313 73 -421
56 -63 116 -87 215 -87 71 0 94 5 141 26 213 100 272 410 105 552 -43 36 -103
74 -136 85 -45 16 -174 14 -231 -4z m179 -309 c9 -9 -30 -45 -50 -45 -19 0
-40 37 -31 54 6 8 71 2 81 -9z"/>
<path d="M4217 3749 c-63 -15 -112 -45 -164 -103 -89 -97 -121 -201 -92 -303
19 -72 107 -156 184 -179 205 -59 410 79 409 275 0 93 -35 191 -82 232 -72 63
-180 96 -255 78z m53 -294 c0 -14 -8 -29 -21 -36 -32 -17 -43 3 -19 34 27 34
40 34 40 2z"/>
<path d="M498 2001 c-20 -17 -21 -22 -10 -45 6 -15 20 -30 29 -33 10 -4 42
-22 72 -41 71 -45 174 -92 204 -92 29 0 47 18 47 47 0 25 7 21 -182 114 -135
67 -137 68 -160 50z"/>
<path d="M5360 1107 c-57 -28 -98 -173 -66 -235 49 -95 167 -65 201 52 36 120
8 196 -72 196 -21 0 -49 -6 -63 -13z"/>
</g>
</svg>
