<?xml version="1.0" standalone="no"?>
<!DOCTYPE svg PUBLIC "-//W3C//DTD SVG 20010904//EN"
 "http://www.w3.org/TR/2001/REC-SVG-20010904/DTD/svg10.dtd">
<svg version="1.0" xmlns="http://www.w3.org/2000/svg"
 width="600.000000pt" height="600.000000pt" viewBox="0 0 600.000000 600.000000"
 preserveAspectRatio="xMidYMid meet">
<metadata>
Created by potrace 1.15, written by Peter Selinger 2001-2017
</metadata>
<g transform="translate(0.000000,600.000000) scale(0.100000,-0.100000)"
fill="#16364b" stroke="none">
<path d="M2397 5378 c-23 -23 -24 -32 -30 -179 -9 -281 -70 -485 -179 -605
-32 -34 -75 -66 -129 -94 -98 -51 -115 -81 -71 -132 22 -26 55 -22 124 12 175
87 274 222 333 456 52 202 77 506 45 538 -29 28 -67 30 -93 4z"/>
<path d="M3543 5286 c-12 -9 -26 -31 -33 -50 -9 -28 -7 -43 10 -89 24 -64 85
-161 126 -199 123 -115 252 -30 184 121 -32 69 -104 164 -148 195 -50 34 -109
43 -139 22z"/>
<path d="M3047 5126 c-21 -8 -55 -25 -77 -40 -146 -96 -182 -337 -57 -385 33
-12 42 -12 82 4 139 53 258 257 215 369 -19 52 -96 77 -163 52z m43 -121 c0
-34 -103 -170 -121 -159 -10 6 5 59 27 93 27 44 94 91 94 66z"/>
<path d="M4783 4756 c-58 -26 -67 -59 -67 -256 1 -194 15 -286 60 -378 41 -83
106 -112 173 -77 40 20 69 87 82 185 16 134 -12 273 -86 419 -52 104 -98 135
-162 107z"/>
<path d="M2643 4200 c-52 -23 -83 -70 -83 -125 0 -54 29 -97 92 -139 78 -51
152 -69 263 -64 78 3 102 9 156 35 95 47 124 116 80 189 -21 34 -34 40 -166
77 -188 53 -271 60 -342 27z"/>
<path d="M5284 3980 c-106 -22 -217 -114 -248 -207 -20 -58 -20 -153 -1 -217
46 -152 164 -249 301 -248 178 1 318 107 360 271 37 146 -20 262 -172 353 -86
51 -158 65 -240 48z m116 -326 c3 -3 -8 -17 -24 -31 l-30 -25 -18 22 c-32 39
-24 54 24 46 23 -4 45 -9 48 -12z"/>
<path d="M4183 3752 c-163 -58 -256 -234 -209 -397 22 -74 97 -153 170 -178
155 -53 322 13 395 155 31 62 33 72 33 163 -1 80 -5 105 -24 143 -20 41 -33
52 -98 85 -95 48 -186 58 -267 29z m107 -280 c0 -10 -5 -23 -12 -30 -17 -17
-48 -15 -48 2 0 14 36 46 52 46 5 0 8 -8 8 -18z"/>
<path d="M1115 3526 c-95 -30 -162 -88 -204 -176 -22 -47 -26 -68 -26 -150 0
-81 4 -103 27 -152 64 -139 183 -217 363 -239 138 -17 187 -54 245 -182 53
-117 208 -635 250 -832 22 -104 45 -208 51 -230 15 -53 62 -147 95 -191 39
-51 141 -120 235 -160 229 -97 483 -120 1234 -111 264 3 530 10 590 16 350 36
563 100 798 239 241 143 362 303 434 572 26 99 24 308 -5 425 -43 175 -148
343 -271 435 -134 101 -322 157 -484 146 -102 -8 -232 -43 -319 -87 -34 -17
-120 -67 -192 -111 -279 -171 -342 -200 -488 -229 -117 -23 -161 -23 -250 -4
-185 39 -427 185 -838 505 -135 105 -276 212 -315 238 -172 114 -402 212 -630
268 -111 27 -234 31 -300 10z m292 -342 c126 -33 209 -65 302 -115 110 -60
301 -192 464 -322 416 -332 727 -519 949 -572 123 -29 356 -15 518 32 87 24
182 76 365 197 237 158 301 188 428 206 208 30 387 -83 449 -283 29 -91 31
-249 5 -347 -48 -182 -135 -285 -323 -382 -308 -160 -494 -176 -1749 -154
-339 6 -443 19 -541 69 -121 61 -161 143 -210 427 -35 200 -140 589 -211 774
-65 173 -205 318 -363 377 -49 18 -82 26 -197 45 -36 5 -96 51 -87 65 10 17
104 9 201 -17z"/>
<path d="M2226 2354 c-21 -21 -20 -46 4 -76 29 -37 58 -41 86 -13 29 29 31 66
6 88 -23 21 -76 22 -96 1z"/>
<path d="M2845 2046 c-12 -19 -13 -29 -4 -48 14 -33 64 -61 93 -54 31 8 52 56
37 85 -25 46 -100 57 -126 17z"/>
<path d="M3429 3330 c-76 -79 -169 -236 -169 -284 0 -28 42 -66 74 -66 73 0
246 227 246 323 0 39 -32 67 -77 67 -29 0 -43 -8 -74 -40z"/>
<path d="M456 2018 c-29 -41 -19 -62 67 -149 124 -127 227 -168 291 -118 19
15 26 29 26 57 0 50 -58 102 -197 175 -121 63 -162 71 -187 35z"/>
<path d="M5359 1110 c-21 -12 -58 -98 -65 -152 -9 -63 15 -115 61 -134 33 -14
40 -13 73 3 50 25 71 59 84 134 19 111 -8 159 -89 159 -27 0 -55 -5 -64 -10z"/>
</g>
</svg>
