<?xml version="1.0" standalone="no"?>
<!DOCTYPE svg PUBLIC "-//W3C//DTD SVG 20010904//EN"
 "http://www.w3.org/TR/2001/REC-SVG-20010904/DTD/svg10.dtd">
<svg version="1.0" xmlns="http://www.w3.org/2000/svg"
 width="600.000000pt" height="600.000000pt" viewBox="0 0 600.000000 600.000000"
 preserveAspectRatio="xMidYMid meet">
<metadata>
Created by potrace 1.15, written by Peter Selinger 2001-2017
</metadata>
<g transform="translate(0.000000,600.000000) scale(0.100000,-0.100000)"
fill="#16364b" stroke="none">
<path d="M2240 5817 c-14 -7 -127 -92 -250 -188 -236 -182 -414 -345 -486
-442 -75 -101 -81 -201 -17 -278 64 -76 168 -87 354 -40 172 43 694 245 738
285 74 67 64 184 -21 236 -59 36 -108 27 -310 -51 -101 -39 -190 -73 -198 -76
-23 -7 49 55 220 192 86 68 161 135 168 150 30 65 5 150 -58 197 -34 24 -108
33 -140 15z"/>
<path d="M3055 5652 c-59 -37 -82 -90 -64 -154 18 -69 62 -101 185 -132 123
-32 237 -80 294 -126 22 -17 51 -55 66 -86 24 -49 26 -63 22 -133 -4 -62 -10
-88 -31 -124 -43 -74 -157 -156 -295 -213 -109 -45 -148 -93 -139 -170 9 -80
72 -134 155 -134 25 0 70 13 115 34 224 102 393 280 463 486 26 77 26 264 1
337 -65 187 -260 335 -533 404 -135 34 -197 37 -239 11z"/>
<path d="M921 5302 c-201 -103 -315 -264 -314 -443 1 -183 92 -341 260 -450
77 -50 139 -61 197 -34 106 51 110 190 7 258 -119 79 -176 191 -142 280 14 37
68 85 130 116 89 46 121 91 121 172 0 83 -57 139 -140 139 -32 -1 -66 -12
-119 -38z"/>
<path d="M2653 4940 c-72 -36 -160 -124 -198 -199 -127 -252 -5 -514 280 -596
163 -48 268 -5 268 109 0 81 -56 141 -157 165 -111 27 -164 78 -151 147 8 47
44 86 115 123 68 36 100 77 100 129 0 79 -75 152 -157 152 -24 0 -64 -12 -100
-30z"/>
<path d="M4780 4954 c-90 -39 -116 -95 -105 -228 23 -297 132 -474 315 -512
179 -37 319 78 320 262 0 197 -143 372 -382 464 -88 34 -99 35 -148 14z"/>
<path d="M1841 4455 c-79 -22 -147 -62 -217 -128 -79 -74 -109 -131 -99 -192
8 -58 56 -111 108 -120 65 -13 103 2 170 64 34 32 72 63 84 70 37 19 96 13
133 -14 93 -68 219 -22 249 93 23 84 -22 151 -139 206 -53 25 -79 31 -150 33
-54 2 -105 -3 -139 -12z"/>
<path d="M2587 3860 c-80 -21 -117 -66 -117 -145 0 -53 16 -88 58 -128 43 -41
92 -55 171 -49 43 3 76 0 91 -8 20 -11 22 -17 17 -62 -14 -119 -116 -276 -290
-448 -59 -57 -112 -117 -118 -132 -6 -16 -9 -49 -6 -76 4 -40 12 -53 52 -89
86 -78 161 -69 258 30 282 292 420 546 422 772 0 83 -3 96 -33 157 -37 75 -79
114 -169 155 -51 24 -72 27 -178 30 -66 1 -137 -2 -158 -7z"/>
<path d="M4250 3789 c-182 -30 -298 -115 -336 -247 -41 -140 37 -306 174 -374
38 -19 63 -23 132 -23 73 1 93 5 139 29 108 56 202 167 291 346 60 120 57 192
-11 242 -45 34 -257 48 -389 27z m-3 -324 c-28 -25 -67 -34 -67 -15 0 13 50
39 75 39 18 0 17 -2 -8 -24z"/>
<path d="M1142 3746 c-168 -42 -293 -110 -327 -177 -19 -36 -19 -132 -1 -168
37 -71 114 -109 197 -98 21 3 39 4 39 3 0 -2 -31 -68 -69 -147 -75 -157 -107
-234 -182 -437 -49 -131 -109 -346 -109 -386 0 -12 11 -44 24 -73 35 -74 89
-108 170 -108 34 1 73 4 88 8 47 12 204 151 433 382 121 123 247 247 279 276
l59 54 -7 -55 c-31 -239 -161 -749 -237 -929 -57 -135 -63 -154 -55 -195 26
-136 214 -172 286 -54 89 146 235 702 320 1223 15 89 12 278 -5 326 -20 56
-67 104 -122 125 -37 15 -52 15 -97 5 -51 -11 -115 -47 -161 -88 -11 -10 -65
-58 -120 -107 -55 -50 -128 -117 -162 -150 -34 -33 -64 -58 -67 -55 -2 2 32
69 75 149 102 188 139 290 146 397 5 65 2 93 -12 129 -22 58 -67 109 -119 136
-51 27 -186 34 -264 14z"/>
<path d="M3524 3360 c-55 -17 -127 -73 -166 -129 -37 -53 -81 -170 -93 -247
-7 -44 11 -102 43 -138 110 -123 435 -26 529 159 61 119 9 275 -112 337 -45
24 -152 33 -201 18z"/>
<path d="M4861 2783 c-29 -6 -117 -92 -185 -182 -67 -87 -124 -200 -132 -261
-4 -28 -11 -53 -15 -56 -5 -3 -9 0 -9 7 0 27 -64 110 -107 138 -115 77 -260
34 -319 -93 -30 -64 -30 -120 0 -251 13 -55 22 -101 21 -103 -2 -2 -45 11 -97
29 -80 28 -107 32 -198 33 -90 1 -111 -2 -146 -21 -61 -32 -122 -100 -157
-173 -29 -59 -32 -76 -35 -178 -6 -153 24 -348 79 -518 35 -108 117 -168 230
-167 111 0 201 65 237 172 18 50 14 83 -22 224 -38 149 -38 148 69 92 95 -51
149 -60 227 -40 185 47 291 147 319 302 12 65 -1 186 -31 301 -11 40 -20 80
-20 90 1 16 1 16 11 0 5 -10 31 -30 57 -45 95 -56 220 -23 333 87 109 107 159
220 159 359 0 87 -6 100 -90 180 -75 73 -110 87 -179 74z"/>
<path d="M2893 2345 c-75 -21 -153 -55 -373 -165 -143 -71 -205 -108 -228
-135 -18 -19 -32 -42 -32 -49 0 -9 -18 -13 -68 -13 -80 0 -131 -22 -203 -90
-61 -57 -83 -112 -77 -192 7 -96 79 -171 164 -171 l41 0 27 -102 c14 -57 26
-108 26 -114 0 -6 -22 -21 -50 -33 -75 -34 -144 -102 -182 -179 -30 -60 -33
-77 -36 -172 -4 -93 -1 -115 21 -178 43 -125 182 -312 293 -397 127 -97 335
-166 499 -166 111 0 207 24 338 83 152 68 197 115 197 203 0 68 -49 148 -110
180 -73 38 -135 28 -320 -49 -50 -21 -102 -36 -126 -36 -41 0 -142 32 -199 62
-98 52 -215 204 -215 278 0 24 4 30 21 30 27 0 56 -16 100 -55 49 -44 97 -58
179 -53 80 4 134 35 176 98 59 89 38 186 -55 254 -86 64 -135 162 -207 415
-32 111 -36 135 -24 139 8 3 62 29 120 59 242 123 390 184 390 159 0 -31 -133
-373 -185 -477 -57 -112 -56 -181 3 -251 56 -66 181 -90 252 -47 58 36 53 27
172 324 133 331 162 425 162 525 1 73 -3 93 -27 142 -39 80 -111 142 -194 168
-77 24 -192 26 -270 5z"/>
</g>
</svg>
