<?xml version="1.0" standalone="no"?>
<!DOCTYPE svg PUBLIC "-//W3C//DTD SVG 20010904//EN"
 "http://www.w3.org/TR/2001/REC-SVG-20010904/DTD/svg10.dtd">
<svg version="1.0" xmlns="http://www.w3.org/2000/svg"
 width="600.000000pt" height="600.000000pt" viewBox="0 0 600.000000 600.000000"
 preserveAspectRatio="xMidYMid meet">
<metadata>
Created by potrace 1.15, written by Peter Selinger 2001-2017
</metadata>
<g transform="translate(0.000000,600.000000) scale(0.100000,-0.100000)"
fill="#16364b" stroke="none">
<path d="M2330 5442 c-65 -32 -140 -208 -140 -327 0 -71 9 -103 47 -157 62
-91 186 -105 421 -48 73 18 136 29 139 26 4 -3 -3 -16 -14 -29 -29 -32 -197
-267 -259 -363 -62 -96 -123 -215 -154 -302 -24 -65 -24 -112 1 -197 15 -53
74 -111 123 -120 44 -9 242 15 426 52 85 17 179 27 295 32 142 5 175 10 198
25 81 55 79 186 -4 248 -65 48 -237 51 -495 8 -98 -16 -185 -30 -192 -30 -27
0 138 261 294 467 114 151 140 194 154 256 21 95 -28 189 -124 233 -72 34
-162 32 -363 -8 -89 -18 -165 -29 -169 -26 -3 4 4 23 16 43 27 44 29 113 3
158 -21 37 -93 77 -138 77 -16 0 -46 -8 -65 -18z"/>
<path d="M1727 5040 c-95 -16 -218 -86 -389 -221 -122 -97 -204 -174 -224
-211 -20 -38 -17 -85 7 -136 33 -68 76 -90 220 -112 282 -44 355 -71 428 -161
73 -90 144 -112 211 -66 112 76 104 184 -25 313 -74 73 -162 124 -267 155 -42
13 -74 27 -71 32 13 22 146 75 204 81 56 7 68 12 105 50 66 66 70 152 9 224
-48 57 -100 70 -208 52z"/>
<path d="M4058 4874 c-108 -26 -333 -159 -369 -219 -41 -65 -14 -166 52 -200
42 -22 112 -21 148 2 15 10 60 40 100 66 75 50 152 83 175 74 31 -12 24 -139
-16 -271 -11 -39 -46 -132 -75 -206 -61 -149 -65 -197 -24 -249 11 -14 27 -40
35 -57 20 -45 62 -74 108 -74 22 0 92 13 156 29 178 45 289 62 372 59 74 -3
75 -4 78 -31 3 -28 -40 -216 -104 -455 -33 -123 -35 -137 -24 -178 31 -109
163 -144 239 -63 25 27 64 145 132 399 84 313 78 413 -29 520 -48 47 -69 60
-130 79 -66 22 -85 23 -200 18 -70 -4 -165 -15 -212 -26 -46 -11 -86 -19 -87
-17 -1 1 8 34 22 73 69 206 86 440 37 546 -41 92 -110 154 -201 181 -65 19
-106 19 -183 0z"/>
<path d="M2055 3939 c-133 -51 -304 -96 -413 -109 -120 -15 -155 -33 -182 -93
-24 -53 -25 -81 -1 -132 29 -65 72 -95 136 -95 149 0 547 117 667 195 41 27
78 89 78 131 0 67 -84 135 -166 133 -21 0 -75 -14 -119 -30z"/>
<path d="M3735 3696 c-126 -32 -475 -197 -538 -254 -99 -89 -31 -262 102 -262
38 0 64 10 146 58 138 79 264 144 274 140 4 -2 -33 -104 -82 -228 -178 -449
-182 -469 -116 -545 56 -64 121 -64 309 -3 200 64 443 229 546 370 32 42 38
59 38 99 0 86 -68 149 -160 149 -69 0 -95 -11 -136 -56 -80 -89 -220 -206
-232 -193 -2 2 20 65 50 141 76 194 106 300 107 384 1 63 -2 77 -28 119 -54
87 -148 114 -280 81z"/>
<path d="M2360 3374 c-84 -16 -289 -69 -311 -80 -106 -54 -106 -198 0 -265 55
-36 84 -36 223 -5 154 35 236 43 244 23 3 -9 -11 -63 -30 -120 -20 -58 -36
-116 -36 -130 0 -97 96 -172 188 -148 67 19 103 70 153 223 59 182 49 302 -35
395 -69 76 -144 107 -271 109 -55 1 -111 0 -125 -2z"/>
<path d="M1153 3076 c-87 -28 -132 -87 -133 -174 0 -93 59 -180 137 -201 l28
-7 6 -325 c7 -347 19 -451 64 -555 39 -89 108 -135 200 -135 61 0 102 17 139
61 39 47 52 102 38 156 -16 61 -17 60 32 56 68 -6 117 26 157 102 53 99 117
195 166 247 25 27 49 49 53 49 4 0 12 -18 19 -40 9 -32 8 -72 -9 -217 -11 -98
-29 -215 -40 -261 -26 -108 -26 -165 1 -209 55 -89 192 -90 247 -2 46 76 121
514 109 641 -18 187 -81 335 -165 390 -45 28 -51 29 -132 26 -76 -4 -93 -8
-160 -44 -96 -50 -188 -140 -268 -263 l-62 -95 0 220 c0 232 -8 312 -41 398
-24 66 -87 139 -143 168 -52 27 -181 34 -243 14z"/>
<path d="M4835 2976 c-94 -44 -125 -101 -125 -228 l0 -83 -134 -68 c-219 -110
-317 -202 -378 -355 -20 -50 -22 -75 -23 -197 0 -127 3 -147 28 -218 34 -97
82 -175 154 -248 54 -56 54 -56 29 -63 -14 -3 -51 -29 -82 -56 -69 -60 -74
-61 -244 -20 -142 34 -223 37 -319 14 -164 -39 -382 -180 -533 -345 -46 -49
-91 -92 -100 -95 -9 -3 -47 -32 -84 -66 -146 -132 -258 -141 -397 -33 -89 70
-183 199 -218 300 -22 62 -87 122 -143 130 -62 10 -141 -28 -182 -86 -42 -61
-46 -147 -10 -225 67 -147 241 -353 371 -441 138 -93 237 -126 380 -126 163 0
279 46 405 159 39 35 77 64 84 64 7 0 57 47 110 105 145 156 254 233 370 262
67 16 70 16 204 -10 202 -39 203 -39 273 -27 96 16 184 63 255 135 75 76 99
132 91 206 -4 28 -15 66 -26 85 l-20 33 49 16 c54 18 122 83 146 140 18 44 18
136 0 179 -8 19 -33 53 -55 76 -68 71 -80 166 -25 209 14 11 86 50 159 86 166
81 238 142 290 249 47 96 63 197 47 312 -6 48 -21 106 -33 131 -52 108 -198
154 -314 99z"/>
<path d="M3365 2344 c-168 -23 -597 -121 -670 -153 -146 -64 -164 -258 -30
-337 61 -35 111 -33 300 15 156 39 337 73 463 86 56 6 62 5 62 -12 0 -37 22
-93 47 -124 92 -109 294 -82 343 45 19 51 14 199 -10 271 -27 82 -90 153 -162
186 -46 20 -71 24 -183 25 -71 1 -143 0 -160 -2z"/>
</g>
</svg>
