<?xml version="1.0" standalone="no"?>
<!DOCTYPE svg PUBLIC "-//W3C//DTD SVG 20010904//EN"
 "http://www.w3.org/TR/2001/REC-SVG-20010904/DTD/svg10.dtd">
<svg version="1.0" xmlns="http://www.w3.org/2000/svg"
 width="600.000000pt" height="600.000000pt" viewBox="0 0 600.000000 600.000000"
 preserveAspectRatio="xMidYMid meet">
<metadata>
Created by potrace 1.15, written by Peter Selinger 2001-2017
</metadata>
<g transform="translate(0.000000,600.000000) scale(0.100000,-0.100000)"
fill="#16364b" stroke="none">
<path d="M1522 5754 c-48 -34 -202 -256 -243 -352 -24 -55 -25 -135 -2 -173
18 -30 67 -59 100 -59 57 0 190 71 421 224 115 77 132 96 132 144 0 44 -14 68
-52 88 -43 22 -84 13 -161 -35 -35 -23 -67 -41 -71 -41 -3 0 7 19 24 42 42 57
41 99 -4 144 -28 28 -41 34 -78 34 -24 0 -54 -7 -66 -16z"/>
<path d="M2382 5430 c-18 -11 -37 -32 -42 -46 -6 -14 -10 -86 -10 -161 0 -75
-7 -180 -16 -235 -37 -233 -98 -326 -275 -418 -67 -35 -83 -48 -96 -78 -31
-75 17 -162 90 -162 41 0 162 57 244 116 180 128 275 385 277 744 1 185 -8
215 -70 245 -42 20 -62 19 -102 -5z"/>
<path d="M3521 5318 c-97 -52 -70 -211 56 -337 69 -68 114 -91 178 -91 117 0
168 109 108 231 -36 72 -137 174 -189 188 -66 19 -127 23 -153 9z"/>
<path d="M3023 5166 c-57 -18 -95 -48 -136 -104 -67 -94 -88 -202 -53 -280 40
-88 162 -115 276 -61 70 33 96 59 110 106 18 61 23 174 11 219 -27 98 -115
149 -208 120z"/>
<path d="M4770 4771 c-61 -32 -73 -65 -73 -205 1 -202 54 -367 150 -463 121
-122 294 -91 370 65 24 49 27 69 28 147 0 82 -3 96 -32 155 -43 86 -100 151
-197 222 -137 102 -179 115 -246 79z m229 -456 c0 -5 -6 -1 -14 9 -8 11 -15
27 -15 35 1 17 29 -26 29 -44z"/>
<path d="M2665 4222 c-112 -39 -175 -124 -175 -236 1 -197 189 -315 394 -246
84 28 170 85 237 158 85 94 100 156 52 230 -31 47 -41 52 -177 87 -120 31
-254 34 -331 7z"/>
<path d="M1095 4106 c-51 -23 -77 -60 -83 -117 -9 -91 32 -137 138 -157 71
-14 133 -36 137 -49 4 -12 -103 -66 -165 -83 -24 -6 -82 -17 -129 -25 -52 -8
-93 -21 -105 -32 -74 -67 -59 -187 29 -228 42 -20 110 -16 243 16 134 33 242
90 327 174 60 60 74 80 88 129 28 95 4 175 -72 247 -52 50 -128 86 -241 115
-108 27 -125 28 -167 10z"/>
<path d="M4203 3775 c-116 -31 -196 -98 -245 -201 -23 -50 -29 -76 -29 -132 0
-38 6 -85 14 -104 22 -52 74 -106 131 -136 45 -24 62 -27 151 -27 95 0 103 2
163 34 112 61 182 165 208 310 18 104 17 141 -6 178 -24 40 -63 60 -148 79
-84 17 -171 17 -239 -1z m57 -307 c-23 -19 -50 -24 -50 -10 0 11 30 38 50 44
24 8 25 -14 0 -34z"/>
<path d="M1671 3726 c-88 -29 -126 -98 -126 -231 1 -65 6 -91 26 -135 51 -110
138 -176 244 -187 96 -10 170 28 212 110 71 140 -3 349 -150 424 -62 31 -145
38 -206 19z"/>
<path d="M5165 3611 c-127 -37 -211 -97 -257 -184 -19 -35 -23 -58 -23 -132 0
-77 4 -98 27 -147 31 -67 105 -145 163 -173 55 -26 151 -31 212 -11 142 48
256 215 257 376 1 78 -37 152 -110 215 -32 28 -67 55 -78 62 -30 17 -121 15
-191 -6z m75 -299 c0 -13 -30 -52 -41 -52 -14 0 -11 22 8 42 17 19 33 24 33
10z"/>
<path d="M3422 3363 c-41 -20 -77 -66 -134 -168 -67 -123 -73 -140 -59 -184
19 -66 73 -88 157 -64 108 31 200 153 211 282 11 118 -74 184 -175 134z"/>
<path d="M2539 3245 c-175 -35 -260 -83 -433 -244 -119 -111 -178 -150 -301
-199 -210 -84 -409 -272 -515 -487 -54 -109 -71 -179 -77 -319 -7 -143 7 -229
52 -343 65 -161 133 -242 338 -402 56 -44 138 -109 182 -146 300 -248 635
-232 1055 50 240 161 418 327 524 490 33 50 81 122 106 160 100 149 124 228
117 385 -8 195 -65 311 -308 632 -40 52 -62 92 -69 124 -26 117 -193 256 -357
299 -69 18 -223 18 -314 0z m201 -357 c6 -7 23 -30 38 -50 15 -20 64 -78 110
-130 82 -92 111 -131 189 -258 143 -230 154 -303 63 -420 -15 -19 -40 -61 -55
-93 -72 -153 -224 -313 -430 -451 -182 -123 -268 -159 -392 -164 -86 -4 -98
-2 -156 25 -59 28 -233 167 -385 308 -152 140 -172 328 -56 526 60 101 141
172 263 231 162 78 232 128 380 272 75 73 157 145 183 160 74 43 225 70 248
44z"/>
<path d="M398 2244 c-33 -18 -58 -62 -58 -104 0 -34 57 -195 98 -275 107 -213
292 -375 428 -375 85 0 137 29 172 95 58 112 14 259 -120 400 -86 92 -169 148
-323 220 -122 58 -152 64 -197 39z m415 -484 c26 -43 8 -37 -39 13 -81 84
-104 140 -26 64 26 -26 56 -61 65 -77z"/>
<path d="M4505 1898 c-11 -6 -32 -22 -47 -36 l-27 -24 -27 21 c-32 25 -92 28
-137 6 -52 -25 -81 -77 -85 -154 -8 -140 49 -388 107 -468 30 -41 89 -73 137
-73 65 0 138 62 175 147 34 79 99 382 99 460 0 88 -120 163 -195 121z"/>
</g>
</svg>
