<?xml version="1.0" standalone="no"?>
<!DOCTYPE svg PUBLIC "-//W3C//DTD SVG 20010904//EN"
 "http://www.w3.org/TR/2001/REC-SVG-20010904/DTD/svg10.dtd">
<svg version="1.0" xmlns="http://www.w3.org/2000/svg"
 width="600.000000pt" height="600.000000pt" viewBox="0 0 600.000000 600.000000"
 preserveAspectRatio="xMidYMid meet">
<metadata>
Created by potrace 1.15, written by Peter Selinger 2001-2017
</metadata>
<g transform="translate(0.000000,600.000000) scale(0.100000,-0.100000)"
fill="#16364b" stroke="none">
<path d="M1805 5821 c-47 -11 -84 -40 -104 -80 -24 -47 -142 -409 -175 -536
-52 -198 -20 -306 101 -346 78 -25 183 15 319 122 96 76 373 347 398 390 53
90 -10 214 -120 235 -76 14 -102 0 -206 -109 -54 -56 -98 -97 -98 -91 0 5 16
57 35 114 42 124 45 183 13 230 -42 61 -99 86 -163 71z"/>
<path d="M3025 5671 c-46 -28 -66 -56 -72 -99 -11 -80 7 -104 150 -212 158
-118 255 -205 355 -320 80 -92 132 -172 132 -206 0 -19 -7 -22 -58 -26 -68 -5
-103 -27 -128 -80 -34 -75 7 -174 83 -199 52 -17 158 -6 225 24 198 88 236
293 97 529 -112 191 -279 351 -541 521 -149 96 -183 106 -243 68z"/>
<path d="M921 5425 c-136 -38 -272 -147 -326 -260 -24 -50 -30 -76 -33 -158
-4 -83 -1 -107 18 -160 27 -74 62 -127 122 -183 91 -86 158 -108 230 -76 64
28 93 73 93 142 0 62 -15 89 -76 132 -51 36 -70 68 -71 117 -1 87 72 151 173
151 95 0 163 62 163 148 0 55 -23 100 -68 133 -38 29 -148 35 -225 14z"/>
<path d="M2977 5179 c-67 -10 -130 -51 -177 -112 -54 -72 -70 -115 -70 -187 0
-76 26 -129 82 -170 81 -59 181 -73 309 -44 125 28 158 78 139 213 -15 109
-34 170 -70 219 -48 67 -123 96 -213 81z"/>
<path d="M4788 4870 c-44 -13 -84 -47 -103 -87 -35 -74 0 -361 61 -489 83
-176 258 -253 407 -180 107 52 153 140 145 280 -6 116 -46 196 -147 296 -60
59 -98 87 -176 126 -108 55 -145 66 -187 54z"/>
<path d="M1971 4839 c-108 -38 -157 -97 -148 -178 6 -54 52 -103 116 -122 35
-10 50 -9 100 6 33 10 66 15 75 12 8 -3 18 -23 21 -44 3 -21 8 -53 11 -71 7
-46 67 -109 115 -122 66 -18 134 12 165 73 13 24 15 48 11 107 -11 156 -79
275 -188 329 -55 27 -72 31 -143 30 -53 0 -100 -7 -135 -20z"/>
<path d="M2910 4070 c-83 -20 -157 -65 -193 -118 -76 -110 -41 -245 80 -306
100 -50 310 -70 576 -55 100 5 196 15 214 20 92 29 120 157 52 243 -34 44
-274 154 -435 201 -90 26 -219 33 -294 15z"/>
<path d="M1083 4049 c-93 -12 -132 -36 -167 -106 -38 -75 -30 -163 21 -231 33
-44 72 -62 138 -62 30 0 55 -3 55 -6 0 -3 -55 -69 -122 -147 -198 -231 -340
-437 -434 -630 -36 -74 -44 -101 -44 -146 0 -139 119 -236 248 -202 25 7 62
31 94 60 56 51 319 255 428 332 36 26 125 85 199 132 113 74 136 85 153 76 18
-10 20 -19 16 -88 -11 -174 -171 -515 -388 -827 -51 -74 -112 -156 -136 -184
-81 -95 -84 -182 -9 -257 46 -46 80 -54 143 -32 48 17 207 214 372 464 135
204 330 630 330 721 0 12 9 42 20 67 18 39 20 67 20 199 0 185 -13 240 -72
295 -99 92 -267 64 -502 -86 -44 -28 -82 -49 -84 -46 -2 2 27 41 65 87 183
219 224 290 226 387 3 108 -74 191 -208 226 -64 16 -252 19 -362 4z"/>
<path d="M4291 3790 c-106 -16 -178 -53 -258 -131 -123 -120 -151 -284 -69
-392 154 -204 458 -147 611 115 44 75 95 210 95 254 0 35 -32 88 -70 116 -42
31 -215 52 -309 38z m-20 -331 c-30 -25 -60 -27 -40 -3 15 18 51 34 59 27 3
-3 -6 -13 -19 -24z"/>
<path d="M3392 3398 c-97 -47 -222 -236 -222 -336 0 -54 25 -100 71 -134 37
-28 177 -45 230 -29 91 27 150 119 170 261 13 100 3 151 -38 201 -51 60 -133
75 -211 37z"/>
<path d="M4984 3140 c-227 -115 -347 -316 -290 -487 61 -185 274 -228 448 -92
115 92 177 291 130 422 -24 67 -95 152 -143 171 -55 22 -78 20 -145 -14z"/>
<path d="M3905 2630 c-86 -22 -138 -63 -171 -135 -38 -80 -31 -126 47 -319 16
-39 27 -72 24 -74 -2 -2 -27 4 -56 13 -101 34 -217 3 -284 -77 -104 -123 -101
-254 14 -588 105 -309 118 -332 203 -374 96 -48 220 -23 281 58 41 52 62 130
50 181 l-10 42 63 -5 c114 -9 246 60 299 158 29 53 30 60 29 175 0 118 -1 122
-48 250 -74 202 -124 344 -161 466 -19 61 -44 127 -57 145 -39 58 -155 102
-223 84z"/>
<path d="M2000 2293 c-63 -22 -116 -61 -188 -137 -66 -71 -154 -195 -167 -236
-4 -14 -20 -40 -36 -58 -35 -39 -98 -170 -133 -276 -52 -155 -71 -277 -70
-441 0 -135 3 -158 27 -230 76 -227 254 -418 499 -535 227 -109 444 -118 672
-26 175 69 269 143 436 338 115 134 209 343 280 623 69 271 75 373 27 478 -44
96 -126 156 -242 178 -122 22 -265 -15 -484 -127 -80 -40 -145 -72 -146 -71
-1 1 -16 61 -33 132 -41 167 -85 258 -157 323 -85 78 -184 101 -285 65z m80
-484 c6 -23 22 -104 35 -181 29 -178 48 -216 140 -283 65 -47 72 -50 129 -50
68 0 44 -11 326 155 176 104 212 123 247 134 21 7 22 5 17 -26 -13 -71 -78
-297 -106 -368 -44 -111 -118 -249 -139 -260 -10 -6 -32 -30 -49 -55 -91 -133
-254 -208 -413 -191 -141 15 -386 177 -448 298 -28 53 -37 190 -19 280 21 108
120 368 168 444 38 58 96 144 98 144 2 0 8 -19 14 -41z"/>
</g>
</svg>
