<?xml version="1.0" standalone="no"?>
<!DOCTYPE svg PUBLIC "-//W3C//DTD SVG 20010904//EN"
 "http://www.w3.org/TR/2001/REC-SVG-20010904/DTD/svg10.dtd">
<svg version="1.0" xmlns="http://www.w3.org/2000/svg"
 width="600.000000pt" height="600.000000pt" viewBox="0 0 600.000000 600.000000"
 preserveAspectRatio="xMidYMid meet">
<metadata>
Created by potrace 1.15, written by Peter Selinger 2001-2017
</metadata>
<g transform="translate(0.000000,600.000000) scale(0.100000,-0.100000)"
fill="#16364b" stroke="none">
<path d="M2400 5403 c-36 -13 -40 -34 -40 -197 0 -230 -30 -390 -100 -526 -32
-62 -114 -139 -194 -180 -37 -19 -72 -43 -78 -53 -15 -28 -2 -62 28 -76 23
-10 34 -8 88 17 270 128 393 393 384 824 -2 124 -6 160 -18 172 -19 17 -50 26
-70 19z"/>
<path d="M3526 5281 c-44 -48 -29 -118 48 -225 92 -129 217 -170 261 -85 22
41 19 69 -15 135 -38 76 -102 149 -151 174 -50 26 -120 26 -143 1z"/>
<path d="M3045 5119 c-73 -23 -144 -126 -171 -246 -19 -84 -13 -131 19 -169
44 -51 124 -29 208 57 94 96 138 238 96 303 -34 51 -95 74 -152 55z m49 -146
c-12 -48 -41 -97 -79 -133 l-37 -35 7 40 c12 72 67 155 102 155 10 0 11 -8 7
-27z"/>
<path d="M4753 4716 c-26 -23 -28 -31 -33 -118 -10 -186 18 -406 60 -475 39
-65 133 -82 186 -32 44 42 57 97 51 222 -5 117 -35 223 -93 339 -44 87 -114
113 -171 64z"/>
<path d="M2644 4216 c-46 -20 -64 -52 -64 -112 0 -72 42 -127 130 -172 111
-56 213 -64 339 -26 111 33 155 122 95 193 -28 34 -70 49 -284 101 -138 33
-170 36 -216 16z"/>
<path d="M5233 3971 c-156 -54 -240 -193 -213 -357 20 -120 109 -234 217 -274
74 -28 212 -25 283 7 67 30 135 96 167 161 24 48 28 69 28 137 -1 102 -35 184
-105 249 -79 74 -134 96 -237 96 -58 -1 -106 -7 -140 -19z m163 -291 c25 -10
26 -11 10 -29 -25 -28 -54 -33 -66 -11 -25 46 -2 62 56 40z"/>
<path d="M4175 3745 c-79 -32 -164 -120 -194 -200 -78 -207 63 -397 284 -383
95 7 162 37 224 103 65 69 86 136 78 248 -11 135 -45 184 -166 233 -75 31
-148 31 -226 -1z m125 -273 c0 -10 -5 -23 -12 -30 -17 -17 -48 -15 -48 2 0 14
36 46 52 46 5 0 8 -8 8 -18z"/>
<path d="M1167 3636 c-177 -66 -243 -265 -151 -453 53 -109 166 -189 299 -214
77 -14 102 -28 152 -82 114 -124 199 -424 258 -912 36 -298 98 -453 243 -606
142 -151 287 -199 697 -231 83 -6 218 -12 300 -13 83 -1 236 -7 340 -14 429
-28 954 35 1215 147 307 130 497 298 602 530 109 241 121 506 32 685 -85 168
-276 349 -432 407 -86 33 -158 43 -252 36 -164 -11 -290 -61 -460 -181 -222
-158 -355 -220 -537 -251 -154 -26 -275 -11 -446 58 -190 75 -485 297 -834
626 -160 151 -186 173 -287 246 -97 70 -240 140 -391 192 -92 31 -127 38 -210
41 -70 2 -112 -1 -138 -11z m270 -307 c129 -41 231 -88 307 -143 34 -25 136
-122 227 -217 162 -170 285 -279 489 -435 219 -168 345 -239 526 -300 206 -69
354 -80 587 -44 220 34 308 75 557 257 156 114 213 145 308 163 174 35 324
-50 417 -234 119 -238 17 -568 -222 -723 -85 -54 -262 -139 -348 -166 -178
-56 -450 -83 -715 -72 -96 3 -303 10 -460 15 -593 18 -759 41 -881 126 -96 66
-160 208 -189 419 -24 176 -91 498 -135 643 -134 448 -222 562 -497 647 -85
25 -154 67 -142 86 10 17 74 9 171 -22z"/>
<path d="M2290 2379 c-29 -12 -40 -26 -40 -57 0 -27 45 -72 71 -72 30 0 59 36
59 74 0 49 -41 74 -90 55z"/>
<path d="M2832 2058 c-34 -34 8 -108 61 -108 47 0 75 70 41 104 -18 19 -85 21
-102 4z"/>
<path d="M3475 3373 c-33 -8 -74 -53 -129 -143 -83 -134 -100 -174 -85 -202
16 -31 28 -38 66 -38 26 0 41 11 88 63 84 92 145 203 145 263 0 20 -43 66 -59
63 -3 -1 -15 -3 -26 -6z"/>
<path d="M480 2030 c-35 -35 -26 -66 46 -145 75 -85 147 -135 203 -142 33 -5
44 -1 65 20 64 64 5 143 -185 246 -86 47 -101 49 -129 21z"/>
<path d="M5338 1099 c-10 -5 -26 -29 -37 -53 -57 -131 -21 -246 79 -246 77 0
125 78 125 203 0 60 -3 71 -24 88 -26 21 -113 26 -143 8z"/>
</g>
</svg>
