<?xml version="1.0" standalone="no"?>
<!DOCTYPE svg PUBLIC "-//W3C//DTD SVG 20010904//EN"
 "http://www.w3.org/TR/2001/REC-SVG-20010904/DTD/svg10.dtd">
<svg version="1.0" xmlns="http://www.w3.org/2000/svg"
 width="600.000000pt" height="600.000000pt" viewBox="0 0 600.000000 600.000000"
 preserveAspectRatio="xMidYMid meet">
<metadata>
Created by potrace 1.15, written by Peter Selinger 2001-2017
</metadata>
<g transform="translate(0.000000,600.000000) scale(0.100000,-0.100000)"
fill="#16364b" stroke="none">
<path d="M3124 5636 c-17 -8 -43 -29 -57 -47 -36 -49 -94 -168 -106 -220 -17
-73 -13 -173 9 -232 50 -134 142 -195 328 -216 40 -5 76 -11 79 -14 3 -3 -10
-15 -28 -26 -233 -137 -398 -254 -516 -368 -55 -53 -73 -77 -78 -106 -9 -46 0
-96 23 -122 53 -62 220 -154 407 -223 253 -94 466 -162 509 -162 77 0 146 69
146 145 0 38 -29 94 -61 117 -13 10 -116 49 -229 87 -235 79 -400 141 -400
150 1 21 216 157 409 258 171 90 253 144 287 189 25 33 29 46 29 105 0 60 -3
71 -31 106 -41 51 -119 97 -199 117 -36 9 -134 23 -218 31 -83 9 -160 18 -169
21 -28 8 -22 41 27 141 32 66 45 104 45 136 0 105 -109 175 -206 133z"/>
<path d="M1491 5405 c-126 -55 -284 -220 -454 -476 -126 -190 -177 -319 -178
-451 0 -82 20 -130 70 -164 44 -29 88 -31 165 -4 173 59 469 130 484 116 9 -9
-26 -74 -149 -282 -151 -254 -162 -277 -160 -351 1 -71 13 -108 44 -141 59
-63 133 -68 264 -18 248 96 458 218 493 287 53 102 -12 221 -130 236 -31 4
-50 -1 -95 -26 -32 -18 -59 -30 -62 -28 -2 3 21 54 51 113 57 113 86 202 86
264 0 96 -60 182 -159 229 -52 24 -66 26 -181 25 -95 -1 -150 -8 -230 -27 -58
-14 -106 -24 -108 -22 -6 5 69 124 126 201 82 111 154 187 215 227 68 46 93
74 105 120 19 70 -17 144 -85 173 -41 18 -69 17 -112 -1z"/>
<path d="M4645 4439 c-85 -19 -371 -123 -393 -143 -82 -73 -65 -202 32 -250
44 -21 56 -19 241 48 55 20 101 36 103 36 6 0 -47 -88 -98 -165 -43 -64 -153
-248 -221 -370 -48 -85 -32 -189 34 -225 16 -8 43 -29 60 -46 27 -25 54 -36
162 -63 148 -36 325 -89 325 -97 0 -12 -37 -74 -90 -154 -120 -179 -213 -343
-218 -385 -6 -54 19 -109 60 -135 26 -17 45 -20 91 -17 72 4 96 25 173 156 32
53 92 148 134 211 104 155 136 214 156 286 15 56 15 65 1 115 -35 120 -147
192 -417 270 -80 23 -148 44 -151 48 -4 3 49 92 118 196 214 327 266 468 214
580 -37 80 -102 116 -208 114 -37 -1 -86 -5 -108 -10z"/>
<path d="M3825 3676 c-72 -32 -108 -113 -85 -188 15 -51 107 -146 148 -154 17
-3 39 -19 51 -34 17 -23 19 -37 14 -80 l-6 -52 -66 7 c-182 18 -388 -90 -466
-245 -64 -127 7 -254 142 -252 57 0 99 27 139 89 48 76 71 88 135 73 144 -35
269 38 269 157 0 38 2 40 40 52 28 8 50 24 70 52 41 57 53 100 48 182 -5 100
-41 172 -133 262 -122 119 -227 165 -300 131z"/>
<path d="M2471 3625 c-130 -29 -335 -146 -364 -208 -52 -108 19 -227 136 -227
41 0 64 8 136 49 93 53 177 84 213 79 20 -3 23 -10 26 -56 7 -122 -72 -319
-220 -553 -109 -171 -108 -169 -108 -224 0 -86 48 -139 142 -155 29 -5 67 -12
84 -15 23 -5 59 3 135 30 113 40 295 95 316 95 7 0 13 -6 13 -14 0 -8 -43 -99
-96 -202 -86 -168 -97 -195 -97 -241 0 -103 85 -184 198 -191 75 -5 123 9 161
46 29 29 120 214 173 351 128 333 77 570 -140 646 -57 21 -179 19 -274 -4 -44
-11 -81 -18 -83 -17 -1 2 9 33 23 71 69 182 91 407 52 526 -57 173 -228 259
-426 214z"/>
<path d="M1134 3411 c-56 -14 -131 -62 -250 -161 -159 -132 -188 -190 -145
-286 42 -93 166 -130 264 -80 26 13 47 19 47 14 0 -5 -9 -44 -19 -86 -29 -113
-108 -511 -126 -629 -19 -130 -20 -283 -1 -327 24 -59 102 -99 237 -123 104
-19 196 77 417 436 166 269 263 411 281 411 4 0 12 -12 17 -27 11 -31 1 -115
-35 -313 -30 -169 -101 -672 -101 -723 0 -145 107 -271 216 -254 106 17 159
137 104 236 -29 50 -29 46 56 536 l67 390 0 205 c0 162 -4 217 -17 263 -41
143 -176 203 -304 138 -98 -50 -236 -221 -438 -545 -27 -43 -50 -72 -52 -64
-1 8 21 131 49 274 46 227 53 275 53 384 1 117 -1 128 -26 176 -32 61 -83 108
-152 140 -52 24 -87 28 -142 15z"/>
<path d="M4649 2192 c-62 -32 -107 -95 -116 -162 l-6 -42 -86 7 c-143 12 -330
8 -411 -10 -161 -34 -295 -125 -359 -245 -35 -65 -65 -171 -76 -267 l-7 -62
-75 65 c-42 35 -101 76 -132 92 -49 24 -67 27 -151 27 -85 0 -101 -3 -155 -30
-88 -44 -196 -157 -272 -286 -34 -57 -67 -116 -74 -131 -7 -16 -15 -28 -18
-28 -4 0 -12 51 -19 113 -22 207 -82 382 -160 469 -47 53 -80 68 -145 68 -108
0 -193 -77 -204 -183 -4 -46 -1 -60 31 -119 45 -83 78 -219 111 -447 39 -272
70 -363 150 -445 52 -54 112 -82 205 -97 99 -15 167 0 220 48 45 40 61 80 59
149 -4 126 201 534 268 534 7 0 67 -52 133 -115 190 -182 281 -231 414 -223
84 6 138 30 197 89 59 59 68 90 80 266 6 87 13 190 17 228 l7 70 50 6 c28 4
97 2 155 -3 320 -29 415 -26 505 18 150 74 234 255 205 438 -17 110 -61 173
-145 212 -69 33 -129 31 -196 -4z"/>
</g>
</svg>
