<?xml version="1.0" standalone="no"?>
<!DOCTYPE svg PUBLIC "-//W3C//DTD SVG 20010904//EN"
 "http://www.w3.org/TR/2001/REC-SVG-20010904/DTD/svg10.dtd">
<svg version="1.0" xmlns="http://www.w3.org/2000/svg"
 width="600.000000pt" height="600.000000pt" viewBox="0 0 600.000000 600.000000"
 preserveAspectRatio="xMidYMid meet">
<metadata>
Created by potrace 1.15, written by Peter Selinger 2001-2017
</metadata>
<g transform="translate(0.000000,600.000000) scale(0.100000,-0.100000)"
fill="#16364b" stroke="none">
<path d="M2223 5807 c-27 -18 -139 -105 -249 -192 -232 -185 -449 -395 -487
-470 -35 -71 -43 -132 -22 -181 36 -87 100 -123 215 -124 123 0 276 45 635
188 83 32 173 67 202 76 64 21 108 60 121 109 29 106 -63 208 -176 194 -26 -4
-130 -38 -232 -76 -102 -38 -186 -68 -188 -66 -8 8 99 99 265 223 138 105 159
127 168 183 5 31 2 50 -17 86 -44 89 -146 110 -235 50z"/>
<path d="M3070 5681 c-43 -23 -80 -90 -80 -145 0 -85 57 -147 147 -161 72 -11
222 -67 285 -107 96 -62 136 -141 124 -245 -17 -143 -120 -251 -342 -358 -61
-29 -78 -43 -94 -75 -25 -50 -25 -83 1 -136 23 -49 82 -84 140 -84 70 0 277
118 381 218 221 210 282 548 137 757 -91 133 -341 282 -565 339 -79 20 -92 20
-134 -3z"/>
<path d="M908 5278 c-161 -83 -274 -224 -298 -370 -26 -165 63 -357 224 -484
45 -36 98 -69 119 -75 102 -27 198 49 197 158 -1 55 -19 80 -101 143 -90 69
-136 145 -125 205 9 48 53 95 125 134 88 46 116 74 131 125 16 57 7 107 -27
146 -62 74 -126 78 -245 18z"/>
<path d="M2650 4943 c-87 -45 -184 -143 -228 -231 -35 -73 -37 -80 -37 -177 0
-97 2 -104 37 -177 70 -140 225 -253 383 -280 62 -10 74 -9 108 7 54 25 87 78
87 138 0 87 -36 129 -134 158 -82 24 -148 60 -171 91 -23 33 -19 88 10 130 13
19 56 55 94 79 85 52 106 86 99 153 -9 76 -80 136 -161 136 -18 0 -57 -12 -87
-27z"/>
<path d="M4754 4951 c-17 -10 -42 -34 -55 -53 -22 -30 -24 -42 -22 -143 3
-197 59 -353 165 -459 80 -80 152 -110 243 -103 188 14 281 187 215 400 -41
132 -139 229 -329 325 -116 58 -164 65 -217 33z"/>
<path d="M1833 4446 c-85 -21 -164 -67 -234 -137 -79 -79 -97 -120 -79 -184
13 -47 68 -107 113 -124 16 -6 49 -11 75 -11 43 0 49 3 99 57 96 103 143 116
222 63 57 -39 111 -40 164 -5 51 36 80 96 75 155 -6 60 -33 97 -100 137 -97
59 -220 77 -335 49z"/>
<path d="M2535 3833 c-84 -18 -120 -65 -113 -147 5 -58 25 -92 77 -127 29 -20
50 -24 155 -29 174 -9 188 -21 143 -130 -45 -109 -142 -238 -346 -464 -97
-108 -120 -157 -102 -218 24 -80 93 -118 175 -97 33 8 64 34 161 132 302 306
427 506 442 708 14 194 -94 321 -309 364 -71 14 -235 19 -283 8z"/>
<path d="M4241 3795 c-189 -53 -336 -211 -336 -360 1 -110 80 -212 197 -251
81 -27 199 -16 283 25 118 58 190 149 265 332 36 89 38 144 7 189 -41 62 -72
72 -225 76 -101 3 -151 0 -191 -11z m48 -301 c-20 -25 -67 -46 -74 -33 -8 12
-9 12 30 32 41 22 62 23 44 1z"/>
<path d="M1193 3759 c-54 -9 -202 -64 -285 -105 -84 -43 -122 -122 -104 -219
8 -39 55 -99 95 -119 40 -20 92 -26 136 -16 22 5 41 8 42 6 2 -2 -24 -54 -57
-117 -161 -302 -248 -508 -306 -726 -32 -121 -30 -184 9 -241 50 -71 134 -101
227 -81 53 11 58 16 409 368 196 197 365 364 375 372 19 14 19 12 13 -53 -7
-77 -95 -465 -139 -612 -16 -56 -61 -179 -99 -274 -75 -188 -82 -232 -50 -292
28 -54 74 -80 139 -80 88 0 106 27 212 304 93 241 104 277 200 636 33 124 67
248 76 277 30 94 8 298 -44 400 -46 89 -144 135 -242 114 -101 -22 -170 -70
-347 -245 -73 -71 -133 -127 -133 -124 0 3 47 101 104 218 119 242 138 309
117 404 -22 98 -97 176 -193 202 -59 15 -79 16 -155 3z"/>
<path d="M3500 3374 c-52 -18 -110 -71 -146 -131 -54 -93 -83 -296 -51 -359
32 -62 95 -94 185 -94 250 0 427 190 368 394 -42 142 -221 238 -356 190z"/>
<path d="M4863 2769 c-66 -19 -259 -266 -304 -390 l-21 -57 -34 38 c-133 147
-423 39 -424 -157 0 -12 12 -63 26 -113 14 -50 24 -93 21 -96 -2 -3 -47 7 -98
22 -72 21 -117 28 -189 28 -85 1 -101 -2 -152 -27 -70 -34 -131 -101 -158
-173 -25 -67 -27 -208 -5 -334 8 -47 22 -150 31 -230 10 -95 22 -157 35 -182
35 -69 124 -114 201 -101 60 9 139 62 175 116 52 78 57 111 43 280 -6 82 -10
151 -7 154 7 6 64 -24 107 -57 57 -44 92 -53 181 -47 140 9 233 74 280 196 26
68 36 252 21 376 -6 44 -10 81 -8 82 1 1 24 -9 51 -22 128 -65 281 6 401 186
90 135 121 297 73 375 -11 19 -24 34 -29 34 -4 0 -28 20 -51 45 -25 26 -58 49
-79 55 -40 11 -44 11 -87 -1z"/>
<path d="M2890 2376 c-30 -8 -93 -31 -140 -51 -117 -50 -410 -203 -438 -228
-12 -12 -30 -42 -39 -68 l-17 -46 -60 0 c-142 1 -295 -126 -296 -246 0 -106
98 -206 202 -207 35 0 38 -2 48 -42 6 -24 20 -76 31 -116 21 -75 20 -102 -3
-102 -26 0 -94 -43 -140 -87 -28 -28 -59 -73 -80 -117 -31 -67 -33 -77 -33
-181 0 -131 15 -181 84 -287 147 -224 377 -378 626 -418 76 -12 150 -7 235 16
87 25 270 121 312 163 99 104 57 274 -78 311 -61 17 -105 8 -220 -47 -129 -62
-191 -67 -294 -28 -105 40 -194 118 -259 225 -28 47 -29 100 -1 100 30 0 70
-23 105 -60 60 -65 140 -77 221 -34 170 89 205 261 72 352 -107 74 -153 160
-214 399 -24 96 -44 179 -44 184 0 5 8 9 18 9 9 0 96 40 192 89 192 97 286
138 296 128 13 -13 -81 -256 -171 -441 -29 -61 -57 -123 -60 -139 -17 -68 28
-148 109 -189 61 -31 153 -29 205 5 70 46 148 218 270 588 67 206 75 265 44
355 -23 69 -118 162 -198 193 -75 29 -206 37 -285 17z"/>
</g>
</svg>
