<?xml version="1.0" standalone="no"?>
<!DOCTYPE svg PUBLIC "-//W3C//DTD SVG 20010904//EN"
 "http://www.w3.org/TR/2001/REC-SVG-20010904/DTD/svg10.dtd">
<svg version="1.0" xmlns="http://www.w3.org/2000/svg"
 width="600.000000pt" height="600.000000pt" viewBox="0 0 600.000000 600.000000"
 preserveAspectRatio="xMidYMid meet">
<metadata>
Created by potrace 1.15, written by Peter Selinger 2001-2017
</metadata>
<g transform="translate(0.000000,600.000000) scale(0.100000,-0.100000)"
fill="#16364b" stroke="none">
<path d="M2614 5501 c-50 -31 -125 -179 -145 -289 -15 -77 9 -150 65 -206 74
-75 185 -97 360 -72 60 9 119 16 130 16 15 0 -13 -34 -105 -127 -159 -163
-193 -204 -325 -393 -97 -140 -108 -160 -112 -207 -4 -43 1 -63 22 -107 40
-82 70 -93 276 -101 226 -8 459 -24 555 -36 108 -15 148 -13 185 6 65 34 89
124 51 195 -36 69 -76 79 -421 105 -118 9 -223 20 -233 24 -16 6 -12 15 33 76
92 123 149 187 320 355 159 156 169 168 185 224 14 49 15 65 5 102 -18 62 -68
116 -139 148 -92 41 -168 44 -335 12 -77 -14 -156 -26 -178 -26 l-38 0 31 62
c53 105 32 194 -57 238 -50 25 -90 25 -130 1z"/>
<path d="M1610 5166 c-230 -81 -398 -236 -545 -501 -54 -97 -56 -102 -53 -165
6 -113 58 -157 174 -146 144 13 369 17 383 7 13 -8 13 -27 4 -130 -8 -78 -8
-132 -2 -154 36 -130 209 -159 277 -47 23 37 48 292 38 372 -24 176 -143 269
-348 269 -37 0 -68 4 -68 9 0 4 34 40 76 79 52 49 102 84 162 113 133 67 174
136 138 233 -33 85 -112 106 -236 61z"/>
<path d="M4241 4690 c-83 -22 -286 -116 -339 -157 -36 -27 -62 -76 -62 -118 0
-45 37 -103 80 -125 71 -36 113 -28 267 50 76 39 149 71 163 73 23 2 24 -1 22
-33 -10 -103 -89 -280 -205 -455 -49 -74 -61 -99 -64 -140 -4 -53 -1 -61 56
-138 54 -73 84 -83 217 -69 121 13 374 14 414 3 20 -6 25 -13 23 -35 -3 -36
-80 -271 -138 -421 -26 -66 -47 -136 -47 -155 -2 -138 189 -213 276 -110 30
37 178 479 201 605 30 158 8 254 -74 328 -83 75 -151 92 -369 92 -89 0 -162 3
-162 6 0 4 20 49 44 100 163 343 152 598 -28 691 -59 31 -178 34 -275 8z"/>
<path d="M1925 4009 c-106 -51 -224 -93 -356 -128 -125 -33 -150 -46 -173 -94
-36 -78 -7 -180 64 -219 47 -26 101 -20 266 30 259 79 421 153 456 211 31 50
30 127 -2 174 -55 80 -129 88 -255 26z"/>
<path d="M3767 3689 c-99 -20 -198 -76 -301 -170 -67 -61 -86 -94 -86 -149 0
-101 91 -171 182 -141 19 6 52 30 74 52 43 44 151 115 161 105 15 -14 -38
-170 -130 -386 -12 -28 -31 -44 -86 -74 -38 -21 -82 -51 -96 -66 -53 -55 -52
-151 2 -202 70 -64 128 -65 250 -4 49 24 151 69 228 100 203 81 264 129 286
223 18 83 -47 185 -128 198 -63 11 -62 9 -46 67 8 29 16 98 16 153 1 84 -3
108 -22 153 -51 113 -169 168 -304 141z"/>
<path d="M2415 3479 c-85 -20 -223 -71 -294 -107 -84 -42 -111 -78 -111 -150
0 -79 48 -136 123 -147 33 -5 62 1 137 28 125 45 233 69 301 65 l54 -3 -2 -41
c-2 -47 -35 -130 -89 -224 -65 -115 -56 -212 27 -267 33 -22 47 -25 94 -21 76
6 105 36 171 173 85 179 108 254 108 365 1 86 -2 100 -29 154 -34 67 -86 114
-171 153 -51 23 -74 27 -169 30 -60 1 -128 -2 -150 -8z"/>
<path d="M1125 3177 c-76 -26 -163 -76 -194 -113 -56 -69 -52 -168 11 -240 43
-48 80 -65 145 -65 l55 0 -6 -42 c-24 -175 -39 -382 -40 -562 -1 -279 15 -354
90 -411 67 -51 190 -42 254 20 78 75 130 142 170 216 106 198 344 528 360 499
13 -23 29 -125 36 -223 8 -111 -11 -253 -62 -457 -51 -205 -41 -263 52 -309
52 -26 89 -25 139 3 54 30 67 60 114 267 70 307 75 470 21 769 -32 174 -71
244 -165 287 -155 73 -329 -30 -539 -318 -27 -37 -52 -66 -54 -63 -2 2 1 71 8
153 13 157 9 343 -9 404 -20 64 -72 129 -130 162 -46 25 -67 30 -135 33 -49 2
-97 -2 -121 -10z"/>
<path d="M4805 2668 c-43 -16 -91 -50 -116 -82 -26 -33 -49 -106 -49 -156 l0
-37 -97 -12 c-117 -15 -269 -64 -348 -112 -241 -145 -303 -481 -144 -777 l39
-74 -22 -28 c-13 -16 -32 -29 -43 -29 -12 -1 -75 22 -140 50 -164 69 -242 89
-346 89 -107 0 -177 -23 -265 -85 -99 -71 -206 -210 -314 -408 -28 -52 -52
-83 -72 -93 -16 -8 -50 -31 -75 -50 -61 -46 -82 -44 -135 15 -74 83 -156 274
-193 449 -22 108 -50 151 -114 178 -119 50 -248 -30 -259 -159 -9 -110 73
-420 151 -572 60 -116 183 -239 292 -291 69 -33 92 -39 166 -42 128 -6 225 26
339 112 30 22 75 52 100 66 31 18 54 41 75 77 167 290 221 368 278 404 51 32
111 22 265 -45 176 -75 265 -89 368 -58 122 38 225 140 240 237 5 39 12 47 49
69 50 30 102 86 121 132 8 19 14 59 14 91 0 60 -5 70 -78 179 -34 51 -52 101
-52 146 0 34 41 50 202 78 247 44 363 110 425 246 75 164 46 402 -58 471 -45
30 -152 41 -204 21z"/>
<path d="M3175 2534 c-11 -3 -56 -12 -100 -20 -151 -28 -474 -125 -515 -154
-93 -67 -93 -234 1 -301 51 -36 117 -36 244 0 106 29 310 73 408 87 55 7 57 2
32 -80 -34 -111 -8 -212 68 -267 110 -80 232 -27 290 126 108 286 59 493 -135
580 -52 23 -77 28 -167 31 -58 2 -115 1 -126 -2z"/>
</g>
</svg>
