<?xml version="1.0" standalone="no"?>
<!DOCTYPE svg PUBLIC "-//W3C//DTD SVG 20010904//EN"
 "http://www.w3.org/TR/2001/REC-SVG-20010904/DTD/svg10.dtd">
<svg version="1.0" xmlns="http://www.w3.org/2000/svg"
 width="600.000000pt" height="600.000000pt" viewBox="0 0 600.000000 600.000000"
 preserveAspectRatio="xMidYMid meet">
<metadata>
Created by potrace 1.15, written by Peter Selinger 2001-2017
</metadata>
<g transform="translate(0.000000,600.000000) scale(0.100000,-0.100000)"
fill="#16364b" stroke="none">
<path d="M1424 5673 c-72 -54 -163 -122 -203 -151 -107 -79 -125 -139 -62
-203 53 -53 119 -50 366 17 296 81 315 90 315 161 0 72 -64 122 -131 103 -48
-14 -52 -13 -35 12 32 45 13 119 -35 144 -55 28 -78 19 -215 -83z"/>
<path d="M2351 5401 c-31 -29 -31 -29 -31 -138 -1 -245 -33 -423 -97 -546 -42
-79 -92 -127 -193 -182 -57 -31 -76 -48 -88 -75 -29 -70 19 -140 95 -140 46 0
190 88 261 160 150 152 230 436 220 784 -3 115 -4 118 -31 142 -41 35 -96 33
-136 -5z"/>
<path d="M3512 5335 c-89 -65 -51 -239 79 -359 150 -140 315 -89 278 85 -11
49 -70 151 -118 202 -60 66 -193 105 -239 72z"/>
<path d="M2982 5134 c-58 -29 -102 -74 -136 -142 -112 -222 16 -400 219 -304
124 59 158 117 159 272 1 69 -3 92 -20 120 -47 81 -129 101 -222 54z"/>
<path d="M4735 4727 c-30 -30 -34 -41 -40 -111 -19 -205 34 -413 132 -511 132
-132 315 -58 353 144 22 116 -36 253 -157 374 -106 106 -154 137 -211 137 -36
0 -50 -6 -77 -33z"/>
<path d="M2678 4217 c-183 -52 -239 -238 -111 -369 72 -74 194 -103 317 -74
116 27 247 108 299 186 35 51 12 163 -40 197 -78 52 -364 88 -465 60z"/>
<path d="M1072 4104 c-12 -8 -29 -28 -37 -44 -42 -82 12 -169 120 -195 48 -11
125 -47 125 -58 0 -6 -35 -7 -102 -2 -201 15 -206 14 -239 -23 -59 -66 -26
-163 66 -194 124 -40 314 -42 407 -4 160 67 185 266 50 388 -72 65 -260 148
-334 148 -19 0 -44 -7 -56 -16z"/>
<path d="M4238 3779 c-110 -12 -207 -80 -259 -181 -33 -64 -38 -185 -10 -259
72 -191 289 -251 467 -129 96 66 149 179 161 340 9 126 -11 157 -128 201 -66
25 -157 36 -231 28z m46 -330 c-17 -18 -54 -27 -54 -11 0 15 16 31 40 40 31
12 38 -2 14 -29z"/>
<path d="M5205 3731 c-90 -22 -146 -52 -205 -107 -69 -64 -94 -128 -88 -224 6
-94 41 -170 108 -238 70 -71 108 -87 210 -87 69 0 94 4 132 23 63 31 123 93
161 167 28 55 31 69 32 155 0 84 -3 101 -27 145 -28 53 -117 145 -164 170 -37
19 -71 18 -159 -4z m65 -305 c0 -16 -27 -46 -41 -46 -20 0 -22 33 -4 46 24 18
45 18 45 0z"/>
<path d="M1632 3683 c-7 -3 -19 -18 -28 -34 -13 -27 -13 -39 1 -115 45 -241
138 -353 249 -303 99 45 57 261 -77 403 -47 50 -57 56 -92 55 -22 0 -46 -3
-53 -6z"/>
<path d="M3412 3350 c-36 -22 -95 -108 -149 -217 -32 -65 -34 -74 -23 -107 39
-119 211 -93 301 47 47 73 63 125 56 192 -4 41 -10 54 -38 77 -41 34 -98 37
-147 8z"/>
<path d="M2180 3059 c-154 -10 -223 -21 -432 -74 -299 -76 -379 -115 -518
-254 -148 -149 -215 -328 -191 -505 26 -188 121 -327 313 -461 201 -141 258
-201 354 -379 63 -119 128 -193 215 -251 105 -71 219 -107 349 -113 149 -6
258 16 475 98 55 21 152 50 215 65 315 75 578 187 760 324 261 196 389 374
430 595 17 90 8 225 -19 296 -47 125 -198 277 -345 349 -120 59 -491 152 -681
171 -64 6 -165 28 -280 60 -273 76 -414 94 -645 79z m304 -400 c28 -5 125 -29
216 -54 207 -56 319 -80 440 -94 52 -7 154 -25 225 -41 72 -16 148 -32 170
-36 110 -19 237 -130 237 -208 0 -125 -124 -295 -303 -417 -72 -48 -236 -127
-394 -189 -113 -44 -287 -100 -312 -100 -8 0 -61 -20 -119 -45 -255 -111 -417
-112 -532 -2 -18 18 -63 79 -99 137 -126 202 -182 258 -455 458 -89 65 -112
102 -116 184 -7 115 48 213 153 271 83 47 388 130 538 147 82 10 274 4 351
-11z"/>
<path d="M399 2191 c-43 -44 -39 -78 30 -231 132 -290 247 -410 395 -410 76 0
151 42 181 101 20 38 18 115 -3 162 -36 80 -216 228 -435 358 -96 57 -127 61
-168 20z"/>
<path d="M4737 1641 c-30 -27 -37 -29 -73 -21 -65 15 -123 -9 -150 -61 -21
-42 -17 -132 11 -236 51 -192 117 -267 222 -250 110 18 176 144 203 390 9 79
8 101 -4 131 -32 77 -145 103 -209 47z"/>
</g>
</svg>
