<?xml version="1.0" standalone="no"?>
<!DOCTYPE svg PUBLIC "-//W3C//DTD SVG 20010904//EN"
 "http://www.w3.org/TR/2001/REC-SVG-20010904/DTD/svg10.dtd">
<svg version="1.0" xmlns="http://www.w3.org/2000/svg"
 width="600.000000pt" height="600.000000pt" viewBox="0 0 600.000000 600.000000"
 preserveAspectRatio="xMidYMid meet">
<metadata>
Created by potrace 1.15, written by Peter Selinger 2001-2017
</metadata>
<g transform="translate(0.000000,600.000000) scale(0.100000,-0.100000)"
fill="#16364b" stroke="none">
<path d="M2376 5374 c-13 -13 -16 -43 -16 -172 0 -413 -69 -584 -280 -697 -71
-38 -75 -42 -78 -77 -6 -77 66 -73 197 12 183 118 251 275 271 618 11 192 5
295 -17 318 -19 19 -58 18 -77 -2z"/>
<path d="M3567 5294 c-20 -6 -47 -53 -47 -82 0 -32 59 -139 105 -190 74 -82
141 -102 192 -58 51 44 35 122 -48 231 -21 27 -54 61 -73 73 -34 24 -95 35
-129 26z"/>
<path d="M3025 5100 c-53 -27 -87 -62 -119 -120 -34 -63 -49 -139 -36 -193 11
-50 58 -97 97 -97 108 0 253 176 253 307 0 44 -5 58 -28 84 -37 42 -107 50
-167 19z m85 -110 c0 -43 -93 -180 -121 -180 -17 0 -9 73 12 117 34 70 109
113 109 63z"/>
<path d="M4770 4728 c-48 -26 -51 -45 -47 -293 5 -260 15 -315 68 -359 55 -46
130 -26 164 43 26 52 31 185 11 300 -20 113 -72 274 -95 295 -25 22 -72 29
-101 14z"/>
<path d="M2678 4208 c-103 -27 -130 -149 -48 -216 60 -50 194 -92 290 -91 75
0 178 36 204 72 30 40 28 100 -4 131 -28 26 -187 79 -307 102 -84 16 -84 16
-135 2z"/>
<path d="M5250 3975 c-115 -26 -199 -107 -220 -212 -32 -151 57 -341 188 -405
156 -75 419 51 472 225 43 143 -19 280 -165 362 -78 43 -172 53 -275 30z m128
-281 c26 -7 28 -17 6 -38 -23 -24 -49 -19 -62 9 -7 14 -12 28 -12 30 0 7 41 6
68 -1z"/>
<path d="M1303 3811 c-118 -41 -178 -128 -171 -249 8 -144 105 -264 262 -323
73 -27 129 -85 176 -183 56 -116 77 -209 115 -501 9 -66 29 -181 45 -255 16
-74 36 -189 46 -255 53 -381 118 -544 272 -685 59 -55 167 -117 272 -157 23
-9 21 -11 -35 -37 -101 -46 -145 -101 -145 -179 0 -93 76 -146 210 -146 36 -1
144 10 240 24 176 25 251 30 263 19 4 -4 -7 -22 -23 -41 -40 -45 -46 -75 -24
-112 28 -47 98 -59 150 -25 68 45 98 196 52 264 -60 88 -129 97 -420 55 -102
-14 -208 -25 -235 -23 l-48 3 50 26 c28 15 133 52 236 82 l185 56 185 -15
c101 -8 254 -14 339 -12 l155 2 32 -30 c47 -45 100 -58 251 -58 l132 -1 20
-32 c15 -25 32 -36 76 -49 92 -26 172 -2 224 69 35 48 38 85 10 115 -11 12
-20 23 -20 26 0 2 26 10 58 16 146 31 410 144 547 235 112 75 230 201 284 304
77 148 124 403 101 543 -23 137 -122 312 -236 416 -231 213 -600 212 -824 -2
-130 -124 -286 -187 -585 -237 -215 -35 -368 -18 -530 61 -105 51 -193 119
-299 230 -123 129 -205 234 -314 400 -171 259 -270 373 -422 484 -97 72 -289
161 -400 185 -72 17 -198 13 -257 -8z m291 -277 c285 -113 376 -194 601 -539
159 -242 245 -352 367 -471 226 -219 447 -328 710 -350 230 -18 693 105 884
236 26 18 76 59 111 91 80 73 146 99 248 99 151 0 263 -76 337 -230 49 -102
58 -140 58 -247 0 -116 -13 -179 -55 -268 -62 -131 -139 -198 -316 -276 -209
-92 -373 -139 -560 -159 -270 -28 -822 -45 -979 -31 -69 7 -215 16 -325 21
-278 11 -375 39 -475 139 -93 93 -137 225 -171 511 -11 96 -24 191 -29 210
-15 60 -39 219 -56 375 -36 332 -142 603 -286 729 -47 41 -79 60 -201 116 -80
37 -103 100 -36 100 17 0 95 -25 173 -56z"/>
<path d="M2340 2437 c-37 -19 -39 -68 -4 -96 33 -26 58 -27 84 -1 22 22 27 72
7 88 -22 18 -61 23 -87 9z"/>
<path d="M2817 2042 c-10 -10 -17 -28 -17 -39 0 -25 53 -73 80 -73 22 0 60 45
60 71 0 49 -89 79 -123 41z"/>
<path d="M4230 3751 c-143 -30 -270 -182 -270 -322 0 -88 56 -177 142 -225 47
-26 62 -29 138 -29 72 0 92 4 135 27 63 33 118 88 147 147 41 84 34 246 -13
312 -42 59 -193 108 -279 90z m50 -275 c0 -8 -7 -22 -16 -30 -8 -9 -22 -16
-30 -16 -19 0 -18 25 2 44 19 20 44 21 44 2z"/>
<path d="M3458 3343 c-49 -53 -158 -258 -158 -297 0 -33 25 -56 60 -56 39 0
107 78 160 185 52 103 60 145 31 174 -29 29 -62 26 -93 -6z"/>
<path d="M462 2023 c-17 -7 -33 -49 -26 -68 9 -22 140 -118 211 -153 85 -44
135 -50 162 -23 57 57 4 108 -216 209 -90 41 -105 46 -131 35z"/>
<path d="M5334 1095 c-26 -18 -62 -100 -70 -157 -13 -91 49 -159 129 -144 70
13 113 99 105 210 -4 49 -9 63 -32 83 -32 27 -99 32 -132 8z"/>
</g>
</svg>
