<?xml version="1.0" standalone="no"?>
<!DOCTYPE svg PUBLIC "-//W3C//DTD SVG 20010904//EN"
 "http://www.w3.org/TR/2001/REC-SVG-20010904/DTD/svg10.dtd">
<svg version="1.0" xmlns="http://www.w3.org/2000/svg"
 width="600.000000pt" height="600.000000pt" viewBox="0 0 600.000000 600.000000"
 preserveAspectRatio="xMidYMid meet">
<metadata>
Created by potrace 1.15, written by Peter Selinger 2001-2017
</metadata>
<g transform="translate(0.000000,600.000000) scale(0.100000,-0.100000)"
fill="#16364b" stroke="none">
<path d="M3544 5280 c-26 -10 -54 -52 -54 -81 0 -67 113 -224 190 -264 81 -42
148 -9 136 67 -12 75 -127 237 -190 268 -46 22 -51 23 -82 10z m118 -188 c31
-46 31 -47 4 -22 -28 25 -67 88 -47 76 6 -4 25 -28 43 -54z"/>
<path d="M3015 5088 c-79 -43 -136 -140 -143 -243 -4 -65 -2 -73 22 -102 49
-59 122 -50 200 25 48 46 96 144 96 195 0 52 -26 105 -61 122 -33 18 -86 19
-114 3z m85 -110 c-1 -38 -35 -102 -75 -141 -21 -20 -41 -37 -45 -37 -26 0
-13 92 21 147 24 38 45 52 77 53 16 0 22 -6 22 -22z"/>
<path d="M4770 4737 c-13 -7 -30 -24 -37 -37 -27 -54 -5 -446 32 -567 26 -86
91 -118 148 -72 38 29 50 86 50 229 1 135 -10 209 -49 337 -33 112 -76 144
-144 110z"/>
<path d="M2670 4213 c-39 -27 -49 -45 -50 -87 0 -31 6 -45 35 -71 65 -62 290
-126 391 -110 62 9 104 49 104 99 0 66 -33 86 -270 162 -89 29 -175 32 -210 7z"/>
<path d="M1437 4005 c-104 -39 -167 -133 -167 -244 1 -111 52 -192 163 -257
71 -42 103 -76 151 -161 46 -84 70 -149 94 -263 38 -174 113 -721 123 -895 17
-305 47 -438 134 -602 87 -164 178 -259 309 -323 72 -35 200 -70 256 -70 29 0
24 -11 -24 -50 -58 -48 -127 -132 -150 -183 -27 -58 -27 -138 0 -174 44 -60
97 -79 327 -123 31 -6 57 -15 57 -19 0 -5 -26 -18 -57 -30 -83 -32 -103 -54
-103 -112 0 -40 4 -51 31 -73 17 -14 42 -29 55 -32 59 -15 184 67 225 148 23
45 25 127 4 172 -8 17 -34 44 -56 58 -42 27 -65 33 -235 64 -50 9 -97 20 -104
24 -37 23 31 109 184 234 l101 82 160 -7 c88 -4 268 -5 400 -1 l240 5 0 -81
c0 -66 4 -86 21 -109 33 -45 96 -88 157 -107 31 -10 57 -21 57 -25 0 -5 -9
-16 -20 -26 -22 -20 -27 -73 -10 -105 5 -10 30 -26 55 -36 88 -33 211 4 267
80 26 36 29 47 26 93 -7 87 -40 110 -209 144 -138 27 -179 45 -179 75 0 14 7
27 18 31 9 3 44 18 77 33 33 16 94 33 135 39 230 35 641 152 747 212 202 116
345 334 383 586 21 139 -5 279 -84 447 -53 113 -110 191 -180 245 -173 134
-380 139 -582 14 -156 -96 -218 -121 -374 -153 -360 -73 -653 -4 -970 229
-150 110 -228 198 -400 456 -251 376 -394 530 -600 649 -47 27 -107 63 -135
80 -27 17 -67 39 -90 50 -53 25 -177 31 -228 11z m173 -220 c25 -13 81 -43
125 -66 206 -107 322 -229 539 -569 55 -85 130 -195 167 -245 194 -260 544
-500 840 -575 107 -28 320 -42 441 -29 263 26 434 78 577 174 38 26 90 53 117
61 132 40 261 -1 339 -107 57 -77 103 -191 117 -288 15 -102 -5 -209 -58 -319
-53 -106 -171 -226 -269 -272 -144 -67 -413 -142 -612 -170 -89 -13 -877 -7
-1253 9 -220 9 -284 22 -373 75 -53 31 -128 112 -168 181 -67 116 -129 383
-129 557 0 40 -16 172 -35 293 -20 121 -45 283 -56 360 -74 534 -136 676 -354
818 -85 55 -110 91 -85 121 19 23 78 19 130 -9z"/>
<path d="M2370 2480 c-11 -11 -20 -26 -20 -34 0 -25 50 -76 75 -76 26 0 65 42
65 71 0 29 -36 59 -70 59 -17 0 -39 -9 -50 -20z"/>
<path d="M2822 2088 c-13 -13 -16 -47 -6 -73 10 -26 61 -47 84 -35 41 22 52
76 22 103 -22 20 -83 22 -100 5z"/>
<path d="M5311 3989 c-70 -14 -132 -49 -191 -108 -62 -62 -86 -105 -102 -184
-28 -135 86 -300 244 -353 151 -50 335 34 407 186 35 75 37 204 4 266 -52 97
-158 179 -251 195 -32 5 -59 8 -62 8 -3 -1 -25 -5 -49 -10z m87 -307 c19 -12
4 -41 -25 -48 -27 -7 -43 7 -43 39 0 18 43 24 68 9z"/>
<path d="M4195 3734 c-137 -43 -236 -191 -222 -330 24 -233 305 -330 486 -168
70 63 101 129 101 218 0 92 -22 171 -57 208 -68 71 -207 104 -308 72z m95
-272 c0 -10 -5 -23 -12 -30 -13 -13 -48 -16 -48 -4 0 16 32 52 46 52 8 0 14
-8 14 -18z"/>
<path d="M487 1992 c-10 -10 -17 -26 -17 -34 0 -34 241 -188 294 -188 28 0 56
29 56 58 0 29 -59 75 -173 132 -107 54 -135 60 -160 32z"/>
<path d="M5335 1088 c-9 -13 -25 -53 -36 -89 -17 -56 -19 -74 -9 -108 13 -48
42 -71 91 -71 74 0 122 66 123 172 1 57 -2 70 -23 92 -20 22 -33 26 -77 26
-43 0 -56 -4 -69 -22z"/>
</g>
</svg>
