<?xml version="1.0" standalone="no"?>
<!DOCTYPE svg PUBLIC "-//W3C//DTD SVG 20010904//EN"
 "http://www.w3.org/TR/2001/REC-SVG-20010904/DTD/svg10.dtd">
<svg version="1.0" xmlns="http://www.w3.org/2000/svg"
 width="600.000000pt" height="600.000000pt" viewBox="0 0 600.000000 600.000000"
 preserveAspectRatio="xMidYMid meet">
<metadata>
Created by potrace 1.15, written by Peter Selinger 2001-2017
</metadata>
<g transform="translate(0.000000,600.000000) scale(0.100000,-0.100000)"
fill="#16364b" stroke="none">
<path d="M2302 5665 c-143 -40 -250 -155 -296 -315 -50 -180 -72 -505 -54
-830 8 -137 6 -225 -6 -405 -9 -126 -18 -338 -20 -470 -5 -251 -23 -498 -37
-493 -23 8 -158 131 -218 197 -72 80 -171 216 -171 236 0 6 14 24 30 40 17 16
30 35 30 42 0 25 -30 26 -57 2 l-25 -24 8 45 c18 106 1 129 -43 56 -27 -44
-43 -57 -43 -36 0 6 -7 26 -14 45 -11 26 -19 33 -32 28 -13 -5 -15 -16 -12
-55 6 -53 0 -58 -27 -28 -20 22 -40 26 -50 10 -3 -6 13 -45 37 -88 24 -42 50
-96 59 -119 45 -114 219 -302 416 -449 131 -98 122 -70 97 -302 -28 -255 -17
-511 36 -847 57 -356 252 -586 576 -676 l79 -23 1 -195 c0 -211 9 -288 50
-427 15 -49 29 -102 32 -118 l5 -29 -59 6 c-120 12 -194 -24 -194 -95 0 -82
95 -129 217 -107 82 15 141 46 174 92 38 53 38 104 -1 205 -68 176 -100 397
-81 560 5 46 11 85 12 86 2 2 99 0 214 -3 116 -4 335 -6 487 -6 153 0 278 -2
278 -5 0 -3 -7 -43 -16 -90 -24 -136 -1 -283 75 -480 36 -93 47 -129 39 -130
-2 -1 -48 -5 -102 -10 -92 -8 -101 -11 -130 -39 -39 -40 -43 -97 -7 -134 65
-70 259 -47 354 42 74 68 75 130 8 308 -63 168 -91 280 -91 369 0 80 18 174
34 180 6 1 88 8 181 14 269 16 369 47 458 139 117 121 150 276 164 781 7 251
-4 364 -48 494 -38 113 -105 243 -169 326 -27 36 -49 68 -50 71 0 4 28 17 63
29 162 59 370 183 475 284 35 33 93 105 129 159 59 90 71 127 43 127 -5 0 -10
7 -10 15 0 8 -8 15 -19 15 -10 0 -24 -7 -31 -15 -19 -23 -28 -18 -32 18 -2 20
-8 32 -18 32 -8 0 -21 -15 -29 -32 -17 -38 -26 -41 -34 -13 -5 20 -31 27 -41
11 -3 -5 1 -28 9 -51 8 -23 15 -49 15 -57 0 -22 -88 -111 -175 -176 -94 -70
-313 -180 -404 -203 l-64 -16 -161 159 c-89 88 -188 182 -221 210 -79 66 -285
213 -422 299 -327 206 -445 349 -531 640 -38 126 -58 251 -72 434 -22 293 -30
366 -45 424 -58 219 -210 361 -397 372 -47 2 -92 -1 -126 -11z m184 -160 c50
-20 83 -49 122 -103 63 -90 80 -181 101 -558 11 -196 35 -327 87 -475 63 -183
134 -308 233 -413 74 -78 127 -117 381 -286 372 -247 519 -371 761 -640 171
-189 254 -316 305 -465 27 -77 28 -89 32 -319 6 -374 -18 -614 -73 -731 -77
-163 -184 -181 -1024 -178 -741 3 -884 16 -1036 96 -134 71 -240 221 -285 402
-54 220 -86 662 -61 840 6 39 15 176 21 305 6 129 15 291 21 360 6 69 12 244
14 390 2 146 8 312 14 370 8 70 9 238 5 505 -6 373 -5 409 15 536 24 161 50
237 100 292 69 76 183 107 267 72z"/>
<path d="M2570 2950 c-27 -27 -25 -56 5 -85 40 -41 88 -28 108 28 7 19 -8 56
-27 69 -21 14 -66 8 -86 -12z"/>
<path d="M3228 2929 c-32 -18 -40 -46 -24 -78 36 -69 126 -48 126 31 0 45 -59
73 -102 47z"/>
<path d="M2723 1999 c-7 -7 -13 -23 -13 -35 0 -30 16 -41 85 -53 72 -13 633
-7 647 7 18 18 3 57 -27 72 -24 12 -61 14 -200 10 -253 -7 -353 -6 -420 3 -44
6 -63 5 -72 -4z"/>
</g>
</svg>
