<?xml version="1.0" standalone="no"?>
<!DOCTYPE svg PUBLIC "-//W3C//DTD SVG 20010904//EN"
 "http://www.w3.org/TR/2001/REC-SVG-20010904/DTD/svg10.dtd">
<svg version="1.0" xmlns="http://www.w3.org/2000/svg"
 width="600.000000pt" height="600.000000pt" viewBox="0 0 600.000000 600.000000"
 preserveAspectRatio="xMidYMid meet">
<metadata>
Created by potrace 1.15, written by Peter Selinger 2001-2017
</metadata>
<g transform="translate(0.000000,600.000000) scale(0.100000,-0.100000)"
fill="#16364b" stroke="none">
<path d="M3136 5650 c-44 -13 -76 -49 -108 -118 -104 -226 -63 -421 109 -514
48 -27 176 -62 266 -73 26 -3 47 -10 47 -15 0 -4 -46 -32 -102 -61 -222 -113
-350 -201 -474 -324 l-72 -70 -5 -80 c-7 -103 11 -149 80 -199 65 -48 112 -65
415 -146 236 -63 265 -69 301 -59 132 35 150 217 28 278 -32 16 -330 99 -421
116 -53 11 -54 14 -8 49 73 56 146 100 343 206 105 56 212 118 239 138 179
131 128 318 -110 408 -50 19 -315 74 -356 74 -3 0 -14 7 -23 16 -20 20 -14 53
27 148 24 54 29 79 25 113 -10 91 -102 142 -201 113z"/>
<path d="M1400 5414 c-123 -61 -340 -329 -460 -569 -114 -227 -121 -424 -17
-499 43 -32 114 -29 160 6 19 16 38 36 41 45 9 28 246 94 394 109 34 4 62 3
62 -1 0 -4 -34 -63 -75 -130 -102 -167 -126 -228 -133 -340 -4 -80 -8 -94 -32
-121 -93 -107 13 -300 147 -268 15 4 54 22 85 41 69 41 194 99 342 159 61 25
122 55 135 67 53 49 66 132 29 187 -60 87 -123 98 -252 45 -48 -20 -90 -35
-92 -33 -2 2 32 68 75 147 136 246 145 373 36 485 -50 52 -142 86 -232 86 -81
0 -228 -24 -335 -56 -26 -8 -22 9 14 63 94 142 173 233 255 294 63 47 83 82
83 147 0 80 -57 146 -135 157 -31 5 -52 0 -95 -21z"/>
<path d="M4720 4483 c-70 -12 -376 -85 -391 -94 -27 -14 -66 -70 -74 -106 -9
-44 12 -111 44 -144 43 -43 80 -44 220 -9 67 17 125 29 128 26 3 -2 -15 -31
-40 -63 -25 -32 -102 -130 -171 -218 -69 -88 -131 -176 -137 -197 -17 -55 -4
-106 41 -150 31 -32 44 -38 79 -38 90 0 133 40 345 320 181 238 235 331 257
437 35 169 -97 272 -301 236z"/>
<path d="M3809 3676 c-64 -44 -87 -129 -51 -193 9 -17 58 -75 107 -129 107
-115 111 -120 119 -160 13 -58 79 -104 149 -104 84 0 147 69 147 161 0 56 -34
126 -95 196 -25 29 -53 73 -61 97 -41 118 -223 194 -315 132z"/>
<path d="M2452 3636 c-111 -31 -281 -116 -320 -161 -96 -109 -5 -284 135 -262
20 4 66 25 104 48 91 54 175 88 222 89 36 0 37 -1 37 -34 0 -69 -86 -327 -158
-471 -19 -38 -63 -118 -98 -176 -54 -91 -64 -114 -64 -153 0 -64 17 -91 99
-163 105 -91 144 -94 303 -22 96 43 222 89 244 89 10 0 10 -11 -2 -51 -22 -74
-79 -222 -124 -319 -48 -105 -56 -148 -40 -205 40 -142 232 -173 323 -53 37
49 167 364 221 536 65 206 11 380 -143 459 -57 30 -71 33 -151 33 -62 0 -111
-7 -169 -23 -44 -13 -81 -21 -81 -16 0 4 14 38 31 75 39 89 85 242 105 357 30
172 2 291 -86 370 -89 80 -223 98 -388 53z"/>
<path d="M4512 3483 c-12 -2 -40 -21 -61 -41 -67 -63 -77 -159 -25 -221 27
-32 48 -41 229 -96 126 -39 195 -69 195 -85 0 -17 -90 -162 -173 -280 -66 -94
-81 -122 -85 -160 -10 -113 119 -185 220 -122 36 23 282 368 322 451 40 85 44
191 8 258 -53 100 -166 171 -396 247 -141 47 -193 58 -234 49z"/>
<path d="M1145 3428 c-76 -10 -177 -59 -288 -138 -97 -70 -124 -105 -133 -174
-22 -156 162 -276 294 -190 27 18 27 13 1 -84 -119 -444 -168 -689 -169 -837
0 -101 58 -185 139 -201 14 -2 42 -10 61 -16 50 -16 112 -13 151 8 53 27 157
147 259 299 30 44 109 155 176 248 68 92 137 193 155 224 30 51 33 54 46 38
15 -21 16 -33 14 -125 -3 -89 -22 -186 -81 -413 -76 -295 -94 -413 -79 -526
22 -157 145 -272 261 -241 101 28 142 152 76 235 -19 24 -20 35 -14 113 3 48
20 146 36 217 118 504 131 629 87 818 -14 62 -31 146 -37 187 -14 95 -46 151
-107 187 -54 31 -124 36 -184 11 -74 -32 -110 -75 -354 -421 -65 -92 -119
-166 -121 -164 -2 2 21 114 53 248 54 231 57 251 57 379 1 120 -2 140 -22 181
-12 26 -39 61 -59 79 -63 56 -122 72 -218 58z"/>
<path d="M3632 3191 c-65 -24 -137 -76 -180 -130 -49 -62 -92 -159 -92 -210 0
-114 115 -199 217 -160 43 16 73 49 99 108 22 49 26 53 51 47 123 -27 224 -9
280 50 83 88 41 214 -93 280 -75 37 -205 44 -282 15z"/>
<path d="M4611 2213 c-87 -31 -161 -132 -161 -217 0 -14 -6 -26 -12 -26 -7 0
-80 11 -162 25 -226 38 -306 32 -433 -30 -177 -87 -240 -230 -281 -633 l-7
-74 -118 105 c-65 58 -146 120 -180 139 -59 32 -66 33 -167 32 -91 0 -112 -3
-162 -26 -103 -48 -171 -124 -252 -284 -26 -53 -47 -83 -49 -74 -3 8 -15 87
-27 175 -22 174 -64 328 -104 386 -49 72 -157 99 -236 59 -47 -24 -75 -62 -92
-124 -11 -43 -10 -53 20 -143 34 -105 48 -185 57 -328 12 -187 60 -363 125
-465 106 -166 316 -260 446 -201 72 33 110 104 102 193 -5 43 1 65 42 162 68
161 132 286 145 286 18 0 58 -33 179 -147 183 -173 273 -220 405 -211 104 8
202 66 248 147 15 25 36 57 48 71 53 59 58 83 67 298 4 112 10 207 13 212 9
15 114 12 192 -4 141 -30 264 -39 339 -27 129 22 240 107 297 229 31 65 32 71
32 202 0 133 -1 136 -31 190 -57 101 -174 143 -283 103z"/>
</g>
</svg>
