<?xml version="1.0" standalone="no"?>
<!DOCTYPE svg PUBLIC "-//W3C//DTD SVG 20010904//EN"
 "http://www.w3.org/TR/2001/REC-SVG-20010904/DTD/svg10.dtd">
<svg version="1.0" xmlns="http://www.w3.org/2000/svg"
 width="600.000000pt" height="600.000000pt" viewBox="0 0 600.000000 600.000000"
 preserveAspectRatio="xMidYMid meet">
<metadata>
Created by potrace 1.15, written by Peter Selinger 2001-2017
</metadata>
<g transform="translate(0.000000,600.000000) scale(0.100000,-0.100000)"
fill="#16364b" stroke="none">
<path d="M3123 5659 c-61 -30 -83 -81 -83 -190 0 -240 99 -361 393 -484 37
-15 67 -31 67 -35 0 -3 -71 -49 -157 -100 -360 -212 -466 -294 -478 -367 -4
-24 -11 -43 -17 -43 -22 0 -69 -44 -88 -80 -50 -98 -4 -203 100 -231 40 -10
61 -9 176 15 72 14 179 31 239 36 85 7 115 14 141 32 58 40 80 118 49 178 -19
36 -72 77 -105 82 -14 1 -24 8 -23 13 2 6 81 60 177 120 96 61 200 131 229
157 70 60 107 132 107 206 0 125 -76 195 -310 285 -176 68 -200 95 -200 222 0
101 -24 149 -90 183 -55 27 -74 28 -127 1z"/>
<path d="M1253 5370 c-116 -66 -268 -240 -338 -385 -19 -38 -44 -106 -56 -150
-40 -141 -27 -360 26 -441 40 -62 138 -83 202 -44 53 32 58 50 58 220 1 145 3
160 29 228 54 143 118 227 228 303 94 65 124 157 75 230 -49 73 -138 89 -224
39z"/>
<path d="M1508 5050 c-150 -38 -199 -81 -205 -179 -7 -105 63 -177 162 -167
28 2 59 8 69 12 22 8 23 18 -19 -116 -36 -115 -39 -215 -6 -287 27 -62 84
-116 149 -145 l47 -20 -79 -39 c-97 -49 -223 -135 -249 -170 -10 -15 -21 -47
-24 -71 -6 -50 10 -89 52 -128 23 -21 36 -25 93 -25 63 0 71 3 131 44 91 62
219 119 319 143 107 24 147 43 175 82 30 42 31 133 1 173 -25 35 -98 73 -139
73 -30 0 -30 0 -27 51 6 86 -38 151 -113 167 -48 10 -48 8 5 177 59 189 61
265 5 344 -61 89 -195 120 -347 81z"/>
<path d="M4439 4526 c-89 -61 -92 -187 -7 -248 30 -21 42 -23 140 -21 60 2
109 -1 113 -7 6 -10 -37 -46 -179 -148 -98 -71 -121 -107 -113 -178 11 -104
119 -164 210 -118 56 29 300 216 369 285 112 109 143 208 95 300 -59 111 -206
159 -492 159 -90 0 -104 -3 -136 -24z"/>
<path d="M3911 3702 c-26 -10 -57 -33 -75 -55 -28 -35 -31 -46 -31 -106 0 -61
3 -71 41 -126 50 -74 159 -168 239 -206 98 -47 195 -38 263 25 80 72 66 182
-31 245 -33 22 -37 29 -37 65 0 50 -29 100 -70 121 -43 22 -176 55 -219 54
-20 0 -56 -8 -80 -17z"/>
<path d="M2535 3686 c-68 -16 -165 -51 -248 -91 -69 -32 -107 -87 -107 -154 0
-134 111 -190 241 -121 115 60 269 99 269 68 0 -82 -156 -420 -272 -591 -37
-56 -82 -121 -100 -144 -44 -60 -49 -124 -14 -176 24 -35 25 -42 16 -78 -24
-89 44 -202 137 -228 54 -15 71 -14 133 13 30 13 98 41 150 64 101 43 208 77
216 69 6 -6 -44 -136 -125 -325 -78 -181 -79 -232 -6 -328 63 -83 210 -99 284
-31 72 66 185 338 242 582 27 117 24 259 -8 321 -47 89 -135 147 -251 167 -84
14 -230 -3 -332 -38 -41 -14 -78 -24 -82 -23 -5 2 9 28 29 58 141 209 240 439
274 634 27 158 -29 284 -151 339 -57 26 -208 33 -295 13z"/>
<path d="M1155 3503 c-110 -29 -350 -163 -376 -210 -76 -133 46 -338 190 -319
25 3 55 13 68 21 30 20 30 8 2 -71 -51 -148 -150 -490 -172 -599 -52 -248 -49
-322 16 -389 36 -36 53 -46 114 -60 100 -24 137 -13 221 67 94 90 216 239 354
432 155 217 227 307 239 300 5 -4 9 -24 9 -46 0 -34 -53 -348 -127 -754 -17
-96 -26 -179 -27 -265 -1 -113 1 -130 23 -174 19 -38 33 -52 68 -68 65 -29
114 -18 169 37 49 50 63 97 46 160 -14 54 10 234 68 511 11 50 37 191 60 313
34 192 40 243 40 365 0 96 -5 158 -15 192 -34 114 -125 184 -239 184 -84 0
-146 -31 -222 -111 -56 -59 -226 -280 -303 -392 -18 -27 -35 -46 -38 -44 -5 6
24 117 68 256 42 134 69 254 76 341 10 137 -42 249 -140 298 -47 23 -133 36
-172 25z"/>
<path d="M4612 3239 c-46 -23 -82 -77 -82 -124 0 -48 27 -94 77 -127 61 -42
147 -127 167 -167 20 -39 9 -64 -57 -132 -71 -72 -83 -152 -34 -226 29 -43 67
-63 122 -63 75 0 142 48 210 150 53 80 68 136 64 237 -4 64 -10 91 -40 153
-61 126 -159 228 -285 295 -57 31 -86 31 -142 4z"/>
<path d="M3692 3240 c-109 -16 -228 -97 -293 -198 -15 -23 -35 -71 -44 -106
-16 -57 -16 -69 -3 -107 40 -119 197 -146 281 -48 l34 39 90 0 c78 0 96 4 144
28 127 64 160 217 68 317 -59 64 -162 92 -277 75z"/>
<path d="M4547 2256 c-96 -26 -156 -114 -157 -228 0 -38 -3 -68 -6 -68 -3 0
-42 9 -86 20 -159 41 -331 43 -438 5 -110 -39 -202 -123 -242 -223 -22 -55
-23 -67 -23 -359 l0 -303 -28 0 c-29 0 -101 -32 -112 -50 -8 -13 -33 0 -121
67 -40 29 -76 53 -80 53 -5 0 -62 39 -126 88 -244 182 -376 215 -484 119 -41
-35 -61 -71 -84 -147 l-16 -55 -12 60 c-6 33 -19 128 -27 210 -26 244 -32 274
-61 316 -48 69 -156 99 -237 65 -44 -18 -105 -91 -113 -133 -12 -63 32 -452
68 -608 53 -229 123 -349 260 -445 194 -136 351 -147 433 -31 27 39 30 50 31
129 1 96 11 172 24 172 4 0 75 -50 156 -112 158 -118 223 -154 296 -164 89
-12 207 30 310 111 67 53 101 116 96 184 l-2 46 39 2 c75 4 102 13 145 50 73
63 80 88 80 317 l0 198 58 -7 c31 -3 84 -13 118 -20 33 -8 98 -16 143 -19 331
-21 507 130 503 432 -2 181 -41 263 -147 311 -58 27 -103 31 -158 17z"/>
</g>
</svg>
