<?xml version="1.0" standalone="no"?>
<!DOCTYPE svg PUBLIC "-//W3C//DTD SVG 20010904//EN"
 "http://www.w3.org/TR/2001/REC-SVG-20010904/DTD/svg10.dtd">
<svg version="1.0" xmlns="http://www.w3.org/2000/svg"
 width="600.000000pt" height="600.000000pt" viewBox="0 0 600.000000 600.000000"
 preserveAspectRatio="xMidYMid meet">
<metadata>
Created by potrace 1.15, written by Peter Selinger 2001-2017
</metadata>
<g transform="translate(0.000000,600.000000) scale(0.100000,-0.100000)"
fill="#16364b" stroke="none">
<path d="M2315 5460 c-36 -15 -72 -64 -104 -143 -60 -147 -51 -273 26 -352 83
-86 204 -101 417 -52 65 15 121 26 123 23 3 -2 -26 -49 -65 -103 -158 -223
-375 -621 -375 -688 0 -48 11 -121 24 -155 11 -30 63 -67 105 -76 17 -3 131
12 269 37 211 36 264 42 435 46 218 6 248 13 287 72 36 53 39 94 12 148 -42
80 -62 85 -284 80 -132 -4 -225 -12 -305 -27 -63 -12 -132 -24 -154 -27 l-39
-6 38 69 c54 98 168 270 268 404 118 159 157 235 157 311 0 71 -25 126 -73
163 -79 61 -181 70 -382 35 -204 -35 -215 -36 -215 -29 0 4 9 29 21 54 55 125
-67 266 -186 216z"/>
<path d="M1725 5013 c-99 -22 -236 -86 -352 -164 -94 -64 -219 -182 -244 -231
-29 -57 -25 -124 10 -180 43 -67 67 -79 179 -90 185 -16 326 -48 408 -91 16
-9 49 -36 74 -62 57 -59 88 -75 142 -75 125 0 188 132 118 244 -72 113 -179
186 -340 231 -52 14 -102 29 -110 32 -24 8 115 73 193 89 87 19 119 35 153 79
36 47 42 109 15 153 -34 53 -75 72 -156 71 -38 -1 -79 -3 -90 -6z"/>
<path d="M4035 4920 c-70 -15 -150 -49 -236 -101 -104 -62 -136 -92 -151 -141
-30 -101 66 -213 166 -194 18 4 59 27 92 53 70 55 174 106 206 101 20 -3 23
-10 26 -52 6 -93 -36 -239 -125 -429 -39 -85 -45 -105 -40 -145 4 -39 12 -53
45 -82 21 -19 46 -49 55 -67 20 -37 64 -71 104 -79 16 -3 87 4 159 17 161 28
408 33 425 9 24 -35 -19 -267 -87 -474 -41 -124 -19 -197 71 -231 79 -31 142
3 185 99 35 77 92 264 115 375 23 116 18 287 -12 352 -44 98 -131 163 -251
188 -69 14 -252 14 -363 -1 -49 -6 -91 -9 -95 -6 -3 4 10 46 29 95 80 203 104
395 64 511 -25 71 -101 153 -169 182 -58 25 -151 34 -213 20z"/>
<path d="M2065 3944 c-102 -42 -288 -92 -407 -110 -120 -17 -150 -28 -184 -66
-33 -36 -44 -63 -44 -108 0 -57 23 -96 72 -121 38 -19 53 -21 138 -16 122 8
225 29 375 78 232 76 295 123 295 219 0 57 -30 107 -80 132 -47 24 -93 21
-165 -8z"/>
<path d="M3745 3726 c-123 -28 -514 -225 -575 -290 -19 -21 -25 -40 -28 -89
-4 -72 16 -114 70 -148 53 -33 107 -22 213 43 122 74 285 161 291 156 8 -9
-65 -204 -136 -360 -42 -94 -70 -169 -70 -189 0 -19 -12 -56 -26 -84 -20 -40
-24 -59 -20 -95 8 -55 41 -105 85 -126 86 -41 325 28 521 151 154 96 322 257
340 326 21 75 -23 145 -107 170 -70 20 -113 1 -213 -95 -75 -72 -205 -164
-216 -153 -2 2 16 46 40 98 87 187 137 391 121 491 -26 159 -132 229 -290 194z"/>
<path d="M2360 3364 c-137 -17 -287 -53 -326 -79 -38 -25 -57 -72 -52 -131 6
-66 38 -116 95 -146 l41 -22 169 23 c92 13 177 22 188 20 30 -6 30 -46 1 -131
-29 -84 -32 -127 -12 -166 27 -52 62 -75 118 -79 67 -5 123 25 155 82 60 107
97 305 74 392 -27 97 -117 186 -223 218 -54 16 -172 25 -228 19z"/>
<path d="M1200 3075 c-80 -25 -150 -116 -150 -195 0 -72 60 -156 125 -177 l30
-10 6 -294 c7 -306 15 -392 50 -522 26 -96 65 -152 126 -179 127 -56 265 46
250 185 -3 29 -9 65 -13 80 -6 27 -5 28 22 20 42 -11 101 -6 133 13 29 17 41
34 117 163 27 45 72 108 100 140 l52 56 23 -49 c22 -48 22 -52 10 -165 -7 -64
-24 -179 -37 -256 -44 -244 -44 -260 2 -315 51 -60 137 -80 202 -46 67 35 84
95 132 463 26 206 28 283 8 325 -9 18 -24 63 -33 101 -25 100 -80 185 -146
225 -46 28 -62 32 -121 32 -111 0 -218 -49 -321 -149 -46 -43 -125 -152 -156
-213 -8 -16 -16 -27 -17 -25 -2 2 -5 122 -7 267 -5 280 -12 332 -57 405 -68
110 -203 159 -330 120z"/>
<path d="M4835 3011 c-49 -22 -99 -77 -115 -127 -8 -24 -11 -65 -7 -115 7 -88
12 -80 -88 -134 -202 -110 -289 -184 -345 -298 -48 -98 -70 -192 -70 -308 0
-157 61 -328 156 -436 l44 -51 -37 -13 c-20 -6 -56 -29 -79 -51 -53 -49 -90
-58 -191 -47 -308 32 -505 -13 -694 -157 -58 -44 -229 -220 -229 -235 0 -5
-19 -18 -42 -30 -24 -12 -70 -47 -104 -78 -76 -71 -117 -91 -188 -91 -113 0
-262 106 -373 266 -35 49 -73 104 -85 121 -31 44 -95 73 -160 73 -102 0 -175
-64 -185 -164 -5 -51 -2 -63 30 -129 69 -138 237 -331 361 -416 212 -145 440
-178 640 -94 63 26 169 92 221 139 17 14 51 37 78 50 31 16 64 46 95 86 89
116 137 168 197 213 84 63 143 79 280 74 267 -9 346 -5 418 19 130 45 231 133
259 224 14 49 -1 117 -38 165 l-25 32 28 7 c181 44 247 243 132 397 -53 70
-66 115 -50 175 6 25 20 51 29 59 9 7 74 43 145 79 147 76 219 136 265 222 46
86 65 170 65 287 0 160 -29 228 -118 277 -62 34 -157 38 -220 9z"/>
<path d="M3340 2304 c-14 -3 -106 -20 -205 -39 -99 -19 -228 -43 -287 -54 -58
-11 -120 -27 -136 -35 -37 -19 -90 -79 -98 -112 -13 -50 1 -131 29 -167 52
-68 124 -82 272 -53 140 28 397 66 491 73 l91 6 7 -37 c8 -42 51 -95 104 -128
46 -28 151 -31 198 -6 43 23 86 71 101 110 19 55 16 160 -8 224 -30 80 -113
163 -194 195 -52 20 -80 24 -200 25 -77 1 -151 0 -165 -2z"/>
</g>
</svg>
