<?xml version="1.0" standalone="no"?>
<!DOCTYPE svg PUBLIC "-//W3C//DTD SVG 20010904//EN"
 "http://www.w3.org/TR/2001/REC-SVG-20010904/DTD/svg10.dtd">
<svg version="1.0" xmlns="http://www.w3.org/2000/svg"
 width="600.000000pt" height="600.000000pt" viewBox="0 0 600.000000 600.000000"
 preserveAspectRatio="xMidYMid meet">
<metadata>
Created by potrace 1.15, written by Peter Selinger 2001-2017
</metadata>
<g transform="translate(0.000000,600.000000) scale(0.100000,-0.100000)"
fill="#16364b" stroke="none">
<path d="M2232 5765 c-59 -26 -560 -440 -664 -549 -110 -116 -136 -217 -79
-308 96 -151 375 -140 888 35 181 62 191 67 221 111 52 77 14 180 -85 230 -49
24 -78 20 -240 -33 -161 -54 -273 -85 -280 -78 -2 3 89 82 202 177 113 95 213
186 221 201 18 37 18 113 -1 153 -18 38 -80 76 -121 76 -16 -1 -44 -7 -62 -15z"/>
<path d="M3072 5660 c-46 -28 -72 -76 -72 -133 0 -59 22 -100 64 -121 17 -8
74 -27 126 -41 211 -58 339 -179 340 -321 0 -119 -60 -216 -180 -288 -34 -20
-63 -36 -65 -36 -2 0 -38 -16 -79 -36 -91 -42 -118 -79 -118 -155 0 -95 77
-168 165 -156 48 7 186 72 269 128 85 57 207 181 246 250 112 198 69 484 -100
664 -102 110 -255 196 -432 246 -89 24 -123 24 -164 -1z"/>
<path d="M954 5296 c-135 -72 -237 -169 -290 -274 -24 -48 -29 -72 -32 -151
-5 -106 6 -156 54 -252 61 -123 201 -262 291 -289 88 -27 181 41 191 139 6 65
-16 108 -80 157 -28 21 -69 66 -91 99 -36 56 -38 64 -35 123 4 56 7 66 43 103
22 22 69 57 104 77 78 45 103 76 108 139 4 40 0 55 -23 90 -54 81 -137 95
-240 39z"/>
<path d="M4785 4929 c-49 -14 -88 -60 -112 -132 -21 -64 -22 -69 -7 -164 42
-282 145 -411 339 -421 68 -4 89 -1 133 18 152 65 207 253 122 420 -60 118
-184 214 -347 269 -67 23 -82 24 -128 10z"/>
<path d="M2763 4900 c-48 -19 -180 -116 -230 -168 -29 -30 -65 -80 -80 -111
-25 -49 -28 -67 -28 -151 0 -82 4 -103 26 -151 15 -31 43 -75 64 -97 106 -118
315 -194 405 -147 46 24 70 62 70 112 0 79 -44 133 -134 163 -115 38 -156 78
-141 137 8 34 80 105 135 133 58 29 95 90 95 155 0 61 -19 101 -57 121 -30 16
-91 17 -125 4z"/>
<path d="M1873 4390 c-162 -29 -352 -164 -384 -272 -27 -94 54 -198 156 -198
51 0 84 20 138 83 81 95 149 114 257 72 60 -24 110 -14 160 31 65 58 71 156
14 215 -54 56 -222 90 -341 69z"/>
<path d="M2645 3824 c-171 -34 -237 -56 -277 -96 -86 -86 -48 -226 71 -258 37
-10 57 -8 150 14 59 14 131 26 160 26 l54 0 -7 -32 c-11 -55 -63 -156 -133
-257 -65 -94 -254 -333 -333 -421 -47 -53 -64 -102 -50 -149 23 -81 76 -121
160 -121 53 0 55 1 110 58 48 50 319 383 391 482 102 139 178 337 179 466 1
224 -197 343 -475 288z"/>
<path d="M4235 3783 c-215 -29 -350 -155 -349 -328 0 -126 74 -238 193 -294
79 -37 193 -37 266 -1 95 48 213 190 286 344 62 131 24 249 -91 275 -43 10
-241 13 -305 4z m33 -314 c-2 -6 -16 -18 -31 -27 -21 -13 -29 -14 -39 -4 -9 9
-4 15 23 26 41 18 52 19 47 5z"/>
<path d="M1175 3696 c-120 -28 -310 -113 -352 -158 -95 -102 -56 -266 74 -309
34 -11 98 -8 136 7 13 4 7 -14 -23 -79 -46 -101 -230 -648 -255 -760 -31 -139
-15 -204 67 -269 41 -34 124 -47 179 -29 36 11 384 355 633 624 65 70 121 126
123 123 6 -6 -22 -183 -53 -331 -38 -179 -147 -595 -189 -715 -30 -88 -27
-134 12 -181 34 -40 74 -59 125 -59 89 0 143 52 179 174 41 136 178 702 204
841 14 77 30 158 35 180 26 117 16 313 -19 384 -50 96 -119 139 -212 128 -86
-10 -150 -56 -341 -246 -98 -96 -178 -172 -178 -168 0 4 34 78 76 165 42 86
89 196 105 243 50 149 36 264 -42 353 -70 80 -169 108 -284 82z"/>
<path d="M3560 3370 c-131 -24 -220 -142 -261 -347 -22 -106 -19 -147 12 -187
47 -60 113 -69 245 -36 248 63 368 216 308 392 -40 119 -179 201 -304 178z"/>
<path d="M4835 2711 c-181 -52 -295 -169 -295 -304 0 -21 -3 -37 -7 -35 -74
38 -112 50 -158 50 -94 1 -173 -53 -216 -147 -23 -50 -24 -115 -3 -206 9 -39
13 -73 10 -76 -3 -3 -45 4 -93 17 -122 30 -253 37 -324 17 -154 -45 -249 -182
-249 -359 0 -61 55 -480 70 -538 13 -46 63 -106 110 -130 128 -65 288 -1 340
136 26 70 25 94 -5 258 -29 155 -29 156 -14 156 6 0 59 -22 118 -50 118 -55
137 -58 238 -34 168 38 256 146 284 347 9 73 3 194 -17 335 l-7 43 51 -31 c72
-45 150 -51 223 -18 99 45 161 132 198 272 35 134 24 225 -34 283 -31 31 -38
33 -96 32 -35 0 -91 -8 -124 -18z"/>
<path d="M2905 2426 c-98 -23 -227 -74 -384 -152 -156 -77 -203 -109 -226
-155 -23 -44 -19 -117 10 -166 13 -24 22 -43 21 -43 -2 0 -23 7 -46 15 -117
41 -271 -18 -309 -118 -42 -111 27 -255 139 -288 45 -14 40 -4 81 -179 18 -77
19 -95 8 -98 -34 -11 -125 -119 -144 -172 -27 -75 -26 -194 4 -270 40 -105
204 -294 320 -368 78 -51 229 -117 328 -143 103 -28 279 -31 373 -6 105 28
226 90 250 129 64 104 38 213 -65 274 -64 37 -135 42 -210 14 -152 -56 -192
-65 -249 -53 -30 6 -94 31 -143 54 l-88 42 47 13 c138 35 218 131 205 246 -8
65 -28 95 -100 148 -115 85 -148 150 -198 388 -34 162 -56 228 -93 277 -14 18
-26 36 -26 39 0 2 16 0 35 -5 49 -14 85 -2 201 68 54 33 122 70 149 83 45 20
153 60 162 60 17 0 -71 -251 -154 -439 -51 -115 -55 -129 -51 -186 2 -40 10
-69 23 -87 75 -99 235 -103 308 -7 63 85 188 365 248 560 28 90 32 119 33 219
1 100 -2 120 -21 156 -35 65 -71 103 -127 131 -43 22 -67 27 -151 29 -61 2
-123 -2 -160 -10z"/>
</g>
</svg>
