<?xml version="1.0" standalone="no"?>
<!DOCTYPE svg PUBLIC "-//W3C//DTD SVG 20010904//EN"
 "http://www.w3.org/TR/2001/REC-SVG-20010904/DTD/svg10.dtd">
<svg version="1.0" xmlns="http://www.w3.org/2000/svg"
 width="600.000000pt" height="600.000000pt" viewBox="0 0 600.000000 600.000000"
 preserveAspectRatio="xMidYMid meet">
<metadata>
Created by potrace 1.15, written by Peter Selinger 2001-2017
</metadata>
<g transform="translate(0.000000,600.000000) scale(0.100000,-0.100000)"
fill="#16364b" stroke="none">
<path d="M2105 5448 c-71 -39 -107 -119 -107 -233 0 -45 6 -73 25 -110 50 -98
114 -132 281 -147 61 -6 113 -12 114 -14 4 -2 -13 -80 -74 -342 -36 -153 -30
-195 30 -231 74 -44 145 -34 199 29 28 33 38 57 51 125 9 47 35 145 57 218 22
72 43 164 46 204 5 65 3 78 -21 127 -15 30 -41 67 -59 82 -56 47 -151 85 -245
98 l-87 11 3 33 c5 45 -32 117 -72 142 -37 22 -108 27 -141 8z"/>
<path d="M3370 5432 c-84 -40 -113 -124 -69 -201 30 -53 62 -72 137 -81 54 -7
71 -14 89 -35 36 -41 31 -125 -12 -250 -41 -118 -43 -160 -12 -206 43 -64 121
-86 187 -50 48 25 75 68 110 177 122 383 -4 623 -340 648 -41 3 -82 2 -90 -2z"/>
<path d="M1544 4810 c-132 -30 -219 -59 -249 -82 -76 -60 -72 -200 8 -253 44
-29 87 -28 212 5 158 41 278 49 378 25 128 -30 200 -5 232 79 19 50 11 93 -27
141 -71 90 -344 132 -554 85z"/>
<path d="M4293 4504 c-73 -36 -92 -154 -38 -235 25 -38 45 -48 168 -83 31 -10
69 -28 85 -41 l27 -23 0 -194 c0 -186 1 -194 23 -226 30 -42 70 -62 124 -62
52 0 101 28 122 68 17 33 31 110 46 256 18 177 -16 294 -114 383 -68 63 -130
95 -261 138 -119 39 -137 41 -182 19z"/>
<path d="M1545 4451 c-118 -54 -141 -184 -46 -264 31 -25 44 -28 266 -62 61
-9 174 -28 253 -41 172 -29 187 -29 232 -5 75 39 104 137 60 208 -27 44 -48
53 -190 79 -69 13 -208 41 -310 63 -102 22 -194 41 -205 41 -11 0 -38 -9 -60
-19z"/>
<path d="M3139 4387 c-209 -131 -366 -221 -500 -287 -160 -78 -182 -99 -181
-173 1 -75 71 -137 154 -137 95 0 312 107 600 296 86 56 164 113 173 127 41
64 22 171 -39 208 -57 35 -111 26 -207 -34z"/>
<path d="M2130 3839 c-142 -39 -289 -60 -415 -58 -84 1 -109 -2 -134 -17 -35
-21 -71 -86 -71 -129 0 -46 38 -112 78 -137 35 -22 46 -23 222 -22 201 0 265
10 465 74 79 26 99 36 122 66 38 51 43 127 11 173 -57 84 -117 95 -278 50z"/>
<path d="M3730 3833 c-48 -10 -136 -52 -268 -127 -163 -93 -262 -143 -370
-186 -106 -42 -142 -80 -142 -149 0 -91 71 -156 161 -148 54 4 287 110 441
199 56 32 104 58 108 58 5 0 22 -13 39 -29 35 -33 68 -40 128 -28 83 16 147
120 146 235 0 62 -36 123 -90 154 -32 20 -110 30 -153 21z"/>
<path d="M4960 3459 c-45 -19 -90 -60 -113 -102 -20 -39 -22 -53 -19 -179 3
-130 1 -140 -22 -187 -14 -27 -62 -95 -106 -151 -177 -221 -262 -388 -304
-592 -32 -157 -16 -240 62 -310 105 -94 271 -71 351 50 12 18 28 63 36 101 32
154 109 308 220 441 153 185 194 252 226 378 37 146 18 376 -39 457 -45 64
-109 97 -195 101 -39 2 -83 -1 -97 -7z"/>
<path d="M2016 3200 c-88 -28 -132 -138 -89 -227 30 -64 79 -81 315 -107 69
-7 131 -16 136 -20 6 -3 13 -19 17 -35 6 -29 44 -70 82 -90 60 -31 162 1 203
65 40 60 19 194 -41 267 -67 81 -148 109 -379 132 -85 9 -168 18 -185 20 -16
2 -43 0 -59 -5z"/>
<path d="M4325 3133 c-16 -9 -49 -33 -73 -55 -85 -78 -291 -197 -442 -256 -79
-31 -192 -59 -284 -72 -122 -16 -187 -61 -205 -142 -17 -75 30 -145 113 -167
50 -14 236 7 352 39 205 58 478 210 667 373 69 60 106 117 107 165 0 39 -30
90 -65 112 -40 25 -127 26 -170 3z"/>
<path d="M1357 3000 c-76 -24 -137 -108 -137 -188 0 -24 9 -68 19 -100 11 -31
27 -122 35 -202 52 -464 76 -581 150 -734 47 -98 95 -153 148 -172 109 -40
231 20 263 130 20 67 12 102 -51 221 -83 158 -118 307 -149 640 -24 254 -44
319 -117 378 -41 33 -109 44 -161 27z"/>
<path d="M2074 2406 c-69 -25 -148 -69 -182 -100 -77 -69 -67 -193 20 -246 38
-23 111 -26 148 -6 93 50 114 58 148 63 35 5 41 2 66 -31 74 -97 222 -101 271
-7 40 79 8 172 -92 262 -100 89 -247 115 -379 65z"/>
<path d="M3890 2109 c-354 -41 -355 -41 -685 -113 -88 -19 -205 -42 -260 -50
-135 -20 -163 -32 -199 -88 -62 -95 -20 -242 81 -284 64 -27 180 -14 513 61
174 38 227 47 420 71 234 28 254 29 297 20 79 -17 178 35 209 111 32 75 8 173
-56 226 -62 52 -152 65 -320 46z"/>
<path d="M2224 1864 c-55 -27 -69 -65 -68 -189 1 -173 51 -323 150 -449 86
-109 169 -139 261 -95 57 28 86 69 91 135 l4 53 -69 73 c-96 101 -115 145
-123 280 -7 125 -19 149 -90 186 -51 25 -112 28 -156 6z"/>
<path d="M4659 1641 c-24 -16 -64 -50 -89 -76 -92 -95 -233 -155 -564 -240
-121 -30 -261 -72 -310 -91 -107 -43 -242 -114 -287 -151 -68 -57 -88 -162
-46 -243 29 -59 75 -85 147 -84 48 0 70 8 170 61 63 34 149 73 190 87 71 23
108 32 325 72 274 51 532 180 664 333 60 69 81 114 81 173 -1 151 -157 240
-281 159z"/>
<path d="M2055 1044 c-72 -39 -105 -89 -105 -159 0 -87 30 -126 195 -251 273
-207 563 -297 811 -253 151 26 311 101 368 172 26 32 31 48 34 106 7 120 -50
191 -158 199 -48 4 -66 -1 -118 -27 -128 -64 -265 -78 -402 -40 -107 29 -260
109 -369 192 -93 70 -96 72 -160 74 -47 2 -75 -1 -96 -13z"/>
</g>
</svg>
