<?xml version="1.0" standalone="no"?>
<!DOCTYPE svg PUBLIC "-//W3C//DTD SVG 20010904//EN"
 "http://www.w3.org/TR/2001/REC-SVG-20010904/DTD/svg10.dtd">
<svg version="1.0" xmlns="http://www.w3.org/2000/svg"
 width="600.000000pt" height="600.000000pt" viewBox="0 0 600.000000 600.000000"
 preserveAspectRatio="xMidYMid meet">
<metadata>
Created by potrace 1.15, written by Peter Selinger 2001-2017
</metadata>
<g transform="translate(0.000000,600.000000) scale(0.100000,-0.100000)"
fill="#16364b" stroke="none">
<path d="M1573 5794 c-48 -24 -69 -67 -87 -179 -72 -445 -36 -653 126 -736 83
-43 192 -10 270 82 137 161 308 489 308 590 0 151 -208 197 -262 59 -10 -25
-36 -92 -58 -150 -44 -115 -117 -251 -139 -258 -12 -4 -13 15 -7 114 4 66 12
151 17 189 28 211 22 243 -50 283 -46 26 -74 27 -118 6z"/>
<path d="M3272 5523 c-34 -7 -92 -69 -93 -101 -4 -92 11 -110 156 -197 169
-101 269 -185 220 -185 -27 0 -71 -30 -89 -60 -22 -38 -20 -108 3 -147 23 -37
91 -85 145 -103 60 -19 139 -8 189 26 52 36 97 119 97 178 -1 88 -68 204 -185
320 -74 73 -296 235 -359 261 -36 15 -43 16 -84 8z"/>
<path d="M868 5471 c-81 -27 -136 -61 -195 -123 -81 -86 -106 -145 -111 -258
-5 -111 15 -181 73 -266 52 -75 116 -118 177 -118 60 0 95 24 126 86 33 65 19
113 -49 176 -44 41 -49 49 -49 89 0 54 18 90 66 133 37 32 38 32 118 26 95 -8
138 9 168 65 38 70 15 145 -55 180 -60 31 -192 36 -269 10z"/>
<path d="M2955 5151 c-130 -59 -217 -300 -153 -421 48 -89 168 -117 302 -71
120 42 149 76 161 187 25 215 -144 381 -310 305z"/>
<path d="M2287 5009 c-50 -26 -77 -72 -77 -131 0 -26 -4 -58 -10 -72 -11 -30
-85 -74 -186 -111 -52 -19 -83 -37 -105 -63 -28 -32 -31 -40 -27 -89 6 -65 41
-108 102 -124 35 -9 49 -7 125 22 210 79 297 143 354 258 29 59 32 74 32 156
0 74 -3 95 -20 117 -42 58 -120 73 -188 37z"/>
<path d="M4763 4820 c-59 -36 -66 -65 -60 -235 6 -155 23 -248 56 -313 49 -95
146 -168 239 -179 110 -13 227 55 272 159 32 74 26 181 -16 258 -54 102 -183
214 -341 296 -74 39 -105 42 -150 14z"/>
<path d="M2790 4129 c-65 -13 -130 -57 -164 -112 -24 -39 -29 -58 -29 -107 2
-186 179 -290 417 -245 114 21 312 81 354 107 45 28 65 71 60 128 -7 65 -37
103 -111 138 -173 82 -385 119 -527 91z"/>
<path d="M1014 4062 c-95 -61 -123 -189 -57 -269 46 -57 85 -73 183 -73 86 -1
165 -12 178 -25 4 -4 -27 -39 -69 -79 -83 -80 -237 -186 -431 -295 -147 -83
-173 -112 -173 -198 0 -89 67 -153 162 -153 48 0 66 7 150 55 53 30 97 54 98
53 2 -2 12 -22 24 -45 28 -57 86 -87 152 -81 34 4 65 17 119 53 79 52 237 125
314 144 36 9 57 9 83 0 72 -23 156 23 194 106 36 79 19 151 -47 201 -45 34
-110 37 -232 10 -45 -11 -85 -16 -88 -13 -3 3 8 24 25 47 41 57 64 131 64 209
1 120 -71 234 -183 291 -68 35 -226 71 -335 76 -88 5 -104 3 -131 -14z"/>
<path d="M4285 3780 c-202 -21 -317 -104 -345 -249 -26 -139 54 -310 175 -374
58 -30 173 -30 236 1 129 63 216 192 275 409 31 115 -3 183 -100 202 -82 16
-156 19 -241 11z m-5 -325 c-26 -28 -50 -33 -50 -10 0 17 27 34 54 35 18 0 18
-2 -4 -25z"/>
<path d="M3432 3409 c-51 -15 -111 -85 -169 -195 -60 -116 -72 -167 -49 -212
28 -55 61 -72 135 -72 81 0 131 22 189 81 68 69 97 139 97 231 0 91 -16 120
-85 156 -48 24 -67 26 -118 11z"/>
<path d="M5088 3366 c-60 -21 -162 -92 -218 -152 -172 -182 -137 -441 69 -501
74 -21 189 -14 259 17 164 71 228 291 137 472 -39 77 -111 156 -154 168 -45
12 -47 12 -93 -4z"/>
<path d="M1023 2827 c-31 -29 -37 -41 -41 -88 -4 -49 -1 -59 23 -87 14 -17 53
-46 84 -63 69 -36 132 -96 157 -147 23 -48 30 -150 14 -208 -30 -105 -118
-194 -193 -194 -34 0 -46 7 -86 46 -64 65 -84 76 -136 76 -113 0 -170 -113
-107 -213 55 -86 147 -146 257 -169 244 -50 495 155 551 451 40 207 -49 408
-239 543 -94 66 -139 86 -197 86 -43 0 -55 -5 -87 -33z"/>
<path d="M2172 2791 c-102 -35 -160 -108 -217 -270 -37 -105 -67 -155 -147
-239 -37 -39 -68 -76 -68 -81 0 -5 -36 -51 -81 -101 -170 -193 -242 -354 -271
-601 -36 -321 106 -617 371 -773 176 -103 318 -146 491 -146 243 0 457 96 656
295 104 103 165 192 234 339 157 336 206 589 158 821 -16 82 -83 209 -138 264
-77 77 -215 130 -338 131 -81 0 -102 17 -155 123 -51 104 -112 174 -181 209
-97 50 -221 61 -314 29z m193 -488 c30 -67 53 -100 98 -144 75 -74 103 -86
212 -93 178 -13 194 -16 211 -41 8 -12 19 -51 25 -86 19 -117 -11 -248 -123
-529 -63 -159 -96 -217 -171 -296 -164 -176 -439 -199 -659 -56 -83 55 -140
115 -172 182 -31 67 -30 237 3 335 48 141 97 220 213 342 43 45 78 86 78 92 0
7 18 31 39 54 49 53 139 195 172 270 13 31 26 57 29 57 3 0 23 -39 45 -87z"/>
<path d="M4095 2340 c-87 -27 -145 -125 -126 -211 16 -69 18 -67 -53 -62 -82
7 -107 0 -152 -39 -80 -70 -81 -118 -14 -453 55 -272 69 -308 133 -338 64 -31
157 -19 204 25 16 15 38 21 80 23 99 4 186 60 232 150 47 93 46 224 -3 482
-14 70 -32 172 -39 225 -16 107 -35 143 -92 178 -39 24 -124 34 -170 20z"/>
</g>
</svg>
