<?xml version="1.0" standalone="no"?>
<!DOCTYPE svg PUBLIC "-//W3C//DTD SVG 20010904//EN"
 "http://www.w3.org/TR/2001/REC-SVG-20010904/DTD/svg10.dtd">
<svg version="1.0" xmlns="http://www.w3.org/2000/svg"
 width="600.000000pt" height="600.000000pt" viewBox="0 0 600.000000 600.000000"
 preserveAspectRatio="xMidYMid meet">
<metadata>
Created by potrace 1.15, written by Peter Selinger 2001-2017
</metadata>
<g transform="translate(0.000000,600.000000) scale(0.100000,-0.100000)"
fill="#16364b" stroke="none">
<path d="M2380 5417 c-13 -7 -30 -23 -36 -37 -7 -14 -17 -109 -23 -212 -8
-137 -18 -212 -36 -285 -45 -175 -94 -248 -224 -332 -84 -53 -91 -63 -91 -117
0 -43 37 -84 76 -84 46 0 165 70 231 136 46 47 74 88 112 166 81 163 111 314
111 559 0 143 -10 183 -51 204 -34 18 -37 18 -69 2z"/>
<path d="M3550 5307 c-29 -15 -53 -60 -53 -98 0 -70 115 -229 194 -270 42 -21
99 -25 131 -8 29 16 51 74 43 120 -8 44 -63 140 -108 187 -59 62 -157 95 -207
69z"/>
<path d="M3055 5123 c-78 -17 -151 -77 -192 -158 -34 -66 -43 -167 -19 -214
33 -64 108 -87 182 -56 77 32 132 83 169 157 40 81 46 142 17 198 -25 51 -100
86 -157 73z m5 -179 c0 -17 -34 -73 -47 -78 -23 -9 -26 -1 -13 26 22 42 60 75
60 52z"/>
<path d="M4734 4735 c-39 -27 -48 -67 -40 -193 17 -315 99 -476 241 -476 70 0
117 31 151 102 24 47 26 60 22 145 -3 78 -9 102 -36 157 -35 74 -150 212 -209
253 -44 30 -97 35 -129 12z"/>
<path d="M2695 4220 c-119 -19 -184 -103 -162 -209 7 -33 21 -56 58 -92 121
-118 308 -124 474 -14 63 42 85 76 85 134 0 62 -35 89 -171 133 -63 21 -134
40 -159 43 -25 4 -54 8 -65 9 -11 2 -38 0 -60 -4z"/>
<path d="M1140 4139 c-38 -16 -58 -38 -71 -78 -6 -20 -20 -48 -30 -63 -53 -75
14 -222 126 -274 170 -80 342 58 290 231 -20 70 -65 119 -140 155 -71 34 -138
45 -175 29z"/>
<path d="M5249 3910 c-113 -20 -221 -111 -254 -215 -48 -153 32 -333 180 -406
41 -20 65 -24 135 -24 73 0 93 4 141 28 62 30 136 103 167 164 52 102 47 228
-12 306 -32 41 -108 105 -156 131 -33 18 -143 27 -201 16z m108 -318 c10 -6 9
-13 -3 -30 -26 -38 -64 -24 -64 24 0 15 46 19 67 6z"/>
<path d="M4227 3780 c-144 -37 -274 -181 -292 -324 -15 -116 50 -228 163 -282
47 -23 71 -28 137 -28 67 0 90 4 142 28 73 33 134 94 165 164 26 59 37 243 18
311 -14 55 -55 94 -117 115 -60 20 -166 28 -216 16z m51 -315 c-11 -23 -44
-43 -55 -32 -10 11 8 44 30 54 30 14 38 7 25 -22z"/>
<path d="M3401 3321 c-52 -56 -154 -237 -154 -273 0 -55 66 -93 132 -76 76 21
177 166 188 272 5 46 2 55 -22 84 -22 26 -34 32 -67 32 -35 0 -47 -6 -77 -39z"/>
<path d="M1200 3220 c-155 -33 -261 -88 -344 -181 -88 -98 -124 -215 -105
-347 30 -215 208 -374 473 -421 131 -24 179 -47 243 -114 90 -95 159 -238 232
-480 58 -194 111 -294 205 -389 158 -160 366 -222 661 -196 72 6 335 11 585
12 l455 1 245 43 c343 61 514 122 696 248 264 185 401 426 433 764 25 250 -30
404 -200 565 -186 175 -391 249 -627 225 -151 -16 -243 -51 -444 -174 -191
-116 -243 -136 -368 -148 -124 -11 -205 -5 -297 23 -117 35 -305 135 -496 263
-226 152 -305 196 -427 235 -212 68 -374 91 -636 90 -150 -1 -220 -5 -284 -19z
m515 -375 c107 -6 230 -34 324 -74 38 -16 142 -78 232 -138 320 -214 594 -350
779 -388 166 -34 231 -34 383 -4 212 42 309 84 507 215 214 141 302 160 443
94 64 -30 166 -118 190 -164 29 -56 35 -198 13 -284 -20 -81 -77 -202 -116
-252 -41 -52 -139 -129 -221 -174 -126 -69 -234 -97 -574 -145 -302 -44 -459
-54 -695 -48 -174 5 -227 2 -350 -15 -126 -18 -155 -19 -230 -8 -107 14 -166
40 -218 93 -53 54 -88 132 -151 341 -79 256 -160 398 -312 546 -122 118 -224
172 -404 210 -111 24 -156 46 -174 86 -17 38 -5 61 42 86 35 18 67 22 187 28
80 3 170 5 200 3 30 -1 96 -5 145 -8z"/>
<path d="M436 2089 c-20 -16 -26 -29 -26 -59 0 -21 6 -43 15 -50 8 -7 27 -37
42 -69 40 -80 154 -193 217 -214 78 -27 112 -23 153 18 33 33 35 39 31 85 -9
94 -100 183 -274 269 -95 46 -120 50 -158 20z"/>
<path d="M5187 1233 c-19 -16 -49 -36 -66 -45 -114 -63 -48 -308 83 -308 74 0
127 66 146 181 17 108 14 137 -19 170 -40 39 -94 40 -144 2z"/>
</g>
</svg>
