<?xml version="1.0" standalone="no"?>
<!DOCTYPE svg PUBLIC "-//W3C//DTD SVG 20010904//EN"
 "http://www.w3.org/TR/2001/REC-SVG-20010904/DTD/svg10.dtd">
<svg version="1.0" xmlns="http://www.w3.org/2000/svg"
 width="600.000000pt" height="600.000000pt" viewBox="0 0 600.000000 600.000000"
 preserveAspectRatio="xMidYMid meet">
<metadata>
Created by potrace 1.15, written by Peter Selinger 2001-2017
</metadata>
<g transform="translate(0.000000,600.000000) scale(0.100000,-0.100000)"
fill="#16364b" stroke="none">
<path d="M3153 5470 c-65 -39 -86 -107 -53 -174 17 -36 33 -50 90 -80 56 -30
72 -44 89 -79 28 -57 28 -162 1 -249 -25 -79 -25 -124 -1 -168 50 -95 174
-107 240 -24 29 37 78 195 86 280 19 190 -89 390 -262 482 -73 38 -140 43
-190 12z"/>
<path d="M2050 5442 c-52 -27 -80 -89 -80 -177 0 -90 14 -137 52 -181 43 -49
78 -65 193 -89 l100 -21 5 -226 c5 -209 7 -229 26 -255 61 -84 171 -79 238 10
17 23 21 51 29 185 13 231 6 324 -28 400 -46 103 -121 159 -249 185 l-59 12
-12 48 c-26 104 -127 155 -215 109z"/>
<path d="M1550 4789 c-187 -20 -239 -40 -266 -105 -42 -100 12 -211 108 -221
24 -3 91 2 149 11 151 23 296 21 398 -5 99 -25 138 -20 186 22 71 63 69 156
-5 223 -82 74 -300 102 -570 75z"/>
<path d="M4289 4576 c-59 -41 -80 -127 -46 -193 19 -36 36 -50 124 -101 120
-70 150 -129 163 -313 8 -124 21 -163 66 -198 33 -26 104 -28 144 -5 69 41 99
138 86 283 -18 202 -91 343 -234 451 -138 104 -229 126 -303 76z"/>
<path d="M3217 4470 c-15 -5 -78 -46 -140 -93 -128 -96 -246 -175 -397 -267
-58 -35 -116 -73 -129 -84 -38 -34 -64 -101 -56 -147 14 -82 105 -145 174
-121 40 14 474 301 603 398 80 61 99 81 113 118 18 47 15 100 -8 138 -27 44
-108 74 -160 58z"/>
<path d="M1589 4387 c-53 -36 -79 -82 -79 -141 0 -57 23 -105 64 -131 42 -27
621 -86 702 -71 53 10 119 78 127 132 9 56 -8 108 -47 142 -32 28 -37 29 -172
35 -131 6 -303 25 -423 47 -88 16 -134 13 -172 -13z"/>
<path d="M3773 3880 c-23 -5 -174 -76 -335 -158 -161 -83 -330 -164 -376 -182
-89 -35 -116 -60 -127 -120 -12 -63 26 -124 97 -161 21 -10 51 -19 67 -19 35
0 193 55 272 95 56 29 286 160 351 202 28 17 52 23 96 23 101 0 162 62 162
163 0 76 -39 132 -109 156 -38 12 -39 12 -98 1z"/>
<path d="M2220 3809 c-102 -25 -326 -51 -445 -51 -71 0 -144 -4 -162 -9 -17
-6 -48 -28 -67 -50 -31 -33 -36 -46 -36 -87 0 -59 33 -111 87 -138 59 -29 254
-31 483 -5 304 35 341 46 374 116 52 109 -29 236 -148 234 -28 -1 -67 -5 -86
-10z"/>
<path d="M4962 3534 c-97 -48 -136 -145 -112 -275 27 -143 1 -231 -114 -392
-90 -125 -234 -384 -294 -529 -43 -102 -44 -173 -4 -249 40 -78 94 -112 180
-117 62 -4 70 -2 117 30 42 28 58 48 105 139 69 132 125 221 245 389 163 227
224 364 244 542 10 90 2 220 -19 298 -41 153 -210 233 -348 164z"/>
<path d="M2007 3185 c-77 -27 -125 -105 -114 -187 15 -109 112 -156 385 -188
96 -12 106 -15 140 -46 67 -62 151 -69 211 -18 60 50 68 167 17 244 -52 79
-128 113 -341 149 -66 12 -149 30 -185 41 -76 23 -65 23 -113 5z"/>
<path d="M4365 3136 c-17 -7 -57 -37 -90 -66 -203 -178 -463 -284 -782 -319
-50 -5 -106 -17 -123 -26 -95 -49 -94 -206 2 -265 40 -24 104 -25 268 -5 208
25 328 59 485 138 144 71 266 161 384 278 61 61 71 82 71 144 0 98 -117 164
-215 121z"/>
<path d="M1385 2976 c-78 -34 -123 -125 -111 -223 3 -27 11 -138 16 -247 17
-324 51 -473 147 -658 89 -169 165 -238 264 -238 78 1 154 49 178 113 22 58
14 119 -25 183 -106 172 -129 267 -184 734 -11 96 -27 194 -36 216 -37 104
-156 161 -249 120z"/>
<path d="M2110 2352 c-101 -24 -136 -44 -161 -94 -37 -72 -14 -145 61 -195 39
-27 85 -29 170 -7 81 21 121 12 173 -36 77 -70 166 -73 226 -5 34 39 47 88 37
140 -10 53 -101 145 -178 180 -81 37 -213 44 -328 17z"/>
<path d="M3865 2065 c-290 -57 -673 -128 -859 -160 -168 -28 -211 -47 -241
-111 -48 -101 -19 -205 73 -261 47 -29 80 -29 261 2 80 13 250 40 376 59 269
41 327 53 495 101 69 20 154 38 190 42 186 16 280 179 178 309 -61 77 -159 81
-473 19z"/>
<path d="M2203 1720 c-115 -26 -152 -129 -97 -268 51 -127 140 -232 285 -335
103 -73 190 -110 239 -102 81 14 133 101 110 187 -17 62 -35 83 -114 132 -93
58 -180 149 -212 223 -44 102 -54 118 -87 139 -38 26 -80 34 -124 24z"/>
<path d="M4775 1681 c-23 -10 -65 -46 -97 -83 -69 -79 -142 -129 -234 -162
-67 -24 -277 -83 -618 -173 -354 -93 -416 -134 -416 -270 1 -128 133 -246 240
-215 19 5 80 28 134 51 155 65 353 128 569 181 219 54 313 93 430 181 73 55
176 170 208 231 23 45 25 137 5 176 -31 59 -99 102 -161 102 -11 0 -38 -9 -60
-19z"/>
<path d="M2068 1007 c-73 -34 -119 -109 -119 -197 -1 -71 17 -107 73 -153 153
-122 319 -199 534 -247 83 -19 128 -23 279 -23 161 1 190 3 278 26 104 28 199
66 231 95 58 52 71 158 30 240 -53 107 -156 133 -287 73 -92 -43 -175 -61
-281 -61 -154 0 -264 41 -471 177 -111 73 -121 77 -179 80 -34 1 -73 -3 -88
-10z"/>
</g>
</svg>
