<?xml version="1.0" standalone="no"?>
<!DOCTYPE svg PUBLIC "-//W3C//DTD SVG 20010904//EN"
 "http://www.w3.org/TR/2001/REC-SVG-20010904/DTD/svg10.dtd">
<svg version="1.0" xmlns="http://www.w3.org/2000/svg"
 width="600.000000pt" height="600.000000pt" viewBox="0 0 600.000000 600.000000"
 preserveAspectRatio="xMidYMid meet">
<metadata>
Created by potrace 1.15, written by Peter Selinger 2001-2017
</metadata>
<g transform="translate(0.000000,600.000000) scale(0.100000,-0.100000)"
fill="#16364b" stroke="none">
<path d="M2163 5449 c-35 -22 -56 -67 -72 -151 -25 -136 40 -278 148 -324 30
-13 62 -15 183 -10 l148 6 -26 -57 c-14 -32 -34 -76 -44 -98 -111 -247 -180
-421 -180 -451 0 -120 147 -186 239 -108 19 15 39 51 56 97 15 39 78 178 141
307 119 245 143 321 129 400 -17 87 -87 166 -176 195 -45 15 -74 17 -188 12
l-136 -6 0 63 c0 55 -4 68 -25 91 -51 56 -139 71 -197 34z"/>
<path d="M3703 5275 c-76 -21 -147 -60 -168 -91 -41 -64 -23 -147 44 -191 40
-27 99 -30 161 -8 61 22 117 20 130 -4 29 -55 2 -246 -54 -379 -14 -34 -26
-81 -26 -104 0 -123 119 -187 214 -115 37 29 70 93 109 212 105 319 64 560
-113 659 -49 27 -65 31 -150 33 -61 2 -114 -2 -147 -12z"/>
<path d="M1670 4885 c-150 -34 -401 -145 -445 -197 -70 -83 -46 -212 46 -254
32 -14 37 -21 43 -61 7 -53 36 -97 78 -119 16 -8 82 -24 145 -35 212 -35 332
-69 435 -120 72 -36 131 -38 178 -6 48 32 72 69 77 121 10 89 -29 136 -155
185 -93 35 -299 94 -392 112 -107 19 -104 24 43 60 31 7 79 9 131 5 75 -5 87
-4 132 19 67 34 87 66 92 140 4 55 1 64 -23 93 -45 54 -77 65 -205 68 -76 3
-137 -1 -180 -11z"/>
<path d="M2983 4295 c-325 -112 -459 -161 -486 -180 -58 -41 -77 -147 -37
-213 25 -41 76 -72 117 -72 18 0 104 29 190 64 171 70 318 125 482 180 118 40
157 70 171 132 22 94 -43 185 -130 183 -19 0 -157 -43 -307 -94z"/>
<path d="M4235 4316 c-121 -45 -134 -206 -21 -260 25 -12 64 -16 152 -16 144
0 239 -15 267 -43 18 -18 19 -28 14 -106 -3 -47 -18 -133 -32 -191 -39 -155
-27 -211 56 -268 48 -34 119 -27 161 15 25 26 35 52 63 166 46 189 59 296 46
375 -28 172 -125 277 -293 317 -95 23 -362 30 -413 11z"/>
<path d="M2128 3865 c-113 -34 -247 -55 -411 -63 -111 -6 -150 -12 -171 -25
-95 -63 -87 -219 14 -269 80 -40 412 -13 660 54 97 26 123 40 157 85 75 98 -1
245 -126 242 -25 -1 -81 -11 -123 -24z"/>
<path d="M3670 3739 c-81 -21 -549 -245 -588 -281 -69 -65 -37 -194 60 -244
54 -28 103 -14 309 90 106 53 193 95 196 93 2 -2 -6 -26 -18 -53 -40 -93 -21
-167 53 -205 55 -28 124 -22 171 14 43 32 99 160 124 281 14 71 15 91 4 139
-33 147 -148 209 -311 166z"/>
<path d="M4920 3253 c-41 -21 -62 -40 -85 -77 -30 -49 -30 -51 -27 -177 l3
-128 -33 -37 c-18 -20 -73 -68 -123 -107 -148 -114 -177 -145 -241 -252 -126
-211 -149 -438 -62 -609 50 -98 167 -150 285 -126 134 28 194 138 157 286 -19
77 -15 119 16 193 20 46 39 66 142 148 138 111 194 175 248 287 49 102 62 159
62 266 -1 228 -78 347 -231 358 -46 3 -66 -1 -111 -25z"/>
<path d="M2155 3241 c-118 -6 -139 -14 -179 -62 -35 -41 -37 -120 -3 -169 48
-71 59 -74 260 -81 100 -4 184 -7 186 -8 2 0 1 -21 -2 -45 -17 -124 76 -219
185 -187 90 27 131 107 131 256 1 67 -4 90 -27 137 -34 71 -88 119 -160 141
-64 20 -226 28 -391 18z"/>
<path d="M4283 3155 c-17 -7 -61 -38 -97 -67 -35 -30 -99 -73 -141 -97 -118
-68 -337 -159 -449 -188 -56 -14 -115 -36 -132 -49 -89 -66 -84 -206 8 -265
64 -40 217 -10 423 84 209 96 448 238 547 326 77 68 86 148 26 216 -45 52
-121 68 -185 40z"/>
<path d="M1308 3020 c-154 -27 -208 -211 -98 -336 16 -19 30 -45 30 -59 0 -50
21 -334 31 -420 33 -288 76 -451 141 -529 39 -48 81 -66 151 -66 67 0 124 37
155 102 38 77 37 112 -2 228 -43 129 -72 320 -86 560 -6 96 -15 207 -21 245
-29 184 -155 299 -301 275z"/>
<path d="M2091 2535 c-82 -23 -168 -80 -257 -170 -90 -91 -117 -139 -116 -202
1 -86 63 -145 151 -145 64 0 82 10 182 114 95 96 119 106 139 58 12 -28 45
-62 84 -85 15 -9 14 -15 -14 -66 -91 -168 -106 -350 -50 -588 25 -102 54 -146
110 -161 109 -29 222 68 207 178 -2 20 -12 75 -22 122 -23 111 -11 189 45 299
62 120 49 195 -42 246 -28 16 -35 24 -28 35 21 33 11 111 -22 174 -84 158
-224 231 -367 191z"/>
<path d="M3635 2194 c-314 -46 -769 -131 -833 -155 -81 -31 -139 -125 -128
-203 9 -58 50 -119 99 -146 53 -30 99 -26 422 43 435 94 545 106 581 66 52
-58 158 -75 234 -36 59 29 83 73 83 147 -1 107 -66 210 -161 257 -50 25 -69
28 -162 29 -58 1 -118 0 -135 -2z"/>
<path d="M4561 1614 c-19 -8 -61 -39 -92 -69 -93 -89 -138 -102 -434 -125
-161 -12 -222 -28 -355 -91 -212 -101 -412 -258 -442 -349 -13 -39 -18 -45
-46 -46 -55 -3 -77 -12 -146 -63 -157 -116 -285 -108 -497 31 -55 36 -129 98
-179 148 -47 48 -95 92 -107 99 -33 17 -113 13 -158 -8 -82 -38 -129 -105
-128 -183 1 -61 19 -89 129 -200 128 -130 323 -253 510 -324 173 -65 370 -45
545 57 115 67 164 111 190 173 22 54 24 56 61 56 48 0 101 27 181 91 81 65
280 164 382 189 44 10 144 26 222 35 258 29 399 87 546 224 65 61 91 112 90
179 0 72 -38 127 -112 165 -61 30 -109 34 -160 11z"/>
</g>
</svg>
