<?xml version="1.0" standalone="no"?>
<!DOCTYPE svg PUBLIC "-//W3C//DTD SVG 20010904//EN"
 "http://www.w3.org/TR/2001/REC-SVG-20010904/DTD/svg10.dtd">
<svg version="1.0" xmlns="http://www.w3.org/2000/svg"
 width="600.000000pt" height="600.000000pt" viewBox="0 0 600.000000 600.000000"
 preserveAspectRatio="xMidYMid meet">
<metadata>
Created by potrace 1.15, written by Peter Selinger 2001-2017
</metadata>
<g transform="translate(0.000000,600.000000) scale(0.100000,-0.100000)"
fill="#16364b" stroke="none">
<path d="M2159 5812 c-87 -44 -529 -473 -622 -604 -64 -90 -80 -131 -75 -195
12 -140 134 -203 309 -158 62 16 474 173 644 245 141 60 175 96 175 187 0 58
-24 98 -77 130 -60 36 -94 30 -277 -48 -92 -39 -169 -69 -172 -67 -2 3 64 69
146 148 83 78 157 155 165 171 19 37 19 102 0 140 -34 65 -139 90 -216 51z"/>
<path d="M3064 5676 c-65 -28 -103 -114 -84 -185 15 -57 54 -85 157 -110 166
-42 300 -127 348 -222 21 -41 25 -62 25 -142 0 -85 -3 -100 -30 -153 -36 -69
-92 -118 -194 -167 -86 -42 -111 -67 -127 -129 -18 -66 9 -133 66 -165 56 -32
95 -29 190 16 285 133 415 331 415 630 0 156 -42 261 -145 366 -111 114 -248
189 -449 247 -111 31 -128 33 -172 14z"/>
<path d="M930 5346 c-131 -49 -231 -135 -287 -248 -43 -87 -57 -155 -50 -252
4 -66 12 -93 46 -162 75 -150 254 -314 344 -314 56 0 113 35 137 85 40 83 25
125 -80 226 -124 119 -159 221 -102 298 25 34 88 77 134 90 139 42 155 210 27
276 -34 18 -121 18 -169 1z"/>
<path d="M2720 4961 c-75 -24 -126 -58 -187 -125 -91 -99 -121 -222 -85 -343
51 -165 176 -270 370 -311 74 -15 82 -15 125 2 125 47 135 222 17 280 -14 7
-52 18 -85 25 -65 14 -120 42 -129 67 -3 9 -6 29 -6 46 0 36 48 88 81 88 40 0
109 40 126 73 37 72 8 156 -67 195 -53 26 -86 27 -160 3z"/>
<path d="M4775 4946 c-43 -19 -93 -79 -101 -122 -4 -20 -4 -73 0 -118 18 -235
110 -407 257 -480 66 -32 162 -36 225 -7 125 57 199 199 173 333 -27 137 -143
248 -381 363 -97 47 -124 52 -173 31z"/>
<path d="M1891 4514 c-131 -35 -302 -169 -316 -246 -16 -88 30 -165 111 -187
57 -15 105 1 162 56 84 82 126 86 200 22 33 -29 39 -31 98 -27 50 3 69 9 90
28 90 85 67 203 -58 295 -96 71 -179 88 -287 59z"/>
<path d="M2710 3865 c-25 -8 -59 -28 -75 -45 -26 -27 -30 -39 -30 -90 0 -44 5
-66 21 -87 30 -40 82 -73 116 -73 16 0 31 -6 34 -14 10 -26 -35 -178 -80 -271
-25 -50 -73 -134 -109 -187 -69 -104 -83 -143 -67 -197 24 -85 122 -126 213
-88 88 37 281 359 329 550 29 114 23 269 -13 347 -62 134 -203 199 -339 155z"/>
<path d="M4298 3809 c-175 -23 -306 -109 -379 -249 -35 -67 -34 -185 3 -256
55 -104 152 -164 278 -172 61 -3 86 0 135 19 108 40 223 175 325 379 64 128
57 188 -29 247 -46 31 -217 48 -333 32z m-28 -328 c0 -13 -50 -51 -66 -51 -24
0 -15 20 19 40 35 22 47 25 47 11z"/>
<path d="M1171 3795 c-78 -17 -179 -50 -247 -80 -155 -68 -157 -274 -4 -352
47 -24 102 -29 144 -13 19 7 26 6 26 -3 0 -19 -110 -241 -177 -357 -124 -216
-192 -373 -228 -528 -19 -78 -13 -122 20 -173 36 -55 102 -83 176 -75 74 7 76
8 213 113 185 143 288 236 424 386 72 78 149 160 171 182 l41 39 0 -59 c0 -74
-23 -247 -45 -340 -40 -171 -147 -440 -258 -649 -23 -42 -37 -83 -37 -104 0
-77 66 -159 142 -177 32 -8 87 8 117 34 26 23 82 142 171 366 111 278 154 427
200 690 11 66 25 138 30 160 14 60 12 252 -4 313 -30 110 -98 162 -214 162
-59 0 -80 -5 -139 -35 -82 -41 -191 -131 -293 -243 -41 -45 -76 -80 -77 -78
-2 2 42 95 97 207 110 223 130 277 130 354 0 193 -167 308 -379 260z"/>
<path d="M3465 3371 c-51 -23 -111 -89 -140 -155 -51 -117 -73 -278 -46 -330
34 -63 137 -89 267 -67 91 16 153 44 197 89 51 52 69 103 69 190 0 129 -72
240 -181 277 -59 20 -117 19 -166 -4z"/>
<path d="M4844 2811 c-49 -30 -151 -167 -206 -276 -84 -166 -80 -301 12 -378
59 -50 153 -48 253 5 158 84 249 252 234 431 -6 64 -36 137 -57 137 -5 0 -23
16 -42 36 -58 64 -134 81 -194 45z"/>
<path d="M4161 2454 c-93 -46 -138 -141 -113 -238 5 -23 19 -79 31 -125 12
-46 21 -85 19 -86 -2 -2 -41 13 -88 33 -73 30 -99 36 -182 40 -86 4 -102 2
-150 -20 -102 -47 -161 -121 -193 -243 -20 -77 -20 -294 0 -409 21 -120 69
-265 104 -313 64 -89 221 -126 317 -76 78 42 134 125 134 203 0 14 -13 79 -30
145 -16 66 -30 125 -30 132 0 17 44 0 87 -33 76 -58 168 -69 280 -35 80 24
123 51 172 108 63 71 85 139 84 258 0 84 -8 135 -52 320 -36 151 -59 232 -76
257 -68 103 -201 138 -314 82z"/>
<path d="M2940 2319 c-58 -10 -79 -16 -175 -57 -73 -31 -434 -220 -456 -239
-13 -11 -26 -11 -76 2 -65 17 -125 10 -182 -20 -45 -23 -130 -105 -157 -151
-23 -39 -26 -53 -22 -113 3 -52 9 -77 28 -105 29 -42 108 -86 157 -86 27 0 34
-4 39 -27 3 -16 12 -53 20 -84 17 -70 17 -79 2 -79 -31 0 -123 -54 -172 -99
-88 -85 -126 -182 -126 -331 0 -104 12 -156 52 -238 86 -174 335 -379 573
-472 85 -33 96 -35 210 -34 104 0 130 4 200 28 92 31 217 95 292 150 121 87
123 239 5 321 -38 26 -52 30 -112 30 -64 0 -71 -2 -136 -47 -103 -70 -169 -98
-234 -98 -65 0 -175 34 -246 75 -112 66 -204 198 -204 294 0 74 26 78 105 14
17 -14 61 -44 100 -69 57 -36 77 -44 117 -44 52 0 99 17 136 49 30 26 62 98
62 142 0 51 -43 129 -92 164 -82 60 -140 179 -173 355 -9 47 -18 93 -19 102
-3 13 11 25 48 43 28 13 89 49 136 80 79 51 258 135 323 150 22 6 27 4 27 -11
0 -48 -53 -178 -152 -372 -97 -191 -108 -218 -108 -265 0 -62 31 -119 87 -157
71 -49 199 -35 255 26 23 27 188 361 233 473 39 99 75 248 75 317 0 166 -85
318 -204 363 -64 24 -164 32 -236 20z"/>
</g>
</svg>
