<?xml version="1.0" standalone="no"?>
<!DOCTYPE svg PUBLIC "-//W3C//DTD SVG 20010904//EN"
 "http://www.w3.org/TR/2001/REC-SVG-20010904/DTD/svg10.dtd">
<svg version="1.0" xmlns="http://www.w3.org/2000/svg"
 width="600.000000pt" height="600.000000pt" viewBox="0 0 600.000000 600.000000"
 preserveAspectRatio="xMidYMid meet">
<metadata>
Created by potrace 1.15, written by Peter Selinger 2001-2017
</metadata>
<g transform="translate(0.000000,600.000000) scale(0.100000,-0.100000)"
fill="#16364b" stroke="none">
<path d="M1565 5761 c-11 -3 -58 -29 -105 -57 -47 -28 -134 -78 -194 -110
-139 -75 -176 -109 -176 -158 0 -85 45 -111 175 -103 80 5 347 55 463 86 75
21 96 98 41 153 -27 28 -34 30 -75 24 -45 -6 -45 -6 -29 16 20 30 19 91 -2
117 -21 24 -69 40 -98 32z"/>
<path d="M2361 5422 c-28 -27 -28 -28 -34 -207 -16 -432 -78 -578 -289 -686
-87 -44 -110 -102 -62 -158 37 -44 80 -42 185 11 229 114 351 346 366 693 3
77 2 180 -2 229 -6 80 -10 93 -35 118 -39 38 -91 39 -129 0z"/>
<path d="M3514 5286 c-44 -44 -45 -85 -3 -170 82 -168 209 -267 304 -236 117
39 93 201 -49 347 -49 49 -72 64 -115 77 -79 23 -98 21 -137 -18z"/>
<path d="M2985 5141 c-63 -39 -111 -118 -140 -226 -20 -77 -19 -132 3 -174 48
-96 150 -99 284 -8 102 69 138 242 71 345 -49 76 -150 105 -218 63z m58 -229
c-3 -12 -9 -22 -14 -22 -12 0 -11 7 2 32 13 25 20 19 12 -10z"/>
<path d="M4753 4750 c-17 -10 -36 -27 -42 -37 -30 -58 -20 -300 19 -425 76
-246 308 -309 413 -113 18 32 22 57 22 126 0 81 -2 90 -43 173 -34 67 -62 106
-125 170 -124 127 -174 149 -244 106z"/>
<path d="M2676 4219 c-101 -24 -166 -93 -174 -183 -6 -71 12 -120 61 -174 119
-128 316 -130 493 -6 103 72 143 138 129 210 -11 60 -55 99 -132 118 -187 45
-292 55 -377 35z"/>
<path d="M1108 4114 c-52 -28 -71 -94 -44 -157 19 -46 43 -64 117 -86 35 -11
73 -27 84 -35 19 -14 17 -15 -22 -16 -24 0 -72 10 -108 21 -59 20 -68 20 -102
8 -51 -20 -83 -69 -83 -129 0 -66 25 -95 103 -118 208 -64 406 -10 478 130 24
47 24 121 0 173 -36 79 -165 169 -300 209 -66 20 -88 20 -123 0z"/>
<path d="M5196 3784 c-117 -37 -194 -118 -231 -248 -67 -232 107 -450 323
-405 124 25 220 97 273 204 55 113 49 221 -18 318 -25 36 -113 110 -161 136
-29 15 -128 12 -186 -5z m104 -307 c0 -19 -37 -50 -49 -42 -25 15 -2 55 31 55
10 0 18 -6 18 -13z"/>
<path d="M4200 3771 c-90 -28 -179 -105 -218 -190 -36 -79 -36 -188 2 -264 54
-111 166 -175 285 -164 186 16 330 196 331 410 0 109 -42 156 -174 196 -69 21
-177 27 -226 12z m110 -290 c0 -11 -48 -51 -61 -51 -17 0 -9 29 13 44 25 18
48 21 48 7z"/>
<path d="M1647 3694 c-47 -26 -51 -54 -22 -169 31 -126 68 -221 97 -252 28
-30 85 -31 116 -3 33 31 29 101 -12 224 -48 143 -62 171 -92 195 -31 25 -49
26 -87 5z"/>
<path d="M3455 3366 c-55 -24 -108 -90 -178 -218 -47 -86 -48 -119 -3 -164 45
-45 90 -46 164 -4 90 52 164 177 166 282 1 55 -1 62 -32 89 -35 32 -69 36
-117 15z"/>
<path d="M1789 3070 c-292 -37 -459 -106 -618 -256 -193 -181 -252 -363 -186
-571 58 -184 164 -306 369 -423 184 -106 239 -166 335 -361 69 -139 74 -147
153 -226 68 -69 168 -127 283 -163 53 -17 104 -24 208 -27 160 -6 241 4 402
52 60 18 159 40 220 50 223 34 581 139 739 215 250 121 538 434 635 690 34 90
35 265 3 353 -31 86 -101 184 -191 270 -90 86 -157 128 -250 157 -78 25 -136
25 -237 3 -64 -15 -127 -18 -329 -18 -284 1 -316 6 -559 91 -391 138 -500 162
-746 169 -91 2 -195 0 -231 -5z m471 -390 c58 -12 168 -47 245 -77 185 -73
314 -117 460 -156 106 -28 138 -32 280 -35 181 -4 350 9 449 34 62 15 69 15
110 0 43 -17 137 -102 162 -148 18 -32 17 -55 -7 -126 -32 -95 -104 -196 -219
-306 -155 -148 -259 -208 -445 -255 -134 -33 -370 -80 -457 -90 -46 -6 -119
-22 -163 -36 -193 -64 -358 -79 -470 -43 -69 22 -136 99 -205 239 -123 248
-216 340 -520 519 -118 69 -151 179 -84 287 34 54 100 103 182 133 74 28 224
68 298 80 90 14 267 5 384 -20z"/>
<path d="M445 2158 c-53 -30 -64 -73 -35 -135 115 -248 177 -348 254 -406 126
-97 247 -87 304 23 71 140 -80 343 -364 489 -82 42 -123 49 -159 29z"/>
<path d="M4854 1561 c-18 -11 -34 -24 -38 -29 -3 -5 -25 -7 -49 -5 -93 11
-147 -45 -147 -150 0 -61 25 -191 45 -241 30 -71 93 -111 162 -103 87 9 142
82 183 242 32 122 37 205 14 244 -34 58 -112 77 -170 42z"/>
</g>
</svg>
