<?xml version="1.0" standalone="no"?>
<!DOCTYPE svg PUBLIC "-//W3C//DTD SVG 20010904//EN"
 "http://www.w3.org/TR/2001/REC-SVG-20010904/DTD/svg10.dtd">
<svg version="1.0" xmlns="http://www.w3.org/2000/svg"
 width="600.000000pt" height="600.000000pt" viewBox="0 0 600.000000 600.000000"
 preserveAspectRatio="xMidYMid meet">
<metadata>
Created by potrace 1.15, written by Peter Selinger 2001-2017
</metadata>
<g transform="translate(0.000000,600.000000) scale(0.100000,-0.100000)"
fill="#16364b" stroke="none">
<path d="M3061 5492 c-59 -32 -88 -117 -62 -184 5 -13 38 -53 73 -89 99 -100
122 -200 77 -344 -25 -81 -19 -126 20 -166 63 -63 172 -60 230 6 16 19 41 70
57 117 65 194 16 408 -130 561 -105 110 -187 141 -265 99z"/>
<path d="M2015 5444 c-43 -25 -63 -53 -76 -110 -8 -38 -9 -64 0 -103 26 -120
86 -180 231 -229 68 -23 88 -34 98 -56 8 -15 22 -106 33 -202 20 -184 28 -211
77 -257 74 -71 191 -26 222 85 12 41 -5 346 -23 413 -38 139 -117 225 -253
276 -73 28 -84 36 -84 56 0 96 -140 174 -225 127z"/>
<path d="M1521 4776 c-145 -15 -166 -24 -208 -86 -42 -61 -25 -161 35 -205 32
-24 79 -25 272 -7 151 14 246 6 342 -28 70 -25 92 -25 144 -1 80 36 112 122
76 203 -24 54 -57 79 -142 108 -54 19 -92 23 -225 26 -88 1 -220 -3 -294 -10z"/>
<path d="M4344 4636 c-74 -32 -116 -115 -95 -185 9 -31 25 -50 76 -87 109 -80
155 -166 194 -361 20 -103 37 -135 84 -163 39 -24 88 -25 134 -4 71 35 88 92
67 232 -34 232 -95 373 -208 479 -102 97 -175 122 -252 89z"/>
<path d="M3192 4487 c-18 -7 -76 -51 -130 -99 -163 -145 -261 -224 -388 -313
-67 -47 -129 -96 -138 -110 -22 -34 -21 -113 3 -149 30 -45 70 -66 128 -66 47
0 60 6 155 68 193 128 528 418 547 474 28 81 0 156 -72 188 -49 23 -60 23
-105 7z"/>
<path d="M1654 4379 c-82 -24 -121 -128 -78 -211 29 -55 74 -78 196 -98 147
-23 405 -44 496 -38 105 6 165 57 165 141 0 98 -74 157 -197 157 -39 0 -179
14 -310 30 -132 17 -240 30 -240 29 -1 0 -15 -5 -32 -10z"/>
<path d="M3755 3917 c-63 -27 -146 -74 -345 -192 -179 -106 -265 -151 -367
-189 -88 -34 -123 -69 -123 -127 0 -94 96 -177 186 -162 49 9 227 97 391 196
258 154 351 206 393 217 106 29 150 136 90 220 -43 61 -136 76 -225 37z"/>
<path d="M2210 3805 c-174 -39 -315 -56 -445 -53 -137 3 -164 -5 -212 -69 -22
-29 -28 -47 -28 -89 0 -60 22 -97 76 -129 31 -18 52 -20 239 -20 211 1 256 6
473 56 126 30 177 79 177 172 0 57 -32 105 -90 135 -53 26 -57 26 -190 -3z"/>
<path d="M4959 3587 c-24 -13 -57 -42 -73 -65 -38 -54 -44 -118 -21 -240 17
-90 17 -102 3 -172 -22 -108 -43 -147 -234 -430 -208 -310 -224 -340 -224
-418 0 -153 142 -275 280 -242 94 22 132 66 368 415 163 243 233 391 266 565
30 154 15 366 -33 475 -23 51 -89 111 -138 124 -66 19 -145 14 -194 -12z"/>
<path d="M1981 3152 c-55 -27 -76 -64 -76 -131 0 -45 6 -66 25 -95 47 -69 178
-115 380 -131 57 -5 102 -15 137 -31 100 -46 203 -18 237 66 21 52 20 75 -3
126 -39 86 -126 127 -328 155 -81 11 -175 29 -207 39 -74 25 -121 25 -165 2z"/>
<path d="M4386 3125 c-21 -7 -53 -27 -70 -43 -155 -145 -512 -299 -806 -347
-129 -21 -180 -47 -209 -108 -12 -24 -21 -53 -21 -65 0 -62 62 -136 123 -147
43 -8 279 20 380 46 286 72 715 321 796 460 42 73 17 158 -59 197 -50 25 -79
27 -134 7z"/>
<path d="M1395 2951 c-49 -22 -91 -69 -104 -117 -13 -46 3 -389 24 -542 26
-182 85 -361 161 -488 91 -151 155 -204 246 -204 101 0 190 88 190 188 0 53
-11 81 -51 127 -39 45 -105 178 -140 282 -50 152 -64 247 -63 442 1 185 -5
220 -51 270 -30 32 -94 61 -137 61 -19 0 -53 -9 -75 -19z"/>
<path d="M2110 2339 c-83 -16 -134 -72 -134 -147 0 -61 31 -107 89 -133 35
-15 57 -18 118 -13 102 9 141 0 190 -45 56 -51 77 -61 133 -61 84 0 154 70
154 155 0 97 -112 203 -255 241 -55 15 -225 17 -295 3z"/>
<path d="M4085 2084 c-210 -58 -286 -76 -429 -99 -83 -14 -239 -48 -347 -75
-108 -27 -246 -58 -308 -69 -121 -22 -152 -35 -193 -78 -106 -111 -58 -276 87
-298 54 -9 204 10 373 46 75 16 238 49 362 74 124 25 297 68 385 95 88 27 187
55 220 61 71 13 101 27 136 66 39 42 49 66 49 123 0 67 -31 124 -86 156 -54
32 -129 31 -249 -2z"/>
<path d="M4822 1705 c-30 -9 -67 -35 -115 -82 -40 -38 -93 -83 -118 -100 -102
-70 -286 -149 -484 -208 -210 -63 -494 -158 -542 -181 -29 -14 -62 -38 -72
-53 -67 -93 -25 -238 82 -290 69 -33 114 -27 300 39 92 33 254 87 360 121 409
131 557 207 723 373 96 97 115 142 95 230 -26 116 -128 183 -229 151z"/>
<path d="M2082 1600 c-77 -47 -92 -131 -42 -232 42 -84 91 -148 163 -214 121
-109 349 -194 445 -166 84 25 137 114 113 191 -16 56 -57 86 -141 105 -142 32
-232 100 -299 226 -42 78 -87 110 -156 110 -32 0 -62 -7 -83 -20z"/>
<path d="M2027 966 c-78 -29 -123 -99 -114 -177 11 -91 60 -137 274 -258 232
-130 381 -180 568 -188 155 -6 240 7 432 68 111 36 133 47 169 83 70 70 80
152 28 232 -33 51 -76 80 -139 94 -45 10 -60 8 -145 -18 -140 -43 -205 -55
-305 -55 -180 -1 -369 63 -573 193 -61 39 -134 49 -195 26z"/>
</g>
</svg>
