<?xml version="1.0" standalone="no"?>
<!DOCTYPE svg PUBLIC "-//W3C//DTD SVG 20010904//EN"
 "http://www.w3.org/TR/2001/REC-SVG-20010904/DTD/svg10.dtd">
<svg version="1.0" xmlns="http://www.w3.org/2000/svg"
 width="600.000000pt" height="600.000000pt" viewBox="0 0 600.000000 600.000000"
 preserveAspectRatio="xMidYMid meet">
<metadata>
Created by potrace 1.15, written by Peter Selinger 2001-2017
</metadata>
<g transform="translate(0.000000,600.000000) scale(0.100000,-0.100000)"
fill="#16364b" stroke="none">
<path d="M2307 5446 c-54 -20 -70 -37 -106 -114 -59 -129 -62 -219 -10 -310
41 -73 103 -102 218 -102 48 0 139 7 204 17 64 9 120 14 123 11 3 -3 -24 -50
-59 -104 -124 -190 -329 -559 -346 -621 -11 -41 -2 -91 23 -122 6 -7 11 -37
11 -66 1 -60 28 -106 78 -131 43 -23 121 -15 352 34 169 37 245 48 511 81 83
10 118 30 145 82 39 78 15 160 -57 194 -38 18 -45 18 -198 1 -87 -9 -238 -30
-334 -46 -97 -17 -180 -30 -185 -30 -19 0 211 417 315 573 53 78 96 171 104
225 18 119 -74 222 -216 242 -58 8 -249 -7 -359 -29 -30 -6 -56 -9 -58 -7 -3
2 3 18 11 35 20 38 20 93 1 131 -27 53 -105 78 -168 56z"/>
<path d="M1710 4985 c-75 -18 -138 -47 -239 -107 -167 -100 -320 -209 -341
-242 -25 -42 -26 -111 -2 -147 46 -69 57 -86 76 -108 29 -32 46 -37 243 -77
226 -45 299 -72 372 -139 69 -64 89 -75 139 -75 105 0 174 124 126 226 -41 87
-221 203 -391 254 -40 12 -73 25 -73 29 0 16 144 61 212 67 86 7 130 31 159
86 35 69 19 151 -40 201 -56 47 -135 58 -241 32z"/>
<path d="M3910 4982 c-59 -20 -141 -60 -203 -99 -133 -84 -86 -274 68 -277 29
-1 67 13 135 46 62 31 111 48 140 50 l45 3 -1 -70 c-1 -82 -32 -180 -103 -330
-59 -124 -64 -145 -51 -195 14 -53 46 -88 95 -104 25 -9 41 -21 43 -33 7 -44
38 -95 69 -114 39 -24 54 -24 273 10 140 22 275 27 299 12 39 -25 17 -210 -51
-429 -38 -124 -40 -137 -28 -175 33 -112 173 -149 251 -66 33 35 112 255 139
389 36 172 22 339 -36 437 -30 52 -91 96 -164 117 -85 25 -324 21 -548 -9
l-43 -6 17 38 c100 229 127 333 128 483 1 99 -2 122 -22 166 -29 64 -82 116
-147 145 -70 32 -226 37 -305 11z"/>
<path d="M2065 3904 c-100 -35 -350 -84 -428 -84 -121 0 -207 -71 -207 -169 0
-28 8 -48 26 -71 46 -54 77 -65 189 -62 266 5 582 86 654 167 83 95 29 229
-99 249 -25 4 -64 -5 -135 -30z"/>
<path d="M3685 3707 c-143 -48 -523 -253 -548 -297 -25 -42 -22 -119 6 -160
37 -55 72 -75 130 -75 55 0 143 40 339 153 48 27 89 48 92 45 13 -13 -76 -224
-143 -338 -45 -76 -51 -117 -26 -165 15 -29 15 -30 -17 -43 -49 -21 -70 -51
-76 -106 -6 -63 24 -119 80 -151 37 -21 50 -22 137 -17 209 12 425 115 638
304 124 110 155 181 119 268 -21 49 -86 89 -146 89 -59 0 -87 -18 -139 -87
-22 -29 -69 -76 -103 -104 -61 -49 -175 -123 -191 -123 -4 0 11 37 34 82 95
189 148 372 149 508 0 197 -134 284 -335 217z"/>
<path d="M2215 3301 c-77 -17 -153 -37 -170 -46 -45 -24 -68 -62 -73 -122 -4
-45 0 -59 21 -91 14 -22 42 -46 67 -57 37 -17 49 -18 108 -7 37 7 107 19 155
28 48 8 104 14 125 12 44 -4 45 -13 11 -125 -21 -68 -21 -76 -8 -120 21 -67
71 -106 141 -107 95 -1 140 39 183 163 38 107 44 219 16 292 -30 79 -80 133
-159 171 -60 28 -78 32 -172 35 -87 2 -130 -2 -245 -26z"/>
<path d="M1186 3075 c-86 -31 -136 -100 -136 -188 0 -85 43 -151 125 -192 19
-10 20 -23 26 -280 7 -297 21 -408 71 -563 36 -116 77 -166 144 -180 90 -19
190 26 225 101 24 53 24 96 0 172 -10 33 -17 62 -16 64 2 2 24 -5 49 -14 49
-19 98 -15 148 11 16 8 56 57 93 112 63 94 150 202 163 202 4 0 20 -24 35 -53
l28 -52 -46 -250 c-60 -326 -65 -382 -36 -428 51 -83 167 -98 241 -31 45 40
55 74 70 239 6 61 22 182 35 269 30 191 31 231 7 271 -10 17 -22 50 -26 74
-10 62 -58 159 -101 202 -55 57 -98 74 -186 74 -66 0 -84 -4 -150 -37 -98 -48
-188 -132 -275 -254 l-69 -98 -6 234 c-9 322 -33 422 -126 521 -74 79 -190
109 -287 74z"/>
<path d="M4874 3071 c-22 -10 -56 -37 -76 -60 -48 -56 -62 -112 -54 -209 5
-60 4 -81 -6 -90 -8 -6 -56 -32 -108 -58 -176 -87 -263 -160 -319 -271 -51
-102 -65 -172 -65 -333 -1 -135 1 -150 27 -220 34 -93 110 -205 165 -245 48
-35 52 -45 16 -45 -33 0 -60 -15 -111 -61 -23 -21 -53 -41 -67 -45 -13 -3 -79
2 -145 11 -163 23 -340 17 -430 -15 -160 -57 -397 -226 -512 -364 -30 -37 -65
-69 -79 -73 -14 -3 -59 -39 -101 -79 -90 -86 -130 -101 -213 -84 -117 24 -278
155 -387 315 -60 88 -98 119 -165 133 -122 26 -224 -54 -224 -178 0 -55 22
-104 90 -205 185 -274 470 -445 743 -445 160 0 281 47 397 156 36 34 84 71
107 83 26 13 63 48 96 89 84 104 186 194 273 238 l77 39 253 -3 c210 -3 265 0
321 14 186 45 320 182 298 303 -9 51 -50 117 -85 138 -17 9 -30 20 -30 24 0 3
19 9 41 12 56 7 118 54 151 113 22 39 28 62 28 114 0 69 -16 114 -63 184 -22
31 -27 50 -27 97 0 32 5 69 11 82 13 28 71 67 194 130 156 81 229 163 281 313
23 67 28 96 28 189 1 132 -13 189 -62 246 -46 53 -101 79 -172 79 -32 0 -72
-8 -96 -19z"/>
<path d="M3370 2304 c-448 -84 -661 -132 -700 -158 -122 -80 -97 -272 42 -331
47 -19 93 -19 183 0 94 19 538 92 597 98 51 5 61 -1 72 -45 9 -40 61 -95 103
-109 74 -24 176 15 227 89 36 52 53 150 37 209 -26 95 -111 178 -229 224 -46
18 -81 23 -182 25 -69 1 -136 0 -150 -2z"/>
</g>
</svg>
