<?xml version="1.0" standalone="no"?>
<!DOCTYPE svg PUBLIC "-//W3C//DTD SVG 20010904//EN"
 "http://www.w3.org/TR/2001/REC-SVG-20010904/DTD/svg10.dtd">
<svg version="1.0" xmlns="http://www.w3.org/2000/svg"
 width="600.000000pt" height="600.000000pt" viewBox="0 0 600.000000 600.000000"
 preserveAspectRatio="xMidYMid meet">
<metadata>
Created by potrace 1.15, written by Peter Selinger 2001-2017
</metadata>
<g transform="translate(0.000000,600.000000) scale(0.100000,-0.100000)"
fill="#16364b" stroke="none">
<path d="M3095 5626 c-44 -19 -78 -64 -113 -148 -77 -186 -65 -331 34 -435 46
-48 121 -78 247 -101 48 -9 87 -18 87 -22 0 -3 -28 -21 -62 -39 -89 -47 -182
-109 -258 -170 -116 -93 -267 -239 -284 -274 -69 -147 64 -247 534 -402 80
-26 191 -65 248 -86 114 -43 139 -46 184 -23 94 49 114 166 40 237 -29 28
-174 85 -474 187 -87 30 -158 57 -158 62 0 17 154 114 295 185 356 179 435
244 435 361 0 29 -25 90 -48 116 -63 71 -210 127 -392 151 -163 20 -180 24
-180 40 0 7 22 57 50 112 55 108 59 132 31 183 -36 68 -139 100 -216 66z"/>
<path d="M1508 5396 c-79 -28 -268 -173 -352 -270 -73 -84 -111 -143 -166
-255 -80 -165 -123 -303 -124 -407 -1 -63 2 -75 28 -108 31 -42 78 -66 126
-66 17 0 76 13 131 30 161 48 368 87 422 81 9 -1 -65 -144 -147 -286 -81 -140
-109 -219 -113 -315 -3 -68 0 -92 15 -120 24 -45 85 -80 139 -80 94 0 549 235
601 310 64 94 -11 233 -126 234 -38 1 -59 -6 -106 -36 -33 -21 -61 -36 -63
-34 -2 1 14 41 36 87 59 126 83 205 88 295 5 72 3 88 -20 137 -63 139 -221
168 -521 97 -48 -12 -91 -19 -94 -16 -7 8 27 70 97 176 65 99 199 239 259 269
50 25 88 74 97 123 11 56 -24 121 -79 147 -49 24 -76 25 -128 7z"/>
<path d="M4685 4494 c-11 -2 -45 -9 -75 -15 -65 -13 -354 -124 -391 -150 -58
-41 -75 -142 -35 -204 22 -33 72 -58 116 -58 20 0 96 23 168 52 73 28 137 51
142 51 6 0 -1 -23 -15 -51 -44 -85 -246 -441 -275 -484 -59 -86 -62 -171 -8
-223 97 -94 110 -102 212 -133 252 -76 356 -110 356 -117 0 -5 -32 -55 -71
-113 -148 -218 -229 -365 -229 -416 0 -82 64 -146 147 -146 61 0 89 24 150
132 28 50 98 157 154 239 132 190 163 255 163 342 0 74 -21 125 -76 177 -50
48 -129 79 -318 127 -94 24 -173 45 -176 48 -3 3 15 37 39 74 65 100 190 333
237 441 23 51 45 118 50 149 24 147 -62 268 -198 279 -26 2 -56 2 -67 -1z"/>
<path d="M3765 3658 c-82 -48 -97 -165 -32 -250 45 -58 80 -81 135 -88 38 -4
49 -10 59 -31 11 -22 10 -32 -2 -55 -8 -16 -15 -37 -15 -46 0 -14 -8 -18 -33
-18 -110 0 -270 -63 -361 -142 -74 -63 -126 -150 -126 -207 0 -93 68 -161 160
-161 60 0 110 35 145 99 30 54 76 93 109 93 11 0 57 -2 101 -3 86 -3 110 5
158 49 29 28 51 89 41 116 -4 11 4 20 28 32 42 20 93 93 109 157 16 66 6 165
-22 224 -55 116 -236 243 -357 250 -46 3 -65 -1 -97 -19z"/>
<path d="M2440 3609 c-98 -25 -290 -119 -334 -164 -65 -65 -61 -154 9 -222 33
-31 55 -43 88 -48 55 -8 69 -4 154 45 81 48 173 80 226 80 l40 0 -6 -82 c-10
-146 -81 -318 -227 -553 -77 -123 -81 -132 -77 -178 5 -56 24 -80 106 -131 63
-39 137 -59 179 -50 15 3 107 30 205 61 98 30 181 53 184 49 8 -7 -48 -167
-104 -295 -41 -95 -45 -111 -41 -167 3 -49 10 -69 32 -99 70 -91 213 -99 298
-18 30 29 139 274 182 413 72 228 51 389 -64 493 -90 81 -215 98 -383 53 -77
-20 -88 -21 -83 -7 3 9 19 54 35 101 62 178 82 385 48 500 -58 198 -234 280
-467 219z"/>
<path d="M1124 3386 c-117 -37 -335 -192 -371 -266 -49 -96 -11 -205 84 -246
47 -20 130 -17 182 6 l44 20 -7 -32 c-4 -18 -20 -112 -37 -208 -16 -96 -42
-233 -58 -305 -38 -170 -55 -313 -46 -400 7 -78 20 -108 62 -146 37 -35 55
-43 140 -64 83 -20 123 -12 169 33 15 15 118 164 230 332 199 300 299 440 320
447 5 2 15 -11 21 -29 17 -46 8 -111 -61 -493 -65 -353 -74 -517 -37 -616 22
-58 75 -120 125 -146 45 -24 120 -13 158 23 63 60 73 128 31 212 l-27 53 13
116 c7 63 26 192 42 287 16 94 38 227 50 296 39 232 25 555 -28 660 -38 72
-93 112 -168 118 -146 12 -215 -50 -440 -392 -82 -125 -151 -223 -153 -218 -2
6 15 91 37 189 120 530 63 785 -175 782 -32 0 -77 -6 -100 -13z"/>
<path d="M4697 2226 c-81 -29 -135 -91 -157 -179 l-12 -47 -107 5 c-58 4 -115
8 -126 10 -36 7 -240 -13 -306 -30 -138 -36 -234 -104 -286 -202 -39 -73 -53
-141 -53 -248 0 -122 -1 -123 -73 -63 -34 28 -96 67 -137 87 -65 31 -87 36
-163 40 -103 4 -149 -10 -238 -70 -93 -63 -184 -180 -289 -372 -23 -43 -44
-76 -46 -74 -2 2 -13 73 -24 158 -21 171 -45 268 -90 363 -39 82 -63 112 -108
135 -80 40 -152 35 -212 -16 -72 -60 -88 -151 -45 -253 36 -85 52 -163 75
-360 23 -189 32 -244 61 -339 40 -134 109 -219 217 -269 49 -23 70 -27 152
-27 101 0 134 11 177 57 30 31 53 90 53 132 0 61 143 364 223 473 77 104 68
106 229 -56 109 -109 154 -148 202 -171 115 -57 228 -49 332 23 109 75 131
147 160 541 l6 79 136 -9 c76 -5 211 -9 302 -9 159 0 167 1 224 28 121 56 185
137 221 277 23 87 17 209 -13 266 -55 107 -177 158 -285 120z"/>
</g>
</svg>
