<?xml version="1.0" standalone="no"?>
<!DOCTYPE svg PUBLIC "-//W3C//DTD SVG 20010904//EN"
 "http://www.w3.org/TR/2001/REC-SVG-20010904/DTD/svg10.dtd">
<svg version="1.0" xmlns="http://www.w3.org/2000/svg"
 width="600.000000pt" height="600.000000pt" viewBox="0 0 600.000000 600.000000"
 preserveAspectRatio="xMidYMid meet">
<metadata>
Created by potrace 1.15, written by Peter Selinger 2001-2017
</metadata>
<g transform="translate(0.000000,600.000000) scale(0.100000,-0.100000)"
fill="#16364b" stroke="none">
<path d="M2275 5543 c-126 -46 -241 -146 -294 -256 -48 -99 -54 -196 -47 -657
4 -241 2 -450 -4 -535 -9 -118 -39 -910 -40 -1027 0 -24 -5 -38 -12 -38 -21 0
-207 87 -293 136 -114 66 -234 156 -235 176 0 9 5 29 10 44 13 33 -4 61 -26
43 -8 -6 -14 -17 -14 -25 0 -7 -4 -15 -9 -18 -5 -4 -15 22 -23 56 -17 82 -38
85 -53 8 l-11 -55 -24 33 c-41 56 -76 35 -40 -24 26 -41 23 -49 -14 -33 -21
10 -29 10 -39 0 -9 -10 -6 -18 18 -38 17 -14 64 -56 106 -93 161 -145 310
-239 514 -326 61 -25 114 -50 119 -54 4 -5 1 -75 -8 -157 -55 -508 37 -1004
232 -1239 88 -108 259 -202 427 -236 l50 -10 0 -161 c0 -178 11 -245 71 -444
49 -160 53 -150 -65 -155 -89 -3 -102 -6 -125 -27 -14 -13 -28 -38 -32 -55
-14 -76 42 -126 142 -126 110 0 200 40 250 112 43 62 42 104 -10 264 -68 213
-89 327 -83 452 3 57 9 108 15 114 7 7 41 6 103 -3 63 -9 221 -13 479 -14
l385 0 -3 -98 c-4 -112 13 -226 64 -429 19 -75 34 -148 34 -162 0 -25 -2 -26
-64 -26 -91 0 -123 -9 -157 -42 -23 -24 -29 -38 -29 -73 0 -36 5 -48 30 -69
96 -80 303 -15 371 116 26 51 24 92 -10 207 -58 195 -84 330 -83 431 1 52 5
111 10 130 9 41 12 42 230 60 78 6 167 18 197 26 198 51 340 207 380 419 26
136 12 691 -21 830 -22 92 -75 188 -185 333 -55 74 -99 135 -97 136 1 1 49 12
106 24 242 51 438 168 586 351 51 64 57 75 44 85 -9 6 -17 20 -20 31 -4 20
-19 23 -50 10 -15 -6 -18 -2 -18 24 0 40 -18 40 -52 -1 l-26 -33 -7 28 c-7 25
-28 36 -38 20 -3 -5 -1 -30 4 -58 l8 -50 -49 -46 c-102 -93 -278 -171 -464
-204 -149 -25 -152 -25 -226 51 -82 83 -163 149 -370 300 -248 182 -294 214
-425 293 -157 96 -241 164 -304 248 -94 124 -203 376 -236 546 -8 40 -21 170
-30 289 -18 262 -34 347 -79 441 -73 150 -184 235 -319 243 -53 3 -85 0 -122
-13z m173 -158 c46 -20 77 -49 107 -100 49 -85 60 -147 85 -480 13 -174 39
-304 89 -443 131 -363 246 -509 541 -689 263 -161 571 -387 700 -514 47 -46
141 -152 210 -234 247 -297 302 -383 320 -510 17 -119 33 -477 27 -586 -16
-275 -135 -420 -367 -448 -383 -47 -1050 -68 -1265 -41 -49 6 -139 15 -200 20
-305 25 -464 126 -574 361 -100 216 -139 506 -112 849 27 353 40 570 46 775 3
121 12 328 20 460 19 308 22 550 11 905 -12 411 3 509 94 600 80 80 185 109
268 75z"/>
<path d="M2593 2915 c-45 -32 -12 -115 45 -115 40 0 71 82 39 108 -24 20 -61
23 -84 7z"/>
<path d="M3180 2840 c-28 -28 -25 -54 11 -84 37 -32 52 -32 79 -4 19 21 24 37
20 68 -5 41 -76 54 -110 20z"/>
<path d="M3115 1949 c-91 -15 -148 -19 -233 -16 -100 5 -113 3 -122 -12 -5
-10 -7 -27 -4 -38 15 -56 144 -66 371 -28 90 14 172 24 182 20 13 -4 27 1 40
14 25 25 25 31 7 56 -19 26 -98 28 -241 4z"/>
</g>
</svg>
