<?xml version="1.0" standalone="no"?>
<!DOCTYPE svg PUBLIC "-//W3C//DTD SVG 20010904//EN"
 "http://www.w3.org/TR/2001/REC-SVG-20010904/DTD/svg10.dtd">
<svg version="1.0" xmlns="http://www.w3.org/2000/svg"
 width="600.000000pt" height="600.000000pt" viewBox="0 0 600.000000 600.000000"
 preserveAspectRatio="xMidYMid meet">
<metadata>
Created by potrace 1.15, written by Peter Selinger 2001-2017
</metadata>
<g transform="translate(0.000000,600.000000) scale(0.100000,-0.100000)"
fill="#16364b" stroke="none">
<path d="M3130 5653 c-24 -9 -61 -46 -76 -75 -18 -35 -18 -96 2 -172 36 -140
124 -243 317 -371 100 -66 133 -93 125 -102 -12 -15 -267 -196 -425 -301 -95
-63 -127 -91 -142 -121 -15 -29 -32 -43 -70 -60 -59 -25 -116 -72 -137 -112
-7 -15 -14 -48 -14 -72 0 -145 194 -205 299 -93 29 30 86 50 204 71 104 17
129 32 158 91 20 43 22 81 5 124 -5 11 17 29 76 64 275 165 372 245 396 324
46 152 -51 286 -327 457 -149 92 -172 119 -201 233 -6 24 -26 60 -44 79 -27
30 -40 36 -82 39 -27 2 -56 1 -64 -3z"/>
<path d="M1211 5368 c-267 -138 -425 -442 -391 -752 25 -223 72 -301 180 -301
55 0 91 21 128 76 22 31 23 40 16 109 -15 147 -10 290 13 352 32 87 88 164
150 206 31 20 74 53 96 73 38 34 41 40 45 100 3 55 0 69 -20 98 -28 41 -81 71
-124 71 -17 0 -59 -14 -93 -32z"/>
<path d="M1534 5146 c-45 -20 -86 -78 -91 -129 -8 -70 42 -147 112 -170 5 -2
-2 -35 -17 -73 -59 -152 -64 -259 -15 -333 57 -86 151 -122 332 -128 124 -5
132 -4 165 19 76 51 87 136 27 205 -38 43 -81 63 -139 63 -57 0 -88 9 -88 25
0 7 16 50 35 94 45 105 57 153 57 221 -1 94 -44 163 -127 201 -49 23 -203 26
-251 5z"/>
<path d="M4492 4589 c-70 -35 -95 -115 -58 -187 27 -53 65 -69 177 -77 62 -5
99 -11 96 -18 -1 -5 -49 -30 -106 -55 -131 -58 -156 -86 -156 -178 0 -53 4
-67 25 -89 33 -36 72 -55 111 -55 34 0 243 84 326 132 79 44 163 126 190 183
33 72 32 148 -4 204 -48 74 -194 128 -405 151 -133 14 -147 13 -196 -11z"/>
<path d="M1890 4259 c-132 -19 -321 -98 -433 -180 -58 -42 -92 -105 -82 -151
18 -83 65 -138 135 -159 52 -16 72 -9 168 60 97 70 217 119 314 130 107 11
168 71 168 164 0 122 -84 164 -270 136z"/>
<path d="M3922 3719 c-90 -45 -119 -165 -67 -278 29 -62 150 -188 210 -218
109 -56 220 -50 295 15 46 39 90 120 90 165 0 39 -28 95 -56 114 -17 11 -24
25 -24 48 0 36 -32 88 -71 117 -72 54 -298 76 -377 37z"/>
<path d="M2525 3706 c-61 -14 -167 -52 -230 -82 -47 -22 -75 -70 -75 -128 0
-57 19 -97 64 -131 55 -42 91 -42 208 -2 57 19 124 38 151 42 l47 6 0 -45 c0
-121 -144 -393 -328 -618 -38 -47 -75 -95 -81 -106 -28 -52 -3 -141 52 -188
26 -22 29 -29 19 -42 -98 -135 -13 -322 146 -322 43 0 77 11 175 54 136 60
284 112 293 104 7 -8 -49 -142 -135 -320 -82 -169 -87 -202 -45 -286 29 -58
84 -98 148 -109 41 -6 114 17 139 45 23 26 251 487 278 562 18 52 23 87 23
175 1 97 -2 116 -23 159 -32 64 -82 113 -150 145 -100 46 -280 31 -474 -41
-104 -38 -117 -42 -117 -34 0 4 17 33 38 64 70 104 263 432 297 505 47 99 65
176 65 277 0 113 -20 180 -71 235 -60 65 -123 88 -249 92 -63 1 -129 -3 -165
-11z"/>
<path d="M1144 3545 c-76 -16 -150 -51 -246 -114 -86 -57 -121 -92 -142 -143
-67 -159 81 -303 249 -243 21 8 41 12 44 10 2 -3 -32 -100 -77 -217 -116 -307
-162 -502 -162 -688 0 -136 61 -213 191 -245 86 -20 128 -14 167 24 35 35 190
229 302 376 45 61 133 174 194 253 97 125 111 139 118 121 14 -38 -30 -317
-112 -699 -65 -303 -73 -395 -42 -484 45 -129 216 -158 284 -48 20 32 22 51
24 172 1 118 6 155 38 290 107 446 132 642 117 915 -11 209 -21 253 -66 300
-74 79 -178 67 -287 -33 -57 -53 -130 -137 -332 -385 -44 -53 -81 -95 -84 -93
-2 3 14 51 36 108 136 353 174 580 116 696 -32 64 -83 108 -148 127 -59 18
-101 18 -182 0z"/>
<path d="M3642 3275 c-75 -21 -102 -37 -154 -93 -75 -80 -128 -205 -128 -304
0 -155 178 -224 273 -106 16 20 33 36 37 33 13 -8 151 17 194 35 47 21 111 85
126 126 16 41 11 126 -9 169 -52 113 -205 176 -339 140z"/>
<path d="M4632 3141 c-46 -30 -72 -77 -72 -134 0 -58 8 -75 70 -147 51 -60
120 -158 120 -170 0 -4 -7 -10 -15 -14 -28 -10 -55 -69 -55 -120 0 -43 4 -53
38 -86 24 -25 52 -41 75 -45 76 -15 176 35 232 114 27 39 30 50 30 124 0 74
-4 90 -37 160 -43 90 -116 199 -186 276 -47 53 -50 55 -108 58 -47 3 -66 0
-92 -16z"/>
<path d="M4477 2306 c-115 -41 -178 -166 -149 -293 12 -51 11 -51 -100 -28
-339 72 -539 12 -638 -190 -45 -91 -55 -189 -43 -430 8 -172 12 -206 30 -241
110 -210 397 -185 454 41 8 33 10 100 6 222 -6 162 -5 174 11 169 9 -3 44 -12
77 -20 33 -8 87 -24 119 -36 112 -38 279 -22 389 37 63 35 131 110 152 171 35
97 28 366 -11 461 -50 120 -178 179 -297 137z"/>
<path d="M2155 1832 c-93 -45 -110 -91 -101 -272 14 -278 44 -442 112 -603 47
-113 104 -176 242 -268 154 -103 236 -143 297 -143 97 -1 174 75 183 179 2 30
8 55 12 55 4 0 49 -29 100 -65 162 -115 236 -141 381 -133 132 7 257 76 300
166 45 93 5 218 -86 269 -63 36 -130 32 -193 -12 l-50 -34 -44 23 c-100 52
-225 134 -277 181 -84 76 -202 170 -236 188 -108 55 -237 10 -296 -105 l-16
-31 -12 64 c-6 35 -16 114 -22 174 -21 220 -27 254 -49 290 -50 81 -163 116
-245 77z"/>
</g>
</svg>
