<?xml version="1.0" standalone="no"?>
<!DOCTYPE svg PUBLIC "-//W3C//DTD SVG 20010904//EN"
 "http://www.w3.org/TR/2001/REC-SVG-20010904/DTD/svg10.dtd">
<svg version="1.0" xmlns="http://www.w3.org/2000/svg"
 width="600.000000pt" height="600.000000pt" viewBox="0 0 600.000000 600.000000"
 preserveAspectRatio="xMidYMid meet">
<metadata>
Created by potrace 1.15, written by Peter Selinger 2001-2017
</metadata>
<g transform="translate(0.000000,600.000000) scale(0.100000,-0.100000)"
fill="#16364b" stroke="none">
<path d="M2645 5510 c-48 -19 -96 -108 -145 -268 -47 -151 -10 -260 105 -308
49 -20 173 -20 330 0 61 7 112 12 114 10 2 -2 -23 -27 -55 -55 -152 -135 -303
-312 -425 -497 -87 -132 -96 -162 -69 -238 41 -119 72 -131 355 -138 205 -6
337 -18 520 -50 65 -11 100 -13 124 -6 65 18 101 71 101 145 0 55 -23 99 -66
126 -57 35 -260 67 -541 85 -57 3 -103 10 -103 15 0 15 165 185 314 324 261
243 283 273 274 380 -9 105 -97 183 -230 205 -66 10 -195 -1 -347 -30 -30 -5
-69 -10 -87 -10 l-33 0 36 75 c28 61 34 83 30 113 -16 93 -120 156 -202 122z"/>
<path d="M1645 5166 c-112 -35 -228 -117 -371 -260 -101 -101 -185 -210 -230
-298 -52 -102 -16 -211 81 -248 23 -9 65 -9 175 0 155 13 270 4 297 -23 12
-11 12 -35 2 -145 l-13 -132 30 -43 c65 -92 212 -83 266 17 15 27 37 183 38
262 0 126 -54 231 -159 301 -68 46 -171 83 -231 83 -22 0 -41 4 -44 9 -13 20
170 152 246 177 115 38 154 170 77 259 -17 19 -47 39 -67 45 -45 12 -47 12
-97 -4z"/>
<path d="M4315 4719 c-80 -10 -180 -48 -297 -115 -111 -62 -148 -103 -155
-168 -14 -124 104 -195 217 -131 123 70 271 128 286 112 14 -13 -102 -299
-197 -489 -67 -134 -64 -183 18 -265 11 -11 26 -28 34 -40 8 -11 29 -28 47
-37 31 -16 42 -16 175 0 144 16 248 14 349 -7 l50 -11 -7 -36 c-4 -20 -31 -92
-62 -161 -30 -70 -79 -181 -109 -249 -61 -139 -66 -181 -31 -233 29 -43 101
-74 150 -65 76 14 93 37 198 257 111 233 136 302 148 398 15 120 -11 213 -81
283 -79 79 -177 107 -409 115 l-166 6 72 151 c162 337 175 487 55 606 -68 69
-163 95 -285 79z"/>
<path d="M1970 4011 c-109 -49 -236 -93 -379 -130 -124 -33 -173 -60 -196
-108 -47 -98 19 -203 128 -203 87 0 426 96 560 159 95 44 122 70 135 129 18
76 -12 143 -80 178 -42 22 -76 17 -168 -25z"/>
<path d="M3755 3702 c-117 -35 -258 -130 -340 -230 -28 -34 -42 -93 -31 -136
9 -38 53 -83 92 -96 58 -19 96 -6 162 58 33 32 83 70 111 85 48 26 51 27 51 9
0 -23 -86 -281 -123 -367 -23 -56 -30 -63 -103 -106 -96 -57 -124 -94 -124
-165 0 -91 65 -154 159 -154 33 0 71 13 148 51 58 28 152 70 211 95 135 56
180 83 225 133 99 110 50 270 -90 297 -18 3 -33 9 -33 13 0 4 11 45 25 92 47
155 29 283 -51 363 -66 66 -182 90 -289 58z"/>
<path d="M2415 3485 c-72 -16 -255 -80 -305 -105 -66 -34 -100 -87 -100 -156
0 -68 45 -125 114 -145 35 -9 54 -6 185 35 197 61 219 66 274 66 36 0 47 -4
47 -16 0 -44 -37 -152 -91 -261 -67 -139 -73 -179 -36 -234 45 -68 130 -87
206 -46 47 24 78 73 144 228 110 259 114 399 14 521 -30 37 -63 63 -111 88
-64 33 -75 35 -175 37 -63 1 -131 -4 -166 -12z"/>
<path d="M1190 3214 c-50 -10 -187 -85 -222 -122 -116 -122 -42 -316 128 -338
l56 -7 -5 -46 c-3 -25 -18 -136 -33 -246 -34 -255 -39 -537 -11 -627 38 -123
168 -183 289 -133 44 18 138 145 203 275 37 74 88 167 113 205 67 105 219 285
239 285 51 0 28 -469 -37 -738 -25 -105 -25 -158 0 -199 54 -90 205 -87 265 6
27 41 67 176 92 312 13 70 17 146 16 299 -1 412 -56 597 -197 661 -62 28 -129
24 -206 -12 -50 -23 -87 -53 -165 -132 -55 -56 -125 -135 -155 -174 -30 -40
-56 -70 -58 -68 -3 2 4 55 14 117 26 159 26 393 0 468 -27 79 -71 142 -127
179 -39 27 -59 34 -111 36 -35 2 -74 1 -88 -1z"/>
<path d="M4830 2710 c-122 -24 -199 -120 -200 -252 l0 -57 -77 -16 c-196 -42
-251 -58 -329 -94 -225 -106 -304 -301 -238 -587 19 -83 38 -135 79 -216 l36
-69 -23 -29 c-13 -16 -30 -29 -39 -29 -9 -1 -68 21 -130 48 -197 84 -241 96
-354 95 -112 0 -160 -15 -263 -80 -117 -74 -271 -260 -363 -438 -22 -43 -44
-70 -64 -80 -16 -9 -52 -32 -79 -51 -26 -19 -53 -35 -59 -35 -23 0 -101 99
-137 175 -44 91 -85 225 -101 329 -21 134 -69 188 -174 194 -100 6 -176 -41
-211 -133 -14 -39 -15 -55 -6 -113 23 -137 86 -328 153 -465 96 -193 197 -297
346 -353 58 -22 80 -25 153 -22 102 5 176 35 282 116 37 28 84 59 103 68 54
26 86 62 156 181 83 140 167 245 222 277 73 43 114 36 322 -50 181 -75 299
-68 433 26 78 55 121 112 129 170 5 35 11 43 42 56 122 51 174 207 110 329
-86 162 -102 197 -106 238 l-5 44 48 12 c27 6 93 18 147 26 233 36 349 114
437 290 66 133 72 283 14 382 -49 84 -158 132 -254 113z"/>
<path d="M3151 2529 c-122 -14 -546 -134 -590 -167 -66 -49 -89 -147 -52 -228
31 -69 126 -134 196 -134 10 0 111 31 224 69 198 67 326 97 337 80 3 -5 -4
-42 -15 -82 -12 -40 -21 -82 -21 -93 0 -69 56 -155 117 -180 72 -31 163 -7
216 55 56 67 115 293 103 395 -17 150 -139 261 -311 286 -79 11 -100 11 -204
-1z"/>
</g>
</svg>
