<?xml version="1.0" standalone="no"?>
<!DOCTYPE svg PUBLIC "-//W3C//DTD SVG 20010904//EN"
 "http://www.w3.org/TR/2001/REC-SVG-20010904/DTD/svg10.dtd">
<svg version="1.0" xmlns="http://www.w3.org/2000/svg"
 width="600.000000pt" height="600.000000pt" viewBox="0 0 600.000000 600.000000"
 preserveAspectRatio="xMidYMid meet">
<metadata>
Created by potrace 1.15, written by Peter Selinger 2001-2017
</metadata>
<g transform="translate(0.000000,600.000000) scale(0.100000,-0.100000)"
fill="#16364b" stroke="none">
<path d="M3053 5600 c-75 -45 -172 -261 -173 -382 0 -45 25 -111 58 -156 50
-66 152 -106 306 -119 l90 -8 -87 -63 c-172 -125 -497 -401 -529 -450 -22 -34
-23 -105 -2 -140 39 -67 108 -98 596 -272 347 -123 357 -125 418 -73 41 34 60
73 60 125 0 54 -28 107 -68 131 -17 10 -158 60 -314 112 -156 52 -282 97 -281
101 6 22 320 242 480 336 167 98 199 137 191 235 -12 143 -163 233 -423 254
-200 16 -195 14 -185 49 5 17 25 61 44 100 41 80 46 129 17 176 -37 60 -136
83 -198 44z"/>
<path d="M1480 5369 c-133 -76 -280 -227 -412 -423 -77 -116 -123 -208 -164
-330 -41 -121 -44 -188 -11 -236 50 -75 132 -87 294 -45 204 53 413 89 413 70
0 -7 -90 -182 -138 -270 -135 -245 -146 -272 -158 -395 -9 -85 61 -148 151
-137 72 8 591 261 625 304 51 65 45 145 -15 203 -34 33 -40 35 -103 35 -60 0
-73 -4 -127 -37 -32 -21 -61 -36 -62 -34 -2 2 23 57 57 122 107 212 118 341
36 448 -71 94 -260 116 -505 60 -35 -8 -66 -12 -69 -10 -6 7 52 100 118 186
65 84 171 189 242 237 26 17 55 44 64 58 25 38 24 117 -2 153 -59 79 -141 93
-234 41z"/>
<path d="M4573 4485 c-28 -8 -127 -42 -220 -75 -203 -73 -233 -97 -233 -181 0
-78 44 -141 111 -159 41 -11 41 -12 228 64 66 27 123 47 127 44 9 -10 -129
-248 -247 -429 -101 -154 -109 -169 -109 -215 0 -56 24 -104 67 -130 15 -10
42 -30 59 -46 25 -23 52 -33 149 -53 197 -41 375 -94 375 -111 0 -9 -30 -59
-151 -244 -143 -221 -159 -252 -159 -313 0 -44 4 -53 39 -88 34 -34 44 -39 85
-39 92 0 110 18 286 285 167 255 201 322 208 413 4 63 2 75 -24 122 -15 28
-41 63 -58 76 -65 55 -226 120 -433 174 l-83 22 29 42 c42 61 171 280 214 363
121 232 122 383 5 460 -36 25 -52 28 -127 30 -51 1 -107 -4 -138 -12z"/>
<path d="M3754 3655 c-68 -40 -91 -115 -60 -190 37 -87 123 -155 198 -155 49
0 61 -29 39 -97 l-16 -50 -85 -6 c-142 -10 -258 -64 -348 -161 -55 -61 -102
-146 -102 -186 0 -43 42 -112 80 -132 70 -36 176 -12 215 49 29 47 68 84 108
105 34 17 50 18 126 13 70 -6 94 -4 118 8 47 25 81 72 88 122 5 31 14 49 32
60 42 28 78 119 78 200 0 121 -50 228 -156 333 -108 106 -228 139 -315 87z"/>
<path d="M2495 3594 c-150 -33 -363 -134 -395 -187 -32 -53 -35 -101 -8 -154
28 -56 61 -83 114 -90 33 -4 54 3 134 45 96 50 163 75 233 87 30 5 39 3 44
-11 24 -64 -83 -360 -221 -609 -36 -64 -56 -112 -56 -133 0 -19 19 -69 47
-123 59 -115 96 -144 187 -144 47 0 81 8 151 37 136 54 295 105 295 94 0 -12
-71 -199 -109 -288 -71 -166 -51 -266 64 -319 77 -36 191 -13 230 47 20 31
172 447 191 524 42 167 -17 315 -149 379 -83 40 -241 44 -402 11 -31 -6 -58
-10 -60 -8 -2 2 21 57 51 121 134 289 147 447 49 593 -83 121 -220 166 -390
128z"/>
<path d="M1100 3366 c-123 -35 -315 -171 -351 -250 -34 -75 -21 -157 36 -223
60 -71 156 -89 238 -46 l29 15 -7 -44 c-4 -24 -22 -110 -41 -192 -80 -347
-114 -606 -95 -711 18 -97 57 -136 167 -166 124 -33 189 -23 245 38 50 54 147
199 224 333 129 223 285 460 304 460 17 0 33 -74 26 -129 -6 -57 -56 -385 -97
-636 -13 -81 -22 -187 -23 -250 0 -101 2 -115 28 -168 38 -77 81 -109 148
-109 58 0 93 20 123 72 24 40 25 114 3 156 -22 42 -20 50 79 579 42 226 47
265 48 405 1 222 -26 369 -85 451 -42 60 -138 85 -220 58 -86 -29 -246 -194
-403 -414 -39 -56 -79 -112 -89 -125 l-17 -25 6 45 c3 25 23 119 45 210 82
353 75 483 -32 591 -76 78 -181 105 -289 75z"/>
<path d="M4705 2248 c-32 -11 -91 -52 -113 -78 -24 -27 -52 -94 -52 -124 l0
-28 -57 6 c-32 3 -129 9 -215 12 -178 7 -244 -1 -352 -46 -191 -80 -253 -183
-265 -442 l-6 -137 -64 53 c-124 106 -237 147 -348 127 -178 -33 -326 -177
-494 -480 -24 -44 -47 -81 -51 -81 -3 0 -9 30 -13 68 -23 238 -48 345 -106
469 -44 93 -95 144 -164 163 -56 16 -99 8 -156 -29 -90 -57 -106 -152 -52
-301 19 -49 49 -175 72 -300 57 -305 102 -420 199 -517 79 -78 147 -107 252
-107 107 -1 131 6 180 50 30 27 44 51 56 93 49 170 194 467 267 548 47 51 49
52 75 39 15 -8 72 -57 128 -108 168 -158 245 -200 370 -202 63 -1 79 3 140 34
82 42 124 93 159 195 23 64 25 85 25 252 0 179 0 183 23 195 16 10 79 12 254
10 130 -1 261 2 300 8 130 20 232 92 282 200 34 74 43 245 16 318 -20 54 -73
114 -121 137 -36 17 -124 19 -169 3z"/>
</g>
</svg>
