<?xml version="1.0" standalone="no"?>
<!DOCTYPE svg PUBLIC "-//W3C//DTD SVG 20010904//EN"
 "http://www.w3.org/TR/2001/REC-SVG-20010904/DTD/svg10.dtd">
<svg version="1.0" xmlns="http://www.w3.org/2000/svg"
 width="600.000000pt" height="600.000000pt" viewBox="0 0 600.000000 600.000000"
 preserveAspectRatio="xMidYMid meet">
<metadata>
Created by potrace 1.15, written by Peter Selinger 2001-2017
</metadata>
<g transform="translate(0.000000,600.000000) scale(0.100000,-0.100000)"
fill="#16364b" stroke="none">
<path d="M2377 5382 c-14 -15 -17 -42 -17 -148 0 -389 -92 -614 -293 -713 -50
-25 -69 -40 -74 -59 -9 -36 16 -76 50 -80 44 -5 155 56 222 123 144 142 215
382 215 721 0 124 -2 143 -18 157 -24 22 -65 21 -85 -1z"/>
<path d="M3543 5290 c-24 -10 -53 -58 -53 -87 0 -35 60 -144 107 -194 113
-121 243 -126 243 -9 0 41 -46 140 -95 205 -50 64 -150 107 -202 85z"/>
<path d="M3053 5099 c-93 -19 -178 -132 -190 -253 -11 -103 32 -166 112 -166
102 0 235 165 235 291 0 92 -68 147 -157 128z m42 -118 c16 -26 -54 -149 -98
-173 -19 -10 -20 -8 -13 32 9 55 31 100 64 127 30 25 38 28 47 14z"/>
<path d="M4740 4710 c-18 -18 -20 -33 -20 -162 0 -149 19 -309 46 -391 23 -69
65 -107 118 -107 91 0 132 73 130 235 -1 85 -6 115 -33 195 -37 108 -91 212
-124 235 -31 22 -93 19 -117 -5z"/>
<path d="M2668 4218 c-76 -20 -111 -105 -73 -179 57 -110 306 -172 465 -117
49 18 70 31 87 57 28 42 29 66 3 109 -22 36 -24 37 -165 80 -169 51 -258 65
-317 50z"/>
<path d="M5255 3976 c-147 -37 -227 -133 -226 -274 0 -120 43 -216 132 -296
153 -137 404 -75 498 124 22 47 26 69 26 150 0 85 -3 100 -27 141 -37 63 -82
105 -152 139 -50 25 -70 30 -130 29 -39 0 -93 -6 -121 -13z m109 -286 c14 -5
26 -16 26 -24 0 -15 -29 -36 -49 -36 -15 0 -34 39 -27 56 6 17 16 17 50 4z"/>
<path d="M4216 3764 c-142 -44 -248 -182 -248 -324 0 -76 25 -132 83 -184 149
-134 393 -77 486 113 25 50 28 67 27 156 0 146 -35 196 -165 236 -72 22 -116
23 -183 3z m87 -271 c-10 -29 -24 -43 -44 -43 -25 0 -24 15 1 40 25 25 52 27
43 3z"/>
<path d="M1215 3698 c-84 -30 -162 -114 -186 -201 -19 -69 -7 -175 27 -236 50
-92 155 -169 287 -208 103 -30 183 -140 251 -344 47 -140 134 -554 147 -692
28 -313 87 -479 222 -624 60 -64 195 -163 223 -163 16 0 34 -31 34 -60 0 -32
60 -86 111 -100 33 -9 99 -10 259 -4 381 14 396 13 476 -57 54 -47 82 -49 126
-10 29 26 33 35 32 79 l0 50 65 8 c36 4 215 8 396 9 331 2 357 4 540 45 159
35 435 152 566 240 371 250 518 696 344 1045 -110 222 -283 374 -478 420 -82
19 -233 19 -310 -1 -89 -23 -180 -71 -255 -134 -97 -81 -169 -133 -234 -169
-207 -116 -553 -160 -761 -97 -258 78 -539 292 -772 590 -237 302 -262 329
-386 404 -93 57 -374 175 -494 208 -58 16 -187 17 -230 2z m288 -324 c145 -53
251 -110 346 -188 70 -57 99 -89 268 -291 336 -402 720 -657 1083 -721 154
-27 279 -11 520 67 185 59 362 158 535 298 118 96 285 116 418 49 84 -42 181
-160 226 -276 26 -66 36 -173 22 -247 -6 -33 -29 -98 -52 -145 -33 -66 -60
-102 -128 -171 -81 -82 -95 -91 -241 -163 -257 -125 -379 -151 -794 -166 -148
-6 -310 -15 -360 -20 -113 -12 -276 -12 -381 0 -44 5 -177 16 -296 25 -176 12
-232 19 -297 40 -78 25 -153 71 -194 119 -63 74 -118 254 -134 436 -7 80 -73
397 -129 620 -54 218 -98 327 -178 444 -82 122 -168 188 -299 232 -80 26 -138
64 -138 90 0 27 76 15 203 -32z"/>
<path d="M2296 2397 c-41 -30 -1 -117 54 -117 26 0 60 38 60 67 0 51 -71 81
-114 50z"/>
<path d="M2855 2046 c-28 -28 -24 -57 13 -86 33 -26 67 -25 86 2 22 32 20 61
-7 86 -30 29 -62 28 -92 -2z"/>
<path d="M3460 3367 c-36 -18 -93 -99 -152 -214 -46 -91 -50 -105 -40 -128 17
-36 54 -51 89 -36 61 27 185 215 199 301 10 60 -44 103 -96 77z"/>
<path d="M470 2010 c-34 -34 -24 -56 58 -139 78 -77 164 -131 209 -131 28 0
73 41 73 67 0 46 -74 113 -202 183 -82 45 -109 49 -138 20z"/>
<path d="M5349 1107 c-37 -18 -72 -101 -73 -173 -1 -71 16 -109 57 -130 39
-21 80 -10 116 32 38 42 46 70 46 156 0 59 -3 71 -25 92 -30 28 -87 39 -121
23z"/>
</g>
</svg>
