<?xml version="1.0" standalone="no"?>
<!DOCTYPE svg PUBLIC "-//W3C//DTD SVG 20010904//EN"
 "http://www.w3.org/TR/2001/REC-SVG-20010904/DTD/svg10.dtd">
<svg version="1.0" xmlns="http://www.w3.org/2000/svg"
 width="600.000000pt" height="600.000000pt" viewBox="0 0 600.000000 600.000000"
 preserveAspectRatio="xMidYMid meet">
<metadata>
Created by potrace 1.15, written by Peter Selinger 2001-2017
</metadata>
<g transform="translate(0.000000,600.000000) scale(0.100000,-0.100000)"
fill="#16364b" stroke="none">
<path d="M2600 5513 c-32 -12 -63 -51 -100 -123 -54 -108 -73 -175 -74 -256 0
-62 3 -77 30 -120 61 -100 159 -121 413 -90 74 9 136 15 138 13 2 -2 -37 -41
-87 -87 -118 -108 -240 -253 -351 -419 -100 -150 -117 -194 -99 -256 24 -79
53 -126 93 -153 l40 -27 396 -8 c218 -5 417 -10 442 -10 110 -4 183 115 131
212 -37 70 -60 74 -455 96 -137 7 -250 15 -253 18 -8 8 108 157 202 259 49 53
127 129 174 170 46 40 106 96 133 123 109 113 95 242 -36 318 -104 61 -234 72
-459 37 -72 -11 -133 -18 -136 -15 -3 3 8 35 26 71 52 105 40 186 -34 235 -28
18 -99 25 -134 12z"/>
<path d="M1655 5145 c-121 -38 -233 -116 -407 -284 -127 -122 -232 -263 -244
-326 -9 -52 13 -118 53 -157 39 -38 42 -38 333 -24 105 6 164 5 183 -3 l27
-11 0 -117 c0 -141 16 -187 78 -228 81 -54 169 -39 211 35 19 34 21 53 21 188
0 83 -5 175 -11 204 -32 150 -119 219 -301 239 -51 6 -94 12 -96 14 -9 8 173
141 234 171 79 38 96 53 119 107 20 49 19 72 -6 124 -35 73 -104 97 -194 68z"/>
<path d="M4280 4705 c-154 -35 -366 -124 -415 -175 -16 -17 -29 -43 -32 -68
-12 -91 45 -161 138 -170 45 -4 62 1 148 42 116 55 233 98 243 88 20 -20 -67
-252 -153 -407 -33 -60 -72 -130 -85 -154 -40 -73 -31 -111 47 -201 28 -32 64
-64 80 -71 24 -9 77 -9 260 1 127 7 255 9 286 5 l55 -7 -6 -30 c-8 -42 -59
-163 -147 -348 -54 -116 -74 -169 -77 -209 -8 -95 45 -154 136 -153 67 2 112
36 149 113 219 451 227 473 228 604 0 82 -3 96 -33 157 -37 75 -72 110 -152
147 -54 25 -60 26 -257 25 -112 0 -203 3 -203 7 0 3 16 41 36 85 20 43 56 138
81 212 88 270 65 415 -79 488 -63 32 -158 39 -248 19z"/>
<path d="M1960 3979 c-107 -46 -216 -79 -373 -114 -60 -14 -121 -34 -137 -45
-125 -89 -73 -275 76 -272 87 1 467 116 594 180 66 32 78 43 99 85 17 35 22
56 17 82 -13 66 -86 126 -153 125 -15 -1 -71 -19 -123 -41z"/>
<path d="M3740 3674 c-97 -26 -248 -122 -333 -212 -52 -55 -54 -133 -3 -186
58 -62 142 -61 225 5 65 52 184 114 189 99 8 -22 -41 -152 -109 -290 -66 -136
-69 -140 -118 -164 -137 -70 -179 -177 -104 -267 61 -72 130 -76 251 -15 48
24 132 63 187 86 217 91 295 142 330 216 37 79 4 188 -69 223 -23 12 -57 21
-74 21 -18 0 -32 2 -32 3 0 2 9 39 20 82 28 108 26 196 -4 261 -58 124 -201
180 -356 138z"/>
<path d="M2420 3476 c-80 -17 -247 -71 -317 -101 -28 -13 -59 -35 -68 -49 -71
-108 7 -256 133 -256 22 0 71 13 110 29 88 37 203 69 277 77 l55 7 0 -30 c0
-39 -23 -115 -72 -238 -33 -83 -39 -109 -36 -152 11 -125 137 -202 229 -140
27 18 44 45 81 132 143 330 154 499 43 623 -70 78 -135 105 -265 108 -63 2
-131 -2 -170 -10z"/>
<path d="M1109 3156 c-118 -41 -173 -92 -185 -172 -17 -115 83 -233 199 -234
24 0 37 -5 37 -14 0 -7 -12 -74 -27 -147 -24 -121 -27 -156 -27 -354 0 -210
10 -332 36 -415 46 -151 232 -189 319 -66 16 23 44 57 62 76 19 19 51 67 72
105 119 219 341 535 376 535 13 0 20 -247 10 -356 -7 -65 -30 -184 -56 -290
-50 -196 -51 -226 -9 -282 57 -75 158 -92 229 -38 39 30 54 74 99 276 47 215
67 361 73 535 7 238 -19 352 -99 435 -151 154 -409 47 -638 -263 -76 -104 -79
-100 -55 60 40 271 38 370 -11 470 -31 64 -99 126 -161 147 -68 23 -165 20
-244 -8z"/>
<path d="M4824 2740 c-49 -11 -103 -49 -135 -93 -30 -41 -42 -83 -43 -156 l-1
-44 -125 -33 c-160 -41 -224 -65 -297 -113 -165 -106 -241 -265 -230 -476 7
-121 26 -194 78 -302 l39 -83 -32 -30 c-18 -16 -38 -30 -44 -30 -6 0 -57 20
-112 44 -146 65 -207 79 -332 74 -119 -5 -182 -25 -285 -93 -119 -79 -271
-254 -354 -407 -20 -37 -44 -70 -53 -73 -9 -3 -43 -26 -74 -50 -32 -25 -68
-45 -80 -45 -51 0 -137 144 -214 360 -61 170 -62 171 -94 208 -79 90 -213 105
-298 34 -61 -51 -73 -124 -37 -232 86 -264 217 -506 336 -623 179 -177 350
-200 546 -75 28 18 67 46 86 63 19 16 57 41 85 55 41 20 59 38 91 89 172 272
242 355 323 379 51 16 90 7 253 -54 116 -44 131 -47 224 -48 94 -1 104 1 166
31 42 21 86 54 122 91 48 51 57 67 68 121 8 38 18 61 26 61 8 0 30 9 51 19
136 70 167 243 65 365 -49 59 -91 175 -78 216 8 25 71 46 220 74 188 35 263
65 338 135 82 75 116 239 87 420 -14 81 -39 130 -90 174 -57 48 -124 65 -196
47z"/>
<path d="M3155 2501 c-55 -10 -161 -36 -235 -59 -74 -22 -171 -50 -215 -62
-44 -12 -95 -33 -113 -47 -103 -77 -94 -249 16 -311 60 -33 115 -29 272 22
196 64 276 85 358 92 l73 7 -7 -29 c-4 -16 -13 -46 -21 -68 -29 -83 -9 -170
53 -232 72 -73 170 -69 248 9 85 85 141 338 102 458 -64 193 -252 272 -531
220z"/>
</g>
</svg>
