<?xml version="1.0" standalone="no"?>
<!DOCTYPE svg PUBLIC "-//W3C//DTD SVG 20010904//EN"
 "http://www.w3.org/TR/2001/REC-SVG-20010904/DTD/svg10.dtd">
<svg version="1.0" xmlns="http://www.w3.org/2000/svg"
 width="600.000000pt" height="600.000000pt" viewBox="0 0 600.000000 600.000000"
 preserveAspectRatio="xMidYMid meet">
<metadata>
Created by potrace 1.15, written by Peter Selinger 2001-2017
</metadata>
<g transform="translate(0.000000,600.000000) scale(0.100000,-0.100000)"
fill="#16364b" stroke="none">
<path d="M3133 5650 c-18 -10 -39 -31 -49 -45 -54 -83 -74 -322 -35 -426 43
-114 132 -180 295 -217 48 -12 91 -23 93 -26 3 -3 -9 -13 -27 -23 -64 -35
-364 -235 -439 -293 -133 -102 -145 -116 -176 -211 -35 -109 -30 -148 25 -200
68 -65 154 -95 350 -124 58 -8 160 -25 226 -36 120 -22 122 -22 160 -3 21 10
49 35 62 54 20 29 23 45 20 92 -4 59 -26 95 -72 120 -33 18 -130 37 -262 53
-70 8 -129 16 -131 19 -3 2 22 25 54 51 110 87 258 182 403 259 197 105 240
150 240 250 0 135 -102 212 -373 281 -76 19 -147 41 -157 48 -27 16 -25 49 6
148 18 59 24 92 19 118 -8 44 -46 96 -85 116 -41 21 -109 19 -147 -5z"/>
<path d="M1365 5391 c-128 -65 -234 -172 -343 -346 -112 -181 -162 -333 -162
-499 0 -122 10 -159 52 -203 42 -43 85 -57 136 -44 75 21 122 77 122 146 0 34
1 35 36 35 21 0 78 13 129 29 102 33 221 58 231 48 4 -3 -17 -73 -44 -154 -71
-207 -82 -283 -56 -388 4 -16 -4 -26 -33 -42 -64 -36 -86 -66 -91 -127 -8
-101 55 -176 149 -176 38 0 70 12 170 64 68 36 176 86 239 111 155 63 168 71
190 108 24 38 26 106 6 146 -22 42 -81 89 -122 97 -29 5 -53 0 -113 -25 -42
-18 -82 -35 -90 -39 -23 -9 -9 46 52 216 80 219 94 309 58 388 -21 45 -66 84
-121 104 -93 32 -304 30 -440 -5 -34 -9 -66 -15 -71 -13 -17 6 64 126 124 187
32 32 82 71 110 86 95 51 127 93 127 168 0 77 -63 145 -141 154 -35 4 -56 -2
-104 -26z"/>
<path d="M4678 4489 c-37 -5 -124 -20 -194 -34 -139 -27 -179 -48 -208 -108
-21 -46 -20 -79 4 -128 39 -75 117 -97 237 -65 29 8 75 17 103 21 l51 7 -47
-73 c-61 -95 -141 -201 -201 -264 -72 -76 -93 -112 -93 -159 0 -82 59 -136
147 -136 78 0 111 26 244 191 63 78 227 324 263 396 59 117 55 205 -10 281
-57 67 -155 91 -296 71z"/>
<path d="M3835 3651 c-50 -30 -68 -58 -73 -110 -6 -69 25 -119 135 -218 49
-43 111 -101 138 -130 74 -77 130 -91 206 -52 29 14 46 32 60 62 35 79 19 130
-70 214 -47 44 -61 64 -61 86 0 65 -37 102 -146 143 -78 29 -147 31 -189 5z"/>
<path d="M2531 3639 c-96 -24 -230 -74 -304 -111 -72 -36 -97 -73 -97 -147 0
-50 3 -57 44 -97 40 -40 48 -44 93 -44 37 0 72 10 134 39 78 37 186 71 223 71
37 0 13 -118 -62 -310 -45 -115 -111 -234 -205 -374 -53 -79 -62 -98 -65 -146
-3 -47 0 -60 22 -90 14 -19 33 -51 42 -70 34 -75 102 -120 180 -120 34 0 77
14 169 55 115 52 227 95 247 95 21 0 -58 -235 -119 -354 -39 -76 -47 -100 -47
-148 -1 -47 4 -64 29 -99 64 -91 184 -115 274 -56 48 32 94 122 160 311 76
217 105 340 105 446 1 87 -2 100 -28 148 -32 57 -72 92 -144 125 -64 29 -214
29 -322 0 -41 -12 -76 -20 -78 -18 -2 2 12 34 31 71 79 158 129 359 131 524 1
107 -1 119 -27 173 -65 131 -199 175 -386 126z"/>
<path d="M1140 3453 c-75 -14 -230 -110 -342 -211 -74 -67 -95 -148 -59 -228
42 -93 172 -130 272 -78 17 8 33 14 35 12 2 -2 -21 -91 -51 -196 -92 -325
-125 -516 -125 -712 0 -119 13 -153 77 -196 49 -33 164 -57 211 -45 89 24 264
234 528 629 117 177 129 192 142 175 23 -30 7 -173 -49 -421 -28 -125 -62
-279 -76 -342 -34 -151 -38 -327 -9 -380 52 -97 110 -140 186 -140 79 0 131
51 138 136 3 41 -1 63 -17 95 -18 34 -21 52 -16 98 16 135 40 270 85 473 27
120 54 253 60 296 19 125 -1 405 -36 530 -39 137 -167 189 -290 117 -51 -30
-97 -84 -299 -348 -88 -115 -161 -204 -163 -198 -2 5 15 72 38 148 63 209 80
295 87 439 5 109 3 140 -12 183 -42 129 -164 192 -315 164z"/>
<path d="M4537 3406 c-79 -29 -117 -92 -98 -163 15 -57 57 -90 160 -129 118
-44 230 -101 237 -119 7 -18 -24 -72 -129 -228 -55 -82 -81 -129 -84 -157 -16
-116 117 -210 213 -151 31 19 153 186 245 334 97 158 86 300 -32 419 -54 54
-139 99 -294 156 -136 50 -170 56 -218 38z"/>
<path d="M3653 3196 c-106 -35 -203 -122 -253 -229 -37 -78 -40 -139 -7 -188
26 -39 97 -79 142 -79 55 0 117 40 144 93 23 46 26 48 55 40 63 -16 178 -9
222 15 149 78 135 254 -26 326 -77 35 -208 45 -277 22z"/>
<path d="M4600 2227 c-55 -17 -126 -95 -144 -158 -9 -29 -16 -61 -16 -71 0
-22 -28 -23 -125 -3 -117 24 -309 30 -388 11 -128 -30 -233 -101 -277 -186
-34 -67 -42 -129 -46 -345 -2 -115 -7 -225 -11 -243 l-8 -33 -71 63 c-234 211
-422 290 -581 243 -101 -30 -185 -119 -266 -282 -23 -45 -44 -80 -49 -77 -4 3
-8 24 -8 47 0 130 -62 411 -111 509 -57 112 -229 147 -312 64 -32 -31 -57 -91
-57 -135 0 -11 11 -59 24 -105 14 -46 37 -170 51 -276 48 -352 89 -466 214
-590 84 -83 181 -139 283 -161 50 -10 63 -10 102 5 85 32 143 124 133 209 -8
68 79 382 108 394 14 5 121 -71 190 -136 84 -78 162 -135 225 -165 58 -28 75
-31 160 -31 80 0 102 4 138 23 63 33 117 86 141 137 12 25 25 45 31 45 22 0
79 64 100 112 21 48 23 73 28 252 l5 199 70 -7 c39 -4 107 -16 151 -28 62 -17
111 -22 211 -22 122 -1 133 1 180 25 68 36 155 130 193 209 70 143 78 313 18
412 -55 92 -172 131 -286 95z"/>
</g>
</svg>
