<?xml version="1.0" standalone="no"?>
<!DOCTYPE svg PUBLIC "-//W3C//DTD SVG 20010904//EN"
 "http://www.w3.org/TR/2001/REC-SVG-20010904/DTD/svg10.dtd">
<svg version="1.0" xmlns="http://www.w3.org/2000/svg"
 width="600.000000pt" height="600.000000pt" viewBox="0 0 600.000000 600.000000"
 preserveAspectRatio="xMidYMid meet">
<metadata>
Created by potrace 1.15, written by Peter Selinger 2001-2017
</metadata>
<g transform="translate(0.000000,600.000000) scale(0.100000,-0.100000)"
fill="#16364b" stroke="none">
<path d="M2730 5542 c-37 -19 -64 -64 -108 -185 -21 -58 -26 -90 -27 -168 0
-89 2 -99 30 -144 65 -105 162 -139 372 -133 73 2 132 1 131 -2 -2 -4 -51 -47
-109 -97 -199 -172 -439 -442 -460 -518 -12 -44 1 -95 40 -157 59 -93 61 -93
546 -133 99 -8 225 -22 281 -32 l101 -16 47 23 c38 18 52 32 68 67 29 66 2
145 -60 177 -44 23 -206 52 -417 76 -104 12 -191 23 -193 25 -12 12 129 156
420 430 119 113 149 160 150 239 1 90 -51 154 -159 197 -60 24 -95 26 -438 15
-59 -1 -60 2 -14 101 16 35 29 78 29 96 0 51 -39 109 -90 135 -53 27 -93 28
-140 4z"/>
<path d="M1577 5216 c-98 -41 -166 -87 -257 -176 -144 -141 -298 -364 -337
-487 -14 -44 -14 -58 -3 -97 15 -55 73 -112 123 -121 18 -4 94 2 168 13 267
40 309 40 309 -1 0 -12 -16 -78 -35 -147 -20 -69 -36 -143 -37 -166 -1 -45 22
-96 53 -117 24 -17 22 -18 -51 -42 -101 -33 -140 -77 -140 -157 0 -76 66 -148
134 -148 31 0 537 170 597 201 155 78 114 289 -56 289 -19 0 -72 -15 -117 -34
-132 -54 -128 -54 -116 -9 5 21 25 84 44 140 44 130 55 245 30 321 -23 68 -91
143 -158 173 -47 21 -68 24 -180 24 -71 0 -128 4 -128 8 0 4 46 54 103 110 73
73 123 113 175 142 113 60 147 137 102 230 -38 78 -115 95 -223 51z"/>
<path d="M4400 4650 c-92 -20 -210 -63 -321 -118 -140 -70 -163 -97 -157 -182
5 -64 27 -102 75 -125 52 -25 93 -18 205 35 113 54 218 93 227 85 11 -11 -35
-119 -150 -352 -122 -247 -134 -285 -108 -336 23 -45 124 -137 159 -147 19 -5
118 -14 220 -20 102 -7 208 -15 235 -19 49 -7 50 -7 47 -39 -3 -42 -34 -117
-135 -322 -70 -141 -81 -172 -81 -216 0 -114 114 -182 205 -121 28 18 54 61
139 232 204 407 224 550 94 664 -75 66 -187 95 -410 107 -68 4 -124 10 -124
14 0 4 20 45 44 91 85 160 154 360 170 495 13 108 -34 213 -115 254 -47 25
-151 34 -219 20z"/>
<path d="M3699 3657 c-71 -24 -138 -73 -188 -136 -57 -71 -64 -122 -28 -185
54 -94 174 -100 243 -11 28 35 71 65 94 65 47 0 -77 -338 -131 -355 -37 -12
-137 -76 -185 -118 -46 -41 -83 -103 -84 -141 0 -11 9 -39 21 -62 15 -32 32
-48 65 -65 67 -32 115 -23 207 38 78 53 145 81 312 133 106 33 155 63 186 114
21 34 25 99 8 143 -12 34 -78 103 -97 103 -10 0 -12 7 -8 23 44 154 49 245 15
314 -49 101 -143 155 -279 160 -69 3 -97 -1 -151 -20z"/>
<path d="M2415 3511 c-105 -27 -259 -82 -323 -115 -43 -22 -76 -95 -68 -149
14 -86 80 -147 161 -147 20 0 72 15 115 34 120 53 259 97 315 99 l50 2 -3 -48
c-4 -63 -51 -196 -114 -321 -43 -86 -49 -106 -45 -144 12 -109 144 -156 247
-88 32 21 50 49 109 168 108 219 143 386 107 510 -58 200 -262 273 -551 199z"/>
<path d="M1133 3216 c-66 -21 -168 -82 -201 -121 -35 -39 -47 -85 -40 -150 10
-88 82 -145 183 -145 56 0 57 0 51 -27 -18 -83 -66 -575 -66 -677 0 -239 36
-336 142 -381 56 -23 98 -18 169 17 l64 33 93 180 c52 99 127 230 166 290 68
102 218 285 235 285 3 0 13 -21 21 -47 34 -117 1 -511 -67 -792 -21 -89 -23
-111 -14 -143 30 -99 126 -141 236 -104 19 7 20 3 17 -39 -7 -88 45 -349 104
-524 100 -292 294 -466 497 -448 77 7 188 61 260 127 30 28 59 50 64 50 4 0
25 11 46 25 29 20 50 51 93 138 118 235 243 382 324 379 34 -1 85 -26 185 -92
119 -77 171 -94 295 -94 96 -1 109 1 159 27 71 38 138 108 153 160 7 27 29 59
59 90 59 59 89 121 96 195 5 51 0 70 -40 172 -25 63 -48 136 -52 162 -6 42 -5
47 16 59 14 7 94 15 200 20 201 9 262 25 334 84 51 41 72 69 109 144 56 109
71 310 31 394 -24 50 -81 104 -131 123 -66 25 -153 16 -206 -23 -54 -39 -98
-116 -105 -187 -7 -63 -11 -66 -114 -66 -80 0 -223 -24 -281 -47 -64 -25 -172
-97 -217 -145 -91 -96 -137 -233 -128 -378 6 -99 24 -170 73 -294 25 -61 33
-91 26 -98 -8 -8 -43 8 -114 50 -57 34 -121 69 -143 78 -161 68 -315 57 -462
-33 -169 -103 -282 -233 -380 -434 -39 -80 -64 -121 -78 -125 -11 -4 -40 -20
-64 -37 l-44 -30 -20 24 c-51 62 -131 294 -162 474 -25 139 -47 180 -117 216
-49 25 -132 25 -182 0 l-38 -20 5 22 c77 351 92 468 92 737 0 320 -28 455
-112 542 -71 73 -172 85 -275 33 -101 -51 -278 -206 -362 -317 -16 -21 -32
-38 -36 -38 -3 0 -3 26 1 58 47 331 48 433 7 524 -28 60 -74 109 -127 134 -47
23 -173 28 -228 10z"/>
<path d="M3055 2586 c-147 -22 -253 -46 -371 -86 -134 -46 -143 -50 -182 -94
-72 -82 -66 -203 14 -278 66 -61 111 -62 297 -4 156 48 334 89 366 84 19 -3
19 -6 -10 -93 -36 -107 -39 -176 -11 -231 43 -84 107 -128 186 -127 94 1 128
48 185 250 53 193 62 294 33 389 -26 84 -67 136 -136 171 -45 24 -63 27 -166
29 -63 2 -155 -3 -205 -10z"/>
</g>
</svg>
