<?xml version="1.0" standalone="no"?>
<!DOCTYPE svg PUBLIC "-//W3C//DTD SVG 20010904//EN"
 "http://www.w3.org/TR/2001/REC-SVG-20010904/DTD/svg10.dtd">
<svg version="1.0" xmlns="http://www.w3.org/2000/svg"
 width="600.000000pt" height="600.000000pt" viewBox="0 0 600.000000 600.000000"
 preserveAspectRatio="xMidYMid meet">
<metadata>
Created by potrace 1.15, written by Peter Selinger 2001-2017
</metadata>
<g transform="translate(0.000000,600.000000) scale(0.100000,-0.100000)"
fill="#16364b" stroke="none">
<path d="M2230 5438 c-36 -18 -51 -34 -72 -78 -87 -178 -39 -361 110 -420 40
-16 132 -18 271 -6 l104 8 -34 -48 c-18 -27 -59 -85 -92 -128 -97 -132 -197
-366 -197 -463 0 -104 90 -174 183 -144 49 16 82 56 111 133 42 114 93 205
192 347 155 222 191 318 159 427 -21 72 -88 141 -160 167 -60 21 -195 22 -303
3 l-73 -13 7 53 c8 67 -8 117 -50 149 -48 36 -101 41 -156 13z"/>
<path d="M3780 5172 c-79 -21 -146 -58 -173 -94 -32 -43 -35 -127 -7 -177 25
-43 70 -71 114 -71 15 0 49 11 76 25 28 14 70 28 94 31 39 6 45 4 56 -16 23
-44 -5 -180 -71 -345 -52 -128 -51 -178 5 -233 34 -35 40 -37 99 -37 104 0
136 34 195 210 66 198 86 414 48 514 -38 101 -139 177 -265 201 -71 13 -94 12
-171 -8z"/>
<path d="M1716 4905 c-211 -40 -489 -174 -532 -257 -36 -70 -12 -161 53 -203
22 -14 33 -30 37 -56 7 -43 37 -84 77 -104 16 -9 95 -27 177 -41 204 -34 320
-67 409 -114 88 -46 130 -50 187 -17 72 41 97 135 56 202 -49 79 -273 179
-486 216 -36 6 -62 15 -57 19 21 21 146 52 233 59 111 9 139 23 170 85 39 81
17 166 -52 202 -44 23 -172 27 -272 9z"/>
<path d="M3145 4346 c-49 -13 -164 -51 -255 -84 -91 -33 -221 -76 -290 -97
-69 -21 -137 -46 -153 -57 -37 -26 -57 -68 -57 -118 0 -85 54 -148 134 -157
43 -5 75 4 501 151 72 24 177 56 235 71 58 14 115 33 128 41 60 39 81 138 42
202 -46 76 -125 89 -285 48z"/>
<path d="M4316 4269 c-98 -12 -137 -35 -166 -95 -38 -77 -8 -156 69 -187 32
-13 55 -14 127 -7 203 22 302 8 315 -44 11 -40 -6 -164 -41 -304 -17 -64 -30
-130 -30 -145 0 -60 62 -131 124 -142 72 -14 150 30 176 100 18 47 58 203 74
294 51 270 -25 444 -224 511 -52 18 -92 23 -205 26 -77 1 -176 -2 -219 -7z"/>
<path d="M2090 3889 c-122 -34 -297 -65 -422 -74 -98 -8 -136 -26 -175 -84
-42 -63 -21 -153 46 -198 31 -21 45 -23 170 -23 220 0 507 41 592 86 43 22 73
92 65 149 -10 63 -58 132 -109 155 -51 24 -39 24 -167 -11z"/>
<path d="M3690 3735 c-30 -8 -178 -76 -328 -152 -230 -115 -276 -142 -293
-170 -45 -73 -29 -154 40 -200 57 -38 90 -31 255 53 83 42 185 92 229 110 91
39 90 43 26 -91 -42 -87 -48 -129 -23 -181 45 -95 177 -120 246 -47 67 71 138
275 146 416 6 117 -10 168 -68 221 -62 55 -127 67 -230 41z"/>
<path d="M2205 3250 c-157 -12 -171 -16 -215 -60 -66 -66 -64 -158 6 -220 l35
-30 211 0 210 0 -6 -27 c-4 -16 -10 -51 -13 -80 -7 -67 21 -117 81 -144 104
-47 197 3 232 125 54 186 -12 363 -154 416 -68 26 -215 33 -387 20z"/>
<path d="M4889 3202 c-100 -52 -135 -139 -110 -274 16 -87 5 -105 -112 -194
-135 -103 -222 -194 -278 -290 -145 -250 -150 -457 -14 -639 63 -84 136 -125
225 -125 77 0 126 24 174 83 26 32 31 48 34 106 4 59 0 78 -23 130 -23 50 -27
70 -22 110 11 95 41 134 185 239 138 102 170 132 216 201 81 121 108 248 87
407 -13 97 -34 152 -74 200 -65 77 -191 97 -288 46z"/>
<path d="M4260 3169 c-14 -6 -59 -43 -100 -83 -152 -148 -358 -246 -570 -271
-84 -10 -116 -23 -149 -60 -54 -62 -50 -144 10 -205 43 -43 91 -53 193 -40
211 26 434 113 591 232 107 80 212 191 226 237 36 121 -85 236 -201 190z"/>
<path d="M1224 3032 c-122 -58 -137 -214 -29 -316 18 -17 36 -42 40 -56 4 -14
11 -155 15 -315 9 -316 14 -351 80 -515 39 -96 86 -153 145 -175 143 -55 292
85 240 226 -45 119 -55 156 -70 256 -8 59 -20 207 -25 328 -16 381 -52 484
-194 557 -58 30 -150 34 -202 10z"/>
<path d="M2029 2547 c-31 -13 -69 -33 -85 -45 -83 -60 -240 -255 -264 -328
-32 -95 47 -194 154 -194 65 0 113 28 163 94 58 77 144 166 159 166 7 0 18
-16 24 -35 6 -19 25 -46 41 -59 l30 -25 -25 -58 c-84 -202 -102 -333 -72 -518
25 -150 59 -201 144 -212 33 -4 50 0 85 20 76 45 87 91 65 258 -15 114 -2 205
47 318 20 49 35 99 35 123 0 44 -24 102 -49 121 -13 9 -17 28 -16 77 0 77 -31
154 -90 218 -83 93 -233 127 -346 79z"/>
<path d="M3483 2219 c-115 -13 -658 -133 -725 -160 -37 -15 -87 -66 -104 -106
-28 -65 -13 -152 35 -207 29 -33 88 -56 144 -56 33 0 134 20 253 51 303 78
391 98 493 110 l94 12 35 -42 c84 -101 210 -108 290 -17 38 43 56 104 47 160
-9 54 -49 133 -87 173 -76 78 -249 108 -475 82z"/>
<path d="M4524 1586 c-17 -8 -55 -35 -84 -61 -83 -74 -113 -83 -322 -101 -225
-19 -298 -34 -414 -88 -179 -85 -469 -302 -490 -368 -3 -12 -15 -18 -34 -18
-42 0 -76 -16 -143 -66 -87 -65 -119 -77 -212 -78 -89 -1 -140 14 -238 72 -75
43 -186 148 -232 218 -20 30 -54 66 -76 81 -33 22 -47 25 -99 21 -110 -8 -190
-93 -190 -203 0 -61 26 -106 131 -231 167 -200 350 -296 619 -326 147 -16 259
3 385 66 105 53 198 123 227 172 15 26 26 34 49 34 40 0 97 31 139 75 63 67
180 154 256 191 90 43 193 63 329 64 304 1 490 74 619 242 78 103 43 257 -69
303 -43 18 -110 19 -151 1z"/>
</g>
</svg>
