<?xml version="1.0" standalone="no"?>
<!DOCTYPE svg PUBLIC "-//W3C//DTD SVG 20010904//EN"
 "http://www.w3.org/TR/2001/REC-SVG-20010904/DTD/svg10.dtd">
<svg version="1.0" xmlns="http://www.w3.org/2000/svg"
 width="600.000000pt" height="600.000000pt" viewBox="0 0 600.000000 600.000000"
 preserveAspectRatio="xMidYMid meet">
<metadata>
Created by potrace 1.15, written by Peter Selinger 2001-2017
</metadata>
<g transform="translate(0.000000,600.000000) scale(0.100000,-0.100000)"
fill="#16364b" stroke="none">
<path d="M1540 5761 c-25 -16 -287 -275 -320 -316 -88 -110 -38 -224 94 -213
61 6 498 190 534 225 26 26 30 87 7 120 -9 13 -32 27 -53 34 -31 9 -45 7 -90
-10 -64 -25 -69 -26 -50 -3 35 39 26 105 -19 145 -24 21 -82 31 -103 18z"/>
<path d="M2369 5435 c-14 -8 -31 -27 -37 -42 -6 -15 -13 -125 -16 -243 -5
-233 -17 -309 -62 -411 -35 -77 -106 -143 -210 -193 -96 -46 -112 -59 -120
-102 -11 -58 38 -114 102 -114 34 0 142 51 224 105 134 89 208 197 251 366 17
69 22 126 26 321 4 180 3 245 -7 268 -22 54 -95 76 -151 45z"/>
<path d="M3504 5312 c-30 -25 -54 -68 -54 -96 0 -65 84 -211 162 -281 65 -58
130 -79 190 -62 50 15 88 63 88 111 0 61 -91 214 -169 283 -33 29 -122 63
-164 63 -18 0 -41 -8 -53 -18z"/>
<path d="M2975 5155 c-51 -28 -85 -67 -120 -140 -61 -128 -56 -227 15 -297 51
-51 124 -55 217 -12 107 51 136 103 137 249 1 68 -3 87 -24 124 -14 24 -37 53
-52 64 -37 28 -132 34 -173 12z"/>
<path d="M4771 4773 c-63 -33 -72 -56 -72 -179 2 -252 87 -465 212 -530 48
-24 125 -22 177 4 73 39 132 146 132 243 0 138 -124 322 -295 435 -65 43 -109
51 -154 27z"/>
<path d="M2720 4230 c-128 -21 -203 -104 -203 -225 0 -137 94 -240 240 -260
113 -15 260 44 372 150 59 56 64 64 68 111 6 59 -16 116 -54 141 -37 24 -240
80 -313 86 -36 3 -85 1 -110 -3z"/>
<path d="M1092 4113 c-64 -31 -94 -105 -68 -166 18 -45 48 -64 120 -78 31 -5
78 -19 104 -30 43 -19 45 -21 27 -32 -37 -20 -129 -37 -208 -37 -93 0 -139
-17 -167 -62 -39 -64 -15 -149 51 -184 47 -24 215 -30 304 -11 132 28 238 95
281 179 26 50 30 145 9 209 -34 101 -147 183 -293 215 -86 18 -119 17 -160 -3z"/>
<path d="M4170 3765 c-155 -43 -252 -183 -236 -338 12 -118 74 -209 172 -254
50 -23 65 -25 142 -21 103 5 168 34 239 104 124 124 152 382 49 450 -91 59
-265 87 -366 59z m104 -316 c-17 -18 -54 -27 -54 -11 0 15 16 31 40 40 31 12
38 -2 14 -29z"/>
<path d="M5200 3704 c-109 -30 -193 -99 -251 -206 -32 -59 -34 -69 -34 -153 1
-106 20 -158 84 -228 60 -65 126 -91 216 -85 132 9 253 98 318 236 28 58 32
78 32 148 0 72 -3 86 -30 129 -19 30 -60 72 -108 109 -89 68 -131 77 -227 50z
m50 -316 c0 -14 -30 -48 -42 -48 -15 0 -8 39 10 49 23 14 32 13 32 -1z"/>
<path d="M1636 3695 c-48 -26 -55 -43 -56 -137 0 -195 100 -348 229 -348 52 0
83 13 116 47 62 64 74 171 30 260 -61 121 -239 221 -319 178z"/>
<path d="M3434 3390 c-53 -21 -182 -226 -200 -319 -12 -56 48 -121 111 -121
41 0 129 45 159 81 60 70 104 206 91 277 -10 52 -54 92 -102 91 -21 0 -47 -4
-59 -9z"/>
<path d="M2248 3070 c-158 -18 -247 -46 -547 -170 -196 -81 -315 -163 -426
-292 -123 -143 -170 -262 -169 -433 0 -124 18 -204 66 -300 43 -88 65 -114
242 -290 89 -88 206 -214 261 -279 110 -132 168 -177 291 -230 113 -49 182
-66 299 -73 112 -6 224 9 346 48 83 26 353 157 504 244 125 72 396 250 495
325 193 147 284 297 297 490 18 268 -97 462 -411 698 -135 102 -398 213 -586
247 -109 20 -531 29 -662 15z m573 -385 c76 -13 131 -31 240 -79 155 -67 406
-264 454 -355 80 -155 -104 -357 -550 -605 -66 -36 -145 -75 -175 -86 -30 -11
-80 -33 -110 -49 -144 -77 -323 -127 -424 -119 -115 10 -132 22 -437 330 -154
156 -288 297 -297 313 -11 20 -17 54 -16 105 0 100 26 153 123 251 69 69 89
82 226 148 273 132 377 154 746 159 83 1 169 -4 220 -13z"/>
<path d="M421 2226 c-59 -32 -64 -98 -21 -230 108 -322 297 -504 483 -464 94
20 157 109 143 202 -4 25 -21 73 -38 108 -54 108 -170 205 -446 377 -38 24
-86 26 -121 7z m347 -451 c-3 -3 -13 7 -23 22 l-17 28 23 -22 c12 -12 20 -25
17 -28z"/>
<path d="M4630 1769 c-13 -6 -32 -17 -41 -25 -15 -14 -20 -14 -48 0 -16 9 -51
16 -77 16 -39 0 -51 -5 -80 -34 -21 -21 -35 -45 -36 -62 -3 -66 5 -155 22
-239 48 -232 108 -314 222 -303 27 3 62 14 76 25 61 43 110 188 144 426 11 83
11 91 -7 125 -13 24 -36 45 -65 60 -48 24 -71 26 -110 11z"/>
</g>
</svg>
