<?xml version="1.0" standalone="no"?>
<!DOCTYPE svg PUBLIC "-//W3C//DTD SVG 20010904//EN"
 "http://www.w3.org/TR/2001/REC-SVG-20010904/DTD/svg10.dtd">
<svg version="1.0" xmlns="http://www.w3.org/2000/svg"
 width="600.000000pt" height="600.000000pt" viewBox="0 0 600.000000 600.000000"
 preserveAspectRatio="xMidYMid meet">
<metadata>
Created by potrace 1.15, written by Peter Selinger 2001-2017
</metadata>
<g transform="translate(0.000000,600.000000) scale(0.100000,-0.100000)"
fill="#16364b" stroke="none">
<path d="M2172 5450 c-41 -25 -76 -98 -93 -192 -15 -85 -1 -158 42 -218 61
-84 141 -108 309 -94 82 7 110 6 110 -3 0 -6 -21 -59 -46 -118 -56 -133 -141
-353 -161 -419 -24 -80 1 -147 67 -181 63 -33 158 -9 194 47 8 13 32 78 55
145 22 68 77 209 122 315 78 182 82 197 83 268 1 83 -19 133 -73 187 -60 60
-91 68 -252 66 l-146 -2 5 49 c6 61 -10 101 -55 140 -42 37 -109 41 -161 10z"/>
<path d="M3720 5330 c-159 -28 -230 -81 -230 -175 0 -105 97 -160 210 -120 61
22 117 20 130 -4 25 -48 0 -214 -54 -350 -31 -78 -32 -109 -6 -161 23 -45 80
-80 130 -80 49 0 107 35 129 78 63 125 104 317 99 463 -3 98 -6 112 -38 175
-66 130 -217 201 -370 174z"/>
<path d="M1700 4864 c-179 -33 -382 -104 -453 -158 -56 -42 -76 -97 -58 -157
16 -54 57 -94 109 -109 41 -10 42 -12 42 -53 0 -81 59 -140 154 -152 171 -22
390 -82 496 -135 74 -37 111 -44 160 -29 108 33 140 167 58 246 -66 64 -333
165 -510 193 -43 7 -75 16 -73 20 3 4 37 16 76 25 54 14 94 16 167 12 110 -6
143 3 185 52 55 66 44 158 -26 215 -38 30 -39 30 -170 32 -73 1 -143 0 -157
-2z"/>
<path d="M3245 4386 c-90 -30 -209 -78 -375 -151 -96 -43 -222 -97 -280 -119
-85 -34 -109 -48 -127 -75 -29 -43 -30 -104 -3 -149 21 -35 87 -71 129 -72 40
0 217 64 401 145 96 43 222 95 280 117 58 22 116 49 128 61 79 73 65 187 -28
235 -50 25 -68 26 -125 8z"/>
<path d="M4214 4331 c-64 -39 -83 -148 -37 -210 40 -53 77 -65 203 -68 147 -3
198 -9 227 -28 21 -14 23 -23 23 -98 0 -45 -11 -136 -25 -204 -28 -144 -23
-177 35 -235 33 -33 44 -38 84 -38 102 0 127 36 172 240 33 154 38 337 10 410
-27 71 -60 114 -118 152 -70 46 -131 65 -264 83 -158 21 -271 20 -310 -4z"/>
<path d="M2137 3864 c-147 -44 -228 -57 -378 -59 -178 -3 -198 -7 -237 -48
-57 -59 -67 -125 -29 -192 39 -70 66 -77 257 -71 182 5 283 23 465 80 118 38
162 69 185 131 23 61 -8 133 -71 166 -48 24 -94 23 -192 -7z"/>
<path d="M3679 3761 c-30 -10 -84 -33 -120 -53 -253 -137 -332 -178 -393 -204
-88 -37 -142 -86 -152 -139 -16 -88 45 -165 131 -165 46 0 96 21 343 143 83
41 152 73 152 70 0 -3 -7 -26 -17 -52 -42 -119 49 -218 167 -182 58 17 92 58
145 178 80 180 74 293 -20 371 -66 53 -139 64 -236 33z"/>
<path d="M4930 3294 c-50 -22 -89 -61 -116 -119 -20 -43 -24 -65 -24 -156 0
-128 -2 -133 -156 -289 -129 -131 -146 -154 -200 -265 -68 -142 -88 -228 -89
-375 0 -150 18 -220 73 -276 44 -45 87 -64 148 -64 71 0 121 19 174 67 69 62
80 98 78 246 -3 115 -1 126 26 190 24 58 49 90 166 213 142 149 185 212 226
334 27 77 27 294 1 362 -22 57 -91 123 -143 137 -54 15 -123 13 -164 -5z"/>
<path d="M2140 3241 c-115 -7 -141 -16 -170 -64 -44 -72 -12 -181 65 -221 36
-19 55 -20 194 -18 85 1 163 0 173 -4 15 -4 18 -16 18 -65 0 -68 16 -105 59
-142 61 -51 146 -43 199 17 35 40 57 140 49 221 -10 103 -77 192 -174 237
-100 45 -172 52 -413 39z"/>
<path d="M4295 3159 c-16 -5 -63 -36 -104 -68 -134 -108 -405 -233 -596 -275
-113 -25 -146 -42 -182 -96 -27 -39 -30 -107 -8 -150 21 -40 82 -70 142 -70
141 1 397 66 543 140 168 85 389 260 410 326 42 127 -71 234 -205 193z"/>
<path d="M1296 3015 c-43 -15 -91 -57 -112 -97 -23 -44 -18 -125 11 -175 14
-23 30 -43 35 -43 17 0 31 -108 45 -342 8 -130 22 -272 30 -315 21 -102 69
-245 103 -308 43 -78 128 -115 219 -95 69 16 110 47 140 108 29 60 28 98 -8
166 -59 112 -74 189 -94 481 -17 238 -27 320 -51 405 -32 113 -99 189 -191
216 -57 17 -77 17 -127 -1z"/>
<path d="M2077 2506 c-83 -34 -132 -69 -209 -147 -93 -94 -122 -146 -116 -209
6 -64 30 -97 85 -122 73 -32 103 -21 200 77 45 46 95 91 112 99 l29 16 25 -43
c16 -26 41 -51 64 -63 21 -10 40 -20 42 -21 2 -2 -3 -11 -12 -20 -28 -31 -76
-139 -96 -214 -39 -148 -35 -298 11 -442 17 -51 32 -77 60 -102 61 -55 148
-59 208 -8 60 50 75 115 45 201 -8 24 -20 74 -27 111 -15 86 5 175 58 263 33
54 36 64 32 119 -4 51 -9 64 -38 95 -19 19 -45 37 -58 41 -17 4 -21 10 -17 22
30 72 28 115 -7 185 -28 54 -118 143 -170 166 -61 28 -148 26 -221 -4z"/>
<path d="M3625 2190 c-105 -8 -202 -22 -320 -45 -194 -40 -493 -107 -518 -117
-74 -29 -117 -96 -117 -179 0 -69 35 -129 96 -165 40 -24 53 -26 112 -21 37 2
180 30 317 60 322 72 412 87 511 87 68 0 85 -3 105 -21 83 -74 192 -76 266 -6
126 119 53 325 -137 390 -59 20 -190 27 -315 17z"/>
<path d="M4581 1605 c-18 -8 -60 -40 -93 -70 -33 -30 -73 -62 -90 -71 -43 -22
-144 -41 -293 -54 -236 -21 -423 -86 -615 -215 -163 -108 -240 -190 -240 -255
0 -15 -11 -18 -64 -22 -56 -3 -72 -10 -132 -50 -95 -64 -155 -82 -253 -76
-141 8 -277 90 -433 258 -106 115 -165 140 -259 108 -84 -28 -129 -90 -129
-178 0 -76 18 -108 131 -225 156 -161 301 -252 498 -312 75 -23 104 -26 231
-27 134 0 151 2 225 28 158 55 282 152 303 239 l12 47 45 0 c59 0 102 19 184
78 96 70 176 116 261 150 94 37 136 46 340 72 257 32 405 92 543 220 74 69
107 123 107 180 0 43 -29 107 -61 137 -55 51 -150 67 -218 38z"/>
</g>
</svg>
