<?xml version="1.0" standalone="no"?>
<!DOCTYPE svg PUBLIC "-//W3C//DTD SVG 20010904//EN"
 "http://www.w3.org/TR/2001/REC-SVG-20010904/DTD/svg10.dtd">
<svg version="1.0" xmlns="http://www.w3.org/2000/svg"
 width="600.000000pt" height="600.000000pt" viewBox="0 0 600.000000 600.000000"
 preserveAspectRatio="xMidYMid meet">
<metadata>
Created by potrace 1.15, written by Peter Selinger 2001-2017
</metadata>
<g transform="translate(0.000000,600.000000) scale(0.100000,-0.100000)"
fill="#16364b" stroke="none">
<path d="M2365 5387 c-26 -22 -27 -28 -36 -172 -24 -436 -88 -599 -270 -690
-75 -38 -99 -62 -99 -100 0 -38 29 -71 70 -80 24 -5 44 1 96 29 251 138 343
311 374 706 14 182 7 274 -26 307 -30 30 -75 30 -109 0z"/>
<path d="M3522 5305 c-29 -21 -52 -67 -52 -103 0 -42 55 -145 105 -196 57 -59
112 -86 174 -86 42 0 54 5 80 31 31 31 36 48 32 104 -6 69 -102 200 -173 236
-56 29 -136 35 -166 14z"/>
<path d="M2995 5111 c-122 -55 -203 -255 -147 -360 21 -40 73 -71 117 -71 76
1 182 77 216 154 30 70 36 170 12 216 -38 74 -117 98 -198 61z m45 -202 c-13
-31 -50 -60 -50 -39 0 15 19 51 39 73 20 24 27 5 11 -34z"/>
<path d="M4783 4745 c-55 -24 -63 -54 -63 -237 0 -176 14 -267 50 -339 29 -57
47 -77 92 -100 85 -43 187 -9 229 78 50 102 23 280 -63 413 -51 80 -137 179
-162 186 -11 3 -28 7 -36 9 -8 2 -29 -2 -47 -10z"/>
<path d="M2646 4215 c-54 -19 -92 -59 -107 -112 -33 -120 60 -238 221 -279
109 -28 203 -7 320 71 76 50 105 99 93 155 -7 40 -52 87 -89 95 -16 4 -63 18
-104 31 -95 30 -211 54 -258 54 -20 -1 -54 -7 -76 -15z"/>
<path d="M1141 4136 c-28 -16 -50 -52 -51 -84 0 -13 -10 -36 -21 -52 -18 -24
-21 -37 -15 -75 13 -99 87 -191 171 -215 115 -32 237 59 238 178 1 93 -61 168
-187 228 -77 37 -99 40 -135 20z"/>
<path d="M5219 3903 c-74 -24 -139 -80 -174 -148 -27 -53 -30 -67 -29 -149 1
-110 25 -182 85 -249 74 -85 152 -113 262 -96 157 26 276 154 293 316 13 120
-41 223 -156 301 -62 41 -64 42 -149 41 -49 0 -106 -7 -132 -16z m129 -269
c29 -8 28 -30 -3 -50 -29 -19 -45 -12 -45 20 0 35 8 40 48 30z"/>
<path d="M4200 3763 c-145 -50 -250 -192 -250 -336 0 -74 23 -129 74 -180 65
-66 108 -82 216 -82 83 0 101 3 145 27 65 34 130 104 163 176 31 67 43 214 23
275 -34 103 -235 168 -371 120z m90 -293 c-9 -18 -40 -40 -54 -40 -16 0 -3 31
20 49 30 24 49 19 34 -9z"/>
<path d="M3430 3364 c-36 -31 -160 -274 -160 -315 0 -44 35 -79 79 -79 111 0
265 247 228 365 -9 26 -57 55 -90 55 -14 0 -40 -12 -57 -26z"/>
<path d="M1435 3215 c-261 -26 -342 -45 -435 -101 -160 -96 -248 -270 -220
-435 27 -158 145 -327 278 -397 57 -30 103 -42 241 -62 97 -14 163 -50 212
-115 50 -67 79 -132 145 -327 122 -360 225 -509 422 -607 127 -64 380 -98 642
-86 74 3 304 10 510 15 330 8 393 12 522 34 428 74 650 166 894 375 143 122
232 264 281 447 22 86 26 120 27 259 2 315 -59 447 -270 585 -170 111 -317
160 -481 160 -198 0 -351 -59 -554 -216 -30 -23 -86 -59 -124 -80 -64 -36 -77
-39 -180 -45 -241 -15 -471 64 -730 252 -309 224 -412 277 -645 330 -114 26
-351 32 -535 14z m479 -399 c127 -33 237 -87 356 -176 312 -235 536 -348 777
-393 217 -41 216 -41 345 -23 204 28 298 68 489 205 46 34 122 80 168 103 77
40 89 43 160 42 99 0 151 -25 248 -117 64 -61 76 -77 94 -136 43 -136 22 -319
-50 -433 -38 -59 -52 -74 -143 -141 -182 -136 -286 -169 -698 -224 -185 -24
-222 -26 -735 -29 -363 -3 -558 0 -595 7 -106 21 -180 79 -233 184 -8 17 -42
111 -75 211 -106 317 -204 475 -365 585 -110 76 -182 105 -331 134 -107 20
-156 53 -156 104 0 55 56 82 215 105 61 9 121 18 135 20 14 3 86 3 160 1 103
-3 158 -10 234 -29z"/>
<path d="M452 2103 c-16 -6 -42 -56 -42 -82 0 -11 10 -32 23 -48 13 -15 34
-50 47 -76 37 -72 122 -161 182 -191 92 -46 165 -30 194 41 28 67 -19 155
-130 245 -110 89 -220 133 -274 111z"/>
<path d="M5185 1268 c-11 -6 -24 -17 -28 -25 -4 -7 -17 -13 -28 -13 -12 0 -37
-16 -56 -35 -34 -34 -35 -37 -31 -98 7 -120 71 -193 161 -184 85 8 127 72 141
213 4 34 2 73 -3 87 -20 53 -107 83 -156 55z"/>
</g>
</svg>
