<?xml version="1.0" standalone="no"?>
<!DOCTYPE svg PUBLIC "-//W3C//DTD SVG 20010904//EN"
 "http://www.w3.org/TR/2001/REC-SVG-20010904/DTD/svg10.dtd">
<svg version="1.0" xmlns="http://www.w3.org/2000/svg"
 width="600.000000pt" height="600.000000pt" viewBox="0 0 600.000000 600.000000"
 preserveAspectRatio="xMidYMid meet">
<metadata>
Created by potrace 1.15, written by Peter Selinger 2001-2017
</metadata>
<g transform="translate(0.000000,600.000000) scale(0.100000,-0.100000)"
fill="#16364b" stroke="none">
<path d="M3553 5273 c-7 -2 -20 -20 -29 -39 -16 -34 -16 -36 19 -107 47 -95
96 -150 161 -182 43 -21 58 -24 79 -16 66 25 33 132 -86 274 -54 65 -101 88
-144 70z m124 -170 c25 -35 42 -67 38 -71 -14 -13 -115 122 -115 154 0 14 34
-23 77 -83z"/>
<path d="M3004 5058 c-37 -25 -57 -49 -82 -98 -64 -126 -36 -240 59 -240 62 0
175 104 203 187 25 73 21 119 -13 154 -42 42 -101 41 -167 -3z m116 -81 c0
-19 -12 -52 -29 -79 -28 -44 -87 -98 -108 -98 -16 0 -20 30 -10 78 11 56 81
132 120 132 24 0 27 -4 27 -33z"/>
<path d="M4763 4728 c-42 -20 -48 -57 -48 -323 0 -270 6 -312 51 -341 32 -21
89 -11 109 19 18 29 35 139 35 237 0 116 -26 354 -41 378 -8 12 -27 26 -43 32
-34 12 -35 12 -63 -2z"/>
<path d="M1552 4229 c-55 -27 -97 -79 -112 -137 -22 -90 15 -186 107 -280 94
-95 127 -200 167 -522 9 -69 30 -200 47 -290 22 -119 33 -218 39 -355 24 -492
81 -890 153 -1060 31 -74 91 -156 145 -197 93 -71 235 -128 371 -149 l79 -12
-5 -161 c-6 -191 7 -287 67 -469 22 -67 38 -122 37 -123 -1 -1 -44 -6 -95 -12
-82 -8 -97 -13 -123 -38 -64 -61 -23 -145 78 -158 82 -11 201 21 252 67 58 54
64 123 20 234 -17 42 -42 124 -56 182 -23 91 -26 127 -26 251 1 80 5 161 10
180 9 33 11 35 49 32 21 -1 240 -5 485 -8 l445 -6 -13 -61 c-32 -153 5 -332
101 -496 50 -85 48 -91 -21 -91 -125 -1 -183 -35 -183 -108 0 -80 89 -125 202
-102 136 26 210 98 210 201 0 49 -1 52 -111 250 -22 40 -36 85 -48 157 -15 94
-15 106 0 168 9 37 22 73 28 80 7 8 31 14 58 14 151 0 523 96 686 177 183 90
335 286 396 508 86 317 -149 704 -460 757 -72 12 -124 6 -311 -37 -97 -22
-343 -31 -448 -15 -243 35 -419 88 -595 177 -306 156 -462 320 -837 879 -139
207 -166 241 -282 356 -134 132 -235 208 -303 227 -66 18 -155 14 -203 -10z
m199 -162 c46 -28 140 -110 238 -207 53 -53 122 -143 229 -301 453 -668 665
-864 1102 -1022 123 -44 312 -93 420 -108 152 -21 428 -1 575 41 83 24 184 26
246 5 109 -37 243 -212 279 -364 44 -187 -94 -455 -291 -564 -103 -57 -411
-147 -593 -172 -129 -18 -950 -23 -1108 -6 -57 6 -161 15 -233 20 -329 25
-477 126 -544 371 -42 153 -76 474 -90 840 -9 220 -12 249 -55 460 -25 124
-50 266 -56 315 -35 281 -81 412 -186 526 -79 86 -95 133 -61 177 16 20 88 14
128 -11z"/>
<path d="M2452 2554 c-49 -34 -12 -124 51 -124 19 0 31 8 42 30 21 40 19 57
-10 85 -28 29 -51 31 -83 9z"/>
<path d="M2902 2234 c-31 -22 -26 -70 10 -97 33 -25 70 -17 86 18 17 37 15 51
-10 75 -26 24 -56 26 -86 4z"/>
<path d="M2673 4242 c-12 -2 -34 -17 -48 -33 -45 -55 -30 -113 41 -151 94 -50
302 -108 388 -108 49 0 96 41 96 85 0 62 -24 78 -223 143 -189 63 -217 70
-254 64z"/>
<path d="M5225 3972 c-106 -37 -191 -122 -216 -216 -6 -23 -9 -77 -7 -121 3
-64 10 -91 32 -131 64 -117 152 -174 274 -174 142 0 265 70 331 190 35 62 36
69 36 165 0 77 -4 108 -18 132 -30 57 -76 101 -142 137 -59 34 -69 36 -152 36
-57 -1 -106 -7 -138 -18z m134 -283 c37 -13 39 -22 9 -43 -32 -23 -47 -20 -59
11 -8 23 -2 40 17 43 1 0 15 -5 33 -11z"/>
<path d="M4235 3751 c-113 -29 -208 -126 -240 -246 -29 -108 1 -214 81 -285
63 -55 116 -73 198 -68 113 8 209 68 259 162 47 90 18 285 -53 356 -64 64
-173 100 -245 81z m67 -310 c-7 -19 -22 -31 -39 -31 -20 0 -15 28 8 51 16 16
23 18 29 9 5 -7 6 -20 2 -29z"/>
<path d="M477 2013 c-4 -3 -7 -19 -7 -34 0 -23 11 -36 60 -69 69 -47 216 -120
241 -120 34 0 49 12 49 41 0 26 -8 32 -87 70 -49 22 -118 59 -155 80 -65 38
-88 46 -101 32z"/>
<path d="M5342 1088 c-40 -44 -66 -146 -51 -201 14 -53 44 -77 94 -77 52 0 90
36 111 105 25 86 11 160 -35 185 -35 18 -96 12 -119 -12z"/>
</g>
</svg>
