<?xml version="1.0" standalone="no"?>
<!DOCTYPE svg PUBLIC "-//W3C//DTD SVG 20010904//EN"
 "http://www.w3.org/TR/2001/REC-SVG-20010904/DTD/svg10.dtd">
<svg version="1.0" xmlns="http://www.w3.org/2000/svg"
 width="600.000000pt" height="600.000000pt" viewBox="0 0 600.000000 600.000000"
 preserveAspectRatio="xMidYMid meet">
<metadata>
Created by potrace 1.15, written by Peter Selinger 2001-2017
</metadata>
<g transform="translate(0.000000,600.000000) scale(0.100000,-0.100000)"
fill="#16364b" stroke="none">
<path d="M3083 5640 c-61 -37 -90 -110 -68 -174 17 -48 111 -171 167 -217 44
-36 108 -80 252 -172 42 -27 88 -64 102 -83 25 -32 26 -35 10 -59 -18 -27
-100 -84 -287 -198 -109 -66 -133 -77 -172 -77 -136 0 -411 -156 -454 -257
-19 -47 -16 -127 7 -172 36 -73 103 -112 213 -127 56 -8 126 22 148 63 19 34
16 105 -4 137 -16 24 -16 26 4 36 16 9 30 8 62 -5 25 -10 53 -14 73 -11 17 4
100 50 183 104 83 53 197 126 253 162 123 77 204 151 244 223 26 47 29 61 29
142 0 82 -3 96 -32 152 -47 90 -128 171 -298 298 -84 62 -176 140 -205 173
-29 33 -64 65 -77 71 -38 18 -114 13 -150 -9z"/>
<path d="M1150 5346 c-90 -33 -140 -65 -208 -132 -119 -119 -185 -285 -183
-469 0 -133 38 -251 108 -343 91 -120 267 -84 281 57 4 43 -1 60 -32 120 -45
88 -54 154 -32 241 29 114 96 190 210 241 61 27 96 70 96 120 0 80 -51 147
-128 169 -47 13 -69 12 -112 -4z"/>
<path d="M1772 5343 c-52 -25 -75 -66 -82 -147 -6 -65 -13 -81 -82 -199 -83
-140 -116 -236 -103 -304 17 -92 78 -159 172 -188 77 -25 262 -16 391 18 110
30 135 45 162 97 26 51 25 85 -2 140 -18 34 -35 51 -71 69 l-48 24 -97 -21
c-138 -31 -172 -35 -172 -25 0 5 28 56 62 114 80 135 108 202 108 264 0 127
-128 212 -238 158z"/>
<path d="M4562 4710 c-20 -12 -41 -39 -54 -68 -18 -41 -20 -52 -9 -92 7 -28
24 -57 46 -77 l34 -32 -29 -29 c-52 -52 -58 -132 -16 -197 22 -34 111 -72 191
-83 187 -25 371 42 432 157 29 55 31 138 4 196 -24 54 -103 125 -175 159 -76
36 -232 76 -321 82 -59 5 -75 2 -103 -16z"/>
<path d="M1850 4275 c-134 -27 -255 -84 -358 -168 -59 -48 -82 -89 -82 -145 0
-75 44 -132 119 -152 51 -14 92 0 149 51 26 23 81 58 122 78 71 34 81 36 175
36 118 1 156 17 192 81 46 80 21 172 -57 212 -52 26 -152 29 -260 7z"/>
<path d="M2540 3755 c-98 -21 -211 -62 -238 -88 -58 -54 -69 -137 -27 -199 51
-75 100 -84 242 -47 59 15 134 28 167 29 l58 0 -6 -37 c-10 -63 -94 -217 -229
-423 -70 -107 -147 -222 -170 -254 -37 -51 -42 -66 -42 -112 0 -57 18 -90 69
-128 36 -27 120 -29 159 -3 15 9 68 79 119 155 50 75 130 191 178 257 158 220
196 297 226 454 20 105 13 171 -27 250 -32 64 -72 100 -147 133 -60 27 -235
34 -332 13z"/>
<path d="M4022 3736 c-44 -14 -104 -55 -134 -91 -29 -33 -51 -113 -46 -164 11
-108 93 -224 200 -281 54 -29 75 -35 150 -38 79 -4 93 -2 142 22 156 77 233
255 152 353 -12 15 -27 46 -34 68 -16 56 -64 102 -126 121 -70 22 -248 28
-304 10z"/>
<path d="M1144 3600 c-87 -18 -262 -107 -327 -169 -135 -125 -70 -341 103
-341 23 0 55 7 71 16 17 8 33 13 36 11 2 -3 -23 -90 -55 -193 -137 -431 -185
-620 -186 -726 -1 -71 1 -79 30 -115 41 -51 96 -80 180 -94 62 -11 73 -10 104
6 63 32 337 329 477 516 72 96 149 194 171 219 39 43 41 44 42 19 0 -38 -86
-521 -124 -694 -57 -258 -68 -313 -77 -385 -13 -104 -2 -146 51 -194 36 -32
46 -36 96 -36 99 0 163 65 164 165 0 48 32 217 90 475 101 452 112 514 117
695 3 105 1 193 -6 230 -15 80 -53 155 -93 185 -28 21 -44 25 -108 25 -70 0
-79 -3 -130 -37 -98 -66 -302 -283 -411 -438 -23 -33 -44 -59 -45 -57 -6 5 47
155 115 329 99 255 110 341 56 448 -60 119 -186 170 -341 140z"/>
<path d="M3563 3304 c-100 -37 -173 -140 -214 -303 -25 -98 -22 -155 11 -201
46 -64 148 -80 216 -34 26 18 60 29 108 35 74 9 166 46 204 82 119 111 66 318
-103 404 -63 32 -160 40 -222 17z"/>
<path d="M4723 2982 c-68 -37 -103 -110 -103 -215 0 -86 21 -154 77 -254 70
-127 135 -174 215 -159 74 14 138 79 138 140 0 38 -32 104 -69 142 -15 16 -38
49 -51 74 -21 40 -22 49 -10 92 21 84 -9 153 -80 182 -51 20 -77 20 -117 -2z"/>
<path d="M2880 2574 c-104 -20 -457 -179 -514 -232 -38 -36 -56 -81 -56 -142
0 -89 46 -151 133 -180 52 -17 87 -8 219 54 104 49 276 116 299 116 12 0 -30
-114 -122 -327 -86 -199 -93 -236 -60 -308 49 -108 150 -150 249 -105 51 23
65 46 155 250 154 349 193 477 184 597 -9 122 -63 199 -177 252 -48 22 -70 26
-170 27 -63 1 -126 0 -140 -2z"/>
<path d="M4420 2327 c-113 -59 -147 -143 -121 -299 4 -27 6 -50 4 -52 -2 -2
-52 12 -111 32 -97 32 -118 35 -227 36 -117 1 -122 0 -187 -32 -78 -38 -138
-100 -179 -185 -44 -94 -50 -161 -41 -452 9 -289 10 -294 81 -358 91 -82 216
-70 313 30 59 61 68 100 68 304 0 98 4 180 8 183 8 5 79 -12 195 -45 41 -11
63 -11 156 2 241 35 366 146 379 335 5 75 -9 206 -34 316 -18 78 -73 149 -139
179 -47 22 -129 24 -165 6z"/>
<path d="M2150 1845 c-61 -19 -109 -71 -125 -133 -12 -46 -9 -102 8 -129 3 -5
26 -111 52 -237 49 -243 90 -375 135 -441 56 -82 174 -169 332 -245 74 -36 90
-41 148 -39 63 2 68 0 170 -60 212 -125 362 -138 545 -48 110 53 155 112 155
199 0 92 -58 163 -154 189 -52 14 -99 6 -178 -31 -63 -29 -67 -30 -107 -17
-39 14 -144 73 -224 126 -56 36 -120 117 -146 182 -45 114 -119 169 -227 169
l-60 0 -32 150 c-42 196 -67 272 -98 310 -49 57 -120 78 -194 55z"/>
</g>
</svg>
