<?xml version="1.0" standalone="no"?>
<!DOCTYPE svg PUBLIC "-//W3C//DTD SVG 20010904//EN"
 "http://www.w3.org/TR/2001/REC-SVG-20010904/DTD/svg10.dtd">
<svg version="1.0" xmlns="http://www.w3.org/2000/svg"
 width="600.000000pt" height="600.000000pt" viewBox="0 0 600.000000 600.000000"
 preserveAspectRatio="xMidYMid meet">
<metadata>
Created by potrace 1.15, written by Peter Selinger 2001-2017
</metadata>
<g transform="translate(0.000000,600.000000) scale(0.100000,-0.100000)"
fill="#16364b" stroke="none">
<path d="M1544 5761 c-27 -12 -267 -266 -313 -332 -63 -90 -43 -173 49 -200
52 -16 111 3 361 119 170 77 213 102 225 124 21 40 17 73 -12 107 -37 44 -80
49 -148 18 -31 -14 -56 -23 -56 -21 0 3 9 17 20 31 60 77 -35 193 -126 154z"/>
<path d="M2346 5409 c-25 -29 -26 -36 -26 -148 0 -325 -57 -550 -164 -649 -25
-23 -76 -57 -114 -76 -79 -40 -102 -65 -102 -114 0 -44 14 -68 50 -87 45 -23
71 -19 170 31 250 125 354 372 362 857 l3 158 -33 30 c-25 23 -42 29 -76 29
-37 0 -48 -5 -70 -31z"/>
<path d="M3517 5320 c-56 -45 -59 -130 -8 -234 101 -202 302 -285 366 -150 14
31 15 43 5 82 -28 111 -156 268 -246 302 -68 25 -85 25 -117 0z"/>
<path d="M3008 5136 c-125 -34 -220 -156 -221 -285 -1 -110 60 -176 161 -174
70 0 197 62 230 112 55 83 68 231 25 289 -43 58 -117 80 -195 58z"/>
<path d="M4728 4741 l-33 -29 2 -114 c2 -140 24 -251 68 -345 44 -94 85 -144
145 -177 190 -104 376 135 288 371 -27 74 -105 152 -251 251 -128 85 -164 92
-219 43z"/>
<path d="M2750 4240 c-104 -16 -176 -58 -216 -125 -90 -155 21 -347 211 -363
116 -9 232 41 362 154 94 83 117 169 62 238 -28 35 -58 49 -159 74 -105 25
-188 32 -260 22z"/>
<path d="M1084 4120 c-31 -12 -72 -66 -80 -105 -3 -18 -1 -50 6 -69 18 -54 56
-80 141 -95 41 -8 90 -21 108 -31 l35 -17 -30 -16 c-52 -27 -136 -46 -238 -56
-94 -8 -102 -11 -127 -39 -54 -61 -43 -147 24 -196 57 -42 256 -31 402 21 172
62 255 165 242 303 -9 108 -72 187 -192 245 -113 54 -237 77 -291 55z"/>
<path d="M4300 3778 c-113 -11 -194 -51 -264 -128 -116 -129 -116 -307 0 -410
110 -96 272 -104 386 -17 88 66 161 208 188 363 15 90 -9 141 -79 171 -47 20
-153 30 -231 21z m-10 -286 c0 -9 -25 -33 -47 -46 -21 -12 -24 13 -3 34 20 20
50 27 50 12z"/>
<path d="M5204 3691 c-119 -34 -211 -108 -262 -211 -24 -49 -27 -67 -27 -155
0 -92 2 -104 30 -154 127 -230 430 -204 548 47 28 60 31 77 31 157 0 71 -5
100 -22 138 -26 58 -124 164 -169 183 -40 17 -53 17 -129 -5z m46 -310 c0 -5
-9 -19 -19 -32 -26 -32 -49 -14 -25 19 15 22 44 30 44 13z"/>
<path d="M1641 3687 c-54 -27 -66 -60 -65 -170 1 -122 23 -191 81 -251 68 -70
144 -85 219 -41 163 96 75 400 -134 459 -69 19 -70 19 -101 3z"/>
<path d="M3444 3386 c-46 -20 -108 -100 -165 -211 -41 -81 -50 -106 -45 -134
6 -41 30 -69 75 -88 31 -13 39 -12 95 8 77 29 133 85 175 172 56 117 52 201
-12 245 -37 25 -77 28 -123 8z"/>
<path d="M2625 3114 c-22 -2 -120 -11 -217 -19 -219 -19 -335 -47 -476 -116
-59 -28 -168 -80 -243 -114 -282 -128 -418 -263 -510 -500 -65 -167 -74 -335
-24 -477 50 -142 99 -204 315 -391 85 -74 190 -174 234 -223 123 -137 213
-205 332 -250 193 -72 455 -44 693 75 462 231 669 371 869 591 104 114 188
235 223 321 32 77 32 208 1 303 -53 160 -147 312 -256 413 -95 89 -138 118
-391 254 -172 92 -396 146 -550 133z m82 -414 c94 -8 114 -14 254 -75 183 -79
268 -133 374 -240 91 -90 115 -132 115 -201 0 -66 -36 -118 -173 -251 -159
-154 -330 -278 -584 -424 -23 -13 -68 -40 -100 -60 -153 -93 -295 -121 -408
-79 -51 19 -73 36 -145 113 -135 144 -308 316 -398 396 -107 94 -126 131 -127
236 0 67 5 90 28 140 48 103 135 179 267 232 41 17 138 58 215 92 184 79 295
111 425 120 148 11 144 11 257 1z"/>
<path d="M423 2246 c-66 -29 -70 -83 -20 -237 63 -191 138 -314 254 -419 84
-75 125 -94 203 -95 74 0 105 17 138 75 80 140 -15 344 -238 510 -103 76 -250
167 -280 174 -14 3 -39 -1 -57 -8z m349 -470 l22 -31 -28 25 c-15 14 -33 34
-39 45 -9 18 -9 19 7 6 9 -8 27 -28 38 -45z"/>
<path d="M4604 1771 c-18 -11 -35 -24 -38 -30 -5 -8 -16 -6 -36 4 -64 33 -153
7 -185 -54 -8 -17 -15 -53 -15 -80 0 -60 33 -236 61 -327 64 -208 262 -213
338 -9 12 32 36 135 53 231 31 167 32 174 15 209 -33 69 -127 96 -193 56z"/>
</g>
</svg>
