<?xml version="1.0" standalone="no"?>
<!DOCTYPE svg PUBLIC "-//W3C//DTD SVG 20010904//EN"
 "http://www.w3.org/TR/2001/REC-SVG-20010904/DTD/svg10.dtd">
<svg version="1.0" xmlns="http://www.w3.org/2000/svg"
 width="600.000000pt" height="600.000000pt" viewBox="0 0 600.000000 600.000000"
 preserveAspectRatio="xMidYMid meet">
<metadata>
Created by potrace 1.15, written by Peter Selinger 2001-2017
</metadata>
<g transform="translate(0.000000,600.000000) scale(0.100000,-0.100000)"
fill="#16364b" stroke="none">
<path d="M2742 5559 c-38 -19 -48 -32 -88 -115 -119 -245 -77 -433 112 -503
52 -20 74 -22 206 -19 82 2 148 0 148 -3 0 -3 -36 -36 -80 -73 -102 -86 -240
-232 -347 -367 -127 -159 -135 -173 -140 -226 -4 -42 -1 -54 29 -98 18 -27 47
-57 63 -66 18 -10 84 -24 165 -34 159 -19 419 -65 567 -100 127 -30 152 -31
203 -5 97 49 106 198 18 262 -36 25 -348 90 -522 109 -61 6 -114 15 -119 18
-13 13 181 208 332 333 203 169 233 202 252 285 30 127 -36 203 -216 248 -55
14 -109 17 -252 17 -118 -1 -183 2 -183 9 0 6 16 49 36 96 47 114 40 164 -29
217 -48 37 -102 42 -155 15z"/>
<path d="M1627 5248 c-46 -10 -124 -49 -202 -101 -82 -55 -239 -215 -302 -307
-59 -87 -136 -237 -152 -295 -21 -80 19 -162 94 -190 42 -17 50 -17 172 3 122
20 222 28 306 24 47 -2 47 -6 3 -147 -64 -210 -66 -258 -10 -316 l26 -27 -69
-21 c-112 -33 -167 -110 -143 -200 11 -41 51 -88 88 -102 45 -17 89 -8 292 60
365 123 450 177 450 291 0 78 -51 139 -123 147 -36 4 -60 -2 -140 -37 -52 -23
-100 -41 -106 -39 -6 3 8 57 34 136 25 72 49 163 55 201 22 156 -39 281 -165
338 -58 27 -209 49 -272 40 -25 -3 -43 -2 -43 4 0 15 142 153 191 187 24 17
67 42 95 56 176 89 110 336 -79 295z"/>
<path d="M4330 4631 c-72 -19 -267 -100 -317 -131 -38 -23 -73 -86 -73 -132 0
-42 27 -96 60 -120 50 -37 87 -34 204 16 114 49 222 83 232 74 3 -4 -37 -96
-89 -205 -174 -363 -179 -376 -180 -419 -1 -63 18 -96 89 -157 74 -64 70 -63
299 -72 154 -6 282 -21 305 -35 22 -13 0 -68 -125 -320 -126 -253 -136 -290
-95 -357 26 -43 93 -77 137 -70 70 12 82 30 215 319 69 150 135 304 147 342
55 179 -6 303 -175 356 -71 22 -228 46 -354 56 -47 3 -91 7 -97 9 -8 3 25 78
93 212 146 289 173 409 116 519 -62 121 -211 164 -392 115z"/>
<path d="M3708 3641 c-76 -24 -118 -52 -172 -112 -71 -79 -84 -161 -35 -223
28 -35 90 -66 134 -66 48 0 111 34 130 69 17 34 51 61 77 61 27 0 23 -60 -11
-157 -49 -143 -68 -166 -174 -217 -166 -82 -227 -141 -227 -224 0 -74 52 -133
132 -147 52 -10 90 1 150 42 68 47 150 83 277 122 121 38 170 66 201 116 45
73 36 157 -27 226 l-34 37 17 64 c10 35 17 98 17 140 1 66 -4 86 -29 135 -35
68 -93 116 -166 138 -69 20 -189 18 -260 -4z"/>
<path d="M2435 3545 c-33 -9 -124 -47 -202 -85 -123 -60 -147 -76 -170 -111
-67 -101 -12 -230 104 -246 34 -4 57 2 130 36 155 71 296 110 351 96 24 -6 24
-8 18 -66 -10 -81 -47 -191 -102 -301 -54 -107 -60 -155 -26 -211 40 -64 139
-87 212 -49 62 33 172 242 215 407 12 44 19 108 19 170 1 94 -1 105 -32 167
-39 79 -92 130 -181 171 -59 28 -77 32 -171 34 -67 2 -127 -3 -165 -12z"/>
<path d="M1151 3229 c-106 -18 -232 -92 -270 -160 -19 -33 -22 -51 -19 -94 9
-108 90 -180 194 -173 l54 3 0 -40 c0 -22 -12 -137 -26 -255 -51 -418 -29
-688 64 -760 48 -38 94 -45 167 -25 79 21 93 37 177 190 99 182 250 399 406
583 l45 54 19 -49 c17 -42 19 -66 14 -198 -5 -162 -16 -230 -76 -502 -56 -248
-57 -262 -30 -317 28 -58 72 -86 137 -86 37 0 60 7 86 24 l36 25 -5 -28 c-8
-39 21 -230 56 -378 54 -226 137 -407 225 -494 71 -70 134 -105 214 -120 56
-10 76 -9 131 5 79 20 173 72 220 121 19 20 56 45 82 57 60 26 72 41 147 178
75 137 161 260 215 306 60 52 88 47 231 -36 149 -87 201 -104 311 -98 68 4 94
10 147 37 79 40 161 119 183 176 9 25 33 57 59 78 86 72 109 181 60 285 -34
74 -55 148 -55 198 l0 43 51 15 c29 9 102 20 163 26 215 21 335 66 417 158 90
102 132 272 98 397 -23 84 -143 165 -243 165 -115 0 -208 -88 -223 -210 l-6
-48 -86 -6 c-355 -27 -503 -89 -569 -238 -38 -86 -47 -147 -45 -303 1 -140 10
-205 50 -372 3 -13 1 -23 -4 -23 -5 0 -65 34 -134 75 -178 108 -284 137 -410
115 -196 -35 -352 -191 -551 -550 -33 -60 -66 -110 -72 -110 -7 0 -33 -14 -59
-30 -26 -17 -52 -30 -57 -30 -17 0 -61 108 -89 220 -16 63 -39 182 -50 264
-22 149 -35 191 -75 234 -59 65 -173 83 -240 37 -46 -31 -50 -31 -42 0 25 98
79 379 91 473 28 215 16 498 -29 643 -43 141 -124 213 -237 212 -62 -1 -122
-23 -193 -72 -57 -39 -196 -181 -261 -265 -53 -69 -71 -81 -61 -42 12 47 28
372 21 436 -10 105 -57 192 -126 236 -36 22 -139 56 -164 53 -5 -1 -34 -5 -64
-10z"/>
<path d="M3025 2591 c-153 -27 -465 -119 -501 -146 -138 -105 -33 -335 152
-335 16 0 110 17 209 39 184 40 272 55 290 49 14 -4 8 -31 -32 -133 -42 -108
-42 -164 1 -220 94 -122 281 -87 354 67 44 91 80 211 94 305 10 70 9 89 -5
143 -31 109 -84 171 -187 219 -74 34 -229 39 -375 12z"/>
</g>
</svg>
