<?xml version="1.0" standalone="no"?>
<!DOCTYPE svg PUBLIC "-//W3C//DTD SVG 20010904//EN"
 "http://www.w3.org/TR/2001/REC-SVG-20010904/DTD/svg10.dtd">
<svg version="1.0" xmlns="http://www.w3.org/2000/svg"
 width="600.000000pt" height="600.000000pt" viewBox="0 0 600.000000 600.000000"
 preserveAspectRatio="xMidYMid meet">
<metadata>
Created by potrace 1.15, written by Peter Selinger 2001-2017
</metadata>
<g transform="translate(0.000000,600.000000) scale(0.100000,-0.100000)"
fill="#16364b" stroke="none">
<path d="M1435 5739 c-60 -26 -168 -69 -239 -94 -150 -52 -173 -65 -191 -107
-26 -63 15 -115 102 -129 62 -10 294 -10 446 0 97 7 122 12 138 27 26 27 37
72 27 110 -9 37 -60 66 -99 58 l-24 -5 26 23 c55 48 60 99 17 146 -32 33 -78
27 -203 -29z"/>
<path d="M2356 5397 c-21 -21 -23 -35 -29 -163 -21 -435 -85 -603 -266 -698
-99 -52 -120 -90 -86 -155 27 -53 75 -55 176 -4 239 119 350 377 353 826 l1
169 -28 24 c-37 32 -90 32 -121 1z"/>
<path d="M3519 5308 c-81 -68 -58 -198 55 -313 76 -77 115 -98 184 -99 48 -1
57 2 83 32 35 39 37 78 9 139 -44 98 -122 193 -183 224 -50 26 -127 35 -148
17z"/>
<path d="M2995 5127 c-100 -48 -175 -169 -175 -283 0 -104 54 -164 147 -164
59 0 115 25 169 76 69 65 105 224 70 307 -35 83 -119 108 -211 64z m40 -216
c-16 -32 -35 -41 -35 -17 0 19 43 72 48 58 2 -6 -4 -24 -13 -41z"/>
<path d="M4754 4744 c-52 -25 -59 -51 -57 -208 1 -163 22 -261 76 -360 45 -82
97 -118 174 -123 198 -12 244 224 94 477 -72 120 -189 231 -243 230 -7 0 -27
-7 -44 -16z"/>
<path d="M2645 4211 c-148 -68 -149 -249 -2 -348 113 -76 278 -65 417 29 76
50 100 87 100 152 0 41 -5 53 -33 81 -18 18 -48 37 -67 43 -19 5 -75 22 -124
36 -110 32 -230 35 -291 7z"/>
<path d="M1092 4100 c-27 -26 -32 -39 -32 -77 0 -37 -5 -50 -29 -72 -59 -55
-53 -113 18 -182 182 -176 444 -128 444 81 0 66 -25 119 -80 172 -52 50 -164
101 -233 106 -52 4 -59 2 -88 -28z"/>
<path d="M5240 3864 c-105 -28 -182 -91 -224 -183 -29 -66 -28 -185 4 -266 30
-78 115 -165 180 -184 93 -28 206 -9 279 46 52 40 69 61 103 131 43 88 50 201
18 286 -24 62 -81 129 -142 166 -40 24 -136 26 -218 4z m100 -297 c0 -16 -31
-47 -47 -47 -17 0 -18 57 0 63 18 6 47 -4 47 -16z"/>
<path d="M4193 3751 c-134 -46 -231 -171 -233 -297 -1 -119 89 -243 204 -278
112 -35 232 0 319 93 77 82 117 188 117 307 0 100 -44 147 -165 178 -78 21
-178 20 -242 -3z m115 -283 c-18 -27 -58 -37 -58 -14 0 17 27 35 54 36 17 0
17 -2 4 -22z"/>
<path d="M3444 3380 c-38 -15 -95 -93 -150 -205 -30 -60 -54 -117 -54 -126 0
-29 49 -78 84 -85 123 -23 308 241 256 365 -19 47 -85 72 -136 51z"/>
<path d="M1640 3166 c-387 -45 -569 -100 -658 -201 -105 -119 -158 -342 -118
-493 42 -157 191 -292 391 -354 130 -40 207 -81 257 -137 49 -55 111 -183 167
-345 112 -321 253 -474 501 -542 77 -21 355 -25 455 -6 33 7 159 18 281 27
237 16 656 70 862 111 289 57 406 121 635 344 246 238 373 533 339 787 -21
151 -66 237 -186 351 -169 160 -328 232 -512 232 -102 0 -177 -27 -320 -112
-214 -128 -257 -143 -466 -152 -267 -12 -414 36 -723 239 -344 227 -571 289
-905 251z m227 -402 c144 -25 274 -78 493 -199 381 -210 460 -242 657 -265 53
-7 108 -16 122 -22 40 -15 144 -11 276 12 169 29 256 59 444 153 148 74 170
82 221 82 65 -1 111 -24 207 -104 82 -69 101 -121 82 -224 -30 -171 -129 -312
-314 -453 -92 -70 -203 -118 -365 -158 -152 -37 -288 -52 -620 -71 -212 -11
-324 -22 -400 -38 -78 -16 -140 -22 -240 -22 -121 0 -141 3 -187 24 -98 44
-152 127 -228 353 -85 251 -166 375 -321 492 -106 79 -194 126 -288 155 -88
27 -139 56 -159 91 -52 87 25 168 180 192 181 28 292 28 440 2z"/>
<path d="M430 2120 c-27 -27 -26 -81 4 -144 13 -28 41 -87 62 -131 51 -110
137 -197 218 -220 101 -29 181 5 204 88 33 118 -81 253 -330 390 -76 43 -127
48 -158 17z"/>
<path d="M5074 1383 c-12 -2 -30 -13 -40 -24 -10 -11 -30 -19 -50 -19 -23 0
-44 -9 -66 -29 -29 -26 -32 -34 -32 -83 2 -95 53 -215 108 -251 33 -22 100
-22 137 0 53 32 89 140 89 268 0 49 -5 68 -22 90 -19 25 -76 57 -95 54 -4 -1
-18 -4 -29 -6z"/>
</g>
</svg>
