<?xml version="1.0" standalone="no"?>
<!DOCTYPE svg PUBLIC "-//W3C//DTD SVG 20010904//EN"
 "http://www.w3.org/TR/2001/REC-SVG-20010904/DTD/svg10.dtd">
<svg version="1.0" xmlns="http://www.w3.org/2000/svg"
 width="600.000000pt" height="600.000000pt" viewBox="0 0 600.000000 600.000000"
 preserveAspectRatio="xMidYMid meet">
<metadata>
Created by potrace 1.15, written by Peter Selinger 2001-2017
</metadata>
<g transform="translate(0.000000,600.000000) scale(0.100000,-0.100000)"
fill="#16364b" stroke="none">
<path d="M2065 5812 c-16 -11 -57 -50 -90 -88 -33 -38 -117 -133 -187 -212
-224 -252 -289 -351 -296 -453 -4 -49 0 -65 21 -101 61 -104 170 -115 362 -35
647 270 669 283 667 392 -1 72 -42 129 -116 160 -51 22 -76 15 -228 -61 -71
-35 -128 -62 -128 -59 0 3 37 48 83 99 106 120 135 162 142 211 8 55 -27 123
-75 147 -46 23 -117 23 -155 0z"/>
<path d="M3029 5667 c-76 -51 -102 -144 -59 -214 24 -40 38 -47 147 -79 188
-54 336 -159 388 -275 28 -64 43 -165 31 -212 -10 -41 -68 -89 -172 -142 -54
-27 -107 -62 -118 -77 -51 -71 -22 -204 51 -235 46 -19 79 -12 172 32 272 131
392 309 363 539 -23 177 -97 321 -228 445 -98 93 -203 154 -348 203 -131 44
-179 47 -227 15z"/>
<path d="M965 5366 c-225 -56 -355 -235 -355 -486 0 -151 42 -251 150 -361 73
-74 132 -109 185 -109 111 0 186 125 141 234 -8 19 -38 51 -72 77 -160 120
-133 290 53 345 94 27 139 83 130 161 -12 107 -115 169 -232 139z"/>
<path d="M2775 4981 c-93 -24 -176 -96 -223 -190 -24 -49 -27 -68 -27 -151 0
-80 4 -103 24 -144 34 -68 91 -122 169 -159 56 -26 80 -31 167 -35 116 -5 160
8 197 61 26 36 35 116 18 157 -21 51 -62 72 -157 81 -95 10 -115 20 -111 58 3
24 6 25 60 22 99 -4 158 48 158 140 0 58 -30 106 -88 137 -46 26 -136 37 -187
23z"/>
<path d="M4765 4908 c-41 -22 -86 -74 -95 -110 -14 -50 3 -228 31 -321 56
-192 177 -313 324 -324 226 -18 366 228 257 450 -52 106 -149 187 -324 272
-95 46 -151 56 -193 33z"/>
<path d="M1900 4595 c-113 -32 -238 -134 -259 -211 -19 -73 13 -150 76 -179
58 -28 129 -17 188 28 80 61 109 58 152 -14 23 -38 82 -69 134 -69 61 0 106
30 131 88 19 41 20 52 9 92 -24 90 -120 204 -212 250 -56 29 -146 35 -219 15z"/>
<path d="M2906 3915 c-116 -40 -155 -150 -176 -495 -11 -170 -5 -279 16 -325
46 -99 199 -110 258 -17 23 36 24 44 29 279 l4 243 42 45 c38 41 41 49 41 100
0 60 -9 85 -44 123 -44 49 -111 67 -170 47z"/>
<path d="M1135 3865 c-176 -47 -238 -82 -275 -155 -40 -78 -15 -182 56 -236
34 -26 45 -29 115 -29 l78 0 -31 -55 c-102 -181 -154 -269 -227 -380 -152
-231 -241 -461 -219 -564 11 -53 70 -125 122 -150 46 -22 123 -21 161 3 17 10
104 85 195 167 272 244 613 533 631 534 9 0 -7 -111 -25 -175 -46 -161 -252
-684 -368 -935 -48 -103 -36 -181 35 -234 22 -16 43 -21 91 -21 92 0 120 25
190 168 53 110 251 591 323 787 102 277 113 619 25 729 -109 135 -294 82 -592
-169 -74 -63 -90 -72 -69 -40 80 123 176 283 197 329 72 155 11 355 -130 425
-68 34 -158 34 -283 1z"/>
<path d="M4326 3800 c-204 -32 -328 -102 -386 -217 -35 -67 -35 -185 -1 -260
29 -65 110 -143 173 -167 66 -25 176 -19 243 14 96 47 191 167 280 355 69 146
64 207 -23 258 -36 21 -196 31 -286 17z m-66 -335 c-25 -27 -50 -33 -50 -12 0
13 61 49 69 41 3 -2 -6 -15 -19 -29z"/>
<path d="M3444 3376 c-81 -38 -145 -136 -184 -282 -26 -102 -26 -152 3 -195
38 -58 77 -71 192 -66 156 6 249 56 301 163 56 115 28 263 -64 344 -73 65
-160 77 -248 36z"/>
<path d="M4892 2915 c-37 -16 -131 -110 -197 -198 -87 -115 -125 -232 -104
-321 25 -104 154 -189 263 -172 184 29 329 239 313 454 -6 82 -14 98 -90 177
-69 72 -119 88 -185 60z"/>
<path d="M4106 2525 c-84 -30 -150 -110 -162 -196 -5 -36 3 -70 39 -182 25
-75 43 -137 40 -137 -2 0 -44 14 -91 31 -105 38 -230 44 -296 15 -68 -29 -123
-82 -155 -149 -58 -120 -53 -200 35 -558 50 -206 59 -231 90 -267 110 -129
328 -103 390 47 20 49 17 115 -11 235 -14 58 -25 108 -25 111 0 15 32 2 46
-20 21 -32 109 -75 156 -75 80 0 224 68 296 140 131 132 131 288 0 690 -68
210 -71 216 -118 262 -69 66 -147 84 -234 53z"/>
<path d="M2905 2211 c-92 -25 -234 -85 -406 -171 l-139 -70 -24 39 c-46 72
-122 107 -213 98 -70 -7 -127 -42 -197 -118 -69 -77 -106 -148 -106 -206 0
-102 91 -193 193 -193 32 0 35 -3 41 -37 3 -21 6 -43 6 -50 0 -7 -28 -26 -63
-42 -162 -77 -260 -228 -274 -416 -12 -178 79 -384 246 -558 113 -117 251
-193 426 -233 109 -25 288 -25 370 0 137 41 337 172 377 246 53 100 -11 240
-124 271 -53 14 -96 5 -144 -28 -163 -112 -207 -129 -319 -120 -92 7 -170 36
-255 92 -123 82 -184 175 -185 283 0 55 3 66 23 83 31 24 51 14 115 -57 82
-91 166 -126 249 -103 87 23 138 87 138 174 0 63 -22 109 -80 171 -55 58 -83
112 -111 218 -24 86 -24 106 -2 106 10 0 121 49 248 110 126 60 242 112 257
116 l28 6 -16 -53 c-30 -101 -86 -234 -166 -392 -75 -146 -80 -161 -76 -206 7
-68 37 -121 90 -157 53 -36 100 -46 154 -34 74 17 105 53 203 241 102 195 174
400 194 551 25 199 -47 371 -182 431 -66 29 -186 33 -276 8z"/>
</g>
</svg>
