<?xml version="1.0" standalone="no"?>
<!DOCTYPE svg PUBLIC "-//W3C//DTD SVG 20010904//EN"
 "http://www.w3.org/TR/2001/REC-SVG-20010904/DTD/svg10.dtd">
<svg version="1.0" xmlns="http://www.w3.org/2000/svg"
 width="600.000000pt" height="600.000000pt" viewBox="0 0 600.000000 600.000000"
 preserveAspectRatio="xMidYMid meet">
<metadata>
Created by potrace 1.15, written by Peter Selinger 2001-2017
</metadata>
<g transform="translate(0.000000,600.000000) scale(0.100000,-0.100000)"
fill="#16364b" stroke="none">
<path d="M2885 5586 c-43 -19 -59 -40 -109 -146 -72 -154 -82 -259 -32 -366
56 -121 142 -164 343 -172 l132 -5 -103 -78 c-160 -122 -450 -401 -484 -466
-16 -30 -15 -88 3 -122 8 -16 35 -47 59 -68 51 -45 98 -58 451 -128 165 -33
227 -48 384 -90 41 -11 64 -12 91 -5 109 29 144 173 60 243 -50 43 -237 94
-529 147 -63 11 -117 22 -119 25 -15 15 175 173 356 297 220 151 282 219 282
308 0 79 -48 153 -125 192 -69 36 -135 48 -270 49 -71 1 -159 4 -195 8 -77 7
-77 6 -23 121 41 87 46 141 17 191 -41 70 -118 96 -189 65z"/>
<path d="M1505 5271 c-203 -96 -463 -418 -556 -690 -40 -115 -14 -212 66 -251
54 -26 63 -25 203 10 199 50 372 74 372 52 0 -5 -29 -74 -64 -153 -84 -192
-99 -239 -94 -303 4 -52 4 -53 -31 -72 -98 -53 -111 -195 -25 -263 50 -39 96
-44 187 -21 157 41 473 186 540 249 64 59 74 124 28 188 -63 87 -141 95 -267
27 -47 -26 -87 -44 -90 -42 -2 3 19 65 46 139 104 273 108 392 16 484 -75 74
-172 92 -394 71 l-94 -8 51 69 c71 98 186 204 268 247 79 42 106 78 106 141 0
54 -31 104 -81 133 -55 31 -113 29 -187 -7z"/>
<path d="M4497 4569 c-151 -20 -403 -127 -444 -188 -67 -100 -21 -216 90 -228
32 -4 66 4 140 32 141 53 227 76 227 62 0 -35 -114 -240 -248 -445 -63 -98
-76 -125 -80 -168 -5 -61 13 -102 60 -135 18 -13 39 -31 46 -41 31 -42 50 -47
362 -78 99 -10 210 -28 210 -34 0 -2 -8 -27 -19 -57 -22 -64 -84 -188 -181
-359 -67 -118 -71 -128 -66 -173 9 -84 68 -139 153 -141 65 -2 90 24 163 170
36 71 100 194 142 274 42 80 83 169 92 199 44 151 -6 282 -132 345 -64 32
-122 45 -295 66 -81 10 -151 20 -154 23 -3 3 17 43 45 89 72 121 168 316 198
404 32 97 35 192 6 255 -48 108 -152 150 -315 128z"/>
<path d="M3722 3652 c-97 -35 -152 -109 -152 -205 0 -66 27 -111 85 -144 66
-37 168 -23 195 26 21 40 32 23 28 -43 -3 -46 -12 -80 -34 -121 l-30 -58 -89
-29 c-115 -37 -187 -79 -257 -148 -40 -41 -58 -67 -63 -93 -17 -88 23 -156
108 -183 69 -22 119 -8 188 51 61 52 123 77 241 100 45 9 93 18 105 21 32 6
94 63 109 101 19 44 17 82 -5 123 -17 33 -18 37 -1 85 67 197 -10 419 -174
502 -68 35 -180 41 -254 15z"/>
<path d="M2445 3570 c-87 -18 -234 -83 -328 -144 -120 -78 -109 -231 20 -288
56 -25 85 -20 197 33 105 49 235 83 282 74 32 -6 34 -8 34 -49 0 -79 -68 -244
-179 -431 -52 -88 -55 -133 -11 -194 l31 -42 -32 -39 c-37 -45 -49 -115 -30
-173 23 -67 122 -137 196 -137 11 0 82 18 157 40 146 42 306 75 316 66 10 -11
-16 -102 -58 -197 -23 -55 -40 -110 -40 -132 0 -69 43 -142 102 -173 31 -16
115 -19 151 -5 48 19 99 75 139 155 135 269 155 479 58 621 -38 55 -66 79
-128 110 -107 54 -259 54 -467 0 -52 -14 -97 -25 -99 -25 -3 0 40 89 95 198
57 112 106 225 115 262 22 90 15 189 -19 261 -34 70 -118 151 -194 187 -50 23
-72 27 -163 29 -58 1 -123 -2 -145 -7z"/>
<path d="M1095 3282 c-107 -37 -241 -137 -274 -204 -47 -99 -3 -209 101 -253
42 -17 105 -20 142 -5 14 5 26 7 26 5 0 -3 -18 -94 -40 -203 -43 -217 -60
-372 -60 -563 0 -202 14 -249 94 -313 34 -28 46 -31 119 -35 134 -6 126 -14
312 314 60 105 134 228 166 275 70 102 186 250 197 250 4 0 16 -27 26 -59 31
-98 19 -272 -39 -555 -38 -190 -46 -248 -46 -340 -1 -61 5 -124 11 -141 45
-117 202 -142 283 -46 15 18 27 40 28 49 1 22 23 -84 59 -289 31 -179 90 -373
141 -469 185 -347 571 -327 754 40 124 250 251 420 312 420 29 0 78 -30 193
-120 36 -28 94 -65 130 -83 59 -29 73 -32 160 -32 80 0 102 4 138 23 61 33
129 104 158 165 13 29 38 71 56 94 38 51 46 112 29 219 -18 109 -18 273 -1
284 30 18 117 21 268 10 124 -10 170 -10 217 0 125 26 208 87 261 195 31 63
37 86 41 162 10 167 -28 256 -135 316 -40 22 -70 31 -120 34 -59 4 -73 2 -121
-24 -62 -32 -101 -91 -101 -152 l0 -37 -147 -12 c-173 -14 -277 -38 -388 -92
-99 -48 -142 -83 -190 -156 -64 -96 -78 -157 -71 -314 3 -74 12 -164 20 -200
8 -36 13 -66 12 -68 -2 -1 -30 18 -62 43 -164 128 -309 164 -465 115 -172 -53
-323 -217 -519 -560 -36 -63 -72 -115 -79 -115 -22 0 -59 116 -86 268 -72 402
-81 435 -140 479 -34 25 -105 42 -146 34 -58 -10 -123 -58 -147 -107 l-22 -44
0 70 c0 39 7 115 16 170 44 287 55 372 64 506 12 170 3 279 -36 433 -34 135
-59 189 -106 231 -49 45 -79 56 -145 56 -66 0 -130 -28 -200 -87 -55 -47 -179
-197 -266 -321 -28 -40 -52 -71 -55 -69 -2 3 10 72 27 155 60 293 62 411 9
517 -64 129 -218 186 -363 136z"/>
</g>
</svg>
