<?xml version="1.0" standalone="no"?>
<!DOCTYPE svg PUBLIC "-//W3C//DTD SVG 20010904//EN"
 "http://www.w3.org/TR/2001/REC-SVG-20010904/DTD/svg10.dtd">
<svg version="1.0" xmlns="http://www.w3.org/2000/svg"
 width="600.000000pt" height="600.000000pt" viewBox="0 0 600.000000 600.000000"
 preserveAspectRatio="xMidYMid meet">
<metadata>
Created by potrace 1.15, written by Peter Selinger 2001-2017
</metadata>
<g transform="translate(0.000000,600.000000) scale(0.100000,-0.100000)"
fill="#16364b" stroke="none">
<path d="M2385 5468 c-41 -22 -68 -55 -96 -115 -76 -162 -91 -237 -65 -326 21
-72 53 -109 118 -137 48 -20 63 -22 153 -17 62 4 152 19 238 40 75 19 137 32
137 29 0 -8 -45 -65 -125 -157 -160 -183 -242 -316 -331 -533 -63 -154 -59
-237 14 -306 42 -39 94 -43 222 -17 171 34 353 51 552 51 l187 0 36 31 c45 40
62 95 46 149 -16 54 -55 97 -99 110 -67 18 -404 9 -579 -16 -28 -4 -43 -2 -43
4 0 22 75 138 164 254 310 405 317 416 319 508 2 131 -111 230 -262 230 -53 0
-109 -11 -320 -59 -51 -12 -96 -19 -99 -16 -3 3 4 25 16 49 29 56 28 119 -1
171 -38 67 -128 103 -182 73z"/>
<path d="M1715 5055 c-157 -34 -309 -126 -492 -299 -135 -127 -161 -183 -123
-262 35 -71 76 -92 227 -115 286 -43 355 -72 427 -179 39 -57 59 -77 94 -92
109 -49 213 34 200 157 -7 57 -68 156 -137 223 -57 55 -202 136 -266 148 -20
3 -32 11 -29 16 12 19 153 78 201 85 26 3 60 12 75 19 78 40 92 179 25 253
-26 27 -93 61 -122 60 -11 0 -47 -7 -80 -14z"/>
<path d="M4040 4817 c-151 -46 -329 -157 -356 -222 -31 -75 -7 -142 63 -176
60 -29 108 -20 194 36 75 51 184 95 231 95 l31 0 -6 -72 c-7 -91 -39 -191
-123 -381 -74 -168 -75 -177 -18 -264 42 -64 93 -104 142 -113 23 -3 108 7
227 27 105 19 231 35 280 36 l90 2 -1 -85 c-1 -96 -24 -195 -86 -370 -22 -63
-43 -129 -45 -147 -11 -69 39 -140 110 -157 40 -10 99 9 130 42 47 49 143 318
178 495 51 261 1 430 -149 504 -55 27 -62 28 -202 27 -82 -1 -186 -8 -240 -17
-52 -9 -96 -14 -98 -12 -2 2 14 52 37 112 54 145 71 221 71 330 0 150 -51 249
-156 303 -71 36 -200 39 -304 7z"/>
<path d="M2065 3934 c-103 -37 -256 -72 -403 -93 -169 -25 -211 -47 -247 -134
-30 -73 19 -157 102 -173 83 -16 326 23 583 92 124 33 170 56 198 98 29 43 32
113 5 159 -21 37 -93 77 -138 76 -16 0 -61 -12 -100 -25z"/>
<path d="M3708 3706 c-142 -50 -486 -256 -519 -310 -11 -18 -19 -50 -19 -74 0
-86 54 -142 137 -142 42 0 62 8 134 52 146 89 294 168 297 158 8 -24 -102
-330 -162 -448 -38 -75 -86 -202 -86 -225 1 -40 38 -106 72 -127 42 -27 117
-23 243 15 215 63 359 140 475 255 113 111 142 185 101 260 -26 49 -73 74
-138 74 -61 -1 -84 -14 -159 -89 -50 -51 -140 -112 -149 -103 -3 2 16 51 41
108 79 180 107 275 108 365 0 63 -4 89 -21 120 -65 123 -201 165 -355 111z"/>
<path d="M2380 3363 c-86 -7 -295 -45 -322 -59 -49 -26 -81 -78 -81 -137 -1
-93 55 -157 138 -157 22 0 96 11 165 25 117 23 249 33 263 19 7 -8 -19 -96
-49 -163 -29 -65 -31 -134 -5 -177 47 -78 158 -102 226 -50 40 31 62 69 99
178 111 323 -12 533 -308 526 -44 -1 -101 -3 -126 -5z"/>
<path d="M1185 3100 c-134 -44 -199 -173 -144 -288 22 -45 73 -86 122 -97 18
-5 29 -16 34 -33 6 -26 -2 -260 -16 -442 -10 -122 1 -244 30 -350 42 -150 101
-218 198 -228 66 -6 113 12 155 58 38 42 51 88 44 154 l-5 42 49 12 c66 15 99
41 132 104 50 94 153 242 202 291 47 48 48 49 57 25 11 -29 -9 -333 -27 -408
-8 -30 -21 -82 -30 -115 -9 -32 -16 -79 -16 -103 0 -151 185 -219 282 -104 57
68 113 419 113 712 0 94 -3 111 -28 165 -82 177 -275 254 -433 175 -88 -44
-168 -127 -322 -339 -16 -22 -17 -11 -17 250 0 244 -2 280 -19 333 -53 162
-202 238 -361 186z"/>
<path d="M4835 2949 c-95 -48 -149 -150 -143 -265 2 -42 -1 -58 -12 -65 -8 -4
-71 -35 -140 -67 -197 -94 -316 -210 -364 -352 -26 -81 -33 -256 -12 -345 22
-91 76 -201 132 -271 25 -31 44 -57 42 -58 -2 -1 -20 -9 -40 -18 -20 -10 -56
-34 -79 -55 -37 -34 -47 -38 -88 -36 -25 1 -80 9 -121 18 -41 9 -131 19 -200
22 -141 6 -211 -7 -310 -57 -108 -55 -267 -198 -365 -327 -21 -29 -47 -55 -57
-59 -9 -3 -43 -34 -73 -69 -96 -109 -165 -127 -278 -71 -108 53 -212 169 -296
331 -45 88 -91 128 -161 140 -118 20 -235 -96 -216 -215 8 -54 89 -209 154
-297 163 -218 373 -347 587 -360 54 -3 113 -1 149 7 74 15 198 78 275 140 33
27 74 56 93 66 51 25 65 41 136 149 74 113 150 193 208 223 70 35 117 35 282
2 179 -35 273 -38 363 -10 107 32 222 118 260 191 23 45 25 123 4 159 -20 35
-19 37 24 44 56 9 131 63 160 115 18 33 24 59 24 110 0 83 -18 126 -81 194
-64 68 -72 85 -72 151 0 51 2 56 34 75 19 12 89 44 156 71 67 27 147 64 177
82 153 91 222 260 193 469 -14 100 -30 143 -73 188 -67 71 -189 93 -272 50z"/>
<path d="M3295 2374 c-88 -13 -252 -50 -433 -98 -218 -57 -248 -72 -278 -143
-30 -70 -8 -179 47 -230 29 -26 90 -53 121 -53 13 0 93 21 178 46 210 61 373
101 453 109 l67 7 0 -46 c0 -61 19 -104 63 -143 66 -58 151 -67 224 -22 86 54
131 243 87 372 -22 64 -92 140 -162 173 -53 26 -67 28 -197 30 -77 1 -153 0
-170 -2z"/>
</g>
</svg>
