<?xml version="1.0" standalone="no"?>
<!DOCTYPE svg PUBLIC "-//W3C//DTD SVG 20010904//EN"
 "http://www.w3.org/TR/2001/REC-SVG-20010904/DTD/svg10.dtd">
<svg version="1.0" xmlns="http://www.w3.org/2000/svg"
 width="600.000000pt" height="600.000000pt" viewBox="0 0 600.000000 600.000000"
 preserveAspectRatio="xMidYMid meet">
<metadata>
Created by potrace 1.15, written by Peter Selinger 2001-2017
</metadata>
<g transform="translate(0.000000,600.000000) scale(0.100000,-0.100000)"
fill="#16364b" stroke="none">
<path d="M2388 5393 c-12 -14 -17 -56 -21 -183 -16 -440 -83 -596 -302 -699
-75 -36 -103 -69 -89 -109 13 -37 48 -53 88 -40 60 21 189 102 247 156 109
101 163 256 188 539 20 223 13 321 -23 345 -20 14 -73 8 -88 -9z"/>
<path d="M3528 5303 c-34 -41 -41 -79 -23 -133 46 -137 166 -250 268 -252 51
-1 87 35 87 86 0 76 -121 254 -200 294 -54 27 -111 29 -132 5z"/>
<path d="M3040 5101 c-50 -16 -87 -40 -124 -81 -50 -55 -69 -103 -69 -172 -1
-164 177 -195 303 -52 87 99 94 236 16 287 -30 20 -92 29 -126 18z m40 -146
c0 -28 -29 -73 -60 -95 -17 -12 -33 -20 -36 -17 -10 9 25 77 52 102 31 29 44
32 44 10z"/>
<path d="M4781 4757 c-13 -6 -33 -24 -44 -38 -17 -24 -19 -45 -21 -215 -1
-199 8 -271 47 -352 58 -125 205 -128 258 -5 24 57 26 200 3 292 -33 133 -118
291 -170 316 -38 18 -42 18 -73 2z"/>
<path d="M2640 4211 c-72 -38 -100 -124 -67 -204 15 -35 79 -98 124 -120 98
-50 229 -47 338 7 92 45 117 72 123 134 6 72 -23 102 -135 137 -208 65 -322
79 -383 46z"/>
<path d="M5222 3978 c-132 -44 -206 -148 -205 -288 1 -103 29 -174 99 -249 87
-94 189 -126 305 -97 143 37 243 152 271 313 10 60 9 76 -7 126 -24 77 -84
142 -167 185 -58 29 -74 32 -149 32 -58 -1 -104 -7 -147 -22z m142 -288 c33
-12 33 -25 0 -47 -25 -16 -27 -16 -40 2 -18 25 -18 55 0 55 8 0 26 -4 40 -10z"/>
<path d="M4218 3761 c-118 -38 -202 -118 -239 -228 -65 -196 61 -368 271 -367
99 0 163 28 229 100 71 77 94 144 94 264 -1 149 -29 196 -141 230 -78 24 -139
25 -214 1z m102 -256 c0 -15 -25 -55 -38 -60 -30 -11 -37 13 -12 40 20 22 50
34 50 20z"/>
<path d="M1085 3420 c-117 -24 -225 -93 -280 -180 -30 -47 -55 -132 -55 -185
0 -186 193 -366 442 -412 163 -30 186 -40 247 -101 104 -105 160 -247 235
-603 59 -276 104 -385 217 -524 97 -119 226 -201 393 -249 109 -32 195 -43
451 -56 116 -6 303 -18 417 -26 293 -20 447 -18 723 11 474 50 645 97 913 248
235 133 315 228 401 472 120 340 46 703 -193 936 -164 161 -406 241 -639 211
-184 -23 -323 -83 -567 -242 -251 -165 -321 -193 -480 -193 -98 -1 -198 24
-330 80 -121 52 -223 115 -397 245 -83 62 -200 142 -259 177 -171 102 -581
305 -674 334 -180 56 -438 82 -565 57z m318 -374 c251 -51 409 -117 692 -288
152 -92 386 -248 530 -352 280 -205 609 -286 890 -221 152 36 241 82 444 234
136 101 239 159 321 181 189 51 339 17 470 -107 124 -116 175 -282 139 -455
-16 -79 -91 -226 -141 -277 -75 -77 -239 -172 -388 -225 -109 -40 -264 -63
-550 -82 -215 -14 -282 -15 -430 -5 -96 6 -238 11 -315 11 -198 0 -563 27
-673 49 -115 24 -185 62 -234 127 -55 71 -80 143 -132 374 -59 258 -96 387
-148 513 -122 294 -311 440 -608 472 -77 9 -107 19 -138 48 -21 20 -22 22 -5
29 28 12 136 2 276 -26z"/>
<path d="M2200 2300 c-26 -26 -25 -54 2 -79 31 -30 56 -35 83 -17 30 20 41 59
26 92 -9 20 -18 24 -51 24 -27 0 -47 -7 -60 -20z"/>
<path d="M2856 2064 c-17 -16 -21 -52 -8 -70 11 -16 55 -44 69 -44 23 0 53 39
53 69 0 39 -24 61 -65 61 -18 0 -41 -7 -49 -16z"/>
<path d="M3470 3391 c-35 -9 -90 -94 -145 -224 -42 -97 -45 -112 -35 -137 15
-35 57 -55 91 -42 75 29 189 226 189 327 0 60 -42 92 -100 76z"/>
<path d="M451 2041 c-32 -32 -26 -63 27 -127 109 -136 177 -183 260 -184 54 0
92 33 92 82 0 45 -80 118 -205 186 -120 65 -146 71 -174 43z"/>
<path d="M5310 1100 c-43 -43 -67 -143 -47 -199 24 -66 105 -94 163 -56 74 48
87 243 19 269 -37 14 -115 6 -135 -14z"/>
</g>
</svg>
