<?xml version="1.0" standalone="no"?>
<!DOCTYPE svg PUBLIC "-//W3C//DTD SVG 20010904//EN"
 "http://www.w3.org/TR/2001/REC-SVG-20010904/DTD/svg10.dtd">
<svg version="1.0" xmlns="http://www.w3.org/2000/svg"
 width="600.000000pt" height="600.000000pt" viewBox="0 0 600.000000 600.000000"
 preserveAspectRatio="xMidYMid meet">
<metadata>
Created by potrace 1.15, written by Peter Selinger 2001-2017
</metadata>
<g transform="translate(0.000000,600.000000) scale(0.100000,-0.100000)"
fill="#16364b" stroke="none">
<path d="M1565 5763 c-48 -12 -70 -47 -122 -196 -70 -203 -89 -333 -63 -429
24 -84 114 -146 193 -133 108 18 195 105 377 376 97 143 108 178 73 229 -37
54 -83 68 -142 44 -31 -12 -55 -38 -120 -127 -149 -207 -155 -209 -91 -23 22
64 40 130 40 146 0 45 -24 85 -64 104 -35 16 -45 17 -81 9z"/>
<path d="M880 5519 c-190 -38 -362 -274 -335 -458 14 -94 88 -188 178 -226 46
-19 61 -19 104 2 25 11 41 29 54 59 24 53 16 96 -23 132 -16 15 -40 37 -54 49
-45 41 -20 135 51 188 40 31 82 34 137 11 46 -20 79 -20 123 -2 43 18 69 66
61 111 -17 89 -172 160 -296 134z"/>
<path d="M3421 5396 c-31 -17 -50 -53 -51 -93 0 -46 16 -74 61 -106 32 -24 37
-31 29 -47 -16 -31 -12 -68 16 -122 97 -191 322 -266 403 -135 43 70 20 175
-64 292 -52 73 -113 122 -227 184 -80 43 -125 50 -167 27z"/>
<path d="M2334 5291 c-17 -10 -36 -32 -42 -47 -6 -16 -13 -101 -16 -189 -5
-169 -16 -226 -59 -310 -35 -70 -78 -107 -179 -155 -71 -34 -90 -49 -103 -77
-27 -57 1 -125 65 -158 42 -22 73 -19 156 16 183 76 290 214 350 446 23 88 25
114 22 253 -3 136 -5 158 -23 182 -41 56 -116 73 -171 39z"/>
<path d="M2969 5151 c-128 -70 -207 -277 -149 -395 42 -87 141 -116 260 -76
146 49 165 76 165 240 0 130 -10 159 -78 213 -49 40 -141 48 -198 18z"/>
<path d="M4745 4781 c-67 -41 -70 -50 -69 -200 1 -118 5 -147 27 -217 45 -136
127 -242 221 -285 58 -26 153 -25 211 2 60 28 112 91 132 159 20 68 8 154 -32
237 -69 140 -305 323 -417 323 -24 0 -56 -8 -73 -19z m265 -449 c0 -13 -3 -13
-13 3 -8 11 -17 29 -20 40 -6 17 -4 17 13 -4 11 -13 20 -30 20 -39z"/>
<path d="M2723 4182 c-109 -39 -183 -115 -198 -203 -24 -142 111 -289 266
-289 106 0 238 58 382 168 68 51 80 77 74 150 -3 45 -9 59 -38 87 -83 81 -362
131 -486 87z"/>
<path d="M1041 4079 c-75 -52 -96 -117 -63 -192 11 -25 32 -53 46 -62 14 -10
78 -28 142 -40 64 -13 121 -28 126 -33 26 -26 -238 -178 -402 -231 -96 -31
-125 -52 -145 -105 -21 -53 -12 -102 27 -151 25 -32 91 -64 130 -65 44 0 243
76 363 139 l112 59 12 -39 c25 -83 104 -136 185 -124 35 6 45 3 61 -15 69 -77
218 -99 307 -47 101 59 133 190 75 303 -61 119 -210 190 -346 164 -83 -16 -81
-17 -65 37 29 97 9 183 -63 263 -73 81 -229 142 -398 156 -62 5 -74 4 -104
-17z"/>
<path d="M4220 3756 c-216 -47 -345 -262 -255 -424 16 -30 43 -65 60 -79 127
-108 326 -102 455 14 65 58 95 111 120 208 25 100 26 161 0 202 -26 43 -62 60
-165 78 -102 17 -140 18 -215 1z m55 -286 c-19 -21 -55 -27 -55 -10 0 12 31
29 54 30 18 0 18 -1 1 -20z"/>
<path d="M5135 3486 c-135 -43 -245 -136 -284 -241 -42 -111 -22 -250 45 -319
62 -64 107 -81 209 -81 80 0 97 4 157 32 75 35 145 99 180 165 19 35 23 58 23
128 0 102 -22 152 -107 242 -78 83 -134 102 -223 74z"/>
<path d="M3403 3394 c-18 -9 -49 -41 -68 -70 -48 -72 -115 -224 -115 -260 0
-43 35 -93 77 -111 46 -19 125 -6 189 32 108 63 170 268 107 353 -26 36 -91
72 -128 72 -16 0 -45 -8 -62 -16z"/>
<path d="M2439 3216 c-135 -36 -214 -129 -288 -338 -60 -171 -97 -220 -235
-305 -318 -196 -515 -479 -581 -838 -23 -119 -16 -275 15 -363 80 -227 389
-498 645 -567 139 -37 351 -26 500 25 241 83 483 287 587 495 88 175 167 641
154 910 -12 265 -50 365 -268 698 -90 138 -212 239 -336 277 -72 23 -126 24
-193 6z m141 -416 c18 -22 41 -64 52 -93 11 -29 49 -91 84 -138 106 -142 141
-238 151 -409 9 -175 -49 -485 -121 -635 -61 -128 -218 -268 -363 -326 -50
-20 -76 -23 -183 -23 -145 0 -200 16 -309 86 -124 82 -176 179 -174 328 3 203
90 409 225 536 29 27 101 82 160 122 167 114 274 239 343 401 54 129 85 191
94 191 5 0 24 -18 41 -40z"/>
<path d="M609 2457 c-55 -37 -74 -134 -33 -168 23 -19 16 -29 -20 -29 -44 0
-92 -40 -105 -87 -29 -104 157 -399 323 -513 176 -120 372 -88 452 75 71 147
23 331 -130 492 -76 81 -165 143 -297 209 -101 50 -140 55 -190 21z m217 -323
c130 -92 206 -215 178 -288 -14 -37 -103 3 -170 75 -51 55 -123 169 -146 232
-11 32 -25 60 -29 63 -5 3 -9 10 -9 16 0 12 94 -40 176 -98z"/>
<path d="M4240 2118 c-38 -20 -68 -57 -83 -101 -1 -5 -22 1 -45 13 -64 34
-135 25 -178 -22 -50 -55 -51 -90 -9 -316 19 -108 38 -208 41 -221 3 -14 24
-42 47 -64 23 -21 65 -61 92 -87 62 -60 111 -75 185 -59 41 9 63 21 100 58 85
83 110 197 110 504 0 197 -3 212 -64 265 -34 30 -90 52 -131 52 -12 0 -41 -10
-65 -22z"/>
</g>
</svg>
