<?xml version="1.0" standalone="no"?>
<!DOCTYPE svg PUBLIC "-//W3C//DTD SVG 20010904//EN"
 "http://www.w3.org/TR/2001/REC-SVG-20010904/DTD/svg10.dtd">
<svg version="1.0" xmlns="http://www.w3.org/2000/svg"
 width="600.000000pt" height="600.000000pt" viewBox="0 0 600.000000 600.000000"
 preserveAspectRatio="xMidYMid meet">
<metadata>
Created by potrace 1.15, written by Peter Selinger 2001-2017
</metadata>
<g transform="translate(0.000000,600.000000) scale(0.100000,-0.100000)"
fill="#16364b" stroke="none">
<path d="M3070 5658 c-54 -28 -85 -82 -76 -131 13 -68 37 -91 168 -155 146
-72 231 -132 289 -204 96 -121 96 -217 -2 -323 -44 -48 -168 -135 -254 -178
-27 -14 -60 -36 -72 -49 -99 -105 -40 -258 99 -258 85 0 330 150 437 267 193
209 224 422 94 642 -76 127 -236 262 -407 341 -162 76 -206 83 -276 48z"/>
<path d="M2088 5620 c-25 -7 -88 -62 -327 -285 -145 -134 -239 -255 -261 -334
-16 -58 -12 -138 9 -179 59 -116 177 -136 443 -78 62 14 190 41 283 61 94 21
182 43 197 51 90 46 102 173 23 243 -53 46 -88 48 -233 12 -151 -37 -275 -61
-282 -54 -3 2 20 25 50 51 30 25 104 94 164 152 122 118 152 167 141 231 -15
89 -122 156 -207 129z"/>
<path d="M1037 5316 c-278 -140 -397 -377 -327 -650 48 -187 184 -345 298
-346 76 0 150 59 159 128 8 60 -2 85 -58 149 -77 86 -103 149 -97 233 8 102
51 155 180 220 72 37 102 78 102 140 0 62 -32 112 -88 139 -59 29 -90 26 -169
-13z"/>
<path d="M4711 4863 c-58 -30 -73 -61 -82 -167 -4 -53 -11 -101 -14 -106 -3
-6 1 -38 10 -72 49 -194 173 -316 331 -326 122 -8 225 45 277 142 32 60 31
183 -2 246 -57 109 -150 185 -312 254 -109 46 -162 53 -208 29z"/>
<path d="M2796 4785 c-211 -120 -298 -236 -299 -400 -1 -166 126 -284 336
-310 145 -18 229 124 136 230 -23 26 -48 40 -100 55 -39 12 -73 28 -76 36 -9
24 52 78 141 126 92 50 116 78 123 142 11 94 -49 166 -138 166 -34 0 -63 -10
-123 -45z"/>
<path d="M1855 4359 c-117 -23 -304 -141 -354 -222 -69 -112 52 -280 182 -251
19 4 54 29 90 66 89 91 157 115 234 83 96 -40 186 6 214 110 12 44 -3 104 -37
144 -50 60 -210 94 -329 70z"/>
<path d="M2602 3795 c-112 -26 -230 -65 -256 -86 -85 -67 -71 -203 24 -252 44
-23 92 -19 228 17 57 15 118 26 135 24 28 -3 32 -6 29 -28 -11 -81 -198 -384
-372 -600 -51 -63 -97 -120 -102 -127 -6 -7 -14 -29 -18 -48 -24 -105 78 -211
184 -191 64 12 113 68 360 406 161 219 201 287 242 408 29 82 34 111 34 187 0
142 -45 219 -160 273 -47 23 -70 27 -160 29 -63 1 -130 -4 -168 -12z"/>
<path d="M4145 3757 c-124 -27 -208 -87 -241 -174 -22 -56 -14 -170 15 -236
31 -71 124 -160 189 -181 74 -25 180 -19 247 13 80 39 175 143 229 251 51 102
53 113 31 196 -32 122 -57 136 -260 140 -95 2 -172 -1 -210 -9z m115 -297 c0
-5 -12 -10 -26 -10 -14 0 -23 4 -19 10 3 6 15 10 26 10 10 0 19 -4 19 -10z"/>
<path d="M1160 3665 c-99 -28 -278 -111 -318 -149 -58 -52 -81 -170 -47 -235
19 -38 66 -77 111 -91 36 -12 112 -9 148 5 16 7 17 5 11 -16 -4 -13 -48 -107
-97 -209 -152 -313 -195 -434 -224 -624 -18 -125 -6 -181 54 -239 60 -58 191
-87 249 -54 34 19 530 530 621 641 47 55 88 102 93 104 17 7 -13 -258 -42
-373 -11 -44 -47 -168 -80 -275 -117 -380 -136 -485 -103 -556 36 -75 139
-107 209 -64 47 29 57 51 95 205 17 72 61 231 97 355 77 270 96 359 117 549
43 392 3 574 -133 611 -124 33 -221 -32 -447 -302 -119 -142 -154 -178 -142
-147 75 183 103 259 143 379 55 168 64 259 32 342 -22 58 -98 129 -155 146
-50 15 -134 14 -192 -3z"/>
<path d="M3549 3345 c-69 -22 -139 -90 -177 -172 -35 -76 -62 -190 -62 -262 0
-93 71 -156 165 -147 77 6 194 32 256 55 151 57 224 205 173 353 -46 135 -215
218 -355 173z"/>
<path d="M4835 2801 c-124 -36 -199 -91 -241 -177 -46 -93 -33 -200 35 -290
102 -136 267 -170 362 -75 42 41 55 79 71 203 10 75 9 93 -5 130 -10 24 -17
63 -17 86 0 61 -24 100 -73 123 -50 22 -56 22 -132 0z"/>
<path d="M2885 2466 c-84 -20 -156 -48 -340 -133 -173 -81 -216 -108 -246
-157 -21 -35 -26 -124 -8 -159 19 -37 72 -88 109 -104 70 -30 116 -21 266 52
149 72 276 125 299 125 11 0 10 -13 -6 -71 -32 -117 -74 -217 -145 -343 -72
-130 -82 -165 -64 -222 42 -129 191 -186 301 -116 135 87 331 606 317 841 -8
126 -69 219 -178 270 -45 20 -73 26 -150 28 -55 1 -120 -3 -155 -11z"/>
<path d="M4353 2384 c-58 -21 -118 -91 -133 -154 -10 -40 -9 -66 4 -141 9 -51
15 -94 13 -96 -2 -1 -48 9 -103 23 -136 36 -310 37 -398 4 -195 -74 -257 -277
-207 -673 21 -167 31 -203 77 -264 30 -40 135 -93 184 -93 91 0 176 57 206
137 16 40 16 60 4 219 -7 96 -10 178 -6 181 7 7 87 -18 152 -48 51 -24 109
-24 200 0 182 47 285 146 324 310 28 117 6 389 -37 476 -52 104 -177 157 -280
119z"/>
<path d="M2094 1899 c-49 -12 -108 -67 -125 -116 -17 -52 -7 -135 22 -178 13
-20 45 -49 70 -65 36 -22 48 -36 53 -63 3 -19 22 -89 41 -155 l34 -121 -21
-48 c-30 -65 -29 -184 2 -266 38 -101 188 -280 311 -372 66 -48 276 -146 366
-169 76 -20 140 -20 222 -1 82 20 216 82 263 124 129 113 56 341 -109 341 -29
0 -69 -13 -134 -45 -51 -25 -101 -45 -111 -45 -23 0 -139 39 -155 52 -9 7 -6
18 10 46 27 45 28 123 3 171 -17 32 -79 101 -211 235 -33 34 -66 73 -72 88 -7
15 -33 103 -58 195 -26 92 -58 191 -73 221 -64 132 -198 202 -328 171z"/>
</g>
</svg>
