<?xml version="1.0" standalone="no"?>
<!DOCTYPE svg PUBLIC "-//W3C//DTD SVG 20010904//EN"
 "http://www.w3.org/TR/2001/REC-SVG-20010904/DTD/svg10.dtd">
<svg version="1.0" xmlns="http://www.w3.org/2000/svg"
 width="600.000000pt" height="600.000000pt" viewBox="0 0 600.000000 600.000000"
 preserveAspectRatio="xMidYMid meet">
<metadata>
Created by potrace 1.15, written by Peter Selinger 2001-2017
</metadata>
<g transform="translate(0.000000,600.000000) scale(0.100000,-0.100000)"
fill="#16364b" stroke="none">
<path d="M1515 5743 c-16 -9 -79 -37 -140 -63 -248 -107 -298 -138 -310 -190
-9 -39 16 -84 55 -100 38 -16 103 -16 292 0 291 24 308 26 334 51 24 22 32 67
18 104 -9 22 -57 45 -94 45 l-31 0 20 26 c12 15 21 35 21 46 0 28 -27 76 -49
88 -28 15 -82 12 -116 -7z"/>
<path d="M2405 5441 c-49 -21 -60 -47 -63 -160 -3 -128 -45 -426 -71 -510 -38
-123 -92 -186 -209 -245 -98 -49 -125 -89 -101 -147 11 -29 54 -59 82 -59 27
0 112 42 195 97 121 80 189 177 227 322 21 81 65 459 65 559 0 94 -8 115 -50
137 -32 17 -45 18 -75 6z"/>
<path d="M3508 5295 c-14 -8 -36 -34 -47 -59 -21 -42 -21 -45 -5 -92 22 -67
46 -104 100 -154 65 -60 123 -83 192 -78 46 4 60 10 83 36 34 38 43 70 35 116
-13 68 -117 195 -182 222 -53 22 -144 27 -176 9z"/>
<path d="M2965 5110 c-58 -30 -92 -67 -128 -140 -58 -116 -41 -232 43 -287 55
-38 128 -25 221 39 69 46 93 104 94 220 0 93 -11 119 -67 161 -39 29 -114 32
-163 7z m41 -238 c-20 -20 -22 -1 -4 31 11 20 12 21 16 3 2 -10 -3 -26 -12
-34z"/>
<path d="M4763 4766 c-67 -30 -81 -90 -64 -275 22 -241 104 -399 222 -431 51
-14 87 -6 137 30 78 56 116 188 88 301 -24 92 -62 154 -149 245 -121 127 -173
156 -234 130z"/>
<path d="M2663 4216 c-60 -19 -98 -50 -122 -99 -75 -154 67 -327 266 -327 122
0 258 53 340 132 42 41 57 79 48 124 -11 61 -47 86 -175 127 -186 58 -274 68
-357 43z"/>
<path d="M1098 4104 c-56 -30 -73 -104 -39 -161 l20 -31 -33 -6 c-49 -9 -89
-56 -89 -104 0 -21 8 -50 18 -65 22 -34 137 -92 212 -107 216 -45 391 107 314
275 -34 77 -133 150 -259 194 -72 25 -106 26 -144 5z m122 -245 c13 -7 13 -8
0 -8 -8 0 -26 6 -40 15 l-25 15 25 -7 c14 -3 32 -10 40 -15z"/>
<path d="M5220 3810 c-112 -24 -190 -86 -239 -190 -23 -48 -26 -68 -26 -155 0
-115 17 -164 81 -235 89 -98 237 -115 395 -44 70 32 121 85 157 163 37 81 37
195 0 266 -32 60 -78 109 -152 160 -44 30 -64 37 -112 40 -33 2 -79 0 -104 -5z
m87 -317 c4 -10 -2 -23 -16 -35 -30 -23 -38 -23 -47 4 -11 37 49 67 63 31z"/>
<path d="M4202 3750 c-101 -22 -195 -100 -227 -190 -21 -60 -19 -175 4 -226
26 -58 72 -106 128 -134 40 -21 62 -25 133 -25 71 0 94 4 141 26 125 59 193
160 209 310 4 46 6 96 3 111 -9 45 -53 87 -117 109 -68 23 -208 33 -274 19z
m108 -270 c0 -15 -48 -43 -60 -35 -8 5 -6 13 6 26 18 20 54 26 54 9z"/>
<path d="M3433 3350 c-65 -39 -193 -245 -193 -311 0 -42 47 -89 89 -89 118 0
264 173 265 313 1 52 -2 61 -27 83 -35 30 -89 32 -134 4z"/>
<path d="M1680 3103 c-132 -13 -215 -28 -279 -49 -191 -64 -387 -256 -441
-432 -24 -76 -27 -211 -6 -287 41 -155 166 -301 321 -374 112 -53 212 -119
258 -170 34 -37 84 -119 143 -231 98 -188 247 -358 369 -422 186 -97 352 -107
645 -38 89 20 174 32 295 39 224 14 416 53 680 138 140 44 257 106 387 203
231 174 342 290 412 435 63 130 104 311 92 404 -22 158 -59 231 -176 350 -131
134 -233 193 -370 212 -97 14 -183 -3 -318 -63 -167 -74 -265 -89 -516 -78
-254 11 -304 25 -595 169 -330 162 -612 223 -901 194z m225 -393 c88 -11 242
-46 332 -76 25 -9 121 -51 214 -94 255 -120 417 -170 549 -170 26 0 67 -7 90
-15 54 -19 115 -19 321 1 229 21 320 44 459 114 65 33 92 36 128 16 34 -18
119 -104 144 -144 20 -32 21 -39 9 -96 -7 -34 -34 -107 -62 -163 -121 -252
-372 -418 -798 -529 -99 -26 -401 -51 -472 -40 -26 4 -70 -4 -150 -28 -204
-61 -297 -70 -400 -40 -87 26 -167 115 -253 284 -181 354 -298 478 -523 559
-48 18 -104 43 -125 56 -89 59 -68 197 41 267 58 36 217 86 313 97 40 5 78 9
83 10 6 0 50 -4 100 -9z"/>
<path d="M427 2120 c-36 -28 -45 -81 -21 -118 10 -15 35 -62 56 -105 100 -206
220 -318 344 -319 175 -2 209 189 62 348 -58 63 -117 104 -235 163 -114 57
-163 65 -206 31z"/>
<path d="M4976 1509 c-16 -4 -39 -18 -53 -31 -16 -15 -34 -22 -56 -20 -41 3
-91 -28 -113 -70 -35 -67 9 -273 72 -339 37 -39 84 -54 128 -39 67 22 103 86
136 250 25 120 23 192 -6 221 -26 26 -72 38 -108 28z"/>
</g>
</svg>
