<?xml version="1.0" standalone="no"?>
<!DOCTYPE svg PUBLIC "-//W3C//DTD SVG 20010904//EN"
 "http://www.w3.org/TR/2001/REC-SVG-20010904/DTD/svg10.dtd">
<svg version="1.0" xmlns="http://www.w3.org/2000/svg"
 width="600.000000pt" height="600.000000pt" viewBox="0 0 600.000000 600.000000"
 preserveAspectRatio="xMidYMid meet">
<metadata>
Created by potrace 1.15, written by Peter Selinger 2001-2017
</metadata>
<g transform="translate(0.000000,600.000000) scale(0.100000,-0.100000)"
fill="#16364b" stroke="none">
<path d="M2358 5415 c-38 -21 -47 -62 -48 -227 -1 -361 -67 -521 -258 -631
-106 -61 -129 -114 -76 -176 34 -41 75 -41 157 0 90 45 149 91 195 152 115
153 162 344 162 664 0 164 -1 173 -22 197 -28 32 -74 41 -110 21z"/>
<path d="M3533 5299 c-13 -4 -32 -23 -43 -41 -41 -65 -8 -175 83 -274 62 -68
116 -97 181 -98 42 0 52 4 77 32 21 24 29 42 29 70 -1 61 -60 170 -132 243
-52 52 -149 86 -195 68z"/>
<path d="M2984 5101 c-158 -72 -227 -287 -124 -386 44 -42 127 -47 197 -12 27
14 64 38 81 52 66 55 98 224 56 295 -38 66 -129 88 -210 51z m42 -216 c-9 -14
-21 -25 -26 -25 -17 0 -11 26 12 56 19 24 23 25 26 11 2 -10 -4 -29 -12 -42z"/>
<path d="M4774 4783 c-12 -2 -34 -18 -50 -34 -27 -28 -29 -36 -32 -125 -7
-186 33 -393 93 -486 48 -73 129 -112 199 -94 41 10 92 62 117 118 18 42 23
71 23 138 0 141 -45 245 -160 369 -94 101 -133 124 -190 114z"/>
<path d="M2662 4211 c-158 -55 -188 -215 -61 -324 137 -118 379 -95 520 49 42
43 44 48 44 104 0 64 -22 99 -73 118 -203 72 -330 88 -430 53z"/>
<path d="M1105 4117 c-28 -28 -35 -42 -35 -76 0 -29 -7 -47 -24 -64 -39 -39
-43 -88 -12 -141 94 -161 293 -206 410 -93 88 84 79 199 -20 287 -48 41 -189
110 -243 117 -36 5 -44 2 -76 -30z"/>
<path d="M5247 3869 c-95 -22 -186 -91 -229 -172 -19 -34 -23 -58 -23 -132 0
-77 4 -98 27 -147 36 -76 97 -141 160 -168 149 -64 352 11 446 164 32 51 37
69 40 131 3 56 0 82 -16 117 -33 75 -113 152 -212 203 -32 17 -131 19 -193 4z
m97 -295 c23 -9 20 -30 -6 -48 -25 -17 -48 -6 -48 24 0 29 19 37 54 24z"/>
<path d="M4217 3780 c-106 -27 -201 -104 -246 -199 -22 -47 -26 -70 -26 -146
0 -81 3 -95 29 -143 91 -163 312 -203 450 -80 95 83 145 198 153 353 5 94 4
102 -19 135 -33 48 -114 80 -221 85 -45 2 -99 0 -120 -5z m63 -299 c0 -16 -41
-61 -56 -61 -20 0 -17 27 6 50 20 20 50 27 50 11z"/>
<path d="M3396 3327 c-63 -64 -156 -230 -156 -276 0 -40 41 -81 82 -81 71 0
177 94 228 203 58 120 32 207 -61 207 -39 0 -48 -5 -93 -53z"/>
<path d="M1495 3184 c-204 -21 -342 -56 -430 -109 -167 -100 -243 -244 -233
-439 5 -85 9 -104 45 -178 46 -96 115 -177 194 -228 61 -39 102 -56 223 -91
194 -56 283 -164 407 -492 70 -186 122 -277 205 -366 85 -90 157 -136 267
-169 75 -23 99 -25 277 -26 259 -1 572 17 805 48 105 14 267 32 360 41 403 36
555 96 817 321 247 212 320 327 363 571 38 218 28 352 -37 483 -42 85 -215
261 -303 307 -126 66 -261 85 -410 59 -102 -17 -163 -40 -336 -126 -194 -96
-269 -119 -407 -124 -151 -6 -240 7 -384 54 -142 47 -254 104 -419 212 -68 45
-160 98 -204 119 -95 45 -255 93 -380 114 -89 15 -345 27 -420 19z m340 -384
c106 -12 218 -41 289 -75 28 -13 112 -67 186 -119 74 -52 164 -111 200 -131
150 -84 391 -173 526 -195 38 -6 93 -18 123 -26 63 -18 119 -14 295 23 171 35
317 90 469 176 191 108 223 115 312 73 67 -31 169 -117 189 -160 41 -86 6
-281 -72 -402 -78 -120 -325 -311 -471 -364 -161 -59 -463 -90 -956 -98 -565
-10 -621 -8 -683 18 -94 41 -136 104 -223 337 -28 76 -65 165 -82 198 -120
239 -324 411 -564 476 -94 25 -138 51 -159 91 -30 57 9 121 90 148 101 33 369
48 531 30z"/>
<path d="M435 2105 c-39 -38 -33 -77 35 -212 67 -136 116 -197 187 -235 124
-68 235 -31 250 83 14 101 -103 225 -338 358 -67 38 -102 39 -134 6z"/>
<path d="M5093 1330 c-18 -11 -33 -24 -33 -30 0 -5 -13 -10 -30 -10 -18 0 -42
-11 -61 -28 -39 -35 -48 -95 -25 -174 42 -146 148 -198 241 -117 41 37 62 96
71 205 7 93 -7 134 -56 159 -39 20 -69 19 -107 -5z"/>
</g>
</svg>
