<?xml version="1.0" standalone="no"?>
<!DOCTYPE svg PUBLIC "-//W3C//DTD SVG 20010904//EN"
 "http://www.w3.org/TR/2001/REC-SVG-20010904/DTD/svg10.dtd">
<svg version="1.0" xmlns="http://www.w3.org/2000/svg"
 width="600.000000pt" height="600.000000pt" viewBox="0 0 600.000000 600.000000"
 preserveAspectRatio="xMidYMid meet">
<metadata>
Created by potrace 1.15, written by Peter Selinger 2001-2017
</metadata>
<g transform="translate(0.000000,600.000000) scale(0.100000,-0.100000)"
fill="#16364b" stroke="none">
<path d="M2020 5798 c-19 -13 -57 -55 -85 -92 -27 -38 -126 -164 -218 -280
-197 -247 -231 -308 -225 -394 5 -72 31 -112 94 -142 60 -30 151 -24 249 15
146 57 506 247 593 312 70 52 88 162 38 228 -35 45 -58 57 -112 57 -39 0 -60
-10 -161 -76 -63 -42 -120 -76 -125 -76 -5 0 6 20 24 45 82 111 139 202 150
236 15 52 2 105 -36 147 -29 32 -40 36 -92 40 -50 3 -65 0 -94 -20z"/>
<path d="M3032 5680 c-34 -15 -47 -29 -63 -65 -35 -78 -2 -158 79 -195 169
-78 256 -126 313 -173 70 -58 130 -139 155 -209 23 -64 29 -161 14 -199 -18
-42 -79 -85 -159 -109 -36 -12 -74 -28 -84 -38 -73 -66 -59 -191 26 -237 99
-53 341 52 447 194 112 149 106 404 -15 609 -99 169 -311 328 -548 411 -104
36 -109 37 -165 11z"/>
<path d="M933 5365 c-181 -39 -312 -181 -345 -373 -28 -163 60 -360 213 -478
79 -60 127 -78 178 -64 50 13 84 41 105 84 34 73 12 147 -58 195 -94 65 -134
129 -122 196 12 64 59 102 173 139 58 19 95 55 113 112 23 69 -19 151 -94 185
-48 22 -78 22 -163 4z"/>
<path d="M2742 4984 c-107 -53 -165 -160 -166 -304 0 -73 4 -92 27 -137 69
-133 206 -197 371 -174 107 15 156 65 156 157 0 41 -5 51 -39 85 l-39 39 -97
0 c-105 0 -126 11 -27 13 70 2 107 24 134 78 35 68 20 135 -44 196 -78 75
-184 93 -276 47z"/>
<path d="M4775 4916 c-38 -17 -91 -73 -104 -109 -15 -39 -14 -109 4 -212 35
-198 134 -363 254 -424 59 -30 96 -34 158 -16 78 23 170 114 202 200 31 81 26
176 -14 257 -84 171 -388 356 -500 304z"/>
<path d="M1864 4600 c-117 -38 -194 -112 -194 -184 0 -16 9 -48 20 -70 44 -91
155 -117 247 -58 70 44 88 47 112 21 12 -13 21 -28 21 -35 0 -21 68 -73 105
-80 94 -17 185 63 185 163 0 83 -94 194 -199 234 -81 32 -216 36 -297 9z"/>
<path d="M2964 3946 c-92 -29 -174 -113 -217 -222 -23 -60 -40 -198 -33 -267
12 -116 85 -227 190 -286 66 -37 107 -45 153 -31 71 23 113 82 113 158 0 49
-31 97 -88 135 -63 42 -79 106 -47 183 13 32 18 35 40 30 14 -4 43 -2 64 4 79
21 125 105 101 184 -31 102 -151 151 -276 112z"/>
<path d="M1125 3885 c-165 -30 -233 -62 -265 -124 -45 -89 -16 -196 68 -255
36 -26 53 -31 103 -31 32 0 59 -3 59 -7 0 -10 -102 -186 -155 -269 -165 -256
-317 -580 -318 -679 -2 -121 114 -209 237 -181 22 6 50 18 62 28 13 10 74 58
136 107 136 108 333 270 520 429 75 64 141 117 144 117 12 0 -6 -172 -31 -296
-37 -182 -85 -303 -210 -524 -36 -64 -84 -155 -177 -330 -10 -19 -18 -55 -18
-80 0 -94 63 -155 153 -147 87 8 104 28 263 318 200 366 236 464 300 809 39
205 48 311 35 408 -20 154 -85 232 -202 240 -53 4 -68 0 -133 -31 -64 -32
-213 -147 -316 -243 -19 -18 -36 -31 -38 -29 -2 2 19 42 48 90 67 115 158 297
181 364 53 152 -6 272 -154 316 -61 18 -195 18 -292 0z"/>
<path d="M4200 3779 c-69 -12 -166 -57 -203 -94 -133 -135 -125 -368 18 -477
134 -102 325 -85 467 41 93 83 198 280 198 372 0 42 -5 55 -36 88 -29 33 -46
42 -103 55 -86 20 -270 28 -341 15z m90 -307 c0 -13 -59 -44 -70 -37 -14 8 -3
24 24 35 27 11 46 12 46 2z"/>
<path d="M3465 3391 c-46 -21 -115 -92 -143 -148 -37 -72 -82 -215 -82 -259 0
-54 19 -95 57 -119 22 -15 45 -18 111 -16 163 3 268 72 311 204 18 53 15 173
-4 227 -40 112 -145 159 -250 111z"/>
<path d="M4951 2958 c-23 -6 -70 -45 -141 -116 -156 -155 -210 -248 -210 -361
0 -70 25 -125 77 -172 53 -48 99 -62 186 -57 167 8 300 137 337 326 15 72 8
207 -10 243 -24 45 -114 129 -150 139 -41 11 -44 11 -89 -2z"/>
<path d="M4040 2540 c-59 -28 -87 -55 -117 -114 -37 -74 -34 -135 15 -276 22
-63 39 -116 38 -117 -2 -2 -36 9 -77 23 -100 35 -223 39 -289 8 -63 -30 -116
-87 -141 -153 -32 -85 -23 -218 29 -436 22 -93 46 -206 52 -250 16 -113 26
-139 70 -179 135 -122 380 22 380 224 0 30 -7 95 -16 144 -8 48 -13 90 -11 93
3 2 15 -10 27 -27 26 -36 82 -67 139 -76 58 -9 168 28 241 82 46 34 65 56 92
111 31 64 33 73 32 168 -1 111 -16 174 -109 484 -62 209 -74 231 -144 280 -48
34 -150 39 -211 11z"/>
<path d="M2911 2169 c-36 -11 -175 -77 -309 -145 -135 -68 -249 -121 -253
-118 -5 3 -9 13 -9 22 -1 32 -38 99 -75 135 -75 73 -179 86 -271 32 -48 -28
-124 -110 -184 -199 -34 -51 -40 -66 -40 -113 0 -60 15 -96 57 -134 40 -37 69
-51 127 -58 45 -5 51 -9 54 -32 3 -22 -3 -27 -52 -42 -153 -48 -261 -200 -286
-402 -29 -231 54 -448 241 -632 174 -171 333 -233 601 -233 178 0 301 37 446
134 169 113 222 213 173 321 -28 62 -104 115 -166 115 -37 0 -90 -28 -146 -76
-35 -30 -92 -69 -127 -86 -200 -99 -486 8 -598 223 -24 46 -28 66 -29 136 0
75 2 85 26 108 31 32 47 26 79 -26 37 -61 143 -156 187 -168 69 -19 133 -7
183 36 97 81 92 220 -11 303 -37 29 -101 142 -114 201 -6 24 -3 27 28 33 19 4
72 30 118 59 142 89 247 147 331 183 99 42 110 43 102 7 -17 -72 -102 -283
-171 -423 -41 -85 -79 -169 -83 -187 -30 -127 114 -263 237 -223 79 26 104 58
226 290 115 218 187 442 187 582 0 162 -78 310 -194 371 -61 31 -199 34 -285
6z"/>
</g>
</svg>
