<?xml version="1.0" standalone="no"?>
<!DOCTYPE svg PUBLIC "-//W3C//DTD SVG 20010904//EN"
 "http://www.w3.org/TR/2001/REC-SVG-20010904/DTD/svg10.dtd">
<svg version="1.0" xmlns="http://www.w3.org/2000/svg"
 width="600.000000pt" height="600.000000pt" viewBox="0 0 600.000000 600.000000"
 preserveAspectRatio="xMidYMid meet">
<metadata>
Created by potrace 1.15, written by Peter Selinger 2001-2017
</metadata>
<g transform="translate(0.000000,600.000000) scale(0.100000,-0.100000)"
fill="#16364b" stroke="none">
<path d="M2303 5635 c-81 -22 -143 -59 -194 -112 -132 -137 -154 -237 -170
-778 -5 -187 -14 -502 -20 -700 -6 -198 -14 -487 -18 -643 l-6 -283 -45 32
c-65 46 -256 242 -317 323 l-52 70 31 42 c43 60 17 93 -28 37 l-23 -28 6 78
c5 67 4 77 -11 77 -9 0 -25 -19 -38 -45 -12 -25 -25 -45 -28 -45 -4 0 -15 18
-25 40 -30 66 -59 48 -45 -28 4 -23 5 -42 3 -42 -3 0 -16 9 -31 20 -22 18 -28
19 -40 6 -12 -12 -7 -24 37 -90 28 -41 55 -86 60 -99 14 -37 127 -173 220
-265 91 -91 197 -179 274 -227 54 -35 51 -17 37 -240 -14 -207 -14 -581 0
-695 40 -321 165 -563 365 -706 76 -53 132 -79 227 -103 l73 -19 -4 -128 c-4
-147 8 -209 84 -450 25 -78 45 -148 45 -156 0 -12 -18 -16 -88 -20 -122 -6
-172 -39 -172 -114 0 -60 52 -94 145 -94 114 0 227 57 264 133 29 60 27 86
-19 222 -69 206 -93 317 -94 435 -1 58 3 117 7 133 l7 27 128 -5 c70 -3 219
-13 332 -21 175 -14 447 -19 515 -11 18 2 20 -2 15 -48 -9 -90 -4 -269 10
-340 12 -67 54 -205 81 -272 7 -18 10 -35 7 -39 -4 -3 -49 -7 -100 -8 -109 -1
-140 -15 -158 -70 -26 -80 47 -145 162 -146 110 0 209 57 249 145 26 56 24 79
-15 188 -72 197 -94 345 -76 504 6 53 12 99 15 101 2 2 82 8 177 12 184 9 228
19 324 75 64 38 156 135 193 205 80 151 95 258 96 695 l0 320 -27 77 c-36 101
-94 203 -184 325 -40 54 -69 101 -66 104 4 3 34 13 67 23 207 63 435 241 571
448 65 99 76 128 49 128 -8 0 -15 9 -15 20 0 24 -19 26 -46 5 -28 -21 -32 -19
-36 17 -4 44 -24 46 -45 4 -19 -41 -28 -45 -36 -16 -3 11 -12 20 -21 20 -18 0
-20 -25 -6 -85 12 -51 -5 -79 -104 -173 -120 -114 -229 -180 -372 -227 -129
-42 -107 -54 -357 198 -232 234 -253 251 -562 454 -169 111 -260 188 -357 298
-120 136 -172 232 -223 410 -47 161 -69 318 -80 565 -4 74 -13 164 -21 199
-55 244 -295 414 -501 356z m195 -167 c25 -13 62 -44 83 -71 60 -76 78 -151
89 -367 12 -218 29 -344 70 -498 75 -278 167 -432 391 -647 106 -102 121 -113
371 -283 255 -173 326 -229 449 -351 117 -118 368 -422 455 -553 111 -165 109
-155 108 -563 -1 -376 -7 -442 -51 -553 -36 -89 -116 -170 -198 -201 -50 -19
-91 -24 -250 -32 -105 -5 -242 -13 -305 -19 -139 -12 -297 -12 -405 0 -44 5
-222 14 -395 20 -339 12 -425 23 -516 66 -79 37 -187 147 -236 239 -129 247
-159 498 -123 1040 8 122 15 381 15 580 0 198 5 392 11 430 6 39 12 174 14
300 16 887 33 1186 76 1301 24 65 86 135 141 163 59 29 146 28 206 -1z"/>
<path d="M2605 2938 c-42 -24 -46 -58 -10 -93 36 -37 80 -34 101 6 20 39 12
72 -21 87 -32 15 -44 15 -70 0z"/>
<path d="M3233 2920 c-32 -13 -46 -45 -32 -72 40 -75 129 -58 129 24 0 20 -8
31 -30 43 -33 17 -36 17 -67 5z"/>
<path d="M2737 1985 c-37 -37 -11 -69 71 -86 41 -8 100 -9 217 -3 88 5 211 9
274 9 106 0 115 2 128 22 11 16 12 26 4 42 -16 28 -80 35 -235 25 -165 -11
-303 -11 -382 -1 -51 7 -64 6 -77 -8z"/>
</g>
</svg>
