<?xml version="1.0" standalone="no"?>
<!DOCTYPE svg PUBLIC "-//W3C//DTD SVG 20010904//EN"
 "http://www.w3.org/TR/2001/REC-SVG-20010904/DTD/svg10.dtd">
<svg version="1.0" xmlns="http://www.w3.org/2000/svg"
 width="600.000000pt" height="600.000000pt" viewBox="0 0 600.000000 600.000000"
 preserveAspectRatio="xMidYMid meet">
<metadata>
Created by potrace 1.15, written by Peter Selinger 2001-2017
</metadata>
<g transform="translate(0.000000,600.000000) scale(0.100000,-0.100000)"
fill="#16364b" stroke="none">
<path d="M1454 5697 c-60 -39 -154 -100 -208 -135 -140 -91 -170 -154 -106
-222 30 -32 32 -33 103 -28 81 6 477 92 517 113 56 29 65 101 19 147 -28 28
-34 30 -81 25 -47 -6 -50 -5 -36 11 51 59 0 162 -79 162 -10 0 -68 -33 -129
-73z"/>
<path d="M2373 5434 c-17 -9 -36 -28 -41 -42 -6 -15 -13 -101 -16 -192 -6
-187 -24 -305 -62 -412 -50 -139 -102 -201 -213 -258 -65 -33 -81 -52 -81
-100 0 -44 47 -90 92 -90 53 0 166 69 239 147 146 155 207 353 216 704 6 207
3 222 -52 245 -42 17 -43 17 -82 -2z"/>
<path d="M3520 5316 c-14 -8 -36 -35 -48 -60 -23 -45 -23 -47 -7 -108 8 -34
25 -77 37 -97 32 -54 108 -130 153 -153 123 -65 242 20 206 145 -15 50 -60
125 -111 187 -63 75 -175 117 -230 86z"/>
<path d="M2972 5122 c-18 -10 -51 -35 -72 -56 -122 -119 -135 -346 -22 -393
69 -29 176 3 252 76 67 64 102 234 64 314 -35 72 -142 101 -222 59z m38 -232
c-6 -12 -14 -19 -17 -17 -2 3 1 15 7 27 6 12 14 19 17 17 2 -3 -1 -15 -7 -27z"/>
<path d="M4755 4745 c-17 -8 -36 -25 -43 -36 -33 -52 -21 -315 19 -436 36
-109 99 -181 179 -203 168 -47 294 76 263 256 -18 106 -64 186 -162 284 -135
135 -195 166 -256 135z"/>
<path d="M2674 4231 c-151 -39 -224 -189 -152 -312 67 -114 241 -167 395 -121
123 38 251 131 273 198 16 47 -2 105 -44 142 -38 33 -33 31 -166 67 -100 27
-253 40 -306 26z"/>
<path d="M1141 4112 c-60 -9 -108 -74 -95 -130 13 -54 42 -81 109 -101 35 -11
81 -29 102 -40 l38 -20 -49 -1 c-28 0 -82 9 -122 20 -66 19 -76 19 -108 6 -39
-16 -76 -67 -76 -104 0 -78 50 -118 192 -152 156 -37 280 -18 353 54 118 118
68 314 -102 403 -87 46 -188 73 -242 65z"/>
<path d="M4250 3780 c-107 -18 -219 -101 -266 -196 -53 -109 -28 -251 60 -336
60 -59 99 -73 196 -73 78 0 90 3 148 34 129 70 200 195 203 355 2 96 -14 136
-64 167 -65 40 -194 63 -277 49z m50 -284 c0 -19 -27 -46 -46 -46 -24 0 -12
33 16 47 31 16 30 16 30 -1z"/>
<path d="M5195 3766 c-124 -39 -206 -136 -235 -280 -34 -165 58 -334 207 -381
50 -16 65 -17 118 -6 107 22 225 113 276 213 73 144 54 266 -61 377 -84 82
-103 91 -190 90 -41 0 -93 -6 -115 -13z m109 -295 c10 -15 -29 -55 -47 -48
-21 8 -21 21 -1 41 17 18 40 21 48 7z"/>
<path d="M1642 3684 c-40 -28 -44 -56 -21 -159 46 -216 89 -295 160 -295 82 0
100 72 54 213 -31 95 -87 218 -106 234 -26 21 -63 24 -87 7z"/>
<path d="M3414 3381 c-16 -10 -45 -41 -62 -68 -43 -66 -112 -227 -112 -259 0
-57 49 -104 108 -104 36 0 122 51 157 92 45 53 89 156 93 220 4 56 3 59 -36
98 -33 33 -47 40 -78 40 -22 0 -53 -8 -70 -19z"/>
<path d="M1850 3048 c-352 -33 -606 -160 -749 -373 -64 -96 -91 -177 -98 -290
-14 -227 81 -383 313 -520 159 -94 249 -183 323 -320 97 -177 149 -251 237
-335 218 -205 453 -230 872 -90 51 17 150 37 242 50 288 39 424 78 625 175
290 141 536 371 637 593 66 145 88 328 54 444 -51 178 -320 416 -501 444 -27
4 -210 8 -405 8 l-355 1 -240 82 c-271 93 -382 118 -574 133 -154 11 -246 11
-381 -2z m430 -383 c53 -9 194 -48 321 -90 334 -109 416 -124 717 -131 160 -4
276 -2 329 6 72 10 87 9 118 -6 46 -22 128 -95 156 -140 28 -46 20 -102 -29
-204 -82 -170 -355 -374 -627 -467 -144 -49 -348 -92 -437 -93 -26 0 -90 -14
-143 -30 -211 -68 -372 -87 -467 -54 -59 20 -140 104 -193 199 -109 199 -206
302 -405 432 -196 128 -196 128 -220 178 -40 82 -18 177 58 251 64 62 160 100
372 145 109 23 320 25 450 4z"/>
<path d="M409 2161 c-38 -38 -38 -75 0 -166 111 -273 265 -435 414 -435 98 0
162 68 161 170 -2 132 -103 236 -386 398 -60 34 -120 62 -134 62 -15 0 -38
-12 -55 -29z"/>
<path d="M4834 1571 c-18 -11 -34 -24 -38 -29 -3 -5 -28 -7 -56 -4 -83 8 -139
-30 -153 -102 -7 -40 8 -145 33 -228 31 -103 88 -158 165 -158 130 0 209 127
231 371 5 61 3 82 -10 108 -30 57 -114 78 -172 42z"/>
</g>
</svg>
