<?xml version="1.0" standalone="no"?>
<!DOCTYPE svg PUBLIC "-//W3C//DTD SVG 20010904//EN"
 "http://www.w3.org/TR/2001/REC-SVG-20010904/DTD/svg10.dtd">
<svg version="1.0" xmlns="http://www.w3.org/2000/svg"
 width="600.000000pt" height="600.000000pt" viewBox="0 0 600.000000 600.000000"
 preserveAspectRatio="xMidYMid meet">
<metadata>
Created by potrace 1.15, written by Peter Selinger 2001-2017
</metadata>
<g transform="translate(0.000000,600.000000) scale(0.100000,-0.100000)"
fill="#16364b" stroke="none">
<path d="M3066 5639 c-43 -37 -58 -83 -44 -138 12 -48 43 -77 133 -126 276
-149 406 -316 351 -450 -29 -68 -160 -177 -321 -265 -33 -18 -70 -42 -82 -53
l-22 -20 6 37 c13 79 -44 160 -122 173 -42 7 -71 -4 -200 -75 -185 -102 -262
-211 -252 -355 4 -59 10 -76 43 -125 62 -91 194 -157 310 -156 41 0 60 6 88
27 95 73 49 216 -79 248 -25 6 -48 16 -51 21 -11 18 38 56 136 106 l95 48 -3
-40 c-5 -77 48 -143 124 -153 34 -4 54 2 135 45 175 91 357 224 420 309 132
175 143 365 34 548 -79 132 -208 235 -468 374 -78 42 -103 51 -145 51 -43 0
-57 -5 -86 -31z"/>
<path d="M2014 5561 c-23 -10 -53 -35 -68 -54 -15 -20 -83 -85 -151 -146 -292
-261 -381 -482 -249 -615 105 -104 344 -98 728 19 67 21 99 36 129 65 37 34
41 42 44 96 3 46 0 66 -16 91 -46 73 -110 87 -227 50 -90 -29 -220 -57 -260
-57 -24 0 -14 14 99 129 143 147 177 201 177 283 0 68 -27 113 -83 138 -52 24
-71 24 -123 1z"/>
<path d="M983 5301 c-130 -66 -235 -193 -280 -340 -17 -59 -17 -182 2 -256 21
-84 105 -248 164 -321 67 -83 118 -101 188 -67 62 29 101 119 84 193 -5 22
-27 64 -49 93 -59 76 -82 132 -82 201 0 108 50 175 178 240 85 43 104 64 109
123 8 90 -67 165 -171 171 -55 3 -69 0 -143 -37z"/>
<path d="M4695 4821 c-61 -27 -80 -62 -82 -151 -1 -41 -5 -94 -9 -118 -8 -51
11 -109 68 -199 129 -205 335 -247 483 -98 126 126 119 290 -18 410 -56 49
-202 123 -302 154 -81 25 -89 25 -140 2z"/>
<path d="M1814 4350 c-155 -33 -353 -173 -374 -264 -25 -110 68 -214 181 -204
43 5 56 12 118 71 87 82 156 109 224 88 103 -31 156 -23 206 34 40 46 48 93
26 151 -19 51 -59 84 -130 108 -59 20 -193 29 -251 16z"/>
<path d="M2630 3794 c-93 -20 -251 -73 -281 -95 -81 -57 -75 -189 10 -246 45
-31 105 -30 206 3 44 15 110 29 148 31 63 5 67 4 67 -15 0 -36 -97 -213 -187
-341 -48 -68 -136 -182 -196 -253 -62 -74 -113 -145 -119 -164 -25 -93 69
-204 175 -204 56 0 94 37 223 215 67 94 154 213 192 265 167 231 227 369 220
501 -6 98 -40 171 -109 233 -87 78 -204 102 -349 70z"/>
<path d="M4180 3760 c-111 -19 -242 -115 -288 -211 -34 -70 -31 -159 8 -227
82 -142 294 -202 455 -128 113 52 249 226 248 321 0 23 -13 68 -31 107 -39 87
-76 112 -196 133 -95 16 -126 17 -196 5z m70 -300 c0 -5 -10 -10 -22 -10 -19
0 -20 2 -8 10 19 13 30 13 30 0z"/>
<path d="M1125 3641 c-82 -30 -246 -109 -283 -138 -76 -58 -94 -184 -36 -260
46 -61 141 -89 210 -63 15 6 29 8 32 6 2 -3 -32 -90 -76 -193 -102 -240 -164
-426 -197 -585 -35 -176 -32 -230 17 -301 41 -59 183 -96 244 -64 47 25 512
502 618 635 53 67 101 122 104 122 10 0 -5 -197 -23 -300 -16 -94 -49 -212
-119 -430 -55 -169 -96 -341 -96 -400 0 -107 90 -177 192 -149 58 15 92 53
108 119 7 30 39 141 72 245 110 352 140 496 164 781 21 253 16 403 -14 460
-62 120 -182 142 -312 58 -30 -20 -137 -119 -237 -220 -202 -204 -200 -204
-104 1 127 270 154 394 111 509 -27 70 -89 142 -145 167 -52 24 -162 24 -230
0z"/>
<path d="M3536 3334 c-61 -19 -131 -88 -169 -166 -15 -32 -37 -102 -48 -156
l-22 -98 21 -47 c36 -81 115 -107 223 -73 24 7 73 19 108 26 108 20 193 76
232 151 44 87 13 230 -64 295 -78 66 -196 95 -281 68z"/>
<path d="M4805 2846 c-62 -20 -97 -41 -136 -83 -63 -65 -74 -96 -74 -203 0
-83 4 -102 28 -155 68 -146 195 -209 313 -156 83 38 125 119 127 248 1 55 -4
77 -21 107 -15 26 -22 54 -22 90 0 113 -105 188 -215 152z"/>
<path d="M2911 2509 c-25 -5 -67 -16 -95 -25 -60 -19 -407 -196 -453 -231
-100 -76 -94 -250 12 -311 34 -19 50 -22 105 -19 55 4 87 16 210 74 148 71
270 123 289 123 41 0 -57 -248 -178 -455 -35 -59 -41 -78 -41 -125 1 -131 119
-221 256 -196 55 11 120 83 180 201 138 268 218 607 176 751 -28 97 -112 178
-216 209 -54 16 -174 18 -245 4z"/>
<path d="M4322 2364 c-59 -29 -94 -70 -117 -133 -18 -53 -19 -106 0 -191 7
-36 12 -66 10 -68 -2 -2 -47 11 -102 29 -133 44 -270 51 -354 20 -79 -30 -141
-88 -181 -169 -30 -60 -33 -76 -36 -172 -4 -118 37 -475 61 -533 22 -50 74
-105 128 -133 128 -64 268 7 299 153 9 39 6 79 -13 208 -18 123 -21 161 -11
163 6 2 55 -13 107 -32 107 -40 168 -45 278 -22 196 42 319 193 319 391 0 63
-36 285 -55 345 -46 141 -204 209 -333 144z"/>
<path d="M2080 1850 c-56 -27 -77 -46 -101 -92 -24 -47 -24 -91 0 -143 17 -39
72 -95 91 -95 9 0 17 -24 83 -255 29 -102 32 -126 24 -163 -11 -55 5 -146 40
-219 29 -63 189 -242 270 -303 62 -47 271 -155 363 -186 41 -14 82 -19 165
-19 97 1 121 5 206 34 191 65 254 123 254 232 -1 48 -6 66 -31 101 -69 99
-164 114 -304 48 -105 -49 -141 -50 -232 -8 -68 31 -69 32 -61 62 14 56 7 113
-21 160 -15 25 -31 46 -35 46 -5 0 -27 29 -50 64 -44 68 -118 147 -163 174
-32 18 -39 38 -98 235 -45 156 -75 220 -121 266 -74 74 -194 100 -279 61z"/>
</g>
</svg>
