<?xml version="1.0" standalone="no"?>
<!DOCTYPE svg PUBLIC "-//W3C//DTD SVG 20010904//EN"
 "http://www.w3.org/TR/2001/REC-SVG-20010904/DTD/svg10.dtd">
<svg version="1.0" xmlns="http://www.w3.org/2000/svg"
 width="600.000000pt" height="600.000000pt" viewBox="0 0 600.000000 600.000000"
 preserveAspectRatio="xMidYMid meet">
<metadata>
Created by potrace 1.15, written by Peter Selinger 2001-2017
</metadata>
<g transform="translate(0.000000,600.000000) scale(0.100000,-0.100000)"
fill="#16364b" stroke="none">
<path d="M2224 5820 c-11 -4 -63 -49 -115 -98 -52 -49 -153 -139 -224 -200
-275 -231 -406 -372 -425 -458 -29 -127 96 -238 249 -220 119 14 174 33 586
208 291 123 318 141 330 222 13 87 -50 160 -139 158 -27 0 -80 -18 -161 -55
-207 -94 -245 -110 -250 -105 -3 2 34 38 81 78 159 135 262 239 275 277 39
119 -90 240 -207 193z"/>
<path d="M3053 5670 c-58 -35 -87 -102 -73 -166 14 -60 44 -81 165 -114 283
-75 410 -200 391 -382 -7 -68 -32 -123 -78 -169 -39 -39 -140 -105 -220 -143
-95 -45 -130 -132 -86 -215 30 -57 77 -84 138 -78 64 5 221 85 318 162 176
139 243 292 229 520 -18 294 -210 485 -583 580 -119 30 -159 31 -201 5z"/>
<path d="M933 5326 c-130 -49 -244 -150 -304 -272 -28 -56 -34 -80 -37 -155
-6 -114 19 -199 89 -303 56 -85 172 -196 237 -227 63 -31 121 -20 172 31 72
72 61 166 -28 238 -77 62 -114 105 -140 160 -48 106 -13 177 122 242 93 45
120 69 133 120 19 71 -14 140 -80 171 -54 24 -88 23 -164 -5z"/>
<path d="M2706 4969 c-290 -100 -391 -462 -189 -679 90 -98 267 -167 375 -146
46 8 93 47 118 97 24 46 25 76 5 126 -20 51 -65 78 -150 93 -38 6 -84 18 -102
26 -36 17 -58 62 -49 98 9 36 51 82 88 96 109 43 140 77 140 155 0 59 -31 108
-86 134 -52 26 -75 26 -150 0z"/>
<path d="M4749 4927 c-18 -12 -44 -38 -57 -57 -23 -33 -24 -40 -18 -150 3 -63
12 -142 21 -175 39 -145 129 -275 226 -326 58 -30 175 -33 231 -6 131 66 192
235 137 382 -47 126 -134 210 -311 300 -123 64 -172 70 -229 32z"/>
<path d="M1900 4499 c-78 -13 -171 -61 -241 -126 -69 -65 -90 -99 -91 -152 -1
-112 125 -196 220 -147 15 8 43 31 62 51 73 76 123 83 194 28 147 -115 315 22
222 181 -15 25 -50 64 -79 86 -97 73 -181 96 -287 79z"/>
<path d="M2657 3846 c-109 -40 -136 -155 -58 -239 41 -45 77 -59 140 -55 52 3
56 1 59 -21 6 -42 -46 -184 -102 -278 -54 -92 -114 -174 -187 -259 -50 -58
-66 -110 -50 -163 22 -75 115 -125 190 -103 57 17 82 41 174 165 156 210 235
363 272 531 42 187 -23 341 -170 407 -63 29 -210 37 -268 15z"/>
<path d="M1135 3791 c-85 -23 -249 -93 -277 -118 -31 -27 -58 -93 -58 -143 0
-58 28 -117 74 -157 44 -39 70 -47 141 -41 30 3 55 3 55 1 0 -10 -55 -118
-123 -243 -90 -168 -153 -308 -210 -470 -70 -199 -81 -248 -67 -300 25 -92
120 -143 227 -121 31 6 66 17 77 25 64 43 307 261 571 515 61 58 130 124 154
146 l43 40 -6 -50 c-15 -111 -58 -316 -87 -410 -32 -105 -179 -508 -229 -632
-47 -113 -38 -175 30 -221 45 -30 118 -27 175 8 33 20 48 44 113 179 181 379
221 503 271 846 12 77 26 158 32 180 6 22 12 108 13 190 1 129 -2 155 -18 185
-71 134 -217 159 -359 62 -23 -16 -112 -91 -197 -165 -85 -75 -156 -134 -158
-132 -2 2 22 46 52 99 76 131 99 178 130 265 57 158 54 275 -9 367 -71 103
-203 138 -360 95z"/>
<path d="M4260 3780 c-165 -16 -266 -67 -313 -160 -26 -50 -28 -63 -25 -135 5
-96 29 -155 89 -220 69 -75 106 -90 224 -90 97 0 104 2 177 38 103 50 164 118
230 255 46 95 50 109 46 158 -5 58 -34 101 -89 130 -23 11 -222 37 -254 33 -5
-1 -44 -5 -85 -9z m40 -286 c0 -13 -35 -33 -57 -34 -48 0 -9 38 40 39 9 1 17
-2 17 -5z"/>
<path d="M3523 3382 c-127 -45 -211 -160 -248 -338 -18 -90 -13 -130 26 -184
51 -70 161 -84 298 -35 103 36 204 124 242 210 90 205 -108 422 -318 347z"/>
<path d="M4840 2796 c-44 -24 -163 -182 -215 -286 -93 -183 -85 -310 23 -385
40 -27 51 -30 125 -30 75 0 88 3 146 35 122 66 190 189 207 375 9 100 -6 146
-73 219 -30 34 -64 66 -76 73 -29 16 -106 15 -137 -1z"/>
<path d="M4217 2439 c-62 -15 -116 -47 -142 -87 -40 -61 -41 -103 -6 -233 17
-64 31 -121 31 -128 0 -6 -32 6 -72 28 -141 76 -246 88 -356 41 -60 -26 -135
-101 -162 -163 -57 -129 -48 -399 22 -662 27 -104 48 -143 97 -188 114 -103
297 -70 373 69 42 76 44 116 14 271 -15 75 -24 138 -22 140 6 6 83 -34 92 -48
3 -6 30 -22 58 -35 58 -27 117 -30 191 -10 191 51 276 189 261 426 -8 118 -64
394 -94 462 -42 96 -163 146 -285 117z"/>
<path d="M2937 2320 c-174 -30 -575 -210 -632 -284 -24 -31 -28 -33 -74 -28
-50 4 -132 -16 -181 -47 -49 -29 -151 -124 -165 -152 -18 -33 -20 -111 -4
-142 24 -48 84 -98 133 -112 27 -8 60 -15 72 -15 19 0 25 -8 34 -42 6 -24 18
-66 26 -95 7 -28 14 -54 14 -57 0 -3 -16 -13 -36 -21 -102 -42 -184 -136 -224
-255 -30 -90 -38 -245 -15 -330 33 -127 125 -266 230 -348 196 -153 514 -237
710 -187 68 17 273 114 324 152 41 31 70 94 71 149 0 64 -45 142 -99 171 -69
36 -123 31 -223 -20 -164 -84 -213 -93 -328 -56 -108 34 -200 97 -258 177 -48
67 -65 109 -57 149 5 28 10 33 34 33 15 0 46 -13 69 -30 70 -50 169 -90 226
-90 91 0 165 69 174 160 6 62 -32 145 -83 185 -79 59 -147 201 -191 396 -29
130 -29 139 -5 139 18 0 183 67 393 160 54 24 101 41 104 37 19 -19 -80 -245
-194 -443 -59 -101 -69 -141 -53 -200 31 -117 134 -183 240 -154 71 19 108 62
177 205 136 283 192 439 213 586 39 284 -139 456 -422 409z"/>
</g>
</svg>
