<?xml version="1.0" standalone="no"?>
<!DOCTYPE svg PUBLIC "-//W3C//DTD SVG 20010904//EN"
 "http://www.w3.org/TR/2001/REC-SVG-20010904/DTD/svg10.dtd">
<svg version="1.0" xmlns="http://www.w3.org/2000/svg"
 width="600.000000pt" height="600.000000pt" viewBox="0 0 600.000000 600.000000"
 preserveAspectRatio="xMidYMid meet">
<metadata>
Created by potrace 1.15, written by Peter Selinger 2001-2017
</metadata>
<g transform="translate(0.000000,600.000000) scale(0.100000,-0.100000)"
fill="#16364b" stroke="none">
<path d="M3124 5646 c-37 -16 -69 -55 -84 -102 -10 -29 -8 -46 9 -102 46 -150
162 -274 376 -400 39 -23 83 -52 100 -66 l29 -23 -34 -33 c-50 -46 -125 -95
-290 -190 -149 -85 -254 -153 -265 -169 -3 -6 -40 -26 -82 -47 -97 -46 -176
-122 -193 -185 -24 -87 12 -164 92 -199 104 -45 196 -12 238 86 18 40 21 42
92 58 133 31 146 36 177 71 16 19 33 49 36 67 6 30 20 41 127 107 211 129 315
226 367 341 28 62 28 168 0 227 -29 59 -120 139 -227 196 -154 84 -234 159
-272 257 -22 58 -48 87 -90 104 -48 19 -65 19 -106 2z"/>
<path d="M1248 5390 c-92 -28 -288 -207 -362 -330 -111 -187 -126 -446 -38
-635 32 -67 69 -98 133 -110 51 -9 119 22 146 66 35 57 36 89 9 170 -33 100
-38 147 -26 227 21 130 97 242 207 304 115 65 149 162 88 254 -28 43 -106 70
-157 54z"/>
<path d="M1671 5239 c-86 -17 -131 -70 -131 -154 0 -48 12 -78 47 -113 14 -14
13 -15 -36 -123 -58 -129 -63 -240 -15 -330 32 -57 66 -87 140 -121 44 -21 64
-23 189 -22 118 0 147 3 180 20 80 39 108 130 65 215 -33 64 -68 79 -184 79
-90 0 -97 2 -91 18 72 165 98 251 99 322 1 63 -3 82 -24 119 -41 73 -139 109
-239 90z"/>
<path d="M4555 4651 c-60 -25 -101 -105 -85 -162 23 -78 58 -102 175 -118 44
-6 83 -15 88 -20 4 -4 -27 -14 -70 -20 -101 -16 -145 -44 -169 -107 -15 -40
-16 -52 -5 -93 14 -54 60 -106 109 -122 67 -22 275 23 364 80 99 63 158 142
179 240 35 163 -119 276 -436 320 -88 13 -122 13 -150 2z"/>
<path d="M1875 4263 c-127 -27 -257 -84 -361 -159 -76 -53 -110 -93 -125 -144
-26 -87 40 -180 126 -180 58 0 84 11 147 61 29 23 91 60 137 82 69 33 99 40
176 47 102 9 116 14 160 60 26 27 30 39 30 88 0 104 -62 153 -191 151 -44 -1
-88 -3 -99 -6z"/>
<path d="M2624 3730 c-75 -11 -264 -68 -309 -93 -80 -45 -107 -131 -64 -206
50 -88 110 -99 264 -47 60 20 133 39 163 43 l55 6 -7 -39 c-9 -50 -76 -207
-128 -304 -56 -102 -107 -176 -206 -299 -119 -147 -128 -165 -124 -243 2 -34
51 -91 93 -108 l30 -13 -30 -31 c-87 -90 -63 -236 50 -305 58 -36 111 -28 240
32 130 61 299 130 305 124 10 -10 -112 -320 -172 -440 -34 -67 -41 -127 -20
-182 46 -120 189 -159 303 -82 41 28 56 49 115 162 138 266 198 441 198 580 0
44 -5 98 -11 120 -16 58 -75 141 -123 174 -49 34 -134 61 -190 61 -85 0 -276
-52 -443 -119 -29 -11 -53 -18 -53 -15 0 3 33 45 73 92 156 184 221 295 306
524 92 247 105 353 57 452 -41 83 -115 136 -221 155 -64 12 -76 12 -151 1z"/>
<path d="M3965 3696 c-91 -42 -132 -114 -122 -216 11 -125 124 -258 265 -313
144 -57 318 31 363 184 16 51 0 107 -41 148 -17 16 -30 39 -30 51 0 35 -26 85
-58 112 -69 58 -285 77 -377 34z"/>
<path d="M1110 3551 c-58 -18 -282 -132 -312 -158 -10 -9 -25 -35 -34 -59 -42
-109 31 -232 157 -265 39 -10 54 -10 95 4 27 9 50 15 51 13 2 -1 -35 -97 -81
-212 -127 -316 -221 -690 -197 -781 24 -86 105 -146 217 -158 98 -11 110 -3
269 175 33 36 113 121 179 190 131 137 210 233 288 349 49 71 52 74 61 50 12
-32 2 -218 -18 -315 -9 -42 -41 -163 -71 -268 -70 -246 -94 -364 -94 -468 0
-133 47 -205 142 -215 55 -6 109 17 140 60 17 24 23 52 29 131 5 71 26 172 67
336 87 342 97 420 97 750 0 242 -2 281 -19 328 -58 169 -237 202 -382 70 -30
-28 -102 -114 -161 -192 -124 -164 -192 -250 -203 -254 -4 -1 17 68 46 155 74
220 97 327 98 448 0 83 -4 108 -22 150 -61 133 -190 185 -342 136z"/>
<path d="M3600 3244 c-144 -52 -250 -166 -278 -300 -15 -67 -1 -114 43 -153
67 -58 166 -61 225 -6 22 20 38 24 120 27 140 7 213 46 261 140 49 95 -4 221
-117 278 -63 32 -186 38 -254 14z"/>
<path d="M4677 3090 c-50 -28 -77 -73 -77 -132 0 -46 31 -131 97 -263 29 -57
29 -62 16 -95 -28 -66 7 -164 70 -197 49 -26 126 -21 181 11 74 43 99 98 85
189 -5 27 -42 117 -88 210 -44 89 -89 183 -100 209 -33 79 -110 107 -184 68z"/>
<path d="M4493 2289 c-80 -15 -142 -61 -178 -132 -28 -58 -31 -101 -11 -169 8
-25 12 -48 10 -51 -3 -2 -52 8 -109 23 -216 59 -316 60 -418 8 -90 -46 -166
-141 -193 -240 -19 -74 -20 -564 -1 -611 69 -164 288 -191 392 -48 47 64 55
106 55 297 l0 166 36 -7 c20 -3 74 -17 120 -31 147 -42 325 -29 429 32 60 34
122 105 153 172 41 91 42 295 0 435 -32 108 -163 180 -285 156z"/>
<path d="M2177 1846 c-60 -22 -97 -56 -122 -115 -30 -67 -8 -427 35 -597 32
-125 100 -253 177 -335 110 -117 300 -229 388 -229 71 0 150 50 175 111 7 16
14 29 17 29 2 0 53 -27 112 -61 149 -83 235 -112 336 -113 68 -1 89 3 139 26
138 65 197 137 198 240 1 95 -54 177 -134 199 -56 15 -102 5 -171 -37 l-57
-35 -53 24 c-112 53 -238 145 -371 270 -75 70 -149 132 -164 138 -41 16 -114
14 -148 -4 -16 -8 -44 -30 -61 -47 l-30 -31 -8 33 c-4 18 -10 116 -14 218 -6
176 -8 187 -33 230 -44 75 -137 113 -211 86z"/>
</g>
</svg>
