<?xml version="1.0" standalone="no"?>
<!DOCTYPE svg PUBLIC "-//W3C//DTD SVG 20010904//EN"
 "http://www.w3.org/TR/2001/REC-SVG-20010904/DTD/svg10.dtd">
<svg version="1.0" xmlns="http://www.w3.org/2000/svg"
 width="600.000000pt" height="600.000000pt" viewBox="0 0 600.000000 600.000000"
 preserveAspectRatio="xMidYMid meet">
<metadata>
Created by potrace 1.15, written by Peter Selinger 2001-2017
</metadata>
<g transform="translate(0.000000,600.000000) scale(0.100000,-0.100000)"
fill="#16364b" stroke="none">
<path d="M3541 5259 c-12 -19 -21 -41 -21 -50 0 -31 71 -158 117 -209 53 -60
89 -80 138 -80 30 0 38 5 51 34 15 31 15 37 0 83 -21 64 -108 196 -147 224
-17 12 -50 24 -74 27 -41 4 -45 2 -64 -29z m163 -181 c10 -15 15 -28 12 -28
-9 0 -66 82 -66 94 0 12 29 -22 54 -66z"/>
<path d="M3045 5107 c-56 -14 -146 -106 -168 -171 -42 -122 -1 -226 87 -226
47 0 87 22 141 76 54 53 92 119 106 179 10 45 9 57 -6 90 -12 24 -30 42 -51
51 -38 16 -53 16 -109 1z m70 -97 c19 -30 -102 -200 -142 -200 -19 0 -16 57 6
105 31 69 116 128 136 95z"/>
<path d="M4764 4728 c-12 -5 -27 -21 -33 -34 -21 -47 -8 -371 20 -513 20 -98
97 -142 162 -91 41 32 52 81 51 220 -2 129 -18 214 -65 341 -28 77 -78 105
-135 77z"/>
<path d="M2624 4206 c-40 -40 -45 -83 -14 -133 27 -44 145 -99 268 -125 146
-30 235 -12 262 52 17 41 6 100 -23 126 -42 36 -318 114 -405 114 -48 0 -58
-4 -88 -34z"/>
<path d="M1437 3990 c-72 -28 -112 -64 -144 -127 -70 -144 -14 -290 143 -372
22 -12 52 -33 66 -49 63 -66 123 -203 152 -347 41 -203 110 -750 126 -997 12
-199 28 -287 69 -394 40 -102 98 -190 187 -284 112 -117 227 -175 393 -202 45
-7 81 -15 81 -18 0 -3 -25 -24 -55 -48 -98 -77 -175 -197 -175 -274 0 -42 23
-91 55 -116 40 -32 111 -50 264 -67 129 -15 174 -26 155 -38 -5 -2 -34 -12
-64 -21 -93 -28 -140 -93 -114 -161 19 -48 118 -58 194 -20 199 101 210 315
17 369 -28 8 -103 20 -165 26 -187 18 -197 22 -168 78 32 62 301 266 339 257
59 -13 461 -36 607 -34 139 2 164 0 161 -12 -33 -130 20 -218 152 -254 70 -19
77 -25 52 -45 -39 -33 -5 -111 60 -135 85 -33 193 -2 254 72 36 44 39 78 12
131 -25 50 -79 75 -216 102 -139 27 -172 37 -179 56 -9 24 -1 31 87 73 71 34
97 41 197 51 233 23 470 83 654 164 288 128 469 423 468 766 -1 107 -17 185
-62 284 -113 252 -305 375 -569 364 -117 -5 -196 -28 -264 -75 -124 -88 -181
-115 -330 -155 -70 -19 -109 -22 -257 -22 -256 -1 -389 28 -596 130 -243 120
-397 287 -640 695 -119 199 -211 312 -340 418 -99 82 -304 207 -383 233 -69
23 -162 22 -224 -2z m184 -218 c30 -16 90 -47 134 -70 93 -48 223 -149 281
-218 55 -66 109 -148 184 -279 160 -280 395 -558 569 -672 87 -57 252 -141
331 -167 249 -82 597 -95 838 -31 120 32 203 71 309 144 101 69 154 86 253 79
134 -10 229 -83 304 -233 53 -108 70 -183 63 -282 -10 -139 -77 -276 -189
-385 -132 -129 -403 -218 -758 -248 -63 -5 -194 -17 -290 -27 -204 -20 -613
-22 -735 -5 -44 7 -148 19 -231 27 -309 30 -428 75 -525 198 -103 130 -168
351 -169 572 0 94 -74 670 -121 940 -50 291 -141 460 -296 547 -83 47 -117
103 -75 127 29 17 67 12 123 -17z"/>
<path d="M2380 2487 c-44 -22 -39 -87 10 -112 46 -24 89 3 90 56 0 46 -56 78
-100 56z"/>
<path d="M2837 2072 c-25 -28 -21 -67 9 -91 15 -12 35 -21 45 -21 21 0 59 45
59 71 0 50 -80 78 -113 41z"/>
<path d="M5255 3985 c-27 -8 -53 -14 -56 -15 -3 0 -27 -14 -53 -31 -96 -64
-148 -187 -128 -306 31 -184 156 -303 321 -303 106 0 199 39 273 116 58 59 81
116 86 209 7 142 -53 247 -177 314 -52 27 -68 31 -137 30 -44 0 -101 -7 -129
-14z m129 -298 l30 -13 -22 -22 c-12 -12 -29 -22 -37 -22 -18 0 -38 37 -31 56
7 17 21 17 60 1z"/>
<path d="M4225 3751 c-148 -39 -242 -147 -253 -291 -12 -172 111 -310 278
-310 152 1 268 115 302 299 14 73 -5 199 -34 237 -35 44 -95 67 -183 70 -44 2
-93 0 -110 -5z m65 -280 c0 -23 -25 -51 -46 -51 -18 0 -18 20 2 48 19 27 44
29 44 3z"/>
<path d="M488 2018 c-20 -15 -24 -36 -15 -63 16 -46 249 -185 309 -185 52 0
78 59 41 92 -28 25 -287 168 -304 168 -8 0 -22 -6 -31 -12z"/>
<path d="M5338 1100 c-35 -27 -60 -94 -61 -159 0 -49 4 -58 32 -83 61 -54 141
-29 177 57 7 19 14 63 14 99 0 58 -3 67 -26 85 -35 28 -102 28 -136 1z"/>
</g>
</svg>
