<?xml version="1.0" standalone="no"?>
<!DOCTYPE svg PUBLIC "-//W3C//DTD SVG 20010904//EN"
 "http://www.w3.org/TR/2001/REC-SVG-20010904/DTD/svg10.dtd">
<svg version="1.0" xmlns="http://www.w3.org/2000/svg"
 width="600.000000pt" height="600.000000pt" viewBox="0 0 600.000000 600.000000"
 preserveAspectRatio="xMidYMid meet">
<metadata>
Created by potrace 1.15, written by Peter Selinger 2001-2017
</metadata>
<g transform="translate(0.000000,600.000000) scale(0.100000,-0.100000)"
fill="#16364b" stroke="none">
<path d="M1533 5786 c-16 -13 -44 -59 -63 -102 -18 -44 -64 -137 -101 -209
-78 -153 -97 -221 -77 -280 28 -83 129 -110 235 -61 67 32 155 91 268 182 150
120 183 165 169 228 -15 73 -70 126 -131 126 -22 0 -44 -17 -103 -80 -42 -44
-79 -80 -82 -80 -4 0 6 32 23 71 32 80 36 126 14 169 -17 33 -61 60 -99 60
-13 0 -37 -11 -53 -24z"/>
<path d="M2394 5436 c-55 -24 -64 -48 -64 -166 0 -129 -24 -330 -50 -428 -42
-154 -106 -234 -238 -301 -91 -46 -112 -69 -112 -124 0 -31 7 -46 34 -73 42
-42 77 -44 149 -8 207 104 313 226 371 427 33 113 66 368 66 505 0 118 -8 140
-60 167 -35 18 -55 18 -96 1z"/>
<path d="M3540 5323 c-27 -10 -57 -43 -75 -84 -16 -34 -17 -46 -6 -94 24 -105
113 -209 223 -260 62 -29 107 -31 153 -9 110 52 85 212 -55 354 -46 47 -67 60
-125 78 -72 22 -89 25 -115 15z"/>
<path d="M2976 5134 c-74 -23 -159 -112 -182 -190 -21 -72 -9 -147 31 -199 54
-72 183 -85 303 -30 72 32 84 50 102 143 25 126 -11 231 -93 271 -50 24 -93
26 -161 5z"/>
<path d="M4749 4767 c-44 -30 -58 -71 -58 -183 -2 -321 133 -534 339 -534 106
0 196 62 221 152 41 154 -59 349 -257 499 -123 93 -181 109 -245 66z m236
-408 c9 -17 14 -36 12 -42 -4 -12 -37 44 -37 63 0 18 9 11 25 -21z"/>
<path d="M2710 4237 c-73 -17 -109 -38 -152 -85 -74 -82 -86 -202 -31 -303 73
-135 241 -177 398 -100 67 33 200 149 234 204 44 71 36 159 -17 210 -59 57
-317 101 -432 74z"/>
<path d="M1072 4104 c-74 -38 -104 -133 -62 -201 28 -46 54 -60 150 -76 96
-17 140 -32 140 -47 0 -33 -190 -116 -343 -152 -77 -17 -97 -26 -124 -54 -53
-56 -56 -135 -7 -193 50 -60 115 -63 291 -12 187 54 320 118 402 195 141 131
93 393 -90 487 -111 56 -297 84 -357 53z"/>
<path d="M4169 3761 c-99 -32 -177 -101 -208 -184 -6 -16 -11 -61 -11 -100 0
-91 36 -173 102 -233 56 -52 104 -69 193 -68 192 0 340 158 360 385 7 87 -9
130 -63 166 -76 50 -267 68 -373 34z m118 -286 c-31 -28 -47 -32 -47 -12 0 21
22 37 50 37 l25 -1 -28 -24z"/>
<path d="M1709 3715 c-79 -29 -116 -61 -151 -132 -30 -61 -33 -76 -33 -153 0
-100 19 -144 86 -204 67 -61 120 -81 219 -81 70 0 93 4 130 24 135 70 197 212
156 355 -23 78 -97 155 -179 185 -67 24 -171 27 -228 6z"/>
<path d="M5118 3561 c-166 -53 -257 -162 -258 -308 0 -135 71 -252 186 -309
48 -24 63 -26 132 -22 181 11 310 145 320 333 4 72 1 90 -20 136 -27 58 -124
164 -164 180 -39 14 -134 10 -196 -10z m76 -305 c-8 -20 -34 -29 -34 -12 0 13
13 23 32 25 4 1 5 -5 2 -13z"/>
<path d="M2586 3439 c-99 -24 -215 -103 -282 -192 -51 -68 -79 -121 -145 -272
-55 -127 -116 -193 -234 -249 -126 -60 -204 -117 -316 -234 -165 -170 -262
-331 -306 -509 -12 -47 -17 -110 -17 -203 -1 -130 1 -139 35 -237 49 -140 88
-202 199 -314 166 -168 321 -262 520 -315 93 -26 313 -25 395 0 161 49 332
163 506 338 111 110 163 209 239 448 28 91 59 185 67 210 36 108 52 179 52
237 2 132 -69 557 -120 728 -17 55 -33 120 -35 144 -18 148 -168 350 -299 401
-67 26 -193 36 -259 19z m123 -392 c6 -8 15 -36 21 -63 5 -27 23 -85 40 -129
37 -92 113 -405 135 -547 20 -131 19 -209 -4 -282 -11 -34 -34 -108 -51 -166
-50 -165 -102 -263 -174 -332 -268 -258 -504 -306 -734 -149 -142 96 -219 181
-251 278 -48 142 -8 313 110 471 83 110 159 172 284 233 129 63 229 141 307
239 43 55 73 113 127 249 22 56 50 117 62 134 46 68 101 95 128 64z"/>
<path d="M3403 3378 c-42 -31 -85 -95 -133 -203 -48 -109 -52 -159 -15 -203
31 -37 76 -46 136 -28 73 22 104 42 143 89 74 91 105 218 71 290 -35 74 -136
101 -202 55z"/>
<path d="M371 2293 c-38 -19 -66 -73 -56 -110 14 -56 101 -267 162 -392 58
-119 75 -144 142 -211 86 -87 145 -120 230 -127 151 -14 250 80 238 225 -15
196 -222 420 -541 586 -97 50 -123 54 -175 29z m399 -466 c50 -62 86 -124 77
-134 -16 -15 -156 164 -157 199 0 19 34 -9 80 -65z"/>
<path d="M4353 2005 c-17 -7 -40 -22 -51 -33 -18 -18 -22 -19 -33 -6 -23 28
-67 44 -120 44 -46 0 -55 -4 -90 -39 -38 -38 -39 -40 -39 -112 0 -100 35 -382
55 -448 54 -177 204 -242 327 -141 70 58 127 217 168 464 23 142 17 183 -36
233 -53 50 -121 64 -181 38z"/>
</g>
</svg>
