<?xml version="1.0" standalone="no"?>
<!DOCTYPE svg PUBLIC "-//W3C//DTD SVG 20010904//EN"
 "http://www.w3.org/TR/2001/REC-SVG-20010904/DTD/svg10.dtd">
<svg version="1.0" xmlns="http://www.w3.org/2000/svg"
 width="600.000000pt" height="600.000000pt" viewBox="0 0 600.000000 600.000000"
 preserveAspectRatio="xMidYMid meet">
<metadata>
Created by potrace 1.15, written by Peter Selinger 2001-2017
</metadata>
<g transform="translate(0.000000,600.000000) scale(0.100000,-0.100000)"
fill="#16364b" stroke="none">
<path d="M2183 5426 c-94 -30 -185 -115 -233 -219 -41 -88 -48 -169 -38 -436
5 -113 6 -227 3 -254 -3 -26 -6 -294 -6 -596 1 -512 -11 -822 -35 -975 l-6
-39 -87 7 c-116 10 -198 28 -378 82 l-152 47 -3 46 c-2 34 -7 47 -20 49 -14 3
-18 -3 -18 -27 0 -44 -14 -39 -49 19 -45 73 -71 63 -52 -21 5 -24 8 -45 6 -47
-2 -2 -17 4 -34 12 -65 34 -86 1 -29 -46 l33 -27 -42 -1 c-46 0 -65 -17 -40
-35 30 -22 440 -153 543 -174 55 -11 146 -24 201 -27 l100 -7 -5 -251 c-8
-489 39 -729 185 -949 114 -173 263 -282 447 -328 l86 -22 -7 -36 c-4 -20 -7
-97 -7 -171 1 -149 25 -302 69 -430 14 -40 25 -79 25 -87 0 -9 -19 -13 -72
-14 -87 0 -134 -15 -160 -50 -23 -30 -26 -80 -8 -114 37 -69 226 -72 324 -4
88 60 102 140 49 274 -43 109 -63 199 -72 326 -9 109 1 275 16 290 5 5 57 5
118 -1 276 -24 653 -43 749 -37 l103 7 -4 -118 c-5 -129 11 -233 68 -430 42
-146 43 -142 -38 -142 -88 0 -137 -14 -163 -47 -48 -61 -7 -143 79 -158 93
-16 244 39 294 107 33 45 33 111 -2 218 -71 222 -98 386 -80 494 6 41 15 79
19 86 7 11 110 27 324 50 225 25 344 99 422 264 54 114 84 311 84 553 0 117
-36 362 -67 458 -36 112 -111 232 -235 377 l-49 57 33 5 c181 26 293 58 483
139 127 54 152 68 228 130 44 37 47 41 32 57 -9 10 -15 24 -13 31 2 9 -8 15
-30 17 -28 3 -31 6 -26 27 9 37 -15 40 -50 6 -39 -38 -46 -38 -46 -6 0 18 -5
25 -20 25 -16 0 -20 -7 -20 -37 0 -48 -6 -56 -59 -83 -160 -81 -380 -138 -562
-147 l-115 -6 -35 30 c-64 55 -524 409 -585 451 -34 22 -115 73 -180 112 -65
40 -143 91 -174 115 -157 121 -304 345 -384 586 -32 96 -66 257 -129 609 -37
204 -85 303 -185 380 -84 64 -217 87 -319 56z m219 -172 c85 -59 110 -137 194
-586 19 -103 45 -231 59 -284 47 -187 201 -459 339 -603 82 -85 138 -129 268
-207 199 -121 448 -304 775 -571 194 -158 385 -385 427 -510 18 -53 53 -237
66 -353 10 -90 -4 -355 -25 -464 -27 -143 -84 -230 -180 -275 -36 -17 -102
-28 -303 -51 -364 -41 -488 -44 -887 -21 -187 11 -387 22 -445 25 -185 8 -305
48 -401 133 -139 126 -247 351 -279 585 -22 157 -13 623 20 948 32 331 35 403
34 1075 0 380 -2 760 -4 845 -4 145 -3 158 18 205 47 102 117 148 219 142 50
-2 71 -9 105 -33z"/>
<path d="M2600 2860 c-11 -11 -20 -29 -20 -39 0 -21 53 -71 76 -71 24 0 54 38
54 68 0 57 -69 83 -110 42z"/>
<path d="M3146 2791 c-26 -29 -17 -71 20 -93 17 -10 39 -15 48 -12 27 10 47
59 37 87 -16 41 -75 51 -105 18z"/>
<path d="M2840 1906 c-19 -19 -10 -55 17 -73 21 -14 48 -18 128 -18 127 0 279
10 294 19 15 10 14 61 -2 75 -17 14 -423 11 -437 -3z"/>
</g>
</svg>
