<?xml version="1.0" standalone="no"?>
<!DOCTYPE svg PUBLIC "-//W3C//DTD SVG 20010904//EN"
 "http://www.w3.org/TR/2001/REC-SVG-20010904/DTD/svg10.dtd">
<svg version="1.0" xmlns="http://www.w3.org/2000/svg"
 width="600.000000pt" height="600.000000pt" viewBox="0 0 600.000000 600.000000"
 preserveAspectRatio="xMidYMid meet">
<metadata>
Created by potrace 1.15, written by Peter Selinger 2001-2017
</metadata>
<g transform="translate(0.000000,600.000000) scale(0.100000,-0.100000)"
fill="#16364b" stroke="none">
<path d="M2395 5410 c-40 -16 -43 -30 -48 -250 -3 -184 -7 -226 -26 -290 -53
-181 -133 -290 -254 -350 -97 -48 -117 -82 -76 -134 45 -58 164 -12 286 110
121 121 200 309 224 533 13 119 5 322 -14 352 -9 14 -63 43 -71 38 -1 0 -10
-4 -21 -9z"/>
<path d="M3518 5303 c-34 -39 -49 -83 -42 -121 25 -133 168 -282 273 -282 79
0 124 58 101 133 -28 96 -136 237 -205 268 -52 24 -107 24 -127 2z"/>
<path d="M3008 5110 c-92 -49 -151 -145 -156 -255 -4 -84 15 -122 73 -149 91
-44 228 40 271 165 23 68 23 154 1 196 -33 62 -117 81 -189 43z m60 -173 c-11
-34 -45 -77 -61 -77 -15 0 2 52 29 88 30 39 47 34 32 -11z"/>
<path d="M4774 4773 c-12 -2 -33 -17 -48 -32 -36 -37 -43 -104 -27 -253 26
-238 70 -359 148 -405 83 -48 171 -16 217 80 69 142 27 321 -121 507 -57 73
-110 114 -140 109 -4 -1 -18 -4 -29 -6z"/>
<path d="M2631 4218 c-55 -28 -81 -62 -88 -115 -28 -207 287 -325 534 -200
105 54 131 131 67 206 -21 25 -51 39 -167 76 -183 59 -280 68 -346 33z"/>
<path d="M1132 4145 c-37 -27 -55 -82 -56 -175 -2 -134 43 -198 144 -208 150
-14 276 130 216 247 -51 98 -239 183 -304 136z"/>
<path d="M5209 3967 c-71 -30 -106 -57 -142 -109 -38 -57 -50 -111 -44 -198
12 -178 114 -318 245 -339 152 -24 325 66 392 204 20 41 25 65 25 135 0 73 -4
92 -27 135 -31 58 -81 108 -158 156 -50 31 -62 34 -145 37 -76 2 -99 -1 -146
-21z m149 -303 c12 -4 22 -12 22 -20 0 -7 -10 -20 -22 -29 -22 -15 -24 -14
-40 6 -34 41 -18 58 40 43z"/>
<path d="M4133 3740 c-172 -69 -242 -295 -139 -448 62 -92 178 -150 277 -139
103 12 213 87 264 178 28 51 30 60 30 170 0 112 -1 117 -29 154 -19 25 -51 48
-95 68 -56 26 -80 31 -161 34 -77 2 -105 -1 -147 -17z m134 -283 c-14 -22 -57
-36 -57 -20 0 14 23 40 40 46 25 7 32 -4 17 -26z"/>
<path d="M3455 3370 c-11 -4 -32 -21 -46 -36 -49 -53 -141 -213 -159 -275 -11
-37 13 -87 44 -95 46 -11 80 6 147 76 78 80 139 191 139 252 0 68 -60 106
-125 78z"/>
<path d="M982 3278 c-108 -16 -216 -86 -267 -172 -13 -23 -31 -70 -39 -106
-52 -218 39 -425 230 -527 78 -42 160 -59 308 -67 142 -7 182 -22 248 -93 83
-90 122 -185 188 -463 64 -269 132 -415 249 -530 111 -110 231 -164 442 -199
215 -36 314 -42 694 -48 538 -8 849 15 1210 88 355 71 545 156 700 313 113
115 186 249 237 436 20 74 23 108 23 265 0 171 -2 184 -28 260 -39 110 -104
210 -196 303 -252 253 -429 306 -791 238 -266 -50 -358 -92 -566 -258 -156
-125 -190 -143 -295 -158 -179 -26 -320 27 -614 229 -93 65 -225 156 -293 202
-68 46 -151 103 -185 127 -79 56 -144 89 -231 118 -141 48 -203 53 -602 51
-204 -1 -394 -5 -422 -9z m692 -389 c101 -12 218 -47 291 -88 108 -60 458
-279 611 -381 258 -173 390 -227 611 -250 204 -22 376 30 573 172 212 154 284
190 480 240 195 50 287 31 426 -89 108 -93 158 -207 157 -358 -1 -93 -13 -146
-55 -230 -41 -84 -85 -134 -170 -192 -187 -129 -341 -178 -644 -203 -71 -5
-199 -18 -284 -27 -184 -19 -696 -22 -885 -4 -66 6 -181 16 -255 22 -255 20
-340 48 -400 131 -39 53 -63 120 -116 320 -73 277 -126 401 -238 552 -127 171
-309 275 -512 291 -100 8 -173 28 -202 55 -56 53 -14 61 278 54 135 -3 285
-10 334 -15z"/>
<path d="M450 2060 c-26 -26 -26 -81 0 -105 11 -10 30 -39 43 -63 66 -132 208
-213 296 -167 84 43 55 155 -64 244 -135 102 -232 134 -275 91z"/>
<path d="M5333 1135 c-59 -25 -107 -158 -83 -230 31 -95 161 -102 205 -10 20
44 37 150 28 185 -15 64 -77 87 -150 55z"/>
</g>
</svg>
