<?xml version="1.0" standalone="no"?>
<!DOCTYPE svg PUBLIC "-//W3C//DTD SVG 20010904//EN"
 "http://www.w3.org/TR/2001/REC-SVG-20010904/DTD/svg10.dtd">
<svg version="1.0" xmlns="http://www.w3.org/2000/svg"
 width="600.000000pt" height="600.000000pt" viewBox="0 0 600.000000 600.000000"
 preserveAspectRatio="xMidYMid meet">
<metadata>
Created by potrace 1.15, written by Peter Selinger 2001-2017
</metadata>
<g transform="translate(0.000000,600.000000) scale(0.100000,-0.100000)"
fill="#16364b" stroke="none">
<path d="M2392 5390 c-17 -19 -20 -43 -25 -223 -11 -391 -73 -529 -288 -642
-80 -42 -98 -59 -99 -91 0 -25 39 -64 65 -64 38 0 209 105 272 166 128 125
171 274 180 617 5 199 4 219 -12 237 -23 26 -69 26 -93 0z"/>
<path d="M3557 5312 c-22 -9 -57 -66 -57 -92 0 -39 43 -132 85 -184 45 -55
127 -106 171 -106 39 0 72 21 89 56 21 45 7 97 -47 181 -76 119 -168 173 -241
145z"/>
<path d="M3058 5110 c-105 -31 -191 -152 -192 -270 0 -70 19 -110 66 -133 30
-15 44 -16 76 -7 143 38 264 271 190 365 -21 27 -75 56 -100 54 -7 0 -25 -4
-40 -9z m42 -135 c0 -40 -89 -159 -106 -142 -15 15 9 80 45 117 40 42 61 50
61 25z"/>
<path d="M4764 4748 c-42 -20 -49 -52 -48 -212 2 -289 47 -436 145 -476 66
-28 139 31 160 127 27 134 -11 317 -96 463 -59 101 -102 127 -161 98z"/>
<path d="M2650 4230 c-39 -9 -86 -56 -96 -95 -27 -108 98 -220 275 -245 141
-20 298 27 328 98 18 44 4 104 -30 126 -28 18 -260 93 -347 112 -72 15 -80 15
-130 4z"/>
<path d="M5284 3990 c-199 -40 -323 -251 -255 -431 56 -149 212 -244 355 -218
75 13 144 48 192 96 69 71 121 220 107 308 -13 80 -104 186 -198 229 -39 18
-148 26 -201 16z m102 -295 c19 -15 19 -15 0 -30 -37 -28 -66 -14 -66 31 0 19
41 18 66 -1z"/>
<path d="M4222 3765 c-158 -35 -254 -149 -254 -304 0 -80 32 -150 94 -206 127
-114 311 -92 418 51 60 79 82 149 81 264 0 107 -15 140 -76 169 -41 19 -141
42 -179 40 -12 0 -50 -7 -84 -14z m71 -275 c-7 -28 -41 -46 -57 -30 -8 9 -4
17 17 36 32 27 48 25 40 -6z"/>
<path d="M1175 3601 c-131 -35 -223 -131 -246 -254 -28 -154 68 -337 211 -401
33 -15 96 -33 141 -41 123 -22 168 -58 242 -195 76 -140 136 -363 197 -730 37
-228 59 -312 111 -416 131 -267 395 -402 850 -434 209 -15 707 -34 856 -32
153 2 510 41 696 77 317 62 577 183 733 341 199 202 292 500 238 762 -55 269
-241 507 -467 599 -122 50 -284 65 -409 39 -105 -23 -201 -74 -378 -204 -265
-195 -405 -251 -599 -240 -106 7 -266 58 -396 127 -130 69 -488 294 -569 357
-39 30 -135 116 -214 191 -210 200 -307 270 -485 352 -145 67 -269 102 -382
106 -55 3 -113 1 -130 -4z m263 -321 c116 -37 229 -94 312 -156 35 -27 140
-122 232 -210 327 -317 715 -568 1038 -674 248 -81 442 -90 668 -29 121 32
219 87 361 204 191 157 242 187 343 206 76 14 165 2 237 -33 58 -27 176 -145
218 -218 84 -144 83 -329 -2 -505 -63 -131 -143 -200 -315 -272 -199 -85 -430
-131 -787 -159 -190 -14 -263 -15 -573 -5 -473 14 -677 33 -830 77 -190 55
-260 166 -310 489 -60 393 -146 699 -258 920 -84 164 -218 270 -393 309 -82
18 -139 47 -139 71 0 26 95 19 198 -15z"/>
<path d="M2247 2370 c-35 -28 -34 -54 2 -91 36 -36 63 -37 90 -3 26 33 26 55
4 82 -27 32 -64 37 -96 12z"/>
<path d="M2872 2064 c-32 -22 -30 -76 4 -103 33 -26 37 -26 70 2 69 60 0 153
-74 101z"/>
<path d="M3439 3340 c-77 -81 -169 -243 -169 -299 0 -57 81 -82 134 -40 54 42
162 218 180 292 6 27 -7 65 -28 79 -6 4 -26 8 -45 8 -27 0 -42 -8 -72 -40z"/>
<path d="M452 2038 c-7 -7 -12 -28 -12 -48 0 -32 10 -46 78 -116 122 -125 243
-169 291 -108 12 15 21 35 21 46 0 35 -83 105 -201 172 -115 65 -154 77 -177
54z"/>
<path d="M5373 1110 c-47 -19 -92 -136 -79 -206 15 -78 113 -95 173 -31 56 62
68 198 20 232 -24 16 -79 19 -114 5z"/>
</g>
</svg>
