<?xml version="1.0" standalone="no"?>
<!DOCTYPE svg PUBLIC "-//W3C//DTD SVG 20010904//EN"
 "http://www.w3.org/TR/2001/REC-SVG-20010904/DTD/svg10.dtd">
<svg version="1.0" xmlns="http://www.w3.org/2000/svg"
 width="600.000000pt" height="600.000000pt" viewBox="0 0 600.000000 600.000000"
 preserveAspectRatio="xMidYMid meet">
<metadata>
Created by potrace 1.15, written by Peter Selinger 2001-2017
</metadata>
<g transform="translate(0.000000,600.000000) scale(0.100000,-0.100000)"
fill="#16364b" stroke="none">
<path d="M3105 5656 c-17 -7 -43 -28 -58 -45 -39 -47 -36 -93 13 -186 93 -177
166 -261 308 -356 59 -39 120 -80 135 -91 l28 -20 -23 -25 c-62 -66 -500 -349
-596 -385 -180 -67 -281 -213 -224 -324 35 -69 95 -104 177 -104 75 0 124 34
148 105 15 42 35 52 147 75 74 14 114 40 135 87 12 28 34 50 78 78 272 175
384 271 433 371 36 74 43 157 19 220 -23 61 -110 148 -210 209 -175 107 -214
146 -280 279 -32 65 -48 85 -80 103 -45 26 -104 29 -150 9z"/>
<path d="M1150 5340 c-116 -57 -220 -161 -279 -280 -61 -125 -83 -221 -85
-365 -1 -147 24 -243 79 -304 90 -99 242 -65 276 62 10 37 8 52 -17 127 -69
209 -3 395 176 495 91 51 120 89 120 155 0 83 -67 150 -151 150 -21 0 -69 -16
-119 -40z"/>
<path d="M1664 5251 c-83 -38 -116 -131 -74 -213 l22 -45 -35 -69 c-50 -101
-71 -171 -71 -244 0 -116 62 -213 169 -262 44 -20 65 -23 185 -22 154 0 206
11 249 55 61 60 60 147 -1 206 -48 46 -76 54 -178 46 -57 -4 -90 -2 -90 4 0 5
18 54 41 109 46 114 69 200 69 264 0 50 -26 116 -56 142 -55 49 -158 62 -230
29z"/>
<path d="M4540 4654 c-24 -10 -61 -47 -76 -76 -21 -41 -17 -100 9 -138 37 -55
68 -71 160 -84 47 -6 88 -14 92 -17 3 -4 -27 -10 -67 -14 -84 -8 -115 -22
-152 -65 -49 -59 -28 -148 47 -204 62 -46 286 -17 427 54 125 63 175 136 168
244 -9 144 -125 229 -382 280 -92 19 -205 28 -226 20z"/>
<path d="M1846 4254 c-86 -19 -225 -74 -309 -120 -128 -73 -157 -128 -117
-223 38 -88 121 -145 197 -134 17 3 55 25 84 49 30 25 91 63 136 86 71 35 93
41 152 43 47 1 79 8 102 21 97 57 97 206 0 266 -44 28 -152 33 -245 12z"/>
<path d="M2605 3740 c-67 -13 -288 -88 -322 -109 -92 -57 -84 -193 15 -249 54
-30 93 -28 214 12 57 19 124 38 151 41 46 7 47 7 47 -20 0 -82 -96 -285 -221
-471 -44 -65 -106 -157 -137 -203 -53 -78 -57 -88 -57 -142 0 -43 5 -65 21
-85 30 -41 68 -66 111 -73 l38 -7 -42 -27 c-76 -49 -119 -154 -93 -231 26 -80
92 -128 175 -129 41 -1 75 10 187 61 150 68 260 112 283 112 28 0 -65 -226
-166 -402 -42 -73 -51 -98 -51 -137 0 -170 206 -261 320 -142 46 49 202 376
254 531 35 109 41 137 42 220 1 85 -2 101 -27 152 -99 201 -364 230 -705 77
-36 -16 -66 -28 -68 -27 -1 2 60 91 137 198 225 317 311 515 313 720 1 96 -2
110 -27 162 -36 74 -112 143 -180 163 -54 16 -146 18 -212 5z"/>
<path d="M3980 3723 c-69 -24 -100 -51 -128 -111 -21 -46 -23 -63 -18 -111 9
-79 49 -153 121 -227 83 -85 154 -119 250 -119 111 1 187 54 241 169 38 81 29
151 -25 200 -12 11 -21 31 -21 45 0 40 -41 102 -80 122 -46 23 -175 49 -242
49 -29 -1 -73 -8 -98 -17z"/>
<path d="M1200 3574 c-84 -16 -236 -85 -345 -156 -87 -57 -117 -154 -76 -243
44 -96 153 -140 248 -100 20 8 38 13 41 11 2 -3 -17 -55 -43 -117 -26 -61 -58
-144 -71 -183 -67 -196 -144 -531 -144 -625 0 -107 68 -180 188 -201 61 -11
72 -11 109 6 69 32 296 282 546 602 66 84 123 152 128 152 12 0 11 -79 -1
-160 -6 -36 -40 -213 -75 -395 -101 -515 -109 -579 -75 -653 15 -33 29 -47 62
-62 56 -25 84 -25 138 3 63 31 81 69 92 187 8 89 25 170 132 640 19 85 40 202
45 260 12 125 -1 454 -21 515 -17 54 -83 120 -132 134 -41 11 -107 2 -150 -21
-75 -39 -275 -245 -399 -410 -45 -60 -83 -105 -85 -100 -4 12 67 222 127 379
73 189 86 275 55 365 -19 58 -74 123 -126 149 -41 21 -121 32 -168 23z"/>
<path d="M3589 3276 c-112 -43 -189 -134 -238 -285 -52 -159 -1 -261 131 -261
41 0 104 28 120 54 4 6 49 16 101 22 142 18 225 69 264 161 43 104 -21 235
-145 294 -57 28 -179 36 -233 15z"/>
<path d="M4681 3052 c-57 -29 -76 -63 -76 -141 0 -62 5 -78 54 -177 49 -99 53
-110 42 -139 -15 -42 -14 -61 4 -99 37 -77 185 -109 267 -58 57 35 83 85 83
159 0 56 -6 74 -73 210 -41 81 -81 164 -90 183 -36 73 -133 102 -211 62z"/>
<path d="M4452 2317 c-53 -20 -99 -63 -128 -122 -25 -53 -27 -61 -21 -152 l7
-95 -28 5 c-15 3 -69 14 -120 26 -190 44 -302 38 -415 -22 -69 -36 -121 -91
-153 -161 -25 -54 -49 -194 -39 -224 3 -10 7 -109 10 -220 5 -222 11 -251 68
-311 92 -96 232 -93 318 8 52 60 59 95 59 304 l0 185 88 -23 c48 -12 101 -28
117 -35 38 -15 202 -6 277 16 176 52 270 178 285 384 11 156 -23 317 -80 379
-54 59 -167 86 -245 58z"/>
<path d="M2131 1852 c-19 -9 -48 -34 -65 -56 l-31 -38 1 -187 c1 -205 14 -299
65 -459 41 -127 83 -217 131 -280 84 -112 323 -256 423 -256 61 0 123 30 159
76 l26 33 42 -24 c210 -116 270 -136 408 -129 70 3 98 10 154 36 136 64 185
129 173 232 -18 154 -148 235 -262 165 -86 -52 -80 -52 -148 -17 -208 106
-343 208 -441 333 -51 65 -111 99 -177 99 -42 0 -105 -28 -121 -53 -4 -6 -10
-9 -13 -5 -12 12 -45 196 -51 288 -6 96 -28 165 -62 203 -49 54 -147 72 -211
39z"/>
</g>
</svg>
