<?xml version="1.0" standalone="no"?>
<!DOCTYPE svg PUBLIC "-//W3C//DTD SVG 20010904//EN"
 "http://www.w3.org/TR/2001/REC-SVG-20010904/DTD/svg10.dtd">
<svg version="1.0" xmlns="http://www.w3.org/2000/svg"
 width="600.000000pt" height="600.000000pt" viewBox="0 0 600.000000 600.000000"
 preserveAspectRatio="xMidYMid meet">
<metadata>
Created by potrace 1.15, written by Peter Selinger 2001-2017
</metadata>
<g transform="translate(0.000000,600.000000) scale(0.100000,-0.100000)"
fill="#16364b" stroke="none">
<path d="M2222 5759 c-13 -5 -69 -46 -124 -91 -473 -389 -572 -481 -614 -572
-51 -112 -17 -210 92 -266 39 -20 67 -25 143 -28 165 -7 329 26 639 129 151
51 189 67 217 94 75 76 45 198 -60 246 -58 27 -93 24 -223 -20 -144 -49 -302
-92 -302 -83 0 4 75 70 168 147 222 186 248 212 261 262 18 68 -8 140 -62 173
-34 21 -96 25 -135 9z"/>
<path d="M3080 5662 c-52 -26 -80 -74 -80 -140 0 -50 3 -58 38 -92 31 -31 50
-40 113 -54 98 -22 225 -83 283 -136 60 -55 96 -129 96 -195 0 -149 -70 -235
-273 -335 -138 -68 -164 -94 -174 -168 -6 -49 30 -119 77 -150 51 -34 108 -26
225 32 168 83 325 218 388 334 104 192 59 472 -105 656 -86 97 -226 179 -401
235 -112 36 -139 38 -187 13z"/>
<path d="M954 5295 c-147 -74 -275 -212 -310 -333 -33 -112 -6 -266 67 -387
69 -116 235 -256 303 -255 37 1 102 37 125 69 41 58 40 149 -3 192 -13 13 -47
47 -76 74 -63 60 -100 129 -100 185 0 73 35 117 148 185 82 49 112 91 112 154
0 87 -64 151 -151 151 -33 0 -66 -10 -115 -35z"/>
<path d="M4750 4909 c-45 -28 -54 -41 -80 -117 -20 -59 -21 -70 -10 -150 32
-224 102 -349 231 -407 165 -74 349 2 395 164 60 204 -94 419 -365 512 -72 25
-128 24 -171 -2z"/>
<path d="M2745 4882 c-202 -111 -311 -243 -323 -389 -10 -127 64 -268 179
-345 69 -45 187 -88 245 -88 86 0 144 51 144 127 0 81 -42 131 -135 163 -77
27 -133 64 -141 94 -12 47 37 106 144 175 63 40 92 90 92 158 0 117 -96 165
-205 105z"/>
<path d="M1895 4389 c-174 -23 -371 -155 -407 -271 -29 -96 50 -198 152 -198
55 0 89 20 141 81 45 54 122 99 170 99 15 0 48 -10 74 -21 81 -36 151 -15 203
61 30 45 31 126 1 164 -52 66 -199 104 -334 85z"/>
<path d="M2657 3825 c-256 -48 -323 -86 -334 -189 -7 -57 9 -97 53 -135 49
-44 98 -47 224 -17 58 14 126 26 153 26 58 0 59 -7 13 -111 -50 -117 -190
-311 -403 -562 -83 -98 -89 -111 -84 -182 6 -71 104 -143 177 -129 21 4 54 22
76 42 46 42 376 450 429 532 88 134 144 279 156 402 22 238 -174 376 -460 323z"/>
<path d="M4218 3780 c-180 -32 -285 -111 -323 -245 -42 -144 37 -305 184 -374
79 -37 194 -37 265 -1 68 34 144 111 209 211 129 198 140 317 35 387 -38 24
-48 26 -181 28 -78 2 -163 -1 -189 -6z m46 -314 c-9 -23 -53 -41 -66 -28 -9 9
-3 15 23 26 43 19 50 19 43 2z"/>
<path d="M1170 3694 c-8 -3 -44 -15 -80 -26 -94 -30 -242 -102 -267 -129 -77
-85 -66 -228 22 -288 41 -28 119 -39 164 -23 17 6 31 7 31 2 0 -5 -17 -49 -39
-97 -47 -109 -235 -675 -251 -760 -25 -129 7 -220 92 -262 49 -23 128 -28 175
-10 32 12 317 297 568 568 106 115 171 178 173 169 11 -54 -130 -678 -213
-948 -52 -167 -54 -177 -45 -215 15 -69 78 -115 155 -115 83 0 133 41 165 135
40 115 198 765 231 950 37 212 41 253 29 359 -15 146 -67 230 -158 256 -50 14
-82 13 -131 -5 -70 -24 -130 -72 -303 -244 -93 -90 -168 -162 -168 -159 0 3
34 77 76 164 97 203 134 312 134 395 0 173 -112 290 -275 288 -38 0 -77 -3
-85 -5z"/>
<path d="M3492 3344 c-83 -41 -130 -106 -171 -235 -30 -94 -42 -187 -31 -229
25 -93 110 -119 261 -81 117 29 200 74 259 138 60 65 74 106 67 190 -15 185
-218 300 -385 217z"/>
<path d="M4852 2720 c-190 -51 -312 -173 -312 -312 0 -21 -1 -38 -2 -38 -2 0
-25 11 -52 25 -122 62 -260 10 -322 -120 -28 -59 -30 -99 -7 -200 9 -41 13
-78 10 -81 -4 -4 -46 3 -94 15 -126 32 -244 38 -318 17 -111 -32 -191 -105
-231 -211 -27 -71 -24 -225 10 -460 33 -233 38 -250 77 -298 115 -140 343 -96
409 79 26 70 25 93 -6 264 -14 78 -24 144 -21 147 8 7 92 -25 152 -58 69 -39
118 -44 206 -24 175 39 264 147 292 353 10 78 5 167 -20 346 l-6 39 29 -22
c71 -56 178 -68 259 -30 147 69 251 362 180 509 -36 76 -107 94 -233 60z"/>
<path d="M2893 2425 c-84 -19 -221 -74 -388 -157 -144 -72 -186 -102 -212
-152 -22 -43 -13 -125 20 -175 l26 -40 -37 16 c-22 10 -66 17 -107 17 -84 1
-152 -30 -199 -87 -79 -98 -22 -277 102 -323 26 -10 48 -19 50 -20 2 -1 16
-59 33 -130 26 -117 28 -129 13 -137 -43 -24 -96 -84 -120 -135 -59 -124 -40
-286 48 -402 125 -166 224 -253 373 -324 153 -75 242 -98 385 -103 149 -6 222
8 346 66 65 31 88 47 109 80 51 76 44 168 -18 231 -75 77 -169 89 -294 39 -51
-21 -102 -33 -148 -36 -63 -5 -78 -2 -150 28 -44 18 -91 40 -104 48 l-24 15
44 16 c124 44 176 97 186 192 7 71 -19 134 -73 173 -140 103 -179 172 -224
400 -36 182 -60 248 -116 314 l-26 31 27 -10 c59 -22 106 -13 195 41 153 92
331 171 348 155 9 -10 -57 -197 -140 -393 -56 -133 -68 -172 -68 -216 0 -158
198 -233 315 -120 62 60 209 381 272 594 23 78 28 113 28 204 0 96 -3 116 -24
155 -30 58 -76 106 -126 133 -51 27 -227 34 -322 12z"/>
</g>
</svg>
