<?xml version="1.0" standalone="no"?>
<!DOCTYPE svg PUBLIC "-//W3C//DTD SVG 20010904//EN"
 "http://www.w3.org/TR/2001/REC-SVG-20010904/DTD/svg10.dtd">
<svg version="1.0" xmlns="http://www.w3.org/2000/svg"
 width="600.000000pt" height="600.000000pt" viewBox="0 0 600.000000 600.000000"
 preserveAspectRatio="xMidYMid meet">
<metadata>
Created by potrace 1.15, written by Peter Selinger 2001-2017
</metadata>
<g transform="translate(0.000000,600.000000) scale(0.100000,-0.100000)"
fill="#16364b" stroke="none">
<path d="M3112 5630 c-58 -36 -74 -104 -51 -226 31 -171 144 -289 392 -410 42
-21 77 -41 77 -45 0 -4 -33 -26 -72 -50 -175 -103 -475 -297 -509 -330 -27
-25 -40 -47 -45 -75 -5 -36 -11 -43 -62 -69 -93 -49 -126 -140 -82 -226 24
-47 72 -79 117 -79 17 0 67 14 110 31 74 30 138 44 297 68 60 8 75 15 105 46
34 34 36 39 36 104 0 60 -3 73 -25 96 l-25 27 21 17 c12 10 93 60 180 112 176
105 256 174 273 235 41 149 -44 272 -272 389 -200 104 -228 131 -246 243 -17
108 -67 162 -148 162 -21 0 -53 -9 -71 -20z"/>
<path d="M1305 5390 c-69 -15 -197 -101 -270 -182 -145 -160 -215 -340 -215
-550 0 -193 32 -286 110 -325 24 -13 56 -23 70 -23 84 0 167 93 156 175 -25
184 -17 253 46 375 50 97 124 182 196 222 67 38 92 77 92 141 0 110 -86 188
-185 167z"/>
<path d="M1550 5087 c-75 -18 -97 -31 -120 -77 -38 -75 -17 -163 49 -207 19
-13 47 -23 62 -23 34 0 35 -10 9 -69 -29 -63 -50 -151 -50 -207 0 -62 36 -140
81 -179 43 -36 129 -76 180 -82 22 -3 41 -9 44 -13 2 -3 -19 -15 -48 -25 -103
-36 -253 -118 -327 -178 -35 -28 -50 -62 -50 -116 0 -100 74 -183 165 -185 37
-1 55 8 131 60 119 82 222 133 307 150 88 19 123 37 147 77 23 38 26 106 6
145 -33 62 -114 108 -167 95 -19 -5 -18 -2 10 37 26 36 31 52 31 100 0 94 -62
160 -152 160 -21 0 -38 4 -38 8 0 4 19 62 42 127 54 157 57 228 13 301 -57 91
-189 132 -325 101z"/>
<path d="M4495 4579 c-81 -23 -116 -119 -76 -203 32 -66 71 -86 167 -87 136
-2 137 -6 28 -74 -53 -33 -114 -76 -137 -96 -36 -32 -40 -41 -44 -90 -5 -64 9
-94 56 -126 55 -37 100 -31 218 31 308 162 432 302 393 445 -31 115 -162 179
-400 196 -47 3 -105 7 -130 9 -25 2 -59 0 -75 -5z"/>
<path d="M3989 3720 c-83 -14 -134 -53 -164 -122 -36 -87 -4 -186 92 -288 141
-150 289 -195 408 -126 119 70 150 262 51 316 -19 10 -26 21 -26 44 -1 47 -35
113 -71 135 -51 31 -213 54 -290 41z"/>
<path d="M2495 3704 c-186 -45 -306 -119 -320 -196 -20 -104 54 -198 153 -198
16 0 78 23 138 52 77 36 125 53 163 56 l54 5 -7 -59 c-20 -171 -155 -451 -311
-644 -29 -36 -57 -75 -64 -87 -25 -48 -5 -130 43 -178 24 -24 25 -28 12 -53
-65 -130 15 -282 149 -282 40 0 75 11 161 49 106 48 275 111 296 111 19 0 -2
-52 -103 -259 -89 -183 -99 -210 -99 -259 0 -107 74 -182 180 -182 59 0 106
19 143 58 35 37 207 375 252 497 48 126 59 258 30 346 -26 76 -112 161 -185
183 -104 31 -246 13 -420 -55 -45 -17 -83 -29 -86 -26 -2 2 21 44 52 93 78
125 198 370 236 484 28 83 32 109 33 205 0 98 -3 116 -26 165 -33 70 -89 126
-159 159 -46 22 -71 26 -155 28 -61 1 -123 -3 -160 -13z"/>
<path d="M1109 3521 c-121 -39 -293 -146 -336 -209 -102 -152 56 -340 232
-277 21 8 41 13 42 11 2 -1 -13 -47 -33 -102 -149 -408 -168 -476 -185 -648
-27 -275 11 -356 179 -392 108 -23 123 -14 294 179 187 211 254 293 373 460
54 76 102 140 106 143 15 9 22 -47 15 -124 -9 -103 -19 -163 -76 -457 -63
-327 -73 -391 -74 -505 0 -79 3 -103 22 -141 40 -82 139 -114 208 -67 58 40
68 69 76 218 5 98 16 178 43 295 107 477 121 570 111 748 -17 331 -26 375 -89
437 -40 39 -88 54 -155 47 -103 -11 -207 -105 -427 -390 -66 -85 -121 -151
-123 -146 -2 5 32 118 76 251 92 281 107 342 100 437 -14 190 -184 294 -379
232z"/>
<path d="M3630 3247 c-26 -7 -62 -23 -82 -35 -123 -76 -228 -295 -188 -392 19
-47 73 -88 124 -95 55 -9 127 22 152 63 14 25 21 27 84 28 97 2 172 28 220 76
55 56 71 115 49 189 -37 121 -220 206 -359 166z"/>
<path d="M4632 3193 c-61 -30 -95 -109 -78 -179 4 -15 45 -63 97 -112 49 -46
98 -100 110 -119 l21 -34 -45 -48 c-65 -70 -74 -136 -26 -203 65 -90 179 -73
282 41 56 62 77 114 77 193 0 122 -60 229 -206 367 -117 111 -161 129 -232 94z"/>
<path d="M4511 2276 c-48 -17 -108 -71 -134 -119 -17 -34 -22 -58 -22 -124 l0
-82 -25 5 c-14 4 -50 12 -80 20 -254 62 -455 29 -570 -92 -98 -103 -119 -196
-119 -509 0 -215 7 -264 43 -304 24 -26 20 -30 -24 -20 -51 12 -109 -1 -161
-36 l-40 -26 -37 21 c-66 39 -236 168 -297 225 -91 85 -225 171 -287 185 -106
24 -202 -33 -238 -140 -11 -32 -21 -49 -24 -40 -13 38 -27 149 -36 300 -12
191 -26 234 -93 278 -31 20 -55 27 -106 30 -58 3 -71 0 -108 -24 -22 -15 -51
-45 -63 -67 -22 -38 -23 -46 -17 -226 8 -268 47 -447 137 -636 64 -134 175
-239 337 -316 128 -61 212 -54 281 25 38 44 46 84 37 181 -4 41 -4 75 0 75 3
0 50 -31 104 -70 117 -83 245 -152 325 -175 128 -37 261 -7 364 81 77 65 102
156 67 241 -8 20 -14 38 -11 40 2 2 23 -1 47 -6 93 -21 199 30 246 118 21 41
23 55 23 216 0 95 3 186 6 202 6 30 6 30 52 21 26 -4 80 -17 120 -28 93 -26
273 -28 353 -4 118 35 202 118 251 249 19 52 22 80 22 210 0 134 -2 155 -22
200 -29 63 -56 93 -107 116 -46 21 -142 24 -194 5z"/>
</g>
</svg>
