<?xml version="1.0" standalone="no"?>
<!DOCTYPE svg PUBLIC "-//W3C//DTD SVG 20010904//EN"
 "http://www.w3.org/TR/2001/REC-SVG-20010904/DTD/svg10.dtd">
<svg version="1.0" xmlns="http://www.w3.org/2000/svg"
 width="600.000000pt" height="600.000000pt" viewBox="0 0 600.000000 600.000000"
 preserveAspectRatio="xMidYMid meet">
<metadata>
Created by potrace 1.15, written by Peter Selinger 2001-2017
</metadata>
<g transform="translate(0.000000,600.000000) scale(0.100000,-0.100000)"
fill="#16364b" stroke="none">
<path d="M2376 5378 c-11 -18 -15 -77 -19 -243 -6 -240 -13 -285 -61 -390 -37
-80 -108 -152 -197 -199 -91 -49 -119 -73 -119 -106 0 -21 8 -35 26 -46 25
-17 28 -16 92 15 157 78 253 163 306 274 53 110 67 191 73 444 5 196 4 226
-11 248 -22 33 -70 34 -90 3z"/>
<path d="M3546 5291 c-9 -10 -19 -34 -23 -54 -11 -68 117 -270 198 -312 40
-21 85 -19 110 6 18 18 21 29 15 72 -6 58 -77 185 -136 244 -60 61 -132 80
-164 44z"/>
<path d="M3032 5077 c-109 -35 -207 -241 -158 -335 23 -45 59 -66 101 -59 108
18 267 210 252 304 -14 82 -98 121 -195 90z m65 -152 c-21 -43 -95 -125 -113
-125 -19 0 -17 28 6 75 25 53 41 71 76 90 40 20 52 5 31 -40z"/>
<path d="M4773 4740 c-50 -20 -55 -44 -55 -262 0 -215 11 -312 43 -364 45 -73
144 -72 190 3 47 76 44 263 -7 425 -39 125 -69 177 -109 194 -19 8 -36 14 -37
13 -2 0 -13 -4 -25 -9z"/>
<path d="M2643 4225 c-79 -34 -94 -137 -31 -203 96 -98 333 -141 462 -83 75
33 99 112 51 169 -19 22 -50 37 -141 66 -201 65 -282 77 -341 51z"/>
<path d="M5204 3970 c-79 -26 -144 -83 -174 -151 -18 -44 -21 -66 -18 -143 5
-149 66 -250 190 -317 56 -30 71 -33 138 -33 66 0 83 5 138 34 106 56 172 151
192 277 22 133 -34 235 -174 313 -50 28 -69 33 -145 36 -67 3 -100 0 -147 -16z
m150 -290 c33 -12 33 -25 0 -47 -25 -16 -27 -16 -40 2 -18 25 -18 55 0 55 8 0
26 -4 40 -10z"/>
<path d="M1262 3751 c-71 -24 -121 -66 -157 -132 -26 -46 -30 -64 -29 -124 1
-150 99 -266 287 -340 48 -20 78 -39 103 -69 44 -51 102 -169 154 -313 70
-199 96 -323 130 -638 47 -428 124 -644 280 -788 55 -51 166 -117 197 -117 19
0 16 -14 -7 -35 -27 -24 -44 -85 -36 -127 7 -41 36 -71 88 -93 49 -20 213 -20
373 0 170 21 247 20 269 -4 10 -11 15 -25 11 -31 -10 -16 14 -79 35 -90 37
-20 87 -12 110 18 18 22 21 37 18 84 -5 64 -28 105 -91 156 l-41 33 310 -5
c170 -3 338 -8 374 -11 38 -4 117 0 190 9 121 15 125 15 145 -4 28 -26 104
-40 158 -28 46 9 85 39 112 86 14 23 31 31 108 51 239 60 399 146 556 296 95
90 150 163 200 261 114 225 112 451 -9 699 -84 175 -163 260 -302 325 -130 61
-284 75 -424 40 -120 -31 -190 -69 -293 -158 -181 -157 -428 -249 -699 -259
-169 -7 -306 24 -467 104 -166 83 -262 172 -429 393 -326 431 -465 579 -641
682 -63 36 -250 110 -339 134 -72 19 -180 17 -244 -5z m222 -272 c286 -97 411
-201 701 -584 238 -314 362 -438 551 -551 239 -143 486 -204 708 -175 206 28
508 125 659 213 37 22 101 69 142 104 41 36 100 77 132 92 51 24 70 27 158 27
85 0 107 -4 148 -24 125 -61 241 -250 254 -411 10 -122 -42 -265 -142 -392
-107 -137 -266 -219 -592 -307 -252 -68 -230 -66 -783 -66 -600 1 -833 16
-1042 71 -245 63 -317 210 -383 784 -42 364 -93 584 -180 776 -91 201 -193
304 -362 368 -78 29 -123 59 -123 81 0 33 44 31 154 -6z m1291 -2319 c17 -6
15 -8 -15 -14 -67 -11 -324 -35 -329 -31 -11 11 15 17 150 35 168 21 168 21
194 10z"/>
<path d="M2302 2400 c-29 -28 -28 -56 4 -85 35 -32 67 -32 93 1 26 33 27 58 1
84 -26 26 -70 26 -98 0z"/>
<path d="M2841 2031 c-30 -30 -26 -65 9 -94 37 -32 62 -26 86 19 17 31 17 37
4 62 -20 36 -70 42 -99 13z"/>
<path d="M4164 3754 c-72 -22 -142 -79 -173 -139 -37 -72 -41 -188 -10 -270
28 -75 114 -165 175 -183 206 -60 398 93 397 318 -1 87 -25 176 -59 211 -64
66 -221 97 -330 63z m116 -279 c0 -17 -35 -55 -50 -55 -16 0 -12 37 6 54 20
20 44 21 44 1z"/>
<path d="M3484 3370 c-12 -5 -33 -24 -47 -42 -34 -45 -147 -273 -147 -297 0
-28 27 -51 60 -51 79 0 255 303 212 366 -6 10 -47 35 -54 33 -2 0 -13 -4 -24
-9z"/>
<path d="M461 2031 c-36 -36 -27 -61 46 -129 118 -111 242 -164 298 -128 36
23 34 66 -5 103 -33 30 -257 159 -295 169 -16 4 -30 -1 -44 -15z"/>
<path d="M5327 1100 c-41 -33 -75 -156 -58 -216 15 -55 47 -84 92 -84 78 0
129 83 129 207 0 55 -4 68 -25 88 -31 32 -100 35 -138 5z"/>
</g>
</svg>
