<?xml version="1.0" standalone="no"?>
<!DOCTYPE svg PUBLIC "-//W3C//DTD SVG 20010904//EN"
 "http://www.w3.org/TR/2001/REC-SVG-20010904/DTD/svg10.dtd">
<svg version="1.0" xmlns="http://www.w3.org/2000/svg"
 width="600.000000pt" height="600.000000pt" viewBox="0 0 600.000000 600.000000"
 preserveAspectRatio="xMidYMid meet">
<metadata>
Created by potrace 1.15, written by Peter Selinger 2001-2017
</metadata>
<g transform="translate(0.000000,600.000000) scale(0.100000,-0.100000)"
fill="#16364b" stroke="none">
<path d="M2077 5186 c-60 -22 -113 -62 -156 -116 -74 -93 -89 -187 -62 -370
12 -76 15 -266 17 -970 1 -481 -1 -905 -4 -942 l-5 -68 -101 -54 c-130 -70
-385 -197 -459 -230 l-57 -25 -16 25 c-25 38 -48 32 -40 -11 l7 -35 -45 19
c-24 11 -47 17 -50 14 -12 -13 -5 -34 19 -55 28 -24 24 -38 -9 -38 -13 0 -29
-7 -37 -16 -17 -20 2 -33 51 -34 l35 -1 -27 -22 c-33 -27 -36 -47 -7 -47 24 0
159 39 174 51 6 4 34 17 63 28 79 32 255 121 370 189 56 34 102 58 102 54 1
-4 1 -73 0 -154 0 -81 4 -187 10 -235 25 -192 104 -463 173 -598 91 -176 265
-294 475 -320 l53 -7 -8 -36 c-13 -61 -7 -223 11 -292 9 -36 39 -134 66 -218
28 -84 50 -163 50 -176 0 -23 -3 -24 -94 -28 -108 -4 -141 -20 -165 -81 -12
-32 -11 -40 5 -74 33 -66 110 -83 227 -49 111 32 187 120 187 216 0 25 -19
106 -41 180 -81 265 -91 309 -92 415 0 55 3 111 7 124 7 21 12 23 55 17 167
-22 336 -30 616 -30 l320 -1 0 -150 c0 -170 20 -285 82 -457 19 -54 32 -105
29 -113 -4 -12 -26 -15 -100 -15 -86 0 -97 -2 -124 -25 -39 -33 -48 -74 -27
-115 45 -86 253 -84 352 3 72 63 79 124 29 253 -82 212 -113 429 -83 574 l12
54 105 12 c58 7 148 17 200 23 189 22 262 50 347 137 122 126 196 384 197 694
0 152 0 157 -33 245 -69 187 -132 284 -270 419 -45 43 -81 80 -81 82 0 2 125
2 278 0 l277 -3 65 28 c64 27 86 53 59 70 -11 6 -11 11 -2 20 14 14 6 39 -13
39 -12 0 -12 4 -4 20 14 26 -11 38 -46 21 -37 -16 -52 -14 -56 11 -5 34 -27
33 -39 -1 -7 -21 -20 -34 -37 -38 -46 -13 -551 -9 -636 5 -70 11 -85 17 -140
60 -85 68 -216 155 -386 257 -416 250 -470 286 -576 390 -150 147 -230 281
-357 595 -77 192 -123 333 -163 498 -19 79 -46 168 -60 197 -60 128 -182 215
-308 222 -45 2 -85 -2 -109 -11z m134 -157 c86 -29 146 -118 173 -254 40 -208
210 -652 333 -869 100 -176 243 -338 387 -439 62 -43 439 -284 511 -327 90
-53 234 -147 290 -189 105 -80 317 -260 399 -339 104 -101 147 -159 190 -259
60 -135 70 -189 62 -338 -12 -264 -65 -456 -149 -543 -58 -60 -100 -72 -325
-97 -411 -46 -721 -54 -1077 -29 -115 9 -250 15 -300 14 -123 -1 -258 21 -329
55 -92 44 -178 131 -231 236 -54 109 -109 277 -131 401 -23 129 -21 361 5 558
17 128 21 218 22 515 1 198 2 387 2 420 0 33 -2 251 -6 485 -6 407 -13 553
-38 740 -15 112 -3 160 56 217 54 51 94 62 156 42z"/>
<path d="M2630 2780 c-29 -29 -25 -64 11 -94 37 -32 52 -32 79 -4 40 43 12
118 -45 118 -14 0 -34 -9 -45 -20z"/>
<path d="M3092 2688 c-25 -33 -24 -58 7 -88 36 -36 54 -38 86 -5 29 28 31 51
9 83 -17 25 -84 31 -102 10z"/>
<path d="M2951 1807 c-6 -6 -11 -23 -11 -38 0 -39 52 -62 122 -53 62 8 78 18
78 49 0 12 -6 27 -12 32 -20 16 -164 23 -177 10z"/>
<path d="M5240 3977 c-75 -18 -111 -38 -158 -92 -81 -92 -91 -231 -27 -374 36
-78 113 -152 186 -176 159 -53 369 51 429 212 45 120 13 264 -74 339 -100 86
-232 119 -356 91z m149 -324 c9 -7 -33 -43 -50 -43 -23 0 -38 48 -19 60 11 7
49 -3 69 -17z"/>
</g>
</svg>
