<?xml version="1.0" standalone="no"?>
<!DOCTYPE svg PUBLIC "-//W3C//DTD SVG 20010904//EN"
 "http://www.w3.org/TR/2001/REC-SVG-20010904/DTD/svg10.dtd">
<svg version="1.0" xmlns="http://www.w3.org/2000/svg"
 width="600.000000pt" height="600.000000pt" viewBox="0 0 600.000000 600.000000"
 preserveAspectRatio="xMidYMid meet">
<metadata>
Created by potrace 1.15, written by Peter Selinger 2001-2017
</metadata>
<g transform="translate(0.000000,600.000000) scale(0.100000,-0.100000)"
fill="#16364b" stroke="none">
<path d="M2253 5448 c-62 -44 -122 -226 -108 -328 10 -71 56 -144 112 -177 46
-27 54 -28 178 -28 76 0 152 6 183 14 29 7 55 11 58 9 2 -3 -42 -76 -99 -164
-57 -87 -118 -184 -135 -214 -38 -68 -100 -228 -108 -280 -8 -49 9 -100 45
-134 29 -27 29 -29 14 -64 -32 -76 4 -158 83 -188 l45 -17 192 51 c195 52 256
64 497 102 161 25 199 44 225 115 15 38 16 52 6 85 -14 48 -53 87 -102 101
-41 13 -208 -12 -538 -78 -95 -19 -176 -32 -179 -28 -3 3 15 48 41 100 45 91
86 159 252 425 91 145 115 201 115 270 0 61 -17 104 -60 154 -77 87 -178 104
-379 62 -69 -14 -127 -24 -129 -21 -2 2 4 24 13 49 20 51 15 94 -14 142 -38
63 -147 85 -208 42z"/>
<path d="M3850 5046 c-91 -27 -187 -75 -219 -110 -17 -18 -25 -41 -29 -77 -9
-91 41 -149 133 -157 42 -3 62 1 111 26 77 38 161 57 181 40 35 -28 -12 -212
-102 -404 -50 -108 -56 -151 -25 -202 30 -49 76 -74 130 -69 25 2 53 7 63 11
15 7 16 5 7 -19 -23 -60 -10 -116 38 -167 47 -50 73 -52 246 -19 155 31 287
40 316 21 32 -20 12 -179 -52 -400 -34 -117 -33 -161 2 -211 55 -76 184 -78
238 -2 52 73 122 378 122 529 0 159 -46 258 -152 328 -86 56 -151 70 -298 63
-112 -6 -347 -47 -402 -71 -13 -6 -3 26 38 119 30 70 71 173 91 229 34 94 36
109 37 221 1 109 -1 125 -24 170 -77 156 -246 213 -450 151z"/>
<path d="M1788 4949 c-228 -33 -471 -140 -604 -264 -49 -46 -54 -55 -54 -92 0
-57 11 -80 62 -135 23 -26 56 -63 71 -82 31 -38 71 -55 192 -81 229 -47 368
-99 448 -167 34 -29 46 -33 96 -33 93 0 155 54 167 147 15 118 -146 244 -386
303 -58 14 -113 25 -123 25 -71 0 102 78 193 87 92 10 145 44 175 117 29 68
-4 141 -75 170 -43 17 -73 18 -162 5z"/>
<path d="M2101 3908 c-108 -38 -347 -77 -471 -78 -48 0 -78 -6 -110 -22 -113
-57 -116 -220 -6 -272 89 -42 490 6 706 85 93 34 130 80 130 160 0 49 -19 88
-60 123 -26 21 -41 26 -83 25 -29 -1 -76 -10 -106 -21z"/>
<path d="M3673 3715 c-61 -17 -217 -94 -398 -198 -148 -85 -175 -114 -175
-186 0 -123 123 -189 235 -126 25 13 80 44 122 68 43 25 111 61 151 81 60 30
72 33 72 19 0 -9 -26 -80 -57 -157 -62 -152 -70 -201 -38 -249 48 -75 165 -77
232 -5 25 26 139 260 172 353 66 183 34 323 -89 388 -60 31 -139 35 -227 12z"/>
<path d="M2175 3289 c-65 -11 -133 -27 -150 -37 -35 -20 -75 -93 -75 -137 0
-43 30 -96 69 -122 40 -27 82 -29 226 -8 127 19 225 20 225 2 0 -6 -9 -43 -20
-81 -16 -57 -18 -77 -9 -110 29 -109 170 -158 247 -86 73 68 115 298 76 413
-22 64 -82 129 -146 158 -74 33 -271 36 -443 8z"/>
<path d="M4231 3175 c-18 -8 -61 -41 -95 -73 -92 -85 -343 -211 -523 -261
-126 -36 -182 -104 -170 -208 9 -81 81 -130 176 -118 151 18 458 152 616 269
115 85 202 177 211 221 11 59 -2 106 -40 144 -29 29 -43 35 -88 38 -33 2 -66
-2 -87 -12z"/>
<path d="M4894 3141 c-53 -24 -92 -64 -117 -120 -17 -38 -19 -57 -13 -137 l7
-93 -60 -43 c-33 -24 -93 -66 -133 -95 -193 -138 -279 -279 -307 -500 -17
-137 13 -293 74 -385 74 -112 148 -161 239 -160 64 1 94 12 141 54 50 44 75
99 75 171 0 63 -13 101 -54 161 -29 43 -34 93 -14 158 14 49 69 99 209 193
132 88 208 164 251 252 33 68 33 69 33 213 0 130 -3 150 -24 197 -26 58 -84
117 -137 139 -46 19 -121 17 -170 -5z"/>
<path d="M1210 3047 c-51 -17 -114 -84 -129 -139 -24 -83 10 -179 79 -224 22
-14 42 -34 45 -43 2 -9 12 -124 20 -256 23 -358 34 -440 81 -586 27 -83 64
-130 122 -155 73 -30 168 -8 224 52 55 59 62 128 23 236 -35 98 -34 104 18 73
53 -30 110 -33 153 -6 34 21 44 32 105 129 45 72 125 162 144 162 7 0 18 -14
24 -32 6 -18 20 -42 31 -53 19 -20 19 -24 5 -71 -33 -113 -49 -229 -69 -525
-6 -89 10 -131 63 -166 74 -50 205 -7 253 81 6 11 16 103 24 205 8 128 21 220
39 296 29 120 27 150 -9 205 -16 24 -25 55 -28 95 -3 38 -14 80 -32 115 -83
167 -248 228 -410 152 -105 -49 -227 -176 -316 -329 -23 -38 -41 -60 -44 -52
-2 8 -9 118 -15 244 -12 254 -26 340 -71 432 -66 134 -203 200 -330 160z"/>
<path d="M3501 2259 c-46 -5 -163 -25 -260 -45 -97 -19 -250 -48 -339 -64
-136 -24 -170 -34 -199 -56 -93 -71 -95 -220 -4 -297 58 -48 89 -50 266 -17
263 50 563 100 598 100 28 0 35 -5 45 -34 7 -19 28 -48 47 -65 157 -137 383
48 321 262 -49 169 -215 245 -475 216z"/>
<path d="M4465 1550 c-23 -11 -58 -38 -79 -60 -47 -49 -84 -60 -216 -60 -408
-1 -588 -60 -838 -275 -60 -51 -120 -108 -135 -127 -18 -22 -42 -38 -70 -45
-23 -7 -70 -34 -105 -63 -78 -62 -106 -77 -171 -91 -136 -29 -322 88 -466 291
-64 90 -78 104 -130 125 -132 56 -275 -85 -236 -232 30 -111 213 -320 374
-427 162 -108 273 -146 427 -146 180 0 311 55 450 187 48 46 95 83 104 83 28
0 73 28 138 86 124 111 286 205 403 234 28 6 138 15 245 20 222 9 287 24 386
88 69 45 140 119 160 167 34 82 3 197 -65 242 -44 30 -120 31 -176 3z"/>
</g>
</svg>
