<?xml version="1.0" standalone="no"?>
<!DOCTYPE svg PUBLIC "-//W3C//DTD SVG 20010904//EN"
 "http://www.w3.org/TR/2001/REC-SVG-20010904/DTD/svg10.dtd">
<svg version="1.0" xmlns="http://www.w3.org/2000/svg"
 width="600.000000pt" height="600.000000pt" viewBox="0 0 600.000000 600.000000"
 preserveAspectRatio="xMidYMid meet">
<metadata>
Created by potrace 1.15, written by Peter Selinger 2001-2017
</metadata>
<g transform="translate(0.000000,600.000000) scale(0.100000,-0.100000)"
fill="#16364b" stroke="none">
<path d="M2224 5776 c-134 -60 -626 -486 -713 -617 -88 -131 -62 -258 64 -315
98 -45 266 -41 470 11 84 21 413 135 498 172 141 61 117 263 -35 304 -39 10
-55 6 -262 -61 -265 -86 -246 -81 -246 -74 0 14 192 176 322 273 104 77 131
112 131 173 0 99 -134 178 -229 134z"/>
<path d="M3106 5690 c-63 -20 -106 -83 -106 -155 0 -85 39 -123 145 -145 211
-43 340 -124 381 -237 19 -55 17 -152 -5 -222 -36 -117 -119 -194 -251 -235
-30 -10 -74 -24 -97 -32 -110 -40 -112 -202 -3 -256 97 -49 308 12 426 124
140 132 244 357 244 528 0 145 -66 304 -173 417 -85 89 -199 149 -357 187
-136 33 -169 37 -204 26z"/>
<path d="M975 5288 c-157 -82 -264 -177 -315 -282 -28 -57 -32 -75 -32 -145 1
-151 84 -326 213 -445 74 -69 112 -89 165 -89 138 0 208 174 106 265 -129 116
-167 174 -159 246 6 55 36 88 145 159 92 59 121 103 122 176 1 130 -114 184
-245 115z"/>
<path d="M4744 4920 c-37 -24 -84 -120 -84 -171 0 -57 27 -206 50 -275 61
-184 206 -288 357 -256 149 31 256 169 238 308 -18 148 -143 277 -364 375 -98
44 -150 49 -197 19z"/>
<path d="M2674 4870 c-153 -94 -228 -179 -266 -304 -67 -221 71 -432 332 -510
78 -23 129 -21 171 8 91 62 92 214 2 259 -15 8 -60 24 -100 36 -162 48 -160
149 6 266 84 59 111 99 111 166 0 81 -47 129 -128 129 -40 0 -61 -8 -128 -50z"/>
<path d="M1813 4375 c-67 -18 -136 -54 -199 -100 -92 -69 -134 -130 -134 -196
0 -86 69 -151 159 -151 60 0 97 19 140 72 35 44 117 90 161 90 14 0 43 -10 65
-22 26 -14 58 -22 92 -22 43 0 58 5 90 30 69 56 81 149 27 213 -14 17 -55 45
-91 63 -59 29 -77 33 -162 35 -62 2 -115 -2 -148 -12z"/>
<path d="M2660 3819 c-96 -11 -217 -38 -252 -55 -83 -43 -102 -164 -37 -239
48 -54 88 -62 196 -36 50 12 125 24 167 27 88 8 88 9 52 -78 -33 -82 -117
-202 -256 -368 -192 -230 -238 -294 -245 -344 -9 -58 7 -104 50 -146 27 -26
44 -34 84 -38 74 -7 102 10 172 102 35 44 115 144 179 221 213 257 267 339
320 484 55 151 37 289 -50 379 -45 46 -118 80 -197 92 -76 11 -79 11 -183 -1z"/>
<path d="M4330 3798 c-153 -11 -269 -57 -339 -134 -62 -67 -86 -124 -85 -210
0 -121 70 -230 186 -291 45 -23 65 -28 133 -28 69 0 87 4 131 28 59 33 132
102 176 165 40 58 117 222 133 283 19 71 0 138 -49 170 -27 17 -175 26 -286
17z m-90 -343 c-24 -26 -45 -32 -55 -15 -6 10 41 39 64 40 10 0 7 -8 -9 -25z"/>
<path d="M1184 3709 c-28 -5 -89 -22 -135 -39 -213 -79 -273 -131 -274 -238 0
-75 25 -123 83 -162 36 -24 56 -30 99 -30 30 0 63 5 74 10 26 15 25 6 -22
-101 -76 -176 -208 -518 -251 -651 -34 -107 -42 -148 -43 -208 0 -92 20 -126
97 -164 58 -29 151 -35 200 -13 66 29 367 322 611 595 71 79 131 141 134 138
8 -7 -11 -105 -79 -411 -42 -189 -80 -331 -129 -475 -38 -113 -69 -222 -69
-244 0 -45 33 -109 69 -133 62 -40 140 -34 187 16 17 18 54 102 106 237 99
262 119 330 163 562 19 103 47 247 62 320 53 271 9 462 -120 527 -89 44 -167
28 -277 -54 -60 -46 -203 -187 -293 -289 -21 -24 -41 -42 -43 -39 -2 2 29 82
70 178 41 96 84 206 95 244 25 80 30 181 12 242 -36 129 -177 208 -327 182z"/>
<path d="M3560 3361 c-92 -30 -174 -104 -215 -194 -55 -120 -70 -253 -36 -317
52 -99 205 -107 386 -20 102 49 157 97 191 166 23 47 26 63 22 117 -8 100 -61
178 -150 223 -53 27 -154 40 -198 25z"/>
<path d="M4838 2684 c-160 -38 -253 -126 -281 -264 l-13 -61 -24 19 c-37 28
-106 52 -148 52 -86 -1 -178 -77 -206 -171 -20 -67 -20 -103 4 -214 10 -49 17
-92 14 -94 -2 -2 -39 10 -81 27 -117 46 -226 65 -300 53 -76 -12 -113 -31
-176 -89 -79 -75 -111 -151 -127 -307 -16 -154 21 -439 69 -534 75 -145 273
-160 385 -29 56 65 61 95 46 261 -18 204 -24 194 90 141 106 -49 141 -53 255
-29 142 30 232 99 277 214 19 48 22 75 22 201 1 80 -3 177 -7 216 l-8 71 58
-29 c52 -27 65 -29 126 -25 57 4 76 10 123 41 89 59 146 169 166 321 10 75 9
84 -13 140 -39 98 -111 124 -251 89z"/>
<path d="M2935 2430 c-65 -14 -181 -58 -318 -122 -259 -119 -306 -156 -326
-247 -8 -40 -8 -60 2 -89 l13 -38 -80 0 c-72 1 -89 -3 -148 -32 -79 -38 -123
-87 -136 -149 -24 -111 46 -212 160 -231 l43 -7 27 -110 c15 -61 27 -119 27
-131 1 -12 -14 -31 -37 -49 -93 -69 -141 -171 -142 -296 0 -147 58 -264 215
-428 83 -87 139 -123 286 -187 136 -59 234 -84 329 -84 93 0 162 17 274 69
163 75 220 137 220 237 0 69 -32 116 -102 150 -71 36 -139 31 -247 -19 -112
-50 -155 -59 -221 -41 -67 17 -173 68 -214 103 l-32 26 55 -3 c67 -4 126 19
187 74 50 45 70 87 70 145 0 54 -25 104 -68 137 -135 103 -170 164 -237 422
-26 97 -61 205 -80 243 l-33 67 50 0 c42 0 78 14 241 94 200 97 263 124 272
114 15 -14 -90 -273 -184 -454 -59 -114 -66 -167 -30 -242 52 -107 211 -138
298 -59 41 37 223 433 286 624 64 191 48 320 -53 421 -64 64 -137 94 -240 98
-48 2 -105 -1 -127 -6z"/>
</g>
</svg>
