<?xml version="1.0" standalone="no"?>
<!DOCTYPE svg PUBLIC "-//W3C//DTD SVG 20010904//EN"
 "http://www.w3.org/TR/2001/REC-SVG-20010904/DTD/svg10.dtd">
<svg version="1.0" xmlns="http://www.w3.org/2000/svg"
 width="600.000000pt" height="600.000000pt" viewBox="0 0 600.000000 600.000000"
 preserveAspectRatio="xMidYMid meet">
<metadata>
Created by potrace 1.15, written by Peter Selinger 2001-2017
</metadata>
<g transform="translate(0.000000,600.000000) scale(0.100000,-0.100000)"
fill="#16364b" stroke="none">
<path d="M2319 5447 c-43 -29 -70 -69 -108 -162 -40 -96 -50 -179 -27 -239 19
-50 77 -107 133 -132 56 -25 203 -23 326 5 54 12 103 21 108 19 6 -2 -24 -50
-66 -107 -174 -236 -239 -344 -310 -514 -36 -89 -43 -145 -24 -194 6 -15 12
-53 13 -83 1 -63 23 -101 73 -125 44 -21 63 -20 290 25 215 42 482 80 564 80
115 0 184 74 164 176 -8 45 -57 100 -101 114 -44 15 -202 1 -468 -41 -104 -16
-191 -27 -194 -25 -13 13 169 334 285 504 91 132 117 183 128 248 20 123 -91
252 -232 270 -60 7 -149 -6 -275 -43 -49 -14 -92 -22 -95 -19 -4 3 1 22 10 41
23 49 22 120 -3 160 -39 64 -130 84 -191 42z"/>
<path d="M1728 4995 c-75 -19 -170 -62 -258 -119 -108 -70 -308 -224 -324
-249 -21 -34 -28 -80 -16 -113 20 -51 81 -131 113 -148 18 -9 91 -28 162 -42
236 -47 368 -99 439 -173 102 -108 276 -36 276 114 0 20 -9 53 -19 74 -24 46
-113 129 -178 166 -52 28 -180 69 -256 80 -26 4 -47 10 -47 14 0 15 140 81
213 100 88 24 103 32 136 73 48 60 45 141 -6 190 -53 50 -123 60 -235 33z"/>
<path d="M3965 4964 c-145 -32 -308 -116 -338 -174 -46 -89 19 -204 129 -224
30 -6 52 1 147 48 106 53 168 69 195 52 19 -11 14 -130 -8 -226 -12 -47 -45
-136 -75 -199 -63 -130 -69 -177 -32 -232 12 -18 40 -43 61 -55 28 -16 43 -33
52 -61 7 -21 26 -48 41 -60 45 -36 86 -37 213 -3 140 36 312 58 355 43 23 -7
31 -16 33 -40 4 -41 -39 -251 -83 -403 -26 -91 -34 -135 -30 -160 14 -76 62
-121 135 -128 55 -5 99 14 128 55 21 30 109 325 138 463 36 177 18 309 -55
392 -74 84 -178 114 -351 104 -93 -6 -149 -13 -294 -41 -32 -6 -38 -5 -33 6
108 256 139 424 106 581 -44 206 -217 310 -434 262z"/>
<path d="M2052 3915 c-134 -46 -271 -74 -402 -82 -58 -3 -117 -12 -132 -19
-43 -22 -78 -76 -84 -130 -7 -62 25 -127 77 -157 35 -20 41 -21 150 -9 149 17
309 52 462 102 156 50 189 79 194 167 3 45 0 65 -16 90 -49 77 -107 86 -249
38z"/>
<path d="M3722 3705 c-116 -33 -516 -231 -560 -278 -71 -76 -29 -208 74 -236
54 -15 72 -8 282 100 99 52 184 91 188 86 9 -8 -33 -107 -123 -292 -64 -132
-74 -174 -53 -229 8 -22 6 -27 -19 -42 -96 -57 -79 -226 27 -271 83 -35 261 6
457 104 282 141 450 302 430 411 -14 75 -59 128 -120 142 -63 14 -102 -5 -185
-89 -90 -93 -250 -204 -267 -187 -3 3 22 69 55 148 130 311 155 404 133 486
-34 121 -176 187 -319 147z"/>
<path d="M2315 3336 c-5 -2 -66 -12 -134 -22 -137 -20 -174 -37 -204 -94 -39
-75 3 -179 89 -220 l47 -23 156 21 c178 25 230 27 236 9 3 -6 -8 -54 -25 -105
-27 -83 -29 -99 -19 -135 28 -106 158 -141 243 -66 41 35 78 124 102 239 34
171 -19 298 -153 365 -54 27 -67 29 -193 32 -74 1 -139 1 -145 -1z"/>
<path d="M1167 3056 c-84 -31 -121 -90 -115 -181 5 -76 35 -122 103 -155 l45
-22 0 -196 c0 -387 38 -653 107 -754 30 -44 111 -88 162 -88 78 1 156 60 181
136 13 40 9 83 -14 158 -15 45 -15 48 2 41 28 -12 99 -18 126 -11 39 10 80 50
121 121 45 75 136 189 164 204 17 9 23 5 44 -34 l26 -45 -24 -133 c-31 -168
-59 -420 -51 -465 6 -43 41 -95 77 -116 40 -24 109 -21 149 7 55 36 67 69 85
227 10 80 32 219 51 309 31 155 32 166 18 205 -8 22 -22 68 -30 100 -20 81
-70 171 -117 211 -166 143 -440 42 -617 -228 -51 -77 -60 -86 -64 -66 -3 13
-7 134 -8 269 -4 277 -12 320 -77 407 -54 72 -125 106 -226 110 -52 2 -93 -2
-118 -11z"/>
<path d="M4854 3046 c-48 -22 -86 -60 -113 -114 -15 -29 -18 -91 -8 -164 l8
-56 -123 -73 c-127 -74 -220 -138 -251 -174 -47 -53 -100 -146 -124 -219 -36
-110 -38 -269 -4 -365 45 -131 112 -235 183 -288 l30 -22 -43 -11 c-29 -8 -61
-30 -102 -68 l-59 -57 -227 -1 c-238 -1 -321 -12 -438 -56 -118 -44 -269 -170
-382 -321 -28 -37 -52 -58 -71 -62 -16 -4 -52 -30 -82 -61 -107 -110 -195
-129 -315 -69 -101 50 -191 138 -277 269 -99 149 -123 168 -208 168 -110 0
-208 -92 -216 -203 -4 -51 0 -64 28 -113 80 -142 252 -329 368 -403 79 -51
190 -100 264 -118 36 -8 111 -15 174 -15 179 0 278 40 399 164 33 33 74 67 90
74 17 8 74 61 129 118 103 110 175 165 263 202 93 40 144 44 319 31 187 -14
239 -8 349 45 84 39 185 129 214 190 40 82 22 188 -40 240 -33 28 -36 36 -11
36 28 1 105 39 135 68 49 46 71 100 72 173 0 57 -4 72 -32 115 -60 91 -66 108
-59 158 10 63 39 93 153 162 131 78 189 121 246 183 94 101 129 226 108 384
-19 148 -56 211 -146 253 -66 31 -134 31 -201 0z"/>
<path d="M3415 2298 c-141 -11 -681 -121 -713 -145 -134 -100 -123 -277 22
-337 54 -23 29 -26 406 49 129 25 271 49 316 52 l80 6 12 -40 c21 -72 120
-143 197 -143 71 0 142 46 177 113 32 64 30 175 -5 248 -75 155 -230 217 -492
197z"/>
</g>
</svg>
