<?xml version="1.0" standalone="no"?>
<!DOCTYPE svg PUBLIC "-//W3C//DTD SVG 20010904//EN"
 "http://www.w3.org/TR/2001/REC-SVG-20010904/DTD/svg10.dtd">
<svg version="1.0" xmlns="http://www.w3.org/2000/svg"
 width="600.000000pt" height="600.000000pt" viewBox="0 0 600.000000 600.000000"
 preserveAspectRatio="xMidYMid meet">
<metadata>
Created by potrace 1.15, written by Peter Selinger 2001-2017
</metadata>
<g transform="translate(0.000000,600.000000) scale(0.100000,-0.100000)"
fill="#16364b" stroke="none">
<path d="M3090 5648 c-34 -17 -51 -35 -69 -71 -21 -42 -22 -52 -12 -92 28
-110 128 -267 217 -341 26 -21 99 -71 163 -110 63 -39 117 -76 119 -82 5 -15
-56 -71 -153 -144 -65 -49 -157 -107 -375 -238 -8 -5 -53 -27 -100 -49 -182
-84 -257 -223 -180 -331 30 -43 75 -62 150 -67 49 -3 73 0 100 14 39 20 80 75
80 108 0 27 25 39 126 60 100 20 137 44 160 99 13 30 30 49 58 66 121 68 298
195 352 252 77 80 105 135 112 214 10 133 -58 223 -263 346 -149 89 -196 133
-240 220 -19 39 -35 76 -35 82 0 18 -50 63 -83 75 -43 17 -78 13 -127 -11z"/>
<path d="M1180 5329 c-239 -129 -370 -359 -370 -649 0 -243 66 -370 192 -370
61 0 111 23 139 62 33 46 35 95 5 181 -73 211 13 414 223 529 40 22 75 96 67
142 -23 122 -138 170 -256 105z"/>
<path d="M1636 5216 c-46 -27 -75 -77 -75 -126 -1 -36 29 -113 47 -124 6 -3
-10 -52 -39 -118 -54 -126 -68 -200 -50 -268 35 -131 160 -187 399 -178 101 3
123 7 155 27 101 62 93 217 -15 272 -40 20 -94 21 -190 3 -38 -7 -36 1 18 130
85 202 66 341 -53 392 -53 23 -151 18 -197 -10z"/>
<path d="M4565 4655 c-97 -53 -125 -150 -65 -219 32 -36 70 -49 184 -61 32 -4
54 -11 50 -15 -5 -5 -42 -13 -83 -19 -81 -11 -113 -28 -148 -81 -29 -42 -29
-91 -1 -142 48 -85 132 -102 297 -59 220 57 334 151 348 285 14 139 -112 259
-317 300 -128 25 -230 30 -265 11z"/>
<path d="M1828 4266 c-104 -23 -216 -82 -319 -167 -78 -66 -99 -100 -99 -165
0 -87 72 -164 152 -164 48 0 69 11 131 66 26 23 81 59 123 79 63 31 92 38 166
45 100 8 131 24 160 81 42 82 11 174 -72 217 -51 25 -146 29 -242 8z"/>
<path d="M2495 3731 c-211 -57 -268 -103 -268 -216 0 -135 103 -189 246 -129
111 47 227 69 241 45 11 -17 -26 -128 -79 -236 -47 -99 -210 -354 -301 -474
-48 -62 -61 -110 -44 -163 15 -51 76 -113 120 -123 l32 -7 -29 -18 c-146 -88
-125 -288 36 -345 77 -27 114 -20 276 51 165 72 256 107 263 99 12 -11 -78
-251 -139 -374 -91 -180 -92 -232 -5 -309 62 -54 167 -56 239 -5 86 60 197
323 267 636 17 72 21 118 18 175 -6 93 -29 143 -92 199 -116 102 -301 97 -596
-14 -58 -22 -107 -39 -109 -37 -2 2 12 25 32 52 67 93 209 327 257 422 59 115
100 218 131 325 30 105 33 252 5 307 -26 54 -72 97 -136 127 -48 22 -70 26
-175 28 -93 2 -136 -1 -190 -16z"/>
<path d="M3995 3705 c-185 -69 -207 -267 -47 -424 196 -191 430 -159 517 71
22 59 14 107 -24 151 -15 17 -31 50 -34 71 -8 52 -53 106 -102 124 -59 21
-259 26 -310 7z"/>
<path d="M1230 3563 c-97 -17 -341 -119 -408 -169 -120 -92 -63 -289 95 -324
22 -5 54 -4 86 5 29 7 53 12 55 11 4 -5 -53 -163 -123 -341 -141 -358 -186
-586 -135 -685 11 -21 35 -50 53 -64 36 -27 131 -56 186 -56 85 0 168 74 391
349 69 85 152 186 185 225 33 39 85 101 115 139 68 86 77 76 61 -67 -12 -106
-38 -229 -120 -566 -91 -378 -97 -492 -28 -557 44 -42 69 -53 117 -53 105 0
160 70 160 204 0 78 57 373 120 626 54 217 62 289 58 533 l-3 223 -30 60 c-26
50 -38 63 -87 88 -50 25 -63 28 -112 22 -104 -13 -168 -69 -407 -356 -135
-162 -151 -173 -105 -69 33 75 124 349 142 428 44 188 -2 324 -127 378 -32 14
-105 23 -139 16z"/>
<path d="M3623 3270 c-88 -19 -181 -86 -234 -169 -45 -70 -72 -164 -67 -229 4
-49 9 -59 45 -93 68 -63 162 -61 233 5 20 19 40 25 100 29 84 6 164 33 216 72
98 75 99 228 2 310 -76 64 -198 96 -295 75z"/>
<path d="M4672 3070 c-54 -33 -74 -75 -70 -148 3 -53 13 -81 59 -170 53 -104
54 -108 42 -146 -19 -55 -3 -108 44 -143 33 -25 44 -28 119 -28 92 0 119 12
162 76 34 49 27 135 -18 216 -44 77 -132 250 -148 290 -27 67 -123 93 -190 53z"/>
<path d="M4433 2305 c-54 -27 -104 -80 -123 -129 -12 -33 -13 -107 -1 -158 10
-44 13 -43 -79 -23 -97 22 -274 30 -354 16 -192 -34 -284 -115 -317 -280 -14
-73 -7 -445 11 -549 13 -76 46 -131 101 -171 149 -109 358 -19 376 161 2 29
-2 113 -11 186 -9 74 -16 147 -16 162 l0 28 88 -19 c48 -10 104 -26 125 -34
51 -20 236 -20 304 0 71 21 141 72 186 135 71 101 90 225 63 410 -30 207 -89
282 -229 288 -62 3 -79 0 -124 -23z"/>
<path d="M2145 1822 c-49 -24 -79 -55 -101 -107 -14 -34 -15 -61 -9 -180 15
-293 87 -547 194 -683 48 -60 188 -160 309 -220 113 -56 170 -61 240 -22 23
13 42 26 42 29 1 3 11 19 24 35 l24 29 79 -46 c282 -165 449 -179 622 -53 100
74 129 199 65 283 -59 78 -192 100 -292 49 -69 -35 -68 -35 -275 87 -63 38
-118 87 -222 199 -128 138 -150 153 -236 153 -61 0 -71 -3 -109 -34 -23 -18
-43 -31 -45 -29 -8 8 -25 206 -25 295 0 113 -13 148 -74 197 -32 26 -47 31
-104 34 -50 2 -77 -2 -107 -16z"/>
</g>
</svg>
