<?xml version="1.0" standalone="no"?>
<!DOCTYPE svg PUBLIC "-//W3C//DTD SVG 20010904//EN"
 "http://www.w3.org/TR/2001/REC-SVG-20010904/DTD/svg10.dtd">
<svg version="1.0" xmlns="http://www.w3.org/2000/svg"
 width="600.000000pt" height="600.000000pt" viewBox="0 0 600.000000 600.000000"
 preserveAspectRatio="xMidYMid meet">
<metadata>
Created by potrace 1.15, written by Peter Selinger 2001-2017
</metadata>
<g transform="translate(0.000000,600.000000) scale(0.100000,-0.100000)"
fill="#16364b" stroke="none">
<path d="M1560 5793 c-30 -15 -46 -41 -117 -178 -145 -286 -170 -364 -134
-437 39 -81 116 -100 212 -50 61 30 326 231 401 303 43 40 48 50 48 88 0 97
-92 177 -161 140 -13 -6 -59 -46 -101 -87 -43 -42 -78 -73 -78 -69 0 3 18 43
41 89 32 67 39 91 35 122 -9 75 -79 113 -146 79z"/>
<path d="M2369 5435 c-47 -25 -63 -72 -57 -166 7 -115 -6 -309 -28 -394 -42
-170 -107 -260 -237 -325 -97 -49 -116 -70 -117 -126 0 -33 7 -49 29 -73 24
-26 36 -31 75 -31 84 0 250 103 325 202 121 161 174 371 175 696 l1 174 -33
29 c-36 33 -88 38 -133 14z"/>
<path d="M3503 5315 c-12 -8 -31 -30 -42 -49 -100 -161 168 -462 348 -390 105
42 99 169 -15 325 -73 100 -226 160 -291 114z"/>
<path d="M2989 5146 c-172 -61 -262 -263 -173 -388 42 -59 93 -83 180 -83 59
0 80 5 130 30 82 42 98 77 99 210 0 88 -3 107 -25 150 -41 81 -124 112 -211
81z"/>
<path d="M4761 4767 c-13 -6 -34 -25 -45 -40 -19 -26 -21 -42 -20 -170 1 -211
43 -352 135 -452 125 -135 307 -100 401 78 18 34 23 58 23 127 0 73 -4 93 -28
142 -37 76 -120 157 -245 241 -136 91 -168 101 -221 74z m224 -407 c8 -16 15
-37 15 -47 0 -15 -2 -15 -15 4 -8 11 -19 33 -25 47 -13 36 6 34 25 -4z"/>
<path d="M2634 4214 c-59 -21 -123 -80 -150 -138 -86 -185 81 -382 309 -363
155 13 403 180 423 283 15 81 -38 146 -143 175 -217 60 -353 73 -439 43z"/>
<path d="M1062 4080 c-101 -62 -95 -216 11 -254 23 -8 74 -17 112 -20 67 -4
125 -21 125 -36 0 -13 -117 -90 -182 -120 -35 -16 -101 -39 -147 -50 -142 -36
-171 -61 -171 -151 0 -46 4 -55 38 -90 48 -47 80 -55 156 -40 210 44 428 153
529 264 l37 42 -20 -57 c-13 -38 -20 -83 -20 -131 0 -62 5 -83 31 -135 124
-249 485 -219 539 44 22 107 -20 250 -97 329 -54 56 -114 80 -198 79 -77 0
-127 -20 -190 -75 l-35 -31 16 38 c54 129 -18 286 -163 359 -111 55 -308 73
-371 35z"/>
<path d="M4212 3770 c-66 -14 -157 -58 -190 -93 -126 -130 -86 -403 73 -502
41 -25 61 -31 126 -34 71 -3 85 0 144 27 141 66 216 176 236 345 11 93 10 99
-12 144 -27 53 -62 78 -141 99 -71 18 -183 25 -236 14z m88 -310 c-9 -18 -40
-40 -54 -40 -3 0 -6 9 -6 20 0 21 24 39 53 40 15 0 16 -3 7 -20z"/>
<path d="M5140 3557 c-133 -45 -218 -121 -261 -235 -59 -157 32 -353 184 -397
49 -14 62 -14 127 -1 124 26 215 98 273 215 28 58 32 75 32 152 0 76 -3 90
-27 126 -33 50 -120 134 -156 150 -41 18 -100 15 -172 -10z m36 -335 c-14 -14
-16 -14 -16 -1 0 20 23 44 29 28 2 -6 -4 -18 -13 -27z"/>
<path d="M2561 3459 c-57 -11 -124 -52 -178 -107 -81 -83 -126 -162 -203 -357
-58 -144 -100 -188 -260 -269 -273 -138 -437 -317 -549 -599 -49 -123 -65
-222 -66 -402 0 -178 10 -233 58 -335 69 -142 318 -337 548 -428 331 -131 697
-50 973 217 185 178 294 357 340 556 30 134 46 332 36 472 -31 434 -102 833
-170 963 -73 138 -226 253 -379 286 -73 15 -87 16 -150 3z m144 -429 c7 -14
34 -90 59 -170 78 -244 127 -629 101 -785 -7 -44 -16 -108 -19 -142 -18 -169
-90 -332 -199 -445 -135 -141 -260 -200 -422 -200 -135 0 -247 43 -378 147
-109 86 -152 186 -151 350 1 120 20 199 77 315 60 122 148 209 284 278 132 66
175 93 248 156 112 95 150 150 220 311 85 195 142 254 180 185z"/>
<path d="M3420 3373 c-19 -10 -50 -39 -70 -65 -51 -68 -124 -218 -124 -254 0
-43 28 -83 72 -101 48 -20 137 -2 200 41 94 64 150 231 105 315 -37 70 -117
98 -183 64z"/>
<path d="M385 2269 c-58 -51 -62 -87 -25 -203 67 -209 161 -369 294 -502 87
-87 136 -118 215 -135 94 -20 168 19 215 113 33 66 36 181 8 256 -57 150 -225
302 -486 439 -139 74 -168 78 -221 32z m410 -442 c47 -54 88 -123 83 -139 -9
-26 -178 177 -178 214 0 15 56 -29 95 -75z"/>
<path d="M4107 2026 c-45 -16 -83 -49 -103 -88 -19 -37 -18 -116 7 -275 40
-261 93 -389 181 -432 67 -32 143 -24 198 21 63 52 125 203 164 401 48 239 45
278 -24 341 -63 56 -149 60 -210 9 l-31 -25 -37 25 c-48 33 -97 40 -145 23z"/>
</g>
</svg>
