<?xml version="1.0" standalone="no"?>
<!DOCTYPE svg PUBLIC "-//W3C//DTD SVG 20010904//EN"
 "http://www.w3.org/TR/2001/REC-SVG-20010904/DTD/svg10.dtd">
<svg version="1.0" xmlns="http://www.w3.org/2000/svg"
 width="600.000000pt" height="600.000000pt" viewBox="0 0 600.000000 600.000000"
 preserveAspectRatio="xMidYMid meet">
<metadata>
Created by potrace 1.15, written by Peter Selinger 2001-2017
</metadata>
<g transform="translate(0.000000,600.000000) scale(0.100000,-0.100000)"
fill="#16364b" stroke="none">
<path d="M2674 5531 c-82 -50 -174 -246 -174 -371 0 -58 40 -142 84 -175 67
-51 107 -59 299 -60 97 0 177 -2 177 -5 -1 -3 -30 -27 -66 -55 -116 -88 -233
-221 -351 -398 -119 -176 -139 -221 -123 -277 24 -82 61 -133 114 -155 18 -7
100 -16 196 -19 220 -9 372 -23 507 -46 135 -24 175 -25 213 -5 102 53 108
220 10 270 -37 19 -253 49 -477 66 -90 7 -163 16 -163 21 0 21 110 167 185
246 44 47 125 122 180 167 55 46 121 105 147 133 134 143 54 313 -167 353 -57
11 -385 5 -427 -7 -27 -8 -22 19 18 97 32 61 36 77 32 121 -5 43 -11 57 -42
85 -31 29 -43 33 -88 33 -35 0 -64 -7 -84 -19z"/>
<path d="M1603 5180 c-245 -87 -445 -273 -578 -538 -62 -123 -41 -213 60 -262
46 -22 49 -22 192 -10 134 12 267 9 307 -6 21 -8 20 -31 -4 -149 -25 -119 -25
-168 -3 -206 18 -30 83 -68 119 -70 27 -1 -34 -22 -143 -49 -51 -13 -106 -31
-123 -42 -36 -21 -69 -88 -70 -138 0 -74 69 -150 137 -150 41 0 439 123 572
177 120 48 156 87 155 166 0 60 -20 97 -69 127 -49 30 -104 26 -214 -18 -53
-22 -109 -42 -124 -46 l-28 -7 34 34 c28 29 37 50 56 128 53 228 50 291 -18
396 -66 101 -176 160 -319 170 -40 3 -75 9 -77 14 -7 10 88 94 152 135 28 19
76 43 106 54 84 32 117 78 117 167 0 118 -102 171 -237 123z"/>
<path d="M4265 4675 c-108 -29 -328 -131 -357 -166 -10 -12 -23 -38 -29 -60
-23 -74 37 -170 115 -185 27 -5 52 2 115 31 141 63 261 99 261 78 -1 -49 -117
-326 -196 -469 -84 -151 -84 -177 0 -277 40 -46 64 -66 93 -74 21 -6 151 -15
289 -18 139 -4 258 -11 264 -15 19 -12 -31 -148 -130 -360 -63 -136 -80 -181
-80 -217 0 -116 128 -191 223 -129 29 19 213 385 252 500 42 125 55 246 34
320 -14 52 -79 119 -139 145 -67 29 -229 51 -378 51 -68 0 -122 3 -120 8 2 4
31 65 66 136 98 200 126 290 127 411 0 84 -4 108 -23 150 -50 108 -129 155
-257 154 -44 0 -102 -6 -130 -14z"/>
<path d="M3735 3672 c-76 -26 -139 -67 -216 -140 -84 -78 -99 -105 -99 -171 0
-42 5 -56 31 -86 64 -73 154 -69 230 10 42 43 126 105 144 105 13 0 -2 -92
-28 -166 -13 -38 -43 -111 -66 -160 -36 -78 -48 -94 -79 -108 -81 -39 -152
-89 -172 -122 -47 -75 -20 -171 60 -212 55 -28 104 -24 170 17 46 28 179 88
259 116 69 24 163 74 194 103 111 104 92 296 -34 333 -44 14 -43 11 -29 59 19
65 14 210 -10 271 -24 66 -76 124 -134 150 -52 24 -154 24 -221 1z"/>
<path d="M2475 3499 c-89 -13 -205 -45 -291 -79 -112 -45 -130 -56 -154 -95
-18 -30 -22 -47 -18 -95 5 -74 40 -124 98 -141 46 -14 67 -10 230 47 81 28
127 37 198 41 l92 6 0 -25 c0 -38 -44 -158 -95 -261 -58 -116 -64 -157 -33
-217 43 -83 140 -113 220 -68 35 20 48 38 99 143 32 66 73 163 91 215 28 83
32 108 33 201 0 98 -2 109 -30 164 -36 70 -100 124 -178 148 -67 21 -186 28
-262 16z"/>
<path d="M1119 3176 c-168 -65 -236 -136 -227 -242 9 -106 85 -173 196 -174
28 0 52 -3 52 -8 0 -4 -12 -63 -27 -132 -27 -122 -28 -134 -28 -450 l0 -325
25 -45 c63 -112 222 -127 333 -32 23 20 52 44 64 52 12 8 57 76 99 150 118
209 228 369 333 489 l21 24 9 -26 c52 -136 28 -496 -50 -758 -34 -116 -35
-137 -10 -187 48 -92 179 -96 247 -7 54 71 125 357 138 560 11 167 -31 503
-75 605 -37 83 -68 118 -135 151 -56 28 -70 31 -115 25 -28 -4 -72 -17 -98
-28 -59 -28 -185 -154 -280 -281 -40 -54 -75 -96 -78 -93 -3 3 1 51 8 108 7
57 13 175 14 263 0 146 -2 164 -23 210 -50 109 -130 157 -267 162 -59 2 -102
-2 -126 -11z"/>
<path d="M4754 2636 c-74 -33 -141 -147 -132 -223 3 -26 0 -28 -47 -37 -134
-22 -257 -59 -345 -102 -121 -60 -187 -124 -238 -231 -37 -78 -37 -79 -37
-208 0 -116 3 -138 28 -210 15 -44 43 -109 62 -144 l35 -65 -22 -23 c-12 -13
-28 -23 -37 -23 -9 0 -67 25 -131 55 -148 70 -260 99 -355 92 -129 -10 -250
-73 -362 -188 -75 -78 -104 -115 -221 -290 -64 -96 -98 -138 -115 -143 -13 -3
-43 -21 -68 -41 -24 -19 -54 -35 -67 -35 -49 0 -114 155 -176 420 -43 181 -45
188 -77 224 -39 45 -86 66 -146 66 -114 -1 -213 -92 -213 -198 0 -90 100 -413
172 -556 75 -150 159 -243 267 -296 146 -72 342 -39 504 84 26 20 64 43 84 51
49 20 89 59 115 110 38 74 140 240 180 292 22 29 61 66 87 83 60 41 88 37 240
-35 160 -74 214 -88 320 -83 100 6 172 35 245 99 45 40 86 109 86 145 0 14 13
26 40 38 50 22 94 75 110 132 21 75 9 139 -48 254 -36 73 -54 122 -58 161 -8
69 -2 73 108 90 267 40 354 72 444 161 144 140 167 398 47 509 -70 66 -207 98
-279 65z"/>
<path d="M3144 2530 c-56 -10 -169 -34 -250 -54 -82 -20 -182 -44 -224 -52
-104 -21 -107 -22 -145 -55 -106 -94 -39 -285 110 -317 31 -6 79 0 220 30 226
47 374 72 381 65 4 -3 -6 -44 -21 -91 -32 -102 -28 -147 18 -208 76 -98 204
-106 283 -16 53 60 114 261 114 377 0 213 -127 344 -333 340 -29 0 -98 -9
-153 -19z"/>
</g>
</svg>
