<?xml version="1.0" standalone="no"?>
<!DOCTYPE svg PUBLIC "-//W3C//DTD SVG 20010904//EN"
 "http://www.w3.org/TR/2001/REC-SVG-20010904/DTD/svg10.dtd">
<svg version="1.0" xmlns="http://www.w3.org/2000/svg"
 width="600.000000pt" height="600.000000pt" viewBox="0 0 600.000000 600.000000"
 preserveAspectRatio="xMidYMid meet">
<metadata>
Created by potrace 1.15, written by Peter Selinger 2001-2017
</metadata>
<g transform="translate(0.000000,600.000000) scale(0.100000,-0.100000)"
fill="#16364b" stroke="none">
<path d="M3030 5059 c-102 -41 -171 -192 -127 -279 61 -120 277 26 277 188 0
80 -71 122 -150 91z m78 -61 c39 -39 -20 -149 -102 -192 -60 -31 -74 27 -28
114 35 69 100 108 130 78z"/>
<path d="M4774 4727 l-29 -25 -6 -219 c-9 -285 -3 -381 24 -410 25 -28 70 -30
96 -4 27 27 33 117 29 403 -3 256 -4 260 -59 273 -20 5 -34 0 -55 -18z"/>
<path d="M1702 4494 c-87 -43 -132 -120 -132 -227 0 -75 11 -113 56 -187 60
-99 132 -407 159 -675 20 -205 45 -685 55 -1070 5 -176 13 -351 19 -390 32
-202 121 -391 244 -518 98 -100 206 -159 363 -197 l92 -22 -6 -127 c-6 -147 3
-197 75 -438 25 -83 43 -158 40 -167 -5 -13 -23 -16 -87 -16 -47 0 -95 -6
-115 -14 -68 -29 -90 -106 -42 -154 23 -22 37 -27 99 -30 180 -11 310 75 311
206 0 28 -20 116 -51 217 -27 94 -56 201 -63 239 -11 65 -8 211 5 246 5 13 70
15 479 18 l472 3 -3 -118 c-5 -151 23 -324 78 -482 21 -63 37 -118 34 -123 -3
-4 -47 -8 -99 -8 -86 0 -96 -2 -124 -26 -60 -50 -29 -147 55 -174 54 -18 161
-9 214 19 60 31 89 58 111 106 26 57 24 90 -17 201 -74 206 -113 424 -94 534
13 74 19 80 92 80 146 0 514 106 654 187 102 59 221 179 263 265 51 105 64
174 59 323 -4 105 -10 145 -31 210 -50 151 -145 278 -255 338 -58 32 -243 80
-502 132 -323 65 -738 223 -955 365 -256 168 -521 473 -770 885 -89 148 -145
230 -225 330 -31 39 -70 90 -87 115 -107 155 -243 208 -371 144z m176 -164
c22 -16 58 -55 80 -87 22 -32 58 -77 80 -100 60 -62 118 -148 253 -369 247
-408 504 -701 767 -877 118 -80 416 -225 587 -286 150 -54 189 -63 445 -111
196 -37 373 -76 415 -92 122 -45 211 -185 240 -379 34 -222 -43 -392 -229
-503 -57 -34 -241 -101 -361 -130 -199 -48 -243 -51 -795 -50 -676 0 -839 14
-997 84 -138 61 -245 198 -312 397 -41 122 -52 226 -61 563 -11 420 -36 898
-56 1075 -33 301 -90 519 -176 687 -42 80 -50 102 -44 130 15 81 89 103 164
48z"/>
<path d="M2495 2615 c-14 -13 -25 -31 -25 -40 0 -27 46 -65 79 -65 24 0 34 7
46 30 20 39 19 56 -5 80 -27 27 -66 25 -95 -5z"/>
<path d="M2960 2348 c-27 -29 -25 -50 6 -87 35 -42 77 -43 99 -1 21 40 19 57
-10 85 -30 31 -68 32 -95 3z"/>
<path d="M5249 3985 c-69 -22 -140 -74 -176 -128 -108 -162 -33 -412 153 -507
43 -22 62 -25 149 -25 84 0 107 4 146 23 66 32 128 97 162 169 24 53 29 76 29
139 -1 65 -5 86 -32 140 -34 70 -70 105 -162 160 -56 33 -72 38 -143 40 -52 3
-96 -1 -126 -11z m149 -320 c11 -11 -14 -40 -38 -43 -25 -4 -50 20 -50 46 0
11 9 13 41 9 22 -3 43 -8 47 -12z"/>
<path d="M4165 3733 c-129 -46 -205 -157 -205 -297 0 -122 85 -240 197 -272
181 -52 371 75 398 266 8 57 -18 177 -48 222 -13 18 -47 45 -80 62 -74 38
-186 46 -262 19z m121 -268 c8 -20 -13 -45 -37 -45 -23 0 -24 18 -2 42 20 22
32 23 39 3z"/>
<path d="M5357 1100 c-32 -26 -67 -127 -67 -198 0 -46 4 -58 29 -83 33 -33 67
-37 112 -13 74 38 111 233 54 289 -31 32 -91 34 -128 5z"/>
</g>
</svg>
