<?xml version="1.0" standalone="no"?>
<!DOCTYPE svg PUBLIC "-//W3C//DTD SVG 20010904//EN"
 "http://www.w3.org/TR/2001/REC-SVG-20010904/DTD/svg10.dtd">
<svg version="1.0" xmlns="http://www.w3.org/2000/svg"
 width="600.000000pt" height="600.000000pt" viewBox="0 0 600.000000 600.000000"
 preserveAspectRatio="xMidYMid meet">
<metadata>
Created by potrace 1.15, written by Peter Selinger 2001-2017
</metadata>
<g transform="translate(0.000000,600.000000) scale(0.100000,-0.100000)"
fill="#16364b" stroke="none">
<path d="M3142 5620 c-58 -35 -98 -133 -122 -293 -33 -223 86 -358 340 -383
38 -3 70 -10 70 -14 0 -3 -48 -35 -107 -70 -184 -108 -355 -225 -429 -294 -81
-75 -94 -104 -97 -228 -2 -87 9 -109 82 -165 54 -42 135 -66 346 -102 94 -17
207 -38 253 -48 l83 -18 45 24 c104 55 110 181 13 253 -29 21 -184 61 -329 84
-58 9 -112 18 -120 21 -38 12 187 166 430 293 234 123 270 158 270 265 0 149
-118 234 -394 285 -144 27 -166 36 -166 67 0 13 11 58 25 99 29 86 31 133 10
175 -34 66 -135 90 -203 49z"/>
<path d="M1411 5415 c-96 -43 -240 -174 -318 -290 -121 -180 -221 -458 -226
-635 -2 -56 2 -74 19 -97 58 -79 157 -98 231 -44 22 16 45 42 52 58 9 22 22
31 54 39 23 6 94 25 157 42 63 16 131 32 150 33 31 3 35 1 33 -19 -2 -12 -28
-91 -59 -175 -74 -200 -94 -271 -95 -337 -1 -52 -3 -56 -41 -83 -61 -43 -84
-117 -54 -175 27 -52 62 -75 120 -80 50 -4 60 -1 172 59 65 35 188 93 272 129
85 37 167 79 183 94 33 32 53 94 44 138 -10 44 -61 96 -107 108 -49 14 -82 7
-181 -36 -43 -19 -80 -34 -82 -34 -2 0 27 64 64 143 88 184 95 205 95 307 1
73 -3 92 -26 135 -31 59 -57 85 -118 117 -65 33 -245 33 -378 -1 -51 -13 -95
-21 -97 -19 -7 6 58 112 106 174 40 52 136 145 181 176 39 26 61 82 56 140
-11 107 -115 174 -207 133z"/>
<path d="M4680 4479 c-156 -27 -338 -73 -371 -94 -84 -54 -90 -163 -13 -224
52 -41 92 -44 226 -16 155 32 153 32 131 -2 -43 -69 -193 -275 -250 -344 -89
-109 -100 -146 -63 -220 39 -75 121 -105 192 -70 54 26 93 75 288 360 197 288
213 321 208 410 -4 83 -36 137 -102 176 -52 31 -153 40 -246 24z"/>
<path d="M3822 3671 c-68 -43 -91 -129 -54 -199 10 -18 67 -75 128 -125 60
-51 116 -107 126 -125 36 -72 89 -107 149 -99 50 7 95 40 119 87 39 76 18 149
-69 238 -28 29 -54 65 -57 80 -27 111 -246 203 -342 143z"/>
<path d="M2505 3650 c-105 -22 -255 -86 -324 -137 -116 -88 -54 -273 92 -273
35 0 67 10 125 39 79 40 198 81 234 81 19 0 20 -5 15 -59 -5 -65 -76 -253
-135 -361 -20 -35 -78 -134 -129 -220 -83 -138 -93 -160 -93 -203 0 -58 19
-107 52 -133 13 -10 34 -34 47 -52 29 -41 89 -72 141 -72 25 0 69 13 117 36
106 49 194 82 266 99 l59 14 -6 -32 c-3 -18 -49 -120 -103 -227 -81 -164 -96
-202 -96 -241 1 -73 51 -146 120 -175 74 -32 180 -6 220 53 84 122 202 364
236 483 79 272 14 448 -184 504 -66 19 -230 21 -313 5 -31 -7 -59 -10 -62 -7
-2 3 20 54 50 114 155 309 174 533 55 668 -62 70 -130 98 -247 102 -53 2 -115
-1 -137 -6z"/>
<path d="M1105 3447 c-111 -37 -328 -182 -363 -242 -33 -57 -28 -155 11 -213
51 -78 160 -105 249 -62 23 11 42 19 44 17 1 -1 -11 -45 -28 -97 -89 -286
-136 -526 -145 -736 -6 -154 1 -193 44 -245 32 -38 61 -52 151 -74 69 -16 75
-16 118 0 32 12 56 32 88 73 41 54 394 556 485 691 41 61 45 63 58 45 27 -35
12 -167 -66 -569 -54 -276 -73 -435 -62 -506 29 -176 176 -285 286 -213 61 40
83 145 45 219 -34 66 -23 180 44 473 58 250 76 371 76 516 0 72 -5 149 -10
171 -6 22 -14 86 -19 142 -11 130 -41 199 -101 239 -33 22 -54 28 -94 27 -130
-2 -199 -70 -476 -471 -61 -90 -114 -161 -117 -159 -2 3 16 78 41 167 50 177
91 361 101 455 15 146 -48 280 -159 337 -50 26 -147 33 -201 15z"/>
<path d="M4520 3430 c-50 -12 -100 -70 -100 -116 0 -45 26 -101 56 -121 13 -8
90 -40 171 -70 150 -55 213 -86 213 -105 0 -15 -61 -114 -155 -254 -103 -151
-114 -203 -63 -277 40 -57 133 -75 193 -38 34 21 247 323 297 422 30 58 33 72
33 154 0 81 -3 95 -28 138 -31 52 -105 115 -179 153 -41 21 -380 126 -397 123
-3 -1 -22 -5 -41 -9z"/>
<path d="M3724 3185 c-90 -20 -171 -63 -236 -126 -67 -66 -118 -162 -118 -224
0 -82 63 -139 155 -139 65 0 106 24 151 92 28 42 39 52 52 46 36 -17 183 -16
228 1 109 42 154 173 90 268 -57 84 -174 114 -322 82z"/>
<path d="M4605 2191 c-83 -38 -145 -117 -145 -187 0 -17 -2 -33 -6 -36 -3 -3
-53 5 -112 18 -155 35 -337 42 -418 16 -127 -40 -229 -133 -282 -258 -22 -53
-26 -79 -33 -251 -5 -105 -12 -208 -16 -227 l-8 -36 -75 66 c-199 176 -391
257 -533 225 -115 -25 -200 -111 -290 -291 l-52 -105 -13 105 c-28 231 -89
439 -149 511 -81 96 -245 91 -301 -10 -39 -71 -38 -94 12 -259 14 -46 37 -170
51 -275 30 -225 48 -307 84 -397 65 -160 167 -248 328 -286 111 -25 181 -4
239 72 26 33 29 45 30 118 1 67 7 98 38 181 49 130 104 245 117 245 11 0 58
-38 194 -154 164 -140 256 -186 373 -186 109 0 222 66 268 157 10 21 38 57 61
80 59 58 72 112 82 327 4 104 12 181 18 187 11 11 123 -1 298 -32 33 -6 110
-9 170 -7 143 5 208 32 293 123 79 83 104 148 110 283 5 119 -7 174 -49 225
-60 73 -192 100 -284 58z"/>
</g>
</svg>
