<?xml version="1.0" standalone="no"?>
<!DOCTYPE svg PUBLIC "-//W3C//DTD SVG 20010904//EN"
 "http://www.w3.org/TR/2001/REC-SVG-20010904/DTD/svg10.dtd">
<svg version="1.0" xmlns="http://www.w3.org/2000/svg"
 width="600.000000pt" height="600.000000pt" viewBox="0 0 600.000000 600.000000"
 preserveAspectRatio="xMidYMid meet">
<metadata>
Created by potrace 1.15, written by Peter Selinger 2001-2017
</metadata>
<g transform="translate(0.000000,600.000000) scale(0.100000,-0.100000)"
fill="#16364b" stroke="none">
<path d="M2775 5568 c-77 -42 -141 -184 -152 -334 -10 -136 33 -221 135 -271
55 -27 62 -28 220 -28 89 0 162 -1 162 -1 0 -1 -78 -80 -173 -175 -156 -157
-244 -261 -350 -418 -56 -81 -52 -130 18 -217 34 -41 68 -56 150 -68 185 -25
466 -74 587 -101 169 -38 201 -36 253 15 65 63 68 168 6 230 -29 30 -115 49
-431 96 -91 14 -178 28 -194 32 l-28 7 76 87 c42 48 131 136 198 195 274 242
297 271 305 378 5 73 -19 121 -85 172 -72 55 -134 68 -313 67 -86 -1 -175 -4
-197 -8 -39 -6 -42 -5 -42 16 0 13 12 50 25 83 44 107 26 203 -45 240 -34 18
-97 19 -125 3z"/>
<path d="M1559 5242 c-77 -31 -159 -92 -268 -197 -121 -118 -210 -232 -274
-353 -58 -112 -71 -158 -63 -217 10 -61 62 -120 119 -136 35 -9 60 -7 166 17
96 21 153 28 241 29 l115 0 -3 -25 c-2 -14 -18 -74 -37 -135 -19 -60 -39 -128
-44 -151 -12 -44 -3 -89 25 -131 19 -30 14 -36 -46 -52 -83 -24 -129 -92 -116
-175 13 -80 80 -146 151 -146 51 0 442 144 549 203 72 39 97 70 103 129 8 66
-22 119 -84 152 -49 25 -93 19 -188 -24 -48 -23 -90 -39 -93 -36 -3 3 14 79
38 168 65 249 60 350 -22 443 -60 69 -171 105 -325 105 -51 0 -93 3 -93 8 0
28 243 232 276 232 19 0 73 49 89 81 33 62 10 161 -47 202 -37 28 -112 32
-169 9z"/>
<path d="M4405 4620 c-55 -11 -288 -96 -355 -128 -30 -15 -63 -39 -73 -53 -51
-70 -19 -174 67 -218 57 -29 58 -29 256 53 102 42 136 53 138 42 7 -32 -134
-334 -229 -492 -56 -93 -66 -128 -50 -176 14 -42 117 -153 154 -167 16 -6 83
-11 150 -11 124 0 272 -14 340 -31 34 -9 37 -12 31 -37 -7 -28 -72 -173 -170
-382 -69 -148 -75 -192 -32 -257 65 -98 196 -94 244 7 9 19 57 118 106 220
146 301 152 319 153 430 0 109 -15 148 -82 214 -78 77 -180 110 -398 127 -77
6 -141 13 -143 14 -2 2 28 61 66 132 132 246 172 355 172 468 0 65 -25 133
-63 173 -56 61 -184 93 -282 72z"/>
<path d="M3763 3685 c-102 -31 -179 -100 -227 -201 -61 -128 -9 -243 109 -244
49 0 101 30 123 72 20 38 57 78 72 78 17 0 11 -94 -11 -166 -33 -106 -75 -183
-107 -195 -54 -21 -168 -82 -215 -116 -57 -42 -77 -77 -77 -136 0 -84 69 -147
161 -147 39 0 58 8 120 50 58 39 106 60 229 100 174 56 211 75 240 122 39 65
18 170 -42 212 -20 14 -20 15 -3 103 20 102 16 204 -11 273 -64 163 -211 243
-361 195z"/>
<path d="M2481 3535 c-165 -36 -385 -128 -420 -176 -74 -100 3 -254 127 -252
33 0 73 13 133 41 123 58 245 94 305 90 l49 -3 -3 -35 c-6 -51 -46 -157 -118
-311 -35 -74 -64 -147 -64 -162 0 -66 56 -138 120 -154 42 -11 107 1 133 25
35 31 152 285 203 442 24 72 29 102 29 195 0 104 -2 113 -30 165 -36 65 -96
114 -167 135 -64 19 -209 19 -297 0z"/>
<path d="M1148 3244 c-72 -17 -115 -39 -196 -98 -102 -75 -129 -169 -77 -272
36 -72 81 -99 167 -99 68 0 68 0 63 -25 -59 -295 -80 -521 -66 -701 17 -209
35 -260 107 -315 34 -26 45 -29 113 -29 135 0 136 0 321 330 134 238 244 407
314 482 l30 33 18 -48 c39 -102 12 -493 -57 -825 -14 -64 -25 -134 -25 -155 0
-47 30 -96 71 -118 42 -21 120 -14 158 14 l28 21 7 -87 c15 -197 94 -490 178
-660 50 -100 143 -205 219 -247 50 -28 61 -30 159 -30 99 0 108 2 168 33 34
18 87 55 117 82 30 28 60 50 65 50 6 0 28 17 51 37 28 26 59 74 101 157 33 67
79 153 101 191 47 81 138 180 173 189 34 9 77 -12 197 -93 154 -105 183 -116
297 -116 85 0 101 3 155 29 74 37 150 113 166 166 8 25 26 50 50 70 47 38 78
95 86 159 4 39 -1 69 -30 154 -20 58 -39 133 -43 166 l-7 61 39 16 c25 10 92
20 184 26 239 15 325 42 409 129 98 102 153 369 98 475 -20 37 -72 87 -117
110 -47 25 -162 25 -207 1 -71 -38 -122 -117 -123 -189 0 -45 1 -45 -160 -52
-138 -7 -259 -34 -357 -82 -125 -60 -183 -158 -205 -345 -13 -117 0 -277 33
-408 11 -45 19 -84 17 -86 -2 -3 -45 24 -95 59 -170 117 -304 158 -448 138
-229 -33 -401 -221 -575 -629 -19 -44 -31 -57 -78 -84 -64 -36 -61 -38 -112
62 -55 108 -85 219 -120 446 -20 138 -36 172 -99 220 -37 29 -50 33 -102 33
-63 0 -88 -9 -128 -44 l-24 -21 6 25 c22 93 80 422 93 532 24 197 16 470 -18
595 -31 115 -63 164 -131 203 -162 93 -368 -24 -584 -332 -30 -44 -57 -77 -60
-74 -2 2 6 73 18 158 14 93 23 205 23 288 1 129 0 138 -27 192 -34 69 -84 113
-151 133 -60 18 -102 18 -178 -1z"/>
<path d="M3125 2625 c-49 -7 -119 -20 -155 -29 -151 -40 -401 -116 -429 -131
-42 -21 -79 -81 -87 -138 -10 -68 30 -147 94 -184 62 -37 115 -35 277 11 162
45 333 82 342 72 4 -3 -8 -41 -26 -84 -64 -149 -72 -178 -62 -224 20 -86 88
-138 184 -138 97 0 157 41 200 140 90 203 119 402 77 514 -38 100 -126 175
-226 191 -80 12 -101 13 -189 0z"/>
</g>
</svg>
