<?xml version="1.0" standalone="no"?>
<!DOCTYPE svg PUBLIC "-//W3C//DTD SVG 20010904//EN"
 "http://www.w3.org/TR/2001/REC-SVG-20010904/DTD/svg10.dtd">
<svg version="1.0" xmlns="http://www.w3.org/2000/svg"
 width="600.000000pt" height="600.000000pt" viewBox="0 0 600.000000 600.000000"
 preserveAspectRatio="xMidYMid meet">
<metadata>
Created by potrace 1.15, written by Peter Selinger 2001-2017
</metadata>
<g transform="translate(0.000000,600.000000) scale(0.100000,-0.100000)"
fill="#16364b" stroke="none">
<path d="M3552 5280 c-12 -5 -29 -25 -39 -44 -16 -34 -16 -36 17 -102 55 -113
142 -185 222 -186 47 0 77 28 78 73 0 52 -85 181 -153 233 -37 28 -92 40 -125
26z m119 -155 c23 -31 40 -58 37 -61 -6 -6 -72 65 -88 95 -22 42 10 20 51 -34z"/>
<path d="M3025 5106 c-75 -32 -146 -158 -149 -260 -3 -145 103 -179 211 -69
61 63 95 133 101 210 5 61 4 63 -31 98 -39 39 -77 45 -132 21z m83 -98 c9 -46
-100 -206 -131 -195 -35 12 11 159 62 199 29 22 64 20 69 -4z"/>
<path d="M4753 4735 c-13 -9 -25 -32 -29 -53 -9 -45 14 -523 27 -574 26 -103
146 -103 186 -1 14 39 18 75 17 188 0 125 -4 155 -34 275 -38 151 -56 180
-112 180 -19 0 -43 -7 -55 -15z"/>
<path d="M2619 4211 c-29 -29 -33 -43 -29 -90 3 -43 30 -70 104 -106 134 -66
319 -95 385 -60 75 38 58 152 -26 171 -16 3 -80 25 -143 49 -201 74 -247 80
-291 36z"/>
<path d="M1506 4106 c-58 -22 -108 -67 -139 -127 -26 -48 -28 -62 -25 -124 7
-107 28 -140 181 -283 39 -37 103 -154 135 -247 34 -100 49 -173 72 -335 12
-85 32 -216 45 -290 36 -206 37 -221 40 -430 4 -207 11 -272 51 -440 58 -245
106 -352 192 -431 89 -82 244 -148 420 -180 65 -12 73 -16 69 -34 -3 -11 -14
-56 -26 -100 -12 -44 -24 -123 -28 -176 -9 -143 7 -182 114 -287 51 -48 83
-88 80 -96 -3 -8 -30 -16 -69 -20 -79 -9 -125 -31 -143 -67 -23 -44 -18 -77
16 -111 29 -29 33 -30 98 -26 71 5 154 39 199 81 59 55 78 146 45 215 -10 20
-54 73 -99 117 -74 73 -83 86 -89 129 -9 61 7 160 42 262 27 77 29 79 58 76
194 -19 314 -20 594 -6 167 8 306 12 309 10 2 -3 -5 -26 -17 -51 -23 -49 -28
-135 -11 -196 14 -51 77 -118 149 -159 33 -19 61 -38 61 -41 0 -4 -22 -9 -49
-13 -63 -8 -91 -40 -91 -101 0 -60 32 -87 108 -93 102 -7 201 37 241 108 24
44 26 78 7 123 -18 44 -60 78 -165 132 -101 52 -116 66 -125 115 -7 41 10 78
65 138 35 38 40 39 130 51 220 28 501 94 639 150 307 125 510 500 446 821 -34
170 -138 354 -250 442 -86 69 -164 100 -264 105 -112 6 -199 -13 -317 -72
-152 -75 -218 -89 -440 -89 -287 0 -469 40 -677 146 -204 104 -326 222 -538
523 -101 143 -419 543 -485 609 -70 71 -286 229 -353 258 -59 26 -155 33 -206
14z m140 -202 c18 -9 53 -33 76 -53 24 -20 61 -48 82 -61 134 -81 349 -330
596 -690 51 -74 121 -170 157 -212 268 -322 662 -503 1138 -525 237 -10 409
20 590 105 91 42 108 47 186 50 71 3 95 0 137 -18 104 -45 200 -185 238 -347
58 -247 -109 -538 -363 -633 -126 -47 -350 -103 -517 -130 -150 -24 -973 -48
-1081 -31 -38 6 -119 17 -180 26 -387 52 -513 112 -600 285 -62 123 -123 452
-112 605 6 92 -6 241 -44 515 -56 414 -96 576 -186 760 -38 76 -62 110 -123
170 -90 89 -110 117 -110 151 0 50 50 64 116 33z"/>
<path d="M2382 2518 c-32 -32 13 -108 63 -108 47 0 73 70 39 104 -18 19 -85
21 -102 4z"/>
<path d="M2884 2152 c-55 -36 -22 -122 46 -122 43 0 66 82 32 113 -19 18 -59
22 -78 9z"/>
<path d="M5297 3979 c-20 -5 -60 -20 -87 -34 -168 -85 -229 -253 -153 -417 41
-87 83 -132 159 -169 59 -29 69 -31 146 -27 99 5 165 35 235 104 65 65 97 140
101 239 3 66 0 89 -18 129 -28 62 -90 123 -161 159 -60 29 -142 35 -222 16z
m96 -307 c16 -7 16 -9 2 -30 -9 -12 -25 -22 -35 -22 -18 0 -40 27 -40 49 0 12
45 14 73 3z"/>
<path d="M4208 3746 c-145 -52 -232 -169 -233 -312 0 -130 77 -234 202 -270
134 -39 294 44 356 185 46 105 24 289 -44 352 -58 54 -194 76 -281 45z m84
-291 c-7 -15 -20 -25 -32 -25 -26 0 -26 24 1 51 28 28 48 11 31 -26z"/>
<path d="M476 2004 c-30 -30 -21 -49 49 -96 135 -92 246 -139 284 -119 26 14
28 52 3 74 -27 24 -282 157 -302 157 -10 0 -26 -7 -34 -16z"/>
<path d="M5353 1098 c-24 -26 -63 -144 -63 -190 0 -42 25 -83 59 -98 71 -29
143 35 160 141 18 115 -10 169 -89 169 -35 0 -51 -5 -67 -22z"/>
</g>
</svg>
