<?xml version="1.0" standalone="no"?>
<!DOCTYPE svg PUBLIC "-//W3C//DTD SVG 20010904//EN"
 "http://www.w3.org/TR/2001/REC-SVG-20010904/DTD/svg10.dtd">
<svg version="1.0" xmlns="http://www.w3.org/2000/svg"
 width="600.000000pt" height="600.000000pt" viewBox="0 0 600.000000 600.000000"
 preserveAspectRatio="xMidYMid meet">
<metadata>
Created by potrace 1.15, written by Peter Selinger 2001-2017
</metadata>
<g transform="translate(0.000000,600.000000) scale(0.100000,-0.100000)"
fill="#16364b" stroke="none">
<path d="M2202 5727 c-33 -12 -255 -181 -412 -313 -283 -237 -376 -408 -294
-540 58 -94 178 -123 374 -90 142 25 619 196 668 240 41 36 55 74 50 133 -4
46 -10 60 -40 90 -30 29 -45 37 -87 41 -54 5 -49 7 -320 -95 -79 -30 -148 -52
-153 -51 -14 5 123 131 269 250 127 102 153 134 153 188 0 101 -115 182 -208
147z"/>
<path d="M3072 5684 c-47 -24 -75 -69 -80 -129 -8 -96 28 -135 173 -190 276
-104 378 -196 379 -340 0 -85 -32 -151 -105 -219 -55 -51 -101 -78 -240 -139
-47 -21 -60 -32 -78 -70 -28 -57 -21 -105 21 -153 44 -50 90 -59 174 -33 132
40 220 94 325 198 150 150 207 283 196 461 -6 107 -38 196 -102 285 -57 80
-131 141 -268 218 -191 108 -327 146 -395 111z"/>
<path d="M975 5303 c-156 -81 -262 -215 -301 -380 -28 -119 1 -265 74 -379 46
-70 151 -176 197 -198 82 -39 166 -1 201 91 26 66 8 111 -72 186 -161 150
-149 278 36 387 36 21 75 49 88 62 62 67 43 194 -36 241 -45 26 -126 22 -187
-10z"/>
<path d="M4743 4916 c-112 -51 -122 -316 -20 -526 106 -218 322 -259 484 -93
66 69 87 115 87 198 0 57 -5 82 -27 126 -50 104 -172 202 -335 270 -90 37
-145 45 -189 25z"/>
<path d="M2757 4886 c-112 -41 -250 -165 -303 -272 -26 -52 -29 -70 -29 -154
0 -86 3 -100 29 -147 68 -124 227 -234 371 -257 31 -5 50 -2 85 16 121 62 121
239 0 277 -121 37 -144 48 -163 72 -13 18 -17 34 -12 49 11 36 75 100 141 142
84 52 109 106 83 175 -30 80 -125 126 -202 99z"/>
<path d="M1778 4381 c-106 -35 -212 -113 -280 -205 -57 -78 -29 -200 55 -240
75 -35 135 -16 206 66 75 85 152 107 226 66 28 -15 58 -22 97 -22 48 -1 62 4
94 30 108 87 59 229 -102 293 -82 33 -217 39 -296 12z"/>
<path d="M2665 3824 c-182 -28 -260 -55 -299 -106 -56 -75 -39 -169 40 -216
44 -26 88 -25 209 2 39 9 101 16 138 16 66 0 68 -1 61 -22 -36 -119 -221 -390
-446 -657 -84 -99 -99 -136 -79 -201 12 -42 67 -96 107 -106 35 -9 100 1 129
20 29 19 259 284 330 381 169 231 277 481 261 604 -15 113 -101 223 -203 261
-57 21 -185 33 -248 24z"/>
<path d="M4154 3762 c-119 -31 -186 -80 -237 -176 -17 -32 -22 -58 -22 -121 0
-102 31 -171 110 -243 116 -106 267 -110 409 -13 61 42 162 170 212 268 33 65
39 87 39 139 0 71 -19 105 -76 139 -49 29 -331 33 -435 7z m97 -302 c-25 -21
-61 -27 -61 -10 0 12 37 29 65 29 19 0 19 -1 -4 -19z"/>
<path d="M1210 3700 c-31 -4 -80 -15 -110 -25 -81 -26 -241 -103 -267 -127
-59 -55 -68 -174 -20 -247 44 -66 147 -99 221 -71 14 5 26 6 26 1 0 -4 -27
-66 -61 -137 -179 -377 -270 -654 -269 -819 1 -121 97 -204 234 -205 l69 0 56
59 c193 203 667 689 674 690 9 1 3 -61 -19 -209 -19 -118 -32 -171 -99 -385
-50 -160 -141 -473 -152 -522 -23 -99 84 -191 189 -162 76 20 100 57 147 231
23 84 65 232 93 328 102 351 117 409 134 531 48 343 35 485 -52 573 -38 38
-83 56 -138 56 -87 0 -152 -46 -373 -264 -90 -87 -163 -156 -163 -152 0 4 30
69 66 144 36 75 82 178 102 227 33 82 36 99 36 195 1 120 -12 157 -80 223 -60
58 -138 79 -244 67z"/>
<path d="M3550 3371 c-141 -43 -222 -167 -261 -394 -10 -58 -9 -74 5 -110 33
-84 89 -99 244 -68 211 44 323 127 353 262 19 84 -33 207 -113 265 -60 44
-163 65 -228 45z"/>
<path d="M4843 2704 c-175 -38 -283 -153 -283 -301 l0 -52 -46 26 c-116 65
-294 11 -354 -107 -31 -62 -33 -105 -10 -212 12 -54 20 -101 18 -104 -3 -2
-45 11 -94 30 -163 63 -251 69 -364 27 -95 -35 -154 -108 -185 -228 -23 -87
-20 -336 5 -491 23 -141 38 -184 83 -231 115 -121 302 -82 389 82 21 39 23 53
21 192 -1 83 -5 160 -8 173 -8 32 11 29 112 -19 103 -50 147 -56 232 -34 163
42 257 137 290 293 15 74 14 240 -4 347 -20 122 -21 119 26 86 51 -37 131 -55
187 -43 129 29 217 142 243 313 10 63 9 82 -5 131 -37 126 -100 156 -253 122z"/>
<path d="M2915 2445 c-89 -16 -185 -55 -383 -154 -178 -89 -217 -117 -243
-176 -23 -49 -24 -84 -3 -133 34 -82 110 -132 199 -132 49 0 75 9 203 71 129
63 278 129 288 129 18 0 -39 -187 -90 -295 -23 -49 -64 -124 -91 -165 -56 -88
-66 -138 -41 -204 21 -55 83 -113 131 -122 65 -12 133 1 173 32 49 39 218 370
251 491 107 398 47 609 -187 659 -80 16 -115 16 -207 -1z"/>
<path d="M2131 1920 c-57 -12 -124 -52 -153 -92 -33 -47 -38 -150 -9 -206 25
-48 81 -90 133 -98 39 -7 40 -8 89 -207 l12 -49 -46 -46 c-70 -72 -90 -121
-95 -228 -6 -138 22 -221 119 -351 70 -92 141 -165 219 -223 79 -58 252 -144
335 -165 82 -21 196 -19 289 5 102 26 249 102 283 147 71 93 31 259 -74 305
-60 26 -95 20 -206 -37 -115 -59 -147 -59 -273 -4 -52 23 -94 45 -94 48 0 4
21 14 48 23 93 34 152 105 152 185 0 64 -37 122 -114 179 -124 92 -154 151
-226 429 -23 88 -53 184 -67 214 -61 129 -190 198 -322 171z"/>
</g>
</svg>
