<?xml version="1.0" standalone="no"?>
<!DOCTYPE svg PUBLIC "-//W3C//DTD SVG 20010904//EN"
 "http://www.w3.org/TR/2001/REC-SVG-20010904/DTD/svg10.dtd">
<svg version="1.0" xmlns="http://www.w3.org/2000/svg"
 width="600.000000pt" height="600.000000pt" viewBox="0 0 600.000000 600.000000"
 preserveAspectRatio="xMidYMid meet">
<metadata>
Created by potrace 1.15, written by Peter Selinger 2001-2017
</metadata>
<g transform="translate(0.000000,600.000000) scale(0.100000,-0.100000)"
fill="#16364b" stroke="none">
<path d="M1879 4765 c-64 -20 -141 -92 -170 -157 -36 -80 -33 -185 9 -304 53
-151 88 -473 102 -934 5 -162 14 -335 20 -384 6 -52 9 -229 8 -425 -5 -614 26
-837 143 -1008 119 -175 250 -258 487 -309 l82 -17 0 -146 c0 -207 24 -381 71
-520 11 -30 19 -65 19 -78 0 -22 -2 -23 -85 -23 -101 0 -140 -16 -160 -64 -18
-43 -7 -83 29 -110 23 -18 42 -21 119 -21 78 0 100 4 148 26 69 33 110 82 117
144 3 34 -5 72 -36 167 -22 68 -48 164 -56 213 -20 114 -31 297 -22 359 7 48
8 48 39 42 118 -24 382 -37 657 -33 l295 4 -3 -91 c-5 -128 34 -349 93 -531
14 -42 25 -82 25 -90 0 -9 -18 -16 -57 -20 -114 -12 -134 -17 -162 -41 -55
-46 -58 -110 -7 -148 36 -27 124 -26 214 2 167 53 202 131 144 319 -69 221
-97 378 -89 507 2 50 8 98 11 106 5 11 76 25 290 57 166 25 307 51 340 63 163
61 300 240 338 439 27 145 -14 401 -87 540 -55 105 -225 258 -360 325 -38 19
-144 71 -235 116 -91 44 -205 102 -255 130 -49 27 -142 70 -205 96 -410 166
-760 420 -926 669 -87 131 -135 217 -293 530 -182 363 -228 445 -276 499 -79
91 -213 134 -316 101z m160 -174 c36 -26 79 -87 106 -151 10 -25 28 -58 40
-75 12 -16 70 -122 130 -235 59 -113 132 -252 162 -309 167 -318 298 -478 536
-654 230 -172 389 -263 634 -366 67 -28 177 -79 245 -115 68 -35 202 -100 298
-145 153 -71 188 -92 275 -165 114 -93 151 -144 191 -261 25 -72 28 -93 28
-210 0 -108 -4 -140 -22 -189 -44 -120 -120 -208 -216 -252 -61 -27 -279 -58
-898 -124 -136 -14 -480 -11 -623 5 -66 8 -181 21 -255 30 -446 51 -601 199
-640 612 -25 275 -29 408 -18 598 8 143 8 224 0 330 -13 151 -26 355 -42 670
-19 370 -52 621 -101 768 -45 136 -37 205 27 248 37 25 99 21 143 -10z"/>
<path d="M2566 2658 c-22 -31 -20 -41 10 -77 32 -38 65 -40 93 -5 25 32 26 52
5 82 -11 16 -25 22 -54 22 -29 0 -43 -6 -54 -22z"/>
<path d="M3006 2469 c-15 -12 -26 -30 -26 -44 0 -28 43 -65 75 -65 52 0 76 84
33 114 -30 21 -50 20 -82 -5z"/>
<path d="M5226 3965 c-79 -32 -150 -102 -177 -175 -50 -131 18 -340 137 -422
146 -101 401 -16 485 161 31 65 37 167 14 229 -31 80 -70 127 -152 181 l-78
51 -85 0 c-67 0 -98 -6 -144 -25z m147 -288 c26 -11 27 -13 12 -34 -9 -13 -25
-23 -35 -23 -22 0 -44 35 -36 56 6 17 22 17 59 1z"/>
<path d="M5390 1112 c-19 -2 -45 -13 -57 -24 -49 -46 -70 -191 -36 -249 41
-70 133 -61 180 18 37 64 45 185 14 224 -22 29 -46 36 -101 31z"/>
</g>
</svg>
