<?xml version="1.0" standalone="no"?>
<!DOCTYPE svg PUBLIC "-//W3C//DTD SVG 20010904//EN"
 "http://www.w3.org/TR/2001/REC-SVG-20010904/DTD/svg10.dtd">
<svg version="1.0" xmlns="http://www.w3.org/2000/svg"
 width="600.000000pt" height="600.000000pt" viewBox="0 0 600.000000 600.000000"
 preserveAspectRatio="xMidYMid meet">
<metadata>
Created by potrace 1.15, written by Peter Selinger 2001-2017
</metadata>
<g transform="translate(0.000000,600.000000) scale(0.100000,-0.100000)"
fill="#16364b" stroke="none">
<path d="M2553 5514 c-39 -19 -49 -35 -95 -144 -94 -222 -89 -323 20 -407 71
-54 190 -64 447 -37 l60 7 -100 -104 c-168 -174 -233 -261 -376 -504 -58 -100
-64 -115 -63 -165 0 -67 25 -122 68 -153 36 -25 31 -25 376 -13 164 6 264 5
330 -3 195 -24 234 -25 268 -7 95 49 96 189 2 257 -57 42 -326 75 -528 65
l-133 -7 27 43 c92 146 185 251 356 405 70 63 139 133 153 157 72 124 18 247
-135 308 -47 19 -74 22 -180 21 -69 0 -172 -8 -230 -16 -57 -9 -106 -14 -109
-12 -2 3 8 33 22 67 15 35 27 75 27 90 0 61 -47 128 -107 154 -41 18 -60 17
-100 -2z"/>
<path d="M1666 5129 c-106 -25 -287 -140 -393 -250 -69 -72 -159 -200 -196
-277 -36 -78 -34 -133 8 -188 46 -60 76 -67 230 -54 133 12 250 4 295 -20 22
-12 30 -52 30 -159 0 -99 17 -139 71 -167 44 -22 125 -15 168 15 53 38 71 87
71 193 -1 267 -104 404 -334 440 -42 7 -76 16 -76 19 0 14 140 110 196 134
126 55 145 75 151 157 3 42 -1 61 -19 92 -40 67 -104 88 -202 65z"/>
<path d="M4191 4750 c-90 -24 -191 -72 -295 -142 -64 -42 -83 -61 -99 -97 -45
-103 23 -216 131 -216 40 0 59 8 132 56 100 66 165 98 215 106 l37 6 -7 -44
c-18 -110 -108 -349 -187 -499 -51 -96 -50 -146 5 -231 54 -84 66 -87 263 -60
168 23 354 31 412 17 26 -6 32 -12 32 -35 0 -46 -67 -265 -124 -405 -30 -73
-55 -144 -56 -157 -5 -63 1 -82 39 -120 34 -35 44 -39 87 -39 63 0 107 27 135
82 68 133 170 401 194 512 44 196 -20 361 -165 425 -72 32 -202 43 -342 31
-67 -6 -123 -9 -125 -7 -2 2 10 34 27 70 89 196 126 453 84 579 -23 72 -90
141 -160 168 -68 25 -136 25 -233 0z"/>
<path d="M1985 3981 c-158 -66 -299 -110 -458 -141 -69 -14 -120 -53 -137
-106 -24 -72 14 -154 87 -186 39 -17 57 -19 122 -13 176 16 518 131 600 202
89 76 72 216 -32 263 -58 27 -79 25 -182 -19z"/>
<path d="M3737 3665 c-120 -34 -352 -172 -394 -235 -29 -42 -31 -112 -3 -157
46 -76 137 -83 236 -16 32 22 95 59 139 82 66 35 81 40 83 27 8 -38 -70 -223
-151 -359 -26 -43 -47 -83 -47 -88 0 -5 -26 -21 -57 -37 -80 -39 -106 -79
-101 -154 7 -93 73 -158 162 -158 31 0 397 144 503 199 173 88 250 219 193
330 -36 72 -131 107 -205 77 -21 -9 -39 -15 -41 -14 -1 2 4 32 13 68 9 43 13
101 11 170 -3 90 -7 113 -31 161 -41 84 -88 113 -186 116 -42 1 -98 -4 -124
-12z"/>
<path d="M2390 3425 c-79 -16 -260 -77 -303 -103 -93 -54 -104 -184 -21 -247
10 -8 36 -19 56 -25 32 -9 51 -5 160 31 96 33 142 43 211 47 55 3 93 0 99 -6
15 -15 -7 -99 -53 -205 -46 -105 -50 -161 -16 -222 44 -78 149 -108 218 -62
43 29 98 130 140 262 42 128 46 251 11 329 -78 173 -267 249 -502 201z"/>
<path d="M1115 3155 c-88 -36 -137 -74 -162 -125 -63 -123 13 -265 148 -278
l52 -5 -7 -71 c-45 -503 -46 -685 -5 -839 23 -87 112 -143 213 -135 73 6 128
43 161 108 14 28 31 50 38 50 22 0 59 48 152 195 107 169 179 268 236 325 43
42 44 43 50 19 11 -39 10 -331 -2 -416 -5 -43 -22 -118 -36 -168 -42 -152 -46
-171 -39 -209 9 -48 64 -102 118 -117 55 -14 111 2 154 45 85 85 142 447 131
830 -5 209 -23 271 -96 347 -62 63 -126 83 -220 68 -36 -5 -84 -18 -108 -29
-96 -42 -218 -153 -316 -288 -33 -45 -61 -81 -62 -80 -1 2 4 80 12 173 27 321
8 454 -77 541 -58 60 -101 78 -195 81 -67 3 -90 0 -140 -22z"/>
<path d="M4837 2790 c-56 -10 -117 -58 -146 -114 -20 -39 -25 -62 -24 -117 l1
-69 -71 -20 c-353 -101 -501 -217 -552 -431 -19 -80 -19 -214 -1 -301 16 -73
69 -194 109 -247 l26 -34 -39 -28 c-22 -16 -40 -34 -40 -39 0 -19 -46 -9 -195
42 -146 51 -153 52 -260 52 -121 0 -173 -15 -292 -85 -86 -51 -250 -218 -322
-328 -33 -51 -61 -97 -61 -101 0 -5 -9 -12 -21 -15 -11 -4 -47 -31 -81 -61
-72 -64 -99 -68 -164 -23 -87 60 -185 223 -234 389 -13 41 -34 90 -48 109 -70
95 -256 94 -324 -2 -37 -52 -36 -133 2 -242 42 -117 108 -250 176 -350 142
-213 296 -308 495 -307 132 0 241 42 342 131 32 28 63 51 69 51 26 0 81 56
119 123 58 100 103 161 174 236 114 120 169 128 361 51 204 -82 307 -87 444
-19 68 35 146 108 166 156 8 18 14 53 14 78 0 35 4 47 18 51 133 42 201 146
173 261 -12 48 -58 123 -89 145 -51 37 -91 143 -73 192 12 29 79 56 201 80
183 36 268 74 342 154 99 105 139 261 107 414 -31 149 -162 243 -302 218z"/>
<path d="M3145 2445 c-38 -7 -128 -27 -200 -44 -71 -16 -172 -38 -223 -47
-137 -25 -191 -69 -200 -163 -11 -119 81 -231 189 -231 27 0 148 25 268 55
200 50 341 76 341 63 0 -3 -7 -25 -15 -48 -20 -58 -19 -128 4 -170 10 -19 40
-48 66 -65 41 -25 58 -30 112 -29 121 1 178 70 216 259 18 94 19 113 8 168
-23 115 -91 196 -197 238 -73 28 -259 35 -369 14z"/>
</g>
</svg>
