<?xml version="1.0" standalone="no"?>
<!DOCTYPE svg PUBLIC "-//W3C//DTD SVG 20010904//EN"
 "http://www.w3.org/TR/2001/REC-SVG-20010904/DTD/svg10.dtd">
<svg version="1.0" xmlns="http://www.w3.org/2000/svg"
 width="600.000000pt" height="600.000000pt" viewBox="0 0 600.000000 600.000000"
 preserveAspectRatio="xMidYMid meet">
<metadata>
Created by potrace 1.15, written by Peter Selinger 2001-2017
</metadata>
<g transform="translate(0.000000,600.000000) scale(0.100000,-0.100000)"
fill="#16364b" stroke="none">
<path d="M1525 5758 c-29 -23 -167 -295 -200 -393 -27 -81 -30 -146 -10 -190
45 -94 156 -99 283 -14 72 49 260 209 325 277 52 55 57 65 57 105 0 55 -27 92
-76 106 -52 14 -90 -3 -169 -78 -109 -105 -112 -105 -66 -13 46 91 50 123 22
166 -39 59 -115 74 -166 34z"/>
<path d="M2375 5456 c-60 -26 -62 -38 -68 -307 -5 -264 -12 -311 -67 -418 -38
-76 -98 -133 -192 -182 -93 -48 -122 -83 -114 -142 8 -69 79 -116 146 -97 61
18 177 87 235 141 151 142 207 324 221 719 6 155 4 191 -9 222 -26 62 -94 90
-152 64z"/>
<path d="M3498 5313 c-14 -16 -32 -47 -38 -69 -11 -37 -10 -50 9 -104 52 -157
183 -279 299 -280 85 0 132 48 132 135 0 50 -20 97 -81 187 -49 72 -97 111
-169 137 -80 29 -120 28 -152 -6z"/>
<path d="M2963 5155 c-58 -30 -121 -93 -155 -157 -18 -34 -23 -59 -23 -119 0
-66 3 -81 28 -117 58 -89 183 -112 304 -58 104 47 123 85 123 246 -1 158 -46
221 -165 228 -49 3 -69 -1 -112 -23z"/>
<path d="M4761 4777 c-13 -6 -34 -25 -45 -40 -19 -26 -21 -41 -20 -175 2 -162
17 -250 59 -332 60 -118 152 -180 264 -180 82 0 135 23 183 79 59 70 72 154
38 262 -34 113 -112 210 -242 302 -127 91 -185 111 -237 84z m219 -409 c11
-18 20 -42 20 -53 0 -17 -4 -15 -19 10 -21 33 -36 75 -27 75 4 0 15 -15 26
-32z"/>
<path d="M2675 4227 c-82 -27 -152 -84 -188 -151 -27 -52 -29 -147 -4 -193 60
-113 218 -186 356 -164 86 14 152 53 248 146 93 91 112 134 93 204 -17 65 -56
92 -182 131 -129 38 -255 49 -323 27z"/>
<path d="M1075 4096 c-37 -17 -70 -52 -84 -89 -34 -88 26 -175 133 -193 65
-10 166 -44 166 -55 0 -25 -102 -69 -293 -125 -72 -21 -132 -44 -145 -57 -92
-86 -55 -240 63 -263 43 -8 255 44 361 89 81 34 144 72 220 133 l42 34 -15
-48 c-19 -62 -12 -155 16 -210 76 -149 268 -219 419 -153 67 30 134 104 162
179 28 73 24 186 -7 247 -47 90 -138 146 -249 153 -85 5 -150 -13 -226 -64
-47 -32 -50 -33 -43 -12 4 13 9 53 12 89 12 155 -85 252 -318 320 -127 36
-177 42 -214 25z"/>
<path d="M4219 3760 c-76 -13 -153 -56 -208 -115 -122 -134 -122 -319 -1 -429
65 -59 122 -81 210 -81 65 0 84 4 141 32 126 62 208 184 230 340 15 102 7 141
-34 180 -56 54 -230 92 -338 73z m51 -299 c0 -16 -31 -41 -51 -41 -25 0 -24
15 3 34 25 18 48 21 48 7z"/>
<path d="M5135 3559 c-163 -56 -276 -188 -278 -324 -2 -106 47 -203 139 -276
148 -117 373 -41 471 160 25 49 28 68 28 151 0 74 -4 103 -19 130 -24 44 -123
148 -158 166 -38 20 -113 17 -183 -7z m46 -342 c-16 -16 -26 0 -10 19 9 11 15
12 17 4 2 -6 -1 -17 -7 -23z"/>
<path d="M2553 3495 c-163 -50 -293 -215 -363 -460 -18 -60 -40 -126 -50 -146
-30 -57 -89 -107 -180 -150 -487 -233 -753 -746 -621 -1201 48 -164 104 -262
211 -368 84 -84 158 -136 271 -192 119 -58 205 -79 354 -85 117 -4 140 -2 230
21 163 42 295 114 435 235 87 75 90 79 149 155 99 130 155 286 217 606 30 156
34 193 34 341 0 269 -54 618 -136 884 -19 60 -79 165 -128 221 -104 121 -288
182 -423 139z m142 -422 c14 -21 25 -43 25 -50 0 -7 15 -64 34 -126 19 -62 47
-185 62 -272 60 -346 26 -735 -85 -979 -74 -162 -281 -324 -456 -357 -131 -24
-263 13 -396 114 -131 98 -182 196 -182 352 -1 105 19 189 68 293 71 151 175
257 311 317 158 69 216 106 296 186 91 90 119 143 173 328 39 133 56 173 88
209 27 29 32 28 62 -15z"/>
<path d="M3423 3375 c-17 -7 -50 -37 -73 -66 -54 -68 -130 -220 -130 -258 0
-41 51 -98 94 -106 43 -9 138 20 177 52 64 54 109 158 109 251 0 65 -21 106
-66 127 -39 18 -69 19 -111 0z"/>
<path d="M382 2300 c-48 -30 -66 -79 -52 -143 62 -290 272 -623 446 -708 206
-99 385 65 318 292 -51 172 -173 301 -429 451 -66 39 -136 81 -155 94 -52 35
-89 39 -128 14z m418 -505 c80 -104 79 -154 -1 -66 -54 58 -129 163 -129 181
0 17 87 -60 130 -115z"/>
<path d="M4340 2029 c-19 -12 -40 -29 -46 -38 -11 -14 -15 -13 -39 11 -68 68
-197 41 -240 -49 -21 -43 -17 -144 10 -298 50 -287 100 -387 208 -416 111 -30
216 69 262 246 8 33 29 140 46 239 25 150 28 184 18 215 -31 97 -136 140 -219
90z"/>
</g>
</svg>
