<?xml version="1.0" standalone="no"?>
<!DOCTYPE svg PUBLIC "-//W3C//DTD SVG 20010904//EN"
 "http://www.w3.org/TR/2001/REC-SVG-20010904/DTD/svg10.dtd">
<svg version="1.0" xmlns="http://www.w3.org/2000/svg"
 width="600.000000pt" height="600.000000pt" viewBox="0 0 600.000000 600.000000"
 preserveAspectRatio="xMidYMid meet">
<metadata>
Created by potrace 1.15, written by Peter Selinger 2001-2017
</metadata>
<g transform="translate(0.000000,600.000000) scale(0.100000,-0.100000)"
fill="#16364b" stroke="none">
<path d="M3114 5631 c-50 -30 -68 -81 -61 -172 11 -136 72 -253 175 -334 31
-25 110 -72 174 -105 64 -33 119 -64 122 -69 3 -5 -22 -25 -57 -46 -187 -111
-474 -295 -513 -330 -36 -32 -46 -49 -52 -85 -7 -40 -11 -45 -41 -54 -72 -21
-131 -117 -117 -189 14 -71 75 -127 138 -127 13 0 67 16 122 35 69 25 133 40
219 50 86 10 128 19 146 32 84 63 94 172 22 237 l-21 19 27 19 c16 10 98 61
183 113 85 51 174 110 197 129 82 71 105 173 59 271 -36 78 -124 151 -272 225
-178 88 -233 148 -234 250 -1 43 -37 108 -72 130 -42 25 -104 26 -144 1z"/>
<path d="M1289 5386 c-188 -68 -386 -299 -444 -521 -37 -141 -28 -388 18 -471
24 -42 92 -84 137 -84 14 0 46 10 70 23 34 17 51 34 69 71 23 45 23 52 13 111
-18 96 -15 166 13 252 41 131 119 238 225 308 37 25 75 56 84 71 31 46 19 152
-22 198 -39 43 -110 61 -163 42z"/>
<path d="M1531 5078 c-61 -14 -87 -32 -111 -82 -26 -55 -25 -93 3 -146 25 -48
74 -80 123 -80 l31 0 -35 -87 c-39 -98 -52 -197 -33 -256 31 -92 112 -158 231
-189 50 -12 60 -18 45 -24 -142 -53 -197 -80 -296 -146 -92 -61 -113 -93 -112
-166 0 -68 39 -127 103 -160 66 -34 103 -26 197 43 97 71 221 131 305 149 121
25 168 69 168 157 0 81 -74 159 -151 159 -22 0 -39 2 -39 4 0 2 11 24 25 47
30 53 32 99 5 153 -27 54 -62 78 -122 84 -31 3 -48 9 -48 18 0 7 16 56 35 107
19 51 40 120 46 151 36 196 -134 317 -370 264z"/>
<path d="M4475 4571 c-11 -5 -31 -21 -45 -36 -21 -23 -25 -36 -25 -90 0 -49 5
-70 21 -91 42 -57 65 -67 173 -72 56 -2 101 -7 101 -11 0 -3 -54 -41 -121 -84
-106 -69 -123 -84 -140 -123 -46 -103 36 -209 147 -191 47 8 269 136 358 207
116 92 158 159 158 253 0 113 -79 183 -243 217 -104 22 -353 35 -384 21z"/>
<path d="M2515 3709 c-129 -31 -264 -89 -302 -130 -70 -76 -53 -186 36 -246
54 -36 98 -31 216 28 73 35 120 52 161 56 l57 6 -6 -55 c-20 -168 -145 -434
-293 -624 -87 -112 -94 -123 -94 -165 0 -38 32 -108 60 -134 18 -16 18 -19 3
-49 -23 -45 -21 -132 5 -183 29 -56 73 -86 138 -91 46 -4 64 1 160 45 131 60
300 121 310 111 9 -10 -4 -41 -113 -266 -81 -168 -93 -200 -93 -245 0 -62 23
-110 72 -150 74 -60 203 -42 263 37 39 52 218 415 249 506 40 118 47 252 17
330 -24 64 -83 130 -144 162 -93 48 -271 32 -461 -41 -44 -17 -81 -29 -83 -27
-2 2 24 47 58 100 80 128 192 357 231 476 28 83 32 109 32 205 1 101 -1 115
-27 166 -32 67 -99 132 -165 162 -54 24 -217 33 -287 16z"/>
<path d="M3925 3701 c-52 -23 -102 -81 -111 -127 -18 -97 24 -191 131 -293 78
-74 134 -105 216 -123 68 -14 114 -6 171 32 115 76 133 250 33 316 -14 9 -24
23 -21 29 9 25 -17 96 -46 124 -59 58 -284 83 -373 42z"/>
<path d="M1123 3525 c-93 -25 -283 -135 -333 -191 -62 -72 -64 -173 -3 -244
59 -68 139 -88 220 -55 20 8 38 14 40 11 2 -2 -33 -104 -78 -227 -100 -277
-125 -373 -140 -541 -13 -158 -7 -228 26 -284 32 -54 59 -71 149 -90 117 -26
129 -18 309 186 173 196 244 286 375 468 80 112 97 131 105 116 20 -35 -5
-230 -73 -579 -57 -289 -71 -388 -72 -495 -1 -151 43 -220 146 -227 64 -5 107
19 137 79 18 35 21 58 20 134 -1 98 15 196 88 519 62 274 75 375 67 540 -10
228 -22 338 -40 378 -47 97 -145 140 -247 106 -85 -29 -202 -147 -396 -401
-58 -76 -108 -138 -110 -138 -9 0 5 47 82 280 40 124 79 253 85 287 51 260
-117 432 -357 368z"/>
<path d="M3644 3251 c-55 -14 -135 -65 -176 -111 -57 -63 -111 -180 -116 -249
-3 -46 0 -62 20 -90 39 -58 72 -76 137 -76 62 1 106 23 129 67 11 21 20 23 85
25 128 3 218 47 256 126 51 105 2 216 -122 277 -66 32 -157 46 -213 31z"/>
<path d="M4619 3194 c-45 -29 -69 -75 -69 -134 l0 -53 104 -101 c58 -56 110
-114 116 -130 10 -27 8 -33 -28 -70 -65 -67 -77 -112 -48 -179 23 -54 59 -80
118 -84 47 -4 59 -1 101 27 104 70 157 161 157 270 0 115 -52 215 -175 337
-109 107 -149 133 -204 133 -25 0 -58 -8 -72 -16z"/>
<path d="M4492 2264 c-99 -49 -150 -148 -136 -261 6 -50 5 -56 -10 -50 -32 13
-211 45 -281 52 -188 17 -362 -57 -438 -188 -53 -90 -61 -149 -62 -427 0 -247
1 -256 23 -293 12 -21 22 -40 22 -42 0 -2 -23 -1 -50 2 -44 5 -59 2 -116 -27
l-65 -34 -32 19 c-57 32 -199 139 -256 191 -81 74 -198 162 -254 191 -146 73
-284 12 -321 -142 -6 -22 -10 -26 -15 -15 -14 26 -31 161 -41 316 -7 122 -13
160 -29 193 -52 100 -208 135 -291 64 -55 -46 -70 -89 -70 -207 0 -287 67
-594 167 -765 84 -144 319 -302 449 -302 60 0 85 10 131 54 46 44 57 83 48
188 -3 49 -3 89 0 89 4 0 24 -13 44 -28 72 -57 217 -150 281 -180 135 -63 233
-77 326 -45 185 62 274 206 207 336 -14 28 -14 29 9 21 79 -25 192 7 244 69
50 59 56 87 55 258 -1 87 1 176 5 197 l6 39 68 -13 c37 -7 92 -20 121 -28 79
-24 259 -22 340 4 115 36 189 110 241 239 20 50 23 73 22 216 0 174 -6 200
-60 264 -62 74 -185 94 -282 45z"/>
</g>
</svg>
