<?xml version="1.0" standalone="no"?>
<!DOCTYPE svg PUBLIC "-//W3C//DTD SVG 20010904//EN"
 "http://www.w3.org/TR/2001/REC-SVG-20010904/DTD/svg10.dtd">
<svg version="1.0" xmlns="http://www.w3.org/2000/svg"
 width="600.000000pt" height="600.000000pt" viewBox="0 0 600.000000 600.000000"
 preserveAspectRatio="xMidYMid meet">
<metadata>
Created by potrace 1.15, written by Peter Selinger 2001-2017
</metadata>
<g transform="translate(0.000000,600.000000) scale(0.100000,-0.100000)"
fill="#16364b" stroke="none">
<path d="M2540 5523 c-48 -19 -80 -69 -137 -217 -30 -76 -36 -105 -37 -171 -1
-101 25 -154 97 -199 66 -41 152 -45 331 -17 75 12 144 21 153 19 12 -2 -12
-34 -86 -112 -168 -179 -267 -309 -382 -501 -49 -82 -54 -95 -54 -150 0 -73
27 -130 76 -163 32 -23 38 -24 134 -15 172 14 507 8 625 -11 181 -30 191 -31
230 -4 50 34 80 83 80 131 0 51 -35 112 -74 131 -57 27 -237 48 -458 53 -120
3 -218 8 -218 11 0 12 96 122 223 256 249 262 297 332 297 441 0 112 -64 191
-185 229 -48 16 -77 18 -174 12 -64 -3 -158 -14 -208 -24 -51 -11 -95 -17 -97
-15 -2 3 9 34 25 70 16 36 29 79 29 96 0 41 -34 107 -66 131 -27 19 -97 30
-124 19z"/>
<path d="M1621 5105 c-159 -62 -386 -237 -516 -400 -87 -108 -104 -176 -62
-250 12 -22 38 -50 56 -62 32 -22 43 -23 207 -23 182 0 260 -10 295 -39 18
-14 23 -34 31 -116 13 -143 49 -194 145 -202 65 -6 111 20 141 79 22 43 23 49
13 164 -11 125 -29 195 -67 255 -43 69 -132 126 -234 149 -104 23 -103 22 -17
78 42 28 98 58 125 67 26 10 60 22 75 28 104 38 110 220 9 280 -43 24 -123 21
-201 -8z"/>
<path d="M4182 4741 c-133 -39 -340 -160 -366 -215 -33 -70 -11 -159 49 -196
54 -33 96 -26 195 31 96 55 194 98 224 99 17 0 18 -5 13 -57 -12 -107 -77
-273 -173 -445 -51 -91 -56 -104 -52 -148 5 -47 14 -63 81 -145 41 -49 80 -54
272 -34 155 16 290 24 368 21 36 -2 37 -3 37 -41 0 -55 -30 -144 -116 -353
-42 -100 -78 -195 -81 -212 -17 -108 99 -192 195 -142 50 26 70 60 156 261
105 248 137 351 143 471 5 78 2 97 -17 142 -39 91 -131 151 -268 173 -57 10
-104 10 -211 0 -75 -6 -148 -15 -161 -18 -18 -5 -22 -3 -17 8 112 266 131 334
131 494 1 122 -1 133 -26 180 -53 100 -129 145 -243 144 -38 0 -98 -9 -133
-18z"/>
<path d="M1994 3985 c-96 -44 -345 -118 -464 -139 -147 -25 -190 -201 -68
-276 64 -39 194 -20 498 72 248 74 285 101 285 208 0 66 -18 99 -75 138 -43
29 -108 28 -176 -3z"/>
<path d="M3732 3684 c-128 -34 -375 -178 -419 -244 -59 -86 -1 -226 102 -246
53 -10 88 3 166 62 76 56 189 124 208 124 26 0 -35 -190 -117 -362 -56 -119
-61 -126 -105 -147 -114 -55 -128 -201 -26 -268 62 -41 114 -35 261 27 375
160 502 261 503 401 0 64 -18 98 -75 137 -41 28 -93 28 -144 1 l-39 -20 7 23
c45 168 47 309 3 394 -60 118 -174 159 -325 118z"/>
<path d="M2435 3420 c-84 -10 -249 -43 -324 -66 -65 -19 -107 -58 -116 -107
-15 -79 15 -141 86 -177 52 -27 86 -25 194 10 103 33 195 50 269 50 l49 0 -6
-38 c-2 -22 -26 -90 -53 -153 -53 -125 -58 -169 -26 -222 43 -74 136 -99 203
-54 37 24 109 159 155 289 92 261 -24 460 -276 472 -47 3 -116 1 -155 -4z"/>
<path d="M1142 3150 c-88 -42 -130 -76 -158 -131 -59 -118 5 -249 132 -267
l49 -7 0 -85 c-1 -47 -5 -213 -9 -370 -9 -306 -2 -404 35 -490 26 -58 45 -79
94 -101 106 -49 233 12 260 122 4 15 24 41 45 58 25 20 56 65 95 138 80 151
158 264 244 352 l74 76 7 -30 c12 -46 11 -322 0 -395 -6 -36 -27 -131 -46
-211 -41 -169 -39 -201 21 -259 30 -29 43 -34 92 -37 65 -5 108 15 139 62 20
31 76 254 101 405 12 75 17 161 17 300 0 216 -9 271 -57 363 -89 170 -272 189
-458 48 -75 -57 -172 -154 -228 -230 -22 -29 -43 -56 -45 -59 -3 -3 -3 87 1
199 7 230 -2 306 -46 403 -55 122 -127 175 -236 176 -46 0 -75 -7 -123 -30z"/>
<path d="M4830 2791 c-113 -37 -173 -117 -174 -235 l-1 -70 -120 -31 c-164
-42 -264 -92 -341 -169 -132 -132 -173 -311 -119 -521 17 -65 82 -208 117
-257 20 -29 20 -31 3 -40 -10 -6 -35 -26 -56 -45 l-38 -34 -102 41 c-183 74
-263 85 -388 54 -195 -49 -470 -256 -592 -446 -27 -43 -54 -78 -60 -78 -5 0
-39 -27 -74 -60 -52 -49 -71 -60 -98 -60 -102 0 -261 212 -313 415 -22 88 -46
137 -79 163 -94 74 -224 42 -279 -69 -32 -65 -32 -88 -1 -216 62 -256 153
-410 323 -545 244 -194 458 -195 670 -6 38 35 85 72 103 83 18 11 50 49 72 85
56 92 118 166 194 233 123 106 179 117 329 67 205 -68 295 -75 423 -35 154 49
254 151 254 260 0 52 1 53 32 59 101 19 175 117 175 233 0 78 -15 109 -87 185
-59 63 -83 109 -83 162 0 43 5 46 195 110 279 94 400 223 413 441 8 148 -35
252 -126 303 -45 25 -131 37 -172 23z"/>
<path d="M3030 2440 c-136 -25 -299 -72 -370 -107 -94 -48 -145 -150 -120
-242 22 -81 93 -134 179 -133 20 1 92 17 160 36 166 48 356 86 425 86 31 0 56
-2 56 -4 0 -2 -7 -23 -15 -46 -35 -99 0 -209 81 -256 60 -35 142 -31 204 10
74 49 125 204 119 359 -7 146 -70 235 -207 289 -82 31 -358 36 -512 8z"/>
</g>
</svg>
