<?xml version="1.0" standalone="no"?>
<!DOCTYPE svg PUBLIC "-//W3C//DTD SVG 20010904//EN"
 "http://www.w3.org/TR/2001/REC-SVG-20010904/DTD/svg10.dtd">
<svg version="1.0" xmlns="http://www.w3.org/2000/svg"
 width="600.000000pt" height="600.000000pt" viewBox="0 0 600.000000 600.000000"
 preserveAspectRatio="xMidYMid meet">
<metadata>
Created by potrace 1.15, written by Peter Selinger 2001-2017
</metadata>
<g transform="translate(0.000000,600.000000) scale(0.100000,-0.100000)"
fill="#16364b" stroke="none">
<path d="M1895 5816 c-41 -18 -53 -34 -120 -161 -32 -60 -93 -171 -135 -245
-154 -269 -183 -345 -159 -417 30 -95 94 -138 195 -131 52 3 82 13 166 56 126
63 317 187 454 293 84 65 105 87 119 123 42 109 -49 217 -171 203 -40 -4 -90
-34 -234 -141 -8 -6 3 21 24 59 108 196 109 200 77 270 -22 48 -44 69 -94 90
-44 18 -82 19 -122 1z"/>
<path d="M3000 5682 c-45 -24 -83 -94 -76 -140 9 -58 42 -99 104 -128 199 -92
269 -139 384 -255 101 -102 158 -204 166 -293 4 -48 2 -55 -23 -74 -15 -12
-54 -27 -87 -33 -123 -24 -180 -124 -127 -219 32 -56 72 -74 150 -68 84 8 165
39 237 93 99 75 142 162 142 289 0 88 -19 156 -73 261 -106 203 -341 422 -584
544 -94 47 -155 53 -213 23z"/>
<path d="M930 5394 c-146 -39 -262 -138 -327 -280 -82 -180 -5 -420 185 -569
69 -55 111 -69 167 -54 48 13 83 42 101 86 33 76 7 147 -81 226 -67 59 -87 95
-87 155 0 75 61 135 151 147 94 13 151 71 151 156 0 119 -107 174 -260 133z"/>
<path d="M2898 5086 c-96 -26 -188 -120 -224 -228 -25 -75 -17 -183 18 -236
39 -58 84 -89 159 -108 111 -28 269 -1 323 55 34 36 47 113 25 152 -7 13 -14
53 -14 89 -2 111 -60 226 -134 264 -41 21 -102 26 -153 12z"/>
<path d="M4795 4896 c-88 -43 -107 -80 -106 -213 4 -355 132 -543 370 -543
198 0 312 190 240 403 -44 130 -148 238 -305 318 -91 46 -153 57 -199 35z"/>
<path d="M1966 4749 c-62 -15 -156 -70 -184 -108 -36 -46 -38 -130 -5 -177 47
-66 139 -83 225 -43 61 29 78 21 97 -47 16 -58 51 -108 91 -129 43 -22 122
-19 154 6 57 44 68 104 40 200 -56 188 -169 298 -313 305 -36 2 -83 -1 -105
-7z"/>
<path d="M1190 3991 c-163 -36 -254 -68 -287 -104 -57 -59 -73 -126 -49 -194
34 -97 102 -147 191 -141 30 1 55 -1 55 -6 0 -5 -64 -106 -143 -225 -153 -231
-203 -312 -262 -431 -46 -90 -101 -232 -110 -281 -17 -92 57 -201 147 -214 58
-9 126 20 164 70 13 18 98 83 187 145 180 125 235 169 352 280 125 119 252
220 276 220 12 0 11 -71 -1 -146 -22 -134 -107 -389 -176 -527 -53 -104 -195
-345 -256 -433 -81 -116 -98 -147 -98 -177 0 -80 67 -148 154 -155 106 -9 143
29 306 315 187 326 338 650 385 828 23 87 30 246 16 345 -23 155 -71 243 -154
285 -113 56 -249 13 -454 -142 -46 -34 -83 -59 -83 -56 0 3 13 24 28 47 16 22
68 98 116 168 128 187 153 285 102 393 -62 131 -207 180 -406 136z"/>
<path d="M2972 3999 c-63 -11 -138 -47 -187 -91 -89 -77 -115 -211 -62 -314
67 -132 240 -219 457 -230 86 -5 99 -3 140 18 59 31 90 78 90 137 -1 25 -7 57
-14 70 -13 23 -11 26 18 45 59 40 84 133 52 194 -20 39 -53 66 -121 100 -126
63 -267 90 -373 71z"/>
<path d="M4213 3775 c-137 -38 -245 -126 -279 -227 -50 -152 44 -352 193 -408
67 -25 105 -25 181 -2 150 47 257 179 327 403 23 74 25 92 16 126 -12 45 -38
76 -84 100 -45 23 -280 29 -354 8z m57 -315 c0 -5 -11 -17 -26 -26 -34 -23
-56 -4 -23 20 26 18 49 21 49 6z"/>
<path d="M3415 3382 c-61 -29 -122 -98 -166 -187 -58 -119 -67 -162 -45 -219
11 -28 32 -57 54 -74 32 -25 44 -27 139 -30 96 -4 108 -2 158 22 99 49 155
139 162 261 4 62 1 76 -24 124 -15 30 -45 69 -66 85 -32 26 -48 31 -105 34
-50 2 -77 -2 -107 -16z"/>
<path d="M4950 3049 c-47 -29 -177 -162 -220 -224 -84 -122 -105 -257 -55
-355 78 -154 288 -158 438 -8 90 90 134 212 124 348 -6 93 -27 137 -96 204
-45 44 -55 50 -103 53 -42 3 -60 -1 -88 -18z"/>
<path d="M3965 2588 c-77 -39 -125 -101 -139 -178 -6 -37 1 -68 49 -227 16
-51 26 -96 22 -99 -3 -4 -29 3 -56 15 -64 27 -169 28 -227 2 -121 -55 -194
-183 -194 -342 0 -115 30 -249 112 -498 35 -106 47 -130 82 -165 112 -112 314
-77 387 67 28 54 28 135 0 207 -11 30 -21 58 -21 62 0 3 24 -7 53 -22 77 -43
140 -48 229 -19 177 58 229 194 183 479 -22 131 -48 229 -110 411 -57 166 -74
206 -111 255 -52 70 -177 95 -259 52z"/>
<path d="M2018 2190 c-78 -23 -168 -112 -243 -240 -71 -121 -72 -207 -5 -284
l29 -32 -74 -77 c-207 -214 -243 -528 -93 -819 74 -144 228 -279 433 -379 234
-114 483 -121 683 -20 119 60 273 194 313 273 25 49 24 121 -2 174 l-20 43 30
45 c87 126 261 526 307 703 67 260 -27 439 -254 483 -123 25 -259 -14 -541
-151 -101 -49 -185 -89 -186 -87 -1 2 -10 39 -20 83 -34 158 -102 259 -191
284 -45 13 -127 13 -166 1z m972 -601 c-31 -91 -115 -299 -146 -361 -14 -29
-49 -90 -77 -136 -63 -104 -70 -154 -34 -225 l25 -49 -61 -62 c-103 -105 -214
-147 -330 -127 -145 25 -335 159 -393 278 -32 65 -44 190 -25 260 21 76 111
183 155 183 6 0 22 -30 34 -67 33 -95 79 -159 128 -183 53 -26 88 -25 150 4
114 53 162 191 102 295 -10 18 -17 35 -15 38 8 7 441 210 472 220 17 5 31 7
33 3 2 -4 -7 -36 -18 -71z"/>
</g>
</svg>
