<?xml version="1.0" standalone="no"?>
<!DOCTYPE svg PUBLIC "-//W3C//DTD SVG 20010904//EN"
 "http://www.w3.org/TR/2001/REC-SVG-20010904/DTD/svg10.dtd">
<svg version="1.0" xmlns="http://www.w3.org/2000/svg"
 width="600.000000pt" height="600.000000pt" viewBox="0 0 600.000000 600.000000"
 preserveAspectRatio="xMidYMid meet">
<metadata>
Created by potrace 1.15, written by Peter Selinger 2001-2017
</metadata>
<g transform="translate(0.000000,600.000000) scale(0.100000,-0.100000)"
fill="#16364b" stroke="none">
<path d="M2384 5392 c-26 -17 -33 -51 -27 -138 7 -108 -11 -299 -39 -403 -42
-160 -128 -276 -248 -333 -36 -18 -73 -38 -82 -46 -41 -34 -7 -112 48 -112 15
0 61 16 103 37 230 110 351 391 351 813 0 166 -8 190 -63 190 -18 0 -37 -4
-43 -8z"/>
<path d="M3551 5281 c-29 -8 -59 -54 -60 -92 -2 -45 59 -150 124 -216 88 -88
168 -105 215 -46 39 50 15 132 -73 248 -62 83 -141 123 -206 106z"/>
<path d="M3002 5095 c-111 -48 -191 -255 -134 -348 90 -145 341 5 345 206 2
122 -100 190 -211 142z m78 -142 c0 -16 -9 -42 -20 -60 -20 -33 -67 -70 -76
-60 -18 18 59 147 87 147 5 0 9 -12 9 -27z"/>
<path d="M4753 4716 c-26 -23 -28 -29 -33 -132 -13 -226 8 -404 54 -474 45
-68 127 -86 193 -43 80 53 88 217 22 418 -74 221 -155 301 -236 231z"/>
<path d="M2622 4193 c-57 -28 -89 -89 -77 -149 25 -138 302 -227 489 -157 76
28 117 69 123 123 10 86 -41 117 -303 184 -81 21 -189 20 -232 -1z"/>
<path d="M5282 3969 c-64 -11 -144 -50 -183 -90 -144 -147 -93 -435 94 -531
58 -29 159 -29 249 1 312 104 361 432 88 588 -63 36 -158 48 -248 32z m97
-290 c37 -13 39 -22 9 -43 -32 -23 -47 -20 -58 10 -17 43 -4 51 49 33z"/>
<path d="M4202 3759 c-56 -11 -137 -56 -169 -94 -75 -88 -99 -235 -53 -325 35
-68 60 -98 110 -130 147 -94 366 -34 444 122 21 42 26 66 26 124 0 96 -16 168
-45 203 -31 36 -127 86 -193 100 -59 12 -60 12 -120 0z m78 -281 c0 -16 -30
-48 -46 -48 -23 0 -25 19 -4 40 22 22 50 27 50 8z"/>
<path d="M1120 3524 c-110 -30 -194 -98 -239 -194 -37 -79 -37 -194 1 -265 61
-116 224 -228 388 -265 127 -29 188 -85 265 -245 78 -161 136 -370 170 -620
27 -196 71 -322 161 -456 143 -215 314 -318 579 -348 254 -28 1547 -19 1710
13 178 34 312 81 532 186 161 77 213 111 297 189 155 147 232 338 243 611 9
199 -19 321 -97 437 -119 175 -326 327 -500 368 -131 30 -323 12 -467 -46
-103 -41 -182 -88 -348 -209 -171 -124 -253 -166 -365 -186 -101 -18 -171 -13
-271 21 -193 66 -615 319 -945 568 -196 147 -372 263 -489 322 -226 115 -469
161 -625 119z m280 -341 c231 -58 459 -194 727 -432 120 -106 193 -156 438
-304 229 -138 436 -240 545 -269 110 -29 328 -31 430 -4 173 45 293 108 500
263 216 162 345 210 493 185 93 -16 155 -52 229 -131 103 -110 134 -205 125
-386 -5 -123 -30 -206 -86 -294 -46 -70 -87 -104 -200 -161 -308 -154 -521
-209 -834 -213 -346 -4 -1255 5 -1317 14 -37 5 -95 24 -136 44 -148 72 -214
194 -268 490 -27 147 -156 616 -202 729 -86 215 -262 363 -484 408 -103 21
-163 46 -168 71 -6 31 58 29 208 -10z"/>
<path d="M2240 2349 c-44 -18 -53 -56 -20 -89 31 -31 76 -26 95 9 15 31 7 81
-14 81 -5 0 -15 2 -23 4 -7 3 -24 0 -38 -5z"/>
<path d="M2854 2071 c-44 -19 -36 -74 16 -104 36 -22 63 -21 83 1 49 54 -27
133 -99 103z"/>
<path d="M3485 3356 c-57 -25 -212 -281 -199 -330 9 -39 57 -61 95 -45 68 28
190 205 205 296 5 36 3 45 -19 67 -29 29 -39 31 -82 12z"/>
<path d="M472 2020 c-31 -29 -28 -71 6 -102 15 -14 48 -50 74 -81 86 -100 201
-135 242 -72 47 72 -19 152 -201 244 -73 36 -92 38 -121 11z"/>
<path d="M5358 1100 c-36 -28 -72 -144 -66 -211 9 -85 74 -126 143 -89 51 27
85 130 77 232 -7 78 -93 116 -154 68z"/>
</g>
</svg>
