<?xml version="1.0" standalone="no"?>
<!DOCTYPE svg PUBLIC "-//W3C//DTD SVG 20010904//EN"
 "http://www.w3.org/TR/2001/REC-SVG-20010904/DTD/svg10.dtd">
<svg version="1.0" xmlns="http://www.w3.org/2000/svg"
 width="600.000000pt" height="600.000000pt" viewBox="0 0 600.000000 600.000000"
 preserveAspectRatio="xMidYMid meet">
<metadata>
Created by potrace 1.15, written by Peter Selinger 2001-2017
</metadata>
<g transform="translate(0.000000,600.000000) scale(0.100000,-0.100000)"
fill="#16364b" stroke="none">
<path d="M2270 5652 c-106 -40 -176 -101 -227 -199 -39 -74 -49 -110 -73 -280
-18 -123 -20 -196 -20 -668 0 -395 -5 -623 -20 -895 -11 -201 -20 -382 -20
-402 0 -21 -4 -38 -10 -38 -5 0 -43 33 -83 74 -79 79 -165 200 -218 308 l-33
68 27 28 c43 45 30 86 -15 45 -26 -23 -29 -14 -17 50 5 32 7 62 4 67 -13 21
-32 8 -54 -37 l-23 -48 -22 45 c-12 25 -29 46 -40 48 -17 4 -18 -1 -12 -49 l7
-54 -23 23 c-27 25 -58 29 -58 8 0 -8 20 -47 45 -87 25 -40 45 -80 45 -88 0
-24 67 -148 138 -256 69 -105 178 -222 274 -294 l57 -43 -5 -46 c-2 -26 -11
-119 -21 -207 -44 -423 0 -801 128 -1083 88 -195 271 -351 459 -392 30 -6 62
-14 70 -16 13 -3 15 -28 15 -156 0 -166 7 -206 80 -453 38 -130 42 -155 23
-156 -7 0 -48 -2 -91 -4 -93 -4 -134 -24 -160 -78 -49 -98 55 -159 215 -127
168 33 252 132 214 254 -67 219 -107 364 -116 418 -11 68 -12 205 -1 253 7 35
8 35 166 14 68 -9 217 -14 464 -14 l364 0 -2 -90 c-2 -107 18 -259 61 -445 17
-74 33 -149 35 -166 l5 -31 -79 -5 c-92 -5 -138 -26 -160 -72 -19 -42 -9 -81
31 -110 57 -43 216 -14 297 53 72 60 85 130 45 247 -52 154 -71 269 -71 435 0
110 4 160 13 171 9 12 48 16 185 21 138 4 186 10 242 27 161 51 257 153 299
316 44 175 65 814 31 976 -27 134 -92 279 -189 428 -30 47 -52 88 -48 91 4 4
33 14 65 23 89 26 282 128 380 202 108 81 174 159 231 273 l44 87 -26 32 -27
32 -25 -20 c-35 -27 -40 -25 -40 16 0 28 -3 35 -17 32 -10 -2 -22 -18 -28 -36
-11 -37 -21 -41 -30 -12 -7 21 -29 27 -39 11 -3 -5 1 -28 9 -51 26 -75 22 -86
-63 -169 -118 -115 -303 -214 -481 -257 l-73 -17 -72 75 c-39 42 -98 98 -131
126 -96 79 -498 379 -635 472 -214 146 -382 324 -455 484 -73 157 -139 480
-155 761 -5 100 -16 193 -26 225 -41 138 -143 267 -251 318 -74 34 -211 42
-283 14z m239 -156 c121 -62 171 -178 171 -399 0 -166 13 -284 55 -492 68
-335 117 -430 339 -650 114 -113 159 -149 345 -275 525 -354 671 -491 904
-845 139 -212 175 -328 184 -600 5 -148 2 -217 -16 -385 -30 -280 -52 -358
-117 -424 -72 -73 -134 -81 -689 -93 -490 -10 -645 -8 -780 12 -60 9 -155 21
-210 26 -218 19 -347 68 -450 173 -104 106 -166 251 -211 496 -22 115 -25 452
-5 599 6 51 18 240 26 420 8 179 22 439 31 576 11 172 17 435 19 840 2 557 3
596 24 702 26 137 51 206 92 256 70 85 191 111 288 63z"/>
<path d="M2565 2930 c-23 -26 -12 -64 26 -93 34 -24 64 -16 84 24 16 30 8 63
-19 81 -22 15 -73 8 -91 -12z"/>
<path d="M3206 2934 c-36 -36 -1 -114 52 -114 43 0 67 98 29 122 -20 13 -65 9
-81 -8z"/>
<path d="M3015 1995 c-124 -17 -193 -18 -251 -4 -39 10 -47 9 -64 -6 -45 -41
-12 -80 81 -97 52 -9 101 -8 256 7 122 11 217 15 260 11 111 -12 115 -12 126
5 15 25 1 64 -30 79 -39 19 -254 22 -378 5z"/>
</g>
</svg>
