<?xml version="1.0" standalone="no"?>
<!DOCTYPE svg PUBLIC "-//W3C//DTD SVG 20010904//EN"
 "http://www.w3.org/TR/2001/REC-SVG-20010904/DTD/svg10.dtd">
<svg version="1.0" xmlns="http://www.w3.org/2000/svg"
 width="600.000000pt" height="600.000000pt" viewBox="0 0 600.000000 600.000000"
 preserveAspectRatio="xMidYMid meet">
<metadata>
Created by potrace 1.15, written by Peter Selinger 2001-2017
</metadata>
<g transform="translate(0.000000,600.000000) scale(0.100000,-0.100000)"
fill="#16364b" stroke="none">
<path d="M3133 5640 c-42 -25 -58 -58 -79 -160 -20 -103 -15 -222 14 -298 44
-114 127 -177 297 -227 49 -14 90 -27 92 -29 2 -2 -117 -85 -266 -185 -268
-181 -325 -227 -338 -279 -3 -15 -19 -44 -35 -66 -46 -64 -37 -159 20 -219 57
-61 86 -68 336 -84 308 -19 308 -19 347 3 96 56 96 202 0 258 -24 14 -66 21
-162 29 -71 6 -129 13 -129 16 0 9 195 146 365 256 168 108 197 132 230 190
32 55 39 99 25 151 -28 99 -128 167 -339 229 -157 46 -181 62 -181 118 1 23 7
68 14 100 16 65 8 112 -27 161 -39 55 -126 72 -184 36z"/>
<path d="M1290 5368 c-83 -53 -245 -216 -288 -290 -48 -82 -97 -200 -124 -298
-18 -67 -23 -112 -23 -210 0 -141 12 -175 76 -218 29 -20 44 -23 96 -20 103 6
147 65 136 181 -3 36 -3 77 1 93 l7 27 26 -27 c30 -32 80 -56 119 -56 14 0 73
12 129 27 57 15 107 25 110 21 4 -3 -8 -48 -25 -100 -38 -112 -56 -226 -46
-291 4 -27 22 -77 41 -112 l33 -64 -67 -40 c-94 -56 -123 -89 -128 -148 -10
-96 52 -172 147 -181 46 -4 56 0 183 72 74 42 174 94 223 116 164 75 172 80
194 124 11 23 20 56 20 72 -1 47 -34 109 -71 131 -54 32 -82 35 -151 13 -35
-11 -64 -20 -64 -20 -1 0 -14 19 -29 41 -34 52 -31 71 30 261 52 159 59 250
26 325 -21 45 -81 95 -138 114 -54 17 -239 5 -363 -24 -58 -14 -107 -23 -108
-22 -6 5 61 104 103 152 20 23 64 61 98 83 76 49 101 87 100 152 -1 91 -71
158 -165 158 -34 0 -57 -9 -108 -42z"/>
<path d="M4492 4499 c-99 -11 -133 -26 -162 -74 -18 -30 -22 -47 -18 -98 4
-72 25 -108 77 -133 31 -15 41 -15 135 1 56 10 110 16 120 14 15 -3 -9 -36
-115 -162 -74 -87 -145 -172 -158 -188 -35 -43 -40 -117 -12 -163 24 -38 91
-76 135 -76 58 0 94 31 238 202 271 321 310 385 312 498 1 75 -25 117 -94 155
-54 29 -58 30 -215 32 -88 1 -197 -3 -243 -8z"/>
<path d="M3890 3683 c-38 -15 -74 -50 -92 -91 -43 -96 12 -192 182 -322 101
-77 153 -102 210 -102 95 0 154 59 147 145 -5 61 -31 96 -94 127 -50 24 -50
25 -45 66 5 44 -12 86 -46 118 -49 44 -207 80 -262 59z"/>
<path d="M2534 3670 c-64 -12 -198 -60 -283 -103 -53 -26 -69 -40 -89 -77 -39
-75 -19 -145 58 -197 42 -29 100 -29 160 -2 69 32 175 67 226 75 l47 7 -6 -59
c-3 -33 -18 -91 -32 -129 -36 -93 -154 -328 -222 -439 -96 -155 -105 -176
-100 -225 3 -23 14 -56 26 -72 12 -15 21 -38 21 -49 0 -32 28 -92 58 -123 72
-76 138 -77 345 -3 84 30 170 57 191 61 l39 8 -7 -29 c-11 -42 -56 -141 -130
-288 -70 -137 -77 -171 -54 -248 14 -49 74 -103 127 -118 66 -17 143 12 190
71 38 48 219 415 247 500 23 69 28 102 28 189 1 93 -2 111 -24 154 -32 62 -93
116 -161 141 -80 30 -242 26 -366 -7 -51 -14 -93 -24 -93 -23 0 2 31 67 69
145 113 232 172 447 157 573 -9 70 -45 145 -91 190 -69 67 -208 99 -331 77z"/>
<path d="M1165 3483 c-42 -7 -170 -61 -235 -99 -147 -87 -210 -162 -210 -249
0 -143 166 -249 278 -178 13 8 26 12 29 9 7 -7 -10 -76 -69 -286 -65 -230 -74
-274 -98 -475 -24 -208 -24 -229 -1 -281 25 -54 71 -81 164 -96 110 -17 144
-1 259 117 115 120 209 238 310 389 112 168 211 306 219 306 41 0 -4 -325 -78
-580 -78 -267 -85 -298 -86 -410 -1 -88 2 -113 21 -153 45 -100 104 -146 186
-147 63 0 112 30 137 84 24 53 24 83 -2 131 -19 35 -21 50 -15 120 3 45 26
164 51 266 102 408 110 462 109 679 -2 302 -29 404 -123 467 -46 31 -116 31
-179 -1 -75 -38 -295 -274 -450 -484 -34 -46 -62 -77 -62 -70 0 14 25 105 111
408 37 130 42 157 43 260 1 125 -6 149 -60 204 -57 57 -156 84 -249 69z"/>
<path d="M4543 3336 c-66 -30 -91 -112 -54 -184 26 -51 39 -61 176 -131 66
-33 132 -71 148 -83 l27 -23 -20 -40 c-11 -22 -49 -78 -86 -124 -79 -100 -97
-139 -88 -187 9 -47 63 -101 109 -110 70 -13 114 15 219 140 110 131 146 195
153 275 16 174 -101 312 -359 428 -113 51 -175 61 -225 39z"/>
<path d="M3691 3218 c-111 -17 -217 -102 -276 -220 -40 -81 -52 -145 -36 -198
22 -76 105 -129 177 -115 42 7 101 57 118 98 l12 30 100 2 c92 1 104 3 154 31
44 25 61 42 83 85 33 61 33 108 2 173 -41 87 -189 137 -334 114z"/>
<path d="M4598 2257 c-105 -34 -178 -131 -178 -234 0 -52 0 -52 -27 -48 -313
54 -423 55 -556 5 -72 -27 -153 -91 -189 -151 -47 -75 -56 -145 -52 -427 l3
-252 -28 -15 c-27 -14 -30 -13 -92 38 -101 83 -248 190 -317 230 -209 122
-394 99 -497 -63 -12 -19 -32 -64 -45 -100 -13 -36 -26 -69 -30 -73 -8 -9 -23
85 -40 253 -13 123 -43 267 -63 307 -37 70 -106 107 -193 101 -52 -3 -70 -9
-101 -34 -71 -57 -89 -129 -58 -230 8 -27 29 -158 45 -291 48 -380 80 -475
196 -582 101 -92 269 -171 366 -171 44 0 102 27 135 62 40 43 55 95 49 167 -5
50 -1 95 18 184 13 66 27 121 30 124 6 7 137 -92 250 -189 112 -97 186 -131
295 -136 106 -5 177 14 252 66 57 40 97 90 106 134 3 16 14 30 27 34 43 14 93
56 117 97 26 46 29 102 19 352 l-5 120 60 -3 c33 -2 102 -13 154 -24 75 -16
122 -19 225 -16 122 3 135 5 183 32 101 56 174 145 215 265 32 92 33 273 2
341 -23 50 -64 94 -107 117 -40 20 -124 25 -169 10z"/>
</g>
</svg>
