<?xml version="1.0" standalone="no"?>
<!DOCTYPE svg PUBLIC "-//W3C//DTD SVG 20010904//EN"
 "http://www.w3.org/TR/2001/REC-SVG-20010904/DTD/svg10.dtd">
<svg version="1.0" xmlns="http://www.w3.org/2000/svg"
 width="600.000000pt" height="600.000000pt" viewBox="0 0 600.000000 600.000000"
 preserveAspectRatio="xMidYMid meet">
<metadata>
Created by potrace 1.15, written by Peter Selinger 2001-2017
</metadata>
<g transform="translate(0.000000,600.000000) scale(0.100000,-0.100000)"
fill="#16364b" stroke="none">
<path d="M2117 5230 c-127 -32 -245 -166 -263 -302 -4 -27 1 -98 12 -169 13
-93 18 -177 17 -339 -1 -118 -2 -545 -2 -947 l-1 -733 -80 -40 c-104 -52 -188
-85 -394 -155 l-170 -57 -19 26 c-33 45 -63 25 -37 -25 13 -24 12 -24 -45 1
-67 29 -89 6 -40 -40 32 -30 32 -40 -2 -40 -16 0 -34 -4 -42 -9 -22 -14 -5
-41 26 -41 45 0 58 -14 28 -30 -27 -15 -34 -50 -10 -50 22 0 178 41 190 50 6
4 59 22 118 40 144 43 234 78 355 139 56 28 103 51 104 51 2 0 3 -129 3 -288
l0 -287 33 -128 c70 -279 148 -408 302 -502 73 -44 185 -88 283 -111 l78 -18
-8 -70 c-22 -198 1 -407 67 -606 16 -51 30 -95 30 -98 0 -3 -35 -2 -77 1 -86
6 -130 -6 -157 -44 -21 -30 -20 -63 1 -99 41 -69 186 -86 290 -34 113 56 127
118 64 285 -22 57 -47 140 -56 184 -29 138 -20 424 15 459 5 5 30 5 66 -3 38
-7 199 -11 470 -11 l412 0 -5 -92 c-6 -113 14 -222 88 -465 27 -92 46 -170 42
-174 -4 -4 -42 -9 -83 -11 -41 -2 -88 -10 -104 -18 -63 -32 -88 -109 -50 -151
42 -47 165 -46 274 2 124 55 157 145 104 285 -83 220 -124 377 -124 470 0 57
17 141 32 160 5 7 39 15 76 19 200 20 396 47 434 61 105 37 187 112 241 221
68 135 99 265 117 493 17 197 -4 316 -82 478 -47 97 -157 217 -292 318 l-39
29 48 7 c77 11 523 31 541 24 9 -3 49 6 90 20 69 25 89 44 64 59 -6 4 -8 15
-5 25 4 13 -1 23 -13 31 -13 8 -17 19 -14 37 5 27 10 26 -72 6 -20 -5 -25 -2
-28 17 -4 33 -32 31 -36 -3 -3 -25 -7 -27 -65 -32 -131 -12 -448 -27 -579 -28
l-138 0 -93 71 c-251 194 -453 345 -557 416 -276 190 -409 310 -532 481 -140
197 -261 490 -337 819 -51 219 -81 287 -160 365 -86 84 -207 124 -304 100z
m106 -161 c50 -13 107 -65 136 -123 12 -25 31 -85 41 -134 42 -198 91 -350
203 -627 70 -174 142 -290 272 -439 151 -172 253 -259 525 -444 285 -194 473
-335 720 -541 135 -112 267 -225 293 -250 52 -49 114 -159 141 -250 41 -138
-1 -524 -73 -675 -44 -95 -122 -162 -206 -180 -49 -10 -530 -55 -655 -61 -133
-6 -743 10 -905 24 -243 22 -411 85 -506 189 -169 185 -233 567 -184 1112 12
132 13 269 8 685 -4 357 -2 583 6 720 13 216 7 384 -26 676 -20 182 -15 214
44 272 51 52 99 65 166 46z"/>
<path d="M2635 2798 c-26 -15 -35 -28 -35 -56 0 -27 45 -72 71 -72 44 0 80 90
46 118 -21 17 -61 23 -82 10z"/>
<path d="M3102 2695 c-24 -30 -19 -58 16 -85 34 -27 57 -25 81 6 26 33 27 58
1 84 -28 28 -74 26 -98 -5z"/>
<path d="M2929 1812 c-23 -16 -24 -45 -3 -66 11 -12 36 -16 90 -16 61 0 78 4
94 20 24 24 25 43 3 61 -22 18 -159 19 -184 1z"/>
<path d="M5257 4000 c-88 -23 -158 -74 -193 -142 -86 -169 8 -451 172 -514
119 -45 319 39 401 169 33 53 57 151 50 209 -13 105 -66 181 -171 246 -54 32
-68 36 -140 38 -45 2 -98 -1 -119 -6z m133 -334 c0 -18 -21 -36 -42 -36 -25 0
-47 48 -28 60 16 10 70 -8 70 -24z"/>
</g>
</svg>
