<?xml version="1.0" standalone="no"?>
<!DOCTYPE svg PUBLIC "-//W3C//DTD SVG 20010904//EN"
 "http://www.w3.org/TR/2001/REC-SVG-20010904/DTD/svg10.dtd">
<svg version="1.0" xmlns="http://www.w3.org/2000/svg"
 width="600.000000pt" height="600.000000pt" viewBox="0 0 600.000000 600.000000"
 preserveAspectRatio="xMidYMid meet">
<metadata>
Created by potrace 1.15, written by Peter Selinger 2001-2017
</metadata>
<g transform="translate(0.000000,600.000000) scale(0.100000,-0.100000)"
fill="#16364b" stroke="none">
<path d="M2130 5459 c-127 -27 -178 -298 -77 -408 44 -48 181 -88 345 -101 7
0 -1 -45 -23 -115 -30 -95 -65 -271 -65 -323 0 -84 70 -162 145 -162 39 0 94
28 117 60 10 14 27 70 37 125 11 55 36 154 57 220 48 157 56 256 24 317 -53
104 -165 170 -312 183 l-78 7 0 41 c0 22 -9 60 -20 83 -32 64 -79 88 -150 73z"/>
<path d="M3364 5415 c-72 -37 -100 -96 -78 -161 23 -67 97 -114 181 -114 81 0
108 -41 101 -153 -4 -53 -15 -97 -43 -167 -42 -102 -46 -140 -21 -188 45 -86
193 -82 251 7 35 54 75 194 88 303 25 219 -43 373 -200 450 -57 28 -78 33
-157 35 -69 3 -99 0 -122 -12z"/>
<path d="M1620 4805 c-96 -13 -202 -31 -235 -40 -100 -27 -140 -80 -133 -177
4 -52 9 -63 41 -96 36 -35 40 -37 105 -37 37 1 126 14 197 30 113 25 151 29
292 29 l162 1 31 30 c80 77 56 211 -46 257 -72 31 -204 32 -414 3z"/>
<path d="M4305 4500 c-104 -23 -154 -147 -95 -234 28 -41 69 -60 160 -76 75
-14 138 -39 162 -66 37 -43 48 -157 27 -298 -11 -70 -10 -77 12 -115 42 -76
143 -102 208 -53 47 35 61 65 76 167 37 248 0 410 -118 522 -65 61 -128 95
-239 127 -98 28 -152 35 -193 26z"/>
<path d="M1525 4431 c-45 -27 -62 -51 -76 -102 -11 -43 -10 -50 12 -95 37 -74
57 -84 215 -105 77 -11 218 -30 315 -44 213 -30 244 -31 287 -5 36 22 71 88
72 133 0 64 -46 126 -110 145 -40 13 -254 47 -350 57 -36 4 -105 13 -155 21
-121 19 -174 18 -210 -5z"/>
<path d="M3124 4402 c-43 -27 -117 -75 -164 -108 -111 -78 -212 -139 -330
-198 -52 -26 -103 -55 -114 -64 -65 -59 -62 -166 9 -232 23 -22 36 -25 93 -25
65 1 72 4 212 81 297 165 532 320 556 367 39 75 8 169 -70 206 -67 33 -102 28
-192 -27z"/>
<path d="M2172 3830 c-119 -26 -263 -40 -408 -40 -140 0 -175 -10 -216 -59
-61 -72 -38 -191 47 -235 37 -20 56 -21 290 -21 229 0 259 2 352 24 135 32
172 53 197 114 18 42 18 53 8 93 -16 60 -47 100 -97 124 -49 24 -64 24 -173 0z"/>
<path d="M3687 3810 c-76 -27 -624 -306 -656 -334 -30 -26 -51 -76 -51 -119 0
-43 45 -113 84 -129 65 -27 90 -18 326 109 285 154 277 151 293 131 25 -33 82
-58 130 -58 40 0 53 5 82 33 29 27 38 45 52 108 10 49 13 92 9 122 -19 126
-135 184 -269 137z"/>
<path d="M5010 3469 c-66 -13 -120 -55 -153 -119 -27 -53 -28 -59 -21 -140 18
-204 6 -237 -147 -415 -177 -205 -259 -354 -293 -534 -20 -103 -20 -157 -1
-210 48 -137 187 -191 316 -123 70 36 105 87 129 187 30 123 105 262 213 396
194 241 252 359 264 539 7 109 -11 231 -42 297 -48 96 -152 145 -265 122z"/>
<path d="M1985 3162 c-43 -28 -62 -52 -74 -98 -18 -66 7 -129 65 -164 31 -20
55 -23 215 -30 99 -5 183 -10 185 -13 3 -2 15 -24 27 -48 28 -54 63 -80 118
-86 52 -5 121 26 152 69 51 69 22 203 -59 278 -83 76 -154 93 -449 105 -136 5
-153 4 -180 -13z"/>
<path d="M4357 3140 c-15 -5 -60 -37 -100 -72 -39 -36 -94 -79 -120 -97 -62
-42 -233 -123 -317 -151 -77 -24 -246 -60 -287 -60 -61 0 -130 -29 -166 -69
-72 -80 -54 -182 40 -226 30 -15 52 -17 125 -11 323 22 707 183 936 391 74 67
92 98 92 158 0 102 -98 169 -203 137z"/>
<path d="M1340 2974 c-45 -20 -68 -41 -91 -86 -21 -41 -26 -127 -9 -159 6 -10
20 -93 30 -184 21 -171 94 -555 130 -675 26 -87 72 -185 102 -217 91 -100 252
-73 309 52 30 64 24 108 -25 210 -24 49 -54 128 -65 174 -22 90 -59 336 -85
562 -23 201 -59 277 -151 320 -48 22 -98 23 -145 3z"/>
<path d="M2151 2405 c-82 -18 -173 -62 -237 -112 -39 -32 -54 -51 -63 -85 -24
-87 20 -164 108 -188 47 -12 83 -2 159 45 32 19 75 38 95 42 33 5 40 2 81 -40
148 -153 345 -10 250 181 -65 130 -227 195 -393 157z"/>
<path d="M3860 2109 c-36 -5 -159 -27 -275 -49 -115 -21 -244 -44 -285 -50
-130 -21 -471 -90 -488 -99 -9 -5 -29 -22 -44 -38 -129 -136 -24 -351 161
-328 146 18 641 114 861 167 92 22 147 30 207 29 99 -1 151 16 206 68 52 49
69 83 69 146 1 66 -21 105 -76 136 -36 21 -56 24 -156 26 -63 1 -144 -3 -180
-8z"/>
<path d="M2230 1847 c-63 -42 -75 -77 -75 -212 0 -132 12 -182 68 -289 61
-115 203 -236 277 -236 37 0 106 35 125 63 49 76 39 143 -34 223 -84 92 -104
140 -110 269 -7 123 -18 151 -74 185 -46 29 -133 27 -177 -3z"/>
<path d="M4652 1640 c-19 -12 -59 -48 -89 -80 -81 -88 -131 -108 -498 -201
-364 -91 -474 -126 -562 -175 -121 -67 -162 -123 -163 -218 0 -154 156 -246
290 -171 211 118 332 160 640 220 256 50 365 95 497 205 165 137 211 256 140
362 -51 74 -180 104 -255 58z"/>
<path d="M2092 1050 c-43 -10 -100 -56 -123 -100 -23 -42 -25 -129 -5 -168 40
-78 188 -184 403 -291 221 -110 274 -125 423 -126 104 0 138 4 199 23 89 28
275 120 320 158 88 74 95 201 15 276 -68 63 -141 65 -273 4 -212 -97 -343 -82
-591 66 -47 28 -112 71 -144 96 -87 67 -141 82 -224 62z"/>
</g>
</svg>
