<?xml version="1.0" standalone="no"?>
<!DOCTYPE svg PUBLIC "-//W3C//DTD SVG 20010904//EN"
 "http://www.w3.org/TR/2001/REC-SVG-20010904/DTD/svg10.dtd">
<svg version="1.0" xmlns="http://www.w3.org/2000/svg"
 width="600.000000pt" height="600.000000pt" viewBox="0 0 600.000000 600.000000"
 preserveAspectRatio="xMidYMid meet">
<metadata>
Created by potrace 1.15, written by Peter Selinger 2001-2017
</metadata>
<g transform="translate(0.000000,600.000000) scale(0.100000,-0.100000)"
fill="#16364b" stroke="none">
<path d="M1594 5770 c-47 -19 -69 -64 -99 -196 -26 -112 -30 -149 -29 -279 0
-128 3 -161 23 -224 44 -144 119 -210 223 -198 72 9 128 46 198 132 112 136
310 483 310 541 0 71 -57 124 -132 124 -67 0 -98 -26 -164 -137 -83 -139 -183
-293 -190 -293 -14 0 8 164 36 277 35 140 36 156 10 198 -34 55 -122 81 -186
55z"/>
<path d="M3245 5559 c-61 -19 -95 -65 -95 -127 0 -24 7 -56 16 -70 8 -15 77
-70 152 -122 131 -92 252 -193 252 -211 0 -5 -10 -9 -22 -9 -59 0 -128 -76
-128 -140 0 -56 31 -94 107 -132 60 -29 77 -33 149 -33 72 0 85 3 120 27 100
69 117 209 42 349 -64 121 -231 284 -423 414 -85 57 -122 69 -170 54z"/>
<path d="M930 5469 c-142 -24 -292 -137 -353 -266 -28 -60 -32 -78 -32 -153 0
-73 4 -93 27 -141 32 -65 83 -121 152 -169 88 -60 194 -51 231 20 31 59 14
132 -39 169 -59 42 -86 79 -86 119 0 44 28 93 73 126 23 17 43 21 110 21 89 1
112 9 150 54 54 64 36 170 -34 203 -45 21 -131 29 -199 17z"/>
<path d="M2974 5170 c-119 -28 -218 -167 -218 -305 -1 -87 15 -132 60 -178 63
-63 150 -71 274 -24 125 46 152 82 158 208 6 118 -15 190 -72 244 -59 57 -123
74 -202 55z"/>
<path d="M2275 4959 c-29 -14 -65 -71 -65 -102 0 -33 -21 -47 -120 -83 -170
-61 -210 -97 -210 -190 0 -64 30 -113 83 -133 36 -13 43 -12 190 37 195 65
219 75 262 114 55 48 78 101 77 179 0 118 -58 190 -152 188 -25 0 -54 -5 -65
-10z"/>
<path d="M4760 4841 c-77 -40 -102 -134 -80 -303 34 -273 165 -440 345 -440
151 0 259 116 258 277 -1 169 -129 336 -344 450 -77 40 -126 45 -179 16z"/>
<path d="M2812 4125 c-100 -28 -162 -70 -200 -135 -69 -116 1 -259 157 -322
47 -19 74 -23 171 -22 99 0 135 5 265 38 186 47 216 62 244 119 25 51 26 75 7
121 -18 43 -62 75 -165 120 -188 82 -367 113 -479 81z"/>
<path d="M1115 4083 c-77 -9 -98 -16 -131 -45 -48 -42 -67 -83 -67 -144 0 -63
33 -126 82 -156 31 -19 47 -21 153 -19 66 1 118 -2 118 -7 0 -5 -10 -22 -22
-38 -108 -141 -249 -267 -451 -400 -75 -50 -136 -98 -147 -116 -41 -68 -33
-151 22 -214 74 -84 171 -90 269 -18 l47 34 21 -35 c11 -19 36 -43 55 -52 31
-14 35 -20 29 -42 -20 -75 3 -115 99 -167 84 -46 122 -92 139 -169 29 -129
-50 -300 -178 -384 -57 -38 -97 -40 -143 -6 -66 48 -133 52 -197 10 -28 -18
-53 -71 -53 -110 0 -91 128 -192 257 -203 76 -6 137 9 228 55 181 92 282 201
348 377 28 73 31 92 31 201 l1 120 -43 87 c-51 105 -123 186 -221 248 -39 25
-70 47 -70 50 0 3 28 25 62 50 75 53 195 115 258 131 41 11 50 10 91 -9 77
-38 153 -26 206 30 34 37 41 77 33 173 -10 101 -25 129 -91 163 -54 27 -91 28
-144 4 -40 -18 -208 -63 -214 -57 -2 1 20 34 49 71 86 113 117 210 98 308 -25
134 -117 224 -267 260 -59 15 -205 25 -257 19z"/>
<path d="M4240 3781 c-201 -30 -330 -160 -330 -335 0 -114 52 -196 155 -247
62 -30 68 -31 162 -27 117 5 169 25 242 93 80 75 151 250 151 372 0 53 -32
101 -83 123 -49 22 -211 33 -297 21z m30 -291 c0 -13 -38 -32 -57 -28 -15 3
-15 5 1 21 19 18 56 23 56 7z"/>
<path d="M3425 3405 c-65 -17 -144 -100 -203 -212 -49 -95 -54 -142 -19 -194
33 -50 78 -69 167 -69 98 0 153 26 193 91 56 91 75 248 39 319 -30 61 -98 86
-177 65z"/>
<path d="M5043 3326 c-268 -125 -378 -437 -218 -623 104 -121 294 -106 436 36
30 31 68 83 85 116 26 53 29 70 29 150 -1 106 -23 165 -99 258 -74 89 -138
107 -233 63z"/>
<path d="M2174 2680 c-69 -27 -132 -84 -184 -167 -105 -165 -133 -203 -185
-262 -30 -34 -62 -76 -71 -94 -9 -17 -43 -64 -75 -103 -172 -208 -272 -466
-273 -704 -1 -134 12 -194 65 -305 47 -99 117 -192 208 -277 156 -148 367
-218 654 -218 132 0 199 15 312 69 185 88 427 310 498 454 114 235 207 560
207 723 0 85 -29 214 -65 289 -46 96 -102 157 -178 195 -83 41 -159 52 -295
44 l-112 -6 -12 33 c-28 80 -93 192 -137 238 -69 71 -138 103 -231 108 -58 2
-87 -1 -126 -17z m136 -482 c12 -35 34 -82 47 -106 34 -58 143 -149 190 -158
20 -4 110 -1 200 6 200 16 198 17 197 -93 -1 -90 -20 -157 -107 -377 -90 -227
-115 -273 -198 -364 -127 -137 -234 -182 -419 -174 -119 5 -176 25 -273 96
-148 110 -199 235 -163 403 31 146 129 344 219 445 24 27 52 65 62 84 10 19
39 60 65 90 26 30 71 90 99 133 29 42 53 77 55 77 2 0 13 -28 26 -62z"/>
<path d="M4054 2385 c-92 -46 -125 -120 -105 -236 7 -39 11 -72 8 -75 -2 -2
-16 0 -31 6 -15 5 -55 10 -89 10 -71 0 -128 -23 -169 -66 -51 -55 -59 -108
-33 -227 21 -98 125 -467 140 -497 63 -121 234 -135 322 -25 25 32 33 35 78
35 59 0 137 34 177 76 15 16 37 52 50 79 29 64 29 173 -1 435 -38 332 -56 397
-125 458 -64 56 -144 66 -222 27z"/>
</g>
</svg>
