<?xml version="1.0" standalone="no"?>
<!DOCTYPE svg PUBLIC "-//W3C//DTD SVG 20010904//EN"
 "http://www.w3.org/TR/2001/REC-SVG-20010904/DTD/svg10.dtd">
<svg version="1.0" xmlns="http://www.w3.org/2000/svg"
 width="600.000000pt" height="600.000000pt" viewBox="0 0 600.000000 600.000000"
 preserveAspectRatio="xMidYMid meet">
<metadata>
Created by potrace 1.15, written by Peter Selinger 2001-2017
</metadata>
<g transform="translate(0.000000,600.000000) scale(0.100000,-0.100000)"
fill="#16364b" stroke="none">
<path d="M3530 5245 c-15 -23 -19 -42 -14 -57 24 -80 109 -195 165 -224 46
-24 99 -21 121 5 43 54 10 148 -88 248 -60 61 -63 63 -112 63 -47 0 -52 -3
-72 -35z m181 -167 c7 -14 6 -16 -6 -12 -19 8 -85 92 -85 108 1 12 76 -67 91
-96z"/>
<path d="M3025 5091 c-137 -64 -214 -277 -128 -357 14 -13 37 -24 50 -24 88 0
230 158 249 278 7 44 -14 95 -45 112 -30 15 -81 12 -126 -9z m81 -103 c-9 -47
-62 -123 -109 -158 l-42 -31 -3 40 c-6 73 75 181 135 181 23 0 25 -3 19 -32z"/>
<path d="M4770 4712 c-22 -18 -23 -27 -27 -185 -5 -189 9 -373 31 -416 17 -32
34 -41 80 -41 83 0 120 126 98 326 -18 152 -50 274 -83 306 -32 32 -67 36 -99
10z"/>
<path d="M2663 4216 c-40 -18 -69 -72 -59 -111 4 -15 18 -37 33 -51 51 -47
295 -124 396 -124 40 0 54 5 78 29 56 57 30 134 -56 165 -290 104 -339 116
-392 92z"/>
<path d="M1496 4100 c-53 -16 -105 -61 -131 -113 -52 -106 -23 -236 72 -315
107 -89 122 -106 156 -170 76 -146 110 -297 176 -782 36 -267 51 -424 51 -540
0 -252 78 -543 189 -704 105 -152 273 -256 456 -281 90 -12 86 -5 52 -103 -27
-75 -31 -101 -32 -187 0 -94 2 -105 33 -167 18 -37 59 -96 92 -133 81 -88 80
-100 -11 -108 -82 -7 -115 -25 -135 -73 -29 -70 28 -134 120 -134 45 0 155 35
183 59 12 10 33 35 47 56 54 78 25 170 -94 303 -72 80 -84 105 -83 182 0 72
19 147 59 235 l27 57 51 -6 c28 -3 236 -6 463 -6 l411 0 -21 -42 c-30 -62 -30
-196 1 -254 22 -43 84 -94 162 -135 25 -12 38 -24 30 -25 -8 -2 -36 -6 -62 -9
-30 -4 -59 -16 -78 -31 -80 -68 2 -158 142 -157 188 1 295 166 181 279 -19 19
-64 50 -102 68 -37 19 -83 47 -101 62 -30 26 -32 30 -28 84 3 49 10 65 50 116
l46 60 98 13 c184 24 400 88 635 186 201 85 356 246 419 435 61 185 16 462
-103 642 -55 83 -154 171 -239 212 -155 76 -297 71 -483 -19 -150 -72 -354
-98 -593 -76 -264 24 -457 86 -642 206 -156 100 -260 222 -510 596 -163 243
-196 287 -294 384 -85 85 -145 134 -259 209 -81 53 -173 106 -204 117 -58 20
-146 24 -197 9z m217 -225 c40 -25 101 -65 137 -87 114 -73 245 -214 355 -383
154 -237 166 -254 249 -370 189 -263 304 -370 513 -474 175 -88 355 -140 611
-175 272 -38 474 -9 698 100 75 37 84 39 174 39 104 0 153 -17 216 -73 81 -72
166 -237 183 -354 8 -62 1 -155 -17 -213 -34 -110 -144 -242 -252 -302 -64
-36 -297 -124 -385 -147 -182 -46 -488 -76 -807 -79 -296 -3 -868 12 -932 24
-87 16 -189 72 -246 137 -127 142 -191 361 -210 717 -11 210 -21 309 -55 575
-56 436 -94 609 -166 759 -41 83 -77 125 -203 237 -36 32 -46 47 -46 72 0 68
76 67 183 -3z"/>
<path d="M2375 2510 c-24 -27 -13 -66 27 -89 46 -29 88 -5 88 49 0 55 -77 82
-115 40z"/>
<path d="M2875 2146 c-28 -28 -24 -57 13 -86 31 -25 47 -25 72 0 27 27 26 75
-2 94 -31 22 -55 20 -83 -8z"/>
<path d="M5184 3964 c-58 -21 -120 -77 -151 -138 -21 -40 -27 -69 -31 -138 -4
-80 -2 -92 25 -150 116 -247 458 -294 603 -83 67 97 88 228 51 311 -38 84
-152 177 -248 203 -54 15 -201 12 -249 -5z m204 -289 c11 -10 -10 -35 -34 -41
-20 -5 -31 -2 -41 11 -26 36 -17 48 29 41 23 -4 44 -9 46 -11z"/>
<path d="M4217 3750 c-101 -26 -189 -97 -230 -189 -31 -66 -30 -190 0 -247 33
-62 112 -128 178 -149 148 -46 322 42 371 188 34 100 16 269 -34 328 -14 17
-46 40 -71 51 -53 23 -159 31 -214 18z m63 -283 c0 -28 -17 -47 -42 -47 -23 0
-23 11 3 44 25 32 39 33 39 3z"/>
<path d="M485 1994 c-32 -33 -14 -55 95 -121 135 -81 182 -100 215 -85 19 9
25 19 25 42 0 35 -21 50 -178 129 -109 55 -132 60 -157 35z"/>
<path d="M5305 1098 c-28 -25 -65 -120 -65 -168 0 -73 47 -130 107 -130 82 0
125 63 131 192 4 72 2 79 -22 102 -34 35 -113 37 -151 4z"/>
</g>
</svg>
