<?xml version="1.0" standalone="no"?>
<!DOCTYPE svg PUBLIC "-//W3C//DTD SVG 20010904//EN"
 "http://www.w3.org/TR/2001/REC-SVG-20010904/DTD/svg10.dtd">
<svg version="1.0" xmlns="http://www.w3.org/2000/svg"
 width="600.000000pt" height="600.000000pt" viewBox="0 0 600.000000 600.000000"
 preserveAspectRatio="xMidYMid meet">
<metadata>
Created by potrace 1.15, written by Peter Selinger 2001-2017
</metadata>
<g transform="translate(0.000000,600.000000) scale(0.100000,-0.100000)"
fill="#16364b" stroke="none">
<path d="M3550 5260 c-33 -33 -34 -63 -5 -121 42 -84 95 -149 144 -180 49 -32
101 -38 121 -14 52 62 -131 335 -225 335 -8 0 -24 -9 -35 -20z m98 -112 c36
-42 82 -111 82 -122 0 -16 -59 46 -90 95 -44 67 -39 83 8 27z"/>
<path d="M3015 5064 c-80 -41 -135 -133 -135 -227 0 -51 4 -62 29 -88 51 -51
126 -32 208 53 52 53 82 119 83 176 0 35 -6 49 -29 73 -24 24 -38 29 -78 29
-26 0 -61 -7 -78 -16z m105 -89 c0 -59 -95 -175 -142 -175 -24 0 -25 58 -2
106 37 79 144 129 144 69z"/>
<path d="M4778 4739 c-30 -17 -38 -77 -44 -329 -7 -260 -2 -307 36 -348 26
-28 80 -29 104 -3 25 27 35 126 35 331 0 202 -11 315 -35 342 -19 20 -68 24
-96 7z"/>
<path d="M1574 4236 c-61 -28 -106 -80 -128 -148 -34 -105 -8 -195 85 -289
164 -167 249 -514 270 -1094 23 -688 34 -805 84 -960 43 -130 91 -211 180
-301 110 -112 238 -175 417 -205 l73 -12 1 -146 c0 -173 17 -272 76 -458 23
-73 39 -135 36 -138 -3 -3 -41 -10 -84 -15 -94 -10 -122 -20 -152 -53 -52 -56
-35 -134 35 -164 94 -39 299 51 347 151 25 53 19 108 -28 255 -62 194 -80 285
-80 424 0 133 5 145 56 129 58 -19 470 -35 711 -29 l228 6 -8 -37 c-4 -20 -8
-84 -7 -142 1 -124 24 -226 84 -367 23 -53 40 -103 38 -112 -3 -12 -19 -17
-79 -21 -91 -7 -133 -32 -150 -89 -23 -77 39 -130 140 -118 106 13 217 78 242
144 22 58 11 118 -46 246 -57 127 -85 241 -85 339 0 49 15 135 28 155 4 6 48
17 97 23 207 27 532 113 649 172 167 84 300 240 366 428 17 48 24 95 28 180 5
140 -9 203 -75 340 -83 171 -224 285 -384 311 -66 11 -164 2 -289 -26 -36 -8
-125 -20 -198 -27 -159 -14 -241 -5 -453 48 -324 81 -469 151 -706 342 -171
138 -217 195 -460 578 -173 273 -267 376 -568 626 -54 44 -140 78 -198 78 -23
0 -65 -11 -93 -24z m172 -172 c21 -14 57 -43 79 -65 22 -21 68 -59 102 -84
132 -97 257 -253 428 -530 134 -218 266 -373 440 -517 262 -218 430 -304 750
-385 77 -19 158 -40 180 -46 22 -6 119 -11 215 -11 173 0 220 6 415 48 94 21
154 20 220 -3 72 -25 116 -61 162 -129 159 -241 138 -514 -56 -711 -93 -94
-192 -139 -446 -202 -187 -46 -374 -68 -707 -84 -309 -14 -579 -9 -703 15 -27
5 -102 15 -165 21 -63 6 -145 17 -181 24 -297 62 -434 233 -489 609 -7 47 -13
237 -14 465 -2 295 -7 413 -19 501 -81 560 -138 743 -284 902 -88 95 -101 133
-62 182 28 35 82 35 135 0z"/>
<path d="M2490 2583 c-52 -19 -64 -66 -27 -101 46 -43 107 -15 107 49 0 38
-43 65 -80 52z"/>
<path d="M2890 2240 c-25 -25 -25 -50 0 -82 27 -35 55 -40 85 -16 29 23 34 77
9 102 -22 22 -70 20 -94 -4z"/>
<path d="M2675 4231 c-59 -24 -78 -105 -38 -159 42 -56 214 -119 354 -129 128
-9 169 13 169 89 0 44 -28 74 -83 88 -23 7 -114 36 -203 66 -172 58 -169 57
-199 45z"/>
<path d="M5290 3971 c-84 -27 -132 -55 -177 -104 -52 -56 -68 -87 -82 -159
-28 -135 46 -298 163 -361 62 -33 181 -30 259 6 147 67 227 195 227 359 0 119
-45 193 -152 252 -57 32 -153 35 -238 7z m94 -297 c25 -10 19 -32 -14 -49 -30
-15 -30 -15 -40 11 -6 14 -8 30 -4 35 6 10 35 12 58 3z"/>
<path d="M4192 3742 c-119 -43 -213 -172 -220 -303 -5 -77 15 -132 67 -192
125 -142 393 -104 481 69 21 42 25 63 25 139 0 50 -6 109 -13 133 -38 125
-207 201 -340 154z m76 -289 c-2 -20 -9 -29 -25 -31 -25 -4 -29 9 -13 39 17
30 42 24 38 -8z"/>
<path d="M497 2013 c-4 -3 -7 -19 -7 -34 0 -24 11 -36 73 -77 85 -58 189 -112
215 -112 25 0 42 19 42 47 0 17 -12 30 -51 51 -27 15 -90 51 -139 80 -85 49
-118 61 -133 45z"/>
<path d="M5351 1096 c-24 -26 -61 -131 -61 -175 0 -67 43 -121 95 -121 66 0
125 94 128 203 2 57 -1 69 -22 91 -34 36 -107 37 -140 2z"/>
</g>
</svg>
