<?xml version="1.0" standalone="no"?>
<!DOCTYPE svg PUBLIC "-//W3C//DTD SVG 20010904//EN"
 "http://www.w3.org/TR/2001/REC-SVG-20010904/DTD/svg10.dtd">
<svg version="1.0" xmlns="http://www.w3.org/2000/svg"
 width="600.000000pt" height="600.000000pt" viewBox="0 0 600.000000 600.000000"
 preserveAspectRatio="xMidYMid meet">
<metadata>
Created by potrace 1.15, written by Peter Selinger 2001-2017
</metadata>
<g transform="translate(0.000000,600.000000) scale(0.100000,-0.100000)"
fill="#16364b" stroke="none">
<path d="M2120 5438 c-60 -31 -101 -108 -108 -207 -7 -110 27 -180 111 -223
62 -31 92 -38 216 -48 63 -6 116 -12 118 -13 1 -2 -9 -37 -23 -78 -43 -127
-114 -429 -107 -458 19 -79 68 -121 145 -121 36 0 54 6 78 26 43 37 53 59 94
225 20 80 52 193 72 250 23 67 38 130 42 176 4 64 2 79 -22 127 -15 31 -45 71
-68 90 -58 50 -114 66 -230 66 l-98 0 0 49 c0 118 -117 192 -220 139z"/>
<path d="M3482 5403 c-34 -7 -89 -64 -100 -106 -13 -46 -1 -95 34 -136 31 -37
80 -52 144 -44 43 5 51 3 75 -22 26 -25 27 -31 23 -98 -3 -46 -17 -104 -38
-162 -42 -116 -47 -170 -21 -212 43 -69 120 -90 195 -54 37 19 50 32 72 79 40
84 63 158 80 252 42 236 -60 439 -249 495 -47 14 -161 18 -215 8z"/>
<path d="M1696 4844 c-87 -19 -337 -108 -392 -140 -93 -53 -99 -171 -12 -238
44 -33 92 -40 152 -22 l48 15 -20 -22 c-65 -72 -54 -183 24 -233 16 -11 111
-33 238 -56 116 -21 260 -50 320 -64 145 -35 197 -31 244 21 32 35 34 41 30
92 -8 94 -53 133 -205 181 -170 54 -276 74 -498 98 l-70 7 71 23 c105 33 202
45 280 32 121 -20 193 26 202 127 4 47 1 61 -22 95 -58 87 -215 121 -390 84z"/>
<path d="M4275 4435 c-124 -44 -133 -210 -15 -270 14 -7 61 -15 105 -19 200
-16 219 -46 196 -316 -14 -157 -8 -186 48 -233 65 -54 177 -29 223 49 27 47
45 274 31 390 -34 268 -169 388 -463 408 -61 4 -96 1 -125 -9z"/>
<path d="M3236 4413 c-10 -3 -66 -31 -125 -62 -58 -32 -164 -87 -236 -123
-336 -171 -385 -208 -385 -290 0 -111 101 -190 187 -146 15 8 105 55 198 105
94 49 233 123 310 163 77 40 152 81 168 92 78 55 79 183 2 240 -25 19 -88 30
-119 21z"/>
<path d="M2210 3844 c-153 -31 -286 -47 -447 -53 -165 -6 -172 -7 -198 -31
-43 -40 -58 -77 -53 -131 6 -59 41 -113 87 -135 87 -42 445 -25 700 34 55 12
83 25 107 47 38 36 59 99 50 150 -9 48 -68 112 -114 125 -44 12 -48 12 -132
-6z"/>
<path d="M3692 3795 c-23 -7 -184 -84 -357 -170 -224 -112 -319 -165 -331
-183 -25 -38 -30 -112 -10 -151 22 -41 71 -71 119 -71 46 0 213 67 387 156 70
35 129 64 132 64 3 0 11 -14 18 -30 41 -99 169 -109 244 -20 32 39 61 103 75
169 16 75 -1 134 -53 186 -62 61 -135 78 -224 50z"/>
<path d="M4971 3423 c-59 -21 -133 -96 -149 -150 -9 -30 -11 -74 -6 -147 7
-100 6 -107 -20 -159 -14 -30 -64 -99 -111 -153 -104 -120 -143 -177 -199
-291 -86 -172 -133 -394 -108 -504 32 -136 156 -213 284 -175 110 32 176 110
189 221 15 138 73 258 194 404 92 111 150 192 182 256 100 197 94 528 -11 643
-54 60 -164 85 -245 55z"/>
<path d="M2005 3188 c-51 -29 -90 -102 -81 -151 9 -48 41 -94 78 -113 29 -15
162 -27 369 -33 11 -1 19 -14 24 -38 23 -124 156 -181 245 -107 68 58 79 193
24 294 -53 97 -128 135 -295 149 -275 23 -320 23 -364 -1z"/>
<path d="M4324 3167 c-17 -6 -67 -45 -111 -85 -222 -202 -397 -283 -676 -311
-117 -12 -130 -16 -166 -55 -33 -35 -40 -125 -14 -176 44 -86 118 -98 332 -55
240 49 434 129 586 242 111 83 219 186 239 227 59 124 -65 263 -190 213z"/>
<path d="M1320 2983 c-101 -52 -144 -162 -101 -259 23 -51 33 -119 51 -346 20
-255 57 -414 132 -563 84 -166 139 -212 244 -203 153 13 228 176 146 319 -57
99 -91 230 -107 414 -27 306 -56 462 -102 548 -61 111 -158 144 -263 90z"/>
<path d="M2150 2464 c-51 -11 -187 -84 -238 -129 -64 -58 -82 -90 -82 -152 0
-85 58 -143 143 -143 55 0 72 8 139 61 58 46 120 69 127 48 10 -32 89 -99 117
-100 106 -4 169 42 181 131 11 81 -78 204 -184 257 -53 25 -147 38 -203 27z"/>
<path d="M3805 2159 c-33 -5 -134 -27 -225 -50 -253 -62 -384 -87 -580 -109
-192 -22 -222 -29 -259 -63 -28 -26 -60 -93 -61 -126 -1 -81 71 -179 150 -202
53 -16 169 -3 480 52 567 102 612 106 689 76 114 -46 241 54 241 188 0 17 -11
53 -24 82 -28 59 -93 113 -166 138 -59 19 -170 26 -245 14z"/>
<path d="M2264 1951 c-49 -30 -72 -67 -90 -148 -41 -186 13 -394 148 -564 62
-79 132 -98 213 -59 69 33 103 121 75 195 -5 14 -28 49 -49 78 -22 29 -52 79
-67 111 -25 54 -26 64 -19 145 10 133 9 161 -13 190 -50 68 -135 90 -198 52z"/>
<path d="M4686 1638 c-24 -7 -63 -33 -105 -72 -125 -117 -155 -130 -436 -182
-338 -62 -494 -111 -639 -199 -139 -85 -186 -142 -186 -224 0 -157 185 -268
306 -184 133 92 170 113 249 142 52 19 175 47 304 71 236 43 309 64 416 117
157 79 309 210 335 289 48 143 -94 284 -244 242z"/>
<path d="M2070 1082 c-83 -42 -125 -174 -82 -258 64 -124 377 -333 599 -401
78 -23 105 -26 238 -27 176 0 229 11 380 83 141 67 182 105 199 188 16 73 -40
168 -119 204 -69 32 -119 25 -230 -30 -184 -93 -305 -91 -500 6 -83 42 -148
88 -231 165 -34 31 -75 63 -92 72 -41 21 -118 20 -162 -2z"/>
</g>
</svg>
