<?xml version="1.0" standalone="no"?>
<!DOCTYPE svg PUBLIC "-//W3C//DTD SVG 20010904//EN"
 "http://www.w3.org/TR/2001/REC-SVG-20010904/DTD/svg10.dtd">
<svg version="1.0" xmlns="http://www.w3.org/2000/svg"
 width="600.000000pt" height="600.000000pt" viewBox="0 0 600.000000 600.000000"
 preserveAspectRatio="xMidYMid meet">
<metadata>
Created by potrace 1.15, written by Peter Selinger 2001-2017
</metadata>
<g transform="translate(0.000000,600.000000) scale(0.100000,-0.100000)"
fill="#16364b" stroke="none">
<path d="M3562 5263 c-8 -3 -22 -19 -32 -35 -16 -27 -17 -34 -5 -69 36 -102
129 -208 203 -230 35 -10 45 -10 67 5 47 31 24 108 -68 229 -61 80 -122 117
-165 100z m87 -126 c32 -38 81 -110 81 -120 0 -20 -54 32 -90 85 -55 83 -50
105 9 35z"/>
<path d="M3009 5080 c-150 -79 -198 -337 -65 -348 45 -4 86 20 149 87 97 103
122 219 59 267 -25 19 -102 16 -143 -6z m99 -77 c2 -12 -4 -37 -13 -55 -23
-45 -115 -138 -137 -138 -36 0 -16 97 32 158 48 60 112 79 118 35z"/>
<path d="M4765 4705 c-20 -19 -25 -34 -25 -72 0 -26 -5 -138 -11 -248 -14
-226 -9 -286 27 -322 33 -33 89 -29 116 8 30 39 44 268 29 455 -12 151 -19
175 -58 193 -36 16 -51 14 -78 -14z"/>
<path d="M1584 4276 c-120 -56 -171 -209 -112 -337 14 -30 46 -74 72 -99 99
-96 192 -366 230 -670 29 -235 39 -398 56 -880 11 -320 23 -428 60 -541 56
-168 189 -350 308 -423 66 -40 184 -82 257 -91 28 -3 64 -8 82 -11 l31 -5 -5
-119 c-8 -159 22 -365 83 -577 9 -29 13 -57 9 -63 -3 -5 -46 -10 -96 -10 -102
0 -140 -14 -164 -60 -33 -64 -7 -128 62 -151 44 -14 150 -7 212 16 96 34 150
104 151 196 0 25 -14 95 -31 155 -69 244 -92 430 -70 548 6 33 13 61 15 63 2
3 37 0 78 -6 187 -27 679 -48 798 -34 l75 9 0 -156 c0 -178 17 -263 86 -434
21 -54 37 -101 34 -104 -3 -3 -41 -5 -84 -4 -121 3 -181 -29 -181 -98 0 -100
128 -144 281 -98 62 18 136 92 151 149 13 51 16 38 -66 261 -41 111 -76 272
-76 347 0 56 17 148 30 156 4 2 83 16 176 29 410 60 571 116 712 250 223 212
280 454 177 761 -59 178 -137 280 -258 340 -115 57 -178 63 -328 34 -104 -20
-152 -24 -294 -23 -148 1 -190 5 -330 33 -180 36 -289 70 -419 130 -342 158
-551 347 -750 678 -108 179 -179 287 -243 369 -63 83 -381 396 -447 441 -86
58 -187 69 -272 29z m164 -155 c21 -10 63 -45 93 -78 31 -32 78 -74 103 -93
70 -51 203 -195 264 -283 29 -42 95 -149 147 -238 52 -88 120 -198 152 -242
84 -118 289 -321 398 -393 170 -113 420 -229 595 -276 340 -93 561 -108 840
-57 211 39 309 -10 404 -200 67 -133 90 -265 65 -383 -28 -135 -135 -285 -253
-353 -81 -47 -307 -102 -541 -130 -72 -9 -177 -23 -233 -31 -247 -34 -371 -38
-672 -20 -157 9 -355 21 -440 25 -246 13 -368 56 -467 165 -160 176 -205 363
-218 896 -7 313 -18 462 -51 695 -63 450 -135 672 -264 810 -26 28 -52 60 -59
72 -19 37 -13 82 14 108 29 30 72 32 123 6z"/>
<path d="M2457 2553 c-25 -29 -21 -58 14 -87 37 -31 53 -32 79 -6 40 40 19 97
-40 106 -27 5 -39 1 -53 -13z"/>
<path d="M2941 2247 c-39 -20 -44 -51 -15 -87 40 -47 89 -35 108 27 5 17 1 29
-18 48 -28 28 -40 30 -75 12z"/>
<path d="M2631 4204 c-28 -36 -28 -93 1 -123 38 -41 214 -106 356 -131 103
-18 162 15 162 90 0 35 -46 90 -75 90 -10 0 -87 23 -173 50 -184 59 -240 64
-271 24z"/>
<path d="M5285 3976 c-115 -28 -205 -98 -247 -192 -51 -116 -6 -285 101 -382
58 -52 101 -67 192 -67 78 0 91 3 161 38 133 65 208 176 210 311 2 117 -64
209 -195 272 -79 37 -131 42 -222 20z m84 -297 c36 -13 37 -16 14 -41 -24 -26
-52 -23 -64 9 -8 23 -2 40 17 43 1 0 15 -5 33 -11z"/>
<path d="M4183 3762 c-133 -48 -223 -167 -223 -296 0 -114 86 -230 195 -262
150 -43 313 18 378 141 45 88 13 268 -62 343 -75 75 -197 107 -288 74z m92
-262 c10 -16 -14 -50 -35 -50 -22 0 -25 12 -10 41 11 20 35 25 45 9z"/>
<path d="M494 2014 c-23 -34 -20 -36 151 -123 150 -77 175 -81 175 -30 0 23
-8 34 -40 54 -44 28 -247 125 -261 125 -5 0 -16 -12 -25 -26z"/>
<path d="M5334 1116 c-33 -14 -66 -77 -79 -149 -14 -75 40 -157 105 -157 75 0
130 87 130 207 0 65 -2 73 -26 92 -31 24 -84 27 -130 7z"/>
</g>
</svg>
