<?xml version="1.0" standalone="no"?>
<!DOCTYPE svg PUBLIC "-//W3C//DTD SVG 20010904//EN"
 "http://www.w3.org/TR/2001/REC-SVG-20010904/DTD/svg10.dtd">
<svg version="1.0" xmlns="http://www.w3.org/2000/svg"
 width="600.000000pt" height="600.000000pt" viewBox="0 0 600.000000 600.000000"
 preserveAspectRatio="xMidYMid meet">
<metadata>
Created by potrace 1.15, written by Peter Selinger 2001-2017
</metadata>
<g transform="translate(0.000000,600.000000) scale(0.100000,-0.100000)"
fill="#16364b" stroke="none">
<path d="M3013 5079 c-147 -72 -190 -307 -64 -343 95 -27 231 128 231 262 0
35 -6 49 -29 73 -36 35 -78 38 -138 8z m97 -64 c29 -35 -50 -166 -125 -208
-25 -14 -39 7 -38 54 4 97 119 207 163 154z"/>
<path d="M4740 4700 c-19 -19 -20 -33 -20 -305 0 -236 3 -291 15 -315 26 -50
100 -53 130 -6 26 39 37 193 26 367 -14 210 -18 236 -49 259 -32 26 -77 25
-102 0z"/>
<path d="M1661 4407 c-88 -33 -161 -137 -161 -229 0 -65 31 -143 81 -203 23
-27 52 -72 64 -100 31 -68 83 -233 101 -317 17 -85 40 -379 54 -703 22 -506
63 -890 115 -1071 52 -180 139 -318 255 -405 72 -55 195 -113 297 -141 l83
-23 0 -181 c0 -206 18 -330 69 -479 17 -49 31 -95 31 -101 0 -8 -31 -13 -91
-16 -88 -3 -92 -4 -120 -36 -53 -59 -30 -137 48 -163 21 -7 66 -10 108 -7 127
8 224 85 225 176 0 18 -16 74 -36 125 -20 50 -45 124 -55 162 -25 92 -41 308
-31 415 l7 85 30 -3 c86 -9 719 -21 835 -16 l135 6 0 -163 c1 -192 20 -315 71
-458 18 -52 31 -97 29 -102 -3 -4 -38 -10 -77 -14 -40 -3 -87 -11 -105 -16
-42 -13 -83 -62 -83 -99 0 -38 42 -86 87 -101 90 -29 243 24 301 105 50 69 52
113 8 244 -50 152 -69 278 -70 459 -1 83 1 153 4 156 3 3 50 10 105 16 150 17
238 38 365 88 210 83 311 142 411 242 77 78 130 163 161 264 33 104 33 273 -1
372 -69 206 -208 366 -356 411 -29 8 -127 19 -230 25 -379 20 -536 51 -819
161 -289 113 -522 253 -677 407 -107 108 -177 206 -302 428 -152 271 -306 477
-525 706 -66 69 -139 101 -232 104 -42 1 -90 -3 -109 -10z m154 -156 c23 -10
61 -42 85 -71 25 -29 63 -71 85 -94 76 -80 172 -191 232 -271 66 -87 94 -132
232 -365 151 -255 280 -411 430 -520 146 -106 419 -246 611 -312 310 -107 497
-142 891 -167 122 -7 142 -11 189 -37 123 -67 212 -246 212 -429 1 -221 -121
-385 -357 -480 -222 -88 -337 -116 -611 -147 -178 -20 -241 -22 -589 -21 -214
2 -410 7 -435 12 -25 5 -90 15 -145 21 -275 29 -440 128 -529 313 -59 124 -83
247 -116 607 -11 124 -24 257 -30 295 -16 122 -21 202 -30 530 -9 334 -21 438
-65 584 -42 140 -104 285 -155 360 -68 100 -69 164 -5 199 29 16 54 14 100 -7z"/>
<path d="M2510 2613 c-46 -16 -54 -81 -14 -112 15 -12 34 -21 44 -21 22 0 47
28 55 61 10 42 -42 87 -85 72z"/>
<path d="M2936 2319 c-35 -28 -33 -61 5 -93 38 -32 50 -32 85 -3 34 29 36 73
4 99 -29 24 -61 23 -94 -3z"/>
<path d="M5272 3975 c-111 -25 -193 -88 -234 -183 -30 -67 -22 -177 18 -262
81 -170 250 -242 419 -179 211 79 284 374 131 531 -19 19 -60 50 -92 68 -70
39 -146 47 -242 25z m115 -299 c3 -2 0 -14 -7 -25 -13 -25 -55 -28 -64 -5 -14
37 -7 47 30 41 20 -3 39 -8 41 -11z"/>
<path d="M4230 3751 c-146 -31 -271 -191 -258 -331 11 -110 81 -186 200 -216
145 -37 296 32 359 164 42 90 17 258 -48 318 -58 54 -170 83 -253 65z m80
-259 c0 -21 -18 -42 -37 -42 -18 0 -16 25 3 44 21 21 34 20 34 -2z"/>
<path d="M5360 1107 c-35 -18 -73 -116 -74 -190 -1 -54 1 -61 33 -89 29 -26
39 -30 74 -25 57 8 93 47 113 126 21 83 14 139 -21 168 -30 26 -85 30 -125 10z"/>
</g>
</svg>
