<?xml version="1.0" standalone="no"?>
<!DOCTYPE svg PUBLIC "-//W3C//DTD SVG 20010904//EN"
 "http://www.w3.org/TR/2001/REC-SVG-20010904/DTD/svg10.dtd">
<svg version="1.0" xmlns="http://www.w3.org/2000/svg"
 width="600.000000pt" height="600.000000pt" viewBox="0 0 600.000000 600.000000"
 preserveAspectRatio="xMidYMid meet">
<metadata>
Created by potrace 1.15, written by Peter Selinger 2001-2017
</metadata>
<g transform="translate(0.000000,600.000000) scale(0.100000,-0.100000)"
fill="#16364b" stroke="none">
<path d="M2499 5469 c-65 -38 -133 -176 -144 -291 -16 -157 85 -265 259 -276
61 -3 237 15 340 35 28 6 20 -5 -76 -108 -128 -136 -242 -281 -349 -443 -100
-151 -108 -179 -80 -268 25 -78 64 -123 120 -138 26 -7 95 -6 222 2 262 16
400 14 528 -7 104 -18 113 -18 146 -2 76 36 101 153 50 230 -31 45 -59 60
-152 81 -130 29 -262 38 -399 26 -70 -6 -128 -9 -131 -6 -18 17 137 214 282
356 69 69 146 150 170 180 97 125 98 253 2 337 -76 66 -168 73 -425 28 -89
-15 -166 -25 -170 -21 -4 4 8 34 26 66 39 71 42 123 10 170 -48 69 -155 92
-229 49z"/>
<path d="M1664 5125 c-187 -52 -438 -250 -579 -459 -49 -72 -55 -87 -55 -132
0 -56 24 -102 73 -138 27 -20 42 -21 215 -21 285 -1 305 -10 315 -154 4 -50
13 -104 21 -119 58 -111 209 -123 262 -20 14 28 16 52 10 169 -9 199 -41 286
-128 349 -43 32 -133 63 -211 75 -26 4 -47 10 -47 14 0 13 117 92 180 121 36
17 81 39 100 48 47 23 72 70 72 134 -1 113 -99 170 -228 133z"/>
<path d="M4201 4735 c-139 -31 -322 -110 -385 -166 -86 -75 -63 -188 46 -234
58 -24 97 -18 189 26 91 45 211 89 241 89 15 0 18 -8 18 -44 0 -74 -56 -221
-145 -382 -94 -170 -102 -190 -86 -235 19 -55 92 -141 138 -161 40 -18 45 -18
197 2 163 21 381 27 391 11 14 -24 -66 -317 -132 -480 -54 -134 -40 -211 49
-257 39 -20 107 -17 145 6 43 26 59 61 132 281 82 251 103 344 103 454 0 105
-19 159 -75 217 -90 93 -210 114 -462 83 -65 -8 -120 -13 -122 -12 -1 2 10 30
26 63 85 181 122 309 123 432 1 141 -45 233 -141 285 -63 35 -157 43 -250 22z"/>
<path d="M1995 3979 c-114 -43 -232 -73 -365 -93 -175 -27 -217 -51 -241 -139
-22 -84 34 -177 117 -193 76 -14 632 124 704 176 38 27 63 92 55 143 -13 71
-97 139 -171 136 -11 0 -55 -14 -99 -30z"/>
<path d="M3764 3690 c-116 -24 -313 -128 -416 -219 -92 -81 -68 -213 48 -257
59 -22 96 -11 189 57 79 58 191 117 202 106 15 -16 -37 -170 -124 -365 -44
-98 -48 -103 -97 -130 -38 -20 -57 -38 -74 -72 -53 -103 15 -220 127 -220 54
0 492 200 582 265 143 106 137 285 -11 325 -43 12 -82 6 -119 -17 -23 -15 -24
-15 -17 8 48 168 59 285 32 360 -42 119 -183 189 -322 159z"/>
<path d="M2435 3435 c-142 -27 -335 -87 -368 -114 -34 -29 -57 -77 -57 -121 0
-42 33 -104 70 -130 52 -37 87 -36 232 8 136 42 261 67 279 57 25 -16 0 -124
-60 -253 -44 -96 -49 -124 -27 -176 27 -64 90 -94 172 -81 63 9 107 52 154
149 79 165 106 368 65 486 -26 71 -93 140 -160 164 -68 24 -202 29 -300 11z"/>
<path d="M1140 3131 c-142 -45 -212 -133 -196 -243 14 -92 82 -159 172 -166
62 -5 60 -2 44 -112 -45 -296 -21 -736 44 -833 49 -73 143 -98 222 -61 39 19
92 76 105 113 5 15 25 35 44 45 25 14 52 49 106 140 40 66 95 155 122 196 50
74 162 200 179 200 13 0 9 -306 -6 -420 -8 -58 -26 -157 -41 -220 -15 -65 -24
-129 -21 -148 12 -76 100 -141 175 -127 48 9 92 37 113 72 34 58 82 301 99
503 13 141 7 399 -11 476 -17 78 -67 153 -124 189 -46 28 -57 30 -140 30 -84
0 -96 -3 -151 -33 -94 -51 -207 -167 -299 -307 -45 -69 -46 -69 -46 -36 0 18
7 106 16 195 22 220 16 346 -20 420 -31 63 -72 99 -146 127 -63 24 -165 24
-240 0z"/>
<path d="M4810 2769 c-93 -42 -151 -123 -153 -217 l-2 -56 -100 -18 c-221 -40
-353 -112 -438 -240 -56 -87 -72 -146 -71 -278 1 -167 49 -317 141 -443 20
-28 33 -52 28 -54 -10 -3 -52 -30 -88 -55 -14 -11 -30 -8 -95 16 -164 61 -187
67 -265 76 -85 10 -183 1 -272 -25 -141 -41 -289 -174 -425 -383 -47 -72 -93
-133 -103 -137 -10 -4 -41 -27 -68 -51 -98 -87 -130 -91 -206 -21 -86 79 -159
208 -217 384 -35 105 -60 143 -116 171 -122 61 -266 -23 -278 -162 -6 -70 38
-204 115 -354 183 -357 444 -541 678 -477 75 20 169 77 237 143 26 25 66 55
90 67 44 21 57 37 177 225 72 112 173 214 230 231 49 14 103 4 251 -49 174
-63 299 -63 424 -1 68 34 148 104 172 151 8 15 17 47 20 72 6 41 8 44 43 50
47 7 111 53 139 98 63 102 48 209 -43 305 -66 68 -95 124 -95 181 0 38 3 43
43 66 23 14 94 38 157 54 202 52 296 112 349 225 37 80 51 148 51 255 0 142
-31 212 -110 252 -52 27 -140 26 -200 -1z"/>
<path d="M3265 2464 c-148 -22 -447 -85 -562 -120 -135 -40 -188 -105 -181
-219 5 -75 36 -123 100 -156 55 -28 108 -23 368 34 238 52 348 72 355 65 3 -3
-1 -30 -9 -61 -8 -30 -13 -64 -11 -74 2 -10 6 -30 10 -45 7 -34 58 -94 96
-114 41 -21 125 -18 176 7 81 39 117 111 130 256 15 177 -62 335 -195 400 -48
23 -70 28 -152 29 -52 1 -108 0 -125 -2z"/>
</g>
</svg>
