<?xml version="1.0" standalone="no"?>
<!DOCTYPE svg PUBLIC "-//W3C//DTD SVG 20010904//EN"
 "http://www.w3.org/TR/2001/REC-SVG-20010904/DTD/svg10.dtd">
<svg version="1.0" xmlns="http://www.w3.org/2000/svg"
 width="600.000000pt" height="600.000000pt" viewBox="0 0 600.000000 600.000000"
 preserveAspectRatio="xMidYMid meet">
<metadata>
Created by potrace 1.15, written by Peter Selinger 2001-2017
</metadata>
<g transform="translate(0.000000,600.000000) scale(0.100000,-0.100000)"
fill="#16364b" stroke="none">
<path d="M2022 5190 c-105 -53 -160 -136 -169 -254 -3 -41 2 -133 11 -211 13
-118 16 -286 18 -1070 l3 -930 -250 -111 c-137 -62 -281 -123 -319 -136 l-68
-23 -15 22 c-9 13 -24 23 -34 23 -22 0 -23 -4 -8 -32 16 -30 6 -32 -41 -8 -55
28 -71 11 -33 -34 l26 -31 -36 -9 c-48 -12 -53 -46 -8 -46 40 0 46 -14 15 -35
-19 -12 -23 -19 -14 -30 22 -27 204 31 579 184 96 39 179 71 185 71 8 0 10
-66 8 -222 -6 -422 36 -615 173 -796 94 -125 249 -222 426 -266 l92 -23 2
-194 c2 -209 16 -309 61 -461 34 -109 30 -122 -34 -115 -112 14 -192 -32 -192
-111 0 -90 111 -126 251 -82 73 23 97 40 133 94 35 53 34 113 -5 235 -55 172
-64 230 -64 428 0 100 2 184 5 186 3 3 79 1 170 -3 91 -5 307 -9 481 -10 l316
0 1 -132 c0 -155 22 -279 81 -458 l38 -115 -96 -6 c-54 -3 -107 -11 -119 -18
-57 -30 -70 -110 -26 -155 36 -36 94 -49 174 -41 144 15 230 86 230 189 0 20
-18 89 -39 153 -57 169 -84 308 -83 428 0 55 4 113 9 130 l9 30 190 17 c230
20 245 23 314 54 251 114 381 397 351 765 -11 138 -41 253 -99 389 -59 138
-100 199 -206 306 l-101 102 225 7 c124 4 257 9 295 10 53 2 86 10 138 33 66
31 81 47 52 58 -12 5 -13 10 -4 20 12 15 4 34 -15 34 -9 0 -12 9 -8 25 5 30
-9 32 -62 10 -20 -8 -37 -12 -38 -8 0 5 -1 15 -2 23 -2 26 -39 18 -46 -10 -5
-22 -13 -26 -60 -32 -116 -14 -544 -21 -623 -9 -72 10 -83 15 -145 64 -113 89
-226 168 -500 345 -296 193 -350 233 -441 323 -177 177 -313 394 -391 628 -29
85 -102 345 -136 481 -63 253 -202 390 -398 390 -61 0 -83 -5 -134 -30z m211
-144 c76 -31 132 -118 171 -264 157 -583 198 -694 324 -887 137 -211 268 -338
492 -477 494 -307 699 -454 1007 -721 148 -128 202 -204 271 -378 50 -126 69
-205 77 -319 23 -294 -103 -544 -299 -594 -34 -9 -158 -26 -276 -38 -191 -19
-263 -21 -650 -19 -239 2 -455 5 -480 7 -25 1 -104 7 -176 12 -228 17 -374 71
-481 179 -68 68 -121 165 -147 268 -45 179 -58 540 -32 845 11 125 12 312 5
975 -5 451 -14 888 -20 970 -23 313 -23 315 3 365 42 77 131 110 211 76z"/>
<path d="M2632 2784 c-32 -22 -30 -76 3 -98 34 -23 71 -20 89 6 22 31 20 64
-4 88 -24 24 -57 26 -88 4z"/>
<path d="M3105 2695 c-33 -32 -31 -58 6 -89 37 -32 52 -32 79 -4 28 30 27 82
-2 102 -32 22 -55 20 -83 -9z"/>
<path d="M3020 1810 c-14 -4 -37 -5 -51 -3 -54 10 -83 -66 -34 -89 19 -9 41
-9 86 0 69 13 89 25 89 56 0 42 -31 54 -90 36z"/>
<path d="M5270 3971 c-120 -39 -191 -96 -231 -186 -77 -172 48 -406 237 -445
157 -33 312 48 382 199 22 47 27 70 27 146 0 75 -4 98 -24 139 -30 61 -78 109
-141 141 -61 31 -166 33 -250 6z m99 -272 c17 -6 31 -14 31 -17 0 -13 -34 -42
-50 -42 -22 0 -43 43 -27 59 13 13 8 13 46 0z"/>
</g>
</svg>
