<?xml version="1.0" standalone="no"?>
<!DOCTYPE svg PUBLIC "-//W3C//DTD SVG 20010904//EN"
 "http://www.w3.org/TR/2001/REC-SVG-20010904/DTD/svg10.dtd">
<svg version="1.0" xmlns="http://www.w3.org/2000/svg"
 width="600.000000pt" height="600.000000pt" viewBox="0 0 600.000000 600.000000"
 preserveAspectRatio="xMidYMid meet">
<metadata>
Created by potrace 1.15, written by Peter Selinger 2001-2017
</metadata>
<g transform="translate(0.000000,600.000000) scale(0.100000,-0.100000)"
fill="#16364b" stroke="none">
<path d="M2873 5561 c-30 -14 -48 -31 -62 -60 -28 -54 -26 -101 5 -162 57
-114 71 -222 61 -476 -1 -33 5 -49 29 -80 85 -105 249 -65 271 65 12 78 7 252
-12 342 -45 220 -115 358 -193 380 -48 13 -50 13 -99 -9z"/>
<path d="M1977 5429 c-50 -26 -77 -72 -77 -130 0 -89 52 -173 161 -263 87 -71
114 -113 180 -283 34 -87 63 -145 81 -164 89 -88 232 -38 245 85 4 35 -5 70
-51 191 -94 245 -127 298 -258 408 -36 30 -65 64 -77 92 -34 77 -125 106 -204
64z"/>
<path d="M1448 4761 c-54 -8 -93 -33 -126 -82 -20 -28 -23 -43 -20 -87 4 -45
10 -59 42 -90 l36 -37 183 -1 c219 -2 326 -20 433 -74 141 -72 270 52 205 196
-21 46 -55 74 -135 109 -118 52 -198 67 -391 70 -99 2 -201 0 -227 -4z"/>
<path d="M4364 4740 c-11 -4 -34 -24 -52 -44 -48 -55 -45 -101 19 -234 28 -59
82 -186 121 -284 41 -104 80 -185 94 -199 31 -29 109 -37 152 -15 40 21 73 68
79 114 5 40 3 47 -146 400 -45 106 -88 204 -97 217 -29 45 -114 68 -170 45z"/>
<path d="M3175 4527 c-16 -8 -86 -76 -155 -151 -109 -120 -248 -255 -373 -363
-54 -47 -77 -90 -77 -146 0 -90 50 -147 129 -147 27 0 58 8 76 19 58 35 281
240 442 404 185 189 199 213 169 292 -32 84 -133 127 -211 92z"/>
<path d="M1720 4319 c-64 -26 -109 -105 -94 -166 10 -42 55 -101 89 -117 100
-48 462 -72 610 -41 98 20 138 42 161 87 37 72 14 158 -56 204 -38 25 -44 26
-108 18 -110 -13 -338 -9 -436 9 -100 19 -130 20 -166 6z"/>
<path d="M3836 4095 c-26 -9 -64 -41 -116 -97 -84 -90 -201 -188 -296 -245
-76 -46 -275 -141 -384 -182 -98 -38 -136 -69 -151 -125 -14 -53 10 -116 58
-153 52 -40 113 -37 237 10 139 53 361 168 486 251 114 76 314 268 344 329 38
82 9 173 -67 207 -50 23 -60 23 -111 5z"/>
<path d="M2305 3769 c-89 -27 -284 -42 -466 -35 -182 6 -187 5 -219 -17 -73
-49 -98 -129 -63 -197 41 -79 134 -105 378 -103 224 1 469 40 538 86 14 9 35
37 47 62 66 137 -56 252 -215 204z"/>
<path d="M5095 3725 c-5 -2 -22 -6 -38 -9 -37 -9 -103 -70 -130 -120 -19 -36
-21 -53 -18 -131 10 -219 6 -308 -18 -389 -46 -165 -135 -296 -341 -505 -122
-124 -149 -169 -150 -246 0 -173 183 -286 338 -209 73 36 333 311 429 454 156
232 240 542 215 791 -21 207 -59 292 -151 338 -35 19 -116 34 -136 26z"/>
<path d="M1982 3128 c-76 -25 -125 -115 -103 -189 17 -56 46 -85 124 -124 111
-55 190 -67 409 -63 l188 3 37 38 c36 36 38 40 38 105 0 55 -4 73 -24 99 -40
54 -73 63 -223 63 -143 0 -241 16 -305 48 -51 27 -100 33 -141 20z"/>
<path d="M4396 3105 c-16 -9 -61 -46 -100 -83 -204 -193 -460 -296 -807 -323
-87 -6 -157 -17 -177 -26 -52 -25 -82 -77 -82 -143 0 -69 25 -112 82 -141 36
-19 52 -21 117 -15 126 12 409 63 521 95 194 56 399 175 579 339 86 78 108
118 96 178 -7 39 -54 98 -96 120 -36 18 -96 18 -133 -1z"/>
<path d="M1433 2929 c-41 -20 -83 -70 -102 -121 -5 -14 -18 -90 -28 -167 -15
-121 -16 -155 -5 -258 28 -282 113 -498 272 -697 74 -92 117 -118 192 -118 65
1 129 38 162 95 55 96 47 155 -34 256 -114 144 -189 324 -212 507 -9 74 -8
122 2 222 16 159 11 191 -40 242 -61 61 -135 75 -207 39z"/>
<path d="M2126 2338 c-71 -42 -94 -119 -56 -192 25 -49 43 -61 170 -113 57
-24 127 -57 155 -75 120 -76 158 -84 216 -45 76 50 91 161 32 235 -40 50 -140
110 -270 162 -133 53 -192 60 -247 28z"/>
<path d="M4210 2064 c-25 -8 -130 -37 -235 -64 -635 -167 -636 -167 -865 -199
-80 -12 -160 -23 -178 -27 -77 -12 -150 -121 -139 -205 11 -87 94 -159 182
-159 46 0 367 43 521 69 165 29 609 136 772 187 125 39 148 50 182 84 70 70
76 164 17 242 -62 80 -153 106 -257 72z"/>
<path d="M4890 1724 c-19 -8 -72 -55 -118 -105 -98 -104 -173 -161 -298 -223
-167 -84 -362 -137 -663 -181 -91 -14 -169 -25 -172 -25 -3 0 -26 -14 -51 -30
-51 -34 -88 -103 -88 -162 1 -77 72 -167 148 -188 43 -11 142 3 422 61 360 75
492 125 709 272 128 86 311 262 340 328 47 102 9 202 -94 250 -48 22 -88 23
-135 3z"/>
<path d="M1990 1414 c-86 -73 -80 -184 17 -275 136 -129 290 -201 511 -239
144 -25 224 -26 264 -3 70 41 93 159 45 232 -31 47 -60 57 -177 65 -155 11
-296 62 -398 147 -118 97 -121 99 -178 99 -42 0 -59 -5 -84 -26z"/>
<path d="M2039 907 c-97 -36 -144 -108 -137 -207 7 -96 42 -133 206 -215 92
-46 304 -116 442 -146 200 -43 442 -27 694 46 82 24 146 106 146 187 0 35 -33
114 -58 142 -32 34 -96 65 -134 66 -15 0 -71 -11 -125 -26 -144 -37 -306 -43
-440 -15 -129 27 -259 70 -386 128 -111 51 -156 59 -208 40z"/>
</g>
</svg>
