<?xml version="1.0" standalone="no"?>
<!DOCTYPE svg PUBLIC "-//W3C//DTD SVG 20010904//EN"
 "http://www.w3.org/TR/2001/REC-SVG-20010904/DTD/svg10.dtd">
<svg version="1.0" xmlns="http://www.w3.org/2000/svg"
 width="600.000000pt" height="600.000000pt" viewBox="0 0 600.000000 600.000000"
 preserveAspectRatio="xMidYMid meet">
<metadata>
Created by potrace 1.15, written by Peter Selinger 2001-2017
</metadata>
<g transform="translate(0.000000,600.000000) scale(0.100000,-0.100000)"
fill="#16364b" stroke="none">
<path d="M1529 5753 c-36 -22 -54 -56 -72 -138 -27 -123 -40 -261 -35 -392 3
-105 8 -137 27 -178 53 -120 154 -168 275 -133 90 27 204 176 338 445 91 182
102 228 68 281 -25 40 -81 66 -124 58 -61 -12 -96 -43 -124 -109 -46 -108
-151 -311 -178 -342 l-25 -30 5 110 c4 61 15 153 26 205 25 119 25 137 0 177
-36 59 -124 82 -181 46z"/>
<path d="M854 5500 c-93 -19 -196 -96 -237 -177 -67 -129 -60 -326 17 -457 34
-58 110 -124 151 -132 82 -15 151 44 149 128 0 43 -5 53 -52 102 -46 49 -52
60 -52 98 0 61 36 128 81 152 36 20 38 20 93 1 51 -18 60 -18 98 -5 48 17 88
73 88 125 0 67 -57 132 -139 155 -53 15 -150 20 -197 10z"/>
<path d="M3272 5490 c-18 -11 -40 -36 -48 -55 -36 -87 -11 -125 151 -233 71
-48 130 -91 132 -97 1 -5 -12 -17 -30 -25 -43 -20 -71 -78 -62 -128 8 -46 79
-118 147 -150 144 -67 263 -45 316 58 31 59 24 121 -22 215 -69 138 -165 232
-369 359 -124 78 -164 88 -215 56z"/>
<path d="M2967 5166 c-177 -63 -265 -388 -131 -483 76 -54 176 -52 300 7 82
40 103 78 104 185 0 142 -44 235 -133 280 -57 28 -85 30 -140 11z"/>
<path d="M2283 5070 c-47 -28 -60 -56 -67 -143 -10 -136 -29 -160 -184 -236
-112 -56 -142 -87 -142 -151 0 -70 69 -140 140 -140 21 0 73 19 139 52 168 83
262 187 305 338 20 70 24 207 7 238 -32 59 -135 81 -198 42z"/>
<path d="M4712 4776 l-37 -35 1 -118 c1 -142 18 -214 80 -339 72 -147 169
-226 279 -227 94 -2 178 51 221 139 72 147 -21 358 -220 498 -176 124 -255
144 -324 82z"/>
<path d="M2747 4150 c-103 -33 -170 -106 -183 -202 -14 -100 44 -211 135 -257
130 -66 337 -43 543 60 77 38 95 53 119 101 23 44 24 86 5 132 -18 43 -50 64
-162 109 -186 75 -341 94 -457 57z"/>
<path d="M1021 4049 c-93 -65 -93 -193 0 -261 13 -10 81 -29 153 -43 71 -14
133 -28 138 -31 29 -18 -84 -95 -381 -260 -245 -137 -265 -155 -265 -250 0
-83 54 -142 137 -151 41 -5 60 1 182 61 75 36 140 66 145 66 4 0 10 -14 14
-31 13 -68 114 -129 188 -115 19 3 58 22 88 42 78 51 166 92 225 104 45 9 58
8 99 -10 90 -38 165 -17 210 59 24 41 25 114 3 158 -21 40 -81 91 -135 116
-37 16 -61 19 -142 15 l-97 -4 36 71 c33 63 36 78 36 150 0 55 -5 89 -17 110
-26 48 -85 103 -141 131 -69 35 -263 84 -362 91 -73 5 -83 3 -114 -18z"/>
<path d="M4165 3762 c-75 -23 -97 -34 -147 -80 -75 -68 -107 -167 -88 -273 20
-108 78 -200 158 -247 41 -24 57 -27 132 -27 105 0 173 28 253 104 68 64 110
149 142 286 28 117 25 152 -14 194 -39 41 -88 53 -241 57 -109 3 -147 0 -195
-14z m105 -289 c0 -14 -34 -43 -52 -43 -25 0 -23 16 4 34 23 16 48 21 48 9z"/>
<path d="M3410 3399 c-69 -28 -148 -125 -204 -253 -31 -70 -32 -100 -6 -144
41 -67 113 -86 229 -61 138 29 240 234 187 374 -30 76 -126 116 -206 84z"/>
<path d="M5125 3398 c-112 -41 -267 -176 -311 -271 -53 -117 -42 -224 32 -306
55 -61 108 -84 199 -84 209 -1 355 150 355 368 0 60 -5 82 -30 131 -49 97
-138 176 -197 173 -10 0 -31 -5 -48 -11z"/>
<path d="M2300 2910 c-59 -13 -138 -52 -178 -91 -48 -45 -76 -92 -118 -199
-46 -116 -80 -169 -142 -216 -61 -46 -239 -237 -296 -317 -87 -122 -161 -292
-197 -450 -17 -77 -20 -114 -16 -227 7 -191 42 -290 155 -431 156 -197 311
-283 584 -324 116 -18 276 -19 350 -4 117 24 299 127 414 236 199 186 367 505
425 805 38 199 16 427 -55 583 -59 127 -131 187 -284 235 -52 16 -109 41 -127
54 -18 14 -55 64 -81 112 -59 105 -139 183 -217 213 -66 24 -157 33 -217 21z
m168 -540 c50 -78 110 -149 141 -164 14 -7 68 -23 119 -36 118 -29 135 -42
156 -124 31 -124 17 -272 -40 -434 -100 -284 -211 -451 -354 -535 -238 -139
-651 0 -735 248 -23 69 -21 200 4 296 35 138 132 297 223 370 48 38 159 141
227 209 53 54 123 159 157 237 l25 57 21 -35 c12 -18 37 -59 56 -89z"/>
<path d="M920 2752 c-54 -55 -63 -150 -20 -205 11 -14 51 -42 88 -63 82 -46
160 -122 191 -187 64 -133 -9 -307 -129 -307 -47 0 -79 25 -131 101 -47 69
-73 89 -122 91 -79 3 -137 -52 -137 -128 0 -82 114 -230 214 -279 196 -96 424
-15 533 190 45 86 64 162 64 257 1 139 -43 223 -194 372 -119 117 -224 186
-284 186 -36 0 -50 -6 -73 -28z"/>
<path d="M4125 2288 c-56 -33 -98 -105 -103 -178 -4 -57 -5 -58 -29 -49 -69
26 -165 -2 -220 -64 -74 -84 -67 -195 33 -515 39 -125 71 -173 139 -203 48
-22 125 -24 163 -5 17 8 35 10 47 5 29 -11 94 -11 139 2 56 15 121 85 140 150
22 74 20 164 -13 470 -25 244 -30 271 -54 312 -38 64 -78 90 -146 94 -44 3
-64 -1 -96 -19z"/>
</g>
</svg>
