<?xml version="1.0" standalone="no"?>
<!DOCTYPE svg PUBLIC "-//W3C//DTD SVG 20010904//EN"
 "http://www.w3.org/TR/2001/REC-SVG-20010904/DTD/svg10.dtd">
<svg version="1.0" xmlns="http://www.w3.org/2000/svg"
 width="600.000000pt" height="600.000000pt" viewBox="0 0 600.000000 600.000000"
 preserveAspectRatio="xMidYMid meet">
<metadata>
Created by potrace 1.15, written by Peter Selinger 2001-2017
</metadata>
<g transform="translate(0.000000,600.000000) scale(0.100000,-0.100000)"
fill="#16364b" stroke="none">
<path d="M2375 5480 c-11 -4 -32 -21 -47 -36 -32 -34 -103 -181 -117 -244 -37
-161 26 -276 171 -311 65 -15 166 -7 331 27 70 15 130 24 133 21 4 -4 -38 -61
-92 -127 -139 -169 -236 -314 -334 -497 l-85 -158 0 -82 c0 -77 2 -84 29 -112
49 -51 79 -54 239 -21 205 42 287 50 522 50 185 0 215 3 252 20 106 48 113
202 11 257 -29 16 -58 18 -243 16 -115 -1 -255 -6 -309 -12 -54 -6 -100 -10
-102 -8 -12 11 121 196 353 495 140 179 157 311 57 422 -86 95 -228 110 -464
47 -74 -20 -136 -34 -139 -32 -2 2 6 28 19 57 28 65 23 124 -14 173 -44 58
-112 80 -171 55z"/>
<path d="M1715 5009 c-188 -46 -339 -114 -446 -203 -83 -69 -155 -157 -170
-207 -17 -54 3 -120 48 -159 38 -34 34 -33 200 -60 151 -25 281 -62 333 -95
21 -14 58 -50 81 -81 49 -66 92 -88 161 -82 117 12 181 121 131 226 -25 52
-132 162 -196 200 -30 18 -96 47 -146 64 -50 17 -91 34 -91 38 0 13 140 67
202 79 71 13 98 30 126 80 37 66 22 143 -36 186 -31 23 -132 30 -197 14z"/>
<path d="M4101 4840 c-111 -24 -239 -79 -349 -153 -78 -52 -108 -104 -97 -172
12 -84 105 -148 182 -126 17 5 55 27 85 49 77 58 170 104 222 109 42 5 45 4
52 -22 17 -67 -49 -301 -130 -464 -55 -108 -58 -150 -20 -219 36 -65 53 -82
102 -104 47 -21 61 -20 387 33 66 10 150 19 188 19 l67 0 0 -47 c-1 -69 -31
-197 -89 -375 -60 -181 -64 -231 -25 -278 68 -80 160 -80 228 0 28 34 84 199
143 420 31 117 36 151 37 255 1 140 -14 186 -84 254 -68 66 -132 85 -280 84
-70 0 -165 -7 -215 -17 -115 -20 -118 -20 -107 2 5 9 22 53 36 97 108 321 68
538 -116 631 -56 28 -148 38 -217 24z"/>
<path d="M2005 3935 c-127 -42 -322 -87 -438 -100 -48 -5 -66 -13 -97 -41
-106 -96 -41 -274 100 -274 91 0 410 63 561 111 126 40 152 64 157 152 5 99
-45 177 -123 191 -20 3 -74 -10 -160 -39z"/>
<path d="M3771 3740 c-66 -14 -147 -56 -351 -182 -245 -152 -252 -159 -258
-234 -3 -50 0 -64 20 -93 32 -47 68 -72 114 -78 48 -6 139 39 317 158 65 44
120 79 122 79 23 0 -44 -196 -135 -400 -44 -96 -84 -195 -90 -220 -25 -95 9
-177 86 -206 40 -15 47 -15 123 5 269 68 576 249 658 388 52 90 21 193 -74
242 -53 27 -146 3 -178 -46 -29 -44 -169 -153 -196 -153 -4 0 6 30 23 67 77
170 118 365 100 471 -26 153 -135 231 -281 202z"/>
<path d="M2295 3346 c-177 -29 -238 -47 -271 -80 -66 -66 -69 -165 -8 -223 50
-46 83 -49 221 -18 65 14 156 29 202 32 l84 6 -6 -44 c-3 -24 -18 -73 -32
-108 -35 -91 -34 -150 5 -195 58 -66 160 -74 228 -19 67 54 132 224 132 344 0
126 -85 254 -195 293 -65 24 -251 30 -360 12z"/>
<path d="M1170 3075 c-52 -16 -107 -65 -126 -112 -43 -102 24 -239 127 -260
l25 -5 0 -356 c-1 -307 2 -370 17 -447 33 -165 81 -232 178 -254 88 -20 163
19 206 106 22 47 25 61 19 116 l-6 63 35 1 c60 2 106 33 152 104 23 35 68 105
100 154 72 113 142 190 157 175 14 -15 10 -219 -8 -330 -7 -47 -28 -135 -46
-195 -38 -128 -36 -166 11 -220 72 -82 210 -64 247 32 47 120 95 373 108 568
14 223 -61 396 -201 461 -66 31 -161 32 -225 3 -101 -46 -215 -161 -313 -316
-22 -35 -41 -63 -44 -63 -3 0 -2 102 2 228 7 246 -1 326 -45 411 -30 59 -89
113 -146 134 -58 20 -160 21 -224 2z"/>
<path d="M4845 2966 c-96 -44 -139 -119 -137 -239 l1 -77 -132 -66 c-197 -99
-257 -147 -321 -254 -102 -170 -106 -432 -10 -621 13 -26 46 -77 75 -114 40
-52 48 -69 38 -76 -8 -5 -19 -9 -24 -9 -6 0 -33 -22 -60 -50 -45 -45 -53 -50
-95 -50 -25 0 -88 7 -140 16 -52 9 -156 16 -230 17 -126 1 -141 -1 -220 -29
-135 -48 -260 -141 -398 -299 -38 -44 -81 -86 -95 -94 -13 -7 -47 -39 -75 -71
-116 -132 -238 -133 -401 -2 -97 78 -150 147 -208 273 -36 77 -82 118 -143
126 -114 16 -228 -100 -217 -220 10 -108 150 -328 284 -444 234 -203 415 -277
582 -239 114 25 226 87 332 184 30 27 68 57 86 66 20 10 60 55 104 117 131
185 224 257 345 267 46 3 98 -4 209 -28 194 -43 270 -40 378 13 168 83 254
212 214 322 -8 22 -17 47 -21 55 -5 11 6 20 41 32 27 10 63 32 82 49 42 40 81
122 81 170 0 60 -30 134 -75 186 -50 57 -69 109 -62 171 6 57 19 67 167 132
230 102 332 195 376 346 20 69 15 209 -11 292 -44 142 -189 209 -320 148z"/>
<path d="M3260 2345 c-223 -27 -525 -94 -586 -130 -31 -18 -50 -40 -69 -80
-52 -106 -19 -209 86 -263 60 -32 100 -27 401 47 135 34 276 64 312 68 l66 6
0 -39 c0 -51 35 -110 88 -150 111 -85 258 -34 298 103 22 74 21 206 -2 263
-39 98 -99 147 -214 174 -78 19 -233 19 -380 1z"/>
</g>
</svg>
