<?xml version="1.0" standalone="no"?>
<!DOCTYPE svg PUBLIC "-//W3C//DTD SVG 20010904//EN"
 "http://www.w3.org/TR/2001/REC-SVG-20010904/DTD/svg10.dtd">
<svg version="1.0" xmlns="http://www.w3.org/2000/svg"
 width="600.000000pt" height="600.000000pt" viewBox="0 0 600.000000 600.000000"
 preserveAspectRatio="xMidYMid meet">
<metadata>
Created by potrace 1.15, written by Peter Selinger 2001-2017
</metadata>
<g transform="translate(0.000000,600.000000) scale(0.100000,-0.100000)"
fill="#16364b" stroke="none">
<path d="M1555 5782 c-41 -26 -44 -30 -108 -172 -124 -276 -147 -388 -98 -473
22 -39 71 -67 117 -67 82 1 149 48 382 269 121 115 154 153 162 183 25 92 -70
174 -163 139 -28 -11 -26 -10 -141 -121 -85 -82 -87 -84 -71 -45 9 22 29 63
45 91 53 95 47 165 -20 199 -38 20 -68 19 -105 -3z"/>
<path d="M851 5534 c-245 -66 -405 -335 -312 -526 40 -84 135 -158 201 -158
68 0 130 61 130 129 0 28 -10 43 -56 88 -51 49 -56 56 -50 86 9 44 53 105 98
134 53 35 105 40 153 14 61 -32 110 -28 151 13 27 27 34 42 34 73 0 21 -7 49
-16 61 -24 34 -87 70 -151 87 -70 18 -112 18 -182 -1z"/>
<path d="M2390 5417 c-13 -7 -34 -27 -46 -44 -19 -29 -22 -49 -27 -220 -9
-350 -73 -486 -273 -584 -72 -36 -93 -51 -109 -81 -18 -34 -19 -40 -5 -80 18
-50 67 -88 116 -88 37 0 145 47 209 90 192 131 290 389 297 780 3 163 -7 196
-68 225 -39 18 -61 19 -94 2z"/>
<path d="M3497 5339 c-80 -47 -46 -249 63 -372 84 -95 198 -133 270 -90 46 27
74 86 67 144 -8 63 -56 154 -114 214 -77 81 -230 137 -286 104z"/>
<path d="M2983 5141 c-152 -69 -232 -261 -161 -382 38 -65 79 -83 177 -77 80
5 171 39 203 75 34 39 57 193 38 263 -14 54 -51 105 -90 125 -40 21 -116 18
-167 -4z"/>
<path d="M4741 4765 c-44 -38 -55 -82 -47 -198 21 -324 138 -523 314 -535 146
-10 256 111 256 280 0 69 -4 85 -38 154 -42 84 -120 169 -215 233 -139 94
-214 113 -270 66z m257 -392 c11 -16 23 -39 27 -53 6 -22 6 -23 -8 -10 -16 15
-51 90 -43 90 3 0 13 -12 24 -27z"/>
<path d="M2733 4225 c-163 -36 -243 -126 -243 -272 0 -191 152 -301 346 -249
123 33 302 164 349 255 36 71 15 167 -45 213 -62 45 -300 77 -407 53z"/>
<path d="M1050 4088 c-76 -52 -100 -133 -62 -207 27 -55 60 -72 149 -81 44 -5
99 -13 122 -20 37 -10 41 -13 29 -27 -53 -64 -228 -156 -365 -193 -106 -28
-143 -64 -143 -139 0 -65 31 -109 93 -135 42 -18 53 -19 94 -7 116 30 382 154
487 226 l66 45 -6 -87 c-6 -78 -4 -94 16 -140 26 -61 91 -125 158 -156 72 -33
190 -31 258 5 73 38 106 69 139 130 61 109 30 258 -71 347 -57 50 -129 75
-216 74 -56 0 -77 -6 -138 -37 -57 -28 -71 -32 -65 -19 4 10 9 43 12 74 10
107 -43 219 -132 281 -65 44 -187 79 -295 85 -88 5 -98 3 -130 -19z"/>
<path d="M4205 3776 c-107 -34 -191 -104 -234 -196 -21 -44 -26 -70 -26 -130
0 -122 56 -213 168 -272 64 -34 184 -32 252 4 106 55 202 192 231 327 36 172
-1 237 -154 270 -69 14 -186 13 -237 -3z m86 -304 c-11 -20 -48 -39 -57 -29
-10 10 10 37 34 45 33 11 36 9 23 -16z"/>
<path d="M5145 3536 c-62 -20 -141 -63 -180 -98 -114 -99 -153 -254 -97 -380
70 -158 235 -213 407 -134 175 80 247 263 168 426 -18 36 -58 94 -91 129 -56
62 -60 64 -113 67 -30 2 -72 -2 -94 -10z m25 -321 c-7 -9 -15 -13 -17 -11 -7
7 7 26 19 26 6 0 6 -6 -2 -15z"/>
<path d="M2583 3450 c-73 -15 -170 -68 -226 -123 -74 -74 -113 -146 -168 -314
-27 -80 -56 -158 -65 -172 -31 -46 -78 -82 -166 -126 -118 -59 -189 -107 -272
-185 -179 -169 -305 -390 -353 -619 -23 -114 -14 -291 22 -401 66 -205 160
-337 329 -464 207 -155 427 -219 635 -185 248 40 575 254 715 468 131 199 175
425 176 901 0 204 -25 510 -51 616 -30 125 -73 254 -106 322 -101 200 -296
317 -470 282z m111 -417 c32 -49 89 -208 107 -298 18 -91 18 -766 0 -900 -16
-118 -46 -227 -79 -289 -41 -75 -155 -186 -245 -239 -201 -116 -358 -103 -562
50 -99 74 -149 129 -188 212 -56 119 -47 250 29 410 82 174 193 289 357 368
183 89 289 173 360 285 45 70 59 103 102 251 35 118 67 187 86 187 5 0 20 -17
33 -37z"/>
<path d="M3371 3322 c-52 -54 -151 -238 -151 -280 0 -34 32 -87 61 -103 31
-16 126 -6 175 19 55 29 98 77 130 147 66 144 11 265 -119 265 -47 0 -54 -3
-96 -48z"/>
<path d="M443 2338 c-18 -4 -48 -23 -67 -42 -49 -45 -48 -84 5 -228 80 -216
146 -338 243 -445 166 -184 414 -204 498 -40 59 117 -18 334 -173 484 -72 70
-91 83 -207 152 -191 114 -242 134 -299 119z m298 -405 c85 -75 143 -149 155
-196 9 -37 -5 -34 -59 13 -65 58 -185 230 -159 230 5 0 34 -21 63 -47z"/>
<path d="M4285 2042 c-16 -11 -36 -26 -44 -35 -12 -15 -15 -15 -38 3 -80 63
-188 37 -222 -53 -16 -40 -14 -75 9 -172 11 -47 24 -120 30 -163 17 -142 63
-275 113 -331 29 -31 94 -61 135 -61 66 0 146 50 179 114 23 45 40 111 62 241
33 203 44 322 31 359 -12 38 -63 90 -103 105 -44 17 -118 13 -152 -7z"/>
</g>
</svg>
