<?xml version="1.0" standalone="no"?>
<!DOCTYPE svg PUBLIC "-//W3C//DTD SVG 20010904//EN"
 "http://www.w3.org/TR/2001/REC-SVG-20010904/DTD/svg10.dtd">
<svg version="1.0" xmlns="http://www.w3.org/2000/svg"
 width="600.000000pt" height="600.000000pt" viewBox="0 0 600.000000 600.000000"
 preserveAspectRatio="xMidYMid meet">
<metadata>
Created by potrace 1.15, written by Peter Selinger 2001-2017
</metadata>
<g transform="translate(0.000000,600.000000) scale(0.100000,-0.100000)"
fill="#16364b" stroke="none">
<path d="M3103 5630 c-62 -28 -83 -68 -83 -161 0 -124 39 -225 123 -316 50
-55 131 -104 251 -152 51 -21 101 -43 111 -48 13 -8 -13 -29 -142 -113 -440
-289 -438 -287 -456 -324 -9 -20 -17 -43 -17 -51 0 -8 -15 -22 -32 -31 -109
-55 -139 -170 -67 -257 47 -57 84 -63 212 -37 59 12 170 25 246 29 152 8 176
16 211 74 24 39 26 116 5 157 -18 35 -61 70 -86 70 -11 0 -19 3 -19 8 0 4 82
61 183 127 205 135 247 169 285 234 21 37 27 58 27 106 -1 135 -95 222 -330
309 -168 63 -205 102 -205 224 0 81 -23 126 -80 154 -45 23 -84 22 -137 -2z"/>
<path d="M1285 5359 c-167 -90 -337 -281 -398 -449 -63 -172 -60 -442 4 -547
63 -101 216 -88 270 24 20 42 21 51 10 108 -6 34 -11 91 -11 126 0 171 103
356 251 454 80 53 109 93 109 150 -1 119 -127 191 -235 134z"/>
<path d="M1524 5036 c-87 -17 -129 -38 -154 -78 -32 -54 -35 -102 -8 -155 31
-62 75 -86 146 -79 28 2 52 1 52 -4 0 -5 -9 -32 -20 -60 -35 -88 -45 -187 -26
-258 26 -102 93 -185 174 -214 17 -7 32 -15 32 -18 0 -3 -51 -32 -112 -63
-194 -99 -241 -145 -242 -239 0 -88 66 -149 163 -150 41 0 62 8 123 44 107 64
222 115 313 138 126 32 170 79 169 178 -2 83 -54 140 -137 149 -44 5 -45 6
-36 32 28 71 -23 165 -106 197 -25 9 -45 22 -45 30 0 7 19 63 41 126 78 212
54 344 -75 410 -50 26 -159 32 -252 14z"/>
<path d="M4450 4538 c-101 -52 -107 -189 -10 -255 25 -17 48 -23 94 -24 34 -1
86 -4 116 -7 l55 -7 -75 -60 c-41 -34 -99 -78 -128 -99 -60 -44 -82 -79 -82
-133 1 -83 72 -153 157 -153 36 0 58 10 140 66 257 175 357 294 370 444 10
104 -34 178 -129 221 -49 22 -68 24 -258 27 -198 3 -207 2 -250 -20z"/>
<path d="M3909 3708 c-50 -29 -83 -90 -83 -154 0 -134 177 -338 326 -375 132
-32 257 58 258 186 0 47 -30 101 -65 117 -21 9 -25 18 -25 51 0 48 -24 101
-58 127 -13 11 -60 31 -104 45 -102 32 -197 34 -249 3z"/>
<path d="M2525 3709 c-122 -23 -258 -80 -313 -132 -66 -63 -63 -156 7 -220 49
-44 101 -54 162 -31 137 52 212 74 255 76 l49 3 -3 -45 c-3 -53 -54 -184 -129
-335 -65 -130 -72 -143 -176 -303 -69 -106 -81 -131 -85 -176 -4 -45 -1 -56
23 -84 26 -31 27 -35 16 -78 -21 -82 19 -163 100 -204 59 -31 123 -26 221 16
128 55 291 115 304 112 15 -4 -26 -114 -122 -324 -58 -128 -68 -157 -68 -204
1 -65 20 -105 68 -148 87 -77 214 -45 273 69 13 24 57 105 98 179 147 267 180
365 173 500 -11 171 -133 299 -303 316 -70 7 -195 -14 -305 -51 -40 -14 -75
-23 -77 -21 -2 2 27 51 65 109 150 228 242 470 243 642 1 68 -3 93 -23 137
-49 107 -126 170 -236 194 -75 15 -143 16 -217 3z"/>
<path d="M1089 3507 c-116 -40 -291 -157 -333 -221 -49 -75 -44 -154 15 -221
56 -64 150 -81 230 -41 18 9 34 14 36 12 3 -2 -25 -103 -60 -223 -167 -560
-193 -700 -148 -798 23 -51 80 -101 128 -114 127 -32 182 -32 225 1 41 33 263
310 433 543 80 110 175 225 184 225 5 0 11 -9 14 -21 6 -23 -71 -452 -129
-724 -30 -139 -37 -192 -38 -290 -1 -114 0 -123 27 -170 39 -70 70 -90 137
-90 61 0 96 19 125 68 17 28 19 50 16 154 -2 48 40 268 119 633 75 347 83 407
71 580 -11 150 -18 181 -56 246 -38 65 -94 99 -164 99 -129 -1 -230 -96 -505
-474 -48 -67 -90 -120 -92 -118 -3 3 2 22 10 43 37 93 128 407 142 493 19 108
14 179 -15 246 -68 155 -213 218 -372 162z"/>
<path d="M3676 3249 c-118 -29 -224 -121 -285 -249 -44 -93 -50 -180 -15 -227
71 -96 201 -97 262 -2 24 36 25 37 93 37 39 1 95 8 125 17 160 46 212 250 92
362 -56 53 -188 83 -272 62z"/>
<path d="M4602 3233 c-40 -20 -71 -62 -79 -107 -12 -74 21 -122 121 -181 85
-49 166 -125 166 -153 0 -14 -24 -48 -60 -87 -59 -63 -60 -65 -60 -122 0 -81
35 -130 103 -147 42 -10 104 23 174 94 86 87 125 164 131 256 4 66 2 79 -27
139 -37 80 -122 168 -234 244 -125 84 -170 96 -235 64z"/>
<path d="M4568 2256 c-64 -17 -113 -58 -145 -119 -22 -43 -27 -65 -26 -124 1
-86 5 -84 -122 -54 -300 71 -463 47 -587 -87 -104 -114 -126 -195 -134 -492
-5 -165 -3 -214 9 -253 l15 -47 -28 0 c-38 0 -80 -17 -107 -42 l-22 -21 -40
26 c-63 42 -232 175 -287 228 -60 55 -170 128 -232 152 -135 53 -275 -22 -318
-171 -9 -29 -18 -52 -20 -50 -9 9 -25 164 -33 324 -10 183 -16 208 -68 255
-42 38 -86 53 -143 46 -61 -7 -100 -27 -148 -75 -45 -45 -64 -102 -57 -174 3
-29 10 -109 16 -178 24 -291 107 -536 221 -656 81 -86 235 -184 336 -214 74
-23 158 17 200 95 12 22 16 60 17 145 2 175 -1 173 103 89 119 -97 220 -163
289 -190 46 -18 78 -23 158 -23 122 -1 189 22 263 89 62 55 76 88 70 164 l-4
59 52 5 c92 10 176 71 211 155 15 37 32 215 33 341 l0 74 43 -7 c23 -4 86 -18
140 -31 163 -41 348 -31 436 23 87 53 148 141 178 255 19 76 13 264 -12 345
-21 69 -76 125 -138 140 -55 14 -59 14 -119 -2z"/>
</g>
</svg>
