<?xml version="1.0" standalone="no"?>
<!DOCTYPE svg PUBLIC "-//W3C//DTD SVG 20010904//EN"
 "http://www.w3.org/TR/2001/REC-SVG-20010904/DTD/svg10.dtd">
<svg version="1.0" xmlns="http://www.w3.org/2000/svg"
 width="600.000000pt" height="600.000000pt" viewBox="0 0 600.000000 600.000000"
 preserveAspectRatio="xMidYMid meet">
<metadata>
Created by potrace 1.15, written by Peter Selinger 2001-2017
</metadata>
<g transform="translate(0.000000,600.000000) scale(0.100000,-0.100000)"
fill="#16364b" stroke="none">
<path d="M2382 5400 c-21 -20 -22 -29 -22 -188 0 -409 -83 -612 -288 -704 -37
-16 -75 -37 -84 -46 -22 -19 -23 -75 -2 -96 25 -26 62 -19 163 30 153 75 232
168 290 344 40 124 52 209 58 426 5 206 5 212 -16 233 -27 27 -71 27 -99 1z"/>
<path d="M3514 5293 c-31 -31 -42 -73 -32 -112 40 -144 168 -271 275 -271 12
0 35 12 52 26 36 30 41 77 15 140 -34 81 -123 192 -176 220 -38 20 -112 18
-134 -3z"/>
<path d="M3001 5114 c-151 -75 -210 -328 -91 -389 57 -29 112 -16 194 48 45
36 92 128 102 198 9 64 -21 129 -69 152 -48 23 -74 21 -136 -9z m73 -136 c-12
-40 -31 -72 -58 -97 -35 -33 -42 -21 -22 34 24 61 98 119 80 63z"/>
<path d="M4767 4739 c-43 -25 -51 -64 -52 -254 0 -186 9 -254 45 -325 29 -57
63 -82 117 -87 138 -13 202 159 139 377 -29 101 -95 240 -131 276 -26 26 -85
32 -118 13z"/>
<path d="M2639 4197 c-47 -25 -89 -84 -89 -125 -1 -129 241 -244 418 -198 81
20 158 60 178 91 37 57 13 142 -47 172 -30 14 -169 58 -231 72 -83 19 -179 14
-229 -12z"/>
<path d="M5212 3985 c-134 -42 -208 -153 -206 -311 1 -68 6 -90 32 -146 36
-74 100 -139 170 -171 74 -34 178 -30 262 9 75 36 146 104 181 172 32 64 38
175 14 240 -32 83 -157 193 -243 213 -54 13 -161 10 -210 -6z m153 -305 c21
-8 24 -13 16 -29 -17 -30 -49 -33 -67 -6 -26 40 -3 56 51 35z"/>
<path d="M4199 3757 c-228 -64 -334 -340 -194 -504 83 -98 239 -128 357 -70
133 65 208 201 194 355 -4 41 -14 88 -22 103 -44 86 -222 148 -335 116z m84
-297 c-7 -25 -41 -46 -54 -33 -14 14 -1 39 24 50 28 13 36 8 30 -17z"/>
<path d="M1048 3431 c-164 -53 -256 -162 -266 -317 -9 -135 52 -255 168 -332
83 -56 157 -81 283 -98 124 -16 170 -36 221 -95 69 -81 154 -287 190 -461 8
-40 22 -127 31 -193 35 -270 110 -431 285 -606 101 -102 197 -154 355 -195 87
-22 133 -26 365 -34 146 -5 391 -15 545 -21 239 -10 316 -9 525 5 381 25 457
34 570 64 170 46 424 157 540 235 174 118 307 298 355 482 51 195 15 495 -82
695 -39 80 -59 108 -137 185 -79 79 -105 98 -196 143 -58 28 -134 58 -170 67
-135 31 -316 14 -488 -46 -106 -37 -166 -70 -349 -192 -177 -117 -268 -163
-358 -182 -89 -19 -154 -19 -235 1 -227 53 -390 140 -790 425 -242 172 -363
245 -518 311 -134 57 -274 103 -433 144 -164 41 -312 46 -411 15z m304 -347
c162 -31 361 -102 512 -185 32 -17 207 -131 390 -253 353 -236 507 -325 667
-387 181 -71 247 -84 404 -83 263 1 432 65 670 255 181 144 250 179 385 198
152 20 287 -25 383 -129 61 -66 79 -96 100 -173 57 -200 -1 -451 -138 -591
-79 -82 -253 -175 -409 -221 -229 -66 -531 -92 -872 -75 -109 6 -370 10 -579
11 -418 0 -481 6 -585 59 -128 64 -194 191 -236 450 -28 176 -89 378 -180 598
-56 136 -96 202 -170 277 -105 108 -226 165 -390 185 -93 11 -159 37 -159 61
0 29 66 30 207 3z"/>
<path d="M2206 2304 c-9 -8 -16 -29 -16 -45 0 -22 8 -34 33 -49 17 -11 36 -20
40 -20 16 0 57 50 57 70 0 49 -79 80 -114 44z"/>
<path d="M2887 2062 c-10 -10 -17 -29 -17 -41 0 -28 46 -71 76 -71 45 0 72 80
38 114 -21 22 -77 20 -97 -2z"/>
<path d="M3450 3359 c-45 -17 -199 -257 -200 -311 0 -40 32 -68 77 -68 32 0
45 8 98 63 77 79 128 174 129 239 1 68 -43 101 -104 77z"/>
<path d="M466 2018 c-24 -34 -19 -64 17 -101 17 -19 53 -59 78 -88 78 -92 175
-124 224 -74 63 63 -9 171 -167 251 -80 40 -130 44 -152 12z"/>
<path d="M5355 1111 c-12 -5 -26 -15 -32 -22 -17 -21 -53 -135 -53 -168 0
-121 153 -152 207 -41 9 19 19 67 21 106 4 63 1 74 -20 98 -25 30 -86 43 -123
27z"/>
</g>
</svg>
