<?xml version="1.0" standalone="no"?>
<!DOCTYPE svg PUBLIC "-//W3C//DTD SVG 20010904//EN"
 "http://www.w3.org/TR/2001/REC-SVG-20010904/DTD/svg10.dtd">
<svg version="1.0" xmlns="http://www.w3.org/2000/svg"
 width="600.000000pt" height="600.000000pt" viewBox="0 0 600.000000 600.000000"
 preserveAspectRatio="xMidYMid meet">
<metadata>
Created by potrace 1.15, written by Peter Selinger 2001-2017
</metadata>
<g transform="translate(0.000000,600.000000) scale(0.100000,-0.100000)"
fill="#16364b" stroke="none">
<path d="M2043 5166 c-69 -32 -129 -94 -164 -171 -40 -85 -44 -139 -24 -286
15 -107 18 -206 18 -729 0 -333 0 -693 1 -800 1 -396 -1 -451 -15 -465 -19
-19 -315 -182 -474 -262 -128 -64 -130 -64 -144 -44 -15 24 -51 28 -51 7 0 -8
5 -18 10 -21 6 -3 10 -10 10 -15 0 -5 -20 -2 -45 8 -60 22 -76 7 -39 -37 14
-18 25 -33 23 -34 -2 -2 -17 -7 -34 -13 -43 -14 -39 -38 8 -42 41 -4 47 -15
17 -34 -21 -13 -26 -33 -12 -42 9 -5 148 36 179 53 10 5 79 39 153 74 74 36
189 99 255 140 l120 75 6 -191 c3 -106 11 -223 18 -262 29 -171 104 -413 164
-530 90 -175 265 -294 475 -320 l53 -7 -8 -36 c-13 -61 -7 -223 11 -292 9 -36
39 -134 66 -218 28 -84 50 -163 50 -176 0 -23 -3 -24 -94 -28 -108 -4 -141
-20 -165 -81 -12 -32 -11 -40 5 -74 33 -66 110 -83 227 -49 111 32 187 120
187 216 0 25 -19 106 -41 180 -81 265 -91 309 -92 415 0 55 3 111 7 124 7 21
12 23 52 17 151 -20 358 -30 629 -30 l310 0 0 -151 c0 -171 20 -285 82 -457
19 -54 32 -105 29 -113 -4 -12 -26 -15 -100 -15 -86 0 -97 -2 -124 -25 -39
-33 -48 -74 -27 -115 45 -86 253 -84 352 3 72 63 79 124 29 253 -82 212 -114
441 -83 579 11 45 15 50 42 53 174 16 435 56 480 73 68 25 144 84 185 144 88
128 145 344 157 600 7 159 -7 235 -70 375 -59 131 -114 210 -224 318 -52 52
-93 94 -91 95 1 2 127 0 278 -3 l275 -6 65 27 c64 27 87 53 56 65 -12 5 -13 9
-3 25 10 16 9 22 -3 32 -8 7 -14 22 -12 35 4 26 -11 28 -62 7 -20 -8 -36 -12
-37 -8 -1 5 -2 17 -3 27 -2 32 -26 30 -39 -3 -9 -26 -18 -31 -57 -37 -76 -12
-428 -8 -560 6 l-125 13 -75 57 c-110 83 -168 121 -452 293 -435 264 -503 315
-623 475 -139 185 -323 623 -406 967 -17 72 -44 158 -60 192 -86 181 -289 272
-446 199z m168 -147 c46 -16 104 -73 129 -127 12 -25 30 -81 40 -126 27 -117
64 -239 105 -347 198 -520 346 -754 595 -940 79 -58 407 -269 596 -382 126
-75 230 -149 326 -228 231 -192 288 -242 353 -310 85 -90 132 -169 176 -299
31 -94 32 -97 26 -235 -12 -291 -67 -480 -163 -565 -58 -51 -93 -60 -313 -85
-403 -46 -719 -54 -1076 -29 -115 9 -250 15 -300 14 -123 -1 -258 21 -329 55
-32 15 -86 54 -121 87 -74 69 -135 177 -184 328 -85 262 -95 452 -46 833 22
167 13 1690 -11 1928 -8 85 -18 181 -21 215 -9 101 25 170 101 205 48 22 71
23 117 8z"/>
<path d="M2650 2793 c-45 -16 -52 -68 -14 -107 33 -32 68 -33 88 -4 24 34 20
73 -10 97 -27 21 -37 24 -64 14z"/>
<path d="M3090 2678 c-27 -29 -25 -54 5 -83 40 -41 88 -28 108 28 7 19 -8 56
-27 69 -22 15 -66 8 -86 -14z"/>
<path d="M2957 1805 c-35 -26 -12 -78 39 -91 32 -8 113 3 130 17 19 16 17 43
-3 61 -24 20 -143 30 -166 13z"/>
<path d="M5240 3977 c-75 -18 -111 -38 -158 -92 -81 -92 -91 -231 -27 -374 36
-78 113 -152 186 -176 159 -53 369 51 429 212 45 120 13 264 -74 339 -100 86
-232 119 -356 91z m149 -324 c9 -7 -33 -43 -50 -43 -23 0 -38 48 -19 60 11 7
49 -3 69 -17z"/>
</g>
</svg>
