<?xml version="1.0" standalone="no"?>
<!DOCTYPE svg PUBLIC "-//W3C//DTD SVG 20010904//EN"
 "http://www.w3.org/TR/2001/REC-SVG-20010904/DTD/svg10.dtd">
<svg version="1.0" xmlns="http://www.w3.org/2000/svg"
 width="600.000000pt" height="600.000000pt" viewBox="0 0 600.000000 600.000000"
 preserveAspectRatio="xMidYMid meet">
<metadata>
Created by potrace 1.15, written by Peter Selinger 2001-2017
</metadata>
<g transform="translate(0.000000,600.000000) scale(0.100000,-0.100000)"
fill="#16364b" stroke="none">
<path d="M2380 5370 c-18 -18 -20 -33 -20 -142 0 -297 -62 -526 -175 -647 -26
-27 -76 -65 -115 -85 -39 -21 -72 -45 -75 -56 -15 -47 24 -80 78 -66 13 3 59
29 102 58 198 133 295 396 295 805 0 115 -1 123 -22 137 -30 21 -44 20 -68 -4z"/>
<path d="M3572 5293 c-23 -5 -52 -48 -52 -79 0 -54 126 -226 191 -259 38 -20
92 -19 111 3 37 42 29 100 -25 182 -76 114 -152 166 -225 153z"/>
<path d="M2999 5087 c-88 -47 -154 -174 -147 -281 4 -51 9 -63 36 -87 18 -16
43 -29 56 -29 89 0 234 141 265 257 33 122 -89 204 -210 140z m97 -92 c10 -25
-44 -122 -89 -160 l-42 -36 -3 31 c-5 44 41 133 81 159 38 25 46 26 53 6z"/>
<path d="M4775 4736 c-26 -26 -30 -57 -41 -286 -12 -272 33 -414 131 -414 43
0 69 24 92 83 23 58 25 281 4 386 -23 118 -60 223 -84 240 -32 22 -74 19 -102
-9z"/>
<path d="M2663 4234 c-30 -7 -81 -58 -85 -87 -6 -33 9 -77 34 -105 54 -58 225
-112 356 -112 91 0 140 15 166 51 34 49 9 139 -45 166 -104 51 -356 102 -426
87z"/>
<path d="M5253 3985 c-95 -29 -178 -98 -225 -187 -19 -36 -23 -59 -23 -133 0
-76 4 -98 26 -146 73 -154 219 -227 380 -189 125 29 201 87 251 188 29 58 33
76 33 147 0 67 -4 89 -28 137 -33 66 -100 131 -178 171 -44 22 -67 27 -124 26
-39 0 -89 -6 -112 -14z m133 -308 c11 -10 -10 -38 -34 -44 -18 -4 -29 -1 -39
12 -25 35 -17 48 28 42 22 -3 43 -7 45 -10z"/>
<path d="M1313 3854 c-96 -35 -173 -151 -173 -265 0 -124 73 -219 223 -290
124 -58 185 -131 241 -287 41 -116 64 -217 86 -387 11 -88 34 -234 50 -325 16
-91 34 -230 40 -309 14 -177 45 -305 104 -425 92 -188 216 -293 415 -351 l74
-22 -77 -37 c-80 -39 -150 -98 -166 -142 -29 -75 4 -150 78 -176 55 -19 195
-15 403 12 102 13 194 20 204 16 16 -6 14 -11 -21 -47 -32 -33 -39 -46 -39
-80 0 -52 30 -79 87 -79 49 0 87 21 117 66 88 129 56 264 -72 295 -56 13 -115
9 -339 -22 -81 -11 -169 -19 -195 -17 l-48 3 75 36 c41 21 145 61 230 89 l155
53 135 -6 c74 -4 231 -11 348 -17 l212 -10 39 -39 c53 -53 110 -66 262 -58
l117 6 11 -27 c15 -35 40 -51 94 -58 66 -9 123 11 172 61 23 25 46 57 49 71 9
35 -9 78 -40 94 -13 8 -24 17 -24 21 0 4 30 12 68 19 211 37 449 116 572 189
183 109 314 296 376 539 22 84 25 113 22 217 -5 135 -15 167 -99 310 -95 161
-246 291 -393 338 -56 17 -94 22 -181 21 -178 -1 -277 -40 -413 -164 -183
-169 -602 -279 -852 -226 -128 28 -279 91 -380 159 -150 102 -335 331 -566
697 -54 86 -103 150 -159 205 -86 86 -146 125 -295 194 -52 23 -144 67 -205
96 -162 79 -230 91 -322 59z m231 -290 c286 -129 325 -152 421 -249 65 -64
123 -139 205 -260 223 -333 404 -548 559 -666 123 -93 321 -172 506 -200 143
-23 441 22 669 101 182 63 264 109 376 214 68 64 117 81 230 81 113 0 159 -18
245 -97 102 -93 182 -236 192 -343 14 -157 -100 -368 -266 -489 -98 -72 -310
-160 -467 -195 -284 -62 -755 -84 -1309 -61 -400 17 -511 32 -619 86 -161 80
-225 232 -251 589 -3 50 -17 153 -30 230 -14 77 -33 212 -44 301 -30 238 -61
352 -149 554 -71 162 -159 252 -326 334 -78 39 -113 73 -102 101 9 26 56 17
160 -31z"/>
<path d="M2353 2450 c-47 -19 -38 -87 15 -114 30 -15 51 -11 70 12 16 20 16
77 -1 90 -19 16 -60 22 -84 12z"/>
<path d="M2807 2032 c-25 -27 -21 -50 14 -83 35 -33 69 -37 91 -11 28 31 30
57 7 85 -25 33 -86 38 -112 9z"/>
<path d="M4223 3746 c-61 -20 -106 -51 -157 -107 -178 -198 -61 -474 200 -473
166 1 287 111 301 272 7 84 -11 196 -38 233 -48 67 -209 107 -306 75z m87
-274 c0 -10 -5 -23 -12 -30 -13 -13 -48 -16 -48 -4 0 16 32 52 46 52 8 0 14
-8 14 -18z"/>
<path d="M3451 3342 c-34 -35 -157 -249 -168 -291 -5 -21 28 -61 51 -61 39 0
153 139 205 251 37 77 38 83 6 114 -33 34 -52 31 -94 -13z"/>
<path d="M472 2018 c-7 -7 -12 -24 -12 -39 0 -31 57 -87 153 -150 113 -74 185
-86 209 -34 25 56 -27 108 -199 194 -84 42 -129 51 -151 29z"/>
<path d="M5337 1090 c-55 -43 -84 -187 -51 -251 20 -40 71 -61 114 -49 69 20
102 79 104 191 1 69 -2 80 -23 103 -32 34 -105 37 -144 6z"/>
</g>
</svg>
