<?xml version="1.0" standalone="no"?>
<!DOCTYPE svg PUBLIC "-//W3C//DTD SVG 20010904//EN"
 "http://www.w3.org/TR/2001/REC-SVG-20010904/DTD/svg10.dtd">
<svg version="1.0" xmlns="http://www.w3.org/2000/svg"
 width="600.000000pt" height="600.000000pt" viewBox="0 0 600.000000 600.000000"
 preserveAspectRatio="xMidYMid meet">
<metadata>
Created by potrace 1.15, written by Peter Selinger 2001-2017
</metadata>
<g transform="translate(0.000000,600.000000) scale(0.100000,-0.100000)"
fill="#16364b" stroke="none">
<path d="M1540 5773 c-47 -24 -85 -97 -151 -293 -43 -128 -53 -170 -56 -240
-4 -73 -1 -90 16 -118 41 -64 113 -87 203 -62 95 27 317 235 432 404 48 71 24
161 -51 192 -59 25 -104 1 -180 -94 -74 -92 -124 -145 -129 -139 -4 4 22 74
71 194 22 53 14 101 -24 137 -37 35 -86 42 -131 19z"/>
<path d="M860 5531 c-165 -53 -312 -225 -326 -383 -4 -35 -1 -81 5 -105 27
-99 136 -203 213 -203 54 0 92 22 113 66 30 63 14 102 -69 171 -62 51 -3 179
104 223 27 11 38 11 64 1 79 -33 101 -35 142 -15 88 43 94 145 12 204 -45 33
-124 60 -172 59 -17 0 -56 -8 -86 -18z"/>
<path d="M3459 5385 c-62 -34 -80 -129 -34 -179 17 -18 25 -39 25 -63 0 -46
56 -139 116 -192 130 -114 269 -119 317 -12 18 41 19 52 9 100 -14 64 -58 141
-124 216 -34 38 -73 66 -137 99 -93 48 -129 55 -172 31z"/>
<path d="M2363 5366 c-55 -25 -61 -44 -66 -231 -5 -189 -18 -256 -73 -371 -41
-88 -98 -142 -200 -191 -84 -40 -109 -68 -109 -122 0 -64 51 -111 119 -111 42
0 157 58 222 112 170 140 282 447 272 748 -3 107 -4 110 -33 139 -36 36 -88
46 -132 27z"/>
<path d="M2987 5139 c-57 -13 -89 -33 -131 -80 -108 -118 -107 -285 1 -359 69
-48 227 -36 317 24 47 32 68 83 68 174 1 86 -18 136 -72 191 -26 25 -116 64
-139 60 -3 -1 -23 -5 -44 -10z"/>
<path d="M4731 4753 c-39 -39 -45 -89 -32 -239 12 -140 29 -210 72 -298 96
-198 270 -245 401 -109 72 75 110 201 88 298 -23 107 -99 184 -300 305 -132
79 -183 89 -229 43z m289 -431 c0 -13 -5 -11 -20 8 -10 14 -21 34 -24 45 -4
16 0 15 20 -8 13 -15 24 -36 24 -45z"/>
<path d="M2725 4221 c-138 -37 -208 -121 -208 -250 -1 -78 23 -140 73 -189
136 -136 358 -97 562 98 74 70 91 123 64 194 -23 60 -60 86 -171 120 -95 29
-260 43 -320 27z"/>
<path d="M1060 4077 c-40 -20 -70 -74 -70 -124 0 -95 48 -142 170 -168 84 -18
140 -36 140 -45 0 -13 -36 -38 -95 -68 -71 -36 -312 -132 -332 -132 -7 0 -31
-16 -53 -36 -118 -107 -33 -287 125 -261 70 11 390 154 465 207 38 27 50 25
50 -7 0 -36 31 -87 67 -110 15 -10 32 -24 37 -32 28 -45 96 -105 152 -132 116
-57 226 -40 306 49 47 52 62 99 56 182 -9 117 -91 229 -195 264 -62 21 -155
20 -221 -3 l-54 -18 7 21 c3 11 9 49 12 83 14 152 -96 243 -382 318 -108 28
-148 31 -185 12z"/>
<path d="M4220 3786 c-122 -36 -213 -109 -259 -206 -34 -73 -36 -190 -4 -262
29 -63 86 -124 147 -156 44 -23 64 -27 136 -27 73 0 93 4 142 28 132 65 216
224 234 448 l7 79 -39 39 c-22 21 -57 44 -79 51 -61 18 -232 22 -285 6z m35
-343 c-19 -17 -31 -21 -38 -14 -12 12 8 40 38 51 31 12 31 -11 0 -37z"/>
<path d="M5140 3527 c-119 -49 -232 -155 -271 -255 -33 -81 -32 -206 0 -280
31 -69 97 -127 170 -149 103 -30 236 10 318 94 107 111 140 283 79 418 -25 55
-111 161 -148 181 -34 20 -86 16 -148 -9z m13 -362 c-3 -9 -8 -14 -10 -11 -3
3 -2 9 2 15 9 16 15 13 8 -4z"/>
<path d="M3415 3380 c-39 -15 -95 -90 -146 -195 -43 -88 -51 -112 -46 -142 8
-46 53 -93 98 -102 43 -9 122 5 171 30 76 39 136 167 126 270 -10 105 -113
176 -203 139z"/>
<path d="M2476 3326 c-132 -56 -247 -187 -315 -359 -74 -186 -86 -212 -115
-250 -17 -22 -53 -55 -81 -73 -218 -143 -320 -230 -408 -347 -170 -228 -234
-416 -224 -661 6 -148 22 -219 73 -324 34 -70 128 -196 176 -237 229 -193 439
-274 684 -263 174 8 291 57 489 206 169 126 257 225 343 383 128 235 173 564
128 944 -30 253 -61 380 -132 540 -20 44 -45 100 -56 125 -58 129 -177 262
-278 309 -82 37 -204 41 -284 7z m173 -419 c16 -24 33 -57 37 -72 4 -16 25
-67 46 -112 75 -159 108 -352 108 -621 0 -159 -18 -305 -48 -392 -82 -236
-248 -417 -439 -481 -85 -28 -236 -24 -331 10 -185 64 -293 183 -323 355 -40
236 117 503 401 679 133 83 250 190 316 288 25 38 67 126 95 201 56 147 77
188 96 188 6 0 25 -20 42 -43z"/>
<path d="M545 2406 c-43 -19 -65 -48 -72 -92 -3 -22 -16 -50 -28 -64 -55 -61
-56 -87 -11 -202 68 -175 205 -371 317 -453 187 -138 387 -88 445 112 39 136
-3 260 -130 381 -130 124 -399 312 -466 326 -14 3 -38 0 -55 -8z m222 -364
c87 -65 162 -143 187 -196 20 -42 21 -86 2 -86 -30 0 -113 70 -164 136 -57 76
-129 204 -113 204 5 0 45 -26 88 -58z"/>
<path d="M4251 2083 c-19 -9 -43 -32 -54 -50 l-19 -33 -35 22 c-69 42 -152 23
-193 -45 -24 -39 -25 -84 -5 -171 9 -36 24 -122 35 -190 19 -127 27 -153 55
-176 8 -7 24 -33 36 -59 66 -149 220 -185 325 -76 68 71 85 145 104 468 11
178 11 190 -8 225 -42 82 -163 125 -241 85z"/>
</g>
</svg>
