<?xml version="1.0" standalone="no"?>
<!DOCTYPE svg PUBLIC "-//W3C//DTD SVG 20010904//EN"
 "http://www.w3.org/TR/2001/REC-SVG-20010904/DTD/svg10.dtd">
<svg version="1.0" xmlns="http://www.w3.org/2000/svg"
 width="600.000000pt" height="600.000000pt" viewBox="0 0 600.000000 600.000000"
 preserveAspectRatio="xMidYMid meet">
<metadata>
Created by potrace 1.15, written by Peter Selinger 2001-2017
</metadata>
<g transform="translate(0.000000,600.000000) scale(0.100000,-0.100000)"
fill="#16364b" stroke="none">
<path d="M2827 5549 c-42 -34 -114 -166 -141 -258 -50 -170 22 -324 171 -367
47 -14 84 -16 200 -11 79 3 143 3 142 -1 0 -4 -34 -34 -76 -67 -41 -33 -176
-159 -298 -280 -240 -237 -246 -246 -225 -324 5 -20 29 -58 52 -84 41 -47 47
-50 143 -73 55 -13 211 -44 348 -69 136 -25 283 -54 327 -64 60 -15 88 -17
115 -10 131 37 155 208 36 268 -55 29 -187 58 -405 91 -110 17 -202 33 -205
36 -4 4 19 29 50 58 226 206 284 257 369 324 176 139 204 172 215 258 8 67
-23 127 -88 171 -89 59 -202 78 -414 69 -83 -4 -153 -3 -156 1 -3 5 15 49 39
98 39 78 45 96 40 133 -11 83 -67 132 -153 132 -39 0 -55 -6 -86 -31z"/>
<path d="M1513 5251 c-222 -108 -364 -248 -454 -446 -125 -277 -132 -393 -28
-463 44 -30 100 -27 260 16 142 38 286 52 294 30 4 -9 -21 -99 -54 -201 -65
-198 -69 -226 -46 -271 18 -34 14 -42 -26 -50 -43 -8 -105 -72 -118 -122 -23
-86 30 -163 118 -172 42 -4 79 6 247 63 210 71 373 141 413 178 28 26 51 76
51 114 0 48 -39 112 -81 133 -57 29 -90 25 -190 -26 -50 -25 -93 -43 -96 -41
-2 3 12 55 31 117 93 287 89 398 -19 506 -76 76 -136 96 -307 102 -160 5 -157
0 -58 105 70 75 112 106 228 167 64 34 89 53 103 80 52 97 -16 208 -133 217
-46 4 -64 -1 -135 -36z"/>
<path d="M4473 4599 c-112 -19 -396 -141 -452 -195 -64 -61 -50 -174 25 -215
49 -25 111 -16 216 35 53 26 122 55 153 66 l57 20 -6 -28 c-10 -40 -124 -269
-212 -421 -85 -149 -96 -190 -69 -251 10 -22 21 -40 25 -40 4 0 30 -22 57 -49
58 -56 85 -66 213 -75 93 -7 321 -50 352 -67 13 -7 17 -17 13 -32 -3 -12 -56
-123 -117 -247 -61 -124 -115 -238 -119 -254 -13 -43 5 -97 45 -136 29 -27 45
-34 88 -38 79 -6 107 18 180 153 205 379 230 441 232 565 0 41 -5 92 -13 114
-15 44 -72 111 -110 131 -72 36 -230 74 -403 95 -54 7 -98 14 -98 16 0 2 37
68 82 146 130 228 178 350 178 461 0 168 -139 276 -317 246z"/>
<path d="M3783 3679 c-126 -24 -222 -134 -223 -254 0 -90 56 -145 148 -145 48
0 99 33 121 77 24 48 36 34 35 -38 0 -54 -7 -77 -40 -143 -38 -77 -41 -79 -98
-102 -114 -44 -254 -162 -277 -232 -30 -91 26 -181 120 -190 71 -7 94 2 158
59 65 60 130 91 251 120 143 36 185 66 201 142 9 42 -5 107 -30 133 -19 21
-20 24 -5 82 39 147 27 260 -37 355 -68 101 -206 159 -324 136z"/>
<path d="M2485 3571 c-101 -22 -299 -108 -378 -163 -34 -24 -67 -87 -67 -127
0 -47 28 -96 73 -125 60 -38 102 -35 211 18 118 57 214 86 283 86 l56 0 -5
-58 c-7 -73 -72 -240 -140 -357 -41 -72 -52 -101 -56 -147 -5 -72 19 -117 80
-146 l42 -19 -37 -12 c-52 -18 -113 -90 -121 -145 -17 -113 73 -220 197 -233
44 -4 66 0 147 32 133 53 280 102 329 110 52 9 52 8 1 -142 -47 -139 -51 -197
-17 -263 12 -24 39 -57 60 -74 32 -26 49 -31 105 -34 58 -3 72 0 102 20 46 31
72 72 110 171 65 169 82 244 84 362 1 100 -1 115 -26 167 -31 67 -64 100 -133
136 -97 50 -303 41 -555 -22 -52 -14 -96 -24 -97 -23 -1 1 14 27 33 57 119
186 188 377 201 556 12 163 -56 290 -187 348 -51 23 -80 29 -158 32 -54 2
-115 -1 -137 -5z"/>
<path d="M1177 3260 c-67 -17 -204 -97 -270 -159 -62 -57 -86 -156 -53 -220
39 -75 137 -122 211 -103 22 6 41 9 43 7 3 -2 -14 -109 -37 -237 -53 -299 -60
-360 -61 -488 0 -201 29 -282 120 -328 73 -37 197 -25 251 24 11 10 50 68 86
129 137 228 429 645 452 645 17 0 41 -135 41 -227 0 -122 -11 -210 -56 -456
-44 -237 -53 -351 -31 -393 50 -96 174 -113 242 -32 14 17 27 29 29 27 2 -2
13 -78 25 -169 51 -374 102 -545 203 -677 71 -93 188 -153 301 -153 99 0 236
51 300 111 18 17 48 40 67 52 27 18 52 55 110 163 138 258 230 374 300 374 17
0 68 -28 140 -76 199 -134 301 -166 421 -131 96 28 196 117 215 192 4 16 18
38 30 48 35 27 63 79 74 135 7 41 6 66 -9 124 -35 139 -45 263 -22 278 22 13
149 30 306 39 98 6 168 16 202 28 167 58 248 200 248 434 0 111 -1 117 -30
164 -19 31 -49 61 -79 80 -42 26 -59 30 -115 30 -42 -1 -77 -7 -96 -17 -74
-40 -135 -132 -135 -202 l0 -33 -147 -6 c-171 -7 -265 -27 -372 -82 -117 -58
-182 -138 -222 -272 -27 -89 -30 -310 -5 -423 25 -117 25 -118 -42 -66 -225
173 -434 193 -634 60 -125 -84 -221 -210 -341 -455 -53 -108 -79 -150 -100
-163 -35 -20 -41 -16 -71 42 -45 89 -75 214 -125 517 -18 108 -29 141 -58 175
-75 89 -216 94 -286 10 -15 -18 -29 -31 -31 -29 -5 6 17 148 52 334 40 210 45
287 32 485 -15 238 -37 397 -62 448 -24 50 -83 97 -141 113 -80 21 -197 -16
-288 -91 -52 -44 -150 -164 -243 -298 -32 -46 -60 -81 -62 -79 -2 2 5 58 17
123 41 234 36 441 -12 536 -53 104 -176 164 -282 138z"/>
</g>
</svg>
