<?xml version="1.0" standalone="no"?>
<!DOCTYPE svg PUBLIC "-//W3C//DTD SVG 20010904//EN"
 "http://www.w3.org/TR/2001/REC-SVG-20010904/DTD/svg10.dtd">
<svg version="1.0" xmlns="http://www.w3.org/2000/svg"
 width="600.000000pt" height="600.000000pt" viewBox="0 0 600.000000 600.000000"
 preserveAspectRatio="xMidYMid meet">
<metadata>
Created by potrace 1.15, written by Peter Selinger 2001-2017
</metadata>
<g transform="translate(0.000000,600.000000) scale(0.100000,-0.100000)"
fill="#16364b" stroke="none">
<path d="M2283 5785 c-18 -7 -76 -47 -130 -87 -54 -41 -172 -128 -263 -193
-335 -241 -429 -345 -432 -473 -1 -50 25 -113 59 -144 89 -81 307 -63 643 54
80 27 215 74 300 103 137 46 158 56 178 85 27 41 28 72 2 126 -26 52 -82 92
-141 100 -39 5 -64 -1 -179 -46 -176 -68 -302 -112 -307 -107 -4 5 132 116
301 244 140 107 159 133 153 215 -4 65 -28 100 -84 124 -40 17 -59 17 -100 -1z"/>
<path d="M3091 5679 c-124 -26 -165 -197 -65 -272 14 -11 69 -26 132 -36 183
-32 282 -83 332 -171 49 -87 25 -276 -49 -393 -36 -55 -98 -98 -186 -127 -89
-30 -125 -74 -125 -153 0 -56 32 -105 85 -131 38 -19 41 -19 104 -3 203 54
355 180 429 358 57 138 77 231 77 365 0 119 0 121 -38 196 -53 109 -155 202
-291 268 -147 72 -326 115 -405 99z"/>
<path d="M920 5284 c-54 -27 -96 -59 -150 -113 -84 -85 -125 -157 -143 -253
-29 -159 66 -367 243 -531 69 -64 93 -77 146 -77 67 0 124 46 145 118 19 67 2
109 -74 174 -103 88 -147 155 -147 223 0 70 37 111 172 188 61 35 88 80 88
144 0 88 -62 153 -152 160 -46 4 -63 0 -128 -33z"/>
<path d="M4762 4930 c-18 -11 -46 -41 -63 -67 -31 -47 -31 -49 -25 -148 16
-293 150 -502 342 -531 66 -10 147 19 204 72 68 63 93 127 93 230 0 171 -97
294 -313 402 -137 69 -181 77 -238 42z"/>
<path d="M2674 4910 c-216 -114 -330 -293 -296 -466 19 -93 74 -194 138 -253
102 -94 287 -164 371 -142 49 13 102 69 104 109 4 106 -26 148 -138 189 -160
58 -202 109 -158 194 15 28 99 96 163 131 92 49 93 185 3 245 -50 34 -114 31
-187 -7z"/>
<path d="M1830 4416 c-121 -35 -261 -138 -316 -233 -71 -120 36 -268 167 -233
31 9 58 28 103 75 89 93 144 107 238 59 82 -42 152 -23 206 56 17 25 22 47 22
93 0 58 -2 62 -44 103 -60 57 -138 86 -246 90 -50 2 -103 -2 -130 -10z"/>
<path d="M2595 3821 c-187 -34 -224 -52 -245 -117 -27 -81 7 -167 80 -204 50
-25 63 -25 195 5 113 25 205 32 205 15 0 -5 -10 -35 -21 -66 -31 -83 -139
-237 -296 -422 -250 -296 -256 -306 -233 -393 21 -76 95 -120 170 -99 49 14
61 25 217 210 293 348 371 457 423 593 88 227 54 377 -104 456 -64 33 -75 35
-180 38 -76 2 -142 -3 -211 -16z"/>
<path d="M4243 3796 c-133 -31 -260 -125 -308 -228 -67 -143 1 -311 154 -382
70 -32 215 -29 291 6 108 50 201 159 271 318 62 142 47 230 -47 271 -61 27
-270 36 -361 15z m37 -304 c0 -9 -54 -42 -69 -42 -20 0 -11 19 17 34 30 17 52
20 52 8z"/>
<path d="M1208 3720 c-60 -10 -221 -66 -302 -107 -88 -44 -127 -106 -127 -199
0 -59 16 -96 58 -137 46 -43 136 -60 197 -37 17 6 26 6 26 0 0 -6 -23 -56 -51
-112 -170 -338 -296 -709 -287 -839 5 -71 43 -132 103 -166 49 -28 140 -31
192 -7 19 9 91 78 161 153 159 171 571 585 577 580 5 -6 -21 -186 -40 -277
-44 -211 -109 -428 -200 -667 -67 -174 -69 -183 -56 -232 31 -114 176 -158
253 -76 26 28 87 178 189 466 47 134 125 431 149 572 7 39 18 92 26 119 17 60
19 253 3 328 -31 147 -132 224 -257 197 -70 -15 -119 -49 -266 -185 -197 -183
-246 -226 -246 -218 0 4 33 68 74 143 140 255 172 345 164 461 -13 175 -146
269 -340 240z"/>
<path d="M3502 3355 c-107 -47 -180 -168 -207 -344 -13 -87 -9 -123 20 -168
68 -103 354 -75 489 48 166 151 114 401 -96 464 -64 19 -162 19 -206 0z"/>
<path d="M4840 2684 c-83 -22 -170 -66 -224 -115 -49 -44 -96 -124 -96 -166 0
-28 3 -28 -55 -2 -142 63 -321 -37 -333 -187 -2 -28 4 -95 13 -148 10 -53 15
-99 13 -102 -3 -2 -40 9 -83 26 -255 103 -448 64 -531 -106 -38 -78 -42 -186
-14 -384 12 -85 28 -208 35 -272 14 -122 27 -158 67 -195 79 -74 242 -69 326
10 32 29 60 86 68 135 4 23 -2 82 -14 148 -12 60 -24 130 -28 156 l-6 48 38
-16 c22 -9 66 -30 99 -47 74 -37 138 -39 241 -8 72 21 172 79 211 122 12 13
34 49 49 79 25 49 29 68 32 170 3 87 -2 141 -17 219 -11 58 -18 107 -16 109 3
3 13 -2 23 -11 54 -49 169 -60 247 -23 106 50 173 162 202 336 l16 98 -24 49
c-44 89 -112 111 -239 77z"/>
<path d="M2929 2419 c-86 -12 -169 -44 -324 -121 -299 -150 -330 -178 -329
-299 l0 -68 -41 6 c-86 11 -231 -54 -286 -129 -43 -60 -47 -116 -14 -184 32
-66 84 -104 150 -112 25 -2 48 -8 51 -13 6 -11 64 -216 64 -229 0 -5 -16 -17
-35 -26 -50 -23 -117 -102 -138 -162 -39 -107 -31 -246 18 -357 33 -75 151
-231 216 -287 71 -60 153 -107 267 -152 221 -88 420 -86 615 7 127 60 167 109
167 204 -1 86 -46 156 -122 188 -58 24 -101 18 -205 -26 -135 -57 -176 -60
-287 -16 -108 42 -194 103 -253 179 -24 32 -43 58 -41 58 2 0 26 -22 54 -48
89 -85 178 -92 279 -22 85 59 115 126 95 211 -12 50 -21 61 -143 170 -77 70
-110 141 -162 354 -23 93 -51 191 -62 216 l-21 47 37 6 c20 3 88 32 151 65
109 56 276 130 329 146 23 7 24 6 17 -34 -16 -100 -71 -226 -178 -403 -49 -81
-63 -114 -66 -154 -9 -109 77 -197 193 -197 53 0 116 22 148 51 35 32 142 206
186 304 85 187 125 465 85 598 -38 128 -125 204 -259 229 -65 12 -75 12 -156
0z"/>
</g>
</svg>
