<?xml version="1.0" standalone="no"?>
<!DOCTYPE svg PUBLIC "-//W3C//DTD SVG 20010904//EN"
 "http://www.w3.org/TR/2001/REC-SVG-20010904/DTD/svg10.dtd">
<svg version="1.0" xmlns="http://www.w3.org/2000/svg"
 width="600.000000pt" height="600.000000pt" viewBox="0 0 600.000000 600.000000"
 preserveAspectRatio="xMidYMid meet">
<metadata>
Created by potrace 1.15, written by Peter Selinger 2001-2017
</metadata>
<g transform="translate(0.000000,600.000000) scale(0.100000,-0.100000)"
fill="#16364b" stroke="none">
<path d="M3172 5662 c-51 -15 -92 -63 -142 -165 -27 -56 -54 -122 -59 -147
-37 -160 27 -305 162 -369 64 -30 146 -51 197 -51 50 0 42 -17 -27 -61 -171
-107 -504 -372 -529 -421 -43 -82 9 -179 143 -268 114 -75 226 -115 687 -246
114 -32 206 40 193 152 -10 92 -66 122 -415 224 -95 28 -187 56 -205 63 l-32
13 115 85 c125 92 183 130 365 237 66 39 140 88 163 108 102 87 118 217 37
298 -62 63 -121 77 -478 114 -49 5 -93 14 -98 19 -12 12 17 91 62 163 61 100
43 201 -44 241 -44 20 -58 21 -95 11z"/>
<path d="M1412 5410 c-89 -60 -177 -160 -292 -330 -168 -253 -230 -374 -265
-520 -29 -124 -15 -196 46 -243 56 -42 90 -42 214 -3 207 66 369 106 426 106
l29 0 -24 -47 c-13 -27 -65 -120 -115 -207 -103 -181 -151 -289 -151 -339 0
-41 33 -132 59 -164 28 -34 83 -63 119 -63 31 0 110 39 461 229 126 68 153 99
158 179 5 74 -19 115 -83 144 -55 24 -98 19 -162 -19 -24 -13 -46 -23 -48 -20
-3 2 14 37 37 78 60 106 81 171 87 269 4 74 1 92 -18 133 -44 93 -144 147
-272 147 -60 0 -249 -30 -335 -54 -29 -8 -53 -10 -53 -5 0 13 58 105 119 189
102 140 175 222 238 267 48 34 65 54 79 88 41 108 -36 225 -147 225 -38 0 -58
-8 -107 -40z"/>
<path d="M4685 4444 c-82 -20 -392 -122 -428 -140 -65 -34 -87 -134 -45 -202
22 -36 85 -71 128 -72 14 0 87 21 163 46 76 25 141 43 144 40 16 -16 -161
-276 -333 -488 -74 -91 -69 -173 14 -227 20 -14 55 -42 77 -62 45 -43 79 -57
324 -140 95 -32 176 -60 178 -63 8 -8 -72 -149 -184 -323 -57 -89 -108 -175
-114 -192 -22 -64 13 -140 77 -167 66 -28 124 -13 175 43 64 69 279 421 319
522 50 127 33 238 -47 319 -55 54 -158 104 -351 167 -132 44 -142 49 -130 65
89 124 197 297 242 386 101 205 117 292 72 391 -46 98 -143 132 -281 97z"/>
<path d="M3792 3680 c-34 -21 -71 -87 -72 -128 0 -60 67 -144 145 -182 22 -11
53 -32 68 -48 24 -25 26 -33 21 -77 l-6 -50 -87 0 c-185 -1 -361 -109 -440
-270 -36 -72 -39 -120 -12 -173 35 -69 88 -98 158 -87 56 8 97 44 133 114 42
84 45 86 176 86 98 0 116 3 140 21 40 29 68 89 68 145 0 47 1 48 35 54 127 24
180 183 109 325 -36 73 -121 162 -222 235 -59 42 -77 49 -125 53 -44 2 -63 -1
-89 -18z"/>
<path d="M2532 3639 c-119 -15 -243 -62 -364 -138 -97 -61 -122 -133 -75 -216
27 -48 74 -81 128 -90 33 -6 50 -2 92 20 143 75 186 95 230 105 65 16 77 10
77 -43 0 -120 -104 -402 -225 -612 -85 -145 -85 -146 -85 -196 0 -35 7 -56 29
-87 36 -49 71 -62 176 -62 72 0 98 7 258 62 98 33 180 59 182 56 9 -8 -62
-201 -115 -314 -59 -125 -65 -182 -27 -249 33 -59 78 -85 147 -85 45 0 65 6
103 30 40 25 54 43 96 128 70 140 145 322 176 427 30 102 36 215 16 280 -35
107 -115 183 -216 206 -58 13 -169 1 -248 -27 -61 -22 -70 -20 -54 14 25 47
75 204 91 284 32 155 12 285 -60 381 -74 100 -187 143 -332 126z"/>
<path d="M1048 3376 c-75 -27 -145 -71 -234 -148 -94 -82 -109 -108 -109 -194
0 -64 3 -77 30 -116 58 -83 159 -110 248 -64 26 13 47 19 47 14 0 -14 -47
-245 -69 -338 -58 -249 -87 -547 -61 -640 19 -71 69 -112 171 -138 46 -12 96
-22 110 -22 68 0 134 80 354 425 157 246 274 416 291 422 17 6 31 -39 27 -82
-3 -22 -16 -110 -29 -195 -52 -325 -104 -718 -104 -785 0 -90 14 -137 52 -181
81 -91 201 -98 271 -15 47 56 48 144 2 200 -24 28 -25 31 -14 107 25 184 71
459 99 584 52 240 66 356 50 440 -5 30 -14 98 -20 150 -12 116 -44 188 -102
230 -76 55 -171 48 -262 -18 -59 -43 -219 -241 -359 -445 -56 -81 -103 -143
-105 -139 -1 5 22 107 53 227 86 338 94 496 28 616 -63 116 -212 159 -365 105z"/>
<path d="M4681 2198 c-60 -13 -144 -96 -162 -158 -7 -25 -16 -49 -19 -53 -4
-5 -57 -1 -116 8 -263 42 -538 -18 -665 -144 -77 -77 -91 -120 -97 -299 l-4
-142 -59 55 c-160 148 -364 195 -514 120 -111 -56 -228 -194 -315 -372 -19
-40 -38 -72 -41 -73 -3 0 -16 75 -28 168 -31 232 -69 361 -124 420 -87 94
-243 78 -311 -31 -38 -61 -38 -123 -1 -196 33 -65 49 -155 70 -376 44 -473
161 -645 437 -645 147 0 214 61 228 206 6 62 18 95 87 237 77 158 143 268 177
296 25 21 53 -4 161 -139 148 -185 207 -224 335 -225 88 0 144 22 210 81 87
78 140 259 140 473 0 122 5 131 78 131 31 -1 93 -7 137 -15 230 -43 276 -47
347 -37 163 25 282 130 324 287 19 68 18 212 -1 266 -42 119 -155 184 -274
157z"/>
</g>
</svg>
