<?xml version="1.0" standalone="no"?>
<!DOCTYPE svg PUBLIC "-//W3C//DTD SVG 20010904//EN"
 "http://www.w3.org/TR/2001/REC-SVG-20010904/DTD/svg10.dtd">
<svg version="1.0" xmlns="http://www.w3.org/2000/svg"
 width="600.000000pt" height="600.000000pt" viewBox="0 0 600.000000 600.000000"
 preserveAspectRatio="xMidYMid meet">
<metadata>
Created by potrace 1.15, written by Peter Selinger 2001-2017
</metadata>
<g transform="translate(0.000000,600.000000) scale(0.100000,-0.100000)"
fill="#16364b" stroke="none">
<path d="M1545 5756 c-16 -7 -39 -24 -50 -37 -11 -13 -65 -76 -119 -139 -167
-195 -188 -238 -151 -310 30 -59 123 -77 222 -44 89 30 376 178 415 215 52 49
53 96 4 145 -41 41 -71 43 -144 9 -67 -31 -68 -31 -43 1 68 86 -33 207 -134
160z"/>
<path d="M2383 5425 c-52 -22 -63 -57 -63 -197 0 -218 -29 -377 -95 -514 -42
-88 -94 -141 -185 -188 -38 -20 -76 -47 -85 -59 -36 -51 -6 -125 60 -147 65
-22 235 69 313 167 62 79 133 247 176 418 31 124 40 409 15 476 -11 28 -56 59
-86 59 -10 -1 -32 -7 -50 -15z"/>
<path d="M3507 5320 c-14 -11 -33 -40 -42 -64 -14 -36 -15 -50 -5 -87 41 -152
181 -298 288 -299 117 -1 158 116 91 255 -78 162 -248 261 -332 195z"/>
<path d="M3006 5155 c-78 -28 -139 -94 -175 -190 -60 -161 7 -295 147 -295 59
0 183 57 209 96 39 60 54 215 29 287 -18 50 -42 76 -91 98 -48 22 -67 23 -119
4z"/>
<path d="M4783 4759 c-17 -5 -44 -24 -58 -41 l-27 -32 5 -141 c6 -195 43 -308
130 -402 56 -61 109 -87 177 -87 149 -1 248 153 205 319 -29 109 -106 209
-238 308 -106 80 -137 92 -194 76z"/>
<path d="M2707 4220 c-104 -27 -206 -112 -227 -190 -26 -97 41 -211 153 -261
77 -34 208 -33 293 3 129 54 257 164 269 231 9 46 -8 97 -43 130 -63 60 -338
114 -445 87z"/>
<path d="M1074 4110 c-11 -4 -33 -22 -47 -40 -33 -39 -36 -100 -7 -147 24 -41
37 -47 147 -73 50 -12 99 -27 109 -35 18 -13 17 -15 -18 -29 -69 -29 -151 -46
-226 -46 -84 0 -124 -16 -147 -60 -32 -62 -14 -142 43 -185 24 -18 41 -20 142
-18 183 3 321 48 417 136 188 173 76 409 -231 487 -83 21 -147 25 -182 10z"/>
<path d="M4228 3765 c-116 -29 -208 -98 -256 -190 -22 -41 -27 -64 -27 -125 0
-87 19 -134 77 -192 65 -65 110 -83 213 -83 78 0 97 4 146 28 115 56 199 183
220 334 14 97 7 142 -28 177 -53 53 -233 80 -345 51z m62 -272 c0 -14 -34 -43
-52 -43 -22 0 -23 8 -1 32 15 17 53 25 53 11z"/>
<path d="M1634 3702 c-47 -30 -57 -66 -52 -189 4 -122 28 -189 89 -252 139
-144 344 -18 301 185 -32 154 -127 253 -257 269 -39 5 -57 2 -81 -13z"/>
<path d="M5190 3654 c-109 -29 -199 -106 -248 -212 -24 -50 -27 -70 -27 -157
0 -91 2 -104 27 -147 57 -96 136 -134 257 -126 130 10 238 84 297 204 25 50
29 71 29 139 0 103 -23 153 -104 231 -91 88 -123 97 -231 68z m40 -329 c-15
-27 -40 -34 -40 -11 0 16 40 49 49 41 2 -3 -2 -16 -9 -30z"/>
<path d="M3389 3363 c-44 -40 -145 -233 -156 -296 -9 -61 45 -127 105 -127 33
0 112 40 154 78 78 71 131 220 106 298 -17 51 -66 84 -124 84 -37 0 -51 -6
-85 -37z"/>
<path d="M2405 3119 c-101 -8 -225 -37 -324 -77 -122 -49 -518 -251 -580 -297
-182 -134 -309 -314 -345 -488 -21 -99 -20 -151 4 -267 28 -136 97 -271 191
-375 108 -118 433 -434 498 -483 70 -54 196 -115 281 -138 98 -26 253 -24 360
6 145 40 514 237 682 363 93 70 500 428 546 481 73 84 112 194 112 321 0 147
-42 271 -135 393 -62 83 -251 252 -345 309 -41 26 -91 61 -110 79 -75 69 -274
145 -425 163 -122 14 -301 19 -410 10z m330 -380 c90 -10 101 -13 222 -81 169
-93 240 -144 348 -253 131 -131 163 -214 114 -295 -64 -104 -470 -441 -664
-550 -249 -140 -385 -187 -509 -177 -125 11 -160 36 -427 299 -259 256 -280
286 -287 394 -11 175 108 333 309 409 41 16 155 69 254 120 188 96 264 121
395 135 113 11 142 11 245 -1z"/>
<path d="M394 2216 c-43 -43 -43 -65 0 -194 98 -289 243 -465 414 -501 146
-30 262 67 249 209 -13 149 -147 288 -431 448 -150 86 -180 90 -232 38z m411
-454 c-7 -7 -33 17 -57 52 -19 28 -17 27 20 -8 23 -22 40 -42 37 -44z"/>
<path d="M4620 1805 c-19 -9 -43 -23 -53 -32 -14 -14 -22 -15 -36 -6 -59 37
-146 22 -186 -31 -21 -28 -25 -43 -25 -107 0 -144 64 -381 118 -443 22 -24 90
-55 121 -56 14 0 44 9 68 21 64 31 94 101 138 323 40 206 42 239 15 283 -32
54 -100 74 -160 48z"/>
</g>
</svg>
