<?xml version="1.0" standalone="no"?>
<!DOCTYPE svg PUBLIC "-//W3C//DTD SVG 20010904//EN"
 "http://www.w3.org/TR/2001/REC-SVG-20010904/DTD/svg10.dtd">
<svg version="1.0" xmlns="http://www.w3.org/2000/svg"
 width="600.000000pt" height="600.000000pt" viewBox="0 0 600.000000 600.000000"
 preserveAspectRatio="xMidYMid meet">
<metadata>
Created by potrace 1.15, written by Peter Selinger 2001-2017
</metadata>
<g transform="translate(0.000000,600.000000) scale(0.100000,-0.100000)"
fill="#16364b" stroke="none">
<path d="M3006 5497 c-54 -30 -78 -79 -73 -141 4 -45 9 -53 66 -105 36 -33 68
-73 77 -96 22 -54 22 -167 -1 -238 -24 -76 -17 -137 22 -185 58 -71 154 -78
223 -16 81 74 125 293 85 429 -55 192 -211 375 -319 375 -24 0 -57 -10 -80
-23z"/>
<path d="M2033 5439 c-70 -21 -109 -105 -93 -201 18 -114 77 -184 195 -233 87
-36 100 -47 120 -99 12 -34 65 -297 65 -326 0 -22 64 -80 98 -90 75 -20 159
28 180 103 10 37 -12 217 -43 355 -34 145 -115 250 -232 303 -98 44 -97 43
-104 77 -18 88 -100 138 -186 111z"/>
<path d="M1460 4771 c-97 -14 -149 -55 -171 -133 -13 -49 -4 -93 27 -135 35
-46 82 -57 191 -42 48 6 142 9 208 7 101 -4 135 -10 211 -37 50 -17 108 -31
129 -31 79 0 155 75 155 152 0 80 -81 140 -265 194 -79 23 -111 27 -260 30
-93 1 -195 -1 -225 -5z"/>
<path d="M4330 4647 c-50 -26 -80 -75 -80 -130 0 -51 12 -70 86 -145 81 -82
128 -173 165 -320 31 -124 45 -152 84 -178 61 -40 137 -26 188 36 40 47 43 90
17 205 -51 228 -172 435 -307 524 -56 37 -94 39 -153 8z"/>
<path d="M3178 4467 c-15 -7 -65 -48 -110 -93 -139 -135 -233 -211 -384 -311
-80 -53 -152 -105 -159 -117 -26 -41 -27 -88 -3 -136 30 -58 84 -90 154 -90
44 0 59 6 110 42 191 136 544 440 584 504 43 68 14 156 -64 193 -47 23 -88 26
-128 8z"/>
<path d="M1686 4359 c-75 -18 -136 -87 -136 -155 0 -48 38 -113 79 -133 65
-34 297 -66 476 -66 190 0 224 6 272 48 88 78 84 215 -9 263 -29 15 -44 16
-139 5 -129 -15 -181 -10 -484 43 -11 2 -38 -1 -59 -5z"/>
<path d="M3793 3969 c-18 -5 -93 -50 -169 -100 -206 -137 -318 -198 -607 -333
-43 -21 -63 -38 -82 -70 -30 -51 -33 -124 -8 -167 19 -32 68 -59 108 -59 71 0
579 243 780 373 150 97 175 126 175 202 0 108 -97 184 -197 154z"/>
<path d="M2215 3772 c-92 -23 -119 -25 -340 -27 -153 -1 -247 -5 -260 -12 -56
-31 -89 -104 -76 -166 27 -117 142 -154 448 -144 245 8 435 54 481 117 61 82
23 193 -83 241 -49 23 -47 23 -170 -9z"/>
<path d="M5024 3632 c-55 -26 -111 -95 -130 -160 -13 -44 -14 -70 -5 -150 18
-173 -13 -304 -108 -446 -25 -38 -115 -158 -199 -265 -83 -108 -160 -212 -169
-231 -10 -21 -17 -59 -17 -95 -1 -169 183 -283 337 -210 37 17 48 31 354 431
122 159 180 260 212 369 58 196 54 531 -7 655 -49 100 -172 146 -268 102z"/>
<path d="M1987 3126 c-66 -24 -97 -67 -97 -133 2 -130 134 -195 445 -219 50
-3 105 -13 124 -20 95 -39 195 8 221 105 21 78 -20 139 -122 186 -45 21 -87
29 -209 40 -83 8 -182 24 -219 35 -78 23 -92 24 -143 6z"/>
<path d="M4398 3126 c-20 -7 -65 -39 -100 -71 -78 -72 -215 -163 -332 -222
-117 -59 -246 -91 -433 -107 -167 -15 -201 -26 -240 -86 -30 -43 -31 -121 -3
-167 40 -67 102 -78 305 -53 227 28 306 53 530 169 242 125 433 260 470 332
59 114 -72 251 -197 205z"/>
<path d="M1395 2946 c-43 -19 -92 -78 -106 -128 -16 -58 -5 -316 21 -478 22
-143 78 -378 111 -465 44 -118 127 -233 190 -266 78 -39 185 -17 242 50 59 70
59 156 0 243 -54 82 -79 137 -113 249 -56 191 -71 280 -77 483 l-6 188 -31 46
c-54 79 -152 112 -231 78z"/>
<path d="M2070 2335 c-102 -46 -130 -146 -63 -226 35 -41 57 -48 166 -54 109
-6 150 -18 197 -54 55 -43 75 -51 129 -51 46 0 55 4 95 43 79 76 73 164 -17
252 -81 79 -139 97 -322 102 -121 3 -157 0 -185 -12z"/>
<path d="M4100 2089 c-165 -50 -280 -77 -440 -104 -85 -14 -230 -43 -321 -65
-163 -39 -335 -70 -394 -70 -126 0 -214 -97 -203 -224 6 -76 41 -126 113 -161
52 -26 60 -27 143 -21 142 12 208 24 387 76 94 26 236 62 317 79 81 18 214 52
295 77 80 24 184 52 229 61 102 20 152 47 181 98 55 98 8 225 -99 270 -52 21
-98 18 -208 -16z"/>
<path d="M4815 1696 c-23 -13 -63 -52 -89 -85 -72 -89 -161 -155 -267 -196
-84 -33 -458 -137 -651 -180 -286 -65 -297 -70 -334 -149 -62 -134 10 -281
145 -293 101 -10 862 208 1045 298 102 51 183 109 277 201 108 105 131 143
132 216 1 116 -67 202 -166 209 -42 3 -60 -1 -92 -21z"/>
<path d="M2096 1580 c-57 -18 -106 -83 -106 -140 0 -109 221 -338 416 -430 73
-34 167 -60 219 -60 73 0 146 64 160 140 8 46 -28 118 -71 142 -17 10 -66 27
-108 38 -135 34 -235 104 -314 220 -55 79 -126 112 -196 90z"/>
<path d="M2046 975 c-43 -15 -91 -57 -112 -97 -8 -15 -14 -55 -14 -90 0 -84
27 -129 112 -193 160 -120 270 -168 498 -216 85 -17 323 -23 423 -10 104 14
261 53 312 77 53 25 88 83 93 154 10 139 -82 239 -195 211 -21 -5 -83 -22
-138 -37 -88 -23 -119 -27 -255 -28 -136 -1 -164 2 -230 22 -91 29 -201 86
-280 147 -57 44 -124 75 -159 75 -9 -1 -33 -7 -55 -15z"/>
</g>
</svg>
