<?xml version="1.0" standalone="no"?>
<!DOCTYPE svg PUBLIC "-//W3C//DTD SVG 20010904//EN"
 "http://www.w3.org/TR/2001/REC-SVG-20010904/DTD/svg10.dtd">
<svg version="1.0" xmlns="http://www.w3.org/2000/svg"
 width="600.000000pt" height="600.000000pt" viewBox="0 0 600.000000 600.000000"
 preserveAspectRatio="xMidYMid meet">
<metadata>
Created by potrace 1.15, written by Peter Selinger 2001-2017
</metadata>
<g transform="translate(0.000000,600.000000) scale(0.100000,-0.100000)"
fill="#16364b" stroke="none">
<path d="M1534 5786 c-34 -15 -89 -77 -211 -238 -128 -170 -143 -210 -103
-275 29 -48 65 -67 124 -67 63 1 111 21 334 143 182 99 202 117 202 181 0 46
-27 90 -66 106 -39 16 -69 11 -128 -22 -55 -32 -60 -30 -31 12 67 99 -16 208
-121 160z"/>
<path d="M2393 5435 c-53 -23 -60 -45 -67 -210 -9 -232 -36 -371 -96 -500 -43
-94 -94 -145 -192 -193 -81 -41 -107 -80 -88 -138 14 -40 60 -74 103 -74 61 0
219 101 289 186 121 147 198 439 198 754 0 135 -9 161 -62 179 -39 14 -46 13
-85 -4z"/>
<path d="M3518 5330 c-31 -24 -53 -96 -43 -141 14 -69 73 -174 130 -231 66
-66 107 -88 167 -88 50 0 82 18 103 60 31 61 16 118 -61 236 -61 93 -108 138
-171 165 -57 24 -94 24 -125 -1z"/>
<path d="M3002 5125 c-88 -27 -160 -109 -187 -212 -38 -143 37 -248 174 -246
41 1 72 11 130 40 74 37 77 40 100 98 18 43 25 79 25 130 0 100 -34 155 -116
190 -44 18 -69 18 -126 0z"/>
<path d="M4765 4760 c-11 -4 -31 -20 -45 -35 -24 -26 -25 -32 -24 -148 1 -136
18 -222 62 -320 104 -228 329 -262 437 -66 26 47 29 65 30 134 0 67 -5 89 -27
135 -32 65 -124 159 -223 228 -117 82 -156 95 -210 72z m219 -406 c3 -8 2 -12
-4 -9 -6 3 -10 10 -10 16 0 14 7 11 14 -7z"/>
<path d="M2679 4214 c-77 -23 -140 -72 -172 -134 -25 -47 -28 -63 -24 -113 9
-105 82 -190 190 -222 141 -42 299 9 434 140 82 80 102 126 83 193 -18 70 -61
92 -260 137 -81 18 -191 18 -251 -1z"/>
<path d="M1074 4096 c-62 -27 -98 -107 -74 -165 23 -56 61 -80 165 -107 105
-27 139 -40 130 -54 -17 -27 -215 -64 -291 -53 -44 6 -86 -10 -117 -45 -50
-55 -20 -168 55 -202 52 -24 71 -24 207 -5 257 37 392 111 427 233 51 175 -67
305 -350 387 -101 29 -110 29 -152 11z"/>
<path d="M4230 3777 c-114 -33 -205 -109 -256 -214 -24 -48 -29 -71 -29 -135
0 -69 3 -80 30 -119 56 -80 163 -129 280 -129 57 1 144 33 198 74 74 57 137
184 152 308 9 76 0 120 -31 151 -56 56 -248 92 -344 64z m80 -274 c0 -3 -7
-15 -17 -25 -20 -23 -55 -25 -46 -2 8 20 63 44 63 27z"/>
<path d="M1629 3662 c-26 -24 -32 -38 -42 -105 -28 -193 59 -351 201 -365 65
-6 111 10 156 55 90 90 82 240 -20 353 -56 61 -119 90 -199 90 -57 0 -69 -3
-96 -28z"/>
<path d="M5180 3652 c-123 -33 -208 -102 -259 -211 -22 -47 -26 -70 -26 -141
0 -99 22 -155 87 -221 64 -64 110 -84 203 -84 68 0 88 5 134 29 68 35 141 111
177 184 25 50 28 69 29 147 0 73 -4 98 -22 130 -20 39 -104 128 -150 160 -34
24 -101 27 -173 7z m60 -312 c0 -5 -10 -20 -22 -32 -22 -22 -23 -22 -26 -4 -3
11 4 26 14 33 21 16 34 17 34 3z"/>
<path d="M3427 3365 c-15 -8 -33 -20 -40 -27 -51 -52 -157 -255 -157 -299 0
-13 9 -38 20 -56 41 -68 145 -60 235 19 49 43 103 152 112 226 13 112 -78 185
-170 137z"/>
<path d="M2426 3129 c-167 -22 -288 -64 -535 -187 -97 -48 -204 -100 -238
-116 -88 -39 -177 -99 -245 -164 -76 -72 -116 -127 -166 -227 -130 -259 -118
-529 34 -755 52 -78 473 -495 584 -578 193 -144 440 -180 700 -100 246 75 726
419 942 674 137 163 179 219 215 294 33 67 37 84 41 176 4 86 1 114 -18 175
-60 199 -205 390 -405 534 -22 16 -67 57 -100 90 -88 89 -230 156 -389 184
-70 13 -321 12 -420 0z m417 -418 c45 -26 120 -70 167 -97 102 -59 290 -238
339 -324 38 -68 42 -137 10 -190 -35 -57 -154 -194 -245 -280 -90 -85 -259
-215 -334 -257 -25 -14 -74 -45 -110 -68 -173 -113 -274 -149 -398 -144 -91 5
-161 35 -233 101 -26 24 -104 95 -175 159 -263 238 -314 303 -329 420 -8 67
15 172 52 241 42 77 129 151 215 183 136 51 192 77 353 160 221 115 313 141
508 144 l98 1 82 -49z"/>
<path d="M374 2206 c-43 -43 -44 -82 -8 -192 62 -186 158 -321 305 -429 75
-55 144 -79 215 -73 66 6 100 28 134 89 19 34 25 58 24 105 -1 157 -146 310
-442 468 -148 79 -177 83 -228 32z m389 -405 c16 -15 34 -35 40 -46 16 -30
-50 22 -82 66 -28 37 -14 30 42 -20z"/>
<path d="M4594 1820 c-16 -5 -41 -21 -53 -34 l-23 -25 -37 20 c-68 36 -153 16
-191 -46 -36 -58 -20 -247 37 -424 44 -140 124 -202 223 -172 96 28 145 133
201 426 24 126 24 160 -1 200 -29 47 -99 71 -156 55z"/>
</g>
</svg>
