<?xml version="1.0" standalone="no"?>
<!DOCTYPE svg PUBLIC "-//W3C//DTD SVG 20010904//EN"
 "http://www.w3.org/TR/2001/REC-SVG-20010904/DTD/svg10.dtd">
<svg version="1.0" xmlns="http://www.w3.org/2000/svg"
 width="600.000000pt" height="600.000000pt" viewBox="0 0 600.000000 600.000000"
 preserveAspectRatio="xMidYMid meet">
<metadata>
Created by potrace 1.15, written by Peter Selinger 2001-2017
</metadata>
<g transform="translate(0.000000,600.000000) scale(0.100000,-0.100000)"
fill="#16364b" stroke="none">
<path d="M2868 5560 c-28 -15 -44 -35 -68 -85 -49 -103 -70 -174 -77 -257 -7
-95 11 -151 69 -214 58 -63 113 -79 267 -77 67 1 132 5 143 9 32 10 18 -9 -57
-73 -69 -59 -405 -396 -462 -463 -77 -91 -73 -150 18 -253 41 -47 108 -68 380
-122 101 -19 236 -47 299 -62 196 -44 229 -43 279 8 71 71 51 187 -40 235 -43
22 -241 69 -419 100 -85 14 -159 31 -165 36 -17 17 259 276 429 402 153 114
187 151 201 213 15 75 -44 172 -134 217 -84 42 -144 51 -333 49 -101 0 -178 3
-178 8 0 5 18 49 40 99 46 102 47 139 3 191 -51 61 -125 75 -195 39z"/>
<path d="M1570 5291 c-224 -71 -531 -419 -630 -713 -28 -85 -22 -144 21 -192
58 -66 111 -70 329 -21 140 31 300 44 300 25 0 -7 -29 -81 -64 -164 -91 -216
-98 -241 -82 -313 6 -27 5 -33 -9 -33 -28 0 -82 -63 -95 -109 -26 -97 48 -191
150 -191 84 0 585 222 635 281 88 105 19 249 -120 249 -34 0 -68 -11 -136 -46
-50 -25 -93 -43 -96 -40 -3 3 16 54 42 113 73 164 88 210 89 288 1 121 -60
208 -180 256 -53 21 -75 24 -206 24 -172 -1 -168 -7 -55 112 71 75 156 140
230 178 71 36 100 101 78 175 -27 89 -121 146 -201 121z"/>
<path d="M4515 4589 c-33 -4 -90 -17 -125 -29 -87 -29 -265 -105 -316 -135
-121 -71 -84 -253 55 -272 32 -4 57 4 152 50 133 65 219 100 219 89 0 -19
-177 -362 -249 -482 -89 -148 -96 -176 -62 -243 19 -37 105 -122 145 -143 29
-16 79 -22 301 -39 105 -8 198 -17 207 -20 16 -6 16 -10 -1 -53 -11 -26 -67
-141 -127 -257 -90 -176 -108 -217 -108 -257 -1 -50 18 -85 68 -122 37 -28
116 -28 154 1 47 35 288 498 317 608 38 148 0 261 -108 317 -48 24 -139 41
-337 63 -85 9 -158 20 -162 23 -3 4 12 39 34 77 100 172 216 413 233 483 37
153 0 262 -105 314 -65 31 -104 37 -185 27z"/>
<path d="M3739 3671 c-68 -26 -112 -64 -143 -122 -72 -132 -23 -272 96 -272
54 0 105 26 126 64 21 35 28 36 36 5 14 -58 -56 -230 -102 -247 -165 -63 -315
-171 -346 -250 -33 -82 24 -174 121 -194 51 -10 108 12 169 65 65 57 128 83
269 112 113 23 144 36 174 74 35 45 38 91 8 149 l-26 50 19 70 c33 123 22 233
-33 338 -76 145 -232 211 -368 158z"/>
<path d="M2540 3563 c-62 -7 -203 -45 -280 -74 -166 -65 -220 -112 -220 -196
0 -84 57 -154 137 -169 25 -5 54 4 130 39 134 62 197 80 273 81 l65 1 -2 -58
c-3 -101 -64 -263 -149 -402 -44 -71 -49 -86 -49 -137 0 -50 4 -61 32 -90 l32
-33 -39 -33 c-25 -21 -44 -47 -52 -73 -35 -120 87 -252 219 -236 27 3 109 22
183 42 221 59 300 75 300 60 0 -16 -21 -67 -71 -173 -56 -121 -53 -190 14
-260 88 -92 225 -97 290 -11 31 42 111 252 137 362 41 171 19 309 -64 392
-112 111 -237 121 -525 39 -68 -19 -127 -34 -132 -32 -4 2 8 30 28 62 50 82
140 284 163 370 43 154 33 267 -32 369 -73 114 -231 179 -388 160z"/>
<path d="M1181 3289 c-103 -20 -289 -136 -329 -204 -33 -57 -28 -148 11 -199
45 -58 97 -79 180 -73 l69 4 -6 -51 c-4 -28 -23 -138 -42 -245 -62 -342 -80
-558 -54 -651 11 -41 61 -94 103 -109 41 -16 162 -13 202 3 36 15 44 26 152
191 53 80 315 425 427 560 23 28 25 29 31 10 4 -11 12 -33 17 -48 18 -47 1
-237 -37 -422 -64 -307 -75 -377 -76 -477 -2 -90 0 -101 25 -138 27 -41 66
-67 107 -71 65 -6 83 1 131 51 45 47 48 49 48 24 0 -14 20 -105 44 -202 25
-98 57 -231 71 -297 39 -177 71 -267 119 -333 93 -125 189 -184 315 -190 62
-4 84 0 145 24 62 24 82 39 153 113 66 69 88 100 114 161 84 202 216 404 291
444 33 18 35 18 75 -2 22 -12 62 -38 89 -58 138 -106 163 -124 214 -150 48
-25 66 -28 145 -29 81 0 95 3 143 30 66 36 135 111 158 170 9 25 21 45 26 45
16 0 67 93 73 134 4 27 -1 71 -15 126 -11 47 -23 124 -27 172 l-6 87 28 11
c15 6 96 15 180 20 188 12 243 22 323 60 121 56 182 123 223 241 31 92 32 265
1 325 -77 151 -244 171 -360 44 -34 -35 -72 -119 -72 -156 l0 -31 -172 -6
c-101 -4 -199 -12 -236 -21 -78 -20 -191 -76 -241 -121 -47 -42 -94 -129 -115
-211 -27 -105 -16 -353 20 -468 6 -19 5 -19 -14 -6 -209 152 -290 186 -432
184 -233 -4 -390 -158 -615 -603 -52 -102 -77 -133 -90 -111 -17 28 -48 137
-69 249 -88 445 -94 468 -145 514 -82 74 -195 71 -275 -6 -24 -23 -46 -49 -48
-57 -3 -8 -8 -13 -11 -10 -6 6 8 99 46 320 74 423 50 910 -51 1024 -24 27
-111 66 -148 66 -128 0 -259 -107 -478 -393 -32 -43 -60 -76 -62 -74 -2 2 6
48 17 103 31 154 51 350 43 424 -15 147 -87 252 -195 284 -58 17 -73 18 -138
5z"/>
</g>
</svg>
