<?xml version="1.0" standalone="no"?>
<!DOCTYPE svg PUBLIC "-//W3C//DTD SVG 20010904//EN"
 "http://www.w3.org/TR/2001/REC-SVG-20010904/DTD/svg10.dtd">
<svg version="1.0" xmlns="http://www.w3.org/2000/svg"
 width="600.000000pt" height="600.000000pt" viewBox="0 0 600.000000 600.000000"
 preserveAspectRatio="xMidYMid meet">
<metadata>
Created by potrace 1.15, written by Peter Selinger 2001-2017
</metadata>
<g transform="translate(0.000000,600.000000) scale(0.100000,-0.100000)"
fill="#16364b" stroke="none">
<path d="M3070 5071 c-79 -24 -127 -72 -161 -161 -54 -143 24 -227 142 -152
147 94 197 273 88 311 -36 12 -34 12 -69 2z m50 -76 c10 -12 10 -24 2 -53 -18
-58 -103 -142 -145 -142 -17 0 -19 5 -15 45 7 54 47 118 91 145 39 24 51 25
67 5z"/>
<path d="M4753 4726 l-28 -24 -3 -269 c-2 -147 -1 -283 3 -301 8 -46 45 -68
93 -56 71 17 80 72 75 457 -3 162 -5 179 -23 197 -28 28 -82 26 -117 -4z"/>
<path d="M1715 4393 c-123 -27 -192 -103 -202 -222 -8 -89 5 -125 91 -244 19
-26 48 -83 65 -126 82 -212 117 -448 131 -874 5 -158 12 -292 15 -297 4 -6 11
-133 16 -283 14 -415 38 -556 116 -712 120 -237 289 -365 542 -409 56 -10 75
-17 72 -27 -2 -8 -6 -62 -8 -120 -7 -130 10 -236 73 -458 24 -85 42 -156 39
-159 -3 -3 -47 -6 -98 -7 -51 -1 -104 -8 -117 -15 -68 -34 -80 -102 -27 -154
40 -41 100 -52 188 -36 121 22 195 76 221 161 13 46 13 50 -60 285 -22 72 -46
165 -52 207 -14 84 -9 272 7 288 6 6 57 6 149 -2 143 -12 299 -9 534 11 74 6
166 10 205 8 l70 -3 -5 -40 c-17 -134 19 -417 75 -592 38 -120 37 -123 -66
-123 -99 0 -159 -39 -159 -102 0 -98 108 -133 252 -82 101 35 168 112 168 193
0 23 -16 94 -35 159 -71 241 -99 441 -75 540 l12 52 46 0 c66 0 233 26 321 50
97 27 308 113 385 158 132 76 268 247 309 389 75 253 -45 615 -241 730 -97 57
-154 67 -587 98 -165 12 -233 22 -320 45 -285 75 -542 188 -695 304 -246 185
-466 440 -686 796 -135 219 -191 295 -301 412 -98 104 -141 142 -193 168 -31
16 -130 42 -148 39 -4 -1 -16 -3 -27 -6z m92 -168 c21 -9 87 -67 157 -138 124
-124 175 -194 331 -447 244 -394 560 -724 855 -890 170 -96 451 -196 655 -235
39 -7 138 -18 220 -25 289 -22 473 -48 528 -73 91 -41 150 -120 198 -262 20
-58 24 -90 24 -185 0 -112 -1 -117 -38 -194 -67 -141 -178 -231 -383 -310
-195 -75 -359 -102 -724 -116 -140 -6 -313 -15 -385 -20 -133 -10 -382 3 -417
21 -9 5 -43 9 -75 9 -96 0 -243 19 -323 41 -102 28 -168 68 -239 145 -140 153
-189 342 -206 799 -4 94 -13 226 -21 295 -8 69 -17 229 -20 355 -6 273 -18
409 -49 565 -48 232 -102 379 -176 477 -53 71 -64 103 -50 146 18 54 70 70
138 42z"/>
<path d="M2472 2584 c-26 -18 -30 -65 -6 -88 32 -33 54 -38 80 -21 49 32 53
93 8 114 -34 15 -55 14 -82 -5z"/>
<path d="M2926 2299 c-33 -26 -33 -53 0 -84 34 -31 64 -32 92 -2 29 30 28 71
0 91 -31 22 -60 20 -92 -5z"/>
<path d="M5245 3976 c-55 -17 -80 -32 -127 -74 -79 -72 -110 -185 -84 -311 41
-195 194 -302 374 -261 160 37 269 164 280 326 5 81 -7 129 -49 190 -32 46
-116 111 -169 130 -45 17 -173 16 -225 0z m163 -311 c11 -10 -32 -46 -52 -43
-15 2 -22 12 -24 32 -4 28 -3 29 33 23 21 -3 40 -9 43 -12z"/>
<path d="M4184 3729 c-67 -26 -132 -83 -169 -150 -27 -49 -30 -63 -30 -144 0
-76 4 -97 25 -139 107 -209 420 -183 523 43 46 99 16 277 -57 343 -70 64 -195
85 -292 47z m126 -262 c0 -28 -17 -47 -42 -47 -23 0 -23 11 3 44 25 32 39 33
39 3z"/>
<path d="M5350 1108 c-40 -21 -75 -102 -75 -176 0 -60 2 -65 34 -94 28 -25 39
-29 69 -24 73 11 115 81 116 193 1 51 -3 66 -20 83 -26 26 -90 35 -124 18z"/>
</g>
</svg>
