<?xml version="1.0" standalone="no"?>
<!DOCTYPE svg PUBLIC "-//W3C//DTD SVG 20010904//EN"
 "http://www.w3.org/TR/2001/REC-SVG-20010904/DTD/svg10.dtd">
<svg version="1.0" xmlns="http://www.w3.org/2000/svg"
 width="600.000000pt" height="600.000000pt" viewBox="0 0 600.000000 600.000000"
 preserveAspectRatio="xMidYMid meet">
<metadata>
Created by potrace 1.15, written by Peter Selinger 2001-2017
</metadata>
<g transform="translate(0.000000,600.000000) scale(0.100000,-0.100000)"
fill="#16364b" stroke="none">
<path d="M1989 5828 c-21 -5 -46 -19 -57 -31 -38 -42 -367 -543 -406 -618 -60
-118 -52 -208 24 -272 79 -67 179 -45 403 87 40 24 135 76 212 116 186 97 271
152 289 188 59 114 -12 234 -137 234 -47 0 -85 -17 -194 -83 -36 -22 -67 -38
-70 -35 -3 3 15 31 40 63 79 104 107 154 107 196 0 104 -106 182 -211 155z"/>
<path d="M3022 5690 c-38 -24 -71 -88 -72 -141 0 -66 32 -97 182 -174 167 -85
236 -131 309 -205 94 -93 158 -251 129 -319 -13 -32 -94 -81 -134 -81 -12 0
-39 -9 -62 -19 -56 -25 -88 -79 -89 -147 0 -60 21 -97 75 -128 29 -17 40 -18
94 -9 188 33 333 138 387 281 41 109 15 282 -66 442 -93 183 -252 323 -527
461 -130 65 -171 72 -226 39z"/>
<path d="M950 5407 c-194 -46 -326 -201 -350 -415 -17 -158 24 -295 122 -398
120 -128 233 -147 311 -55 61 72 45 158 -44 241 -32 30 -65 72 -74 92 -32 79
-9 175 51 210 16 9 56 24 88 32 78 21 104 39 127 89 24 53 24 71 -1 121 -38
78 -121 108 -230 83z"/>
<path d="M2840 5061 c-151 -49 -242 -217 -210 -387 34 -178 168 -263 371 -235
79 11 111 28 147 82 20 28 23 43 20 92 -4 48 -9 63 -35 89 -30 29 -30 31 -15
61 34 67 10 155 -61 228 -58 60 -154 91 -217 70z"/>
<path d="M4795 4904 c-40 -21 -74 -53 -92 -89 -13 -24 -15 -54 -10 -165 11
-230 50 -352 141 -438 119 -113 259 -106 392 19 106 101 132 232 71 363 -50
109 -205 240 -354 302 -68 28 -107 30 -148 8z"/>
<path d="M1955 4711 c-140 -38 -245 -134 -245 -227 0 -121 144 -197 245 -128
79 54 103 50 125 -19 28 -88 109 -139 188 -118 37 11 89 56 111 98 28 54 2
172 -55 254 -29 42 -105 96 -171 122 -50 20 -156 29 -198 18z"/>
<path d="M2932 3960 c-85 -28 -156 -88 -201 -170 -34 -61 -36 -70 -36 -155 0
-78 4 -97 27 -140 53 -102 168 -178 316 -211 40 -9 89 -14 109 -11 170 28 168
289 -3 312 -98 13 -161 51 -124 75 33 22 65 22 134 0 61 -19 77 -20 113 -11
106 29 149 170 75 249 -68 72 -278 104 -410 62z"/>
<path d="M1234 3961 c-80 -13 -253 -70 -295 -98 -44 -29 -89 -109 -89 -158 0
-118 99 -213 211 -203 27 3 49 2 49 -2 0 -7 -15 -30 -188 -272 -178 -250 -226
-336 -287 -509 -46 -127 -50 -202 -17 -266 12 -23 34 -50 49 -61 38 -27 108
-45 146 -37 38 8 117 52 117 65 0 5 62 57 138 116 208 163 405 321 527 422 61
51 113 92 118 92 12 0 8 -94 -8 -170 -21 -99 -51 -185 -140 -400 -103 -248
-171 -390 -249 -518 -77 -128 -84 -155 -58 -215 37 -84 126 -119 200 -77 70
39 208 293 435 796 68 149 112 280 133 393 22 117 16 397 -10 456 -25 58 -64
93 -121 110 -114 35 -246 -20 -453 -189 -46 -37 -85 -66 -87 -64 -2 2 29 55
71 117 151 230 184 303 184 410 0 176 -169 294 -376 262z"/>
<path d="M4188 3765 c-185 -46 -297 -177 -285 -331 8 -113 81 -224 181 -277
34 -18 58 -22 136 -22 84 0 101 3 145 27 65 34 171 146 213 225 18 35 46 101
63 148 25 73 28 92 19 124 -10 38 -45 78 -90 102 -37 20 -308 23 -382 4z m72
-311 c-21 -24 -51 -37 -62 -26 -12 12 28 42 55 42 17 0 17 -2 7 -16z"/>
<path d="M3415 3391 c-44 -20 -90 -66 -122 -121 -29 -49 -83 -206 -83 -240 0
-60 36 -117 95 -148 46 -24 202 -18 266 9 95 41 151 135 152 253 0 116 -48
201 -137 242 -61 29 -117 30 -171 5z"/>
<path d="M4941 3009 c-32 -13 -95 -65 -163 -134 -164 -168 -195 -371 -73 -484
69 -64 142 -76 247 -40 116 39 211 118 251 208 28 64 34 172 13 245 -14 46
-30 72 -79 123 -82 87 -132 108 -196 82z"/>
<path d="M4043 2589 c-53 -13 -127 -78 -154 -136 -35 -77 -35 -133 0 -276 17
-71 31 -132 31 -137 0 -5 -26 3 -57 17 -84 38 -204 44 -267 13 -110 -53 -176
-177 -176 -329 0 -185 102 -549 177 -631 90 -101 246 -108 341 -17 79 76 95
148 58 275 -14 50 -26 93 -26 96 0 4 19 -8 42 -24 53 -39 138 -64 186 -55 126
24 224 92 272 189 31 63 32 69 28 163 -4 88 -12 118 -71 293 -36 107 -78 242
-93 300 -15 58 -33 119 -40 137 -21 50 -81 101 -137 118 -56 17 -55 17 -114 4z"/>
<path d="M2039 2169 c-25 -4 -65 -19 -87 -33 -82 -52 -204 -227 -218 -314 -13
-80 37 -163 119 -197 20 -8 37 -19 37 -23 -1 -4 -21 -20 -46 -36 -53 -33 -134
-128 -168 -195 -52 -102 -70 -187 -71 -326 0 -108 4 -142 23 -205 31 -98 75
-176 159 -280 130 -160 284 -263 441 -295 41 -8 125 -15 190 -15 185 0 305 34
439 123 91 61 206 167 227 211 20 42 21 128 1 165 -14 28 -60 73 -87 85 -10 5
-10 7 1 12 39 18 103 93 139 162 37 71 157 405 219 610 83 274 -39 494 -282
510 -135 8 -272 -39 -538 -186 -81 -45 -151 -82 -156 -82 -5 0 -12 17 -16 37
-35 188 -166 298 -326 272z m945 -466 c-17 -72 -143 -392 -201 -513 -62 -129
-65 -137 -60 -193 6 -67 23 -96 78 -136 35 -26 38 -30 20 -36 -11 -3 -54 -37
-95 -74 -121 -110 -220 -144 -353 -123 -34 6 -85 22 -115 37 -80 39 -177 123
-209 180 -76 136 -73 306 7 380 44 41 67 33 104 -32 77 -138 146 -189 246
-181 66 6 119 43 146 106 33 73 21 127 -49 224 -60 84 -61 81 100 184 169 109
240 149 316 180 71 30 73 30 65 -3z"/>
</g>
</svg>
