<?xml version="1.0" standalone="no"?>
<!DOCTYPE svg PUBLIC "-//W3C//DTD SVG 20010904//EN"
 "http://www.w3.org/TR/2001/REC-SVG-20010904/DTD/svg10.dtd">
<svg version="1.0" xmlns="http://www.w3.org/2000/svg"
 width="600.000000pt" height="600.000000pt" viewBox="0 0 600.000000 600.000000"
 preserveAspectRatio="xMidYMid meet">
<metadata>
Created by potrace 1.15, written by Peter Selinger 2001-2017
</metadata>
<g transform="translate(0.000000,600.000000) scale(0.100000,-0.100000)"
fill="#16364b" stroke="none">
<path d="M1935 4903 c-56 -22 -125 -77 -157 -125 -50 -74 -61 -159 -32 -245
35 -102 54 -232 64 -428 28 -569 35 -814 34 -1170 -1 -353 -2 -393 -19 -424
-9 -19 -41 -100 -70 -180 -61 -166 -106 -274 -159 -378 -20 -40 -36 -82 -36
-93 0 -11 -4 -20 -9 -20 -5 0 -8 -24 -7 -52 2 -51 3 -53 29 -50 23 2 27 -1 27
-23 0 -15 6 -25 14 -25 18 0 85 90 83 110 -1 8 34 86 78 174 l80 159 7 -69
c23 -216 31 -265 50 -329 78 -265 237 -404 556 -489 l86 -23 -4 -44 c-3 -24
-5 -105 -4 -179 1 -147 25 -270 85 -433 16 -43 29 -82 29 -86 0 -5 -36 -11
-79 -14 -106 -8 -143 -25 -166 -73 -17 -37 -17 -39 1 -73 52 -95 287 -70 376
41 43 53 42 108 -4 223 -73 180 -105 373 -88 525 5 46 14 88 18 92 6 6 27 5
53 -2 32 -9 163 -11 479 -9 430 4 435 4 432 -16 -12 -66 -13 -247 -2 -318 11
-77 56 -235 96 -339 10 -26 15 -50 11 -55 -5 -4 -49 -10 -100 -13 -56 -3 -101
-11 -115 -20 -45 -29 -45 -116 -1 -152 103 -85 354 2 390 134 13 49 7 76 -43
203 -86 221 -117 414 -84 528 17 57 17 57 56 57 91 0 435 61 520 93 131 48
235 147 305 292 59 121 78 204 78 340 -1 240 -83 454 -232 603 -29 29 -48 52
-43 52 5 0 46 -14 92 -30 46 -17 85 -30 87 -30 1 0 3 -7 3 -15 0 -12 15 -15
79 -15 l78 0 1 63 1 63 -49 17 c-31 11 -50 24 -50 33 0 12 -6 15 -23 10 -16
-4 -99 19 -233 63 -115 38 -272 86 -349 107 -121 32 -152 45 -231 95 -50 31
-162 93 -250 136 -87 43 -193 101 -234 127 -100 65 -355 262 -457 354 -181
162 -331 415 -463 782 -46 127 -53 144 -158 369 -27 58 -118 148 -184 181 -52
25 -72 30 -132 29 -40 0 -88 -7 -111 -16z m162 -154 c59 -22 134 -116 158
-199 4 -14 18 -41 30 -60 13 -19 58 -118 100 -219 209 -508 274 -624 449 -796
76 -74 159 -140 326 -256 259 -180 322 -220 462 -290 111 -56 241 -132 273
-159 11 -10 90 -55 175 -100 315 -168 415 -252 496 -415 91 -185 97 -436 15
-609 -60 -124 -153 -200 -282 -230 -125 -29 -354 -66 -443 -71 -128 -8 -1020
12 -1143 25 -131 13 -309 58 -398 101 -126 59 -209 167 -250 324 -36 139 -57
459 -66 1015 -21 1328 -28 1480 -84 1694 -30 116 -31 141 -5 184 38 62 116 88
187 61z"/>
<path d="M2610 2711 c-17 -33 -11 -58 21 -85 37 -32 52 -32 79 -4 24 26 26 70
4 92 -23 23 -91 21 -104 -3z"/>
<path d="M3057 2562 c-24 -26 -21 -59 8 -87 45 -46 105 -20 105 46 0 53 -77
81 -113 41z"/>
<path d="M5250 3985 c-163 -46 -246 -158 -238 -323 9 -201 174 -343 382 -330
178 12 309 148 310 322 0 135 -54 228 -176 302 -56 34 -70 38 -142 41 -51 2
-101 -3 -136 -12z m119 -286 c36 -13 37 -16 14 -41 -23 -26 -51 -22 -65 8 -10
21 -9 27 3 35 8 5 14 9 15 9 1 0 15 -5 33 -11z"/>
<path d="M5338 1096 c-27 -20 -60 -103 -62 -156 -2 -81 34 -120 113 -120 69 0
111 65 111 170 0 55 -3 65 -29 91 -24 23 -38 29 -73 29 -24 0 -51 -7 -60 -14z"/>
</g>
</svg>
