<?xml version="1.0" standalone="no"?>
<!DOCTYPE svg PUBLIC "-//W3C//DTD SVG 20010904//EN"
 "http://www.w3.org/TR/2001/REC-SVG-20010904/DTD/svg10.dtd">
<svg version="1.0" xmlns="http://www.w3.org/2000/svg"
 width="600.000000pt" height="600.000000pt" viewBox="0 0 600.000000 600.000000"
 preserveAspectRatio="xMidYMid meet">
<metadata>
Created by potrace 1.15, written by Peter Selinger 2001-2017
</metadata>
<g transform="translate(0.000000,600.000000) scale(0.100000,-0.100000)"
fill="#16364b" stroke="none">
<path d="M2215 5797 c-56 -32 -279 -191 -345 -246 -87 -72 -278 -261 -326
-323 -62 -80 -84 -132 -84 -201 0 -67 15 -102 64 -145 110 -96 286 -66 796
137 233 92 262 108 290 153 30 50 35 93 15 143 -21 58 -63 87 -129 93 -42 3
-76 -5 -196 -47 -80 -29 -156 -57 -170 -63 -14 -5 -43 -16 -65 -24 l-40 -14
60 57 c55 52 181 149 298 230 64 44 89 87 84 139 -11 111 -148 171 -252 111z"/>
<path d="M3063 5670 c-77 -46 -96 -171 -36 -231 22 -23 51 -35 125 -53 187
-47 318 -129 354 -222 13 -34 16 -62 11 -121 -11 -147 -87 -249 -254 -343
-118 -66 -123 -69 -143 -103 -62 -101 22 -251 129 -232 84 15 316 161 422 265
85 83 132 175 154 304 19 112 19 168 -1 264 -22 108 -64 180 -149 260 -107
100 -258 172 -452 217 -85 20 -122 19 -160 -5z"/>
<path d="M998 5320 c-116 -36 -285 -179 -336 -282 -55 -115 -64 -207 -32 -332
26 -101 59 -161 129 -231 119 -120 225 -158 310 -113 60 32 83 77 78 148 -4
51 -7 57 -52 95 -152 127 -190 187 -167 263 15 48 59 90 147 140 54 31 75 49
93 83 66 123 -43 270 -170 229z"/>
<path d="M2641 4929 c-186 -104 -295 -292 -263 -455 38 -186 188 -324 406
-371 65 -14 81 -15 117 -3 102 34 134 186 51 250 -13 11 -57 29 -96 41 -128
38 -176 78 -176 147 0 46 40 93 120 142 103 63 135 133 95 209 -47 93 -134
106 -254 40z"/>
<path d="M4800 4959 c-40 -17 -89 -58 -105 -89 -10 -19 -15 -58 -15 -115 0
-234 101 -445 248 -516 69 -34 176 -38 237 -9 91 44 145 139 145 255 0 175
-113 325 -325 431 -97 48 -146 60 -185 43z"/>
<path d="M1826 4440 c-102 -26 -237 -133 -279 -223 -52 -108 26 -227 147 -227
58 0 97 19 132 66 31 41 91 74 131 74 15 0 53 -16 83 -35 63 -41 111 -45 169
-16 100 52 105 180 9 266 -22 21 -70 51 -105 68 -55 25 -80 30 -157 33 -50 2
-108 -1 -130 -6z"/>
<path d="M2595 3841 c-46 -11 -79 -37 -103 -80 -45 -79 -15 -177 64 -212 35
-16 58 -19 116 -14 92 6 142 -9 146 -45 3 -32 -63 -168 -117 -240 -23 -30 -95
-113 -159 -183 -162 -178 -175 -198 -170 -268 5 -69 35 -114 94 -141 37 -16
50 -17 85 -8 23 7 54 24 68 39 378 394 486 558 498 758 7 100 -6 153 -57 232
-73 113 -193 172 -347 170 -48 -1 -102 -4 -118 -8z"/>
<path d="M4222 3779 c-155 -21 -246 -75 -300 -179 -32 -61 -34 -70 -30 -145
10 -185 137 -300 328 -299 167 0 305 112 422 342 53 103 59 146 30 202 -34 63
-78 78 -237 84 -77 3 -173 0 -213 -5z m58 -287 c0 -5 -16 -17 -35 -28 -27 -14
-37 -16 -47 -6 -9 9 -4 15 23 26 39 17 59 20 59 8z"/>
<path d="M1135 3715 c-103 -31 -231 -87 -271 -119 -84 -67 -86 -196 -3 -274
44 -42 88 -55 160 -50 32 2 59 2 59 -1 0 -3 -45 -91 -100 -196 -225 -427 -277
-553 -287 -700 -4 -59 -1 -77 19 -114 34 -66 86 -103 152 -109 75 -6 115 10
188 77 35 32 115 102 178 155 63 53 206 190 317 304 111 114 205 204 209 200
29 -30 -171 -691 -321 -1061 -42 -102 -28 -172 41 -218 34 -22 101 -25 147 -5
31 13 87 68 87 86 0 4 42 100 94 212 108 234 111 241 177 488 95 352 104 400
104 555 0 158 -13 222 -56 290 -46 73 -128 100 -221 75 -64 -18 -148 -84 -312
-244 -88 -86 -161 -156 -163 -156 -2 0 31 68 72 151 101 200 137 309 138 414
1 97 -23 156 -84 208 -73 63 -184 74 -324 32z"/>
<path d="M3485 3367 c-110 -54 -166 -153 -196 -346 -9 -63 -8 -79 6 -117 32
-84 104 -120 219 -111 234 19 360 157 326 357 -24 145 -112 232 -239 238 -54
2 -75 -2 -116 -21z"/>
<path d="M4832 2742 c-39 -21 -166 -162 -226 -252 -24 -36 -52 -91 -61 -123
l-17 -59 -24 36 c-71 104 -226 123 -323 39 -84 -72 -100 -139 -67 -278 13 -55
23 -102 21 -105 -2 -4 -45 4 -95 16 -246 62 -403 35 -491 -84 -42 -58 -59
-128 -59 -252 0 -150 47 -444 85 -536 36 -86 138 -154 233 -154 89 0 155 38
193 113 27 53 26 102 -6 264 -16 79 -25 146 -22 150 7 7 58 -17 132 -62 48
-30 109 -32 198 -9 136 35 224 102 274 209 27 57 28 67 28 205 0 80 -4 171 -8
203 l-8 57 36 -24 c127 -86 350 -9 438 152 55 102 76 285 41 355 -17 31 -50
67 -64 67 -4 0 -13 12 -20 26 -18 32 -79 64 -122 64 -18 -1 -48 -9 -66 -18z"/>
<path d="M2895 2376 c-92 -21 -193 -68 -437 -202 -123 -68 -159 -100 -178
-160 -11 -32 -15 -35 -39 -31 -111 22 -323 -106 -351 -210 -28 -110 75 -233
196 -233 l40 0 30 -120 31 -121 -65 -36 c-84 -47 -162 -126 -198 -199 -26 -53
-29 -69 -29 -154 1 -113 19 -168 96 -286 59 -90 201 -235 282 -288 33 -21 100
-56 150 -79 246 -107 391 -104 642 17 120 57 166 98 184 163 13 47 13 59 0
106 -16 58 -72 114 -132 132 -67 20 -98 13 -231 -51 -94 -45 -120 -54 -166
-54 -110 1 -260 83 -352 192 -63 75 -80 105 -76 136 5 44 36 39 112 -18 92
-67 129 -76 219 -54 122 30 189 120 172 232 -5 37 -17 55 -76 115 -91 93 -142
198 -203 413 -25 89 -46 166 -46 173 0 6 10 11 21 11 12 0 113 45 226 100 112
55 216 103 230 106 25 7 26 6 19 -32 -15 -77 -99 -311 -152 -422 -62 -129 -68
-177 -33 -250 55 -113 224 -135 304 -40 81 96 231 482 275 706 18 89 9 217
-19 270 -59 114 -157 172 -300 178 -51 2 -111 -2 -146 -10z"/>
</g>
</svg>
