<?xml version="1.0" standalone="no"?>
<!DOCTYPE svg PUBLIC "-//W3C//DTD SVG 20010904//EN"
 "http://www.w3.org/TR/2001/REC-SVG-20010904/DTD/svg10.dtd">
<svg version="1.0" xmlns="http://www.w3.org/2000/svg"
 width="600.000000pt" height="600.000000pt" viewBox="0 0 600.000000 600.000000"
 preserveAspectRatio="xMidYMid meet">
<metadata>
Created by potrace 1.15, written by Peter Selinger 2001-2017
</metadata>
<g transform="translate(0.000000,600.000000) scale(0.100000,-0.100000)"
fill="#16364b" stroke="none">
<path d="M1545 5760 c-62 -25 -85 -90 -106 -305 -23 -238 3 -424 71 -507 85
-102 231 -92 335 24 58 64 146 207 201 324 119 255 127 293 71 349 -39 39 -72
50 -122 41 -53 -10 -82 -50 -139 -192 -50 -126 -107 -237 -141 -279 -15 -19
-16 -12 -11 107 4 70 13 164 21 210 19 105 18 123 0 162 -28 58 -119 92 -180
66z"/>
<path d="M3317 5496 c-21 -8 -40 -16 -41 -18 -43 -57 -49 -119 -15 -162 12
-15 65 -56 118 -90 53 -35 114 -79 136 -99 l40 -36 -32 -11 c-64 -23 -92 -113
-55 -175 81 -132 248 -190 350 -122 76 50 102 145 66 239 -29 75 -120 202
-195 273 -70 66 -270 205 -295 205 -7 0 -18 2 -26 5 -7 2 -30 -2 -51 -9z"/>
<path d="M906 5490 c-219 -38 -393 -275 -355 -484 20 -111 96 -223 181 -267
91 -47 189 -1 205 96 8 53 -13 98 -67 144 -47 40 -50 45 -50 90 0 56 27 103
79 138 38 26 70 28 134 11 38 -10 49 -9 83 8 21 10 49 34 61 53 82 122 -75
244 -271 211z"/>
<path d="M2962 5174 c-57 -21 -133 -99 -168 -171 -38 -81 -45 -192 -15 -251
38 -75 129 -120 215 -107 66 10 176 55 212 87 41 36 58 103 53 214 -5 99 -35
165 -97 208 -51 36 -133 44 -200 20z"/>
<path d="M2294 5076 c-54 -24 -74 -65 -80 -158 -9 -137 -34 -167 -208 -243
-102 -45 -126 -72 -126 -146 0 -70 57 -129 124 -129 33 0 195 65 267 106 133
78 203 203 215 384 4 70 2 91 -13 119 -35 67 -114 97 -179 67z"/>
<path d="M4760 4817 c-30 -16 -52 -37 -68 -68 -22 -41 -24 -51 -18 -144 8
-126 28 -210 71 -300 65 -136 178 -218 300 -219 80 0 125 17 174 65 87 87 94
195 21 345 -57 118 -188 253 -299 307 -86 43 -122 46 -181 14z"/>
<path d="M2770 4146 c-142 -41 -230 -131 -230 -236 0 -162 206 -275 443 -242
143 20 339 94 387 146 36 39 36 135 1 185 -26 36 -128 89 -251 131 -81 28
-279 37 -350 16z"/>
<path d="M1040 4064 c-54 -23 -90 -85 -90 -157 0 -95 65 -161 168 -172 76 -8
203 -33 211 -41 10 -10 -78 -81 -180 -144 -87 -54 -270 -146 -359 -180 -92
-35 -135 -93 -128 -172 8 -82 64 -138 145 -145 52 -5 95 9 245 82 39 19 75 35
79 35 4 0 10 -12 14 -27 25 -102 144 -146 231 -86 110 76 144 95 203 114 58
20 72 21 121 11 78 -16 118 -15 165 7 48 22 73 48 89 95 27 78 -4 138 -94 180
-38 18 -64 21 -162 21 -116 -1 -117 0 -103 20 32 43 53 93 65 149 25 121 -39
249 -157 313 -105 58 -405 120 -463 97z"/>
<path d="M4235 3788 c-126 -17 -231 -94 -282 -205 -21 -46 -25 -66 -21 -131 6
-127 69 -226 180 -281 80 -41 177 -43 253 -7 58 27 152 122 185 186 63 123 96
288 68 340 -21 38 -73 68 -151 84 -99 20 -161 24 -232 14z m35 -315 c0 -14
-34 -43 -52 -43 -25 0 -23 16 4 34 23 16 48 21 48 9z"/>
<path d="M3411 3409 c-95 -28 -245 -274 -227 -371 8 -46 55 -94 102 -107 45
-12 147 4 191 30 70 43 133 135 153 226 23 99 -12 176 -95 214 -44 20 -73 22
-124 8z"/>
<path d="M5088 3366 c-90 -37 -139 -70 -201 -135 -107 -112 -142 -243 -97
-363 37 -99 130 -168 227 -168 90 0 226 76 298 168 83 104 108 259 59 354 -26
51 -111 138 -151 154 -45 19 -69 17 -135 -10z"/>
<path d="M2264 2881 c-110 -27 -187 -95 -244 -218 -96 -207 -113 -235 -176
-287 -33 -28 -72 -67 -85 -86 -13 -19 -47 -62 -74 -95 -108 -129 -228 -341
-279 -491 -72 -214 -51 -456 56 -642 50 -89 168 -200 279 -265 213 -125 342
-162 532 -154 153 6 286 39 417 103 149 73 267 204 386 428 89 168 167 393
194 558 16 100 8 341 -15 423 -53 190 -167 308 -350 360 -102 30 -131 52 -185
140 -56 93 -103 144 -163 179 -80 47 -207 67 -293 47z m238 -602 c72 -81 92
-91 224 -120 130 -28 150 -39 166 -92 16 -54 15 -215 -1 -292 -38 -180 -131
-415 -205 -520 -116 -162 -266 -235 -461 -222 -153 10 -301 83 -392 194 -96
119 -98 289 -7 482 57 122 104 192 184 272 204 206 238 250 307 396 l45 95 40
-62 c22 -35 67 -94 100 -131z"/>
<path d="M950 2783 c-42 -22 -80 -85 -80 -134 0 -53 36 -98 115 -143 222 -127
300 -324 173 -442 -43 -41 -69 -54 -110 -54 -47 0 -83 28 -134 103 -37 56 -50
68 -85 77 -68 19 -132 -15 -158 -83 -19 -48 -12 -86 25 -157 113 -216 313
-275 544 -162 71 35 184 145 209 205 64 148 49 314 -41 465 -43 72 -195 225
-283 285 -83 56 -125 66 -175 40z"/>
<path d="M4136 2296 c-84 -31 -134 -115 -122 -205 l6 -49 -48 15 c-58 19 -105
12 -152 -20 -80 -54 -92 -106 -61 -263 11 -60 32 -173 47 -250 28 -153 42
-187 99 -230 30 -22 50 -29 101 -32 40 -3 76 1 97 9 19 8 58 12 97 10 85 -3
138 18 190 76 70 80 83 182 51 398 -12 77 -31 205 -42 285 -17 122 -24 151
-47 185 -49 71 -137 100 -216 71z"/>
</g>
</svg>
