<?xml version="1.0" standalone="no"?>
<!DOCTYPE svg PUBLIC "-//W3C//DTD SVG 20010904//EN"
 "http://www.w3.org/TR/2001/REC-SVG-20010904/DTD/svg10.dtd">
<svg version="1.0" xmlns="http://www.w3.org/2000/svg"
 width="600.000000pt" height="600.000000pt" viewBox="0 0 600.000000 600.000000"
 preserveAspectRatio="xMidYMid meet">
<metadata>
Created by potrace 1.15, written by Peter Selinger 2001-2017
</metadata>
<g transform="translate(0.000000,600.000000) scale(0.100000,-0.100000)"
fill="#16364b" stroke="none">
<path d="M1990 5021 c-52 -17 -89 -42 -127 -85 -70 -80 -89 -189 -58 -336 32
-152 56 -556 53 -880 -2 -168 1 -406 6 -530 5 -124 5 -313 1 -421 l-7 -197
-84 -113 c-150 -201 -338 -427 -359 -431 -13 -2 -20 -10 -19 -25 0 -18 -5 -23
-23 -23 -34 0 -41 -29 -13 -50 l23 -18 -21 -11 c-24 -13 -30 -40 -9 -42 6 -1
25 0 40 1 26 2 28 0 17 -19 -12 -23 -6 -41 14 -41 14 0 129 100 122 107 -2 2
33 51 77 107 45 57 114 146 152 199 39 53 73 96 78 97 4 0 7 -36 7 -79 0 -111
16 -215 55 -366 62 -238 105 -340 182 -425 80 -89 202 -153 383 -200 l85 -22
0 -211 c0 -226 9 -304 52 -440 13 -42 21 -82 18 -87 -3 -6 -39 -10 -79 -10
-80 0 -127 -21 -155 -71 -22 -39 -7 -95 32 -120 45 -28 181 -22 247 11 123 62
147 137 90 287 -44 118 -60 195 -66 338 -5 108 5 268 18 280 2 1 179 -5 393
-14 215 -9 435 -14 490 -11 55 3 102 5 103 4 2 -2 -1 -34 -7 -73 -27 -171 2
-367 80 -548 42 -97 37 -107 -49 -98 -120 12 -192 -26 -192 -99 0 -67 59 -108
154 -109 130 -1 230 47 267 126 26 58 24 83 -16 190 -50 133 -63 182 -80 294
-18 119 -18 210 -1 283 l12 55 185 26 c289 42 321 48 376 73 139 64 238 218
285 446 17 82 19 119 14 265 -7 207 -23 292 -75 399 -49 100 -100 159 -203
237 -44 34 -78 62 -76 64 2 2 44 -5 93 -15 50 -10 131 -24 180 -30 50 -7 98
-20 107 -28 15 -12 27 -12 85 -1 75 14 98 26 84 43 -4 6 -7 30 -5 54 4 39 2
42 -20 42 -52 0 -86 12 -86 31 0 23 -28 25 -37 3 -4 -12 -15 -14 -47 -9 -116
18 -331 61 -498 100 l-187 44 -88 65 c-99 74 -309 200 -548 331 -219 119 -306
179 -406 280 -149 148 -254 308 -369 563 -66 147 -197 472 -225 562 -38 119
-121 222 -214 263 -50 22 -168 32 -211 18z m141 -155 c67 -28 121 -106 154
-221 10 -33 23 -71 31 -85 7 -14 43 -97 80 -185 183 -442 322 -670 542 -893
140 -141 219 -193 617 -406 128 -69 276 -160 333 -206 31 -25 120 -90 197
-144 320 -227 364 -265 424 -361 62 -99 76 -168 75 -375 0 -206 -15 -285 -74
-407 -36 -73 -110 -144 -168 -161 -22 -7 -165 -29 -318 -49 -255 -34 -300 -37
-519 -37 -393 0 -869 28 -997 59 -237 57 -350 171 -428 432 -67 225 -64 187
-69 893 -2 355 -3 804 -2 999 2 389 -14 665 -51 877 -12 69 -18 136 -14 155 9
51 42 98 79 114 41 18 67 18 108 1z"/>
<path d="M2612 2738 c-7 -7 -12 -27 -12 -44 0 -25 7 -38 31 -55 29 -20 34 -21
57 -8 63 35 45 119 -26 119 -21 0 -43 -5 -50 -12z"/>
<path d="M3072 2614 c-41 -29 -16 -90 45 -108 27 -9 73 32 73 64 0 50 -71 77
-118 44z"/>
<path d="M5280 3983 c-146 -24 -235 -109 -261 -247 -26 -145 56 -316 185 -384
67 -35 186 -37 256 -5 72 32 145 106 182 181 30 61 33 74 33 162 0 86 -3 100
-29 147 -35 64 -55 82 -131 122 -53 27 -69 31 -135 30 -41 -1 -86 -4 -100 -6z
m109 -328 c3 -4 -7 -18 -23 -32 -28 -24 -30 -24 -43 -7 -7 10 -13 27 -13 37 0
17 5 19 36 14 20 -3 39 -9 43 -12z"/>
<path d="M5337 1092 c-48 -52 -70 -154 -45 -207 21 -47 92 -68 151 -46 37 14
67 85 67 160 0 52 -4 66 -25 86 -20 20 -34 25 -78 25 -39 0 -58 -5 -70 -18z"/>
</g>
</svg>
