<?xml version="1.0" standalone="no"?>
<!DOCTYPE svg PUBLIC "-//W3C//DTD SVG 20010904//EN"
 "http://www.w3.org/TR/2001/REC-SVG-20010904/DTD/svg10.dtd">
<svg version="1.0" xmlns="http://www.w3.org/2000/svg"
 width="600.000000pt" height="600.000000pt" viewBox="0 0 600.000000 600.000000"
 preserveAspectRatio="xMidYMid meet">
<metadata>
Created by potrace 1.15, written by Peter Selinger 2001-2017
</metadata>
<g transform="translate(0.000000,600.000000) scale(0.100000,-0.100000)"
fill="#16364b" stroke="none">
<path d="M2378 5393 c-13 -15 -17 -58 -21 -243 -5 -255 -17 -325 -72 -437 -46
-93 -104 -149 -209 -201 -67 -33 -87 -48 -92 -68 -10 -39 23 -78 70 -82 53 -5
164 57 247 138 152 148 222 407 201 744 -8 117 -10 131 -31 147 -29 24 -73 24
-93 2z"/>
<path d="M3527 5280 c-38 -45 -41 -68 -17 -133 65 -173 247 -291 325 -212 49
48 29 134 -58 252 -57 77 -112 114 -175 121 -45 4 -50 2 -75 -28z"/>
<path d="M3041 5107 c-91 -35 -171 -153 -171 -254 0 -93 41 -143 118 -143 120
0 232 129 232 268 0 56 -3 66 -33 98 -37 41 -90 52 -146 31z m46 -163 c-11
-36 -59 -94 -78 -94 -24 0 -3 58 39 103 37 40 53 36 39 -9z"/>
<path d="M4759 4745 c-40 -21 -49 -63 -49 -214 1 -337 61 -491 189 -491 100 0
141 72 141 248 0 159 -39 277 -131 400 -54 71 -96 87 -150 57z"/>
<path d="M2640 4212 c-47 -26 -84 -97 -75 -145 16 -82 84 -144 198 -179 93
-28 188 -22 275 17 103 46 141 111 105 182 -21 44 -32 50 -183 99 -145 47
-265 57 -320 26z"/>
<path d="M5253 3971 c-101 -34 -176 -104 -204 -188 -19 -60 -7 -198 23 -265
35 -76 97 -141 160 -168 44 -19 63 -21 117 -16 174 16 316 162 329 337 9 125
-32 207 -138 277 -63 41 -66 42 -150 42 -55 -1 -103 -7 -137 -19z m122 -291
c22 -8 24 -13 15 -29 -13 -26 -50 -37 -61 -20 -14 22 -10 59 5 59 8 0 26 -4
41 -10z"/>
<path d="M4190 3755 c-169 -56 -270 -253 -214 -418 21 -61 91 -139 151 -167
61 -29 156 -32 231 -6 64 22 149 96 180 160 57 114 51 274 -14 346 -71 79
-230 119 -334 85z m100 -286 c0 -23 -22 -49 -40 -49 -25 0 -27 35 -2 49 22 14
42 14 42 0z"/>
<path d="M1070 3442 c-85 -22 -147 -60 -203 -122 -86 -95 -107 -238 -54 -354
73 -158 205 -243 413 -267 154 -17 203 -45 278 -158 62 -93 87 -163 135 -386
117 -534 170 -663 341 -836 154 -155 243 -181 720 -211 275 -17 1123 -17 1265
0 366 44 590 106 799 222 218 121 357 285 437 516 32 96 33 104 34 259 0 136
-4 174 -23 250 -64 244 -214 429 -437 536 -109 53 -206 73 -322 65 -200 -12
-322 -56 -573 -206 -312 -187 -390 -218 -565 -227 -189 -10 -283 30 -653 280
-260 176 -329 218 -527 322 -60 32 -166 90 -235 130 -227 131 -288 155 -475
185 -145 24 -268 25 -355 2z m270 -348 c85 -17 207 -55 295 -91 177 -74 557
-285 725 -402 414 -291 536 -356 775 -407 97 -20 314 -23 400 -5 185 39 278
88 530 275 197 148 375 190 539 129 100 -37 215 -155 258 -263 30 -77 37 -244
13 -326 -46 -159 -132 -270 -278 -360 -183 -114 -307 -153 -582 -186 -140 -17
-971 -16 -1302 0 -508 26 -580 75 -679 467 -23 94 -54 235 -68 315 -49 282
-107 425 -223 550 -142 154 -278 222 -485 245 -56 6 -123 40 -120 60 2 13 58
23 97 18 17 -3 64 -11 105 -19z"/>
<path d="M2223 2320 c-51 -21 -54 -83 -4 -113 41 -24 55 -22 85 14 33 39 33
62 0 88 -29 23 -46 25 -81 11z"/>
<path d="M2875 2065 c-33 -32 -31 -58 6 -89 36 -31 40 -31 68 -8 32 26 38 75
12 101 -28 28 -56 27 -86 -4z"/>
<path d="M3455 3359 c-58 -41 -189 -241 -201 -305 -10 -52 16 -84 67 -84 37 0
47 6 100 61 68 70 141 184 160 247 11 39 10 45 -8 70 -27 36 -77 41 -118 11z"/>
<path d="M467 2032 c-24 -26 -21 -75 4 -98 12 -10 41 -45 66 -76 100 -130 243
-176 282 -92 35 78 -24 153 -190 239 -94 49 -136 56 -162 27z"/>
<path d="M5363 1108 c-28 -13 -58 -75 -74 -147 -20 -96 19 -165 92 -163 73 2
118 71 126 193 5 73 4 79 -20 103 -28 28 -82 34 -124 14z"/>
</g>
</svg>
