<?xml version="1.0" standalone="no"?>
<!DOCTYPE svg PUBLIC "-//W3C//DTD SVG 20010904//EN"
 "http://www.w3.org/TR/2001/REC-SVG-20010904/DTD/svg10.dtd">
<svg version="1.0" xmlns="http://www.w3.org/2000/svg"
 width="600.000000pt" height="600.000000pt" viewBox="0 0 600.000000 600.000000"
 preserveAspectRatio="xMidYMid meet">
<metadata>
Created by potrace 1.15, written by Peter Selinger 2001-2017
</metadata>
<g transform="translate(0.000000,600.000000) scale(0.100000,-0.100000)"
fill="#16364b" stroke="none">
<path d="M3237 5469 c-44 -23 -73 -66 -82 -121 -5 -30 -2 -49 17 -85 22 -45
35 -54 110 -86 22 -10 44 -29 54 -48 23 -46 15 -171 -20 -273 -30 -91 -25
-134 21 -178 69 -66 168 -64 229 4 45 49 84 218 84 363 0 158 -43 269 -137
355 -90 83 -199 110 -276 69z"/>
<path d="M2065 5413 c-107 -56 -137 -190 -68 -301 46 -74 104 -102 306 -146
33 -8 34 -16 6 -149 -13 -60 -22 -143 -23 -203 -1 -93 1 -103 26 -141 46 -70
127 -92 198 -52 53 30 67 61 75 164 3 50 15 139 26 198 41 222 17 327 -93 410
-38 28 -116 57 -156 57 -58 0 -69 9 -75 56 -11 99 -130 156 -222 107z"/>
<path d="M1610 4809 c-128 -13 -251 -39 -286 -60 -62 -37 -83 -142 -45 -217
38 -72 83 -85 226 -61 178 30 327 35 409 14 111 -28 173 -9 212 67 20 38 18
117 -5 158 -48 91 -233 127 -511 99z"/>
<path d="M4295 4551 c-45 -27 -62 -51 -76 -102 -11 -43 -10 -50 12 -95 22 -44
32 -53 104 -89 111 -55 124 -64 146 -108 23 -44 43 -192 34 -252 -9 -56 16
-113 62 -145 50 -34 134 -35 181 -1 57 40 66 70 66 221 0 256 -58 391 -212
494 -131 87 -253 117 -317 77z"/>
<path d="M3205 4470 c-16 -6 -68 -42 -115 -81 -139 -117 -299 -234 -395 -287
-164 -92 -205 -131 -205 -197 0 -72 79 -145 156 -145 71 0 286 129 570 341
214 160 231 187 183 285 -33 70 -120 107 -194 84z"/>
<path d="M1575 4406 c-82 -37 -115 -126 -79 -216 23 -57 59 -78 161 -96 48 -8
149 -27 223 -40 74 -14 190 -28 256 -31 112 -5 124 -4 160 16 104 58 123 186
39 260 -40 35 -90 51 -158 51 -27 0 -94 7 -150 15 -213 31 -389 55 -405 55 -9
-1 -30 -7 -47 -14z"/>
<path d="M3754 3870 c-52 -8 -112 -38 -289 -149 -153 -96 -280 -163 -392 -205
-128 -48 -162 -119 -103 -214 29 -47 76 -72 134 -72 78 0 291 102 542 260 l95
60 45 -12 c41 -11 49 -10 89 11 80 42 107 143 63 231 -38 73 -98 102 -184 90z"/>
<path d="M2230 3810 c-131 -41 -242 -53 -431 -47 -199 6 -221 1 -252 -66 -39
-80 -6 -175 73 -214 66 -33 267 -51 403 -35 106 12 295 61 358 93 76 38 109
153 63 215 -52 70 -111 85 -214 54z"/>
<path d="M4992 3514 c-56 -28 -90 -63 -125 -128 -20 -36 -22 -54 -20 -157 4
-158 -13 -209 -118 -369 -86 -130 -164 -270 -279 -500 -62 -122 -70 -146 -70
-195 0 -68 17 -111 62 -157 93 -92 243 -103 333 -24 28 25 50 66 109 206 99
236 123 283 232 438 51 73 107 158 124 187 47 82 80 190 87 282 7 97 -11 251
-36 308 -52 118 -184 166 -299 109z"/>
<path d="M1972 3144 c-85 -43 -107 -154 -44 -222 37 -39 127 -67 301 -92 144
-21 144 -21 182 -60 24 -25 51 -41 74 -46 181 -34 263 174 124 315 -52 53
-107 72 -233 82 -61 5 -149 14 -196 21 -150 19 -173 19 -208 2z"/>
<path d="M4335 3128 c-11 -6 -49 -39 -85 -73 -36 -34 -101 -86 -145 -115 -168
-109 -312 -159 -547 -190 -92 -11 -158 -25 -177 -36 -36 -21 -71 -82 -71 -123
0 -72 57 -144 124 -157 37 -6 263 19 366 42 247 55 486 178 658 339 86 80 102
107 102 172 0 91 -63 153 -155 153 -27 0 -59 -6 -70 -12z"/>
<path d="M1385 2988 c-92 -32 -141 -112 -132 -212 43 -467 56 -565 96 -723 35
-141 104 -291 179 -391 86 -114 267 -94 324 36 30 67 20 126 -36 214 -102 158
-146 350 -176 763 -14 187 -23 220 -69 266 -52 52 -121 70 -186 47z"/>
<path d="M2145 2398 c-76 -13 -196 -77 -222 -117 -68 -102 -22 -229 89 -246
37 -6 55 -2 104 21 35 16 83 29 118 32 57 4 59 4 92 -32 79 -87 197 -89 267
-6 55 65 45 147 -27 227 -97 108 -252 153 -421 121z"/>
<path d="M3950 2088 c-25 -5 -164 -36 -310 -68 -146 -32 -377 -79 -515 -105
-137 -26 -261 -53 -276 -60 -32 -17 -87 -78 -100 -112 -23 -60 0 -152 48 -195
29 -27 88 -48 133 -48 67 0 432 66 660 120 327 77 396 90 505 97 118 7 163 25
201 83 68 102 27 228 -91 281 -45 21 -175 24 -255 7z"/>
<path d="M2172 1733 c-72 -35 -96 -113 -68 -224 51 -199 177 -358 351 -440 71
-34 114 -36 169 -9 71 35 104 106 84 178 -13 48 -32 69 -92 99 -104 53 -193
166 -211 268 -20 115 -133 178 -233 128z"/>
<path d="M4754 1660 c-18 -6 -69 -44 -114 -85 -131 -118 -193 -144 -577 -240
-292 -73 -545 -168 -625 -235 -78 -64 -84 -198 -14 -278 68 -77 146 -82 300
-17 116 49 283 103 495 160 170 47 317 98 400 140 127 64 298 208 348 293 50
85 16 205 -70 245 -44 21 -105 28 -143 17z"/>
<path d="M2056 1005 c-49 -17 -102 -69 -117 -113 -17 -50 -6 -125 23 -170 14
-21 66 -69 114 -106 149 -113 373 -211 574 -252 159 -32 390 -5 569 67 117 47
151 90 151 189 0 89 -41 157 -115 191 -58 27 -100 23 -195 -15 -47 -19 -116
-40 -153 -46 -164 -26 -382 44 -613 196 -120 79 -157 88 -238 59z"/>
</g>
</svg>
