<?xml version="1.0" standalone="no"?>
<!DOCTYPE svg PUBLIC "-//W3C//DTD SVG 20010904//EN"
 "http://www.w3.org/TR/2001/REC-SVG-20010904/DTD/svg10.dtd">
<svg version="1.0" xmlns="http://www.w3.org/2000/svg"
 width="600.000000pt" height="600.000000pt" viewBox="0 0 600.000000 600.000000"
 preserveAspectRatio="xMidYMid meet">
<metadata>
Created by potrace 1.15, written by Peter Selinger 2001-2017
</metadata>
<g transform="translate(0.000000,600.000000) scale(0.100000,-0.100000)"
fill="#16364b" stroke="none">
<path d="M2170 5391 c-115 -37 -212 -137 -251 -259 -20 -62 -21 -83 -18 -272
9 -496 -2 -1352 -22 -1643 -10 -159 -19 -298 -19 -309 0 -20 -4 -21 -172 -15
-176 6 -300 25 -418 65 -52 18 -55 21 -60 58 -6 48 -32 54 -40 9 l-5 -30 -33
48 c-49 71 -76 60 -53 -21 11 -37 12 -37 -36 -17 -27 11 -39 12 -47 4 -8 -8 0
-20 28 -45 l39 -34 -41 0 c-31 0 -42 -4 -42 -15 0 -19 10 -23 170 -74 247 -78
378 -101 581 -101 l127 0 5 -342 c5 -369 13 -443 63 -593 52 -156 132 -282
246 -391 87 -83 176 -131 302 -164 69 -19 85 -26 81 -39 -3 -9 -9 -52 -15 -96
-14 -111 1 -212 66 -437 30 -103 54 -196 54 -207 0 -19 -6 -21 -93 -19 -58 1
-101 -4 -117 -12 -87 -44 -77 -150 18 -178 85 -26 223 -5 294 45 41 28 78 94
78 139 0 16 -16 76 -36 134 -93 273 -121 449 -93 581 l11 51 62 -6 c581 -56
752 -64 889 -40 l39 7 -9 -69 c-18 -148 1 -326 54 -501 14 -49 26 -99 27 -113
1 -25 -1 -25 -92 -31 -84 -5 -95 -8 -122 -34 -42 -40 -43 -104 -2 -145 56 -56
200 -46 296 19 51 36 72 65 88 125 11 40 9 54 -20 153 -66 224 -88 398 -68
530 6 45 14 84 16 87 3 2 86 9 184 15 248 16 319 42 427 157 105 113 156 250
194 523 26 181 22 212 -54 484 -23 82 -57 178 -75 215 -31 62 -132 200 -206
282 l-32 35 113 12 c186 19 291 51 487 146 79 39 192 124 192 145 0 7 -6 15
-14 18 -8 3 -12 13 -9 25 5 19 -3 23 -39 20 -13 -2 -16 5 -15 25 3 39 -16 40
-57 3 -32 -28 -36 -29 -36 -11 0 21 -23 46 -33 35 -4 -3 -7 -26 -7 -49 l0 -43
-74 -36 c-166 -80 -273 -104 -497 -112 l-167 -6 -68 64 c-97 91 -209 174 -439
325 -361 238 -413 277 -510 374 -111 110 -215 246 -267 345 -81 158 -144 374
-193 665 -46 272 -76 351 -172 446 -76 75 -129 98 -233 101 -47 1 -96 -1 -110
-6z m190 -171 c72 -37 121 -119 141 -239 63 -366 91 -487 156 -676 73 -210
142 -331 274 -484 121 -140 255 -243 540 -415 227 -137 387 -268 650 -528 194
-192 277 -294 319 -392 30 -71 90 -322 97 -406 6 -81 -17 -299 -43 -398 -24
-91 -59 -158 -111 -210 -76 -76 -125 -90 -356 -102 -105 -5 -250 -19 -322 -30
-79 -12 -181 -20 -260 -20 -150 0 -546 25 -620 40 -27 5 -86 12 -130 15 -272
18 -447 126 -558 343 -98 191 -116 285 -126 667 -9 311 -4 478 25 800 15 174
24 513 28 1140 0 110 -3 317 -8 460 -10 282 -7 309 41 373 64 86 168 110 263
62z"/>
<path d="M2602 2850 c-12 -12 -22 -29 -22 -40 0 -20 54 -70 76 -70 22 0 64 49
64 75 0 51 -76 74 -118 35z"/>
<path d="M3146 2799 c-14 -11 -26 -31 -26 -43 0 -28 49 -76 78 -76 30 0 62 35
62 68 0 33 -8 45 -37 61 -31 16 -47 14 -77 -10z"/>
<path d="M3060 1889 c-25 -4 -82 -7 -128 -7 -90 2 -104 -5 -100 -52 5 -40 41
-52 138 -45 242 15 250 17 265 39 19 27 19 32 -5 56 -22 22 -84 25 -170 9z"/>
</g>
</svg>
