<?xml version="1.0" standalone="no"?>
<!DOCTYPE svg PUBLIC "-//W3C//DTD SVG 20010904//EN"
 "http://www.w3.org/TR/2001/REC-SVG-20010904/DTD/svg10.dtd">
<svg version="1.0" xmlns="http://www.w3.org/2000/svg"
 width="600.000000pt" height="600.000000pt" viewBox="0 0 600.000000 600.000000"
 preserveAspectRatio="xMidYMid meet">
<metadata>
Created by potrace 1.15, written by Peter Selinger 2001-2017
</metadata>
<g transform="translate(0.000000,600.000000) scale(0.100000,-0.100000)"
fill="#16364b" stroke="none">
<path d="M2376 5387 c-23 -23 -24 -30 -29 -233 -4 -173 -8 -223 -27 -289 -45
-167 -130 -281 -259 -349 -80 -42 -94 -57 -94 -96 0 -39 29 -70 66 -70 80 0
267 141 331 250 92 157 125 297 133 563 6 197 6 198 -17 222 -30 32 -73 33
-104 2z"/>
<path d="M3521 5291 c-27 -27 -36 -84 -20 -124 40 -97 115 -199 183 -249 83
-60 176 -21 176 74 0 62 -68 185 -142 255 -63 61 -159 82 -197 44z"/>
<path d="M2985 5106 c-81 -36 -155 -160 -155 -262 0 -114 71 -170 174 -139 71
20 143 79 180 145 39 69 43 158 11 202 -45 61 -139 85 -210 54z m75 -146 c0
-22 -39 -85 -60 -98 -30 -18 -34 -10 -15 30 29 55 75 98 75 68z"/>
<path d="M4765 4741 c-61 -25 -80 -101 -64 -255 22 -219 81 -370 159 -411 42
-21 118 -19 158 5 104 64 106 229 3 435 -56 112 -129 211 -167 225 -30 12 -61
12 -89 1z"/>
<path d="M2657 4216 c-99 -36 -134 -129 -84 -226 60 -119 264 -187 407 -135
55 19 128 68 154 102 29 40 33 105 7 147 -20 31 -32 38 -134 69 -191 60 -274
70 -350 43z"/>
<path d="M1164 4150 c-83 -33 -126 -205 -75 -296 71 -127 270 -121 338 9 9 18
16 55 16 83 0 87 -53 151 -161 193 -56 22 -84 25 -118 11z"/>
<path d="M5250 3966 c-91 -26 -151 -72 -193 -150 -19 -35 -22 -57 -22 -146 0
-96 3 -110 29 -164 33 -68 87 -126 148 -158 57 -30 169 -32 247 -3 78 28 160
107 196 187 42 92 46 197 13 269 -31 66 -81 117 -151 152 -45 23 -64 27 -137
26 -47 0 -105 -6 -130 -13z m128 -282 c28 -8 28 -28 0 -48 -30 -22 -37 -20
-48 10 -16 40 -2 51 48 38z"/>
<path d="M4179 3757 c-137 -51 -241 -189 -242 -321 0 -105 47 -175 153 -224
74 -35 188 -37 271 -4 109 43 194 162 206 287 13 136 -19 202 -119 246 -65 28
-213 37 -269 16z m88 -280 c-15 -23 -57 -36 -57 -18 0 14 51 52 62 45 5 -3 3
-15 -5 -27z"/>
<path d="M3434 3361 c-53 -32 -184 -259 -184 -319 0 -41 37 -72 85 -72 34 0
46 7 96 59 57 58 120 170 134 239 9 42 -9 86 -41 101 -35 15 -54 14 -90 -8z"/>
<path d="M1028 3300 c-178 -31 -314 -135 -368 -277 -18 -48 -21 -73 -18 -143
9 -180 117 -318 304 -387 56 -20 97 -27 221 -33 175 -10 217 -23 274 -87 76
-84 116 -184 183 -451 109 -432 239 -619 509 -730 154 -64 301 -86 727 -108
41 -2 177 -11 303 -20 148 -11 285 -15 395 -11 181 6 536 38 672 62 209 36
477 142 672 267 186 119 284 289 349 600 38 188 25 386 -37 527 -75 170 -267
345 -464 424 -373 148 -684 81 -1145 -250 -122 -88 -172 -112 -265 -125 -94
-14 -162 -3 -279 43 -148 59 -406 216 -619 377 -263 200 -372 256 -587 304
-79 18 -131 21 -435 24 -190 1 -366 -1 -392 -6z m507 -380 c191 -12 301 -37
414 -91 46 -23 195 -115 330 -206 588 -395 790 -480 1077 -452 181 17 277 57
482 201 191 134 306 187 484 223 161 33 291 7 411 -84 73 -56 112 -131 134
-262 14 -78 14 -111 5 -194 -27 -241 -85 -314 -361 -451 -180 -89 -297 -116
-576 -134 -206 -13 -920 -9 -1255 8 -506 26 -555 65 -680 549 -101 389 -175
534 -340 665 -117 93 -237 135 -415 147 -124 8 -195 29 -195 57 0 7 15 18 33
23 44 13 259 13 452 1z"/>
<path d="M459 2041 c-36 -37 -37 -61 -1 -103 16 -18 43 -54 60 -79 17 -26 52
-65 77 -87 107 -94 235 -68 235 47 0 42 -4 49 -62 106 -65 63 -210 145 -257
145 -12 0 -36 -13 -52 -29z"/>
<path d="M5300 1101 c-36 -36 -64 -127 -55 -181 4 -21 17 -50 30 -64 67 -72
170 -27 194 85 28 132 1 188 -92 189 -40 0 -53 -5 -77 -29z"/>
</g>
</svg>
