<?xml version="1.0" standalone="no"?>
<!DOCTYPE svg PUBLIC "-//W3C//DTD SVG 20010904//EN"
 "http://www.w3.org/TR/2001/REC-SVG-20010904/DTD/svg10.dtd">
<svg version="1.0" xmlns="http://www.w3.org/2000/svg"
 width="600.000000pt" height="600.000000pt" viewBox="0 0 600.000000 600.000000"
 preserveAspectRatio="xMidYMid meet">
<metadata>
Created by potrace 1.15, written by Peter Selinger 2001-2017
</metadata>
<g transform="translate(0.000000,600.000000) scale(0.100000,-0.100000)"
fill="#16364b" stroke="none">
<path d="M1764 5801 c-55 -25 -72 -52 -138 -219 -118 -299 -147 -517 -86 -636
64 -125 198 -113 388 33 136 105 380 369 402 436 30 90 -29 190 -120 202 -66
9 -101 -11 -206 -117 -54 -55 -101 -100 -105 -100 -4 0 15 55 42 123 27 67 49
132 49 144 0 56 -42 115 -99 139 -45 19 -78 17 -127 -5z"/>
<path d="M3000 5667 c-71 -47 -98 -155 -53 -215 11 -15 80 -64 153 -110 74
-46 170 -112 214 -146 149 -117 270 -262 283 -339 l5 -34 -56 -5 c-92 -8 -150
-64 -150 -145 1 -67 24 -106 80 -133 39 -19 56 -22 116 -17 125 11 215 72 270
186 33 67 37 187 8 263 -72 192 -278 398 -653 652 -112 76 -156 85 -217 43z"/>
<path d="M920 5425 c-146 -40 -257 -129 -317 -254 -35 -72 -37 -81 -38 -176 0
-92 3 -105 32 -167 37 -80 144 -192 214 -226 108 -52 218 -6 235 100 8 49 -25
110 -82 148 -83 57 -105 126 -61 190 31 47 70 67 154 78 110 15 157 63 157
157 0 60 -22 105 -66 137 -41 29 -147 35 -228 13z"/>
<path d="M2940 5173 c-27 -10 -65 -37 -95 -68 -133 -137 -141 -309 -17 -402
57 -43 111 -56 202 -50 116 8 175 30 211 80 31 41 31 44 26 132 -8 139 -53
242 -128 292 -51 34 -132 40 -199 16z"/>
<path d="M4805 4880 c-46 -10 -72 -27 -102 -67 -27 -36 -28 -39 -26 -159 5
-275 80 -442 231 -512 99 -45 223 -21 304 60 84 84 110 209 68 320 -45 121
-160 239 -305 313 -81 42 -128 54 -170 45z"/>
<path d="M1974 4842 c-93 -33 -135 -74 -149 -149 -9 -49 28 -119 75 -144 41
-22 115 -24 150 -4 34 19 76 19 84 -1 3 -9 6 -30 6 -47 1 -43 32 -109 64 -134
97 -77 246 6 246 137 0 157 -86 291 -217 340 -69 26 -187 26 -259 2z"/>
<path d="M2881 4069 c-79 -14 -149 -56 -183 -108 -23 -37 -28 -56 -28 -106 0
-80 29 -137 93 -181 109 -75 244 -100 492 -91 179 7 283 24 323 54 67 49 88
121 56 188 -20 43 -32 50 -185 118 -251 111 -429 151 -568 126z"/>
<path d="M1070 4051 c-87 -12 -126 -29 -164 -71 -77 -86 -53 -216 51 -277 37
-22 58 -27 110 -26 59 0 77 -7 53 -22 -12 -8 -105 -145 -179 -265 -29 -47
-110 -168 -181 -270 -163 -236 -210 -324 -210 -391 0 -109 86 -185 199 -177
52 4 66 11 191 98 74 52 176 124 227 162 87 63 305 212 401 272 43 27 44 27
64 9 31 -27 21 -159 -22 -276 -97 -274 -308 -640 -461 -802 -43 -46 -81 -95
-85 -110 -18 -73 22 -151 93 -181 80 -34 154 -4 246 99 150 170 261 349 411
665 108 227 142 314 152 397 4 28 18 74 31 103 24 50 25 60 21 210 -3 141 -5
162 -27 205 -47 96 -162 131 -297 92 -57 -17 -209 -90 -293 -141 l-45 -27 21
29 c12 16 49 61 83 99 127 145 170 233 170 344 0 103 -64 197 -160 236 -35 15
-77 19 -195 21 -82 1 -175 -1 -205 -5z"/>
<path d="M4201 3785 c-132 -30 -218 -93 -265 -194 -17 -37 -21 -65 -21 -146 0
-92 2 -104 29 -153 56 -100 152 -152 281 -152 111 0 174 27 258 111 53 53 77
87 112 161 103 220 94 330 -31 368 -63 19 -288 22 -363 5z m75 -321 c-28 -24
-47 -28 -48 -9 -1 12 41 35 62 35 10 -1 5 -9 -14 -26z"/>
<path d="M3420 3398 c-77 -22 -150 -99 -214 -226 -79 -157 -19 -258 164 -276
77 -8 125 3 171 37 41 30 79 115 91 203 27 199 -60 306 -212 262z"/>
<path d="M5030 3164 c-91 -28 -253 -174 -301 -271 -20 -40 -24 -63 -24 -143 0
-84 3 -101 27 -146 48 -92 145 -152 227 -141 223 30 403 345 316 553 -22 52
-95 132 -138 149 -44 18 -49 18 -107 -1z"/>
<path d="M3902 2620 c-83 -20 -156 -103 -168 -191 -4 -35 4 -75 39 -189 25
-80 44 -146 43 -148 -2 -1 -19 5 -39 13 -42 17 -143 20 -184 4 -50 -19 -109
-76 -144 -141 -33 -60 -34 -67 -34 -168 0 -100 3 -112 52 -255 76 -219 138
-371 166 -408 14 -18 49 -46 78 -62 107 -59 221 -32 286 67 25 37 28 51 28
127 l0 86 80 0 c68 0 88 4 135 28 66 34 134 97 162 152 27 51 35 172 18 247
-7 29 -35 107 -62 173 -59 143 -104 268 -154 430 -33 108 -41 125 -83 166 -33
34 -61 51 -100 63 -59 17 -69 18 -119 6z"/>
<path d="M2040 2311 c-123 -25 -263 -173 -362 -380 -17 -36 -44 -82 -59 -101
-65 -82 -156 -315 -179 -463 -17 -106 -7 -326 19 -434 52 -211 175 -376 388
-519 159 -107 285 -136 505 -116 304 28 501 130 634 327 83 122 110 170 140
250 15 39 64 150 110 247 45 97 98 219 116 270 31 87 33 101 33 223 0 122 -2
134 -28 186 -32 66 -99 132 -165 162 -66 31 -219 31 -312 0 -80 -26 -199 -77
-305 -131 l-81 -40 -33 106 c-72 234 -173 368 -305 407 -53 16 -62 16 -116 6z
m55 -544 c9 -29 25 -97 35 -151 27 -136 49 -178 124 -232 67 -49 124 -69 170
-60 17 4 83 38 147 76 172 103 393 210 407 196 9 -10 -19 -101 -84 -268 -116
-304 -137 -353 -159 -380 -12 -15 -32 -47 -44 -72 -92 -190 -364 -266 -577
-161 -98 48 -204 148 -243 228 -81 167 -63 410 46 626 29 58 53 110 53 117 0
6 7 17 15 24 7 6 28 36 45 66 17 30 35 52 40 49 5 -3 17 -29 25 -58z"/>
</g>
</svg>
