<?xml version="1.0" standalone="no"?>
<!DOCTYPE svg PUBLIC "-//W3C//DTD SVG 20010904//EN"
 "http://www.w3.org/TR/2001/REC-SVG-20010904/DTD/svg10.dtd">
<svg version="1.0" xmlns="http://www.w3.org/2000/svg"
 width="600.000000pt" height="600.000000pt" viewBox="0 0 600.000000 600.000000"
 preserveAspectRatio="xMidYMid meet">
<metadata>
Created by potrace 1.15, written by Peter Selinger 2001-2017
</metadata>
<g transform="translate(0.000000,600.000000) scale(0.100000,-0.100000)"
fill="#16364b" stroke="none">
<path d="M1457 5686 c-131 -118 -231 -228 -257 -281 -54 -111 29 -197 158
-166 75 19 288 99 398 151 87 41 103 52 118 85 25 52 7 102 -49 129 -37 19
-41 19 -84 2 -25 -9 -55 -20 -66 -23 -19 -6 -19 -5 -3 14 60 67 4 173 -92 173
-24 0 -49 -17 -123 -84z"/>
<path d="M2383 5430 c-40 -16 -53 -59 -53 -182 0 -62 -7 -160 -15 -218 -42
-299 -100 -408 -262 -493 -84 -44 -113 -76 -113 -124 0 -47 16 -72 56 -89 29
-12 39 -12 74 0 133 46 300 189 357 308 63 130 101 330 110 585 l6 162 -31 30
c-32 33 -81 40 -129 21z"/>
<path d="M3517 5319 c-10 -6 -29 -28 -42 -49 -50 -80 -22 -192 74 -293 62 -66
128 -100 203 -105 55 -4 59 -3 93 31 30 30 35 41 35 83 0 59 -39 143 -107 228
-71 89 -196 140 -256 105z"/>
<path d="M2989 5126 c-118 -42 -196 -167 -187 -297 5 -66 24 -100 79 -137 29
-21 43 -23 95 -19 84 6 182 58 207 108 24 50 40 145 33 202 -14 119 -115 183
-227 143z"/>
<path d="M4763 4766 c-64 -29 -78 -84 -63 -245 23 -248 124 -424 263 -462 136
-36 267 75 267 226 0 58 -33 160 -71 220 -66 104 -256 260 -329 270 -19 3 -49
-1 -67 -9z"/>
<path d="M2690 4236 c-100 -22 -152 -64 -191 -150 -35 -81 -17 -164 52 -234
39 -40 77 -61 144 -78 138 -37 286 15 424 150 74 71 82 154 20 214 -35 34
-183 85 -295 102 -83 12 -84 12 -154 -4z"/>
<path d="M1073 4110 c-76 -46 -86 -170 -17 -215 13 -8 55 -22 94 -30 39 -8 85
-22 102 -31 30 -15 31 -17 14 -30 -26 -19 -108 -35 -206 -41 -100 -5 -134 -16
-159 -52 -29 -40 -34 -83 -16 -127 27 -66 54 -79 176 -82 136 -5 205 8 305 58
167 82 250 224 200 344 -25 59 -82 112 -169 155 -138 68 -264 88 -324 51z"/>
<path d="M4190 3757 c-132 -37 -235 -161 -247 -296 -13 -145 80 -270 225 -302
47 -11 64 -10 121 4 154 41 258 154 302 327 28 109 22 154 -25 197 -67 62
-271 100 -376 70z m100 -282 c0 -18 -45 -49 -59 -41 -22 14 3 38 57 55 1 1 2
-6 2 -14z"/>
<path d="M1629 3707 c-44 -29 -58 -71 -58 -178 -1 -136 39 -232 120 -290 48
-34 136 -39 184 -9 57 35 78 87 73 184 -6 140 -78 256 -184 296 -70 26 -93 25
-135 -3z"/>
<path d="M5158 3656 c-77 -27 -110 -49 -163 -107 -91 -101 -115 -242 -61 -352
69 -142 223 -198 378 -138 168 65 274 266 223 421 -18 53 -96 142 -160 182
-43 26 -133 24 -217 -6z m92 -282 c0 -16 -23 -44 -35 -44 -18 0 -20 21 -3 38
12 12 38 17 38 6z"/>
<path d="M3424 3361 c-70 -43 -201 -268 -190 -325 10 -50 67 -96 119 -96 45 0
115 31 151 68 21 20 51 66 68 102 27 54 32 77 32 138 1 71 0 75 -32 103 -39
35 -100 39 -148 10z"/>
<path d="M2305 3064 c-16 -2 -70 -9 -120 -15 -134 -17 -260 -51 -418 -116
-232 -94 -347 -172 -474 -323 -124 -147 -183 -298 -183 -464 0 -123 19 -204
75 -321 51 -107 99 -160 245 -270 144 -109 178 -142 281 -272 169 -213 308
-290 541 -300 193 -9 313 22 583 149 199 93 297 151 426 249 135 103 375 304
436 365 72 72 149 194 174 276 67 221 -50 490 -313 718 -101 87 -153 122 -293
194 -197 101 -319 125 -680 130 -137 3 -263 3 -280 0z m484 -384 c183 -23 406
-138 573 -295 169 -159 170 -241 4 -409 -91 -93 -235 -214 -326 -276 -154
-105 -521 -292 -620 -316 -88 -22 -210 -15 -268 15 -25 12 -118 97 -220 200
-97 97 -226 219 -286 270 -138 119 -161 161 -154 285 5 98 34 159 112 237 60
60 104 87 206 127 41 17 121 48 177 71 181 73 322 97 593 100 69 0 163 -4 209
-9z"/>
<path d="M444 2226 c-17 -7 -41 -27 -53 -42 -20 -25 -22 -37 -18 -85 6 -66 69
-231 130 -338 102 -180 258 -276 395 -241 143 36 179 152 97 316 -61 125 -175
225 -394 347 -100 56 -117 61 -157 43z m326 -441 c13 -14 21 -25 18 -25 -2 0
-15 11 -28 25 -13 14 -21 25 -18 25 2 0 15 -11 28 -25z"/>
<path d="M4643 1773 c-12 -2 -33 -15 -47 -28 -24 -22 -28 -23 -53 -10 -57 30
-131 10 -174 -48 -21 -28 -24 -41 -23 -117 2 -97 38 -249 78 -327 62 -123 178
-154 263 -71 42 41 71 129 109 334 24 133 26 156 14 183 -24 59 -102 98 -167
84z"/>
</g>
</svg>
