<?xml version="1.0" standalone="no"?>
<!DOCTYPE svg PUBLIC "-//W3C//DTD SVG 20010904//EN"
 "http://www.w3.org/TR/2001/REC-SVG-20010904/DTD/svg10.dtd">
<svg version="1.0" xmlns="http://www.w3.org/2000/svg"
 width="600.000000pt" height="600.000000pt" viewBox="0 0 600.000000 600.000000"
 preserveAspectRatio="xMidYMid meet">
<metadata>
Created by potrace 1.15, written by Peter Selinger 2001-2017
</metadata>
<g transform="translate(0.000000,600.000000) scale(0.100000,-0.100000)"
fill="#16364b" stroke="none">
<path d="M1542 5775 c-51 -43 -182 -348 -204 -474 -11 -64 -10 -75 8 -118 15
-39 28 -53 64 -71 50 -25 86 -24 155 8 71 32 274 205 393 333 36 40 42 53 42
91 0 78 -80 143 -149 121 -11 -3 -60 -47 -108 -96 -48 -49 -89 -86 -91 -81 -1
5 14 44 34 88 29 65 35 87 31 124 -10 90 -108 132 -175 75z"/>
<path d="M843 5555 c-106 -32 -230 -140 -277 -241 -72 -152 -26 -322 116 -424
73 -53 163 -32 188 44 15 48 5 77 -46 127 -37 37 -44 49 -44 83 0 78 87 176
157 176 17 0 54 -12 83 -27 49 -26 54 -26 93 -12 46 15 87 66 87 106 0 125
-197 219 -357 168z"/>
<path d="M2365 5426 c-59 -26 -60 -28 -60 -280 -1 -190 -4 -243 -19 -296 -38
-138 -93 -204 -232 -278 -73 -38 -92 -54 -107 -84 -22 -45 -16 -86 19 -128 38
-45 84 -56 138 -32 82 37 205 123 261 184 122 131 153 248 162 598 6 267 2
289 -62 316 -42 17 -61 17 -100 0z"/>
<path d="M3483 5320 c-133 -81 -37 -344 159 -435 99 -46 196 -27 234 46 36 70
-7 196 -101 296 -38 41 -67 61 -124 83 -85 35 -124 37 -168 10z"/>
<path d="M2967 5144 c-56 -17 -124 -80 -159 -146 -33 -63 -33 -190 1 -239 43
-63 86 -84 171 -84 61 0 86 6 138 29 78 36 94 63 100 167 12 200 -99 321 -251
273z"/>
<path d="M4763 4780 c-61 -37 -68 -59 -67 -215 1 -260 70 -412 219 -486 68
-33 181 -34 241 -2 127 67 148 201 61 377 -73 145 -180 256 -309 322 -57 29
-102 30 -145 4z m247 -467 c0 -7 -2 -13 -5 -13 -11 0 -45 66 -45 85 1 15 7 10
25 -20 14 -22 25 -46 25 -52z"/>
<path d="M2668 4227 c-97 -28 -167 -102 -188 -199 -19 -89 8 -167 81 -232 152
-138 367 -103 572 92 32 31 65 69 73 84 30 58 11 138 -44 177 -16 11 -84 34
-153 51 -143 37 -270 47 -341 27z"/>
<path d="M1045 4092 c-39 -24 -50 -39 -65 -85 -10 -33 -10 -45 5 -83 22 -59
58 -82 157 -99 97 -17 148 -33 148 -46 0 -25 -181 -114 -315 -154 -116 -34
-135 -45 -163 -92 -56 -94 17 -220 126 -217 115 3 379 115 515 218 l85 63 -15
-36 c-43 -101 -4 -239 91 -329 78 -73 134 -97 231 -97 96 0 142 21 203 90 51
58 72 119 72 206 0 132 -68 242 -185 299 -74 36 -190 35 -262 -3 -28 -14 -54
-31 -58 -37 -16 -26 -23 -6 -10 31 42 118 -9 222 -146 302 -63 37 -211 77
-304 83 -67 5 -85 2 -110 -14z"/>
<path d="M4217 3780 c-105 -33 -186 -103 -240 -205 -28 -54 -32 -69 -32 -145
0 -75 3 -91 27 -131 57 -97 150 -151 263 -153 86 -1 131 14 196 66 95 75 157
201 180 363 10 73 10 86 -6 119 -23 48 -61 71 -147 91 -88 20 -169 18 -241 -5z
m83 -299 c0 -5 -12 -19 -27 -31 -19 -15 -29 -18 -37 -10 -8 8 -4 17 13 31 25
20 51 25 51 10z"/>
<path d="M5170 3574 c-202 -64 -333 -234 -317 -411 8 -80 34 -139 86 -196 59
-64 126 -91 213 -85 159 12 279 123 324 300 31 120 4 215 -93 323 -77 87 -118
100 -213 69z m0 -359 c-7 -9 -15 -13 -18 -10 -3 2 1 11 8 20 7 9 15 13 18 10
3 -2 -1 -11 -8 -20z"/>
<path d="M2545 3493 c-169 -52 -291 -223 -365 -514 -12 -45 -30 -99 -41 -120
-29 -58 -104 -124 -183 -162 -228 -110 -492 -412 -591 -675 -64 -170 -82 -349
-50 -501 46 -218 206 -396 481 -534 438 -220 933 -82 1209 338 113 172 160
274 192 419 15 70 18 132 18 446 -1 327 -3 380 -23 505 -80 509 -206 739 -438
800 -72 19 -144 18 -209 -2z m179 -515 c65 -217 104 -463 113 -713 12 -347
-40 -556 -189 -757 -123 -167 -268 -248 -442 -248 -189 1 -420 123 -475 252
-60 140 -53 316 18 456 82 162 205 288 360 367 177 90 303 211 375 359 19 39
51 127 71 195 37 127 55 172 84 204 15 18 16 18 38 -7 12 -14 33 -63 47 -108z"/>
<path d="M3435 3378 c-58 -32 -111 -100 -175 -226 -46 -91 -48 -126 -9 -176
40 -51 121 -52 217 -2 72 37 152 184 152 279 0 98 -105 169 -185 125z"/>
<path d="M403 2304 c-43 -22 -73 -71 -73 -122 0 -79 96 -302 192 -447 69 -105
218 -254 283 -286 110 -52 218 -21 266 78 21 41 24 63 24 148 -1 67 -6 114
-17 143 -63 168 -235 332 -476 452 -107 54 -146 60 -199 34z m349 -433 c59
-62 128 -174 116 -187 -9 -8 -65 44 -101 94 -48 65 -101 162 -89 162 5 0 39
-31 74 -69z"/>
<path d="M4335 2056 c-16 -8 -43 -27 -59 -44 l-29 -31 -31 24 c-71 54 -174 36
-232 -41 -27 -34 -29 -44 -27 -113 2 -92 54 -338 88 -424 53 -129 113 -180
214 -181 101 -1 166 52 210 170 47 124 100 475 82 541 -11 39 -46 81 -88 102
-29 15 -91 13 -128 -3z"/>
</g>
</svg>
