<?xml version="1.0" standalone="no"?>
<!DOCTYPE svg PUBLIC "-//W3C//DTD SVG 20010904//EN"
 "http://www.w3.org/TR/2001/REC-SVG-20010904/DTD/svg10.dtd">
<svg version="1.0" xmlns="http://www.w3.org/2000/svg"
 width="600.000000pt" height="600.000000pt" viewBox="0 0 600.000000 600.000000"
 preserveAspectRatio="xMidYMid meet">
<metadata>
Created by potrace 1.15, written by Peter Selinger 2001-2017
</metadata>
<g transform="translate(0.000000,600.000000) scale(0.100000,-0.100000)"
fill="#16364b" stroke="none">
<path d="M1965 5820 c-16 -6 -40 -18 -51 -28 -12 -9 -88 -120 -169 -247 -81
-126 -163 -253 -182 -282 -42 -65 -81 -148 -89 -191 -14 -73 38 -165 109 -191
49 -19 137 -13 192 12 67 32 471 268 563 329 94 63 114 95 109 170 -4 73 -36
122 -95 144 -38 15 -46 15 -80 2 -20 -8 -73 -42 -117 -75 -79 -60 -125 -88
-125 -79 0 3 25 43 55 90 74 113 88 149 83 211 -7 80 -54 129 -134 139 -21 3
-52 1 -69 -4z"/>
<path d="M3025 5686 c-66 -29 -104 -105 -92 -183 9 -52 36 -75 161 -137 142
-70 249 -141 325 -215 74 -74 104 -119 131 -195 45 -130 18 -181 -110 -210
-41 -9 -82 -22 -90 -29 -88 -70 -78 -195 20 -249 66 -36 206 -7 312 65 249
170 234 533 -33 804 -112 113 -318 256 -483 334 -67 32 -96 35 -141 15z"/>
<path d="M959 5386 c-177 -49 -299 -170 -344 -341 -50 -192 31 -398 201 -516
42 -29 58 -34 106 -34 63 0 97 19 136 75 26 39 29 97 7 140 -8 15 -39 49 -69
74 -62 54 -86 97 -86 156 0 78 45 129 136 151 70 17 111 45 136 93 41 79 22
168 -43 202 -34 17 -117 17 -180 0z"/>
<path d="M2842 5055 c-66 -29 -110 -74 -149 -152 -34 -68 -37 -82 -37 -156 0
-69 5 -90 27 -133 54 -106 148 -151 294 -141 94 5 135 24 170 77 29 42 30 102
3 155 -16 32 -18 46 -10 69 14 40 13 66 -7 125 -19 61 -83 138 -130 157 -42
18 -119 17 -161 -1z"/>
<path d="M4775 4904 c-97 -51 -112 -113 -80 -343 31 -223 97 -338 224 -393
220 -95 440 85 401 328 -27 163 -160 296 -392 392 -86 36 -110 39 -153 16z"/>
<path d="M1945 4716 c-65 -16 -150 -62 -181 -98 -51 -62 -54 -152 -7 -208 56
-68 125 -77 210 -30 79 45 80 44 113 -62 22 -73 112 -119 190 -98 76 21 130
88 130 164 0 18 -9 63 -20 99 -37 118 -150 211 -289 237 -65 12 -82 12 -146
-4z"/>
<path d="M1235 3989 c-86 -11 -234 -56 -277 -84 -79 -52 -118 -140 -97 -217
23 -87 127 -148 222 -132 l40 6 -47 -63 c-85 -118 -383 -583 -421 -659 -49
-96 -85 -204 -85 -249 1 -71 59 -156 123 -180 72 -28 177 -3 214 49 7 9 63 53
125 98 62 44 185 137 273 207 194 154 399 305 414 305 25 0 5 -128 -41 -270
-89 -275 -240 -589 -396 -824 -55 -83 -66 -108 -70 -150 -3 -41 1 -58 20 -86
51 -76 154 -91 225 -34 52 43 182 266 352 604 225 448 264 597 231 878 -17
147 -69 225 -169 252 -103 27 -226 -29 -504 -230 -19 -14 -19 -13 -9 5 6 11
44 65 85 119 41 55 92 133 113 175 36 72 38 81 39 171 0 84 -3 101 -28 152
-61 124 -174 178 -332 157z"/>
<path d="M2886 3965 c-69 -28 -134 -87 -165 -150 -32 -64 -31 -167 2 -239 68
-147 239 -246 432 -247 98 -1 135 14 173 72 34 48 28 136 -11 177 -34 35 -34
38 2 45 42 9 87 52 106 102 34 87 -5 158 -110 205 -146 65 -321 80 -429 35z
m255 -306 c19 -7 39 -16 44 -22 15 -15 -89 -1 -122 17 l-28 15 36 1 c20 0 51
-5 70 -11z"/>
<path d="M4237 3788 c-127 -15 -245 -95 -297 -203 -35 -70 -35 -189 -1 -255
40 -77 79 -117 143 -149 52 -26 73 -31 134 -31 198 0 364 152 429 392 21 79
15 124 -22 169 -34 40 -68 54 -163 68 -117 16 -150 18 -223 9z m33 -307 c0
-13 -41 -41 -58 -41 -20 0 -9 23 19 37 29 15 39 16 39 4z"/>
<path d="M3432 3398 c-79 -27 -157 -131 -212 -285 -42 -118 -13 -214 74 -243
47 -15 202 2 254 29 64 33 117 91 141 155 63 169 -19 340 -170 351 -29 2 -69
-1 -87 -7z"/>
<path d="M4894 2987 c-85 -63 -168 -157 -206 -234 -26 -53 -34 -82 -37 -142
-4 -91 8 -135 53 -188 147 -171 448 -60 522 193 21 74 15 181 -14 247 -22 49
-99 135 -139 156 -12 6 -44 11 -71 11 -43 0 -58 -6 -108 -43z"/>
<path d="M3996 2588 c-53 -14 -128 -90 -144 -144 -18 -62 -14 -117 17 -247 25
-102 26 -118 12 -114 -9 3 -42 15 -73 26 -162 59 -331 -13 -387 -164 -52 -137
-3 -457 110 -720 29 -69 49 -100 85 -133 119 -109 301 -85 369 51 31 62 32
121 4 197 -36 98 -37 93 19 64 73 -38 129 -42 205 -14 121 44 208 117 251 209
16 36 21 64 20 131 -1 77 -6 101 -57 245 -32 88 -78 232 -103 320 -52 179 -60
199 -101 236 -61 57 -148 79 -227 57z"/>
<path d="M2041 2189 c-83 -16 -146 -66 -230 -181 -70 -97 -91 -144 -91 -207 0
-63 22 -110 71 -151 l30 -26 -46 -33 c-50 -36 -122 -127 -160 -202 -44 -86
-59 -164 -59 -314 -1 -128 1 -147 27 -222 37 -108 109 -216 210 -318 126 -125
252 -202 427 -261 77 -26 97 -29 220 -29 129 1 139 2 216 33 175 70 408 264
434 363 15 56 5 106 -31 152 l-30 37 33 40 c79 92 174 305 243 545 56 193 69
268 63 364 -14 242 -206 369 -453 302 -93 -26 -247 -97 -392 -182 -56 -32
-106 -59 -111 -59 -5 0 -19 35 -31 77 -28 96 -52 143 -99 195 -60 66 -151 96
-241 77z m934 -556 c-20 -138 -111 -366 -210 -533 -18 -30 -36 -70 -40 -88
-11 -50 3 -118 30 -151 l24 -28 -78 -77 c-51 -49 -99 -85 -136 -102 -51 -24
-66 -26 -148 -22 -81 3 -100 8 -154 37 -89 48 -199 144 -244 214 -50 77 -69
142 -69 231 1 106 40 178 113 205 41 16 42 15 63 -31 24 -54 94 -143 136 -174
110 -81 251 -39 293 87 24 71 11 132 -45 216 l-21 32 183 92 c175 88 283 138
302 139 4 0 5 -21 1 -47z"/>
</g>
</svg>
