<?xml version="1.0" standalone="no"?>
<!DOCTYPE svg PUBLIC "-//W3C//DTD SVG 20010904//EN"
 "http://www.w3.org/TR/2001/REC-SVG-20010904/DTD/svg10.dtd">
<svg version="1.0" xmlns="http://www.w3.org/2000/svg"
 width="600.000000pt" height="600.000000pt" viewBox="0 0 600.000000 600.000000"
 preserveAspectRatio="xMidYMid meet">
<metadata>
Created by potrace 1.15, written by Peter Selinger 2001-2017
</metadata>
<g transform="translate(0.000000,600.000000) scale(0.100000,-0.100000)"
fill="#16364b" stroke="none">
<path d="M2383 5410 c-37 -15 -43 -42 -43 -187 -1 -219 -24 -345 -90 -480 -45
-90 -109 -157 -193 -200 -67 -33 -97 -65 -97 -102 0 -43 9 -60 41 -77 27 -13
33 -13 73 4 111 49 202 123 267 216 97 138 146 321 156 587 3 91 3 178 -1 192
-3 15 -19 33 -36 42 -33 17 -45 18 -77 5z"/>
<path d="M3553 5299 c-28 -10 -63 -65 -63 -97 0 -68 121 -232 201 -273 88 -44
169 -5 169 83 0 89 -108 241 -193 272 -61 21 -89 25 -114 15z"/>
<path d="M3033 5120 c-195 -46 -293 -320 -147 -411 59 -36 137 -22 230 42 91
62 141 235 88 305 -42 57 -103 80 -171 64z m27 -165 c0 -17 -42 -84 -56 -89
-24 -9 -28 -2 -14 26 22 42 70 85 70 63z"/>
<path d="M4769 4735 c-46 -25 -52 -58 -46 -253 6 -195 23 -279 71 -352 65 -99
181 -113 258 -32 42 46 58 93 58 177 0 127 -53 251 -162 381 -80 95 -119 112
-179 79z"/>
<path d="M2658 4217 c-69 -31 -114 -110 -103 -179 16 -95 63 -154 153 -196 47
-21 65 -24 137 -20 67 3 95 10 147 36 120 59 170 129 154 215 -9 48 -45 77
-128 104 -158 51 -299 67 -360 40z"/>
<path d="M1123 4125 c-35 -25 -83 -131 -83 -184 0 -51 29 -123 63 -159 77 -83
221 -92 303 -20 45 40 64 77 64 128 0 84 -57 150 -188 216 -73 37 -125 43
-159 19z"/>
<path d="M5243 3915 c-101 -31 -167 -89 -211 -183 -21 -46 -23 -64 -20 -140 3
-71 9 -97 31 -142 70 -137 189 -196 328 -164 237 54 359 350 217 528 -14 17
-54 50 -88 74 -61 40 -66 42 -139 41 -42 0 -95 -6 -118 -14z m125 -307 c5 -25
-46 -48 -59 -27 -5 8 -9 22 -9 32 0 25 63 20 68 -5z"/>
<path d="M4232 3758 c-114 -17 -211 -96 -252 -204 -54 -144 14 -324 148 -391
59 -29 173 -25 237 9 70 37 130 100 168 177 28 57 32 77 35 166 3 80 1 109
-12 133 -40 77 -195 130 -324 110z m68 -286 c0 -18 -33 -52 -51 -52 -25 0 -24
8 3 37 21 22 48 31 48 15z"/>
<path d="M3463 3367 c-12 -7 -35 -30 -53 -52 -34 -43 -140 -248 -140 -271 0
-27 29 -72 51 -79 11 -4 36 -4 55 0 78 14 208 193 221 305 5 45 3 51 -25 79
-33 33 -71 39 -109 18z"/>
<path d="M1260 3240 c-116 -9 -181 -26 -270 -68 -97 -46 -179 -126 -223 -219
-29 -63 -32 -76 -32 -169 0 -96 1 -103 39 -179 83 -168 240 -278 441 -310 140
-22 195 -46 256 -113 62 -68 79 -100 119 -232 132 -436 163 -503 300 -641 97
-99 178 -148 296 -182 78 -22 85 -22 709 -21 1115 1 1276 26 1651 255 332 202
456 373 501 694 45 324 -43 550 -288 735 -169 127 -315 176 -504 167 -186 -9
-330 -60 -564 -201 -171 -104 -248 -137 -343 -148 -172 -20 -300 6 -473 96
-99 51 -129 71 -355 237 -144 105 -247 159 -397 208 -274 90 -536 118 -863 91z
m515 -401 c204 -28 321 -78 515 -219 69 -50 177 -124 240 -164 235 -149 344
-190 590 -221 164 -20 238 -19 337 5 116 28 185 59 352 159 253 153 337 186
471 186 76 0 93 -4 152 -33 78 -38 171 -119 198 -171 68 -133 46 -395 -44
-531 -50 -76 -275 -210 -452 -269 -186 -62 -393 -85 -894 -96 -288 -7 -789 7
-899 25 -125 21 -201 72 -249 167 -11 21 -48 126 -82 233 -91 284 -170 432
-300 561 -116 114 -249 180 -405 200 -96 12 -161 39 -176 73 -35 77 60 102
388 105 100 0 216 -4 258 -10z"/>
<path d="M474 2100 c-28 -11 -54 -48 -54 -76 0 -13 11 -35 23 -51 13 -15 39
-57 58 -92 62 -117 165 -200 249 -201 96 0 139 110 79 207 -30 48 -119 124
-202 171 -78 45 -120 57 -153 42z"/>
<path d="M5230 1213 c-14 -10 -38 -25 -54 -33 -49 -25 -70 -63 -70 -125 3
-163 169 -226 244 -92 16 28 24 62 28 122 5 83 4 84 -26 114 -36 36 -83 41
-122 14z"/>
</g>
</svg>
