<?xml version="1.0" standalone="no"?>
<!DOCTYPE svg PUBLIC "-//W3C//DTD SVG 20010904//EN"
 "http://www.w3.org/TR/2001/REC-SVG-20010904/DTD/svg10.dtd">
<svg version="1.0" xmlns="http://www.w3.org/2000/svg"
 width="600.000000pt" height="600.000000pt" viewBox="0 0 600.000000 600.000000"
 preserveAspectRatio="xMidYMid meet">
<metadata>
Created by potrace 1.15, written by Peter Selinger 2001-2017
</metadata>
<g transform="translate(0.000000,600.000000) scale(0.100000,-0.100000)"
fill="#16364b" stroke="none">
<path d="M1615 5758 c-40 -38 -49 -69 -92 -303 -21 -116 -27 -183 -27 -295 -1
-136 0 -148 24 -188 36 -64 100 -102 169 -102 73 1 127 26 197 92 136 128 364
470 364 545 0 82 -63 143 -147 143 -70 0 -98 -26 -164 -148 -55 -103 -130
-222 -140 -222 -3 0 6 73 22 163 16 89 28 182 29 207 0 84 -59 140 -148 140
-45 0 -57 -4 -87 -32z"/>
<path d="M3132 5580 c-62 -38 -87 -135 -50 -203 5 -10 89 -70 186 -134 129
-84 198 -137 255 -194 81 -82 95 -110 53 -102 -38 8 -92 -15 -125 -52 -97
-110 1 -237 183 -239 63 0 82 4 131 29 37 19 68 45 89 74 29 40 31 48 31 130
0 71 -5 94 -24 131 -93 177 -241 322 -524 514 -109 74 -146 82 -205 46z"/>
<path d="M873 5470 c-72 -15 -131 -47 -182 -98 -125 -125 -178 -360 -112 -496
30 -62 126 -157 187 -186 80 -39 164 -15 200 58 27 57 12 97 -62 168 -60 57
-64 65 -64 105 0 56 28 108 71 134 27 16 49 19 109 17 94 -3 132 17 162 84 34
78 2 160 -76 195 -51 22 -172 32 -233 19z"/>
<path d="M2936 5155 c-49 -17 -116 -83 -152 -148 -38 -71 -46 -185 -16 -243
41 -80 106 -116 211 -115 85 0 188 32 223 68 38 40 48 74 48 166 0 70 -4 91
-29 142 -33 70 -59 96 -121 124 -52 24 -109 26 -164 6z"/>
<path d="M2270 4863 c-8 -3 -23 -12 -32 -20 -9 -8 -61 -26 -114 -39 -94 -23
-181 -58 -215 -86 -51 -42 -64 -142 -26 -199 41 -61 107 -75 188 -40 24 11 85
27 134 36 116 22 163 38 199 71 81 76 73 209 -16 264 -31 19 -85 25 -118 13z"/>
<path d="M4765 4836 c-46 -20 -83 -69 -91 -123 -19 -127 24 -360 87 -470 66
-115 179 -180 297 -171 117 8 195 73 229 187 13 46 14 69 6 128 -25 171 -136
306 -343 417 -90 49 -131 56 -185 32z"/>
<path d="M2843 4110 c-146 -22 -237 -127 -220 -255 32 -229 321 -300 711 -175
111 36 139 55 162 115 30 79 0 156 -74 194 -55 28 -246 87 -337 104 -110 21
-181 26 -242 17z"/>
<path d="M1030 4058 c-130 -67 -145 -255 -27 -342 26 -19 40 -21 139 -18 l111
3 -18 -28 c-71 -111 -220 -259 -425 -424 -197 -157 -221 -189 -222 -283 -1
-74 32 -130 97 -164 46 -23 133 -21 177 5 35 21 37 21 53 3 9 -10 36 -23 61
-30 59 -17 99 -5 183 55 l65 45 20 -29 c11 -16 44 -43 73 -60 98 -59 125 -155
83 -292 -51 -168 -151 -317 -264 -393 -35 -23 -44 -25 -110 -19 -57 4 -79 2
-104 -11 -95 -49 -95 -191 0 -243 52 -28 196 -24 268 7 146 64 271 168 356
295 217 327 217 625 1 838 -38 37 -68 69 -66 71 10 8 143 67 165 72 19 5 32 0
52 -19 39 -36 65 -47 112 -47 47 0 85 17 120 55 24 26 25 32 23 135 -2 127
-21 183 -74 221 -45 32 -126 33 -189 2 -54 -27 -240 -93 -240 -86 0 3 23 30
51 61 27 32 69 94 92 140 38 77 41 90 41 166 1 76 -2 89 -34 152 -25 49 -49
79 -84 105 -76 58 -130 71 -296 76 -136 4 -148 3 -190 -19z"/>
<path d="M4219 3786 c-175 -51 -298 -202 -286 -352 8 -104 62 -184 161 -237
34 -18 57 -22 136 -22 85 0 101 3 150 29 113 59 219 209 249 353 34 158 -46
229 -269 238 -62 3 -111 0 -141 -9z m76 -306 c-19 -21 -55 -27 -55 -10 0 12
31 29 54 30 18 0 18 -1 1 -20z"/>
<path d="M3400 3399 c-67 -27 -133 -106 -200 -238 -26 -53 -31 -73 -27 -109 9
-82 84 -132 198 -132 71 1 125 26 177 85 100 114 114 284 30 362 -44 41 -120
55 -178 32z"/>
<path d="M5021 3263 c-271 -139 -366 -429 -192 -586 40 -36 119 -67 171 -67
44 0 132 30 182 62 58 36 99 87 136 165 23 50 27 71 27 148 0 78 -4 97 -27
140 -36 67 -106 145 -145 162 -49 20 -75 16 -152 -24z"/>
<path d="M2147 2499 c-51 -12 -113 -44 -167 -87 -76 -61 -238 -235 -262 -282
-13 -24 -47 -77 -76 -117 -111 -153 -213 -381 -248 -555 -69 -342 158 -745
519 -923 134 -66 196 -79 342 -72 330 16 572 142 753 392 56 77 178 322 226
453 97 265 130 504 86 632 -39 118 -133 209 -257 251 -83 29 -209 30 -323 4
-41 -10 -84 -19 -95 -21 -16 -4 -27 10 -59 76 -65 133 -160 215 -286 244 -72
17 -97 18 -153 5z m113 -484 c45 -114 102 -183 192 -232 57 -32 113 -29 276
11 75 19 155 36 177 38 l40 3 3 -49 c4 -66 -21 -187 -69 -331 -60 -179 -118
-289 -201 -385 -127 -147 -251 -205 -435 -204 -96 0 -105 2 -175 37 -141 69
-238 171 -270 282 -19 66 -14 181 11 265 30 101 110 261 167 335 25 33 54 78
64 101 22 51 170 228 180 217 5 -4 22 -44 40 -88z"/>
<path d="M3985 2442 c-51 -24 -91 -71 -105 -124 -9 -33 -8 -57 9 -131 11 -51
18 -93 16 -95 -2 -2 -13 2 -26 8 -13 7 -47 11 -85 8 -52 -3 -70 -9 -101 -34
-94 -75 -133 -186 -113 -323 25 -176 116 -464 163 -518 58 -66 142 -92 223
-68 56 16 95 52 118 106 14 34 18 36 75 42 181 19 294 161 278 351 -4 39 -29
152 -57 251 -29 99 -64 233 -80 298 -16 68 -38 133 -52 152 -51 76 -184 114
-263 77z"/>
</g>
</svg>
