<?xml version="1.0" standalone="no"?>
<!DOCTYPE svg PUBLIC "-//W3C//DTD SVG 20010904//EN"
 "http://www.w3.org/TR/2001/REC-SVG-20010904/DTD/svg10.dtd">
<svg version="1.0" xmlns="http://www.w3.org/2000/svg"
 width="600.000000pt" height="600.000000pt" viewBox="0 0 600.000000 600.000000"
 preserveAspectRatio="xMidYMid meet">
<metadata>
Created by potrace 1.15, written by Peter Selinger 2001-2017
</metadata>
<g transform="translate(0.000000,600.000000) scale(0.100000,-0.100000)"
fill="#16364b" stroke="none">
<path d="M3310 5442 c-51 -28 -73 -63 -77 -124 -7 -91 43 -145 145 -159 40 -6
63 -15 81 -34 24 -23 26 -32 25 -108 0 -69 -5 -94 -32 -157 -45 -105 -44 -151
6 -200 42 -42 89 -57 149 -45 75 14 124 99 158 279 36 187 1 340 -100 441 -95
96 -276 150 -355 107z"/>
<path d="M2094 5435 c-94 -42 -143 -206 -93 -315 44 -97 110 -132 280 -150 56
-5 104 -12 106 -13 2 -2 -11 -96 -28 -208 -36 -235 -38 -269 -15 -304 73 -112
250 -68 271 67 3 24 20 117 36 207 16 89 29 195 29 235 0 172 -119 289 -308
305 l-76 6 -1 47 c-5 106 -102 166 -201 123z"/>
<path d="M1645 4804 c-77 -8 -231 -35 -281 -49 -121 -35 -164 -177 -80 -261
52 -52 92 -57 207 -28 128 32 285 47 364 33 143 -24 176 -23 222 7 71 47 90
112 53 183 -23 45 -69 77 -143 98 -52 14 -265 25 -342 17z"/>
<path d="M4326 4530 c-58 -18 -96 -73 -96 -140 0 -77 53 -137 140 -160 73 -19
130 -57 147 -98 13 -31 14 -65 9 -199 -7 -155 -6 -165 14 -201 45 -79 145
-101 215 -48 63 48 76 93 82 284 5 140 3 177 -11 227 -42 145 -142 239 -323
304 -94 34 -139 42 -177 31z"/>
<path d="M3215 4440 c-11 -4 -71 -42 -132 -83 -62 -42 -205 -128 -318 -192
-113 -65 -216 -131 -230 -147 -68 -81 -45 -196 49 -245 56 -29 60 -28 466 214
194 115 323 205 348 243 45 67 11 175 -64 206 -37 15 -88 17 -119 4z"/>
<path d="M1544 4421 c-130 -79 -95 -260 56 -289 30 -6 138 -27 240 -46 226
-44 356 -58 403 -45 102 28 155 145 108 237 -29 56 -67 73 -189 83 -59 5 -196
24 -305 44 -227 40 -270 42 -313 16z"/>
<path d="M2220 3815 c-114 -30 -291 -47 -431 -42 -149 5 -192 -4 -236 -45 -82
-76 -67 -190 32 -242 36 -19 56 -21 190 -20 236 2 566 46 614 82 68 50 89 131
53 201 -36 72 -112 94 -222 66z"/>
<path d="M3690 3814 c-69 -18 -652 -309 -685 -342 -49 -49 -56 -143 -14 -196
56 -71 130 -74 276 -11 57 26 119 54 136 64 18 10 87 46 155 81 l123 63 38
-21 c52 -29 118 -29 162 1 54 35 74 87 74 187 0 73 -3 90 -23 118 -48 67 -128
86 -242 56z"/>
<path d="M4997 3494 c-69 -21 -131 -86 -153 -159 -14 -50 -14 -68 -4 -135 21
-137 2 -189 -143 -382 -184 -244 -359 -604 -341 -699 22 -111 114 -194 229
-206 64 -7 115 9 162 50 36 32 83 116 83 151 0 30 73 177 128 257 28 41 82
112 122 159 94 112 138 179 176 270 104 241 80 550 -51 662 -22 20 -107 48
-139 47 -12 0 -43 -7 -69 -15z"/>
<path d="M1993 3192 c-69 -37 -105 -122 -84 -200 26 -100 48 -108 418 -157 36
-5 45 -11 59 -41 45 -95 164 -112 247 -35 36 34 41 44 45 94 9 109 -73 218
-201 265 -29 11 -104 30 -167 42 -63 12 -146 28 -184 36 -85 17 -93 17 -133
-4z"/>
<path d="M4340 3153 c-8 -4 -51 -38 -95 -77 -44 -40 -101 -86 -126 -103 -136
-93 -422 -202 -589 -224 -143 -18 -191 -52 -206 -147 -9 -55 24 -123 74 -154
31 -19 49 -23 108 -21 214 6 596 137 778 267 90 64 216 180 248 228 55 81 31
180 -53 223 -28 15 -110 19 -139 8z"/>
<path d="M1328 2976 c-97 -43 -129 -134 -93 -266 8 -30 26 -137 40 -237 39
-286 53 -361 90 -496 36 -134 88 -258 131 -314 52 -68 148 -92 222 -54 47 24
66 45 91 101 33 72 28 130 -18 214 -67 122 -103 275 -150 641 -35 267 -48 319
-93 362 -60 58 -153 79 -220 49z"/>
<path d="M2146 2408 c-58 -11 -167 -59 -213 -94 -44 -33 -63 -73 -63 -129 0
-127 126 -183 260 -115 85 43 131 41 173 -6 123 -141 354 -28 283 139 -16 39
-104 124 -166 160 -51 29 -149 58 -195 56 -16 -1 -52 -5 -79 -11z"/>
<path d="M3845 2089 c-71 -10 -182 -25 -245 -34 -63 -9 -189 -34 -280 -56
-166 -39 -379 -79 -428 -79 -38 0 -100 -38 -135 -82 -35 -44 -47 -122 -28
-181 16 -47 80 -104 128 -113 60 -11 231 14 448 67 292 71 683 132 795 122 57
-4 69 -2 100 19 55 37 80 83 80 143 0 70 -21 115 -71 158 -70 61 -141 68 -364
36z"/>
<path d="M2200 1821 c-73 -38 -96 -107 -80 -232 18 -145 72 -250 184 -364 129
-132 203 -160 288 -113 65 37 102 121 78 182 -6 17 -51 68 -99 115 -73 71 -92
96 -110 144 -11 32 -21 79 -21 105 0 71 -34 132 -90 160 -54 27 -104 28 -150
3z"/>
<path d="M4715 1651 c-22 -10 -65 -45 -95 -76 -65 -67 -135 -115 -205 -139
-27 -9 -126 -33 -218 -52 -201 -41 -457 -117 -586 -173 -168 -73 -219 -118
-240 -213 -19 -83 14 -171 78 -211 60 -37 127 -30 256 27 171 75 371 143 596
201 113 29 234 65 269 80 139 59 297 178 359 271 26 40 31 57 31 106 0 91 -37
151 -113 183 -48 20 -83 19 -132 -4z"/>
<path d="M2045 1056 c-112 -51 -151 -213 -73 -306 57 -68 245 -199 373 -260
163 -77 277 -102 454 -102 246 1 490 83 541 181 59 117 15 250 -94 281 -52 14
-86 8 -179 -31 -96 -40 -224 -63 -322 -56 -153 10 -267 63 -416 192 -113 97
-144 115 -204 114 -27 0 -63 -6 -80 -13z"/>
</g>
</svg>
