<?xml version="1.0" standalone="no"?>
<!DOCTYPE svg PUBLIC "-//W3C//DTD SVG 20010904//EN"
 "http://www.w3.org/TR/2001/REC-SVG-20010904/DTD/svg10.dtd">
<svg version="1.0" xmlns="http://www.w3.org/2000/svg"
 width="600.000000pt" height="600.000000pt" viewBox="0 0 600.000000 600.000000"
 preserveAspectRatio="xMidYMid meet">
<metadata>
Created by potrace 1.15, written by Peter Selinger 2001-2017
</metadata>
<g transform="translate(0.000000,600.000000) scale(0.100000,-0.100000)"
fill="#16364b" stroke="none">
<path d="M1760 5778 c-54 -30 -69 -57 -146 -268 -151 -417 -150 -566 5 -645
44 -22 130 -16 188 14 69 35 184 133 283 241 52 57 130 141 172 186 83 88 99
125 79 187 -21 62 -101 117 -172 117 -53 0 -95 -29 -180 -123 -45 -51 -86 -93
-90 -95 -5 -2 12 57 38 130 l47 134 -18 47 c-33 87 -122 119 -206 75z"/>
<path d="M3012 5674 c-60 -31 -88 -91 -72 -157 11 -50 38 -78 129 -133 180
-108 387 -284 477 -406 42 -57 82 -143 71 -154 -3 -3 -30 -6 -61 -7 -38 -2
-64 -9 -83 -23 -119 -88 -85 -238 60 -265 96 -17 202 10 271 71 111 98 131
256 51 416 -96 195 -350 445 -629 619 -91 56 -156 68 -214 39z"/>
<path d="M860 5424 c-180 -49 -300 -224 -300 -441 0 -88 26 -174 77 -250 40
-61 114 -130 160 -149 71 -31 145 -9 192 57 25 34 31 52 31 93 0 60 -19 93
-77 135 -22 16 -48 40 -57 53 -22 31 -20 106 4 145 29 49 62 65 143 71 85 6
121 21 147 65 53 86 -6 202 -116 227 -56 14 -141 11 -204 -6z"/>
<path d="M2961 5175 c-94 -29 -184 -115 -216 -205 -64 -181 76 -336 285 -316
99 9 169 33 208 72 l34 34 -4 118 c-3 95 -8 127 -26 167 -56 122 -156 169
-281 130z"/>
<path d="M4775 4856 c-42 -19 -82 -62 -96 -104 -16 -48 -5 -227 20 -325 37
-142 110 -249 205 -300 58 -31 184 -31 242 0 53 28 99 76 126 132 18 36 23 64
23 126 0 69 -5 89 -32 148 -53 112 -182 231 -330 306 -67 33 -110 38 -158 17z"/>
<path d="M2025 4837 c-72 -19 -152 -65 -175 -102 -44 -72 -15 -166 64 -204 50
-25 79 -26 136 -6 65 23 78 20 84 -17 3 -18 8 -50 11 -71 4 -26 18 -50 45 -77
64 -64 154 -64 216 1 24 25 29 39 32 98 9 159 -68 310 -188 364 -55 25 -157
31 -225 14z"/>
<path d="M1205 4079 c-113 -12 -225 -37 -259 -57 -123 -72 -108 -275 26 -343
34 -18 52 -20 100 -15 32 3 58 3 58 0 0 -5 -99 -136 -227 -299 -202 -257 -357
-510 -377 -614 -20 -110 76 -220 192 -221 62 0 97 18 234 120 68 50 180 128
251 173 70 45 191 123 268 174 116 76 145 91 160 82 103 -55 -96 -545 -369
-908 -47 -63 -105 -136 -128 -162 -71 -80 -68 -176 8 -244 31 -28 46 -35 81
-35 58 0 95 25 169 116 185 224 269 356 421 659 98 194 140 302 153 389 4 27
18 65 32 85 24 35 24 40 19 166 -7 171 -30 245 -95 315 -60 64 -112 80 -197
61 -54 -12 -110 -46 -348 -211 -21 -15 -22 -14 -7 7 211 303 240 350 263 417
58 169 -48 312 -256 346 -68 11 -71 11 -172 -1z"/>
<path d="M2910 4081 c-229 -42 -316 -271 -152 -397 110 -84 376 -116 645 -78
137 19 193 44 225 99 28 48 26 122 -5 163 -33 46 -267 151 -425 193 -85 22
-223 32 -288 20z"/>
<path d="M4233 3800 c-160 -29 -272 -115 -304 -234 -18 -66 -6 -172 26 -241
61 -127 153 -189 281 -189 135 0 252 84 327 232 47 94 91 261 82 309 -10 54
-58 98 -125 112 -74 17 -224 22 -287 11z m17 -335 c-26 -27 -50 -33 -50 -12 0
14 34 35 59 36 10 1 7 -7 -9 -24z"/>
<path d="M3415 3406 c-56 -21 -107 -82 -165 -199 -41 -81 -50 -108 -50 -151 0
-105 63 -156 197 -158 123 -1 186 41 241 160 34 75 36 198 4 259 -42 81 -142
120 -227 89z"/>
<path d="M4971 3159 c-84 -56 -164 -149 -213 -246 -72 -144 -63 -279 25 -379
72 -82 193 -97 310 -39 222 110 284 419 122 615 -83 102 -146 114 -244 49z"/>
<path d="M3896 2616 c-54 -20 -85 -45 -121 -95 -27 -39 -30 -50 -30 -119 0
-62 7 -99 38 -190 20 -62 37 -115 37 -117 0 -1 -28 6 -62 17 -106 33 -200 9
-268 -68 -83 -95 -96 -237 -44 -491 17 -85 85 -294 117 -358 91 -186 327 -190
434 -7 22 38 28 59 28 109 0 61 0 62 25 55 14 -4 55 -7 91 -7 53 0 78 7 131
33 102 50 148 126 148 246 0 80 -14 137 -109 445 -44 141 -92 300 -107 355
-16 58 -37 110 -52 128 -54 64 -175 94 -256 64z"/>
<path d="M1965 2282 c-33 -16 -79 -46 -102 -66 -54 -47 -146 -170 -189 -252
-19 -36 -45 -80 -59 -98 -68 -89 -125 -260 -169 -511 -33 -189 -38 -256 -27
-347 33 -250 174 -430 447 -570 182 -94 356 -134 535 -125 233 12 443 125 562
301 22 34 56 79 74 101 39 45 149 257 188 360 29 77 103 334 135 466 51 214 1
355 -152 425 -54 24 -75 28 -148 28 -102 -1 -197 -30 -413 -128 l-141 -64 -32
93 c-50 148 -101 242 -169 310 -75 76 -120 98 -210 103 -61 3 -78 -1 -130 -26z
m128 -485 c9 -30 23 -96 31 -148 25 -161 40 -190 133 -250 53 -35 76 -44 122
-47 54 -4 64 -1 197 66 158 79 356 168 396 177 l27 7 -18 -64 c-53 -181 -202
-532 -246 -578 -13 -14 -44 -55 -68 -90 -83 -125 -215 -187 -376 -178 -75 5
-99 11 -173 45 -147 69 -260 159 -302 240 -30 59 -41 155 -27 246 21 137 100
349 179 483 24 39 98 144 103 144 3 0 13 -24 22 -53z"/>
</g>
</svg>
