<?xml version="1.0" standalone="no"?>
<!DOCTYPE svg PUBLIC "-//W3C//DTD SVG 20010904//EN"
 "http://www.w3.org/TR/2001/REC-SVG-20010904/DTD/svg10.dtd">
<svg version="1.0" xmlns="http://www.w3.org/2000/svg"
 width="600.000000pt" height="600.000000pt" viewBox="0 0 600.000000 600.000000"
 preserveAspectRatio="xMidYMid meet">
<metadata>
Created by potrace 1.15, written by Peter Selinger 2001-2017
</metadata>
<g transform="translate(0.000000,600.000000) scale(0.100000,-0.100000)"
fill="#16364b" stroke="none">
<path d="M3104 5660 c-32 -13 -72 -67 -80 -105 -17 -92 28 -148 265 -328 150
-113 250 -202 270 -241 22 -40 -2 -64 -197 -193 l-177 -118 -57 3 c-46 3 -72
-4 -145 -33 -211 -88 -315 -167 -348 -265 -39 -118 32 -231 167 -267 71 -18
94 -17 144 7 67 33 93 113 59 180 -14 27 -14 30 6 41 17 9 29 7 60 -6 72 -33
106 -21 305 110 396 260 467 336 467 500 0 82 -20 135 -87 229 -52 73 -102
121 -261 248 -66 53 -149 126 -184 163 -36 37 -76 71 -89 76 -29 11 -90 11
-118 -1z"/>
<path d="M1804 5370 c-47 -19 -105 -126 -90 -166 3 -7 -35 -70 -85 -139 -119
-165 -144 -219 -144 -310 0 -59 4 -78 28 -118 74 -125 206 -147 514 -86 174
35 212 50 243 101 36 60 20 130 -43 185 -61 53 -101 58 -225 29 -160 -37 -172
-39 -172 -27 0 6 31 54 69 108 121 172 150 257 117 336 -24 55 -87 97 -145 96
-25 0 -55 -4 -67 -9z"/>
<path d="M1135 5331 c-119 -68 -296 -248 -347 -354 -67 -135 -54 -326 34 -502
59 -118 102 -155 177 -155 80 0 145 55 158 134 5 29 -2 52 -38 123 -37 74 -44
99 -47 160 -4 60 0 80 21 126 32 71 83 126 167 181 83 55 112 93 117 155 11
131 -119 203 -242 132z"/>
<path d="M4592 4700 c-69 -43 -81 -148 -24 -220 l31 -38 -20 -18 c-33 -30 -49
-69 -49 -120 0 -43 4 -51 44 -90 58 -55 138 -85 241 -91 260 -16 420 156 326
350 -48 99 -156 172 -327 222 -106 31 -177 32 -222 5z"/>
<path d="M1847 4296 c-160 -37 -371 -165 -411 -251 -49 -102 31 -235 141 -235
55 0 73 10 145 76 32 29 86 67 121 84 56 27 74 31 160 33 79 2 100 6 123 23
49 36 66 68 66 122 0 64 -28 113 -80 138 -47 23 -186 28 -265 10z"/>
<path d="M2610 3755 c-36 -8 -116 -31 -177 -50 -127 -40 -177 -77 -189 -140
-13 -72 11 -124 77 -164 43 -27 99 -27 192 -1 39 11 108 23 151 27 l79 6 -7
-39 c-11 -61 -89 -205 -184 -343 -136 -198 -224 -333 -239 -368 -15 -37 -17
-91 -4 -125 24 -62 109 -106 180 -93 56 11 108 73 334 404 55 81 130 239 173
366 33 98 37 121 38 215 1 99 -1 108 -29 160 -70 127 -223 184 -395 145z"/>
<path d="M4034 3749 c-62 -18 -127 -71 -157 -129 -26 -50 -28 -62 -25 -130 5
-93 37 -157 113 -229 112 -106 253 -138 367 -82 97 46 187 174 196 276 3 42
-1 56 -22 88 -14 21 -26 48 -26 60 0 32 -35 84 -71 106 -65 40 -293 64 -375
40z"/>
<path d="M1117 3581 c-64 -21 -257 -113 -300 -143 -71 -50 -88 -171 -34 -241
43 -57 89 -79 161 -79 34 0 73 5 85 12 13 6 24 10 27 8 2 -2 -34 -99 -81 -215
-105 -266 -151 -407 -175 -551 -34 -192 -24 -268 42 -329 51 -48 180 -77 237
-53 30 12 168 159 439 465 216 245 259 291 268 283 11 -11 -71 -423 -129 -648
-93 -362 -105 -454 -70 -527 48 -103 204 -115 261 -21 12 19 25 71 32 123 7
50 34 167 60 260 75 264 148 571 161 669 6 50 9 159 7 250 -4 138 -7 168 -26
209 -47 105 -101 147 -190 147 -100 0 -174 -61 -438 -357 -64 -73 -119 -131
-121 -130 -2 2 22 66 52 143 96 238 118 322 119 449 1 102 -1 113 -26 156 -32
55 -85 103 -135 124 -48 20 -155 18 -226 -4z"/>
<path d="M3614 3310 c-166 -34 -288 -200 -289 -397 0 -67 15 -97 69 -137 42
-32 130 -29 183 6 24 15 67 31 104 38 255 44 346 250 183 412 -66 67 -160 96
-250 78z"/>
<path d="M4750 2969 c-72 -29 -130 -133 -130 -233 0 -132 105 -331 202 -382
35 -18 101 -18 137 1 40 20 79 70 87 110 9 49 -22 140 -61 179 -45 44 -58 87
-38 127 22 44 13 122 -18 156 -44 48 -120 65 -179 42z"/>
<path d="M2907 2554 c-165 -36 -496 -182 -547 -240 -28 -33 -50 -89 -50 -129
1 -30 34 -97 61 -122 62 -57 142 -66 234 -27 126 54 341 141 363 147 27 6 27
4 3 -64 -30 -84 -67 -164 -141 -299 -38 -69 -71 -144 -75 -166 -12 -79 29
-165 97 -200 64 -33 181 -11 230 43 41 45 223 451 265 592 34 114 37 244 6
312 -26 59 -77 109 -139 139 -63 30 -207 37 -307 14z"/>
<path d="M4475 2343 c-11 -2 -30 -6 -43 -9 -13 -2 -43 -23 -67 -45 -64 -59
-79 -113 -71 -245 l7 -103 -109 39 c-145 51 -259 74 -331 66 -125 -14 -248
-108 -291 -223 -30 -81 -34 -153 -16 -283 9 -63 19 -169 22 -235 7 -146 23
-200 72 -248 48 -46 98 -67 164 -67 127 1 228 105 228 236 0 22 -7 97 -15 168
-8 71 -13 131 -11 134 6 6 154 -34 203 -55 51 -21 198 -12 276 17 113 42 202
141 232 256 32 125 10 405 -40 490 -26 45 -84 89 -130 99 -53 12 -60 13 -80 8z"/>
<path d="M2135 1878 c-50 -18 -92 -55 -114 -101 -25 -51 -26 -95 -6 -165 9
-28 29 -120 46 -203 34 -173 63 -265 123 -394 52 -110 108 -169 255 -267 135
-90 191 -118 249 -123 34 -3 78 -21 157 -64 147 -81 219 -105 320 -106 90 0
153 15 240 57 101 50 148 91 172 153 50 129 -74 281 -211 261 -28 -5 -67 -22
-103 -47 -50 -35 -64 -39 -98 -35 -68 8 -287 128 -342 187 -12 13 -38 56 -57
94 -67 134 -137 192 -238 197 l-53 3 -12 50 c-7 28 -22 102 -33 165 -38 216
-69 283 -152 326 -38 20 -107 26 -143 12z"/>
</g>
</svg>
