<?xml version="1.0" standalone="no"?>
<!DOCTYPE svg PUBLIC "-//W3C//DTD SVG 20010904//EN"
 "http://www.w3.org/TR/2001/REC-SVG-20010904/DTD/svg10.dtd">
<svg version="1.0" xmlns="http://www.w3.org/2000/svg"
 width="600.000000pt" height="600.000000pt" viewBox="0 0 600.000000 600.000000"
 preserveAspectRatio="xMidYMid meet">
<metadata>
Created by potrace 1.15, written by Peter Selinger 2001-2017
</metadata>
<g transform="translate(0.000000,600.000000) scale(0.100000,-0.100000)"
fill="#16364b" stroke="none">
<path d="M2365 5396 c-17 -12 -18 -32 -20 -237 -2 -252 -14 -321 -79 -454 -44
-88 -105 -148 -203 -200 -59 -30 -80 -47 -88 -68 -12 -37 9 -77 49 -90 24 -8
41 -3 113 33 247 126 353 368 353 805 0 209 -5 225 -69 225 -20 0 -46 -6 -56
-14z"/>
<path d="M3527 5299 c-23 -14 -47 -62 -47 -97 0 -72 112 -222 195 -261 62 -29
98 -27 137 8 29 26 33 35 32 78 0 57 -32 116 -102 194 -68 76 -161 110 -215
78z"/>
<path d="M2969 5092 c-136 -87 -174 -304 -64 -372 87 -54 225 10 279 130 30
66 34 141 12 195 -33 77 -143 100 -227 47z m101 -127 c0 -31 -28 -81 -55 -99
-35 -23 -40 -16 -20 30 25 61 75 106 75 69z"/>
<path d="M4773 4740 c-49 -21 -56 -48 -50 -208 12 -300 74 -449 194 -459 138
-12 205 139 145 332 -27 89 -101 219 -161 285 -48 53 -86 68 -128 50z"/>
<path d="M2667 4206 c-92 -33 -130 -118 -93 -207 26 -61 102 -119 191 -144
107 -32 254 -2 348 69 52 40 71 76 63 122 -12 62 -40 81 -174 119 -206 57
-267 65 -335 41z"/>
<path d="M5250 3984 c-156 -42 -249 -174 -238 -338 12 -179 152 -316 324 -316
147 0 280 78 347 204 18 34 22 57 22 136 0 80 -4 102 -23 138 -37 69 -89 119
-164 157 -62 31 -80 35 -142 34 -39 0 -96 -7 -126 -15z m153 -323 c11 -11 -27
-51 -48 -51 -18 0 -38 37 -31 57 5 12 14 14 38 9 18 -3 36 -10 41 -15z"/>
<path d="M4190 3756 c-125 -33 -224 -148 -251 -290 -21 -113 38 -226 146 -281
51 -26 69 -30 139 -30 66 0 91 5 136 26 138 65 219 220 208 396 -5 74 -25 107
-87 142 -87 48 -198 63 -291 37z m90 -285 c0 -20 -14 -34 -42 -44 -29 -10 -31
11 -4 38 30 30 46 32 46 6z"/>
<path d="M992 3370 c-125 -37 -206 -100 -254 -198 -41 -83 -49 -179 -23 -268
62 -216 219 -334 444 -334 80 0 177 -18 220 -39 82 -42 168 -167 201 -291 29
-113 161 -571 178 -620 67 -192 184 -335 342 -415 168 -85 301 -103 910 -125
124 -4 302 -11 395 -15 131 -6 205 -4 320 9 83 9 224 21 315 27 261 17 390 58
713 222 264 134 336 210 422 441 96 259 99 425 14 701 -47 151 -90 229 -173
310 -84 83 -174 131 -321 172 -87 24 -118 27 -245 28 -150 0 -187 -6 -340 -53
-115 -36 -216 -88 -403 -210 -86 -57 -181 -114 -211 -128 -122 -55 -269 -57
-426 -5 -150 51 -299 139 -564 335 -346 256 -474 320 -812 404 -283 71 -566
92 -702 52z m368 -377 c109 -17 506 -128 601 -168 114 -48 191 -95 371 -232
336 -253 470 -325 743 -398 95 -26 328 -32 417 -11 100 24 214 81 333 166 260
186 442 260 646 262 125 1 190 -19 270 -80 106 -80 152 -195 152 -377 0 -162
-49 -301 -139 -391 -50 -51 -266 -160 -414 -208 -138 -46 -235 -62 -524 -87
-228 -19 -268 -20 -751 -10 -280 6 -541 14 -578 17 -127 10 -239 62 -301 137
-83 102 -185 373 -236 627 -34 172 -58 248 -106 330 -57 97 -195 213 -342 285
-100 48 -158 65 -268 74 -106 10 -142 20 -163 45 -17 21 -11 27 36 37 45 8
124 3 253 -18z"/>
<path d="M2157 2292 c-31 -34 -20 -85 24 -107 47 -25 88 4 89 61 0 18 -8 38
-18 47 -25 22 -75 21 -95 -1z"/>
<path d="M2900 2083 c-28 -10 -50 -36 -50 -59 0 -21 50 -74 70 -74 22 0 42 15
55 41 20 38 19 46 -10 74 -24 25 -37 28 -65 18z"/>
<path d="M3406 3336 c-43 -44 -137 -237 -143 -291 -4 -35 -1 -46 18 -64 61
-57 157 7 231 155 51 104 60 167 28 207 -17 21 -30 27 -62 27 -33 0 -46 -6
-72 -34z"/>
<path d="M466 2027 c-36 -36 -33 -69 9 -114 139 -152 149 -161 206 -177 44
-13 63 -14 85 -6 69 27 91 78 59 140 -31 61 -208 168 -292 178 -35 4 -46 0
-67 -21z"/>
<path d="M5323 1105 c-26 -18 -63 -112 -63 -161 0 -77 64 -133 134 -118 67 14
96 64 96 168 0 71 -1 75 -31 100 -36 30 -101 35 -136 11z"/>
</g>
</svg>
