<?xml version="1.0" standalone="no"?>
<!DOCTYPE svg PUBLIC "-//W3C//DTD SVG 20010904//EN"
 "http://www.w3.org/TR/2001/REC-SVG-20010904/DTD/svg10.dtd">
<svg version="1.0" xmlns="http://www.w3.org/2000/svg"
 width="600.000000pt" height="600.000000pt" viewBox="0 0 600.000000 600.000000"
 preserveAspectRatio="xMidYMid meet">
<metadata>
Created by potrace 1.15, written by Peter Selinger 2001-2017
</metadata>
<g transform="translate(0.000000,600.000000) scale(0.100000,-0.100000)"
fill="#16364b" stroke="none">
<path d="M1667 5786 c-75 -27 -84 -43 -130 -246 -45 -196 -61 -350 -48 -446
13 -91 22 -113 63 -159 86 -98 211 -86 339 32 99 92 281 331 348 458 44 83 18
191 -54 221 -91 38 -143 7 -238 -139 -87 -133 -159 -225 -164 -211 -2 6 14 82
37 168 22 86 40 173 40 194 0 52 -32 99 -83 122 -50 23 -60 23 -110 6z"/>
<path d="M3175 5586 c-72 -32 -103 -110 -70 -179 11 -24 39 -50 88 -82 103
-69 216 -165 284 -243 62 -70 113 -135 113 -144 0 -3 -21 -3 -47 -1 -65 6
-112 -25 -129 -85 -23 -78 10 -141 94 -179 74 -35 196 -37 257 -6 52 27 93 68
112 113 24 57 13 161 -26 239 -81 165 -286 388 -466 508 -114 77 -149 86 -210
59z"/>
<path d="M845 5440 c-155 -51 -264 -203 -282 -392 -10 -113 31 -224 115 -311
53 -54 108 -87 148 -87 69 0 144 80 144 155 0 48 -13 71 -70 125 -53 49 -66
81 -56 135 7 37 45 89 80 107 11 6 54 11 94 9 84 -2 123 14 152 62 40 65 14
148 -59 191 -51 30 -186 33 -266 6z"/>
<path d="M2983 5165 c-228 -62 -326 -332 -168 -463 20 -16 55 -35 77 -41 92
-28 249 -5 315 45 48 36 58 85 44 212 -16 156 -58 227 -146 251 -49 13 -57 13
-122 -4z"/>
<path d="M2250 4826 c-14 -7 -47 -17 -75 -20 -78 -11 -165 -36 -222 -62 -63
-30 -93 -73 -93 -135 0 -114 105 -170 223 -120 25 11 92 29 148 41 123 26 147
35 177 63 70 65 67 168 -5 221 -34 25 -119 31 -153 12z"/>
<path d="M4739 4817 c-61 -40 -71 -74 -65 -217 13 -321 136 -493 351 -493 137
0 227 69 261 203 13 53 14 73 4 124 -22 114 -82 193 -213 280 -190 126 -268
150 -338 103z"/>
<path d="M2807 4119 c-93 -22 -177 -95 -198 -173 -17 -64 4 -138 53 -192 75
-82 192 -119 368 -118 108 1 321 30 396 54 69 23 112 105 95 180 -17 74 -70
112 -261 183 -171 64 -351 90 -453 66z"/>
<path d="M1092 4070 c-69 -10 -124 -47 -151 -102 -37 -78 -23 -166 35 -219 44
-40 82 -48 184 -42 51 3 90 2 90 -3 0 -19 -75 -99 -348 -372 -173 -172 -289
-296 -298 -317 -45 -109 33 -230 157 -241 40 -4 63 -1 89 13 35 18 36 18 78
-6 71 -39 122 -28 226 47 46 34 89 62 94 62 5 0 17 -11 25 -24 9 -12 31 -31
51 -40 86 -41 122 -109 113 -215 -14 -167 -131 -382 -255 -472 l-57 -40 -75 6
c-65 5 -79 3 -108 -15 -45 -28 -75 -97 -66 -147 10 -54 66 -107 134 -127 174
-52 350 34 514 248 115 149 182 336 193 536 10 178 -31 296 -139 402 l-58 58
57 29 c91 45 101 46 123 18 24 -30 79 -57 116 -57 49 0 113 38 134 81 23 44
24 62 9 181 -13 99 -33 138 -88 175 -49 33 -107 30 -184 -8 -75 -38 -215 -99
-228 -99 -5 0 14 28 42 63 95 117 147 250 136 352 -15 146 -111 246 -262 274
-65 12 -202 13 -283 1z"/>
<path d="M4202 3771 c-29 -10 -77 -35 -107 -55 -214 -148 -209 -438 10 -554
42 -22 63 -27 130 -27 69 0 88 4 135 29 114 60 217 200 255 351 28 110 16 167
-44 218 -64 53 -274 74 -379 38z m85 -326 c-32 -28 -47 -32 -47 -10 0 17 27
34 55 34 18 0 17 -2 -8 -24z"/>
<path d="M3385 3382 c-85 -40 -215 -233 -215 -319 0 -48 31 -99 76 -125 49
-28 177 -29 229 -1 129 69 203 251 147 363 -39 79 -157 119 -237 82z"/>
<path d="M5018 3259 c-185 -101 -287 -251 -276 -408 12 -160 131 -273 273
-258 156 16 291 143 326 307 22 103 -11 215 -93 311 -76 89 -132 100 -230 48z"/>
<path d="M2085 2501 c-61 -29 -117 -82 -196 -189 -39 -53 -93 -122 -119 -152
-26 -30 -55 -71 -65 -90 -10 -19 -36 -57 -59 -85 -98 -116 -178 -269 -216
-410 -27 -98 -38 -303 -21 -396 74 -425 335 -654 809 -709 231 -27 466 51 638
213 166 155 295 357 363 568 92 287 130 559 97 689 -50 195 -186 289 -387 269
-58 -6 -236 -47 -282 -65 -11 -4 -18 5 -27 33 -41 128 -141 241 -267 301 -66
31 -90 37 -153 39 -56 2 -85 -2 -115 -16z m174 -494 c28 -104 49 -141 115
-208 44 -45 66 -59 104 -68 54 -14 72 -11 257 42 66 19 139 38 163 42 l42 7 0
-59 c0 -147 -63 -383 -142 -536 -80 -153 -205 -290 -317 -345 l-75 -37 -135 0
c-134 0 -137 0 -203 34 -100 50 -181 128 -222 214 -41 86 -56 160 -56 277 0
155 51 282 165 409 36 39 72 86 81 104 23 44 186 219 195 210 4 -5 17 -43 28
-86z"/>
<path d="M3985 2464 c-50 -18 -83 -49 -106 -99 -24 -51 -23 -82 1 -175 27
-104 28 -101 -30 -82 -86 27 -173 -8 -234 -96 -89 -129 -85 -275 16 -581 57
-173 88 -222 160 -259 94 -48 187 -38 250 28 20 22 41 54 47 72 11 32 13 34
65 34 106 2 214 76 262 180 50 108 43 217 -31 459 -26 83 -60 207 -76 276 -33
137 -50 174 -101 211 -65 49 -146 60 -223 32z"/>
</g>
</svg>
