<?xml version="1.0" standalone="no"?>
<!DOCTYPE svg PUBLIC "-//W3C//DTD SVG 20010904//EN"
 "http://www.w3.org/TR/2001/REC-SVG-20010904/DTD/svg10.dtd">
<svg version="1.0" xmlns="http://www.w3.org/2000/svg"
 width="600.000000pt" height="600.000000pt" viewBox="0 0 600.000000 600.000000"
 preserveAspectRatio="xMidYMid meet">
<metadata>
Created by potrace 1.15, written by Peter Selinger 2001-2017
</metadata>
<g transform="translate(0.000000,600.000000) scale(0.100000,-0.100000)"
fill="#16364b" stroke="none">
<path d="M2439 5467 c-43 -29 -70 -69 -109 -163 -55 -133 -51 -252 12 -328 71
-87 167 -102 403 -63 82 14 152 24 154 22 1 -2 -30 -41 -71 -87 -185 -209
-380 -509 -416 -641 -14 -50 2 -146 32 -189 11 -17 38 -40 58 -50 36 -19 40
-19 175 -2 162 21 506 24 625 6 108 -16 166 7 205 82 34 66 -4 173 -72 202
-56 23 -258 37 -452 31 -101 -3 -183 -3 -183 -1 0 9 118 195 171 269 32 44
107 134 169 200 124 134 160 194 160 267 0 92 -52 158 -157 199 -82 32 -254
32 -411 0 -62 -13 -116 -20 -120 -17 -3 4 6 31 21 62 31 62 34 111 12 155 -36
68 -139 91 -206 46z"/>
<path d="M1643 5085 c-154 -53 -363 -210 -496 -373 -76 -93 -90 -125 -85 -184
10 -102 70 -142 226 -152 124 -8 271 -38 316 -64 26 -15 36 -33 62 -110 43
-127 79 -162 169 -162 119 0 177 86 147 220 -43 194 -156 318 -350 383 -40 13
-75 27 -78 29 -5 5 82 65 133 91 18 10 54 22 81 27 67 15 108 42 132 89 25 51
25 93 0 146 -41 84 -127 104 -257 60z"/>
<path d="M4160 4785 c-119 -25 -240 -76 -356 -150 -66 -42 -92 -99 -75 -163
22 -80 94 -132 163 -118 17 3 69 28 117 56 90 52 140 72 205 84 l39 7 -5 -63
c-7 -82 -60 -239 -138 -407 -56 -122 -62 -139 -58 -185 7 -72 57 -149 115
-177 44 -21 46 -21 131 -5 220 42 379 56 461 40 27 -6 31 -10 31 -40 0 -39
-65 -297 -109 -435 -52 -160 -36 -233 60 -272 38 -16 51 -17 88 -7 70 19 93
50 138 190 90 277 131 473 120 576 -12 118 -85 201 -214 246 -62 21 -85 23
-264 23 l-196 0 23 52 c137 310 150 545 35 675 -64 73 -182 101 -311 73z"/>
<path d="M2070 3971 c-51 -30 -377 -120 -495 -137 -27 -4 -64 -13 -82 -20 -36
-16 -77 -66 -87 -107 -15 -63 33 -152 95 -178 41 -17 139 -3 355 50 207 51
345 96 379 123 32 25 55 75 55 120 0 46 -36 114 -74 138 -35 21 -117 27 -146
11z"/>
<path d="M3745 3689 c-113 -26 -448 -220 -485 -281 -58 -95 15 -218 130 -218
37 0 62 10 145 61 94 57 228 129 240 129 26 0 -39 -181 -123 -344 -48 -92 -82
-144 -119 -181 -58 -58 -76 -104 -63 -161 16 -71 80 -124 148 -124 43 0 233
62 354 115 258 115 377 227 378 355 0 84 -68 151 -154 152 -56 1 -101 -24
-130 -75 -24 -41 -66 -77 -66 -57 0 5 8 31 19 57 50 128 70 321 42 415 -17 59
-72 125 -125 149 -44 20 -124 23 -191 8z"/>
<path d="M2435 3399 c-33 -4 -100 -16 -150 -25 -216 -39 -261 -61 -291 -139
-14 -39 -15 -52 -5 -87 16 -53 57 -93 110 -108 37 -10 54 -7 148 19 145 42
309 69 324 54 15 -15 -10 -98 -61 -205 -22 -45 -40 -97 -40 -115 0 -106 106
-186 204 -153 51 16 88 65 129 168 93 232 100 357 26 473 -68 107 -197 146
-394 118z"/>
<path d="M1155 3120 c-134 -29 -198 -106 -182 -221 11 -80 91 -158 162 -159
20 0 20 -6 20 -322 0 -323 5 -392 41 -548 24 -107 79 -171 161 -186 92 -17
203 76 203 172 0 18 9 28 37 39 52 22 67 38 112 120 92 166 251 375 287 375
17 0 17 -20 4 -247 -7 -132 -16 -191 -46 -317 l-37 -154 17 -47 c43 -111 198
-135 283 -43 27 29 48 78 75 177 18 67 21 112 25 378 3 200 1 320 -6 354 -13
60 -53 143 -84 178 -32 35 -115 71 -165 71 -57 0 -152 -33 -221 -77 -67 -42
-238 -213 -266 -266 -11 -20 -22 -37 -25 -37 -4 0 -4 98 -2 218 3 141 0 236
-7 272 -25 118 -93 214 -180 253 -51 22 -146 30 -206 17z"/>
<path d="M4852 2857 c-45 -14 -118 -81 -144 -131 -15 -29 -22 -62 -23 -110 -1
-49 -6 -72 -16 -78 -8 -4 -65 -26 -127 -47 -251 -87 -371 -200 -417 -393 -41
-175 4 -402 109 -548 l34 -48 -38 -17 c-21 -9 -53 -32 -71 -51 -18 -19 -43
-34 -55 -34 -12 0 -68 14 -125 31 -132 39 -297 50 -401 25 -180 -42 -385 -203
-526 -413 -19 -29 -39 -53 -44 -53 -4 0 -45 -34 -89 -75 -74 -69 -83 -75 -123
-75 -101 0 -227 159 -335 421 -34 83 -66 120 -123 143 -136 57 -294 -65 -274
-212 7 -57 131 -312 206 -426 63 -94 177 -208 256 -256 218 -131 427 -102 638
89 31 28 63 51 70 51 26 0 73 48 140 144 82 115 198 229 263 258 66 30 151 28
282 -6 151 -39 249 -44 331 -16 79 26 147 69 194 120 52 58 66 92 66 160 l0
60 38 0 c46 0 128 38 164 76 57 61 72 140 42 229 -13 35 -36 67 -89 119 -40
39 -78 81 -84 93 -17 33 -17 92 0 107 8 8 73 37 144 65 195 78 296 153 369
275 90 149 85 377 -9 471 -59 60 -148 80 -233 52z"/>
<path d="M3280 2424 c-14 -2 -59 -9 -100 -15 -136 -19 -533 -119 -567 -142
-104 -70 -95 -234 16 -312 61 -43 111 -39 381 24 124 29 255 55 292 58 l67 6
-1 -65 c-3 -173 158 -275 296 -188 57 36 77 77 102 203 14 73 15 98 6 149 -25
133 -97 217 -227 262 -49 17 -212 29 -265 20z"/>
</g>
</svg>
