<?xml version="1.0" standalone="no"?>
<!DOCTYPE svg PUBLIC "-//W3C//DTD SVG 20010904//EN"
 "http://www.w3.org/TR/2001/REC-SVG-20010904/DTD/svg10.dtd">
<svg version="1.0" xmlns="http://www.w3.org/2000/svg"
 width="600.000000pt" height="600.000000pt" viewBox="0 0 600.000000 600.000000"
 preserveAspectRatio="xMidYMid meet">
<metadata>
Created by potrace 1.15, written by Peter Selinger 2001-2017
</metadata>
<g transform="translate(0.000000,600.000000) scale(0.100000,-0.100000)"
fill="#16364b" stroke="none">
<path d="M3085 5651 c-69 -31 -93 -105 -59 -176 23 -49 193 -210 328 -309 137
-102 193 -155 202 -193 6 -24 1 -33 -44 -73 -28 -25 -117 -87 -198 -139 l-147
-93 -34 16 c-49 23 -85 20 -171 -16 -178 -73 -289 -155 -337 -248 -56 -108 -6
-250 104 -297 99 -43 197 -33 252 23 31 32 34 40 34 99 0 56 -3 67 -29 94
l-28 29 31 16 c28 15 33 15 73 -6 60 -32 119 -30 188 6 105 54 261 150 333
204 221 166 295 299 252 449 -37 127 -126 231 -335 389 -63 48 -150 118 -192
156 -100 90 -146 104 -223 69z"/>
<path d="M1850 5413 c-42 -22 -75 -69 -85 -120 -4 -25 -33 -72 -80 -135 -130
-172 -186 -294 -188 -408 -1 -104 46 -165 146 -191 73 -18 277 -6 432 26 144
29 186 46 215 82 66 85 3 210 -123 244 -32 8 -61 6 -146 -10 -170 -32 -181
-34 -181 -24 0 6 22 41 50 79 148 204 170 245 170 309 0 113 -118 196 -210
148z"/>
<path d="M1108 5346 c-89 -37 -142 -72 -192 -127 -120 -133 -182 -380 -142
-563 19 -81 80 -216 123 -266 67 -81 169 -80 237 0 38 46 35 102 -8 184 -46
86 -61 161 -48 235 21 121 78 194 197 256 63 33 94 68 102 119 15 95 -77 187
-187 186 -14 0 -50 -11 -82 -24z"/>
<path d="M4600 4743 c-31 -11 -71 -58 -81 -95 -13 -49 2 -105 37 -143 14 -15
22 -31 17 -34 -42 -29 -56 -117 -27 -174 8 -18 36 -49 62 -70 126 -101 268
-133 376 -84 151 70 246 235 202 352 -31 80 -105 124 -342 204 -138 47 -203
59 -244 44z"/>
<path d="M1784 4296 c-113 -28 -299 -168 -343 -259 -37 -76 -21 -153 40 -200
73 -54 139 -44 226 35 31 28 83 63 117 79 58 29 65 30 156 24 84 -5 99 -4 127
14 90 56 96 228 11 283 -58 37 -228 50 -334 24z"/>
<path d="M2599 3770 c-88 -11 -182 -36 -246 -65 -40 -18 -57 -33 -72 -64 -37
-72 -22 -153 38 -204 50 -41 85 -43 193 -9 121 39 215 51 224 28 10 -26 -32
-147 -95 -269 -66 -129 -130 -232 -240 -386 -109 -155 -118 -185 -78 -261 27
-52 75 -80 135 -80 61 0 91 19 154 97 173 215 343 506 413 708 40 115 46 260
15 334 -32 72 -96 126 -179 151 -81 23 -175 30 -262 20z"/>
<path d="M4050 3735 c-72 -20 -123 -55 -157 -107 -23 -33 -28 -55 -31 -115 -4
-63 -1 -81 21 -126 60 -120 175 -197 310 -205 71 -4 82 -2 142 27 113 56 199
182 200 293 0 45 -5 61 -22 80 -13 14 -23 32 -23 42 0 35 -30 74 -75 96 -61
29 -281 38 -365 15z"/>
<path d="M1100 3577 c-102 -36 -272 -125 -302 -157 -99 -107 -20 -293 132
-308 27 -2 63 1 81 7 18 6 34 9 36 8 4 -5 -85 -258 -161 -458 -93 -245 -137
-440 -116 -518 12 -47 47 -92 93 -120 47 -29 167 -47 215 -32 67 20 213 172
482 502 215 261 213 259 222 259 16 0 7 -68 -47 -333 -101 -503 -148 -762
-149 -822 -1 -70 22 -112 78 -139 100 -47 202 23 221 153 13 91 87 420 146
650 72 285 93 432 86 591 -4 63 -13 137 -21 163 -49 161 -192 225 -340 153
-79 -39 -143 -106 -292 -306 -70 -94 -129 -168 -131 -166 -3 3 9 41 26 85 67
175 141 462 141 551 0 55 -28 133 -63 176 -69 83 -205 108 -337 61z"/>
<path d="M3600 3317 c-126 -35 -212 -137 -255 -302 -8 -32 -15 -83 -15 -112 0
-44 5 -58 30 -86 16 -19 43 -40 60 -47 40 -17 120 -8 156 17 16 11 63 25 104
32 165 26 262 107 277 230 20 168 -180 317 -357 268z"/>
<path d="M4754 2951 c-93 -42 -152 -158 -141 -276 7 -77 28 -131 83 -217 77
-120 163 -160 252 -116 65 32 92 76 92 147 0 81 -36 153 -89 181 -23 11 -41
24 -41 28 0 4 9 21 20 37 14 21 20 47 20 87 0 47 -5 62 -27 89 -27 32 -78 59
-110 59 -10 0 -36 -9 -59 -19z"/>
<path d="M2973 2550 c-149 -22 -534 -183 -603 -252 -89 -89 -76 -223 28 -289
73 -46 124 -41 263 25 128 62 290 128 296 122 12 -12 -97 -308 -161 -434 -28
-55 -36 -84 -36 -125 0 -140 151 -237 275 -177 57 28 79 60 143 211 202 473
229 711 94 842 -68 66 -179 95 -299 77z"/>
<path d="M4399 2337 c-97 -37 -149 -116 -148 -226 0 -37 4 -88 9 -116 4 -27 7
-51 5 -53 -1 -1 -54 18 -118 43 -63 24 -145 49 -182 54 -162 23 -294 -48 -368
-198 -32 -65 -32 -67 -30 -206 1 -77 5 -224 10 -326 10 -207 19 -239 84 -290
104 -84 273 -48 337 71 24 45 24 47 17 241 -4 115 -3 199 2 202 5 3 47 -10 94
-29 46 -20 100 -39 121 -45 57 -14 218 5 280 34 179 82 265 329 212 608 -8 46
-22 95 -31 109 -65 104 -200 162 -294 127z"/>
<path d="M2138 1880 c-110 -33 -159 -158 -116 -295 9 -27 26 -102 38 -165 27
-141 96 -356 146 -450 69 -132 213 -260 358 -318 34 -13 123 -55 199 -93 197
-97 250 -113 372 -112 83 0 112 5 175 28 111 40 193 91 224 138 66 103 4 236
-126 268 -63 15 -100 8 -182 -31 -82 -40 -97 -38 -237 31 -144 71 -178 101
-207 182 -33 94 -76 169 -124 217 -50 49 -82 67 -136 76 -41 6 -41 7 -52 63
-67 328 -113 423 -224 456 -55 17 -68 17 -108 5z"/>
</g>
</svg>
