<?xml version="1.0" standalone="no"?>
<!DOCTYPE svg PUBLIC "-//W3C//DTD SVG 20010904//EN"
 "http://www.w3.org/TR/2001/REC-SVG-20010904/DTD/svg10.dtd">
<svg version="1.0" xmlns="http://www.w3.org/2000/svg"
 width="600.000000pt" height="600.000000pt" viewBox="0 0 600.000000 600.000000"
 preserveAspectRatio="xMidYMid meet">
<metadata>
Created by potrace 1.15, written by Peter Selinger 2001-2017
</metadata>
<g transform="translate(0.000000,600.000000) scale(0.100000,-0.100000)"
fill="#16364b" stroke="none">
<path d="M2053 5824 c-18 -9 -49 -37 -70 -62 -21 -26 -80 -93 -131 -151 -200
-225 -343 -419 -363 -494 -17 -65 -13 -122 13 -169 34 -62 78 -88 148 -88 72
0 88 5 305 105 99 46 223 101 275 124 247 108 294 147 294 240 -1 86 -61 156
-145 167 -40 6 -58 0 -173 -55 -71 -34 -131 -59 -133 -57 -2 2 18 28 44 57 76
84 139 162 152 186 29 57 2 139 -61 186 -36 27 -114 32 -155 11z"/>
<path d="M3053 5696 c-51 -23 -87 -88 -88 -155 0 -86 21 -109 150 -160 300
-119 445 -268 445 -453 0 -100 -63 -162 -205 -203 -84 -24 -113 -41 -135 -78
-38 -61 -18 -156 42 -199 47 -33 102 -34 192 -4 311 105 446 343 367 649 -27
104 -62 165 -146 255 -117 126 -263 233 -419 308 -105 51 -156 61 -203 40z"/>
<path d="M925 5361 c-80 -28 -115 -50 -172 -104 -89 -84 -134 -184 -148 -327
-8 -81 13 -191 52 -263 33 -62 163 -195 215 -220 70 -33 153 -17 197 39 53 68
32 156 -55 231 -73 62 -106 119 -106 183 0 85 52 142 156 171 80 22 137 115
116 188 -31 109 -128 148 -255 102z"/>
<path d="M2770 4991 c-90 -28 -163 -94 -208 -191 -55 -115 -29 -272 59 -359
88 -88 303 -139 404 -97 50 21 80 86 70 152 -5 39 -15 57 -50 91 -40 40 -46
43 -97 43 -72 0 -118 16 -118 41 0 18 5 19 48 13 145 -19 228 172 116 264 -56
47 -152 65 -224 43z"/>
<path d="M4792 4923 c-35 -7 -100 -77 -107 -115 -7 -39 19 -268 41 -353 34
-131 93 -214 188 -262 129 -66 300 -3 371 137 31 63 38 112 24 178 -30 150
-136 266 -323 357 -112 54 -152 66 -194 58z"/>
<path d="M1939 4627 c-95 -27 -236 -136 -265 -204 -46 -107 17 -213 126 -213
44 0 53 4 138 64 52 36 79 30 112 -25 64 -105 226 -106 275 -2 33 68 -5 178
-96 278 -84 91 -192 129 -290 102z"/>
<path d="M2905 3942 c-80 -38 -145 -135 -180 -267 -25 -93 -31 -296 -12 -372
43 -166 136 -259 241 -239 48 9 101 61 116 114 12 48 10 62 -28 147 -23 52
-27 73 -26 155 1 101 14 150 39 150 26 0 78 30 102 59 44 51 42 137 -4 191
-57 68 -173 97 -248 62z"/>
<path d="M1105 3864 c-96 -21 -184 -52 -217 -76 -64 -45 -92 -164 -55 -234 43
-83 119 -122 210 -109 l49 6 -20 -33 c-51 -83 -250 -447 -316 -578 -100 -197
-130 -283 -124 -359 7 -105 86 -181 186 -181 55 0 82 11 145 62 29 24 115 92
190 151 75 59 185 152 244 205 100 90 283 248 327 282 18 14 18 12 11 -30 -34
-214 -202 -675 -366 -1004 -72 -142 -79 -183 -47 -246 31 -61 77 -90 142 -90
84 0 106 20 180 168 94 187 224 500 278 667 10 33 39 157 64 275 55 260 68
442 40 528 -43 129 -180 176 -316 107 -46 -23 -191 -135 -314 -242 -28 -23
-51 -41 -53 -39 -2 2 25 50 60 107 121 198 169 319 171 429 0 59 -4 83 -21
115 -25 47 -64 86 -113 111 -48 25 -237 30 -335 8z"/>
<path d="M4199 3786 c-227 -63 -342 -271 -255 -462 76 -167 253 -242 401 -169
107 52 208 178 282 350 47 110 50 135 28 189 -21 50 -75 82 -162 95 -94 14
-236 13 -294 -3z m71 -315 c0 -13 -41 -41 -58 -41 -20 0 -9 23 19 37 29 15 39
16 39 4z"/>
<path d="M3495 3401 c-114 -29 -199 -135 -245 -305 -26 -92 -22 -133 15 -182
41 -54 71 -64 184 -64 127 0 193 22 256 86 123 126 99 353 -48 438 -47 27
-116 39 -162 27z"/>
<path d="M4920 2914 c-45 -29 -193 -188 -231 -247 -51 -79 -74 -148 -73 -227
2 -231 251 -288 441 -100 111 111 171 305 129 421 -16 44 -91 135 -128 155
-36 19 -108 18 -138 -2z"/>
<path d="M4070 2511 c-78 -28 -134 -89 -151 -165 -11 -53 -11 -64 10 -134 63
-211 62 -205 43 -199 -9 3 -57 20 -106 38 -80 28 -99 31 -170 27 -49 -3 -94
-11 -113 -21 -45 -24 -99 -82 -125 -136 -21 -41 -23 -60 -22 -181 1 -143 18
-240 82 -471 35 -126 50 -156 98 -199 116 -101 269 -73 355 66 34 55 35 125 5
238 -15 54 -25 103 -23 109 2 6 21 -6 44 -26 80 -72 176 -88 297 -47 159 52
236 162 236 335 0 97 -6 129 -67 360 -71 273 -81 302 -115 341 -66 75 -177
101 -278 65z"/>
<path d="M2934 2186 c-80 -18 -192 -66 -402 -169 l-172 -85 -25 53 c-55 115
-193 157 -314 96 -87 -45 -221 -230 -221 -305 0 -52 20 -105 52 -142 36 -41
63 -54 133 -63 46 -6 50 -8 56 -39 6 -31 4 -34 -35 -54 -106 -53 -206 -141
-262 -229 -135 -214 -50 -523 209 -766 86 -80 139 -116 250 -168 247 -116 474
-114 707 6 104 54 224 139 242 172 70 132 -32 297 -185 297 -42 0 -92 -25
-161 -80 -35 -27 -87 -62 -117 -77 -49 -25 -64 -28 -155 -28 -95 0 -104 2
-175 37 -171 85 -285 253 -265 392 13 83 67 107 111 47 36 -49 140 -153 165
-166 126 -64 270 29 270 175 0 67 -20 111 -80 177 -51 56 -110 164 -130 241
-12 47 -8 62 19 62 10 0 110 44 222 98 215 104 296 138 305 130 16 -16 -135
-412 -210 -552 -42 -78 -32 -190 22 -249 28 -31 88 -57 133 -57 68 0 125 34
167 99 107 167 283 677 282 818 -1 90 -39 187 -98 248 -76 79 -208 110 -338
81z"/>
</g>
</svg>
