<?xml version="1.0" standalone="no"?>
<!DOCTYPE svg PUBLIC "-//W3C//DTD SVG 20010904//EN"
 "http://www.w3.org/TR/2001/REC-SVG-20010904/DTD/svg10.dtd">
<svg version="1.0" xmlns="http://www.w3.org/2000/svg"
 width="600.000000pt" height="600.000000pt" viewBox="0 0 600.000000 600.000000"
 preserveAspectRatio="xMidYMid meet">
<metadata>
Created by potrace 1.15, written by Peter Selinger 2001-2017
</metadata>
<g transform="translate(0.000000,600.000000) scale(0.100000,-0.100000)"
fill="#16364b" stroke="none">
<path d="M1546 5785 c-22 -7 -47 -22 -57 -32 -50 -52 -236 -275 -265 -318 -55
-80 -42 -165 30 -199 69 -32 108 -21 389 108 103 47 191 86 195 86 14 0 59 54
65 78 8 35 -11 89 -40 112 -34 26 -101 26 -153 0 -56 -28 -63 -25 -35 16 14
20 25 45 25 56 0 35 -31 79 -65 94 -41 17 -40 17 -89 -1z"/>
<path d="M2379 5436 c-48 -27 -59 -69 -59 -223 0 -289 -43 -465 -139 -575 -23
-25 -75 -64 -124 -92 -97 -54 -124 -91 -112 -152 7 -39 52 -74 94 -74 42 0
200 92 270 156 154 143 204 307 218 719 l6 190 -24 28 c-29 34 -91 45 -130 23z"/>
<path d="M3515 5336 c-43 -19 -70 -81 -62 -144 22 -189 225 -369 356 -316 87
35 93 122 17 251 -60 100 -117 160 -181 189 -70 32 -95 36 -130 20z"/>
<path d="M2975 5151 c-86 -39 -153 -122 -179 -224 -27 -103 -2 -184 74 -235
30 -20 44 -23 92 -19 64 6 167 55 199 95 47 61 73 233 44 307 -33 87 -133 121
-230 76z"/>
<path d="M4753 4760 c-52 -31 -58 -52 -57 -185 2 -333 173 -587 359 -535 135
38 208 205 155 359 -40 121 -153 256 -284 341 -70 46 -121 52 -173 20z"/>
<path d="M2693 4230 c-58 -12 -95 -33 -130 -74 -43 -48 -57 -96 -50 -177 15
-178 151 -274 335 -235 93 19 158 55 242 134 83 76 108 128 91 188 -21 73 -40
86 -185 129 -125 37 -235 49 -303 35z"/>
<path d="M1059 4083 c-64 -39 -78 -126 -31 -181 22 -27 45 -38 131 -63 57 -16
113 -35 125 -41 20 -11 20 -12 -12 -25 -39 -16 -203 -33 -249 -26 -78 12 -143
-25 -162 -93 -13 -48 3 -97 45 -133 35 -31 35 -31 153 -31 208 0 349 42 439
131 52 50 70 85 79 144 18 138 -89 245 -311 309 -101 30 -169 33 -207 9z"/>
<path d="M4260 3769 c-120 -20 -231 -97 -280 -196 -32 -64 -34 -168 -4 -234
49 -107 141 -162 269 -163 69 0 90 4 147 31 116 55 182 144 207 283 36 192 10
244 -135 275 -77 16 -122 17 -204 4z m60 -268 c0 -11 -49 -51 -62 -51 -19 0
-2 35 22 47 30 15 40 16 40 4z"/>
<path d="M1640 3708 c-48 -33 -63 -81 -57 -188 9 -149 63 -257 149 -299 48
-23 117 -27 151 -10 143 74 146 295 6 437 -44 45 -93 69 -159 77 -48 6 -60 3
-90 -17z"/>
<path d="M5193 3665 c-186 -50 -293 -176 -293 -345 0 -93 28 -165 91 -234 91
-100 206 -126 322 -73 129 59 208 177 215 320 6 118 -19 178 -107 264 -36 36
-76 69 -89 74 -32 12 -77 10 -139 -6z m47 -317 c-1 -18 -25 -48 -39 -48 -16 0
-14 21 6 42 19 21 33 23 33 6z"/>
<path d="M3391 3355 c-39 -35 -110 -161 -146 -257 -22 -60 -8 -110 39 -139 41
-25 74 -24 138 4 92 41 166 146 182 260 15 98 -37 167 -125 167 -42 0 -54 -5
-88 -35z"/>
<path d="M2560 3138 c-270 -17 -415 -57 -646 -179 -84 -43 -195 -97 -249 -118
-268 -110 -407 -266 -500 -561 -32 -102 -44 -272 -26 -362 26 -124 105 -235
246 -346 120 -95 217 -187 310 -293 131 -148 233 -215 401 -264 66 -19 109
-25 186 -25 161 0 286 39 527 167 377 198 550 313 701 463 188 187 260 290
295 425 43 166 -12 356 -152 528 -74 90 -228 235 -322 302 -42 30 -87 66 -100
80 -35 37 -173 109 -278 145 -110 36 -229 48 -393 38z m360 -468 c189 -103
233 -134 359 -258 84 -82 117 -122 137 -166 43 -94 22 -142 -130 -303 -148
-156 -301 -270 -517 -381 -63 -33 -144 -76 -181 -96 -113 -62 -201 -89 -298
-89 -122 -2 -168 23 -329 176 -69 66 -175 165 -236 220 -60 54 -122 113 -137
130 -84 94 -94 241 -26 369 53 99 128 161 259 214 35 14 134 61 219 103 269
135 371 162 605 157 l140 -2 135 -74z"/>
<path d="M387 2227 c-53 -43 -52 -96 2 -241 114 -304 294 -500 461 -500 216
-1 227 284 19 493 -99 99 -369 271 -426 271 -15 0 -40 -10 -56 -23z m351 -428
c15 -18 31 -39 36 -48 14 -24 -32 18 -56 52 -26 37 -13 34 20 -4z"/>
<path d="M4571 1780 c-35 -26 -45 -29 -62 -19 -32 17 -100 14 -137 -5 -75 -39
-89 -125 -52 -319 46 -238 100 -317 215 -317 25 0 60 7 76 16 38 19 84 92 109
170 28 92 74 376 66 409 -4 15 -22 43 -41 62 -28 28 -40 33 -82 33 -40 0 -59
-6 -92 -30z"/>
</g>
</svg>
