<?xml version="1.0" standalone="no"?>
<!DOCTYPE svg PUBLIC "-//W3C//DTD SVG 20010904//EN"
 "http://www.w3.org/TR/2001/REC-SVG-20010904/DTD/svg10.dtd">
<svg version="1.0" xmlns="http://www.w3.org/2000/svg"
 width="600.000000pt" height="600.000000pt" viewBox="0 0 600.000000 600.000000"
 preserveAspectRatio="xMidYMid meet">
<metadata>
Created by potrace 1.15, written by Peter Selinger 2001-2017
</metadata>
<g transform="translate(0.000000,600.000000) scale(0.100000,-0.100000)"
fill="#16364b" stroke="none">
<path d="M3004 5068 c-66 -44 -114 -135 -114 -215 0 -47 4 -59 29 -84 33 -33
48 -35 94 -15 89 38 170 154 170 244 0 38 -5 49 -31 74 -44 38 -86 37 -148 -4z
m114 -66 c7 -67 -91 -197 -143 -190 -77 11 33 235 112 226 24 -2 28 -8 31 -36z"/>
<path d="M4789 4725 c-15 -8 -30 -22 -34 -32 -4 -10 -11 -140 -17 -289 -9
-225 -8 -276 3 -300 28 -57 107 -55 131 3 6 17 13 137 16 309 l5 281 -28 21
c-32 26 -41 26 -76 7z"/>
<path d="M1724 4517 c-98 -47 -164 -163 -150 -266 3 -25 28 -91 56 -146 53
-108 78 -192 109 -380 45 -266 81 -771 91 -1275 8 -429 14 -487 66 -668 87
-304 295 -509 569 -559 70 -13 85 -19 80 -31 -13 -36 -17 -172 -6 -241 7 -41
39 -168 71 -282 33 -113 60 -211 60 -217 0 -8 -32 -11 -101 -11 -86 1 -105 -2
-128 -18 -60 -45 -63 -115 -8 -157 40 -29 184 -35 257 -11 57 19 113 63 136
106 18 37 18 105 -2 160 -38 108 -114 396 -123 467 -9 69 -1 205 12 218 3 3
49 0 103 -6 56 -6 268 -11 483 -10 l383 0 -6 -23 c-4 -12 -10 -62 -13 -112 -7
-113 12 -216 72 -404 25 -76 45 -145 45 -154 0 -12 -18 -16 -96 -19 -94 -3
-96 -4 -125 -36 -32 -36 -36 -69 -14 -112 23 -44 69 -64 147 -63 125 0 230 73
259 177 11 41 11 41 -42 189 -89 245 -116 372 -98 472 6 35 16 70 22 79 8 10
53 20 132 31 263 36 513 93 600 138 71 37 185 149 234 230 18 31 47 96 65 144
29 82 31 97 30 218 0 150 -22 252 -80 373 -40 83 -118 168 -185 200 -74 36
-335 111 -478 137 -217 41 -226 43 -441 128 -392 154 -695 324 -846 472 -115
114 -190 228 -334 510 -131 257 -207 377 -319 506 -45 52 -101 117 -125 145
-95 109 -252 153 -362 101z m184 -156 c39 -20 74 -54 111 -108 12 -17 46 -57
76 -87 74 -76 164 -215 243 -376 158 -322 270 -498 402 -631 166 -169 481
-345 950 -532 140 -56 196 -72 369 -107 246 -50 464 -118 524 -164 90 -68 157
-232 165 -402 5 -110 -9 -177 -54 -265 -32 -65 -122 -159 -182 -192 -74 -40
-298 -94 -547 -132 -148 -22 -759 -38 -960 -25 -88 6 -243 15 -345 20 -203 9
-233 15 -333 67 -125 66 -215 186 -276 370 -60 179 -64 211 -66 648 -3 440
-21 708 -85 1241 -35 288 -62 392 -127 498 -47 77 -50 137 -9 173 34 29 92 31
144 4z"/>
<path d="M2506 2618 c-22 -31 -20 -45 9 -73 45 -46 105 -20 105 45 0 36 -17
50 -61 50 -28 0 -42 -6 -53 -22z"/>
<path d="M2942 2378 c-35 -44 6 -128 63 -128 48 0 72 83 35 120 -23 23 -82 27
-98 8z"/>
<path d="M5214 3963 c-70 -20 -141 -77 -178 -142 -25 -47 -31 -68 -34 -142 -4
-81 -2 -93 25 -151 37 -77 96 -138 171 -175 50 -24 69 -28 147 -28 80 0 97 3
155 31 78 38 141 99 177 174 37 75 39 203 6 266 -30 56 -91 112 -166 151 -58
31 -68 33 -157 32 -53 0 -118 -7 -146 -16z m185 -309 c8 -7 -33 -44 -49 -44
-33 0 -57 53 -27 63 11 3 65 -10 76 -19z"/>
<path d="M4234 3751 c-101 -25 -187 -101 -225 -200 -29 -78 -23 -174 16 -254
105 -212 385 -183 493 52 33 71 37 187 9 268 -37 106 -165 164 -293 134z m68
-306 c-7 -15 -20 -25 -32 -25 -23 0 -24 4 -9 33 25 47 62 40 41 -8z"/>
<path d="M5319 1115 c-37 -20 -69 -100 -69 -170 0 -49 4 -60 29 -86 23 -23 38
-29 71 -29 77 0 130 80 130 195 -1 28 -6 57 -13 66 -30 39 -99 51 -148 24z"/>
</g>
</svg>
