<?xml version="1.0" standalone="no"?>
<!DOCTYPE svg PUBLIC "-//W3C//DTD SVG 20010904//EN"
 "http://www.w3.org/TR/2001/REC-SVG-20010904/DTD/svg10.dtd">
<svg version="1.0" xmlns="http://www.w3.org/2000/svg"
 width="600.000000pt" height="600.000000pt" viewBox="0 0 600.000000 600.000000"
 preserveAspectRatio="xMidYMid meet">
<metadata>
Created by potrace 1.15, written by Peter Selinger 2001-2017
</metadata>
<g transform="translate(0.000000,600.000000) scale(0.100000,-0.100000)"
fill="#16364b" stroke="none">
<path d="M1523 5755 c-31 -22 -167 -232 -218 -337 -51 -104 -57 -153 -25 -206
44 -71 131 -76 255 -14 113 56 374 242 395 282 13 24 13 86 0 111 -16 29 -68
52 -106 46 -19 -3 -63 -27 -99 -53 -36 -25 -68 -44 -70 -42 -3 2 6 20 20 40
13 19 27 47 30 61 9 35 -21 94 -56 112 -36 19 -99 19 -126 0z"/>
<path d="M2375 5448 c-49 -27 -55 -45 -55 -188 -1 -314 -53 -514 -159 -613
-25 -24 -80 -61 -122 -84 -75 -42 -109 -81 -109 -127 0 -57 57 -116 111 -116
12 0 65 21 117 47 229 112 336 314 372 698 14 157 13 279 -4 320 -25 59 -101
91 -151 63z"/>
<path d="M3527 5324 c-43 -23 -77 -86 -77 -141 0 -130 142 -278 277 -290 50
-4 63 -1 93 19 45 30 60 61 60 122 0 61 -45 149 -111 217 -37 38 -59 51 -116
68 -82 25 -89 25 -126 5z"/>
<path d="M2986 5123 c-71 -24 -150 -100 -176 -171 -53 -139 30 -272 168 -272
50 0 139 29 182 60 38 27 61 101 62 199 1 90 -26 148 -81 179 -45 26 -87 27
-155 5z"/>
<path d="M4774 4771 c-11 -5 -32 -23 -46 -40 -64 -75 -37 -384 45 -524 95
-162 305 -202 419 -80 111 118 57 345 -119 502 -123 110 -241 166 -299 142z
m226 -458 c0 -23 -17 -6 -29 29 l-11 33 20 -24 c11 -13 20 -30 20 -38z"/>
<path d="M2737 4230 c-162 -28 -277 -135 -277 -258 0 -94 56 -168 165 -219 51
-23 73 -28 145 -28 77 0 92 4 154 35 97 48 227 177 246 243 11 41 11 53 -5 93
-9 24 -27 51 -39 59 -33 22 -172 64 -246 75 -73 11 -76 11 -143 0z"/>
<path d="M1081 4102 c-73 -37 -99 -117 -62 -190 25 -49 42 -59 141 -84 86 -21
130 -37 130 -48 0 -10 -90 -52 -155 -73 -27 -9 -90 -23 -139 -32 -53 -9 -98
-22 -109 -33 -65 -58 -64 -177 3 -229 33 -26 195 -6 354 44 282 89 418 254
346 421 -43 101 -153 171 -344 221 -97 26 -121 26 -165 3z"/>
<path d="M4218 3780 c-259 -45 -377 -333 -210 -512 131 -141 408 -111 521 56
41 61 59 115 71 211 13 104 4 141 -44 183 -54 47 -234 80 -338 62z m62 -284
c0 -17 -19 -33 -45 -38 -29 -5 -25 24 5 39 32 16 40 16 40 -1z"/>
<path d="M1682 3691 c-99 -34 -136 -93 -137 -216 0 -65 5 -89 24 -130 34 -70
124 -156 186 -178 257 -90 417 205 241 444 -68 92 -189 122 -314 80z"/>
<path d="M5155 3611 c-123 -36 -217 -117 -256 -220 -65 -171 48 -390 223 -431
72 -18 169 1 244 46 67 40 95 71 132 139 23 43 26 62 27 140 0 79 -3 97 -27
145 -30 59 -123 162 -169 185 -37 19 -99 18 -174 -4z m73 -323 c-8 -12 -20
-24 -26 -26 -19 -6 -14 26 6 37 28 17 35 13 20 -11z"/>
<path d="M3452 3389 c-53 -16 -115 -90 -177 -212 -48 -95 -56 -118 -52 -150
11 -83 76 -112 170 -77 116 44 211 183 212 312 0 62 -2 70 -30 97 -34 33 -76
44 -123 30z"/>
<path d="M2615 3300 c-85 -17 -217 -73 -287 -122 -40 -28 -129 -109 -198 -178
-138 -141 -187 -176 -334 -240 -303 -133 -491 -364 -545 -674 -15 -85 -13
-261 3 -349 33 -169 104 -285 278 -453 184 -177 305 -253 493 -310 82 -25 104
-28 250 -28 148 0 166 2 245 28 94 31 212 90 274 139 226 175 465 432 563 606
14 25 46 77 71 115 134 205 143 406 27 637 -46 90 -175 315 -220 383 -21 33
-35 65 -35 85 0 56 -41 123 -130 211 -88 88 -155 130 -241 149 -51 12 -157 12
-214 1z m133 -419 c6 -16 54 -87 107 -158 54 -70 117 -162 142 -203 25 -41 62
-104 84 -140 84 -139 89 -227 17 -319 -10 -14 -36 -61 -57 -105 -84 -181 -211
-327 -454 -525 -143 -116 -340 -146 -495 -76 -121 56 -394 290 -438 377 -31
62 -44 160 -32 261 14 132 61 229 152 315 53 50 83 67 245 137 147 63 243 136
371 282 117 133 196 181 302 183 42 0 47 -2 56 -29z"/>
<path d="M366 2267 c-44 -44 -43 -66 9 -220 65 -193 133 -322 217 -412 150
-160 332 -198 443 -92 61 60 74 109 52 196 -10 36 -32 90 -50 120 -46 76 -172
191 -308 279 -191 125 -229 144 -286 150 -45 4 -55 1 -77 -21z m448 -478 c44
-49 55 -69 39 -69 -21 0 -143 131 -143 153 0 15 56 -31 104 -84z"/>
<path d="M4490 1929 c-14 -5 -37 -22 -52 -36 -25 -24 -29 -25 -45 -11 -57 49
-144 41 -200 -18 -39 -42 -48 -82 -39 -179 8 -93 58 -296 89 -366 43 -97 133
-152 215 -130 107 29 145 109 197 414 14 82 25 164 25 183 0 44 -33 109 -65
130 -31 20 -93 27 -125 13z"/>
</g>
</svg>
