<?xml version="1.0" standalone="no"?>
<!DOCTYPE svg PUBLIC "-//W3C//DTD SVG 20010904//EN"
 "http://www.w3.org/TR/2001/REC-SVG-20010904/DTD/svg10.dtd">
<svg version="1.0" xmlns="http://www.w3.org/2000/svg"
 width="600.000000pt" height="600.000000pt" viewBox="0 0 600.000000 600.000000"
 preserveAspectRatio="xMidYMid meet">
<metadata>
Created by potrace 1.15, written by Peter Selinger 2001-2017
</metadata>
<g transform="translate(0.000000,600.000000) scale(0.100000,-0.100000)"
fill="#16364b" stroke="none">
<path d="M1673 5800 c-46 -28 -58 -51 -98 -190 -130 -453 -85 -745 113 -742
127 1 279 145 497 466 l87 129 -4 55 c-4 48 -10 60 -41 88 -75 69 -165 64
-222 -12 -16 -23 -66 -92 -110 -155 -43 -63 -81 -107 -82 -99 -2 8 14 86 36
173 39 161 41 191 12 245 -31 58 -127 80 -188 42z"/>
<path d="M3144 5630 c-32 -13 -72 -67 -80 -106 -10 -53 11 -109 54 -144 20
-16 74 -59 120 -96 46 -36 112 -93 148 -127 69 -64 194 -214 194 -232 0 -6
-25 -10 -59 -10 -67 0 -94 -17 -118 -74 -33 -78 18 -169 110 -196 65 -19 169
-19 236 1 74 22 135 84 150 152 38 178 -117 403 -476 689 -194 156 -218 168
-279 143z"/>
<path d="M865 5446 c-191 -61 -322 -267 -300 -474 13 -122 112 -265 218 -315
105 -50 217 9 217 116 0 52 -4 58 -108 150 -58 52 -52 139 14 197 31 27 41 30
100 30 41 0 79 6 101 17 108 51 116 223 13 275 -42 22 -193 24 -255 4z"/>
<path d="M2946 5172 c-34 -11 -67 -33 -104 -70 -72 -72 -96 -127 -97 -218 0
-85 23 -127 97 -175 120 -77 345 -54 396 41 10 18 12 54 8 130 -8 165 -45 248
-129 289 -51 25 -104 26 -171 3z"/>
<path d="M4765 4861 c-36 -15 -85 -73 -91 -109 -11 -58 4 -242 26 -322 12 -41
37 -105 57 -143 121 -231 398 -265 513 -64 37 65 46 121 31 200 -32 170 -150
307 -348 406 -83 41 -140 51 -188 32z"/>
<path d="M2120 4809 c-94 -14 -180 -45 -223 -80 -95 -78 -61 -213 63 -250 35
-11 47 -9 112 16 60 23 91 29 173 30 70 2 110 7 132 18 98 51 96 212 -3 253
-45 19 -171 25 -254 13z"/>
<path d="M2795 4086 c-94 -30 -144 -73 -169 -148 -47 -141 72 -270 284 -310
125 -24 494 12 579 56 39 21 64 69 63 124 0 62 -40 115 -111 148 -143 68 -262
111 -369 133 -70 15 -227 13 -277 -3z"/>
<path d="M1024 4050 c-57 -18 -123 -107 -124 -168 0 -56 57 -142 110 -165 14
-6 67 -13 119 -16 l93 -6 -189 -215 c-434 -495 -442 -505 -428 -578 13 -68 53
-123 105 -144 38 -15 104 -12 142 6 31 15 37 15 64 1 49 -25 96 -19 155 21 30
20 96 61 147 92 l93 55 28 -29 c16 -16 47 -44 69 -61 53 -43 66 -84 60 -192
-11 -179 -143 -406 -301 -515 -43 -30 -63 -37 -110 -39 -64 -3 -98 -23 -134
-77 -46 -67 -21 -170 48 -206 56 -28 179 -16 270 28 204 96 394 323 468 556
88 278 62 477 -82 629 -27 29 -48 55 -46 57 7 6 68 36 73 36 3 0 12 -13 20
-29 17 -33 88 -71 131 -71 48 0 108 36 138 82 26 40 27 48 27 165 0 103 -3
130 -20 162 -29 57 -79 84 -154 84 -56 -1 -73 -7 -219 -83 -88 -45 -160 -80
-162 -78 -2 2 32 50 75 107 43 57 93 133 112 170 29 58 33 75 33 146 0 90 -13
123 -71 179 -64 63 -172 89 -404 100 -58 3 -119 1 -136 -4z"/>
<path d="M4304 3790 c-135 -15 -233 -52 -297 -115 -119 -116 -122 -328 -6
-444 17 -18 55 -44 83 -59 45 -24 62 -27 146 -27 84 0 101 3 146 27 68 36 131
102 176 185 36 67 98 258 98 303 0 43 -30 88 -73 109 -50 23 -170 32 -273 21z
m-44 -325 c-24 -25 -50 -33 -50 -16 0 13 41 41 59 41 10 0 8 -7 -9 -25z"/>
<path d="M3405 3371 c-51 -31 -113 -110 -161 -205 -40 -79 -45 -97 -40 -134
12 -88 74 -132 189 -132 83 0 122 16 166 66 51 57 73 116 79 209 6 99 -7 143
-54 185 -30 26 -42 30 -92 30 -38 0 -67 -6 -87 -19z"/>
<path d="M4987 3200 c-96 -64 -157 -132 -204 -228 -35 -70 -38 -83 -38 -161 0
-69 5 -94 22 -127 91 -170 315 -177 466 -14 76 82 101 148 101 265 0 105 -16
149 -85 233 -53 64 -83 82 -143 82 -37 0 -57 -9 -119 -50z"/>
<path d="M3965 2501 c-72 -33 -125 -111 -125 -184 0 -18 9 -73 19 -122 11 -49
19 -91 17 -92 -2 -2 -19 4 -39 12 -53 22 -106 18 -165 -11 -133 -66 -180 -212
-132 -410 21 -88 109 -332 145 -404 72 -141 233 -184 339 -91 25 22 56 85 56
116 0 23 3 25 45 25 60 0 146 31 195 70 21 17 50 54 64 83 49 100 45 198 -19
449 -85 338 -116 451 -129 476 -19 36 -65 78 -99 91 -43 17 -127 13 -172 -8z"/>
<path d="M2105 2461 c-48 -12 -91 -38 -138 -83 -59 -58 -249 -295 -276 -344
-12 -21 -44 -66 -71 -98 -139 -166 -205 -397 -204 -711 0 -147 3 -167 27 -242
32 -95 99 -201 182 -286 203 -208 587 -313 885 -240 170 41 355 163 457 301
15 20 39 51 54 68 32 39 114 197 168 327 101 245 145 442 139 636 -3 117 -5
131 -35 193 -56 118 -153 189 -271 196 -76 5 -150 -8 -295 -54 -121 -38 -137
-40 -137 -20 0 27 -71 151 -108 190 -58 61 -204 153 -262 165 -56 12 -71 12
-115 2z m125 -503 c41 -145 91 -224 179 -280 68 -43 109 -38 302 31 90 33 181
62 203 66 l39 8 -7 -59 c-19 -151 -98 -420 -170 -575 -42 -91 -126 -202 -192
-252 -94 -72 -221 -101 -372 -85 -59 6 -95 17 -157 48 -237 117 -309 261 -259
520 29 157 81 271 169 375 23 28 51 68 63 90 26 50 149 195 166 195 8 0 23
-34 36 -82z"/>
</g>
</svg>
