<?xml version="1.0" standalone="no"?>
<!DOCTYPE svg PUBLIC "-//W3C//DTD SVG 20010904//EN"
 "http://www.w3.org/TR/2001/REC-SVG-20010904/DTD/svg10.dtd">
<svg version="1.0" xmlns="http://www.w3.org/2000/svg"
 width="600.000000pt" height="600.000000pt" viewBox="0 0 600.000000 600.000000"
 preserveAspectRatio="xMidYMid meet">
<metadata>
Created by potrace 1.15, written by Peter Selinger 2001-2017
</metadata>
<g transform="translate(0.000000,600.000000) scale(0.100000,-0.100000)"
fill="#16364b" stroke="none">
<path d="M2120 5281 c-94 -29 -174 -101 -223 -200 -37 -76 -35 22 -18 -921 10
-505 10 -711 1 -855 -6 -104 -13 -248 -16 -320 -3 -71 -7 -149 -10 -172 l-5
-41 -72 -22 c-124 -38 -257 -69 -406 -95 -154 -27 -154 -27 -167 23 -4 13 -14
22 -25 22 -21 0 -25 -21 -9 -51 15 -27 4 -24 -51 17 -68 49 -92 33 -44 -30 14
-18 25 -36 25 -39 0 -4 -21 -7 -46 -7 -37 0 -45 -3 -42 -17 2 -9 22 -23 48
-32 l45 -15 -38 -14 c-25 -10 -37 -20 -35 -31 3 -13 17 -16 83 -13 153 5 476
60 631 107 45 14 89 25 98 25 14 0 16 -25 16 -229 0 -182 4 -252 20 -343 25
-147 80 -320 138 -433 92 -180 259 -305 458 -344 83 -16 85 -17 79 -41 -3 -14
-8 -69 -12 -122 -7 -114 0 -152 68 -408 27 -102 49 -195 49 -207 0 -22 -2 -23
-107 -20 -91 2 -112 -1 -135 -16 -66 -45 -51 -139 29 -178 38 -18 57 -21 127
-17 107 5 184 40 224 101 42 64 37 139 -26 366 -66 234 -79 323 -63 426 13 89
17 99 39 90 9 -3 113 -17 232 -31 188 -22 248 -25 478 -22 l262 3 -7 -45 c-18
-103 -7 -279 27 -440 19 -85 34 -173 34 -195 l1 -40 -70 -6 c-122 -11 -179
-51 -179 -125 0 -68 74 -111 172 -100 143 17 251 116 252 232 0 22 -13 98 -30
170 -56 247 -72 408 -49 514 12 58 -4 52 199 75 257 29 281 34 357 70 92 45
150 110 208 229 71 147 87 216 92 406 6 196 -2 255 -64 435 -70 203 -137 310
-282 449 -34 31 -61 59 -61 60 0 2 71 6 158 8 213 7 426 40 515 81 80 37 98
54 76 71 -8 6 -13 19 -11 29 2 12 -4 20 -17 24 -16 4 -20 11 -16 24 10 29 -20
34 -58 10 -34 -21 -50 -20 -41 3 3 7 -1 18 -9 25 -18 14 -33 -2 -39 -39 -3
-22 -11 -27 -63 -37 -125 -25 -257 -35 -466 -37 l-216 -1 -74 61 c-130 106
-193 151 -366 261 -256 163 -547 370 -629 446 -97 90 -162 178 -228 307 -101
197 -164 393 -226 696 -22 105 -49 215 -60 244 -45 114 -136 206 -232 235 -54
16 -155 19 -198 6z m172 -167 c70 -36 119 -121 138 -241 55 -333 192 -730 327
-947 48 -77 151 -196 227 -263 75 -67 345 -258 614 -436 151 -100 225 -157
509 -390 202 -166 305 -276 349 -372 13 -27 41 -108 64 -180 119 -379 47 -757
-163 -860 -54 -26 -110 -36 -447 -76 -240 -29 -809 -32 -970 -6 -58 10 -175
26 -260 36 -181 23 -264 46 -346 99 -154 100 -262 301 -308 574 -25 146 -26
822 -3 1073 10 105 19 282 20 395 3 295 -12 1066 -24 1261 -12 190 -6 229 43
285 63 71 150 90 230 48z"/>
<path d="M2630 2798 c-27 -29 -25 -50 6 -82 39 -38 79 -34 103 11 16 31 14 50
-9 73 -27 27 -74 26 -100 -2z"/>
<path d="M3106 2708 c-22 -31 -20 -51 7 -76 46 -43 107 -15 107 48 0 36 -17
50 -61 50 -28 0 -42 -6 -53 -22z"/>
<path d="M2903 1832 c-29 -29 -6 -76 43 -88 41 -10 193 6 209 23 18 18 20 59
3 70 -22 14 -240 10 -255 -5z"/>
<path d="M5293 3979 c-74 -9 -171 -57 -210 -103 -82 -96 -103 -250 -50 -358
69 -140 199 -211 344 -188 184 30 323 183 323 353 -1 109 -60 197 -173 260
-70 39 -133 48 -234 36z m91 -309 c31 -11 26 -32 -12 -49 -22 -11 -28 -10 -39
5 -32 43 -6 66 51 44z"/>
</g>
</svg>
