<?xml version="1.0" standalone="no"?>
<!DOCTYPE svg PUBLIC "-//W3C//DTD SVG 20010904//EN"
 "http://www.w3.org/TR/2001/REC-SVG-20010904/DTD/svg10.dtd">
<svg version="1.0" xmlns="http://www.w3.org/2000/svg"
 width="600.000000pt" height="600.000000pt" viewBox="0 0 600.000000 600.000000"
 preserveAspectRatio="xMidYMid meet">
<metadata>
Created by potrace 1.15, written by Peter Selinger 2001-2017
</metadata>
<g transform="translate(0.000000,600.000000) scale(0.100000,-0.100000)"
fill="#16364b" stroke="none">
<path d="M2470 5484 c-51 -43 -119 -194 -135 -302 -16 -102 40 -207 132 -249
85 -39 183 -41 443 -7 l45 6 -81 -83 c-102 -105 -154 -174 -244 -325 -40 -65
-97 -157 -128 -204 -83 -128 -94 -157 -81 -219 6 -29 22 -65 35 -81 41 -48 74
-53 262 -39 171 12 474 7 622 -10 64 -8 81 -7 117 9 48 21 83 77 83 132 0 44
-38 108 -75 130 -44 25 -198 40 -432 42 -112 0 -203 4 -203 9 0 10 95 161 144
227 22 30 102 119 178 198 76 78 147 161 159 184 53 104 29 219 -58 277 -85
57 -170 61 -461 25 -68 -9 -126 -13 -130 -10 -3 4 6 31 21 62 40 81 34 139
-21 197 -60 64 -138 76 -192 31z"/>
<path d="M1644 5087 c-129 -49 -270 -150 -424 -306 -133 -133 -170 -188 -170
-250 0 -64 27 -111 80 -138 38 -20 60 -23 155 -23 122 0 218 -12 282 -36 39
-14 42 -18 52 -67 6 -29 13 -73 17 -98 8 -63 35 -104 83 -129 68 -34 140 -24
194 28 43 41 50 84 32 204 -19 124 -54 206 -115 266 -52 50 -162 108 -225 118
-25 3 -48 10 -50 15 -12 18 185 129 230 129 27 0 73 32 96 66 12 19 19 47 19
82 0 138 -106 196 -256 139z"/>
<path d="M4130 4727 c-152 -42 -299 -114 -344 -168 -55 -64 -39 -153 36 -202
64 -41 113 -37 220 17 103 52 218 92 242 83 13 -5 15 -15 10 -49 -14 -101 -58
-205 -190 -448 -56 -103 -55 -130 6 -220 68 -101 73 -102 285 -96 99 3 237 9
308 12 l127 7 0 -50 c0 -65 -32 -156 -120 -344 -84 -180 -90 -207 -58 -268 41
-78 138 -106 209 -58 30 20 46 51 127 239 107 251 134 341 135 453 2 100 -20
168 -74 229 -84 95 -188 119 -453 104 -87 -5 -160 -8 -161 -6 -2 2 4 19 14 38
147 305 170 519 68 651 -73 95 -216 123 -387 76z"/>
<path d="M1985 3968 c-44 -16 -176 -54 -293 -83 -132 -33 -221 -60 -234 -72
-71 -64 -61 -186 21 -240 45 -31 74 -29 253 13 426 99 518 147 518 266 0 81
-69 149 -150 147 -19 0 -71 -14 -115 -31z"/>
<path d="M3735 3701 c-108 -39 -301 -156 -399 -242 -106 -94 -57 -249 79 -249
43 0 76 16 158 76 74 55 183 117 197 112 10 -3 -32 -132 -119 -359 -46 -121
-57 -139 -88 -160 -69 -45 -101 -120 -83 -189 16 -60 83 -110 147 -110 27 0
368 141 450 186 196 108 276 232 225 347 -47 106 -187 127 -269 41 l-32 -34
20 57 c30 86 59 226 59 282 0 106 -53 201 -133 240 -54 26 -143 27 -212 2z"/>
<path d="M2365 3434 c-38 -9 -119 -32 -180 -51 -88 -28 -117 -43 -147 -72 -64
-65 -62 -154 6 -220 49 -48 107 -52 211 -16 103 35 197 55 268 55 53 0 57 -2
57 -22 0 -36 -19 -95 -61 -195 -42 -100 -48 -147 -23 -199 46 -96 166 -123
245 -56 35 29 93 144 130 257 18 54 23 93 24 175 0 97 -2 109 -30 163 -37 74
-108 139 -183 168 -74 29 -218 35 -317 13z"/>
<path d="M1143 3135 c-117 -32 -175 -85 -189 -173 -15 -95 57 -190 161 -212
l58 -12 -6 -56 c-3 -32 -14 -109 -23 -172 -35 -241 -20 -492 42 -691 37 -119
103 -169 202 -155 92 12 158 76 177 169 3 15 11 27 18 27 21 0 74 61 92 105
62 150 144 275 249 378 51 51 71 65 77 55 12 -18 11 -269 -1 -393 -5 -55 -22
-159 -37 -231 -23 -114 -25 -136 -15 -171 33 -110 160 -144 251 -67 23 19 37
46 55 107 56 187 61 232 60 532 -1 296 -9 367 -53 453 -25 50 -89 106 -136
122 -149 49 -373 -85 -559 -333 -16 -21 -31 -36 -33 -34 -2 3 1 33 6 68 21
133 31 317 21 396 -28 230 -198 347 -417 288z"/>
<path d="M4816 2810 c-98 -31 -156 -119 -156 -235 l0 -71 -77 -18 c-246 -57
-407 -174 -474 -344 -20 -49 -23 -76 -23 -197 -1 -117 3 -153 22 -218 24 -85
61 -164 98 -214 13 -17 24 -35 24 -40 0 -4 -15 -18 -33 -30 -17 -13 -44 -33
-59 -44 l-27 -22 -118 46 c-65 25 -147 51 -183 57 -84 15 -190 6 -289 -26
-170 -54 -284 -153 -446 -386 -52 -75 -79 -104 -119 -128 -28 -17 -70 -46 -94
-65 -76 -61 -123 -59 -189 10 -46 48 -142 232 -189 360 -45 124 -109 175 -218
175 -87 0 -172 -73 -183 -159 -8 -59 11 -120 81 -266 115 -239 228 -396 333
-463 112 -71 271 -94 398 -58 75 22 181 77 232 121 21 18 63 46 93 62 48 26
65 45 137 149 150 218 252 304 349 290 23 -3 96 -23 161 -45 153 -51 253 -67
322 -52 77 16 149 57 207 117 62 65 83 105 87 170 l3 48 49 12 c66 17 123 60
159 118 25 39 30 58 30 109 -1 78 -24 124 -98 195 -44 42 -59 65 -72 107 -8
30 -12 64 -9 75 9 28 63 53 206 95 195 57 276 111 329 218 68 140 67 341 -4
444 -54 80 -178 129 -260 103z"/>
<path d="M3230 2445 c-129 -18 -513 -110 -601 -144 -36 -13 -86 -75 -99 -120
-22 -82 27 -183 106 -222 58 -28 94 -24 314 34 182 47 364 82 379 73 5 -3 2
-32 -7 -65 -13 -49 -14 -66 -4 -100 17 -54 50 -91 107 -120 39 -19 58 -23 119
-19 61 3 79 8 110 31 50 39 68 69 83 141 19 91 16 203 -7 278 -59 192 -231
272 -500 233z"/>
</g>
</svg>
