<?xml version="1.0" standalone="no"?>
<!DOCTYPE svg PUBLIC "-//W3C//DTD SVG 20010904//EN"
 "http://www.w3.org/TR/2001/REC-SVG-20010904/DTD/svg10.dtd">
<svg version="1.0" xmlns="http://www.w3.org/2000/svg"
 width="600.000000pt" height="600.000000pt" viewBox="0 0 600.000000 600.000000"
 preserveAspectRatio="xMidYMid meet">
<metadata>
Created by potrace 1.15, written by Peter Selinger 2001-2017
</metadata>
<g transform="translate(0.000000,600.000000) scale(0.100000,-0.100000)"
fill="#16364b" stroke="none">
<path d="M1561 5793 c-50 -26 -65 -51 -125 -213 -124 -331 -128 -461 -16 -518
80 -40 162 -15 297 93 121 96 296 295 313 355 24 84 -61 182 -144 164 -41 -8
-44 -11 -154 -143 -53 -63 -98 -109 -100 -103 -2 6 18 65 44 132 47 119 47
123 33 163 -24 70 -89 100 -148 70z"/>
<path d="M875 5527 c-167 -43 -315 -200 -346 -367 -10 -56 -9 -74 4 -121 33
-112 134 -199 231 -199 122 0 159 154 52 220 -19 11 -38 29 -41 40 -9 27 4 71
33 110 32 43 46 54 97 82 l40 21 68 -24 68 -24 36 20 c20 11 45 31 55 45 24
33 26 92 4 125 -41 62 -196 99 -301 72z"/>
<path d="M3422 5382 c-48 -45 -54 -120 -13 -166 10 -11 16 -36 16 -65 0 -98
89 -217 200 -267 71 -33 164 -36 203 -7 101 74 93 182 -23 333 -58 75 -111
118 -202 164 -92 46 -138 48 -181 8z"/>
<path d="M2360 5328 c-50 -34 -61 -62 -57 -138 5 -83 -8 -229 -27 -302 -39
-147 -99 -220 -235 -287 -81 -39 -99 -53 -114 -84 -31 -62 0 -134 69 -163 51
-22 78 -17 172 27 165 79 267 222 327 459 22 85 28 137 32 271 l6 166 -29 32
c-40 44 -96 52 -144 19z"/>
<path d="M3000 5161 c-118 -24 -223 -162 -224 -296 -1 -71 19 -112 77 -159 37
-29 43 -31 125 -31 77 0 95 4 155 32 89 42 100 67 95 208 -2 84 -7 109 -29
150 -37 74 -118 112 -199 96z"/>
<path d="M4755 4776 c-16 -7 -41 -26 -55 -41 -22 -23 -25 -37 -28 -115 -9
-220 84 -434 225 -517 67 -39 163 -44 235 -11 112 52 166 172 134 298 -30 115
-105 203 -263 307 -139 91 -187 106 -248 79z m245 -412 c12 -19 20 -38 17 -41
-6 -5 -47 55 -47 70 0 14 9 6 30 -29z"/>
<path d="M2744 4206 c-105 -26 -203 -107 -225 -188 -17 -65 -6 -141 31 -197
39 -61 93 -98 176 -118 59 -15 72 -15 143 -1 95 19 177 59 278 135 57 42 81
68 95 101 37 84 2 178 -82 219 -113 56 -297 78 -416 49z"/>
<path d="M1087 4085 c-81 -28 -121 -99 -98 -174 12 -42 58 -88 94 -96 12 -2
59 -11 105 -20 45 -9 95 -20 110 -26 l27 -11 -40 -34 c-51 -43 -169 -101 -315
-154 -63 -24 -130 -54 -149 -68 -80 -60 -82 -194 -3 -250 55 -40 89 -38 244
13 162 53 260 97 333 149 l50 36 7 -46 c8 -58 29 -89 76 -113 20 -10 47 -32
59 -49 12 -16 50 -44 84 -61 53 -27 73 -31 139 -31 66 0 86 4 139 31 163 82
190 269 57 405 -85 86 -217 117 -340 80 -48 -15 -48 -14 -42 7 4 12 10 48 13
79 17 169 -147 309 -392 333 -33 3 -73 8 -90 10 -16 2 -47 -2 -68 -10z"/>
<path d="M4223 3780 c-103 -21 -210 -97 -256 -184 -18 -34 -22 -58 -22 -136 0
-84 3 -101 28 -147 59 -113 145 -168 262 -167 58 0 80 6 131 32 131 66 206
180 246 369 l21 101 -22 45 c-25 52 -56 70 -145 86 -68 13 -181 13 -243 1z
m67 -297 c0 -14 -15 -30 -37 -42 -30 -15 -39 3 -13 29 20 20 50 27 50 13z"/>
<path d="M5124 3505 c-116 -44 -203 -117 -252 -210 -23 -43 -27 -62 -27 -140
0 -81 3 -95 30 -144 59 -106 163 -168 269 -159 66 6 151 45 200 94 55 55 105
164 112 245 10 102 -13 164 -89 245 -93 100 -134 111 -243 69z"/>
<path d="M3424 3386 c-50 -23 -91 -74 -149 -190 -59 -117 -64 -140 -40 -190
51 -107 242 -84 327 39 58 84 79 208 45 272 -35 66 -120 98 -183 69z"/>
<path d="M2476 3309 c-144 -58 -271 -207 -351 -409 -70 -180 -101 -220 -230
-291 -198 -109 -346 -269 -463 -499 -168 -332 -143 -697 65 -945 112 -134 306
-266 481 -329 82 -29 95 -31 232 -31 119 0 159 4 222 22 280 81 527 294 665
573 65 133 101 292 124 545 25 284 -21 645 -109 850 -18 44 -45 106 -58 139
-77 191 -203 336 -333 381 -62 22 -184 19 -245 -6z m205 -488 c13 -31 33 -73
46 -94 102 -164 155 -512 119 -783 -33 -249 -100 -414 -218 -535 -222 -228
-470 -276 -709 -138 -166 96 -237 229 -226 424 12 218 168 444 397 574 249
141 348 254 425 491 15 47 39 107 52 134 l25 48 33 -32 c19 -18 44 -58 56 -89z"/>
<path d="M554 2440 c-36 -14 -64 -59 -64 -102 0 -32 -7 -46 -35 -72 -29 -28
-35 -40 -35 -75 0 -73 115 -326 209 -459 212 -299 561 -260 588 67 15 176 -98
347 -342 516 -160 112 -259 150 -321 125z m217 -341 c125 -92 209 -204 209
-277 0 -39 -12 -47 -48 -28 -54 28 -137 131 -191 234 -49 96 -58 122 -45 122
4 0 37 -23 75 -51z"/>
<path d="M4292 2093 c-31 -15 -53 -38 -77 -78 -10 -17 -13 -16 -52 4 -81 41
-179 21 -230 -46 -38 -50 -40 -110 -9 -288 35 -199 41 -217 82 -267 19 -24 49
-65 67 -93 62 -97 180 -123 275 -61 79 54 105 124 122 331 6 72 17 185 26 253
18 147 11 185 -41 231 -29 25 -44 31 -83 31 -26 0 -62 -8 -80 -17z"/>
</g>
</svg>
