<?xml version="1.0" standalone="no"?>
<!DOCTYPE svg PUBLIC "-//W3C//DTD SVG 20010904//EN"
 "http://www.w3.org/TR/2001/REC-SVG-20010904/DTD/svg10.dtd">
<svg version="1.0" xmlns="http://www.w3.org/2000/svg"
 width="600.000000pt" height="600.000000pt" viewBox="0 0 600.000000 600.000000"
 preserveAspectRatio="xMidYMid meet">
<metadata>
Created by potrace 1.15, written by Peter Selinger 2001-2017
</metadata>
<g transform="translate(0.000000,600.000000) scale(0.100000,-0.100000)"
fill="#16364b" stroke="none">
<path d="M3526 5248 c-27 -39 -19 -79 30 -153 56 -87 98 -131 146 -156 45 -23
67 -24 96 -3 29 20 30 82 0 140 -32 65 -112 159 -151 178 -51 24 -102 21 -121
-6z m155 -160 c15 -28 5 -21 -21 15 -15 20 -17 27 -6 18 9 -8 22 -23 27 -33z"/>
<path d="M3020 5095 c-68 -31 -123 -102 -146 -190 -20 -73 -17 -117 9 -156 47
-70 118 -65 205 16 58 54 103 129 115 193 8 41 -16 105 -48 126 -36 24 -95 28
-135 11z m77 -101 c11 -30 -18 -95 -67 -146 -55 -57 -76 -57 -65 1 10 58 45
122 79 142 38 23 45 23 53 3z"/>
<path d="M4763 4752 c-12 -9 -27 -30 -32 -45 -24 -64 -4 -456 29 -571 31 -105
133 -125 184 -36 19 31 21 51 20 190 -1 144 -4 165 -37 295 -29 112 -42 145
-62 163 -31 26 -72 28 -102 4z"/>
<path d="M2638 4213 c-55 -35 -62 -115 -14 -177 68 -89 291 -150 421 -115 77
21 118 88 92 151 -17 40 -24 44 -217 104 -177 55 -242 63 -282 37z"/>
<path d="M5296 3989 c-108 -26 -217 -114 -263 -215 -21 -47 -25 -66 -21 -132
4 -95 31 -154 100 -222 68 -67 140 -94 228 -87 146 13 286 92 343 196 42 74
48 171 16 256 -27 72 -99 147 -179 188 -44 22 -68 27 -120 26 -36 -1 -82 -5
-104 -10z m116 -316 c13 -7 -10 -41 -32 -48 -27 -9 -50 11 -50 42 0 24 2 25
37 18 21 -4 41 -9 45 -12z"/>
<path d="M1406 3935 c-52 -18 -106 -64 -133 -111 -33 -57 -32 -153 2 -221 31
-62 98 -133 171 -179 30 -19 65 -52 79 -72 40 -61 83 -191 147 -447 84 -341
97 -410 108 -585 22 -340 39 -447 106 -655 59 -185 153 -310 282 -378 58 -31
188 -72 285 -92 36 -7 29 -16 -37 -54 -73 -41 -180 -142 -205 -195 -12 -23
-21 -61 -21 -85 0 -129 100 -167 398 -151 92 5 171 5 175 1 5 -5 -16 -22 -46
-39 -99 -56 -123 -117 -68 -173 52 -52 125 -36 209 45 112 106 116 245 9 304
-28 15 -59 17 -262 14 -134 -1 -236 2 -245 7 -34 23 79 105 287 210 l143 71
369 0 369 0 4 -55 c3 -33 13 -67 24 -83 28 -38 114 -79 182 -87 89 -10 88 -10
84 -56 -5 -52 22 -83 87 -99 90 -21 182 14 232 89 34 52 36 69 10 119 -28 56
-69 70 -248 88 -156 16 -203 25 -203 43 0 5 19 12 43 16 23 3 80 14 127 25 47
10 137 26 200 35 149 22 236 50 455 147 277 123 383 203 495 375 128 195 150
390 71 619 -103 299 -311 464 -583 464 -88 0 -210 -25 -270 -56 -18 -9 -60
-37 -93 -62 -130 -98 -299 -153 -524 -172 -311 -27 -538 46 -822 261 -138 105
-186 165 -407 514 -157 248 -286 395 -432 495 -70 47 -282 155 -335 169 -55
15 -172 13 -219 -4z m221 -253 c27 -18 76 -45 109 -62 32 -16 86 -50 119 -75
128 -96 191 -171 363 -430 152 -230 175 -260 291 -375 247 -247 448 -373 701
-441 76 -21 108 -23 305 -24 193 0 233 3 328 23 197 43 326 98 436 188 66 54
140 79 238 78 60 -1 83 -6 137 -33 72 -35 117 -81 177 -181 63 -106 81 -170
77 -272 -4 -78 -8 -95 -46 -171 -72 -147 -188 -255 -372 -347 -202 -102 -288
-130 -467 -156 -341 -48 -1253 -30 -1543 30 -144 30 -219 64 -281 126 -61 60
-84 99 -119 200 -48 141 -70 268 -80 465 -10 209 -17 256 -60 443 -16 70 -45
207 -65 305 -74 370 -147 517 -307 620 -63 40 -88 70 -88 105 0 23 3 24 49 20
32 -3 66 -16 98 -36z"/>
<path d="M2376 2477 c-28 -28 -27 -47 7 -84 26 -29 58 -29 85 0 39 42 22 92
-35 103 -26 5 -37 1 -57 -19z"/>
<path d="M2807 2062 c-24 -27 -21 -59 9 -87 33 -31 57 -32 84 -3 25 27 26 70
2 91 -25 22 -75 21 -95 -1z"/>
<path d="M4214 3756 c-153 -38 -254 -165 -254 -319 0 -106 51 -185 154 -240
33 -17 58 -22 126 -22 73 0 93 4 142 28 69 34 121 91 149 166 18 47 20 72 17
157 -6 131 -20 157 -108 201 -76 38 -152 48 -226 29z m76 -267 c0 -23 -22 -49
-40 -49 -24 0 -26 17 -3 42 18 20 43 24 43 7z"/>
<path d="M3447 3345 c-38 -41 -159 -293 -152 -315 8 -26 40 -43 66 -35 45 15
172 222 185 303 11 68 -51 98 -99 47z"/>
<path d="M467 2012 c-25 -28 -21 -44 21 -84 90 -86 208 -158 260 -158 38 0 66
31 58 65 -7 29 -54 65 -183 141 -97 57 -130 65 -156 36z"/>
<path d="M5343 1105 c-28 -20 -63 -114 -63 -171 0 -80 38 -123 107 -124 74 0
123 72 123 183 0 26 -7 61 -15 76 -24 47 -109 66 -152 36z"/>
</g>
</svg>
