<?xml version="1.0" standalone="no"?>
<!DOCTYPE svg PUBLIC "-//W3C//DTD SVG 20010904//EN"
 "http://www.w3.org/TR/2001/REC-SVG-20010904/DTD/svg10.dtd">
<svg version="1.0" xmlns="http://www.w3.org/2000/svg"
 width="600.000000pt" height="600.000000pt" viewBox="0 0 600.000000 600.000000"
 preserveAspectRatio="xMidYMid meet">
<metadata>
Created by potrace 1.15, written by Peter Selinger 2001-2017
</metadata>
<g transform="translate(0.000000,600.000000) scale(0.100000,-0.100000)"
fill="#16364b" stroke="none">
<path d="M2607 5516 c-55 -20 -74 -41 -117 -126 -111 -222 -96 -374 43 -447
50 -27 58 -28 197 -28 80 0 177 4 215 8 l70 8 -127 -121 c-71 -67 -161 -165
-201 -219 -67 -88 -179 -265 -222 -350 -32 -63 -1 -181 58 -225 28 -20 40 -21
385 -21 196 -1 402 -4 457 -8 91 -8 103 -6 133 12 98 62 93 200 -10 249 -44
21 -131 30 -506 50 l-133 7 69 100 c88 128 187 233 332 354 132 111 170 159
177 224 7 59 -1 88 -34 127 -87 104 -245 137 -506 105 -77 -9 -141 -14 -145
-11 -3 3 8 36 23 72 16 38 28 85 28 108 0 99 -93 165 -186 132z"/>
<path d="M1624 5151 c-192 -69 -407 -263 -545 -493 -41 -67 -49 -90 -49 -129
0 -61 22 -108 66 -138 32 -22 42 -24 226 -25 142 -1 204 -5 233 -16 l40 -15 5
-137 5 -138 38 -37 c36 -37 39 -38 110 -38 60 0 77 4 103 24 53 39 65 79 66
226 2 114 -1 137 -21 188 -48 123 -190 232 -339 259 l-62 12 27 28 c41 43 142
104 203 124 106 33 146 85 138 179 -5 62 -29 98 -84 125 -49 24 -92 24 -160 1z"/>
<path d="M4205 4729 c-80 -23 -204 -81 -285 -134 -99 -65 -128 -136 -88 -215
46 -89 133 -107 234 -50 123 69 141 78 202 100 34 13 65 20 69 16 11 -10 -18
-135 -48 -214 -39 -98 -80 -178 -148 -286 -74 -120 -76 -154 -11 -250 69 -102
65 -101 392 -102 152 -1 284 -4 293 -8 14 -5 16 -14 10 -44 -13 -68 -66 -224
-128 -371 -65 -155 -72 -194 -43 -249 43 -84 187 -86 243 -5 20 28 102 217
143 328 49 132 71 223 77 311 7 109 -10 170 -63 233 -74 86 -166 111 -411 111
-95 0 -173 2 -173 4 0 2 18 41 39 87 54 115 87 219 107 330 20 120 13 198 -28
280 -66 133 -203 179 -383 128z"/>
<path d="M2013 4000 c-64 -29 -244 -85 -368 -114 -167 -40 -180 -44 -208 -66
-35 -28 -61 -100 -53 -144 13 -70 82 -126 155 -126 80 0 509 122 610 173 110
56 110 225 1 279 -45 23 -84 22 -137 -2z"/>
<path d="M3763 3705 c-88 -19 -205 -83 -310 -170 -72 -59 -95 -84 -108 -119
-22 -58 -14 -105 26 -151 61 -69 140 -68 216 1 43 39 180 134 194 134 5 0 9
-5 9 -12 0 -26 -76 -231 -126 -338 -52 -112 -54 -115 -107 -142 -30 -15 -66
-41 -80 -58 -62 -73 -36 -193 53 -237 24 -13 56 -23 71 -23 14 0 73 23 130 51
57 28 160 74 228 101 158 63 193 81 242 125 54 49 81 103 81 167 1 108 -79
184 -184 174 -56 -6 -55 -8 -32 89 22 93 15 233 -13 288 -55 105 -161 149
-290 120z"/>
<path d="M2454 3449 c-94 -10 -292 -58 -358 -87 -104 -47 -118 -178 -26 -256
51 -42 99 -52 162 -31 159 52 325 84 370 69 18 -5 20 -12 15 -55 -3 -27 -29
-103 -57 -169 -27 -66 -50 -134 -50 -150 0 -140 178 -212 265 -108 30 35 86
152 115 237 100 298 -1 518 -253 551 -80 10 -72 11 -183 -1z"/>
<path d="M1193 3180 c-63 -13 -169 -67 -206 -104 -33 -32 -57 -92 -57 -137 0
-13 11 -47 24 -76 30 -65 82 -101 156 -110 l53 -6 -6 -66 c-4 -36 -13 -133
-22 -216 -26 -259 -17 -479 24 -633 16 -59 74 -115 135 -131 85 -21 176 20
216 99 11 22 31 47 45 56 14 9 55 74 96 152 39 76 97 175 128 222 52 79 184
230 201 230 15 0 21 -54 21 -213 0 -186 -9 -256 -58 -458 -41 -165 -40 -199 7
-253 39 -44 79 -60 137 -53 38 4 54 12 79 40 37 40 41 51 89 267 63 283 83
480 66 665 -15 177 -55 264 -144 319 -97 60 -236 40 -364 -53 -71 -52 -182
-162 -236 -234 -28 -38 -53 -64 -55 -57 -2 6 4 86 13 177 27 253 9 373 -69
476 -59 78 -172 118 -273 97z"/>
<path d="M4802 2742 c-49 -20 -105 -70 -129 -116 -9 -17 -18 -64 -21 -104 l-5
-72 -86 -26 c-175 -52 -218 -67 -295 -107 -183 -94 -266 -247 -253 -467 6
-115 46 -234 112 -334 l43 -67 -41 -39 c-49 -45 -46 -45 -190 11 -273 108
-406 106 -603 -9 -133 -77 -265 -219 -361 -385 -25 -42 -55 -82 -66 -89 -12
-6 -43 -30 -69 -54 -57 -53 -88 -56 -140 -14 -73 60 -152 204 -212 387 -31 93
-43 117 -73 144 -121 106 -285 71 -324 -68 -14 -53 -4 -110 47 -251 99 -275
239 -482 381 -565 113 -65 256 -84 370 -49 66 21 152 73 216 130 23 21 57 44
75 52 42 16 75 56 119 144 75 150 209 300 290 324 49 15 84 5 228 -61 122 -56
183 -70 283 -65 61 3 91 10 144 35 114 53 197 157 198 244 0 31 4 38 26 43 74
19 148 101 163 181 15 80 -4 138 -70 213 -46 53 -70 103 -77 159 -4 41 -3 43
31 58 19 8 80 24 134 35 54 12 120 28 147 37 148 47 259 161 307 312 25 80 27
217 5 294 -37 126 -176 190 -304 139z"/>
<path d="M3123 2486 c-137 -26 -488 -127 -525 -151 -54 -35 -93 -120 -85 -186
16 -136 126 -189 288 -140 181 56 472 121 485 109 2 -3 -5 -31 -16 -63 -36
-104 -23 -174 43 -232 86 -75 226 -66 291 20 28 36 70 172 80 259 13 108 -28
232 -100 302 -21 20 -62 48 -93 63 -50 24 -70 27 -176 30 -72 1 -149 -3 -192
-11z"/>
</g>
</svg>
