<?xml version="1.0" standalone="no"?>
<!DOCTYPE svg PUBLIC "-//W3C//DTD SVG 20010904//EN"
 "http://www.w3.org/TR/2001/REC-SVG-20010904/DTD/svg10.dtd">
<svg version="1.0" xmlns="http://www.w3.org/2000/svg"
 width="600.000000pt" height="600.000000pt" viewBox="0 0 600.000000 600.000000"
 preserveAspectRatio="xMidYMid meet">
<metadata>
Created by potrace 1.15, written by Peter Selinger 2001-2017
</metadata>
<g transform="translate(0.000000,600.000000) scale(0.100000,-0.100000)"
fill="#16364b" stroke="none">
<path d="M1535 5791 c-36 -16 -72 -61 -84 -104 -6 -23 -16 -122 -23 -220 -23
-341 17 -493 147 -553 59 -28 84 -29 153 -9 37 11 67 30 106 68 140 137 354
544 332 631 -17 67 -100 115 -168 95 -59 -17 -74 -35 -118 -146 -66 -165 -153
-333 -174 -333 -13 0 1 258 19 366 18 101 11 135 -35 179 -23 22 -41 29 -82
32 -29 1 -62 -1 -73 -6z"/>
<path d="M859 5491 c-107 -34 -204 -118 -251 -217 -51 -108 -59 -241 -22 -347
35 -99 134 -202 208 -214 79 -13 153 61 143 144 -4 38 -13 54 -57 98 -47 48
-52 56 -52 98 0 53 29 111 69 141 28 21 51 22 144 11 53 -7 58 -6 92 25 46 40
62 93 47 149 -29 107 -176 158 -321 112z"/>
<path d="M3281 5493 c-18 -9 -42 -31 -52 -47 -42 -68 -14 -122 97 -191 90 -55
214 -151 214 -165 0 -6 -9 -10 -19 -10 -11 0 -33 -11 -48 -24 -25 -22 -28 -30
-28 -90 0 -65 0 -66 50 -116 164 -167 395 -129 395 65 -1 145 -176 382 -390
525 -107 72 -158 84 -219 53z"/>
<path d="M3010 5190 c-70 -13 -117 -48 -170 -125 -64 -93 -88 -229 -55 -308
46 -111 166 -144 318 -87 120 45 150 92 150 235 1 107 -19 173 -66 223 -44 48
-118 74 -177 62z"/>
<path d="M2294 5056 c-52 -23 -70 -56 -77 -142 -10 -108 -28 -130 -159 -185
-68 -28 -116 -55 -140 -80 -34 -33 -38 -42 -38 -88 0 -63 20 -105 63 -131 45
-28 72 -25 178 16 231 89 304 152 355 304 27 80 26 225 -1 262 -39 54 -116 72
-181 44z"/>
<path d="M4805 4822 c-33 -7 -74 -41 -91 -75 -14 -26 -16 -54 -11 -162 11
-272 84 -442 219 -509 94 -47 187 -28 266 55 61 63 85 120 90 212 4 74 2 83
-32 151 -55 112 -179 227 -321 298 -57 29 -91 37 -120 30z"/>
<path d="M2775 4141 c-78 -20 -143 -70 -178 -136 -28 -53 -30 -164 -3 -215 25
-49 64 -88 111 -113 35 -19 56 -22 165 -22 171 0 305 38 442 126 112 72 117
222 9 275 -18 9 -95 32 -170 51 -141 36 -311 52 -376 34z"/>
<path d="M1044 4062 c-47 -22 -78 -58 -94 -108 -17 -50 -4 -99 36 -144 37 -41
68 -51 199 -65 33 -4 73 -12 89 -19 l29 -12 -52 -49 c-65 -61 -190 -146 -391
-263 -181 -105 -203 -130 -197 -219 4 -62 36 -113 88 -142 62 -35 99 -28 232
44 66 36 120 64 122 63 1 -2 7 -18 15 -36 17 -43 71 -89 120 -102 54 -15 105
0 166 49 113 88 220 129 295 112 101 -24 163 -9 212 49 36 42 43 90 22 145
-19 52 -57 86 -120 111 -37 14 -65 16 -155 11 l-109 -6 34 47 c159 222 46 468
-243 527 -37 7 -110 16 -162 20 -81 5 -101 3 -136 -13z"/>
<path d="M4220 3756 c-120 -35 -215 -109 -266 -207 -24 -46 -29 -66 -29 -134
0 -91 19 -137 77 -191 65 -62 112 -79 218 -79 83 0 102 3 151 28 60 29 133 97
180 167 60 89 99 237 80 301 -14 45 -67 94 -118 109 -60 18 -241 22 -293 6z
m80 -283 c0 -14 -34 -43 -52 -43 -27 0 -22 17 10 34 30 17 42 19 42 9z"/>
<path d="M3422 3397 c-48 -15 -102 -82 -161 -200 -55 -112 -63 -156 -35 -208
20 -40 90 -72 139 -64 19 3 51 8 71 11 45 7 108 63 140 125 29 59 50 171 40
221 -8 46 -49 96 -93 114 -37 16 -55 16 -101 1z"/>
<path d="M5074 3355 c-129 -68 -213 -145 -265 -245 -18 -35 -23 -61 -23 -120
0 -123 55 -215 160 -266 48 -23 63 -26 124 -22 178 13 308 153 318 344 5 97
-18 165 -88 257 -73 98 -118 108 -226 52z"/>
<path d="M2253 2886 c-123 -40 -189 -108 -274 -282 -57 -119 -69 -136 -153
-220 -174 -175 -262 -294 -347 -469 -82 -171 -94 -229 -93 -450 0 -215 12
-282 69 -400 85 -174 248 -306 478 -385 128 -44 192 -54 332 -55 109 0 142 4
205 24 147 46 306 141 436 264 177 165 303 418 350 702 27 160 24 412 -4 518
-55 202 -166 326 -345 382 -116 37 -138 54 -188 147 -83 154 -192 229 -344
235 -49 2 -96 -2 -122 -11z m230 -614 c77 -79 110 -96 222 -116 188 -33 197
-41 203 -175 3 -66 -2 -117 -23 -219 -61 -306 -122 -444 -252 -576 -226 -229
-508 -254 -747 -64 -27 21 -60 53 -73 70 -80 109 -91 315 -26 488 40 108 104
197 223 313 176 171 242 264 314 441 l17 40 40 -70 c22 -38 68 -97 102 -132z"/>
<path d="M990 2777 c-41 -15 -80 -68 -80 -111 0 -49 34 -92 112 -142 146 -93
193 -161 192 -284 0 -93 -28 -158 -87 -201 -73 -53 -138 -35 -198 54 -47 70
-76 95 -120 102 -44 8 -94 -11 -128 -49 -38 -40 -41 -122 -8 -178 89 -151 220
-228 387 -228 156 0 271 69 343 207 53 102 71 173 71 283 0 229 -114 414 -319
515 -84 42 -119 49 -165 32z"/>
<path d="M4111 2298 c-23 -13 -57 -43 -75 -67 -28 -38 -31 -50 -31 -112 l0
-69 -62 6 c-66 7 -103 -2 -157 -39 -33 -23 -65 -88 -66 -132 0 -53 116 -511
139 -549 33 -53 85 -81 152 -81 37 0 65 6 83 18 21 14 37 17 66 12 105 -18
232 67 264 176 23 77 20 219 -9 404 -14 88 -28 194 -32 235 -11 142 -65 210
-171 218 -46 3 -66 -1 -101 -20z"/>
</g>
</svg>
