<?xml version="1.0" standalone="no"?>
<!DOCTYPE svg PUBLIC "-//W3C//DTD SVG 20010904//EN"
 "http://www.w3.org/TR/2001/REC-SVG-20010904/DTD/svg10.dtd">
<svg version="1.0" xmlns="http://www.w3.org/2000/svg"
 width="600.000000pt" height="600.000000pt" viewBox="0 0 600.000000 600.000000"
 preserveAspectRatio="xMidYMid meet">
<metadata>
Created by potrace 1.15, written by Peter Selinger 2001-2017
</metadata>
<g transform="translate(0.000000,600.000000) scale(0.100000,-0.100000)"
fill="#16364b" stroke="none">
<path d="M2377 5382 c-14 -15 -17 -42 -17 -148 0 -221 -31 -400 -90 -521 -38
-77 -120 -159 -196 -197 -77 -38 -94 -53 -94 -86 0 -64 57 -67 161 -6 150 88
253 235 298 426 24 98 45 337 39 445 -3 61 -7 80 -23 91 -26 19 -59 18 -78 -4z"/>
<path d="M3532 5303 c-7 -3 -22 -23 -33 -44 -17 -34 -18 -45 -8 -82 48 -178
226 -325 317 -261 29 20 29 80 1 137 -32 62 -113 178 -145 209 -43 40 -95 56
-132 41z"/>
<path d="M2999 5080 c-81 -42 -140 -148 -147 -260 -4 -73 -3 -77 26 -108 22
-24 39 -32 64 -32 64 0 171 89 220 184 24 47 34 131 19 168 -24 62 -113 85
-182 48z m81 -124 c0 -44 -106 -173 -126 -153 -11 11 28 109 58 143 36 41 68
45 68 10z"/>
<path d="M4774 4746 c-28 -23 -28 -25 -37 -192 -19 -374 11 -489 128 -489 87
0 120 63 119 225 -2 219 -62 438 -129 468 -37 17 -50 15 -81 -12z"/>
<path d="M2673 4233 c-13 -2 -37 -18 -54 -36 -29 -28 -31 -35 -27 -84 5 -60
32 -97 104 -139 56 -33 184 -64 264 -64 127 0 200 44 200 121 0 56 -31 84
-130 120 -197 72 -297 95 -357 82z"/>
<path d="M5226 3975 c-140 -39 -215 -156 -204 -316 13 -176 156 -319 318 -319
113 0 244 70 307 164 42 62 56 116 50 194 -9 116 -75 210 -186 267 -44 22 -63
25 -143 24 -51 0 -115 -7 -142 -14z m161 -278 c25 -14 20 -28 -15 -46 -20 -11
-26 -10 -38 6 -7 10 -14 26 -14 36 0 20 34 23 67 4z"/>
<path d="M1305 3781 c-65 -12 -111 -37 -158 -84 -111 -110 -115 -296 -9 -411
42 -45 120 -91 205 -121 103 -37 155 -83 206 -186 96 -191 161 -504 215 -1029
26 -256 94 -407 256 -571 72 -73 111 -104 162 -129 l68 -33 -32 -39 c-39 -50
-51 -132 -23 -174 41 -63 125 -70 467 -39 178 16 210 17 233 5 21 -12 25 -19
19 -43 -14 -65 43 -119 108 -101 47 14 72 54 70 116 -1 65 -37 120 -106 163
-47 29 -53 30 -153 27 -57 -1 -177 -9 -266 -17 -191 -18 -180 -17 -173 -6 7
10 92 27 216 41 68 8 133 8 224 0 71 -5 247 -10 392 -10 169 0 273 -4 291 -11
36 -15 241 -14 339 1 69 11 78 10 87 -5 14 -25 70 -45 129 -45 74 0 133 31
169 89 25 41 36 49 86 65 178 55 462 194 565 276 137 110 230 250 280 425 18
65 23 105 23 215 0 160 -19 234 -93 370 -55 99 -193 245 -283 298 -233 136
-492 100 -749 -107 -55 -44 -143 -106 -196 -137 -371 -218 -669 -212 -1027 22
-134 87 -259 215 -416 424 -273 363 -416 506 -601 600 -69 35 -304 134 -350
148 -51 15 -129 21 -175 13z m188 -306 c171 -66 215 -86 290 -135 95 -63 235
-210 390 -410 272 -351 402 -479 619 -609 217 -130 490 -194 688 -161 253 42
625 218 780 368 19 19 64 48 100 65 57 28 75 32 150 32 71 0 94 -4 141 -26 74
-35 128 -85 185 -171 57 -85 82 -150 93 -237 24 -193 -66 -385 -236 -502 -69
-48 -355 -184 -445 -212 -202 -64 -434 -81 -987 -74 -230 3 -421 9 -441 15
-19 6 -96 15 -170 21 -244 20 -380 63 -462 145 -90 90 -128 201 -158 461 -55
472 -117 778 -196 959 -92 214 -207 334 -379 397 -74 26 -125 63 -125 90 0 30
56 24 163 -16z"/>
<path d="M2310 2410 c-24 -24 -25 -32 -6 -69 38 -73 126 -51 126 32 0 53 -80
77 -120 37z"/>
<path d="M2830 2040 c-27 -27 -25 -56 6 -85 38 -35 70 -32 94 7 21 35 18 65
-8 86 -24 18 -69 15 -92 -8z"/>
<path d="M4199 3755 c-188 -60 -279 -270 -196 -448 49 -106 132 -159 244 -158
121 1 227 71 285 189 31 63 33 73 33 177 0 142 -15 175 -99 219 -47 25 -71 30
-139 33 -53 2 -98 -2 -128 -12z m111 -278 c0 -20 -30 -57 -46 -57 -19 0 -18
29 3 52 19 21 43 24 43 5z"/>
<path d="M3436 3348 c-57 -58 -166 -263 -166 -313 0 -33 32 -57 71 -53 27 2
43 14 80 62 61 75 139 227 139 270 0 69 -70 88 -124 34z"/>
<path d="M480 2020 c-33 -33 -24 -56 40 -117 135 -126 250 -173 300 -123 32
32 26 72 -18 112 -43 39 -250 148 -281 148 -12 0 -30 -9 -41 -20z"/>
<path d="M5365 1121 c-70 -29 -120 -203 -80 -280 17 -34 64 -55 103 -46 62 13
101 87 109 206 5 73 4 79 -20 103 -27 27 -71 33 -112 17z"/>
</g>
</svg>
