<?xml version="1.0" standalone="no"?>
<!DOCTYPE svg PUBLIC "-//W3C//DTD SVG 20010904//EN"
 "http://www.w3.org/TR/2001/REC-SVG-20010904/DTD/svg10.dtd">
<svg version="1.0" xmlns="http://www.w3.org/2000/svg"
 width="600.000000pt" height="600.000000pt" viewBox="0 0 600.000000 600.000000"
 preserveAspectRatio="xMidYMid meet">
<metadata>
Created by potrace 1.15, written by Peter Selinger 2001-2017
</metadata>
<g transform="translate(0.000000,600.000000) scale(0.100000,-0.100000)"
fill="#16364b" stroke="none">
<path d="M1902 5820 c-18 -4 -41 -15 -52 -25 -23 -21 -246 -443 -283 -536 -32
-81 -57 -173 -57 -212 0 -129 108 -220 232 -197 93 18 182 73 364 226 67 56
160 132 208 169 47 37 93 80 101 95 58 111 -60 232 -200 206 -21 -4 -70 -33
-122 -72 -47 -36 -88 -63 -90 -60 -3 2 19 50 48 106 57 112 65 160 35 219 -31
59 -115 96 -184 81z"/>
<path d="M2995 5691 c-59 -27 -78 -53 -83 -116 -6 -68 20 -114 86 -152 72 -41
219 -140 302 -203 151 -115 255 -256 267 -363 5 -38 2 -46 -20 -64 -15 -11
-53 -26 -86 -32 -73 -14 -117 -48 -131 -100 -20 -75 27 -155 107 -182 83 -27
274 40 348 122 21 23 49 67 64 98 23 49 26 68 25 151 0 83 -4 106 -33 179 -93
234 -331 469 -636 626 -115 60 -146 65 -210 36z"/>
<path d="M953 5406 c-245 -62 -422 -296 -384 -509 22 -125 101 -243 223 -333
73 -53 120 -63 181 -36 56 25 89 71 95 132 6 61 -12 94 -79 145 -89 68 -117
129 -90 197 21 53 65 79 186 107 141 34 171 197 53 284 -34 25 -114 31 -185
13z"/>
<path d="M2800 5057 c-195 -116 -176 -464 29 -525 48 -15 129 -15 207 -2 83
15 110 27 144 67 34 38 40 90 15 133 -8 14 -14 47 -15 74 0 60 -47 162 -97
212 -81 82 -190 97 -283 41z"/>
<path d="M4760 4888 c-62 -42 -80 -80 -80 -168 0 -86 22 -228 47 -305 55 -171
174 -275 317 -276 111 -1 195 51 243 149 36 75 38 197 5 282 -46 116 -158 224
-311 297 -100 48 -171 55 -221 21z"/>
<path d="M1949 4716 c-25 -7 -69 -26 -97 -41 -122 -67 -116 -217 11 -269 50
-21 71 -19 155 15 44 18 64 4 77 -52 14 -60 30 -86 68 -109 41 -25 97 -25 145
-1 73 37 107 99 99 181 -10 113 -82 218 -180 261 -64 28 -207 36 -278 15z"/>
<path d="M1175 4006 c-215 -42 -276 -71 -314 -149 -67 -138 43 -290 200 -275
27 3 49 2 49 -1 0 -3 -32 -46 -71 -96 -156 -197 -278 -405 -403 -688 -69 -154
-79 -203 -55 -264 25 -67 109 -122 187 -123 57 0 108 23 157 70 22 21 96 80
165 131 138 102 254 196 375 304 106 95 217 185 227 185 16 0 8 -165 -12 -247
-53 -221 -272 -662 -446 -897 -27 -36 -52 -80 -55 -97 -21 -100 80 -193 188
-173 94 18 204 185 467 712 130 260 170 354 190 454 26 124 17 317 -20 448
-22 76 -92 146 -159 156 -109 16 -214 -22 -389 -139 -55 -37 -101 -65 -103
-63 -2 2 28 43 67 91 182 222 223 337 170 479 -49 128 -127 186 -264 192 -44
2 -112 -3 -151 -10z"/>
<path d="M2955 3996 c-114 -29 -213 -95 -252 -169 -24 -45 -23 -140 4 -197 47
-103 161 -189 298 -224 81 -21 255 -36 298 -26 91 20 139 106 117 206 -10 45
-10 49 18 78 42 45 54 73 54 127 0 91 -43 132 -194 186 -88 31 -260 41 -343
19z"/>
<path d="M4305 3804 c-153 -21 -231 -51 -298 -113 -120 -111 -119 -309 1 -434
63 -66 104 -82 207 -82 141 0 236 45 320 153 81 103 153 280 141 346 -9 47
-61 101 -111 115 -44 12 -212 22 -260 15z m-44 -314 c-13 -11 -33 -20 -45 -20
-21 1 -21 1 3 20 13 11 33 20 45 20 21 -1 21 -1 -3 -20z"/>
<path d="M3404 3366 c-64 -30 -115 -89 -167 -196 -51 -103 -56 -165 -19 -218
40 -55 87 -72 201 -73 86 0 105 3 147 24 60 31 87 59 113 117 78 178 -13 370
-176 370 -29 0 -68 -9 -99 -24z"/>
<path d="M4980 3063 c-66 -26 -235 -196 -275 -277 -89 -181 -29 -371 128 -406
93 -21 210 24 308 117 82 78 113 151 113 263 0 57 -6 98 -17 123 -20 47 -113
154 -149 173 -27 14 -80 17 -108 7z"/>
<path d="M3949 2587 c-25 -7 -59 -23 -76 -35 -37 -26 -83 -113 -83 -156 0 -17
18 -94 40 -170 22 -77 38 -142 35 -144 -2 -3 -19 2 -37 11 -127 60 -247 41
-331 -52 -75 -83 -104 -182 -92 -315 9 -108 72 -356 124 -488 64 -164 133
-218 275 -218 75 0 130 24 173 73 60 68 65 145 16 254 -21 49 -22 55 -6 48
132 -55 168 -56 274 -7 88 40 142 91 179 165 60 123 50 225 -43 462 -31 77
-76 208 -102 290 -54 177 -79 219 -155 257 -66 34 -130 42 -191 25z"/>
<path d="M1965 2187 c-63 -30 -144 -118 -208 -226 -61 -102 -70 -158 -37 -226
12 -26 29 -49 36 -52 22 -8 18 -15 -44 -79 -108 -111 -142 -215 -149 -459 -13
-421 86 -600 421 -766 177 -87 280 -112 476 -113 145 -1 160 1 235 26 106 37
199 108 291 223 102 126 123 200 79 285 -12 22 -10 28 19 65 92 115 150 245
225 510 78 270 88 336 67 437 -31 145 -131 233 -286 254 -96 12 -282 -52 -566
-197 l-131 -66 -21 96 c-27 119 -58 185 -107 233 -55 53 -99 72 -180 76 -58 2
-79 -1 -120 -21z m990 -675 c-49 -156 -106 -286 -179 -405 -51 -84 -60 -108
-64 -156 -3 -40 1 -67 12 -89 16 -31 16 -31 -25 -79 -95 -109 -173 -147 -299
-146 -124 2 -281 73 -367 166 -65 70 -86 139 -87 282 -1 105 2 126 22 170 27
59 55 91 99 112 39 18 49 13 59 -30 12 -58 64 -155 99 -186 104 -91 263 -36
305 106 12 40 8 81 -14 135 -6 12 13 28 86 71 137 80 264 147 327 173 47 20
57 21 59 8 2 -8 -13 -67 -33 -132z"/>
</g>
</svg>
