<?xml version="1.0" standalone="no"?>
<!DOCTYPE svg PUBLIC "-//W3C//DTD SVG 20010904//EN"
 "http://www.w3.org/TR/2001/REC-SVG-20010904/DTD/svg10.dtd">
<svg version="1.0" xmlns="http://www.w3.org/2000/svg"
 width="600.000000pt" height="600.000000pt" viewBox="0 0 600.000000 600.000000"
 preserveAspectRatio="xMidYMid meet">
<metadata>
Created by potrace 1.15, written by Peter Selinger 2001-2017
</metadata>
<g transform="translate(0.000000,600.000000) scale(0.100000,-0.100000)"
fill="#16364b" stroke="none">
<path d="M1539 5757 c-14 -8 -59 -34 -100 -59 -41 -25 -114 -67 -163 -94 -49
-27 -107 -65 -130 -85 -38 -34 -41 -40 -41 -89 0 -44 4 -55 28 -76 40 -35 104
-32 337 16 254 53 268 57 296 87 60 64 -1 158 -91 141 -29 -6 -30 -2 -10 32
23 40 18 69 -19 106 -37 37 -65 42 -107 21z"/>
<path d="M2377 5425 c-39 -22 -47 -51 -47 -168 -1 -191 -43 -423 -99 -544 -39
-83 -97 -143 -182 -188 -54 -28 -74 -45 -84 -69 -16 -38 -10 -72 18 -103 42
-46 102 -35 221 41 199 127 301 381 322 806 7 134 -1 183 -35 214 -27 24 -81
29 -114 11z"/>
<path d="M3514 5298 c-48 -54 -54 -101 -24 -184 39 -112 156 -226 245 -239 77
-11 135 39 135 117 0 93 -116 257 -215 304 -65 31 -115 31 -141 2z"/>
<path d="M2971 5094 c-152 -76 -213 -305 -107 -403 38 -35 117 -40 182 -12
115 51 154 102 176 230 11 64 10 75 -8 118 -39 94 -135 120 -243 67z m56 -219
c-4 -8 -11 -15 -17 -15 -7 0 -7 6 0 21 13 23 26 19 17 -6z"/>
<path d="M4755 4755 c-17 -8 -36 -24 -43 -35 -34 -56 -21 -318 23 -459 49
-154 121 -226 226 -226 66 0 94 16 146 84 71 92 82 237 27 348 -46 95 -248
283 -319 297 -18 3 -42 0 -60 -9z"/>
<path d="M2730 4233 c-96 -16 -174 -71 -200 -139 -27 -70 7 -185 71 -238 63
-54 112 -69 209 -64 73 3 98 9 152 36 89 44 187 135 198 185 19 89 -24 141
-149 181 -117 37 -213 50 -281 39z"/>
<path d="M1097 4119 c-27 -16 -47 -64 -47 -113 0 -65 37 -105 127 -134 38 -12
78 -28 88 -37 19 -13 17 -14 -23 -15 -23 0 -70 9 -104 21 -66 22 -108 20 -146
-7 -31 -21 -55 -82 -47 -120 10 -56 39 -81 128 -110 246 -78 467 25 467 218 0
110 -98 207 -281 278 -81 31 -131 37 -162 19z"/>
<path d="M4179 3764 c-102 -31 -194 -123 -220 -217 -16 -60 -6 -163 22 -222
45 -96 125 -153 229 -162 113 -11 216 31 294 118 56 62 86 141 93 241 10 131
-30 183 -179 232 -87 29 -167 33 -239 10z m119 -296 c-18 -27 -58 -37 -58 -14
0 17 27 35 54 36 17 0 17 -2 4 -22z"/>
<path d="M5224 3756 c-166 -40 -269 -172 -268 -342 0 -178 146 -321 307 -299
130 18 235 91 297 206 26 50 34 78 38 135 6 89 -17 143 -83 201 -129 113 -173
128 -291 99z m76 -309 c0 -19 -37 -50 -49 -42 -25 15 -2 55 31 55 10 0 18 -6
18 -13z"/>
<path d="M1626 3707 c-14 -15 -26 -36 -26 -48 0 -55 95 -342 126 -378 43 -52
110 -47 140 10 29 56 -3 185 -86 349 -34 67 -47 79 -93 87 -29 4 -40 1 -61
-20z"/>
<path d="M3444 3389 c-18 -5 -47 -26 -65 -47 -42 -48 -139 -251 -139 -292 0
-37 43 -85 85 -96 72 -18 183 62 231 169 32 71 43 162 24 207 -21 50 -79 75
-136 59z"/>
<path d="M1745 3061 c-314 -51 -559 -201 -661 -403 -67 -132 -91 -297 -64
-438 27 -145 131 -273 302 -373 120 -71 205 -154 283 -277 182 -287 246 -356
408 -441 215 -112 391 -123 657 -42 148 46 161 48 312 68 324 42 734 192 935
344 235 177 411 446 433 662 18 181 -40 311 -215 485 -92 91 -187 148 -296
176 -78 20 -92 20 -204 9 -178 -17 -518 -15 -613 5 -42 8 -138 40 -212 70
-338 138 -415 154 -765 159 -137 2 -272 0 -300 -4z m506 -377 c98 -17 135 -29
259 -87 182 -84 290 -121 462 -157 103 -22 114 -22 350 -11 134 6 280 16 326
23 80 12 85 11 127 -11 24 -13 73 -54 109 -91 61 -63 66 -71 66 -112 0 -185
-180 -389 -463 -527 -120 -58 -250 -109 -335 -131 -73 -19 -274 -50 -324 -50
-31 0 -84 -14 -151 -39 -177 -68 -287 -89 -375 -72 -124 24 -172 69 -372 351
-173 243 -259 335 -381 403 -125 70 -159 112 -159 198 0 55 24 107 73 157 48
50 106 82 209 116 63 20 102 30 203 50 56 11 290 5 376 -10z"/>
<path d="M395 2175 c-33 -32 -32 -64 6 -155 81 -199 158 -318 250 -385 158
-117 314 -52 296 122 -13 121 -117 230 -365 379 -118 71 -150 77 -187 39z"/>
<path d="M4876 1579 c-15 -4 -37 -16 -48 -26 -14 -13 -36 -18 -77 -18 -73 0
-116 -28 -132 -87 -21 -80 26 -306 77 -367 13 -16 45 -37 70 -47 109 -42 204
43 239 213 25 122 30 235 11 271 -25 48 -88 75 -140 61z"/>
</g>
</svg>
