<?xml version="1.0" standalone="no"?>
<!DOCTYPE svg PUBLIC "-//W3C//DTD SVG 20010904//EN"
 "http://www.w3.org/TR/2001/REC-SVG-20010904/DTD/svg10.dtd">
<svg version="1.0" xmlns="http://www.w3.org/2000/svg"
 width="600.000000pt" height="600.000000pt" viewBox="0 0 600.000000 600.000000"
 preserveAspectRatio="xMidYMid meet">
<metadata>
Created by potrace 1.15, written by Peter Selinger 2001-2017
</metadata>
<g transform="translate(0.000000,600.000000) scale(0.100000,-0.100000)"
fill="#16364b" stroke="none">
<path d="M2278 5443 c-56 -35 -120 -194 -122 -302 -2 -120 47 -197 148 -236
57 -22 181 -16 321 14 50 10 92 18 94 16 2 -2 -23 -41 -55 -87 -129 -184 -168
-250 -247 -408 -73 -147 -82 -171 -82 -221 0 -44 5 -62 26 -90 23 -30 25 -41
22 -94 -3 -48 0 -67 16 -93 26 -40 76 -72 116 -72 17 0 120 22 230 50 110 27
298 68 419 90 235 42 268 55 301 120 45 88 -20 190 -121 190 -20 0 -78 -7
-128 -15 -50 -8 -166 -26 -257 -40 -91 -14 -200 -34 -242 -44 -59 -14 -77 -15
-77 -6 0 7 20 53 44 101 43 86 62 116 230 363 110 162 139 228 144 322 5 87
-12 131 -70 186 -77 74 -167 83 -372 38 -70 -15 -129 -26 -131 -23 -3 3 2 21
10 41 31 75 13 144 -48 191 -41 32 -126 36 -169 9z"/>
<path d="M3878 5055 c-104 -26 -235 -104 -269 -158 -24 -40 -25 -107 -2 -154
39 -83 131 -94 237 -30 72 44 163 68 177 46 15 -22 4 -174 -20 -265 -11 -45
-37 -122 -56 -172 -41 -106 -43 -147 -12 -192 35 -53 70 -73 125 -74 l49 -1
-4 -37 c-8 -53 28 -112 85 -139 48 -24 72 -23 277 5 134 19 246 21 263 4 30
-30 7 -179 -63 -404 -19 -62 -35 -126 -35 -143 0 -97 99 -157 193 -117 55 22
84 68 121 189 139 449 86 696 -168 784 -79 28 -238 23 -409 -11 -76 -15 -141
-26 -143 -23 -3 2 9 39 26 82 105 263 122 470 51 620 -39 84 -82 129 -157 166
-77 38 -175 47 -266 24z"/>
<path d="M1730 4955 c-215 -37 -523 -210 -574 -323 -23 -51 -17 -123 13 -161
11 -14 29 -45 40 -68 25 -55 53 -68 197 -92 242 -42 388 -92 454 -156 19 -19
48 -39 63 -44 71 -27 153 -2 195 60 20 28 23 43 19 88 -4 53 -7 57 -73 120
-81 78 -188 137 -319 176 -49 16 -94 31 -98 35 -15 14 116 51 198 57 100 7
140 29 167 91 52 116 -41 236 -179 231 -15 -1 -62 -7 -103 -14z"/>
<path d="M2085 3914 c-115 -41 -272 -74 -402 -83 -134 -10 -168 -23 -198 -74
-22 -37 -23 -123 -1 -165 8 -16 29 -41 46 -56 27 -22 41 -26 96 -26 153 0 391
39 556 91 78 25 104 38 127 65 71 80 36 217 -66 260 -44 19 -77 17 -158 -12z"/>
<path d="M3678 3737 c-31 -13 -109 -55 -173 -93 -65 -38 -169 -98 -233 -134
-134 -76 -162 -106 -162 -179 0 -29 8 -59 20 -79 25 -41 99 -77 142 -68 28 6
206 102 346 188 35 21 66 37 69 34 6 -5 -25 -89 -95 -261 -36 -89 -43 -117
-39 -153 5 -50 30 -88 75 -117 17 -11 31 -23 32 -26 0 -3 -23 -9 -51 -12 -28
-4 -65 -15 -82 -25 -104 -60 -102 -212 3 -264 43 -22 84 -22 189 -3 275 53
581 222 703 389 51 71 31 183 -39 219 -86 44 -150 29 -243 -58 -37 -34 -86
-75 -111 -90 -49 -32 -210 -115 -221 -115 -4 0 -1 12 8 28 22 42 132 315 172
427 46 131 51 236 12 305 -14 24 -44 58 -68 75 -38 26 -53 30 -120 33 -63 2
-87 -2 -134 -21z"/>
<path d="M2360 3304 c-8 -1 -81 -13 -162 -25 -92 -14 -159 -29 -178 -40 -93
-57 -92 -192 2 -249 40 -24 123 -26 218 -5 36 8 104 18 153 21 101 8 101 8 67
-91 -26 -75 -25 -120 3 -169 56 -99 194 -105 249 -11 35 61 70 206 72 295 1
74 -3 92 -27 141 -48 99 -135 140 -291 138 -50 -1 -98 -3 -106 -5z"/>
<path d="M4917 3126 c-63 -17 -115 -61 -152 -127 -28 -51 -29 -60 -27 -153 1
-67 -2 -104 -10 -114 -7 -8 -66 -51 -132 -95 -65 -43 -147 -108 -181 -142
-216 -219 -232 -639 -32 -839 62 -62 112 -81 193 -73 61 6 97 23 142 68 90 89
102 214 29 310 -32 44 -41 87 -28 137 16 59 41 85 170 172 65 44 139 102 165
130 117 125 183 374 145 550 -27 127 -158 209 -282 176z"/>
<path d="M1228 3050 c-117 -35 -178 -154 -139 -272 11 -33 61 -87 105 -113 25
-15 35 -102 46 -388 11 -274 17 -325 56 -447 40 -127 101 -183 202 -183 67 0
124 37 160 103 20 38 23 55 19 105 -3 33 -13 84 -21 114 -9 30 -14 56 -12 58
2 2 20 -6 40 -18 29 -17 48 -20 86 -17 67 7 105 36 165 125 28 41 77 100 109
131 l59 57 18 -40 c11 -22 24 -47 31 -56 9 -13 5 -47 -21 -162 -19 -87 -38
-212 -47 -313 l-14 -167 22 -46 c34 -67 78 -94 151 -89 64 5 101 26 131 78 15
26 21 63 27 184 9 153 20 242 45 351 22 94 18 156 -11 199 -13 20 -22 43 -19
51 10 26 -35 151 -73 203 -92 124 -228 153 -378 82 -88 -42 -205 -155 -280
-269 -33 -50 -61 -88 -62 -84 -1 5 -7 103 -12 218 -11 234 -28 340 -71 432
-64 138 -192 209 -312 173z"/>
<path d="M3474 2280 c-38 -4 -149 -24 -245 -44 -95 -19 -237 -47 -314 -61
-185 -34 -209 -42 -250 -83 -42 -42 -59 -90 -52 -149 9 -86 103 -163 197 -163
50 0 282 42 495 90 77 18 174 34 217 37 l76 6 21 -41 c63 -123 216 -166 310
-86 109 92 58 336 -90 430 -88 55 -226 80 -365 64z"/>
<path d="M4445 1546 c-16 -7 -51 -34 -77 -60 -26 -25 -60 -51 -75 -57 -19 -7
-89 -9 -213 -4 -214 8 -318 -5 -450 -56 -146 -56 -293 -171 -400 -312 -25 -35
-60 -67 -84 -79 -23 -11 -64 -42 -92 -68 -119 -112 -212 -121 -379 -37 -117
58 -224 156 -299 274 -49 77 -92 106 -165 111 -89 6 -153 -32 -186 -111 -35
-83 -15 -144 92 -282 222 -285 467 -425 748 -425 179 0 301 47 418 162 40 39
93 81 118 93 30 15 62 43 92 82 59 77 156 166 220 203 90 51 161 61 380 54
163 -5 202 -4 257 11 94 24 177 71 246 140 79 78 98 114 99 191 0 50 -5 68
-28 103 -47 70 -146 100 -222 67z"/>
</g>
</svg>
