<?xml version="1.0" standalone="no"?>
<!DOCTYPE svg PUBLIC "-//W3C//DTD SVG 20010904//EN"
 "http://www.w3.org/TR/2001/REC-SVG-20010904/DTD/svg10.dtd">
<svg version="1.0" xmlns="http://www.w3.org/2000/svg"
 width="600.000000pt" height="600.000000pt" viewBox="0 0 600.000000 600.000000"
 preserveAspectRatio="xMidYMid meet">
<metadata>
Created by potrace 1.15, written by Peter Selinger 2001-2017
</metadata>
<g transform="translate(0.000000,600.000000) scale(0.100000,-0.100000)"
fill="#16364b" stroke="none">
<path d="M1554 5796 c-30 -13 -63 -70 -241 -414 -57 -110 -59 -164 -9 -216 31
-34 37 -36 97 -36 51 0 78 6 129 31 125 59 396 257 427 313 34 59 1 155 -63
182 -52 22 -81 11 -159 -61 -38 -35 -73 -64 -78 -65 -4 0 6 27 23 60 17 34 30
75 30 96 0 48 -33 99 -72 113 -39 14 -46 13 -84 -3z"/>
<path d="M2338 5411 l-33 -29 -1 -209 c-1 -231 -12 -299 -74 -426 -42 -88 -89
-140 -171 -188 -84 -50 -109 -80 -109 -128 0 -53 31 -98 79 -112 38 -11 45
-10 105 20 124 61 202 144 276 296 93 189 131 400 115 630 -7 106 -8 110 -40
142 -45 45 -100 46 -147 4z"/>
<path d="M3514 5351 c-29 -13 -62 -56 -75 -101 -10 -31 -8 -48 7 -96 55 -176
235 -317 350 -273 90 34 105 132 40 256 -54 102 -103 154 -176 187 -69 31
-116 40 -146 27z"/>
<path d="M3005 5161 c-75 -19 -144 -80 -189 -168 -62 -124 -36 -242 67 -294
59 -31 154 -24 233 16 80 42 96 71 102 195 4 89 2 103 -20 152 -37 79 -113
118 -193 99z"/>
<path d="M4760 4783 c-63 -32 -72 -66 -66 -238 6 -203 38 -309 117 -400 79
-90 200 -119 302 -72 96 44 143 130 135 247 -11 156 -125 304 -329 428 -83 51
-114 57 -159 35z m240 -463 c-1 -23 -40 31 -40 55 0 17 4 15 20 -10 11 -16 20
-37 20 -45z"/>
<path d="M2633 4216 c-89 -42 -139 -132 -131 -235 8 -100 66 -182 163 -227 97
-46 212 -28 335 51 171 110 231 206 185 295 -22 43 -60 64 -180 100 -87 27
-132 34 -215 37 -95 4 -110 2 -157 -21z"/>
<path d="M1080 4102 c-71 -35 -100 -123 -65 -195 23 -47 56 -66 135 -77 39 -5
87 -17 107 -25 30 -13 34 -17 23 -30 -39 -48 -240 -132 -354 -150 -26 -4 -51
-18 -73 -40 -29 -29 -33 -40 -33 -84 0 -48 3 -55 44 -96 29 -29 57 -46 80 -51
102 -19 363 74 508 181 123 90 173 240 120 356 -42 94 -157 173 -292 203 -119
26 -162 28 -200 8z"/>
<path d="M4227 3779 c-101 -24 -208 -113 -253 -212 -23 -50 -29 -76 -29 -137
0 -64 4 -82 27 -122 60 -100 163 -153 288 -146 59 4 87 11 129 33 103 56 178
168 207 308 39 184 11 239 -136 274 -62 14 -176 16 -233 2z m83 -288 c0 -11
-48 -51 -61 -51 -17 0 -9 29 13 44 25 18 48 21 48 7z"/>
<path d="M1720 3727 c-91 -26 -132 -57 -168 -127 -31 -60 -33 -71 -30 -145 4
-94 24 -141 83 -201 23 -22 68 -54 101 -69 79 -39 196 -42 261 -8 52 28 98 83
118 142 20 59 20 178 -1 227 -56 135 -227 220 -364 181z"/>
<path d="M5148 3584 c-119 -28 -205 -88 -254 -176 -26 -48 -29 -62 -28 -138 1
-97 21 -155 80 -227 93 -113 227 -138 371 -68 119 59 187 166 187 295 -1 99
-26 156 -107 239 -91 93 -129 105 -249 75z m52 -313 c0 -13 -29 -35 -37 -28
-7 8 15 37 28 37 5 0 9 -4 9 -9z"/>
<path d="M2585 3399 c-82 -12 -189 -67 -254 -131 -64 -62 -118 -143 -190 -286
-65 -127 -98 -156 -256 -232 -135 -64 -199 -110 -297 -214 -246 -258 -353
-539 -318 -833 29 -242 104 -367 340 -564 138 -114 268 -184 412 -220 116 -29
285 -23 413 15 225 67 326 127 485 286 196 197 296 349 377 579 25 69 52 144
60 166 22 60 30 164 20 257 -11 105 -107 484 -153 603 -37 95 -46 121 -63 196
-15 66 -74 163 -144 236 -76 79 -170 127 -280 142 -43 6 -81 10 -85 10 -4 -1
-34 -5 -67 -10z m138 -388 c17 -7 27 -21 32 -43 4 -18 24 -67 45 -108 59 -119
72 -163 136 -455 14 -66 28 -161 31 -210 5 -78 3 -96 -14 -130 -11 -22 -27
-73 -36 -113 -58 -257 -225 -479 -458 -605 -186 -102 -354 -87 -528 47 -204
157 -251 241 -251 446 0 114 18 188 67 283 59 112 137 182 280 255 156 78 222
123 304 208 72 76 106 124 164 229 65 119 96 156 150 181 59 28 48 26 78 15z"/>
<path d="M3463 3379 c-18 -3 -44 -14 -57 -23 -55 -35 -176 -249 -176 -310 0
-74 84 -127 165 -105 136 37 223 166 213 316 -4 60 -7 69 -37 94 -38 31 -63
38 -108 28z"/>
<path d="M389 2265 c-84 -45 -77 -131 27 -354 89 -189 250 -388 360 -442 73
-36 177 -34 226 3 50 38 72 89 76 180 5 96 -13 154 -79 253 -89 132 -195 216
-403 315 -129 62 -162 69 -207 45z m380 -439 c39 -44 81 -109 81 -126 0 -23
-87 69 -126 131 -19 31 -34 60 -34 65 0 9 43 -29 79 -70z"/>
<path d="M4420 1989 c-14 -5 -41 -26 -61 -45 -32 -31 -37 -33 -49 -19 -57 69
-177 52 -235 -32 -33 -50 -33 -121 0 -268 62 -271 126 -385 227 -401 117 -19
200 59 241 226 20 81 60 362 59 412 -1 46 -25 93 -57 114 -31 20 -93 27 -125
13z"/>
</g>
</svg>
