<?xml version="1.0" standalone="no"?>
<!DOCTYPE svg PUBLIC "-//W3C//DTD SVG 20010904//EN"
 "http://www.w3.org/TR/2001/REC-SVG-20010904/DTD/svg10.dtd">
<svg version="1.0" xmlns="http://www.w3.org/2000/svg"
 width="600.000000pt" height="600.000000pt" viewBox="0 0 600.000000 600.000000"
 preserveAspectRatio="xMidYMid meet">
<metadata>
Created by potrace 1.15, written by Peter Selinger 2001-2017
</metadata>
<g transform="translate(0.000000,600.000000) scale(0.100000,-0.100000)"
fill="#16364b" stroke="none">
<path d="M1664 5775 c-49 -29 -66 -60 -104 -195 -80 -286 -106 -516 -67 -601
22 -49 88 -104 143 -119 90 -26 201 24 303 135 49 54 302 401 329 452 30 55 1
135 -60 173 -42 25 -119 26 -159 3 -17 -10 -70 -74 -119 -143 -105 -147 -129
-178 -130 -167 0 15 40 168 66 250 29 95 30 122 4 165 -44 72 -131 92 -206 47z"/>
<path d="M3089 5607 c-67 -45 -85 -127 -43 -193 11 -15 104 -84 209 -152 202
-133 313 -230 354 -310 l22 -44 -38 6 c-50 9 -120 -26 -147 -73 -42 -73 -20
-152 54 -195 52 -31 181 -34 243 -6 103 46 157 134 157 256 0 141 -108 314
-285 454 -85 67 -364 260 -393 271 -41 16 -97 10 -133 -14z"/>
<path d="M960 5453 c-169 -33 -277 -116 -346 -267 -50 -109 -42 -252 21 -376
35 -68 124 -156 173 -169 67 -18 137 13 166 72 33 72 14 166 -44 209 -81 59
-81 164 0 232 27 22 41 26 98 26 47 0 78 6 102 19 93 49 99 190 10 236 -30 15
-139 26 -180 18z"/>
<path d="M2940 5177 c-48 -15 -120 -91 -156 -162 -24 -49 -29 -73 -29 -132 0
-63 3 -76 30 -114 21 -29 50 -54 90 -74 51 -26 69 -30 139 -29 110 0 185 24
226 71 l32 36 -4 106 c-5 123 -28 181 -97 244 -71 64 -145 81 -231 54z"/>
<path d="M4774 4859 c-42 -12 -91 -69 -100 -116 -4 -21 -3 -92 3 -158 24 -265
120 -422 291 -471 144 -42 287 33 328 172 33 113 -16 254 -124 362 -59 59
-202 154 -297 199 -55 25 -56 25 -101 12z"/>
<path d="M2073 4775 c-169 -43 -222 -80 -230 -157 -4 -34 0 -50 19 -77 54 -80
117 -97 224 -60 52 18 93 24 165 25 117 1 153 17 187 84 40 77 16 155 -59 192
-51 27 -190 23 -306 -7z"/>
<path d="M2825 4087 c-124 -41 -185 -116 -185 -224 1 -103 80 -196 199 -234
77 -25 244 -30 351 -10 110 21 257 70 290 97 77 65 87 182 20 244 -30 28 -163
77 -300 110 -109 27 -317 36 -375 17z"/>
<path d="M1075 4060 c-114 -17 -175 -81 -175 -183 0 -47 27 -113 56 -139 44
-39 92 -50 182 -42 l85 7 -34 -48 c-19 -26 -117 -131 -219 -234 -178 -178
-338 -370 -367 -438 -49 -118 44 -273 164 -273 24 0 59 7 79 15 25 10 42 12
60 5 14 -6 43 -10 64 -10 42 0 61 12 231 143 l102 78 31 -29 c17 -16 46 -39
65 -52 136 -94 68 -410 -137 -631 -84 -91 -122 -114 -195 -122 -102 -10 -165
-81 -154 -175 6 -52 43 -96 95 -113 38 -12 134 -7 193 10 105 32 259 164 368
318 81 113 167 288 186 378 41 194 -4 380 -126 519 -45 50 -43 62 6 71 26 6
32 3 43 -24 31 -72 151 -105 220 -62 58 37 72 73 72 187 0 158 -24 216 -109
259 -60 30 -142 12 -385 -86 -27 -10 -51 -17 -54 -14 -2 2 28 39 68 82 90 96
127 150 151 219 37 106 22 196 -47 273 -49 55 -118 92 -202 110 -58 12 -238
13 -317 1z"/>
<path d="M4232 3775 c-141 -32 -253 -114 -286 -211 -24 -72 -21 -178 8 -239
30 -63 96 -128 161 -156 78 -35 186 -31 269 10 125 61 219 199 258 377 l20 94
-22 44 c-36 74 -70 89 -219 93 -84 2 -147 -2 -189 -12z m78 -284 c0 -14 -51
-52 -61 -45 -16 10 -9 23 19 38 32 18 42 19 42 7z"/>
<path d="M3410 3405 c-65 -20 -129 -90 -187 -205 -38 -75 -48 -105 -47 -142 1
-97 85 -155 211 -146 114 8 175 52 224 162 28 63 31 196 6 242 -22 43 -70 81
-115 94 -44 12 -36 12 -92 -5z"/>
<path d="M5070 3247 c-90 -32 -243 -163 -294 -250 -147 -250 44 -508 309 -417
99 34 159 89 208 190 42 88 50 207 17 292 -36 97 -137 200 -194 198 -6 -1 -27
-7 -46 -13z"/>
<path d="M3984 2511 c-48 -12 -101 -48 -124 -86 -33 -54 -35 -117 -6 -214 34
-112 34 -113 -9 -95 -107 44 -220 -17 -284 -156 -39 -84 -35 -201 12 -385 40
-158 80 -282 109 -338 36 -72 149 -126 230 -110 84 16 160 83 179 158 l10 40
62 1 c163 1 277 121 277 292 0 83 -16 152 -84 362 -30 91 -66 218 -81 283 -21
92 -34 128 -59 160 -51 67 -155 107 -232 88z"/>
<path d="M2070 2424 c-24 -9 -70 -33 -101 -54 -79 -54 -223 -210 -256 -279
-15 -31 -51 -90 -79 -131 -142 -207 -224 -454 -224 -675 0 -134 20 -224 75
-343 163 -347 375 -474 830 -498 249 -13 404 39 554 186 37 36 86 92 109 125
23 33 53 74 66 90 44 54 134 238 170 346 19 58 54 181 77 275 40 155 43 180
43 299 1 158 -17 214 -96 301 -118 128 -231 141 -508 55 -124 -38 -125 -38
-134 -17 -60 143 -118 211 -241 280 -80 45 -93 50 -164 53 -52 2 -90 -2 -121
-13z m125 -401 c4 -10 18 -55 31 -101 13 -46 33 -100 43 -120 30 -57 129 -148
177 -162 49 -15 81 -6 248 64 60 25 135 53 167 61 32 9 65 18 74 21 25 10 19
-60 -19 -197 -73 -261 -156 -479 -209 -544 -111 -136 -179 -180 -319 -209
-195 -40 -336 -5 -458 114 -92 89 -150 259 -136 396 14 133 59 239 165 389 31
44 63 93 70 109 15 36 139 196 150 196 5 0 12 -8 16 -17z"/>
</g>
</svg>
