<?xml version="1.0" standalone="no"?>
<!DOCTYPE svg PUBLIC "-//W3C//DTD SVG 20010904//EN"
 "http://www.w3.org/TR/2001/REC-SVG-20010904/DTD/svg10.dtd">
<svg version="1.0" xmlns="http://www.w3.org/2000/svg"
 width="600.000000pt" height="600.000000pt" viewBox="0 0 600.000000 600.000000"
 preserveAspectRatio="xMidYMid meet">
<metadata>
Created by potrace 1.15, written by Peter Selinger 2001-2017
</metadata>
<g transform="translate(0.000000,600.000000) scale(0.100000,-0.100000)"
fill="#16364b" stroke="none">
<path d="M1861 5823 c-42 -21 -57 -46 -127 -213 -32 -74 -77 -174 -100 -222
-62 -123 -113 -251 -123 -304 -17 -88 19 -168 89 -204 100 -51 230 -3 465 170
101 75 297 249 321 285 57 88 -4 217 -113 240 -56 11 -103 -10 -192 -90 -46
-41 -86 -74 -88 -72 -2 2 17 57 43 122 38 99 45 125 40 159 -18 113 -121 175
-215 129z"/>
<path d="M3015 5682 c-68 -32 -102 -107 -83 -182 12 -47 35 -66 153 -130 226
-122 359 -248 448 -425 66 -130 56 -151 -73 -170 -138 -19 -157 -204 -28 -271
69 -36 234 -4 329 65 154 110 168 258 50 507 -122 256 -262 391 -571 553 -136
71 -170 78 -225 53z"/>
<path d="M965 5429 c-139 -28 -299 -149 -358 -272 -87 -179 -50 -353 108 -511
114 -113 194 -142 265 -93 56 38 75 71 75 135 0 67 -14 90 -81 141 -67 51 -89
84 -89 136 0 77 55 129 155 146 111 19 170 76 170 164 0 115 -106 182 -245
154z"/>
<path d="M2899 5127 c-124 -34 -219 -167 -219 -306 0 -113 46 -193 135 -236
51 -26 61 -27 157 -22 122 6 168 18 211 57 30 26 32 33 31 92 -3 289 -135 464
-315 415z"/>
<path d="M4800 4914 c-39 -16 -90 -59 -104 -89 -32 -66 -14 -274 34 -421 43
-129 150 -249 245 -275 55 -16 135 -14 178 4 55 23 124 92 144 145 12 32 18
72 17 127 -1 124 -46 220 -150 327 -110 112 -299 207 -364 182z"/>
<path d="M2014 4800 c-49 -10 -160 -61 -190 -87 -82 -69 -68 -202 26 -250 57
-29 79 -29 152 4 56 25 61 26 73 10 7 -10 15 -44 19 -76 4 -35 16 -73 29 -92
93 -138 297 -76 297 89 0 258 -191 448 -406 402z"/>
<path d="M2891 4009 c-84 -27 -153 -93 -175 -170 -20 -66 -20 -82 0 -148 50
-170 311 -269 609 -232 124 15 176 57 179 144 1 25 11 58 21 73 12 18 21 52
23 89 3 50 0 66 -20 95 -29 43 -111 88 -238 131 -82 28 -112 33 -215 36 -101
3 -130 0 -184 -18z"/>
<path d="M1180 4000 c-197 -26 -236 -40 -286 -106 -25 -32 -29 -46 -29 -104 0
-56 4 -73 28 -108 37 -57 95 -86 175 -87 34 0 62 -1 62 -2 0 -3 -146 -205
-283 -393 -176 -240 -236 -343 -276 -475 -26 -84 -21 -135 20 -199 35 -55 94
-88 159 -88 58 0 96 19 151 77 23 25 95 79 158 122 189 125 278 190 426 313
197 164 211 174 218 156 10 -25 -11 -176 -38 -279 -53 -207 -137 -381 -298
-620 -133 -200 -187 -298 -187 -342 0 -56 37 -123 80 -147 43 -24 115 -20 152
8 14 10 73 91 130 179 255 389 340 572 428 930 50 203 64 382 36 478 -23 80
-72 132 -143 153 -49 14 -60 14 -126 0 -77 -17 -187 -76 -304 -162 -35 -25
-63 -41 -63 -37 0 5 30 46 66 92 142 179 184 265 184 375 0 51 -6 75 -32 127
-67 131 -179 169 -408 139z"/>
<path d="M4222 3775 c-131 -37 -239 -122 -283 -222 -61 -138 3 -311 143 -389
45 -25 64 -29 128 -29 91 0 159 28 237 99 106 96 231 335 220 419 -7 51 -32
85 -82 111 -52 27 -282 34 -363 11z m58 -304 c0 -12 -40 -41 -57 -41 -22 0
-14 19 15 34 32 18 42 19 42 7z"/>
<path d="M3418 3405 c-62 -20 -129 -95 -182 -205 -35 -73 -41 -94 -41 -150 0
-122 58 -165 221 -165 95 0 103 2 150 30 39 24 56 44 82 95 38 75 52 178 33
246 -33 122 -146 186 -263 149z"/>
<path d="M4955 3069 c-62 -33 -127 -83 -179 -139 -170 -181 -139 -481 57 -546
240 -80 493 230 412 504 -19 64 -110 175 -156 191 -48 17 -90 13 -134 -10z"/>
<path d="M3950 2611 c-72 -22 -128 -71 -154 -133 -27 -63 -20 -122 29 -262 25
-71 44 -130 43 -132 -2 -1 -30 7 -63 18 -153 52 -297 -18 -373 -181 -31 -67
-39 -167 -22 -265 13 -73 134 -447 163 -503 24 -45 91 -99 142 -113 99 -28
201 17 248 110 25 49 28 63 23 125 -2 39 -8 83 -12 98 l-7 29 39 -20 c62 -31
98 -35 161 -17 177 52 281 167 291 324 6 85 -9 144 -75 309 -58 144 -80 208
-134 387 -30 100 -38 115 -84 161 -64 64 -140 87 -215 65z"/>
<path d="M2010 2225 c-94 -30 -222 -165 -296 -312 -30 -60 -34 -135 -10 -182
22 -41 21 -42 -24 -97 -55 -65 -115 -191 -141 -289 -11 -46 -22 -131 -26 -200
-15 -314 93 -532 362 -731 253 -186 514 -214 806 -85 120 53 216 119 293 202
86 93 109 141 105 222 -3 58 -1 68 47 157 128 236 241 562 260 746 12 115 -48
258 -134 317 -112 78 -245 81 -419 8 -89 -37 -317 -142 -368 -170 l-40 -21 -7
27 c-4 16 -17 66 -28 112 -40 162 -104 252 -206 291 -63 23 -110 24 -174 5z
m964 -622 c-30 -130 -119 -364 -197 -518 -51 -103 -60 -144 -44 -215 7 -31 4
-41 -23 -75 -103 -129 -305 -192 -457 -141 -114 38 -260 161 -307 259 -65 133
-73 291 -23 402 29 62 145 194 152 172 2 -7 11 -39 20 -72 54 -193 179 -279
313 -214 57 28 93 83 101 156 l6 56 70 37 c84 44 358 169 393 179 1 1 -1 -11
-4 -26z"/>
</g>
</svg>
