<?xml version="1.0" standalone="no"?>
<!DOCTYPE svg PUBLIC "-//W3C//DTD SVG 20010904//EN"
 "http://www.w3.org/TR/2001/REC-SVG-20010904/DTD/svg10.dtd">
<svg version="1.0" xmlns="http://www.w3.org/2000/svg"
 width="600.000000pt" height="600.000000pt" viewBox="0 0 600.000000 600.000000"
 preserveAspectRatio="xMidYMid meet">
<metadata>
Created by potrace 1.15, written by Peter Selinger 2001-2017
</metadata>
<g transform="translate(0.000000,600.000000) scale(0.100000,-0.100000)"
fill="#16364b" stroke="none">
<path d="M2329 5447 c-38 -25 -88 -110 -120 -205 -31 -93 -25 -195 16 -253 18
-26 50 -53 80 -68 43 -23 62 -26 145 -26 58 1 138 10 207 24 62 12 119 21 127
19 10 -2 -17 -45 -87 -140 -130 -174 -208 -300 -299 -480 -70 -139 -72 -145
-70 -212 2 -87 16 -129 53 -160 54 -46 85 -45 539 14 124 16 279 32 345 36
l120 7 38 37 c37 37 43 57 38 125 -3 41 -39 92 -78 110 -60 29 -303 17 -637
-31 l-50 -7 39 69 c61 112 157 255 273 407 127 168 153 217 154 297 1 104 -55
181 -168 231 -41 19 -61 21 -148 16 -57 -3 -148 -16 -208 -31 -59 -14 -112
-26 -117 -26 -6 0 1 24 14 53 30 62 31 101 7 146 -37 69 -145 94 -213 48z"/>
<path d="M1700 5009 c-168 -44 -373 -172 -528 -332 -79 -80 -88 -149 -31 -231
39 -58 62 -67 237 -97 266 -45 343 -76 411 -165 57 -76 125 -98 194 -65 81 39
110 137 66 224 -12 23 -52 73 -90 110 -74 74 -160 121 -281 153 -38 10 -68 21
-68 25 0 14 135 70 203 84 39 9 83 24 97 34 99 72 91 214 -14 262 -52 23 -101
23 -196 -2z"/>
<path d="M4062 4879 c-118 -20 -319 -122 -376 -190 -50 -59 -46 -133 10 -185
51 -49 109 -55 177 -19 149 79 195 99 239 103 l48 5 0 -56 c0 -68 -40 -193
-110 -349 -29 -62 -56 -127 -62 -144 -16 -49 -2 -100 40 -142 21 -20 46 -50
55 -65 27 -41 75 -67 127 -67 25 0 99 12 165 26 144 30 340 43 374 24 22 -11
23 -16 18 -79 -7 -81 -46 -248 -93 -399 -39 -126 -39 -155 3 -210 31 -42 72
-62 125 -62 51 0 101 28 121 67 22 41 86 280 117 428 61 294 17 447 -150 523
-48 22 -73 26 -188 30 -73 2 -183 -1 -244 -7 -61 -7 -112 -10 -115 -8 -2 2 12
44 32 93 114 283 111 479 -9 599 -75 75 -184 105 -304 84z"/>
<path d="M2085 3934 c-108 -40 -230 -71 -351 -89 -211 -32 -215 -34 -260 -79
-73 -73 -66 -169 16 -224 33 -23 42 -24 132 -19 168 10 453 79 573 139 57 29
94 66 105 108 16 61 -15 137 -68 163 -52 27 -75 27 -147 1z"/>
<path d="M3714 3701 c-28 -10 -123 -61 -211 -114 -87 -52 -195 -113 -239 -135
-94 -47 -118 -76 -118 -145 0 -80 59 -138 146 -144 48 -4 63 1 150 45 54 28
138 75 188 107 49 31 94 55 100 53 13 -4 -55 -171 -146 -354 -41 -84 -74 -162
-74 -175 0 -12 -10 -42 -21 -67 -36 -72 -15 -144 55 -196 127 -95 656 140 822
366 40 55 44 65 44 120 0 69 -17 107 -62 141 -80 60 -142 44 -241 -59 -69 -73
-201 -173 -212 -162 -3 3 22 70 55 149 108 252 132 347 110 427 -14 53 -72
119 -125 143 -53 24 -154 24 -221 0z"/>
<path d="M2343 3370 c-109 -15 -257 -51 -288 -69 -73 -42 -98 -143 -52 -212
48 -72 124 -96 217 -69 63 18 237 40 269 34 39 -8 39 -20 1 -126 -36 -98 -38
-149 -7 -203 29 -52 101 -90 152 -81 74 14 110 69 160 242 36 125 37 225 1
299 -34 69 -106 134 -182 163 -68 26 -179 35 -271 22z"/>
<path d="M1202 3075 c-93 -29 -152 -104 -152 -195 0 -70 33 -119 103 -154 l58
-29 -8 -166 c-4 -91 -8 -236 -7 -321 1 -133 5 -170 29 -265 48 -194 95 -255
203 -263 95 -7 177 48 203 136 12 41 8 71 -18 139 -5 12 3 13 45 7 41 -5 59
-2 96 15 38 19 54 37 113 132 69 112 164 229 187 229 6 0 18 -20 25 -44 19
-65 -5 -253 -61 -473 -34 -137 -33 -174 9 -223 50 -60 125 -77 193 -42 51 25
75 70 105 194 33 138 77 458 72 518 -5 62 -41 189 -68 242 -65 129 -167 184
-297 159 -148 -29 -279 -141 -430 -367 -10 -16 -12 17 -9 186 6 329 -13 423
-107 515 -79 77 -180 103 -284 70z"/>
<path d="M4892 3006 c-114 -37 -164 -106 -172 -236 l-5 -85 -112 -60 c-220
-119 -289 -179 -353 -308 -119 -242 -81 -508 103 -704 l49 -52 -38 -16 c-21
-9 -60 -39 -86 -67 l-47 -51 -88 6 c-48 4 -135 11 -192 17 -160 16 -306 -10
-445 -81 -111 -56 -196 -131 -316 -279 -29 -36 -69 -75 -89 -87 -20 -12 -57
-46 -83 -76 -63 -73 -122 -101 -194 -94 -128 13 -290 149 -398 333 -36 60 -73
110 -92 123 -92 63 -212 47 -269 -36 -20 -31 -25 -50 -25 -102 0 -59 4 -73 50
-155 95 -172 200 -292 358 -411 94 -70 201 -127 275 -146 27 -6 84 -10 131 -7
69 4 95 10 160 41 75 35 201 123 241 167 11 12 41 33 67 46 29 15 67 48 98 86
85 104 185 201 244 236 84 51 155 60 328 39 176 -21 247 -21 323 -2 82 22 151
61 213 122 63 63 92 121 92 188 0 49 -27 126 -49 139 -20 13 -11 23 24 29 91
15 175 120 175 219 0 63 -18 103 -73 166 -50 56 -62 92 -52 152 6 35 14 44 73
83 37 24 118 72 180 107 198 112 276 206 303 362 12 76 -1 215 -27 277 -42
100 -170 153 -282 117z"/>
<path d="M3325 2325 c-49 -8 -209 -41 -354 -74 -290 -66 -325 -81 -361 -151
-47 -92 -11 -204 82 -251 50 -26 109 -24 253 7 171 36 462 84 511 84 l41 0 6
-46 c9 -84 88 -154 173 -154 118 0 199 91 211 239 11 135 -51 250 -167 309
-107 53 -213 63 -395 37z"/>
</g>
</svg>
