<?xml version="1.0" standalone="no"?>
<!DOCTYPE svg PUBLIC "-//W3C//DTD SVG 20010904//EN"
 "http://www.w3.org/TR/2001/REC-SVG-20010904/DTD/svg10.dtd">
<svg version="1.0" xmlns="http://www.w3.org/2000/svg"
 width="600.000000pt" height="600.000000pt" viewBox="0 0 600.000000 600.000000"
 preserveAspectRatio="xMidYMid meet">
<metadata>
Created by potrace 1.15, written by Peter Selinger 2001-2017
</metadata>
<g transform="translate(0.000000,600.000000) scale(0.100000,-0.100000)"
fill="#16364b" stroke="none">
<path d="M2863 5570 c-38 -26 -116 -154 -149 -248 -61 -174 1 -334 153 -392
49 -19 77 -23 175 -22 65 0 127 4 139 7 38 12 17 -11 -101 -111 -150 -127
-409 -386 -449 -449 -42 -66 -42 -115 0 -178 17 -26 44 -56 60 -67 31 -23 125
-43 271 -60 139 -16 280 -46 427 -90 144 -44 166 -47 215 -26 108 45 113 221
8 275 -20 10 -116 41 -212 69 -157 44 -207 56 -342 77 -21 3 -38 10 -38 15 0
14 213 204 359 318 183 145 221 180 242 227 50 109 -11 222 -151 277 -51 20
-71 22 -253 20 -172 -1 -199 0 -204 14 -3 9 12 52 36 97 57 114 54 173 -13
236 -37 35 -128 41 -173 11z"/>
<path d="M1509 5252 c-151 -77 -287 -195 -378 -330 -83 -124 -191 -367 -191
-433 0 -71 58 -142 126 -155 23 -4 76 3 156 20 72 16 170 30 240 33 143 7 139
16 68 -160 -68 -169 -81 -228 -64 -292 12 -50 8 -64 -22 -65 -5 0 -25 -14 -42
-31 -109 -106 -21 -284 132 -266 110 13 520 199 575 262 65 75 64 164 -4 224
-53 46 -102 43 -216 -15 -50 -25 -92 -44 -95 -41 -3 2 16 58 41 123 102 262
99 372 -14 485 -81 81 -149 102 -323 102 -71 -1 -128 3 -128 7 0 12 39 61 99
123 61 64 146 127 213 157 79 35 110 76 110 144 0 87 -53 138 -147 144 -54 3
-68 -1 -136 -36z"/>
<path d="M4507 4609 c-77 -11 -281 -81 -387 -133 -70 -34 -89 -48 -107 -81
-45 -80 -16 -177 63 -215 56 -28 86 -23 196 32 72 35 199 88 213 88 12 0 2
-33 -35 -125 -54 -134 -107 -229 -199 -360 -86 -121 -95 -144 -81 -197 10 -34
22 -49 92 -114 50 -47 69 -54 175 -60 54 -3 136 -12 182 -20 96 -17 241 -61
241 -73 0 -42 -87 -225 -182 -384 -51 -84 -62 -112 -65 -157 -4 -46 -1 -61 19
-89 34 -51 71 -73 126 -79 53 -5 92 10 129 50 42 45 177 339 234 511 53 157
49 250 -14 343 -58 87 -230 157 -452 185 -52 6 -95 12 -95 14 0 1 21 33 46 71
145 219 232 504 194 638 -32 117 -145 176 -293 155z"/>
<path d="M3761 3689 c-176 -54 -271 -289 -159 -396 25 -24 38 -28 83 -28 61 0
96 20 134 78 13 20 28 34 34 30 19 -12 0 -128 -34 -208 -31 -70 -38 -79 -74
-94 -124 -49 -266 -159 -297 -228 -45 -102 23 -213 130 -213 54 0 74 10 139
72 65 61 130 91 252 117 103 23 150 50 178 104 23 45 21 107 -5 152 -21 35
-22 39 -7 88 78 263 -54 514 -280 532 -33 2 -75 0 -94 -6z"/>
<path d="M2473 3569 c-33 -4 -92 -20 -130 -35 -80 -32 -218 -107 -251 -138
-99 -90 -47 -255 86 -273 34 -5 55 1 119 32 43 21 95 44 117 51 58 21 163 35
202 28 32 -6 34 -9 34 -45 0 -55 -31 -140 -111 -309 -89 -188 -92 -243 -14
-315 l34 -32 -31 -23 c-41 -30 -78 -113 -78 -175 0 -95 62 -175 148 -191 37
-7 46 -5 227 60 112 39 250 76 288 76 l25 0 -18 -48 c-10 -27 -38 -89 -61
-138 -61 -130 -57 -216 13 -281 54 -50 155 -59 223 -18 53 30 65 49 120 184
117 286 127 475 29 589 -19 23 -60 53 -92 69 -55 27 -62 28 -212 27 -139 0
-167 -4 -273 -31 -65 -17 -117 -28 -115 -24 2 3 49 97 105 208 113 226 139
309 130 419 -12 149 -123 272 -287 317 -73 20 -152 26 -227 16z"/>
<path d="M1135 3284 c-118 -26 -265 -116 -299 -183 -35 -69 -24 -158 29 -226
44 -59 104 -78 188 -62 l37 8 -5 -38 c-65 -481 -67 -501 -68 -668 0 -248 29
-337 123 -385 46 -24 144 -27 193 -6 50 21 87 70 181 245 145 272 262 451 357
549 l42 44 19 -49 c17 -41 18 -64 13 -158 -8 -149 -32 -372 -56 -535 -39 -254
-46 -324 -38 -358 13 -60 69 -102 134 -102 43 0 108 31 129 62 9 12 17 20 19
17 2 -2 13 -67 26 -144 70 -430 134 -610 265 -741 67 -67 105 -90 181 -110
142 -38 277 5 406 128 66 64 79 82 104 148 30 79 82 191 117 250 42 69 127
167 156 179 36 15 58 5 172 -74 106 -75 188 -114 275 -132 67 -13 83 -13 148
0 45 9 94 28 126 47 52 32 111 100 111 126 0 8 16 28 35 45 46 42 76 106 77
166 0 26 -11 100 -25 163 -35 158 -40 205 -23 219 18 16 158 31 280 31 273 0
450 132 486 362 33 211 -66 349 -250 350 -115 0 -200 -66 -222 -172 l-11 -56
-166 -12 c-319 -22 -475 -98 -556 -268 -64 -136 -70 -302 -19 -517 9 -37 14
-70 12 -73 -3 -2 -32 15 -64 39 -132 96 -224 139 -325 152 -164 20 -348 -80
-488 -266 -65 -86 -156 -263 -187 -363 -22 -71 -56 -101 -79 -70 -55 74 -106
230 -146 444 -40 216 -45 233 -76 271 -78 93 -226 88 -298 -9 l-27 -37 6 60
c4 33 24 161 46 285 54 307 62 381 62 555 0 161 -25 323 -62 395 -74 145 -235
170 -400 62 -80 -53 -226 -204 -295 -306 -37 -54 -61 -82 -63 -72 -2 9 9 111
23 228 33 254 31 346 -7 429 -37 80 -117 136 -206 144 -26 3 -78 -3 -117 -11z"/>
</g>
</svg>
