<?xml version="1.0" standalone="no"?>
<!DOCTYPE svg PUBLIC "-//W3C//DTD SVG 20010904//EN"
 "http://www.w3.org/TR/2001/REC-SVG-20010904/DTD/svg10.dtd">
<svg version="1.0" xmlns="http://www.w3.org/2000/svg"
 width="600.000000pt" height="600.000000pt" viewBox="0 0 600.000000 600.000000"
 preserveAspectRatio="xMidYMid meet">
<metadata>
Created by potrace 1.15, written by Peter Selinger 2001-2017
</metadata>
<g transform="translate(0.000000,600.000000) scale(0.100000,-0.100000)"
fill="#16364b" stroke="none">
<path d="M1435 5722 c-60 -32 -157 -79 -214 -106 -128 -58 -161 -88 -161 -146
0 -53 13 -76 53 -96 47 -25 257 -13 457 25 135 26 158 34 178 56 24 28 29 74
11 107 -15 27 -73 50 -107 42 -26 -7 -26 -6 -10 13 27 30 32 75 14 111 -36 69
-79 68 -221 -6z"/>
<path d="M2385 5431 c-46 -20 -52 -39 -59 -196 -11 -228 -42 -377 -108 -510
-37 -77 -85 -126 -172 -178 -100 -59 -119 -121 -59 -182 35 -34 76 -32 154 8
98 50 185 142 241 257 90 183 129 364 132 602 1 145 1 148 -24 172 -28 28 -74
40 -105 27z"/>
<path d="M3517 5280 c-41 -49 -43 -80 -7 -155 53 -110 176 -215 254 -215 64 0
116 54 116 123 0 77 -104 217 -190 256 -26 12 -67 21 -97 21 -45 0 -54 -4 -76
-30z"/>
<path d="M2963 5100 c-137 -79 -197 -287 -111 -385 61 -70 151 -68 264 6 53
34 66 49 90 102 37 81 41 189 8 234 -60 80 -157 97 -251 43z m67 -215 c-22
-27 -31 -15 -13 16 13 22 19 26 21 14 2 -9 -2 -22 -8 -30z"/>
<path d="M4775 4776 c-48 -21 -55 -50 -55 -219 0 -169 10 -250 42 -334 81
-219 364 -212 394 9 12 84 -28 219 -97 334 -59 97 -200 226 -246 224 -4 -1
-22 -7 -38 -14z"/>
<path d="M2675 4220 c-107 -27 -168 -97 -169 -192 0 -168 267 -293 468 -218
76 29 176 105 199 153 25 51 15 107 -26 151 -64 67 -362 134 -472 106z"/>
<path d="M1105 4120 c-35 -23 -65 -74 -65 -111 0 -14 11 -43 25 -63 l24 -36
-29 0 c-20 0 -43 -11 -68 -34 -34 -32 -37 -39 -37 -89 0 -65 16 -87 87 -123
204 -103 433 -51 477 109 41 144 -51 283 -225 341 -95 31 -148 33 -189 6z
m110 -240 l40 -20 -35 6 c-19 4 -46 12 -60 20 -42 22 8 17 55 -6z"/>
<path d="M5169 3784 c-106 -32 -191 -121 -220 -229 -18 -66 -6 -181 25 -247
32 -69 117 -149 173 -166 107 -32 220 -2 311 83 83 76 116 147 121 253 3 76 1
88 -27 145 -30 59 -102 135 -159 165 -30 16 -168 14 -224 -4z m126 -304 c8
-12 -33 -52 -48 -47 -18 5 -21 38 -5 48 18 12 45 11 53 -1z"/>
<path d="M4153 3762 c-107 -38 -180 -115 -202 -212 -14 -62 -13 -98 4 -156 59
-199 258 -276 459 -178 105 51 156 138 164 280 5 107 -5 148 -51 191 -79 75
-268 113 -374 75z m127 -275 c0 -20 -22 -37 -47 -37 -29 0 -29 14 -1 34 27 19
48 21 48 3z"/>
<path d="M3449 3373 c-33 -20 -95 -113 -148 -220 -56 -114 -54 -167 8 -193 46
-19 94 2 166 75 79 78 127 173 129 252 1 48 -2 58 -27 79 -33 28 -89 32 -128
7z"/>
<path d="M1780 3119 c-41 -4 -122 -17 -180 -29 -271 -57 -422 -122 -515 -222
-126 -135 -184 -353 -140 -523 45 -175 160 -303 345 -386 101 -44 145 -73 200
-129 58 -58 90 -112 178 -299 93 -198 173 -293 308 -363 212 -111 451 -130
732 -59 79 20 155 32 232 36 474 24 588 48 821 165 292 147 504 313 602 472
131 209 204 530 153 667 -24 65 -88 142 -201 244 -125 112 -201 164 -284 193
-114 40 -216 27 -364 -48 -45 -22 -124 -52 -176 -65 -85 -23 -116 -26 -266
-26 -222 0 -268 12 -530 142 -110 54 -229 111 -263 125 -94 40 -314 93 -431
105 -112 12 -112 12 -221 0z m299 -415 c164 -36 212 -54 421 -154 219 -105
300 -134 441 -155 57 -9 127 -23 154 -32 45 -14 68 -14 243 1 278 24 366 43
494 107 32 16 70 29 86 29 51 0 161 -98 200 -177 14 -29 14 -38 -2 -100 -9
-37 -37 -110 -62 -162 -39 -79 -59 -107 -127 -173 -147 -142 -324 -245 -499
-288 -116 -28 -397 -69 -533 -77 -80 -4 -143 -15 -230 -40 -228 -64 -370 -66
-480 -4 -70 39 -113 102 -181 260 -120 281 -248 417 -523 557 -99 50 -135 84
-151 145 -16 57 -3 102 41 152 53 61 101 80 334 130 11 3 73 5 139 6 94 1 143
-4 235 -25z"/>
<path d="M410 2135 c-29 -31 -30 -74 -3 -129 12 -22 47 -94 78 -159 86 -177
178 -260 290 -261 133 -1 196 125 129 257 -46 90 -147 178 -311 271 -98 55
-146 61 -183 21z"/>
<path d="M4918 1481 c-24 -21 -41 -28 -59 -24 -38 7 -96 -21 -119 -59 -18 -28
-21 -44 -17 -113 5 -84 37 -196 65 -230 78 -95 194 -64 252 67 24 54 60 223
60 280 0 32 -7 47 -34 74 -46 46 -100 47 -148 5z"/>
</g>
</svg>
