<?xml version="1.0" standalone="no"?>
<!DOCTYPE svg PUBLIC "-//W3C//DTD SVG 20010904//EN"
 "http://www.w3.org/TR/2001/REC-SVG-20010904/DTD/svg10.dtd">
<svg version="1.0" xmlns="http://www.w3.org/2000/svg"
 width="600.000000pt" height="600.000000pt" viewBox="0 0 600.000000 600.000000"
 preserveAspectRatio="xMidYMid meet">
<metadata>
Created by potrace 1.15, written by Peter Selinger 2001-2017
</metadata>
<g transform="translate(0.000000,600.000000) scale(0.100000,-0.100000)"
fill="#16364b" stroke="none">
<path d="M2095 5648 c-11 -6 -56 -43 -101 -82 -44 -39 -111 -97 -150 -129 -99
-84 -280 -263 -325 -323 -69 -90 -87 -189 -50 -262 56 -109 171 -141 376 -103
160 30 481 97 550 115 99 25 143 97 115 189 -25 85 -111 132 -195 108 -73 -20
-309 -79 -345 -86 -34 -6 -33 -4 45 67 147 134 256 243 276 275 41 67 21 168
-43 216 -32 24 -123 33 -153 15z"/>
<path d="M3095 5645 c-48 -24 -75 -73 -75 -133 0 -73 36 -109 150 -152 230
-85 375 -222 374 -355 -1 -118 -90 -205 -353 -341 -59 -31 -79 -47 -94 -77
-50 -97 -1 -200 101 -214 85 -11 304 109 438 242 98 97 150 178 179 279 80
276 -127 569 -505 718 -121 47 -172 55 -215 33z"/>
<path d="M1013 5311 c-144 -76 -249 -176 -305 -290 -27 -53 -33 -78 -36 -151
-5 -111 8 -173 63 -285 50 -103 121 -196 183 -239 59 -42 133 -43 186 -3 44
34 66 74 66 122 0 49 -23 91 -84 151 -158 156 -135 304 65 423 71 43 101 87
106 154 5 64 -19 112 -68 139 -51 27 -95 22 -176 -21z"/>
<path d="M4713 4840 c-46 -28 -67 -65 -75 -134 -4 -34 -10 -75 -13 -92 -4 -18
0 -59 9 -95 36 -142 123 -267 228 -324 46 -26 63 -30 128 -30 91 1 158 31 214
96 72 84 82 184 31 297 -53 115 -150 197 -317 266 -100 41 -157 46 -205 16z"/>
<path d="M2777 4803 c-104 -55 -199 -149 -244 -241 -34 -68 -38 -84 -38 -152
0 -62 5 -86 29 -133 80 -164 292 -271 394 -199 69 50 93 157 49 223 -18 27
-37 39 -91 56 -77 25 -96 38 -96 63 0 24 75 89 143 123 110 56 140 123 96 213
-15 31 -32 48 -63 63 -60 30 -100 26 -179 -16z"/>
<path d="M1812 4370 c-41 -11 -99 -35 -130 -54 -65 -39 -171 -142 -189 -183
-19 -44 -16 -114 7 -151 32 -52 75 -74 142 -69 50 3 62 8 101 44 91 84 163
105 252 74 77 -27 124 -27 165 2 67 45 97 117 80 191 -17 76 -72 121 -185 151
-78 20 -153 18 -243 -5z"/>
<path d="M2565 3801 c-143 -24 -166 -32 -210 -75 -67 -67 -67 -146 0 -205 53
-46 103 -56 197 -37 43 9 114 16 158 16 l80 0 0 -27 c0 -16 -13 -58 -29 -94
-55 -129 -172 -288 -392 -531 -49 -53 -91 -109 -95 -123 -17 -70 13 -147 74
-187 36 -24 118 -24 157 0 32 20 247 268 357 412 144 189 223 356 235 496 14
166 -61 286 -212 338 -57 20 -242 29 -320 17z"/>
<path d="M4195 3770 c-170 -31 -278 -118 -305 -247 -30 -138 55 -297 191 -358
55 -24 71 -27 143 -23 103 5 165 37 245 124 63 69 140 212 148 275 7 46 -19
136 -49 174 -36 46 -72 57 -202 61 -67 1 -143 -1 -171 -6z m63 -316 c-10 -10
-23 -14 -34 -10 -16 6 -16 8 -4 16 8 6 24 10 35 10 18 0 18 -1 3 -16z"/>
<path d="M1182 3674 c-60 -16 -198 -72 -281 -114 -127 -63 -170 -171 -115
-285 34 -72 145 -114 225 -86 18 6 34 9 37 6 3 -2 -11 -42 -31 -87 -67 -156
-229 -603 -254 -698 -42 -164 -30 -239 48 -302 44 -36 138 -55 195 -39 58 16
411 362 602 589 117 139 148 171 150 154 7 -44 -39 -296 -89 -497 -17 -66 -50
-205 -75 -310 -24 -104 -53 -222 -63 -262 -21 -78 -17 -119 17 -159 60 -71
184 -73 249 -2 32 34 38 55 109 353 78 325 120 532 140 680 49 381 42 498 -34
578 -67 71 -152 85 -243 40 -55 -28 -244 -207 -378 -361 -35 -40 -66 -70 -68
-68 -2 2 32 82 76 177 108 236 123 284 129 402 4 94 3 100 -27 162 -61 124
-172 169 -319 129z"/>
<path d="M3583 3349 c-134 -24 -218 -128 -258 -321 -21 -99 -19 -149 8 -189
29 -45 101 -81 147 -76 68 9 196 36 238 51 163 58 231 216 162 373 -50 114
-177 183 -297 162z"/>
<path d="M4813 2785 c-107 -30 -178 -78 -231 -157 -24 -38 -27 -50 -27 -132 0
-110 23 -164 97 -231 81 -73 174 -92 258 -54 89 40 134 111 151 237 9 66 8 85
-6 122 -9 25 -21 65 -26 90 -22 109 -104 156 -216 125z"/>
<path d="M2922 2479 c-89 -15 -171 -47 -331 -131 -204 -106 -222 -116 -249
-141 -89 -81 -79 -229 19 -294 36 -24 52 -28 108 -27 62 1 78 6 241 86 187 91
267 124 276 116 10 -11 -70 -206 -153 -371 -71 -140 -84 -175 -85 -216 0 -62
8 -87 39 -130 47 -62 151 -89 226 -57 75 31 127 118 247 411 97 239 123 326
124 425 1 72 -3 94 -25 140 -72 153 -234 223 -437 189z"/>
<path d="M4328 2400 c-69 -21 -131 -83 -156 -159 -16 -47 -15 -122 4 -193 8
-33 13 -62 10 -65 -2 -2 -42 8 -88 23 -70 24 -100 28 -198 28 -106 1 -119 -1
-165 -25 -65 -35 -130 -101 -160 -164 -36 -73 -48 -154 -41 -271 9 -148 42
-414 56 -449 42 -109 164 -167 281 -135 52 15 115 73 135 125 13 36 15 62 10
133 -4 48 -9 132 -13 186 l-6 99 28 -7 c15 -4 61 -23 102 -43 75 -36 75 -36
177 -30 162 9 242 44 317 139 61 77 83 164 76 297 -6 113 -49 297 -86 368 -56
110 -182 174 -283 143z"/>
<path d="M2075 1874 c-45 -23 -66 -45 -86 -89 -45 -97 -5 -205 102 -276 21
-14 32 -42 63 -157 l38 -141 -29 -48 c-26 -44 -28 -56 -28 -148 0 -92 2 -105
32 -165 42 -86 194 -273 269 -331 32 -26 101 -67 151 -93 187 -94 318 -120
452 -92 79 17 290 112 329 149 62 58 81 141 48 205 -33 64 -121 112 -206 112
-16 0 -74 -19 -128 -42 -117 -52 -184 -56 -269 -19 -29 13 -53 26 -53 28 0 3
12 19 27 37 61 72 68 138 23 209 -16 26 -33 47 -38 47 -11 0 -39 27 -84 82
-21 25 -54 56 -73 69 -42 29 -66 85 -120 279 -64 229 -113 315 -209 370 -42
25 -62 30 -116 30 -40 0 -77 -6 -95 -16z"/>
</g>
</svg>
