<?xml version="1.0" standalone="no"?>
<!DOCTYPE svg PUBLIC "-//W3C//DTD SVG 20010904//EN"
 "http://www.w3.org/TR/2001/REC-SVG-20010904/DTD/svg10.dtd">
<svg version="1.0" xmlns="http://www.w3.org/2000/svg"
 width="600.000000pt" height="600.000000pt" viewBox="0 0 600.000000 600.000000"
 preserveAspectRatio="xMidYMid meet">
<metadata>
Created by potrace 1.15, written by Peter Selinger 2001-2017
</metadata>
<g transform="translate(0.000000,600.000000) scale(0.100000,-0.100000)"
fill="#16364b" stroke="none">
<path d="M1680 5794 c-43 -37 -53 -60 -93 -219 -60 -236 -71 -301 -71 -435 -1
-112 1 -130 23 -174 48 -97 159 -133 260 -84 61 29 156 126 283 288 185 236
218 287 218 331 0 86 -53 147 -134 156 -76 9 -104 -13 -218 -172 -63 -87 -104
-137 -106 -127 -1 9 14 76 34 147 46 163 50 191 27 235 -41 80 -158 108 -223
54z"/>
<path d="M3080 5628 c-67 -45 -88 -138 -47 -201 9 -13 84 -77 169 -142 178
-138 262 -215 329 -304 60 -79 62 -91 10 -84 -157 21 -201 -203 -52 -270 34
-16 66 -21 126 -21 141 0 237 64 270 179 52 177 -88 412 -384 649 -203 162
-276 209 -335 214 -41 3 -58 -1 -86 -20z"/>
<path d="M913 5445 c-181 -39 -334 -199 -363 -380 -25 -156 75 -352 216 -421
60 -29 96 -28 151 6 36 21 73 85 73 125 0 46 -27 92 -72 123 -56 39 -72 69
-66 125 10 91 71 137 180 137 107 0 178 56 178 142 0 126 -116 182 -297 143z"/>
<path d="M2968 5179 c-66 -10 -113 -42 -163 -109 -137 -187 -49 -389 179 -407
70 -6 173 10 219 34 42 21 61 74 52 148 -26 234 -132 358 -287 334z"/>
<path d="M4749 4832 c-65 -42 -74 -66 -74 -201 1 -134 21 -229 70 -338 104
-228 324 -288 476 -130 65 68 84 118 84 222 0 79 -4 97 -28 148 -55 110 -168
212 -324 291 -92 46 -141 48 -204 8z"/>
<path d="M2060 4794 c-88 -23 -160 -64 -181 -104 -27 -49 -25 -119 4 -161 41
-62 100 -74 180 -39 66 29 126 35 162 16 86 -45 194 1 224 96 24 74 -13 147
-93 184 -43 20 -66 24 -146 23 -52 0 -120 -7 -150 -15z"/>
<path d="M2825 4096 c-133 -33 -205 -123 -192 -237 16 -133 115 -209 312 -239
136 -21 509 17 564 58 60 44 77 129 38 197 -26 46 -58 65 -221 136 -209 90
-370 117 -501 85z"/>
<path d="M1060 4061 c-63 -10 -106 -35 -135 -79 -49 -74 -42 -174 17 -231 49
-48 104 -64 198 -59 62 4 80 2 80 -9 0 -7 -82 -97 -182 -201 -291 -298 -437
-475 -458 -553 -21 -78 10 -159 79 -206 41 -27 120 -31 165 -8 23 12 36 13 62
5 47 -16 99 -3 147 37 56 47 115 87 226 154 l94 57 55 -46 c70 -61 82 -86 82
-171 0 -274 -225 -641 -408 -665 -68 -9 -112 -41 -136 -98 -17 -42 -18 -52 -7
-90 19 -62 75 -114 133 -123 114 -17 235 42 363 178 132 140 239 314 298 488
60 173 72 398 29 524 -22 65 -21 75 4 54 9 -7 39 -13 69 -13 42 0 60 5 88 27
49 37 61 80 54 197 -11 177 -61 250 -177 258 -57 4 -65 2 -204 -67 -80 -39
-150 -71 -157 -71 -7 0 3 17 22 38 108 114 162 222 167 332 5 92 -8 143 -51
206 -38 57 -100 98 -182 119 -68 18 -268 27 -335 16z m630 -952 c0 -6 -4 -7
-10 -4 -5 3 -10 11 -10 16 0 6 5 7 10 4 6 -3 10 -11 10 -16z"/>
<path d="M4252 3789 c-120 -20 -234 -102 -293 -211 -29 -54 -34 -72 -34 -133
0 -80 23 -135 82 -197 55 -57 123 -82 218 -83 205 0 344 126 404 370 40 159
-11 222 -203 251 -101 15 -99 15 -174 3z m17 -306 c-19 -24 -31 -33 -47 -33
-21 0 -9 23 19 37 34 18 44 16 28 -4z"/>
<path d="M3428 3391 c-49 -16 -90 -53 -135 -122 -92 -144 -111 -214 -73 -277
30 -48 72 -69 156 -77 68 -6 80 -4 128 19 159 78 201 343 68 431 -42 27 -104
38 -144 26z"/>
<path d="M4976 3190 c-92 -62 -167 -144 -208 -228 -44 -89 -51 -203 -18 -280
43 -100 149 -161 259 -148 115 13 234 105 289 223 24 52 27 70 27 163 0 96 -3
110 -28 158 -33 62 -89 128 -128 148 -16 8 -48 14 -73 14 -37 0 -57 -9 -120
-50z"/>
<path d="M3986 2523 c-39 -10 -96 -54 -122 -92 -41 -62 -42 -134 -5 -256 17
-54 29 -100 28 -101 -1 -1 -27 4 -57 12 -107 28 -165 13 -236 -60 -61 -63 -80
-118 -77 -231 2 -131 77 -423 139 -546 67 -135 240 -180 345 -92 33 28 63 81
74 131 6 30 9 32 50 32 108 0 229 81 282 189 51 103 37 231 -62 572 -92 316
-103 345 -152 391 -51 49 -134 69 -207 51z"/>
<path d="M2080 2401 c-56 -18 -114 -55 -181 -118 -82 -78 -191 -210 -215 -262
-9 -20 -27 -47 -39 -61 -66 -72 -144 -220 -179 -340 -23 -78 -56 -337 -56
-440 0 -98 25 -211 64 -288 38 -76 135 -189 222 -263 332 -277 584 -307 974
-115 130 64 214 130 330 261 127 144 221 358 293 675 67 291 70 376 17 488
-33 71 -91 130 -158 163 -42 22 -60 24 -167 23 -121 -1 -147 -7 -396 -81 -13
-4 -22 10 -39 61 -29 88 -72 150 -145 209 -90 74 -146 97 -230 96 -38 0 -81
-4 -95 -8z m109 -419 c5 -10 16 -55 25 -100 19 -102 51 -166 109 -219 61 -56
102 -76 162 -76 49 0 85 11 348 107 54 20 105 36 112 36 49 0 -48 -372 -143
-554 -54 -103 -185 -257 -259 -304 -138 -88 -332 -98 -476 -26 -115 59 -217
146 -255 219 -22 42 -27 66 -30 156 -8 211 49 380 172 512 20 21 44 53 53 70
20 40 151 197 163 197 5 0 14 -8 19 -18z"/>
</g>
</svg>
