<?xml version="1.0" standalone="no"?>
<!DOCTYPE svg PUBLIC "-//W3C//DTD SVG 20010904//EN"
 "http://www.w3.org/TR/2001/REC-SVG-20010904/DTD/svg10.dtd">
<svg version="1.0" xmlns="http://www.w3.org/2000/svg"
 width="600.000000pt" height="600.000000pt" viewBox="0 0 600.000000 600.000000"
 preserveAspectRatio="xMidYMid meet">
<metadata>
Created by potrace 1.15, written by Peter Selinger 2001-2017
</metadata>
<g transform="translate(0.000000,600.000000) scale(0.100000,-0.100000)"
fill="#16364b" stroke="none">
<path d="M2960 5566 c-40 -26 -118 -165 -144 -255 -46 -158 8 -299 139 -365
54 -27 72 -30 190 -35 l129 -6 -104 -79 c-169 -128 -231 -179 -355 -292 -144
-131 -157 -151 -152 -222 3 -45 9 -59 43 -93 60 -63 85 -73 359 -144 77 -20
227 -65 334 -101 219 -74 242 -75 297 -20 18 18 38 51 45 74 11 38 10 48 -7
89 -10 25 -31 55 -45 65 -33 25 -386 149 -509 179 -52 13 -97 25 -99 26 -16
11 153 144 373 293 130 88 220 169 247 221 43 86 14 198 -63 243 -86 49 -148
60 -338 58 -96 -1 -183 1 -193 4 -23 7 -18 31 29 135 20 46 34 92 34 116 0 46
-32 101 -70 120 -40 21 -101 16 -140 -11z"/>
<path d="M1470 5296 c-230 -135 -429 -387 -530 -671 -53 -150 -35 -233 61
-283 56 -29 92 -27 294 22 154 38 285 56 285 40 -1 -24 -31 -98 -151 -366 -30
-67 -42 -107 -43 -144 -1 -35 -7 -59 -19 -72 -79 -87 4 -252 126 -252 66 0
367 140 511 238 90 61 109 87 113 159 5 68 -16 111 -69 143 -57 34 -110 27
-210 -29 -49 -27 -88 -45 -88 -40 0 5 24 58 54 117 69 139 89 201 89 281 0 52
-5 77 -26 117 -68 133 -221 185 -451 155 -48 -7 -91 -10 -94 -7 -10 10 63 116
123 179 72 76 125 118 193 152 72 36 104 81 104 144 0 63 -30 114 -83 141 -61
32 -104 26 -189 -24z"/>
<path d="M4465 4521 c-74 -20 -289 -108 -331 -136 -40 -26 -64 -74 -64 -129 0
-43 4 -53 38 -86 69 -70 84 -68 441 58 10 4 11 -1 6 -19 -16 -54 -103 -212
-209 -383 -62 -99 -116 -195 -120 -213 -10 -43 9 -106 40 -135 14 -12 45 -42
69 -64 47 -45 47 -45 225 -69 143 -19 291 -44 302 -51 9 -6 -114 -249 -217
-429 -65 -114 -76 -161 -48 -215 24 -47 94 -83 143 -75 67 12 92 38 176 182
45 76 110 183 145 238 102 161 123 210 127 290 3 63 0 75 -28 123 -63 108
-167 155 -480 217 -47 10 -87 19 -89 21 -2 2 33 60 79 129 154 236 220 390
220 516 0 104 -43 174 -135 222 -57 30 -196 34 -290 8z"/>
<path d="M3730 3640 c-56 -34 -84 -82 -88 -155 -8 -118 51 -195 148 -195 25 0
58 7 74 15 15 8 30 15 32 15 14 0 -1 -82 -22 -125 -26 -50 -29 -53 -83 -65
-113 -25 -214 -83 -301 -172 -59 -60 -80 -102 -80 -158 0 -94 66 -164 154
-164 63 0 86 14 147 91 62 78 127 112 240 122 136 13 182 50 186 151 1 32 12
81 27 116 91 217 23 417 -173 511 -78 37 -209 44 -261 13z"/>
<path d="M2507 3599 c-86 -11 -200 -56 -302 -118 -107 -65 -138 -104 -142
-179 -5 -70 17 -110 72 -136 52 -25 93 -16 206 43 100 53 201 84 253 79 24 -2
32 -8 34 -27 8 -54 -48 -208 -163 -447 -82 -171 -92 -220 -59 -289 12 -25 13
-38 5 -54 -17 -30 -13 -101 8 -146 38 -85 137 -135 226 -115 22 5 89 27 148
50 123 46 256 84 264 76 10 -10 -18 -100 -68 -215 -39 -93 -49 -126 -49 -171
0 -94 58 -159 149 -168 121 -11 168 23 246 177 96 192 143 359 132 473 -12
135 -110 260 -234 298 -103 32 -207 23 -388 -34 -43 -14 -81 -23 -83 -21 -3 2
18 58 47 124 108 253 148 412 131 530 -28 197 -194 301 -433 270z"/>
<path d="M1164 3326 c-75 -17 -127 -43 -224 -111 -90 -63 -114 -88 -135 -137
-60 -145 81 -297 229 -248 21 7 39 10 41 8 5 -5 -59 -407 -90 -563 -27 -136
-43 -336 -31 -398 9 -46 48 -93 93 -112 21 -9 68 -15 115 -15 99 0 144 21 189
87 18 27 86 119 151 205 64 86 152 210 194 275 117 181 159 243 164 243 3 0
14 -21 24 -46 18 -43 18 -57 7 -193 -6 -80 -22 -227 -36 -326 -56 -402 -60
-455 -42 -531 24 -96 63 -135 141 -142 48 -4 62 -1 96 22 62 41 73 71 65 184
-7 101 5 217 46 447 52 286 62 496 33 642 -9 43 -22 109 -29 146 -17 84 -48
141 -98 181 -31 25 -49 31 -102 34 -143 9 -258 -89 -485 -416 -46 -66 -85
-120 -87 -119 -1 2 14 90 34 197 30 165 36 218 36 345 1 119 -2 159 -16 194
-49 127 -147 177 -283 147z"/>
<path d="M4730 2361 c-100 -31 -170 -116 -170 -206 l0 -35 -172 6 c-156 6
-181 5 -256 -14 -183 -47 -309 -137 -373 -268 -33 -67 -34 -72 -34 -194 0 -69
4 -159 9 -200 l9 -74 -48 42 c-119 105 -242 155 -381 156 -82 0 -96 -2 -155
-31 -140 -69 -290 -267 -405 -536 -21 -50 -41 -84 -46 -79 -5 5 -29 104 -53
221 -57 279 -104 419 -159 479 -49 55 -144 77 -213 51 -59 -22 -122 -108 -123
-168 0 -13 18 -79 39 -146 22 -68 60 -223 86 -345 51 -248 70 -307 128 -398
99 -157 294 -216 454 -136 48 24 66 41 105 99 25 39 59 104 74 145 34 95 112
254 153 314 44 64 128 146 150 146 20 0 51 -23 179 -131 49 -42 114 -88 143
-103 105 -51 224 -57 318 -15 62 27 125 81 148 126 10 21 32 58 48 82 29 44
30 47 30 175 0 72 -4 173 -9 223 l-8 93 28 10 c19 8 97 9 239 4 183 -6 218 -5
269 10 194 57 304 221 294 440 -5 100 -23 149 -75 198 -59 56 -152 80 -223 59z"/>
</g>
</svg>
