<?xml version="1.0" standalone="no"?>
<!DOCTYPE svg PUBLIC "-//W3C//DTD SVG 20010904//EN"
 "http://www.w3.org/TR/2001/REC-SVG-20010904/DTD/svg10.dtd">
<svg version="1.0" xmlns="http://www.w3.org/2000/svg"
 width="600.000000pt" height="600.000000pt" viewBox="0 0 600.000000 600.000000"
 preserveAspectRatio="xMidYMid meet">
<metadata>
Created by potrace 1.15, written by Peter Selinger 2001-2017
</metadata>
<g transform="translate(0.000000,600.000000) scale(0.100000,-0.100000)"
fill="#16364b" stroke="none">
<path d="M2265 5832 c-85 -53 -505 -392 -607 -491 -135 -130 -184 -198 -200
-275 -27 -127 63 -235 195 -236 71 0 162 22 452 112 328 101 458 152 502 197
71 74 57 198 -30 251 -51 32 -100 25 -232 -29 -139 -58 -315 -122 -315 -116 0
3 92 81 205 175 113 94 213 183 222 197 24 37 29 123 9 162 -35 66 -135 93
-201 53z"/>
<path d="M3087 5676 c-46 -17 -64 -31 -83 -67 -30 -59 -8 -140 50 -183 18 -14
75 -35 136 -50 183 -45 297 -120 321 -210 24 -87 -10 -240 -71 -325 -37 -51
-125 -120 -210 -166 -82 -44 -104 -62 -124 -102 -48 -95 22 -223 121 -223 72
0 286 132 404 251 63 61 86 93 122 170 65 134 81 201 82 344 0 115 -1 123 -32
188 -79 166 -273 301 -515 356 -123 28 -159 31 -201 17z"/>
<path d="M953 5306 c-238 -114 -353 -256 -353 -435 0 -80 17 -146 58 -227 66
-130 232 -302 312 -324 93 -25 190 49 190 143 0 60 -19 91 -96 161 -188 170
-188 288 -1 386 77 41 94 56 118 102 37 73 16 161 -50 205 -48 32 -94 29 -178
-11z"/>
<path d="M4820 4973 c-8 -3 -36 -21 -62 -40 -66 -48 -83 -96 -74 -211 18 -218
84 -375 194 -459 54 -41 140 -67 190 -58 92 17 185 93 223 183 59 136 -4 334
-145 457 -97 86 -267 152 -326 128z"/>
<path d="M2665 4946 c-70 -35 -161 -119 -207 -190 -59 -91 -81 -177 -76 -289
5 -102 27 -160 90 -229 88 -100 344 -191 442 -158 53 17 86 62 86 116 0 85
-43 133 -151 169 -97 33 -139 60 -161 105 -33 67 10 145 121 219 62 41 85 78
84 133 -2 115 -120 179 -228 124z"/>
<path d="M1831 4444 c-115 -31 -236 -126 -287 -226 -53 -105 -12 -207 97 -239
51 -16 124 4 147 39 9 14 36 45 58 69 52 54 90 57 155 13 61 -41 97 -46 153
-22 107 48 126 182 38 268 -101 98 -231 133 -361 98z"/>
<path d="M2547 3840 c-64 -11 -106 -38 -128 -80 -37 -69 -11 -159 61 -206 40
-26 50 -28 154 -30 109 -1 186 -19 186 -42 0 -6 -9 -38 -20 -73 -37 -120 -112
-224 -323 -446 -135 -142 -156 -178 -143 -247 10 -51 59 -103 109 -117 77 -20
99 -6 276 179 250 261 328 368 384 531 89 258 13 441 -213 512 -74 23 -263 34
-343 19z"/>
<path d="M4230 3792 c-298 -83 -412 -352 -234 -551 64 -71 138 -105 229 -105
60 0 79 4 133 34 100 53 190 162 291 352 59 109 65 154 28 208 -43 64 -74 75
-237 77 -115 2 -159 -1 -210 -15z m34 -323 c-28 -31 -54 -43 -66 -31 -7 7 0
17 23 31 46 28 68 28 43 0z"/>
<path d="M1125 3725 c-83 -18 -202 -63 -245 -91 -93 -62 -113 -200 -43 -293
45 -58 140 -87 207 -61 35 13 34 5 -13 -88 -76 -153 -249 -566 -286 -682 -14
-47 -28 -119 -31 -160 -6 -88 9 -126 69 -174 33 -27 48 -31 111 -34 59 -3 80
0 112 16 71 37 343 292 488 457 193 219 253 281 261 273 10 -10 -8 -104 -50
-258 -19 -69 -54 -228 -80 -353 -50 -249 -79 -353 -131 -466 -44 -96 -50 -136
-27 -181 41 -80 144 -105 229 -55 69 40 97 114 183 476 28 118 78 302 111 409
114 377 123 426 100 571 -20 135 -78 222 -169 254 -136 47 -248 -20 -496 -298
-43 -48 -80 -86 -82 -84 -2 2 29 73 68 158 39 85 87 195 106 244 107 273 12
437 -251 434 -45 0 -108 -7 -141 -14z"/>
<path d="M3530 3381 c-145 -47 -235 -209 -235 -419 0 -92 0 -94 32 -122 52
-47 119 -56 230 -31 155 34 254 97 306 195 30 57 30 165 0 222 -30 57 -79 102
-141 131 -56 27 -150 38 -192 24z"/>
<path d="M4825 2726 c-31 -13 -108 -96 -189 -203 -41 -54 -79 -125 -100 -187
-6 -18 -11 -15 -49 22 -52 51 -101 72 -167 72 -107 0 -195 -81 -215 -197 -5
-30 0 -74 15 -144 12 -55 20 -103 17 -105 -3 -3 -49 9 -104 26 -122 40 -259
47 -332 17 -96 -39 -163 -119 -197 -232 -29 -94 -24 -302 10 -477 33 -172 47
-209 102 -256 92 -82 232 -84 324 -4 79 67 97 149 66 299 -8 37 -17 94 -21
126 l-7 57 28 -10 c16 -6 60 -30 99 -53 64 -39 75 -42 140 -42 92 1 195 33
260 83 54 40 109 122 127 187 15 57 13 188 -6 274 -9 41 -14 76 -13 77 2 2 22
-4 46 -12 91 -31 222 17 325 119 69 70 108 136 131 222 30 116 10 213 -49 245
-15 7 -37 28 -51 45 -44 59 -124 80 -190 51z"/>
<path d="M2830 2365 c-47 -14 -180 -73 -297 -130 -187 -92 -215 -109 -239
-144 -14 -22 -28 -57 -31 -79 l-5 -39 -67 -5 c-84 -6 -132 -29 -198 -93 -77
-76 -95 -168 -48 -261 30 -60 71 -87 139 -89 l50 -2 22 -89 c12 -49 27 -102
33 -117 16 -42 15 -45 -29 -67 -127 -65 -209 -198 -225 -366 -16 -157 42 -285
202 -447 167 -169 404 -277 609 -277 116 0 210 24 337 86 149 72 193 138 169
251 -21 103 -95 167 -193 168 -48 0 -73 -8 -169 -55 -132 -64 -179 -69 -270
-30 -107 46 -180 108 -249 210 -46 70 -55 120 -21 120 30 0 70 -23 105 -60 73
-77 156 -88 239 -31 74 51 116 122 116 196 0 64 -14 91 -83 164 -91 97 -122
166 -200 451 -19 69 -37 133 -41 142 -6 13 -1 19 21 24 15 3 81 36 147 72 107
60 272 131 304 132 6 0 12 -9 12 -20 0 -40 -92 -297 -147 -410 -49 -100 -56
-123 -57 -175 -1 -184 184 -269 304 -139 67 72 237 446 289 633 34 121 36 180
12 259 -27 91 -87 159 -179 204 -60 30 -76 33 -172 35 -88 3 -119 -1 -190 -22z"/>
</g>
</svg>
