<?xml version="1.0" standalone="no"?>
<!DOCTYPE svg PUBLIC "-//W3C//DTD SVG 20010904//EN"
 "http://www.w3.org/TR/2001/REC-SVG-20010904/DTD/svg10.dtd">
<svg version="1.0" xmlns="http://www.w3.org/2000/svg"
 width="600.000000pt" height="600.000000pt" viewBox="0 0 600.000000 600.000000"
 preserveAspectRatio="xMidYMid meet">
<metadata>
Created by potrace 1.15, written by Peter Selinger 2001-2017
</metadata>
<g transform="translate(0.000000,600.000000) scale(0.100000,-0.100000)"
fill="#16364b" stroke="none">
<path d="M1711 5812 c-51 -26 -69 -57 -107 -188 -84 -289 -124 -464 -124 -540
0 -148 66 -224 196 -224 133 0 294 142 538 474 62 84 86 131 86 169 0 40 -43
108 -80 128 -42 23 -110 25 -149 4 -16 -8 -70 -72 -126 -150 -53 -75 -99 -134
-101 -132 -3 2 14 75 36 162 45 173 45 205 2 257 -28 33 -77 58 -114 58 -13 0
-38 -8 -57 -18z"/>
<path d="M3091 5623 c-68 -34 -92 -126 -50 -188 12 -17 49 -46 82 -65 157 -90
332 -247 428 -384 27 -38 49 -72 49 -77 0 -4 -26 -6 -58 -6 -92 2 -152 -53
-152 -138 0 -99 77 -149 231 -150 87 0 101 3 154 30 46 23 66 42 90 79 28 46
30 56 30 145 -1 106 -20 167 -86 277 -65 107 -238 265 -416 380 -177 114 -231
132 -302 97z"/>
<path d="M929 5445 c-132 -36 -280 -155 -332 -267 -87 -186 -27 -420 137 -533
73 -50 121 -56 179 -22 32 19 49 38 61 67 32 81 19 129 -60 211 -48 51 -54 62
-54 99 0 54 34 114 78 142 31 19 50 22 154 27 23 1 85 57 104 92 7 15 14 49
14 75 0 41 -5 51 -39 85 -39 39 -39 39 -117 38 -44 0 -100 -7 -125 -14z"/>
<path d="M2964 5182 c-123 -43 -224 -182 -224 -309 0 -72 50 -146 125 -186 82
-44 269 -18 335 46 40 39 45 62 44 187 -1 147 -33 219 -116 261 -46 23 -98 24
-164 1z"/>
<path d="M4745 4841 c-66 -41 -70 -51 -69 -190 0 -151 16 -219 79 -346 49
-100 112 -172 179 -204 52 -26 147 -28 202 -5 52 21 110 78 142 139 23 43 27
62 27 140 0 77 -4 98 -27 147 -51 109 -142 184 -353 292 -98 50 -134 56 -180
27z"/>
<path d="M2053 4830 c-81 -17 -151 -58 -178 -104 -44 -76 -27 -168 40 -212 35
-23 100 -21 155 5 65 30 96 27 128 -10 27 -33 77 -59 113 -59 38 0 85 30 107
69 24 42 29 120 12 165 -16 44 -78 103 -133 126 -58 26 -173 35 -244 20z"/>
<path d="M2840 4076 c-200 -54 -272 -235 -144 -363 81 -80 197 -114 394 -115
173 -1 398 42 447 85 58 51 67 133 23 205 -33 54 -254 149 -435 187 -84 18
-223 18 -285 1z"/>
<path d="M1080 4051 c-36 -4 -78 -15 -95 -23 -146 -77 -117 -281 46 -328 19
-6 63 -7 99 -3 55 5 63 4 54 -8 -82 -107 -243 -303 -339 -412 -197 -227 -275
-348 -275 -426 0 -50 22 -104 59 -143 30 -32 45 -41 83 -45 25 -3 63 0 84 8
22 7 58 11 81 10 48 -3 57 1 157 73 76 55 357 226 370 226 15 0 89 -66 102
-92 49 -94 -24 -366 -151 -564 -72 -113 -228 -254 -281 -254 -37 0 -91 -47
-109 -94 -23 -60 -14 -103 31 -147 32 -31 40 -34 97 -34 100 1 230 72 367 201
120 114 188 216 258 393 71 176 87 255 87 433 l0 156 39 5 c109 15 158 116
142 296 -9 100 -41 171 -94 206 -85 56 -145 46 -345 -61 -77 -41 -142 -73
-144 -70 -3 2 27 46 67 98 39 51 90 131 113 177 38 76 41 90 42 160 0 59 -5
85 -22 117 -29 54 -93 108 -152 130 -52 18 -264 27 -371 15z"/>
<path d="M4170 3761 c-78 -25 -110 -44 -160 -93 -58 -58 -93 -136 -98 -220 -9
-153 79 -264 241 -304 62 -16 72 -16 134 0 163 40 289 185 354 407 l22 76 -21
44 c-26 53 -64 78 -146 95 -90 19 -259 17 -326 -5z m85 -311 c-18 -20 -55 -28
-55 -11 0 10 62 42 69 35 2 -2 -4 -13 -14 -24z"/>
<path d="M3395 3386 c-50 -31 -101 -98 -154 -203 -46 -92 -51 -139 -23 -192
28 -52 72 -71 165 -71 58 0 88 5 117 20 75 38 126 136 136 264 12 131 -44 206
-151 206 -35 0 -62 -7 -90 -24z"/>
<path d="M5059 3226 c-124 -44 -282 -183 -317 -279 -53 -141 -1 -295 122 -360
65 -34 171 -31 256 9 86 41 121 71 158 141 52 100 63 221 28 323 -15 45 -90
137 -126 155 -42 21 -83 25 -121 11z"/>
<path d="M3950 2541 c-105 -34 -160 -107 -160 -212 0 -19 14 -84 30 -142 17
-59 30 -109 30 -112 0 -2 -19 2 -41 10 -118 42 -232 -7 -295 -125 -31 -57 -26
-246 9 -377 33 -122 117 -362 141 -397 65 -100 236 -114 338 -28 33 28 78 113
78 148 0 19 8 22 63 28 128 13 240 96 268 199 19 69 5 215 -34 357 -166 603
-157 581 -249 628 -48 25 -137 37 -178 23z"/>
<path d="M2014 2376 c-29 -13 -81 -53 -116 -88 -68 -66 -218 -261 -218 -282 0
-7 -15 -30 -33 -52 -135 -158 -232 -380 -257 -586 -26 -220 52 -477 195 -635
59 -67 211 -189 304 -247 41 -25 111 -58 155 -73 76 -26 91 -28 246 -28 154 1
171 3 250 29 161 54 298 138 378 232 119 142 157 199 231 349 87 174 123 274
178 490 32 127 35 150 31 250 -3 103 -6 114 -38 173 -116 217 -353 255 -694
111 -37 -16 -71 -29 -75 -29 -5 0 -13 19 -20 43 -21 69 -74 146 -168 243 -69
71 -98 94 -137 107 -72 25 -150 22 -212 -7z m140 -428 c8 -13 24 -61 35 -107
26 -104 54 -154 119 -209 100 -83 149 -84 374 -3 163 58 266 91 287 91 29 0
-9 -183 -73 -350 -45 -117 -131 -270 -194 -347 -170 -206 -272 -263 -452 -250
-82 6 -138 26 -226 82 -167 107 -234 224 -234 410 0 147 50 299 137 419 20 28
49 72 63 98 29 53 131 187 142 188 4 0 14 -10 22 -22z"/>
</g>
</svg>
