<?xml version="1.0" standalone="no"?>
<!DOCTYPE svg PUBLIC "-//W3C//DTD SVG 20010904//EN"
 "http://www.w3.org/TR/2001/REC-SVG-20010904/DTD/svg10.dtd">
<svg version="1.0" xmlns="http://www.w3.org/2000/svg"
 width="600.000000pt" height="600.000000pt" viewBox="0 0 600.000000 600.000000"
 preserveAspectRatio="xMidYMid meet">
<metadata>
Created by potrace 1.15, written by Peter Selinger 2001-2017
</metadata>
<g transform="translate(0.000000,600.000000) scale(0.100000,-0.100000)"
fill="#16364b" stroke="none">
<path d="M2883 5580 c-36 -21 -57 -59 -98 -170 -22 -61 -28 -92 -28 -167 -1
-83 2 -97 32 -157 59 -121 131 -157 330 -166 l123 -5 -43 -35 c-70 -55 -355
-307 -445 -393 -110 -104 -136 -143 -136 -202 0 -51 27 -95 85 -140 37 -27
191 -67 502 -129 99 -20 216 -47 260 -61 97 -30 149 -31 192 -5 72 44 90 137
40 203 -41 54 -185 100 -514 163 -79 15 -143 31 -143 35 0 20 253 224 521 422
85 62 119 108 126 171 11 94 -77 210 -195 258 -51 20 -75 23 -232 24 -237 1
-223 0 -215 27 4 12 23 57 42 101 40 89 41 133 3 187 -42 58 -144 78 -207 39z"/>
<path d="M1518 5276 c-156 -81 -286 -185 -367 -292 -75 -99 -157 -266 -216
-439 -31 -92 2 -177 82 -210 49 -21 60 -20 265 25 101 22 207 43 237 47 l54 6
-7 -29 c-4 -16 -34 -93 -66 -170 -79 -192 -102 -270 -95 -317 6 -33 3 -42 -29
-77 -31 -34 -36 -47 -36 -89 0 -86 73 -161 156 -161 82 0 289 90 486 213 75
46 106 72 124 103 31 53 32 110 1 155 -65 96 -151 104 -280 25 -43 -27 -80
-46 -82 -44 -3 3 20 61 50 131 30 70 62 152 71 184 24 82 22 171 -6 227 -46
96 -138 139 -300 140 -58 1 -129 -3 -157 -7 -32 -5 -53 -4 -53 2 0 5 25 41 55
79 66 85 169 172 249 213 97 48 126 85 126 162 0 79 -64 147 -147 154 -40 3
-59 -2 -115 -31z"/>
<path d="M4480 4564 c-80 -14 -159 -42 -267 -95 -103 -49 -127 -65 -149 -99
-52 -78 -39 -179 28 -220 55 -34 89 -35 159 -5 150 62 264 103 267 95 10 -29
-130 -299 -243 -469 -36 -54 -68 -114 -71 -133 -7 -42 24 -111 59 -129 12 -7
39 -27 59 -45 42 -37 36 -36 203 -64 157 -27 343 -69 350 -80 11 -17 -102
-246 -200 -406 -45 -72 -69 -123 -72 -150 -12 -96 84 -178 184 -159 73 13 139
108 279 399 91 191 117 275 111 359 -12 170 -140 256 -464 310 -73 12 -133 26
-133 31 0 4 29 56 64 115 137 228 206 395 206 498 -1 101 -56 185 -149 225
-45 20 -167 32 -221 22z"/>
<path d="M3747 3666 c-54 -20 -104 -61 -127 -106 -29 -56 -27 -146 3 -190 49
-74 147 -95 212 -46 18 14 37 26 41 26 21 0 -19 -151 -61 -227 -1 -2 -38 -13
-82 -26 -104 -30 -181 -77 -250 -151 -62 -67 -73 -90 -73 -149 0 -57 31 -104
83 -127 75 -35 140 -22 207 40 60 55 143 87 275 105 131 18 201 110 171 225
-12 45 -11 55 12 122 64 189 27 346 -106 443 -91 66 -218 92 -305 61z"/>
<path d="M2520 3570 c-118 -19 -328 -91 -408 -140 -44 -27 -76 -98 -67 -149
21 -119 131 -163 253 -102 98 49 204 82 281 88 l74 6 -7 -54 c-16 -119 -89
-302 -184 -458 -53 -88 -60 -151 -22 -203 l22 -30 -23 -47 c-33 -64 -33 -151
0 -204 58 -93 154 -112 294 -57 74 28 260 81 336 94 32 6 33 5 26 -22 -3 -15
-30 -81 -58 -147 -39 -91 -51 -132 -51 -170 0 -126 131 -228 252 -196 58 16
87 44 121 115 51 108 119 326 131 417 24 185 -38 315 -179 371 -78 31 -243 30
-391 -2 -58 -12 -115 -25 -128 -27 -20 -5 -18 4 33 102 64 124 99 230 121 365
48 289 -49 443 -288 455 -46 2 -108 0 -138 -5z"/>
<path d="M1132 3314 c-80 -21 -149 -57 -232 -121 -107 -82 -142 -163 -109
-250 14 -39 67 -92 108 -110 40 -17 124 -19 164 -4 l29 11 -7 -42 c-4 -24 -18
-97 -31 -163 -60 -290 -76 -393 -81 -538 -7 -174 4 -238 46 -284 42 -46 88
-66 168 -71 59 -4 79 -1 115 16 46 23 38 12 411 556 87 127 162 232 165 234 4
1 16 -25 25 -58 21 -69 23 -40 -40 -560 -48 -402 -50 -482 -16 -529 71 -95
204 -95 263 1 14 23 20 51 20 90 0 31 9 116 20 190 32 224 63 535 67 693 4
145 3 155 -30 287 -19 75 -47 159 -62 187 -35 64 -90 102 -154 109 -113 11
-223 -80 -426 -351 -64 -87 -119 -156 -121 -154 -3 2 7 51 20 108 47 202 58
288 54 420 -3 100 -8 135 -27 184 -54 136 -181 192 -339 149z"/>
<path d="M4718 2396 c-87 -32 -138 -94 -146 -175 l-4 -49 -192 -5 c-145 -3
-204 -8 -246 -22 -218 -69 -344 -205 -370 -396 -10 -73 -3 -160 26 -318 5 -27
4 -32 -7 -25 -8 5 -50 33 -93 62 -107 71 -190 96 -304 90 -72 -3 -99 -10 -157
-37 -121 -56 -238 -158 -317 -274 -45 -67 -140 -248 -177 -337 -21 -52 -23
-54 -37 -36 -45 62 -85 209 -139 519 -15 90 -31 150 -45 173 -64 102 -244 97
-321 -9 -37 -51 -45 -96 -30 -171 6 -34 25 -135 41 -226 67 -380 158 -565 323
-656 49 -27 59 -29 162 -29 150 0 196 17 292 110 67 65 77 80 136 211 90 198
201 361 262 384 28 11 76 -16 203 -112 58 -45 135 -95 170 -111 82 -38 177
-47 251 -22 63 21 153 100 174 154 9 22 21 42 27 46 18 11 50 83 60 133 5 31
4 91 -6 180 -8 73 -14 159 -12 190 3 52 5 56 33 64 17 5 127 10 245 12 237 4
280 12 363 67 56 37 119 121 144 192 22 63 24 213 4 271 -17 49 -73 112 -125
138 -51 26 -139 33 -188 14z"/>
</g>
</svg>
