<?xml version="1.0" standalone="no"?>
<!DOCTYPE svg PUBLIC "-//W3C//DTD SVG 20010904//EN"
 "http://www.w3.org/TR/2001/REC-SVG-20010904/DTD/svg10.dtd">
<svg version="1.0" xmlns="http://www.w3.org/2000/svg"
 width="600.000000pt" height="600.000000pt" viewBox="0 0 600.000000 600.000000"
 preserveAspectRatio="xMidYMid meet">
<metadata>
Created by potrace 1.15, written by Peter Selinger 2001-2017
</metadata>
<g transform="translate(0.000000,600.000000) scale(0.100000,-0.100000)"
fill="#16364b" stroke="none">
<path d="M2063 5618 c-373 -281 -476 -378 -537 -498 -60 -121 -57 -216 10
-290 47 -52 87 -64 198 -57 130 7 708 148 774 189 36 22 72 83 72 123 0 38
-35 100 -71 126 -57 40 -105 37 -309 -24 -267 -79 -257 -78 -185 -11 33 30
124 108 202 172 88 72 147 128 155 146 42 102 -33 206 -148 206 -50 0 -57 -3
-161 -82z"/>
<path d="M3077 5640 c-45 -40 -61 -79 -55 -140 7 -73 30 -92 162 -134 187 -60
301 -141 352 -251 29 -62 31 -143 5 -200 -36 -80 -156 -164 -333 -234 -148
-59 -173 -217 -45 -283 52 -26 106 -21 214 21 192 75 361 223 429 376 123 280
-66 665 -396 804 -108 46 -194 71 -246 71 -45 0 -59 -5 -87 -30z"/>
<path d="M1029 5337 c-141 -58 -284 -187 -341 -307 -26 -54 -32 -80 -36 -160
-2 -55 1 -120 8 -153 37 -181 221 -398 336 -397 46 1 112 35 133 72 50 80 36
139 -52 229 -75 77 -107 139 -107 209 0 93 47 153 164 212 77 38 114 73 126
118 19 71 -22 158 -87 185 -48 20 -78 19 -144 -8z"/>
<path d="M4765 4879 c-47 -13 -93 -67 -107 -124 -40 -167 24 -394 140 -496
144 -127 369 -75 458 107 54 111 30 223 -72 333 -62 67 -136 113 -252 157 -90
35 -116 38 -167 23z"/>
<path d="M2743 4835 c-228 -117 -323 -240 -311 -400 7 -85 39 -147 112 -221
71 -71 166 -121 263 -137 59 -10 68 -10 107 11 51 28 79 72 79 127 0 79 -40
119 -153 154 -70 22 -100 45 -100 75 0 29 70 96 148 141 77 45 107 94 100 165
-6 55 -30 93 -75 115 -48 23 -75 19 -170 -30z"/>
<path d="M1843 4385 c-175 -38 -363 -200 -363 -312 0 -84 42 -141 120 -164 67
-20 104 -5 179 71 93 96 136 109 226 70 60 -26 92 -25 145 3 70 37 100 124 69
204 -23 61 -97 111 -197 132 -66 14 -100 13 -179 -4z"/>
<path d="M2600 3805 c-181 -47 -228 -72 -261 -138 -15 -29 -20 -52 -16 -84 6
-56 28 -88 79 -114 48 -25 85 -23 241 10 55 12 115 21 134 21 33 0 35 -1 29
-27 -12 -47 -64 -153 -103 -207 -20 -28 -86 -112 -148 -186 -290 -349 -292
-353 -260 -436 31 -81 125 -129 206 -105 33 10 53 31 136 139 54 70 138 179
188 242 123 155 170 226 220 334 52 110 69 178 69 271 0 120 -70 229 -177 276
-80 35 -213 37 -337 4z"/>
<path d="M4182 3780 c-71 -11 -173 -62 -213 -107 -17 -21 -43 -61 -57 -91 -21
-46 -24 -65 -20 -126 6 -84 30 -138 94 -206 62 -66 129 -94 224 -95 100 0 181
37 263 121 68 70 153 194 169 246 19 63 -3 145 -51 190 -42 40 -80 53 -193 68
-84 11 -141 11 -216 0z m58 -315 c-14 -16 -50 -21 -50 -6 0 11 18 19 44 20 15
1 16 -2 6 -14z"/>
<path d="M1070 3675 c-120 -42 -225 -101 -254 -143 -52 -75 -43 -159 26 -236
50 -57 109 -81 183 -73 46 5 55 3 55 -10 0 -9 -41 -100 -91 -202 -121 -246
-162 -358 -224 -603 -38 -149 -33 -203 28 -266 52 -54 170 -78 240 -48 19 8
173 158 376 365 189 193 346 350 348 347 16 -16 -151 -747 -228 -997 -33 -109
-35 -135 -14 -184 43 -105 168 -136 251 -63 38 34 70 124 123 353 16 72 55
238 86 369 79 339 100 472 100 641 0 90 -5 154 -14 180 -48 144 -163 195 -297
130 -48 -23 -94 -64 -246 -219 -103 -105 -188 -189 -188 -186 0 3 24 60 54
126 87 196 136 359 136 459 0 68 -26 138 -71 189 -61 69 -106 89 -214 93 -77
3 -101 0 -165 -22z"/>
<path d="M3560 3361 c-92 -30 -174 -104 -216 -196 -35 -77 -67 -211 -61 -257
7 -52 44 -103 88 -124 42 -18 132 -14 247 12 117 26 221 96 265 178 30 58 30
174 0 232 -35 65 -70 101 -126 128 -56 28 -155 41 -197 27z"/>
<path d="M4851 2754 c-209 -56 -323 -198 -293 -364 6 -30 9 -56 7 -58 -1 -2
-20 8 -40 22 -96 65 -199 56 -277 -24 -65 -68 -78 -125 -54 -256 9 -53 15 -98
12 -101 -2 -2 -55 10 -118 28 -90 26 -132 33 -208 33 -85 1 -102 -2 -158 -28
-152 -70 -244 -252 -227 -446 11 -129 45 -353 61 -401 45 -139 209 -213 331
-151 71 37 123 123 123 205 0 42 -23 230 -36 291 -6 27 -5 28 22 22 16 -4 62
-23 103 -42 41 -19 91 -37 111 -40 51 -8 193 22 267 57 78 37 154 118 179 191
26 75 22 236 -9 398 -14 69 -23 127 -21 129 2 2 19 -10 39 -27 88 -78 212 -61
309 42 40 43 84 140 102 227 16 78 15 102 -8 187 -18 63 -49 98 -97 112 -45
12 -54 12 -120 -6z"/>
<path d="M2850 2441 c-85 -24 -136 -45 -316 -130 -168 -79 -205 -105 -234
-161 -23 -46 -26 -125 -6 -173 28 -68 124 -125 190 -113 18 3 97 39 177 80
134 68 282 126 293 115 13 -13 -78 -254 -178 -474 -72 -156 7 -296 166 -295
63 1 108 22 142 69 29 39 220 467 262 586 39 111 41 237 4 310 -33 67 -103
135 -175 170 -52 25 -74 29 -160 32 -75 2 -116 -2 -165 -16z"/>
<path d="M2135 1891 c-44 -11 -107 -46 -132 -73 -12 -12 -29 -47 -38 -75 -15
-45 -15 -60 -5 -104 15 -61 71 -123 122 -137 32 -8 34 -12 75 -136 l42 -127
-39 -40 c-61 -63 -83 -133 -78 -254 5 -147 44 -222 191 -374 108 -111 202
-165 412 -236 136 -47 278 -58 385 -31 135 34 269 117 296 183 17 39 18 116 3
146 -56 109 -167 135 -299 70 -102 -49 -156 -50 -267 -4 -46 19 -83 37 -83 40
0 4 12 12 28 19 73 34 107 88 107 172 0 84 -31 142 -99 187 -130 85 -180 168
-252 418 -25 88 -59 186 -76 218 -62 115 -172 167 -293 138z"/>
</g>
</svg>
