<?xml version="1.0" standalone="no"?>
<!DOCTYPE svg PUBLIC "-//W3C//DTD SVG 20010904//EN"
 "http://www.w3.org/TR/2001/REC-SVG-20010904/DTD/svg10.dtd">
<svg version="1.0" xmlns="http://www.w3.org/2000/svg"
 width="600.000000pt" height="600.000000pt" viewBox="0 0 600.000000 600.000000"
 preserveAspectRatio="xMidYMid meet">
<metadata>
Created by potrace 1.15, written by Peter Selinger 2001-2017
</metadata>
<g transform="translate(0.000000,600.000000) scale(0.100000,-0.100000)"
fill="#16364b" stroke="none">
<path d="M2137 5345 c-52 -19 -128 -77 -161 -120 -15 -19 -39 -61 -54 -93
l-27 -57 -1 -465 c-1 -688 -12 -1414 -25 -1592 l-12 -157 -44 -7 c-63 -9 -424
2 -511 16 -66 11 -73 15 -78 39 -12 55 -16 61 -36 61 -17 0 -20 -5 -16 -35 2
-19 1 -35 -2 -35 -3 0 -24 18 -45 40 -36 37 -75 53 -75 30 0 -5 7 -28 16 -50
9 -23 15 -43 12 -45 -2 -3 -20 0 -39 5 -48 14 -59 13 -59 -8 0 -11 14 -27 35
-38 44 -24 44 -34 0 -34 -37 0 -59 -25 -36 -39 10 -7 115 -25 206 -37 11 -1
61 -8 110 -16 55 -8 178 -13 316 -13 l227 0 5 -260 c5 -273 14 -348 63 -535
68 -259 130 -388 238 -496 84 -84 194 -143 327 -175 l86 -21 -5 -122 c-5 -144
7 -216 75 -444 26 -83 44 -154 41 -157 -3 -3 -48 -9 -101 -14 -103 -10 -138
-26 -163 -72 -18 -36 -18 -63 1 -98 27 -53 116 -65 227 -31 76 23 137 65 172
117 39 56 35 108 -23 292 -27 86 -54 188 -61 226 -11 65 -11 268 0 278 7 7
423 -9 611 -24 121 -9 194 -10 270 -3 57 6 106 9 108 7 3 -2 -1 -32 -7 -67
-28 -151 -4 -351 64 -533 19 -51 32 -98 29 -103 -3 -6 -34 -10 -68 -10 -91 -1
-138 -14 -169 -50 -75 -82 11 -173 145 -155 70 10 154 40 193 70 34 26 74 97
74 133 0 12 -18 75 -39 139 -22 65 -47 154 -56 198 -23 109 -29 275 -13 350
l13 60 55 7 c30 4 120 14 200 23 226 24 299 54 403 165 102 108 162 254 174
424 11 162 -44 556 -99 705 -29 80 -114 204 -202 296 -42 43 -74 80 -72 83 2
2 67 14 144 27 173 30 295 59 392 95 41 15 86 31 100 34 14 3 53 29 88 57 54
43 61 53 50 66 -7 9 -13 23 -13 32 0 10 -10 17 -27 19 -24 3 -27 6 -18 23 16
30 -15 36 -50 10 -37 -27 -48 -27 -52 2 -6 40 -33 26 -36 -20 -3 -41 -4 -42
-60 -63 -157 -59 -446 -124 -613 -137 l-76 -6 -99 93 c-221 207 -286 254 -619
453 -116 69 -235 144 -265 167 -166 129 -252 247 -338 465 -97 244 -145 413
-186 659 -33 190 -40 217 -83 299 -39 74 -89 123 -162 158 -59 29 -215 37
-274 14z m203 -157 c85 -43 132 -136 151 -298 39 -332 185 -766 332 -985 50
-75 201 -226 287 -286 36 -26 164 -108 285 -184 305 -192 397 -260 580 -436
44 -42 105 -98 135 -124 168 -145 284 -275 335 -376 29 -56 93 -339 107 -469
21 -196 -7 -366 -76 -469 -78 -115 -160 -161 -314 -176 -37 -4 -177 -20 -312
-37 -268 -33 -241 -33 -875 -9 -434 17 -541 38 -677 133 -124 87 -201 235
-264 503 -27 116 -28 131 -32 445 -3 232 1 385 12 535 8 116 17 381 20 590 3
209 10 454 17 545 9 125 9 233 0 450 -17 428 -16 485 13 546 50 107 175 153
276 102z"/>
<path d="M2612 2858 c-44 -22 -38 -81 13 -114 30 -19 48 -14 70 20 22 34 12
80 -21 95 -29 13 -32 13 -62 -1z"/>
<path d="M3163 2790 c-54 -22 -51 -85 6 -114 49 -26 90 2 91 60 0 17 -6 36
-13 42 -19 16 -60 22 -84 12z"/>
<path d="M2863 1861 c-8 -7 -13 -23 -11 -35 7 -46 85 -57 281 -42 91 8 110 12
118 28 8 14 6 26 -5 44 l-16 24 -177 -3 c-134 -1 -180 -5 -190 -16z"/>
</g>
</svg>
