<?xml version="1.0" standalone="no"?>
<!DOCTYPE svg PUBLIC "-//W3C//DTD SVG 20010904//EN"
 "http://www.w3.org/TR/2001/REC-SVG-20010904/DTD/svg10.dtd">
<svg version="1.0" xmlns="http://www.w3.org/2000/svg"
 width="600.000000pt" height="600.000000pt" viewBox="0 0 600.000000 600.000000"
 preserveAspectRatio="xMidYMid meet">
<metadata>
Created by potrace 1.15, written by Peter Selinger 2001-2017
</metadata>
<g transform="translate(0.000000,600.000000) scale(0.100000,-0.100000)"
fill="#16364b" stroke="none">
<path d="M2386 5375 c-13 -13 -16 -37 -16 -114 0 -130 -18 -350 -36 -436 -30
-147 -103 -240 -248 -316 -88 -46 -109 -69 -95 -106 15 -40 50 -38 140 7 149
74 211 132 268 246 41 86 59 192 72 446 10 189 9 229 -2 254 -17 34 -58 44
-83 19z"/>
<path d="M3544 5272 c-6 -4 -19 -21 -28 -39 -15 -30 -15 -35 3 -83 41 -108
141 -206 220 -217 33 -5 44 -1 65 20 35 35 34 79 -3 142 -40 69 -119 155 -158
171 -35 15 -82 18 -99 6z"/>
<path d="M3023 5099 c-23 -11 -61 -41 -83 -66 -133 -144 -109 -372 35 -332 78
22 199 166 226 270 32 119 -62 186 -178 128z m77 -103 c0 -49 -126 -204 -148
-182 -9 10 16 93 40 129 23 36 74 77 95 77 7 0 13 -11 13 -24z"/>
<path d="M4775 4733 c-31 -30 -34 -62 -37 -305 -3 -229 -2 -246 18 -288 26
-56 43 -70 92 -77 31 -4 44 0 69 21 45 38 57 84 57 206 -1 167 -57 403 -105
443 -27 22 -73 22 -94 0z"/>
<path d="M2632 4210 c-73 -45 -78 -127 -10 -182 80 -65 307 -119 420 -99 101
17 143 83 104 159 -17 33 -34 42 -156 81 -211 67 -298 77 -358 41z"/>
<path d="M5259 3981 c-152 -49 -243 -169 -242 -321 1 -189 120 -330 278 -330
154 0 304 90 364 219 34 74 41 192 16 258 -23 60 -73 114 -145 158 -53 32 -64
35 -136 34 -47 0 -102 -7 -135 -18z m141 -301 c12 -7 12 -12 -4 -29 -25 -27
-55 -27 -65 2 -5 12 -7 25 -4 30 6 10 55 9 73 -3z"/>
<path d="M1353 3899 c-66 -25 -135 -99 -153 -164 -16 -58 -8 -148 18 -209 30
-66 119 -151 196 -186 92 -42 143 -110 196 -262 41 -116 58 -201 85 -429 13
-108 35 -252 49 -320 13 -68 34 -200 46 -294 34 -264 61 -377 121 -496 81
-163 232 -275 448 -334 64 -17 81 -25 66 -30 -11 -4 -66 -30 -121 -56 -74 -36
-114 -62 -147 -98 -97 -104 -80 -220 36 -252 53 -14 195 -7 421 21 93 12 173
17 177 13 5 -5 -13 -25 -40 -45 -56 -42 -78 -89 -62 -131 27 -71 125 -76 193
-11 114 110 116 274 5 325 -51 23 -97 23 -252 4 -66 -8 -174 -18 -240 -21
-113 -5 -119 -4 -100 11 38 32 151 83 320 145 94 35 175 67 182 72 7 5 127 5
305 -1 161 -6 314 -11 341 -11 46 0 48 -1 63 -40 9 -22 29 -49 43 -60 38 -26
129 -48 234 -56 64 -4 87 -9 87 -19 0 -54 60 -95 136 -95 60 0 106 23 149 73
43 50 46 92 10 135 -32 39 -88 52 -216 52 -56 0 -99 3 -96 7 4 3 67 13 140 20
227 23 441 86 670 198 207 100 380 301 460 533 60 176 47 324 -48 518 -140
284 -321 419 -565 418 -154 -1 -266 -42 -394 -145 -126 -101 -344 -188 -545
-216 -104 -14 -136 -15 -220 -5 -54 7 -134 24 -179 38 -266 81 -411 200 -637
519 -351 496 -512 668 -720 769 -300 146 -349 158 -462 115z m297 -300 c117
-59 154 -83 220 -146 103 -97 353 -405 495 -609 256 -370 487 -527 885 -604
332 -65 743 43 1013 264 77 63 139 86 228 86 153 0 293 -110 390 -306 37 -74
41 -88 41 -160 0 -93 -21 -160 -84 -273 -60 -104 -191 -236 -283 -283 -148
-75 -350 -138 -545 -169 -166 -27 -1373 -5 -1545 27 -274 52 -385 212 -430
619 -9 77 -25 190 -36 250 -11 61 -26 173 -35 250 -35 328 -90 547 -184 735
-70 140 -131 207 -242 265 -70 37 -108 75 -108 106 0 15 8 19 40 19 29 0 76
-19 180 -71z"/>
<path d="M2324 2435 c-20 -31 -9 -65 30 -90 32 -21 62 -12 82 26 12 25 13 34
2 57 -11 22 -21 28 -55 30 -36 3 -44 -1 -59 -23z"/>
<path d="M2826 2049 c-33 -26 -33 -53 -1 -84 46 -47 115 -22 115 41 0 25 -43
64 -70 64 -10 0 -29 -9 -44 -21z"/>
<path d="M4195 3758 c-81 -29 -172 -118 -206 -203 -32 -82 -33 -201 -2 -261
27 -50 82 -100 142 -128 63 -29 178 -28 243 1 126 57 212 219 193 367 -12 100
-33 153 -70 181 -84 65 -192 80 -300 43z m118 -291 c-8 -31 -23 -47 -44 -47
-11 0 -19 3 -19 6 0 12 24 50 39 61 21 15 30 8 24 -20z"/>
<path d="M3424 3328 c-39 -61 -134 -270 -134 -294 0 -24 29 -54 52 -54 28 0
97 90 148 193 70 138 68 197 -7 197 -28 0 -37 -7 -59 -42z"/>
<path d="M470 2010 c-11 -11 -20 -29 -20 -39 0 -40 244 -211 302 -211 26 0 58
36 58 65 0 14 -14 37 -35 58 -36 35 -241 147 -269 147 -9 0 -25 -9 -36 -20z"/>
<path d="M5360 1123 c-67 -8 -109 -77 -110 -180 0 -56 3 -65 34 -97 88 -94
196 0 196 171 0 50 -4 67 -20 83 -11 11 -24 20 -29 20 -5 0 -15 2 -23 3 -7 2
-29 2 -48 0z"/>
</g>
</svg>
