<?xml version="1.0" standalone="no"?>
<!DOCTYPE svg PUBLIC "-//W3C//DTD SVG 20010904//EN"
 "http://www.w3.org/TR/2001/REC-SVG-20010904/DTD/svg10.dtd">
<svg version="1.0" xmlns="http://www.w3.org/2000/svg"
 width="600.000000pt" height="600.000000pt" viewBox="0 0 600.000000 600.000000"
 preserveAspectRatio="xMidYMid meet">
<metadata>
Created by potrace 1.15, written by Peter Selinger 2001-2017
</metadata>
<g transform="translate(0.000000,600.000000) scale(0.100000,-0.100000)"
fill="#16364b" stroke="none">
<path d="M3090 5622 c-49 -49 -57 -90 -36 -183 29 -128 99 -239 199 -314 32
-25 107 -70 168 -101 110 -58 135 -76 125 -92 -11 -19 -149 -105 -302 -188
-205 -112 -298 -175 -313 -211 -7 -17 -28 -36 -52 -48 -93 -44 -168 -138 -169
-210 0 -44 40 -107 80 -127 45 -23 125 -23 170 0 19 9 45 33 58 52 28 42 39
47 169 71 56 10 111 24 121 30 33 21 56 71 57 123 l0 49 110 66 c219 132 299
200 346 296 28 57 31 72 27 132 -8 129 -69 202 -267 318 -192 113 -208 129
-265 275 -27 70 -69 100 -139 100 -44 0 -54 -4 -87 -38z"/>
<path d="M1202 5366 c-132 -71 -228 -170 -293 -301 -152 -309 -94 -765 98
-765 75 0 133 46 154 123 9 35 7 54 -10 118 -64 234 13 453 193 544 82 42 101
70 101 150 0 71 -17 103 -75 143 -47 31 -93 28 -168 -12z"/>
<path d="M1600 5170 c-19 -4 -49 -24 -67 -43 -59 -65 -54 -156 14 -222 l36
-35 -31 -67 c-39 -87 -52 -136 -52 -199 0 -127 75 -227 200 -265 60 -18 89
-21 179 -17 125 5 163 21 198 84 47 82 14 187 -71 231 -23 12 -47 14 -109 8
l-79 -7 7 24 c4 13 19 48 32 78 47 105 63 162 63 230 0 126 -75 197 -217 205
-37 2 -84 0 -103 -5z"/>
<path d="M4500 4618 c-77 -53 -97 -133 -50 -202 33 -47 71 -63 173 -71 48 -4
90 -11 92 -15 5 -8 -52 -32 -140 -60 -160 -50 -142 -265 26 -294 78 -14 303
74 413 161 139 108 157 270 41 371 -73 65 -154 92 -343 117 -150 20 -173 19
-212 -7z"/>
<path d="M1853 4234 c-153 -33 -331 -111 -412 -180 -82 -71 -75 -187 16 -249
60 -40 116 -35 194 18 106 72 242 117 358 117 63 0 107 29 133 87 37 83 6 178
-68 209 -41 17 -139 16 -221 -2z"/>
<path d="M2610 3744 c-163 -24 -319 -86 -362 -145 -41 -54 -42 -146 -3 -205 9
-14 38 -35 63 -47 l47 -20 75 27 c149 55 255 71 267 40 9 -23 -23 -141 -57
-209 -36 -75 -106 -179 -239 -360 -57 -77 -112 -160 -123 -184 -35 -76 -11
-156 57 -188 l34 -16 -24 -28 c-80 -96 -49 -227 69 -288 82 -42 132 -35 338
48 167 67 238 91 238 78 0 -30 -106 -299 -157 -397 -58 -113 -64 -130 -60
-172 5 -62 40 -111 100 -144 67 -36 148 -31 209 12 87 61 176 260 265 599 39
144 38 259 0 337 -34 69 -91 121 -166 149 -49 18 -71 20 -171 16 -119 -5 -219
-27 -364 -82 l-68 -26 18 25 c257 337 336 462 390 621 23 68 28 97 28 190 1
99 -2 116 -25 166 -48 101 -118 163 -214 187 -50 13 -132 20 -165 16z"/>
<path d="M3954 3724 c-85 -30 -138 -107 -138 -199 0 -83 37 -160 112 -234 77
-75 155 -112 250 -119 120 -8 199 37 248 143 40 85 25 171 -37 216 -22 15 -29
29 -29 52 0 37 -29 90 -62 111 -62 40 -265 58 -344 30z"/>
<path d="M1162 3545 c-34 -7 -113 -39 -175 -70 -169 -86 -197 -109 -217 -181
-30 -105 49 -224 162 -244 37 -7 72 -3 125 14 l22 7 -25 -63 c-61 -152 -109
-296 -159 -478 -109 -398 -110 -461 -14 -544 61 -52 208 -84 259 -56 11 6 75
77 144 158 68 81 179 212 247 292 68 80 153 184 190 232 37 48 69 84 73 81 13
-14 5 -160 -15 -256 -11 -56 -43 -181 -71 -277 -88 -304 -98 -350 -105 -466
-6 -123 2 -165 45 -216 65 -77 199 -77 257 0 18 24 20 43 20 157 1 126 3 138
62 375 105 420 119 515 108 775 -7 188 -15 232 -51 287 -49 76 -167 102 -257
57 -59 -30 -191 -169 -332 -352 -66 -85 -121 -151 -123 -146 -2 4 28 102 67
217 102 306 119 408 86 520 -43 143 -168 212 -323 177z"/>
<path d="M3606 3253 c-103 -31 -189 -113 -243 -231 -44 -95 -52 -165 -24 -210
53 -84 175 -98 251 -28 21 19 40 25 112 30 135 10 209 45 253 120 49 84 26
188 -58 262 -78 69 -185 90 -291 57z"/>
<path d="M4660 3121 c-37 -19 -80 -88 -80 -127 0 -38 18 -74 92 -187 l71 -108
-23 -41 c-29 -51 -30 -120 -3 -157 11 -14 40 -37 66 -50 43 -21 51 -22 96 -11
135 32 208 135 181 256 -14 64 -63 158 -156 300 -47 71 -86 120 -104 129 -39
20 -98 19 -140 -4z"/>
<path d="M4529 2313 c-15 -2 -51 -18 -80 -36 -41 -25 -60 -45 -82 -87 -28 -53
-29 -59 -23 -153 5 -89 4 -98 -12 -93 -48 15 -255 56 -312 62 -83 8 -167 -9
-243 -49 -70 -37 -121 -91 -155 -166 -26 -55 -26 -62 -34 -360 -7 -284 -6
-307 11 -346 74 -166 340 -140 412 41 6 16 15 111 19 212 4 101 10 186 14 189
3 3 52 -7 108 -22 242 -67 443 -32 562 96 110 119 140 297 89 523 -14 61 -22
76 -67 121 -64 64 -118 82 -207 68z"/>
<path d="M2165 1844 c-22 -8 -52 -27 -68 -42 -57 -53 -66 -105 -47 -271 5 -47
17 -149 25 -227 26 -239 83 -401 176 -499 59 -63 151 -123 284 -187 80 -38 98
-43 161 -43 62 0 75 3 108 29 46 35 76 82 76 119 0 15 3 27 6 27 3 0 27 -14
53 -32 186 -128 239 -154 342 -165 110 -11 242 38 318 118 59 62 77 152 46
226 -21 50 -42 72 -90 94 -59 27 -113 24 -180 -11 -68 -36 -74 -36 -125 -10
-109 56 -224 142 -341 255 -69 68 -140 130 -158 139 -88 46 -194 23 -250 -54
-24 -33 -30 -38 -35 -23 -13 42 -37 206 -45 309 -5 68 -16 126 -26 148 -22 47
-75 92 -122 105 -48 14 -59 13 -108 -5z"/>
</g>
</svg>
