<?xml version="1.0" standalone="no"?>
<!DOCTYPE svg PUBLIC "-//W3C//DTD SVG 20010904//EN"
 "http://www.w3.org/TR/2001/REC-SVG-20010904/DTD/svg10.dtd">
<svg version="1.0" xmlns="http://www.w3.org/2000/svg"
 width="600.000000pt" height="600.000000pt" viewBox="0 0 600.000000 600.000000"
 preserveAspectRatio="xMidYMid meet">
<metadata>
Created by potrace 1.15, written by Peter Selinger 2001-2017
</metadata>
<g transform="translate(0.000000,600.000000) scale(0.100000,-0.100000)"
fill="#16364b" stroke="none">
<path d="M2370 5452 c-28 -15 -45 -38 -82 -111 -76 -150 -87 -249 -40 -342 18
-37 41 -63 72 -84 39 -26 55 -30 135 -33 74 -3 115 2 228 27 76 17 145 31 153
31 9 0 -8 -29 -46 -77 -110 -139 -258 -372 -345 -544 -80 -160 -85 -173 -85
-234 0 -58 3 -68 31 -100 52 -58 76 -61 315 -30 151 20 275 29 449 34 258 6
260 7 305 64 24 30 35 84 26 121 -3 14 -20 41 -37 60 -44 51 -101 60 -334 53
-104 -3 -227 -11 -273 -17 -46 -7 -86 -10 -89 -6 -9 9 93 164 189 287 189 243
212 273 244 336 28 53 34 75 34 128 0 79 -11 110 -58 158 -96 99 -209 107
-496 37 -66 -16 -121 -28 -123 -26 -2 2 11 33 28 70 33 71 34 114 3 162 -35
52 -138 70 -204 36z"/>
<path d="M1665 5036 c-150 -49 -341 -166 -474 -292 -118 -111 -142 -174 -100
-260 29 -60 70 -83 186 -100 161 -24 301 -65 381 -111 27 -15 56 -45 77 -78
60 -92 115 -119 200 -95 55 16 109 72 119 124 9 46 -30 134 -93 213 -52 64
-170 144 -268 181 -40 15 -71 31 -70 36 5 15 128 75 167 82 79 12 119 34 145
78 31 53 32 105 4 162 -41 86 -134 106 -274 60z"/>
<path d="M4090 4814 c-155 -30 -377 -150 -406 -220 -43 -102 30 -214 138 -214
33 0 57 8 98 36 111 72 252 126 281 108 8 -5 10 -33 6 -88 -6 -98 -35 -183
-124 -360 -75 -150 -76 -164 -18 -252 78 -117 106 -126 294 -90 155 30 326 46
393 39 55 -6 60 -18 48 -101 -12 -87 -36 -168 -95 -335 -32 -89 -55 -168 -55
-192 0 -140 174 -183 262 -64 19 26 80 171 117 279 73 212 97 380 68 481 -53
182 -248 262 -566 230 -62 -7 -116 -10 -118 -7 -3 3 9 42 26 88 58 159 66 195
66 328 0 116 -2 128 -27 175 -32 60 -77 105 -138 136 -35 19 -63 24 -135 25
-49 1 -101 0 -115 -2z"/>
<path d="M2020 3944 c-124 -46 -295 -90 -406 -104 -144 -19 -204 -69 -204
-170 0 -79 51 -131 136 -138 98 -8 310 34 489 98 194 68 225 87 250 154 29 77
0 153 -71 182 -50 21 -89 16 -194 -22z"/>
<path d="M3730 3705 c-79 -25 -481 -260 -522 -305 -78 -85 10 -242 125 -225
20 3 99 41 175 84 176 101 242 134 242 121 0 -25 -69 -179 -143 -320 -108
-203 -156 -309 -157 -340 0 -37 40 -110 73 -134 70 -51 284 0 546 130 143 71
229 136 283 214 32 44 38 62 38 103 0 65 -30 113 -84 138 -77 35 -138 19 -220
-59 -51 -48 -143 -109 -152 -100 -2 3 16 51 41 107 94 216 122 343 96 439 -15
53 -73 119 -126 143 -48 22 -150 24 -215 4z"/>
<path d="M2355 3394 c-90 -14 -289 -69 -317 -88 -113 -75 -76 -269 54 -283 26
-3 75 3 123 15 111 28 222 44 275 40 41 -3 45 -5 42 -28 -2 -14 -22 -70 -43
-125 -33 -81 -39 -108 -34 -141 18 -123 181 -176 258 -84 27 31 88 181 113
271 46 175 -13 317 -164 391 -61 30 -74 33 -172 34 -58 1 -118 0 -135 -2z"/>
<path d="M1136 3100 c-60 -24 -93 -53 -117 -105 -23 -51 -24 -99 0 -150 22
-49 82 -104 122 -112 16 -3 33 -11 37 -17 4 -6 7 -182 7 -391 1 -355 2 -385
22 -452 11 -39 29 -86 40 -105 61 -106 233 -133 323 -52 48 44 64 89 57 165
l-5 59 32 0 c56 0 97 37 146 132 25 47 61 110 81 140 41 60 137 168 150 168
18 0 19 -51 5 -240 -9 -119 -25 -243 -41 -316 -22 -101 -25 -128 -16 -161 12
-43 52 -90 89 -104 64 -25 147 3 175 58 60 117 131 629 107 777 -28 175 -117
288 -249 317 -63 13 -153 -8 -214 -50 -54 -37 -178 -167 -242 -253 -28 -38
-53 -68 -56 -68 -3 0 -3 52 -1 115 5 134 -12 307 -40 409 -22 80 -71 162 -121
200 -75 57 -197 72 -291 36z"/>
<path d="M4845 2949 c-43 -12 -102 -64 -128 -112 -18 -35 -21 -57 -20 -125 l1
-82 -139 -71 c-276 -140 -385 -251 -420 -427 -34 -176 39 -407 175 -559 25
-28 46 -53 46 -56 0 -3 -12 -8 -26 -11 -14 -4 -47 -26 -72 -50 -26 -23 -55
-46 -64 -49 -10 -4 -69 3 -130 15 -161 31 -378 30 -462 0 -142 -52 -278 -151
-421 -305 -50 -54 -97 -99 -105 -102 -8 -3 -44 -33 -80 -67 -80 -75 -155 -113
-208 -103 -117 22 -236 143 -341 347 -55 108 -103 153 -177 164 -96 14 -189
-46 -212 -137 -14 -55 -6 -89 47 -210 81 -185 201 -341 331 -429 265 -180 494
-172 745 25 39 30 91 66 117 80 30 16 68 51 104 97 150 188 295 288 415 288
23 0 105 -12 183 -26 241 -45 352 -21 485 102 90 83 124 178 86 244 -21 36
-19 39 29 51 55 14 120 67 148 123 49 95 18 231 -68 304 -24 20 -50 50 -59 68
-21 44 -20 117 3 137 9 8 91 53 182 98 145 73 173 91 235 153 114 113 149 217
126 373 -6 46 -19 102 -28 124 -19 48 -93 115 -142 129 -43 12 -114 12 -156
-1z"/>
<path d="M3140 2340 c-198 -35 -424 -87 -465 -107 -140 -70 -157 -268 -28
-340 71 -39 93 -38 339 17 262 59 425 90 436 84 5 -3 8 -21 8 -40 0 -171 245
-262 355 -132 30 35 43 81 51 179 10 115 -19 204 -90 274 -43 43 -66 57 -121
74 -101 31 -272 28 -485 -9z"/>
</g>
</svg>
