<?xml version="1.0" standalone="no"?>
<!DOCTYPE svg PUBLIC "-//W3C//DTD SVG 20010904//EN"
 "http://www.w3.org/TR/2001/REC-SVG-20010904/DTD/svg10.dtd">
<svg version="1.0" xmlns="http://www.w3.org/2000/svg"
 width="600.000000pt" height="600.000000pt" viewBox="0 0 600.000000 600.000000"
 preserveAspectRatio="xMidYMid meet">
<metadata>
Created by potrace 1.15, written by Peter Selinger 2001-2017
</metadata>
<g transform="translate(0.000000,600.000000) scale(0.100000,-0.100000)"
fill="#16364b" stroke="none">
<path d="M2014 5826 c-17 -8 -45 -31 -62 -52 -95 -118 -401 -537 -426 -583
-38 -70 -47 -170 -21 -225 46 -97 153 -122 291 -66 150 60 597 309 653 364 82
82 7 236 -116 236 -41 0 -51 -5 -187 -89 -48 -29 -89 -51 -91 -50 -2 2 28 47
67 99 97 133 111 162 106 225 -5 65 -37 111 -92 136 -48 22 -80 23 -122 5z"/>
<path d="M3064 5706 c-50 -22 -87 -79 -92 -141 -2 -30 -2 -65 2 -78 9 -38 51
-73 119 -97 206 -75 381 -204 440 -324 35 -73 51 -158 38 -199 -20 -60 -64
-90 -204 -141 -153 -56 -133 -286 25 -286 93 0 272 82 339 156 76 82 129 212
129 313 0 209 -150 460 -375 628 -90 68 -317 183 -359 183 -17 -1 -45 -7 -62
-14z"/>
<path d="M920 5364 c-41 -14 -104 -45 -141 -70 -285 -189 -272 -595 25 -783
74 -46 117 -57 174 -42 57 16 97 53 110 101 18 73 -7 123 -91 179 -52 36 -94
92 -97 131 -7 95 24 134 143 179 90 34 117 56 142 113 21 52 19 96 -8 143 -43
78 -126 93 -257 49z"/>
<path d="M2734 4986 c-108 -50 -170 -172 -162 -320 7 -130 60 -210 174 -263
59 -27 172 -39 258 -29 49 7 64 14 102 50 42 41 44 45 44 99 0 49 -4 61 -31
92 -22 25 -43 37 -71 41 l-40 7 31 24 c88 69 81 181 -17 257 -85 67 -199 84
-288 42z"/>
<path d="M4785 4901 c-16 -10 -43 -33 -60 -50 -30 -32 -30 -33 -29 -149 3
-255 80 -439 220 -522 53 -32 65 -35 134 -35 64 0 82 4 121 27 158 93 183 273
67 476 -49 86 -140 169 -245 225 -102 53 -156 61 -208 28z"/>
<path d="M1902 4641 c-29 -11 -81 -40 -116 -65 -123 -88 -140 -198 -42 -284
56 -49 117 -48 192 3 70 48 88 46 118 -14 45 -89 117 -126 196 -102 47 14 97
69 106 117 18 98 -85 262 -207 329 -70 38 -170 44 -247 16z"/>
<path d="M3003 3961 c-64 -16 -146 -66 -191 -116 -93 -103 -145 -268 -121
-384 16 -77 42 -125 105 -191 130 -137 284 -148 343 -26 45 92 12 170 -93 221
-40 20 -41 21 -41 70 1 36 7 60 23 82 20 29 26 31 96 35 67 3 79 7 107 33 81
77 78 203 -7 256 -38 23 -164 35 -221 20z"/>
<path d="M1175 3911 c-96 -16 -220 -52 -256 -76 -67 -44 -98 -151 -66 -228 19
-45 89 -105 132 -113 20 -3 54 -4 75 0 22 3 40 4 40 1 0 -23 -183 -351 -270
-485 -126 -193 -156 -251 -201 -382 -31 -93 -32 -100 -20 -153 15 -66 57 -120
116 -146 76 -35 149 -19 229 50 29 25 104 86 167 136 63 49 193 157 289 240
96 82 202 172 235 199 33 27 69 57 79 65 18 15 19 14 12 -39 -32 -254 -246
-807 -410 -1060 -25 -38 -49 -85 -55 -104 -24 -89 45 -176 140 -176 91 0 116
21 206 172 182 306 304 622 390 1002 30 138 36 180 37 296 1 154 -12 206 -67
257 -118 110 -280 55 -594 -202 -18 -15 -33 -24 -33 -21 0 3 37 66 81 139 113
183 146 251 159 328 13 76 4 128 -34 188 -31 48 -53 66 -111 92 -55 24 -183
34 -270 20z"/>
<path d="M4225 3786 c-134 -25 -226 -90 -277 -194 -27 -55 -33 -78 -33 -132 1
-209 172 -365 362 -331 128 24 240 107 306 229 40 73 87 218 87 266 0 50 -28
99 -71 125 -62 38 -265 57 -374 37z m41 -335 c-21 -23 -54 -33 -62 -19 -7 11
16 29 51 39 28 8 31 2 11 -20z"/>
<path d="M3433 3379 c-83 -41 -150 -136 -192 -273 -37 -120 -22 -191 51 -237
29 -18 46 -20 143 -17 96 3 117 7 161 30 64 33 127 104 148 165 44 130 -11
285 -118 334 -56 25 -140 25 -193 -2z"/>
<path d="M4934 2959 c-42 -12 -180 -150 -237 -236 -57 -86 -77 -147 -77 -231
0 -76 21 -131 66 -176 40 -40 83 -56 152 -56 111 0 254 95 311 208 49 97 64
226 36 318 -11 36 -30 64 -73 106 -77 76 -108 87 -178 67z"/>
<path d="M4065 2558 c-87 -31 -156 -132 -157 -230 0 -31 14 -104 35 -175 19
-68 34 -123 33 -123 -2 0 -36 12 -77 26 -107 37 -197 37 -272 1 -150 -74 -225
-252 -184 -437 27 -120 128 -482 142 -509 80 -153 335 -146 417 12 32 62 29
140 -10 257 -18 52 -32 96 -32 99 0 3 15 -9 33 -26 41 -41 112 -73 160 -73 52
0 153 35 207 72 58 39 87 76 116 146 31 75 33 219 5 353 -34 160 -121 462
-146 505 -55 93 -171 137 -270 102z"/>
<path d="M2932 2159 c-130 -23 -323 -105 -477 -203 l-90 -57 -16 55 c-20 65
-60 124 -108 157 -49 33 -157 34 -216 2 -64 -34 -192 -178 -237 -267 -57 -111
23 -245 159 -264 71 -11 69 -34 -5 -61 -166 -60 -264 -219 -278 -450 -12 -205
53 -376 206 -544 119 -130 260 -213 445 -264 87 -23 119 -27 240 -27 124 0
149 3 218 26 144 48 312 171 358 261 44 85 15 213 -58 261 -85 55 -160 44
-255 -40 -35 -30 -92 -69 -128 -87 -57 -28 -74 -32 -145 -31 -106 1 -194 26
-281 80 -138 85 -217 207 -217 333 0 81 22 130 59 131 6 0 27 -24 46 -52 57
-86 136 -156 193 -173 108 -33 218 23 245 126 19 69 -4 142 -67 213 -39 43
-88 142 -98 197 -7 36 -7 36 39 48 25 6 139 60 254 120 209 110 252 130 252
113 0 -22 -73 -289 -95 -347 -13 -36 -52 -119 -86 -183 -54 -104 -60 -122 -56
-163 9 -99 91 -172 192 -171 65 0 102 19 149 73 43 51 154 272 196 394 48 137
100 351 107 435 13 166 -64 295 -205 344 -55 20 -173 27 -240 15z"/>
</g>
</svg>
