<?xml version="1.0" standalone="no"?>
<!DOCTYPE svg PUBLIC "-//W3C//DTD SVG 20010904//EN"
 "http://www.w3.org/TR/2001/REC-SVG-20010904/DTD/svg10.dtd">
<svg version="1.0" xmlns="http://www.w3.org/2000/svg"
 width="600.000000pt" height="600.000000pt" viewBox="0 0 600.000000 600.000000"
 preserveAspectRatio="xMidYMid meet">
<metadata>
Created by potrace 1.15, written by Peter Selinger 2001-2017
</metadata>
<g transform="translate(0.000000,600.000000) scale(0.100000,-0.100000)"
fill="#16364b" stroke="none">
<path d="M1530 5772 c-45 -24 -65 -66 -99 -203 -73 -292 -58 -487 45 -565 47
-36 117 -39 179 -7 74 38 229 221 383 450 56 83 65 108 52 148 -17 50 -52 77
-110 83 -71 7 -98 -17 -200 -169 -47 -70 -96 -140 -108 -156 l-24 -28 7 50 c4
27 23 104 42 170 40 140 39 169 -13 214 -41 37 -100 42 -154 13z"/>
<path d="M829 5536 c-181 -70 -289 -234 -289 -440 0 -158 116 -306 242 -306
87 0 148 85 118 165 -6 17 -34 51 -63 77 -49 44 -52 49 -51 95 1 84 68 163
139 163 14 0 42 -7 62 -15 83 -35 160 -10 183 60 35 105 -74 205 -230 212 -47
2 -88 -2 -111 -11z"/>
<path d="M3385 5431 c-34 -15 -65 -56 -71 -93 -9 -50 17 -93 81 -134 l55 -34
-20 -38 c-11 -20 -20 -46 -20 -57 0 -34 47 -117 91 -163 115 -118 255 -141
344 -58 67 64 65 148 -9 280 -53 95 -133 170 -256 240 -102 58 -157 74 -195
57z"/>
<path d="M2322 5230 c-47 -29 -72 -75 -72 -136 0 -74 -27 -219 -51 -275 -26
-60 -75 -105 -171 -158 -95 -52 -119 -78 -125 -134 -7 -63 18 -111 71 -137 23
-11 49 -20 57 -20 27 0 172 76 236 123 151 113 242 304 258 550 5 78 3 98 -12
127 -38 73 -124 100 -191 60z"/>
<path d="M2959 5152 c-41 -21 -64 -42 -94 -87 -169 -251 -32 -485 227 -386
115 44 138 81 138 225 0 225 -114 330 -271 248z"/>
<path d="M4748 4778 c-47 -41 -51 -62 -50 -223 1 -233 37 -344 141 -437 92
-83 199 -97 304 -41 55 31 92 76 119 147 61 158 -59 361 -302 510 -114 70
-168 82 -212 44z m247 -430 l16 -33 -21 24 c-11 13 -20 27 -20 32 0 18 10 8
25 -23z"/>
<path d="M2740 4177 c-107 -25 -175 -74 -211 -152 -70 -150 49 -312 253 -345
121 -19 243 16 392 114 121 79 149 139 107 233 -23 49 -43 64 -137 96 -157 55
-311 75 -404 54z"/>
<path d="M1075 4083 c-64 -17 -107 -79 -107 -155 1 -97 55 -148 179 -167 98
-15 143 -29 143 -44 -2 -33 -193 -150 -340 -207 -58 -22 -125 -49 -150 -58
-82 -32 -113 -118 -71 -200 30 -58 93 -102 147 -102 39 0 214 65 327 122 97
48 117 52 117 21 0 -29 39 -79 80 -102 56 -31 133 -26 183 12 l35 27 67 -35
c56 -29 77 -35 131 -35 80 0 134 25 169 78 78 118 12 275 -140 332 -51 19 -74
21 -157 18 -54 -3 -98 -5 -98 -4 0 1 9 25 20 54 55 145 -4 288 -151 363 -81
41 -334 95 -384 82z"/>
<path d="M4184 3761 c-119 -34 -205 -114 -234 -217 -19 -64 -9 -180 20 -238
94 -186 344 -209 507 -46 62 62 98 128 123 226 34 133 21 206 -43 249 -66 43
-266 57 -373 26z m124 -283 c-6 -18 -55 -44 -65 -34 -10 9 33 46 54 46 8 0 13
-6 11 -12z"/>
<path d="M5095 3457 c-107 -40 -198 -117 -247 -209 -19 -36 -23 -58 -23 -138
0 -84 3 -101 28 -147 63 -120 143 -173 262 -173 60 0 82 5 133 30 168 84 247
305 169 473 -26 55 -95 136 -143 168 -39 25 -104 24 -179 -4z"/>
<path d="M3432 3373 c-68 -37 -125 -107 -187 -231 -39 -78 -42 -100 -20 -142
34 -66 101 -86 200 -59 89 24 165 118 190 234 20 98 4 162 -50 195 -40 25 -90
26 -133 3z"/>
<path d="M2384 3129 c-116 -36 -190 -129 -264 -329 -58 -158 -102 -217 -210
-282 -103 -62 -265 -200 -334 -286 -155 -193 -229 -387 -229 -602 -1 -277 103
-529 279 -674 204 -168 568 -261 794 -203 204 53 463 246 599 448 171 253 250
518 237 794 -21 418 -58 535 -226 721 -30 34 -82 99 -115 145 -113 159 -197
234 -302 270 -70 24 -150 24 -229 -2z m169 -441 c24 -29 49 -67 56 -85 7 -18
49 -65 94 -105 148 -134 182 -218 181 -458 0 -113 -4 -174 -17 -225 -76 -304
-177 -477 -345 -589 -183 -122 -354 -134 -543 -39 -175 87 -269 236 -269 423
0 151 85 317 236 461 33 30 73 64 89 74 54 35 190 152 239 206 58 65 116 161
161 268 43 101 53 121 65 121 4 0 28 -24 53 -52z"/>
<path d="M711 2532 c-48 -24 -76 -65 -75 -111 2 -54 26 -84 97 -121 153 -81
262 -176 303 -265 54 -115 9 -194 -83 -146 -59 30 -123 107 -182 220 -49 93
-56 101 -96 117 -59 22 -119 4 -152 -45 -32 -47 -29 -78 13 -157 89 -167 197
-290 304 -345 56 -28 78 -33 155 -37 86 -4 93 -3 154 30 47 24 73 46 97 81
113 164 74 388 -97 572 -69 73 -129 116 -256 180 -98 49 -130 54 -182 27z"/>
<path d="M4190 2178 c-49 -25 -90 -77 -90 -116 0 -19 -4 -23 -17 -17 -75 32
-99 36 -134 26 -81 -24 -129 -93 -129 -186 0 -108 80 -427 120 -478 21 -27 95
-67 124 -67 9 0 32 -11 49 -24 116 -85 282 -47 332 77 24 57 28 184 17 452 -7
179 -12 227 -27 258 -40 85 -157 121 -245 75z"/>
</g>
</svg>
