<?xml version="1.0" standalone="no"?>
<!DOCTYPE svg PUBLIC "-//W3C//DTD SVG 20010904//EN"
 "http://www.w3.org/TR/2001/REC-SVG-20010904/DTD/svg10.dtd">
<svg version="1.0" xmlns="http://www.w3.org/2000/svg"
 width="600.000000pt" height="600.000000pt" viewBox="0 0 600.000000 600.000000"
 preserveAspectRatio="xMidYMid meet">
<metadata>
Created by potrace 1.15, written by Peter Selinger 2001-2017
</metadata>
<g transform="translate(0.000000,600.000000) scale(0.100000,-0.100000)"
fill="#16364b" stroke="none">
<path d="M1865 5812 c-39 -25 -44 -31 -103 -142 -252 -476 -294 -580 -271
-665 40 -142 178 -175 356 -85 125 64 200 121 375 285 184 172 196 193 156
273 -26 54 -88 92 -148 92 -39 0 -102 -35 -183 -103 -26 -22 -50 -37 -54 -34
-3 3 18 50 47 104 60 111 65 149 31 209 -31 55 -66 77 -125 81 -38 3 -59 -1
-81 -15z"/>
<path d="M3007 5706 c-116 -43 -141 -168 -49 -246 20 -17 125 -89 232 -159
199 -131 281 -200 338 -282 39 -57 72 -140 72 -179 0 -35 -30 -54 -102 -65
-98 -15 -152 -75 -145 -163 3 -45 9 -59 39 -89 29 -29 46 -37 86 -41 104 -10
251 47 323 125 105 115 115 256 29 440 -113 242 -256 385 -580 582 -145 87
-183 99 -243 77z"/>
<path d="M965 5406 c-155 -38 -305 -162 -355 -294 -74 -193 10 -436 188 -551
115 -73 242 -6 242 127 0 56 -20 93 -85 157 -57 56 -73 96 -61 159 13 67 88
125 164 126 116 1 190 139 124 230 -41 56 -114 71 -217 46z"/>
<path d="M2849 5092 c-52 -34 -90 -81 -127 -160 -22 -47 -27 -70 -27 -137 1
-57 6 -90 19 -115 56 -107 164 -151 321 -130 95 13 142 35 173 81 20 29 23 42
18 89 -4 30 -9 78 -11 105 -20 216 -218 360 -366 267z"/>
<path d="M4752 4880 c-18 -11 -41 -34 -52 -52 -42 -68 -14 -332 48 -471 95
-210 328 -275 486 -137 63 56 81 101 81 205 0 77 -4 98 -27 148 -50 106 -172
212 -338 291 -87 42 -147 47 -198 16z"/>
<path d="M2035 4793 c-48 -7 -126 -34 -176 -60 -93 -50 -123 -135 -76 -216 45
-76 126 -95 232 -54 51 20 62 10 75 -67 12 -72 38 -116 88 -144 105 -59 232
11 232 128 0 58 -32 184 -60 240 -30 60 -98 130 -145 151 -43 19 -122 30 -170
22z"/>
<path d="M2933 4010 c-103 -22 -200 -90 -234 -165 -56 -122 25 -286 177 -363
88 -44 160 -57 329 -57 136 0 154 3 197 23 59 29 88 74 88 135 0 30 8 60 25
88 30 52 31 90 6 145 -23 50 -51 70 -161 117 -163 69 -327 98 -427 77z"/>
<path d="M1130 3994 c-163 -25 -217 -50 -249 -117 -24 -50 -27 -113 -7 -160
28 -69 130 -127 199 -113 39 8 37 5 -75 -145 -196 -260 -359 -541 -418 -723
-50 -152 21 -280 160 -294 68 -6 118 13 175 69 129 125 750 599 785 599 29 0
-35 -312 -105 -513 -43 -123 -244 -473 -367 -639 -58 -79 -72 -118 -58 -169
20 -74 79 -119 155 -119 48 0 86 21 127 69 31 37 283 452 371 611 85 154 187
569 195 793 5 144 -5 196 -49 257 -43 59 -99 85 -185 84 -62 0 -82 -5 -146
-37 -41 -20 -123 -71 -182 -113 -59 -41 -109 -74 -111 -72 -1 1 40 62 91 133
159 219 200 325 169 431 -11 39 -28 68 -58 97 -61 61 -119 77 -271 76 -66 -1
-132 -3 -146 -5z"/>
<path d="M4265 3780 c-173 -24 -302 -118 -336 -244 -51 -191 108 -396 306
-396 174 0 336 163 414 414 17 55 19 76 11 105 -15 56 -62 98 -123 110 -78 15
-205 21 -272 11z m-8 -325 c-26 -23 -47 -26 -47 -6 0 10 40 30 60 30 10 0 5
-9 -13 -24z"/>
<path d="M3425 3387 c-63 -16 -138 -99 -191 -211 -57 -121 -60 -177 -13 -231
48 -55 76 -65 176 -65 135 1 217 48 269 157 49 105 43 214 -18 287 -55 67
-129 88 -223 63z"/>
<path d="M4934 3052 c-70 -46 -190 -170 -226 -234 -65 -116 -75 -219 -32 -307
68 -136 231 -165 390 -70 132 79 210 252 185 408 -12 75 -28 106 -88 169 -80
85 -137 93 -229 34z"/>
<path d="M3903 2604 c-69 -34 -120 -110 -130 -192 -4 -38 3 -73 41 -187 25
-76 44 -140 43 -142 -2 -1 -28 7 -58 19 -164 64 -322 -12 -375 -182 -33 -103
-15 -313 42 -513 35 -126 98 -264 136 -304 49 -50 122 -83 185 -83 169 0 267
154 203 322 -11 28 -18 54 -16 56 2 2 23 -6 47 -18 36 -19 54 -22 113 -17 86
6 151 33 210 87 103 96 112 236 32 490 -26 80 -69 222 -97 315 -28 94 -57 189
-65 211 -18 50 -75 110 -129 135 -50 23 -138 24 -182 3z"/>
<path d="M1975 2207 c-84 -41 -196 -167 -261 -296 -29 -59 -32 -131 -6 -181
l17 -35 -54 -64 c-135 -161 -176 -354 -135 -629 43 -292 154 -474 359 -593
247 -143 500 -174 755 -93 154 49 329 183 400 307 30 52 39 125 22 170 -5 12
20 73 78 190 127 257 240 601 240 733 0 92 -22 152 -76 213 -64 71 -136 103
-244 109 -138 7 -279 -39 -492 -160 -67 -37 -125 -68 -129 -68 -5 0 -11 12
-15 28 -27 119 -71 223 -121 289 -14 18 -47 46 -75 64 -44 29 -61 33 -132 36
-70 4 -88 1 -131 -20z m1009 -629 c-34 -104 -146 -365 -201 -468 -59 -110 -69
-160 -50 -237 8 -30 5 -37 -44 -88 -34 -36 -76 -67 -118 -87 -59 -29 -78 -33
-172 -36 -168 -6 -293 41 -392 148 -75 80 -92 141 -92 325 0 126 2 145 24 193
26 57 137 166 145 140 2 -7 11 -42 20 -76 16 -61 51 -139 78 -173 67 -84 220
-76 296 16 31 39 57 121 46 149 -7 17 42 50 205 142 117 66 264 128 269 114 2
-6 -4 -34 -14 -62z"/>
</g>
</svg>
