<?xml version="1.0" standalone="no"?>
<!DOCTYPE svg PUBLIC "-//W3C//DTD SVG 20010904//EN"
 "http://www.w3.org/TR/2001/REC-SVG-20010904/DTD/svg10.dtd">
<svg version="1.0" xmlns="http://www.w3.org/2000/svg"
 width="600.000000pt" height="600.000000pt" viewBox="0 0 600.000000 600.000000"
 preserveAspectRatio="xMidYMid meet">
<metadata>
Created by potrace 1.15, written by Peter Selinger 2001-2017
</metadata>
<g transform="translate(0.000000,600.000000) scale(0.100000,-0.100000)"
fill="#16364b" stroke="none">
<path d="M1985 4951 c-99 -26 -180 -92 -220 -178 -21 -43 -26 -69 -26 -126 0
-40 5 -86 11 -101 23 -62 50 -223 76 -461 22 -192 31 -1072 15 -1354 l-12
-204 -44 -88 c-25 -48 -61 -127 -81 -176 -44 -105 -146 -414 -139 -421 3 -3
-3 -11 -13 -18 -16 -11 -16 -13 0 -31 12 -13 14 -23 7 -36 -15 -25 -2 -37 31
-30 26 5 30 2 30 -16 0 -11 6 -21 14 -21 21 0 89 97 82 116 -3 8 -1 24 4 35 6
10 29 79 51 152 59 191 62 195 78 100 28 -168 82 -335 162 -500 104 -213 238
-329 424 -368 39 -8 81 -15 94 -15 21 0 23 -3 17 -33 -3 -17 -9 -86 -12 -152
-7 -151 12 -275 67 -438 22 -65 37 -122 34 -127 -4 -6 -40 -10 -81 -10 -94 0
-138 -18 -160 -64 -15 -31 -16 -39 -3 -73 20 -54 84 -87 154 -78 108 12 205
68 240 136 23 44 18 110 -16 194 -50 125 -70 219 -76 355 -5 118 7 247 26 278
6 9 69 9 297 -3 159 -8 378 -15 488 -15 l199 0 -7 -32 c-27 -133 -12 -266 59
-513 31 -107 40 -152 32 -157 -6 -4 -30 -4 -53 -1 -135 18 -227 -52 -189 -144
24 -56 105 -81 207 -63 133 24 208 96 208 197 0 20 -16 86 -36 147 -80 246
-106 437 -76 542 l12 42 213 40 c116 22 241 45 276 51 154 25 264 112 337 266
69 146 89 235 88 400 0 101 -5 158 -18 204 -37 135 -111 264 -210 366 -30 30
-49 55 -43 55 7 0 54 -14 104 -31 61 -20 93 -36 93 -45 0 -12 16 -14 83 -12
l82 3 1 30 c0 17 4 44 8 62 7 30 6 31 -43 48 -28 9 -51 23 -51 30 0 16 -25 26
-36 15 -5 -5 -108 22 -234 61 -124 38 -286 86 -360 105 -118 31 -147 43 -225
94 -49 31 -168 99 -263 149 -259 138 -295 161 -502 327 -137 110 -270 244
-330 334 -59 87 -425 821 -470 941 -43 118 -120 209 -204 244 -44 18 -132 27
-171 16z m111 -160 c23 -10 53 -34 67 -53 30 -39 71 -128 81 -175 4 -18 11
-35 14 -37 4 -2 101 -191 216 -419 124 -247 229 -442 259 -483 102 -138 349
-362 542 -491 33 -22 164 -97 290 -168 127 -70 257 -146 290 -169 33 -23 147
-93 253 -155 238 -140 296 -182 367 -268 110 -133 152 -266 142 -453 -12 -221
-96 -398 -220 -462 -36 -18 -171 -46 -466 -98 -174 -31 -330 -34 -741 -15
-206 10 -439 16 -517 15 -165 -2 -235 10 -316 53 -89 47 -158 130 -227 272
-105 218 -142 372 -144 605 0 80 5 338 11 574 24 808 -8 1402 -93 1721 -13 50
-14 69 -4 105 13 49 65 106 102 113 42 8 53 7 94 -12z m-459 -2997 c-3 -3 -12
-4 -19 -1 -8 3 -5 6 6 6 11 1 17 -2 13 -5z"/>
<path d="M2601 2721 c-12 -12 -21 -30 -21 -41 0 -32 44 -70 80 -70 26 0 33 6
46 37 15 34 14 38 -4 62 -25 34 -73 40 -101 12z"/>
<path d="M3066 2566 c-33 -33 -33 -51 3 -87 41 -41 75 -38 100 8 24 47 5 84
-51 98 -21 5 -33 1 -52 -19z"/>
<path d="M5241 3970 c-29 -11 -63 -26 -75 -33 -152 -101 -174 -334 -46 -496
52 -65 141 -111 217 -111 105 0 229 59 292 139 54 68 71 117 71 208 0 130 -51
218 -165 282 -50 29 -62 31 -147 31 -66 -1 -109 -6 -147 -20z m159 -290 c19
-12 2 -43 -25 -49 -19 -3 -45 23 -45 46 0 15 48 17 70 3z"/>
<path d="M5347 1100 c-14 -11 -35 -45 -46 -76 -36 -94 -24 -172 30 -200 38
-19 58 -18 97 6 80 49 109 244 41 280 -31 17 -94 12 -122 -10z"/>
</g>
</svg>
