<?xml version="1.0" standalone="no"?>
<!DOCTYPE svg PUBLIC "-//W3C//DTD SVG 20010904//EN"
 "http://www.w3.org/TR/2001/REC-SVG-20010904/DTD/svg10.dtd">
<svg version="1.0" xmlns="http://www.w3.org/2000/svg"
 width="600.000000pt" height="600.000000pt" viewBox="0 0 600.000000 600.000000"
 preserveAspectRatio="xMidYMid meet">
<metadata>
Created by potrace 1.15, written by Peter Selinger 2001-2017
</metadata>
<g transform="translate(0.000000,600.000000) scale(0.100000,-0.100000)"
fill="#16364b" stroke="none">
<path d="M2100 5265 c-102 -33 -191 -134 -227 -255 -14 -49 -15 -85 -4 -325
22 -522 27 -751 20 -870 -4 -66 -12 -300 -18 -520 -6 -220 -13 -423 -17 -451
-7 -59 8 -51 -206 -113 -137 -40 -400 -101 -435 -101 -12 0 -26 13 -36 35 -26
55 -59 38 -38 -18 6 -15 9 -27 6 -27 -2 0 -26 13 -52 30 -26 16 -51 30 -55 30
-21 0 -18 -32 6 -63 14 -19 23 -37 19 -40 -3 -4 -24 -7 -45 -7 -32 0 -39 -3
-36 -17 2 -11 18 -22 41 -27 45 -11 46 -18 7 -33 -17 -6 -30 -19 -30 -28 0
-15 8 -17 68 -10 186 18 509 82 702 139 47 13 86 23 88 21 2 -1 4 -144 6 -316
3 -278 6 -326 25 -418 39 -186 109 -320 231 -442 62 -62 93 -84 180 -126 58
-28 139 -61 180 -73 l76 -22 0 -191 c0 -210 10 -275 65 -454 18 -57 30 -106
26 -109 -3 -4 -44 -7 -89 -8 -117 -3 -158 -35 -158 -122 0 -78 90 -119 208
-95 121 24 200 90 209 175 4 36 -2 66 -35 153 -59 157 -76 252 -77 418 0 77 4
157 8 179 8 38 8 38 45 30 20 -5 240 -8 488 -6 l451 2 -5 -138 c-5 -159 11
-282 59 -443 42 -144 44 -139 -46 -139 -119 0 -175 -35 -175 -108 0 -159 357
-113 421 55 15 39 11 61 -30 198 -66 221 -91 389 -71 495 14 78 23 90 65 90
59 0 371 49 421 66 152 51 261 177 329 378 52 156 53 484 1 689 -45 177 -125
307 -278 454 l-65 62 51 5 c28 3 98 8 156 11 58 4 157 15 220 26 63 11 124 20
135 20 11 1 55 17 98 37 54 25 77 41 77 54 0 10 -4 18 -9 18 -5 0 -7 9 -4 21
4 14 0 22 -14 25 -15 4 -19 12 -15 30 5 28 -10 31 -48 9 -35 -20 -48 -18 -52
8 -4 32 -22 27 -33 -11 -7 -25 -17 -34 -45 -42 -94 -25 -187 -33 -437 -37
l-273 -5 -57 49 c-201 172 -358 282 -683 478 -221 133 -279 176 -366 267 -104
108 -141 175 -238 432 -68 177 -99 279 -131 429 -67 314 -98 389 -201 487
-108 104 -238 143 -354 105z m203 -181 c74 -52 128 -150 156 -285 24 -112 116
-446 152 -554 88 -257 170 -397 329 -555 116 -116 201 -178 457 -329 202 -120
278 -175 472 -342 80 -68 191 -161 247 -207 135 -109 267 -241 315 -314 39
-61 77 -162 104 -278 20 -88 20 -379 0 -475 -32 -152 -115 -273 -219 -321 -64
-29 -313 -71 -496 -83 -158 -11 -957 3 -1104 18 -440 47 -635 242 -691 691
-20 165 -22 728 -5 1320 17 549 16 1172 -1 1410 -13 178 -7 219 44 277 42 48
81 64 145 60 38 -3 64 -12 95 -33z"/>
<path d="M2616 2816 c-15 -14 -26 -32 -26 -41 0 -21 54 -75 74 -75 28 0 56 38
56 74 0 37 -12 51 -52 61 -21 5 -33 1 -52 -19z"/>
<path d="M3114 2725 c-14 -21 -15 -31 -6 -50 10 -22 66 -65 84 -65 17 0 48 46
48 72 0 64 -92 95 -126 43z"/>
<path d="M3025 1830 c-22 -4 -55 -5 -72 -3 -41 7 -63 -10 -63 -48 0 -42 33
-52 144 -43 90 7 126 23 126 58 0 41 -46 53 -135 36z"/>
<path d="M5257 3980 c-99 -25 -172 -83 -209 -168 -70 -156 12 -381 166 -459
45 -23 59 -25 137 -21 72 3 97 9 152 36 92 46 157 119 187 211 49 154 -7 266
-183 365 -58 32 -79 38 -140 41 -40 3 -89 0 -110 -5z m123 -300 c12 -7 12 -13
4 -27 -22 -36 -74 -23 -74 18 0 14 7 19 28 19 15 0 34 -5 42 -10z"/>
</g>
</svg>
