<?xml version="1.0" standalone="no"?>
<!DOCTYPE svg PUBLIC "-//W3C//DTD SVG 20010904//EN"
 "http://www.w3.org/TR/2001/REC-SVG-20010904/DTD/svg10.dtd">
<svg version="1.0" xmlns="http://www.w3.org/2000/svg"
 width="600.000000pt" height="600.000000pt" viewBox="0 0 600.000000 600.000000"
 preserveAspectRatio="xMidYMid meet">
<metadata>
Created by potrace 1.15, written by Peter Selinger 2001-2017
</metadata>
<g transform="translate(0.000000,600.000000) scale(0.100000,-0.100000)"
fill="#16364b" stroke="none">
<path d="M2172 5279 c-126 -21 -242 -109 -282 -216 -25 -65 -27 -117 -12 -363
10 -174 -3 -1249 -19 -1617 -8 -174 -16 -266 -24 -273 -20 -17 -289 -80 -426
-100 -185 -27 -185 -27 -199 15 -8 25 -17 35 -32 35 -18 0 -20 -5 -15 -35 3
-19 3 -35 -1 -35 -4 0 -25 14 -46 30 -66 50 -94 33 -52 -30 29 -44 22 -55 -28
-46 -24 5 -37 2 -46 -10 -17 -19 -3 -30 48 -40 41 -8 41 -19 0 -30 -19 -6 -34
-17 -36 -28 -4 -18 2 -18 89 -13 224 14 457 47 622 88 65 16 122 29 126 29 4
0 12 -123 19 -272 25 -610 134 -900 395 -1056 67 -40 174 -78 248 -87 l54 -7
1 -161 c0 -183 19 -291 80 -474 19 -58 33 -108 29 -111 -3 -3 -47 -9 -98 -12
-50 -3 -102 -12 -114 -18 -56 -31 -71 -105 -29 -147 67 -67 296 -32 370 56 14
16 31 49 37 72 10 38 7 52 -34 177 -68 203 -90 314 -91 455 0 144 9 171 57
161 18 -4 84 -11 147 -16 63 -6 171 -18 240 -27 85 -12 194 -17 343 -18 l217
0 -7 -45 c-15 -89 -5 -194 38 -395 23 -110 43 -211 43 -225 1 -24 -1 -25 -84
-30 -92 -6 -129 -22 -148 -66 -36 -77 24 -154 120 -154 63 0 147 32 193 72 81
71 95 126 65 244 -51 196 -80 361 -80 461 0 81 18 173 34 173 36 0 397 52 426
62 119 38 233 140 297 264 79 154 105 272 107 484 1 125 -2 156 -22 224 -75
252 -161 412 -301 559 -30 31 -52 59 -49 62 3 3 56 10 119 16 153 13 221 24
323 54 48 14 96 25 109 25 30 0 177 87 177 104 0 8 -7 17 -16 20 -13 5 -14 9
-4 21 15 18 5 35 -21 35 -20 0 -26 15 -9 25 15 9 12 25 -5 31 -8 3 -28 -4 -44
-15 -38 -27 -51 -26 -51 4 0 34 -28 32 -36 -2 -3 -16 -7 -33 -9 -39 -4 -12
-87 -43 -186 -68 -93 -25 -215 -36 -379 -36 l-156 0 -118 89 c-64 49 -181 128
-259 177 -590 365 -759 513 -920 804 -61 112 -106 234 -146 402 -138 572 -189
688 -334 757 -71 33 -129 42 -205 30z m151 -169 c44 -30 94 -106 117 -178 56
-176 83 -273 115 -417 48 -221 68 -281 135 -423 103 -216 198 -354 322 -466
87 -79 351 -269 496 -358 361 -219 612 -416 793 -622 114 -130 150 -192 207
-361 l47 -140 -1 -160 c-2 -245 -41 -379 -142 -487 -54 -58 -114 -91 -192
-107 -30 -6 -172 -26 -315 -43 -341 -43 -573 -41 -1050 7 -27 3 -113 7 -190 8
-214 5 -322 43 -426 149 -138 140 -201 373 -229 848 -20 332 -22 444 -11 555
28 257 47 1673 27 1936 -10 129 -2 168 42 221 59 70 181 89 255 38z"/>
<path d="M2622 2814 c-33 -23 -29 -66 9 -98 36 -31 50 -32 72 -8 30 33 31 69
3 96 -29 30 -52 33 -84 10z"/>
<path d="M3107 2722 c-25 -28 -20 -57 14 -86 38 -32 53 -33 84 -1 30 29 32 65
7 88 -25 23 -85 22 -105 -1z"/>
<path d="M2894 1853 c-30 -31 -8 -65 54 -83 52 -14 215 -13 230 2 19 19 14 56
-10 72 -34 21 -254 28 -274 9z"/>
<path d="M5220 3977 c-160 -45 -234 -193 -186 -373 43 -162 155 -262 302 -272
170 -11 326 87 369 231 20 67 19 113 -4 186 -27 88 -76 149 -158 195 -65 38
-72 39 -173 43 -65 1 -122 -2 -150 -10z m182 -293 c13 -9 -5 -36 -31 -45 -20
-8 -28 -7 -38 7 -7 10 -13 26 -13 37 0 17 5 18 37 12 21 -4 41 -9 45 -11z"/>
</g>
</svg>
