<?xml version="1.0" standalone="no"?>
<!DOCTYPE svg PUBLIC "-//W3C//DTD SVG 20010904//EN"
 "http://www.w3.org/TR/2001/REC-SVG-20010904/DTD/svg10.dtd">
<svg version="1.0" xmlns="http://www.w3.org/2000/svg"
 width="600.000000pt" height="600.000000pt" viewBox="0 0 600.000000 600.000000"
 preserveAspectRatio="xMidYMid meet">
<metadata>
Created by potrace 1.15, written by Peter Selinger 2001-2017
</metadata>
<g transform="translate(0.000000,600.000000) scale(0.100000,-0.100000)"
fill="#16364b" stroke="none">
<path d="M3544 5255 c-10 -16 -14 -36 -11 -53 9 -44 77 -152 132 -209 55 -56
93 -72 132 -54 24 11 25 16 21 65 -4 44 -14 68 -62 140 -32 47 -74 97 -94 111
-49 33 -96 33 -118 0z m176 -188 c14 -24 17 -37 9 -31 -30 18 -109 126 -108
149 0 15 74 -72 99 -118z"/>
<path d="M3025 5094 c-63 -33 -102 -86 -135 -185 -27 -80 -21 -139 17 -169 35
-28 62 -25 116 11 91 60 177 185 177 257 0 50 -54 102 -106 102 -22 0 -52 -7
-69 -16z m85 -88 c0 -42 -30 -97 -80 -147 -54 -54 -80 -62 -80 -26 0 78 80
197 133 197 22 0 27 -5 27 -24z"/>
<path d="M4766 4727 c-21 -21 -23 -35 -29 -155 -4 -73 -10 -190 -13 -260 -4
-71 -4 -150 0 -176 13 -87 83 -124 141 -73 38 33 48 121 42 362 -6 223 -14
270 -52 303 -33 28 -60 28 -89 -1z"/>
<path d="M1580 4215 c-46 -21 -97 -70 -123 -120 -16 -30 -21 -58 -22 -115 0
-94 23 -145 101 -221 94 -91 132 -202 198 -578 65 -370 80 -520 96 -956 6
-174 14 -269 29 -346 62 -311 174 -490 373 -590 62 -31 204 -74 278 -84 l45
-5 0 -198 c0 -214 9 -279 56 -422 39 -116 39 -120 -13 -121 -134 -1 -198 -40
-198 -118 0 -109 142 -143 289 -70 68 34 106 73 120 124 11 40 3 78 -32 162
-62 146 -72 202 -72 415 0 118 4 201 10 207 6 6 189 11 485 13 l475 3 -3 -25
c-2 -14 -4 -79 -5 -145 -2 -178 23 -258 117 -379 25 -33 46 -63 46 -68 0 -4
-28 -8 -63 -8 -117 0 -177 -34 -177 -100 0 -70 55 -110 153 -110 167 0 291
115 257 239 -6 22 -39 79 -74 128 -87 121 -87 123 -93 234 -7 111 16 229 44
229 153 0 512 87 697 168 160 71 316 241 384 420 24 62 26 80 26 227 1 159 0
161 -36 263 -65 184 -145 285 -277 350 -74 36 -77 37 -195 37 -109 0 -132 -4
-231 -34 -99 -30 -125 -34 -266 -38 l-155 -5 -215 46 c-263 58 -340 79 -430
117 -129 55 -265 149 -383 266 -84 82 -157 180 -469 628 -80 116 -170 238
-199 271 -80 93 -268 259 -329 290 -67 34 -166 42 -219 19z m153 -181 c18 -9
59 -42 92 -73 33 -31 79 -72 102 -91 73 -63 180 -205 438 -585 209 -307 312
-423 486 -547 200 -143 309 -185 709 -273 63 -13 131 -30 150 -36 55 -17 316
-23 411 -10 45 7 132 28 192 47 261 82 397 14 480 -240 38 -117 41 -263 8
-366 -47 -148 -155 -275 -286 -336 -80 -38 -324 -115 -436 -138 -136 -28 -269
-38 -409 -32 -74 3 -353 7 -620 7 -560 1 -606 5 -737 69 -130 64 -209 168
-261 345 -40 132 -53 252 -62 550 -15 494 -22 556 -106 947 -90 419 -112 481
-207 585 -81 87 -94 124 -61 171 19 27 70 30 117 6z"/>
<path d="M2423 2526 c-24 -21 -26 -27 -18 -52 22 -61 101 -71 125 -15 13 33 2
64 -30 81 -29 15 -46 12 -77 -14z"/>
<path d="M2913 2220 c-44 -18 -38 -73 12 -106 31 -20 60 -11 75 26 15 37 5 69
-27 81 -28 11 -31 11 -60 -1z"/>
<path d="M2654 4221 c-56 -24 -71 -100 -29 -150 44 -51 276 -130 383 -131 46
0 58 4 83 29 33 33 39 82 14 116 -9 10 -50 31 -93 46 -42 15 -116 41 -164 58
-96 35 -162 45 -194 32z"/>
<path d="M5229 3967 c-158 -54 -232 -182 -199 -342 25 -122 100 -225 198 -271
50 -24 65 -26 141 -22 140 7 222 63 284 196 39 83 48 185 23 260 -24 70 -83
134 -159 171 -55 27 -74 31 -143 31 -55 0 -99 -7 -145 -23z m159 -272 c11 -11
-15 -40 -38 -43 -25 -4 -40 12 -40 42 0 16 5 18 36 13 20 -3 39 -9 42 -12z"/>
<path d="M4189 3747 c-88 -33 -174 -112 -212 -195 -29 -64 -30 -180 -2 -237
49 -100 143 -155 261 -155 159 0 288 114 310 272 8 58 -19 185 -49 229 -36 53
-117 92 -201 96 -44 2 -85 -2 -107 -10z m81 -282 c0 -28 -36 -53 -53 -36 -7 7
-5 18 7 35 21 33 46 34 46 1z"/>
<path d="M494 2002 c-17 -11 -22 -35 -13 -54 5 -9 61 -47 125 -84 90 -52 126
-68 158 -68 38 -1 41 1 44 29 3 35 6 33 -163 122 -122 64 -132 68 -151 55z"/>
<path d="M5321 1104 c-59 -75 -68 -206 -17 -251 33 -28 100 -31 132 -5 46 36
71 121 59 197 -9 63 -35 85 -101 85 -44 0 -56 -4 -73 -26z"/>
</g>
</svg>
