<?xml version="1.0" standalone="no"?>
<!DOCTYPE svg PUBLIC "-//W3C//DTD SVG 20010904//EN"
 "http://www.w3.org/TR/2001/REC-SVG-20010904/DTD/svg10.dtd">
<svg version="1.0" xmlns="http://www.w3.org/2000/svg"
 width="600.000000pt" height="600.000000pt" viewBox="0 0 600.000000 600.000000"
 preserveAspectRatio="xMidYMid meet">
<metadata>
Created by potrace 1.15, written by Peter Selinger 2001-2017
</metadata>
<g transform="translate(0.000000,600.000000) scale(0.100000,-0.100000)"
fill="#16364b" stroke="none">
<path d="M2983 5620 c-74 -17 -103 -57 -161 -221 -63 -178 -51 -300 36 -391
63 -65 130 -88 281 -97 l114 -6 -119 -90 c-222 -168 -467 -403 -484 -465 -15
-57 3 -101 64 -157 59 -54 87 -65 391 -143 88 -23 238 -64 334 -92 161 -46
177 -49 214 -38 114 34 143 176 51 246 -44 34 -276 111 -483 161 -88 21 -161
41 -161 45 0 20 125 121 341 276 200 143 251 189 285 258 22 45 26 64 22 112
-5 69 -26 101 -88 135 -75 41 -117 49 -317 56 -106 4 -195 10 -198 13 -4 3 15
52 41 108 41 90 46 108 40 148 -13 98 -107 164 -203 142z"/>
<path d="M1550 5341 c-75 -23 -184 -104 -265 -198 -292 -333 -437 -627 -368
-745 46 -78 107 -92 250 -55 109 29 235 52 332 62 l63 6 -6 -28 c-4 -15 -41
-95 -81 -178 -85 -172 -105 -228 -105 -289 0 -28 -6 -48 -17 -57 -9 -8 -22
-28 -30 -46 -40 -98 20 -209 125 -229 86 -16 604 224 663 308 30 41 36 106 14
152 -24 51 -68 79 -131 84 -47 4 -60 0 -137 -42 -47 -25 -90 -46 -96 -46 -5 0
19 60 55 134 89 183 101 272 53 381 -22 49 -79 106 -138 135 -71 35 -205 41
-366 15 l-49 -8 18 29 c76 118 207 260 298 320 107 71 131 130 88 213 -31 61
-111 100 -170 82z"/>
<path d="M4530 4526 c-92 -24 -322 -107 -382 -137 -73 -37 -102 -106 -74 -174
20 -47 48 -72 98 -87 36 -11 51 -8 205 45 92 31 169 54 171 52 7 -7 -130 -242
-235 -403 -124 -190 -126 -195 -121 -254 4 -39 12 -57 39 -84 18 -19 38 -34
45 -34 6 0 19 -11 27 -24 30 -45 96 -62 396 -96 51 -6 115 -15 142 -21 l49
-11 -106 -206 c-59 -114 -124 -237 -145 -274 -52 -90 -54 -145 -6 -193 58 -58
152 -56 214 5 61 60 296 484 327 589 44 152 -7 271 -140 331 -68 30 -111 39
-292 66 -91 13 -167 25 -169 28 -2 2 11 28 30 57 63 100 223 384 251 447 34
77 45 181 26 248 -9 30 -29 63 -54 90 -67 69 -148 80 -296 40z"/>
<path d="M3776 3656 c-92 -34 -131 -93 -131 -196 0 -98 46 -163 126 -176 31
-5 63 4 122 34 17 9 5 -87 -17 -134 -23 -49 -25 -51 -92 -69 -138 -37 -288
-134 -345 -223 -26 -41 -30 -54 -26 -100 3 -43 10 -59 36 -86 32 -33 104 -61
133 -52 7 2 26 7 41 10 15 4 55 33 87 65 70 70 117 89 250 101 149 14 194 54
196 173 1 40 9 94 18 121 35 106 16 252 -49 361 -82 141 -232 214 -349 171z"/>
<path d="M2506 3574 c-179 -35 -383 -123 -423 -183 -54 -80 -33 -178 47 -218
24 -13 55 -23 69 -23 14 0 73 23 132 50 58 28 145 60 193 72 79 19 88 20 102
6 14 -14 14 -24 4 -74 -19 -89 -64 -211 -146 -395 -79 -178 -85 -208 -55 -274
11 -26 15 -48 10 -60 -16 -42 -10 -146 12 -184 52 -92 130 -103 292 -42 93 36
281 91 308 91 13 0 -37 -131 -87 -232 -51 -101 -57 -163 -25 -226 34 -66 104
-112 169 -112 39 0 126 45 156 81 34 40 120 194 150 269 55 134 72 310 39 406
-70 208 -256 265 -569 174 -54 -16 -101 -27 -103 -25 -2 2 24 64 57 137 121
268 153 411 118 532 -36 124 -112 200 -233 231 -69 18 -125 18 -217 -1z"/>
<path d="M1155 3330 c-69 -10 -136 -46 -247 -134 -79 -63 -99 -84 -118 -127
-36 -85 -13 -163 64 -216 30 -22 53 -28 106 -31 40 -3 76 1 90 8 12 6 24 9 28
6 3 -3 -13 -104 -36 -223 -78 -406 -104 -701 -69 -769 34 -65 84 -94 186 -105
93 -11 137 0 178 43 38 40 139 192 262 394 89 146 246 364 267 371 5 2 18 -19
28 -47 26 -73 13 -179 -76 -635 -16 -81 -22 -149 -22 -255 -1 -131 1 -149 21
-187 33 -61 76 -88 143 -88 65 0 109 26 134 80 14 28 16 53 10 137 -7 117 1
171 73 508 43 199 46 226 47 360 0 112 -4 156 -18 195 -9 28 -26 85 -36 127
-46 182 -120 256 -250 246 -72 -6 -115 -27 -180 -91 -52 -50 -205 -250 -285
-371 -22 -32 -41 -54 -42 -49 -2 5 10 76 27 158 69 341 57 508 -43 613 -63 66
-150 96 -242 82z"/>
<path d="M4705 2359 c-81 -43 -145 -130 -145 -197 l0 -29 -182 -6 c-203 -6
-275 -20 -377 -70 -85 -41 -150 -106 -189 -188 -42 -90 -53 -151 -61 -327 l-6
-152 -55 45 c-196 163 -391 176 -590 40 -157 -106 -281 -272 -355 -475 -15
-41 -31 -79 -35 -83 -9 -10 -53 142 -80 277 -50 252 -108 408 -167 453 -66 50
-167 59 -227 20 -82 -54 -102 -140 -63 -268 34 -111 49 -171 92 -373 62 -287
106 -397 194 -479 73 -68 142 -90 268 -85 87 4 110 9 160 34 74 37 122 105
158 224 58 190 103 282 185 380 23 27 57 59 77 71 l35 22 42 -20 c22 -11 65
-40 95 -64 215 -175 268 -202 391 -202 134 -1 216 58 294 213 53 106 54 113
42 340 -8 143 -7 157 9 170 14 12 66 16 244 21 153 5 243 12 277 22 194 56
304 209 304 422 0 132 -45 222 -133 264 -59 28 -148 28 -202 0z"/>
</g>
</svg>
