<?xml version="1.0" standalone="no"?>
<!DOCTYPE svg PUBLIC "-//W3C//DTD SVG 20010904//EN"
 "http://www.w3.org/TR/2001/REC-SVG-20010904/DTD/svg10.dtd">
<svg version="1.0" xmlns="http://www.w3.org/2000/svg"
 width="600.000000pt" height="600.000000pt" viewBox="0 0 600.000000 600.000000"
 preserveAspectRatio="xMidYMid meet">
<metadata>
Created by potrace 1.15, written by Peter Selinger 2001-2017
</metadata>
<g transform="translate(0.000000,600.000000) scale(0.100000,-0.100000)"
fill="#16364b" stroke="none">
<path d="M2261 5453 c-27 -13 -42 -34 -70 -93 -33 -71 -35 -81 -36 -182 0
-102 1 -108 30 -150 21 -30 48 -52 90 -73 53 -27 70 -30 145 -29 47 0 125 6
173 13 48 7 90 11 93 9 4 -4 -164 -342 -231 -463 -18 -33 -54 -102 -80 -154
-41 -81 -47 -100 -42 -138 3 -30 14 -54 32 -73 22 -23 25 -31 16 -48 -16 -30
-13 -90 6 -122 22 -38 82 -70 130 -70 39 0 175 27 373 74 134 31 203 44 369
66 130 17 135 19 169 53 28 28 36 45 40 85 8 85 -35 144 -116 163 -58 13 -586
-79 -698 -121 -19 -8 -24 -6 -24 5 0 19 116 243 210 406 141 243 179 315 195
373 32 110 1 186 -95 234 -46 23 -70 27 -155 30 -55 2 -149 -3 -210 -11 -60
-8 -111 -13 -113 -12 -2 2 4 25 14 53 17 47 17 51 0 95 -30 80 -137 120 -215
80z"/>
<path d="M3850 5062 c-128 -43 -225 -108 -252 -169 -45 -102 36 -215 155 -216
42 0 63 7 112 36 74 44 137 62 165 47 17 -9 20 -21 20 -76 0 -88 -12 -133 -82
-311 -50 -126 -59 -157 -54 -187 14 -74 99 -136 167 -122 l29 6 0 -54 c0 -65
28 -113 83 -139 36 -18 40 -18 174 2 196 29 295 36 321 22 45 -24 24 -198 -50
-422 -41 -126 -42 -130 -28 -171 30 -85 129 -114 216 -63 51 30 78 81 124 235
80 272 82 492 3 598 -40 53 -64 73 -132 105 -109 52 -270 50 -528 -7 -57 -13
-103 -22 -103 -21 0 1 23 60 51 130 61 153 88 254 95 355 14 181 -74 350 -215
413 -65 29 -197 33 -271 9z"/>
<path d="M1764 4945 c-191 -34 -376 -113 -507 -215 -131 -103 -153 -196 -69
-295 15 -18 34 -46 44 -63 26 -49 60 -63 206 -88 241 -41 346 -75 440 -146 39
-29 51 -33 107 -33 71 0 103 17 143 75 45 67 24 140 -64 219 -77 69 -173 114
-314 150 l-115 29 68 31 c63 30 110 43 199 56 42 7 92 44 113 86 21 39 19 108
-4 145 -37 61 -106 75 -247 49z"/>
<path d="M2165 3942 c-11 -2 -79 -23 -151 -47 -179 -60 -279 -84 -384 -94 -57
-5 -100 -15 -121 -27 -93 -54 -96 -191 -6 -258 64 -47 278 -29 524 44 243 73
313 121 313 217 0 99 -87 182 -175 165z"/>
<path d="M3695 3716 c-156 -53 -530 -228 -571 -267 -65 -63 -64 -161 2 -218
29 -26 43 -31 84 -31 44 0 78 14 260 105 115 58 212 105 215 105 12 0 1 -30
-65 -179 -76 -170 -81 -200 -51 -268 21 -45 54 -72 110 -89 l36 -11 -60 -12
c-133 -27 -182 -60 -206 -140 -24 -80 24 -170 101 -191 61 -17 183 13 360 87
276 115 486 264 520 369 40 119 -88 238 -207 193 -15 -5 -55 -36 -88 -68 -67
-64 -144 -113 -268 -171 -92 -43 -115 -50 -80 -22 26 20 130 245 173 374 117
347 8 525 -265 434z"/>
<path d="M2205 3301 c-169 -24 -193 -35 -234 -101 -37 -62 -22 -142 38 -193
45 -37 86 -42 224 -23 67 9 150 16 185 16 72 0 75 -6 42 -92 -11 -29 -20 -75
-20 -102 0 -43 4 -53 38 -86 48 -48 96 -59 156 -36 59 23 83 51 113 137 34 97
42 226 19 296 -26 79 -69 128 -143 165 -60 29 -74 32 -177 34 -69 2 -160 -4
-241 -15z"/>
<path d="M4925 3141 c-74 -18 -129 -63 -169 -136 -18 -34 -21 -57 -21 -150 l0
-110 -62 -40 c-35 -22 -93 -58 -129 -80 -208 -124 -296 -290 -298 -555 0 -127
14 -190 66 -294 67 -135 138 -190 243 -190 194 0 306 237 185 391 -39 49 -22
180 29 221 9 7 68 48 131 91 229 157 310 286 310 492 0 199 -61 318 -183 354
-55 16 -58 16 -102 6z"/>
<path d="M1172 3039 c-67 -34 -87 -70 -87 -160 0 -68 3 -79 28 -113 16 -20 47
-48 69 -62 l40 -25 -7 -217 c-8 -244 2 -375 40 -517 47 -181 106 -270 192
-294 51 -15 73 -14 124 4 112 40 158 146 109 253 -10 23 -23 58 -29 76 l-9 34
46 -24 c58 -31 124 -32 168 -2 17 12 54 60 82 107 50 85 135 191 153 191 5 0
15 -12 21 -27 7 -16 20 -40 30 -54 17 -26 17 -30 -7 -145 -31 -145 -49 -360
-40 -470 6 -71 10 -86 38 -119 75 -91 196 -84 248 15 16 28 19 57 19 155 0
136 12 244 42 390 22 109 20 160 -10 202 -10 15 -22 52 -25 82 -8 67 -53 166
-101 219 -111 123 -298 107 -446 -39 -50 -49 -154 -180 -222 -279 -16 -24 -17
-15 -18 200 -1 258 -13 346 -61 451 -38 83 -105 149 -176 173 -67 23 -158 21
-211 -5z"/>
<path d="M3450 2263 c-69 -8 -543 -94 -660 -119 -125 -27 -180 -84 -180 -187
0 -34 7 -74 16 -93 22 -47 75 -91 126 -105 46 -12 79 -7 523 86 94 19 206 38
251 41 l81 7 22 -46 c63 -131 244 -142 321 -20 37 57 45 122 25 195 -27 105
-82 169 -185 217 -49 22 -69 25 -180 27 -69 1 -141 0 -160 -3z"/>
<path d="M4425 1543 c-16 -9 -53 -38 -82 -64 -42 -40 -59 -49 -90 -50 -21 -1
-119 -2 -218 -3 -216 -2 -276 -14 -420 -86 -129 -65 -257 -160 -371 -276 -61
-61 -102 -94 -122 -99 -17 -3 -59 -29 -94 -57 -142 -115 -237 -120 -391 -22
-82 53 -182 154 -242 244 -52 78 -68 94 -118 115 -138 57 -280 -64 -246 -212
27 -125 224 -358 406 -481 157 -107 274 -147 407 -140 153 9 280 70 429 207
39 37 92 75 115 86 24 10 59 37 78 59 54 63 162 153 237 198 112 67 170 78
402 78 170 -1 212 2 278 19 240 63 376 228 308 377 -44 98 -181 153 -266 107z"/>
</g>
</svg>
