<?xml version="1.0" standalone="no"?>
<!DOCTYPE svg PUBLIC "-//W3C//DTD SVG 20010904//EN"
 "http://www.w3.org/TR/2001/REC-SVG-20010904/DTD/svg10.dtd">
<svg version="1.0" xmlns="http://www.w3.org/2000/svg"
 width="600.000000pt" height="600.000000pt" viewBox="0 0 600.000000 600.000000"
 preserveAspectRatio="xMidYMid meet">
<metadata>
Created by potrace 1.15, written by Peter Selinger 2001-2017
</metadata>
<g transform="translate(0.000000,600.000000) scale(0.100000,-0.100000)"
fill="#16364b" stroke="none">
<path d="M1875 5792 c-22 -11 -47 -28 -56 -38 -27 -31 -224 -421 -263 -520
-20 -51 -41 -116 -46 -145 -21 -108 34 -203 132 -230 84 -22 187 17 343 130
93 68 373 328 392 365 42 81 4 179 -81 211 -68 26 -102 15 -197 -63 -45 -37
-90 -73 -101 -81 -13 -10 -2 21 37 99 30 62 55 126 55 142 0 108 -114 177
-215 130z"/>
<path d="M3040 5703 c-50 -20 -90 -83 -90 -143 0 -69 20 -92 167 -191 222
-148 333 -247 415 -370 42 -64 74 -149 65 -172 -8 -21 -47 -37 -88 -37 -47 0
-94 -25 -125 -65 -23 -30 -28 -48 -28 -89 0 -101 68 -153 185 -142 178 16 297
108 335 257 23 88 7 182 -51 305 -101 217 -215 330 -564 564 -96 64 -134 84
-165 86 -23 2 -48 1 -56 -3z"/>
<path d="M990 5420 c-158 -28 -333 -152 -398 -282 -76 -154 -34 -336 113 -484
80 -81 123 -104 192 -104 86 0 153 63 153 145 0 53 -25 96 -80 137 -88 67
-111 134 -67 199 31 47 80 77 135 84 88 12 102 17 136 49 78 73 53 201 -48
247 -44 20 -65 21 -136 9z"/>
<path d="M2890 5125 c-114 -36 -209 -175 -210 -306 0 -94 64 -191 152 -229 64
-28 173 -31 261 -7 79 21 105 40 129 95 18 40 19 52 9 89 -6 24 -11 58 -11 77
0 19 -9 63 -20 98 -45 147 -178 226 -310 183z"/>
<path d="M4742 4893 c-18 -9 -45 -32 -60 -51 -24 -31 -27 -46 -30 -124 -10
-228 110 -471 272 -556 68 -36 180 -38 242 -5 98 52 150 154 142 282 -11 174
-125 305 -375 430 -91 45 -137 51 -191 24z"/>
<path d="M1980 4782 c-177 -60 -235 -143 -179 -260 17 -34 32 -49 66 -64 49
-21 83 -18 145 13 21 11 41 19 47 19 13 0 31 -56 31 -95 0 -66 76 -135 150
-135 46 0 118 37 144 73 17 24 21 43 21 115 0 74 -4 96 -28 146 -61 132 -148
197 -271 203 -50 2 -87 -2 -126 -15z"/>
<path d="M2863 4022 c-74 -26 -118 -64 -149 -128 -49 -100 -31 -228 42 -296
72 -67 216 -112 409 -130 146 -13 226 -6 273 22 37 23 72 86 72 132 0 18 11
55 25 82 40 80 27 151 -36 198 -41 31 -166 81 -274 109 -115 31 -292 36 -362
11z"/>
<path d="M1180 4024 c-83 -11 -197 -37 -223 -53 -16 -9 -42 -36 -58 -60 -57
-87 -33 -212 53 -268 34 -23 53 -28 104 -28 40 0 60 -3 56 -10 -3 -5 -31 -41
-62 -80 -187 -233 -246 -326 -388 -610 -131 -262 -138 -303 -69 -381 40 -47
99 -73 160 -74 53 0 115 27 134 58 7 11 61 54 120 95 59 41 173 127 253 192
130 104 404 296 447 312 14 6 15 -2 11 -63 -15 -198 -307 -828 -487 -1051 -65
-80 -81 -113 -81 -163 0 -114 110 -173 225 -121 80 36 227 248 374 541 158
312 248 580 272 803 29 277 -98 465 -289 427 -59 -12 -186 -75 -282 -140 -30
-20 -66 -43 -80 -50 -22 -12 -21 -10 8 26 148 176 217 292 234 395 19 116 -32
221 -135 273 -51 26 -69 30 -160 32 -56 1 -118 0 -137 -2z"/>
<path d="M4178 3785 c-169 -42 -269 -154 -270 -299 0 -80 16 -138 58 -203 88
-138 253 -185 398 -114 121 59 202 173 267 375 34 107 34 145 -2 190 -41 52
-71 60 -239 63 -111 2 -171 -2 -212 -12z m72 -320 c-26 -28 -50 -33 -50 -10 0
15 31 33 59 34 10 1 7 -7 -9 -24z"/>
<path d="M3450 3394 c-93 -31 -128 -70 -197 -223 -50 -112 -55 -161 -20 -211
37 -56 77 -73 175 -74 71 0 94 3 127 21 50 27 86 65 117 123 33 64 33 196 0
257 -40 76 -138 127 -202 107z"/>
<path d="M4958 3071 c-66 -42 -197 -177 -236 -243 -89 -151 -75 -294 37 -369
90 -59 177 -62 285 -10 135 65 221 199 220 346 0 88 -30 158 -100 232 -76 81
-130 92 -206 44z"/>
<path d="M3913 2616 c-62 -29 -107 -86 -129 -163 -18 -63 -15 -86 31 -249 19
-65 33 -119 31 -121 -1 -2 -29 6 -61 17 -123 42 -223 23 -306 -60 -72 -71 -90
-123 -90 -254 1 -229 119 -585 223 -669 76 -61 105 -72 195 -72 74 0 85 3 124
30 84 59 111 169 69 276 -23 58 -28 56 60 24 124 -46 314 59 354 196 27 90 19
185 -38 419 -26 112 -142 464 -169 516 -59 114 -187 161 -294 110z"/>
<path d="M2010 2231 c-97 -32 -183 -114 -264 -251 -55 -92 -68 -154 -46 -219
l12 -38 -60 -74 c-71 -88 -126 -194 -148 -287 -33 -137 0 -409 70 -582 95
-233 333 -443 571 -505 90 -23 248 -30 346 -15 178 27 367 124 477 244 82 90
106 149 93 222 -6 31 -5 49 5 63 78 111 255 578 301 794 58 275 -121 461 -398
412 -96 -16 -194 -54 -395 -150 -75 -36 -140 -65 -144 -65 -4 0 -13 27 -19 59
-49 248 -160 386 -318 397 -32 2 -69 0 -83 -5z m980 -641 c0 -35 -86 -279
-135 -385 -25 -55 -66 -134 -91 -176 -33 -56 -46 -91 -50 -130 -3 -30 -7 -63
-9 -74 -7 -36 -104 -123 -173 -157 -61 -30 -75 -33 -162 -33 -86 0 -101 3
-163 32 -180 86 -288 221 -306 385 -18 167 23 303 124 409 30 32 55 65 55 75
0 34 17 -1 30 -61 16 -80 48 -173 72 -213 22 -35 85 -76 135 -87 98 -20 213
79 213 185 0 20 409 245 453 249 4 1 7 -8 7 -19z"/>
</g>
</svg>
