<?xml version="1.0" standalone="no"?>
<!DOCTYPE svg PUBLIC "-//W3C//DTD SVG 20010904//EN"
 "http://www.w3.org/TR/2001/REC-SVG-20010904/DTD/svg10.dtd">
<svg version="1.0" xmlns="http://www.w3.org/2000/svg"
 width="600.000000pt" height="600.000000pt" viewBox="0 0 600.000000 600.000000"
 preserveAspectRatio="xMidYMid meet">
<metadata>
Created by potrace 1.15, written by Peter Selinger 2001-2017
</metadata>
<g transform="translate(0.000000,600.000000) scale(0.100000,-0.100000)"
fill="#16364b" stroke="none">
<path d="M2025 5818 c-35 -19 -75 -61 -107 -113 -30 -46 -197 -272 -353 -475
-104 -135 -117 -214 -48 -291 78 -86 182 -90 354 -14 135 60 468 231 542 278
71 45 92 87 83 160 -9 83 -74 147 -148 147 -39 0 -68 -14 -192 -93 -49 -32
-91 -55 -94 -53 -2 3 9 22 25 43 65 83 132 192 142 231 27 100 -43 193 -146
192 -21 0 -47 -6 -58 -12z"/>
<path d="M3034 5676 c-39 -17 -71 -58 -84 -106 -22 -81 19 -145 112 -174 107
-35 235 -104 298 -163 81 -75 114 -125 145 -218 55 -170 24 -230 -145 -278
-104 -30 -148 -118 -102 -204 41 -76 115 -102 224 -77 183 42 321 152 364 293
33 109 5 281 -72 435 -107 215 -265 349 -542 462 -113 46 -148 52 -198 30z"/>
<path d="M905 5359 c-124 -43 -233 -141 -288 -257 -30 -62 -32 -75 -32 -172 0
-116 15 -163 83 -269 48 -72 154 -175 208 -202 81 -39 168 -7 205 75 40 88 22
142 -78 232 -80 72 -103 110 -103 171 0 74 46 120 148 149 32 10 70 30 91 49
34 32 36 36 36 99 0 62 -2 67 -37 103 -35 35 -42 38 -105 40 -50 3 -84 -2
-128 -18z"/>
<path d="M2832 5015 c-90 -28 -189 -129 -237 -240 -26 -63 -23 -160 8 -221 52
-103 142 -155 279 -162 149 -8 226 27 249 111 18 69 -21 145 -86 167 l-32 11
33 35 c82 86 49 233 -66 292 -50 25 -86 27 -148 7z"/>
<path d="M4784 4890 c-22 -11 -56 -36 -75 -56 -33 -34 -34 -37 -37 -130 -13
-331 205 -589 439 -521 73 22 131 73 170 152 28 58 31 71 27 137 -2 50 -11 89
-27 123 -34 70 -151 182 -252 242 -134 79 -174 88 -245 53z"/>
<path d="M1922 4630 c-51 -11 -147 -61 -186 -97 -58 -53 -72 -137 -33 -193 32
-48 69 -72 120 -77 38 -5 55 0 115 33 80 44 84 43 123 -32 34 -67 85 -98 149
-92 64 6 113 43 136 103 16 44 16 50 1 99 -33 104 -112 193 -210 236 -54 24
-153 33 -215 20z"/>
<path d="M2985 3950 c-110 -36 -202 -125 -246 -237 -19 -48 -23 -78 -23 -173
-1 -104 1 -120 26 -172 53 -113 155 -191 265 -205 66 -7 95 0 138 38 90 79 56
213 -67 259 -48 17 -62 50 -47 103 18 62 33 72 102 69 52 -3 68 1 97 20 78 53
99 163 45 234 -55 72 -181 100 -290 64z"/>
<path d="M1097 3885 c-146 -30 -200 -54 -235 -108 -22 -34 -27 -52 -27 -107 0
-56 4 -73 28 -108 38 -59 94 -85 179 -84 l68 0 -80 -103 c-130 -167 -221 -327
-320 -560 -94 -221 -109 -300 -69 -381 25 -52 72 -90 132 -106 69 -18 116 0
206 82 42 37 128 114 191 170 113 102 317 267 478 389 l82 62 0 -36 c0 -156
-271 -845 -420 -1068 -45 -66 -52 -84 -53 -126 -1 -89 72 -153 174 -153 92 0
137 46 233 237 121 243 257 582 306 768 56 214 72 314 74 457 1 118 -2 141
-20 181 -37 80 -128 128 -216 115 -70 -11 -153 -56 -290 -159 -70 -53 -140
-104 -155 -114 -33 -21 -42 -37 77 128 41 58 93 139 114 182 35 67 40 88 44
161 4 73 1 91 -20 138 -72 157 -212 199 -481 143z"/>
<path d="M4201 3784 c-169 -45 -286 -182 -284 -335 1 -120 80 -244 186 -289
71 -31 170 -31 252 0 81 31 188 137 237 235 98 196 100 288 7 357 -55 41 -292
61 -398 32z m89 -312 c0 -8 -52 -42 -64 -42 -16 0 -3 32 17 40 28 11 47 12 47
2z"/>
<path d="M3465 3399 c-76 -22 -135 -104 -195 -274 -50 -141 -35 -216 52 -261
38 -20 173 -18 239 3 71 23 149 98 172 167 73 213 -80 421 -268 365z"/>
<path d="M4955 2956 c-43 -19 -195 -165 -255 -244 -94 -126 -116 -248 -62
-347 40 -73 104 -110 191 -110 135 0 289 106 354 242 26 57 32 82 35 154 5
115 -8 158 -70 227 -75 84 -130 106 -193 78z"/>
<path d="M4061 2529 c-46 -14 -127 -97 -140 -145 -17 -62 -13 -100 25 -232 19
-68 33 -126 31 -129 -3 -2 -23 5 -44 15 -107 55 -246 66 -326 28 -123 -60
-189 -201 -167 -357 9 -65 113 -455 146 -545 58 -161 292 -196 388 -57 42 61
45 124 12 245 -14 53 -26 102 -26 109 0 7 15 -1 33 -18 80 -76 156 -83 281
-25 145 69 238 178 252 298 9 73 -18 187 -107 459 -51 154 -88 252 -105 273
-56 70 -169 107 -253 81z"/>
<path d="M2883 2141 c-110 -30 -195 -67 -356 -154 -152 -82 -166 -85 -167 -37
0 32 -48 116 -83 147 -48 42 -97 57 -168 50 -101 -9 -173 -65 -266 -209 -37
-57 -46 -81 -50 -129 -12 -132 82 -238 192 -217 20 4 25 1 25 -16 -1 -15 -14
-27 -50 -44 -122 -57 -245 -215 -269 -346 -41 -224 27 -500 163 -666 145 -175
315 -250 634 -281 238 -23 382 31 558 207 98 99 126 183 89 271 -30 72 -93
113 -170 113 -62 0 -100 -18 -170 -84 -73 -68 -154 -113 -220 -121 -66 -9
-192 17 -270 55 -159 78 -244 194 -253 348 -3 68 -1 81 20 111 12 19 28 36 35
38 6 2 28 -22 48 -54 48 -75 111 -142 152 -159 65 -28 158 -11 211 39 38 35
62 92 62 146 0 64 -13 98 -55 141 -40 41 -85 134 -92 191 -5 36 -4 39 18 39
13 0 132 52 265 115 134 63 245 115 248 115 14 0 3 -59 -30 -162 -44 -136 -87
-233 -154 -343 -44 -72 -50 -90 -50 -136 0 -68 30 -122 88 -164 40 -27 51 -30
121 -30 122 0 154 30 264 251 140 279 210 619 162 782 -22 74 -80 141 -151
177 -51 25 -72 29 -159 32 -75 2 -118 -2 -172 -16z"/>
</g>
</svg>
