<?xml version="1.0" standalone="no"?>
<!DOCTYPE svg PUBLIC "-//W3C//DTD SVG 20010904//EN"
 "http://www.w3.org/TR/2001/REC-SVG-20010904/DTD/svg10.dtd">
<svg version="1.0" xmlns="http://www.w3.org/2000/svg"
 width="600.000000pt" height="600.000000pt" viewBox="0 0 600.000000 600.000000"
 preserveAspectRatio="xMidYMid meet">
<metadata>
Created by potrace 1.15, written by Peter Selinger 2001-2017
</metadata>
<g transform="translate(0.000000,600.000000) scale(0.100000,-0.100000)"
fill="#16364b" stroke="none">
<path d="M1970 4891 c-90 -19 -163 -81 -205 -174 -24 -53 -26 -66 -22 -150 2
-51 11 -123 20 -162 23 -101 34 -204 47 -425 6 -107 15 -271 21 -365 20 -320
22 -507 10 -803 -11 -277 -14 -304 -41 -402 -32 -114 -97 -491 -101 -580 -1
-30 1 -63 5 -72 5 -10 6 -25 3 -33 -7 -17 11 -31 35 -27 9 2 19 -6 23 -18 3
-11 12 -20 18 -20 17 0 70 98 63 117 -8 20 36 228 45 211 3 -7 10 -35 14 -63
13 -92 75 -287 117 -369 31 -59 63 -103 122 -162 95 -95 166 -134 301 -165 50
-12 95 -23 101 -24 8 -2 9 -20 2 -62 -13 -75 -3 -290 17 -373 8 -36 32 -116
52 -177 20 -62 34 -116 30 -119 -3 -4 -42 -8 -86 -9 -87 -2 -125 -18 -141 -61
-26 -69 9 -135 82 -155 88 -23 237 30 285 103 40 60 40 100 -1 205 -87 222
-114 429 -80 600 l5 28 287 0 c158 0 380 4 495 9 l207 9 0 -92 c0 -146 36
-354 92 -539 37 -120 34 -125 -47 -116 -134 16 -219 -62 -170 -156 40 -77 248
-69 341 13 75 65 81 125 30 279 -66 200 -101 451 -79 568 l8 44 95 12 c105 14
348 58 414 75 138 37 266 148 335 292 51 105 73 205 74 337 0 87 -5 121 -27
195 -32 106 -78 196 -145 285 -27 36 -48 66 -47 68 9 8 39 -14 47 -34 8 -23
13 -24 94 -24 84 0 86 1 84 23 -2 12 4 37 14 56 9 19 17 37 17 40 0 4 -23 17
-51 31 -28 13 -53 30 -56 37 -3 7 -15 13 -27 13 -12 0 -88 27 -168 59 -154 63
-329 124 -462 161 -43 12 -106 39 -140 59 -33 21 -133 75 -221 121 -212 110
-302 168 -537 343 -340 252 -345 260 -588 772 -84 176 -169 354 -189 395 -21
41 -54 109 -75 150 -68 139 -152 211 -261 223 -27 3 -66 2 -85 -2z m93 -154
c48 -21 99 -84 131 -162 15 -39 32 -77 37 -85 65 -113 241 -466 305 -613 46
-104 102 -223 126 -265 60 -107 193 -239 333 -332 61 -40 169 -114 240 -165
131 -93 199 -133 443 -264 73 -39 157 -86 185 -105 29 -18 124 -73 212 -121
229 -125 285 -165 371 -264 85 -99 144 -205 173 -311 64 -231 -32 -492 -212
-579 -91 -44 -431 -104 -647 -116 -63 -3 -234 -13 -380 -22 -223 -13 -288 -14
-410 -4 -80 7 -207 16 -282 21 -224 14 -328 50 -432 150 -125 120 -181 277
-225 626 -37 291 -43 426 -40 814 7 729 -28 1358 -87 1564 -33 116 -6 202 76
238 24 11 48 9 83 -5z m-293 -2977 c0 -5 -2 -10 -4 -10 -3 0 -8 5 -11 10 -3 6
-1 10 4 10 6 0 11 -4 11 -10z"/>
<path d="M2606 2689 c-33 -26 -33 -53 -1 -84 32 -33 68 -32 94 1 26 33 27 58
1 84 -26 26 -60 25 -94 -1z"/>
<path d="M3052 2550 c-12 -5 -27 -21 -34 -35 -24 -54 58 -110 103 -69 27 24
25 78 -3 98 -25 18 -33 19 -66 6z"/>
<path d="M5274 3990 c-104 -21 -195 -93 -234 -183 -61 -139 -4 -323 127 -417
92 -66 187 -74 309 -29 151 57 255 248 215 396 -21 78 -109 166 -216 217 -39
18 -148 27 -201 16z m85 -301 c37 -13 40 -35 6 -51 -19 -8 -28 -8 -40 2 -15
13 -20 42 -8 53 8 9 4 9 42 -4z"/>
<path d="M5374 1116 c-60 -27 -100 -190 -60 -250 63 -96 182 -23 193 118 7 84
-1 112 -37 131 -35 18 -55 18 -96 1z"/>
</g>
</svg>
