<?xml version="1.0" standalone="no"?>
<!DOCTYPE svg PUBLIC "-//W3C//DTD SVG 20010904//EN"
 "http://www.w3.org/TR/2001/REC-SVG-20010904/DTD/svg10.dtd">
<svg version="1.0" xmlns="http://www.w3.org/2000/svg"
 width="600.000000pt" height="600.000000pt" viewBox="0 0 600.000000 600.000000"
 preserveAspectRatio="xMidYMid meet">
<metadata>
Created by potrace 1.15, written by Peter Selinger 2001-2017
</metadata>
<g transform="translate(0.000000,600.000000) scale(0.100000,-0.100000)"
fill="#16364b" stroke="none">
<path d="M1663 5814 c-18 -9 -40 -27 -49 -41 -9 -14 -39 -130 -67 -257 -45
-205 -50 -245 -51 -356 -1 -114 1 -129 24 -175 36 -73 94 -110 168 -109 70 1
117 24 204 98 109 92 315 344 373 456 47 92 -27 210 -133 210 -61 0 -96 -24
-145 -100 -51 -81 -149 -211 -171 -229 -20 -17 -22 -27 36 199 34 135 38 160
29 192 -31 101 -133 154 -218 112z"/>
<path d="M3102 5590 c-35 -21 -62 -72 -62 -115 0 -56 28 -83 213 -207 186
-125 302 -227 345 -302 l23 -38 -32 4 c-105 16 -199 -80 -175 -178 22 -85 182
-139 308 -104 93 26 178 136 178 229 -2 184 -168 378 -564 655 -98 68 -114 76
-155 76 -28 0 -59 -8 -79 -20z"/>
<path d="M903 5459 c-173 -30 -292 -154 -339 -355 -32 -138 3 -252 110 -359
90 -89 152 -113 214 -81 63 33 98 100 86 165 -5 24 -24 51 -66 90 -71 68 -81
104 -50 174 29 66 59 82 157 83 88 1 110 9 148 53 58 69 35 176 -45 210 -53
24 -147 32 -215 20z"/>
<path d="M2912 5174 c-115 -57 -203 -231 -172 -342 33 -125 172 -186 334 -148
139 33 176 82 176 232 0 68 -5 100 -21 134 -60 134 -193 186 -317 124z"/>
<path d="M4812 4850 c-43 -10 -96 -47 -119 -85 -15 -25 -18 -50 -17 -155 0
-142 18 -227 67 -328 92 -190 328 -252 476 -125 65 55 86 103 86 199 0 73 -4
88 -39 160 -53 108 -177 231 -291 290 -92 48 -117 54 -163 44z"/>
<path d="M2195 4823 c-149 -9 -261 -47 -307 -102 -53 -62 -45 -145 17 -200 50
-44 96 -49 175 -21 43 16 98 25 170 30 117 7 137 14 177 67 55 72 30 178 -51
217 -32 15 -63 17 -181 9z"/>
<path d="M2823 4111 c-58 -15 -137 -67 -168 -110 -26 -37 -30 -51 -30 -111 0
-60 4 -73 31 -112 90 -127 317 -202 509 -169 88 16 250 67 294 94 38 23 70 85
71 137 0 43 -30 106 -62 129 -36 26 -153 69 -288 107 -131 37 -290 52 -357 35z"/>
<path d="M992 4028 c-39 -28 -82 -109 -82 -155 0 -38 23 -98 48 -126 39 -43
86 -57 197 -57 58 0 105 -4 105 -8 0 -22 -197 -226 -356 -370 -157 -142 -230
-214 -271 -271 -6 -9 -16 -36 -23 -59 -21 -79 22 -172 97 -211 34 -17 102 -13
148 10 40 20 44 20 73 5 64 -33 108 -23 228 54 60 38 113 70 117 70 5 0 23
-15 42 -32 18 -18 50 -46 70 -62 51 -41 64 -64 75 -133 17 -104 -18 -223 -100
-346 -67 -100 -119 -157 -186 -203 -52 -36 -62 -39 -123 -39 -53 0 -72 -5 -99
-23 -42 -30 -65 -76 -65 -130 0 -157 247 -191 442 -61 71 48 203 187 280 297
105 151 151 281 151 432 0 176 -51 312 -152 405 l-59 54 59 30 59 30 29 -31
c56 -59 126 -73 194 -38 73 37 90 84 80 227 -8 116 -28 160 -84 187 -68 32
-117 22 -274 -55 -79 -39 -146 -68 -149 -65 -3 2 18 33 46 68 105 130 154 266
132 369 -40 184 -182 259 -490 259 -115 0 -129 -2 -159 -22z"/>
<path d="M4169 3761 c-104 -33 -193 -113 -224 -201 -8 -24 -15 -73 -15 -110 0
-115 69 -222 182 -282 65 -35 192 -33 270 4 126 59 201 164 238 336 24 111 17
154 -34 206 -27 26 -50 37 -106 50 -96 21 -239 20 -311 -3z m111 -291 c0 -5
-11 -17 -26 -26 -34 -23 -56 -4 -23 20 26 18 49 21 49 6z"/>
<path d="M3401 3398 c-24 -11 -57 -40 -73 -62 -44 -60 -119 -217 -124 -262 -6
-50 19 -101 66 -132 31 -21 44 -23 116 -20 64 3 90 10 125 30 71 42 122 125
138 226 14 88 -1 143 -56 194 -55 52 -121 61 -192 26z"/>
<path d="M5034 3265 c-152 -76 -275 -264 -276 -424 0 -106 40 -180 122 -225
66 -36 131 -43 206 -22 123 35 226 139 254 257 18 76 8 184 -23 252 -34 74
-118 164 -166 177 -51 14 -61 13 -117 -15z"/>
<path d="M3973 2471 c-23 -11 -55 -38 -72 -61 -43 -59 -47 -104 -21 -211 12
-49 20 -93 16 -96 -3 -3 -17 -1 -31 5 -39 18 -125 14 -171 -7 -52 -23 -100
-73 -127 -131 -44 -93 -16 -306 74 -568 50 -144 59 -161 105 -202 51 -44 93
-60 159 -60 91 0 172 55 200 136 13 38 14 39 72 45 105 10 185 66 232 161 46
91 44 185 -9 406 -71 294 -120 459 -151 502 -62 85 -188 122 -276 81z"/>
<path d="M2104 2456 c-23 -7 -62 -28 -88 -45 -52 -36 -299 -308 -323 -356 -8
-16 -32 -50 -52 -75 -223 -271 -306 -649 -204 -934 58 -164 199 -344 346 -445
71 -48 205 -109 294 -132 112 -30 296 -30 418 0 173 42 323 136 435 273 29 35
62 74 74 88 100 112 217 366 301 650 42 141 56 287 36 378 -27 129 -123 256
-228 305 -42 19 -65 22 -178 22 -133 0 -157 -5 -331 -72 -7 -3 -19 18 -29 49
-44 134 -106 207 -223 262 -92 42 -181 54 -248 32z m130 -473 c38 -111 63
-150 133 -209 104 -88 128 -90 363 -20 69 21 151 40 183 43 l57 6 0 -37 c0
-60 -34 -179 -105 -361 -87 -225 -122 -296 -187 -380 -63 -82 -131 -136 -208
-167 -47 -20 -73 -23 -185 -22 -148 0 -179 10 -290 89 -121 86 -175 170 -196
305 -27 176 38 397 156 528 23 26 52 67 65 92 29 58 159 208 181 210 3 0 18
-35 33 -77z"/>
</g>
</svg>
