<?xml version="1.0" standalone="no"?>
<!DOCTYPE svg PUBLIC "-//W3C//DTD SVG 20010904//EN"
 "http://www.w3.org/TR/2001/REC-SVG-20010904/DTD/svg10.dtd">
<svg version="1.0" xmlns="http://www.w3.org/2000/svg"
 width="600.000000pt" height="600.000000pt" viewBox="0 0 600.000000 600.000000"
 preserveAspectRatio="xMidYMid meet">
<metadata>
Created by potrace 1.15, written by Peter Selinger 2001-2017
</metadata>
<g transform="translate(0.000000,600.000000) scale(0.100000,-0.100000)"
fill="#16364b" stroke="none">
<path d="M2885 5566 c-42 -18 -81 -67 -89 -111 -8 -38 -2 -53 62 -159 18 -30
42 -92 53 -137 22 -84 22 -85 3 -261 -8 -69 6 -108 49 -144 27 -23 38 -26 85
-22 70 6 118 50 139 129 38 145 25 350 -33 495 -69 177 -168 254 -269 210z"/>
<path d="M1978 5437 c-92 -42 -121 -132 -74 -232 31 -68 67 -109 153 -172 39
-29 84 -69 99 -88 14 -19 55 -104 90 -187 78 -186 98 -210 181 -216 49 -3 64
0 92 20 42 29 71 81 71 129 0 62 -76 260 -138 359 -55 88 -102 139 -182 202
-56 45 -81 72 -100 111 -37 77 -116 107 -192 74z"/>
<path d="M1398 4769 c-43 -22 -78 -81 -78 -131 0 -44 37 -107 79 -135 28 -19
47 -23 115 -23 168 0 352 -36 468 -90 67 -32 100 -36 145 -19 101 38 131 170
56 241 -78 73 -302 140 -565 168 -135 14 -177 12 -220 -11z"/>
<path d="M4372 4749 c-80 -17 -123 -99 -97 -186 20 -67 198 -504 222 -545 78
-133 273 -87 273 64 0 36 -21 100 -89 270 -119 295 -134 328 -167 360 -34 31
-95 47 -142 37z"/>
<path d="M3172 4513 c-18 -9 -66 -58 -109 -112 -118 -149 -283 -306 -401 -384
-61 -41 -108 -80 -117 -97 -50 -96 32 -205 153 -204 58 1 95 23 242 139 115
92 399 381 441 450 75 121 -77 273 -209 208z"/>
<path d="M1715 4320 c-99 -41 -118 -228 -29 -286 57 -38 372 -71 515 -53 196
23 277 73 286 176 5 57 -18 102 -69 134 -35 22 -65 22 -211 -1 -73 -11 -203
-1 -330 26 -75 15 -131 17 -162 4z"/>
<path d="M3840 4093 c-8 -3 -53 -42 -100 -86 -165 -156 -361 -281 -610 -388
-88 -38 -163 -69 -168 -69 -4 0 -23 -14 -40 -31 -63 -62 -67 -153 -8 -216 46
-50 106 -56 196 -18 268 112 539 249 650 327 67 47 207 184 246 239 36 53 40
133 8 176 -45 60 -117 87 -174 66z"/>
<path d="M2280 3785 c-201 -52 -252 -59 -445 -59 -212 -1 -228 -5 -259 -71
-44 -91 6 -203 101 -226 69 -17 289 -11 432 11 160 24 290 54 332 75 93 49 92
195 -2 253 -47 28 -94 33 -159 17z"/>
<path d="M5036 3715 c-56 -22 -102 -59 -130 -108 -37 -63 -41 -109 -17 -220
25 -114 26 -169 6 -255 -35 -147 -185 -378 -372 -573 -45 -47 -91 -105 -102
-130 -75 -163 59 -366 228 -346 75 9 117 36 222 144 168 172 243 270 342 448
150 271 203 477 177 696 -22 189 -67 282 -162 330 -51 26 -142 33 -192 14z"/>
<path d="M1950 3128 c-54 -37 -74 -72 -74 -127 0 -73 34 -118 119 -160 116
-56 199 -73 390 -78 159 -4 172 -3 203 16 96 61 96 193 0 264 -23 17 -50 21
-182 28 -157 7 -235 23 -308 60 -50 26 -107 24 -148 -3z"/>
<path d="M4405 3111 c-16 -10 -39 -28 -50 -40 -34 -39 -147 -118 -222 -155
-170 -86 -492 -185 -700 -217 -108 -16 -151 -41 -181 -101 -30 -59 -23 -114
19 -162 44 -51 85 -59 225 -40 355 46 688 163 887 312 100 75 225 195 237 228
14 35 12 94 -3 124 -33 65 -146 92 -212 51z"/>
<path d="M1439 2946 c-66 -23 -106 -63 -127 -125 -15 -42 -15 -255 -1 -391 38
-374 206 -770 359 -847 81 -42 181 -20 235 51 53 70 44 164 -26 256 -76 102
-125 222 -170 416 -20 86 -23 127 -24 314 0 179 -3 220 -17 245 -42 79 -139
113 -229 81z"/>
<path d="M2137 2365 c-103 -36 -145 -140 -97 -235 26 -51 42 -61 189 -115 67
-25 152 -61 188 -80 78 -41 128 -45 184 -13 66 37 95 104 77 177 -19 76 -98
131 -313 219 -144 58 -177 66 -228 47z"/>
<path d="M4070 2036 c-97 -30 -250 -70 -340 -90 -91 -20 -241 -54 -335 -76
-197 -46 -337 -70 -415 -70 -102 -1 -173 -51 -196 -141 -21 -80 -4 -140 56
-200 57 -57 86 -64 214 -55 94 6 143 16 576 110 381 82 739 192 793 243 91 87
79 227 -26 300 -66 46 -121 42 -327 -21z"/>
<path d="M4873 1724 c-17 -9 -70 -58 -118 -110 -48 -52 -115 -114 -148 -138
-165 -117 -400 -197 -762 -260 -215 -38 -243 -45 -276 -73 -42 -36 -59 -74
-59 -133 0 -91 58 -168 143 -191 34 -9 60 -7 147 10 58 11 167 30 242 41 222
34 373 81 561 176 208 105 495 332 526 417 58 153 -116 330 -256 261z"/>
<path d="M2030 1439 c-69 -28 -111 -110 -90 -175 24 -73 305 -288 449 -343
148 -57 296 -68 372 -28 53 28 89 85 89 142 0 94 -72 155 -186 155 -73 0 -194
29 -262 64 -27 14 -84 54 -126 88 -122 101 -135 108 -180 107 -23 0 -52 -5
-66 -10z"/>
<path d="M2005 925 c-46 -25 -66 -46 -86 -90 -39 -85 -12 -182 67 -235 57 -40
344 -181 412 -203 131 -42 205 -50 426 -44 327 8 481 52 548 155 26 41 29 54
26 103 -5 73 -35 114 -106 146 -60 28 -99 28 -227 -1 -112 -25 -272 -39 -380
-33 -182 10 -293 48 -449 155 -72 50 -87 56 -141 59 -42 3 -69 -1 -90 -12z"/>
</g>
</svg>
