<?xml version="1.0" standalone="no"?>
<!DOCTYPE svg PUBLIC "-//W3C//DTD SVG 20010904//EN"
 "http://www.w3.org/TR/2001/REC-SVG-20010904/DTD/svg10.dtd">
<svg version="1.0" xmlns="http://www.w3.org/2000/svg"
 width="600.000000pt" height="600.000000pt" viewBox="0 0 600.000000 600.000000"
 preserveAspectRatio="xMidYMid meet">
<metadata>
Created by potrace 1.15, written by Peter Selinger 2001-2017
</metadata>
<g transform="translate(0.000000,600.000000) scale(0.100000,-0.100000)"
fill="#16364b" stroke="none">
<path d="M3523 5268 c-30 -42 -35 -66 -23 -104 30 -93 95 -181 166 -225 33
-20 101 -28 124 -14 24 15 30 54 16 97 -19 54 -100 169 -153 219 -34 31 -50
39 -82 39 -21 0 -43 -6 -48 -12z m127 -161 c42 -56 52 -79 23 -56 -21 18 -73
89 -73 101 0 16 10 7 50 -45z"/>
<path d="M3034 5071 c-88 -41 -164 -201 -140 -295 15 -59 83 -84 144 -52 39
21 107 94 130 141 40 81 36 165 -11 203 -27 23 -79 24 -123 3z m82 -86 c10
-26 -16 -83 -63 -135 -44 -49 -72 -63 -74 -37 -5 55 24 121 71 161 35 29 58
33 66 11z"/>
<path d="M4764 4709 c-18 -20 -19 -40 -19 -288 0 -278 5 -320 45 -356 11 -10
35 -17 57 -17 30 0 43 6 65 33 36 43 43 79 43 229 -1 176 -48 370 -98 405 -30
21 -71 19 -93 -6z"/>
<path d="M2670 4229 c-29 -11 -60 -56 -60 -89 0 -28 22 -70 52 -96 56 -52 231
-114 320 -114 83 0 138 48 138 119 0 53 -33 76 -190 129 -158 53 -221 66 -260
51z"/>
<path d="M1481 4083 c-91 -33 -161 -137 -161 -239 0 -87 66 -188 163 -250 73
-45 155 -189 200 -345 24 -85 45 -244 67 -504 10 -132 24 -294 29 -360 6 -66
15 -194 21 -285 17 -260 61 -414 159 -559 120 -176 270 -275 481 -316 47 -9
91 -18 97 -20 9 -3 0 -30 -27 -87 -79 -166 -74 -316 11 -408 13 -14 59 -52
102 -83 43 -32 77 -63 74 -70 -2 -6 -37 -17 -79 -23 -41 -6 -83 -16 -94 -22
-29 -15 -60 -54 -67 -81 -6 -26 14 -84 33 -96 50 -31 142 -19 243 31 93 47
137 102 137 173 0 79 -27 118 -145 206 -103 77 -110 87 -109 153 2 64 24 130
79 227 l37 67 53 -7 c72 -9 386 -24 638 -32 114 -3 207 -7 207 -8 0 -1 -8 -17
-17 -36 -11 -20 -19 -64 -21 -109 -4 -71 -2 -78 30 -125 28 -42 47 -57 118
-92 47 -24 78 -43 70 -43 -35 0 -92 -22 -110 -42 -22 -24 -26 -68 -10 -99 6
-10 29 -28 52 -40 87 -44 246 -2 303 81 23 34 27 47 22 86 -9 81 -46 111 -216
177 -140 53 -154 102 -59 212 l51 60 186 37 c309 62 586 154 704 234 241 165
377 506 308 776 -41 158 -114 291 -208 379 -69 65 -119 94 -203 120 -60 18
-87 21 -154 16 -95 -7 -158 -27 -281 -91 -155 -80 -304 -104 -541 -86 -368 28
-558 101 -805 313 -144 124 -253 259 -379 473 -132 222 -186 300 -268 386 -74
78 -240 211 -306 245 -17 9 -47 28 -66 43 -91 70 -252 99 -349 63z m184 -193
c12 -4 42 -24 67 -43 26 -20 64 -45 86 -56 40 -20 111 -75 173 -133 65 -61
143 -162 229 -296 248 -388 483 -645 727 -793 248 -151 460 -203 823 -204 263
0 329 13 515 106 111 55 183 71 262 59 113 -19 188 -87 259 -236 82 -171 83
-310 4 -471 -77 -156 -188 -241 -420 -321 -226 -78 -377 -110 -632 -137 -176
-18 -262 -19 -598 -5 -713 30 -906 81 -1039 280 -88 133 -128 311 -141 630 -5
113 -16 279 -25 370 -56 580 -86 735 -177 911 -47 92 -92 147 -165 201 -125
92 -88 189 52 138z"/>
<path d="M2407 2512 c-23 -26 -21 -55 6 -80 46 -43 107 -17 107 46 0 21 -7 35
-19 42 -30 16 -76 12 -94 -8z"/>
<path d="M2842 2134 c-30 -21 -29 -68 3 -99 44 -45 98 -25 111 42 12 59 -60
95 -114 57z"/>
<path d="M5285 3990 c-113 -17 -207 -86 -256 -185 -29 -60 -31 -70 -27 -144 8
-135 86 -249 211 -306 228 -105 455 63 459 338 2 110 -48 190 -161 256 -73 44
-138 55 -226 41z m92 -314 c10 -10 -29 -46 -48 -46 -18 0 -39 27 -39 51 0 12
75 8 87 -5z"/>
<path d="M4179 3738 c-142 -50 -211 -145 -212 -292 0 -81 36 -159 103 -219
139 -125 348 -67 442 122 20 40 23 61 23 161 0 90 -4 123 -18 151 -43 87 -205
123 -338 77z m101 -261 c0 -28 -17 -47 -42 -47 -25 0 -23 25 4 50 28 26 38 25
38 -3z"/>
<path d="M485 2010 c-11 -12 -15 -27 -11 -42 11 -43 256 -188 318 -188 50 0
69 59 30 93 -24 20 -289 157 -305 157 -8 0 -22 -9 -32 -20z"/>
<path d="M5362 1103 c-25 -10 -72 -129 -72 -186 0 -35 24 -83 49 -97 11 -5 37
-10 58 -10 59 0 104 53 117 138 15 98 -24 163 -98 161 -22 0 -47 -3 -54 -6z"/>
</g>
</svg>
