<?xml version="1.0" standalone="no"?>
<!DOCTYPE svg PUBLIC "-//W3C//DTD SVG 20010904//EN"
 "http://www.w3.org/TR/2001/REC-SVG-20010904/DTD/svg10.dtd">
<svg version="1.0" xmlns="http://www.w3.org/2000/svg"
 width="600.000000pt" height="600.000000pt" viewBox="0 0 600.000000 600.000000"
 preserveAspectRatio="xMidYMid meet">
<metadata>
Created by potrace 1.15, written by Peter Selinger 2001-2017
</metadata>
<g transform="translate(0.000000,600.000000) scale(0.100000,-0.100000)"
fill="#16364b" stroke="none">
<path d="M1765 5806 c-48 -21 -72 -55 -119 -168 -193 -461 -179 -778 34 -778
98 0 257 105 425 282 144 150 216 241 226 285 18 84 -38 177 -114 190 -77 12
-101 -1 -212 -115 -57 -59 -106 -104 -108 -102 -3 3 15 55 39 115 26 64 46
127 46 151 2 57 -28 104 -82 132 -50 25 -91 27 -135 8z"/>
<path d="M3012 5673 c-55 -27 -77 -68 -77 -144 0 -84 4 -89 156 -181 166 -100
239 -157 355 -272 100 -101 154 -182 154 -233 0 -21 -5 -23 -45 -23 -87 0
-135 -35 -156 -113 -13 -50 5 -110 46 -146 59 -52 186 -49 287 6 61 33 92 69
131 151 26 56 29 70 26 145 -4 72 -9 93 -41 158 -96 192 -273 361 -631 603
-107 72 -141 81 -205 49z"/>
<path d="M923 5426 c-282 -69 -440 -365 -322 -605 59 -120 207 -241 297 -241
70 0 131 47 148 114 12 48 -21 112 -82 157 -85 63 -105 125 -61 189 32 48 73
69 158 79 68 9 77 13 110 48 42 45 55 95 39 152 -29 107 -130 145 -287 107z"/>
<path d="M2940 5173 c-55 -20 -136 -100 -170 -169 -14 -28 -26 -73 -28 -107
-14 -183 160 -289 380 -231 74 19 101 36 129 81 19 31 21 45 16 121 -9 137
-55 240 -128 289 -51 34 -132 40 -199 16z"/>
<path d="M4749 4856 c-67 -46 -74 -66 -72 -202 5 -273 80 -441 228 -510 56
-26 133 -31 195 -13 59 18 130 78 164 139 28 50 31 63 31 140 0 71 -4 94 -26
140 -56 119 -157 213 -311 291 -95 48 -154 52 -209 15z"/>
<path d="M1988 4844 c-107 -33 -159 -88 -160 -168 -1 -52 27 -103 70 -128 38
-22 122 -23 163 -2 17 8 40 14 52 12 18 -2 23 -12 28 -53 9 -73 15 -87 55
-126 33 -31 40 -34 99 -34 57 0 67 3 96 30 59 56 73 127 45 233 -43 158 -166
253 -329 251 -40 0 -93 -7 -119 -15z"/>
<path d="M2862 4065 c-123 -27 -195 -106 -195 -214 0 -100 48 -163 169 -218
132 -60 437 -70 674 -22 130 27 181 167 92 252 -31 30 -290 144 -397 175 -78
23 -196 42 -247 41 -18 0 -61 -7 -96 -14z"/>
<path d="M1057 4049 c-81 -11 -114 -26 -155 -73 -58 -66 -53 -170 10 -235 48
-49 83 -63 155 -63 34 0 63 -1 63 -4 0 -2 -20 -31 -45 -65 -25 -34 -78 -114
-117 -178 -40 -64 -132 -202 -204 -306 -162 -234 -214 -329 -214 -391 0 -102
82 -179 190 -179 66 0 76 6 345 199 201 145 461 320 500 338 43 20 60 -8 59
-95 -2 -113 -57 -268 -179 -502 -129 -245 -230 -395 -335 -495 -76 -73 -92
-120 -64 -188 23 -55 67 -88 128 -97 67 -10 115 15 201 107 130 138 235 298
355 537 147 295 198 423 214 536 4 28 19 73 33 102 24 50 25 58 21 205 -3 137
-6 158 -27 201 -47 96 -162 131 -297 92 -57 -16 -206 -88 -294 -142 l-45 -27
25 31 c14 17 62 77 108 133 106 130 132 182 139 276 10 124 -43 218 -150 265
-46 20 -70 23 -202 25 -82 1 -181 -2 -218 -7z"/>
<path d="M4201 3785 c-132 -30 -218 -93 -265 -194 -17 -37 -21 -65 -21 -146 0
-92 2 -104 29 -153 56 -100 152 -152 281 -152 111 0 174 27 258 111 53 53 77
87 112 161 54 116 80 211 71 260 -9 47 -52 93 -102 108 -63 19 -288 22 -363 5z
m75 -321 c-28 -24 -47 -28 -48 -9 -1 12 41 35 62 35 10 -1 5 -9 -14 -26z"/>
<path d="M3415 3397 c-93 -24 -245 -235 -245 -339 0 -53 26 -98 74 -128 49
-29 175 -46 233 -30 82 24 138 108 155 236 19 140 -19 238 -100 262 -46 14
-62 14 -117 -1z"/>
<path d="M5023 3165 c-102 -44 -249 -180 -293 -271 -21 -41 -25 -64 -25 -144
0 -87 3 -100 30 -149 36 -66 85 -107 150 -126 157 -47 349 112 401 331 28 120
2 226 -74 306 -61 65 -122 82 -189 53z"/>
<path d="M3870 2604 c-45 -20 -87 -59 -111 -106 -30 -58 -25 -128 21 -274 22
-70 38 -129 36 -131 -1 -2 -19 4 -39 12 -50 21 -143 19 -192 -4 -55 -25 -109
-81 -142 -149 -25 -51 -28 -67 -27 -152 1 -106 15 -153 126 -454 69 -185 107
-243 183 -277 55 -25 144 -25 196 1 78 41 127 146 109 240 -4 25 -7 46 -6 47
1 2 16 -1 34 -6 74 -22 207 26 282 101 63 63 91 131 91 220 -1 92 -12 133 -95
341 -37 93 -87 232 -110 310 -51 170 -63 194 -118 241 -65 56 -163 73 -238 40z"/>
<path d="M1995 2300 c-98 -39 -220 -175 -300 -335 -22 -44 -54 -100 -71 -125
-74 -107 -147 -285 -179 -435 -19 -91 -19 -289 0 -399 32 -185 86 -294 210
-424 133 -140 273 -233 405 -267 114 -30 342 -21 505 21 171 44 327 151 414
284 20 30 48 71 63 90 15 20 61 116 103 214 42 99 92 210 111 249 100 198 138
334 132 475 -3 82 -8 107 -32 156 -69 141 -204 208 -375 184 -93 -12 -181 -43
-350 -124 -74 -35 -135 -63 -136 -62 0 2 -18 55 -39 120 -99 306 -277 452
-461 378z m103 -537 c12 -37 28 -102 36 -145 24 -124 50 -173 120 -224 69 -50
123 -69 174 -59 19 4 80 33 134 66 172 104 399 211 415 195 4 -4 -5 -45 -21
-91 -49 -151 -204 -536 -224 -558 -11 -12 -30 -42 -42 -65 -66 -133 -208 -212
-380 -212 -126 1 -242 55 -357 166 -103 101 -142 219 -130 401 9 130 29 200
97 339 33 66 60 125 60 131 0 6 7 16 16 24 8 7 27 35 40 61 14 27 28 46 33 44
4 -3 18 -36 29 -73z"/>
</g>
</svg>
