<?xml version="1.0" standalone="no"?>
<!DOCTYPE svg PUBLIC "-//W3C//DTD SVG 20010904//EN"
 "http://www.w3.org/TR/2001/REC-SVG-20010904/DTD/svg10.dtd">
<svg version="1.0" xmlns="http://www.w3.org/2000/svg"
 width="600.000000pt" height="600.000000pt" viewBox="0 0 600.000000 600.000000"
 preserveAspectRatio="xMidYMid meet">
<metadata>
Created by potrace 1.15, written by Peter Selinger 2001-2017
</metadata>
<g transform="translate(0.000000,600.000000) scale(0.100000,-0.100000)"
fill="#16364b" stroke="none">
<path d="M1765 5804 c-64 -33 -80 -58 -151 -239 -58 -150 -104 -337 -111 -457
-6 -91 -4 -100 21 -152 37 -75 95 -111 177 -110 103 1 209 74 347 237 42 50
123 145 179 211 107 124 121 153 110 222 -8 51 -42 90 -92 110 -78 29 -110 13
-242 -124 -62 -65 -112 -112 -113 -107 0 6 23 64 51 130 43 102 50 127 46 168
-9 101 -128 160 -222 111z"/>
<path d="M3013 5660 c-59 -36 -79 -109 -47 -175 9 -19 50 -59 97 -96 301 -232
509 -440 533 -533 6 -26 5 -26 -51 -26 -36 0 -68 -6 -87 -17 -32 -20 -68 -79
-68 -114 0 -39 38 -103 77 -129 33 -23 46 -25 142 -25 118 0 155 13 220 77 51
50 71 101 71 185 1 247 -262 554 -715 835 -70 44 -121 49 -172 18z"/>
<path d="M925 5439 c-223 -45 -390 -261 -372 -481 11 -130 103 -271 222 -339
102 -59 203 -20 236 92 18 60 -9 119 -77 169 -65 49 -84 96 -65 159 20 69 92
111 190 111 146 0 192 182 70 273 -32 23 -130 31 -204 16z"/>
<path d="M2922 5167 c-49 -15 -127 -91 -156 -150 -36 -74 -41 -123 -22 -192
41 -141 192 -206 371 -160 117 30 150 77 140 198 -11 154 -70 265 -160 303
-39 16 -125 17 -173 1z"/>
<path d="M4760 4868 c-77 -40 -85 -60 -83 -206 4 -296 92 -478 257 -532 131
-43 280 25 337 153 18 40 24 70 24 132 0 71 -4 88 -33 147 -56 115 -187 227
-342 295 -89 39 -102 40 -160 11z"/>
<path d="M2095 4830 c-156 -21 -265 -97 -265 -186 0 -92 100 -168 190 -144 19
5 51 13 70 18 51 13 60 6 60 -43 0 -115 143 -171 252 -99 53 34 72 75 71 156
0 55 -6 80 -32 133 -64 130 -183 186 -346 165z"/>
<path d="M2844 4080 c-53 -17 -127 -73 -151 -115 -30 -52 -31 -140 -3 -194 44
-88 155 -153 295 -173 156 -23 523 15 584 59 55 41 79 140 47 201 -38 72 -157
132 -386 194 -91 24 -140 31 -235 34 -66 2 -134 -1 -151 -6z"/>
<path d="M1118 4060 c-131 -9 -161 -20 -211 -82 -23 -29 -31 -51 -35 -92 -6
-73 2 -99 44 -146 46 -51 107 -74 179 -68 32 3 55 1 55 -5 0 -5 -33 -48 -72
-94 -269 -314 -336 -409 -454 -639 -73 -141 -81 -168 -67 -234 9 -48 78 -115
133 -130 79 -21 134 2 369 159 115 77 279 190 366 251 l157 111 23 -21 c63
-59 27 -257 -91 -491 -107 -215 -270 -448 -383 -548 -78 -69 -96 -107 -88
-178 7 -68 58 -115 129 -120 62 -5 89 8 173 81 155 134 317 361 449 630 99
200 142 321 155 434 5 51 15 87 25 97 34 35 39 59 37 194 -2 170 -19 239 -72
292 -94 94 -210 75 -457 -75 -51 -31 -95 -56 -98 -56 -3 0 23 35 58 78 154
185 198 265 206 372 3 52 0 76 -15 111 -48 107 -125 155 -277 170 -50 4 -98 8
-106 7 -8 0 -68 -4 -132 -8z"/>
<path d="M4225 3793 c-120 -25 -218 -93 -267 -185 -19 -36 -23 -58 -23 -138 0
-81 4 -103 24 -145 32 -64 83 -119 140 -153 40 -24 57 -27 131 -27 75 0 91 3
138 29 137 76 282 314 282 464 0 43 -29 93 -70 123 -27 20 -177 50 -244 48
-22 0 -72 -7 -111 -16z m55 -328 c-24 -25 -50 -33 -50 -16 0 13 41 41 59 41
10 0 8 -7 -9 -25z"/>
<path d="M3383 3396 c-62 -29 -118 -96 -175 -210 -35 -69 -40 -86 -35 -129 9
-99 79 -147 215 -147 96 0 140 17 192 76 46 53 72 118 78 195 8 108 -30 183
-113 220 -54 25 -100 23 -162 -5z"/>
<path d="M5028 3196 c-52 -19 -154 -94 -216 -160 -89 -94 -134 -226 -113 -327
36 -166 164 -243 331 -199 151 40 268 192 278 361 6 100 -15 169 -73 239 -71
86 -134 113 -207 86z"/>
<path d="M3894 2611 c-77 -35 -144 -144 -144 -235 0 -17 16 -89 34 -159 34
-127 34 -129 13 -122 -103 33 -139 38 -193 26 -70 -16 -129 -61 -168 -131 -28
-50 -31 -62 -31 -145 1 -97 5 -112 135 -455 28 -74 58 -155 67 -179 17 -48 74
-111 123 -136 44 -23 120 -30 164 -15 91 30 143 115 134 218 l-6 58 72 0 c86
-1 159 30 225 96 93 94 120 209 86 364 -21 97 -201 666 -225 714 -53 104 -181
149 -286 101z"/>
<path d="M2035 2307 c-66 -22 -106 -47 -163 -101 -60 -56 -162 -187 -193 -248
-11 -21 -37 -62 -59 -91 -80 -105 -154 -266 -192 -417 -29 -116 -31 -344 -5
-440 26 -92 105 -254 161 -327 188 -248 578 -390 899 -329 182 35 390 153 480
273 23 30 59 75 79 100 44 51 175 315 241 483 71 183 82 235 82 395 -1 121 -4
148 -23 197 -30 75 -99 150 -170 185 -53 26 -65 28 -172 27 -103 -1 -124 -4
-205 -33 -49 -18 -137 -57 -194 -87 -104 -55 -120 -57 -121 -16 0 24 -73 237
-97 287 -52 105 -117 147 -233 152 -44 2 -91 -3 -115 -10z m68 -509 c9 -29 25
-93 36 -143 33 -151 62 -199 165 -270 44 -30 64 -37 103 -38 54 -1 85 15 273
134 99 63 244 139 267 139 19 0 16 -21 -16 -150 -56 -219 -151 -472 -195 -520
-13 -14 -33 -41 -44 -61 -93 -155 -321 -229 -507 -164 -85 29 -205 107 -279
180 -92 90 -110 137 -109 280 1 160 48 310 141 454 23 35 42 69 42 76 0 7 9
20 20 30 11 10 31 38 45 61 14 24 29 44 34 44 4 0 15 -24 24 -52z"/>
</g>
</svg>
