<?xml version="1.0" standalone="no"?>
<!DOCTYPE svg PUBLIC "-//W3C//DTD SVG 20010904//EN"
 "http://www.w3.org/TR/2001/REC-SVG-20010904/DTD/svg10.dtd">
<svg version="1.0" xmlns="http://www.w3.org/2000/svg"
 width="600.000000pt" height="600.000000pt" viewBox="0 0 600.000000 600.000000"
 preserveAspectRatio="xMidYMid meet">
<metadata>
Created by potrace 1.15, written by Peter Selinger 2001-2017
</metadata>
<g transform="translate(0.000000,600.000000) scale(0.100000,-0.100000)"
fill="#16364b" stroke="none">
<path d="M2364 5395 l-25 -25 7 -157 c10 -244 -27 -407 -125 -551 -45 -67 -93
-107 -182 -152 -63 -32 -86 -69 -70 -111 23 -63 81 -68 173 -14 79 47 122 84
172 149 51 66 118 208 152 321 25 83 28 107 32 302 l4 212 -26 25 c-33 34 -79
34 -112 1z"/>
<path d="M3529 5280 c-8 -5 -24 -27 -34 -49 -17 -40 -17 -42 3 -92 45 -107
155 -221 227 -235 117 -22 161 71 94 197 -38 71 -116 155 -164 174 -39 17
-102 19 -126 5z"/>
<path d="M3005 5102 c-89 -42 -156 -152 -157 -259 0 -70 22 -112 72 -138 89
-46 231 23 280 137 62 145 16 265 -107 275 -33 2 -61 -2 -88 -15z m75 -147 c0
-36 -61 -117 -76 -102 -8 8 17 61 38 85 20 20 38 29 38 17z"/>
<path d="M4793 4766 c-62 -28 -68 -50 -68 -246 0 -272 40 -397 141 -441 158
-70 275 110 218 335 -22 88 -105 253 -156 309 -48 53 -85 65 -135 43z"/>
<path d="M2655 4215 c-135 -47 -144 -217 -17 -309 122 -89 298 -91 441 -4 30
18 63 45 74 60 24 32 26 92 4 134 -19 36 -54 54 -172 88 -169 49 -257 57 -330
31z"/>
<path d="M1134 4135 c-36 -24 -66 -110 -66 -184 0 -76 9 -104 47 -149 40 -48
81 -65 151 -66 130 0 222 100 193 208 -14 54 -95 132 -178 174 -70 35 -115 40
-147 17z"/>
<path d="M5225 3961 c-103 -29 -172 -89 -206 -179 -58 -155 25 -368 173 -443
94 -48 236 -41 333 16 101 59 165 172 165 292 0 126 -78 223 -240 299 -40 19
-179 28 -225 15z m130 -293 c32 -14 32 -35 0 -50 -28 -13 -55 3 -55 32 0 32
15 37 55 18z"/>
<path d="M4257 3770 c-94 -16 -150 -43 -209 -100 -46 -45 -59 -66 -73 -114
-46 -158 24 -329 157 -386 43 -18 65 -22 123 -18 126 8 216 75 278 208 27 58
31 78 35 176 6 167 -16 200 -155 229 -75 16 -86 16 -156 5z m38 -300 c-9 -16
-17 -30 -19 -30 -3 0 -11 -3 -20 -6 -23 -9 -20 22 4 46 11 11 27 20 35 20 14
0 14 -3 0 -30z"/>
<path d="M3468 3365 c-31 -17 -97 -106 -157 -213 -49 -89 -53 -131 -15 -161
36 -28 52 -26 106 9 91 60 189 209 192 290 2 73 -61 110 -126 75z"/>
<path d="M1094 3284 c-265 -44 -399 -189 -395 -430 2 -189 101 -346 265 -423
78 -36 125 -47 260 -61 138 -14 191 -36 255 -106 61 -66 87 -132 146 -360 75
-293 144 -435 274 -564 96 -95 215 -157 389 -201 106 -27 142 -31 387 -42 432
-18 1071 -16 1237 6 283 36 514 88 643 145 146 64 276 150 379 250 124 120
202 280 242 491 21 113 14 323 -15 431 -59 219 -224 400 -453 496 -128 54
-190 67 -323 67 -240 0 -437 -70 -800 -286 -162 -96 -252 -122 -385 -114 -172
10 -391 117 -660 322 -246 188 -378 268 -520 314 -209 67 -706 102 -926 65z
m573 -405 c52 -6 133 -21 180 -35 132 -38 192 -72 448 -254 198 -141 258 -177
460 -277 203 -100 298 -132 425 -143 193 -17 367 45 735 262 88 52 178 96 240
118 94 33 108 35 225 35 125 0 126 0 200 -37 162 -81 220 -188 220 -407 0
-100 -18 -181 -60 -267 -36 -73 -87 -127 -178 -187 -193 -127 -289 -150 -812
-198 -209 -19 -274 -20 -580 -14 -190 3 -424 6 -520 5 -275 -2 -407 31 -486
123 -70 82 -108 180 -218 557 -67 228 -149 362 -279 454 -129 91 -225 125
-395 137 -127 9 -184 26 -203 60 -17 32 37 56 155 69 110 11 337 11 443 -1z"/>
<path d="M449 2051 c-35 -36 -38 -74 -6 -104 13 -12 35 -42 49 -67 15 -25 49
-67 77 -93 125 -117 261 -104 261 26 0 73 -104 178 -241 242 -72 33 -103 32
-140 -4z"/>
<path d="M5290 1154 c-52 -21 -83 -74 -88 -148 -3 -51 0 -66 20 -96 13 -19 39
-40 60 -48 80 -31 149 43 163 172 8 68 -8 117 -40 130 -27 10 -78 6 -115 -10z"/>
</g>
</svg>
