<?xml version="1.0" standalone="no"?>
<!DOCTYPE svg PUBLIC "-//W3C//DTD SVG 20010904//EN"
 "http://www.w3.org/TR/2001/REC-SVG-20010904/DTD/svg10.dtd">
<svg version="1.0" xmlns="http://www.w3.org/2000/svg"
 width="600.000000pt" height="600.000000pt" viewBox="0 0 600.000000 600.000000"
 preserveAspectRatio="xMidYMid meet">
<metadata>
Created by potrace 1.15, written by Peter Selinger 2001-2017
</metadata>
<g transform="translate(0.000000,600.000000) scale(0.100000,-0.100000)"
fill="#16364b" stroke="none">
<path d="M2382 5394 c-21 -14 -22 -22 -22 -146 0 -284 -63 -516 -173 -635 -22
-24 -72 -62 -109 -84 -38 -22 -74 -51 -80 -64 -15 -33 -3 -71 28 -92 26 -17
28 -16 102 22 203 104 312 318 352 687 20 188 12 296 -24 320 -18 12 -50 9
-74 -8z"/>
<path d="M3544 5302 c-43 -28 -43 -97 -2 -174 61 -114 159 -198 232 -198 40 0
76 41 76 86 0 73 -117 241 -194 278 -35 17 -93 21 -112 8z"/>
<path d="M2999 5080 c-84 -44 -149 -161 -149 -266 0 -91 41 -144 110 -144 46
0 89 24 151 85 123 120 150 250 68 320 -25 20 -41 25 -87 25 -36 -1 -70 -8
-93 -20z m81 -162 c-25 -49 -89 -120 -102 -112 -23 15 37 136 80 158 40 21 48
4 22 -46z"/>
<path d="M4752 4743 c-37 -37 -47 -107 -37 -266 19 -298 77 -427 188 -413 83
10 121 83 120 231 -1 119 -25 219 -78 328 -49 100 -81 136 -127 144 -32 5 -41
1 -66 -24z"/>
<path d="M2643 4201 c-72 -46 -82 -135 -21 -198 97 -101 313 -142 445 -83 62
27 81 46 89 86 16 84 -15 114 -173 167 -96 32 -136 41 -213 44 -83 4 -99 2
-127 -16z"/>
<path d="M5216 3973 c-189 -57 -270 -268 -177 -457 102 -209 376 -257 531 -95
74 78 117 202 107 309 -9 102 -61 173 -167 229 -53 29 -65 31 -151 30 -54 0
-115 -7 -143 -16z m159 -304 c14 -13 -29 -53 -49 -46 -20 8 -30 32 -22 53 5
12 13 14 34 9 15 -3 31 -11 37 -16z"/>
<path d="M4240 3769 c-104 -20 -192 -86 -242 -181 -33 -63 -33 -194 0 -258 55
-106 139 -154 262 -153 127 2 223 61 277 171 25 52 27 67 28 177 0 107 -2 124
-23 156 -25 41 -88 73 -173 89 -58 11 -67 11 -129 -1z m60 -270 c0 -23 -22
-49 -40 -49 -27 0 -25 25 2 44 26 19 38 20 38 5z"/>
<path d="M1224 3620 c-65 -9 -149 -48 -195 -88 -20 -17 -51 -59 -69 -93 -28
-53 -33 -73 -34 -133 -1 -97 23 -163 86 -231 64 -70 159 -117 283 -140 50 -10
102 -23 116 -31 39 -20 89 -81 120 -149 32 -69 169 -610 194 -765 47 -300 99
-433 233 -596 152 -185 352 -258 767 -280 276 -14 1065 1 1335 26 199 19 426
90 642 202 132 69 221 139 299 236 109 136 176 301 200 495 18 146 -5 305 -58
412 -91 179 -265 336 -437 391 -108 35 -307 45 -417 20 -108 -24 -159 -51
-309 -165 -195 -148 -297 -196 -480 -226 -128 -20 -246 -19 -355 5 -253 54
-427 169 -855 565 -360 334 -520 442 -755 509 -78 22 -219 47 -250 44 -5 0
-33 -4 -61 -8z m219 -324 c203 -67 281 -120 522 -356 106 -105 234 -220 291
-261 95 -70 134 -98 348 -247 50 -35 125 -81 166 -102 208 -105 532 -169 754
-149 216 20 348 80 569 257 78 63 165 125 192 138 112 52 280 52 384 0 94 -48
194 -183 220 -297 28 -122 2 -303 -61 -422 -71 -133 -167 -209 -370 -291 -163
-65 -316 -96 -578 -116 -80 -6 -219 -18 -310 -27 -184 -17 -679 -20 -751 -4
-24 5 -98 10 -164 10 -310 0 -450 71 -539 274 -30 66 -63 199 -76 301 -25 195
-183 744 -262 906 -43 89 -63 117 -127 180 -88 86 -151 121 -275 151 -48 12
-98 30 -111 41 -74 58 22 65 178 14z"/>
<path d="M2290 2369 c-52 -21 -57 -79 -9 -108 49 -30 99 -2 99 54 0 48 -42 73
-90 54z"/>
<path d="M2857 2062 c-38 -42 -4 -112 54 -112 52 0 79 78 41 113 -25 22 -75
21 -95 -1z"/>
<path d="M3474 3360 c-59 -24 -223 -283 -207 -329 13 -35 36 -51 75 -51 32 0
46 7 81 43 56 56 106 129 134 197 29 71 29 95 -2 125 -25 26 -45 30 -81 15z"/>
<path d="M458 2019 c-12 -6 -18 -22 -18 -43 0 -29 11 -45 75 -107 122 -119
215 -159 265 -114 26 24 26 75 -1 109 -27 35 -93 79 -188 127 -82 41 -104 45
-133 28z"/>
<path d="M5311 1103 c-25 -10 -61 -105 -61 -161 0 -46 4 -58 29 -82 50 -51
112 -52 157 -3 29 32 44 81 44 151 0 74 -28 102 -102 101 -29 0 -59 -3 -67 -6z"/>
</g>
</svg>
