<?xml version="1.0" standalone="no"?>
<!DOCTYPE svg PUBLIC "-//W3C//DTD SVG 20010904//EN"
 "http://www.w3.org/TR/2001/REC-SVG-20010904/DTD/svg10.dtd">
<svg version="1.0" xmlns="http://www.w3.org/2000/svg"
 width="600.000000pt" height="600.000000pt" viewBox="0 0 600.000000 600.000000"
 preserveAspectRatio="xMidYMid meet">
<metadata>
Created by potrace 1.15, written by Peter Selinger 2001-2017
</metadata>
<g transform="translate(0.000000,600.000000) scale(0.100000,-0.100000)"
fill="#16364b" stroke="none">
<path d="M3024 5076 c-45 -20 -103 -82 -127 -135 -39 -87 -20 -182 39 -197 82
-21 254 154 254 259 0 18 -11 39 -29 58 -33 33 -83 38 -137 15z m94 -82 c4
-42 -50 -120 -112 -162 -59 -39 -82 -31 -71 27 17 92 93 174 155 168 20 -2 26
-8 28 -33z"/>
<path d="M4776 4697 c-26 -26 -31 -70 -42 -410 -7 -182 -6 -199 11 -217 23
-25 75 -26 105 -2 18 15 23 33 30 121 5 57 10 192 10 300 1 190 1 196 -20 213
-30 25 -66 22 -94 -5z"/>
<path d="M1737 4536 c-98 -36 -152 -116 -152 -226 0 -55 5 -76 34 -130 18 -36
44 -87 58 -113 58 -115 100 -383 113 -736 5 -141 14 -303 20 -360 5 -58 12
-247 15 -420 9 -571 35 -743 140 -951 114 -226 298 -359 532 -385 l60 -7 -5
-132 c-5 -154 8 -241 68 -442 21 -72 40 -137 42 -144 4 -17 -34 -28 -105 -29
-103 -2 -157 -40 -157 -111 0 -26 7 -43 26 -61 24 -22 33 -24 127 -24 90 1
108 4 153 27 61 32 99 75 114 126 15 54 14 57 -35 214 -75 242 -93 360 -74
488 l12 83 81 -7 c44 -3 258 -9 474 -12 l393 -7 -6 -61 c-9 -77 10 -190 74
-446 34 -136 46 -199 39 -207 -7 -8 -35 -13 -75 -13 -103 0 -158 -34 -170
-103 -5 -31 -1 -41 24 -66 37 -37 87 -47 161 -32 103 21 179 73 213 146 24 51
24 85 -1 165 -100 321 -129 497 -100 600 l10 36 97 12 c229 29 502 106 620
176 262 154 385 450 309 747 -30 121 -75 215 -133 279 -60 67 -112 96 -224
125 -523 135 -530 137 -809 254 -281 118 -499 229 -605 307 -238 178 -444 434
-717 889 -53 88 -120 193 -150 234 -29 40 -68 94 -85 120 -53 74 -133 150
-190 177 -64 32 -161 41 -216 20z m179 -168 c28 -19 67 -61 94 -99 25 -36 64
-89 86 -117 23 -28 95 -140 160 -249 251 -422 377 -596 551 -763 204 -197 339
-279 703 -428 107 -44 229 -96 270 -115 117 -55 365 -131 663 -203 144 -35
210 -103 265 -274 29 -89 35 -162 23 -245 -23 -142 -118 -283 -241 -352 -61
-35 -237 -91 -400 -129 -234 -53 -522 -65 -1093 -45 -142 5 -290 7 -330 4 -96
-7 -242 19 -323 57 -111 53 -194 153 -258 313 -76 189 -93 326 -101 807 -3
195 -10 398 -15 450 -5 52 -12 192 -15 310 -7 249 -16 343 -51 534 -29 163
-74 308 -111 362 -59 87 -68 150 -28 189 36 37 90 34 151 -7z"/>
<path d="M2520 2620 c-27 -27 -25 -56 5 -85 30 -31 69 -32 89 -3 33 46 4 108
-49 108 -14 0 -34 -9 -45 -20z"/>
<path d="M2958 2377 c-9 -7 -20 -25 -23 -40 -6 -22 -1 -32 25 -57 40 -37 62
-38 89 -4 27 35 26 59 -4 89 -26 27 -60 32 -87 12z"/>
<path d="M5263 3981 c-62 -23 -93 -44 -150 -103 -61 -62 -87 -127 -86 -213 0
-136 76 -255 197 -311 51 -23 67 -26 131 -22 186 12 338 155 352 332 10 120
-37 210 -150 284 -68 46 -72 47 -156 50 -65 2 -99 -2 -138 -17z m121 -301 c14
-5 26 -14 26 -19 0 -14 -30 -41 -45 -41 -18 0 -38 37 -31 56 6 17 16 17 50 4z"/>
<path d="M4192 3742 c-68 -25 -137 -84 -175 -151 -26 -45 -31 -68 -35 -137 -4
-71 -1 -89 20 -135 52 -112 133 -169 242 -169 176 0 306 134 306 316 0 68 -26
160 -58 204 -54 73 -198 108 -300 72z m98 -281 c0 -22 -19 -41 -42 -41 -23 0
-23 11 3 44 22 28 39 27 39 -3z"/>
<path d="M5324 1111 c-42 -26 -78 -117 -71 -181 7 -62 50 -100 113 -100 80 0
124 67 124 191 0 76 -20 100 -86 106 -37 3 -57 -1 -80 -16z"/>
</g>
</svg>
