<?xml version="1.0" standalone="no"?>
<!DOCTYPE svg PUBLIC "-//W3C//DTD SVG 20010904//EN"
 "http://www.w3.org/TR/2001/REC-SVG-20010904/DTD/svg10.dtd">
<svg version="1.0" xmlns="http://www.w3.org/2000/svg"
 width="600.000000pt" height="600.000000pt" viewBox="0 0 600.000000 600.000000"
 preserveAspectRatio="xMidYMid meet">
<metadata>
Created by potrace 1.15, written by Peter Selinger 2001-2017
</metadata>
<g transform="translate(0.000000,600.000000) scale(0.100000,-0.100000)"
fill="#16364b" stroke="none">
<path d="M1522 5745 c-35 -29 -44 -50 -76 -175 -37 -146 -48 -235 -44 -350 4
-132 27 -187 96 -231 97 -61 199 -28 310 101 120 139 272 366 291 437 12 43
-2 93 -35 124 -20 19 -37 24 -74 24 -55 0 -93 -22 -125 -74 -11 -17 -59 -92
-108 -166 -78 -121 -107 -154 -107 -126 0 22 32 162 57 247 30 106 27 132 -22
181 -29 29 -40 33 -83 33 -39 0 -57 -6 -80 -25z"/>
<path d="M835 5509 c-176 -62 -281 -226 -273 -427 2 -70 8 -98 30 -142 29 -59
84 -122 133 -152 68 -41 151 -11 180 65 23 61 8 107 -53 163 -41 38 -45 46
-45 87 1 52 13 79 56 124 38 40 74 49 122 29 104 -44 195 8 195 111 0 58 -32
100 -97 130 -78 36 -169 40 -248 12z"/>
<path d="M3354 5451 c-32 -20 -54 -64 -54 -110 0 -44 37 -89 110 -137 38 -25
70 -47 70 -50 0 -3 -9 -17 -20 -31 -49 -62 -35 -141 38 -223 116 -130 286
-146 362 -33 20 29 25 49 25 97 0 52 -6 72 -39 132 -76 140 -180 243 -338 337
-70 42 -108 46 -154 18z"/>
<path d="M2303 5200 c-56 -34 -66 -61 -74 -189 -11 -197 -46 -257 -194 -341
-106 -60 -128 -87 -128 -155 0 -74 46 -130 118 -142 46 -7 209 74 282 141 60
55 122 152 153 241 48 137 65 320 36 390 -29 68 -126 96 -193 55z"/>
<path d="M3000 5161 c-140 -45 -238 -213 -215 -366 7 -53 52 -111 102 -131 49
-21 124 -17 200 11 96 34 127 71 143 165 31 183 -33 311 -160 325 -25 2 -56 1
-70 -4z"/>
<path d="M4766 4820 c-35 -11 -63 -36 -83 -74 -20 -38 -13 -263 11 -348 40
-144 122 -259 220 -304 59 -28 166 -33 219 -11 119 51 172 184 133 337 -40
154 -157 274 -366 374 -78 38 -87 40 -134 26z m224 -450 c6 -11 8 -20 6 -20
-3 0 -10 9 -16 20 -6 11 -8 20 -6 20 3 0 10 -9 16 -20z"/>
<path d="M2723 4172 c-69 -25 -117 -63 -150 -120 -37 -62 -39 -165 -6 -228 63
-120 213 -172 398 -140 114 19 274 95 329 156 32 36 36 46 36 96 0 105 -45
143 -260 215 -123 41 -267 50 -347 21z"/>
<path d="M1055 4083 c-68 -19 -110 -87 -103 -170 4 -42 11 -60 34 -84 41 -43
53 -48 157 -65 51 -8 107 -19 125 -25 33 -11 33 -11 15 -32 -35 -39 -281 -191
-439 -270 -39 -20 -83 -49 -97 -66 -49 -59 -44 -151 11 -204 52 -49 112 -59
184 -30 54 22 207 106 273 150 l50 33 15 -44 c18 -54 44 -84 87 -102 44 -19
82 -17 120 4 17 9 53 29 80 44 l49 26 52 -34 c159 -107 342 -36 342 131 0 78
-44 135 -135 177 -43 19 -67 22 -167 23 -118 0 -137 6 -104 34 41 34 60 189
32 256 -23 54 -101 130 -164 160 -106 51 -359 104 -417 88z"/>
<path d="M4288 3789 c-177 -19 -307 -112 -353 -250 -26 -76 -17 -192 18 -252
57 -96 156 -150 278 -150 69 0 88 5 143 32 41 20 82 50 110 82 85 94 149 260
150 387 1 61 -1 65 -35 97 -52 47 -177 69 -311 54z m-8 -309 c0 -15 -38 -50
-55 -50 -26 0 -15 28 20 48 25 14 35 15 35 2z"/>
<path d="M5160 3460 c-160 -38 -290 -157 -326 -299 -39 -153 38 -309 174 -355
167 -57 364 57 418 242 22 73 15 182 -14 239 -30 58 -127 160 -160 167 -15 4
-34 8 -42 10 -8 2 -31 0 -50 -4z"/>
<path d="M3446 3393 c-46 -7 -125 -95 -184 -204 -58 -107 -64 -145 -32 -197
29 -48 77 -65 145 -53 71 13 104 31 148 80 47 53 66 90 82 166 15 72 6 136
-23 169 -19 21 -74 47 -94 45 -7 -1 -26 -4 -42 -6z"/>
<path d="M2340 3043 c-44 -14 -68 -31 -125 -87 -70 -70 -82 -89 -158 -257 -41
-91 -89 -147 -176 -205 -76 -51 -231 -200 -294 -281 -121 -159 -205 -366 -242
-598 -32 -197 7 -353 131 -515 135 -178 330 -310 539 -366 110 -30 318 -25
455 9 274 70 476 231 604 486 68 133 140 359 177 551 61 321 -34 660 -239 852
-37 35 -105 112 -152 171 -98 126 -169 195 -237 228 -63 30 -201 36 -283 12z
m178 -453 c27 -32 59 -79 71 -103 16 -33 43 -60 104 -105 108 -79 121 -95 147
-171 87 -262 -31 -747 -233 -952 -105 -107 -194 -143 -352 -143 -115 1 -195
19 -300 69 -215 103 -259 247 -168 540 52 166 125 284 223 362 264 209 319
274 406 476 20 48 41 87 45 87 4 0 30 -27 57 -60z"/>
<path d="M775 2600 c-62 -41 -84 -133 -44 -183 11 -15 61 -48 111 -73 147 -77
248 -187 263 -290 11 -74 -48 -144 -110 -128 -47 12 -128 98 -180 189 -53 96
-78 115 -148 115 -52 0 -93 -27 -113 -75 -21 -50 -1 -103 89 -233 64 -94 154
-175 237 -215 87 -42 187 -44 270 -6 67 31 142 104 177 173 34 66 43 195 20
277 -43 147 -211 330 -399 433 -75 42 -127 46 -173 16z"/>
<path d="M4185 2203 c-65 -34 -105 -95 -105 -159 0 -31 -3 -35 -17 -29 -10 5
-39 13 -64 18 -40 9 -52 7 -90 -11 -107 -52 -120 -148 -55 -412 46 -191 50
-200 89 -238 36 -35 75 -52 117 -52 15 0 52 -11 82 -25 129 -60 259 -2 309
141 20 54 21 73 15 219 -12 326 -23 432 -48 477 -43 78 -155 112 -233 71z"/>
</g>
</svg>
