<?xml version="1.0" standalone="no"?>
<!DOCTYPE svg PUBLIC "-//W3C//DTD SVG 20010904//EN"
 "http://www.w3.org/TR/2001/REC-SVG-20010904/DTD/svg10.dtd">
<svg version="1.0" xmlns="http://www.w3.org/2000/svg"
 width="600.000000pt" height="600.000000pt" viewBox="0 0 600.000000 600.000000"
 preserveAspectRatio="xMidYMid meet">
<metadata>
Created by potrace 1.15, written by Peter Selinger 2001-2017
</metadata>
<g transform="translate(0.000000,600.000000) scale(0.100000,-0.100000)"
fill="#16364b" stroke="none">
<path d="M1514 5756 c-28 -13 -129 -54 -225 -91 -236 -91 -259 -107 -261 -176
-2 -74 50 -109 164 -109 115 0 467 29 488 40 82 44 57 172 -34 172 l-38 0 28
29 c40 42 40 101 1 135 -35 30 -59 30 -123 0z"/>
<path d="M2358 5407 c-23 -22 -25 -31 -31 -162 -21 -440 -90 -613 -282 -715
-84 -45 -95 -57 -95 -102 0 -80 69 -109 153 -67 142 72 237 168 301 303 52
109 73 189 92 356 27 245 16 385 -31 404 -35 13 -82 6 -107 -17z"/>
<path d="M3518 5303 c-9 -10 -21 -28 -27 -40 -52 -100 94 -315 241 -354 86
-23 146 30 134 118 -13 98 -139 256 -222 281 -59 17 -108 15 -126 -5z"/>
<path d="M2973 5105 c-125 -63 -196 -234 -145 -349 18 -38 29 -50 68 -67 55
-25 102 -21 173 16 105 53 147 114 158 230 7 75 -11 122 -62 160 -53 41 -123
45 -192 10z m67 -194 c0 -24 -32 -59 -38 -42 -4 11 23 61 33 61 3 0 5 -9 5
-19z"/>
<path d="M4784 4771 c-12 -5 -31 -22 -43 -37 -19 -25 -21 -39 -21 -175 0 -360
66 -509 234 -526 75 -8 136 22 173 84 22 38 26 57 26 117 -2 238 -243 590
-369 537z"/>
<path d="M2635 4225 c-50 -17 -112 -85 -121 -132 -21 -111 22 -197 125 -250
56 -29 72 -33 145 -33 88 0 162 17 236 55 57 29 119 79 142 113 36 54 13 148
-44 186 -13 8 -76 29 -141 46 -133 34 -271 40 -342 15z"/>
<path d="M1153 4143 c-32 -6 -81 -55 -89 -88 -4 -16 -2 -42 5 -59 8 -24 8 -32
-1 -35 -6 -2 -27 -18 -45 -35 -29 -26 -34 -38 -35 -74 -1 -58 40 -100 147
-153 69 -34 90 -40 151 -41 135 -3 211 61 221 185 12 145 -92 257 -275 296
-29 6 -54 10 -55 10 -1 -1 -12 -4 -24 -6z"/>
<path d="M5240 3816 c-165 -46 -270 -163 -270 -302 0 -165 106 -308 245 -329
135 -20 307 74 381 207 26 47 29 63 29 138 0 121 -35 182 -156 270 -38 27 -49
30 -113 29 -39 0 -91 -6 -116 -13z m90 -298 c0 -16 -30 -48 -45 -48 -18 0 -27
30 -14 46 14 17 59 19 59 2z"/>
<path d="M4172 3750 c-113 -54 -202 -170 -218 -287 -9 -71 15 -148 65 -204
168 -192 469 -117 547 136 19 60 26 210 13 259 -21 78 -122 126 -263 126 -69
0 -90 -4 -144 -30z m112 -272 c-15 -27 -38 -48 -51 -48 -18 0 -16 20 4 42 18
21 58 25 47 6z"/>
<path d="M3441 3364 c-65 -55 -187 -282 -175 -328 8 -35 49 -66 86 -66 70 0
173 91 223 195 49 105 46 170 -9 204 -45 28 -88 27 -125 -5z"/>
<path d="M1555 3134 c-286 -51 -453 -134 -561 -277 -62 -82 -93 -154 -111
-256 -42 -243 101 -462 360 -547 120 -39 212 -90 259 -143 46 -53 74 -105 152
-290 79 -184 128 -263 221 -357 88 -88 153 -130 260 -166 64 -21 87 -23 265
-23 134 1 227 6 295 17 55 10 168 22 250 28 83 7 230 25 328 41 97 16 241 38
319 49 181 25 279 52 378 104 161 83 420 286 497 389 160 215 229 541 160 752
-66 202 -239 383 -419 440 -148 47 -288 30 -433 -51 -189 -106 -301 -147 -390
-146 -346 6 -403 9 -480 31 -104 28 -192 70 -340 163 -209 131 -367 198 -565
238 -118 24 -323 26 -445 4z m427 -388 c130 -37 225 -81 352 -166 274 -181
412 -239 671 -280 61 -10 124 -24 142 -31 38 -15 135 -4 323 37 208 46 257 67
470 200 94 58 155 41 259 -72 l61 -67 0 -66 c0 -85 -20 -163 -69 -265 -50
-105 -78 -141 -178 -225 -188 -158 -346 -228 -598 -260 -132 -18 -568 -49
-601 -44 -17 3 -69 -2 -115 -11 -127 -24 -305 -36 -380 -27 -149 19 -215 89
-329 352 -114 264 -281 437 -528 550 -131 60 -132 61 -163 96 -22 25 -29 44
-29 74 0 109 96 172 335 220 65 13 313 3 377 -15z"/>
<path d="M416 2117 c-37 -37 -33 -69 20 -177 96 -198 200 -304 329 -339 87
-23 164 30 173 117 11 120 -64 206 -308 352 -127 76 -175 86 -214 47z"/>
<path d="M5015 1441 c-11 -5 -29 -18 -39 -30 -12 -13 -31 -21 -52 -21 -40 0
-89 -39 -103 -83 -7 -22 -8 -51 -1 -91 23 -144 73 -223 146 -233 58 -7 98 18
130 83 26 54 64 221 64 282 -1 74 -75 121 -145 93z"/>
</g>
</svg>
