<?xml version="1.0" standalone="no"?>
<!DOCTYPE svg PUBLIC "-//W3C//DTD SVG 20010904//EN"
 "http://www.w3.org/TR/2001/REC-SVG-20010904/DTD/svg10.dtd">
<svg version="1.0" xmlns="http://www.w3.org/2000/svg"
 width="600.000000pt" height="600.000000pt" viewBox="0 0 600.000000 600.000000"
 preserveAspectRatio="xMidYMid meet">
<metadata>
Created by potrace 1.15, written by Peter Selinger 2001-2017
</metadata>
<g transform="translate(0.000000,600.000000) scale(0.100000,-0.100000)"
fill="#16364b" stroke="none">
<path d="M2780 5542 c-43 -23 -117 -140 -148 -236 -43 -130 -19 -245 68 -318
66 -57 117 -71 288 -76 83 -2 152 -7 152 -11 0 -3 -29 -27 -63 -53 -154 -117
-325 -288 -449 -453 -60 -78 -60 -79 -56 -136 3 -45 12 -69 41 -113 20 -30 48
-63 61 -71 32 -21 147 -41 326 -55 167 -13 297 -31 424 -61 109 -25 155 -19
203 25 28 25 36 41 40 79 12 100 -40 154 -176 186 -106 25 -346 66 -443 76
-38 4 -68 10 -68 14 0 4 31 43 69 87 64 73 177 177 311 284 78 62 158 140 180
175 50 80 45 176 -12 241 -72 81 -165 103 -380 86 -188 -15 -238 -15 -238 -1
0 5 16 48 35 95 19 46 35 98 35 114 0 39 -22 90 -49 114 -31 28 -107 32 -151
8z"/>
<path d="M1590 5253 c-119 -44 -238 -136 -361 -280 -165 -192 -269 -373 -269
-469 0 -65 11 -95 47 -128 43 -40 84 -48 167 -30 192 41 396 57 396 31 0 -8
-13 -58 -29 -113 -38 -127 -54 -219 -46 -261 3 -19 22 -51 41 -72 l34 -38 -63
-18 c-113 -31 -167 -85 -167 -168 0 -52 14 -82 54 -112 50 -38 105 -35 271 15
260 78 469 176 507 238 60 97 -2 227 -114 239 -38 4 -57 -1 -137 -42 -51 -25
-96 -44 -99 -40 -3 3 7 54 23 113 48 180 57 234 52 302 -12 182 -169 289 -411
278 -42 -2 -76 0 -76 3 0 3 25 33 55 67 64 70 151 138 235 183 89 47 121 127
86 210 -32 76 -124 119 -196 92z"/>
<path d="M4405 4625 c-84 -16 -148 -38 -275 -95 -151 -68 -180 -97 -180 -180
0 -53 21 -93 63 -119 52 -32 109 -28 196 14 107 51 241 97 241 82 0 -7 -20
-55 -43 -107 -39 -86 -72 -146 -221 -405 -67 -115 -64 -155 17 -245 66 -74 84
-80 227 -80 135 -1 290 -13 383 -31 56 -11 58 -13 53 -38 -3 -14 -62 -137
-131 -273 -136 -268 -145 -300 -106 -364 21 -34 75 -64 117 -64 36 0 106 34
122 60 7 11 46 84 86 163 131 251 205 446 206 538 0 54 -24 124 -58 167 -62
78 -182 114 -442 132 -85 6 -155 12 -157 13 -1 2 18 39 43 82 77 134 153 291
180 371 66 198 8 350 -147 383 -61 13 -85 13 -174 -4z"/>
<path d="M3762 3675 c-261 -58 -378 -298 -192 -392 80 -41 161 -22 206 48 25
40 58 64 74 54 14 -9 12 -81 -4 -140 -22 -85 -83 -206 -106 -212 -46 -12 -168
-77 -218 -116 -68 -51 -96 -104 -89 -165 9 -81 66 -134 154 -140 54 -4 62 -1
108 32 73 52 168 99 265 131 169 55 231 106 246 200 7 51 -21 122 -62 154 -23
18 -24 23 -14 63 14 61 12 184 -4 243 -52 196 -182 281 -364 240z"/>
<path d="M2495 3536 c-147 -34 -378 -147 -429 -209 -25 -32 -30 -47 -30 -91 0
-60 24 -99 77 -128 57 -30 100 -23 236 41 147 69 216 91 283 91 44 0 48 -2 48
-24 0 -46 -42 -163 -111 -304 -74 -154 -80 -182 -50 -248 28 -61 73 -89 143
-89 72 0 95 20 153 135 175 348 209 543 122 693 -31 53 -72 87 -141 118 -62
27 -214 35 -301 15z"/>
<path d="M1139 3246 c-120 -21 -257 -104 -285 -173 -32 -75 -7 -172 59 -230
40 -35 88 -48 148 -40 48 6 47 24 13 -238 -50 -397 -51 -668 -3 -756 13 -24
44 -57 67 -74 40 -27 50 -30 122 -29 123 1 140 14 223 170 147 275 238 413
366 554 40 45 77 78 81 73 22 -25 32 -109 26 -211 -15 -217 -47 -518 -66 -613
-24 -117 -25 -160 -5 -200 35 -66 133 -89 208 -49 l37 20 0 -34 c0 -64 40
-310 69 -426 33 -131 86 -278 124 -343 106 -181 286 -256 474 -198 73 22 187
90 203 122 6 10 27 26 48 34 55 23 80 52 124 140 93 184 179 308 261 373 59
48 99 42 211 -32 122 -79 178 -105 259 -122 85 -18 130 -12 214 27 74 35 147
112 165 172 7 27 26 54 50 76 92 80 105 172 44 321 -28 67 -39 111 -40 149
l-1 55 49 18 c27 10 115 30 195 44 80 13 169 32 196 41 131 42 217 109 261
205 26 57 29 73 29 173 0 132 -15 189 -63 246 -130 151 -379 72 -401 -128 l-6
-58 -105 -12 c-134 -16 -225 -38 -322 -79 -103 -43 -169 -93 -217 -165 -62
-93 -83 -158 -89 -279 -5 -118 15 -221 68 -352 15 -37 24 -70 20 -73 -4 -2
-56 27 -116 65 -154 99 -196 114 -319 115 -85 0 -109 -4 -160 -25 -126 -54
-270 -171 -366 -301 -28 -38 -80 -126 -116 -195 -51 -100 -71 -130 -96 -143
-18 -9 -44 -24 -58 -34 -24 -16 -27 -16 -42 1 -55 60 -114 253 -141 462 -22
167 -33 209 -61 246 -52 69 -175 83 -255 30 -22 -14 -40 -22 -40 -17 0 6 9 48
19 93 39 168 76 588 69 783 -6 146 -32 269 -76 350 -31 58 -106 109 -175 119
-57 9 -138 -8 -201 -41 -64 -35 -213 -183 -286 -285 -56 -79 -77 -96 -67 -55
3 12 13 103 22 202 25 265 11 362 -65 448 -66 75 -163 104 -281 83z"/>
<path d="M3020 2590 c-78 -17 -295 -76 -425 -115 -27 -9 -60 -24 -72 -34 -93
-79 -82 -224 24 -291 67 -43 110 -46 233 -16 58 14 161 37 230 51 69 14 135
28 148 30 31 7 29 -11 -13 -134 -19 -56 -35 -113 -35 -126 0 -65 56 -144 125
-176 49 -23 84 -24 133 -3 65 27 99 70 143 182 81 207 100 350 58 442 -82 180
-279 249 -549 190z"/>
</g>
</svg>
