<?xml version="1.0" standalone="no"?>
<!DOCTYPE svg PUBLIC "-//W3C//DTD SVG 20010904//EN"
 "http://www.w3.org/TR/2001/REC-SVG-20010904/DTD/svg10.dtd">
<svg version="1.0" xmlns="http://www.w3.org/2000/svg"
 width="600.000000pt" height="600.000000pt" viewBox="0 0 600.000000 600.000000"
 preserveAspectRatio="xMidYMid meet">
<metadata>
Created by potrace 1.15, written by Peter Selinger 2001-2017
</metadata>
<g transform="translate(0.000000,600.000000) scale(0.100000,-0.100000)"
fill="#16364b" stroke="none">
<path d="M3055 5510 c-28 -11 -72 -60 -84 -93 -6 -16 -11 -44 -11 -64 0 -31 8
-44 56 -90 89 -87 107 -157 79 -311 -10 -52 -15 -113 -13 -137 9 -76 73 -135
145 -135 92 0 125 40 148 181 48 299 -16 530 -174 631 -46 29 -104 36 -146 18z"/>
<path d="M2000 5428 c-85 -44 -103 -145 -46 -262 34 -69 90 -115 189 -152 40
-14 78 -34 85 -42 19 -25 30 -74 47 -222 20 -167 38 -210 101 -241 109 -52
224 25 209 141 -3 25 -15 113 -25 197 -35 270 -87 353 -269 423 -59 23 -66 29
-72 59 -9 45 -38 82 -80 103 -46 24 -86 23 -139 -4z"/>
<path d="M1440 4780 c-63 -8 -85 -18 -119 -53 -28 -31 -38 -100 -22 -150 14
-41 69 -93 107 -103 14 -4 88 -2 164 4 169 14 285 3 379 -35 84 -34 130 -34
176 1 44 34 65 74 65 126 0 103 -83 165 -272 204 -81 17 -368 21 -478 6z"/>
<path d="M4355 4649 c-65 -20 -105 -74 -105 -142 0 -49 2 -51 75 -125 105
-105 145 -196 170 -392 20 -156 195 -205 276 -78 18 29 20 44 15 128 -12 230
-116 443 -278 567 -57 44 -105 58 -153 42z"/>
<path d="M3205 4484 c-24 -8 -72 -46 -129 -102 -189 -185 -226 -216 -398 -329
-82 -53 -133 -94 -143 -113 -64 -124 85 -256 216 -190 83 43 207 130 301 212
163 143 312 288 331 321 61 111 -56 243 -178 201z"/>
<path d="M1662 4363 c-54 -26 -77 -68 -77 -140 0 -116 56 -154 295 -203 213
-43 403 -33 492 25 105 70 100 228 -9 280 -33 16 -48 17 -142 7 -116 -12 -192
-6 -358 27 -121 25 -157 26 -201 4z"/>
<path d="M3769 3957 c-24 -13 -114 -71 -199 -129 -263 -179 -391 -251 -520
-293 -112 -36 -148 -77 -137 -156 11 -80 83 -139 171 -139 74 0 283 88 424
177 31 20 125 86 207 146 83 60 164 115 180 123 97 41 134 162 74 238 -47 59
-126 72 -200 33z"/>
<path d="M2230 3785 c-187 -50 -385 -68 -500 -45 -85 17 -150 -19 -185 -104
-30 -70 5 -164 70 -192 52 -21 270 -18 435 6 368 55 442 90 442 209 0 61 -34
115 -88 137 -44 18 -72 17 -174 -11z"/>
<path d="M5019 3636 c-125 -44 -181 -153 -153 -299 26 -134 13 -234 -45 -361
-30 -66 -158 -262 -310 -476 -109 -154 -127 -201 -110 -281 14 -64 62 -127
121 -157 85 -44 205 -26 264 40 27 30 191 261 326 458 128 188 172 274 205
399 46 175 33 454 -28 573 -48 94 -168 141 -270 104z"/>
<path d="M1964 3151 c-55 -34 -74 -67 -74 -132 0 -51 4 -63 32 -95 52 -59 168
-98 388 -130 63 -9 130 -25 149 -35 158 -85 290 145 152 263 -53 45 -113 64
-261 83 -69 8 -160 27 -202 40 -92 30 -142 31 -184 6z"/>
<path d="M4397 3120 c-15 -5 -60 -39 -101 -77 -40 -37 -109 -89 -152 -114
-154 -90 -456 -198 -629 -224 -60 -9 -127 -24 -148 -33 -43 -18 -82 -62 -92
-105 -18 -69 34 -155 106 -175 86 -23 346 26 603 115 230 80 365 158 515 299
89 84 105 114 99 183 -6 59 -30 94 -84 121 -43 21 -71 24 -117 10z"/>
<path d="M1415 2948 c-42 -15 -84 -56 -106 -103 -16 -34 -19 -66 -19 -207 0
-345 61 -617 186 -830 101 -170 151 -221 237 -242 47 -11 130 19 165 59 67 75
67 164 0 267 -116 178 -147 301 -187 733 -12 122 -24 201 -34 220 -47 91 -150
135 -242 103z"/>
<path d="M2117 2370 c-43 -8 -81 -33 -111 -74 -16 -21 -21 -42 -21 -91 0 -69
15 -99 69 -139 22 -17 47 -22 144 -26 122 -6 143 -12 200 -61 38 -34 70 -44
117 -36 71 12 125 81 125 163 0 125 -158 243 -349 259 -36 3 -82 7 -101 9 -19
2 -52 0 -73 -4z"/>
<path d="M4085 2069 c-607 -146 -666 -158 -982 -204 -228 -33 -272 -45 -304
-81 -50 -57 -64 -154 -33 -220 22 -46 75 -91 125 -104 78 -21 456 39 815 129
132 33 318 76 414 96 201 41 235 58 275 135 53 104 2 240 -100 269 -54 15 -72
13 -210 -20z"/>
<path d="M4801 1685 c-18 -8 -59 -38 -90 -67 -102 -94 -251 -180 -418 -243
-37 -15 -169 -55 -293 -90 -432 -123 -463 -134 -504 -187 -71 -95 -48 -226 51
-289 73 -45 125 -41 367 31 567 168 617 186 769 278 122 73 228 155 303 233
87 92 113 152 94 220 -28 96 -177 158 -279 114z"/>
<path d="M2102 1563 c-52 -25 -77 -69 -77 -133 0 -50 5 -62 54 -133 71 -102
191 -214 277 -259 143 -75 289 -100 353 -63 55 32 76 69 76 130 0 84 -47 134
-150 161 -129 34 -235 110 -320 228 -22 31 -54 62 -72 71 -40 19 -99 19 -141
-2z"/>
<path d="M2045 966 c-100 -44 -149 -201 -88 -284 43 -59 369 -234 503 -271
219 -60 550 -52 762 20 79 26 114 51 138 99 34 66 36 111 7 173 -35 76 -86
111 -165 110 -31 0 -73 -8 -92 -16 -106 -46 -335 -61 -491 -31 -107 20 -242
75 -334 135 -41 26 -88 55 -104 64 -36 18 -95 19 -136 1z"/>
</g>
</svg>
