<?xml version="1.0" standalone="no"?>
<!DOCTYPE svg PUBLIC "-//W3C//DTD SVG 20010904//EN"
 "http://www.w3.org/TR/2001/REC-SVG-20010904/DTD/svg10.dtd">
<svg version="1.0" xmlns="http://www.w3.org/2000/svg"
 width="600.000000pt" height="600.000000pt" viewBox="0 0 600.000000 600.000000"
 preserveAspectRatio="xMidYMid meet">
<metadata>
Created by potrace 1.15, written by Peter Selinger 2001-2017
</metadata>
<g transform="translate(0.000000,600.000000) scale(0.100000,-0.100000)"
fill="#16364b" stroke="none">
<path d="M2403 5410 c-38 -15 -43 -41 -43 -217 0 -326 -51 -503 -174 -609 -22
-20 -78 -53 -124 -75 -94 -45 -113 -69 -93 -117 12 -29 47 -52 77 -52 8 0 43
14 77 31 291 147 369 309 393 816 8 159 0 194 -47 218 -32 17 -36 17 -66 5z"/>
<path d="M3537 5319 c-19 -11 -47 -70 -47 -99 0 -10 18 -54 40 -98 90 -179
227 -267 307 -198 24 21 28 32 27 73 -1 108 -141 298 -236 321 -56 14 -68 14
-91 1z"/>
<path d="M3002 5123 c-95 -52 -165 -165 -166 -267 -1 -171 137 -208 286 -76
114 100 136 295 38 345 -39 20 -118 19 -158 -2z m62 -155 c-13 -43 -34 -77
-54 -88 -16 -9 -20 -8 -20 5 0 31 51 105 72 105 5 0 6 -10 2 -22z"/>
<path d="M4751 4753 c-53 -26 -65 -67 -57 -193 8 -128 18 -198 45 -287 63
-212 201 -285 305 -163 60 72 69 189 24 325 -49 152 -198 336 -270 335 -7 0
-28 -8 -47 -17z"/>
<path d="M2683 4230 c-143 -34 -167 -207 -43 -313 131 -111 344 -101 465 23
60 62 65 147 11 201 -36 36 -284 101 -376 98 -14 -1 -40 -4 -57 -9z"/>
<path d="M1142 4155 c-77 -34 -102 -236 -41 -339 66 -112 253 -92 317 34 55
110 -2 218 -150 284 -76 35 -89 37 -126 21z"/>
<path d="M5255 3961 c-173 -27 -265 -184 -221 -374 36 -153 126 -254 244 -273
86 -14 225 37 312 114 94 83 126 218 78 324 -51 108 -182 202 -298 211 -36 3
-88 2 -115 -2z m127 -309 c11 -11 -13 -40 -36 -44 -21 -3 -50 38 -39 55 6 10
63 1 75 -11z"/>
<path d="M4193 3760 c-90 -18 -176 -80 -216 -155 -18 -33 -22 -57 -22 -135 0
-84 3 -101 28 -147 39 -76 81 -118 145 -150 217 -107 452 104 452 405 0 84
-12 116 -55 142 -68 42 -225 61 -332 40z m80 -287 c-10 -29 -24 -43 -44 -43
-26 0 -24 25 3 44 30 21 49 20 41 -1z"/>
<path d="M3461 3373 c-66 -33 -215 -256 -215 -322 0 -61 68 -90 133 -57 45 24
149 142 182 207 36 72 41 132 13 160 -28 27 -73 32 -113 12z"/>
<path d="M1110 3269 c-406 -36 -589 -428 -324 -694 93 -93 249 -161 391 -171
43 -3 107 -12 143 -21 128 -32 213 -157 286 -419 99 -356 143 -471 220 -574
142 -188 474 -307 839 -300 85 2 410 -13 665 -30 85 -6 184 -8 220 -5 100 10
439 53 590 76 333 51 708 232 863 417 59 69 126 205 163 327 25 83 28 104 28
260 0 155 -2 179 -27 269 -62 226 -184 373 -397 481 -146 74 -283 101 -468 92
-272 -13 -446 -83 -687 -276 -49 -39 -119 -86 -155 -104 -61 -30 -70 -32 -180
-32 -96 0 -126 4 -180 24 -148 54 -268 126 -679 411 -251 174 -420 247 -627
270 -107 11 -547 11 -684 -1z m675 -383 c106 -29 180 -71 458 -259 328 -221
356 -238 533 -326 174 -86 265 -117 388 -132 217 -27 408 37 696 233 174 118
214 140 315 175 179 62 343 35 493 -80 151 -115 193 -381 92 -591 -41 -86 -97
-145 -203 -210 -156 -97 -330 -152 -567 -179 -408 -48 -454 -50 -935 -44 -661
9 -804 30 -893 132 -55 62 -62 79 -181 462 -110 354 -238 543 -431 641 -89 45
-233 82 -320 82 -63 0 -114 16 -150 47 -29 24 -30 27 -15 42 21 22 144 29 430
26 177 -2 244 -6 290 -19z"/>
<path d="M473 2070 c-43 -17 -60 -97 -25 -122 10 -7 29 -31 42 -53 63 -106
135 -167 222 -187 95 -21 174 48 147 129 -23 71 -122 152 -263 216 -61 28 -86
32 -123 17z"/>
<path d="M5313 1147 c-19 -7 -45 -29 -60 -52 -24 -35 -28 -50 -28 -111 0 -81
14 -106 73 -131 30 -12 37 -12 70 4 50 25 71 59 84 134 13 75 6 112 -27 145
-26 26 -60 30 -112 11z"/>
</g>
</svg>
