<?xml version="1.0" standalone="no"?>
<!DOCTYPE svg PUBLIC "-//W3C//DTD SVG 20010904//EN"
 "http://www.w3.org/TR/2001/REC-SVG-20010904/DTD/svg10.dtd">
<svg version="1.0" xmlns="http://www.w3.org/2000/svg"
 width="600.000000pt" height="600.000000pt" viewBox="0 0 600.000000 600.000000"
 preserveAspectRatio="xMidYMid meet">
<metadata>
Created by potrace 1.15, written by Peter Selinger 2001-2017
</metadata>
<g transform="translate(0.000000,600.000000) scale(0.100000,-0.100000)"
fill="#16364b" stroke="none">
<path d="M3095 5662 c-80 -51 -99 -119 -71 -253 38 -177 121 -263 376 -389 66
-33 120 -62 120 -64 0 -2 -66 -45 -147 -95 -387 -241 -483 -316 -483 -377 0
-17 -11 -29 -47 -46 -70 -35 -106 -86 -110 -156 -5 -67 16 -110 69 -142 46
-28 75 -25 168 16 95 41 203 64 306 64 68 0 76 2 109 31 64 56 70 160 13 224
l-29 34 38 24 c21 13 100 61 176 108 208 127 267 195 267 309 0 75 -26 126
-94 186 -57 51 -72 60 -268 153 -136 65 -157 89 -169 202 -10 88 -23 121 -63
158 -36 33 -119 40 -161 13z"/>
<path d="M1286 5373 c-32 -9 -123 -66 -178 -113 -151 -126 -260 -341 -287
-565 -17 -145 8 -281 61 -332 72 -70 171 -72 241 -5 43 41 50 86 27 168 -38
133 -19 265 55 389 50 82 77 109 172 171 89 58 116 94 116 154 0 46 -15 73
-57 105 -34 26 -109 40 -150 28z"/>
<path d="M1509 5082 c-84 -22 -114 -42 -140 -94 -52 -102 30 -217 155 -218 28
0 37 -4 33 -14 -74 -191 -60 -354 38 -451 39 -39 90 -65 160 -80 28 -6 25 -9
-65 -56 -98 -51 -185 -111 -257 -179 -78 -73 -79 -165 -3 -234 36 -32 46 -36
94 -36 50 0 58 4 122 55 89 71 247 149 346 170 87 18 128 49 148 111 31 92
-47 194 -149 194 l-30 0 21 36 c55 93 -7 209 -121 228 -46 7 -49 17 -25 74
106 246 86 418 -56 490 -55 28 -172 29 -271 4z"/>
<path d="M4507 4576 c-52 -19 -73 -40 -93 -92 -21 -56 -12 -104 27 -149 38
-43 80 -55 188 -55 103 0 102 -2 -54 -105 -119 -78 -135 -98 -135 -168 0 -122
129 -178 244 -105 189 120 352 265 395 352 34 69 28 160 -15 213 -66 81 -158
111 -374 118 -112 4 -154 2 -183 -9z"/>
<path d="M3970 3721 c-107 -33 -166 -112 -157 -211 7 -77 37 -131 117 -210
163 -161 338 -186 438 -64 72 87 57 215 -28 259 -26 13 -30 21 -30 56 0 49
-22 98 -55 122 -54 39 -221 67 -285 48z"/>
<path d="M2576 3698 c-70 -8 -221 -55 -287 -89 -69 -35 -111 -110 -95 -172 10
-40 50 -91 86 -109 49 -25 90 -22 191 12 49 17 118 33 154 37 l65 6 0 -29 c0
-82 -56 -200 -220 -464 -74 -118 -144 -235 -157 -259 -36 -70 -30 -134 20
-188 19 -21 19 -24 3 -63 -9 -22 -16 -55 -16 -73 0 -50 39 -118 87 -151 37
-26 52 -30 105 -29 52 0 78 8 148 40 98 47 272 113 295 113 8 0 15 -6 15 -14
0 -19 -78 -211 -144 -353 -61 -131 -66 -164 -37 -230 56 -122 262 -140 345
-29 76 100 213 442 241 601 24 139 -4 251 -85 334 -111 114 -263 126 -518 41
-64 -22 -117 -38 -119 -36 -2 1 33 63 78 137 88 147 188 346 214 424 46 138
56 255 29 345 -23 76 -110 163 -185 183 -76 21 -133 25 -213 15z"/>
<path d="M1145 3520 c-66 -13 -139 -46 -235 -105 -150 -93 -187 -145 -178
-251 11 -133 154 -219 266 -161 30 17 32 17 32 0 0 -33 -30 -146 -79 -303 -86
-272 -103 -343 -121 -507 -13 -120 -3 -172 42 -227 37 -45 63 -59 151 -81 64
-16 71 -16 112 0 38 14 60 38 172 182 270 351 491 616 505 607 25 -16 3 -153
-87 -524 -95 -392 -108 -486 -84 -599 28 -130 139 -195 246 -144 62 29 74 62
67 183 -6 96 -3 121 30 284 21 98 59 273 86 390 65 284 74 349 68 530 -5 124
-9 161 -28 210 -51 134 -160 182 -289 128 -53 -21 -147 -118 -324 -330 -88
-105 -162 -190 -164 -188 -3 2 12 50 32 107 97 268 129 400 129 529 0 102 -24
161 -86 215 -69 58 -155 76 -263 55z"/>
<path d="M3609 3231 c-220 -86 -341 -350 -215 -469 81 -77 193 -57 244 44 9
17 24 22 78 28 131 13 227 63 264 136 50 97 3 201 -115 256 -64 30 -186 33
-256 5z"/>
<path d="M4640 3209 c-58 -24 -100 -85 -100 -144 0 -52 21 -86 84 -134 59 -44
127 -126 146 -175 10 -27 8 -31 -45 -80 -63 -58 -80 -100 -65 -155 14 -51 35
-78 80 -101 57 -29 117 -26 171 8 154 98 206 311 119 490 -35 70 -162 207
-247 265 -46 32 -105 42 -143 26z"/>
<path d="M4507 2280 c-106 -33 -173 -163 -148 -281 6 -29 9 -54 7 -57 -3 -2
-69 8 -148 24 -264 52 -399 35 -506 -62 -100 -89 -144 -196 -163 -393 -14
-153 -1 -341 28 -397 l20 -39 -62 0 c-52 0 -67 -4 -98 -27 -19 -16 -42 -28
-49 -28 -7 0 -46 25 -86 55 -40 30 -94 69 -120 87 -26 18 -77 60 -113 94 -97
91 -207 156 -283 167 -117 18 -238 -64 -269 -184 -3 -13 -9 -21 -12 -18 -3 3
-16 104 -30 224 -14 120 -30 235 -35 255 -13 47 -74 105 -130 121 -116 35
-249 -71 -237 -190 25 -264 52 -481 68 -551 31 -130 96 -256 163 -318 69 -62
158 -121 256 -170 65 -32 84 -37 146 -37 59 0 76 4 107 25 68 47 89 112 73
223 -5 35 -5 62 1 68 5 5 42 -17 93 -57 154 -119 165 -126 227 -155 116 -54
253 -49 381 13 128 63 167 151 126 287 -6 21 -5 23 12 16 36 -15 112 -17 149
-5 48 16 111 72 137 124 23 45 37 171 38 334 0 56 2 102 5 102 10 0 157 -29
207 -41 57 -13 244 3 316 28 119 40 203 108 242 197 46 103 47 318 1 420 -22
51 -70 100 -124 128 -46 23 -145 33 -190 18z"/>
</g>
</svg>
