<?xml version="1.0" standalone="no"?>
<!DOCTYPE svg PUBLIC "-//W3C//DTD SVG 20010904//EN"
 "http://www.w3.org/TR/2001/REC-SVG-20010904/DTD/svg10.dtd">
<svg version="1.0" xmlns="http://www.w3.org/2000/svg"
 width="600.000000pt" height="600.000000pt" viewBox="0 0 600.000000 600.000000"
 preserveAspectRatio="xMidYMid meet">
<metadata>
Created by potrace 1.15, written by Peter Selinger 2001-2017
</metadata>
<g transform="translate(0.000000,600.000000) scale(0.100000,-0.100000)"
fill="#16364b" stroke="none">
<path d="M2639 5510 c-64 -34 -142 -181 -159 -299 -19 -138 42 -239 166 -274
68 -19 195 -22 323 -7 47 5 87 8 89 6 4 -5 -26 -35 -192 -189 -133 -125 -229
-247 -315 -402 -70 -126 -74 -155 -33 -229 49 -89 53 -90 295 -97 212 -7 409
-26 564 -55 63 -12 91 -13 122 -4 85 23 126 132 82 218 -36 70 -56 75 -441
107 -102 8 -200 18 -218 21 l-33 5 27 32 c14 18 104 115 199 217 194 207 265
290 288 336 86 168 -9 319 -213 339 -57 6 -216 -8 -352 -31 -47 -8 -48 0 -11
76 48 101 32 199 -38 236 -39 19 -107 17 -150 -6z"/>
<path d="M1617 5166 c-196 -81 -404 -258 -538 -460 -76 -115 -97 -179 -80
-238 19 -63 46 -94 95 -113 40 -16 50 -16 150 0 121 19 317 18 337 -2 10 -9 9
-39 -4 -136 -19 -138 -14 -171 31 -219 68 -74 211 -57 256 31 21 39 49 214 49
301 0 103 -30 178 -97 246 -63 62 -133 91 -260 107 l-89 11 52 48 c69 64 154
120 214 143 109 41 152 166 86 249 -47 60 -110 70 -202 32z"/>
<path d="M4285 4706 c-143 -33 -365 -127 -412 -174 -29 -29 -33 -39 -33 -85 0
-94 61 -157 153 -157 35 0 67 10 125 39 73 36 212 91 233 91 44 0 -93 -348
-207 -526 -62 -96 -56 -149 26 -252 63 -81 79 -85 288 -74 176 9 336 2 353
-15 16 -16 -61 -274 -162 -549 -41 -114 34 -205 158 -191 90 10 119 48 184
243 107 316 138 490 108 598 -14 52 -88 129 -148 155 -63 27 -196 49 -338 58
-62 3 -113 7 -113 8 0 2 16 35 35 74 121 245 162 500 99 625 -23 45 -73 95
-119 118 -51 26 -150 32 -230 14z"/>
<path d="M1990 4019 c-80 -36 -292 -105 -410 -134 -63 -15 -126 -34 -140 -42
-97 -57 -90 -215 11 -272 53 -30 87 -26 284 33 227 68 403 135 441 168 40 36
58 87 50 140 -18 109 -125 158 -236 107z"/>
<path d="M3793 3708 c-104 -16 -205 -69 -320 -166 -68 -57 -93 -98 -93 -151 0
-54 21 -94 62 -119 81 -48 136 -39 218 34 64 57 155 110 164 95 6 -10 -8 -95
-25 -151 -6 -19 -35 -87 -65 -150 l-55 -115 -85 -44 c-101 -51 -135 -90 -142
-160 -5 -58 14 -99 64 -138 57 -43 118 -38 216 16 42 23 152 73 243 111 195
80 237 106 265 160 53 103 -4 221 -118 245 -26 5 -32 10 -26 23 4 10 9 67 12
129 3 94 1 124 -17 182 -47 153 -150 223 -298 199z"/>
<path d="M2505 3480 c-93 -13 -235 -47 -339 -80 -75 -24 -101 -38 -124 -65
-87 -98 -21 -255 107 -255 24 0 99 18 166 39 147 47 226 64 280 59 39 -3 40
-4 37 -38 -5 -56 -40 -156 -89 -253 -65 -131 -60 -195 22 -242 73 -43 177 -23
224 44 38 53 109 212 132 296 28 104 31 239 6 311 -41 117 -139 184 -279 189
-46 2 -110 0 -143 -5z"/>
<path d="M1154 3176 c-55 -17 -144 -69 -178 -103 -75 -75 -83 -178 -19 -254
34 -39 79 -59 137 -59 l45 0 -5 -87 c-3 -49 -17 -189 -31 -313 -26 -239 -31
-442 -12 -512 15 -58 42 -93 93 -123 58 -34 125 -42 178 -21 63 24 156 124
210 226 126 237 357 575 379 553 15 -16 29 -139 29 -267 0 -136 -16 -265 -56
-460 -13 -65 -24 -134 -24 -153 0 -137 180 -214 272 -115 39 42 45 59 78 218
43 213 56 401 42 599 -24 337 -71 454 -207 516 -141 65 -330 -47 -530 -314
-32 -43 -60 -76 -62 -73 -2 2 3 80 11 174 25 266 19 346 -29 442 -59 116 -189
167 -321 126z"/>
<path d="M4795 2680 c-58 -23 -125 -84 -150 -137 -10 -21 -18 -60 -18 -90 0
-30 -3 -56 -8 -58 -4 -3 -65 -14 -137 -25 -153 -23 -223 -47 -315 -108 -153
-100 -215 -260 -189 -490 15 -131 36 -217 73 -301 l29 -64 -32 -27 c-37 -31
-27 -33 -173 42 -256 131 -485 98 -696 -100 -86 -81 -180 -203 -253 -328 -29
-49 -57 -86 -73 -93 -14 -6 -46 -29 -72 -51 -26 -22 -54 -40 -63 -40 -21 0
-62 50 -92 109 -35 69 -95 254 -117 359 -20 101 -35 136 -71 168 -87 80 -215
69 -285 -22 -40 -53 -42 -127 -8 -274 33 -143 84 -299 126 -382 138 -276 351
-398 577 -329 72 22 170 80 212 125 14 15 40 34 58 41 48 21 77 58 126 160
108 229 234 375 322 375 40 0 65 -10 167 -68 190 -108 334 -125 470 -55 90 45
167 141 167 207 0 20 9 29 43 44 93 43 143 126 135 230 -3 49 -12 71 -47 125
-50 77 -81 154 -81 201 0 32 3 35 48 50 26 8 97 22 157 31 126 19 203 38 258
66 85 44 168 144 200 244 46 138 40 326 -11 400 -55 80 -168 107 -277 65z"/>
<path d="M3065 2530 c-156 -27 -372 -89 -450 -128 -125 -61 -157 -224 -63
-321 75 -77 129 -78 348 -6 161 52 353 96 366 82 4 -4 -6 -40 -21 -79 -55
-140 -39 -238 46 -295 112 -74 250 -33 308 91 49 106 65 180 65 306 0 104 -2
120 -26 170 -45 96 -121 158 -225 185 -76 20 -223 18 -348 -5z"/>
</g>
</svg>
