<?xml version="1.0" standalone="no"?>
<!DOCTYPE svg PUBLIC "-//W3C//DTD SVG 20010904//EN"
 "http://www.w3.org/TR/2001/REC-SVG-20010904/DTD/svg10.dtd">
<svg version="1.0" xmlns="http://www.w3.org/2000/svg"
 width="600.000000pt" height="600.000000pt" viewBox="0 0 600.000000 600.000000"
 preserveAspectRatio="xMidYMid meet">
<metadata>
Created by potrace 1.15, written by Peter Selinger 2001-2017
</metadata>
<g transform="translate(0.000000,600.000000) scale(0.100000,-0.100000)"
fill="#16364b" stroke="none">
<path d="M3099 5470 c-75 -79 -63 -165 35 -239 99 -75 117 -158 75 -330 -27
-107 -21 -151 25 -197 63 -63 159 -64 210 -3 24 29 57 122 71 203 10 60 8 205
-5 260 -26 118 -108 237 -211 305 -51 34 -69 41 -112 41 -45 0 -54 -4 -88 -40z"/>
<path d="M2057 5455 c-79 -27 -109 -77 -109 -180 0 -152 77 -240 246 -278 38
-9 73 -20 78 -25 6 -6 10 -93 9 -214 -1 -183 0 -206 18 -234 56 -92 217 -80
264 19 13 27 17 80 19 273 3 234 2 240 -21 292 -35 77 -103 134 -193 161 -98
30 -102 33 -109 75 -14 83 -117 141 -202 111z"/>
<path d="M1470 4778 c-141 -16 -200 -65 -200 -168 0 -59 28 -110 76 -137 37
-21 45 -22 244 -16 208 5 248 1 386 -39 37 -10 46 -9 90 13 126 62 128 211 4
274 -139 70 -370 98 -600 73z"/>
<path d="M4312 4620 c-66 -41 -94 -120 -66 -189 13 -33 30 -51 73 -78 31 -20
67 -45 79 -57 54 -48 81 -138 97 -322 11 -118 57 -166 158 -166 57 1 89 19
125 72 19 28 22 46 22 120 0 99 -23 246 -51 328 -27 78 -72 144 -140 205 -112
102 -221 133 -297 87z"/>
<path d="M3195 4481 c-22 -10 -129 -93 -237 -183 -108 -91 -242 -194 -297
-231 -58 -39 -108 -80 -120 -100 -23 -38 -28 -114 -10 -150 33 -63 100 -96
162 -79 45 13 172 105 368 269 91 76 199 164 241 196 82 63 98 87 98 150 0 57
-30 104 -83 127 -52 24 -72 24 -122 1z"/>
<path d="M1615 4357 c-17 -8 -43 -29 -58 -46 -51 -61 -29 -164 46 -210 65 -40
339 -83 533 -84 130 -1 144 1 190 24 114 56 125 205 22 282 -28 21 -50 22
-228 12 -95 -5 -154 -3 -245 9 -187 26 -227 28 -260 13z"/>
<path d="M3714 3891 c-22 -10 -115 -61 -205 -114 -171 -98 -336 -184 -451
-231 -36 -16 -79 -42 -95 -58 -25 -26 -28 -37 -28 -91 0 -72 18 -103 78 -137
31 -18 50 -21 90 -18 95 9 334 124 587 283 79 49 128 74 158 77 86 12 141 84
129 171 -6 47 -31 83 -77 115 -42 28 -127 30 -186 3z"/>
<path d="M2241 3790 c-154 -39 -327 -49 -495 -29 -81 10 -97 10 -127 -5 -101
-48 -105 -206 -8 -278 62 -46 441 -49 649 -5 64 13 130 32 147 40 75 39 107
150 61 216 -52 77 -107 92 -227 61z"/>
<path d="M5007 3589 c-66 -10 -112 -44 -142 -103 -30 -60 -31 -99 -5 -208 24
-101 25 -148 4 -219 -23 -76 -41 -108 -134 -239 -97 -136 -322 -509 -340 -564
-41 -125 80 -276 222 -276 137 0 176 36 319 288 61 108 145 248 187 311 160
244 210 374 219 572 6 128 -14 260 -47 314 -58 94 -168 142 -283 124z"/>
<path d="M1984 3146 c-50 -22 -74 -61 -74 -121 0 -52 17 -87 60 -123 41 -34
149 -64 314 -87 67 -9 119 -22 134 -33 73 -51 77 -53 124 -49 122 10 180 151
105 251 -62 80 -153 115 -359 136 -59 6 -128 17 -155 25 -59 18 -108 18 -149
1z"/>
<path d="M4373 3145 c-18 -8 -54 -34 -80 -58 -235 -218 -464 -319 -815 -358
-119 -13 -156 -29 -188 -81 -27 -45 -27 -120 1 -165 12 -18 39 -43 62 -54 35
-19 51 -20 121 -14 219 18 542 102 702 183 158 80 405 290 424 363 34 126
-103 238 -227 184z"/>
<path d="M1415 2971 c-109 -27 -155 -92 -155 -218 0 -156 46 -468 95 -649 51
-189 148 -396 219 -470 125 -129 316 -42 316 144 0 51 -5 67 -34 109 -109 158
-142 291 -186 746 -12 119 -26 220 -34 235 -16 30 -61 74 -91 90 -30 15 -96
21 -130 13z"/>
<path d="M2102 2359 c-96 -19 -152 -82 -152 -173 0 -57 24 -103 68 -128 25
-15 51 -18 155 -15 112 2 128 0 150 -18 14 -11 42 -33 62 -49 90 -72 219 -12
232 107 13 113 -109 232 -279 272 -68 16 -168 18 -236 4z"/>
<path d="M4029 2084 c-42 -7 -175 -38 -295 -68 -244 -61 -450 -103 -689 -141
-88 -14 -174 -30 -192 -36 -40 -13 -97 -75 -113 -124 -33 -102 44 -220 153
-232 76 -9 578 76 872 147 196 48 293 68 409 85 106 17 154 44 185 107 25 52
27 95 6 146 -22 51 -52 81 -110 108 -57 27 -111 29 -226 8z"/>
<path d="M4781 1695 c-19 -9 -65 -45 -103 -81 -146 -137 -356 -240 -621 -303
-45 -11 -140 -34 -212 -51 -186 -44 -319 -89 -358 -121 -113 -93 -77 -284 65
-343 51 -22 113 -20 184 4 32 12 192 59 354 105 431 122 575 183 728 308 65
53 159 153 194 206 43 64 32 163 -25 228 -54 61 -132 79 -206 48z"/>
<path d="M2140 1659 c-60 -24 -100 -85 -100 -152 0 -98 136 -291 272 -387 79
-56 175 -104 242 -122 57 -15 111 0 151 42 27 28 30 38 30 99 0 91 -27 128
-132 179 -100 49 -200 143 -251 237 -44 82 -86 115 -146 114 -23 0 -52 -5 -66
-10z"/>
<path d="M2045 986 c-123 -55 -139 -237 -29 -322 99 -76 319 -198 432 -238
202 -72 495 -76 707 -9 157 50 203 85 225 175 33 130 -85 265 -212 245 -18 -3
-80 -22 -138 -43 -99 -36 -112 -38 -225 -38 -96 -1 -136 4 -200 22 -100 29
-213 83 -334 161 -85 55 -100 61 -145 61 -28 -1 -64 -7 -81 -14z"/>
</g>
</svg>
