<?xml version="1.0" standalone="no"?>
<!DOCTYPE svg PUBLIC "-//W3C//DTD SVG 20010904//EN"
 "http://www.w3.org/TR/2001/REC-SVG-20010904/DTD/svg10.dtd">
<svg version="1.0" xmlns="http://www.w3.org/2000/svg"
 width="600.000000pt" height="600.000000pt" viewBox="0 0 600.000000 600.000000"
 preserveAspectRatio="xMidYMid meet">
<metadata>
Created by potrace 1.15, written by Peter Selinger 2001-2017
</metadata>
<g transform="translate(0.000000,600.000000) scale(0.100000,-0.100000)"
fill="#16364b" stroke="none">
<path d="M1344 5652 c-116 -59 -220 -114 -231 -122 -53 -40 -59 -115 -12 -154
28 -24 38 -26 122 -26 95 0 374 39 463 65 60 17 83 40 91 88 8 52 -29 87 -92
87 l-46 0 20 26 c30 38 27 84 -7 117 -46 44 -74 37 -308 -81z"/>
<path d="M2373 5430 c-44 -18 -50 -45 -57 -230 -8 -208 -30 -332 -80 -436 -42
-88 -98 -147 -194 -203 -91 -53 -107 -76 -103 -149 2 -34 44 -72 81 -72 68 0
238 111 308 202 101 132 156 309 173 565 13 190 7 263 -24 298 -25 28 -71 39
-104 25z"/>
<path d="M3519 5301 c-15 -11 -34 -39 -43 -62 -16 -38 -16 -46 -1 -98 23 -77
54 -128 114 -185 127 -118 271 -112 288 13 5 34 0 54 -30 114 -42 85 -123 180
-178 208 -62 31 -119 35 -150 10z"/>
<path d="M3022 5129 c-123 -23 -222 -156 -222 -297 0 -76 24 -121 80 -149 54
-28 85 -29 148 -5 90 35 138 76 163 139 33 84 33 206 1 251 -39 54 -97 75
-170 61z m-2 -238 c-6 -12 -15 -21 -21 -21 -10 0 -5 13 14 38 15 19 20 7 7
-17z"/>
<path d="M4773 4779 c-73 -22 -92 -95 -74 -291 24 -265 101 -425 220 -458 49
-13 65 -13 109 5 151 64 176 284 57 500 -38 69 -135 178 -192 217 -46 33 -78
40 -120 27z"/>
<path d="M2652 4207 c-47 -18 -97 -60 -115 -100 -23 -47 -21 -132 2 -184 72
-157 269 -200 469 -100 35 18 89 54 119 82 51 46 56 55 60 101 9 91 -27 132
-145 166 -160 45 -321 60 -390 35z"/>
<path d="M1129 4120 c-66 -19 -99 -62 -99 -126 0 -53 47 -95 135 -122 75 -23
103 -37 93 -47 -3 -3 -39 6 -79 20 -41 15 -97 29 -125 32 -43 4 -55 1 -78 -19
-38 -33 -46 -99 -16 -146 56 -90 368 -152 475 -95 133 70 152 224 44 347 -45
51 -116 95 -210 130 -84 31 -109 35 -140 26z"/>
<path d="M5272 3788 c-83 -9 -179 -55 -235 -111 -152 -151 -96 -454 99 -538
61 -25 148 -25 219 2 74 27 164 111 201 186 25 51 29 69 29 153 0 86 -3 100
-27 142 -35 59 -147 158 -190 167 -18 4 -62 3 -96 -1z m23 -309 c8 -12 -23
-49 -42 -49 -17 0 -17 47 0 53 21 9 36 7 42 -4z"/>
<path d="M4225 3766 c-73 -23 -121 -54 -177 -115 -68 -73 -98 -133 -105 -211
-8 -83 11 -141 63 -199 80 -89 216 -120 341 -77 143 48 243 214 243 403 0 123
-26 162 -128 193 -73 23 -176 25 -237 6z m85 -286 c0 -15 -38 -50 -55 -50 -21
0 -19 16 5 40 21 21 50 27 50 10z"/>
<path d="M3418 3355 c-43 -24 -188 -255 -188 -302 0 -26 25 -65 51 -79 40 -20
68 -18 128 12 134 67 219 290 136 361 -30 27 -86 30 -127 8z"/>
<path d="M1825 3094 c-68 -7 -256 -44 -333 -65 -99 -26 -214 -86 -303 -157
-253 -201 -315 -448 -178 -719 63 -127 137 -191 326 -287 228 -115 233 -122
394 -462 16 -33 56 -91 90 -128 212 -231 500 -284 884 -161 57 18 119 29 215
35 245 18 307 29 603 115 205 60 300 99 398 165 141 95 315 256 381 354 131
192 202 448 164 596 -22 85 -50 127 -160 235 -230 227 -405 283 -660 211 -126
-35 -288 -47 -483 -35 -209 12 -269 28 -528 142 -88 38 -185 78 -215 89 -135
46 -462 86 -595 72z m355 -414 c109 -24 137 -34 354 -124 159 -67 302 -112
496 -159 98 -23 114 -25 230 -16 262 18 331 30 548 91 37 11 47 10 80 -7 20
-11 73 -54 116 -97 l79 -77 -6 -58 c-4 -38 -20 -86 -48 -143 -34 -69 -58 -100
-126 -167 -159 -155 -291 -236 -493 -302 -182 -59 -424 -101 -584 -101 -42 0
-95 -12 -181 -39 -144 -47 -251 -63 -341 -50 -131 18 -200 82 -279 255 -137
303 -278 454 -517 554 -51 21 -107 50 -125 64 -89 72 -49 222 79 296 59 34
187 76 293 96 98 19 304 11 425 -16z"/>
<path d="M450 2143 c-14 -9 -30 -24 -37 -33 -17 -21 -16 -72 1 -107 8 -15 40
-82 72 -148 48 -100 69 -131 128 -191 61 -61 80 -75 130 -89 68 -20 106 -15
152 20 90 69 62 225 -65 353 -66 67 -144 122 -246 176 -78 40 -100 44 -135 19z"/>
<path d="M4889 1507 c-25 -17 -45 -22 -74 -20 -49 5 -97 -23 -121 -68 -14 -28
-15 -42 -5 -99 36 -219 112 -312 230 -280 80 21 129 117 152 300 9 71 9 96 -1
120 -28 69 -116 91 -181 47z"/>
</g>
</svg>
