<?xml version="1.0" standalone="no"?>
<!DOCTYPE svg PUBLIC "-//W3C//DTD SVG 20010904//EN"
 "http://www.w3.org/TR/2001/REC-SVG-20010904/DTD/svg10.dtd">
<svg version="1.0" xmlns="http://www.w3.org/2000/svg"
 width="600.000000pt" height="600.000000pt" viewBox="0 0 600.000000 600.000000"
 preserveAspectRatio="xMidYMid meet">
<metadata>
Created by potrace 1.15, written by Peter Selinger 2001-2017
</metadata>
<g transform="translate(0.000000,600.000000) scale(0.100000,-0.100000)"
fill="#16364b" stroke="none">
<path d="M2035 5835 c-50 -17 -78 -50 -201 -228 -54 -78 -141 -199 -194 -269
-127 -168 -153 -216 -154 -288 -2 -129 113 -202 264 -167 129 30 669 295 720
354 57 65 48 165 -21 228 -73 66 -125 61 -273 -25 -59 -34 -109 -61 -111 -58
-2 2 25 44 61 94 105 143 117 167 112 223 -10 106 -107 170 -203 136z"/>
<path d="M3034 5701 c-54 -24 -104 -102 -104 -165 0 -32 38 -102 63 -114 12
-6 65 -25 117 -42 132 -43 240 -104 322 -179 74 -68 108 -124 128 -209 32
-135 -24 -213 -188 -261 -57 -17 -77 -29 -98 -56 -38 -50 -43 -110 -12 -155
54 -80 115 -96 230 -60 156 48 287 183 333 345 21 71 16 250 -9 328 -62 193
-255 375 -549 518 -111 54 -186 70 -233 50z"/>
<path d="M1000 5361 c-178 -58 -334 -181 -392 -307 -32 -69 -32 -222 0 -308
47 -128 187 -292 271 -317 77 -23 148 10 182 85 40 88 17 158 -70 221 -82 59
-115 133 -88 196 21 50 54 75 148 115 46 19 94 45 106 56 34 32 57 100 49 149
-17 104 -96 147 -206 110z"/>
<path d="M2803 5000 c-59 -12 -93 -32 -140 -83 -80 -87 -110 -251 -68 -376 23
-71 92 -141 160 -164 56 -20 194 -23 260 -6 123 31 162 180 64 248 -31 21 -42
23 -114 18 -44 -3 -86 -3 -92 0 -29 11 -10 21 45 25 73 5 117 35 144 96 61
137 -88 276 -259 242z"/>
<path d="M4800 4911 c-53 -29 -92 -75 -99 -118 -4 -21 -4 -88 0 -149 13 -193
56 -312 140 -388 149 -134 357 -108 442 54 27 51 29 61 25 142 -4 78 -8 96
-48 175 -101 205 -338 351 -460 284z"/>
<path d="M1872 4604 c-175 -47 -262 -164 -203 -274 44 -83 147 -106 232 -51
82 53 92 51 142 -29 67 -105 205 -109 280 -9 60 82 6 231 -111 309 -96 64
-228 85 -340 54z"/>
<path d="M2990 3961 c-101 -20 -181 -88 -231 -196 -74 -157 -77 -352 -7 -489
31 -60 118 -143 164 -155 54 -14 109 1 150 40 70 68 67 157 -6 231 -43 42 -56
84 -47 152 11 78 25 96 72 96 27 0 54 8 76 23 37 24 79 97 79 137 0 46 -42
113 -85 136 -46 25 -114 35 -165 25z"/>
<path d="M1133 3885 c-193 -42 -257 -74 -293 -145 -42 -82 -14 -176 68 -235
39 -27 51 -30 118 -30 l73 1 -23 -41 c-13 -22 -58 -102 -100 -179 -42 -76
-108 -187 -146 -246 -94 -148 -130 -217 -184 -352 -54 -134 -58 -182 -23 -249
45 -85 146 -128 232 -99 21 7 57 29 79 50 23 20 111 92 196 161 85 68 204 169
265 225 135 123 315 274 326 274 20 0 0 -107 -56 -307 -57 -201 -106 -320
-280 -678 -106 -217 -115 -254 -79 -315 61 -105 207 -105 284 2 68 92 245 490
320 718 90 274 153 648 129 774 -23 125 -101 196 -215 196 -93 0 -250 -83
-411 -220 -40 -33 -73 -58 -73 -54 0 3 39 66 86 140 47 74 99 165 117 202 80
169 23 345 -129 402 -65 24 -184 26 -281 5z"/>
<path d="M4240 3785 c-139 -29 -221 -74 -282 -156 -89 -121 -71 -288 42 -399
64 -63 127 -84 233 -78 201 10 316 126 417 420 l34 97 -20 48 c-30 73 -58 83
-224 82 -74 0 -164 -7 -200 -14z m17 -310 c-29 -25 -57 -33 -57 -15 0 11 49
39 70 39 10 0 5 -8 -13 -24z"/>
<path d="M3463 3399 c-86 -20 -169 -129 -223 -293 -27 -84 -23 -142 13 -190
40 -52 81 -66 189 -66 86 0 101 3 157 31 65 33 98 67 130 139 25 55 28 157 6
221 -40 118 -155 185 -272 158z"/>
<path d="M4915 2945 c-48 -17 -167 -136 -224 -225 -126 -195 -101 -380 61
-450 120 -52 281 8 369 136 67 97 92 248 60 358 -23 80 -160 200 -221 196 -3
-1 -23 -7 -45 -15z"/>
<path d="M4065 2532 c-79 -37 -135 -115 -149 -207 -4 -27 3 -81 22 -165 16
-69 25 -126 22 -128 -4 -2 -33 8 -64 22 -122 54 -227 54 -311 -1 -79 -52 -128
-129 -147 -233 -16 -85 2 -224 62 -465 51 -208 74 -261 133 -309 34 -27 48
-31 111 -34 90 -5 158 21 212 80 74 82 83 157 35 308 -17 52 -28 96 -26 98 2
3 25 -14 50 -36 83 -73 172 -89 285 -50 125 42 190 135 198 284 6 104 -4 162
-80 468 -68 276 -89 322 -162 360 -56 28 -140 32 -191 8z"/>
<path d="M2950 2183 c-55 -11 -195 -71 -383 -165 -109 -54 -201 -98 -206 -98
-5 0 -16 21 -26 46 -61 160 -242 205 -370 92 -48 -42 -130 -153 -151 -205 -49
-116 58 -263 192 -263 15 0 23 -8 26 -25 5 -23 -2 -28 -71 -62 -54 -26 -95
-55 -144 -104 -104 -104 -147 -216 -147 -382 0 -102 19 -177 71 -286 120 -252
315 -415 595 -496 123 -36 219 -42 324 -21 256 52 519 251 520 394 0 81 -64
164 -146 188 -77 22 -124 7 -216 -70 -130 -108 -205 -131 -343 -102 -236 49
-405 211 -405 387 0 46 6 73 20 97 26 43 53 41 81 -5 32 -52 105 -129 147
-155 44 -27 141 -30 188 -5 108 56 131 198 48 300 -63 78 -88 122 -116 205
-31 86 -30 102 4 102 18 0 368 154 481 212 22 11 41 17 44 14 15 -15 -87 -285
-180 -476 -53 -108 -61 -133 -62 -182 0 -76 38 -132 114 -170 88 -45 179 -30
243 38 61 67 139 267 236 609 57 200 62 226 62 302 0 116 -56 205 -164 260
-43 23 -66 27 -146 29 -52 1 -106 0 -120 -3z"/>
</g>
</svg>
