<?xml version="1.0" standalone="no"?>
<!DOCTYPE svg PUBLIC "-//W3C//DTD SVG 20010904//EN"
 "http://www.w3.org/TR/2001/REC-SVG-20010904/DTD/svg10.dtd">
<svg version="1.0" xmlns="http://www.w3.org/2000/svg"
 width="600.000000pt" height="600.000000pt" viewBox="0 0 600.000000 600.000000"
 preserveAspectRatio="xMidYMid meet">
<metadata>
Created by potrace 1.15, written by Peter Selinger 2001-2017
</metadata>
<g transform="translate(0.000000,600.000000) scale(0.100000,-0.100000)"
fill="#16364b" stroke="none">
<path d="M1985 5812 c-44 -21 -109 -107 -290 -387 -168 -259 -207 -364 -171
-460 21 -54 73 -102 122 -111 86 -16 158 8 318 108 44 28 161 95 260 150 218
121 229 128 250 172 39 83 9 171 -74 214 -67 35 -105 26 -237 -51 -62 -37
-113 -64 -113 -60 0 3 24 38 53 77 93 124 111 156 111 208 0 108 -128 186
-229 140z"/>
<path d="M3028 5683 c-64 -40 -89 -152 -48 -218 15 -25 40 -40 107 -68 265
-110 415 -261 454 -459 20 -99 -10 -138 -136 -177 -87 -27 -108 -41 -129 -84
-48 -103 21 -217 131 -217 64 0 192 45 262 92 181 121 228 299 145 547 -14 42
-43 106 -64 142 -74 125 -263 277 -502 403 -115 61 -169 71 -220 39z"/>
<path d="M943 5385 c-135 -37 -255 -129 -311 -241 -40 -79 -53 -133 -53 -213
0 -145 49 -258 156 -367 38 -38 86 -78 107 -87 83 -39 174 -9 209 67 37 81 17
141 -66 204 -76 57 -98 95 -92 161 5 74 46 111 153 143 128 38 181 109 154
207 -13 51 -52 96 -101 121 -44 23 -83 24 -156 5z"/>
<path d="M2860 5041 c-59 -12 -115 -47 -170 -108 -150 -164 -146 -370 10 -468
136 -86 374 -66 434 36 35 58 10 161 -46 190 -13 6 -25 13 -26 15 -2 1 6 16
18 32 48 65 33 177 -33 242 -55 55 -117 75 -187 61z"/>
<path d="M4785 4905 c-86 -47 -100 -85 -92 -260 7 -140 29 -240 73 -326 117
-232 389 -242 505 -19 20 37 24 60 24 135 0 81 -3 96 -30 148 -57 110 -144
196 -284 281 -92 55 -148 67 -196 41z"/>
<path d="M1954 4650 c-89 -18 -192 -79 -225 -133 -25 -42 -25 -122 0 -161 48
-72 121 -85 208 -36 76 43 89 40 117 -23 29 -66 72 -99 135 -104 57 -5 107 19
138 66 33 49 31 112 -7 187 -73 146 -227 232 -366 204z"/>
<path d="M3003 3968 c-79 -12 -141 -45 -209 -113 -78 -77 -104 -141 -104 -256
0 -215 122 -364 323 -394 143 -22 262 130 191 242 -18 28 -76 58 -128 66 -70
11 -97 63 -60 116 15 21 21 23 63 16 90 -15 148 -11 177 11 76 56 92 136 42
211 -49 74 -178 118 -295 101z"/>
<path d="M1185 3925 c-86 -19 -217 -60 -254 -79 -50 -26 -85 -88 -89 -161 -8
-126 72 -208 200 -206 l59 1 -28 -48 c-41 -72 -150 -251 -250 -412 -142 -228
-233 -415 -233 -476 0 -91 57 -164 147 -190 80 -23 136 -6 223 67 25 21 83 68
130 105 47 36 157 130 245 208 156 138 286 247 353 294 l32 23 0 -43 c0 -81
-49 -247 -153 -523 -108 -285 -150 -374 -245 -518 -82 -125 -87 -190 -20 -256
50 -48 151 -55 207 -13 130 96 434 795 515 1182 67 325 -28 559 -229 560 -84
0 -179 -57 -382 -230 -40 -34 -73 -59 -73 -57 0 3 23 43 52 89 79 127 165 300
177 358 17 80 13 139 -13 196 -57 122 -192 169 -371 129z"/>
<path d="M4210 3785 c-197 -44 -312 -170 -312 -340 1 -153 88 -254 248 -285
219 -43 422 129 519 442 18 56 18 56 -6 104 -39 78 -66 89 -239 91 -98 2 -166
-2 -210 -12z m48 -296 c-6 -17 -56 -44 -65 -35 -10 9 33 46 54 46 8 0 13 -5
11 -11z"/>
<path d="M3468 3403 c-62 -21 -122 -73 -169 -146 -38 -58 -89 -193 -89 -233 0
-56 56 -132 113 -153 16 -6 69 -11 118 -11 142 0 214 46 260 170 29 76 24 213
-10 283 -42 87 -130 122 -223 90z"/>
<path d="M4941 2974 c-19 -8 -74 -54 -121 -102 -168 -170 -218 -348 -136 -484
44 -75 116 -112 202 -105 115 9 210 82 265 204 54 117 72 249 48 336 -6 22
-31 61 -57 89 -71 76 -128 94 -201 62z"/>
<path d="M4035 2561 c-47 -21 -110 -88 -132 -140 -27 -62 -21 -143 20 -267 20
-61 37 -113 37 -116 0 -2 -30 6 -67 18 -152 51 -252 39 -342 -42 -145 -130
-157 -306 -46 -689 51 -175 61 -198 101 -239 98 -98 264 -95 349 6 60 71 69
140 35 268 -11 41 -20 84 -20 95 0 18 2 17 23 -7 51 -60 145 -75 252 -38 238
82 304 250 221 565 -131 501 -129 497 -183 547 -61 58 -168 75 -248 39z"/>
<path d="M2080 2151 c-85 -19 -138 -60 -220 -170 -85 -115 -104 -177 -78 -252
29 -86 93 -131 187 -131 48 0 52 -1 31 -10 -101 -42 -161 -79 -216 -134 -110
-110 -161 -256 -150 -434 12 -199 80 -356 223 -511 152 -164 313 -242 555
-269 245 -28 427 20 590 154 74 62 110 107 128 160 31 94 -32 219 -132 260
-78 33 -142 14 -228 -68 -69 -66 -117 -91 -203 -107 -190 -35 -454 101 -516
266 -43 113 -37 230 14 281 35 35 56 30 84 -19 83 -146 181 -207 289 -177 47
12 106 59 128 101 19 37 18 132 -1 170 -9 16 -34 53 -55 82 -41 54 -76 139
-65 157 3 5 12 10 19 10 12 0 133 55 434 197 41 19 76 32 79 29 8 -8 -46 -182
-94 -301 -24 -60 -69 -157 -100 -215 -46 -86 -56 -114 -57 -155 -2 -162 184
-259 304 -158 36 30 166 284 228 446 62 161 123 366 129 438 12 136 -53 248
-178 304 -74 33 -202 45 -289 26 -84 -18 -221 -76 -383 -162 -81 -44 -151 -79
-156 -79 -5 0 -14 21 -20 48 -39 157 -156 250 -281 223z"/>
</g>
</svg>
