<?xml version="1.0" standalone="no"?>
<!DOCTYPE svg PUBLIC "-//W3C//DTD SVG 20010904//EN"
 "http://www.w3.org/TR/2001/REC-SVG-20010904/DTD/svg10.dtd">
<svg version="1.0" xmlns="http://www.w3.org/2000/svg"
 width="600.000000pt" height="600.000000pt" viewBox="0 0 600.000000 600.000000"
 preserveAspectRatio="xMidYMid meet">
<metadata>
Created by potrace 1.15, written by Peter Selinger 2001-2017
</metadata>
<g transform="translate(0.000000,600.000000) scale(0.100000,-0.100000)"
fill="#16364b" stroke="none">
<path d="M2290 5459 c-43 -17 -68 -49 -102 -128 -28 -66 -32 -88 -33 -166 0
-99 12 -133 68 -193 69 -72 177 -87 383 -52 64 11 119 18 121 16 2 -2 -14 -30
-35 -62 -40 -60 -251 -443 -314 -569 -20 -38 -39 -84 -42 -101 -8 -35 11 -90
36 -112 11 -9 14 -24 11 -56 -10 -81 50 -146 133 -146 22 0 78 11 125 25 158
48 394 85 626 100 116 8 156 26 179 80 44 105 -30 225 -138 225 -82 0 -454
-59 -585 -93 -33 -9 -53 -10 -53 -4 0 25 189 374 265 489 126 191 139 219 140
305 0 63 -3 76 -30 114 -48 69 -107 93 -235 97 -59 2 -158 -3 -224 -12 -66 -9
-121 -14 -123 -12 -2 2 4 22 13 45 49 124 -68 257 -186 210z"/>
<path d="M3952 5027 c-34 -4 -95 -20 -135 -36 -197 -79 -255 -150 -209 -254
26 -58 79 -98 138 -105 41 -4 57 1 138 42 50 26 110 50 133 53 35 5 43 2 53
-17 26 -49 -10 -209 -90 -399 -28 -66 -50 -131 -50 -145 0 -62 62 -130 130
-141 32 -5 40 -11 40 -28 0 -11 9 -40 21 -63 15 -32 32 -48 65 -65 45 -21 46
-21 152 -4 144 23 341 31 370 16 18 -9 22 -21 22 -56 0 -70 -35 -231 -79 -363
-45 -138 -45 -170 -1 -224 55 -67 151 -69 215 -4 23 23 41 61 68 141 134 410
135 591 3 713 -102 94 -281 112 -654 66 l-52 -7 30 67 c80 178 116 341 108
480 -15 231 -180 363 -416 333z"/>
<path d="M1675 4971 c-86 -25 -211 -90 -357 -187 -140 -93 -184 -136 -194
-189 -13 -71 11 -122 101 -220 32 -34 40 -36 210 -65 109 -18 235 -50 293 -76
29 -13 78 -47 110 -77 70 -67 89 -77 143 -77 121 0 182 142 108 253 -74 113
-202 186 -434 250 l-50 14 34 18 c62 32 143 55 193 55 63 0 106 18 144 62 72
82 42 209 -59 247 -42 16 -174 12 -242 -8z"/>
<path d="M2080 3889 c-133 -47 -254 -70 -400 -78 -121 -6 -139 -9 -169 -30
-88 -63 -80 -213 15 -269 36 -21 47 -23 144 -18 160 8 489 97 602 163 44 26
82 101 74 147 -13 68 -76 117 -148 115 -18 0 -71 -14 -118 -30z"/>
<path d="M3687 3715 c-76 -26 -461 -215 -518 -256 -39 -27 -59 -69 -59 -121 0
-113 120 -183 220 -129 19 10 107 57 195 105 88 47 163 86 167 86 5 0 8 -6 8
-14 0 -25 -68 -182 -118 -272 -27 -49 -53 -104 -56 -122 -9 -38 7 -93 34 -117
28 -25 25 -32 -14 -39 -89 -17 -141 -119 -106 -210 14 -39 66 -83 112 -94 75
-19 302 34 440 104 198 99 385 250 424 341 54 126 -56 276 -178 243 -25 -7
-51 -28 -84 -67 -57 -67 -109 -115 -173 -161 -49 -36 -134 -82 -150 -82 -5 0
13 43 39 96 27 52 68 143 90 202 107 275 106 409 -3 496 -35 28 -47 31 -115
33 -60 2 -94 -2 -155 -22z"/>
<path d="M2330 3323 c-145 -19 -277 -45 -303 -60 -55 -33 -83 -120 -58 -186
12 -32 56 -76 88 -88 34 -13 85 -11 181 6 117 20 224 28 241 17 12 -8 10 -24
-13 -96 -31 -95 -29 -128 7 -183 28 -42 72 -63 132 -63 89 0 132 40 169 159
48 154 43 244 -20 339 -64 97 -166 149 -307 156 -45 2 -98 2 -117 -1z"/>
<path d="M4864 3091 c-98 -45 -151 -143 -141 -265 3 -40 1 -79 -4 -89 -6 -9
-49 -40 -97 -68 -196 -115 -270 -184 -327 -304 -61 -128 -83 -324 -50 -463 18
-77 71 -183 120 -240 92 -106 220 -118 321 -29 110 97 126 255 38 360 -24 28
-26 37 -22 99 5 85 21 104 165 184 188 105 270 190 314 327 19 59 21 83 17
190 -6 141 -27 207 -85 257 -69 61 -168 78 -249 41z"/>
<path d="M1220 3051 c-81 -26 -130 -75 -149 -148 -22 -82 22 -168 104 -203
l42 -18 6 -244 c7 -311 38 -532 91 -660 17 -41 75 -95 112 -104 51 -13 123 2
161 32 72 59 89 134 57 256 -8 33 -13 62 -11 65 3 2 20 -5 38 -16 47 -29 116
-28 160 2 19 12 48 44 64 71 49 80 148 208 172 224 21 13 23 12 33 -13 6 -15
20 -40 31 -56 11 -16 18 -32 16 -36 -10 -16 -67 -382 -77 -497 -14 -146 -9
-173 35 -219 67 -69 156 -73 224 -11 49 43 57 77 70 270 6 82 20 211 31 287
25 175 25 189 -4 246 -13 25 -29 69 -36 96 -26 113 -97 208 -182 245 -164 70
-417 -65 -550 -294 -39 -67 -47 -75 -53 -57 -3 12 -8 133 -10 269 -4 277 -12
320 -71 408 -48 71 -114 106 -208 110 -39 2 -82 0 -96 -5z"/>
<path d="M3405 2283 c-98 -11 -251 -40 -400 -73 -93 -21 -191 -41 -216 -45
-64 -10 -120 -44 -147 -90 -19 -34 -22 -52 -20 -111 4 -85 36 -142 98 -174 53
-27 100 -25 238 9 149 38 295 66 447 85 165 22 159 23 180 -24 36 -80 123
-129 205 -115 61 10 124 56 150 110 19 39 22 58 18 123 -12 206 -166 315 -438
310 -47 0 -98 -3 -115 -5z"/>
<path d="M4465 1563 c-11 -2 -31 -6 -44 -9 -13 -3 -49 -29 -80 -58 -31 -29
-69 -56 -85 -60 -16 -4 -100 -1 -187 5 -183 15 -268 6 -377 -38 -150 -60 -356
-204 -478 -335 -40 -44 -80 -78 -96 -82 -15 -3 -56 -33 -90 -66 -35 -33 -79
-68 -98 -77 -53 -27 -141 -23 -219 11 -133 57 -227 139 -321 279 -62 92 -113
127 -185 127 -52 -1 -117 -30 -142 -66 -29 -41 -46 -111 -38 -159 18 -114 186
-328 350 -447 240 -173 557 -206 772 -82 26 16 80 61 119 100 39 39 82 75 95
79 13 4 74 58 135 119 123 124 197 178 294 215 63 24 72 25 280 23 239 -3 282
4 392 59 75 38 174 129 199 184 30 66 22 143 -23 208 -31 44 -120 80 -173 70z"/>
</g>
</svg>
