<?xml version="1.0" standalone="no"?>
<!DOCTYPE svg PUBLIC "-//W3C//DTD SVG 20010904//EN"
 "http://www.w3.org/TR/2001/REC-SVG-20010904/DTD/svg10.dtd">
<svg version="1.0" xmlns="http://www.w3.org/2000/svg"
 width="600.000000pt" height="600.000000pt" viewBox="0 0 600.000000 600.000000"
 preserveAspectRatio="xMidYMid meet">
<metadata>
Created by potrace 1.15, written by Peter Selinger 2001-2017
</metadata>
<g transform="translate(0.000000,600.000000) scale(0.100000,-0.100000)"
fill="#16364b" stroke="none">
<path d="M2725 5553 c-43 -12 -74 -46 -113 -125 -127 -259 -111 -417 46 -479
52 -21 73 -23 240 -22 100 0 182 -1 182 -2 0 -1 -35 -29 -77 -60 -151 -112
-254 -233 -417 -489 -89 -139 -96 -175 -48 -260 51 -93 62 -96 452 -115 133
-7 245 -19 320 -33 157 -31 220 -31 255 2 39 36 55 73 55 125 0 75 -34 123
-100 143 -61 19 -330 61 -464 72 -71 5 -132 12 -134 15 -8 8 77 114 156 193
42 43 131 121 197 174 199 159 235 206 235 310 0 119 -105 205 -270 223 -36 3
-141 2 -234 -4 -93 -6 -171 -9 -174 -7 -5 5 11 40 53 116 42 75 29 155 -33
199 -31 21 -93 33 -127 24z"/>
<path d="M1606 5184 c-108 -41 -227 -117 -320 -205 -109 -103 -172 -187 -238
-318 -60 -120 -68 -180 -32 -241 45 -78 116 -96 254 -65 82 19 300 30 319 16
13 -8 12 -30 -8 -156 -13 -84 -20 -162 -16 -181 7 -39 66 -104 95 -104 49 0
19 -19 -85 -53 -159 -53 -195 -87 -195 -183 0 -41 5 -51 39 -85 56 -57 92 -54
355 25 240 72 353 116 384 149 42 45 54 120 28 180 -37 88 -124 110 -229 59
-74 -37 -117 -53 -117 -46 0 3 4 13 9 22 19 35 53 323 49 406 -9 167 -98 256
-286 285 -39 6 -90 11 -113 11 l-43 0 39 41 c55 56 147 121 227 159 98 47 138
125 109 212 -30 91 -108 116 -225 72z"/>
<path d="M4385 4659 c-132 -20 -418 -120 -463 -162 -88 -82 -16 -237 109 -237
30 0 69 11 112 30 60 27 225 80 249 80 18 0 -17 -86 -158 -382 -120 -252 -122
-269 -27 -372 77 -82 64 -79 341 -80 136 -1 255 -5 265 -10 14 -7 18 -16 13
-38 -7 -35 -75 -211 -151 -388 -60 -142 -68 -195 -37 -242 34 -51 71 -72 138
-76 96 -6 115 16 213 254 93 225 124 314 141 407 49 265 -107 386 -497 387
-83 0 -133 4 -133 10 0 6 24 59 54 118 111 222 166 417 146 520 -5 28 -16 65
-24 81 -17 32 -69 79 -101 91 -37 14 -128 19 -190 9z"/>
<path d="M3745 3657 c-173 -45 -341 -213 -321 -321 23 -123 184 -158 257 -55
23 33 103 89 127 89 10 0 12 -8 7 -32 -10 -49 -62 -201 -95 -282 -30 -70 -31
-71 -113 -118 -97 -55 -132 -86 -148 -135 -17 -52 -4 -98 41 -143 65 -65 134
-67 235 -6 33 19 125 62 205 96 80 33 163 72 185 88 129 90 133 257 7 317 -23
11 -41 25 -42 31 0 6 9 37 21 70 61 176 20 313 -114 381 -61 30 -175 39 -252
20z"/>
<path d="M2485 3494 c-98 -21 -288 -81 -362 -114 -50 -23 -66 -36 -82 -69 -50
-98 -3 -209 98 -227 26 -5 52 -1 96 16 265 100 403 137 419 111 16 -25 -43
-203 -110 -330 -33 -64 -44 -96 -44 -130 0 -89 64 -151 155 -151 51 0 106 25
132 59 27 35 95 186 128 283 97 292 52 479 -133 548 -64 24 -192 26 -297 4z"/>
<path d="M1114 3206 c-66 -21 -163 -77 -194 -112 -107 -123 -5 -314 168 -314
17 0 32 -2 32 -4 0 -3 -9 -89 -21 -193 -37 -336 -24 -685 30 -791 47 -92 145
-126 235 -82 81 39 122 93 216 280 48 96 115 216 148 265 70 106 193 242 209
232 37 -23 48 -312 19 -497 -20 -134 -42 -247 -62 -324 -27 -103 1 -177 82
-217 85 -40 178 -8 215 75 23 53 54 176 75 301 26 155 23 498 -6 675 -36 218
-71 287 -172 330 -68 29 -135 24 -220 -18 -111 -55 -259 -197 -353 -340 -15
-23 -30 -41 -32 -38 -2 2 3 91 12 197 21 235 17 355 -14 424 -32 73 -65 110
-123 139 -43 21 -65 26 -127 25 -42 0 -94 -6 -117 -13z"/>
<path d="M4772 2617 c-85 -31 -152 -127 -152 -218 l0 -46 -112 -13 c-148 -16
-243 -41 -331 -87 -128 -67 -208 -166 -244 -306 -32 -124 -2 -336 71 -500 23
-53 23 -56 7 -71 -10 -9 -23 -16 -30 -16 -8 0 -59 25 -115 56 -181 100 -306
129 -430 100 -201 -47 -380 -227 -540 -542 -25 -50 -43 -74 -59 -78 -13 -3
-44 -22 -69 -42 -58 -45 -75 -40 -121 29 -75 115 -120 257 -153 487 -8 58 -26
91 -64 124 -83 69 -216 47 -277 -46 -26 -38 -28 -49 -27 -132 1 -98 32 -289
66 -401 96 -326 329 -518 575 -475 79 13 167 55 245 115 31 24 74 53 95 63 55
29 73 52 153 202 107 199 161 277 215 310 61 38 104 26 252 -70 98 -65 191
-94 282 -88 135 7 292 116 324 223 9 34 23 50 62 77 69 48 106 110 112 191 5
62 3 70 -46 176 -38 82 -52 124 -54 163 -2 49 -1 51 28 60 17 5 100 13 185 17
172 10 225 24 307 78 126 83 191 231 180 411 -8 140 -56 216 -156 250 -43 15
-136 14 -179 -1z"/>
<path d="M3120 2556 c-125 -22 -523 -127 -560 -148 -123 -67 -114 -249 15
-323 56 -32 101 -38 165 -20 331 92 500 127 500 106 0 -7 -16 -51 -36 -99 -30
-72 -35 -96 -32 -139 11 -125 152 -200 273 -144 53 24 78 54 114 131 55 122
76 207 76 311 0 90 -2 100 -35 165 -38 74 -104 134 -170 155 -53 17 -226 20
-310 5z"/>
</g>
</svg>
