<?xml version="1.0" standalone="no"?>
<!DOCTYPE svg PUBLIC "-//W3C//DTD SVG 20010904//EN"
 "http://www.w3.org/TR/2001/REC-SVG-20010904/DTD/svg10.dtd">
<svg version="1.0" xmlns="http://www.w3.org/2000/svg"
 width="600.000000pt" height="600.000000pt" viewBox="0 0 600.000000 600.000000"
 preserveAspectRatio="xMidYMid meet">
<metadata>
Created by potrace 1.15, written by Peter Selinger 2001-2017
</metadata>
<g transform="translate(0.000000,600.000000) scale(0.100000,-0.100000)"
fill="#16364b" stroke="none">
<path d="M3128 5660 c-48 -14 -86 -49 -103 -95 -15 -38 -16 -51 -5 -97 36
-150 132 -262 348 -404 78 -52 142 -98 142 -103 0 -13 -84 -85 -150 -129 -162
-108 -382 -267 -403 -291 -13 -16 -54 -43 -91 -60 -113 -54 -175 -127 -176
-205 0 -74 70 -155 148 -171 82 -17 181 28 196 89 6 25 31 34 174 62 115 22
162 67 162 156 l1 43 117 85 c64 47 155 123 202 170 100 101 140 173 147 265
9 120 -63 206 -268 315 -128 68 -209 143 -233 215 -32 94 -49 119 -96 143 -47
23 -68 26 -112 12z"/>
<path d="M1169 5329 c-119 -59 -239 -180 -297 -299 -54 -110 -72 -184 -72
-295 0 -147 34 -298 83 -373 26 -39 84 -72 127 -72 44 0 108 35 130 72 32 54
33 79 3 164 -50 141 -35 290 42 409 40 62 72 91 155 143 81 50 115 103 107
163 -7 55 -31 87 -80 110 -64 29 -104 24 -198 -22z"/>
<path d="M1660 5211 c-146 -30 -204 -175 -107 -269 l34 -33 -34 -84 c-45 -116
-61 -211 -45 -273 39 -143 160 -208 377 -200 138 5 180 22 213 88 12 24 22 58
22 75 0 50 -40 117 -85 143 -36 20 -48 22 -122 16 -67 -5 -83 -3 -83 8 0 8 16
54 36 104 68 166 79 246 45 319 -43 93 -130 130 -251 106z"/>
<path d="M4515 4631 c-102 -47 -100 -194 2 -254 21 -12 65 -22 118 -26 47 -5
88 -11 91 -13 4 -5 -78 -38 -136 -54 -14 -4 -35 -13 -47 -21 -29 -19 -63 -91
-63 -132 0 -63 51 -125 114 -136 65 -13 352 101 449 177 92 73 119 196 64 290
-55 94 -178 149 -384 173 -159 19 -159 19 -208 -4z"/>
<path d="M1871 4255 c-150 -33 -281 -90 -388 -169 -78 -57 -97 -91 -91 -163
12 -140 154 -200 259 -109 88 75 267 146 370 146 87 0 154 67 154 155 0 60
-20 95 -75 133 -39 26 -126 29 -229 7z"/>
<path d="M2605 3721 c-114 -19 -297 -82 -333 -115 -56 -50 -73 -153 -35 -204
58 -77 113 -83 258 -28 113 43 215 59 215 33 0 -36 -47 -161 -102 -272 -54
-106 -151 -258 -281 -438 -37 -51 -42 -65 -42 -111 0 -61 33 -115 85 -136 l31
-13 -24 -26 c-44 -47 -60 -89 -55 -152 5 -70 41 -122 102 -150 72 -32 116 -26
287 45 204 84 248 100 255 93 12 -12 -50 -170 -126 -323 -65 -129 -80 -168
-80 -204 1 -153 160 -248 281 -167 25 16 48 51 89 132 30 61 80 157 111 215
31 58 71 143 90 190 32 79 34 93 34 200 0 109 -2 118 -30 168 -38 69 -121 145
-181 166 -100 34 -242 12 -453 -68 -52 -20 -96 -34 -98 -32 -3 2 18 33 45 68
137 174 294 456 340 608 99 327 9 511 -257 525 -42 2 -98 0 -126 -4z"/>
<path d="M4001 3720 c-114 -24 -187 -108 -185 -215 3 -205 267 -393 468 -333
83 25 166 147 166 244 0 48 -23 99 -54 119 -18 12 -26 26 -26 46 0 42 -19 77
-54 98 -52 33 -238 56 -315 41z"/>
<path d="M1135 3539 c-72 -16 -301 -138 -339 -179 -74 -83 -56 -191 47 -274
31 -25 49 -31 101 -34 38 -3 72 1 85 8 13 6 25 9 28 6 3 -3 -20 -74 -52 -158
-119 -319 -177 -520 -197 -688 -14 -123 -7 -161 44 -216 32 -35 54 -48 108
-64 130 -39 162 -26 305 121 104 107 188 211 292 359 172 245 216 301 226 291
22 -22 -36 -411 -119 -791 -69 -315 -69 -407 0 -476 58 -58 145 -66 213 -21
50 33 60 67 66 212 4 102 15 177 51 345 107 508 111 536 103 790 -6 212 -17
267 -63 327 -54 71 -165 92 -256 49 -80 -39 -193 -163 -373 -409 -43 -59 -80
-105 -82 -103 -3 2 29 107 70 233 87 263 102 327 95 421 -14 191 -160 294
-353 251z"/>
<path d="M3602 3274 c-95 -25 -164 -90 -225 -209 -30 -61 -57 -148 -57 -188 0
-69 80 -147 151 -147 34 1 104 34 121 58 10 16 30 22 78 27 114 11 195 41 244
88 90 86 79 196 -27 294 -57 53 -88 69 -162 82 -69 13 -56 13 -123 -5z"/>
<path d="M4687 3115 c-76 -26 -117 -94 -103 -168 4 -20 38 -87 76 -150 39 -64
70 -121 70 -127 0 -7 -9 -23 -20 -37 -27 -34 -27 -107 0 -150 56 -92 223 -85
309 13 85 96 62 199 -100 460 -73 117 -116 164 -149 164 -10 0 -24 2 -32 5 -7
2 -30 -2 -51 -10z"/>
<path d="M4459 2283 c-89 -46 -126 -124 -114 -244 l7 -67 -99 25 c-88 22 -114
24 -248 20 -170 -5 -232 -21 -314 -81 -60 -45 -97 -97 -124 -178 -17 -54 -20
-85 -19 -223 1 -205 16 -363 36 -407 40 -84 125 -139 226 -145 57 -4 72 -1
120 24 47 24 59 37 84 85 l29 58 -15 197 c-8 109 -14 200 -12 202 7 7 168 -32
199 -48 44 -23 259 -22 336 1 164 51 259 198 259 401 0 232 -49 340 -178 390
-61 24 -110 21 -173 -10z"/>
<path d="M2153 1819 c-48 -24 -91 -81 -100 -133 -7 -45 14 -357 33 -493 33
-233 106 -366 262 -482 164 -121 279 -171 352 -151 53 14 116 71 131 118 6 20
14 40 18 44 3 4 51 -19 106 -52 164 -98 268 -127 389 -108 107 16 237 97 283
175 106 182 -100 366 -274 244 -56 -39 -64 -38 -181 31 -152 90 -167 101 -310
235 -126 117 -146 132 -191 142 -68 14 -138 -7 -180 -54 -17 -20 -31 -41 -31
-47 0 -8 -3 -9 -10 -2 -6 6 -14 104 -18 225 -7 195 -10 218 -29 250 -47 75
-161 102 -250 58z"/>
</g>
</svg>
