<?xml version="1.0" standalone="no"?>
<!DOCTYPE svg PUBLIC "-//W3C//DTD SVG 20010904//EN"
 "http://www.w3.org/TR/2001/REC-SVG-20010904/DTD/svg10.dtd">
<svg version="1.0" xmlns="http://www.w3.org/2000/svg"
 width="600.000000pt" height="600.000000pt" viewBox="0 0 600.000000 600.000000"
 preserveAspectRatio="xMidYMid meet">
<metadata>
Created by potrace 1.15, written by Peter Selinger 2001-2017
</metadata>
<g transform="translate(0.000000,600.000000) scale(0.100000,-0.100000)"
fill="#16364b" stroke="none">
<path d="M2899 5567 c-68 -45 -162 -264 -163 -382 -2 -117 74 -215 188 -246
23 -6 101 -14 174 -18 l133 -6 -98 -82 c-113 -96 -138 -118 -329 -299 -78 -74
-149 -149 -158 -168 -31 -66 -15 -121 58 -197 52 -55 108 -73 361 -119 188
-34 245 -47 386 -91 116 -35 146 -36 190 -6 92 61 91 211 -2 259 -34 17 -466
130 -546 143 -24 4 -43 10 -43 15 0 18 138 132 316 262 202 147 229 169 267
220 87 114 36 261 -117 341 l-61 32 -185 2 c-226 2 -210 0 -210 16 0 8 18 50
40 95 22 44 40 93 40 109 0 107 -149 181 -241 120z"/>
<path d="M1557 5306 c-64 -24 -148 -87 -257 -196 -193 -194 -285 -325 -346
-496 -30 -84 -35 -109 -32 -165 3 -49 9 -72 27 -95 54 -69 97 -69 295 -5 144
48 302 78 319 62 9 -9 -8 -58 -70 -196 -77 -171 -97 -238 -85 -287 10 -38 9
-42 -17 -64 -39 -33 -54 -75 -49 -135 9 -88 92 -165 169 -156 42 5 373 141
504 207 82 41 92 49 114 94 22 45 23 52 12 95 -15 56 -51 97 -110 123 -55 25
-89 19 -194 -33 -43 -22 -82 -38 -85 -35 -3 3 18 59 46 123 65 153 84 219 85
307 3 195 -135 287 -410 272 -77 -4 -113 -3 -113 5 0 5 53 63 118 127 81 81
137 128 182 152 76 41 110 85 110 142 0 110 -111 191 -213 154z"/>
<path d="M4527 4560 c-58 -10 -365 -104 -424 -130 -100 -44 -112 -169 -24
-243 52 -44 86 -43 238 6 180 58 193 61 193 44 0 -16 -170 -301 -268 -450 -59
-90 -72 -116 -72 -149 0 -55 23 -97 76 -138 25 -19 56 -43 67 -53 15 -11 80
-27 192 -46 265 -46 345 -66 345 -84 0 -19 -67 -155 -137 -277 -91 -162 -113
-212 -113 -267 0 -86 63 -153 145 -153 53 0 98 29 128 82 261 463 288 525 289
644 0 56 -5 81 -26 121 -57 114 -168 163 -476 209 -63 9 -116 18 -117 19 -2 1
47 84 107 184 177 293 207 364 197 477 -13 162 -129 236 -320 204z"/>
<path d="M3775 3681 c-108 -27 -175 -110 -175 -221 0 -124 99 -200 204 -156
18 8 41 24 49 37 15 20 17 21 23 5 12 -30 -3 -103 -33 -168 -29 -61 -32 -64
-81 -76 -102 -27 -192 -79 -267 -156 -79 -80 -100 -127 -85 -192 20 -86 126
-138 216 -104 15 6 51 33 80 60 62 56 127 83 249 105 101 17 141 33 177 70 44
44 52 93 29 161 -18 54 -18 62 -4 128 50 235 -56 441 -256 500 -58 17 -79 18
-126 7z"/>
<path d="M2495 3544 c-163 -36 -375 -132 -412 -187 -70 -104 -11 -237 106
-237 29 0 68 13 129 44 101 50 209 90 270 100 35 5 44 3 49 -11 18 -47 -39
-221 -152 -462 -30 -64 -55 -128 -55 -142 0 -23 28 -88 51 -120 10 -13 7 -22
-12 -48 -20 -28 -24 -44 -24 -110 0 -66 4 -83 25 -114 31 -45 87 -77 135 -77
21 0 101 21 179 46 155 50 297 86 305 78 7 -6 -20 -82 -70 -200 -28 -65 -39
-106 -39 -140 1 -146 162 -235 298 -167 47 24 93 114 158 307 38 115 47 157
51 235 6 112 -4 160 -50 228 -41 61 -117 107 -202 122 -96 17 -282 -9 -467
-65 -14 -4 -6 21 34 108 160 353 185 432 173 538 -13 112 -78 211 -169 258
-43 21 -67 26 -146 29 -59 1 -121 -3 -165 -13z"/>
<path d="M1103 3275 c-122 -42 -247 -126 -281 -190 -25 -49 -20 -137 11 -183
47 -72 138 -106 221 -84 l38 11 -7 -72 c-4 -40 -18 -139 -31 -222 -13 -82 -33
-208 -45 -280 -15 -96 -20 -164 -17 -260 3 -150 15 -179 86 -229 38 -27 52
-30 135 -34 84 -3 95 -2 126 20 35 23 74 81 150 223 24 44 62 110 85 147 48
79 296 437 307 444 5 2 18 -17 30 -43 20 -45 21 -58 16 -203 -3 -96 -17 -232
-37 -360 -62 -407 -66 -496 -21 -558 23 -33 76 -62 112 -62 40 0 107 40 131
77 17 29 23 59 29 142 4 58 24 192 43 297 57 310 69 414 64 554 -5 117 -8 134
-53 265 -48 142 -74 193 -116 232 -53 49 -145 66 -216 40 -87 -32 -184 -133
-339 -352 -49 -69 -90 -123 -92 -121 -2 3 8 76 22 163 53 335 56 387 26 485
-22 71 -78 136 -142 163 -55 23 -151 19 -235 -10z"/>
<path d="M4728 2406 c-84 -30 -139 -93 -159 -181 l-12 -53 -181 -5 c-202 -5
-254 -16 -373 -75 -94 -46 -164 -116 -211 -211 -35 -71 -37 -81 -40 -185 -2
-82 2 -136 17 -206 10 -52 18 -96 16 -98 -1 -2 -31 17 -66 41 -262 182 -470
178 -672 -12 -112 -106 -247 -329 -302 -501 -10 -30 -21 -59 -25 -63 -11 -12
-66 119 -88 208 -11 44 -28 127 -37 185 -24 150 -55 291 -71 321 -38 75 -135
120 -214 100 -100 -27 -154 -102 -148 -205 9 -129 91 -537 131 -651 92 -259
265 -390 471 -356 172 29 261 109 326 295 21 59 51 132 65 161 39 76 125 185
172 218 38 27 42 28 69 14 16 -8 72 -47 124 -86 52 -40 129 -88 170 -109 71
-35 80 -37 175 -37 90 0 106 3 158 28 62 31 151 112 163 149 4 13 23 42 44 65
68 77 73 133 34 356 -19 109 -23 152 -15 160 6 6 88 14 208 19 229 9 281 17
360 54 149 71 235 237 220 428 -6 88 -31 140 -87 189 -62 53 -147 70 -222 43z"/>
</g>
</svg>
