<?xml version="1.0" standalone="no"?>
<!DOCTYPE svg PUBLIC "-//W3C//DTD SVG 20010904//EN"
 "http://www.w3.org/TR/2001/REC-SVG-20010904/DTD/svg10.dtd">
<svg version="1.0" xmlns="http://www.w3.org/2000/svg"
 width="600.000000pt" height="600.000000pt" viewBox="0 0 600.000000 600.000000"
 preserveAspectRatio="xMidYMid meet">
<metadata>
Created by potrace 1.15, written by Peter Selinger 2001-2017
</metadata>
<g transform="translate(0.000000,600.000000) scale(0.100000,-0.100000)"
fill="#16364b" stroke="none">
<path d="M3025 5056 c-85 -37 -145 -129 -145 -224 0 -46 4 -58 29 -83 16 -16
37 -29 46 -29 57 0 165 87 205 167 34 67 34 137 0 163 -29 23 -91 25 -135 6z
m90 -49 c40 -30 -15 -139 -102 -201 -59 -41 -77 -32 -71 39 6 68 44 126 101
154 50 25 48 25 72 8z"/>
<path d="M1805 4626 c-60 -27 -107 -72 -138 -130 -17 -33 -22 -58 -22 -126 0
-77 3 -92 37 -166 69 -149 99 -328 113 -669 3 -82 15 -262 25 -400 14 -173 20
-346 20 -563 0 -474 22 -703 84 -860 75 -191 198 -333 351 -407 63 -30 189
-68 255 -77 l24 -3 1 -170 c1 -189 15 -273 80 -466 19 -57 35 -109 35 -116 0
-9 -18 -13 -62 -13 -123 -1 -182 -30 -194 -97 -8 -44 7 -78 48 -104 78 -49
267 6 331 97 47 67 46 111 -2 255 -75 226 -101 393 -82 519 7 41 14 76 16 78
2 2 43 -1 92 -7 175 -21 561 -43 713 -40 l155 4 1 -140 c1 -158 20 -267 79
-442 19 -58 35 -108 35 -112 0 -5 -43 -11 -95 -14 -106 -7 -140 -22 -161 -72
-39 -94 58 -160 197 -135 81 15 126 34 162 68 68 64 72 119 23 265 -49 142
-76 282 -83 417 -6 136 3 181 37 191 14 4 90 19 170 34 184 35 421 112 514
166 194 116 306 322 308 569 2 174 -55 316 -176 436 -61 60 -89 80 -196 131
-69 34 -145 68 -170 76 -144 49 -297 111 -445 182 -49 23 -142 61 -205 85
-432 159 -790 417 -1006 726 -69 98 -191 303 -268 449 -32 61 -88 159 -125
218 -36 60 -84 140 -106 178 -59 100 -107 153 -167 183 -67 34 -134 34 -203 2z
m143 -156 c32 -20 93 -104 107 -149 4 -13 22 -40 39 -60 28 -31 126 -184 126
-196 0 -2 40 -75 88 -162 233 -416 359 -577 622 -792 241 -197 432 -306 725
-417 77 -28 208 -80 290 -113 83 -34 199 -78 259 -98 60 -19 163 -61 230 -93
141 -66 180 -103 232 -215 109 -235 32 -509 -179 -646 -59 -38 -223 -96 -392
-138 -166 -42 -434 -71 -647 -71 -165 0 -453 16 -563 31 -38 5 -123 14 -188
19 -317 26 -484 115 -581 309 -90 179 -108 304 -112 801 -2 254 -8 453 -18
555 -24 249 -34 375 -46 570 -19 321 -47 476 -115 637 -46 108 -49 128 -29
177 27 68 89 89 152 51z"/>
<path d="M2565 2658 c-26 -15 -35 -28 -35 -55 0 -24 43 -63 70 -63 38 0 71 71
47 102 -18 22 -57 30 -82 16z"/>
<path d="M2964 2425 c-20 -31 -9 -65 30 -90 31 -21 59 -13 74 21 17 35 15 51
-8 74 -29 29 -76 26 -96 -5z"/>
<path d="M5245 3997 c-93 -24 -158 -72 -198 -146 -93 -170 -21 -410 148 -499
42 -22 62 -26 130 -25 178 1 311 111 351 289 38 172 -32 299 -205 374 -39 17
-171 21 -226 7z m104 -303 c38 -8 40 -28 5 -51 -25 -16 -27 -16 -40 2 -16 21
-19 55 -5 55 5 0 23 -3 40 -6z"/>
<path d="M4184 3739 c-98 -28 -187 -132 -199 -234 -31 -244 187 -418 393 -314
107 53 162 144 162 267 0 183 -98 293 -260 291 -36 0 -79 -5 -96 -10z m104
-284 c-4 -25 -34 -43 -48 -29 -7 7 -4 19 11 38 23 29 44 23 37 -9z"/>
<path d="M5314 1097 c-16 -14 -38 -48 -48 -77 -33 -91 -6 -170 65 -192 77 -23
142 35 155 138 13 104 -11 145 -89 152 -46 4 -57 1 -83 -21z"/>
</g>
</svg>
