<?xml version="1.0" standalone="no"?>
<!DOCTYPE svg PUBLIC "-//W3C//DTD SVG 20010904//EN"
 "http://www.w3.org/TR/2001/REC-SVG-20010904/DTD/svg10.dtd">
<svg version="1.0" xmlns="http://www.w3.org/2000/svg"
 width="600.000000pt" height="600.000000pt" viewBox="0 0 600.000000 600.000000"
 preserveAspectRatio="xMidYMid meet">
<metadata>
Created by potrace 1.15, written by Peter Selinger 2001-2017
</metadata>
<g transform="translate(0.000000,600.000000) scale(0.100000,-0.100000)"
fill="#16364b" stroke="none">
<path d="M3084 5641 c-86 -39 -111 -131 -55 -207 50 -69 162 -168 301 -266
134 -95 220 -174 220 -202 0 -39 -77 -100 -301 -238 -98 -61 -107 -65 -130
-52 -38 21 -98 16 -177 -15 -148 -59 -261 -145 -310 -236 -24 -45 -21 -140 6
-191 59 -114 229 -180 320 -124 40 25 72 75 72 116 0 17 -11 53 -25 79 -13 27
-23 50 -22 51 30 23 49 23 77 3 20 -16 45 -23 78 -23 41 -1 62 7 147 58 307
182 477 318 524 421 32 68 38 158 17 223 -42 125 -147 243 -366 412 -74 57
-156 124 -181 148 -69 63 -123 75 -195 43z"/>
<path d="M1813 5394 c-43 -29 -73 -78 -73 -122 0 -19 -29 -63 -96 -147 -149
-188 -194 -302 -161 -407 22 -71 66 -121 135 -155 51 -25 70 -28 178 -31 94
-3 147 1 237 18 184 35 236 72 245 172 3 44 0 59 -20 88 -53 77 -112 94 -233
66 -77 -18 -195 -31 -195 -21 0 4 31 51 68 104 129 183 146 218 146 297 0 129
-127 205 -231 138z"/>
<path d="M1083 5315 c-130 -65 -240 -187 -298 -330 -57 -139 -43 -348 34 -510
65 -137 133 -189 218 -166 75 20 135 111 118 180 -3 14 -24 63 -47 108 -53
106 -62 196 -28 287 26 68 85 133 152 166 83 43 118 90 118 164 0 34 -6 52
-27 77 -58 68 -136 76 -240 24z"/>
<path d="M4612 4731 c-42 -27 -72 -77 -72 -121 0 -37 30 -113 49 -124 7 -4 0
-21 -18 -46 -65 -90 -44 -173 60 -240 79 -51 143 -70 236 -70 201 0 329 111
310 269 -17 146 -147 264 -355 321 -115 32 -171 35 -210 11z"/>
<path d="M1795 4285 c-91 -26 -227 -101 -294 -162 -62 -56 -64 -60 -69 -114
-5 -70 17 -121 67 -155 79 -52 146 -44 227 25 103 88 184 117 276 100 51 -10
61 -9 102 11 63 30 90 76 84 144 -5 65 -34 109 -91 138 -54 27 -226 35 -302
13z"/>
<path d="M2560 3756 c-173 -37 -248 -69 -285 -123 -48 -72 -24 -163 55 -204
47 -26 103 -24 191 6 79 27 192 47 215 38 49 -18 -106 -309 -351 -658 -86
-124 -101 -165 -84 -227 29 -108 169 -155 242 -82 50 50 303 452 377 599 92
183 121 266 128 367 4 70 2 83 -22 132 -31 64 -70 99 -146 134 -44 21 -73 26
-155 28 -58 2 -127 -2 -165 -10z"/>
<path d="M4084 3755 c-102 -22 -155 -60 -197 -140 -28 -53 -27 -151 1 -217 24
-54 90 -130 143 -164 53 -33 144 -57 199 -52 104 10 211 93 269 209 38 76 39
122 5 192 -14 28 -33 67 -42 86 -25 52 -62 73 -149 87 -98 16 -152 16 -229 -1z"/>
<path d="M1155 3620 c-111 -23 -299 -128 -346 -192 -75 -104 -30 -252 88 -292
58 -20 103 -20 148 -2 19 8 35 11 35 5 0 -5 -29 -71 -64 -147 -36 -75 -76
-172 -90 -213 -42 -125 -146 -550 -146 -597 0 -53 30 -113 70 -142 63 -45 174
-63 232 -37 43 19 363 364 608 655 47 55 88 101 93 101 13 2 7 -94 -14 -209
-29 -157 -67 -307 -129 -500 -119 -371 -119 -514 0 -577 105 -56 212 3 225
124 11 106 26 177 70 333 46 162 112 422 146 575 11 50 24 149 30 222 18 226
-11 365 -93 438 -48 44 -76 55 -136 55 -107 0 -200 -77 -442 -362 -63 -75
-116 -132 -118 -128 -2 5 18 62 43 127 98 248 117 311 122 419 7 137 -10 188
-87 266 -77 77 -145 98 -245 78z"/>
<path d="M3589 3302 c-65 -22 -135 -68 -173 -113 -59 -69 -98 -183 -98 -280 0
-130 139 -204 255 -136 25 15 61 27 79 27 77 0 191 46 242 96 67 67 87 183 47
269 -55 118 -217 181 -352 137z"/>
<path d="M4722 2963 c-120 -59 -148 -264 -60 -438 32 -61 97 -143 132 -164 56
-34 104 -35 165 -4 70 36 94 77 88 150 -5 67 -49 140 -100 168 -47 25 -50 35
-26 81 67 132 -68 272 -199 207z"/>
<path d="M2941 2560 c-35 -5 -93 -19 -130 -30 -97 -32 -408 -181 -441 -212
-58 -54 -80 -131 -60 -203 23 -82 124 -146 203 -130 18 4 115 46 217 95 102
49 198 92 214 96 28 7 28 6 21 -27 -27 -124 -115 -337 -183 -443 -21 -33 -26
-54 -27 -103 0 -53 4 -66 31 -100 79 -99 209 -109 307 -22 125 110 273 482
284 714 4 87 2 108 -18 160 -57 153 -218 232 -418 205z"/>
<path d="M4425 2331 c-91 -22 -155 -82 -175 -163 -10 -37 -9 -61 3 -119 9 -41
14 -75 12 -77 -2 -2 -54 13 -117 34 -99 34 -125 39 -208 39 -79 0 -103 -4
-141 -23 -102 -50 -181 -146 -219 -267 -24 -77 -27 -206 -12 -492 7 -136 9
-144 38 -185 56 -80 150 -112 246 -84 64 19 121 64 150 119 21 40 22 53 19
240 -1 108 -1 197 2 197 7 0 142 -48 179 -64 49 -21 194 -21 273 -1 202 53
311 257 276 518 -19 145 -43 207 -100 260 -67 63 -147 87 -226 68z"/>
<path d="M2131 1845 c-54 -17 -98 -57 -123 -114 -23 -51 -19 -90 18 -162 13
-26 42 -122 64 -212 80 -328 144 -443 326 -587 70 -56 185 -120 215 -120 11 0
36 -11 57 -23 55 -35 259 -133 315 -151 179 -59 319 -41 450 59 76 58 108 166
73 248 -45 108 -197 150 -298 81 -70 -47 -120 -42 -242 26 -131 73 -175 113
-205 186 -38 92 -79 159 -124 204 -49 49 -78 65 -134 75 -48 8 -39 -12 -91
200 -49 197 -86 261 -169 289 -55 19 -74 19 -132 1z"/>
</g>
</svg>
