<?xml version="1.0" standalone="no"?>
<!DOCTYPE svg PUBLIC "-//W3C//DTD SVG 20010904//EN"
 "http://www.w3.org/TR/2001/REC-SVG-20010904/DTD/svg10.dtd">
<svg version="1.0" xmlns="http://www.w3.org/2000/svg"
 width="600.000000pt" height="600.000000pt" viewBox="0 0 600.000000 600.000000"
 preserveAspectRatio="xMidYMid meet">
<metadata>
Created by potrace 1.15, written by Peter Selinger 2001-2017
</metadata>
<g transform="translate(0.000000,600.000000) scale(0.100000,-0.100000)"
fill="#16364b" stroke="none">
<path d="M2279 5820 c-38 -11 -434 -288 -575 -401 -211 -171 -279 -324 -208
-467 49 -98 135 -116 364 -77 140 23 252 58 520 159 241 91 259 103 281 176
17 57 -9 122 -63 157 -62 42 -104 37 -342 -40 -114 -38 -210 -66 -213 -64 -6
6 122 103 267 202 145 98 168 120 181 167 21 79 -32 163 -118 187 -43 12 -57
12 -94 1z"/>
<path d="M3106 5680 c-39 -12 -66 -38 -87 -85 -24 -52 -24 -97 1 -145 24 -48
57 -66 140 -79 145 -24 285 -94 334 -168 34 -51 47 -122 35 -196 -22 -137 -97
-216 -295 -313 -146 -72 -164 -89 -164 -162 0 -78 71 -142 158 -142 101 0 283
98 397 214 240 243 271 602 71 823 -102 112 -283 204 -489 248 -38 8 -69 15
-70 14 -1 0 -15 -5 -31 -9z"/>
<path d="M939 5303 c-102 -52 -228 -176 -268 -264 -71 -157 -69 -315 6 -464
33 -65 183 -214 246 -244 113 -55 231 13 231 133 0 66 -24 105 -100 160 -91
66 -141 162 -128 245 9 58 70 124 154 166 37 19 79 48 93 65 53 62 45 154 -18
209 -52 46 -118 44 -216 -6z"/>
<path d="M2705 4958 c-82 -30 -177 -113 -236 -206 -74 -117 -90 -290 -38 -402
63 -135 210 -250 357 -281 66 -13 111 0 148 44 51 60 61 142 25 199 -25 42
-44 53 -122 73 -79 21 -112 37 -138 71 -53 67 -7 161 116 238 53 32 74 64 80
119 5 49 -18 101 -57 129 -32 22 -97 30 -135 16z"/>
<path d="M4770 4931 c-19 -10 -48 -35 -65 -56 -28 -35 -30 -42 -29 -119 3
-164 54 -330 130 -423 120 -147 327 -174 435 -56 119 127 92 339 -63 492 -47
47 -88 74 -181 121 -131 66 -169 72 -227 41z"/>
<path d="M1834 4425 c-87 -19 -140 -49 -211 -121 -68 -68 -102 -129 -103 -184
0 -76 67 -150 137 -150 52 0 93 23 151 83 55 57 104 87 144 87 12 0 50 -14 82
-31 48 -26 67 -30 104 -26 81 9 142 77 142 157 0 61 -29 104 -96 142 -95 53
-229 69 -350 43z"/>
<path d="M2581 3820 c-66 -10 -99 -33 -129 -91 -37 -71 -19 -140 50 -192 28
-21 66 -24 183 -13 137 13 161 -13 111 -121 -52 -112 -145 -233 -335 -436
-108 -117 -121 -139 -121 -209 0 -117 99 -188 203 -144 63 26 352 347 453 501
190 293 178 565 -29 664 -98 47 -241 62 -386 41z"/>
<path d="M4290 3811 c-125 -24 -225 -76 -298 -156 -119 -129 -122 -288 -8
-412 27 -30 72 -66 100 -81 44 -23 63 -27 141 -27 116 0 164 22 262 121 63 64
80 89 147 226 82 166 88 195 57 256 -33 64 -66 75 -221 78 -74 2 -155 -1 -180
-5z m-10 -330 c0 -15 -51 -51 -72 -51 -25 0 -15 16 26 41 35 21 46 24 46 10z"/>
<path d="M1147 3724 c-83 -18 -218 -67 -273 -99 -85 -50 -119 -175 -71 -260
45 -79 126 -112 224 -91 l30 7 -53 -108 c-77 -158 -241 -573 -270 -682 -41
-158 -30 -238 44 -314 56 -58 141 -73 217 -38 52 23 297 254 555 522 153 158
206 208 209 194 17 -89 -129 -611 -259 -925 -71 -172 -74 -184 -60 -237 15
-53 74 -109 125 -119 53 -10 110 11 138 49 51 69 233 575 311 867 86 319 98
402 76 542 -12 81 -51 176 -84 207 -42 39 -115 64 -170 57 -100 -11 -148 -45
-333 -232 -95 -96 -173 -172 -173 -169 0 4 40 94 89 200 113 243 135 314 129
405 -14 186 -170 273 -401 224z"/>
<path d="M3502 3367 c-123 -47 -204 -202 -206 -395 l-1 -93 37 -34 c57 -53
104 -62 202 -42 148 30 273 113 316 210 24 51 26 143 5 193 -42 101 -136 164
-253 170 -38 2 -81 -2 -100 -9z"/>
<path d="M4797 2740 c-57 -49 -205 -283 -235 -369 l-11 -32 -32 36 c-118 134
-333 104 -413 -57 -33 -67 -33 -123 0 -245 14 -52 23 -97 20 -100 -3 -3 -33 6
-68 19 -273 108 -468 40 -533 -186 -38 -133 11 -577 75 -681 83 -135 267 -176
368 -82 66 61 75 135 42 326 -21 120 -25 171 -12 171 4 0 45 -25 91 -55 77
-50 89 -55 140 -55 159 0 302 81 360 205 46 99 49 178 14 427 l-5 37 38 -20
c124 -63 321 27 406 186 53 100 79 286 48 345 -16 31 -117 133 -147 149 -12 6
-42 11 -67 11 -36 0 -52 -6 -79 -30z"/>
<path d="M2935 2374 c-104 -26 -334 -117 -484 -192 -126 -63 -163 -97 -182
-172 l-12 -48 -61 -4 c-74 -6 -153 -42 -220 -100 -56 -48 -76 -88 -76 -152 0
-104 68 -179 178 -195 l44 -6 33 -115 c18 -63 32 -115 32 -116 -1 0 -24 -9
-52 -19 -144 -54 -238 -238 -222 -439 6 -85 37 -159 97 -236 113 -144 265
-258 452 -342 174 -78 293 -95 420 -62 96 24 299 127 336 168 55 63 55 160 -1
242 -71 104 -146 109 -305 19 -130 -73 -173 -80 -272 -41 -131 52 -254 149
-320 252 -38 61 -40 94 -4 94 32 0 59 -14 108 -57 87 -78 176 -93 262 -43 112
63 149 162 99 260 -7 14 -47 56 -89 93 -110 99 -133 151 -210 482 -9 39 -19
80 -22 93 -5 18 -2 22 15 22 12 0 57 18 100 40 129 65 389 180 405 180 20 0
20 -4 -5 -86 -25 -81 -77 -187 -153 -313 -92 -152 -99 -167 -94 -232 11 -148
177 -222 306 -136 61 41 222 322 281 490 37 106 71 266 71 335 0 83 -34 173
-87 232 -71 80 -127 103 -248 106 -55 2 -109 0 -120 -2z"/>
</g>
</svg>
