<?xml version="1.0" standalone="no"?>
<!DOCTYPE svg PUBLIC "-//W3C//DTD SVG 20010904//EN"
 "http://www.w3.org/TR/2001/REC-SVG-20010904/DTD/svg10.dtd">
<svg version="1.0" xmlns="http://www.w3.org/2000/svg"
 width="600.000000pt" height="600.000000pt" viewBox="0 0 600.000000 600.000000"
 preserveAspectRatio="xMidYMid meet">
<metadata>
Created by potrace 1.15, written by Peter Selinger 2001-2017
</metadata>
<g transform="translate(0.000000,600.000000) scale(0.100000,-0.100000)"
fill="#16364b" stroke="none">
<path d="M3117 5628 c-23 -14 -45 -38 -57 -64 -19 -38 -20 -49 -10 -110 20
-128 103 -268 203 -343 28 -22 97 -65 152 -96 143 -81 140 -74 59 -133 -37
-28 -160 -108 -272 -178 -235 -146 -257 -163 -273 -208 -9 -24 -24 -39 -57
-55 -61 -30 -111 -69 -126 -100 -26 -51 -28 -98 -7 -146 44 -99 159 -114 256
-33 42 35 144 66 253 77 107 11 151 33 176 85 20 43 20 65 0 116 -9 23 -15 42
-13 44 2 1 43 26 92 55 265 159 375 281 365 405 -10 116 -101 223 -298 346
-152 96 -185 127 -205 192 -8 29 -15 59 -15 68 0 24 -36 68 -70 85 -42 22
-108 18 -153 -7z"/>
<path d="M1211 5353 c-171 -102 -299 -280 -357 -498 -38 -145 -18 -386 39
-469 55 -79 187 -72 245 14 22 32 23 41 16 105 -4 39 -8 124 -8 190 -1 118 0
121 35 196 46 96 81 135 174 195 59 38 80 58 96 92 35 72 13 139 -61 190 -50
34 -103 30 -179 -15z"/>
<path d="M1577 5140 c-99 -18 -157 -77 -157 -160 0 -71 45 -127 124 -153 6 -2
-3 -37 -18 -78 -33 -88 -45 -207 -27 -271 39 -137 154 -208 342 -208 73 0 91
3 119 23 57 38 75 71 75 136 0 100 -66 161 -175 161 -34 0 -50 4 -50 13 0 7
20 63 45 124 68 167 70 257 9 339 -47 64 -170 95 -287 74z"/>
<path d="M4500 4591 c-53 -28 -80 -74 -80 -136 0 -96 46 -129 193 -140 53 -4
100 -11 102 -15 3 -5 -45 -33 -107 -63 -142 -69 -178 -107 -178 -186 0 -43 41
-112 80 -132 62 -34 104 -26 251 47 213 105 310 185 343 282 52 150 -30 267
-221 317 -70 19 -251 45 -307 45 -23 0 -57 -8 -76 -19z"/>
<path d="M1845 4235 c-119 -27 -269 -103 -394 -199 -69 -53 -98 -110 -88 -173
18 -110 152 -171 238 -108 159 116 266 170 366 185 75 10 120 34 150 80 42 61
21 156 -45 205 -34 25 -141 30 -227 10z"/>
<path d="M2507 3694 c-77 -17 -221 -68 -255 -90 -86 -56 -80 -192 10 -252 52
-34 99 -33 218 5 52 17 124 34 159 38 l64 7 -6 -42 c-11 -84 -198 -429 -339
-625 -36 -49 -68 -101 -73 -114 -12 -38 15 -111 57 -153 l38 -38 -24 -34 c-48
-71 -40 -177 17 -237 70 -71 154 -78 274 -23 163 75 318 130 327 116 2 -4 -8
-45 -23 -92 -27 -84 -57 -148 -139 -303 -31 -56 -42 -90 -42 -120 1 -62 31
-121 81 -154 37 -24 52 -28 115 -28 64 0 77 3 116 30 37 26 53 51 114 171 148
293 208 573 154 717 -22 59 -74 114 -136 145 -125 63 -342 49 -528 -33 -46
-20 -57 -23 -52 -10 3 9 54 96 113 193 59 97 126 218 149 267 79 169 121 339
108 427 -15 96 -79 179 -169 219 -65 29 -228 36 -328 13z"/>
<path d="M3982 3700 c-55 -13 -108 -55 -132 -105 -60 -125 22 -275 199 -362
70 -35 190 -44 255 -19 57 22 123 92 132 141 10 56 -10 110 -56 146 -28 23
-40 40 -40 58 0 33 -32 85 -66 107 -54 36 -209 54 -292 34z"/>
<path d="M1075 3526 c-94 -36 -267 -140 -299 -180 -60 -73 -45 -196 33 -277
63 -64 116 -79 183 -51 l48 20 0 -21 c0 -11 -38 -133 -85 -271 -100 -294 -133
-432 -142 -577 -7 -127 3 -164 57 -213 68 -62 203 -85 266 -47 18 11 72 70
120 132 49 61 129 160 177 218 49 58 132 158 185 222 54 63 114 139 134 169
37 54 37 54 47 28 13 -35 -4 -219 -30 -322 -11 -44 -40 -148 -64 -231 -65
-225 -88 -352 -87 -478 0 -98 2 -113 28 -165 24 -46 38 -61 76 -80 58 -29 105
-22 152 22 43 40 57 93 50 176 -8 81 5 151 98 530 59 241 70 303 75 401 7 139
-12 420 -33 490 -30 99 -116 159 -208 144 -96 -17 -165 -76 -308 -265 -95
-126 -228 -287 -228 -275 0 4 20 65 44 134 88 255 128 513 93 615 -52 152
-214 217 -382 152z"/>
<path d="M3620 3235 c-63 -20 -147 -81 -192 -139 -66 -89 -99 -237 -64 -291
63 -96 178 -111 261 -34 40 37 45 39 108 39 182 0 299 125 265 284 -13 61 -66
117 -133 140 -59 20 -182 20 -245 1z"/>
<path d="M4650 3171 c-96 -51 -108 -174 -25 -251 42 -38 111 -132 136 -182
l22 -45 -39 -35 c-35 -33 -38 -40 -41 -99 -5 -74 15 -115 69 -150 96 -60 260
42 299 184 39 143 -47 348 -217 520 -80 82 -132 97 -204 58z"/>
<path d="M4468 2255 c-91 -48 -134 -132 -126 -245 3 -43 1 -60 -8 -60 -7 0
-56 12 -111 27 -84 24 -117 28 -233 28 -130 0 -137 -1 -200 -31 -104 -49 -170
-129 -207 -249 -15 -51 -18 -96 -18 -300 0 -274 7 -307 75 -369 54 -49 104
-68 175 -69 71 0 126 24 173 77 47 54 52 88 45 298 l-6 189 29 -6 c16 -4 74
-18 129 -32 84 -20 114 -23 190 -18 304 22 445 161 445 440 0 191 -30 266
-129 317 -71 37 -155 38 -223 3z"/>
<path d="M2155 1841 c-49 -23 -79 -54 -101 -106 -14 -34 -15 -62 -10 -185 4
-80 11 -179 17 -220 26 -179 149 -466 241 -559 66 -66 148 -123 247 -169 66
-32 86 -36 152 -37 65 0 81 4 116 27 63 41 93 131 68 208 l-8 24 29 -18 c16
-10 67 -47 114 -81 148 -109 261 -152 375 -142 163 13 325 154 325 284 0 106
-86 183 -207 183 -50 0 -67 -5 -104 -30 -51 -34 -68 -36 -112 -14 -65 34 -224
149 -287 208 -88 83 -180 153 -232 176 -109 50 -231 -4 -269 -117 l-12 -38
-14 50 c-18 67 -42 263 -43 348 0 77 -15 120 -56 161 -63 63 -154 82 -229 47z"/>
</g>
</svg>
