<?xml version="1.0" standalone="no"?>
<!DOCTYPE svg PUBLIC "-//W3C//DTD SVG 20010904//EN"
 "http://www.w3.org/TR/2001/REC-SVG-20010904/DTD/svg10.dtd">
<svg version="1.0" xmlns="http://www.w3.org/2000/svg"
 width="600.000000pt" height="600.000000pt" viewBox="0 0 600.000000 600.000000"
 preserveAspectRatio="xMidYMid meet">
<metadata>
Created by potrace 1.15, written by Peter Selinger 2001-2017
</metadata>
<g transform="translate(0.000000,600.000000) scale(0.100000,-0.100000)"
fill="#16364b" stroke="none">
<path d="M2263 5459 c-71 -21 -128 -146 -128 -284 0 -70 4 -87 30 -134 60
-108 132 -130 350 -106 81 9 149 14 152 11 3 -2 -15 -35 -40 -73 -96 -149
-119 -187 -166 -282 -60 -118 -121 -290 -121 -338 0 -48 35 -107 76 -129 19
-10 34 -19 34 -20 0 -1 -7 -15 -15 -30 -17 -32 -20 -91 -6 -126 14 -36 60 -77
101 -89 34 -10 50 -7 161 29 274 90 399 123 564 147 156 23 204 57 212 152 7
91 -62 163 -157 163 -99 0 -246 -34 -507 -116 -95 -30 -177 -54 -182 -54 -14
0 32 125 79 220 21 41 79 138 130 215 148 227 205 368 186 466 -11 62 -59 125
-118 155 -74 38 -167 42 -327 15 -68 -12 -126 -20 -127 -18 -2 1 4 23 12 47
27 78 -15 158 -95 180 -42 12 -55 11 -98 -1z"/>
<path d="M3865 5084 c-96 -21 -226 -83 -249 -119 -44 -67 -25 -157 43 -202 49
-33 112 -31 194 8 48 22 77 29 109 27 l43 -3 3 -54 c4 -76 -20 -173 -79 -308
-55 -125 -59 -166 -25 -218 37 -56 132 -74 202 -38 93 47 184 328 184 569 0
128 -19 189 -77 254 -76 85 -204 116 -348 84z"/>
<path d="M1686 4930 c-97 -25 -215 -80 -357 -166 -112 -68 -164 -116 -175
-159 -12 -47 6 -97 49 -142 23 -23 54 -63 68 -90 36 -66 78 -84 290 -127 210
-43 275 -64 349 -113 102 -68 216 -51 263 39 66 130 -96 265 -423 353 -58 15
-109 31 -113 35 -17 15 108 53 198 60 142 10 195 52 203 159 4 62 -17 105 -71
145 -41 30 -174 33 -281 6z"/>
<path d="M4410 4235 c-174 -22 -205 -32 -244 -75 -63 -70 -57 -170 13 -217 40
-27 65 -28 226 -8 124 16 224 19 262 9 48 -13 37 -132 -33 -389 -31 -112 -34
-134 -25 -166 23 -75 112 -123 184 -100 64 21 86 58 129 208 53 190 71 298 66
413 -3 85 -7 102 -38 158 -38 72 -73 105 -145 138 -95 43 -217 52 -395 29z"/>
<path d="M2120 3904 c-101 -33 -310 -71 -482 -89 -98 -11 -168 -78 -168 -162
0 -57 23 -95 73 -123 35 -20 48 -22 126 -16 236 19 568 82 637 122 99 56 99
204 2 264 -39 24 -120 25 -188 4z"/>
<path d="M3683 3726 c-88 -29 -539 -249 -571 -279 -74 -68 -67 -181 14 -233
63 -42 129 -21 412 130 67 36 122 61 122 55 0 -6 -23 -65 -50 -131 -58 -137
-65 -163 -56 -213 9 -48 68 -112 116 -126 43 -13 97 0 124 30 22 24 160 391
180 479 23 102 21 149 -11 213 -50 97 -138 121 -280 75z"/>
<path d="M2119 3281 c-113 -13 -169 -66 -169 -164 0 -48 26 -96 71 -130 32
-23 54 -24 282 -12 113 5 167 5 167 -2 0 -6 -9 -39 -20 -73 -26 -80 -19 -120
29 -170 43 -45 93 -59 151 -41 57 17 94 69 120 165 41 151 12 280 -81 359 -70
60 -111 70 -309 73 -96 1 -205 -1 -241 -5z"/>
<path d="M4225 3196 c-16 -7 -56 -43 -88 -79 -140 -160 -343 -271 -539 -295
-88 -11 -133 -37 -154 -88 -32 -77 -8 -164 58 -204 113 -69 472 53 738 250 98
73 196 178 211 228 36 122 -106 241 -226 188z"/>
<path d="M4907 3184 c-64 -20 -130 -87 -153 -156 -13 -39 -15 -69 -10 -128 3
-43 3 -85 0 -94 -3 -9 -54 -53 -113 -99 -202 -156 -290 -264 -349 -429 -23
-64 -26 -89 -26 -198 -1 -123 0 -126 35 -200 41 -86 123 -181 183 -213 32 -17
58 -22 116 -21 82 0 102 8 161 61 75 68 84 183 22 277 -19 30 -25 52 -25 90 1
97 35 141 223 289 165 129 225 217 250 360 16 100 6 263 -22 328 -48 111 -176
170 -292 133z"/>
<path d="M1185 3031 c-67 -31 -105 -91 -105 -166 0 -46 46 -131 84 -155 38
-23 39 -27 56 -220 31 -370 52 -512 94 -646 44 -138 92 -184 192 -184 82 0
148 38 183 107 16 31 13 120 -4 172 -9 24 -18 64 -22 90 l-6 46 36 -34 c30
-28 46 -35 90 -39 75 -6 106 13 166 101 53 79 146 177 167 177 8 0 14 -8 14
-18 0 -11 14 -38 30 -61 l31 -42 -21 -67 c-71 -228 -89 -555 -36 -635 67 -99
211 -105 273 -10 15 23 19 58 24 233 6 176 11 219 33 303 36 137 34 187 -11
238 -9 11 -15 44 -17 90 -4 118 -66 213 -174 266 -110 54 -241 32 -349 -59
-56 -47 -159 -167 -216 -252 l-47 -68 0 108 c0 320 -62 568 -165 663 -80 74
-215 101 -300 62z"/>
<path d="M3436 2238 c-98 -11 -412 -70 -573 -107 -143 -33 -191 -60 -222 -123
-65 -135 30 -297 174 -298 23 0 108 18 190 41 256 69 436 109 532 115 l91 7
21 -41 c33 -65 73 -87 157 -87 62 0 75 3 107 28 81 61 104 183 54 289 -73 158
-231 211 -531 176z"/>
<path d="M4519 1591 c-44 -14 -73 -32 -113 -74 -65 -66 -99 -76 -333 -92 -386
-27 -519 -69 -693 -218 -41 -35 -106 -100 -144 -145 -38 -45 -75 -82 -83 -82
-25 0 -77 -32 -124 -75 -96 -89 -202 -115 -312 -77 -123 44 -251 153 -346 293
-66 99 -137 138 -226 124 -104 -15 -171 -117 -144 -218 22 -82 222 -336 337
-428 199 -159 450 -223 632 -161 102 35 214 106 301 191 55 54 91 81 119 90
26 8 67 37 118 84 208 194 307 232 637 247 280 11 349 36 493 173 74 71 101
122 102 189 0 83 -32 136 -105 169 -42 20 -74 22 -116 10z"/>
</g>
</svg>
