<?xml version="1.0" standalone="no"?>
<!DOCTYPE svg PUBLIC "-//W3C//DTD SVG 20010904//EN"
 "http://www.w3.org/TR/2001/REC-SVG-20010904/DTD/svg10.dtd">
<svg version="1.0" xmlns="http://www.w3.org/2000/svg"
 width="600.000000pt" height="600.000000pt" viewBox="0 0 600.000000 600.000000"
 preserveAspectRatio="xMidYMid meet">
<metadata>
Created by potrace 1.15, written by Peter Selinger 2001-2017
</metadata>
<g transform="translate(0.000000,600.000000) scale(0.100000,-0.100000)"
fill="#16364b" stroke="none">
<path d="M3534 5265 c-19 -46 -19 -50 17 -125 40 -86 94 -155 148 -191 50 -32
86 -37 119 -13 44 30 26 110 -51 224 -66 99 -119 140 -182 140 -32 0 -38 -4
-51 -35z m159 -167 l19 -33 -21 25 c-12 14 -27 34 -33 45 -9 17 -9 18 3 8 8
-6 22 -26 32 -45z"/>
<path d="M3032 5083 c-82 -40 -152 -164 -152 -269 0 -48 4 -59 29 -85 51 -50
118 -33 204 53 74 74 111 152 105 220 -7 69 -39 98 -106 98 -26 0 -62 -8 -80
-17z m88 -103 c0 -35 -36 -94 -84 -138 -26 -24 -51 -40 -57 -36 -12 7 -3 56
18 99 38 75 123 127 123 75z"/>
<path d="M4769 4714 l-24 -26 0 -261 c0 -238 2 -265 19 -301 13 -25 31 -43 53
-53 63 -26 115 10 140 96 37 128 -25 528 -87 561 -34 18 -75 11 -101 -16z"/>
<path d="M2644 4215 c-52 -35 -55 -119 -7 -176 66 -78 183 -121 329 -120 129
0 189 36 189 113 0 33 -6 45 -33 69 -18 16 -40 29 -48 29 -9 0 -86 23 -171 50
-160 52 -224 60 -259 35z"/>
<path d="M5235 3986 c-88 -28 -160 -88 -189 -157 -66 -158 18 -392 169 -472
59 -32 206 -31 289 2 79 32 146 95 182 174 39 83 41 197 6 269 -32 65 -94 124
-174 164 -62 31 -75 34 -155 33 -49 0 -106 -6 -128 -13z m149 -289 l30 -13
-22 -22 c-29 -29 -48 -28 -68 3 -27 42 1 57 60 32z"/>
<path d="M1386 3970 c-94 -47 -131 -110 -131 -225 0 -66 5 -90 27 -137 31 -67
95 -140 153 -173 84 -50 111 -96 179 -300 44 -133 74 -262 120 -505 33 -180
45 -281 66 -560 28 -374 154 -640 369 -778 69 -45 190 -89 270 -99 28 -3 54
-9 56 -14 3 -4 -22 -24 -55 -44 -83 -50 -165 -127 -189 -178 -30 -62 -28 -137
4 -175 46 -55 90 -65 295 -70 102 -2 189 -7 193 -11 4 -5 -17 -21 -48 -37 -74
-37 -99 -72 -92 -126 7 -55 34 -80 94 -85 42 -4 54 -1 94 29 80 58 125 124
135 202 9 64 -24 129 -80 158 -37 20 -59 23 -241 26 -110 2 -206 5 -213 7 -38
13 79 107 298 240 l95 58 152 -6 c83 -4 223 -13 310 -22 87 -8 187 -16 221
-17 l64 -3 1 -55 c3 -97 62 -146 189 -157 l57 -6 -1 -40 c0 -33 5 -46 30 -68
85 -76 283 -27 320 80 13 36 -14 99 -52 124 -40 27 -130 45 -255 51 -163 9
-195 31 -88 61 34 9 74 23 88 31 14 7 82 20 150 29 277 36 487 99 724 217 288
144 449 424 432 753 -8 168 -81 343 -193 464 -69 74 -128 113 -226 145 -193
65 -384 34 -545 -88 -128 -97 -295 -150 -525 -168 -116 -9 -169 -9 -249 1
-267 33 -486 143 -664 332 -74 80 -110 129 -262 359 -247 376 -409 548 -618
656 -38 20 -95 52 -125 70 -120 73 -253 94 -334 54z m185 -223 c207 -110 286
-166 395 -278 91 -95 166 -195 298 -398 135 -206 178 -263 291 -380 195 -202
368 -302 655 -378 132 -35 139 -36 325 -36 169 -1 204 2 317 26 70 15 162 41
205 58 85 33 202 99 223 124 20 24 97 60 158 75 108 25 245 -19 316 -101 44
-51 95 -135 119 -197 58 -146 31 -329 -71 -479 -81 -119 -183 -191 -377 -266
-199 -77 -296 -99 -569 -127 -215 -22 -378 -25 -561 -10 -66 6 -264 11 -440
11 -227 1 -342 5 -394 15 -289 54 -416 269 -451 764 -12 169 -15 191 -81 535
-83 432 -98 496 -144 618 -57 152 -115 232 -221 302 -62 41 -94 79 -94 111 0
40 38 44 101 11z"/>
<path d="M2357 2472 c-28 -31 -22 -70 16 -92 17 -11 36 -20 40 -20 16 0 57 50
57 70 0 50 -79 80 -113 42z"/>
<path d="M2808 2069 c-27 -15 -23 -71 5 -97 46 -44 107 -15 107 50 0 46 -66
74 -112 47z"/>
<path d="M4225 3761 c-96 -25 -172 -87 -217 -179 -29 -58 -33 -76 -33 -147 0
-91 15 -132 72 -188 53 -53 97 -71 189 -75 106 -5 164 19 233 94 64 70 91 141
91 237 0 132 -35 195 -132 237 -56 24 -153 34 -203 21z m85 -279 c0 -10 -5
-23 -12 -30 -15 -15 -48 -16 -48 -2 0 6 9 19 20 30 25 25 40 26 40 2z"/>
<path d="M3448 3363 c-36 -41 -148 -295 -148 -335 0 -30 18 -48 47 -48 30 0
79 66 143 196 52 104 64 160 40 189 -17 20 -63 19 -82 -2z"/>
<path d="M466 2017 c-12 -9 -17 -23 -14 -42 2 -24 18 -41 73 -82 78 -59 191
-118 246 -128 27 -5 40 -2 52 10 26 26 21 70 -10 94 -32 26 -298 161 -316 161
-7 0 -21 -6 -31 -13z"/>
<path d="M5320 1107 c-65 -32 -93 -180 -47 -248 34 -51 71 -65 121 -48 60 21
86 72 86 172 0 74 -2 80 -29 108 -33 32 -85 39 -131 16z"/>
</g>
</svg>
