<?xml version="1.0" standalone="no"?>
<!DOCTYPE svg PUBLIC "-//W3C//DTD SVG 20010904//EN"
 "http://www.w3.org/TR/2001/REC-SVG-20010904/DTD/svg10.dtd">
<svg version="1.0" xmlns="http://www.w3.org/2000/svg"
 width="600.000000pt" height="600.000000pt" viewBox="0 0 600.000000 600.000000"
 preserveAspectRatio="xMidYMid meet">
<metadata>
Created by potrace 1.15, written by Peter Selinger 2001-2017
</metadata>
<g transform="translate(0.000000,600.000000) scale(0.100000,-0.100000)"
fill="#16364b" stroke="none">
<path d="M1785 5801 c-16 -10 -37 -27 -46 -37 -21 -24 -72 -140 -154 -349 -93
-237 -100 -261 -100 -346 0 -65 4 -81 27 -116 58 -87 186 -113 301 -60 106 48
210 139 420 368 88 97 117 135 122 163 19 97 -52 178 -155 178 -63 0 -81 -10
-182 -110 -49 -48 -88 -82 -88 -76 0 5 20 60 45 122 25 61 45 122 45 134 0 38
-40 106 -74 128 -43 26 -120 27 -161 1z"/>
<path d="M2997 5691 c-58 -38 -86 -114 -65 -182 13 -46 51 -78 348 -300 85
-64 184 -147 219 -184 69 -74 114 -158 109 -202 -3 -26 -7 -28 -61 -34 -65 -7
-100 -28 -134 -79 -44 -64 -22 -156 49 -201 48 -30 176 -22 252 15 179 88 236
328 124 526 -75 133 -138 197 -402 409 -314 252 -312 251 -365 251 -28 0 -57
-7 -74 -19z"/>
<path d="M881 5435 c-170 -48 -293 -190 -321 -371 -14 -93 1 -187 45 -279 41
-86 86 -140 160 -190 46 -32 64 -39 104 -39 91 0 155 66 155 159 0 61 -21 100
-76 139 -54 39 -78 81 -78 136 0 53 27 103 67 123 15 8 53 17 84 20 111 11
164 62 164 159 0 61 -17 94 -69 132 -35 27 -157 32 -235 11z"/>
<path d="M2925 5164 c-55 -20 -120 -87 -157 -161 -79 -161 -6 -329 159 -364
118 -24 282 18 323 83 19 29 21 44 17 123 -9 156 -64 257 -169 309 -59 29
-112 32 -173 10z"/>
<path d="M4782 4893 c-38 -8 -99 -74 -107 -117 -10 -49 11 -304 29 -375 34
-124 107 -227 192 -271 61 -31 160 -33 214 -5 83 43 152 122 180 208 17 53 15
146 -4 204 -35 104 -164 223 -341 311 -82 42 -123 53 -163 45z"/>
<path d="M1990 4822 c-30 -10 -69 -26 -87 -35 -97 -51 -98 -208 -1 -267 39
-24 81 -25 139 -5 57 20 67 9 74 -80 8 -112 56 -160 160 -160 69 0 99 15 139
69 31 41 29 207 -2 286 -31 78 -83 144 -139 176 -40 24 -60 29 -138 31 -67 2
-104 -2 -145 -15z"/>
<path d="M2827 4065 c-88 -32 -137 -99 -137 -185 0 -71 25 -123 84 -181 123
-122 301 -164 558 -134 219 25 290 51 323 115 31 60 11 150 -41 187 -70 49
-353 161 -489 194 -95 22 -242 24 -298 4z"/>
<path d="M1120 4036 c-112 -17 -151 -31 -183 -64 -70 -73 -75 -190 -13 -275
26 -36 93 -67 144 -67 23 0 42 -3 42 -6 0 -9 -51 -73 -193 -238 -131 -153
-190 -241 -271 -403 -78 -157 -116 -258 -116 -309 0 -102 71 -182 170 -192 73
-7 131 18 182 80 56 66 223 192 498 374 124 83 246 165 271 183 26 19 52 30
58 26 26 -16 -16 -216 -76 -360 -103 -247 -360 -700 -474 -836 -80 -95 -42
-220 75 -254 52 -15 60 -15 119 7 64 24 290 375 431 668 199 417 252 602 244
855 -5 136 -23 192 -77 237 -108 91 -285 51 -543 -124 -32 -21 -58 -36 -58
-32 0 3 33 47 74 98 153 191 195 272 196 382 0 107 -53 195 -142 235 -43 19
-73 23 -163 25 -60 2 -148 -3 -195 -10z"/>
<path d="M4224 3796 c-126 -29 -224 -99 -270 -193 -67 -135 -7 -341 124 -424
132 -84 271 -62 392 60 76 76 122 159 169 303 28 85 31 101 21 136 -14 54 -65
97 -132 112 -85 19 -235 22 -304 6z m43 -341 c-42 -37 -65 -32 -30 7 9 10 26
18 37 18 19 -1 19 -2 -7 -25z"/>
<path d="M3434 3420 c-83 -19 -150 -87 -219 -221 -52 -101 -57 -149 -24 -209
34 -60 82 -81 191 -83 105 -2 130 7 192 70 102 105 126 292 49 384 -48 56
-115 77 -189 59z"/>
<path d="M5000 3143 c-57 -28 -221 -200 -253 -265 -52 -109 -58 -198 -18 -276
42 -81 113 -122 210 -122 192 0 351 177 351 390 0 66 -34 155 -79 207 -72 82
-136 102 -211 66z"/>
<path d="M3860 2647 c-58 -19 -126 -93 -145 -160 -21 -73 -16 -106 42 -266 24
-67 42 -125 40 -127 -2 -2 -23 2 -46 11 -151 53 -275 5 -343 -133 -29 -58 -33
-75 -32 -145 l0 -79 -22 44 c-68 134 -218 205 -379 180 -105 -16 -178 -44
-359 -134 -87 -43 -160 -77 -161 -76 -1 2 -7 36 -14 77 -37 212 -114 356 -222
416 -46 26 -64 30 -124 29 -90 -1 -157 -33 -238 -117 -86 -87 -185 -247 -202
-325 -4 -18 -22 -56 -41 -84 -120 -178 -189 -416 -188 -648 1 -161 21 -248 85
-371 111 -213 405 -401 711 -455 155 -27 278 -5 451 82 270 135 355 238 536
649 165 376 183 435 183 583 l0 93 35 -98 c19 -54 62 -178 95 -277 45 -131 69
-187 92 -214 105 -119 314 -86 385 61 23 48 28 137 11 183 -6 15 -9 28 -7 31
2 2 21 -4 43 -13 53 -22 126 -14 205 23 148 69 213 204 179 375 -6 35 -43 138
-81 230 -38 91 -96 248 -129 349 -67 203 -83 236 -137 271 -73 48 -147 59
-223 35z m-1796 -884 c7 -39 15 -111 26 -240 11 -138 30 -181 96 -219 46 -27
48 -27 148 -18 92 10 107 14 166 50 127 79 476 252 486 242 8 -9 -44 -194 -84
-295 -64 -161 -162 -361 -217 -443 -28 -42 -72 -91 -100 -112 -94 -72 -240
-96 -368 -63 -113 29 -272 126 -341 207 -116 136 -95 434 49 672 19 32 40 77
47 100 7 22 22 56 35 74 12 19 25 42 28 53 9 27 23 23 29 -8z"/>
</g>
</svg>
