<?xml version="1.0" standalone="no"?>
<!DOCTYPE svg PUBLIC "-//W3C//DTD SVG 20010904//EN"
 "http://www.w3.org/TR/2001/REC-SVG-20010904/DTD/svg10.dtd">
<svg version="1.0" xmlns="http://www.w3.org/2000/svg"
 width="600.000000pt" height="600.000000pt" viewBox="0 0 600.000000 600.000000"
 preserveAspectRatio="xMidYMid meet">
<metadata>
Created by potrace 1.15, written by Peter Selinger 2001-2017
</metadata>
<g transform="translate(0.000000,600.000000) scale(0.100000,-0.100000)"
fill="#16364b" stroke="none">
<path d="M3095 5672 c-43 -27 -61 -51 -75 -99 -16 -52 -6 -104 26 -142 13 -16
66 -58 117 -92 291 -196 389 -297 373 -385 -9 -47 -91 -132 -184 -192 -65 -42
-233 -132 -246 -132 -2 0 -6 12 -9 28 -12 59 -81 112 -146 112 -68 0 -250
-105 -319 -185 -51 -57 -84 -132 -90 -202 -4 -56 -1 -70 27 -127 17 -36 46
-77 64 -92 88 -74 243 -107 310 -65 66 40 86 130 44 192 -27 41 -82 79 -113
79 -57 0 -20 43 82 94 61 31 74 32 74 9 0 -63 92 -129 167 -120 48 5 265 119
371 194 133 95 224 214 256 338 21 79 20 130 -4 207 -39 125 -128 226 -370
418 -218 173 -288 205 -355 162z"/>
<path d="M1962 5543 c-18 -9 -42 -30 -54 -47 -12 -17 -91 -103 -176 -191 -168
-175 -243 -277 -268 -362 -33 -113 7 -214 106 -268 55 -30 55 -30 220 -29 119
0 188 5 249 18 114 24 300 84 332 107 83 59 77 207 -11 267 -42 28 -77 28
-180 -3 -98 -29 -218 -55 -257 -55 -26 0 -23 4 48 78 216 220 266 316 217 412
-31 61 -77 90 -142 90 -28 0 -66 -8 -84 -17z"/>
<path d="M1054 5317 c-156 -85 -269 -213 -320 -367 -24 -70 -23 -210 0 -300
34 -131 111 -256 188 -308 82 -54 209 -19 245 65 23 57 10 109 -43 173 -60 74
-87 133 -92 203 -8 104 36 172 171 265 112 76 116 230 7 284 -50 26 -87 22
-156 -15z"/>
<path d="M4663 4800 c-62 -37 -87 -108 -60 -171 12 -30 12 -39 1 -60 -55 -99
65 -306 221 -380 114 -55 232 -32 322 62 105 110 111 251 17 374 -52 69 -200
150 -326 180 -85 20 -137 19 -175 -5z"/>
<path d="M1797 4326 c-108 -32 -253 -130 -304 -207 -74 -112 17 -268 150 -256
44 4 55 11 110 65 34 33 82 70 106 82 45 23 69 23 182 4 84 -14 163 64 163
161 1 67 -21 101 -89 134 -41 21 -65 25 -159 28 -73 1 -128 -2 -159 -11z"/>
<path d="M2514 3786 c-178 -34 -224 -69 -224 -173 0 -115 107 -186 224 -150
68 21 218 42 240 34 27 -11 15 -69 -37 -180 -63 -134 -163 -279 -308 -444 -97
-111 -130 -156 -138 -188 -19 -75 14 -145 82 -176 96 -43 152 -17 278 126 111
126 185 228 275 377 178 295 221 479 148 625 -57 112 -148 154 -344 159 -78 2
-152 -2 -196 -10z"/>
<path d="M4146 3755 c-142 -30 -226 -95 -261 -203 -44 -135 44 -295 194 -353
84 -32 189 -31 262 4 78 37 160 127 207 224 50 105 49 141 -3 269 -21 50 -70
67 -210 70 -77 2 -145 -2 -189 -11z m91 -281 c-3 -3 -12 -4 -19 -1 -8 3 -5 6
6 6 11 1 17 -2 13 -5z"/>
<path d="M1172 3660 c-65 -14 -145 -45 -254 -101 -106 -55 -136 -87 -145 -159
-19 -138 150 -270 281 -220 15 5 26 6 26 0 0 -5 -36 -87 -79 -182 -89 -195
-109 -255 -181 -535 -61 -234 -63 -295 -17 -357 16 -20 41 -43 58 -51 45 -24
147 -30 190 -12 61 25 238 196 391 377 151 177 313 360 320 360 4 0 5 -12 3
-27 -2 -16 -12 -77 -21 -138 -32 -216 -93 -493 -153 -693 -75 -249 -81 -291
-49 -352 30 -59 77 -90 137 -90 91 0 139 53 165 187 9 45 39 157 67 250 63
211 83 290 108 428 47 259 74 625 52 725 -24 110 -83 164 -181 164 -98 0 -133
-25 -362 -256 -115 -115 -208 -206 -208 -203 0 3 33 80 74 173 132 300 158
416 120 522 -50 139 -197 220 -342 190z"/>
<path d="M3546 3326 c-112 -42 -198 -172 -228 -344 -14 -82 -5 -132 29 -173
47 -56 123 -74 186 -44 18 8 59 19 92 24 199 31 315 145 303 296 -9 104 -65
183 -163 226 -63 28 -166 35 -219 15z"/>
<path d="M4784 2869 c-68 -26 -138 -89 -172 -153 -23 -44 -27 -63 -26 -131 1
-66 5 -89 28 -133 61 -120 160 -188 262 -180 104 9 162 85 171 228 6 84 -6
137 -37 165 -15 14 -17 26 -13 70 7 64 -13 103 -67 134 -46 26 -80 26 -146 0z"/>
<path d="M2914 2495 c-193 -44 -514 -172 -571 -227 -90 -88 -62 -253 54 -309
65 -31 114 -23 268 48 142 66 290 121 299 112 12 -12 -75 -234 -168 -429 -57
-119 -47 -212 30 -280 67 -59 166 -59 232 -2 29 26 188 326 264 497 97 220 93
373 -15 491 -70 77 -138 107 -246 111 -48 1 -113 -4 -147 -12z"/>
<path d="M4408 2370 c-96 -17 -168 -115 -168 -226 0 -23 5 -77 11 -119 6 -42
8 -79 5 -82 -3 -3 -46 11 -96 31 -244 98 -361 87 -490 -43 -123 -124 -167
-250 -157 -454 6 -132 31 -301 53 -354 66 -157 283 -204 401 -86 49 48 78 130
69 191 -11 72 -26 284 -21 292 3 5 15 5 28 0 182 -75 225 -82 332 -55 173 45
283 158 316 324 23 119 -2 387 -44 468 -44 85 -141 131 -239 113z"/>
<path d="M2085 1881 c-73 -34 -115 -102 -115 -186 0 -56 18 -100 59 -148 27
-30 39 -63 71 -184 21 -81 50 -179 63 -218 14 -38 30 -99 37 -134 6 -36 24
-90 40 -120 34 -68 180 -230 273 -304 79 -63 265 -166 354 -196 127 -43 253
-24 418 62 144 76 199 152 174 241 -16 57 -46 93 -103 121 -69 34 -105 32
-208 -16 -100 -46 -115 -46 -229 5 l-55 24 -1 49 c-1 51 -20 99 -48 123 -9 7
-35 45 -57 84 -49 83 -127 163 -186 190 -46 21 -44 18 -122 276 -45 151 -91
240 -146 289 -71 62 -145 76 -219 42z"/>
</g>
</svg>
