<?xml version="1.0" standalone="no"?>
<!DOCTYPE svg PUBLIC "-//W3C//DTD SVG 20010904//EN"
 "http://www.w3.org/TR/2001/REC-SVG-20010904/DTD/svg10.dtd">
<svg version="1.0" xmlns="http://www.w3.org/2000/svg"
 width="600.000000pt" height="600.000000pt" viewBox="0 0 600.000000 600.000000"
 preserveAspectRatio="xMidYMid meet">
<metadata>
Created by potrace 1.15, written by Peter Selinger 2001-2017
</metadata>
<g transform="translate(0.000000,600.000000) scale(0.100000,-0.100000)"
fill="#16364b" stroke="none">
<path d="M1775 5781 c-16 -10 -37 -27 -46 -37 -20 -24 -161 -385 -195 -501
-52 -175 -42 -288 32 -352 100 -89 229 -58 402 96 77 70 325 353 354 406 39
70 14 166 -54 207 -76 46 -139 20 -251 -102 -45 -49 -83 -85 -85 -80 -1 5 16
54 38 109 45 114 51 170 20 213 -41 58 -153 80 -215 41z"/>
<path d="M2980 5674 c-40 -34 -61 -76 -62 -125 -1 -76 13 -92 201 -221 186
-128 292 -211 353 -275 92 -97 160 -233 127 -254 -8 -5 -32 -9 -54 -9 -144 -1
-191 -200 -65 -275 27 -15 51 -20 100 -18 132 3 217 58 277 180 35 71 38 83
38 162 -1 71 -6 99 -29 156 -85 208 -245 366 -619 614 -127 83 -143 91 -187
91 -38 0 -55 -6 -80 -26z"/>
<path d="M960 5436 c-121 -27 -246 -115 -307 -217 -83 -140 -83 -330 0 -472
31 -53 129 -145 174 -164 90 -37 192 12 209 102 11 58 -5 95 -71 165 -66 70
-82 107 -69 162 15 71 59 103 157 113 45 5 66 13 92 36 91 80 77 217 -29 268
-48 24 -76 25 -156 7z"/>
<path d="M2949 5176 c-54 -14 -93 -40 -144 -97 -59 -65 -78 -118 -73 -205 5
-98 36 -145 132 -194 64 -33 75 -35 160 -34 108 0 180 21 221 64 34 36 44 109
26 205 -25 134 -98 231 -198 261 -54 16 -64 17 -124 0z"/>
<path d="M4809 4877 c-52 -20 -97 -54 -117 -90 -14 -26 -17 -55 -15 -157 3
-248 71 -398 211 -467 48 -24 69 -28 137 -27 67 0 89 4 131 27 144 74 184 242
100 411 -48 97 -173 219 -279 271 -87 43 -121 49 -168 32z"/>
<path d="M2010 4831 c-113 -36 -152 -72 -165 -152 -9 -52 22 -119 67 -147 40
-25 87 -28 153 -10 31 8 48 9 55 2 6 -6 14 -42 18 -81 13 -119 63 -167 169
-161 49 3 68 9 89 28 57 54 67 121 39 253 -46 220 -225 333 -425 268z"/>
<path d="M1160 4079 c-142 -24 -162 -31 -203 -67 -48 -44 -67 -85 -67 -146 0
-112 75 -186 190 -186 27 0 50 -3 50 -7 0 -5 -37 -48 -81 -98 -256 -286 -307
-365 -459 -709 -47 -108 -52 -124 -48 -177 5 -70 39 -125 99 -158 78 -44 205
-23 255 43 11 13 60 50 109 81 115 74 248 173 401 301 152 127 227 184 243
184 21 0 33 -53 26 -122 -9 -95 -57 -278 -100 -379 -62 -148 -256 -445 -400
-614 -81 -94 -90 -114 -82 -177 11 -84 114 -144 204 -119 55 15 105 72 273
311 254 363 340 550 435 948 23 93 14 286 -16 371 -54 154 -202 193 -383 102
-44 -22 -116 -63 -159 -92 -43 -28 -80 -50 -82 -48 -2 2 28 42 66 89 145 177
194 282 187 403 -7 118 -64 208 -158 250 -52 24 -209 32 -300 16z"/>
<path d="M2877 4070 c-162 -41 -241 -192 -165 -318 77 -128 323 -187 669 -163
192 14 222 24 257 91 48 95 17 162 -103 227 -225 121 -528 196 -658 163z"/>
<path d="M4230 3779 c-164 -29 -289 -142 -313 -282 -26 -157 87 -306 254 -336
145 -25 300 50 389 189 37 58 100 228 100 271 0 76 -48 131 -131 148 -73 16
-236 21 -299 10z m35 -309 c-19 -21 -55 -27 -55 -10 0 11 35 28 59 29 11 1 10
-4 -4 -19z"/>
<path d="M3378 3398 c-50 -31 -81 -74 -137 -188 -55 -114 -61 -174 -22 -229
29 -41 69 -58 154 -67 88 -9 126 0 175 41 61 53 95 130 100 229 3 71 1 87 -20
126 -52 96 -170 138 -250 88z"/>
<path d="M5012 3155 c-90 -39 -223 -169 -274 -269 -44 -87 -50 -192 -16 -267
66 -144 195 -190 340 -120 81 38 148 109 191 199 29 61 32 75 32 167 0 117
-16 158 -94 238 -62 64 -116 79 -179 52z"/>
<path d="M3848 2630 c-81 -43 -135 -149 -125 -244 3 -28 21 -105 41 -171 19
-66 33 -121 31 -123 -2 -2 -28 4 -57 14 -31 11 -82 19 -124 19 -61 0 -77 -4
-120 -30 -92 -57 -126 -166 -102 -330 l8 -50 -30 60 c-56 116 -160 191 -280
202 -104 10 -252 -38 -488 -156 -67 -34 -126 -61 -130 -61 -5 0 -15 33 -22 73
-16 93 -54 225 -81 282 -30 64 -94 132 -153 163 -68 35 -168 37 -239 4 -93
-42 -262 -235 -313 -357 -8 -21 -31 -58 -49 -82 -66 -86 -132 -284 -160 -474
-30 -210 -14 -417 45 -572 81 -214 344 -438 590 -504 123 -32 368 -20 530 28
129 38 250 131 336 262 27 39 63 88 80 107 33 35 90 143 138 258 15 35 54 120
87 190 117 245 155 373 146 491 -2 36 -1 57 3 46 5 -11 43 -121 86 -245 93
-270 113 -311 172 -350 117 -77 260 -43 318 76 23 47 26 63 21 121 -3 38 -8
78 -12 90 -7 23 -7 23 31 7 86 -36 253 12 324 93 70 79 95 199 71 339 -17 95
-147 465 -239 678 -47 109 -129 166 -236 166 -40 -1 -74 -7 -98 -20z m-1770
-862 c6 -24 22 -105 36 -180 27 -149 39 -179 83 -219 71 -64 114 -84 177 -84
52 0 70 6 121 36 142 85 464 239 501 239 18 0 13 -24 -33 -148 -72 -196 -209
-474 -237 -485 -8 -3 -30 -30 -49 -59 -65 -102 -141 -153 -277 -185 -162 -38
-304 9 -441 146 -66 66 -79 85 -100 146 -21 61 -24 88 -23 200 1 158 25 267
84 386 22 44 40 86 40 92 0 7 18 36 39 65 22 29 43 61 46 72 10 32 22 23 33
-22z"/>
</g>
</svg>
