<?xml version="1.0" standalone="no"?>
<!DOCTYPE svg PUBLIC "-//W3C//DTD SVG 20010904//EN"
 "http://www.w3.org/TR/2001/REC-SVG-20010904/DTD/svg10.dtd">
<svg version="1.0" xmlns="http://www.w3.org/2000/svg"
 width="600.000000pt" height="600.000000pt" viewBox="0 0 600.000000 600.000000"
 preserveAspectRatio="xMidYMid meet">
<metadata>
Created by potrace 1.15, written by Peter Selinger 2001-2017
</metadata>
<g transform="translate(0.000000,600.000000) scale(0.100000,-0.100000)"
fill="#16364b" stroke="none">
<path d="M2165 5436 c-74 -32 -128 -145 -129 -268 -1 -63 3 -82 20 -105 54
-72 123 -93 316 -93 120 0 130 -1 123 -17 -37 -93 -158 -479 -162 -519 -13
-121 94 -202 197 -149 41 21 63 58 98 167 18 53 59 165 92 249 67 166 90 244
90 299 0 95 -65 191 -158 232 -37 16 -74 22 -169 26 l-123 4 6 37 c15 101
-101 181 -201 137z"/>
<path d="M3616 5399 c-89 -22 -140 -79 -138 -156 0 -58 32 -106 87 -133 38
-18 54 -20 113 -14 64 6 72 4 92 -16 35 -35 24 -128 -34 -269 -52 -126 -56
-163 -23 -212 31 -47 81 -71 138 -66 68 6 101 34 152 134 103 202 130 348 88
476 -56 168 -170 254 -348 262 -49 3 -106 0 -127 -6z"/>
<path d="M1733 4849 c-96 -15 -279 -64 -373 -100 -97 -37 -133 -68 -151 -127
-25 -84 42 -179 134 -189 l44 -5 -1 -63 c-1 -50 4 -70 20 -92 39 -52 75 -68
225 -97 79 -16 189 -37 244 -48 55 -10 136 -30 180 -44 95 -30 141 -26 190 17
43 38 59 79 53 134 -11 95 -66 131 -273 180 -91 22 -138 31 -363 66 -39 6 -70
15 -67 19 13 20 188 51 283 49 109 -1 134 6 176 50 62 66 37 180 -51 229 -49
27 -171 37 -270 21z"/>
<path d="M4245 4396 c-16 -7 -41 -26 -55 -41 -21 -22 -25 -36 -25 -88 0 -110
42 -141 205 -151 121 -8 169 -19 201 -45 20 -16 24 -30 27 -92 2 -41 -3 -116
-12 -167 -26 -148 -22 -177 32 -235 55 -59 159 -56 206 6 33 43 56 155 63 304
9 194 -23 305 -114 396 -59 60 -122 92 -215 111 -95 20 -271 21 -313 2z"/>
<path d="M3230 4386 c-19 -7 -69 -28 -110 -46 -41 -18 -144 -59 -228 -91 -231
-89 -378 -162 -402 -202 -31 -51 -35 -93 -14 -145 23 -54 72 -92 119 -92 19 0
88 26 167 64 74 35 224 99 334 141 256 100 280 111 306 147 30 43 34 114 10
158 -34 62 -116 92 -182 66z"/>
<path d="M2210 3865 c-130 -42 -414 -81 -520 -71 -78 7 -122 -11 -157 -63 -46
-68 -22 -182 46 -228 29 -19 48 -23 125 -25 234 -4 328 6 504 54 162 44 211
83 220 176 11 121 -94 197 -218 157z"/>
<path d="M3710 3770 c-37 -9 -149 -56 -405 -169 -300 -133 -310 -141 -310
-246 0 -54 4 -67 25 -90 65 -70 110 -70 254 -4 169 79 347 159 352 159 2 0 4
-19 4 -41 0 -117 130 -178 225 -105 42 33 110 167 127 250 32 162 -105 285
-272 246z"/>
<path d="M4925 3354 c-99 -51 -138 -151 -110 -283 17 -83 12 -131 -18 -176
-11 -16 -73 -84 -137 -150 -159 -162 -224 -269 -271 -444 -29 -107 -36 -271
-16 -341 62 -210 327 -230 423 -32 13 26 19 64 20 132 3 170 34 228 224 425
157 163 198 225 225 336 8 35 15 94 15 130 0 79 -24 226 -46 277 -20 49 -70
100 -119 123 -50 23 -148 25 -190 3z"/>
<path d="M2035 3198 c-53 -14 -105 -81 -105 -135 0 -47 40 -104 90 -130 40
-20 66 -24 215 -31 l170 -7 5 -52 c6 -61 32 -101 81 -125 46 -24 86 -23 139 5
81 40 114 127 92 236 -23 108 -85 178 -201 222 -50 20 -76 22 -257 23 -111 1
-214 -2 -229 -6z"/>
<path d="M4318 3148 c-20 -5 -65 -35 -100 -65 -177 -156 -423 -267 -651 -294
-101 -12 -151 -31 -179 -69 -45 -61 -27 -164 35 -211 29 -22 41 -24 127 -23
164 2 404 61 555 136 153 77 365 240 400 309 23 43 19 110 -7 149 -45 65 -106
89 -180 68z"/>
<path d="M1270 2991 c-60 -32 -93 -83 -98 -150 -4 -52 -1 -66 26 -113 36 -64
48 -132 62 -364 12 -202 31 -316 66 -415 39 -111 111 -245 150 -278 87 -77
236 -57 301 40 21 32 26 52 26 97 0 48 -8 70 -46 142 -77 145 -95 224 -126
560 -23 246 -42 332 -84 396 -46 70 -106 104 -182 104 -40 0 -72 -6 -95 -19z"/>
<path d="M2106 2489 c-101 -25 -265 -142 -316 -224 -64 -104 12 -235 136 -235
50 0 56 3 116 56 57 51 124 94 145 94 5 0 17 -14 27 -30 26 -46 67 -79 104
-86 44 -8 48 -20 10 -28 -48 -10 -100 -72 -123 -147 -26 -84 -27 -283 -1 -379
43 -161 97 -264 155 -295 69 -35 158 -6 193 65 26 51 22 92 -16 180 -64 145
-67 241 -12 360 30 64 32 90 10 136 -20 42 -62 73 -109 81 -35 6 -49 23 -19
23 61 0 132 99 120 166 -15 80 -112 196 -201 242 -56 28 -153 38 -219 21z"/>
<path d="M3713 2165 c-40 -8 -139 -30 -220 -50 -203 -50 -269 -62 -485 -90
-243 -31 -289 -55 -319 -167 -25 -91 26 -187 116 -221 48 -19 55 -19 205 -2
175 19 352 48 614 100 209 41 223 42 275 15 52 -28 98 -34 148 -21 122 33 177
169 117 289 -66 133 -233 187 -451 147z"/>
<path d="M4642 1619 c-18 -6 -65 -40 -105 -78 -108 -102 -123 -108 -384 -147
-367 -54 -568 -126 -744 -264 -86 -66 -119 -119 -119 -188 0 -41 -1 -42 -27
-36 -16 3 -34 8 -41 10 -28 8 -109 -19 -167 -56 -155 -97 -291 -103 -457 -19
-85 43 -148 89 -245 181 -91 87 -112 98 -185 98 -136 0 -227 -148 -169 -275
38 -85 269 -273 435 -355 143 -71 232 -92 386 -93 146 -1 215 14 335 74 161
79 226 145 233 235 l5 55 31 -8 c66 -17 125 -8 174 27 215 153 300 186 587
230 200 30 279 48 368 82 159 61 323 200 346 295 23 90 -30 189 -121 227 -41
18 -86 19 -136 5z"/>
</g>
</svg>
