<?xml version="1.0" standalone="no"?>
<!DOCTYPE svg PUBLIC "-//W3C//DTD SVG 20010904//EN"
 "http://www.w3.org/TR/2001/REC-SVG-20010904/DTD/svg10.dtd">
<svg version="1.0" xmlns="http://www.w3.org/2000/svg"
 width="600.000000pt" height="600.000000pt" viewBox="0 0 600.000000 600.000000"
 preserveAspectRatio="xMidYMid meet">
<metadata>
Created by potrace 1.15, written by Peter Selinger 2001-2017
</metadata>
<g transform="translate(0.000000,600.000000) scale(0.100000,-0.100000)"
fill="#16364b" stroke="none">
<path d="M2378 5404 c-15 -8 -30 -25 -32 -37 -3 -12 -12 -125 -21 -251 -18
-250 -27 -313 -57 -393 -28 -75 -104 -151 -193 -193 -91 -42 -105 -56 -105
-97 0 -48 14 -70 54 -83 31 -10 43 -8 111 21 195 81 305 219 339 424 17 100
35 450 28 533 -6 80 -58 112 -124 76z"/>
<path d="M3508 5283 c-44 -46 -48 -70 -26 -141 23 -75 84 -155 152 -197 39
-24 60 -29 108 -30 56 0 61 2 95 39 32 35 35 42 31 87 -4 34 -17 66 -46 111
-77 117 -137 158 -235 158 -45 0 -57 -4 -79 -27z"/>
<path d="M3022 5145 c-90 -28 -158 -110 -189 -226 -16 -63 -16 -67 3 -124 33
-104 115 -133 222 -79 69 34 107 80 132 160 57 186 -23 315 -168 269z m25
-200 c-12 -42 -57 -89 -57 -61 0 30 42 96 61 96 4 0 2 -16 -4 -35z"/>
<path d="M4759 4767 c-9 -7 -21 -22 -27 -34 -15 -28 -16 -317 -1 -399 34 -191
103 -284 212 -284 45 0 53 4 92 43 57 57 80 131 72 237 -9 137 -78 270 -200
388 -54 51 -71 62 -99 62 -18 0 -40 -6 -49 -13z"/>
<path d="M2678 4220 c-53 -16 -97 -51 -117 -94 -38 -77 -22 -146 49 -217 95
-95 248 -106 406 -28 126 62 172 128 141 201 -21 48 -43 64 -132 92 -169 53
-276 67 -347 46z"/>
<path d="M1114 4142 c-17 -11 -36 -35 -44 -53 -7 -19 -21 -52 -31 -75 -23 -49
-23 -56 -3 -123 56 -191 334 -250 413 -88 57 117 -6 230 -174 313 -92 45 -122
50 -161 26z"/>
<path d="M5220 3911 c-89 -27 -165 -95 -195 -174 -24 -63 -17 -200 14 -278 28
-74 88 -141 153 -173 42 -21 66 -26 128 -26 43 0 96 7 123 16 100 34 189 152
205 274 22 156 -46 266 -218 355 -31 16 -164 20 -210 6z m118 -297 c28 -8 28
-28 0 -48 -26 -19 -48 -5 -48 30 0 25 9 28 48 18z"/>
<path d="M4210 3760 c-111 -28 -194 -90 -237 -178 -24 -49 -28 -69 -28 -142 0
-73 4 -93 28 -142 49 -100 135 -151 257 -152 66 -1 84 3 142 32 137 67 217
219 218 410 0 135 -53 175 -235 179 -60 1 -126 -2 -145 -7z m90 -273 c0 -22
-31 -57 -51 -57 -26 0 -24 16 6 45 26 27 45 32 45 12z"/>
<path d="M3427 3350 c-32 -25 -157 -268 -157 -305 0 -14 11 -37 25 -50 67 -68
188 11 250 163 34 83 34 154 0 187 -30 31 -82 33 -118 5z"/>
<path d="M1440 3219 c-197 -10 -282 -22 -371 -53 -131 -46 -223 -125 -282
-246 -30 -61 -32 -71 -32 -180 0 -108 2 -119 30 -175 63 -126 210 -234 370
-271 39 -9 108 -28 155 -41 77 -23 90 -30 142 -83 65 -66 107 -149 187 -365
129 -347 281 -565 452 -649 143 -70 224 -76 839 -58 1052 31 1115 37 1322 126
186 81 435 257 548 387 189 221 270 493 215 729 -35 148 -155 334 -306 474
-117 108 -218 147 -389 147 -222 1 -352 -42 -704 -235 -103 -56 -179 -85 -243
-91 -308 -32 -358 -16 -737 234 -343 226 -434 274 -620 321 -65 16 -359 45
-401 38 -5 0 -84 -5 -175 -9z m302 -389 c288 -20 363 -47 563 -207 271 -217
522 -346 740 -382 172 -28 262 -29 385 -5 169 33 292 85 484 202 175 107 245
135 346 136 92 1 155 -26 242 -104 126 -112 158 -298 83 -482 -47 -116 -116
-181 -325 -307 -186 -112 -319 -161 -493 -180 -54 -6 -293 -11 -545 -11 -344
0 -481 -4 -586 -16 -238 -27 -378 4 -466 104 -61 69 -131 220 -215 464 -92
268 -125 337 -193 404 -93 93 -274 172 -451 199 -51 8 -110 23 -130 33 -38 20
-59 58 -48 86 23 60 280 88 609 66z"/>
<path d="M478 2085 c-55 -31 -69 -106 -25 -132 7 -4 24 -30 37 -56 55 -111
184 -217 265 -217 53 0 96 43 102 103 11 98 -72 205 -214 273 -87 42 -129 49
-165 29z"/>
<path d="M5183 1227 c-15 -12 -41 -29 -57 -37 -65 -33 -84 -123 -45 -210 40
-88 99 -125 160 -100 54 23 86 109 91 248 3 61 1 65 -30 93 -39 35 -80 38
-119 6z"/>
</g>
</svg>
