<?xml version="1.0" standalone="no"?>
<!DOCTYPE svg PUBLIC "-//W3C//DTD SVG 20010904//EN"
 "http://www.w3.org/TR/2001/REC-SVG-20010904/DTD/svg10.dtd">
<svg version="1.0" xmlns="http://www.w3.org/2000/svg"
 width="600.000000pt" height="600.000000pt" viewBox="0 0 600.000000 600.000000"
 preserveAspectRatio="xMidYMid meet">
<metadata>
Created by potrace 1.15, written by Peter Selinger 2001-2017
</metadata>
<g transform="translate(0.000000,600.000000) scale(0.100000,-0.100000)"
fill="#16364b" stroke="none">
<path d="M1580 5787 c-50 -33 -66 -69 -91 -202 -31 -161 -33 -405 -5 -510 54
-202 145 -259 295 -184 127 64 312 331 386 561 28 86 28 86 11 132 -35 91
-136 132 -206 84 -30 -20 -41 -40 -76 -138 -53 -149 -84 -215 -128 -281 l-36
-54 0 80 c0 90 14 237 31 337 11 59 10 73 -6 113 -30 80 -108 108 -175 62z"/>
<path d="M3244 5531 c-32 -19 -64 -74 -64 -109 0 -55 23 -84 134 -167 102 -77
236 -200 225 -207 -2 -2 -24 -10 -48 -18 -55 -19 -83 -55 -88 -117 -5 -59 17
-98 79 -141 66 -46 136 -65 217 -60 90 5 142 38 177 111 75 162 -41 372 -323
583 -205 153 -240 167 -309 125z"/>
<path d="M907 5479 c-149 -21 -267 -121 -318 -267 -30 -86 -24 -235 14 -316
36 -78 87 -139 143 -172 38 -22 53 -26 96 -22 42 4 57 11 80 37 51 57 50 130
-3 178 -74 67 -79 75 -79 129 0 60 27 107 78 137 30 18 39 18 90 7 66 -13 100
-5 145 38 78 74 45 202 -60 235 -67 21 -119 26 -186 16z"/>
<path d="M2967 5174 c-72 -22 -165 -119 -197 -204 -53 -143 -22 -262 82 -314
60 -30 103 -32 179 -10 164 49 199 101 199 293 0 205 -92 287 -263 235z"/>
<path d="M2299 4991 c-63 -20 -99 -63 -99 -119 0 -47 -25 -68 -132 -111 -57
-23 -118 -50 -136 -61 -64 -39 -79 -137 -30 -199 22 -29 83 -61 113 -61 16 0
197 75 266 111 60 30 127 96 156 152 35 70 42 180 14 224 -34 54 -97 80 -152
64z"/>
<path d="M4784 4820 c-32 -13 -72 -67 -80 -107 -10 -54 3 -259 21 -326 20 -76
57 -148 102 -198 131 -145 344 -118 436 55 34 64 31 183 -6 257 -50 103 -143
190 -302 282 -80 47 -123 57 -171 37z"/>
<path d="M2765 4122 c-109 -38 -165 -112 -165 -219 0 -149 111 -242 303 -251
116 -6 218 9 347 50 173 55 210 87 210 183 0 95 -35 126 -208 184 -202 67
-387 88 -487 53z"/>
<path d="M1047 4066 c-51 -19 -76 -42 -99 -95 -24 -52 -18 -113 15 -162 35
-52 75 -69 186 -80 152 -14 153 -14 89 -78 -63 -63 -208 -173 -412 -313 -82
-57 -158 -115 -169 -130 -11 -14 -22 -49 -24 -75 -9 -85 44 -161 128 -183 51
-14 77 -6 165 51 41 27 76 49 78 49 2 0 15 -17 29 -39 35 -53 102 -85 167 -79
40 4 69 18 163 82 191 128 248 146 417 131 75 -7 116 12 149 66 24 40 35 126
21 165 -31 82 -133 126 -217 93 -15 -6 -58 -15 -95 -20 -37 -4 -79 -11 -94
-15 l-28 -7 34 42 c61 75 80 105 101 161 65 174 -24 340 -216 399 -122 38
-331 58 -388 37z"/>
<path d="M4225 3776 c-142 -45 -265 -174 -296 -311 -33 -147 73 -291 240 -326
151 -32 324 69 401 233 38 81 73 223 66 262 -9 45 -41 93 -73 110 -77 39 -260
57 -338 32z m65 -315 c0 -11 -39 -41 -52 -41 -15 0 -8 29 10 39 22 13 42 14
42 2z"/>
<path d="M3435 3393 c-57 -15 -116 -85 -184 -220 -59 -117 -52 -188 22 -233
68 -42 218 -19 274 41 72 79 108 276 64 347 -38 59 -103 83 -176 65z"/>
<path d="M5124 3359 c-99 -20 -268 -154 -317 -252 -127 -249 62 -492 316 -408
108 35 186 108 240 221 26 55 31 77 31 140 0 96 -26 152 -109 236 -64 64 -95
77 -161 63z"/>
<path d="M1091 2883 c-50 -26 -76 -66 -76 -118 0 -57 26 -91 101 -133 114 -64
163 -132 172 -237 12 -151 -95 -319 -212 -332 -41 -5 -48 -3 -78 28 -54 55
-79 69 -130 69 -38 0 -54 -6 -81 -30 -42 -37 -60 -94 -45 -148 15 -55 119
-153 191 -181 232 -86 543 129 613 425 19 82 14 251 -10 327 -43 135 -138 247
-260 307 -82 40 -139 47 -185 23z"/>
<path d="M2223 2756 c-113 -37 -178 -99 -280 -271 -47 -78 -89 -132 -145 -187
-43 -42 -78 -81 -78 -87 0 -5 -26 -43 -58 -83 -134 -168 -215 -319 -259 -485
-21 -80 -26 -123 -27 -233 -1 -154 10 -202 76 -335 118 -239 328 -411 595
-487 106 -30 336 -33 428 -4 267 82 474 265 634 561 144 264 188 447 178 734
-3 113 -9 159 -25 203 -72 199 -213 304 -437 323 -119 10 -125 14 -158 98 -15
40 -40 90 -55 112 -35 50 -107 105 -169 128 -65 25 -167 30 -220 13z m117
-493 c41 -83 97 -144 183 -201 35 -23 55 -27 200 -38 132 -11 164 -16 174 -30
18 -24 16 -154 -2 -253 -65 -341 -224 -634 -402 -738 -138 -81 -340 -82 -479
-2 -165 94 -254 236 -254 407 0 173 73 331 234 511 36 40 66 77 66 80 0 4 25
39 55 77 31 38 74 101 97 139 23 39 50 85 61 103 11 18 21 32 23 30 1 -2 21
-40 44 -85z"/>
<path d="M4095 2355 c-90 -49 -132 -132 -120 -242 6 -61 6 -65 -12 -58 -72 29
-136 29 -198 -2 -97 -49 -134 -141 -110 -276 13 -72 119 -397 148 -452 54
-106 205 -126 297 -41 20 19 39 25 102 28 83 5 128 26 182 85 60 65 73 197 41
427 -8 61 -24 176 -35 256 -24 167 -43 215 -101 256 -51 35 -146 45 -194 19z"/>
</g>
</svg>
