<?xml version="1.0" standalone="no"?>
<!DOCTYPE svg PUBLIC "-//W3C//DTD SVG 20010904//EN"
 "http://www.w3.org/TR/2001/REC-SVG-20010904/DTD/svg10.dtd">
<svg version="1.0" xmlns="http://www.w3.org/2000/svg"
 width="600.000000pt" height="600.000000pt" viewBox="0 0 600.000000 600.000000"
 preserveAspectRatio="xMidYMid meet">
<metadata>
Created by potrace 1.15, written by Peter Selinger 2001-2017
</metadata>
<g transform="translate(0.000000,600.000000) scale(0.100000,-0.100000)"
fill="#16364b" stroke="none">
<path d="M3069 5653 c-61 -51 -76 -134 -36 -194 13 -19 53 -51 93 -74 201
-114 309 -207 359 -309 67 -138 -15 -247 -308 -407 l-102 -56 -5 46 c-9 77
-50 124 -117 137 -30 6 -51 -1 -129 -41 -182 -92 -291 -225 -302 -366 -8 -111
36 -195 130 -249 65 -36 184 -65 235 -55 42 8 99 59 109 98 19 77 -43 168
-123 182 -24 4 -46 11 -49 17 -10 17 36 54 124 102 l82 44 0 -27 c0 -44 41
-113 80 -133 67 -35 109 -23 293 78 313 172 418 302 420 519 3 250 -174 470
-534 664 -116 62 -168 68 -220 24z"/>
<path d="M2003 5546 c-17 -8 -43 -32 -57 -54 -13 -21 -80 -90 -148 -153 -278
-256 -331 -324 -345 -437 -10 -90 41 -183 121 -216 97 -41 149 -34 724 90 86
19 127 48 143 104 16 52 4 103 -32 145 -47 53 -88 61 -190 36 -107 -26 -244
-51 -278 -51 -24 0 -19 6 44 62 187 166 252 259 242 344 -9 79 -65 134 -144
141 -28 2 -61 -3 -80 -11z"/>
<path d="M1072 5322 c-85 -43 -204 -143 -260 -218 -78 -104 -97 -164 -97 -304
1 -103 4 -122 29 -183 58 -138 164 -275 231 -297 70 -23 152 16 181 87 27 64
13 112 -57 192 -84 96 -103 238 -43 323 16 23 50 57 74 75 95 71 123 98 141
137 47 105 -10 216 -111 216 -19 0 -59 -13 -88 -28z"/>
<path d="M4686 4825 c-81 -29 -124 -100 -104 -172 7 -25 6 -43 -1 -60 -32 -70
15 -181 123 -289 92 -91 163 -127 263 -133 118 -5 203 40 247 132 36 74 41
123 21 193 -47 161 -177 273 -379 324 -92 23 -117 24 -170 5z"/>
<path d="M1811 4335 c-128 -36 -301 -165 -337 -252 -39 -91 6 -185 101 -213
61 -18 118 1 174 57 66 65 132 96 190 90 25 -3 65 -11 88 -18 133 -41 234 148
141 266 -12 15 -47 39 -77 53 -71 32 -199 39 -280 17z"/>
<path d="M2521 3795 c-152 -34 -212 -73 -227 -150 -10 -54 19 -120 68 -156 54
-39 89 -43 184 -24 45 9 113 15 154 13 l75 -3 -2 -40 c-3 -54 -87 -221 -160
-316 -32 -42 -109 -136 -172 -208 -161 -185 -166 -192 -166 -260 0 -69 29
-114 89 -142 105 -48 150 -22 310 177 363 451 479 734 383 935 -43 90 -101
140 -198 170 -74 23 -240 25 -338 4z"/>
<path d="M4150 3759 c-165 -28 -290 -158 -290 -300 0 -99 71 -208 170 -259 13
-7 47 -19 75 -26 179 -48 360 40 453 221 37 72 48 148 25 177 -6 7 -13 29 -17
50 -10 56 -68 102 -152 121 -94 21 -198 28 -264 16z m65 -299 c-3 -5 -13 -10
-21 -10 -8 0 -14 5 -14 10 0 6 9 10 21 10 11 0 17 -4 14 -10z"/>
<path d="M1082 3634 c-145 -49 -252 -115 -283 -175 -30 -60 -24 -150 14 -208
43 -64 100 -96 172 -95 33 0 70 4 82 8 23 8 23 8 9 -30 -8 -22 -57 -137 -110
-257 -137 -312 -196 -510 -196 -656 0 -104 61 -174 168 -191 115 -19 150 4
359 240 81 91 190 210 243 265 52 55 124 135 160 178 l65 78 3 -38 c10 -111
-29 -316 -114 -603 -67 -230 -124 -455 -124 -495 1 -96 73 -178 160 -179 93
-2 138 55 164 205 24 141 66 316 131 549 66 239 78 331 79 645 1 230 0 242
-21 282 -48 89 -137 115 -240 69 -49 -22 -90 -59 -265 -237 -115 -116 -208
-208 -208 -205 0 3 29 71 64 151 81 181 112 271 126 363 42 267 -168 428 -438
336z"/>
<path d="M3558 3331 c-123 -40 -205 -153 -243 -335 -17 -81 -17 -88 -1 -131
32 -83 111 -120 199 -92 29 9 87 23 129 31 180 34 281 146 264 289 -11 101
-81 190 -174 222 -59 20 -139 27 -174 16z"/>
<path d="M4750 2819 c-73 -40 -108 -74 -136 -134 -47 -99 -25 -234 55 -340
108 -142 296 -137 370 10 35 70 36 181 1 243 -13 23 -27 42 -32 42 -4 0 -8 19
-8 43 -1 142 -120 208 -250 136z"/>
<path d="M2936 2495 c-163 -34 -485 -167 -585 -242 -37 -29 -71 -93 -71 -138
0 -68 60 -149 132 -179 70 -29 107 -22 256 53 132 66 232 111 280 126 21 6 22
4 16 -22 -21 -92 -94 -294 -140 -391 -71 -149 -72 -215 -6 -286 36 -38 81 -56
143 -56 102 0 155 54 259 260 130 259 190 575 133 702 -30 66 -94 132 -155
158 -65 28 -171 34 -262 15z"/>
<path d="M4355 2367 c-59 -23 -105 -59 -131 -103 -41 -69 -45 -107 -28 -212 9
-51 14 -96 11 -98 -3 -3 -48 11 -101 30 -124 47 -186 60 -260 54 -158 -13
-281 -139 -308 -316 -9 -54 -7 -106 11 -267 11 -110 24 -227 27 -260 7 -79 23
-113 72 -157 60 -54 140 -71 226 -47 49 14 122 80 137 127 13 39 8 153 -15
312 -8 52 -11 98 -7 102 3 3 47 -12 96 -34 50 -22 106 -44 125 -49 59 -15 209
10 282 47 181 91 240 275 192 601 -23 163 -67 235 -162 269 -45 16 -127 16
-167 1z"/>
<path d="M2085 1874 c-73 -38 -105 -89 -105 -169 0 -69 26 -124 77 -162 21
-15 39 -27 40 -28 1 0 24 -83 52 -183 46 -165 50 -190 45 -250 -7 -79 14 -173
53 -240 34 -60 149 -192 220 -252 63 -55 253 -153 381 -197 65 -23 94 -27 187
-27 118 0 209 20 307 70 116 59 151 201 76 306 -27 39 -96 77 -151 84 -41 6
-57 2 -136 -36 -101 -48 -117 -48 -215 -2 l-58 27 -2 80 c-1 68 -5 85 -26 115
-13 19 -29 40 -36 45 -6 6 -23 32 -39 59 -35 62 -96 129 -153 168 -49 34 -49
33 -103 222 -53 184 -86 253 -149 309 -79 71 -195 98 -265 61z"/>
</g>
</svg>
