<?xml version="1.0" standalone="no"?>
<!DOCTYPE svg PUBLIC "-//W3C//DTD SVG 20010904//EN"
 "http://www.w3.org/TR/2001/REC-SVG-20010904/DTD/svg10.dtd">
<svg version="1.0" xmlns="http://www.w3.org/2000/svg"
 width="600.000000pt" height="600.000000pt" viewBox="0 0 600.000000 600.000000"
 preserveAspectRatio="xMidYMid meet">
<metadata>
Created by potrace 1.15, written by Peter Selinger 2001-2017
</metadata>
<g transform="translate(0.000000,600.000000) scale(0.100000,-0.100000)"
fill="#16364b" stroke="none">
<path d="M3155 5646 c-45 -20 -72 -55 -100 -127 -41 -102 -55 -171 -55 -262 0
-208 108 -316 338 -334 39 -3 72 -9 72 -12 0 -3 -66 -46 -146 -96 -137 -84
-356 -242 -433 -310 -73 -66 -80 -133 -26 -231 57 -101 161 -156 467 -243 95
-28 206 -62 247 -76 92 -31 138 -32 181 -2 50 33 74 81 75 148 0 64 -22 104
-69 127 -26 13 -122 38 -376 97 -63 15 -128 32 -144 39 l-30 12 100 73 c103
76 188 132 389 256 66 41 139 90 162 109 113 97 108 245 -10 322 -65 43 -151
63 -320 75 -77 6 -151 15 -163 20 -29 10 -26 34 17 152 34 91 36 127 10 183
-33 73 -120 111 -186 80z"/>
<path d="M1470 5427 c-52 -19 -119 -68 -188 -137 -108 -107 -295 -373 -362
-511 -43 -91 -90 -257 -90 -321 0 -54 26 -104 69 -134 59 -40 126 -34 286 26
189 71 375 112 375 82 0 -4 -36 -68 -81 -142 -149 -251 -192 -361 -187 -484 4
-87 34 -142 91 -169 69 -33 97 -25 323 89 346 176 382 206 372 315 -12 123
-126 165 -255 94 -35 -19 -63 -33 -63 -31 0 3 27 55 60 118 32 62 67 142 76
178 50 196 -57 348 -258 367 -76 7 -210 -11 -325 -42 -46 -13 -83 -21 -83 -17
0 10 64 106 134 202 81 111 175 213 228 246 51 33 71 75 66 139 -8 101 -98
164 -188 132z"/>
<path d="M4635 4436 c-44 -13 -141 -40 -215 -61 -74 -20 -147 -43 -162 -51
-45 -23 -68 -62 -68 -114 0 -61 30 -107 90 -138 55 -29 82 -26 243 23 65 20
121 34 124 31 18 -17 -149 -257 -305 -439 -40 -47 -77 -100 -82 -118 -14 -49
4 -102 48 -139 20 -18 48 -53 62 -78 33 -61 65 -81 212 -131 224 -76 298 -104
298 -111 0 -10 -106 -183 -205 -334 -50 -77 -86 -143 -90 -166 -14 -81 47
-150 133 -150 74 0 107 23 174 123 33 50 92 133 132 186 135 180 168 250 168
357 1 109 -49 183 -167 249 -33 19 -141 61 -239 95 -99 33 -181 62 -183 64 -2
2 26 43 63 92 149 196 292 441 320 548 8 28 14 69 14 91 -1 75 -57 159 -123
184 -46 18 -156 11 -242 -13z"/>
<path d="M3792 3670 c-66 -41 -90 -124 -56 -196 9 -19 44 -55 83 -83 105 -78
124 -103 127 -160 l2 -50 -82 6 c-146 10 -258 -30 -350 -127 -57 -59 -110
-152 -121 -212 -9 -50 23 -121 67 -148 44 -27 122 -27 166 0 18 11 45 41 60
66 15 26 36 58 48 72 19 23 24 24 54 14 51 -18 159 -14 206 7 75 34 109 120
81 199 -8 20 -6 22 31 22 126 0 187 162 117 307 -35 70 -164 203 -255 262 -73
47 -124 53 -178 21z"/>
<path d="M2510 3639 c-84 -12 -180 -50 -276 -110 -108 -68 -139 -109 -139
-188 0 -135 131 -193 249 -111 117 79 265 126 267 83 9 -159 -93 -434 -248
-673 -66 -103 -68 -106 -68 -172 0 -65 2 -69 37 -105 36 -35 40 -37 141 -46
l105 -11 113 44 c122 47 261 92 266 86 7 -7 -39 -112 -113 -258 -61 -123 -74
-156 -74 -196 0 -147 193 -244 325 -162 32 20 47 43 101 154 117 246 177 437
177 569 0 66 -5 87 -29 135 -66 129 -238 181 -448 137 -38 -8 -71 -14 -72 -12
-2 1 10 41 25 87 49 145 65 242 66 390 0 112 -3 143 -19 180 -41 95 -131 161
-247 180 -35 5 -68 9 -74 9 -5 -1 -35 -5 -65 -10z"/>
<path d="M1113 3420 c-135 -28 -367 -198 -394 -289 -35 -119 64 -261 182 -261
19 0 52 9 74 20 21 11 41 18 43 15 3 -2 -1 -39 -8 -82 -11 -74 -26 -143 -87
-403 -24 -102 -27 -135 -28 -300 0 -173 1 -188 22 -227 31 -57 86 -101 163
-129 94 -34 142 -32 185 9 36 34 289 396 463 661 96 147 106 158 118 141 27
-36 12 -142 -67 -477 -62 -266 -82 -391 -83 -518 -1 -122 9 -168 50 -230 71
-106 220 -120 287 -26 33 46 31 142 -3 188 -21 28 -24 42 -22 98 4 94 34 272
98 571 48 226 56 281 57 379 2 159 -16 314 -43 378 -53 124 -193 176 -315 118
-92 -43 -168 -139 -305 -381 -81 -145 -160 -268 -167 -262 -2 3 7 67 21 143
15 77 38 202 52 279 14 77 28 192 31 255 4 101 3 122 -17 172 -47 125 -168
187 -307 158z"/>
<path d="M4688 2206 c-95 -26 -171 -104 -185 -190 -3 -20 -8 -36 -12 -36 -3 0
-46 7 -96 16 -137 24 -303 23 -398 -4 -187 -53 -298 -145 -347 -286 -18 -55
-34 -143 -46 -268 l-6 -68 -84 79 c-138 131 -260 178 -390 151 -71 -15 -103
-30 -171 -82 -67 -51 -116 -115 -207 -272 -86 -147 -75 -155 -101 69 -8 72
-24 163 -35 204 -22 78 -70 183 -98 215 -51 56 -168 74 -242 36 -50 -25 -78
-66 -92 -132 -9 -47 -8 -60 12 -113 41 -111 58 -189 75 -345 29 -263 64 -390
141 -506 142 -214 421 -284 522 -132 22 34 27 56 33 137 8 109 29 174 114 346
50 103 106 185 125 185 17 0 73 -54 148 -144 144 -172 205 -210 332 -211 225
0 362 194 401 565 5 57 12 107 15 111 11 18 109 19 230 3 186 -25 324 -24 397
5 108 42 187 121 226 226 28 75 44 186 36 251 -17 137 -159 229 -297 190z"/>
</g>
</svg>
