<?xml version="1.0" standalone="no"?>
<!DOCTYPE svg PUBLIC "-//W3C//DTD SVG 20010904//EN"
 "http://www.w3.org/TR/2001/REC-SVG-20010904/DTD/svg10.dtd">
<svg version="1.0" xmlns="http://www.w3.org/2000/svg"
 width="600.000000pt" height="600.000000pt" viewBox="0 0 600.000000 600.000000"
 preserveAspectRatio="xMidYMid meet">
<metadata>
Created by potrace 1.15, written by Peter Selinger 2001-2017
</metadata>
<g transform="translate(0.000000,600.000000) scale(0.100000,-0.100000)"
fill="#16364b" stroke="none">
<path d="M1832 4705 c-80 -35 -144 -115 -162 -201 -14 -65 0 -144 37 -218 30
-59 68 -205 89 -336 8 -52 19 -212 24 -355 6 -143 15 -348 21 -455 14 -264 13
-464 -1 -590 -9 -69 -11 -159 -6 -265 19 -465 113 -757 291 -904 94 -78 252
-144 378 -160 l52 -6 6 -165 c7 -187 16 -251 60 -418 46 -170 51 -156 -61
-162 -108 -6 -150 -23 -170 -69 -39 -94 53 -154 203 -133 142 20 226 85 234
179 3 37 -5 76 -37 173 -56 168 -81 325 -78 471 l3 114 33 -1 c17 0 238 -1
490 -2 l457 -2 1 -167 c1 -192 18 -312 65 -443 48 -132 52 -124 -68 -130 -95
-5 -105 -7 -130 -33 -34 -33 -37 -89 -8 -129 68 -94 299 -65 377 47 45 65 46
114 5 246 -19 63 -40 137 -46 164 -31 149 -44 340 -28 416 7 36 9 37 65 44 76
9 454 83 515 100 132 39 258 146 317 270 80 167 104 391 61 550 -47 169 -123
270 -291 387 -120 83 -155 100 -367 181 -94 37 -233 96 -307 132 -75 35 -164
77 -199 91 -107 45 -239 114 -326 171 -111 72 -314 237 -428 346 -114 110
-184 212 -298 432 -48 94 -144 258 -214 365 -70 107 -145 228 -167 268 -76
143 -172 212 -294 212 -36 -1 -80 -7 -98 -15z m141 -148 c44 -19 104 -88 135
-156 14 -31 38 -72 53 -91 62 -78 215 -337 310 -522 136 -269 197 -350 389
-521 294 -263 406 -337 740 -487 63 -28 147 -69 187 -90 39 -21 163 -73 275
-115 111 -43 225 -88 251 -101 74 -36 223 -141 258 -182 74 -84 126 -254 114
-372 -15 -150 -65 -279 -142 -361 -68 -72 -121 -93 -348 -138 -350 -69 -299
-66 -1010 -64 -614 2 -654 3 -727 22 -139 36 -225 94 -296 201 -133 199 -201
621 -157 975 19 150 19 292 0 492 -8 87 -19 284 -25 438 -16 419 -50 643 -126
836 -51 128 -46 190 19 229 38 23 57 25 100 7z"/>
<path d="M2540 2660 c-28 -28 -25 -64 6 -89 45 -35 85 -26 103 22 11 29 1 63
-23 79 -21 14 -66 8 -86 -12z"/>
<path d="M3010 2450 c-28 -28 -25 -57 9 -91 35 -34 54 -36 81 -9 31 31 30 75
-2 103 -27 23 -63 22 -88 -3z"/>
<path d="M5320 3990 c-112 -24 -230 -112 -277 -208 -40 -81 -40 -183 -1 -263
37 -74 97 -135 164 -166 48 -22 66 -25 138 -22 71 4 93 9 157 41 144 71 211
170 212 313 1 118 -52 204 -167 272 -67 39 -142 50 -226 33z m74 -316 c34 -13
5 -54 -39 -54 -16 0 -37 38 -28 53 5 9 45 9 67 1z"/>
<path d="M5307 1096 c-12 -13 -30 -46 -40 -72 -41 -116 -3 -203 90 -204 73 0
119 56 124 155 4 70 0 91 -26 119 -20 21 -33 26 -75 26 -41 0 -55 -5 -73 -24z"/>
</g>
</svg>
