<?xml version="1.0" standalone="no"?>
<!DOCTYPE svg PUBLIC "-//W3C//DTD SVG 20010904//EN"
 "http://www.w3.org/TR/2001/REC-SVG-20010904/DTD/svg10.dtd">
<svg version="1.0" xmlns="http://www.w3.org/2000/svg"
 width="600.000000pt" height="600.000000pt" viewBox="0 0 600.000000 600.000000"
 preserveAspectRatio="xMidYMid meet">
<metadata>
Created by potrace 1.15, written by Peter Selinger 2001-2017
</metadata>
<g transform="translate(0.000000,600.000000) scale(0.100000,-0.100000)"
fill="#16364b" stroke="none">
<path d="M2203 5481 c-152 -56 -249 -184 -274 -361 -9 -67 -9 -137 1 -330 8
-153 11 -326 7 -460 -4 -118 -11 -363 -17 -545 -5 -181 -16 -409 -24 -505 -9
-96 -16 -201 -16 -232 0 -43 -4 -58 -14 -58 -26 0 -270 77 -345 108 -40 17
-107 50 -148 74 -68 39 -74 44 -67 68 19 67 -6 112 -29 51 -6 -17 -14 -31 -18
-31 -4 0 -12 21 -19 47 -6 26 -16 53 -22 60 -18 23 -38 -5 -38 -53 0 -24 -3
-44 -6 -44 -3 0 -19 11 -36 25 -16 14 -34 25 -39 25 -20 0 -20 -30 0 -59 30
-42 27 -52 -10 -39 -33 11 -54 1 -44 -23 9 -22 240 -168 340 -215 90 -42 254
-97 395 -132 l75 -18 -3 -265 c-5 -360 17 -554 89 -779 106 -330 285 -502 589
-564 l25 -5 0 -153 c0 -191 20 -301 91 -505 15 -45 26 -85 22 -88 -3 -3 -44
-10 -91 -15 -125 -13 -177 -47 -177 -116 0 -40 42 -78 95 -88 73 -14 204 27
269 84 80 71 84 121 22 310 -63 193 -80 284 -81 427 0 67 3 124 7 128 3 4 48
2 100 -4 150 -17 633 -34 755 -26 62 3 116 4 121 1 5 -3 2 -40 -5 -83 -24
-132 -3 -262 79 -482 27 -73 46 -137 41 -141 -4 -5 -52 -10 -106 -12 -97 -3
-99 -4 -128 -36 -49 -55 -35 -123 34 -159 46 -24 157 -21 229 6 95 36 160 133
143 212 -4 16 -29 86 -57 156 -73 185 -91 261 -91 373 0 57 5 111 14 135 l14
40 125 7 c235 14 297 24 377 62 82 39 166 112 214 187 66 103 99 278 99 522 0
136 -50 480 -86 595 -30 93 -96 210 -173 305 -28 34 -51 66 -51 72 -1 5 34 17
77 26 232 50 502 182 639 311 55 52 65 74 39 84 -9 4 -14 14 -13 23 2 12 -5
16 -34 15 -35 -1 -37 0 -31 27 8 41 -24 39 -59 -3 l-26 -33 -7 28 c-5 19 -13
27 -24 25 -13 -3 -15 -14 -13 -54 l2 -50 -65 -43 c-130 -85 -330 -164 -495
-195 -150 -29 -128 -40 -339 166 -192 188 -223 213 -524 410 -280 183 -498
415 -603 644 -63 135 -85 241 -134 644 -12 96 -31 204 -42 240 -41 134 -110
219 -217 268 -76 35 -211 42 -288 13z m225 -160 c92 -48 137 -137 158 -313 45
-394 74 -545 133 -707 60 -163 138 -277 306 -447 130 -132 224 -205 495 -386
207 -138 244 -170 544 -467 341 -337 372 -390 429 -726 38 -222 40 -249 27
-396 -25 -281 -87 -415 -223 -480 -69 -32 -85 -35 -371 -54 -440 -30 -1111
-10 -1386 41 -237 44 -394 213 -479 516 -39 138 -51 259 -51 515 0 220 32 850
46 898 17 61 33 1110 23 1580 -4 210 -3 223 18 275 27 65 82 126 138 151 54
25 145 25 193 0z"/>
<path d="M2605 2888 c-43 -24 -46 -58 -9 -93 33 -30 57 -32 84 -5 54 54 -8
136 -75 98z"/>
<path d="M3166 2839 c-32 -25 -33 -59 -3 -87 32 -30 71 -28 96 4 26 33 27 58
1 84 -26 26 -60 25 -94 -1z"/>
<path d="M3139 1946 c-2 -2 -56 -9 -119 -15 -82 -8 -126 -8 -153 0 -33 9 -42
8 -58 -7 -27 -24 -21 -65 11 -82 19 -10 56 -12 145 -7 279 12 334 17 345 31
18 21 7 57 -20 71 -23 11 -141 19 -151 9z"/>
</g>
</svg>
