<?xml version="1.0" standalone="no"?>
<!DOCTYPE svg PUBLIC "-//W3C//DTD SVG 20010904//EN"
 "http://www.w3.org/TR/2001/REC-SVG-20010904/DTD/svg10.dtd">
<svg version="1.0" xmlns="http://www.w3.org/2000/svg"
 width="600.000000pt" height="600.000000pt" viewBox="0 0 600.000000 600.000000"
 preserveAspectRatio="xMidYMid meet">
<metadata>
Created by potrace 1.15, written by Peter Selinger 2001-2017
</metadata>
<g transform="translate(0.000000,600.000000) scale(0.100000,-0.100000)"
fill="#16364b" stroke="none">
<path d="M1982 5029 c-30 -12 -72 -40 -100 -67 -103 -101 -121 -197 -79 -417
42 -216 48 -315 45 -695 -2 -195 1 -515 6 -710 5 -195 6 -393 2 -440 l-8 -85
-65 -70 c-92 -97 -183 -203 -283 -328 -64 -80 -91 -106 -109 -107 -19 0 -23
-4 -19 -25 5 -22 2 -25 -23 -25 -37 0 -46 -17 -21 -42 l21 -21 -21 -17 c-29
-23 -15 -44 23 -36 27 5 28 4 19 -14 -29 -54 5 -53 76 2 30 24 54 46 54 51 0
4 37 50 83 101 45 50 122 139 172 196 51 60 91 98 92 90 1 -8 9 -103 18 -210
34 -417 83 -567 236 -721 80 -81 207 -148 349 -183 l95 -24 -3 -139 c-2 -76 1
-168 7 -204 14 -83 60 -243 96 -332 15 -38 25 -71 22 -73 -3 -3 -43 -9 -89
-13 -122 -11 -158 -38 -158 -117 0 -52 28 -90 79 -105 80 -24 241 46 296 130
34 51 35 110 2 198 -74 193 -100 328 -95 489 2 76 7 127 15 135 9 9 32 8 100
-2 63 -10 198 -14 476 -14 l388 0 -5 -30 c-29 -166 0 -345 90 -558 49 -117 49
-117 -39 -117 -133 0 -187 -31 -187 -107 0 -90 93 -131 232 -102 64 14 104 33
141 68 72 66 76 138 16 279 -81 188 -110 297 -112 412 -1 71 17 165 33 175 7
4 158 27 447 66 162 22 265 97 335 246 80 171 133 467 111 622 -30 201 -161
410 -340 542 -45 32 -55 50 -25 44 9 -2 96 -16 192 -31 111 -17 182 -32 193
-42 16 -14 27 -14 90 -4 77 14 94 23 81 44 -5 7 -9 33 -9 58 0 32 -4 45 -15
47 -78 10 -90 15 -90 33 0 24 -25 26 -38 5 -7 -14 -20 -14 -123 4 -63 12 -224
34 -359 51 -236 30 -247 32 -290 62 -131 91 -230 153 -365 227 -194 107 -261
153 -454 311 -235 193 -326 296 -424 480 -39 73 -248 583 -332 808 -32 85 -98
178 -153 215 -90 59 -204 73 -300 36z m186 -143 c59 -31 99 -90 140 -207 16
-46 61 -163 100 -259 38 -96 95 -240 126 -320 30 -80 76 -181 102 -226 174
-308 469 -569 929 -824 154 -85 311 -185 355 -225 14 -12 95 -69 180 -125 242
-162 327 -235 392 -340 71 -115 88 -178 88 -331 0 -180 -49 -395 -113 -497
-36 -56 -97 -99 -160 -111 -74 -15 -553 -69 -737 -82 -176 -13 -649 -6 -720
11 -25 6 -85 15 -135 21 -179 20 -346 69 -439 127 -59 37 -124 110 -156 177
-44 89 -67 198 -89 420 -23 233 -25 319 -16 670 6 199 3 324 -10 535 -15 242
-15 309 -4 556 15 338 8 495 -26 669 -39 194 -41 251 -13 299 13 21 39 47 58
57 41 22 110 25 148 5z m-748 -2876 c0 -5 -2 -10 -4 -10 -3 0 -8 5 -11 10 -3
6 -1 10 4 10 6 0 11 -4 11 -10z"/>
<path d="M2620 2740 c-28 -28 -25 -57 9 -91 34 -34 61 -37 86 -9 59 65 -33
162 -95 100z"/>
<path d="M3075 2606 c-27 -41 18 -106 74 -106 44 0 68 82 33 113 -29 26 -88
22 -107 -7z"/>
<path d="M5225 3973 c-106 -43 -174 -118 -200 -222 -29 -110 8 -235 95 -321
100 -101 231 -120 362 -54 104 53 186 177 195 298 5 60 3 72 -27 132 -26 52
-44 75 -93 111 -34 25 -76 52 -94 59 -45 19 -187 17 -238 -3z m164 -289 c10
-10 -16 -39 -38 -42 -15 -2 -24 4 -30 20 -5 13 -6 27 -4 32 5 8 62 1 72 -10z"/>
<path d="M5359 1110 c-22 -13 -59 -101 -66 -159 -11 -93 49 -149 130 -120 33
11 46 23 66 62 31 61 35 159 8 200 -15 24 -24 27 -70 27 -28 0 -59 -5 -68 -10z"/>
</g>
</svg>
