<?xml version="1.0" standalone="no"?>
<!DOCTYPE svg PUBLIC "-//W3C//DTD SVG 20010904//EN"
 "http://www.w3.org/TR/2001/REC-SVG-20010904/DTD/svg10.dtd">
<svg version="1.0" xmlns="http://www.w3.org/2000/svg"
 width="600.000000pt" height="600.000000pt" viewBox="0 0 600.000000 600.000000"
 preserveAspectRatio="xMidYMid meet">
<metadata>
Created by potrace 1.15, written by Peter Selinger 2001-2017
</metadata>
<g transform="translate(0.000000,600.000000) scale(0.100000,-0.100000)"
fill="#16364b" stroke="none">
<path d="M1556 5790 c-41 -13 -84 -58 -96 -99 -53 -189 -73 -505 -37 -607 17
-49 60 -100 104 -123 34 -17 113 -13 162 9 93 43 261 252 358 446 48 97 55
117 49 149 -11 55 -61 105 -113 112 -81 11 -96 -4 -175 -161 -66 -134 -135
-243 -145 -232 -7 6 14 157 38 275 10 51 19 102 19 113 0 41 -31 87 -74 108
-46 22 -48 22 -90 10z"/>
<path d="M845 5507 c-114 -30 -190 -91 -242 -195 -98 -195 -52 -413 106 -514
100 -63 211 -11 211 99 0 36 -24 74 -69 111 -50 40 -61 83 -37 147 24 61 76
105 124 105 20 -1 48 -7 62 -15 56 -32 149 -4 170 51 6 14 10 44 10 66 0 35
-6 47 -39 78 -67 64 -195 93 -296 67z"/>
<path d="M3344 5436 c-66 -29 -92 -102 -60 -164 9 -17 49 -48 105 -81 83 -48
108 -71 81 -71 -17 0 -50 -63 -50 -97 0 -65 106 -165 214 -204 200 -70 328 64
235 249 -43 88 -155 202 -274 282 -159 107 -184 115 -251 86z"/>
<path d="M2302 5161 c-54 -35 -68 -69 -75 -184 -11 -195 -50 -258 -208 -337
-107 -54 -129 -79 -129 -145 0 -71 51 -125 118 -125 62 0 270 126 346 210 106
118 182 377 147 507 -21 79 -128 118 -199 74z"/>
<path d="M2998 5161 c-110 -22 -208 -163 -215 -309 -3 -66 -1 -82 19 -116 14
-24 41 -49 68 -64 59 -31 148 -27 235 12 106 48 127 84 127 228 0 68 -5 89
-29 136 -44 89 -119 130 -205 113z"/>
<path d="M4793 4799 c-40 -12 -80 -59 -89 -105 -3 -19 -4 -101 -1 -182 5 -157
19 -218 72 -308 49 -84 147 -144 235 -144 95 0 191 63 236 155 80 165 -14 349
-264 519 -102 69 -136 81 -189 65z m195 -434 c-3 -3 -9 2 -12 12 -6 14 -5 15
5 6 7 -7 10 -15 7 -18z"/>
<path d="M2780 4180 c-68 -9 -127 -38 -167 -84 -87 -99 -74 -284 26 -367 96
-79 309 -80 485 0 192 87 262 187 210 298 -23 46 -44 58 -172 98 -167 51 -280
67 -382 55z"/>
<path d="M1055 4080 c-40 -14 -57 -28 -89 -74 -31 -46 -34 -97 -7 -146 27 -52
70 -72 187 -87 56 -7 115 -18 131 -24 l28 -11 -50 -44 c-100 -90 -273 -192
-427 -253 -67 -27 -114 -75 -124 -127 -22 -119 106 -238 221 -204 47 14 176
78 259 127 47 29 60 33 67 22 5 -8 9 -20 9 -28 0 -22 48 -79 80 -96 52 -27
112 -19 166 20 27 19 68 45 92 57 36 19 46 20 63 10 91 -57 174 -75 243 -52
19 6 47 25 60 41 81 96 36 252 -95 324 -51 28 -60 30 -166 30 -62 0 -113 1
-113 3 0 1 15 31 32 65 28 54 33 72 33 138 0 67 -3 81 -29 119 -58 87 -128
134 -256 169 -82 23 -271 35 -315 21z"/>
<path d="M4231 3774 c-129 -27 -219 -93 -265 -193 -17 -37 -21 -65 -21 -141 0
-86 3 -100 29 -148 32 -57 74 -95 146 -133 36 -18 61 -23 125 -23 70 -1 86 3
133 29 109 60 196 188 227 334 40 190 -2 255 -181 281 -88 12 -114 12 -193 -6z
m69 -313 c-10 -20 -47 -37 -57 -27 -10 10 29 46 49 46 15 0 17 -3 8 -19z"/>
<path d="M5099 3416 c-187 -66 -304 -216 -302 -387 3 -221 207 -334 417 -230
81 40 156 120 187 199 30 77 32 179 3 242 -31 68 -119 166 -165 184 -51 21
-61 20 -140 -8z"/>
<path d="M3464 3391 c-69 -17 -137 -88 -202 -211 -51 -96 -56 -120 -36 -169
30 -76 112 -101 224 -71 53 14 115 76 148 148 30 67 42 185 22 232 -23 56 -91
86 -156 71z"/>
<path d="M2386 3030 c-74 -13 -152 -58 -210 -121 -50 -54 -71 -89 -134 -229
-39 -86 -80 -140 -144 -190 -63 -49 -288 -287 -359 -380 -64 -82 -123 -202
-151 -305 -29 -107 -32 -365 -5 -465 74 -279 316 -507 647 -607 76 -23 103
-26 245 -27 151 -1 165 1 240 27 137 48 219 101 335 217 189 188 307 394 344
600 33 178 66 447 66 529 0 251 -74 406 -252 531 -71 50 -132 113 -232 242
-118 152 -235 206 -390 178z m140 -478 c28 -37 61 -86 73 -110 17 -34 42 -56
122 -108 134 -89 142 -105 147 -281 6 -198 -38 -477 -96 -605 -43 -97 -140
-201 -262 -281 -166 -109 -365 -108 -550 3 -138 81 -199 173 -207 313 -13 204
116 474 290 605 30 22 106 92 169 154 120 118 171 193 219 321 12 31 27 57 33
57 6 -1 34 -31 62 -68z"/>
<path d="M773 2640 c-39 -23 -53 -48 -53 -93 0 -51 36 -95 135 -164 210 -145
298 -296 232 -394 -64 -96 -165 -47 -252 122 -25 49 -57 96 -69 105 -81 53
-186 -5 -188 -103 -1 -70 118 -266 204 -336 83 -68 122 -82 228 -82 85 0 101
3 153 29 117 59 198 182 205 310 14 228 -140 435 -442 595 -68 36 -108 39
-153 11z"/>
<path d="M4217 2237 c-75 -24 -146 -108 -147 -173 0 -20 -4 -21 -72 -17 -63 4
-79 1 -118 -19 -28 -15 -58 -43 -77 -72 -29 -43 -33 -56 -33 -115 0 -80 17
-156 72 -321 35 -109 46 -130 83 -166 41 -40 123 -73 146 -58 6 3 33 -4 62
-16 87 -38 200 -12 260 59 55 66 62 112 61 386 -2 310 -12 402 -48 450 -46 60
-119 84 -189 62z"/>
</g>
</svg>
