<?xml version="1.0" standalone="no"?>
<!DOCTYPE svg PUBLIC "-//W3C//DTD SVG 20010904//EN"
 "http://www.w3.org/TR/2001/REC-SVG-20010904/DTD/svg10.dtd">
<svg version="1.0" xmlns="http://www.w3.org/2000/svg"
 width="600.000000pt" height="600.000000pt" viewBox="0 0 600.000000 600.000000"
 preserveAspectRatio="xMidYMid meet">
<metadata>
Created by potrace 1.15, written by Peter Selinger 2001-2017
</metadata>
<g transform="translate(0.000000,600.000000) scale(0.100000,-0.100000)"
fill="#16364b" stroke="none">
<path d="M3092 5633 c-94 -46 -102 -142 -27 -299 60 -125 151 -207 345 -312
125 -68 136 -77 121 -96 -18 -22 -167 -121 -331 -221 -213 -130 -245 -152
-258 -180 -7 -15 -37 -37 -80 -59 -169 -85 -212 -217 -102 -309 37 -32 84 -42
148 -32 38 5 55 15 87 50 41 43 87 61 210 80 73 12 104 26 135 61 26 30 30 43
30 92 l0 57 68 40 c308 183 412 294 412 441 0 122 -82 221 -283 340 -179 106
-222 150 -242 244 -9 47 -30 77 -68 100 -40 25 -119 26 -165 3z"/>
<path d="M1184 5350 c-175 -88 -302 -251 -354 -455 -39 -151 -22 -403 32 -492
40 -67 152 -92 235 -52 75 36 94 109 53 202 -78 176 10 427 185 527 68 39 97
78 103 141 4 41 0 56 -22 90 -50 74 -134 89 -232 39z"/>
<path d="M1588 5188 c-47 -12 -105 -75 -114 -123 -9 -49 19 -117 63 -154 l35
-29 -33 -94 c-26 -74 -33 -109 -33 -173 -1 -96 19 -141 88 -202 54 -48 120
-71 242 -83 141 -15 205 2 243 63 43 70 14 165 -62 208 -30 16 -62 24 -119 27
-43 3 -78 6 -78 9 0 2 21 56 47 121 58 148 68 240 33 315 -27 57 -76 102 -127
116 -46 13 -135 12 -185 -1z"/>
<path d="M4535 4626 c-64 -28 -106 -109 -91 -171 4 -14 21 -42 39 -61 31 -34
37 -37 135 -48 56 -7 104 -15 107 -18 6 -6 -156 -68 -175 -68 -21 0 -89 -73
-100 -106 -23 -70 20 -154 91 -175 50 -15 98 -5 255 57 254 100 334 171 334
298 0 100 -67 194 -176 247 -85 41 -363 71 -419 45z"/>
<path d="M1835 4245 c-33 -7 -80 -21 -105 -31 -65 -25 -204 -117 -265 -175
-84 -80 -97 -166 -33 -228 59 -57 134 -54 219 10 104 79 183 108 322 119 78 6
105 13 132 31 50 35 69 75 63 136 -12 130 -136 181 -333 138z"/>
<path d="M3990 3731 c-104 -32 -164 -110 -163 -212 1 -81 33 -146 107 -217
157 -151 346 -171 454 -47 42 47 62 97 62 153 0 48 -28 105 -61 122 -10 6 -19
21 -19 33 -1 40 -38 106 -72 126 -65 40 -237 63 -308 42z"/>
<path d="M2554 3712 c-40 -10 -120 -36 -178 -57 -117 -41 -156 -71 -176 -131
-24 -72 35 -161 122 -185 38 -10 53 -7 153 26 60 20 136 39 168 42 l57 6 0
-31 c0 -40 -42 -155 -93 -257 -49 -98 -109 -187 -225 -336 -49 -63 -94 -124
-100 -136 -30 -55 -4 -147 52 -185 17 -12 33 -23 35 -24 2 -2 -8 -17 -22 -33
-78 -93 -49 -224 64 -281 59 -30 121 -26 225 16 79 32 304 104 325 104 9 0
-12 -59 -59 -160 -138 -299 -136 -294 -135 -350 0 -58 25 -120 60 -152 78 -71
218 -60 287 22 62 74 175 350 232 569 27 105 31 223 10 283 -21 60 -72 115
-134 145 -108 53 -241 43 -491 -37 -69 -22 -127 -38 -129 -36 -2 3 12 21 31
43 79 89 172 225 218 318 86 177 150 400 152 527 1 126 -58 224 -173 283 -51
27 -185 30 -276 7z"/>
<path d="M1211 3549 c-77 -15 -143 -40 -231 -87 -148 -79 -187 -108 -211 -154
-67 -128 26 -293 164 -292 30 0 66 8 86 18 l34 18 -7 -29 c-4 -15 -37 -110
-72 -211 -106 -301 -174 -570 -176 -692 -1 -104 57 -168 178 -196 100 -24 134
-13 226 74 121 114 403 456 521 632 l71 105 8 -35 c9 -38 2 -161 -13 -255 -6
-33 -35 -152 -65 -265 -86 -325 -106 -435 -102 -565 3 -81 9 -120 22 -148 41
-84 144 -113 213 -61 52 40 66 76 68 184 3 110 40 341 91 555 84 357 79 319
77 572 -1 128 -6 256 -13 286 -28 135 -142 206 -263 163 -88 -32 -245 -188
-414 -413 -47 -63 -88 -112 -90 -109 -3 3 27 99 67 213 40 114 83 243 96 287
56 184 14 340 -106 389 -50 21 -108 27 -159 16z"/>
<path d="M3635 3256 c-153 -48 -254 -163 -286 -323 -12 -58 -11 -64 12 -110
55 -106 186 -124 261 -35 19 23 37 32 74 37 183 27 284 109 284 230 0 148
-180 253 -345 201z"/>
<path d="M4675 3136 c-65 -28 -105 -106 -90 -174 3 -16 32 -65 64 -108 32 -43
72 -103 89 -133 l31 -55 -29 -33 c-51 -57 -52 -125 -3 -184 65 -77 172 -77
257 1 128 118 96 322 -89 573 -87 117 -150 148 -230 113z"/>
<path d="M4492 2291 c-65 -22 -126 -79 -148 -138 -13 -33 -15 -60 -10 -113 4
-42 2 -70 -3 -70 -5 0 -47 9 -93 20 -239 58 -465 24 -572 -86 -86 -88 -100
-164 -91 -498 7 -243 8 -249 34 -299 85 -162 292 -181 388 -35 l28 42 0 210 0
211 35 -2 c19 -1 73 -13 120 -27 109 -31 246 -42 325 -26 199 40 315 216 316
475 0 184 -35 264 -141 317 -75 37 -123 42 -188 19z"/>
<path d="M2153 1825 c-33 -17 -61 -41 -79 -68 -28 -41 -29 -47 -32 -187 -2
-80 2 -185 8 -235 27 -200 117 -439 199 -528 77 -83 233 -177 370 -222 60 -20
131 -16 180 9 42 22 82 78 88 126 3 22 8 40 11 40 2 0 43 -26 91 -59 113 -76
157 -98 238 -117 216 -51 473 72 473 225 0 175 -181 278 -318 181 -41 -29 -49
-31 -79 -22 -57 18 -260 151 -336 221 -111 102 -185 162 -225 183 -80 40 -189
10 -249 -70 -22 -29 -34 -38 -40 -30 -4 7 -8 113 -9 235 l0 221 -26 40 c-54
81 -168 105 -265 57z"/>
</g>
</svg>
