<?xml version="1.0" standalone="no"?>
<!DOCTYPE svg PUBLIC "-//W3C//DTD SVG 20010904//EN"
 "http://www.w3.org/TR/2001/REC-SVG-20010904/DTD/svg10.dtd">
<svg version="1.0" xmlns="http://www.w3.org/2000/svg"
 width="600.000000pt" height="600.000000pt" viewBox="0 0 600.000000 600.000000"
 preserveAspectRatio="xMidYMid meet">
<metadata>
Created by potrace 1.15, written by Peter Selinger 2001-2017
</metadata>
<g transform="translate(0.000000,600.000000) scale(0.100000,-0.100000)"
fill="#16364b" stroke="none">
<path d="M3125 5641 c-77 -47 -96 -117 -73 -257 18 -106 55 -187 116 -255 54
-60 91 -83 217 -134 55 -22 100 -45 99 -50 -1 -15 -288 -221 -428 -308 -122
-76 -147 -102 -161 -164 -5 -26 -15 -37 -49 -52 -64 -28 -91 -72 -91 -148 0
-52 4 -66 25 -88 31 -34 79 -55 122 -55 18 0 75 9 126 19 51 11 134 22 185 26
143 10 193 22 227 56 63 64 59 155 -12 222 -22 21 -37 42 -32 46 34 29 108 81
225 159 210 139 260 214 225 334 -29 98 -119 177 -306 266 -169 81 -188 103
-194 228 -5 85 -19 112 -76 152 -41 27 -103 29 -145 3z"/>
<path d="M1251 5383 c-66 -35 -198 -157 -256 -237 -55 -78 -119 -210 -142
-296 -25 -90 -24 -310 1 -397 26 -89 67 -125 146 -131 52 -4 66 -1 99 21 57
38 79 99 63 176 -16 75 -15 164 2 226 40 150 151 301 264 359 136 70 66 306
-90 306 -19 0 -58 -12 -87 -27z"/>
<path d="M1550 5070 c-36 -5 -80 -17 -98 -26 -63 -34 -91 -136 -57 -207 23
-47 61 -70 122 -75 29 -2 53 -6 53 -9 0 -2 -11 -29 -24 -61 -72 -173 -54 -326
48 -420 37 -34 133 -81 169 -83 7 0 -12 -11 -41 -24 -144 -66 -302 -179 -327
-234 -44 -99 29 -201 143 -201 30 0 58 12 122 55 103 67 224 120 310 135 85
15 129 37 157 79 63 94 -8 231 -119 231 -21 0 -38 2 -38 4 0 2 7 21 16 42 20
47 14 102 -16 144 -24 34 -87 70 -123 70 -13 0 -26 3 -30 6 -3 3 12 56 34 117
53 146 62 249 30 322 -28 63 -45 82 -101 110 -54 27 -141 36 -230 25z"/>
<path d="M4470 4548 c-76 -52 -102 -137 -60 -205 30 -51 71 -65 195 -72 l110
-6 -65 -46 c-36 -26 -94 -64 -130 -86 -73 -45 -103 -86 -103 -143 0 -113 120
-182 227 -130 87 42 281 178 345 241 139 138 149 279 28 385 -70 62 -128 76
-337 81 -171 5 -176 4 -210 -19z"/>
<path d="M2578 3720 c-112 -20 -287 -88 -331 -128 -51 -46 -65 -143 -30 -204
26 -47 96 -81 148 -73 22 3 54 14 72 25 55 32 172 70 219 70 52 0 53 -4 25
-100 -48 -168 -144 -360 -267 -535 -42 -61 -88 -125 -101 -144 -17 -25 -23
-47 -23 -87 0 -45 5 -59 31 -88 25 -29 28 -39 20 -55 -18 -32 -13 -111 9 -157
29 -59 87 -97 158 -102 50 -4 74 2 187 46 136 52 257 92 281 92 24 0 -47 -170
-145 -344 -60 -106 -67 -140 -47 -210 47 -160 251 -194 341 -58 43 66 154 318
203 462 42 125 46 143 46 240 1 95 -1 110 -26 156 -31 58 -84 109 -142 135
-97 43 -208 34 -404 -32 -64 -22 -120 -39 -124 -39 -5 0 13 33 40 73 110 162
189 350 248 582 35 141 36 230 4 303 -28 64 -98 130 -166 155 -58 22 -160 29
-226 17z"/>
<path d="M3937 3720 c-79 -24 -134 -109 -125 -192 16 -140 198 -324 355 -359
193 -44 320 206 164 322 -26 19 -31 30 -31 64 0 52 -33 104 -80 127 -84 41
-214 58 -283 38z"/>
<path d="M1124 3516 c-93 -21 -253 -107 -327 -175 -43 -39 -60 -80 -60 -141 0
-149 143 -258 270 -205 20 8 38 13 41 10 5 -5 -12 -55 -136 -415 -61 -175 -84
-303 -86 -472 -1 -137 5 -155 66 -201 32 -24 150 -47 192 -37 57 14 66 21 179
154 61 72 173 197 248 277 74 80 173 196 220 258 46 61 87 111 92 111 16 0 11
-123 -10 -250 -8 -52 -41 -187 -73 -300 -72 -258 -92 -366 -94 -505 -1 -96 2
-116 22 -157 33 -67 73 -93 144 -93 70 0 103 22 137 89 22 44 23 51 12 101
-14 64 -2 146 55 363 45 176 89 396 109 557 20 149 14 412 -11 494 -34 114
-117 177 -223 169 -110 -8 -165 -55 -352 -298 -126 -164 -216 -268 -203 -235
40 107 116 345 129 405 9 41 19 125 22 185 4 97 3 117 -16 167 -24 61 -70 110
-129 135 -49 20 -148 25 -218 9z"/>
<path d="M3620 3244 c-60 -22 -141 -77 -181 -122 -48 -54 -92 -157 -96 -222
-3 -43 1 -63 19 -95 31 -53 97 -88 155 -82 47 5 108 45 125 82 9 20 19 23 96
28 142 8 223 49 266 134 45 89 -7 204 -118 260 -66 34 -196 42 -266 17z"/>
<path d="M4625 3218 c-63 -22 -95 -71 -95 -144 0 -62 24 -98 105 -159 71 -53
145 -137 145 -164 0 -9 -23 -39 -50 -66 -57 -56 -75 -102 -60 -155 19 -67 81
-110 158 -110 90 0 187 86 232 207 18 47 21 73 17 138 -5 93 -32 162 -95 241
-40 50 -183 173 -232 199 -38 20 -91 25 -125 13z"/>
<path d="M4507 2286 c-118 -43 -186 -179 -146 -295 6 -18 9 -34 7 -37 -3 -2
-77 7 -164 22 -198 32 -326 30 -419 -7 -80 -31 -154 -104 -186 -184 -22 -57
-24 -71 -22 -245 3 -287 10 -393 27 -433 l15 -37 -38 0 c-46 0 -96 -16 -135
-43 l-30 -21 -46 26 c-70 39 -228 155 -293 215 -67 62 -160 126 -220 153 -79
36 -178 21 -241 -38 -30 -29 -76 -115 -76 -144 0 -20 -20 -25 -20 -5 0 6 -7
48 -14 92 -8 44 -22 148 -31 230 -18 165 -33 212 -81 254 -98 86 -248 50 -298
-72 -19 -45 -19 -55 -7 -210 22 -278 70 -481 152 -653 61 -125 207 -244 356
-289 113 -35 210 1 254 93 18 36 21 55 16 105 -3 34 -3 77 1 95 l7 33 55 -40
c30 -22 84 -62 120 -88 199 -146 365 -177 525 -99 155 76 225 185 186 288 -8
23 -8 23 63 23 53 1 81 6 113 23 50 26 100 84 113 132 13 45 13 211 0 319 -5
47 -8 87 -5 89 2 2 66 -8 142 -23 120 -24 153 -27 248 -22 165 9 270 50 343
133 69 78 86 135 86 299 1 174 -14 226 -84 296 -72 71 -181 97 -273 65z"/>
</g>
</svg>
