<?xml version="1.0" standalone="no"?>
<!DOCTYPE svg PUBLIC "-//W3C//DTD SVG 20010904//EN"
 "http://www.w3.org/TR/2001/REC-SVG-20010904/DTD/svg10.dtd">
<svg version="1.0" xmlns="http://www.w3.org/2000/svg"
 width="600.000000pt" height="600.000000pt" viewBox="0 0 600.000000 600.000000"
 preserveAspectRatio="xMidYMid meet">
<metadata>
Created by potrace 1.15, written by Peter Selinger 2001-2017
</metadata>
<g transform="translate(0.000000,600.000000) scale(0.100000,-0.100000)"
fill="#16364b" stroke="none">
<path d="M2044 5801 c-34 -15 -68 -54 -187 -207 -80 -104 -177 -227 -216 -274
-95 -113 -128 -163 -148 -226 -21 -69 -6 -131 43 -174 76 -67 163 -62 357 21
165 70 529 253 567 285 87 74 78 203 -17 248 -66 32 -115 22 -250 -49 -67 -35
-123 -62 -123 -59 0 3 42 57 94 120 53 64 97 128 101 145 21 96 -59 190 -160
189 -11 0 -39 -9 -61 -19z"/>
<path d="M3008 5675 c-50 -34 -76 -100 -59 -154 19 -65 43 -85 163 -136 266
-114 367 -208 412 -382 9 -34 16 -78 16 -99 0 -82 -68 -145 -193 -181 -64 -18
-89 -31 -114 -58 -84 -90 1 -225 141 -225 169 0 357 112 426 253 54 112 59
217 19 379 -25 99 -48 153 -105 241 -124 191 -231 270 -477 353 -123 41 -178
44 -229 9z"/>
<path d="M938 5346 c-266 -110 -386 -364 -297 -634 45 -136 181 -262 282 -262
90 0 154 50 164 129 8 55 -20 106 -77 143 -63 41 -100 99 -100 155 0 82 38
124 152 169 75 29 102 54 124 110 19 49 14 93 -16 142 -45 73 -129 91 -232 48z"/>
<path d="M2755 4982 c-154 -54 -253 -262 -201 -420 23 -68 89 -141 163 -177
69 -34 194 -46 268 -25 88 25 135 113 99 186 -32 64 -63 79 -152 77 -42 -2
-83 1 -91 6 -21 14 -2 33 25 27 70 -18 165 53 179 133 10 61 -25 127 -89 166
-39 24 -61 30 -115 32 -36 1 -75 -1 -86 -5z"/>
<path d="M4765 4901 c-16 -10 -43 -33 -60 -50 -29 -31 -30 -37 -33 -134 -8
-235 85 -438 240 -522 39 -21 69 -29 125 -33 123 -8 201 38 251 146 21 48 24
64 20 140 -4 70 -10 98 -34 147 -54 110 -170 213 -331 294 -73 36 -133 40
-178 12z"/>
<path d="M1881 4604 c-85 -30 -186 -107 -217 -166 -35 -66 -9 -162 57 -210 48
-36 150 -21 190 28 8 9 30 24 49 32 33 14 35 13 55 -13 11 -15 36 -45 56 -66
35 -37 40 -39 96 -39 100 0 167 64 166 160 0 89 -88 206 -196 260 -52 26 -71
30 -136 30 -42 -1 -96 -8 -120 -16z"/>
<path d="M2925 3932 c-173 -81 -260 -343 -200 -597 13 -55 77 -164 116 -199
46 -42 100 -58 152 -47 130 30 172 150 87 255 -49 62 -66 150 -47 247 7 33 11
37 45 43 84 13 135 73 136 156 0 55 -23 97 -72 130 -48 34 -158 39 -217 12z"/>
<path d="M1088 3860 c-169 -35 -230 -69 -257 -143 -25 -66 -4 -164 46 -209 40
-37 113 -60 170 -56 39 3 53 1 49 -7 -2 -7 -42 -70 -88 -141 -260 -398 -316
-510 -369 -729 -33 -139 -7 -220 83 -264 87 -41 143 -25 253 74 44 40 166 141
270 225 105 85 254 211 331 282 78 70 145 128 149 128 16 0 -28 -280 -67 -420
-11 -41 -43 -126 -70 -190 -64 -146 -228 -475 -265 -531 -70 -106 -10 -235
114 -246 59 -6 120 20 152 66 47 65 310 638 345 750 15 47 34 128 42 180 8 53
22 139 31 191 30 178 32 195 32 286 2 195 -69 289 -215 287 -95 -1 -188 -53
-374 -208 -47 -39 -91 -75 -97 -79 -7 -4 35 68 92 160 122 193 151 269 142
365 -10 111 -91 210 -195 239 -57 15 -207 11 -304 -10z"/>
<path d="M4215 3792 c-119 -36 -204 -101 -263 -201 -39 -66 -43 -180 -10 -253
30 -64 83 -119 147 -150 37 -19 63 -23 131 -23 75 0 93 4 150 31 65 32 132 89
182 154 34 45 89 158 113 232 18 54 18 58 1 102 -33 87 -96 114 -276 121 -92
4 -127 1 -175 -13z m52 -317 c-29 -25 -57 -33 -57 -15 0 11 49 39 70 39 10 0
5 -8 -13 -24z"/>
<path d="M3465 3365 c-23 -8 -58 -33 -82 -60 -65 -71 -143 -248 -143 -324 0
-41 28 -93 63 -116 56 -36 216 -26 307 20 59 30 133 111 148 163 7 21 12 66
12 98 -1 160 -156 271 -305 219z"/>
<path d="M4904 2921 c-84 -51 -211 -201 -263 -311 -33 -68 -36 -83 -36 -161 0
-78 3 -90 30 -135 86 -138 273 -133 413 10 57 57 94 125 117 211 17 67 20 201
5 240 -14 36 -99 134 -132 151 -38 20 -97 17 -134 -5z"/>
<path d="M4100 2531 c-45 -14 -84 -39 -111 -68 -73 -78 -78 -158 -19 -330 22
-64 39 -117 37 -119 -1 -2 -47 13 -102 31 -183 63 -313 42 -390 -64 -48 -65
-59 -121 -52 -265 9 -180 95 -532 147 -603 63 -86 194 -124 285 -84 60 27 82
45 105 91 33 65 33 115 1 245 -16 66 -28 122 -25 124 2 3 22 -14 44 -37 54
-55 130 -79 198 -62 123 31 243 117 293 211 21 39 24 57 24 159 -1 81 -6 133
-19 175 -146 487 -159 520 -237 568 -49 30 -133 43 -179 28z"/>
<path d="M2983 2190 c-99 -15 -230 -65 -421 -162 -106 -54 -195 -98 -197 -98
-2 0 -8 15 -15 34 -16 49 -73 111 -126 136 -38 19 -57 22 -112 18 -37 -3 -82
-13 -101 -23 -79 -40 -194 -197 -207 -281 -8 -57 17 -142 53 -176 40 -37 69
-50 117 -51 40 -2 41 -3 44 -39 3 -36 2 -37 -67 -73 -48 -25 -92 -60 -136
-106 -68 -73 -91 -109 -121 -199 -26 -77 -26 -244 0 -320 70 -205 187 -338
417 -477 266 -160 460 -189 679 -102 148 60 326 197 356 274 53 139 -76 280
-230 251 -21 -4 -58 -26 -93 -57 -32 -27 -87 -64 -123 -81 -56 -27 -74 -31
-145 -31 -101 1 -179 25 -279 88 -134 83 -201 182 -200 292 0 67 20 103 55
103 10 0 51 -33 91 -73 40 -40 91 -81 113 -92 58 -29 141 -25 198 8 51 30 72
59 88 119 20 73 6 114 -63 183 -63 62 -109 144 -127 223 -10 46 -10 46 34 56
17 4 73 31 125 60 225 127 393 206 406 193 20 -19 -94 -296 -195 -476 -67
-120 -78 -159 -61 -220 37 -137 197 -190 296 -98 41 39 221 350 263 455 41
103 76 230 90 323 29 187 -47 343 -193 398 -64 24 -145 32 -213 21z"/>
</g>
</svg>
