<?xml version="1.0" standalone="no"?>
<!DOCTYPE svg PUBLIC "-//W3C//DTD SVG 20010904//EN"
 "http://www.w3.org/TR/2001/REC-SVG-20010904/DTD/svg10.dtd">
<svg version="1.0" xmlns="http://www.w3.org/2000/svg"
 width="600.000000pt" height="600.000000pt" viewBox="0 0 600.000000 600.000000"
 preserveAspectRatio="xMidYMid meet">
<metadata>
Created by potrace 1.15, written by Peter Selinger 2001-2017
</metadata>
<g transform="translate(0.000000,600.000000) scale(0.100000,-0.100000)"
fill="#16364b" stroke="none">
<path d="M3554 5281 c-32 -14 -56 -58 -49 -91 7 -33 66 -134 98 -168 64 -70
173 -96 209 -52 25 31 23 68 -8 126 -72 136 -179 215 -250 185z m117 -156 c23
-31 40 -58 37 -61 -6 -6 -72 65 -88 95 -22 42 10 20 51 -34z"/>
<path d="M3025 5106 c-17 -7 -46 -30 -64 -52 -106 -120 -116 -303 -18 -338 96
-34 247 143 247 291 0 38 -5 50 -34 79 -38 38 -77 44 -131 20z m83 -98 c9 -46
-100 -206 -131 -195 -35 12 11 159 62 199 29 22 64 20 69 -4z"/>
<path d="M4753 4735 c-13 -9 -25 -32 -29 -53 -9 -45 14 -523 27 -574 17 -68
89 -98 144 -62 13 9 32 37 42 62 25 66 25 285 -1 397 -32 141 -57 215 -79 230
-28 19 -77 19 -104 0z"/>
<path d="M2643 4230 c-52 -21 -72 -102 -39 -153 20 -29 104 -75 196 -107 87
-30 234 -39 277 -17 77 40 61 154 -24 173 -16 3 -74 23 -130 45 -108 40 -209
69 -239 68 -11 0 -29 -4 -41 -9z"/>
<path d="M1485 4091 c-73 -33 -133 -110 -149 -190 -17 -92 43 -219 140 -296
64 -50 104 -107 150 -214 52 -121 71 -193 99 -391 14 -96 37 -236 50 -310 29
-161 46 -352 38 -435 -11 -127 42 -433 112 -641 72 -216 209 -318 520 -389
115 -26 111 -16 69 -145 -22 -71 -27 -104 -28 -201 -1 -110 0 -117 26 -156 31
-47 75 -91 136 -135 60 -45 56 -65 -15 -74 -116 -14 -163 -49 -163 -119 0 -43
35 -81 82 -87 68 -10 176 29 236 86 47 44 62 77 62 138 0 62 -23 107 -79 153
-109 91 -133 119 -138 167 -6 55 17 165 55 263 25 62 31 70 52 67 155 -18 333
-21 575 -9 149 6 284 10 302 8 l32 -3 -22 -42 c-30 -58 -29 -154 2 -220 26
-52 90 -109 159 -140 47 -21 54 -36 18 -36 -84 0 -137 -72 -105 -143 45 -100
285 -62 345 55 11 21 15 47 12 80 -7 66 -45 104 -165 163 -113 55 -143 81
-143 127 1 40 13 63 67 121 39 42 45 45 110 52 184 19 494 89 640 145 161 62
302 188 385 346 65 124 89 208 95 334 7 130 -16 229 -85 370 -37 77 -61 110
-127 176 -92 93 -172 137 -274 153 -108 17 -270 -16 -362 -74 -108 -69 -283
-100 -503 -92 -253 10 -420 48 -598 138 -176 88 -309 205 -446 389 -48 65
-125 168 -171 230 -139 189 -352 451 -421 521 -36 36 -95 85 -130 109 -36 24
-85 60 -110 79 -80 60 -157 91 -230 91 -41 0 -80 -7 -105 -19z m161 -198 c17
-8 54 -33 82 -56 28 -23 70 -53 93 -67 119 -70 341 -335 621 -740 168 -242
328 -385 565 -504 394 -198 947 -225 1269 -63 214 108 375 76 481 -96 47 -76
68 -124 88 -202 64 -253 -99 -542 -364 -644 -105 -41 -318 -96 -466 -121 -186
-32 -982 -61 -1120 -42 -38 6 -136 20 -216 31 -368 53 -497 116 -574 284 -66
143 -127 473 -111 596 11 80 -26 423 -85 796 -16 102 -55 252 -89 346 -55 149
-97 217 -185 304 -91 89 -105 110 -105 155 0 50 41 58 116 23z"/>
<path d="M2382 2518 c-7 -7 -12 -24 -12 -39 0 -32 40 -69 75 -69 51 0 75 75
33 104 -27 19 -79 21 -96 4z"/>
<path d="M2876 2139 c-34 -27 -33 -54 3 -90 36 -35 45 -36 76 -4 30 29 32 68
5 95 -26 26 -51 25 -84 -1z"/>
<path d="M5297 3979 c-20 -5 -60 -20 -87 -34 -168 -85 -229 -253 -153 -417 41
-87 83 -132 159 -169 59 -29 69 -31 146 -27 99 5 165 35 235 104 65 65 97 140
101 239 3 66 0 89 -18 129 -28 62 -90 123 -161 159 -60 29 -142 35 -222 16z
m96 -307 c16 -7 16 -9 2 -30 -9 -12 -25 -22 -35 -22 -18 0 -40 27 -40 49 0 12
45 14 73 3z"/>
<path d="M4208 3746 c-145 -52 -232 -169 -233 -312 0 -130 77 -234 202 -270
134 -39 294 44 356 185 46 105 24 289 -44 352 -58 54 -194 76 -281 45z m84
-291 c-7 -15 -20 -25 -32 -25 -26 0 -26 24 1 51 28 28 48 11 31 -26z"/>
<path d="M469 1999 c-18 -35 2 -60 95 -118 114 -71 202 -106 236 -95 31 12 39
53 13 76 -32 29 -284 158 -309 158 -14 0 -28 -9 -35 -21z"/>
<path d="M5353 1098 c-24 -26 -63 -144 -63 -190 0 -42 25 -83 59 -98 71 -29
143 35 160 141 18 115 -10 169 -89 169 -35 0 -51 -5 -67 -22z"/>
</g>
</svg>
