<?xml version="1.0" standalone="no"?>
<!DOCTYPE svg PUBLIC "-//W3C//DTD SVG 20010904//EN"
 "http://www.w3.org/TR/2001/REC-SVG-20010904/DTD/svg10.dtd">
<svg version="1.0" xmlns="http://www.w3.org/2000/svg"
 width="600.000000pt" height="600.000000pt" viewBox="0 0 600.000000 600.000000"
 preserveAspectRatio="xMidYMid meet">
<metadata>
Created by potrace 1.15, written by Peter Selinger 2001-2017
</metadata>
<g transform="translate(0.000000,600.000000) scale(0.100000,-0.100000)"
fill="#16364b" stroke="none">
<path d="M3119 5627 c-48 -32 -74 -75 -98 -165 -28 -103 -28 -213 -1 -286 46
-123 149 -193 328 -223 56 -10 102 -20 102 -23 0 -3 -62 -41 -137 -85 -248
-146 -450 -290 -489 -350 -18 -28 -53 -147 -54 -183 0 -46 38 -101 93 -132 67
-38 118 -53 300 -84 82 -15 202 -39 268 -55 125 -31 150 -31 202 4 33 21 57
73 57 123 0 43 -28 93 -70 124 -28 20 -299 92 -392 103 -32 4 -58 11 -58 15 0
11 106 78 370 236 289 172 330 212 330 314 0 62 -16 95 -69 143 -71 64 -156
97 -326 128 -60 11 -125 25 -142 31 -30 11 -33 16 -33 53 0 22 12 67 25 100
30 72 32 129 6 171 -39 63 -148 85 -212 41z"/>
<path d="M1386 5395 c-277 -147 -451 -405 -521 -770 -32 -165 -16 -250 57
-296 50 -31 137 -23 179 17 17 16 37 43 45 60 14 33 24 36 254 98 119 32 160
38 160 22 0 -7 -20 -59 -45 -115 -79 -181 -98 -247 -103 -351 l-4 -96 -35 -23
c-92 -60 -93 -219 -2 -267 55 -28 112 -18 212 36 98 52 178 87 347 151 107 41
141 64 166 111 34 65 2 158 -66 197 -54 30 -105 27 -201 -14 -45 -20 -84 -34
-86 -32 -2 3 23 65 55 139 86 195 96 230 97 328 0 69 -4 93 -22 127 -73 137
-237 167 -535 97 -37 -9 -72 -14 -78 -12 -6 2 6 30 25 63 60 101 136 185 215
240 93 64 120 101 120 165 0 57 -30 107 -80 132 -49 25 -99 22 -154 -7z"/>
<path d="M4670 4470 c-86 -9 -292 -56 -331 -76 -15 -7 -38 -27 -53 -44 -47
-57 -29 -152 37 -197 42 -29 93 -30 222 -3 109 22 115 23 115 13 0 -12 -155
-217 -250 -332 -95 -115 -98 -120 -99 -176 -2 -102 117 -181 213 -141 63 26
160 146 360 446 162 243 185 324 121 422 -50 75 -168 106 -335 88z"/>
<path d="M3850 3672 c-57 -31 -75 -64 -75 -136 0 -77 17 -103 143 -212 48 -41
97 -92 108 -112 61 -105 208 -111 260 -11 39 76 10 160 -85 254 -30 29 -51 58
-51 71 0 41 -43 88 -112 123 -84 42 -141 49 -188 23z"/>
<path d="M2479 3665 c-139 -31 -324 -124 -358 -179 -64 -102 17 -246 138 -246
36 0 71 12 166 59 69 35 140 63 168 67 l47 6 0 -48 c0 -101 -127 -400 -310
-734 -51 -94 -41 -146 46 -245 96 -109 145 -118 286 -55 98 45 212 85 271 95
30 6 37 4 37 -8 0 -9 -47 -109 -105 -222 -117 -230 -125 -266 -85 -345 61
-120 233 -135 313 -28 49 67 191 311 223 386 48 109 67 207 62 305 -7 136 -66
230 -176 284 -80 38 -228 44 -356 14 -49 -12 -90 -20 -92 -18 -2 2 4 16 12 32
9 17 40 87 70 157 72 167 104 293 104 413 0 82 -3 98 -31 153 -35 70 -85 115
-162 144 -68 26 -184 32 -268 13z"/>
<path d="M1099 3420 c-125 -32 -332 -167 -370 -242 -22 -44 -25 -115 -5 -161
40 -96 166 -141 260 -92 16 9 31 13 34 10 7 -7 -33 -203 -89 -435 -65 -266
-79 -346 -81 -455 -1 -104 19 -156 74 -198 38 -28 158 -67 209 -67 74 0 114
46 353 398 146 218 304 432 316 432 4 0 10 -10 14 -22 17 -64 -2 -206 -73
-542 -73 -340 -85 -460 -60 -575 13 -64 59 -135 101 -157 49 -26 119 -23 162
6 71 50 94 131 56 203 -11 20 -20 52 -20 71 0 41 23 167 56 301 41 171 93 407
104 475 14 92 12 209 -5 293 -8 40 -19 115 -24 168 -6 53 -18 116 -26 140 -20
56 -67 104 -121 125 -57 22 -132 6 -196 -41 -77 -56 -228 -241 -367 -448 -40
-60 -75 -106 -78 -103 -6 6 14 95 72 311 69 255 76 353 32 457 -48 114 -197
181 -328 148z"/>
<path d="M4500 3422 c-29 -13 -57 -37 -68 -59 -29 -53 -3 -142 50 -177 13 -9
73 -34 133 -56 131 -48 215 -89 222 -106 6 -17 -17 -59 -124 -222 -104 -160
-123 -209 -105 -270 13 -43 53 -89 90 -103 39 -15 95 -10 130 11 55 34 260
362 303 487 28 80 27 169 -1 227 -28 59 -109 132 -188 169 -139 65 -391 122
-442 99z"/>
<path d="M3694 3196 c-170 -53 -327 -222 -327 -352 0 -87 68 -164 146 -164 67
0 118 38 161 119 l36 70 31 -11 c18 -6 65 -8 111 -5 101 7 163 36 195 93 56
98 6 206 -116 249 -52 18 -180 19 -237 1z"/>
<path d="M4640 2211 c-102 -31 -162 -103 -176 -210 -5 -38 -11 -51 -23 -51 -9
0 -72 9 -141 20 -269 45 -341 44 -447 -5 -99 -45 -190 -155 -222 -270 -7 -22
-16 -136 -21 -254 -5 -118 -13 -218 -19 -224 -6 -6 -35 16 -83 63 -244 242
-453 311 -646 213 -30 -15 -75 -50 -101 -79 -45 -49 -112 -169 -126 -227 -4
-15 -10 -27 -14 -27 -4 0 -19 83 -34 184 -31 212 -62 330 -101 380 -78 103
-239 100 -315 -4 -44 -61 -49 -114 -17 -202 25 -73 37 -132 76 -393 44 -291
86 -395 198 -496 114 -103 300 -155 400 -114 86 37 116 89 114 203 -2 103 35
278 78 371 l30 64 28 -24 c15 -13 90 -85 168 -160 181 -175 217 -194 359 -194
89 0 106 3 155 27 73 36 133 88 157 137 11 22 34 52 52 66 75 64 98 142 108
373 l6 142 61 0 c34 0 104 -7 156 -15 143 -22 294 -21 365 4 113 40 198 126
247 250 18 46 22 77 22 171 0 99 -3 121 -22 157 -50 95 -177 153 -272 124z"/>
</g>
</svg>
