<?xml version="1.0" standalone="no"?>
<!DOCTYPE svg PUBLIC "-//W3C//DTD SVG 20010904//EN"
 "http://www.w3.org/TR/2001/REC-SVG-20010904/DTD/svg10.dtd">
<svg version="1.0" xmlns="http://www.w3.org/2000/svg"
 width="600.000000pt" height="600.000000pt" viewBox="0 0 600.000000 600.000000"
 preserveAspectRatio="xMidYMid meet">
<metadata>
Created by potrace 1.15, written by Peter Selinger 2001-2017
</metadata>
<g transform="translate(0.000000,600.000000) scale(0.100000,-0.100000)"
fill="#16364b" stroke="none">
<path d="M3133 5650 c-57 -34 -84 -99 -104 -247 -32 -241 68 -388 299 -438
126 -28 124 -26 51 -70 -93 -56 -324 -210 -394 -263 -130 -99 -161 -130 -175
-174 -7 -24 -19 -60 -26 -81 -29 -78 -9 -138 63 -191 68 -50 139 -71 378 -112
276 -47 299 -49 335 -34 96 40 118 171 41 244 -36 34 -95 51 -256 72 -66 8
-133 19 -150 23 l-29 7 70 56 c108 86 275 192 408 260 176 90 226 143 226 242
0 135 -106 215 -372 280 -73 18 -143 38 -156 45 -29 16 -29 50 4 148 18 56 24
89 19 118 -7 46 -44 99 -85 120 -41 21 -109 19 -147 -5z"/>
<path d="M1362 5388 c-155 -79 -309 -261 -417 -491 -65 -138 -88 -244 -83
-383 3 -108 4 -114 34 -151 40 -50 92 -76 137 -68 76 15 137 78 137 143 0 30
2 32 33 32 18 0 73 13 122 30 97 33 234 64 243 55 6 -6 -1 -29 -69 -220 -40
-112 -42 -127 -44 -234 l-2 -115 -34 -22 c-49 -31 -70 -57 -79 -101 -18 -77
25 -157 101 -187 54 -22 82 -15 189 43 47 25 164 80 260 121 194 84 220 105
220 182 0 75 -40 132 -114 163 -45 19 -72 15 -161 -26 -36 -16 -67 -29 -71
-29 -13 0 8 72 68 237 57 157 61 174 62 259 1 80 -2 94 -23 125 -51 75 -146
109 -303 109 -86 0 -260 -25 -310 -45 -24 -10 -23 -4 14 63 44 78 159 192 233
230 66 34 88 59 104 117 27 97 -50 195 -152 195 -19 0 -61 -14 -95 -32z"/>
<path d="M4700 4489 c-104 -11 -325 -56 -360 -74 -40 -21 -72 -69 -78 -120 -6
-59 27 -118 83 -145 53 -26 58 -25 193 6 62 15 115 24 118 21 15 -15 -124
-215 -237 -340 -93 -104 -108 -140 -84 -203 21 -55 63 -86 125 -92 84 -8 136
33 287 228 58 74 200 295 236 367 30 59 49 145 41 181 -33 135 -137 190 -324
171z"/>
<path d="M3828 3649 c-68 -41 -88 -129 -45 -203 12 -22 72 -85 132 -139 61
-55 118 -112 127 -126 54 -81 197 -79 247 3 48 79 35 133 -55 226 -44 46 -64
74 -64 92 0 46 -40 91 -114 127 -92 45 -174 52 -228 20z"/>
<path d="M2530 3639 c-89 -24 -247 -82 -313 -116 -60 -30 -87 -72 -87 -137 0
-58 24 -103 71 -130 49 -29 103 -24 189 17 78 37 198 77 231 77 39 0 19 -109
-54 -295 -44 -116 -81 -188 -153 -300 -121 -190 -124 -196 -124 -245 0 -34 7
-56 25 -81 13 -19 36 -55 50 -81 59 -111 164 -132 310 -64 101 48 249 106 270
106 12 0 14 -7 9 -27 -17 -76 -78 -241 -117 -319 -25 -49 -48 -103 -51 -121
-22 -99 84 -222 192 -223 45 0 101 25 139 62 72 70 243 587 243 734 0 177
-129 294 -324 294 -61 0 -182 -23 -238 -45 -24 -10 -23 -5 16 73 111 222 165
560 109 683 -61 136 -207 187 -393 138z"/>
<path d="M1136 3449 c-104 -26 -329 -178 -383 -260 -49 -74 -38 -175 24 -231
54 -49 149 -61 222 -28 24 11 46 19 48 17 2 -2 -16 -73 -41 -158 -96 -337
-124 -484 -133 -699 -6 -163 -2 -183 60 -237 49 -43 170 -71 230 -54 84 25
259 233 499 594 138 207 154 227 166 210 28 -37 2 -224 -78 -558 -98 -408
-102 -530 -21 -642 104 -143 293 -100 293 67 0 26 -8 62 -17 80 -34 66 -12
235 84 658 17 74 36 164 42 200 11 70 15 265 5 280 -3 5 -10 54 -16 108 -14
130 -34 196 -71 238 -85 97 -215 80 -327 -43 -30 -34 -95 -117 -295 -380 -48
-62 -87 -107 -87 -98 0 8 16 69 35 134 66 220 86 320 92 458 5 115 3 137 -16
189 -24 68 -58 109 -116 138 -45 24 -141 32 -199 17z"/>
<path d="M4515 3404 c-69 -36 -97 -94 -77 -162 17 -55 56 -86 157 -122 137
-50 245 -107 245 -129 0 -10 -49 -94 -110 -186 -96 -145 -110 -172 -110 -209
0 -80 70 -156 143 -156 67 0 89 20 216 204 153 221 166 247 166 351 0 96 -22
150 -91 221 -51 52 -168 111 -332 168 -114 39 -161 44 -207 20z"/>
<path d="M3645 3190 c-109 -35 -213 -137 -255 -248 -26 -70 -26 -121 3 -163
26 -39 97 -79 142 -79 57 0 117 40 148 97 l28 52 37 -16 c49 -21 153 -13 208
15 136 69 138 237 4 311 -93 52 -213 63 -315 31z"/>
<path d="M4602 2225 c-88 -38 -152 -124 -152 -202 0 -41 -2 -43 -29 -43 -16 0
-66 8 -112 17 -122 25 -346 24 -419 -1 -86 -29 -132 -55 -178 -100 -88 -83
-102 -138 -107 -421 -2 -115 -7 -223 -12 -239 l-9 -29 -59 55 c-74 68 -192
155 -265 196 -108 60 -239 79 -329 47 -101 -35 -188 -131 -269 -294 -39 -79
-50 -78 -51 7 -2 127 -59 379 -106 471 -42 83 -104 121 -198 121 -62 0 -108
-25 -144 -78 -35 -53 -38 -105 -9 -200 14 -46 39 -179 56 -297 49 -346 88
-453 210 -575 118 -119 285 -190 379 -162 82 25 148 129 138 218 -4 35 4 78
29 168 37 130 71 223 85 232 10 6 119 -77 223 -170 81 -72 149 -119 214 -148
67 -31 199 -31 263 -2 63 30 128 90 151 142 10 23 23 42 28 42 22 0 79 64 100
112 21 48 23 73 28 252 l5 199 68 -7 c37 -3 107 -16 156 -28 66 -17 119 -22
213 -23 118 0 128 2 178 28 139 73 252 269 252 437 0 134 -40 216 -129 262
-61 32 -143 37 -199 13z"/>
</g>
</svg>
