<?xml version="1.0" standalone="no"?>
<!DOCTYPE svg PUBLIC "-//W3C//DTD SVG 20010904//EN"
 "http://www.w3.org/TR/2001/REC-SVG-20010904/DTD/svg10.dtd">
<svg version="1.0" xmlns="http://www.w3.org/2000/svg"
 width="600.000000pt" height="600.000000pt" viewBox="0 0 600.000000 600.000000"
 preserveAspectRatio="xMidYMid meet">
<metadata>
Created by potrace 1.15, written by Peter Selinger 2001-2017
</metadata>
<g transform="translate(0.000000,600.000000) scale(0.100000,-0.100000)"
fill="#16364b" stroke="none">
<path d="M2155 5829 c-11 -6 -45 -37 -75 -68 -30 -32 -127 -123 -215 -203
-282 -257 -394 -386 -414 -477 -18 -86 18 -159 103 -204 35 -19 56 -22 146
-22 128 1 180 17 445 139 99 46 225 103 280 126 55 24 111 53 123 64 80 71 66
195 -27 250 -58 33 -101 26 -284 -51 -92 -39 -167 -67 -165 -63 2 5 65 65 140
135 76 69 145 139 153 155 52 100 -30 230 -144 230 -25 0 -55 -5 -66 -11z"/>
<path d="M3054 5651 c-46 -28 -64 -59 -64 -110 0 -82 51 -134 165 -165 265
-75 387 -179 402 -346 8 -81 -16 -155 -66 -207 -46 -48 -141 -103 -221 -128
-76 -24 -117 -57 -131 -105 -33 -111 74 -220 185 -189 63 17 183 76 255 123
166 111 257 269 268 468 11 185 -33 303 -157 429 -114 114 -243 181 -445 230
-101 24 -152 24 -191 0z"/>
<path d="M949 5321 c-338 -150 -443 -370 -310 -645 70 -144 225 -286 313 -286
93 0 158 64 158 155 0 63 -18 90 -97 148 -113 84 -147 188 -84 259 16 18 60
48 97 67 98 50 122 68 144 111 24 48 26 129 4 171 -17 33 -66 59 -111 59 -15
0 -67 -18 -114 -39z"/>
<path d="M2777 4969 c-190 -30 -319 -213 -304 -430 9 -134 71 -231 182 -283
55 -27 183 -56 242 -56 75 0 143 68 143 143 0 90 -53 148 -150 166 -85 14
-124 39 -128 78 -5 52 22 91 71 103 101 26 136 58 144 133 10 103 -77 166
-200 146z"/>
<path d="M4819 4950 c-41 -12 -80 -41 -110 -84 -27 -36 -29 -45 -29 -136 0
-352 246 -613 476 -506 93 43 164 140 180 242 8 58 -19 155 -62 220 -60 91
-191 193 -314 246 -67 28 -96 32 -141 18z"/>
<path d="M1870 4503 c-107 -21 -272 -148 -286 -218 -16 -87 26 -158 113 -191
57 -22 113 -7 157 43 33 37 75 63 102 63 9 0 36 -18 59 -39 79 -73 173 -75
234 -6 40 45 54 99 40 149 -15 55 -90 130 -166 168 -55 27 -78 32 -146 34 -45
1 -93 0 -107 -3z"/>
<path d="M2734 3881 c-132 -60 -130 -255 3 -303 l35 -13 -5 -55 c-12 -109 -69
-244 -164 -388 -30 -45 -59 -96 -63 -114 -31 -107 84 -215 193 -179 117 39
303 381 338 619 41 290 -139 523 -337 433z"/>
<path d="M1125 3800 c-95 -25 -200 -65 -236 -91 -38 -27 -69 -87 -76 -149 -4
-38 0 -59 20 -104 38 -83 116 -122 195 -98 20 6 37 10 38 9 2 -1 -37 -83 -86
-180 -221 -445 -333 -739 -316 -830 8 -42 54 -100 97 -123 39 -20 146 -18 186
4 17 9 105 73 195 141 131 99 206 167 381 344 l217 221 0 -48 c0 -108 -71
-386 -149 -580 -86 -213 -191 -467 -203 -489 -81 -152 77 -287 224 -192 29 19
50 51 106 162 170 336 228 508 309 918 47 238 48 446 3 541 -31 62 -95 99
-170 97 -117 -2 -204 -56 -387 -239 -73 -73 -133 -131 -133 -129 0 7 38 91 95
210 107 225 119 260 119 355 1 101 -18 147 -86 204 -77 66 -203 83 -343 46z"/>
<path d="M4143 3765 c-79 -22 -126 -49 -170 -99 -50 -57 -66 -113 -61 -208 6
-127 78 -246 181 -300 60 -32 191 -32 260 -1 111 51 205 152 282 301 42 82 50
106 50 152 0 91 -55 143 -170 160 -101 14 -310 11 -372 -5z m112 -310 c-30
-25 -55 -29 -57 -10 -1 13 41 35 67 34 17 0 16 -3 -10 -24z"/>
<path d="M3469 3367 c-102 -52 -160 -147 -195 -317 -18 -88 -13 -128 23 -170
50 -60 122 -78 247 -61 94 13 150 37 204 85 136 123 103 389 -60 470 -75 37
-138 35 -219 -7z"/>
<path d="M4855 2836 c-32 -14 -138 -124 -185 -191 -146 -212 -153 -405 -17
-489 84 -52 188 -46 279 14 145 96 228 242 228 400 0 98 -9 116 -91 194 -89
84 -145 102 -214 72z"/>
<path d="M4140 2453 c-68 -35 -115 -100 -124 -170 -4 -31 0 -85 14 -153 11
-58 20 -112 20 -121 0 -12 -17 -7 -77 23 -96 47 -173 63 -238 48 -120 -27
-203 -104 -245 -230 -28 -82 -23 -173 20 -346 16 -67 39 -168 50 -224 25 -122
46 -166 101 -213 88 -76 223 -72 304 8 68 69 75 150 27 320 -17 60 -29 111
-27 113 5 5 83 -37 90 -49 14 -22 97 -49 152 -49 75 0 178 33 235 75 49 36 91
97 115 168 19 55 18 202 -1 297 -32 152 -103 390 -130 430 -64 97 -182 127
-286 73z"/>
<path d="M2915 2285 c-124 -23 -294 -99 -508 -228 -107 -65 -108 -65 -142 -51
-94 39 -211 -2 -326 -115 -103 -101 -115 -181 -42 -262 45 -50 83 -70 147 -78
l50 -6 18 -70 c9 -38 18 -74 18 -80 0 -5 -25 -21 -56 -34 -202 -87 -295 -355
-212 -608 56 -171 254 -386 443 -480 118 -59 158 -68 305 -67 161 1 253 24
418 105 166 81 198 120 190 231 -8 119 -79 188 -196 188 -52 0 -68 -6 -147
-52 -119 -68 -174 -88 -243 -88 -159 0 -304 87 -392 235 -28 48 -35 69 -35
114 0 45 3 56 18 59 19 4 80 -32 156 -90 58 -45 90 -58 142 -58 114 0 216 118
194 224 -11 49 -49 108 -94 144 -55 44 -104 150 -136 290 -29 129 -32 172 -10
172 8 0 93 39 188 86 174 88 295 139 305 130 7 -8 -24 -114 -58 -196 -16 -39
-65 -141 -110 -226 -88 -172 -95 -205 -61 -280 47 -104 188 -152 291 -99 51
26 84 72 151 211 71 147 118 275 166 454 37 141 39 280 5 355 -43 93 -114 148
-220 171 -80 16 -124 16 -217 -1z"/>
</g>
</svg>
