<?xml version="1.0" standalone="no"?>
<!DOCTYPE svg PUBLIC "-//W3C//DTD SVG 20010904//EN"
 "http://www.w3.org/TR/2001/REC-SVG-20010904/DTD/svg10.dtd">
<svg version="1.0" xmlns="http://www.w3.org/2000/svg"
 width="600.000000pt" height="600.000000pt" viewBox="0 0 600.000000 600.000000"
 preserveAspectRatio="xMidYMid meet">
<metadata>
Created by potrace 1.15, written by Peter Selinger 2001-2017
</metadata>
<g transform="translate(0.000000,600.000000) scale(0.100000,-0.100000)"
fill="#16364b" stroke="none">
<path d="M2293 5820 c-41 -16 -364 -254 -477 -350 -161 -137 -318 -297 -344
-351 -42 -87 -17 -196 57 -244 108 -72 271 -50 701 95 300 100 376 134 407
181 72 109 12 240 -111 241 -26 1 -84 -16 -161 -47 -161 -63 -315 -117 -326
-113 -10 3 177 153 342 275 111 82 134 114 126 181 -6 56 -32 91 -87 120 -46
23 -89 27 -127 12z"/>
<path d="M3060 5658 c-66 -46 -90 -141 -50 -205 26 -44 54 -59 135 -73 195
-35 324 -102 369 -191 28 -58 31 -88 16 -170 -27 -141 -111 -231 -308 -332
-147 -75 -167 -95 -167 -170 0 -65 27 -107 91 -137 59 -29 97 -24 206 28 204
95 325 214 414 406 89 193 104 377 42 505 -73 152 -306 292 -570 346 -104 20
-139 19 -178 -7z"/>
<path d="M962 5320 c-87 -31 -142 -69 -223 -149 -102 -102 -131 -164 -137
-288 -7 -143 38 -262 150 -395 54 -65 160 -145 210 -158 70 -19 154 22 179 88
23 60 -3 146 -55 182 -54 37 -128 117 -151 163 -31 62 -33 127 -5 171 22 37
87 86 145 110 106 45 143 144 84 227 -43 60 -117 79 -197 49z"/>
<path d="M2678 4961 c-43 -14 -119 -70 -189 -141 -114 -115 -164 -255 -139
-383 34 -176 171 -302 388 -358 121 -31 167 -23 222 36 52 55 21 172 -55 209
-16 8 -56 23 -88 32 -128 38 -187 102 -165 180 10 40 73 109 152 168 62 47 81
116 50 182 -30 62 -109 96 -176 75z"/>
<path d="M4775 4954 c-85 -44 -110 -97 -100 -212 16 -186 66 -335 139 -419
103 -118 295 -140 404 -47 24 20 55 59 70 88 23 44 27 63 27 136 -1 75 -5 93
-32 150 -62 125 -164 209 -357 291 -77 33 -108 36 -151 13z"/>
<path d="M1814 4407 c-124 -41 -263 -156 -306 -255 -60 -136 69 -260 200 -193
20 11 54 40 76 66 21 26 53 55 70 66 41 25 112 25 151 -1 47 -31 105 -35 157
-12 58 26 88 72 88 139 0 71 -38 121 -126 164 -61 30 -77 34 -168 36 -64 2
-116 -2 -142 -10z"/>
<path d="M2549 3840 c-81 -10 -120 -29 -155 -76 -55 -72 -31 -178 49 -221 26
-14 56 -17 170 -14 134 2 203 -8 218 -32 11 -17 -21 -95 -71 -170 -51 -78
-177 -227 -339 -402 -114 -122 -129 -145 -137 -209 -17 -123 92 -212 199 -161
60 28 463 478 558 623 190 289 123 555 -163 643 -71 22 -232 32 -329 19z"/>
<path d="M4187 3775 c-187 -38 -285 -136 -295 -295 -6 -107 21 -176 98 -252
72 -71 136 -93 244 -86 109 8 197 58 289 165 81 95 176 247 191 306 17 71 -36
148 -114 166 -63 15 -332 12 -413 -4z m83 -294 c0 -12 -46 -41 -65 -41 -23 0
-13 23 16 37 28 15 49 17 49 4z"/>
<path d="M1110 3699 c-100 -26 -249 -100 -276 -136 -69 -94 -55 -241 28 -291
48 -28 99 -35 147 -18 23 7 41 11 41 7 0 -4 -32 -76 -71 -161 -149 -323 -259
-659 -259 -788 0 -127 147 -216 278 -169 54 20 309 249 538 484 119 122 220
220 224 218 8 -5 -22 -239 -45 -343 -20 -90 -190 -618 -229 -709 -14 -34 -26
-79 -26 -100 0 -72 68 -133 150 -133 52 0 89 15 127 52 35 34 65 118 157 443
25 88 64 221 86 295 124 414 144 706 57 851 -41 68 -92 99 -165 99 -29 0 -67
-6 -85 -13 -49 -21 -145 -102 -319 -268 -87 -83 -158 -147 -158 -143 0 4 34
73 76 153 109 209 143 296 150 384 21 239 -155 357 -426 286z"/>
<path d="M3543 3391 c-90 -23 -174 -105 -212 -206 -32 -85 -54 -228 -42 -273
18 -63 77 -113 152 -127 48 -9 174 10 245 36 74 27 144 96 168 164 49 145 -22
330 -149 386 -49 22 -120 30 -162 20z"/>
<path d="M4825 2694 c-44 -30 -165 -156 -214 -223 -18 -25 -42 -66 -52 -90
l-19 -43 -41 37 c-101 91 -227 91 -308 -1 -71 -81 -84 -157 -55 -317 9 -48 15
-90 12 -92 -2 -2 -45 12 -97 31 -51 19 -118 40 -149 46 -157 29 -296 -40 -364
-181 -32 -67 -36 -192 -9 -351 12 -69 26 -181 31 -250 12 -148 33 -198 99
-245 37 -26 51 -30 109 -30 55 0 75 5 115 28 58 34 102 93 123 164 14 47 14
64 -1 170 -8 65 -18 131 -21 146 -6 27 -4 28 17 22 13 -4 60 -25 104 -46 66
-32 91 -39 141 -39 167 0 321 97 374 236 25 65 32 198 17 308 -9 59 -9 59 15
52 130 -40 262 15 363 150 53 71 83 145 97 244 15 99 5 145 -38 188 -19 19
-39 43 -45 54 -32 60 -139 77 -204 32z"/>
<path d="M2942 2390 c-92 -14 -191 -52 -402 -156 -246 -122 -280 -152 -280
-252 l0 -37 -63 0 c-112 0 -232 -79 -257 -171 -35 -123 52 -245 176 -248 l43
-1 31 -110 c16 -60 30 -113 30 -117 0 -3 -24 -20 -53 -36 -72 -41 -150 -128
-178 -200 -18 -46 -23 -78 -23 -162 -1 -124 10 -167 64 -248 93 -139 274 -290
458 -382 230 -115 381 -118 590 -13 114 58 154 90 181 146 37 76 26 164 -27
221 -60 64 -145 73 -232 26 -170 -92 -211 -98 -339 -49 -106 40 -186 94 -247
163 -117 135 -102 181 21 65 84 -79 165 -99 250 -60 46 21 111 88 131 137 19
45 18 128 -2 170 -9 18 -48 62 -88 98 -105 94 -129 145 -212 451 -15 55 -33
112 -40 127 -19 38 -17 48 9 48 12 0 85 30 162 66 144 67 268 118 319 130 28
7 29 6 23 -25 -17 -82 -121 -299 -206 -431 -32 -49 -36 -62 -36 -121 0 -55 5
-72 28 -107 39 -60 94 -85 173 -80 83 5 129 38 188 132 144 232 246 519 246
695 0 238 -174 369 -438 331z"/>
</g>
</svg>
