<?xml version="1.0" standalone="no"?>
<!DOCTYPE svg PUBLIC "-//W3C//DTD SVG 20010904//EN"
 "http://www.w3.org/TR/2001/REC-SVG-20010904/DTD/svg10.dtd">
<svg version="1.0" xmlns="http://www.w3.org/2000/svg"
 width="600.000000pt" height="600.000000pt" viewBox="0 0 600.000000 600.000000"
 preserveAspectRatio="xMidYMid meet">
<metadata>
Created by potrace 1.15, written by Peter Selinger 2001-2017
</metadata>
<g transform="translate(0.000000,600.000000) scale(0.100000,-0.100000)"
fill="#16364b" stroke="none">
<path d="M1734 5816 c-47 -21 -69 -60 -130 -227 -66 -182 -100 -305 -114 -419
-17 -143 5 -221 82 -283 88 -71 229 -37 369 90 62 56 344 386 367 430 20 36
15 106 -10 143 -44 63 -141 90 -207 55 -16 -8 -65 -56 -109 -107 -90 -105
-135 -150 -128 -128 2 8 25 78 51 156 42 128 46 145 36 181 -27 98 -119 147
-207 109z"/>
<path d="M3092 5673 c-13 -2 -38 -20 -57 -38 -42 -42 -54 -103 -32 -157 16
-37 26 -47 232 -209 158 -124 301 -266 343 -339 43 -75 42 -80 -15 -74 -85 9
-151 -44 -160 -127 -6 -61 20 -108 77 -137 39 -20 56 -23 130 -19 103 4 148
25 212 96 49 54 78 127 78 196 0 187 -195 432 -545 687 -163 118 -198 134
-263 121z"/>
<path d="M945 5444 c-190 -42 -344 -188 -385 -363 -32 -135 18 -292 124 -389
68 -61 111 -82 171 -82 92 0 152 63 142 149 -4 41 -12 52 -66 101 -33 30 -65
68 -71 83 -15 43 3 99 45 136 38 33 52 38 132 44 94 7 162 86 163 187 0 119
-95 169 -255 134z"/>
<path d="M2957 5166 c-153 -55 -246 -261 -178 -394 40 -78 164 -132 270 -117
186 26 234 83 212 253 -17 135 -63 215 -146 253 -47 22 -105 23 -158 5z"/>
<path d="M4775 4856 c-17 -7 -45 -29 -62 -49 -39 -45 -50 -123 -34 -254 27
-219 106 -352 245 -414 139 -61 283 -11 354 125 24 45 27 62 27 146 0 86 -3
100 -29 148 -54 96 -163 188 -330 276 -74 39 -120 45 -171 22z"/>
<path d="M2017 4799 c-137 -39 -187 -83 -187 -165 0 -109 128 -178 242 -130
58 25 71 21 93 -26 38 -80 146 -110 214 -61 45 34 63 80 58 154 -7 114 -72
202 -176 237 -50 18 -167 13 -244 -9z"/>
<path d="M2840 4086 c-67 -19 -105 -41 -138 -82 -88 -107 -48 -251 96 -338
143 -86 337 -104 602 -57 127 23 137 27 171 60 60 60 61 152 2 222 -32 37
-151 95 -303 146 -177 60 -329 77 -430 49z"/>
<path d="M1027 4050 c-132 -25 -187 -187 -108 -312 40 -63 84 -82 178 -76 40
3 73 4 73 2 0 -8 -133 -158 -229 -259 -171 -180 -387 -491 -398 -574 -7 -50
11 -104 50 -147 50 -58 115 -75 227 -61 25 3 55 6 67 6 24 1 200 116 447 290
87 62 165 115 172 118 25 9 73 -36 85 -80 33 -124 -63 -396 -214 -606 -86
-120 -217 -263 -274 -299 -59 -38 -83 -77 -83 -132 0 -90 57 -150 144 -150 38
0 59 7 104 37 113 75 331 319 422 472 56 94 165 342 190 433 11 40 23 110 27
156 6 79 8 84 35 98 56 29 68 65 68 204 0 196 -32 277 -131 328 -38 20 -54 23
-116 19 -67 -5 -86 -12 -228 -85 -85 -44 -155 -78 -155 -76 0 3 27 36 59 74
132 153 181 252 181 362 -1 142 -93 234 -257 258 -78 11 -279 11 -336 0z"/>
<path d="M4188 3771 c-119 -38 -208 -114 -256 -219 -69 -151 -18 -289 130
-358 56 -26 74 -29 158 -29 85 0 101 3 149 28 102 54 199 174 261 324 82 196
-1 274 -290 272 -63 0 -114 -6 -152 -18z m59 -306 c-31 -28 -47 -32 -47 -12 0
15 35 35 60 36 10 0 5 -8 -13 -24z"/>
<path d="M3465 3415 c-5 -2 -22 -6 -38 -9 -82 -19 -232 -242 -232 -348 0 -89
63 -138 177 -138 78 0 112 11 152 48 68 64 106 160 106 267 0 78 -19 120 -70
156 -24 17 -75 29 -95 24z"/>
<path d="M5040 3207 c-53 -19 -180 -108 -227 -160 -66 -71 -95 -139 -101 -229
-6 -97 16 -162 76 -229 78 -88 191 -103 317 -43 143 68 229 229 211 394 -13
110 -107 248 -184 270 -45 12 -49 12 -92 -3z"/>
<path d="M3910 2563 c-65 -33 -104 -89 -122 -174 -10 -49 -8 -68 16 -178 15
-68 26 -125 24 -127 -2 -2 -26 3 -53 11 -117 36 -226 4 -289 -82 -83 -114 -77
-230 30 -557 90 -272 116 -318 199 -357 148 -69 325 48 325 215 l0 36 58 -6
c44 -5 72 -1 122 16 82 28 129 65 165 132 27 48 29 61 28 143 -1 79 -9 117
-68 320 -37 127 -79 277 -92 335 -34 146 -49 182 -89 224 -46 47 -85 67 -148
73 -42 4 -60 0 -106 -24z"/>
<path d="M2057 2350 c-21 -6 -61 -25 -90 -43 -81 -53 -250 -241 -296 -329 -9
-18 -35 -58 -58 -88 -147 -195 -233 -551 -192 -800 15 -96 65 -236 111 -314
78 -132 261 -297 414 -375 93 -47 173 -64 299 -63 144 1 271 33 420 106 138
68 217 128 329 249 146 159 233 355 312 699 62 267 56 393 -21 514 -64 99
-161 147 -300 146 -107 0 -209 -29 -352 -100 -51 -25 -94 -44 -96 -41 -2 2
-17 33 -34 69 -41 91 -155 261 -200 300 -70 62 -167 89 -246 70z m82 -487 c10
-21 24 -65 30 -98 25 -126 50 -183 107 -244 64 -69 105 -91 171 -91 42 0 65 9
178 76 138 81 273 149 316 159 l26 6 -8 -54 c-33 -209 -157 -533 -244 -637
-20 -24 -42 -55 -50 -70 -23 -44 -103 -110 -173 -143 -64 -30 -73 -32 -187
-32 -117 0 -122 1 -190 34 -51 25 -93 58 -156 120 -109 110 -129 157 -137 318
-7 173 28 302 123 456 25 39 45 76 45 81 0 14 109 156 120 156 5 0 18 -17 29
-37z"/>
</g>
</svg>
