<?xml version="1.0" standalone="no"?>
<!DOCTYPE svg PUBLIC "-//W3C//DTD SVG 20010904//EN"
 "http://www.w3.org/TR/2001/REC-SVG-20010904/DTD/svg10.dtd">
<svg version="1.0" xmlns="http://www.w3.org/2000/svg"
 width="600.000000pt" height="600.000000pt" viewBox="0 0 600.000000 600.000000"
 preserveAspectRatio="xMidYMid meet">
<metadata>
Created by potrace 1.15, written by Peter Selinger 2001-2017
</metadata>
<g transform="translate(0.000000,600.000000) scale(0.100000,-0.100000)"
fill="#16364b" stroke="none">
<path d="M3116 5650 c-63 -20 -105 -93 -92 -162 8 -44 44 -77 176 -166 128
-85 167 -116 249 -195 74 -73 105 -126 96 -167 -8 -35 -73 -111 -129 -150 -43
-29 -287 -160 -299 -160 -4 0 -7 7 -7 16 0 9 -15 31 -34 50 -29 29 -41 34 -82
34 -39 0 -65 -10 -143 -52 -122 -68 -211 -150 -252 -234 -28 -56 -31 -71 -27
-133 3 -58 9 -78 34 -113 40 -58 119 -103 204 -119 61 -11 75 -10 115 6 58 22
85 62 85 126 0 59 -30 105 -88 134 l-44 22 58 37 c32 20 63 36 69 36 5 0 18
-14 27 -30 24 -42 74 -70 128 -70 36 0 76 15 190 71 320 156 444 279 486 483
20 95 11 169 -32 255 -52 104 -133 172 -469 394 -134 88 -169 102 -219 87z"/>
<path d="M1934 5491 c-33 -15 -47 -30 -68 -74 -25 -54 -62 -103 -220 -292 -84
-101 -143 -207 -152 -275 -13 -101 44 -193 144 -230 52 -20 70 -22 192 -17
209 9 474 79 524 138 51 60 56 148 14 217 -42 68 -115 79 -230 33 -80 -32
-214 -71 -242 -71 -13 0 -1 21 46 78 169 205 208 271 208 349 0 117 -113 192
-216 144z"/>
<path d="M1118 5345 c-159 -40 -290 -191 -355 -410 -25 -85 -25 -270 1 -345
37 -111 119 -234 180 -271 80 -49 202 1 226 92 13 46 -4 101 -47 156 -58 73
-76 121 -77 203 -1 122 51 201 179 272 77 43 105 84 105 152 0 113 -95 181
-212 151z"/>
<path d="M4645 4796 c-16 -8 -43 -27 -59 -44 -37 -39 -47 -113 -22 -163 15
-30 15 -35 0 -67 -35 -74 15 -179 125 -267 185 -148 411 -106 517 95 26 50 24
142 -5 200 -52 102 -196 196 -368 239 -93 24 -145 26 -188 7z"/>
<path d="M1885 4324 c-63 -10 -143 -37 -207 -71 -80 -42 -191 -140 -218 -194
-42 -81 -16 -180 54 -213 69 -32 122 -15 200 64 27 28 78 65 113 82 62 30 64
31 167 24 81 -6 112 -4 138 7 137 57 117 231 -31 282 -48 16 -165 26 -216 19z"/>
<path d="M2620 3774 c-241 -67 -305 -97 -334 -157 -22 -48 -20 -88 7 -127 55
-82 123 -96 257 -55 47 14 116 29 153 32 l68 6 -7 -29 c-29 -119 -109 -252
-340 -565 -130 -175 -144 -200 -144 -255 0 -86 45 -136 128 -141 73 -5 93 6
165 92 275 327 441 589 487 770 53 205 12 340 -124 410 -52 26 -70 30 -160 32
-66 1 -120 -3 -156 -13z"/>
<path d="M4043 3752 c-74 -26 -118 -64 -149 -127 -23 -49 -26 -64 -22 -128 6
-91 39 -168 102 -235 139 -149 323 -149 460 -1 72 78 126 185 126 251 0 28 -6
62 -14 76 -8 15 -17 39 -21 55 -9 46 -55 87 -115 104 -30 8 -113 17 -185 19
-109 4 -138 2 -182 -14z"/>
<path d="M1105 3629 c-47 -11 -180 -77 -248 -122 -59 -40 -87 -93 -87 -167 0
-132 109 -226 231 -199 23 6 43 8 46 6 2 -2 -25 -78 -61 -168 -35 -90 -96
-265 -134 -389 -112 -358 -118 -390 -82 -460 34 -67 105 -102 214 -103 41 -1
72 5 95 17 53 28 204 187 336 351 156 195 359 406 363 377 3 -18 -10 -85 -62
-327 -8 -38 -29 -151 -46 -250 -17 -99 -52 -275 -77 -391 l-46 -211 21 -45
c40 -81 134 -111 214 -66 54 31 73 67 98 188 12 58 45 200 75 315 30 116 61
251 70 300 9 50 29 158 45 240 44 225 52 306 40 420 -16 152 -59 232 -147 272
-65 30 -108 27 -192 -14 -56 -27 -221 -183 -384 -363 -42 -47 -77 -80 -77 -74
0 6 30 78 66 160 95 216 124 309 124 402 0 124 -60 226 -164 279 -57 29 -162
39 -231 22z"/>
<path d="M3542 3285 c-116 -59 -189 -161 -227 -321 -14 -59 -15 -79 -5 -108
26 -81 121 -115 214 -78 28 11 87 26 131 32 44 7 106 23 138 37 177 79 208
282 63 410 -86 75 -199 85 -314 28z"/>
<path d="M4762 2879 c-159 -79 -213 -251 -132 -416 36 -72 114 -148 168 -163
166 -46 279 77 252 273 -9 58 -20 81 -52 105 -15 11 -15 16 -2 47 19 46 18 74
-6 113 -47 77 -128 91 -228 41z"/>
<path d="M2902 2519 c-94 -16 -203 -58 -357 -137 -178 -92 -230 -136 -240
-207 -15 -96 23 -179 99 -219 71 -36 115 -28 282 51 150 72 247 113 264 113 6
0 10 -8 10 -17 0 -41 -82 -257 -145 -383 -60 -123 -66 -139 -61 -180 21 -159
226 -218 334 -96 46 52 180 328 221 453 49 149 65 247 57 337 -17 180 -131
283 -324 291 -48 2 -111 0 -140 -6z"/>
<path d="M4372 2347 c-54 -20 -103 -67 -128 -121 -27 -57 -29 -104 -12 -205 7
-39 9 -73 6 -76 -3 -3 -50 13 -104 34 -175 71 -281 78 -379 28 -98 -49 -187
-169 -214 -287 -37 -159 -16 -459 41 -572 44 -90 151 -158 246 -158 90 0 169
57 198 142 14 44 14 60 0 187 -19 161 -20 211 -6 211 6 0 50 -16 98 -37 175
-73 364 -51 468 54 89 91 139 258 132 436 -8 195 -53 291 -162 345 -55 28
-138 36 -184 19z"/>
<path d="M2094 1871 c-54 -33 -87 -86 -92 -146 -6 -74 4 -117 36 -158 20 -25
38 -72 62 -164 50 -192 83 -283 145 -399 63 -117 92 -157 217 -301 95 -109
160 -164 273 -231 138 -81 262 -106 395 -78 85 18 243 91 297 139 39 34 72 97
73 137 0 80 -52 158 -125 186 -59 22 -105 14 -202 -37 -93 -49 -117 -48 -239
10 -77 37 -81 40 -87 77 -4 22 -17 55 -28 74 -12 19 -40 71 -62 115 -49 96
-131 184 -198 209 l-45 17 -49 166 c-26 91 -63 195 -80 232 -33 68 -103 143
-151 161 -41 16 -106 12 -140 -9z"/>
</g>
</svg>
