<?xml version="1.0" standalone="no"?>
<!DOCTYPE svg PUBLIC "-//W3C//DTD SVG 20010904//EN"
 "http://www.w3.org/TR/2001/REC-SVG-20010904/DTD/svg10.dtd">
<svg version="1.0" xmlns="http://www.w3.org/2000/svg"
 width="600.000000pt" height="600.000000pt" viewBox="0 0 600.000000 600.000000"
 preserveAspectRatio="xMidYMid meet">
<metadata>
Created by potrace 1.15, written by Peter Selinger 2001-2017
</metadata>
<g transform="translate(0.000000,600.000000) scale(0.100000,-0.100000)"
fill="#16364b" stroke="none">
<path d="M2370 5461 c-40 -21 -71 -70 -120 -186 -38 -92 -49 -185 -30 -255 16
-60 80 -124 140 -140 69 -19 214 -6 373 33 75 19 137 31 137 28 0 -3 -52 -67
-115 -141 -64 -74 -138 -167 -165 -206 -55 -79 -133 -232 -185 -360 -57 -142
-45 -247 35 -301 41 -29 83 -29 220 -3 180 34 258 42 503 48 l239 7 28 32 c16
18 34 49 39 70 20 75 -27 163 -97 183 -68 18 -367 10 -580 -16 l-54 -7 18 34
c33 65 124 195 234 334 137 172 207 273 226 327 44 126 -15 245 -147 292 -70
25 -173 17 -359 -28 -80 -20 -150 -36 -157 -36 -8 0 -3 18 12 53 30 62 31 98
6 152 -42 91 -125 127 -201 86z"/>
<path d="M1680 5046 c-165 -46 -402 -212 -542 -379 -42 -51 -48 -63 -48 -105
0 -30 8 -59 21 -82 41 -66 60 -74 249 -106 256 -42 336 -76 394 -167 19 -29
44 -62 57 -74 32 -29 92 -44 130 -33 80 23 113 73 107 159 -5 68 -63 167 -138
234 -57 51 -184 120 -252 137 -26 7 -46 16 -43 20 12 19 141 72 206 84 56 10
77 20 102 44 28 28 32 39 35 99 3 59 0 73 -20 103 -39 58 -82 80 -152 79 -34
0 -81 -6 -106 -13z"/>
<path d="M4128 4840 c-126 -22 -215 -60 -338 -142 -89 -59 -111 -86 -118 -144
-10 -88 47 -148 139 -148 38 0 59 8 110 42 89 57 175 95 231 100 l48 5 0 -45
c0 -88 -48 -235 -145 -447 -54 -117 -55 -145 -8 -215 42 -63 65 -86 107 -108
48 -25 80 -23 329 21 179 31 284 40 307 26 34 -21 -13 -267 -91 -484 -45 -124
-47 -168 -13 -214 58 -78 186 -75 238 6 9 13 37 79 62 148 106 289 138 506 95
649 -19 60 -31 81 -74 124 -68 68 -131 89 -265 88 -92 -1 -325 -27 -344 -38
-15 -10 -8 21 32 126 121 316 82 549 -104 631 -51 22 -136 30 -198 19z"/>
<path d="M2040 3925 c-102 -36 -241 -67 -385 -85 -116 -14 -167 -33 -204 -75
-69 -79 -56 -176 31 -221 62 -32 259 -9 558 66 91 23 182 51 203 63 110 61
108 209 -3 265 -58 29 -86 27 -200 -13z"/>
<path d="M3718 3711 c-100 -32 -440 -225 -511 -290 -78 -72 -42 -211 63 -241
48 -14 91 1 192 65 143 90 278 159 278 142 0 -28 -92 -280 -142 -392 -70 -155
-108 -253 -108 -278 1 -40 38 -106 72 -127 28 -18 44 -21 98 -16 134 10 370
98 501 186 79 54 199 173 222 222 39 82 10 164 -70 200 -42 18 -52 19 -100 8
-43 -9 -62 -21 -101 -62 -46 -48 -172 -142 -180 -133 -2 2 23 68 56 147 74
174 95 251 95 343 1 84 -22 135 -83 187 -69 60 -171 74 -282 39z"/>
<path d="M2365 3360 c-115 -12 -263 -39 -300 -55 -18 -7 -45 -30 -61 -50 -56
-73 -32 -190 46 -230 40 -21 79 -19 236 10 74 14 162 25 195 25 57 0 59 -1 59
-26 0 -15 -17 -68 -37 -118 -20 -50 -37 -107 -36 -126 2 -113 137 -191 233
-134 47 27 66 57 106 169 29 80 37 119 41 195 6 111 -4 159 -50 226 -24 37
-48 57 -97 82 -58 29 -77 34 -160 37 -52 2 -131 0 -175 -5z"/>
<path d="M1217 3110 c-186 -47 -258 -228 -138 -348 18 -17 50 -37 72 -43 28
-9 41 -19 46 -37 3 -13 3 -91 -1 -173 -3 -82 -9 -216 -12 -297 -7 -162 1 -234
41 -359 41 -129 94 -183 190 -191 132 -11 225 103 192 234 l-8 31 49 5 c63 6
106 37 137 98 41 80 161 252 209 299 l45 44 7 -28 c14 -58 -14 -347 -47 -472
-22 -82 -29 -133 -26 -166 7 -83 64 -138 149 -145 44 -3 59 0 87 20 54 36 69
65 100 193 33 134 55 349 56 540 0 111 -2 125 -29 182 -78 171 -273 249 -431
174 -64 -31 -203 -170 -274 -276 -30 -44 -57 -83 -60 -87 -3 -4 -6 118 -6 270
0 310 -6 345 -70 433 -57 79 -180 123 -278 99z"/>
<path d="M4885 2971 c-46 -12 -87 -36 -122 -73 -48 -50 -66 -101 -67 -192 l-1
-79 -105 -47 c-227 -100 -354 -218 -411 -381 -33 -94 -33 -285 -1 -383 32 -94
62 -152 122 -230 41 -53 47 -66 32 -66 -21 0 -77 -35 -111 -69 -39 -39 -63
-42 -178 -20 -161 29 -332 36 -412 15 -145 -37 -297 -143 -430 -299 -42 -49
-86 -99 -99 -111 -12 -11 -57 -55 -100 -98 -92 -91 -135 -109 -210 -89 -130
34 -263 161 -348 332 -44 87 -66 114 -116 140 -84 43 -190 15 -245 -64 -23
-33 -28 -51 -28 -101 0 -52 6 -75 37 -136 62 -125 117 -200 222 -306 110 -110
191 -164 316 -209 91 -33 226 -44 314 -25 76 15 218 88 282 144 27 24 67 52
89 64 49 25 66 43 144 159 104 154 177 216 275 234 44 8 77 5 210 -21 177 -34
255 -37 341 -15 156 41 305 177 305 280 0 17 -9 49 -19 72 l-19 42 31 6 c96
21 172 94 189 182 17 92 -9 168 -86 246 -26 25 -51 58 -56 72 -12 31 -13 105
-2 121 15 23 90 62 199 103 185 71 263 134 319 255 45 99 53 225 23 368 -27
124 -164 211 -284 179z"/>
<path d="M3310 2373 c-130 -13 -628 -140 -668 -170 -99 -73 -94 -234 10 -316
62 -50 96 -47 334 21 212 61 314 85 414 96 l56 7 0 -55 c1 -67 25 -110 81
-149 83 -59 191 -41 252 43 38 52 66 171 58 242 -17 138 -116 245 -259 278
-41 9 -202 11 -278 3z"/>
</g>
</svg>
