<?xml version="1.0" standalone="no"?>
<!DOCTYPE svg PUBLIC "-//W3C//DTD SVG 20010904//EN"
 "http://www.w3.org/TR/2001/REC-SVG-20010904/DTD/svg10.dtd">
<svg version="1.0" xmlns="http://www.w3.org/2000/svg"
 width="600.000000pt" height="600.000000pt" viewBox="0 0 600.000000 600.000000"
 preserveAspectRatio="xMidYMid meet">
<metadata>
Created by potrace 1.15, written by Peter Selinger 2001-2017
</metadata>
<g transform="translate(0.000000,600.000000) scale(0.100000,-0.100000)"
fill="#16364b" stroke="none">
<path d="M1555 5770 c-37 -15 -65 -56 -120 -179 -116 -260 -141 -369 -99 -442
27 -47 97 -82 147 -74 88 13 216 104 373 266 148 152 167 192 121 260 -28 42
-84 63 -125 48 -15 -5 -66 -49 -114 -97 -49 -48 -88 -84 -88 -80 0 4 16 44 36
89 39 89 41 127 7 173 -31 42 -88 57 -138 36z"/>
<path d="M805 5547 c-110 -37 -205 -122 -253 -224 -37 -82 -43 -205 -13 -284
42 -111 149 -198 225 -183 52 9 96 63 96 115 0 39 -23 99 -38 99 -4 0 -20 11
-35 25 -59 55 -17 179 75 224 56 27 58 27 125 -9 62 -33 100 -37 143 -15 36
19 50 43 50 89 0 48 -53 107 -127 142 -68 32 -185 42 -248 21z"/>
<path d="M2354 5416 l-34 -34 0 -139 c0 -227 -24 -367 -85 -499 -43 -95 -90
-144 -183 -192 -90 -47 -111 -67 -118 -113 -8 -46 29 -100 79 -116 45 -15 87
-3 174 48 239 144 363 437 363 859 0 132 -3 158 -18 176 -25 31 -55 44 -102
44 -34 0 -48 -6 -76 -34z"/>
<path d="M3489 5322 c-50 -45 -63 -145 -29 -236 25 -66 123 -176 183 -205 93
-45 198 -16 238 65 25 53 19 95 -25 178 -46 90 -120 164 -193 198 -82 37 -133
37 -174 0z"/>
<path d="M2982 5137 c-55 -17 -126 -89 -157 -159 -52 -116 -31 -228 52 -279
59 -37 156 -33 246 9 88 41 101 67 102 207 0 91 -2 104 -27 147 -45 75 -127
104 -216 75z"/>
<path d="M4771 4763 c-68 -36 -75 -57 -74 -211 2 -204 37 -323 126 -419 58
-63 108 -87 182 -87 183 0 305 202 235 388 -30 79 -134 188 -262 273 -110 73
-153 85 -207 56z m219 -398 c12 -19 20 -41 17 -48 -4 -13 -47 50 -47 71 0 20
7 14 30 -23z"/>
<path d="M2700 4237 c-102 -23 -165 -78 -195 -168 -35 -105 3 -253 81 -317
116 -96 334 -59 510 85 117 98 150 183 104 273 -29 56 -69 79 -183 106 -129
30 -245 37 -317 21z"/>
<path d="M1060 4077 c-52 -27 -80 -75 -80 -137 0 -50 26 -102 62 -121 12 -6
64 -20 114 -30 51 -10 103 -23 115 -30 l22 -11 -24 -20 c-47 -37 -205 -107
-307 -137 -122 -35 -149 -50 -169 -98 -34 -82 24 -171 124 -194 37 -8 159 16
257 50 103 36 232 117 319 200 l38 36 -16 -44 c-21 -60 -19 -156 4 -208 28
-62 94 -127 159 -159 46 -22 75 -28 149 -32 81 -4 97 -2 145 20 65 30 110 74
146 142 23 44 27 63 27 136 0 100 -24 159 -89 225 -68 67 -125 90 -231 90 -96
0 -135 -13 -214 -73 l-34 -25 7 24 c37 133 -6 245 -121 315 -56 34 -185 77
-277 93 -78 14 -76 15 -126 -12z"/>
<path d="M4219 3786 c-225 -63 -355 -296 -265 -479 29 -61 73 -104 139 -139
64 -34 192 -33 267 3 140 67 224 216 237 419 6 93 5 96 -22 128 -35 41 -56 52
-130 68 -75 16 -166 16 -226 0z m51 -306 c0 -15 -38 -50 -55 -50 -26 0 -15 28
20 48 25 14 35 15 35 2z"/>
<path d="M5143 3556 c-131 -43 -213 -110 -261 -214 -21 -47 -24 -64 -20 -136
3 -57 11 -93 27 -124 79 -153 240 -215 385 -149 175 80 273 297 204 449 -44
94 -168 198 -238 197 -14 0 -58 -10 -97 -23z m41 -330 c-6 -16 -24 -23 -24 -8
0 10 22 33 27 28 2 -2 1 -11 -3 -20z"/>
<path d="M2620 3488 c-88 -13 -176 -62 -255 -142 -84 -85 -130 -171 -175 -331
-52 -180 -83 -218 -242 -294 -106 -50 -203 -126 -331 -261 -215 -224 -283
-360 -308 -617 -12 -124 -1 -280 27 -375 42 -138 133 -269 250 -355 89 -66
250 -155 339 -189 283 -106 600 -52 844 143 183 146 319 374 381 637 56 241
64 318 65 606 0 334 -16 472 -81 698 -49 171 -95 269 -162 343 -102 113 -216
158 -352 137z m90 -423 c11 -18 30 -59 41 -91 48 -138 59 -206 76 -484 14
-230 14 -299 4 -421 -29 -365 -124 -566 -333 -708 -167 -113 -327 -127 -497
-46 -151 73 -251 161 -299 263 -24 51 -27 69 -27 162 1 94 4 112 32 177 40 93
106 186 212 296 70 73 101 96 182 139 166 86 311 216 388 346 29 50 69 157
106 287 9 33 28 77 41 98 28 43 38 41 74 -18z"/>
<path d="M3447 3386 c-65 -24 -117 -86 -188 -225 -48 -95 -48 -135 -3 -182 36
-38 78 -44 152 -24 78 22 124 61 161 138 71 144 57 254 -36 293 -39 17 -38 17
-86 0z"/>
<path d="M379 2295 c-28 -15 -59 -70 -59 -103 0 -29 37 -144 77 -242 50 -123
132 -242 233 -341 111 -109 191 -152 283 -153 187 -1 272 175 177 364 -59 117
-213 251 -461 400 -155 94 -194 106 -250 75z m407 -449 c103 -89 157 -188 68
-124 -51 36 -109 99 -157 168 l-31 45 32 -21 c17 -11 57 -41 88 -68z"/>
<path d="M4325 2053 c-16 -9 -36 -25 -45 -36 -17 -20 -17 -20 -49 4 -26 19
-45 24 -95 24 -54 0 -68 -4 -100 -29 -76 -57 -83 -142 -31 -366 73 -318 129
-402 267 -404 48 -1 63 4 100 29 82 58 127 166 170 413 11 65 21 153 21 198 2
74 0 83 -26 117 -15 20 -41 44 -57 52 -38 19 -117 19 -155 -2z"/>
</g>
</svg>
