<?xml version="1.0" standalone="no"?>
<!DOCTYPE svg PUBLIC "-//W3C//DTD SVG 20010904//EN"
 "http://www.w3.org/TR/2001/REC-SVG-20010904/DTD/svg10.dtd">
<svg version="1.0" xmlns="http://www.w3.org/2000/svg"
 width="600.000000pt" height="600.000000pt" viewBox="0 0 600.000000 600.000000"
 preserveAspectRatio="xMidYMid meet">
<metadata>
Created by potrace 1.15, written by Peter Selinger 2001-2017
</metadata>
<g transform="translate(0.000000,600.000000) scale(0.100000,-0.100000)"
fill="#16364b" stroke="none">
<path d="M2130 5817 c-33 -19 -470 -454 -537 -535 -101 -120 -135 -207 -114
-285 36 -127 169 -169 353 -111 100 31 520 200 609 244 108 54 139 95 139 181
0 59 -29 108 -80 134 -49 25 -89 17 -259 -50 -90 -36 -165 -64 -167 -62 -2 2
11 17 29 33 230 205 247 225 247 290 0 111 -135 209 -220 161z"/>
<path d="M3035 5701 c-36 -15 -73 -58 -86 -99 -10 -35 -9 -48 5 -87 23 -60 49
-78 164 -116 218 -71 354 -164 407 -276 29 -61 41 -156 27 -211 -24 -86 -126
-163 -276 -206 -68 -20 -100 -48 -117 -104 -10 -35 -9 -48 5 -87 20 -52 52
-81 108 -96 33 -9 52 -7 112 11 309 94 487 309 462 560 -18 177 -90 333 -207
450 -160 160 -496 305 -604 261z"/>
<path d="M981 5354 c-70 -19 -174 -74 -232 -124 -213 -182 -210 -499 6 -715
109 -110 183 -136 272 -95 53 24 83 70 83 128 0 55 -20 94 -67 128 -106 78
-149 141 -140 207 8 61 34 88 134 137 51 25 104 56 117 69 54 51 59 144 11
206 -46 62 -104 80 -184 59z"/>
<path d="M2750 4975 c-106 -30 -203 -115 -252 -221 -19 -41 -23 -66 -23 -149
0 -89 3 -106 28 -156 33 -68 100 -132 170 -164 74 -34 212 -52 272 -35 111 31
151 167 75 254 -35 40 -65 52 -142 61 -93 10 -131 57 -92 113 11 16 25 22 52
22 82 0 152 67 152 144 0 109 -107 167 -240 131z"/>
<path d="M4743 4887 c-37 -35 -46 -51 -50 -88 -7 -61 22 -291 47 -370 67 -218
240 -321 400 -239 172 88 229 272 138 443 -50 92 -146 170 -315 256 -115 57
-157 57 -220 -2z"/>
<path d="M1865 4527 c-102 -34 -214 -119 -241 -184 -34 -80 -5 -169 66 -206
56 -29 125 -10 208 58 61 49 110 49 147 1 72 -94 208 -85 258 17 14 27 17 48
12 77 -12 71 -103 172 -200 223 -50 26 -190 34 -250 14z"/>
<path d="M2790 3878 c-76 -52 -96 -118 -60 -193 20 -41 22 -57 17 -119 -8 -93
-48 -245 -96 -365 -49 -120 -52 -137 -41 -186 23 -104 165 -150 248 -80 52 43
141 261 178 435 22 102 25 312 5 379 -18 62 -56 115 -96 134 -51 24 -115 22
-155 -5z"/>
<path d="M1188 3810 c-25 -5 -98 -22 -161 -40 -164 -45 -219 -96 -221 -205 -1
-120 112 -211 229 -185 22 5 40 8 41 7 2 -1 -23 -45 -55 -97 -115 -189 -207
-383 -312 -651 -46 -118 -53 -143 -53 -211 -1 -71 1 -79 30 -115 62 -76 134
-105 213 -83 44 12 99 55 256 200 55 51 172 154 259 229 88 75 198 169 243
210 46 40 86 71 89 69 10 -10 -19 -168 -52 -279 -64 -222 -154 -447 -278 -699
-82 -165 -89 -198 -58 -260 46 -93 166 -107 239 -28 30 32 239 458 296 603
126 322 172 509 172 700 0 147 -13 214 -55 278 -41 60 -99 91 -175 91 -103 0
-215 -64 -394 -224 -55 -50 -101 -86 -101 -81 0 6 35 74 78 153 124 230 136
260 137 353 0 71 -4 86 -30 134 -64 116 -174 158 -337 131z"/>
<path d="M4290 3785 c-221 -51 -362 -190 -363 -355 -2 -223 248 -364 459 -259
57 29 145 121 187 195 19 34 53 108 77 165 33 82 41 112 37 145 -6 53 -32 89
-80 109 -46 19 -236 19 -317 0z m-8 -326 c-29 -26 -52 -31 -52 -11 0 11 52 41
70 41 9 0 3 -11 -18 -30z"/>
<path d="M3485 3368 c-89 -31 -165 -124 -211 -258 -52 -149 -40 -228 41 -276
129 -75 394 29 476 188 31 59 31 156 1 214 -55 107 -200 169 -307 132z"/>
<path d="M4875 2856 c-39 -17 -172 -160 -231 -248 -109 -162 -113 -316 -11
-405 160 -141 459 31 516 295 27 128 6 202 -82 289 -84 83 -126 98 -192 69z"/>
<path d="M4167 2499 c-109 -26 -187 -118 -187 -220 0 -23 12 -91 26 -151 15
-60 24 -111 21 -114 -3 -4 -41 8 -84 26 -98 42 -204 51 -281 26 -68 -23 -141
-90 -177 -163 -35 -70 -44 -190 -25 -311 16 -105 86 -430 100 -467 28 -74 109
-125 197 -125 100 1 183 56 226 149 25 57 25 122 -2 231 -12 47 -23 93 -25
103 -6 24 15 21 55 -8 63 -46 112 -65 170 -65 119 0 273 81 341 179 82 118 79
207 -17 506 -94 293 -94 294 -132 336 -54 60 -131 86 -206 68z"/>
<path d="M2930 2254 c-8 -3 -44 -14 -80 -25 -36 -12 -162 -68 -282 -125 -119
-57 -221 -104 -228 -104 -6 0 -27 11 -47 25 -55 37 -127 50 -196 35 -102 -21
-252 -157 -277 -252 -30 -110 59 -215 201 -235 l53 -8 13 -50 c20 -77 15 -95
-34 -114 -149 -58 -239 -203 -250 -402 -12 -211 74 -411 238 -551 129 -111
347 -219 497 -249 171 -33 361 25 541 166 83 66 111 115 111 199 0 89 -37 149
-113 181 -79 33 -144 16 -262 -69 -97 -70 -133 -86 -196 -86 -98 0 -253 75
-344 167 -58 58 -105 154 -105 212 0 98 49 96 165 -8 28 -24 70 -53 94 -64 93
-41 197 -1 246 96 45 92 31 147 -62 243 -65 66 -99 136 -128 269 -8 39 -18 80
-20 92 -4 19 1 24 37 34 24 6 136 58 250 115 113 57 212 104 218 104 13 0 14
3 -51 -201 -29 -91 -74 -204 -109 -274 -67 -133 -75 -178 -40 -249 30 -62 80
-91 155 -91 51 0 70 5 110 30 40 25 56 45 97 122 93 175 221 553 234 692 11
114 -24 223 -94 295 -58 61 -110 80 -227 83 -55 1 -107 0 -115 -3z"/>
</g>
</svg>
