<?xml version="1.0" standalone="no"?>
<!DOCTYPE svg PUBLIC "-//W3C//DTD SVG 20010904//EN"
 "http://www.w3.org/TR/2001/REC-SVG-20010904/DTD/svg10.dtd">
<svg version="1.0" xmlns="http://www.w3.org/2000/svg"
 width="600.000000pt" height="600.000000pt" viewBox="0 0 600.000000 600.000000"
 preserveAspectRatio="xMidYMid meet">
<metadata>
Created by potrace 1.15, written by Peter Selinger 2001-2017
</metadata>
<g transform="translate(0.000000,600.000000) scale(0.100000,-0.100000)"
fill="#16364b" stroke="none">
<path d="M2028 5111 c-69 -22 -140 -86 -177 -159 -35 -69 -43 -144 -27 -272 8
-63 18 -171 21 -240 3 -69 13 -208 22 -310 9 -102 16 -273 17 -380 1 -238 -21
-1035 -29 -1070 -4 -14 -23 -37 -43 -50 -20 -14 -144 -106 -275 -204 -180
-136 -241 -176 -249 -168 -17 17 -48 15 -48 -2 0 -8 5 -18 10 -21 23 -14 7
-22 -35 -17 -52 5 -58 -7 -22 -46 13 -15 18 -26 11 -29 -26 -9 -47 -31 -40
-41 4 -7 23 -12 42 -12 38 0 41 -5 17 -32 -13 -14 -14 -21 -5 -30 9 -9 28 -5
80 21 37 18 76 42 87 53 11 11 59 46 106 79 48 33 142 107 210 164 l124 104 7
-129 c10 -207 36 -339 109 -547 57 -160 92 -235 145 -309 88 -124 221 -206
387 -241 l88 -18 -8 -65 c-13 -103 -8 -288 10 -376 10 -44 32 -125 51 -180 19
-54 32 -102 30 -105 -2 -4 -40 -9 -84 -11 -96 -6 -128 -24 -148 -86 -26 -79
30 -142 126 -142 100 0 217 63 253 136 27 57 22 98 -25 214 -51 124 -69 223
-68 370 1 69 7 150 14 180 l14 55 89 -5 c126 -7 318 -6 615 4 l255 9 1 -154
c2 -174 27 -351 70 -491 15 -47 24 -93 21 -102 -5 -12 -21 -16 -64 -16 -80 0
-127 -15 -157 -51 -71 -84 16 -182 146 -165 118 16 212 88 238 183 12 40 11
55 -4 107 -55 197 -68 253 -82 361 -10 75 -14 150 -10 200 9 121 9 122 69 130
221 28 409 60 454 77 69 26 163 97 208 158 103 140 155 354 155 635 0 279 -93
454 -345 651 l-60 46 105 -7 c185 -12 383 -35 396 -46 10 -8 32 -7 83 6 78 19
100 35 76 55 -12 10 -13 16 -4 27 9 10 9 17 1 25 -7 7 -12 23 -12 36 0 23 -2
24 -49 17 -46 -6 -50 -5 -53 17 -3 25 -38 39 -38 14 0 -8 -4 -17 -10 -21 -13
-8 -372 27 -635 62 -115 15 -123 18 -195 64 -41 27 -153 97 -248 156 -94 60
-270 175 -390 258 -312 214 -439 347 -580 605 -61 112 -191 456 -287 760 -42
134 -126 244 -222 291 -52 26 -182 36 -235 20z m190 -178 c15 -11 41 -38 58
-61 31 -40 42 -64 82 -187 32 -99 139 -391 189 -515 126 -313 253 -498 465
-677 180 -152 388 -295 693 -478 99 -59 205 -127 235 -150 30 -23 120 -90 200
-150 232 -174 308 -241 355 -315 68 -104 85 -167 85 -312 -1 -355 -90 -588
-251 -657 -84 -37 -428 -81 -627 -81 -92 0 -257 -5 -367 -10 -240 -12 -745 9
-848 36 -207 53 -321 192 -438 534 -62 179 -75 418 -40 702 16 123 21 250 26
648 6 437 4 530 -14 790 -11 162 -25 374 -32 470 -6 96 -14 203 -16 238 -7 83
15 143 65 178 32 22 46 25 95 22 37 -3 67 -11 85 -25z"/>
<path d="M2636 2771 c-24 -26 -17 -70 16 -94 35 -26 73 -16 94 24 15 30 15 33
-4 58 -25 34 -80 41 -106 12z"/>
<path d="M3102 2654 c-31 -22 -29 -67 4 -93 38 -30 70 -27 89 8 19 38 6 77
-30 91 -34 13 -37 13 -63 -6z"/>
<path d="M2996 1774 c-23 -23 -20 -61 7 -79 33 -21 85 -3 94 33 12 48 -65 83
-101 46z"/>
<path d="M5275 3996 c-186 -59 -302 -234 -265 -399 36 -163 154 -267 301 -267
80 0 181 29 250 72 176 108 200 360 49 508 -72 70 -140 100 -225 99 -39 0 -88
-6 -110 -13z m113 -292 c29 -8 28 -32 -2 -46 -33 -15 -56 -4 -56 27 0 26 13
31 58 19z"/>
<path d="M5343 1105 c-26 -18 -63 -112 -63 -161 0 -42 23 -89 49 -104 29 -15
93 -12 119 6 39 27 56 73 56 152 1 69 -1 75 -27 98 -33 28 -100 33 -134 9z"/>
</g>
</svg>
