<?xml version="1.0" standalone="no"?>
<!DOCTYPE svg PUBLIC "-//W3C//DTD SVG 20010904//EN"
 "http://www.w3.org/TR/2001/REC-SVG-20010904/DTD/svg10.dtd">
<svg version="1.0" xmlns="http://www.w3.org/2000/svg"
 width="600.000000pt" height="600.000000pt" viewBox="0 0 600.000000 600.000000"
 preserveAspectRatio="xMidYMid meet">
<metadata>
Created by potrace 1.15, written by Peter Selinger 2001-2017
</metadata>
<g transform="translate(0.000000,600.000000) scale(0.100000,-0.100000)"
fill="#16364b" stroke="none">
<path d="M2810 5569 c-42 -17 -71 -51 -102 -119 -114 -252 -83 -446 84 -521
49 -22 65 -24 220 -23 92 0 166 -1 165 -2 -103 -80 -371 -325 -509 -467 -92
-93 -107 -124 -93 -186 9 -42 76 -143 109 -164 37 -25 193 -53 361 -67 211
-16 321 -30 416 -50 121 -27 182 -6 213 71 20 49 9 102 -30 149 -33 38 -89 55
-259 75 -273 33 -380 48 -389 56 -11 10 242 259 374 366 194 159 232 204 246
291 19 123 -84 211 -273 233 -48 5 -97 8 -108 5 -30 -8 -285 -10 -292 -2 -3 3
10 43 30 88 22 49 37 99 37 121 0 66 -43 124 -109 146 -40 13 -57 13 -91 0z"/>
<path d="M1575 5261 c-114 -42 -280 -161 -376 -272 -124 -142 -259 -392 -259
-480 0 -88 58 -159 137 -166 26 -3 130 7 229 22 100 14 200 25 222 23 l41 -3
-51 -155 c-62 -192 -68 -242 -39 -302 11 -25 21 -47 21 -50 0 -4 -17 -12 -37
-19 -79 -25 -113 -69 -113 -145 0 -68 39 -124 104 -149 53 -21 94 -14 246 42
109 41 360 163 408 199 122 94 56 274 -100 274 -37 0 -69 -11 -139 -46 -50
-25 -92 -44 -94 -42 -1 1 20 73 48 158 65 203 73 297 32 383 -32 69 -94 120
-174 144 -44 12 -79 14 -163 9 -59 -3 -114 -9 -123 -12 -28 -11 -15 14 48 93
80 98 166 177 227 208 109 55 145 158 85 248 -16 25 -80 57 -113 57 -9 -1 -39
-9 -67 -19z"/>
<path d="M4385 4595 c-44 -13 -147 -48 -230 -79 -177 -65 -195 -80 -195 -160
0 -68 38 -125 99 -150 59 -23 72 -21 175 25 108 49 217 91 222 86 15 -15 -142
-357 -237 -513 -42 -70 -49 -89 -49 -134 0 -49 3 -54 53 -104 29 -29 65 -61
79 -70 26 -17 169 -45 338 -65 52 -7 119 -17 148 -22 53 -11 53 -11 46 -42
-10 -47 -76 -193 -160 -355 -63 -123 -74 -150 -74 -194 0 -45 4 -54 40 -90 39
-40 41 -40 100 -36 77 5 106 32 165 148 24 47 74 142 113 212 143 263 161 413
63 537 -64 81 -195 124 -416 137 -66 3 -123 8 -127 11 -4 2 26 70 66 151 166
329 199 485 130 611 -62 115 -179 147 -349 96z"/>
<path d="M3747 3670 c-93 -24 -166 -81 -206 -162 -17 -34 -31 -72 -31 -85 0
-38 25 -87 59 -116 69 -58 155 -41 206 39 35 55 65 60 65 11 0 -41 -23 -119
-62 -214 l-29 -72 -82 -40 c-87 -42 -170 -106 -207 -158 -65 -95 -9 -227 107
-249 49 -9 89 4 144 48 62 49 147 90 255 122 172 51 224 101 224 212 0 50 -29
115 -61 137 l-21 15 22 88 c49 193 -7 344 -149 407 -52 23 -173 32 -234 17z"/>
<path d="M2455 3556 c-78 -18 -189 -67 -295 -131 -127 -76 -158 -148 -107
-245 47 -89 138 -104 246 -42 175 100 351 151 368 106 13 -35 -45 -219 -128
-405 -43 -96 -47 -129 -23 -190 36 -88 141 -126 215 -76 70 46 213 389 240
576 28 200 -24 324 -165 387 -53 24 -75 28 -176 31 -72 1 -138 -3 -175 -11z"/>
<path d="M1189 3259 c-64 -10 -126 -39 -214 -99 -88 -61 -116 -109 -116 -192
0 -63 10 -93 46 -136 38 -46 88 -65 153 -59 48 5 52 4 52 -16 0 -33 -37 -338
-54 -452 -18 -114 -21 -317 -6 -396 16 -84 47 -137 99 -171 42 -27 51 -29 110
-24 125 11 118 3 320 344 128 219 199 320 290 419 l54 58 14 -45 c10 -33 13
-77 9 -165 -7 -156 -49 -520 -77 -662 -26 -133 -21 -173 25 -219 56 -56 155
-66 206 -19 16 15 18 11 29 -62 42 -264 107 -535 155 -639 50 -110 149 -211
251 -258 123 -57 330 -14 446 94 13 12 44 34 69 49 37 23 54 44 99 127 83 152
178 300 230 356 65 71 83 69 217 -22 166 -112 199 -125 324 -125 100 0 108 2
167 34 70 37 159 125 169 165 3 15 30 51 58 79 39 39 55 64 64 99 17 68 15 93
-18 224 -16 66 -30 144 -30 175 0 55 1 57 31 63 17 3 91 6 163 6 158 0 227 10
306 46 73 33 151 112 188 191 25 54 26 68 27 198 0 153 -6 174 -64 232 -65 65
-168 84 -259 48 -80 -33 -142 -126 -142 -216 l0 -36 -152 -6 c-171 -7 -249
-22 -339 -67 -83 -43 -143 -101 -180 -176 -73 -147 -78 -340 -15 -579 8 -33
14 -60 13 -62 -2 -1 -34 18 -72 44 -281 189 -534 178 -746 -31 -81 -80 -145
-179 -234 -360 -71 -146 -75 -152 -119 -174 l-46 -22 -25 38 c-50 76 -103 237
-134 412 -38 209 -41 219 -74 257 -69 78 -173 84 -266 15 l-34 -25 5 29 c88
516 113 715 113 879 0 141 -2 156 -32 250 -37 116 -77 170 -148 204 -84 39
-186 19 -300 -59 -77 -53 -216 -192 -276 -276 -36 -50 -55 -70 -57 -59 -2 9 6
100 18 202 37 308 20 424 -74 511 -60 55 -132 75 -217 61z"/>
<path d="M3115 2644 c-11 -2 -45 -9 -75 -15 -91 -18 -432 -129 -477 -155 -88
-51 -120 -193 -63 -277 58 -84 122 -93 291 -38 162 51 315 91 352 91 27 0 29
-2 22 -27 -3 -16 -22 -68 -42 -118 -25 -62 -36 -105 -35 -137 2 -111 91 -198
202 -198 94 0 137 40 188 178 76 202 102 352 77 447 -27 104 -79 166 -181 216
-50 25 -76 31 -150 34 -49 2 -98 2 -109 -1z"/>
</g>
</svg>
