<?xml version="1.0" standalone="no"?>
<!DOCTYPE svg PUBLIC "-//W3C//DTD SVG 20010904//EN"
 "http://www.w3.org/TR/2001/REC-SVG-20010904/DTD/svg10.dtd">
<svg version="1.0" xmlns="http://www.w3.org/2000/svg"
 width="600.000000pt" height="600.000000pt" viewBox="0 0 600.000000 600.000000"
 preserveAspectRatio="xMidYMid meet">
<metadata>
Created by potrace 1.15, written by Peter Selinger 2001-2017
</metadata>
<g transform="translate(0.000000,600.000000) scale(0.100000,-0.100000)"
fill="#16364b" stroke="none">
<path d="M1895 5820 c-51 -16 -75 -48 -143 -189 -35 -75 -93 -196 -128 -269
-35 -74 -73 -160 -84 -193 -27 -80 -26 -164 3 -219 89 -168 352 -66 745 288
105 95 122 121 122 189 0 63 -28 109 -83 133 -84 39 -127 25 -246 -76 -41 -35
-76 -62 -79 -59 -2 2 19 54 48 115 44 92 52 118 47 150 -12 94 -111 157 -202
130z"/>
<path d="M3040 5708 c-96 -26 -131 -148 -64 -227 13 -16 59 -50 102 -74 178
-104 289 -196 375 -312 107 -143 148 -265 102 -299 -11 -8 -40 -18 -65 -21
-67 -9 -97 -24 -130 -62 -58 -65 -36 -175 43 -218 27 -14 50 -17 119 -13 144
7 253 78 314 204 23 48 29 76 32 146 5 107 -14 169 -93 312 -132 239 -268 367
-545 513 -105 56 -138 65 -190 51z"/>
<path d="M954 5405 c-141 -31 -281 -137 -350 -267 -39 -72 -39 -74 -39 -183 0
-103 2 -114 32 -178 40 -84 143 -192 222 -232 45 -22 63 -26 99 -21 58 8 100
39 124 93 34 76 17 114 -95 206 -61 50 -75 93 -52 153 22 57 68 89 155 105 79
15 110 29 143 68 52 63 40 160 -29 222 -54 49 -105 57 -210 34z"/>
<path d="M2890 5111 c-121 -37 -209 -158 -218 -299 -7 -116 39 -202 134 -247
51 -24 160 -31 246 -15 108 19 168 83 154 167 -3 21 -10 76 -16 122 -16 137
-67 222 -155 262 -41 19 -101 23 -145 10z"/>
<path d="M4774 4886 c-17 -7 -45 -31 -63 -52 l-33 -39 5 -125 c11 -256 90
-431 235 -517 58 -34 163 -43 226 -19 58 22 113 77 143 143 22 47 24 65 21
141 -7 183 -104 306 -335 425 -102 52 -154 64 -199 43z"/>
<path d="M1959 4766 c-165 -48 -240 -148 -188 -253 46 -91 125 -115 224 -68
31 14 63 24 70 21 7 -2 18 -28 25 -58 7 -29 21 -66 31 -83 56 -94 209 -91 260
5 60 111 -41 353 -175 422 -51 27 -179 34 -247 14z"/>
<path d="M2995 4007 c-224 -25 -351 -199 -266 -366 45 -87 187 -176 322 -201
70 -13 274 -13 324 1 22 6 56 28 77 49 35 35 38 42 38 95 0 42 6 65 22 88 32
45 35 121 6 172 -59 101 -326 184 -523 162z"/>
<path d="M1100 3990 c-101 -12 -143 -26 -181 -57 -38 -33 -69 -95 -69 -143 0
-107 107 -201 211 -187 22 3 39 3 39 1 0 -2 -64 -95 -142 -206 -229 -326 -354
-546 -394 -694 -22 -82 -8 -139 49 -201 83 -91 202 -92 283 -2 52 56 794 599
819 599 17 0 -11 -146 -50 -265 -60 -179 -240 -593 -305 -701 -29 -49 -77
-121 -105 -161 -29 -40 -56 -88 -59 -107 -10 -53 9 -110 49 -145 47 -41 95
-49 154 -25 79 33 195 211 343 527 49 105 103 222 118 259 116 273 192 654
161 800 -16 76 -64 146 -121 176 -38 20 -56 23 -120 20 -106 -5 -209 -56 -407
-205 l-38 -28 19 30 c11 17 62 91 114 165 116 164 151 229 159 297 8 75 -3
115 -47 165 -59 68 -124 89 -280 93 -69 2 -159 0 -200 -5z"/>
<path d="M4215 3770 c-131 -27 -233 -98 -282 -198 -37 -76 -40 -194 -6 -258
29 -53 77 -100 138 -132 44 -24 61 -27 150 -27 91 0 106 3 165 31 78 38 166
124 209 203 50 95 84 205 77 246 -8 42 -54 98 -93 113 -75 29 -263 41 -358 22z
m46 -310 c-24 -20 -51 -27 -51 -12 0 16 25 32 50 32 l25 -1 -24 -19z"/>
<path d="M3465 3411 c-97 -24 -172 -97 -237 -229 -36 -74 -40 -90 -36 -138 4
-43 11 -61 34 -85 44 -47 77 -59 169 -65 78 -6 90 -4 139 20 93 45 136 135
136 280 -1 120 -31 176 -113 211 -39 16 -46 17 -92 6z"/>
<path d="M4980 3072 c-19 -9 -80 -62 -135 -117 -135 -134 -170 -202 -170 -326
0 -77 3 -90 28 -127 15 -23 46 -54 69 -69 36 -24 51 -28 117 -28 95 0 168 33
246 111 76 76 117 166 123 269 5 104 -9 152 -64 217 -73 87 -138 108 -214 70z"/>
<path d="M3961 2615 c-82 -26 -148 -113 -158 -209 -4 -40 3 -81 32 -184 20
-74 34 -136 32 -138 -2 -3 -28 5 -57 16 -210 83 -396 -25 -416 -241 -8 -83 10
-176 82 -419 30 -102 64 -215 75 -252 40 -138 152 -207 270 -166 136 46 208
186 165 317 -21 65 -21 64 17 44 49 -27 176 -24 248 5 76 30 141 89 170 154
20 46 24 68 23 158 -2 177 -51 386 -153 649 -47 121 -67 162 -97 192 -68 70
-156 98 -233 74z"/>
<path d="M1980 2203 c-110 -39 -274 -273 -275 -393 0 -40 7 -66 23 -94 l23
-39 -44 -46 c-139 -142 -213 -361 -205 -596 8 -205 68 -326 253 -508 217 -215
399 -296 635 -284 254 14 462 116 597 294 80 105 100 172 73 249 -9 27 -4 41
51 139 214 384 298 637 270 822 -33 224 -184 344 -395 312 -120 -18 -329 -110
-478 -211 -85 -57 -84 -57 -97 4 -18 86 -70 211 -109 263 -53 70 -124 105
-211 104 -36 0 -86 -8 -111 -16z m988 -635 c-43 -155 -153 -413 -238 -558 -22
-38 -27 -118 -10 -151 9 -16 3 -27 -34 -67 -86 -91 -214 -138 -358 -130 -66 4
-90 11 -160 46 -118 58 -198 134 -245 230 -36 73 -38 80 -38 176 1 131 27 194
117 279 34 31 64 57 68 57 3 0 12 -22 19 -49 14 -57 65 -168 89 -195 23 -24
80 -53 123 -61 76 -14 175 40 205 112 8 18 14 57 14 87 0 39 4 55 15 60 8 3
64 36 123 73 121 77 287 163 313 163 16 0 16 -5 -3 -72z"/>
</g>
</svg>
