<?xml version="1.0" standalone="no"?>
<!DOCTYPE svg PUBLIC "-//W3C//DTD SVG 20010904//EN"
 "http://www.w3.org/TR/2001/REC-SVG-20010904/DTD/svg10.dtd">
<svg version="1.0" xmlns="http://www.w3.org/2000/svg"
 width="600.000000pt" height="600.000000pt" viewBox="0 0 600.000000 600.000000"
 preserveAspectRatio="xMidYMid meet">
<metadata>
Created by potrace 1.15, written by Peter Selinger 2001-2017
</metadata>
<g transform="translate(0.000000,600.000000) scale(0.100000,-0.100000)"
fill="#16364b" stroke="none">
<path d="M2221 5438 c-66 -42 -117 -206 -97 -311 11 -60 61 -123 122 -153 55
-27 56 -27 225 -21 93 3 169 4 169 2 0 -3 -34 -66 -77 -142 -141 -255 -243
-484 -243 -547 0 -74 60 -136 131 -136 20 0 19 -3 -14 -36 -94 -95 -35 -244
96 -244 18 0 154 40 302 89 149 50 325 101 393 114 103 21 129 30 153 53 54
52 62 143 18 206 -25 34 -87 68 -126 68 -53 0 -229 -49 -378 -106 -168 -63
-314 -114 -328 -114 -6 0 -3 8 6 18 8 9 44 81 79 158 36 78 106 214 156 302
51 87 106 190 124 228 57 122 49 234 -24 301 -64 60 -202 89 -375 79 l-113 -7
10 26 c24 63 -4 145 -60 178 -40 24 -108 21 -149 -5z"/>
<path d="M3835 5145 c-69 -15 -156 -48 -201 -76 -62 -38 -82 -129 -43 -199 41
-73 114 -89 211 -46 70 31 143 43 154 25 26 -42 -9 -205 -78 -365 -25 -59 -42
-113 -41 -134 1 -73 55 -131 133 -145 57 -10 118 28 154 94 78 146 141 402
133 545 -13 237 -178 355 -422 301z"/>
<path d="M1767 4940 c-138 -25 -337 -113 -491 -218 -84 -57 -107 -86 -113
-145 -6 -51 23 -115 63 -142 12 -8 24 -29 28 -50 9 -47 59 -102 104 -115 21
-5 102 -19 181 -30 186 -27 281 -58 375 -120 60 -41 82 -50 117 -50 57 0 103
28 129 79 40 79 21 152 -56 220 -87 77 -227 132 -432 172 -35 6 -60 15 -55 20
24 23 155 61 228 66 135 9 209 71 209 175 0 57 -24 95 -76 121 -42 21 -144 29
-211 17z"/>
<path d="M4440 4264 c-262 -32 -318 -66 -308 -191 4 -46 10 -60 42 -91 l37
-37 122 5 c67 2 171 4 230 5 96 0 110 -2 123 -19 30 -41 12 -170 -51 -364 -37
-116 -42 -150 -24 -185 49 -95 167 -111 244 -34 25 26 38 55 63 147 84 306 82
481 -6 610 -43 63 -111 113 -185 135 -52 16 -221 27 -287 19z"/>
<path d="M2110 3873 c-98 -32 -257 -59 -400 -68 -84 -5 -126 -12 -158 -27 -89
-42 -126 -140 -80 -208 36 -53 78 -70 178 -70 105 0 317 25 435 51 225 51 267
78 273 182 3 52 0 67 -20 96 -28 41 -81 71 -123 70 -16 -1 -64 -12 -105 -26z"/>
<path d="M3724 3745 c-82 -18 -226 -80 -424 -182 -198 -103 -204 -107 -230
-159 -40 -81 -15 -170 57 -201 49 -20 89 -12 176 33 152 79 342 174 350 174
13 0 8 -18 -38 -124 -49 -115 -54 -150 -29 -203 39 -81 138 -115 214 -72 35
20 48 37 81 106 80 167 128 355 116 455 -11 94 -60 154 -142 177 -48 13 -54
13 -131 -4z"/>
<path d="M2156 3269 c-114 -11 -158 -28 -192 -78 -44 -65 -29 -150 38 -206 32
-27 34 -27 133 -21 55 3 147 9 204 13 l104 6 -7 -34 c-25 -130 -14 -188 47
-231 43 -31 122 -35 164 -9 45 28 60 56 84 151 35 136 14 240 -63 319 -88 90
-229 114 -512 90z"/>
<path d="M4905 3190 c-109 -52 -146 -129 -124 -262 10 -63 10 -82 0 -101 -7
-13 -60 -59 -117 -102 -185 -137 -260 -225 -321 -377 -78 -192 -65 -469 28
-597 58 -81 180 -108 285 -62 128 55 193 210 135 321 -30 58 -28 123 7 191 21
43 52 74 147 154 179 150 251 251 291 406 21 81 15 245 -10 304 -51 119 -207
180 -321 125z"/>
<path d="M4255 3169 c-11 -6 -46 -38 -78 -70 -31 -33 -89 -80 -128 -105 -128
-83 -337 -162 -471 -178 -100 -13 -168 -79 -168 -166 0 -86 67 -150 157 -150
150 0 490 120 661 234 82 54 190 155 221 206 28 46 28 123 1 167 -35 59 -140
92 -195 62z"/>
<path d="M1215 3035 c-128 -60 -144 -228 -30 -322 l36 -30 14 -159 c37 -412
51 -498 101 -652 42 -130 60 -162 114 -201 82 -59 188 -48 249 27 54 64 57
140 11 245 -33 75 -50 186 -61 407 -15 319 -44 471 -109 573 -32 50 -100 101
-160 117 -50 14 -130 12 -165 -5z"/>
<path d="M2064 2551 c-96 -23 -267 -177 -346 -312 -59 -99 -46 -180 34 -229
73 -44 148 -19 208 71 50 73 102 132 141 160 l28 20 17 -33 c9 -18 28 -42 42
-54 l25 -20 -31 -90 c-47 -135 -57 -209 -57 -414 0 -157 3 -190 17 -217 27
-48 73 -76 136 -81 67 -6 106 12 142 65 24 35 24 39 22 207 -3 180 6 250 48
370 32 94 25 163 -23 214 -17 19 -22 36 -22 80 0 106 -82 222 -180 255 -50 17
-146 21 -201 8z"/>
<path d="M3470 2224 c-137 -12 -315 -40 -470 -75 -96 -22 -197 -45 -223 -50
-56 -13 -113 -58 -133 -106 -19 -45 -17 -131 5 -178 23 -51 70 -91 122 -105
43 -12 62 -9 264 35 152 33 537 95 590 95 34 0 43 -5 62 -34 28 -44 78 -66
150 -66 71 0 125 28 165 85 83 119 13 299 -144 370 -59 27 -73 29 -203 31 -77
1 -160 0 -185 -2z"/>
<path d="M4494 1581 c-22 -10 -65 -40 -94 -66 -82 -73 -97 -77 -330 -85 -264
-10 -345 -32 -534 -144 -138 -82 -311 -224 -342 -282 -14 -25 -25 -34 -44 -34
-34 0 -71 -21 -134 -74 -72 -62 -127 -86 -203 -86 -140 0 -306 109 -450 297
-64 83 -119 117 -193 117 -114 0 -193 -113 -161 -231 20 -73 180 -286 273
-364 171 -142 370 -228 528 -229 92 0 168 22 295 86 168 86 265 156 281 206 3
11 15 18 31 18 45 0 92 31 143 95 101 126 185 188 305 222 30 8 133 18 255 23
113 4 230 13 260 20 129 29 279 126 346 223 55 80 57 148 6 225 -49 76 -150
103 -238 63z"/>
</g>
</svg>
