<?xml version="1.0" standalone="no"?>
<!DOCTYPE svg PUBLIC "-//W3C//DTD SVG 20010904//EN"
 "http://www.w3.org/TR/2001/REC-SVG-20010904/DTD/svg10.dtd">
<svg version="1.0" xmlns="http://www.w3.org/2000/svg"
 width="600.000000pt" height="600.000000pt" viewBox="0 0 600.000000 600.000000"
 preserveAspectRatio="xMidYMid meet">
<metadata>
Created by potrace 1.15, written by Peter Selinger 2001-2017
</metadata>
<g transform="translate(0.000000,600.000000) scale(0.100000,-0.100000)"
fill="#16364b" stroke="none">
<path d="M2183 5431 c-128 -44 -223 -150 -259 -291 -14 -55 -16 -111 -13 -375
5 -379 -17 -1604 -31 -1735 -5 -52 -10 -97 -10 -99 0 -5 -128 8 -250 25 -128
18 -203 36 -297 72 l-73 27 0 42 c0 23 -4 44 -9 47 -11 7 -28 -13 -33 -39 -3
-15 -10 -8 -32 33 -33 64 -52 64 -48 -2 2 -25 0 -46 -3 -46 -4 0 -20 9 -36 21
-51 36 -67 4 -22 -44 l28 -28 -40 3 c-72 6 -48 -23 65 -79 210 -103 322 -137
570 -173 80 -11 148 -22 153 -23 4 -1 9 -144 11 -317 3 -350 11 -416 81 -661
102 -359 248 -497 598 -564 22 -5 27 -10 22 -23 -15 -35 -18 -205 -5 -276 7
-39 37 -146 66 -237 30 -92 54 -175 54 -186 0 -18 -9 -21 -85 -26 -97 -7 -144
-25 -168 -66 -71 -121 90 -191 276 -121 91 35 156 108 157 178 0 12 -27 104
-60 203 -77 229 -98 348 -83 454 6 42 13 78 15 81 3 2 79 0 169 -6 90 -5 310
-10 488 -10 l323 0 -6 -82 c-8 -92 2 -169 60 -456 19 -96 33 -181 30 -189 -3
-8 -22 -13 -51 -13 -77 0 -132 -19 -165 -57 -40 -45 -41 -94 -2 -133 37 -37
88 -46 163 -30 78 17 142 58 179 116 45 72 47 112 10 266 -68 286 -83 418 -59
527 l10 49 77 7 c187 14 351 36 396 51 164 56 274 185 323 379 14 56 17 115
17 300 0 226 -1 233 -37 410 -28 139 -45 197 -75 260 -39 79 -122 197 -201
285 l-41 45 28 7 c15 3 72 14 127 23 219 38 455 137 573 241 56 50 62 58 49
73 -8 9 -17 24 -20 34 -4 11 -17 17 -35 17 -26 0 -29 3 -24 25 6 34 -23 33
-59 -1 l-28 -27 -7 27 c-4 18 -12 26 -23 24 -12 -3 -15 -14 -13 -48 2 -45 2
-45 -50 -76 -116 -69 -297 -123 -495 -149 -176 -23 -165 -26 -274 68 -208 179
-473 380 -709 538 -317 212 -390 304 -524 663 -95 252 -147 455 -171 671 -10
88 -49 203 -91 263 -87 129 -254 184 -401 133z m158 -152 c99 -21 168 -125
184 -279 24 -224 71 -418 172 -695 151 -415 225 -506 615 -751 87 -55 195
-127 240 -160 215 -159 695 -599 787 -722 29 -37 68 -99 87 -138 35 -70 37
-77 94 -414 16 -93 12 -365 -6 -439 -35 -143 -91 -224 -188 -271 -165 -81
-679 -94 -1631 -41 -127 7 -177 14 -241 35 -150 48 -250 133 -317 269 -41 82
-99 273 -118 392 -21 122 -17 696 5 890 18 161 37 975 40 1760 1 369 2 403 20
435 36 69 92 114 161 131 43 10 39 10 96 -2z"/>
<path d="M2622 2864 c-47 -32 -9 -114 53 -114 50 0 80 87 40 116 -25 18 -65
18 -93 -2z"/>
<path d="M3146 2788 c-9 -12 -16 -28 -16 -36 0 -22 48 -62 74 -62 28 0 56 33
56 66 0 51 -84 75 -114 32z"/>
<path d="M3030 1909 c-36 -5 -89 -7 -118 -3 -61 7 -82 -5 -82 -46 0 -51 34
-56 304 -48 131 4 160 7 167 20 12 21 -4 63 -28 73 -30 12 -174 14 -243 4z"/>
</g>
</svg>
