<?xml version="1.0" standalone="no"?>
<!DOCTYPE svg PUBLIC "-//W3C//DTD SVG 20010904//EN"
 "http://www.w3.org/TR/2001/REC-SVG-20010904/DTD/svg10.dtd">
<svg version="1.0" xmlns="http://www.w3.org/2000/svg"
 width="600.000000pt" height="600.000000pt" viewBox="0 0 600.000000 600.000000"
 preserveAspectRatio="xMidYMid meet">
<metadata>
Created by potrace 1.15, written by Peter Selinger 2001-2017
</metadata>
<g transform="translate(0.000000,600.000000) scale(0.100000,-0.100000)"
fill="#16364b" stroke="none">
<path d="M3082 5650 c-66 -40 -92 -132 -57 -200 21 -41 127 -129 292 -243 195
-136 256 -204 239 -270 -13 -53 -151 -160 -323 -252 l-71 -38 -27 31 c-32 38
-83 56 -139 48 -24 -4 -93 -31 -153 -61 -131 -64 -210 -131 -249 -211 -23 -47
-26 -63 -22 -119 9 -110 76 -194 186 -235 101 -38 178 -18 221 60 40 71 23
166 -34 192 -14 6 -25 15 -25 19 0 5 23 20 51 35 l51 26 30 -36 c33 -40 91
-61 141 -50 97 20 367 186 470 289 199 197 229 379 93 569 -56 78 -155 163
-513 439 -45 34 -112 37 -161 7z"/>
<path d="M1899 5470 c-40 -21 -60 -47 -78 -100 -6 -19 -70 -105 -142 -190
-154 -184 -194 -255 -194 -345 0 -97 60 -180 165 -229 40 -19 63 -21 200 -20
133 1 169 5 251 26 192 52 239 87 247 185 5 63 -10 104 -50 138 -44 37 -86 40
-180 15 -97 -26 -237 -50 -242 -41 -2 3 36 56 85 116 111 135 159 227 159 299
0 130 -112 204 -221 146z"/>
<path d="M1065 5326 c-135 -65 -246 -180 -299 -312 -48 -119 -52 -288 -10
-418 22 -68 77 -173 114 -218 78 -95 222 -82 270 25 27 59 25 96 -10 158 -74
134 -84 160 -84 239 0 129 49 202 180 270 77 39 114 84 114 136 0 61 -29 108
-87 138 -51 26 -110 20 -188 -18z"/>
<path d="M4620 4782 c-77 -42 -105 -146 -60 -220 19 -30 19 -34 4 -57 -21 -32
-20 -104 1 -149 23 -49 112 -128 181 -162 74 -36 188 -44 263 -19 119 39 206
149 205 260 0 142 -115 240 -378 324 -133 43 -172 47 -216 23z"/>
<path d="M1822 4305 c-108 -24 -191 -68 -296 -158 -98 -85 -124 -184 -65 -252
63 -71 166 -65 243 14 43 44 152 98 206 102 19 2 65 -1 102 -5 45 -6 78 -4
102 4 43 14 94 72 102 118 8 44 -20 116 -56 142 -65 47 -213 62 -338 35z"/>
<path d="M2600 3784 c-82 -10 -221 -47 -251 -67 -53 -36 -74 -72 -74 -127 0
-55 21 -91 76 -128 29 -20 42 -23 94 -19 33 3 85 13 115 22 30 9 85 19 122 22
82 7 88 -1 62 -84 -45 -143 -209 -416 -340 -566 -120 -137 -124 -143 -124
-205 0 -66 25 -113 74 -136 43 -20 89 -20 132 0 41 20 206 190 278 287 92 124
232 385 276 512 75 218 -5 410 -195 469 -52 16 -185 27 -245 20z"/>
<path d="M4060 3729 c-80 -28 -149 -84 -183 -149 -26 -49 -28 -62 -25 -126 6
-86 32 -137 105 -205 68 -64 145 -93 248 -93 67 -1 90 4 138 26 74 35 148 111
187 192 36 77 38 123 6 185 -13 25 -32 63 -42 84 -23 49 -63 77 -133 93 -84
20 -234 17 -301 -7z"/>
<path d="M1122 3610 c-95 -25 -245 -104 -298 -156 -71 -71 -81 -174 -23 -253
50 -70 147 -100 225 -71 15 6 29 8 32 5 6 -5 -48 -136 -133 -324 -107 -237
-181 -505 -173 -622 7 -102 79 -167 193 -176 101 -9 127 1 200 69 62 57 105
105 374 413 63 72 149 167 193 212 l78 83 0 -39 c0 -80 -86 -468 -185 -836
-55 -207 -65 -286 -40 -338 27 -58 69 -82 140 -82 97 0 133 36 155 155 6 30
35 148 65 262 50 185 92 368 171 743 22 103 25 138 21 250 -5 142 -20 197 -71
262 -52 64 -154 91 -229 59 -55 -23 -147 -107 -322 -295 -93 -99 -170 -179
-172 -177 -2 1 26 70 62 152 101 228 126 306 132 405 7 117 -13 185 -72 244
-74 74 -180 92 -323 55z"/>
<path d="M3546 3314 c-95 -30 -182 -148 -226 -306 -25 -89 -25 -112 -1 -164
37 -82 129 -115 213 -76 23 11 77 25 118 31 177 27 283 120 283 246 0 179
-211 325 -387 269z"/>
<path d="M4752 2899 c-49 -24 -102 -85 -131 -150 -32 -70 -29 -178 8 -254 78
-164 213 -234 332 -172 64 34 94 92 93 177 -1 74 -18 115 -63 153 -30 25 -30
26 -16 61 19 46 19 80 -1 123 -38 78 -134 105 -222 62z"/>
<path d="M2875 2516 c-113 -31 -172 -52 -310 -111 -243 -104 -270 -129 -270
-255 0 -96 24 -138 103 -177 74 -36 106 -29 318 70 198 93 250 114 260 104 14
-14 -71 -238 -143 -377 -72 -140 -75 -147 -71 -202 3 -45 11 -66 34 -95 53
-65 78 -78 149 -78 55 0 70 5 107 31 134 93 329 559 329 787 0 61 -5 89 -24
131 -32 70 -83 125 -149 161 -76 42 -204 46 -333 11z"/>
<path d="M4370 2344 c-67 -29 -120 -98 -133 -174 -4 -19 -1 -72 7 -118 7 -45
10 -84 7 -86 -3 -3 -51 11 -106 29 -119 39 -241 59 -304 50 -155 -22 -269
-138 -306 -310 -32 -152 -7 -532 42 -633 82 -172 345 -173 433 -2 30 58 32 98
15 225 -31 225 -30 208 -9 202 10 -3 46 -13 79 -22 33 -9 68 -20 77 -25 67
-37 238 -29 333 14 98 44 168 128 201 241 33 108 15 371 -32 484 -20 48 -70
99 -119 122 -49 23 -136 24 -185 3z"/>
<path d="M2093 1849 c-114 -56 -142 -176 -67 -288 15 -24 40 -97 64 -187 83
-324 112 -377 304 -572 166 -169 225 -213 397 -296 251 -122 426 -127 591 -17
72 49 101 104 96 187 -5 76 -39 134 -99 165 -65 33 -113 30 -206 -14 -77 -36
-84 -38 -124 -27 -64 17 -199 88 -206 108 -3 9 -14 28 -23 42 -9 14 -25 45
-34 70 -65 167 -156 282 -244 308 l-39 12 -43 142 c-72 240 -120 327 -203 367
-55 27 -111 27 -164 0z"/>
</g>
</svg>
