<?xml version="1.0" standalone="no"?>
<!DOCTYPE svg PUBLIC "-//W3C//DTD SVG 20010904//EN"
 "http://www.w3.org/TR/2001/REC-SVG-20010904/DTD/svg10.dtd">
<svg version="1.0" xmlns="http://www.w3.org/2000/svg"
 width="600.000000pt" height="600.000000pt" viewBox="0 0 600.000000 600.000000"
 preserveAspectRatio="xMidYMid meet">
<metadata>
Created by potrace 1.15, written by Peter Selinger 2001-2017
</metadata>
<g transform="translate(0.000000,600.000000) scale(0.100000,-0.100000)"
fill="#16364b" stroke="none">
<path d="M3563 5268 c-40 -10 -67 -56 -58 -98 10 -43 76 -141 118 -173 77 -58
137 -70 181 -36 46 36 27 113 -53 212 -69 85 -123 112 -188 95z m129 -175 c16
-24 25 -43 21 -43 -21 0 -103 101 -103 126 0 13 51 -39 82 -83z"/>
<path d="M2989 5057 c-55 -29 -103 -98 -120 -172 -10 -47 -10 -60 5 -100 52
-136 239 -73 302 102 50 141 -57 238 -187 170z m104 -72 c18 -17 8 -70 -21
-113 -24 -37 -94 -84 -105 -73 -18 18 -8 82 17 126 19 32 68 72 93 75 1 0 8
-7 16 -15z"/>
<path d="M4794 4738 c-12 -5 -26 -20 -32 -33 -14 -30 -27 -408 -17 -508 9 -97
31 -129 88 -129 48 0 85 24 104 70 29 66 14 361 -27 537 -15 64 -62 90 -116
63z"/>
<path d="M2639 4201 c-38 -39 -40 -96 -4 -139 49 -59 247 -132 357 -132 89 0
147 54 134 125 -8 42 -16 48 -106 80 -305 109 -333 114 -381 66z"/>
<path d="M1534 4146 c-92 -41 -154 -137 -154 -239 0 -86 33 -150 127 -243 117
-116 138 -180 233 -729 11 -60 29 -204 40 -320 11 -115 22 -221 25 -235 3 -14
12 -110 20 -215 36 -437 82 -573 249 -741 66 -66 98 -90 176 -128 55 -27 133
-55 185 -67 50 -12 96 -23 104 -25 10 -3 12 -15 7 -47 -3 -23 -9 -87 -12 -142
-10 -159 8 -247 92 -467 10 -26 15 -50 11 -54 -4 -4 -45 -10 -92 -14 -76 -6
-89 -10 -115 -35 -53 -51 -35 -131 36 -161 79 -33 219 1 292 70 41 39 46 48
50 99 4 50 0 66 -41 154 -59 127 -77 189 -84 293 -6 94 11 248 32 276 11 15
18 16 56 6 51 -13 518 -28 753 -25 124 2 156 0 148 -10 -25 -32 -44 -121 -40
-191 5 -99 38 -152 138 -224 41 -30 77 -58 78 -63 2 -5 -22 -9 -53 -9 -92 0
-135 -33 -135 -103 0 -127 270 -129 361 -4 22 31 29 51 29 87 0 65 -37 113
-141 182 -109 72 -121 86 -127 152 -4 48 0 62 38 135 23 44 47 81 54 81 57 1
256 23 316 36 104 23 165 47 383 155 252 124 367 245 448 469 20 56 23 83 23
195 0 117 -3 137 -28 205 -95 254 -201 380 -367 431 -117 36 -295 17 -419 -46
-139 -71 -349 -90 -600 -56 -331 45 -490 113 -750 320 -194 155 -295 275 -425
506 -138 244 -265 398 -449 540 -43 33 -107 84 -144 113 -96 75 -144 96 -227
99 -44 2 -81 -2 -101 -11z m140 -190 c18 -8 59 -37 90 -65 31 -28 60 -51 65
-51 17 0 166 -127 232 -197 85 -90 136 -163 248 -351 140 -238 242 -357 441
-518 283 -228 467 -320 715 -358 55 -8 135 -21 177 -27 49 -7 143 -10 255 -6
199 6 273 21 403 81 233 107 398 50 510 -177 107 -217 72 -415 -105 -592 -90
-90 -161 -132 -355 -208 -141 -55 -218 -73 -380 -87 -69 -6 -190 -20 -270 -32
-124 -18 -187 -21 -435 -19 -159 1 -328 6 -375 11 -47 6 -135 14 -196 19 -136
12 -298 50 -381 91 -77 38 -161 127 -202 214 -45 94 -68 207 -91 446 -11 118
-27 262 -35 320 -8 58 -19 168 -25 245 -20 261 -111 726 -171 875 -32 78 -103
184 -149 220 -45 35 -80 88 -80 119 0 27 34 61 60 61 11 0 36 -6 54 -14z"/>
<path d="M2400 2520 c-27 -27 -25 -56 5 -85 39 -40 83 -29 105 25 10 25 10 34
-4 55 -21 32 -76 35 -106 5z"/>
<path d="M2870 2173 c-21 -8 -40 -34 -40 -56 0 -25 57 -77 85 -77 48 0 75 79
38 113 -21 18 -62 28 -83 20z"/>
<path d="M5302 3990 c-197 -31 -330 -224 -278 -405 21 -71 51 -119 104 -167
83 -75 163 -96 273 -73 128 26 229 98 278 197 27 52 31 72 31 137 -1 122 -53
207 -173 277 -66 39 -139 50 -235 34z m112 -310 c12 -12 -9 -35 -41 -44 -16
-5 -25 -1 -33 14 -19 35 -5 54 32 46 18 -3 37 -11 42 -16z"/>
<path d="M4220 3747 c-94 -26 -191 -114 -238 -215 -33 -71 -37 -177 -9 -230
73 -135 243 -188 387 -120 147 68 209 204 171 376 -19 84 -44 119 -116 158
-71 38 -133 48 -195 31z m60 -292 c0 -25 -32 -51 -50 -40 -15 9 -12 19 10 43
27 29 40 28 40 -3z"/>
<path d="M490 2005 c-17 -20 -5 -62 23 -76 12 -7 39 -25 60 -41 48 -39 182
-108 207 -108 11 0 27 11 36 25 15 23 15 27 1 49 -17 25 -268 166 -297 166 -9
0 -23 -7 -30 -15z"/>
<path d="M5327 1098 c-32 -30 -57 -97 -57 -154 0 -39 5 -51 34 -80 27 -27 42
-34 74 -34 81 0 129 75 120 189 -4 44 -10 59 -32 78 -37 32 -105 32 -139 1z"/>
</g>
</svg>
