<?xml version="1.0" standalone="no"?>
<!DOCTYPE svg PUBLIC "-//W3C//DTD SVG 20010904//EN"
 "http://www.w3.org/TR/2001/REC-SVG-20010904/DTD/svg10.dtd">
<svg version="1.0" xmlns="http://www.w3.org/2000/svg"
 width="600.000000pt" height="600.000000pt" viewBox="0 0 600.000000 600.000000"
 preserveAspectRatio="xMidYMid meet">
<metadata>
Created by potrace 1.15, written by Peter Selinger 2001-2017
</metadata>
<g transform="translate(0.000000,600.000000) scale(0.100000,-0.100000)"
fill="#16364b" stroke="none">
<path d="M3025 5068 c-73 -40 -126 -131 -133 -230 -4 -61 -3 -68 21 -92 31
-31 55 -33 106 -7 82 42 150 148 151 234 0 40 -5 53 -29 78 -32 31 -78 38
-116 17z m87 -73 c16 -36 -39 -146 -95 -186 -22 -16 -45 -28 -51 -26 -6 2 -12
23 -14 46 -8 109 123 246 160 166z"/>
<path d="M4766 4707 c-17 -12 -21 -37 -32 -208 -16 -237 -17 -360 -4 -393 16
-43 98 -48 119 -8 5 10 15 141 22 290 12 268 12 273 -8 300 -23 31 -68 40 -97
19z"/>
<path d="M1741 4536 c-94 -34 -164 -138 -165 -244 0 -55 6 -73 47 -152 25 -49
53 -116 62 -149 31 -121 105 -499 120 -616 15 -123 30 -462 45 -1035 8 -332
14 -386 61 -575 62 -243 165 -385 344 -470 58 -27 181 -61 256 -70 l45 -6 -4
-143 c-5 -165 10 -257 79 -473 22 -69 38 -127 35 -130 -2 -3 -44 -8 -93 -12
-129 -11 -172 -40 -173 -118 0 -34 5 -46 30 -67 40 -33 85 -41 156 -26 88 18
150 48 189 92 67 73 70 119 20 267 -59 175 -85 313 -84 437 1 60 4 123 8 139
8 35 -13 34 241 10 171 -16 351 -16 637 1 l102 6 -6 -108 c-8 -172 24 -376 89
-552 16 -46 27 -86 24 -90 -3 -3 -46 -9 -94 -12 -100 -8 -132 -20 -155 -60
-24 -40 -21 -74 9 -109 67 -80 261 -58 349 41 66 72 71 128 25 264 -60 175
-91 350 -89 498 2 132 -1 128 114 148 161 27 464 108 540 143 132 60 230 160
305 307 54 108 74 206 67 327 -14 234 -109 430 -244 503 -59 32 -199 75 -393
122 -202 49 -278 74 -490 160 -237 97 -563 260 -693 347 -57 37 -134 99 -173
141 -80 82 -223 295 -385 571 -57 99 -146 234 -196 300 -51 67 -125 164 -163
215 -76 99 -139 152 -209 177 -52 18 -142 18 -190 1z m157 -155 c46 -24 79
-59 126 -133 20 -32 40 -58 45 -58 12 0 174 -219 219 -297 311 -536 437 -714
585 -826 155 -118 448 -272 763 -403 233 -97 328 -130 534 -184 389 -103 424
-118 480 -207 68 -107 91 -322 49 -459 -39 -126 -122 -234 -229 -297 -25 -14
-101 -41 -170 -60 -268 -75 -383 -93 -709 -112 -305 -17 -487 -19 -621 -5 -52
6 -177 17 -277 25 -207 16 -289 32 -371 74 -149 75 -228 199 -282 441 -32 144
-42 265 -45 540 -5 368 -22 865 -35 985 -20 188 -94 557 -138 685 -11 31 -33
82 -51 114 -41 78 -42 127 -2 167 35 35 75 38 129 10z"/>
<path d="M2502 2614 c-33 -23 -29 -67 7 -93 36 -26 56 -26 81 -1 60 60 -18
143 -88 94z"/>
<path d="M2967 2372 c-24 -27 -21 -55 9 -86 38 -37 69 -34 93 11 16 31 14 50
-9 73 -25 25 -72 26 -93 2z"/>
<path d="M5195 3973 c-68 -24 -137 -93 -160 -162 -12 -38 -16 -75 -14 -135 4
-71 9 -92 42 -159 75 -152 211 -216 362 -172 159 46 275 180 275 321 0 112
-65 200 -204 278 -64 36 -77 39 -160 43 -67 2 -104 -1 -141 -14z m181 -293
c26 -10 26 -11 9 -30 -30 -33 -75 -20 -75 22 0 21 24 23 66 8z"/>
<path d="M4235 3756 c-66 -16 -89 -29 -148 -85 -99 -91 -134 -228 -86 -328 59
-122 205 -180 349 -137 73 22 159 107 185 183 23 70 17 176 -14 248 -43 98
-165 149 -286 119z m51 -261 c8 -20 -13 -45 -37 -45 -23 0 -24 9 -3 38 18 26
32 28 40 7z"/>
<path d="M5322 1087 c-33 -35 -52 -91 -52 -153 0 -50 3 -59 34 -90 39 -39 75
-44 122 -15 37 22 60 68 69 138 8 60 -7 118 -35 133 -10 6 -41 10 -68 10 -37
0 -53 -5 -70 -23z"/>
</g>
</svg>
