<?xml version="1.0" standalone="no"?>
<!DOCTYPE svg PUBLIC "-//W3C//DTD SVG 20010904//EN"
 "http://www.w3.org/TR/2001/REC-SVG-20010904/DTD/svg10.dtd">
<svg version="1.0" xmlns="http://www.w3.org/2000/svg"
 width="600.000000pt" height="600.000000pt" viewBox="0 0 600.000000 600.000000"
 preserveAspectRatio="xMidYMid meet">
<metadata>
Created by potrace 1.15, written by Peter Selinger 2001-2017
</metadata>
<g transform="translate(0.000000,600.000000) scale(0.100000,-0.100000)"
fill="#16364b" stroke="none">
<path d="M1944 5811 c-38 -23 -66 -60 -129 -171 -27 -47 -104 -170 -172 -274
-144 -219 -161 -251 -169 -309 -15 -109 92 -200 213 -182 59 9 112 33 277 129
77 46 193 111 256 145 202 108 242 149 242 241 0 107 -92 187 -191 165 -16 -3
-75 -38 -131 -76 -56 -39 -104 -69 -106 -67 -1 2 26 53 62 113 52 89 64 117
64 153 0 52 -19 91 -60 126 -39 33 -109 36 -156 7z"/>
<path d="M3004 5676 c-38 -17 -70 -57 -79 -97 -5 -22 0 -43 17 -76 21 -42 33
-51 143 -107 164 -84 199 -108 281 -190 76 -77 120 -146 153 -244 25 -73 27
-129 6 -159 -16 -23 -76 -48 -137 -58 -24 -4 -46 -17 -67 -40 -57 -66 -51
-157 16 -215 35 -31 39 -32 109 -28 83 6 194 52 259 109 55 49 110 138 130
213 52 193 -28 406 -230 612 -115 116 -208 175 -408 258 -93 38 -142 44 -193
22z"/>
<path d="M962 5395 c-147 -33 -264 -123 -323 -248 -53 -114 -62 -265 -23 -382
35 -105 136 -228 227 -277 98 -54 211 25 211 147 0 59 -25 106 -78 145 -55 41
-80 85 -80 144 0 90 44 135 164 170 86 24 130 81 130 167 0 76 -51 134 -126
143 -21 3 -67 -1 -102 -9z"/>
<path d="M2866 5080 c-71 -22 -152 -104 -201 -204 -77 -158 -38 -296 105 -375
63 -35 68 -36 170 -36 86 0 112 4 144 21 54 28 78 63 84 123 4 41 0 58 -21 93
-23 40 -24 48 -14 86 25 95 -39 239 -125 281 -46 22 -93 25 -142 11z"/>
<path d="M4782 4890 c-41 -17 -90 -60 -106 -95 -11 -21 -16 -61 -16 -113 0
-237 101 -445 255 -525 63 -32 177 -35 243 -7 193 83 198 350 9 556 -126 138
-297 219 -385 184z"/>
<path d="M1942 4724 c-137 -36 -232 -125 -232 -217 0 -49 39 -117 80 -138 51
-28 119 -25 165 7 79 53 99 49 124 -26 18 -53 38 -78 81 -100 79 -40 162 -13
200 65 26 54 23 102 -11 180 -52 118 -143 201 -255 230 -70 18 -83 18 -152 -1z"/>
<path d="M2935 3977 c-70 -24 -120 -54 -159 -97 -57 -63 -76 -112 -76 -201 0
-167 105 -281 312 -339 40 -11 111 -23 158 -26 78 -6 87 -5 114 17 80 63 71
206 -17 273 -28 21 -52 29 -121 36 -85 10 -136 26 -136 42 0 15 97 8 155 -12
100 -34 184 -19 215 41 59 109 9 206 -125 249 -87 28 -260 37 -320 17z"/>
<path d="M1165 3944 c-11 -2 -57 -11 -103 -20 -105 -21 -161 -55 -192 -119
-61 -126 44 -263 195 -253 30 1 55 0 55 -3 0 -3 -34 -48 -76 -100 -111 -139
-198 -275 -274 -428 -100 -200 -182 -399 -188 -453 -6 -66 26 -130 83 -164 96
-56 164 -42 267 52 39 36 170 141 292 234 122 92 273 212 336 265 165 138 154
137 148 19 -7 -126 -35 -213 -145 -454 -127 -276 -207 -432 -275 -533 -75
-112 -91 -151 -77 -200 20 -72 114 -128 189 -113 55 11 79 37 173 194 107 178
153 267 297 576 159 344 188 453 170 646 -15 152 -43 234 -104 298 -63 68
-151 89 -238 58 -41 -15 -135 -80 -248 -171 -41 -34 -81 -65 -89 -70 -18 -11
-14 -3 70 115 125 177 169 274 171 380 2 101 -49 182 -141 223 -37 17 -69 22
-161 23 -63 2 -124 1 -135 -2z"/>
<path d="M4255 3796 c-156 -31 -247 -84 -299 -176 -28 -50 -31 -62 -31 -145 1
-77 5 -97 27 -141 38 -72 117 -140 186 -160 75 -22 183 -15 248 16 69 33 162
131 206 215 50 96 88 204 88 250 0 54 -34 104 -89 128 -59 26 -235 33 -336 13z
m45 -295 c0 -13 -41 -41 -58 -41 -20 0 -9 23 19 37 29 15 39 16 39 4z"/>
<path d="M3419 3367 c-55 -29 -112 -110 -163 -232 -49 -117 -47 -168 8 -223
l36 -37 103 0 c89 0 108 3 150 25 91 46 155 141 164 242 17 177 -150 303 -298
225z"/>
<path d="M4985 3029 c-75 -21 -273 -228 -323 -337 -29 -65 -39 -155 -22 -207
17 -52 73 -111 125 -131 100 -38 259 4 357 95 108 99 150 264 106 414 -15 48
-101 141 -150 162 -41 17 -50 17 -93 4z"/>
<path d="M3989 2577 c-60 -23 -96 -54 -123 -109 -35 -70 -33 -108 14 -256 22
-69 39 -127 37 -128 -2 -2 -37 8 -77 22 -59 21 -87 25 -132 21 -106 -9 -200
-82 -248 -190 -60 -136 -43 -297 71 -659 56 -177 99 -230 212 -258 135 -34
278 82 280 228 0 33 -9 86 -21 126 -12 37 -22 70 -22 72 0 2 20 -10 44 -26 61
-42 130 -56 192 -41 127 32 206 96 245 200 18 49 20 71 16 166 -4 107 -8 119
-106 418 -55 170 -110 322 -121 338 -50 69 -178 107 -261 76z"/>
<path d="M2050 2191 c-58 -12 -104 -39 -158 -93 -68 -68 -151 -189 -168 -245
-24 -79 5 -153 79 -202 l36 -24 -37 -27 c-187 -136 -286 -481 -206 -724 73
-224 273 -455 476 -551 117 -55 215 -78 348 -78 132 -1 201 12 318 59 155 62
340 208 377 298 29 68 15 139 -39 203 l-27 32 36 47 c129 169 307 674 308 874
1 154 -53 250 -175 306 -59 27 -71 29 -183 29 -105 -1 -130 -4 -200 -28 -97
-34 -262 -112 -366 -173 -42 -24 -80 -44 -85 -44 -5 0 -17 35 -27 78 -20 91
-48 152 -89 193 -58 58 -144 85 -218 70z m940 -509 c0 -71 -103 -336 -192
-495 -33 -59 -62 -125 -65 -146 -7 -53 13 -107 57 -155 l38 -41 -51 -57 c-69
-75 -127 -114 -205 -138 -116 -36 -245 -21 -348 41 -94 56 -186 149 -225 225
-31 63 -34 75 -34 158 0 74 4 99 22 131 28 53 53 75 94 81 33 6 35 5 67 -60
40 -82 102 -151 149 -167 94 -31 193 13 238 106 37 74 31 118 -25 198 -23 32
-40 60 -38 61 18 14 229 143 282 172 68 37 214 104 229 104 4 0 7 -8 7 -18z"/>
</g>
</svg>
