<?xml version="1.0" standalone="no"?>
<!DOCTYPE svg PUBLIC "-//W3C//DTD SVG 20010904//EN"
 "http://www.w3.org/TR/2001/REC-SVG-20010904/DTD/svg10.dtd">
<svg version="1.0" xmlns="http://www.w3.org/2000/svg"
 width="600.000000pt" height="600.000000pt" viewBox="0 0 600.000000 600.000000"
 preserveAspectRatio="xMidYMid meet">
<metadata>
Created by potrace 1.15, written by Peter Selinger 2001-2017
</metadata>
<g transform="translate(0.000000,600.000000) scale(0.100000,-0.100000)"
fill="#16364b" stroke="none">
<path d="M3240 5479 c-63 -26 -100 -85 -100 -157 0 -75 29 -110 119 -146 68
-27 75 -33 94 -75 16 -37 19 -58 14 -120 -4 -42 -16 -103 -27 -136 -34 -95
-16 -163 53 -205 41 -26 101 -25 142 0 39 24 64 75 101 200 60 209 21 406
-107 545 -71 77 -217 125 -289 94z"/>
<path d="M2063 5414 c-62 -31 -92 -90 -92 -184 -1 -142 99 -234 285 -261 44
-6 83 -15 87 -19 5 -4 1 -79 -8 -166 -23 -224 -23 -275 -2 -308 27 -40 76 -66
126 -66 88 0 142 64 156 185 3 33 16 112 27 175 34 194 16 290 -72 377 -46 47
-131 90 -191 98 -116 16 -109 12 -109 53 0 101 -111 163 -207 116z"/>
<path d="M1619 4810 c-101 -9 -232 -37 -271 -56 -35 -18 -76 -72 -84 -111 -9
-46 12 -97 56 -137 49 -44 88 -51 173 -32 165 38 332 39 442 1 61 -20 90 -19
141 6 101 49 113 168 24 243 -38 31 -165 73 -251 81 -128 12 -145 12 -230 5z"/>
<path d="M4278 4539 c-80 -42 -95 -143 -32 -218 15 -19 55 -42 106 -63 150
-61 185 -121 194 -328 5 -125 13 -148 67 -180 67 -42 157 -15 201 59 16 29 19
53 20 175 1 160 -11 216 -69 315 -57 97 -188 195 -319 241 -73 25 -120 25
-168 -1z"/>
<path d="M3224 4450 c-12 -5 -75 -44 -140 -88 -66 -44 -213 -138 -329 -210
-226 -140 -245 -159 -245 -237 0 -79 67 -145 148 -145 53 0 72 10 252 130 80
53 213 138 295 189 169 104 200 130 216 178 36 112 -88 227 -197 183z"/>
<path d="M1619 4430 c-77 -23 -114 -81 -107 -167 5 -59 28 -98 74 -125 43 -25
462 -89 599 -91 101 -2 113 0 143 21 88 63 85 197 -5 258 -25 16 -54 22 -135
27 -56 4 -155 16 -218 26 -145 25 -290 51 -310 55 -8 2 -27 1 -41 -4z"/>
<path d="M3750 3856 c-25 -6 -121 -52 -215 -101 -153 -80 -399 -203 -498 -250
-67 -32 -108 -129 -84 -200 20 -57 68 -88 127 -82 51 5 340 141 534 251 117
67 120 68 157 56 101 -34 198 33 207 143 11 130 -99 218 -228 183z"/>
<path d="M2279 3835 c-3 -2 -74 -19 -159 -36 -125 -26 -189 -33 -333 -38
l-179 -6 -33 -37 c-53 -57 -58 -135 -15 -206 35 -57 71 -65 260 -59 167 4 314
25 494 69 67 17 96 29 121 53 79 74 59 202 -39 249 -31 15 -106 22 -117 11z"/>
<path d="M5025 3541 c-57 -14 -115 -52 -145 -92 -42 -58 -53 -101 -46 -173 20
-200 20 -211 -6 -268 -14 -30 -56 -96 -95 -148 -95 -129 -125 -182 -242 -420
-120 -243 -129 -279 -87 -364 74 -152 289 -195 388 -78 14 17 38 64 53 104 52
139 155 323 257 459 164 218 207 325 215 534 9 229 -31 358 -127 416 -49 29
-117 42 -165 30z"/>
<path d="M1964 3162 c-102 -74 -97 -230 9 -281 42 -20 169 -42 330 -57 74 -6
81 -9 110 -42 76 -83 191 -84 261 -2 21 26 26 42 26 86 0 67 -24 117 -81 168
-74 68 -121 83 -404 132 -176 30 -204 30 -251 -4z"/>
<path d="M4345 3135 c-16 -7 -52 -35 -80 -60 -175 -163 -536 -323 -791 -351
-115 -12 -184 -74 -184 -165 0 -42 5 -55 36 -88 47 -53 88 -65 188 -58 240 17
586 141 771 277 90 65 212 176 246 223 91 125 -46 288 -186 222z"/>
<path d="M1332 2949 c-50 -25 -78 -57 -93 -109 -16 -51 26 -335 92 -625 84
-371 110 -454 172 -548 108 -161 348 -79 348 120 0 45 -6 65 -36 116 -73 122
-128 341 -165 657 -34 289 -42 322 -86 361 -60 53 -158 65 -232 28z"/>
<path d="M2200 2389 c-72 -12 -196 -54 -238 -79 -34 -21 -72 -87 -72 -125 0
-38 38 -104 72 -125 45 -28 106 -25 181 6 34 15 81 27 104 27 37 0 48 -5 80
-40 78 -84 193 -79 265 12 36 46 33 128 -7 185 -78 113 -227 167 -385 139z"/>
<path d="M4020 2104 c-14 -3 -131 -27 -260 -54 -281 -59 -395 -79 -681 -124
-230 -37 -282 -53 -317 -103 -64 -93 -50 -205 34 -269 34 -27 44 -29 118 -29
79 1 572 74 772 115 54 11 167 38 250 60 83 22 174 40 203 40 151 0 245 153
167 270 -44 67 -94 93 -184 96 -42 1 -88 0 -102 -2z"/>
<path d="M2170 1748 c-34 -17 -51 -35 -69 -71 -21 -42 -22 -53 -13 -105 24
-133 77 -229 196 -350 95 -97 205 -173 261 -179 116 -14 201 114 148 224 -10
23 -39 50 -83 78 -123 82 -186 160 -214 270 -34 131 -125 185 -226 133z"/>
<path d="M4725 1651 c-16 -10 -39 -28 -50 -41 -36 -41 -129 -107 -200 -142
-94 -47 -215 -88 -456 -153 -268 -74 -486 -160 -560 -222 -62 -53 -86 -144
-55 -216 29 -71 129 -127 199 -111 18 3 75 28 127 54 111 56 217 90 390 124
303 60 503 144 671 282 152 124 208 210 195 299 -8 53 -53 111 -103 131 -47
20 -122 17 -158 -5z"/>
<path d="M2055 1033 c-46 -24 -66 -45 -86 -88 -25 -54 -24 -128 1 -181 32 -66
207 -202 355 -276 275 -138 651 -145 941 -16 45 19 99 74 115 115 34 91 -21
198 -120 231 -55 19 -99 14 -211 -25 -93 -32 -119 -37 -225 -41 -206 -7 -315
34 -495 184 -55 46 -113 90 -129 99 -38 19 -108 19 -146 -2z"/>
</g>
</svg>
