<?xml version="1.0" standalone="no"?>
<!DOCTYPE svg PUBLIC "-//W3C//DTD SVG 20010904//EN"
 "http://www.w3.org/TR/2001/REC-SVG-20010904/DTD/svg10.dtd">
<svg version="1.0" xmlns="http://www.w3.org/2000/svg"
 width="600.000000pt" height="600.000000pt" viewBox="0 0 600.000000 600.000000"
 preserveAspectRatio="xMidYMid meet">
<metadata>
Created by potrace 1.15, written by Peter Selinger 2001-2017
</metadata>
<g transform="translate(0.000000,600.000000) scale(0.100000,-0.100000)"
fill="#16364b" stroke="none">
<path d="M2823 5562 c-18 -10 -39 -26 -47 -37 -62 -91 -116 -237 -116 -314 0
-104 68 -219 152 -258 65 -30 112 -34 233 -18 61 8 114 15 119 15 6 0 -37 -48
-95 -107 -255 -262 -455 -494 -471 -545 -16 -54 2 -105 60 -166 55 -59 56 -59
357 -97 199 -26 356 -54 444 -81 64 -19 100 -17 146 9 56 32 84 98 66 158 -20
66 -55 93 -167 128 -102 32 -345 85 -447 97 -32 3 -57 10 -55 15 2 4 28 38 58
74 64 78 146 151 288 260 57 43 126 98 153 123 177 159 99 362 -159 413 -43 8
-114 10 -218 6 -130 -4 -154 -3 -154 9 0 8 16 46 35 84 56 112 40 190 -48 230
-52 24 -92 24 -134 2z"/>
<path d="M1615 5270 c-130 -28 -325 -179 -455 -352 -106 -141 -209 -353 -210
-433 0 -54 29 -105 76 -132 48 -28 70 -28 209 -2 61 11 161 23 223 26 100 5
112 4 112 -11 0 -9 -22 -86 -50 -171 -53 -165 -63 -244 -35 -281 21 -28 20
-30 -30 -48 -48 -19 -101 -72 -111 -112 -9 -33 1 -90 21 -120 20 -32 71 -57
115 -57 46 0 372 123 514 193 118 59 149 89 162 156 8 41 -27 118 -67 147 -53
38 -95 34 -201 -23 -111 -58 -112 -57 -79 46 58 180 65 210 65 304 1 113 -21
170 -85 220 -68 55 -137 73 -276 72 -68 0 -123 4 -123 9 0 33 267 269 305 269
20 0 72 64 85 104 7 21 10 54 7 73 -7 39 -44 99 -67 109 -34 14 -77 20 -105
14z"/>
<path d="M4395 4620 c-129 -27 -354 -143 -393 -202 -65 -99 -16 -220 95 -235
35 -5 58 2 150 45 125 58 209 89 218 80 20 -19 -100 -277 -209 -451 -96 -152
-103 -175 -82 -232 11 -26 30 -54 49 -67 18 -12 38 -30 45 -40 25 -35 72 -48
279 -78 260 -39 283 -45 283 -71 0 -26 -50 -147 -139 -331 -85 -178 -94 -209
-80 -263 26 -96 127 -143 206 -96 25 16 54 65 153 263 67 134 130 266 141 293
29 79 41 178 30 241 -28 151 -138 210 -451 244 -167 18 -157 9 -108 88 130
211 211 459 194 595 -10 80 -57 153 -124 190 -44 24 -66 30 -135 33 -45 2
-100 -1 -122 -6z"/>
<path d="M3735 3661 c-127 -35 -217 -134 -217 -237 0 -82 67 -146 160 -151 69
-5 114 19 139 72 24 51 47 43 51 -18 5 -75 -58 -241 -96 -254 -9 -3 -53 -23
-97 -43 -138 -66 -245 -181 -245 -265 0 -53 34 -112 79 -134 71 -37 110 -27
204 51 76 63 135 90 273 124 159 40 214 89 214 188 0 53 -25 121 -52 144 -14
11 -14 19 -1 75 10 39 13 95 11 152 -3 76 -8 98 -33 143 -54 99 -149 152 -279
158 -45 2 -94 -1 -111 -5z"/>
<path d="M2415 3526 c-120 -31 -302 -112 -342 -151 -81 -80 -32 -231 88 -266
48 -15 67 -10 211 50 85 35 217 71 262 71 30 0 46 -29 40 -73 -14 -100 -64
-222 -146 -355 -50 -82 -59 -141 -29 -189 26 -42 73 -65 132 -65 92 0 150 59
244 247 69 138 95 244 95 382 0 111 -18 179 -64 242 -90 121 -278 162 -491
107z"/>
<path d="M1140 3254 c-98 -27 -249 -124 -277 -178 -45 -87 -34 -174 31 -241
51 -53 109 -72 179 -58 39 8 47 7 47 -5 0 -8 -16 -92 -35 -186 -51 -250 -68
-393 -69 -556 -1 -162 8 -201 57 -257 42 -48 99 -73 169 -73 87 0 140 28 171
89 147 291 322 570 432 689 l68 73 19 -53 c18 -47 19 -71 14 -213 -3 -93 -14
-208 -26 -275 -59 -325 -80 -448 -80 -478 0 -49 24 -96 65 -128 32 -24 48 -29
95 -29 46 0 64 5 92 27 l34 26 28 -156 c47 -267 108 -488 166 -602 82 -164
234 -262 379 -246 72 8 187 64 245 119 24 23 59 51 77 62 25 15 51 55 114 172
44 83 95 175 114 203 47 72 133 158 176 176 33 13 39 13 78 -4 23 -11 80 -47
127 -81 201 -146 323 -171 469 -97 57 29 139 115 147 154 3 16 26 48 50 72 30
29 49 58 59 93 20 68 19 92 -10 205 -14 53 -26 133 -27 176 l-3 79 30 9 c17 4
105 12 196 17 136 8 179 14 239 35 194 67 292 198 292 392 1 143 -45 223 -155
269 -51 21 -130 19 -176 -4 -76 -39 -141 -144 -141 -228 l0 -23 -155 0 c-327
0 -485 -75 -551 -263 -37 -106 -37 -341 0 -517 8 -36 13 -66 12 -67 -2 -2 -35
21 -74 51 -160 121 -297 157 -465 121 -188 -40 -335 -184 -529 -520 -26 -44
-56 -100 -68 -125 -14 -30 -35 -53 -60 -68 -22 -12 -41 -22 -43 -22 -25 0 -87
261 -122 510 -20 141 -30 174 -68 217 -72 82 -193 86 -284 9 -18 -15 -33 -26
-33 -23 0 2 11 59 25 127 57 279 68 389 69 655 0 222 -3 262 -23 355 -12 58
-33 124 -47 148 -67 115 -217 140 -353 59 -74 -43 -199 -168 -296 -295 -43
-56 -80 -101 -82 -99 -2 2 11 69 28 148 26 117 32 168 33 269 1 151 -14 206
-80 279 -76 85 -183 116 -294 85z"/>
<path d="M3050 2633 c-165 -27 -474 -115 -535 -153 -64 -40 -96 -144 -67 -221
27 -69 111 -128 184 -129 20 0 101 23 180 50 131 46 281 90 307 90 19 0 13
-27 -34 -151 -50 -133 -55 -181 -26 -245 25 -56 71 -87 138 -92 65 -5 128 16
167 57 30 32 89 163 131 291 23 69 28 104 29 185 1 90 -2 105 -26 150 -48 91
-111 138 -216 161 -63 13 -175 16 -232 7z"/>
</g>
</svg>
