<?xml version="1.0" standalone="no"?>
<!DOCTYPE svg PUBLIC "-//W3C//DTD SVG 20010904//EN"
 "http://www.w3.org/TR/2001/REC-SVG-20010904/DTD/svg10.dtd">
<svg version="1.0" xmlns="http://www.w3.org/2000/svg"
 width="600.000000pt" height="600.000000pt" viewBox="0 0 600.000000 600.000000"
 preserveAspectRatio="xMidYMid meet">
<metadata>
Created by potrace 1.15, written by Peter Selinger 2001-2017
</metadata>
<g transform="translate(0.000000,600.000000) scale(0.100000,-0.100000)"
fill="#16364b" stroke="none">
<path d="M1533 5777 c-28 -15 -351 -335 -365 -360 -14 -26 -12 -90 3 -114 37
-61 121 -68 255 -23 132 45 376 150 401 173 30 27 37 68 19 110 -26 63 -78 80
-163 52 -23 -7 -23 -7 -8 28 20 47 10 91 -27 122 -32 27 -79 32 -115 12z"/>
<path d="M2363 5431 c-17 -11 -36 -28 -41 -38 -6 -10 -12 -117 -14 -238 -4
-204 -7 -227 -32 -310 -15 -49 -39 -111 -54 -138 -33 -61 -113 -135 -187 -172
-78 -40 -103 -94 -73 -160 13 -29 55 -55 89 -55 12 0 57 17 98 37 177 86 306
284 355 543 21 108 22 426 2 473 -28 67 -88 92 -143 58z"/>
<path d="M3512 5317 c-33 -19 -65 -76 -65 -118 0 -51 44 -140 97 -197 56 -60
124 -95 196 -100 49 -4 60 -1 88 23 60 50 60 122 0 221 -49 82 -124 149 -188
168 -64 19 -97 20 -128 3z"/>
<path d="M3018 5146 c-21 -7 -49 -21 -62 -30 -86 -55 -165 -262 -137 -356 27
-91 92 -125 182 -96 57 19 134 66 161 100 47 57 69 249 35 313 -34 65 -111 94
-179 69z"/>
<path d="M4740 4752 c-44 -43 -56 -101 -46 -210 27 -268 111 -447 238 -502
129 -56 270 34 285 182 15 149 -113 393 -271 516 -61 47 -73 52 -118 52 -45 0
-54 -4 -88 -38z"/>
<path d="M2698 4216 c-75 -22 -137 -63 -168 -113 -52 -82 -51 -150 3 -231 59
-87 192 -135 315 -112 110 19 169 53 265 147 85 84 98 163 39 232 -57 67 -329
113 -454 77z"/>
<path d="M1104 4110 c-48 -19 -84 -99 -70 -154 11 -44 54 -84 109 -101 95 -30
137 -47 137 -55 0 -19 -75 -31 -177 -29 -90 3 -113 0 -139 -15 -69 -41 -87
-140 -36 -196 33 -38 78 -49 197 -50 150 0 266 42 353 128 169 167 67 369
-232 461 -72 22 -108 25 -142 11z"/>
<path d="M4189 3757 c-115 -39 -181 -97 -227 -196 -91 -199 69 -412 292 -386
179 20 309 164 344 382 14 86 14 97 -1 128 -20 43 -47 60 -122 79 -88 23 -206
20 -286 -7z m89 -264 c-4 -21 -54 -51 -65 -39 -8 8 41 56 58 56 6 0 9 -8 7
-17z"/>
<path d="M5246 3724 c-182 -44 -300 -175 -313 -347 -10 -133 46 -245 151 -299
59 -31 178 -30 261 2 181 71 276 310 189 477 -32 60 -118 151 -161 169 -39 17
-51 17 -127 -2z m34 -312 c0 -16 -32 -52 -46 -52 -19 0 -18 25 2 44 16 17 44
22 44 8z"/>
<path d="M1644 3710 c-12 -4 -31 -21 -44 -37 -20 -26 -22 -36 -17 -128 9 -203
93 -338 209 -338 78 0 123 59 122 163 0 36 -8 88 -18 115 -26 74 -92 167 -145
203 -47 33 -70 37 -107 22z"/>
<path d="M3454 3356 c-44 -20 -84 -73 -148 -196 -60 -115 -64 -135 -41 -179
21 -42 67 -55 125 -36 114 38 211 176 212 303 1 46 -3 58 -28 83 -35 35 -78
44 -120 25z"/>
<path d="M2315 3070 c-162 -10 -333 -47 -587 -126 -395 -122 -501 -206 -587
-462 -100 -298 -77 -501 73 -660 28 -30 96 -89 151 -130 55 -42 124 -96 153
-121 50 -44 159 -178 214 -266 83 -131 275 -254 446 -286 31 -6 108 -9 172 -6
130 5 217 29 380 102 52 23 147 57 211 73 162 44 259 83 385 155 441 254 634
456 709 743 20 79 19 215 -3 279 -57 165 -235 332 -456 428 -124 54 -361 132
-476 157 -52 11 -129 32 -170 45 -135 44 -237 65 -357 75 -65 5 -122 9 -128 8
-5 0 -64 -4 -130 -8z m245 -400 c36 -6 166 -37 290 -70 124 -33 254 -64 290
-69 74 -10 255 -73 348 -120 108 -54 182 -135 182 -198 0 -39 -49 -137 -99
-201 -71 -89 -353 -298 -510 -376 -80 -40 -241 -101 -304 -116 -26 -5 -92 -33
-147 -60 -126 -64 -235 -94 -309 -85 -117 13 -188 66 -289 219 -85 129 -207
251 -352 354 -63 44 -127 93 -142 109 -114 119 -55 348 112 433 87 44 487 159
626 179 84 12 228 13 304 1z"/>
<path d="M455 2223 c-32 -8 -64 -44 -71 -80 -7 -40 21 -122 93 -268 107 -216
227 -324 361 -325 161 0 221 158 117 314 -66 100 -214 226 -370 314 -78 44
-101 52 -130 45z"/>
<path d="M4730 1699 c-14 -6 -34 -19 -45 -29 -19 -18 -23 -18 -65 -4 -58 20
-107 7 -149 -41 -29 -33 -31 -41 -31 -108 0 -153 57 -338 121 -391 58 -49 147
-43 212 14 64 56 121 222 134 395 7 89 -9 124 -70 154 -47 23 -69 25 -107 10z"/>
</g>
</svg>
