<?xml version="1.0" standalone="no"?>
<!DOCTYPE svg PUBLIC "-//W3C//DTD SVG 20010904//EN"
 "http://www.w3.org/TR/2001/REC-SVG-20010904/DTD/svg10.dtd">
<svg version="1.0" xmlns="http://www.w3.org/2000/svg"
 width="600.000000pt" height="600.000000pt" viewBox="0 0 600.000000 600.000000"
 preserveAspectRatio="xMidYMid meet">
<metadata>
Created by potrace 1.15, written by Peter Selinger 2001-2017
</metadata>
<g transform="translate(0.000000,600.000000) scale(0.100000,-0.100000)"
fill="#16364b" stroke="none">
<path d="M1325 5669 c-115 -61 -222 -122 -237 -136 -55 -52 -43 -120 27 -149
26 -11 51 -11 121 -3 49 5 175 19 279 29 189 19 190 19 218 50 37 41 36 83 -2
121 -23 23 -38 29 -71 29 l-41 0 20 26 c30 38 28 89 -5 119 -47 43 -78 35
-309 -86z"/>
<path d="M2363 5430 c-43 -18 -50 -53 -56 -265 -6 -227 -20 -310 -73 -425 -42
-90 -95 -148 -186 -201 -74 -44 -88 -61 -88 -111 0 -62 63 -103 123 -80 58 22
140 77 196 133 148 144 207 323 218 660 6 194 0 240 -36 273 -22 20 -70 28
-98 16z"/>
<path d="M3501 5273 c-40 -48 -40 -89 -1 -171 31 -66 111 -159 167 -193 22
-14 52 -22 85 -22 45 -1 54 3 79 31 16 18 32 44 35 59 11 41 -12 111 -61 185
-66 100 -140 148 -229 148 -39 0 -48 -4 -75 -37z"/>
<path d="M2975 5119 c-137 -72 -211 -249 -157 -373 18 -39 29 -50 68 -68 42
-18 53 -19 98 -9 58 13 135 60 171 102 30 36 65 146 65 203 -1 57 -32 121 -72
146 -45 27 -121 27 -173 -1z m48 -209 c-6 -24 -33 -49 -33 -31 0 18 19 51 29
51 5 0 7 -9 4 -20z"/>
<path d="M4782 4770 c-52 -32 -62 -70 -62 -227 1 -282 43 -413 156 -479 92
-54 199 -16 252 91 79 157 -10 411 -204 588 -53 48 -96 56 -142 27z"/>
<path d="M2645 4217 c-86 -34 -115 -80 -115 -180 0 -82 36 -157 98 -204 56
-42 109 -56 202 -51 91 4 175 41 258 114 84 73 103 135 62 201 -24 39 -38 47
-147 80 -182 53 -292 66 -358 40z"/>
<path d="M1096 4121 c-39 -26 -55 -57 -56 -106 0 -69 20 -85 158 -126 24 -7
45 -16 48 -21 10 -15 -31 -8 -91 17 -33 14 -74 25 -91 25 -76 0 -138 -86 -110
-153 17 -42 39 -61 109 -92 210 -96 426 -40 466 122 35 137 -69 266 -268 334
-70 24 -128 24 -165 0z"/>
<path d="M5223 3805 c-129 -35 -226 -113 -263 -213 -19 -48 -21 -71 -17 -147
5 -97 20 -142 71 -208 112 -147 322 -136 471 25 69 75 98 147 99 248 0 67 -3
82 -33 137 -35 65 -115 144 -166 163 -36 14 -99 12 -162 -5z m71 -303 c9 -15
-31 -55 -48 -49 -19 7 -22 43 -3 50 19 8 45 8 51 -1z"/>
<path d="M4212 3775 c-107 -30 -195 -103 -244 -203 -35 -72 -32 -170 7 -241
50 -90 155 -151 261 -151 144 0 286 127 323 291 6 24 11 81 11 126 0 78 -2 84
-30 117 -18 20 -51 41 -78 51 -67 23 -185 28 -250 10z m68 -263 c0 -18 -33
-52 -51 -52 -26 0 -24 15 7 39 28 22 44 27 44 13z"/>
<path d="M3453 3393 c-42 -8 -88 -79 -159 -246 -41 -95 -43 -139 -9 -172 29
-30 54 -31 104 -6 97 50 191 192 199 301 4 52 2 60 -24 89 -29 31 -68 43 -111
34z"/>
<path d="M1805 3099 c-116 -11 -317 -48 -413 -75 -232 -67 -367 -195 -416
-395 -23 -94 -21 -259 4 -340 51 -166 148 -268 351 -370 215 -107 262 -161
378 -429 79 -182 256 -355 421 -412 56 -20 85 -23 205 -23 143 1 211 9 395 50
58 13 146 26 195 29 260 19 679 117 863 201 287 133 527 360 629 594 56 130
68 192 68 336 -1 110 -4 138 -23 186 -45 114 -189 287 -296 357 -95 62 -149
77 -276 76 -109 0 -120 -2 -226 -41 -183 -68 -290 -87 -494 -87 -172 -1 -177
0 -267 31 -51 18 -173 73 -270 122 -241 121 -395 169 -602 190 -112 12 -109
12 -226 0z m345 -423 c142 -30 206 -54 385 -143 169 -85 293 -128 412 -143 48
-6 112 -16 140 -22 44 -9 87 -7 240 11 260 31 352 49 466 87 90 32 100 33 130
20 42 -17 100 -67 149 -129 31 -39 38 -57 38 -91 0 -102 -85 -272 -185 -369
-142 -139 -267 -216 -454 -281 -179 -62 -318 -85 -542 -89 -173 -3 -206 -6
-309 -32 -150 -37 -331 -42 -395 -10 -69 34 -119 97 -191 238 -160 315 -256
419 -508 543 -71 35 -138 71 -148 81 -32 28 -48 69 -48 117 0 122 71 179 266
215 148 28 170 30 314 25 82 -2 165 -12 240 -28z"/>
<path d="M441 2157 c-47 -28 -63 -86 -37 -135 8 -15 33 -67 55 -115 93 -204
235 -336 361 -337 88 0 144 61 143 155 -1 129 -95 234 -337 377 -109 65 -148
76 -185 55z"/>
<path d="M4903 1506 c-24 -20 -36 -23 -74 -19 -38 4 -50 1 -77 -22 -39 -33
-56 -89 -47 -159 26 -213 78 -296 185 -296 45 0 101 26 128 59 60 75 97 331
57 398 -38 64 -120 83 -172 39z"/>
</g>
</svg>
