<?xml version="1.0" standalone="no"?>
<!DOCTYPE svg PUBLIC "-//W3C//DTD SVG 20010904//EN"
 "http://www.w3.org/TR/2001/REC-SVG-20010904/DTD/svg10.dtd">
<svg version="1.0" xmlns="http://www.w3.org/2000/svg"
 width="600.000000pt" height="600.000000pt" viewBox="0 0 600.000000 600.000000"
 preserveAspectRatio="xMidYMid meet">
<metadata>
Created by potrace 1.15, written by Peter Selinger 2001-2017
</metadata>
<g transform="translate(0.000000,600.000000) scale(0.100000,-0.100000)"
fill="#16364b" stroke="none">
<path d="M1835 5820 c-43 -17 -69 -61 -140 -235 -40 -99 -98 -236 -128 -305
-95 -216 -95 -315 0 -387 33 -25 45 -28 113 -28 71 0 84 3 161 43 113 57 231
147 377 287 158 152 190 219 146 311 -29 61 -88 90 -161 79 -40 -6 -56 -17
-141 -101 -52 -52 -97 -93 -98 -91 -2 2 14 50 36 108 50 129 54 204 16 260
-40 58 -120 84 -181 59z"/>
<path d="M2994 5711 c-122 -55 -121 -194 2 -275 30 -21 108 -76 173 -124 65
-48 162 -118 216 -157 54 -38 116 -90 138 -115 47 -53 100 -159 95 -192 -4
-27 -38 -45 -100 -53 -121 -15 -195 -138 -138 -230 34 -55 72 -68 186 -63 84
3 108 9 157 33 158 78 216 269 148 486 -41 131 -124 231 -308 369 -54 41 -129
100 -168 131 -95 76 -209 156 -263 185 -54 29 -83 30 -138 5z"/>
<path d="M928 5404 c-139 -33 -282 -143 -339 -260 -79 -160 -38 -350 104 -493
133 -134 247 -144 325 -31 45 67 23 136 -63 200 -87 64 -108 133 -62 201 27
40 74 65 142 74 71 9 109 37 141 101 20 42 25 64 21 95 -15 113 -109 152 -269
113z"/>
<path d="M2902 5139 c-52 -26 -89 -70 -134 -157 -44 -88 -52 -196 -18 -262 44
-85 107 -122 212 -122 79 0 171 25 214 57 45 35 64 82 64 162 0 126 -42 233
-113 287 -77 59 -153 71 -225 35z"/>
<path d="M4806 4895 c-47 -17 -94 -59 -112 -102 -34 -79 -2 -307 60 -437 94
-195 284 -283 434 -201 90 49 140 147 128 251 -22 185 -157 363 -351 462 -77
39 -111 45 -159 27z"/>
<path d="M1969 4801 c-127 -41 -179 -92 -179 -177 0 -62 26 -107 79 -134 51
-26 100 -25 161 1 27 12 56 19 64 16 15 -6 36 -65 36 -102 0 -27 34 -81 63
-100 89 -58 222 0 242 106 9 48 -11 152 -43 219 -74 158 -247 227 -423 171z"/>
<path d="M2919 4050 c-94 -16 -172 -71 -206 -148 -21 -45 -25 -64 -20 -114 18
-203 290 -325 648 -290 173 17 203 37 245 167 44 136 21 191 -107 256 -108 54
-295 115 -392 128 -87 12 -101 12 -168 1z"/>
<path d="M1185 4034 c-161 -24 -213 -37 -247 -61 -72 -49 -98 -154 -59 -238
35 -76 102 -115 196 -115 30 0 55 -3 55 -6 0 -4 -35 -49 -77 -102 -215 -263
-312 -400 -392 -557 -74 -143 -114 -251 -114 -310 0 -120 97 -207 211 -190 41
6 55 15 112 75 89 92 231 201 450 345 102 67 227 152 279 188 52 37 98 64 104
60 13 -8 1 -112 -22 -194 -56 -198 -177 -438 -440 -874 -85 -142 -96 -165 -95
-206 1 -61 35 -116 88 -140 53 -24 80 -24 130 1 48 23 103 97 228 305 209 347
346 655 408 915 29 121 31 296 5 385 -29 101 -121 175 -216 175 -73 0 -164
-44 -343 -169 -88 -61 -87 -56 15 74 146 188 189 332 137 462 -34 83 -63 117
-128 150 -48 24 -67 28 -155 29 -55 1 -113 0 -130 -2z"/>
<path d="M4187 3765 c-117 -30 -192 -86 -238 -180 -29 -59 -31 -71 -27 -138 4
-56 12 -86 33 -126 81 -148 268 -209 418 -137 114 55 204 170 267 344 42 115
11 206 -79 233 -61 18 -308 21 -374 4z m93 -291 c-21 -25 -51 -37 -62 -26 -7
7 -1 15 18 26 40 21 61 21 44 0z"/>
<path d="M3430 3391 c-84 -26 -155 -97 -218 -221 -48 -93 -50 -116 -21 -176
26 -56 69 -81 155 -93 105 -15 168 5 236 76 64 67 83 116 83 215 0 81 -2 88
-31 125 -53 66 -133 95 -204 74z"/>
<path d="M4990 3099 c-41 -16 -162 -114 -204 -164 -21 -26 -53 -75 -70 -108
-28 -55 -31 -71 -31 -147 0 -99 19 -144 84 -203 73 -66 173 -72 289 -17 126
60 202 172 210 311 6 107 -14 171 -80 249 -70 82 -130 106 -198 79z"/>
<path d="M3916 2645 c-96 -34 -166 -133 -166 -238 0 -60 13 -115 56 -243 13
-39 24 -73 24 -75 0 -3 -33 5 -72 19 -58 19 -87 23 -138 20 -74 -6 -113 -23
-161 -70 -56 -56 -74 -110 -73 -218 1 -52 -2 -84 -6 -70 -24 86 -88 161 -170
199 -46 21 -69 25 -145 25 -117 -1 -192 -26 -429 -145 -98 -49 -179 -89 -181
-89 -1 0 -8 26 -15 58 -20 92 -69 222 -106 284 -78 129 -204 183 -337 144 -98
-29 -231 -174 -303 -331 -22 -47 -26 -67 -22 -118 4 -60 4 -62 -49 -138 -60
-87 -110 -191 -139 -289 -16 -54 -19 -96 -19 -245 1 -169 3 -185 28 -262 49
-147 168 -292 354 -432 167 -125 262 -155 493 -156 198 0 288 17 407 75 145
71 313 257 313 346 0 18 35 105 89 215 177 369 231 529 238 712 l6 119 28
-114 c49 -191 149 -480 178 -518 42 -52 102 -80 175 -80 112 1 191 60 222 166
15 51 15 62 1 118 -8 33 -14 62 -13 64 2 1 19 -5 39 -13 57 -23 119 -19 201
15 165 69 249 221 217 394 -6 32 -40 131 -75 220 -65 164 -93 250 -142 436
-26 98 -31 108 -79 156 -69 69 -145 89 -229 59z m-1841 -1002 c51 -294 65
-335 128 -387 30 -24 49 -31 97 -34 77 -6 134 21 179 83 25 34 56 58 149 108
189 104 372 184 372 162 0 -2 -17 -57 -39 -122 -42 -128 -91 -242 -176 -409
-37 -72 -55 -119 -55 -144 0 -68 -80 -165 -178 -214 -108 -54 -256 -60 -363
-15 -131 55 -253 159 -301 256 -28 56 -33 79 -36 158 -2 50 1 116 7 147 15 69
66 178 116 242 55 72 68 111 62 181 -2 33 -3 66 0 73 11 30 22 5 38 -85z"/>
</g>
</svg>
