<?xml version="1.0" standalone="no"?>
<!DOCTYPE svg PUBLIC "-//W3C//DTD SVG 20010904//EN"
 "http://www.w3.org/TR/2001/REC-SVG-20010904/DTD/svg10.dtd">
<svg version="1.0" xmlns="http://www.w3.org/2000/svg"
 width="600.000000pt" height="600.000000pt" viewBox="0 0 600.000000 600.000000"
 preserveAspectRatio="xMidYMid meet">
<metadata>
Created by potrace 1.15, written by Peter Selinger 2001-2017
</metadata>
<g transform="translate(0.000000,600.000000) scale(0.100000,-0.100000)"
fill="#16364b" stroke="none">
<path d="M2757 5525 c-57 -20 -81 -47 -138 -159 -41 -83 -52 -114 -56 -169
-10 -124 37 -212 139 -258 49 -22 65 -24 226 -24 94 0 172 -3 172 -6 0 -4 -26
-28 -57 -55 -174 -147 -328 -306 -439 -453 -87 -115 -95 -175 -34 -259 45 -63
65 -71 191 -83 197 -17 338 -39 524 -80 99 -21 194 -39 211 -39 35 0 88 32
118 72 43 59 17 167 -51 209 -55 34 -333 98 -485 111 -76 6 -138 15 -138 18 0
18 169 184 293 289 233 194 277 250 277 351 0 90 -48 158 -141 199 -72 32
-141 35 -323 16 -91 -10 -169 -15 -173 -11 -4 4 10 40 30 82 45 90 49 144 14
195 -37 55 -99 76 -160 54z"/>
<path d="M1615 5226 c-67 -21 -143 -76 -279 -202 -206 -189 -310 -318 -360
-443 -39 -100 22 -217 124 -236 20 -4 86 3 157 15 122 21 305 31 318 18 4 -4
-6 -63 -23 -130 -55 -219 -53 -269 13 -327 19 -17 31 -32 27 -34 -4 -3 -39
-14 -78 -26 -95 -28 -134 -72 -134 -151 0 -80 60 -155 133 -167 49 -8 250 63
432 151 211 103 245 136 245 236 0 59 -24 101 -70 125 -49 25 -98 18 -204 -30
-55 -25 -101 -44 -103 -42 -2 2 1 17 6 33 84 264 97 332 81 409 -23 111 -116
215 -225 252 -27 9 -93 19 -145 22 l-95 6 47 50 c67 72 159 145 225 180 74 39
103 81 103 149 0 66 -27 111 -83 136 -49 23 -58 23 -112 6z"/>
<path d="M4360 4664 c-64 -12 -165 -52 -273 -106 -102 -52 -120 -65 -142 -102
-60 -103 0 -219 120 -232 45 -5 59 -1 145 41 82 41 211 95 225 95 27 0 -61
-203 -185 -425 -55 -99 -100 -190 -100 -202 0 -12 5 -34 11 -50 13 -37 116
-142 154 -158 28 -12 106 -20 410 -43 l100 -7 -3 -30 c-5 -50 -77 -252 -142
-397 -33 -75 -60 -151 -60 -168 0 -69 56 -141 120 -155 38 -8 91 9 118 38 27
29 202 399 237 502 21 61 29 105 32 185 5 103 4 106 -29 169 -39 76 -82 113
-163 142 -50 18 -92 23 -247 28 l-188 6 76 160 c189 397 199 587 37 682 -41
24 -59 28 -138 29 -49 1 -101 0 -115 -2z"/>
<path d="M3745 3676 c-138 -44 -273 -180 -282 -284 -13 -149 180 -208 264 -80
25 37 78 78 102 78 31 0 1 -118 -67 -263 l-45 -98 -107 -55 c-124 -63 -176
-108 -186 -160 -20 -106 86 -208 196 -189 22 4 58 21 82 38 57 41 159 87 295
131 127 42 183 78 213 135 41 82 13 203 -58 246 -36 22 -36 14 -6 154 21 97
12 166 -29 226 -72 106 -243 162 -372 121z"/>
<path d="M2465 3520 c-113 -20 -347 -112 -393 -154 -74 -66 -68 -180 12 -241
57 -44 96 -43 214 4 140 56 248 83 319 79 l58 -3 -3 -44 c-5 -56 -42 -161 -95
-266 -22 -44 -44 -93 -48 -109 -18 -63 34 -158 101 -186 47 -19 116 -7 152 26
35 33 113 191 152 308 52 157 59 314 18 408 -27 62 -91 124 -161 156 -48 23
-71 27 -166 29 -60 1 -132 -2 -160 -7z"/>
<path d="M1115 3216 c-125 -31 -234 -110 -254 -182 -33 -124 63 -237 202 -237
l57 0 0 -31 c0 -17 -9 -85 -20 -151 -28 -166 -42 -348 -44 -560 -1 -152 2
-187 17 -227 22 -56 63 -93 120 -109 54 -14 99 -6 172 32 78 40 87 49 134 128
103 173 423 611 446 611 36 0 53 -177 36 -354 -14 -139 -38 -260 -88 -438 -40
-142 -39 -177 4 -229 49 -58 120 -74 185 -41 l36 19 -5 -53 c-20 -189 140
-711 260 -850 44 -51 136 -100 204 -109 65 -8 178 9 255 40 56 23 178 101 178
114 0 4 17 13 38 20 64 23 88 48 132 133 99 191 210 336 286 369 39 18 45 18
95 3 30 -9 97 -38 150 -65 138 -69 210 -91 299 -92 61 -1 85 3 132 25 107 49
176 123 193 205 4 22 17 39 40 53 18 11 48 43 66 71 28 44 33 62 37 128 4 70
1 83 -33 166 -26 62 -39 111 -43 157 -5 66 -4 68 23 78 15 6 94 15 176 20 161
11 221 27 301 80 119 79 187 239 175 409 -7 87 -34 136 -105 185 -57 41 -158
49 -218 18 -76 -39 -124 -113 -124 -190 0 -39 0 -39 -46 -46 -26 -3 -65 -6
-88 -6 -23 0 -81 -9 -129 -20 -248 -55 -405 -205 -438 -420 -18 -117 2 -280
52 -423 23 -66 28 -92 20 -100 -8 -8 -51 9 -164 66 -254 129 -387 147 -543 73
-87 -41 -156 -102 -235 -209 -53 -71 -194 -297 -233 -375 -9 -17 -23 -32 -30
-32 -8 0 -37 -16 -66 -36 -28 -19 -58 -33 -66 -30 -49 19 -123 294 -149 556
-4 36 -15 84 -25 107 -41 95 -170 129 -272 71 -27 -15 -48 -25 -48 -24 0 2 7
23 15 47 66 184 98 366 120 674 7 100 -9 257 -36 355 -45 159 -111 244 -217
277 -51 16 -58 16 -118 0 -36 -9 -86 -31 -112 -49 -64 -43 -173 -154 -256
-261 -38 -48 -69 -87 -71 -85 -1 2 6 82 17 178 31 289 11 410 -83 502 -74 73
-186 96 -314 64z"/>
<path d="M3101 2585 c-36 -9 -128 -33 -205 -55 -313 -90 -348 -107 -388 -183
-46 -89 -15 -208 67 -254 60 -34 114 -30 280 22 144 44 351 92 361 82 3 -3
-11 -47 -30 -98 -47 -126 -49 -140 -36 -187 33 -124 172 -178 287 -112 46 26
57 39 87 102 41 87 81 219 91 305 18 159 -54 293 -191 358 -50 24 -74 29 -159
31 -63 2 -124 -2 -164 -11z"/>
</g>
</svg>
