<?xml version="1.0" standalone="no"?>
<!DOCTYPE svg PUBLIC "-//W3C//DTD SVG 20010904//EN"
 "http://www.w3.org/TR/2001/REC-SVG-20010904/DTD/svg10.dtd">
<svg version="1.0" xmlns="http://www.w3.org/2000/svg"
 width="600.000000pt" height="600.000000pt" viewBox="0 0 600.000000 600.000000"
 preserveAspectRatio="xMidYMid meet">
<metadata>
Created by potrace 1.15, written by Peter Selinger 2001-2017
</metadata>
<g transform="translate(0.000000,600.000000) scale(0.100000,-0.100000)"
fill="#16364b" stroke="none">
<path d="M3103 5669 c-67 -33 -91 -108 -58 -184 23 -57 129 -205 192 -269 31
-32 111 -99 176 -148 65 -49 121 -97 124 -106 9 -23 -68 -89 -251 -216 -129
-89 -174 -114 -254 -142 -206 -72 -324 -151 -358 -239 -48 -127 57 -255 209
-255 86 0 147 59 147 142 0 38 4 46 25 56 14 7 44 12 66 12 49 0 38 -6 272
147 339 222 404 283 442 416 44 152 -25 266 -251 424 -134 92 -215 170 -259
248 -40 70 -83 114 -125 125 -47 13 -49 13 -97 -11z"/>
<path d="M1155 5359 c-225 -122 -365 -353 -365 -600 0 -149 54 -338 113 -399
74 -75 213 -40 252 65 19 48 20 42 -30 175 -26 68 -31 185 -11 252 21 73 70
145 125 183 24 16 63 48 86 70 74 70 82 160 21 231 -29 34 -38 38 -92 41 -47
3 -67 0 -99 -18z"/>
<path d="M1702 5300 c-61 -37 -94 -119 -73 -183 11 -33 9 -39 -25 -92 -147
-231 -160 -412 -37 -514 56 -47 129 -65 258 -65 151 0 281 26 328 65 69 57 70
155 2 224 -45 44 -85 51 -213 36 -57 -7 -106 -10 -110 -7 -3 4 24 66 61 139
75 147 95 220 77 286 -13 50 -54 100 -97 117 -49 21 -132 18 -171 -6z"/>
<path d="M4595 4686 c-124 -54 -124 -232 -1 -286 23 -10 33 -19 24 -19 -23 -1
-76 -47 -93 -82 -31 -60 -9 -146 47 -183 13 -8 55 -20 94 -26 204 -32 424 80
470 238 49 168 -78 285 -386 353 -100 22 -115 22 -155 5z"/>
<path d="M1891 4279 c-79 -14 -228 -66 -288 -100 -85 -49 -172 -119 -189 -151
-22 -43 -21 -109 2 -149 27 -46 74 -71 133 -71 54 0 79 10 136 59 22 19 73 50
113 70 65 33 83 37 182 43 88 5 115 10 137 26 38 28 73 92 73 132 0 45 -32
103 -68 125 -37 21 -156 30 -231 16z"/>
<path d="M2510 3739 c-205 -53 -270 -101 -270 -196 0 -42 38 -110 73 -132 58
-35 95 -36 202 -2 53 17 123 34 156 38 54 5 59 4 59 -14 0 -63 -89 -264 -172
-387 -23 -33 -92 -129 -154 -212 -62 -83 -118 -163 -124 -178 -26 -68 -1 -151
55 -186 43 -27 119 -27 163 0 39 24 234 284 322 430 169 279 241 527 194 662
-26 73 -101 148 -177 176 -76 29 -220 29 -327 1z"/>
<path d="M4043 3729 c-99 -19 -163 -75 -183 -160 -22 -92 16 -196 104 -285 79
-78 144 -108 236 -109 54 0 86 5 112 19 58 28 118 94 154 171 46 94 44 148 -5
204 -12 13 -21 32 -21 42 0 32 -23 69 -55 89 -51 32 -246 49 -342 29z"/>
<path d="M1139 3569 c-83 -19 -289 -130 -336 -181 -32 -34 -55 -106 -48 -150
10 -54 54 -116 101 -138 44 -22 117 -26 160 -10 15 6 29 8 32 5 5 -4 -32 -105
-148 -400 -65 -166 -88 -259 -102 -401 -16 -170 11 -248 103 -295 58 -29 165
-37 212 -14 53 25 183 166 353 382 176 224 302 373 316 373 19 0 6 -87 -87
-570 -89 -466 -95 -500 -95 -569 0 -86 22 -128 80 -158 56 -29 83 -29 135 2
51 30 74 73 86 164 10 81 76 411 123 621 65 286 80 396 80 595 -1 196 -10 246
-61 314 -51 67 -158 90 -247 52 -62 -27 -177 -140 -342 -336 -77 -91 -140
-161 -142 -156 -1 4 26 84 62 177 101 265 111 304 111 419 0 89 -4 106 -27
150 -32 61 -59 88 -118 114 -48 22 -134 26 -201 10z"/>
<path d="M3645 3299 c-159 -21 -293 -162 -324 -339 -18 -100 12 -171 89 -210
64 -33 140 -21 184 29 12 13 31 21 52 21 45 0 130 19 180 40 126 55 187 191
135 305 -10 22 -37 57 -60 78 -73 66 -155 90 -256 76z"/>
<path d="M4706 3040 c-69 -22 -102 -87 -93 -180 7 -61 44 -175 83 -252 13 -26
24 -59 24 -73 0 -57 57 -123 126 -145 75 -25 163 10 190 76 27 64 19 103 -51
237 -53 101 -65 134 -65 171 0 115 -108 199 -214 166z"/>
<path d="M2901 2590 c-131 -28 -441 -157 -535 -223 -59 -41 -83 -152 -50 -223
36 -75 141 -134 218 -121 18 3 98 33 177 67 143 62 243 100 262 100 30 0 -38
-176 -136 -355 -62 -112 -72 -137 -72 -180 0 -108 78 -185 184 -185 96 0 125
25 198 165 80 154 154 326 189 440 39 127 40 246 2 326 -33 73 -95 134 -167
167 -44 20 -74 26 -141 28 -47 2 -105 -1 -129 -6z"/>
<path d="M4439 2306 c-66 -23 -103 -51 -136 -99 -42 -62 -50 -119 -29 -203 9
-37 15 -68 13 -70 -2 -2 -59 12 -128 32 -153 44 -277 55 -361 30 -116 -33
-199 -118 -239 -244 -43 -136 -33 -527 16 -622 66 -128 209 -183 330 -126 60
28 77 46 106 110 20 46 20 57 14 242 -4 107 -4 194 0 194 13 0 147 -49 185
-68 48 -23 243 -22 315 3 111 38 204 130 242 237 34 100 16 359 -33 463 -50
105 -185 161 -295 121z"/>
<path d="M2122 1839 c-50 -25 -87 -75 -100 -137 -11 -45 -1 -216 19 -337 21
-128 116 -377 179 -470 62 -90 195 -200 322 -266 73 -37 144 -39 203 -6 l40
23 120 -61 c143 -73 238 -100 350 -98 198 3 374 126 375 264 0 57 -45 135 -95
165 -81 47 -145 42 -230 -18 -34 -24 -49 -29 -74 -23 -30 6 -215 114 -269 156
-61 47 -195 186 -212 219 -52 103 -164 154 -255 116 l-33 -14 -11 46 c-6 26
-18 108 -26 183 -16 153 -18 161 -53 208 -51 68 -166 91 -250 50z"/>
</g>
</svg>
