<?xml version="1.0" standalone="no"?>
<!DOCTYPE svg PUBLIC "-//W3C//DTD SVG 20010904//EN"
 "http://www.w3.org/TR/2001/REC-SVG-20010904/DTD/svg10.dtd">
<svg version="1.0" xmlns="http://www.w3.org/2000/svg"
 width="600.000000pt" height="600.000000pt" viewBox="0 0 600.000000 600.000000"
 preserveAspectRatio="xMidYMid meet">
<metadata>
Created by potrace 1.15, written by Peter Selinger 2001-2017
</metadata>
<g transform="translate(0.000000,600.000000) scale(0.100000,-0.100000)"
fill="#16364b" stroke="none">
<path d="M2386 5479 c-45 -13 -76 -48 -112 -126 -70 -148 -81 -254 -38 -342
48 -96 157 -149 286 -138 37 3 124 20 193 38 69 17 128 30 131 27 2 -3 -27
-48 -65 -99 -39 -52 -108 -157 -155 -234 -46 -77 -127 -211 -179 -298 -99
-163 -116 -209 -103 -282 9 -45 57 -92 103 -101 22 -4 98 2 187 15 253 36 313
41 521 47 161 5 208 10 242 25 55 23 83 68 83 133 0 43 -4 53 -39 87 l-39 39
-223 -1 c-123 0 -264 -4 -314 -8 -49 -4 -92 -6 -94 -4 -6 4 138 252 200 343
32 47 97 132 145 190 108 130 138 191 132 265 -7 79 -41 126 -123 166 -65 32
-65 32 -182 26 -86 -4 -157 -15 -262 -41 -80 -19 -147 -33 -150 -31 -2 3 4 22
13 43 31 63 36 93 25 136 -25 93 -105 148 -183 125z"/>
<path d="M1770 5040 c-125 -22 -269 -100 -458 -249 -191 -151 -222 -187 -222
-258 0 -89 59 -146 162 -157 360 -38 419 -62 500 -200 36 -60 79 -86 145 -86
41 0 58 5 83 26 74 63 81 142 24 260 -67 136 -155 204 -314 242 -38 9 -70 19
-70 22 0 3 22 19 48 36 42 27 84 46 188 84 89 32 131 140 84 215 -35 56 -91
78 -170 65z"/>
<path d="M4072 4814 c-122 -32 -323 -155 -359 -220 -28 -49 -29 -86 -2 -140
15 -32 32 -48 65 -65 61 -29 98 -21 177 35 74 53 179 104 222 108 l30 3 -1
-66 c-2 -76 -45 -211 -120 -379 -61 -135 -67 -189 -28 -257 64 -113 108 -133
237 -109 149 28 366 56 432 56 51 0 67 -4 72 -16 9 -23 -18 -140 -84 -365 -66
-228 -71 -261 -45 -309 22 -40 84 -80 125 -80 37 0 87 22 114 51 26 28 118
340 153 517 52 266 2 420 -159 484 -49 19 -74 22 -196 22 -77 0 -173 -6 -214
-13 -40 -6 -76 -10 -78 -7 -3 3 9 47 25 98 50 153 64 235 60 350 -3 84 -8 112
-28 152 -68 139 -223 198 -398 150z"/>
<path d="M2050 3929 c-79 -29 -166 -46 -352 -69 -187 -24 -207 -30 -248 -76
-71 -81 -39 -216 59 -245 40 -12 113 -4 436 47 123 20 256 67 301 106 38 33
58 92 48 135 -27 113 -113 149 -244 102z"/>
<path d="M3740 3712 c-30 -10 -80 -31 -110 -47 -110 -56 -376 -208 -398 -229
-36 -32 -52 -70 -52 -122 0 -41 5 -51 39 -85 35 -36 43 -39 93 -39 48 0 66 7
169 66 187 108 269 147 269 128 0 -20 -202 -536 -230 -585 -41 -75 -30 -170
27 -219 46 -41 110 -41 229 1 328 116 596 310 611 443 12 107 -79 183 -193
161 -29 -5 -54 -23 -104 -73 -66 -68 -146 -129 -156 -120 -2 3 13 50 35 104
66 165 85 245 86 364 0 94 -3 111 -26 155 -52 101 -164 139 -289 97z"/>
<path d="M2355 3364 c-135 -35 -274 -77 -299 -92 -50 -29 -76 -77 -76 -140 0
-50 3 -58 35 -88 53 -50 86 -52 244 -16 165 37 220 45 256 36 32 -8 31 -16
-21 -145 -37 -95 -41 -123 -20 -172 47 -113 186 -148 250 -64 13 18 45 94 71
169 57 170 64 253 25 332 -31 66 -90 122 -159 154 -49 23 -70 27 -171 29 -63
1 -124 -1 -135 -3z"/>
<path d="M1135 3073 c-54 -16 -101 -54 -117 -93 -15 -40 -11 -116 10 -163 24
-54 71 -94 129 -110 l45 -12 -9 -160 c-20 -386 9 -715 70 -807 69 -102 223
-92 302 20 25 37 30 54 32 110 l1 67 40 5 c74 11 88 26 222 232 82 127 162
228 180 228 17 0 17 -49 -1 -226 -20 -190 -31 -250 -69 -359 -12 -33 -21 -79
-21 -102 -1 -102 100 -178 199 -151 43 12 68 32 88 71 28 52 82 293 114 498
27 177 30 216 22 281 -17 134 -97 249 -210 301 -72 33 -182 31 -242 -5 -62
-36 -129 -111 -230 -255 -47 -67 -87 -122 -90 -122 -3 -1 -5 104 -5 232 -1
240 -9 307 -52 392 -26 52 -85 104 -140 125 -65 24 -194 26 -268 3z"/>
<path d="M4832 2929 c-85 -42 -125 -124 -120 -243 l3 -80 -110 -41 c-256 -96
-366 -180 -438 -332 -28 -61 -31 -79 -35 -183 -3 -85 0 -133 12 -180 25 -101
87 -218 156 -292 l60 -66 -30 -7 c-17 -4 -55 -27 -84 -51 -65 -53 -73 -53
-233 -18 -273 60 -501 5 -708 -169 -68 -58 -96 -86 -168 -172 -27 -33 -62 -67
-76 -76 -14 -9 -47 -41 -74 -72 -60 -70 -121 -102 -181 -93 -97 15 -273 159
-345 282 -82 140 -91 152 -144 178 -116 58 -236 11 -267 -105 -15 -53 -5 -99
43 -194 52 -105 93 -162 197 -269 183 -189 330 -271 510 -283 155 -10 281 37
414 154 111 96 147 134 206 212 65 87 173 181 249 219 78 38 151 40 308 9 191
-38 213 -40 289 -22 87 20 180 72 244 136 90 90 101 136 65 257 -6 18 -3 22
14 22 35 0 93 29 130 63 47 44 71 101 71 167 0 75 -29 134 -95 195 -74 70 -93
145 -48 196 14 17 91 54 226 109 209 86 299 222 300 450 0 123 -12 174 -56
231 -66 86 -189 115 -285 68z"/>
<path d="M3270 2363 c-150 -14 -554 -115 -616 -153 -41 -26 -81 -90 -90 -146
-4 -31 -1 -53 14 -86 23 -54 63 -84 128 -99 44 -10 65 -7 219 31 178 43 303
64 446 75 l86 7 0 -58 c0 -93 48 -161 131 -184 51 -14 71 -12 117 9 91 42 126
111 133 261 3 89 1 113 -17 161 -51 136 -177 191 -426 187 -49 -1 -106 -3
-125 -5z"/>
</g>
</svg>
