<?xml version="1.0" standalone="no"?>
<!DOCTYPE svg PUBLIC "-//W3C//DTD SVG 20010904//EN"
 "http://www.w3.org/TR/2001/REC-SVG-20010904/DTD/svg10.dtd">
<svg version="1.0" xmlns="http://www.w3.org/2000/svg"
 width="600.000000pt" height="600.000000pt" viewBox="0 0 600.000000 600.000000"
 preserveAspectRatio="xMidYMid meet">
<metadata>
Created by potrace 1.15, written by Peter Selinger 2001-2017
</metadata>
<g transform="translate(0.000000,600.000000) scale(0.100000,-0.100000)"
fill="#16364b" stroke="none">
<path d="M1388 5683 c-235 -174 -258 -198 -258 -266 0 -29 7 -46 29 -68 42
-41 94 -39 320 15 102 25 214 50 249 57 46 9 68 18 82 37 59 74 -25 185 -123
162 -20 -4 -37 -7 -37 -5 0 1 7 16 16 34 31 63 -22 141 -97 141 -32 0 -58 -15
-181 -107z"/>
<path d="M2343 5406 l-28 -24 -6 -209 c-7 -211 -18 -290 -58 -405 -41 -120
-96 -186 -195 -237 -32 -16 -67 -37 -77 -47 -21 -19 -25 -73 -9 -105 13 -23
61 -49 91 -49 41 0 153 72 226 146 58 59 81 92 122 176 73 153 93 249 99 490
2 108 2 208 -2 222 -17 66 -107 90 -163 42z"/>
<path d="M3511 5314 c-36 -46 -42 -90 -21 -145 59 -158 186 -278 293 -279 45
0 91 39 103 86 23 90 -105 286 -221 340 -69 33 -127 32 -154 -2z"/>
<path d="M2975 5124 c-92 -47 -156 -155 -163 -275 -5 -83 6 -115 52 -158 40
-38 127 -41 198 -8 99 46 133 78 157 148 23 68 27 151 10 196 -14 38 -57 83
-96 99 -43 19 -121 18 -158 -2z"/>
<path d="M4774 4776 c-42 -19 -51 -50 -58 -196 -13 -288 38 -442 170 -506 43
-21 64 -25 100 -21 113 12 205 157 190 298 -11 110 -69 213 -178 314 -117 110
-169 135 -224 111z"/>
<path d="M2641 4226 c-49 -18 -111 -74 -132 -120 -52 -114 10 -249 138 -302
101 -43 219 -36 329 18 70 33 167 116 189 159 34 65 6 156 -57 183 -150 65
-376 95 -467 62z"/>
<path d="M1099 4107 c-103 -69 -78 -196 45 -227 59 -15 136 -52 130 -62 -8
-13 -113 -9 -182 7 -54 13 -68 13 -96 1 -87 -36 -105 -154 -30 -209 40 -30
157 -50 259 -44 212 12 327 110 312 267 -11 129 -109 222 -289 274 -76 22
-109 20 -149 -7z"/>
<path d="M4180 3754 c-154 -41 -242 -153 -241 -305 1 -177 132 -313 301 -313
194 1 345 191 353 447 2 84 -12 116 -66 143 -80 42 -245 55 -347 28z m90 -282
c0 -18 -33 -52 -51 -52 -24 0 -24 15 1 40 20 20 50 27 50 12z"/>
<path d="M5190 3734 c-203 -56 -310 -255 -236 -436 44 -107 127 -183 229 -209
133 -33 300 61 369 208 73 155 37 282 -114 394 -66 49 -77 54 -132 56 -34 1
-86 -4 -116 -13z m100 -304 c0 -16 -40 -51 -50 -45 -14 8 -12 29 2 43 15 15
48 16 48 2z"/>
<path d="M1622 3704 c-39 -27 -44 -58 -26 -148 9 -45 28 -112 41 -151 43 -119
84 -165 148 -165 71 0 109 50 107 140 -1 96 -62 221 -147 299 -49 45 -84 52
-123 25z"/>
<path d="M3473 3393 c-59 -12 -213 -260 -213 -343 0 -48 44 -90 93 -90 43 0
128 50 166 99 67 84 106 213 82 273 -17 44 -75 72 -128 61z"/>
<path d="M1975 3056 c-38 -7 -117 -26 -175 -41 -58 -15 -152 -38 -210 -51 -69
-15 -138 -40 -200 -70 -80 -40 -110 -62 -186 -138 -145 -145 -203 -285 -191
-466 7 -100 43 -220 92 -300 46 -76 121 -144 235 -214 124 -77 201 -136 243
-189 19 -23 65 -100 103 -170 96 -181 202 -291 339 -350 177 -77 468 -59 745
45 36 14 101 33 145 43 346 76 685 225 865 378 85 72 216 205 257 261 133 180
192 402 149 563 -24 90 -86 191 -166 273 -121 123 -246 181 -460 214 -58 9
-148 23 -200 31 -52 8 -150 19 -218 25 -115 9 -212 30 -417 90 -38 11 -131 32
-205 46 -167 32 -434 41 -545 20z m567 -422 c57 -14 153 -40 213 -59 171 -52
301 -77 404 -76 36 0 125 -9 196 -19 72 -10 159 -21 195 -25 35 -4 79 -13 97
-20 51 -22 121 -83 150 -132 23 -40 24 -46 13 -92 -26 -107 -178 -309 -315
-419 -142 -112 -419 -214 -684 -252 -41 -6 -117 -27 -170 -46 -131 -50 -268
-77 -356 -72 -123 8 -198 64 -267 203 -93 184 -154 247 -391 405 -203 136
-222 159 -221 270 0 110 64 205 169 251 48 21 320 82 440 98 192 26 378 21
527 -15z"/>
<path d="M444 2190 c-29 -12 -54 -49 -54 -81 0 -28 110 -288 154 -362 37 -64
118 -144 168 -167 59 -27 141 -26 185 1 136 85 70 328 -130 476 -75 55 -248
143 -279 142 -13 0 -33 -4 -44 -9z"/>
<path d="M4784 1631 c-18 -11 -35 -24 -38 -30 -5 -7 -15 -7 -32 -1 -62 24
-132 1 -159 -50 -19 -37 -19 -128 0 -245 25 -154 50 -205 119 -236 53 -24 97
-24 146 1 71 36 110 113 139 279 35 193 25 243 -54 281 -52 25 -81 25 -121 1z"/>
</g>
</svg>
