<?xml version="1.0" standalone="no"?>
<!DOCTYPE svg PUBLIC "-//W3C//DTD SVG 20010904//EN"
 "http://www.w3.org/TR/2001/REC-SVG-20010904/DTD/svg10.dtd">
<svg version="1.0" xmlns="http://www.w3.org/2000/svg"
 width="600.000000pt" height="600.000000pt" viewBox="0 0 600.000000 600.000000"
 preserveAspectRatio="xMidYMid meet">
<metadata>
Created by potrace 1.15, written by Peter Selinger 2001-2017
</metadata>
<g transform="translate(0.000000,600.000000) scale(0.100000,-0.100000)"
fill="#16364b" stroke="none">
<path d="M2403 5400 c-29 -12 -31 -23 -37 -210 -10 -269 -44 -428 -114 -536
-50 -76 -81 -103 -167 -150 -81 -44 -86 -49 -83 -89 2 -22 11 -34 31 -43 26
-13 34 -11 94 20 149 76 259 208 307 368 29 95 46 238 53 426 6 176 5 182 -16
203 -23 23 -34 25 -68 11z"/>
<path d="M3554 5275 c-12 -8 -27 -28 -34 -45 -11 -27 -10 -36 18 -93 66 -134
155 -217 231 -217 115 0 111 127 -7 277 -63 79 -157 114 -208 78z"/>
<path d="M3025 5111 c-180 -81 -235 -431 -68 -431 49 0 82 20 152 96 77 81
111 149 111 220 0 60 -25 99 -76 120 -44 18 -71 17 -119 -5z m75 -116 c0 -41
-94 -185 -121 -185 -16 0 0 69 28 120 31 58 93 101 93 65z"/>
<path d="M4769 4725 c-46 -25 -53 -59 -46 -243 9 -241 39 -366 103 -422 43
-37 82 -39 123 -5 49 42 66 103 65 235 0 102 -4 125 -32 207 -40 117 -85 207
-114 227 -28 20 -64 20 -99 1z"/>
<path d="M2640 4212 c-26 -12 -39 -28 -49 -58 -39 -112 68 -231 237 -264 78
-16 148 -8 217 24 61 28 85 63 85 125 0 62 -27 85 -155 125 -214 68 -277 77
-335 48z"/>
<path d="M5239 3977 c-95 -35 -187 -124 -215 -209 -49 -148 41 -332 200 -405
52 -24 74 -28 146 -28 73 0 93 4 141 28 116 56 193 177 193 302 1 117 -52 191
-195 276 -69 41 -79 44 -154 47 -48 1 -94 -3 -116 -11z m130 -278 c39 -14 39
-24 2 -43 -26 -14 -30 -14 -45 3 -19 21 -21 51 -2 51 7 0 27 -5 45 -11z"/>
<path d="M4173 3756 c-145 -47 -213 -139 -213 -287 0 -89 28 -164 85 -227 60
-67 116 -92 202 -92 142 0 254 93 299 246 13 44 15 81 11 155 -6 123 -20 149
-94 185 -49 24 -72 29 -153 31 -60 2 -110 -2 -137 -11z m97 -284 c0 -10 -5
-23 -12 -30 -15 -15 -48 -16 -48 0 0 16 31 48 47 48 7 0 13 -8 13 -18z"/>
<path d="M1280 3690 c-112 -14 -209 -80 -258 -174 -38 -74 -38 -178 1 -257 51
-104 168 -189 311 -225 119 -30 188 -103 245 -261 70 -190 133 -522 160 -838
13 -143 30 -216 76 -312 89 -189 240 -349 380 -400 30 -12 47 -25 54 -43 13
-38 47 -68 88 -80 73 -21 339 -32 494 -20 162 12 208 6 289 -35 40 -20 53 -23
83 -14 37 10 67 45 67 78 0 13 8 22 23 25 54 11 246 14 412 7 384 -17 656 33
929 170 176 89 299 198 409 366 116 177 168 341 168 523 1 158 -38 271 -134
400 -181 242 -433 340 -728 284 -134 -25 -198 -57 -358 -176 -219 -164 -312
-211 -491 -243 -183 -34 -360 0 -584 112 -194 96 -309 191 -545 449 -308 337
-503 513 -646 580 -129 61 -330 99 -445 84z m201 -321 c202 -60 321 -145 530
-379 270 -301 511 -519 709 -639 220 -134 509 -216 694 -196 146 15 336 61
426 103 70 32 196 119 325 222 150 120 222 146 374 138 137 -9 219 -59 301
-184 64 -97 84 -174 78 -296 -5 -109 -30 -179 -105 -291 -148 -224 -397 -367
-716 -413 -139 -20 -1075 -40 -1184 -26 -43 6 -150 20 -238 32 -88 11 -205 30
-260 41 -254 52 -343 170 -375 495 -21 223 -102 607 -170 815 -102 310 -220
447 -438 508 -38 10 -83 26 -100 35 -32 17 -56 48 -45 60 15 14 96 4 194 -25z"/>
<path d="M2282 2404 c-42 -29 -19 -96 41 -117 23 -8 67 33 67 63 0 26 -43 70
-67 70 -10 0 -29 -7 -41 -16z"/>
<path d="M2815 2050 c-25 -28 -11 -68 33 -93 33 -20 34 -20 60 0 34 26 40 65
13 92 -28 28 -82 28 -106 1z"/>
<path d="M3445 3337 c-25 -26 -67 -95 -106 -171 -61 -122 -63 -128 -48 -154
16 -29 37 -37 73 -28 28 7 131 138 175 221 43 82 49 127 22 154 -34 34 -69 27
-116 -22z"/>
<path d="M467 2032 c-10 -10 -17 -32 -17 -48 0 -44 131 -176 213 -215 73 -34
91 -36 135 -9 43 27 45 76 3 117 -35 35 -273 173 -299 173 -10 0 -26 -8 -35
-18z"/>
<path d="M5311 1093 c-32 -27 -64 -128 -56 -178 13 -87 90 -129 166 -89 80 41
94 234 20 274 -31 16 -106 12 -130 -7z"/>
</g>
</svg>
