<?xml version="1.0" standalone="no"?>
<!DOCTYPE svg PUBLIC "-//W3C//DTD SVG 20010904//EN"
 "http://www.w3.org/TR/2001/REC-SVG-20010904/DTD/svg10.dtd">
<svg version="1.0" xmlns="http://www.w3.org/2000/svg"
 width="600.000000pt" height="600.000000pt" viewBox="0 0 600.000000 600.000000"
 preserveAspectRatio="xMidYMid meet">
<metadata>
Created by potrace 1.15, written by Peter Selinger 2001-2017
</metadata>
<g transform="translate(0.000000,600.000000) scale(0.100000,-0.100000)"
fill="#16364b" stroke="none">
<path d="M3025 5616 c-16 -7 -37 -22 -46 -32 -31 -37 -98 -170 -124 -249 -63
-186 3 -339 168 -391 29 -9 106 -19 172 -23 l119 -6 -114 -81 c-112 -79 -323
-250 -441 -358 -67 -61 -94 -112 -84 -164 10 -52 78 -120 161 -158 111 -52
692 -224 780 -231 46 -4 55 -2 86 26 47 41 61 79 56 148 -9 105 -24 112 -500
234 -93 24 -168 45 -168 48 2 16 235 191 413 311 219 147 261 188 272 264 12
79 -30 158 -104 195 -81 41 -143 53 -345 61 -109 5 -201 11 -203 14 -8 7 27
104 59 166 15 30 28 70 28 90 0 48 -28 100 -69 127 -38 26 -72 28 -116 9z"/>
<path d="M1481 5353 c-101 -52 -224 -185 -430 -462 -109 -147 -193 -357 -178
-441 11 -56 43 -99 90 -120 58 -27 89 -25 245 15 152 40 319 75 352 75 29 0
28 -1 -101 -277 -72 -153 -109 -244 -109 -266 0 -19 -7 -40 -14 -47 -8 -6 -22
-31 -31 -54 -22 -58 -8 -113 40 -155 55 -48 108 -44 276 23 158 63 299 132
387 189 45 30 68 53 83 85 39 80 6 172 -77 212 -59 29 -98 23 -176 -30 -33
-22 -63 -38 -66 -36 -2 3 16 58 41 123 64 164 81 228 81 303 0 107 -50 177
-155 216 -59 23 -216 22 -337 -1 -51 -9 -96 -15 -99 -11 -8 7 118 174 196 258
34 36 93 87 131 112 38 26 76 56 84 69 38 58 31 129 -16 183 -62 71 -129 82
-217 37z"/>
<path d="M4485 4495 c-89 -23 -297 -95 -335 -115 -28 -15 -60 -82 -60 -125 0
-49 33 -109 73 -134 53 -33 102 -27 248 29 131 50 159 57 159 41 0 -33 -117
-246 -242 -438 -121 -187 -119 -223 24 -342 56 -47 42 -42 238 -85 164 -36
256 -61 278 -75 17 -10 -11 -69 -135 -279 -160 -272 -158 -265 -127 -342 39
-97 168 -126 236 -53 34 38 199 321 258 446 56 116 69 166 70 253 0 110 -55
187 -173 238 -48 22 -240 80 -349 107 -27 6 -48 14 -48 16 0 3 30 48 66 99
118 170 170 276 204 419 24 97 25 166 4 228 -19 55 -77 111 -131 126 -61 17
-161 12 -258 -14z"/>
<path d="M3775 3677 c-42 -19 -83 -70 -91 -113 -15 -82 25 -193 84 -232 25
-16 107 -23 142 -12 21 7 26 -66 7 -105 -8 -16 -17 -37 -20 -45 -3 -10 -35
-21 -93 -33 -49 -10 -121 -33 -159 -52 -84 -40 -181 -131 -215 -199 -56 -116
13 -228 140 -228 60 0 99 21 146 78 53 64 100 85 209 94 97 7 141 24 174 66
21 27 46 102 37 111 -2 3 11 33 29 66 71 130 81 239 34 362 -60 159 -303 297
-424 242z"/>
<path d="M2472 3579 c-69 -13 -150 -46 -237 -96 -128 -72 -165 -116 -165 -193
0 -83 48 -139 126 -148 38 -4 56 2 132 41 110 57 198 87 257 87 l45 0 0 -36
c0 -84 -74 -286 -185 -502 -69 -135 -79 -181 -50 -232 8 -14 14 -44 15 -68 0
-46 26 -106 57 -134 29 -27 88 -48 133 -48 24 0 94 19 163 44 132 47 254 82
262 74 9 -9 -44 -184 -80 -267 -43 -98 -47 -158 -16 -219 48 -95 176 -129 269
-72 89 55 224 387 239 591 13 182 -51 292 -203 344 -75 26 -244 23 -361 -7
-51 -13 -93 -23 -93 -21 0 2 16 39 36 81 75 158 124 339 124 457 0 153 -95
289 -225 324 -46 13 -181 13 -243 0z"/>
<path d="M1131 3341 c-53 -14 -109 -41 -201 -97 -116 -71 -150 -109 -164 -182
-14 -77 36 -167 111 -198 43 -18 131 -18 167 1 16 9 30 14 32 12 4 -4 -49
-311 -86 -497 -18 -85 -36 -177 -41 -205 -17 -85 -22 -247 -10 -291 23 -86 81
-127 207 -146 109 -17 137 0 229 135 70 104 146 208 292 397 44 58 109 150
144 204 l63 99 17 -39 c33 -75 18 -218 -55 -518 -68 -276 -70 -292 -71 -431 0
-126 1 -132 30 -184 38 -68 70 -93 132 -98 114 -11 195 113 151 234 -16 43 -2
142 52 361 83 345 104 580 66 722 -10 36 -24 98 -31 138 -27 147 -103 232
-215 240 -134 10 -205 -51 -393 -333 -69 -104 -136 -201 -147 -215 l-22 -25 6
25 c21 85 57 282 72 380 39 272 -6 414 -158 491 -46 23 -126 32 -177 20z"/>
<path d="M4671 2300 c-59 -27 -109 -84 -127 -146 l-15 -51 -177 1 c-198 1
-249 -9 -378 -70 -96 -45 -172 -116 -217 -201 -44 -84 -57 -154 -57 -300 0
-62 -2 -113 -5 -113 -2 0 -28 18 -56 39 -222 168 -457 161 -638 -20 -77 -77
-196 -257 -273 -413 -18 -36 -35 -66 -39 -66 -12 0 -17 24 -39 196 -39 301
-101 478 -186 538 -82 56 -189 42 -258 -34 -31 -34 -56 -91 -56 -128 0 -6 13
-50 29 -96 16 -47 51 -187 76 -313 55 -266 82 -359 137 -466 70 -134 165 -198
303 -205 167 -8 217 28 295 211 126 294 264 527 318 535 27 4 76 -30 212 -147
58 -50 130 -104 160 -120 108 -58 212 -58 302 0 64 42 93 78 142 179 l41 85
-3 213 -3 212 28 11 c31 12 108 7 242 -16 316 -55 529 67 570 326 20 120 -13
262 -72 316 -69 64 -171 81 -256 43z"/>
</g>
</svg>
