<?xml version="1.0" standalone="no"?>
<!DOCTYPE svg PUBLIC "-//W3C//DTD SVG 20010904//EN"
 "http://www.w3.org/TR/2001/REC-SVG-20010904/DTD/svg10.dtd">
<svg version="1.0" xmlns="http://www.w3.org/2000/svg"
 width="600.000000pt" height="600.000000pt" viewBox="0 0 600.000000 600.000000"
 preserveAspectRatio="xMidYMid meet">
<metadata>
Created by potrace 1.15, written by Peter Selinger 2001-2017
</metadata>
<g transform="translate(0.000000,600.000000) scale(0.100000,-0.100000)"
fill="#16364b" stroke="none">
<path d="M3085 5658 c-68 -38 -96 -102 -70 -165 23 -55 39 -68 150 -130 301
-168 430 -311 385 -427 -14 -39 -87 -113 -155 -159 -68 -47 -282 -156 -290
-149 -3 3 -5 16 -5 30 0 64 -71 122 -150 122 -108 0 -305 -148 -365 -275 -55
-115 -44 -241 27 -314 65 -67 202 -120 274 -106 68 12 124 82 124 155 0 77
-38 119 -122 134 -21 4 -38 11 -38 15 0 17 82 82 139 110 l59 28 7 -35 c14
-76 70 -122 149 -122 80 0 286 109 414 218 70 60 165 187 193 259 32 82 32
206 0 286 -52 131 -190 298 -317 382 -32 22 -110 66 -172 97 -95 49 -120 58
-165 58 -28 0 -61 -6 -72 -12z"/>
<path d="M1961 5509 c-20 -23 -113 -121 -207 -218 -195 -201 -224 -237 -260
-316 -53 -116 -16 -229 96 -290 49 -26 66 -30 162 -33 168 -6 356 29 543 103
94 37 119 54 142 100 22 42 20 126 -3 166 -49 84 -110 92 -252 35 -107 -42
-249 -82 -259 -73 -3 4 38 53 93 109 170 176 223 256 210 321 -17 83 -86 137
-177 137 -49 0 -55 -3 -88 -41z"/>
<path d="M1030 5328 c-88 -44 -195 -151 -237 -238 -46 -95 -64 -171 -70 -293
-9 -169 31 -296 127 -408 85 -99 199 -107 273 -19 52 61 48 144 -10 212 -111
133 -125 296 -34 399 21 25 70 61 108 82 81 45 107 80 107 147 0 57 -26 102
-74 129 -55 30 -112 27 -190 -11z"/>
<path d="M4684 4806 c-63 -28 -97 -104 -75 -168 9 -25 8 -40 -5 -74 -15 -40
-15 -47 2 -99 39 -125 128 -223 242 -266 70 -26 196 -23 252 5 178 91 186 320
15 458 -57 46 -178 106 -279 137 -78 24 -109 26 -152 7z"/>
<path d="M1815 4329 c-111 -22 -301 -139 -345 -212 -22 -36 -26 -106 -9 -140
34 -67 108 -105 175 -92 19 3 55 24 80 46 71 61 139 92 204 92 30 0 65 -5 77
-11 52 -28 163 2 196 52 40 60 24 150 -35 204 -58 53 -230 84 -343 61z"/>
<path d="M2531 3775 c-175 -46 -222 -83 -229 -184 -5 -72 23 -117 90 -145 l47
-19 78 23 c43 12 114 25 157 28 l79 5 -6 -47 c-20 -144 -138 -333 -381 -610
-99 -114 -115 -144 -101 -205 8 -38 47 -87 86 -106 40 -21 117 -19 156 5 37
22 113 117 300 373 215 296 265 397 267 552 1 86 -1 95 -37 167 -39 80 -75
116 -157 159 -69 36 -222 38 -349 4z"/>
<path d="M4210 3769 c-304 -45 -442 -315 -256 -501 64 -63 136 -92 243 -96 82
-4 97 -1 152 24 79 35 153 113 205 217 54 106 57 160 13 246 -17 36 -44 73
-58 84 -48 35 -171 45 -299 26z m30 -299 c-19 -13 -30 -13 -30 0 0 6 10 10 23
10 18 0 19 -2 7 -10z"/>
<path d="M1170 3655 c-69 -20 -222 -87 -292 -128 -141 -84 -127 -278 24 -342
43 -17 95 -19 134 -5 15 6 29 9 31 6 2 -2 -30 -80 -72 -173 -139 -306 -189
-445 -224 -627 -28 -146 -27 -197 5 -257 34 -61 84 -96 158 -110 77 -14 110
-5 164 45 52 48 341 374 491 556 138 166 162 193 166 188 9 -9 -30 -253 -75
-463 -27 -126 -56 -273 -65 -325 -9 -52 -30 -155 -47 -229 -31 -140 -32 -183
-3 -228 41 -61 145 -83 209 -43 62 38 83 105 141 445 14 83 41 213 60 290 53
220 65 285 81 473 20 226 16 324 -17 387 -55 107 -174 144 -286 89 -59 -28
-240 -199 -381 -359 -61 -69 -61 -70 -48 -30 8 22 41 101 73 175 82 184 112
276 119 362 19 220 -141 360 -346 303z"/>
<path d="M3560 3321 c-119 -36 -209 -162 -241 -333 -15 -79 -6 -128 28 -169
45 -53 133 -76 186 -47 12 6 52 17 90 24 153 29 252 103 283 211 22 77 2 166
-53 228 -64 73 -202 113 -293 86z"/>
<path d="M4784 2836 c-138 -64 -201 -181 -174 -319 21 -109 92 -216 164 -251
19 -9 58 -16 88 -16 44 0 63 6 101 31 65 43 90 99 95 214 4 84 2 93 -22 128
-20 30 -26 50 -26 93 0 123 -102 178 -226 120z"/>
<path d="M2919 2496 c-126 -27 -327 -103 -519 -199 -88 -44 -125 -95 -125
-176 0 -108 84 -191 201 -199 59 -4 65 -2 255 88 107 50 206 94 221 97 l27 5
-31 -98 c-40 -131 -82 -235 -126 -314 -64 -117 -67 -124 -66 -177 0 -61 37
-124 91 -156 51 -29 134 -25 192 10 96 59 230 343 306 647 58 230 14 381 -131
452 -67 33 -192 41 -295 20z"/>
<path d="M4395 2374 c-90 -23 -163 -78 -196 -149 -23 -49 -24 -84 -4 -171 9
-36 14 -68 12 -71 -2 -2 -44 8 -93 22 -173 50 -281 54 -389 14 -130 -48 -204
-173 -205 -344 0 -71 36 -438 51 -512 14 -70 55 -124 120 -157 87 -43 174 -32
247 30 89 76 101 143 67 372 -10 67 -15 125 -12 128 7 7 139 -32 181 -53 58
-30 238 -10 339 37 69 33 129 91 167 162 31 57 35 72 38 163 4 95 -18 260 -49
378 -12 46 -60 102 -110 127 -38 20 -128 33 -164 24z"/>
<path d="M2080 1869 c-62 -25 -100 -92 -100 -175 0 -66 19 -111 64 -152 26
-23 37 -46 55 -118 13 -49 37 -132 54 -184 23 -71 30 -111 28 -156 -3 -71 20
-176 50 -237 44 -87 183 -238 299 -324 79 -59 255 -149 325 -168 109 -28 209
-16 332 40 113 52 198 112 224 159 49 86 18 202 -67 252 -64 38 -124 33 -226
-17 -74 -36 -89 -40 -139 -36 -43 4 -159 41 -159 52 0 1 5 16 11 34 18 50 3
117 -35 159 -18 20 -46 61 -62 91 -35 66 -102 142 -158 180 -40 28 -42 32 -70
142 -47 184 -84 292 -117 342 -33 51 -92 96 -148 115 -41 14 -126 15 -161 1z"/>
</g>
</svg>
