<?xml version="1.0" standalone="no"?>
<!DOCTYPE svg PUBLIC "-//W3C//DTD SVG 20010904//EN"
 "http://www.w3.org/TR/2001/REC-SVG-20010904/DTD/svg10.dtd">
<svg version="1.0" xmlns="http://www.w3.org/2000/svg"
 width="600.000000pt" height="600.000000pt" viewBox="0 0 600.000000 600.000000"
 preserveAspectRatio="xMidYMid meet">
<metadata>
Created by potrace 1.15, written by Peter Selinger 2001-2017
</metadata>
<g transform="translate(0.000000,600.000000) scale(0.100000,-0.100000)"
fill="#16364b" stroke="none">
<path d="M2386 5389 c-26 -20 -26 -21 -26 -167 0 -391 -85 -589 -297 -696 -71
-35 -83 -48 -83 -91 0 -33 47 -68 80 -60 53 13 176 92 235 152 133 134 185
307 201 670 l7 161 -26 26 c-31 31 -56 33 -91 5z"/>
<path d="M3543 5282 c-7 -4 -19 -23 -27 -42 -13 -32 -12 -40 8 -88 27 -68 109
-176 162 -214 23 -16 59 -32 82 -35 34 -5 44 -1 66 20 16 16 26 37 26 55 0 69
-132 262 -203 295 -37 18 -93 22 -114 9z"/>
<path d="M3021 5107 c-53 -17 -125 -94 -149 -160 -65 -172 28 -304 171 -243
94 40 187 172 187 267 0 108 -98 172 -209 136z m54 -183 c-14 -38 -67 -94 -89
-94 -10 0 5 52 28 93 21 40 68 74 75 55 2 -5 -4 -29 -14 -54z"/>
<path d="M4775 4740 c-11 -4 -29 -18 -40 -30 -18 -20 -20 -36 -20 -209 0 -334
43 -455 166 -468 59 -6 104 23 132 85 29 63 31 246 3 337 -29 96 -108 232
-157 271 -21 17 -61 23 -84 14z"/>
<path d="M2645 4229 c-17 -4 -44 -22 -60 -39 -27 -28 -30 -38 -30 -94 0 -81
29 -122 118 -166 113 -55 271 -63 394 -20 79 28 113 62 113 115 0 72 -33 99
-185 146 -211 66 -283 78 -350 58z"/>
<path d="M5280 3981 c-90 -29 -184 -103 -223 -176 -18 -33 -22 -56 -22 -140 0
-90 3 -106 29 -159 70 -142 169 -195 329 -175 128 16 226 79 283 181 26 48 29
62 29 143 0 78 -4 96 -27 140 -34 63 -74 105 -146 152 -53 35 -63 38 -142 40
-47 1 -96 -1 -110 -6z m139 -307 c8 -8 -37 -44 -55 -44 -22 0 -42 49 -25 60
13 8 67 -3 80 -16z"/>
<path d="M4223 3769 c-221 -43 -342 -264 -248 -450 49 -95 137 -143 262 -142
102 0 171 30 237 104 68 76 89 141 84 264 -6 128 -20 158 -92 191 -53 24 -140
45 -180 43 -11 -1 -40 -5 -63 -10z m67 -273 c0 -8 -7 -22 -16 -30 -34 -35 -60
-10 -27 26 19 22 43 24 43 4z"/>
<path d="M1143 3500 c-160 -29 -272 -115 -304 -234 -17 -63 -4 -158 32 -237
60 -129 184 -216 351 -245 142 -25 172 -34 208 -63 116 -93 202 -343 260 -756
12 -82 28 -177 36 -209 33 -130 134 -288 255 -400 183 -169 490 -251 934 -249
110 0 400 1 645 2 245 1 483 6 530 12 503 59 904 291 1070 619 83 164 98 375
41 580 -112 405 -373 620 -750 620 -205 0 -314 -42 -556 -215 -267 -190 -355
-228 -530 -229 -99 0 -120 3 -204 32 -52 18 -139 56 -195 84 -124 64 -494 312
-744 499 -209 156 -328 223 -515 288 -254 88 -443 122 -564 101z m232 -351
c272 -57 412 -128 745 -380 354 -268 510 -372 675 -450 364 -171 675 -198 954
-81 76 32 193 108 296 192 170 139 272 183 420 183 67 0 103 -5 142 -20 106
-42 203 -136 258 -252 89 -184 28 -457 -137 -618 -51 -49 -201 -140 -303 -182
-147 -62 -384 -108 -580 -113 -133 -3 -996 22 -1009 29 -6 4 -83 10 -171 14
-444 21 -558 114 -630 514 -29 162 -107 488 -141 593 -99 304 -256 458 -506
498 -51 9 -109 20 -129 25 -42 10 -92 46 -84 60 10 15 95 10 200 -12z"/>
<path d="M2240 2333 c-43 -17 -51 -63 -15 -98 28 -28 66 -32 89 -9 55 54 -1
135 -74 107z"/>
<path d="M2872 2074 c-35 -24 -30 -70 11 -94 41 -25 43 -25 72 5 30 29 32 58
5 85 -24 24 -57 26 -88 4z"/>
<path d="M3452 3390 c-38 -16 -69 -59 -132 -183 -63 -125 -73 -172 -42 -199
50 -43 99 -26 158 54 85 116 131 234 112 289 -15 45 -48 58 -96 39z"/>
<path d="M460 2034 c-30 -35 -16 -71 57 -151 83 -93 148 -140 207 -148 92 -14
143 52 99 127 -32 54 -261 188 -322 188 -15 0 -34 -7 -41 -16z"/>
<path d="M5365 1113 c-35 -9 -52 -33 -75 -104 -28 -85 -23 -140 14 -178 35
-35 94 -35 131 -1 45 42 59 79 59 162 1 65 -2 81 -20 98 -21 21 -74 33 -109
23z"/>
</g>
</svg>
