<?xml version="1.0" standalone="no"?>
<!DOCTYPE svg PUBLIC "-//W3C//DTD SVG 20010904//EN"
 "http://www.w3.org/TR/2001/REC-SVG-20010904/DTD/svg10.dtd">
<svg version="1.0" xmlns="http://www.w3.org/2000/svg"
 width="600.000000pt" height="600.000000pt" viewBox="0 0 600.000000 600.000000"
 preserveAspectRatio="xMidYMid meet">
<metadata>
Created by potrace 1.15, written by Peter Selinger 2001-2017
</metadata>
<g transform="translate(0.000000,600.000000) scale(0.100000,-0.100000)"
fill="#16364b" stroke="none">
<path d="M2388 5388 c-13 -10 -17 -45 -22 -170 -8 -190 -27 -323 -61 -423 -44
-131 -100 -197 -231 -275 -90 -53 -108 -82 -80 -124 25 -39 60 -33 160 26 148
89 238 209 281 378 26 99 44 280 45 431 0 119 -2 138 -18 152 -22 20 -52 22
-74 5z"/>
<path d="M3531 5254 c-35 -45 -35 -62 2 -138 57 -115 162 -206 237 -206 41 0
53 7 69 38 17 32 0 85 -51 161 -100 150 -206 210 -257 145z"/>
<path d="M3050 5101 c-116 -37 -200 -158 -200 -288 0 -121 74 -166 171 -105
92 59 189 204 189 284 0 74 -86 132 -160 109z m40 -126 c0 -29 -38 -90 -84
-135 l-46 -44 0 29 c0 16 9 48 21 72 32 66 109 121 109 78z"/>
<path d="M4767 4722 c-34 -21 -43 -55 -51 -189 -7 -114 6 -271 29 -350 18 -63
65 -119 105 -128 41 -9 86 18 112 68 19 37 22 57 22 162 -1 129 -22 240 -71
363 -35 87 -85 112 -146 74z"/>
<path d="M2663 4211 c-98 -45 -97 -163 2 -231 96 -66 213 -90 318 -66 78 18
112 38 133 77 19 38 18 68 -5 105 -16 26 -36 36 -157 76 -173 57 -233 65 -291
39z"/>
<path d="M5221 3970 c-91 -33 -140 -80 -183 -177 -29 -66 -28 -167 2 -248 30
-79 123 -172 195 -198 214 -74 444 104 447 347 1 62 -12 100 -56 159 -28 38
-148 117 -193 128 -63 14 -154 10 -212 -11z m155 -290 c26 -10 26 -11 9 -30
-24 -27 -54 -25 -64 3 -15 38 3 46 55 27z"/>
<path d="M1295 3757 c-153 -40 -235 -142 -222 -278 13 -148 125 -276 297 -338
155 -57 209 -180 320 -726 38 -185 54 -296 65 -426 15 -203 32 -282 85 -396
74 -160 170 -266 297 -329 43 -22 80 -40 82 -41 2 -1 -4 -15 -14 -30 -11 -16
-18 -45 -17 -71 2 -130 116 -162 509 -144 178 8 213 8 241 -5 24 -12 32 -22
32 -42 0 -32 31 -68 64 -77 28 -7 81 18 96 45 30 56 -5 143 -77 193 l-48 33
210 6 c116 4 282 5 370 2 88 -2 211 -1 274 4 104 8 116 7 138 -10 16 -13 47
-21 87 -24 75 -6 127 14 158 61 18 27 36 36 132 64 136 41 309 123 396 189
136 104 281 269 353 403 60 111 82 198 81 330 0 102 -4 125 -31 202 -78 224
-283 442 -480 509 -56 20 -88 24 -183 24 -178 -1 -305 -50 -430 -166 -154
-144 -325 -223 -572 -265 -95 -16 -119 -17 -207 -6 -183 23 -371 95 -539 205
-133 87 -190 145 -333 337 -327 439 -497 610 -687 689 -175 73 -349 103 -447
78z m248 -296 c142 -51 202 -89 307 -191 104 -102 207 -226 383 -460 202 -269
292 -349 513 -458 127 -64 267 -116 402 -149 149 -38 347 -39 467 -5 300 88
463 168 638 314 93 78 156 102 264 101 133 -2 240 -74 345 -232 143 -217 108
-394 -126 -633 -87 -90 -162 -143 -276 -200 -217 -107 -422 -148 -740 -150
-324 -2 -1123 22 -1222 37 -215 32 -326 96 -384 220 -37 80 -53 158 -68 340
-9 106 -26 219 -45 300 -16 72 -42 195 -56 275 -44 243 -82 373 -146 503 -96
194 -189 282 -353 333 -61 19 -122 66 -111 84 14 22 102 10 208 -29z m1087
-2331 c-75 -11 -196 -10 -155 0 17 4 71 8 120 7 83 0 86 0 35 -7z"/>
<path d="M2275 2406 c-11 -17 -13 -30 -6 -48 9 -25 55 -68 72 -68 20 0 49 42
49 70 0 63 -82 96 -115 46z"/>
<path d="M2870 2067 c-19 -9 -26 -22 -28 -49 -3 -30 2 -39 27 -57 37 -27 46
-26 76 4 58 58 -2 140 -75 102z"/>
<path d="M4187 3741 c-97 -39 -178 -127 -212 -230 -58 -177 76 -356 265 -355
194 2 336 185 316 407 -10 98 -31 131 -104 165 -77 35 -195 41 -265 13z m86
-281 c-7 -26 -41 -46 -55 -32 -7 7 -2 19 16 37 29 29 47 26 39 -5z"/>
<path d="M3460 3353 c-37 -34 -170 -269 -170 -300 0 -28 33 -63 59 -63 44 0
143 118 201 241 36 78 37 93 5 124 -31 32 -58 31 -95 -2z"/>
<path d="M454 2004 c-13 -19 -15 -32 -8 -48 14 -35 148 -151 206 -180 79 -38
108 -42 141 -16 39 31 36 65 -11 109 -46 43 -258 161 -289 161 -13 0 -30 -11
-39 -26z"/>
<path d="M5332 1116 c-60 -28 -102 -178 -68 -244 46 -90 155 -81 199 16 30 67
30 183 1 212 -27 27 -89 35 -132 16z"/>
</g>
</svg>
