<?xml version="1.0" standalone="no"?>
<!DOCTYPE svg PUBLIC "-//W3C//DTD SVG 20010904//EN"
 "http://www.w3.org/TR/2001/REC-SVG-20010904/DTD/svg10.dtd">
<svg version="1.0" xmlns="http://www.w3.org/2000/svg"
 width="600.000000pt" height="600.000000pt" viewBox="0 0 600.000000 600.000000"
 preserveAspectRatio="xMidYMid meet">
<metadata>
Created by potrace 1.15, written by Peter Selinger 2001-2017
</metadata>
<g transform="translate(0.000000,600.000000) scale(0.100000,-0.100000)"
fill="#16364b" stroke="none">
<path d="M3071 5613 c-40 -31 -110 -173 -136 -273 -33 -125 -6 -252 69 -333
45 -49 123 -77 233 -85 91 -7 96 -8 73 -21 -43 -24 -272 -192 -335 -245 -50
-42 -131 -117 -213 -196 -28 -27 -44 -80 -36 -123 5 -32 19 -53 63 -95 88 -85
182 -127 474 -213 95 -28 217 -66 272 -86 107 -37 154 -39 201 -8 82 54 86
187 7 243 -32 22 -200 79 -348 117 -174 45 -276 78 -272 89 6 19 209 185 307
250 52 35 137 85 188 112 150 78 202 132 202 213 0 82 -45 143 -142 192 -78
40 -160 57 -303 64 -145 7 -165 11 -165 30 0 8 20 60 45 115 50 111 55 152 26
208 -39 75 -143 97 -210 45z"/>
<path d="M1430 5369 c-175 -118 -396 -392 -477 -594 -110 -274 -98 -436 36
-476 35 -10 52 -7 174 29 139 42 324 82 378 82 l31 0 -87 -166 c-117 -224
-166 -338 -176 -409 -5 -33 -12 -74 -15 -91 -8 -43 18 -100 58 -124 63 -38
113 -29 323 60 297 127 383 177 406 237 26 70 -9 171 -71 204 -50 27 -98 24
-152 -10 -25 -16 -55 -34 -67 -40 -22 -12 -22 -12 -5 26 119 278 137 369 90
468 -75 161 -255 203 -550 129 -32 -8 -60 -13 -63 -11 -6 6 76 142 128 213 59
81 144 169 207 216 65 48 92 90 92 143 0 88 -65 155 -150 155 -39 0 -59 -7
-110 -41z"/>
<path d="M4685 4499 c-113 -15 -466 -138 -508 -177 -82 -78 -42 -221 70 -251
23 -6 47 -9 54 -7 8 2 78 28 156 57 79 29 145 50 149 47 15 -16 -118 -238
-251 -417 -59 -80 -111 -158 -116 -175 -18 -62 17 -127 86 -163 16 -9 41 -27
55 -42 17 -16 61 -37 116 -55 137 -44 367 -126 383 -135 21 -13 -39 -117 -242
-421 -42 -63 -51 -84 -55 -131 -4 -53 -2 -59 32 -96 64 -71 160 -78 217 -16
33 35 269 412 314 501 62 121 68 215 20 299 -31 51 -79 90 -173 137 -88 44
-311 134 -352 143 -35 7 -36 12 -11 44 103 134 249 384 285 491 80 239 -17
395 -229 367z"/>
<path d="M3768 3665 c-65 -44 -84 -138 -43 -215 35 -65 112 -120 169 -120 16
0 32 -9 41 -24 15 -22 15 -27 1 -55 -9 -16 -16 -39 -16 -51 0 -18 -6 -20 -63
-20 -175 0 -345 -102 -438 -264 -22 -40 -29 -63 -29 -108 0 -50 4 -62 31 -93
55 -63 147 -71 209 -18 17 14 47 50 66 79 52 82 81 96 184 89 76 -5 90 -4 130
17 51 26 90 84 90 135 0 22 6 33 19 38 63 20 114 119 114 222 0 104 -45 194
-146 290 -127 120 -237 154 -319 98z"/>
<path d="M2460 3615 c-78 -17 -256 -105 -314 -156 -47 -41 -71 -100 -60 -146
12 -51 46 -95 88 -114 57 -26 95 -24 159 10 94 50 181 80 237 83 l55 3 3 -59
c6 -116 -68 -296 -227 -550 -67 -108 -81 -137 -81 -170 1 -54 13 -73 87 -140
69 -60 123 -82 182 -71 20 3 115 28 210 55 96 27 177 47 180 45 9 -9 -24 -91
-93 -230 -60 -122 -69 -147 -69 -197 -1 -154 175 -251 306 -168 44 27 53 41
127 192 92 189 125 286 140 404 21 172 -29 292 -152 359 -51 29 -59 30 -173
30 -86 0 -136 -5 -179 -18 -32 -10 -60 -16 -62 -14 -2 2 11 39 30 83 153 352
115 629 -101 737 -92 46 -179 56 -293 32z"/>
<path d="M1105 3366 c-69 -22 -256 -147 -317 -212 -96 -103 -64 -255 64 -309
48 -19 121 -19 159 1 17 8 33 13 36 10 3 -3 -15 -90 -41 -193 -84 -344 -108
-483 -109 -628 -1 -147 9 -182 69 -234 41 -36 86 -50 184 -58 71 -5 77 -4 107
21 18 15 69 77 114 139 46 62 137 180 203 262 66 83 158 208 204 279 l84 129
14 -32 c30 -70 15 -189 -61 -491 -59 -236 -77 -345 -79 -475 -1 -153 27 -226
109 -280 34 -23 48 -26 95 -22 49 4 58 8 92 46 20 24 40 59 44 78 9 48 -1 111
-22 134 -28 31 -15 122 70 494 36 157 57 340 57 488 0 70 -3 132 -6 137 -3 5
-10 58 -15 117 -14 161 -60 238 -159 272 -45 15 -67 14 -131 -5 -71 -21 -167
-117 -275 -274 -121 -177 -227 -321 -232 -316 -2 2 7 51 21 108 61 254 92 477
76 571 -19 119 -72 196 -164 238 -48 22 -132 24 -191 5z"/>
<path d="M4688 2240 c-76 -23 -140 -91 -156 -165 -10 -47 -5 -46 -192 -27
-310 33 -563 -90 -645 -311 -22 -61 -36 -125 -60 -285 l-7 -42 -59 54 c-262
243 -574 128 -823 -303 -26 -46 -50 -81 -53 -78 -2 3 -11 61 -19 129 -24 211
-57 329 -126 443 -72 119 -189 155 -288 89 -84 -56 -106 -161 -57 -268 31 -67
55 -185 88 -421 12 -87 29 -186 39 -220 65 -227 203 -362 382 -373 76 -5 125
9 170 46 35 29 67 94 68 134 0 38 165 360 242 472 32 47 70 86 84 86 6 0 70
-54 140 -121 92 -85 148 -129 194 -152 60 -30 72 -32 165 -32 92 0 104 2 154
30 111 61 161 165 161 332 0 123 20 306 33 315 24 15 148 7 267 -17 212 -43
334 -29 443 51 58 42 120 135 139 207 7 28 13 97 13 152 -1 84 -4 108 -24 148
-48 99 -173 157 -273 127z"/>
</g>
</svg>
