<?xml version="1.0" standalone="no"?>
<!DOCTYPE svg PUBLIC "-//W3C//DTD SVG 20010904//EN"
 "http://www.w3.org/TR/2001/REC-SVG-20010904/DTD/svg10.dtd">
<svg version="1.0" xmlns="http://www.w3.org/2000/svg"
 width="600.000000pt" height="600.000000pt" viewBox="0 0 600.000000 600.000000"
 preserveAspectRatio="xMidYMid meet">
<metadata>
Created by potrace 1.15, written by Peter Selinger 2001-2017
</metadata>
<g transform="translate(0.000000,600.000000) scale(0.100000,-0.100000)"
fill="#16364b" stroke="none">
<path d="M1633 5800 c-18 -10 -39 -31 -49 -45 -21 -32 -80 -328 -93 -465 -26
-271 47 -426 198 -424 135 2 253 121 458 463 78 129 93 161 93 196 0 79 -71
145 -157 145 -57 0 -88 -29 -142 -131 -57 -108 -151 -268 -162 -275 -5 -3 -9
1 -9 8 1 23 39 248 56 328 10 45 14 91 10 111 -18 91 -124 138 -203 89z"/>
<path d="M3205 5591 c-43 -11 -84 -40 -101 -72 -21 -42 -18 -111 7 -143 11
-14 87 -71 168 -126 104 -70 171 -123 227 -182 l79 -83 -47 -5 c-79 -9 -128
-59 -128 -130 0 -57 32 -97 105 -132 128 -59 247 -46 323 36 102 111 68 256
-113 483 -81 101 -172 185 -284 261 -133 91 -175 108 -236 93z"/>
<path d="M845 5461 c-105 -28 -205 -115 -255 -223 -59 -128 -61 -257 -4 -372
44 -88 140 -177 206 -191 98 -22 192 72 173 173 -5 28 -23 52 -71 98 -62 60
-64 63 -64 111 0 60 29 110 79 135 27 13 50 16 116 11 l82 -6 38 34 c72 66 53
168 -39 213 -43 21 -206 32 -261 17z"/>
<path d="M2978 5169 c-87 -13 -160 -76 -206 -179 -79 -172 28 -340 215 -340
107 0 206 38 247 93 18 24 21 41 19 108 -5 215 -115 342 -275 318z"/>
<path d="M2285 4900 c-16 -5 -46 -27 -65 -49 -30 -34 -48 -45 -115 -64 -125
-37 -202 -75 -225 -112 -57 -93 18 -215 132 -215 20 0 72 11 115 25 43 13 110
33 149 44 128 37 194 111 194 217 0 112 -86 184 -185 154z"/>
<path d="M4785 4840 c-11 -4 -33 -22 -50 -40 l-30 -31 1 -177 c1 -162 4 -184
28 -258 41 -126 109 -204 209 -238 70 -24 115 -20 185 15 153 76 211 245 139
403 -34 73 -121 164 -222 231 -146 96 -205 118 -260 95z"/>
<path d="M2825 4110 c-162 -40 -245 -172 -190 -304 46 -109 220 -196 395 -196
138 0 376 75 429 135 53 61 53 149 0 210 -31 34 -115 73 -257 117 -140 43
-295 59 -377 38z"/>
<path d="M1000 4052 c-110 -49 -135 -198 -48 -279 39 -36 102 -53 202 -53 137
0 138 -4 26 -113 -53 -50 -177 -159 -275 -242 -240 -200 -280 -240 -294 -292
-45 -167 148 -292 287 -186 l34 25 26 -25 c15 -13 38 -30 51 -37 30 -15 111
-16 138 -1 18 9 22 7 33 -20 7 -17 43 -55 80 -84 80 -64 107 -103 121 -179 29
-159 -91 -395 -242 -475 l-46 -25 -51 22 c-62 27 -85 27 -139 3 -49 -23 -73
-62 -73 -122 0 -61 32 -103 108 -141 51 -26 74 -31 130 -30 202 1 418 178 529
432 51 116 66 202 61 339 -4 109 -6 122 -39 192 -44 91 -103 167 -169 216 -28
21 -50 40 -50 43 0 9 187 97 237 111 39 11 44 10 73 -15 39 -32 68 -40 126
-33 49 5 85 32 111 80 11 22 13 49 8 120 -8 116 -18 146 -58 184 -62 59 -105
67 -172 33 -39 -20 -208 -80 -225 -80 -5 0 13 29 39 64 81 106 106 167 109
266 3 79 1 89 -27 136 -52 89 -155 139 -334 163 -86 12 -263 14 -287 3z"/>
<path d="M4182 3764 c-151 -40 -252 -161 -252 -301 0 -121 64 -229 171 -288
48 -27 63 -30 139 -30 77 0 92 3 153 33 89 44 154 111 199 203 42 87 71 198
62 237 -12 50 -46 94 -88 112 -104 46 -282 62 -384 34z m108 -293 c0 -12 -40
-41 -57 -41 -24 0 -13 28 15 38 36 14 42 14 42 3z"/>
<path d="M3415 3396 c-49 -21 -112 -101 -165 -209 -54 -107 -60 -143 -32 -196
29 -59 62 -76 142 -73 90 2 141 24 192 81 149 168 118 396 -56 408 -29 2 -64
-3 -81 -11z"/>
<path d="M5109 3310 c-51 -15 -189 -112 -243 -170 -140 -151 -156 -331 -40
-446 80 -81 197 -93 322 -34 76 36 133 94 174 178 31 62 33 74 33 167 0 85 -3
106 -23 144 -39 74 -110 149 -151 161 -40 11 -37 11 -72 0z"/>
<path d="M2192 2580 c-63 -13 -131 -54 -198 -118 -107 -103 -266 -284 -281
-321 -8 -20 -37 -65 -63 -101 -61 -82 -162 -273 -201 -382 -154 -420 -39 -789
320 -1026 221 -145 414 -174 692 -104 250 64 393 154 530 336 108 143 149 225
215 424 125 378 152 557 105 703 -51 161 -179 264 -346 276 -64 5 -239 -9
-288 -23 -13 -4 -22 6 -38 43 -65 152 -136 236 -230 271 -67 25 -158 34 -217
22z m88 -467 c31 -96 60 -142 130 -206 89 -83 108 -86 310 -53 218 35 217 35
226 -10 4 -24 -1 -66 -15 -126 -23 -93 -129 -381 -186 -504 -69 -150 -180
-253 -319 -297 -57 -18 -94 -22 -191 -22 -117 0 -122 1 -195 37 -241 117 -317
281 -245 534 34 118 112 275 174 349 28 33 60 79 71 102 12 24 52 78 89 122
38 44 78 93 90 110 12 17 26 31 31 31 5 0 18 -30 30 -67z"/>
<path d="M4036 2445 c-75 -27 -135 -110 -136 -188 0 -21 7 -67 16 -103 9 -36
14 -67 11 -70 -3 -3 -14 -1 -25 5 -12 6 -46 11 -77 11 -95 0 -164 -50 -200
-145 -24 -61 -16 -206 20 -380 56 -269 92 -340 197 -385 92 -40 189 -11 243
73 29 45 31 46 84 46 85 1 130 20 187 76 65 65 79 111 71 243 -3 53 -20 162
-37 242 -17 80 -40 201 -51 270 -28 180 -42 221 -88 263 -61 55 -137 70 -215
42z"/>
</g>
</svg>
