<?xml version="1.0" standalone="no"?>
<!DOCTYPE svg PUBLIC "-//W3C//DTD SVG 20010904//EN"
 "http://www.w3.org/TR/2001/REC-SVG-20010904/DTD/svg10.dtd">
<svg version="1.0" xmlns="http://www.w3.org/2000/svg"
 width="600.000000pt" height="600.000000pt" viewBox="0 0 600.000000 600.000000"
 preserveAspectRatio="xMidYMid meet">
<metadata>
Created by potrace 1.15, written by Peter Selinger 2001-2017
</metadata>
<g transform="translate(0.000000,600.000000) scale(0.100000,-0.100000)"
fill="#16364b" stroke="none">
<path d="M3064 5611 c-43 -26 -70 -63 -114 -156 -40 -86 -70 -190 -70 -246 0
-93 63 -189 152 -231 61 -29 177 -58 240 -59 24 -1 54 -4 68 -8 22 -6 16 -12
-60 -55 -139 -80 -278 -179 -405 -288 -140 -121 -165 -153 -165 -215 0 -59 20
-94 77 -136 84 -61 153 -88 458 -182 83 -26 203 -65 267 -87 134 -46 167 -46
223 3 73 64 66 172 -14 224 -20 13 -137 58 -261 100 -124 43 -251 86 -283 97
-46 16 -55 23 -47 33 24 29 193 136 379 241 106 60 213 127 238 149 160 138
82 325 -167 399 -43 13 -249 32 -377 36 -24 0 -13 47 32 138 52 105 59 162 24
206 -44 57 -135 74 -195 37z"/>
<path d="M1524 5385 c-162 -49 -454 -371 -580 -639 -42 -91 -74 -207 -74 -268
1 -45 31 -110 65 -136 59 -47 82 -46 292 9 228 59 335 81 346 70 4 -4 -51
-124 -123 -267 -130 -259 -134 -270 -147 -404 -4 -46 -1 -60 19 -89 64 -94
126 -99 303 -22 120 52 286 141 379 203 65 44 88 76 93 135 5 61 -26 118 -82
150 -61 34 -108 30 -185 -16 -36 -22 -66 -38 -68 -37 -1 2 20 50 47 107 92
195 112 319 67 406 -47 92 -150 145 -281 144 -68 0 -239 -26 -309 -48 -18 -5
-18 -3 3 33 83 142 245 329 341 394 88 60 112 133 69 210 -35 63 -102 88 -175
65z"/>
<path d="M4618 4490 c-136 -24 -384 -125 -423 -172 -74 -87 -42 -219 59 -247
44 -11 37 -13 186 49 63 27 125 51 138 55 23 7 23 7 7 -26 -9 -17 -59 -103
-111 -191 -52 -87 -94 -161 -94 -163 0 -2 -23 -43 -51 -91 -28 -48 -56 -102
-61 -120 -14 -51 5 -106 50 -143 20 -17 48 -41 62 -54 35 -34 41 -37 280 -116
119 -40 221 -76 229 -80 19 -12 -34 -110 -181 -333 -112 -172 -124 -198 -119
-258 10 -111 186 -150 267 -59 83 92 262 412 310 552 29 86 31 175 5 232 -22
49 -83 106 -150 139 -38 20 -225 86 -399 142 -16 5 -3 29 126 234 102 161 156
273 178 366 19 81 13 132 -22 191 -43 74 -167 115 -286 93z"/>
<path d="M3780 3682 c-40 -21 -80 -90 -80 -137 1 -69 54 -159 114 -196 18 -11
49 -19 74 -19 36 0 44 -4 54 -25 9 -20 8 -36 -7 -79 l-19 -54 -80 -12 c-201
-29 -364 -133 -435 -276 -51 -102 11 -210 127 -222 67 -6 114 18 162 83 46 63
95 89 159 84 144 -9 189 3 237 66 18 24 29 52 32 86 4 40 10 53 33 70 15 11
43 50 61 87 30 60 33 75 33 157 0 77 -4 98 -27 148 -36 77 -118 155 -219 207
-98 51 -166 61 -219 32z"/>
<path d="M2508 3600 c-85 -15 -250 -71 -330 -111 -97 -49 -121 -81 -115 -155
4 -62 34 -107 87 -134 56 -29 91 -25 178 19 131 66 280 102 283 69 3 -43 -7
-96 -38 -193 -50 -155 -101 -267 -183 -404 -39 -65 -73 -134 -76 -153 -11 -68
76 -205 156 -246 60 -31 99 -25 252 39 112 47 230 89 252 89 16 0 -3 -59 -74
-236 -77 -192 -84 -237 -51 -309 22 -48 44 -69 94 -90 43 -18 68 -19 120 -4
81 22 131 95 241 353 62 144 88 249 89 353 0 76 -3 90 -34 151 -39 77 -95 122
-188 148 -66 20 -242 14 -331 -10 -30 -9 -55 -14 -57 -13 -1 2 16 45 38 96
133 309 143 544 28 660 -72 72 -210 105 -341 81z"/>
<path d="M1050 3356 c-108 -38 -248 -132 -291 -194 -15 -23 -24 -53 -27 -92
-7 -103 49 -184 145 -209 35 -10 51 -8 100 8 32 11 59 18 60 17 2 -1 -13 -85
-33 -187 -70 -364 -75 -400 -81 -589 -4 -126 -2 -198 6 -227 17 -63 70 -109
155 -135 90 -28 147 -27 192 4 35 24 137 172 220 318 93 166 326 510 345 510
3 0 12 -14 19 -31 15 -34 9 -94 -55 -559 -50 -366 -57 -437 -50 -494 20 -157
145 -252 257 -197 59 28 88 74 88 137 -1 27 -7 60 -15 74 -22 39 -18 131 15
342 71 450 89 664 71 822 -27 229 -46 283 -122 333 -154 102 -336 -37 -619
-475 -40 -62 -75 -111 -77 -108 -2 2 16 111 41 243 61 319 70 392 56 472 -14
83 -40 131 -89 170 -94 75 -192 90 -311 47z"/>
<path d="M4651 2238 c-55 -27 -97 -85 -111 -152 l-11 -52 -97 9 c-124 11 -310
2 -387 -18 -167 -44 -276 -126 -339 -258 -37 -75 -76 -238 -76 -312 0 -19 -3
-35 -7 -35 -5 0 -39 25 -77 56 -82 66 -126 89 -208 110 -78 20 -148 13 -225
-23 -108 -50 -281 -252 -375 -437 -29 -57 -32 -59 -39 -36 -4 14 -12 75 -19
135 -22 218 -88 406 -164 473 -98 86 -254 54 -307 -61 -25 -56 -24 -92 7 -157
34 -74 49 -143 73 -341 41 -335 88 -467 201 -573 79 -74 125 -91 251 -91 98 0
108 2 147 28 46 30 82 90 82 135 0 39 69 221 131 349 61 125 131 223 159 223
22 0 57 -28 196 -161 137 -130 204 -164 324 -164 76 0 91 3 139 30 70 39 121
98 155 182 22 56 29 93 37 208 6 77 13 167 17 200 l7 59 40 9 c27 5 104 1 234
-13 275 -30 364 -14 471 86 87 81 127 206 114 356 -8 94 -37 160 -87 203 -69
59 -176 73 -256 33z"/>
</g>
</svg>
