<?xml version="1.0" standalone="no"?>
<!DOCTYPE svg PUBLIC "-//W3C//DTD SVG 20010904//EN"
 "http://www.w3.org/TR/2001/REC-SVG-20010904/DTD/svg10.dtd">
<svg version="1.0" xmlns="http://www.w3.org/2000/svg"
 width="600.000000pt" height="600.000000pt" viewBox="0 0 600.000000 600.000000"
 preserveAspectRatio="xMidYMid meet">
<metadata>
Created by potrace 1.15, written by Peter Selinger 2001-2017
</metadata>
<g transform="translate(0.000000,600.000000) scale(0.100000,-0.100000)"
fill="#16364b" stroke="none">
<path d="M3135 5655 c-74 -27 -101 -88 -91 -209 9 -106 30 -187 69 -259 53
-101 140 -158 325 -213 50 -15 92 -30 92 -34 0 -7 -151 -98 -295 -178 -292
-161 -359 -213 -378 -293 -4 -17 -18 -31 -37 -39 -43 -18 -72 -64 -78 -121 -6
-67 30 -128 94 -159 51 -25 46 -25 400 4 138 11 166 16 193 35 40 29 61 70 61
121 0 81 -45 128 -134 139 l-51 6 62 43 c34 23 113 72 175 108 259 151 330
227 331 353 1 130 -88 213 -315 292 -191 67 -212 88 -220 222 -6 95 -25 137
-73 167 -44 26 -85 31 -130 15z"/>
<path d="M1284 5380 c-104 -52 -245 -198 -325 -337 -83 -145 -121 -293 -121
-470 0 -121 12 -174 46 -211 69 -77 197 -67 254 18 22 33 23 39 16 165 -5 102
-3 145 10 197 33 142 125 278 225 335 90 51 121 94 121 165 0 124 -114 193
-226 138z"/>
<path d="M1417 4994 c-106 -25 -144 -71 -135 -165 4 -37 12 -58 34 -80 51 -54
78 -62 177 -56 81 5 88 4 82 -11 -29 -71 -57 -168 -66 -228 -9 -59 -8 -81 5
-126 18 -63 72 -130 127 -159 21 -10 39 -21 39 -23 0 -3 -37 -22 -82 -44 -118
-57 -204 -116 -222 -151 -39 -75 -7 -182 67 -226 69 -40 110 -35 203 26 119
78 243 145 304 164 125 40 141 47 167 82 36 47 42 125 14 170 -31 49 -66 67
-127 67 -53 -1 -53 -1 -47 26 3 16 0 44 -7 64 -13 40 -71 96 -100 96 -28 0
-26 17 17 139 25 73 37 130 41 183 4 69 2 84 -22 132 -50 102 -126 136 -299
135 -62 0 -138 -7 -170 -15z"/>
<path d="M4505 4531 c-27 -4 -60 -13 -73 -20 -82 -45 -82 -201 0 -251 28 -17
50 -20 141 -20 61 0 107 -4 107 -10 0 -5 -58 -57 -129 -116 -134 -110 -161
-144 -161 -206 0 -76 69 -148 142 -148 51 0 59 5 208 118 173 132 258 220 305
315 34 69 37 81 33 141 -7 111 -68 165 -215 191 -80 15 -268 17 -358 6z"/>
<path d="M2570 3696 c-164 -38 -335 -111 -370 -158 -28 -38 -37 -107 -20 -148
18 -42 73 -88 117 -96 41 -8 61 -2 199 60 86 38 165 58 184 46 42 -26 -128
-412 -291 -660 -71 -107 -83 -132 -87 -177 -4 -43 0 -60 20 -95 22 -37 24 -52
20 -105 -4 -54 0 -71 22 -117 34 -70 79 -100 151 -101 44 0 71 9 176 62 140
70 201 97 242 107 22 5 27 3 27 -13 0 -51 -72 -227 -155 -381 -42 -79 -46
-135 -12 -200 35 -70 85 -103 161 -108 68 -4 107 9 147 51 36 37 167 315 211
447 40 119 42 131 42 250 1 120 0 127 -29 179 -51 92 -130 142 -252 161 -91
14 -208 1 -311 -34 -87 -29 -87 -36 4 115 92 154 167 306 201 407 37 115 40
251 6 324 -28 62 -101 138 -158 167 -56 28 -166 36 -245 17z"/>
<path d="M3926 3685 c-84 -30 -132 -94 -130 -175 1 -62 32 -117 104 -183 123
-115 300 -168 396 -119 69 35 104 88 104 156 0 40 -36 96 -73 114 -23 11 -27
19 -27 54 0 51 -30 101 -74 122 -89 42 -229 57 -300 31z"/>
<path d="M1127 3490 c-78 -25 -271 -135 -323 -185 -124 -118 -46 -304 129
-305 34 0 71 7 88 16 17 8 33 13 35 11 3 -3 -13 -65 -35 -138 -22 -74 -58
-208 -80 -299 -22 -91 -53 -209 -70 -263 -17 -53 -36 -135 -42 -182 -15 -106
-4 -149 52 -210 46 -49 102 -73 194 -81 49 -4 66 -2 91 14 40 26 268 311 409
512 118 169 212 290 226 290 12 0 11 -75 -1 -141 -6 -30 -22 -133 -36 -229
-13 -96 -40 -254 -59 -350 -77 -393 -71 -510 29 -584 42 -32 130 -29 183 6 55
37 78 86 67 152 -20 132 -10 220 56 486 39 159 66 310 96 528 14 102 14 145 5
261 -14 192 -42 257 -129 308 -98 58 -222 25 -324 -85 -47 -51 -106 -129 -307
-407 -28 -38 -51 -65 -51 -59 0 6 18 67 39 135 75 238 101 352 108 491 4 71 2
121 -6 150 -42 147 -180 211 -344 158z"/>
<path d="M4590 3252 c-54 -27 -83 -77 -77 -134 6 -67 25 -90 135 -161 53 -35
112 -80 130 -101 45 -51 40 -66 -57 -168 -39 -41 -45 -54 -49 -101 -5 -62 12
-105 55 -135 77 -53 142 -36 239 62 99 101 135 177 137 285 0 73 -3 87 -36
153 -55 111 -163 210 -309 284 -76 38 -117 42 -168 16z"/>
<path d="M3653 3240 c-123 -26 -234 -142 -288 -305 -36 -106 -22 -163 48 -205
74 -45 180 -16 222 62 19 36 20 36 85 37 123 2 213 39 261 109 35 52 34 144
-3 200 -52 78 -207 127 -325 102z"/>
<path d="M4545 2268 c-108 -40 -165 -124 -165 -243 0 -36 -1 -65 -2 -65 -2 0
-59 11 -128 25 -250 49 -406 23 -525 -86 -99 -91 -148 -215 -166 -419 -11
-129 -9 -320 5 -351 6 -13 -1 -18 -32 -23 -21 -3 -51 -15 -65 -26 -14 -11 -31
-20 -37 -20 -7 0 -50 27 -95 59 -46 33 -91 64 -102 69 -10 6 -64 48 -121 95
-137 113 -215 152 -303 152 -56 0 -73 -5 -114 -30 -61 -38 -108 -98 -136 -175
-12 -33 -24 -59 -26 -57 -2 2 -13 80 -24 173 -41 345 -57 402 -136 457 -80 56
-184 44 -238 -27 -43 -57 -47 -100 -26 -238 11 -67 25 -181 31 -253 18 -221
49 -347 113 -468 60 -115 208 -224 353 -261 77 -20 105 -20 152 0 88 36 142
134 122 219 -8 35 4 171 16 184 2 2 12 -4 23 -13 22 -20 202 -143 307 -211
145 -93 252 -107 369 -50 115 56 183 152 173 246 -3 31 -1 34 27 36 67 5 96
15 142 52 85 67 103 129 118 405 l8 128 41 -5 c23 -3 78 -17 122 -31 266 -84
503 -12 590 179 53 115 51 355 -4 465 -36 72 -99 113 -180 117 -31 1 -70 -3
-87 -9z"/>
</g>
</svg>
