<?xml version="1.0" standalone="no"?>
<!DOCTYPE svg PUBLIC "-//W3C//DTD SVG 20010904//EN"
 "http://www.w3.org/TR/2001/REC-SVG-20010904/DTD/svg10.dtd">
<svg version="1.0" xmlns="http://www.w3.org/2000/svg"
 width="600.000000pt" height="600.000000pt" viewBox="0 0 600.000000 600.000000"
 preserveAspectRatio="xMidYMid meet">
<metadata>
Created by potrace 1.15, written by Peter Selinger 2001-2017
</metadata>
<g transform="translate(0.000000,600.000000) scale(0.100000,-0.100000)"
fill="#16364b" stroke="none">
<path d="M2160 5803 c-116 -79 -642 -591 -684 -665 -16 -28 -30 -69 -33 -102
-5 -47 -2 -61 20 -99 66 -112 176 -122 427 -37 188 63 661 267 694 300 38 37
46 109 18 160 -21 39 -89 80 -133 80 -15 0 -105 -32 -201 -71 -95 -39 -180
-73 -188 -77 -28 -11 10 27 110 111 137 114 199 176 206 204 11 40 -2 109 -26
142 -45 64 -155 92 -210 54z"/>
<path d="M3054 5699 c-42 -12 -91 -69 -100 -115 -9 -48 9 -104 44 -137 18 -18
67 -41 131 -63 233 -79 373 -174 407 -276 25 -77 16 -184 -22 -245 -38 -61
-110 -115 -204 -153 -124 -50 -144 -62 -163 -103 -28 -55 -16 -112 34 -159 52
-50 102 -57 189 -28 197 66 315 164 395 325 48 99 67 175 66 278 0 157 -52
280 -165 393 -169 169 -494 319 -612 283z"/>
<path d="M927 5311 c-175 -90 -271 -220 -298 -404 -28 -190 58 -370 232 -486
70 -47 110 -57 166 -42 110 30 143 155 60 231 -18 16 -54 48 -80 72 -139 121
-119 256 51 342 85 43 130 118 119 199 -7 50 -33 87 -78 109 -51 27 -90 22
-172 -21z"/>
<path d="M2747 4970 c-189 -48 -330 -235 -314 -419 19 -215 161 -338 411 -357
90 -7 120 2 165 49 28 31 39 104 21 147 -19 46 -72 87 -122 94 -125 19 -168
44 -168 101 0 50 39 90 108 110 62 18 87 36 108 77 30 59 7 133 -57 181 -31
22 -98 30 -152 17z"/>
<path d="M4722 4896 l-47 -45 1 -113 c1 -196 52 -336 164 -449 49 -50 79 -71
125 -88 230 -87 432 121 356 365 -40 131 -118 204 -327 310 -105 53 -135 64
-176 64 -45 0 -54 -4 -96 -44z"/>
<path d="M1875 4507 c-82 -22 -156 -66 -222 -133 -43 -43 -65 -76 -73 -104
-27 -101 39 -200 135 -200 39 0 88 24 133 64 52 47 103 69 135 57 13 -5 39
-23 58 -40 97 -89 260 -25 259 101 -1 79 -89 186 -194 234 -66 30 -162 39
-231 21z"/>
<path d="M2725 3885 c-145 -53 -164 -257 -29 -316 24 -11 55 -19 67 -17 20 3
22 0 20 -49 -4 -95 -73 -230 -192 -376 -95 -116 -101 -127 -101 -170 0 -118
138 -209 237 -156 31 16 156 181 227 299 96 159 152 355 144 509 -7 135 -53
212 -157 263 -57 28 -159 34 -216 13z"/>
<path d="M1212 3798 c-40 -4 -123 -24 -185 -44 -93 -31 -119 -44 -153 -78
-122 -121 -52 -331 110 -331 28 0 61 4 73 8 20 7 12 -14 -56 -150 -87 -174
-233 -517 -282 -664 -39 -117 -42 -191 -10 -242 40 -65 112 -94 202 -82 42 6
68 20 152 83 159 117 262 211 387 349 163 181 278 299 284 292 9 -9 -22 -193
-55 -334 -39 -161 -106 -358 -215 -628 -50 -124 -84 -223 -84 -244 0 -42 31
-100 67 -127 15 -11 48 -21 77 -24 79 -6 111 22 159 133 21 50 72 160 114 245
112 231 167 415 224 750 11 69 25 150 31 180 13 71 4 243 -16 298 -37 102
-100 147 -206 146 -109 -2 -214 -69 -402 -256 -60 -58 -108 -104 -108 -101 0
4 30 63 67 132 107 201 142 277 159 344 28 109 4 207 -68 277 -62 60 -144 81
-266 68z"/>
<path d="M4275 3803 c-70 -10 -167 -46 -223 -83 -103 -69 -151 -152 -152 -261
0 -127 55 -216 172 -280 58 -31 70 -34 153 -34 79 0 97 3 148 29 72 35 153
113 196 188 51 91 111 247 111 291 0 48 -31 102 -70 122 -53 28 -231 42 -335
28z m-5 -318 c0 -11 -46 -45 -62 -45 -27 0 -22 17 10 34 27 15 52 20 52 11z"/>
<path d="M3505 3391 c-111 -28 -183 -127 -226 -308 -24 -101 -20 -152 16 -199
35 -46 81 -64 163 -64 269 0 445 228 334 433 -54 100 -186 164 -287 138z"/>
<path d="M4855 2821 c-39 -18 -121 -103 -198 -205 -128 -171 -143 -344 -37
-440 159 -144 440 21 505 295 19 81 19 170 1 212 -17 39 -113 133 -150 147
-39 15 -76 12 -121 -9z"/>
<path d="M4155 2468 c-56 -29 -85 -57 -106 -103 -25 -54 -23 -114 6 -214 14
-47 25 -97 25 -111 l0 -26 -102 34 c-181 61 -293 42 -389 -66 -109 -122 -131
-249 -84 -472 14 -69 35 -174 47 -235 23 -124 42 -169 92 -213 100 -87 260
-59 342 61 50 73 53 117 16 266 -17 69 -30 127 -28 129 2 2 26 -8 52 -22 143
-73 155 -78 207 -78 66 -1 157 25 208 59 50 33 94 103 115 183 13 51 15 96 12
210 -4 126 -10 165 -42 294 -21 82 -44 164 -52 182 -21 49 -73 105 -119 125
-56 26 -148 24 -200 -3z"/>
<path d="M2922 2305 c-29 -8 -76 -25 -105 -37 -95 -40 -462 -230 -484 -251
-20 -18 -26 -19 -68 -7 -98 27 -213 -10 -322 -105 -90 -79 -115 -172 -72 -262
28 -59 87 -93 165 -96 l58 -2 17 -80 c10 -44 18 -85 18 -92 1 -6 -20 -22 -46
-35 -60 -30 -143 -105 -182 -166 -80 -124 -81 -316 -4 -480 44 -94 136 -223
205 -287 81 -77 179 -125 333 -166 245 -64 448 -34 677 101 78 47 109 85 115
144 11 98 -47 191 -139 222 -72 24 -115 14 -250 -55 -108 -56 -123 -61 -181
-61 -67 0 -154 25 -214 60 -120 71 -219 208 -211 291 4 47 40 50 104 10 26
-17 51 -31 55 -31 4 0 30 -14 58 -31 149 -93 321 36 287 215 -5 26 -28 58 -79
114 -46 49 -82 99 -99 137 -30 66 -65 213 -70 289 -3 48 -2 50 27 57 39 9 69
22 280 124 159 77 195 92 195 82 0 -2 -13 -41 -29 -88 -40 -121 -95 -240 -156
-344 -79 -134 -87 -185 -42 -272 35 -67 125 -108 204 -94 78 15 111 48 185
186 73 138 120 242 162 364 110 316 103 449 -29 569 -31 28 -75 57 -102 67
-68 23 -195 29 -261 10z"/>
</g>
</svg>
