<?xml version="1.0" standalone="no"?>
<!DOCTYPE svg PUBLIC "-//W3C//DTD SVG 20010904//EN"
 "http://www.w3.org/TR/2001/REC-SVG-20010904/DTD/svg10.dtd">
<svg version="1.0" xmlns="http://www.w3.org/2000/svg"
 width="600.000000pt" height="600.000000pt" viewBox="0 0 600.000000 600.000000"
 preserveAspectRatio="xMidYMid meet">
<metadata>
Created by potrace 1.15, written by Peter Selinger 2001-2017
</metadata>
<g transform="translate(0.000000,600.000000) scale(0.100000,-0.100000)"
fill="#16364b" stroke="none">
<path d="M2165 5436 c-44 -20 -71 -54 -102 -127 -36 -85 -39 -202 -7 -246 54
-73 123 -93 319 -93 l134 0 -25 -62 c-14 -35 -52 -146 -86 -248 -88 -265 -85
-331 15 -383 85 -44 168 14 206 143 12 41 56 158 96 260 84 211 96 253 97 326
1 96 -60 181 -161 228 -36 16 -72 21 -168 24 l-121 4 5 34 c7 43 -18 101 -54
128 -33 24 -109 31 -148 12z"/>
<path d="M3604 5386 c-84 -26 -124 -74 -124 -147 0 -51 26 -98 73 -133 24 -18
41 -21 110 -19 102 3 113 0 126 -39 16 -46 -2 -132 -56 -262 -51 -125 -51
-154 -2 -211 53 -60 135 -70 199 -25 55 40 161 273 181 399 30 195 -82 382
-261 435 -64 19 -188 20 -246 2z"/>
<path d="M1702 4845 c-163 -30 -373 -97 -433 -138 -118 -81 -70 -258 74 -274
l45 -5 -5 -57 c-4 -47 -1 -61 19 -90 42 -62 60 -69 323 -122 138 -27 287 -61
331 -75 72 -23 86 -24 125 -14 119 32 157 178 68 261 -56 52 -239 99 -577 149
-46 7 -80 16 -75 21 22 22 172 49 276 49 76 0 117 4 137 15 125 65 91 244 -55
284 -52 14 -161 12 -253 -4z"/>
<path d="M4255 4396 c-110 -41 -133 -176 -42 -250 37 -29 43 -31 165 -37 146
-7 196 -23 213 -66 13 -33 7 -182 -12 -300 -12 -75 -11 -85 6 -123 24 -53 65
-82 126 -88 61 -6 111 22 132 76 38 94 62 308 46 417 -17 123 -43 181 -113
250 -95 95 -172 122 -371 131 -83 3 -120 1 -150 -10z"/>
<path d="M3255 4393 c-11 -3 -76 -28 -145 -57 -69 -29 -183 -75 -254 -101
-166 -63 -345 -153 -369 -186 -63 -89 5 -239 109 -239 17 0 73 21 125 46 115
56 210 96 442 185 98 38 192 78 209 90 78 56 75 189 -6 238 -34 20 -80 30
-111 24z"/>
<path d="M2160 3854 c-153 -39 -276 -56 -420 -59 -142 -2 -159 -6 -200 -49
-19 -21 -25 -40 -28 -89 -4 -74 16 -120 67 -154 32 -22 44 -23 205 -23 214 0
350 22 516 82 65 23 85 40 111 90 40 79 12 170 -64 207 -53 26 -68 26 -187 -5z"/>
<path d="M3705 3766 c-70 -20 -76 -22 -368 -152 -144 -64 -274 -125 -288 -135
-83 -58 -75 -195 13 -249 58 -35 88 -27 331 85 125 58 229 105 232 105 2 0 2
-13 -1 -29 -9 -41 27 -111 68 -135 43 -26 106 -25 152 3 28 17 46 44 81 114
56 113 74 189 57 244 -37 123 -151 184 -277 149z"/>
<path d="M4940 3357 c-54 -17 -107 -77 -126 -144 -14 -48 -15 -67 -5 -119 16
-89 14 -165 -6 -194 -9 -14 -75 -86 -147 -160 -140 -144 -185 -210 -237 -345
-45 -115 -62 -221 -57 -340 4 -76 10 -110 26 -140 45 -87 108 -128 198 -128
140 0 246 126 229 272 -8 67 3 116 48 210 25 53 60 96 177 216 157 162 195
219 224 336 9 36 16 92 16 125 0 98 -28 242 -57 296 -56 103 -172 150 -283
115z"/>
<path d="M2025 3197 c-37 -17 -83 -69 -91 -104 -15 -57 36 -142 100 -168 18
-7 103 -16 204 -20 l172 -7 0 -47 c0 -111 99 -177 205 -137 82 32 122 109 112
218 -10 110 -86 207 -196 250 -50 19 -79 22 -266 25 -164 3 -217 0 -240 -10z"/>
<path d="M4308 3146 c-20 -7 -61 -35 -90 -61 -183 -164 -436 -274 -690 -300
-78 -8 -121 -32 -150 -85 -37 -67 -11 -147 63 -199 31 -21 41 -23 119 -17 337
23 630 145 868 361 74 67 92 98 92 158 0 106 -111 181 -212 143z"/>
<path d="M1316 3009 c-44 -11 -98 -48 -122 -84 -40 -62 -36 -141 11 -214 29
-45 41 -122 55 -356 17 -276 55 -428 152 -602 72 -128 196 -167 306 -96 89 58
108 160 48 268 -79 143 -106 261 -135 575 -11 119 -27 248 -36 288 -36 157
-154 250 -279 221z"/>
<path d="M2074 2481 c-86 -31 -145 -71 -225 -150 -64 -63 -78 -83 -84 -118 -9
-55 7 -101 48 -140 68 -65 148 -61 226 12 59 55 119 95 142 95 10 0 21 -9 24
-20 11 -34 75 -89 112 -96 l34 -6 -48 -28 c-138 -79 -163 -369 -57 -652 45
-119 90 -167 165 -175 35 -4 51 0 78 19 85 58 98 132 43 250 -59 126 -61 241
-7 347 30 60 32 114 5 158 -19 32 -84 73 -117 73 -11 1 -5 8 18 20 126 67 121
196 -12 328 -73 72 -126 96 -219 99 -54 3 -89 -2 -126 -16z"/>
<path d="M3695 2165 c-38 -8 -144 -31 -235 -53 -193 -47 -295 -65 -480 -87
-158 -19 -190 -28 -232 -63 -120 -101 -69 -297 88 -332 66 -15 378 28 775 105
202 40 236 42 281 16 111 -65 253 -9 287 112 24 83 -6 167 -85 236 -86 75
-225 98 -399 66z"/>
<path d="M4675 1625 c-5 -2 -23 -6 -38 -10 -16 -3 -62 -37 -103 -76 -87 -83
-129 -103 -250 -123 -49 -8 -148 -24 -221 -36 -253 -40 -444 -103 -570 -187
-156 -105 -203 -162 -203 -248 0 -45 0 -45 -27 -38 -64 18 -119 8 -192 -36
-128 -78 -221 -101 -326 -82 -120 22 -252 101 -395 236 -102 97 -144 116 -220
96 -123 -33 -185 -164 -129 -274 26 -51 156 -178 259 -251 215 -154 444 -223
652 -197 104 14 157 30 253 78 148 73 225 155 225 241 0 41 1 42 28 35 15 -5
50 -8 78 -7 41 0 61 7 100 34 27 19 72 49 99 68 133 91 228 122 515 167 242
38 352 70 460 135 85 50 194 153 215 204 33 78 7 181 -56 228 -51 38 -116 56
-154 43z"/>
</g>
</svg>
