<?xml version="1.0" standalone="no"?>
<!DOCTYPE svg PUBLIC "-//W3C//DTD SVG 20010904//EN"
 "http://www.w3.org/TR/2001/REC-SVG-20010904/DTD/svg10.dtd">
<svg version="1.0" xmlns="http://www.w3.org/2000/svg"
 width="600.000000pt" height="600.000000pt" viewBox="0 0 600.000000 600.000000"
 preserveAspectRatio="xMidYMid meet">
<metadata>
Created by potrace 1.15, written by Peter Selinger 2001-2017
</metadata>
<g transform="translate(0.000000,600.000000) scale(0.100000,-0.100000)"
fill="#16364b" stroke="none">
<path d="M1711 5792 c-19 -9 -43 -28 -53 -42 -10 -14 -38 -104 -62 -200 -24
-96 -60 -233 -80 -304 -22 -79 -36 -151 -36 -185 1 -122 68 -192 192 -199 61
-4 76 -1 131 26 85 42 182 140 362 365 l147 182 -4 53 c-4 41 -11 59 -34 83
-53 57 -134 75 -194 44 -15 -8 -69 -71 -120 -140 -51 -69 -94 -124 -96 -123
-2 2 12 66 31 141 19 76 35 152 35 170 0 49 -32 99 -80 124 -52 28 -93 29
-139 5z"/>
<path d="M3053 5631 c-35 -22 -63 -67 -63 -102 0 -36 37 -102 72 -130 18 -14
119 -90 223 -168 210 -159 262 -205 306 -270 38 -58 38 -75 0 -68 -99 20 -207
-91 -180 -185 20 -70 99 -109 223 -109 111 0 187 45 235 142 68 136 29 289
-113 446 -47 52 -235 208 -450 373 -103 79 -112 84 -165 88 -43 2 -63 -1 -88
-17z"/>
<path d="M878 5421 c-151 -49 -276 -181 -318 -333 -19 -72 -9 -191 22 -258 43
-95 150 -198 230 -220 71 -21 159 29 179 102 16 62 -4 114 -66 173 -82 78 -93
117 -52 189 31 56 72 77 157 80 86 4 129 32 156 101 21 57 9 107 -36 150 -30
28 -37 30 -123 32 -68 2 -107 -2 -149 -16z"/>
<path d="M2912 5154 c-166 -83 -225 -313 -110 -425 55 -53 121 -73 217 -66
124 9 192 42 228 112 22 41 21 166 -1 231 -49 148 -200 215 -334 148z"/>
<path d="M4798 4860 c-42 -12 -86 -48 -105 -83 -13 -25 -17 -56 -16 -142 3
-189 54 -336 153 -436 118 -119 290 -119 393 1 75 88 89 229 32 339 -49 97
-173 211 -315 289 -63 35 -104 44 -142 32z"/>
<path d="M2065 4800 c-22 -4 -66 -18 -97 -30 -131 -49 -167 -176 -73 -259 48
-42 92 -48 163 -23 85 31 96 31 129 -4 72 -77 189 -57 240 40 24 46 12 139
-24 190 -46 65 -101 90 -208 93 -49 1 -108 -2 -130 -7z"/>
<path d="M2905 4100 c-130 -17 -198 -58 -240 -144 -23 -47 -27 -66 -23 -115 8
-107 74 -172 217 -214 134 -38 424 -34 591 10 121 31 172 140 111 239 -30 49
-306 180 -441 209 -88 19 -155 23 -215 15z"/>
<path d="M1095 4063 c-77 -9 -98 -16 -131 -45 -48 -42 -64 -78 -64 -140 0 -71
31 -125 90 -157 37 -21 56 -24 123 -23 43 1 77 -2 75 -7 -4 -13 -303 -382
-409 -506 -140 -164 -217 -271 -225 -310 -15 -80 10 -138 78 -183 39 -25 49
-27 152 -28 135 -2 146 2 316 120 127 89 314 206 329 206 5 0 29 -19 55 -43
l46 -43 0 -70 c0 -90 -29 -193 -91 -323 -102 -214 -235 -377 -359 -439 -102
-50 -142 -130 -106 -211 47 -102 176 -95 343 21 102 71 276 255 335 355 114
192 171 392 172 600 l1 133 25 5 c45 10 89 43 108 82 23 46 35 222 21 298 -11
61 -51 113 -109 143 -86 43 -157 23 -345 -97 -70 -45 -128 -81 -130 -79 -1 2
27 44 62 93 84 116 151 229 164 280 48 176 -46 320 -237 360 -63 13 -213 18
-289 8z"/>
<path d="M4268 3780 c-158 -29 -254 -89 -307 -193 -30 -58 -34 -76 -34 -139 0
-95 28 -161 94 -223 73 -68 127 -90 224 -90 104 0 170 31 248 115 64 69 96
131 131 257 43 154 32 219 -45 259 -36 18 -239 28 -311 14z m19 -325 c-28 -25
-57 -33 -57 -16 0 13 43 40 65 40 18 0 17 -2 -8 -24z"/>
<path d="M3369 3370 c-81 -43 -199 -229 -199 -314 0 -52 30 -101 80 -130 52
-31 188 -30 248 2 114 61 177 252 121 369 -41 85 -161 120 -250 73z"/>
<path d="M5007 3202 c-97 -56 -213 -191 -253 -297 -29 -78 -26 -186 8 -251 68
-130 204 -168 355 -99 184 82 253 309 154 502 -33 66 -101 141 -143 157 -52
22 -65 20 -121 -12z"/>
<path d="M3934 2536 c-54 -25 -81 -56 -114 -128 -26 -57 -25 -131 4 -243 13
-49 23 -91 21 -93 -1 -1 -17 4 -36 12 -56 23 -124 29 -181 16 -69 -17 -138
-84 -157 -153 -20 -70 -9 -137 63 -367 36 -113 78 -251 95 -306 26 -87 37
-107 70 -137 48 -43 100 -61 157 -53 96 13 172 77 199 168 8 28 15 57 15 64 0
8 25 13 73 15 168 9 285 115 302 276 10 87 -15 182 -96 370 -52 122 -77 197
-95 282 -39 182 -43 193 -88 237 -66 67 -145 80 -232 40z"/>
<path d="M2050 2384 c-80 -28 -140 -83 -292 -270 -36 -44 -73 -94 -81 -111 -9
-17 -36 -54 -61 -83 -100 -117 -160 -280 -192 -524 -40 -301 20 -525 186 -700
131 -137 348 -283 463 -310 120 -29 269 -25 402 9 89 23 310 137 384 197 145
119 263 297 386 583 91 213 132 454 101 607 -18 92 -51 153 -113 208 -125 110
-315 108 -590 -5 -46 -19 -87 -35 -92 -35 -5 0 -12 15 -15 33 -11 57 -54 137
-126 233 -78 104 -116 137 -190 165 -60 23 -109 24 -170 3z m141 -564 c27
-121 55 -175 124 -244 95 -94 144 -97 325 -16 129 58 251 108 293 120 24 8 27
6 27 -15 0 -114 -129 -486 -211 -607 -147 -218 -267 -298 -450 -298 -127 0
-265 65 -386 182 -95 93 -131 200 -118 352 14 161 65 301 154 420 28 38 51 73
51 78 0 11 57 84 104 136 l30 33 18 -23 c9 -13 27 -66 39 -118z"/>
</g>
</svg>
