<?xml version="1.0" standalone="no"?>
<!DOCTYPE svg PUBLIC "-//W3C//DTD SVG 20010904//EN"
 "http://www.w3.org/TR/2001/REC-SVG-20010904/DTD/svg10.dtd">
<svg version="1.0" xmlns="http://www.w3.org/2000/svg"
 width="600.000000pt" height="600.000000pt" viewBox="0 0 600.000000 600.000000"
 preserveAspectRatio="xMidYMid meet">
<metadata>
Created by potrace 1.15, written by Peter Selinger 2001-2017
</metadata>
<g transform="translate(0.000000,600.000000) scale(0.100000,-0.100000)"
fill="#16364b" stroke="none">
<path d="M1875 5801 c-22 -10 -50 -29 -61 -42 -28 -32 -266 -496 -299 -582
-53 -142 -24 -250 80 -298 79 -37 185 -13 331 75 143 85 436 326 475 390 28
46 25 113 -7 163 -30 46 -63 68 -115 78 -64 12 -110 -9 -205 -95 -49 -44 -92
-80 -96 -80 -9 0 -2 19 41 114 18 38 36 87 40 108 18 78 -27 158 -98 178 -45
12 -39 13 -86 -9z"/>
<path d="M3015 5696 c-51 -23 -77 -60 -83 -116 -7 -73 22 -112 129 -172 175
-97 291 -191 382 -310 117 -153 159 -276 101 -298 -14 -6 -37 -10 -52 -10 -15
0 -46 -9 -70 -20 -111 -50 -103 -229 12 -275 32 -13 51 -14 115 -5 174 24 288
132 320 303 17 91 -5 175 -80 308 -140 248 -327 423 -602 568 -83 43 -122 49
-172 27z"/>
<path d="M955 5409 c-149 -25 -259 -107 -320 -240 -98 -216 -31 -487 152 -608
56 -38 120 -42 171 -11 98 60 98 213 -1 290 -86 68 -88 217 -3 270 10 7 48 16
84 21 83 12 125 38 146 90 32 80 -17 165 -108 188 -49 12 -50 12 -121 0z"/>
<path d="M2916 5125 c-153 -54 -266 -299 -198 -430 46 -91 134 -139 252 -138
192 1 275 73 251 218 -6 33 -15 92 -21 132 -28 178 -144 268 -284 218z"/>
<path d="M4802 4890 c-43 -10 -103 -53 -125 -89 -27 -46 -32 -144 -13 -240 37
-182 140 -351 253 -418 97 -57 222 -23 309 85 82 99 104 218 62 329 -35 96
-178 223 -345 306 -58 29 -97 37 -141 27z"/>
<path d="M2020 4784 c-63 -12 -155 -51 -190 -82 -87 -74 -69 -196 37 -251 32
-17 86 -13 142 9 59 23 68 17 80 -57 10 -64 36 -106 81 -132 89 -50 205 -4
230 90 21 79 -34 246 -108 330 -63 71 -179 110 -272 93z"/>
<path d="M2900 4015 c-225 -64 -289 -266 -134 -422 93 -92 186 -118 429 -117
204 1 239 8 285 60 23 27 30 44 30 78 0 26 6 48 15 56 42 35 38 138 -6 194
-27 34 -133 88 -252 128 -114 38 -276 48 -367 23z"/>
<path d="M1115 4005 c-151 -28 -184 -44 -226 -112 -27 -43 -30 -132 -7 -178
35 -66 104 -105 188 -105 27 0 50 -3 50 -6 0 -3 -49 -66 -109 -138 -169 -205
-247 -324 -346 -531 -123 -258 -133 -344 -51 -442 19 -23 45 -38 82 -49 49
-14 59 -14 108 0 37 11 65 28 92 57 21 22 73 66 114 96 41 31 183 142 315 247
345 276 358 285 367 280 24 -15 -7 -191 -62 -356 -64 -190 -274 -625 -377
-778 -73 -110 -87 -148 -72 -203 21 -79 101 -128 184 -113 57 11 109 88 340
511 169 308 202 390 272 675 32 128 36 161 37 280 1 166 -16 229 -78 294 -102
105 -223 84 -436 -75 -177 -132 -172 -130 -89 -24 175 225 239 394 194 512
-26 68 -86 128 -151 153 -65 24 -223 26 -339 5z"/>
<path d="M4261 3784 c-136 -29 -247 -109 -300 -216 -77 -153 -6 -341 155 -415
49 -22 66 -25 129 -21 184 12 319 149 384 391 47 175 11 242 -146 266 -91 14
-142 13 -222 -5z m29 -329 c-13 -14 -33 -25 -44 -25 -19 1 -19 3 7 25 39 35
69 34 37 0z"/>
<path d="M3433 3418 c-25 -5 -54 -22 -73 -41 -53 -54 -150 -274 -150 -342 0
-43 30 -96 69 -122 29 -20 47 -23 125 -23 108 0 153 17 207 77 74 82 102 236
60 329 -22 49 -92 111 -140 124 -41 11 -41 11 -98 -2z"/>
<path d="M4972 3086 c-36 -19 -163 -135 -205 -186 -21 -25 -50 -70 -65 -100
-23 -47 -27 -68 -27 -140 0 -91 12 -126 60 -175 46 -45 85 -59 160 -59 240 1
429 289 334 510 -22 53 -94 132 -136 150 -40 17 -91 17 -121 0z"/>
<path d="M3936 2615 c-56 -20 -87 -45 -120 -99 -45 -72 -45 -120 -1 -285 21
-78 36 -143 33 -146 -3 -3 -26 4 -51 15 -114 51 -216 32 -302 -54 -28 -28 -62
-73 -75 -101 -22 -44 -25 -63 -24 -155 0 -96 4 -114 38 -210 21 -58 56 -163
78 -235 56 -185 67 -212 94 -245 58 -68 176 -92 264 -53 48 21 105 78 122 122
15 39 12 130 -6 180 -9 24 -16 45 -16 47 0 3 19 -6 43 -18 129 -68 323 16 395
172 51 109 43 191 -45 470 -31 96 -73 233 -95 305 -22 71 -48 146 -59 166 -26
51 -94 107 -153 124 -60 18 -70 18 -120 0z"/>
<path d="M1985 2218 c-99 -36 -203 -144 -280 -292 -38 -74 -47 -148 -22 -196
13 -23 11 -29 -20 -71 -106 -148 -163 -393 -150 -644 7 -133 25 -204 77 -311
111 -228 456 -416 790 -431 97 -5 129 -2 200 16 212 53 401 187 475 335 25 50
32 120 16 161 -6 14 24 84 115 268 167 339 201 455 192 649 -4 88 -9 106 -39
166 -42 82 -94 124 -191 153 -135 41 -249 13 -527 -128 -101 -52 -185 -92
-186 -91 -2 2 -13 41 -25 88 -44 176 -130 299 -228 328 -48 15 -156 14 -197 0z
m995 -595 c0 -27 -54 -221 -79 -286 -36 -90 -102 -231 -143 -300 -33 -57 -44
-110 -30 -160 9 -32 7 -40 -19 -76 -35 -47 -115 -102 -180 -124 -175 -59 -381
-7 -520 132 -90 90 -104 132 -104 311 0 165 18 219 99 308 29 31 60 68 69 81
12 18 17 21 21 10 2 -8 14 -50 25 -94 34 -123 65 -181 115 -210 114 -67 261
15 284 158 l7 42 130 67 c128 66 303 147 318 148 4 0 7 -3 7 -7z"/>
</g>
</svg>
