<?xml version="1.0" standalone="no"?>
<!DOCTYPE svg PUBLIC "-//W3C//DTD SVG 20010904//EN"
 "http://www.w3.org/TR/2001/REC-SVG-20010904/DTD/svg10.dtd">
<svg version="1.0" xmlns="http://www.w3.org/2000/svg"
 width="600.000000pt" height="600.000000pt" viewBox="0 0 600.000000 600.000000"
 preserveAspectRatio="xMidYMid meet">
<metadata>
Created by potrace 1.15, written by Peter Selinger 2001-2017
</metadata>
<g transform="translate(0.000000,600.000000) scale(0.100000,-0.100000)"
fill="#16364b" stroke="none">
<path d="M3069 5667 c-73 -49 -98 -129 -63 -202 17 -36 130 -135 279 -244 162
-119 255 -217 255 -270 0 -50 -108 -138 -290 -235 -85 -46 -101 -52 -111 -39
-21 25 -66 43 -108 43 -80 0 -319 -131 -381 -209 -125 -159 -76 -357 102 -415
97 -31 183 -15 226 43 51 69 47 164 -8 214 -24 22 -29 31 -20 41 17 22 71 41
78 29 4 -6 23 -20 42 -32 63 -38 107 -30 285 54 185 88 246 126 332 208 116
111 166 226 144 334 -26 130 -150 291 -346 448 -49 40 -128 108 -175 152 -47
44 -95 85 -107 91 -36 19 -97 14 -134 -11z"/>
<path d="M1895 5463 c-51 -12 -125 -94 -125 -137 0 -10 -48 -86 -106 -170
-142 -202 -169 -258 -169 -356 0 -96 29 -146 108 -187 48 -26 60 -28 162 -27
103 0 215 19 446 75 140 34 161 224 31 282 -52 22 -49 23 -289 -32 -46 -10
-83 -15 -83 -11 0 4 36 52 79 106 99 120 141 197 148 269 13 130 -81 217 -202
188z"/>
<path d="M1068 5299 c-132 -70 -240 -194 -288 -332 -31 -86 -38 -249 -16 -337
20 -79 74 -192 117 -244 77 -92 198 -87 256 11 35 61 29 126 -20 207 -104 169
-58 330 125 437 40 23 78 54 89 72 39 64 15 159 -51 205 -53 36 -118 30 -212
-19z"/>
<path d="M4602 4750 c-73 -44 -93 -136 -47 -205 24 -34 25 -39 10 -55 -26 -29
-36 -79 -24 -124 8 -29 29 -59 73 -103 105 -103 238 -154 346 -133 195 37 301
221 220 380 -54 105 -176 179 -400 240 -94 25 -136 25 -178 0z"/>
<path d="M1845 4316 c-139 -32 -254 -96 -348 -194 -90 -95 -97 -187 -21 -259
71 -67 139 -57 231 33 41 40 91 76 129 95 59 28 69 29 168 27 117 -3 138 5
184 73 46 67 8 169 -78 210 -57 27 -181 34 -265 15z"/>
<path d="M2680 3763 c-145 -13 -331 -61 -368 -96 -95 -88 -53 -239 75 -267 25
-6 58 -2 119 15 116 32 224 49 235 38 14 -14 -17 -108 -67 -201 -57 -106 -240
-392 -311 -485 -29 -39 -58 -87 -63 -107 -26 -98 64 -199 167 -187 23 2 53 12
67 20 54 36 337 449 432 632 73 140 98 227 98 345 0 112 -22 170 -86 224 -59
51 -180 79 -298 69z"/>
<path d="M4077 3740 c-62 -16 -133 -57 -166 -97 -118 -144 -48 -360 147 -451
79 -37 194 -38 266 -3 111 55 225 215 213 302 -3 22 -12 48 -21 58 -9 9 -19
32 -22 50 -10 51 -69 106 -134 126 -65 19 -229 28 -283 15z"/>
<path d="M1098 3601 c-63 -20 -195 -89 -246 -127 -46 -36 -72 -92 -72 -159 0
-124 82 -202 204 -193 34 3 69 9 79 13 17 7 17 6 1 -36 -10 -24 -52 -123 -94
-219 -93 -212 -120 -283 -159 -420 -77 -268 -69 -364 35 -430 55 -34 155 -54
203 -40 44 12 60 28 200 190 63 74 168 189 231 255 63 66 159 173 213 238 54
64 100 117 104 117 12 0 -7 -180 -32 -296 -14 -66 -45 -184 -70 -264 -47 -150
-135 -555 -135 -618 0 -110 129 -178 230 -121 64 36 64 38 158 534 12 61 33
148 47 195 104 347 131 491 122 660 -7 141 -34 226 -90 284 -80 84 -186 84
-302 1 -61 -43 -105 -90 -298 -314 -49 -56 -90 -101 -93 -99 -2 2 24 70 56
152 103 256 123 327 124 436 1 81 -2 101 -22 138 -27 52 -71 94 -120 118 -54
27 -199 30 -274 5z"/>
<path d="M3564 3292 c-119 -42 -210 -157 -250 -316 -21 -83 -13 -129 30 -172
52 -52 134 -65 191 -29 11 7 61 18 110 24 194 26 299 115 298 253 -2 137 -110
241 -265 254 -46 3 -77 0 -114 -14z"/>
<path d="M4741 2928 c-45 -22 -97 -84 -118 -141 -18 -49 -15 -148 5 -215 46
-145 159 -252 268 -252 52 0 117 41 140 87 42 87 10 232 -60 274 l-35 20 21
43 c25 53 19 101 -19 147 -51 61 -127 75 -202 37z"/>
<path d="M2995 2543 c-111 -16 -264 -69 -487 -169 -147 -65 -170 -82 -198
-141 -61 -130 37 -268 190 -267 46 0 75 10 185 63 160 77 272 123 290 119 23
-5 -39 -174 -132 -358 -94 -185 -101 -222 -60 -295 34 -60 87 -87 168 -83 114
6 147 37 253 243 150 291 215 567 162 690 -65 152 -196 222 -371 198z"/>
<path d="M4422 2345 c-81 -25 -136 -85 -156 -170 -4 -16 -2 -67 5 -112 7 -46
10 -85 7 -88 -2 -3 -38 6 -78 20 -251 85 -409 68 -528 -59 -94 -99 -128 -207
-118 -371 26 -423 29 -441 89 -503 50 -53 101 -74 173 -74 77 1 133 27 173 82
49 68 55 108 43 307 -6 98 -9 179 -8 181 5 4 141 -51 191 -77 83 -44 266 -21
362 45 61 42 94 83 131 162 24 50 27 72 30 182 4 134 -20 294 -54 365 -25 53
-88 102 -146 114 -59 13 -62 13 -116 -4z"/>
<path d="M2105 1841 c-103 -47 -143 -165 -92 -262 13 -25 43 -118 66 -207 46
-180 90 -302 142 -388 46 -77 147 -184 217 -230 31 -21 93 -65 137 -99 91 -68
347 -196 440 -220 145 -37 317 4 425 101 76 69 92 190 35 275 -59 90 -143 102
-251 36 -85 -53 -110 -50 -255 24 l-119 61 -46 96 c-91 191 -165 273 -271 301
-40 11 -40 11 -58 88 -62 278 -80 326 -142 385 -58 55 -156 72 -228 39z"/>
</g>
</svg>
