<?xml version="1.0" standalone="no"?>
<!DOCTYPE svg PUBLIC "-//W3C//DTD SVG 20010904//EN"
 "http://www.w3.org/TR/2001/REC-SVG-20010904/DTD/svg10.dtd">
<svg version="1.0" xmlns="http://www.w3.org/2000/svg"
 width="600.000000pt" height="600.000000pt" viewBox="0 0 600.000000 600.000000"
 preserveAspectRatio="xMidYMid meet">
<metadata>
Created by potrace 1.15, written by Peter Selinger 2001-2017
</metadata>
<g transform="translate(0.000000,600.000000) scale(0.100000,-0.100000)"
fill="#16364b" stroke="none">
<path d="M2276 5600 c-113 -29 -225 -123 -277 -235 -48 -101 -52 -143 -54
-520 -1 -192 -7 -435 -13 -540 -20 -323 -32 -608 -39 -913 -6 -262 -8 -292
-22 -287 -41 15 -176 104 -232 152 -34 30 -93 90 -130 134 l-69 80 24 36 c25
36 25 63 0 63 -7 0 -18 -9 -24 -20 -18 -34 -30 -13 -30 51 0 51 -3 60 -17 57
-9 -2 -23 -22 -31 -45 -7 -24 -17 -43 -21 -43 -4 0 -15 16 -24 35 -16 33 -39
45 -51 26 -3 -5 1 -27 9 -50 15 -45 11 -49 -23 -25 -22 15 -52 13 -52 -4 0 -4
26 -39 58 -78 31 -38 74 -94 94 -124 56 -84 190 -222 277 -288 42 -32 116 -78
164 -103 60 -30 87 -50 87 -62 0 -10 -8 -84 -17 -165 -35 -308 -19 -676 38
-882 57 -210 203 -431 345 -525 62 -42 186 -90 258 -100 l48 -8 -6 -41 c-29
-187 -12 -351 58 -558 25 -72 43 -136 40 -140 -3 -4 -32 -8 -64 -8 -109 0
-172 -43 -172 -117 0 -100 158 -131 301 -59 107 55 126 133 66 282 -57 141
-77 234 -82 374 -2 79 1 147 9 185 l13 60 40 -1 c22 0 119 -6 215 -14 117 -8
269 -11 460 -7 l286 5 0 -126 c0 -135 15 -230 66 -440 16 -67 28 -129 25 -136
-4 -10 -31 -15 -97 -17 -91 -4 -92 -4 -126 -41 -54 -60 -43 -129 25 -158 47
-19 175 -9 239 19 117 52 146 143 99 307 -67 232 -91 429 -66 544 l11 50 96 0
c177 0 279 16 357 54 115 57 212 166 255 288 45 129 53 221 54 598 0 338 -1
359 -22 435 -39 141 -104 260 -205 378 -27 32 -48 60 -45 62 2 2 46 18 98 36
247 82 422 209 560 406 51 74 61 103 35 103 -9 0 -12 6 -9 15 9 22 -23 29 -51
11 -33 -22 -35 -21 -33 16 4 50 -23 48 -49 -4 l-21 -43 -7 28 c-5 19 -13 27
-24 25 -17 -4 -19 -28 -7 -88 6 -32 3 -39 -41 -85 -66 -69 -143 -126 -238
-175 -86 -44 -242 -97 -309 -106 l-41 -6 -192 196 c-210 213 -255 248 -508
398 -364 216 -457 299 -554 496 -92 186 -133 371 -161 732 -21 269 -69 414
-176 529 -77 84 -155 121 -260 127 -44 2 -96 -1 -118 -6z m202 -169 c79 -40
141 -142 167 -273 8 -40 24 -169 35 -287 33 -331 66 -486 142 -654 115 -257
204 -348 548 -564 327 -205 357 -229 598 -467 330 -326 428 -450 494 -627 29
-80 31 -93 40 -309 10 -246 -1 -491 -29 -615 -38 -171 -126 -259 -285 -284
-78 -13 -637 -31 -938 -31 -146 1 -262 6 -330 16 -58 8 -161 19 -230 24 -227
16 -346 63 -452 179 -97 106 -168 256 -209 444 -30 137 -36 418 -14 612 11
100 20 291 25 575 5 234 13 493 19 575 20 281 36 719 37 1040 1 349 10 440 50
522 62 129 212 185 332 124z"/>
<path d="M2576 2919 c-33 -26 -34 -62 -1 -94 31 -32 58 -32 84 1 33 42 27 80
-16 103 -30 15 -36 14 -67 -10z"/>
<path d="M3192 2880 c-28 -26 -28 -54 0 -80 33 -31 73 -30 101 2 20 23 23 68
5 86 -19 19 -82 14 -106 -8z"/>
<path d="M2723 1984 c-2 -7 -3 -23 -1 -36 5 -36 72 -47 348 -58 135 -5 259
-12 277 -16 25 -5 33 -2 42 13 15 30 2 62 -33 80 -32 17 -64 19 -444 27 -144
3 -185 1 -189 -10z"/>
</g>
</svg>
