<?xml version="1.0" standalone="no"?>
<!DOCTYPE svg PUBLIC "-//W3C//DTD SVG 20010904//EN"
 "http://www.w3.org/TR/2001/REC-SVG-20010904/DTD/svg10.dtd">
<svg version="1.0" xmlns="http://www.w3.org/2000/svg"
 width="600.000000pt" height="600.000000pt" viewBox="0 0 600.000000 600.000000"
 preserveAspectRatio="xMidYMid meet">
<metadata>
Created by potrace 1.15, written by Peter Selinger 2001-2017
</metadata>
<g transform="translate(0.000000,600.000000) scale(0.100000,-0.100000)"
fill="#16364b" stroke="none">
<path d="M1846 5805 c-72 -26 -96 -63 -219 -345 -64 -146 -123 -288 -132 -315
-41 -137 4 -240 122 -275 109 -33 265 44 492 243 101 90 228 224 250 264 15
30 14 108 -3 141 -35 67 -107 100 -177 82 -31 -9 -64 -34 -135 -102 -52 -50
-94 -87 -94 -81 0 5 18 54 40 108 23 56 40 115 40 137 0 109 -89 178 -184 143z"/>
<path d="M2983 5681 c-46 -29 -66 -74 -60 -135 5 -60 20 -74 213 -216 231
-170 404 -357 440 -477 17 -56 7 -73 -45 -73 -82 0 -145 -59 -145 -138 0 -57
23 -99 72 -132 30 -21 47 -25 106 -24 93 1 161 30 221 95 73 79 90 125 90 249
-1 170 -46 266 -209 437 -129 135 -243 231 -408 339 -121 80 -138 88 -188 92
-42 2 -62 -2 -87 -17z"/>
<path d="M915 5419 c-128 -44 -262 -159 -315 -270 -74 -157 -34 -353 100 -485
100 -100 179 -126 258 -85 48 25 72 67 72 126 0 60 -18 93 -79 144 -92 77
-102 173 -26 240 20 17 39 31 43 31 53 2 138 23 163 41 61 43 79 147 36 210
-46 69 -138 87 -252 48z"/>
<path d="M2902 5154 c-90 -45 -162 -160 -170 -276 -4 -59 -1 -75 22 -122 28
-56 66 -92 126 -117 51 -21 210 -17 279 7 78 27 96 56 94 147 -7 290 -166 453
-351 361z"/>
<path d="M4807 4890 c-40 -12 -94 -56 -112 -90 -10 -20 -15 -59 -15 -125 0
-246 96 -447 249 -522 73 -36 174 -39 237 -6 122 65 175 217 124 360 -52 147
-169 274 -332 358 -54 28 -111 38 -151 25z"/>
<path d="M1963 4820 c-36 -12 -77 -34 -97 -53 -69 -66 -68 -169 3 -228 47 -38
89 -45 150 -25 90 29 101 21 101 -77 0 -96 57 -152 152 -151 141 2 208 125
163 297 -26 100 -88 177 -180 225 -69 36 -202 41 -292 12z"/>
<path d="M1115 4051 c-115 -20 -150 -36 -193 -85 -106 -121 -24 -305 136 -306
28 0 52 -2 52 -5 0 -2 -60 -84 -133 -182 -192 -256 -201 -272 -388 -672 -52
-112 -58 -173 -21 -234 43 -69 137 -104 225 -85 38 8 61 22 105 64 32 30 112
96 179 147 67 50 176 134 242 186 160 125 363 271 379 271 18 0 15 -85 -7
-173 -29 -113 -93 -268 -191 -465 -128 -256 -209 -388 -360 -586 -114 -149
110 -325 247 -194 102 97 301 445 475 828 140 308 160 383 161 600 0 168 -8
208 -60 282 -64 93 -206 114 -334 50 -35 -17 -111 -66 -168 -107 -58 -41 -106
-73 -108 -71 -3 2 27 46 65 98 100 134 163 235 184 295 53 152 -15 306 -154
348 -68 20 -205 18 -333 -4z"/>
<path d="M2887 4059 c-82 -19 -164 -82 -188 -146 -15 -39 -10 -115 10 -158 65
-143 245 -215 535 -215 177 0 296 22 343 63 71 62 93 159 53 225 -17 27 -46
45 -143 91 -166 79 -277 120 -365 137 -81 15 -186 17 -245 3z"/>
<path d="M4171 3780 c-122 -33 -183 -78 -234 -174 -19 -35 -22 -57 -22 -151 0
-97 3 -116 24 -158 97 -190 332 -225 496 -76 113 104 244 358 232 450 -13 101
-57 122 -267 126 -130 2 -167 0 -229 -17z m77 -327 c-28 -27 -60 -24 -36 4 13
16 50 33 57 27 3 -3 -7 -16 -21 -31z"/>
<path d="M3447 3398 c-65 -17 -136 -93 -196 -208 -49 -95 -53 -106 -49 -157 4
-46 10 -60 40 -90 32 -31 44 -36 116 -46 99 -13 146 -1 201 49 21 19 49 58 62
87 20 45 24 68 24 164 0 97 -3 115 -21 139 -45 61 -105 82 -177 62z"/>
<path d="M5005 3149 c-41 -12 -193 -128 -233 -178 -123 -154 -128 -355 -12
-471 102 -102 277 -85 393 39 76 82 118 190 120 309 1 108 -23 171 -92 240
-69 70 -105 82 -176 61z"/>
<path d="M3883 2624 c-52 -19 -118 -89 -132 -140 -18 -65 -13 -104 37 -252 44
-132 47 -143 28 -137 -145 41 -192 43 -265 6 -52 -27 -116 -102 -136 -159 -9
-26 -19 -80 -22 -121 l-6 -74 -20 54 c-28 75 -107 152 -177 173 -62 19 -158
21 -215 5 -45 -13 -259 -104 -416 -177 l-106 -50 -13 72 c-31 175 -92 308
-177 386 -154 140 -344 84 -503 -150 -57 -84 -110 -198 -110 -238 0 -20 -11
-50 -29 -75 -42 -61 -105 -192 -129 -267 -43 -136 -57 -259 -42 -395 34 -329
154 -527 411 -683 134 -82 265 -120 439 -129 257 -12 455 60 614 225 50 51
136 168 136 184 0 5 18 39 40 76 53 86 111 208 144 299 33 95 123 432 146 553
10 53 19 80 19 62 3 -104 80 -371 141 -491 68 -134 208 -196 325 -142 47 21
111 88 132 138 17 42 19 126 3 167 -6 16 -9 30 -8 32 2 1 25 -4 52 -13 41 -14
59 -14 103 -5 139 29 238 105 268 205 33 111 13 241 -72 470 -25 67 -72 201
-104 297 -33 96 -71 192 -84 212 -52 79 -177 117 -272 82z m-1814 -896 c6 -35
20 -126 32 -202 24 -160 42 -205 100 -243 81 -53 161 -36 339 73 168 102 433
234 445 222 6 -6 -122 -378 -169 -490 -68 -165 -120 -263 -165 -311 -84 -90
-208 -134 -351 -124 -72 5 -97 12 -165 46 -135 67 -227 157 -265 259 -30 79
-38 231 -17 333 21 99 46 165 97 249 26 42 44 86 47 112 5 45 41 138 54 138 4
0 12 -28 18 -62z"/>
</g>
</svg>
