<?xml version="1.0" standalone="no"?>
<!DOCTYPE svg PUBLIC "-//W3C//DTD SVG 20010904//EN"
 "http://www.w3.org/TR/2001/REC-SVG-20010904/DTD/svg10.dtd">
<svg version="1.0" xmlns="http://www.w3.org/2000/svg"
 width="600.000000pt" height="600.000000pt" viewBox="0 0 600.000000 600.000000"
 preserveAspectRatio="xMidYMid meet">
<metadata>
Created by potrace 1.15, written by Peter Selinger 2001-2017
</metadata>
<g transform="translate(0.000000,600.000000) scale(0.100000,-0.100000)"
fill="#16364b" stroke="none">
<path d="M1580 5762 c-47 -23 -65 -60 -89 -177 -57 -281 -54 -461 9 -591 51
-104 143 -145 256 -114 102 29 220 181 363 467 95 191 102 228 51 287 -40 45
-86 61 -137 47 -54 -15 -81 -49 -146 -183 -57 -117 -144 -268 -154 -268 -12 0
7 218 27 300 11 47 20 101 20 120 0 98 -108 159 -200 112z"/>
<path d="M3244 5530 c-11 -4 -33 -22 -47 -40 -30 -35 -36 -90 -16 -134 7 -14
70 -69 141 -122 72 -54 153 -120 181 -147 l52 -50 -30 -7 c-98 -22 -143 -107
-100 -190 29 -56 178 -120 278 -120 56 0 121 25 149 56 27 30 48 89 48 133 0
91 -63 223 -154 320 -46 50 -219 186 -320 253 -90 59 -129 70 -182 48z"/>
<path d="M852 5451 c-215 -80 -347 -274 -313 -461 14 -84 45 -144 105 -209 60
-63 111 -91 164 -91 80 0 151 82 137 158 -5 28 -22 51 -68 94 -58 53 -62 60
-62 101 0 55 39 117 89 141 27 13 50 15 99 10 50 -5 72 -3 100 11 97 46 106
194 14 242 -50 26 -198 29 -265 4z"/>
<path d="M2982 5168 c-57 -19 -128 -93 -167 -171 -66 -134 -57 -264 22 -324
67 -51 205 -40 325 24 73 40 92 87 86 213 -6 122 -37 196 -99 237 -45 30 -115
38 -167 21z"/>
<path d="M2293 4959 c-46 -13 -92 -73 -99 -131 -6 -46 -9 -49 -58 -72 -28 -13
-87 -36 -131 -52 -108 -37 -145 -73 -145 -142 0 -56 28 -100 81 -127 42 -22
77 -18 183 20 134 48 204 86 253 137 92 95 125 249 69 322 -16 22 -40 39 -64
46 -43 11 -46 11 -89 -1z"/>
<path d="M4745 4814 c-60 -30 -70 -56 -69 -184 2 -354 198 -593 430 -525 198
57 244 312 88 493 -39 45 -190 150 -291 201 -69 34 -112 38 -158 15z"/>
<path d="M2824 4126 c-203 -47 -294 -183 -214 -323 89 -155 331 -213 580 -139
182 53 252 103 265 189 7 46 -11 104 -43 140 -25 28 -134 81 -232 112 -105 33
-261 42 -356 21z"/>
<path d="M1001 4049 c-49 -33 -73 -80 -73 -138 0 -51 11 -82 46 -119 36 -40
75 -54 194 -68 63 -7 119 -17 124 -22 15 -15 -97 -109 -338 -285 -279 -202
-308 -229 -323 -284 -23 -87 30 -179 117 -203 56 -14 99 -2 173 50 31 22 61
40 66 40 4 0 18 -16 31 -35 12 -20 38 -43 56 -52 33 -15 33 -16 14 -35 -71
-71 -43 -168 72 -244 80 -52 124 -103 147 -170 46 -135 -43 -338 -174 -396
-53 -23 -73 -18 -131 32 -47 42 -88 53 -147 38 -73 -17 -115 -68 -115 -137 0
-60 31 -107 102 -154 108 -71 214 -97 324 -78 98 18 151 46 231 127 195 196
248 518 125 749 -36 67 -153 184 -224 224 -32 18 -58 36 -58 39 0 9 151 103
227 141 34 17 96 42 138 56 72 24 76 25 107 9 43 -22 119 -21 159 2 59 35 74
66 74 153 -1 85 -18 128 -67 164 -33 25 -116 34 -149 17 -19 -11 -177 -50
-201 -50 -4 0 15 29 41 64 66 86 86 143 86 236 -1 95 -25 152 -94 219 -78 76
-211 115 -431 128 -88 5 -97 3 -129 -18z"/>
<path d="M4198 3774 c-147 -35 -244 -127 -268 -252 -18 -98 20 -210 96 -287
156 -155 418 -84 534 145 38 75 70 195 70 263 0 44 -4 54 -37 87 -32 31 -49
39 -104 49 -87 15 -220 13 -291 -5z m59 -309 c-32 -28 -47 -32 -47 -10 0 17
27 34 55 34 18 0 17 -2 -8 -24z"/>
<path d="M3395 3396 c-79 -34 -215 -246 -215 -334 0 -52 34 -101 90 -130 81
-41 221 -12 284 58 65 72 80 113 81 222 0 83 -3 100 -21 125 -48 64 -146 91
-219 59z"/>
<path d="M5035 3322 c-98 -52 -197 -148 -237 -230 -29 -58 -33 -76 -33 -147 0
-101 28 -168 92 -225 56 -49 99 -63 177 -58 249 16 429 320 317 535 -23 45
-106 136 -138 152 -43 22 -104 12 -178 -27z"/>
<path d="M2233 2710 c-106 -21 -178 -85 -288 -255 -41 -63 -104 -143 -139
-177 -35 -35 -72 -79 -81 -98 -10 -19 -35 -58 -56 -85 -88 -117 -201 -342
-245 -490 -69 -229 -48 -474 58 -653 53 -90 180 -210 274 -259 89 -47 222 -92
329 -114 104 -21 334 -19 410 4 146 43 285 114 368 187 167 148 366 521 421
790 86 426 1 704 -239 776 -35 10 -95 15 -206 14 l-155 0 -24 58 c-34 83 -83
161 -132 209 -76 74 -196 112 -295 93z m96 -516 c31 -66 55 -99 103 -146 99
-94 96 -93 296 -90 l172 3 11 -28 c6 -17 9 -67 7 -123 -6 -110 -42 -228 -133
-432 -92 -207 -186 -323 -309 -383 -104 -51 -191 -63 -305 -43 -196 35 -364
156 -401 288 -43 155 70 473 231 645 25 28 53 64 62 80 8 17 27 43 42 59 53
57 106 129 141 192 20 35 37 64 39 64 2 0 22 -39 44 -86z"/>
<path d="M4095 2390 c-58 -15 -81 -28 -113 -64 -46 -53 -58 -102 -44 -189 6
-39 9 -73 7 -75 -2 -2 -13 2 -25 8 -12 6 -46 12 -77 12 -45 1 -62 -5 -96 -29
-111 -77 -130 -186 -73 -398 58 -213 104 -355 125 -384 65 -91 234 -96 296 -8
11 15 27 21 64 23 102 5 195 74 249 184 24 50 27 65 26 165 0 93 -6 135 -38
265 -21 85 -44 198 -52 250 -19 122 -42 170 -101 209 -26 17 -54 31 -62 31 -9
0 -25 2 -36 4 -11 3 -33 1 -50 -4z"/>
</g>
</svg>
