<?xml version="1.0" standalone="no"?>
<!DOCTYPE svg PUBLIC "-//W3C//DTD SVG 20010904//EN"
 "http://www.w3.org/TR/2001/REC-SVG-20010904/DTD/svg10.dtd">
<svg version="1.0" xmlns="http://www.w3.org/2000/svg"
 width="600.000000pt" height="600.000000pt" viewBox="0 0 600.000000 600.000000"
 preserveAspectRatio="xMidYMid meet">
<metadata>
Created by potrace 1.15, written by Peter Selinger 2001-2017
</metadata>
<g transform="translate(0.000000,600.000000) scale(0.100000,-0.100000)"
fill="#16364b" stroke="none">
<path d="M1635 5808 c-42 -23 -65 -53 -79 -102 -23 -81 -83 -363 -96 -454 -36
-244 43 -392 208 -392 152 0 263 114 460 471 84 151 92 171 92 219 0 97 -75
155 -169 130 -50 -13 -62 -28 -177 -230 -115 -203 -111 -196 -119 -189 -8 9
19 185 49 313 21 87 24 116 16 145 -21 78 -119 126 -185 89z"/>
<path d="M3183 5561 c-54 -25 -77 -67 -71 -132 6 -59 14 -69 108 -132 131 -88
223 -162 288 -231 61 -66 77 -94 46 -82 -25 10 -88 -11 -112 -37 -101 -107 12
-243 209 -255 87 -5 134 7 181 46 194 163 -58 574 -496 806 -77 41 -95 43
-153 17z"/>
<path d="M899 5466 c-112 -32 -228 -121 -287 -219 -99 -165 -76 -360 58 -495
80 -79 134 -97 204 -68 97 41 110 167 23 241 -72 62 -83 105 -46 181 30 63 71
85 156 82 88 -2 128 19 161 82 38 74 17 151 -49 186 -42 21 -162 27 -220 10z"/>
<path d="M2977 5169 c-56 -13 -89 -33 -131 -79 -59 -65 -86 -133 -86 -213 0
-108 48 -179 143 -211 60 -20 103 -20 180 0 145 37 173 74 164 218 -3 50 -13
113 -23 140 -23 67 -87 129 -146 144 -52 13 -49 13 -101 1z"/>
<path d="M2262 4910 c-18 -11 -40 -35 -48 -54 -13 -26 -26 -36 -58 -45 -117
-34 -226 -83 -255 -116 -55 -62 -50 -149 10 -200 52 -43 100 -45 214 -7 33 12
99 32 146 46 47 14 104 39 126 55 79 57 112 185 67 261 -44 75 -133 102 -202
60z"/>
<path d="M4769 4837 c-64 -42 -71 -71 -65 -252 6 -214 38 -316 123 -396 69
-67 115 -84 224 -84 88 0 99 2 137 28 84 55 120 151 101 267 -25 158 -157 320
-350 429 -68 38 -121 41 -170 8z"/>
<path d="M2807 4120 c-154 -39 -238 -153 -206 -282 16 -71 91 -147 174 -178
124 -47 335 -38 551 25 95 27 113 37 142 79 42 62 26 150 -38 204 -32 27 -175
94 -263 124 -77 26 -110 31 -207 34 -63 2 -132 -1 -153 -6z"/>
<path d="M982 4044 c-108 -72 -109 -230 0 -301 38 -26 51 -28 157 -31 64 -2
120 -8 125 -13 14 -13 -123 -142 -305 -288 -169 -136 -284 -235 -311 -266 -33
-38 -51 -101 -44 -150 11 -67 73 -130 139 -140 57 -9 121 12 157 50 l23 24 40
-35 c48 -40 104 -58 156 -49 34 6 38 4 53 -29 9 -19 48 -59 87 -90 98 -78 126
-129 126 -226 0 -65 -5 -85 -36 -150 -48 -99 -106 -170 -181 -219 -68 -46 -93
-50 -140 -21 -81 49 -181 0 -209 -102 -14 -54 2 -99 52 -141 166 -143 495 -12
684 273 182 273 160 544 -61 766 -29 28 -66 60 -83 70 -17 10 -31 21 -31 25 0
9 165 83 230 104 30 9 60 18 67 20 7 2 19 -2 26 -10 54 -54 126 -68 186 -37
73 36 86 84 64 229 -13 87 -38 131 -91 161 -49 27 -80 28 -140 2 -45 -18 -198
-60 -222 -60 -7 0 9 23 34 51 102 113 152 254 127 355 -40 156 -202 235 -516
250 -119 6 -120 6 -163 -22z"/>
<path d="M4247 3779 c-85 -12 -177 -60 -231 -120 -113 -125 -113 -292 0 -418
195 -217 507 -86 614 258 36 113 36 122 9 177 -15 31 -32 48 -62 63 -76 36
-232 55 -330 40z m19 -335 c-21 -19 -32 -22 -40 -14 -14 14 18 40 48 40 19 -1
18 -3 -8 -26z"/>
<path d="M3404 3391 c-53 -24 -92 -75 -154 -202 -43 -87 -51 -111 -47 -145 5
-51 31 -88 76 -110 45 -22 151 -15 207 14 141 72 208 298 117 396 -30 33 -97
66 -133 66 -14 0 -43 -9 -66 -19z"/>
<path d="M5044 3276 c-88 -44 -191 -130 -233 -192 -87 -132 -78 -296 23 -402
69 -74 163 -92 271 -51 77 29 175 121 215 203 78 158 55 297 -71 425 -62 62
-107 66 -205 17z"/>
<path d="M2147 2593 c-66 -22 -134 -86 -217 -203 -38 -53 -103 -134 -144 -179
-42 -46 -76 -89 -76 -97 0 -7 -27 -44 -61 -81 -182 -200 -242 -378 -242 -718
0 -232 27 -329 128 -457 133 -169 368 -295 622 -333 239 -36 403 -1 597 128
114 76 282 244 338 339 74 125 152 336 212 575 46 180 34 345 -35 492 -88 190
-217 244 -493 207 -66 -9 -121 -14 -123 -12 -2 2 -22 41 -44 87 -22 46 -56
103 -75 125 -48 59 -131 111 -206 129 -79 19 -120 18 -181 -2z m137 -475 c37
-93 71 -142 139 -201 88 -75 121 -81 292 -48 161 31 216 36 226 20 14 -22 10
-141 -6 -221 -24 -110 -80 -271 -136 -384 -51 -104 -139 -216 -224 -285 -160
-129 -391 -139 -570 -25 -164 106 -225 212 -225 396 0 162 62 307 190 444 25
26 63 76 85 111 46 73 187 263 196 264 3 1 18 -32 33 -71z"/>
<path d="M4025 2422 c-50 -24 -87 -67 -111 -127 -15 -40 -16 -58 -7 -128 5
-45 9 -83 8 -85 -1 -1 -14 2 -29 8 -15 5 -51 10 -80 10 -103 0 -192 -76 -217
-185 -11 -49 -10 -69 9 -166 27 -137 116 -405 153 -464 50 -79 167 -124 251
-96 39 13 69 41 92 85 14 28 19 30 64 27 63 -3 149 29 189 71 53 57 75 113 81
209 6 102 -5 170 -58 367 -22 81 -49 198 -59 260 -21 123 -40 162 -97 201 -46
32 -136 38 -189 13z"/>
</g>
</svg>
