<?xml version="1.0" standalone="no"?>
<!DOCTYPE svg PUBLIC "-//W3C//DTD SVG 20010904//EN"
 "http://www.w3.org/TR/2001/REC-SVG-20010904/DTD/svg10.dtd">
<svg version="1.0" xmlns="http://www.w3.org/2000/svg"
 width="600.000000pt" height="600.000000pt" viewBox="0 0 600.000000 600.000000"
 preserveAspectRatio="xMidYMid meet">
<metadata>
Created by potrace 1.15, written by Peter Selinger 2001-2017
</metadata>
<g transform="translate(0.000000,600.000000) scale(0.100000,-0.100000)"
fill="#16364b" stroke="none">
<path d="M3112 5650 c-34 -15 -47 -29 -64 -67 -19 -43 -20 -54 -10 -103 18
-86 66 -173 132 -239 33 -32 131 -107 219 -165 87 -58 164 -113 171 -120 15
-19 -39 -59 -214 -158 -176 -99 -357 -219 -390 -258 -15 -18 -57 -47 -95 -65
-87 -42 -136 -85 -157 -140 -46 -123 39 -213 192 -203 65 4 69 6 108 50 43 48
48 50 238 88 31 6 68 20 81 30 31 25 60 95 52 129 -5 24 3 31 107 95 154 94
237 156 301 225 120 130 111 263 -27 402 -61 62 -86 80 -226 165 -126 76 -180
132 -214 221 -30 78 -44 95 -99 118 -46 19 -53 19 -105 -5z"/>
<path d="M1201 5364 c-142 -81 -270 -230 -328 -382 -67 -178 -68 -371 -2 -549
52 -136 205 -148 270 -20 22 43 22 67 -1 202 -29 176 58 368 210 460 104 63
133 138 88 225 -46 90 -145 117 -237 64z"/>
<path d="M1644 5191 c-55 -9 -99 -43 -118 -91 -28 -70 -17 -122 36 -177 l31
-32 -33 -72 c-46 -101 -60 -153 -60 -226 0 -126 76 -209 222 -243 66 -15 273
-13 311 4 132 56 112 231 -32 275 -21 6 -68 11 -105 11 -48 0 -66 4 -66 13 0
8 16 50 36 95 51 120 71 217 55 284 -16 72 -43 113 -88 137 -44 22 -130 32
-189 22z"/>
<path d="M4523 4611 c-66 -42 -87 -106 -54 -173 27 -57 58 -73 166 -88 127
-16 127 -18 1 -54 -101 -30 -137 -52 -160 -100 -34 -72 -11 -154 56 -197 28
-17 44 -20 103 -15 158 12 305 74 397 167 71 71 102 134 102 209 0 83 -33 129
-126 174 -94 47 -249 86 -363 92 -79 5 -94 3 -122 -15z"/>
<path d="M1920 4260 c-218 -27 -504 -191 -530 -304 -28 -126 106 -235 223
-181 18 8 55 33 82 55 84 68 202 120 292 129 87 9 106 16 145 58 66 71 50 186
-32 228 -36 18 -105 24 -180 15z"/>
<path d="M2530 3730 c-124 -26 -255 -77 -290 -112 -64 -64 -62 -158 5 -217 68
-59 104 -59 269 -1 49 18 116 35 149 38 l60 5 -6 -39 c-8 -51 -181 -396 -253
-504 -31 -47 -81 -116 -111 -154 -75 -93 -87 -117 -78 -172 6 -44 44 -94 90
-120 20 -12 19 -12 -7 -40 -117 -125 2 -341 176 -322 25 3 131 40 236 83 105
42 194 74 197 71 9 -8 -32 -154 -68 -245 -16 -42 -52 -115 -80 -163 -28 -48
-53 -103 -56 -122 -11 -69 33 -146 101 -177 79 -36 170 -19 241 43 116 102
281 581 260 752 -15 123 -109 243 -223 286 -49 19 -71 21 -152 17 -95 -5 -178
-27 -343 -90 -38 -15 -65 -21 -61 -14 4 7 38 57 74 112 192 289 339 609 356
776 25 250 -173 376 -486 309z"/>
<path d="M3985 3726 c-64 -20 -102 -44 -128 -78 -82 -110 -51 -247 84 -372 86
-80 152 -108 254 -109 54 -1 81 4 118 22 132 64 185 275 87 344 -11 8 -24 34
-30 65 -12 55 -58 107 -103 117 -127 27 -218 31 -282 11z"/>
<path d="M1128 3555 c-70 -18 -157 -60 -264 -130 -66 -43 -85 -61 -104 -99
-51 -106 -8 -227 93 -265 42 -16 114 -13 153 5 19 9 37 15 39 12 3 -2 -27 -96
-66 -209 -131 -378 -180 -570 -183 -711 -1 -70 2 -80 29 -120 39 -55 93 -84
184 -100 67 -11 75 -11 109 7 50 28 502 555 627 732 17 24 33 43 36 43 29 1
13 -148 -47 -450 -54 -272 -106 -611 -107 -700 -1 -112 49 -170 148 -170 61 0
103 24 135 75 18 29 23 54 26 124 3 82 38 288 104 606 50 246 63 387 56 592
-4 108 -12 201 -21 228 -41 138 -153 192 -280 136 -63 -28 -139 -108 -283
-296 -167 -220 -196 -251 -165 -177 106 249 170 591 131 703 -47 139 -188 205
-350 164z"/>
<path d="M3600 3265 c-145 -41 -270 -197 -287 -360 -16 -152 152 -242 265
-141 32 29 46 34 107 39 106 9 172 34 226 87 89 85 88 186 -2 284 -80 88 -195
122 -309 91z"/>
<path d="M4661 3113 c-18 -9 -44 -34 -58 -55 -22 -32 -25 -46 -21 -95 4 -51
12 -69 66 -151 90 -135 87 -127 61 -169 -29 -46 -30 -114 -2 -151 51 -68 142
-83 232 -37 71 35 104 88 109 171 4 57 1 72 -32 141 -62 129 -185 323 -220
344 -38 23 -90 24 -135 2z"/>
<path d="M4465 2296 c-44 -19 -102 -89 -116 -138 -6 -24 -9 -78 -7 -120 3 -43
2 -78 -1 -78 -4 0 -56 11 -116 25 -145 33 -321 35 -417 5 -164 -50 -247 -174
-268 -400 -10 -108 3 -401 22 -462 15 -51 82 -126 133 -149 120 -55 277 11
333 140 18 42 22 184 8 330 l-8 93 43 -7 c24 -4 82 -19 129 -34 72 -22 104
-26 205 -26 109 0 125 2 177 27 112 52 192 161 218 296 16 81 8 290 -14 350
-37 103 -121 162 -227 162 -35 -1 -77 -7 -94 -14z"/>
<path d="M2150 1838 c-50 -26 -84 -71 -101 -132 -17 -63 -5 -369 20 -484 55
-257 140 -420 270 -516 75 -55 201 -120 274 -141 52 -15 61 -15 111 -1 63 19
115 71 135 136 12 40 12 40 40 26 15 -8 65 -37 110 -65 124 -75 194 -96 321
-96 98 0 110 2 173 32 96 46 142 85 163 138 63 166 -128 313 -290 222 -27 -15
-54 -27 -61 -27 -6 0 -52 26 -101 58 -49 32 -107 70 -129 84 -42 27 -213 167
-303 250 -111 100 -236 96 -309 -11 -12 -17 -23 -28 -26 -24 -11 19 -20 119
-26 279 -6 158 -8 173 -30 206 -57 83 -156 110 -241 66z"/>
</g>
</svg>
