<?xml version="1.0" standalone="no"?>
<!DOCTYPE svg PUBLIC "-//W3C//DTD SVG 20010904//EN"
 "http://www.w3.org/TR/2001/REC-SVG-20010904/DTD/svg10.dtd">
<svg version="1.0" xmlns="http://www.w3.org/2000/svg"
 width="600.000000pt" height="600.000000pt" viewBox="0 0 600.000000 600.000000"
 preserveAspectRatio="xMidYMid meet">
<metadata>
Created by potrace 1.15, written by Peter Selinger 2001-2017
</metadata>
<g transform="translate(0.000000,600.000000) scale(0.100000,-0.100000)"
fill="#16364b" stroke="none">
<path d="M2376 5378 c-13 -18 -16 -54 -16 -203 0 -423 -74 -596 -294 -686 -65
-26 -85 -53 -66 -88 20 -39 53 -43 124 -17 187 71 291 208 343 456 21 103 30
494 11 530 -19 36 -80 40 -102 8z"/>
<path d="M3520 5260 c-55 -55 -22 -168 77 -265 109 -107 242 -106 243 1 0 64
-102 215 -177 261 -49 29 -115 31 -143 3z"/>
<path d="M3035 5095 c-76 -41 -132 -123 -161 -236 -26 -101 4 -179 68 -179 88
0 221 138 259 268 14 49 2 108 -31 137 -27 25 -98 30 -135 10z m65 -118 c0
-23 -41 -91 -78 -129 -58 -61 -68 -47 -28 37 34 74 106 136 106 92z"/>
<path d="M4783 4740 c-43 -17 -57 -56 -61 -166 -7 -178 24 -377 70 -452 54
-87 153 -80 199 15 49 98 23 320 -58 507 -41 95 -83 123 -150 96z"/>
<path d="M2644 4206 c-67 -29 -94 -108 -59 -175 36 -70 188 -134 320 -134 170
-1 273 73 244 178 -13 47 -36 62 -135 91 -182 53 -309 66 -370 40z"/>
<path d="M5247 3979 c-139 -33 -228 -143 -235 -289 -8 -172 106 -322 279 -366
54 -14 74 -15 128 -5 76 14 109 30 161 77 138 125 157 350 40 472 -42 45 -134
100 -183 112 -51 12 -138 11 -190 -1z m150 -313 c10 -10 -29 -46 -48 -46 -18
0 -39 27 -39 51 0 12 75 8 87 -5z"/>
<path d="M4200 3766 c-182 -51 -284 -215 -236 -381 22 -74 97 -153 170 -178
164 -56 335 22 398 182 26 68 32 235 9 288 -33 80 -209 125 -341 89z m70 -264
c0 -10 -5 -23 -12 -30 -15 -15 -48 -16 -48 -2 0 6 9 19 20 30 25 25 40 26 40
2z"/>
<path d="M1224 3690 c-56 -18 -127 -73 -159 -124 -27 -45 -30 -57 -30 -135 0
-72 4 -94 25 -135 51 -100 152 -177 304 -231 131 -47 207 -193 267 -512 17
-92 46 -231 64 -308 19 -77 43 -196 55 -265 39 -230 74 -339 153 -472 57 -98
175 -214 260 -258 59 -31 69 -40 78 -74 13 -48 50 -83 103 -97 40 -11 177 -9
476 7 133 7 160 -1 235 -66 53 -46 88 -51 128 -20 26 21 53 82 43 99 -3 5 110
11 267 14 338 6 617 41 884 112 346 91 607 289 738 560 60 124 78 205 77 345
-1 144 -25 241 -89 369 -85 169 -190 283 -327 350 -178 88 -427 78 -599 -22
-24 -14 -89 -62 -146 -106 -172 -135 -295 -204 -418 -235 -108 -26 -224 -39
-312 -33 -163 11 -281 62 -547 239 -214 142 -290 212 -491 453 -233 279 -416
413 -698 510 -93 32 -126 38 -210 41 -55 2 -114 -1 -131 -6z m220 -281 c244
-82 354 -166 651 -499 253 -285 327 -350 552 -491 225 -141 385 -214 529 -243
129 -25 196 -28 300 -16 302 36 461 107 724 324 129 106 188 131 310 131 73 0
93 -4 142 -28 78 -38 157 -126 210 -234 l43 -86 0 -121 c0 -147 -23 -231 -95
-340 -70 -106 -133 -159 -265 -222 -184 -89 -426 -143 -760 -170 -165 -13
-262 -14 -725 -4 -373 8 -558 16 -610 26 -247 46 -362 210 -415 589 -16 109
-66 356 -132 650 -38 169 -129 373 -211 474 -86 105 -157 154 -283 196 -75 25
-127 64 -114 84 11 18 52 13 149 -20z"/>
<path d="M2277 2402 c-31 -34 -16 -82 31 -106 17 -8 35 -11 48 -6 26 10 44 57
33 87 -16 43 -83 58 -112 25z"/>
<path d="M2860 2040 c-11 -11 -20 -28 -20 -39 0 -24 35 -68 61 -76 31 -10 69
30 69 71 0 57 -69 85 -110 44z"/>
<path d="M3472 3360 c-27 -11 -67 -72 -137 -212 -57 -113 -60 -138 -20 -164
30 -20 61 -7 111 47 69 76 144 215 144 269 0 23 -29 57 -55 63 -11 3 -30 2
-43 -3z"/>
<path d="M472 2014 c-42 -29 -30 -67 44 -137 130 -123 241 -169 278 -115 46
65 -15 141 -177 221 -53 26 -103 47 -110 47 -7 0 -23 -7 -35 -16z"/>
<path d="M5342 1117 c-30 -14 -56 -66 -71 -139 -16 -75 0 -133 43 -159 96 -58
186 41 186 203 0 49 -4 63 -25 83 -27 28 -90 33 -133 12z"/>
</g>
</svg>
