<?xml version="1.0" standalone="no"?>
<!DOCTYPE svg PUBLIC "-//W3C//DTD SVG 20010904//EN"
 "http://www.w3.org/TR/2001/REC-SVG-20010904/DTD/svg10.dtd">
<svg version="1.0" xmlns="http://www.w3.org/2000/svg"
 width="600.000000pt" height="600.000000pt" viewBox="0 0 600.000000 600.000000"
 preserveAspectRatio="xMidYMid meet">
<metadata>
Created by potrace 1.15, written by Peter Selinger 2001-2017
</metadata>
<g transform="translate(0.000000,600.000000) scale(0.100000,-0.100000)"
fill="#16364b" stroke="none">
<path d="M2654 5531 c-61 -28 -119 -115 -157 -236 -41 -128 -30 -216 34 -289
72 -82 178 -101 432 -77 43 3 80 5 82 3 2 -2 -34 -37 -80 -78 -121 -108 -176
-172 -280 -329 -163 -247 -177 -273 -172 -326 5 -58 50 -128 97 -151 26 -13
59 -18 125 -18 90 0 659 -45 703 -55 38 -9 104 15 139 50 28 28 33 40 33 80 0
55 -23 99 -65 125 -41 24 -66 28 -247 40 -224 14 -388 31 -388 42 0 25 173
232 321 385 93 94 177 190 189 213 12 23 24 63 27 90 11 93 -55 186 -157 218
-69 22 -137 24 -307 7 -95 -9 -177 -15 -183 -13 -6 2 5 35 25 76 40 85 45 140
15 189 -37 61 -120 85 -186 54z"/>
<path d="M1625 5177 c-101 -34 -201 -87 -293 -157 -120 -90 -207 -200 -292
-369 -37 -74 -42 -91 -38 -136 6 -66 37 -111 96 -137 42 -19 52 -19 183 -8
132 12 253 10 292 -5 22 -9 22 -36 1 -187 l-17 -116 24 -49 c41 -83 138 -105
219 -50 56 37 69 65 90 190 39 231 22 318 -84 422 -71 71 -137 100 -267 118
l-83 12 48 42 c70 61 149 112 218 139 74 29 87 39 109 89 46 100 -2 203 -101
219 -23 4 -59 -2 -105 -17z"/>
<path d="M4322 4699 c-83 -14 -168 -46 -286 -107 -150 -79 -176 -108 -176
-195 0 -52 28 -100 72 -123 56 -29 94 -22 218 44 114 60 215 100 226 89 13
-13 -73 -227 -187 -465 -82 -169 -79 -203 23 -314 36 -38 66 -60 93 -68 23 -7
141 -14 283 -17 175 -4 245 -9 248 -18 8 -20 -46 -174 -127 -361 -85 -197 -93
-236 -59 -291 27 -45 73 -66 130 -61 87 9 100 26 225 302 96 214 127 314 129
426 1 108 -19 163 -80 220 -84 77 -110 84 -352 88 -240 4 -225 -3 -181 84 37
72 118 280 140 356 31 107 31 211 0 274 -31 64 -89 112 -160 132 -62 17 -98
18 -179 5z"/>
<path d="M2020 4026 c-216 -87 -427 -161 -528 -186 -82 -21 -142 -101 -128
-173 9 -45 51 -94 92 -107 85 -29 327 29 584 137 158 67 200 107 200 191 0
100 -123 177 -220 138z"/>
<path d="M3740 3695 c-123 -35 -242 -110 -316 -201 -31 -37 -38 -55 -42 -100
-4 -46 -1 -60 21 -93 29 -43 79 -71 130 -71 52 0 76 12 137 72 54 52 143 108
155 97 7 -8 -19 -130 -45 -204 -11 -33 -39 -98 -61 -145 l-40 -85 -85 -44
c-111 -57 -139 -92 -139 -175 0 -48 5 -68 23 -94 50 -70 145 -85 229 -37 65
39 180 95 297 146 92 39 173 90 204 128 97 117 45 321 -82 321 -25 0 -28 3
-22 23 4 12 14 65 23 118 15 94 15 98 -5 166 -24 79 -71 136 -137 168 -53 25
-173 30 -245 10z"/>
<path d="M2475 3490 c-124 -18 -365 -116 -422 -172 -87 -84 -55 -218 58 -248
48 -13 46 -14 219 50 162 60 300 73 300 29 0 -33 -40 -140 -92 -248 -43 -89
-50 -110 -45 -147 9 -82 77 -144 158 -144 86 0 128 53 227 290 51 122 66 187
66 280 -2 223 -194 351 -469 310z"/>
<path d="M1165 3206 c-56 -14 -144 -56 -193 -93 -89 -67 -96 -210 -14 -296 39
-41 75 -57 132 -58 59 -2 57 10 29 -159 -39 -240 -36 -552 8 -729 17 -68 55
-121 104 -147 35 -18 120 -18 162 0 31 13 177 157 177 175 0 15 138 259 196
346 69 105 184 239 195 228 19 -19 31 -163 26 -313 -6 -163 -21 -267 -63 -439
-29 -115 -27 -155 8 -207 32 -47 79 -67 141 -61 42 4 56 11 82 38 28 31 35 53
78 259 64 309 69 345 70 505 0 152 -19 287 -53 378 -47 126 -143 201 -256 201
-128 0 -242 -89 -414 -322 -41 -56 -76 -100 -77 -98 -2 2 3 60 12 129 22 182
20 368 -5 449 -56 180 -177 256 -345 214z"/>
<path d="M4795 2676 c-82 -36 -136 -114 -140 -205 l-2 -55 -134 -27 c-153 -30
-226 -56 -319 -110 -108 -63 -174 -143 -205 -253 -35 -121 -2 -395 66 -544
l30 -67 -33 -26 -32 -27 -51 23 c-27 13 -85 39 -128 60 -103 48 -201 68 -297
62 -230 -15 -408 -163 -596 -495 -37 -65 -67 -107 -81 -113 -13 -5 -46 -27
-74 -49 -28 -22 -58 -40 -67 -40 -29 0 -100 88 -147 182 -32 65 -55 132 -76
223 -38 162 -62 211 -121 248 -84 52 -165 49 -227 -11 -57 -54 -68 -100 -52
-215 17 -116 71 -306 115 -401 86 -187 232 -340 386 -403 65 -27 153 -30 226
-8 57 17 153 76 216 133 24 21 60 47 81 57 53 28 66 44 146 184 88 153 101
171 174 248 97 102 119 103 304 7 170 -87 295 -94 435 -23 87 44 174 132 188
191 10 38 18 49 43 59 128 53 172 206 97 333 -57 96 -82 157 -87 215 l-6 59
49 16 c27 8 108 23 179 31 72 9 146 21 165 27 202 63 299 242 270 494 -13 118
-46 176 -122 215 -43 22 -128 25 -173 5z"/>
<path d="M3115 2523 c-114 -15 -349 -73 -455 -114 -30 -11 -69 -31 -86 -45
-71 -53 -98 -186 -51 -254 58 -86 122 -97 313 -52 159 37 374 75 402 70 20 -3
20 -4 -9 -78 -46 -119 -36 -191 33 -244 64 -48 168 -57 237 -21 60 30 89 72
122 173 40 124 51 271 25 350 -34 101 -127 176 -258 207 -58 13 -199 18 -273
8z"/>
</g>
</svg>
