<?xml version="1.0" standalone="no"?>
<!DOCTYPE svg PUBLIC "-//W3C//DTD SVG 20010904//EN"
 "http://www.w3.org/TR/2001/REC-SVG-20010904/DTD/svg10.dtd">
<svg version="1.0" xmlns="http://www.w3.org/2000/svg"
 width="600.000000pt" height="600.000000pt" viewBox="0 0 600.000000 600.000000"
 preserveAspectRatio="xMidYMid meet">
<metadata>
Created by potrace 1.15, written by Peter Selinger 2001-2017
</metadata>
<g transform="translate(0.000000,600.000000) scale(0.100000,-0.100000)"
fill="#16364b" stroke="none">
<path d="M1538 5777 c-33 -28 -34 -30 -101 -227 -71 -208 -87 -273 -87 -346 0
-131 104 -197 232 -148 104 40 277 202 383 358 55 81 57 87 53 136 -6 64 -33
101 -85 119 -63 22 -91 5 -162 -98 -83 -121 -121 -167 -121 -147 0 9 16 67 36
128 43 134 42 178 -6 221 -40 35 -102 38 -142 4z"/>
<path d="M847 5539 c-91 -21 -172 -78 -226 -160 -98 -147 -100 -333 -6 -461
90 -123 200 -134 259 -27 28 51 16 103 -35 149 -64 58 -69 118 -17 197 23 35
83 73 114 73 10 0 36 -11 58 -24 69 -40 116 -38 162 8 27 27 34 42 34 73 0 77
-65 136 -185 167 -65 18 -101 19 -158 5z"/>
<path d="M3495 5402 c-38 -9 -64 -34 -80 -77 -18 -45 -15 -72 13 -115 9 -14
17 -43 18 -65 2 -58 41 -133 98 -189 125 -122 278 -129 336 -15 30 58 26 115
-16 197 -46 93 -123 169 -222 220 -82 42 -115 52 -147 44z"/>
<path d="M2362 5354 c-54 -28 -62 -55 -62 -218 0 -167 -16 -258 -60 -352 -38
-78 -94 -128 -204 -183 -96 -47 -119 -75 -119 -140 0 -38 5 -49 36 -78 55 -49
103 -46 220 14 247 127 357 349 361 733 1 124 -2 150 -17 173 -37 57 -101 78
-155 51z"/>
<path d="M2974 5134 c-103 -37 -184 -156 -184 -271 0 -180 158 -254 342 -160
91 47 102 67 106 190 3 96 2 105 -25 157 -46 89 -135 121 -239 84z"/>
<path d="M4742 4781 c-18 -12 -41 -35 -53 -53 -18 -30 -20 -44 -16 -153 9
-219 97 -411 227 -495 43 -28 63 -34 123 -37 64 -4 78 -1 127 24 41 21 62 40
85 77 28 46 30 56 30 146 0 91 -2 100 -38 174 -74 148 -286 324 -402 333 -38
3 -58 -1 -83 -16z m263 -437 c9 -19 14 -38 12 -41 -5 -5 -47 69 -47 82 0 15
19 -8 35 -41z"/>
<path d="M2679 4205 c-63 -20 -143 -93 -164 -150 -39 -101 -1 -239 84 -301
135 -99 317 -82 493 46 126 92 169 161 154 245 -14 71 -54 94 -261 151 -85 23
-248 28 -306 9z"/>
<path d="M1064 4072 c-54 -34 -74 -69 -74 -126 0 -96 41 -131 173 -151 51 -8
106 -19 122 -25 l30 -12 -44 -39 c-57 -51 -219 -132 -329 -165 -116 -34 -149
-51 -173 -91 -17 -27 -20 -45 -16 -80 6 -58 31 -92 90 -122 43 -21 51 -22 99
-11 141 33 355 123 452 189 24 17 47 31 50 31 3 0 6 -14 6 -31 0 -51 6 -58
159 -216 39 -41 62 -56 107 -69 113 -32 223 3 310 99 88 98 85 226 -7 331 -81
92 -237 131 -358 91 -29 -9 -54 -15 -55 -14 -2 2 1 31 7 65 9 51 7 70 -7 114
-52 158 -181 237 -401 247 -97 4 -114 2 -141 -15z"/>
<path d="M4267 3790 c-136 -22 -262 -118 -306 -235 -43 -112 -13 -243 74 -330
56 -57 107 -78 193 -83 63 -4 79 -1 126 22 70 34 152 122 194 209 18 37 44
114 57 171 28 119 23 159 -25 199 -48 41 -202 64 -313 47z m23 -312 c0 -16
-31 -48 -47 -48 -21 0 -15 27 9 44 27 19 38 20 38 4z"/>
<path d="M5145 3515 c-125 -39 -227 -121 -277 -223 -28 -56 -33 -78 -32 -133
0 -81 33 -155 96 -218 65 -64 116 -85 197 -79 177 13 315 164 328 358 7 95
-13 146 -89 226 -78 83 -130 99 -223 69z"/>
<path d="M3405 3362 c-43 -26 -80 -79 -137 -194 -57 -113 -58 -145 -10 -191
58 -56 142 -56 238 -1 94 53 156 214 119 310 -30 80 -139 119 -210 76z"/>
<path d="M2495 3306 c-163 -39 -274 -164 -369 -414 -59 -153 -71 -168 -236
-277 -380 -251 -602 -634 -560 -968 29 -238 119 -455 238 -581 203 -211 614
-302 911 -201 191 65 410 229 525 395 129 186 198 366 227 595 23 191 -7 568
-68 830 -20 90 -110 299 -163 380 -128 196 -317 287 -505 241z m164 -415 c17
-21 31 -42 31 -46 0 -5 20 -51 44 -104 51 -111 69 -175 90 -321 51 -350 20
-640 -91 -869 -37 -78 -59 -109 -127 -175 -131 -131 -229 -171 -393 -164 -120
6 -225 39 -323 102 -106 69 -152 144 -172 284 -10 67 -9 93 5 166 41 208 167
382 381 525 200 135 302 251 404 460 100 207 100 207 151 142z"/>
<path d="M514 2396 c-25 -25 -34 -43 -34 -66 0 -23 -10 -44 -35 -71 -49 -55
-47 -83 25 -252 67 -160 136 -274 209 -347 130 -130 320 -158 432 -62 56 48
79 100 79 185 0 186 -132 391 -343 531 -190 125 -270 145 -333 82z m322 -389
c141 -153 148 -313 8 -172 -41 40 -68 82 -104 157 -65 134 -65 150 -4 106 26
-18 71 -59 100 -91z"/>
<path d="M4280 2078 c-29 -15 -52 -37 -65 -60 l-21 -36 -24 19 c-64 49 -157
44 -204 -12 -41 -49 -49 -95 -32 -196 9 -49 22 -133 30 -188 17 -117 25 -141
57 -175 13 -14 33 -42 43 -63 43 -83 137 -137 215 -122 94 18 148 71 186 184
41 119 80 470 61 544 -15 61 -103 126 -171 127 -17 0 -51 -10 -75 -22z"/>
</g>
</svg>
