<?xml version="1.0" standalone="no"?>
<!DOCTYPE svg PUBLIC "-//W3C//DTD SVG 20010904//EN"
 "http://www.w3.org/TR/2001/REC-SVG-20010904/DTD/svg10.dtd">
<svg version="1.0" xmlns="http://www.w3.org/2000/svg"
 width="600.000000pt" height="600.000000pt" viewBox="0 0 600.000000 600.000000"
 preserveAspectRatio="xMidYMid meet">
<metadata>
Created by potrace 1.15, written by Peter Selinger 2001-2017
</metadata>
<g transform="translate(0.000000,600.000000) scale(0.100000,-0.100000)"
fill="#16364b" stroke="none">
<path d="M2430 5469 c-82 -33 -163 -204 -163 -345 0 -94 36 -164 108 -209 42
-26 59 -30 136 -33 73 -3 109 2 234 32 82 20 150 35 152 33 2 -2 -38 -55 -89
-118 -137 -170 -369 -537 -405 -641 -29 -84 38 -208 121 -223 18 -4 84 1 147
11 95 16 164 18 416 16 327 -3 331 -3 382 52 19 20 26 40 29 85 4 54 2 60 -28
94 -18 21 -47 41 -68 47 -21 6 -160 10 -324 10 -159 0 -288 2 -288 5 0 16 124
185 275 375 171 216 203 270 212 356 10 99 -49 192 -143 225 -68 24 -201 15
-373 -26 -84 -20 -159 -35 -167 -33 -10 2 -6 19 16 68 35 77 36 91 10 148 -30
66 -119 99 -190 71z"/>
<path d="M1650 5057 c-106 -39 -213 -103 -347 -208 -80 -64 -205 -198 -226
-242 -33 -69 -9 -163 54 -208 32 -22 43 -24 171 -25 168 -2 240 -10 295 -34
47 -21 61 -43 88 -144 26 -95 94 -139 176 -116 108 31 141 114 99 247 -55 177
-145 269 -318 323 -29 9 -54 21 -54 26 -2 15 142 83 191 90 98 14 142 55 149
140 5 59 -19 114 -66 149 -41 30 -132 31 -212 2z"/>
<path d="M4124 4775 c-146 -32 -338 -133 -374 -197 -42 -75 -12 -160 67 -194
52 -22 84 -17 174 30 90 47 221 92 239 81 37 -23 -23 -213 -150 -478 -37 -78
-42 -95 -38 -140 8 -83 77 -177 145 -196 25 -7 88 -4 221 9 198 21 387 26 396
11 11 -18 -16 -120 -91 -347 -85 -259 -87 -278 -30 -340 58 -63 150 -63 212 0
23 22 43 64 72 151 96 280 140 475 130 575 -7 68 -51 154 -97 192 -20 15 -63
38 -95 50 -54 20 -81 23 -265 24 -113 2 -206 3 -207 3 0 1 14 39 32 86 58 147
78 249 73 372 -5 134 -28 193 -99 257 -73 66 -173 82 -315 51z"/>
<path d="M2085 4000 c-16 -4 -84 -29 -150 -55 -167 -66 -246 -93 -350 -116
-102 -23 -139 -49 -155 -111 -26 -94 56 -208 148 -208 43 0 217 36 292 61 100
32 311 119 351 145 80 50 106 118 71 190 -34 69 -131 113 -207 94z"/>
<path d="M3723 3706 c-60 -19 -169 -80 -318 -178 -143 -93 -152 -101 -170
-154 -35 -103 59 -197 166 -165 22 7 77 36 122 65 97 63 226 130 235 121 9 -9
-19 -85 -115 -310 -61 -143 -95 -209 -119 -233 -58 -58 -70 -148 -28 -206 25
-34 91 -66 138 -66 53 0 224 59 337 116 193 96 314 192 355 279 30 62 30 89 1
140 -25 45 -92 85 -142 85 -49 -1 -111 -35 -138 -77 -23 -35 -87 -84 -87 -66
0 4 13 40 28 78 51 124 67 201 67 315 0 93 -3 111 -26 155 -15 30 -42 62 -68
80 -37 26 -52 30 -119 32 -44 2 -95 -3 -119 -11z"/>
<path d="M2320 3400 c-247 -53 -330 -109 -330 -222 0 -60 30 -105 87 -130 l47
-21 126 31 c137 34 243 48 285 38 26 -7 27 -10 22 -50 -3 -23 -22 -80 -42
-126 -20 -48 -35 -101 -35 -123 0 -54 26 -104 69 -132 106 -69 197 -33 260
104 121 263 87 462 -100 581 -105 68 -232 84 -389 50z"/>
<path d="M1191 3120 c-120 -25 -191 -97 -191 -194 0 -94 62 -175 148 -192 l32
-7 -2 -376 c-3 -335 -1 -386 16 -468 11 -58 28 -108 45 -133 77 -120 260 -100
322 35 10 22 19 53 19 68 0 17 6 30 18 33 58 18 85 41 125 108 81 140 130 222
160 266 42 62 117 150 128 150 12 0 12 -305 -1 -407 -6 -44 -24 -130 -41 -189
-17 -60 -31 -125 -31 -144 -1 -83 73 -152 163 -152 89 0 127 42 164 184 40
150 65 345 72 553 5 163 3 199 -11 250 -40 138 -126 226 -243 248 -46 9 -129
-9 -192 -41 -75 -38 -197 -160 -271 -273 -34 -52 -64 -96 -66 -98 -2 -2 -3
119 -1 270 2 263 1 276 -20 329 -13 30 -36 72 -53 92 -58 70 -185 109 -289 88z"/>
<path d="M4895 2893 c-87 -19 -150 -65 -188 -137 -16 -31 -21 -59 -22 -115 l0
-74 -120 -41 c-150 -51 -240 -101 -313 -174 -100 -100 -142 -208 -142 -368 0
-162 67 -361 151 -449 35 -37 36 -51 6 -59 -13 -3 -44 -24 -69 -46 -28 -24
-56 -40 -71 -40 -14 0 -79 14 -144 31 -100 27 -137 32 -238 32 -177 1 -305
-39 -423 -133 -53 -42 -161 -172 -227 -272 -21 -32 -42 -58 -47 -58 -5 0 -37
-26 -71 -59 -105 -99 -155 -112 -243 -62 -88 51 -186 174 -268 338 -50 99 -71
123 -136 152 -142 65 -288 -37 -267 -187 6 -48 101 -239 168 -340 69 -103 217
-249 294 -289 234 -122 452 -102 649 60 38 32 72 57 77 57 19 0 74 59 121 128
76 112 189 226 261 262 80 40 128 39 307 -6 127 -32 155 -36 235 -32 118 6
185 37 276 128 79 78 98 124 82 195 l-10 45 31 0 c42 0 124 41 160 78 38 40
57 116 45 172 -15 66 -37 100 -110 171 -68 67 -89 107 -89 171 0 49 32 69 203
123 219 70 319 166 362 347 22 92 20 272 -4 323 -38 85 -146 146 -226 128z"/>
<path d="M3250 2405 c-47 -8 -170 -34 -275 -59 -104 -24 -218 -50 -253 -57
-77 -14 -119 -41 -149 -94 -64 -113 21 -278 149 -292 29 -3 92 7 193 31 177
43 369 76 443 76 52 0 52 0 45 -27 -13 -48 -7 -119 13 -154 11 -19 39 -47 63
-64 37 -26 51 -30 109 -30 53 0 75 5 105 24 78 48 117 154 116 311 -1 146 -51
242 -155 297 -103 54 -225 66 -404 38z"/>
</g>
</svg>
