<?xml version="1.0" standalone="no"?>
<!DOCTYPE svg PUBLIC "-//W3C//DTD SVG 20010904//EN"
 "http://www.w3.org/TR/2001/REC-SVG-20010904/DTD/svg10.dtd">
<svg version="1.0" xmlns="http://www.w3.org/2000/svg"
 width="600.000000pt" height="600.000000pt" viewBox="0 0 600.000000 600.000000"
 preserveAspectRatio="xMidYMid meet">
<metadata>
Created by potrace 1.15, written by Peter Selinger 2001-2017
</metadata>
<g transform="translate(0.000000,600.000000) scale(0.100000,-0.100000)"
fill="#16364b" stroke="none">
<path d="M1693 5784 c-59 -29 -87 -100 -164 -414 -55 -225 -62 -334 -27 -400
35 -65 112 -110 188 -110 96 1 177 54 303 200 105 122 285 375 296 417 15 54
-1 104 -45 142 -28 25 -43 31 -82 31 -28 0 -59 -7 -77 -18 -16 -11 -77 -80
-135 -154 -58 -75 -106 -131 -108 -124 -1 6 18 76 43 156 50 156 51 186 14
234 -11 15 -34 33 -49 41 -38 20 -117 19 -157 -1z"/>
<path d="M3089 5623 c-36 -22 -61 -68 -63 -112 -2 -74 15 -92 202 -223 189
-132 334 -263 371 -335 11 -23 21 -47 21 -53 0 -5 -21 -10 -46 -10 -116 0
-202 -115 -160 -213 22 -54 86 -82 186 -81 126 0 215 58 269 173 35 77 36 191
1 271 -73 169 -214 308 -525 514 -120 80 -133 86 -180 86 -28 0 -61 -8 -76
-17z"/>
<path d="M873 5456 c-155 -50 -277 -199 -303 -369 -25 -159 45 -317 184 -419
97 -70 226 -8 226 110 0 58 -22 102 -70 141 -60 48 -71 115 -30 190 21 40 69
61 140 61 47 0 74 6 98 20 92 56 98 189 10 251 -27 19 -47 24 -123 26 -56 2
-106 -2 -132 -11z"/>
<path d="M2942 5173 c-54 -19 -131 -94 -162 -158 -20 -41 -25 -65 -25 -131 0
-71 3 -85 27 -122 56 -85 165 -118 302 -92 77 14 122 41 150 90 18 29 21 52
21 140 -1 89 -4 112 -24 153 -55 111 -174 161 -289 120z"/>
<path d="M4754 4861 c-17 -10 -42 -34 -55 -53 -22 -30 -24 -42 -23 -148 2
-285 99 -489 259 -549 107 -40 198 -19 282 64 83 83 101 175 60 296 -33 98
-83 173 -168 253 -140 131 -277 184 -355 137z"/>
<path d="M2041 4804 c-126 -34 -181 -89 -181 -182 0 -69 26 -114 79 -135 43
-18 59 -15 148 19 75 29 107 30 140 4 103 -81 253 -9 253 120 0 78 -62 147
-156 176 -60 18 -213 17 -283 -2z"/>
<path d="M2840 4087 c-152 -34 -235 -140 -205 -259 23 -93 99 -156 240 -201
108 -34 296 -31 474 8 111 24 141 34 168 58 58 51 67 133 23 205 -25 41 -62
63 -185 111 -191 74 -397 105 -515 78z"/>
<path d="M1130 4070 c-125 -7 -177 -30 -216 -96 -47 -81 -27 -170 52 -230 35
-27 44 -29 146 -32 59 -2 108 -8 108 -13 0 -9 -18 -30 -135 -164 -39 -44 -114
-134 -167 -200 -53 -66 -148 -176 -212 -245 -64 -68 -123 -139 -131 -156 -8
-18 -15 -54 -15 -82 0 -114 121 -195 243 -163 25 6 56 8 77 3 63 -15 105 4
311 142 l201 134 50 -35 c70 -50 81 -78 76 -182 -7 -128 -72 -274 -197 -441
-93 -124 -179 -204 -242 -225 -85 -28 -119 -69 -119 -145 0 -118 107 -171 241
-121 95 37 298 212 400 346 183 240 247 564 163 825 -4 12 6 15 53 15 70 0
113 26 144 86 28 56 33 278 7 326 -23 41 -61 70 -110 85 -63 19 -128 -1 -283
-86 -76 -41 -141 -74 -143 -71 -2 2 16 28 41 57 110 130 160 238 161 348 1
170 -113 297 -283 315 -103 10 -116 11 -221 5z"/>
<path d="M4240 3783 c-53 -10 -151 -63 -199 -108 -130 -122 -139 -304 -20
-423 63 -63 102 -77 219 -77 91 0 112 3 155 25 66 32 155 122 188 190 32 66
67 187 67 233 0 44 -31 98 -68 120 -61 36 -246 58 -342 40z m50 -308 c-25 -26
-55 -34 -48 -12 5 12 45 37 62 37 5 0 -1 -11 -14 -25z"/>
<path d="M3405 3405 c-87 -30 -235 -241 -235 -334 0 -42 29 -92 71 -123 32
-24 156 -41 210 -29 114 26 198 152 199 295 0 93 -28 143 -102 180 -58 29 -85
31 -143 11z"/>
<path d="M5002 3209 c-29 -16 -87 -62 -128 -101 -170 -162 -205 -375 -82 -497
57 -56 111 -75 195 -69 159 12 293 136 328 305 25 117 -4 216 -90 311 -82 91
-134 103 -223 51z"/>
<path d="M3940 2504 c-75 -33 -123 -107 -122 -189 0 -27 14 -94 30 -148 30
-98 30 -99 9 -92 -121 38 -197 23 -271 -50 -120 -120 -116 -298 15 -693 46
-137 77 -183 144 -213 51 -24 129 -24 180 0 69 31 135 122 135 187 0 7 28 13
68 17 115 8 216 70 265 161 32 60 31 242 -1 376 -73 300 -146 528 -185 576
-60 73 -183 104 -267 68z"/>
<path d="M2053 2389 c-33 -13 -77 -44 -122 -86 -77 -70 -218 -240 -251 -301
-11 -20 -42 -63 -69 -95 -112 -134 -186 -362 -198 -612 -7 -165 12 -251 92
-410 117 -232 275 -365 535 -451 78 -26 97 -28 240 -28 184 1 262 18 407 89
129 64 262 176 304 258 6 12 22 33 35 47 35 38 178 341 218 460 42 126 83 317
92 426 15 189 -63 347 -206 412 -117 54 -330 34 -542 -53 -13 -5 -19 2 -28 37
-24 87 -59 145 -132 213 -94 89 -150 115 -248 114 -50 0 -92 -7 -127 -20z
m125 -436 c6 -16 18 -61 27 -102 21 -99 52 -156 118 -218 59 -56 117 -79 168
-68 17 4 89 38 162 75 130 68 237 110 277 110 15 0 20 -7 20 -28 0 -51 -39
-245 -66 -327 -32 -98 -113 -279 -148 -331 -128 -189 -196 -245 -338 -279 -79
-18 -125 -19 -212 0 -118 25 -274 133 -330 230 -101 172 -56 486 99 690 21 27
44 64 52 83 20 48 131 192 147 192 8 0 18 -12 24 -27z"/>
</g>
</svg>
