<?xml version="1.0" standalone="no"?>
<!DOCTYPE svg PUBLIC "-//W3C//DTD SVG 20010904//EN"
 "http://www.w3.org/TR/2001/REC-SVG-20010904/DTD/svg10.dtd">
<svg version="1.0" xmlns="http://www.w3.org/2000/svg"
 width="600.000000pt" height="600.000000pt" viewBox="0 0 600.000000 600.000000"
 preserveAspectRatio="xMidYMid meet">
<metadata>
Created by potrace 1.15, written by Peter Selinger 2001-2017
</metadata>
<g transform="translate(0.000000,600.000000) scale(0.100000,-0.100000)"
fill="#16364b" stroke="none">
<path d="M2419 5467 c-60 -40 -138 -212 -146 -320 -4 -54 -1 -69 24 -117 69
-135 220 -162 520 -93 40 9 75 14 79 11 3 -4 -52 -75 -123 -160 -71 -84 -150
-185 -176 -225 -68 -103 -206 -362 -213 -402 -11 -55 12 -133 50 -170 45 -43
80 -47 232 -22 183 29 370 36 544 20 179 -16 203 -15 243 8 102 60 103 205 1
265 -47 28 -220 42 -424 34 -96 -4 -194 -10 -217 -15 -30 -6 -43 -5 -43 3 0
18 109 163 217 293 248 293 307 405 282 524 -15 70 -68 122 -145 145 -65 19
-120 14 -373 -31 -79 -14 -147 -23 -150 -20 -2 3 7 30 22 59 31 62 33 81 11
137 -36 88 -141 126 -215 76z"/>
<path d="M1664 5046 c-228 -59 -396 -170 -537 -353 -55 -72 -67 -100 -67 -155
0 -52 25 -103 63 -130 28 -20 49 -23 188 -30 181 -8 267 -22 312 -52 32 -22
45 -42 92 -147 59 -131 199 -152 257 -38 25 48 22 95 -12 201 -59 186 -134
257 -323 304 -38 9 -65 20 -60 24 23 22 145 81 194 94 117 30 159 73 159 164
0 59 -32 105 -87 128 -44 19 -72 17 -179 -10z"/>
<path d="M4083 4781 c-135 -34 -319 -135 -348 -191 -22 -42 -19 -108 8 -155
45 -81 134 -95 221 -35 60 41 180 95 229 104 l37 7 0 -43 c0 -24 -9 -76 -20
-116 -22 -80 -105 -294 -140 -362 -36 -69 -32 -123 15 -199 71 -115 92 -121
324 -96 91 11 220 19 286 19 l120 1 3 -33 c5 -53 -32 -181 -109 -371 -66 -163
-71 -182 -65 -225 5 -34 16 -56 41 -80 38 -38 78 -49 129 -35 61 17 91 52 139
161 145 334 195 549 157 683 -10 37 -28 64 -70 107 -48 48 -68 60 -131 80 -68
21 -92 23 -287 23 -116 0 -212 1 -212 2 0 0 20 53 45 116 64 167 78 228 78
337 1 150 -44 235 -150 286 -74 36 -193 42 -300 15z"/>
<path d="M2040 3958 c-129 -57 -374 -118 -478 -118 -53 0 -120 -44 -143 -93
-10 -23 -19 -55 -19 -71 0 -43 38 -101 83 -126 36 -21 48 -22 141 -17 201 11
535 115 613 190 61 58 67 137 16 198 -51 60 -131 74 -213 37z"/>
<path d="M3787 3719 c-63 -13 -133 -44 -264 -120 -263 -151 -293 -178 -293
-265 0 -59 30 -106 82 -130 55 -25 94 -14 211 59 129 82 236 141 243 135 7 -8
-56 -176 -121 -323 -79 -178 -93 -204 -131 -247 -106 -118 4 -298 159 -258
202 53 463 188 584 303 68 64 93 111 93 174 0 157 -199 210 -290 77 -30 -42
-87 -91 -96 -81 -3 3 7 33 21 68 39 95 72 207 85 293 32 215 -92 353 -283 315z"/>
<path d="M2465 3403 c-69 -8 -179 -36 -291 -73 -97 -32 -125 -45 -151 -74 -43
-46 -51 -95 -27 -154 41 -97 97 -109 274 -58 133 39 237 58 269 49 27 -7 21
-38 -35 -175 -24 -59 -44 -117 -44 -130 1 -47 37 -106 79 -127 52 -27 96 -26
151 2 53 26 89 86 141 236 29 83 34 109 34 191 0 81 -4 102 -24 140 -50 96
-129 151 -242 170 -64 10 -78 10 -134 3z"/>
<path d="M1212 3134 c-137 -36 -222 -130 -222 -243 0 -73 76 -162 155 -182
l45 -11 0 -47 c0 -26 -8 -101 -17 -166 -23 -164 -23 -413 0 -527 47 -237 97
-308 217 -308 109 0 200 88 200 193 0 41 2 45 28 50 41 8 79 52 124 142 57
113 125 209 203 290 l68 70 10 -29 c18 -55 -8 -384 -44 -547 l-32 -147 24 -48
c32 -64 77 -94 142 -94 57 0 103 24 128 67 18 30 60 193 80 308 19 110 15 484
-6 564 -41 157 -123 243 -245 258 -138 16 -284 -82 -461 -312 l-62 -80 7 70
c31 333 30 411 -7 530 -28 94 -105 175 -186 199 -65 19 -80 19 -149 0z"/>
<path d="M4860 2889 c-58 -17 -118 -69 -146 -127 -24 -46 -26 -61 -22 -127 l5
-74 -126 -41 c-153 -51 -240 -95 -314 -161 -209 -186 -206 -488 8 -766 l55
-73 -32 -14 c-18 -7 -49 -30 -67 -50 -44 -45 -65 -46 -202 -5 -77 22 -133 32
-216 36 -143 7 -213 -6 -328 -63 -137 -67 -258 -180 -381 -353 -27 -39 -57
-73 -67 -76 -10 -4 -48 -33 -84 -66 -105 -92 -150 -106 -223 -69 -80 41 -180
172 -252 330 -22 47 -45 96 -51 109 -7 14 -32 38 -57 53 -40 26 -52 29 -111
26 -54 -3 -73 -9 -103 -31 -79 -61 -95 -152 -50 -279 54 -148 114 -250 222
-376 131 -152 308 -242 477 -242 129 0 285 59 390 147 34 28 70 53 80 57 37
12 64 43 126 142 91 145 141 206 204 249 79 55 150 59 288 16 271 -84 417 -63
561 81 78 80 100 124 98 206 0 58 1 62 22 62 81 0 184 79 205 156 14 52 14 71
-4 132 -13 43 -29 65 -87 120 -96 91 -124 165 -79 206 11 10 79 40 152 67 162
60 219 93 285 161 99 104 129 186 122 342 -5 111 -27 178 -76 229 -55 58 -151
87 -222 66z"/>
<path d="M3340 2403 c-89 -8 -392 -64 -507 -93 -150 -39 -200 -63 -238 -118
-27 -39 -30 -52 -30 -116 0 -63 4 -78 28 -113 37 -53 92 -83 154 -83 29 0 105
17 184 41 160 48 344 94 417 104 l52 7 -6 -55 c-8 -68 -1 -97 32 -137 101
-119 312 -79 354 68 66 231 -5 413 -183 471 -64 21 -178 32 -257 24z"/>
</g>
</svg>
