<?xml version="1.0" standalone="no"?>
<!DOCTYPE svg PUBLIC "-//W3C//DTD SVG 20010904//EN"
 "http://www.w3.org/TR/2001/REC-SVG-20010904/DTD/svg10.dtd">
<svg version="1.0" xmlns="http://www.w3.org/2000/svg"
 width="600.000000pt" height="600.000000pt" viewBox="0 0 600.000000 600.000000"
 preserveAspectRatio="xMidYMid meet">
<metadata>
Created by potrace 1.15, written by Peter Selinger 2001-2017
</metadata>
<g transform="translate(0.000000,600.000000) scale(0.100000,-0.100000)"
fill="#16364b" stroke="none">
<path d="M1539 5763 c-26 -7 -283 -311 -313 -370 -35 -69 -11 -143 57 -174 79
-35 91 -32 381 112 179 89 210 107 223 135 31 65 -8 139 -79 150 -26 5 -48 -1
-86 -20 -65 -33 -79 -33 -53 0 24 30 29 101 9 126 -34 41 -84 56 -139 41z"/>
<path d="M2373 5425 c-58 -25 -61 -38 -66 -290 -5 -249 -16 -319 -63 -406 -36
-66 -97 -121 -186 -169 -88 -47 -108 -72 -108 -132 1 -46 10 -64 50 -91 39
-27 75 -20 180 33 130 67 204 139 259 252 56 114 71 208 78 500 7 265 5 276
-62 304 -41 17 -42 17 -82 -1z"/>
<path d="M3535 5351 c-28 -12 -52 -40 -70 -85 -14 -34 -14 -43 -1 -89 33 -113
130 -237 220 -282 117 -58 215 -3 204 116 -5 53 -67 161 -138 241 -58 67 -170
118 -215 99z"/>
<path d="M2942 5114 c-73 -36 -126 -107 -152 -202 -23 -87 19 -190 93 -229 68
-35 241 13 295 82 28 36 56 156 48 207 -23 142 -153 207 -284 142z"/>
<path d="M4774 4786 c-42 -19 -72 -59 -79 -109 -9 -62 12 -271 35 -356 56
-200 147 -300 273 -301 204 -1 291 236 172 470 -53 105 -168 216 -291 280 -63
34 -67 34 -110 16z"/>
<path d="M2688 4217 c-110 -31 -179 -108 -186 -207 -11 -155 100 -280 248
-280 125 0 274 68 390 176 77 72 89 148 34 214 -35 41 -52 49 -163 76 -121 30
-259 39 -323 21z"/>
<path d="M1095 4118 c-58 -20 -105 -81 -105 -135 0 -34 31 -88 61 -103 12 -7
60 -20 108 -30 105 -22 144 -36 139 -52 -9 -26 -184 -67 -293 -68 -72 0 -102
-14 -132 -59 -46 -69 -19 -167 55 -198 30 -13 63 -15 177 -10 149 6 225 22
306 62 115 59 172 143 173 256 1 167 -134 291 -362 335 -84 16 -87 16 -127 2z"/>
<path d="M4214 3780 c-182 -39 -316 -229 -283 -403 19 -102 94 -190 189 -222
71 -24 188 -17 249 14 142 73 220 221 221 413 0 75 -1 79 -35 117 -60 66 -227
106 -341 81z m76 -309 c0 -14 -51 -52 -61 -45 -15 9 -10 32 9 43 22 13 52 14
52 2z"/>
<path d="M1654 3695 c-39 -16 -60 -61 -69 -145 -15 -146 33 -280 118 -334 85
-53 174 -45 240 20 87 88 72 257 -34 378 -65 74 -183 112 -255 81z"/>
<path d="M5203 3665 c-167 -45 -272 -143 -309 -285 -37 -145 37 -316 158 -365
121 -48 320 10 402 118 52 68 70 126 70 217 -1 107 -22 159 -101 242 -88 92
-116 101 -220 73z m27 -325 c0 -5 -10 -20 -22 -32 -21 -21 -23 -21 -26 -5 -2
10 2 24 8 32 14 17 40 20 40 5z"/>
<path d="M3442 3373 c-44 -8 -100 -79 -158 -198 -50 -101 -56 -121 -51 -158 8
-58 43 -87 105 -87 134 1 240 124 250 289 4 68 2 79 -19 105 -20 26 -77 58
-96 55 -4 -1 -18 -4 -31 -6z"/>
<path d="M2595 3159 c-314 -51 -452 -97 -754 -252 -130 -66 -256 -134 -281
-150 -181 -123 -327 -316 -376 -497 -24 -88 -24 -281 0 -370 57 -214 96 -272
306 -447 47 -40 139 -126 205 -193 151 -154 210 -195 343 -241 192 -66 459
-37 679 74 164 84 451 287 630 448 131 118 284 302 336 405 109 216 69 445
-119 675 -66 81 -207 217 -262 254 -23 15 -44 35 -47 44 -17 55 -208 183 -336
225 -95 32 -224 41 -324 25z m208 -417 c12 -11 64 -45 115 -76 138 -83 188
-123 288 -229 141 -148 180 -244 138 -333 -13 -27 -123 -162 -184 -225 -42
-43 -168 -146 -276 -225 -366 -270 -436 -306 -589 -308 -132 -1 -188 28 -332
175 -59 61 -160 159 -223 217 -168 154 -193 198 -192 337 1 118 54 231 146
312 27 24 145 90 308 171 270 135 360 169 508 191 41 6 86 13 100 15 14 3 58
3 98 2 57 -2 77 -7 95 -24z"/>
<path d="M414 2246 c-39 -17 -64 -52 -64 -87 0 -37 90 -296 122 -351 49 -82
120 -168 185 -223 146 -124 258 -142 344 -56 60 60 75 156 40 255 -50 143
-190 272 -449 415 -107 59 -135 67 -178 47z m406 -508 c-1 -15 -76 65 -92 97
-5 11 13 -3 41 -32 28 -28 51 -57 51 -65z"/>
<path d="M4565 1816 c-16 -7 -38 -23 -49 -34 -17 -20 -20 -20 -49 -6 -62 33
-152 6 -200 -59 -26 -34 -25 -134 2 -264 33 -157 92 -256 176 -294 107 -49
198 -1 238 126 25 78 79 413 72 444 -11 50 -82 102 -138 101 -12 -1 -35 -7
-52 -14z"/>
</g>
</svg>
