<?xml version="1.0" standalone="no"?>
<!DOCTYPE svg PUBLIC "-//W3C//DTD SVG 20010904//EN"
 "http://www.w3.org/TR/2001/REC-SVG-20010904/DTD/svg10.dtd">
<svg version="1.0" xmlns="http://www.w3.org/2000/svg"
 width="600.000000pt" height="600.000000pt" viewBox="0 0 600.000000 600.000000"
 preserveAspectRatio="xMidYMid meet">
<metadata>
Created by potrace 1.15, written by Peter Selinger 2001-2017
</metadata>
<g transform="translate(0.000000,600.000000) scale(0.100000,-0.100000)"
fill="#16364b" stroke="none">
<path d="M2934 5576 c-42 -19 -74 -63 -131 -182 -46 -96 -48 -102 -48 -189 0
-97 12 -130 72 -190 60 -59 94 -69 267 -75 l160 -5 -75 -60 c-41 -33 -112 -96
-159 -140 -47 -45 -132 -122 -190 -172 -173 -150 -211 -193 -217 -245 -4 -29
0 -55 10 -75 24 -46 89 -99 143 -116 110 -36 790 -207 821 -207 102 0 168 106
125 201 -21 49 -43 70 -87 87 -35 13 -393 102 -513 128 l-83 17 23 24 c43 46
232 194 353 275 249 169 285 208 285 314 0 89 -38 143 -140 198 -76 41 -161
57 -343 63 -193 7 -181 -5 -121 115 40 79 44 136 14 185 -35 58 -101 77 -166
49z"/>
<path d="M1536 5285 c-140 -57 -316 -207 -411 -350 -80 -119 -173 -345 -190
-458 -11 -70 21 -132 81 -159 l47 -20 146 41 c213 59 351 78 351 46 0 -8 -29
-79 -64 -157 -88 -197 -99 -233 -92 -294 5 -45 3 -52 -17 -63 -84 -45 -90
-197 -10 -255 57 -42 93 -35 345 59 128 48 268 105 310 127 87 45 108 75 108
155 0 57 -31 107 -83 135 -52 28 -93 22 -199 -29 -54 -25 -100 -44 -103 -42
-2 3 19 59 49 125 65 148 80 200 81 289 0 86 -35 165 -92 208 -68 51 -155 69
-308 65 -74 -1 -134 0 -133 4 2 3 24 33 50 67 62 78 155 155 260 211 72 39 86
51 106 92 27 53 23 98 -12 151 -24 36 -97 77 -136 77 -14 0 -51 -11 -84 -25z"/>
<path d="M4505 4555 c-57 -12 -221 -67 -348 -115 -83 -31 -117 -73 -117 -143
0 -70 77 -147 148 -147 13 0 93 23 178 52 84 29 156 49 159 46 8 -8 -71 -168
-122 -246 -19 -31 -76 -112 -125 -180 -98 -135 -108 -155 -108 -212 0 -41 18
-64 98 -127 56 -45 64 -48 320 -94 125 -23 237 -45 249 -50 l23 -8 -21 -53
c-11 -29 -70 -149 -130 -266 -118 -230 -126 -259 -89 -319 27 -45 73 -66 130
-61 64 6 93 31 139 118 22 41 81 147 130 235 115 202 134 248 138 350 4 75 2
84 -27 133 -64 110 -184 164 -459 206 -58 9 -106 18 -108 20 -2 1 20 38 48 80
64 97 160 280 194 371 36 93 45 225 21 289 -10 25 -35 60 -56 80 -62 56 -142
68 -265 41z"/>
<path d="M3734 3637 c-122 -59 -170 -223 -92 -313 57 -64 140 -69 203 -10 19
18 37 31 40 28 10 -10 5 -70 -10 -113 -40 -112 -44 -117 -114 -140 -191 -62
-361 -206 -361 -304 0 -42 26 -91 61 -117 71 -53 145 -44 220 27 61 57 134 92
236 111 169 32 211 54 239 121 18 43 18 111 -1 147 -14 27 -14 37 1 104 42
188 -26 370 -167 447 -77 41 -183 46 -255 12z"/>
<path d="M2538 3569 c-93 -12 -236 -60 -348 -116 -85 -43 -97 -53 -117 -93
-42 -82 -19 -164 57 -202 52 -26 97 -22 177 16 104 50 226 88 286 90 l52 1 3
-44 c6 -85 -75 -292 -179 -457 -49 -77 -53 -140 -14 -198 l25 -37 -27 -36
c-37 -48 -44 -150 -15 -203 27 -50 92 -96 144 -104 47 -6 55 -5 233 49 111 33
242 65 267 65 17 0 1 -62 -43 -168 -69 -165 -71 -186 -23 -269 28 -48 107 -93
163 -93 49 1 114 32 138 66 22 32 85 190 129 324 24 73 28 102 28 205 1 105
-2 125 -21 161 -70 132 -196 179 -415 156 -62 -7 -147 -21 -188 -32 -41 -10
-76 -17 -78 -15 -3 2 7 23 21 47 55 95 127 248 153 328 25 73 29 101 29 200 0
106 -2 120 -28 172 -35 72 -120 151 -184 172 -65 21 -145 26 -225 15z"/>
<path d="M1067 3276 c-83 -34 -191 -101 -221 -136 -47 -56 -58 -138 -27 -205
45 -99 138 -144 239 -116 30 9 32 8 32 -14 0 -13 -16 -106 -35 -207 -48 -247
-65 -381 -65 -508 0 -126 14 -213 42 -258 29 -47 96 -83 166 -88 110 -6 149
18 212 131 18 33 81 130 140 215 59 85 134 196 166 245 32 50 80 121 108 159
l49 68 21 -38 c19 -35 21 -53 19 -184 -2 -93 -12 -206 -28 -315 -49 -328 -57
-400 -53 -496 3 -86 6 -100 31 -132 65 -85 204 -72 262 26 15 25 19 48 17 105
-2 77 22 275 59 497 18 103 22 173 23 335 1 201 0 208 -32 330 -51 195 -112
265 -232 264 -130 0 -254 -105 -470 -397 -36 -48 -66 -83 -68 -78 -2 6 11 72
29 148 44 190 52 371 19 472 -26 83 -65 132 -134 171 -45 26 -61 30 -131 30
-61 0 -94 -6 -138 -24z"/>
<path d="M4761 2439 c-90 -27 -167 -114 -185 -210 l-6 -36 -150 -7 c-196 -9
-295 -28 -397 -76 -90 -44 -137 -90 -178 -175 -44 -91 -59 -183 -58 -372 1
-95 -1 -173 -4 -173 -2 0 -27 18 -56 39 -128 97 -295 146 -418 123 -169 -31
-281 -146 -472 -483 -36 -63 -78 -141 -93 -172 -16 -31 -31 -57 -35 -57 -13 0
-67 143 -83 220 -8 41 -27 140 -40 220 -42 246 -77 324 -160 364 -43 20 -106
21 -153 1 -101 -43 -132 -130 -99 -277 8 -35 27 -139 41 -231 48 -311 107
-460 230 -582 89 -90 153 -118 265 -118 116 0 178 28 269 122 60 62 83 95 123
180 60 126 168 318 215 384 60 82 82 76 245 -58 56 -47 132 -100 168 -118 56
-28 75 -32 140 -32 64 0 85 5 135 30 62 31 157 117 187 170 10 17 36 52 58 80
54 68 58 105 31 284 -13 80 -21 162 -19 181 3 32 6 35 43 42 22 3 126 6 230 6
197 0 240 7 331 55 118 62 194 241 181 426 -7 99 -29 152 -83 200 -61 54 -130
70 -203 50z"/>
</g>
</svg>
