<?xml version="1.0" standalone="no"?>
<!DOCTYPE svg PUBLIC "-//W3C//DTD SVG 20010904//EN"
 "http://www.w3.org/TR/2001/REC-SVG-20010904/DTD/svg10.dtd">
<svg version="1.0" xmlns="http://www.w3.org/2000/svg"
 width="600.000000pt" height="600.000000pt" viewBox="0 0 600.000000 600.000000"
 preserveAspectRatio="xMidYMid meet">
<metadata>
Created by potrace 1.15, written by Peter Selinger 2001-2017
</metadata>
<g transform="translate(0.000000,600.000000) scale(0.100000,-0.100000)"
fill="#16364b" stroke="none">
<path d="M3120 5628 c-57 -39 -74 -71 -73 -136 4 -122 70 -261 169 -352 47
-44 71 -60 242 -159 57 -33 71 -45 62 -56 -11 -13 -214 -150 -330 -222 -36
-22 -100 -62 -144 -89 -85 -53 -136 -103 -136 -134 0 -14 -17 -27 -55 -46
-133 -65 -176 -175 -106 -273 44 -62 139 -67 217 -12 59 43 141 70 254 83 118
13 142 22 180 65 24 27 30 43 30 79 0 25 -8 59 -17 75 -9 15 -15 30 -12 32 2
2 43 27 92 56 104 62 227 153 281 207 49 49 86 127 86 180 0 22 -7 63 -16 90
-26 75 -158 201 -299 283 -142 83 -180 122 -194 198 -15 76 -29 103 -70 130
-46 31 -116 31 -161 1z"/>
<path d="M1210 5353 c-82 -49 -204 -171 -253 -253 -115 -198 -153 -432 -101
-624 21 -76 47 -114 90 -132 71 -30 150 -7 192 56 20 30 23 43 18 95 -23 253
-18 307 36 417 38 75 94 133 174 180 75 44 106 93 101 159 -5 56 -34 101 -81
123 -56 26 -104 21 -176 -21z"/>
<path d="M1551 5130 c-51 -11 -105 -49 -126 -90 -37 -72 -3 -165 74 -202 25
-12 47 -22 49 -24 2 -1 -8 -35 -23 -76 -31 -85 -43 -203 -26 -265 21 -76 69
-134 143 -172 58 -29 79 -34 163 -39 111 -6 157 9 196 61 31 42 37 122 14 171
-26 55 -68 80 -142 84 -45 3 -63 8 -63 18 0 7 19 60 41 116 51 125 66 207 50
264 -29 106 -100 156 -226 160 -44 2 -100 -1 -124 -6z"/>
<path d="M4500 4588 c-83 -43 -112 -145 -61 -216 28 -40 87 -62 169 -63 37 -1
78 -4 92 -8 27 -8 32 -5 -155 -101 -92 -47 -118 -84 -113 -160 5 -67 27 -102
84 -130 65 -32 91 -27 252 55 222 113 316 198 343 308 40 168 -66 265 -339
311 -171 29 -222 30 -272 4z"/>
<path d="M1860 4236 c-89 -20 -130 -35 -230 -88 -110 -57 -208 -129 -240 -175
-46 -68 -30 -174 33 -215 75 -50 134 -41 233 35 78 59 232 134 292 142 110 15
163 49 184 116 21 71 -14 149 -83 184 -33 18 -112 18 -189 1z"/>
<path d="M2535 3699 c-70 -13 -202 -56 -255 -83 -109 -55 -123 -187 -28 -260
53 -40 90 -41 202 -7 87 27 195 51 235 51 59 0 -139 -397 -331 -665 -36 -49
-68 -103 -72 -118 -10 -42 11 -104 51 -148 l36 -40 -23 -41 c-17 -30 -23 -58
-23 -97 0 -85 38 -143 115 -176 65 -27 107 -20 255 45 136 60 270 107 279 98
2 -3 -9 -46 -25 -96 -31 -94 -79 -197 -138 -294 -61 -102 -55 -196 17 -262 81
-73 189 -73 272 2 65 59 167 279 230 495 28 98 32 127 33 232 0 136 -12 170
-82 238 -65 63 -127 81 -278 81 -125 0 -134 -1 -235 -37 -162 -58 -147 -56
-123 -16 139 227 227 382 261 460 123 282 124 467 1 572 -79 68 -224 93 -374
66z"/>
<path d="M3985 3701 c-107 -26 -161 -100 -152 -209 4 -50 12 -73 37 -110 39
-57 107 -114 179 -149 63 -31 186 -43 246 -23 71 23 145 112 145 174 0 40 -29
90 -66 115 -23 16 -34 31 -34 48 0 39 -26 89 -59 112 -55 39 -214 62 -296 42z"/>
<path d="M1105 3536 c-93 -30 -299 -149 -333 -194 -54 -71 -39 -201 32 -274
65 -67 132 -83 199 -49 33 17 37 17 37 2 0 -23 -50 -183 -103 -331 -121 -338
-159 -612 -98 -702 34 -49 76 -74 155 -92 120 -28 146 -12 309 199 46 61 146
182 222 270 75 88 164 197 197 243 33 45 64 82 68 82 16 0 19 -51 10 -149 -11
-116 -26 -185 -79 -366 -70 -237 -103 -399 -103 -511 0 -157 28 -228 106 -265
60 -30 109 -20 157 31 42 44 52 80 43 165 -8 74 15 202 87 490 78 309 89 373
89 505 0 158 -17 363 -36 428 -38 134 -163 185 -293 118 -39 -21 -132 -119
-214 -228 -92 -121 -229 -289 -234 -285 -1 2 17 64 42 137 61 181 96 344 102
471 5 99 4 110 -20 163 -31 67 -64 100 -132 132 -57 27 -144 31 -210 10z"/>
<path d="M3635 3236 c-159 -50 -270 -184 -283 -341 -4 -56 -2 -69 19 -99 61
-89 187 -99 261 -21 31 33 36 35 100 35 140 0 245 72 268 186 23 111 -30 202
-139 239 -53 18 -170 19 -226 1z"/>
<path d="M4632 3169 c-42 -28 -62 -67 -62 -124 0 -59 10 -77 79 -147 59 -61
131 -170 131 -199 0 -10 -9 -20 -20 -24 -56 -18 -80 -146 -40 -213 40 -65 113
-88 185 -58 46 20 122 91 148 141 18 33 22 56 22 140 -1 94 -3 105 -38 178
-20 43 -53 102 -74 130 -51 71 -142 166 -175 183 -41 21 -117 17 -156 -7z"/>
<path d="M4500 2269 c-50 -20 -102 -64 -128 -108 -23 -40 -27 -57 -27 -129 l0
-84 -25 5 c-14 3 -61 15 -105 27 -65 19 -106 23 -220 24 -133 1 -143 0 -201
-27 -65 -30 -136 -96 -172 -160 -48 -84 -57 -146 -57 -397 0 -257 5 -287 57
-345 64 -73 153 -104 246 -84 43 9 64 20 102 57 66 65 71 89 63 308 -4 116 -2
183 4 187 5 3 63 -7 129 -23 104 -26 130 -29 209 -24 172 12 273 51 350 137
67 73 88 138 93 283 7 204 -24 286 -129 338 -56 28 -139 34 -189 15z"/>
<path d="M2165 1845 c-51 -18 -101 -72 -115 -124 -12 -44 -6 -211 12 -366 19
-165 130 -452 215 -556 57 -69 143 -133 250 -186 79 -39 106 -48 162 -51 54
-3 74 1 110 20 77 40 109 111 90 197 -5 24 -8 45 -6 47 2 2 57 -35 122 -83
194 -140 317 -181 447 -149 77 20 187 93 231 154 36 49 48 140 27 192 -17 41
-81 97 -127 109 -72 20 -114 10 -206 -47 -26 -16 -29 -16 -70 7 -102 58 -217
140 -282 201 -91 86 -184 156 -237 180 -111 50 -230 3 -270 -106 -6 -19 -15
-34 -18 -34 -14 0 -41 158 -51 303 -13 175 -28 220 -88 261 -67 47 -126 56
-196 31z"/>
</g>
</svg>
