<?xml version="1.0" standalone="no"?>
<!DOCTYPE svg PUBLIC "-//W3C//DTD SVG 20010904//EN"
 "http://www.w3.org/TR/2001/REC-SVG-20010904/DTD/svg10.dtd">
<svg version="1.0" xmlns="http://www.w3.org/2000/svg"
 width="600.000000pt" height="600.000000pt" viewBox="0 0 600.000000 600.000000"
 preserveAspectRatio="xMidYMid meet">
<metadata>
Created by potrace 1.15, written by Peter Selinger 2001-2017
</metadata>
<g transform="translate(0.000000,600.000000) scale(0.100000,-0.100000)"
fill="#16364b" stroke="none">
<path d="M2264 5451 c-55 -34 -114 -189 -114 -301 0 -59 30 -137 69 -177 50
-52 99 -68 211 -68 62 1 139 8 189 18 46 10 86 16 89 12 3 -3 -9 -24 -26 -48
-165 -221 -269 -403 -327 -572 -25 -71 -26 -85 -16 -121 6 -23 23 -54 37 -69
21 -23 24 -33 19 -66 -9 -52 9 -102 50 -138 57 -49 78 -48 321 12 201 51 383
86 525 102 99 11 151 63 151 150 0 89 -57 145 -149 145 -64 0 -292 -39 -485
-83 -110 -25 -148 -31 -148 -21 0 28 155 318 246 459 174 271 201 356 141 457
-69 118 -193 144 -448 92 -71 -15 -132 -25 -134 -22 -3 3 2 21 10 41 29 70 13
142 -44 190 -41 34 -118 38 -167 8z"/>
<path d="M3915 5048 c-64 -12 -204 -79 -251 -121 -92 -80 -82 -207 21 -257 56
-27 95 -22 164 20 63 39 124 60 174 60 l40 0 -6 -72 c-7 -86 -39 -190 -108
-344 -55 -125 -60 -165 -26 -214 33 -49 68 -71 115 -73 41 -1 42 -2 42 -35 0
-46 35 -109 73 -132 39 -24 80 -25 247 -5 144 17 268 19 304 5 45 -17 37 -82
-40 -366 -36 -132 -42 -167 -34 -194 14 -49 35 -75 73 -94 71 -33 149 -11 184
52 26 46 116 360 133 462 41 248 -76 410 -320 441 -83 10 -291 0 -425 -21 -33
-6 -64 -10 -69 -10 -13 0 -2 34 48 155 77 187 99 274 100 400 1 85 -3 120 -17
154 -63 154 -224 227 -422 189z"/>
<path d="M1690 4970 c-140 -38 -430 -201 -518 -293 -57 -59 -57 -139 1 -205
18 -20 40 -49 50 -64 37 -59 77 -78 222 -103 249 -44 335 -75 416 -150 58 -54
109 -71 166 -56 76 21 125 110 103 189 -20 75 -115 170 -225 226 -50 24 -213
76 -242 76 -8 0 -13 5 -11 11 7 20 140 70 202 75 108 11 169 71 170 167 0 51
-19 85 -68 121 -40 30 -165 33 -266 6z"/>
<path d="M2135 3920 c-109 -37 -263 -70 -414 -89 -162 -20 -199 -34 -232 -87
-25 -42 -25 -119 1 -161 32 -53 71 -67 170 -60 252 17 589 94 648 150 75 70
68 187 -13 237 -48 29 -93 32 -160 10z"/>
<path d="M3708 3741 c-31 -10 -121 -55 -200 -99 -79 -44 -190 -103 -248 -131
-151 -73 -194 -129 -176 -225 14 -71 99 -124 177 -110 48 9 261 114 342 168
38 25 73 46 77 46 11 0 -11 -62 -79 -233 -28 -70 -51 -142 -51 -160 0 -40 44
-111 79 -128 26 -12 26 -12 -19 -24 -92 -24 -137 -65 -155 -138 -17 -68 32
-155 101 -177 82 -27 360 61 556 176 152 89 310 237 329 308 19 68 -8 123 -75
156 -80 38 -158 21 -236 -54 -25 -24 -65 -57 -90 -73 -67 -45 -220 -126 -226
-120 -3 3 23 74 59 159 80 188 103 259 122 367 22 125 2 208 -65 264 -57 49
-129 58 -222 28z"/>
<path d="M2315 3325 c-5 -2 -63 -9 -128 -16 -102 -11 -124 -16 -157 -40 -72
-52 -82 -170 -20 -234 45 -47 80 -51 235 -31 164 21 234 21 241 1 3 -8 -3 -43
-15 -77 -26 -76 -26 -111 -2 -164 26 -58 72 -87 143 -92 56 -4 59 -3 96 34 57
57 87 152 87 274 0 78 -4 104 -23 145 -48 105 -151 175 -288 195 -66 9 -148
12 -169 5z"/>
<path d="M4895 3120 c-49 -15 -102 -66 -131 -126 -25 -51 -26 -61 -21 -138 7
-81 6 -83 -21 -108 -15 -13 -66 -50 -114 -82 -110 -72 -234 -188 -286 -268
-96 -147 -126 -316 -82 -459 45 -150 133 -287 215 -335 132 -77 297 -7 341
144 25 84 11 136 -61 237 -26 38 -26 119 1 165 13 23 63 64 150 123 196 133
267 208 306 324 53 161 20 370 -73 461 -19 19 -47 40 -63 49 -35 18 -121 25
-161 13z"/>
<path d="M1195 3043 c-60 -31 -95 -80 -108 -150 -10 -52 18 -127 61 -162 20
-17 44 -37 53 -44 13 -12 17 -55 22 -288 14 -555 79 -736 270 -747 72 -4 107
13 153 73 39 51 44 135 15 222 -12 34 -21 67 -21 73 0 5 18 1 39 -11 60 -31
102 -34 153 -11 48 21 52 25 129 144 60 91 125 168 144 168 7 0 16 -12 20 -27
3 -15 16 -40 27 -56 l21 -30 -37 -161 c-40 -177 -56 -290 -56 -409 0 -93 17
-138 64 -166 71 -42 140 -34 196 24 l34 35 12 172 c11 151 18 191 54 316 44
152 45 190 9 236 -11 13 -19 37 -19 54 0 33 -28 119 -59 180 -63 124 -179 185
-305 161 -90 -16 -174 -65 -257 -148 -61 -63 -165 -207 -182 -255 -13 -34 -19
30 -27 280 -6 211 -12 292 -25 333 -30 96 -85 160 -169 195 -51 21 -171 21
-211 -1z"/>
<path d="M3455 2273 c-174 -21 -655 -122 -712 -150 -45 -21 -101 -88 -114
-136 -29 -108 62 -217 182 -217 24 0 103 11 174 25 184 36 515 85 573 85 45 0
51 -3 61 -28 17 -40 58 -82 97 -98 54 -22 145 -18 184 9 64 43 75 68 74 170 0
83 -3 98 -31 152 -52 100 -116 152 -228 181 -46 13 -187 16 -260 7z"/>
<path d="M4475 1551 c-45 -11 -88 -36 -139 -80 -57 -49 -90 -56 -214 -45 -233
21 -411 -5 -576 -85 -108 -53 -195 -128 -296 -255 -62 -79 -90 -107 -112 -111
-16 -4 -60 -35 -98 -69 -71 -63 -138 -96 -197 -96 -91 0 -252 86 -334 178 -23
26 -70 90 -105 143 -68 105 -114 139 -185 139 -79 -1 -168 -71 -189 -152 -17
-61 -5 -115 45 -202 88 -156 224 -289 383 -378 132 -74 314 -117 436 -103 141
16 308 93 417 193 30 27 75 58 100 69 25 11 63 40 85 64 110 122 144 154 211
199 109 73 182 87 378 71 178 -15 249 -4 373 55 103 49 212 157 232 226 15 57
7 119 -21 165 -34 55 -127 90 -194 74z"/>
</g>
</svg>
