<?xml version="1.0" standalone="no"?>
<!DOCTYPE svg PUBLIC "-//W3C//DTD SVG 20010904//EN"
 "http://www.w3.org/TR/2001/REC-SVG-20010904/DTD/svg10.dtd">
<svg version="1.0" xmlns="http://www.w3.org/2000/svg"
 width="600.000000pt" height="600.000000pt" viewBox="0 0 600.000000 600.000000"
 preserveAspectRatio="xMidYMid meet">
<metadata>
Created by potrace 1.15, written by Peter Selinger 2001-2017
</metadata>
<g transform="translate(0.000000,600.000000) scale(0.100000,-0.100000)"
fill="#16364b" stroke="none">
<path d="M1884 5801 c-23 -10 -50 -32 -61 -47 -37 -53 -250 -478 -273 -544
-13 -36 -25 -99 -27 -140 -4 -64 -1 -81 19 -120 48 -94 137 -111 275 -52 83
34 225 125 308 196 267 228 285 248 285 319 0 84 -62 151 -150 163 -60 8 -83
-3 -180 -81 -45 -36 -84 -64 -87 -62 -2 3 17 47 42 98 69 138 65 201 -16 261
-37 28 -88 32 -135 9z"/>
<path d="M3045 5716 c-64 -29 -95 -85 -95 -170 0 -73 19 -93 148 -161 188
-100 295 -193 393 -343 46 -69 89 -166 89 -197 0 -30 -37 -52 -96 -60 -72 -8
-117 -34 -138 -79 -45 -96 10 -197 120 -220 40 -9 159 16 215 44 107 54 179
151 194 260 21 151 -121 436 -310 625 -86 86 -210 177 -346 256 -96 55 -131
65 -174 45z"/>
<path d="M993 5419 c-273 -46 -463 -280 -423 -519 18 -105 59 -182 143 -264
81 -81 126 -106 189 -106 76 0 135 52 145 128 7 55 -18 103 -81 150 -146 110
-96 258 96 286 121 18 182 131 128 240 -35 73 -101 101 -197 85z"/>
<path d="M2925 5131 c-106 -26 -197 -123 -237 -254 -23 -76 -19 -136 13 -198
25 -49 93 -107 143 -120 93 -26 251 -5 309 41 34 27 61 100 53 142 -4 18 -10
75 -15 126 -7 73 -16 107 -40 157 -27 55 -38 67 -83 89 -52 26 -87 30 -143 17z"/>
<path d="M4778 4880 c-43 -13 -97 -62 -113 -103 -33 -81 -8 -254 55 -385 63
-131 169 -231 273 -254 137 -31 287 70 317 215 38 183 -116 379 -403 512 -54
26 -83 29 -129 15z"/>
<path d="M1949 4751 c-129 -41 -183 -95 -183 -183 0 -116 119 -180 238 -127
59 26 73 16 82 -53 9 -64 39 -108 94 -135 55 -28 82 -29 136 -2 83 40 105 129
65 258 -65 211 -234 305 -432 242z"/>
<path d="M1210 4013 c-253 -34 -322 -72 -349 -193 -31 -140 90 -268 231 -245
49 9 52 14 -57 -120 -148 -184 -266 -368 -371 -576 -98 -195 -111 -249 -79
-327 32 -75 86 -112 165 -112 62 0 80 9 145 69 28 26 79 67 115 91 102 69 252
183 420 320 181 149 262 210 274 210 28 0 -42 -327 -109 -505 -60 -160 -224
-443 -364 -633 -61 -81 -65 -91 -69 -148 -4 -59 -3 -63 32 -101 57 -64 139
-77 219 -36 75 38 355 498 450 738 41 104 61 174 113 410 34 151 38 185 39
310 0 164 -14 213 -75 269 -51 46 -108 61 -177 47 -75 -15 -142 -50 -277 -147
-65 -46 -120 -84 -122 -84 -3 0 31 46 74 103 193 251 238 381 176 505 -32 65
-77 104 -150 132 -59 21 -183 33 -254 23z"/>
<path d="M2899 4007 c-149 -42 -236 -160 -211 -284 25 -123 124 -203 314 -255
110 -30 352 -34 408 -5 50 25 80 73 80 130 0 33 7 57 25 83 31 45 33 100 5
154 -18 35 -34 46 -123 89 -56 28 -136 60 -177 71 -94 27 -257 35 -321 17z"/>
<path d="M4255 3780 c-112 -24 -224 -89 -273 -157 -59 -83 -71 -217 -28 -308
74 -157 260 -225 410 -151 118 58 208 179 275 369 37 105 37 117 11 173 -31
63 -65 75 -223 79 -73 3 -150 0 -172 -5z m55 -304 c0 -3 -14 -14 -31 -27 -21
-15 -34 -18 -41 -11 -7 7 -1 15 18 26 28 15 54 21 54 12z"/>
<path d="M3415 3391 c-68 -30 -110 -93 -176 -258 -65 -163 -7 -253 162 -253
95 0 157 21 207 70 104 100 112 312 16 402 -61 57 -138 72 -209 39z"/>
<path d="M4982 3089 c-20 -6 -68 -45 -130 -107 -125 -125 -164 -197 -170 -319
-5 -95 11 -153 58 -213 107 -135 382 -63 473 123 78 160 60 336 -46 446 -74
76 -113 90 -185 70z"/>
<path d="M3957 2619 c-48 -11 -107 -42 -129 -66 -28 -31 -58 -106 -58 -146 0
-21 21 -101 46 -178 25 -78 44 -142 42 -144 -2 -3 -33 7 -68 21 -163 67 -320
-18 -366 -197 -33 -127 1 -398 78 -617 65 -187 93 -227 177 -257 148 -52 300
26 332 170 11 50 3 100 -27 180 -5 12 1 12 37 -5 129 -58 324 22 395 162 57
113 49 216 -34 433 -55 146 -70 192 -118 385 -23 89 -44 148 -62 174 -47 69
-157 107 -245 85z"/>
<path d="M2007 2205 c-92 -34 -187 -135 -262 -280 -41 -78 -47 -148 -17 -206
l18 -35 -63 -75 c-73 -85 -146 -224 -168 -319 -22 -97 -20 -287 5 -386 30
-121 98 -248 176 -332 124 -135 321 -259 474 -299 94 -25 280 -22 382 5 231
63 394 172 488 328 32 54 35 65 35 139 1 78 2 82 47 150 94 143 141 263 221
560 51 187 60 242 53 310 -7 73 -46 154 -89 191 -82 69 -215 99 -339 74 -85
-16 -266 -88 -418 -166 -69 -35 -128 -64 -132 -64 -3 0 -9 15 -13 33 -44 228
-90 317 -190 363 -58 27 -147 31 -208 9z m1003 -579 c0 -2 -10 -35 -21 -72
-48 -155 -147 -378 -227 -509 -34 -55 -37 -67 -37 -133 0 -68 -2 -76 -34 -113
-82 -99 -197 -143 -351 -137 -91 3 -104 7 -182 45 -108 54 -207 143 -238 214
-47 111 -45 250 8 362 31 66 159 209 166 185 19 -79 66 -198 88 -230 33 -45
95 -77 148 -78 19 0 58 11 87 24 71 34 106 87 111 171 l4 63 132 66 c161 81
346 157 346 142z"/>
</g>
</svg>
