<?xml version="1.0" standalone="no"?>
<!DOCTYPE svg PUBLIC "-//W3C//DTD SVG 20010904//EN"
 "http://www.w3.org/TR/2001/REC-SVG-20010904/DTD/svg10.dtd">
<svg version="1.0" xmlns="http://www.w3.org/2000/svg"
 width="600.000000pt" height="600.000000pt" viewBox="0 0 600.000000 600.000000"
 preserveAspectRatio="xMidYMid meet">
<metadata>
Created by potrace 1.15, written by Peter Selinger 2001-2017
</metadata>
<g transform="translate(0.000000,600.000000) scale(0.100000,-0.100000)"
fill="#16364b" stroke="none">
<path d="M2369 5388 c-20 -22 -21 -30 -16 -139 10 -222 -17 -416 -70 -523 -38
-76 -122 -158 -201 -195 -37 -18 -75 -40 -84 -49 -22 -19 -23 -75 -2 -96 34
-34 64 -32 154 15 99 51 198 143 247 229 70 122 103 311 103 591 0 123 -2 139
-21 163 -27 34 -79 36 -110 4z"/>
<path d="M3533 5290 c-25 -10 -53 -58 -53 -91 0 -69 135 -256 207 -286 53 -21
106 -17 138 13 25 23 27 30 23 78 -3 42 -14 67 -51 123 -49 74 -113 138 -150
152 -40 15 -92 20 -114 11z"/>
<path d="M2983 5111 c-151 -89 -195 -327 -72 -393 57 -31 112 -19 192 41 79
59 131 192 108 278 -16 60 -60 96 -123 100 -45 3 -61 -1 -105 -26z m78 -164
c-11 -34 -66 -95 -76 -85 -10 10 21 79 50 109 33 35 42 26 26 -24z"/>
<path d="M4749 4730 l-32 -31 6 -157 c8 -224 42 -365 105 -436 63 -71 184 -55
235 32 61 104 9 330 -118 507 -58 81 -85 105 -128 112 -31 5 -40 1 -68 -27z"/>
<path d="M2657 4228 c-41 -11 -94 -57 -108 -95 -45 -119 61 -243 233 -273 106
-19 235 16 315 84 57 48 62 136 11 183 -33 29 -262 100 -344 107 -38 3 -86 0
-107 -6z"/>
<path d="M5235 3967 c-86 -29 -134 -67 -171 -137 -15 -28 -19 -57 -19 -140 0
-93 3 -112 27 -162 36 -77 106 -151 170 -178 71 -31 209 -26 283 10 115 56
187 165 193 290 6 126 -43 207 -172 282 -69 41 -74 42 -171 45 -63 2 -115 -2
-140 -10z m182 -301 c10 -10 -29 -46 -48 -46 -18 0 -39 27 -39 51 0 12 75 8
87 -5z"/>
<path d="M4193 3746 c-139 -45 -233 -175 -233 -320 0 -50 6 -75 31 -125 53
-105 145 -156 271 -150 130 7 239 83 296 207 38 82 44 220 13 281 -19 36 -33
48 -97 78 -62 29 -88 36 -156 39 -53 3 -98 -1 -125 -10z m117 -278 c0 -16 -31
-48 -47 -48 -18 0 -17 25 3 44 18 19 44 21 44 4z"/>
<path d="M3437 3360 c-35 -28 -160 -275 -159 -315 1 -38 33 -65 79 -65 75 0
201 176 211 295 4 47 1 57 -21 79 -32 32 -74 34 -110 6z"/>
<path d="M1068 3359 c-91 -13 -164 -54 -244 -133 -39 -39 -80 -91 -92 -116
-84 -176 -14 -382 172 -502 80 -51 167 -77 301 -88 139 -11 182 -28 243 -95
91 -99 146 -231 218 -520 87 -351 134 -456 253 -575 86 -86 173 -137 291 -169
103 -29 196 -38 555 -56 171 -9 375 -23 455 -31 261 -29 500 -17 945 47 295
42 493 109 713 241 149 89 230 190 301 371 53 139 73 245 73 392 0 180 -39
336 -113 462 -49 83 -181 216 -277 280 -160 107 -325 141 -527 109 -211 -32
-404 -108 -560 -221 -229 -165 -290 -198 -406 -215 -169 -25 -399 57 -652 232
-535 371 -703 455 -1039 522 -107 22 -371 58 -508 70 -25 2 -71 0 -102 -5z
m325 -395 c398 -59 510 -103 883 -354 432 -291 626 -389 854 -435 131 -27 298
-17 413 23 114 40 219 96 383 205 157 104 253 150 383 184 181 47 311 17 438
-100 96 -89 143 -209 143 -363 0 -138 -49 -287 -122 -369 -61 -70 -280 -184
-429 -224 -185 -50 -610 -87 -879 -76 -96 3 -269 10 -385 15 -670 26 -811 47
-903 140 -59 58 -83 119 -168 425 -142 512 -299 739 -578 835 -30 10 -99 24
-153 30 -123 15 -211 56 -172 81 24 15 113 10 292 -17z"/>
<path d="M445 2045 c-33 -32 -32 -70 3 -104 15 -15 39 -46 54 -68 74 -112 175
-169 254 -143 92 31 82 120 -24 203 -75 58 -213 137 -241 137 -12 0 -33 -11
-46 -25z"/>
<path d="M5307 1099 c-43 -25 -74 -134 -57 -198 22 -82 120 -109 179 -50 37
37 46 64 46 147 0 57 -3 66 -28 88 -21 18 -40 24 -75 24 -26 0 -55 -5 -65 -11z"/>
</g>
</svg>
