<?xml version="1.0" standalone="no"?>
<!DOCTYPE svg PUBLIC "-//W3C//DTD SVG 20010904//EN"
 "http://www.w3.org/TR/2001/REC-SVG-20010904/DTD/svg10.dtd">
<svg version="1.0" xmlns="http://www.w3.org/2000/svg"
 width="600.000000pt" height="600.000000pt" viewBox="0 0 600.000000 600.000000"
 preserveAspectRatio="xMidYMid meet">
<metadata>
Created by potrace 1.15, written by Peter Selinger 2001-2017
</metadata>
<g transform="translate(0.000000,600.000000) scale(0.100000,-0.100000)"
fill="#16364b" stroke="none">
<path d="M3067 5610 c-73 -63 -149 -255 -151 -380 -1 -67 3 -84 32 -143 56
-112 130 -155 292 -166 l84 -6 -115 -82 c-258 -182 -473 -377 -485 -440 -26
-138 120 -242 486 -348 69 -20 194 -59 278 -87 162 -53 198 -56 249 -23 80 53
83 189 4 244 -35 24 -146 61 -371 122 -206 56 -250 70 -250 80 0 11 105 102
210 183 100 77 197 138 320 202 103 53 156 108 165 168 15 95 -41 173 -160
226 -81 37 -140 48 -286 55 -171 8 -170 8 -159 45 5 17 27 70 49 119 46 99 48
119 22 177 -26 58 -67 84 -130 84 -42 0 -56 -5 -84 -30z"/>
<path d="M1475 5394 c-88 -46 -271 -223 -374 -363 -157 -213 -257 -524 -207
-644 17 -42 68 -85 109 -92 22 -4 73 7 164 34 129 39 320 81 370 81 34 0 29
-16 -47 -160 -106 -198 -171 -350 -182 -420 -5 -36 -12 -78 -14 -95 -11 -70
62 -139 145 -137 52 1 414 149 536 219 87 50 107 77 113 147 6 69 -25 129 -80
157 -53 27 -96 24 -150 -10 -25 -16 -55 -34 -67 -40 -22 -12 -22 -12 -5 26 95
223 120 312 111 395 -11 91 -70 168 -162 210 -82 38 -260 31 -449 -18 l-30 -7
33 59 c86 152 223 317 316 378 63 43 85 77 85 138 0 118 -115 194 -215 142z"/>
<path d="M4637 4494 c-84 -18 -397 -126 -439 -151 -89 -52 -88 -189 2 -250 51
-35 100 -30 249 27 72 28 138 50 146 50 33 0 -97 -222 -249 -424 -107 -144
-124 -180 -107 -235 11 -40 70 -101 96 -101 7 0 22 -11 32 -24 21 -26 63 -49
107 -60 48 -12 400 -137 410 -146 11 -11 -30 -82 -182 -318 l-124 -192 4 -55
c7 -84 64 -135 150 -135 75 0 94 21 235 246 167 268 199 325 219 403 33 132
-13 226 -151 307 -58 33 -247 114 -340 144 -38 12 -74 26 -79 30 -4 5 23 52
62 107 281 395 338 663 161 762 -51 29 -119 34 -202 15z"/>
<path d="M3769 3666 c-73 -50 -87 -142 -35 -231 35 -60 85 -96 141 -103 64 -7
72 -21 54 -90 l-15 -57 -79 -6 c-169 -14 -303 -93 -396 -236 -37 -56 -44 -75
-47 -128 -4 -58 -2 -64 28 -98 56 -65 147 -73 210 -20 17 14 47 50 66 79 52
83 81 96 184 89 76 -5 90 -3 129 17 57 29 82 64 88 122 3 25 9 46 14 46 5 0
24 13 42 30 85 74 102 225 39 351 -39 80 -151 192 -232 232 -71 36 -141 37
-191 3z"/>
<path d="M2495 3620 c-73 -11 -159 -44 -250 -96 -102 -58 -150 -107 -160 -163
-15 -87 66 -180 157 -181 23 0 71 17 130 45 100 48 207 80 237 70 24 -7 30
-41 19 -111 -20 -126 -93 -288 -223 -494 -81 -128 -93 -160 -76 -212 14 -43
105 -136 156 -159 59 -27 89 -24 290 31 100 28 189 50 198 50 20 0 -18 -100
-97 -258 -47 -94 -56 -120 -56 -164 1 -177 226 -266 347 -136 30 31 155 293
188 393 15 44 32 123 38 176 9 84 8 105 -7 163 -25 90 -76 155 -153 192 -52
26 -68 29 -158 29 -65 0 -126 -7 -173 -19 -40 -10 -75 -16 -78 -14 -2 3 9 34
25 70 107 239 129 441 63 582 -53 112 -133 175 -261 202 -72 15 -82 15 -156 4z"/>
<path d="M1105 3363 c-66 -24 -126 -60 -225 -134 -95 -71 -124 -108 -140 -170
-21 -84 19 -168 101 -209 46 -24 132 -26 173 -5 16 9 31 13 34 11 2 -3 -14
-81 -36 -173 -84 -344 -104 -457 -109 -619 -5 -136 -3 -155 15 -196 11 -25 36
-58 56 -73 67 -51 225 -72 279 -37 15 11 75 84 134 163 58 79 143 189 188 244
94 116 170 220 239 331 l50 79 12 -30 c31 -71 15 -202 -61 -505 -59 -235 -77
-344 -77 -475 -1 -93 3 -119 21 -160 38 -86 100 -135 171 -135 111 0 186 144
131 251 -18 34 -21 52 -16 98 9 77 32 194 66 335 57 235 86 504 69 641 -7 50
-15 131 -20 180 -4 50 -13 104 -20 120 -44 116 -145 172 -253 141 -100 -29
-171 -101 -332 -336 -109 -158 -186 -262 -191 -257 -2 2 9 61 26 130 76 317
92 524 51 631 -55 139 -199 207 -336 159z"/>
<path d="M4655 2231 c-52 -23 -101 -80 -116 -133 -6 -24 -13 -49 -15 -57 -3
-8 -12 -11 -26 -7 -13 3 -76 11 -140 17 -201 21 -365 -15 -508 -111 -108 -72
-176 -213 -201 -418 -7 -56 -16 -102 -19 -102 -3 0 -33 23 -65 51 -170 146
-340 155 -528 29 -105 -70 -205 -191 -302 -365 -21 -36 -39 -64 -42 -61 -3 2
-11 62 -19 133 -33 295 -117 494 -230 548 -40 19 -126 20 -162 1 -84 -44 -129
-149 -99 -232 8 -21 24 -62 36 -91 21 -52 38 -146 66 -358 22 -161 48 -271 84
-350 74 -163 190 -253 335 -263 83 -5 132 7 177 45 37 32 52 61 73 140 26 105
242 494 300 542 24 20 46 6 186 -125 160 -149 200 -169 335 -169 92 0 104 2
153 29 128 71 157 143 172 428 5 108 12 203 16 211 6 15 46 27 96 27 16 0 86
-12 156 -27 164 -35 292 -37 372 -5 104 41 186 127 226 237 28 76 26 265 -3
321 -60 114 -197 166 -308 115z"/>
</g>
</svg>
