<?xml version="1.0" standalone="no"?>
<!DOCTYPE svg PUBLIC "-//W3C//DTD SVG 20010904//EN"
 "http://www.w3.org/TR/2001/REC-SVG-20010904/DTD/svg10.dtd">
<svg version="1.0" xmlns="http://www.w3.org/2000/svg"
 width="600.000000pt" height="600.000000pt" viewBox="0 0 600.000000 600.000000"
 preserveAspectRatio="xMidYMid meet">
<metadata>
Created by potrace 1.15, written by Peter Selinger 2001-2017
</metadata>
<g transform="translate(0.000000,600.000000) scale(0.100000,-0.100000)"
fill="#16364b" stroke="none">
<path d="M1525 5759 c-25 -12 -214 -275 -255 -355 -41 -79 -47 -122 -24 -169
35 -73 112 -81 227 -24 114 58 398 232 418 257 21 27 25 82 9 113 -6 10 -24
26 -40 34 -48 25 -89 19 -159 -26 -35 -22 -65 -38 -67 -36 -2 2 7 19 21 37 58
78 10 182 -82 179 -15 0 -37 -5 -48 -10z"/>
<path d="M2363 5440 c-17 -10 -36 -27 -41 -37 -6 -10 -12 -135 -15 -278 -3
-205 -8 -273 -22 -320 -36 -127 -107 -204 -243 -267 -48 -22 -95 -49 -104 -61
-37 -46 -13 -123 46 -151 47 -22 51 -21 144 24 216 104 315 213 363 398 22 86
44 410 37 552 -5 95 -17 122 -64 145 -42 20 -63 19 -101 -5z"/>
<path d="M3518 5320 c-36 -28 -59 -90 -48 -129 28 -100 143 -248 222 -284 123
-58 228 26 199 159 -15 64 -73 157 -129 205 -73 62 -196 87 -244 49z"/>
<path d="M2955 5141 c-50 -23 -110 -88 -141 -155 -78 -167 42 -333 215 -298
60 13 124 43 158 74 49 46 70 198 38 276 -44 105 -165 151 -270 103z"/>
<path d="M4730 4772 c-40 -40 -45 -84 -32 -252 17 -224 67 -352 165 -417 70
-47 139 -60 210 -39 98 28 157 109 165 222 10 153 -82 308 -253 424 -147 99
-204 113 -255 62z m264 -451 c-6 -6 -11 1 -18 29 l-7 25 15 -25 c8 -14 12 -27
10 -29z"/>
<path d="M2698 4240 c-216 -37 -305 -276 -152 -410 118 -103 301 -123 452 -49
67 33 174 125 198 170 32 62 8 156 -48 193 -48 32 -357 113 -398 105 -3 -1
-26 -5 -52 -9z"/>
<path d="M1104 4113 c-12 -2 -36 -20 -55 -39 -31 -33 -34 -40 -34 -99 0 -61 2
-67 35 -100 31 -30 46 -36 122 -50 87 -15 138 -32 138 -46 0 -12 -83 -56 -148
-78 -35 -12 -100 -26 -145 -32 -131 -18 -177 -54 -177 -139 0 -54 23 -91 73
-117 65 -33 306 9 460 80 90 42 172 114 198 175 59 136 -14 301 -165 375 -88
43 -250 81 -302 70z"/>
<path d="M4224 3765 c-206 -45 -341 -233 -290 -406 21 -73 64 -122 141 -160
247 -121 489 57 512 376 5 74 3 87 -16 118 -26 42 -66 62 -151 76 -82 14 -120
13 -196 -4z m56 -272 c0 -14 -15 -30 -36 -41 -24 -13 -35 -7 -27 15 8 20 63
43 63 26z"/>
<path d="M1673 3703 c-42 -8 -79 -57 -93 -122 -26 -124 3 -257 73 -329 53 -56
102 -76 184 -77 63 0 76 3 114 30 93 65 122 212 65 329 -33 68 -110 139 -173
160 -44 15 -119 19 -170 9z"/>
<path d="M5178 3634 c-125 -30 -227 -105 -275 -203 -24 -48 -28 -68 -28 -141
1 -73 5 -93 29 -139 108 -209 336 -237 499 -61 123 132 159 295 89 398 -34 49
-135 132 -182 149 -43 15 -60 15 -132 -3z m32 -314 c0 -5 -10 -20 -22 -32 -27
-27 -39 -6 -12 23 19 21 34 25 34 9z"/>
<path d="M3413 3370 c-44 -27 -86 -87 -146 -208 -48 -98 -50 -104 -38 -141 8
-27 22 -46 45 -60 42 -26 61 -26 130 -1 155 59 253 328 149 410 -33 26 -98 26
-140 0z"/>
<path d="M2561 3255 c-103 -23 -184 -53 -257 -97 -66 -39 -93 -60 -284 -219
-61 -51 -120 -88 -209 -131 -169 -81 -241 -131 -347 -240 -192 -197 -266 -356
-267 -568 0 -177 57 -358 153 -478 39 -50 384 -365 465 -425 66 -49 195 -106
280 -123 60 -12 113 -15 220 -11 235 8 354 54 582 226 216 163 383 335 506
521 31 47 74 111 97 142 72 100 120 231 120 326 -1 110 -59 266 -147 391 -50
70 -193 272 -230 323 -13 17 -23 41 -23 53 0 85 -208 265 -359 309 -67 20
-211 20 -300 1z m220 -407 c7 -13 42 -56 78 -97 88 -98 148 -174 191 -242 19
-31 59 -92 88 -135 68 -101 97 -190 80 -245 -6 -22 -25 -56 -43 -77 -17 -20
-47 -65 -65 -100 -60 -114 -231 -288 -384 -392 -26 -18 -78 -55 -115 -83 -129
-98 -266 -145 -384 -133 -114 12 -168 47 -450 289 -148 127 -185 185 -194 300
-16 194 120 399 327 494 169 77 267 139 401 253 46 39 107 86 135 105 71 48
185 84 261 85 55 0 64 -3 74 -22z"/>
<path d="M414 2270 c-30 -12 -62 -56 -69 -94 -8 -41 59 -247 114 -354 56 -106
134 -207 206 -265 140 -112 307 -110 382 5 24 36 28 52 28 112 0 184 -169 374
-487 547 -106 58 -133 66 -174 49z m353 -453 c51 -54 80 -97 65 -97 -10 0 -70
63 -107 113 -40 54 -16 45 42 -16z"/>
<path d="M4500 1879 c-14 -6 -36 -21 -50 -35 l-26 -24 -39 20 c-49 25 -95 25
-143 1 -80 -41 -90 -106 -47 -308 56 -264 109 -354 218 -369 35 -5 55 -2 90
15 87 42 124 131 173 418 l27 160 -23 48 c-33 69 -111 101 -180 74z"/>
</g>
</svg>
