<?xml version="1.0" standalone="no"?>
<!DOCTYPE svg PUBLIC "-//W3C//DTD SVG 20010904//EN"
 "http://www.w3.org/TR/2001/REC-SVG-20010904/DTD/svg10.dtd">
<svg version="1.0" xmlns="http://www.w3.org/2000/svg"
 width="600.000000pt" height="600.000000pt" viewBox="0 0 600.000000 600.000000"
 preserveAspectRatio="xMidYMid meet">
<metadata>
Created by potrace 1.15, written by Peter Selinger 2001-2017
</metadata>
<g transform="translate(0.000000,600.000000) scale(0.100000,-0.100000)"
fill="#16364b" stroke="none">
<path d="M2125 5816 c-41 -19 -501 -486 -557 -566 -58 -84 -78 -137 -78 -208
0 -68 29 -135 73 -166 24 -17 43 -21 110 -20 70 0 102 7 217 46 74 25 227 89
340 141 113 52 223 101 245 108 52 18 101 68 109 112 14 74 -43 154 -126 179
-47 14 -89 2 -277 -78 -57 -24 -106 -43 -108 -41 -2 3 33 40 79 83 45 44 105
102 134 129 58 56 77 103 64 159 -11 51 -44 91 -93 115 -50 24 -89 26 -132 7z"/>
<path d="M3076 5680 c-82 -25 -130 -134 -92 -208 29 -56 61 -74 170 -98 171
-38 269 -102 323 -212 23 -48 28 -72 31 -158 3 -83 1 -108 -14 -140 -29 -61
-88 -112 -182 -157 -104 -50 -132 -84 -132 -159 0 -87 51 -142 130 -142 59 0
210 72 295 141 77 62 157 174 187 260 31 91 33 297 4 383 -77 225 -221 361
-468 444 -62 21 -214 59 -221 55 -1 0 -15 -5 -31 -9z"/>
<path d="M945 5347 c-142 -53 -272 -162 -327 -274 -97 -198 2 -461 233 -619
62 -43 76 -48 122 -48 160 1 214 165 88 269 -94 78 -151 161 -151 220 0 73 63
133 185 175 69 24 100 50 116 98 14 43 0 97 -37 142 -55 65 -124 76 -229 37z"/>
<path d="M2753 4969 c-98 -18 -184 -94 -225 -198 -17 -45 -22 -77 -22 -161 -1
-96 2 -111 28 -168 48 -105 131 -164 273 -196 143 -32 210 -14 252 67 29 57
23 121 -16 167 -33 40 -46 46 -133 64 -94 20 -120 37 -120 79 0 51 24 77 72
77 85 0 138 49 138 128 0 101 -114 167 -247 141z"/>
<path d="M4814 4940 c-46 -14 -121 -85 -135 -127 -16 -51 -5 -219 21 -311 77
-273 265 -401 452 -309 58 29 108 79 144 147 15 27 19 56 19 130 0 88 -3 101
-34 165 -50 102 -159 207 -273 264 -93 45 -143 56 -194 41z"/>
<path d="M1859 4516 c-101 -28 -215 -109 -249 -177 -49 -95 -1 -207 97 -225
50 -9 106 11 171 61 84 65 99 66 161 11 58 -51 83 -61 145 -54 76 9 127 63
134 142 3 45 0 57 -30 100 -82 122 -272 185 -429 142z"/>
<path d="M2795 3895 c-66 -36 -95 -81 -95 -147 0 -43 27 -101 58 -124 12 -9
14 -25 8 -88 -10 -107 -48 -231 -112 -365 -35 -73 -54 -126 -54 -150 0 -45 30
-95 72 -122 44 -27 131 -23 176 9 51 37 139 235 188 427 25 96 28 129 29 255
0 136 -2 148 -26 201 -36 77 -84 112 -157 116 -39 3 -66 -1 -87 -12z"/>
<path d="M1180 3810 c-78 -10 -233 -54 -275 -79 -111 -64 -112 -244 -2 -325
23 -17 43 -21 108 -21 43 0 79 -1 79 -2 0 -9 -76 -164 -112 -228 -134 -239
-160 -289 -198 -374 -56 -129 -120 -325 -120 -371 0 -70 33 -125 95 -158 43
-22 133 -19 181 6 54 29 266 214 490 428 225 215 289 274 298 274 20 0 -5
-165 -50 -340 -54 -207 -113 -368 -233 -638 -90 -203 -97 -238 -58 -307 29
-52 101 -90 153 -81 19 4 48 19 64 34 29 26 197 354 260 505 56 139 146 465
191 699 21 108 22 128 12 247 -12 149 -33 205 -96 255 -37 29 -44 31 -125 31
-75 0 -94 -4 -138 -27 -68 -36 -189 -129 -294 -227 -47 -44 -86 -78 -88 -76
-2 1 17 36 40 76 71 120 165 310 182 368 28 96 17 173 -34 238 -62 78 -180
111 -330 93z"/>
<path d="M4256 3794 c-180 -39 -314 -160 -347 -314 -9 -44 -8 -63 7 -119 15
-56 26 -74 73 -122 72 -71 137 -94 249 -87 179 11 308 131 401 373 36 92 39
147 11 192 -28 46 -59 63 -147 78 -98 18 -159 17 -247 -1z m34 -319 c-24 -25
-60 -34 -60 -15 0 10 54 39 74 40 5 0 -1 -11 -14 -25z"/>
<path d="M3440 3373 c-70 -36 -125 -114 -164 -233 -39 -119 -43 -184 -14 -234
36 -63 77 -81 178 -81 151 1 253 49 315 150 26 42 30 60 34 131 3 71 0 90 -22
136 -44 96 -115 148 -210 155 -54 4 -69 1 -117 -24z"/>
<path d="M4875 2859 c-76 -38 -227 -242 -267 -358 -32 -94 -31 -191 2 -251 36
-64 113 -104 189 -96 166 16 329 175 362 354 13 67 5 182 -15 220 -14 27 -110
116 -150 139 -31 18 -76 15 -121 -8z"/>
<path d="M4186 2498 c-68 -10 -124 -51 -158 -117 -36 -68 -36 -120 -3 -253 14
-55 24 -102 23 -104 -2 -2 -45 10 -96 26 -171 55 -278 36 -375 -69 -121 -129
-136 -266 -67 -591 58 -278 71 -307 153 -354 95 -54 195 -39 277 43 47 47 80
119 80 175 0 20 -33 201 -46 253 -9 34 17 29 68 -14 66 -55 120 -76 187 -71
127 11 245 88 298 196 27 54 28 64 28 192 -1 126 -4 148 -49 334 -26 110 -56
216 -66 235 -46 90 -143 136 -254 119z"/>
<path d="M2852 2250 c-104 -27 -267 -100 -407 -179 l-120 -69 -26 19 c-44 31
-104 39 -166 23 -132 -34 -303 -206 -303 -305 0 -103 87 -189 192 -189 36 0
48 -4 51 -17 14 -50 29 -124 26 -127 -2 -2 -29 -16 -59 -31 -73 -37 -171 -132
-210 -206 -66 -124 -65 -310 4 -454 101 -213 366 -423 618 -490 143 -38 343
-5 518 86 174 90 231 145 238 232 9 114 -81 207 -202 207 -57 0 -84 -11 -167
-66 -102 -68 -153 -87 -229 -87 -165 1 -342 109 -413 252 -30 62 -36 135 -13
167 15 19 16 19 63 -6 26 -13 73 -45 103 -71 73 -62 92 -71 154 -71 103 -1
184 71 194 171 6 70 -13 116 -80 189 -72 76 -117 168 -153 308 -14 55 -25 102
-25 105 0 4 11 9 23 13 13 3 107 46 210 95 178 86 262 121 291 121 32 0 -41
-205 -151 -427 -80 -163 -93 -209 -73 -268 41 -124 183 -171 288 -95 35 25 63
66 149 220 32 57 98 210 126 290 88 253 105 366 70 464 -61 168 -293 255 -521
196z"/>
</g>
</svg>
