<?xml version="1.0" standalone="no"?>
<!DOCTYPE svg PUBLIC "-//W3C//DTD SVG 20010904//EN"
 "http://www.w3.org/TR/2001/REC-SVG-20010904/DTD/svg10.dtd">
<svg version="1.0" xmlns="http://www.w3.org/2000/svg"
 width="600.000000pt" height="600.000000pt" viewBox="0 0 600.000000 600.000000"
 preserveAspectRatio="xMidYMid meet">
<metadata>
Created by potrace 1.15, written by Peter Selinger 2001-2017
</metadata>
<g transform="translate(0.000000,600.000000) scale(0.100000,-0.100000)"
fill="#16364b" stroke="none">
<path d="M2223 5833 c-17 -10 -74 -56 -126 -103 -52 -47 -138 -121 -193 -165
-394 -316 -499 -455 -449 -595 26 -74 70 -110 160 -130 97 -22 346 43 674 175
226 91 267 112 299 152 37 49 39 141 4 191 -27 37 -89 72 -128 72 -14 0 -81
-23 -148 -51 -66 -28 -157 -64 -201 -80 l-80 -29 40 37 c22 21 104 94 181 162
83 72 148 138 158 158 32 67 12 154 -45 196 -38 28 -106 32 -146 10z"/>
<path d="M3065 5675 c-121 -43 -126 -209 -8 -257 21 -9 74 -22 118 -31 162
-31 268 -88 320 -172 28 -46 30 -54 30 -154 0 -90 -3 -112 -22 -147 -39 -74
-173 -176 -305 -233 -98 -42 -135 -139 -88 -230 25 -50 94 -86 144 -77 73 14
289 146 382 233 105 98 166 208 189 340 40 220 -8 389 -149 528 -102 101 -228
157 -440 195 -128 23 -120 23 -171 5z"/>
<path d="M975 5332 c-166 -57 -309 -207 -351 -366 -28 -105 -12 -222 48 -341
68 -137 194 -271 278 -296 81 -24 168 38 185 132 10 54 -21 113 -97 187 -81
78 -118 147 -118 220 0 46 4 57 37 93 20 22 64 54 97 71 99 49 128 86 128 164
0 109 -99 174 -207 136z"/>
<path d="M2715 4963 c-66 -27 -173 -102 -208 -146 -83 -104 -112 -189 -105
-311 6 -105 33 -163 113 -241 73 -72 161 -117 273 -140 78 -16 82 -16 126 4
142 62 104 256 -56 290 -120 26 -177 77 -163 147 8 48 49 90 117 125 36 18 66
42 78 62 25 40 26 118 4 157 -34 57 -113 80 -179 53z"/>
<path d="M4748 4927 c-70 -53 -80 -83 -73 -206 16 -251 102 -421 246 -486 110
-49 232 -24 312 64 45 50 65 89 76 148 34 181 -117 386 -357 487 -89 37 -148
35 -204 -7z"/>
<path d="M1824 4446 c-105 -34 -255 -141 -289 -207 -51 -97 32 -219 149 -219
56 0 88 16 130 66 31 38 82 64 124 64 17 0 53 -14 79 -30 65 -40 111 -47 168
-26 117 45 125 189 16 275 -76 60 -146 86 -246 88 -54 2 -106 -3 -131 -11z"/>
<path d="M2641 3850 c-55 -13 -81 -32 -107 -76 -44 -74 -25 -166 43 -211 18
-12 54 -20 112 -23 l86 -5 3 -33 c6 -65 -48 -202 -127 -321 -19 -30 -82 -103
-138 -162 -56 -59 -105 -119 -109 -134 -27 -108 52 -205 166 -205 59 0 86 18
181 118 154 162 257 325 316 501 43 128 50 251 20 338 -23 65 -94 146 -156
177 -82 42 -203 56 -290 36z"/>
<path d="M4232 3790 c-139 -37 -243 -114 -292 -215 -20 -41 -25 -65 -25 -130
0 -98 30 -170 95 -233 59 -57 103 -76 185 -80 192 -10 352 130 478 418 48 110
32 182 -52 229 -39 21 -59 24 -180 28 -113 3 -149 0 -209 -17z m62 -314 c-8
-22 -53 -48 -70 -42 -21 8 -8 25 30 42 40 17 47 17 40 0z"/>
<path d="M1165 3771 c-114 -32 -267 -99 -302 -133 -47 -46 -67 -105 -60 -178
11 -127 105 -182 244 -144 19 5 13 -10 -43 -113 -67 -124 -216 -490 -278 -682
-49 -151 -50 -219 -3 -285 41 -58 172 -86 250 -52 46 20 145 112 475 442 181
182 292 287 292 276 0 -33 -40 -244 -66 -347 -48 -191 -160 -544 -225 -708
-55 -137 -50 -191 21 -250 84 -71 197 -33 246 82 28 63 184 541 220 671 30
107 70 312 106 535 14 92 14 264 -1 314 -28 96 -113 142 -222 120 -89 -17
-187 -86 -350 -246 -76 -75 -139 -134 -139 -132 0 2 47 96 103 209 110 218
135 293 123 376 -13 96 -70 182 -153 231 -59 35 -144 40 -238 14z"/>
<path d="M3472 3364 c-28 -14 -65 -42 -83 -62 -56 -64 -111 -210 -125 -332 -5
-49 -3 -64 16 -97 42 -75 116 -95 257 -70 206 38 318 144 317 303 0 56 -5 81
-28 127 -65 134 -227 194 -354 131z"/>
<path d="M4840 2782 c-46 -23 -188 -211 -241 -318 -22 -46 -42 -104 -46 -133
-7 -58 -18 -66 -27 -19 -4 19 -24 48 -50 74 -148 142 -416 30 -416 -174 0 -18
11 -74 25 -124 15 -50 24 -92 21 -95 -2 -2 -42 8 -88 23 -70 23 -101 27 -198
28 -107 1 -119 -1 -166 -26 -65 -34 -118 -95 -141 -162 -25 -71 -21 -203 11
-401 14 -88 30 -198 36 -244 17 -126 50 -179 127 -207 117 -41 264 17 308 123
19 46 19 89 -2 250 -9 73 -14 135 -11 139 8 7 43 -11 91 -49 47 -37 120 -59
166 -51 278 47 370 195 341 547 -5 73 -15 159 -20 192 -5 33 -10 62 -10 65 0
3 12 -14 26 -37 49 -83 159 -120 265 -90 170 50 289 229 290 435 0 96 -5 109
-90 191 -84 81 -134 97 -201 63z"/>
<path d="M2894 2335 c-139 -38 -565 -244 -608 -295 -14 -17 -26 -35 -26 -38 0
-4 -39 -7 -87 -7 -100 0 -131 -12 -205 -75 -62 -54 -92 -124 -86 -201 8 -107
89 -185 184 -177 l44 3 11 -55 c6 -30 17 -80 25 -110 16 -62 22 -53 -71 -113
-64 -42 -127 -120 -155 -194 -32 -83 -33 -222 -2 -314 39 -113 176 -301 289
-394 179 -148 420 -214 616 -171 81 18 290 117 334 158 101 94 72 271 -50 317
-61 23 -115 14 -231 -42 -105 -49 -115 -52 -191 -52 -98 1 -170 26 -257 94
-80 61 -170 189 -166 235 3 27 6 31 31 29 16 -1 52 -20 81 -42 70 -54 181 -81
253 -61 93 27 163 131 148 221 -7 41 -56 116 -82 126 -26 10 -90 120 -118 202
-33 101 -95 353 -89 363 3 4 14 8 25 8 11 0 93 38 182 83 159 82 275 132 284
123 7 -7 -51 -199 -91 -304 -19 -48 -55 -130 -81 -182 -42 -85 -46 -101 -43
-150 9 -119 74 -185 182 -185 51 0 68 5 106 31 37 25 55 48 102 139 143 274
228 567 215 741 -10 137 -92 250 -207 287 -63 21 -194 21 -266 2z"/>
</g>
</svg>
