<?xml version="1.0" standalone="no"?>
<!DOCTYPE svg PUBLIC "-//W3C//DTD SVG 20010904//EN"
 "http://www.w3.org/TR/2001/REC-SVG-20010904/DTD/svg10.dtd">
<svg version="1.0" xmlns="http://www.w3.org/2000/svg"
 width="600.000000pt" height="600.000000pt" viewBox="0 0 600.000000 600.000000"
 preserveAspectRatio="xMidYMid meet">
<metadata>
Created by potrace 1.15, written by Peter Selinger 2001-2017
</metadata>
<g transform="translate(0.000000,600.000000) scale(0.100000,-0.100000)"
fill="#16364b" stroke="none">
<path d="M2274 5580 c-135 -29 -250 -144 -293 -295 -28 -98 -41 -274 -41 -575
-1 -168 -5 -363 -10 -435 -5 -71 -12 -256 -15 -410 -8 -433 -26 -775 -39 -775
-6 0 -54 28 -106 61 -93 60 -213 168 -292 262 l-41 48 23 41 c17 30 20 42 10
51 -9 9 -17 5 -36 -18 l-24 -30 0 56 c0 87 -32 101 -57 25 -13 -40 -25 -42
-46 -6 -10 16 -25 30 -33 30 -17 0 -19 -42 -3 -72 15 -28 7 -31 -29 -11 -25
14 -34 15 -44 5 -10 -10 -2 -23 38 -65 28 -28 71 -79 96 -112 25 -33 79 -93
119 -133 111 -112 156 -144 418 -300 12 -7 12 -29 3 -142 -17 -187 -15 -459 3
-620 33 -292 76 -449 165 -600 52 -88 181 -221 260 -267 48 -28 149 -62 231
-77 l25 -5 -8 -73 c-17 -147 10 -357 73 -567 16 -53 29 -103 29 -113 0 -14
-15 -17 -99 -20 -88 -3 -102 -6 -125 -27 -56 -53 -42 -127 31 -162 92 -45 267
-5 324 74 42 57 45 106 15 207 -56 184 -86 314 -95 407 -9 104 0 248 17 265 7
7 31 7 79 -2 47 -9 194 -12 482 -11 227 0 417 -1 420 -4 4 -2 4 -34 0 -72 -15
-130 21 -369 81 -549 17 -48 30 -91 30 -96 0 -4 -33 -8 -74 -8 -100 0 -131 -8
-166 -40 -35 -32 -40 -85 -14 -125 50 -77 249 -69 345 13 75 64 86 129 44 253
-73 210 -103 398 -85 526 6 42 14 80 18 84 4 4 86 12 182 18 194 11 272 29
354 81 129 82 220 225 247 387 14 88 13 711 -2 807 -19 125 -69 225 -206 407
-40 55 -73 103 -73 108 0 5 21 12 47 16 190 28 490 232 632 429 64 89 69 100
48 113 -8 4 -16 16 -20 26 -6 16 -9 17 -36 2 -39 -20 -39 -20 -37 18 2 44 -23
42 -49 -5 l-21 -37 -11 30 c-7 18 -17 29 -25 26 -14 -4 -15 -21 -4 -83 7 -38
5 -43 -34 -82 -107 -111 -310 -232 -464 -276 -145 -42 -122 -54 -345 173 -210
212 -242 237 -481 381 -393 236 -486 324 -604 571 -84 175 -141 365 -161 534
-3 28 -12 133 -19 235 -16 210 -36 288 -95 373 -43 61 -118 121 -181 143 -54
19 -188 27 -246 14z m226 -174 c88 -58 123 -155 140 -396 23 -306 42 -395 145
-655 110 -277 154 -352 277 -471 94 -91 145 -128 418 -307 124 -80 261 -175
305 -210 197 -159 565 -576 658 -748 65 -117 67 -134 69 -549 l3 -375 -28 -81
c-33 -92 -84 -166 -144 -206 -97 -66 -262 -79 -893 -73 -261 2 -520 9 -575 14
-55 6 -145 11 -200 11 -55 0 -130 7 -168 15 -161 34 -298 152 -374 323 -86
194 -130 630 -104 1039 23 375 42 959 61 1918 5 259 14 497 20 530 21 115 73
193 155 232 70 34 175 29 235 -11z"/>
<path d="M2582 2938 c-34 -34 11 -118 64 -118 47 0 72 80 36 113 -22 20 -83
22 -100 5z"/>
<path d="M3190 2880 c-27 -27 -25 -46 9 -81 34 -34 63 -37 91 -9 41 41 10 110
-50 110 -17 0 -39 -9 -50 -20z"/>
<path d="M2740 1970 c-25 -25 -25 -35 -1 -59 28 -28 112 -35 291 -25 85 4 195
9 244 9 79 1 91 3 103 22 21 31 2 60 -44 69 -20 4 -104 3 -187 -2 -188 -11
-277 -11 -339 -2 -40 7 -50 5 -67 -12z"/>
</g>
</svg>
