<?xml version="1.0" standalone="no"?>
<!DOCTYPE svg PUBLIC "-//W3C//DTD SVG 20010904//EN"
 "http://www.w3.org/TR/2001/REC-SVG-20010904/DTD/svg10.dtd">
<svg version="1.0" xmlns="http://www.w3.org/2000/svg"
 width="600.000000pt" height="600.000000pt" viewBox="0 0 600.000000 600.000000"
 preserveAspectRatio="xMidYMid meet">
<metadata>
Created by potrace 1.15, written by Peter Selinger 2001-2017
</metadata>
<g transform="translate(0.000000,600.000000) scale(0.100000,-0.100000)"
fill="#16364b" stroke="none">
<path d="M1820 5794 c-56 -24 -79 -52 -136 -167 -116 -230 -204 -473 -204
-561 0 -161 164 -250 320 -173 30 15 87 50 125 79 95 71 400 372 421 416 33
71 -2 169 -72 198 -45 19 -114 18 -144 -3 -14 -9 -65 -53 -114 -97 -100 -91
-102 -87 -30 56 51 102 56 147 21 199 -42 63 -116 84 -187 53z"/>
<path d="M2994 5699 c-18 -5 -46 -26 -64 -46 -29 -32 -32 -41 -28 -84 7 -64
31 -92 149 -166 198 -124 324 -237 448 -404 61 -80 106 -172 97 -195 -3 -9
-21 -14 -48 -14 -166 0 -222 -215 -73 -281 41 -18 53 -19 121 -9 95 13 150 37
208 90 103 95 120 223 52 391 -34 84 -79 156 -165 262 -146 180 -217 243 -398
354 -181 111 -221 125 -299 102z"/>
<path d="M940 5434 c-254 -49 -411 -269 -372 -521 21 -130 79 -234 171 -303
70 -53 124 -61 188 -29 64 32 93 77 93 143 0 59 -14 83 -86 152 -66 63 -76
104 -42 172 32 64 62 83 147 92 39 4 82 15 96 24 59 39 83 132 50 196 -26 51
-69 73 -149 76 -39 1 -82 0 -96 -2z"/>
<path d="M2970 5191 c-80 -25 -146 -86 -191 -177 -105 -211 19 -391 256 -371
117 10 180 40 211 99 30 57 9 259 -34 344 -47 91 -146 134 -242 105z"/>
<path d="M4775 4876 c-43 -19 -93 -79 -101 -122 -10 -52 3 -231 22 -317 32
-139 105 -251 196 -298 139 -72 303 -27 373 101 27 50 30 64 30 145 0 83 -3
96 -37 166 -56 119 -161 218 -321 303 -73 38 -113 44 -162 22z"/>
<path d="M1981 4851 c-104 -36 -145 -89 -138 -177 5 -67 34 -107 94 -130 45
-18 47 -17 107 4 39 14 63 19 70 12 5 -5 15 -45 22 -89 15 -94 33 -125 87
-153 68 -34 140 -14 191 55 44 59 12 263 -57 363 -37 54 -110 108 -165 124
-57 15 -151 11 -211 -9z"/>
<path d="M1210 4084 c-178 -31 -203 -38 -240 -65 -104 -76 -115 -237 -21 -322
43 -39 90 -52 151 -44 51 7 51 6 -95 -169 -170 -204 -358 -490 -443 -674 -28
-63 -33 -83 -30 -128 11 -135 161 -221 283 -162 25 12 53 33 62 47 9 13 54 49
100 80 47 30 117 81 156 112 239 190 531 396 547 386 18 -11 10 -121 -15 -211
-67 -228 -193 -482 -390 -780 -162 -245 -168 -259 -156 -314 13 -56 35 -86 81
-110 85 -43 145 -20 228 88 156 203 266 385 392 646 157 325 200 474 200 694
0 82 -5 149 -15 187 -31 120 -107 185 -216 185 -84 0 -150 -29 -290 -126 -67
-46 -123 -83 -124 -82 -2 2 32 50 76 107 43 58 97 142 120 187 37 72 43 94 47
164 6 98 -13 154 -70 216 -54 59 -120 85 -227 89 -47 2 -97 2 -111 -1z"/>
<path d="M2848 4055 c-66 -18 -111 -48 -143 -97 -97 -146 26 -314 272 -375 93
-22 372 -23 500 0 127 22 160 41 197 114 21 43 20 85 -4 132 -16 32 -35 47
-107 84 -111 57 -301 121 -418 141 -107 19 -232 19 -297 1z"/>
<path d="M4169 3757 c-121 -41 -204 -120 -234 -220 -19 -64 -19 -100 0 -164
42 -142 192 -232 338 -203 170 33 283 144 362 354 38 100 31 149 -27 204 -57
52 -319 70 -439 29z m82 -287 c-24 -21 -41 -26 -41 -12 0 15 24 32 45 32 19
-1 19 -1 -4 -20z"/>
<path d="M3392 3384 c-18 -9 -49 -35 -68 -58 -44 -51 -134 -229 -134 -264 0
-37 37 -108 66 -127 13 -8 60 -23 103 -32 74 -16 81 -16 126 1 100 39 165 139
173 267 6 98 -17 155 -78 195 -53 35 -138 43 -188 18z"/>
<path d="M4985 3139 c-60 -32 -148 -103 -194 -155 -137 -155 -147 -365 -24
-474 55 -48 109 -64 182 -56 198 23 368 254 332 451 -13 69 -38 117 -93 179
-68 77 -130 94 -203 55z"/>
<path d="M3907 2649 c-58 -14 -91 -34 -134 -83 -41 -47 -63 -101 -63 -156 0
-18 20 -96 45 -173 25 -77 44 -141 42 -143 -1 -2 -31 6 -66 16 -34 11 -75 20
-91 20 -52 0 -130 -33 -170 -71 -63 -62 -83 -110 -88 -217 l-4 -93 -23 49
c-27 59 -82 114 -144 144 -62 31 -218 33 -301 4 -65 -22 -268 -119 -358 -170
-43 -25 -64 -32 -66 -24 -2 7 -13 54 -25 103 -42 184 -150 347 -266 405 -64
32 -158 33 -225 3 -59 -26 -140 -100 -194 -177 -50 -70 -116 -192 -116 -214 0
-8 -10 -26 -23 -42 -52 -61 -141 -256 -181 -393 -67 -231 -51 -448 49 -654 83
-171 195 -282 372 -372 166 -83 324 -123 488 -124 199 0 330 51 474 189 49 46
106 109 126 139 21 30 48 61 60 69 31 21 140 183 190 284 24 48 55 125 70 172
37 117 94 371 102 454 l6 69 33 -114 c49 -167 123 -378 147 -422 12 -21 41
-51 65 -67 146 -97 343 1 359 177 3 32 0 76 -6 97 -6 22 -9 41 -7 43 1 2 19
-4 39 -12 84 -35 215 -5 293 67 115 106 117 325 5 642 -98 280 -174 473 -196
502 -44 57 -143 91 -218 73z m-1828 -873 c6 -25 20 -115 31 -201 11 -86 26
-168 34 -183 35 -67 148 -132 230 -132 50 0 69 9 350 168 173 98 261 140 271
130 8 -8 -64 -258 -100 -347 -48 -116 -118 -231 -187 -305 -128 -135 -146
-152 -200 -178 -146 -72 -279 -65 -449 23 -265 137 -322 305 -209 619 20 58
56 143 79 190 22 47 41 92 41 101 0 9 9 28 20 42 12 14 30 47 41 72 11 25 24
45 28 45 5 0 14 -20 20 -44z"/>
</g>
</svg>
