<?xml version="1.0" standalone="no"?>
<!DOCTYPE svg PUBLIC "-//W3C//DTD SVG 20010904//EN"
 "http://www.w3.org/TR/2001/REC-SVG-20010904/DTD/svg10.dtd">
<svg version="1.0" xmlns="http://www.w3.org/2000/svg"
 width="600.000000pt" height="600.000000pt" viewBox="0 0 600.000000 600.000000"
 preserveAspectRatio="xMidYMid meet">
<metadata>
Created by potrace 1.15, written by Peter Selinger 2001-2017
</metadata>
<g transform="translate(0.000000,600.000000) scale(0.100000,-0.100000)"
fill="#16364b" stroke="none">
<path d="M1854 4734 c-59 -21 -123 -80 -150 -138 -34 -73 -32 -152 5 -253 37
-100 47 -154 66 -343 32 -322 44 -483 55 -730 6 -140 15 -311 21 -380 6 -71 7
-239 4 -390 -7 -295 1 -425 39 -612 69 -337 159 -484 361 -584 51 -25 129 -54
180 -65 50 -12 95 -22 101 -24 7 -2 7 -27 0 -80 -17 -136 11 -276 114 -559 23
-64 28 -91 20 -96 -6 -4 -45 -10 -86 -13 -41 -4 -89 -13 -107 -21 -64 -26 -95
-94 -67 -147 43 -79 244 -55 355 43 52 46 75 89 75 140 0 17 -29 120 -64 227
-72 219 -92 322 -79 421 l8 65 140 -3 c77 -2 219 -8 315 -15 96 -7 255 -12
352 -11 l178 1 -7 -26 c-4 -14 -7 -62 -7 -106 0 -92 23 -189 95 -408 27 -82
47 -153 43 -158 -3 -5 -31 -9 -62 -9 -112 -1 -183 -36 -197 -100 -24 -109 138
-150 302 -75 75 34 113 90 113 166 0 33 -8 75 -18 101 -34 79 -81 222 -107
322 -27 107 -32 196 -13 275 13 57 4 53 163 76 408 59 536 103 660 230 179
182 226 530 105 780 -75 157 -247 304 -492 421 -79 38 -188 92 -243 121 -55
29 -183 94 -285 144 -370 181 -404 200 -625 357 -234 166 -305 234 -410 396
-46 70 -236 432 -432 821 -88 174 -189 255 -318 254 -33 0 -79 -7 -101 -15z
m152 -150 c44 -21 85 -73 128 -164 19 -40 42 -80 50 -89 8 -9 56 -102 106
-205 99 -206 215 -418 293 -536 46 -69 170 -221 200 -245 6 -5 39 -33 72 -61
255 -215 444 -340 660 -437 198 -89 259 -119 315 -153 31 -19 158 -81 283
-138 235 -108 358 -185 440 -275 75 -83 123 -235 113 -361 -16 -211 -107 -375
-246 -443 -69 -34 -177 -55 -547 -108 -321 -46 -286 -45 -928 -20 -301 12
-398 22 -500 52 -203 60 -303 168 -373 405 -63 211 -82 428 -63 724 8 134 9
235 2 365 -6 99 -16 281 -21 405 -14 288 -66 829 -90 943 -11 48 -29 109 -40
135 -31 68 -35 120 -13 162 30 58 92 76 159 44z"/>
<path d="M2552 2664 c-33 -23 -29 -67 7 -93 16 -12 35 -21 43 -21 23 0 58 44
58 72 0 53 -60 76 -108 42z"/>
<path d="M2993 2475 c-32 -23 -30 -69 3 -100 34 -32 57 -31 83 1 26 33 26 55
4 82 -25 29 -63 36 -90 17z"/>
<path d="M5217 3976 c-111 -31 -175 -111 -184 -228 -12 -152 77 -333 193 -388
128 -62 343 11 427 145 41 66 62 149 53 209 -14 87 -95 180 -206 236 -52 26
-77 32 -149 36 -55 2 -103 -1 -134 -10z m167 -286 c12 -12 -11 -40 -33 -40
-23 0 -41 20 -41 43 0 17 5 19 32 13 18 -3 37 -11 42 -16z"/>
<path d="M5339 1115 c-30 -16 -64 -88 -74 -155 -18 -124 89 -198 170 -117 39
39 55 89 55 175 0 54 -4 67 -25 87 -28 29 -84 33 -126 10z"/>
</g>
</svg>
