<?xml version="1.0" standalone="no"?>
<!DOCTYPE svg PUBLIC "-//W3C//DTD SVG 20010904//EN"
 "http://www.w3.org/TR/2001/REC-SVG-20010904/DTD/svg10.dtd">
<svg version="1.0" xmlns="http://www.w3.org/2000/svg"
 width="600.000000pt" height="600.000000pt" viewBox="0 0 600.000000 600.000000"
 preserveAspectRatio="xMidYMid meet">
<metadata>
Created by potrace 1.15, written by Peter Selinger 2001-2017
</metadata>
<g transform="translate(0.000000,600.000000) scale(0.100000,-0.100000)"
fill="#16364b" stroke="none">
<path d="M2865 5583 c-32 -8 -84 -52 -101 -85 -21 -40 -14 -106 19 -183 14
-33 35 -107 47 -165 18 -86 21 -123 15 -206 -6 -84 -4 -107 10 -133 22 -43 70
-71 123 -71 131 0 177 133 138 399 -18 118 -75 325 -104 375 -31 54 -94 83
-147 69z"/>
<path d="M1955 5437 c-54 -30 -89 -96 -80 -152 9 -59 60 -138 151 -231 92 -94
128 -145 204 -289 88 -166 118 -195 203 -195 83 0 153 75 144 155 -8 72 -186
364 -303 497 -35 40 -84 103 -109 140 -34 50 -55 70 -85 82 -54 21 -77 20
-125 -7z"/>
<path d="M4365 4782 c-73 -35 -92 -109 -59 -223 36 -123 110 -321 160 -427 51
-108 55 -113 99 -133 75 -33 155 -5 188 64 26 54 21 83 -32 192 -55 113 -101
239 -132 357 -25 101 -40 130 -79 158 -43 31 -96 35 -145 12z"/>
<path d="M1560 4760 c-129 -6 -171 -23 -209 -84 -44 -71 -19 -181 48 -208 14
-6 100 -12 191 -13 192 -3 291 -20 393 -67 112 -52 191 -36 228 45 81 179
-110 313 -466 329 -38 2 -122 1 -185 -2z"/>
<path d="M3163 4508 c-17 -13 -72 -73 -122 -134 -134 -166 -246 -273 -414
-398 -76 -56 -96 -125 -54 -187 52 -77 144 -102 217 -58 108 66 376 330 501
494 65 86 73 101 77 149 3 37 -1 62 -12 85 -36 68 -131 92 -193 49z"/>
<path d="M1757 4297 c-114 -37 -152 -171 -72 -251 39 -40 78 -50 252 -67 204
-20 443 8 513 60 66 49 83 144 35 206 -49 66 -104 78 -220 50 -90 -22 -186
-20 -430 9 -22 3 -57 0 -78 -7z"/>
<path d="M3812 4124 c-13 -9 -44 -39 -70 -67 -189 -207 -303 -286 -632 -437
-221 -102 -235 -115 -235 -222 0 -68 1 -70 39 -105 63 -58 96 -50 377 89 324
160 417 223 608 411 121 119 157 175 145 224 -20 85 -68 123 -154 123 -35 0
-64 -6 -78 -16z"/>
<path d="M2215 3764 c-164 -35 -305 -45 -434 -32 -106 10 -110 10 -151 -13
-57 -32 -82 -79 -77 -145 4 -61 32 -105 82 -128 57 -27 256 -41 396 -27 153
16 390 64 431 88 99 58 91 216 -15 266 -46 22 -98 20 -232 -9z"/>
<path d="M5041 3746 c-49 -18 -111 -74 -132 -120 -23 -50 -24 -113 -4 -186 21
-75 21 -220 0 -299 -51 -195 -216 -449 -379 -581 -82 -66 -116 -127 -116 -204
0 -130 100 -225 236 -226 83 0 116 16 226 109 112 94 212 200 274 294 103 154
223 457 244 618 19 142 -23 420 -76 501 -58 91 -173 130 -273 94z"/>
<path d="M1965 3120 c-28 -11 -72 -60 -84 -93 -16 -40 -14 -103 4 -137 30 -58
129 -112 264 -145 61 -15 99 -17 211 -12 75 3 157 11 183 18 89 22 145 119
117 203 -12 38 -71 96 -98 97 -9 0 -89 1 -177 2 l-160 2 -79 38 c-79 37 -136
46 -181 27z"/>
<path d="M4426 3115 c-15 -8 -54 -37 -85 -63 -262 -226 -504 -327 -871 -362
-143 -14 -177 -29 -208 -92 -28 -55 -24 -108 11 -159 39 -57 79 -71 187 -66
161 9 465 83 654 160 227 93 498 302 526 406 33 124 -101 234 -214 176z"/>
<path d="M1445 2911 c-87 -39 -118 -117 -134 -339 -14 -202 11 -386 75 -542
81 -200 225 -414 305 -456 71 -36 176 -5 229 67 59 82 49 181 -26 269 -156
182 -237 466 -203 710 22 159 14 204 -48 263 -52 49 -129 60 -198 28z"/>
<path d="M2144 2351 c-95 -43 -126 -146 -67 -219 24 -29 62 -51 188 -109 87
-40 177 -85 199 -99 76 -51 170 -43 221 18 39 46 50 102 30 154 -23 60 -68 96
-208 163 -238 115 -286 127 -363 92z"/>
<path d="M4195 2055 c-91 -36 -474 -144 -665 -189 -115 -27 -361 -69 -510 -87
-108 -13 -158 -34 -194 -82 -43 -57 -52 -151 -18 -213 19 -35 80 -83 120 -93
65 -18 482 37 707 93 257 63 431 110 560 152 256 82 325 132 333 242 7 111
-72 200 -184 208 -50 3 -73 -2 -149 -31z"/>
<path d="M4932 1738 c-33 -7 -63 -29 -143 -103 -147 -138 -340 -248 -554 -318
-114 -38 -341 -94 -464 -116 -130 -23 -149 -31 -191 -72 -65 -65 -77 -142 -35
-225 74 -149 176 -147 705 14 423 128 587 216 790 421 118 118 140 154 140
225 0 32 -25 93 -48 119 -42 47 -129 71 -200 55z"/>
<path d="M2003 1390 c-54 -24 -83 -70 -83 -130 0 -57 24 -97 92 -151 134 -106
284 -189 413 -228 99 -31 258 -47 312 -32 57 16 98 53 118 106 20 51 15 93
-15 143 -27 44 -74 62 -159 62 -153 0 -325 63 -466 170 -72 54 -121 80 -152
80 -10 0 -37 -9 -60 -20z"/>
<path d="M2018 900 c-110 -59 -147 -204 -75 -303 29 -38 250 -147 372 -182
164 -47 260 -58 510 -56 281 1 418 17 475 55 41 27 72 77 85 134 9 43 -18 121
-53 155 -61 59 -126 68 -277 40 -62 -11 -150 -16 -280 -17 -170 -1 -198 1
-270 22 -79 23 -183 70 -303 137 -74 41 -127 45 -184 15z"/>
</g>
</svg>
