<?xml version="1.0" standalone="no"?>
<!DOCTYPE svg PUBLIC "-//W3C//DTD SVG 20010904//EN"
 "http://www.w3.org/TR/2001/REC-SVG-20010904/DTD/svg10.dtd">
<svg version="1.0" xmlns="http://www.w3.org/2000/svg"
 width="600.000000pt" height="600.000000pt" viewBox="0 0 600.000000 600.000000"
 preserveAspectRatio="xMidYMid meet">
<metadata>
Created by potrace 1.15, written by Peter Selinger 2001-2017
</metadata>
<g transform="translate(0.000000,600.000000) scale(0.100000,-0.100000)"
fill="#16364b" stroke="none">
<path d="M1765 5806 c-52 -23 -78 -66 -122 -201 -23 -72 -65 -202 -93 -290
-56 -173 -72 -275 -51 -338 16 -47 79 -103 132 -117 138 -37 287 61 523 344
78 94 148 182 155 194 7 13 13 44 13 69 0 114 -141 192 -237 129 -18 -12 -118
-125 -172 -195 -2 -2 -5 -2 -8 0 -2 3 11 56 30 119 41 135 42 161 13 220 -37
70 -111 97 -183 66z"/>
<path d="M3030 5677 c-47 -31 -72 -78 -73 -135 -1 -74 19 -99 158 -197 241
-171 320 -233 389 -305 69 -73 135 -188 121 -210 -4 -7 -21 -9 -44 -5 -76 13
-172 -54 -187 -129 -4 -25 -1 -46 12 -73 36 -73 116 -102 228 -83 257 42 341
278 193 542 -91 162 -218 283 -545 521 -120 87 -138 97 -176 97 -28 0 -55 -8
-76 -23z"/>
<path d="M923 5436 c-131 -33 -238 -121 -296 -243 -31 -66 -32 -72 -32 -198 1
-111 4 -138 24 -187 71 -181 204 -266 321 -206 56 29 82 73 82 137 0 59 -20
100 -77 152 -53 49 -71 99 -56 157 22 79 69 112 163 112 152 0 202 170 77 263
-34 25 -135 31 -206 13z"/>
<path d="M2970 5181 c-112 -34 -205 -156 -217 -285 -4 -51 -2 -71 16 -111 29
-65 46 -83 106 -111 60 -29 139 -31 229 -8 125 32 172 101 164 239 -9 131 -55
212 -150 259 -52 26 -100 31 -148 17z"/>
<path d="M4805 4893 c-31 -8 -85 -52 -106 -87 -16 -26 -19 -51 -19 -152 0
-313 103 -496 300 -532 99 -19 196 13 262 86 100 111 79 289 -57 469 -96 129
-291 240 -380 216z"/>
<path d="M2051 4829 c-77 -13 -168 -57 -193 -92 -48 -67 -29 -176 37 -217 52
-32 87 -34 159 -10 36 12 70 19 74 16 5 -3 12 -27 16 -53 13 -100 74 -149 173
-141 44 4 60 11 88 38 45 44 59 87 53 171 -15 202 -190 325 -407 288z"/>
<path d="M2820 4060 c-39 -13 -67 -32 -97 -64 -117 -130 -49 -304 140 -361
118 -36 366 -44 554 -20 124 17 162 32 197 78 29 39 29 124 0 164 -41 57 -302
173 -469 208 -101 21 -256 19 -325 -5z"/>
<path d="M1114 4060 c-130 -9 -174 -26 -214 -82 -104 -143 27 -326 214 -301
l51 6 -30 -39 c-16 -21 -86 -109 -155 -194 -215 -264 -296 -382 -391 -572 -46
-92 -51 -107 -47 -154 8 -94 87 -164 183 -164 63 0 58 -3 425 229 57 36 181
121 273 189 93 67 175 122 182 122 8 0 21 -8 31 -17 14 -14 16 -32 12 -112 -9
-171 -96 -384 -254 -621 -98 -146 -188 -262 -253 -323 -34 -32 -54 -62 -61
-88 -30 -112 73 -210 188 -179 75 20 216 169 349 370 212 319 306 524 338 739
11 71 20 100 37 118 21 22 23 36 26 151 6 227 -32 329 -145 386 -41 21 -121
20 -175 -1 -35 -13 -142 -81 -290 -183 -27 -19 -24 -13 60 98 94 126 148 232
162 315 12 80 4 124 -37 185 -61 89 -119 112 -323 126 -25 2 -95 0 -156 -4z"/>
<path d="M4232 3795 c-135 -30 -231 -95 -278 -191 -62 -128 -11 -327 109 -418
76 -58 184 -72 283 -35 116 43 234 202 283 379 35 125 22 193 -45 237 -59 38
-237 53 -352 28z m48 -330 c-24 -25 -50 -33 -50 -16 0 13 41 41 59 41 10 0 8
-7 -9 -25z"/>
<path d="M3413 3421 c-73 -18 -138 -91 -205 -226 -34 -69 -39 -87 -35 -133 4
-62 27 -97 83 -130 35 -20 50 -22 141 -20 95 3 104 5 145 33 31 22 53 51 78
99 32 63 35 76 35 155 0 68 -4 94 -21 126 -39 75 -136 117 -221 96z"/>
<path d="M5051 3202 c-35 -6 -123 -64 -183 -120 -190 -177 -225 -408 -80 -519
48 -37 133 -58 195 -48 45 7 149 54 183 83 113 96 166 297 114 434 -21 55 -96
144 -134 157 -35 13 -70 18 -95 13z"/>
<path d="M3898 2614 c-85 -26 -147 -114 -148 -209 0 -30 15 -96 36 -165 48
-153 47 -150 41 -150 -2 0 -24 7 -47 15 -133 47 -262 -11 -324 -144 -18 -39
-21 -65 -21 -176 0 -87 6 -158 18 -215 22 -106 100 -339 135 -404 47 -86 146
-129 247 -107 115 26 185 115 185 238 l0 62 31 -11 c103 -36 275 56 341 182
20 39 23 59 23 150 l0 105 -114 340 c-62 187 -122 356 -132 377 -25 49 -84 95
-143 113 -59 18 -67 18 -128 -1z"/>
<path d="M1972 2289 c-31 -12 -76 -42 -110 -74 -60 -55 -143 -183 -169 -257
-8 -24 -23 -52 -33 -63 -30 -33 -138 -234 -169 -315 -101 -266 -103 -581 -4
-788 80 -170 350 -385 565 -451 109 -33 258 -46 374 -33 242 28 403 119 520
295 27 39 61 86 76 104 110 131 293 565 353 837 44 200 -21 361 -174 430 -147
66 -295 41 -565 -95 -116 -58 -135 -62 -136 -26 0 18 -82 199 -114 254 -101
171 -260 241 -414 182z m131 -473 c10 -24 27 -92 37 -151 27 -145 45 -184 114
-234 114 -84 153 -84 341 5 161 76 337 148 384 159 31 7 32 6 26 -22 -21 -91
-94 -281 -156 -406 -50 -99 -125 -217 -138 -217 -6 0 -24 -21 -42 -46 -64 -93
-159 -158 -269 -183 -66 -15 -209 -13 -266 4 -115 34 -258 157 -294 253 -26
68 -42 183 -35 242 24 184 58 273 201 520 8 14 27 46 42 72 15 27 29 48 32 48
3 0 13 -20 23 -44z"/>
</g>
</svg>
