<?xml version="1.0" standalone="no"?>
<!DOCTYPE svg PUBLIC "-//W3C//DTD SVG 20010904//EN"
 "http://www.w3.org/TR/2001/REC-SVG-20010904/DTD/svg10.dtd">
<svg version="1.0" xmlns="http://www.w3.org/2000/svg"
 width="600.000000pt" height="600.000000pt" viewBox="0 0 600.000000 600.000000"
 preserveAspectRatio="xMidYMid meet">
<metadata>
Created by potrace 1.15, written by Peter Selinger 2001-2017
</metadata>
<g transform="translate(0.000000,600.000000) scale(0.100000,-0.100000)"
fill="#16364b" stroke="none">
<path d="M2124 5441 c-47 -21 -75 -61 -98 -140 -20 -69 -20 -141 -1 -189 42
-99 135 -141 348 -157 48 -4 87 -10 87 -14 0 -4 -11 -41 -25 -82 -41 -118
-106 -380 -106 -424 -1 -71 32 -121 94 -144 39 -15 63 -14 103 5 54 26 73 63
119 242 24 92 61 214 81 272 50 142 52 221 8 300 -33 60 -99 112 -162 130 -20
5 -81 10 -134 10 l-98 0 0 51 c0 66 -27 111 -84 138 -52 26 -79 26 -132 2z"/>
<path d="M3485 5396 c-102 -38 -133 -166 -58 -238 40 -38 79 -50 139 -42 48 6
55 4 80 -21 26 -26 26 -30 21 -103 -3 -53 -17 -110 -42 -181 -46 -127 -44
-166 9 -219 29 -30 43 -36 88 -39 102 -8 143 36 199 207 94 292 37 516 -157
611 -53 26 -78 32 -151 35 -62 3 -100 0 -128 -10z"/>
<path d="M1695 4845 c-68 -15 -235 -72 -343 -117 -90 -37 -122 -77 -122 -150
0 -41 5 -54 36 -88 44 -49 98 -66 158 -51 48 12 55 8 32 -18 -62 -68 -22 -202
68 -230 17 -6 120 -26 230 -46 109 -19 243 -46 297 -60 53 -14 117 -25 141
-25 77 0 138 57 138 130 0 42 -33 104 -69 129 -87 62 -331 124 -631 159 l-65
8 65 22 c105 35 200 46 279 32 62 -12 71 -11 114 8 29 13 54 33 67 54 38 63
18 155 -44 203 -67 51 -222 68 -351 40z"/>
<path d="M4247 4419 c-74 -39 -96 -141 -45 -211 30 -43 70 -58 177 -67 97 -9
145 -24 171 -55 19 -24 24 -135 11 -275 -11 -117 -10 -126 9 -167 38 -78 114
-103 194 -65 63 31 83 69 96 177 38 335 -26 530 -207 627 -107 57 -329 77
-406 36z"/>
<path d="M3246 4413 c-22 -6 -443 -220 -570 -290 -43 -23 -81 -43 -84 -43 -14
0 -74 -55 -87 -80 -35 -68 -9 -160 57 -200 47 -28 84 -25 158 16 36 20 191
101 345 180 162 84 291 157 307 174 76 82 43 211 -61 240 -20 5 -38 9 -41 9
-3 -1 -14 -4 -24 -6z"/>
<path d="M2200 3844 c-154 -31 -286 -47 -440 -53 -143 -5 -169 -9 -192 -26
-88 -65 -69 -222 32 -272 78 -40 548 -12 729 43 96 28 146 111 121 200 -13 46
-59 97 -103 113 -35 13 -63 12 -147 -5z"/>
<path d="M3698 3796 c-40 -12 -331 -152 -363 -175 -5 -4 -71 -36 -145 -71 -74
-34 -146 -72 -158 -84 -100 -90 -46 -246 85 -246 48 0 182 54 386 156 71 36
130 64 131 62 1 -2 9 -20 19 -41 36 -79 137 -100 211 -43 41 31 91 129 106
207 30 158 -111 281 -272 235z"/>
<path d="M4942 3404 c-56 -28 -92 -67 -118 -129 -13 -32 -15 -58 -9 -146 10
-150 10 -149 -195 -394 -149 -177 -241 -416 -244 -630 -1 -95 2 -115 21 -150
76 -143 258 -166 379 -49 52 51 74 96 74 153 0 48 33 157 72 236 16 33 74 114
129 180 164 196 219 306 241 481 13 104 -1 267 -28 334 -51 122 -200 175 -322
114z"/>
<path d="M2006 3187 c-77 -43 -102 -137 -58 -210 37 -58 74 -69 262 -77 92 -4
172 -10 178 -14 7 -4 12 -22 12 -39 0 -48 41 -102 94 -122 111 -43 206 37 206
172 0 86 -25 149 -81 205 -67 67 -133 85 -369 98 -102 5 -189 10 -195 10 -5 0
-28 -10 -49 -23z"/>
<path d="M4315 3166 c-16 -7 -59 -42 -95 -76 -137 -132 -281 -222 -430 -269
-81 -25 -219 -51 -274 -51 -107 0 -167 -46 -174 -134 -3 -44 0 -62 19 -96 45
-80 103 -94 264 -66 342 61 550 156 774 355 92 82 131 140 131 196 0 46 -27
95 -71 128 -34 25 -105 31 -144 13z"/>
<path d="M1345 3000 c-111 -35 -176 -179 -126 -278 26 -53 29 -69 41 -242 26
-380 71 -564 183 -741 41 -65 62 -88 96 -106 125 -65 271 17 287 163 5 44 1
59 -39 140 -68 138 -83 213 -118 564 -33 349 -103 495 -240 505 -30 3 -67 0
-84 -5z"/>
<path d="M2135 2461 c-114 -31 -270 -143 -300 -216 -20 -45 -19 -71 5 -122 25
-56 70 -83 136 -83 46 0 58 5 125 55 78 57 130 78 138 54 2 -7 21 -31 41 -53
32 -34 43 -40 91 -43 45 -4 60 -1 88 19 46 31 70 66 78 111 12 75 -77 201
-182 254 -54 28 -162 40 -220 24z"/>
<path d="M3820 2164 c-72 -12 -152 -30 -315 -69 -236 -58 -316 -72 -523 -95
-191 -21 -229 -35 -271 -95 -68 -100 -13 -242 113 -290 46 -18 51 -17 207 4
89 13 220 34 292 47 438 81 619 106 631 85 12 -19 96 -32 137 -21 45 12 103
60 125 102 19 36 21 111 5 160 -16 49 -107 131 -168 152 -48 17 -185 29 -233
20z"/>
<path d="M2266 1957 c-50 -28 -73 -66 -91 -153 -32 -149 -12 -277 65 -431 62
-123 118 -186 177 -202 76 -21 149 13 183 85 32 65 22 115 -40 199 -70 95 -93
162 -86 250 3 39 8 89 12 112 8 57 -25 116 -81 143 -53 26 -90 25 -139 -3z"/>
<path d="M4660 1629 c-13 -6 -55 -39 -91 -75 -108 -104 -154 -120 -525 -188
-257 -47 -427 -107 -565 -199 -108 -72 -112 -76 -138 -117 -27 -46 -28 -131
-2 -183 10 -20 17 -37 15 -37 -2 0 -20 11 -40 25 -72 49 -161 47 -250 -8 -89
-53 -147 -70 -244 -70 -159 -1 -332 82 -507 244 -49 46 -87 72 -113 79 -77 21
-150 -10 -197 -81 -24 -36 -28 -53 -28 -110 0 -59 4 -73 30 -110 68 -96 343
-286 505 -349 240 -92 500 -75 734 48 156 83 200 177 134 291 l-19 34 23 -16
c57 -41 99 -57 150 -57 55 0 57 1 168 79 121 85 235 121 548 176 242 42 374
97 528 219 139 109 184 191 154 281 -16 47 -66 104 -107 121 -37 16 -126 17
-163 3z"/>
</g>
</svg>
