<?xml version="1.0" standalone="no"?>
<!DOCTYPE svg PUBLIC "-//W3C//DTD SVG 20010904//EN"
 "http://www.w3.org/TR/2001/REC-SVG-20010904/DTD/svg10.dtd">
<svg version="1.0" xmlns="http://www.w3.org/2000/svg"
 width="600.000000pt" height="600.000000pt" viewBox="0 0 600.000000 600.000000"
 preserveAspectRatio="xMidYMid meet">
<metadata>
Created by potrace 1.15, written by Peter Selinger 2001-2017
</metadata>
<g transform="translate(0.000000,600.000000) scale(0.100000,-0.100000)"
fill="#16364b" stroke="none">
<path d="M1574 5799 c-41 -12 -46 -18 -164 -224 -143 -249 -144 -252 -145
-313 0 -48 3 -57 33 -83 68 -61 175 -31 374 102 128 86 244 179 257 207 29 60
-3 142 -64 168 -48 20 -72 11 -145 -52 -34 -30 -64 -53 -66 -51 -3 2 7 24 21
49 63 113 5 225 -101 197z"/>
<path d="M2359 5421 c-31 -31 -31 -33 -29 -151 2 -104 -18 -290 -40 -376 -40
-154 -105 -241 -241 -319 -92 -53 -114 -85 -106 -153 7 -63 50 -105 109 -106
35 -1 58 8 123 49 239 148 320 315 360 745 22 227 18 274 -24 312 -45 40 -111
40 -152 -1z"/>
<path d="M3504 5322 c-33 -26 -54 -76 -54 -125 0 -91 95 -224 199 -277 57 -28
133 -30 169 -4 94 70 71 204 -58 335 -80 81 -202 115 -256 71z"/>
<path d="M2965 5146 c-53 -25 -132 -101 -160 -156 -23 -44 -31 -138 -16 -183
37 -111 141 -148 275 -97 84 32 122 71 141 145 36 137 14 258 -53 298 -44 25
-125 22 -187 -7z"/>
<path d="M4738 4760 c-45 -35 -51 -68 -45 -218 11 -246 71 -387 193 -454 92
-50 179 -49 258 3 103 69 126 211 55 354 -66 137 -301 335 -395 335 -26 0 -51
-7 -66 -20z m247 -421 c9 -17 14 -33 11 -36 -4 -4 -36 49 -36 62 0 13 11 2 25
-26z"/>
<path d="M2734 4240 c-151 -22 -246 -119 -246 -250 0 -68 19 -115 65 -167 57
-63 117 -88 213 -88 73 0 87 4 156 38 103 50 232 173 248 234 13 51 5 87 -28
132 -29 39 -57 52 -172 79 -107 26 -171 32 -236 22z"/>
<path d="M1053 4080 c-37 -22 -63 -67 -63 -109 0 -78 45 -124 145 -146 83 -18
165 -46 165 -56 0 -26 -134 -73 -282 -99 -114 -19 -144 -33 -182 -83 -27 -37
-27 -117 0 -155 11 -15 37 -35 58 -46 36 -18 41 -18 149 -1 151 23 248 49 334
90 190 89 261 246 182 403 -49 98 -144 162 -303 202 -101 25 -162 26 -203 0z"/>
<path d="M4190 3756 c-94 -26 -168 -85 -212 -168 -32 -61 -33 -211 -2 -279 52
-112 145 -172 267 -171 168 2 322 147 356 336 24 128 8 201 -52 240 -69 46
-262 68 -357 42z m120 -293 c0 -14 -34 -43 -52 -43 -23 0 -24 26 0 39 19 12
52 14 52 4z"/>
<path d="M1724 3711 c-71 -17 -122 -51 -142 -94 -85 -181 -31 -370 126 -440
190 -83 377 35 376 238 0 145 -85 252 -231 290 -62 16 -81 17 -129 6z"/>
<path d="M5129 3596 c-82 -33 -123 -61 -173 -117 -94 -105 -111 -243 -46 -375
56 -115 153 -171 276 -161 124 10 231 86 288 207 26 55 31 77 31 140 0 103
-23 159 -99 239 -34 34 -73 69 -88 77 -41 21 -125 17 -189 -10z m91 -304 c0
-13 -36 -43 -43 -36 -10 10 12 44 28 44 8 0 15 -4 15 -8z"/>
<path d="M3414 3366 c-17 -8 -45 -33 -63 -57 -43 -59 -131 -232 -131 -259 0
-52 57 -110 108 -110 10 0 42 7 71 16 138 41 249 238 194 344 -36 69 -110 96
-179 66z"/>
<path d="M2550 3336 c-150 -42 -273 -143 -408 -333 -85 -119 -134 -165 -222
-205 -172 -78 -291 -142 -348 -189 -194 -159 -312 -451 -313 -773 -1 -304 58
-420 329 -647 254 -212 444 -289 677 -276 202 12 339 78 628 304 196 154 327
310 414 493 25 52 63 131 84 175 100 207 92 353 -33 630 -28 61 -70 164 -95
230 -25 66 -54 137 -64 157 -11 21 -19 57 -19 80 0 93 -127 247 -253 307 -123
58 -270 77 -377 47z m218 -423 c12 -27 43 -85 70 -130 28 -47 66 -132 87 -195
20 -62 52 -149 70 -193 77 -189 86 -260 42 -336 -14 -24 -33 -71 -42 -103 -38
-134 -121 -263 -246 -380 -83 -79 -203 -174 -270 -214 -106 -64 -251 -81 -362
-43 -87 30 -324 196 -404 282 -70 76 -101 241 -69 369 28 111 90 225 165 299
55 56 87 76 194 129 217 105 300 170 418 330 40 54 88 114 108 136 41 44 142
96 187 96 26 0 33 -6 52 -47z"/>
<path d="M413 2291 c-72 -45 -80 -99 -38 -246 57 -195 143 -343 272 -466 121
-116 221 -152 318 -115 125 48 164 225 85 382 -59 116 -204 245 -419 371 -53
31 -103 63 -112 70 -28 23 -72 25 -106 4z m395 -499 c29 -37 52 -75 52 -87 0
-4 -13 3 -29 15 -30 20 -131 147 -131 163 0 14 77 -51 108 -91z"/>
<path d="M4447 1950 c-16 -5 -43 -20 -61 -34 -33 -25 -34 -25 -51 -6 -48 53
-151 45 -204 -15 -28 -33 -31 -42 -31 -105 0 -150 52 -408 100 -499 54 -101
141 -135 235 -92 90 41 138 154 195 468 11 59 20 123 20 143 0 50 -35 100 -90
128 -47 23 -68 26 -113 12z"/>
</g>
</svg>
