<?xml version="1.0" standalone="no"?>
<!DOCTYPE svg PUBLIC "-//W3C//DTD SVG 20010904//EN"
 "http://www.w3.org/TR/2001/REC-SVG-20010904/DTD/svg10.dtd">
<svg version="1.0" xmlns="http://www.w3.org/2000/svg"
 width="600.000000pt" height="600.000000pt" viewBox="0 0 600.000000 600.000000"
 preserveAspectRatio="xMidYMid meet">
<metadata>
Created by potrace 1.15, written by Peter Selinger 2001-2017
</metadata>
<g transform="translate(0.000000,600.000000) scale(0.100000,-0.100000)"
fill="#16364b" stroke="none">
<path d="M1550 5789 c-33 -13 -68 -47 -86 -81 -25 -49 -46 -218 -47 -393 -2
-141 1 -181 17 -233 59 -197 260 -240 396 -85 113 128 305 483 305 563 0 133
-193 186 -247 68 -9 -18 -39 -85 -67 -148 -58 -131 -135 -259 -143 -239 -9 26
9 224 31 335 21 101 21 114 8 147 -9 19 -27 43 -41 52 -32 21 -93 28 -126 14z"/>
<path d="M876 5490 c-168 -30 -304 -175 -336 -358 -26 -147 54 -316 182 -384
93 -50 198 11 198 115 0 47 -3 52 -55 102 -48 47 -55 58 -55 92 0 52 28 101
80 141 40 31 48 33 89 27 25 -4 70 -7 99 -8 49 -2 56 1 82 30 70 78 43 181
-59 225 -53 23 -154 31 -225 18z"/>
<path d="M3308 5472 c-55 -34 -74 -120 -39 -178 11 -18 58 -55 118 -91 54 -34
110 -71 123 -82 23 -19 24 -22 7 -32 -49 -29 -80 -91 -70 -142 7 -35 62 -98
119 -136 170 -112 353 -10 315 177 -21 106 -100 227 -206 316 -33 27 -107 80
-164 118 -114 74 -151 83 -203 50z"/>
<path d="M2982 5146 c-79 -26 -135 -76 -177 -161 -53 -108 -40 -235 32 -294
72 -60 173 -65 296 -16 111 45 133 87 125 238 -6 116 -42 179 -124 221 -47 23
-103 27 -152 12z"/>
<path d="M2292 5110 c-52 -32 -68 -69 -75 -173 -9 -157 -35 -196 -177 -267
-103 -52 -136 -82 -146 -134 -13 -72 51 -146 125 -146 46 0 236 100 304 161
30 27 68 70 85 96 71 111 114 341 78 411 -35 68 -128 92 -194 52z"/>
<path d="M4773 4825 c-18 -8 -42 -29 -54 -47 -19 -31 -20 -43 -15 -178 6 -163
22 -242 66 -330 42 -83 91 -134 162 -170 96 -47 198 -39 273 22 188 155 39
519 -279 678 -85 43 -104 46 -153 25z"/>
<path d="M2763 4150 c-137 -28 -223 -136 -210 -265 9 -93 60 -159 157 -204 49
-23 67 -26 170 -26 126 1 184 14 305 69 154 71 195 113 195 201 0 97 -38 129
-215 183 -153 47 -298 62 -402 42z"/>
<path d="M1055 4075 c-69 -38 -96 -83 -96 -160 0 -57 10 -85 45 -123 33 -37
50 -43 166 -52 147 -12 154 -16 101 -69 -102 -102 -260 -200 -446 -276 -102
-42 -122 -57 -141 -102 -40 -95 14 -204 116 -234 57 -17 95 -5 228 71 67 39
123 70 125 70 3 0 12 -20 21 -45 40 -105 160 -132 256 -59 51 38 146 82 207
95 46 9 60 8 91 -7 82 -39 142 -36 194 10 38 34 58 79 58 132 0 60 -32 105
-103 141 -47 24 -63 26 -174 27 -68 1 -123 4 -123 8 0 4 11 24 25 44 51 75 60
193 23 291 -25 69 -100 149 -174 186 -102 51 -342 83 -399 52z"/>
<path d="M4260 3784 c-119 -23 -222 -85 -277 -167 -126 -188 0 -456 228 -483
118 -14 231 49 316 176 48 71 75 136 106 257 l21 83 -22 46 c-33 67 -83 86
-232 90 -63 1 -126 0 -140 -2z m22 -336 c-25 -26 -63 -18 -41 8 17 21 53 34
58 22 2 -6 -6 -19 -17 -30z"/>
<path d="M5089 3397 c-80 -33 -174 -103 -215 -159 -99 -134 -98 -310 3 -428
49 -57 101 -80 183 -80 189 0 352 194 338 404 -8 133 -130 285 -228 286 -14 0
-50 -11 -81 -23z"/>
<path d="M3404 3390 c-37 -15 -94 -92 -145 -195 -52 -106 -60 -149 -33 -193
31 -53 62 -67 140 -65 87 2 138 25 183 82 133 168 87 383 -81 380 -24 0 -52
-4 -64 -9z"/>
<path d="M2280 2921 c-117 -38 -182 -107 -266 -278 -71 -147 -108 -195 -196
-254 -32 -22 -58 -44 -58 -48 0 -5 -29 -41 -65 -81 -216 -241 -339 -550 -321
-807 17 -244 88 -417 226 -551 69 -67 128 -106 257 -171 129 -64 222 -91 345
-98 321 -19 618 142 812 440 111 169 166 313 224 576 33 151 36 181 36 326 1
142 -2 168 -22 226 -60 173 -159 278 -319 336 -92 33 -127 64 -197 173 -99
152 -194 212 -346 217 -47 1 -96 -1 -110 -6z m238 -581 c58 -71 70 -79 201
-135 110 -47 115 -50 135 -94 18 -40 21 -64 20 -191 0 -262 -63 -490 -176
-642 -148 -200 -372 -293 -586 -243 -169 40 -311 171 -357 329 -13 45 -16 84
-13 160 9 186 84 319 312 551 161 163 226 248 287 368 l40 79 47 -65 c26 -36
66 -88 90 -117z"/>
<path d="M930 2732 c-55 -24 -80 -62 -80 -121 0 -53 33 -91 121 -137 215 -113
291 -307 170 -434 -32 -34 -44 -40 -80 -40 -69 0 -126 42 -185 138 -73 118
-245 82 -263 -56 -10 -73 85 -209 193 -278 141 -90 328 -98 453 -20 82 52 158
163 187 271 52 193 -47 439 -229 569 -127 90 -235 131 -287 108z"/>
<path d="M4175 2278 c-84 -30 -125 -92 -125 -187 l0 -60 -35 15 c-101 42 -215
-13 -247 -118 -12 -42 -12 -51 32 -313 38 -231 39 -234 77 -275 43 -48 89 -64
157 -56 28 4 62 7 76 6 127 -5 147 -3 186 18 104 54 154 164 154 336 0 112
-27 499 -36 531 -28 88 -142 137 -239 103z"/>
</g>
</svg>
