<?xml version="1.0" standalone="no"?>
<!DOCTYPE svg PUBLIC "-//W3C//DTD SVG 20010904//EN"
 "http://www.w3.org/TR/2001/REC-SVG-20010904/DTD/svg10.dtd">
<svg version="1.0" xmlns="http://www.w3.org/2000/svg"
 width="600.000000pt" height="600.000000pt" viewBox="0 0 600.000000 600.000000"
 preserveAspectRatio="xMidYMid meet">
<metadata>
Created by potrace 1.15, written by Peter Selinger 2001-2017
</metadata>
<g transform="translate(0.000000,600.000000) scale(0.100000,-0.100000)"
fill="#16364b" stroke="none">
<path d="M3090 5478 c-66 -46 -90 -141 -51 -205 11 -17 40 -45 64 -62 82 -56
109 -155 83 -301 -20 -111 -20 -133 4 -179 37 -74 121 -101 187 -61 47 28 62
58 84 167 27 131 23 309 -9 397 -35 96 -96 173 -183 232 -64 42 -128 47 -179
12z"/>
<path d="M2069 5461 c-47 -15 -78 -42 -100 -88 -18 -37 -21 -57 -17 -116 10
-144 85 -227 244 -272 47 -13 64 -23 73 -41 7 -15 11 -92 11 -199 0 -190 7
-222 58 -259 34 -26 120 -33 158 -13 16 8 40 27 54 42 l25 27 0 221 c0 252 -9
297 -74 383 -47 62 -99 98 -183 126 -60 19 -68 25 -68 47 0 38 -36 105 -67
123 -37 21 -82 28 -114 19z"/>
<path d="M1488 4789 c-122 -10 -141 -16 -175 -50 -55 -53 -62 -155 -16 -218
11 -13 36 -33 56 -44 34 -17 44 -18 148 -6 141 15 301 7 394 -22 129 -39 171
-38 224 7 59 49 65 144 14 205 -49 58 -209 110 -402 129 -112 11 -115 11 -243
-1z"/>
<path d="M4320 4618 c-51 -35 -73 -71 -73 -120 0 -58 25 -103 76 -134 121 -75
167 -178 167 -376 0 -105 45 -165 132 -175 53 -6 118 22 145 63 25 38 32 115
22 229 -18 199 -70 327 -171 421 -122 112 -222 143 -298 92z"/>
<path d="M3188 4452 c-15 -10 -51 -40 -80 -68 -133 -124 -302 -253 -455 -345
-94 -57 -123 -93 -123 -152 0 -85 59 -147 139 -147 49 0 107 27 246 118 131
84 207 144 337 265 137 127 163 186 121 274 -31 67 -125 95 -185 55z"/>
<path d="M1633 4379 c-71 -21 -121 -105 -102 -173 24 -85 76 -115 254 -145
276 -45 525 -47 583 -4 47 35 66 70 66 121 0 57 -23 99 -71 132 -34 23 -43 24
-212 26 -142 1 -204 6 -323 28 -163 29 -151 28 -195 15z"/>
<path d="M3775 3911 c-44 -11 -87 -35 -215 -121 -172 -114 -341 -205 -478
-256 -96 -37 -121 -52 -142 -87 -59 -97 16 -217 135 -217 44 0 76 12 220 84
170 83 319 168 451 257 39 26 87 50 106 54 80 15 128 71 128 148 0 88 -110
162 -205 138z"/>
<path d="M2245 3804 c-126 -34 -256 -47 -435 -41 -172 6 -176 5 -216 -18 -99
-58 -98 -208 2 -267 74 -43 399 -58 553 -25 199 43 294 86 326 147 21 41 19
119 -4 154 -43 65 -115 81 -226 50z"/>
<path d="M4974 3596 c-82 -38 -134 -118 -134 -207 0 -19 7 -68 16 -109 18 -87
14 -182 -10 -253 -23 -64 -68 -137 -181 -292 -52 -71 -139 -200 -193 -285
l-97 -154 0 -72 c0 -64 3 -77 30 -115 84 -120 264 -146 367 -54 16 13 60 77
99 142 81 135 167 261 268 394 85 112 144 227 172 334 43 168 33 460 -20 564
-60 116 -198 163 -317 107z"/>
<path d="M4370 3153 c-8 -3 -56 -45 -107 -93 -217 -207 -407 -289 -775 -335
-72 -8 -127 -21 -143 -31 -73 -48 -78 -183 -8 -246 10 -10 36 -24 57 -33 34
-15 48 -15 154 0 294 41 517 116 727 245 136 84 272 197 301 252 28 54 6 157
-42 200 -43 38 -121 57 -164 41z"/>
<path d="M1990 3132 c-46 -25 -80 -76 -80 -120 0 -46 34 -116 66 -137 47 -31
178 -64 339 -85 59 -8 90 -18 119 -38 50 -35 136 -38 178 -7 69 50 85 153 34
219 -58 76 -159 117 -333 136 -56 6 -126 18 -155 26 -87 26 -129 27 -168 6z"/>
<path d="M1375 2947 c-44 -20 -93 -81 -101 -124 -9 -48 11 -331 31 -448 71
-401 188 -709 296 -774 95 -58 215 -17 271 92 16 32 19 54 16 106 -4 59 -9 73
-51 135 -50 74 -74 130 -113 265 -49 170 -65 270 -71 458 -7 203 -11 217 -79
269 -30 24 -48 29 -103 31 -40 2 -78 -2 -96 -10z"/>
<path d="M2082 2349 c-50 -10 -102 -39 -119 -68 -43 -70 -12 -167 68 -209 40
-21 52 -23 121 -17 100 9 166 -7 219 -51 82 -68 167 -68 228 1 39 45 48 93 27
149 -30 79 -148 163 -266 190 -73 17 -207 19 -278 5z"/>
<path d="M4065 2096 c-38 -7 -104 -23 -145 -34 -370 -103 -634 -156 -915 -183
-147 -14 -195 -33 -229 -92 -13 -23 -26 -57 -30 -75 -13 -71 31 -174 87 -203
52 -28 92 -28 307 2 319 44 413 62 739 144 163 40 317 77 343 80 138 18 201
169 118 284 -56 77 -145 102 -275 77z"/>
<path d="M4785 1708 c-11 -6 -61 -50 -111 -97 -153 -146 -322 -225 -674 -316
-217 -56 -406 -120 -477 -161 -79 -46 -114 -145 -80 -227 19 -45 89 -105 131
-113 53 -9 101 0 203 40 50 20 129 45 175 56 45 11 149 36 230 55 310 74 568
201 739 362 108 102 139 170 118 261 -12 54 -48 106 -93 133 -35 21 -128 26
-161 7z"/>
<path d="M2125 1651 c-37 -16 -83 -72 -94 -115 -14 -55 -1 -101 51 -182 101
-160 399 -368 528 -368 147 0 208 218 79 285 -19 10 -69 34 -112 53 -98 45
-179 122 -226 219 -42 84 -76 110 -150 114 -31 2 -65 -1 -76 -6z"/>
<path d="M2067 996 c-78 -28 -117 -91 -117 -186 0 -76 23 -123 87 -180 254
-224 603 -309 1010 -245 107 17 247 59 285 86 59 43 84 150 52 227 -48 115
-171 160 -310 111 -197 -68 -367 -80 -510 -35 -83 27 -158 70 -279 161 -63 48
-124 76 -165 75 -8 -1 -32 -7 -53 -14z"/>
</g>
</svg>
