<?xml version="1.0" standalone="no"?>
<!DOCTYPE svg PUBLIC "-//W3C//DTD SVG 20010904//EN"
 "http://www.w3.org/TR/2001/REC-SVG-20010904/DTD/svg10.dtd">
<svg version="1.0" xmlns="http://www.w3.org/2000/svg"
 width="600.000000pt" height="600.000000pt" viewBox="0 0 600.000000 600.000000"
 preserveAspectRatio="xMidYMid meet">
<metadata>
Created by potrace 1.15, written by Peter Selinger 2001-2017
</metadata>
<g transform="translate(0.000000,600.000000) scale(0.100000,-0.100000)"
fill="#16364b" stroke="none">
<path d="M2149 5437 c-50 -33 -80 -101 -86 -197 -7 -94 11 -152 63 -210 59
-65 113 -81 274 -81 l140 1 -26 -58 c-58 -130 -125 -299 -155 -390 -42 -131
-38 -191 14 -239 30 -27 45 -33 79 -33 48 0 99 26 122 62 8 13 33 75 56 138
23 63 77 188 120 276 96 201 103 221 98 299 -5 74 -36 129 -100 175 -63 46
-136 63 -266 64 l-114 1 -1 61 c-1 39 -8 70 -20 87 -43 66 -134 87 -198 44z"/>
<path d="M3652 5340 c-40 -10 -86 -28 -101 -39 -59 -42 -78 -137 -41 -198 36
-60 97 -75 211 -52 73 14 104 2 113 -44 8 -45 -16 -155 -60 -270 -39 -101 -42
-148 -14 -194 25 -42 68 -63 126 -63 74 0 110 29 155 124 78 168 93 227 94
371 0 120 -2 134 -26 186 -36 76 -89 133 -155 165 -75 37 -198 42 -302 14z"/>
<path d="M1714 4875 c-85 -15 -122 -26 -234 -73 -200 -81 -262 -126 -276 -196
-13 -70 51 -157 125 -172 30 -6 31 -8 31 -58 0 -107 52 -157 182 -175 219 -31
366 -65 487 -112 98 -39 135 -35 194 20 37 35 41 43 45 97 3 50 0 65 -20 94
-41 62 -201 124 -435 170 -239 47 -229 43 -158 65 44 14 96 20 198 22 164 3
196 16 229 91 24 52 18 99 -17 153 -28 44 -70 64 -155 78 -80 13 -106 13 -196
-4z"/>
<path d="M3120 4361 c-63 -26 -198 -86 -300 -133 -102 -46 -216 -98 -254 -114
-90 -38 -133 -79 -141 -138 -14 -90 60 -176 151 -176 16 0 119 41 229 91 110
50 280 123 379 162 148 60 183 78 204 105 75 98 2 253 -118 252 -19 -1 -87
-22 -150 -49z"/>
<path d="M4231 4352 c-109 -55 -104 -213 9 -269 38 -20 60 -23 155 -23 121 -1
180 -10 204 -34 26 -26 25 -135 -2 -288 -20 -118 -22 -143 -11 -174 35 -101
154 -135 234 -67 44 37 56 65 73 178 27 173 31 280 12 370 -20 95 -34 123 -88
182 -73 80 -169 114 -367 132 -155 15 -179 14 -219 -7z"/>
<path d="M2165 3859 c-145 -38 -369 -69 -509 -69 -76 0 -123 -23 -154 -76 -46
-78 -8 -186 75 -216 57 -20 421 -17 535 4 134 26 222 55 252 84 67 68 46 202
-42 258 -53 34 -78 37 -157 15z"/>
<path d="M3670 3770 c-64 -24 -175 -78 -423 -209 -194 -101 -217 -122 -217
-194 0 -77 53 -137 128 -145 58 -5 72 1 420 194 l43 24 -6 -44 c-9 -57 7 -104
48 -143 64 -62 160 -63 211 -2 37 43 87 208 93 305 7 98 -14 156 -72 200 -50
38 -144 44 -225 14z"/>
<path d="M4940 3319 c-59 -26 -87 -53 -116 -112 -22 -43 -24 -58 -23 -165 1
-79 -3 -127 -11 -143 -7 -13 -70 -82 -140 -154 -70 -71 -149 -163 -175 -203
-152 -236 -194 -461 -118 -624 26 -55 41 -73 79 -98 68 -43 108 -53 181 -47
89 7 147 44 186 117 28 53 29 59 23 151 -5 82 -3 108 15 165 29 96 48 123 176
257 131 138 182 211 215 304 20 59 23 87 23 208 0 105 -5 154 -18 197 -42 139
-173 203 -297 147z"/>
<path d="M2180 3210 c-151 -6 -187 -19 -220 -73 -42 -68 -14 -162 60 -199 30
-15 64 -18 221 -18 l185 0 0 -62 c-1 -50 4 -70 21 -94 32 -45 85 -67 145 -62
87 9 134 60 150 164 26 170 -53 299 -207 339 -61 15 -115 16 -355 5z"/>
<path d="M4269 3162 c-14 -9 -44 -38 -68 -64 -60 -66 -191 -163 -283 -209 -98
-49 -194 -76 -327 -90 -120 -12 -162 -28 -196 -73 -79 -104 -5 -236 134 -236
71 0 263 35 361 65 178 56 410 191 542 314 51 47 68 71 76 104 28 108 -50 207
-163 207 -31 0 -60 -7 -76 -18z"/>
<path d="M1307 3020 c-129 -41 -183 -208 -102 -316 34 -44 42 -86 65 -314 33
-335 83 -571 143 -675 34 -60 87 -87 164 -82 76 4 135 40 167 102 25 48 27
129 4 165 -42 67 -69 210 -98 529 -25 265 -39 342 -78 425 -60 127 -171 196
-265 166z"/>
<path d="M2087 2502 c-71 -25 -168 -102 -238 -190 -76 -94 -93 -132 -86 -191
4 -36 13 -52 41 -78 31 -29 43 -33 90 -33 76 0 99 11 175 84 71 68 109 96 127
96 6 0 17 -14 24 -30 12 -30 66 -84 91 -92 9 -3 5 -14 -14 -39 -40 -53 -86
-158 -102 -235 -47 -220 25 -497 146 -560 15 -7 51 -14 78 -14 42 0 56 5 86
31 59 52 66 118 25 213 -48 106 -44 247 10 350 55 107 35 202 -53 252 -32 18
-36 23 -23 33 8 7 22 32 32 57 14 37 15 51 5 91 -16 64 -49 118 -107 176 -93
92 -194 118 -307 79z"/>
<path d="M3715 2184 c-266 -41 -848 -164 -926 -195 -59 -23 -119 -113 -119
-177 0 -77 49 -152 115 -177 56 -22 97 -18 320 28 266 56 617 117 669 117 31
0 57 -7 75 -19 97 -69 234 -37 277 65 50 118 -40 292 -175 339 -46 17 -181 27
-236 19z"/>
<path d="M4585 1615 c-17 -8 -55 -40 -85 -71 -30 -31 -71 -64 -91 -74 -45 -24
-171 -55 -274 -70 -286 -39 -438 -96 -660 -247 -164 -112 -194 -144 -204 -217
l-6 -40 -67 3 c-63 2 -73 -1 -150 -43 -116 -62 -181 -79 -287 -74 -132 7 -177
33 -339 196 -73 74 -148 140 -167 148 -19 8 -57 14 -85 14 -108 0 -185 -75
-184 -179 0 -34 7 -70 18 -91 10 -19 77 -94 150 -166 147 -146 235 -207 361
-250 72 -25 97 -28 253 -32 202 -5 268 6 397 68 140 67 215 142 215 215 0 24
2 25 59 25 78 0 89 5 201 89 107 80 226 143 315 166 33 8 119 22 190 31 232
27 356 65 517 162 98 58 191 146 208 197 26 78 -12 169 -90 221 -50 33 -149
43 -195 19z"/>
</g>
</svg>
