<?xml version="1.0" standalone="no"?>
<!DOCTYPE svg PUBLIC "-//W3C//DTD SVG 20010904//EN"
 "http://www.w3.org/TR/2001/REC-SVG-20010904/DTD/svg10.dtd">
<svg version="1.0" xmlns="http://www.w3.org/2000/svg"
 width="600.000000pt" height="600.000000pt" viewBox="0 0 600.000000 600.000000"
 preserveAspectRatio="xMidYMid meet">
<metadata>
Created by potrace 1.15, written by Peter Selinger 2001-2017
</metadata>
<g transform="translate(0.000000,600.000000) scale(0.100000,-0.100000)"
fill="#16364b" stroke="none">
<path d="M2340 5448 c-46 -31 -73 -73 -111 -171 -69 -178 -27 -322 109 -374
60 -23 222 -12 380 25 67 16 122 27 122 24 0 -2 -58 -81 -129 -176 -156 -207
-225 -318 -308 -496 -55 -119 -63 -142 -63 -195 0 -71 23 -116 71 -141 38 -19
87 -16 259 15 159 29 369 43 533 35 120 -6 142 -5 177 11 110 49 110 209 0
261 -30 15 -68 16 -328 11 -251 -4 -293 -3 -288 9 13 34 186 302 287 444 144
203 164 244 164 336 0 93 -29 140 -112 181 -83 40 -182 37 -406 -12 -93 -20
-172 -34 -175 -30 -3 3 5 26 18 50 59 109 10 205 -110 213 -45 3 -61 0 -90
-20z"/>
<path d="M1730 5025 c-131 -28 -352 -164 -513 -315 -115 -108 -138 -170 -96
-256 24 -51 83 -84 147 -84 67 0 273 -29 327 -46 75 -24 122 -59 161 -120 38
-59 92 -93 147 -94 93 -1 187 110 162 192 -37 123 -229 277 -397 319 -27 6
-48 14 -48 18 0 14 137 71 207 87 59 13 77 21 102 49 67 76 43 197 -49 243
-50 25 -61 26 -150 7z"/>
<path d="M4050 4824 c-118 -31 -322 -154 -360 -217 -40 -64 -15 -158 49 -192
17 -8 54 -15 84 -15 46 0 63 6 104 34 108 74 243 127 270 104 21 -17 15 -118
-12 -212 -14 -47 -50 -143 -81 -213 -31 -71 -59 -145 -61 -165 -6 -45 32 -131
77 -177 54 -54 87 -57 256 -27 176 32 323 46 379 37 l40 -7 -1 -79 c0 -96 -23
-177 -100 -355 -69 -158 -71 -195 -16 -250 60 -60 150 -66 211 -15 30 26 95
162 149 315 95 269 80 486 -42 605 -100 97 -258 120 -553 80 l-51 -7 34 85
c73 181 93 340 58 458 -52 174 -237 265 -434 213z"/>
<path d="M2020 3935 c-121 -43 -306 -91 -412 -105 -103 -14 -139 -29 -168 -70
-52 -73 -31 -173 46 -218 36 -21 48 -23 144 -19 58 3 141 13 185 22 90 18 316
91 385 124 85 40 119 129 82 214 -40 91 -113 106 -262 52z"/>
<path d="M3730 3721 c-76 -24 -179 -78 -355 -184 -169 -102 -181 -111 -202
-151 -51 -99 24 -226 135 -226 46 0 123 41 340 180 45 29 85 50 88 47 10 -10
-82 -282 -137 -407 -114 -258 -121 -301 -58 -366 59 -60 132 -64 294 -14 234
71 515 291 546 428 24 108 -70 200 -176 171 -27 -8 -62 -34 -116 -86 -72 -70
-158 -137 -167 -128 -2 2 24 70 57 151 78 186 102 270 102 360 0 113 -41 185
-126 225 -52 24 -152 24 -225 0z"/>
<path d="M2320 3359 c-88 -13 -249 -57 -283 -76 -46 -27 -81 -101 -72 -153 9
-54 55 -107 105 -120 32 -8 59 -5 161 20 83 20 149 30 201 30 l78 0 0 -27 c0
-16 -16 -66 -35 -113 -40 -96 -42 -119 -15 -177 45 -101 185 -122 257 -39 39
44 101 200 113 283 15 111 -13 194 -92 269 -99 96 -239 130 -418 103z"/>
<path d="M1215 3107 c-122 -41 -186 -118 -187 -227 0 -81 43 -138 125 -162
l40 -12 -5 -280 c-10 -521 20 -679 141 -743 145 -76 316 49 284 208 l-9 47 45
6 c66 9 104 44 156 146 52 100 124 199 180 249 l39 34 8 -23 c5 -14 2 -96 -7
-199 -17 -197 -18 -201 -47 -327 -26 -114 -20 -154 31 -205 81 -81 212 -56
254 49 57 143 102 557 78 721 -20 135 -82 230 -183 280 -66 34 -138 41 -210
21 -93 -26 -229 -152 -331 -308 l-42 -63 -5 273 c-5 264 -6 275 -31 334 -14
33 -38 77 -54 97 -61 75 -181 113 -270 84z"/>
<path d="M4836 2975 c-50 -18 -94 -60 -118 -113 -16 -35 -19 -61 -16 -125 l3
-82 -127 -65 c-153 -79 -194 -107 -259 -178 -59 -64 -79 -101 -110 -202 -21
-65 -24 -95 -24 -225 0 -129 3 -160 23 -225 27 -85 68 -158 119 -211 l35 -37
-34 -11 c-18 -6 -55 -29 -82 -51 -57 -47 -72 -49 -230 -20 -191 35 -339 20
-492 -50 -113 -51 -244 -155 -347 -275 -33 -38 -75 -79 -93 -90 -18 -11 -53
-43 -78 -72 -62 -69 -140 -108 -199 -99 -137 21 -266 145 -375 361 -22 44 -51
90 -64 102 -130 121 -336 11 -315 -168 12 -102 163 -346 296 -480 115 -114
221 -166 389 -189 163 -22 325 27 457 139 33 28 74 59 90 69 17 9 55 44 85 77
147 160 230 234 303 269 103 51 158 59 279 41 239 -35 313 -31 444 30 82 37
147 92 175 146 23 45 25 123 4 159 -22 38 -19 45 28 57 95 27 168 130 168 240
1 70 -22 122 -80 186 -43 47 -61 92 -61 149 0 54 35 85 147 133 149 64 199 92
262 151 111 103 155 238 133 413 -13 104 -36 155 -92 203 -65 57 -160 73 -244
43z"/>
<path d="M3245 2354 c-49 -8 -195 -38 -322 -68 -246 -56 -290 -74 -325 -134
-61 -104 -4 -241 114 -273 47 -12 56 -11 250 25 149 28 422 66 472 66 31 0 32
-2 43 -61 18 -94 71 -149 162 -170 50 -11 126 12 167 52 53 51 69 106 69 234
0 106 -1 112 -34 174 -69 126 -171 172 -380 170 -69 -1 -166 -8 -216 -15z"/>
</g>
</svg>
