<?xml version="1.0" standalone="no"?>
<!DOCTYPE svg PUBLIC "-//W3C//DTD SVG 20010904//EN"
 "http://www.w3.org/TR/2001/REC-SVG-20010904/DTD/svg10.dtd">
<svg version="1.0" xmlns="http://www.w3.org/2000/svg"
 width="600.000000pt" height="600.000000pt" viewBox="0 0 600.000000 600.000000"
 preserveAspectRatio="xMidYMid meet">
<metadata>
Created by potrace 1.15, written by Peter Selinger 2001-2017
</metadata>
<g transform="translate(0.000000,600.000000) scale(0.100000,-0.100000)"
fill="#16364b" stroke="none">
<path d="M2172 5450 c-40 -24 -67 -81 -88 -182 -28 -135 16 -245 120 -301 38
-20 54 -22 193 -20 l152 1 -8 -21 c-5 -12 -34 -80 -64 -152 -75 -176 -157
-399 -157 -425 0 -64 62 -134 130 -145 46 -8 114 20 141 58 9 12 33 73 53 136
35 104 84 228 177 441 74 172 38 322 -95 393 -38 20 -54 22 -194 20 -95 -1
-150 2 -146 8 12 20 5 99 -12 134 -34 72 -131 98 -202 55z"/>
<path d="M3690 5320 c-62 -13 -150 -60 -173 -91 -30 -42 -34 -111 -8 -152 34
-55 115 -81 178 -56 48 20 106 27 131 18 24 -9 25 -11 20 -112 -4 -80 -12
-121 -37 -192 -56 -158 -56 -158 -30 -212 33 -65 68 -88 132 -87 92 1 125 37
176 194 35 110 61 248 61 329 0 165 -87 301 -222 348 -54 19 -169 25 -228 13z"/>
<path d="M1746 4870 c-216 -27 -469 -118 -531 -192 -70 -82 -25 -206 85 -239
34 -10 39 -15 34 -35 -9 -35 14 -90 51 -123 34 -30 39 -31 235 -67 134 -24
280 -69 364 -111 50 -26 84 -36 117 -37 140 0 202 165 97 260 -59 55 -305 148
-473 180 -49 9 -94 20 -98 24 -23 20 197 52 268 39 123 -23 220 76 185 188
-16 50 -56 91 -100 103 -56 15 -159 19 -234 10z"/>
<path d="M3275 4393 c-48 -11 -255 -93 -440 -173 -110 -48 -233 -99 -273 -114
-87 -33 -123 -72 -124 -135 -1 -84 66 -146 157 -144 53 1 207 54 390 136 55
24 165 70 245 102 147 58 181 79 206 127 51 99 -51 227 -161 201z"/>
<path d="M4235 4336 c-52 -23 -78 -60 -82 -118 -5 -66 19 -114 72 -144 33 -19
57 -22 195 -26 126 -3 162 -7 183 -21 39 -25 43 -80 17 -228 -36 -201 -37
-242 -7 -288 72 -108 214 -86 251 40 39 130 60 267 61 389 0 122 -1 127 -33
192 -65 132 -177 184 -447 207 -152 14 -173 13 -210 -3z"/>
<path d="M2150 3869 c-110 -39 -249 -62 -400 -65 -80 -2 -153 -3 -162 -3 -23
-1 -85 -57 -105 -94 -22 -44 -13 -117 20 -161 40 -52 77 -60 251 -53 163 6
281 27 456 80 89 27 111 38 146 73 53 52 63 97 35 158 -35 81 -127 106 -241
65z"/>
<path d="M3669 3757 c-36 -13 -112 -50 -169 -83 -57 -32 -180 -97 -274 -144
-106 -53 -177 -95 -189 -111 -46 -63 -22 -170 45 -205 61 -32 113 -17 346 98
116 57 212 101 212 96 0 -5 -7 -25 -15 -45 -35 -84 -8 -159 69 -188 40 -16 53
-16 89 -6 58 18 83 43 129 136 58 115 78 179 78 252 0 169 -149 262 -321 200z"/>
<path d="M4965 3301 c-75 -19 -127 -65 -161 -147 -12 -28 -16 -66 -15 -137 1
-73 -3 -106 -15 -129 -9 -18 -74 -91 -143 -163 -172 -176 -238 -291 -276 -484
-23 -113 -17 -273 14 -353 54 -139 199 -185 333 -105 95 58 139 171 108 280
-10 36 -9 54 5 107 27 106 59 155 189 289 139 144 172 189 210 284 37 94 49
174 42 286 -9 155 -60 233 -172 267 -51 15 -72 16 -119 5z"/>
<path d="M2115 3241 c-44 -3 -90 -12 -103 -19 -61 -35 -82 -140 -39 -202 48
-71 59 -74 260 -80 l182 -5 5 -70 c6 -78 16 -101 60 -139 88 -74 212 -20 239
104 27 126 6 220 -67 302 -95 105 -226 132 -537 109z"/>
<path d="M4275 3150 c-22 -11 -71 -45 -109 -74 -131 -103 -361 -208 -560 -256
-66 -16 -131 -37 -145 -48 -74 -54 -95 -152 -45 -212 45 -53 77 -64 169 -56
166 13 353 64 499 137 199 99 407 268 421 342 10 53 -1 98 -31 131 -53 57
-129 70 -199 36z"/>
<path d="M1310 3021 c-92 -28 -142 -90 -143 -174 -1 -55 31 -133 58 -143 21
-8 34 -89 45 -277 14 -244 20 -313 36 -392 17 -83 69 -245 95 -297 69 -135
283 -135 362 0 29 49 24 118 -12 191 -49 96 -69 201 -86 456 -22 326 -40 424
-92 512 -55 94 -175 151 -263 124z"/>
<path d="M2068 2506 c-95 -39 -211 -138 -287 -245 -70 -99 -21 -229 92 -248
50 -8 98 19 159 90 50 57 121 117 139 117 5 0 18 -18 29 -40 12 -24 36 -48 60
-62 22 -13 39 -25 37 -28 -1 -3 -21 -43 -44 -90 -61 -121 -77 -191 -77 -340 0
-101 4 -141 23 -208 35 -125 84 -172 178 -172 65 0 112 27 141 81 27 50 26 73
-7 193 -35 130 -23 228 41 329 61 96 43 198 -44 247 -29 16 -38 26 -33 39 4 9
11 29 16 45 25 85 -80 245 -195 297 -59 27 -156 25 -228 -5z"/>
<path d="M3580 2190 c-117 -11 -284 -42 -550 -101 -274 -60 -254 -54 -296 -91
-49 -43 -64 -78 -64 -146 0 -68 29 -122 86 -161 55 -38 109 -37 294 4 346 76
538 113 626 120 86 6 92 6 120 -17 50 -41 81 -57 121 -64 125 -20 239 94 219
219 -15 93 -101 189 -198 221 -62 21 -231 29 -358 16z"/>
<path d="M4581 1605 c-18 -8 -59 -39 -91 -68 -94 -88 -149 -106 -383 -127
-206 -18 -334 -55 -496 -141 -175 -93 -343 -231 -356 -294 -4 -16 -8 -36 -11
-42 -2 -8 -23 -13 -57 -13 -46 0 -63 -6 -118 -42 -142 -93 -246 -111 -373 -64
-110 40 -175 85 -296 207 -63 64 -129 124 -147 133 -60 30 -165 15 -216 -32
-56 -51 -74 -160 -37 -231 28 -56 169 -201 264 -273 94 -71 248 -148 356 -178
209 -57 439 -27 598 77 89 59 137 112 150 166 l12 47 45 0 c60 0 93 15 195 88
177 128 313 180 543 207 242 28 333 53 460 129 98 58 210 169 226 224 22 76
-13 162 -83 209 -50 33 -133 41 -185 18z"/>
</g>
</svg>
