<?xml version="1.0" standalone="no"?>
<!DOCTYPE svg PUBLIC "-//W3C//DTD SVG 20010904//EN"
 "http://www.w3.org/TR/2001/REC-SVG-20010904/DTD/svg10.dtd">
<svg version="1.0" xmlns="http://www.w3.org/2000/svg"
 width="600.000000pt" height="600.000000pt" viewBox="0 0 600.000000 600.000000"
 preserveAspectRatio="xMidYMid meet">
<metadata>
Created by potrace 1.15, written by Peter Selinger 2001-2017
</metadata>
<g transform="translate(0.000000,600.000000) scale(0.100000,-0.100000)"
fill="#16364b" stroke="none">
<path d="M1585 5766 c-54 -24 -74 -56 -94 -152 -55 -255 -64 -496 -22 -606 25
-65 87 -129 146 -148 46 -15 131 -8 176 15 102 53 266 296 363 539 42 102 44
134 15 186 -27 48 -66 70 -123 70 -68 0 -105 -37 -146 -147 -58 -153 -159
-338 -176 -321 -8 9 11 218 33 355 16 97 16 104 -2 142 -13 29 -29 46 -60 61
-48 23 -69 24 -110 6z"/>
<path d="M3223 5531 c-40 -25 -63 -69 -63 -120 0 -66 18 -89 135 -171 112 -80
235 -184 235 -201 0 -5 -10 -9 -21 -9 -64 0 -127 -88 -114 -157 14 -74 137
-152 253 -160 60 -4 73 -2 122 24 100 53 142 162 105 275 -23 71 -96 180 -171
253 -33 33 -131 109 -218 169 -174 120 -207 132 -263 97z"/>
<path d="M903 5466 c-133 -34 -269 -140 -325 -254 -81 -164 -23 -387 127 -490
45 -30 55 -34 103 -30 82 7 132 65 132 153 0 58 -20 97 -64 124 -82 51 -67
164 31 231 30 20 41 22 106 16 58 -5 79 -3 106 11 99 51 105 180 10 228 -42
22 -161 28 -226 11z"/>
<path d="M2932 5134 c-98 -49 -172 -171 -172 -284 1 -187 144 -264 347 -188
78 29 119 71 128 132 11 74 -10 209 -42 269 -52 96 -155 124 -261 71z"/>
<path d="M2284 4966 c-47 -21 -74 -61 -74 -113 0 -61 -33 -91 -147 -132 -125
-46 -169 -73 -183 -117 -30 -91 40 -184 139 -184 26 0 206 71 292 115 62 32
137 113 159 172 63 169 -45 320 -186 259z"/>
<path d="M4760 4818 c-75 -39 -85 -62 -84 -191 1 -172 53 -326 144 -430 64
-73 121 -102 200 -102 102 0 188 56 242 157 34 64 32 184 -4 254 -59 114 -176
223 -321 298 -80 42 -116 45 -177 14z"/>
<path d="M2751 4122 c-90 -33 -140 -83 -162 -166 -33 -123 45 -245 187 -292
88 -29 269 -26 389 5 122 32 214 69 247 99 56 51 62 144 14 206 -30 40 -150
94 -296 133 -132 35 -303 42 -379 15z"/>
<path d="M1035 4056 c-58 -26 -105 -101 -105 -169 0 -46 39 -118 77 -143 26
-17 55 -23 140 -29 158 -11 156 -8 66 -97 -98 -96 -281 -242 -397 -316 -160
-103 -195 -147 -183 -233 10 -79 74 -129 165 -129 42 0 62 8 142 56 72 43 95
53 101 42 5 -7 9 -18 9 -24 0 -18 55 -64 88 -73 48 -14 94 2 178 63 93 68 197
120 283 142 62 15 79 15 151 -3 105 -27 189 51 190 175 0 135 -94 198 -238
159 -31 -9 -86 -19 -121 -22 l-65 -7 41 46 c48 55 79 116 94 187 27 125 -36
241 -167 307 -55 28 -178 59 -284 72 -107 13 -128 12 -165 -4z"/>
<path d="M4222 3780 c-111 -24 -221 -112 -270 -218 -36 -76 -38 -196 -5 -257
31 -57 89 -110 157 -141 52 -23 67 -26 140 -22 113 6 173 41 265 158 69 87
141 251 141 320 0 41 -33 96 -69 114 -77 40 -271 65 -359 46z m43 -330 c-18
-20 -55 -28 -55 -11 0 12 21 28 45 33 28 6 31 1 10 -22z"/>
<path d="M3415 3379 c-84 -46 -159 -128 -211 -231 -44 -86 -22 -164 56 -205
57 -30 174 -32 236 -4 73 33 126 130 139 253 13 122 -45 198 -150 198 -27 0
-59 -6 -70 -11z"/>
<path d="M5119 3350 c-62 -18 -178 -89 -236 -143 -89 -84 -118 -147 -118 -257
0 -99 19 -144 83 -202 152 -137 432 -50 513 160 31 80 31 199 2 265 -31 67
-108 153 -155 172 -42 17 -51 17 -89 5z"/>
<path d="M1079 2886 c-68 -47 -87 -134 -41 -196 11 -14 50 -46 88 -72 122 -83
163 -149 164 -263 0 -83 -30 -158 -88 -218 -47 -49 -81 -67 -127 -67 -29 0
-45 9 -83 45 -73 70 -138 73 -199 9 -86 -92 -33 -223 120 -299 170 -84 337
-46 486 110 114 121 171 262 171 427 0 177 -79 321 -253 461 -112 91 -173 107
-238 63z"/>
<path d="M2170 2739 c-72 -29 -145 -103 -194 -199 -63 -121 -104 -181 -177
-256 -38 -40 -69 -76 -69 -82 0 -6 -20 -34 -43 -64 -205 -251 -345 -600 -322
-803 21 -197 104 -365 248 -502 91 -86 144 -123 249 -173 122 -58 184 -72 346
-77 162 -6 271 7 382 43 212 70 384 242 524 521 96 192 141 363 166 629 21
226 -28 388 -150 497 -78 70 -177 99 -375 109 l-50 3 -52 106 c-62 126 -119
189 -212 232 -87 41 -191 47 -271 16z m174 -492 c36 -92 65 -136 124 -185 78
-66 101 -72 270 -72 102 0 152 -4 160 -12 18 -18 15 -161 -8 -291 -41 -237
-95 -370 -199 -494 -147 -175 -314 -254 -504 -239 -90 8 -143 26 -210 73 -76
53 -106 84 -142 143 -103 171 -83 383 58 590 17 25 65 81 106 126 134 143 210
245 259 345 26 54 50 94 53 90 3 -3 18 -37 33 -74z"/>
<path d="M4106 2366 c-59 -22 -88 -47 -119 -102 -24 -43 -27 -58 -25 -124 3
-63 1 -74 -12 -71 -8 2 -43 6 -78 9 -103 7 -188 -35 -223 -112 -36 -79 -21
-175 71 -451 64 -193 90 -239 154 -269 69 -33 167 -17 239 38 26 20 46 26 84
26 108 0 183 43 229 130 28 52 22 179 -20 490 -40 292 -49 332 -78 373 -42 59
-150 89 -222 63z"/>
</g>
</svg>
