<?xml version="1.0" standalone="no"?>
<!DOCTYPE svg PUBLIC "-//W3C//DTD SVG 20010904//EN"
 "http://www.w3.org/TR/2001/REC-SVG-20010904/DTD/svg10.dtd">
<svg version="1.0" xmlns="http://www.w3.org/2000/svg"
 width="600.000000pt" height="600.000000pt" viewBox="0 0 600.000000 600.000000"
 preserveAspectRatio="xMidYMid meet">
<metadata>
Created by potrace 1.15, written by Peter Selinger 2001-2017
</metadata>
<g transform="translate(0.000000,600.000000) scale(0.100000,-0.100000)"
fill="#16364b" stroke="none">
<path d="M3564 5270 c-24 -9 -54 -52 -54 -77 0 -10 13 -44 30 -76 60 -119 143
-197 210 -197 86 0 94 82 17 197 -79 119 -150 172 -203 153z m130 -202 c19
-31 19 -32 1 -18 -25 20 -75 90 -75 104 1 14 49 -41 74 -86z"/>
<path d="M3061 5087 c-96 -36 -166 -145 -166 -259 0 -56 4 -70 24 -92 85 -91
291 83 291 246 0 85 -70 134 -149 105z m63 -93 c10 -26 -34 -111 -80 -154 -24
-22 -48 -40 -54 -40 -5 0 -10 15 -10 33 0 87 120 222 144 161z"/>
<path d="M4768 4725 c-43 -24 -52 -70 -44 -233 7 -163 23 -319 37 -374 13 -52
38 -78 81 -85 33 -5 41 -2 67 26 69 74 69 305 -1 564 -17 67 -26 82 -52 98
-37 22 -52 23 -88 4z"/>
<path d="M2674 4219 c-43 -12 -75 -50 -81 -98 -5 -37 -2 -44 33 -79 95 -94
382 -152 472 -95 31 19 54 76 46 111 -8 32 -52 82 -72 82 -8 0 -58 13 -111 29
-80 25 -243 63 -253 60 -2 0 -17 -5 -34 -10z"/>
<path d="M1490 4075 c-59 -19 -128 -78 -151 -129 -25 -55 -25 -157 0 -212 25
-55 76 -111 138 -150 60 -39 82 -68 128 -167 45 -97 79 -217 99 -347 36 -233
88 -737 96 -940 10 -244 29 -355 84 -482 53 -122 94 -185 176 -269 108 -110
215 -156 408 -175 39 -3 72 -9 72 -12 0 -4 -18 -41 -40 -84 -72 -138 -89 -242
-51 -323 23 -51 50 -75 164 -150 117 -76 121 -90 28 -98 -109 -9 -161 -46
-161 -115 0 -26 9 -43 35 -69 35 -35 37 -36 103 -31 187 14 310 173 241 315
-23 48 -61 81 -165 142 -101 59 -108 69 -101 135 6 60 37 132 97 224 l39 62
98 -6 c54 -3 195 -14 313 -26 118 -11 277 -21 352 -22 76 0 138 -2 138 -2 0
-1 -9 -21 -20 -45 -24 -53 -26 -148 -5 -188 21 -42 68 -77 136 -102 65 -24 83
-39 47 -39 -35 0 -87 -36 -94 -66 -23 -92 110 -153 237 -109 103 37 152 130
115 219 -19 45 -61 72 -162 107 -129 44 -144 54 -144 97 0 15 21 46 60 86 l60
63 138 23 c232 38 504 112 632 173 232 110 397 351 431 627 21 180 -31 350
-155 507 -148 185 -322 267 -516 243 -60 -8 -96 -21 -182 -64 -267 -137 -454
-161 -786 -100 -217 39 -423 152 -666 363 -121 105 -205 209 -293 361 -126
219 -205 321 -379 490 -115 111 -283 237 -362 272 -61 26 -171 33 -232 13z
m197 -218 c21 -15 75 -52 119 -82 144 -97 291 -269 458 -537 125 -199 185
-277 302 -394 97 -97 242 -217 329 -272 267 -170 751 -272 1023 -216 101 21
234 73 352 137 95 52 95 52 185 51 112 0 165 -23 247 -106 67 -68 142 -210
159 -303 39 -207 -84 -459 -280 -575 -84 -50 -300 -122 -461 -154 -294 -58
-517 -67 -960 -36 -80 5 -263 12 -408 15 -287 5 -352 14 -450 64 -184 94 -275
300 -302 691 -24 339 -86 885 -121 1050 -22 109 -75 279 -113 363 -34 76 -78
130 -150 187 -72 56 -95 95 -76 130 10 20 18 22 61 18 30 -3 63 -15 86 -31z"/>
<path d="M2360 2491 c-5 -11 -10 -29 -10 -41 0 -25 46 -70 71 -70 48 0 78 80
43 114 -23 23 -91 21 -104 -3z"/>
<path d="M2845 2125 c-32 -31 -32 -60 1 -90 47 -44 97 -25 110 42 13 64 -63
97 -111 48z"/>
<path d="M5223 3956 c-134 -42 -219 -187 -193 -328 24 -122 107 -237 202 -278
43 -18 65 -22 123 -18 127 9 231 82 291 203 25 51 29 72 29 140 0 69 -4 86
-27 127 -34 56 -89 105 -160 141 -46 23 -65 27 -138 26 -47 0 -104 -6 -127
-13z m141 -289 l30 -13 -22 -22 c-29 -29 -46 -28 -61 4 -19 43 -1 54 53 31z"/>
<path d="M4169 3747 c-114 -48 -165 -111 -189 -233 -28 -144 62 -299 194 -335
23 -6 69 -9 103 -6 164 13 286 146 286 312 0 185 -82 274 -258 282 -67 3 -89
0 -136 -20z m121 -271 c0 -16 -7 -27 -21 -31 -30 -10 -42 7 -23 33 20 30 44
28 44 -2z"/>
<path d="M488 2009 c-11 -6 -18 -22 -18 -38 0 -32 44 -65 192 -145 94 -51 141
-58 158 -26 26 48 -7 80 -167 159 -129 64 -137 67 -165 50z"/>
<path d="M5328 1093 c-34 -38 -54 -112 -49 -180 2 -35 48 -82 88 -89 72 -14
128 37 134 121 5 81 0 106 -30 136 -25 24 -38 29 -79 29 -34 0 -54 -5 -64 -17z"/>
</g>
</svg>
