<?xml version="1.0" standalone="no"?>
<!DOCTYPE svg PUBLIC "-//W3C//DTD SVG 20010904//EN"
 "http://www.w3.org/TR/2001/REC-SVG-20010904/DTD/svg10.dtd">
<svg version="1.0" xmlns="http://www.w3.org/2000/svg"
 width="600.000000pt" height="600.000000pt" viewBox="0 0 600.000000 600.000000"
 preserveAspectRatio="xMidYMid meet">
<metadata>
Created by potrace 1.15, written by Peter Selinger 2001-2017
</metadata>
<g transform="translate(0.000000,600.000000) scale(0.100000,-0.100000)"
fill="#16364b" stroke="none">
<path d="M2249 5842 c-19 -10 -89 -65 -155 -123 -65 -58 -195 -171 -289 -250
-269 -231 -325 -303 -325 -423 0 -108 51 -175 146 -191 49 -7 170 16 444 86
343 88 509 151 552 211 34 49 37 142 6 187 -64 95 -112 99 -288 28 -160 -64
-266 -100 -281 -95 -6 2 58 61 143 131 191 158 214 179 238 219 44 73 13 180
-63 217 -53 26 -82 26 -128 3z"/>
<path d="M3053 5661 c-98 -45 -96 -169 4 -236 17 -12 70 -29 118 -39 280 -55
425 -203 386 -395 -21 -106 -105 -185 -281 -267 -154 -72 -163 -77 -187 -113
-62 -92 12 -226 125 -226 36 0 71 12 152 52 255 126 381 252 446 443 14 41 19
83 18 165 0 128 -19 195 -87 310 -97 165 -245 257 -493 305 -129 25 -148 25
-201 1z"/>
<path d="M953 5331 c-112 -51 -246 -162 -302 -250 -111 -175 -62 -426 121
-612 86 -87 142 -122 204 -127 97 -8 164 51 164 146 0 39 -6 58 -30 90 -17 23
-34 42 -39 42 -18 0 -112 105 -136 153 -60 121 -22 191 148 272 41 20 82 46
91 59 38 59 32 127 -17 183 -56 64 -126 79 -204 44z"/>
<path d="M2713 4960 c-43 -17 -128 -80 -186 -137 -128 -126 -168 -303 -106
-469 52 -140 250 -264 422 -264 80 0 140 45 153 116 13 71 -47 165 -114 180
-96 21 -138 38 -169 69 -64 64 -32 147 86 226 116 77 142 180 66 256 -29 29
-40 33 -81 32 -27 0 -59 -4 -71 -9z"/>
<path d="M4803 4959 c-17 -5 -51 -29 -76 -52 -51 -50 -61 -85 -52 -180 24
-243 114 -417 253 -488 64 -33 178 -34 237 -2 54 29 100 78 125 136 88 199
-40 424 -313 552 -82 39 -128 48 -174 34z"/>
<path d="M1862 4444 c-114 -30 -241 -114 -309 -202 -26 -35 -33 -53 -33 -90 0
-56 26 -104 72 -132 75 -46 145 -34 217 37 45 45 97 73 134 73 11 0 45 -14 75
-32 183 -105 345 88 205 243 -90 99 -229 139 -361 103z"/>
<path d="M2577 3826 c-59 -16 -91 -46 -113 -102 -20 -54 -13 -102 23 -145 43
-51 75 -59 204 -53 137 7 155 0 139 -56 -12 -43 -66 -135 -122 -208 -36 -47
-265 -317 -310 -366 -43 -47 -48 -144 -10 -195 47 -63 131 -89 196 -60 40 19
305 334 408 487 108 159 160 324 139 437 -22 118 -92 201 -209 246 -72 28
-270 36 -345 15z"/>
<path d="M4188 3789 c-69 -16 -154 -66 -201 -119 -142 -158 -103 -387 81 -477
50 -24 69 -28 148 -28 84 0 95 2 166 38 106 52 180 134 249 275 38 78 52 117
52 151 1 54 -23 104 -59 128 -53 35 -337 56 -436 32z m102 -299 c0 -13 -58
-42 -70 -35 -17 11 -11 23 18 33 36 14 52 14 52 2z"/>
<path d="M1160 3755 c-52 -15 -184 -64 -250 -93 -53 -23 -93 -63 -114 -114
-57 -136 70 -282 216 -249 23 6 44 8 46 7 2 -2 -24 -57 -57 -122 -67 -133 -88
-186 -171 -429 -32 -93 -74 -215 -94 -271 -49 -138 -53 -177 -24 -234 32 -63
83 -90 171 -90 88 0 124 16 215 97 77 69 274 269 333 337 57 67 324 299 327
284 1 -7 -14 -74 -33 -148 -19 -74 -60 -237 -89 -361 -61 -255 -87 -338 -153
-489 -55 -127 -59 -179 -19 -240 58 -88 167 -101 233 -28 21 22 115 250 180
433 13 39 47 156 74 260 27 105 69 260 92 345 40 148 42 161 41 290 -1 114 -4
144 -23 191 -39 101 -128 169 -218 169 -86 -1 -147 -40 -386 -249 -77 -67
-141 -121 -143 -121 -6 0 22 55 71 135 115 191 159 306 159 420 1 176 -103
286 -269 284 -38 0 -90 -7 -115 -14z"/>
<path d="M3533 3376 c-91 -29 -159 -91 -199 -182 -29 -65 -58 -217 -50 -262 8
-54 46 -100 104 -129 46 -22 60 -25 112 -19 155 18 279 97 331 211 23 50 25
155 3 218 -42 124 -183 201 -301 163z"/>
<path d="M4824 2732 c-49 -36 -169 -169 -217 -242 -20 -30 -44 -77 -53 -105
-8 -27 -18 -56 -20 -64 -3 -9 -11 -4 -27 15 -39 51 -71 74 -124 90 -101 30
-206 -11 -259 -101 -37 -65 -41 -122 -14 -239 12 -54 20 -100 17 -102 -3 -3
-43 6 -89 20 -119 37 -231 50 -303 37 -143 -27 -237 -134 -253 -289 -15 -133
13 -367 65 -557 30 -107 144 -195 252 -195 68 0 114 20 163 70 36 37 49 60 58
101 10 49 8 68 -19 198 -18 79 -29 146 -26 149 2 3 46 -17 97 -43 83 -44 100
-49 158 -49 78 0 185 31 252 73 58 37 111 108 135 181 24 73 23 227 -1 333
-10 43 -16 80 -14 82 2 3 26 -7 53 -21 159 -81 380 51 453 271 27 79 38 193
23 237 -6 19 -32 54 -56 77 -25 24 -45 47 -45 51 0 5 -15 18 -34 29 -51 32
-123 29 -172 -7z"/>
<path d="M2915 2366 c-96 -27 -191 -68 -375 -159 -195 -97 -249 -137 -266
-197 -9 -33 -11 -34 -66 -36 -96 -3 -169 -37 -249 -118 -67 -68 -75 -167 -18
-245 36 -51 79 -74 148 -81 l54 -5 29 -105 c15 -58 28 -109 28 -115 0 -5 -24
-23 -53 -38 -152 -79 -240 -237 -240 -427 0 -135 34 -198 175 -337 97 -96 138
-129 231 -190 172 -113 381 -158 541 -117 70 17 272 113 315 150 90 76 73 251
-32 314 -58 36 -119 27 -232 -31 -123 -64 -186 -73 -291 -40 -135 42 -239 122
-297 230 -32 58 -31 101 2 101 20 0 77 -36 128 -81 81 -71 248 -39 318 60 27
38 30 51 30 114 0 77 -19 118 -75 162 -92 73 -139 163 -204 385 -60 206 -59
192 -11 202 21 5 133 54 247 110 114 56 211 98 215 95 18 -18 -88 -303 -168
-453 -41 -77 -49 -100 -49 -144 0 -104 76 -184 175 -184 116 0 175 73 310 389
94 220 143 417 130 519 -15 112 -79 207 -172 253 -68 33 -196 42 -278 19z"/>
</g>
</svg>
