<?xml version="1.0" standalone="no"?>
<!DOCTYPE svg PUBLIC "-//W3C//DTD SVG 20010904//EN"
 "http://www.w3.org/TR/2001/REC-SVG-20010904/DTD/svg10.dtd">
<svg version="1.0" xmlns="http://www.w3.org/2000/svg"
 width="600.000000pt" height="600.000000pt" viewBox="0 0 600.000000 600.000000"
 preserveAspectRatio="xMidYMid meet">
<metadata>
Created by potrace 1.15, written by Peter Selinger 2001-2017
</metadata>
<g transform="translate(0.000000,600.000000) scale(0.100000,-0.100000)"
fill="#16364b" stroke="none">
<path d="M1498 5770 c-37 -16 -134 -52 -215 -80 -188 -66 -229 -89 -242 -137
-13 -45 6 -94 44 -119 33 -21 62 -22 364 -10 216 8 226 10 248 32 17 17 23 34
23 67 0 51 -27 83 -79 93 -27 6 -30 9 -17 16 27 15 48 66 41 99 -8 34 -49 69
-79 68 -11 0 -51 -13 -88 -29z"/>
<path d="M2356 5399 c-24 -28 -26 -38 -26 -127 0 -129 -27 -424 -44 -490 -31
-114 -104 -196 -229 -257 -119 -57 -145 -108 -87 -167 40 -39 67 -35 194 27
174 85 274 202 310 365 20 85 36 309 36 488 0 138 -1 144 -25 167 -37 38 -95
35 -129 -6z"/>
<path d="M3513 5305 c-29 -20 -53 -71 -53 -110 0 -46 55 -149 107 -200 91 -90
216 -123 268 -71 32 32 40 68 26 119 -15 53 -109 187 -156 223 -66 50 -151 68
-192 39z"/>
<path d="M2985 5122 c-56 -26 -130 -111 -151 -175 -35 -103 -16 -202 48 -250
36 -27 121 -26 177 3 107 54 153 132 155 260 0 73 -19 118 -66 153 -38 28
-113 32 -163 9z m50 -210 c-3 -17 -13 -33 -21 -36 -18 -7 -18 8 2 45 19 37 28
32 19 -9z"/>
<path d="M4780 4772 c-30 -13 -57 -37 -69 -61 -18 -33 -16 -225 3 -333 41
-226 119 -329 252 -330 114 -1 182 75 183 207 2 139 -77 312 -203 443 -72 75
-117 95 -166 74z"/>
<path d="M2700 4220 c-62 -11 -91 -24 -129 -55 -104 -89 -91 -235 29 -316 134
-89 310 -77 454 33 85 65 109 105 103 171 -3 37 -11 56 -37 82 -17 18 -44 35
-59 38 -14 2 -60 14 -102 25 -92 25 -198 34 -259 22z"/>
<path d="M1114 4121 c-49 -30 -63 -89 -38 -154 4 -11 -4 -21 -24 -31 -39 -20
-66 -77 -57 -123 14 -76 130 -161 233 -170 73 -7 130 9 184 50 84 64 111 162
68 246 -27 54 -101 116 -188 158 -93 44 -137 50 -178 24z"/>
<path d="M5272 3835 c-128 -28 -238 -101 -285 -190 -18 -32 -22 -57 -22 -130
0 -110 20 -160 95 -239 68 -72 131 -99 227 -98 133 1 251 81 311 210 37 80 37
202 0 282 -26 57 -119 152 -166 171 -31 12 -84 10 -160 -6z m55 -321 c6 -17
-20 -44 -43 -44 -18 0 -26 30 -13 46 16 19 48 18 56 -2z"/>
<path d="M4227 3780 c-61 -16 -136 -58 -182 -104 -77 -78 -106 -211 -69 -319
65 -192 355 -231 507 -68 59 63 86 123 99 223 19 145 -13 209 -125 248 -66 23
-177 33 -230 20z m93 -268 c0 -18 -33 -52 -51 -52 -30 0 -21 27 16 48 24 14
35 15 35 4z"/>
<path d="M3450 3353 c-25 -9 -61 -46 -100 -103 -49 -73 -110 -194 -110 -221 0
-33 62 -89 99 -89 106 0 239 160 249 300 4 49 1 60 -23 88 -21 26 -34 32 -63
31 -21 0 -44 -3 -52 -6z"/>
<path d="M1655 3153 c-370 -22 -641 -167 -758 -403 -31 -62 -32 -70 -32 -186
l0 -121 42 -84 c73 -147 173 -229 363 -295 222 -78 284 -149 395 -449 98 -268
186 -369 399 -458 157 -66 231 -81 401 -81 101 0 176 5 230 16 44 9 132 20
195 23 172 9 300 23 455 50 77 14 205 34 285 45 232 32 331 68 498 180 119 79
300 236 367 317 115 139 183 328 192 538 9 204 -23 295 -158 439 -94 100 -181
166 -271 203 -54 23 -78 27 -168 27 -130 1 -204 -21 -338 -100 -185 -110 -268
-135 -457 -138 -305 -5 -415 28 -700 204 -179 112 -235 139 -370 184 -192 64
-413 98 -570 89z m182 -383 c96 -12 258 -59 349 -100 35 -16 139 -73 231 -128
288 -172 379 -209 576 -238 62 -9 134 -23 161 -31 44 -15 60 -15 185 2 249 32
380 75 586 193 137 80 187 70 318 -63 66 -67 72 -83 64 -170 -23 -247 -247
-503 -535 -613 -90 -34 -226 -65 -362 -81 -144 -18 -582 -51 -592 -45 -5 3
-68 -9 -141 -27 -108 -26 -152 -32 -242 -33 -225 0 -308 71 -406 350 -59 166
-131 287 -233 390 -105 104 -202 162 -371 218 -44 15 -90 34 -103 42 -32 21
-62 73 -62 109 0 44 43 101 98 129 68 34 246 87 322 96 36 4 67 8 70 9 3 0 42
-4 87 -9z"/>
<path d="M449 2127 c-21 -16 -39 -51 -39 -75 0 -17 24 -76 82 -202 65 -138
190 -250 281 -250 81 0 137 59 137 145 -1 122 -100 238 -307 359 -65 38 -123
47 -154 23z"/>
<path d="M5035 1416 c-17 -7 -36 -20 -44 -29 -7 -10 -26 -17 -42 -17 -43 0
-77 -20 -101 -58 -18 -29 -20 -44 -15 -105 11 -146 73 -244 159 -254 98 -11
146 54 173 233 22 143 20 168 -12 203 -33 35 -77 45 -118 27z"/>
</g>
</svg>
