<?xml version="1.0" standalone="no"?>
<!DOCTYPE svg PUBLIC "-//W3C//DTD SVG 20010904//EN"
 "http://www.w3.org/TR/2001/REC-SVG-20010904/DTD/svg10.dtd">
<svg version="1.0" xmlns="http://www.w3.org/2000/svg"
 width="600.000000pt" height="600.000000pt" viewBox="0 0 600.000000 600.000000"
 preserveAspectRatio="xMidYMid meet">
<metadata>
Created by potrace 1.15, written by Peter Selinger 2001-2017
</metadata>
<g transform="translate(0.000000,600.000000) scale(0.100000,-0.100000)"
fill="#16364b" stroke="none">
<path d="M2133 5331 c-110 -41 -190 -119 -229 -225 -16 -44 -19 -78 -19 -251
1 -110 7 -310 14 -446 11 -199 11 -291 1 -490 -7 -134 -13 -379 -14 -544 -2
-356 -18 -513 -50 -520 -100 -22 -488 -34 -600 -19 -43 6 -46 8 -46 38 0 17
-4 37 -9 45 -14 22 -31 3 -31 -37 l0 -37 -43 49 c-37 42 -44 46 -55 33 -10
-12 -10 -23 4 -56 9 -23 14 -44 12 -46 -3 -3 -19 0 -37 6 -63 22 -82 -9 -26
-42 43 -26 45 -39 5 -39 -29 0 -51 -23 -36 -37 15 -15 210 -35 401 -40 163 -4
236 -2 325 11 63 9 122 16 131 16 14 0 17 -26 22 -227 8 -275 27 -458 66 -619
98 -402 254 -565 614 -639 26 -5 27 -7 20 -48 -14 -74 -7 -267 11 -352 10 -44
36 -135 58 -202 22 -68 38 -130 34 -138 -4 -11 -22 -15 -76 -15 -109 0 -170
-35 -172 -98 -3 -110 144 -144 292 -70 50 26 71 43 93 80 40 64 37 106 -16
268 -63 192 -80 289 -75 427 2 62 9 118 15 124 7 7 52 6 144 -2 91 -8 248 -9
485 -5 l352 7 -5 -123 c-8 -180 21 -348 91 -532 14 -38 24 -72 21 -75 -3 -3
-50 -8 -105 -11 -92 -6 -102 -8 -130 -35 -22 -21 -30 -38 -30 -63 0 -74 48
-106 155 -105 130 2 242 67 266 156 13 48 7 82 -27 168 -51 129 -75 246 -81
390 -4 91 -2 152 6 186 l12 50 167 22 c343 45 375 54 467 142 126 119 196 388
182 703 -4 104 -11 144 -51 286 -70 250 -143 383 -274 500 -31 27 -52 50 -46
50 39 0 481 86 542 105 43 14 86 25 97 25 26 0 155 96 155 115 0 8 -4 15 -10
15 -5 0 -9 10 -7 23 2 17 -4 23 -25 25 -24 3 -27 6 -18 23 16 30 -15 36 -50
10 -33 -24 -55 -28 -47 -8 8 20 -9 41 -27 34 -10 -4 -16 -19 -16 -42 0 -31 -4
-37 -37 -50 -105 -44 -479 -125 -646 -140 l-77 -7 -113 107 c-156 149 -240
214 -429 332 -511 319 -678 508 -837 953 -51 143 -65 204 -90 401 -31 230 -66
316 -171 419 -81 80 -136 104 -240 107 -64 3 -98 -1 -137 -16z m162 -132 c102
-26 175 -135 201 -298 8 -47 18 -113 24 -146 19 -121 40 -202 78 -310 142
-395 234 -557 419 -736 99 -96 326 -264 608 -451 147 -97 223 -157 335 -260
80 -73 161 -146 180 -161 75 -61 194 -185 232 -240 58 -85 73 -125 119 -313
l42 -169 -6 -180 c-9 -258 -41 -375 -126 -463 -57 -58 -118 -77 -336 -102
-300 -34 -956 -51 -1155 -29 -47 5 -148 13 -225 18 -164 10 -216 21 -305 63
-218 104 -326 378 -370 932 -12 157 -12 450 0 566 5 47 14 246 20 443 5 196
14 417 20 490 13 166 13 550 0 727 -5 74 -10 207 -12 295 -2 145 -1 164 19
206 23 51 72 94 130 115 47 16 54 17 108 3z"/>
<path d="M2628 2828 c-32 -25 -32 -56 1 -88 37 -38 73 -39 100 -4 26 33 27 58
1 84 -23 23 -78 27 -102 8z"/>
<path d="M3164 2772 c-24 -16 -35 -51 -23 -74 14 -27 49 -57 67 -58 22 0 62
48 62 75 0 47 -67 84 -106 57z"/>
<path d="M2876 1885 c-39 -39 -7 -80 75 -95 48 -9 198 -6 255 6 27 5 36 37 18
62 -12 18 -28 21 -156 24 -79 2 -150 8 -159 12 -10 4 -23 1 -33 -9z"/>
</g>
</svg>
