<?xml version="1.0" standalone="no"?>
<!DOCTYPE svg PUBLIC "-//W3C//DTD SVG 20010904//EN"
 "http://www.w3.org/TR/2001/REC-SVG-20010904/DTD/svg10.dtd">
<svg version="1.0" xmlns="http://www.w3.org/2000/svg"
 width="600.000000pt" height="600.000000pt" viewBox="0 0 600.000000 600.000000"
 preserveAspectRatio="xMidYMid meet">
<metadata>
Created by potrace 1.15, written by Peter Selinger 2001-2017
</metadata>
<g transform="translate(0.000000,600.000000) scale(0.100000,-0.100000)"
fill="#16364b" stroke="none">
<path d="M2065 5812 c-17 -11 -77 -77 -135 -148 -57 -71 -145 -176 -194 -233
-50 -57 -117 -133 -149 -170 -63 -73 -117 -170 -117 -211 0 -68 46 -140 107
-166 41 -18 113 -18 178 0 71 19 549 208 632 250 125 62 163 109 163 201 0 64
-23 103 -73 126 -65 29 -103 24 -208 -27 -52 -25 -118 -57 -148 -70 l-55 -24
20 22 c10 12 59 67 107 121 101 112 121 151 112 209 -8 44 -52 101 -96 124
-39 20 -108 18 -144 -4z"/>
<path d="M3029 5667 c-48 -33 -74 -99 -60 -154 15 -54 42 -78 125 -114 121
-52 140 -61 222 -115 147 -96 198 -180 199 -326 0 -86 0 -87 -35 -123 -41 -43
-97 -78 -160 -100 -24 -9 -55 -26 -69 -38 -76 -70 -65 -213 20 -259 45 -24 71
-23 154 9 253 96 389 237 411 426 9 72 -12 215 -41 294 -75 197 -265 366 -541
478 -126 52 -174 56 -225 22z"/>
<path d="M990 5373 c-46 -8 -185 -82 -237 -125 -66 -55 -109 -109 -142 -178
-22 -47 -26 -68 -25 -145 0 -78 5 -100 32 -165 54 -126 196 -291 289 -335 92
-44 203 37 203 147 0 65 -18 96 -91 160 -104 90 -140 177 -103 253 19 41 46
59 144 100 55 23 81 40 97 64 28 42 30 110 6 153 -31 52 -107 84 -173 71z"/>
<path d="M2770 4986 c-91 -25 -192 -114 -232 -204 -28 -65 -35 -182 -14 -254
40 -140 158 -215 367 -234 102 -9 156 13 188 78 26 55 26 80 0 134 -26 54 -72
84 -130 84 -52 1 -118 15 -131 28 -6 6 -8 22 -4 36 6 24 11 26 60 26 64 0 112
28 138 80 50 98 -7 204 -122 229 -61 13 -63 13 -120 -3z"/>
<path d="M4765 4904 c-46 -24 -73 -53 -91 -99 -14 -37 -14 -57 -5 -153 31
-306 155 -467 361 -467 128 0 227 68 270 183 74 195 -64 385 -377 521 -80 35
-114 38 -158 15z"/>
<path d="M1890 4591 c-115 -37 -239 -136 -260 -206 -16 -56 0 -111 45 -155 31
-30 43 -35 98 -38 60 -4 65 -2 132 42 38 25 79 46 92 46 16 0 34 -15 60 -51
39 -55 81 -79 135 -79 69 0 138 70 138 141 0 80 -119 238 -215 284 -43 21
-180 31 -225 16z"/>
<path d="M2895 3933 c-68 -17 -124 -101 -149 -224 -21 -106 -37 -396 -27 -507
9 -99 21 -126 75 -166 38 -29 114 -29 152 0 64 48 68 59 76 257 10 235 27 341
61 368 34 26 61 100 53 141 -20 100 -127 158 -241 131z"/>
<path d="M1165 3871 c-214 -59 -281 -96 -320 -174 -30 -60 -31 -107 -6 -163
35 -76 113 -114 199 -95 26 5 49 8 51 6 2 -3 -19 -35 -46 -73 -132 -180 -227
-371 -352 -704 -53 -142 -62 -201 -39 -255 39 -89 123 -153 200 -153 27 0 63
7 81 17 18 9 104 86 192 172 240 235 589 551 608 551 13 0 7 -94 -13 -185 -60
-272 -182 -582 -356 -901 -65 -120 -57 -194 27 -256 46 -34 150 -21 186 24 54
65 247 446 301 593 104 281 156 439 179 540 22 98 24 123 18 224 -14 244 -90
351 -247 351 -96 0 -192 -55 -393 -224 -49 -41 -93 -76 -97 -76 -4 0 33 62 83
138 112 170 146 239 158 322 20 130 -41 255 -153 312 -58 30 -170 34 -261 9z"/>
<path d="M4304 3790 c-96 -14 -206 -58 -271 -107 -47 -36 -100 -121 -112 -180
-33 -164 96 -335 271 -359 54 -8 153 16 205 49 91 58 157 147 229 313 72 165
64 249 -27 281 -37 13 -214 15 -295 3z m-44 -325 c-26 -27 -50 -33 -50 -12 0
14 34 35 59 36 10 1 7 -7 -9 -24z"/>
<path d="M3445 3361 c-22 -10 -57 -36 -77 -57 -62 -65 -128 -221 -128 -302 0
-46 33 -102 77 -132 34 -23 45 -25 147 -24 127 1 175 16 246 80 114 103 120
276 14 380 -74 71 -193 95 -279 55z"/>
<path d="M4889 2902 c-61 -31 -192 -189 -244 -296 -14 -28 -32 -85 -41 -126
-14 -69 -14 -80 1 -137 13 -48 26 -70 55 -97 72 -64 149 -69 263 -17 176 80
279 240 264 407 -9 89 -30 131 -100 201 -87 86 -130 100 -198 65z"/>
<path d="M4145 2511 c-73 -19 -133 -70 -163 -141 -21 -50 -17 -133 12 -235 38
-132 40 -129 -51 -94 -393 152 -590 -180 -437 -734 38 -140 64 -191 117 -231
129 -98 287 -63 353 79 30 62 30 117 4 255 -23 123 -22 110 -11 110 5 0 24
-16 43 -36 52 -56 102 -78 178 -78 125 0 243 72 297 182 24 48 28 72 31 159 5
125 -8 218 -58 430 -44 182 -56 215 -94 260 -47 56 -152 91 -221 74z"/>
<path d="M2960 2224 c-180 -33 -322 -87 -513 -197 l-88 -50 -35 42 c-72 84
-169 104 -272 56 -61 -28 -186 -150 -228 -220 -69 -118 15 -258 164 -274 l56
-6 9 -43 c5 -24 6 -49 4 -55 -3 -7 -28 -20 -56 -30 -63 -22 -157 -106 -194
-175 -39 -72 -58 -167 -58 -295 0 -131 14 -196 71 -315 87 -182 221 -309 402
-382 195 -77 385 -96 528 -51 176 54 360 183 396 277 47 124 -44 254 -179 254
-60 0 -83 -9 -159 -66 -97 -72 -151 -94 -232 -94 -174 0 -354 108 -426 255
-18 36 -26 71 -28 126 -4 68 -2 79 17 98 29 29 45 19 146 -85 82 -84 119 -104
190 -104 72 1 147 61 174 139 25 77 6 138 -70 218 -66 70 -94 134 -133 306 -5
22 -3 27 13 27 11 0 108 45 215 100 106 55 224 111 260 125 l66 25 0 -25 c0
-56 -76 -255 -166 -433 -100 -201 -109 -236 -80 -305 18 -43 67 -84 119 -98
61 -16 135 9 180 61 64 76 240 451 314 670 37 112 40 258 5 333 -31 67 -103
141 -165 167 -51 22 -185 35 -247 24z"/>
</g>
</svg>
