<?xml version="1.0" standalone="no"?>
<!DOCTYPE svg PUBLIC "-//W3C//DTD SVG 20010904//EN"
 "http://www.w3.org/TR/2001/REC-SVG-20010904/DTD/svg10.dtd">
<svg version="1.0" xmlns="http://www.w3.org/2000/svg"
 width="600.000000pt" height="600.000000pt" viewBox="0 0 600.000000 600.000000"
 preserveAspectRatio="xMidYMid meet">
<metadata>
Created by potrace 1.15, written by Peter Selinger 2001-2017
</metadata>
<g transform="translate(0.000000,600.000000) scale(0.100000,-0.100000)"
fill="#16364b" stroke="none">
<path d="M2388 5379 c-15 -8 -18 -25 -18 -109 0 -305 -74 -576 -189 -690 -25
-25 -78 -62 -118 -83 -75 -39 -92 -62 -73 -97 23 -43 57 -44 138 -4 221 109
342 379 359 805 6 140 5 147 -16 168 -23 23 -55 27 -83 10z"/>
<path d="M3531 5253 c-37 -46 -36 -68 3 -148 60 -121 176 -210 250 -191 26 6
56 51 56 83 0 32 -66 156 -108 204 -72 81 -161 104 -201 52z"/>
<path d="M3045 5100 c-52 -16 -112 -76 -147 -148 -28 -57 -33 -77 -33 -138 0
-62 3 -76 24 -98 53 -57 131 -37 219 57 101 108 132 233 75 297 -31 35 -85 46
-138 30z m55 -123 c0 -47 -84 -167 -118 -167 -33 0 18 121 68 164 39 32 50 33
50 3z"/>
<path d="M4803 4750 c-40 -16 -51 -50 -62 -183 -23 -270 -10 -402 43 -464 21
-24 32 -28 74 -28 60 0 84 18 109 84 25 64 24 265 -1 376 -43 189 -86 246
-163 215z"/>
<path d="M2640 4203 c-47 -24 -75 -77 -66 -126 14 -72 90 -128 221 -162 129
-33 297 -6 349 56 43 51 29 139 -26 166 -49 25 -275 75 -357 79 -70 5 -92 2
-121 -13z"/>
<path d="M5225 3997 c-92 -31 -150 -80 -183 -157 -28 -64 -35 -117 -23 -189
21 -133 97 -239 208 -292 60 -29 71 -31 152 -27 77 3 94 7 137 33 99 62 165
194 166 332 1 119 -53 202 -177 273 -54 30 -69 34 -150 37 -56 2 -105 -2 -130
-10z m130 -299 c14 -6 25 -17 25 -24 0 -13 -30 -34 -49 -34 -15 0 -34 39 -27
56 7 17 17 18 51 2z"/>
<path d="M1280 3757 c-69 -16 -106 -36 -147 -79 -60 -62 -83 -156 -63 -254 31
-150 131 -259 283 -305 84 -27 130 -59 172 -122 58 -88 80 -164 131 -456 13
-80 40 -220 59 -311 18 -91 43 -226 54 -301 40 -257 104 -415 216 -537 60 -65
194 -162 223 -162 16 0 14 -21 -3 -44 -22 -29 -19 -108 5 -139 47 -59 159 -73
469 -57 196 10 222 10 250 -4 21 -11 31 -24 31 -40 0 -74 95 -104 144 -45 46
54 27 127 -52 196 l-37 33 75 0 c388 1 823 14 925 26 222 27 395 82 616 195
267 136 441 315 514 528 32 95 48 226 39 321 -13 147 -83 335 -170 456 -142
200 -441 286 -699 199 -97 -32 -147 -60 -245 -138 -115 -92 -251 -172 -370
-220 -83 -33 -239 -67 -305 -67 -194 2 -503 121 -680 264 -93 74 -155 143
-285 316 -277 368 -471 554 -675 650 -194 91 -356 124 -475 97z m252 -316
c184 -62 247 -99 369 -221 61 -61 151 -166 213 -250 256 -347 332 -430 505
-549 92 -63 234 -135 324 -165 149 -50 333 -86 435 -86 89 0 295 43 411 86
147 55 337 157 446 239 141 106 234 137 350 116 119 -22 197 -82 259 -201 87
-164 88 -346 4 -515 -73 -145 -153 -215 -361 -315 -334 -160 -523 -197 -912
-180 -115 5 -399 11 -630 14 -344 3 -434 7 -500 21 -183 39 -288 127 -346 291
-24 69 -55 220 -64 319 -4 39 -26 160 -50 270 -24 110 -55 270 -70 355 -33
186 -64 301 -110 397 -77 165 -176 253 -340 304 -71 22 -125 61 -125 90 0 30
61 24 192 -20z"/>
<path d="M2305 2408 c-11 -6 -23 -16 -27 -22 -26 -38 19 -100 68 -94 58 6 72
92 19 116 -31 14 -35 14 -60 0z"/>
<path d="M2842 2060 c-28 -12 -46 -54 -32 -80 14 -26 50 -50 76 -50 53 0 78
87 35 122 -25 20 -44 22 -79 8z"/>
<path d="M4229 3747 c-194 -55 -303 -265 -225 -433 60 -129 244 -191 372 -126
54 28 120 95 152 157 25 45 27 60 27 160 0 141 -12 166 -106 213 -76 38 -151
48 -220 29z m81 -265 c0 -18 -33 -52 -51 -52 -25 0 -24 8 3 37 21 22 48 31 48
15z"/>
<path d="M3451 3334 c-70 -62 -181 -251 -181 -305 0 -68 73 -80 127 -22 84 88
183 251 183 301 0 29 -34 62 -65 62 -15 0 -41 -15 -64 -36z"/>
<path d="M471 2011 c-43 -43 -22 -80 104 -181 122 -98 255 -106 255 -15 0 45
-48 85 -182 152 -134 66 -150 71 -177 44z"/>
<path d="M5320 1107 c-36 -18 -63 -81 -68 -158 -4 -63 -3 -67 28 -97 26 -26
40 -32 74 -32 83 0 126 61 126 175 0 60 -3 69 -29 96 -33 32 -86 39 -131 16z"/>
</g>
</svg>
