<?xml version="1.0" standalone="no"?>
<!DOCTYPE svg PUBLIC "-//W3C//DTD SVG 20010904//EN"
 "http://www.w3.org/TR/2001/REC-SVG-20010904/DTD/svg10.dtd">
<svg version="1.0" xmlns="http://www.w3.org/2000/svg"
 width="600.000000pt" height="600.000000pt" viewBox="0 0 600.000000 600.000000"
 preserveAspectRatio="xMidYMid meet">
<metadata>
Created by potrace 1.15, written by Peter Selinger 2001-2017
</metadata>
<g transform="translate(0.000000,600.000000) scale(0.100000,-0.100000)"
fill="#16364b" stroke="none">
<path d="M3115 5652 c-48 -23 -69 -45 -91 -97 -21 -52 -12 -103 30 -168 46
-74 126 -142 291 -253 79 -53 163 -114 187 -136 l43 -40 -49 -44 c-26 -24
-107 -81 -180 -126 -72 -45 -148 -92 -168 -106 -21 -13 -83 -39 -138 -58 -319
-107 -448 -235 -381 -379 38 -81 114 -125 220 -125 102 0 159 59 148 152 -7
54 -8 54 94 61 49 3 72 13 185 82 334 202 467 304 515 395 20 38 24 60 24 135
0 81 -3 95 -29 142 -40 73 -102 131 -244 230 -144 100 -220 173 -263 248 -52
92 -119 122 -194 87z"/>
<path d="M1128 5336 c-136 -56 -198 -112 -254 -233 -67 -141 -106 -384 -86
-520 16 -105 69 -213 120 -245 55 -34 137 -32 186 5 67 52 84 127 46 202 -39
76 -53 143 -47 231 9 146 62 226 193 294 43 22 77 48 91 69 47 70 18 156 -67
199 -56 28 -110 28 -182 -2z"/>
<path d="M1775 5313 c-35 -9 -87 -55 -102 -92 -10 -22 -13 -52 -10 -81 5 -41
1 -51 -48 -125 -65 -98 -88 -144 -109 -214 -23 -79 -20 -129 12 -192 55 -109
153 -144 377 -136 233 8 304 42 313 150 5 63 -12 105 -58 137 -51 36 -85 41
-184 25 -105 -17 -136 -19 -136 -6 0 5 28 57 62 117 99 175 115 241 79 319
-36 78 -115 118 -196 98z"/>
<path d="M4590 4693 c-53 -27 -80 -75 -80 -141 0 -65 26 -114 70 -134 17 -7
30 -15 30 -18 -1 -3 -15 -14 -33 -25 -72 -46 -98 -135 -57 -202 29 -48 70 -64
180 -70 317 -18 527 168 424 374 -47 96 -147 162 -306 202 -122 31 -187 35
-228 14z"/>
<path d="M1785 4272 c-130 -39 -307 -158 -352 -237 -53 -94 -2 -206 107 -235
51 -14 102 4 166 58 27 22 78 55 114 73 57 28 78 33 170 38 121 7 148 19 180
81 40 78 19 160 -53 214 -25 18 -44 21 -150 23 -93 2 -136 -2 -182 -15z"/>
<path d="M2580 3742 c-89 -25 -237 -79 -272 -100 -64 -37 -84 -142 -40 -201
58 -78 111 -85 260 -37 61 19 136 39 167 42 l57 7 -7 -34 c-9 -45 -119 -269
-195 -398 -34 -57 -98 -151 -142 -209 -106 -139 -118 -160 -118 -205 0 -112
112 -192 214 -153 37 14 57 34 114 109 167 223 237 346 335 592 69 172 87 240
87 325 0 110 -55 197 -160 252 -61 31 -205 36 -300 10z"/>
<path d="M4061 3730 c-229 -49 -282 -278 -105 -455 96 -97 222 -135 336 -101
172 50 280 305 173 406 -14 13 -25 31 -25 39 0 30 -41 82 -76 97 -43 18 -241
27 -303 14z"/>
<path d="M1090 3582 c-75 -25 -142 -61 -226 -121 -56 -39 -77 -61 -98 -102
-69 -140 10 -279 159 -279 25 0 62 7 81 15 27 11 35 12 31 2 -35 -92 -157
-461 -183 -557 -37 -134 -69 -352 -58 -397 22 -92 86 -148 188 -165 108 -18
123 -10 265 146 67 74 194 222 281 328 197 241 246 295 256 285 18 -17 -45
-366 -127 -707 -76 -317 -87 -440 -46 -520 55 -110 175 -119 250 -18 12 16 22
54 28 107 5 45 32 171 60 279 54 212 98 409 131 592 29 158 32 476 5 563 -34
112 -130 178 -236 163 -67 -9 -119 -39 -192 -108 -64 -62 -251 -271 -318 -356
-18 -24 -35 -41 -38 -39 -2 3 32 101 76 218 89 239 117 353 107 436 -11 96
-70 183 -151 226 -56 29 -172 33 -245 9z"/>
<path d="M3583 3286 c-61 -19 -106 -50 -161 -111 -66 -72 -97 -154 -97 -256 0
-68 3 -79 29 -113 53 -70 151 -88 221 -40 28 19 59 28 119 34 105 12 195 56
239 118 43 59 50 150 17 216 -60 126 -228 195 -367 152z"/>
<path d="M4710 3011 c-70 -38 -104 -150 -80 -266 6 -33 27 -96 45 -140 18 -44
36 -95 40 -114 8 -37 71 -106 111 -121 67 -26 163 2 206 61 36 48 34 96 -6
169 -88 158 -101 191 -101 262 0 71 -14 102 -67 141 -37 28 -105 32 -148 8z"/>
<path d="M2960 2584 c-105 -21 -292 -92 -482 -183 -96 -46 -110 -56 -134 -96
-35 -60 -40 -111 -19 -174 27 -82 104 -130 189 -117 22 3 95 30 161 59 156 70
293 122 301 114 13 -13 -49 -165 -132 -324 -72 -138 -84 -169 -84 -210 1 -141
143 -249 263 -199 57 23 86 68 178 267 156 335 186 430 177 557 -6 83 -33 146
-89 207 -64 69 -126 97 -224 101 -44 1 -91 0 -105 -2z"/>
<path d="M4378 2291 c-88 -56 -120 -135 -99 -246 6 -37 10 -69 8 -72 -3 -2
-42 6 -88 19 -67 18 -111 22 -215 23 l-131 0 -79 -40 c-91 -47 -148 -109 -185
-202 -21 -54 -23 -76 -27 -307 -2 -137 -1 -268 3 -292 13 -87 102 -176 189
-189 82 -13 167 27 220 103 29 42 30 43 39 239 5 109 12 202 17 206 4 5 55 -7
113 -27 91 -31 117 -36 199 -36 52 0 121 7 153 15 122 31 225 133 259 256 31
110 13 347 -34 440 -45 87 -131 139 -231 139 -55 0 -72 -5 -111 -29z"/>
<path d="M2150 1839 c-82 -25 -140 -101 -140 -184 0 -92 42 -321 81 -440 60
-184 126 -310 200 -385 67 -67 167 -138 273 -194 77 -41 142 -47 200 -19 l35
16 88 -51 c218 -125 409 -143 567 -52 60 34 121 94 135 133 35 91 -16 230 -99
272 -68 34 -142 22 -219 -33 -67 -48 -81 -46 -241 47 -71 41 -116 76 -177 140
-46 47 -86 95 -89 106 -15 46 -65 104 -109 125 -35 17 -58 21 -102 18 -32 -2
-65 -7 -74 -12 -20 -9 -30 23 -74 245 -27 136 -38 176 -60 204 -45 60 -123 85
-195 64z"/>
</g>
</svg>
