<?xml version="1.0" standalone="no"?>
<!DOCTYPE svg PUBLIC "-//W3C//DTD SVG 20010904//EN"
 "http://www.w3.org/TR/2001/REC-SVG-20010904/DTD/svg10.dtd">
<svg version="1.0" xmlns="http://www.w3.org/2000/svg"
 width="600.000000pt" height="600.000000pt" viewBox="0 0 600.000000 600.000000"
 preserveAspectRatio="xMidYMid meet">
<metadata>
Created by potrace 1.15, written by Peter Selinger 2001-2017
</metadata>
<g transform="translate(0.000000,600.000000) scale(0.100000,-0.100000)"
fill="#16364b" stroke="none">
<path d="M2187 5806 c-47 -25 -386 -323 -533 -470 -152 -152 -193 -211 -195
-288 -3 -63 17 -112 61 -151 82 -74 205 -72 438 8 268 91 567 218 610 259 78
73 57 193 -45 245 -40 21 -88 11 -228 -45 -252 -101 -240 -97 -225 -79 8 9 68
63 134 119 67 57 140 124 164 149 38 42 42 51 42 98 0 65 -29 119 -80 148 -44
24 -103 27 -143 7z"/>
<path d="M3054 5666 c-35 -16 -72 -58 -81 -94 -18 -74 57 -163 154 -182 86
-17 182 -48 236 -78 63 -34 140 -118 155 -169 15 -52 15 -164 0 -217 -19 -66
-113 -151 -237 -216 -116 -61 -141 -87 -148 -152 -12 -103 77 -183 174 -156
21 5 79 30 128 55 236 119 346 232 389 399 21 80 21 250 1 329 -60 234 -261
403 -563 474 -102 24 -164 26 -208 7z"/>
<path d="M940 5334 c-200 -96 -328 -244 -345 -399 -18 -164 87 -385 247 -523
88 -75 149 -90 217 -52 57 33 85 84 85 155 0 72 -14 98 -88 153 -97 73 -153
185 -133 264 10 37 66 88 131 119 32 15 72 40 88 55 33 33 52 93 43 141 -12
64 -86 123 -155 123 -9 0 -49 -16 -90 -36z"/>
<path d="M2740 4964 c-87 -23 -169 -84 -228 -169 -68 -101 -83 -288 -30 -395
67 -137 216 -230 373 -233 60 -2 75 2 104 22 108 78 79 238 -50 270 -99 25
-119 33 -149 57 -22 19 -30 34 -30 60 0 44 49 100 100 114 103 28 151 131 97
210 -43 64 -105 85 -187 64z"/>
<path d="M4775 4941 c-83 -51 -108 -109 -99 -226 18 -244 109 -417 251 -482
74 -34 178 -30 246 10 62 37 122 108 148 176 67 177 -57 355 -351 501 -90 45
-146 52 -195 21z"/>
<path d="M1852 4489 c-105 -20 -238 -114 -276 -194 -48 -100 15 -220 125 -240
48 -9 118 21 148 64 50 69 121 80 184 26 66 -57 134 -59 200 -4 49 40 74 116
58 175 -33 123 -254 210 -439 173z"/>
<path d="M2687 3866 c-78 -22 -117 -71 -117 -149 0 -86 75 -157 165 -157 62 0
67 -7 54 -76 -18 -97 -117 -270 -233 -408 -79 -93 -86 -106 -86 -156 0 -123
142 -204 241 -137 42 28 110 112 199 244 78 116 128 215 161 323 32 100 32
229 0 312 -28 71 -99 151 -163 184 -60 31 -154 39 -221 20z"/>
<path d="M1197 3774 c-37 -8 -121 -33 -185 -56 -99 -35 -124 -48 -159 -84 -32
-33 -43 -54 -49 -89 -19 -127 110 -244 238 -216 23 6 44 8 46 6 2 -2 -12 -31
-33 -64 -20 -33 -61 -114 -92 -178 -31 -65 -89 -188 -130 -273 -117 -242 -153
-345 -153 -433 0 -120 93 -217 208 -217 57 0 94 21 182 105 30 29 129 118 220
198 91 79 227 210 303 291 76 80 142 146 147 146 10 0 5 -40 -26 -228 -25
-150 -72 -307 -142 -472 -131 -308 -172 -415 -172 -451 0 -95 58 -154 150
-154 96 0 109 15 231 287 126 281 194 491 224 694 9 60 23 150 33 199 10 54
16 145 17 230 0 131 -2 144 -26 196 -55 117 -166 155 -284 96 -67 -33 -182
-124 -303 -241 l-116 -111 69 130 c147 280 163 314 174 383 22 129 -26 232
-131 285 -70 35 -148 42 -241 21z"/>
<path d="M4192 3780 c-225 -47 -348 -254 -261 -441 78 -165 264 -231 433 -151
105 49 178 130 256 283 53 103 63 131 63 174 0 60 -21 98 -67 123 -25 13 -66
17 -206 18 -96 2 -194 -1 -218 -6z m78 -289 c0 -12 -46 -41 -65 -41 -26 0 -16
20 18 35 38 17 47 18 47 6z"/>
<path d="M3525 3391 c-118 -29 -212 -154 -250 -333 -23 -109 -16 -147 35 -198
45 -45 92 -56 199 -47 197 16 331 140 331 307 0 177 -154 310 -315 271z"/>
<path d="M4861 2789 c-50 -31 -200 -185 -243 -250 -68 -103 -94 -227 -67 -310
15 -43 63 -95 111 -120 56 -29 147 -26 217 7 72 34 177 140 218 219 58 112 79
255 47 317 -19 36 -109 130 -141 147 -35 18 -104 13 -142 -10z"/>
<path d="M4192 2446 c-95 -31 -152 -107 -152 -203 0 -28 9 -95 20 -148 11 -54
19 -100 17 -101 -2 -2 -34 13 -71 32 -123 66 -216 79 -308 44 -133 -49 -208
-169 -208 -331 0 -36 15 -160 34 -275 19 -115 38 -236 42 -269 11 -98 51 -158
126 -190 107 -44 251 13 299 119 24 54 23 115 -5 259 -12 64 -19 117 -14 117
12 0 60 -25 103 -55 55 -37 111 -41 197 -15 135 41 242 121 290 219 30 61 36
189 14 297 -37 180 -98 375 -130 418 -60 78 -164 111 -254 82z"/>
<path d="M2900 2314 c-95 -20 -169 -49 -315 -122 -168 -83 -260 -138 -288
-171 -20 -24 -28 -26 -102 -26 -102 0 -152 -23 -245 -114 -53 -51 -71 -76 -80
-111 -13 -50 -2 -105 32 -152 27 -38 96 -77 149 -84 l45 -6 18 -81 c10 -44 20
-85 22 -91 2 -6 -18 -19 -45 -29 -113 -40 -212 -144 -246 -259 -21 -73 -20
-212 4 -286 34 -112 124 -250 220 -340 97 -91 189 -139 401 -211 214 -73 356
-65 545 28 184 92 228 141 222 248 -2 50 -9 71 -32 105 -39 55 -103 88 -170
88 -44 0 -63 -7 -150 -60 -166 -99 -223 -101 -392 -20 -141 69 -257 205 -257
303 0 22 5 42 13 47 17 10 58 -4 86 -30 11 -10 55 -37 98 -59 63 -34 87 -41
133 -41 30 0 67 6 82 14 62 32 102 102 102 176 0 67 -25 113 -94 173 -42 36
-65 68 -96 130 -37 77 -80 217 -95 314 -6 41 -5 43 27 56 18 8 85 44 148 81
108 62 299 146 334 146 9 0 16 -6 16 -13 0 -46 -74 -232 -155 -392 -76 -148
-95 -195 -95 -228 1 -61 32 -121 81 -156 34 -26 52 -31 96 -31 59 0 114 23
149 62 55 60 187 288 229 392 35 89 71 231 86 342 42 298 -167 476 -481 408z"/>
</g>
</svg>
