<?xml version="1.0" standalone="no"?>
<!DOCTYPE svg PUBLIC "-//W3C//DTD SVG 20010904//EN"
 "http://www.w3.org/TR/2001/REC-SVG-20010904/DTD/svg10.dtd">
<svg version="1.0" xmlns="http://www.w3.org/2000/svg"
 width="600.000000pt" height="600.000000pt" viewBox="0 0 600.000000 600.000000"
 preserveAspectRatio="xMidYMid meet">
<metadata>
Created by potrace 1.15, written by Peter Selinger 2001-2017
</metadata>
<g transform="translate(0.000000,600.000000) scale(0.100000,-0.100000)"
fill="#16364b" stroke="none">
<path d="M1540 5763 c-20 -10 -42 -33 -52 -53 -61 -127 -85 -486 -41 -626 18
-57 32 -79 67 -112 101 -93 211 -72 324 62 122 144 292 437 292 504 0 72 -56
132 -124 132 -69 0 -95 -25 -154 -146 -56 -115 -151 -274 -164 -274 -20 0 0
167 39 336 15 68 15 73 -3 109 -37 74 -116 103 -184 68z"/>
<path d="M897 5500 c-206 -35 -363 -240 -344 -447 18 -186 190 -349 307 -290
36 18 70 74 70 116 0 43 -19 73 -79 126 -42 38 -43 40 -39 91 5 63 43 119 96
141 32 13 42 13 93 -2 67 -21 110 -11 153 34 79 82 14 204 -119 226 -76 12
-90 13 -138 5z"/>
<path d="M3322 5465 c-30 -22 -52 -67 -52 -107 0 -57 31 -92 144 -159 58 -35
106 -67 106 -71 0 -4 -9 -9 -20 -13 -27 -9 -60 -66 -60 -107 0 -58 74 -144
162 -189 97 -50 198 -29 254 53 26 37 29 50 29 117 0 64 -5 85 -30 136 -45 92
-147 186 -295 274 -137 81 -195 97 -238 66z"/>
<path d="M2995 5161 c-91 -23 -186 -110 -219 -201 -27 -75 -19 -174 17 -229
61 -92 195 -108 339 -39 96 46 110 68 116 191 5 104 -8 160 -51 212 -51 62
-122 85 -202 66z"/>
<path d="M2310 5133 c-21 -8 -60 -44 -73 -68 -6 -11 -14 -69 -17 -130 -10
-169 -41 -214 -197 -286 -45 -20 -88 -48 -97 -61 -54 -85 3 -200 99 -200 59 0
227 88 306 160 110 101 148 193 156 379 5 111 4 124 -15 155 -12 19 -33 40
-47 46 -27 12 -88 15 -115 5z"/>
<path d="M4755 4830 c-11 -4 -33 -22 -50 -39 -26 -28 -30 -41 -33 -101 -15
-252 115 -550 271 -620 181 -83 386 110 346 326 -30 162 -137 280 -362 398
-87 45 -129 54 -172 36z"/>
<path d="M2757 4169 c-99 -23 -165 -86 -187 -179 -15 -61 -2 -132 35 -190 50
-79 185 -140 310 -140 165 0 405 113 445 210 7 18 11 53 8 87 -4 50 -9 61 -41
88 -67 58 -349 137 -481 134 -28 -1 -68 -5 -89 -10z"/>
<path d="M1038 4058 c-97 -26 -140 -144 -86 -238 33 -59 58 -70 200 -91 72
-10 133 -21 136 -24 10 -9 -70 -84 -143 -134 -92 -64 -173 -104 -302 -151 -58
-21 -116 -49 -129 -61 -69 -65 -43 -198 46 -244 52 -27 107 -18 255 38 77 30
147 57 155 61 11 4 21 -7 38 -43 25 -56 71 -90 132 -98 55 -8 81 1 136 47 27
22 73 52 102 67 l53 26 64 -22 c83 -27 130 -27 185 2 136 68 115 242 -37 302
-33 13 -67 16 -157 13 -64 -1 -116 -1 -116 2 0 3 11 21 24 40 36 53 56 123 56
193 0 169 -164 285 -440 312 -36 3 -81 8 -100 10 -19 2 -52 -1 -72 -7z"/>
<path d="M4214 3780 c-155 -33 -289 -182 -301 -333 -7 -82 8 -128 60 -185 48
-51 91 -75 168 -92 220 -49 407 80 470 324 31 118 20 183 -38 224 -66 47 -268
82 -359 62z m46 -315 c-26 -28 -50 -33 -50 -10 0 15 31 33 59 34 10 1 7 -7 -9
-24z"/>
<path d="M5101 3425 c-137 -64 -250 -177 -286 -286 -49 -146 3 -301 120 -361
160 -82 407 37 472 227 23 68 14 178 -20 247 -37 74 -110 163 -151 182 -46 22
-72 20 -135 -9z"/>
<path d="M3413 3371 c-26 -12 -55 -38 -77 -68 -43 -58 -113 -197 -122 -239 -8
-42 18 -99 58 -124 28 -18 44 -21 106 -16 86 5 123 24 169 85 45 58 66 136 61
225 -4 80 -22 115 -75 141 -41 20 -69 19 -120 -4z"/>
<path d="M2330 2981 c-85 -18 -174 -84 -228 -168 -17 -27 -52 -100 -78 -163
-46 -113 -50 -117 -148 -215 -325 -325 -435 -494 -491 -760 -52 -243 -16 -470
100 -645 114 -172 345 -304 594 -340 103 -15 279 -8 379 15 338 78 584 298
688 612 29 90 76 290 104 447 69 380 -32 671 -285 819 -99 58 -156 109 -220
193 -114 152 -189 202 -312 209 -37 2 -84 1 -103 -4z m140 -482 c30 -40 61
-81 69 -93 37 -53 73 -81 173 -132 61 -32 113 -65 123 -80 49 -76 56 -278 15
-500 -41 -230 -87 -331 -200 -444 -115 -116 -275 -189 -412 -190 -126 0 -305
70 -391 154 -93 90 -117 209 -78 380 23 98 78 224 133 304 18 26 98 113 179
193 163 162 223 243 283 387 21 50 42 92 45 92 4 0 31 -32 61 -71z"/>
<path d="M862 2706 c-59 -32 -80 -122 -42 -183 11 -18 56 -56 103 -86 190
-123 277 -265 233 -382 -36 -92 -109 -119 -182 -67 -37 27 -53 48 -117 149
-35 55 -67 75 -118 75 -48 -1 -83 -21 -109 -65 -27 -44 -25 -98 6 -159 109
-215 302 -335 468 -293 160 41 288 179 319 346 16 88 -3 192 -55 299 -35 72
-56 100 -143 186 -162 161 -287 223 -363 180z"/>
<path d="M4147 2249 c-55 -29 -90 -88 -95 -161 -4 -56 -6 -59 -26 -53 -11 4
-42 10 -68 12 -91 9 -166 -57 -176 -155 -5 -55 61 -470 83 -519 7 -17 31 -44
51 -60 39 -29 74 -34 289 -35 99 -1 172 48 217 147 19 43 23 70 26 191 2 89
-2 194 -12 280 -9 77 -19 162 -22 190 -15 141 -151 224 -267 163z"/>
</g>
</svg>
