<?xml version="1.0" standalone="no"?>
<!DOCTYPE svg PUBLIC "-//W3C//DTD SVG 20010904//EN"
 "http://www.w3.org/TR/2001/REC-SVG-20010904/DTD/svg10.dtd">
<svg version="1.0" xmlns="http://www.w3.org/2000/svg"
 width="600.000000pt" height="600.000000pt" viewBox="0 0 600.000000 600.000000"
 preserveAspectRatio="xMidYMid meet">
<metadata>
Created by potrace 1.15, written by Peter Selinger 2001-2017
</metadata>
<g transform="translate(0.000000,600.000000) scale(0.100000,-0.100000)"
fill="#16364b" stroke="none">
<path d="M2115 5806 c-41 -19 -429 -405 -493 -491 -83 -112 -122 -196 -122
-267 0 -139 95 -215 234 -188 60 12 584 231 698 293 33 17 71 45 84 60 31 37
46 95 35 135 -31 106 -132 142 -244 86 -29 -15 -95 -47 -147 -71 l-95 -44 76
78 c165 169 182 194 181 259 -1 70 -36 120 -105 149 -44 18 -63 18 -102 1z"/>
<path d="M3023 5681 c-96 -45 -112 -163 -31 -238 12 -12 64 -36 113 -53 187
-66 324 -159 378 -257 35 -65 54 -189 38 -242 -6 -21 -27 -54 -48 -75 -34 -34
-66 -52 -205 -116 -60 -27 -88 -71 -88 -136 0 -58 26 -105 72 -134 56 -34 101
-26 243 40 156 74 259 163 308 268 28 60 32 78 35 179 7 201 -38 344 -144 462
-102 112 -252 207 -438 276 -125 46 -177 52 -233 26z"/>
<path d="M922 5346 c-121 -46 -203 -120 -257 -231 -55 -114 -67 -198 -44 -320
27 -148 157 -338 266 -390 93 -45 199 15 219 123 13 70 -14 116 -114 191 -18
13 -44 48 -58 78 -47 95 -18 161 94 213 37 18 82 39 100 48 71 34 99 127 60
201 -53 103 -145 133 -266 87z"/>
<path d="M2713 4950 c-75 -37 -145 -108 -181 -180 -23 -48 -27 -67 -27 -145 0
-78 4 -97 27 -140 67 -128 218 -212 390 -217 84 -2 123 19 150 79 47 106 -33
222 -154 223 -79 0 -123 33 -107 79 9 25 14 27 59 27 79 -1 140 57 147 141 12
139 -150 210 -304 133z"/>
<path d="M4762 4910 c-74 -46 -84 -96 -57 -320 24 -206 69 -317 155 -379 58
-42 103 -54 176 -48 75 6 132 36 188 98 121 134 121 304 1 438 -77 84 -326
231 -393 231 -20 0 -52 -9 -70 -20z"/>
<path d="M1899 4572 c-71 -24 -154 -79 -212 -141 -52 -55 -62 -82 -54 -147 9
-81 99 -146 179 -129 17 4 47 22 67 40 77 69 106 71 150 10 43 -60 80 -78 146
-73 59 5 95 28 124 79 43 75 18 157 -77 261 -98 105 -206 138 -323 100z"/>
<path d="M2885 3908 c-42 -15 -84 -56 -106 -103 -11 -25 -28 -120 -44 -250
-14 -115 -35 -265 -47 -332 l-21 -122 24 -48 c15 -29 37 -55 58 -67 46 -27
122 -26 158 0 65 49 71 68 128 449 20 132 43 254 52 271 23 44 13 126 -18 161
-45 49 -116 65 -184 41z"/>
<path d="M1185 3833 c-110 -27 -252 -75 -280 -94 -44 -30 -85 -109 -85 -163 1
-84 63 -168 135 -182 19 -3 55 -3 80 0 l45 7 -91 -152 c-215 -360 -339 -648
-339 -787 0 -82 42 -152 113 -189 37 -19 125 -20 159 -2 47 25 210 166 433
375 82 77 200 184 260 238 l110 98 3 -38 c8 -89 -31 -226 -190 -669 -49 -137
-116 -306 -150 -374 -51 -104 -59 -129 -55 -162 19 -142 220 -175 302 -50 41
61 108 222 196 468 44 125 105 292 135 371 77 206 104 325 104 458 0 200 -40
316 -125 369 -41 26 -58 30 -114 30 -104 -1 -192 -54 -391 -235 -52 -47 -101
-90 -108 -94 -17 -10 -12 0 65 132 72 122 149 286 162 342 44 192 -62 312
-272 309 -45 -1 -91 -4 -102 -6z"/>
<path d="M4234 3785 c-186 -40 -313 -173 -322 -336 -7 -120 37 -198 140 -248
187 -90 393 -19 530 182 41 61 100 181 112 230 9 38 -23 108 -63 136 -63 45
-271 64 -397 36z m71 -295 c-12 -19 -63 -41 -70 -29 -8 12 -8 12 20 27 25 14
58 15 50 2z"/>
<path d="M3513 3390 c-119 -28 -218 -152 -259 -323 -21 -91 -14 -135 29 -181
51 -54 149 -70 269 -45 74 16 120 41 161 89 90 105 78 322 -23 414 -54 48
-108 63 -177 46z"/>
<path d="M4874 2881 c-18 -11 -66 -59 -109 -107 -126 -145 -175 -246 -175
-361 0 -133 85 -217 220 -218 116 0 223 73 285 195 58 114 82 290 50 366 -14
34 -67 93 -115 126 -34 24 -116 24 -156 -1z"/>
<path d="M4127 2506 c-66 -24 -111 -61 -141 -116 -39 -71 -38 -142 2 -275 17
-55 29 -101 27 -103 -2 -2 -16 3 -32 11 -72 37 -173 60 -251 55 -91 -6 -142
-28 -195 -87 -106 -118 -120 -273 -52 -575 48 -213 71 -273 125 -327 112 -112
292 -99 366 27 39 66 41 120 9 263 -15 67 -25 124 -22 127 2 2 24 -12 48 -32
53 -44 97 -64 143 -64 54 0 160 37 220 78 140 95 181 225 140 443 -30 161
-105 453 -124 484 -25 40 -65 69 -124 89 -56 19 -88 20 -139 2z"/>
<path d="M2970 2250 c-77 -14 -176 -56 -397 -171 l-214 -111 -39 36 c-53 48
-93 67 -156 73 -99 10 -181 -39 -270 -161 -71 -98 -79 -184 -24 -274 23 -37
88 -71 136 -72 30 0 32 -3 38 -46 3 -26 6 -52 6 -59 0 -7 -29 -26 -64 -44
-159 -78 -229 -251 -212 -526 6 -113 21 -169 68 -258 64 -120 254 -282 414
-353 211 -93 437 -93 650 1 78 35 181 100 227 143 122 117 27 322 -149 322
-43 0 -60 -7 -127 -50 -136 -90 -225 -107 -362 -71 -163 42 -284 139 -340 274
-21 50 -17 146 7 160 24 16 84 -15 143 -74 64 -63 122 -92 189 -92 96 0 167
58 182 149 10 65 -11 118 -75 189 -66 73 -105 147 -132 254 -25 98 -25 121 2
121 11 0 111 47 222 104 111 57 219 111 241 120 l39 16 -7 -38 c-12 -79 -99
-322 -158 -442 -73 -150 -83 -203 -48 -275 63 -130 233 -139 311 -17 93 146
239 515 284 717 44 196 -25 372 -172 437 -49 22 -149 30 -213 18z"/>
</g>
</svg>
