<?xml version="1.0" standalone="no"?>
<!DOCTYPE svg PUBLIC "-//W3C//DTD SVG 20010904//EN"
 "http://www.w3.org/TR/2001/REC-SVG-20010904/DTD/svg10.dtd">
<svg version="1.0" xmlns="http://www.w3.org/2000/svg"
 width="600.000000pt" height="600.000000pt" viewBox="0 0 600.000000 600.000000"
 preserveAspectRatio="xMidYMid meet">
<metadata>
Created by potrace 1.15, written by Peter Selinger 2001-2017
</metadata>
<g transform="translate(0.000000,600.000000) scale(0.100000,-0.100000)"
fill="#16364b" stroke="none">
<path d="M1544 5761 c-33 -14 -298 -302 -326 -354 -37 -69 -24 -131 34 -167
64 -39 101 -29 403 112 105 48 198 97 208 109 26 32 22 94 -7 124 -38 38 -85
41 -150 12 -31 -14 -56 -23 -56 -21 0 3 9 17 20 31 60 77 -35 193 -126 154z"/>
<path d="M2393 5443 c-12 -2 -34 -18 -48 -34 -23 -29 -25 -37 -25 -142 0 -147
-16 -313 -39 -407 -42 -169 -106 -258 -227 -316 -84 -40 -114 -72 -114 -121 0
-45 14 -69 50 -88 45 -23 71 -19 170 31 247 124 345 350 365 844 6 157 2 178
-45 211 -30 21 -57 28 -87 22z"/>
<path d="M3517 5320 c-56 -45 -59 -130 -8 -234 101 -203 302 -285 366 -149 16
32 16 43 6 82 -30 112 -158 267 -247 301 -68 25 -85 25 -117 0z"/>
<path d="M3008 5136 c-125 -34 -220 -156 -221 -285 0 -79 29 -132 88 -161 42
-20 52 -21 101 -11 76 15 173 68 202 110 55 83 68 231 25 289 -43 58 -117 80
-195 58z"/>
<path d="M4724 4739 c-29 -30 -29 -31 -27 -142 2 -143 24 -251 72 -352 65
-136 149 -201 248 -193 77 7 129 46 171 129 29 57 33 74 33 143 0 148 -58 226
-279 376 -88 60 -109 70 -146 70 -34 0 -48 -6 -72 -31z"/>
<path d="M2748 4239 c-111 -16 -183 -62 -223 -142 -80 -161 49 -347 241 -347
108 0 227 54 338 153 98 87 120 171 65 241 -28 35 -58 49 -159 74 -106 25
-188 32 -262 21z"/>
<path d="M1084 4120 c-31 -12 -72 -66 -80 -105 -3 -18 -1 -49 5 -68 19 -55 50
-77 145 -97 47 -11 98 -26 113 -34 l28 -15 -55 -24 c-71 -31 -145 -47 -223
-47 -125 0 -192 -91 -139 -189 29 -55 71 -71 182 -71 211 0 409 82 478 198 23
41 27 58 27 127 0 92 -19 137 -81 197 -51 50 -114 82 -218 112 -90 27 -145 31
-182 16z"/>
<path d="M4300 3778 c-151 -16 -266 -94 -326 -222 -32 -69 -33 -173 -3 -231
49 -94 143 -154 251 -162 118 -9 221 50 295 170 48 77 69 131 88 232 17 88 10
127 -28 163 -45 42 -158 63 -277 50z m-10 -286 c0 -9 -25 -33 -47 -46 -21 -12
-24 13 -3 34 20 20 50 27 50 12z"/>
<path d="M1641 3688 c-54 -29 -66 -61 -66 -177 0 -104 1 -111 35 -177 28 -54
46 -76 85 -102 45 -31 56 -34 107 -30 182 13 222 254 68 408 -68 68 -178 105
-229 78z"/>
<path d="M5177 3679 c-76 -26 -122 -56 -173 -111 -69 -75 -88 -126 -88 -243
-1 -84 3 -107 22 -146 31 -63 86 -117 151 -147 45 -21 64 -24 121 -20 125 9
217 74 276 194 34 67 37 82 38 162 1 79 -2 93 -31 152 -20 42 -54 86 -92 123
-58 55 -62 57 -113 57 -29 -1 -79 -10 -111 -21z m60 -322 c-16 -24 -47 -35
-47 -18 0 6 9 20 20 31 27 27 47 16 27 -13z"/>
<path d="M3444 3386 c-46 -20 -108 -100 -165 -211 -41 -81 -50 -106 -45 -134
6 -41 38 -77 81 -91 46 -15 135 19 190 75 50 50 103 152 111 216 16 116 -71
189 -172 145z"/>
<path d="M2520 3114 c-19 -3 -97 -11 -173 -20 -182 -20 -282 -50 -462 -141
-82 -42 -180 -88 -217 -103 -326 -133 -538 -438 -538 -771 0 -122 21 -206 75
-304 46 -84 97 -138 251 -271 73 -63 182 -166 242 -230 125 -132 189 -183 287
-230 181 -87 419 -81 663 16 42 17 95 42 117 54 22 13 80 44 128 70 299 157
473 279 635 445 161 166 249 290 287 410 23 72 17 211 -15 301 -58 166 -154
311 -279 421 -122 107 -412 269 -581 325 -75 24 -102 28 -235 30 -82 1 -166 0
-185 -2z m315 -427 c17 -9 88 -43 158 -76 148 -69 233 -127 334 -227 110 -107
137 -188 92 -276 -26 -51 -176 -208 -294 -306 -91 -76 -289 -211 -400 -272
-33 -18 -73 -43 -90 -55 -106 -78 -233 -125 -334 -125 -121 0 -202 45 -303
169 -74 90 -221 236 -336 334 -127 107 -165 191 -142 310 15 78 50 143 109
202 53 54 99 83 196 123 39 16 131 56 205 89 260 116 339 133 595 130 146 -2
186 -6 210 -20z"/>
<path d="M423 2250 c-32 -13 -57 -58 -56 -99 2 -49 63 -231 107 -319 43 -89
106 -172 182 -241 74 -67 124 -93 199 -98 51 -4 65 -2 94 19 84 57 101 187 41
313 -43 91 -178 227 -305 309 -49 32 -110 72 -134 88 -48 33 -94 43 -128 28z
m349 -474 l22 -31 -28 25 c-15 14 -33 34 -39 45 -9 18 -9 19 7 6 9 -8 27 -28
38 -45z"/>
<path d="M4626 1790 c-16 -5 -39 -19 -52 -31 -23 -21 -24 -21 -60 -4 -89 42
-194 -28 -194 -131 0 -48 32 -229 56 -311 22 -79 57 -137 98 -162 35 -22 98
-28 138 -12 39 15 85 69 107 129 28 71 81 337 81 401 0 57 -26 96 -76 117 -37
16 -56 16 -98 4z"/>
</g>
</svg>
