<?xml version="1.0" standalone="no"?>
<!DOCTYPE svg PUBLIC "-//W3C//DTD SVG 20010904//EN"
 "http://www.w3.org/TR/2001/REC-SVG-20010904/DTD/svg10.dtd">
<svg version="1.0" xmlns="http://www.w3.org/2000/svg"
 width="600.000000pt" height="600.000000pt" viewBox="0 0 600.000000 600.000000"
 preserveAspectRatio="xMidYMid meet">
<metadata>
Created by potrace 1.15, written by Peter Selinger 2001-2017
</metadata>
<g transform="translate(0.000000,600.000000) scale(0.100000,-0.100000)"
fill="#16364b" stroke="none">
<path d="M1810 5798 c-76 -21 -92 -44 -169 -236 -140 -354 -164 -535 -85 -640
37 -48 77 -65 145 -60 99 7 175 54 314 193 138 137 304 318 322 349 62 107
-87 243 -213 196 -15 -6 -70 -52 -121 -103 -105 -102 -104 -105 -34 62 17 41
31 90 31 110 0 91 -95 155 -190 129z"/>
<path d="M2990 5702 c-49 -24 -80 -75 -80 -129 0 -61 21 -96 88 -145 259 -193
492 -400 556 -495 30 -45 57 -113 49 -125 -2 -5 -25 -8 -50 -8 -93 0 -155 -58
-155 -145 0 -93 60 -145 168 -145 144 0 270 74 318 187 15 33 18 60 14 130 -3
76 -9 98 -41 164 -69 143 -232 342 -399 484 -94 81 -260 200 -325 234 -32 16
-103 13 -143 -7z"/>
<path d="M925 5430 c-101 -16 -166 -49 -236 -119 -148 -149 -181 -351 -83
-519 37 -64 140 -164 198 -192 104 -50 216 15 216 125 0 49 -22 83 -80 128
-25 19 -51 46 -59 60 -18 34 -9 111 15 139 28 31 93 58 142 58 116 0 194 96
163 200 -14 47 -44 86 -82 105 -36 19 -128 26 -194 15z"/>
<path d="M2938 5170 c-106 -32 -198 -161 -198 -278 0 -103 59 -191 153 -227
65 -25 232 -18 299 12 67 30 82 65 75 168 -17 235 -160 376 -329 325z"/>
<path d="M4750 4868 c-57 -39 -74 -71 -78 -148 -9 -161 35 -372 100 -473 86
-134 248 -182 379 -110 247 134 173 496 -137 679 -134 79 -204 92 -264 52z"/>
<path d="M2030 4836 c-158 -39 -210 -83 -210 -178 0 -57 29 -102 81 -129 43
-21 79 -22 190 -3 32 5 37 3 42 -18 4 -12 7 -40 7 -61 0 -97 91 -168 186 -147
52 12 85 39 112 91 47 89 12 263 -73 357 -78 86 -205 119 -335 88z"/>
<path d="M1205 4084 c-82 -12 -178 -35 -204 -48 -70 -37 -119 -131 -106 -205
16 -91 92 -150 193 -151 l53 0 -59 -77 c-87 -115 -359 -497 -410 -576 -24 -38
-65 -112 -90 -165 -59 -124 -63 -187 -16 -254 75 -108 199 -127 292 -44 20 17
85 63 145 100 59 37 165 111 235 162 268 200 405 295 420 292 61 -12 17 -223
-102 -487 -108 -238 -224 -433 -348 -585 -92 -114 -98 -125 -98 -179 0 -127
121 -201 221 -133 43 29 155 161 231 271 177 255 383 691 418 884 6 33 18 77
26 98 23 54 15 294 -11 377 -21 64 -79 137 -129 163 -43 22 -132 20 -189 -5
-54 -24 -146 -85 -239 -159 -37 -29 -69 -53 -73 -53 -3 0 39 67 94 148 164
246 197 332 167 435 -22 76 -67 131 -133 163 -47 24 -69 28 -157 30 -55 1
-114 0 -131 -2z"/>
<path d="M2870 4081 c-166 -38 -244 -187 -171 -330 38 -74 126 -127 261 -157
151 -33 556 -13 624 31 75 50 87 174 23 244 -43 46 -268 147 -427 191 -81 23
-252 34 -310 21z"/>
<path d="M4200 3777 c-119 -34 -217 -113 -267 -215 -71 -145 -8 -307 147 -381
47 -22 69 -26 145 -26 79 0 97 4 148 28 112 55 199 173 246 333 39 133 20 197
-73 243 -42 21 -65 25 -175 28 -82 2 -142 -2 -171 -10z m60 -296 c0 -12 -40
-41 -57 -41 -22 0 -14 19 15 34 32 18 42 19 42 7z"/>
<path d="M3378 3388 c-51 -32 -72 -62 -128 -182 -60 -129 -68 -163 -46 -219
26 -67 65 -87 172 -89 100 -2 128 8 180 64 56 58 77 114 82 210 4 74 1 93 -17
131 -45 93 -164 134 -243 85z"/>
<path d="M4974 3138 c-27 -18 -83 -66 -125 -108 -97 -97 -142 -183 -147 -281
-5 -83 10 -130 57 -182 101 -112 283 -103 410 22 66 64 104 137 121 231 21
113 -5 201 -81 281 -55 59 -76 69 -137 69 -38 0 -59 -7 -98 -32z"/>
<path d="M3881 2639 c-71 -28 -124 -98 -141 -188 -11 -59 1 -128 49 -279 25
-79 27 -92 13 -87 -37 14 -128 35 -152 35 -99 0 -199 -71 -248 -178 -23 -49
-26 -70 -26 -142 1 -51 10 -116 22 -162 29 -106 148 -422 177 -469 65 -102
207 -149 304 -100 85 44 129 129 117 229 l-6 52 27 -7 c131 -37 316 60 374
194 50 118 35 230 -75 541 -40 114 -89 260 -110 324 -41 133 -78 189 -145 225
-47 25 -134 31 -180 12z"/>
<path d="M2008 2277 c-64 -24 -122 -64 -171 -116 -52 -56 -146 -196 -170 -253
-9 -21 -25 -48 -37 -60 -29 -31 -102 -157 -145 -251 -63 -137 -79 -212 -78
-382 1 -280 56 -445 196 -586 221 -221 493 -340 752 -326 117 6 213 34 348
104 120 62 195 119 256 195 28 35 64 77 79 94 88 93 238 471 309 774 9 41 17
114 17 161 0 77 -3 93 -32 152 -61 123 -170 190 -312 191 -126 0 -247 -41
-428 -146 -48 -27 -91 -50 -96 -51 -4 -1 -19 36 -31 83 -61 223 -128 336 -235
394 -63 34 -163 45 -222 23z m92 -652 c15 -195 33 -233 138 -298 68 -42 128
-54 188 -38 22 6 145 74 273 151 220 131 267 157 276 148 6 -6 -32 -189 -53
-253 -49 -149 -161 -393 -187 -408 -8 -4 -34 -38 -59 -75 -76 -113 -185 -172
-332 -180 -75 -4 -105 -1 -161 17 -83 24 -201 99 -260 163 -86 94 -113 183
-113 367 0 149 28 256 100 382 28 48 50 91 50 96 0 6 9 18 20 28 11 10 34 41
52 68 l32 51 14 -45 c7 -24 17 -102 22 -174z"/>
</g>
</svg>
