<?xml version="1.0" standalone="no"?>
<!DOCTYPE svg PUBLIC "-//W3C//DTD SVG 20010904//EN"
 "http://www.w3.org/TR/2001/REC-SVG-20010904/DTD/svg10.dtd">
<svg version="1.0" xmlns="http://www.w3.org/2000/svg"
 width="600.000000pt" height="600.000000pt" viewBox="0 0 600.000000 600.000000"
 preserveAspectRatio="xMidYMid meet">
<metadata>
Created by potrace 1.15, written by Peter Selinger 2001-2017
</metadata>
<g transform="translate(0.000000,600.000000) scale(0.100000,-0.100000)"
fill="#16364b" stroke="none">
<path d="M2009 5807 c-19 -12 -71 -76 -116 -142 -45 -65 -124 -172 -175 -237
-187 -240 -218 -284 -234 -331 -21 -62 -12 -107 29 -154 62 -70 159 -91 268
-56 69 22 592 283 647 323 57 41 75 80 70 147 -5 60 -26 96 -78 131 -53 36
-94 30 -191 -30 -46 -28 -104 -63 -129 -77 -42 -23 -44 -24 -30 -4 150 210
179 269 166 334 -20 101 -143 153 -227 96z"/>
<path d="M3032 5673 c-71 -35 -105 -117 -77 -189 19 -49 40 -66 127 -95 67
-23 174 -75 223 -108 56 -38 142 -132 169 -184 32 -64 56 -154 56 -211 0 -72
-47 -114 -170 -149 -103 -30 -146 -114 -104 -203 21 -44 55 -71 108 -85 85
-23 275 45 373 134 117 108 151 256 99 438 -88 307 -279 501 -628 635 -98 38
-128 41 -176 17z"/>
<path d="M915 5361 c-139 -51 -235 -132 -292 -249 -37 -73 -38 -80 -38 -181 0
-90 4 -114 24 -161 75 -170 238 -330 336 -330 78 0 155 82 155 165 0 56 -23
97 -81 145 -92 76 -119 118 -119 185 0 74 57 129 161 155 30 8 59 24 80 46 31
32 34 40 34 99 0 61 -2 67 -37 102 -35 35 -42 37 -105 40 -47 2 -84 -3 -118
-16z"/>
<path d="M2847 5019 c-91 -21 -198 -122 -249 -234 -30 -67 -31 -162 -1 -225
58 -126 212 -196 375 -172 108 16 162 65 160 147 -1 74 -52 134 -115 135 -21
1 -20 3 9 28 112 97 71 272 -75 321 -39 13 -51 13 -104 0z"/>
<path d="M4785 4891 c-22 -10 -56 -35 -75 -55 -34 -36 -35 -39 -38 -132 -13
-332 209 -592 442 -519 74 24 128 72 167 150 28 58 31 71 27 137 -4 89 -30
147 -101 224 -60 66 -145 128 -243 178 -80 41 -120 44 -179 17z"/>
<path d="M1942 4630 c-95 -14 -214 -86 -248 -151 -20 -40 -18 -108 6 -147 45
-74 150 -96 222 -47 49 33 82 45 98 35 7 -4 24 -29 39 -56 50 -93 145 -122
224 -69 75 52 90 134 42 229 -75 148 -224 228 -383 206z"/>
<path d="M3017 3960 c-147 -37 -268 -167 -297 -321 -20 -103 -7 -228 30 -299
64 -123 226 -212 326 -180 151 49 152 231 1 294 -46 19 -61 53 -47 105 16 60
42 77 110 73 55 -4 60 -2 98 32 50 46 66 83 60 145 -9 91 -72 143 -188 155
-30 2 -72 1 -93 -4z"/>
<path d="M1087 3880 c-147 -30 -187 -49 -226 -106 -33 -47 -39 -129 -13 -186
35 -79 127 -127 219 -113 l44 6 -90 -120 c-116 -156 -187 -275 -266 -449 -85
-185 -135 -332 -135 -391 0 -99 80 -189 177 -198 63 -6 103 11 173 74 140 127
280 252 334 298 88 75 410 325 419 325 4 0 7 -15 7 -32 -1 -153 -258 -808
-413 -1052 -47 -74 -57 -98 -57 -133 0 -79 43 -129 128 -152 62 -17 117 0 169
55 75 78 293 559 384 845 102 324 134 621 81 743 -38 84 -133 128 -233 107
-71 -15 -128 -48 -299 -176 -78 -59 -143 -105 -145 -103 -2 2 35 55 82 118 46
63 103 153 126 199 40 81 42 88 42 180 0 114 -17 155 -91 220 -89 78 -190 88
-417 41z"/>
<path d="M4203 3785 c-190 -51 -314 -217 -284 -379 39 -212 235 -322 436 -246
81 31 188 137 237 235 98 196 100 288 7 357 -55 41 -292 61 -396 33z m87 -313
c0 -8 -52 -42 -64 -42 -16 0 -3 32 17 40 28 11 47 12 47 2z"/>
<path d="M3468 3400 c-79 -24 -138 -106 -198 -275 -43 -122 -39 -180 14 -233
36 -37 37 -37 131 -40 118 -5 180 14 243 72 66 60 92 123 92 219 0 63 -5 89
-26 132 -49 105 -154 156 -256 125z"/>
<path d="M4943 2947 c-44 -24 -192 -168 -242 -234 -117 -156 -125 -317 -19
-407 78 -67 180 -72 295 -16 89 44 165 120 206 207 27 57 32 82 35 155 5 117
-12 167 -81 234 -28 28 -62 56 -74 63 -28 15 -92 14 -120 -2z"/>
<path d="M4066 2526 c-56 -21 -87 -46 -118 -97 -45 -72 -46 -116 -3 -268 20
-73 35 -135 32 -137 -3 -3 -24 4 -46 16 -106 54 -246 63 -327 22 -23 -12 -62
-44 -87 -72 -101 -113 -103 -226 -8 -565 34 -121 69 -238 77 -261 30 -84 117
-143 212 -144 91 0 158 40 193 115 25 54 24 113 -6 220 -34 123 -33 139 5 93
39 -47 103 -72 169 -66 69 7 186 65 253 127 104 95 135 201 104 347 -30 137
-165 540 -197 583 -57 79 -169 118 -253 87z"/>
<path d="M2964 2160 c-118 -16 -278 -80 -476 -190 -58 -33 -109 -60 -112 -60
-2 0 -12 24 -20 54 -54 184 -243 243 -390 123 -45 -38 -137 -163 -161 -221
-20 -48 -18 -123 4 -171 32 -70 86 -105 162 -105 59 0 51 -28 -20 -68 -116
-67 -214 -184 -247 -297 -14 -45 -18 -93 -17 -195 1 -161 21 -251 85 -380 56
-112 197 -257 303 -311 122 -63 310 -101 505 -103 145 -1 216 18 319 84 83 54
206 177 231 231 25 55 25 122 1 174 -22 48 -44 69 -94 90 -82 34 -146 14 -245
-75 -120 -109 -201 -134 -343 -106 -99 20 -167 51 -245 111 -71 56 -108 110
-136 199 -23 77 -21 160 7 202 24 38 47 30 82 -29 46 -77 128 -155 176 -168
108 -29 222 45 248 161 13 58 -7 122 -58 181 -45 53 -73 106 -87 164 -4 17 -9
37 -12 46 -3 13 5 18 33 24 21 4 99 36 173 72 240 115 331 155 338 148 10 -9
-32 -163 -74 -268 -20 -51 -65 -142 -100 -203 -57 -99 -64 -117 -64 -165 0
-183 244 -268 365 -127 45 53 166 297 204 413 81 245 101 479 51 593 -56 128
-209 196 -386 172z"/>
</g>
</svg>
