<?xml version="1.0" standalone="no"?>
<!DOCTYPE svg PUBLIC "-//W3C//DTD SVG 20010904//EN"
 "http://www.w3.org/TR/2001/REC-SVG-20010904/DTD/svg10.dtd">
<svg version="1.0" xmlns="http://www.w3.org/2000/svg"
 width="600.000000pt" height="600.000000pt" viewBox="0 0 600.000000 600.000000"
 preserveAspectRatio="xMidYMid meet">
<metadata>
Created by potrace 1.15, written by Peter Selinger 2001-2017
</metadata>
<g transform="translate(0.000000,600.000000) scale(0.100000,-0.100000)"
fill="#16364b" stroke="none">
<path d="M1345 5684 c-110 -52 -218 -107 -240 -122 -70 -49 -70 -135 1 -162
37 -15 184 -11 402 8 214 20 227 25 239 95 5 31 1 40 -25 67 -23 22 -40 30
-67 30 l-37 0 26 31 c35 41 35 88 0 123 -44 43 -76 35 -299 -70z"/>
<path d="M2370 5402 c-25 -26 -28 -37 -34 -118 -36 -550 -77 -662 -279 -758
-42 -19 -83 -46 -91 -58 -34 -48 -11 -108 48 -128 30 -10 44 -8 103 16 178 71
296 198 347 376 26 89 46 259 53 455 l6 182 -31 30 c-40 41 -83 42 -122 3z"/>
<path d="M3518 5313 c-25 -28 -38 -60 -38 -88 0 -65 125 -246 204 -294 44 -28
114 -28 149 -1 36 29 51 79 38 128 -14 51 -78 149 -131 200 -68 65 -187 94
-222 55z"/>
<path d="M3005 5129 c-52 -15 -111 -75 -149 -151 -30 -59 -36 -81 -36 -135 0
-77 21 -127 64 -155 63 -39 188 -1 276 85 44 43 73 129 68 204 -5 75 -26 109
-88 141 -46 23 -84 26 -135 11z m30 -222 c-7 -25 -35 -46 -35 -26 0 13 32 61
37 55 2 -2 1 -15 -2 -29z"/>
<path d="M4760 4742 c-37 -38 -44 -86 -37 -276 5 -167 23 -245 75 -327 77
-120 197 -138 283 -41 53 60 73 132 66 229 -9 120 -73 238 -201 371 -66 68
-72 72 -113 72 -36 0 -50 -6 -73 -28z"/>
<path d="M2693 4219 c-118 -23 -197 -102 -195 -195 1 -105 105 -195 265 -228
105 -22 206 -3 298 57 124 80 163 158 123 243 -21 44 -61 67 -164 92 -155 39
-246 48 -327 31z"/>
<path d="M1112 4133 c-57 -28 -81 -111 -46 -161 9 -13 14 -24 13 -25 -2 -2
-21 -10 -42 -20 -26 -12 -43 -28 -53 -52 -34 -81 -6 -130 105 -184 184 -89
328 -72 399 47 34 60 36 145 5 207 -42 80 -143 154 -262 189 -67 20 -78 20
-119 -1z"/>
<path d="M5215 3826 c-144 -46 -228 -147 -242 -291 -12 -131 40 -251 139 -319
49 -33 66 -39 125 -43 202 -15 376 124 399 318 13 113 -44 213 -172 298 -73
49 -78 51 -142 50 -37 0 -85 -6 -107 -13z m102 -293 c7 -18 -33 -57 -48 -47
-13 8 -11 52 4 57 23 10 38 7 44 -10z"/>
<path d="M4177 3751 c-98 -32 -174 -102 -223 -206 -31 -64 -33 -170 -5 -232
46 -101 153 -163 281 -163 143 0 242 65 310 204 35 69 43 96 50 176 9 89 8 98
-13 140 -20 39 -31 48 -83 69 -83 34 -234 39 -317 12z m107 -273 c-16 -29 -38
-48 -56 -48 -26 0 -22 15 8 39 30 23 59 28 48 9z"/>
<path d="M3464 3383 c-37 -7 -82 -66 -140 -183 -67 -137 -73 -179 -31 -216 51
-44 118 -24 190 56 72 80 115 223 87 290 -12 28 -57 62 -77 59 -4 -1 -17 -4
-29 -6z"/>
<path d="M1650 3120 c-150 -20 -369 -83 -473 -137 -181 -95 -289 -334 -248
-549 25 -130 97 -249 200 -331 31 -24 112 -72 180 -106 202 -100 246 -152 372
-437 97 -219 168 -316 296 -404 80 -54 154 -82 259 -97 96 -15 217 -2 434 46
155 34 163 34 387 34 337 0 517 31 742 126 206 87 308 155 507 340 219 203
331 454 322 720 -3 101 -6 116 -36 177 -52 107 -254 287 -390 350 -152 69
-297 59 -458 -34 -117 -67 -158 -83 -283 -103 -82 -14 -111 -15 -141 -6 -22 6
-67 9 -111 5 -181 -15 -372 47 -729 235 -230 122 -609 200 -830 171z m275
-395 c126 -27 288 -87 445 -165 222 -111 480 -200 650 -225 25 -4 64 -15 87
-26 51 -23 73 -23 224 -4 314 39 413 66 580 162 42 24 88 43 103 43 36 0 117
-54 185 -124 l54 -54 -5 -69 c-11 -142 -82 -261 -242 -404 -185 -166 -292
-227 -484 -274 -165 -40 -406 -71 -632 -81 -91 -4 -168 -14 -235 -31 -137 -33
-331 -42 -402 -19 -99 33 -165 116 -229 286 -110 298 -259 458 -570 613 -100
50 -140 88 -150 144 -10 52 21 120 71 155 34 24 161 64 255 81 58 10 230 6
295 -8z"/>
<path d="M440 2163 c-46 -17 -64 -89 -36 -141 8 -15 33 -67 55 -115 111 -244
271 -354 418 -287 53 24 83 70 83 128 0 110 -79 192 -337 348 -103 63 -150 80
-183 67z"/>
<path d="M4982 1455 c-18 -8 -35 -21 -38 -30 -4 -10 -20 -15 -49 -15 -113 0
-142 -113 -75 -292 26 -71 64 -112 117 -128 37 -11 46 -10 85 9 71 34 100 101
117 271 8 73 7 100 -4 126 -24 59 -94 86 -153 59z"/>
</g>
</svg>
