<?xml version="1.0" standalone="no"?>
<!DOCTYPE svg PUBLIC "-//W3C//DTD SVG 20010904//EN"
 "http://www.w3.org/TR/2001/REC-SVG-20010904/DTD/svg10.dtd">
<svg version="1.0" xmlns="http://www.w3.org/2000/svg"
 width="600.000000pt" height="600.000000pt" viewBox="0 0 600.000000 600.000000"
 preserveAspectRatio="xMidYMid meet">
<metadata>
Created by potrace 1.15, written by Peter Selinger 2001-2017
</metadata>
<g transform="translate(0.000000,600.000000) scale(0.100000,-0.100000)"
fill="#16364b" stroke="none">
<path d="M1625 5776 c-59 -27 -75 -56 -101 -182 -67 -331 -52 -574 42 -668
125 -124 284 -45 464 230 80 123 200 354 200 387 0 11 -9 40 -20 63 -24 48
-67 74 -125 74 -70 0 -98 -28 -171 -172 -37 -73 -83 -157 -103 -187 l-36 -56
-3 36 c-2 20 7 92 19 160 32 188 34 218 10 256 -39 61 -116 87 -176 59z"/>
<path d="M3162 5560 c-18 -11 -41 -34 -52 -52 -44 -73 -16 -126 113 -208 190
-121 311 -223 348 -291 9 -17 6 -19 -35 -19 -116 0 -162 -144 -73 -226 83 -76
250 -103 335 -54 139 79 124 263 -39 480 -75 99 -156 173 -284 260 -201 135
-246 151 -313 110z"/>
<path d="M861 5470 c-141 -51 -262 -184 -301 -330 -18 -68 -14 -178 8 -237 64
-170 226 -277 321 -211 44 30 71 82 71 136 0 56 -11 76 -76 137 -44 41 -54 57
-54 83 0 49 23 95 66 130 38 32 41 32 129 30 79 -3 94 0 121 19 91 65 60 209
-53 247 -63 22 -165 20 -232 -4z"/>
<path d="M2947 5185 c-87 -30 -175 -150 -197 -267 -30 -155 83 -271 248 -255
92 8 188 45 222 84 28 32 30 39 30 120 0 159 -45 258 -139 306 -60 30 -106 33
-164 12z"/>
<path d="M2275 4896 c-34 -15 -85 -70 -85 -91 0 -9 -33 -24 -86 -40 -173 -53
-226 -88 -240 -160 -9 -52 25 -119 75 -144 63 -33 68 -32 321 66 134 51 200
129 200 235 0 112 -89 176 -185 134z"/>
<path d="M4791 4833 c-13 -3 -43 -24 -67 -49 -48 -48 -51 -62 -45 -219 7 -204
105 -390 233 -445 77 -33 166 -26 236 18 92 60 151 182 138 289 -13 114 -93
216 -249 318 -135 88 -173 101 -246 88z"/>
<path d="M2872 4140 c-246 -34 -349 -244 -200 -406 57 -62 122 -87 242 -92
142 -6 374 36 482 88 78 38 106 135 61 215 -19 34 -38 48 -135 96 -170 86
-313 117 -450 99z"/>
<path d="M1090 4070 c-74 -10 -99 -22 -138 -61 -62 -63 -66 -151 -9 -216 44
-50 81 -63 189 -64 51 -1 104 -4 117 -8 24 -6 24 -7 -21 -61 -53 -65 -341
-337 -485 -457 -76 -64 -106 -95 -118 -126 -22 -54 -13 -113 24 -164 36 -49
84 -73 149 -73 40 0 60 7 101 34 l50 34 16 -24 c21 -32 72 -57 118 -57 32 0
40 -4 48 -26 15 -38 38 -60 90 -86 89 -46 139 -125 139 -223 0 -134 -145 -356
-257 -393 -31 -10 -38 -9 -66 12 -40 29 -113 37 -155 15 -47 -24 -72 -66 -72
-123 0 -59 21 -93 85 -138 182 -130 394 -64 578 178 103 135 170 285 183 408
18 178 -84 372 -252 480 -35 23 -62 45 -59 49 7 12 205 106 273 131 l63 22 38
-21 c78 -44 170 -23 225 51 18 25 21 42 20 131 0 89 -3 107 -22 134 -43 59
-153 78 -216 37 -18 -12 -212 -75 -231 -75 -3 0 18 30 46 68 85 110 104 160
104 272 0 111 -18 162 -84 233 -88 95 -264 135 -471 107z"/>
<path d="M4226 3780 c-77 -14 -169 -64 -220 -121 -94 -105 -111 -236 -46 -358
87 -163 251 -215 410 -130 72 38 147 111 183 178 31 57 77 210 77 258 0 45
-26 99 -59 122 -56 40 -249 68 -345 51z m42 -322 c-6 -18 -55 -44 -65 -34 -10
9 33 46 54 46 8 0 13 -6 11 -12z"/>
<path d="M3385 3376 c-45 -20 -117 -105 -164 -195 -63 -122 -54 -188 32 -245
35 -22 52 -26 117 -26 51 0 88 6 115 19 48 21 101 79 126 137 25 56 35 152 20
197 -31 94 -157 152 -246 113z"/>
<path d="M5020 3274 c-201 -101 -313 -294 -265 -459 39 -136 122 -208 241
-209 123 0 248 92 319 237 32 65 39 91 43 156 6 102 -13 160 -73 223 -93 100
-148 110 -265 52z"/>
<path d="M2173 2596 c-80 -26 -136 -73 -228 -191 -22 -27 -80 -93 -131 -145
-50 -52 -95 -106 -99 -120 -4 -14 -27 -46 -50 -73 -57 -65 -117 -169 -169
-290 -78 -185 -108 -312 -107 -462 0 -209 71 -366 237 -525 186 -179 368 -267
571 -278 256 -13 521 67 671 203 182 165 343 481 413 810 19 89 23 141 24 275
0 147 -3 172 -23 231 -28 81 -83 162 -137 200 -22 16 -69 36 -105 45 -57 15
-81 15 -195 5 -71 -6 -147 -14 -167 -17 -28 -5 -38 -3 -38 6 0 8 -19 52 -41
99 -48 98 -118 175 -193 210 -62 29 -173 37 -233 17z m131 -495 c28 -67 50
-103 89 -144 103 -108 126 -113 339 -81 89 14 167 23 174 20 48 -18 9 -286
-73 -506 -95 -254 -210 -397 -372 -462 -49 -20 -74 -23 -197 -23 l-140 0 -75
37 c-140 70 -221 150 -256 256 -48 139 46 449 187 618 27 32 61 82 76 109 15
28 46 71 69 97 23 26 62 76 86 111 24 36 47 63 50 61 3 -2 23 -44 43 -93z"/>
<path d="M4038 2407 c-51 -24 -98 -79 -114 -133 -12 -42 -13 -65 -4 -119 6
-37 9 -70 6 -72 -3 -3 -19 0 -37 6 -105 36 -236 -23 -275 -124 -28 -74 -16
-170 49 -390 31 -104 61 -208 67 -231 24 -99 103 -159 196 -151 66 7 123 36
166 87 33 37 38 40 89 40 94 1 187 58 231 144 47 92 42 199 -23 427 -21 76
-50 196 -65 266 -29 145 -50 191 -107 230 -45 31 -134 41 -179 20z"/>
</g>
</svg>
