<?xml version="1.0" standalone="no"?>
<!DOCTYPE svg PUBLIC "-//W3C//DTD SVG 20010904//EN"
 "http://www.w3.org/TR/2001/REC-SVG-20010904/DTD/svg10.dtd">
<svg version="1.0" xmlns="http://www.w3.org/2000/svg"
 width="600.000000pt" height="600.000000pt" viewBox="0 0 600.000000 600.000000"
 preserveAspectRatio="xMidYMid meet">
<metadata>
Created by potrace 1.15, written by Peter Selinger 2001-2017
</metadata>
<g transform="translate(0.000000,600.000000) scale(0.100000,-0.100000)"
fill="#16364b" stroke="none">
<path d="M3115 5621 c-59 -36 -83 -85 -106 -216 -31 -178 33 -317 178 -390 29
-14 97 -35 150 -47 54 -11 104 -22 112 -24 7 -3 -26 -29 -74 -59 -96 -60 -239
-159 -355 -244 -105 -77 -177 -150 -185 -186 -4 -16 -16 -52 -27 -79 -41 -101
-4 -183 109 -242 62 -33 84 -37 368 -70 235 -28 256 -28 293 -4 34 21 71 87
72 127 0 39 -31 102 -61 124 -35 25 -142 45 -291 55 -60 4 -108 10 -108 13 0
10 133 119 235 194 50 36 147 95 218 133 70 37 143 83 163 102 68 66 80 132
40 217 -27 60 -69 98 -149 136 -56 26 -91 37 -266 79 -143 34 -149 45 -106
177 35 106 22 161 -48 203 -42 26 -121 26 -162 1z"/>
<path d="M1410 5411 c-68 -21 -201 -128 -281 -227 -169 -208 -247 -394 -265
-630 -5 -79 -4 -97 14 -137 49 -112 189 -126 254 -26 15 22 29 57 33 77 l6 37
62 1 c34 0 122 14 194 29 73 16 136 26 139 22 4 -4 -14 -57 -41 -119 -70 -166
-85 -215 -91 -298 -5 -53 -2 -87 9 -118 l15 -43 -45 -30 c-56 -39 -83 -82 -83
-134 0 -108 123 -180 216 -127 144 82 218 117 339 161 155 57 198 89 211 156
9 52 -21 122 -65 152 -50 34 -109 30 -210 -12 l-83 -35 7 27 c3 16 25 73 47
128 83 203 100 258 105 340 5 74 3 84 -23 134 -72 136 -207 166 -488 110 -54
-11 -101 -18 -103 -15 -8 8 68 116 126 179 30 33 80 76 110 96 78 52 96 80 96
149 0 70 -28 115 -89 143 -43 20 -75 22 -116 10z"/>
<path d="M4584 4475 c-151 -23 -223 -45 -259 -79 -79 -75 -47 -217 56 -247 33
-10 54 -9 138 10 54 13 108 21 120 19 20 -3 18 -9 -33 -83 -30 -44 -101 -136
-158 -205 l-103 -125 0 -62 c0 -59 2 -65 37 -99 46 -46 119 -58 166 -28 34 22
273 298 344 399 28 39 67 104 87 145 32 68 36 83 36 161 0 78 -2 88 -28 122
-15 20 -38 42 -49 48 -72 39 -204 48 -354 24z"/>
<path d="M3855 3686 c-57 -25 -95 -85 -95 -148 0 -63 37 -113 194 -261 122
-115 160 -145 189 -151 56 -10 111 9 145 50 61 74 50 143 -38 238 -49 52 -60
70 -60 97 0 70 -56 124 -173 167 -66 25 -118 27 -162 8z"/>
<path d="M2435 3642 c-91 -27 -246 -105 -280 -141 -24 -26 -30 -41 -33 -94 -3
-52 0 -67 20 -96 28 -42 81 -71 128 -71 19 0 64 14 100 31 95 45 174 69 225
69 45 0 45 0 45 -34 0 -93 -127 -382 -296 -677 -54 -93 -60 -155 -19 -210 14
-19 31 -48 39 -64 21 -44 61 -84 101 -101 64 -26 113 -18 275 46 176 69 220
83 220 68 0 -30 -66 -199 -120 -308 -55 -112 -61 -130 -56 -169 17 -130 142
-208 271 -167 28 9 61 26 73 39 52 56 181 397 218 578 30 151 4 269 -79 352
-96 96 -238 110 -449 46 -32 -9 -58 -15 -58 -13 0 2 33 72 74 156 117 241 152
380 126 503 -24 118 -89 203 -188 247 -66 30 -251 35 -337 10z"/>
<path d="M1108 3451 c-68 -22 -136 -63 -244 -147 -92 -72 -109 -94 -123 -157
-34 -151 123 -273 267 -207 50 23 50 23 17 -90 -59 -201 -148 -600 -165 -749
-14 -114 -7 -171 27 -211 33 -40 63 -54 149 -70 83 -15 126 -5 171 38 70 66
475 574 585 732 15 21 19 23 28 10 18 -25 4 -193 -30 -350 -40 -187 -100 -609
-100 -702 0 -40 5 -90 11 -111 12 -46 68 -110 109 -127 41 -17 125 -8 158 17
63 47 86 147 47 206 -15 23 -17 40 -11 105 10 123 53 382 91 551 50 219 62
339 46 444 -7 45 -17 123 -22 173 -16 156 -50 234 -120 273 -41 23 -102 27
-162 10 -77 -21 -216 -177 -411 -461 -87 -127 -113 -158 -103 -122 22 75 119
476 132 549 40 214 -17 353 -164 403 -48 17 -117 14 -183 -7z"/>
<path d="M4510 3388 c-62 -43 -84 -114 -56 -183 18 -43 39 -56 159 -99 118
-43 220 -90 237 -111 17 -21 -13 -79 -100 -190 -119 -152 -130 -172 -130 -231
0 -42 5 -59 27 -85 50 -59 124 -74 191 -40 46 24 169 174 235 286 130 224 80
418 -138 540 -102 57 -303 135 -351 135 -26 0 -53 -8 -74 -22z"/>
<path d="M3690 3196 c-141 -39 -283 -177 -320 -311 -43 -155 138 -266 249
-152 18 18 40 50 50 72 l17 39 106 1 c93 1 112 4 161 29 68 33 99 77 99 140 0
54 -21 95 -68 134 -69 57 -190 77 -294 48z"/>
<path d="M4607 2227 c-90 -28 -157 -124 -157 -225 l0 -53 -47 6 c-27 4 -106
16 -178 27 -87 13 -161 19 -226 16 -83 -3 -104 -8 -162 -36 -43 -21 -83 -52
-117 -89 -111 -121 -146 -247 -152 -546 -2 -109 -6 -147 -15 -145 -11 3 -142
116 -268 232 -27 25 -79 61 -115 78 -59 30 -72 33 -160 33 -110 0 -158 -18
-228 -85 -49 -48 -112 -158 -137 -240 -17 -55 -35 -79 -35 -47 0 7 -14 104
-31 216 -37 251 -66 347 -114 390 -66 57 -159 64 -234 17 -45 -29 -67 -60 -82
-119 -10 -40 -8 -56 14 -134 25 -86 35 -141 76 -424 53 -365 178 -540 432
-606 56 -14 73 -15 108 -5 95 29 149 115 138 222 -6 50 -1 84 27 193 34 130
61 207 72 207 10 0 127 -95 225 -184 52 -47 126 -103 164 -123 67 -36 74 -38
165 -38 75 0 106 5 150 22 69 28 148 88 177 133 12 19 29 42 37 50 9 8 34 32
55 52 23 21 44 53 50 75 6 21 11 127 11 236 l0 197 28 0 c15 0 70 -7 122 -15
113 -17 328 -19 402 -4 201 43 318 201 318 433 0 103 -22 169 -75 221 -65 65
-153 88 -238 62z"/>
</g>
</svg>
