<?xml version="1.0" standalone="no"?>
<!DOCTYPE svg PUBLIC "-//W3C//DTD SVG 20010904//EN"
 "http://www.w3.org/TR/2001/REC-SVG-20010904/DTD/svg10.dtd">
<svg version="1.0" xmlns="http://www.w3.org/2000/svg"
 width="600.000000pt" height="600.000000pt" viewBox="0 0 600.000000 600.000000"
 preserveAspectRatio="xMidYMid meet">
<metadata>
Created by potrace 1.15, written by Peter Selinger 2001-2017
</metadata>
<g transform="translate(0.000000,600.000000) scale(0.100000,-0.100000)"
fill="#16364b" stroke="none">
<path d="M3549 5289 c-29 -11 -49 -46 -49 -87 0 -74 102 -212 186 -252 77 -38
145 -1 129 71 -18 79 -136 239 -195 263 -22 9 -41 16 -43 15 -1 0 -14 -5 -28
-10z m125 -188 c38 -56 41 -77 6 -46 -29 26 -80 105 -80 124 0 21 25 -6 74
-78z"/>
<path d="M2988 5060 c-80 -53 -135 -192 -108 -274 24 -73 95 -87 172 -36 83
55 128 135 128 227 0 47 -4 59 -29 84 -41 41 -100 40 -163 -1z m115 -64 c8
-20 -7 -69 -33 -112 -23 -36 -79 -84 -98 -84 -20 0 -14 80 9 126 30 63 108
107 122 70z"/>
<path d="M4773 4740 c-47 -19 -53 -45 -59 -246 -7 -217 5 -365 34 -403 40 -54
112 -46 142 14 38 77 17 573 -26 616 -24 22 -63 31 -91 19z"/>
<path d="M2664 4226 c-64 -29 -87 -112 -41 -153 55 -50 241 -113 358 -120 84
-5 86 -5 111 22 35 38 42 80 21 123 -17 34 -25 38 -164 84 -165 54 -238 65
-285 44z"/>
<path d="M1524 4171 c-56 -25 -110 -91 -124 -153 -26 -106 6 -205 99 -301 81
-85 148 -222 191 -388 35 -136 79 -433 90 -610 5 -96 15 -230 20 -299 5 -69
15 -197 20 -285 22 -330 72 -492 206 -667 105 -136 234 -217 391 -245 48 -8
98 -17 111 -19 22 -5 23 -7 15 -62 -21 -154 -1 -297 78 -538 27 -83 49 -153
49 -156 0 -4 -47 -8 -104 -10 -94 -3 -107 -5 -130 -27 -28 -26 -34 -67 -15
-103 27 -50 159 -73 266 -47 88 23 154 119 138 202 -4 18 -19 73 -35 122 -70
216 -96 364 -87 491 8 107 18 128 60 120 55 -10 747 -27 841 -20 84 6 89 5 82
-12 -45 -115 -46 -256 -3 -340 14 -28 56 -79 97 -118 40 -37 70 -69 68 -71 -1
-1 -39 -7 -82 -13 -89 -12 -126 -33 -140 -79 -18 -65 39 -123 127 -131 103 -8
213 44 253 119 7 15 14 52 14 82 0 63 -20 96 -120 192 -81 79 -90 98 -90 192
0 65 5 88 29 138 l28 61 85 12 c168 24 545 126 658 178 182 83 326 263 381
475 18 69 21 102 17 198 -5 99 -11 132 -42 224 -45 137 -77 196 -144 269 -132
142 -328 175 -566 94 -253 -87 -438 -93 -725 -26 -272 64 -445 152 -658 334
-130 110 -239 233 -364 411 -271 383 -387 520 -538 632 -42 31 -95 74 -119 95
-24 22 -71 53 -105 69 -75 35 -159 39 -223 10z m167 -180 c24 -15 55 -40 69
-55 14 -15 57 -49 95 -74 137 -91 275 -240 415 -447 131 -193 199 -286 271
-370 220 -256 463 -435 714 -528 96 -35 156 -51 329 -86 256 -53 453 -42 709
40 118 38 136 41 211 37 67 -3 92 -9 129 -31 87 -51 147 -151 187 -312 49
-197 -11 -395 -163 -531 -93 -84 -148 -108 -434 -190 -249 -71 -347 -85 -653
-91 -268 -6 -813 10 -993 28 -279 28 -432 147 -515 399 -43 128 -55 228 -82
660 -24 383 -32 472 -60 636 -73 435 -129 578 -299 767 -55 61 -61 72 -61 112
0 71 53 86 131 36z"/>
<path d="M2411 2524 c-12 -15 -21 -33 -21 -41 0 -23 47 -63 74 -63 29 0 66 42
66 75 0 55 -83 75 -119 29z"/>
<path d="M2886 2184 c-38 -38 0 -114 57 -114 50 0 77 79 39 113 -23 21 -76 22
-96 1z"/>
<path d="M5231 3974 c-150 -40 -227 -150 -220 -312 7 -139 83 -253 206 -309
48 -22 65 -25 137 -21 100 6 176 39 245 108 67 67 94 127 99 223 4 72 2 83
-27 142 -36 73 -76 110 -166 154 -54 27 -73 31 -141 30 -44 0 -103 -7 -133
-15z m159 -300 c6 -7 -13 -36 -32 -48 -22 -13 -48 9 -48 41 0 24 2 25 38 18
20 -4 39 -9 42 -11z"/>
<path d="M4227 3770 c-93 -24 -168 -84 -214 -173 -24 -45 -28 -64 -28 -137 0
-70 4 -93 23 -130 32 -61 68 -97 126 -127 44 -22 59 -25 126 -21 91 5 162 39
221 106 53 61 73 125 66 221 -3 42 -10 93 -16 113 -30 99 -189 176 -304 148z
m73 -279 c0 -36 -47 -65 -57 -35 -4 12 33 54 47 54 6 0 10 -9 10 -19z"/>
<path d="M486 2004 c-31 -30 -19 -52 57 -102 153 -104 244 -135 267 -91 19 35
-11 63 -142 129 -68 34 -127 66 -132 71 -15 13 -33 11 -50 -7z"/>
<path d="M5348 1081 c-33 -38 -63 -148 -55 -198 14 -86 120 -112 175 -44 48
60 62 189 26 238 -17 23 -30 29 -71 31 -45 3 -53 0 -75 -27z"/>
</g>
</svg>
