<?xml version="1.0" standalone="no"?>
<!DOCTYPE svg PUBLIC "-//W3C//DTD SVG 20010904//EN"
 "http://www.w3.org/TR/2001/REC-SVG-20010904/DTD/svg10.dtd">
<svg version="1.0" xmlns="http://www.w3.org/2000/svg"
 width="600.000000pt" height="600.000000pt" viewBox="0 0 600.000000 600.000000"
 preserveAspectRatio="xMidYMid meet">
<metadata>
Created by potrace 1.15, written by Peter Selinger 2001-2017
</metadata>
<g transform="translate(0.000000,600.000000) scale(0.100000,-0.100000)"
fill="#16364b" stroke="none">
<path d="M2378 5399 l-31 -30 6 -127 c4 -70 2 -171 -3 -225 -25 -256 -99 -383
-277 -475 -88 -45 -103 -62 -103 -111 0 -41 31 -71 72 -71 57 0 195 77 269
150 142 140 209 389 197 737 -5 133 -5 137 -32 160 -36 31 -61 29 -98 -8z"/>
<path d="M3514 5285 c-9 -13 -18 -42 -21 -64 -11 -83 110 -272 202 -315 18 -9
51 -16 73 -16 33 0 45 6 67 32 23 27 26 39 22 75 -10 87 -115 246 -192 290
-26 15 -57 23 -87 23 -40 0 -50 -4 -64 -25z"/>
<path d="M2992 5089 c-81 -40 -142 -148 -142 -252 0 -136 122 -189 250 -107
60 38 92 84 115 164 46 157 -79 266 -223 195z m88 -134 c0 -32 -50 -104 -72
-105 -19 0 -5 42 23 75 28 31 49 44 49 30z"/>
<path d="M4782 4755 c-57 -25 -66 -63 -59 -255 8 -236 43 -360 121 -427 50
-45 86 -50 144 -21 39 19 52 33 76 82 26 52 30 69 29 140 -2 92 -27 184 -78
286 -48 95 -119 186 -157 199 -38 13 -35 13 -76 -4z"/>
<path d="M2658 4210 c-70 -21 -118 -84 -118 -155 0 -159 242 -269 431 -196
154 59 213 147 156 232 -17 25 -38 39 -87 56 -180 64 -308 85 -382 63z"/>
<path d="M1110 4130 c-31 -33 -50 -101 -50 -179 0 -111 96 -201 212 -201 191
0 243 190 84 310 -68 51 -162 100 -193 100 -15 0 -36 -12 -53 -30z"/>
<path d="M5229 3954 c-103 -31 -194 -121 -220 -217 -39 -145 41 -312 186 -390
32 -18 57 -22 130 -22 82 0 97 3 157 33 75 37 143 105 179 180 19 37 24 64 24
127 0 70 -4 87 -30 134 -34 61 -70 94 -154 139 -54 29 -68 32 -143 31 -46 0
-104 -7 -129 -15z m158 -298 c10 -10 -29 -46 -48 -46 -18 0 -39 27 -39 51 0
12 75 8 87 -5z"/>
<path d="M4183 3751 c-134 -46 -228 -176 -228 -316 0 -117 57 -188 184 -230
81 -27 199 -18 269 20 104 56 160 151 167 282 8 146 -21 196 -139 239 -81 29
-177 32 -253 5z m112 -281 c-18 -20 -55 -28 -55 -11 0 5 12 19 27 31 34 26 56
11 28 -20z"/>
<path d="M3425 3335 c-41 -43 -155 -269 -155 -307 0 -15 9 -37 20 -48 48 -48
129 -5 202 107 56 85 78 141 78 196 0 88 -84 118 -145 52z"/>
<path d="M1109 3310 c-204 -20 -347 -108 -421 -258 -31 -63 -33 -73 -33 -172
1 -98 3 -109 32 -165 89 -171 243 -261 485 -284 149 -14 203 -28 251 -65 96
-73 122 -129 222 -481 112 -390 188 -527 360 -651 148 -105 231 -123 610 -135
160 -4 391 -14 515 -20 324 -17 779 -1 1043 37 371 52 750 224 891 403 76 96
133 227 172 396 46 197 5 513 -92 706 -72 144 -223 260 -420 323 -318 101
-517 87 -819 -59 -83 -41 -144 -81 -250 -165 -170 -135 -215 -160 -315 -172
-172 -20 -308 30 -591 215 -79 51 -184 120 -234 152 -49 31 -146 97 -215 145
-219 153 -297 186 -529 220 -193 28 -525 43 -662 30z m506 -411 c210 -21 311
-60 510 -196 600 -407 759 -491 1005 -528 121 -19 199 -19 295 0 143 27 228
68 389 187 190 141 261 181 383 217 218 65 411 39 549 -74 136 -111 167 -453
60 -663 -35 -69 -105 -128 -232 -194 -132 -68 -251 -108 -421 -142 -236 -47
-430 -56 -783 -36 -96 6 -341 11 -545 11 -394 1 -458 7 -552 51 -132 62 -208
219 -337 693 -61 221 -137 345 -270 439 -134 95 -255 136 -406 136 -52 0 -115
5 -138 11 -43 9 -91 37 -92 52 -1 37 356 59 585 36z"/>
<path d="M490 2063 c-57 -21 -82 -100 -40 -125 12 -7 35 -34 51 -60 103 -159
299 -220 339 -105 27 79 -49 168 -205 243 -100 47 -123 55 -145 47z"/>
<path d="M5313 1105 c-49 -21 -77 -83 -78 -172 0 -66 2 -74 29 -102 36 -38 74
-46 119 -27 53 21 79 80 85 184 4 76 3 85 -18 107 -27 29 -85 33 -137 10z"/>
</g>
</svg>
