<?xml version="1.0" standalone="no"?>
<!DOCTYPE svg PUBLIC "-//W3C//DTD SVG 20010904//EN"
 "http://www.w3.org/TR/2001/REC-SVG-20010904/DTD/svg10.dtd">
<svg version="1.0" xmlns="http://www.w3.org/2000/svg"
 width="600.000000pt" height="600.000000pt" viewBox="0 0 600.000000 600.000000"
 preserveAspectRatio="xMidYMid meet">
<metadata>
Created by potrace 1.15, written by Peter Selinger 2001-2017
</metadata>
<g transform="translate(0.000000,600.000000) scale(0.100000,-0.100000)"
fill="#16364b" stroke="none">
<path d="M2849 5561 c-54 -17 -72 -35 -100 -98 -90 -198 -111 -331 -65 -421
58 -115 150 -141 411 -119 l90 8 -66 -60 c-72 -65 -381 -377 -451 -454 -75
-84 -91 -130 -68 -192 16 -42 78 -112 113 -128 18 -8 124 -31 237 -51 251 -45
439 -82 504 -102 78 -22 133 -18 174 12 82 63 82 194 -1 249 -32 21 -201 58
-431 94 -104 17 -191 33 -195 37 -10 11 266 270 416 390 148 118 184 159 203
232 26 100 -47 200 -175 240 -100 30 -173 35 -329 22 -76 -6 -139 -10 -141 -8
-2 2 17 44 42 92 50 99 53 139 14 194 -34 49 -126 80 -182 63z"/>
<path d="M1555 5267 c-109 -52 -260 -195 -433 -411 -75 -93 -153 -235 -173
-316 -22 -87 23 -174 105 -205 43 -17 48 -16 155 9 132 31 281 56 334 56 43 0
45 -5 18 -81 -10 -30 -40 -112 -65 -184 -49 -139 -55 -179 -31 -225 l15 -30
-40 -16 c-45 -18 -96 -71 -106 -110 -25 -98 44 -194 140 -194 75 0 565 187
644 247 43 32 62 72 62 129 0 84 -52 140 -139 151 -43 5 -61 0 -155 -42 -59
-26 -110 -45 -113 -41 -4 3 15 54 42 113 73 163 85 204 85 285 0 125 -60 217
-179 275 -53 26 -64 28 -193 28 -111 0 -135 2 -129 13 17 29 139 160 189 203
29 24 72 54 95 66 70 35 100 74 105 135 3 44 0 59 -20 87 -54 79 -127 99 -213
58z"/>
<path d="M4435 4610 c-95 -19 -367 -131 -408 -167 -75 -69 -60 -209 27 -245
50 -20 87 -14 211 39 130 55 194 78 201 70 7 -7 -60 -175 -109 -273 -25 -49
-77 -143 -116 -208 -98 -166 -97 -205 12 -298 67 -57 82 -64 172 -73 96 -9
371 -54 402 -66 22 -8 25 -14 19 -40 -7 -37 -85 -194 -174 -349 -76 -134 -88
-191 -52 -248 39 -63 147 -80 209 -35 30 23 124 180 227 379 116 228 129 337
53 455 -34 53 -126 122 -187 139 -52 15 -203 38 -294 45 l-77 7 74 141 c114
219 155 344 157 471 2 194 -138 297 -347 256z"/>
<path d="M3696 3636 c-96 -41 -157 -114 -172 -204 -8 -49 21 -116 62 -146 29
-21 99 -32 138 -22 32 8 85 53 97 83 11 30 37 29 45 -2 8 -33 -10 -104 -48
-188 l-32 -68 -90 -44 c-96 -47 -214 -143 -241 -196 -19 -36 -19 -112 -1 -147
20 -39 45 -58 91 -71 59 -16 107 1 175 64 73 67 93 77 227 116 59 17 124 40
143 50 74 42 106 133 76 213 -9 25 -23 50 -31 56 -12 10 -11 18 2 53 8 23 17
83 20 133 7 112 -11 172 -68 238 -59 67 -132 98 -244 103 -79 3 -97 1 -149
-21z"/>
<path d="M2600 3544 c-182 -23 -489 -132 -525 -188 -60 -91 -14 -207 93 -235
43 -12 67 -7 162 37 83 38 213 79 279 88 43 6 52 4 57 -11 12 -29 -32 -157
-111 -329 -61 -129 -75 -170 -75 -209 0 -75 38 -130 110 -161 l35 -14 -30 -11
c-55 -20 -80 -39 -110 -82 -26 -38 -30 -53 -30 -109 0 -79 24 -125 83 -158 58
-32 109 -28 257 22 151 51 333 101 340 94 5 -5 -10 -50 -77 -228 -18 -48 -19
-61 -8 -107 15 -69 57 -125 114 -151 52 -25 78 -27 127 -11 83 28 124 88 192
285 85 242 71 395 -45 499 -68 61 -129 80 -253 79 -118 -1 -326 -43 -448 -90
-10 -3 1 26 28 80 135 270 195 441 203 577 6 117 -11 177 -68 242 -63 72 -177
106 -300 91z"/>
<path d="M1150 3260 c-106 -22 -272 -127 -303 -193 -22 -46 -21 -132 2 -182
39 -87 145 -136 227 -105 15 6 29 8 32 6 2 -3 -12 -78 -31 -168 -57 -259 -62
-294 -62 -453 0 -247 39 -359 145 -413 38 -19 54 -22 105 -16 87 9 108 25 162
127 62 117 116 198 227 337 51 63 109 140 131 170 22 30 64 86 94 124 l55 69
18 -54 c17 -49 17 -66 8 -174 -13 -142 -10 -127 -56 -380 -51 -288 -67 -428
-54 -475 13 -47 67 -97 116 -106 46 -8 103 9 139 42 15 14 28 24 30 22 1 -2
15 -82 30 -178 33 -211 62 -332 108 -462 68 -191 145 -296 255 -350 60 -30 75
-33 157 -33 82 0 97 3 156 32 37 18 84 52 106 75 21 24 55 54 74 67 47 32 64
58 154 241 85 171 145 269 195 317 59 58 95 46 271 -89 126 -96 167 -113 269
-113 74 0 93 4 144 29 71 35 140 101 166 159 11 23 37 59 59 80 75 73 85 140
43 302 -25 98 -36 177 -28 203 9 28 68 40 248 52 84 6 179 17 212 26 135 33
243 120 287 230 20 51 23 76 23 184 0 138 -9 171 -66 235 -46 53 -96 75 -168
75 -104 0 -172 -43 -216 -135 -13 -27 -24 -67 -24 -87 0 -45 0 -45 -145 -52
-113 -5 -217 -30 -331 -77 -266 -111 -355 -363 -264 -745 9 -41 14 -74 9 -74
-4 0 -43 25 -86 56 -43 31 -109 73 -148 93 -68 35 -73 36 -180 36 -104 0 -114
-2 -175 -32 -166 -82 -326 -268 -458 -531 -43 -86 -64 -117 -88 -131 -39 -23
-42 -20 -77 60 -28 64 -59 190 -86 349 -45 259 -65 312 -139 348 -86 44 -162
34 -224 -28 l-38 -38 0 29 c0 38 24 198 55 363 62 340 70 579 25 755 -28 108
-49 150 -101 194 -52 45 -115 61 -187 47 -112 -21 -196 -92 -364 -307 -67 -85
-122 -152 -124 -150 -2 2 5 44 16 93 14 60 23 143 27 255 5 153 4 172 -16 239
-19 62 -31 81 -79 129 -74 74 -162 101 -262 81z"/>
</g>
</svg>
