<?xml version="1.0" standalone="no"?>
<!DOCTYPE svg PUBLIC "-//W3C//DTD SVG 20010904//EN"
 "http://www.w3.org/TR/2001/REC-SVG-20010904/DTD/svg10.dtd">
<svg version="1.0" xmlns="http://www.w3.org/2000/svg"
 width="600.000000pt" height="600.000000pt" viewBox="0 0 600.000000 600.000000"
 preserveAspectRatio="xMidYMid meet">
<metadata>
Created by potrace 1.15, written by Peter Selinger 2001-2017
</metadata>
<g transform="translate(0.000000,600.000000) scale(0.100000,-0.100000)"
fill="#16364b" stroke="none">
<path d="M3108 5639 c-21 -10 -44 -33 -53 -49 -21 -40 -19 -131 4 -223 49
-189 129 -273 346 -362 59 -24 112 -48 116 -52 8 -8 -46 -43 -341 -217 -141
-83 -255 -163 -274 -191 -10 -15 -20 -42 -23 -61 -4 -25 -12 -36 -29 -40 -40
-10 -90 -75 -98 -126 -13 -84 42 -169 117 -183 21 -4 69 3 133 20 67 18 143
29 235 34 174 11 215 30 237 114 19 68 -16 140 -86 176 l-36 18 40 25 c381
234 421 267 449 361 19 65 13 110 -21 178 -39 78 -133 143 -317 219 -128 53
-177 115 -177 225 -1 117 -119 189 -222 134z"/>
<path d="M1275 5383 c-67 -27 -170 -98 -228 -158 -134 -136 -245 -479 -217
-671 5 -38 15 -87 21 -109 15 -53 74 -111 123 -121 53 -9 123 20 154 66 22 33
23 40 16 115 -13 123 -7 208 21 286 48 138 134 248 243 312 79 46 105 87 100
155 -4 43 -11 59 -37 86 -52 54 -123 68 -196 39z"/>
<path d="M1490 5054 c-101 -22 -150 -68 -157 -151 -3 -37 1 -58 19 -92 32 -61
76 -84 151 -78 52 5 58 3 52 -11 -86 -220 -79 -366 24 -466 21 -20 63 -47 94
-60 l56 -22 -53 -27 c-133 -64 -285 -178 -309 -230 -52 -108 28 -223 149 -214
42 3 66 13 140 63 120 80 263 150 332 164 75 16 118 43 142 91 54 105 -9 219
-122 219 -43 0 -42 -1 -27 37 14 38 3 86 -28 123 -28 34 -91 70 -123 70 -11 0
-20 4 -20 9 0 5 19 60 42 123 38 102 42 122 42 208 1 103 -11 137 -63 193 -48
52 -91 67 -188 66 -48 -1 -117 -7 -153 -15z"/>
<path d="M4495 4546 c-84 -32 -122 -114 -89 -194 27 -70 61 -86 189 -92 l109
-5 -134 -100 c-118 -87 -137 -106 -154 -147 -17 -41 -18 -52 -7 -89 24 -78
101 -122 172 -97 46 15 284 195 381 287 125 118 159 217 107 312 -49 89 -155
125 -394 134 -110 5 -149 2 -180 -9z"/>
<path d="M3890 3708 c-60 -41 -75 -71 -75 -151 0 -93 32 -155 131 -252 85 -84
165 -127 246 -133 182 -13 282 206 139 305 -35 24 -40 33 -41 66 0 80 -47 129
-153 162 -104 33 -201 34 -247 3z"/>
<path d="M2600 3693 c-93 -15 -297 -92 -349 -130 -85 -64 -80 -207 10 -255 45
-24 88 -23 157 6 86 36 190 66 229 66 l36 0 -6 -43 c-3 -24 -21 -79 -40 -123
-41 -99 -200 -390 -275 -504 -72 -110 -79 -158 -35 -229 23 -36 28 -52 21 -66
-16 -27 -13 -127 5 -160 20 -39 65 -81 100 -94 53 -20 97 -12 231 45 157 67
264 106 276 102 8 -3 -92 -253 -169 -421 -54 -119 -36 -217 51 -274 35 -24 52
-28 108 -28 95 0 126 26 189 158 70 145 176 408 205 511 47 161 30 263 -59
353 -87 86 -202 110 -372 78 -44 -8 -113 -26 -153 -40 -40 -14 -75 -23 -78
-20 -2 2 30 63 73 135 132 225 202 404 225 575 29 223 -88 368 -294 364 -34
-1 -72 -4 -86 -6z"/>
<path d="M1084 3510 c-84 -27 -270 -153 -309 -208 -27 -39 -30 -52 -30 -117 0
-65 3 -78 30 -117 57 -80 154 -110 240 -74 19 8 35 12 35 8 0 -4 -24 -75 -54
-157 -98 -273 -150 -490 -162 -679 -6 -87 -4 -113 10 -150 20 -51 82 -113 123
-121 16 -4 47 -11 70 -17 56 -14 106 -3 146 31 17 16 100 120 182 231 225 303
297 395 371 473 65 68 69 70 74 47 3 -14 -2 -68 -12 -120 -10 -52 -28 -144
-39 -205 -11 -60 -40 -191 -64 -290 -76 -311 -90 -441 -61 -539 31 -101 97
-152 192 -144 95 8 154 78 138 167 -4 25 -8 93 -8 151 0 93 6 129 52 310 85
339 133 570 139 660 7 116 -11 288 -38 351 -56 129 -202 171 -324 93 -55 -36
-304 -289 -395 -402 -41 -51 -76 -89 -78 -84 -2 8 38 132 136 412 21 61 26 94
27 175 0 114 -14 152 -87 231 -82 88 -195 120 -304 84z"/>
<path d="M3667 3260 c-101 -26 -221 -117 -270 -208 -35 -65 -57 -161 -47 -206
18 -79 79 -128 161 -128 56 0 103 24 131 70 18 30 23 32 77 32 73 0 166 24
214 56 52 34 92 119 83 176 -14 88 -63 146 -157 187 -54 24 -141 33 -192 21z"/>
<path d="M4596 3221 c-42 -28 -66 -70 -66 -119 0 -62 21 -95 103 -155 86 -64
157 -139 157 -166 0 -11 -21 -42 -47 -68 -75 -78 -89 -133 -53 -208 24 -50 65
-75 122 -75 106 0 258 175 274 316 8 64 -15 150 -58 221 -39 65 -148 172 -237
231 -54 36 -71 42 -115 42 -33 0 -61 -7 -80 -19z"/>
<path d="M4532 2251 c-105 -36 -161 -118 -162 -234 0 -65 -1 -67 -22 -62 -13
3 -61 14 -108 25 -130 30 -241 36 -337 16 -188 -38 -267 -107 -315 -273 -21
-72 -23 -98 -23 -350 0 -204 3 -275 13 -284 20 -21 14 -26 -30 -33 -24 -4 -63
-18 -87 -31 l-44 -25 -41 24 c-55 32 -213 164 -304 254 -96 94 -193 144 -280
144 -108 0 -198 -61 -244 -168 -22 -51 -38 -68 -38 -41 -1 27 -30 269 -44 365
-24 153 -64 221 -153 259 -97 40 -202 -18 -234 -129 -6 -23 -5 -57 6 -113 8
-44 23 -163 34 -265 35 -323 76 -463 166 -567 80 -94 285 -199 407 -211 143
-13 236 84 208 217 -6 31 -10 77 -8 103 l3 47 95 -76 c212 -169 303 -214 445
-221 117 -5 182 17 259 91 72 69 91 140 59 223 -4 11 5 14 43 14 91 1 178 61
223 153 24 49 41 197 41 356 l0 83 48 -6 c26 -4 84 -16 130 -27 141 -32 287
-21 399 30 151 71 212 201 199 426 -7 134 -27 196 -76 244 -63 61 -134 74
-228 42z"/>
</g>
</svg>
