<?xml version="1.0" standalone="no"?>
<!DOCTYPE svg PUBLIC "-//W3C//DTD SVG 20010904//EN"
 "http://www.w3.org/TR/2001/REC-SVG-20010904/DTD/svg10.dtd">
<svg version="1.0" xmlns="http://www.w3.org/2000/svg"
 width="600.000000pt" height="600.000000pt" viewBox="0 0 600.000000 600.000000"
 preserveAspectRatio="xMidYMid meet">
<metadata>
Created by potrace 1.15, written by Peter Selinger 2001-2017
</metadata>
<g transform="translate(0.000000,600.000000) scale(0.100000,-0.100000)"
fill="#16364b" stroke="none">
<path d="M2473 5481 c-22 -14 -43 -43 -71 -103 -57 -120 -66 -154 -66 -243 -1
-64 4 -88 22 -122 60 -113 179 -139 454 -98 65 9 123 15 130 13 7 -3 -56 -76
-142 -165 -176 -182 -251 -280 -328 -432 -52 -102 -54 -109 -49 -168 6 -74 38
-138 87 -171 35 -24 36 -24 190 -16 201 12 508 11 636 0 91 -8 105 -7 134 10
37 22 70 80 70 124 0 41 -34 106 -66 127 -52 34 -142 45 -406 50 -142 3 -258
8 -258 12 0 17 146 198 235 291 180 188 199 210 237 271 20 33 39 78 43 99 16
96 -29 187 -115 234 -78 43 -154 45 -369 11 -95 -15 -175 -24 -179 -21 -3 4 6
31 21 62 32 65 34 103 7 160 -41 85 -143 120 -217 75z"/>
<path d="M1645 5111 c-210 -61 -442 -256 -566 -476 -55 -97 -42 -192 34 -249
21 -16 42 -21 80 -20 29 1 111 3 182 5 149 4 228 -10 250 -45 7 -11 16 -41 20
-66 20 -139 69 -210 153 -225 72 -12 146 38 162 109 8 38 -10 190 -31 255 -43
132 -160 231 -309 262 -87 18 -86 17 -40 53 50 40 151 91 200 101 77 16 120
71 120 152 0 63 -27 112 -76 140 -47 27 -96 28 -179 4z"/>
<path d="M4219 4759 c-148 -22 -393 -145 -439 -221 -40 -67 -20 -155 46 -199
51 -34 115 -26 198 24 78 47 174 91 224 101 32 7 32 7 32 -29 0 -82 -73 -279
-166 -451 -61 -112 -60 -146 4 -238 66 -97 87 -106 240 -106 68 0 189 5 268
11 104 9 151 9 168 1 24 -11 24 -11 11 -80 -8 -38 -50 -168 -95 -287 -71 -191
-80 -223 -74 -259 9 -54 64 -110 117 -120 46 -9 116 21 142 61 21 31 131 322
175 459 41 129 52 271 25 340 -31 82 -103 145 -200 175 -23 7 -129 15 -247 18
l-206 6 38 92 c98 234 121 445 61 561 -56 108 -180 163 -322 141z"/>
<path d="M2080 4004 c-8 -4 -53 -21 -100 -39 -98 -38 -256 -79 -385 -100 -51
-8 -100 -22 -115 -33 -89 -66 -72 -230 29 -278 25 -12 49 -15 90 -10 128 13
536 131 608 175 63 39 87 142 49 207 -34 57 -125 97 -176 78z"/>
<path d="M3778 3716 c-71 -15 -172 -68 -313 -163 -168 -113 -185 -131 -185
-201 0 -75 45 -131 117 -146 49 -11 92 6 188 76 108 78 183 123 192 114 9 -9
-67 -232 -132 -385 -46 -110 -56 -126 -88 -142 -49 -26 -77 -75 -77 -137 0
-96 56 -162 137 -162 64 0 400 148 538 238 143 92 199 216 145 321 -56 111
-220 107 -280 -7 -25 -49 -25 -26 0 40 38 98 70 238 70 307 -1 178 -136 285
-312 247z"/>
<path d="M2405 3424 c-127 -23 -276 -63 -320 -85 -54 -26 -78 -62 -83 -124 -7
-81 36 -143 110 -163 41 -11 61 -8 189 32 82 25 223 56 256 56 25 0 11 -81
-36 -204 -23 -62 -41 -127 -41 -149 0 -91 89 -175 172 -164 77 10 93 32 167
231 96 255 94 400 -5 500 -57 57 -119 79 -229 82 -60 2 -132 -3 -180 -12z"/>
<path d="M1190 3131 c-122 -39 -202 -116 -216 -208 -15 -99 44 -182 143 -204
l55 -13 -6 -120 c-3 -67 -9 -231 -12 -366 -9 -365 9 -451 108 -499 88 -42 196
-18 258 57 16 20 33 50 36 67 4 22 16 35 47 50 35 18 49 36 100 130 33 61 84
148 114 194 54 83 157 201 176 201 6 0 8 -77 4 -212 -5 -211 -19 -308 -68
-488 -18 -66 -5 -116 41 -162 35 -36 42 -38 97 -38 51 0 66 5 101 30 50 36 57
49 87 154 44 153 58 258 75 547 10 159 9 195 -4 252 -61 261 -259 338 -485
189 -77 -50 -197 -173 -250 -254 -48 -75 -66 -86 -58 -35 3 17 9 122 12 232 7
209 -2 291 -40 365 -44 84 -141 150 -220 149 -22 0 -65 -8 -95 -18z"/>
<path d="M4802 2794 c-90 -45 -141 -127 -142 -226 0 -55 -1 -58 -27 -64 -245
-58 -314 -88 -409 -176 -111 -104 -162 -243 -149 -406 11 -143 58 -297 120
-390 40 -61 40 -62 21 -62 -7 0 -34 -18 -60 -41 -55 -48 -54 -48 -206 7 -103
38 -108 39 -240 39 -121 0 -143 -3 -208 -27 -168 -61 -324 -194 -442 -376 -36
-55 -74 -104 -85 -108 -10 -4 -44 -30 -75 -59 -64 -61 -88 -75 -127 -75 -92 0
-219 179 -304 430 -24 70 -42 105 -69 132 -117 119 -330 32 -330 -136 0 -82
111 -356 200 -495 32 -50 85 -112 138 -161 241 -226 494 -235 712 -25 41 40
89 80 107 89 19 9 44 36 60 64 96 167 207 294 304 347 77 42 133 39 274 -15
196 -75 308 -82 431 -26 59 27 157 114 181 161 9 16 16 53 16 81 l0 52 56 15
c106 30 174 117 173 222 0 70 -28 129 -86 185 -58 56 -96 130 -96 187 0 53 11
59 177 107 65 19 138 43 163 54 114 49 212 164 245 287 24 87 17 252 -13 311
-59 115 -191 157 -310 98z"/>
<path d="M3140 2420 c-173 -32 -484 -112 -518 -132 -18 -11 -44 -40 -59 -66
-65 -110 -9 -238 118 -272 29 -8 54 -7 104 5 217 50 541 109 555 100 4 -2 3
-27 -3 -55 -32 -163 125 -305 271 -245 40 17 78 49 94 79 16 30 36 124 44 207
12 140 -48 281 -146 341 -98 60 -270 74 -460 38z"/>
</g>
</svg>
