<?xml version="1.0" standalone="no"?>
<!DOCTYPE svg PUBLIC "-//W3C//DTD SVG 20010904//EN"
 "http://www.w3.org/TR/2001/REC-SVG-20010904/DTD/svg10.dtd">
<svg version="1.0" xmlns="http://www.w3.org/2000/svg"
 width="600.000000pt" height="600.000000pt" viewBox="0 0 600.000000 600.000000"
 preserveAspectRatio="xMidYMid meet">
<metadata>
Created by potrace 1.15, written by Peter Selinger 2001-2017
</metadata>
<g transform="translate(0.000000,600.000000) scale(0.100000,-0.100000)"
fill="#16364b" stroke="none">
<path d="M1935 4946 c-111 -52 -179 -158 -179 -281 0 -38 7 -99 16 -135 17
-65 48 -338 69 -610 6 -85 10 -299 8 -515 -2 -203 0 -483 5 -620 l9 -251 -48
-84 c-26 -47 -94 -161 -150 -255 -56 -93 -116 -198 -134 -232 -17 -34 -35 -64
-41 -68 -6 -4 -8 -15 -5 -26 4 -13 2 -19 -9 -19 -24 0 -29 -20 -10 -41 13 -15
15 -22 6 -31 -23 -23 -14 -41 18 -36 26 4 30 1 30 -19 0 -13 6 -23 14 -23 17
0 96 92 96 113 0 23 200 380 220 392 6 4 10 -30 10 -87 0 -162 45 -358 115
-500 102 -206 258 -325 510 -387 l69 -17 -4 -50 c-18 -188 7 -409 65 -587 36
-111 38 -107 -50 -107 -115 0 -170 -31 -182 -103 -8 -50 34 -92 102 -102 60
-10 192 15 240 45 94 58 112 135 58 255 -68 152 -103 373 -84 539 6 49 12 90
14 92 2 2 73 -1 158 -7 85 -6 300 -9 479 -7 l325 3 0 -140 c0 -147 3 -162 102
-523 21 -75 16 -82 -62 -82 -107 0 -175 -45 -175 -114 0 -160 308 -123 397 48
28 53 21 110 -34 281 -28 88 -59 189 -69 225 -21 80 -24 209 -5 272 13 46 15
47 60 53 104 15 419 67 461 77 139 33 270 145 339 291 58 123 76 208 75 357
-1 143 -29 269 -86 393 -42 92 -129 210 -197 266 -28 24 -50 45 -48 47 8 8
263 -60 274 -74 11 -13 25 -14 90 -6 74 9 78 10 78 34 0 14 3 30 6 35 3 6 5
23 5 40 -1 27 -5 30 -46 37 -27 5 -51 16 -61 29 -13 18 -19 19 -35 9 -22 -13
-127 11 -477 111 -115 32 -214 59 -221 59 -7 0 -44 23 -84 50 -39 28 -225 139
-414 246 -189 108 -374 217 -413 242 -149 99 -254 224 -378 448 -98 179 -334
675 -372 784 -12 36 -33 85 -46 109 -34 61 -128 145 -185 165 -70 24 -159 21
-219 -8z m204 -159 c40 -27 89 -109 114 -192 8 -27 26 -72 40 -100 14 -27 39
-83 56 -122 44 -101 300 -606 350 -689 103 -174 211 -282 381 -382 52 -30 192
-112 310 -182 118 -70 267 -157 330 -193 63 -36 147 -90 186 -119 39 -29 156
-111 259 -183 197 -136 271 -205 334 -309 69 -115 111 -272 111 -415 0 -201
-95 -383 -234 -447 -59 -27 -377 -84 -586 -105 -236 -24 -843 -13 -1174 22
-184 19 -308 72 -404 173 -97 100 -146 216 -182 429 -20 118 -21 166 -24 1018
-2 601 -7 925 -14 989 -7 52 -21 190 -32 305 -11 116 -27 241 -35 280 -20 92
-19 133 4 175 41 78 133 98 210 47z m-589 -2977 c0 -5 -4 -10 -10 -10 -5 0
-10 5 -10 10 0 6 5 10 10 10 6 0 10 -4 10 -10z"/>
<path d="M2615 2727 c-23 -19 -27 -29 -21 -51 8 -31 61 -67 85 -58 38 14 57
87 28 110 -29 24 -64 24 -92 -1z"/>
<path d="M3052 2594 c-31 -22 -29 -68 4 -99 34 -32 57 -31 83 1 27 34 27 68
-1 94 -26 24 -56 26 -86 4z"/>
<path d="M5270 3991 c-103 -23 -191 -95 -234 -191 -57 -126 -31 -268 67 -362
64 -63 128 -92 212 -96 307 -17 498 314 311 536 -16 18 -59 51 -97 73 -61 37
-76 41 -146 44 -43 2 -94 0 -113 -4z m115 -293 c31 -14 31 -22 3 -42 -31 -22
-43 -20 -57 10 -19 42 3 56 54 32z"/>
<path d="M5369 1115 c-41 -22 -85 -146 -74 -208 17 -88 107 -117 170 -54 38
38 55 89 55 165 0 46 -4 58 -29 83 -33 33 -78 38 -122 14z"/>
</g>
</svg>
