<?xml version="1.0" standalone="no"?>
<!DOCTYPE svg PUBLIC "-//W3C//DTD SVG 20010904//EN"
 "http://www.w3.org/TR/2001/REC-SVG-20010904/DTD/svg10.dtd">
<svg version="1.0" xmlns="http://www.w3.org/2000/svg"
 width="600.000000pt" height="600.000000pt" viewBox="0 0 600.000000 600.000000"
 preserveAspectRatio="xMidYMid meet">
<metadata>
Created by potrace 1.15, written by Peter Selinger 2001-2017
</metadata>
<g transform="translate(0.000000,600.000000) scale(0.100000,-0.100000)"
fill="#16364b" stroke="none">
<path d="M1715 5792 c-16 -11 -38 -28 -47 -38 -18 -20 -125 -404 -159 -569
-29 -140 -17 -217 43 -271 146 -133 329 -30 648 365 121 149 133 178 104 249
-21 54 -63 84 -125 90 -66 6 -88 -10 -199 -143 -51 -61 -96 -111 -100 -113 -8
-3 11 64 55 191 31 91 32 134 3 177 -37 54 -71 73 -135 77 -45 3 -65 0 -88
-15z"/>
<path d="M3043 5660 c-69 -42 -92 -147 -45 -209 10 -14 70 -60 132 -102 178
-120 380 -321 441 -440 l19 -39 -60 2 c-75 2 -109 -20 -129 -81 -16 -50 -5
-100 30 -145 36 -46 75 -60 174 -60 106 -1 175 24 225 81 93 105 86 248 -21
431 -40 67 -214 246 -315 323 -39 30 -113 88 -165 130 -140 112 -168 129 -214
129 -22 0 -54 -9 -72 -20z"/>
<path d="M990 5438 c-100 -13 -216 -74 -299 -156 -89 -88 -123 -157 -129 -262
-8 -132 38 -233 155 -340 112 -102 193 -115 264 -40 37 39 51 84 42 133 -5 27
-19 43 -110 126 -37 33 -43 44 -43 78 0 44 28 94 72 126 17 13 51 22 95 26 80
8 103 19 139 67 36 46 43 124 17 173 -35 67 -87 84 -203 69z"/>
<path d="M2977 5186 c-86 -31 -157 -105 -196 -204 -39 -98 -20 -192 50 -259
64 -61 181 -80 297 -49 113 31 138 68 129 201 -12 177 -69 288 -162 314 -51
14 -71 13 -118 -3z"/>
<path d="M4743 4869 c-69 -44 -85 -117 -64 -300 33 -285 166 -459 352 -459
108 0 222 93 256 209 44 151 -58 339 -252 463 -175 113 -228 128 -292 87z"/>
<path d="M2035 4837 c-162 -42 -237 -139 -187 -243 12 -24 33 -51 47 -60 37
-24 108 -29 158 -11 23 8 57 18 75 22 30 6 33 4 51 -37 51 -116 175 -149 253
-66 103 111 30 314 -138 378 -72 27 -190 35 -259 17z"/>
<path d="M2895 4080 c-151 -17 -255 -110 -255 -225 0 -86 61 -163 170 -214 54
-26 58 -26 265 -25 225 2 410 25 461 59 69 45 85 143 35 212 -25 34 -47 48
-141 88 -195 82 -397 122 -535 105z"/>
<path d="M1196 4059 c-185 -15 -245 -38 -285 -110 -38 -68 -21 -181 35 -230
48 -42 85 -52 171 -46 l84 6 -22 -32 c-12 -18 -86 -95 -164 -173 -185 -184
-263 -274 -343 -398 -134 -205 -151 -258 -113 -341 23 -49 54 -79 106 -101 32
-13 57 -15 134 -9 53 4 106 11 119 16 13 5 69 44 125 87 144 110 187 139 321
221 l118 72 37 -29 c41 -33 54 -74 45 -147 -16 -128 -120 -381 -223 -538 -61
-93 -201 -242 -254 -268 -55 -29 -79 -72 -74 -137 3 -38 10 -59 28 -78 59 -63
121 -70 213 -22 83 43 270 232 354 357 152 226 252 512 252 722 l0 79 33 14
c43 18 85 68 93 112 4 20 4 84 2 142 -5 110 -25 180 -66 225 -28 32 -89 57
-134 57 -52 0 -93 -19 -226 -98 -174 -105 -173 -104 -110 -25 188 236 242 381
187 503 -63 139 -194 189 -443 169z"/>
<path d="M4290 3804 c-146 -24 -228 -61 -288 -129 -54 -62 -75 -127 -70 -218
7 -128 72 -233 176 -284 73 -36 180 -38 255 -4 76 33 158 119 206 214 50 101
86 233 77 283 -11 57 -61 103 -129 119 -64 15 -189 25 -227 19z m-5 -334 c-19
-21 -55 -27 -55 -10 0 11 62 41 69 34 2 -2 -4 -13 -14 -24z"/>
<path d="M3393 3400 c-63 -28 -117 -92 -173 -203 -39 -77 -50 -109 -50 -146 0
-58 30 -108 80 -133 51 -26 178 -25 230 2 159 81 227 350 113 452 -28 25 -88
48 -125 48 -18 0 -52 -9 -75 -20z"/>
<path d="M5000 3189 c-82 -47 -201 -172 -239 -252 -47 -99 -58 -166 -38 -231
34 -107 129 -162 262 -154 177 12 302 131 335 320 12 68 2 156 -23 203 -19 37
-92 116 -119 131 -47 24 -116 18 -178 -17z"/>
<path d="M3926 2566 c-54 -20 -85 -45 -121 -95 -45 -64 -43 -143 9 -279 21
-56 36 -105 33 -109 -4 -3 -19 -1 -34 5 -90 35 -187 21 -252 -35 -54 -46 -83
-103 -89 -179 -6 -82 9 -161 63 -333 25 -78 57 -188 71 -244 31 -125 60 -172
121 -199 130 -58 298 50 319 206 l6 43 67 -5 c79 -5 133 8 191 47 94 63 131
165 113 310 -18 136 -160 623 -216 736 -54 112 -178 169 -281 131z"/>
<path d="M2055 2346 c-73 -18 -112 -42 -184 -110 -67 -65 -172 -203 -196 -258
-7 -18 -33 -58 -56 -88 -142 -188 -234 -539 -199 -765 42 -274 182 -499 402
-645 207 -138 424 -171 684 -105 212 54 383 163 479 306 16 24 41 58 56 76 40
46 190 370 262 563 43 116 77 275 77 362 0 159 -77 295 -202 359 -31 17 -66
24 -128 27 -105 5 -166 -10 -350 -85 -74 -30 -140 -57 -147 -60 -7 -3 -17 17
-27 50 -18 62 -135 244 -192 299 -73 69 -183 99 -279 74z m74 -469 c11 -18 27
-66 37 -107 22 -100 53 -159 111 -210 67 -59 100 -74 163 -74 47 -1 79 10 220
71 182 79 318 129 326 120 3 -3 -6 -48 -20 -99 -56 -211 -183 -518 -244 -590
-15 -18 -41 -51 -57 -73 -87 -117 -209 -177 -365 -178 -53 -1 -106 5 -140 16
-112 33 -264 156 -308 248 -74 154 -62 352 33 554 23 50 54 105 69 124 14 19
26 40 26 47 0 18 114 184 126 184 1 0 11 -15 23 -33z"/>
</g>
</svg>
