<?xml version="1.0" standalone="no"?>
<!DOCTYPE svg PUBLIC "-//W3C//DTD SVG 20010904//EN"
 "http://www.w3.org/TR/2001/REC-SVG-20010904/DTD/svg10.dtd">
<svg version="1.0" xmlns="http://www.w3.org/2000/svg"
 width="600.000000pt" height="600.000000pt" viewBox="0 0 600.000000 600.000000"
 preserveAspectRatio="xMidYMid meet">
<metadata>
Created by potrace 1.15, written by Peter Selinger 2001-2017
</metadata>
<g transform="translate(0.000000,600.000000) scale(0.100000,-0.100000)"
fill="#16364b" stroke="none">
<path d="M2747 5547 c-97 -56 -198 -323 -168 -443 38 -150 145 -201 401 -189
l135 6 -45 -42 c-118 -110 -226 -218 -274 -273 -68 -78 -229 -284 -244 -313
-35 -65 13 -189 83 -219 19 -8 92 -19 162 -24 180 -15 501 -56 612 -79 98 -20
130 -17 178 14 74 49 67 186 -12 235 -53 33 -430 100 -560 100 -24 0 -47 5
-50 10 -7 11 111 156 166 204 341 296 389 352 389 452 0 95 -43 159 -137 206
l-68 33 -217 -2 c-120 -2 -218 0 -218 3 0 3 18 40 40 81 30 57 40 88 40 122 0
115 -112 177 -213 118z"/>
<path d="M1577 5205 c-77 -32 -186 -106 -263 -178 -85 -79 -212 -250 -274
-368 -41 -80 -50 -105 -50 -148 0 -60 17 -98 60 -134 44 -38 89 -43 199 -22
53 9 151 19 219 22 115 5 122 5 122 -13 0 -11 -13 -75 -30 -142 -43 -177 -38
-244 22 -286 12 -9 19 -18 16 -22 -3 -3 -39 -14 -79 -24 -114 -30 -169 -84
-169 -167 0 -77 55 -145 128 -159 84 -16 309 50 519 152 140 68 166 91 184
157 23 85 -42 187 -129 202 -39 6 -54 2 -139 -39 -53 -26 -98 -45 -100 -42 -2
2 6 48 17 102 56 257 61 315 34 403 -11 38 -29 67 -62 100 -66 65 -128 85
-264 85 -60 1 -108 5 -108 10 0 6 42 51 94 102 66 65 113 101 160 124 70 35
121 84 132 126 4 14 4 46 1 72 -4 37 -12 53 -41 79 -31 29 -42 33 -88 33 -32
-1 -76 -10 -111 -25z"/>
<path d="M4325 4641 c-162 -44 -374 -138 -400 -177 -57 -87 -3 -205 106 -234
49 -13 63 -9 239 69 63 28 123 51 133 51 23 0 22 -14 -8 -107 -30 -97 -107
-247 -190 -374 -34 -53 -66 -106 -70 -118 -15 -48 5 -100 67 -171 33 -37 67
-72 76 -76 9 -4 137 -10 284 -14 163 -3 271 -9 278 -16 12 -12 -14 -79 -90
-233 -102 -206 -140 -299 -140 -344 0 -92 73 -161 163 -154 56 5 95 30 120 78
39 76 201 439 223 503 71 196 18 345 -142 406 -66 24 -248 49 -366 50 -42 0
-79 4 -82 9 -3 5 10 38 30 72 87 154 142 329 151 479 4 81 2 103 -16 151 -24
62 -74 118 -130 145 -52 26 -152 28 -236 5z"/>
<path d="M3764 3686 c-152 -38 -316 -216 -301 -327 19 -142 184 -175 267 -54
26 37 84 85 104 85 3 0 6 -18 6 -39 0 -55 -42 -181 -88 -266 -37 -69 -40 -71
-129 -115 -169 -84 -210 -128 -200 -216 13 -118 149 -182 252 -119 86 52 195
104 305 145 179 67 228 107 238 195 6 57 -28 128 -75 158 -34 22 -34 23 -26
72 4 28 8 97 8 155 0 92 -3 112 -26 160 -14 30 -38 70 -54 88 -60 71 -179 104
-281 78z"/>
<path d="M2535 3530 c-118 -19 -380 -115 -440 -162 -57 -44 -76 -144 -40 -205
23 -39 82 -73 126 -73 19 0 61 12 94 26 127 54 282 103 335 106 55 3 55 3 58
-27 4 -40 -48 -185 -110 -309 -44 -87 -50 -106 -46 -147 9 -88 79 -146 166
-136 69 8 91 31 160 167 136 271 170 476 101 611 -25 51 -101 115 -157 133
-61 20 -172 27 -247 16z"/>
<path d="M1209 3249 c-111 -17 -289 -153 -319 -244 -40 -120 49 -239 179 -239
l53 0 -6 -106 c-4 -58 -17 -175 -28 -260 -29 -211 -31 -503 -5 -572 33 -84
118 -137 200 -124 45 8 146 65 163 93 6 10 35 63 64 118 69 131 139 237 235
360 101 129 198 245 205 245 3 0 11 -15 17 -32 40 -115 19 -354 -64 -722 -38
-173 -38 -207 -1 -262 44 -63 148 -96 206 -65 12 6 22 11 24 11 3 0 2 -26 0
-58 -7 -97 61 -430 119 -582 91 -240 230 -370 405 -378 40 -2 95 1 123 7 73
15 174 68 224 115 23 22 58 48 78 57 44 20 79 65 110 139 85 202 251 390 344
390 31 0 139 -47 211 -92 52 -33 137 -64 211 -77 70 -13 143 -2 211 31 63 32
137 116 151 172 7 28 18 47 29 50 10 4 33 21 52 39 76 74 91 178 40 285 -41
86 -60 156 -60 218 0 53 0 53 38 64 20 6 100 17 176 25 165 18 202 27 279 68
130 69 217 231 217 405 0 103 -32 169 -103 216 -90 58 -214 57 -297 -1 -49
-35 -90 -111 -90 -169 l0 -42 -92 -7 c-232 -18 -404 -106 -506 -259 -62 -92
-85 -173 -85 -291 1 -102 10 -149 55 -288 43 -130 36 -135 -83 -63 -131 79
-186 98 -299 104 -109 5 -188 -12 -285 -60 -164 -81 -290 -224 -420 -479 -45
-88 -60 -109 -85 -117 -16 -6 -45 -22 -63 -36 -19 -15 -38 -26 -43 -26 -14 0
-48 58 -77 130 -28 72 -90 316 -107 426 -13 82 -34 120 -85 160 -51 38 -134
45 -193 15 -23 -12 -43 -21 -46 -21 -2 0 4 33 15 73 56 220 92 500 92 717 0
157 -11 233 -50 350 -46 139 -131 214 -242 212 -123 -1 -237 -86 -418 -309
-42 -51 -76 -93 -78 -93 -1 0 0 114 3 253 5 285 -1 340 -51 414 -59 88 -146
127 -248 112z"/>
<path d="M3120 2589 c-94 -11 -248 -49 -409 -102 -108 -35 -130 -45 -167 -82
-85 -86 -83 -213 5 -288 29 -24 87 -47 121 -47 8 0 100 29 205 65 182 62 327
97 341 82 4 -4 -9 -51 -29 -105 -20 -53 -39 -111 -42 -129 -23 -116 104 -237
230 -219 85 13 135 64 184 187 86 218 83 390 -10 502 -90 109 -242 157 -429
136z"/>
</g>
</svg>
