<?xml version="1.0" standalone="no"?>
<!DOCTYPE svg PUBLIC "-//W3C//DTD SVG 20010904//EN"
 "http://www.w3.org/TR/2001/REC-SVG-20010904/DTD/svg10.dtd">
<svg version="1.0" xmlns="http://www.w3.org/2000/svg"
 width="600.000000pt" height="600.000000pt" viewBox="0 0 600.000000 600.000000"
 preserveAspectRatio="xMidYMid meet">
<metadata>
Created by potrace 1.15, written by Peter Selinger 2001-2017
</metadata>
<g transform="translate(0.000000,600.000000) scale(0.100000,-0.100000)"
fill="#16364b" stroke="none">
<path d="M1740 5824 c-38 -14 -61 -29 -74 -49 -23 -35 -156 -558 -171 -672
-10 -77 14 -151 64 -196 107 -96 242 -60 408 110 80 82 307 376 323 418 27 71
0 159 -59 190 -38 19 -104 19 -141 0 -16 -8 -72 -73 -126 -145 -53 -72 -98
-129 -100 -127 -3 3 40 171 65 257 6 19 11 48 11 64 0 39 -38 103 -75 126 -33
20 -100 33 -125 24z"/>
<path d="M3035 5619 c-58 -51 -66 -136 -17 -195 9 -12 103 -83 207 -159 229
-167 300 -227 348 -297 52 -76 51 -79 -13 -81 -92 -3 -150 -61 -150 -149 0
-93 62 -140 185 -141 165 -2 288 95 310 245 16 108 -46 256 -154 368 -55 56
-395 318 -536 413 -59 40 -131 38 -180 -4z"/>
<path d="M831 5434 c-98 -35 -164 -96 -212 -198 -39 -83 -51 -151 -47 -264 3
-83 8 -105 33 -157 35 -70 123 -163 180 -190 53 -26 127 -25 163 2 39 29 72
81 72 115 0 45 -34 102 -79 131 -22 15 -48 39 -57 53 -36 55 -11 157 48 193
12 8 53 15 90 17 85 3 123 24 156 84 44 82 6 185 -79 216 -49 18 -214 16 -268
-2z"/>
<path d="M2959 5174 c-84 -25 -179 -153 -195 -261 -14 -98 33 -185 124 -230
115 -56 303 -26 359 58 24 37 25 45 20 127 -9 151 -60 247 -159 296 -58 29
-83 31 -149 10z"/>
<path d="M4755 4844 c-74 -48 -80 -63 -78 -199 3 -253 109 -479 255 -545 124
-56 282 11 350 148 19 39 23 63 23 137 0 80 -3 97 -31 155 -55 115 -175 228
-317 296 -90 43 -146 45 -202 8z"/>
<path d="M2009 4807 c-152 -52 -203 -132 -146 -231 39 -69 129 -95 210 -61 60
25 99 19 122 -17 48 -75 157 -90 219 -29 87 85 64 229 -49 307 -84 58 -238 71
-356 31z"/>
<path d="M2845 4084 c-133 -34 -205 -109 -205 -214 0 -84 45 -149 149 -214 90
-57 258 -84 407 -66 129 16 290 63 332 97 95 77 95 203 -1 262 -47 29 -187 79
-302 107 -97 25 -327 41 -380 28z"/>
<path d="M1065 4051 c-108 -15 -168 -79 -168 -179 0 -67 18 -107 67 -150 42
-36 86 -47 167 -39 32 3 59 2 59 -3 0 -8 -88 -109 -220 -255 -123 -135 -352
-451 -386 -532 -33 -76 -4 -171 68 -223 l43 -32 115 7 c82 5 124 12 145 24 17
10 136 90 265 179 l234 161 41 -33 c53 -44 68 -91 61 -181 -10 -130 -75 -295
-170 -440 -67 -100 -203 -233 -271 -264 -87 -39 -100 -49 -122 -92 -28 -51
-29 -92 -5 -139 46 -92 149 -104 283 -34 90 47 242 190 335 313 35 47 86 130
113 186 91 185 126 341 119 534 l-3 109 26 6 c34 6 85 50 107 90 13 25 16 59
17 171 0 130 -2 144 -25 189 -17 33 -40 59 -69 78 -90 56 -177 34 -401 -100
-46 -28 -86 -50 -88 -48 -2 3 24 39 58 81 145 184 193 274 193 371 0 108 -59
182 -179 225 -48 17 -88 22 -209 24 -82 2 -172 0 -200 -4z"/>
<path d="M4227 3779 c-129 -26 -230 -96 -278 -194 -29 -59 -31 -70 -27 -142 7
-124 70 -227 172 -281 74 -39 178 -38 258 1 114 56 217 205 274 394 25 85 26
95 13 129 -8 20 -31 51 -52 68 l-39 31 -136 2 c-76 1 -159 -3 -185 -8z m43
-296 c0 -14 -34 -43 -52 -43 -27 0 -22 17 10 34 30 17 42 19 42 9z"/>
<path d="M3394 3396 c-17 -8 -45 -31 -62 -52 -35 -42 -108 -186 -128 -251 -20
-65 8 -138 64 -166 37 -19 149 -29 193 -17 85 24 160 126 180 246 13 79 4 129
-34 185 -41 62 -139 87 -213 55z"/>
<path d="M5018 3205 c-68 -35 -145 -94 -201 -154 -153 -164 -137 -405 33 -494
48 -25 64 -28 120 -25 85 5 149 36 221 107 154 154 172 386 40 524 -69 73
-130 85 -213 42z"/>
<path d="M3934 2542 c-82 -39 -133 -118 -134 -207 0 -27 13 -98 29 -157 15
-60 27 -108 26 -108 -1 0 -19 7 -38 15 -54 22 -152 19 -204 -6 -53 -25 -106
-92 -129 -161 -22 -67 -14 -181 20 -299 57 -192 138 -407 168 -443 45 -55 101
-80 178 -80 123 0 209 75 226 196 l6 43 67 1 c124 2 230 77 267 187 28 84 15
189 -51 417 -31 107 -75 260 -97 340 -49 176 -66 212 -120 247 -54 36 -153 43
-214 15z"/>
<path d="M2038 2345 c-104 -38 -272 -210 -352 -360 -15 -27 -45 -72 -66 -100
-43 -54 -129 -219 -156 -300 -101 -302 -91 -583 27 -782 73 -121 263 -275 451
-362 108 -51 185 -70 323 -77 130 -8 221 11 365 74 162 72 271 160 374 303 39
52 206 396 259 529 60 152 93 339 85 482 -9 151 -78 260 -203 319 -115 55
-270 34 -500 -66 l-100 -43 -11 32 c-22 62 -57 121 -112 191 -72 91 -106 122
-167 151 -58 28 -156 32 -217 9z m143 -532 c27 -115 59 -181 120 -247 57 -62
120 -92 170 -82 18 3 99 46 181 96 139 83 278 143 294 127 19 -18 -47 -277
-111 -437 -161 -404 -343 -561 -606 -522 -154 22 -360 156 -419 272 -34 66
-38 171 -11 283 29 121 90 273 156 387 30 52 55 98 55 103 0 9 66 104 93 134
l20 22 18 -23 c11 -13 28 -64 40 -113z"/>
</g>
</svg>
