<?xml version="1.0" standalone="no"?>
<!DOCTYPE svg PUBLIC "-//W3C//DTD SVG 20010904//EN"
 "http://www.w3.org/TR/2001/REC-SVG-20010904/DTD/svg10.dtd">
<svg version="1.0" xmlns="http://www.w3.org/2000/svg"
 width="600.000000pt" height="600.000000pt" viewBox="0 0 600.000000 600.000000"
 preserveAspectRatio="xMidYMid meet">
<metadata>
Created by potrace 1.15, written by Peter Selinger 2001-2017
</metadata>
<g transform="translate(0.000000,600.000000) scale(0.100000,-0.100000)"
fill="#16364b" stroke="none">
<path d="M3019 5080 c-81 -43 -139 -147 -139 -248 0 -43 5 -58 25 -77 13 -14
34 -25 47 -25 74 0 193 135 219 249 10 43 -5 97 -31 111 -29 15 -81 11 -121
-10z m85 -36 c41 -16 -1 -128 -74 -202 -42 -41 -76 -60 -88 -47 -14 14 -4 103
16 141 23 44 67 92 97 105 26 10 30 10 49 3z"/>
<path d="M1780 4639 c-56 -25 -95 -62 -123 -114 -17 -32 -22 -57 -22 -125 0
-77 3 -92 36 -160 91 -187 118 -353 129 -800 5 -184 14 -364 21 -400 8 -42 13
-214 14 -490 3 -562 22 -703 130 -928 118 -245 288 -372 548 -407 40 -5 47 -9
42 -23 -4 -9 -10 -62 -12 -118 -7 -124 10 -211 78 -420 27 -83 49 -158 49
-167 0 -14 -11 -17 -67 -17 -90 0 -136 -14 -167 -51 -47 -55 -26 -138 40 -159
48 -16 140 -6 204 21 96 41 161 143 145 227 -4 20 -26 101 -50 181 -72 238
-86 355 -58 492 l6 31 81 -7 c45 -3 182 -15 306 -27 162 -14 275 -19 403 -16
158 4 177 2 171 -11 -3 -9 -8 -56 -11 -106 -6 -105 16 -225 74 -413 20 -64 38
-129 41 -145 l4 -27 -97 0 c-97 0 -97 0 -131 -34 -65 -65 -29 -146 70 -161 92
-14 233 29 281 87 52 61 52 88 1 243 -91 279 -115 433 -87 551 l12 51 102 21
c56 12 190 39 298 61 222 46 281 65 365 120 144 93 220 233 244 444 21 178
-32 411 -119 527 -82 109 -243 197 -545 300 -115 39 -238 86 -275 104 -36 19
-158 73 -271 121 -343 145 -505 250 -725 470 -139 138 -196 217 -296 411 -135
264 -187 348 -334 544 -39 52 -92 127 -118 167 -79 120 -164 173 -277 173 -44
0 -80 -7 -110 -21z m156 -148 c47 -22 95 -76 129 -147 13 -28 31 -57 40 -64
20 -17 179 -234 240 -329 24 -38 80 -137 124 -221 98 -185 149 -262 244 -371
204 -233 444 -413 722 -542 464 -214 470 -217 705 -297 197 -67 366 -148 434
-209 46 -42 92 -136 112 -230 52 -245 -49 -499 -233 -586 -30 -14 -107 -36
-171 -50 -65 -13 -171 -35 -237 -49 -290 -62 -380 -71 -675 -70 -152 0 -326 6
-390 13 -63 7 -205 16 -315 20 -223 9 -276 21 -370 86 -125 86 -224 270 -276
517 -24 110 -27 239 -18 743 3 133 -1 247 -9 310 -7 55 -17 228 -22 385 -9
295 -23 420 -66 600 -30 129 -59 217 -96 295 -34 73 -37 131 -7 169 38 48 73
55 135 27z"/>
<path d="M2550 2657 c-37 -19 -39 -69 -4 -102 33 -31 68 -32 88 -3 24 34 20
73 -10 97 -31 24 -40 25 -74 8z"/>
<path d="M2977 2422 c-24 -27 -21 -59 9 -87 33 -31 57 -32 84 -3 25 27 26 70
2 91 -25 22 -75 21 -95 -1z"/>
<path d="M5217 3965 c-150 -41 -221 -181 -184 -361 27 -125 77 -204 159 -250
46 -25 63 -29 123 -28 104 2 176 33 251 108 75 75 104 144 104 244 0 118 -60
207 -184 271 -52 28 -67 31 -140 30 -44 0 -103 -7 -129 -14z m156 -293 c16 -7
16 -9 2 -30 -27 -38 -65 -24 -65 24 0 15 32 18 63 6z"/>
<path d="M4197 3746 c-136 -37 -239 -184 -224 -318 12 -102 75 -194 162 -241
30 -16 58 -22 115 -22 93 0 169 33 229 101 74 84 89 186 46 309 -30 85 -86
142 -165 168 -61 20 -97 20 -163 3z m81 -284 c4 -25 -34 -50 -51 -33 -7 7 -5
18 7 36 20 30 40 29 44 -3z"/>
<path d="M5321 1084 c-24 -30 -51 -114 -51 -156 0 -41 24 -93 51 -112 40 -28
78 -20 120 24 42 44 65 124 56 193 -8 60 -30 77 -98 77 -50 0 -60 -3 -78 -26z"/>
</g>
</svg>
