<?xml version="1.0" standalone="no"?>
<!DOCTYPE svg PUBLIC "-//W3C//DTD SVG 20010904//EN"
 "http://www.w3.org/TR/2001/REC-SVG-20010904/DTD/svg10.dtd">
<svg version="1.0" xmlns="http://www.w3.org/2000/svg"
 width="600.000000pt" height="600.000000pt" viewBox="0 0 600.000000 600.000000"
 preserveAspectRatio="xMidYMid meet">
<metadata>
Created by potrace 1.15, written by Peter Selinger 2001-2017
</metadata>
<g transform="translate(0.000000,600.000000) scale(0.100000,-0.100000)"
fill="#16364b" stroke="none">
<path d="M3128 5640 c-41 -22 -76 -85 -102 -187 -48 -183 -18 -317 89 -412 56
-49 124 -74 258 -96 20 -3 37 -9 37 -13 0 -4 -25 -22 -54 -39 -50 -31 -278
-195 -444 -321 -40 -30 -84 -69 -97 -87 -32 -41 -52 -160 -35 -210 21 -64 126
-133 265 -173 155 -45 490 -114 532 -109 130 14 174 169 75 259 -41 37 -95 52
-364 99 -71 12 -128 25 -128 28 1 10 220 175 310 233 47 30 122 75 167 99 171
92 224 145 231 233 7 91 -42 159 -154 215 -64 31 -121 47 -292 80 -57 11 -110
25 -118 32 -17 14 -15 27 23 145 30 93 27 136 -14 184 -51 61 -117 75 -185 40z"/>
<path d="M1413 5396 c-123 -58 -256 -168 -342 -286 -124 -168 -211 -421 -211
-617 0 -69 2 -75 35 -111 76 -85 200 -72 261 28 9 16 216 78 329 100 33 6 70
13 83 16 32 7 29 -9 -29 -127 -79 -160 -118 -270 -137 -386 -13 -72 -23 -108
-34 -114 -9 -5 -26 -24 -37 -43 -60 -96 19 -221 138 -219 36 1 78 17 186 71
77 38 195 93 263 122 73 32 135 65 152 83 92 94 3 267 -137 267 -23 0 -67 -13
-111 -35 -40 -19 -72 -30 -72 -24 0 5 31 78 70 162 105 231 121 317 76 412
-28 61 -56 87 -121 117 -44 20 -64 23 -175 21 -112 -1 -269 -24 -332 -48 -23
-9 -23 -3 3 48 60 118 149 215 269 292 55 35 76 55 90 88 24 52 24 71 1 123
-14 31 -30 47 -63 63 -57 27 -91 26 -155 -3z"/>
<path d="M4690 4473 c-104 -14 -376 -75 -397 -88 -61 -40 -82 -139 -43 -202
22 -37 86 -73 128 -73 17 0 85 12 151 26 67 14 125 23 128 20 10 -9 -75 -126
-207 -286 -67 -81 -125 -161 -131 -181 -22 -69 25 -147 102 -171 62 -18 109 1
168 70 267 308 342 408 403 537 27 58 32 82 33 142 0 64 -3 76 -30 115 -45 63
-99 89 -193 93 -42 2 -93 1 -112 -2z"/>
<path d="M3845 3684 c-76 -39 -112 -103 -100 -177 6 -37 21 -55 120 -152 68
-66 115 -120 119 -136 8 -36 68 -87 112 -95 68 -13 156 32 189 97 20 38 18
106 -4 154 -10 22 -43 65 -73 95 -34 34 -58 68 -62 87 -9 40 -52 77 -131 115
-68 32 -125 36 -170 12z"/>
<path d="M2511 3670 c-77 -16 -177 -60 -262 -113 -102 -64 -134 -113 -125
-191 6 -55 44 -112 84 -127 56 -22 109 -13 180 30 90 54 151 80 206 87 l46 7
0 -53 c0 -62 -51 -223 -106 -332 -20 -40 -84 -154 -141 -252 -64 -109 -107
-194 -110 -216 -7 -52 19 -100 84 -156 110 -94 161 -103 295 -53 179 67 308
104 308 90 0 -27 -70 -200 -122 -306 -51 -101 -61 -128 -60 -171 0 -29 7 -65
15 -80 61 -117 234 -139 324 -42 45 48 148 297 209 503 36 121 39 258 8 325
-28 60 -77 107 -144 138 -73 35 -228 42 -350 18 -45 -10 -84 -16 -85 -14 -2 2
26 64 62 138 144 300 164 445 80 603 -56 106 -156 168 -281 173 -39 2 -91 -1
-115 -6z"/>
<path d="M4510 3482 c-58 -26 -90 -75 -90 -140 0 -97 37 -128 259 -217 95 -38
176 -76 179 -84 7 -18 -23 -72 -140 -253 -101 -156 -112 -193 -83 -259 23 -50
69 -79 126 -79 67 0 100 27 180 147 40 59 101 150 135 201 73 109 98 174 98
257 0 76 -27 138 -85 194 -60 58 -134 97 -330 175 -157 63 -211 75 -249 58z"/>
<path d="M1129 3447 c-64 -18 -121 -54 -242 -152 -125 -102 -152 -144 -145
-230 11 -126 142 -199 263 -146 26 12 50 20 52 18 2 -2 -6 -33 -16 -68 -36
-116 -119 -452 -136 -549 -9 -52 -19 -154 -22 -227 -6 -129 -5 -133 21 -187
31 -63 62 -86 157 -116 83 -26 118 -25 160 3 61 41 472 597 565 764 16 29 32
53 35 53 3 0 12 -18 19 -40 11 -32 11 -56 0 -132 -12 -88 -25 -143 -121 -508
-98 -376 -42 -622 145 -638 136 -11 224 124 151 232 -18 26 -25 50 -25 84 0
87 38 306 99 569 16 70 34 156 41 190 15 87 14 247 -4 329 -8 38 -17 105 -20
149 -3 44 -10 96 -17 115 -30 88 -112 147 -193 138 -114 -13 -191 -91 -393
-397 -85 -128 -157 -231 -159 -228 -3 3 22 121 56 263 87 366 94 458 40 570
-54 110 -194 174 -311 141z"/>
<path d="M3700 3200 c-116 -25 -235 -126 -298 -252 -45 -92 -48 -117 -23 -172
17 -39 29 -50 67 -68 96 -42 188 -6 234 91 20 44 27 51 45 46 11 -4 52 -9 92
-12 108 -8 178 22 215 90 22 41 23 119 1 164 -19 41 -80 88 -132 103 -55 15
-151 20 -201 10z"/>
<path d="M4615 2196 c-91 -44 -145 -111 -145 -180 l0 -39 -42 6 c-24 3 -92 15
-152 26 -245 47 -396 12 -528 -121 -101 -102 -139 -208 -164 -462 -8 -89 -17
-167 -20 -175 -3 -9 -45 26 -117 98 -151 149 -199 180 -310 202 -129 24 -278
-49 -368 -182 -42 -63 -109 -195 -109 -216 0 -7 -4 -13 -10 -13 -5 0 -10 2
-10 5 0 3 -11 81 -25 173 -48 319 -88 418 -188 466 -101 47 -237 -14 -267
-122 -14 -53 -13 -70 14 -148 30 -87 49 -182 81 -404 42 -299 72 -377 184
-483 77 -72 144 -109 243 -133 78 -19 118 -14 175 23 62 40 86 90 85 178 -1
56 7 98 33 186 37 119 101 261 122 267 6 2 78 -62 158 -142 182 -181 234 -211
360 -211 67 0 89 4 137 28 55 27 148 116 148 141 0 7 19 30 42 51 22 22 49 58
59 80 21 49 44 173 59 325 7 63 17 118 24 122 19 13 58 9 213 -18 183 -31 307
-34 379 -6 178 67 284 232 284 442 0 74 -4 94 -27 141 -19 35 -43 64 -71 84
-38 26 -54 30 -120 33 -65 2 -85 -1 -127 -22z"/>
</g>
</svg>
