<?xml version="1.0" standalone="no"?>
<!DOCTYPE svg PUBLIC "-//W3C//DTD SVG 20010904//EN"
 "http://www.w3.org/TR/2001/REC-SVG-20010904/DTD/svg10.dtd">
<svg version="1.0" xmlns="http://www.w3.org/2000/svg"
 width="600.000000pt" height="600.000000pt" viewBox="0 0 600.000000 600.000000"
 preserveAspectRatio="xMidYMid meet">
<metadata>
Created by potrace 1.15, written by Peter Selinger 2001-2017
</metadata>
<g transform="translate(0.000000,600.000000) scale(0.100000,-0.100000)"
fill="#16364b" stroke="none">
<path d="M1661 5813 c-61 -32 -70 -55 -124 -314 -44 -216 -50 -259 -51 -374
-1 -155 12 -191 88 -242 41 -28 57 -33 109 -33 42 0 75 7 106 22 56 27 149
118 223 218 80 110 226 360 233 400 8 49 -28 119 -75 143 -44 23 -121 18 -151
-9 -11 -10 -45 -63 -76 -119 -31 -55 -76 -129 -101 -165 l-44 -65 6 57 c3 31
18 114 32 185 15 75 24 146 21 172 -11 101 -115 167 -196 124z"/>
<path d="M3164 5599 c-18 -5 -46 -25 -63 -44 -25 -29 -31 -44 -31 -83 0 -68
26 -101 126 -167 178 -116 333 -249 385 -332 l20 -31 -51 1 c-60 1 -96 -21
-124 -77 -40 -81 10 -159 128 -195 107 -33 197 -26 266 22 102 69 112 191 29
353 -74 144 -183 261 -376 405 -194 144 -243 168 -309 148z"/>
<path d="M915 5460 c-101 -21 -159 -52 -226 -119 -77 -78 -123 -166 -141 -272
-21 -119 18 -226 121 -332 100 -105 202 -117 273 -32 37 44 31 144 -11 183
-92 85 -91 83 -91 131 0 58 35 113 89 140 29 15 56 19 109 18 84 -2 114 15
150 84 38 73 15 151 -53 183 -40 19 -164 28 -220 16z"/>
<path d="M2979 5167 c-161 -45 -266 -258 -198 -403 39 -82 117 -120 228 -111
93 7 167 33 209 72 36 32 37 36 40 113 11 228 -114 374 -279 329z"/>
<path d="M4765 4846 c-37 -16 -83 -68 -91 -103 -11 -41 3 -263 21 -328 36
-138 119 -256 210 -300 49 -23 146 -31 202 -16 58 16 135 88 163 153 32 75 26
210 -13 290 -53 107 -161 206 -303 277 -87 44 -135 51 -189 27z"/>
<path d="M2275 4830 c-22 -12 -90 -34 -151 -49 -131 -34 -216 -72 -239 -108
-26 -40 -30 -94 -9 -138 34 -73 115 -94 211 -56 27 10 93 29 148 40 125 27
203 64 229 110 71 125 -63 268 -189 201z"/>
<path d="M2824 4105 c-73 -16 -110 -33 -148 -71 -59 -60 -75 -122 -50 -200 32
-104 152 -189 300 -215 130 -22 363 10 497 69 61 27 99 80 105 145 6 76 -21
110 -131 168 -199 104 -402 141 -573 104z"/>
<path d="M1000 4031 c-82 -44 -105 -168 -46 -245 41 -55 78 -69 186 -74 52 -2
99 -8 104 -12 5 -5 -118 -135 -282 -298 -159 -159 -304 -308 -321 -332 -42
-59 -49 -113 -21 -179 13 -28 36 -62 52 -76 54 -45 143 -45 197 1 l30 25 30
-22 c17 -13 50 -24 78 -26 46 -5 53 -2 131 51 45 31 84 56 86 56 3 0 12 -13
20 -28 8 -16 40 -48 70 -71 78 -61 101 -111 100 -221 -2 -142 -67 -284 -179
-388 -77 -71 -130 -96 -174 -81 -97 34 -191 -39 -191 -148 0 -86 58 -136 174
-149 58 -7 165 15 224 45 220 112 395 388 433 679 22 172 -27 320 -146 439
l-64 64 52 23 c28 13 69 29 90 37 38 13 40 13 62 -13 71 -83 193 -74 255 18
23 35 25 44 22 148 -3 128 -22 182 -75 215 -72 44 -99 40 -316 -48 -69 -28
-126 -50 -128 -48 -1 2 18 27 43 57 113 132 157 223 158 324 1 203 -153 297
-487 296 -109 -1 -138 -4 -167 -19z"/>
<path d="M4242 3790 c-116 -17 -237 -103 -290 -205 -67 -131 -9 -304 129 -380
49 -27 63 -30 144 -30 82 0 97 3 156 32 115 57 194 165 239 325 25 91 25 134
0 175 -27 45 -65 61 -177 78 -106 16 -121 16 -201 5z m23 -310 c-17 -19 -55
-28 -55 -14 0 12 35 33 54 34 18 0 18 -1 1 -20z"/>
<path d="M3392 3383 c-44 -21 -80 -69 -141 -187 -55 -107 -63 -153 -36 -207
26 -49 70 -69 150 -69 87 0 138 22 189 81 67 77 98 177 82 263 -8 44 -59 104
-103 122 -43 18 -101 17 -141 -3z"/>
<path d="M5060 3287 c-57 -21 -150 -85 -206 -143 -149 -152 -170 -355 -48
-462 55 -49 113 -66 207 -60 129 8 247 89 304 208 24 48 27 68 28 150 0 84 -3
101 -27 146 -37 71 -102 139 -149 158 -47 19 -63 19 -109 3z"/>
<path d="M2084 2494 c-22 -8 -67 -36 -100 -62 -72 -59 -257 -279 -290 -347
-14 -27 -51 -86 -84 -130 -131 -177 -191 -360 -206 -632 -14 -250 42 -414 197
-573 205 -212 485 -316 751 -281 214 29 416 139 613 335 177 177 227 274 295
576 63 277 72 337 69 455 -4 105 -6 115 -42 188 -46 94 -114 157 -194 182 -73
23 -172 16 -323 -23 -64 -17 -122 -32 -129 -34 -9 -2 -30 28 -57 83 -56 115
-127 187 -231 237 -66 31 -90 37 -153 39 -47 2 -90 -3 -116 -13z m133 -421
c49 -142 68 -177 125 -238 70 -76 125 -105 194 -105 28 0 124 18 213 40 194
48 201 48 201 15 0 -96 -93 -393 -175 -561 -47 -97 -65 -123 -142 -201 -131
-133 -225 -170 -404 -160 -75 4 -111 11 -153 30 -126 58 -230 149 -268 235
-68 153 4 460 148 638 25 31 55 76 65 99 11 24 35 63 55 87 126 151 129 154
141 121z"/>
<path d="M4002 2480 c-114 -46 -153 -153 -117 -320 7 -36 13 -66 11 -67 -1 -1
-20 4 -41 12 -103 37 -199 -6 -260 -116 -29 -52 -30 -58 -29 -179 1 -108 6
-143 37 -260 53 -202 92 -297 141 -345 92 -89 228 -85 315 10 22 24 43 55 47
69 5 21 12 26 38 26 47 0 145 28 184 52 48 30 89 91 103 154 17 74 2 167 -61
376 -26 91 -56 205 -65 254 -9 49 -23 122 -30 162 -16 86 -47 132 -105 162
-42 21 -127 26 -168 10z"/>
</g>
</svg>
