<?xml version="1.0" standalone="no"?>
<!DOCTYPE svg PUBLIC "-//W3C//DTD SVG 20010904//EN"
 "http://www.w3.org/TR/2001/REC-SVG-20010904/DTD/svg10.dtd">
<svg version="1.0" xmlns="http://www.w3.org/2000/svg"
 width="600.000000pt" height="600.000000pt" viewBox="0 0 600.000000 600.000000"
 preserveAspectRatio="xMidYMid meet">
<metadata>
Created by potrace 1.15, written by Peter Selinger 2001-2017
</metadata>
<g transform="translate(0.000000,600.000000) scale(0.100000,-0.100000)"
fill="#16364b" stroke="none">
<path d="M1713 5814 c-18 -9 -38 -26 -46 -38 -8 -11 -46 -122 -85 -246 -122
-387 -134 -463 -84 -561 22 -45 36 -59 82 -82 125 -65 249 -9 460 209 154 159
279 311 286 350 12 66 -24 137 -87 169 -36 19 -102 19 -138 1 -15 -8 -77 -70
-136 -137 -60 -67 -111 -117 -112 -112 -2 6 19 72 48 148 66 177 62 225 -24
289 -36 26 -122 32 -164 10z"/>
<path d="M3061 5628 c-53 -36 -73 -69 -73 -122 -1 -64 16 -85 163 -189 160
-114 306 -234 362 -300 44 -52 87 -115 87 -129 0 -5 -21 -8 -47 -8 -123 0
-196 -106 -144 -208 34 -67 82 -87 211 -87 111 0 160 16 218 69 81 73 90 224
23 370 -28 61 -132 199 -176 234 -12 10 -59 51 -102 90 -103 93 -167 143 -294
227 -122 81 -171 93 -228 53z"/>
<path d="M873 5435 c-124 -38 -245 -154 -289 -277 -72 -200 3 -419 180 -523
113 -66 236 -7 236 113 0 57 -11 76 -80 142 -71 67 -82 104 -52 174 27 60 70
86 140 86 105 0 163 51 170 152 8 106 -44 148 -178 147 -47 0 -104 -6 -127
-14z"/>
<path d="M2925 5171 c-87 -39 -173 -163 -183 -262 -7 -78 13 -133 69 -183 76
-69 164 -82 300 -47 59 16 81 27 107 55 30 34 32 40 32 114 0 207 -91 342
-229 342 -33 0 -73 -8 -96 -19z"/>
<path d="M4761 4858 c-78 -40 -86 -60 -85 -206 1 -143 18 -229 67 -331 74
-158 232 -240 378 -198 173 51 246 264 151 440 -35 65 -131 153 -234 215 -174
105 -210 115 -277 80z"/>
<path d="M2049 4820 c-77 -19 -149 -52 -173 -81 -54 -64 -53 -149 1 -201 54
-52 106 -59 196 -28 31 11 61 20 66 20 5 0 21 -20 35 -45 31 -52 75 -78 131
-78 95 0 150 69 143 179 -5 76 -44 145 -105 186 -73 49 -200 70 -294 48z"/>
<path d="M2898 4089 c-73 -10 -146 -48 -187 -94 -41 -47 -52 -77 -52 -142 0
-155 141 -244 408 -259 114 -7 192 2 352 37 77 17 100 27 132 56 70 63 76 146
15 206 -60 60 -357 177 -499 196 -87 12 -88 12 -169 0z"/>
<path d="M1044 4051 c-51 -9 -84 -30 -121 -77 -24 -32 -28 -46 -28 -105 0 -60
3 -71 31 -106 52 -63 86 -78 182 -77 45 1 82 -2 82 -5 0 -4 -60 -77 -133 -162
-207 -240 -465 -588 -488 -656 -26 -80 10 -172 84 -214 36 -19 47 -21 145 -15
l107 7 200 135 c110 74 239 161 287 195 l88 60 34 -26 c48 -36 60 -79 53 -189
-6 -105 -41 -224 -97 -336 -83 -164 -259 -374 -355 -423 -81 -41 -100 -68
-100 -140 0 -71 25 -115 81 -142 49 -23 84 -18 160 20 185 94 482 481 553 720
29 97 51 252 51 361 0 91 0 92 29 104 36 15 76 56 90 93 6 16 12 83 12 150 2
163 -19 215 -103 258 -78 40 -163 22 -355 -75 -62 -31 -118 -56 -124 -56 -6 0
16 29 49 64 80 86 158 206 172 268 16 66 8 163 -18 214 -41 81 -126 134 -242
153 -71 12 -260 13 -326 2z"/>
<path d="M4243 3799 c-208 -35 -337 -178 -319 -354 12 -120 92 -236 194 -283
48 -21 64 -24 125 -19 140 12 255 102 332 262 49 102 80 212 71 257 -16 80
-79 120 -216 137 -95 12 -113 12 -187 0z m5 -336 c-28 -27 -60 -24 -36 4 13
16 50 33 57 27 3 -3 -7 -16 -21 -31z"/>
<path d="M3403 3404 c-53 -26 -101 -89 -156 -202 -73 -149 -70 -212 14 -274
19 -15 45 -19 110 -21 75 -1 89 1 130 25 76 44 132 133 151 237 13 71 2 133
-33 183 -44 61 -147 86 -216 52z"/>
<path d="M5016 3199 c-74 -40 -121 -72 -173 -122 -185 -175 -189 -413 -8 -510
60 -32 171 -30 247 5 120 55 207 173 229 307 20 125 -26 233 -135 319 -38 29
-107 30 -160 1z"/>
<path d="M3908 2555 c-77 -41 -128 -120 -128 -202 0 -16 15 -84 33 -151 19
-67 31 -122 28 -122 -3 0 -28 7 -55 15 -95 29 -170 13 -234 -48 -60 -57 -76
-100 -80 -219 -5 -129 15 -260 65 -432 45 -155 81 -233 126 -273 115 -101 319
-44 362 101 8 27 15 60 15 73 0 21 4 23 54 23 117 0 247 85 302 196 33 67 42
173 25 266 -28 144 -195 658 -234 716 -53 81 -182 107 -279 57z"/>
<path d="M2051 2379 c-18 -6 -50 -21 -70 -33 -71 -45 -261 -266 -306 -356 -10
-19 -32 -53 -50 -75 -82 -102 -175 -292 -211 -430 -29 -109 -27 -353 4 -460
30 -105 100 -246 157 -317 88 -109 235 -202 416 -262 160 -54 261 -69 419 -64
157 5 237 28 344 97 61 40 171 145 217 206 13 17 41 50 64 75 49 54 135 196
171 283 14 34 55 177 91 317 63 243 66 261 67 375 1 112 -1 124 -26 171 -70
133 -226 196 -395 161 -39 -9 -142 -43 -229 -76 -86 -34 -160 -61 -164 -61 -4
0 -12 19 -19 43 -18 60 -47 109 -129 219 -103 137 -170 186 -266 194 -28 2
-66 -1 -85 -7z m70 -475 c10 -9 35 -69 55 -133 35 -110 40 -119 96 -173 69
-68 103 -87 167 -95 56 -6 58 -6 324 93 183 68 237 84 237 68 0 -21 -47 -184
-86 -296 -83 -241 -137 -333 -286 -486 -88 -91 -228 -140 -360 -128 -186 17
-407 163 -455 299 -29 82 -23 275 11 390 29 99 72 189 111 235 15 18 34 47 43
65 19 37 115 177 121 177 3 0 12 -7 22 -16z"/>
</g>
</svg>
