<?xml version="1.0" standalone="no"?>
<!DOCTYPE svg PUBLIC "-//W3C//DTD SVG 20010904//EN"
 "http://www.w3.org/TR/2001/REC-SVG-20010904/DTD/svg10.dtd">
<svg version="1.0" xmlns="http://www.w3.org/2000/svg"
 width="600.000000pt" height="600.000000pt" viewBox="0 0 600.000000 600.000000"
 preserveAspectRatio="xMidYMid meet">
<metadata>
Created by potrace 1.15, written by Peter Selinger 2001-2017
</metadata>
<g transform="translate(0.000000,600.000000) scale(0.100000,-0.100000)"
fill="#16364b" stroke="none">
<path d="M3147 5646 c-53 -19 -74 -41 -112 -117 -49 -96 -68 -179 -62 -269 12
-189 124 -295 341 -321 74 -10 94 -15 84 -24 -7 -6 -71 -46 -143 -89 -168 -99
-290 -187 -391 -280 -95 -88 -109 -120 -93 -219 14 -85 32 -113 100 -157 75
-48 168 -79 379 -125 91 -20 205 -48 253 -62 86 -24 90 -25 133 -8 100 38 135
165 68 244 -33 39 -100 59 -354 106 -107 20 -199 40 -203 44 -11 11 218 183
325 245 46 26 129 73 186 104 171 92 222 150 222 253 0 108 -82 187 -240 233
-30 9 -120 23 -200 31 -80 8 -153 18 -164 21 -26 9 -16 57 35 165 34 72 41 95
36 125 -8 46 -46 88 -96 103 -47 14 -57 13 -104 -3z"/>
<path d="M1437 5436 c-57 -21 -179 -119 -247 -198 -157 -182 -252 -370 -309
-616 -40 -170 -28 -249 42 -293 47 -29 137 -23 175 13 60 57 472 162 472 120
0 -4 -21 -43 -46 -87 -100 -175 -162 -329 -179 -445 -4 -25 -18 -69 -32 -97
-19 -39 -24 -62 -19 -87 8 -44 41 -85 82 -102 71 -30 100 -21 371 108 148 71
270 135 289 153 95 90 22 265 -111 265 -24 0 -60 -13 -101 -36 -36 -20 -67
-34 -69 -32 -3 3 22 64 56 137 60 132 99 256 99 316 0 101 -77 202 -176 231
-79 23 -253 14 -386 -19 -54 -13 -98 -20 -98 -15 0 5 15 39 34 76 62 122 178
262 264 316 57 36 82 79 82 139 0 62 -23 111 -65 137 -45 28 -83 32 -128 16z"/>
<path d="M4630 4451 c-149 -35 -286 -74 -323 -93 -97 -49 -101 -203 -7 -266
43 -29 71 -27 225 22 61 19 112 32 114 30 3 -2 -10 -26 -29 -52 -18 -26 -96
-139 -173 -251 -122 -177 -141 -210 -144 -250 -5 -62 27 -118 85 -146 29 -14
40 -24 36 -35 -24 -61 -1 -152 48 -184 12 -8 84 -35 158 -60 169 -56 250 -92
250 -109 0 -18 -61 -112 -184 -282 -97 -134 -101 -142 -101 -192 0 -41 5 -57
25 -78 50 -55 116 -68 186 -36 35 16 59 46 171 207 166 241 188 276 208 347
32 112 -6 203 -115 277 -78 53 -139 80 -320 141 -80 27 -151 51 -158 54 -12 4
77 143 280 437 95 136 139 225 147 299 13 107 -20 178 -101 220 -48 24 -172
24 -278 0z"/>
<path d="M3809 3673 c-55 -34 -79 -126 -49 -185 7 -12 61 -71 121 -130 90 -89
109 -113 109 -137 0 -16 4 -41 9 -55 l10 -24 -54 24 c-148 68 -341 25 -472
-104 -71 -70 -123 -163 -123 -221 0 -113 109 -197 203 -157 42 17 81 56 103
102 23 48 53 77 73 68 30 -13 156 -16 199 -5 50 14 105 59 122 101 12 30 10
100 -4 133 -7 15 -5 16 19 7 104 -39 215 40 215 154 0 69 -32 132 -116 233
-38 45 -77 93 -87 107 -9 14 -48 44 -85 66 -55 32 -77 40 -118 40 -27 0 -60
-8 -75 -17z"/>
<path d="M2450 3634 c-106 -28 -267 -117 -309 -170 -61 -78 -43 -192 39 -234
60 -31 93 -25 215 35 116 58 217 87 237 67 15 -15 -6 -115 -44 -211 -16 -42
-88 -192 -160 -334 -116 -228 -130 -261 -125 -293 11 -65 49 -108 131 -149
112 -55 127 -55 311 4 88 28 177 54 198 58 l38 6 -16 -39 c-9 -21 -44 -91 -77
-154 -128 -239 -120 -220 -114 -274 10 -85 75 -153 174 -182 61 -18 101 -12
154 22 40 26 79 98 166 309 97 236 119 334 101 444 -18 115 -78 205 -171 257
-50 27 -59 29 -153 27 -62 -1 -130 -9 -180 -21 -44 -11 -81 -19 -83 -17 -2 2
25 68 61 147 76 168 93 218 108 317 27 182 -56 334 -209 381 -77 24 -210 26
-292 4z"/>
<path d="M1135 3441 c-57 -15 -110 -46 -215 -124 -133 -100 -157 -123 -181
-169 -23 -46 -25 -128 -3 -174 33 -69 119 -124 194 -124 14 0 43 9 65 20 21
11 40 18 43 16 4 -4 -44 -241 -98 -478 -57 -257 -75 -437 -51 -510 17 -53 68
-92 149 -117 139 -42 180 -27 297 112 102 121 141 176 330 472 80 126 148 231
150 233 2 2 10 -9 19 -26 18 -34 10 -140 -24 -312 -42 -220 -102 -674 -97
-739 16 -209 222 -319 313 -167 25 43 23 123 -5 169 -17 28 -21 46 -17 75 56
377 74 483 108 627 35 145 41 186 41 280 0 76 -5 127 -17 165 -9 30 -23 102
-31 158 -27 204 -107 279 -251 237 -48 -14 -69 -28 -124 -83 -92 -93 -222
-271 -369 -502 l-22 -35 6 55 c7 60 38 215 81 405 19 85 27 151 28 225 1 94
-2 111 -25 160 -30 63 -67 104 -123 132 -43 22 -125 31 -171 19z"/>
<path d="M4620 2214 c-19 -8 -50 -29 -68 -47 -33 -32 -72 -119 -72 -162 0 -29
3 -29 -125 -10 -143 23 -291 29 -357 17 -198 -38 -347 -213 -398 -469 -11 -55
-21 -121 -21 -145 -1 -23 -4 -56 -8 -72 l-6 -28 -85 77 c-153 138 -227 175
-351 175 -168 0 -296 -102 -420 -334 -23 -44 -44 -76 -45 -71 -2 6 -10 64 -18
130 -20 153 -46 254 -91 352 -40 87 -72 126 -127 154 -88 45 -199 4 -249 -93
-25 -49 -25 -136 0 -186 27 -54 47 -142 81 -362 48 -312 91 -437 186 -540 90
-97 253 -157 353 -130 91 24 153 114 150 217 -1 46 8 82 41 173 49 134 111
258 144 289 l23 22 151 -145 c113 -108 167 -152 214 -175 82 -41 174 -51 246
-27 68 23 152 85 182 135 14 23 39 61 56 84 18 23 36 58 42 77 14 43 29 163
37 290 8 114 11 127 33 135 10 3 85 -6 167 -20 186 -31 321 -34 397 -7 157 55
243 170 269 360 20 140 -5 230 -81 294 -66 57 -174 75 -250 42z"/>
</g>
</svg>
