<?xml version="1.0" standalone="no"?>
<!DOCTYPE svg PUBLIC "-//W3C//DTD SVG 20010904//EN"
 "http://www.w3.org/TR/2001/REC-SVG-20010904/DTD/svg10.dtd">
<svg version="1.0" xmlns="http://www.w3.org/2000/svg"
 width="600.000000pt" height="600.000000pt" viewBox="0 0 600.000000 600.000000"
 preserveAspectRatio="xMidYMid meet">
<metadata>
Created by potrace 1.15, written by Peter Selinger 2001-2017
</metadata>
<g transform="translate(0.000000,600.000000) scale(0.100000,-0.100000)"
fill="#16364b" stroke="none">
<path d="M2255 5846 c-16 -7 -52 -33 -80 -57 -27 -25 -122 -104 -210 -175
-208 -170 -473 -432 -503 -496 -58 -126 6 -240 152 -270 45 -9 82 -9 160 1
155 18 242 46 448 142 73 34 184 81 248 105 130 49 165 79 175 148 14 90 -59
176 -148 176 -19 0 -123 -34 -233 -75 -109 -41 -202 -74 -207 -72 -8 2 57 58
295 250 95 77 122 121 116 187 -6 60 -39 107 -92 131 -48 22 -80 23 -121 5z"/>
<path d="M3050 5648 c-79 -41 -102 -135 -50 -207 25 -37 61 -53 150 -70 246
-46 372 -130 400 -265 13 -62 2 -144 -25 -196 -42 -81 -146 -163 -289 -231
-112 -52 -146 -92 -146 -171 0 -59 30 -105 85 -129 53 -24 72 -20 180 34 308
152 464 341 482 583 12 167 -59 358 -176 475 -101 101 -187 139 -405 179 -138
25 -152 25 -206 -2z"/>
<path d="M977 5325 c-80 -30 -183 -92 -238 -142 -131 -122 -172 -250 -135
-424 30 -141 121 -271 248 -355 57 -38 82 -48 125 -52 99 -8 173 48 173 133 0
58 -27 102 -89 145 -31 21 -74 57 -95 80 -109 121 -82 219 84 305 98 51 130
92 130 167 0 109 -102 181 -203 143z"/>
<path d="M2677 4965 c-62 -23 -144 -84 -188 -138 -116 -146 -148 -316 -89
-472 29 -76 129 -180 210 -217 68 -32 172 -58 229 -58 90 0 151 56 151 138 0
82 -54 143 -142 161 -135 29 -200 90 -179 168 15 55 47 89 126 136 107 64 130
132 72 218 -23 36 -97 79 -132 78 -11 0 -37 -7 -58 -14z"/>
<path d="M4775 4938 c-42 -23 -86 -74 -96 -111 -12 -44 1 -187 26 -281 35
-134 119 -258 209 -311 96 -56 207 -39 299 45 171 156 121 399 -114 555 -143
96 -267 135 -324 103z"/>
<path d="M1840 4444 c-51 -10 -116 -38 -161 -70 -52 -38 -120 -130 -139 -188
-38 -116 50 -222 163 -197 43 10 53 17 123 88 78 79 107 80 224 13 97 -56 220
15 220 125 0 112 -156 221 -329 230 -42 2 -87 1 -101 -1z"/>
<path d="M2514 3820 c-56 -28 -78 -71 -72 -139 6 -60 29 -96 78 -122 28 -15
57 -19 145 -19 131 0 152 -9 142 -60 -20 -100 -175 -335 -354 -537 -79 -89
-93 -115 -93 -178 0 -108 85 -173 191 -145 107 29 375 354 500 605 82 164 99
310 50 421 -60 134 -190 194 -426 194 -101 0 -127 -3 -161 -20z"/>
<path d="M4180 3786 c-111 -31 -211 -111 -257 -204 -70 -143 -4 -321 142 -388
135 -62 308 -28 437 85 75 66 188 252 203 332 8 44 -28 117 -70 141 -71 40
-356 61 -455 34z m77 -311 c-30 -26 -52 -32 -62 -15 -7 11 48 39 75 39 10 0 5
-8 -13 -24z"/>
<path d="M1155 3729 c-49 -12 -152 -49 -227 -82 -82 -36 -118 -89 -118 -171 0
-76 27 -128 88 -171 39 -27 52 -30 118 -30 89 0 90 13 -8 -175 -39 -74 -104
-198 -144 -275 -105 -203 -166 -378 -166 -477 1 -77 58 -162 125 -187 16 -6
54 -11 86 -11 46 0 66 5 97 26 21 15 41 30 44 33 3 4 61 56 130 116 69 59 225
208 348 329 l222 221 0 -42 c0 -85 -178 -736 -269 -982 -37 -102 -40 -155 -8
-201 46 -69 136 -89 209 -48 65 37 124 178 228 548 98 346 161 568 175 611 19
59 19 189 0 294 -28 158 -96 240 -207 252 -127 13 -217 -49 -440 -303 -50 -58
-93 -103 -95 -100 -2 2 23 66 55 142 110 256 134 331 139 424 6 95 -4 132 -53
189 -46 55 -114 81 -209 80 -44 -1 -98 -5 -120 -10z"/>
<path d="M3485 3352 c-84 -40 -142 -121 -174 -242 -31 -118 -35 -170 -16 -218
33 -81 116 -113 243 -95 152 22 251 81 296 177 62 131 6 304 -118 368 -59 31
-177 35 -231 10z"/>
<path d="M4843 2759 c-59 -17 -240 -258 -283 -377 l-21 -57 -52 50 c-86 84
-190 97 -287 37 -97 -60 -128 -164 -96 -331 25 -132 33 -125 -96 -80 -190 66
-318 52 -425 -44 -46 -42 -79 -105 -93 -178 -11 -59 -2 -143 31 -284 10 -44
25 -138 34 -210 8 -71 20 -147 25 -167 23 -83 102 -137 200 -138 113 0 218 98
228 213 3 34 -5 100 -22 182 -14 70 -24 130 -21 133 3 3 44 -14 91 -38 52 -26
106 -45 134 -48 52 -5 176 25 242 59 67 34 133 103 163 171 24 54 27 72 27
162 -1 55 -8 137 -16 181 -22 110 -23 108 30 80 102 -55 222 -18 333 100 76
81 126 184 142 286 16 109 3 147 -74 222 -84 82 -122 97 -194 76z"/>
<path d="M2900 2364 c-117 -32 -358 -140 -520 -234 -67 -39 -110 -93 -110
-139 0 -19 -6 -21 -55 -21 -77 0 -155 -32 -219 -91 -92 -83 -110 -181 -52
-270 33 -50 77 -77 138 -85 l47 -6 27 -115 c14 -63 25 -116 23 -117 -2 -2 -28
-16 -58 -31 -71 -36 -141 -107 -176 -180 -26 -53 -29 -71 -29 -155 0 -138 34
-229 153 -407 108 -161 220 -246 396 -299 77 -23 109 -27 220 -28 157 -1 234
18 389 95 122 61 161 96 182 164 20 63 8 119 -38 171 -72 81 -148 84 -302 12
-132 -61 -188 -69 -298 -43 -116 28 -189 73 -251 155 -70 93 -89 160 -44 160
25 0 54 -17 108 -66 73 -64 148 -68 254 -11 82 44 118 96 123 181 5 81 -18
130 -86 179 -98 70 -133 139 -197 392 -25 99 -45 183 -45 187 0 4 10 10 23 14
12 3 59 29 105 56 112 66 235 127 301 149 65 23 61 23 61 4 0 -21 -144 -411
-180 -488 -64 -134 -24 -254 99 -295 73 -25 154 -2 206 59 84 100 241 543 260
735 18 176 -64 329 -196 368 -65 20 -186 20 -259 0z"/>
</g>
</svg>
