<?xml version="1.0" standalone="no"?>
<!DOCTYPE svg PUBLIC "-//W3C//DTD SVG 20010904//EN"
 "http://www.w3.org/TR/2001/REC-SVG-20010904/DTD/svg10.dtd">
<svg version="1.0" xmlns="http://www.w3.org/2000/svg"
 width="600.000000pt" height="600.000000pt" viewBox="0 0 600.000000 600.000000"
 preserveAspectRatio="xMidYMid meet">
<metadata>
Created by potrace 1.15, written by Peter Selinger 2001-2017
</metadata>
<g transform="translate(0.000000,600.000000) scale(0.100000,-0.100000)"
fill="#16364b" stroke="none">
<path d="M1935 4946 c-143 -67 -202 -214 -162 -407 9 -41 30 -180 49 -309 32
-228 33 -243 29 -495 -5 -303 -6 -706 -3 -992 l2 -202 -38 -63 c-34 -57 -67
-115 -234 -422 -26 -49 -48 -92 -48 -96 0 -4 -9 -15 -21 -26 -11 -10 -18 -26
-16 -35 3 -11 -2 -19 -14 -22 -23 -6 -25 -30 -4 -47 14 -12 14 -15 -1 -31 -22
-24 -8 -42 27 -35 27 5 29 4 23 -19 -4 -18 -1 -27 10 -31 20 -8 105 80 106
108 0 10 46 106 101 214 108 208 119 218 119 112 0 -74 34 -271 66 -383 79
-278 254 -447 545 -526 l80 -22 -8 -71 c-19 -165 -3 -264 83 -529 25 -75 43
-141 40 -146 -3 -4 -45 -10 -94 -13 -131 -8 -172 -35 -172 -116 0 -29 7 -46
27 -66 33 -33 57 -39 138 -34 140 9 265 110 265 215 0 26 -21 110 -50 203 -64
199 -80 275 -80 375 0 76 11 150 24 162 3 4 23 1 44 -5 57 -18 674 -37 807
-25 61 5 112 9 113 7 2 -1 -1 -42 -8 -91 -15 -111 1 -235 56 -428 20 -71 37
-143 38 -160 l1 -30 -92 -5 c-88 -5 -95 -7 -125 -38 -41 -41 -45 -98 -10 -135
70 -75 261 -51 346 43 63 70 69 137 26 270 -77 235 -105 424 -80 539 l12 59
112 17 c350 52 410 65 486 102 239 116 367 425 315 757 -38 244 -116 399 -255
511 -33 27 -59 50 -57 51 2 2 66 -10 143 -27 89 -19 142 -36 148 -46 6 -12 19
-14 65 -8 91 11 102 15 100 39 0 11 0 23 1 26 1 3 4 21 5 41 l4 37 -50 6 c-34
5 -49 11 -49 22 0 20 -30 30 -40 14 -11 -17 -109 2 -370 71 -102 26 -229 58
-283 69 -87 18 -111 27 -200 84 -56 35 -155 94 -220 132 -472 276 -543 323
-672 449 -148 144 -323 384 -400 548 -24 51 -73 182 -110 292 -37 110 -73 211
-80 225 -7 14 -19 41 -26 60 -40 113 -131 219 -230 269 -82 41 -177 43 -254 7z
m182 -147 c65 -24 137 -120 163 -219 6 -25 18 -52 25 -60 8 -9 43 -101 78
-205 84 -250 125 -343 206 -467 223 -342 433 -532 861 -778 172 -99 427 -256
455 -280 11 -9 99 -64 195 -121 293 -174 364 -237 439 -386 59 -116 96 -322
80 -443 -25 -179 -106 -311 -232 -376 -70 -36 -482 -107 -776 -134 -155 -15
-689 -7 -761 10 -25 6 -79 15 -120 19 -206 24 -351 69 -455 140 -131 89 -202
229 -244 481 -18 105 -20 193 -26 1005 -5 635 -11 936 -21 1050 -23 267 -43
446 -59 531 -8 45 -12 96 -9 115 19 100 109 153 201 118z m-562 -2969 c3 -5 2
-10 -4 -10 -5 0 -13 5 -16 10 -3 6 -2 10 4 10 5 0 13 -4 16 -10z"/>
<path d="M2612 2728 c-32 -32 -3 -102 51 -121 44 -16 74 64 41 111 -17 25 -71
31 -92 10z"/>
<path d="M3060 2597 c-38 -19 -40 -77 -4 -106 36 -28 58 -27 83 5 26 34 27 68
1 94 -23 23 -45 25 -80 7z"/>
<path d="M5288 3990 c-111 -17 -201 -80 -242 -169 -16 -36 -21 -65 -21 -136 0
-82 3 -97 33 -157 40 -81 120 -159 188 -182 26 -9 76 -16 110 -16 156 0 283
102 329 264 68 234 -135 436 -397 396z m81 -301 c36 -13 37 -16 14 -41 -24
-26 -52 -23 -64 9 -8 23 -2 40 17 43 1 0 15 -5 33 -11z"/>
<path d="M5365 1123 c-49 -6 -73 -24 -95 -69 -64 -137 21 -282 134 -229 44 21
72 77 81 160 9 77 -5 112 -50 130 -19 8 -36 14 -37 14 -2 -1 -16 -4 -33 -6z"/>
</g>
</svg>
