<?xml version="1.0" standalone="no"?>
<!DOCTYPE svg PUBLIC "-//W3C//DTD SVG 20010904//EN"
 "http://www.w3.org/TR/2001/REC-SVG-20010904/DTD/svg10.dtd">
<svg version="1.0" xmlns="http://www.w3.org/2000/svg"
 width="600.000000pt" height="600.000000pt" viewBox="0 0 600.000000 600.000000"
 preserveAspectRatio="xMidYMid meet">
<metadata>
Created by potrace 1.15, written by Peter Selinger 2001-2017
</metadata>
<g transform="translate(0.000000,600.000000) scale(0.100000,-0.100000)"
fill="#16364b" stroke="none">
<path d="M3144 5656 c-52 -23 -80 -62 -98 -136 -34 -141 -14 -286 53 -383 47
-69 140 -127 284 -178 37 -13 67 -27 67 -30 0 -3 -23 -18 -51 -34 -76 -41
-309 -197 -436 -291 -103 -76 -143 -120 -143 -157 0 -7 -11 -28 -25 -47 -29
-40 -34 -113 -11 -159 45 -86 137 -124 348 -146 84 -8 200 -22 258 -31 57 -9
119 -14 137 -11 135 22 163 210 40 274 -31 16 -242 53 -307 53 -96 1 -73 19
299 245 243 148 301 208 301 312 0 127 -110 219 -356 296 -131 41 -170 60
-176 84 -3 10 1 45 9 78 27 118 27 157 1 194 -12 19 -35 43 -49 54 -34 25
-105 31 -145 13z"/>
<path d="M1354 5391 c-88 -42 -191 -144 -279 -276 -91 -135 -187 -333 -214
-439 -25 -97 -28 -233 -6 -276 40 -77 151 -112 225 -72 58 32 80 74 80 154 0
62 2 68 18 60 45 -24 85 -21 215 13 152 40 193 44 182 18 -4 -10 -30 -82 -57
-159 -64 -187 -74 -297 -33 -395 5 -13 -8 -26 -54 -53 -75 -46 -105 -91 -106
-162 0 -59 20 -94 76 -132 55 -38 122 -28 234 38 96 56 358 190 373 190 17 0
73 68 82 101 29 97 -56 210 -157 209 -15 0 -59 -14 -97 -30 -103 -44 -107 -25
-33 155 78 192 97 255 97 329 0 232 -224 308 -568 195 -35 -12 -66 -19 -69
-16 -8 9 77 128 136 190 30 32 80 73 111 92 124 76 134 214 20 273 -59 29
-103 28 -176 -7z"/>
<path d="M4675 4499 c-134 -11 -286 -38 -320 -57 -33 -19 -75 -92 -75 -132 0
-46 42 -112 83 -133 37 -19 42 -19 140 -3 144 24 147 24 147 16 0 -8 -50 -69
-220 -270 -80 -95 -90 -114 -90 -171 0 -69 46 -128 114 -145 36 -9 110 20 137
54 11 15 75 85 142 156 209 221 287 340 295 448 10 130 -79 227 -218 240 -25
2 -85 0 -135 -3z"/>
<path d="M3853 3684 c-53 -35 -73 -71 -73 -132 0 -43 6 -58 43 -108 24 -33 99
-116 168 -186 100 -102 132 -129 164 -137 105 -27 196 58 180 168 -6 37 -17
56 -68 108 -56 59 -61 67 -62 112 -3 87 -50 139 -161 181 -77 28 -140 26 -191
-6z"/>
<path d="M2480 3676 c-137 -31 -307 -118 -340 -172 -24 -38 -26 -104 -5 -145
9 -16 34 -43 57 -59 63 -46 121 -42 238 14 96 47 187 73 215 62 14 -5 16 -14
10 -54 -21 -146 -127 -373 -319 -682 -62 -101 -62 -130 1 -245 6 -11 19 -39
29 -63 25 -60 82 -109 137 -117 39 -6 57 -2 129 30 160 72 293 125 315 125 21
0 21 0 -8 -76 -16 -42 -61 -143 -100 -225 -55 -116 -71 -158 -71 -194 0 -125
114 -215 234 -185 82 21 112 57 203 242 223 453 224 712 3 814 -57 26 -73 29
-163 28 -74 -1 -125 -8 -198 -28 -53 -14 -99 -26 -102 -26 -2 0 33 76 79 169
115 234 141 317 141 451 0 94 -3 111 -28 162 -33 68 -90 121 -165 156 -66 30
-204 39 -292 18z"/>
<path d="M1141 3459 c-114 -19 -360 -180 -400 -262 -33 -69 -22 -156 27 -210
51 -57 167 -75 230 -37 30 19 32 19 32 1 0 -10 -27 -110 -60 -221 -75 -255
-95 -351 -110 -517 -17 -184 -11 -270 20 -316 41 -60 184 -115 266 -102 88 13
203 148 393 462 147 241 251 387 265 373 26 -27 -11 -365 -76 -680 -49 -240
-60 -399 -33 -479 34 -104 133 -169 207 -138 84 36 121 134 84 222 -20 46 -10
108 58 381 31 121 63 264 72 319 31 184 20 620 -19 732 -30 87 -92 137 -172
137 -69 1 -115 -25 -209 -114 -99 -95 -199 -219 -311 -388 -49 -72 -90 -130
-92 -128 -5 5 55 243 93 371 88 295 85 410 -11 509 -70 72 -156 101 -254 85z"/>
<path d="M4534 3382 c-61 -38 -93 -121 -75 -189 15 -56 42 -76 156 -118 55
-20 133 -53 173 -72 58 -29 72 -40 72 -58 0 -23 -78 -140 -155 -230 -56 -66
-65 -86 -65 -137 0 -84 65 -145 142 -135 67 9 91 32 271 255 53 66 74 110 88
183 10 55 9 73 -5 124 -23 79 -74 155 -138 206 -29 23 -118 73 -197 112 -162
79 -215 91 -267 59z"/>
<path d="M3674 3216 c-111 -27 -210 -115 -269 -238 -57 -118 -42 -201 45 -245
86 -44 184 -16 223 64 19 39 25 44 47 39 147 -35 278 4 325 95 19 36 19 112 1
147 -35 67 -122 123 -221 141 -71 13 -85 13 -151 -3z"/>
<path d="M4604 2222 c-97 -34 -158 -105 -169 -198 -9 -64 -3 -63 -141 -32
-144 31 -324 31 -417 -1 -86 -29 -152 -74 -200 -137 -64 -83 -70 -117 -74
-399 -5 -326 -4 -315 -20 -315 -8 0 -53 37 -101 83 -114 108 -233 202 -291
231 -250 127 -464 32 -553 -246 -12 -37 -25 -68 -28 -68 -3 0 -16 57 -29 128
-71 399 -90 458 -162 508 -55 38 -157 46 -205 15 -54 -33 -87 -86 -92 -146 -5
-60 25 -234 89 -510 74 -321 122 -437 215 -513 94 -79 255 -127 342 -103 90
25 150 114 139 208 -5 40 3 74 44 200 28 84 54 155 59 158 10 6 131 -89 265
-206 39 -34 99 -76 135 -93 59 -28 74 -31 160 -31 88 0 101 3 162 33 74 36
152 114 163 161 4 19 20 38 48 55 46 29 86 81 107 136 9 23 14 98 16 220 l2
185 31 3 c18 2 75 -4 129 -13 53 -9 135 -20 182 -25 215 -22 381 53 457 208
26 54 28 65 28 192 0 142 -6 170 -52 241 -48 73 -148 103 -239 71z"/>
</g>
</svg>
