<?xml version="1.0" standalone="no"?>
<!DOCTYPE svg PUBLIC "-//W3C//DTD SVG 20010904//EN"
 "http://www.w3.org/TR/2001/REC-SVG-20010904/DTD/svg10.dtd">
<svg version="1.0" xmlns="http://www.w3.org/2000/svg"
 width="600.000000pt" height="600.000000pt" viewBox="0 0 600.000000 600.000000"
 preserveAspectRatio="xMidYMid meet">
<metadata>
Created by potrace 1.15, written by Peter Selinger 2001-2017
</metadata>
<g transform="translate(0.000000,600.000000) scale(0.100000,-0.100000)"
fill="#16364b" stroke="none">
<path d="M1544 5771 c-47 -22 -70 -61 -123 -216 -80 -236 -82 -419 -5 -487
117 -104 282 -11 511 288 107 140 119 173 86 241 -19 42 -82 75 -126 66 -35
-7 -64 -35 -162 -161 -44 -57 -81 -99 -82 -95 -2 5 15 62 37 128 46 136 46
135 24 180 -30 64 -94 86 -160 56z"/>
<path d="M799 5514 c-97 -34 -198 -135 -241 -244 -33 -81 -33 -237 0 -298 76
-142 198 -200 276 -132 63 55 56 119 -19 188 -40 36 -45 46 -45 83 0 50 36
118 80 149 46 33 92 36 137 10 95 -56 192 -3 193 106 0 53 -26 87 -93 121 -67
34 -215 42 -288 17z"/>
<path d="M3450 5403 c-28 -10 -59 -46 -70 -79 -13 -40 0 -92 29 -118 12 -11
18 -31 18 -55 0 -85 101 -212 208 -263 105 -49 198 -33 245 44 37 61 21 142
-50 248 -55 82 -120 136 -222 185 -86 42 -122 51 -158 38z"/>
<path d="M2333 5335 c-43 -30 -47 -51 -44 -215 3 -176 -10 -252 -59 -354 -39
-83 -97 -138 -199 -189 -70 -35 -89 -50 -104 -80 -17 -33 -17 -42 -5 -79 16
-51 65 -88 115 -88 57 0 199 80 271 152 74 74 142 202 172 323 27 105 43 290
34 394 -6 71 -11 88 -33 114 -34 37 -112 49 -148 22z"/>
<path d="M2962 5141 c-108 -37 -197 -162 -197 -276 0 -160 147 -242 315 -175
117 46 142 87 142 230 1 119 -44 195 -129 224 -58 20 -65 20 -131 -3z"/>
<path d="M4795 4800 c-17 -5 -44 -23 -60 -40 l-30 -31 0 -167 c1 -224 26 -311
121 -412 116 -124 296 -123 391 3 99 132 58 307 -112 482 -74 75 -201 162
-251 169 -16 3 -43 1 -59 -4z m211 -441 c8 -17 13 -36 11 -42 -3 -10 -47 62
-47 78 0 13 21 -8 36 -36z"/>
<path d="M2740 4207 c-80 -19 -122 -40 -170 -84 -54 -48 -79 -103 -80 -171 0
-117 78 -208 216 -248 149 -43 341 19 485 156 70 67 85 108 63 180 -21 72 -60
100 -190 138 -128 37 -244 47 -324 29z"/>
<path d="M1046 4070 c-77 -50 -83 -167 -15 -245 33 -37 55 -45 180 -65 120
-19 123 -26 35 -84 -83 -55 -222 -121 -318 -151 -111 -35 -148 -70 -148 -143
0 -64 28 -108 87 -134 56 -25 88 -21 215 28 104 39 215 96 300 155 32 21 60
39 63 39 3 0 5 -12 5 -26 0 -42 30 -94 72 -121 21 -14 47 -41 59 -59 58 -94
220 -147 343 -113 56 15 128 91 145 152 28 98 -12 232 -91 302 -91 83 -210
112 -313 77 -33 -11 -61 -19 -63 -18 -1 2 2 15 8 30 16 44 12 116 -11 162 -41
86 -126 136 -332 198 -134 41 -179 44 -221 16z"/>
<path d="M4172 3770 c-73 -26 -114 -53 -164 -109 -59 -66 -82 -133 -76 -224 6
-86 32 -147 89 -205 65 -68 110 -87 209 -87 76 0 91 3 138 30 105 58 197 195
227 340 28 134 13 205 -52 238 -79 41 -280 50 -371 17z m108 -287 c0 -13 -43
-53 -57 -53 -23 0 -10 33 17 47 28 14 40 16 40 6z"/>
<path d="M5129 3496 c-131 -46 -223 -126 -275 -240 -23 -51 -26 -68 -22 -135
7 -120 59 -200 168 -256 48 -26 159 -26 225 -1 102 38 191 131 220 230 23 76
19 192 -8 243 -29 55 -123 152 -164 169 -44 19 -67 17 -144 -10z"/>
<path d="M3415 3390 c-39 -15 -94 -89 -140 -186 -26 -54 -49 -113 -52 -131
-10 -63 34 -123 101 -135 40 -8 129 15 170 43 66 45 126 170 126 263 0 110
-107 186 -205 146z"/>
<path d="M2485 3313 c-148 -62 -282 -216 -354 -409 -67 -176 -111 -235 -224
-294 -211 -110 -357 -250 -446 -428 -101 -201 -150 -458 -121 -632 15 -94 63
-245 104 -330 110 -230 450 -393 816 -393 113 1 151 5 233 26 288 76 494 273
620 592 96 242 121 391 114 675 -8 291 -40 485 -110 653 -19 45 -47 111 -62
147 -106 252 -270 399 -454 407 -55 2 -87 -2 -116 -14z m145 -420 c17 -26 30
-52 30 -58 0 -6 21 -54 46 -106 63 -129 81 -177 110 -290 59 -236 48 -526 -32
-789 -91 -299 -300 -472 -539 -445 -228 25 -428 144 -486 290 -20 52 -23 76
-23 180 1 109 4 129 34 220 59 173 151 284 304 365 147 78 275 196 342 316 19
34 54 116 79 183 75 203 85 213 135 134z"/>
<path d="M553 2409 c-42 -12 -73 -53 -73 -95 0 -19 -5 -34 -10 -34 -25 0 -60
-50 -60 -85 0 -67 108 -314 189 -434 137 -201 372 -278 520 -171 120 87 116
283 -8 472 -82 125 -190 212 -376 304 -100 49 -135 57 -182 43z m202 -324
c113 -80 205 -204 205 -275 0 -39 -24 -40 -78 -1 -48 35 -116 129 -166 228
-35 71 -42 93 -30 93 4 0 35 -20 69 -45z"/>
<path d="M4315 2105 c-38 -13 -66 -38 -91 -81 -11 -19 -12 -19 -33 0 -27 24
-115 33 -164 17 -46 -15 -93 -69 -107 -121 -12 -44 -9 -63 36 -295 28 -141 38
-167 79 -205 15 -14 33 -39 40 -56 17 -40 71 -101 106 -120 43 -22 127 -18
174 9 88 50 126 150 144 382 6 72 16 180 23 241 11 109 11 112 -11 150 -25 42
-50 63 -96 81 -39 15 -52 15 -100 -2z"/>
</g>
</svg>
