<?xml version="1.0" standalone="no"?>
<!DOCTYPE svg PUBLIC "-//W3C//DTD SVG 20010904//EN"
 "http://www.w3.org/TR/2001/REC-SVG-20010904/DTD/svg10.dtd">
<svg version="1.0" xmlns="http://www.w3.org/2000/svg"
 width="600.000000pt" height="600.000000pt" viewBox="0 0 600.000000 600.000000"
 preserveAspectRatio="xMidYMid meet">
<metadata>
Created by potrace 1.15, written by Peter Selinger 2001-2017
</metadata>
<g transform="translate(0.000000,600.000000) scale(0.100000,-0.100000)"
fill="#16364b" stroke="none">
<path d="M1883 4771 c-17 -4 -52 -20 -77 -35 -117 -69 -155 -200 -100 -351 37
-105 52 -186 79 -434 14 -124 29 -260 35 -301 9 -60 18 -395 32 -1140 1 -14
-3 -111 -7 -215 -10 -249 6 -471 40 -530 12 -22 24 -49 26 -60 3 -11 12 -20
23 -20 13 0 24 -16 40 -61 73 -200 221 -320 484 -390 l102 -27 0 -160 c0 -188
19 -334 61 -457 41 -125 43 -120 -50 -120 -65 0 -84 -4 -112 -23 -71 -47 -61
-134 20 -170 92 -41 255 2 308 82 41 61 40 90 -10 224 -24 67 -51 156 -58 197
-13 71 -20 393 -9 403 3 2 122 0 265 -6 143 -5 361 -10 485 -11 l225 -1 1
-145 c0 -166 17 -266 69 -422 19 -56 35 -106 35 -110 0 -5 -36 -8 -80 -8 -125
0 -179 -30 -180 -100 0 -75 58 -114 168 -113 134 2 245 79 259 181 4 30 -4 67
-30 145 -65 191 -98 415 -79 526 6 35 13 66 15 68 3 2 60 12 128 23 202 31
429 80 483 104 190 86 301 259 328 514 13 127 -3 246 -52 394 -27 82 -29 91
-15 111 25 35 18 52 -45 110 -139 129 -329 231 -635 342 -135 48 -659 344
-919 518 -158 106 -239 189 -372 382 -162 236 -173 254 -340 570 -31 61 -75
138 -96 172 -20 35 -54 95 -74 134 -41 83 -111 162 -169 191 -44 23 -149 33
-202 19z m120 -155 c45 -19 91 -71 126 -143 17 -34 31 -65 31 -68 0 -4 11 -20
24 -36 13 -15 79 -135 145 -266 67 -131 148 -276 180 -323 33 -47 104 -150
158 -230 106 -157 191 -250 293 -320 95 -66 343 -220 430 -267 41 -22 107 -57
145 -78 119 -64 288 -161 328 -188 20 -14 88 -46 150 -72 306 -128 364 -162
471 -276 117 -124 166 -253 166 -435 0 -209 -95 -392 -235 -454 -51 -23 -353
-84 -560 -112 -142 -20 -198 -22 -490 -21 -181 1 -388 7 -460 13 -71 6 -179
15 -240 19 -350 27 -511 150 -590 451 -43 168 -56 268 -65 525 -5 138 -14 318
-20 400 -7 102 -8 228 -1 393 9 240 1 488 -18 614 -6 35 -20 142 -31 238 -28
233 -44 320 -81 426 -32 93 -33 127 -3 172 16 24 66 51 97 52 10 0 32 -6 50
-14z"/>
<path d="M2580 2687 c-45 -22 -39 -87 11 -112 37 -20 67 -11 80 22 13 35 11
48 -8 71 -24 27 -53 34 -83 19z"/>
<path d="M3016 2488 c-9 -12 -16 -30 -16 -39 0 -18 54 -69 71 -69 22 0 47 21
59 50 10 25 10 34 -4 55 -22 34 -87 36 -110 3z"/>
<path d="M5290 3981 c-91 -28 -175 -97 -219 -181 -30 -56 -33 -71 -33 -141 0
-67 5 -89 33 -149 33 -72 87 -132 150 -167 26 -14 55 -18 124 -18 76 0 99 5
146 27 110 51 177 146 199 282 20 129 -28 227 -154 310 -68 45 -71 46 -145 45
-42 0 -87 -4 -101 -8z m95 -301 c21 -8 24 -13 16 -29 -15 -27 -49 -33 -61 -11
-24 45 -7 60 45 40z"/>
<path d="M5343 1106 c-27 -20 -63 -114 -63 -167 0 -80 52 -128 123 -115 65 12
97 69 97 171 0 52 -4 69 -23 90 -29 34 -100 45 -134 21z"/>
</g>
</svg>
