<?xml version="1.0" standalone="no"?>
<!DOCTYPE svg PUBLIC "-//W3C//DTD SVG 20010904//EN"
 "http://www.w3.org/TR/2001/REC-SVG-20010904/DTD/svg10.dtd">
<svg version="1.0" xmlns="http://www.w3.org/2000/svg"
 width="600.000000pt" height="600.000000pt" viewBox="0 0 600.000000 600.000000"
 preserveAspectRatio="xMidYMid meet">
<metadata>
Created by potrace 1.15, written by Peter Selinger 2001-2017
</metadata>
<g transform="translate(0.000000,600.000000) scale(0.100000,-0.100000)"
fill="#16364b" stroke="none">
<path d="M2195 5808 c-36 -21 -298 -230 -385 -307 -294 -263 -374 -401 -307
-531 34 -68 85 -103 156 -108 73 -5 116 4 371 79 244 71 422 131 508 170 55
25 65 34 83 74 35 78 -1 164 -86 205 -59 29 -73 26 -299 -49 -99 -33 -182 -59
-184 -57 -4 4 91 81 271 220 106 82 125 130 91 217 -25 60 -83 99 -148 99 -28
0 -60 -6 -71 -12z"/>
<path d="M3067 5686 c-50 -18 -76 -42 -98 -91 -23 -49 -23 -74 -4 -122 22 -55
65 -78 168 -92 113 -15 199 -42 262 -82 104 -66 145 -140 145 -263 0 -150 -66
-227 -294 -346 -77 -41 -94 -54 -113 -91 -39 -73 -25 -150 36 -202 50 -42 97
-37 208 22 337 179 463 339 463 586 0 238 -120 459 -310 569 -80 47 -207 90
-324 111 -104 18 -91 18 -139 1z"/>
<path d="M969 5340 c-67 -20 -159 -79 -225 -145 -145 -144 -185 -309 -120
-491 33 -91 72 -152 140 -219 143 -141 266 -167 349 -75 66 72 58 163 -19 227
-108 89 -124 107 -148 156 -59 116 -10 215 131 267 32 12 65 27 73 33 129 99
-17 297 -181 247z"/>
<path d="M2706 4945 c-124 -51 -226 -142 -275 -245 -23 -48 -26 -68 -26 -155
0 -90 3 -106 29 -160 60 -122 194 -217 356 -251 120 -25 184 -1 215 80 36 94
-21 177 -146 214 -123 35 -171 81 -155 145 10 42 49 79 122 117 79 41 104 71
111 131 5 55 -20 105 -68 131 -45 24 -92 22 -163 -7z"/>
<path d="M4761 4910 c-67 -49 -81 -81 -81 -183 0 -302 150 -519 360 -520 115
-1 214 59 270 165 29 53 34 73 34 128 0 156 -113 284 -349 396 -118 56 -171
59 -234 14z"/>
<path d="M1883 4485 c-146 -32 -303 -162 -333 -274 -23 -87 25 -172 106 -187
49 -9 118 19 151 63 29 38 89 73 126 73 13 0 45 -16 71 -36 35 -28 58 -38 94
-41 106 -9 189 90 167 203 -9 52 -92 137 -169 174 -76 36 -133 43 -213 25z"/>
<path d="M2635 3849 c-93 -21 -149 -109 -126 -197 21 -76 112 -124 197 -103
96 24 114 10 90 -73 -27 -93 -137 -259 -299 -453 -90 -107 -106 -147 -83 -207
37 -96 121 -133 218 -95 57 23 316 351 391 496 85 164 111 327 72 443 -27 82
-102 152 -190 179 -72 22 -195 27 -270 10z"/>
<path d="M4226 3795 c-139 -35 -262 -128 -306 -230 -31 -71 -28 -176 7 -245
36 -72 92 -126 169 -162 58 -27 72 -30 142 -26 176 8 291 119 397 381 52 130
55 175 17 226 -41 56 -75 66 -227 68 -97 2 -158 -2 -199 -12z m17 -346 c-20
-17 -39 -26 -48 -23 -21 8 -1 32 40 50 42 18 45 7 8 -27z"/>
<path d="M1215 3756 c-145 -34 -324 -113 -359 -159 -106 -140 16 -337 184
-299 25 6 46 9 47 8 1 -1 -34 -69 -79 -152 -223 -411 -259 -493 -297 -667 -34
-155 -26 -204 42 -264 47 -41 100 -56 160 -44 54 10 53 10 179 116 52 44 138
115 191 158 53 44 178 161 277 260 l181 182 -6 -70 c-28 -323 -37 -363 -143
-616 -184 -438 -196 -481 -155 -537 54 -74 149 -94 228 -49 58 33 96 116 208
460 110 335 122 382 137 538 6 63 16 139 23 169 7 30 12 125 12 210 0 138 -2
160 -22 202 -41 89 -142 135 -239 108 -76 -21 -157 -85 -349 -269 -55 -54
-106 -101 -114 -106 -8 -4 5 27 29 71 165 300 200 390 200 503 0 183 -146 290
-335 247z"/>
<path d="M3494 3389 c-55 -16 -124 -87 -160 -164 -38 -83 -78 -261 -68 -310 3
-19 21 -47 41 -66 34 -34 35 -34 126 -34 230 2 417 140 417 311 0 71 -47 163
-107 209 -73 56 -170 77 -249 54z"/>
<path d="M4850 2790 c-41 -21 -137 -134 -203 -236 -118 -183 -127 -331 -25
-418 71 -61 170 -65 263 -11 63 37 145 130 183 208 52 106 76 249 51 314 -11
30 -111 133 -146 152 -32 16 -83 13 -123 -9z"/>
<path d="M4240 2441 c-101 -33 -165 -109 -176 -209 -4 -33 3 -78 24 -154 16
-59 28 -109 25 -111 -2 -3 -39 11 -81 29 -100 44 -169 57 -262 52 -119 -7
-200 -61 -246 -163 -63 -139 -59 -421 11 -650 38 -125 98 -191 203 -221 128
-37 247 32 282 164 9 36 7 66 -10 177 -12 73 -20 141 -18 150 2 13 18 7 78
-29 96 -58 134 -64 239 -36 211 57 314 203 297 419 -15 174 -74 447 -109 500
-44 67 -176 109 -257 82z"/>
<path d="M2895 2346 c-75 -17 -151 -51 -285 -126 -58 -32 -148 -81 -200 -108
-65 -34 -105 -62 -125 -89 -30 -38 -31 -39 -100 -39 -88 -1 -130 -18 -202 -86
-64 -60 -83 -98 -83 -162 0 -56 14 -93 48 -129 38 -40 77 -58 128 -60 l45 -2
19 -65 c10 -36 23 -81 28 -100 l9 -35 -67 -33 c-92 -45 -173 -125 -212 -208
-25 -54 -32 -82 -36 -158 -9 -171 53 -307 218 -479 103 -109 185 -161 346
-222 176 -67 322 -81 454 -44 85 23 258 109 306 151 126 111 46 328 -121 332
-34 1 -66 -11 -149 -54 -139 -71 -194 -77 -311 -30 -149 59 -275 162 -325 265
-53 109 -2 136 100 54 45 -36 151 -68 225 -69 102 0 178 78 178 184 0 68 -28
120 -97 179 -70 60 -130 178 -180 354 -47 162 -48 174 -16 183 14 4 92 42 172
84 119 63 289 136 314 136 15 0 -39 -179 -91 -306 -19 -45 -57 -125 -84 -178
-58 -110 -64 -153 -30 -223 40 -83 136 -128 222 -104 68 19 102 61 178 216
176 361 237 593 195 739 -45 154 -154 235 -325 242 -50 2 -111 -2 -146 -10z"/>
</g>
</svg>
