<?xml version="1.0" standalone="no"?>
<!DOCTYPE svg PUBLIC "-//W3C//DTD SVG 20010904//EN"
 "http://www.w3.org/TR/2001/REC-SVG-20010904/DTD/svg10.dtd">
<svg version="1.0" xmlns="http://www.w3.org/2000/svg"
 width="600.000000pt" height="600.000000pt" viewBox="0 0 600.000000 600.000000"
 preserveAspectRatio="xMidYMid meet">
<metadata>
Created by potrace 1.15, written by Peter Selinger 2001-2017
</metadata>
<g transform="translate(0.000000,600.000000) scale(0.100000,-0.100000)"
fill="#16364b" stroke="none">
<path d="M1540 5752 c-49 -24 -74 -81 -105 -237 -30 -146 -36 -312 -16 -407
16 -76 64 -146 121 -176 38 -20 55 -23 108 -19 77 6 124 34 184 112 54 67 217
331 276 446 42 80 44 88 33 121 -22 66 -83 102 -150 87 -52 -12 -82 -39 -126
-115 -22 -38 -76 -128 -120 -199 l-80 -130 -3 65 c-3 67 16 172 49 268 10 30
19 67 19 81 0 39 -36 90 -75 107 -45 18 -72 18 -115 -4z"/>
<path d="M860 5485 c-217 -61 -365 -305 -307 -506 37 -126 137 -237 221 -246
55 -7 105 22 130 74 31 65 19 104 -49 169 -24 22 -47 53 -51 68 -10 42 12 101
56 147 l39 42 58 -8 c122 -15 149 -12 182 19 55 53 59 139 8 187 -58 56 -190
81 -287 54z"/>
<path d="M3334 5460 c-58 -23 -82 -111 -48 -169 9 -16 61 -58 115 -95 55 -37
99 -71 99 -76 0 -5 -9 -11 -20 -15 -54 -17 -77 -112 -41 -171 21 -35 90 -93
140 -119 40 -20 125 -30 175 -21 49 9 101 57 122 112 35 92 -10 215 -118 325
-32 33 -119 100 -194 149 -140 93 -171 104 -230 80z"/>
<path d="M2951 5154 c-63 -32 -130 -115 -156 -195 -26 -78 -17 -186 20 -235
32 -42 94 -73 146 -74 79 0 226 61 256 107 40 60 34 258 -10 335 -48 87 -155
112 -256 62z"/>
<path d="M2300 5108 c-25 -13 -51 -35 -58 -50 -7 -16 -14 -75 -15 -140 -4
-166 -19 -187 -191 -268 -95 -45 -109 -55 -123 -87 -20 -49 -9 -99 31 -139 52
-52 91 -54 202 -10 269 107 372 254 363 519 -3 77 -8 101 -25 123 -51 69 -115
87 -184 52z"/>
<path d="M4783 4829 c-45 -13 -91 -63 -104 -112 -15 -55 -4 -193 22 -288 39
-142 112 -251 204 -305 197 -115 413 31 392 264 -13 132 -94 249 -240 346
-144 95 -205 116 -274 95z"/>
<path d="M2790 4166 c-163 -35 -264 -151 -247 -281 28 -199 280 -285 548 -189
75 27 191 83 220 106 33 27 51 68 51 116 0 87 -37 132 -153 188 -142 68 -286
89 -419 60z"/>
<path d="M1054 4056 c-39 -17 -71 -57 -86 -107 -15 -53 3 -113 51 -160 31 -31
45 -38 96 -44 88 -10 168 -30 172 -42 10 -28 -221 -189 -418 -292 -161 -85
-190 -117 -191 -209 0 -79 59 -132 147 -132 40 0 79 14 195 66 80 35 149 66
154 67 5 1 12 -10 16 -24 20 -69 85 -119 158 -119 37 0 44 3 175 92 22 15 60
35 84 44 41 16 47 16 116 -5 87 -26 110 -26 163 -2 85 39 111 145 56 232 -42
65 -114 101 -212 107 -41 2 -94 -1 -117 -6 -24 -5 -43 -8 -43 -6 0 2 16 29 36
60 39 61 74 152 74 193 0 69 -67 159 -149 200 -128 65 -411 116 -477 87z"/>
<path d="M4176 3770 c-158 -56 -256 -184 -256 -333 0 -108 49 -184 154 -240
35 -19 57 -22 151 -22 98 0 116 3 166 26 117 55 184 158 220 334 22 112 16
155 -27 199 -38 37 -83 48 -224 52 -108 4 -133 2 -184 -16z m81 -295 c-32 -28
-47 -32 -47 -10 0 17 27 34 55 34 18 0 17 -2 -8 -24z"/>
<path d="M5068 3400 c-147 -60 -243 -178 -267 -329 -28 -173 61 -296 224 -308
79 -7 159 17 237 70 143 98 194 267 124 405 -30 58 -122 157 -160 172 -41 15
-105 11 -158 -10z"/>
<path d="M3402 3384 c-79 -39 -222 -241 -222 -313 0 -36 33 -87 72 -111 25
-15 51 -20 108 -20 122 1 179 39 233 158 16 37 21 67 22 140 l0 93 -37 35
c-33 30 -44 34 -90 34 -29 0 -68 -8 -86 -16z"/>
<path d="M2310 2941 c-55 -11 -137 -61 -182 -109 -25 -27 -64 -95 -104 -177
-70 -149 -101 -189 -188 -247 -33 -22 -67 -50 -75 -62 -8 -11 -29 -34 -46 -51
-177 -175 -294 -372 -348 -585 -28 -112 -30 -323 -3 -420 59 -218 220 -397
474 -528 157 -81 260 -112 388 -119 122 -7 212 7 314 50 185 76 379 234 484
391 122 184 212 413 246 630 14 90 14 277 0 355 -42 231 -159 410 -323 491
-83 41 -124 80 -185 171 -64 96 -137 162 -210 189 -61 24 -183 34 -242 21z
m117 -439 c119 -162 172 -209 292 -261 56 -25 112 -55 125 -68 38 -38 51 -104
50 -258 0 -118 -4 -156 -27 -241 -59 -226 -126 -355 -246 -474 -153 -151 -279
-188 -481 -140 -105 26 -198 77 -271 149 -107 108 -146 245 -114 402 32 158
129 322 249 421 99 81 232 221 276 289 22 35 57 98 77 141 20 43 38 78 39 78
1 0 15 -17 31 -38z"/>
<path d="M863 2720 c-40 -24 -56 -54 -56 -106 0 -59 28 -99 119 -165 98 -70
183 -160 212 -223 51 -108 2 -239 -98 -261 -61 -13 -120 37 -179 153 -36 71
-110 100 -175 70 -37 -16 -70 -89 -61 -135 11 -60 67 -163 118 -219 144 -158
383 -149 553 21 122 122 157 267 103 434 -48 148 -189 309 -361 414 -71 43
-124 48 -175 17z"/>
<path d="M4187 2270 c-78 -23 -139 -107 -140 -192 -1 -40 -4 -48 -16 -42 -80
33 -156 26 -218 -22 -47 -36 -65 -77 -65 -148 1 -66 53 -298 99 -436 25 -75
33 -89 73 -118 43 -33 46 -34 115 -28 38 3 79 5 90 4 135 -12 205 9 269 83 53
62 69 130 69 279 -1 164 -38 471 -63 520 -24 48 -70 86 -118 100 -43 11 -56
11 -95 0z"/>
</g>
</svg>
