<?xml version="1.0" standalone="no"?>
<!DOCTYPE svg PUBLIC "-//W3C//DTD SVG 20010904//EN"
 "http://www.w3.org/TR/2001/REC-SVG-20010904/DTD/svg10.dtd">
<svg version="1.0" xmlns="http://www.w3.org/2000/svg"
 width="600.000000pt" height="600.000000pt" viewBox="0 0 600.000000 600.000000"
 preserveAspectRatio="xMidYMid meet">
<metadata>
Created by potrace 1.15, written by Peter Selinger 2001-2017
</metadata>
<g transform="translate(0.000000,600.000000) scale(0.100000,-0.100000)"
fill="#16364b" stroke="none">
<path d="M1866 4786 c-53 -20 -84 -44 -123 -95 -57 -73 -67 -159 -33 -262 33
-97 49 -176 60 -304 6 -66 25 -244 42 -395 23 -210 31 -321 31 -470 1 -318 -9
-895 -15 -906 -4 -5 -12 -127 -18 -271 l-12 -261 25 -48 c14 -27 28 -57 32
-68 3 -12 11 -16 21 -12 33 13 71 -16 102 -78 42 -87 113 -178 174 -227 78
-62 200 -117 307 -139 51 -10 95 -20 97 -22 1 -2 -2 -24 -7 -48 -6 -26 -9
-101 -6 -175 5 -135 18 -195 86 -405 44 -134 45 -130 -41 -130 -132 0 -188
-33 -188 -109 0 -99 105 -137 252 -91 69 21 138 73 163 121 23 44 18 107 -16
200 -64 176 -92 304 -93 434 0 66 3 137 7 159 8 37 9 38 45 32 69 -10 507 -29
714 -30 115 0 208 -3 208 -6 0 -3 -5 -32 -10 -65 -14 -85 0 -174 70 -424 32
-118 57 -218 54 -223 -3 -4 -42 -8 -87 -8 -98 0 -139 -19 -157 -74 -25 -77 40
-131 146 -122 129 11 230 72 255 154 12 41 10 50 -49 235 -34 106 -68 219 -77
252 -18 70 -18 193 -2 250 l12 39 156 17 c86 10 212 29 280 43 299 62 447 203
524 501 50 195 42 352 -27 495 -33 70 -36 105 -12 151 8 16 12 34 9 40 -32 51
-387 234 -610 314 -167 60 -220 85 -450 213 -418 232 -725 439 -847 570 -64
69 -134 177 -198 308 -138 284 -228 459 -294 574 -40 69 -86 147 -101 175 -42
73 -110 141 -172 171 -66 33 -168 42 -227 20z m160 -162 c45 -21 97 -85 129
-158 14 -32 36 -72 49 -90 37 -49 163 -280 284 -521 62 -121 131 -249 154
-285 138 -209 368 -379 1046 -766 212 -122 268 -151 502 -262 153 -73 200
-101 270 -159 47 -40 95 -84 106 -100 95 -128 120 -304 70 -496 -51 -200 -141
-309 -287 -351 -89 -25 -333 -64 -519 -82 -235 -22 -643 -13 -1140 25 -233 18
-365 68 -469 175 -201 210 -249 574 -232 1736 3 184 0 285 -13 405 -36 333
-76 623 -96 690 -44 146 -45 149 -24 191 31 63 99 82 170 48z"/>
<path d="M2567 2672 c-24 -27 -21 -58 9 -81 34 -27 68 -27 94 1 24 26 26 61 4
82 -22 22 -87 21 -107 -2z"/>
<path d="M3038 2508 c-30 -24 -31 -56 -4 -83 47 -46 116 -22 116 41 0 45 -73
72 -112 42z"/>
<path d="M5275 3990 c-139 -30 -230 -125 -250 -261 -15 -101 39 -254 117 -330
63 -61 117 -83 208 -83 128 1 234 64 288 171 51 99 67 244 37 317 -22 53 -80
112 -149 153 -53 31 -71 36 -136 39 -41 2 -93 -1 -115 -6z m109 -320 c11 -11
-20 -50 -40 -50 -15 0 -34 31 -34 56 0 13 6 15 32 10 18 -3 37 -11 42 -16z"/>
<path d="M5330 1112 c-64 -31 -99 -163 -64 -237 22 -46 73 -70 118 -55 60 20
91 74 102 183 6 64 6 67 -24 96 -36 36 -78 40 -132 13z"/>
</g>
</svg>
