<?xml version="1.0" standalone="no"?>
<!DOCTYPE svg PUBLIC "-//W3C//DTD SVG 20010904//EN"
 "http://www.w3.org/TR/2001/REC-SVG-20010904/DTD/svg10.dtd">
<svg version="1.0" xmlns="http://www.w3.org/2000/svg"
 width="600.000000pt" height="600.000000pt" viewBox="0 0 600.000000 600.000000"
 preserveAspectRatio="xMidYMid meet">
<metadata>
Created by potrace 1.15, written by Peter Selinger 2001-2017
</metadata>
<g transform="translate(0.000000,600.000000) scale(0.100000,-0.100000)"
fill="#16364b" stroke="none">
<path d="M1574 5799 c-17 -5 -37 -17 -46 -26 -21 -25 -245 -412 -257 -446 -20
-53 -14 -104 18 -139 27 -31 34 -33 93 -33 56 0 73 6 151 47 164 88 380 248
398 296 23 60 -15 142 -75 162 -44 14 -68 4 -141 -58 -33 -28 -61 -49 -63 -47
-3 2 7 25 22 51 62 111 6 221 -100 193z"/>
<path d="M2359 5421 c-29 -29 -29 -31 -29 -141 0 -137 -15 -281 -40 -381 -38
-157 -109 -252 -241 -325 -89 -48 -112 -80 -106 -147 3 -38 11 -56 35 -79 47
-48 97 -44 191 12 259 156 345 357 377 881 5 95 4 121 -9 146 -36 69 -126 86
-178 34z"/>
<path d="M3504 5322 c-61 -51 -69 -132 -24 -226 52 -111 165 -196 261 -198 86
-2 145 65 135 151 -13 99 -128 243 -220 274 -64 22 -125 21 -152 -1z"/>
<path d="M2965 5146 c-53 -25 -132 -101 -160 -156 -23 -44 -31 -138 -16 -183
37 -111 141 -148 275 -97 115 44 156 117 157 277 0 84 -22 138 -69 166 -44 25
-125 22 -187 -7z"/>
<path d="M4738 4760 c-45 -35 -51 -68 -45 -218 6 -138 21 -219 58 -301 96
-218 371 -257 465 -65 78 160 -42 389 -291 552 -90 59 -142 68 -187 32z m247
-421 c9 -17 14 -33 11 -36 -4 -4 -36 49 -36 62 0 13 11 2 25 -26z"/>
<path d="M2734 4240 c-104 -15 -187 -69 -223 -145 -25 -53 -28 -148 -7 -199
21 -50 74 -104 130 -134 43 -22 64 -27 132 -27 75 0 87 3 159 39 102 52 229
172 244 231 13 50 0 102 -34 144 -47 55 -279 108 -401 91z"/>
<path d="M1053 4081 c-61 -39 -80 -117 -43 -178 26 -43 57 -62 132 -79 78 -18
158 -46 158 -55 0 -26 -161 -79 -301 -99 -46 -7 -97 -20 -112 -29 -44 -25 -67
-71 -67 -131 0 -48 3 -56 40 -93 l41 -40 88 6 c233 17 450 97 534 196 42 51
59 89 64 150 14 155 -86 275 -281 337 -113 36 -211 42 -253 15z"/>
<path d="M4190 3756 c-94 -26 -168 -85 -212 -168 -32 -60 -33 -211 -2 -279 31
-65 78 -114 140 -145 193 -94 438 63 483 310 33 178 0 237 -155 276 -86 22
-186 24 -254 6z m120 -293 c0 -14 -34 -43 -52 -43 -23 0 -24 26 0 39 19 12 52
14 52 4z"/>
<path d="M1711 3704 c-106 -28 -139 -68 -161 -196 -29 -165 50 -301 199 -345
136 -39 267 23 316 150 22 59 17 175 -10 232 -58 120 -216 193 -344 159z"/>
<path d="M5173 3615 c-79 -22 -131 -51 -194 -112 -99 -95 -130 -211 -90 -339
53 -172 195 -256 357 -210 107 31 177 91 227 196 28 57 32 75 32 150 0 69 -4
94 -23 133 -31 62 -146 174 -192 187 -44 12 -53 12 -117 -5z m34 -342 c-8 -8
-21 -13 -28 -11 -9 3 -6 11 11 28 17 17 25 20 28 11 2 -7 -3 -20 -11 -28z"/>
<path d="M3414 3366 c-17 -8 -45 -33 -63 -57 -43 -59 -131 -232 -131 -259 0
-34 28 -78 60 -95 36 -19 54 -19 117 0 139 41 251 239 196 345 -36 69 -110 96
-179 66z"/>
<path d="M2555 3329 c-22 -5 -77 -28 -123 -50 -97 -49 -182 -128 -289 -271
-98 -131 -156 -179 -278 -230 -320 -134 -462 -279 -553 -568 -49 -157 -56
-204 -55 -370 1 -176 19 -265 75 -373 51 -98 252 -286 451 -420 144 -98 347
-149 517 -130 195 22 337 96 627 328 187 149 301 286 388 466 25 52 63 128 84
169 107 205 98 370 -33 641 -30 63 -72 157 -92 209 -20 52 -47 116 -60 142
-14 27 -27 71 -29 100 -14 131 -157 281 -330 342 -59 21 -239 30 -300 15z
m210 -416 c9 -20 31 -60 49 -87 50 -76 90 -161 129 -272 19 -54 51 -136 71
-182 38 -88 66 -184 66 -224 0 -14 -12 -47 -26 -74 -14 -27 -36 -83 -50 -124
-66 -198 -197 -354 -448 -534 -109 -78 -185 -109 -283 -114 -60 -3 -96 0 -139
14 -62 19 -197 103 -303 189 -161 129 -193 183 -199 340 -4 88 -1 110 23 180
34 104 85 186 157 257 45 45 84 70 184 118 215 103 289 162 439 351 51 64 107
126 125 139 43 31 118 59 157 60 28 0 35 -5 48 -37z"/>
<path d="M424 2296 c-17 -8 -41 -27 -53 -42 -20 -25 -23 -37 -18 -94 10 -130
93 -333 188 -462 68 -92 172 -186 238 -216 161 -75 301 8 309 182 10 198 -117
346 -493 573 -118 72 -131 76 -171 59z m384 -504 c29 -37 52 -75 52 -87 0 -4
-13 3 -29 15 -30 20 -131 147 -131 163 0 14 77 -51 108 -91z"/>
<path d="M4418 1929 c-21 -11 -38 -24 -38 -29 0 -6 -7 -10 -15 -10 -8 0 -15 4
-15 8 0 15 -70 42 -106 42 -46 0 -87 -22 -116 -62 -20 -28 -23 -44 -22 -108 2
-88 38 -308 64 -394 25 -78 71 -151 112 -176 49 -30 125 -27 174 6 44 30 57
44 84 97 38 71 111 390 113 493 1 42 -4 58 -27 89 -50 65 -135 83 -208 44z"/>
</g>
</svg>
