<?xml version="1.0" standalone="no"?>
<!DOCTYPE svg PUBLIC "-//W3C//DTD SVG 20010904//EN"
 "http://www.w3.org/TR/2001/REC-SVG-20010904/DTD/svg10.dtd">
<svg version="1.0" xmlns="http://www.w3.org/2000/svg"
 width="600.000000pt" height="600.000000pt" viewBox="0 0 600.000000 600.000000"
 preserveAspectRatio="xMidYMid meet">
<metadata>
Created by potrace 1.15, written by Peter Selinger 2001-2017
</metadata>
<g transform="translate(0.000000,600.000000) scale(0.100000,-0.100000)"
fill="#16364b" stroke="none">
<path d="M2386 5378 c-12 -17 -16 -50 -16 -140 0 -202 -33 -367 -99 -504 -47
-95 -112 -163 -207 -219 -84 -49 -94 -60 -94 -95 0 -21 8 -35 25 -46 24 -16
28 -15 76 9 186 97 289 217 362 422 44 125 60 227 60 397 1 139 -1 160 -18
178 -24 27 -70 26 -89 -2z"/>
<path d="M3531 5264 c-36 -45 -35 -62 2 -138 80 -161 224 -250 294 -180 22 22
25 32 20 70 -8 76 -124 231 -194 260 -53 23 -98 18 -122 -12z"/>
<path d="M3056 5125 c-84 -30 -161 -143 -186 -272 -16 -78 -7 -126 27 -153 49
-39 109 -17 193 71 111 116 158 251 109 313 -20 25 -74 57 -96 56 -4 -1 -25
-7 -47 -15z m24 -185 c-22 -42 -86 -120 -100 -120 -17 0 23 115 52 150 7 9 24
24 38 33 24 17 25 17 28 -2 2 -11 -6 -38 -18 -61z"/>
<path d="M4759 4747 c-33 -26 -39 -55 -39 -204 0 -261 26 -401 85 -460 28 -28
40 -33 80 -33 41 0 52 5 80 35 44 46 59 113 52 229 -7 110 -36 224 -83 325
-46 100 -67 121 -118 121 -23 0 -48 -6 -57 -13z"/>
<path d="M2633 4215 c-90 -39 -79 -182 20 -255 118 -87 306 -103 446 -37 46
22 81 67 81 105 0 34 -29 91 -55 108 -39 26 -351 94 -424 94 -20 -1 -50 -7
-68 -15z"/>
<path d="M5262 3974 c-169 -45 -248 -164 -222 -332 27 -166 127 -280 270 -307
47 -8 159 18 215 50 135 80 211 250 171 387 -23 81 -72 138 -154 181 -64 34
-77 37 -148 36 -44 0 -103 -7 -132 -15z m131 -292 c16 -7 16 -9 2 -30 -9 -12
-25 -22 -35 -22 -18 0 -40 27 -40 49 0 12 45 14 73 3z"/>
<path d="M4183 3752 c-105 -38 -177 -109 -203 -202 -29 -104 2 -240 72 -316
57 -61 124 -88 213 -82 179 12 307 148 309 328 1 88 -24 180 -57 211 -75 71
-227 99 -334 61z m120 -280 c-10 -28 -24 -42 -44 -42 -27 0 -23 25 7 49 29 23
46 20 37 -7z"/>
<path d="M1249 3677 c-61 -17 -131 -59 -163 -98 -52 -62 -69 -108 -69 -187 1
-64 6 -83 36 -145 60 -121 141 -188 268 -221 80 -20 112 -39 151 -88 50 -62
81 -121 121 -230 60 -161 91 -302 132 -598 41 -299 77 -445 142 -575 71 -142
171 -247 288 -301 47 -22 76 -42 87 -62 41 -70 135 -85 504 -80 l280 3 62 -32
c34 -18 75 -33 91 -33 34 0 77 31 84 62 l6 23 273 0 c203 1 307 5 403 18 186
25 358 62 461 97 110 39 315 136 389 186 129 85 285 271 349 416 61 139 80
300 51 437 -55 260 -271 522 -497 603 -52 18 -84 22 -183 23 -214 0 -335 -44
-505 -182 -245 -200 -450 -282 -670 -271 -138 8 -304 74 -518 209 -227 143
-378 277 -547 489 -131 163 -238 267 -357 347 -225 150 -517 233 -669 190z
m232 -311 c254 -82 349 -152 562 -414 56 -68 108 -133 116 -144 44 -61 336
-288 580 -451 228 -153 436 -215 686 -204 266 12 452 92 761 327 163 124 280
154 425 110 68 -20 80 -29 149 -99 131 -133 185 -274 161 -419 -19 -109 -89
-240 -174 -327 -63 -63 -89 -81 -203 -137 -355 -175 -634 -218 -1284 -198
-501 16 -685 32 -875 76 -226 53 -303 178 -365 589 -12 77 -28 183 -36 235
-48 311 -154 640 -253 784 -67 96 -187 180 -297 207 -88 21 -160 70 -137 93
15 14 87 4 184 -28z"/>
<path d="M2307 2398 c-28 -10 -44 -45 -34 -72 10 -26 55 -49 82 -42 23 6 55
50 55 76 0 17 -39 50 -57 49 -10 0 -30 -5 -46 -11z"/>
<path d="M2827 2042 c-10 -10 -17 -29 -17 -41 0 -28 46 -71 76 -71 47 0 72 80
36 113 -25 22 -75 21 -95 -1z"/>
<path d="M3443 3338 c-42 -38 -145 -192 -170 -256 -19 -50 -8 -87 29 -101 36
-13 73 6 121 62 122 145 175 266 137 312 -22 26 -75 19 -117 -17z"/>
<path d="M470 2021 c-24 -46 -13 -72 63 -146 155 -152 297 -183 297 -64 0 53
-53 98 -231 198 -65 36 -113 40 -129 12z"/>
<path d="M5358 1121 c-50 -10 -70 -30 -92 -92 -47 -129 4 -223 112 -206 50 8
87 51 101 116 30 142 -11 204 -121 182z"/>
</g>
</svg>
