<?xml version="1.0" standalone="no"?>
<!DOCTYPE svg PUBLIC "-//W3C//DTD SVG 20010904//EN"
 "http://www.w3.org/TR/2001/REC-SVG-20010904/DTD/svg10.dtd">
<svg version="1.0" xmlns="http://www.w3.org/2000/svg"
 width="600.000000pt" height="600.000000pt" viewBox="0 0 600.000000 600.000000"
 preserveAspectRatio="xMidYMid meet">
<metadata>
Created by potrace 1.15, written by Peter Selinger 2001-2017
</metadata>
<g transform="translate(0.000000,600.000000) scale(0.100000,-0.100000)"
fill="#16364b" stroke="none">
<path d="M3054 5103 c-96 -20 -196 -233 -150 -321 36 -70 97 -67 182 11 101
92 135 213 77 277 -28 30 -68 42 -109 33z m64 -106 c6 -54 -87 -187 -132 -187
-35 0 -24 92 19 160 29 46 51 61 85 57 19 -1 26 -8 28 -30z"/>
<path d="M4763 4730 c-42 -17 -45 -36 -41 -335 3 -270 4 -285 24 -312 35 -47
103 -44 129 8 23 43 31 272 16 424 -16 162 -25 191 -61 210 -33 17 -36 17 -67
5z"/>
<path d="M1605 4322 c-126 -69 -153 -225 -62 -359 18 -26 45 -66 60 -87 50
-72 102 -291 132 -551 30 -262 85 -869 105 -1155 21 -293 52 -433 131 -579
107 -199 250 -310 449 -347 47 -8 95 -17 107 -20 21 -4 21 -8 21 -146 0 -160
19 -276 78 -480 19 -66 34 -126 34 -134 0 -11 -19 -14 -90 -14 -107 0 -145
-15 -166 -65 -42 -102 58 -174 203 -146 110 22 191 82 214 162 10 32 9 49 -5
97 -97 332 -120 452 -114 601 4 118 10 130 66 113 64 -20 378 -26 596 -13 109
7 219 10 245 6 l46 -6 1 -117 c1 -141 33 -293 100 -479 24 -67 44 -124 44
-126 0 -3 -47 -7 -104 -9 -94 -3 -107 -5 -130 -27 -20 -19 -26 -34 -26 -66 0
-53 20 -79 75 -101 82 -31 239 -1 302 58 32 30 57 101 49 140 -3 18 -29 93
-57 168 -73 191 -101 306 -101 415 -1 119 9 145 59 145 164 0 570 120 749 220
118 67 238 190 292 300 92 185 94 369 8 563 -59 134 -183 259 -306 310 -50 20
-69 22 -220 19 -473 -7 -854 57 -1127 190 -191 92 -352 229 -568 483 -136 160
-182 224 -280 390 -109 184 -140 223 -359 447 -207 211 -231 228 -336 228 -52
0 -75 -6 -115 -28z m158 -136 c28 -11 76 -58 153 -147 11 -13 36 -38 55 -54
75 -65 147 -158 267 -340 235 -357 497 -667 683 -807 226 -170 474 -283 712
-324 168 -29 489 -54 687 -53 109 0 209 -4 228 -9 84 -27 152 -93 207 -202
105 -209 79 -414 -73 -581 -75 -81 -166 -134 -337 -194 -325 -116 -382 -127
-635 -126 -107 0 -283 -4 -390 -9 -151 -7 -232 -6 -360 6 -91 8 -223 18 -294
24 -248 17 -371 63 -474 175 -134 146 -169 283 -212 820 -5 66 -18 194 -29
285 -11 91 -24 247 -31 345 -11 186 -68 615 -95 720 -28 109 -65 199 -106 255
-48 67 -78 127 -79 158 0 28 42 72 70 72 11 0 35 -6 53 -14z"/>
<path d="M2440 2580 c-26 -26 -25 -64 2 -90 48 -44 108 -12 108 57 0 52 -70
73 -110 33z"/>
<path d="M2920 2287 c-38 -19 -40 -77 -4 -106 50 -40 103 -19 104 40 0 53 -54
89 -100 66z"/>
<path d="M2663 4228 c-11 -5 -29 -25 -38 -42 -15 -28 -16 -38 -5 -70 14 -44
43 -64 155 -107 144 -55 223 -73 267 -60 42 13 68 50 68 99 0 43 -27 69 -95
91 -33 10 -113 38 -179 60 -126 43 -139 46 -173 29z"/>
<path d="M5313 3999 c-207 -26 -325 -193 -279 -393 30 -127 104 -228 191 -262
33 -12 64 -15 120 -12 136 9 272 95 332 210 23 45 27 66 27 133 0 72 -3 86
-34 143 -37 71 -72 103 -157 149 -68 35 -115 43 -200 32z m67 -329 c12 -7 12
-13 4 -27 -22 -36 -74 -23 -74 18 0 14 7 19 28 19 15 0 34 -5 42 -10z"/>
<path d="M4183 3731 c-63 -29 -100 -60 -138 -115 -115 -169 -59 -368 123 -436
64 -24 108 -25 182 -4 75 21 146 76 183 142 39 71 42 158 8 250 -55 146 -224
223 -358 163z m127 -269 c0 -10 -5 -23 -12 -30 -13 -13 -48 -16 -48 -4 0 16
32 52 46 52 8 0 14 -8 14 -18z"/>
<path d="M5353 1098 c-29 -32 -58 -123 -58 -185 0 -59 25 -102 69 -118 36 -12
93 17 118 62 42 72 41 210 -2 245 -33 26 -101 24 -127 -4z"/>
</g>
</svg>
