<?xml version="1.0" standalone="no"?>
<!DOCTYPE svg PUBLIC "-//W3C//DTD SVG 20010904//EN"
 "http://www.w3.org/TR/2001/REC-SVG-20010904/DTD/svg10.dtd">
<svg version="1.0" xmlns="http://www.w3.org/2000/svg"
 width="600.000000pt" height="600.000000pt" viewBox="0 0 600.000000 600.000000"
 preserveAspectRatio="xMidYMid meet">
<metadata>
Created by potrace 1.15, written by Peter Selinger 2001-2017
</metadata>
<g transform="translate(0.000000,600.000000) scale(0.100000,-0.100000)"
fill="#16364b" stroke="none">
<path d="M3102 5650 c-77 -47 -95 -142 -41 -223 46 -70 158 -180 299 -294 160
-129 188 -158 174 -181 -30 -48 -380 -292 -420 -292 -25 0 -107 -28 -188 -65
-191 -86 -305 -240 -266 -361 26 -82 104 -133 201 -134 65 0 109 24 147 80 20
29 23 45 20 98 -4 75 4 82 78 75 51 -6 58 -3 176 61 194 106 314 191 414 290
104 104 135 161 142 253 3 50 0 71 -20 115 -53 113 -120 183 -354 370 -40 31
-102 91 -139 132 -88 98 -151 120 -223 76z"/>
<path d="M1140 5338 c-80 -41 -195 -148 -249 -231 -138 -213 -144 -441 -18
-696 37 -73 67 -100 123 -108 69 -9 146 64 159 150 5 34 0 58 -25 122 -44 109
-52 225 -21 306 28 73 79 132 163 186 53 33 74 53 88 86 37 80 17 155 -52 197
-47 29 -95 25 -168 -12z"/>
<path d="M1742 5323 c-18 -9 -45 -32 -60 -51 -23 -30 -27 -45 -26 -96 1 -58
-2 -65 -56 -146 -79 -118 -98 -158 -112 -238 -15 -91 0 -146 57 -210 62 -68
119 -87 260 -86 109 1 337 34 374 53 10 6 31 24 45 42 72 86 -8 235 -133 247
-27 2 -84 -3 -128 -12 -79 -16 -133 -20 -133 -11 0 2 28 50 61 106 83 137 99
175 99 234 0 76 -35 127 -115 165 -49 24 -89 25 -133 3z"/>
<path d="M4553 4681 c-41 -26 -66 -75 -66 -129 0 -48 22 -85 71 -118 l32 -22
-31 -23 c-42 -33 -64 -100 -48 -148 20 -62 62 -97 141 -117 173 -42 412 29
475 141 48 84 17 216 -65 286 -83 69 -269 135 -412 145 -54 4 -71 2 -97 -15z"/>
<path d="M1790 4279 c-101 -26 -186 -69 -274 -139 -105 -83 -137 -143 -116
-220 21 -77 88 -130 165 -130 45 0 67 11 128 66 27 24 79 58 115 76 61 30 74
33 167 33 116 1 141 10 178 68 47 72 32 170 -35 220 -65 50 -197 60 -328 26z"/>
<path d="M2590 3754 c-199 -37 -290 -75 -320 -134 -37 -73 -20 -156 42 -204
47 -35 102 -34 215 3 48 16 108 30 133 32 78 3 78 3 70 -38 -20 -106 -111
-270 -355 -642 -69 -104 -75 -118 -75 -165 0 -96 66 -165 156 -166 83 0 89 8
376 472 131 213 174 299 199 396 39 154 19 263 -65 347 -67 68 -134 93 -258
99 -51 3 -104 3 -118 0z"/>
<path d="M4050 3724 c-73 -19 -128 -59 -165 -119 -26 -42 -30 -58 -29 -114 1
-86 33 -150 111 -221 109 -100 246 -136 346 -92 87 39 169 136 191 225 8 35
-8 97 -33 124 -11 11 -23 38 -27 59 -9 52 -66 108 -123 124 -119 32 -190 36
-271 14z"/>
<path d="M1180 3593 c-60 -10 -132 -39 -222 -89 -120 -68 -156 -97 -179 -149
-44 -97 -6 -205 91 -255 34 -18 121 -16 160 4 18 9 35 15 36 13 2 -1 -24 -70
-57 -152 -128 -323 -219 -656 -221 -805 0 -94 58 -165 161 -194 79 -22 122
-20 161 7 39 25 167 172 388 442 204 249 272 326 283 319 11 -7 6 -43 -42
-280 -72 -361 -139 -762 -139 -840 0 -116 112 -187 217 -137 52 24 81 76 93
163 12 97 27 166 94 440 78 316 97 435 103 635 6 190 -6 314 -36 372 -64 126
-189 148 -321 60 -68 -46 -216 -201 -325 -342 -54 -69 -99 -124 -102 -122 -2
3 21 74 53 158 114 313 126 356 128 454 1 110 -20 162 -96 230 -68 61 -141 83
-228 68z"/>
<path d="M3620 3274 c-154 -41 -276 -196 -288 -365 -4 -60 -2 -68 23 -97 56
-67 144 -83 206 -37 47 34 64 41 138 55 84 15 168 58 215 110 44 49 56 77 56
132 0 97 -85 186 -199 208 -68 13 -83 12 -151 -6z"/>
<path d="M4697 2988 c-108 -63 -116 -250 -17 -418 16 -28 30 -55 30 -61 0 -19
86 -103 125 -120 51 -24 87 -24 133 0 90 46 94 134 14 253 -70 104 -83 138
-76 206 4 46 1 63 -15 90 -44 70 -124 90 -194 50z"/>
<path d="M2915 2564 c-99 -24 -171 -52 -341 -130 -169 -79 -211 -110 -238
-176 -48 -113 24 -237 145 -254 39 -5 58 -1 130 31 274 121 333 146 350 143
17 -3 16 -8 -11 -88 -28 -81 -119 -272 -175 -370 -51 -88 -19 -211 64 -255 73
-37 157 -28 231 26 37 27 52 52 125 203 103 215 170 382 186 464 32 169 -36
323 -173 392 -55 27 -70 30 -147 29 -47 0 -113 -7 -146 -15z"/>
<path d="M4426 2335 c-47 -16 -100 -66 -129 -120 -18 -32 -22 -56 -21 -125 0
-47 4 -97 7 -112 9 -36 2 -36 -133 -1 -86 22 -128 27 -230 27 -115 1 -130 -1
-180 -25 -144 -69 -201 -191 -186 -402 5 -56 11 -181 15 -277 7 -183 13 -207
60 -257 40 -42 82 -58 156 -57 83 0 133 22 188 83 54 60 60 95 47 287 -7 91
-9 168 -6 171 3 4 56 -8 118 -26 128 -35 167 -38 276 -15 187 39 292 137 339
317 30 116 16 333 -27 416 -53 105 -183 156 -294 116z"/>
<path d="M2145 1869 c-41 -12 -83 -53 -106 -103 -21 -47 -23 -79 -10 -157 6
-30 17 -103 26 -164 32 -212 89 -402 156 -521 60 -106 168 -204 300 -271 86
-44 156 -53 213 -29 l38 16 122 -64 c154 -82 213 -99 319 -94 245 13 418 199
334 359 -50 95 -163 116 -266 50 -68 -44 -86 -40 -238 46 -142 79 -253 174
-289 246 -29 56 -87 123 -123 141 -39 20 -104 28 -134 17 -16 -6 -29 -7 -32
-1 -3 5 -19 92 -36 192 -40 240 -62 288 -153 329 -44 20 -74 22 -121 8z"/>
</g>
</svg>
