<?xml version="1.0" standalone="no"?>
<!DOCTYPE svg PUBLIC "-//W3C//DTD SVG 20010904//EN"
 "http://www.w3.org/TR/2001/REC-SVG-20010904/DTD/svg10.dtd">
<svg version="1.0" xmlns="http://www.w3.org/2000/svg"
 width="600.000000pt" height="600.000000pt" viewBox="0 0 600.000000 600.000000"
 preserveAspectRatio="xMidYMid meet">
<metadata>
Created by potrace 1.15, written by Peter Selinger 2001-2017
</metadata>
<g transform="translate(0.000000,600.000000) scale(0.100000,-0.100000)"
fill="#16364b" stroke="none">
<path d="M1927 4820 c-88 -22 -171 -90 -205 -169 -23 -54 -21 -162 6 -246 26
-80 55 -242 76 -430 42 -367 45 -1339 5 -1554 -40 -212 -43 -572 -6 -655 9
-21 17 -47 17 -57 0 -13 7 -19 24 -19 14 0 28 -4 31 -10 11 -18 34 -10 49 18
l15 27 7 -23 c14 -48 87 -188 129 -247 94 -132 253 -220 440 -243 l59 -7 -2
-135 c-4 -161 19 -308 72 -475 20 -60 36 -118 36 -127 0 -16 -11 -18 -86 -18
-104 0 -150 -18 -170 -66 -44 -104 105 -164 278 -112 46 13 103 60 124 100 25
48 20 105 -19 228 -78 248 -105 406 -88 526 6 36 11 68 13 69 2 2 84 0 183 -5
106 -5 267 -5 390 0 116 5 247 10 293 10 l82 0 0 -100 c0 -107 17 -206 77
-463 43 -182 44 -177 -55 -177 -106 0 -162 -39 -162 -112 0 -39 23 -70 67 -92
89 -45 263 14 318 108 40 70 40 96 -5 266 -69 264 -83 342 -78 452 2 54 8 102
13 107 6 5 60 16 121 25 218 32 444 83 513 117 132 65 221 185 276 374 65 227
58 383 -25 552 -22 44 -40 83 -40 85 0 3 10 4 22 4 15 -1 24 6 26 19 2 11 11
35 20 53 16 31 16 34 1 45 -87 63 -133 90 -254 152 -170 86 -306 146 -422 186
-49 17 -133 57 -188 88 -55 32 -179 97 -275 144 -352 171 -684 435 -882 702
-87 116 -152 234 -238 431 -127 289 -239 502 -294 557 -81 81 -196 120 -289
97z m128 -176 c48 -31 87 -83 115 -153 11 -29 31 -67 44 -84 25 -33 78 -142
187 -382 124 -274 206 -394 393 -580 220 -218 479 -401 811 -572 116 -60 230
-122 255 -139 25 -17 126 -72 225 -122 248 -126 275 -143 361 -224 125 -119
170 -203 195 -360 8 -52 7 -86 -5 -157 -38 -216 -112 -348 -229 -407 -43 -22
-174 -53 -422 -100 -106 -20 -811 -36 -1025 -24 -85 5 -222 11 -305 13 -92 3
-171 11 -204 20 -202 59 -322 204 -405 491 -56 192 -60 236 -60 711 0 242 1
550 3 685 3 256 -9 498 -34 710 -20 161 -53 357 -71 423 -37 135 -38 152 -14
201 37 78 112 98 185 50z m-160 -2894 c-3 -5 -14 -10 -23 -10 -15 0 -15 2 -2
10 20 13 33 13 25 0z"/>
<path d="M2572 2704 c-31 -22 -29 -67 4 -93 36 -28 58 -26 83 5 26 33 27 58 1
84 -24 24 -57 26 -88 4z"/>
<path d="M3050 2543 c-21 -7 -40 -33 -40 -54 0 -26 49 -69 81 -69 31 0 59 31
59 66 0 40 -57 72 -100 57z"/>
<path d="M5204 3962 c-94 -33 -143 -89 -171 -196 -15 -55 -16 -75 -6 -133 24
-139 80 -226 178 -274 60 -29 71 -31 132 -26 132 13 257 97 313 211 79 160 16
327 -153 407 -55 25 -73 29 -152 29 -59 -1 -107 -7 -141 -18z m184 -287 c11
-11 -15 -40 -38 -43 -25 -4 -40 12 -40 42 0 16 5 18 36 13 20 -3 39 -9 42 -12z"/>
<path d="M5321 1093 c-25 -21 -61 -119 -61 -165 0 -44 29 -100 60 -116 34 -18
97 -8 126 19 56 52 69 206 23 256 -29 29 -115 33 -148 6z"/>
</g>
</svg>
