<?xml version="1.0" standalone="no"?>
<!DOCTYPE svg PUBLIC "-//W3C//DTD SVG 20010904//EN"
 "http://www.w3.org/TR/2001/REC-SVG-20010904/DTD/svg10.dtd">
<svg version="1.0" xmlns="http://www.w3.org/2000/svg"
 width="600.000000pt" height="600.000000pt" viewBox="0 0 600.000000 600.000000"
 preserveAspectRatio="xMidYMid meet">
<metadata>
Created by potrace 1.15, written by Peter Selinger 2001-2017
</metadata>
<g transform="translate(0.000000,600.000000) scale(0.100000,-0.100000)"
fill="#16364b" stroke="none">
<path d="M1675 5781 c-51 -26 -68 -55 -105 -177 -83 -269 -116 -539 -77 -625
21 -48 90 -106 141 -120 122 -33 244 46 404 261 216 291 235 320 239 369 8 86
-58 151 -154 151 -68 0 -86 -16 -208 -185 -54 -74 -101 -135 -105 -135 -10 0
23 137 55 229 40 117 31 178 -32 225 -39 29 -109 31 -158 7z"/>
<path d="M3084 5611 c-36 -22 -64 -75 -64 -123 0 -63 30 -92 232 -225 204
-134 317 -232 357 -310 11 -23 21 -44 21 -46 0 -2 -22 -2 -49 1 -158 15 -219
-199 -77 -268 64 -30 173 -32 236 -3 107 48 160 131 160 247 -1 119 -53 231
-164 353 -79 86 -190 171 -480 367 -48 32 -125 36 -172 7z"/>
<path d="M931 5445 c-143 -32 -242 -109 -306 -238 -62 -126 -59 -257 11 -397
39 -78 116 -154 174 -171 93 -28 180 44 180 148 0 63 -18 103 -60 133 -80 57
-79 172 2 234 30 22 45 26 102 26 40 0 79 6 96 15 94 48 100 193 10 240 -42
21 -137 26 -209 10z"/>
<path d="M2922 5168 c-52 -25 -103 -83 -140 -158 -22 -44 -27 -69 -27 -127 0
-63 4 -76 30 -115 62 -89 189 -125 331 -93 67 15 85 23 117 56 l39 39 -4 107
c-3 92 -8 115 -30 159 -68 130 -203 187 -316 132z"/>
<path d="M4774 4859 c-41 -12 -80 -52 -95 -97 -16 -47 -4 -230 21 -327 50
-196 162 -313 318 -332 174 -20 314 130 284 305 -27 159 -122 266 -356 401
-93 54 -126 64 -172 50z"/>
<path d="M2140 4793 c-57 -9 -178 -45 -217 -64 -102 -49 -111 -164 -18 -234
49 -38 99 -42 176 -14 51 18 86 23 169 23 118 1 145 12 180 69 31 51 34 89 11
141 -28 65 -76 86 -191 84 -47 0 -96 -3 -110 -5z"/>
<path d="M2825 4087 c-92 -31 -131 -63 -164 -137 -42 -92 -19 -185 64 -258
115 -101 334 -116 604 -41 131 37 172 64 201 131 29 68 21 126 -24 171 -36 36
-161 84 -311 117 -115 26 -315 35 -370 17z"/>
<path d="M1075 4060 c-59 -8 -101 -28 -132 -62 -69 -74 -53 -209 33 -274 37
-28 41 -29 142 -27 97 2 103 1 91 -15 -46 -59 -80 -96 -243 -262 -173 -177
-309 -339 -355 -425 -39 -73 -20 -186 40 -242 28 -25 89 -53 118 -53 11 0 41
7 66 16 37 12 53 13 81 4 59 -20 97 -5 202 79 53 42 118 92 144 110 l47 34 36
-29 c94 -74 112 -97 124 -155 21 -100 -18 -252 -99 -389 -42 -71 -59 -93 -128
-163 -74 -76 -110 -98 -172 -102 -93 -7 -154 -68 -154 -155 0 -55 20 -92 67
-121 27 -17 45 -20 114 -16 70 3 93 9 156 40 136 67 247 180 368 372 111 177
150 289 151 439 2 150 -38 269 -127 376 -41 50 -44 56 -28 68 21 15 53 16 53
1 0 -25 46 -73 88 -91 71 -32 152 -8 192 57 20 33 22 46 18 163 -4 143 -14
173 -75 219 -31 24 -46 28 -102 28 -56 0 -89 -9 -217 -57 -84 -32 -155 -58
-159 -58 -4 0 26 36 68 79 153 163 202 285 167 413 -24 85 -137 171 -258 197
-58 12 -238 13 -317 1z"/>
<path d="M4213 3771 c-97 -27 -148 -54 -204 -112 -57 -59 -79 -118 -79 -213 0
-122 66 -222 180 -274 44 -21 70 -26 132 -25 67 0 88 5 142 32 125 61 219 199
258 377 l20 94 -22 44 c-36 75 -70 89 -224 93 -106 3 -145 -1 -203 -16z m97
-280 c0 -14 -51 -52 -61 -45 -16 10 -9 23 19 38 32 18 42 19 42 7z"/>
<path d="M3423 3410 c-74 -17 -137 -83 -200 -210 -56 -111 -62 -166 -24 -219
38 -53 92 -74 180 -69 121 7 183 50 230 159 25 57 35 157 21 208 -25 93 -119
153 -207 131z"/>
<path d="M5035 3229 c-74 -39 -184 -130 -229 -190 -56 -74 -80 -145 -80 -229
0 -168 155 -287 317 -245 123 32 199 93 250 203 52 112 48 257 -12 352 -27 43
-81 104 -104 117 -34 19 -98 15 -142 -8z"/>
<path d="M3945 2502 c-76 -37 -115 -99 -115 -182 0 -19 11 -71 25 -115 33
-106 33 -107 -10 -89 -77 32 -163 7 -229 -66 -66 -74 -81 -119 -80 -245 1
-121 20 -210 96 -445 36 -112 45 -130 87 -171 59 -60 128 -79 212 -59 68 17
139 84 158 150 l12 45 62 1 c82 0 156 33 207 91 95 108 93 245 -5 533 -20 58
-56 182 -81 275 -49 187 -68 222 -143 263 -58 33 -143 39 -196 14z"/>
<path d="M2114 2431 c-67 -12 -148 -58 -223 -127 -82 -76 -165 -178 -186 -228
-8 -19 -40 -71 -70 -116 -143 -210 -225 -459 -225 -684 0 -182 49 -325 173
-510 144 -215 360 -309 742 -322 190 -7 271 6 383 62 87 44 195 141 259 233
26 36 59 80 73 97 35 40 131 229 163 321 34 94 91 304 116 430 47 230 12 400
-103 501 -116 101 -245 107 -502 22 -98 -33 -124 -36 -124 -17 0 26 -60 137
-97 178 -40 44 -146 118 -208 143 -46 19 -118 27 -171 17z m91 -458 c50 -179
71 -219 146 -287 54 -49 114 -72 158 -61 14 3 83 31 153 61 108 45 252 94 280
94 38 0 -94 -472 -183 -653 -56 -113 -144 -206 -241 -252 -87 -42 -185 -59
-307 -53 -82 4 -105 10 -156 36 -134 67 -221 185 -251 339 -34 172 17 351 151
529 30 40 61 89 70 110 19 45 135 193 152 194 7 0 20 -26 28 -57z"/>
</g>
</svg>
