<?xml version="1.0" standalone="no"?>
<!DOCTYPE svg PUBLIC "-//W3C//DTD SVG 20010904//EN"
 "http://www.w3.org/TR/2001/REC-SVG-20010904/DTD/svg10.dtd">
<svg version="1.0" xmlns="http://www.w3.org/2000/svg"
 width="600.000000pt" height="600.000000pt" viewBox="0 0 600.000000 600.000000"
 preserveAspectRatio="xMidYMid meet">
<metadata>
Created by potrace 1.15, written by Peter Selinger 2001-2017
</metadata>
<g transform="translate(0.000000,600.000000) scale(0.100000,-0.100000)"
fill="#16364b" stroke="none">
<path d="M1545 5760 c-40 -16 -65 -56 -80 -126 -39 -187 -43 -428 -9 -545 55
-188 196 -243 341 -133 74 57 222 280 297 451 58 132 60 145 37 198 -22 50
-61 75 -118 75 -72 0 -95 -25 -149 -161 -43 -110 -126 -267 -156 -294 -14 -13
-4 145 19 314 17 122 17 124 -4 159 -34 60 -116 88 -178 62z"/>
<path d="M843 5479 c-125 -39 -245 -160 -286 -288 -26 -81 -23 -193 7 -258 30
-63 95 -136 153 -170 85 -50 188 -13 213 76 18 65 -5 118 -71 166 -63 45 -72
85 -37 153 13 26 40 58 59 70 30 22 41 23 99 17 125 -13 171 1 197 62 57 138
-132 236 -334 172z"/>
<path d="M3330 5489 c-52 -11 -100 -68 -100 -118 0 -59 16 -85 77 -122 194
-120 225 -144 207 -154 -40 -22 -73 -64 -80 -100 -10 -54 15 -97 86 -149 144
-106 308 -108 365 -3 29 55 18 156 -27 248 -62 126 -170 230 -353 341 -99 60
-123 68 -175 57z"/>
<path d="M2947 5146 c-169 -63 -255 -311 -151 -436 39 -46 79 -62 150 -62 64
1 171 35 226 74 65 45 87 228 37 323 -49 96 -161 139 -262 101z"/>
<path d="M2300 5102 c-53 -26 -80 -74 -80 -141 -1 -72 -16 -137 -40 -171 -11
-16 -67 -52 -131 -86 -79 -41 -117 -67 -130 -88 -58 -94 -15 -202 83 -213 36
-4 57 2 128 38 227 113 305 192 345 346 22 86 20 230 -5 270 -36 60 -105 78
-170 45z"/>
<path d="M4742 4810 c-18 -11 -41 -34 -53 -52 -19 -30 -20 -44 -15 -148 15
-314 159 -520 365 -520 255 0 323 310 114 519 -94 93 -297 221 -352 221 -14 0
-41 -9 -59 -20z"/>
<path d="M2725 4160 c-187 -60 -244 -253 -111 -382 136 -132 380 -157 579 -57
100 51 143 85 166 132 34 71 23 145 -30 194 -33 30 -153 79 -268 109 -118 30
-247 32 -336 4z"/>
<path d="M1030 4052 c-46 -24 -83 -93 -77 -144 11 -82 72 -138 167 -153 70
-10 174 -36 184 -45 20 -19 -71 -80 -379 -255 -104 -59 -198 -115 -209 -124
-63 -56 -74 -175 -21 -231 33 -35 91 -54 132 -44 15 4 87 36 160 71 73 35 137
62 142 59 4 -3 11 -18 14 -34 3 -16 20 -43 38 -60 65 -64 146 -67 233 -9 79
52 155 89 213 103 47 11 59 10 103 -7 62 -23 111 -24 153 -3 39 21 50 32 71
71 44 86 -5 184 -117 233 -50 22 -169 30 -236 15 l-33 -7 32 47 c39 56 70 150
70 208 0 90 -69 181 -177 236 -74 37 -306 91 -393 91 -19 0 -51 -8 -70 -18z"/>
<path d="M4220 3779 c-74 -14 -165 -65 -213 -119 -54 -60 -77 -122 -77 -206 0
-199 165 -346 350 -312 180 33 307 206 336 457 8 73 -17 130 -69 154 -67 32
-230 45 -327 26z m50 -304 c0 -18 -46 -49 -60 -40 -18 11 18 44 58 54 1 1 2
-6 2 -14z"/>
<path d="M5060 3387 c-109 -45 -188 -114 -234 -206 -120 -235 19 -478 262
-457 82 7 146 36 204 93 105 103 141 281 85 415 -19 46 -115 148 -154 165 -47
19 -100 16 -163 -10z"/>
<path d="M3432 3390 c-76 -18 -136 -80 -208 -213 -49 -91 -53 -126 -24 -175
32 -52 74 -72 155 -72 95 0 159 30 206 96 49 69 60 99 65 179 4 60 2 76 -18
109 -36 63 -106 93 -176 76z"/>
<path d="M2300 2911 c-103 -16 -197 -82 -249 -175 -16 -28 -48 -96 -72 -151
-38 -89 -53 -109 -129 -187 -223 -228 -318 -345 -380 -469 -128 -254 -140
-600 -31 -836 131 -281 470 -469 808 -449 357 21 603 153 778 416 122 183 167
309 214 612 64 402 32 608 -116 755 -51 50 -159 111 -225 127 -61 14 -120 65
-187 158 -36 51 -88 109 -114 128 -76 58 -197 87 -297 71z m190 -586 c73 -88
96 -103 215 -140 64 -20 124 -44 135 -55 29 -29 40 -85 40 -209 0 -197 -44
-421 -109 -549 -53 -105 -140 -203 -231 -262 -202 -129 -525 -95 -695 75 -69
69 -88 112 -93 216 -10 203 86 422 251 574 183 169 263 281 332 463 l27 73 51
-78 c29 -43 63 -91 77 -108z"/>
<path d="M891 2744 c-55 -46 -65 -141 -21 -196 10 -14 49 -42 86 -64 187 -109
268 -268 201 -395 -46 -86 -135 -115 -196 -63 -16 14 -44 49 -61 79 -39 69
-72 95 -119 95 -76 0 -131 -63 -131 -148 0 -91 108 -241 208 -288 48 -23 71
-28 142 -28 136 -1 250 50 338 149 124 141 145 334 56 514 -31 62 -58 96 -149
186 -176 175 -280 222 -354 159z"/>
<path d="M4128 2270 c-58 -31 -82 -73 -86 -153 -4 -65 -6 -68 -26 -62 -59 18
-111 16 -155 -7 -118 -61 -136 -150 -78 -383 63 -250 82 -299 129 -339 47 -40
86 -51 155 -42 52 7 62 7 156 4 127 -4 211 76 224 217 6 69 -21 534 -37 624
-18 100 -91 161 -192 161 -32 -1 -67 -8 -90 -20z"/>
</g>
</svg>
