<?xml version="1.0" standalone="no"?>
<!DOCTYPE svg PUBLIC "-//W3C//DTD SVG 20010904//EN"
 "http://www.w3.org/TR/2001/REC-SVG-20010904/DTD/svg10.dtd">
<svg version="1.0" xmlns="http://www.w3.org/2000/svg"
 width="600.000000pt" height="600.000000pt" viewBox="0 0 600.000000 600.000000"
 preserveAspectRatio="xMidYMid meet">
<metadata>
Created by potrace 1.15, written by Peter Selinger 2001-2017
</metadata>
<g transform="translate(0.000000,600.000000) scale(0.100000,-0.100000)"
fill="#16364b" stroke="none">
<path d="M1997 5026 c-76 -21 -127 -63 -164 -133 -46 -89 -50 -150 -24 -312
17 -105 24 -206 31 -451 5 -173 14 -416 20 -540 7 -141 9 -372 4 -619 l-7
-393 -146 -168 c-80 -92 -180 -208 -221 -258 -41 -50 -84 -92 -95 -94 -13 -2
-20 -10 -19 -25 0 -18 -5 -23 -23 -23 -31 0 -42 -29 -18 -46 17 -13 17 -15 2
-32 -28 -31 -21 -45 18 -40 39 4 39 4 25 -22 -7 -13 -6 -21 5 -30 11 -9 26 -2
74 37 34 26 61 54 61 61 0 7 30 48 68 91 37 43 110 128 162 191 l95 113 7 -49
c3 -27 7 -76 7 -109 1 -83 35 -282 66 -390 75 -259 231 -430 464 -510 39 -13
90 -27 114 -30 65 -10 66 -12 55 -80 -13 -78 -3 -248 21 -355 11 -47 37 -140
59 -207 21 -66 37 -126 33 -131 -3 -5 -50 -12 -104 -13 -97 -4 -99 -5 -128
-37 -36 -40 -37 -71 -3 -111 33 -39 90 -55 169 -46 118 13 204 75 224 163 11
44 8 59 -43 227 -30 99 -60 215 -66 257 -15 90 -9 283 8 300 9 9 25 8 64 -2
42 -12 139 -14 483 -12 l430 2 2 -128 c1 -156 32 -356 73 -484 16 -52 30 -102
30 -110 0 -10 -25 -16 -102 -24 -95 -10 -103 -13 -130 -43 -29 -33 -37 -76
-18 -112 44 -81 257 -65 358 27 43 38 46 44 50 100 3 48 -2 79 -27 155 -17 51
-38 128 -46 169 -18 85 -31 428 -18 447 5 7 111 31 239 53 316 56 358 72 452
175 124 136 195 343 194 570 -1 153 -20 245 -76 359 -56 114 -118 191 -224
278 -46 37 -82 68 -79 68 2 0 70 -11 151 -25 81 -14 160 -25 174 -25 15 0 41
-7 57 -16 25 -13 39 -14 90 -4 33 6 68 13 78 16 20 6 23 30 5 37 -10 3 -10 7
-2 18 7 8 9 29 7 47 -5 31 -7 32 -54 32 -37 0 -49 4 -49 15 0 24 -29 30 -44
10 -12 -17 -18 -17 -132 -1 -65 9 -171 28 -234 42 -63 14 -172 36 -242 50
l-127 26 -153 101 c-84 57 -234 151 -333 211 -450 273 -588 382 -739 586 -116
155 -180 297 -265 588 -113 381 -195 522 -346 593 -74 35 -160 44 -228 25z
m140 -161 c37 -11 62 -28 97 -65 42 -44 96 -141 96 -171 0 -6 11 -34 25 -62
13 -29 49 -140 80 -247 86 -301 136 -414 249 -565 164 -218 381 -391 846 -675
102 -62 239 -150 304 -194 65 -45 167 -112 225 -151 319 -209 418 -300 485
-440 47 -98 60 -162 59 -305 0 -142 -22 -241 -75 -350 -37 -76 -111 -154 -172
-180 -52 -24 -392 -87 -531 -100 -133 -12 -836 -12 -950 0 -49 5 -137 14 -195
20 -208 20 -348 75 -450 179 -181 182 -246 499 -219 1061 18 385 -1 1509 -30
1825 -6 61 -17 145 -25 187 -24 135 6 211 94 236 19 6 35 11 36 11 0 1 23 -6
51 -14z m-707 -2905 c0 -5 -2 -10 -4 -10 -3 0 -8 5 -11 10 -3 6 -1 10 4 10 6
0 11 -4 11 -10z"/>
<path d="M2632 2740 c-12 -12 -22 -31 -22 -44 0 -29 39 -66 71 -66 30 0 43 9
58 38 35 66 -52 123 -107 72z"/>
<path d="M3077 2612 c-30 -33 -17 -75 31 -101 31 -16 59 -6 77 29 17 33 7 73
-20 84 -31 12 -72 6 -88 -12z"/>
<path d="M5247 3989 c-190 -45 -263 -233 -178 -461 30 -78 79 -138 142 -173
47 -26 63 -30 131 -29 92 1 159 29 227 96 83 81 129 226 102 324 -30 110 -167
228 -285 245 -72 10 -88 10 -139 -2z m124 -320 c20 -10 20 -11 3 -30 -30 -34
-64 -20 -64 27 0 17 33 18 61 3z"/>
<path d="M5341 1098 c-26 -27 -54 -110 -54 -160 0 -52 19 -84 60 -103 30 -14
40 -15 76 -3 34 11 46 21 65 58 38 76 25 205 -23 224 -38 14 -104 6 -124 -16z"/>
</g>
</svg>
