<?xml version="1.0" standalone="no"?>
<!DOCTYPE svg PUBLIC "-//W3C//DTD SVG 20010904//EN"
 "http://www.w3.org/TR/2001/REC-SVG-20010904/DTD/svg10.dtd">
<svg version="1.0" xmlns="http://www.w3.org/2000/svg"
 width="600.000000pt" height="600.000000pt" viewBox="0 0 600.000000 600.000000"
 preserveAspectRatio="xMidYMid meet">
<metadata>
Created by potrace 1.15, written by Peter Selinger 2001-2017
</metadata>
<g transform="translate(0.000000,600.000000) scale(0.100000,-0.100000)"
fill="#16364b" stroke="none">
<path d="M2184 5440 c-48 -11 -82 -40 -108 -95 -88 -183 -48 -331 100 -375 27
-8 89 -11 178 -8 75 2 136 0 136 -4 0 -5 -21 -50 -46 -101 -61 -121 -90 -198
-114 -307 -33 -148 -25 -199 40 -253 58 -50 140 -45 194 12 20 20 33 54 50
122 26 104 73 223 140 358 57 113 73 193 52 264 -20 69 -73 129 -144 164 -51
25 -70 28 -178 32 l-122 3 2 48 c2 94 -84 162 -180 140z"/>
<path d="M3588 5394 c-108 -33 -152 -170 -82 -253 33 -39 77 -51 167 -44 103
7 112 -2 111 -104 -1 -61 -10 -102 -39 -188 -53 -159 -42 -219 52 -266 85 -42
165 -2 214 106 69 153 105 329 89 429 -19 118 -90 225 -187 281 -88 52 -228
69 -325 39z"/>
<path d="M1665 4854 c-11 -2 -60 -14 -110 -25 -49 -12 -129 -37 -178 -55 -126
-48 -164 -81 -177 -157 -10 -52 3 -97 37 -129 31 -29 95 -50 120 -41 13 5 15
2 8 -18 -27 -85 -11 -159 46 -202 29 -22 54 -27 174 -41 193 -23 339 -51 443
-86 48 -17 105 -30 128 -30 84 0 153 80 139 161 -11 62 -53 103 -145 139 -86
33 -329 96 -478 125 -51 10 -89 21 -85 25 29 28 237 39 319 19 199 -50 242
227 46 296 -46 16 -244 30 -287 19z"/>
<path d="M4285 4410 c-78 -16 -117 -61 -123 -138 -4 -52 -1 -61 23 -90 41 -49
69 -59 190 -66 123 -7 173 -18 207 -45 20 -17 23 -29 26 -108 3 -61 -3 -117
-17 -185 -15 -72 -18 -104 -10 -130 20 -70 77 -108 163 -108 47 0 60 4 89 30
46 40 57 84 64 267 7 172 -3 243 -47 339 -55 123 -145 191 -285 218 -90 17
-235 25 -280 16z"/>
<path d="M3180 4369 c-36 -17 -146 -66 -245 -109 -470 -202 -475 -206 -482
-304 -6 -68 19 -114 78 -144 57 -30 74 -26 218 47 112 57 349 162 518 231 109
44 145 81 151 153 5 65 -14 109 -61 137 -46 29 -101 25 -177 -11z"/>
<path d="M2189 3866 c-3 -3 -85 -23 -184 -46 -129 -29 -213 -43 -297 -47 -134
-7 -178 -24 -209 -83 -40 -74 -14 -157 64 -200 53 -30 190 -37 322 -16 376 59
457 79 495 122 69 79 38 208 -62 260 -25 13 -119 20 -129 10z"/>
<path d="M3677 3759 c-82 -28 -513 -225 -597 -273 -44 -25 -65 -63 -65 -116 0
-55 21 -91 75 -127 59 -40 87 -33 314 82 114 58 211 105 216 105 6 0 10 -12
10 -27 0 -42 41 -106 80 -126 52 -27 124 -18 159 19 58 60 107 219 98 316 -13
140 -133 201 -290 147z"/>
<path d="M4961 3366 c-53 -19 -112 -75 -137 -131 -21 -46 -24 -64 -21 -167 l2
-115 -38 -54 c-20 -30 -83 -104 -140 -166 -59 -64 -121 -143 -146 -188 -92
-160 -146 -391 -122 -520 22 -121 107 -204 215 -213 95 -8 168 28 213 106 23
39 28 61 34 151 9 159 41 227 170 367 142 154 177 199 216 279 61 128 75 249
49 420 -19 129 -52 187 -128 226 -42 22 -115 24 -167 5z"/>
<path d="M2010 3212 c-50 -27 -83 -93 -76 -152 7 -51 43 -108 84 -132 31 -18
188 -38 306 -38 73 0 104 -10 92 -28 -14 -23 13 -96 48 -131 35 -34 39 -36
105 -36 75 0 104 14 145 69 29 38 35 164 12 234 -49 146 -156 202 -416 216
-63 4 -149 9 -190 12 -61 4 -81 2 -110 -14z"/>
<path d="M4294 3146 c-17 -8 -53 -35 -80 -60 -142 -135 -416 -266 -619 -297
-124 -18 -156 -28 -186 -58 -34 -35 -54 -98 -45 -145 9 -48 59 -103 106 -117
71 -22 290 28 480 109 245 105 523 288 556 368 56 135 -76 259 -212 200z"/>
<path d="M1300 3008 c-24 -13 -57 -40 -74 -61 -26 -32 -31 -49 -34 -105 -3
-60 0 -74 27 -126 27 -51 34 -81 51 -220 60 -485 100 -687 161 -808 29 -56 80
-91 144 -96 69 -6 113 10 157 56 63 66 75 153 34 246 -58 130 -112 416 -131
691 -14 192 -38 281 -97 356 -68 86 -153 110 -238 67z"/>
<path d="M2170 2459 c-77 -13 -224 -88 -294 -150 -87 -79 -106 -142 -66 -223
25 -50 60 -77 110 -83 68 -9 101 3 165 63 62 59 111 94 132 94 6 0 20 -16 32
-35 11 -19 35 -44 53 -55 89 -54 221 13 235 119 11 80 -67 190 -170 240 -72
36 -121 43 -197 30z"/>
<path d="M3760 2174 c-84 -11 -216 -38 -365 -75 -204 -51 -269 -65 -436 -94
-152 -26 -182 -38 -227 -89 -94 -107 -45 -258 96 -295 51 -14 71 -11 412 64
308 67 328 71 482 91 l128 16 37 -23 c138 -86 341 75 294 233 -17 57 -92 129
-157 152 -49 17 -197 28 -264 20z"/>
<path d="M2347 2026 c-21 -8 -48 -22 -59 -33 -27 -24 -82 -141 -102 -219 -20
-78 -21 -212 -1 -289 21 -80 85 -213 120 -248 72 -71 201 -54 255 35 30 49 26
101 -14 172 -73 131 -83 247 -32 356 32 68 33 117 4 160 -46 66 -105 89 -171
66z"/>
<path d="M4595 1623 c-16 -9 -53 -40 -82 -68 -28 -29 -75 -64 -105 -78 -29
-14 -154 -48 -278 -77 -325 -75 -436 -116 -595 -218 -177 -114 -232 -171 -242
-251 -3 -28 -7 -51 -8 -51 -1 0 -20 7 -40 16 -51 21 -94 12 -175 -35 -105 -61
-154 -76 -250 -76 -175 1 -344 84 -497 245 -31 33 -75 69 -98 80 -112 54 -244
-17 -261 -141 -11 -77 21 -131 149 -256 127 -124 173 -158 289 -213 134 -64
259 -93 413 -94 154 -1 218 13 350 78 148 73 204 137 205 229 0 35 2 38 23 30
12 -4 51 -8 87 -8 63 0 68 2 155 61 195 133 310 176 616 230 229 40 390 102
510 195 101 80 149 151 149 221 -1 72 -60 152 -137 185 -44 18 -141 16 -178
-4z"/>
</g>
</svg>
