<?xml version="1.0" standalone="no"?>
<!DOCTYPE svg PUBLIC "-//W3C//DTD SVG 20010904//EN"
 "http://www.w3.org/TR/2001/REC-SVG-20010904/DTD/svg10.dtd">
<svg version="1.0" xmlns="http://www.w3.org/2000/svg"
 width="600.000000pt" height="600.000000pt" viewBox="0 0 600.000000 600.000000"
 preserveAspectRatio="xMidYMid meet">
<metadata>
Created by potrace 1.15, written by Peter Selinger 2001-2017
</metadata>
<g transform="translate(0.000000,600.000000) scale(0.100000,-0.100000)"
fill="#16364b" stroke="none">
<path d="M3562 5272 c-7 -5 -20 -22 -28 -37 -14 -27 -13 -33 17 -94 41 -83
139 -185 188 -194 67 -14 104 39 82 113 -14 48 -88 149 -135 185 -37 28 -102
42 -124 27z m159 -194 c6 -12 6 -18 0 -18 -13 0 -91 98 -91 113 1 13 75 -66
91 -95z"/>
<path d="M3035 5082 c-151 -71 -217 -311 -100 -364 39 -18 110 15 175 81 64
64 91 116 98 182 4 40 0 50 -24 78 -37 41 -92 50 -149 23z m85 -93 c0 -37 -33
-92 -83 -141 -57 -57 -77 -61 -77 -16 0 71 82 178 135 178 19 0 25 -5 25 -21z"/>
<path d="M4772 4719 c-35 -36 -41 -416 -11 -576 8 -39 18 -59 40 -78 35 -29
49 -31 88 -10 37 19 57 70 65 170 12 145 -33 435 -75 490 -26 32 -79 34 -107
4z"/>
<path d="M2638 4204 c-29 -15 -58 -61 -58 -91 0 -36 38 -81 92 -106 101 -49
224 -79 331 -81 l99 -1 29 33 c39 44 40 99 2 142 -25 27 -48 36 -206 75 -190
48 -245 53 -289 29z"/>
<path d="M1495 4111 c-120 -56 -169 -198 -110 -318 22 -44 59 -84 163 -176 25
-22 51 -68 82 -147 37 -95 118 -552 135 -765 3 -44 13 -145 20 -225 8 -80 17
-192 20 -250 19 -333 58 -509 151 -675 112 -201 263 -307 490 -343 105 -16
106 -17 100 -42 -3 -14 -13 -59 -22 -100 -20 -94 -14 -214 15 -290 11 -31 48
-102 81 -157 82 -139 82 -140 -31 -145 -88 -3 -92 -4 -120 -36 -48 -54 -37
-131 24 -168 67 -40 216 -12 289 54 52 47 68 80 68 142 0 57 -17 96 -103 240
-34 57 -61 117 -68 149 -15 70 -7 167 19 256 l21 70 471 3 c258 2 470 1 470
-1 0 -3 -7 -22 -16 -43 -23 -54 -21 -166 4 -231 27 -72 65 -117 138 -165 35
-23 61 -45 58 -50 -3 -4 -27 -8 -54 -8 -40 0 -56 -5 -81 -28 -41 -37 -43 -92
-5 -131 24 -24 33 -26 109 -26 72 0 88 4 136 30 67 37 101 85 101 143 0 69
-22 97 -128 166 -116 75 -132 92 -139 145 -7 54 -1 76 47 149 l41 62 57 0
c146 0 308 41 549 138 213 86 298 135 388 226 137 139 189 306 166 540 -26
279 -109 454 -256 541 -76 44 -195 69 -300 62 -100 -7 -160 -22 -256 -66 -129
-58 -367 -99 -504 -86 -391 36 -622 123 -844 317 -123 107 -234 241 -466 568
-49 69 -114 157 -144 195 -77 99 -254 271 -336 328 -39 26 -92 66 -120 88 -96
76 -223 100 -310 60z m155 -182 c25 -11 54 -28 65 -39 11 -10 61 -45 110 -78
176 -118 251 -201 435 -477 346 -521 579 -741 910 -859 268 -97 583 -129 835
-86 108 18 156 33 350 104 125 46 276 30 343 -36 70 -67 121 -192 143 -347 25
-179 -15 -317 -125 -427 -74 -73 -132 -107 -298 -173 -276 -110 -431 -131
-1033 -138 -487 -5 -870 8 -960 32 -170 47 -279 158 -350 359 -45 124 -63 224
-75 419 -31 462 -68 780 -126 1081 -55 281 -120 417 -248 518 -61 48 -86 83
-86 121 0 19 7 30 23 37 31 13 37 12 87 -11z"/>
<path d="M2407 2522 c-10 -10 -17 -29 -17 -41 0 -28 46 -71 75 -71 49 0 75 79
37 113 -25 22 -75 21 -95 -1z"/>
<path d="M2856 2148 c-23 -32 -20 -55 10 -83 50 -46 104 -21 104 48 0 41 -19
57 -69 57 -20 0 -35 -8 -45 -22z"/>
<path d="M5238 3972 c-145 -52 -243 -203 -223 -341 21 -148 145 -276 286 -296
142 -20 322 72 386 199 31 62 41 157 23 221 -18 63 -87 137 -179 191 -74 43
-78 44 -161 44 -54 -1 -102 -7 -132 -18z m167 -294 c11 -10 -28 -48 -49 -48
-17 0 -40 45 -31 60 8 12 63 4 80 -12z"/>
<path d="M4173 3732 c-89 -37 -166 -118 -198 -208 -8 -22 -14 -68 -15 -103 0
-81 25 -136 86 -190 103 -91 269 -96 384 -14 77 56 138 189 124 273 -24 150
-45 184 -140 231 -65 31 -180 37 -241 11z m107 -270 c0 -10 -5 -23 -12 -30
-13 -13 -48 -16 -48 -4 0 16 32 52 46 52 8 0 14 -8 14 -18z"/>
<path d="M495 2004 c-29 -29 -14 -56 55 -101 118 -78 197 -114 237 -111 48 4
62 37 30 72 -20 23 -273 156 -296 156 -5 0 -17 -7 -26 -16z"/>
<path d="M5316 1099 c-39 -31 -71 -143 -56 -198 18 -69 87 -99 150 -66 79 41
107 239 39 275 -32 18 -104 12 -133 -11z"/>
</g>
</svg>
