<?xml version="1.0" standalone="no"?>
<!DOCTYPE svg PUBLIC "-//W3C//DTD SVG 20010904//EN"
 "http://www.w3.org/TR/2001/REC-SVG-20010904/DTD/svg10.dtd">
<svg version="1.0" xmlns="http://www.w3.org/2000/svg"
 width="600.000000pt" height="600.000000pt" viewBox="0 0 600.000000 600.000000"
 preserveAspectRatio="xMidYMid meet">
<metadata>
Created by potrace 1.15, written by Peter Selinger 2001-2017
</metadata>
<g transform="translate(0.000000,600.000000) scale(0.100000,-0.100000)"
fill="#16364b" stroke="none">
<path d="M2995 5595 c-51 -18 -68 -40 -121 -150 -101 -212 -95 -351 20 -452
58 -51 131 -73 267 -80 60 -3 109 -9 108 -12 0 -3 -37 -32 -82 -63 -114 -80
-270 -212 -404 -343 l-113 -110 0 -48 c0 -59 17 -93 68 -139 61 -55 120 -74
601 -188 74 -18 166 -43 204 -56 82 -28 117 -30 157 -9 96 50 103 186 12 248
-42 29 -190 74 -368 112 -169 37 -248 57 -257 65 -15 14 173 167 388 315 124
86 212 168 236 220 22 48 24 126 5 164 -25 47 -82 89 -153 112 -56 17 -99 22
-238 26 -183 4 -215 8 -215 24 0 5 21 55 46 110 39 85 45 106 39 139 -9 51
-38 88 -89 111 -49 22 -59 22 -111 4z"/>
<path d="M1492 5322 c-124 -66 -285 -213 -365 -335 -99 -149 -192 -369 -204
-477 -11 -105 37 -183 119 -196 20 -4 81 6 153 25 150 37 315 71 350 71 34 0
33 -2 -60 -200 -86 -183 -107 -241 -104 -291 2 -20 -2 -43 -8 -51 -23 -29 -43
-79 -43 -109 0 -45 36 -115 72 -140 61 -44 97 -38 284 41 221 94 379 175 404
207 64 82 38 203 -54 247 -53 25 -87 20 -181 -30 -48 -25 -88 -44 -90 -42 -2
2 22 61 52 131 58 136 86 254 76 322 -10 69 -49 133 -101 166 -87 55 -175 63
-357 29 -60 -11 -110 -18 -113 -15 -5 5 47 91 101 164 57 79 156 174 213 206
122 70 152 146 94 240 -43 69 -146 85 -238 37z"/>
<path d="M4585 4536 c-95 -18 -433 -141 -462 -168 -74 -70 -32 -207 73 -237
36 -11 52 -7 196 41 86 29 160 49 164 46 8 -9 -92 -177 -238 -400 -117 -180
-132 -212 -122 -271 6 -39 33 -71 119 -139 55 -45 43 -42 265 -68 184 -21 279
-38 294 -51 8 -7 -107 -219 -235 -435 -61 -101 -68 -143 -37 -203 51 -99 187
-110 261 -21 73 86 280 466 311 570 25 84 21 165 -12 225 -58 105 -171 157
-434 197 -84 12 -148 27 -148 33 0 6 11 26 23 45 31 45 183 314 230 405 85
166 87 282 5 371 -59 64 -135 82 -253 60z"/>
<path d="M3761 3648 c-52 -18 -107 -76 -121 -127 -21 -79 20 -184 84 -215 39
-18 108 -21 138 -5 16 9 23 8 29 -2 14 -22 2 -64 -47 -167 -1 -1 -27 -7 -60
-12 -173 -28 -374 -199 -374 -319 0 -45 35 -108 73 -131 81 -50 151 -36 224
45 64 70 117 93 233 104 100 9 128 23 168 81 16 24 22 47 22 86 0 30 8 72 20
99 68 159 40 335 -74 462 -63 70 -133 105 -215 109 -36 2 -81 -2 -100 -8z"/>
<path d="M2590 3574 c-162 -23 -249 -49 -375 -112 -129 -64 -157 -97 -157
-182 0 -58 23 -105 65 -130 49 -30 100 -26 173 15 114 64 278 114 319 98 20
-7 19 -55 -4 -146 -30 -116 -75 -219 -153 -350 -85 -144 -92 -165 -73 -220 9
-27 12 -61 8 -98 -5 -48 -2 -63 17 -98 29 -51 86 -89 153 -103 49 -10 64 -7
232 40 99 28 200 54 224 58 l44 7 -6 -33 c-7 -30 -27 -82 -102 -259 -33 -78
-29 -135 13 -196 67 -98 201 -112 286 -29 37 36 111 173 160 296 86 218 70
416 -44 526 -109 107 -262 124 -493 57 -45 -13 -83 -22 -85 -20 -2 1 18 44 43
95 160 318 172 518 43 682 -52 66 -190 115 -288 102z"/>
<path d="M1130 3329 c-114 -20 -294 -130 -331 -201 -25 -48 -25 -139 0 -193
20 -45 79 -102 116 -111 29 -7 113 -1 138 10 25 12 23 -10 -23 -207 -55 -240
-74 -392 -66 -547 12 -263 65 -348 227 -365 92 -10 130 9 178 87 69 113 218
334 322 478 58 80 125 174 148 209 l43 63 20 -43 c17 -38 19 -57 14 -144 -4
-57 -22 -168 -41 -255 -83 -366 -87 -387 -83 -515 3 -98 8 -127 25 -160 29
-55 64 -85 110 -95 113 -26 213 79 182 192 -15 57 -7 131 40 378 62 320 75
556 41 695 -6 22 -17 78 -25 124 -32 174 -124 265 -251 247 -104 -14 -178 -81
-367 -334 -71 -95 -131 -171 -133 -169 -3 2 12 91 32 198 29 155 37 220 38
324 1 117 -1 135 -23 183 -54 119 -181 177 -331 151z"/>
<path d="M4674 2335 c-73 -38 -122 -112 -124 -187 l0 -28 -97 0 c-289 -1 -503
-59 -612 -168 -98 -98 -132 -208 -131 -421 1 -75 1 -140 0 -145 0 -6 -15 4
-32 20 -57 53 -114 93 -179 126 -60 31 -70 33 -170 33 -99 0 -109 -2 -170 -33
-114 -58 -232 -174 -313 -309 -20 -34 -63 -117 -96 -185 -34 -71 -61 -117 -64
-108 -11 34 -28 106 -71 315 -69 340 -92 398 -170 442 -72 41 -184 25 -237
-34 -26 -28 -48 -88 -48 -128 0 -19 11 -74 25 -122 14 -49 46 -189 71 -313 50
-255 63 -299 110 -390 87 -166 249 -274 382 -255 154 21 211 78 283 282 57
160 132 290 227 393 40 44 52 52 73 47 13 -4 67 -43 119 -88 113 -97 188 -147
249 -166 67 -20 180 -17 245 8 64 23 153 99 172 146 8 17 25 48 39 69 43 63
47 99 35 283 -6 92 -8 175 -5 183 10 25 37 29 285 38 262 9 309 18 398 77 125
84 189 275 151 453 -32 151 -208 235 -345 165z"/>
</g>
</svg>
