<?xml version="1.0" standalone="no"?>
<!DOCTYPE svg PUBLIC "-//W3C//DTD SVG 20010904//EN"
 "http://www.w3.org/TR/2001/REC-SVG-20010904/DTD/svg10.dtd">
<svg version="1.0" xmlns="http://www.w3.org/2000/svg"
 width="600.000000pt" height="600.000000pt" viewBox="0 0 600.000000 600.000000"
 preserveAspectRatio="xMidYMid meet">
<metadata>
Created by potrace 1.15, written by Peter Selinger 2001-2017
</metadata>
<g transform="translate(0.000000,600.000000) scale(0.100000,-0.100000)"
fill="#16364b" stroke="none">
<path d="M1785 5790 c-43 -17 -75 -70 -130 -210 -175 -445 -195 -597 -89 -689
97 -85 225 -58 388 83 67 58 346 378 370 425 49 94 -21 221 -122 221 -57 0
-94 -24 -185 -120 -48 -51 -90 -91 -92 -89 -2 2 16 53 41 112 47 116 54 163
27 207 -33 57 -141 88 -208 60z"/>
<path d="M2993 5680 c-39 -24 -73 -86 -73 -136 0 -66 23 -94 146 -179 255
-175 292 -203 379 -290 95 -95 149 -175 160 -237 l7 -38 -39 0 c-53 0 -123
-37 -147 -79 -40 -70 -13 -168 57 -206 27 -14 49 -17 113 -13 132 7 211 63
270 192 58 127 35 275 -67 429 -108 162 -245 283 -552 486 -153 101 -189 111
-254 71z"/>
<path d="M953 5436 c-114 -28 -232 -111 -293 -206 -90 -140 -93 -336 -7 -482
50 -85 171 -177 234 -178 38 0 102 31 122 59 50 72 38 134 -45 222 -71 76 -84
113 -63 181 19 57 61 84 145 94 57 6 71 11 104 43 85 81 68 216 -34 262 -47
21 -89 23 -163 5z"/>
<path d="M2949 5176 c-78 -21 -164 -99 -201 -184 -31 -69 -23 -176 18 -234 64
-92 208 -134 353 -104 85 18 114 34 141 79 35 57 21 201 -31 305 -35 72 -96
124 -166 141 -50 13 -56 13 -114 -3z"/>
<path d="M4816 4880 c-44 -13 -106 -60 -124 -94 -14 -25 -17 -56 -15 -156 3
-248 70 -396 215 -472 35 -18 59 -22 128 -22 73 0 92 4 136 27 139 72 183 242
104 403 -58 117 -200 247 -330 301 -60 24 -70 26 -114 13z"/>
<path d="M2028 4836 c-128 -37 -182 -89 -182 -175 1 -105 86 -174 184 -148 84
21 89 21 100 -8 5 -14 10 -46 10 -69 0 -109 125 -188 224 -141 76 36 100 115
77 250 -22 124 -94 230 -187 275 -54 27 -163 34 -226 16z"/>
<path d="M1111 4071 c-110 -20 -135 -33 -185 -95 -25 -30 -31 -48 -34 -99 -4
-74 14 -116 71 -161 31 -24 49 -31 107 -35 l69 -6 -121 -135 c-168 -189 -239
-286 -312 -430 -113 -222 -166 -352 -166 -406 0 -98 81 -183 182 -192 65 -5
114 13 172 64 23 20 92 70 155 111 122 80 240 170 386 293 159 134 203 164
220 150 32 -26 10 -225 -41 -385 -25 -78 -83 -202 -135 -290 -68 -116 -236
-348 -313 -434 -81 -90 -96 -131 -72 -194 9 -24 29 -53 45 -65 61 -44 152 -46
205 -5 67 53 350 452 445 626 75 139 149 335 187 497 14 58 30 123 35 145 13
52 2 242 -18 317 -44 162 -198 213 -377 124 -40 -19 -108 -58 -151 -87 -43
-28 -86 -54 -94 -57 -8 -3 16 32 54 79 153 188 199 286 193 409 -7 121 -63
211 -158 253 -65 29 -215 32 -349 8z"/>
<path d="M2851 4062 c-109 -32 -182 -136 -167 -237 28 -177 280 -263 686 -235
176 12 201 18 243 58 55 53 56 154 1 209 -33 33 -226 125 -341 162 -183 60
-319 74 -422 43z"/>
<path d="M4230 3779 c-164 -29 -289 -142 -313 -282 -26 -157 87 -306 254 -336
145 -25 300 50 389 189 37 58 100 228 100 271 0 76 -48 131 -131 148 -73 16
-236 21 -299 10z m35 -309 c-19 -21 -55 -27 -55 -10 0 11 35 28 59 29 11 1 10
-4 -4 -19z"/>
<path d="M3378 3398 c-51 -31 -91 -89 -143 -205 -51 -111 -54 -141 -22 -198
30 -54 76 -75 179 -81 74 -5 87 -3 123 18 115 68 172 260 111 378 -48 95 -168
138 -248 88z"/>
<path d="M5020 3163 c-36 -14 -141 -96 -196 -155 -33 -36 -73 -91 -89 -124
-25 -51 -29 -71 -29 -149 -1 -80 2 -95 26 -135 78 -132 195 -165 335 -95 86
43 144 103 186 193 30 62 32 75 32 172 0 123 -13 155 -92 232 -63 61 -119 81
-173 61z"/>
<path d="M3865 2631 c-140 -66 -170 -190 -101 -413 20 -65 36 -122 36 -127 0
-5 -22 -1 -49 9 -125 48 -231 32 -298 -44 -22 -25 -45 -63 -52 -86 -17 -57
-15 -162 5 -250 18 -82 163 -499 194 -560 55 -109 190 -150 301 -92 72 37 109
105 109 197 0 35 -5 76 -10 90 -10 26 -10 27 17 19 16 -5 60 -9 98 -9 122 1
230 67 282 173 26 53 28 65 27 172 -1 137 -20 207 -145 529 -98 255 -132 325
-175 358 -71 54 -167 67 -239 34z"/>
<path d="M2007 2296 c-113 -41 -241 -176 -332 -351 -19 -36 -46 -81 -60 -99
-42 -55 -96 -184 -125 -301 -75 -297 -64 -600 30 -792 89 -181 323 -378 530
-445 127 -41 391 -35 556 12 143 41 271 141 365 285 26 39 54 77 63 84 25 21
80 124 145 273 32 73 83 185 114 248 85 177 110 265 111 385 0 82 -4 111 -23
158 -74 188 -244 266 -455 208 -81 -22 -285 -109 -392 -167 -46 -24 -65 -31
-68 -22 -2 7 -14 60 -26 118 -29 136 -68 237 -119 304 -74 99 -204 141 -314
102z m104 -673 c17 -86 35 -168 40 -182 13 -34 45 -67 94 -100 104 -68 143
-68 267 -1 201 109 483 238 495 227 7 -7 -48 -168 -94 -276 -72 -169 -153
-323 -192 -366 -20 -23 -50 -62 -68 -88 -67 -97 -207 -160 -359 -160 -87 -1
-96 1 -175 40 -92 45 -173 110 -220 179 -97 142 -88 445 21 669 22 45 40 87
40 93 0 6 11 23 23 39 13 15 37 50 52 77 35 60 33 64 76 -151z"/>
</g>
</svg>
