<?xml version="1.0" standalone="no"?>
<!DOCTYPE svg PUBLIC "-//W3C//DTD SVG 20010904//EN"
 "http://www.w3.org/TR/2001/REC-SVG-20010904/DTD/svg10.dtd">
<svg version="1.0" xmlns="http://www.w3.org/2000/svg"
 width="600.000000pt" height="600.000000pt" viewBox="0 0 600.000000 600.000000"
 preserveAspectRatio="xMidYMid meet">
<metadata>
Created by potrace 1.15, written by Peter Selinger 2001-2017
</metadata>
<g transform="translate(0.000000,600.000000) scale(0.100000,-0.100000)"
fill="#16364b" stroke="none">
<path d="M2388 5414 c-38 -20 -48 -43 -48 -111 0 -145 -49 -457 -89 -564 -45
-118 -96 -175 -204 -224 -91 -42 -108 -82 -58 -137 37 -42 75 -42 164 1 219
105 336 382 354 838 l6 151 -31 31 c-34 34 -54 37 -94 15z"/>
<path d="M3514 5306 c-34 -24 -50 -88 -34 -138 32 -110 113 -213 198 -257 44
-22 111 -27 143 -11 29 16 52 68 45 104 -14 74 -134 242 -200 281 -55 32 -124
42 -152 21z"/>
<path d="M3028 5136 c-116 -31 -209 -159 -211 -290 -2 -103 44 -160 127 -158
47 0 86 17 154 65 86 62 141 242 98 325 -28 54 -95 77 -168 58z m7 -203 c-17
-41 -33 -63 -46 -63 -16 0 -9 25 16 63 33 47 50 48 30 0z"/>
<path d="M4769 4745 c-46 -25 -52 -57 -47 -257 5 -200 18 -261 76 -342 44 -63
75 -81 140 -81 74 0 111 26 149 103 24 49 28 68 27 142 -1 134 -39 212 -171
354 -86 93 -122 110 -174 81z"/>
<path d="M2655 4205 c-136 -52 -155 -213 -40 -327 105 -104 307 -90 460 32 56
44 75 77 75 130 0 55 -27 103 -66 117 -151 56 -349 78 -429 48z"/>
<path d="M1124 4096 c-23 -23 -34 -43 -34 -63 0 -17 -8 -38 -19 -47 -59 -53
-4 -215 93 -275 97 -61 270 5 307 117 17 51 7 133 -21 171 -48 68 -169 131
-251 131 -33 0 -47 -6 -75 -34z"/>
<path d="M5234 3900 c-98 -20 -195 -95 -229 -177 -58 -139 -33 -271 73 -378
128 -130 326 -132 465 -5 78 71 112 149 112 256 0 76 -2 84 -35 133 -51 75
-173 159 -247 171 -66 11 -82 11 -139 0z m124 -314 c8 -9 -18 -44 -37 -49 -31
-8 -56 34 -34 57 7 7 62 1 71 -8z"/>
<path d="M4240 3766 c-140 -31 -241 -129 -275 -264 -46 -179 88 -336 285 -336
122 0 225 58 286 162 47 80 68 253 41 332 -28 80 -205 136 -337 106z m60 -274
c0 -18 -33 -52 -51 -52 -28 0 -23 27 9 44 31 17 42 19 42 8z"/>
<path d="M3448 3359 c-44 -25 -178 -270 -178 -324 0 -40 37 -75 79 -75 62 0
158 87 208 188 64 131 40 223 -59 222 -18 0 -41 -5 -50 -11z"/>
<path d="M1390 3203 c-242 -25 -380 -82 -507 -208 -33 -34 -66 -81 -86 -122
-29 -62 -32 -77 -32 -163 0 -89 2 -100 38 -174 28 -59 55 -96 110 -151 86 -86
174 -132 321 -170 129 -33 176 -55 224 -104 56 -58 102 -151 167 -341 65 -188
102 -266 178 -365 72 -94 152 -158 272 -216 110 -53 227 -85 350 -94 118 -9
743 12 865 30 58 8 205 21 327 30 128 8 266 24 325 36 121 25 304 87 398 134
197 99 429 338 524 539 53 111 71 200 70 341 -1 222 -56 366 -195 505 -167
167 -392 262 -583 247 -146 -12 -271 -63 -510 -206 -129 -78 -245 -127 -273
-117 -7 3 -47 1 -87 -5 -175 -24 -344 35 -621 215 -402 262 -512 312 -768 350
-96 15 -403 20 -507 9z m488 -403 c156 -31 217 -61 461 -225 324 -217 497
-297 711 -331 52 -8 118 -19 146 -24 61 -11 147 0 294 36 139 35 222 74 392
188 172 114 229 139 318 139 91 1 147 -28 242 -122 89 -90 103 -123 102 -251
-1 -167 -78 -313 -232 -441 -184 -153 -340 -206 -693 -238 -64 -6 -176 -21
-250 -32 -117 -19 -180 -22 -490 -24 -195 -1 -360 -4 -365 -8 -6 -3 -52 -2
-104 3 -220 21 -291 101 -445 505 -114 298 -184 402 -335 500 -85 55 -176 91
-295 115 -134 28 -185 59 -185 115 0 26 33 63 68 76 123 47 467 57 660 19z"/>
<path d="M463 2096 c-50 -23 -72 -88 -38 -116 8 -7 30 -40 48 -74 39 -75 146
-185 208 -214 143 -69 254 26 190 163 -35 74 -113 142 -238 204 -97 49 -128
56 -170 37z"/>
<path d="M5183 1298 c-18 -5 -38 -17 -45 -27 -7 -10 -30 -26 -50 -34 -72 -30
-96 -111 -62 -210 23 -68 72 -107 133 -107 96 0 142 69 148 225 3 85 1 103
-14 122 -23 29 -69 42 -110 31z"/>
</g>
</svg>
