<?xml version="1.0" standalone="no"?>
<!DOCTYPE svg PUBLIC "-//W3C//DTD SVG 20010904//EN"
 "http://www.w3.org/TR/2001/REC-SVG-20010904/DTD/svg10.dtd">
<svg version="1.0" xmlns="http://www.w3.org/2000/svg"
 width="600.000000pt" height="600.000000pt" viewBox="0 0 600.000000 600.000000"
 preserveAspectRatio="xMidYMid meet">
<metadata>
Created by potrace 1.15, written by Peter Selinger 2001-2017
</metadata>
<g transform="translate(0.000000,600.000000) scale(0.100000,-0.100000)"
fill="#16364b" stroke="none">
<path d="M2136 5319 c-113 -39 -199 -118 -237 -218 -21 -54 -21 -64 -13 -336
5 -154 8 -523 6 -820 -2 -469 -8 -638 -34 -1060 -3 -36 -6 -40 -38 -47 -57
-13 -356 -24 -484 -18 l-120 5 -9 35 c-5 19 -13 39 -17 44 -15 15 -38 -12 -32
-39 6 -35 -6 -31 -55 17 -34 33 -46 39 -55 30 -12 -12 -11 -17 17 -85 7 -16 3
-17 -44 -11 -43 6 -51 4 -51 -10 0 -8 19 -26 43 -38 l42 -22 -43 -10 c-63 -13
-54 -39 18 -48 157 -20 541 -30 685 -19 71 5 131 9 133 7 1 -2 7 -138 12 -302
10 -308 16 -360 64 -537 45 -163 79 -237 158 -343 77 -103 241 -203 398 -243
l75 -19 2 -113 c1 -63 7 -150 13 -194 11 -73 66 -323 90 -405 21 -72 22 -71
-94 -68 -93 3 -108 1 -133 -18 -67 -50 -48 -150 36 -187 80 -35 222 -8 300 60
81 69 89 123 40 279 -75 243 -112 450 -102 568 l6 58 61 -6 c33 -3 106 -8 161
-11 55 -3 192 -15 305 -27 150 -15 238 -19 328 -14 l122 6 -6 -58 c-3 -31 -8
-63 -10 -70 -7 -23 16 -192 36 -273 11 -42 38 -122 60 -178 23 -55 38 -106 35
-111 -3 -6 -45 -10 -93 -10 -94 0 -124 -10 -155 -52 -24 -33 -17 -84 17 -121
76 -82 320 -36 377 73 31 56 25 120 -22 239 -49 125 -85 261 -94 358 -8 76 9
205 28 222 7 5 89 17 182 26 94 9 192 21 219 26 148 28 273 135 360 308 63
125 79 201 80 396 0 153 -2 180 -26 275 -80 314 -145 442 -314 620 -24 24 -42
46 -40 47 2 2 58 10 125 18 154 19 267 46 385 90 52 19 99 35 106 35 15 0 160
101 160 111 0 5 -6 12 -14 16 -8 4 -14 17 -13 28 2 14 -6 21 -28 25 -20 4 -26
8 -17 13 19 12 14 37 -7 37 -10 0 -30 -9 -44 -20 -32 -25 -37 -25 -37 0 0 20
-25 38 -37 26 -3 -3 -9 -23 -12 -43 -6 -35 -10 -39 -72 -65 -156 -65 -342
-104 -536 -115 l-122 -6 -73 69 c-183 174 -287 252 -593 444 -259 163 -325
211 -410 301 -231 245 -327 473 -445 1050 -46 224 -75 294 -153 366 -30 27
-75 56 -103 66 -67 23 -173 22 -248 -4z m203 -143 c66 -34 121 -133 136 -241
3 -28 22 -122 42 -210 118 -539 242 -791 520 -1056 93 -88 140 -121 363 -254
314 -186 412 -261 669 -511 198 -192 308 -319 350 -402 38 -77 108 -330 122
-444 39 -314 -50 -565 -227 -644 -51 -23 -183 -45 -374 -64 -58 -6 -143 -15
-190 -20 -111 -13 -351 -13 -465 1 -49 5 -173 14 -275 19 -352 18 -496 43
-638 111 -153 74 -239 185 -297 386 -46 158 -55 235 -67 588 -10 302 -9 365 6
565 31 401 35 481 36 735 0 138 5 315 11 394 7 111 6 196 -5 375 -26 402 -28
490 -16 535 14 52 58 103 113 130 50 25 144 28 186 7z"/>
<path d="M2600 2820 c-33 -33 -24 -72 21 -95 37 -20 45 -19 69 5 24 24 26 72
4 94 -22 22 -70 20 -94 -4z"/>
<path d="M3137 2762 c-23 -26 -21 -57 5 -82 38 -35 68 -37 95 -6 28 33 30 67
5 89 -25 23 -85 22 -105 -1z"/>
<path d="M2882 1864 c-28 -19 -28 -45 -1 -70 19 -17 36 -19 160 -17 77 2 148
7 159 13 23 12 26 52 6 69 -10 8 -55 11 -138 10 -67 -1 -132 1 -143 4 -12 4
-30 1 -43 -9z"/>
</g>
</svg>
