<?xml version="1.0" standalone="no"?>
<!DOCTYPE svg PUBLIC "-//W3C//DTD SVG 20010904//EN"
 "http://www.w3.org/TR/2001/REC-SVG-20010904/DTD/svg10.dtd">
<svg version="1.0" xmlns="http://www.w3.org/2000/svg"
 width="600.000000pt" height="600.000000pt" viewBox="0 0 600.000000 600.000000"
 preserveAspectRatio="xMidYMid meet">
<metadata>
Created by potrace 1.15, written by Peter Selinger 2001-2017
</metadata>
<g transform="translate(0.000000,600.000000) scale(0.100000,-0.100000)"
fill="#16364b" stroke="none">
<path d="M1855 4770 c-63 -24 -121 -80 -151 -145 -35 -74 -32 -150 10 -277 43
-127 66 -289 86 -593 5 -82 17 -238 25 -345 14 -171 15 -257 5 -700 -8 -364
-8 -562 -1 -709 l11 -203 30 -35 c16 -18 30 -40 30 -48 0 -8 8 -19 19 -24 10
-6 29 -30 41 -53 117 -225 289 -362 521 -415 l76 -17 -5 -131 c-3 -96 0 -157
12 -230 18 -104 57 -254 82 -313 23 -57 20 -62 -40 -62 -80 0 -157 -18 -183
-42 -31 -29 -40 -81 -19 -113 28 -43 60 -57 128 -56 114 1 208 43 257 116 39
58 38 104 -8 245 -63 196 -75 260 -76 400 0 69 4 138 8 154 7 25 11 28 40 22
92 -18 333 -25 624 -20 l322 7 -11 -44 c-24 -103 4 -271 98 -606 10 -34 16
-65 13 -67 -3 -3 -43 -8 -89 -11 -121 -9 -170 -41 -170 -113 0 -42 34 -77 91
-92 57 -16 178 7 237 44 94 59 114 140 67 277 -85 248 -121 461 -95 567 13 58
5 54 135 72 148 21 417 89 490 124 189 90 301 253 336 486 21 145 -6 311 -71
439 -26 53 -27 60 -15 84 13 25 12 29 -28 68 -73 73 -244 176 -507 308 -140
70 -283 144 -317 164 -35 20 -159 83 -275 140 -309 150 -423 225 -592 387
-146 140 -226 251 -366 505 -45 82 -116 210 -159 284 -128 224 -154 272 -193
354 -91 190 -263 278 -423 217z m174 -161 c41 -22 89 -87 122 -164 12 -27 30
-61 39 -75 43 -62 244 -408 310 -535 163 -312 288 -474 491 -635 127 -102 235
-167 510 -305 135 -69 282 -149 326 -178 45 -30 182 -104 306 -165 203 -101
232 -119 314 -192 50 -44 105 -102 121 -128 129 -203 98 -518 -67 -682 -67
-67 -114 -90 -263 -129 -165 -44 -305 -68 -458 -80 -219 -17 -692 -24 -820
-12 -63 6 -178 16 -255 21 -76 6 -169 17 -205 24 -152 32 -271 116 -354 249
-129 206 -156 410 -161 1192 -2 275 -8 547 -14 605 -6 58 -15 215 -21 350 -12
322 -36 480 -96 638 -28 74 -30 111 -9 152 36 69 112 90 184 49z"/>
<path d="M2572 2674 c-31 -22 -29 -67 4 -93 36 -29 68 -26 94 6 51 65 -29 136
-98 87z"/>
<path d="M3022 2494 c-46 -32 -10 -114 51 -114 51 0 75 72 37 110 -24 24 -57
26 -88 4z"/>
<path d="M5225 3966 c-138 -44 -219 -151 -218 -291 1 -153 98 -285 243 -331
140 -44 337 52 411 201 79 161 14 321 -164 406 -54 25 -73 29 -147 28 -47 0
-103 -6 -125 -13z m139 -276 c32 -12 25 -37 -12 -47 -18 -4 -29 -1 -39 12 -29
41 -6 57 51 35z"/>
<path d="M5375 1116 c-46 -20 -92 -140 -79 -205 8 -38 56 -81 90 -81 71 0 121
67 131 173 5 56 3 66 -18 90 -29 33 -81 43 -124 23z"/>
</g>
</svg>
