<?xml version="1.0" standalone="no"?>
<!DOCTYPE svg PUBLIC "-//W3C//DTD SVG 20010904//EN"
 "http://www.w3.org/TR/2001/REC-SVG-20010904/DTD/svg10.dtd">
<svg version="1.0" xmlns="http://www.w3.org/2000/svg"
 width="600.000000pt" height="600.000000pt" viewBox="0 0 600.000000 600.000000"
 preserveAspectRatio="xMidYMid meet">
<metadata>
Created by potrace 1.15, written by Peter Selinger 2001-2017
</metadata>
<g transform="translate(0.000000,600.000000) scale(0.100000,-0.100000)"
fill="#16364b" stroke="none">
<path d="M1543 5790 c-28 -11 -40 -36 -103 -206 -89 -240 -109 -359 -75 -442
46 -109 144 -140 249 -78 66 39 184 159 359 368 64 77 77 118 53 170 -21 45
-68 71 -124 70 -52 0 -63 -9 -184 -153 -46 -54 -85 -96 -87 -94 -2 2 13 47 33
99 53 136 58 156 45 193 -22 67 -97 100 -166 73z"/>
<path d="M838 5541 c-26 -10 -62 -28 -81 -40 -59 -36 -158 -150 -191 -220 -28
-60 -31 -75 -31 -161 0 -101 13 -139 72 -217 31 -40 109 -93 138 -93 69 0 125
55 125 121 -1 43 -15 67 -62 108 -33 28 -38 39 -38 75 0 79 86 176 157 178 16
1 47 -9 70 -21 54 -27 92 -27 134 2 64 43 75 134 23 196 -14 16 -52 44 -86 60
-73 37 -155 41 -230 12z"/>
<path d="M3461 5364 c-42 -35 -49 -81 -22 -137 12 -24 21 -54 21 -68 0 -45 58
-148 114 -205 90 -89 176 -115 244 -74 148 90 52 346 -175 468 -96 50 -137 54
-182 16z"/>
<path d="M2318 5341 c-30 -27 -33 -34 -32 -83 9 -344 9 -343 -9 -403 -35 -114
-85 -171 -212 -236 -98 -51 -132 -82 -146 -132 -21 -77 28 -147 103 -147 75 0
297 134 369 223 98 122 124 224 123 492 -1 227 -8 263 -58 295 -49 29 -99 26
-138 -9z"/>
<path d="M3011 5149 c-100 -19 -175 -80 -220 -180 -38 -83 -22 -190 37 -252
38 -40 119 -61 181 -48 67 14 152 53 177 82 33 36 57 116 58 194 1 57 -4 78
-24 115 -40 71 -120 105 -209 89z"/>
<path d="M4724 4781 c-49 -30 -58 -65 -51 -204 12 -242 96 -416 234 -483 184
-90 377 50 360 261 -12 153 -120 276 -358 408 -76 43 -135 48 -185 18z m282
-413 c8 -16 13 -32 10 -35 -5 -6 -46 56 -46 70 0 15 20 -4 36 -35z"/>
<path d="M2691 4214 c-88 -23 -156 -77 -195 -152 -58 -112 -3 -251 128 -320
46 -24 61 -27 151 -27 80 1 111 5 157 24 76 30 170 93 241 161 56 55 57 57 57
113 0 81 -34 117 -150 157 -167 59 -285 72 -389 44z"/>
<path d="M1062 4090 c-70 -43 -92 -132 -52 -210 28 -54 56 -70 157 -87 99 -17
133 -28 133 -42 0 -15 -116 -94 -195 -134 -39 -19 -116 -49 -172 -67 -111 -34
-154 -68 -168 -128 -15 -71 35 -152 105 -167 73 -16 409 108 556 205 l31 20 7
-40 c6 -39 27 -68 137 -192 24 -27 66 -60 98 -75 75 -37 193 -40 257 -6 59 31
103 79 132 142 46 99 17 221 -70 295 -83 71 -243 96 -358 56 -71 -25 -70 -25
-59 12 25 89 -1 203 -64 274 -68 77 -150 118 -295 149 -97 20 -140 19 -180 -5z"/>
<path d="M4213 3781 c-101 -35 -194 -116 -241 -211 -23 -47 -27 -68 -27 -140
0 -75 3 -91 28 -132 56 -96 159 -154 272 -152 91 1 150 27 220 97 84 85 136
205 150 349 8 83 -14 132 -71 164 -82 46 -237 57 -331 25z m87 -288 c-1 -14
-24 -39 -47 -52 -20 -10 -23 -9 -23 8 0 12 12 27 28 35 31 17 42 19 42 9z"/>
<path d="M5132 3510 c-107 -50 -203 -138 -248 -227 -39 -79 -41 -183 -4 -258
37 -76 109 -141 178 -161 53 -16 61 -16 122 0 91 23 162 74 211 148 50 78 69
142 69 234 0 59 -5 80 -27 122 -29 52 -93 127 -134 156 -36 25 -96 20 -167
-14z"/>
<path d="M3432 3383 c-43 -21 -103 -89 -149 -172 -54 -94 -63 -118 -63 -163 0
-32 7 -47 35 -75 34 -34 38 -35 85 -30 130 16 232 111 275 259 13 46 14 65 5
97 -23 86 -107 124 -188 84z"/>
<path d="M2524 3361 c-89 -22 -188 -95 -259 -191 -38 -52 -106 -185 -125 -245
-40 -125 -105 -203 -237 -283 -143 -86 -386 -330 -469 -471 -84 -143 -117
-296 -118 -536 -1 -181 7 -214 86 -354 54 -94 196 -245 290 -307 147 -98 322
-145 538 -146 244 0 431 81 638 277 114 108 186 217 233 354 23 65 104 472
119 591 31 258 -6 519 -113 795 -21 55 -42 114 -46 130 -29 111 -152 276 -249
335 -82 50 -202 71 -288 51z m113 -430 c13 -19 26 -46 30 -60 3 -14 29 -80 58
-146 29 -66 63 -160 76 -210 22 -83 24 -109 23 -320 0 -187 -4 -253 -22 -355
-33 -191 -68 -286 -147 -388 -95 -124 -233 -211 -370 -232 -210 -32 -474 105
-555 288 -63 141 -39 321 66 493 51 84 199 237 270 278 289 168 380 270 444
496 32 115 70 197 89 193 8 -2 26 -19 38 -37z"/>
<path d="M533 2395 c-34 -15 -73 -67 -73 -99 0 -10 -13 -34 -30 -53 -36 -41
-38 -76 -10 -159 56 -161 194 -380 304 -482 143 -131 271 -154 375 -66 160
137 106 396 -128 616 -115 108 -343 259 -390 258 -9 -1 -31 -7 -48 -15z m266
-387 c83 -66 170 -194 171 -250 0 -51 -88 12 -166 118 -50 68 -124 192 -124
208 0 10 52 -23 119 -76z"/>
<path d="M4300 2100 c-44 -8 -83 -33 -100 -65 l-13 -25 -31 19 c-66 40 -137
34 -196 -15 -70 -60 -75 -120 -29 -353 30 -149 58 -231 79 -231 6 0 21 -24 34
-52 85 -193 314 -196 396 -6 56 131 103 555 69 621 -39 75 -129 121 -209 107z"/>
</g>
</svg>
