<?xml version="1.0" standalone="no"?>
<!DOCTYPE svg PUBLIC "-//W3C//DTD SVG 20010904//EN"
 "http://www.w3.org/TR/2001/REC-SVG-20010904/DTD/svg10.dtd">
<svg version="1.0" xmlns="http://www.w3.org/2000/svg"
 width="600.000000pt" height="600.000000pt" viewBox="0 0 600.000000 600.000000"
 preserveAspectRatio="xMidYMid meet">
<metadata>
Created by potrace 1.15, written by Peter Selinger 2001-2017
</metadata>
<g transform="translate(0.000000,600.000000) scale(0.100000,-0.100000)"
fill="#16364b" stroke="none">
<path d="M1527 5771 c-41 -27 -54 -49 -81 -145 -70 -239 -90 -473 -48 -553 31
-59 74 -86 142 -91 124 -9 226 76 397 333 107 161 133 210 133 250 0 80 -81
137 -162 115 -44 -13 -41 -9 -129 -156 -40 -65 -87 -139 -106 -163 -30 -41
-33 -42 -33 -19 0 14 14 79 32 144 17 66 33 145 35 177 5 55 3 59 -30 92 -29
29 -42 35 -78 35 -26 0 -56 -8 -72 -19z"/>
<path d="M852 5505 c-110 -31 -203 -111 -253 -220 -77 -165 -49 -342 74 -465
72 -72 150 -80 201 -20 53 63 47 120 -21 184 -58 56 -67 107 -31 176 42 78
110 108 168 75 38 -22 103 -19 134 6 64 50 74 144 21 199 -61 64 -192 93 -293
65z"/>
<path d="M3384 5430 c-11 -4 -33 -23 -48 -41 -24 -29 -28 -40 -24 -81 6 -59
25 -81 103 -120 33 -17 61 -31 63 -33 1 -1 -4 -15 -13 -31 -24 -47 -19 -101
16 -155 41 -64 100 -116 166 -146 129 -59 249 10 246 142 -1 60 -20 108 -79
197 -58 86 -134 155 -248 223 -93 56 -132 65 -182 45z"/>
<path d="M2324 5250 c-31 -12 -73 -67 -78 -103 -3 -18 -7 -75 -10 -127 -7
-111 -24 -183 -60 -244 -30 -52 -68 -81 -163 -129 -85 -43 -113 -75 -113 -129
0 -74 50 -131 126 -143 57 -10 224 75 300 152 94 96 152 239 174 428 20 184 9
248 -52 285 -34 21 -87 25 -124 10z"/>
<path d="M2935 5135 c-49 -22 -120 -105 -144 -171 -48 -125 -13 -236 90 -288
65 -32 122 -34 211 -6 135 41 162 83 156 232 -4 75 -8 93 -34 135 -43 69 -119
113 -194 112 -30 0 -69 -7 -85 -14z"/>
<path d="M4771 4813 c-69 -36 -76 -58 -74 -214 4 -231 44 -361 136 -446 116
-107 258 -107 363 1 92 95 105 219 37 354 -48 96 -196 224 -335 290 -66 32
-89 34 -127 15z m224 -433 c9 -16 13 -30 11 -30 -3 0 -12 14 -21 30 -9 17 -13
30 -11 30 3 0 12 -13 21 -30z"/>
<path d="M2765 4187 c-173 -46 -263 -176 -221 -321 21 -71 69 -126 139 -157
66 -29 208 -32 307 -6 159 42 328 157 343 236 9 45 -7 103 -39 134 -25 26
-141 69 -271 102 -88 22 -199 27 -258 12z"/>
<path d="M1065 4097 c-66 -31 -114 -121 -101 -191 15 -78 85 -126 186 -126 41
0 113 -13 149 -26 10 -3 4 -16 -25 -45 -64 -66 -176 -136 -339 -215 -187 -90
-210 -113 -210 -208 0 -48 5 -68 24 -95 42 -58 117 -76 201 -46 57 20 261 119
312 151 22 14 41 24 42 22 1 -2 8 -22 14 -44 33 -115 161 -147 256 -63 l34 30
48 -31 c169 -107 357 -39 357 128 0 101 -58 192 -156 244 -36 20 -57 23 -150
23 -59 0 -106 2 -104 5 53 90 67 205 34 272 -28 54 -94 116 -163 148 -121 59
-347 95 -409 67z"/>
<path d="M4263 3769 c-112 -15 -221 -75 -271 -149 -78 -115 -62 -279 36 -377
88 -89 240 -115 354 -61 120 56 206 181 234 338 17 102 8 145 -41 189 -37 32
-81 47 -161 56 -27 4 -60 7 -74 9 -14 1 -48 -1 -77 -5z m57 -284 c0 -10 -44
-45 -57 -45 -22 0 -15 30 10 40 25 10 47 12 47 5z"/>
<path d="M5080 3443 c-117 -46 -198 -124 -241 -233 -8 -21 -14 -71 -14 -125 0
-78 4 -97 27 -141 50 -95 136 -144 255 -144 71 0 146 24 200 66 54 41 109 134
128 217 28 122 3 208 -87 303 -85 91 -150 105 -268 57z"/>
<path d="M3401 3383 c-56 -28 -191 -266 -191 -337 0 -57 46 -108 105 -117 30
-4 116 11 145 26 40 20 109 101 132 152 26 58 34 149 18 197 -25 77 -133 118
-209 79z"/>
<path d="M2415 3126 c-116 -30 -199 -103 -259 -230 -19 -39 -52 -109 -74 -156
-47 -98 -80 -136 -177 -199 -85 -55 -255 -201 -310 -266 -175 -208 -239 -382
-252 -676 -5 -117 -3 -160 11 -222 59 -265 323 -526 613 -606 209 -57 499 -24
693 81 258 138 457 379 528 638 50 183 67 322 66 550 -1 198 -3 223 -27 313
-37 140 -76 207 -176 306 -48 47 -95 97 -106 112 -163 219 -246 307 -319 340
-57 25 -148 32 -211 15z m137 -453 c25 -32 57 -80 71 -108 14 -27 53 -77 87
-110 112 -110 129 -158 137 -390 8 -232 -31 -466 -101 -603 -63 -124 -175
-235 -288 -287 -145 -65 -331 -54 -506 32 -90 44 -155 106 -189 179 -24 52
-25 63 -21 173 6 133 34 235 99 362 54 105 119 173 272 288 142 106 248 209
289 281 14 25 36 77 48 115 30 97 41 125 50 125 4 0 27 -26 52 -57z"/>
<path d="M718 2559 c-43 -16 -71 -71 -65 -125 6 -58 23 -75 129 -131 182 -96
310 -256 284 -356 -9 -37 -46 -60 -82 -51 -50 12 -154 129 -207 230 -50 97
-81 124 -144 124 -67 0 -131 -76 -117 -138 23 -97 171 -316 256 -380 96 -72
133 -86 228 -86 101 -1 142 15 210 84 63 62 92 126 98 214 14 226 -142 444
-412 577 -102 50 -129 55 -178 38z"/>
<path d="M4203 2171 c-44 -21 -78 -64 -89 -114 -4 -21 -10 -27 -22 -22 -99 40
-220 -17 -238 -112 -6 -34 50 -378 79 -483 13 -47 64 -95 117 -111 25 -7 52
-18 60 -25 52 -41 152 -58 214 -34 47 18 104 80 128 138 21 55 22 68 20 346
-2 273 -3 292 -23 334 -43 87 -155 126 -246 83z"/>
</g>
</svg>
