<?xml version="1.0" standalone="no"?>
<!DOCTYPE svg PUBLIC "-//W3C//DTD SVG 20010904//EN"
 "http://www.w3.org/TR/2001/REC-SVG-20010904/DTD/svg10.dtd">
<svg version="1.0" xmlns="http://www.w3.org/2000/svg"
 width="600.000000pt" height="600.000000pt" viewBox="0 0 600.000000 600.000000"
 preserveAspectRatio="xMidYMid meet">
<metadata>
Created by potrace 1.15, written by Peter Selinger 2001-2017
</metadata>
<g transform="translate(0.000000,600.000000) scale(0.100000,-0.100000)"
fill="#16364b" stroke="none">
<path d="M1894 5801 c-47 -22 -62 -40 -134 -176 -29 -55 -88 -162 -131 -237
-91 -158 -127 -235 -139 -298 -23 -120 63 -220 189 -220 93 0 239 62 361 153
67 50 300 258 334 298 82 97 5 249 -125 249 -50 0 -75 -13 -174 -93 -38 -31
-71 -54 -73 -52 -2 2 19 48 48 102 40 75 53 109 53 143 1 59 -27 105 -78 130
-51 25 -78 25 -131 1z"/>
<path d="M3008 5683 c-64 -40 -91 -161 -47 -217 11 -15 76 -63 142 -107 159
-105 293 -214 352 -286 60 -74 115 -182 115 -227 0 -41 -26 -59 -102 -70 -26
-4 -59 -17 -74 -28 -75 -59 -70 -199 8 -248 27 -18 44 -21 98 -16 168 12 312
113 362 253 89 251 -190 640 -656 916 -90 52 -147 61 -198 30z"/>
<path d="M934 5411 c-80 -23 -146 -62 -215 -128 -151 -144 -186 -363 -86 -543
58 -105 170 -214 232 -226 72 -13 134 21 166 90 36 80 13 164 -60 221 -144
112 -103 277 75 300 128 16 189 152 112 250 -44 56 -115 67 -224 36z"/>
<path d="M2873 5099 c-55 -27 -118 -97 -151 -167 -23 -48 -27 -71 -27 -142 0
-74 3 -91 27 -131 51 -87 134 -129 256 -129 142 0 219 39 244 123 9 30 9 48
-1 80 -7 23 -16 69 -20 103 -26 204 -187 333 -328 263z"/>
<path d="M4780 4894 c-42 -18 -86 -59 -106 -96 -22 -42 -18 -207 6 -296 44
-157 139 -286 249 -338 76 -36 177 -39 238 -6 59 31 109 86 127 140 21 60 20
175 -1 238 -37 112 -131 224 -247 299 -116 74 -192 91 -266 59z"/>
<path d="M1937 4736 c-134 -39 -192 -95 -184 -179 11 -122 126 -178 254 -125
62 25 80 17 89 -43 14 -86 75 -139 159 -139 64 0 113 26 143 76 63 107 -25
321 -162 391 -44 23 -66 27 -151 30 -62 1 -118 -3 -148 -11z"/>
<path d="M2893 4005 c-168 -52 -249 -197 -196 -351 23 -68 110 -154 184 -182
119 -44 465 -57 536 -19 49 26 75 77 72 140 -2 43 2 61 21 87 54 77 28 190
-55 237 -46 26 -196 77 -273 92 -72 15 -237 13 -289 -4z"/>
<path d="M1240 4003 c-19 -2 -84 -13 -144 -24 -160 -30 -206 -58 -231 -142
-18 -60 -6 -125 31 -174 38 -50 69 -66 139 -72 l64 -6 -91 -120 c-178 -235
-211 -294 -346 -609 -76 -177 -86 -208 -87 -262 0 -51 5 -67 29 -102 72 -105
238 -110 322 -10 69 84 756 628 791 628 17 0 16 -15 -3 -108 -43 -210 -249
-672 -445 -998 -68 -112 -79 -138 -79 -176 0 -50 26 -97 73 -132 21 -16 43
-21 86 -21 77 0 108 25 194 153 181 271 338 654 449 1092 27 107 31 144 32
255 1 123 0 133 -26 182 -29 54 -62 83 -117 101 -100 34 -221 -6 -435 -145
-54 -35 -100 -63 -102 -61 -1 2 29 44 68 93 181 229 232 353 193 470 -34 102
-110 165 -219 184 -62 11 -78 11 -146 4z"/>
<path d="M4230 3786 c-123 -28 -222 -102 -276 -207 -21 -42 -28 -72 -32 -136
-4 -75 -2 -88 23 -139 63 -129 230 -186 394 -135 160 50 259 167 310 368 17
64 18 87 10 119 -22 79 -68 108 -206 129 -115 17 -149 18 -223 1z m80 -305 c0
-12 -21 -27 -49 -36 -31 -10 -24 15 10 32 29 15 39 16 39 4z"/>
<path d="M3424 3391 c-69 -31 -152 -162 -199 -312 -21 -67 -15 -116 20 -157
37 -45 72 -54 179 -50 86 3 98 6 138 33 117 82 157 330 71 444 -47 61 -131 78
-209 42z"/>
<path d="M4955 3063 c-59 -31 -167 -126 -210 -184 -58 -78 -85 -153 -85 -232
1 -173 134 -275 301 -233 130 34 227 114 270 224 29 73 32 207 6 265 -21 49
-102 144 -138 163 -37 18 -106 17 -144 -3z"/>
<path d="M3964 2606 c-61 -19 -107 -59 -140 -118 -42 -78 -39 -141 15 -286 24
-63 41 -115 39 -117 -2 -2 -24 3 -48 12 -25 9 -82 18 -126 21 -137 8 -221 -34
-279 -139 -28 -51 -30 -60 -30 -169 0 -88 6 -136 23 -205 37 -140 131 -415
158 -462 80 -138 279 -156 385 -35 63 71 79 148 51 240 -11 34 -16 62 -10 62
5 0 23 -8 41 -17 56 -29 149 -22 237 19 196 90 238 269 137 578 -41 124 -166
470 -181 498 -49 96 -175 150 -272 118z"/>
<path d="M2060 2221 c-98 -30 -186 -112 -273 -255 -72 -118 -81 -168 -44 -236
l24 -45 -58 -65 c-101 -111 -150 -234 -171 -428 -19 -184 19 -386 96 -515 103
-171 298 -322 496 -385 349 -111 729 10 916 292 30 46 39 69 42 117 3 33 -1
72 -7 87 -11 26 -8 35 30 98 91 148 151 303 224 569 43 156 52 243 35 316 -28
120 -110 228 -203 270 -75 34 -192 32 -302 -5 -104 -35 -282 -122 -368 -180
-37 -25 -71 -46 -75 -46 -4 0 -15 40 -25 89 -33 176 -83 266 -170 307 -53 24
-117 30 -167 15z m920 -583 c0 -32 -35 -177 -66 -273 -26 -79 -95 -230 -154
-335 -27 -47 -31 -63 -28 -110 3 -30 8 -62 12 -71 12 -26 -84 -123 -157 -158
-252 -122 -581 10 -652 263 -13 44 -16 88 -13 180 3 112 6 125 33 176 19 35
50 69 84 96 l55 41 25 -76 c53 -156 111 -217 214 -228 72 -7 137 22 175 80 23
34 27 52 27 109 l1 68 139 92 c133 87 275 168 296 168 5 0 9 -10 9 -22z"/>
</g>
</svg>
