<?xml version="1.0" standalone="no"?>
<!DOCTYPE svg PUBLIC "-//W3C//DTD SVG 20010904//EN"
 "http://www.w3.org/TR/2001/REC-SVG-20010904/DTD/svg10.dtd">
<svg version="1.0" xmlns="http://www.w3.org/2000/svg"
 width="600.000000pt" height="600.000000pt" viewBox="0 0 600.000000 600.000000"
 preserveAspectRatio="xMidYMid meet">
<metadata>
Created by potrace 1.15, written by Peter Selinger 2001-2017
</metadata>
<g transform="translate(0.000000,600.000000) scale(0.100000,-0.100000)"
fill="#16364b" stroke="none">
<path d="M1544 5760 c-36 -14 -60 -59 -107 -205 -70 -217 -84 -369 -43 -465
34 -82 111 -126 191 -111 109 21 181 94 365 370 116 174 130 214 89 265 -33
42 -81 59 -127 46 -51 -14 -59 -22 -137 -130 -98 -136 -139 -189 -146 -189
-10 -1 7 65 46 176 19 56 35 116 35 134 0 82 -89 140 -166 109z"/>
<path d="M843 5496 c-146 -48 -259 -183 -285 -342 -20 -116 31 -249 125 -329
49 -42 91 -52 140 -31 48 20 77 68 77 129 0 44 -4 51 -51 96 -46 44 -51 54
-51 89 1 51 21 90 66 130 44 39 85 48 125 28 16 -9 51 -16 77 -16 39 0 51 5
79 33 69 69 52 151 -40 197 -60 30 -195 38 -262 16z"/>
<path d="M3365 5377 c-31 -31 -35 -41 -35 -87 0 -54 18 -81 80 -121 22 -15 23
-19 12 -43 -28 -62 -3 -136 73 -211 57 -57 135 -96 205 -102 65 -6 103 9 144
57 22 27 26 41 26 95 0 53 -6 74 -37 134 -53 104 -123 176 -239 245 -73 44
-112 60 -146 64 -44 4 -50 2 -83 -31z"/>
<path d="M2345 5280 c-11 -4 -31 -20 -45 -35 -23 -25 -25 -36 -32 -168 -7
-157 -17 -205 -52 -276 -36 -69 -70 -101 -180 -166 -87 -51 -101 -63 -118
-102 -30 -69 -9 -146 48 -171 46 -22 84 -13 183 40 242 132 345 322 358 655 5
123 3 146 -11 168 -34 52 -100 76 -151 55z"/>
<path d="M2987 5139 c-135 -33 -221 -143 -222 -285 0 -60 4 -76 28 -112 55
-84 161 -108 280 -62 112 42 138 83 140 223 2 73 -1 89 -28 142 -42 82 -111
116 -198 94z"/>
<path d="M4733 4781 c-57 -36 -66 -68 -60 -216 6 -154 34 -256 96 -352 103
-160 309 -203 435 -91 54 47 78 104 78 183 -1 159 -112 302 -335 430 -114 67
-164 77 -214 46z m277 -452 c0 -18 -10 -8 -25 24 l-16 32 21 -24 c11 -13 20
-27 20 -32z"/>
<path d="M2714 4190 c-54 -17 -127 -73 -157 -121 -125 -203 99 -433 368 -379
122 24 301 135 340 211 20 38 19 114 -2 151 -24 40 -59 60 -188 104 -98 34
-122 38 -220 41 -60 1 -124 -2 -141 -7z"/>
<path d="M1041 4073 c-41 -20 -78 -75 -86 -128 -8 -51 27 -122 71 -148 18 -10
71 -22 120 -28 102 -11 174 -28 174 -40 0 -14 -116 -97 -192 -138 -40 -22
-129 -63 -198 -91 -139 -57 -181 -91 -200 -160 -14 -53 -6 -88 29 -130 23 -28
35 -34 82 -37 48 -4 70 2 204 57 82 34 185 79 228 101 43 21 82 39 86 39 5 0
11 -19 14 -42 8 -61 51 -99 116 -106 28 -2 63 1 80 7 25 11 33 9 77 -18 59
-38 103 -51 170 -51 134 0 219 79 219 205 0 108 -69 192 -189 229 -46 15 -79
18 -151 14 l-93 -5 14 33 c8 18 14 64 14 101 0 88 -29 152 -99 216 -63 59
-138 93 -256 118 -111 23 -189 24 -234 2z"/>
<path d="M4234 3785 c-123 -27 -224 -102 -270 -200 -36 -75 -34 -180 5 -261
33 -70 83 -124 144 -156 65 -35 183 -32 259 5 132 65 227 234 244 437 4 54 2
70 -15 97 -29 46 -58 61 -145 78 -93 18 -141 18 -222 0z m44 -317 c-16 -24
-58 -37 -58 -19 0 13 40 41 58 41 12 0 12 -4 0 -22z"/>
<path d="M5110 3466 c-145 -54 -229 -133 -269 -253 -54 -161 -1 -311 133 -381
64 -32 173 -36 252 -9 130 45 234 203 234 353 0 90 -30 151 -114 232 l-74 72
-63 -1 c-35 0 -80 -6 -99 -13z"/>
<path d="M3408 3378 c-47 -29 -86 -83 -143 -194 -59 -115 -61 -160 -10 -211
36 -36 36 -36 105 -30 83 7 136 32 183 88 50 58 77 120 84 193 6 69 -6 103
-51 145 -38 36 -118 40 -168 9z"/>
<path d="M2430 3186 c-139 -30 -228 -132 -284 -329 -26 -91 -73 -180 -119
-225 -23 -22 -78 -60 -122 -83 -280 -150 -436 -356 -531 -704 -34 -123 -43
-312 -20 -416 58 -262 258 -505 484 -589 331 -124 638 -99 892 73 88 60 208
188 281 299 231 355 303 770 202 1163 -41 159 -83 256 -162 375 -20 30 -47 75
-60 99 -57 112 -184 242 -284 292 -54 28 -169 60 -207 58 -8 0 -40 -6 -70 -13z
m207 -526 c14 -30 47 -83 75 -118 104 -133 126 -210 135 -467 12 -365 -52
-590 -215 -755 -181 -181 -398 -216 -635 -101 -246 119 -319 321 -217 603 62
172 140 268 305 376 181 119 275 236 377 465 68 152 64 149 112 96 21 -24 50
-69 63 -99z"/>
<path d="M685 2523 c-82 -22 -123 -125 -74 -187 12 -15 49 -41 83 -58 187 -94
300 -207 330 -332 16 -67 -18 -115 -68 -96 -71 26 -191 179 -236 299 -36 98
-98 137 -173 110 -93 -33 -103 -101 -34 -241 65 -132 120 -213 202 -294 145
-144 308 -179 435 -93 96 66 136 157 127 289 -10 146 -75 284 -186 396 -126
127 -326 229 -406 207z"/>
<path d="M4245 2166 c-39 -18 -70 -52 -90 -99 -15 -37 -16 -37 -43 -23 -132
68 -271 -26 -272 -183 0 -94 64 -390 95 -438 16 -25 77 -73 92 -73 5 0 22 -14
39 -31 84 -89 211 -92 297 -6 69 69 90 149 107 397 16 239 14 336 -11 379 -41
73 -143 110 -214 77z"/>
</g>
</svg>
