<?xml version="1.0" standalone="no"?>
<!DOCTYPE svg PUBLIC "-//W3C//DTD SVG 20010904//EN"
 "http://www.w3.org/TR/2001/REC-SVG-20010904/DTD/svg10.dtd">
<svg version="1.0" xmlns="http://www.w3.org/2000/svg"
 width="600.000000pt" height="600.000000pt" viewBox="0 0 600.000000 600.000000"
 preserveAspectRatio="xMidYMid meet">
<metadata>
Created by potrace 1.15, written by Peter Selinger 2001-2017
</metadata>
<g transform="translate(0.000000,600.000000) scale(0.100000,-0.100000)"
fill="#16364b" stroke="none">
<path d="M3014 5045 c-23 -14 -56 -46 -72 -72 -77 -120 -63 -243 28 -243 34 0
106 46 153 99 84 93 91 188 17 226 -41 21 -79 18 -126 -10z m104 -73 c6 -38
-17 -79 -69 -126 -82 -74 -113 -67 -88 21 18 64 86 136 126 131 21 -2 29 -9
31 -26z"/>
<path d="M4771 4712 l-28 -28 -8 -256 c-4 -141 -4 -276 0 -300 11 -70 55 -103
110 -82 43 17 49 81 46 517 -1 122 -2 129 -26 152 -32 32 -60 31 -94 -3z"/>
<path d="M1705 4424 c-164 -58 -217 -266 -104 -407 94 -117 150 -360 164 -717
4 -80 20 -271 36 -425 20 -184 33 -376 39 -560 11 -342 28 -472 86 -655 75
-239 263 -383 568 -435 70 -11 71 -12 69 -41 -15 -190 4 -342 72 -582 19 -68
33 -128 29 -133 -3 -5 -47 -9 -97 -9 -113 0 -155 -17 -175 -71 -12 -33 -12
-41 3 -73 24 -50 65 -70 145 -69 170 1 300 92 300 211 0 21 -11 72 -25 113
-75 217 -110 401 -101 519 10 115 13 123 50 115 17 -4 236 -10 486 -13 447 -7
455 -7 452 -27 -1 -11 -3 -67 -3 -125 -1 -133 29 -304 76 -436 50 -140 52
-134 -50 -134 -130 0 -175 -26 -175 -102 0 -46 22 -73 75 -94 103 -39 280 15
330 100 33 57 32 106 -5 206 -78 212 -120 501 -85 592 5 11 23 19 53 23 185
24 544 118 652 172 55 27 96 58 156 117 180 181 232 400 160 678 -48 189 -130
309 -249 368 -68 33 -90 38 -357 75 -290 41 -382 61 -580 127 -208 68 -348
131 -530 238 -234 137 -333 212 -429 323 -65 75 -277 393 -408 610 -93 154
-159 249 -232 333 -20 23 -55 64 -78 92 -81 97 -208 135 -318 96z m165 -179
c22 -15 52 -44 66 -64 15 -20 51 -59 79 -87 68 -68 119 -142 277 -403 197
-325 259 -412 383 -536 150 -151 417 -333 665 -455 245 -121 492 -188 905
-245 105 -15 213 -31 241 -36 129 -24 209 -126 270 -343 12 -45 15 -86 12
-170 -4 -99 -8 -118 -36 -177 -70 -146 -177 -225 -374 -278 -486 -129 -413
-123 -1273 -102 -231 6 -460 16 -510 21 -180 21 -303 70 -390 155 -129 126
-176 329 -195 842 -5 142 -12 267 -14 278 -11 40 -36 392 -46 628 -10 241 -25
364 -61 508 -26 105 -75 225 -117 283 -69 99 -76 155 -24 197 35 27 89 21 142
-16z"/>
<path d="M2484 2595 c-19 -29 -12 -57 23 -85 35 -27 57 -25 82 6 41 53 15 104
-52 104 -28 0 -40 -6 -53 -25z"/>
<path d="M2943 2345 c-32 -23 -30 -68 3 -94 15 -12 35 -21 45 -21 20 0 59 45
59 69 0 47 -67 75 -107 46z"/>
<path d="M5315 3978 c-78 -10 -155 -50 -211 -110 -67 -72 -87 -124 -82 -217 7
-128 72 -228 190 -292 58 -31 70 -34 148 -34 70 0 93 5 133 25 107 54 176 175
185 320 4 82 3 94 -22 144 -60 123 -186 184 -341 164z m83 -303 c11 -10 -32
-46 -52 -43 -15 2 -22 12 -24 32 -4 28 -3 29 33 23 21 -3 40 -9 43 -12z"/>
<path d="M4236 3754 c-145 -46 -246 -180 -246 -327 0 -50 6 -72 30 -114 53
-92 127 -133 243 -133 178 0 297 126 297 313 0 93 -31 189 -68 216 -81 56
-171 72 -256 45z m74 -267 c0 -25 -17 -47 -37 -47 -18 0 -16 30 4 52 22 24 33
23 33 -5z"/>
<path d="M5311 1114 c-53 -38 -78 -161 -46 -224 47 -91 168 -67 204 39 14 43
14 123 0 154 -21 46 -111 63 -158 31z"/>
</g>
</svg>
