<?xml version="1.0" standalone="no"?>
<!DOCTYPE svg PUBLIC "-//W3C//DTD SVG 20010904//EN"
 "http://www.w3.org/TR/2001/REC-SVG-20010904/DTD/svg10.dtd">
<svg version="1.0" xmlns="http://www.w3.org/2000/svg"
 width="600.000000pt" height="600.000000pt" viewBox="0 0 600.000000 600.000000"
 preserveAspectRatio="xMidYMid meet">
<metadata>
Created by potrace 1.15, written by Peter Selinger 2001-2017
</metadata>
<g transform="translate(0.000000,600.000000) scale(0.100000,-0.100000)"
fill="#16364b" stroke="none">
<path d="M1532 5783 c-69 -34 -84 -72 -108 -268 -31 -257 8 -488 99 -583 58
-60 113 -77 188 -58 126 33 207 141 397 526 75 150 83 196 46 247 -29 39 -87
67 -127 59 -73 -14 -86 -31 -212 -280 -66 -130 -123 -236 -127 -236 -17 0 -8
229 13 332 12 57 23 121 26 143 10 98 -100 165 -195 118z"/>
<path d="M3239 5471 c-35 -35 -39 -44 -39 -88 0 -65 18 -87 117 -149 159 -98
235 -164 189 -164 -23 0 -68 -42 -83 -77 -21 -51 -8 -99 41 -148 50 -50 140
-96 200 -102 139 -16 246 101 217 237 -17 80 -84 198 -157 278 -106 116 -324
252 -405 252 -35 0 -48 -6 -80 -39z"/>
<path d="M829 5476 c-118 -46 -191 -112 -247 -225 -36 -72 -37 -79 -37 -181 0
-99 2 -109 33 -172 37 -76 123 -162 177 -177 66 -18 133 17 161 86 23 55 9 98
-52 159 -51 50 -54 56 -54 102 0 54 25 100 72 135 29 21 55 23 149 12 97 -12
157 41 146 130 -10 92 -80 137 -222 142 -59 2 -102 -2 -126 -11z"/>
<path d="M2970 5151 c-118 -36 -211 -165 -212 -294 0 -108 54 -181 154 -208
86 -23 275 30 315 90 25 36 24 185 -1 259 -41 120 -150 185 -256 153z"/>
<path d="M2275 5060 c-43 -28 -65 -75 -65 -138 0 -60 -17 -108 -49 -137 -12
-11 -73 -45 -134 -75 -154 -76 -185 -126 -137 -220 23 -45 63 -70 113 -70 53
0 280 107 342 162 77 67 117 147 136 271 15 96 5 149 -35 192 -30 32 -39 35
-87 35 -37 0 -64 -6 -84 -20z"/>
<path d="M4793 4810 c-82 -18 -97 -59 -90 -235 9 -202 43 -307 129 -401 60
-65 136 -99 223 -98 227 1 306 235 155 461 -46 70 -100 122 -185 180 -116 78
-180 104 -232 93z"/>
<path d="M2812 4169 c-151 -26 -262 -135 -262 -255 0 -43 43 -126 81 -159 105
-88 275 -115 450 -70 73 19 225 80 260 105 15 11 35 41 45 65 14 39 15 52 5
85 -21 69 -61 104 -179 153 -177 75 -288 96 -400 76z"/>
<path d="M1045 4062 c-98 -47 -132 -145 -82 -242 36 -71 59 -82 194 -92 65 -5
123 -14 128 -19 15 -16 -124 -144 -234 -217 -52 -34 -153 -91 -225 -127 -151
-75 -168 -93 -174 -177 -4 -51 -1 -64 22 -99 31 -46 91 -78 149 -79 27 0 73
18 163 65 69 36 128 65 130 65 2 0 4 -8 4 -18 0 -29 47 -88 83 -106 54 -25
117 -21 163 11 132 92 169 113 230 133 59 20 73 21 116 11 109 -25 177 -6 219
61 16 26 19 45 16 90 -4 72 -39 125 -106 162 -41 22 -61 26 -127 26 -44 0 -97
-5 -119 -10 -22 -5 -41 -7 -43 -5 -2 2 7 19 21 37 50 67 80 140 85 210 4 58 1
75 -22 122 -65 132 -205 198 -451 211 -86 5 -106 3 -140 -13z"/>
<path d="M4220 3774 c-110 -30 -208 -116 -263 -234 -70 -147 -23 -285 123
-361 38 -20 60 -24 140 -24 86 0 101 3 162 32 37 17 87 51 111 76 58 57 112
170 133 278 17 85 17 86 -5 132 -27 55 -68 78 -183 101 -94 19 -146 19 -218 0z
m74 -308 c-8 -20 -52 -38 -60 -24 -4 6 1 17 11 25 25 17 56 17 49 -1z"/>
<path d="M3404 3371 c-75 -46 -194 -242 -194 -321 0 -53 30 -103 71 -120 39
-17 150 -7 198 18 47 25 105 102 126 169 22 69 22 160 1 202 -35 67 -135 93
-202 52z"/>
<path d="M5040 3344 c-92 -47 -191 -141 -225 -217 -104 -226 57 -451 290 -407
121 23 222 109 262 225 26 72 23 196 -4 257 -24 53 -103 142 -145 164 -46 24
-99 17 -178 -22z"/>
<path d="M2235 2856 c-139 -44 -192 -105 -271 -314 -30 -80 -72 -141 -134
-193 -28 -24 -60 -59 -72 -78 -12 -20 -48 -64 -79 -99 -198 -218 -334 -558
-316 -790 17 -219 167 -475 353 -603 65 -45 238 -125 314 -146 104 -29 325
-24 454 10 245 65 401 187 559 440 97 154 145 292 197 573 40 216 49 365 26
454 -24 93 -62 165 -122 230 -63 67 -140 111 -249 140 -117 32 -138 48 -181
138 -26 55 -56 96 -103 143 -58 58 -76 70 -135 88 -77 24 -179 27 -241 7z
m269 -615 c31 -39 70 -78 86 -86 16 -8 79 -26 140 -41 89 -21 114 -30 126 -50
55 -83 25 -434 -55 -639 -64 -165 -187 -311 -314 -371 -250 -118 -565 -21
-683 212 -38 75 -39 80 -39 178 1 110 21 188 76 296 47 92 79 133 228 289 164
171 195 212 258 335 l45 90 38 -72 c20 -39 63 -103 94 -141z"/>
<path d="M983 2781 c-48 -22 -73 -62 -73 -116 0 -60 22 -89 102 -130 85 -45
161 -113 190 -169 75 -146 -11 -346 -148 -346 -32 0 -45 9 -113 79 -59 61 -86
81 -114 86 -84 16 -167 -51 -167 -135 0 -79 113 -206 237 -267 70 -35 84 -38
157 -37 182 1 344 122 417 312 30 80 37 225 15 312 -48 188 -150 310 -328 396
-82 39 -115 42 -175 15z"/>
<path d="M4153 2310 c-97 -22 -165 -122 -149 -220 7 -45 14 -42 -70 -25 -42 9
-127 -21 -166 -59 -50 -49 -62 -92 -55 -195 6 -89 85 -419 113 -472 8 -16 33
-41 56 -57 35 -23 52 -27 107 -27 45 1 77 7 101 20 23 12 57 19 100 19 83 1
152 34 197 94 43 56 53 98 53 212 0 115 -53 579 -70 611 -41 79 -130 120 -217
99z"/>
</g>
</svg>
