<?xml version="1.0" standalone="no"?>
<!DOCTYPE svg PUBLIC "-//W3C//DTD SVG 20010904//EN"
 "http://www.w3.org/TR/2001/REC-SVG-20010904/DTD/svg10.dtd">
<svg version="1.0" xmlns="http://www.w3.org/2000/svg"
 width="600.000000pt" height="600.000000pt" viewBox="0 0 600.000000 600.000000"
 preserveAspectRatio="xMidYMid meet">
<metadata>
Created by potrace 1.15, written by Peter Selinger 2001-2017
</metadata>
<g transform="translate(0.000000,600.000000) scale(0.100000,-0.100000)"
fill="#16364b" stroke="none">
<path d="M2660 5534 c-48 -21 -68 -41 -98 -99 -68 -135 -90 -272 -57 -353 23
-55 82 -109 145 -134 47 -18 82 -22 239 -27 l185 -6 -130 -111 c-191 -165
-292 -281 -399 -465 -61 -102 -64 -145 -20 -227 51 -95 55 -96 385 -103 290
-7 320 -9 469 -36 98 -17 139 -12 182 24 79 67 76 185 -6 239 -52 34 -331 84
-471 84 -44 0 -102 3 -131 6 l-52 7 44 56 c53 67 205 218 324 321 168 147 211
207 211 294 0 59 -18 94 -71 140 -75 64 -114 71 -371 71 -162 -1 -228 2 -228
10 0 6 12 45 26 85 30 86 26 134 -14 182 -27 31 -77 58 -109 58 -10 -1 -34 -8
-53 -16z"/>
<path d="M1625 5186 c-179 -57 -452 -304 -594 -539 -65 -106 -65 -171 -2 -237
52 -54 83 -60 247 -44 161 16 273 17 293 5 12 -8 11 -25 -4 -117 -24 -147 -24
-217 2 -252 32 -44 82 -72 127 -72 57 -1 37 -10 -124 -59 -148 -45 -176 -60
-202 -112 -49 -96 21 -199 136 -199 58 0 363 75 516 127 58 19 120 46 138 60
106 80 70 243 -61 273 -42 9 -68 4 -187 -38 -136 -48 -134 -48 -95 -9 18 18
37 51 43 73 25 102 43 233 44 310 1 78 -2 91 -33 152 -58 113 -169 172 -326
172 -55 0 -74 3 -71 13 10 27 166 150 234 183 109 52 146 110 130 199 -9 47
-59 102 -104 115 -46 12 -57 12 -107 -4z"/>
<path d="M4335 4673 c-130 -29 -396 -131 -433 -166 -80 -74 -29 -215 89 -247
55 -15 80 -8 232 65 167 80 177 83 177 54 0 -32 -57 -193 -101 -284 -21 -44
-68 -127 -104 -184 -75 -119 -81 -137 -66 -184 13 -37 111 -147 151 -168 18
-9 100 -15 287 -19 144 -3 265 -9 269 -12 16 -17 -13 -94 -165 -438 -28 -63
-51 -126 -51 -139 0 -36 36 -103 67 -126 17 -12 49 -21 84 -23 87 -6 109 19
215 253 127 280 147 345 148 480 1 122 -6 143 -66 204 -73 75 -178 101 -410
101 -82 0 -148 2 -148 4 0 2 19 43 41 92 59 126 126 337 138 430 18 147 -18
236 -118 287 -47 23 -66 27 -135 26 -45 -1 -90 -3 -101 -6z"/>
<path d="M3710 3678 c-95 -33 -155 -72 -232 -149 -75 -75 -88 -99 -88 -162 0
-98 98 -172 193 -146 26 7 58 29 97 69 48 48 122 100 145 100 11 0 4 -58 -16
-130 -11 -41 -43 -122 -70 -180 l-50 -105 -75 -39 c-93 -48 -133 -80 -150
-123 -19 -44 -17 -80 6 -130 38 -86 136 -109 223 -53 71 45 127 71 295 140
211 86 272 144 272 254 0 81 -49 159 -107 171 -15 4 -33 8 -39 10 -8 2 -7 18
3 57 24 90 28 188 9 244 -51 154 -243 233 -416 172z"/>
<path d="M2520 3489 c-129 -17 -391 -105 -442 -147 -82 -69 -75 -211 12 -254
52 -26 86 -22 206 23 130 49 243 79 296 79 36 0 38 -1 38 -33 0 -55 -38 -177
-92 -290 -49 -106 -50 -109 -38 -152 17 -61 73 -111 134 -120 37 -6 55 -3 93
16 45 22 52 32 101 129 29 58 67 150 85 205 27 87 32 114 32 210 0 97 -3 116
-25 160 -68 137 -211 200 -400 174z"/>
<path d="M1145 3206 c-116 -37 -214 -110 -241 -182 -48 -125 50 -264 188 -264
39 0 48 -3 48 -17 0 -10 -14 -135 -30 -278 -63 -550 -33 -722 134 -767 98 -26
205 50 310 222 33 55 102 155 152 222 49 68 123 171 162 230 40 58 79 111 86
117 21 18 36 -68 36 -209 0 -155 -12 -238 -67 -454 -51 -203 -52 -244 -8 -302
30 -40 94 -73 138 -74 41 0 94 27 118 61 22 32 68 221 100 414 18 113 20 158
16 340 -5 230 -23 339 -71 432 -67 134 -201 179 -334 113 -73 -37 -152 -118
-276 -284 -48 -64 -90 -116 -92 -113 -2 2 0 35 6 73 16 115 13 451 -6 515 -29
101 -93 173 -181 205 -47 16 -135 17 -188 0z"/>
<path d="M4821 2659 c-100 -19 -170 -98 -180 -202 l-6 -62 -103 -12 c-207 -24
-323 -73 -432 -183 -108 -107 -160 -233 -160 -388 0 -102 23 -193 78 -306 l48
-96 -26 -25 -25 -24 -120 55 c-210 98 -358 117 -496 65 -154 -58 -309 -221
-472 -494 -31 -51 -50 -72 -76 -83 -19 -8 -49 -25 -67 -39 -53 -41 -79 -42
-113 -4 -62 68 -143 266 -172 419 -22 117 -29 140 -61 176 -99 112 -261 86
-314 -52 -46 -120 47 -466 186 -691 171 -277 429 -337 697 -160 43 28 100 62
126 75 41 21 55 36 104 121 138 238 168 284 209 330 83 92 120 90 334 -21 172
-88 233 -101 338 -69 123 37 239 143 256 234 5 25 16 38 56 59 29 17 61 45 77
70 25 37 28 50 28 127 0 84 -1 88 -42 153 -45 72 -76 161 -71 205 4 36 59 57
223 83 281 45 399 135 440 335 41 200 -28 374 -158 400 -18 4 -39 8 -47 10 -8
1 -35 -1 -59 -6z"/>
<path d="M3150 2535 c-47 -8 -152 -32 -235 -53 -82 -22 -194 -50 -248 -62 -69
-15 -106 -29 -128 -48 -82 -69 -78 -187 10 -273 81 -78 98 -79 379 -15 297 68
312 70 312 55 0 -7 -12 -49 -26 -94 -33 -99 -28 -152 17 -215 85 -117 254 -99
314 33 79 173 102 375 57 488 -42 104 -133 171 -259 189 -82 12 -86 12 -193
-5z"/>
</g>
</svg>
