<?xml version="1.0" standalone="no"?>
<!DOCTYPE svg PUBLIC "-//W3C//DTD SVG 20010904//EN"
 "http://www.w3.org/TR/2001/REC-SVG-20010904/DTD/svg10.dtd">
<svg version="1.0" xmlns="http://www.w3.org/2000/svg"
 width="600.000000pt" height="600.000000pt" viewBox="0 0 600.000000 600.000000"
 preserveAspectRatio="xMidYMid meet">
<metadata>
Created by potrace 1.15, written by Peter Selinger 2001-2017
</metadata>
<g transform="translate(0.000000,600.000000) scale(0.100000,-0.100000)"
fill="#16364b" stroke="none">
<path d="M3115 5680 c-45 -10 -81 -37 -99 -75 -21 -44 -20 -78 3 -123 23 -45
43 -63 101 -92 237 -118 410 -285 410 -397 0 -106 -107 -210 -337 -328 -106
-54 -133 -86 -133 -156 0 -77 52 -136 127 -146 32 -4 58 5 161 56 234 116 365
228 439 377 37 76 38 81 38 183 0 94 -3 113 -29 171 -89 205 -250 361 -496
481 -103 50 -139 60 -185 49z"/>
<path d="M2026 5571 c-21 -11 -45 -30 -54 -43 -9 -13 -94 -99 -189 -192 -259
-253 -319 -341 -311 -461 9 -149 127 -215 330 -185 116 16 564 117 596 134 43
22 64 52 69 100 7 60 -1 89 -38 131 -51 58 -89 62 -222 24 -120 -34 -262 -69
-279 -69 -5 0 46 55 114 123 196 192 237 272 189 369 -12 24 -33 52 -48 62
-39 29 -110 32 -157 7z"/>
<path d="M1023 5320 c-149 -74 -272 -212 -315 -353 -29 -96 -22 -242 15 -340
42 -108 124 -220 201 -271 69 -46 170 -31 214 31 46 66 34 131 -39 210 -115
125 -128 292 -29 388 22 21 70 55 107 75 87 45 117 86 110 151 -5 59 -38 106
-91 130 -59 27 -84 24 -173 -21z"/>
<path d="M4674 4836 c-61 -27 -106 -117 -86 -174 6 -17 6 -35 1 -43 -20 -31
-9 -105 24 -170 44 -87 156 -200 233 -236 151 -69 320 -6 386 145 16 34 19 61
16 116 -3 61 -8 80 -38 125 -58 91 -183 170 -358 225 -92 29 -132 32 -178 12z"/>
<path d="M2827 4771 c-180 -95 -272 -195 -298 -325 -31 -150 94 -327 261 -371
71 -19 104 -19 143 1 63 33 96 100 82 170 -9 52 -67 109 -120 118 -22 4 -47
11 -55 16 -32 20 20 70 152 144 55 31 81 73 82 131 2 125 -120 183 -247 116z"/>
<path d="M1815 4357 c-97 -26 -167 -67 -246 -146 -93 -94 -113 -133 -107 -214
4 -54 8 -63 41 -93 74 -68 136 -59 224 32 61 64 144 114 189 114 12 0 41 -7
64 -15 59 -21 119 -19 158 5 86 52 98 176 25 252 -58 61 -236 94 -348 65z"/>
<path d="M2535 3775 c-127 -27 -150 -37 -186 -75 -63 -66 -61 -160 5 -218 48
-42 89 -47 188 -21 47 13 115 23 158 23 74 1 75 1 72 -24 -15 -107 -198 -395
-397 -625 -106 -123 -125 -163 -107 -223 15 -49 64 -99 110 -112 49 -13 55
-13 101 6 47 19 109 93 327 392 228 313 286 433 288 592 0 74 -3 92 -26 136
-61 117 -165 164 -356 163 -64 0 -144 -6 -177 -14z"/>
<path d="M4130 3770 c-25 -5 -74 -24 -110 -42 -54 -28 -70 -42 -97 -87 -18
-30 -35 -74 -39 -99 -19 -129 78 -302 205 -364 70 -35 176 -32 256 7 85 41
162 122 213 224 46 92 49 113 27 197 -17 65 -35 97 -69 119 -54 36 -295 64
-386 45z m90 -310 c0 -5 -9 -10 -20 -10 -11 0 -20 5 -20 10 0 6 9 10 20 10 11
0 20 -4 20 -10z"/>
<path d="M1135 3659 c-68 -16 -261 -117 -294 -155 -38 -43 -65 -129 -55 -181
23 -127 137 -194 249 -147 20 8 39 14 40 12 5 -5 -67 -191 -105 -273 -131
-283 -168 -385 -195 -530 -39 -210 9 -309 164 -336 97 -17 127 -1 253 134 172
184 441 481 504 556 l59 70 3 -32 c5 -48 -25 -242 -68 -437 -22 -96 -47 -211
-56 -255 -9 -44 -32 -145 -51 -225 -48 -200 -51 -246 -21 -289 52 -76 129 -97
200 -53 60 37 82 98 153 427 15 66 43 190 64 275 84 339 119 810 67 910 -42
80 -89 110 -173 110 -112 0 -214 -72 -373 -261 -52 -62 -112 -131 -133 -154
l-37 -40 21 55 c71 184 91 238 120 331 22 72 34 131 37 191 4 80 2 93 -22 143
-64 129 -199 189 -351 154z"/>
<path d="M3551 3342 c-111 -42 -205 -176 -237 -340 -15 -78 -15 -87 1 -127 18
-48 71 -101 110 -111 14 -3 42 -4 62 -1 259 38 348 78 421 190 24 37 27 52 27
122 0 94 -19 137 -87 203 -77 76 -198 101 -297 64z"/>
<path d="M4795 2827 c-96 -32 -154 -82 -194 -167 -21 -45 -26 -69 -25 -135 0
-68 4 -89 29 -138 37 -75 117 -149 179 -167 97 -27 188 14 235 105 23 43 26
63 26 145 0 79 -3 101 -20 125 -13 19 -20 48 -21 80 -2 120 -97 188 -209 152z"/>
<path d="M2974 2499 c-109 -13 -242 -60 -439 -157 -192 -95 -225 -120 -246
-191 -22 -73 16 -162 89 -211 30 -20 49 -25 102 -25 61 0 75 5 235 83 94 46
192 92 219 103 l48 20 -6 -34 c-14 -73 -105 -278 -187 -418 -50 -86 -64 -143
-50 -197 24 -88 103 -138 205 -130 116 10 152 59 309 419 141 323 161 416 120
533 -35 98 -145 188 -245 201 -24 4 -52 8 -63 9 -11 2 -52 -1 -91 -5z"/>
<path d="M4346 2355 c-52 -18 -106 -63 -129 -109 -28 -54 -32 -119 -12 -215 9
-45 15 -85 12 -87 -2 -3 -49 13 -103 34 -133 53 -192 65 -278 60 -206 -13
-325 -188 -325 -478 -1 -140 33 -398 57 -447 54 -104 184 -151 288 -104 55 25
120 85 147 135 20 38 22 54 20 195 -1 84 -4 165 -8 178 -7 30 -2 29 135 -29
93 -39 97 -40 182 -35 107 7 166 31 230 94 97 95 136 241 117 441 -21 228 -53
305 -148 354 -60 32 -121 36 -185 13z"/>
<path d="M2070 1881 c-113 -59 -133 -240 -39 -335 31 -31 42 -52 54 -105 9
-36 29 -114 46 -173 29 -98 30 -112 21 -167 -13 -72 3 -162 43 -241 31 -62
181 -220 275 -291 81 -61 272 -160 365 -189 92 -28 241 -29 336 -2 95 27 194
85 226 133 49 75 41 176 -20 246 -65 74 -144 82 -257 26 -96 -47 -166 -50
-252 -10 -32 14 -58 28 -58 30 0 3 7 21 15 40 30 72 13 140 -52 205 -21 22
-59 66 -84 99 -26 33 -72 76 -102 96 -64 43 -63 40 -111 252 -19 83 -44 177
-57 209 -55 149 -233 239 -349 177z"/>
</g>
</svg>
