<?xml version="1.0" standalone="no"?>
<!DOCTYPE svg PUBLIC "-//W3C//DTD SVG 20010904//EN"
 "http://www.w3.org/TR/2001/REC-SVG-20010904/DTD/svg10.dtd">
<svg version="1.0" xmlns="http://www.w3.org/2000/svg"
 width="600.000000pt" height="600.000000pt" viewBox="0 0 600.000000 600.000000"
 preserveAspectRatio="xMidYMid meet">
<metadata>
Created by potrace 1.15, written by Peter Selinger 2001-2017
</metadata>
<g transform="translate(0.000000,600.000000) scale(0.100000,-0.100000)"
fill="#16364b" stroke="none">
<path d="M2386 5387 c-23 -23 -23 -30 -29 -253 -6 -251 -20 -337 -74 -436 -35
-63 -112 -134 -194 -177 -86 -45 -99 -58 -99 -97 0 -25 7 -38 25 -50 23 -15
28 -15 89 14 90 42 172 100 232 164 112 119 140 227 151 599 l6 207 -26 26
c-32 32 -51 33 -81 3z"/>
<path d="M3529 5290 c-8 -5 -21 -26 -28 -47 -11 -34 -10 -45 9 -96 38 -102
141 -209 215 -223 37 -7 89 15 99 41 13 35 5 93 -20 143 -30 60 -114 156 -155
177 -31 17 -96 19 -120 5z"/>
<path d="M3025 5116 c-42 -18 -106 -85 -133 -138 -56 -113 -48 -242 17 -281
84 -49 203 24 271 166 72 149 36 268 -79 267 -25 -1 -59 -7 -76 -14z m70 -133
c-10 -43 -33 -86 -66 -126 -50 -61 -63 -42 -33 46 26 76 117 148 99 80z"/>
<path d="M4785 4751 c-11 -5 -29 -19 -40 -31 -18 -20 -20 -39 -23 -174 -7
-323 53 -506 167 -506 46 0 75 20 104 73 20 38 22 56 22 182 -1 126 -4 148
-28 218 -70 200 -127 268 -202 238z"/>
<path d="M2675 4223 c-59 -17 -95 -67 -95 -134 0 -183 375 -285 536 -145 37
32 39 36 39 95 0 90 -18 104 -185 147 -129 32 -255 49 -295 37z"/>
<path d="M5221 3970 c-131 -47 -202 -149 -202 -290 0 -151 97 -294 228 -335
50 -16 66 -17 127 -6 226 38 372 237 311 422 -23 68 -104 151 -194 197 -56 28
-73 32 -140 32 -49 -1 -95 -8 -130 -20z m163 -290 c14 -14 -12 -40 -41 -40
-23 0 -47 35 -36 54 6 10 63 0 77 -14z"/>
<path d="M4178 3755 c-179 -68 -276 -282 -197 -437 27 -52 84 -107 138 -132
65 -29 179 -29 242 2 116 56 190 167 197 294 9 149 -19 203 -130 254 -75 34
-189 43 -250 19z m102 -283 c0 -10 -5 -23 -12 -30 -15 -15 -48 -16 -48 0 0 16
31 48 47 48 7 0 13 -8 13 -18z"/>
<path d="M1157 3616 c-109 -45 -174 -117 -202 -222 -49 -187 94 -373 335 -438
94 -26 145 -59 197 -129 114 -155 167 -319 223 -687 11 -74 28 -180 36 -235
54 -340 191 -571 397 -669 145 -69 248 -83 872 -116 208 -11 793 -4 940 11
127 14 405 70 515 104 108 34 279 121 361 184 188 142 315 339 360 555 38 183
14 346 -79 531 -129 258 -325 399 -577 412 -182 9 -324 -38 -507 -170 -258
-185 -380 -245 -556 -273 -96 -15 -125 -16 -193 -6 -159 23 -365 107 -539 219
-145 95 -264 199 -473 416 -116 121 -236 236 -282 270 -104 76 -263 153 -450
216 -134 46 -159 51 -235 51 -66 0 -98 -6 -143 -24z m263 -325 c256 -79 336
-127 555 -341 322 -314 619 -546 825 -647 197 -95 375 -137 590 -138 295 -1
433 55 725 289 152 122 217 155 317 163 96 7 162 -8 237 -57 101 -66 206 -222
231 -345 34 -166 -47 -399 -181 -519 -77 -69 -252 -148 -449 -201 -127 -34
-271 -65 -350 -74 -132 -17 -993 -18 -1055 -3 -27 7 -104 17 -170 23 -150 12
-328 43 -399 69 -145 55 -225 203 -271 503 -13 87 -33 214 -56 357 -17 102
-56 248 -88 331 -123 318 -267 468 -499 524 -74 18 -132 53 -132 81 0 23 65
17 170 -15z"/>
<path d="M2244 2365 c-14 -21 -14 -30 -4 -56 26 -63 98 -71 120 -13 14 37 12
52 -10 74 -30 30 -85 27 -106 -5z"/>
<path d="M2843 2060 c-25 -10 -38 -48 -28 -80 4 -12 22 -28 41 -37 33 -16 35
-16 59 7 27 26 34 80 12 98 -19 16 -60 22 -84 12z"/>
<path d="M3436 3357 c-42 -45 -156 -267 -156 -304 0 -34 27 -63 57 -63 61 0
223 241 223 332 0 71 -71 91 -124 35z"/>
<path d="M466 2018 c-9 -12 -16 -31 -16 -41 0 -26 152 -180 210 -211 65 -36
124 -33 153 6 42 56 -13 125 -175 216 -104 58 -147 66 -172 30z"/>
<path d="M5332 1103 c-31 -12 -56 -87 -57 -165 0 -72 2 -80 28 -105 22 -22 37
-28 73 -28 39 0 50 5 74 32 37 41 53 102 48 177 -6 76 -28 96 -102 95 -28 0
-57 -3 -64 -6z"/>
</g>
</svg>
