<?xml version="1.0" standalone="no"?>
<!DOCTYPE svg PUBLIC "-//W3C//DTD SVG 20010904//EN"
 "http://www.w3.org/TR/2001/REC-SVG-20010904/DTD/svg10.dtd">
<svg version="1.0" xmlns="http://www.w3.org/2000/svg"
 width="600.000000pt" height="600.000000pt" viewBox="0 0 600.000000 600.000000"
 preserveAspectRatio="xMidYMid meet">
<metadata>
Created by potrace 1.15, written by Peter Selinger 2001-2017
</metadata>
<g transform="translate(0.000000,600.000000) scale(0.100000,-0.100000)"
fill="#16364b" stroke="none">
<path d="M1900 4740 c-90 -18 -153 -64 -195 -142 -41 -74 -40 -162 2 -268 34
-84 47 -149 68 -360 9 -80 20 -188 26 -240 5 -52 16 -234 24 -405 8 -170 20
-371 26 -445 6 -81 8 -237 4 -390 -8 -287 2 -426 41 -612 70 -334 159 -475
358 -574 52 -25 130 -54 181 -65 50 -12 95 -22 101 -24 7 -2 7 -27 0 -80 -17
-136 11 -276 114 -559 23 -64 28 -91 20 -96 -6 -4 -45 -10 -86 -13 -41 -4 -89
-13 -107 -21 -64 -26 -95 -94 -67 -147 43 -79 244 -55 355 43 52 46 75 89 75
140 0 17 -29 120 -64 227 -72 219 -92 322 -79 421 l8 65 140 -3 c77 -2 219 -8
315 -15 96 -7 255 -12 352 -11 l178 1 -7 -26 c-4 -14 -7 -62 -7 -106 0 -92 23
-189 95 -408 27 -82 47 -153 43 -158 -3 -5 -31 -9 -62 -9 -112 -1 -183 -36
-197 -100 -24 -109 138 -150 302 -75 75 34 113 90 113 166 0 33 -8 75 -18 101
-34 79 -81 222 -107 322 -27 107 -32 196 -13 275 13 58 -3 51 198 81 182 27
353 64 422 90 132 49 244 151 302 274 55 116 71 192 70 346 0 120 -3 144 -26
211 -53 150 -121 236 -293 367 -58 44 -146 92 -307 170 -125 59 -232 113 -240
119 -18 15 -230 120 -369 182 -238 107 -566 328 -735 496 -123 123 -171 197
-352 555 -118 233 -200 388 -278 526 -70 124 -208 198 -324 174z m116 -171
c40 -24 85 -87 120 -165 14 -31 35 -70 49 -88 13 -17 63 -114 112 -216 95
-198 223 -428 306 -550 72 -106 235 -264 420 -407 200 -155 295 -212 552 -328
113 -52 232 -110 263 -130 32 -19 158 -80 281 -135 226 -101 306 -149 415
-250 223 -207 156 -691 -115 -823 -68 -34 -176 -55 -546 -108 -321 -46 -274
-45 -928 -20 -301 12 -397 22 -500 52 -205 60 -304 169 -375 411 -62 213 -80
427 -61 718 8 119 8 229 2 345 -5 94 -15 274 -21 400 -15 298 -65 823 -90 946
-11 53 -32 124 -45 158 -38 93 -30 155 25 198 25 20 99 16 136 -8z"/>
<path d="M2552 2664 c-31 -22 -29 -67 4 -93 15 -12 35 -21 45 -21 23 0 59 46
59 76 0 26 -34 54 -65 54 -11 0 -31 -7 -43 -16z"/>
<path d="M2988 2469 c-29 -16 -23 -73 8 -98 39 -30 70 -27 89 9 35 68 -31 128
-97 89z"/>
<path d="M5217 3976 c-111 -31 -175 -111 -184 -228 -12 -152 77 -333 193 -388
128 -62 343 11 427 145 41 66 62 149 53 209 -14 87 -95 180 -206 236 -52 26
-77 32 -149 36 -55 2 -103 -1 -134 -10z m167 -286 c12 -12 -11 -40 -33 -40
-23 0 -41 20 -41 43 0 17 5 19 32 13 18 -3 37 -11 42 -16z"/>
<path d="M5339 1115 c-30 -16 -64 -88 -74 -155 -18 -124 89 -198 170 -117 39
39 55 89 55 175 0 54 -4 67 -25 87 -28 29 -84 33 -126 10z"/>
</g>
</svg>
