<?xml version="1.0" standalone="no"?>
<!DOCTYPE svg PUBLIC "-//W3C//DTD SVG 20010904//EN"
 "http://www.w3.org/TR/2001/REC-SVG-20010904/DTD/svg10.dtd">
<svg version="1.0" xmlns="http://www.w3.org/2000/svg"
 width="600.000000pt" height="600.000000pt" viewBox="0 0 600.000000 600.000000"
 preserveAspectRatio="xMidYMid meet">
<metadata>
Created by potrace 1.15, written by Peter Selinger 2001-2017
</metadata>
<g transform="translate(0.000000,600.000000) scale(0.100000,-0.100000)"
fill="#16364b" stroke="none">
<path d="M2125 5442 c-46 -29 -61 -51 -86 -122 -58 -169 -8 -295 135 -340 22
-7 95 -16 162 -19 l121 -6 -43 -112 c-52 -132 -104 -332 -104 -398 0 -60 24
-109 65 -135 61 -38 150 -17 190 43 9 14 32 84 51 157 19 73 54 185 79 249 24
64 48 134 54 156 26 96 -1 214 -61 272 -58 56 -110 73 -225 73 l-101 0 1 49
c2 53 -16 87 -66 125 -39 29 -132 33 -172 8z"/>
<path d="M3530 5441 c-76 -15 -120 -71 -120 -153 0 -55 26 -107 69 -135 26
-18 48 -23 96 -23 47 0 69 -5 86 -19 23 -18 24 -26 23 -123 0 -89 -4 -113 -29
-173 -53 -132 -41 -211 38 -248 74 -36 172 -6 207 63 34 67 68 204 75 301 19
271 -109 467 -330 508 -64 12 -64 12 -115 2z"/>
<path d="M1630 4824 c-111 -21 -309 -80 -339 -103 -68 -49 -90 -139 -51 -208
36 -65 97 -88 178 -69 l33 8 -26 -38 c-69 -101 4 -244 125 -244 72 0 300 -40
458 -80 l163 -42 47 24 c36 18 52 34 71 71 27 55 24 95 -12 148 -30 44 -69 62
-222 104 -113 31 -185 46 -450 93 l-50 8 80 19 c77 19 182 23 316 14 64 -4 98
12 130 64 27 42 22 121 -10 166 -42 58 -90 74 -231 78 -82 1 -154 -3 -210 -13z"/>
<path d="M4260 4428 c-55 -28 -83 -74 -82 -134 1 -102 58 -144 207 -155 114
-8 166 -25 191 -64 26 -39 30 -170 9 -265 -28 -126 -29 -144 -10 -183 47 -99
185 -92 243 11 24 43 62 241 62 322 0 75 -26 193 -56 252 -77 154 -191 216
-429 232 -81 6 -94 5 -135 -16z"/>
<path d="M3215 4418 c-16 -6 -133 -64 -260 -129 -444 -228 -468 -241 -488
-277 -39 -67 -13 -160 56 -197 65 -35 118 -21 357 98 319 158 490 255 517 296
78 116 -45 257 -182 209z"/>
<path d="M2180 3849 c-103 -31 -232 -48 -403 -56 -173 -7 -195 -14 -241 -76
-29 -39 -29 -125 0 -164 45 -61 73 -68 249 -67 169 1 328 20 473 56 128 32
169 79 160 179 -6 62 -31 97 -88 127 -53 26 -65 26 -150 1z"/>
<path d="M3698 3819 c-47 -11 -120 -47 -285 -142 -71 -41 -183 -102 -251 -136
-107 -55 -125 -68 -142 -102 -56 -108 6 -219 123 -219 40 0 70 12 180 69 73
37 167 89 210 115 43 25 82 46 86 46 4 0 15 -18 25 -41 33 -74 109 -99 184
-60 45 24 74 66 103 151 54 161 9 284 -117 319 -45 12 -64 12 -116 0z"/>
<path d="M4967 3419 c-121 -29 -195 -152 -168 -278 27 -125 6 -186 -114 -326
-130 -153 -207 -283 -259 -439 -28 -83 -56 -234 -56 -299 0 -113 62 -205 157
-233 52 -15 60 -15 120 1 47 13 76 29 112 61 61 55 79 92 91 191 11 82 49 210
83 278 22 44 67 104 182 240 169 199 232 435 169 626 -40 123 -192 209 -317
178z"/>
<path d="M2014 3206 c-85 -37 -116 -158 -63 -246 32 -52 83 -68 267 -79 90 -6
167 -13 173 -16 5 -4 9 -15 9 -26 0 -34 40 -99 73 -119 46 -29 133 -27 177 3
52 34 75 82 75 152 0 142 -107 256 -283 300 -49 12 -334 46 -381 45 -9 -1 -30
-7 -47 -14z"/>
<path d="M4295 3154 c-16 -8 -50 -36 -75 -61 -125 -127 -430 -259 -714 -309
-96 -17 -122 -32 -148 -91 -37 -83 2 -176 87 -209 41 -15 55 -16 128 -5 117
18 331 67 436 101 171 56 274 119 409 253 84 82 105 116 106 172 2 117 -128
202 -229 149z"/>
<path d="M1282 2979 c-85 -42 -119 -162 -72 -254 36 -70 51 -145 95 -485 33
-246 111 -501 179 -577 34 -40 97 -72 139 -73 66 0 137 48 168 115 28 60 24
107 -16 195 -49 108 -70 199 -95 402 -46 384 -61 463 -106 555 -62 128 -180
177 -292 122z"/>
<path d="M2101 2425 c-123 -46 -260 -162 -279 -238 -15 -59 -1 -107 44 -146
30 -27 42 -31 93 -31 48 0 65 5 99 29 22 16 43 35 47 41 11 19 97 70 116 70
10 0 27 -16 40 -36 24 -40 85 -73 134 -74 40 0 114 38 138 71 10 14 21 44 24
67 11 81 -71 190 -182 243 -79 38 -179 40 -274 4z"/>
<path d="M3805 2164 c-115 -18 -246 -46 -575 -125 -206 -49 -388 -95 -404
-101 -149 -59 -183 -265 -56 -337 66 -37 141 -27 510 64 154 38 451 91 578
103 63 6 87 4 132 -11 47 -17 61 -18 97 -8 86 24 143 100 143 192 0 134 -113
217 -305 224 -49 2 -103 1 -120 -1z"/>
<path d="M2272 1950 c-43 -26 -68 -70 -87 -152 -40 -179 11 -393 132 -553 77
-101 176 -113 253 -30 21 23 25 36 25 90 0 56 -4 68 -31 102 -45 55 -71 110
-85 180 -11 53 -10 70 4 122 32 115 15 192 -53 239 -43 29 -112 30 -158 2z"/>
<path d="M4625 1631 c-22 -10 -57 -40 -79 -66 -83 -101 -160 -133 -458 -190
-296 -56 -435 -104 -605 -206 -107 -65 -139 -92 -163 -140 -21 -41 -26 -121
-11 -162 l10 -25 -47 26 c-71 40 -118 35 -232 -21 -239 -119 -427 -74 -695
163 -102 90 -157 110 -237 86 -108 -33 -163 -120 -138 -219 9 -33 31 -61 106
-135 257 -250 533 -361 829 -331 187 19 380 104 435 194 23 37 31 117 17 167
l-7 27 42 -24 c77 -44 151 -31 263 45 58 40 151 84 225 108 64 21 131 34 340
67 255 41 458 129 596 257 94 89 117 132 112 213 -3 53 -9 71 -34 102 -62 78
-179 106 -269 64z"/>
</g>
</svg>
