<?xml version="1.0" standalone="no"?>
<!DOCTYPE svg PUBLIC "-//W3C//DTD SVG 20010904//EN"
 "http://www.w3.org/TR/2001/REC-SVG-20010904/DTD/svg10.dtd">
<svg version="1.0" xmlns="http://www.w3.org/2000/svg"
 width="600.000000pt" height="600.000000pt" viewBox="0 0 600.000000 600.000000"
 preserveAspectRatio="xMidYMid meet">
<metadata>
Created by potrace 1.15, written by Peter Selinger 2001-2017
</metadata>
<g transform="translate(0.000000,600.000000) scale(0.100000,-0.100000)"
fill="#16364b" stroke="none">
<path d="M3012 5090 c-81 -50 -132 -141 -132 -238 0 -57 3 -67 29 -93 37 -37
75 -38 127 -3 54 36 90 79 125 149 41 85 37 156 -10 192 -25 20 -102 15 -139
-7z m106 -78 c9 -60 -120 -221 -158 -197 -31 19 2 126 56 183 34 35 48 43 71
40 20 -2 29 -9 31 -26z"/>
<path d="M4780 4722 c-24 -24 -29 -40 -36 -108 -14 -131 -11 -475 4 -502 33
-58 96 -65 129 -15 16 24 18 60 21 319 l4 291 -28 22 c-36 28 -60 27 -94 -7z"/>
<path d="M1652 4327 c-95 -35 -152 -126 -152 -242 0 -81 18 -128 74 -194 47
-55 66 -94 99 -196 39 -120 54 -214 82 -500 14 -143 34 -343 46 -445 11 -102
24 -300 29 -440 9 -272 20 -385 50 -520 42 -187 87 -279 184 -376 105 -105
248 -168 430 -190 l58 -7 -6 -36 c-27 -157 -17 -225 69 -490 36 -109 65 -206
65 -215 0 -14 -13 -16 -84 -16 -92 0 -119 -7 -153 -39 -16 -15 -23 -33 -23
-60 0 -78 70 -119 182 -107 73 7 114 24 163 67 80 71 83 133 19 355 -88 301
-99 374 -73 494 l11 51 61 -5 c262 -25 687 -47 790 -42 l117 7 0 -82 c0 -118
52 -412 99 -558 12 -35 18 -67 15 -72 -3 -5 -31 -9 -62 -9 -94 0 -131 -10
-168 -45 -27 -25 -34 -40 -34 -69 0 -76 83 -116 198 -96 119 20 199 78 222
158 14 52 14 54 -25 185 -56 193 -95 498 -73 578 7 24 14 27 115 43 133 21
450 98 538 130 100 36 170 84 251 169 82 87 142 196 170 307 24 93 15 263 -21
400 -51 197 -115 294 -233 352 -64 32 -71 33 -177 32 -60 -1 -177 -5 -260 -9
-189 -9 -307 7 -570 75 -358 92 -439 125 -645 261 -137 90 -277 221 -347 324
-22 33 -79 127 -127 210 -157 269 -289 437 -543 686 -131 129 -166 158 -207
172 -57 19 -107 21 -154 4z m148 -178 c18 -13 49 -45 70 -71 20 -26 59 -65 86
-86 117 -92 308 -335 448 -568 185 -308 288 -434 460 -563 230 -172 343 -223
701 -317 274 -72 431 -96 630 -98 94 0 204 3 246 8 155 18 238 -31 297 -174
87 -213 82 -437 -12 -585 -42 -64 -134 -149 -200 -182 -97 -49 -373 -117 -596
-147 -157 -21 -421 -38 -489 -31 -58 5 -355 19 -751 35 -200 7 -234 11 -307
34 -183 59 -283 170 -337 377 -40 150 -57 298 -61 524 -2 116 -8 237 -14 270
-15 83 -38 336 -51 545 -28 460 -81 675 -211 846 -57 76 -71 111 -62 155 12
62 87 76 153 28z"/>
<path d="M2500 2583 c-47 -17 -52 -71 -9 -107 38 -33 52 -33 78 0 27 35 26 59
-4 89 -24 25 -36 28 -65 18z"/>
<path d="M2912 2264 c-47 -33 -6 -114 57 -114 54 0 71 73 25 109 -32 25 -52
26 -82 5z"/>
<path d="M2648 4213 c-68 -42 -58 -124 20 -166 87 -47 370 -124 409 -111 42
14 62 28 73 54 13 32 5 72 -18 93 -19 17 -406 147 -437 147 -11 0 -32 -8 -47
-17z"/>
<path d="M5211 3969 c-84 -27 -160 -99 -185 -177 -25 -74 -19 -199 13 -264 36
-74 95 -134 166 -169 61 -30 69 -31 157 -27 74 3 104 10 149 31 70 34 132 96
167 167 23 47 27 68 27 140 0 73 -4 92 -27 137 -36 68 -87 116 -163 153 -55
27 -71 30 -151 29 -60 0 -110 -7 -153 -20z m158 -280 c36 -13 37 -16 14 -41
-23 -26 -51 -22 -65 8 -10 21 -9 27 3 35 8 5 14 9 15 9 1 0 15 -5 33 -11z"/>
<path d="M4210 3751 c-169 -55 -271 -229 -226 -383 33 -114 145 -200 261 -201
130 -1 251 78 288 187 30 88 16 255 -26 319 -8 13 -38 36 -68 52 -43 23 -68
29 -129 32 -41 1 -86 -1 -100 -6z m70 -280 c0 -22 -19 -41 -42 -41 -24 0 -23
25 4 49 23 22 38 19 38 -8z"/>
<path d="M5352 1087 c-69 -74 -79 -232 -16 -273 28 -19 83 -21 114 -4 36 19
70 105 70 178 0 57 -3 67 -29 93 -38 38 -106 41 -139 6z"/>
</g>
</svg>
