<?xml version="1.0" standalone="no"?>
<!DOCTYPE svg PUBLIC "-//W3C//DTD SVG 20010904//EN"
 "http://www.w3.org/TR/2001/REC-SVG-20010904/DTD/svg10.dtd">
<svg version="1.0" xmlns="http://www.w3.org/2000/svg"
 width="600.000000pt" height="600.000000pt" viewBox="0 0 600.000000 600.000000"
 preserveAspectRatio="xMidYMid meet">
<metadata>
Created by potrace 1.15, written by Peter Selinger 2001-2017
</metadata>
<g transform="translate(0.000000,600.000000) scale(0.100000,-0.100000)"
fill="#16364b" stroke="none">
<path d="M2775 5566 c-41 -19 -77 -59 -118 -136 -100 -185 -104 -352 -9 -443
64 -61 189 -79 397 -57 44 4 82 6 85 3 3 -3 -15 -21 -40 -41 -152 -122 -375
-369 -491 -540 -41 -62 -49 -81 -49 -119 0 -55 46 -135 91 -159 18 -9 150 -28
341 -50 172 -19 358 -44 413 -54 128 -25 161 -25 201 2 47 32 68 74 68 134 -1
58 -23 98 -65 120 -37 19 -207 47 -437 73 -100 12 -187 21 -192 21 -6 0 -10 4
-10 8 0 15 283 289 385 373 193 159 226 200 227 288 0 92 -61 166 -180 216
-41 17 -76 20 -269 23 -123 2 -223 6 -223 8 0 3 21 45 47 94 45 88 46 90 34
132 -16 52 -34 74 -83 99 -43 22 -81 24 -123 5z"/>
<path d="M1563 5206 c-156 -73 -357 -255 -451 -408 -152 -246 -160 -372 -30
-436 l47 -23 170 25 c199 30 291 34 291 11 0 -8 -16 -81 -36 -161 -48 -197
-47 -240 8 -300 23 -25 22 -26 -57 -49 -33 -9 -71 -25 -86 -36 -59 -42 -77
-140 -36 -200 30 -45 83 -79 123 -79 62 0 544 175 614 223 95 65 90 200 -10
256 -54 30 -100 25 -207 -22 -45 -20 -84 -33 -87 -29 -2 4 14 77 36 162 32
122 40 175 42 250 1 88 -1 99 -29 149 -60 108 -129 141 -315 150 l-125 7 86
84 c47 47 114 101 148 120 86 48 121 78 137 117 19 44 17 80 -6 130 -37 82
-126 105 -227 59z"/>
<path d="M4333 4631 c-150 -41 -339 -132 -370 -180 -48 -71 -20 -175 57 -213
56 -28 97 -22 216 31 60 27 133 56 163 65 l53 16 -7 -28 c-16 -67 -105 -255
-187 -399 -98 -171 -112 -216 -84 -270 17 -34 104 -121 139 -140 12 -6 108
-16 212 -23 173 -10 302 -24 311 -33 12 -12 -41 -141 -166 -402 -69 -144 -79
-192 -53 -245 50 -96 188 -109 249 -21 24 34 200 422 227 502 79 227 48 364
-98 437 -55 27 -179 52 -262 52 -37 0 -98 3 -134 6 l-66 7 53 106 c101 201
160 405 152 527 -5 80 -44 147 -112 188 -42 26 -59 30 -134 33 -63 2 -107 -2
-159 -16z"/>
<path d="M3727 3659 c-128 -30 -257 -161 -257 -260 0 -49 27 -101 61 -119 79
-43 132 -31 204 46 48 51 95 72 95 42 0 -29 -32 -130 -71 -229 l-43 -106 -60
-31 c-83 -40 -182 -115 -206 -155 -61 -100 18 -231 139 -231 46 0 61 7 160 69
29 19 92 48 140 65 166 59 203 75 242 109 53 44 72 84 71 149 0 59 -16 91 -68
137 l-34 30 22 65 c15 47 22 92 22 160 1 88 -1 98 -27 138 -34 53 -96 98 -160
117 -55 16 -170 18 -230 4z"/>
<path d="M2525 3514 c-91 -14 -250 -49 -320 -71 -150 -47 -185 -78 -185 -163
0 -57 26 -107 69 -135 60 -39 95 -40 191 -5 170 63 373 91 387 54 10 -27 -25
-131 -94 -276 -59 -125 -65 -143 -59 -181 15 -89 76 -147 157 -147 73 0 105
28 166 145 102 197 143 326 144 450 2 144 -60 247 -180 303 -45 21 -73 26
-150 28 -53 1 -109 0 -126 -2z"/>
<path d="M1112 3216 c-58 -19 -176 -90 -201 -122 -49 -62 -52 -147 -7 -215 35
-51 90 -79 161 -79 l55 0 0 -32 c0 -97 -23 -322 -47 -458 -37 -207 -40 -423
-6 -485 54 -102 145 -135 269 -99 76 22 102 47 169 170 79 146 152 266 246
404 72 107 162 221 179 228 4 1 16 -19 26 -45 16 -41 19 -74 18 -218 0 -225
-23 -398 -81 -617 -29 -110 -26 -151 13 -197 44 -53 131 -64 193 -24 24 15 24
15 18 -17 -13 -64 59 -440 115 -599 41 -117 83 -194 143 -259 179 -196 424
-201 615 -12 33 33 64 60 68 60 25 0 87 81 127 166 112 241 238 404 311 404
25 0 135 -55 245 -123 154 -95 275 -112 387 -56 83 41 146 104 169 168 12 35
30 62 57 83 85 68 111 201 60 308 -33 68 -64 175 -64 216 0 27 5 32 40 43 21
6 113 18 202 26 176 16 218 25 289 60 128 65 220 234 219 405 -1 119 -43 190
-141 239 -173 87 -359 -18 -359 -201 0 -45 2 -44 -159 -53 -338 -17 -496 -126
-543 -375 -14 -75 -3 -288 20 -375 10 -38 29 -92 40 -119 12 -27 22 -52 22
-57 0 -20 -33 -6 -151 62 -152 88 -233 119 -324 126 -230 17 -422 -153 -621
-549 -35 -71 -70 -128 -77 -128 -8 0 -36 -16 -63 -35 l-49 -35 -22 27 c-59 72
-117 244 -143 418 -25 176 -30 199 -51 230 -61 88 -176 116 -268 63 -18 -10
-35 -18 -36 -16 -2 2 12 64 31 138 136 534 112 1022 -57 1174 -116 104 -241
81 -430 -79 -63 -53 -166 -168 -218 -243 -13 -18 -25 -31 -27 -29 -2 2 6 84
17 183 40 343 10 461 -135 536 -52 27 -181 34 -244 14z"/>
<path d="M3066 2585 c-111 -21 -263 -61 -391 -102 -124 -40 -171 -76 -193
-150 -32 -106 6 -201 95 -239 50 -21 74 -18 242 37 211 69 381 105 381 83 0
-4 -20 -50 -46 -103 -57 -122 -64 -164 -34 -225 56 -117 229 -130 326 -25 35
38 94 170 121 269 10 39 17 102 17 155 0 78 -3 97 -26 141 -36 68 -81 112
-148 143 -46 21 -72 26 -160 28 -61 1 -138 -4 -184 -12z"/>
</g>
</svg>
