<?xml version="1.0" standalone="no"?>
<!DOCTYPE svg PUBLIC "-//W3C//DTD SVG 20010904//EN"
 "http://www.w3.org/TR/2001/REC-SVG-20010904/DTD/svg10.dtd">
<svg version="1.0" xmlns="http://www.w3.org/2000/svg"
 width="600.000000pt" height="600.000000pt" viewBox="0 0 600.000000 600.000000"
 preserveAspectRatio="xMidYMid meet">
<metadata>
Created by potrace 1.15, written by Peter Selinger 2001-2017
</metadata>
<g transform="translate(0.000000,600.000000) scale(0.100000,-0.100000)"
fill="#16364b" stroke="none">
<path d="M1836 4706 c-84 -32 -138 -93 -162 -185 -19 -75 -10 -145 31 -233 54
-119 85 -367 115 -918 6 -107 18 -265 27 -350 14 -123 16 -239 14 -570 -3
-526 11 -637 104 -820 118 -234 279 -358 521 -404 58 -11 69 -16 67 -32 -24
-192 -9 -346 54 -554 19 -63 37 -127 40 -143 l5 -27 -63 0 c-86 0 -133 -15
-163 -51 -35 -41 -36 -100 -2 -134 71 -71 290 -30 353 66 43 65 42 116 -5 260
-62 192 -75 270 -70 429 6 162 10 174 52 166 86 -16 402 -27 657 -24 l286 3
-5 -110 c-7 -163 25 -337 93 -511 19 -48 32 -91 29 -96 -3 -4 -38 -8 -77 -8
-94 0 -140 -14 -171 -51 -31 -37 -33 -77 -6 -112 62 -78 274 -61 362 30 64 66
74 127 34 221 -87 206 -132 466 -104 596 l13 60 116 17 c148 21 404 75 475 99
164 57 281 182 346 371 30 89 32 101 32 244 1 144 0 153 -30 231 -57 148 -130
237 -286 348 -100 71 -158 100 -375 186 -97 39 -182 75 -189 81 -6 5 -159 84
-339 174 -514 260 -667 379 -900 701 -89 124 -179 273 -229 379 -78 165 -149
302 -191 365 -23 36 -55 88 -71 115 -39 69 -124 152 -181 177 -60 27 -156 33
-207 14z m183 -176 c23 -17 59 -59 81 -93 21 -34 48 -75 59 -92 35 -53 84
-147 136 -266 71 -161 133 -272 238 -429 188 -281 272 -376 452 -511 162 -121
250 -173 540 -314 151 -73 288 -143 304 -154 15 -11 133 -63 261 -115 190 -77
251 -107 332 -163 148 -101 195 -159 244 -303 29 -85 25 -243 -8 -338 -46
-128 -117 -215 -213 -262 -42 -20 -282 -77 -441 -105 -264 -45 -740 -67 -1004
-46 -80 7 -216 16 -302 21 -259 15 -363 52 -475 166 -68 69 -137 197 -167 310
-43 163 -60 510 -37 789 10 117 3 279 -23 505 -8 74 -22 252 -31 395 -35 567
-51 686 -105 814 -40 94 -41 152 -1 192 42 41 102 41 160 -1z"/>
<path d="M2545 2675 c-14 -13 -25 -31 -25 -40 0 -25 46 -65 75 -65 33 0 75 42
75 74 0 54 -82 75 -125 31z"/>
<path d="M3023 2475 c-49 -35 -13 -125 50 -125 31 0 57 33 57 71 0 49 -67 83
-107 54z"/>
<path d="M5230 3984 c-158 -42 -241 -183 -210 -355 22 -122 98 -227 199 -276
49 -25 67 -28 146 -27 117 1 175 25 248 103 68 74 92 139 92 246 0 72 -3 86
-35 144 -38 70 -69 99 -161 148 -56 30 -70 33 -143 32 -45 0 -106 -7 -136 -15z
m139 -295 c35 -12 38 -21 15 -43 -23 -24 -53 -19 -66 10 -10 21 -9 27 3 35 8
5 14 9 15 9 1 0 15 -5 33 -11z"/>
<path d="M5332 1108 c-12 -6 -34 -35 -48 -64 -44 -90 -33 -182 25 -217 92 -54
181 37 181 186 0 86 -18 107 -87 106 -27 0 -58 -5 -71 -11z"/>
</g>
</svg>
