<?xml version="1.0" standalone="no"?>
<!DOCTYPE svg PUBLIC "-//W3C//DTD SVG 20010904//EN"
 "http://www.w3.org/TR/2001/REC-SVG-20010904/DTD/svg10.dtd">
<svg version="1.0" xmlns="http://www.w3.org/2000/svg"
 width="600.000000pt" height="600.000000pt" viewBox="0 0 600.000000 600.000000"
 preserveAspectRatio="xMidYMid meet">
<metadata>
Created by potrace 1.15, written by Peter Selinger 2001-2017
</metadata>
<g transform="translate(0.000000,600.000000) scale(0.100000,-0.100000)"
fill="#16364b" stroke="none">
<path d="M2370 5393 c-20 -26 -21 -34 -15 -148 9 -150 -6 -285 -46 -407 -52
-160 -125 -256 -242 -319 -78 -41 -97 -61 -97 -102 0 -71 58 -85 148 -36 169
93 253 206 336 453 39 116 48 197 44 380 -3 144 -5 166 -22 185 -28 31 -79 28
-106 -6z"/>
<path d="M3537 5309 c-9 -5 -24 -24 -33 -41 -59 -114 142 -378 270 -354 119
22 97 182 -44 328 -67 69 -144 96 -193 67z"/>
<path d="M3052 5138 c-48 -16 -113 -78 -146 -139 -37 -67 -48 -178 -22 -227
48 -92 188 -77 269 29 81 108 92 289 19 328 -30 16 -86 20 -120 9z m42 -155
c-14 -56 -74 -137 -90 -120 -11 11 18 78 48 113 36 41 51 43 42 7z"/>
<path d="M4780 4757 c-51 -25 -63 -73 -64 -261 -1 -185 10 -259 50 -338 32
-63 76 -93 136 -93 56 0 93 24 121 78 44 86 11 330 -69 497 -58 122 -103 153
-174 117z"/>
<path d="M2656 4206 c-76 -29 -125 -102 -112 -169 11 -52 52 -94 133 -134 77
-38 77 -38 203 -38 122 0 127 1 192 33 83 41 108 70 108 128 0 72 -23 88 -195
140 -169 51 -267 63 -329 40z"/>
<path d="M5225 3967 c-144 -48 -213 -154 -203 -312 9 -135 100 -258 226 -305
150 -57 335 28 410 188 34 72 38 196 9 250 -30 54 -85 110 -151 149 -58 35
-66 38 -156 40 -59 2 -110 -2 -135 -10z m169 -287 c12 -12 -8 -36 -34 -43 -21
-5 -40 17 -40 49 0 13 6 15 32 10 18 -3 37 -11 42 -16z"/>
<path d="M4165 3731 c-166 -79 -256 -289 -184 -432 45 -90 183 -158 293 -145
78 10 165 55 214 111 62 70 85 140 84 251 0 111 -14 143 -80 185 -105 66 -228
78 -327 30z m143 -273 c-14 -22 -58 -38 -58 -22 0 16 34 44 53 44 18 0 18 -2
5 -22z"/>
<path d="M1075 3420 c-122 -26 -218 -83 -265 -157 -121 -190 13 -476 270 -577
25 -10 91 -26 148 -36 124 -23 177 -50 231 -123 79 -106 129 -242 205 -557 26
-107 63 -240 81 -294 86 -250 251 -421 487 -504 187 -66 402 -82 1092 -82 545
0 750 10 920 45 293 59 595 201 735 345 96 99 175 257 229 460 21 80 25 117
25 240 1 131 -2 153 -26 225 -63 189 -226 382 -393 465 -114 56 -184 71 -350
77 -285 10 -439 -45 -728 -259 -186 -138 -262 -170 -410 -171 -194 -3 -396 96
-947 463 -368 245 -560 337 -854 412 -100 25 -144 31 -265 34 -80 1 -163 -1
-185 -6z m292 -361 c330 -68 597 -192 901 -418 183 -137 392 -272 507 -329
370 -184 691 -194 994 -31 42 22 135 82 206 134 72 51 155 106 185 123 145 81
343 95 474 34 74 -35 157 -110 199 -182 100 -171 62 -488 -77 -638 -131 -142
-400 -251 -721 -293 -160 -21 -1452 -12 -1603 12 -94 14 -165 45 -221 95 -86
77 -126 171 -181 423 -64 290 -145 541 -217 669 -45 82 -148 191 -226 240
-107 66 -179 90 -327 107 -58 7 -133 35 -144 54 -25 40 57 41 251 0z"/>
<path d="M2184 2304 c-23 -34 -10 -72 33 -97 l32 -18 26 25 c32 32 34 79 3
100 -35 25 -75 20 -94 -10z"/>
<path d="M2870 2077 c-56 -28 -17 -117 51 -117 56 0 78 73 33 109 -31 24 -49
26 -84 8z"/>
<path d="M3453 3347 c-27 -15 -52 -48 -90 -117 -106 -194 -109 -207 -61 -243
38 -28 71 -16 134 50 105 109 152 258 95 304 -27 22 -47 23 -78 6z"/>
<path d="M476 2034 c-24 -24 -20 -79 7 -101 12 -10 33 -35 45 -55 13 -20 47
-59 77 -86 91 -83 176 -92 206 -20 29 69 -40 158 -185 239 -76 41 -124 49
-150 23z"/>
<path d="M5360 1113 c-48 -19 -89 -97 -92 -175 -3 -87 58 -141 134 -119 58 18
90 72 96 164 4 66 2 76 -19 101 -24 27 -85 43 -119 29z"/>
</g>
</svg>
