<?xml version="1.0" standalone="no"?>
<!DOCTYPE svg PUBLIC "-//W3C//DTD SVG 20010904//EN"
 "http://www.w3.org/TR/2001/REC-SVG-20010904/DTD/svg10.dtd">
<svg version="1.0" xmlns="http://www.w3.org/2000/svg"
 width="600.000000pt" height="600.000000pt" viewBox="0 0 600.000000 600.000000"
 preserveAspectRatio="xMidYMid meet">
<metadata>
Created by potrace 1.15, written by Peter Selinger 2001-2017
</metadata>
<g transform="translate(0.000000,600.000000) scale(0.100000,-0.100000)"
fill="#16364b" stroke="none">
<path d="M2841 5542 c-47 -23 -72 -61 -78 -114 -4 -36 1 -57 26 -109 49 -102
64 -192 58 -344 -5 -105 -3 -136 10 -163 21 -45 67 -74 122 -80 65 -6 113 17
148 69 l28 43 -1 175 c0 161 -3 183 -27 264 -71 230 -169 319 -286 259z"/>
<path d="M1966 5441 c-46 -30 -66 -70 -66 -130 0 -78 44 -156 154 -266 92 -94
93 -95 228 -382 66 -142 278 -111 278 41 0 40 -29 112 -136 332 -45 94 -66
126 -136 199 -46 48 -94 108 -108 134 -14 25 -40 56 -59 68 -43 29 -114 31
-155 4z"/>
<path d="M1454 4771 c-28 -5 -63 -16 -77 -26 -29 -19 -67 -89 -67 -125 0 -44
38 -105 79 -128 36 -20 53 -22 207 -22 197 0 276 -14 381 -65 79 -39 98 -41
147 -21 67 28 108 115 87 186 -17 56 -55 97 -123 131 -111 56 -192 71 -398 75
-102 1 -208 -1 -236 -5z"/>
<path d="M4373 4749 c-57 -28 -87 -78 -87 -144 1 -67 53 -222 123 -370 104
-219 146 -265 238 -265 73 0 133 62 133 137 0 14 -26 83 -59 152 -32 69 -82
195 -111 279 -57 165 -75 197 -126 218 -45 19 -62 18 -111 -7z"/>
<path d="M3185 4516 c-17 -7 -64 -51 -105 -97 -95 -107 -214 -226 -358 -358
-62 -57 -120 -116 -127 -132 -19 -37 -19 -122 0 -159 22 -42 68 -63 126 -58
42 4 64 17 185 109 173 131 257 213 366 359 95 127 115 176 99 238 -14 51 -34
76 -75 96 -41 19 -70 20 -111 2z"/>
<path d="M1740 4319 c-118 -47 -128 -220 -17 -288 43 -26 220 -61 342 -68 166
-9 370 37 415 94 53 68 45 157 -20 227 -37 40 -40 41 -102 41 -35 -1 -97 -9
-138 -19 -84 -20 -196 -17 -334 9 -89 17 -111 18 -146 4z"/>
<path d="M3819 4115 c-14 -7 -61 -55 -104 -105 -165 -194 -381 -332 -678 -436
-110 -38 -152 -68 -166 -120 -22 -81 39 -172 122 -181 52 -6 201 34 333 90
178 75 372 214 567 408 140 139 160 186 116 275 -35 74 -123 106 -190 69z"/>
<path d="M2285 3758 c-102 -22 -400 -30 -536 -14 -69 8 -80 7 -115 -13 -56
-32 -88 -82 -88 -139 0 -26 6 -57 12 -69 23 -42 77 -74 144 -83 147 -22 540
-4 695 30 152 35 196 214 71 290 -40 24 -65 24 -183 -2z"/>
<path d="M5083 3739 c-98 -19 -173 -84 -193 -170 -10 -39 -9 -62 6 -131 21
-100 23 -223 5 -298 -34 -144 -186 -391 -341 -553 -53 -56 -105 -118 -116
-137 -27 -51 -25 -152 3 -206 58 -110 191 -156 300 -103 104 50 446 482 552
697 76 154 96 253 88 435 -10 211 -50 371 -103 418 -50 44 -128 62 -201 48z"/>
<path d="M1974 3136 c-75 -33 -115 -145 -81 -228 23 -56 133 -123 246 -149 26
-7 127 -11 230 -10 155 1 191 5 226 20 111 49 120 208 15 278 -31 21 -44 23
-190 23 -167 0 -223 10 -310 56 -50 27 -90 30 -136 10z"/>
<path d="M4400 3109 c-19 -12 -57 -42 -85 -67 -54 -48 -158 -120 -245 -170
-143 -80 -320 -129 -575 -157 -97 -11 -160 -23 -180 -34 -43 -25 -69 -76 -69
-136 0 -69 27 -114 86 -143 l46 -23 208 31 c285 42 384 68 552 146 164 76 354
205 439 297 75 81 78 169 8 237 -30 29 -43 34 -92 37 -47 3 -65 0 -93 -18z"/>
<path d="M1435 2921 c-84 -39 -109 -89 -125 -256 -14 -139 -8 -234 26 -401 62
-316 195 -580 332 -661 102 -60 229 -15 276 99 33 78 19 138 -51 222 -138 167
-204 427 -188 742 6 113 5 136 -10 165 -22 44 -53 77 -87 95 -38 20 -125 17
-173 -5z"/>
<path d="M2135 2344 c-84 -43 -106 -154 -43 -221 12 -13 82 -52 154 -87 73
-35 154 -79 180 -97 35 -24 62 -34 101 -37 64 -5 103 9 143 54 54 62 49 143
-12 203 -65 64 -373 201 -451 201 -23 0 -55 -7 -72 -16z"/>
<path d="M4040 2025 c-455 -164 -541 -185 -938 -230 -195 -22 -205 -24 -240
-52 -54 -44 -76 -88 -76 -148 2 -89 63 -170 145 -190 49 -12 642 78 834 127
148 37 628 213 673 246 48 35 72 79 72 134 0 84 -38 144 -115 179 -67 31 -104
24 -355 -66z"/>
<path d="M4875 1703 c-16 -8 -48 -32 -70 -52 -247 -230 -653 -396 -1090 -447
-106 -12 -155 -40 -186 -109 -39 -85 -12 -193 62 -242 67 -44 106 -43 424 13
472 84 776 221 1003 453 103 105 142 168 142 231 0 101 -80 170 -194 170 -35
-1 -74 -7 -91 -17z"/>
<path d="M2036 1430 c-63 -19 -106 -83 -106 -155 0 -60 16 -88 87 -157 117
-111 242 -174 446 -223 108 -27 257 -42 300 -31 42 10 86 54 98 98 22 84 -34
180 -113 192 -18 3 -68 11 -111 17 -152 21 -288 81 -403 178 -36 31 -74 61
-83 68 -23 17 -81 23 -115 13z"/>
<path d="M2005 906 c-64 -29 -115 -110 -115 -183 0 -52 41 -135 81 -166 103
-78 284 -149 481 -189 97 -20 143 -23 328 -23 200 0 222 2 323 28 131 33 174
54 221 108 78 92 55 223 -48 270 -54 24 -96 24 -203 -3 -118 -30 -338 -32
-463 -4 -123 26 -274 78 -384 130 -104 50 -162 58 -221 32z"/>
</g>
</svg>
