<?xml version="1.0" standalone="no"?>
<!DOCTYPE svg PUBLIC "-//W3C//DTD SVG 20010904//EN"
 "http://www.w3.org/TR/2001/REC-SVG-20010904/DTD/svg10.dtd">
<svg version="1.0" xmlns="http://www.w3.org/2000/svg"
 width="600.000000pt" height="600.000000pt" viewBox="0 0 600.000000 600.000000"
 preserveAspectRatio="xMidYMid meet">
<metadata>
Created by potrace 1.15, written by Peter Selinger 2001-2017
</metadata>
<g transform="translate(0.000000,600.000000) scale(0.100000,-0.100000)"
fill="#16364b" stroke="none">
<path d="M2383 5400 c-12 -5 -25 -19 -27 -32 -3 -13 -7 -120 -9 -238 l-3 -215
-35 -100 c-38 -109 -93 -201 -145 -243 -17 -14 -62 -42 -100 -61 -38 -21 -70
-45 -75 -57 -10 -29 11 -67 43 -78 69 -24 256 119 331 254 90 163 125 343 112
584 -7 138 -9 151 -31 173 -25 25 -29 26 -61 13z"/>
<path d="M3510 5248 c-26 -44 -25 -62 9 -133 71 -151 227 -249 291 -185 44 44
18 130 -75 250 -57 74 -98 100 -159 100 -42 0 -48 -3 -66 -32z"/>
<path d="M3015 5095 c-23 -15 -51 -42 -63 -60 -53 -77 -90 -224 -71 -282 13
-39 53 -73 86 -73 88 0 219 152 239 278 19 122 -92 202 -191 137z m85 -117 c0
-34 -36 -101 -76 -138 l-37 -35 7 48 c7 54 26 97 58 127 28 26 48 26 48 -2z"/>
<path d="M4774 4751 c-40 -25 -51 -58 -58 -192 -12 -197 22 -426 72 -485 60
-71 144 -55 179 34 24 63 24 282 -1 397 -49 230 -104 300 -192 246z"/>
<path d="M2645 4206 c-95 -43 -114 -140 -39 -205 138 -122 441 -144 529 -40
54 65 19 157 -68 177 -23 6 -80 21 -127 35 -158 47 -242 56 -295 33z"/>
<path d="M5345 3980 c-155 -14 -261 -79 -316 -195 -58 -122 -32 -255 70 -354
75 -73 129 -95 231 -96 76 0 92 3 152 33 79 39 130 92 171 180 41 87 44 193 9
262 -33 63 -78 107 -142 139 -70 36 -89 39 -175 31z m34 -310 c11 -6 9 -12 -8
-29 -28 -28 -49 -27 -63 5 -19 41 17 53 71 24z"/>
<path d="M4223 3750 c-180 -37 -297 -217 -248 -385 23 -82 108 -166 190 -190
173 -51 352 65 386 250 14 74 -10 217 -41 250 -52 55 -196 93 -287 75z m57
-268 c0 -15 -32 -52 -45 -52 -23 0 -25 16 -4 38 19 21 49 30 49 14z"/>
<path d="M1225 3720 c-71 -28 -120 -72 -152 -137 -23 -47 -27 -70 -27 -129 2
-157 94 -259 301 -334 123 -44 206 -178 272 -438 31 -120 109 -480 136 -627
48 -259 69 -343 115 -455 59 -143 147 -246 279 -327 42 -26 77 -48 79 -49 2
-1 -2 -20 -7 -42 -16 -58 3 -109 54 -144 64 -45 163 -54 367 -34 92 9 196 16
231 16 58 0 68 -3 96 -29 17 -16 31 -36 31 -43 0 -26 39 -52 77 -52 44 0 83
40 83 86 0 35 -30 89 -66 117 -24 19 -22 19 303 24 330 5 721 27 823 47 93 18
209 60 346 125 151 72 222 118 317 205 155 142 261 311 292 464 21 106 21 296
-1 384 -50 200 -214 402 -403 498 -119 59 -225 74 -355 49 -147 -27 -231 -69
-356 -175 -66 -56 -181 -134 -270 -183 -92 -51 -182 -83 -288 -102 -78 -14
-106 -15 -168 -6 -149 22 -347 111 -549 246 -152 101 -242 188 -402 388 -162
201 -266 308 -401 409 -123 93 -211 142 -377 209 -122 49 -136 52 -230 56 -82
3 -109 0 -150 -17z m308 -295 c246 -105 349 -190 597 -495 167 -205 241 -283
355 -378 295 -247 611 -383 895 -385 70 0 127 5 170 17 235 62 449 162 609
283 149 113 193 139 261 153 154 33 290 -27 385 -171 65 -96 94 -172 101 -261
16 -197 -102 -430 -277 -549 -80 -54 -233 -124 -338 -155 -69 -20 -129 -28
-301 -39 -118 -8 -273 -21 -345 -29 -207 -24 -354 -28 -595 -16 -124 6 -304
12 -400 14 -190 3 -240 11 -334 58 -158 79 -240 241 -286 563 -28 187 -95 555
-125 683 -52 215 -148 419 -246 521 -62 65 -118 102 -212 141 -74 31 -123 72
-111 92 11 18 87 0 197 -47z"/>
<path d="M2321 2417 c-51 -26 -53 -80 -5 -112 34 -22 70 -13 89 25 20 39 19
47 -10 75 -27 28 -40 30 -74 12z"/>
<path d="M2824 2045 c-20 -31 -9 -65 30 -91 33 -21 69 -12 84 21 26 57 1 95
-61 95 -28 0 -40 -6 -53 -25z"/>
<path d="M3435 3328 c-42 -50 -147 -266 -143 -296 2 -16 13 -32 31 -42 24 -13
30 -13 54 0 15 9 49 42 76 75 99 123 136 244 85 279 -36 26 -73 20 -103 -16z"/>
<path d="M454 1995 c-23 -35 -12 -56 69 -125 79 -68 194 -130 242 -130 78 0
101 71 43 128 -42 40 -268 152 -308 152 -20 0 -34 -8 -46 -25z"/>
<path d="M5354 1110 c-49 -20 -90 -167 -64 -230 32 -77 144 -79 190 -5 26 43
37 144 20 186 -20 48 -91 72 -146 49z"/>
</g>
</svg>
