<?xml version="1.0" standalone="no"?>
<!DOCTYPE svg PUBLIC "-//W3C//DTD SVG 20010904//EN"
 "http://www.w3.org/TR/2001/REC-SVG-20010904/DTD/svg10.dtd">
<svg version="1.0" xmlns="http://www.w3.org/2000/svg"
 width="600.000000pt" height="600.000000pt" viewBox="0 0 600.000000 600.000000"
 preserveAspectRatio="xMidYMid meet">
<metadata>
Created by potrace 1.15, written by Peter Selinger 2001-2017
</metadata>
<g transform="translate(0.000000,600.000000) scale(0.100000,-0.100000)"
fill="#16364b" stroke="none">
<path d="M2429 5467 c-44 -30 -68 -67 -108 -168 -39 -96 -51 -203 -31 -263 15
-48 63 -102 109 -125 74 -37 175 -34 381 13 58 13 107 22 108 21 2 -2 -41 -57
-96 -123 -145 -175 -213 -279 -346 -534 -69 -134 -75 -160 -56 -243 10 -46 64
-99 109 -108 15 -3 59 -2 96 4 159 22 414 39 603 39 225 0 254 6 293 62 18 24
21 40 17 89 -3 48 -10 65 -33 89 -16 17 -45 35 -65 41 -22 7 -140 9 -328 7
-160 -2 -292 -1 -292 1 0 9 110 185 165 266 35 50 113 150 174 224 136 164
155 200 149 282 -6 83 -43 133 -131 178 -64 33 -73 35 -165 34 -71 0 -133 -9
-231 -32 -74 -17 -141 -31 -148 -31 -9 0 -3 20 18 61 49 98 37 182 -31 223
-42 24 -120 21 -161 -7z"/>
<path d="M1660 5066 c-77 -23 -164 -63 -235 -108 -127 -80 -279 -231 -332
-330 -39 -71 -25 -149 36 -201 35 -29 43 -31 213 -46 134 -13 268 -48 302 -80
13 -13 34 -55 47 -94 26 -83 58 -120 117 -138 85 -25 191 39 207 125 14 70
-61 247 -136 326 -52 54 -177 122 -252 135 -20 4 -39 11 -42 15 -11 18 116 88
210 115 131 38 179 169 92 253 -60 58 -108 64 -227 28z"/>
<path d="M4087 4784 c-123 -30 -333 -147 -361 -203 -23 -43 -20 -116 5 -160
28 -50 64 -73 118 -79 43 -4 53 0 116 44 81 55 207 114 248 114 25 0 27 -3 27
-43 0 -78 -45 -215 -138 -422 -57 -127 -58 -158 -8 -248 47 -83 85 -112 146
-111 25 0 152 13 283 28 131 15 252 24 268 21 25 -6 29 -11 29 -39 0 -62 -40
-188 -115 -363 -41 -96 -75 -188 -75 -205 0 -106 122 -172 219 -118 46 26 78
81 160 272 78 183 95 253 95 388 0 97 -4 124 -23 175 -34 84 -107 155 -185
179 -61 19 -162 19 -400 -1 -75 -6 -79 -5 -72 13 91 222 121 344 114 473 -7
145 -74 247 -186 285 -56 20 -185 20 -265 0z"/>
<path d="M2035 3975 c-101 -43 -275 -92 -390 -110 -134 -21 -158 -29 -190 -67
-50 -60 -41 -159 21 -219 48 -46 112 -50 279 -15 123 26 313 79 403 113 119
44 145 201 49 292 -38 35 -98 37 -172 6z"/>
<path d="M3745 3701 c-116 -33 -455 -231 -492 -288 -60 -91 12 -223 122 -223
35 0 61 12 157 74 119 77 217 130 224 123 10 -9 -127 -371 -180 -475 -14 -27
-36 -56 -49 -65 -13 -8 -32 -32 -42 -53 -45 -96 29 -204 142 -204 90 0 299 74
448 158 158 89 228 155 261 248 17 49 17 53 0 98 -23 59 -63 88 -131 94 -68 6
-117 -17 -155 -74 -31 -44 -79 -88 -88 -79 -3 2 9 42 26 87 110 295 114 450
12 542 -64 58 -144 69 -255 37z"/>
<path d="M2359 3380 c-148 -27 -289 -66 -319 -88 -54 -40 -76 -132 -45 -191
36 -70 111 -103 188 -82 182 49 282 71 321 71 45 0 46 -1 46 -32 0 -18 -14
-71 -31 -118 -16 -47 -35 -99 -41 -116 -36 -105 89 -230 194 -195 55 18 86 60
133 179 67 170 85 286 61 384 -21 83 -59 134 -126 172 -51 29 -63 31 -165 33
-75 2 -144 -4 -216 -17z"/>
<path d="M1201 3134 c-74 -20 -147 -61 -181 -103 -59 -70 -60 -174 -3 -249 25
-33 89 -72 120 -72 45 -1 46 -4 28 -229 -15 -181 -16 -237 -6 -378 12 -179 32
-279 65 -330 45 -69 148 -107 226 -84 67 20 130 111 130 187 0 15 10 24 38 32
47 14 65 34 131 145 91 152 245 347 275 347 10 0 0 -267 -15 -375 -5 -38 -23
-126 -40 -194 -35 -141 -34 -185 7 -238 52 -68 148 -85 211 -37 46 35 57 60
91 215 40 175 64 388 66 564 1 124 -2 146 -22 196 -70 174 -243 250 -397 175
-81 -40 -208 -170 -331 -341 l-22 -29 5 200 c6 224 -3 309 -44 412 -36 90
-109 164 -183 186 -64 19 -79 19 -149 0z"/>
<path d="M4826 2896 c-109 -41 -164 -134 -150 -254 l6 -57 -38 -14 c-328 -117
-429 -191 -500 -366 -25 -63 -28 -82 -28 -185 0 -88 5 -133 22 -193 28 -98 82
-208 133 -269 l39 -46 -44 -26 c-25 -14 -54 -40 -66 -56 -12 -16 -31 -32 -43
-35 -12 -3 -76 8 -142 25 -292 75 -497 40 -697 -118 -84 -67 -135 -123 -220
-239 -33 -45 -68 -85 -79 -88 -10 -4 -45 -31 -77 -61 -61 -59 -105 -84 -149
-84 -105 0 -264 180 -353 401 -36 89 -76 132 -140 149 -138 37 -273 -111 -230
-253 40 -134 185 -363 310 -488 132 -133 248 -182 430 -181 148 0 246 39 367
144 34 29 76 62 94 73 18 11 60 55 92 98 79 103 214 229 280 261 87 43 131 43
307 1 129 -31 168 -36 231 -33 99 6 171 40 250 119 80 80 103 127 104 211 l0
66 41 7 c80 12 155 64 185 130 23 49 23 76 4 143 -13 42 -30 66 -90 125 -77
77 -95 107 -97 165 -2 47 17 61 144 107 147 53 230 99 298 165 108 104 153
240 131 398 -15 102 -28 136 -71 186 -63 72 -172 102 -254 72z"/>
<path d="M3315 2425 c-44 -7 -174 -35 -290 -63 -115 -28 -247 -58 -292 -67
-127 -27 -183 -85 -183 -190 0 -77 41 -140 113 -170 48 -20 79 -19 200 6 176
36 479 89 507 89 26 0 26 -1 22 -60 -5 -75 8 -108 63 -159 95 -88 253 -69 313
37 50 89 46 263 -7 375 -52 108 -153 189 -253 202 -93 12 -116 12 -193 0z"/>
</g>
</svg>
