<?xml version="1.0" standalone="no"?>
<!DOCTYPE svg PUBLIC "-//W3C//DTD SVG 20010904//EN"
 "http://www.w3.org/TR/2001/REC-SVG-20010904/DTD/svg10.dtd">
<svg version="1.0" xmlns="http://www.w3.org/2000/svg"
 width="600.000000pt" height="600.000000pt" viewBox="0 0 600.000000 600.000000"
 preserveAspectRatio="xMidYMid meet">
<metadata>
Created by potrace 1.15, written by Peter Selinger 2001-2017
</metadata>
<g transform="translate(0.000000,600.000000) scale(0.100000,-0.100000)"
fill="#16364b" stroke="none">
<path d="M2382 5460 c-32 -23 -51 -50 -86 -122 -52 -109 -66 -156 -66 -219 0
-89 41 -163 113 -202 37 -19 55 -22 157 -21 92 2 139 8 235 32 66 17 121 29
122 28 2 -1 -68 -97 -155 -212 -331 -439 -410 -649 -289 -763 37 -34 88 -36
284 -12 189 23 442 28 602 11 86 -9 98 -8 136 10 105 51 113 206 14 265 -32
19 -52 20 -361 20 -181 0 -328 4 -328 8 0 12 73 118 185 267 153 204 251 341
269 377 52 102 41 189 -33 263 -59 59 -118 80 -220 80 -75 -1 -113 -7 -304
-50 -54 -12 -100 -20 -103 -18 -2 3 7 29 21 59 29 63 31 100 7 149 -39 80
-128 102 -200 50z"/>
<path d="M1696 5054 c-207 -50 -597 -343 -626 -471 -12 -50 3 -104 41 -148 39
-44 69 -52 209 -58 133 -6 243 -28 309 -60 35 -18 53 -36 76 -77 71 -128 147
-165 241 -120 50 25 80 64 90 120 10 52 -43 148 -132 238 -59 59 -90 81 -166
116 -51 25 -105 48 -120 51 -16 4 -28 11 -28 15 0 23 162 90 218 90 63 0 142
83 142 149 0 60 -38 122 -90 149 -50 25 -80 26 -164 6z"/>
<path d="M4131 4838 c-35 -5 -91 -18 -125 -29 -118 -40 -270 -140 -301 -199
-47 -91 27 -210 130 -210 33 0 55 9 95 36 89 61 210 114 262 114 25 0 30 -31
17 -107 -14 -82 -86 -320 -128 -422 -41 -98 -41 -152 -1 -232 33 -64 76 -99
122 -99 15 0 68 11 119 25 151 40 258 58 362 59 113 1 120 -4 111 -74 -11 -80
-55 -271 -96 -409 -42 -144 -42 -172 -6 -224 31 -43 73 -60 136 -55 78 7 101
36 146 180 120 388 149 567 109 683 -22 67 -92 135 -169 166 -54 21 -74 24
-219 23 -108 0 -182 -5 -227 -15 -38 -9 -68 -13 -68 -11 0 3 20 62 44 131 55
159 70 242 64 362 -5 111 -30 177 -86 232 -69 68 -167 93 -291 75z"/>
<path d="M1939 3934 c-93 -32 -211 -64 -292 -79 -75 -13 -145 -30 -155 -36
-82 -51 -86 -185 -8 -258 34 -32 100 -37 222 -17 274 46 519 138 565 213 27
43 23 135 -6 175 -55 74 -115 74 -326 2z"/>
<path d="M3774 3696 c-81 -19 -174 -56 -315 -126 -223 -111 -269 -152 -269
-241 0 -82 66 -152 143 -152 36 0 63 11 153 65 159 95 244 141 250 135 14 -14
-183 -454 -254 -567 -44 -70 -20 -155 58 -208 32 -22 43 -23 115 -19 238 14
579 196 695 370 46 68 51 113 20 164 -28 47 -73 67 -150 68 -73 0 -114 -19
-146 -66 -18 -28 -143 -123 -151 -115 -2 2 3 21 12 42 46 109 95 250 110 319
54 240 -60 378 -271 331z"/>
<path d="M2383 3395 c-89 -16 -275 -71 -325 -96 -58 -29 -83 -73 -83 -146 0
-52 4 -66 25 -88 33 -35 72 -55 109 -55 16 0 85 14 153 31 132 33 271 48 281
32 9 -14 -16 -108 -48 -183 -31 -73 -31 -103 -2 -155 45 -82 154 -107 233 -54
72 49 138 231 138 384 1 77 -3 98 -26 146 -47 101 -127 163 -246 188 -66 14
-117 13 -209 -4z"/>
<path d="M1166 3091 c-60 -21 -124 -74 -142 -117 -20 -48 -18 -128 5 -172 25
-49 49 -69 107 -92 l49 -18 -4 -264 c-3 -268 6 -409 36 -543 26 -117 61 -169
135 -200 130 -54 248 36 248 190 0 54 1 55 29 55 52 0 92 39 146 140 66 124
106 182 178 254 42 43 61 56 69 48 18 -18 -9 -354 -39 -481 -38 -159 -40 -218
-11 -261 67 -99 215 -85 267 25 49 102 123 524 123 697 0 129 -54 241 -146
305 -182 125 -416 20 -614 -276 l-44 -66 6 211 c8 239 0 318 -43 410 -68 146
-207 207 -355 155z"/>
<path d="M4880 2941 c-115 -35 -179 -127 -180 -258 0 -65 -2 -72 -22 -79 -143
-44 -349 -162 -411 -235 -87 -101 -130 -230 -131 -384 0 -157 45 -275 155
-406 23 -28 40 -51 38 -53 -2 -2 -19 -11 -38 -21 -18 -9 -51 -34 -73 -56 -22
-21 -49 -39 -61 -39 -12 0 -76 9 -142 20 -238 39 -331 37 -462 -12 -125 -46
-278 -176 -399 -338 -32 -44 -68 -82 -78 -86 -11 -3 -50 -35 -88 -71 -105 -99
-169 -115 -264 -68 -113 56 -188 148 -284 348 -54 114 -65 129 -104 152 -104
61 -236 9 -282 -112 -24 -63 -14 -117 44 -235 74 -150 124 -221 231 -329 82
-82 110 -103 191 -143 192 -95 391 -100 565 -16 44 21 105 61 135 88 30 27 64
52 75 56 33 11 57 36 137 141 137 182 227 253 336 262 34 3 107 -3 182 -16
195 -33 292 -27 410 26 65 29 147 97 181 151 27 42 30 54 26 107 -2 33 -8 70
-12 83 -6 19 -4 22 21 22 29 0 96 28 125 52 9 7 28 31 43 52 20 31 26 51 26
95 -1 73 -26 128 -93 199 -68 72 -77 89 -77 151 0 49 1 51 43 75 23 13 87 43
142 66 183 77 300 173 355 293 67 144 60 345 -17 445 -48 64 -161 98 -243 73z"/>
<path d="M3290 2384 c-180 -26 -558 -112 -607 -138 -64 -33 -113 -112 -113
-181 0 -83 54 -146 142 -165 57 -13 99 -7 504 75 93 19 182 35 197 35 26 0 27
-2 27 -51 0 -62 21 -109 66 -149 107 -93 246 -38 294 117 59 191 19 338 -115
416 -93 55 -214 67 -395 41z"/>
</g>
</svg>
