<?xml version="1.0" standalone="no"?>
<!DOCTYPE svg PUBLIC "-//W3C//DTD SVG 20010904//EN"
 "http://www.w3.org/TR/2001/REC-SVG-20010904/DTD/svg10.dtd">
<svg version="1.0" xmlns="http://www.w3.org/2000/svg"
 width="600.000000pt" height="600.000000pt" viewBox="0 0 600.000000 600.000000"
 preserveAspectRatio="xMidYMid meet">
<metadata>
Created by potrace 1.15, written by Peter Selinger 2001-2017
</metadata>
<g transform="translate(0.000000,600.000000) scale(0.100000,-0.100000)"
fill="#16364b" stroke="none">
<path d="M2640 5518 c-71 -48 -150 -238 -150 -360 0 -118 53 -192 158 -222 67
-19 122 -20 247 -6 50 6 107 12 128 14 20 2 37 1 37 -3 0 -3 -42 -43 -93 -87
-101 -88 -199 -205 -352 -419 -93 -129 -99 -141 -103 -195 -8 -105 57 -192
153 -205 22 -2 148 -10 279 -15 132 -6 287 -18 345 -26 192 -27 224 -28 260
-10 95 50 92 191 -5 248 -55 32 -301 74 -494 85 -65 3 -124 9 -131 14 -20 12
129 175 287 314 151 133 216 202 238 256 53 128 11 249 -109 312 -69 36 -240
33 -492 -9 -21 -3 -33 -1 -33 6 0 6 19 43 41 81 37 61 41 75 36 115 -12 108
-156 173 -247 112z"/>
<path d="M1595 5179 c-198 -81 -550 -434 -612 -614 -13 -38 -13 -54 -4 -86 16
-54 54 -95 107 -115 39 -15 56 -16 142 -6 152 18 286 25 327 18 43 -8 43 0 5
-179 -19 -94 -21 -114 -10 -153 14 -48 63 -99 105 -110 14 -3 23 -10 20 -14
-3 -4 -54 -20 -115 -35 -123 -31 -153 -51 -171 -118 -13 -49 -1 -103 33 -152
33 -49 79 -69 144 -62 93 10 488 151 567 203 100 65 97 217 -3 269 -47 24
-101 18 -209 -25 -55 -22 -105 -40 -111 -40 -6 0 0 15 14 33 13 17 27 43 30
57 64 291 67 321 41 407 -20 66 -89 144 -159 178 -55 27 -188 48 -241 38 -14
-3 -25 -1 -25 4 0 14 127 134 181 171 25 17 58 34 73 38 73 18 127 116 106
193 -29 108 -120 146 -235 100z"/>
<path d="M4235 4667 c-76 -25 -215 -93 -280 -136 -103 -69 -114 -179 -26 -254
17 -14 49 -28 71 -32 37 -6 54 -1 153 48 111 54 222 95 232 86 9 -9 -34 -145
-76 -241 -22 -51 -74 -152 -115 -224 -62 -109 -74 -138 -74 -175 1 -49 10 -68
60 -126 60 -69 64 -70 365 -76 149 -3 280 -9 293 -13 14 -4 22 -14 22 -28 0
-32 -57 -167 -149 -356 -44 -91 -84 -179 -87 -196 -9 -49 25 -116 69 -137 44
-21 80 -21 123 -1 46 22 54 34 186 294 96 187 119 241 138 322 28 122 22 183
-23 259 -40 67 -119 123 -205 144 -48 13 -103 16 -237 13 -96 -2 -175 -2 -175
-1 0 2 27 58 59 126 152 315 166 498 49 632 -60 69 -105 88 -213 92 -74 3
-103 -1 -160 -20z"/>
<path d="M3794 3680 c-115 -17 -204 -62 -299 -154 -72 -70 -92 -116 -75 -178
19 -68 110 -118 178 -98 18 5 56 30 85 56 51 46 132 93 142 83 10 -11 -34
-156 -84 -278 -28 -68 -52 -125 -53 -126 -2 -1 -19 -10 -38 -20 -71 -36 -147
-97 -168 -134 -60 -106 10 -235 127 -235 40 0 60 7 104 36 71 48 130 77 257
127 191 75 247 119 270 212 22 88 -30 186 -112 211 -34 10 -39 14 -33 35 3 13
10 57 15 97 31 243 -102 397 -316 366z"/>
<path d="M2562 3499 c-128 -15 -379 -96 -477 -153 -98 -58 -100 -206 -4 -258
56 -30 106 -23 241 33 128 52 252 89 300 89 25 0 28 -3 28 -36 0 -49 -42 -169
-95 -274 -68 -131 -60 -209 28 -274 40 -29 134 -29 174 0 36 26 114 180 153
300 57 179 60 328 9 424 -63 118 -185 169 -357 149z"/>
<path d="M1183 3209 c-119 -20 -242 -87 -275 -149 -22 -43 -24 -127 -3 -178
32 -76 102 -122 185 -122 27 0 50 -3 50 -7 0 -5 -7 -48 -15 -98 -54 -337 -58
-651 -10 -820 27 -95 126 -158 220 -141 61 12 149 104 209 218 114 218 179
323 281 453 80 102 112 132 126 118 16 -16 30 -178 23 -273 -11 -170 -38 -332
-86 -518 -23 -92 -18 -134 24 -187 24 -31 91 -65 128 -65 48 0 108 36 128 77
44 86 102 401 123 664 22 269 -25 501 -121 597 -29 30 -123 72 -158 72 -43 0
-138 -33 -190 -66 -68 -43 -208 -183 -276 -276 -27 -37 -52 -66 -54 -64 -2 3
6 80 18 173 36 274 19 412 -65 510 -60 70 -156 100 -262 82z"/>
<path d="M4825 2670 c-104 -23 -175 -123 -175 -246 0 -48 7 -45 -120 -69 -214
-41 -336 -91 -425 -176 -165 -156 -187 -430 -57 -722 l25 -58 -25 -25 -25 -25
-129 66 c-193 99 -307 122 -443 90 -193 -46 -327 -171 -505 -473 -52 -89 -86
-136 -102 -142 -13 -5 -47 -25 -75 -45 -28 -19 -55 -35 -59 -35 -17 0 -91 92
-118 147 -49 97 -102 289 -102 370 -1 115 -141 215 -258 184 -54 -15 -107 -62
-123 -108 -52 -157 119 -637 294 -829 73 -79 188 -141 282 -150 110 -11 255
43 354 132 25 22 64 50 87 62 52 26 50 24 127 175 134 261 253 381 349 352 12
-4 59 -29 103 -55 116 -69 154 -87 222 -104 156 -41 280 -4 386 114 33 37 49
64 54 92 5 34 13 44 55 70 70 44 108 112 108 198 0 59 -5 75 -51 167 -41 81
-52 114 -56 166 l-6 65 34 11 c19 6 93 22 164 35 215 40 325 98 403 216 65 97
85 159 86 275 1 84 -3 106 -21 140 -53 101 -160 157 -258 135z"/>
<path d="M3210 2545 c-8 -2 -55 -9 -104 -15 -114 -16 -485 -112 -528 -137 -18
-10 -43 -38 -56 -61 -56 -100 -10 -222 104 -278 69 -34 83 -32 324 39 204 61
300 78 300 56 0 -8 -12 -50 -26 -94 -37 -116 -21 -191 53 -248 99 -75 231 -49
281 55 37 76 74 220 79 309 11 176 -64 304 -209 353 -45 15 -186 29 -218 21z"/>
</g>
</svg>
