<?xml version="1.0" standalone="no"?>
<!DOCTYPE svg PUBLIC "-//W3C//DTD SVG 20010904//EN"
 "http://www.w3.org/TR/2001/REC-SVG-20010904/DTD/svg10.dtd">
<svg version="1.0" xmlns="http://www.w3.org/2000/svg"
 width="600.000000pt" height="600.000000pt" viewBox="0 0 600.000000 600.000000"
 preserveAspectRatio="xMidYMid meet">
<metadata>
Created by potrace 1.15, written by Peter Selinger 2001-2017
</metadata>
<g transform="translate(0.000000,600.000000) scale(0.100000,-0.100000)"
fill="#16364b" stroke="none">
<path d="M2369 5457 c-38 -25 -87 -109 -121 -207 -30 -89 -31 -200 -1 -255 66
-125 176 -145 472 -86 85 17 156 29 159 26 5 -4 -27 -42 -139 -166 -154 -170
-258 -337 -343 -548 -53 -131 -17 -259 80 -291 27 -9 55 -7 141 9 248 48 303
54 548 55 236 1 241 1 274 25 57 41 78 129 46 191 -29 55 -72 78 -171 90 -145
16 -251 11 -518 -26 l-48 -7 12 24 c7 13 40 65 73 114 56 84 98 138 278 355
81 98 117 166 125 236 12 102 -40 191 -138 235 -80 36 -221 33 -389 -9 -169
-43 -165 -43 -134 18 46 90 27 188 -44 225 -45 23 -121 20 -162 -8z"/>
<path d="M1671 5049 c-81 -23 -200 -92 -311 -178 -91 -70 -235 -208 -264 -254
-26 -39 -24 -116 4 -162 32 -52 79 -71 200 -84 283 -28 395 -73 450 -181 51
-100 162 -129 241 -63 38 33 59 73 59 116 0 49 -54 149 -117 217 -74 80 -143
121 -307 179 -28 10 107 78 187 95 80 17 103 31 127 82 25 50 25 97 1 149 -46
100 -129 126 -270 84z"/>
<path d="M4050 4825 c-126 -35 -313 -154 -345 -220 -34 -74 0 -172 71 -201 67
-28 94 -21 221 57 67 41 162 79 198 79 34 0 41 -35 27 -126 -15 -96 -42 -172
-118 -335 -37 -78 -64 -149 -64 -167 0 -39 48 -138 83 -170 33 -31 82 -37 163
-19 127 29 332 57 417 57 77 0 85 -2 90 -20 14 -52 -26 -222 -103 -439 -27
-78 -50 -159 -50 -179 0 -78 69 -142 151 -142 63 0 107 31 141 100 35 71 123
359 144 470 20 106 20 240 0 303 -30 98 -105 170 -206 198 -59 16 -251 16
-363 0 -48 -7 -90 -11 -93 -8 -3 3 10 45 30 94 54 136 68 210 64 338 -3 87 -9
120 -26 160 -29 64 -108 138 -170 160 -67 24 -194 28 -262 10z"/>
<path d="M2125 3970 c-16 -5 -82 -27 -146 -49 -133 -46 -261 -76 -366 -87 -86
-8 -125 -29 -153 -83 -50 -98 7 -224 107 -238 76 -10 434 69 626 139 71 26
113 71 122 131 11 73 -42 167 -104 182 -14 3 -33 7 -41 9 -8 2 -28 0 -45 -4z"/>
<path d="M3745 3701 c-68 -19 -151 -63 -375 -197 -146 -86 -159 -96 -175 -136
-39 -98 37 -208 144 -208 33 0 137 53 289 146 56 35 107 64 112 64 25 0 -92
-263 -210 -475 -75 -133 -83 -157 -70 -206 13 -47 77 -106 125 -115 75 -14
256 26 391 86 165 74 343 220 385 316 54 120 -54 248 -180 215 -37 -9 -59 -25
-111 -80 -66 -70 -137 -128 -145 -119 -3 3 13 47 34 99 83 197 118 381 92 477
-7 23 -26 59 -44 79 -62 71 -145 88 -262 54z"/>
<path d="M2436 3369 c-87 -9 -262 -43 -336 -65 -62 -18 -115 -75 -125 -134 -9
-55 25 -124 75 -152 43 -24 97 -21 263 16 64 14 142 26 172 26 51 0 55 -2 55
-23 0 -29 -30 -118 -59 -175 -39 -76 -20 -166 42 -207 43 -28 116 -30 167 -3
39 20 50 34 87 108 47 94 83 229 83 312 0 165 -94 274 -256 298 -38 5 -73 9
-79 8 -5 0 -45 -4 -89 -9z"/>
<path d="M1156 3070 c-89 -35 -136 -98 -136 -182 0 -86 66 -168 148 -184 l32
-6 0 -79 c0 -43 -7 -174 -16 -291 -22 -294 -7 -463 52 -565 101 -176 409 -85
377 112 -5 33 -4 34 33 41 69 12 100 39 161 142 70 120 122 193 181 254 55 57
62 52 62 -52 0 -151 -19 -293 -55 -415 -41 -139 -42 -153 -15 -204 52 -102
206 -110 261 -14 20 34 63 172 85 274 20 93 30 402 16 479 -26 140 -89 237
-186 288 -71 37 -169 38 -241 2 -65 -31 -170 -138 -265 -267 -41 -56 -76 -101
-78 -99 -2 2 2 74 8 160 11 169 2 332 -25 424 -20 66 -68 129 -130 167 -43 26
-59 30 -134 33 -67 1 -97 -2 -135 -18z"/>
<path d="M4845 2926 c-94 -43 -137 -114 -139 -229 l-1 -79 -135 -62 c-323
-147 -432 -284 -431 -541 0 -178 55 -334 157 -444 l55 -60 -35 -15 c-19 -8
-55 -33 -79 -55 -54 -50 -67 -51 -220 -15 -89 21 -138 26 -242 26 -151 1 -222
-14 -335 -69 -91 -44 -207 -156 -290 -280 -30 -45 -66 -88 -80 -96 -14 -8 -52
-41 -85 -72 -73 -69 -121 -95 -175 -95 -104 0 -206 102 -345 345 -67 117 -78
131 -127 156 -79 40 -168 33 -229 -18 -68 -58 -77 -141 -26 -248 86 -178 220
-360 344 -467 161 -139 326 -192 495 -157 75 15 222 89 292 146 32 26 73 57
92 69 55 33 82 64 135 150 160 260 246 301 504 235 66 -17 152 -33 190 -37
129 -12 269 42 367 142 84 86 107 160 73 241 -8 20 -14 37 -13 37 2 1 29 10
61 21 136 44 195 185 131 313 -14 29 -45 68 -69 88 -68 55 -97 156 -57 202 9
12 82 53 161 92 79 39 167 89 196 111 63 48 126 125 154 192 45 104 52 277 16
365 -49 117 -188 165 -310 108z"/>
<path d="M3293 2374 c-123 -19 -557 -129 -611 -156 -26 -12 -54 -37 -70 -61
-23 -35 -27 -51 -27 -113 0 -66 3 -76 31 -110 78 -97 120 -102 349 -40 176 47
322 79 413 90 l52 7 0 -45 c0 -28 10 -62 28 -97 74 -141 284 -144 360 -5 14
25 17 57 17 166 0 117 -3 141 -22 182 -77 166 -244 225 -520 182z"/>
</g>
</svg>
