<?xml version="1.0" standalone="no"?>
<!DOCTYPE svg PUBLIC "-//W3C//DTD SVG 20010904//EN"
 "http://www.w3.org/TR/2001/REC-SVG-20010904/DTD/svg10.dtd">
<svg version="1.0" xmlns="http://www.w3.org/2000/svg"
 width="600.000000pt" height="600.000000pt" viewBox="0 0 600.000000 600.000000"
 preserveAspectRatio="xMidYMid meet">
<metadata>
Created by potrace 1.15, written by Peter Selinger 2001-2017
</metadata>
<g transform="translate(0.000000,600.000000) scale(0.100000,-0.100000)"
fill="#16364b" stroke="none">
<path d="M2115 5445 c-74 -26 -110 -86 -122 -206 -16 -158 73 -239 285 -261
75 -7 112 -15 112 -23 0 -7 -7 -32 -15 -56 -53 -148 -92 -388 -74 -448 28 -93
135 -140 212 -92 52 32 66 60 87 179 11 59 38 161 61 227 36 104 42 132 43
210 1 81 -2 95 -26 137 -59 99 -143 145 -284 155 l-81 6 0 42 c0 58 -33 109
-83 129 -49 19 -63 19 -115 1z"/>
<path d="M3335 5431 c-44 -27 -62 -51 -74 -98 -25 -92 28 -172 118 -181 75 -7
96 -34 94 -120 -1 -37 -12 -103 -24 -147 -41 -142 -29 -198 51 -252 43 -30
110 -31 155 -3 41 25 68 86 107 240 26 100 29 129 26 220 -5 115 -18 154 -74
225 -83 105 -293 169 -379 116z"/>
<path d="M1615 4800 c-139 -30 -262 -66 -296 -87 -49 -28 -72 -66 -77 -126 -5
-65 14 -109 61 -137 40 -25 84 -25 172 -1 185 51 338 67 434 46 58 -14 82 -15
110 -6 103 31 141 149 78 242 -16 24 -41 41 -82 58 -84 34 -270 39 -400 11z"/>
<path d="M4272 4490 c-62 -38 -91 -125 -61 -183 27 -53 61 -76 147 -98 99 -26
140 -51 165 -99 17 -31 18 -53 13 -197 -4 -155 -4 -164 17 -194 35 -52 69 -71
124 -72 59 -1 109 25 135 69 33 56 49 329 27 436 -25 118 -97 223 -192 277
-69 39 -216 81 -286 81 -38 0 -66 -6 -89 -20z"/>
<path d="M3220 4442 c-19 -11 -106 -62 -193 -116 -186 -113 -391 -232 -464
-270 -82 -41 -112 -109 -79 -177 37 -78 131 -106 228 -69 160 60 597 307 675
383 126 120 -15 330 -167 249z"/>
<path d="M1532 4414 c-63 -31 -92 -74 -92 -136 0 -56 31 -106 80 -130 21 -10
139 -31 300 -53 146 -19 292 -39 324 -44 101 -14 154 8 187 77 35 70 5 153
-69 191 -39 20 -262 64 -507 101 -170 25 -161 25 -223 -6z"/>
<path d="M2135 3823 c-122 -33 -143 -36 -330 -42 -124 -4 -208 -11 -221 -18
-12 -7 -35 -28 -53 -48 -26 -30 -31 -44 -31 -89 0 -66 28 -112 85 -141 36 -18
59 -20 225 -20 152 1 203 5 287 23 130 28 271 78 301 105 76 70 67 176 -19
240 -43 31 -101 29 -244 -10z"/>
<path d="M3690 3807 c-30 -13 -100 -47 -155 -76 -168 -90 -376 -195 -452 -228
-54 -23 -77 -39 -92 -64 -50 -82 0 -188 98 -210 33 -7 54 -5 104 12 78 26 272
119 401 192 l99 56 28 -24 c86 -71 197 -19 235 111 55 190 -81 307 -266 231z"/>
<path d="M4997 3486 c-67 -25 -111 -61 -141 -115 -24 -46 -28 -62 -25 -119 9
-204 6 -233 -28 -294 -18 -31 -68 -106 -111 -167 -93 -129 -162 -246 -236
-403 -92 -192 -105 -272 -62 -363 52 -114 207 -168 328 -116 56 24 114 88 128
143 45 164 108 291 235 468 127 177 187 301 221 460 30 140 9 339 -44 415 -58
83 -177 124 -265 91z"/>
<path d="M2020 3188 c-126 -36 -160 -169 -67 -256 33 -31 104 -48 281 -67 82
-8 150 -16 151 -18 1 -1 12 -20 24 -42 60 -110 208 -122 269 -23 48 78 17 228
-61 294 -75 63 -151 83 -397 104 -69 5 -134 12 -145 14 -11 3 -36 0 -55 -6z"/>
<path d="M4338 3146 c-21 -7 -63 -37 -94 -65 -166 -152 -458 -278 -722 -312
-63 -8 -103 -19 -125 -33 -99 -67 -93 -210 13 -264 40 -20 54 -22 125 -17 228
18 381 61 580 164 331 172 469 301 436 410 -29 97 -125 150 -213 117z"/>
<path d="M1337 2985 c-50 -17 -85 -50 -108 -100 -23 -49 -24 -94 -4 -160 15
-48 48 -279 60 -420 20 -229 86 -437 186 -589 51 -78 94 -108 164 -114 72 -6
116 11 163 62 60 65 69 159 21 220 -70 89 -112 240 -134 477 -24 267 -65 467
-112 547 -44 76 -147 109 -236 77z"/>
<path d="M2116 2414 c-88 -28 -196 -106 -226 -165 -42 -82 -16 -185 55 -215
55 -23 94 -17 179 26 104 53 128 52 177 -4 47 -53 103 -72 164 -55 117 33 160
140 96 240 -97 150 -283 222 -445 173z"/>
<path d="M3955 2104 c-149 -16 -485 -70 -615 -99 -85 -19 -222 -44 -305 -55
-195 -27 -219 -34 -264 -79 -88 -88 -72 -225 36 -292 31 -19 51 -24 103 -23
71 1 373 54 655 114 254 53 339 64 466 56 125 -8 157 1 206 57 79 90 44 239
-68 295 -47 23 -136 34 -214 26z"/>
<path d="M2200 1817 c-58 -38 -74 -78 -73 -176 3 -161 64 -292 198 -426 98
-98 137 -119 212 -113 46 4 60 10 90 40 29 29 37 45 41 87 2 27 1 62 -2 77 -4
15 -44 66 -90 113 -102 106 -125 149 -136 252 -4 44 -15 90 -24 104 -43 66
-151 87 -216 42z"/>
<path d="M4695 1638 c-11 -6 -52 -41 -91 -77 -120 -112 -184 -137 -489 -190
-244 -43 -361 -87 -582 -216 -104 -62 -140 -98 -158 -160 -38 -125 39 -245
157 -245 41 0 69 11 171 64 136 72 247 112 417 151 413 94 510 133 671 270
163 138 202 238 135 338 -37 55 -81 77 -150 77 -34 0 -70 -6 -81 -12z"/>
<path d="M2077 1050 c-129 -39 -168 -200 -75 -310 23 -26 161 -135 233 -184
146 -98 263 -138 460 -157 257 -25 554 46 639 153 49 63 49 179 -1 238 -59 70
-138 81 -249 32 -107 -47 -151 -56 -264 -55 -85 0 -120 5 -186 26 -92 31 -215
101 -315 182 -101 82 -159 100 -242 75z"/>
</g>
</svg>
