<?xml version="1.0" standalone="no"?>
<!DOCTYPE svg PUBLIC "-//W3C//DTD SVG 20010904//EN"
 "http://www.w3.org/TR/2001/REC-SVG-20010904/DTD/svg10.dtd">
<svg version="1.0" xmlns="http://www.w3.org/2000/svg"
 width="600.000000pt" height="600.000000pt" viewBox="0 0 600.000000 600.000000"
 preserveAspectRatio="xMidYMid meet">
<metadata>
Created by potrace 1.15, written by Peter Selinger 2001-2017
</metadata>
<g transform="translate(0.000000,600.000000) scale(0.100000,-0.100000)"
fill="#16364b" stroke="none">
<path d="M2034 5820 c-24 -12 -55 -40 -74 -68 -19 -26 -75 -96 -125 -157 -180
-217 -288 -375 -321 -469 -42 -118 11 -238 118 -266 70 -19 136 2 368 116 473
232 520 266 520 369 0 127 -129 188 -244 115 -62 -40 -176 -104 -199 -113 -10
-4 10 28 45 70 132 159 157 220 129 305 -14 42 -65 92 -110 107 -47 15 -60 14
-107 -9z"/>
<path d="M3044 5681 c-79 -36 -115 -154 -68 -219 22 -29 26 -31 217 -122 111
-53 137 -70 202 -133 80 -79 103 -120 128 -233 12 -53 14 -79 6 -107 -14 -52
-77 -101 -169 -132 -42 -14 -87 -36 -98 -48 -64 -68 -54 -184 21 -234 44 -31
108 -30 198 2 262 91 381 257 365 505 -12 189 -63 306 -191 435 -118 120 -279
216 -468 279 -92 31 -91 31 -143 7z"/>
<path d="M995 5383 c-52 -11 -145 -49 -190 -78 -241 -154 -290 -440 -116 -676
54 -73 153 -153 211 -170 113 -34 221 75 190 193 -12 42 -35 70 -104 122 -49
37 -91 123 -82 170 15 77 88 137 186 152 33 5 55 17 83 44 32 33 37 44 37 84
0 113 -97 185 -215 159z"/>
<path d="M2776 4993 c-69 -23 -148 -99 -188 -180 -83 -169 -23 -340 150 -425
60 -30 76 -33 172 -36 91 -3 109 0 137 17 88 55 88 198 0 251 -24 15 -50 20
-109 20 -47 0 -80 4 -84 11 -5 9 4 10 30 5 108 -20 205 95 175 207 -15 57 -74
112 -141 132 -63 18 -80 18 -142 -2z"/>
<path d="M4731 4881 c-50 -50 -56 -82 -42 -213 31 -270 98 -414 226 -481 53
-28 154 -29 210 -2 95 46 176 163 183 265 11 152 -106 292 -349 420 -127 66
-171 68 -228 11z"/>
<path d="M1918 4620 c-60 -15 -153 -66 -196 -107 -48 -46 -66 -101 -51 -156
32 -118 158 -152 272 -73 29 20 62 36 73 36 22 0 54 -28 54 -47 0 -17 67 -72
96 -79 81 -21 164 23 184 97 26 94 -70 238 -203 306 -58 29 -162 40 -229 23z"/>
<path d="M2979 3931 c-75 -24 -141 -71 -195 -139 -58 -74 -85 -147 -91 -247
-8 -129 37 -238 140 -332 116 -107 223 -109 277 -4 38 75 24 133 -50 203 -47
43 -50 49 -50 95 0 31 8 61 23 86 21 37 24 39 79 41 195 9 230 246 44 301 -64
19 -108 18 -177 -4z"/>
<path d="M1210 3901 c-81 -12 -254 -61 -289 -82 -114 -69 -116 -253 -4 -329
31 -21 48 -25 104 -24 38 0 66 -2 65 -5 -2 -3 -35 -58 -73 -121 -178 -296
-322 -574 -377 -728 -52 -147 -24 -240 86 -287 79 -33 148 -13 254 71 34 27
128 98 210 158 121 90 251 195 320 261 67 63 199 182 210 188 19 11 18 -15 -2
-134 -38 -224 -228 -699 -385 -965 -49 -84 -59 -108 -59 -147 0 -40 5 -53 36
-87 57 -63 142 -74 211 -25 68 48 356 656 432 912 68 229 111 585 82 689 -17
62 -51 106 -101 132 -117 59 -292 -2 -497 -171 l-94 -78 27 53 c15 29 59 103
97 163 90 139 119 211 120 290 1 185 -156 296 -373 266z"/>
<path d="M4235 3790 c-160 -26 -257 -87 -307 -195 -34 -73 -33 -210 1 -279 31
-63 84 -116 147 -147 41 -20 64 -24 139 -24 82 0 97 3 156 32 79 39 155 116
197 199 51 102 95 241 89 285 -7 50 -42 98 -86 116 -44 19 -249 26 -336 13z
m45 -305 c0 -6 -62 -45 -72 -45 -15 0 -8 29 10 39 18 11 62 15 62 6z"/>
<path d="M3455 3377 c-66 -32 -126 -95 -169 -176 -36 -70 -66 -168 -66 -220 0
-44 27 -93 66 -120 29 -20 45 -23 117 -22 151 2 245 49 302 152 28 50 30 61
30 159 0 96 -2 109 -28 155 -39 69 -69 89 -142 93 -47 2 -70 -2 -110 -21z"/>
<path d="M4885 2923 c-56 -42 -161 -156 -206 -226 -99 -153 -106 -288 -20
-380 47 -52 98 -72 181 -72 67 0 82 4 138 34 35 19 76 51 92 71 67 85 110 211
110 325 0 95 -15 131 -85 203 -59 62 -65 65 -116 69 -48 4 -59 1 -94 -24z"/>
<path d="M4053 2526 c-88 -28 -149 -101 -159 -192 -5 -40 1 -72 35 -175 23
-69 41 -128 41 -131 0 -3 -35 8 -77 25 -101 39 -212 48 -280 22 -57 -22 -118
-76 -145 -129 -30 -57 -35 -178 -13 -287 24 -121 124 -498 140 -529 8 -15 31
-42 53 -62 134 -121 345 -43 384 142 10 51 9 64 -20 166 -18 61 -32 115 -32
119 0 5 15 -5 33 -22 74 -73 183 -91 299 -52 134 45 201 127 222 270 11 75 -8
156 -106 453 -83 254 -96 285 -131 323 -60 66 -152 87 -244 59z"/>
<path d="M2955 2186 c-85 -20 -181 -62 -390 -171 -101 -52 -189 -95 -197 -95
-9 0 -20 17 -26 39 -19 61 -83 126 -150 151 -131 50 -254 -15 -371 -194 -70
-107 -75 -173 -21 -261 25 -41 92 -75 147 -75 35 0 41 -3 45 -25 4 -21 -3 -29
-59 -61 -226 -133 -326 -364 -263 -610 42 -166 151 -336 280 -441 170 -137
437 -225 630 -209 184 16 395 112 520 237 65 66 76 133 34 217 -38 76 -98 115
-185 120 -79 5 -98 -4 -189 -82 -93 -82 -157 -110 -244 -110 -235 -1 -468 201
-470 405 -1 72 15 115 48 125 15 5 25 0 41 -22 11 -16 51 -61 89 -101 79 -83
130 -109 199 -101 111 13 205 142 182 249 -4 18 -28 53 -56 81 -64 64 -82 92
-108 161 -30 83 -28 94 19 107 22 6 96 47 163 91 112 74 288 168 346 184 23 7
23 6 17 -31 -11 -60 -103 -328 -132 -387 -14 -29 -49 -91 -76 -139 -48 -84
-50 -91 -46 -148 12 -163 196 -224 313 -105 45 46 186 296 241 426 64 151 88
258 88 394 0 144 -19 205 -90 284 -82 91 -202 126 -329 97z"/>
</g>
</svg>
