<?xml version="1.0" standalone="no"?>
<!DOCTYPE svg PUBLIC "-//W3C//DTD SVG 20010904//EN"
 "http://www.w3.org/TR/2001/REC-SVG-20010904/DTD/svg10.dtd">
<svg version="1.0" xmlns="http://www.w3.org/2000/svg"
 width="600.000000pt" height="600.000000pt" viewBox="0 0 600.000000 600.000000"
 preserveAspectRatio="xMidYMid meet">
<metadata>
Created by potrace 1.15, written by Peter Selinger 2001-2017
</metadata>
<g transform="translate(0.000000,600.000000) scale(0.100000,-0.100000)"
fill="#16364b" stroke="none">
<path d="M2099 5652 c-60 -41 -333 -275 -433 -372 -162 -157 -216 -241 -216
-337 0 -85 54 -159 138 -188 120 -40 395 3 742 117 128 42 161 61 187 112 20
38 12 118 -14 154 -29 39 -82 72 -116 72 -16 0 -104 -24 -196 -54 -91 -29
-184 -56 -206 -60 l-40 -7 75 73 c42 40 124 120 183 177 60 56 112 114 118
128 25 67 -2 146 -63 183 -42 26 -123 27 -159 2z"/>
<path d="M3083 5650 c-59 -35 -83 -102 -63 -167 19 -57 36 -71 156 -128 190
-90 272 -156 320 -259 68 -147 -21 -291 -252 -408 -135 -67 -157 -90 -161
-165 -6 -94 44 -154 130 -155 86 -2 298 119 424 243 118 115 172 221 180 356
10 148 -27 264 -126 393 -87 114 -216 200 -408 274 -104 41 -154 45 -200 16z"/>
<path d="M1013 5320 c-209 -93 -353 -291 -353 -484 0 -157 131 -418 253 -507
92 -67 226 -14 244 95 11 66 -5 105 -67 170 -97 102 -136 202 -110 282 18 52
82 119 156 160 79 44 108 87 107 157 -2 115 -115 178 -230 127z"/>
<path d="M4715 4876 c-61 -26 -103 -93 -104 -166 0 -8 -3 -38 -7 -66 -12 -95
58 -265 147 -360 194 -204 519 -84 519 192 0 59 -5 81 -31 132 -62 124 -184
213 -359 261 -86 24 -123 26 -165 7z"/>
<path d="M2759 4818 c-78 -41 -189 -143 -229 -212 -108 -190 -64 -393 107
-483 119 -63 230 -80 291 -43 121 74 79 250 -67 275 -48 8 -101 40 -101 61 0
24 96 114 160 149 72 40 95 74 94 134 -1 59 -29 103 -84 131 -55 28 -98 25
-171 -12z"/>
<path d="M1769 4357 c-108 -39 -207 -118 -270 -216 -70 -109 -3 -251 118 -251
58 0 91 18 138 76 43 52 120 94 175 94 19 0 58 -10 86 -21 58 -24 99 -21 151
11 48 29 67 65 67 124 0 79 -29 117 -121 163 -71 35 -84 38 -177 41 -86 2
-111 -1 -167 -21z"/>
<path d="M2605 3814 c-79 -8 -191 -36 -223 -56 -93 -57 -86 -199 14 -255 46
-26 80 -28 189 -8 44 8 108 14 143 15 77 0 84 -11 52 -88 -54 -130 -174 -303
-368 -527 -130 -150 -142 -169 -142 -225 0 -138 164 -205 263 -107 43 44 259
303 329 396 87 114 186 287 215 376 19 60 26 102 27 171 1 82 -2 96 -29 150
-35 68 -94 114 -178 139 -53 16 -219 26 -292 19z"/>
<path d="M4235 3783 c-160 -21 -289 -104 -342 -220 -21 -45 -24 -66 -21 -121
7 -112 61 -190 168 -240 48 -23 68 -26 160 -26 92 0 112 4 162 27 101 46 185
147 235 284 27 75 28 106 7 179 -17 60 -54 97 -112 114 -35 9 -193 12 -257 3z
m15 -288 c0 -12 -50 -36 -62 -29 -8 5 -3 12 17 20 33 14 45 17 45 9z"/>
<path d="M1125 3666 c-58 -14 -197 -74 -261 -111 -57 -34 -96 -99 -97 -164 -2
-138 139 -246 256 -197 38 15 38 15 31 -7 -3 -12 -40 -103 -81 -202 -157 -377
-174 -419 -194 -493 -45 -164 -52 -261 -21 -318 45 -85 193 -130 280 -85 38
19 220 205 489 501 165 180 233 249 233 235 0 -58 -143 -758 -197 -968 -42
-164 -45 -181 -34 -219 37 -123 197 -152 270 -49 33 46 161 487 195 671 47
254 80 529 80 680 1 165 -5 195 -52 259 -59 80 -180 84 -292 8 -72 -49 -253
-211 -345 -310 -47 -50 -85 -88 -85 -84 0 4 45 99 99 210 55 112 107 232 116
268 32 120 4 230 -77 312 -73 72 -185 95 -313 63z"/>
<path d="M3527 3335 c-93 -36 -161 -123 -195 -252 -34 -129 -37 -165 -14 -215
37 -85 101 -109 230 -88 196 31 289 90 330 209 41 119 -26 274 -142 331 -57
27 -159 35 -209 15z"/>
<path d="M4794 2756 c-156 -58 -234 -155 -234 -291 0 -83 26 -143 90 -207 56
-56 124 -88 186 -88 68 0 150 54 184 120 40 80 60 247 36 304 -9 21 -16 52
-16 68 0 103 -109 145 -246 94z"/>
<path d="M2891 2469 c-65 -13 -139 -38 -201 -69 -109 -55 -316 -180 -346 -210
-71 -68 -65 -190 13 -261 42 -40 72 -52 127 -52 43 -1 70 9 173 61 125 62 311
137 320 128 14 -13 -93 -278 -182 -449 -49 -96 -55 -134 -30 -195 54 -127 221
-164 316 -69 53 54 222 420 284 617 51 163 32 287 -60 389 -86 94 -259 141
-414 110z"/>
<path d="M4321 2376 c-47 -17 -108 -71 -131 -116 -23 -46 -25 -115 -6 -205 7
-33 12 -61 10 -63 -1 -2 -48 8 -105 22 -73 19 -128 26 -195 26 -128 0 -190
-24 -265 -101 -82 -83 -119 -191 -119 -343 0 -80 35 -402 50 -457 47 -173 278
-217 395 -75 69 85 77 136 50 350 -8 65 -13 122 -10 126 6 9 62 -9 160 -52 65
-29 74 -30 155 -24 107 8 171 30 227 80 114 100 156 294 118 549 -21 136 -32
170 -72 216 -62 73 -169 101 -262 67z"/>
<path d="M2085 1891 c-146 -66 -154 -284 -12 -354 25 -13 39 -28 45 -50 5 -18
24 -80 42 -139 l34 -107 -27 -40 c-38 -57 -51 -120 -44 -206 8 -96 34 -159
113 -277 120 -178 223 -273 390 -356 108 -54 182 -72 296 -72 153 0 357 65
413 131 49 59 56 147 19 222 -58 115 -159 140 -292 73 -39 -20 -88 -38 -109
-42 -43 -6 -114 14 -180 53 l-42 24 43 42 c63 60 83 147 51 222 -8 20 -63 84
-123 144 -124 124 -127 131 -193 371 -47 171 -74 233 -123 288 -78 86 -206
117 -301 73z"/>
</g>
</svg>
