<?xml version="1.0" standalone="no"?>
<!DOCTYPE svg PUBLIC "-//W3C//DTD SVG 20010904//EN"
 "http://www.w3.org/TR/2001/REC-SVG-20010904/DTD/svg10.dtd">
<svg version="1.0" xmlns="http://www.w3.org/2000/svg"
 width="600.000000pt" height="600.000000pt" viewBox="0 0 600.000000 600.000000"
 preserveAspectRatio="xMidYMid meet">
<metadata>
Created by potrace 1.15, written by Peter Selinger 2001-2017
</metadata>
<g transform="translate(0.000000,600.000000) scale(0.100000,-0.100000)"
fill="#16364b" stroke="none">
<path d="M1905 5827 c-52 -24 -34 7 -364 -642 -68 -135 -50 -250 48 -304 85
-47 186 -28 329 61 141 88 431 317 469 370 34 47 39 107 15 162 -26 57 -70 86
-133 86 -52 0 -81 -17 -187 -107 -35 -29 -66 -52 -69 -50 -2 2 21 55 52 117
43 88 55 123 55 160 0 52 -25 99 -71 133 -34 25 -105 31 -144 14z"/>
<path d="M3025 5679 c-68 -19 -113 -104 -93 -176 14 -52 26 -63 131 -123 208
-118 331 -211 407 -307 47 -60 88 -148 96 -207 9 -61 -13 -81 -111 -106 -62
-15 -86 -26 -107 -49 -57 -64 -55 -152 6 -208 46 -42 76 -49 161 -34 198 33
332 171 343 351 5 96 -8 159 -59 268 -49 107 -107 187 -205 285 -92 92 -197
164 -369 253 -125 64 -145 70 -200 53z"/>
<path d="M942 5399 c-288 -56 -446 -390 -317 -664 53 -112 188 -225 269 -225
88 0 156 65 156 149 0 56 -20 88 -83 136 -57 44 -77 80 -77 141 0 87 48 133
161 154 68 13 113 48 134 104 20 53 15 99 -18 146 -43 63 -112 82 -225 59z"/>
<path d="M2870 5091 c-144 -46 -243 -221 -211 -370 34 -160 132 -227 320 -219
105 4 146 20 184 69 27 37 33 108 14 150 -9 19 -15 57 -15 84 4 142 -99 276
-222 290 -25 2 -56 1 -70 -4z"/>
<path d="M4775 4907 c-17 -8 -45 -31 -63 -51 -31 -35 -32 -40 -32 -124 0 -225
57 -412 154 -507 114 -110 259 -113 376 -8 75 67 102 120 108 208 11 173 -93
309 -329 430 -117 60 -168 72 -214 52z"/>
<path d="M1956 4719 c-56 -14 -148 -66 -170 -96 -25 -33 -33 -113 -16 -154 8
-17 31 -44 53 -60 51 -37 105 -38 177 -5 29 14 59 22 66 19 8 -3 21 -29 30
-58 18 -65 47 -103 90 -121 109 -45 214 25 214 142 0 94 -60 221 -129 271 -66
49 -115 66 -196 69 -44 2 -97 -1 -119 -7z"/>
<path d="M1270 4012 c-64 -4 -192 -29 -271 -52 -52 -16 -75 -29 -102 -60 -64
-70 -70 -150 -17 -233 38 -61 100 -90 180 -85 33 1 60 0 60 -3 0 -3 -28 -44
-63 -90 -192 -255 -371 -560 -461 -785 -42 -105 -44 -141 -15 -201 25 -52 72
-90 135 -109 73 -22 124 -4 193 66 31 32 101 91 156 131 206 150 251 186 387
312 133 121 237 207 251 207 15 0 6 -139 -14 -220 -26 -111 -38 -144 -116
-335 -103 -250 -183 -410 -267 -534 -117 -173 -121 -184 -91 -259 32 -79 119
-111 198 -73 38 19 58 42 153 184 59 89 132 207 160 262 67 128 268 594 289
671 35 126 29 383 -11 497 -38 108 -117 171 -213 169 -92 -1 -172 -40 -354
-174 -37 -28 -69 -49 -72 -47 -2 2 37 57 86 122 48 65 103 148 121 185 30 61
33 74 33 162 0 80 -4 102 -23 140 -60 114 -158 162 -312 152z"/>
<path d="M2884 3992 c-67 -24 -97 -44 -130 -87 -38 -51 -53 -100 -54 -181 -1
-202 179 -344 435 -344 86 0 176 17 205 38 64 48 88 129 56 191 -14 26 -13 28
16 45 39 23 72 96 64 140 -11 59 -43 96 -109 126 -179 81 -377 110 -483 72z"/>
<path d="M4243 3790 c-228 -42 -361 -199 -324 -385 45 -217 253 -334 437 -244
129 62 280 308 292 474 4 55 1 64 -24 94 -15 19 -44 40 -63 48 -43 18 -244 26
-318 13z m27 -319 c0 -5 -12 -16 -26 -26 -34 -22 -56 -4 -23 19 26 18 49 21
49 7z"/>
<path d="M3404 3401 c-76 -35 -160 -164 -200 -308 -16 -59 -16 -65 1 -108 11
-31 30 -56 58 -76 38 -27 45 -29 139 -29 110 0 145 10 202 60 142 125 135 384
-13 460 -51 25 -132 26 -187 1z"/>
<path d="M4970 3059 c-14 -6 -67 -53 -118 -106 -222 -226 -273 -402 -156 -532
56 -63 116 -85 212 -79 164 11 287 138 328 338 14 71 15 94 5 149 -16 88 -23
100 -114 200 -36 40 -101 52 -157 30z"/>
<path d="M4000 2601 c-110 -35 -180 -128 -180 -237 0 -22 14 -92 30 -158 17
-65 29 -120 28 -121 -2 -2 -34 7 -73 21 -81 27 -133 30 -199 10 -105 -32 -174
-106 -202 -217 -21 -84 -9 -167 56 -359 26 -80 64 -197 84 -261 52 -167 100
-224 208 -248 103 -23 220 51 252 160 21 69 20 100 -4 179 -11 36 -20 66 -20
67 0 2 24 -12 53 -30 47 -29 60 -32 127 -32 92 1 163 29 215 86 56 62 69 101
69 209 0 103 -13 160 -84 380 -22 69 -56 190 -76 270 -38 150 -59 203 -90 231
-50 44 -141 67 -194 50z"/>
<path d="M2028 2186 c-76 -27 -144 -86 -230 -199 -109 -143 -123 -219 -53
-295 l33 -37 -57 -60 c-150 -161 -226 -452 -173 -663 64 -253 273 -498 526
-618 158 -74 365 -94 531 -50 145 39 299 139 410 268 86 100 104 171 64 254
l-20 42 51 92 c130 229 226 461 254 611 63 338 -68 539 -352 539 -132 0 -225
-33 -455 -164 -73 -42 -135 -76 -138 -76 -4 0 -14 30 -24 68 -39 145 -106 245
-190 283 -47 22 -124 24 -177 5z m946 -548 c-23 -134 -80 -290 -172 -473 -76
-151 -84 -205 -43 -283 l22 -43 -68 -68 c-93 -92 -156 -116 -303 -115 -84 0
-116 5 -159 23 -127 52 -245 156 -294 258 -29 61 -32 77 -32 158 1 99 18 152
70 213 26 31 104 88 109 80 2 -2 13 -29 25 -60 35 -86 93 -162 144 -187 76
-37 178 -21 229 36 49 54 62 161 28 228 -11 22 -20 40 -20 41 0 5 211 118 295
158 172 81 177 82 169 34z"/>
</g>
</svg>
