<?xml version="1.0" standalone="no"?>
<!DOCTYPE svg PUBLIC "-//W3C//DTD SVG 20010904//EN"
 "http://www.w3.org/TR/2001/REC-SVG-20010904/DTD/svg10.dtd">
<svg version="1.0" xmlns="http://www.w3.org/2000/svg"
 width="600.000000pt" height="600.000000pt" viewBox="0 0 600.000000 600.000000"
 preserveAspectRatio="xMidYMid meet">
<metadata>
Created by potrace 1.15, written by Peter Selinger 2001-2017
</metadata>
<g transform="translate(0.000000,600.000000) scale(0.100000,-0.100000)"
fill="#16364b" stroke="none">
<path d="M2813 5559 c-43 -13 -73 -55 -119 -169 -42 -106 -56 -227 -35 -293
18 -54 83 -121 143 -148 46 -20 74 -24 211 -29 l157 -5 -92 -70 c-51 -38 -134
-110 -184 -160 -112 -112 -292 -328 -300 -361 -14 -54 2 -113 43 -162 22 -26
51 -53 65 -59 14 -7 104 -24 199 -38 224 -32 302 -48 479 -97 155 -42 188 -43
234 -7 36 29 56 70 56 119 0 47 -11 73 -48 113 -41 43 -314 124 -515 152 -61
8 -112 17 -114 19 -7 7 76 104 145 167 39 36 129 107 199 157 226 160 265 206
267 313 1 98 -64 168 -190 205 -51 14 -86 16 -257 10 l-199 -7 7 23 c4 13 21
49 36 80 21 40 29 72 29 108 0 43 -5 55 -36 90 -49 54 -108 70 -181 49z"/>
<path d="M1568 5236 c-129 -53 -228 -126 -353 -258 -149 -159 -262 -356 -273
-475 -8 -94 49 -172 138 -188 24 -4 78 5 175 30 78 19 180 38 232 41 112 8
109 17 57 -153 -69 -224 -71 -255 -29 -319 8 -13 15 -25 15 -27 0 -3 -21 -10
-47 -16 -113 -29 -163 -158 -95 -250 24 -34 79 -61 122 -61 93 0 484 157 603
242 59 42 76 147 35 208 -62 91 -128 97 -260 26 -69 -37 -88 -44 -88 -31 0 9
16 71 35 138 42 148 58 248 49 302 -10 63 -52 142 -92 173 -80 63 -116 73
-277 81 l-130 6 100 100 c79 79 118 110 185 145 73 39 88 51 108 90 29 58 29
117 -1 161 -43 64 -111 75 -209 35z"/>
<path d="M4445 4616 c-84 -19 -153 -45 -290 -107 -132 -60 -165 -90 -172 -162
-8 -80 47 -145 131 -154 41 -5 61 1 179 55 73 33 145 64 161 68 26 6 27 5 20
-22 -31 -122 -115 -275 -283 -518 -33 -47 -41 -67 -41 -103 0 -24 5 -54 11
-66 20 -39 123 -137 154 -146 17 -6 104 -15 195 -21 187 -12 342 -28 349 -36
10 -10 -24 -86 -137 -299 -92 -177 -115 -228 -115 -261 -1 -124 146 -185 246
-103 28 23 57 72 125 212 124 253 182 409 182 487 0 52 -30 127 -64 162 -68
70 -158 97 -404 121 -78 8 -145 17 -148 19 -3 3 14 37 37 74 127 207 214 501
189 636 -27 141 -151 204 -325 164z"/>
<path d="M3782 3678 c-213 -33 -344 -278 -206 -387 35 -28 107 -28 151 -1 18
10 44 38 58 60 35 56 50 47 49 -26 -1 -45 -11 -81 -40 -149 l-39 -90 -83 -45
c-158 -86 -242 -172 -242 -250 0 -72 47 -130 121 -150 57 -16 110 2 171 57 64
56 124 85 252 118 133 35 163 52 193 109 31 60 7 166 -45 195 -14 8 -14 15 1
85 20 92 21 164 3 231 -28 106 -84 183 -159 219 -61 29 -112 35 -185 24z"/>
<path d="M2470 3535 c-134 -27 -325 -107 -378 -158 -78 -75 -56 -204 42 -251
50 -23 81 -20 171 19 129 55 278 87 339 71 23 -6 26 -12 26 -47 0 -57 -52
-206 -109 -315 -59 -112 -65 -133 -50 -186 22 -82 109 -133 188 -110 67 21 88
47 169 211 108 216 127 279 127 411 0 122 -14 158 -93 242 -101 109 -255 149
-432 113z"/>
<path d="M1130 3247 c-102 -24 -242 -114 -275 -178 -8 -15 -15 -52 -15 -81 0
-116 100 -200 220 -184 43 6 48 4 44 -11 -66 -309 -84 -436 -91 -663 -7 -229
1 -293 44 -348 51 -68 166 -98 276 -73 55 13 79 39 142 160 63 121 121 213
254 408 107 158 192 273 201 273 3 0 13 -22 23 -49 13 -37 17 -81 17 -183 0
-158 -15 -291 -65 -563 -43 -236 -43 -290 0 -335 28 -29 84 -53 108 -45 7 2
24 6 39 9 14 3 40 17 56 31 l29 25 7 -63 c12 -100 55 -345 77 -432 81 -317
193 -460 386 -496 116 -22 295 28 381 106 21 18 46 35 58 39 42 13 81 67 133
183 65 146 149 290 200 343 61 64 93 56 261 -70 126 -93 177 -115 275 -115 70
0 88 4 148 33 79 39 178 130 197 182 7 21 29 47 52 63 52 37 92 120 86 180 -3
23 -21 95 -41 160 -20 65 -37 138 -37 161 0 54 -3 53 190 67 187 13 240 23
317 58 161 76 242 236 231 460 -3 71 -9 96 -30 132 -113 192 -411 114 -435
-115 -7 -63 -10 -66 -118 -66 -86 0 -252 -24 -320 -46 -161 -53 -252 -151
-295 -320 -11 -42 -20 -110 -20 -150 0 -74 26 -228 54 -319 8 -27 13 -51 11
-53 -2 -3 -39 18 -82 45 -176 113 -277 148 -405 141 -64 -4 -91 -11 -152 -41
-168 -84 -322 -278 -436 -550 -21 -50 -44 -93 -52 -96 -7 -2 -26 -13 -41 -23
-24 -17 -30 -18 -44 -6 -42 34 -97 208 -148 471 -19 97 -41 189 -49 205 -31
60 -114 112 -179 112 -29 0 -90 -29 -119 -57 -16 -15 -28 -22 -28 -17 0 17 50
297 65 359 53 232 64 512 27 685 -38 180 -74 247 -161 298 -38 22 -58 27 -111
26 -54 0 -76 -6 -130 -35 -82 -43 -214 -169 -315 -299 -43 -55 -80 -99 -82
-97 -2 2 6 62 19 133 15 93 22 173 22 289 1 146 -1 164 -21 200 -64 119 -205
176 -353 142z"/>
<path d="M3140 2643 c-64 -8 -163 -33 -370 -96 -188 -57 -208 -65 -246 -102
-124 -119 -43 -325 128 -325 25 0 99 17 169 40 121 40 310 90 338 90 19 0 10
-37 -35 -151 -25 -62 -37 -109 -37 -140 1 -102 79 -179 182 -179 126 0 183 65
262 298 68 202 57 348 -37 451 -84 94 -200 131 -354 114z"/>
</g>
</svg>
