<?xml version="1.0" standalone="no"?>
<!DOCTYPE svg PUBLIC "-//W3C//DTD SVG 20010904//EN"
 "http://www.w3.org/TR/2001/REC-SVG-20010904/DTD/svg10.dtd">
<svg version="1.0" xmlns="http://www.w3.org/2000/svg"
 width="600.000000pt" height="600.000000pt" viewBox="0 0 600.000000 600.000000"
 preserveAspectRatio="xMidYMid meet">
<metadata>
Created by potrace 1.15, written by Peter Selinger 2001-2017
</metadata>
<g transform="translate(0.000000,600.000000) scale(0.100000,-0.100000)"
fill="#16364b" stroke="none">
<path d="M3025 5081 c-73 -45 -129 -150 -130 -242 0 -100 56 -127 140 -69 88
61 153 177 140 248 -14 74 -85 104 -150 63z m88 -70 c6 -24 -14 -80 -43 -121
-27 -37 -99 -92 -111 -84 -27 16 13 140 63 191 37 38 82 45 91 14z"/>
<path d="M4793 4718 c-35 -17 -42 -52 -53 -243 -16 -294 -14 -367 11 -399 29
-37 83 -33 113 7 19 26 21 46 28 295 4 147 5 279 2 294 -6 30 -38 58 -64 57
-8 0 -25 -5 -37 -11z"/>
<path d="M1682 4454 c-93 -46 -147 -136 -140 -233 5 -61 26 -112 87 -209 41
-65 66 -145 107 -338 36 -173 54 -329 64 -584 18 -430 60 -1010 86 -1190 18
-122 62 -264 103 -336 90 -155 266 -271 484 -319 l78 -17 -7 -97 c-9 -129 7
-242 62 -457 26 -98 49 -191 51 -206 l5 -27 -98 1 c-114 3 -153 -11 -174 -62
-38 -91 74 -156 225 -131 77 12 104 23 143 56 79 66 82 125 18 357 -57 207
-76 317 -75 422 1 117 7 132 50 129 179 -13 319 -25 454 -40 92 -10 228 -17
320 -16 l160 1 1 -132 c0 -114 5 -148 33 -261 18 -71 46 -165 62 -209 16 -43
26 -83 23 -87 -3 -5 -36 -9 -73 -9 -96 0 -128 -8 -162 -42 -50 -50 -35 -119
34 -155 71 -37 225 -11 293 50 75 65 84 134 35 262 -42 111 -58 171 -81 308
-23 135 -25 185 -9 255 l10 49 137 27 c400 79 581 144 685 244 97 93 197 256
236 386 81 266 -88 616 -339 702 -21 7 -73 18 -116 23 -417 55 -510 77 -873
211 -449 165 -750 384 -943 685 -25 39 -91 160 -146 270 -111 219 -170 304
-307 446 -49 52 -102 111 -118 132 -112 153 -256 206 -385 141z m166 -144 c35
-22 84 -73 118 -124 11 -17 61 -73 112 -123 115 -117 186 -223 301 -452 116
-231 163 -301 281 -425 222 -231 487 -408 780 -519 354 -134 590 -196 945
-247 88 -13 164 -29 186 -41 83 -42 151 -146 185 -279 41 -160 -26 -365 -163
-505 -70 -72 -117 -97 -258 -140 -369 -112 -741 -154 -1083 -125 -64 6 -187
15 -272 20 -472 29 -650 73 -774 190 -125 118 -153 222 -201 760 -8 96 -20
225 -25 285 -6 61 -15 243 -20 405 -13 370 -25 511 -56 674 -32 164 -95 358
-141 433 -56 91 -63 106 -63 135 0 84 74 123 148 78z"/>
<path d="M2476 2597 c-28 -20 -23 -67 8 -94 43 -37 84 -26 106 27 10 25 10 34
-4 55 -13 19 -25 25 -54 25 -21 0 -46 -6 -56 -13z"/>
<path d="M2952 2334 c-31 -22 -29 -67 4 -93 34 -27 58 -27 84 1 40 43 13 108
-45 108 -11 0 -31 -7 -43 -16z"/>
<path d="M5233 3971 c-222 -76 -268 -349 -91 -537 66 -70 131 -99 223 -98 184
2 335 154 335 337 0 71 -21 125 -70 181 -42 47 -138 112 -187 125 -57 16 -152
13 -210 -8z m155 -274 c19 -11 20 -15 10 -29 -21 -27 -50 -26 -64 1 -7 14 -11
29 -8 33 7 12 36 9 62 -5z"/>
<path d="M4215 3751 c-83 -20 -171 -99 -213 -189 -38 -81 -38 -188 0 -252 56
-96 137 -142 246 -142 179 1 324 167 295 338 -16 94 -44 147 -100 188 -74 55
-153 75 -228 57z m65 -290 c0 -20 -19 -41 -37 -41 -18 0 -16 30 3 51 19 21 34
16 34 -10z"/>
<path d="M5337 1119 c-31 -18 -67 -108 -67 -167 0 -87 34 -132 100 -132 82 0
125 66 124 189 0 68 -3 76 -28 97 -30 26 -96 32 -129 13z"/>
</g>
</svg>
