<?xml version="1.0" standalone="no"?>
<!DOCTYPE svg PUBLIC "-//W3C//DTD SVG 20010904//EN"
 "http://www.w3.org/TR/2001/REC-SVG-20010904/DTD/svg10.dtd">
<svg version="1.0" xmlns="http://www.w3.org/2000/svg"
 width="600.000000pt" height="600.000000pt" viewBox="0 0 600.000000 600.000000"
 preserveAspectRatio="xMidYMid meet">
<metadata>
Created by potrace 1.15, written by Peter Selinger 2001-2017
</metadata>
<g transform="translate(0.000000,600.000000) scale(0.100000,-0.100000)"
fill="#16364b" stroke="none">
<path d="M2153 5429 c-49 -24 -73 -58 -103 -149 -46 -136 -10 -237 105 -295
57 -28 68 -30 208 -33 81 -2 147 -7 145 -11 -2 -3 -36 -71 -75 -151 -75 -148
-123 -291 -123 -362 0 -48 19 -87 60 -122 59 -49 169 -27 203 41 8 15 24 60
37 98 20 62 148 333 171 361 5 6 18 38 30 70 25 72 28 166 6 215 -23 56 -82
114 -139 139 -48 20 -64 22 -185 18 l-133 -5 5 46 c8 61 -18 108 -75 138 -53
28 -83 29 -137 2z"/>
<path d="M3637 5380 c-93 -24 -137 -72 -137 -150 0 -54 27 -102 72 -131 29
-18 43 -20 123 -15 50 4 96 2 103 -2 39 -26 19 -165 -44 -319 -40 -95 -42
-143 -11 -197 40 -71 129 -96 194 -56 42 25 57 50 94 150 130 357 91 614 -106
701 -56 25 -220 36 -288 19z"/>
<path d="M1699 4874 c-149 -27 -417 -140 -454 -191 -15 -21 -20 -44 -20 -95 0
-57 4 -70 25 -93 33 -36 72 -55 110 -55 l31 0 -6 -47 c-5 -38 -2 -57 17 -93
29 -56 63 -76 169 -95 125 -24 331 -79 443 -120 111 -40 139 -40 195 2 82 62
93 182 24 255 -43 45 -236 103 -482 144 -79 13 -146 26 -149 29 -7 6 42 24
118 42 45 10 91 13 149 9 97 -6 133 5 174 53 21 26 27 43 27 83 0 153 -135
215 -371 172z"/>
<path d="M3115 4367 c-283 -116 -566 -240 -597 -260 -53 -36 -78 -82 -78 -144
0 -65 20 -107 63 -133 55 -34 101 -26 238 39 68 33 207 93 309 135 313 126
331 134 352 153 100 90 27 263 -111 263 -32 0 -84 -16 -176 -53z"/>
<path d="M4270 4389 c-82 -33 -124 -134 -85 -209 26 -51 68 -67 195 -74 214
-12 233 -24 238 -149 3 -54 -3 -121 -17 -197 -25 -136 -26 -181 -6 -220 45
-86 183 -77 237 16 23 39 57 203 66 319 15 196 -17 314 -112 403 -61 58 -120
88 -212 107 -78 17 -266 19 -304 4z"/>
<path d="M2141 3839 c-105 -30 -313 -52 -426 -46 -117 8 -154 -5 -192 -62 -48
-72 -18 -192 57 -232 94 -51 669 5 772 75 42 28 58 60 58 119 0 101 -63 168
-155 166 -27 -1 -79 -10 -114 -20z"/>
<path d="M3635 3742 c-136 -50 -591 -279 -610 -308 -44 -68 -18 -167 54 -203
22 -12 53 -21 68 -21 38 0 158 47 322 126 74 35 135 64 137 64 2 0 4 -20 4
-45 0 -57 22 -100 63 -125 60 -37 127 -21 183 43 40 44 112 191 122 247 24
133 -65 239 -208 247 -42 3 -74 -3 -135 -25z"/>
<path d="M4940 3344 c-114 -50 -163 -143 -135 -260 21 -88 19 -136 -9 -176
-13 -19 -84 -95 -158 -169 -126 -124 -139 -141 -181 -229 -55 -114 -74 -186
-87 -325 -26 -271 42 -405 204 -405 85 0 156 40 205 115 23 36 26 50 27 150 2
101 5 117 33 179 27 60 51 88 180 215 136 134 152 153 189 231 70 148 85 256
57 428 -24 147 -57 205 -140 243 -49 23 -136 24 -185 3z"/>
<path d="M2022 3204 c-100 -51 -108 -190 -16 -260 l38 -29 185 0 186 0 6 -56
c7 -68 35 -112 89 -139 75 -38 151 -18 204 53 18 25 21 43 21 130 0 91 -3 107
-27 153 -33 62 -94 117 -157 140 -70 26 -482 32 -529 8z"/>
<path d="M4307 3190 c-16 -5 -78 -56 -138 -115 -195 -188 -332 -256 -591 -293
-145 -21 -171 -34 -200 -99 -29 -65 -18 -116 37 -170 40 -41 45 -43 101 -43
157 0 454 80 604 163 129 71 292 207 361 301 88 119 -34 298 -174 256z"/>
<path d="M1264 2991 c-100 -45 -131 -165 -66 -259 36 -54 50 -115 67 -312 31
-347 56 -481 115 -623 34 -82 85 -149 133 -173 45 -24 119 -21 162 6 42 26 81
89 90 146 8 44 0 77 -40 171 -33 80 -68 291 -94 566 -23 239 -32 289 -67 359
-59 118 -188 170 -300 119z"/>
<path d="M2145 2468 c-95 -18 -210 -82 -295 -166 -65 -65 -79 -84 -85 -119
-19 -116 90 -209 202 -172 21 6 58 30 83 53 60 56 110 92 137 100 18 6 27 0
48 -34 15 -24 41 -48 63 -58 20 -9 39 -17 41 -19 2 -1 -11 -14 -28 -29 -38
-32 -85 -122 -106 -201 -19 -74 -19 -226 0 -311 22 -98 92 -231 135 -260 92
-62 240 18 240 129 0 20 -13 67 -30 103 -59 132 -63 230 -14 323 27 50 33 109
16 153 -13 33 -60 79 -89 86 -12 4 -23 7 -23 8 0 2 18 21 39 44 29 31 41 53
46 86 17 110 -84 244 -213 282 -51 16 -94 16 -167 2z"/>
<path d="M3690 2174 c-14 -2 -68 -11 -121 -20 -53 -8 -181 -35 -285 -60 -104
-25 -253 -58 -331 -74 -79 -16 -155 -36 -170 -44 -59 -30 -103 -103 -103 -168
1 -68 60 -153 123 -177 51 -20 105 -12 390 59 290 71 460 100 595 100 69 0 82
-4 121 -30 78 -53 155 -52 218 3 45 40 63 82 63 149 -1 98 -66 188 -170 237
-49 23 -69 26 -180 27 -69 1 -136 0 -150 -2z"/>
<path d="M4646 1623 c-33 -9 -89 -49 -136 -98 -79 -82 -139 -102 -395 -134
-184 -23 -280 -51 -410 -120 -102 -53 -320 -190 -367 -229 -35 -30 -67 -94
-68 -135 0 -25 -3 -27 -22 -20 -13 4 -46 8 -75 7 -43 0 -62 -8 -115 -42 -87
-56 -139 -73 -229 -73 -172 -1 -350 100 -504 284 -27 32 -62 65 -79 74 -39 20
-123 20 -162 0 -73 -38 -123 -132 -109 -206 12 -64 46 -112 154 -220 228 -226
449 -331 702 -331 164 0 269 32 401 122 94 63 126 102 140 170 l12 59 41 -7
c61 -9 110 9 205 72 104 69 264 147 345 168 33 8 134 26 225 40 241 36 363 80
505 181 71 50 161 143 175 180 25 67 3 172 -47 217 -43 39 -124 57 -187 41z"/>
</g>
</svg>
