<?xml version="1.0" standalone="no"?>
<!DOCTYPE svg PUBLIC "-//W3C//DTD SVG 20010904//EN"
 "http://www.w3.org/TR/2001/REC-SVG-20010904/DTD/svg10.dtd">
<svg version="1.0" xmlns="http://www.w3.org/2000/svg"
 width="600.000000pt" height="600.000000pt" viewBox="0 0 600.000000 600.000000"
 preserveAspectRatio="xMidYMid meet">
<metadata>
Created by potrace 1.15, written by Peter Selinger 2001-2017
</metadata>
<g transform="translate(0.000000,600.000000) scale(0.100000,-0.100000)"
fill="#16364b" stroke="none">
<path d="M1555 5782 c-42 -26 -44 -29 -119 -195 -71 -158 -116 -296 -116 -355
0 -82 73 -162 146 -162 37 0 118 38 169 80 46 36 244 220 323 297 46 46 52 57
52 93 0 97 -78 153 -166 120 -15 -6 -72 -54 -126 -107 -54 -53 -98 -94 -98
-91 0 4 23 54 52 112 49 103 51 108 39 147 -21 69 -95 98 -156 61z"/>
<path d="M855 5537 c-228 -59 -393 -306 -331 -495 31 -92 144 -192 217 -192
38 0 91 33 111 71 30 54 18 94 -43 151 -47 43 -51 50 -45 80 10 50 52 106 103
139 55 34 98 37 153 9 61 -31 105 -27 146 14 28 28 34 41 34 77 0 36 -6 47
-39 79 -67 64 -202 93 -306 67z"/>
<path d="M2374 5411 c-39 -24 -59 -77 -50 -136 9 -67 -11 -302 -34 -390 -44
-172 -96 -241 -241 -315 -87 -45 -103 -57 -116 -88 -21 -50 -2 -107 46 -139
45 -31 86 -29 165 7 227 101 344 281 389 595 21 145 30 340 18 390 -20 82
-107 119 -177 76z"/>
<path d="M3492 5325 c-38 -32 -44 -58 -33 -141 13 -88 53 -167 118 -232 92
-93 199 -119 263 -66 70 60 78 126 25 231 -49 99 -116 163 -209 202 -91 38
-125 39 -164 6z"/>
<path d="M2983 5141 c-62 -29 -129 -96 -159 -160 -54 -112 -28 -238 58 -282
71 -36 199 -19 291 38 44 28 53 49 69 151 18 121 -17 218 -92 257 -40 21 -116
18 -167 -4z"/>
<path d="M4761 4777 c-65 -33 -82 -106 -62 -274 28 -239 102 -388 223 -449 87
-44 178 -30 256 40 58 53 86 123 86 218 0 68 -5 85 -37 150 -40 81 -106 155
-200 224 -124 92 -209 121 -266 91z m237 -404 c11 -16 23 -39 27 -53 6 -22 6
-23 -8 -10 -16 15 -51 90 -43 90 3 0 13 -12 24 -27z"/>
<path d="M2730 4227 c-119 -29 -184 -75 -220 -159 -77 -176 43 -378 224 -378
60 0 150 26 219 62 72 39 201 157 228 209 36 71 17 168 -41 211 -64 47 -307
79 -410 55z"/>
<path d="M1049 4087 c-74 -50 -99 -133 -61 -206 28 -56 60 -73 156 -81 47 -5
102 -14 121 -20 36 -12 36 -12 18 -33 -57 -64 -242 -157 -373 -187 -77 -18
-130 -71 -130 -129 0 -84 52 -142 133 -149 43 -3 70 3 152 33 131 49 324 146
404 203 58 41 63 43 57 21 -16 -48 -18 -150 -6 -195 18 -62 94 -144 162 -175
79 -35 193 -34 270 4 63 31 121 89 149 151 42 93 13 229 -67 311 -64 66 -120
88 -224 89 -80 1 -89 -1 -153 -36 l-67 -38 7 28 c5 15 8 59 7 97 0 58 -5 80
-31 131 -53 102 -137 158 -285 188 -114 24 -197 21 -239 -7z"/>
<path d="M4205 3776 c-107 -34 -191 -104 -234 -196 -21 -44 -26 -70 -26 -130
0 -121 57 -214 168 -272 64 -34 184 -32 252 4 106 55 202 192 231 327 36 172
-1 237 -154 270 -69 14 -186 13 -237 -3z m86 -304 c-11 -20 -48 -39 -57 -29
-10 10 10 37 34 45 33 11 36 9 23 -16z"/>
<path d="M5114 3526 c-176 -65 -288 -219 -270 -370 8 -68 58 -168 104 -206
146 -120 408 -48 499 138 39 79 39 182 1 262 -29 61 -97 146 -144 179 -40 28
-110 27 -190 -3z m56 -311 c-7 -9 -15 -13 -17 -11 -7 7 7 26 19 26 6 0 6 -6
-2 -15z"/>
<path d="M2535 3443 c-78 -28 -138 -68 -191 -126 -63 -68 -104 -146 -144 -272
-54 -170 -62 -188 -106 -235 -31 -33 -76 -63 -156 -103 -277 -138 -490 -393
-584 -702 -26 -82 -28 -104 -28 -250 0 -149 2 -166 28 -245 75 -223 187 -369
383 -497 192 -126 378 -177 553 -153 191 26 379 122 598 304 51 43 92 89 136
156 135 202 172 367 182 805 9 384 -17 650 -87 886 -41 138 -90 229 -168 311
-89 95 -163 131 -280 135 -64 3 -99 -1 -136 -14z m225 -549 c57 -176 64 -251
56 -649 -7 -435 -25 -558 -99 -700 -65 -123 -235 -254 -385 -297 -124 -36
-238 -10 -380 85 -223 150 -301 319 -243 531 36 132 107 251 215 361 49 51 83
73 169 115 136 66 238 133 305 201 91 93 125 160 196 400 14 47 36 99 48 114
l22 28 28 -34 c18 -21 43 -79 68 -155z"/>
<path d="M3371 3322 c-52 -54 -151 -238 -151 -280 0 -38 35 -90 68 -103 37
-15 121 -5 169 20 114 57 191 240 143 336 -24 46 -75 75 -133 75 -47 0 -54 -3
-96 -48z"/>
<path d="M398 2319 c-39 -20 -68 -63 -68 -99 0 -32 87 -264 137 -368 90 -185
215 -318 345 -367 34 -12 67 -16 122 -13 63 3 81 8 118 33 62 44 91 104 85
180 -17 228 -181 416 -518 594 -127 67 -160 73 -221 40z m387 -441 c72 -75 82
-89 100 -131 21 -51 2 -49 -59 4 -47 41 -146 182 -146 207 0 19 42 -13 105
-80z"/>
<path d="M4295 2045 c-16 -9 -38 -25 -47 -36 l-18 -21 -26 21 c-82 65 -184 39
-220 -55 -17 -44 -16 -48 9 -177 14 -73 30 -159 36 -192 32 -203 82 -301 173
-340 53 -21 97 -19 154 10 56 28 89 71 115 152 36 106 88 475 76 525 -24 94
-165 157 -252 113z"/>
</g>
</svg>
