<?xml version="1.0" standalone="no"?>
<!DOCTYPE svg PUBLIC "-//W3C//DTD SVG 20010904//EN"
 "http://www.w3.org/TR/2001/REC-SVG-20010904/DTD/svg10.dtd">
<svg version="1.0" xmlns="http://www.w3.org/2000/svg"
 width="600.000000pt" height="600.000000pt" viewBox="0 0 600.000000 600.000000"
 preserveAspectRatio="xMidYMid meet">
<metadata>
Created by potrace 1.15, written by Peter Selinger 2001-2017
</metadata>
<g transform="translate(0.000000,600.000000) scale(0.100000,-0.100000)"
fill="#16364b" stroke="none">
<path d="M1923 4930 c-65 -33 -119 -87 -149 -149 -25 -51 -30 -157 -10 -238
28 -120 36 -198 51 -506 8 -166 19 -385 25 -487 12 -241 12 -732 0 -884 l-10
-119 -89 -181 c-157 -318 -225 -461 -225 -474 -1 -8 -9 -18 -19 -24 -17 -9
-17 -12 -3 -32 10 -17 12 -26 4 -34 -19 -19 -1 -43 27 -36 21 5 25 3 25 -14 0
-41 23 -36 67 14 24 27 42 56 41 64 -1 8 41 98 92 200 l94 185 7 -75 c32 -314
77 -462 194 -625 108 -151 268 -251 456 -286 l64 -12 0 -181 c1 -197 19 -324
70 -476 38 -115 41 -110 -70 -110 -89 0 -96 -2 -125 -28 -20 -17 -33 -40 -37
-64 -5 -32 -1 -41 24 -67 16 -16 50 -35 74 -41 76 -21 202 4 260 52 9 7 26 29
38 48 29 49 27 111 -9 222 -59 181 -75 278 -75 456 0 182 2 188 65 174 19 -4
233 -6 476 -4 l441 3 6 -178 c7 -200 24 -329 61 -452 14 -46 23 -87 20 -92 -3
-5 -39 -9 -80 -9 -116 0 -174 -35 -174 -106 0 -74 82 -115 193 -96 157 25 241
111 224 224 -2 18 -16 78 -31 132 -32 122 -48 252 -50 411 -2 165 1 171 66
178 29 2 147 21 263 41 166 29 222 43 273 68 120 60 208 190 257 381 86 340
20 597 -220 865 -26 28 -43 52 -38 52 25 -1 228 -89 231 -101 8 -24 25 -29 99
-29 72 0 94 10 74 34 -6 7 -7 16 -2 22 5 5 13 26 16 47 6 30 4 37 -9 37 -28 0
-84 33 -90 52 -4 16 -10 19 -34 14 -20 -5 -52 2 -107 25 -116 46 -217 75 -433
124 l-194 44 -141 93 c-78 50 -230 141 -337 201 -260 146 -384 232 -509 352
-247 239 -352 413 -546 901 -129 322 -140 345 -199 411 -71 79 -125 106 -221
111 -74 3 -85 1 -142 -28z m198 -126 c54 -27 104 -105 135 -209 9 -33 23 -69
30 -80 7 -11 29 -65 50 -120 53 -144 168 -408 216 -495 81 -148 197 -303 353
-469 75 -80 234 -195 407 -295 84 -49 212 -122 283 -164 72 -41 182 -109 245
-150 63 -42 170 -107 239 -144 215 -119 298 -183 380 -292 109 -144 146 -266
138 -456 -11 -239 -93 -418 -222 -480 -28 -14 -128 -35 -279 -60 l-235 -39
-478 -3 c-501 -3 -780 9 -888 37 -80 20 -191 76 -236 118 -114 106 -188 257
-223 457 -34 190 -39 323 -40 1060 -2 902 -20 1277 -77 1552 -16 78 -18 105
-9 137 26 99 120 141 211 95z m-546 -2974 c3 -5 2 -10 -4 -10 -5 0 -13 5 -16
10 -3 6 -2 10 4 10 5 0 13 -4 16 -10z"/>
<path d="M2635 2718 c-46 -26 -49 -77 -6 -107 37 -27 52 -26 79 2 24 26 29 78
9 95 -21 17 -61 23 -82 10z"/>
<path d="M3041 2564 c-27 -34 -26 -55 2 -82 48 -45 107 -13 107 57 0 54 -73
71 -109 25z"/>
<path d="M5244 3972 c-246 -85 -297 -379 -97 -562 69 -63 131 -84 228 -78 173
11 314 150 323 319 7 112 -43 192 -170 276 -100 66 -184 79 -284 45z m130
-293 c20 -9 23 -16 16 -29 -16 -29 -49 -31 -66 -5 -26 40 -1 57 50 34z"/>
<path d="M5352 1093 c-28 -27 -62 -116 -62 -161 0 -40 23 -83 52 -98 85 -44
168 41 168 171 0 46 -4 60 -25 80 -13 14 -32 25 -42 25 -10 0 -28 3 -40 6 -16
5 -30 -2 -51 -23z"/>
</g>
</svg>
