<?xml version="1.0" standalone="no"?>
<!DOCTYPE svg PUBLIC "-//W3C//DTD SVG 20010904//EN"
 "http://www.w3.org/TR/2001/REC-SVG-20010904/DTD/svg10.dtd">
<svg version="1.0" xmlns="http://www.w3.org/2000/svg"
 width="600.000000pt" height="600.000000pt" viewBox="0 0 600.000000 600.000000"
 preserveAspectRatio="xMidYMid meet">
<metadata>
Created by potrace 1.15, written by Peter Selinger 2001-2017
</metadata>
<g transform="translate(0.000000,600.000000) scale(0.100000,-0.100000)"
fill="#16364b" stroke="none">
<path d="M3049 5641 c-52 -17 -80 -44 -113 -115 -74 -156 -100 -294 -72 -388
39 -135 171 -208 379 -208 31 0 57 -4 57 -9 0 -4 -19 -21 -42 -36 -151 -99
-529 -428 -559 -487 -54 -105 13 -203 184 -269 45 -17 177 -53 292 -81 116
-27 263 -67 329 -89 65 -21 135 -39 156 -39 53 0 100 35 124 92 17 40 18 53 8
86 -7 22 -21 51 -32 65 -30 38 -154 82 -418 147 -129 32 -236 60 -238 63 -11
11 295 244 461 351 66 43 133 90 148 104 89 83 89 204 2 281 -70 61 -155 85
-380 107 -88 8 -164 19 -169 24 -4 4 12 51 38 105 54 115 60 171 23 225 -38
58 -119 89 -178 71z"/>
<path d="M1485 5361 c-136 -69 -383 -360 -496 -583 -113 -224 -119 -384 -17
-449 43 -26 83 -22 259 24 134 35 327 69 341 60 8 -4 -28 -81 -67 -143 -86
-138 -155 -298 -155 -360 0 -23 -8 -64 -17 -90 -14 -40 -15 -54 -5 -88 23 -76
90 -132 158 -132 34 0 206 73 405 172 191 94 214 117 214 212 0 73 -27 116
-87 141 -55 22 -66 20 -158 -26 -45 -23 -83 -39 -85 -37 -2 2 18 49 45 104 67
138 91 214 91 289 1 108 -51 190 -149 237 -63 29 -225 31 -360 4 -51 -10 -95
-16 -98 -13 -8 8 87 145 171 246 41 49 103 110 137 135 87 62 100 78 106 134
12 130 -119 221 -233 163z"/>
<path d="M4560 4497 c-116 -36 -341 -128 -377 -154 -55 -40 -67 -128 -26 -190
19 -28 82 -63 114 -63 12 0 82 23 155 50 73 28 140 50 148 50 31 0 -81 -197
-242 -427 -113 -161 -128 -193 -113 -250 11 -40 64 -103 86 -103 8 0 22 -11
32 -24 31 -38 71 -53 239 -86 193 -38 286 -60 297 -69 9 -9 -38 -96 -182 -335
-121 -203 -131 -229 -105 -282 59 -118 199 -107 273 21 19 33 83 134 142 225
128 198 154 249 175 337 12 53 13 76 4 111 -38 151 -107 193 -412 252 -93 18
-168 36 -168 41 0 4 27 50 61 101 80 122 193 354 218 448 43 155 18 283 -65
340 -53 35 -152 38 -254 7z"/>
<path d="M3800 3668 c-83 -24 -138 -103 -126 -180 9 -54 39 -110 76 -142 35
-29 53 -34 120 -38 45 -3 45 -3 44 -38 -1 -19 -8 -53 -17 -75 l-15 -40 -70 -6
c-132 -12 -242 -62 -330 -149 -56 -55 -97 -118 -106 -165 -17 -79 54 -164 142
-173 63 -6 112 17 151 70 17 22 45 50 63 63 45 30 126 48 180 40 100 -15 182
40 197 132 4 28 16 59 26 69 10 10 30 43 44 74 22 47 26 69 26 150 0 88 -3
101 -33 163 -83 169 -252 280 -372 245z"/>
<path d="M2477 3584 c-134 -24 -356 -120 -396 -170 -41 -53 -39 -131 6 -185
62 -73 148 -82 258 -27 89 45 195 78 251 78 l44 0 0 -41 c0 -83 -74 -256 -218
-508 -63 -111 -66 -119 -66 -181 1 -117 45 -227 107 -268 70 -46 117 -43 322
26 204 67 235 76 235 64 0 -17 -38 -120 -90 -242 -57 -134 -59 -161 -24 -235
37 -78 154 -129 244 -105 80 22 100 54 179 293 80 243 100 350 82 438 -28 135
-124 235 -247 257 -65 11 -175 -1 -289 -32 -49 -14 -90 -24 -92 -22 -2 1 31
80 72 174 92 207 115 305 98 407 -26 151 -123 252 -271 284 -66 14 -107 13
-205 -5z"/>
<path d="M1144 3356 c-113 -36 -313 -186 -356 -267 -53 -97 -24 -191 71 -241
60 -31 105 -35 158 -13 20 8 38 13 40 11 5 -5 -36 -236 -85 -481 -31 -152 -36
-201 -37 -315 0 -156 9 -190 64 -244 41 -40 140 -76 209 -76 78 0 90 12 268
282 235 357 331 499 353 527 l19 25 16 -38 c9 -21 16 -59 16 -85 0 -73 -28
-266 -66 -460 -45 -232 -58 -339 -51 -439 13 -177 91 -258 222 -230 91 19 143
105 116 193 -30 94 -24 182 30 460 59 311 74 545 44 690 -8 38 -15 88 -15 109
0 68 -31 147 -76 192 -71 72 -187 81 -282 20 -84 -53 -250 -250 -369 -438 -31
-49 -58 -87 -60 -85 -2 3 15 107 39 233 37 200 42 247 43 374 0 137 -1 148
-26 195 -38 74 -92 109 -177 112 -37 1 -86 -3 -108 -11z"/>
<path d="M4703 2293 c-68 -24 -129 -90 -150 -163 l-17 -61 -75 8 c-42 4 -130
8 -196 7 -140 0 -212 -16 -330 -73 -196 -94 -275 -237 -275 -501 l0 -110 -87
67 c-130 98 -178 118 -288 118 -76 0 -98 -4 -145 -26 -142 -67 -257 -206 -392
-472 l-52 -102 -8 55 c-44 300 -75 433 -128 552 -39 88 -109 138 -194 138 -81
0 -134 -33 -167 -105 -26 -57 -23 -109 11 -204 17 -46 55 -203 85 -350 85
-420 118 -492 260 -558 52 -24 72 -28 150 -28 103 0 166 19 207 63 15 15 56
101 93 192 99 244 165 369 233 443 34 36 51 34 106 -10 208 -172 259 -210 322
-240 123 -59 249 -45 352 37 36 28 58 58 87 116 46 92 56 171 47 385 -4 109
-2 138 9 145 30 18 120 21 249 7 194 -21 318 -15 396 21 100 45 171 134 205
256 18 66 17 217 -3 261 -53 121 -181 176 -305 132z"/>
</g>
</svg>
