<?xml version="1.0" standalone="no"?>
<!DOCTYPE svg PUBLIC "-//W3C//DTD SVG 20010904//EN"
 "http://www.w3.org/TR/2001/REC-SVG-20010904/DTD/svg10.dtd">
<svg version="1.0" xmlns="http://www.w3.org/2000/svg"
 width="600.000000pt" height="600.000000pt" viewBox="0 0 600.000000 600.000000"
 preserveAspectRatio="xMidYMid meet">
<metadata>
Created by potrace 1.15, written by Peter Selinger 2001-2017
</metadata>
<g transform="translate(0.000000,600.000000) scale(0.100000,-0.100000)"
fill="#16364b" stroke="none">
<path d="M1351 5655 c-112 -74 -211 -145 -220 -157 -41 -59 -26 -134 33 -165
58 -31 135 -21 421 54 146 38 174 49 198 74 35 38 36 87 3 126 -21 25 -31 28
-80 27 -31 0 -56 2 -56 5 0 4 7 15 15 25 8 11 15 33 15 49 0 39 -57 97 -97 97
-20 0 -90 -41 -232 -135z"/>
<path d="M2371 5412 c-27 -26 -28 -31 -34 -172 -14 -305 -64 -501 -153 -600
-21 -23 -74 -63 -117 -88 -43 -25 -85 -55 -93 -66 -40 -58 11 -156 81 -156 29
0 132 59 207 118 183 146 243 306 268 722 11 180 4 229 -33 255 -36 25 -94 19
-126 -13z"/>
<path d="M3507 5319 c-29 -17 -60 -88 -54 -126 16 -97 134 -256 219 -296 59
-28 121 -23 161 13 39 34 50 69 37 124 -22 99 -149 250 -234 279 -56 19 -103
21 -129 6z"/>
<path d="M2991 5137 c-89 -34 -171 -168 -178 -290 -5 -84 13 -127 67 -164 37
-26 111 -31 157 -11 67 29 130 79 146 115 42 96 47 187 13 259 -38 81 -126
120 -205 91z m31 -249 c-7 -7 -12 -8 -12 -2 0 6 3 14 7 17 3 4 9 5 12 2 2 -3
-1 -11 -7 -17z"/>
<path d="M4793 4766 c-62 -28 -73 -68 -74 -273 -2 -198 24 -287 105 -371 95
-99 230 -87 307 28 32 48 43 105 37 190 -8 110 -121 295 -239 391 -53 43 -93
53 -136 35z"/>
<path d="M2630 4208 c-78 -40 -119 -128 -100 -213 32 -144 130 -219 285 -219
70 0 89 5 155 36 101 47 196 126 211 177 14 47 0 97 -37 134 -25 25 -143 68
-259 93 -98 22 -203 18 -255 -8z"/>
<path d="M1113 4125 c-60 -26 -87 -102 -60 -167 19 -45 49 -65 124 -85 63 -16
118 -41 110 -50 -10 -10 -121 -3 -172 10 -66 18 -113 7 -147 -33 -34 -41 -43
-89 -24 -134 19 -45 46 -61 131 -82 93 -22 247 -15 326 15 62 24 115 70 135
118 20 47 17 140 -6 190 -40 90 -171 180 -316 217 -72 19 -61 19 -101 1z"/>
<path d="M4224 3780 c-109 -22 -215 -103 -265 -205 -26 -52 -31 -75 -31 -134
0 -161 118 -265 302 -266 73 0 93 4 142 28 124 61 194 189 213 389 8 83 -9
126 -63 155 -67 38 -200 52 -298 33z m46 -280 c0 -13 -37 -50 -49 -50 -20 0
-21 20 -1 40 21 21 50 27 50 10z"/>
<path d="M5205 3756 c-113 -27 -203 -95 -247 -185 -33 -66 -33 -204 0 -277 54
-119 175 -191 302 -181 179 15 310 128 339 294 24 132 -26 224 -178 327 -46
31 -61 36 -110 35 -31 0 -79 -6 -106 -13z m90 -307 c8 -12 -23 -49 -42 -49 -7
0 -13 8 -13 18 0 33 40 56 55 31z"/>
<path d="M1655 3699 c-54 -31 -56 -61 -15 -216 51 -196 81 -243 152 -243 115
1 117 162 5 362 -20 35 -44 71 -54 80 -25 23 -64 30 -88 17z"/>
<path d="M3429 3373 c-56 -34 -176 -289 -165 -348 18 -95 142 -94 226 1 63 73
109 205 96 277 -13 72 -96 108 -157 70z"/>
<path d="M2022 3069 c-46 -5 -150 -22 -230 -38 -81 -16 -178 -35 -217 -41 -38
-7 -104 -23 -145 -36 -399 -124 -559 -603 -312 -936 55 -74 122 -134 226 -202
89 -59 180 -141 228 -206 14 -19 58 -90 97 -158 82 -143 139 -214 225 -278
171 -129 356 -170 577 -128 46 8 149 37 229 64 114 38 169 51 260 60 428 42
710 179 1043 508 262 258 358 551 252 767 -34 69 -135 193 -206 254 -62 52
-150 100 -232 126 -77 25 -85 25 -416 25 -381 0 -393 2 -597 81 -203 78 -329
118 -404 128 -119 16 -288 20 -378 10z m263 -380 c65 -7 157 -33 330 -90 402
-133 392 -131 786 -133 l336 -1 48 -38 c75 -58 125 -130 125 -181 -1 -54 -37
-140 -93 -218 -50 -71 -203 -214 -294 -276 -166 -113 -365 -176 -632 -202
-136 -14 -149 -17 -306 -71 -100 -35 -136 -42 -222 -47 -68 -3 -118 -1 -148 8
-76 21 -140 89 -234 247 -139 235 -259 365 -432 468 -124 74 -167 139 -156
235 16 138 87 187 360 249 277 64 353 72 532 50z"/>
<path d="M428 2163 c-45 -47 -44 -69 5 -186 66 -157 113 -235 186 -308 48 -47
80 -70 115 -82 145 -49 266 19 266 150 -1 70 -31 126 -113 207 -79 79 -148
129 -276 200 -101 56 -144 60 -183 19z"/>
<path d="M4810 1603 c-14 -9 -27 -20 -30 -24 -3 -3 -35 -6 -72 -5 -57 1 -70
-2 -92 -23 -41 -39 -47 -78 -26 -179 49 -238 114 -333 219 -319 86 11 142 86
175 235 27 122 31 213 11 255 -32 69 -128 99 -185 60z"/>
</g>
</svg>
