<?xml version="1.0" standalone="no"?>
<!DOCTYPE svg PUBLIC "-//W3C//DTD SVG 20010904//EN"
 "http://www.w3.org/TR/2001/REC-SVG-20010904/DTD/svg10.dtd">
<svg version="1.0" xmlns="http://www.w3.org/2000/svg"
 width="600.000000pt" height="600.000000pt" viewBox="0 0 600.000000 600.000000"
 preserveAspectRatio="xMidYMid meet">
<metadata>
Created by potrace 1.15, written by Peter Selinger 2001-2017
</metadata>
<g transform="translate(0.000000,600.000000) scale(0.100000,-0.100000)"
fill="#16364b" stroke="none">
<path d="M1555 5761 c-11 -5 -65 -47 -120 -93 -55 -46 -122 -101 -150 -122
-154 -116 -187 -188 -120 -260 38 -41 103 -36 277 20 235 76 344 121 373 155
34 41 34 91 -1 126 -22 22 -32 25 -72 20 -26 -2 -55 -8 -66 -12 -17 -8 -17 -6
-2 23 22 43 20 86 -6 117 -25 28 -80 41 -113 26z"/>
<path d="M2353 5416 l-28 -24 -7 -199 c-7 -229 -28 -346 -82 -460 -44 -92
-104 -152 -204 -202 -87 -44 -110 -74 -97 -130 8 -39 58 -81 96 -81 39 0 164
62 233 117 166 130 255 403 256 782 l0 153 -34 34 c-43 43 -91 46 -133 10z"/>
<path d="M3524 5311 c-40 -17 -79 -80 -78 -125 2 -94 82 -204 187 -256 125
-62 233 -31 244 72 10 89 -83 235 -179 282 -59 28 -141 41 -174 27z"/>
<path d="M3025 5131 c-141 -35 -253 -221 -216 -359 34 -130 159 -155 300 -61
78 52 96 95 96 231 0 82 -3 101 -21 124 -42 57 -98 80 -159 65z"/>
<path d="M4771 4773 c-59 -31 -71 -57 -78 -168 -6 -113 9 -252 37 -331 70
-201 260 -275 384 -151 90 91 92 248 3 406 -59 105 -211 243 -282 256 -19 4
-43 -1 -64 -12z"/>
<path d="M2685 4209 c-57 -14 -116 -58 -144 -108 -52 -94 -15 -220 83 -288
130 -90 292 -65 453 68 85 70 107 106 101 171 -9 86 -45 109 -243 154 -68 15
-190 16 -250 3z"/>
<path d="M1121 4139 c-50 -11 -92 -58 -98 -110 -7 -62 26 -109 87 -127 25 -7
75 -22 113 -33 118 -36 76 -55 -101 -46 -86 4 -125 2 -148 -8 -82 -34 -85
-178 -5 -219 48 -25 158 -39 275 -34 95 4 119 9 168 32 107 51 158 123 158
223 0 72 -24 127 -79 182 -83 83 -282 158 -370 140z"/>
<path d="M4161 3759 c-90 -29 -172 -110 -197 -194 -47 -163 48 -351 201 -400
130 -41 276 24 363 160 35 55 59 137 67 231 6 72 5 82 -17 114 -26 40 -86 72
-173 95 -80 20 -167 18 -244 -6z m139 -276 c0 -14 -15 -30 -37 -42 -32 -16
-43 7 -13 31 23 18 50 24 50 11z"/>
<path d="M5226 3739 c-123 -18 -238 -97 -288 -198 -19 -37 -23 -63 -23 -136 0
-85 2 -94 36 -155 67 -121 186 -190 305 -175 166 20 294 163 303 337 3 65 -1
85 -21 130 -14 29 -44 71 -68 93 -24 22 -51 48 -61 57 -51 48 -94 59 -183 47z
m44 -319 c0 -14 -30 -40 -46 -40 -22 0 -16 36 9 47 23 11 37 8 37 -7z"/>
<path d="M1647 3702 c-36 -22 -41 -46 -34 -151 7 -94 37 -206 69 -260 53 -85
167 -96 212 -19 23 37 24 127 2 200 -33 115 -138 248 -195 248 -14 0 -39 -8
-54 -18z"/>
<path d="M3434 3380 c-38 -15 -99 -97 -153 -205 -48 -97 -53 -112 -45 -144 10
-41 62 -81 103 -81 14 0 49 11 77 24 129 60 223 237 181 339 -26 61 -101 92
-163 67z"/>
<path d="M2014 3035 c-123 -14 -335 -59 -434 -93 -202 -70 -372 -216 -461
-397 -52 -107 -69 -180 -69 -298 0 -117 18 -194 68 -296 49 -101 128 -183 267
-276 159 -106 202 -148 293 -283 44 -64 102 -138 130 -164 237 -222 551 -256
931 -103 67 27 156 52 241 69 247 49 404 114 611 251 250 167 436 386 503 592
24 73 34 184 23 261 -24 185 -195 384 -413 483 -95 43 -430 127 -559 140 -108
11 -179 23 -320 54 -344 76 -532 90 -811 60z m601 -391 c50 -8 188 -40 309
-70 120 -30 236 -54 259 -54 50 0 338 -75 390 -102 54 -27 125 -95 149 -142
18 -35 19 -45 9 -91 -57 -256 -484 -549 -923 -634 -57 -11 -132 -32 -168 -47
-216 -88 -371 -104 -478 -50 -60 31 -103 77 -182 196 -80 119 -225 264 -349
349 -169 115 -191 144 -191 248 0 101 68 202 180 270 64 39 295 103 460 128
124 19 425 18 535 -1z"/>
<path d="M399 2191 c-40 -41 -38 -69 21 -207 127 -297 266 -448 412 -449 61 0
93 17 132 69 17 22 21 42 21 99 -1 62 -6 81 -34 137 -39 75 -147 189 -231 242
-109 70 -241 138 -266 138 -15 0 -38 -12 -55 -29z"/>
<path d="M4786 1690 c-16 -5 -40 -19 -53 -32 -21 -19 -35 -23 -93 -23 -59 0
-72 -3 -95 -25 -59 -55 -67 -112 -40 -258 39 -205 93 -282 200 -282 50 0 104
24 133 59 21 26 68 132 80 181 22 93 34 237 22 279 -11 41 -61 101 -85 101 -7
0 -19 2 -27 4 -7 2 -26 0 -42 -4z"/>
</g>
</svg>
