<?xml version="1.0" standalone="no"?>
<!DOCTYPE svg PUBLIC "-//W3C//DTD SVG 20010904//EN"
 "http://www.w3.org/TR/2001/REC-SVG-20010904/DTD/svg10.dtd">
<svg version="1.0" xmlns="http://www.w3.org/2000/svg"
 width="600.000000pt" height="600.000000pt" viewBox="0 0 600.000000 600.000000"
 preserveAspectRatio="xMidYMid meet">
<metadata>
Created by potrace 1.15, written by Peter Selinger 2001-2017
</metadata>
<g transform="translate(0.000000,600.000000) scale(0.100000,-0.100000)"
fill="#16364b" stroke="none">
<path d="M3009 5071 c-78 -43 -128 -132 -129 -227 0 -51 4 -65 25 -88 70 -76
228 23 271 171 17 60 9 107 -26 138 -29 26 -98 29 -141 6z m85 -57 c41 -16 3
-119 -65 -178 -57 -49 -79 -48 -79 3 0 67 40 137 95 165 35 19 30 17 49 10z"/>
<path d="M4763 4740 c-43 -18 -46 -37 -41 -319 5 -294 12 -334 62 -347 39 -9
74 3 93 33 16 24 18 52 17 228 0 227 -15 361 -41 387 -23 22 -62 30 -90 18z"/>
<path d="M1657 4346 c-62 -23 -108 -65 -134 -124 -42 -91 -22 -181 67 -293 44
-56 89 -175 131 -344 44 -180 59 -321 69 -630 5 -154 13 -318 19 -365 5 -47
12 -185 16 -308 9 -368 59 -578 178 -752 94 -136 258 -239 457 -285 41 -10 80
-19 86 -20 7 -2 8 -28 2 -81 -14 -142 9 -280 83 -506 27 -82 49 -153 49 -157
0 -5 -40 -10 -88 -13 -103 -6 -139 -20 -166 -67 -18 -31 -18 -37 -5 -75 20
-59 63 -79 152 -72 73 5 164 41 205 79 33 31 62 90 62 127 0 17 -22 102 -49
188 -27 86 -57 195 -67 242 -21 97 -25 293 -7 311 8 8 25 8 60 1 52 -12 479
-27 743 -27 l166 0 0 -115 c-1 -121 20 -236 85 -474 17 -60 26 -112 22 -117
-4 -4 -50 -9 -101 -11 -88 -3 -95 -5 -118 -31 -34 -39 -39 -69 -18 -112 22
-46 63 -65 142 -65 110 0 206 53 243 134 26 57 24 79 -16 205 -34 109 -79 324
-90 431 -3 30 0 82 7 115 l13 59 135 27 c247 49 512 130 618 190 238 134 355
327 355 584 -1 117 -26 210 -88 322 -53 95 -161 201 -250 244 l-70 34 -245 7
c-266 7 -273 8 -645 97 -353 85 -530 166 -754 345 -137 109 -205 195 -351 441
-118 199 -296 460 -399 585 -88 108 -219 227 -278 256 -70 33 -169 42 -226 20z
m140 -151 c20 -9 87 -68 159 -140 171 -174 314 -367 454 -615 164 -290 308
-456 515 -596 216 -147 363 -208 705 -295 326 -83 451 -101 690 -103 192 -1
208 -2 252 -24 103 -51 211 -223 239 -379 33 -191 -57 -373 -239 -483 -98 -60
-375 -149 -582 -189 -199 -38 -362 -44 -765 -32 -203 6 -389 16 -413 21 -23 6
-64 10 -90 10 -26 0 -88 7 -139 15 -308 50 -458 170 -547 438 -44 134 -57 230
-66 519 -5 150 -14 307 -20 348 -6 41 -15 224 -20 405 -8 291 -12 344 -34 450
-47 223 -100 359 -187 476 -62 84 -69 128 -25 165 31 28 62 30 113 9z"/>
<path d="M2466 2574 c-26 -26 -20 -70 13 -93 38 -28 55 -26 80 5 26 33 27 66
3 87 -23 21 -76 22 -96 1z"/>
<path d="M2932 2284 c-39 -27 -24 -82 28 -109 37 -19 67 -7 76 30 9 38 -3 70
-31 83 -34 16 -46 15 -73 -4z"/>
<path d="M2650 4237 c-39 -20 -55 -62 -41 -108 10 -34 20 -43 71 -69 81 -41
321 -120 365 -120 47 0 85 36 85 82 0 45 -22 74 -68 89 -20 6 -108 41 -195 75
-86 35 -165 64 -175 64 -9 0 -28 -6 -42 -13z"/>
<path d="M5243 3990 c-170 -34 -257 -194 -208 -385 34 -128 111 -220 212 -252
45 -14 65 -15 128 -6 192 27 327 165 328 332 1 108 -53 184 -185 263 -86 51
-177 67 -275 48z m145 -295 c10 -9 -13 -40 -32 -43 -23 -5 -46 16 -46 41 0 17
5 19 36 14 20 -3 39 -9 42 -12z"/>
<path d="M4235 3751 c-84 -22 -165 -95 -214 -193 -74 -147 -17 -313 129 -381
101 -47 245 -14 325 74 84 93 105 202 65 332 -22 70 -56 109 -130 147 -44 22
-130 33 -175 21z m75 -290 c0 -24 -40 -55 -54 -41 -12 12 19 60 39 60 8 0 15
-9 15 -19z"/>
<path d="M5307 1100 c-29 -23 -57 -97 -57 -153 0 -141 156 -188 210 -64 41 94
32 199 -18 226 -34 18 -106 13 -135 -9z"/>
</g>
</svg>
