<?xml version="1.0" standalone="no"?>
<!DOCTYPE svg PUBLIC "-//W3C//DTD SVG 20010904//EN"
 "http://www.w3.org/TR/2001/REC-SVG-20010904/DTD/svg10.dtd">
<svg version="1.0" xmlns="http://www.w3.org/2000/svg"
 width="600.000000pt" height="600.000000pt" viewBox="0 0 600.000000 600.000000"
 preserveAspectRatio="xMidYMid meet">
<metadata>
Created by potrace 1.15, written by Peter Selinger 2001-2017
</metadata>
<g transform="translate(0.000000,600.000000) scale(0.100000,-0.100000)"
fill="#16364b" stroke="none">
<path d="M2373 5415 c-31 -21 -43 -74 -43 -181 0 -124 -17 -281 -40 -382 -40
-169 -103 -254 -233 -317 -42 -20 -84 -46 -92 -58 -22 -32 -19 -74 10 -102 41
-42 82 -37 195 21 239 123 344 363 343 784 0 179 -5 209 -42 237 -22 17 -72
16 -98 -2z"/>
<path d="M3513 5278 c-53 -59 -54 -83 -7 -178 41 -80 128 -176 186 -203 41
-19 100 -22 129 -7 25 14 49 62 49 98 0 39 -49 134 -105 204 -77 96 -203 139
-252 86z"/>
<path d="M3005 5136 c-69 -32 -137 -137 -156 -242 -31 -167 72 -258 216 -190
77 35 120 82 140 150 34 118 16 223 -48 268 -37 26 -111 33 -152 14z m55 -190
c0 -24 -49 -92 -50 -70 0 14 25 76 36 87 12 11 14 9 14 -17z"/>
<path d="M4769 4745 c-14 -8 -31 -27 -37 -42 -16 -44 -23 -229 -12 -338 19
-189 71 -295 165 -330 59 -23 106 -13 155 31 56 51 80 122 80 232 -1 140 -48
244 -170 372 -89 93 -122 107 -181 75z"/>
<path d="M2666 4216 c-105 -39 -152 -144 -107 -241 73 -158 302 -200 503 -93
85 45 118 86 118 148 0 41 -5 55 -31 84 -68 79 -373 143 -483 102z"/>
<path d="M1099 4111 c-23 -23 -29 -38 -29 -71 0 -30 -7 -50 -25 -72 -50 -59
-25 -160 61 -240 107 -100 296 -64 355 66 51 112 -15 218 -186 302 -108 52
-136 55 -176 15z"/>
<path d="M5285 3869 c-107 -18 -221 -79 -272 -145 -76 -101 -68 -251 21 -367
39 -51 136 -113 197 -126 144 -31 340 71 409 214 35 72 39 169 11 229 -45 93
-214 210 -296 205 -11 -1 -42 -5 -70 -10z m55 -309 c21 -13 1 -44 -32 -48 -18
-2 -27 2 -31 17 -9 34 29 53 63 31z"/>
<path d="M4175 3769 c-160 -55 -244 -177 -233 -338 9 -119 66 -209 164 -257
49 -24 63 -26 137 -22 95 5 143 26 206 88 78 77 121 197 121 335 0 127 -32
171 -145 200 -82 21 -178 19 -250 -6z m115 -281 c0 -18 -31 -48 -51 -48 -13 0
-17 5 -12 18 13 33 63 57 63 30z"/>
<path d="M3426 3337 c-46 -46 -166 -276 -166 -319 0 -34 26 -65 60 -73 90 -20
246 163 258 300 4 44 1 55 -23 83 -34 41 -93 45 -129 9z"/>
<path d="M1625 3203 c-113 -6 -265 -26 -341 -43 -417 -96 -608 -476 -387 -770
81 -108 191 -172 369 -216 140 -34 182 -54 239 -115 57 -61 82 -114 141 -299
65 -207 99 -288 154 -373 94 -142 229 -242 388 -286 148 -41 300 -39 897 9
127 10 277 22 335 25 137 8 327 31 426 51 217 45 490 181 685 341 188 155 267
332 310 692 21 179 -19 323 -122 436 -109 119 -301 238 -427 264 -81 17 -209
13 -293 -8 -41 -10 -140 -49 -219 -86 -302 -140 -349 -156 -530 -175 -220 -23
-311 12 -731 281 -316 203 -419 246 -640 269 -96 9 -140 10 -254 3z m147 -393
c121 -12 251 -46 341 -90 33 -17 135 -79 226 -139 345 -225 462 -277 722 -317
57 -8 118 -18 135 -21 34 -5 211 25 339 59 114 30 216 75 343 152 171 103 212
119 285 114 35 -3 82 -14 108 -27 67 -32 178 -127 195 -167 40 -96 -9 -325
-101 -470 -85 -132 -393 -294 -647 -338 -94 -17 -365 -38 -703 -57 -153 -8
-241 -18 -325 -36 -227 -50 -402 -32 -495 49 -64 56 -95 119 -170 338 -88 259
-147 372 -245 471 -97 97 -194 147 -370 190 -69 17 -136 38 -150 46 -88 55
-77 134 25 186 33 16 236 54 320 60 28 2 52 4 55 5 3 1 53 -3 112 -8z"/>
<path d="M457 2109 c-43 -25 -56 -99 -25 -137 6 -7 26 -46 44 -88 60 -139 146
-224 247 -246 126 -26 208 93 146 214 -37 73 -146 164 -283 237 -61 32 -98 38
-129 20z"/>
<path d="M5123 1346 c-18 -8 -38 -24 -45 -35 -7 -12 -23 -21 -35 -21 -32 0
-81 -46 -92 -87 -19 -68 30 -211 83 -246 86 -56 191 -10 220 97 23 83 29 201
12 233 -31 62 -86 84 -143 59z"/>
</g>
</svg>
