<?xml version="1.0" standalone="no"?>
<!DOCTYPE svg PUBLIC "-//W3C//DTD SVG 20010904//EN"
 "http://www.w3.org/TR/2001/REC-SVG-20010904/DTD/svg10.dtd">
<svg version="1.0" xmlns="http://www.w3.org/2000/svg"
 width="600.000000pt" height="600.000000pt" viewBox="0 0 600.000000 600.000000"
 preserveAspectRatio="xMidYMid meet">
<metadata>
Created by potrace 1.15, written by Peter Selinger 2001-2017
</metadata>
<g transform="translate(0.000000,600.000000) scale(0.100000,-0.100000)"
fill="#16364b" stroke="none">
<path d="M1995 5830 c-41 -13 -60 -35 -212 -245 -224 -312 -275 -394 -298
-481 -21 -80 -2 -148 53 -194 103 -85 202 -61 537 132 278 160 346 207 366
252 52 115 -15 236 -131 236 -41 0 -61 -9 -156 -69 -60 -38 -111 -67 -113 -65
-3 2 6 19 19 37 110 147 134 191 138 246 4 65 -19 110 -67 135 -38 20 -99 27
-136 16z"/>
<path d="M3022 5689 c-44 -22 -82 -77 -82 -119 0 -31 25 -84 51 -110 13 -12
61 -39 106 -60 174 -81 336 -206 403 -311 36 -55 70 -150 70 -193 0 -62 -38
-98 -135 -127 -104 -30 -130 -44 -160 -83 -52 -68 -42 -143 25 -199 61 -52
163 -45 298 18 92 43 168 119 214 212 31 63 33 75 32 168 0 123 -30 223 -101
337 -115 186 -274 324 -501 435 -113 55 -161 62 -220 32z"/>
<path d="M1035 5399 c-166 -30 -350 -161 -417 -297 -56 -113 -50 -274 14 -402
55 -112 186 -230 269 -245 27 -5 50 -1 81 13 124 55 132 220 13 302 -118 81
-128 232 -19 296 24 14 67 32 96 40 38 9 63 24 90 53 103 109 20 267 -127 240z"/>
<path d="M2870 5040 c-56 -10 -93 -35 -152 -99 -76 -81 -112 -157 -116 -244
-5 -85 15 -141 69 -196 71 -71 116 -86 256 -86 116 0 123 1 148 25 72 67 73
173 2 238 l-25 24 30 56 c37 70 34 120 -9 190 -44 71 -124 107 -203 92z"/>
<path d="M4759 4897 c-51 -34 -79 -82 -79 -136 0 -62 26 -269 40 -323 32 -117
113 -218 203 -253 145 -55 337 43 397 203 51 133 -14 268 -181 378 -92 60
-286 154 -319 154 -15 0 -42 -10 -61 -23z"/>
<path d="M1912 4655 c-29 -8 -63 -20 -75 -26 -54 -28 -116 -82 -131 -113 -21
-44 -20 -112 2 -156 43 -86 147 -105 233 -42 64 47 84 43 113 -21 31 -71 71
-100 140 -100 90 -2 155 59 164 153 4 42 -1 61 -27 114 -77 156 -254 237 -419
191z"/>
<path d="M2977 3970 c-173 -44 -287 -212 -275 -403 11 -167 126 -289 314 -333
111 -25 189 13 214 107 25 90 -29 174 -129 202 -89 25 -115 63 -71 107 23 23
51 25 113 8 57 -15 110 -4 152 33 92 81 58 222 -63 264 -57 19 -202 28 -255
15z"/>
<path d="M1225 3944 c-82 -12 -254 -49 -281 -60 -76 -32 -120 -108 -112 -195
10 -103 90 -169 205 -169 l61 0 -130 -227 c-187 -327 -281 -504 -328 -617 -36
-85 -42 -106 -38 -152 8 -94 88 -168 183 -168 55 0 78 11 163 79 27 22 98 76
157 119 60 44 185 145 280 226 249 212 313 262 325 255 19 -12 -7 -163 -50
-295 -88 -272 -190 -504 -322 -739 -70 -123 -82 -151 -82 -191 0 -64 28 -110
86 -138 40 -20 52 -22 85 -13 54 15 77 42 189 226 120 198 180 322 279 585
125 331 145 413 145 590 0 182 -35 280 -119 335 -87 58 -194 41 -337 -53 -76
-50 -120 -84 -238 -181 -24 -20 -25 -21 69 124 97 152 119 190 145 262 56 154
-7 325 -138 380 -36 15 -145 24 -197 17z"/>
<path d="M4194 3786 c-177 -40 -284 -152 -284 -296 0 -97 59 -224 130 -280 56
-44 101 -60 175 -60 170 0 298 109 413 350 48 101 54 120 49 163 -5 52 -30 87
-82 115 -42 22 -316 27 -401 8z m56 -311 c-23 -25 -60 -34 -60 -15 0 11 49 39
69 40 10 0 7 -8 -9 -25z"/>
<path d="M3475 3376 c-98 -31 -160 -90 -213 -200 -61 -129 -65 -187 -15 -246
43 -52 91 -70 195 -73 84 -2 98 1 150 26 100 49 158 143 158 256 0 119 -58
208 -154 236 -58 18 -68 18 -121 1z"/>
<path d="M4942 2975 c-55 -24 -235 -211 -264 -275 -39 -84 -52 -159 -38 -226
15 -73 82 -146 149 -164 93 -25 211 21 303 118 63 66 91 116 113 199 32 123
16 202 -58 281 -76 80 -132 98 -205 67z"/>
<path d="M4024 2551 c-74 -34 -144 -144 -144 -227 0 -12 16 -82 35 -155 18
-73 33 -134 32 -136 -2 -1 -41 11 -87 27 -149 52 -252 37 -335 -46 -56 -58
-78 -114 -83 -215 -5 -104 8 -173 82 -434 61 -219 71 -240 126 -287 110 -95
273 -69 336 53 31 60 29 126 -5 232 -17 53 -31 100 -31 104 0 4 12 -5 28 -19
74 -69 162 -81 277 -36 181 71 256 217 226 439 -14 104 -65 310 -120 479 -35
110 -45 130 -83 167 -24 23 -60 49 -80 58 -50 20 -124 19 -174 -4z"/>
<path d="M2035 2143 c-40 -12 -66 -32 -135 -101 -48 -48 -105 -116 -129 -152
-40 -60 -43 -69 -39 -118 8 -91 89 -162 203 -178 l50 -7 -45 -12 c-108 -28
-197 -100 -248 -202 -142 -282 -92 -605 128 -830 102 -103 240 -188 425 -262
121 -47 223 -64 316 -51 147 21 370 121 485 218 80 68 104 109 104 177 -1 128
-139 233 -260 196 -21 -6 -64 -35 -97 -64 -80 -71 -118 -94 -194 -113 -125
-32 -281 0 -411 85 -127 82 -178 169 -178 301 0 79 11 114 48 153 37 39 67 36
91 -11 34 -66 108 -149 154 -171 97 -47 216 -9 264 84 18 33 20 123 4 154 -6
11 -30 42 -53 68 -23 26 -52 70 -64 98 l-23 49 30 13 c17 7 72 41 122 76 161
111 279 176 365 202 38 12 42 11 42 -4 0 -64 -124 -395 -209 -557 -56 -107
-62 -144 -32 -209 31 -70 114 -125 186 -125 36 1 102 37 128 71 38 52 221 424
255 519 78 224 99 429 53 523 -46 93 -140 147 -292 169 -165 23 -381 -48 -633
-208 -92 -58 -105 -59 -106 -7 0 35 -35 120 -66 160 -30 40 -114 83 -159 82
-16 0 -52 -7 -80 -16z"/>
</g>
</svg>
