<?xml version="1.0" standalone="no"?>
<!DOCTYPE svg PUBLIC "-//W3C//DTD SVG 20010904//EN"
 "http://www.w3.org/TR/2001/REC-SVG-20010904/DTD/svg10.dtd">
<svg version="1.0" xmlns="http://www.w3.org/2000/svg"
 width="600.000000pt" height="600.000000pt" viewBox="0 0 600.000000 600.000000"
 preserveAspectRatio="xMidYMid meet">
<metadata>
Created by potrace 1.15, written by Peter Selinger 2001-2017
</metadata>
<g transform="translate(0.000000,600.000000) scale(0.100000,-0.100000)"
fill="#16364b" stroke="none">
<path d="M3130 5629 c-39 -16 -60 -40 -95 -109 -46 -90 -65 -162 -65 -241 0
-188 108 -293 344 -335 43 -7 81 -16 83 -18 5 -5 -7 -13 -125 -80 -164 -93
-452 -316 -492 -381 -25 -41 -25 -95 0 -165 41 -115 182 -185 500 -250 85 -17
192 -42 236 -55 45 -14 94 -25 109 -25 41 0 95 30 117 64 28 45 21 136 -13
172 -43 48 -71 56 -454 138 -65 15 -123 30 -128 35 -17 17 183 153 451 305 85
47 170 100 191 116 100 81 118 220 38 303 -47 50 -129 76 -317 102 -91 13
-184 28 -208 35 -42 11 -43 12 -37 43 4 18 23 66 42 107 39 84 41 141 6 189
-39 52 -121 75 -183 50z"/>
<path d="M1421 5390 c-127 -70 -262 -195 -340 -314 -120 -184 -237 -541 -210
-639 25 -92 124 -143 200 -103 35 18 194 59 350 91 171 34 164 35 135 -22 -13
-27 -45 -83 -70 -126 -95 -161 -165 -324 -166 -386 -1 -14 -7 -37 -15 -51 -19
-33 -19 -102 1 -143 21 -45 75 -79 132 -84 40 -4 65 3 167 47 66 28 169 76
229 106 212 108 246 139 246 229 0 61 -24 110 -69 141 -53 36 -107 33 -187
-12 -35 -20 -64 -34 -64 -31 0 2 25 59 56 127 101 222 117 350 57 448 -21 35
-42 54 -82 75 -81 41 -179 38 -378 -10 -84 -20 -156 -34 -159 -30 -12 11 80
187 134 257 71 92 109 131 174 179 32 23 66 54 75 68 26 39 22 112 -6 152 -48
68 -123 79 -210 31z"/>
<path d="M4695 4449 c-57 -8 -171 -36 -416 -105 -8 -2 -28 -17 -44 -34 -58
-60 -40 -163 37 -210 45 -28 98 -25 238 10 65 17 122 30 125 30 6 0 -92 -145
-261 -386 -51 -72 -97 -148 -102 -168 -18 -63 17 -139 78 -171 21 -11 27 -20
23 -34 -7 -27 32 -106 63 -126 14 -9 78 -32 142 -51 145 -42 302 -102 302
-115 0 -18 -33 -74 -132 -222 -159 -238 -169 -266 -127 -354 47 -98 160 -120
232 -45 40 42 200 303 268 437 77 153 86 214 45 299 -49 101 -164 166 -421
242 -91 26 -164 53 -163 59 3 11 53 88 242 378 142 217 162 254 178 329 9 43
9 65 0 97 -34 112 -141 161 -307 140z"/>
<path d="M3813 3661 c-74 -34 -104 -121 -68 -191 8 -16 48 -54 88 -83 107 -80
147 -123 147 -157 0 -15 3 -36 7 -46 5 -14 3 -16 -13 -10 -10 5 -49 13 -86 19
-187 29 -375 -70 -463 -245 -42 -85 -46 -139 -12 -189 48 -71 118 -95 191 -65
36 15 62 45 110 126 24 41 37 54 51 52 67 -12 168 -13 202 -2 81 26 135 111
115 183 l-9 33 51 0 c92 0 146 61 146 167 0 74 -35 138 -141 252 -141 153
-229 197 -316 156z"/>
<path d="M2465 3636 c-143 -40 -304 -127 -342 -185 -49 -73 -22 -175 58 -220
62 -35 108 -28 233 34 74 37 129 57 165 62 l54 6 -6 -69 c-12 -142 -93 -323
-256 -572 -49 -75 -92 -151 -96 -169 -17 -82 45 -175 135 -200 115 -33 148
-30 267 25 115 53 204 86 267 97 37 7 38 7 31 -16 -16 -52 -86 -220 -134 -322
-43 -91 -51 -117 -51 -165 0 -162 177 -243 294 -134 46 43 249 476 281 601 48
186 -4 316 -155 388 -46 22 -72 27 -165 31 -74 2 -133 -1 -180 -11 -38 -8 -72
-13 -74 -11 -2 2 10 34 27 71 47 103 88 238 102 336 21 147 -3 255 -74 334
-66 73 -121 97 -236 100 -60 2 -114 -2 -145 -11z"/>
<path d="M1100 3411 c-65 -20 -243 -136 -315 -207 -72 -70 -82 -158 -28 -242
52 -79 161 -106 248 -62 21 11 40 18 42 17 1 -2 -18 -80 -43 -173 -101 -379
-128 -536 -123 -716 4 -110 6 -119 34 -159 41 -58 71 -78 151 -100 86 -23 114
-23 159 -2 53 25 194 218 395 538 62 99 131 207 153 239 l40 59 15 -28 c21
-41 8 -152 -98 -850 -25 -163 -22 -236 15 -312 77 -156 253 -177 311 -37 20
47 18 74 -11 130 -36 71 -40 36 59 604 34 197 50 413 36 510 -5 41 -17 128
-26 194 -25 193 -71 257 -189 264 -114 6 -185 -57 -365 -328 -180 -271 -222
-332 -226 -327 -3 3 18 94 47 203 61 236 79 339 79 455 0 151 -45 244 -150
307 -47 28 -63 32 -120 31 -36 0 -76 -4 -90 -8z"/>
<path d="M4635 2172 c-72 -35 -135 -121 -135 -187 0 -33 -15 -32 -196 1 -301
55 -474 21 -597 -116 -74 -82 -100 -175 -112 -390 -4 -63 -9 -122 -11 -131 -3
-12 -23 3 -75 53 -137 135 -228 175 -376 166 -100 -6 -173 -38 -249 -110 -60
-56 -145 -177 -190 -270 -16 -32 -31 -58 -35 -58 -3 0 -9 37 -13 83 -22 270
-67 446 -135 517 -81 85 -216 74 -295 -23 -43 -54 -47 -126 -12 -201 29 -60
46 -165 66 -391 28 -329 116 -507 288 -588 56 -26 82 -32 158 -35 76 -4 97 -1
130 16 76 39 109 102 99 191 -5 48 -1 71 29 158 44 129 97 239 140 289 32 37
34 38 57 23 13 -9 82 -71 153 -138 70 -68 152 -138 182 -157 64 -41 162 -68
212 -59 88 16 177 86 222 175 9 19 29 56 44 81 32 56 62 190 79 348 l12 116
80 -2 c44 -1 184 -3 310 -5 l230 -3 55 27 c79 39 132 88 167 155 40 75 57 164
50 255 -8 90 -39 153 -96 193 -37 26 -53 30 -119 33 -59 2 -86 -2 -117 -16z"/>
</g>
</svg>
