<?xml version="1.0" standalone="no"?>
<!DOCTYPE svg PUBLIC "-//W3C//DTD SVG 20010904//EN"
 "http://www.w3.org/TR/2001/REC-SVG-20010904/DTD/svg10.dtd">
<svg version="1.0" xmlns="http://www.w3.org/2000/svg"
 width="600.000000pt" height="600.000000pt" viewBox="0 0 600.000000 600.000000"
 preserveAspectRatio="xMidYMid meet">
<metadata>
Created by potrace 1.15, written by Peter Selinger 2001-2017
</metadata>
<g transform="translate(0.000000,600.000000) scale(0.100000,-0.100000)"
fill="#16364b" stroke="none">
<path d="M2768 5597 c-45 -11 -98 -66 -99 -105 -2 -48 2 -66 31 -137 45 -110
62 -213 64 -371 2 -138 3 -143 29 -177 74 -97 224 -60 257 64 17 59 7 351 -15
439 -32 132 -88 245 -134 270 -35 18 -96 26 -133 17z"/>
<path d="M1960 5428 c-58 -30 -90 -78 -90 -135 0 -55 3 -61 109 -203 48 -63
102 -137 121 -165 98 -145 224 -304 254 -320 70 -38 182 0 212 71 28 66 19
106 -38 181 -83 107 -287 381 -356 477 -85 118 -127 136 -212 94z"/>
<path d="M4372 4810 c-34 -15 -47 -29 -63 -65 -19 -43 -20 -53 -9 -138 6 -51
20 -130 31 -177 37 -155 154 -356 231 -396 74 -38 163 -7 193 68 21 54 14 93
-31 159 -76 109 -114 218 -134 378 -12 102 -41 151 -101 175 -50 20 -65 20
-117 -4z"/>
<path d="M1423 4760 c-115 -59 -117 -210 -3 -267 37 -19 60 -23 143 -23 153 0
321 -43 418 -107 73 -48 149 -40 209 22 29 30 34 43 38 92 5 80 -19 114 -118
164 -145 75 -332 121 -540 134 -95 6 -109 4 -147 -15z"/>
<path d="M3175 4536 c-36 -16 -56 -38 -167 -182 -109 -140 -202 -239 -316
-337 -129 -112 -150 -177 -81 -261 42 -51 94 -65 155 -41 98 37 564 539 601
648 23 67 -7 141 -71 171 -41 19 -80 20 -121 2z"/>
<path d="M2280 4288 c-88 -32 -242 -36 -369 -8 -120 26 -156 22 -199 -23 -76
-79 -63 -215 26 -261 49 -25 243 -58 342 -58 146 -1 339 47 401 99 86 73 77
185 -20 250 -43 29 -105 29 -181 1z"/>
<path d="M3845 4171 c-23 -10 -49 -31 -60 -47 -33 -50 -217 -233 -285 -284
-102 -75 -161 -107 -380 -205 -240 -108 -261 -125 -268 -225 -4 -48 0 -65 17
-93 23 -38 74 -67 115 -67 28 0 405 158 491 205 99 55 211 142 336 263 162
157 237 252 245 313 7 60 -19 107 -76 137 -53 27 -82 27 -135 3z"/>
<path d="M5080 3781 c-45 -14 -84 -39 -111 -68 -60 -64 -74 -130 -52 -233 37
-167 14 -337 -71 -515 -79 -167 -165 -273 -310 -380 -86 -63 -116 -113 -116
-191 0 -144 98 -255 225 -255 68 0 111 22 222 114 278 232 460 517 518 812 14
72 16 121 12 255 -9 269 -47 384 -145 438 -45 25 -131 37 -172 23z"/>
<path d="M2260 3752 c-84 -22 -116 -25 -275 -26 -113 -1 -200 4 -234 12 -69
16 -124 2 -167 -43 -56 -59 -53 -153 5 -209 42 -40 114 -56 276 -63 152 -6
285 5 463 38 131 25 167 45 200 111 33 65 24 119 -28 170 -35 35 -42 38 -91
37 -30 -1 -97 -13 -149 -27z"/>
<path d="M1976 3130 c-65 -20 -116 -95 -116 -170 0 -55 22 -94 73 -131 88 -63
204 -99 327 -99 109 0 303 34 338 59 85 60 91 163 13 234 -51 46 -83 52 -203
37 -131 -16 -197 -8 -273 34 -67 38 -116 49 -159 36z"/>
<path d="M4442 3099 c-13 -5 -47 -29 -75 -52 -104 -87 -186 -134 -341 -194
-297 -115 -464 -163 -621 -178 -113 -12 -172 -55 -191 -137 -10 -47 32 -117
85 -145 81 -42 271 -25 529 47 264 74 411 139 602 266 158 105 220 176 220
254 0 107 -108 180 -208 139z"/>
<path d="M1463 2911 c-25 -12 -52 -35 -68 -59 -61 -92 -95 -422 -61 -593 43
-217 136 -401 304 -598 71 -84 149 -109 229 -76 72 30 113 93 113 170 0 57
-17 90 -86 172 -62 73 -116 174 -138 260 -23 86 -36 274 -33 454 l2 157 -30
43 c-35 51 -102 89 -155 89 -19 0 -54 -9 -77 -19z"/>
<path d="M2165 2351 c-54 -26 -89 -80 -89 -140 0 -64 23 -97 107 -157 94 -68
313 -191 354 -199 105 -21 209 83 189 189 -11 55 -50 90 -171 150 -60 30 -141
76 -180 102 -119 79 -144 86 -210 55z"/>
<path d="M4090 2016 c-140 -46 -295 -98 -345 -115 -152 -53 -262 -79 -453
-106 -235 -34 -373 -60 -410 -79 -70 -36 -121 -131 -107 -199 19 -89 97 -143
205 -140 100 3 414 42 518 64 149 32 645 184 800 245 152 59 205 94 228 151
19 44 18 107 -2 146 -34 66 -70 93 -154 110 -16 4 -118 -25 -280 -77z"/>
<path d="M4905 1724 c-16 -9 -64 -49 -105 -89 -91 -87 -168 -146 -286 -218
-197 -120 -321 -158 -634 -197 -187 -23 -219 -33 -270 -83 -42 -41 -60 -84
-60 -144 0 -73 37 -126 110 -159 40 -18 147 -15 347 11 338 44 552 119 778
269 183 123 371 316 395 406 20 76 -20 164 -90 200 -48 24 -142 26 -185 4z"/>
<path d="M1982 1353 c-35 -7 -89 -66 -96 -107 -4 -20 -4 -53 0 -73 16 -86 203
-216 408 -284 146 -49 234 -62 393 -57 124 3 133 4 158 28 63 59 72 147 22
213 -42 56 -78 67 -214 67 -189 0 -332 46 -496 159 -72 50 -121 66 -175 54z"/>
<path d="M2005 886 c-40 -18 -90 -73 -104 -115 -24 -74 -3 -157 55 -215 63
-62 266 -147 452 -189 86 -19 127 -21 367 -21 288 0 422 14 511 54 127 56 131
255 8 339 -48 33 -95 35 -239 11 -305 -52 -555 -20 -836 107 -103 46 -158 54
-214 29z"/>
</g>
</svg>
