<?xml version="1.0" standalone="no"?>
<!DOCTYPE svg PUBLIC "-//W3C//DTD SVG 20010904//EN"
 "http://www.w3.org/TR/2001/REC-SVG-20010904/DTD/svg10.dtd">
<svg version="1.0" xmlns="http://www.w3.org/2000/svg"
 width="600.000000pt" height="600.000000pt" viewBox="0 0 600.000000 600.000000"
 preserveAspectRatio="xMidYMid meet">
<metadata>
Created by potrace 1.15, written by Peter Selinger 2001-2017
</metadata>
<g transform="translate(0.000000,600.000000) scale(0.100000,-0.100000)"
fill="#16364b" stroke="none">
<path d="M2224 5440 c-59 -24 -114 -151 -114 -264 0 -191 160 -284 424 -246
38 6 70 9 72 7 2 -2 -48 -104 -110 -227 -173 -346 -193 -430 -122 -508 28 -30
40 -36 88 -40 99 -8 129 19 191 173 24 61 88 192 141 291 151 283 173 367 120
472 -31 63 -81 106 -148 128 -40 14 -72 16 -170 10 -67 -4 -137 -9 -157 -12
l-36 -6 10 49 c24 117 -84 216 -189 173z"/>
<path d="M3752 5185 c-102 -29 -163 -73 -183 -132 -22 -68 14 -158 75 -187 47
-22 77 -20 146 9 69 29 135 33 144 9 22 -57 -5 -190 -71 -352 -36 -90 -44
-122 -40 -152 11 -86 94 -142 175 -121 60 17 92 55 141 172 64 151 82 219 88
345 5 96 3 121 -15 180 -30 97 -81 161 -164 203 -57 29 -78 34 -154 37 -59 3
-107 -1 -142 -11z"/>
<path d="M1835 4914 c-287 -43 -489 -109 -612 -201 -87 -66 -81 -199 11 -260
26 -17 35 -31 40 -64 11 -68 64 -112 163 -133 248 -54 402 -98 488 -141 66
-33 102 -45 134 -45 130 0 204 144 127 249 -42 56 -159 128 -255 157 -37 11
-294 64 -310 64 -3 0 -1 4 5 9 18 17 179 62 244 68 79 7 130 31 166 78 54 71
37 172 -33 204 -30 14 -120 22 -168 15z"/>
<path d="M3170 4335 c-47 -12 -121 -32 -165 -44 -128 -35 -471 -152 -504 -172
-122 -74 -72 -259 70 -259 20 0 81 16 135 36 225 81 399 131 571 164 74 15
117 39 143 82 39 63 17 162 -44 199 -41 25 -99 23 -206 -6z"/>
<path d="M4335 4279 c-144 -16 -200 -58 -200 -149 0 -56 23 -94 75 -125 29
-16 47 -18 129 -15 185 9 307 6 325 -9 34 -28 10 -200 -54 -385 -25 -74 -26
-132 0 -173 53 -87 172 -94 230 -13 25 34 107 354 119 462 24 218 -50 344
-231 394 -67 19 -276 26 -393 13z"/>
<path d="M2116 3874 c-120 -36 -246 -55 -408 -63 -126 -5 -151 -9 -175 -27
-87 -64 -79 -212 15 -267 61 -36 299 -18 522 39 226 57 277 81 310 150 25 51
25 75 0 123 -37 74 -121 88 -264 45z"/>
<path d="M3690 3736 c-116 -33 -524 -221 -574 -264 -30 -28 -46 -68 -46 -119
0 -89 63 -153 150 -153 38 0 72 15 225 100 98 55 183 100 187 100 14 0 9 -17
-27 -96 -59 -129 -45 -213 43 -255 55 -27 102 -19 147 24 40 39 166 308 191
411 28 112 -4 204 -86 246 -45 23 -138 26 -210 6z"/>
<path d="M2158 3270 c-122 -9 -163 -25 -198 -77 -33 -49 -35 -138 -4 -180 42
-58 66 -62 279 -56 106 3 200 3 209 0 14 -6 14 -10 1 -48 -30 -85 -10 -154 57
-194 72 -42 192 -14 232 55 45 76 58 218 28 302 -30 83 -73 132 -148 169 -67
33 -71 34 -209 35 -77 1 -188 -2 -247 -6z"/>
<path d="M4879 3217 c-88 -46 -135 -154 -118 -274 13 -94 3 -111 -149 -241
-174 -149 -235 -241 -283 -422 -76 -290 10 -567 192 -610 190 -46 344 152 260
334 -18 39 -21 59 -16 95 13 88 46 141 141 226 201 180 257 252 306 388 19 53
23 83 23 202 0 155 -12 200 -71 259 -69 69 -198 88 -285 43z"/>
<path d="M4236 3165 c-15 -8 -53 -38 -85 -67 -125 -114 -354 -234 -526 -274
-134 -31 -173 -49 -202 -93 -43 -64 -25 -167 37 -211 117 -83 473 26 764 234
177 127 245 203 246 275 0 44 -38 106 -79 129 -45 26 -113 29 -155 7z"/>
<path d="M1252 3030 c-44 -10 -100 -56 -123 -100 -27 -49 -26 -144 2 -190 11
-19 34 -46 50 -60 28 -24 30 -32 59 -235 17 -115 41 -294 55 -396 37 -282 74
-372 167 -418 116 -55 227 11 259 156 11 48 10 62 -10 131 -27 95 -45 210 -65
417 -30 298 -36 340 -56 419 -24 97 -54 156 -99 203 -59 60 -163 92 -239 73z"/>
<path d="M2090 2578 c-24 -4 -69 -20 -99 -35 -88 -45 -240 -205 -282 -298 -52
-113 16 -225 135 -225 67 0 100 21 170 108 55 67 114 122 134 122 5 0 17 -18
27 -41 10 -22 31 -50 45 -63 l27 -22 -25 -55 c-88 -196 -109 -341 -78 -546 21
-142 61 -193 159 -201 59 -5 96 9 135 51 32 34 37 87 18 188 -30 158 -21 234
44 378 22 49 40 102 40 117 0 34 -32 90 -65 116 -20 16 -22 23 -14 51 12 40 4
75 -31 154 -66 146 -201 227 -340 201z"/>
<path d="M3560 2214 c-14 -2 -65 -9 -115 -15 -128 -15 -658 -125 -692 -142
-63 -33 -113 -113 -113 -179 1 -57 34 -115 86 -148 26 -16 63 -33 81 -36 44
-8 184 15 458 76 121 27 262 54 313 61 l93 12 38 -41 c65 -71 154 -91 236 -53
140 65 155 252 31 377 -69 69 -119 85 -271 89 -66 2 -131 2 -145 -1z"/>
<path d="M4531 1569 c-14 -5 -49 -32 -78 -60 -77 -73 -102 -80 -298 -90 -329
-18 -469 -59 -691 -205 -106 -70 -252 -198 -260 -229 -6 -25 -14 -29 -74 -39
-21 -4 -58 -25 -90 -51 -84 -69 -133 -89 -215 -89 -129 0 -274 88 -433 261
-48 52 -104 103 -124 114 -45 23 -127 25 -168 4 -85 -44 -115 -160 -66 -260
35 -69 203 -247 311 -328 257 -192 560 -230 807 -100 83 43 175 124 194 170
12 28 21 33 71 43 49 11 64 20 112 69 190 194 303 241 641 267 107 8 223 21
259 29 131 31 295 146 340 238 35 72 25 145 -27 201 -53 56 -147 81 -211 55z"/>
</g>
</svg>
