<?xml version="1.0" standalone="no"?>
<!DOCTYPE svg PUBLIC "-//W3C//DTD SVG 20010904//EN"
 "http://www.w3.org/TR/2001/REC-SVG-20010904/DTD/svg10.dtd">
<svg version="1.0" xmlns="http://www.w3.org/2000/svg"
 width="600.000000pt" height="600.000000pt" viewBox="0 0 600.000000 600.000000"
 preserveAspectRatio="xMidYMid meet">
<metadata>
Created by potrace 1.15, written by Peter Selinger 2001-2017
</metadata>
<g transform="translate(0.000000,600.000000) scale(0.100000,-0.100000)"
fill="#16364b" stroke="none">
<path d="M3104 5651 c-38 -23 -64 -76 -64 -128 0 -62 44 -115 233 -288 185
-170 257 -246 257 -275 0 -25 -92 -105 -231 -200 l-117 -79 -64 6 c-60 5 -71
3 -164 -37 -179 -76 -270 -140 -321 -227 -49 -84 -32 -204 39 -270 60 -57 185
-81 248 -48 51 26 83 80 88 146 3 44 0 65 -12 84 -9 14 -14 29 -12 34 11 18
57 21 86 6 66 -34 128 -15 354 114 215 122 350 232 395 320 33 64 39 171 14
237 -44 112 -129 212 -313 366 -63 53 -144 126 -180 163 -36 36 -77 73 -92 81
-38 20 -107 18 -144 -5z"/>
<path d="M1816 5400 c-58 -18 -106 -85 -106 -149 0 -18 -17 -55 -45 -98 -97
-145 -175 -332 -175 -418 0 -124 91 -195 252 -195 145 0 438 57 476 92 98 92
44 250 -92 265 -37 5 -158 -11 -268 -33 -16 -3 -28 -1 -28 4 0 5 31 52 68 103
121 167 150 234 131 304 -25 89 -130 151 -213 125z"/>
<path d="M1110 5339 c-156 -79 -273 -222 -330 -404 -30 -97 -37 -258 -16 -346
35 -152 114 -262 197 -274 62 -9 127 19 157 67 33 53 29 108 -14 192 -55 106
-57 218 -6 320 24 50 102 125 178 172 49 31 77 56 88 78 47 99 -20 221 -127
233 -35 4 -57 -3 -127 -38z"/>
<path d="M4620 4723 c-52 -27 -80 -75 -80 -139 0 -45 5 -59 30 -88 l31 -34
-26 -38 c-52 -76 -46 -138 20 -200 65 -63 139 -88 255 -89 81 0 103 4 150 26
113 53 170 130 170 230 -1 138 -102 229 -339 308 -125 42 -167 47 -211 24z"/>
<path d="M1792 4300 c-120 -32 -220 -88 -310 -174 -55 -52 -72 -84 -72 -136 0
-98 85 -170 184 -156 31 5 58 20 97 53 30 25 83 60 119 77 61 29 72 31 163 29
104 -3 124 2 170 45 79 74 43 213 -65 257 -66 27 -198 29 -286 5z"/>
<path d="M2517 3750 c-74 -13 -189 -50 -218 -71 -33 -23 -59 -76 -59 -120 0
-50 43 -114 93 -138 56 -27 93 -26 195 4 46 13 118 27 159 31 l76 7 -6 -39
c-8 -51 -131 -297 -203 -404 -31 -47 -100 -139 -153 -204 -119 -148 -120 -150
-121 -212 0 -103 93 -160 199 -123 21 7 72 55 143 133 144 157 197 228 251
334 58 113 152 360 167 439 35 177 -27 302 -173 353 -46 16 -80 20 -179 19
-68 -1 -145 -5 -171 -9z"/>
<path d="M4060 3751 c-87 -27 -157 -88 -193 -169 -14 -34 -18 -60 -15 -106 7
-110 68 -195 176 -248 60 -30 75 -33 157 -33 77 0 98 4 147 27 141 66 242 251
182 336 -8 12 -22 44 -30 71 -19 66 -56 95 -143 115 -72 16 -236 20 -281 7z"/>
<path d="M1174 3620 c-99 -15 -167 -44 -285 -122 -85 -57 -125 -108 -135 -174
-12 -85 19 -155 87 -189 34 -18 128 -20 164 -3 14 6 27 9 30 6 3 -3 -15 -57
-39 -120 -108 -281 -216 -704 -216 -850 0 -127 111 -210 261 -196 64 7 105 41
248 207 64 75 163 188 220 251 57 63 140 160 184 215 120 149 110 148 104 20
-7 -134 -24 -220 -81 -424 -63 -224 -146 -603 -146 -666 0 -58 63 -129 125
-141 50 -9 93 4 136 43 40 37 54 68 63 148 3 28 36 170 72 315 67 273 91 389
119 571 35 227 35 471 1 553 -40 97 -113 150 -206 150 -111 1 -189 -63 -414
-334 -71 -85 -133 -157 -137 -158 -5 -2 -4 9 2 25 130 332 169 466 169 579 0
99 -23 158 -84 219 -66 66 -143 90 -242 75z"/>
<path d="M3555 3280 c-127 -49 -211 -176 -229 -345 -9 -78 19 -139 79 -173 52
-30 136 -27 182 6 18 13 46 22 66 22 56 0 159 37 201 71 134 111 104 329 -57
409 -74 37 -163 40 -242 10z"/>
<path d="M4745 2984 c-123 -64 -151 -207 -77 -389 27 -68 98 -171 138 -201 32
-25 47 -29 98 -29 45 0 68 5 88 20 90 66 82 225 -16 312 -40 35 -43 46 -20 92
60 120 -90 258 -211 195z"/>
<path d="M2855 2562 c-38 -10 -101 -31 -140 -47 -86 -34 -300 -140 -338 -167
-64 -45 -87 -160 -48 -237 40 -77 132 -130 206 -118 17 3 105 41 196 85 90 44
181 87 202 95 l37 16 0 -31 c0 -50 -57 -204 -132 -358 -82 -168 -90 -208 -58
-275 53 -109 207 -141 297 -62 65 57 240 441 284 622 24 103 24 167 -2 251
-18 57 -31 77 -82 129 -45 45 -78 68 -122 85 -82 31 -205 36 -300 12z"/>
<path d="M4420 2337 c-97 -27 -159 -86 -180 -167 -9 -37 -8 -59 5 -114 8 -38
14 -70 13 -72 -2 -1 -48 11 -103 28 -86 27 -116 31 -215 32 -103 1 -120 -2
-165 -24 -113 -55 -211 -197 -235 -342 -23 -136 2 -461 43 -559 17 -41 67 -93
110 -116 18 -9 62 -18 98 -21 88 -6 163 26 208 89 51 69 56 105 37 259 -9 74
-17 153 -19 175 -2 37 0 40 23 36 14 -2 61 -14 105 -27 44 -14 96 -29 116 -34
54 -14 227 4 284 29 187 83 263 289 209 572 -20 104 -36 145 -77 187 -65 68
-166 95 -257 69z"/>
<path d="M2135 1851 c-94 -42 -143 -151 -111 -247 8 -27 29 -117 46 -200 39
-194 83 -352 122 -434 69 -146 325 -340 447 -340 15 0 88 -29 162 -64 191 -91
260 -111 389 -110 118 0 169 16 267 81 162 107 139 306 -40 354 -51 14 -97 5
-167 -32 -30 -16 -64 -29 -75 -29 -11 0 -52 16 -90 35 -192 95 -281 165 -310
242 -54 143 -150 233 -249 233 -25 0 -47 3 -50 8 -2 4 -14 74 -26 155 -33 227
-69 309 -154 348 -52 24 -110 24 -161 0z"/>
</g>
</svg>
