<?xml version="1.0" standalone="no"?>
<!DOCTYPE svg PUBLIC "-//W3C//DTD SVG 20010904//EN"
 "http://www.w3.org/TR/2001/REC-SVG-20010904/DTD/svg10.dtd">
<svg version="1.0" xmlns="http://www.w3.org/2000/svg"
 width="600.000000pt" height="600.000000pt" viewBox="0 0 600.000000 600.000000"
 preserveAspectRatio="xMidYMid meet">
<metadata>
Created by potrace 1.15, written by Peter Selinger 2001-2017
</metadata>
<g transform="translate(0.000000,600.000000) scale(0.100000,-0.100000)"
fill="#16364b" stroke="none">
<path d="M2105 5446 c-93 -41 -145 -215 -96 -321 40 -87 114 -123 267 -132 57
-3 107 -10 110 -14 2 -4 -9 -56 -25 -115 -41 -147 -76 -351 -67 -397 19 -99
137 -156 226 -108 58 31 71 58 86 180 7 61 27 170 45 243 52 221 50 286 -13
378 -52 78 -144 120 -263 120 l-62 0 0 43 c0 53 -24 92 -74 118 -44 22 -91 24
-134 5z"/>
<path d="M3327 5409 c-41 -41 -55 -100 -37 -153 15 -47 72 -96 111 -96 16 0
45 -6 64 -14 27 -12 36 -23 45 -57 15 -53 7 -109 -31 -222 -16 -49 -29 -104
-29 -123 0 -67 50 -127 116 -140 82 -15 140 32 182 149 74 205 82 362 24 480
-60 121 -182 197 -329 205 l-83 4 -33 -33z"/>
<path d="M1665 4814 c-140 -18 -321 -63 -358 -88 -71 -49 -92 -115 -59 -189
38 -87 98 -105 233 -71 220 56 278 61 490 38 50 -5 59 -3 88 21 42 36 61 75
61 127 0 54 -28 107 -68 131 -41 24 -154 47 -227 46 -33 -1 -105 -7 -160 -15z"/>
<path d="M4291 4493 c-65 -32 -95 -115 -66 -188 22 -58 53 -79 155 -104 173
-43 182 -59 178 -303 l-3 -177 28 -29 c70 -73 194 -52 239 39 37 75 51 352 22
450 -47 157 -166 257 -368 309 -96 24 -140 25 -185 3z"/>
<path d="M1545 4441 c-113 -51 -138 -183 -50 -260 20 -17 39 -31 43 -31 7 0
231 -40 477 -85 152 -27 209 -31 252 -14 68 25 105 99 83 165 -15 43 -53 90
-91 109 -53 28 -572 135 -649 135 -14 0 -43 -9 -65 -19z"/>
<path d="M3105 4372 c-66 -44 -212 -133 -325 -197 -213 -121 -243 -142 -266
-187 -30 -58 -7 -144 48 -178 61 -37 95 -29 277 71 336 185 500 292 538 348
26 39 30 95 9 144 -21 50 -50 70 -109 75 -51 4 -54 2 -172 -76z"/>
<path d="M2180 3819 c-174 -44 -281 -59 -430 -59 -114 0 -140 -3 -166 -19 -90
-55 -81 -215 15 -269 78 -44 345 -24 653 49 108 26 134 36 162 63 79 74 65
205 -27 247 -53 24 -68 23 -207 -12z"/>
<path d="M3660 3817 c-31 -13 -134 -71 -230 -129 -197 -119 -244 -143 -348
-183 -82 -30 -112 -64 -112 -123 0 -65 57 -132 129 -152 60 -16 125 13 444
196 127 74 147 82 147 65 0 -19 68 -51 107 -51 86 0 143 73 151 194 5 87 -11
132 -63 172 -53 40 -146 45 -225 11z"/>
<path d="M4971 3463 c-24 -9 -64 -35 -87 -58 -55 -56 -69 -104 -58 -205 11
-99 9 -149 -6 -194 -7 -21 -60 -102 -119 -180 -115 -152 -175 -254 -240 -407
-113 -269 -111 -420 7 -504 59 -41 155 -47 231 -15 63 28 127 97 141 154 24
96 76 244 111 318 22 43 86 142 144 219 176 233 233 380 222 569 -8 137 -27
189 -86 242 -51 46 -129 79 -185 77 -17 0 -51 -8 -75 -16z"/>
<path d="M2004 3191 c-120 -56 -126 -234 -9 -291 39 -19 177 -43 317 -56 66
-5 68 -6 90 -46 65 -117 211 -124 292 -14 49 64 13 220 -66 292 -70 63 -105
72 -388 109 -63 8 -133 17 -155 20 -28 4 -53 0 -81 -14z"/>
<path d="M4310 3133 c-14 -9 -56 -46 -95 -83 -169 -162 -389 -263 -629 -290
-129 -15 -170 -27 -204 -64 -57 -59 -60 -141 -6 -205 39 -47 77 -55 202 -41
284 30 463 92 674 232 123 81 283 239 292 288 11 62 -17 126 -71 161 -37 25
-129 26 -163 2z"/>
<path d="M1345 2989 c-54 -13 -100 -46 -125 -92 -26 -45 -24 -97 8 -252 11
-55 34 -177 51 -271 55 -303 101 -451 185 -594 72 -123 124 -161 221 -162 103
-1 179 69 180 166 0 43 -10 71 -62 176 -90 181 -116 283 -168 655 -18 135 -41
237 -61 277 -39 77 -137 118 -229 97z"/>
<path d="M2130 2394 c-82 -22 -196 -82 -230 -121 -24 -27 -30 -43 -30 -81 0
-68 44 -136 106 -164 57 -25 87 -20 163 27 31 19 71 39 90 45 31 9 35 6 79
-39 60 -62 110 -74 177 -41 151 73 102 270 -90 361 -50 24 -72 29 -135 28 -41
0 -100 -7 -130 -15z"/>
<path d="M3740 2086 c-159 -24 -245 -40 -409 -76 -140 -30 -253 -48 -371 -60
-117 -12 -174 -34 -207 -78 -85 -115 -30 -282 103 -312 59 -14 480 50 729 110
231 56 403 74 474 49 115 -40 232 67 219 201 -7 67 -42 118 -109 155 -50 27
-63 30 -164 32 -75 1 -160 -5 -265 -21z"/>
<path d="M2263 1839 c-18 -5 -48 -25 -67 -43 -90 -91 -67 -328 50 -498 53 -77
153 -174 201 -194 128 -54 253 71 199 200 -7 18 -34 50 -59 70 -50 41 -98 110
-116 168 -7 20 -13 74 -14 120 -2 75 -5 89 -30 121 -15 20 -36 41 -45 46 -29
16 -85 20 -119 10z"/>
<path d="M4685 1643 c-16 -8 -64 -49 -106 -89 -118 -114 -195 -143 -514 -193
-173 -27 -229 -46 -433 -148 -183 -92 -246 -136 -268 -190 -52 -122 54 -272
193 -273 39 0 77 16 203 87 69 39 198 82 355 118 260 59 363 92 493 156 103
51 136 74 207 141 104 98 140 163 133 238 -7 65 -44 122 -100 149 -52 25 -121
27 -163 4z"/>
<path d="M2086 1060 c-68 -21 -125 -109 -126 -193 0 -92 27 -126 212 -262 123
-91 247 -156 364 -191 120 -35 321 -45 443 -20 112 23 294 88 337 121 93 71
106 186 31 272 -71 80 -166 94 -275 39 -110 -56 -171 -69 -281 -63 -164 8
-311 74 -479 215 -103 85 -153 103 -226 82z"/>
</g>
</svg>
