<?xml version="1.0" standalone="no"?>
<!DOCTYPE svg PUBLIC "-//W3C//DTD SVG 20010904//EN"
 "http://www.w3.org/TR/2001/REC-SVG-20010904/DTD/svg10.dtd">
<svg version="1.0" xmlns="http://www.w3.org/2000/svg"
 width="600.000000pt" height="600.000000pt" viewBox="0 0 600.000000 600.000000"
 preserveAspectRatio="xMidYMid meet">
<metadata>
Created by potrace 1.15, written by Peter Selinger 2001-2017
</metadata>
<g transform="translate(0.000000,600.000000) scale(0.100000,-0.100000)"
fill="#16364b" stroke="none">
<path d="M1514 5768 c-62 -47 -271 -223 -312 -262 -48 -45 -72 -84 -72 -116 0
-39 32 -79 77 -96 39 -15 48 -15 120 1 94 21 337 98 409 130 80 35 104 97 64
162 -27 45 -75 54 -142 28 -16 -6 -16 -3 2 39 19 41 19 48 6 80 -8 19 -23 39
-34 45 -34 18 -87 13 -118 -11z"/>
<path d="M2373 5440 c-17 -10 -37 -28 -42 -39 -6 -11 -11 -81 -11 -163 0 -221
-35 -411 -96 -515 -35 -60 -96 -116 -167 -153 -112 -59 -142 -104 -113 -173
29 -71 98 -74 209 -11 272 157 363 364 370 845 2 172 -3 192 -58 215 -45 18
-54 18 -92 -6z"/>
<path d="M3516 5295 c-15 -16 -31 -45 -38 -66 -10 -36 -8 -44 25 -111 74 -150
215 -250 300 -214 86 35 102 121 41 222 -71 119 -149 178 -248 190 -51 6 -56
5 -80 -21z"/>
<path d="M2963 5109 c-120 -59 -196 -248 -145 -362 48 -108 169 -117 316 -23
46 29 57 43 77 93 15 40 23 80 23 129 1 63 -2 75 -28 108 -15 21 -42 46 -60
57 -43 26 -128 25 -183 -2z"/>
<path d="M4748 4752 c-56 -34 -68 -102 -48 -262 21 -164 78 -322 139 -392 40
-46 105 -78 158 -78 92 0 180 85 203 195 33 159 -88 372 -287 505 -82 55 -118
62 -165 32z"/>
<path d="M2655 4217 c-63 -21 -94 -46 -126 -101 -52 -92 -36 -190 47 -273 41
-41 64 -55 119 -72 83 -26 116 -26 193 -3 115 36 258 158 283 241 15 52 1 106
-38 143 -59 56 -375 99 -478 65z"/>
<path d="M1110 4112 c-36 -16 -61 -41 -75 -75 -33 -78 12 -144 118 -170 79
-19 137 -43 137 -56 0 -18 -89 -23 -189 -11 -95 12 -100 12 -133 -8 -60 -37
-75 -108 -38 -170 26 -43 63 -57 182 -73 253 -33 447 77 448 254 0 128 -128
245 -324 296 -84 22 -101 24 -126 13z"/>
<path d="M4166 3764 c-146 -47 -236 -170 -236 -322 0 -183 163 -310 356 -280
174 27 300 186 306 384 3 114 -38 163 -171 205 -89 28 -193 33 -255 13z m114
-294 c-11 -20 -56 -38 -67 -26 -11 11 30 46 54 46 21 0 22 -3 13 -20z"/>
<path d="M5208 3731 c-119 -38 -198 -106 -247 -210 -21 -45 -26 -71 -26 -132
0 -67 4 -84 35 -145 57 -112 143 -164 269 -164 130 0 237 64 292 175 28 57 32
76 32 148 1 72 -3 91 -29 147 -30 63 -114 158 -166 187 -32 17 -93 15 -160 -6z
m72 -304 c0 -8 -9 -22 -20 -32 -27 -24 -47 -8 -31 24 13 23 51 29 51 8z"/>
<path d="M1643 3718 c-50 -24 -54 -113 -13 -275 38 -147 91 -213 172 -213 74
0 118 81 99 183 -23 126 -81 229 -165 295 -31 24 -58 27 -93 10z"/>
<path d="M3405 3357 c-27 -29 -58 -82 -93 -158 -69 -153 -70 -211 -2 -239 73
-30 183 49 241 172 28 62 34 84 34 146 0 68 -2 75 -28 98 -20 17 -40 24 -69
24 -36 0 -47 -6 -83 -43z"/>
<path d="M2040 3055 c-140 -26 -436 -111 -533 -152 -130 -55 -273 -166 -339
-261 -81 -117 -118 -234 -118 -368 0 -111 20 -198 65 -283 47 -88 101 -149
199 -224 114 -87 250 -224 349 -352 89 -116 163 -191 237 -242 72 -49 183
-101 267 -125 158 -45 428 -22 598 52 28 12 107 42 177 66 235 81 542 231 698
342 130 92 306 268 359 359 83 140 121 301 101 429 -17 117 -77 222 -190 334
-81 81 -109 103 -190 143 -133 66 -369 126 -620 157 -47 6 -161 31 -253 56
-266 71 -301 76 -527 80 -148 2 -226 -1 -280 -11z m475 -391 c39 -7 133 -32
210 -54 175 -50 376 -90 455 -90 64 0 307 -58 362 -86 49 -26 143 -119 163
-163 17 -38 17 -42 -4 -109 -26 -87 -78 -166 -175 -264 -85 -85 -163 -141
-281 -198 -142 -68 -369 -150 -460 -165 -22 -3 -69 -18 -105 -32 -113 -45
-284 -83 -369 -83 -140 1 -199 38 -320 200 -116 155 -252 294 -391 399 -91 68
-119 96 -139 134 -63 125 -4 292 132 371 42 24 278 99 412 130 159 37 360 41
510 10z"/>
<path d="M450 2213 c-30 -11 -60 -47 -66 -78 -4 -23 5 -59 36 -136 115 -291
258 -449 407 -449 65 0 91 10 130 50 60 62 63 162 7 257 -37 64 -152 172 -246
232 -185 118 -231 139 -268 124z"/>
<path d="M4760 1689 c-14 -5 -37 -21 -51 -35 -23 -22 -29 -23 -57 -13 -62 21
-135 -10 -167 -71 -21 -40 -19 -114 6 -233 37 -185 91 -257 192 -257 126 0
208 108 243 320 27 163 14 233 -49 275 -32 21 -86 27 -117 14z"/>
</g>
</svg>
