<?xml version="1.0" standalone="no"?>
<!DOCTYPE svg PUBLIC "-//W3C//DTD SVG 20010904//EN"
 "http://www.w3.org/TR/2001/REC-SVG-20010904/DTD/svg10.dtd">
<svg version="1.0" xmlns="http://www.w3.org/2000/svg"
 width="600.000000pt" height="600.000000pt" viewBox="0 0 600.000000 600.000000"
 preserveAspectRatio="xMidYMid meet">
<metadata>
Created by potrace 1.15, written by Peter Selinger 2001-2017
</metadata>
<g transform="translate(0.000000,600.000000) scale(0.100000,-0.100000)"
fill="#16364b" stroke="none">
<path d="M1509 5757 c-137 -83 -347 -222 -371 -245 -57 -53 -43 -146 27 -179
33 -16 42 -16 143 0 118 19 391 81 435 99 60 24 77 103 32 152 -20 21 -33 26
-75 26 -51 0 -51 0 -36 22 33 47 13 119 -41 147 -34 17 -55 13 -114 -22z"/>
<path d="M2373 5431 c-39 -25 -40 -29 -48 -206 -10 -236 -40 -389 -100 -511
-43 -89 -94 -141 -185 -188 -38 -20 -76 -47 -85 -59 -40 -57 0 -137 71 -137
52 0 162 61 242 135 165 153 257 440 250 775 -3 144 -4 151 -28 175 -35 35
-77 40 -117 16z"/>
<path d="M3523 5305 c-23 -10 -40 -28 -55 -60 -20 -41 -21 -49 -9 -93 19 -74
51 -129 104 -182 61 -62 119 -90 181 -90 42 0 53 5 83 35 33 33 35 39 31 88
-8 95 -118 248 -205 284 -71 30 -94 33 -130 18z"/>
<path d="M3032 5150 c-109 -26 -208 -164 -220 -305 -8 -112 47 -185 140 -185
45 0 123 39 176 86 36 32 47 51 63 109 24 88 25 179 1 225 -28 56 -96 86 -160
70z m-12 -256 c-18 -21 -24 -10 -9 18 8 14 14 18 17 10 2 -7 -2 -19 -8 -28z"/>
<path d="M4771 4774 c-43 -31 -51 -70 -51 -251 1 -229 26 -336 98 -410 106
-109 257 -85 321 52 28 59 28 169 1 256 -37 120 -144 275 -234 341 -45 32 -99
37 -135 12z"/>
<path d="M2670 4221 c-140 -43 -195 -172 -129 -302 61 -122 245 -176 404 -120
67 24 167 86 209 130 52 54 46 152 -12 205 -23 20 -148 59 -260 82 -79 15
-171 17 -212 5z"/>
<path d="M1112 4117 c-53 -30 -70 -90 -44 -150 20 -45 36 -56 118 -82 28 -8
60 -22 70 -30 18 -13 17 -14 -13 -15 -18 0 -60 9 -94 21 -74 26 -117 20 -158
-21 -50 -51 -49 -136 2 -178 25 -21 153 -60 220 -67 123 -13 247 38 294 120
49 87 20 221 -65 297 -96 86 -266 140 -330 105z"/>
<path d="M5193 3775 c-142 -38 -234 -132 -263 -267 -28 -128 38 -286 149 -357
190 -122 467 23 511 268 25 140 -49 263 -213 353 -38 22 -111 22 -184 3z m87
-309 c0 -19 -27 -46 -46 -46 -17 0 -19 46 -1 53 24 10 47 7 47 -7z"/>
<path d="M4209 3760 c-72 -12 -154 -56 -198 -106 -105 -119 -93 -314 24 -429
139 -134 402 -77 497 108 26 51 48 157 48 232 0 115 -51 164 -198 191 -85 15
-106 15 -173 4z m71 -280 c0 -16 -38 -50 -56 -50 -24 0 -13 33 16 47 30 15 40
16 40 3z"/>
<path d="M1615 3675 c-14 -13 -25 -35 -25 -48 0 -30 76 -269 101 -318 34 -67
117 -74 149 -13 17 31 2 99 -52 244 -58 151 -114 195 -173 135z"/>
<path d="M3453 3373 c-44 -24 -76 -69 -139 -198 -61 -122 -63 -151 -16 -194
53 -48 166 -10 225 77 46 66 77 151 76 212 0 58 -8 75 -49 103 -31 22 -57 22
-97 0z"/>
<path d="M1704 3070 c-276 -50 -440 -124 -560 -253 -110 -119 -159 -267 -151
-462 5 -138 22 -196 89 -296 49 -73 112 -125 244 -199 140 -79 198 -142 313
-340 73 -127 110 -179 166 -236 73 -73 175 -147 250 -179 169 -73 407 -71 655
4 66 20 137 33 230 40 303 26 564 103 822 244 182 99 390 277 462 395 117 192
184 472 146 608 -19 67 -80 156 -168 243 -183 182 -345 241 -538 195 -68 -16
-120 -19 -364 -19 -262 0 -292 2 -370 22 -77 21 -250 83 -355 128 -94 41 -245
86 -348 105 -145 26 -378 26 -523 0z m553 -398 c53 -12 136 -40 195 -67 202
-93 344 -143 528 -186 108 -26 517 -7 707 32 88 19 107 20 134 9 42 -18 84
-54 130 -113 51 -63 52 -110 6 -222 -42 -103 -78 -155 -167 -239 -112 -106
-252 -188 -455 -269 -136 -54 -241 -76 -430 -89 -141 -9 -189 -17 -280 -43
-344 -102 -463 -64 -617 200 -169 287 -259 381 -503 522 -85 50 -107 69 -129
110 -20 40 -21 122 0 171 43 105 161 164 401 202 95 15 375 4 480 -18z"/>
<path d="M415 2145 c-29 -28 -33 -78 -10 -122 7 -15 39 -80 69 -144 62 -129
146 -233 220 -272 57 -30 163 -31 202 -1 75 55 90 135 45 229 -46 93 -206 227
-368 309 -68 34 -125 35 -158 1z"/>
<path d="M4875 1570 c-12 -4 -27 -15 -34 -23 -9 -12 -24 -15 -60 -10 -59 7
-104 -14 -127 -59 -36 -69 11 -325 72 -398 75 -89 185 -76 242 27 50 91 96
347 73 405 -20 53 -106 83 -166 58z"/>
</g>
</svg>
