<?xml version="1.0" standalone="no"?>
<!DOCTYPE svg PUBLIC "-//W3C//DTD SVG 20010904//EN"
 "http://www.w3.org/TR/2001/REC-SVG-20010904/DTD/svg10.dtd">
<svg version="1.0" xmlns="http://www.w3.org/2000/svg"
 width="600.000000pt" height="600.000000pt" viewBox="0 0 600.000000 600.000000"
 preserveAspectRatio="xMidYMid meet">
<metadata>
Created by potrace 1.15, written by Peter Selinger 2001-2017
</metadata>
<g transform="translate(0.000000,600.000000) scale(0.100000,-0.100000)"
fill="#16364b" stroke="none">
<path d="M1935 4941 c-68 -32 -122 -85 -157 -151 -29 -56 -31 -169 -6 -275 23
-96 36 -236 48 -525 6 -135 15 -319 20 -410 13 -224 12 -778 -1 -925 -9 -108
-13 -125 -44 -175 -18 -30 -88 -165 -155 -300 -67 -135 -126 -246 -131 -248
-5 -2 -9 -15 -9 -28 0 -15 -6 -24 -15 -24 -18 0 -20 -31 -3 -48 8 -8 8 -15 -1
-26 -17 -21 -4 -39 25 -33 20 3 24 0 24 -19 0 -38 31 -29 73 20 20 25 37 51
37 58 0 7 28 65 63 129 34 64 77 148 96 187 19 40 38 72 41 72 4 0 10 -42 14
-92 20 -273 75 -451 191 -613 106 -149 271 -252 456 -286 l64 -12 0 -181 c1
-197 19 -324 70 -476 38 -115 41 -110 -70 -110 -89 0 -96 -2 -125 -28 -20 -17
-33 -40 -37 -64 -5 -32 -1 -41 24 -67 16 -16 50 -35 74 -41 76 -21 202 4 260
52 9 7 26 29 38 48 29 49 27 111 -9 222 -59 181 -75 278 -75 456 0 182 2 188
65 174 19 -4 233 -6 476 -4 l441 3 6 -178 c7 -200 24 -329 61 -452 14 -46 23
-87 20 -92 -3 -5 -39 -9 -80 -9 -116 0 -174 -35 -174 -106 0 -74 82 -115 193
-96 157 25 241 111 224 224 -2 18 -16 78 -31 132 -33 126 -48 254 -50 422 -1
92 3 135 12 146 7 9 34 18 60 21 26 3 141 21 255 41 166 29 221 43 273 68 109
53 180 147 235 311 78 230 78 452 0 638 -38 90 -129 227 -199 299 -32 33 -53
60 -48 60 6 0 60 -18 121 -41 72 -27 116 -49 128 -65 17 -21 26 -24 92 -24 75
0 107 14 83 38 -8 8 -8 15 0 24 6 7 12 26 14 42 3 25 -1 30 -49 48 -37 13 -53
25 -53 37 0 15 -8 18 -42 18 -26 0 -95 18 -173 46 -71 25 -224 67 -340 92
l-210 47 -135 87 c-74 49 -232 143 -350 211 -118 67 -244 142 -280 165 -246
165 -451 397 -594 675 -63 123 -100 211 -231 545 -75 190 -90 219 -155 289
-97 105 -227 134 -345 77z m196 -134 c52 -35 96 -101 123 -185 41 -123 175
-455 247 -610 100 -214 232 -397 418 -582 123 -123 233 -198 551 -380 210
-121 273 -159 435 -265 44 -28 135 -83 203 -121 238 -133 345 -233 427 -399
90 -180 83 -460 -16 -661 -53 -108 -139 -170 -259 -188 -19 -3 -118 -19 -220
-36 -184 -29 -187 -30 -660 -32 -498 -3 -777 9 -885 37 -299 77 -440 305 -486
780 -8 89 -13 365 -13 870 -2 829 -19 1250 -63 1480 -26 137 -27 205 -4 243
45 71 137 93 202 49z m-561 -2973 c0 -2 -7 -4 -15 -4 -8 0 -15 4 -15 10 0 5 7
7 15 4 8 -4 15 -8 15 -10z"/>
<path d="M2632 2718 c-48 -23 -40 -90 14 -116 34 -16 35 -15 58 9 38 38 41 65
12 94 -27 27 -48 30 -84 13z"/>
<path d="M3064 2588 c-54 -25 -48 -102 8 -122 61 -21 109 81 56 118 -26 18
-35 19 -64 4z"/>
<path d="M5244 3972 c-246 -85 -297 -379 -97 -562 69 -63 131 -84 228 -78 173
11 314 150 323 319 7 112 -43 192 -170 276 -100 66 -184 79 -284 45z m130
-293 c20 -9 23 -16 16 -29 -16 -29 -49 -31 -66 -5 -26 40 -1 57 50 34z"/>
<path d="M5352 1093 c-28 -27 -62 -116 -62 -161 0 -40 23 -83 52 -98 85 -44
168 41 168 171 0 46 -4 60 -25 80 -13 14 -32 25 -42 25 -10 0 -28 3 -40 6 -16
5 -30 -2 -51 -23z"/>
</g>
</svg>
