<?xml version="1.0" standalone="no"?>
<!DOCTYPE svg PUBLIC "-//W3C//DTD SVG 20010904//EN"
 "http://www.w3.org/TR/2001/REC-SVG-20010904/DTD/svg10.dtd">
<svg version="1.0" xmlns="http://www.w3.org/2000/svg"
 width="600.000000pt" height="600.000000pt" viewBox="0 0 600.000000 600.000000"
 preserveAspectRatio="xMidYMid meet">
<metadata>
Created by potrace 1.15, written by Peter Selinger 2001-2017
</metadata>
<g transform="translate(0.000000,600.000000) scale(0.100000,-0.100000)"
fill="#16364b" stroke="none">
<path d="M3055 5616 c-16 -7 -38 -22 -47 -33 -27 -30 -105 -202 -122 -269 -63
-245 68 -394 344 -394 55 0 100 -3 100 -7 0 -5 -42 -35 -92 -68 -170 -111
-449 -332 -519 -413 -29 -33 -31 -40 -27 -94 4 -53 8 -63 49 -104 82 -85 236
-145 539 -213 102 -22 210 -50 240 -62 108 -41 133 -44 182 -21 24 12 51 35
61 51 32 54 18 140 -30 183 -29 27 -191 84 -330 118 -219 52 -293 73 -293 81
0 11 150 140 248 212 45 34 144 97 220 140 150 86 184 113 213 169 49 95 -5
205 -125 259 -64 28 -180 48 -286 49 -90 2 -186 12 -196 22 -3 4 13 52 35 108
46 114 49 146 22 206 -34 74 -119 111 -186 80z"/>
<path d="M1482 5358 c-88 -46 -266 -231 -397 -414 -112 -154 -211 -404 -202
-506 7 -82 71 -148 142 -148 15 0 71 13 124 29 166 51 421 102 421 85 0 -9
-15 -36 -103 -189 -64 -111 -129 -278 -133 -340 -1 -28 -7 -63 -13 -78 -22
-58 -2 -137 45 -178 22 -18 78 -39 106 -39 47 0 385 162 521 250 84 54 116
100 117 168 1 119 -121 185 -226 123 -80 -48 -106 -62 -110 -58 -3 2 22 55 55
118 69 132 91 200 91 280 0 145 -130 259 -294 259 -28 0 -115 -13 -193 -29
-79 -15 -143 -25 -143 -21 0 12 146 220 215 307 36 46 89 99 117 118 65 43 88
78 88 133 0 121 -117 188 -228 130z"/>
<path d="M4555 4496 c-130 -34 -353 -120 -382 -148 -35 -32 -53 -71 -53 -113
0 -99 87 -159 188 -130 26 7 95 30 154 51 59 21 110 35 114 31 4 -3 -19 -53
-52 -109 -180 -319 -263 -475 -269 -507 -3 -20 -1 -51 5 -70 10 -36 56 -91 75
-91 6 0 25 -15 43 -34 38 -41 20 -35 247 -86 200 -45 244 -56 264 -69 16 -10
-39 -111 -188 -351 -113 -179 -121 -204 -95 -268 37 -88 138 -121 215 -69 78
52 326 508 356 653 15 74 15 83 -1 139 -21 71 -77 131 -153 165 -55 25 -189
61 -313 85 -47 9 -88 20 -92 23 -4 4 31 75 78 157 99 176 190 374 205 446 18
84 8 169 -26 225 -57 91 -157 113 -320 70z"/>
<path d="M3755 3644 c-91 -47 -109 -176 -38 -271 33 -44 58 -57 128 -63 53 -4
60 -8 63 -28 2 -12 -6 -42 -18 -67 -20 -42 -23 -44 -78 -51 -139 -17 -254 -75
-348 -176 -65 -68 -84 -105 -84 -161 0 -109 117 -178 224 -133 20 8 51 37 74
69 61 82 110 103 234 99 115 -3 158 11 188 60 11 18 20 49 20 69 0 28 6 41 24
52 33 22 74 109 87 184 27 155 -61 310 -226 393 -58 30 -81 35 -144 37 -53 2
-85 -2 -106 -13z"/>
<path d="M2435 3581 c-38 -11 -110 -37 -160 -58 -167 -73 -205 -109 -205 -196
0 -75 61 -144 137 -154 34 -4 58 2 140 40 100 46 200 77 247 77 25 0 26 -3 26
-51 0 -27 -5 -71 -11 -97 -11 -41 -96 -246 -203 -487 -41 -91 -44 -125 -17
-178 10 -20 22 -52 25 -71 15 -78 97 -146 176 -146 16 0 84 20 151 45 118 44
251 85 276 85 15 0 -18 -82 -98 -243 -48 -98 -59 -129 -59 -170 0 -131 114
-221 238 -189 78 21 110 55 184 198 177 341 189 591 37 728 -62 56 -129 79
-226 78 -75 -1 -206 -24 -275 -48 -31 -11 -39 -11 -35 -1 3 6 25 62 50 122 80
195 108 339 87 454 -21 117 -81 201 -178 248 -74 36 -202 42 -307 14z"/>
<path d="M1101 3345 c-145 -41 -319 -172 -342 -259 -31 -116 62 -230 186 -229
28 0 65 8 83 17 l33 17 -6 -38 c-4 -21 -23 -121 -42 -223 -59 -311 -65 -358
-66 -530 -1 -198 8 -235 68 -295 50 -51 100 -68 196 -69 53 -1 71 3 89 19 44
40 249 346 385 575 69 117 145 229 156 230 3 0 12 -18 19 -40 26 -80 3 -301
-74 -699 -35 -181 -36 -324 -2 -396 42 -91 109 -134 184 -120 87 16 144 107
119 192 -24 83 -12 203 53 513 75 358 86 489 52 630 -11 47 -23 107 -27 133
-27 199 -157 296 -307 230 -95 -43 -246 -210 -395 -441 -47 -73 -88 -130 -90
-128 -5 5 9 79 61 331 72 340 42 479 -119 558 -66 33 -145 41 -214 22z"/>
<path d="M4685 2261 c-72 -32 -118 -96 -140 -194 -4 -19 -11 -27 -20 -24 -7 3
-78 9 -157 13 -259 12 -431 -32 -548 -142 -93 -87 -130 -195 -130 -386 0 -65
-3 -118 -6 -118 -3 0 -29 20 -57 45 -65 56 -165 109 -238 125 -32 7 -93 11
-140 8 -71 -3 -94 -9 -149 -38 -125 -66 -222 -187 -340 -425 -43 -86 -66 -123
-71 -113 -4 8 -24 110 -44 227 -52 306 -89 413 -162 468 -33 25 -44 28 -113
28 -69 0 -80 -3 -114 -29 -74 -56 -100 -136 -71 -216 35 -93 55 -178 90 -368
42 -233 63 -309 116 -419 74 -154 180 -233 325 -241 94 -5 141 7 188 49 32 28
41 45 86 164 13 33 65 144 117 247 68 136 107 202 144 242 49 54 51 55 77 42
15 -8 82 -68 148 -134 149 -146 211 -182 314 -182 51 0 78 6 118 26 67 33 148
122 194 215 43 84 58 175 58 345 l0 102 37 7 c21 4 122 1 224 -6 268 -18 367
2 467 95 81 76 122 188 122 331 0 126 -49 212 -145 256 -51 24 -129 24 -180 0z"/>
</g>
</svg>
