<?xml version="1.0" standalone="no"?>
<!DOCTYPE svg PUBLIC "-//W3C//DTD SVG 20010904//EN"
 "http://www.w3.org/TR/2001/REC-SVG-20010904/DTD/svg10.dtd">
<svg version="1.0" xmlns="http://www.w3.org/2000/svg"
 width="600.000000pt" height="600.000000pt" viewBox="0 0 600.000000 600.000000"
 preserveAspectRatio="xMidYMid meet">
<metadata>
Created by potrace 1.15, written by Peter Selinger 2001-2017
</metadata>
<g transform="translate(0.000000,600.000000) scale(0.100000,-0.100000)"
fill="#16364b" stroke="none">
<path d="M3116 5650 c-62 -19 -101 -80 -93 -147 6 -58 25 -77 179 -180 239
-159 360 -287 343 -363 -9 -42 -84 -121 -158 -168 -67 -42 -267 -145 -272
-140 -1 2 -10 18 -19 36 -20 38 -70 72 -107 72 -35 0 -172 -69 -246 -124 -188
-138 -234 -337 -106 -458 72 -69 227 -106 298 -72 48 23 75 67 75 124 0 60
-28 104 -86 133 l-47 24 34 25 c19 14 48 33 65 41 l31 16 24 -37 c13 -20 40
-45 59 -54 63 -32 103 -24 260 53 260 127 379 223 444 359 92 190 62 366 -84
503 -98 92 -482 351 -535 360 -16 3 -43 2 -59 -3z"/>
<path d="M1969 5511 c-48 -15 -77 -42 -97 -89 -11 -26 -69 -105 -129 -176
-215 -256 -246 -307 -247 -415 -1 -95 35 -154 119 -196 57 -29 66 -30 180 -29
135 1 281 27 429 76 104 35 127 49 155 99 44 78 20 185 -51 229 -47 28 -93 25
-195 -14 -90 -35 -235 -77 -242 -70 -5 5 16 34 119 159 146 178 177 262 127
349 -34 61 -109 95 -168 77z"/>
<path d="M1050 5319 c-91 -46 -187 -143 -233 -239 -72 -147 -96 -322 -62 -455
31 -120 119 -263 188 -306 81 -49 203 0 227 92 13 47 -4 101 -47 156 -62 77
-78 121 -78 208 0 125 41 185 180 268 85 51 108 88 102 163 -6 87 -59 136
-152 142 -52 3 -69 -1 -125 -29z"/>
<path d="M4629 4788 c-68 -39 -97 -127 -64 -192 14 -26 14 -33 -1 -72 -10 -27
-14 -56 -10 -76 15 -76 113 -186 217 -242 44 -24 69 -31 135 -34 71 -4 89 -1
136 20 77 35 123 80 159 154 28 55 31 71 26 118 -3 29 -14 71 -26 93 -82 161
-442 307 -572 231z"/>
<path d="M1870 4323 c-53 -9 -157 -46 -206 -74 -70 -39 -181 -143 -206 -192
-45 -88 -5 -192 83 -218 54 -17 103 3 169 69 32 32 81 67 118 85 62 29 66 29
168 23 94 -7 109 -5 147 13 51 26 75 56 82 108 8 48 -27 120 -70 145 -66 38
-194 56 -285 41z"/>
<path d="M2635 3779 c-100 -25 -244 -73 -282 -95 -54 -31 -88 -98 -78 -151 8
-46 61 -98 117 -115 36 -11 54 -8 167 20 174 44 200 48 206 30 7 -18 -32 -124
-70 -193 -43 -76 -115 -182 -262 -382 -73 -99 -137 -193 -143 -208 -25 -66 0
-153 54 -186 41 -25 112 -25 152 0 37 22 198 219 326 397 187 261 260 430 262
604 1 124 -47 205 -157 262 -34 18 -61 22 -147 25 -58 1 -123 -2 -145 -8z"/>
<path d="M4121 3768 c-84 -9 -164 -49 -201 -100 -41 -57 -53 -101 -48 -178 13
-172 154 -325 313 -338 95 -7 154 17 236 98 120 118 172 261 126 345 -9 17
-17 36 -17 43 0 28 -36 74 -70 92 -60 31 -231 50 -339 38z"/>
<path d="M1079 3622 c-30 -10 -99 -42 -153 -71 -128 -70 -151 -102 -151 -212
0 -71 2 -80 31 -115 16 -21 42 -47 56 -57 32 -24 115 -34 157 -19 17 6 31 8
31 3 0 -4 -15 -45 -34 -92 -106 -263 -255 -730 -263 -825 -11 -122 60 -191
205 -201 61 -4 86 -2 114 11 50 24 230 212 370 386 64 80 167 195 228 255
l112 110 -7 -55 c-4 -30 -20 -111 -36 -180 -16 -69 -45 -219 -65 -335 -19
-115 -55 -299 -80 -408 -24 -109 -44 -208 -44 -219 0 -39 42 -97 85 -118 108
-52 211 12 235 149 12 65 69 303 109 451 11 41 32 138 46 215 15 77 37 194 51
260 36 183 45 284 34 394 -26 247 -171 351 -350 249 -54 -30 -258 -226 -388
-373 -34 -38 -62 -64 -62 -58 0 6 33 87 74 180 99 226 119 295 114 397 -5 123
-62 217 -162 268 -58 30 -182 35 -257 10z"/>
<path d="M3612 3315 c-148 -41 -243 -148 -293 -331 -24 -90 -20 -132 19 -174
41 -44 106 -58 168 -36 27 10 94 25 149 35 153 28 224 71 271 167 22 46 26 64
21 108 -17 165 -176 275 -335 231z"/>
<path d="M4815 2896 c-67 -21 -100 -43 -148 -96 -58 -65 -81 -131 -75 -214 19
-227 247 -378 389 -258 50 42 73 103 72 198 0 66 -4 89 -22 117 -12 20 -26 37
-32 39 -7 2 -6 19 2 49 7 25 9 57 6 71 -12 45 -53 85 -101 97 -25 6 -46 11
-48 10 -2 0 -21 -6 -43 -13z"/>
<path d="M2924 2520 c-96 -13 -206 -55 -377 -142 -184 -94 -203 -108 -228
-162 -50 -109 6 -240 117 -276 57 -19 97 -8 279 77 178 84 235 107 243 98 17
-17 -78 -276 -158 -430 -55 -106 -60 -138 -31 -200 48 -106 168 -142 274 -82
41 23 54 40 110 142 203 374 261 640 177 811 -35 73 -83 116 -156 143 -62 24
-168 32 -250 21z"/>
<path d="M4354 2341 c-114 -52 -153 -156 -123 -328 6 -35 9 -66 6 -69 -2 -3
-42 11 -88 30 -188 77 -282 86 -386 37 -157 -75 -242 -245 -243 -488 0 -139
27 -307 61 -375 45 -89 152 -158 244 -158 145 1 231 116 206 277 -18 118 -25
263 -13 263 14 0 102 -34 158 -61 73 -35 251 -22 340 24 16 8 49 36 71 60 93
101 139 254 130 432 -4 61 -13 135 -21 165 -44 160 -209 252 -342 191z"/>
<path d="M2083 1865 c-99 -59 -115 -212 -34 -315 11 -14 40 -99 65 -190 79
-288 149 -431 302 -613 121 -145 179 -198 294 -267 114 -69 179 -91 280 -97
107 -7 182 11 308 73 149 73 192 122 192 221 0 87 -54 158 -140 183 -45 13
-106 -2 -172 -42 -78 -48 -146 -46 -250 5 -69 34 -78 42 -78 66 0 15 -10 46
-22 70 -13 23 -42 80 -65 125 -50 98 -129 184 -199 217 l-49 24 -51 172 c-28
94 -64 197 -80 228 -73 144 -197 202 -301 140z"/>
</g>
</svg>
