<?xml version="1.0" standalone="no"?>
<!DOCTYPE svg PUBLIC "-//W3C//DTD SVG 20010904//EN"
 "http://www.w3.org/TR/2001/REC-SVG-20010904/DTD/svg10.dtd">
<svg version="1.0" xmlns="http://www.w3.org/2000/svg"
 width="600.000000pt" height="600.000000pt" viewBox="0 0 600.000000 600.000000"
 preserveAspectRatio="xMidYMid meet">
<metadata>
Created by potrace 1.15, written by Peter Selinger 2001-2017
</metadata>
<g transform="translate(0.000000,600.000000) scale(0.100000,-0.100000)"
fill="#16364b" stroke="none">
<path d="M3138 5670 c-100 -30 -132 -117 -85 -231 66 -159 159 -265 338 -386
71 -48 129 -92 129 -100 0 -20 -92 -88 -224 -165 -185 -107 -304 -188 -339
-228 -18 -20 -61 -53 -97 -72 -108 -61 -152 -118 -154 -203 -1 -65 38 -135 88
-159 81 -38 179 -8 216 69 20 41 27 46 83 64 34 10 84 22 110 25 72 11 118 56
124 122 l5 50 123 73 c159 94 249 163 308 236 78 97 104 198 76 300 -16 60
-123 159 -231 214 -160 81 -229 150 -267 264 -36 108 -111 155 -203 127z"/>
<path d="M1183 5352 c-252 -142 -400 -405 -380 -677 11 -144 63 -288 118 -328
63 -46 159 -26 206 42 34 50 37 98 12 181 -18 59 -21 88 -17 160 9 151 79 266
219 355 94 61 123 135 81 212 -28 52 -68 77 -131 80 -47 3 -64 -1 -108 -25z"/>
<path d="M1655 5225 c-5 -2 -22 -6 -37 -9 -37 -8 -86 -60 -98 -104 -13 -49 2
-102 42 -147 l30 -35 -35 -83 c-60 -140 -71 -239 -38 -326 41 -108 117 -165
239 -180 83 -11 232 3 280 26 75 35 106 146 60 212 -43 64 -69 76 -174 79 -52
2 -94 7 -94 12 0 4 16 47 36 96 63 157 76 235 53 319 -15 52 -82 119 -134 134
-37 10 -108 14 -130 6z"/>
<path d="M4540 4628 c-55 -29 -81 -64 -87 -119 -5 -52 20 -100 65 -123 23 -12
160 -36 204 -36 5 0 8 -4 8 -9 0 -5 -41 -19 -91 -31 -137 -34 -187 -88 -176
-187 4 -38 12 -54 40 -80 50 -45 93 -51 199 -25 198 49 349 129 402 215 91
148 1 294 -224 361 -50 15 -258 56 -285 56 -6 0 -31 -10 -55 -22z"/>
<path d="M1865 4240 c-204 -46 -436 -172 -471 -255 -44 -106 24 -222 135 -232
38 -4 52 0 81 21 159 114 257 164 342 172 98 9 117 15 148 41 85 71 85 206 0
257 -37 21 -131 20 -235 -4z"/>
<path d="M2528 3730 c-94 -16 -218 -65 -257 -101 -98 -92 -39 -279 88 -279 19
0 67 11 106 25 94 32 211 51 229 36 40 -34 -57 -241 -253 -541 -78 -118 -144
-230 -147 -247 -14 -77 25 -151 92 -173 l36 -12 -30 -28 c-106 -97 -85 -253
43 -311 68 -32 104 -25 254 45 159 76 235 106 260 106 18 0 18 -2 0 -61 -26
-82 -69 -189 -130 -320 -48 -103 -51 -115 -47 -174 5 -84 40 -137 111 -171 29
-13 65 -24 81 -24 39 0 111 35 129 63 31 47 210 444 239 531 27 78 32 106 32
196 1 96 -2 110 -27 162 -17 34 -50 77 -83 107 -127 116 -314 120 -566 11 -55
-24 -88 -33 -84 -25 3 8 54 87 114 177 167 250 224 369 272 563 48 192 -3 339
-141 411 -72 37 -214 52 -321 34z"/>
<path d="M3962 3707 c-48 -18 -102 -65 -118 -103 -27 -65 -14 -151 35 -224 45
-67 146 -164 199 -190 161 -81 330 8 372 195 14 60 0 112 -40 150 -21 20 -30
38 -30 61 0 40 -33 82 -79 102 -48 20 -292 27 -339 9z"/>
<path d="M1103 3551 c-112 -32 -297 -155 -338 -225 -96 -164 39 -325 220 -261
21 8 40 13 42 11 2 -1 -13 -58 -33 -127 -74 -261 -157 -568 -180 -669 -27
-120 -30 -177 -10 -223 39 -94 215 -159 305 -113 17 9 93 90 169 178 359 423
494 578 503 578 29 0 -16 -265 -111 -650 -68 -273 -86 -438 -59 -521 16 -47
63 -94 108 -108 53 -15 68 -14 118 10 65 31 83 74 83 196 0 102 7 138 108 538
65 256 74 321 73 500 -1 307 -26 420 -108 475 -31 21 -48 25 -107 25 -113 -1
-165 -39 -325 -240 -116 -147 -225 -274 -230 -270 -1 2 15 52 38 112 50 133
96 309 111 426 23 186 -41 313 -183 361 -60 20 -115 19 -194 -3z"/>
<path d="M3585 3277 c-67 -23 -99 -43 -149 -97 -82 -88 -139 -245 -117 -326
22 -83 76 -124 164 -124 46 0 59 5 93 33 34 30 48 35 117 41 186 17 300 106
301 235 0 97 -51 168 -159 217 -71 33 -185 42 -250 21z"/>
<path d="M4642 3110 c-18 -11 -41 -34 -52 -52 -36 -59 -28 -91 61 -242 82
-137 82 -137 69 -176 -7 -22 -11 -61 -8 -90 12 -126 129 -182 242 -116 66 39
91 86 90 168 -1 60 -7 79 -62 190 -95 194 -153 290 -191 315 -43 29 -104 30
-149 3z"/>
<path d="M4517 2296 c-62 -17 -115 -61 -147 -122 -21 -41 -25 -63 -25 -139 -1
-69 -4 -89 -14 -87 -7 1 -56 14 -109 27 -132 34 -287 43 -370 21 -119 -30
-209 -105 -260 -214 l-27 -57 2 -263 c1 -287 8 -339 53 -400 34 -48 118 -92
173 -92 99 0 196 66 237 162 22 51 23 61 17 232 l-6 178 36 -7 c19 -3 74 -18
122 -33 107 -34 264 -38 346 -9 107 37 198 133 233 246 20 66 22 290 3 383
-28 132 -141 207 -264 174z"/>
<path d="M2169 1861 c-74 -23 -115 -73 -129 -157 -12 -70 3 -352 25 -489 27
-169 90 -317 167 -394 65 -66 352 -237 427 -257 92 -23 164 14 209 107 l29 59
98 -65 c123 -81 187 -106 291 -112 66 -5 93 -2 145 16 78 26 158 78 195 127
56 73 40 206 -31 262 -64 50 -156 54 -225 8 -22 -14 -48 -26 -58 -26 -28 0
-228 131 -302 198 -127 115 -232 203 -260 217 -69 36 -184 11 -248 -53 -24
-24 -46 -41 -48 -39 -10 10 -24 182 -24 305 0 144 -7 173 -56 231 -49 59 -132
84 -205 62z"/>
</g>
</svg>
