<?xml version="1.0" standalone="no"?>
<!DOCTYPE svg PUBLIC "-//W3C//DTD SVG 20010904//EN"
 "http://www.w3.org/TR/2001/REC-SVG-20010904/DTD/svg10.dtd">
<svg version="1.0" xmlns="http://www.w3.org/2000/svg"
 width="600.000000pt" height="600.000000pt" viewBox="0 0 600.000000 600.000000"
 preserveAspectRatio="xMidYMid meet">
<metadata>
Created by potrace 1.15, written by Peter Selinger 2001-2017
</metadata>
<g transform="translate(0.000000,600.000000) scale(0.100000,-0.100000)"
fill="#16364b" stroke="none">
<path d="M1570 5793 c-8 -3 -26 -15 -39 -27 -25 -22 -150 -266 -195 -378 -58
-147 -14 -269 104 -285 91 -12 193 53 404 258 l141 137 0 52 c0 47 -3 55 -37
86 -65 59 -114 46 -213 -56 -92 -94 -101 -93 -54 4 32 67 39 90 34 117 -14 73
-81 115 -145 92z"/>
<path d="M2345 5414 c-14 -15 -25 -32 -26 -38 0 -6 -2 -94 -3 -196 -3 -207
-18 -285 -76 -401 -49 -96 -93 -145 -180 -195 -109 -64 -125 -83 -125 -151 0
-49 3 -58 33 -84 44 -39 93 -39 175 2 131 66 203 140 276 286 81 162 119 307
128 488 8 181 0 236 -41 280 -30 31 -39 35 -85 35 -43 0 -56 -4 -76 -26z"/>
<path d="M3520 5327 c-35 -17 -73 -94 -65 -132 21 -115 167 -301 255 -325 74
-20 135 3 166 62 32 61 15 143 -49 238 -60 90 -98 120 -199 155 -52 18 -75 19
-108 2z"/>
<path d="M3008 5161 c-81 -26 -152 -101 -188 -199 -81 -215 71 -346 287 -248
77 35 97 57 117 125 50 170 -16 316 -147 327 -23 2 -54 -1 -69 -5z"/>
<path d="M4733 4751 c-35 -29 -43 -63 -43 -174 1 -255 77 -424 222 -496 98
-49 200 -36 271 36 55 54 72 97 71 179 0 60 -5 82 -33 140 -45 91 -155 199
-281 277 -79 48 -101 57 -139 57 -30 -1 -54 -7 -68 -19z m253 -402 c8 -17 13
-36 11 -42 -3 -10 -47 62 -47 78 0 13 21 -8 36 -36z"/>
<path d="M2720 4236 c-152 -34 -235 -125 -235 -261 1 -153 95 -254 247 -263
131 -8 269 57 387 183 69 74 88 122 72 183 -25 89 -75 117 -281 157 -89 17
-117 17 -190 1z"/>
<path d="M1085 4095 c-82 -29 -124 -120 -88 -192 27 -55 59 -73 149 -84 97
-12 151 -26 160 -41 19 -30 -164 -125 -319 -165 -56 -15 -114 -35 -130 -46
-98 -67 -65 -230 51 -253 33 -6 229 43 351 89 114 43 191 89 255 152 27 28 47
42 43 31 -4 -10 -12 -48 -18 -85 -27 -162 66 -309 225 -356 189 -56 356 61
356 250 0 87 -50 220 -105 278 -63 66 -167 105 -244 91 -45 -8 -118 -45 -151
-76 l-26 -23 4 85 c4 81 2 88 -30 150 -63 122 -176 181 -393 204 -31 3 -65 0
-90 -9z"/>
<path d="M4225 3756 c-105 -26 -184 -84 -246 -179 -101 -156 -61 -321 98 -399
60 -29 77 -33 148 -33 104 1 156 25 239 107 69 70 114 151 140 259 20 82 20
112 0 155 -21 43 -66 67 -167 88 -89 19 -143 19 -212 2z m52 -312 c-32 -28
-47 -30 -47 -9 0 16 60 48 70 38 3 -2 -8 -16 -23 -29z"/>
<path d="M5137 3576 c-110 -46 -217 -149 -266 -256 -33 -72 -29 -171 10 -248
17 -34 47 -75 67 -92 154 -127 416 -40 516 170 27 57 31 76 31 150 0 64 -5 94
-19 120 -24 44 -123 148 -158 166 -40 21 -115 17 -181 -10z m53 -324 c0 -11
-22 -32 -32 -32 -5 0 -4 9 2 20 11 20 30 28 30 12z"/>
<path d="M2631 3474 c-90 -19 -161 -56 -231 -121 -77 -71 -137 -169 -196 -318
-78 -196 -107 -231 -254 -302 -130 -62 -214 -119 -299 -205 -169 -169 -282
-364 -332 -573 -31 -132 -24 -286 19 -408 44 -123 122 -281 175 -354 189 -256
634 -388 951 -282 109 37 267 132 392 238 185 155 306 407 375 779 30 159 31
176 26 342 -6 197 -42 464 -83 624 -14 55 -32 127 -39 160 -35 154 -134 305
-245 375 -81 51 -161 65 -259 45z m135 -524 c73 -237 98 -461 83 -750 -13
-254 -34 -401 -73 -517 -31 -92 -66 -145 -142 -220 -228 -223 -467 -258 -726
-106 -315 185 -307 581 18 894 55 52 98 80 209 137 180 93 281 178 350 297 14
23 49 110 79 194 54 150 60 164 100 209 l20 23 23 -24 c15 -14 37 -66 59 -137z"/>
<path d="M3424 3386 c-45 -20 -93 -83 -149 -193 -55 -110 -62 -156 -29 -200
12 -15 38 -34 58 -42 33 -13 44 -12 94 3 81 26 115 56 156 136 40 81 54 163
37 221 -20 67 -102 104 -167 75z"/>
<path d="M404 2320 c-37 -15 -64 -59 -64 -104 0 -44 34 -168 76 -281 112 -299
288 -478 469 -479 109 0 193 63 210 155 15 82 -57 260 -155 383 -72 91 -153
155 -322 256 -133 80 -164 90 -214 70z m353 -470 c34 -39 93 -129 93 -142 0
-34 -89 57 -129 131 -17 32 -31 62 -31 65 0 11 35 -17 67 -54z"/>
<path d="M4365 2011 c-16 -10 -38 -28 -49 -39 l-18 -21 -37 29 c-120 97 -300
0 -301 -161 0 -120 62 -353 123 -464 112 -201 311 -166 404 71 54 137 103 348
103 445 0 116 -131 198 -225 140z"/>
</g>
</svg>
