<?xml version="1.0" standalone="no"?>
<!DOCTYPE svg PUBLIC "-//W3C//DTD SVG 20010904//EN"
 "http://www.w3.org/TR/2001/REC-SVG-20010904/DTD/svg10.dtd">
<svg version="1.0" xmlns="http://www.w3.org/2000/svg"
 width="600.000000pt" height="600.000000pt" viewBox="0 0 600.000000 600.000000"
 preserveAspectRatio="xMidYMid meet">
<metadata>
Created by potrace 1.15, written by Peter Selinger 2001-2017
</metadata>
<g transform="translate(0.000000,600.000000) scale(0.100000,-0.100000)"
fill="#16364b" stroke="none">
<path d="M2010 5005 c-97 -32 -187 -123 -215 -218 -20 -66 -19 -105 4 -212 33
-151 42 -309 45 -748 2 -232 7 -550 11 -707 5 -187 4 -332 -3 -422 l-11 -136
-103 -134 c-57 -73 -148 -195 -203 -270 -55 -75 -108 -139 -119 -142 -13 -3
-17 -11 -13 -25 4 -16 0 -21 -14 -21 -28 0 -35 -27 -14 -51 18 -19 18 -20 0
-33 -26 -19 -5 -45 31 -38 23 4 24 2 19 -21 -4 -14 -2 -28 5 -32 14 -8 120 81
120 101 0 20 277 410 285 402 2 -2 9 -59 15 -128 21 -238 79 -471 151 -611 65
-125 194 -236 338 -290 69 -25 158 -49 187 -49 21 0 21 -2 17 -137 -6 -160 7
-234 82 -471 25 -78 43 -147 40 -152 -3 -6 -44 -10 -91 -10 -123 0 -174 -33
-174 -111 0 -50 44 -94 101 -104 109 -19 250 35 300 113 40 62 38 105 -12 265
-70 228 -82 290 -83 422 -1 66 3 133 7 149 8 28 8 28 65 20 31 -4 249 -6 485
-5 l427 2 -7 -43 c-23 -128 4 -315 78 -546 42 -133 46 -152 27 -152 -52 -2
-163 -22 -188 -35 -33 -17 -60 -61 -60 -98 0 -13 11 -36 24 -50 35 -37 93 -43
191 -17 132 33 205 100 205 187 0 26 -20 105 -50 194 -54 163 -90 330 -90 412
1 29 9 75 18 102 l17 50 75 7 c68 7 235 31 411 59 181 29 308 159 381 393 21
63 23 91 23 256 -1 157 -4 199 -23 275 -50 200 -161 357 -341 482 -27 19 138
-11 269 -49 41 -12 82 -30 91 -41 14 -17 23 -18 93 -12 54 5 79 12 83 22 3 8
0 19 -7 23 -10 6 -11 12 -3 22 8 11 9 31 4 81 -1 4 -12 7 -25 7 -38 0 -76 18
-76 35 0 21 -30 31 -40 14 -8 -11 -19 -11 -72 4 -35 10 -119 29 -188 43 -468
95 -486 100 -547 142 -32 22 -157 100 -278 173 -330 198 -564 359 -674 464
-139 133 -246 278 -330 444 -36 71 -219 526 -268 666 -19 55 -42 113 -50 129
-24 46 -103 126 -147 148 -52 27 -147 32 -206 13z m109 -155 c68 -19 119 -90
160 -224 12 -38 25 -74 30 -80 11 -13 74 -170 143 -356 95 -256 172 -394 310
-557 163 -193 381 -361 703 -543 255 -143 371 -214 445 -270 67 -51 234 -171
422 -303 126 -89 207 -203 245 -347 13 -49 17 -107 18 -230 0 -146 -3 -174
-23 -240 -32 -102 -67 -162 -123 -215 -58 -55 -87 -63 -374 -105 l-220 -32
-473 1 c-545 2 -831 13 -917 36 -219 57 -337 189 -404 451 -54 211 -54 212
-58 944 -2 377 -3 865 -2 1085 2 425 -3 501 -47 712 -20 98 -23 129 -15 160
12 45 51 90 95 109 38 16 42 16 85 4z m-654 -2938 c-3 -3 -11 0 -18 7 -9 10
-8 11 6 5 10 -3 15 -9 12 -12z"/>
<path d="M2630 2735 c-33 -40 7 -115 61 -115 21 0 32 7 44 30 20 39 19 56 -5
80 -24 24 -82 27 -100 5z"/>
<path d="M3082 2604 c-31 -22 -26 -70 10 -97 35 -26 72 -17 88 22 15 38 5 70
-27 82 -34 13 -45 12 -71 -7z"/>
<path d="M5203 3974 c-52 -19 -128 -85 -153 -134 -27 -53 -39 -139 -28 -207
18 -118 98 -227 206 -280 75 -37 191 -40 263 -7 59 28 121 92 155 163 39 80
45 206 15 277 -27 63 -97 132 -175 173 -54 28 -67 31 -150 30 -53 0 -109 -7
-133 -15z m161 -287 l30 -13 -22 -22 c-28 -28 -38 -28 -58 3 -27 41 -5 55 50
32z"/>
<path d="M5325 1086 c-48 -48 -70 -188 -39 -247 29 -56 106 -68 155 -23 30 27
53 102 53 175 1 58 -2 71 -23 93 -34 36 -111 37 -146 2z"/>
</g>
</svg>
