<?xml version="1.0" standalone="no"?>
<!DOCTYPE svg PUBLIC "-//W3C//DTD SVG 20010904//EN"
 "http://www.w3.org/TR/2001/REC-SVG-20010904/DTD/svg10.dtd">
<svg version="1.0" xmlns="http://www.w3.org/2000/svg"
 width="600.000000pt" height="600.000000pt" viewBox="0 0 600.000000 600.000000"
 preserveAspectRatio="xMidYMid meet">
<metadata>
Created by potrace 1.15, written by Peter Selinger 2001-2017
</metadata>
<g transform="translate(0.000000,600.000000) scale(0.100000,-0.100000)"
fill="#16364b" stroke="none">
<path d="M2235 5459 c-67 -19 -122 -119 -132 -240 -10 -114 40 -213 130 -262
39 -20 54 -22 205 -20 89 0 162 -1 162 -4 0 -3 -25 -53 -55 -111 -77 -150
-215 -442 -225 -474 -28 -90 81 -185 181 -158 48 13 84 54 115 130 36 90 78
170 182 353 102 179 127 250 120 350 -3 56 -9 74 -42 121 -31 45 -51 62 -102
87 -63 31 -67 32 -162 26 -53 -4 -123 -9 -154 -13 l-57 -7 11 36 c22 71 -24
159 -95 186 -32 13 -41 13 -82 0z"/>
<path d="M3720 5247 c-41 -13 -93 -32 -115 -43 -107 -55 -115 -187 -15 -243
47 -26 90 -27 163 -1 64 23 117 26 135 8 31 -31 3 -188 -62 -351 -52 -129 -46
-186 27 -241 62 -47 168 -31 213 32 19 28 81 191 106 282 30 108 36 280 13
351 -64 194 -241 272 -465 206z"/>
<path d="M1680 4885 c-176 -39 -414 -150 -460 -214 -58 -83 -16 -209 83 -244
12 -4 17 -17 17 -42 0 -47 22 -88 64 -120 27 -21 75 -34 257 -71 123 -25 251
-57 284 -71 33 -14 76 -30 95 -36 109 -32 219 69 190 174 -24 88 -157 152
-465 224 -147 35 -146 34 -110 49 58 25 138 39 230 40 87 1 96 3 137 31 104
73 104 207 0 268 -45 26 -228 33 -322 12z"/>
<path d="M3254 4374 c-199 -51 -682 -222 -767 -272 -40 -24 -70 -92 -62 -140
13 -76 71 -132 139 -132 24 0 73 16 130 41 50 23 202 79 337 125 388 131 404
141 404 250 0 58 -3 66 -31 94 -40 40 -86 51 -150 34z"/>
<path d="M4264 4299 c-101 -29 -142 -171 -72 -247 42 -45 67 -49 252 -44 167
4 174 4 195 -17 16 -16 21 -33 21 -73 0 -63 -22 -193 -50 -295 -31 -115 -25
-157 35 -213 23 -21 36 -25 90 -25 98 0 121 29 160 203 76 341 69 490 -31 601
-49 55 -118 92 -202 110 -63 13 -353 13 -398 0z"/>
<path d="M2140 3885 c-100 -33 -284 -68 -417 -80 -121 -10 -148 -16 -177 -36
-79 -54 -97 -151 -42 -223 38 -51 78 -60 226 -52 173 9 550 69 600 96 40 21
65 72 64 130 0 66 -21 109 -70 146 -43 33 -116 40 -184 19z"/>
<path d="M3678 3765 c-69 -17 -139 -52 -312 -154 -72 -43 -162 -95 -200 -116
-40 -22 -76 -50 -87 -69 -41 -68 -33 -139 22 -192 26 -25 38 -29 87 -29 51 1
68 7 162 62 128 73 283 154 288 149 2 -2 -8 -31 -22 -65 -33 -76 -34 -137 -3
-181 63 -93 172 -106 244 -28 31 33 100 213 119 313 14 71 15 94 5 139 -31
139 -155 208 -303 171z"/>
<path d="M4931 3247 c-19 -6 -54 -29 -77 -51 -54 -53 -70 -107 -55 -185 23
-112 13 -131 -132 -245 -153 -119 -230 -216 -300 -372 -105 -237 -69 -556 72
-651 144 -97 342 -7 382 172 9 42 9 63 -1 97 -23 81 -23 125 1 200 20 65 30
78 98 142 231 216 284 286 325 425 29 100 17 279 -24 361 -51 98 -174 144
-289 107z"/>
<path d="M2025 3241 c-28 -13 -72 -61 -84 -94 -25 -66 -4 -160 42 -190 40 -25
71 -27 228 -16 86 7 172 9 193 5 36 -7 37 -8 29 -39 -28 -112 30 -196 139
-204 111 -8 177 69 186 217 4 67 1 83 -22 133 -37 77 -106 137 -193 167 -62
21 -88 24 -283 27 -118 1 -224 -1 -235 -6z"/>
<path d="M4287 3156 c-21 -8 -66 -41 -100 -73 -107 -102 -254 -190 -390 -232
-37 -11 -130 -30 -205 -41 -142 -21 -166 -30 -206 -83 -26 -35 -26 -104 0
-148 11 -19 38 -44 60 -57 36 -21 48 -23 139 -18 292 14 529 119 789 350 79
70 126 138 126 180 0 37 -30 89 -63 110 -34 23 -106 29 -150 12z"/>
<path d="M1245 3006 c-69 -31 -108 -94 -108 -176 0 -62 11 -90 56 -137 29 -31
31 -38 49 -200 41 -378 108 -676 177 -784 63 -100 201 -120 284 -41 70 66 78
142 29 269 -40 102 -58 208 -72 410 -23 334 -61 486 -151 587 -64 73 -186 107
-264 72z"/>
<path d="M2090 2516 c-135 -36 -346 -227 -366 -331 -19 -105 76 -200 181 -181
26 5 49 20 78 54 76 83 126 131 157 147 29 15 30 15 44 -19 8 -18 30 -46 50
-62 20 -16 36 -32 36 -37 0 -4 -11 -25 -25 -47 -14 -22 -37 -75 -52 -117 -24
-68 -27 -94 -27 -203 -1 -128 26 -286 60 -352 50 -97 162 -113 232 -34 39 44
46 90 28 169 -40 171 -30 263 40 405 38 76 46 99 41 128 -8 46 -31 82 -68 102
-19 11 -27 22 -23 32 31 75 24 130 -26 218 -67 116 -214 168 -360 128z"/>
<path d="M3590 2204 c-166 -20 -230 -30 -400 -64 -434 -88 -452 -94 -503 -173
-62 -95 -33 -218 63 -267 70 -36 225 -21 565 55 167 37 334 65 397 65 28 0 45
-7 69 -31 97 -95 236 -88 297 16 19 34 22 50 19 106 -5 78 -31 138 -88 203
-57 65 -122 87 -269 91 -63 2 -131 1 -150 -1z"/>
<path d="M4580 1591 c-47 -15 -85 -39 -120 -76 -62 -65 -126 -85 -325 -101
-113 -8 -262 -39 -358 -74 -184 -67 -495 -283 -534 -371 -16 -38 -18 -39 -68
-39 -44 0 -62 -6 -116 -42 -95 -62 -151 -81 -239 -81 -59 0 -89 6 -140 27
-120 49 -246 145 -330 251 -62 78 -102 99 -180 93 -135 -10 -209 -150 -148
-277 30 -62 252 -284 347 -346 141 -92 286 -135 459 -135 168 0 288 41 429
146 55 41 77 65 94 103 22 47 24 49 67 49 51 1 83 19 208 115 49 37 128 87
175 112 140 72 233 94 539 125 176 18 280 59 383 150 106 94 130 201 66 295
-42 61 -143 98 -209 76z"/>
</g>
</svg>
