<?xml version="1.0" standalone="no"?>
<!DOCTYPE svg PUBLIC "-//W3C//DTD SVG 20010904//EN"
 "http://www.w3.org/TR/2001/REC-SVG-20010904/DTD/svg10.dtd">
<svg version="1.0" xmlns="http://www.w3.org/2000/svg"
 width="600.000000pt" height="600.000000pt" viewBox="0 0 600.000000 600.000000"
 preserveAspectRatio="xMidYMid meet">
<metadata>
Created by potrace 1.15, written by Peter Selinger 2001-2017
</metadata>
<g transform="translate(0.000000,600.000000) scale(0.100000,-0.100000)"
fill="#16364b" stroke="none">
<path d="M3549 5289 c-40 -15 -59 -64 -44 -114 36 -123 157 -244 243 -245 13
0 34 11 48 26 43 42 26 93 -78 235 -66 92 -112 118 -169 98z m116 -177 c45
-67 51 -90 15 -57 -25 23 -80 108 -80 124 0 21 19 1 65 -67z"/>
<path d="M2988 5060 c-81 -54 -136 -191 -108 -274 24 -73 94 -87 172 -36 83
55 128 135 128 227 0 47 -4 59 -29 84 -41 41 -100 40 -163 -1z m114 -67 c8
-36 -25 -107 -70 -150 -24 -24 -50 -43 -58 -43 -22 0 -18 76 7 126 31 65 112
109 121 67z"/>
<path d="M4773 4740 c-47 -19 -54 -46 -60 -246 -6 -217 6 -365 35 -403 38 -51
104 -48 139 6 15 23 18 54 21 208 4 213 -15 386 -44 416 -24 22 -62 31 -91 19z"/>
<path d="M2664 4226 c-42 -19 -64 -52 -64 -96 0 -59 39 -86 200 -139 108 -35
200 -50 247 -40 64 13 96 86 66 148 -17 34 -24 37 -164 83 -166 54 -239 65
-285 44z"/>
<path d="M1550 4179 c-112 -34 -182 -159 -159 -284 13 -70 42 -121 109 -190
111 -117 182 -304 235 -618 21 -128 38 -271 44 -387 6 -102 15 -237 21 -300 5
-63 14 -185 20 -270 6 -85 17 -195 26 -243 32 -189 111 -350 238 -484 114
-121 201 -161 429 -198 l38 -6 -8 -57 c-21 -154 -1 -297 78 -538 27 -83 49
-153 49 -156 0 -4 -47 -8 -104 -10 -94 -3 -107 -5 -130 -27 -28 -26 -34 -67
-15 -103 27 -50 159 -73 266 -47 88 23 154 119 138 202 -4 18 -19 73 -35 122
-70 216 -96 364 -87 491 8 107 18 128 60 120 51 -10 733 -28 835 -22 50 3 92
3 92 1 0 -3 -8 -24 -17 -47 -14 -32 -18 -71 -18 -153 0 -135 8 -151 119 -257
45 -43 79 -78 76 -79 -3 0 -40 -4 -83 -8 -66 -7 -83 -13 -108 -37 -21 -20 -29
-37 -29 -61 0 -107 145 -147 284 -79 91 44 129 119 106 206 -9 35 -33 65 -109
144 -95 98 -98 103 -105 158 -8 63 3 118 39 188 l23 45 88 13 c88 12 331 70
494 119 239 71 402 201 495 397 71 152 89 336 46 491 -73 262 -178 399 -350
455 -99 31 -252 26 -361 -14 -199 -72 -387 -99 -536 -78 -436 63 -667 171
-950 445 -130 125 -203 216 -379 467 -59 85 -128 180 -153 210 -80 97 -215
230 -297 293 -44 33 -100 78 -124 99 -87 76 -208 112 -291 87z m136 -195 c21
-15 60 -45 85 -68 26 -22 79 -63 117 -90 136 -94 263 -237 432 -491 211 -317
405 -520 644 -677 173 -114 305 -165 581 -224 151 -33 186 -37 310 -37 166 0
269 18 440 75 137 46 216 52 302 24 157 -52 278 -348 232 -568 -27 -131 -122
-269 -240 -347 -90 -60 -441 -170 -659 -206 -188 -32 -1013 -28 -1341 6 -189
19 -290 60 -383 153 -129 129 -190 324 -210 671 -36 599 -49 726 -97 990 -59
322 -126 476 -274 632 -67 70 -86 120 -61 158 22 34 71 34 122 -1z"/>
<path d="M2412 2527 c-29 -31 -28 -61 4 -86 36 -28 68 -26 93 5 26 33 27 58 1
84 -27 27 -71 26 -98 -3z"/>
<path d="M2885 2175 c-32 -32 -31 -50 4 -86 36 -35 54 -36 86 -4 38 37 33 80
-12 104 -33 17 -51 14 -78 -14z"/>
<path d="M5231 3974 c-150 -40 -227 -150 -220 -312 7 -139 83 -253 206 -309
48 -22 65 -25 137 -21 100 6 176 39 245 108 67 67 94 127 99 223 4 72 2 83
-27 142 -36 73 -76 110 -166 154 -54 27 -73 31 -141 30 -44 0 -103 -7 -133
-15z m159 -300 c6 -7 -13 -36 -32 -48 -22 -13 -48 9 -48 41 0 24 2 25 38 18
20 -4 39 -9 42 -11z"/>
<path d="M4227 3770 c-93 -24 -168 -84 -214 -173 -24 -45 -28 -64 -28 -137 0
-70 4 -93 23 -130 32 -61 68 -97 126 -127 44 -22 59 -25 126 -21 91 5 162 39
221 106 53 61 73 125 66 221 -3 42 -10 93 -16 113 -30 99 -189 176 -304 148z
m73 -279 c0 -36 -47 -65 -57 -35 -4 12 33 54 47 54 6 0 10 -9 10 -19z"/>
<path d="M486 2005 c-31 -31 -19 -52 59 -105 157 -106 241 -134 265 -89 19 35
-10 61 -152 135 -73 38 -138 70 -144 72 -6 2 -19 -4 -28 -13z"/>
<path d="M5348 1081 c-33 -38 -63 -148 -55 -198 14 -86 120 -112 175 -44 48
60 62 189 26 238 -17 23 -30 29 -71 31 -45 3 -53 0 -75 -27z"/>
</g>
</svg>
