<?xml version="1.0" standalone="no"?>
<!DOCTYPE svg PUBLIC "-//W3C//DTD SVG 20010904//EN"
 "http://www.w3.org/TR/2001/REC-SVG-20010904/DTD/svg10.dtd">
<svg version="1.0" xmlns="http://www.w3.org/2000/svg"
 width="600.000000pt" height="600.000000pt" viewBox="0 0 600.000000 600.000000"
 preserveAspectRatio="xMidYMid meet">
<metadata>
Created by potrace 1.15, written by Peter Selinger 2001-2017
</metadata>
<g transform="translate(0.000000,600.000000) scale(0.100000,-0.100000)"
fill="#16364b" stroke="none">
<path d="M2192 5806 c-57 -26 -405 -327 -568 -492 -146 -148 -185 -254 -133
-362 46 -93 156 -123 330 -88 159 32 244 66 686 277 75 36 103 75 103 144 0
60 -24 100 -75 125 -64 31 -83 27 -260 -55 -44 -20 -89 -41 -100 -45 -11 -4
-44 -17 -72 -29 -29 -11 -53 -19 -53 -17 0 2 74 70 165 151 91 81 172 160 180
175 34 66 10 154 -55 202 -35 25 -107 32 -148 14z"/>
<path d="M3045 5677 c-101 -48 -112 -173 -20 -242 18 -14 74 -36 130 -50 117
-31 227 -80 277 -124 21 -18 50 -58 65 -89 24 -49 28 -69 28 -142 -1 -66 -6
-94 -22 -125 -41 -77 -140 -158 -262 -213 -31 -13 -68 -36 -84 -50 -93 -87
-21 -262 108 -262 75 0 284 129 390 242 127 133 168 233 168 408 1 100 -3 126
-27 195 -39 114 -80 180 -157 256 -48 48 -90 79 -150 108 -146 72 -379 118
-444 88z"/>
<path d="M915 5297 c-199 -104 -300 -218 -324 -365 -11 -69 -1 -158 25 -230
58 -158 256 -352 359 -352 80 0 145 70 145 155 0 52 -28 96 -89 140 -107 77
-156 188 -117 263 22 43 55 68 152 116 108 53 134 85 134 162 0 92 -63 154
-155 154 -39 -1 -67 -10 -130 -43z"/>
<path d="M2709 4965 c-187 -68 -290 -217 -293 -420 -1 -78 3 -98 25 -145 68
-142 224 -246 401 -266 145 -17 234 117 159 239 -24 40 -61 59 -156 83 -89 22
-125 55 -125 112 0 54 30 88 106 123 76 33 104 71 104 139 0 110 -108 177
-221 135z"/>
<path d="M4775 4933 c-88 -46 -110 -90 -101 -205 23 -326 160 -518 372 -518
121 0 206 58 263 180 21 44 26 70 26 130 0 65 -4 82 -30 129 -52 94 -207 208
-369 272 -81 32 -118 35 -161 12z"/>
<path d="M1809 4456 c-150 -58 -279 -178 -279 -262 0 -37 27 -90 62 -119 72
-60 165 -51 225 22 62 75 119 92 170 49 68 -57 135 -70 199 -40 70 33 105 134
70 202 -20 39 -85 92 -156 128 -48 24 -69 29 -155 31 -67 2 -112 -2 -136 -11z"/>
<path d="M2705 3856 c-5 -3 -27 -7 -48 -11 -50 -8 -105 -57 -113 -102 -21
-109 75 -198 206 -191 l45 3 -1 -46 c-1 -88 -131 -321 -263 -473 -68 -77 -86
-120 -76 -174 9 -51 38 -87 88 -111 85 -41 148 -23 227 68 82 92 164 221 240
374 102 205 124 333 77 448 -57 136 -155 205 -307 215 -36 2 -69 2 -75 0z"/>
<path d="M4123 3779 c-156 -49 -246 -188 -229 -351 25 -247 305 -338 546 -177
77 52 138 127 195 244 49 98 56 144 29 201 -23 49 -67 71 -177 88 -135 22
-286 20 -364 -5z m123 -295 c-28 -25 -55 -29 -59 -9 -1 6 14 15 33 22 52 18
58 15 26 -13z"/>
<path d="M1110 3765 c-117 -32 -224 -80 -260 -116 -90 -88 -71 -263 33 -312
39 -19 103 -22 141 -7 16 6 26 6 26 0 0 -5 -22 -54 -49 -107 -27 -54 -76 -174
-109 -268 -33 -93 -85 -235 -117 -315 -74 -191 -93 -265 -77 -319 15 -48 53
-96 96 -118 39 -21 151 -22 188 -2 66 35 258 201 394 341 83 84 199 203 258
263 l108 110 -6 -53 c-7 -74 -160 -683 -197 -789 -17 -48 -54 -132 -81 -186
-40 -78 -50 -108 -50 -147 0 -91 63 -154 157 -155 64 0 106 29 140 95 51 101
167 406 200 527 31 112 92 404 110 523 4 25 13 67 21 94 8 27 17 104 20 170
10 184 -24 273 -121 317 -116 53 -262 -18 -479 -233 -65 -65 -120 -118 -122
-118 -5 0 26 70 108 239 95 199 117 276 98 359 -19 87 -71 156 -145 195 -53
27 -204 34 -285 12z"/>
<path d="M3515 3371 c-109 -50 -179 -135 -219 -261 -50 -158 -34 -239 58 -287
43 -23 171 -20 256 6 85 26 140 68 175 132 73 134 22 349 -96 410 -48 24 -122
24 -174 0z"/>
<path d="M4884 2799 c-53 -15 -221 -212 -277 -324 -59 -119 -56 -241 7 -313
40 -46 81 -62 159 -62 215 0 367 178 368 429 1 99 -8 128 -48 162 -15 13 -36
37 -46 52 -18 28 -88 67 -117 66 -8 0 -29 -5 -46 -10z"/>
<path d="M4173 2455 c-112 -56 -136 -149 -84 -319 17 -54 31 -107 31 -117 0
-19 -1 -19 -37 -1 -69 35 -167 63 -233 69 -130 10 -251 -70 -322 -215 -32 -64
-33 -72 -32 -177 1 -75 8 -140 23 -205 12 -52 31 -149 41 -215 21 -138 28
-159 66 -204 104 -124 312 -78 380 84 18 43 18 119 0 215 -26 142 -27 160 -12
160 7 0 39 -18 71 -39 81 -55 136 -67 217 -47 183 47 261 135 289 325 24 166
-10 461 -67 578 -58 120 -208 169 -331 108z"/>
<path d="M2924 2319 c-170 -28 -570 -201 -629 -271 -24 -29 -30 -30 -103 -32
-92 -2 -132 -20 -217 -98 -69 -62 -94 -113 -95 -186 0 -64 17 -107 59 -146 25
-24 42 -31 91 -34 l59 -4 11 -57 c7 -31 18 -77 25 -103 l14 -48 -56 -27 c-74
-37 -139 -104 -176 -183 -55 -114 -49 -290 13 -427 65 -143 201 -299 325 -373
133 -79 386 -139 529 -126 140 13 369 114 429 189 73 89 32 238 -78 288 -66
30 -110 25 -215 -27 -120 -59 -163 -74 -215 -74 -77 0 -182 30 -243 70 -77 50
-92 65 -139 135 -46 68 -67 125 -58 155 11 35 41 25 127 -41 48 -37 141 -69
202 -69 98 0 186 86 186 181 0 70 -20 110 -85 173 -35 34 -75 80 -90 104 -40
66 -84 184 -116 311 -30 116 -29 130 8 131 7 0 91 36 188 80 282 129 312 139
300 98 -22 -74 -124 -329 -167 -418 -61 -126 -70 -161 -57 -220 35 -155 230
-202 333 -79 85 101 290 634 303 788 20 238 -183 387 -463 340z"/>
</g>
</svg>
