<?xml version="1.0" standalone="no"?>
<!DOCTYPE svg PUBLIC "-//W3C//DTD SVG 20010904//EN"
 "http://www.w3.org/TR/2001/REC-SVG-20010904/DTD/svg10.dtd">
<svg version="1.0" xmlns="http://www.w3.org/2000/svg"
 width="600.000000pt" height="600.000000pt" viewBox="0 0 600.000000 600.000000"
 preserveAspectRatio="xMidYMid meet">
<metadata>
Created by potrace 1.15, written by Peter Selinger 2001-2017
</metadata>
<g transform="translate(0.000000,600.000000) scale(0.100000,-0.100000)"
fill="#16364b" stroke="none">
<path d="M2388 5383 c-12 -14 -17 -60 -22 -220 -10 -325 -40 -438 -140 -539
-28 -27 -86 -69 -129 -93 -86 -48 -107 -75 -89 -116 20 -45 51 -41 153 16 154
86 247 196 283 335 22 84 36 260 36 445 0 138 -2 158 -18 172 -24 22 -55 22
-74 0z"/>
<path d="M3544 5282 c-23 -16 -44 -58 -44 -88 0 -71 105 -228 182 -271 41 -22
96 -16 124 15 22 23 25 34 22 73 -9 85 -100 229 -169 264 -29 16 -97 20 -115
7z"/>
<path d="M3015 5074 c-81 -42 -144 -137 -152 -232 -16 -175 128 -209 262 -61
92 102 105 253 24 294 -36 19 -96 19 -134 -1z m85 -111 c0 -46 -86 -163 -120
-163 -15 0 -12 46 5 86 27 66 115 125 115 77z"/>
<path d="M4774 4726 c-28 -23 -28 -25 -37 -192 -19 -385 7 -494 119 -494 87 0
124 73 124 244 0 129 -21 254 -61 357 -42 109 -87 136 -145 85z"/>
<path d="M2676 4230 c-59 -18 -102 -81 -91 -136 13 -74 112 -139 254 -170 188
-40 326 9 326 116 0 66 -26 88 -145 127 -190 61 -289 79 -344 63z"/>
<path d="M5280 3986 c-76 -21 -123 -48 -181 -106 -66 -66 -89 -123 -89 -222 0
-160 104 -299 245 -328 111 -23 274 28 358 112 71 71 92 126 92 238 0 86 -3
100 -27 142 -35 58 -88 104 -169 146 -71 36 -144 42 -229 18z m89 -302 c36 -8
40 -27 9 -48 -31 -22 -43 -20 -57 10 -18 41 -8 49 48 38z"/>
<path d="M1294 3819 c-106 -40 -169 -136 -168 -254 1 -128 74 -225 224 -297
102 -48 131 -74 175 -153 55 -99 156 -433 190 -625 19 -112 42 -293 50 -405
34 -454 192 -730 483 -847 35 -14 64 -28 65 -31 1 -4 -19 -19 -44 -36 -114
-72 -150 -200 -73 -260 50 -40 109 -43 386 -25 283 20 298 18 259 -32 -30 -39
-27 -79 9 -116 27 -26 36 -30 68 -25 50 8 87 51 101 116 15 73 14 80 -19 138
-44 76 -72 88 -200 85 -58 -1 -181 -8 -275 -16 -93 -8 -174 -11 -178 -6 -14
13 91 50 231 82 l137 30 373 -2 373 -1 35 -24 c50 -34 117 -45 274 -45 l139 0
15 -29 c20 -37 72 -61 134 -61 73 0 108 17 148 69 35 45 39 68 20 112 -6 13 8
20 77 38 103 27 278 103 388 167 55 33 116 82 184 149 225 222 305 380 305
601 0 241 -122 511 -287 633 -133 99 -253 137 -403 128 -165 -10 -260 -52
-388 -169 -146 -133 -298 -210 -510 -258 -169 -39 -232 -44 -327 -30 -106 16
-205 58 -329 140 -197 130 -324 259 -498 504 -168 236 -403 486 -554 589 -66
45 -261 138 -358 171 -64 22 -169 20 -232 -5z m247 -269 c49 -22 92 -40 95
-40 26 0 167 -103 248 -180 138 -133 238 -255 387 -475 181 -267 230 -316 514
-507 249 -168 362 -206 579 -195 116 6 234 31 411 87 174 56 345 153 497 282
97 82 151 103 268 103 70 -1 95 -5 140 -26 76 -36 133 -98 186 -204 118 -240
66 -475 -157 -697 -64 -63 -95 -85 -181 -127 -221 -108 -413 -155 -708 -171
-228 -13 -898 -13 -975 0 -33 5 -107 15 -165 20 -203 21 -342 59 -428 117
-131 89 -202 264 -237 586 -24 221 -65 528 -81 607 -59 286 -185 559 -311 669
-25 22 -80 57 -122 77 -91 43 -111 59 -111 91 0 35 47 30 151 -17z"/>
<path d="M2330 2443 c-45 -16 -52 -72 -14 -102 34 -27 58 -27 84 1 50 54 0
126 -70 101z"/>
<path d="M2842 2034 c-30 -21 -30 -73 1 -102 29 -28 51 -28 77 0 40 43 15 118
-40 118 -9 0 -26 -7 -38 -16z"/>
<path d="M4190 3734 c-134 -49 -228 -174 -229 -307 -1 -109 66 -190 190 -228
208 -63 409 68 409 268 0 85 -17 158 -45 191 -13 16 -50 41 -82 57 -72 36
-174 44 -243 19z m120 -252 c0 -10 -5 -23 -12 -30 -17 -17 -48 -15 -48 2 0 14
36 46 52 46 5 0 8 -8 8 -18z"/>
<path d="M3461 3368 c-14 -5 -30 -16 -38 -26 -30 -38 -84 -135 -117 -212 -30
-68 -34 -85 -25 -103 16 -30 28 -37 66 -37 25 0 39 9 67 43 46 57 126 226 128
271 2 55 -32 82 -81 64z"/>
<path d="M472 2028 c-27 -27 -13 -65 46 -121 31 -31 69 -65 84 -76 37 -29 128
-71 156 -71 30 0 62 34 62 68 0 39 -34 69 -165 147 -110 65 -157 79 -183 53z"/>
<path d="M5302 1097 c-34 -36 -52 -91 -52 -158 0 -56 3 -64 34 -95 24 -24 43
-34 65 -34 80 0 123 59 129 177 4 70 3 74 -26 103 -26 25 -38 30 -79 30 -38 0
-54 -5 -71 -23z"/>
</g>
</svg>
