<?xml version="1.0" standalone="no"?>
<!DOCTYPE svg PUBLIC "-//W3C//DTD SVG 20010904//EN"
 "http://www.w3.org/TR/2001/REC-SVG-20010904/DTD/svg10.dtd">
<svg version="1.0" xmlns="http://www.w3.org/2000/svg"
 width="600.000000pt" height="600.000000pt" viewBox="0 0 600.000000 600.000000"
 preserveAspectRatio="xMidYMid meet">
<metadata>
Created by potrace 1.15, written by Peter Selinger 2001-2017
</metadata>
<g transform="translate(0.000000,600.000000) scale(0.100000,-0.100000)"
fill="#16364b" stroke="none">
<path d="M1790 5790 c-46 -8 -87 -36 -106 -71 -37 -72 -138 -365 -164 -477
-58 -242 13 -383 185 -370 76 7 135 36 240 121 120 97 317 326 357 416 54 119
-38 243 -156 210 -40 -11 -55 -26 -186 -177 -40 -46 -74 -81 -77 -79 -2 3 10
44 27 93 57 162 63 186 51 230 -20 75 -91 118 -171 104z"/>
<path d="M3033 5646 c-69 -31 -93 -123 -50 -187 12 -19 63 -61 111 -94 49 -33
132 -96 185 -141 145 -122 311 -317 311 -366 0 -17 -5 -18 -44 -13 -125 19
-202 -127 -119 -226 41 -49 79 -63 168 -63 185 0 306 104 305 263 -1 201 -257
507 -638 763 -117 78 -166 92 -229 64z"/>
<path d="M918 5440 c-101 -18 -148 -40 -207 -99 -83 -81 -112 -159 -119 -309
-4 -89 -1 -128 13 -179 36 -132 148 -251 244 -261 93 -9 171 61 171 153 0 49
-13 71 -75 130 -64 60 -77 102 -50 170 23 61 59 85 145 94 109 11 164 62 164
154 1 102 -49 148 -168 153 -39 2 -92 -1 -118 -6z"/>
<path d="M2912 5160 c-50 -25 -74 -46 -108 -92 -49 -67 -64 -110 -64 -183 1
-144 134 -247 300 -231 130 12 203 54 216 124 4 20 2 79 -4 131 -21 179 -93
272 -217 279 -52 3 -69 -1 -123 -28z"/>
<path d="M4787 4875 c-48 -17 -81 -46 -103 -93 -14 -30 -16 -55 -11 -152 13
-243 87 -410 219 -497 30 -20 55 -27 113 -31 66 -4 81 -2 129 22 121 59 187
197 156 328 -23 99 -60 158 -155 253 -73 73 -108 99 -183 138 -102 51 -109 53
-165 32z"/>
<path d="M2085 4819 c-129 -13 -221 -54 -248 -112 -32 -67 -17 -130 43 -180
43 -37 88 -43 169 -22 82 22 101 17 101 -26 0 -23 10 -41 38 -69 46 -46 96
-59 162 -41 82 22 123 81 124 177 0 111 -65 204 -172 251 -46 19 -144 29 -217
22z"/>
<path d="M1185 4083 c-71 -9 -177 -34 -204 -47 -136 -71 -134 -279 3 -346 39
-18 56 -21 106 -15 33 4 60 3 60 -2 0 -11 -112 -153 -224 -283 -111 -128 -147
-178 -219 -300 -86 -147 -137 -259 -137 -299 1 -84 71 -168 149 -178 22 -3 70
-2 106 2 74 8 97 21 314 183 134 100 231 164 323 216 l68 38 29 -22 c20 -14
33 -33 37 -57 24 -129 -54 -378 -182 -579 -93 -147 -220 -295 -300 -350 -83
-57 -99 -83 -99 -157 0 -74 19 -106 81 -137 75 -37 136 -22 250 63 74 55 111
103 284 367 216 330 286 488 297 675 4 66 9 84 27 100 35 32 47 52 56 88 9 42
-5 279 -20 330 -18 59 -73 115 -134 132 -88 26 -170 3 -398 -111 -49 -24 -88
-42 -88 -39 0 2 29 37 65 76 87 97 149 193 169 258 50 169 -24 343 -163 385
-51 15 -176 19 -256 9z"/>
<path d="M2865 4080 c-128 -28 -205 -112 -205 -225 0 -112 80 -199 220 -239
94 -26 244 -38 353 -26 146 15 313 47 341 65 84 55 69 206 -26 268 -145 94
-547 187 -683 157z"/>
<path d="M4230 3779 c-179 -30 -307 -161 -318 -326 -4 -64 -1 -79 22 -127 56
-115 198 -181 333 -157 178 33 301 161 363 377 23 81 15 131 -29 175 -54 53
-231 81 -371 58z m21 -309 c-25 -21 -51 -26 -51 -10 0 13 31 29 55 29 19 0 19
-1 -4 -19z"/>
<path d="M3412 3403 c-79 -39 -222 -257 -222 -339 0 -48 34 -110 71 -129 44
-23 175 -25 215 -3 133 72 212 312 139 424 -39 60 -133 82 -203 47z"/>
<path d="M5048 3210 c-101 -30 -264 -173 -313 -273 -57 -118 -42 -260 36 -338
53 -53 100 -72 184 -73 131 -1 251 80 318 214 30 60 32 71 32 170 0 89 -3 111
-22 147 -35 65 -112 139 -158 152 -45 12 -40 12 -77 1z"/>
<path d="M3940 2601 c-45 -14 -84 -39 -111 -68 -72 -77 -78 -158 -26 -333 19
-63 33 -116 32 -118 -1 -1 -19 5 -41 14 -104 45 -231 10 -291 -79 -72 -107
-67 -214 23 -510 31 -100 65 -213 76 -252 26 -93 53 -138 97 -163 55 -31 102
-36 163 -18 104 30 181 123 182 223 l1 53 72 0 c160 0 277 86 304 223 17 83 0
165 -77 380 -37 100 -86 261 -111 357 -48 192 -66 226 -140 268 -45 25 -115
36 -153 23z"/>
<path d="M2017 2326 c-128 -36 -262 -181 -327 -352 -12 -32 -25 -63 -30 -69
-4 -5 -32 -53 -61 -105 -29 -52 -70 -126 -92 -165 -93 -167 -123 -289 -114
-462 16 -309 208 -582 523 -742 148 -75 372 -113 539 -91 206 26 355 117 490
295 30 40 68 86 83 102 71 71 226 386 303 615 105 313 68 542 -105 653 -132
84 -253 73 -542 -51 -87 -37 -159 -63 -164 -58 -4 5 -13 27 -20 49 -23 72
-120 254 -157 296 -75 83 -210 118 -326 85z m101 -493 c11 -27 30 -86 42 -133
29 -115 58 -161 133 -212 51 -34 72 -43 119 -46 53 -4 66 0 185 56 208 97 385
167 396 156 11 -12 -140 -439 -198 -559 -42 -87 -61 -114 -169 -231 -92 -102
-247 -155 -390 -135 -79 11 -191 61 -280 125 -137 99 -171 161 -171 311 1 147
31 228 200 540 73 135 97 175 105 175 4 0 17 -21 28 -47z"/>
</g>
</svg>
