<?xml version="1.0" standalone="no"?>
<!DOCTYPE svg PUBLIC "-//W3C//DTD SVG 20010904//EN"
 "http://www.w3.org/TR/2001/REC-SVG-20010904/DTD/svg10.dtd">
<svg version="1.0" xmlns="http://www.w3.org/2000/svg"
 width="600.000000pt" height="600.000000pt" viewBox="0 0 600.000000 600.000000"
 preserveAspectRatio="xMidYMid meet">
<metadata>
Created by potrace 1.15, written by Peter Selinger 2001-2017
</metadata>
<g transform="translate(0.000000,600.000000) scale(0.100000,-0.100000)"
fill="#16364b" stroke="none">
<path d="M1531 5778 c-53 -26 -74 -67 -95 -191 -37 -212 -46 -431 -20 -518 21
-73 53 -112 116 -143 56 -28 109 -33 173 -15 63 18 146 113 247 280 139 232
188 330 188 375 0 106 -114 169 -201 111 -27 -18 -52 -58 -116 -185 -77 -154
-139 -262 -150 -262 -10 0 9 187 29 285 33 157 34 195 7 229 -24 31 -74 56
-111 56 -13 0 -43 -10 -67 -22z"/>
<path d="M811 5480 c-157 -57 -246 -203 -239 -395 3 -76 8 -100 35 -157 58
-122 162 -197 233 -168 61 25 101 103 86 166 -4 14 -26 47 -50 72 -24 26 -47
58 -51 71 -18 60 49 172 111 184 15 3 50 -2 77 -11 43 -14 54 -14 90 -1 33 11
46 23 65 60 21 41 22 51 12 87 -6 23 -22 50 -37 61 -65 52 -231 67 -332 31z"/>
<path d="M3303 5451 c-17 -11 -37 -30 -44 -42 -17 -32 -15 -94 4 -122 9 -14
68 -55 131 -93 64 -38 116 -72 116 -76 0 -4 -9 -10 -21 -13 -30 -10 -59 -64
-59 -111 0 -80 120 -180 241 -202 100 -19 166 10 207 89 19 35 23 55 19 100
-12 137 -118 263 -337 399 -153 94 -199 107 -257 71z"/>
<path d="M2988 5160 c-124 -37 -221 -173 -222 -310 -2 -173 141 -247 328 -170
110 46 132 77 143 204 16 189 -102 320 -249 276z"/>
<path d="M2315 5126 c-60 -26 -81 -65 -89 -163 -13 -169 -45 -217 -195 -292
-86 -44 -117 -75 -127 -127 -14 -75 49 -154 123 -154 53 0 242 101 314 168
106 98 147 197 156 379 7 126 0 147 -60 183 -37 23 -79 25 -122 6z"/>
<path d="M4781 4798 c-73 -38 -84 -69 -77 -218 13 -312 124 -492 311 -508 107
-8 187 36 238 131 33 64 31 192 -6 267 -38 79 -123 178 -209 242 -139 105
-189 121 -257 86z"/>
<path d="M2808 4169 c-118 -17 -217 -93 -244 -187 -26 -90 1 -169 81 -240 65
-57 129 -77 240 -76 114 1 246 42 360 111 103 63 120 86 120 169 0 60 -2 66
-35 98 -28 27 -61 43 -160 74 -100 33 -272 67 -300 61 -3 -1 -31 -5 -62 -10z"/>
<path d="M1050 4088 c-52 -15 -90 -47 -111 -92 -24 -53 -24 -80 2 -133 33 -67
63 -83 194 -99 63 -8 126 -19 141 -24 26 -10 26 -11 8 -31 -55 -61 -318 -240
-452 -308 -126 -64 -171 -155 -122 -251 27 -53 72 -83 135 -88 45 -4 61 1 131
36 43 22 110 61 149 85 l70 46 18 -49 c21 -56 66 -99 105 -101 70 -3 71 -3
178 69 27 18 72 40 100 49 l51 16 63 -32 c107 -53 202 -35 248 47 40 73 18
174 -49 224 -74 56 -97 62 -221 63 -110 0 -133 4 -108 20 29 18 63 113 68 188
4 71 2 82 -27 142 -39 78 -109 144 -185 173 -110 42 -320 70 -386 50z"/>
<path d="M4190 3763 c-140 -48 -260 -207 -262 -346 -1 -70 16 -112 66 -165 73
-79 203 -110 322 -78 163 43 274 171 304 348 16 92 4 135 -51 182 -77 65 -273
96 -379 59z m97 -298 c-32 -29 -47 -32 -47 -10 0 16 32 33 60 34 10 0 5 -8
-13 -24z"/>
<path d="M5095 3408 c-173 -75 -276 -198 -283 -343 -12 -237 219 -396 424
-292 112 57 174 172 174 321 -1 103 -27 172 -99 254 -75 86 -124 99 -216 60z"/>
<path d="M3433 3379 c-47 -14 -117 -99 -173 -211 -55 -109 -60 -146 -30 -195
30 -50 72 -67 144 -58 116 13 169 52 217 161 31 70 33 200 3 240 -44 60 -100
82 -161 63z"/>
<path d="M2283 2941 c-121 -41 -173 -98 -263 -286 -59 -122 -76 -149 -120
-186 -106 -91 -327 -316 -363 -372 -55 -83 -121 -227 -153 -332 -35 -118 -45
-322 -20 -430 44 -187 262 -477 424 -563 171 -91 526 -137 682 -88 213 66 466
262 571 442 88 150 203 453 233 613 37 193 -1 445 -90 606 -45 81 -137 165
-234 213 -107 54 -133 76 -208 183 -113 160 -206 219 -340 219 -38 -1 -90 -9
-119 -19z m155 -448 c128 -175 133 -179 305 -257 91 -42 99 -48 116 -88 26
-58 44 -189 36 -257 -17 -154 -81 -373 -145 -501 -67 -132 -178 -242 -306
-302 -119 -56 -289 -51 -420 11 -177 84 -277 216 -291 383 -8 92 11 176 62
283 51 107 111 185 197 255 74 61 211 207 257 274 30 44 102 181 122 233 5 13
12 23 17 23 4 0 27 -26 50 -57z"/>
<path d="M915 2700 c-65 -14 -105 -61 -105 -125 0 -60 23 -89 103 -133 146
-80 225 -175 234 -282 11 -115 -46 -200 -133 -200 -38 0 -51 6 -88 40 -24 22
-58 67 -75 100 -37 70 -64 91 -124 97 -82 10 -139 -40 -139 -122 0 -99 138
-281 257 -340 55 -27 69 -30 165 -30 93 0 111 3 162 27 136 63 215 180 239
355 28 201 -59 384 -243 510 -127 88 -195 115 -253 103z"/>
<path d="M4145 2256 c-63 -27 -122 -125 -113 -189 2 -15 -2 -21 -12 -18 -91
22 -153 7 -204 -49 -65 -72 -68 -135 -22 -357 53 -249 79 -308 154 -344 36
-18 54 -20 105 -15 75 7 68 7 142 0 53 -5 67 -2 115 23 61 31 113 92 130 151
14 53 12 218 -5 347 -8 61 -18 153 -21 205 -7 115 -17 159 -45 194 -46 59
-152 83 -224 52z"/>
</g>
</svg>
