<?xml version="1.0" standalone="no"?>
<!DOCTYPE svg PUBLIC "-//W3C//DTD SVG 20010904//EN"
 "http://www.w3.org/TR/2001/REC-SVG-20010904/DTD/svg10.dtd">
<svg version="1.0" xmlns="http://www.w3.org/2000/svg"
 width="600.000000pt" height="600.000000pt" viewBox="0 0 600.000000 600.000000"
 preserveAspectRatio="xMidYMid meet">
<metadata>
Created by potrace 1.15, written by Peter Selinger 2001-2017
</metadata>
<g transform="translate(0.000000,600.000000) scale(0.100000,-0.100000)"
fill="#16364b" stroke="none">
<path d="M2205 5809 c-35 -10 -174 -124 -416 -340 -185 -166 -259 -247 -295
-324 -46 -98 -21 -210 59 -263 38 -25 48 -27 146 -27 173 1 272 34 696 231
182 85 205 105 219 179 9 46 -24 120 -63 139 -65 34 -92 31 -218 -24 -195 -87
-276 -121 -279 -117 -2 2 71 71 164 153 92 82 173 163 181 179 36 74 1 172
-73 206 -44 20 -74 22 -121 8z"/>
<path d="M3045 5677 c-101 -48 -112 -173 -20 -242 18 -14 74 -36 130 -50 192
-50 302 -119 346 -218 33 -72 33 -202 2 -263 -35 -65 -130 -146 -236 -198 -52
-26 -104 -57 -115 -69 -68 -72 -43 -195 49 -242 42 -22 82 -18 153 14 211 96
387 269 447 441 32 94 33 256 0 360 -54 175 -160 305 -311 379 -148 72 -380
118 -445 88z"/>
<path d="M941 5310 c-205 -97 -326 -228 -350 -376 -10 -68 1 -173 25 -235 45
-115 171 -261 279 -324 108 -64 225 5 225 130 0 53 -22 87 -94 144 -75 58
-117 123 -124 190 -4 41 0 52 29 90 34 43 65 64 167 109 69 31 102 78 102 147
0 59 -25 106 -72 135 -49 29 -110 26 -187 -10z"/>
<path d="M2687 4956 c-119 -49 -192 -123 -244 -247 -23 -55 -27 -79 -27 -164
-1 -91 2 -105 29 -158 70 -140 264 -257 425 -257 133 0 205 146 123 248 -31
37 -48 46 -160 77 -77 22 -117 60 -117 110 0 50 31 86 107 123 85 41 110 76
104 148 -4 58 -30 99 -80 126 -44 24 -92 22 -160 -6z"/>
<path d="M4775 4933 c-41 -21 -74 -53 -92 -88 -32 -60 2 -292 62 -420 43 -93
92 -147 167 -184 117 -59 258 -35 339 57 105 119 114 294 22 402 -70 81 -214
175 -346 225 -77 29 -110 31 -152 8z"/>
<path d="M1793 4446 c-72 -27 -182 -104 -226 -158 -58 -73 -42 -172 37 -226
72 -49 155 -37 208 29 38 48 86 79 120 79 14 0 46 -17 72 -37 87 -68 193 -53
244 33 28 48 26 117 -7 162 -29 41 -132 108 -194 127 -75 22 -180 19 -254 -9z"/>
<path d="M2672 3850 c-102 -15 -159 -93 -131 -178 25 -79 102 -125 199 -120
55 3 55 3 58 -28 8 -85 -122 -322 -268 -488 -72 -82 -82 -100 -82 -148 -2 -91
66 -158 160 -158 29 0 65 6 81 14 99 52 321 395 397 616 14 40 19 83 19 155 0
90 -3 105 -28 154 -75 142 -225 209 -405 181z"/>
<path d="M4123 3779 c-156 -49 -246 -188 -229 -351 25 -247 305 -338 546 -177
76 51 136 125 195 242 65 128 59 208 -20 257 -76 47 -378 65 -492 29z m123
-295 c-28 -25 -55 -29 -59 -9 -1 6 14 15 33 22 52 18 58 15 26 -13z"/>
<path d="M1105 3760 c-172 -45 -254 -91 -289 -162 -51 -102 -21 -219 68 -265
33 -17 116 -19 146 -3 29 16 26 4 -30 -112 -27 -57 -83 -195 -124 -308 -40
-113 -92 -254 -115 -313 -65 -168 -78 -225 -62 -278 35 -118 183 -173 297
-111 71 37 272 215 421 372 87 91 196 203 241 250 l84 85 -6 -58 c-4 -32 -31
-155 -60 -275 -30 -119 -67 -266 -81 -327 -34 -138 -72 -240 -135 -366 -57
-113 -63 -163 -30 -228 21 -42 85 -81 133 -81 38 0 88 23 114 51 28 31 142
305 200 479 29 87 62 224 94 390 27 140 56 283 64 317 8 34 18 115 21 180 8
148 -8 218 -65 274 -72 73 -176 75 -288 7 -88 -53 -214 -160 -293 -247 -40
-45 -75 -79 -77 -77 -2 2 39 94 92 205 101 213 131 307 120 375 -18 109 -89
198 -182 230 -61 21 -171 19 -258 -4z"/>
<path d="M3500 3363 c-118 -58 -192 -168 -225 -336 -32 -167 59 -245 255 -217
189 26 290 129 290 297 0 216 -151 337 -320 256z"/>
<path d="M4864 2790 c-23 -9 -137 -134 -195 -215 -77 -106 -118 -226 -105
-309 10 -63 51 -123 99 -148 66 -34 165 -30 250 10 150 70 227 209 227 410 0
92 -7 113 -54 158 -18 16 -37 37 -42 45 -22 36 -67 59 -113 58 -25 0 -56 -4
-67 -9z"/>
<path d="M4202 2467 c-81 -31 -141 -111 -142 -189 0 -20 11 -72 25 -115 13
-43 27 -98 31 -121 l7 -44 -39 20 c-62 31 -154 59 -216 67 -114 14 -208 -31
-292 -139 -25 -31 -53 -78 -63 -104 -26 -67 -23 -217 6 -347 12 -55 30 -154
41 -220 21 -139 28 -159 66 -204 104 -124 312 -78 380 84 18 44 18 121 0 221
-28 154 -28 154 -13 154 8 0 42 -18 76 -40 84 -54 136 -65 215 -45 220 56 296
178 296 477 0 98 -25 281 -50 368 -17 61 -66 127 -115 156 -54 31 -158 42
-213 21z"/>
<path d="M2870 2310 c-215 -57 -506 -189 -570 -259 -34 -37 -39 -39 -82 -34
-99 11 -236 -64 -304 -166 -51 -78 -40 -203 24 -263 31 -30 95 -50 128 -42 19
5 24 1 29 -23 3 -15 14 -63 24 -106 l19 -77 -60 -32 c-76 -40 -150 -121 -179
-196 -32 -82 -33 -259 -1 -350 70 -199 251 -398 429 -472 139 -58 256 -83 388
-84 140 -1 190 11 334 81 150 73 191 121 191 220 0 92 -77 176 -172 189 -42 6
-58 1 -170 -52 -138 -65 -190 -74 -291 -54 -94 20 -165 58 -232 125 -76 76
-117 151 -113 202 4 53 24 52 95 -2 38 -28 89 -54 137 -70 66 -22 82 -23 124
-14 91 19 152 93 152 183 0 68 -21 107 -93 179 -64 62 -104 127 -147 238 -27
66 -81 280 -74 291 3 4 13 8 22 8 9 0 90 34 182 76 186 87 320 138 320 124 0
-29 -122 -334 -187 -468 -37 -77 -46 -103 -45 -148 1 -162 176 -247 307 -149
37 27 120 174 174 309 70 171 152 433 158 505 13 153 -66 277 -209 329 -69 24
-219 26 -308 2z"/>
</g>
</svg>
