<?xml version="1.0" standalone="no"?>
<!DOCTYPE svg PUBLIC "-//W3C//DTD SVG 20010904//EN"
 "http://www.w3.org/TR/2001/REC-SVG-20010904/DTD/svg10.dtd">
<svg version="1.0" xmlns="http://www.w3.org/2000/svg"
 width="600.000000pt" height="600.000000pt" viewBox="0 0 600.000000 600.000000"
 preserveAspectRatio="xMidYMid meet">
<metadata>
Created by potrace 1.15, written by Peter Selinger 2001-2017
</metadata>
<g transform="translate(0.000000,600.000000) scale(0.100000,-0.100000)"
fill="#16364b" stroke="none">
<path d="M1620 5771 c-19 -10 -43 -29 -53 -43 -24 -33 -64 -232 -78 -394 -22
-254 23 -402 138 -450 149 -63 309 82 523 474 82 150 93 196 62 251 -38 69
-142 92 -205 45 -14 -10 -53 -73 -86 -139 -34 -66 -80 -149 -103 -185 -40 -60
-43 -63 -46 -38 -2 15 8 96 22 180 14 84 26 168 26 187 0 49 -33 96 -80 115
-52 21 -78 20 -120 -3z"/>
<path d="M3153 5561 c-84 -52 -83 -163 0 -218 18 -11 84 -54 147 -96 135 -88
188 -132 242 -201 l41 -51 -52 -7 c-62 -7 -96 -35 -111 -87 -22 -81 26 -152
128 -192 211 -81 376 25 341 220 -20 112 -131 287 -252 397 -34 31 -127 99
-206 152 -127 84 -150 96 -195 99 -39 3 -59 -1 -83 -16z"/>
<path d="M870 5473 c-152 -60 -253 -164 -302 -311 -25 -77 -24 -195 3 -267 26
-69 84 -144 146 -187 41 -28 57 -33 105 -33 46 0 61 4 83 25 39 36 55 73 55
125 0 60 -11 80 -74 136 -49 45 -51 49 -50 97 0 39 7 59 28 86 42 56 77 69
157 62 49 -5 77 -3 103 8 104 43 97 199 -11 252 -54 26 -184 30 -243 7z"/>
<path d="M2947 5185 c-87 -30 -175 -150 -197 -267 -22 -114 38 -218 143 -248
98 -27 263 12 325 76 31 33 32 36 32 121 0 159 -45 257 -139 306 -60 30 -106
33 -164 12z"/>
<path d="M2270 4893 c-25 -9 -58 -43 -70 -73 -10 -24 -25 -32 -113 -60 -123
-39 -169 -61 -196 -96 -51 -64 -27 -165 48 -203 51 -26 77 -26 143 0 29 12 91
34 138 51 47 16 101 40 120 51 78 48 120 118 120 203 0 52 -3 59 -39 95 -35
35 -44 39 -87 38 -27 0 -56 -3 -64 -6z"/>
<path d="M4793 4833 c-12 -2 -41 -21 -64 -42 -40 -35 -43 -42 -50 -107 -20
-194 45 -411 154 -511 122 -113 306 -92 397 45 119 180 56 360 -183 521 -131
88 -184 108 -254 94z"/>
<path d="M2890 4140 c-101 -13 -160 -39 -216 -95 -36 -36 -56 -66 -64 -96 -30
-110 36 -227 159 -282 59 -27 213 -34 331 -17 102 15 282 64 315 86 69 45 87
151 37 220 -23 31 -52 50 -139 92 -163 77 -302 108 -423 92z"/>
<path d="M1090 4071 c-74 -12 -100 -23 -138 -62 -31 -31 -52 -82 -52 -123 0
-36 39 -101 76 -126 33 -22 51 -25 160 -30 68 -4 126 -9 129 -12 17 -17 -329
-359 -531 -525 -99 -81 -119 -113 -119 -184 1 -154 177 -232 296 -131 l31 25
24 -31 c29 -36 83 -56 130 -49 30 5 35 3 51 -31 12 -25 34 -45 66 -63 63 -34
116 -85 135 -129 21 -51 19 -145 -7 -215 -40 -113 -150 -249 -227 -281 -34
-14 -49 -11 -104 22 -16 10 -42 13 -74 11 -42 -4 -55 -10 -83 -40 -18 -20 -35
-48 -39 -62 -18 -72 34 -150 133 -201 51 -25 69 -29 143 -29 77 0 92 3 155 34
155 76 329 303 394 515 68 220 -33 471 -237 591 -29 17 -52 33 -52 36 0 8 222
113 286 135 50 17 50 17 82 -6 71 -53 191 -21 233 62 17 34 19 53 15 134 -5
112 -18 137 -83 166 -54 24 -117 19 -167 -11 -17 -11 -58 -26 -92 -35 -33 -9
-79 -22 -102 -30 l-42 -15 49 61 c28 34 65 91 83 127 30 61 33 73 33 161 0 75
-4 104 -21 141 -42 91 -116 154 -215 184 -63 19 -239 27 -319 16z"/>
<path d="M4226 3780 c-77 -14 -169 -64 -220 -121 -94 -105 -111 -236 -46 -358
110 -206 344 -228 520 -48 61 62 92 120 124 231 40 136 32 199 -31 244 -58 40
-250 69 -347 52z m42 -322 c-6 -18 -55 -44 -65 -34 -10 9 33 46 54 46 8 0 13
-6 11 -12z"/>
<path d="M3385 3376 c-77 -33 -205 -232 -205 -318 0 -53 25 -94 77 -125 49
-30 167 -32 228 -4 46 20 95 73 125 132 26 50 37 154 21 202 -31 94 -157 152
-246 113z"/>
<path d="M5078 3300 c-104 -31 -251 -158 -300 -258 -29 -58 -33 -76 -33 -147
0 -67 4 -89 28 -137 34 -69 104 -134 161 -149 184 -50 411 159 424 392 6 101
-13 155 -82 228 -71 75 -123 94 -198 71z"/>
<path d="M2171 2589 c-70 -22 -129 -69 -216 -174 -32 -38 -97 -111 -145 -162
-49 -50 -91 -102 -95 -115 -4 -13 -24 -43 -44 -68 -90 -109 -172 -264 -225
-425 -82 -250 -75 -475 19 -653 105 -198 360 -399 587 -462 135 -37 375 -24
548 32 222 71 389 234 526 513 118 241 172 447 181 685 4 125 2 167 -11 220
-22 87 -59 158 -109 210 -59 61 -114 83 -220 88 -75 4 -239 -9 -303 -24 -17
-5 -25 5 -49 67 -71 176 -182 267 -334 275 -42 2 -91 -1 -110 -7z m110 -447
c37 -114 131 -242 204 -276 44 -21 116 -20 255 4 153 26 176 26 184 -2 11 -42
6 -100 -19 -222 -77 -381 -235 -642 -431 -716 -127 -47 -300 -47 -412 1 -63
27 -163 100 -206 151 -97 113 -100 272 -9 497 44 109 84 179 143 250 26 32 57
75 68 97 11 21 42 64 67 94 26 30 66 80 88 112 22 31 44 55 48 52 4 -2 13 -21
20 -42z"/>
<path d="M4075 2421 c-120 -30 -176 -122 -157 -262 5 -41 8 -76 6 -78 -2 -2
-17 2 -35 8 -158 55 -318 -84 -294 -256 9 -61 39 -184 60 -243 9 -25 32 -101
51 -169 39 -142 62 -183 120 -211 84 -41 200 -11 264 69 32 39 36 41 89 41 70
0 144 33 188 84 95 107 100 209 22 485 -22 80 -53 205 -68 278 -20 93 -36 144
-54 172 -41 62 -126 98 -192 82z"/>
</g>
</svg>
