<?xml version="1.0" standalone="no"?>
<!DOCTYPE svg PUBLIC "-//W3C//DTD SVG 20010904//EN"
 "http://www.w3.org/TR/2001/REC-SVG-20010904/DTD/svg10.dtd">
<svg version="1.0" xmlns="http://www.w3.org/2000/svg"
 width="600.000000pt" height="600.000000pt" viewBox="0 0 600.000000 600.000000"
 preserveAspectRatio="xMidYMid meet">
<metadata>
Created by potrace 1.15, written by Peter Selinger 2001-2017
</metadata>
<g transform="translate(0.000000,600.000000) scale(0.100000,-0.100000)"
fill="#16364b" stroke="none">
<path d="M1535 5786 c-42 -18 -225 -236 -304 -360 -44 -70 -43 -123 3 -174 34
-36 36 -37 108 -37 81 0 107 11 379 158 142 77 165 102 156 170 -12 92 -97
125 -187 73 -59 -34 -64 -33 -35 10 67 98 -16 208 -120 160z"/>
<path d="M2394 5436 c-54 -24 -64 -49 -64 -161 -1 -118 -21 -302 -45 -400 -10
-38 -34 -106 -55 -150 -43 -94 -93 -145 -192 -193 -81 -41 -107 -80 -88 -138
14 -41 60 -74 104 -74 62 0 217 101 292 191 116 139 194 438 194 744 0 133
-11 167 -61 184 -40 14 -47 13 -85 -3z"/>
<path d="M3518 5330 c-31 -24 -53 -96 -43 -141 14 -67 75 -176 130 -230 69
-68 108 -89 165 -89 52 0 83 18 105 60 31 61 16 118 -61 236 -61 93 -108 138
-171 165 -57 24 -94 24 -125 -1z"/>
<path d="M3008 5126 c-129 -35 -228 -199 -198 -328 32 -133 166 -169 323 -86
57 31 64 38 86 93 30 74 34 183 8 231 -22 42 -70 81 -115 94 -44 12 -45 12
-104 -4z"/>
<path d="M4760 4757 c-13 -7 -35 -28 -48 -47 -23 -33 -24 -40 -18 -150 12
-237 80 -395 201 -466 67 -39 129 -41 195 -7 123 63 171 225 110 367 -25 58
-117 155 -214 225 -130 93 -169 107 -226 78z"/>
<path d="M2683 4216 c-104 -34 -181 -107 -198 -187 -11 -50 5 -125 36 -173
117 -176 388 -163 586 29 87 85 105 131 78 200 -8 24 -24 50 -33 59 -10 8 -65
29 -123 46 -125 37 -278 49 -346 26z"/>
<path d="M1074 4096 c-62 -27 -95 -98 -75 -159 20 -59 59 -86 164 -112 52 -13
105 -29 118 -35 21 -12 22 -13 5 -26 -31 -22 -151 -44 -246 -44 -106 0 -140
-14 -166 -68 -30 -65 6 -153 76 -182 66 -27 316 4 446 56 257 103 255 376 -3
497 -76 35 -239 87 -272 87 -9 -1 -30 -7 -47 -14z"/>
<path d="M4230 3777 c-114 -33 -205 -109 -256 -214 -24 -48 -29 -71 -29 -135
0 -69 3 -80 30 -119 56 -80 163 -129 280 -129 57 1 144 33 198 74 74 57 137
184 152 308 9 76 0 120 -31 151 -56 56 -248 92 -344 64z m80 -274 c0 -3 -7
-15 -17 -25 -20 -23 -55 -25 -46 -2 8 20 63 44 63 27z"/>
<path d="M1630 3663 c-60 -54 -64 -237 -8 -350 61 -121 206 -160 302 -81 107
88 101 263 -14 378 -57 57 -110 80 -187 80 -54 0 -67 -4 -93 -27z"/>
<path d="M5170 3651 c-124 -40 -199 -103 -247 -206 -74 -161 -13 -342 142
-423 71 -38 169 -37 247 1 125 61 207 183 216 320 4 71 2 82 -27 140 -32 66
-122 156 -176 177 -38 15 -92 11 -155 -9z m70 -309 c0 -5 -10 -19 -22 -32 -20
-22 -23 -22 -26 -7 -2 10 2 24 8 32 13 16 40 20 40 7z"/>
<path d="M3425 3365 c-41 -21 -99 -102 -151 -211 -49 -102 -52 -125 -24 -171
40 -67 143 -60 230 15 49 41 106 154 115 226 15 117 -72 189 -170 141z"/>
<path d="M2507 3130 c-217 -17 -348 -56 -632 -191 -357 -169 -411 -202 -511
-313 -98 -107 -155 -217 -196 -379 -26 -105 -21 -279 11 -370 56 -158 139
-269 337 -452 65 -60 171 -159 234 -220 128 -122 205 -172 325 -212 72 -24 95
-27 220 -26 122 0 152 4 230 27 120 36 245 97 388 190 276 178 470 344 643
544 141 164 194 256 214 371 23 128 -22 296 -122 448 -60 92 -202 235 -309
310 -42 29 -84 65 -94 79 -39 59 -220 149 -363 178 -92 20 -245 26 -375 16z
m313 -410 c25 -15 86 -49 135 -75 139 -75 192 -114 295 -222 107 -111 144
-174 144 -245 0 -58 -20 -89 -147 -230 -156 -172 -331 -308 -612 -476 -159
-94 -253 -126 -360 -120 -102 6 -164 36 -260 127 -38 37 -113 104 -165 151
-138 122 -267 258 -292 310 -19 37 -23 62 -23 140 0 86 3 101 32 162 57 120
134 186 274 233 41 14 160 68 264 120 213 106 321 141 465 153 136 12 196 5
250 -28z"/>
<path d="M398 2224 c-33 -17 -58 -62 -58 -102 0 -37 44 -170 80 -242 78 -155
237 -312 361 -355 90 -32 187 -8 227 57 70 114 38 242 -92 373 -81 81 -165
139 -327 225 -118 63 -146 69 -191 44z m391 -454 c14 -21 14 -23 1 -16 -25 15
-61 50 -73 71 -9 17 -5 16 23 -6 18 -14 41 -36 49 -49z"/>
<path d="M4585 1808 c-11 -6 -30 -19 -41 -30 -20 -18 -25 -18 -50 -5 -69 34
-126 28 -176 -20 -45 -43 -52 -87 -33 -216 41 -282 95 -390 203 -404 87 -12
159 44 201 155 12 31 38 137 58 234 l35 177 -21 45 c-32 65 -117 97 -176 64z"/>
</g>
</svg>
