<?xml version="1.0" standalone="no"?>
<!DOCTYPE svg PUBLIC "-//W3C//DTD SVG 20010904//EN"
 "http://www.w3.org/TR/2001/REC-SVG-20010904/DTD/svg10.dtd">
<svg version="1.0" xmlns="http://www.w3.org/2000/svg"
 width="600.000000pt" height="600.000000pt" viewBox="0 0 600.000000 600.000000"
 preserveAspectRatio="xMidYMid meet">
<metadata>
Created by potrace 1.15, written by Peter Selinger 2001-2017
</metadata>
<g transform="translate(0.000000,600.000000) scale(0.100000,-0.100000)"
fill="#16364b" stroke="none">
<path d="M3083 5650 c-54 -24 -83 -70 -83 -132 0 -66 22 -88 233 -230 257
-172 338 -255 322 -328 -9 -39 -76 -113 -147 -161 -81 -55 -269 -161 -275
-155 -3 2 -12 19 -21 38 -10 18 -32 43 -51 55 -55 37 -95 31 -221 -33 -182
-93 -270 -197 -278 -331 -5 -76 10 -124 56 -175 80 -88 245 -134 320 -88 50
31 74 76 69 132 -5 61 -29 97 -78 116 -21 8 -39 18 -39 21 0 7 94 66 122 76
12 5 22 -4 38 -35 11 -22 35 -50 53 -60 63 -39 107 -25 327 106 219 129 317
221 378 352 23 50 26 70 27 162 0 100 -2 109 -34 175 -56 114 -175 222 -451
410 -167 113 -190 120 -267 85z"/>
<path d="M1965 5523 c-32 -8 -65 -44 -91 -98 -13 -27 -68 -99 -121 -158 -183
-202 -223 -252 -248 -304 -64 -132 0 -277 139 -318 93 -28 167 -20 476 49 193
43 223 55 250 98 59 96 -15 228 -127 228 -27 0 -278 -50 -337 -67 -29 -8 -18
8 73 107 149 162 183 217 184 300 1 55 -22 101 -66 134 -33 25 -95 39 -132 29z"/>
<path d="M1090 5337 c-152 -63 -284 -202 -342 -363 -26 -73 -36 -223 -18 -303
19 -90 86 -215 149 -281 70 -72 109 -83 179 -48 65 32 87 67 86 133 0 46 -5
60 -41 106 -61 80 -76 116 -81 194 -8 125 45 207 183 282 84 46 115 87 115
151 0 59 -29 105 -84 131 -54 26 -78 26 -146 -2z"/>
<path d="M4653 4780 c-63 -38 -83 -96 -59 -169 14 -44 14 -52 1 -78 -22 -42
-18 -93 11 -151 59 -118 184 -215 296 -228 113 -13 237 53 290 155 51 97 32
229 -44 311 -122 132 -396 221 -495 160z"/>
<path d="M1881 4338 c-164 -23 -395 -159 -431 -253 -46 -122 75 -254 197 -214
20 6 57 31 82 54 50 46 127 88 179 98 18 4 60 0 93 -7 63 -15 101 -10 146 19
99 66 78 225 -38 274 -39 17 -164 47 -164 40 0 -1 -29 -6 -64 -11z"/>
<path d="M2591 3789 c-83 -14 -192 -49 -238 -75 -106 -61 -89 -214 30 -273
l48 -24 102 23 c56 13 131 24 167 24 l65 1 -3 -30 c-2 -16 -13 -52 -25 -80
-50 -119 -123 -222 -425 -604 -24 -30 -27 -43 -27 -108 0 -73 1 -75 37 -108
84 -77 144 -56 271 95 223 264 272 331 351 481 75 144 118 274 119 364 2 129
-72 240 -199 297 -56 25 -183 33 -273 17z"/>
<path d="M4130 3754 c-57 -8 -133 -35 -167 -60 -131 -98 -113 -319 39 -459 65
-61 132 -88 218 -89 160 -1 310 135 351 320 11 50 10 60 -10 112 -52 132 -64
146 -138 162 -45 11 -245 20 -293 14z"/>
<path d="M1146 3629 c-94 -27 -283 -118 -328 -158 -45 -39 -62 -86 -56 -156
10 -122 139 -198 255 -150 19 8 37 15 39 15 3 0 -3 -17 -12 -37 -189 -446
-273 -721 -276 -908 -3 -142 79 -225 222 -225 73 0 104 14 155 72 21 24 127
138 235 253 108 116 243 262 300 325 56 63 105 117 108 120 3 3 2 -33 -1 -80
-8 -112 -39 -261 -94 -445 -74 -248 -145 -536 -146 -597 -2 -43 3 -63 19 -85
53 -71 153 -89 218 -39 20 15 42 39 50 54 7 15 30 104 51 197 60 274 70 317
139 587 99 389 112 528 66 688 -52 180 -213 230 -369 115 -32 -24 -114 -105
-181 -182 -168 -188 -211 -235 -216 -231 -2 2 16 52 41 110 57 140 121 336
135 421 44 249 -121 405 -354 336z"/>
<path d="M3570 3314 c-147 -53 -240 -170 -269 -336 -18 -103 6 -166 77 -206
49 -27 98 -28 160 -3 26 10 77 23 113 29 147 22 264 108 289 211 24 101 -40
231 -140 285 -67 36 -162 45 -230 20z"/>
<path d="M4789 2886 c-129 -46 -200 -149 -201 -291 0 -58 5 -86 25 -128 82
-178 265 -248 383 -145 46 41 64 86 64 164 0 76 -22 136 -61 167 -26 21 -28
25 -19 57 20 71 -33 159 -109 180 -43 12 -38 12 -82 -4z"/>
<path d="M2865 2530 c-50 -10 -149 -47 -195 -73 -214 -119 -310 -175 -334
-196 -88 -79 -72 -222 32 -296 39 -27 51 -30 115 -29 66 0 81 5 192 58 217
105 315 143 315 122 0 -3 -11 -41 -25 -85 -31 -98 -82 -210 -145 -321 -55 -97
-66 -140 -51 -196 42 -155 233 -209 326 -92 91 114 234 461 271 655 19 104 14
175 -20 249 -74 162 -272 246 -481 204z"/>
<path d="M4389 2346 c-60 -16 -104 -48 -134 -100 -33 -57 -39 -115 -21 -206 8
-41 13 -76 12 -78 -2 -1 -50 13 -108 33 -183 61 -296 63 -405 9 -91 -46 -167
-151 -192 -265 -26 -118 -21 -427 10 -571 22 -98 120 -178 219 -178 69 0 162
50 205 109 52 71 59 110 52 287 -3 86 -2 154 3 154 5 0 46 -14 92 -31 140 -51
151 -53 241 -40 182 25 298 128 343 301 13 50 15 93 11 185 -9 215 -53 318
-159 368 -68 33 -112 39 -169 23z"/>
<path d="M2090 1859 c-32 -13 -78 -57 -96 -91 -17 -33 -18 -131 -3 -161 7 -12
25 -37 40 -55 16 -18 29 -39 29 -47 0 -40 78 -273 129 -388 33 -73 67 -155 75
-183 24 -73 61 -127 161 -232 100 -105 158 -144 345 -226 153 -68 222 -86 320
-86 96 0 173 20 278 71 91 44 126 84 143 159 27 120 -78 230 -218 230 -49 0
-72 -6 -126 -35 -89 -47 -131 -47 -228 3 -72 36 -74 38 -81 81 -4 24 -18 57
-31 75 -13 17 -36 57 -50 90 -55 119 -134 209 -219 247 -30 13 -36 27 -94 217
-55 181 -97 253 -176 303 -38 24 -62 32 -111 35 -34 2 -73 -1 -87 -7z"/>
</g>
</svg>
