<?xml version="1.0" standalone="no"?>
<!DOCTYPE svg PUBLIC "-//W3C//DTD SVG 20010904//EN"
 "http://www.w3.org/TR/2001/REC-SVG-20010904/DTD/svg10.dtd">
<svg version="1.0" xmlns="http://www.w3.org/2000/svg"
 width="600.000000pt" height="600.000000pt" viewBox="0 0 600.000000 600.000000"
 preserveAspectRatio="xMidYMid meet">
<metadata>
Created by potrace 1.15, written by Peter Selinger 2001-2017
</metadata>
<g transform="translate(0.000000,600.000000) scale(0.100000,-0.100000)"
fill="#16364b" stroke="none">
<path d="M1777 5807 c-52 -13 -90 -52 -116 -122 -27 -72 -124 -386 -146 -473
-50 -200 12 -329 165 -340 74 -5 137 22 247 106 144 111 373 362 394 433 30
98 -39 189 -143 189 -54 0 -88 -18 -130 -67 -70 -81 -153 -164 -156 -155 -1 5
16 59 38 121 22 64 40 131 40 154 0 105 -92 179 -193 154z"/>
<path d="M3057 5675 c-50 -17 -74 -39 -88 -82 -24 -74 4 -124 110 -195 217
-145 419 -333 494 -459 53 -90 51 -99 -23 -99 -54 0 -64 -3 -96 -32 -85 -79
-51 -219 61 -249 22 -6 69 -9 105 -6 122 10 201 61 251 162 28 58 31 71 27
137 -5 91 -39 171 -122 283 -90 121 -267 296 -404 399 -186 141 -243 166 -315
141z"/>
<path d="M885 5427 c-197 -52 -313 -229 -303 -463 3 -81 8 -100 41 -167 57
-115 169 -207 253 -207 152 0 205 184 78 271 -53 36 -74 74 -74 131 0 87 59
138 161 138 124 0 189 111 128 219 -13 23 -38 51 -56 62 -42 26 -158 34 -228
16z"/>
<path d="M2940 5188 c-102 -39 -195 -166 -207 -283 -19 -185 170 -293 400
-230 122 33 153 87 137 238 -16 156 -57 234 -143 276 -55 26 -116 26 -187 -1z"/>
<path d="M4765 4861 c-11 -5 -35 -23 -52 -41 -40 -41 -48 -86 -38 -218 18
-244 100 -401 243 -465 62 -27 168 -29 234 -4 59 23 121 91 138 152 20 72 8
174 -28 248 -59 118 -150 200 -325 291 -86 45 -128 54 -172 37z"/>
<path d="M1984 4812 c-103 -36 -144 -83 -144 -165 0 -57 19 -98 57 -125 46
-31 77 -34 140 -12 83 29 103 27 103 -10 0 -106 131 -162 228 -98 54 36 76 86
69 158 -10 115 -81 211 -184 250 -70 26 -197 27 -269 2z"/>
<path d="M2825 4087 c-92 -31 -131 -63 -164 -137 -50 -110 3 -234 128 -300
112 -59 389 -78 609 -42 100 17 130 26 159 48 42 32 63 77 63 136 0 85 -40
120 -221 197 -158 66 -297 102 -424 107 -76 3 -122 0 -150 -9z"/>
<path d="M1130 4058 c-128 -11 -181 -34 -225 -96 -25 -37 -30 -53 -30 -105 0
-73 20 -114 78 -161 37 -29 44 -31 122 -31 71 0 82 -2 75 -15 -5 -8 -47 -60
-95 -115 -268 -310 -311 -367 -424 -565 -82 -144 -97 -186 -83 -242 31 -122
138 -178 272 -143 54 14 89 34 207 121 78 57 229 160 334 230 l192 125 31 -30
c28 -29 30 -36 30 -103 0 -120 -52 -253 -193 -496 -104 -179 -216 -337 -297
-418 -70 -71 -85 -109 -65 -174 16 -54 45 -86 96 -106 39 -14 51 -15 91 -4
122 34 332 329 570 800 85 168 113 246 121 339 5 56 11 71 39 104 33 36 34 40
34 120 0 117 -18 243 -42 299 -25 59 -85 112 -141 126 -83 21 -167 -9 -337
-119 -52 -34 -101 -64 -109 -67 -7 -3 22 40 66 95 151 190 204 322 173 434
-13 45 -56 111 -93 139 -69 54 -207 74 -397 58z"/>
<path d="M4200 3764 c-122 -33 -203 -94 -250 -189 -31 -64 -33 -164 -6 -245
28 -80 113 -163 191 -185 214 -63 414 74 496 339 44 140 33 205 -44 251 -67
40 -284 56 -387 29z m76 -320 c-20 -18 -32 -22 -39 -15 -14 14 19 40 48 40 18
0 17 -3 -9 -25z"/>
<path d="M3372 3383 c-75 -37 -202 -232 -202 -310 0 -94 65 -150 192 -165 138
-17 203 13 254 118 32 66 44 179 24 238 -16 48 -66 105 -107 122 -44 19 -121
17 -161 -3z"/>
<path d="M5031 3199 c-46 -18 -149 -99 -203 -159 -152 -167 -165 -364 -31
-493 128 -126 375 -49 471 145 77 156 63 302 -42 430 -64 79 -128 104 -195 77z"/>
<path d="M3882 2585 c-62 -27 -94 -58 -120 -113 -32 -70 -27 -119 28 -266 22
-61 40 -113 40 -116 0 -4 -24 1 -52 11 -218 75 -383 -96 -348 -362 19 -150 50
-272 116 -463 44 -126 65 -160 121 -193 79 -46 208 -28 282 40 37 35 71 115
71 172 l0 50 73 0 c90 0 166 33 231 100 95 97 106 199 51 470 -37 186 -57 253
-135 452 -45 115 -57 138 -95 171 -24 21 -61 44 -83 50 -53 16 -140 14 -180
-3z"/>
<path d="M2007 2324 c-56 -17 -91 -38 -138 -79 -74 -66 -151 -183 -183 -278
-9 -26 -36 -84 -61 -128 -87 -152 -148 -299 -186 -444 -19 -75 -23 -116 -24
-245 0 -100 5 -175 14 -210 98 -392 562 -677 991 -610 199 32 358 124 532 310
141 151 218 283 292 501 42 124 101 355 117 458 29 190 -38 340 -183 407 -57
26 -73 29 -168 29 -126 0 -219 -27 -386 -111 -59 -29 -111 -51 -115 -48 -5 3
-9 13 -9 22 0 32 -131 279 -174 328 -85 97 -207 134 -319 98z m106 -501 c9
-21 28 -83 42 -137 33 -128 59 -179 116 -227 65 -54 97 -69 151 -69 49 0 45
-2 319 143 118 63 232 111 242 101 14 -14 -54 -266 -104 -381 -38 -90 -133
-248 -173 -289 -23 -23 -62 -66 -87 -96 -92 -105 -215 -154 -369 -146 -74 4
-96 10 -172 45 -101 48 -197 118 -238 174 -15 21 -36 69 -46 105 -16 59 -16
76 -5 151 13 96 74 262 150 411 28 54 51 104 51 109 0 6 16 37 35 68 19 32 37
67 41 77 8 25 26 10 47 -39z"/>
</g>
</svg>
