<?xml version="1.0" standalone="no"?>
<!DOCTYPE svg PUBLIC "-//W3C//DTD SVG 20010904//EN"
 "http://www.w3.org/TR/2001/REC-SVG-20010904/DTD/svg10.dtd">
<svg version="1.0" xmlns="http://www.w3.org/2000/svg"
 width="600.000000pt" height="600.000000pt" viewBox="0 0 600.000000 600.000000"
 preserveAspectRatio="xMidYMid meet">
<metadata>
Created by potrace 1.15, written by Peter Selinger 2001-2017
</metadata>
<g transform="translate(0.000000,600.000000) scale(0.100000,-0.100000)"
fill="#16364b" stroke="none">
<path d="M1772 5784 c-18 -9 -41 -29 -51 -43 -10 -14 -65 -150 -121 -301 -106
-284 -123 -354 -106 -444 15 -78 97 -136 193 -136 108 0 228 75 393 246 103
107 230 255 249 291 19 36 13 112 -11 151 -29 47 -95 76 -151 67 -37 -6 -55
-21 -144 -114 -57 -58 -103 -101 -103 -95 0 6 18 59 40 118 22 58 40 118 40
131 0 37 -23 86 -54 114 -34 32 -125 40 -174 15z"/>
<path d="M3011 5682 c-41 -22 -71 -73 -71 -120 0 -65 24 -92 170 -195 76 -54
177 -135 224 -179 131 -122 246 -273 271 -355 6 -22 4 -23 -50 -23 -71 0 -118
-22 -147 -67 -43 -71 -19 -166 52 -208 53 -31 215 -29 286 3 125 57 195 199
164 334 -18 76 -64 158 -153 273 -147 190 -287 317 -525 479 -124 84 -157 92
-221 58z"/>
<path d="M898 5431 c-156 -50 -276 -182 -309 -341 -15 -74 -6 -202 19 -274 45
-123 164 -235 259 -243 90 -7 163 62 163 155 0 62 -21 103 -74 147 -26 21 -54
51 -62 66 -20 40 -18 108 6 146 25 41 61 59 134 66 66 7 98 25 134 77 41 62
20 153 -47 197 -43 29 -139 30 -223 4z"/>
<path d="M2959 5197 c-101 -38 -184 -150 -208 -282 -29 -159 86 -276 258 -262
144 12 219 54 241 138 19 68 -1 225 -37 298 -50 100 -156 144 -254 108z"/>
<path d="M4765 4886 c-42 -18 -83 -69 -91 -113 -9 -50 3 -243 21 -326 29 -138
96 -239 192 -287 66 -34 188 -35 248 -3 99 53 159 153 159 268 1 163 -127 314
-371 441 -69 36 -110 41 -158 20z"/>
<path d="M2023 4835 c-94 -21 -159 -60 -183 -110 -24 -50 -25 -86 -4 -132 36
-75 131 -104 224 -67 22 9 46 14 54 11 8 -3 18 -32 24 -66 6 -33 21 -74 33
-90 57 -78 187 -70 240 15 40 66 13 244 -50 327 -78 102 -202 143 -338 112z"/>
<path d="M1116 4070 c-194 -35 -251 -83 -251 -211 0 -59 4 -73 30 -110 41 -58
92 -83 167 -81 45 1 57 -1 52 -11 -20 -32 -207 -294 -284 -398 -108 -144 -182
-264 -245 -394 -42 -85 -49 -109 -49 -161 -1 -50 4 -68 27 -102 55 -83 178
-110 250 -54 147 113 211 158 345 244 85 54 223 150 309 213 85 63 159 115
164 115 5 0 16 -11 25 -25 41 -63 -23 -276 -170 -570 -119 -237 -209 -376
-317 -491 -104 -110 -117 -145 -81 -213 40 -74 151 -95 233 -43 61 40 182 171
244 267 60 92 316 578 352 666 13 33 33 99 45 147 12 48 29 103 39 123 15 28
19 59 19 130 -1 282 -115 435 -299 399 -60 -11 -159 -63 -275 -144 -44 -31
-82 -54 -84 -51 -3 2 25 44 61 92 156 211 199 298 201 408 1 60 -3 77 -29 124
-35 63 -82 104 -144 127 -72 25 -209 27 -335 4z"/>
<path d="M2843 4055 c-149 -46 -219 -161 -166 -273 42 -88 177 -172 318 -197
165 -29 504 -4 590 44 45 25 78 95 71 154 -5 45 -32 96 -66 125 -50 44 -271
121 -415 146 -108 19 -274 20 -332 1z"/>
<path d="M4198 3784 c-216 -52 -338 -238 -283 -430 36 -126 193 -226 330 -210
164 19 308 170 374 392 11 39 21 86 21 104 0 46 -27 97 -64 119 -63 39 -267
52 -378 25z m62 -303 c0 -12 -40 -41 -57 -41 -22 0 -14 19 15 34 32 18 42 19
42 7z"/>
<path d="M3415 3381 c-55 -26 -100 -73 -151 -160 -63 -107 -78 -159 -64 -212
23 -84 88 -120 212 -116 89 3 139 37 188 127 33 63 35 69 35 172 0 92 -3 110
-21 135 -52 70 -122 90 -199 54z"/>
<path d="M4949 3122 c-89 -59 -177 -150 -212 -218 -78 -154 -43 -328 80 -401
41 -24 59 -28 123 -28 62 0 85 5 131 28 153 74 239 225 227 396 -6 83 -32 143
-89 202 -56 59 -76 69 -137 69 -42 0 -60 -7 -123 -48z"/>
<path d="M3863 2635 c-84 -43 -143 -135 -143 -224 0 -20 20 -97 44 -171 24
-74 42 -137 40 -139 -1 -2 -24 4 -50 13 -176 60 -338 -54 -352 -248 -3 -37 1
-100 8 -139 16 -92 174 -551 205 -599 15 -23 44 -46 80 -63 48 -24 64 -27 116
-22 141 13 248 145 219 272 -5 22 -8 40 -7 42 2 1 22 -3 46 -8 90 -20 233 30
296 104 49 57 69 131 61 221 -6 69 -18 105 -114 366 -28 74 -74 218 -102 320
-38 136 -58 194 -79 219 -62 78 -177 102 -268 56z"/>
<path d="M2009 2290 c-88 -15 -162 -66 -220 -152 -45 -66 -109 -194 -109 -219
0 -9 -9 -24 -20 -34 -11 -10 -40 -52 -64 -94 -102 -174 -157 -323 -177 -482
-22 -172 20 -402 103 -561 90 -174 307 -353 513 -425 73 -25 92 -27 230 -28
178 0 254 16 390 80 103 50 202 127 275 217 28 35 68 81 90 103 96 100 222
341 299 573 81 244 90 435 26 562 -29 57 -71 94 -145 129 -48 22 -69 25 -160
26 -131 0 -212 -25 -414 -126 -76 -38 -140 -68 -143 -66 -2 3 -14 45 -28 94
-29 110 -50 162 -92 234 -74 128 -212 194 -354 169z m74 -527 c9 -32 21 -98
27 -148 19 -154 36 -190 116 -245 75 -50 102 -61 157 -61 67 -1 83 6 309 134
177 101 285 153 295 143 9 -9 -30 -174 -69 -285 -72 -210 -143 -326 -300 -489
-127 -131 -377 -168 -553 -81 -77 37 -188 135 -216 190 -31 62 -49 157 -49
265 0 160 24 233 151 464 17 30 36 62 44 70 7 8 22 34 34 58 12 23 25 42 30
42 5 0 16 -26 24 -57z"/>
</g>
</svg>
