<?xml version="1.0" standalone="no"?>
<!DOCTYPE svg PUBLIC "-//W3C//DTD SVG 20010904//EN"
 "http://www.w3.org/TR/2001/REC-SVG-20010904/DTD/svg10.dtd">
<svg version="1.0" xmlns="http://www.w3.org/2000/svg"
 width="600.000000pt" height="600.000000pt" viewBox="0 0 600.000000 600.000000"
 preserveAspectRatio="xMidYMid meet">
<metadata>
Created by potrace 1.15, written by Peter Selinger 2001-2017
</metadata>
<g transform="translate(0.000000,600.000000) scale(0.100000,-0.100000)"
fill="#16364b" stroke="none">
<path d="M2350 5420 c-26 -26 -28 -39 -34 -225 -7 -236 -41 -401 -108 -527
-36 -68 -77 -107 -151 -144 -74 -37 -97 -61 -97 -101 0 -48 37 -83 87 -83 51
0 185 82 243 147 88 100 147 242 180 431 22 121 38 409 26 456 -11 43 -41 66
-86 66 -26 0 -47 -7 -60 -20z"/>
<path d="M3528 5293 c-24 -28 -38 -60 -38 -87 0 -78 105 -244 187 -296 64 -41
105 -40 149 4 57 57 46 136 -37 257 -21 31 -55 70 -74 87 -61 50 -158 68 -187
35z"/>
<path d="M2972 5104 c-118 -59 -190 -213 -153 -327 27 -82 119 -123 208 -93
109 37 177 115 202 235 34 163 -103 262 -257 185z m68 -194 c-14 -35 -50 -61
-50 -36 0 17 50 79 58 72 2 -3 -1 -19 -8 -36z"/>
<path d="M4793 4775 c-51 -22 -64 -52 -75 -177 -26 -310 48 -529 192 -568 54
-15 107 1 147 42 126 130 80 435 -94 627 -49 55 -103 92 -130 91 -4 -1 -22 -7
-40 -15z"/>
<path d="M2658 4216 c-58 -21 -86 -43 -108 -86 -54 -106 1 -238 125 -296 125
-59 356 -8 474 104 62 59 66 115 13 171 -21 23 -53 37 -152 65 -205 58 -282
67 -352 42z"/>
<path d="M1105 4107 c-30 -30 -35 -42 -35 -80 0 -36 -5 -48 -24 -60 -34 -23
-51 -78 -37 -120 14 -41 93 -122 144 -149 92 -47 204 -32 272 37 87 87 77 211
-25 298 -54 46 -163 99 -216 105 -39 4 -47 1 -79 -31z"/>
<path d="M5300 3873 c-204 -34 -355 -189 -336 -346 19 -162 155 -293 315 -305
102 -7 169 16 235 81 69 67 97 140 99 252 2 114 -21 175 -91 244 -78 75 -124
91 -222 74z m21 -304 c17 -8 18 -13 8 -25 -25 -31 -47 -36 -59 -13 -9 15 -8
24 1 35 14 17 24 18 50 3z"/>
<path d="M4208 3761 c-190 -62 -301 -272 -233 -438 19 -45 92 -121 139 -145
50 -26 150 -34 213 -19 153 39 244 169 259 375 8 96 -3 140 -44 178 -62 59
-229 84 -334 49z m82 -283 c0 -16 -31 -48 -47 -48 -18 0 -16 20 4 42 18 20 43
24 43 6z"/>
<path d="M3453 3368 c-28 -13 -87 -98 -147 -209 -61 -114 -61 -162 3 -189 26
-11 36 -9 75 10 95 45 216 215 216 302 0 75 -77 120 -147 86z"/>
<path d="M1435 3176 c-225 -33 -343 -83 -456 -196 -85 -85 -122 -150 -146
-263 -17 -83 -12 -158 17 -242 49 -142 140 -259 241 -311 28 -14 94 -34 147
-45 107 -23 188 -55 234 -94 85 -72 159 -199 224 -386 40 -116 88 -217 133
-283 161 -233 422 -315 821 -256 81 12 187 20 266 20 133 0 237 8 459 35 66 8
191 19 278 25 222 15 307 34 439 101 185 94 411 277 510 416 132 185 198 369
198 558 0 188 -44 289 -190 436 -154 155 -305 228 -489 237 -155 8 -222 -15
-459 -151 -134 -77 -226 -116 -278 -117 -121 -2 -281 11 -359 29 -181 43 -263
82 -488 232 -216 144 -313 185 -566 240 -122 27 -403 34 -536 15z m387 -376
c200 -19 327 -69 537 -209 281 -189 452 -261 689 -292 48 -6 109 -18 136 -27
42 -13 66 -14 181 -3 221 19 306 48 551 187 127 72 144 79 194 79 74 0 137
-32 224 -116 l71 -67 3 -78 c4 -91 -17 -169 -73 -269 -47 -82 -81 -118 -215
-230 -134 -111 -274 -187 -385 -210 -134 -27 -392 -47 -675 -51 -230 -4 -307
-9 -400 -25 -91 -17 -142 -20 -250 -17 -157 6 -203 20 -262 86 -48 53 -66 89
-128 258 -62 169 -124 302 -178 380 -97 144 -255 246 -462 299 -80 21 -112 37
-139 71 -45 57 -17 126 67 168 47 23 243 63 337 69 28 2 55 4 60 5 6 1 58 -3
117 -8z"/>
<path d="M459 2105 c-48 -26 -60 -92 -24 -135 6 -8 22 -40 34 -70 70 -168 193
-280 307 -280 99 0 149 112 97 215 -40 78 -128 160 -260 239 -72 43 -117 52
-154 31z"/>
<path d="M5085 1351 c-11 -5 -29 -18 -39 -30 -11 -11 -30 -21 -44 -21 -14 0
-38 -14 -58 -34 -31 -31 -34 -39 -34 -95 0 -158 94 -274 195 -241 70 23 108
111 121 279 6 82 5 88 -17 115 -26 29 -87 43 -124 27z"/>
</g>
</svg>
