<?xml version="1.0" standalone="no"?>
<!DOCTYPE svg PUBLIC "-//W3C//DTD SVG 20010904//EN"
 "http://www.w3.org/TR/2001/REC-SVG-20010904/DTD/svg10.dtd">
<svg version="1.0" xmlns="http://www.w3.org/2000/svg"
 width="600.000000pt" height="600.000000pt" viewBox="0 0 600.000000 600.000000"
 preserveAspectRatio="xMidYMid meet">
<metadata>
Created by potrace 1.15, written by Peter Selinger 2001-2017
</metadata>
<g transform="translate(0.000000,600.000000) scale(0.100000,-0.100000)"
fill="#16364b" stroke="none">
<path d="M2993 5599 c-23 -14 -48 -51 -87 -127 -88 -174 -106 -283 -62 -377
51 -110 134 -154 313 -164 62 -4 114 -9 117 -11 2 -3 -41 -40 -97 -82 -130
-98 -318 -259 -428 -368 -73 -71 -88 -92 -93 -126 -16 -91 56 -174 193 -224
43 -16 174 -54 292 -85 118 -31 268 -72 333 -91 147 -44 188 -42 248 14 65 62
60 149 -13 205 -43 32 -224 93 -454 152 -98 25 -181 48 -183 50 -11 11 288
248 446 352 62 41 128 88 148 105 63 55 93 138 74 207 -31 114 -157 170 -425
185 -60 4 -127 9 -148 12 -44 7 -44 8 9 123 40 86 45 148 14 199 -42 69 -133
92 -197 51z"/>
<path d="M1510 5337 c-124 -52 -305 -195 -388 -307 -73 -99 -174 -343 -212
-512 -16 -71 0 -131 45 -174 51 -48 80 -49 223 -8 239 68 382 91 382 61 0 -7
-16 -46 -36 -87 -111 -231 -164 -368 -164 -424 0 -17 -12 -53 -26 -81 -20 -39
-24 -59 -19 -90 13 -82 89 -142 170 -133 46 6 428 162 520 213 71 40 88 57
105 108 32 100 -45 207 -150 207 -33 0 -65 -11 -124 -41 -92 -48 -91 -57 -16
115 90 205 98 316 31 416 -81 121 -229 151 -520 104 l-43 -7 27 49 c81 146
179 244 313 314 75 40 104 76 109 139 4 36 0 53 -19 80 -53 78 -118 96 -208
58z"/>
<path d="M4545 4525 c-136 -30 -373 -131 -424 -180 -35 -34 -50 -96 -37 -149
10 -42 53 -82 100 -96 41 -11 48 -10 132 25 145 60 224 88 230 82 3 -3 -3 -22
-13 -44 -31 -61 -223 -403 -261 -463 -19 -30 -37 -70 -39 -90 -6 -45 17 -102
52 -126 15 -11 45 -36 67 -56 22 -20 47 -39 56 -42 9 -2 107 -26 216 -51 220
-52 246 -60 246 -75 0 -15 -57 -127 -172 -338 -60 -110 -102 -199 -105 -223
-16 -116 124 -211 223 -150 22 14 49 55 103 161 41 78 110 204 155 279 107
179 121 212 121 286 -1 72 -26 125 -84 178 -75 68 -181 110 -415 167 -60 14
-111 31 -113 37 -2 6 53 96 122 200 70 103 137 208 150 233 63 124 71 249 21
334 -59 101 -173 136 -331 101z"/>
<path d="M3755 3684 c-76 -39 -115 -103 -115 -186 1 -131 95 -215 195 -174 20
9 41 16 46 16 18 0 8 -62 -18 -125 l-28 -64 -62 -15 c-134 -34 -245 -111 -312
-215 -42 -66 -53 -106 -41 -152 13 -46 67 -96 115 -105 65 -12 105 3 165 63
72 74 121 95 235 100 149 8 209 60 204 176 -1 38 5 67 23 107 56 121 64 281
19 369 -37 71 -116 147 -194 186 -59 29 -80 35 -136 35 -40 0 -78 -6 -96 -16z"/>
<path d="M2535 3571 c-118 -20 -260 -68 -373 -127 -90 -46 -122 -127 -82 -208
43 -90 142 -113 243 -57 77 43 222 91 274 91 l46 0 -5 -64 c-8 -95 -61 -242
-155 -424 -85 -167 -96 -208 -71 -255 6 -12 12 -54 12 -94 1 -64 5 -76 32
-110 64 -80 132 -91 265 -42 95 35 293 89 326 89 l22 0 -20 -47 c-11 -27 -47
-104 -80 -173 -66 -141 -71 -174 -38 -246 51 -108 197 -158 285 -98 21 15 44
34 51 43 15 20 149 379 168 452 26 96 29 189 10 255 -23 79 -89 145 -172 171
-75 23 -274 22 -387 -2 -43 -9 -80 -14 -83 -12 -2 3 8 29 23 58 98 194 142
462 99 606 -20 68 -88 143 -156 172 -57 25 -157 34 -234 22z"/>
<path d="M1175 3343 c-106 -14 -236 -85 -339 -185 -66 -65 -84 -115 -66 -187
29 -117 143 -179 247 -136 20 8 37 14 39 13 1 -2 -17 -102 -42 -223 -49 -246
-61 -346 -70 -574 -8 -176 -1 -210 49 -268 41 -47 81 -62 175 -70 88 -6 116 3
168 59 47 49 148 200 274 408 112 185 237 370 250 370 4 0 13 -18 20 -40 20
-61 7 -220 -45 -525 -63 -376 -60 -510 12 -596 70 -82 202 -77 260 10 25 37
30 90 11 124 -29 53 -3 313 59 609 31 148 37 193 37 308 1 140 -2 157 -66 371
-36 121 -114 185 -217 177 -31 -2 -74 -13 -96 -23 -92 -44 -263 -240 -385
-440 -40 -65 -56 -84 -58 -68 -2 11 13 120 33 242 48 297 53 364 30 446 -35
129 -155 214 -280 198z"/>
<path d="M4708 2306 c-21 -7 -49 -21 -62 -30 -34 -21 -77 -97 -83 -145 l-5
-39 -187 1 c-207 0 -279 -13 -404 -73 -171 -82 -237 -220 -237 -496 0 -68 -3
-124 -6 -124 -3 0 -32 22 -66 49 -197 159 -386 166 -583 19 -107 -79 -177
-173 -291 -393 -42 -80 -78 -145 -79 -143 -2 2 -22 95 -44 208 -42 208 -94
383 -134 455 -12 22 -44 55 -71 72 -40 27 -58 33 -103 33 -65 0 -103 -18 -139
-66 -43 -55 -45 -130 -6 -236 37 -103 64 -219 97 -414 14 -83 32 -175 41 -205
55 -184 171 -287 335 -297 88 -5 175 16 227 54 34 27 41 38 142 234 76 146
161 278 229 352 60 65 70 63 181 -42 147 -139 212 -170 350 -171 135 0 254 63
305 163 15 29 37 71 49 93 20 38 21 51 18 227 -2 129 0 194 8 209 12 22 12 22
235 15 160 -6 240 -4 282 4 173 36 276 147 309 333 31 169 -6 283 -108 335
-57 29 -148 38 -200 18z"/>
</g>
</svg>
