<?xml version="1.0" standalone="no"?>
<!DOCTYPE svg PUBLIC "-//W3C//DTD SVG 20010904//EN"
 "http://www.w3.org/TR/2001/REC-SVG-20010904/DTD/svg10.dtd">
<svg version="1.0" xmlns="http://www.w3.org/2000/svg"
 width="600.000000pt" height="600.000000pt" viewBox="0 0 600.000000 600.000000"
 preserveAspectRatio="xMidYMid meet">
<metadata>
Created by potrace 1.15, written by Peter Selinger 2001-2017
</metadata>
<g transform="translate(0.000000,600.000000) scale(0.100000,-0.100000)"
fill="#16364b" stroke="none">
<path d="M1545 5776 c-46 -20 -58 -40 -113 -181 -67 -172 -92 -266 -93 -347
-2 -175 126 -241 294 -151 61 33 248 214 336 326 54 70 61 83 61 124 0 38 -5
50 -34 79 -30 30 -40 34 -85 34 -49 0 -54 -3 -94 -47 -23 -25 -73 -78 -110
-117 l-68 -71 32 85 c17 47 35 100 40 118 27 91 -80 187 -166 148z"/>
<path d="M823 5525 c-69 -19 -119 -51 -175 -113 -65 -73 -93 -153 -93 -268 0
-84 2 -95 38 -166 50 -102 112 -158 173 -158 53 0 89 28 108 84 20 58 6 101
-48 151 -41 37 -46 47 -46 84 0 81 72 171 136 171 17 0 47 -9 69 -20 47 -24
76 -25 119 -5 68 32 89 130 39 177 -75 69 -203 94 -320 63z"/>
<path d="M3453 5370 c-17 -10 -37 -28 -42 -39 -15 -26 -14 -87 1 -114 6 -12
12 -40 13 -62 2 -90 92 -208 200 -260 198 -97 327 44 227 247 -46 93 -109 153
-218 205 -101 48 -134 52 -181 23z"/>
<path d="M2338 5351 l-33 -29 -6 -199 c-5 -180 -8 -205 -32 -276 -52 -149
-105 -208 -250 -278 -91 -43 -120 -93 -97 -163 15 -45 63 -81 110 -81 55 1
216 84 277 144 84 83 149 210 195 379 29 109 38 423 14 470 -34 66 -123 82
-178 33z"/>
<path d="M2959 5152 c-135 -70 -212 -280 -146 -397 59 -104 209 -115 344 -23
53 35 66 77 66 203 1 127 -34 199 -110 231 -49 21 -95 17 -154 -14z"/>
<path d="M4741 4764 c-43 -36 -54 -86 -46 -208 17 -253 83 -398 214 -470 141
-76 306 -14 354 133 22 67 21 95 -1 168 -36 113 -112 202 -257 298 -167 111
-211 124 -264 79z m279 -441 c0 -25 -26 2 -39 40 l-11 32 25 -28 c14 -15 25
-35 25 -44z"/>
<path d="M2702 4194 c-67 -18 -84 -27 -134 -72 -60 -54 -82 -105 -82 -182 1
-178 176 -294 374 -249 112 25 313 155 361 232 21 36 25 106 8 140 -25 47 -54
67 -137 93 -177 54 -291 65 -390 38z"/>
<path d="M1080 4082 c-53 -23 -90 -78 -90 -132 0 -44 35 -108 73 -130 17 -11
56 -24 87 -30 72 -15 123 -30 135 -42 24 -23 -135 -107 -330 -174 -128 -44
-162 -65 -181 -110 -43 -102 25 -214 129 -214 74 0 364 120 483 199 34 23 64
41 66 41 3 0 8 -17 12 -38 3 -21 20 -55 39 -77 18 -22 45 -59 60 -83 84 -130
290 -183 413 -106 93 57 132 187 90 302 -62 171 -262 263 -421 193 -26 -12
-50 -19 -52 -17 -2 2 1 23 7 47 32 116 -41 235 -183 299 -70 31 -253 80 -297
79 -14 0 -32 -3 -40 -7z"/>
<path d="M4173 3746 c-72 -23 -131 -65 -172 -119 -100 -133 -94 -291 15 -400
64 -65 107 -82 204 -82 75 0 93 4 152 32 83 39 155 109 191 184 33 70 62 214
53 262 -9 49 -56 93 -119 113 -71 22 -268 28 -324 10z m105 -288 c-6 -17 -55
-44 -64 -35 -11 11 26 47 48 47 11 0 18 -5 16 -12z"/>
<path d="M5125 3506 c-115 -43 -199 -116 -251 -217 -68 -135 -27 -300 95 -378
149 -95 373 -27 467 141 26 48 29 62 29 148 0 85 -3 101 -28 148 -32 60 -108
146 -149 168 -38 20 -93 17 -163 -10z m27 -338 c-7 -7 -12 -8 -12 -2 0 14 12
26 19 19 2 -3 -1 -11 -7 -17z"/>
<path d="M3421 3383 c-45 -23 -111 -109 -167 -219 -38 -74 -45 -97 -39 -122 9
-41 37 -76 75 -92 50 -21 147 10 210 67 87 78 142 235 110 313 -26 63 -117 88
-189 53z"/>
<path d="M2515 3346 c-160 -40 -271 -155 -350 -363 -69 -182 -85 -211 -141
-262 -29 -27 -75 -59 -101 -72 -158 -75 -312 -208 -410 -354 -158 -235 -235
-609 -173 -850 34 -135 82 -218 185 -321 98 -98 177 -150 315 -207 152 -63
237 -81 395 -81 127 0 148 3 225 28 317 105 560 344 653 641 31 100 103 442
117 555 27 226 -11 517 -99 763 -86 238 -118 297 -210 387 -75 73 -140 112
-226 135 -69 18 -111 18 -180 1z m151 -402 c45 -59 129 -264 152 -373 24 -112
23 -515 -1 -671 -22 -140 -59 -285 -88 -342 -72 -141 -229 -266 -394 -314
-142 -41 -334 -9 -459 76 -119 81 -158 163 -158 330 0 291 147 531 394 642 88
41 168 100 245 182 84 90 136 186 187 344 38 118 60 162 82 162 7 0 25 -16 40
-36z"/>
<path d="M484 2356 c-19 -19 -34 -43 -34 -54 0 -11 -7 -25 -16 -33 -22 -18
-44 -64 -44 -93 0 -13 14 -64 31 -113 97 -274 270 -476 453 -528 188 -54 343
93 306 290 -36 188 -215 376 -500 525 -102 53 -148 54 -196 6z m268 -327 c106
-79 198 -197 198 -254 0 -42 -90 9 -152 86 -35 44 -128 197 -128 211 0 15 16
7 82 -43z"/>
<path d="M4294 2091 c-33 -15 -72 -53 -100 -99 -1 -2 -17 7 -34 20 -43 31
-135 33 -176 2 -80 -59 -87 -111 -45 -324 38 -186 46 -212 72 -236 12 -11 32
-40 44 -65 80 -156 271 -181 366 -48 33 47 47 119 64 319 28 340 28 332 8 369
-38 73 -121 99 -199 62z"/>
</g>
</svg>
