<?xml version="1.0" standalone="no"?>
<!DOCTYPE svg PUBLIC "-//W3C//DTD SVG 20010904//EN"
 "http://www.w3.org/TR/2001/REC-SVG-20010904/DTD/svg10.dtd">
<svg version="1.0" xmlns="http://www.w3.org/2000/svg"
 width="600.000000pt" height="600.000000pt" viewBox="0 0 600.000000 600.000000"
 preserveAspectRatio="xMidYMid meet">
<metadata>
Created by potrace 1.15, written by Peter Selinger 2001-2017
</metadata>
<g transform="translate(0.000000,600.000000) scale(0.100000,-0.100000)"
fill="#16364b" stroke="none">
<path d="M3525 5255 c-33 -33 -31 -59 10 -143 39 -78 111 -164 157 -188 68
-35 128 -10 128 54 0 69 -124 253 -193 286 -48 22 -74 20 -102 -9z m158 -185
c10 -16 15 -30 10 -30 -10 0 -73 92 -73 105 1 12 39 -33 63 -75z"/>
<path d="M3019 5100 c-100 -53 -177 -289 -118 -364 16 -20 29 -26 59 -26 34 0
48 8 103 59 136 128 167 284 67 336 -38 20 -67 18 -111 -5z m79 -103 c6 -48
-87 -187 -125 -187 -33 0 13 138 63 188 38 38 58 38 62 -1z"/>
<path d="M4763 4724 l-25 -25 5 -257 c3 -159 9 -272 17 -296 32 -104 134 -117
176 -23 16 34 19 66 19 187 -1 126 -4 159 -29 255 -34 131 -49 163 -82 175
-39 15 -53 12 -81 -16z"/>
<path d="M2651 4227 c-14 -6 -34 -27 -44 -45 -28 -48 -11 -102 45 -142 114
-83 400 -136 476 -89 46 29 52 107 12 144 -26 24 -387 145 -430 145 -19 0 -46
-6 -59 -13z"/>
<path d="M1487 4040 c-110 -28 -187 -119 -187 -222 0 -90 69 -189 204 -292
115 -87 202 -504 281 -1336 28 -297 62 -446 136 -592 119 -235 256 -330 567
-389 34 -6 62 -14 62 -16 0 -2 -18 -31 -41 -64 -71 -105 -103 -185 -107 -267
-5 -85 7 -120 54 -161 30 -27 65 -40 213 -83 55 -16 63 -34 19 -43 -115 -23
-178 -67 -178 -124 0 -69 68 -101 166 -76 179 47 268 191 189 311 -21 32 -83
62 -184 90 -104 29 -131 46 -131 82 1 54 72 171 177 288 l28 32 235 -9 c129
-4 276 -13 325 -18 50 -6 134 -11 189 -11 97 0 98 0 91 -22 -4 -13 -9 -50 -12
-84 -9 -103 25 -144 149 -185 l81 -26 -39 -19 c-114 -55 -51 -174 93 -174 134
0 238 74 235 167 -3 80 -63 125 -219 167 -118 31 -133 40 -133 76 0 24 10 37
54 69 30 23 57 45 60 50 4 5 32 12 64 16 244 26 388 66 635 173 164 71 256
132 340 222 72 78 124 170 159 280 33 107 33 283 0 390 -90 285 -243 449 -465
497 -134 28 -278 4 -399 -69 -83 -49 -190 -91 -305 -120 -72 -18 -116 -22
-238 -22 -342 1 -566 95 -868 362 -154 136 -235 241 -391 508 -43 71 -105 164
-139 205 -73 87 -206 196 -329 271 -49 29 -116 71 -150 92 -110 70 -210 96
-291 76z m173 -232 c30 -19 87 -51 126 -72 94 -49 217 -149 281 -228 28 -35
99 -140 158 -233 130 -207 182 -278 312 -420 213 -235 390 -364 601 -439 309
-110 631 -127 883 -45 61 20 209 89 314 147 46 25 58 27 160 27 94 0 116 -3
151 -22 96 -51 193 -194 228 -334 54 -218 -38 -444 -233 -574 -83 -55 -302
-148 -426 -180 -179 -47 -520 -80 -749 -72 -89 4 -285 11 -436 16 -648 23
-812 76 -925 301 -66 131 -99 277 -115 512 -12 175 -43 472 -66 633 -21 149
-90 488 -115 572 -45 143 -122 255 -216 310 -72 42 -114 109 -85 137 17 18 99
-2 152 -36z"/>
<path d="M2388 2499 c-27 -15 -23 -71 5 -97 45 -42 107 -16 107 45 0 49 -66
79 -112 52z"/>
<path d="M2850 2108 c-25 -28 -25 -48 1 -82 20 -25 53 -33 75 -18 16 10 34 48
34 70 0 48 -74 69 -110 30z"/>
<path d="M5221 3978 c-86 -29 -159 -99 -190 -183 -47 -125 -13 -272 86 -369
72 -72 121 -91 228 -91 84 0 95 2 153 34 116 63 182 168 190 301 5 93 -11 134
-76 199 -115 115 -259 155 -391 109z m136 -300 c39 -17 38 -16 18 -38 -25 -28
-53 -25 -66 7 -7 20 -6 28 3 35 16 10 12 10 45 -4z"/>
<path d="M4222 3759 c-142 -28 -260 -163 -269 -309 -4 -57 -1 -72 24 -120 52
-101 163 -158 290 -147 147 11 260 117 279 260 11 75 -14 194 -47 232 -55 62
-187 102 -277 84z m58 -273 c0 -8 -7 -22 -16 -30 -18 -18 -44 -21 -44 -5 0 6
5 19 10 30 12 22 50 26 50 5z"/>
<path d="M467 2028 c-10 -5 -17 -21 -17 -38 0 -23 12 -38 59 -77 120 -97 234
-153 271 -133 27 15 26 61 -2 87 -22 20 -247 153 -279 165 -8 3 -23 2 -32 -4z"/>
<path d="M5323 1105 c-28 -20 -63 -114 -63 -171 0 -157 147 -199 206 -59 35
85 26 212 -16 235 -28 15 -103 12 -127 -5z"/>
</g>
</svg>
