<?xml version="1.0" standalone="no"?>
<!DOCTYPE svg PUBLIC "-//W3C//DTD SVG 20010904//EN"
 "http://www.w3.org/TR/2001/REC-SVG-20010904/DTD/svg10.dtd">
<svg version="1.0" xmlns="http://www.w3.org/2000/svg"
 width="600.000000pt" height="600.000000pt" viewBox="0 0 600.000000 600.000000"
 preserveAspectRatio="xMidYMid meet">
<metadata>
Created by potrace 1.15, written by Peter Selinger 2001-2017
</metadata>
<g transform="translate(0.000000,600.000000) scale(0.100000,-0.100000)"
fill="#16364b" stroke="none">
<path d="M1399 5654 c-214 -158 -249 -196 -249 -270 0 -28 8 -44 34 -70 49
-49 80 -46 360 38 192 57 247 78 269 99 45 45 32 113 -28 145 -29 15 -39 16
-73 6 -54 -16 -53 -17 -36 24 12 28 13 43 4 70 -15 44 -44 64 -96 64 -36 0
-57 -12 -185 -106z"/>
<path d="M2365 5441 c-55 -24 -56 -28 -59 -317 -3 -283 -8 -320 -55 -418 -30
-62 -105 -128 -197 -174 -96 -48 -116 -69 -116 -118 0 -51 38 -89 89 -88 72 0
266 115 351 208 55 60 106 169 126 268 17 84 21 308 7 486 -7 91 -10 106 -32
128 -27 27 -82 39 -114 25z"/>
<path d="M3512 5305 c-23 -17 -52 -75 -52 -104 0 -35 62 -144 111 -196 62 -66
136 -105 197 -105 37 0 50 6 78 34 64 64 43 152 -69 281 -27 30 -67 65 -89 76
-56 29 -146 36 -176 14z"/>
<path d="M2985 5124 c-93 -48 -165 -183 -165 -308 0 -75 23 -122 71 -148 43
-23 66 -23 129 1 76 29 147 86 169 136 27 62 42 140 35 186 -18 111 -145 182
-239 133z"/>
<path d="M4731 4760 c-39 -40 -46 -89 -32 -227 34 -320 140 -492 304 -493 211
-1 275 266 121 499 -48 72 -133 155 -213 209 -82 54 -134 58 -180 12z"/>
<path d="M2685 4231 c-151 -40 -226 -167 -180 -303 33 -96 116 -149 245 -156
101 -5 165 14 257 74 129 86 178 164 154 246 -16 51 -46 71 -159 109 -76 25
-117 33 -192 35 -52 2 -108 0 -125 -5z"/>
<path d="M1115 4126 c-65 -29 -102 -98 -85 -158 15 -50 47 -76 109 -88 69 -13
141 -39 141 -50 0 -18 -69 -30 -174 -30 -92 0 -116 -3 -143 -20 -45 -27 -66
-73 -60 -127 9 -80 56 -110 184 -119 159 -11 316 39 397 126 104 111 94 257
-24 364 -53 47 -101 71 -198 95 -93 24 -107 25 -147 7z"/>
<path d="M4248 3780 c-123 -22 -235 -105 -285 -214 -53 -116 -30 -252 55 -327
64 -56 116 -74 217 -74 106 0 157 19 230 86 74 68 116 170 130 311 8 82 -5
128 -46 163 -54 45 -203 72 -301 55z m52 -289 c0 -11 -48 -51 -61 -51 -17 0
-9 29 13 44 25 18 48 21 48 7z"/>
<path d="M5200 3714 c-126 -34 -220 -98 -263 -178 -33 -62 -31 -191 4 -266 33
-71 79 -123 138 -158 41 -24 55 -27 141 -27 84 1 101 4 148 28 161 84 240 284
171 433 -24 51 -127 160 -167 175 -34 13 -109 10 -172 -7z m70 -297 c0 -19
-37 -50 -49 -42 -17 10 -13 33 7 44 24 15 42 13 42 -2z"/>
<path d="M1629 3705 c-38 -21 -49 -61 -39 -137 34 -236 152 -389 258 -334 73
38 96 115 67 223 -22 81 -78 165 -146 221 -56 46 -93 53 -140 27z"/>
<path d="M3418 3372 c-42 -28 -85 -88 -138 -195 -60 -120 -62 -147 -15 -194
32 -32 39 -35 80 -31 68 8 131 51 175 119 45 70 75 172 67 226 -13 78 -103
119 -169 75z"/>
<path d="M2110 3064 c-92 -16 -153 -31 -285 -73 -82 -26 -188 -60 -235 -74
-231 -73 -391 -223 -479 -452 -34 -85 -35 -96 -36 -215 0 -143 18 -211 83
-319 50 -82 98 -131 227 -231 165 -127 199 -163 300 -315 127 -193 229 -284
387 -343 180 -67 433 -43 693 67 50 21 122 49 160 61 213 69 555 241 715 359
201 148 373 371 426 556 23 82 21 203 -5 278 -47 135 -186 295 -329 380 -126
74 -345 143 -617 193 -71 13 -180 39 -241 58 -175 55 -262 67 -514 71 -124 2
-236 2 -250 -1z m395 -398 c50 -9 198 -44 330 -77 132 -33 272 -63 310 -66 82
-6 319 -74 388 -111 27 -14 73 -52 103 -85 49 -53 54 -62 54 -105 0 -113 -133
-288 -325 -430 -118 -87 -377 -199 -560 -243 -45 -10 -116 -35 -157 -54 -195
-90 -385 -115 -483 -63 -64 34 -98 71 -170 186 -106 170 -162 226 -378 377
-61 42 -113 87 -132 113 -27 40 -30 51 -30 125 0 101 25 157 102 227 72 66
329 178 489 214 88 20 331 15 459 -8z"/>
<path d="M427 2199 c-22 -13 -47 -61 -47 -91 0 -34 55 -171 106 -264 52 -97
121 -191 161 -220 111 -82 235 -93 313 -28 99 84 77 219 -58 354 -75 75 -131
113 -293 201 -109 58 -147 68 -182 48z"/>
<path d="M4744 1671 c-18 -11 -33 -24 -36 -31 -2 -8 -15 -8 -50 1 -81 22 -149
-20 -168 -105 -16 -71 20 -264 66 -358 72 -143 234 -137 309 12 47 92 89 362
65 419 -31 75 -118 104 -186 62z"/>
</g>
</svg>
