<?xml version="1.0" standalone="no"?>
<!DOCTYPE svg PUBLIC "-//W3C//DTD SVG 20010904//EN"
 "http://www.w3.org/TR/2001/REC-SVG-20010904/DTD/svg10.dtd">
<svg version="1.0" xmlns="http://www.w3.org/2000/svg"
 width="600.000000pt" height="600.000000pt" viewBox="0 0 600.000000 600.000000"
 preserveAspectRatio="xMidYMid meet">
<metadata>
Created by potrace 1.15, written by Peter Selinger 2001-2017
</metadata>
<g transform="translate(0.000000,600.000000) scale(0.100000,-0.100000)"
fill="#16364b" stroke="none">
<path d="M3191 5472 c-18 -10 -44 -36 -57 -58 -51 -84 -17 -168 87 -218 35
-17 72 -43 83 -58 30 -42 33 -161 8 -269 -23 -94 -18 -138 19 -190 25 -35 93
-62 136 -54 77 14 112 78 149 271 48 255 -39 476 -223 565 -65 31 -156 36
-202 11z"/>
<path d="M2075 5416 c-42 -18 -82 -68 -96 -119 -18 -65 -6 -160 25 -207 46
-70 101 -95 276 -127 l45 -8 -1 -70 c0 -39 -4 -140 -9 -225 -9 -170 -3 -196
50 -238 82 -65 214 -6 229 103 13 90 36 349 36 407 0 78 -20 145 -62 205 -46
68 -121 103 -250 119 -47 5 -48 6 -48 41 0 50 -33 98 -80 117 -48 19 -75 20
-115 2z"/>
<path d="M1665 4793 c-85 -4 -228 -24 -281 -39 -129 -35 -163 -178 -64 -268
47 -42 77 -45 201 -21 173 33 303 28 455 -16 36 -11 49 -10 88 5 121 46 127
209 10 273 -79 44 -259 73 -409 66z"/>
<path d="M4284 4541 c-50 -31 -74 -68 -74 -118 0 -80 31 -118 131 -157 148
-59 199 -149 199 -348 0 -79 16 -126 54 -155 68 -54 171 -27 214 57 19 39 22
59 22 170 0 201 -36 297 -153 412 -82 79 -237 158 -312 158 -31 0 -62 -7 -81
-19z"/>
<path d="M3177 4428 c-189 -135 -370 -256 -467 -313 -172 -101 -189 -113 -210
-148 -39 -64 -18 -148 49 -193 35 -23 49 -26 95 -22 46 4 77 18 212 98 249
146 483 317 532 390 43 64 23 161 -41 200 -51 32 -115 27 -170 -12z"/>
<path d="M1579 4395 c-98 -53 -95 -223 4 -277 29 -15 319 -66 482 -84 180 -20
215 -16 266 35 61 60 70 138 24 207 -24 37 -51 46 -194 61 -74 7 -213 27 -308
43 -193 33 -236 36 -274 15z"/>
<path d="M3708 3861 c-25 -10 -106 -54 -180 -98 -160 -97 -326 -181 -428 -217
-98 -36 -134 -59 -154 -100 -21 -45 -20 -71 5 -122 25 -52 73 -84 124 -84 65
0 371 138 578 261 97 58 103 60 138 50 49 -15 92 -5 134 33 66 57 68 158 5
230 -58 66 -133 82 -222 47z"/>
<path d="M2210 3797 c-67 -19 -103 -21 -340 -22 -288 0 -291 -1 -334 -58 -60
-78 -33 -181 59 -227 49 -25 53 -25 300 -25 247 0 341 9 466 45 74 21 117 96
99 174 -12 54 -38 87 -90 114 -52 26 -62 26 -160 -1z"/>
<path d="M4998 3531 c-53 -17 -98 -53 -125 -98 -37 -64 -43 -110 -26 -201 28
-145 4 -230 -113 -410 -59 -89 -312 -509 -341 -566 -21 -41 -21 -132 0 -173
61 -116 205 -164 325 -108 67 31 95 62 144 160 50 99 139 247 230 383 89 133
157 265 194 378 27 83 29 100 29 244 0 121 -4 168 -18 213 -21 67 -71 129
-130 159 -45 22 -129 32 -169 19z"/>
<path d="M1980 3158 c-73 -50 -98 -125 -66 -202 30 -71 111 -100 330 -115
l128 -10 37 -40 c61 -66 139 -81 201 -38 96 64 99 199 9 302 -45 51 -103 74
-223 86 -55 5 -139 15 -186 21 -170 22 -192 22 -230 -4z"/>
<path d="M4355 3118 c-11 -6 -40 -30 -65 -53 -169 -160 -467 -289 -752 -325
-159 -21 -206 -47 -228 -129 -18 -67 17 -139 84 -173 35 -18 50 -20 125 -14
152 13 287 46 456 111 367 142 605 314 605 437 0 52 -32 111 -73 137 -38 23
-118 28 -152 9z"/>
<path d="M1378 2971 c-49 -16 -85 -43 -113 -85 -25 -38 -26 -46 -21 -121 3
-44 17 -163 31 -264 59 -419 113 -591 242 -775 58 -84 110 -116 187 -116 101
0 177 69 184 168 3 51 0 64 -34 127 -140 260 -179 398 -214 753 -22 220 -29
245 -85 287 -38 29 -127 42 -177 26z"/>
<path d="M2158 2369 c-166 -24 -238 -71 -238 -153 0 -89 67 -172 149 -183 22
-3 59 1 87 10 48 16 79 20 120 18 11 -1 41 -21 66 -45 56 -55 99 -66 163 -41
72 27 106 96 91 179 -9 49 -99 145 -168 178 -91 44 -158 54 -270 37z"/>
<path d="M4060 2113 c-19 -2 -105 -19 -190 -38 -85 -18 -238 -47 -340 -65
-277 -47 -651 -119 -682 -131 -38 -15 -87 -65 -104 -105 -18 -43 -18 -127 1
-163 21 -41 69 -79 118 -92 35 -9 69 -7 212 16 199 32 627 116 735 144 41 11
119 31 174 45 54 14 116 26 137 26 132 0 232 131 188 247 -13 34 -55 80 -90
98 -30 16 -108 25 -159 18z"/>
<path d="M2172 1723 c-75 -37 -103 -104 -84 -206 21 -110 73 -201 170 -297
200 -196 372 -234 441 -97 41 83 9 157 -90 207 -116 59 -184 141 -218 264 -21
77 -40 102 -96 127 -49 23 -80 23 -123 2z"/>
<path d="M4731 1674 c-19 -8 -74 -52 -121 -98 -129 -124 -190 -150 -610 -261
-496 -130 -562 -160 -591 -269 -19 -69 3 -139 61 -197 83 -83 146 -87 305 -16
44 20 143 54 220 76 77 21 206 58 287 80 279 79 437 157 579 290 116 107 151
179 128 265 -30 115 -153 176 -258 130z"/>
<path d="M2044 1001 c-87 -54 -119 -164 -74 -255 49 -103 301 -261 535 -336
127 -41 211 -53 334 -48 90 4 124 11 226 45 230 78 310 130 335 217 28 103
-38 209 -147 235 -54 13 -36 18 -253 -62 -78 -29 -95 -32 -200 -32 -93 1 -127
5 -180 24 -97 34 -233 105 -324 169 -77 54 -84 57 -151 60 -56 2 -76 -1 -101
-17z"/>
</g>
</svg>
