<?xml version="1.0" standalone="no"?>
<!DOCTYPE svg PUBLIC "-//W3C//DTD SVG 20010904//EN"
 "http://www.w3.org/TR/2001/REC-SVG-20010904/DTD/svg10.dtd">
<svg version="1.0" xmlns="http://www.w3.org/2000/svg"
 width="600.000000pt" height="600.000000pt" viewBox="0 0 600.000000 600.000000"
 preserveAspectRatio="xMidYMid meet">
<metadata>
Created by potrace 1.15, written by Peter Selinger 2001-2017
</metadata>
<g transform="translate(0.000000,600.000000) scale(0.100000,-0.100000)"
fill="#16364b" stroke="none">
<path d="M2584 5526 c-36 -16 -59 -47 -97 -129 -67 -143 -84 -257 -51 -335 54
-130 187 -166 443 -122 63 11 116 18 118 16 2 -1 -38 -47 -89 -102 -186 -198
-300 -349 -396 -524 -58 -107 -61 -139 -20 -220 27 -53 41 -69 78 -87 43 -22
54 -23 335 -23 159 -1 324 -5 365 -10 177 -23 203 -23 238 0 42 26 76 99 68
144 -9 45 -41 93 -74 110 -36 19 -163 33 -434 47 -193 11 -216 14 -208 28 20
36 152 193 260 309 264 284 275 300 275 403 0 83 -31 135 -106 178 -97 55
-197 61 -414 25 -49 -8 -102 -17 -117 -19 -16 -3 -28 -1 -28 4 0 5 14 39 31
75 25 53 30 76 26 108 -13 98 -118 163 -203 124z"/>
<path d="M1629 5127 c-209 -88 -434 -275 -557 -462 -29 -43 -55 -94 -58 -113
-14 -74 35 -159 109 -187 35 -13 56 -14 132 -5 115 13 260 13 306 0 27 -8 39
-17 43 -36 4 -14 4 -29 2 -33 -3 -5 -6 -53 -8 -108 -2 -115 11 -148 75 -183
74 -42 178 -7 219 73 18 36 21 60 22 186 1 138 0 149 -25 202 -31 65 -90 129
-148 159 -51 26 -144 50 -193 50 -21 0 -38 4 -38 9 0 24 162 136 228 158 92
31 132 80 132 163 0 123 -111 182 -241 127z"/>
<path d="M4251 4715 c-167 -31 -390 -134 -422 -195 -40 -74 -13 -159 61 -197
61 -32 88 -29 178 16 87 44 213 91 243 91 16 0 18 -5 13 -27 -29 -134 -113
-348 -189 -482 -57 -101 -67 -145 -42 -186 39 -65 91 -124 120 -136 24 -11 99
-14 322 -14 l290 0 -3 -32 c-4 -57 -62 -223 -128 -370 -38 -83 -64 -155 -64
-175 0 -92 113 -168 204 -138 51 17 77 53 136 192 175 414 195 626 68 757 -22
24 -62 53 -87 64 -60 26 -190 33 -342 17 -66 -7 -122 -10 -125 -8 -2 3 9 36
25 74 100 235 141 459 107 577 -41 142 -180 207 -365 172z"/>
<path d="M2020 4019 c-166 -62 -367 -127 -451 -148 -120 -28 -155 -49 -180
-107 -46 -103 27 -214 140 -214 51 0 339 72 456 115 180 65 247 110 266 177
21 79 -32 163 -118 187 -49 14 -48 14 -113 -10z"/>
<path d="M3710 3681 c-120 -38 -294 -153 -353 -232 -68 -92 12 -249 127 -249
51 0 81 15 154 79 68 58 159 114 167 101 9 -15 -26 -150 -61 -235 -19 -44 -53
-113 -77 -154 -37 -65 -48 -76 -92 -95 -97 -41 -125 -75 -125 -154 0 -50 3
-58 38 -92 55 -55 109 -68 181 -42 460 160 611 264 613 422 0 100 -63 165
-159 164 -53 0 -54 1 -48 25 3 13 10 59 15 102 27 233 -74 380 -260 378 -36 0
-90 -8 -120 -18z"/>
<path d="M2490 3480 c-125 -17 -348 -96 -418 -147 -86 -64 -81 -187 10 -243
61 -37 88 -36 208 9 126 47 217 71 278 71 39 0 42 -2 42 -28 0 -43 -26 -123
-75 -229 -33 -70 -45 -108 -45 -142 0 -112 108 -182 213 -137 45 19 61 40 113
145 68 140 95 231 101 341 6 111 -4 159 -50 226 -70 105 -217 157 -377 134z"/>
<path d="M1180 3180 c-99 -18 -205 -80 -238 -139 -30 -53 -30 -132 1 -186 32
-57 91 -95 160 -102 37 -4 57 -10 57 -19 0 -7 -11 -84 -25 -171 -43 -268 -45
-606 -5 -746 13 -45 67 -101 117 -122 84 -35 184 -6 231 68 15 25 44 60 63 78
19 19 54 68 76 109 84 154 354 527 374 515 5 -4 9 -86 9 -190 0 -205 -17 -332
-70 -518 -35 -127 -36 -136 -10 -186 51 -101 166 -129 245 -59 28 24 40 47 59
112 79 267 95 431 72 756 -19 277 -32 327 -94 385 -135 126 -361 25 -593 -266
-39 -50 -74 -88 -76 -85 -3 2 1 47 8 98 7 51 13 152 13 223 0 136 -13 205 -55
288 -61 119 -187 181 -319 157z"/>
<path d="M4797 2736 c-97 -36 -160 -121 -163 -220 l-1 -59 -100 -23 c-303 -68
-484 -217 -516 -426 -21 -139 22 -359 97 -490 l41 -73 -36 -32 c-20 -18 -44
-33 -52 -33 -9 0 -67 20 -129 43 -192 74 -293 89 -422 62 -195 -41 -346 -166
-523 -432 -41 -62 -84 -118 -96 -124 -12 -6 -42 -28 -67 -49 -89 -73 -105 -74
-169 -5 -67 73 -136 229 -180 411 -25 101 -56 150 -115 178 -100 47 -231 -12
-266 -120 -36 -109 69 -439 205 -643 51 -78 147 -171 205 -201 175 -89 403
-54 559 86 25 22 62 49 81 59 53 27 76 52 148 160 75 114 189 232 254 264 67
32 127 28 275 -21 114 -37 139 -42 228 -42 89 -1 106 2 159 26 128 61 207 144
221 234 4 29 12 47 23 50 69 22 125 77 148 146 27 82 8 149 -67 238 -49 58
-79 124 -79 176 0 41 1 42 52 64 28 12 93 29 142 36 234 36 308 74 388 198 54
83 78 169 78 275 0 105 -11 148 -53 203 -59 77 -184 116 -270 84z"/>
<path d="M3144 2495 c-92 -14 -270 -54 -354 -80 -25 -8 -78 -23 -118 -35 -117
-34 -172 -96 -172 -195 0 -78 48 -148 122 -180 53 -21 68 -20 213 24 131 39
320 84 408 96 54 7 56 3 32 -65 -72 -203 112 -370 291 -265 52 30 67 53 96
146 19 60 23 96 23 194 0 115 -1 123 -33 187 -38 78 -93 129 -174 160 -68 26
-211 32 -334 13z"/>
</g>
</svg>
