<?xml version="1.0" standalone="no"?>
<!DOCTYPE svg PUBLIC "-//W3C//DTD SVG 20010904//EN"
 "http://www.w3.org/TR/2001/REC-SVG-20010904/DTD/svg10.dtd">
<svg version="1.0" xmlns="http://www.w3.org/2000/svg"
 width="600.000000pt" height="600.000000pt" viewBox="0 0 600.000000 600.000000"
 preserveAspectRatio="xMidYMid meet">
<metadata>
Created by potrace 1.15, written by Peter Selinger 2001-2017
</metadata>
<g transform="translate(0.000000,600.000000) scale(0.100000,-0.100000)"
fill="#16364b" stroke="none">
<path d="M2520 5513 c-27 -14 -43 -35 -72 -93 -112 -229 -117 -382 -14 -467
72 -59 157 -66 368 -32 71 11 135 19 142 17 9 -2 -17 -37 -70 -93 -233 -247
-454 -570 -454 -661 0 -65 20 -116 61 -158 l39 -39 83 7 c311 24 514 18 733
-21 105 -18 130 -14 179 28 40 36 60 92 51 143 -8 41 -49 94 -84 107 -57 22
-232 40 -439 46 -123 3 -223 10 -223 14 0 13 102 128 248 283 136 143 209 232
245 301 16 30 22 58 22 116 0 66 -3 81 -28 117 -32 49 -80 82 -156 107 -46 15
-74 17 -175 12 -67 -4 -161 -15 -211 -26 -49 -11 -92 -18 -94 -16 -1 2 9 29
23 61 39 84 42 121 14 173 -13 25 -35 53 -49 64 -38 27 -97 32 -139 10z"/>
<path d="M1645 5111 c-136 -49 -267 -136 -411 -273 -111 -107 -189 -205 -205
-259 -20 -65 10 -148 68 -186 23 -15 58 -19 233 -24 164 -4 213 -9 247 -23 47
-20 43 -11 61 -162 6 -52 16 -91 28 -108 22 -30 90 -66 124 -66 44 0 105 38
129 80 21 38 22 48 16 138 -10 133 -20 183 -52 248 -45 92 -134 156 -258 184
-82 19 -80 18 -59 41 29 33 143 95 206 114 92 26 138 95 123 183 -19 115 -118
160 -250 113z"/>
<path d="M4242 4759 c-29 -5 -86 -22 -126 -37 -90 -35 -259 -135 -286 -169
-60 -76 -37 -188 46 -228 53 -25 96 -15 188 41 90 54 180 93 215 94 23 0 23
-2 16 -55 -13 -108 -99 -320 -200 -495 -34 -58 -31 -131 6 -180 47 -63 86 -99
115 -106 16 -4 81 -2 144 4 228 24 397 35 433 28 33 -6 37 -10 37 -38 0 -51
-28 -142 -91 -296 -127 -309 -129 -320 -64 -390 31 -34 38 -37 88 -37 98 0
114 20 231 295 90 211 126 327 133 437 8 115 -8 165 -72 229 -93 94 -226 120
-473 94 -67 -7 -124 -11 -126 -9 -2 2 13 46 35 98 69 164 93 270 94 401 0 96
-3 122 -21 161 -59 127 -174 184 -322 158z"/>
<path d="M1957 3969 c-109 -44 -262 -90 -382 -114 -128 -26 -174 -65 -182
-152 -5 -57 18 -101 69 -134 28 -18 44 -20 113 -15 94 6 272 48 465 111 117
39 143 51 169 80 52 59 54 147 4 205 -60 71 -116 76 -256 19z"/>
<path d="M3732 3684 c-112 -30 -351 -162 -410 -227 -45 -48 -47 -139 -5 -203
18 -29 90 -64 129 -64 33 0 82 27 170 91 67 49 170 106 178 98 7 -7 -26 -131
-57 -209 -13 -36 -48 -112 -76 -170 -46 -96 -55 -107 -98 -131 -98 -53 -121
-171 -47 -244 43 -43 99 -60 153 -45 105 28 392 163 492 231 108 73 158 159
146 249 -15 111 -144 166 -235 101 l-31 -21 21 67 c15 51 21 99 22 188 1 113
-1 123 -26 171 -62 118 -175 159 -326 118z"/>
<path d="M2455 3419 c-95 -7 -298 -49 -374 -78 -152 -56 -105 -275 63 -289 34
-3 65 1 91 12 66 28 192 56 277 63 l81 6 -7 -43 c-4 -24 -21 -76 -37 -114 -64
-146 -70 -166 -63 -204 14 -80 85 -138 159 -130 67 8 92 32 146 140 122 243
137 389 51 517 -69 102 -177 135 -387 120z"/>
<path d="M1157 3156 c-56 -23 -119 -65 -145 -96 -26 -30 -52 -96 -52 -130 0
-87 70 -166 157 -178 l48 -7 0 -95 c0 -52 -4 -219 -9 -370 -10 -317 1 -427 52
-509 33 -54 97 -91 156 -91 81 0 168 67 183 141 3 15 25 43 49 63 31 26 58 65
94 136 87 168 207 335 285 394 l33 25 6 -31 c10 -49 7 -316 -4 -388 -6 -36
-27 -133 -47 -216 l-37 -151 25 -49 c13 -27 39 -59 58 -71 64 -43 164 -23 206
41 34 51 98 345 116 526 13 143 6 368 -15 446 -63 236 -258 303 -472 161 -71
-46 -186 -159 -245 -238 -28 -38 -53 -69 -54 -69 -2 0 -1 91 2 203 7 228 -2
304 -46 401 -72 159 -195 213 -344 152z"/>
<path d="M4795 2781 c-51 -23 -101 -72 -121 -120 -9 -21 -16 -64 -15 -103 l0
-66 -82 -22 c-246 -64 -367 -135 -447 -260 -99 -155 -97 -384 5 -591 20 -41
47 -88 61 -106 l24 -32 -33 -22 c-17 -12 -44 -33 -58 -46 l-27 -25 -102 42
c-130 52 -199 70 -270 70 -66 0 -181 -30 -253 -67 -164 -82 -370 -261 -461
-401 -26 -39 -51 -72 -56 -72 -4 0 -38 -27 -74 -60 -93 -84 -122 -83 -224 14
-86 81 -145 188 -187 336 -40 142 -66 176 -153 199 -90 25 -193 -40 -223 -139
-34 -112 77 -436 200 -585 117 -142 289 -254 423 -277 130 -23 263 24 384 133
39 35 84 71 101 80 19 10 56 55 96 116 76 116 206 244 282 280 70 32 115 29
261 -17 206 -66 310 -65 454 3 123 57 199 160 188 254 -4 30 -1 33 29 39 89
17 168 106 180 203 9 82 -11 133 -85 213 -68 74 -92 118 -92 167 0 38 25 52
202 110 128 43 246 107 294 162 72 80 114 190 114 295 0 155 -43 247 -133 289
-64 30 -144 33 -202 6z"/>
<path d="M3080 2445 c-160 -25 -340 -74 -425 -116 -85 -42 -138 -154 -114
-242 14 -53 72 -111 128 -128 38 -11 52 -11 110 5 310 84 457 116 544 116 43
0 44 -5 21 -74 -14 -41 -15 -56 -4 -103 13 -62 57 -119 107 -139 75 -32 173
-8 226 55 49 58 94 249 82 346 -13 107 -78 201 -172 249 -90 46 -318 60 -503
31z"/>
</g>
</svg>
