<?xml version="1.0" standalone="no"?>
<!DOCTYPE svg PUBLIC "-//W3C//DTD SVG 20010904//EN"
 "http://www.w3.org/TR/2001/REC-SVG-20010904/DTD/svg10.dtd">
<svg version="1.0" xmlns="http://www.w3.org/2000/svg"
 width="600.000000pt" height="600.000000pt" viewBox="0 0 600.000000 600.000000"
 preserveAspectRatio="xMidYMid meet">
<metadata>
Created by potrace 1.15, written by Peter Selinger 2001-2017
</metadata>
<g transform="translate(0.000000,600.000000) scale(0.100000,-0.100000)"
fill="#16364b" stroke="none">
<path d="M1937 5797 c-40 -24 -44 -30 -245 -357 -194 -316 -224 -432 -135
-531 61 -67 143 -75 246 -23 57 29 236 147 447 296 152 107 174 135 174 213 0
61 -24 109 -67 135 -61 38 -103 24 -224 -71 -32 -25 -71 -54 -87 -65 l-29 -18
13 24 c7 14 25 43 40 65 88 129 111 224 70 290 -40 65 -134 84 -203 42z"/>
<path d="M3012 5693 c-66 -32 -96 -110 -67 -179 24 -57 40 -71 152 -126 248
-120 423 -290 474 -459 18 -60 19 -70 6 -101 -16 -39 -58 -63 -131 -77 -25 -4
-57 -16 -71 -25 -90 -59 -84 -210 10 -255 117 -56 384 73 452 219 31 68 46
155 38 224 -9 85 -58 226 -101 294 -96 149 -336 347 -558 458 -97 49 -147 55
-204 27z"/>
<path d="M923 5399 c-191 -37 -326 -208 -340 -429 -6 -100 13 -197 54 -272 36
-65 148 -171 206 -193 108 -41 217 37 217 155 0 58 -24 100 -80 142 -48 35
-90 105 -90 148 0 96 47 142 165 165 64 12 86 21 110 45 26 26 30 38 30 83 0
123 -114 188 -272 156z"/>
<path d="M2858 5066 c-49 -13 -63 -21 -116 -70 -90 -83 -129 -255 -82 -364 30
-70 92 -123 169 -147 79 -24 232 -18 283 12 75 44 101 140 57 212 -18 31 -20
40 -9 73 9 32 8 49 -4 92 -44 152 -164 229 -298 192z"/>
<path d="M4744 4901 c-45 -28 -82 -80 -90 -128 -8 -55 12 -229 38 -312 27 -88
81 -185 135 -238 144 -145 358 -119 461 56 24 41 27 56 27 141 0 82 -4 103
-27 153 -51 109 -164 205 -355 301 -100 51 -141 56 -189 27z"/>
<path d="M1905 4692 c-81 -28 -141 -68 -159 -106 -35 -75 -10 -163 60 -203 51
-30 91 -29 166 3 60 25 62 25 75 7 8 -10 16 -29 19 -43 15 -76 87 -140 158
-140 48 0 117 40 138 80 53 97 -22 290 -142 365 -88 55 -218 71 -315 37z"/>
<path d="M2945 3992 c-104 -19 -199 -99 -231 -194 -23 -69 -16 -167 17 -238
67 -144 218 -220 439 -220 74 0 92 3 121 23 70 46 88 138 44 216 -14 24 -24
45 -23 46 2 1 18 7 36 15 18 7 45 29 60 48 23 30 27 46 27 98 0 55 -3 66 -28
92 -76 79 -321 139 -462 114z m233 -332 c13 -9 5 -10 -36 -6 -28 3 -60 10 -70
16 -13 9 -5 10 36 6 28 -3 60 -10 70 -16z"/>
<path d="M1260 3963 c-85 -4 -275 -43 -309 -64 -79 -48 -115 -174 -72 -256 37
-73 105 -109 192 -101 34 4 46 2 42 -6 -4 -6 -85 -130 -181 -275 -96 -145
-196 -303 -223 -350 -66 -115 -129 -278 -129 -333 1 -85 55 -159 139 -187 73
-24 135 -7 191 53 40 43 141 125 395 323 99 77 232 181 295 232 l115 92 3 -63
c5 -111 -40 -252 -196 -602 -81 -181 -157 -318 -234 -425 -85 -117 -88 -123
-88 -169 0 -114 124 -185 230 -130 37 19 61 46 140 161 136 197 178 275 301
559 127 292 155 375 171 504 18 138 -1 345 -36 418 -38 78 -89 110 -180 114
-116 6 -192 -32 -418 -213 -55 -43 -60 -46 -43 -20 177 272 212 338 228 430 8
49 7 71 -6 116 -42 143 -139 200 -327 192z"/>
<path d="M4220 3786 c-127 -27 -228 -104 -277 -213 -22 -48 -25 -65 -21 -137
7 -123 63 -212 166 -263 48 -24 69 -28 137 -28 69 1 89 5 147 33 99 48 185
145 254 288 62 129 69 179 31 234 -33 50 -73 68 -183 85 -116 17 -178 18 -254
1z m61 -326 c-25 -21 -51 -26 -51 -10 0 13 31 29 55 29 19 0 19 -1 -4 -19z"/>
<path d="M3430 3404 c-72 -31 -106 -79 -169 -234 -36 -87 -42 -112 -38 -153 9
-97 67 -137 200 -137 67 0 97 5 126 20 142 72 198 260 122 408 -24 47 -45 66
-101 91 -53 24 -92 26 -140 5z"/>
<path d="M4949 3012 c-77 -50 -224 -215 -267 -300 -32 -66 -37 -85 -37 -147 0
-62 4 -78 30 -120 66 -106 213 -143 335 -83 177 87 272 315 219 521 -10 38
-84 124 -126 146 -40 21 -106 13 -154 -17z"/>
<path d="M3963 2576 c-59 -19 -99 -51 -129 -102 -39 -67 -36 -117 15 -262 24
-68 41 -125 38 -128 -3 -3 -31 3 -62 15 -118 44 -227 20 -316 -68 -77 -78
-102 -134 -107 -242 -5 -98 19 -204 103 -469 60 -185 82 -226 147 -270 48 -33
55 -35 137 -35 77 0 90 3 128 28 80 51 123 149 104 236 -5 26 -19 68 -30 95
-12 26 -21 50 -21 52 0 3 21 -8 48 -23 100 -59 265 -27 360 70 65 67 86 124
86 237 -1 114 -25 214 -121 505 -74 227 -83 247 -127 293 -63 68 -168 96 -253
68z"/>
<path d="M2044 2176 c-84 -27 -153 -88 -246 -216 -65 -91 -78 -119 -78 -171 0
-54 20 -97 63 -139 l37 -35 -75 -78 c-81 -84 -144 -196 -164 -295 -29 -141 0
-357 67 -496 48 -100 143 -227 225 -301 183 -167 425 -234 680 -190 220 38
418 153 520 301 50 74 47 177 -9 243 l-24 29 30 45 c90 133 220 456 276 686
62 250 -11 433 -198 498 -135 46 -311 7 -603 -136 -88 -43 -163 -77 -167 -74
-5 2 -8 16 -8 31 0 45 -38 170 -65 212 -49 78 -167 117 -261 86z m926 -494 c0
-32 -67 -266 -104 -360 -19 -50 -57 -135 -85 -190 -66 -127 -68 -174 -16 -252
l35 -52 -32 -37 c-76 -87 -176 -136 -303 -148 -190 -18 -389 86 -466 243 -55
112 -51 270 8 362 23 36 85 82 110 82 4 0 19 -26 31 -57 29 -72 83 -148 125
-174 46 -29 140 -23 195 13 88 59 108 186 45 284 -18 26 -30 51 -27 56 12 19
443 248 469 248 8 0 15 -8 15 -18z"/>
</g>
</svg>
