<?xml version="1.0" standalone="no"?>
<!DOCTYPE svg PUBLIC "-//W3C//DTD SVG 20010904//EN"
 "http://www.w3.org/TR/2001/REC-SVG-20010904/DTD/svg10.dtd">
<svg version="1.0" xmlns="http://www.w3.org/2000/svg"
 width="600.000000pt" height="600.000000pt" viewBox="0 0 600.000000 600.000000"
 preserveAspectRatio="xMidYMid meet">
<metadata>
Created by potrace 1.15, written by Peter Selinger 2001-2017
</metadata>
<g transform="translate(0.000000,600.000000) scale(0.100000,-0.100000)"
fill="#16364b" stroke="none">
<path d="M2394 5386 c-19 -14 -21 -28 -27 -203 -14 -411 -82 -570 -290 -678
-83 -43 -99 -66 -79 -110 20 -44 57 -43 147 3 240 123 335 319 351 725 8 183
3 228 -28 257 -26 24 -46 25 -74 6z"/>
<path d="M3532 5288 c-47 -51 -47 -89 -2 -178 67 -132 180 -206 265 -174 23 9
45 57 45 100 0 42 -46 134 -96 193 -65 75 -169 104 -212 59z"/>
<path d="M3025 5076 c-16 -7 -47 -31 -67 -54 -131 -145 -124 -352 11 -352 66
0 165 79 211 169 48 96 44 179 -11 225 -35 29 -93 34 -144 12z m75 -118 c-1
-43 -98 -173 -116 -156 -3 3 0 25 7 49 19 62 110 151 109 107z"/>
<path d="M4783 4743 c-13 -3 -32 -16 -43 -30 -18 -23 -20 -40 -20 -182 1 -247
24 -365 86 -427 30 -29 41 -34 84 -34 59 0 102 31 122 88 18 54 13 194 -11
287 -23 87 -99 251 -128 277 -21 18 -58 27 -90 21z"/>
<path d="M2641 4217 c-90 -34 -119 -134 -59 -202 111 -127 428 -156 529 -49
18 19 24 37 24 70 0 65 -26 85 -185 138 -151 51 -252 64 -309 43z"/>
<path d="M5225 3970 c-74 -24 -132 -71 -165 -136 -22 -43 -25 -62 -25 -154 0
-93 3 -112 26 -161 79 -168 231 -227 392 -151 131 61 216 188 225 334 4 69 2
84 -22 132 -30 61 -65 95 -137 132 -41 20 -62 24 -141 23 -63 0 -113 -6 -153
-19z m152 -281 l28 -11 -29 -24 c-32 -28 -56 -19 -56 22 0 27 14 30 57 13z"/>
<path d="M4172 3751 c-66 -23 -117 -63 -159 -125 -101 -148 -56 -336 98 -421
48 -26 64 -30 139 -30 78 0 90 3 148 34 73 40 105 74 141 151 21 46 25 69 24
141 -1 51 -7 100 -16 122 -20 46 -94 100 -175 126 -76 26 -131 26 -200 2z
m108 -280 c0 -19 -18 -31 -46 -31 -18 0 -18 15 2 34 21 22 44 20 44 -3z"/>
<path d="M1153 3622 c-137 -49 -211 -169 -201 -325 8 -130 88 -241 218 -307
53 -27 83 -37 179 -61 29 -7 60 -26 93 -57 81 -76 124 -177 193 -451 63 -252
73 -301 85 -447 13 -154 23 -214 56 -314 57 -177 190 -339 342 -418 132 -69
200 -82 482 -92 227 -9 319 -14 630 -40 170 -14 379 -12 520 5 183 23 483 71
613 99 368 80 615 266 758 571 61 130 82 220 82 355 0 138 -21 227 -87 365
-84 177 -157 261 -288 330 -199 105 -487 106 -693 3 -34 -16 -133 -80 -221
-142 -261 -183 -305 -205 -454 -227 -201 -29 -399 27 -644 184 -259 165 -435
303 -543 425 -103 115 -265 270 -348 332 -167 125 -418 218 -615 226 -85 4
-115 1 -157 -14z m197 -321 c307 -75 372 -115 655 -391 206 -201 253 -243 390
-347 293 -220 539 -342 790 -389 69 -12 123 -15 230 -11 247 9 363 55 655 257
96 66 193 129 215 140 121 58 274 64 378 15 111 -52 222 -210 247 -354 24
-129 -20 -273 -124 -411 -85 -114 -152 -168 -301 -243 -145 -73 -232 -90 -550
-112 -126 -9 -268 -20 -315 -25 -110 -13 -553 -12 -695 1 -60 6 -193 11 -295
13 -138 2 -200 7 -245 20 -235 67 -300 169 -340 536 -16 148 -45 270 -130 550
-93 307 -165 454 -262 540 -59 51 -167 105 -240 120 -76 15 -113 29 -140 53
-47 42 -11 60 77 38z"/>
<path d="M2269 2376 c-36 -18 -38 -69 -3 -101 39 -36 71 -33 91 10 13 27 14
40 6 58 -15 32 -63 49 -94 33z"/>
<path d="M2871 2070 c-53 -13 -53 -72 -1 -104 39 -22 72 -15 90 20 27 49 -26
100 -89 84z"/>
<path d="M3454 3353 c-47 -48 -164 -270 -164 -312 0 -27 38 -61 69 -61 37 0
119 90 169 188 49 93 57 149 28 181 -24 26 -78 28 -102 4z"/>
<path d="M475 2015 c-41 -40 -34 -55 67 -154 101 -99 189 -139 253 -115 22 9
46 59 38 81 -16 47 -99 111 -233 178 -83 42 -93 43 -125 10z"/>
<path d="M5322 1104 c-46 -32 -78 -135 -61 -197 13 -49 60 -87 108 -87 77 0
120 67 121 187 0 66 -2 73 -26 92 -33 26 -109 28 -142 5z"/>
</g>
</svg>
