<?xml version="1.0" standalone="no"?>
<!DOCTYPE svg PUBLIC "-//W3C//DTD SVG 20010904//EN"
 "http://www.w3.org/TR/2001/REC-SVG-20010904/DTD/svg10.dtd">
<svg version="1.0" xmlns="http://www.w3.org/2000/svg"
 width="600.000000pt" height="600.000000pt" viewBox="0 0 600.000000 600.000000"
 preserveAspectRatio="xMidYMid meet">
<metadata>
Created by potrace 1.15, written by Peter Selinger 2001-2017
</metadata>
<g transform="translate(0.000000,600.000000) scale(0.100000,-0.100000)"
fill="#16364b" stroke="none">
<path d="M1788 5790 c-77 -23 -95 -52 -184 -289 -150 -398 -153 -552 -14 -624
47 -24 62 -27 104 -22 137 17 315 162 522 425 84 107 108 159 100 213 -9 55
-34 94 -72 112 -75 35 -116 13 -245 -133 -57 -63 -104 -111 -106 -105 -2 6 17
64 42 129 38 96 46 128 42 165 -9 101 -93 158 -189 129z"/>
<path d="M3034 5679 c-18 -5 -46 -25 -63 -44 -25 -29 -31 -44 -31 -83 0 -28 8
-59 19 -78 10 -17 104 -95 207 -175 266 -203 410 -349 439 -446 6 -22 4 -23
-58 -23 -55 0 -70 -4 -105 -30 -48 -35 -67 -86 -52 -139 22 -78 90 -115 210
-116 73 0 93 4 142 28 142 70 200 218 145 374 -33 95 -123 230 -217 323 -72
73 -459 366 -530 402 -37 20 -59 21 -106 7z"/>
<path d="M898 5434 c-131 -31 -237 -116 -295 -235 -62 -126 -64 -258 -6 -373
52 -104 200 -226 272 -226 13 0 45 10 69 21 33 16 49 32 63 63 35 78 17 139
-64 217 -51 49 -60 62 -63 100 -9 90 62 162 159 161 107 0 177 57 177 146 0
96 -61 142 -185 141 -38 0 -96 -7 -127 -15z"/>
<path d="M2948 5176 c-55 -20 -85 -42 -119 -89 -74 -101 -97 -218 -60 -302 28
-63 46 -83 96 -106 76 -35 257 -18 325 31 45 32 64 96 57 189 -11 135 -58 220
-149 265 -58 29 -95 32 -150 12z"/>
<path d="M4765 4876 c-37 -16 -83 -68 -91 -103 -12 -44 5 -254 25 -335 54
-210 176 -338 322 -338 110 0 215 83 254 201 22 66 16 176 -12 239 -48 107
-174 221 -340 308 -86 45 -110 49 -158 28z"/>
<path d="M2035 4849 c-58 -14 -145 -60 -167 -90 -47 -63 -40 -147 17 -198 49
-42 90 -48 169 -21 36 12 70 19 76 15 5 -3 10 -22 10 -41 0 -75 54 -134 129
-142 66 -6 116 12 149 56 24 32 27 44 27 116 0 72 -4 89 -33 148 -38 77 -93
130 -160 152 -49 17 -153 19 -217 5z"/>
<path d="M2896 4098 c-140 -19 -226 -105 -226 -225 1 -202 273 -330 624 -293
216 22 284 47 325 121 41 72 18 160 -50 191 -424 199 -518 228 -673 206z"/>
<path d="M1120 4080 c-104 -14 -147 -30 -184 -68 -99 -98 -79 -245 41 -302 40
-18 59 -22 116 -17 l68 4 -18 -26 c-9 -14 -44 -62 -77 -106 -34 -44 -90 -122
-126 -174 -36 -51 -113 -157 -171 -235 -220 -294 -253 -358 -229 -445 13 -50
63 -109 107 -127 46 -20 124 -17 182 5 28 10 132 77 233 148 101 71 252 176
337 233 148 100 154 103 179 89 53 -29 52 -127 -3 -294 -88 -269 -239 -515
-430 -700 -77 -76 -101 -123 -91 -178 19 -103 126 -157 214 -109 72 38 246
232 350 387 67 101 220 402 275 540 22 56 40 122 46 174 6 47 17 89 24 95 42
34 47 57 47 206 0 155 -7 198 -43 251 -37 54 -81 74 -167 74 -64 0 -85 -5
-145 -33 -64 -31 -194 -102 -255 -141 -25 -16 -25 -16 -10 6 8 11 44 57 80
101 36 44 80 106 99 137 111 183 67 402 -96 481 -50 25 -69 28 -172 30 -64 2
-145 -1 -181 -6z"/>
<path d="M4245 3774 c-203 -31 -324 -149 -325 -316 0 -206 176 -361 362 -318
99 23 189 89 255 188 43 65 113 242 113 285 0 43 -29 97 -63 117 -47 29 -260
56 -342 44z m15 -314 c0 -13 -48 -36 -56 -27 -4 4 -1 13 6 22 14 17 50 20 50
5z"/>
<path d="M3385 3372 c-47 -29 -87 -81 -138 -179 -54 -104 -61 -163 -28 -217
27 -43 66 -63 146 -76 97 -16 157 1 210 58 64 68 99 203 76 290 -14 51 -64
110 -108 128 -46 20 -122 17 -158 -4z"/>
<path d="M5013 3194 c-60 -30 -166 -128 -215 -199 -62 -90 -88 -169 -88 -259
0 -88 22 -139 79 -188 175 -149 476 22 521 296 17 103 -11 194 -86 281 -72 83
-138 105 -211 69z"/>
<path d="M3927 2596 c-58 -21 -103 -61 -131 -118 -34 -69 -34 -126 3 -269 17
-62 29 -115 27 -116 -2 -2 -32 4 -67 13 -109 28 -203 3 -267 -71 -55 -62 -66
-92 -69 -195 -4 -91 -2 -100 40 -220 25 -69 70 -197 101 -284 31 -88 67 -177
80 -197 53 -79 191 -109 283 -61 76 39 119 123 111 213 -5 48 -5 49 21 41 113
-32 277 51 337 170 58 115 53 228 -21 452 -101 308 -188 543 -212 574 -30 40
-114 82 -163 81 -19 0 -52 -6 -73 -13z"/>
<path d="M2024 2332 c-71 -25 -140 -79 -211 -164 -66 -80 -138 -187 -149 -221
-4 -12 -21 -38 -38 -58 -85 -100 -174 -328 -202 -519 -24 -168 -6 -344 50
-495 96 -255 380 -479 671 -530 296 -51 559 35 765 252 152 160 186 201 240
294 103 175 172 350 209 536 35 168 25 296 -31 409 -35 74 -84 123 -158 161
-49 25 -65 28 -145 27 -77 0 -106 -6 -197 -37 -59 -20 -155 -59 -214 -87 -59
-27 -108 -49 -109 -48 0 2 -15 46 -32 99 -105 323 -253 449 -449 381z m84
-504 c7 -18 21 -84 32 -146 11 -62 29 -130 39 -151 25 -48 102 -118 160 -144
72 -32 116 -22 278 67 152 83 313 156 343 156 17 0 17 -3 -1 -87 -53 -244
-158 -494 -241 -576 -18 -18 -50 -54 -71 -79 -100 -125 -323 -183 -495 -129
-127 39 -273 164 -311 266 -70 185 -37 440 79 611 16 25 37 59 46 75 20 39
115 169 123 169 4 0 12 -15 19 -32z"/>
</g>
</svg>
