<?xml version="1.0" standalone="no"?>
<!DOCTYPE svg PUBLIC "-//W3C//DTD SVG 20010904//EN"
 "http://www.w3.org/TR/2001/REC-SVG-20010904/DTD/svg10.dtd">
<svg version="1.0" xmlns="http://www.w3.org/2000/svg"
 width="600.000000pt" height="600.000000pt" viewBox="0 0 600.000000 600.000000"
 preserveAspectRatio="xMidYMid meet">
<metadata>
Created by potrace 1.15, written by Peter Selinger 2001-2017
</metadata>
<g transform="translate(0.000000,600.000000) scale(0.100000,-0.100000)"
fill="#16364b" stroke="none">
<path d="M1573 5753 c-38 -34 -44 -54 -79 -253 -34 -196 -38 -376 -10 -462 65
-201 268 -222 418 -43 76 89 148 204 222 352 86 172 95 207 70 258 -28 56 -65
80 -125 79 -54 -1 -95 -24 -116 -65 -7 -13 -38 -76 -69 -139 -63 -129 -124
-234 -131 -226 -6 6 11 164 33 303 19 118 14 144 -43 193 -28 25 -42 30 -86
30 -43 0 -58 -5 -84 -27z"/>
<path d="M3215 5552 c-53 -18 -95 -72 -95 -122 0 -52 34 -88 176 -189 77 -54
169 -127 205 -161 l64 -63 -35 -7 c-78 -14 -130 -68 -130 -133 0 -59 29 -100
92 -131 204 -99 398 -16 398 172 0 148 -118 310 -350 479 -180 132 -269 174
-325 155z"/>
<path d="M855 5472 c-147 -55 -262 -172 -300 -306 -39 -133 -2 -277 96 -381
50 -53 135 -105 171 -105 38 0 98 33 118 65 40 65 22 125 -59 193 -78 66 -80
140 -5 213 35 34 36 34 127 34 106 0 134 13 163 73 39 79 10 171 -66 208 -53
26 -182 29 -245 6z"/>
<path d="M2982 5170 c-113 -27 -212 -174 -212 -315 0 -139 104 -221 249 -197
93 16 170 58 195 106 31 63 28 212 -6 287 -27 59 -69 98 -127 118 -38 12 -51
12 -99 1z"/>
<path d="M2262 4920 c-29 -18 -50 -50 -66 -102 -3 -11 -31 -25 -78 -39 -175
-52 -228 -92 -243 -180 -7 -41 18 -113 48 -137 30 -25 87 -32 131 -16 23 8 91
32 152 53 131 46 144 52 196 99 52 47 79 102 85 171 5 68 -16 115 -66 148 -44
29 -113 31 -159 3z"/>
<path d="M4739 4826 c-60 -41 -73 -81 -65 -211 18 -316 147 -510 354 -531 43
-5 73 -2 111 11 106 35 155 108 153 230 -2 163 -107 332 -273 438 -145 93
-214 108 -280 63z"/>
<path d="M2849 4119 c-87 -9 -145 -36 -191 -87 -114 -126 -49 -300 140 -373
79 -30 249 -37 360 -15 123 25 241 73 284 116 49 49 59 110 28 174 -24 51 -57
74 -156 112 -157 59 -335 87 -465 73z"/>
<path d="M1044 4081 c-101 -26 -157 -133 -122 -232 33 -96 77 -121 219 -124
60 -1 112 -5 115 -8 14 -14 -171 -223 -276 -314 -41 -36 -122 -96 -180 -135
-127 -85 -149 -104 -166 -145 -44 -103 17 -219 133 -253 54 -16 97 -7 164 34
48 31 55 33 63 18 19 -36 51 -63 88 -72 33 -10 38 -14 38 -41 0 -50 25 -83 87
-117 106 -56 143 -115 143 -230 0 -125 -57 -261 -143 -338 -58 -52 -116 -73
-150 -55 -12 7 -38 21 -57 32 -103 57 -231 -15 -217 -122 6 -48 30 -79 91
-120 123 -80 266 -89 400 -25 132 64 253 219 312 401 35 108 44 289 19 384
-32 126 -96 213 -203 281 -39 25 -72 48 -72 52 0 9 147 101 210 130 95 45 133
53 161 35 39 -26 100 -31 144 -13 87 37 109 79 106 200 -2 105 -20 144 -77
171 -44 21 -144 17 -171 -7 -10 -8 -49 -23 -87 -32 -38 -9 -84 -23 -102 -31
-19 -8 -34 -11 -34 -8 0 3 22 36 50 73 102 137 134 264 95 379 -32 99 -134
182 -260 215 -70 18 -276 29 -321 17z"/>
<path d="M4185 3786 c-76 -19 -119 -40 -164 -82 -148 -133 -139 -367 18 -472
64 -43 114 -55 212 -50 197 9 312 122 370 364 22 95 22 95 3 141 -12 31 -31
54 -51 66 -70 41 -284 59 -388 33z m85 -286 c0 -5 -11 -17 -26 -26 -34 -23
-56 -4 -23 20 26 18 49 21 49 6z"/>
<path d="M3429 3406 c-53 -19 -104 -61 -155 -130 -97 -129 -119 -209 -76 -279
29 -46 76 -67 149 -67 92 0 132 16 188 73 61 62 95 152 95 248 0 134 -83 198
-201 155z"/>
<path d="M5080 3331 c-178 -55 -330 -248 -330 -421 0 -145 96 -261 228 -277
62 -7 160 26 228 77 134 101 198 311 134 443 -26 55 -101 142 -139 161 -36 18
-91 26 -121 17z"/>
<path d="M2135 2632 c-67 -33 -122 -87 -216 -212 -35 -47 -91 -115 -125 -151
-34 -36 -71 -86 -83 -110 -11 -24 -46 -80 -76 -124 -68 -97 -166 -292 -199
-397 -141 -440 54 -874 470 -1048 121 -50 198 -63 354 -57 171 6 293 36 445
111 277 136 453 407 579 890 63 244 58 425 -19 582 -57 116 -177 198 -307 211
-57 5 -185 -7 -255 -24 -20 -4 -27 6 -69 93 -84 176 -192 256 -354 262 -77 3
-91 0 -145 -26z m193 -517 c35 -71 62 -105 126 -155 85 -65 125 -72 277 -49
68 10 143 19 165 19 42 0 42 0 48 -44 12 -76 -17 -205 -86 -391 -125 -334
-236 -482 -413 -547 -50 -18 -82 -22 -191 -22 l-131 -1 -79 40 c-256 130 -342
402 -210 666 37 73 82 135 157 216 37 40 71 82 74 95 4 12 32 50 61 85 30 35
75 95 101 134 l47 71 15 -33 c8 -19 25 -56 39 -84z"/>
<path d="M4035 2391 c-87 -39 -124 -120 -106 -226 16 -90 15 -98 -9 -85 -11 6
-45 11 -75 11 -101 2 -175 -54 -216 -162 -35 -92 -23 -185 65 -478 57 -189 71
-218 130 -248 38 -20 137 -13 190 12 21 10 54 34 73 54 29 30 45 38 105 48 88
14 153 53 195 116 48 71 59 138 45 263 -17 155 -91 564 -109 602 -45 95 -185
140 -288 93z"/>
</g>
</svg>
