<?xml version="1.0" standalone="no"?>
<!DOCTYPE svg PUBLIC "-//W3C//DTD SVG 20010904//EN"
 "http://www.w3.org/TR/2001/REC-SVG-20010904/DTD/svg10.dtd">
<svg version="1.0" xmlns="http://www.w3.org/2000/svg"
 width="600.000000pt" height="600.000000pt" viewBox="0 0 600.000000 600.000000"
 preserveAspectRatio="xMidYMid meet">
<metadata>
Created by potrace 1.15, written by Peter Selinger 2001-2017
</metadata>
<g transform="translate(0.000000,600.000000) scale(0.100000,-0.100000)"
fill="#16364b" stroke="none">
<path d="M2380 5370 c-18 -18 -20 -33 -20 -139 0 -66 -7 -171 -15 -234 -35
-267 -119 -419 -275 -501 -74 -39 -92 -65 -70 -105 17 -33 64 -27 144 21 215
128 310 353 323 769 l6 176 -24 16 c-31 22 -45 21 -69 -3z"/>
<path d="M3575 5293 c-57 -14 -69 -71 -29 -148 32 -64 123 -169 165 -190 41
-22 92 -19 115 6 42 47 11 144 -79 244 -63 72 -119 100 -172 88z"/>
<path d="M2999 5087 c-88 -47 -154 -174 -147 -281 4 -51 9 -63 36 -87 55 -49
112 -35 208 54 100 93 143 205 105 275 -33 61 -126 79 -202 39z m97 -91 c10
-25 -33 -103 -83 -153 l-48 -48 -3 33 c-5 47 40 135 81 161 38 25 46 26 53 7z"/>
<path d="M4775 4736 c-30 -30 -37 -96 -38 -349 -1 -176 1 -197 21 -248 28 -71
61 -103 108 -103 73 0 114 92 114 259 0 167 -57 418 -103 450 -32 22 -74 19
-102 -9z"/>
<path d="M2665 4233 c-57 -16 -101 -80 -89 -130 21 -91 205 -173 387 -173 99
0 147 15 173 54 22 35 14 109 -16 141 -47 50 -379 130 -455 108z"/>
<path d="M5253 3985 c-95 -29 -178 -98 -225 -187 -19 -36 -23 -59 -23 -133 0
-76 4 -98 26 -146 73 -154 219 -227 380 -189 125 29 201 87 251 188 29 58 33
76 33 147 0 67 -4 89 -28 137 -33 66 -100 131 -178 171 -44 22 -67 27 -124 26
-39 0 -89 -6 -112 -14z m133 -308 c11 -10 -10 -38 -34 -44 -18 -4 -29 -1 -39
12 -25 35 -17 48 28 42 22 -3 43 -7 45 -10z"/>
<path d="M1300 3845 c-49 -22 -107 -81 -138 -140 -20 -39 -26 -65 -26 -120 -1
-129 72 -221 239 -301 66 -32 103 -57 123 -82 97 -124 155 -303 192 -592 12
-91 34 -235 50 -320 15 -85 33 -219 39 -297 16 -203 45 -317 115 -451 85 -160
202 -260 371 -317 l97 -32 -65 -31 c-162 -75 -226 -210 -137 -286 64 -53 144
-55 477 -14 94 11 179 18 189 14 15 -6 13 -12 -19 -44 -20 -21 -39 -52 -43
-69 -5 -27 -1 -37 24 -63 113 -113 293 122 203 265 -22 34 -59 56 -115 67 -45
10 -85 7 -262 -16 -115 -15 -229 -26 -254 -24 l-45 3 45 24 c25 14 126 52 225
85 l180 61 115 -7 c63 -3 221 -12 350 -18 l235 -12 33 -34 c18 -18 51 -39 75
-45 47 -13 172 -16 257 -5 55 7 55 7 67 -24 13 -35 62 -60 121 -60 53 0 121
37 159 88 41 54 43 93 7 129 -14 14 -24 27 -22 28 2 2 57 15 123 30 446 100
653 228 784 483 136 267 153 486 54 684 -114 228 -276 373 -474 424 -87 22
-249 15 -338 -15 -71 -25 -153 -74 -191 -115 -35 -38 -135 -108 -199 -141 -88
-44 -247 -91 -389 -115 -118 -20 -143 -21 -220 -11 -111 14 -236 52 -336 103
-109 55 -158 90 -247 178 -129 128 -237 274 -461 622 -107 167 -195 245 -373
332 -362 178 -391 189 -479 193 -58 2 -91 -1 -116 -12z m208 -274 c31 -16 98
-45 147 -66 235 -97 325 -180 547 -505 342 -501 527 -672 829 -768 140 -45
215 -55 353 -49 206 9 473 74 662 162 81 37 187 111 243 169 98 102 306 104
434 5 85 -65 183 -205 212 -301 46 -154 -17 -331 -175 -488 -64 -64 -105 -96
-167 -128 -251 -130 -470 -177 -933 -203 -336 -18 -1040 3 -1215 37 -144 28
-256 95 -311 189 -52 89 -83 231 -99 450 -3 50 -17 153 -30 230 -13 77 -33
211 -45 298 -25 192 -49 298 -96 425 -92 248 -180 357 -361 450 -98 50 -123
72 -123 106 0 26 64 19 128 -13z"/>
<path d="M2330 2431 c-17 -33 -11 -58 21 -85 37 -31 53 -32 79 -6 25 25 26 72
2 93 -26 24 -88 22 -102 -2z"/>
<path d="M2807 2032 c-10 -10 -17 -27 -17 -36 0 -25 57 -76 85 -76 24 0 65 42
65 65 0 7 -9 24 -21 39 -25 32 -86 37 -112 8z"/>
<path d="M4223 3746 c-61 -20 -106 -51 -157 -107 -94 -104 -113 -249 -46 -348
123 -180 409 -165 514 28 47 88 45 282 -5 352 -48 67 -209 107 -306 75z m87
-274 c0 -10 -5 -23 -12 -30 -13 -13 -48 -16 -48 -4 0 16 32 52 46 52 8 0 14
-8 14 -18z"/>
<path d="M3455 3348 c-33 -31 -175 -279 -175 -305 0 -17 37 -53 54 -53 50 0
207 212 231 312 5 21 1 33 -19 52 -33 34 -49 33 -91 -6z"/>
<path d="M472 2018 c-7 -7 -12 -24 -12 -39 0 -33 73 -101 179 -166 102 -62
169 -67 186 -12 17 54 -38 105 -202 188 -84 42 -129 51 -151 29z"/>
<path d="M5337 1090 c-55 -43 -84 -187 -51 -251 20 -40 71 -61 114 -49 69 20
102 79 104 191 1 69 -2 80 -23 103 -32 34 -105 37 -144 6z"/>
</g>
</svg>
