<?xml version="1.0" standalone="no"?>
<!DOCTYPE svg PUBLIC "-//W3C//DTD SVG 20010904//EN"
 "http://www.w3.org/TR/2001/REC-SVG-20010904/DTD/svg10.dtd">
<svg version="1.0" xmlns="http://www.w3.org/2000/svg"
 width="600.000000pt" height="600.000000pt" viewBox="0 0 600.000000 600.000000"
 preserveAspectRatio="xMidYMid meet">
<metadata>
Created by potrace 1.15, written by Peter Selinger 2001-2017
</metadata>
<g transform="translate(0.000000,600.000000) scale(0.100000,-0.100000)"
fill="#16364b" stroke="none">
<path d="M1824 5816 c-67 -30 -98 -85 -207 -377 -121 -323 -132 -426 -54 -513
81 -89 210 -75 372 43 113 82 410 356 438 405 50 88 -14 212 -120 232 -63 12
-93 -4 -196 -104 -54 -52 -100 -92 -103 -90 -2 3 15 52 38 109 65 159 58 226
-32 287 -37 25 -89 28 -136 8z"/>
<path d="M3005 5696 c-116 -50 -122 -202 -12 -271 222 -139 346 -239 468 -379
80 -92 144 -199 137 -232 -2 -14 -19 -20 -69 -29 -36 -6 -78 -18 -93 -28 -89
-59 -86 -191 6 -247 83 -50 291 1 373 91 130 145 118 332 -34 538 -71 96 -310
326 -435 418 -202 150 -261 174 -341 139z"/>
<path d="M903 5415 c-79 -22 -131 -51 -188 -109 -65 -65 -102 -143 -117 -247
-27 -192 45 -371 187 -466 41 -27 64 -35 98 -35 96 0 159 66 159 163 0 59 -26
108 -87 161 -83 73 -80 199 7 244 15 8 60 19 98 23 83 11 116 30 137 78 27 66
-7 147 -76 183 -48 24 -139 26 -218 5z"/>
<path d="M2954 5156 c-66 -16 -116 -47 -159 -100 -50 -62 -75 -122 -75 -186 0
-83 16 -127 64 -174 72 -70 178 -92 308 -65 71 15 102 32 130 71 21 30 23 43
21 123 -5 194 -62 304 -170 334 -46 13 -54 13 -119 -3z"/>
<path d="M4805 4877 c-52 -21 -86 -49 -107 -91 -41 -80 -10 -324 58 -458 54
-107 163 -190 266 -204 114 -16 226 53 268 164 73 192 -69 433 -334 567 -72
37 -102 41 -151 22z"/>
<path d="M1962 4810 c-103 -37 -142 -84 -142 -172 0 -79 66 -148 141 -148 20
0 56 7 80 15 40 15 45 14 56 -2 7 -9 13 -32 13 -50 0 -63 21 -120 56 -154 29
-28 43 -33 91 -37 48 -3 64 0 92 20 63 42 76 71 76 156 -1 170 -73 309 -187
366 -44 22 -65 26 -137 25 -57 0 -104 -7 -139 -19z"/>
<path d="M2831 4051 c-64 -22 -98 -47 -129 -91 -97 -143 -5 -301 218 -369 181
-56 561 -48 655 13 42 28 85 104 85 150 0 41 -27 99 -59 123 -35 29 -208 98
-336 135 -204 60 -339 72 -434 39z"/>
<path d="M1080 4027 c-41 -7 -91 -21 -110 -33 -86 -50 -122 -162 -80 -249 30
-63 83 -96 162 -104 l61 -6 -40 -50 c-48 -60 -285 -402 -376 -541 -89 -135
-169 -301 -174 -362 -5 -58 25 -122 78 -164 76 -61 202 -43 265 36 37 47 84
82 319 241 105 71 261 182 348 247 87 65 162 116 168 112 13 -8 4 -120 -17
-211 -47 -205 -116 -358 -267 -586 -62 -95 -150 -233 -195 -308 -72 -119 -82
-141 -82 -182 0 -94 63 -167 143 -167 58 0 92 26 149 115 71 110 184 279 274
410 126 182 209 374 281 645 24 93 27 122 27 260 -1 200 -17 264 -85 332 -60
60 -109 75 -193 58 -87 -17 -196 -76 -328 -177 -32 -24 -58 -41 -58 -37 0 7
36 58 168 241 120 167 146 257 101 350 -26 54 -76 95 -142 118 -65 23 -287 29
-397 12z"/>
<path d="M4221 3794 c-138 -30 -230 -94 -278 -192 -25 -51 -28 -68 -28 -157 0
-114 14 -151 82 -218 68 -69 104 -82 223 -82 96 0 110 2 160 29 117 62 193
172 245 355 39 141 30 213 -34 245 -68 36 -254 45 -370 20z m46 -329 c-32 -29
-47 -32 -47 -10 0 16 32 33 60 34 10 0 5 -8 -13 -24z"/>
<path d="M3447 3409 c-21 -5 -50 -15 -66 -23 -47 -25 -130 -125 -172 -207 -47
-94 -51 -148 -16 -199 36 -54 68 -71 148 -80 134 -15 207 18 261 117 31 57 53
176 44 241 -15 114 -97 175 -199 151z"/>
<path d="M4954 3107 c-159 -118 -274 -299 -274 -430 0 -95 52 -183 133 -224
163 -82 395 62 453 281 31 116 8 245 -57 317 -17 19 -36 41 -42 50 -19 26 -73
49 -115 49 -31 0 -53 -9 -98 -43z"/>
<path d="M3887 2644 c-92 -28 -157 -126 -157 -233 0 -41 33 -192 61 -279 6
-18 9 -35 6 -38 -2 -3 -29 5 -58 16 -125 50 -253 21 -310 -69 -41 -64 -52
-113 -47 -215 l4 -90 -15 45 c-35 97 -84 153 -170 193 -65 29 -201 28 -291 -3
-79 -27 -234 -99 -353 -163 -48 -27 -89 -48 -91 -48 -2 0 -9 28 -16 63 -60
306 -182 457 -369 457 -108 0 -234 -85 -339 -228 -71 -97 -100 -151 -108 -202
-4 -25 -15 -57 -26 -72 -84 -120 -168 -449 -168 -654 1 -223 96 -428 287 -617
114 -113 241 -189 368 -222 146 -38 489 -1 640 69 106 49 223 160 271 258 12
24 39 79 61 123 84 167 244 562 289 713 15 48 29 125 33 172 l6 85 23 -109
c23 -106 105 -354 143 -428 26 -50 84 -96 148 -115 81 -23 148 -6 211 55 67
66 84 144 54 248 -6 22 -5 22 42 6 112 -37 293 49 354 168 53 104 47 226 -21
420 -22 63 -56 159 -75 213 -19 54 -49 155 -68 226 -18 70 -41 141 -50 158
-22 44 -81 89 -132 102 -55 14 -78 13 -137 -5z m-1824 -906 c4 -29 11 -109 17
-178 14 -151 29 -198 79 -243 85 -77 209 -64 388 40 191 110 435 224 450 210
21 -21 -221 -606 -299 -723 -78 -117 -223 -184 -401 -184 -95 0 -162 22 -255
84 -181 120 -251 274 -222 487 19 134 43 201 137 373 12 23 23 54 23 70 0 31
57 129 70 121 4 -3 10 -28 13 -57z"/>
</g>
</svg>
