<?xml version="1.0" standalone="no"?>
<!DOCTYPE svg PUBLIC "-//W3C//DTD SVG 20010904//EN"
 "http://www.w3.org/TR/2001/REC-SVG-20010904/DTD/svg10.dtd">
<svg version="1.0" xmlns="http://www.w3.org/2000/svg"
 width="600.000000pt" height="600.000000pt" viewBox="0 0 600.000000 600.000000"
 preserveAspectRatio="xMidYMid meet">
<metadata>
Created by potrace 1.15, written by Peter Selinger 2001-2017
</metadata>
<g transform="translate(0.000000,600.000000) scale(0.100000,-0.100000)"
fill="#16364b" stroke="none">
<path d="M2045 5806 c-37 -16 -59 -41 -212 -241 -67 -88 -153 -198 -193 -245
-96 -115 -128 -165 -146 -228 -21 -70 -6 -129 42 -172 69 -61 148 -61 299 -3
133 52 590 279 629 313 70 62 75 155 12 219 -35 35 -39 36 -109 35 -68 0 -77
-3 -177 -57 -58 -31 -108 -56 -112 -55 -3 2 32 50 79 108 99 121 117 156 108
211 -9 50 -39 87 -89 110 -48 22 -89 23 -131 5z"/>
<path d="M3008 5675 c-50 -34 -76 -100 -59 -154 18 -61 45 -87 128 -121 239
-99 352 -182 413 -301 24 -47 50 -148 50 -195 0 -81 -74 -151 -192 -181 -47
-12 -83 -29 -107 -49 -33 -29 -36 -36 -36 -87 0 -45 5 -60 25 -82 60 -64 137
-79 254 -49 196 50 328 184 357 364 31 190 -73 468 -240 638 -88 92 -188 148
-380 213 -107 36 -164 38 -213 4z"/>
<path d="M949 5352 c-121 -45 -232 -139 -284 -242 -38 -76 -58 -180 -51 -267
13 -148 75 -263 184 -340 81 -58 147 -69 209 -33 108 61 110 182 3 252 -63 41
-100 99 -100 155 0 83 37 125 150 168 75 29 111 62 130 120 23 69 -14 156 -80
190 -37 19 -103 18 -161 -3z"/>
<path d="M2783 4990 c-84 -17 -159 -83 -209 -186 -25 -51 -29 -71 -29 -144 0
-77 3 -90 31 -140 63 -112 197 -178 341 -167 44 3 86 13 105 24 97 57 101 184
7 235 -27 15 -46 18 -94 13 -67 -7 -95 0 -95 22 0 12 7 14 29 10 97 -20 196
85 177 187 -18 95 -150 168 -263 146z"/>
<path d="M4775 4906 c-16 -8 -46 -30 -65 -50 -35 -37 -35 -38 -38 -139 -8
-236 85 -438 240 -522 39 -21 69 -29 125 -33 88 -6 142 12 195 63 60 59 73 96
73 210 0 91 -3 105 -29 158 -58 114 -185 226 -339 297 -71 32 -115 37 -162 16z"/>
<path d="M1933 4620 c-95 -20 -212 -95 -257 -164 -50 -77 -28 -180 46 -227 49
-30 126 -22 175 18 83 65 105 67 137 8 32 -58 78 -85 140 -85 132 0 199 129
133 256 -72 141 -232 224 -374 194z"/>
<path d="M2953 3941 c-135 -46 -217 -173 -244 -377 -10 -76 -9 -101 4 -168 20
-96 53 -168 107 -228 68 -78 144 -98 224 -58 102 51 113 159 26 260 -40 48
-56 127 -41 203 12 54 13 56 50 62 84 14 141 76 141 153 0 75 -46 134 -124
157 -63 19 -79 18 -143 -4z"/>
<path d="M1078 3861 c-123 -27 -155 -39 -195 -74 -98 -86 -81 -236 35 -304 39
-23 58 -28 115 -27 44 0 66 -4 63 -10 -2 -6 -70 -112 -150 -236 -81 -124 -171
-274 -201 -335 -58 -119 -112 -286 -122 -377 -10 -98 43 -174 139 -199 64 -17
117 1 186 64 74 67 206 178 357 299 66 53 185 155 265 227 80 72 149 131 154
131 20 0 -38 -341 -80 -465 -44 -131 -218 -498 -313 -660 -49 -83 -54 -133
-18 -185 51 -75 128 -98 210 -62 66 29 80 54 287 507 108 237 145 339 164 466
9 52 22 139 31 194 33 201 37 242 33 330 -6 144 -54 218 -158 246 -97 25 -200
-20 -388 -171 -58 -47 -117 -94 -131 -105 l-26 -20 16 25 c9 14 54 84 100 155
99 154 130 227 137 316 4 56 1 75 -20 120 -33 73 -66 110 -124 139 -43 22 -64
25 -164 27 -82 2 -140 -3 -202 -16z"/>
<path d="M4215 3792 c-119 -36 -204 -101 -263 -201 -39 -66 -43 -180 -10 -253
30 -64 83 -119 147 -150 37 -19 63 -23 131 -23 74 0 93 4 150 31 121 58 214
173 280 347 31 82 32 91 20 130 -16 55 -66 101 -127 117 -84 21 -259 23 -328
2z m52 -317 c-29 -25 -57 -33 -57 -15 0 11 49 39 70 39 10 0 5 -8 -13 -24z"/>
<path d="M3454 3362 c-73 -35 -143 -138 -195 -289 -24 -71 -24 -119 1 -160 33
-54 59 -65 162 -65 72 -1 106 4 149 21 74 28 141 88 175 156 55 113 16 254
-88 318 -61 38 -146 46 -204 19z"/>
<path d="M4882 2911 c-71 -52 -192 -199 -233 -286 -71 -147 -64 -261 21 -346
57 -57 119 -76 194 -59 192 43 319 230 319 466 -1 85 -11 107 -90 192 -58 62
-59 62 -114 62 -46 0 -63 -5 -97 -29z"/>
<path d="M4074 2524 c-44 -16 -107 -72 -130 -116 -7 -14 -16 -50 -19 -80 -5
-45 1 -72 39 -183 24 -71 43 -131 42 -132 -1 -1 -46 14 -101 32 -132 46 -225
48 -304 9 -52 -26 -102 -80 -123 -134 -44 -110 -19 -328 73 -656 35 -127 69
-180 137 -217 151 -82 316 -8 337 152 4 34 -2 78 -25 165 -16 66 -27 122 -25
125 3 2 20 -11 38 -31 69 -76 140 -91 247 -54 136 47 229 132 266 240 25 74
14 201 -30 351 -127 433 -143 469 -235 517 -61 32 -120 36 -187 12z"/>
<path d="M2880 2165 c-47 -14 -181 -73 -299 -130 -117 -58 -215 -105 -216
-105 -2 0 -9 15 -15 34 -6 19 -29 54 -50 79 -65 73 -152 96 -256 67 -96 -27
-244 -220 -244 -319 0 -114 73 -201 168 -201 33 0 41 -4 46 -22 11 -44 5 -53
-57 -85 -129 -67 -220 -175 -264 -312 -22 -66 -24 -89 -20 -181 7 -167 62
-290 192 -428 113 -121 355 -268 520 -318 137 -42 323 -17 475 62 93 49 237
159 268 206 58 88 25 206 -73 264 -78 45 -155 35 -230 -31 -93 -83 -172 -117
-271 -117 -240 0 -484 193 -484 385 0 42 24 96 43 98 29 3 43 -5 84 -51 58
-65 129 -115 180 -129 106 -29 227 47 248 155 11 60 -12 113 -75 175 -61 61
-93 117 -115 201 -16 58 -13 68 18 68 24 0 75 24 182 87 114 66 338 173 363
173 10 0 -12 -82 -45 -165 -32 -81 -122 -265 -189 -387 -39 -72 -42 -117 -10
-181 50 -104 154 -143 246 -95 39 21 55 41 123 154 124 207 192 353 233 499
77 277 36 447 -127 535 -59 32 -72 35 -164 37 -84 3 -114 -1 -185 -22z"/>
</g>
</svg>
