<?xml version="1.0" standalone="no"?>
<!DOCTYPE svg PUBLIC "-//W3C//DTD SVG 20010904//EN"
 "http://www.w3.org/TR/2001/REC-SVG-20010904/DTD/svg10.dtd">
<svg version="1.0" xmlns="http://www.w3.org/2000/svg"
 width="600.000000pt" height="600.000000pt" viewBox="0 0 600.000000 600.000000"
 preserveAspectRatio="xMidYMid meet">
<metadata>
Created by potrace 1.15, written by Peter Selinger 2001-2017
</metadata>
<g transform="translate(0.000000,600.000000) scale(0.100000,-0.100000)"
fill="#16364b" stroke="none">
<path d="M1507 5761 c-49 -43 -83 -169 -108 -399 -23 -217 0 -320 83 -375 81
-54 192 -25 296 76 72 70 188 225 262 349 48 82 60 110 60 145 0 80 -85 144
-163 122 -42 -11 -66 -37 -108 -119 -42 -82 -150 -250 -161 -250 -4 0 -8 6 -8
13 0 24 28 173 50 260 24 103 18 140 -31 182 -24 20 -41 25 -84 25 -46 0 -60
-5 -88 -29z"/>
<path d="M872 5515 c-113 -25 -221 -106 -270 -202 -33 -63 -62 -172 -62 -228
0 -113 63 -224 160 -283 46 -28 61 -32 94 -27 76 11 116 61 116 144 0 51 -2
57 -45 98 -57 54 -69 83 -55 135 13 48 74 111 123 127 29 10 42 9 72 -4 85
-35 162 -5 186 74 23 76 -30 135 -146 166 -70 18 -90 18 -173 0z"/>
<path d="M3363 5450 c-34 -21 -63 -66 -63 -100 0 -43 31 -80 110 -131 44 -28
80 -54 80 -57 0 -3 -10 -16 -22 -30 -33 -35 -31 -113 5 -169 105 -165 250
-216 358 -126 157 132 -12 439 -336 612 -49 26 -91 27 -132 1z"/>
<path d="M2315 5181 c-62 -38 -68 -52 -76 -179 -17 -241 -43 -283 -227 -376
-84 -42 -102 -65 -102 -127 0 -57 32 -102 86 -119 47 -16 79 -9 191 45 146 69
233 164 284 312 23 68 42 234 37 325 -4 66 -6 72 -41 104 -30 28 -45 34 -79
34 -24 0 -56 -8 -73 -19z"/>
<path d="M2955 5171 c-111 -50 -213 -236 -189 -346 35 -165 183 -213 370 -120
96 47 108 71 109 220 0 94 -3 116 -22 150 -26 48 -68 90 -106 104 -43 16 -117
13 -162 -8z"/>
<path d="M4758 4795 c-50 -28 -60 -63 -59 -216 0 -89 6 -164 17 -211 54 -240
222 -362 389 -284 101 46 160 145 159 266 0 66 -4 83 -34 140 -45 83 -126 163
-252 247 -110 73 -167 88 -220 58z m233 -417 c11 -21 11 -22 -4 -9 -10 7 -17
17 -17 22 0 15 9 10 21 -13z"/>
<path d="M2750 4162 c-206 -68 -273 -257 -143 -402 84 -93 223 -115 399 -64
108 31 249 102 293 148 45 47 52 106 21 171 -27 57 -66 83 -185 126 -78 28
-106 32 -210 35 -96 3 -131 1 -175 -14z"/>
<path d="M1032 4084 c-75 -39 -104 -143 -63 -226 33 -66 57 -78 188 -93 64 -8
121 -19 126 -24 15 -15 -57 -88 -148 -150 -77 -53 -157 -95 -280 -148 -95 -41
-112 -54 -137 -112 -23 -50 -18 -96 14 -150 22 -35 85 -70 128 -71 31 0 219
82 318 138 41 23 75 42 77 42 2 0 9 -17 15 -37 22 -68 79 -113 145 -113 43 0
84 18 149 65 46 33 50 35 70 20 44 -33 123 -65 177 -71 45 -5 65 -2 102 14 63
28 87 69 87 147 0 78 -24 130 -84 182 -67 59 -129 78 -243 77 -51 -1 -93 -1
-93 0 0 1 10 22 22 47 33 68 37 180 8 247 -57 133 -222 217 -445 228 -81 4
-106 2 -133 -12z"/>
<path d="M4250 3786 c-128 -36 -234 -124 -290 -241 -38 -80 -44 -174 -16 -240
23 -55 89 -119 150 -147 76 -34 191 -32 266 3 128 61 213 193 255 398 20 99
12 141 -34 185 -51 49 -226 71 -331 42z m60 -306 c0 -15 -38 -50 -55 -50 -23
0 -18 16 11 39 29 23 44 27 44 11z"/>
<path d="M5088 3441 c-79 -25 -136 -61 -187 -116 -70 -76 -86 -122 -86 -245 0
-120 12 -155 76 -219 121 -120 372 -83 477 71 48 72 67 134 66 223 0 69 -4 88
-29 133 -37 68 -121 147 -171 161 -53 15 -79 13 -146 -8z"/>
<path d="M3444 3400 c-65 -15 -116 -74 -189 -220 -41 -82 -47 -100 -42 -139 7
-63 49 -101 113 -101 116 0 192 48 244 153 40 82 50 185 23 236 -31 59 -87 86
-149 71z"/>
<path d="M2365 3057 c-66 -22 -97 -43 -152 -99 -53 -55 -72 -88 -144 -253 -50
-115 -105 -179 -204 -235 -77 -44 -266 -232 -327 -325 -230 -354 -261 -718
-87 -1012 43 -72 165 -196 248 -252 161 -109 315 -155 526 -156 141 0 187 7
315 47 390 124 646 493 726 1048 34 236 -1 440 -113 653 -35 66 -114 157 -198
227 -16 14 -57 57 -90 95 -185 216 -256 266 -385 272 -44 2 -91 -3 -115 -10z
m159 -444 c28 -31 60 -72 71 -91 18 -33 46 -58 167 -152 59 -45 85 -84 109
-162 43 -135 33 -324 -27 -545 -87 -322 -258 -512 -499 -554 -181 -31 -409 51
-521 188 -60 74 -84 145 -84 249 0 213 114 429 295 562 241 176 328 279 396
470 18 50 35 92 38 92 2 0 27 -25 55 -57z"/>
<path d="M734 2586 c-34 -34 -36 -40 -31 -82 6 -55 40 -94 112 -131 119 -61
215 -148 253 -231 20 -44 23 -65 20 -114 -4 -51 -9 -65 -32 -85 -68 -58 -150
4 -240 183 -49 98 -78 124 -141 124 -69 0 -125 -54 -125 -122 0 -43 75 -193
141 -280 155 -208 384 -248 545 -96 132 125 150 323 46 523 -80 156 -315 333
-453 343 -56 4 -60 3 -95 -32z"/>
<path d="M4235 2210 c-82 -19 -134 -72 -143 -146 -4 -37 -8 -44 -21 -38 -9 4
-39 9 -67 11 -64 6 -123 -21 -155 -73 -32 -53 -29 -119 19 -351 31 -154 44
-199 65 -226 28 -38 81 -67 120 -67 13 0 46 -12 73 -27 93 -52 226 -26 279 56
41 62 45 106 38 436 -7 359 -8 363 -93 409 -34 18 -79 25 -115 16z"/>
</g>
</svg>
