<?xml version="1.0" standalone="no"?>
<!DOCTYPE svg PUBLIC "-//W3C//DTD SVG 20010904//EN"
 "http://www.w3.org/TR/2001/REC-SVG-20010904/DTD/svg10.dtd">
<svg version="1.0" xmlns="http://www.w3.org/2000/svg"
 width="600.000000pt" height="600.000000pt" viewBox="0 0 600.000000 600.000000"
 preserveAspectRatio="xMidYMid meet">
<metadata>
Created by potrace 1.15, written by Peter Selinger 2001-2017
</metadata>
<g transform="translate(0.000000,600.000000) scale(0.100000,-0.100000)"
fill="#16364b" stroke="none">
<path d="M1616 5789 c-41 -35 -57 -81 -106 -303 -73 -325 -53 -522 59 -601 38
-27 51 -30 115 -30 64 0 77 3 124 34 76 49 139 123 274 326 144 216 171 267
171 321 1 108 -122 175 -214 116 -19 -12 -78 -91 -155 -208 -104 -159 -124
-184 -124 -158 0 50 19 142 57 268 38 129 38 164 2 210 -29 37 -71 56 -123 56
-36 0 -52 -6 -80 -31z"/>
<path d="M3152 5571 c-18 -12 -41 -35 -52 -53 -24 -40 -26 -114 -4 -146 8 -12
93 -73 187 -136 125 -82 190 -133 240 -185 72 -77 81 -95 43 -85 -36 9 -92
-13 -121 -47 -30 -37 -34 -106 -8 -150 28 -47 113 -83 203 -87 66 -3 81 0 130
25 76 39 113 93 118 176 5 82 -22 154 -97 255 -76 101 -153 172 -319 289 -76
53 -153 110 -173 126 -49 38 -103 45 -147 18z"/>
<path d="M885 5457 c-74 -25 -129 -59 -186 -116 -98 -99 -146 -225 -136 -363
6 -96 47 -178 124 -248 100 -91 184 -102 255 -30 32 32 38 44 38 81 0 52 -22
88 -77 129 -49 36 -68 77 -60 127 7 42 30 77 69 106 21 16 41 19 98 18 82 -2
113 12 150 66 50 73 33 174 -36 219 -35 23 -182 29 -239 11z"/>
<path d="M2980 5171 c-159 -49 -268 -275 -198 -411 50 -96 163 -133 294 -95
146 42 174 76 174 211 0 118 -19 174 -80 235 -61 61 -123 80 -190 60z"/>
<path d="M2264 4876 c-17 -8 -42 -27 -55 -43 -17 -22 -42 -35 -89 -47 -208
-56 -279 -113 -267 -214 6 -58 34 -93 86 -112 39 -14 46 -13 104 9 34 13 103
35 152 50 157 48 203 74 244 141 29 48 29 137 0 174 -42 53 -111 70 -175 42z"/>
<path d="M4745 4821 c-67 -41 -70 -50 -69 -200 0 -95 5 -156 17 -201 51 -194
164 -304 324 -317 80 -7 141 10 193 54 71 61 98 144 79 246 -28 158 -140 279
-364 396 -88 46 -133 51 -180 22z"/>
<path d="M2780 4125 c-110 -31 -179 -102 -188 -195 -11 -122 82 -226 258 -286
44 -15 83 -19 195 -18 131 0 147 2 240 33 157 52 170 61 206 139 35 74 5 163
-68 200 -62 32 -210 82 -320 108 -136 32 -252 39 -323 19z"/>
<path d="M1005 4060 c-107 -33 -147 -181 -72 -266 47 -55 80 -67 194 -74 56
-3 105 -9 109 -13 4 -4 -37 -53 -92 -110 -54 -56 -157 -164 -227 -239 -71 -76
-162 -165 -203 -199 -90 -75 -114 -111 -114 -171 0 -130 155 -198 278 -121 49
30 51 31 67 13 48 -53 149 -67 212 -30 19 11 36 20 37 18 17 -41 44 -82 59
-90 37 -19 99 -82 118 -119 45 -89 15 -254 -71 -382 -57 -85 -112 -138 -174
-169 -44 -21 -45 -21 -83 -3 -100 49 -203 -13 -203 -121 0 -59 33 -103 105
-139 53 -27 70 -30 150 -30 81 0 97 3 160 33 56 27 90 54 170 135 178 181 244
339 245 577 0 181 -45 296 -157 400 -35 33 -68 60 -73 60 -49 0 64 65 180 105
l66 22 33 -28 c40 -33 98 -45 145 -29 42 13 92 67 100 107 10 42 -11 202 -29
230 -43 65 -126 79 -223 39 -31 -13 -91 -31 -132 -40 -41 -8 -86 -19 -100 -23
-20 -5 -13 6 38 63 35 38 77 98 95 134 28 56 32 75 32 145 0 70 -4 87 -30 134
-67 121 -192 169 -485 185 -52 3 -109 1 -125 -4z"/>
<path d="M4272 3789 c-182 -28 -319 -133 -353 -273 -15 -64 -7 -162 19 -212
65 -128 247 -189 396 -133 118 44 234 189 287 361 22 72 29 109 24 134 -9 50
-61 103 -110 114 -65 15 -196 19 -263 9z m-2 -314 c-25 -27 -63 -35 -54 -11 6
15 40 34 63 35 10 1 7 -7 -9 -24z"/>
<path d="M3425 3386 c-22 -9 -58 -35 -82 -60 -51 -57 -143 -233 -143 -275 0
-49 26 -99 62 -121 49 -29 168 -28 222 3 80 45 139 170 138 294 -1 128 -88
198 -197 159z"/>
<path d="M5030 3268 c-134 -74 -236 -174 -269 -263 -41 -108 -22 -222 47 -291
54 -54 97 -69 197 -69 79 0 97 4 149 29 32 16 76 46 97 67 92 92 133 255 94
371 -17 48 -100 154 -138 175 -41 23 -117 15 -177 -19z"/>
<path d="M2177 2549 c-90 -22 -154 -70 -250 -188 -33 -42 -93 -111 -133 -153
-40 -42 -80 -91 -90 -110 -9 -18 -38 -56 -65 -84 -148 -159 -223 -371 -235
-669 -7 -154 5 -235 48 -342 62 -153 217 -322 361 -393 157 -77 449 -131 600
-110 195 28 351 119 526 307 111 120 160 189 217 308 58 122 89 223 124 395
40 202 53 333 41 410 -22 134 -97 236 -219 293 -66 32 -69 32 -217 32 -82 0
-175 -4 -206 -8 l-55 -8 -28 68 c-49 121 -125 202 -224 237 -52 19 -150 26
-195 15z m137 -511 c57 -128 167 -227 251 -228 17 0 98 14 181 31 84 18 159
29 168 26 13 -5 16 -22 16 -79 0 -210 -99 -519 -210 -653 -92 -111 -164 -176
-239 -213 -73 -36 -78 -37 -185 -37 -133 1 -198 20 -317 96 -178 115 -234 244
-194 454 29 158 110 308 208 389 24 20 52 53 63 73 10 21 40 63 65 93 26 30
66 84 90 119 l43 64 12 -29 c7 -16 29 -64 48 -106z"/>
<path d="M4015 2438 c-76 -27 -125 -91 -125 -165 0 -21 9 -72 20 -113 10 -41
18 -75 17 -77 -2 -1 -21 4 -42 12 -92 33 -183 5 -242 -73 -72 -95 -69 -177 16
-516 61 -239 80 -289 123 -315 88 -55 250 -10 308 85 20 31 26 34 69 34 115 0
213 59 257 155 34 72 32 180 -6 387 -39 204 -95 439 -114 477 -48 91 -182 143
-281 109z"/>
</g>
</svg>
