<?xml version="1.0" standalone="no"?>
<!DOCTYPE svg PUBLIC "-//W3C//DTD SVG 20010904//EN"
 "http://www.w3.org/TR/2001/REC-SVG-20010904/DTD/svg10.dtd">
<svg version="1.0" xmlns="http://www.w3.org/2000/svg"
 width="600.000000pt" height="600.000000pt" viewBox="0 0 600.000000 600.000000"
 preserveAspectRatio="xMidYMid meet">
<metadata>
Created by potrace 1.15, written by Peter Selinger 2001-2017
</metadata>
<g transform="translate(0.000000,600.000000) scale(0.100000,-0.100000)"
fill="#16364b" stroke="none">
<path d="M3004 5071 c-17 -10 -45 -36 -62 -57 -84 -101 -82 -267 3 -288 98
-25 265 194 226 296 -25 66 -102 89 -167 49z m113 -67 c7 -20 -24 -101 -56
-142 -13 -19 -41 -45 -60 -58 -44 -29 -61 -18 -61 40 0 76 58 167 120 188 19
7 49 -9 57 -28z"/>
<path d="M4771 4701 c-11 -11 -22 -39 -25 -63 -13 -98 -26 -306 -26 -412 0
-99 3 -117 21 -140 25 -32 68 -35 94 -6 15 17 19 48 26 206 5 102 13 231 19
286 11 98 11 101 -11 124 -27 29 -72 31 -98 5z"/>
<path d="M1787 4584 c-32 -10 -64 -31 -92 -60 -93 -95 -100 -200 -22 -355 52
-105 79 -201 101 -364 18 -132 42 -441 56 -735 6 -118 15 -264 20 -325 6 -60
9 -276 8 -480 -3 -359 -2 -372 20 -450 58 -206 217 -424 376 -515 71 -40 152
-67 226 -76 33 -4 62 -9 64 -13 2 -3 0 -37 -5 -76 -17 -132 19 -336 96 -553
19 -53 35 -100 35 -103 0 -3 -37 -9 -82 -13 -102 -8 -146 -28 -165 -74 -40
-96 45 -159 181 -134 86 16 162 57 197 105 39 54 39 111 -1 210 -71 179 -118
433 -105 571 l7 77 96 -6 c54 -4 199 -17 324 -31 153 -16 285 -24 408 -24
l182 0 -8 -42 c-22 -124 6 -354 62 -513 52 -146 54 -137 -46 -151 -111 -14
-124 -19 -155 -55 -46 -55 -22 -125 51 -149 66 -22 213 16 292 77 38 29 71 93
72 137 0 16 -18 84 -39 150 -47 145 -81 333 -80 442 2 128 1 127 97 140 175
25 477 106 573 154 167 83 268 210 320 405 32 117 32 309 1 423 -41 151 -110
257 -210 321 -99 63 -285 130 -506 182 -171 40 -250 65 -416 130 -363 143
-484 209 -668 363 -220 185 -433 465 -692 911 -51 88 -107 180 -126 205 -18
25 -48 70 -66 100 -42 72 -121 150 -180 179 -61 29 -139 35 -201 15z m126
-147 c41 -18 99 -82 131 -145 13 -26 32 -55 41 -62 26 -21 82 -109 175 -270
85 -149 284 -453 372 -569 80 -107 172 -204 282 -300 211 -184 303 -237 667
-387 238 -97 329 -126 569 -184 74 -18 162 -43 195 -56 33 -14 95 -39 139 -56
92 -36 146 -84 182 -163 99 -215 51 -520 -105 -675 -69 -68 -130 -98 -296
-144 -402 -111 -639 -128 -1165 -85 -140 12 -338 22 -440 24 -210 2 -250 11
-346 73 -139 90 -244 264 -291 483 -14 71 -18 141 -19 444 -2 510 -39 1195
-80 1470 -22 153 -59 286 -109 394 -25 54 -45 109 -45 122 1 33 22 69 51 85
31 17 52 17 92 1z"/>
<path d="M2533 2650 c-28 -11 -46 -45 -38 -71 4 -11 22 -27 41 -36 32 -16 36
-16 62 4 69 51 16 136 -65 103z"/>
<path d="M2970 2410 c-11 -11 -20 -28 -20 -39 0 -26 48 -71 76 -71 52 0 84 79
46 113 -25 23 -78 21 -102 -3z"/>
<path d="M5196 3960 c-127 -50 -189 -186 -156 -345 39 -189 169 -308 319 -291
176 21 316 165 329 337 4 60 1 75 -22 123 -32 65 -90 119 -176 164 -58 29 -70
32 -154 32 -65 -1 -105 -6 -140 -20z m192 -295 c10 -10 -13 -40 -33 -44 -20
-3 -45 23 -45 47 0 11 9 13 36 9 20 -3 39 -9 42 -12z"/>
<path d="M4155 3736 c-150 -71 -234 -266 -175 -405 28 -64 94 -124 162 -147
68 -22 167 -15 239 18 145 66 201 205 149 365 -53 160 -228 239 -375 169z
m118 -265 c6 -23 -10 -41 -35 -41 -22 0 -23 23 -2 44 20 21 31 20 37 -3z"/>
<path d="M5359 1110 c-25 -14 -61 -107 -66 -171 -5 -54 -4 -60 25 -88 55 -56
138 -36 179 42 10 20 16 59 17 104 1 63 -2 75 -23 97 -20 21 -34 26 -70 26
-25 0 -53 -5 -62 -10z"/>
</g>
</svg>
