<?xml version="1.0" standalone="no"?>
<!DOCTYPE svg PUBLIC "-//W3C//DTD SVG 20010904//EN"
 "http://www.w3.org/TR/2001/REC-SVG-20010904/DTD/svg10.dtd">
<svg version="1.0" xmlns="http://www.w3.org/2000/svg"
 width="600.000000pt" height="600.000000pt" viewBox="0 0 600.000000 600.000000"
 preserveAspectRatio="xMidYMid meet">
<metadata>
Created by potrace 1.15, written by Peter Selinger 2001-2017
</metadata>
<g transform="translate(0.000000,600.000000) scale(0.100000,-0.100000)"
fill="#16364b" stroke="none">
<path d="M2359 5394 c-11 -13 -14 -67 -15 -238 -1 -195 -3 -230 -23 -301 -51
-185 -127 -291 -252 -354 -34 -17 -68 -36 -75 -42 -34 -28 -2 -89 47 -89 41 0
171 80 231 142 66 66 132 192 170 323 21 73 23 98 22 301 0 192 -2 225 -17
248 -20 30 -67 36 -88 10z"/>
<path d="M3535 5255 c-36 -35 -33 -79 13 -153 67 -111 161 -192 222 -192 31 0
70 44 70 78 0 72 -119 239 -194 273 -55 25 -82 24 -111 -6z"/>
<path d="M3035 5086 c-79 -35 -145 -152 -153 -272 -4 -71 -4 -74 26 -103 41
-41 83 -41 146 0 124 82 198 245 148 325 -21 33 -76 64 -114 64 -12 -1 -36 -7
-53 -14z m75 -123 c0 -27 -56 -118 -87 -143 l-28 -22 -3 21 c-5 33 17 89 50
127 32 37 68 45 68 17z"/>
<path d="M4773 4746 c-27 -23 -28 -27 -34 -157 -22 -425 -1 -531 108 -546 55
-7 88 14 116 75 18 41 21 65 20 182 -1 154 -19 257 -65 368 -22 53 -38 76 -59
87 -39 20 -53 19 -86 -9z"/>
<path d="M2644 4221 c-37 -16 -64 -60 -64 -106 0 -56 32 -102 100 -143 157
-94 378 -89 440 10 25 39 21 91 -8 121 -10 10 -86 41 -168 68 -152 51 -257 69
-300 50z"/>
<path d="M5228 3966 c-87 -25 -160 -94 -194 -182 -24 -64 -16 -183 18 -256 58
-125 161 -198 280 -198 137 0 244 71 309 207 81 169 39 295 -134 400 -56 34
-68 37 -147 40 -50 1 -104 -3 -132 -11z m136 -299 l30 -13 -22 -22 c-29 -29
-46 -28 -61 4 -19 43 -1 54 53 31z"/>
<path d="M1268 3766 c-159 -43 -239 -193 -194 -364 37 -136 143 -235 305 -283
73 -22 135 -88 191 -203 88 -184 142 -394 166 -646 8 -85 19 -186 24 -225 16
-109 84 -371 119 -462 56 -144 153 -250 297 -325 l61 -32 -24 -34 c-33 -49
-32 -123 2 -168 50 -66 164 -78 397 -45 221 33 260 35 301 17 29 -12 37 -20
37 -41 0 -34 25 -82 49 -95 58 -31 121 11 121 80 0 60 -21 100 -81 154 l-54
49 55 -6 c30 -4 192 -11 360 -17 259 -9 326 -8 442 5 l136 16 25 -25 c27 -27
96 -42 146 -31 37 8 78 39 101 78 14 23 40 38 113 67 121 47 371 178 464 242
183 126 313 323 357 540 34 166 16 290 -65 451 -69 137 -109 196 -178 259
-112 104 -247 151 -436 151 -204 1 -312 -39 -447 -162 -157 -145 -300 -217
-517 -262 -112 -23 -161 -24 -277 -4 -384 66 -584 216 -939 705 -235 324 -394
454 -690 566 -174 65 -265 77 -367 50z m262 -315 c152 -52 183 -65 254 -114
123 -83 209 -179 396 -442 193 -270 276 -361 425 -468 173 -123 455 -221 716
-249 109 -11 124 -10 235 11 267 52 516 175 684 337 86 83 212 113 340 80 118
-30 187 -86 275 -221 72 -110 88 -165 83 -274 -5 -97 -34 -176 -98 -270 -73
-108 -162 -175 -357 -267 -335 -159 -418 -174 -1008 -181 -329 -4 -411 -2
-525 12 -214 27 -280 34 -360 34 -226 3 -395 98 -470 264 -73 162 -103 291
-130 567 -25 264 -41 357 -86 512 -109 376 -232 538 -456 602 -57 16 -118 64
-118 92 0 25 80 16 200 -25z m1228 -2287 c-8 -7 -330 -45 -336 -39 -8 8 18 13
128 28 109 15 217 21 208 11z"/>
<path d="M2292 2404 c-29 -20 -29 -64 1 -92 46 -43 107 -17 107 46 0 34 -29
62 -65 62 -11 0 -31 -7 -43 -16z"/>
<path d="M2836 2058 c-21 -30 -20 -40 5 -72 27 -34 64 -32 92 6 17 23 19 33
11 55 -8 24 -16 28 -51 31 -33 2 -44 -1 -57 -20z"/>
<path d="M4240 3756 c-114 -25 -192 -85 -237 -183 -54 -117 -39 -239 40 -329
136 -154 393 -113 495 81 25 45 27 60 27 160 0 97 -3 116 -25 160 -22 43 -34
54 -90 82 -77 37 -135 45 -210 29z m70 -285 c0 -18 -34 -51 -52 -51 -14 0 -8
33 9 52 21 24 43 23 43 -1z"/>
<path d="M3464 3371 c-56 -34 -194 -271 -194 -334 0 -31 32 -59 67 -59 19 0
36 10 56 33 75 87 177 270 177 317 0 26 -33 62 -57 62 -10 0 -32 -9 -49 -19z"/>
<path d="M468 2019 c-12 -6 -18 -22 -18 -43 0 -28 11 -43 75 -103 77 -71 179
-133 221 -133 32 0 64 34 64 68 0 46 -57 95 -208 181 -75 42 -103 48 -134 30z"/>
<path d="M5312 1087 c-51 -54 -70 -187 -35 -236 27 -36 68 -54 107 -47 66 12
106 86 106 194 0 59 -3 72 -23 90 -34 32 -125 31 -155 -1z"/>
</g>
</svg>
