<?xml version="1.0" standalone="no"?>
<!DOCTYPE svg PUBLIC "-//W3C//DTD SVG 20010904//EN"
 "http://www.w3.org/TR/2001/REC-SVG-20010904/DTD/svg10.dtd">
<svg version="1.0" xmlns="http://www.w3.org/2000/svg"
 width="600.000000pt" height="600.000000pt" viewBox="0 0 600.000000 600.000000"
 preserveAspectRatio="xMidYMid meet">
<metadata>
Created by potrace 1.15, written by Peter Selinger 2001-2017
</metadata>
<g transform="translate(0.000000,600.000000) scale(0.100000,-0.100000)"
fill="#16364b" stroke="none">
<path d="M2130 5836 c-14 -8 -82 -76 -151 -153 -207 -227 -361 -395 -409 -446
-116 -124 -144 -222 -86 -305 40 -58 94 -82 186 -82 93 0 217 41 526 173 272
117 339 151 359 181 72 109 2 258 -121 259 -41 0 -71 -11 -182 -67 -74 -37
-146 -72 -160 -77 -30 -12 -34 -17 105 131 164 175 186 223 144 316 -25 54
-74 84 -137 84 -27 -1 -60 -7 -74 -14z"/>
<path d="M3046 5670 c-68 -21 -106 -92 -86 -157 19 -59 65 -100 139 -124 238
-79 395 -180 442 -284 22 -49 25 -170 6 -218 -28 -66 -113 -124 -267 -182 -41
-16 -87 -40 -102 -53 -51 -46 -59 -122 -22 -195 21 -39 71 -67 121 -67 87 0
378 161 459 253 20 23 53 76 72 117 33 69 36 84 40 190 5 137 -6 201 -53 298
-80 167 -298 320 -574 401 -109 32 -128 35 -175 21z"/>
<path d="M942 5340 c-146 -52 -275 -178 -322 -316 -42 -122 -19 -276 60 -408
41 -67 169 -194 222 -219 48 -23 115 -22 156 3 93 57 96 182 6 258 -120 102
-154 152 -154 225 0 68 31 104 134 157 105 54 128 82 134 159 3 46 0 62 -20
91 -46 68 -117 85 -216 50z"/>
<path d="M2745 4962 c-113 -39 -208 -120 -256 -219 -35 -72 -38 -185 -8 -266
48 -129 176 -220 357 -253 87 -16 92 -16 128 2 54 27 79 66 79 122 0 83 -61
163 -134 178 -111 22 -158 55 -146 102 11 46 41 69 96 74 102 10 159 117 111
207 -36 68 -125 88 -227 53z"/>
<path d="M4816 4939 c-50 -14 -104 -60 -127 -106 -20 -41 -21 -54 -14 -155 15
-234 96 -400 230 -471 59 -32 192 -31 255 1 61 32 107 77 138 137 23 43 27 62
27 140 0 80 -3 97 -30 150 -18 36 -57 87 -97 126 -54 54 -89 77 -180 122 -121
59 -157 69 -202 56z"/>
<path d="M1940 4529 c-116 -14 -242 -87 -304 -178 -57 -81 -32 -185 54 -229
56 -29 109 -23 158 16 119 96 137 101 192 51 63 -58 136 -74 205 -45 60 25 89
100 65 170 -16 50 -107 146 -169 180 -60 32 -126 44 -201 35z"/>
<path d="M2824 3900 c-71 -16 -124 -89 -124 -169 0 -48 11 -74 48 -113 23 -25
25 -32 19 -95 -7 -89 -54 -221 -128 -360 -48 -92 -59 -122 -59 -160 0 -92 62
-149 150 -141 84 8 123 52 223 253 81 163 117 302 117 449 0 222 -106 368
-246 336z"/>
<path d="M1179 3815 c-73 -18 -255 -91 -290 -116 -38 -27 -69 -96 -69 -153 0
-62 30 -119 82 -153 35 -24 52 -28 110 -28 37 0 68 -2 68 -5 0 -3 -10 -21 -22
-40 -229 -373 -377 -687 -403 -856 -18 -120 75 -234 192 -234 67 0 103 21 214
122 56 51 170 153 253 227 138 122 259 231 374 335 23 21 45 36 49 33 11 -11
-18 -159 -54 -277 -20 -63 -62 -204 -94 -313 -66 -222 -108 -329 -180 -464
-36 -68 -49 -102 -49 -134 0 -135 183 -200 277 -98 27 30 159 302 202 419 31
82 125 409 177 615 14 55 31 118 37 140 18 61 14 269 -6 337 -40 132 -169 200
-298 157 -60 -20 -191 -116 -299 -218 -58 -55 -106 -98 -107 -97 -2 1 45 97
103 212 77 154 108 225 115 271 21 121 -28 238 -125 298 -42 26 -60 30 -125
32 -42 1 -101 -4 -132 -12z"/>
<path d="M4211 3784 c-134 -28 -231 -96 -280 -196 -80 -159 -6 -344 163 -407
161 -60 296 -24 426 115 79 85 174 273 174 347 0 81 -54 133 -155 147 -92 14
-253 11 -328 -6z m46 -309 c-29 -26 -57 -33 -57 -15 0 11 55 39 75 39 6 0 -3
-11 -18 -24z"/>
<path d="M3452 3368 c-82 -40 -149 -144 -192 -300 -25 -92 -25 -124 3 -172 35
-62 75 -78 182 -74 75 3 100 9 155 35 199 94 261 302 135 451 -65 78 -191 105
-283 60z"/>
<path d="M4875 2850 c-24 -10 -100 -88 -150 -155 -56 -73 -112 -196 -125 -273
-28 -155 53 -266 195 -266 78 -1 165 45 235 121 100 109 153 294 120 415 -10
36 -95 129 -143 155 -25 14 -102 16 -132 3z"/>
<path d="M4180 2471 c-102 -33 -160 -105 -160 -198 0 -26 12 -94 26 -151 15
-56 24 -105 21 -108 -3 -3 -34 5 -69 19 -150 60 -253 67 -341 23 -147 -72
-222 -242 -196 -447 19 -152 75 -382 109 -450 41 -79 139 -138 231 -139 86 0
155 39 191 109 36 69 36 111 -2 261 -16 65 -30 124 -30 130 0 14 33 -3 75 -38
48 -40 125 -72 175 -72 25 0 75 8 111 18 212 59 297 215 259 473 -20 140 -98
440 -125 481 -37 56 -103 90 -183 94 -37 2 -78 0 -92 -5z"/>
<path d="M2906 2259 c-135 -18 -306 -87 -542 -220 l-40 -23 -45 22 c-122 59
-277 -7 -385 -163 -34 -50 -39 -64 -39 -115 0 -49 5 -66 30 -102 36 -52 103
-88 161 -88 l42 0 16 -71 c9 -39 16 -77 16 -83 0 -6 -29 -26 -64 -44 -78 -41
-168 -132 -201 -204 -83 -183 -43 -423 106 -638 108 -156 222 -233 425 -286
129 -35 341 -39 444 -11 164 46 337 155 372 234 61 138 -46 293 -191 279 -45
-4 -68 -15 -142 -65 -154 -104 -242 -121 -386 -77 -104 33 -216 145 -268 268
-30 74 -11 157 33 141 32 -12 97 -57 143 -99 78 -71 148 -80 234 -30 79 47
117 165 80 252 -8 19 -39 60 -70 91 -69 70 -117 165 -150 297 -32 128 -32 132
8 145 18 6 98 47 178 91 134 75 211 110 274 126 24 6 26 5 19 -22 -25 -105
-113 -348 -160 -445 -48 -98 -56 -122 -56 -171 0 -177 203 -259 324 -131 48
50 179 363 273 653 36 108 41 253 12 312 -46 91 -154 159 -282 178 -78 11 -74
11 -169 -1z"/>
</g>
</svg>
