<?xml version="1.0" standalone="no"?>
<!DOCTYPE svg PUBLIC "-//W3C//DTD SVG 20010904//EN"
 "http://www.w3.org/TR/2001/REC-SVG-20010904/DTD/svg10.dtd">
<svg version="1.0" xmlns="http://www.w3.org/2000/svg"
 width="600.000000pt" height="600.000000pt" viewBox="0 0 600.000000 600.000000"
 preserveAspectRatio="xMidYMid meet">
<metadata>
Created by potrace 1.15, written by Peter Selinger 2001-2017
</metadata>
<g transform="translate(0.000000,600.000000) scale(0.100000,-0.100000)"
fill="#16364b" stroke="none">
<path d="M1857 4766 c-65 -24 -120 -74 -153 -138 -32 -63 -33 -173 -3 -256 48
-130 69 -252 89 -512 5 -80 18 -233 27 -340 18 -210 20 -335 14 -990 -4 -509
10 -730 48 -761 13 -10 43 -57 67 -105 83 -164 188 -282 315 -357 64 -37 186
-81 258 -93 l38 -6 -5 -132 c-3 -97 0 -158 12 -231 18 -104 57 -254 82 -313
23 -57 20 -62 -40 -62 -80 0 -157 -18 -183 -42 -31 -29 -40 -81 -19 -113 28
-43 60 -57 128 -56 114 1 208 43 257 116 39 58 38 104 -8 245 -63 196 -75 260
-76 400 0 69 4 138 8 154 7 25 11 28 40 22 92 -18 333 -25 624 -20 l322 7 -11
-44 c-24 -103 4 -271 98 -606 10 -34 16 -65 13 -67 -3 -3 -43 -8 -89 -11 -121
-9 -170 -41 -170 -113 0 -42 34 -77 91 -92 57 -16 178 7 237 44 94 59 114 140
67 277 -85 248 -121 461 -95 567 13 58 5 54 135 72 44 6 156 29 249 51 219 50
311 93 406 188 113 114 167 249 177 446 6 132 -16 244 -72 355 -30 61 -34 73
-23 91 12 19 8 25 -42 71 -95 85 -257 186 -480 296 -118 58 -260 132 -315 163
-55 31 -170 90 -255 130 -272 128 -367 184 -517 306 -176 142 -305 299 -429
520 -42 76 -123 219 -180 318 -135 237 -166 293 -220 398 -82 161 -169 228
-304 234 -48 2 -89 -2 -113 -11z m164 -162 c39 -19 83 -75 113 -140 15 -33 31
-66 36 -74 93 -148 272 -453 320 -545 174 -332 288 -483 489 -643 135 -108
245 -174 526 -315 138 -70 281 -147 320 -173 66 -44 156 -91 415 -217 94 -46
134 -72 215 -145 108 -96 139 -141 174 -256 71 -231 -35 -527 -222 -619 -112
-55 -409 -119 -627 -136 -219 -17 -692 -24 -820 -12 -63 6 -178 16 -255 21
-76 6 -169 17 -205 24 -195 41 -340 171 -419 376 -72 185 -91 399 -96 1059 -3
278 -9 548 -15 600 -6 53 -15 206 -20 341 -13 329 -40 509 -95 640 -32 76 -33
136 -2 181 37 55 100 67 168 33z"/>
<path d="M2578 2679 c-30 -17 -40 -46 -27 -71 39 -73 129 -59 129 20 0 49 -57
78 -102 51z"/>
<path d="M3016 2487 c-30 -22 -18 -77 22 -100 30 -18 34 -18 57 -3 55 36 35
116 -28 116 -18 0 -41 -6 -51 -13z"/>
<path d="M5225 3966 c-138 -44 -219 -151 -218 -291 1 -153 98 -285 243 -331
140 -44 337 52 411 201 79 161 14 321 -164 406 -54 25 -73 29 -147 28 -47 0
-103 -6 -125 -13z m139 -276 c32 -12 25 -37 -12 -47 -18 -4 -29 -1 -39 12 -29
41 -6 57 51 35z"/>
<path d="M5375 1116 c-46 -20 -92 -140 -79 -205 8 -38 56 -81 90 -81 71 0 121
67 131 173 5 56 3 66 -18 90 -29 33 -81 43 -124 23z"/>
</g>
</svg>
