<?xml version="1.0" standalone="no"?>
<!DOCTYPE svg PUBLIC "-//W3C//DTD SVG 20010904//EN"
 "http://www.w3.org/TR/2001/REC-SVG-20010904/DTD/svg10.dtd">
<svg version="1.0" xmlns="http://www.w3.org/2000/svg"
 width="600.000000pt" height="600.000000pt" viewBox="0 0 600.000000 600.000000"
 preserveAspectRatio="xMidYMid meet">
<metadata>
Created by potrace 1.15, written by Peter Selinger 2001-2017
</metadata>
<g transform="translate(0.000000,600.000000) scale(0.100000,-0.100000)"
fill="#16364b" stroke="none">
<path d="M3024 5070 c-66 -27 -135 -145 -136 -233 -1 -86 31 -117 106 -103 51
10 139 100 165 171 12 30 21 65 21 76 0 28 -27 77 -49 89 -23 12 -77 12 -107
0z m94 -87 c5 -53 -53 -146 -115 -185 -35 -21 -36 -21 -50 -2 -46 61 54 230
131 222 27 -3 31 -7 34 -35z"/>
<path d="M1775 4590 c-142 -73 -194 -233 -124 -380 48 -100 66 -159 93 -303
44 -236 45 -249 83 -822 10 -162 17 -405 18 -645 1 -323 4 -401 19 -485 68
-379 155 -537 351 -635 80 -40 250 -90 309 -90 17 0 36 -4 41 -8 6 -4 10 -77
10 -182 0 -190 11 -265 65 -442 17 -53 30 -103 30 -110 0 -11 -24 -17 -94 -25
-107 -11 -141 -28 -162 -79 -31 -73 28 -134 130 -134 97 0 244 70 277 133 31
57 29 88 -12 207 -68 197 -83 274 -83 453 -1 172 3 184 54 171 37 -9 290 -21
608 -30 l283 -7 -6 -76 c-11 -134 26 -333 97 -525 47 -123 45 -130 -34 -120
-115 15 -188 -22 -188 -95 0 -74 57 -115 160 -115 129 0 235 63 260 152 14 53
8 82 -36 189 -65 158 -111 387 -101 501 7 84 14 101 41 106 601 114 712 151
842 281 80 80 123 159 150 271 22 96 14 300 -16 404 -60 205 -139 297 -340
397 -134 67 -168 79 -390 143 -200 58 -499 179 -740 300 -204 102 -424 276
-571 450 -71 85 -138 190 -234 370 -86 163 -225 384 -321 510 -27 36 -56 79
-64 95 -26 50 -116 139 -166 165 -68 34 -182 39 -239 10z m182 -159 c22 -16
58 -58 78 -93 21 -35 52 -79 70 -98 88 -95 211 -285 330 -510 154 -290 230
-391 420 -560 249 -223 401 -315 745 -451 85 -34 175 -71 200 -84 45 -22 123
-49 370 -125 173 -54 385 -155 428 -204 88 -100 144 -309 123 -460 -18 -126
-55 -200 -140 -279 -72 -68 -150 -100 -346 -146 -370 -85 -460 -92 -965 -74
-583 20 -735 30 -825 53 -239 63 -337 166 -399 420 -48 197 -54 295 -46 760 2
155 -2 318 -13 480 -10 135 -22 316 -27 402 -22 336 -84 656 -156 800 -35 69
-33 131 5 169 40 40 93 40 148 0z"/>
<path d="M2540 2640 c-27 -27 -25 -49 7 -82 26 -27 57 -35 79 -20 15 10 34 47
34 66 0 26 -38 56 -70 56 -17 0 -39 -9 -50 -20z"/>
<path d="M3020 2433 c-51 -20 -65 -68 -28 -103 31 -28 72 -26 97 6 24 30 26
53 9 77 -15 18 -55 29 -78 20z"/>
<path d="M5247 3969 c-194 -46 -269 -252 -171 -470 31 -68 104 -141 161 -160
21 -6 66 -10 107 -7 175 12 326 157 342 329 12 124 -45 223 -164 287 -56 29
-68 32 -149 31 -48 -1 -105 -5 -126 -10z m149 -302 c8 -8 -7 -33 -28 -46 -19
-12 -23 -11 -35 5 -7 10 -13 27 -13 37 0 17 5 19 36 14 20 -3 38 -8 40 -10z"/>
<path d="M4152 3731 c-70 -24 -118 -65 -155 -130 -26 -45 -31 -68 -35 -137 -4
-71 -1 -89 20 -135 51 -110 135 -164 258 -163 128 0 230 66 283 182 49 109 14
274 -71 339 -81 62 -199 79 -300 44z m121 -261 c5 -20 -15 -50 -34 -50 -19 0
-21 31 -4 50 23 25 31 25 38 0z"/>
<path d="M5308 1100 c-54 -42 -79 -171 -45 -224 25 -38 72 -59 115 -51 52 10
88 51 102 119 23 114 -11 176 -98 176 -34 0 -57 -6 -74 -20z"/>
</g>
</svg>
