<?xml version="1.0" standalone="no"?>
<!DOCTYPE svg PUBLIC "-//W3C//DTD SVG 20010904//EN"
 "http://www.w3.org/TR/2001/REC-SVG-20010904/DTD/svg10.dtd">
<svg version="1.0" xmlns="http://www.w3.org/2000/svg"
 width="600.000000pt" height="600.000000pt" viewBox="0 0 600.000000 600.000000"
 preserveAspectRatio="xMidYMid meet">
<metadata>
Created by potrace 1.15, written by Peter Selinger 2001-2017
</metadata>
<g transform="translate(0.000000,600.000000) scale(0.100000,-0.100000)"
fill="#16364b" stroke="none">
<path d="M2545 5497 c-72 -40 -152 -199 -162 -319 -5 -59 -3 -74 21 -123 48
-98 125 -136 271 -136 50 0 137 9 195 20 58 11 107 18 109 15 2 -2 -27 -38
-65 -79 -187 -206 -286 -341 -394 -535 -63 -114 -73 -170 -41 -240 11 -25 26
-52 33 -61 32 -39 46 -40 505 -42 496 -2 481 -4 523 65 36 60 17 143 -43 182
-34 23 -150 35 -409 43 -141 4 -228 10 -228 16 0 24 173 240 330 410 105 116
158 208 167 291 19 180 -157 286 -412 248 -38 -6 -107 -16 -152 -23 -45 -7
-85 -10 -88 -7 -4 3 10 37 29 74 50 94 45 166 -16 208 -34 24 -124 21 -173 -7z"/>
<path d="M1670 5112 c-178 -59 -416 -232 -551 -399 -108 -135 -122 -205 -57
-279 51 -57 55 -58 283 -59 254 -1 270 -5 279 -72 3 -25 6 -73 6 -107 1 -104
46 -173 128 -196 74 -20 159 28 180 101 11 40 -1 277 -17 327 -16 52 -57 117
-93 148 -47 39 -145 83 -217 96 -33 6 -61 15 -61 20 0 16 151 106 208 123 96
30 138 83 130 167 -8 75 -61 134 -128 143 -20 3 -59 -3 -90 -13z"/>
<path d="M4259 4749 c-101 -15 -275 -94 -388 -177 -97 -71 -86 -214 19 -256
58 -23 81 -20 152 19 109 61 207 105 250 111 l41 7 -6 -44 c-11 -84 -86 -262
-186 -444 -81 -147 -81 -180 4 -280 72 -84 81 -86 305 -50 119 19 331 18 351
-2 15 -15 -33 -209 -107 -431 -30 -90 -54 -177 -54 -193 0 -136 199 -187 276
-72 25 37 109 296 150 458 38 152 40 319 6 384 -32 59 -75 99 -141 130 -55 25
-61 26 -262 26 l-205 0 36 80 c107 231 153 442 120 554 -24 86 -110 160 -208
180 -59 12 -72 12 -153 0z"/>
<path d="M2005 3984 c-84 -35 -290 -98 -419 -129 -60 -14 -122 -35 -137 -46
-64 -45 -88 -138 -52 -199 22 -37 82 -70 128 -70 81 0 402 90 608 170 109 43
156 128 118 214 -37 84 -132 107 -246 60z"/>
<path d="M3730 3665 c-25 -7 -65 -21 -90 -32 -72 -32 -257 -161 -286 -199 -36
-46 -42 -116 -16 -164 50 -92 149 -106 244 -33 66 51 160 110 193 123 31 12
32 3 6 -71 -21 -61 -78 -176 -145 -293 -39 -69 -52 -82 -98 -105 -74 -37 -101
-80 -96 -151 6 -91 57 -142 148 -148 51 -4 65 0 156 46 54 27 144 69 199 92
167 70 252 119 295 167 104 119 48 284 -99 287 -25 1 -57 -3 -70 -8 -21 -7
-23 -6 -16 10 28 66 47 159 48 229 1 71 -2 86 -27 132 -61 110 -204 159 -346
118z"/>
<path d="M2375 3450 c-120 -24 -276 -75 -309 -101 -83 -66 -71 -202 24 -265
50 -33 82 -30 250 20 128 39 242 56 253 39 9 -14 -27 -158 -62 -250 -44 -117
-45 -121 -26 -169 40 -105 157 -136 240 -63 38 34 110 188 145 314 27 96 33
250 11 305 -53 134 -155 191 -340 189 -53 0 -136 -9 -186 -19z"/>
<path d="M1127 3120 c-38 -16 -83 -40 -102 -54 -80 -61 -99 -188 -39 -264 37
-46 106 -82 156 -82 l37 0 -5 -97 c-3 -54 -12 -163 -20 -242 -26 -264 -12
-496 36 -591 41 -80 121 -121 196 -101 48 13 110 71 119 111 4 16 22 41 41 55
20 15 56 59 81 99 70 109 261 373 311 430 69 78 72 76 72 -61 0 -192 -16 -294
-89 -581 -25 -97 -19 -138 29 -190 73 -80 204 -82 259 -3 79 112 151 752 110
977 -12 67 -58 160 -97 197 -82 77 -193 90 -302 35 -82 -41 -193 -147 -290
-277 -41 -55 -78 -100 -82 -101 -4 0 -4 21 0 48 4 26 7 146 7 267 0 205 -2
224 -22 275 -66 162 -234 224 -406 150z"/>
<path d="M4839 2766 c-117 -42 -179 -122 -182 -235 l-2 -55 -133 -38 c-308
-88 -451 -220 -484 -447 -21 -142 21 -328 104 -466 l40 -67 -49 -43 c-55 -49
-45 -50 -218 18 -267 105 -408 81 -659 -108 -96 -72 -171 -154 -252 -278 -36
-53 -69 -97 -73 -97 -5 0 -36 -25 -70 -55 -94 -84 -132 -85 -210 -7 -81 81
-162 253 -191 404 -14 74 -44 117 -100 146 -85 44 -186 12 -238 -76 -23 -41
-27 -57 -26 -122 3 -188 160 -522 309 -658 68 -62 135 -96 234 -118 143 -32
293 10 443 123 36 28 81 56 100 62 51 17 87 56 158 171 117 190 249 302 333
285 18 -4 79 -25 136 -47 136 -52 229 -71 310 -64 157 14 330 156 331 272 0
29 4 33 45 44 56 16 122 72 146 124 20 45 24 122 9 177 -5 19 -31 60 -56 90
-59 67 -94 141 -94 196 0 41 0 42 55 62 31 12 60 21 66 21 32 0 218 54 262 76
113 56 185 140 228 265 17 50 22 88 23 174 1 100 -2 115 -26 166 -15 30 -40
64 -55 75 -60 44 -143 55 -214 30z"/>
<path d="M3154 2465 c-191 -28 -491 -104 -538 -136 -80 -54 -101 -186 -42
-263 70 -93 139 -106 311 -63 168 43 427 99 432 93 3 -3 -2 -26 -11 -52 -41
-120 -1 -214 107 -250 101 -34 205 4 246 89 67 138 77 305 25 412 -77 156
-248 211 -530 170z"/>
</g>
</svg>
