<?xml version="1.0" standalone="no"?>
<!DOCTYPE svg PUBLIC "-//W3C//DTD SVG 20010904//EN"
 "http://www.w3.org/TR/2001/REC-SVG-20010904/DTD/svg10.dtd">
<svg version="1.0" xmlns="http://www.w3.org/2000/svg"
 width="600.000000pt" height="600.000000pt" viewBox="0 0 600.000000 600.000000"
 preserveAspectRatio="xMidYMid meet">
<metadata>
Created by potrace 1.15, written by Peter Selinger 2001-2017
</metadata>
<g transform="translate(0.000000,600.000000) scale(0.100000,-0.100000)"
fill="#16364b" stroke="none">
<path d="M3113 5639 c-49 -24 -66 -47 -86 -117 -54 -179 -12 -361 103 -452 21
-17 67 -43 102 -59 57 -25 91 -36 226 -71 23 -6 40 -15 36 -21 -3 -5 -92 -53
-197 -106 -297 -148 -431 -244 -463 -331 -10 -26 -27 -60 -38 -76 -30 -44 -34
-126 -8 -168 53 -85 126 -111 372 -128 74 -5 174 -15 223 -22 83 -11 89 -11
133 10 55 27 90 92 80 148 -8 39 -47 89 -85 109 -27 13 -211 45 -267 45 -89 1
-28 47 233 179 235 119 352 208 389 296 20 48 18 119 -5 163 -47 90 -140 142
-355 196 -76 20 -149 42 -162 51 -36 23 -40 59 -16 141 27 89 27 98 3 151 -35
76 -133 104 -218 62z"/>
<path d="M1353 5385 c-87 -37 -211 -141 -280 -233 -123 -163 -204 -416 -207
-647 -1 -100 1 -113 22 -143 34 -47 75 -65 134 -60 89 9 131 74 143 221 7 78
13 89 35 62 26 -31 84 -39 149 -21 113 32 201 45 201 31 0 -7 -18 -55 -39
-107 -88 -211 -91 -309 -14 -432 16 -25 16 -29 3 -37 -8 -5 -39 -24 -69 -42
-75 -44 -94 -74 -99 -150 -3 -52 0 -67 20 -96 12 -19 39 -43 58 -53 61 -33
106 -21 285 76 88 47 194 100 235 116 117 47 134 58 164 103 64 98 -2 227
-117 227 -18 0 -62 -10 -96 -21 l-64 -22 -18 24 c-27 34 -24 66 17 176 58 158
74 223 74 300 0 154 -88 255 -241 278 -57 8 -164 -7 -287 -42 -51 -14 -95 -23
-98 -20 -21 21 106 174 196 236 70 48 100 91 100 146 0 104 -110 173 -207 130z"/>
<path d="M4560 4500 c-171 -27 -176 -28 -211 -57 -85 -72 -76 -194 18 -238 37
-18 90 -18 241 1 34 5 52 3 52 -4 0 -10 -133 -171 -247 -301 -48 -54 -48 -54
-48 -126 0 -63 3 -76 27 -107 17 -22 46 -43 73 -54 66 -25 107 -10 176 64 190
203 347 409 382 500 21 52 22 151 3 196 -21 50 -72 102 -119 121 -63 26 -199
28 -347 5z"/>
<path d="M3892 3694 c-36 -8 -89 -66 -102 -112 -26 -84 19 -161 165 -280 122
-100 179 -132 235 -132 157 0 206 201 67 275 -35 19 -37 22 -32 56 7 41 -11
94 -42 122 -53 46 -217 87 -291 71z"/>
<path d="M2520 3649 c-180 -49 -342 -120 -375 -166 -28 -39 -28 -131 1 -169
32 -44 68 -66 117 -71 40 -5 59 1 161 51 111 55 217 88 233 73 21 -22 -66
-278 -149 -439 -22 -43 -75 -132 -119 -198 -44 -67 -86 -135 -95 -152 -21 -40
-14 -106 15 -146 12 -17 24 -44 27 -60 8 -40 58 -98 104 -122 78 -40 100 -38
316 34 110 36 203 66 207 66 24 0 -31 -145 -130 -345 -62 -125 -64 -133 -61
-192 4 -69 23 -103 78 -140 70 -48 156 -38 218 26 47 48 222 393 262 518 75
235 55 386 -61 470 -51 36 -139 63 -209 63 -54 0 -185 -23 -255 -44 -27 -8
-51 -14 -52 -12 -2 2 11 30 30 62 120 214 189 423 191 579 1 78 -3 98 -25 146
-35 74 -88 132 -152 163 -64 33 -167 34 -277 5z"/>
<path d="M1137 3450 c-55 -14 -174 -71 -270 -129 -105 -63 -131 -104 -125
-191 9 -130 138 -203 273 -155 21 8 40 13 41 12 2 -1 -13 -55 -31 -120 -19
-65 -62 -233 -95 -375 -73 -310 -67 -278 -80 -386 -21 -169 25 -242 176 -282
117 -30 148 -16 248 112 42 55 160 214 262 354 103 140 205 277 227 304 40 47
41 48 50 25 17 -46 -11 -242 -88 -604 -79 -377 -81 -528 -9 -634 47 -69 125
-91 200 -55 70 33 104 137 68 206 -21 40 -15 97 32 294 78 332 106 493 120
689 8 116 -10 355 -32 433 -29 104 -131 172 -229 153 -120 -23 -215 -125 -495
-529 -24 -34 -45 -60 -47 -58 -2 2 25 106 61 230 77 267 89 330 84 434 -5 114
-51 193 -145 249 -48 28 -134 38 -196 23z"/>
<path d="M4523 3341 c-73 -33 -94 -118 -50 -196 19 -34 41 -49 162 -113 77
-40 149 -81 159 -92 18 -18 18 -21 3 -62 -9 -24 -48 -92 -87 -152 -56 -88 -70
-117 -70 -149 0 -111 125 -191 220 -142 35 18 137 166 186 269 140 297 51 473
-309 612 -126 49 -154 52 -214 25z"/>
<path d="M3693 3210 c-197 -46 -383 -322 -296 -438 31 -41 80 -66 133 -66 62
0 109 29 140 86 23 42 27 45 50 36 14 -5 59 -8 101 -6 95 6 157 38 193 101 68
119 21 244 -106 282 -54 16 -160 18 -215 5z"/>
<path d="M4572 2243 c-44 -21 -96 -84 -110 -132 -7 -21 -12 -61 -12 -90 l0
-51 -37 0 c-21 0 -66 5 -101 10 -121 20 -276 28 -342 18 -179 -28 -316 -168
-349 -358 -10 -60 -31 -346 -31 -432 0 -27 -6 -40 -20 -48 -17 -9 -30 -3 -88
43 -91 73 -307 200 -406 238 -67 27 -95 32 -166 33 -76 1 -91 -2 -140 -29 -72
-40 -114 -97 -147 -203 l-27 -87 -13 55 c-7 30 -24 127 -37 215 -28 178 -50
269 -71 302 -8 12 -31 34 -52 50 -31 24 -46 28 -97 28 -76 0 -128 -24 -167
-78 -44 -60 -53 -106 -35 -175 8 -31 28 -136 45 -233 92 -529 197 -709 455
-784 153 -45 266 39 266 196 0 49 10 95 46 201 25 76 50 138 55 138 14 0 177
-124 235 -180 119 -114 214 -160 329 -160 146 0 291 90 312 193 4 21 18 34 54
53 54 27 104 87 119 143 5 20 14 119 19 220 6 101 12 186 15 189 3 2 75 -3
160 -13 266 -32 433 -2 539 95 99 91 143 210 134 370 -8 146 -43 209 -142 256
-60 28 -144 32 -193 7z"/>
</g>
</svg>
