<?xml version="1.0" standalone="no"?>
<!DOCTYPE svg PUBLIC "-//W3C//DTD SVG 20010904//EN"
 "http://www.w3.org/TR/2001/REC-SVG-20010904/DTD/svg10.dtd">
<svg version="1.0" xmlns="http://www.w3.org/2000/svg"
 width="600.000000pt" height="600.000000pt" viewBox="0 0 600.000000 600.000000"
 preserveAspectRatio="xMidYMid meet">
<metadata>
Created by potrace 1.15, written by Peter Selinger 2001-2017
</metadata>
<g transform="translate(0.000000,600.000000) scale(0.100000,-0.100000)"
fill="#16364b" stroke="none">
<path d="M1521 5773 c-50 -35 -337 -296 -358 -326 -30 -41 -31 -105 -3 -140
53 -67 134 -55 475 70 182 66 210 89 202 162 -7 65 -44 95 -106 88 -25 -2 -55
-8 -66 -13 -19 -8 -19 -7 -2 19 44 67 -1 157 -80 157 -21 0 -49 -7 -62 -17z"/>
<path d="M2359 5411 c-27 -28 -29 -34 -29 -112 0 -127 -20 -304 -45 -405 -45
-176 -112 -274 -235 -338 -39 -21 -77 -48 -86 -61 -33 -50 -10 -136 39 -149
45 -12 77 -5 148 32 141 71 252 209 309 382 54 167 89 546 57 623 -27 63 -108
78 -158 28z"/>
<path d="M3533 5315 c-33 -14 -73 -77 -73 -114 0 -46 43 -133 92 -187 68 -74
138 -114 201 -114 152 0 169 173 33 327 -43 49 -78 70 -151 89 -61 17 -62 17
-102 -1z"/>
<path d="M2997 5136 c-118 -43 -205 -188 -195 -327 5 -66 25 -100 78 -136 48
-33 112 -31 187 7 97 48 129 86 149 176 31 140 5 230 -76 272 -50 25 -88 27
-143 8z"/>
<path d="M4780 4762 c-79 -21 -95 -56 -86 -193 16 -260 114 -460 249 -505 149
-50 291 111 258 291 -23 123 -113 235 -283 352 -71 49 -108 64 -138 55z"/>
<path d="M2629 4207 c-124 -66 -143 -231 -40 -349 126 -142 380 -121 554 45
81 79 89 143 24 213 -33 35 -40 38 -227 90 -120 33 -250 33 -311 1z"/>
<path d="M1084 4104 c-61 -30 -82 -109 -44 -171 23 -38 36 -46 137 -78 87 -28
111 -40 100 -52 -14 -13 -140 -16 -209 -3 -62 11 -72 10 -105 -7 -106 -55 -86
-198 33 -232 78 -23 212 -34 283 -23 217 32 345 203 270 359 -39 80 -161 158
-320 202 -89 25 -104 25 -145 5z"/>
<path d="M4245 3776 c-168 -41 -302 -184 -313 -337 -15 -209 242 -343 456
-237 107 54 194 203 215 369 17 138 -9 176 -139 204 -82 17 -151 18 -219 1z
m11 -313 c-15 -13 -31 -21 -36 -18 -15 9 0 35 29 49 37 20 41 -1 7 -31z"/>
<path d="M5180 3701 c-77 -25 -113 -45 -156 -89 -108 -109 -119 -286 -26 -421
141 -205 417 -171 534 66 27 55 32 76 32 141 1 104 -31 170 -117 245 -34 30
-72 59 -84 66 -32 16 -120 13 -183 -8z m82 -323 c-18 -18 -24 -20 -34 -9 -11
10 -8 16 11 32 34 28 54 8 23 -23z"/>
<path d="M1654 3686 c-53 -24 -64 -49 -64 -152 0 -161 51 -276 138 -310 41
-16 45 -16 89 2 65 27 86 67 80 160 -5 92 -51 194 -115 257 -54 52 -84 62
-128 43z"/>
<path d="M3444 3370 c-36 -14 -75 -71 -137 -197 -58 -118 -60 -124 -49 -162
23 -75 84 -90 169 -41 89 51 163 175 166 281 4 95 -68 152 -149 119z"/>
<path d="M2120 3054 c-14 -2 -65 -9 -115 -15 -377 -46 -699 -214 -866 -452
-72 -103 -94 -177 -94 -317 1 -131 19 -199 86 -331 57 -109 119 -173 274 -280
157 -107 221 -172 296 -296 75 -125 181 -228 290 -282 121 -59 193 -76 329
-75 139 0 234 22 425 99 71 29 141 56 155 59 136 38 415 138 492 177 235 116
513 346 585 484 56 109 103 305 103 437 0 150 -103 316 -266 429 -136 93 -522
224 -724 245 -36 3 -155 26 -265 50 -274 59 -389 74 -546 73 -74 -1 -145 -3
-159 -5z m565 -413 c55 -11 172 -41 260 -66 88 -25 180 -48 205 -51 55 -7 365
-106 420 -134 94 -48 156 -127 147 -190 -18 -138 -157 -304 -354 -423 -137
-82 -433 -202 -573 -232 -19 -4 -69 -24 -110 -45 -165 -83 -315 -119 -413
-101 -100 18 -155 58 -242 171 -146 193 -278 326 -438 440 -132 94 -164 149
-154 265 8 112 80 209 192 261 57 26 336 97 470 119 135 22 458 14 590 -14z"/>
<path d="M433 2190 c-21 -12 -36 -32 -44 -58 -10 -35 -8 -46 28 -134 93 -226
215 -397 318 -444 104 -49 207 -27 263 56 20 29 23 45 20 95 -10 160 -166 328
-434 464 -91 47 -106 49 -151 21z"/>
<path d="M4725 1685 c-16 -9 -35 -23 -41 -31 -9 -11 -17 -12 -38 -4 -65 24
-143 -3 -174 -60 -29 -55 8 -293 63 -399 40 -79 88 -111 168 -111 110 0 188
124 218 346 16 119 9 187 -22 220 -47 52 -118 67 -174 39z"/>
</g>
</svg>
