<?xml version="1.0" standalone="no"?>
<!DOCTYPE svg PUBLIC "-//W3C//DTD SVG 20010904//EN"
 "http://www.w3.org/TR/2001/REC-SVG-20010904/DTD/svg10.dtd">
<svg version="1.0" xmlns="http://www.w3.org/2000/svg"
 width="600.000000pt" height="600.000000pt" viewBox="0 0 600.000000 600.000000"
 preserveAspectRatio="xMidYMid meet">
<metadata>
Created by potrace 1.15, written by Peter Selinger 2001-2017
</metadata>
<g transform="translate(0.000000,600.000000) scale(0.100000,-0.100000)"
fill="#16364b" stroke="none">
<path d="M2381 5401 c-20 -20 -21 -33 -21 -188 0 -203 -19 -352 -56 -453 -23
-61 -39 -86 -88 -135 -37 -36 -88 -74 -129 -94 -76 -38 -102 -68 -93 -105 17
-68 67 -72 179 -14 158 81 248 206 287 398 13 60 24 178 31 324 11 221 11 229
-8 255 -26 34 -74 40 -102 12z"/>
<path d="M3547 5280 c-22 -14 -47 -63 -47 -93 0 -37 56 -141 108 -198 46 -52
108 -88 149 -89 29 0 79 44 87 76 16 61 -80 225 -163 280 -44 29 -107 40 -134
24z"/>
<path d="M3002 5079 c-118 -59 -186 -224 -133 -327 35 -68 104 -80 187 -33
157 91 219 307 104 366 -41 21 -108 19 -158 -6z m88 -124 c0 -24 -46 -91 -79
-115 l-31 -21 0 21 c0 30 36 96 62 114 28 20 48 20 48 1z"/>
<path d="M4774 4756 c-52 -23 -57 -51 -51 -278 3 -154 9 -216 22 -258 34 -110
76 -150 156 -150 35 0 47 6 74 35 90 95 68 349 -48 554 -55 97 -94 122 -153
97z"/>
<path d="M2645 4211 c-99 -45 -100 -169 -2 -241 78 -57 139 -74 272 -74 109
-1 125 1 170 24 89 45 109 126 46 186 -45 42 -310 124 -400 124 -25 0 -64 -9
-86 -19z"/>
<path d="M5262 3989 c-58 -11 -137 -56 -165 -93 -46 -60 -60 -117 -55 -218 6
-116 33 -189 95 -258 67 -74 110 -94 208 -94 65 0 90 4 136 26 76 35 129 85
169 160 28 53 35 76 38 143 7 130 -33 198 -166 288 -29 20 -68 39 -85 41 -75
11 -135 13 -175 5z m112 -309 c33 -12 33 -25 0 -47 -25 -16 -27 -16 -40 2 -18
25 -18 55 0 55 8 0 26 -4 40 -10z"/>
<path d="M4222 3749 c-62 -12 -138 -57 -182 -106 -56 -64 -82 -126 -88 -208
-8 -118 45 -206 160 -267 36 -19 58 -23 133 -23 78 0 97 4 140 27 132 69 207
218 190 377 -13 121 -41 157 -152 191 -68 21 -128 24 -201 9z m58 -286 c0 -20
-28 -53 -47 -53 -21 0 -15 37 9 54 29 20 38 20 38 -1z"/>
<path d="M1129 3564 c-103 -31 -194 -121 -220 -217 -6 -23 -9 -72 -6 -109 13
-184 160 -319 430 -393 78 -21 137 -76 182 -169 53 -110 162 -502 205 -736 63
-342 143 -508 311 -643 62 -50 199 -112 300 -137 122 -30 434 -40 1129 -36
542 3 593 5 700 24 180 33 341 92 550 200 133 69 182 103 247 170 70 71 106
125 159 237 71 150 87 223 87 405 0 126 -4 169 -21 232 -97 355 -428 582 -772
529 -186 -29 -301 -82 -598 -274 -117 -77 -220 -130 -277 -146 -263 -70 -468
-3 -955 314 -140 91 -205 142 -325 250 -280 255 -440 357 -705 448 -197 68
-319 83 -421 51z m316 -349 c192 -58 273 -106 475 -280 415 -359 823 -626
1083 -709 202 -65 408 -79 587 -38 124 28 214 74 440 223 211 139 278 173 379
194 157 33 288 -17 387 -148 62 -82 87 -166 87 -292 0 -172 -67 -352 -162
-436 -96 -85 -403 -214 -641 -270 -82 -20 -124 -23 -315 -23 -194 -1 -903 -1
-1195 0 -332 1 -462 133 -530 539 -33 192 -88 417 -145 592 -131 398 -247 533
-512 593 -89 21 -152 51 -161 78 -8 25 102 13 223 -23z"/>
<path d="M2250 2373 c-40 -15 -42 -82 -4 -112 33 -26 56 -27 77 -3 30 33 31
69 3 96 -24 25 -45 30 -76 19z"/>
<path d="M2850 2055 c-22 -27 -15 -67 16 -92 36 -28 58 -29 84 -3 25 25 26 72
2 93 -23 21 -85 22 -102 2z"/>
<path d="M3448 3341 c-33 -27 -158 -270 -158 -309 0 -40 23 -62 64 -62 27 0
42 10 83 53 54 57 118 177 128 242 13 77 -57 122 -117 76z"/>
<path d="M503 2030 c-24 -10 -43 -39 -43 -67 0 -27 152 -177 204 -203 93 -45
176 -17 176 58 0 51 -68 112 -184 167 -108 52 -124 56 -153 45z"/>
<path d="M5322 1087 c-30 -32 -52 -100 -52 -164 0 -47 4 -59 29 -84 23 -22 39
-29 69 -29 76 0 122 75 122 197 0 49 -4 63 -23 81 -33 32 -115 31 -145 -1z"/>
</g>
</svg>
