<?xml version="1.0" standalone="no"?>
<!DOCTYPE svg PUBLIC "-//W3C//DTD SVG 20010904//EN"
 "http://www.w3.org/TR/2001/REC-SVG-20010904/DTD/svg10.dtd">
<svg version="1.0" xmlns="http://www.w3.org/2000/svg"
 width="600.000000pt" height="600.000000pt" viewBox="0 0 600.000000 600.000000"
 preserveAspectRatio="xMidYMid meet">
<metadata>
Created by potrace 1.15, written by Peter Selinger 2001-2017
</metadata>
<g transform="translate(0.000000,600.000000) scale(0.100000,-0.100000)"
fill="#16364b" stroke="none">
<path d="M2362 5400 c-21 -20 -21 -27 -20 -223 2 -227 -8 -287 -67 -412 -45
-94 -102 -156 -188 -207 -100 -58 -107 -65 -107 -109 0 -29 6 -42 26 -58 34
-27 44 -26 102 3 274 139 409 454 377 880 -6 85 -10 102 -31 123 -28 28 -63
30 -92 3z"/>
<path d="M3517 5270 c-40 -48 -41 -64 -9 -135 51 -108 172 -215 244 -215 61 0
108 45 108 105 0 38 -46 126 -96 183 -53 60 -114 92 -176 92 -39 0 -50 -5 -71
-30z"/>
<path d="M2969 5082 c-107 -68 -161 -240 -102 -321 11 -14 35 -34 54 -44 94
-49 246 39 284 165 20 67 19 94 -5 145 -38 85 -143 110 -231 55z m105 -134
c-13 -43 -34 -77 -55 -89 -11 -6 -23 -8 -26 -5 -10 10 7 55 33 85 31 37 59 42
48 9z"/>
<path d="M4795 4771 c-66 -29 -82 -90 -71 -265 22 -338 93 -490 221 -476 41 4
72 30 100 82 29 51 30 58 29 173 0 110 -3 127 -33 206 -32 88 -113 230 -148
261 -24 22 -71 31 -98 19z"/>
<path d="M2643 4214 c-77 -38 -98 -153 -45 -233 106 -158 356 -173 505 -30
l50 48 -5 56 c-5 65 -33 101 -89 115 -19 4 -77 20 -129 34 -113 31 -236 35
-287 10z"/>
<path d="M5304 3990 c-101 -21 -209 -101 -249 -185 -29 -61 -32 -176 -6 -245
29 -78 97 -159 162 -195 47 -26 64 -30 134 -30 69 0 89 4 147 32 84 40 150
100 184 168 21 44 25 67 25 131 0 66 -5 88 -30 139 -35 70 -65 102 -146 151
-66 40 -141 51 -221 34z m86 -310 c12 -7 12 -13 4 -27 -22 -36 -74 -23 -74 18
0 14 7 19 28 19 15 0 34 -5 42 -10z"/>
<path d="M4213 3759 c-47 -15 -77 -33 -122 -75 -166 -154 -159 -376 15 -464
70 -35 187 -40 265 -11 75 29 141 88 176 159 24 48 28 72 31 157 3 81 0 106
-15 135 -23 44 -69 75 -151 100 -79 25 -119 24 -199 -1z m100 -266 c-12 -36
-63 -59 -63 -29 0 16 37 46 57 46 7 0 10 -7 6 -17z"/>
<path d="M999 3365 c-173 -34 -275 -144 -287 -306 -17 -240 196 -439 510 -480
144 -18 197 -50 263 -159 40 -67 200 -509 249 -687 51 -187 70 -237 121 -313
76 -114 205 -199 385 -254 144 -43 234 -52 750 -75 102 -5 262 -15 356 -22
397 -30 926 45 1263 178 189 74 291 136 389 235 75 74 121 141 173 252 65 138
73 191 74 436 0 211 -1 216 -27 283 -39 98 -90 169 -196 274 -203 201 -373
271 -627 261 -124 -6 -187 -23 -325 -92 -106 -53 -216 -120 -342 -208 -192
-134 -278 -168 -426 -168 -109 0 -184 20 -307 82 -150 75 -446 263 -605 384
-186 140 -344 229 -508 284 -121 40 -203 57 -432 85 -214 27 -349 30 -451 10z
m426 -364 c241 -29 308 -47 480 -131 128 -62 262 -147 450 -285 505 -370 673
-444 979 -433 113 4 144 9 221 36 118 40 169 69 366 206 237 166 337 211 494
223 134 10 219 -23 329 -127 94 -89 136 -196 136 -346 0 -156 -70 -340 -155
-410 -132 -108 -278 -168 -590 -245 -130 -32 -191 -41 -325 -50 -91 -6 -199
-8 -240 -5 -41 4 -217 11 -390 16 -594 18 -830 47 -946 115 -92 54 -129 131
-219 465 -131 481 -188 613 -321 746 -103 103 -228 154 -412 169 -90 7 -155
25 -184 52 -43 39 29 40 327 4z"/>
<path d="M2182 2294 c-31 -22 -29 -64 6 -97 46 -44 91 -29 107 35 5 21 1 33
-19 52 -29 30 -62 33 -94 10z"/>
<path d="M2868 2058 c-9 -7 -19 -23 -23 -36 -8 -29 42 -82 79 -82 51 0 76 85
34 114 -27 19 -68 21 -90 4z"/>
<path d="M3493 3373 c-13 -2 -41 -25 -63 -51 -43 -50 -150 -251 -150 -281 0
-10 9 -30 21 -45 55 -69 170 8 250 169 51 105 51 173 -1 200 -16 8 -30 14 -32
14 -2 -1 -13 -4 -25 -6z"/>
<path d="M470 2057 c-37 -18 -41 -88 -7 -119 13 -13 37 -44 54 -69 37 -53 104
-116 139 -129 30 -12 94 -13 111 -2 6 4 18 20 26 35 40 77 -42 171 -230 266
-72 36 -62 34 -93 18z"/>
<path d="M5340 1092 c-29 -29 -60 -114 -60 -163 0 -72 41 -119 103 -119 66 0
110 53 122 146 9 62 -8 128 -38 149 -36 25 -94 19 -127 -13z"/>
</g>
</svg>
