<?xml version="1.0" standalone="no"?>
<!DOCTYPE svg PUBLIC "-//W3C//DTD SVG 20010904//EN"
 "http://www.w3.org/TR/2001/REC-SVG-20010904/DTD/svg10.dtd">
<svg version="1.0" xmlns="http://www.w3.org/2000/svg"
 width="600.000000pt" height="600.000000pt" viewBox="0 0 600.000000 600.000000"
 preserveAspectRatio="xMidYMid meet">
<metadata>
Created by potrace 1.15, written by Peter Selinger 2001-2017
</metadata>
<g transform="translate(0.000000,600.000000) scale(0.100000,-0.100000)"
fill="#16364b" stroke="none">
<path d="M2340 5468 c-33 -17 -52 -36 -72 -73 -104 -190 -110 -356 -14 -451
85 -85 210 -94 431 -30 66 19 121 33 123 31 2 -2 -55 -86 -126 -188 -147 -208
-240 -359 -287 -462 -54 -119 -58 -136 -45 -217 18 -117 67 -168 162 -168 23
0 151 18 282 40 211 35 259 40 403 40 170 0 198 5 235 46 9 11 21 37 27 58 22
84 -29 174 -113 197 -55 15 -304 5 -471 -19 -71 -11 -132 -17 -135 -15 -14 13
150 275 293 468 141 190 175 303 123 408 -17 35 -41 64 -68 84 -107 75 -197
75 -437 3 -74 -22 -138 -40 -142 -40 -4 0 4 26 18 58 44 101 17 193 -71 233
-53 24 -63 24 -116 -3z"/>
<path d="M1721 5015 c-117 -26 -307 -129 -468 -254 -154 -119 -192 -181 -159
-263 36 -92 68 -111 226 -138 152 -26 224 -43 313 -76 58 -22 76 -36 130 -96
88 -101 144 -119 221 -75 81 46 103 150 51 245 -61 112 -187 202 -355 253 -68
20 -72 23 -54 36 36 27 129 64 187 75 126 23 198 125 153 219 -36 76 -122 102
-245 74z"/>
<path d="M4032 4865 c-127 -28 -333 -149 -368 -216 -24 -46 -15 -131 17 -165
34 -37 72 -54 117 -54 31 0 57 12 121 54 90 60 180 99 220 94 25 -3 26 -5 24
-73 -2 -88 -37 -210 -109 -378 -68 -160 -69 -191 -9 -263 115 -138 120 -139
311 -91 175 45 293 67 354 67 78 0 80 -2 80 -90 0 -101 -34 -234 -100 -392
-57 -135 -63 -188 -24 -241 30 -42 97 -70 150 -64 70 8 107 43 144 139 105
272 136 417 127 589 -6 125 -25 182 -79 244 -72 81 -172 113 -327 102 -79 -6
-280 -40 -316 -53 -10 -4 -1 33 30 119 111 314 97 498 -46 621 -75 63 -181 80
-317 51z"/>
<path d="M2060 3915 c-93 -33 -220 -57 -480 -91 -45 -5 -61 -13 -92 -43 -46
-47 -57 -95 -34 -156 10 -24 33 -58 52 -75 45 -39 80 -39 306 0 271 46 430 99
480 158 56 66 42 161 -31 209 -44 30 -114 29 -201 -2z"/>
<path d="M3712 3689 c-92 -29 -494 -234 -527 -269 -22 -23 -29 -42 -33 -84 -6
-70 20 -116 82 -145 76 -37 81 -36 344 111 79 44 146 78 149 75 5 -6 -100
-275 -172 -441 -25 -57 -45 -113 -45 -124 0 -11 -7 -33 -15 -48 -47 -90 11
-211 107 -221 79 -8 357 78 497 154 180 97 311 247 311 353 -1 63 -37 129 -86
157 -72 41 -138 24 -200 -53 -72 -88 -216 -215 -230 -202 -3 3 27 91 67 194
115 304 126 360 90 440 -50 110 -186 151 -339 103z"/>
<path d="M2395 3364 c-62 -7 -244 -43 -301 -59 -36 -10 -62 -26 -83 -50 -57
-66 -39 -181 36 -230 50 -33 89 -35 212 -9 63 13 148 27 188 30 72 7 73 6 73
-17 0 -13 -12 -55 -26 -94 -39 -110 -44 -136 -33 -177 31 -118 167 -155 250
-68 27 28 45 64 74 151 35 102 39 125 39 219 1 99 -1 108 -30 160 -33 59 -98
111 -162 130 -42 13 -177 20 -237 14z"/>
<path d="M1198 3077 c-58 -17 -90 -37 -123 -81 -73 -95 -20 -245 100 -283 l30
-10 6 -369 c5 -339 7 -376 27 -449 31 -112 58 -162 103 -192 138 -91 310 -8
310 151 0 30 -4 64 -10 75 -21 38 -14 46 42 46 78 0 96 17 162 150 45 91 70
130 122 183 l65 67 15 -35 c11 -26 14 -54 9 -105 -26 -299 -37 -400 -51 -465
-13 -61 -14 -83 -4 -118 31 -111 165 -133 261 -43 34 31 43 50 64 126 38 140
59 526 36 643 -67 338 -268 412 -559 206 -67 -48 -133 -123 -185 -210 -18 -30
-37 -54 -42 -54 -5 0 -6 91 -1 218 8 239 0 313 -40 392 -65 129 -205 194 -337
157z"/>
<path d="M4854 2976 c-96 -45 -137 -125 -127 -252 l5 -61 -93 -48 c-206 -105
-358 -226 -422 -335 -42 -72 -61 -162 -54 -255 12 -157 73 -305 170 -411 l58
-63 -28 -7 c-15 -4 -53 -31 -83 -59 -30 -29 -66 -55 -79 -58 -13 -3 -74 2
-135 13 -183 30 -203 32 -284 20 -230 -35 -419 -154 -591 -373 -29 -37 -59
-67 -66 -67 -7 0 -48 -32 -91 -71 -44 -40 -97 -80 -119 -90 -58 -27 -138 -24
-203 6 -98 46 -230 194 -295 331 -36 78 -56 102 -101 124 -48 23 -87 25 -137
9 -89 -30 -139 -101 -139 -195 0 -47 7 -70 42 -136 58 -108 183 -272 265 -348
173 -159 399 -230 588 -186 92 22 211 81 310 156 44 33 85 60 91 60 23 0 78
52 138 131 84 112 173 194 243 226 73 34 144 35 296 4 187 -37 305 -23 416 48
156 101 220 251 158 371 l-25 48 44 12 c55 16 121 72 145 124 38 84 15 207
-49 257 -55 43 -75 105 -56 176 7 24 82 75 194 132 188 96 281 202 325 372 21
76 24 239 7 290 -38 111 -194 163 -318 105z"/>
<path d="M3310 2325 c-221 -27 -596 -113 -652 -150 -107 -71 -101 -235 11
-307 42 -27 52 -29 111 -25 36 3 130 18 210 35 125 26 435 72 489 72 13 0 20
-14 29 -60 15 -71 59 -123 119 -139 51 -15 73 -14 124 4 102 36 146 124 136
273 -9 152 -86 260 -209 297 -62 18 -218 18 -368 0z"/>
</g>
</svg>
