<?xml version="1.0" standalone="no"?>
<!DOCTYPE svg PUBLIC "-//W3C//DTD SVG 20010904//EN"
 "http://www.w3.org/TR/2001/REC-SVG-20010904/DTD/svg10.dtd">
<svg version="1.0" xmlns="http://www.w3.org/2000/svg"
 width="600.000000pt" height="600.000000pt" viewBox="0 0 600.000000 600.000000"
 preserveAspectRatio="xMidYMid meet">
<metadata>
Created by potrace 1.15, written by Peter Selinger 2001-2017
</metadata>
<g transform="translate(0.000000,600.000000) scale(0.100000,-0.100000)"
fill="#16364b" stroke="none">
<path d="M2070 5816 c-14 -8 -49 -43 -79 -78 -29 -34 -91 -103 -136 -153 -130
-142 -237 -266 -278 -321 -110 -151 -119 -280 -27 -358 111 -93 279 -45 764
221 109 60 187 109 200 126 47 63 15 172 -60 203 -64 27 -106 18 -250 -51 -75
-35 -134 -61 -132 -56 2 4 48 56 103 115 117 125 124 137 125 197 0 58 -43
128 -93 152 -42 20 -103 21 -137 3z"/>
<path d="M3025 5666 c-61 -27 -91 -85 -75 -145 16 -60 66 -102 166 -140 239
-92 362 -178 420 -298 35 -71 42 -164 17 -213 -24 -47 -100 -102 -187 -135
-99 -38 -131 -60 -150 -99 -32 -69 -11 -140 57 -190 82 -61 280 13 419 156 70
72 134 195 148 285 29 178 -67 406 -238 564 -84 78 -205 144 -356 193 -115 38
-172 44 -221 22z"/>
<path d="M985 5359 c-152 -53 -292 -167 -347 -285 -55 -118 -50 -267 14 -394
62 -125 219 -260 302 -260 82 0 156 71 156 148 0 53 -29 100 -87 143 -68 51
-105 106 -110 167 -7 80 47 140 165 182 66 24 116 69 128 116 10 39 -1 109
-22 138 -21 28 -89 66 -120 66 -10 -1 -46 -10 -79 -21z"/>
<path d="M2729 4975 c-67 -22 -142 -93 -181 -173 -30 -60 -33 -75 -33 -157 0
-108 20 -161 88 -229 59 -59 126 -92 230 -112 138 -27 218 -1 253 83 19 44 18
69 -7 120 -25 53 -78 83 -142 83 -97 0 -133 21 -120 68 5 19 12 22 62 22 73 0
116 26 142 86 24 53 19 93 -17 141 -49 65 -182 98 -275 68z"/>
<path d="M4805 4914 c-40 -21 -74 -53 -92 -89 -13 -24 -15 -54 -10 -170 11
-253 65 -377 191 -443 42 -21 65 -26 126 -26 85 0 143 21 203 73 93 82 120
237 63 356 -53 109 -207 240 -349 296 -58 23 -92 24 -132 3z"/>
<path d="M1873 4560 c-114 -24 -225 -111 -238 -187 -14 -87 40 -174 118 -188
44 -8 109 9 144 39 33 28 87 56 105 56 8 0 35 -22 61 -50 31 -33 60 -53 87
-60 113 -30 213 71 181 183 -19 62 -119 157 -196 187 -67 25 -194 35 -262 20z"/>
<path d="M2896 3930 c-41 -13 -91 -65 -115 -119 -39 -91 -70 -368 -71 -629 0
-102 10 -131 58 -167 38 -28 116 -26 164 3 60 37 74 82 87 277 18 262 28 323
64 367 40 49 48 126 19 178 -38 69 -135 112 -206 90z"/>
<path d="M1175 3846 c-120 -19 -229 -55 -268 -87 -98 -81 -88 -227 21 -304 39
-27 52 -30 117 -30 l74 0 -20 -30 c-10 -16 -61 -97 -111 -180 -51 -82 -112
-179 -136 -215 -102 -154 -212 -434 -212 -539 1 -123 124 -215 243 -182 61 17
227 152 502 407 119 110 336 293 349 294 30 1 -27 -281 -97 -485 -48 -141
-198 -469 -282 -619 -45 -81 -50 -134 -17 -187 29 -47 70 -69 132 -69 93 0
127 30 199 175 58 119 213 471 281 641 94 232 136 432 126 599 -11 181 -46
267 -135 330 -36 26 -52 30 -104 30 -94 0 -115 -13 -379 -237 -64 -54 -118
-98 -122 -98 -3 0 28 51 70 113 169 251 218 421 155 544 -23 47 -80 100 -130
120 -49 21 -161 25 -256 9z"/>
<path d="M4228 3791 c-154 -51 -289 -197 -305 -330 -18 -152 112 -297 277
-309 90 -6 158 12 230 60 96 63 171 175 225 333 42 124 20 196 -74 238 -68 30
-273 35 -353 8z m62 -316 c-24 -25 -60 -34 -60 -15 0 10 54 39 74 40 5 0 -1
-11 -14 -25z"/>
<path d="M3502 3369 c-108 -20 -200 -125 -246 -278 -33 -111 -13 -184 59 -227
36 -20 56 -24 126 -25 94 -1 127 5 182 33 103 51 167 148 167 253 0 160 -133
272 -288 244z"/>
<path d="M4904 2890 c-32 -13 -171 -167 -226 -249 -55 -85 -80 -158 -80 -240
0 -173 133 -257 302 -192 110 42 229 165 261 270 18 59 23 194 9 237 -14 40
-105 150 -143 171 -25 14 -92 16 -123 3z"/>
<path d="M4118 2517 c-57 -22 -95 -57 -128 -121 -37 -73 -38 -114 -5 -249 14
-56 27 -112 30 -124 5 -20 1 -20 -83 15 -75 31 -98 36 -167 36 -68 1 -88 -3
-131 -26 -130 -68 -187 -206 -164 -395 19 -147 100 -477 132 -535 36 -65 96
-100 182 -106 105 -7 183 34 227 119 35 69 35 115 -1 239 -17 62 -34 119 -37
126 -9 25 15 15 61 -25 64 -55 120 -74 203 -69 218 13 343 194 305 441 -13 85
-117 489 -139 539 -19 46 -73 101 -119 123 -48 23 -122 28 -166 12z"/>
<path d="M2884 2211 c-75 -21 -193 -76 -389 -185 -66 -36 -125 -66 -130 -66
-6 0 -29 19 -50 42 -51 53 -106 78 -175 78 -101 0 -189 -60 -277 -188 -97
-140 -23 -322 130 -322 38 0 47 -3 47 -17 0 -10 3 -34 6 -54 l6 -36 -66 -31
c-138 -65 -236 -202 -255 -355 -21 -178 32 -327 185 -524 118 -151 262 -251
449 -309 80 -26 104 -29 215 -28 108 0 136 4 210 28 156 51 330 163 376 243
23 37 26 53 22 104 -4 53 -9 64 -43 99 -51 52 -109 74 -178 67 -44 -4 -69 -16
-149 -71 -138 -93 -225 -114 -344 -82 -182 48 -343 233 -352 405 -3 52 -1 70
12 80 23 19 68 -2 103 -48 111 -146 192 -187 291 -146 74 31 121 102 122 182
0 60 -14 90 -74 153 -63 66 -89 113 -115 212 -32 118 -31 131 5 138 16 4 88
42 159 85 71 43 159 92 195 108 84 38 172 69 179 62 13 -14 -70 -229 -165
-425 -72 -149 -104 -226 -104 -250 1 -128 143 -222 268 -176 58 21 98 72 180
234 128 251 190 420 212 574 26 181 -49 341 -189 406 -76 35 -215 41 -317 13z"/>
</g>
</svg>
