<?xml version="1.0" standalone="no"?>
<!DOCTYPE svg PUBLIC "-//W3C//DTD SVG 20010904//EN"
 "http://www.w3.org/TR/2001/REC-SVG-20010904/DTD/svg10.dtd">
<svg version="1.0" xmlns="http://www.w3.org/2000/svg"
 width="600.000000pt" height="600.000000pt" viewBox="0 0 600.000000 600.000000"
 preserveAspectRatio="xMidYMid meet">
<metadata>
Created by potrace 1.15, written by Peter Selinger 2001-2017
</metadata>
<g transform="translate(0.000000,600.000000) scale(0.100000,-0.100000)"
fill="#16364b" stroke="none">
<path d="M2051 5817 c-29 -14 -67 -59 -291 -342 -263 -331 -297 -393 -270
-488 13 -49 31 -73 80 -107 31 -22 45 -25 120 -24 75 0 95 5 173 37 49 21 177
86 285 144 365 197 360 193 369 275 10 91 -62 171 -156 172 -37 1 -69 -10
-156 -54 -131 -64 -145 -71 -145 -65 0 3 43 55 96 117 53 61 103 123 110 137
31 59 7 140 -56 186 -38 28 -116 34 -159 12z"/>
<path d="M3085 5713 c-85 -22 -138 -139 -101 -226 19 -45 52 -71 121 -96 143
-53 302 -147 375 -223 71 -75 107 -219 75 -303 -23 -61 -87 -115 -171 -144
-99 -35 -122 -48 -144 -84 -55 -90 16 -217 121 -217 93 0 256 78 345 165 160
157 200 434 93 646 -77 155 -389 392 -617 468 -34 12 -65 20 -69 20 -4 -1 -17
-4 -28 -6z"/>
<path d="M968 5360 c-141 -49 -286 -167 -340 -278 -31 -64 -33 -72 -33 -182 0
-89 4 -126 19 -165 42 -110 142 -234 239 -297 117 -75 260 -6 260 126 0 69
-22 105 -92 153 -70 48 -111 112 -111 171 0 76 36 116 142 158 80 32 120 68
137 123 22 75 -23 167 -96 197 -42 18 -57 17 -125 -6z"/>
<path d="M2725 4961 c-73 -34 -137 -101 -173 -179 -35 -78 -37 -188 -4 -249
72 -137 212 -216 383 -217 78 -1 89 1 121 26 70 54 86 141 38 209 -28 38 -75
59 -132 59 -24 0 -60 5 -81 11 -33 9 -38 14 -35 37 3 25 5 26 58 24 155 -7
220 176 92 260 -87 57 -174 64 -267 19z"/>
<path d="M4798 4930 c-46 -14 -106 -68 -119 -107 -15 -48 -6 -248 16 -328 39
-140 107 -235 203 -282 142 -70 319 -10 392 134 34 65 34 184 2 256 -43 94
-171 207 -327 285 -89 45 -126 55 -167 42z"/>
<path d="M1870 4572 c-161 -43 -247 -139 -219 -244 18 -69 89 -128 154 -128
30 0 78 23 118 56 39 32 81 31 104 -2 53 -77 78 -96 129 -101 92 -9 164 54
171 150 3 44 -1 60 -27 104 -80 137 -267 209 -430 165z"/>
<path d="M2892 3913 c-124 -67 -175 -208 -176 -483 0 -232 21 -314 97 -364 36
-23 50 -27 95 -23 43 3 59 10 86 36 43 42 59 99 44 161 -12 55 -16 259 -5 320
6 35 15 49 40 65 109 69 102 226 -13 285 -49 25 -124 26 -168 3z"/>
<path d="M1215 3885 c-105 -23 -267 -83 -304 -113 -151 -119 -72 -338 122
-336 31 0 57 -2 57 -5 0 -4 -57 -96 -126 -206 -152 -242 -246 -429 -303 -598
-44 -133 -46 -167 -16 -227 23 -44 78 -88 127 -101 81 -22 102 -10 375 219
287 240 567 462 584 462 27 0 -9 -156 -88 -380 -143 -406 -190 -517 -286 -680
-54 -91 -62 -111 -61 -153 1 -81 69 -147 151 -147 90 0 112 27 256 316 47 95
109 227 137 295 29 68 76 180 105 249 93 221 125 355 125 514 -1 283 -76 408
-243 407 -100 0 -187 -53 -420 -253 -37 -32 -70 -58 -73 -58 -4 0 2 12 12 28
104 159 194 330 219 417 46 156 -27 308 -166 349 -62 19 -103 19 -184 1z"/>
<path d="M4225 3780 c-133 -21 -241 -94 -291 -196 -75 -154 1 -352 164 -427
37 -17 66 -22 137 -22 79 0 97 4 150 29 72 35 158 120 199 195 41 76 86 209
86 254 0 84 -56 140 -157 156 -100 15 -231 21 -288 11z m65 -309 c0 -12 -46
-41 -65 -41 -23 0 -13 23 16 37 28 15 49 17 49 4z"/>
<path d="M3445 3376 c-88 -40 -142 -122 -185 -279 -38 -136 -19 -200 73 -246
46 -23 52 -23 142 -13 152 17 223 62 273 171 21 46 24 64 20 130 -11 198 -165
311 -323 237z"/>
<path d="M4892 2903 c-69 -34 -221 -230 -262 -340 -71 -187 20 -347 200 -348
187 -1 350 194 350 418 0 81 -17 122 -76 190 -85 96 -139 116 -212 80z"/>
<path d="M4120 2521 c-109 -36 -179 -122 -180 -222 0 -26 13 -98 30 -160 16
-63 30 -120 30 -127 0 -8 -15 -5 -48 12 -108 54 -224 71 -311 45 -59 -18 -133
-86 -162 -151 -40 -90 -34 -188 30 -458 75 -321 77 -325 119 -372 109 -121
296 -97 363 47 25 54 24 114 -5 215 -32 113 -38 140 -30 140 3 0 25 -17 49
-38 77 -68 151 -77 267 -36 168 61 257 165 266 314 5 94 -13 193 -84 460 -60
226 -80 265 -151 307 -46 27 -138 39 -183 24z"/>
<path d="M2935 2194 c-11 -2 -51 -12 -88 -20 -97 -22 -218 -73 -359 -151
l-121 -66 -19 24 c-73 94 -132 124 -225 117 -78 -5 -138 -36 -207 -106 -119
-119 -156 -206 -127 -295 25 -75 123 -137 217 -137 38 0 40 -2 49 -52 l7 -37
-71 -35 c-102 -52 -202 -149 -247 -242 -32 -64 -37 -85 -42 -166 -10 -190 80
-391 252 -564 299 -300 712 -325 1075 -66 103 74 141 126 141 193 0 84 -32
136 -105 170 -77 36 -131 21 -253 -66 -85 -61 -152 -79 -266 -72 -102 5 -151
20 -232 68 -128 77 -204 190 -204 304 0 52 4 65 24 84 23 22 25 22 55 7 17 -9
31 -20 31 -24 0 -17 108 -116 145 -133 104 -48 238 -2 274 94 27 72 -4 188
-59 217 -48 26 -113 162 -134 283 -6 34 -5 37 17 37 13 0 89 39 168 86 150 90
284 158 333 170 28 7 28 6 21 -27 -25 -112 -136 -397 -196 -500 -39 -67 -52
-115 -45 -164 18 -117 152 -196 259 -151 52 21 90 74 181 256 130 256 199 481
200 651 0 73 -4 93 -28 142 -54 110 -154 166 -311 172 -49 2 -99 2 -110 -1z"/>
</g>
</svg>
