<?xml version="1.0" standalone="no"?>
<!DOCTYPE svg PUBLIC "-//W3C//DTD SVG 20010904//EN"
 "http://www.w3.org/TR/2001/REC-SVG-20010904/DTD/svg10.dtd">
<svg version="1.0" xmlns="http://www.w3.org/2000/svg"
 width="600.000000pt" height="600.000000pt" viewBox="0 0 600.000000 600.000000"
 preserveAspectRatio="xMidYMid meet">
<metadata>
Created by potrace 1.15, written by Peter Selinger 2001-2017
</metadata>
<g transform="translate(0.000000,600.000000) scale(0.100000,-0.100000)"
fill="#16364b" stroke="none">
<path d="M1531 5754 c-29 -20 -194 -268 -232 -349 -50 -105 -34 -198 43 -245
79 -48 187 -6 408 160 177 133 210 167 210 219 0 59 -33 92 -96 98 -46 4 -54
1 -123 -46 -41 -28 -78 -51 -83 -51 -5 0 4 19 21 42 50 68 39 144 -26 177 -32
16 -95 13 -122 -5z"/>
<path d="M2344 5426 l-34 -34 0 -186 c0 -210 -13 -295 -62 -414 -45 -109 -102
-180 -178 -222 -97 -53 -130 -89 -130 -140 0 -34 6 -48 34 -76 49 -49 90 -47
187 10 111 65 185 149 252 288 107 219 133 340 122 568 -8 160 -20 202 -66
225 -48 25 -87 19 -125 -19z"/>
<path d="M3518 5335 c-38 -21 -68 -75 -68 -124 0 -58 43 -145 104 -209 116
-123 225 -144 306 -57 20 21 25 37 25 78 0 66 -31 128 -103 208 -58 63 -86 82
-161 105 -57 17 -69 17 -103 -1z"/>
<path d="M2996 5155 c-54 -19 -112 -79 -149 -155 -27 -55 -32 -75 -32 -141 0
-67 3 -80 27 -111 36 -48 101 -73 168 -65 59 7 155 52 180 85 27 33 43 125 38
209 -6 90 -38 145 -101 174 -50 22 -78 23 -131 4z"/>
<path d="M4763 4756 c-59 -26 -68 -54 -67 -201 3 -257 63 -399 198 -465 197
-97 384 37 336 242 -21 88 -69 167 -155 254 -85 85 -201 167 -250 177 -17 4
-44 0 -62 -7z m222 -426 c9 -16 12 -30 7 -30 -8 0 -32 42 -32 55 0 13 11 2 25
-25z"/>
<path d="M2657 4226 c-102 -38 -152 -116 -151 -236 1 -170 115 -277 286 -269
103 6 186 48 290 147 44 42 84 85 90 96 16 30 12 111 -7 144 -23 38 -51 54
-165 92 -114 38 -278 51 -343 26z"/>
<path d="M1057 4092 c-31 -19 -67 -85 -67 -123 0 -31 32 -83 64 -104 14 -9 63
-25 108 -35 85 -19 138 -38 138 -50 0 -23 -174 -78 -314 -100 -81 -13 -95 -19
-130 -61 -20 -23 -26 -41 -26 -77 0 -99 66 -149 179 -138 186 17 413 103 500
188 58 57 91 128 91 197 0 138 -110 234 -341 296 -110 29 -163 31 -202 7z"/>
<path d="M4145 3745 c-84 -34 -168 -123 -191 -202 -32 -110 -2 -222 83 -310
57 -58 117 -83 201 -83 196 0 361 196 362 428 0 97 -38 138 -161 172 -105 29
-216 27 -294 -5z m135 -274 c0 -6 -10 -17 -22 -25 -41 -29 -65 -15 -32 18 17
17 54 22 54 7z"/>
<path d="M1691 3720 c-68 -25 -93 -48 -122 -113 -18 -41 -23 -70 -23 -137 0
-101 20 -154 85 -225 81 -88 183 -116 275 -76 64 29 92 55 120 116 47 99 26
241 -51 345 -71 97 -177 130 -284 90z"/>
<path d="M5190 3609 c-116 -23 -236 -114 -287 -218 -30 -61 -36 -147 -15 -221
41 -141 187 -230 330 -201 211 42 333 203 288 380 -19 74 -47 120 -117 190
-78 78 -107 88 -199 70z m30 -329 c-6 -11 -17 -20 -26 -20 -12 0 -12 4 -4 20
6 11 17 20 26 20 12 0 12 -4 4 -20z"/>
<path d="M3398 3353 c-44 -37 -54 -50 -120 -167 -64 -111 -71 -150 -38 -196
32 -45 77 -55 146 -33 151 47 271 255 209 360 -40 68 -136 85 -197 36z"/>
<path d="M2610 3303 c-68 -10 -171 -38 -220 -60 -88 -39 -156 -99 -245 -218
-107 -144 -166 -195 -284 -252 -328 -156 -479 -316 -577 -613 -26 -79 -28 -96
-28 -250 0 -173 9 -228 56 -350 45 -115 113 -195 273 -321 253 -199 359 -253
548 -284 268 -43 458 17 755 240 139 104 262 228 338 340 85 125 248 462 264
544 24 129 -5 242 -121 473 -44 86 -79 159 -79 162 0 4 -22 53 -49 109 -26 56
-51 124 -55 151 -17 132 -204 294 -375 326 -52 10 -150 11 -201 3z m136 -388
c3 -14 39 -75 79 -136 41 -60 88 -145 105 -187 17 -42 51 -120 76 -172 92
-201 104 -274 56 -351 -15 -24 -37 -75 -49 -114 -44 -139 -163 -306 -294 -412
-135 -109 -154 -123 -214 -157 -146 -83 -303 -88 -450 -14 -52 27 -118 79
-238 191 -122 113 -165 189 -174 310 -18 233 110 437 347 554 191 95 294 176
441 349 39 47 85 94 100 105 41 29 127 58 171 59 32 0 39 -4 44 -25z"/>
<path d="M391 2244 c-41 -35 -51 -75 -34 -147 52 -227 214 -469 384 -575 47
-29 147 -54 184 -46 54 12 101 42 128 83 81 122 44 271 -100 414 -100 98 -200
166 -380 256 -98 49 -138 52 -182 15z m398 -429 c68 -72 83 -95 60 -95 -14 0
-104 95 -128 136 -32 54 -9 40 68 -41z"/>
<path d="M4176 1929 c-54 -43 -60 -67 -52 -249 8 -214 19 -281 59 -360 37 -75
90 -117 160 -126 137 -19 205 52 276 286 88 295 82 391 -29 448 -56 29 -126
26 -171 -7 l-29 -22 -37 26 c-50 33 -137 35 -177 4z"/>
</g>
</svg>
