<?xml version="1.0" standalone="no"?>
<!DOCTYPE svg PUBLIC "-//W3C//DTD SVG 20010904//EN"
 "http://www.w3.org/TR/2001/REC-SVG-20010904/DTD/svg10.dtd">
<svg version="1.0" xmlns="http://www.w3.org/2000/svg"
 width="600.000000pt" height="600.000000pt" viewBox="0 0 600.000000 600.000000"
 preserveAspectRatio="xMidYMid meet">
<metadata>
Created by potrace 1.15, written by Peter Selinger 2001-2017
</metadata>
<g transform="translate(0.000000,600.000000) scale(0.100000,-0.100000)"
fill="#16364b" stroke="none">
<path d="M3547 5273 c-19 -5 -47 -52 -47 -81 0 -32 51 -121 101 -176 102 -112
229 -120 229 -15 0 38 -55 141 -105 197 -63 70 -115 92 -178 75z m131 -188
c-3 -3 -13 7 -23 22 l-17 28 23 -22 c12 -12 20 -25 17 -28z"/>
<path d="M3015 5101 c-73 -44 -125 -149 -132 -261 -4 -73 8 -106 48 -129 44
-25 94 -7 156 55 115 114 146 271 66 334 -33 26 -98 26 -138 1z m85 -108 c0
-16 -9 -46 -19 -69 -19 -43 -77 -114 -92 -114 -14 0 -11 63 6 111 29 82 105
134 105 72z"/>
<path d="M4783 4752 c-13 -2 -32 -15 -44 -30 -21 -26 -21 -34 -16 -232 5 -216
17 -300 48 -362 32 -64 94 -78 147 -33 73 61 70 280 -8 526 -16 53 -36 101
-43 107 -20 17 -60 28 -84 24z"/>
<path d="M2633 4210 c-40 -24 -53 -48 -53 -98 0 -33 6 -45 39 -75 63 -57 219
-107 333 -107 115 0 168 38 168 119 0 54 -22 76 -110 107 -220 78 -316 92
-377 54z"/>
<path d="M5190 3960 c-69 -23 -137 -93 -164 -169 -27 -77 -19 -196 19 -274 32
-64 90 -124 157 -159 61 -32 188 -32 273 2 84 33 184 133 208 209 49 156 -20
300 -183 379 -59 29 -73 32 -160 32 -66 -1 -112 -6 -150 -20z m185 -280 c21
-8 24 -13 16 -29 -22 -41 -81 -27 -81 20 0 21 23 25 65 9z"/>
<path d="M1387 3926 c-102 -38 -177 -142 -177 -245 0 -113 83 -230 207 -293
44 -22 77 -47 96 -73 49 -66 105 -194 132 -297 35 -141 140 -794 159 -997 21
-208 51 -333 113 -461 87 -180 242 -299 456 -352 48 -12 87 -24 87 -27 0 -3
-34 -24 -76 -46 -142 -75 -214 -158 -214 -249 0 -64 27 -111 78 -134 32 -15
68 -17 275 -14 130 2 237 1 237 -2 0 -3 -22 -17 -49 -31 -80 -40 -111 -100
-81 -156 13 -23 61 -49 90 -49 61 0 167 90 196 166 20 51 15 121 -11 160 -9
14 -37 35 -61 46 -41 18 -64 19 -274 17 -126 -2 -233 1 -237 5 -19 19 89 91
265 177 l185 90 226 -15 c124 -8 285 -18 357 -22 l132 -6 5 -41 c12 -85 83
-133 223 -150 83 -11 84 -11 84 -40 0 -41 17 -67 55 -83 154 -64 351 83 278
207 -32 54 -68 63 -283 70 -107 3 -196 7 -198 8 -2 0 -1 5 3 10 3 6 27 13 53
16 26 4 74 15 107 25 33 10 119 28 190 40 191 32 294 61 461 128 274 110 372
169 468 281 51 61 119 187 162 301 26 68 28 87 28 205 0 123 -2 135 -33 217
-35 94 -108 223 -166 293 -52 64 -160 141 -240 171 -124 46 -296 43 -430 -8
-34 -13 -82 -45 -127 -84 -78 -69 -178 -123 -273 -149 -33 -9 -139 -21 -235
-27 -148 -9 -193 -8 -290 5 -313 43 -573 200 -731 442 -178 272 -227 344 -306
450 -107 143 -215 253 -317 323 -40 29 -145 86 -232 128 -154 75 -161 77 -244
81 -56 2 -98 -1 -123 -11z m227 -251 c276 -125 332 -178 590 -555 320 -467
478 -621 769 -748 211 -93 389 -120 662 -102 299 20 468 80 643 227 79 67 145
88 248 80 145 -11 251 -96 339 -270 80 -160 81 -260 6 -412 -47 -94 -129 -189
-214 -247 -81 -55 -310 -159 -433 -197 -112 -34 -222 -54 -404 -73 -163 -17
-823 -17 -935 0 -44 7 -143 17 -220 22 -255 17 -369 55 -464 155 -98 103 -138
231 -171 544 -12 107 -32 244 -45 305 -13 61 -33 154 -44 206 -11 52 -34 174
-51 272 -61 365 -112 502 -229 619 -37 36 -88 75 -116 88 -27 13 -62 35 -77
49 -26 24 -36 60 -21 75 16 17 74 4 167 -38z"/>
<path d="M2370 2473 c-45 -16 -52 -73 -14 -108 49 -46 103 -24 104 40 0 36 -7
48 -37 64 -23 12 -30 12 -53 4z"/>
<path d="M2850 2061 c-33 -9 -53 -48 -38 -75 39 -73 134 -54 126 25 -2 26 -9
35 -33 44 -16 7 -41 9 -55 6z"/>
<path d="M4205 3747 c-63 -21 -97 -42 -143 -88 -98 -98 -127 -242 -70 -341 58
-97 150 -144 271 -136 97 7 166 38 222 100 71 79 90 175 60 301 -19 81 -35
101 -109 137 -76 37 -167 48 -231 27z m76 -286 c-13 -24 -51 -29 -51 -7 0 20
42 48 53 37 5 -5 4 -18 -2 -30z"/>
<path d="M3457 3360 c-35 -28 -157 -275 -157 -318 0 -25 6 -35 25 -44 21 -10
30 -8 52 8 61 46 173 245 173 308 0 25 -6 39 -22 50 -29 21 -40 20 -71 -4z"/>
<path d="M482 2023 c-17 -7 -33 -49 -26 -68 9 -22 135 -112 212 -151 75 -38
121 -43 145 -16 45 49 1 95 -173 182 -118 59 -132 64 -158 53z"/>
<path d="M5346 1105 c-8 -8 -24 -40 -35 -70 -37 -99 -22 -180 38 -205 83 -34
161 51 161 178 0 48 -21 96 -45 106 -31 12 -103 6 -119 -9z"/>
</g>
</svg>
