<?xml version="1.0" standalone="no"?>
<!DOCTYPE svg PUBLIC "-//W3C//DTD SVG 20010904//EN"
 "http://www.w3.org/TR/2001/REC-SVG-20010904/DTD/svg10.dtd">
<svg version="1.0" xmlns="http://www.w3.org/2000/svg"
 width="600.000000pt" height="600.000000pt" viewBox="0 0 600.000000 600.000000"
 preserveAspectRatio="xMidYMid meet">
<metadata>
Created by potrace 1.15, written by Peter Selinger 2001-2017
</metadata>
<g transform="translate(0.000000,600.000000) scale(0.100000,-0.100000)"
fill="#16364b" stroke="none">
<path d="M1792 4675 c-79 -40 -127 -113 -137 -207 -7 -58 6 -113 49 -215 29
-67 51 -190 91 -503 35 -279 34 -261 49 -570 14 -267 13 -358 -10 -681 -9
-132 34 -462 92 -699 74 -305 256 -499 514 -546 114 -21 113 -21 104 -42 -4
-9 -9 -82 -11 -162 -5 -168 12 -274 72 -451 56 -162 60 -145 -37 -151 -96 -7
-128 -19 -151 -58 -32 -54 -18 -108 35 -136 43 -22 176 -15 239 13 58 26 106
77 120 127 12 45 9 60 -37 184 -65 174 -78 248 -79 437 0 193 7 222 53 210 76
-18 486 -44 695 -44 l228 0 3 -133 c3 -156 27 -272 87 -434 22 -60 41 -116 42
-124 2 -12 -16 -16 -93 -20 -100 -6 -129 -16 -154 -52 -40 -57 -4 -127 75
-149 92 -25 259 25 309 93 41 56 39 118 -9 241 -85 218 -122 416 -99 527 l13
65 110 12 c129 16 373 64 462 91 146 46 278 150 341 269 66 126 109 317 97
437 -13 139 -65 275 -139 369 -63 79 -244 196 -395 253 -254 97 -354 140 -547
237 -224 112 -319 166 -623 356 -344 215 -374 251 -647 784 -149 291 -298 529
-375 604 -67 64 -121 87 -209 91 -65 3 -82 0 -128 -23z m187 -145 c45 -22 104
-87 133 -145 11 -22 30 -51 43 -65 35 -40 88 -134 163 -290 78 -165 210 -407
278 -513 124 -192 199 -258 514 -454 294 -182 356 -218 535 -304 83 -40 162
-80 176 -90 22 -16 207 -97 434 -190 122 -50 307 -178 350 -242 175 -258 62
-684 -205 -776 -60 -21 -340 -79 -455 -95 -222 -30 -505 -40 -767 -27 -134 6
-272 16 -308 22 -36 5 -117 14 -180 19 -156 13 -250 34 -345 80 -182 87 -268
246 -309 575 -36 291 -39 352 -27 565 10 154 10 248 2 375 -6 94 -15 267 -21
385 -11 231 -67 700 -100 832 -10 42 -33 108 -49 147 -17 38 -31 84 -31 103 1
91 82 133 169 88z"/>
<path d="M2555 2655 c-14 -13 -25 -29 -25 -35 0 -17 56 -70 75 -70 24 0 65 46
65 74 0 56 -71 76 -115 31z"/>
<path d="M3009 2449 c-26 -26 -19 -64 17 -96 36 -33 70 -30 89 7 20 39 19 62
-5 88 -26 28 -73 29 -101 1z"/>
<path d="M5255 3980 c-76 -16 -125 -42 -168 -90 -85 -94 -99 -225 -40 -352 38
-82 78 -127 145 -163 97 -54 252 -36 374 43 72 47 119 108 141 181 40 139 -31
264 -198 348 -70 35 -179 49 -254 33z m124 -284 l35 -12 -23 -23 c-27 -27 -51
-24 -68 9 -20 41 -5 48 56 26z"/>
<path d="M5341 1103 c-37 -36 -61 -100 -61 -164 0 -43 5 -55 29 -80 39 -39 96
-40 140 -3 50 42 77 167 50 227 -24 53 -111 64 -158 20z"/>
</g>
</svg>
