<?xml version="1.0" standalone="no"?>
<!DOCTYPE svg PUBLIC "-//W3C//DTD SVG 20010904//EN"
 "http://www.w3.org/TR/2001/REC-SVG-20010904/DTD/svg10.dtd">
<svg version="1.0" xmlns="http://www.w3.org/2000/svg"
 width="600.000000pt" height="600.000000pt" viewBox="0 0 600.000000 600.000000"
 preserveAspectRatio="xMidYMid meet">
<metadata>
Created by potrace 1.15, written by Peter Selinger 2001-2017
</metadata>
<g transform="translate(0.000000,600.000000) scale(0.100000,-0.100000)"
fill="#16364b" stroke="none">
<path d="M2405 5418 c-40 -21 -45 -39 -45 -147 0 -118 -23 -341 -46 -441 -34
-152 -107 -245 -242 -307 -95 -43 -112 -58 -112 -95 0 -41 15 -64 50 -76 37
-13 66 -5 176 48 151 73 241 191 283 372 39 164 67 554 45 613 -7 17 -54 45
-76 45 -7 0 -22 -6 -33 -12z"/>
<path d="M3538 5286 c-21 -16 -38 -58 -38 -95 0 -63 125 -222 206 -261 57 -28
90 -26 125 9 23 24 29 38 29 73 0 85 -100 231 -185 269 -47 22 -113 24 -137 5z"/>
<path d="M3010 5107 c-45 -15 -120 -89 -149 -150 -31 -65 -38 -152 -14 -196
42 -79 111 -95 202 -46 70 38 114 83 146 150 54 110 39 189 -45 233 -48 24
-85 26 -140 9z m50 -162 c0 -16 -35 -74 -52 -84 -26 -16 -33 -8 -18 21 22 41
70 85 70 63z"/>
<path d="M4753 4750 c-17 -10 -36 -27 -41 -37 -18 -33 -24 -147 -12 -238 25
-201 79 -347 151 -409 41 -35 47 -37 97 -34 43 4 59 11 87 38 52 50 70 108 69
215 -1 69 -7 107 -27 163 -34 96 -98 203 -162 269 -45 46 -56 53 -91 53 -21 0
-53 -9 -71 -20z"/>
<path d="M2645 4205 c-144 -56 -167 -218 -42 -303 159 -110 362 -97 503 32 54
49 66 94 39 150 -21 45 -26 47 -167 92 -134 43 -266 54 -333 29z"/>
<path d="M1108 4137 c-14 -13 -29 -35 -33 -48 -3 -13 -14 -39 -22 -58 -20 -44
-11 -138 18 -199 70 -144 284 -145 357 -2 28 55 28 111 1 167 -26 54 -66 87
-154 130 -84 40 -132 43 -167 10z"/>
<path d="M5250 3927 c-117 -33 -200 -102 -247 -204 -22 -48 -25 -65 -21 -132
11 -173 126 -297 288 -309 211 -15 375 142 375 358 -1 115 -38 176 -158 261
-43 30 -57 34 -120 36 -40 2 -92 -3 -117 -10z m88 -273 c30 -8 28 -30 -4 -51
-25 -16 -27 -16 -40 2 -17 23 -18 42 -1 48 17 7 19 7 45 1z"/>
<path d="M4197 3760 c-94 -24 -182 -95 -220 -179 -16 -35 -22 -66 -22 -126 0
-69 4 -86 27 -126 57 -97 141 -143 263 -143 103 -1 169 22 234 80 65 59 92
127 96 245 4 142 -22 187 -132 229 -65 25 -187 34 -246 20z m81 -282 c-18 -27
-58 -37 -58 -14 0 17 27 35 54 36 17 0 17 -2 4 -22z"/>
<path d="M3448 3374 c-15 -8 -43 -35 -63 -61 -47 -61 -135 -238 -135 -270 0
-35 51 -83 88 -83 62 0 150 83 208 196 58 114 57 196 -3 223 -32 15 -62 13
-95 -5z"/>
<path d="M1245 3249 c-203 -15 -354 -83 -429 -192 -153 -221 -89 -504 148
-659 71 -46 131 -65 246 -79 224 -28 297 -118 435 -536 70 -209 104 -285 171
-379 96 -136 254 -240 429 -284 82 -21 308 -45 325 -35 5 3 228 5 495 5 623 0
732 9 1055 91 322 82 426 127 580 248 138 110 246 249 305 396 40 101 56 185
62 335 6 162 -15 276 -73 398 -68 142 -229 272 -441 356 -186 74 -301 80 -467
25 -83 -28 -325 -143 -461 -220 -207 -118 -418 -148 -610 -88 -151 47 -268
116 -560 335 -298 223 -390 263 -642 284 -144 11 -407 11 -568 -1z m595 -394
c176 -31 265 -77 445 -227 342 -283 574 -380 968 -404 184 -11 299 22 522 150
220 126 369 188 486 202 100 12 204 -30 311 -126 82 -73 102 -128 102 -285 1
-142 -16 -206 -79 -300 -88 -131 -373 -278 -650 -334 -280 -57 -594 -71 -1270
-61 -305 5 -323 7 -380 29 -76 30 -148 102 -192 192 -18 37 -55 142 -83 235
-86 284 -170 445 -300 574 -120 121 -232 177 -405 205 -110 18 -141 28 -172
57 -35 33 -30 62 15 84 72 35 508 41 682 9z"/>
<path d="M429 2071 c-16 -16 -29 -36 -29 -45 0 -21 21 -66 31 -66 5 0 18 -19
30 -42 96 -190 294 -289 364 -182 61 93 -48 235 -257 334 -79 37 -102 38 -139
1z"/>
<path d="M5265 1230 c-36 -17 -98 -65 -119 -93 -16 -22 -20 -41 -19 -87 2 -99
54 -163 133 -163 77 0 128 79 137 214 6 76 5 78 -25 108 -31 32 -67 39 -107
21z"/>
</g>
</svg>
