<?xml version="1.0" standalone="no"?>
<!DOCTYPE svg PUBLIC "-//W3C//DTD SVG 20010904//EN"
 "http://www.w3.org/TR/2001/REC-SVG-20010904/DTD/svg10.dtd">
<svg version="1.0" xmlns="http://www.w3.org/2000/svg"
 width="600.000000pt" height="600.000000pt" viewBox="0 0 600.000000 600.000000"
 preserveAspectRatio="xMidYMid meet">
<metadata>
Created by potrace 1.15, written by Peter Selinger 2001-2017
</metadata>
<g transform="translate(0.000000,600.000000) scale(0.100000,-0.100000)"
fill="#16364b" stroke="none">
<path d="M2350 5462 c-65 -35 -138 -186 -147 -303 -7 -80 6 -123 53 -177 73
-86 201 -102 429 -56 70 14 131 24 136 22 5 -2 -18 -41 -51 -87 -192 -268
-402 -635 -416 -727 -15 -100 30 -180 113 -203 42 -12 232 5 458 40 99 15 169
20 290 18 140 -3 164 -1 191 15 94 56 86 208 -13 263 -63 35 -240 41 -467 14
-99 -12 -181 -19 -184 -16 -14 14 229 390 352 545 101 126 121 167 121 251 0
91 -32 139 -121 181 -96 45 -179 42 -477 -18 -48 -9 -89 -15 -92 -12 -3 3 6
31 21 62 19 42 24 66 20 91 -18 95 -127 144 -216 97z"/>
<path d="M1705 5046 c-100 -24 -275 -123 -415 -234 -74 -59 -181 -165 -196
-194 -22 -42 -18 -110 9 -148 37 -55 65 -69 187 -90 164 -29 264 -57 347 -97
60 -27 80 -44 114 -89 51 -69 90 -94 150 -94 80 0 147 62 156 144 7 61 -30
137 -108 221 -66 70 -152 121 -266 155 -40 12 -73 23 -73 25 0 13 157 86 208
98 75 17 127 61 142 119 19 70 -16 145 -84 177 -47 23 -96 25 -171 7z"/>
<path d="M4100 4845 c-130 -27 -251 -81 -356 -158 -112 -82 -126 -183 -35
-260 62 -51 123 -44 217 28 64 50 164 96 220 103 l44 5 0 -49 c0 -94 -42 -237
-127 -438 -63 -148 -63 -161 -8 -255 26 -45 45 -64 78 -80 56 -27 61 -27 284
9 253 41 322 50 356 43 29 -6 29 -6 22 -62 -8 -67 -42 -206 -96 -393 -44 -156
-47 -190 -19 -236 30 -50 76 -74 131 -69 65 5 103 36 128 100 22 62 121 418
145 524 50 227 -17 377 -192 429 -74 22 -213 21 -365 -1 -65 -10 -120 -15
-123 -12 -4 3 8 48 24 99 42 126 49 158 62 260 25 209 -50 371 -194 413 -59
18 -109 18 -196 0z"/>
<path d="M2135 3963 c-11 -3 -60 -20 -110 -38 -128 -47 -272 -82 -407 -98
-130 -16 -164 -32 -192 -91 -35 -75 -13 -158 57 -210 73 -54 372 0 637 114
155 66 193 104 193 187 0 87 -93 158 -178 136z"/>
<path d="M3756 3724 c-62 -15 -292 -130 -460 -228 -83 -50 -101 -65 -117 -100
-24 -54 -24 -82 4 -136 28 -56 77 -90 129 -90 46 0 38 -4 249 121 150 89 189
109 189 94 0 -25 -91 -269 -140 -375 -131 -284 -137 -307 -99 -381 15 -30 32
-46 67 -61 l46 -21 101 25 c261 65 476 190 608 353 65 81 76 122 51 183 -32
76 -117 111 -201 81 -17 -5 -56 -39 -88 -75 -50 -57 -146 -134 -167 -134 -4 0
11 39 32 88 81 182 117 379 90 490 -32 137 -149 202 -294 166z"/>
<path d="M2435 3394 c-161 -22 -361 -77 -397 -108 -88 -77 -75 -220 24 -269
37 -18 40 -18 222 12 187 32 256 38 256 23 0 -14 -47 -144 -69 -192 -26 -58
-26 -93 1 -141 23 -41 85 -79 129 -79 37 1 106 35 124 63 26 40 75 175 97 267
48 201 -8 343 -158 400 -57 21 -166 33 -229 24z"/>
<path d="M1152 3071 c-80 -28 -122 -75 -137 -152 -16 -84 49 -190 130 -211
l41 -11 0 -236 c0 -352 42 -629 108 -716 61 -79 194 -99 271 -41 62 47 91 142
66 209 -9 23 -8 25 36 30 69 7 92 31 158 164 63 125 109 195 169 252 31 30 36
32 42 17 8 -22 -3 -299 -17 -416 -5 -47 -19 -119 -30 -162 -10 -42 -19 -94
-19 -115 0 -81 69 -140 149 -127 145 23 199 149 228 534 23 320 3 430 -99 532
-85 85 -217 113 -318 67 -100 -45 -232 -176 -308 -306 -20 -35 -41 -63 -46
-63 -5 0 -6 88 -2 213 10 310 -11 410 -104 489 -76 66 -210 86 -318 49z"/>
<path d="M4865 2967 c-53 -14 -136 -98 -153 -153 -7 -23 -12 -72 -12 -111 l0
-69 -77 -33 c-172 -73 -320 -177 -384 -271 -66 -95 -84 -171 -84 -345 0 -140
2 -154 27 -212 30 -72 68 -128 132 -200 l46 -51 -33 -13 c-17 -7 -52 -32 -76
-54 -42 -38 -46 -40 -105 -38 -34 1 -82 7 -106 13 -25 6 -110 13 -190 16 -169
7 -242 -5 -357 -62 -92 -46 -172 -119 -279 -255 -47 -59 -94 -111 -104 -114
-11 -3 -49 -33 -86 -67 -75 -67 -151 -108 -205 -108 -53 0 -151 53 -200 108
-49 56 -136 186 -173 259 -54 108 -115 153 -205 153 -90 0 -158 -40 -192 -115
-40 -87 -16 -159 128 -379 109 -167 243 -287 396 -355 220 -99 447 -63 652
104 41 33 89 69 107 80 18 11 61 58 97 105 90 117 183 207 245 236 58 27 157
32 281 13 112 -17 281 -15 352 4 118 31 232 108 270 180 21 42 18 128 -7 177
-19 38 -20 41 -3 46 97 31 154 86 180 173 26 91 1 181 -67 246 -45 43 -60 76
-60 138 0 40 5 58 18 71 23 20 122 68 177 86 249 80 365 255 353 535 -5 117
-24 163 -88 217 -63 54 -129 68 -215 45z"/>
<path d="M3325 2364 c-117 -12 -259 -39 -425 -81 -239 -60 -253 -66 -300 -133
-21 -29 -25 -46 -25 -105 1 -94 30 -148 105 -194 51 -31 110 -27 231 14 179
61 310 95 428 110 63 9 117 13 120 10 3 -4 6 -30 7 -59 4 -116 91 -192 198
-172 108 20 178 139 179 307 1 64 -4 86 -27 132 -57 118 -154 168 -336 172
-63 2 -133 1 -155 -1z"/>
</g>
</svg>
