<?xml version="1.0" standalone="no"?>
<!DOCTYPE svg PUBLIC "-//W3C//DTD SVG 20010904//EN"
 "http://www.w3.org/TR/2001/REC-SVG-20010904/DTD/svg10.dtd">
<svg version="1.0" xmlns="http://www.w3.org/2000/svg"
 width="600.000000pt" height="600.000000pt" viewBox="0 0 600.000000 600.000000"
 preserveAspectRatio="xMidYMid meet">
<metadata>
Created by potrace 1.15, written by Peter Selinger 2001-2017
</metadata>
<g transform="translate(0.000000,600.000000) scale(0.100000,-0.100000)"
fill="#16364b" stroke="none">
<path d="M3552 5257 c-27 -33 -24 -65 14 -137 88 -167 217 -249 254 -160 10
24 9 37 -3 75 -23 65 -103 181 -145 210 -40 27 -102 34 -120 12z m126 -129
c71 -96 83 -140 19 -69 -40 45 -83 121 -68 121 6 0 28 -24 49 -52z"/>
<path d="M2989 5050 c-74 -39 -139 -169 -124 -247 3 -19 17 -46 30 -59 46 -46
120 -24 210 62 90 87 112 179 56 235 -25 25 -37 29 -83 29 -32 -1 -67 -8 -89
-20z m111 -65 c27 -33 -33 -129 -107 -172 -38 -22 -44 -23 -49 -9 -17 45 26
133 85 173 40 27 54 28 71 8z"/>
<path d="M4750 4715 c-20 -21 -25 -40 -31 -122 -19 -229 -6 -456 28 -502 22
-29 70 -39 103 -21 52 28 67 156 50 435 -10 171 -13 192 -32 212 -30 32 -87
31 -118 -2z"/>
<path d="M1581 4235 c-165 -51 -186 -263 -42 -426 85 -97 176 -348 215 -594
63 -389 78 -553 86 -930 7 -318 11 -382 28 -455 56 -234 136 -379 265 -475
103 -78 195 -115 336 -135 l79 -12 -6 -127 c-5 -146 9 -229 78 -460 23 -73 39
-135 38 -137 -2 -1 -45 -5 -96 -8 -129 -8 -169 -31 -179 -105 -5 -36 -2 -44
29 -75 102 -102 368 -14 408 135 11 38 8 54 -34 188 -72 230 -80 271 -80 416
-1 161 6 179 67 171 116 -15 621 -38 758 -34 l155 4 -4 -106 c-8 -195 16 -328
87 -482 17 -37 31 -70 31 -73 0 -3 -38 -5 -85 -5 -121 0 -165 -26 -165 -98 0
-70 70 -108 181 -99 92 8 164 40 200 90 41 56 39 113 -5 220 -60 145 -68 182
-73 342 -3 94 -1 165 6 190 l11 41 130 17 c347 47 660 178 800 335 145 161
217 376 190 560 -22 145 -111 316 -210 406 -143 128 -288 162 -515 122 -49 -9
-160 -19 -245 -23 -142 -5 -167 -4 -295 21 -652 125 -887 298 -1280 941 -114
187 -250 342 -410 470 -27 22 -72 59 -99 83 -120 106 -242 142 -355 107z m145
-155 c14 -6 54 -36 88 -68 33 -32 87 -77 118 -101 136 -102 245 -235 440 -536
134 -207 244 -349 349 -450 232 -223 436 -323 894 -440 251 -64 327 -63 739 5
178 30 307 -38 405 -211 74 -132 92 -270 51 -403 -39 -125 -156 -268 -270
-330 -143 -78 -403 -148 -652 -176 -307 -34 -409 -39 -648 -29 -124 5 -344 13
-490 19 -293 11 -333 17 -435 65 -124 59 -213 173 -264 340 -46 149 -52 213
-61 625 -9 440 -21 556 -95 925 -58 288 -129 469 -232 587 -58 67 -77 115 -63
154 16 42 57 50 126 24z"/>
<path d="M2442 2554 c-30 -20 -30 -68 0 -88 49 -35 108 -7 108 51 0 25 -34 53
-65 53 -11 0 -31 -7 -43 -16z"/>
<path d="M2892 2244 c-15 -11 -22 -25 -22 -50 0 -28 6 -38 31 -53 18 -11 39
-17 48 -14 47 17 70 102 32 123 -28 14 -63 12 -89 -6z"/>
<path d="M2632 4227 c-31 -33 -30 -96 2 -130 44 -48 285 -138 376 -140 66 -2
105 32 105 93 0 67 -10 72 -294 171 -105 36 -159 38 -189 6z"/>
<path d="M5221 3969 c-52 -17 -75 -32 -121 -77 -46 -47 -59 -68 -73 -118 -21
-75 -21 -107 -2 -192 41 -175 184 -282 340 -253 150 28 251 116 295 259 52
167 3 296 -142 376 -41 23 -58 26 -140 25 -64 0 -113 -6 -157 -20z m147 -275
c29 -8 25 -34 -8 -51 -21 -11 -27 -10 -37 4 -31 41 -11 62 45 47z"/>
<path d="M4195 3748 c-90 -34 -175 -125 -201 -216 -49 -166 29 -316 190 -366
178 -56 368 89 370 284 2 185 -94 299 -259 306 -38 2 -83 -1 -100 -8z m101
-314 c-7 -19 -46 -18 -46 1 0 8 10 25 23 38 l22 22 3 -23 c2 -13 1 -30 -2 -38z"/>
<path d="M470 2021 c-5 -11 -7 -27 -4 -35 7 -17 281 -166 306 -166 9 0 21 7
28 15 11 13 10 20 -6 42 -20 27 -267 163 -296 163 -10 0 -22 -9 -28 -19z"/>
<path d="M5368 1105 c-18 -10 -33 -33 -48 -71 -44 -118 -35 -204 23 -229 73
-31 142 34 167 159 21 105 -5 156 -80 156 -19 -1 -47 -7 -62 -15z"/>
</g>
</svg>
