<?xml version="1.0" standalone="no"?>
<!DOCTYPE svg PUBLIC "-//W3C//DTD SVG 20010904//EN"
 "http://www.w3.org/TR/2001/REC-SVG-20010904/DTD/svg10.dtd">
<svg version="1.0" xmlns="http://www.w3.org/2000/svg"
 width="600.000000pt" height="600.000000pt" viewBox="0 0 600.000000 600.000000"
 preserveAspectRatio="xMidYMid meet">
<metadata>
Created by potrace 1.15, written by Peter Selinger 2001-2017
</metadata>
<g transform="translate(0.000000,600.000000) scale(0.100000,-0.100000)"
fill="#16364b" stroke="none">
<path d="M3295 5457 c-63 -30 -101 -102 -88 -168 8 -43 59 -97 97 -105 96 -18
127 -76 106 -203 -6 -40 -20 -99 -31 -130 -24 -72 -24 -112 1 -160 21 -42 85
-81 131 -81 42 1 105 36 127 71 54 88 88 347 63 471 -26 125 -116 245 -215
289 -59 26 -152 34 -191 16z"/>
<path d="M2080 5429 c-58 -24 -86 -69 -99 -164 -24 -168 64 -261 283 -299 49
-9 91 -17 93 -20 2 -2 -8 -59 -22 -127 -15 -68 -29 -171 -32 -229 -5 -98 -4
-107 18 -139 13 -19 36 -43 50 -53 36 -27 111 -28 146 -1 50 37 63 66 79 168
8 55 26 155 40 223 18 85 25 144 22 190 -8 151 -112 255 -267 268 -99 9 -101
10 -101 52 0 104 -108 171 -210 131z"/>
<path d="M1678 4799 c-85 -12 -288 -59 -330 -76 -72 -29 -121 -112 -104 -178
4 -14 22 -43 41 -63 32 -35 36 -37 97 -37 35 1 113 13 173 28 132 33 281 44
345 27 89 -24 132 -24 170 2 92 61 91 192 -1 260 -58 43 -237 60 -391 37z"/>
<path d="M4272 4510 c-21 -13 -41 -38 -54 -67 -18 -40 -19 -51 -8 -86 17 -56
55 -88 137 -115 90 -29 131 -57 157 -107 18 -34 21 -59 22 -176 1 -105 5 -143
18 -168 49 -93 204 -96 258 -4 9 16 22 75 29 131 39 313 -78 502 -365 591 -87
27 -151 27 -194 1z"/>
<path d="M3196 4445 c-16 -9 -59 -37 -95 -64 -67 -48 -144 -97 -376 -237 -71
-43 -147 -94 -167 -114 -62 -61 -64 -152 -3 -218 31 -35 37 -37 92 -37 49 0
65 5 103 31 25 17 108 66 185 109 178 99 231 133 332 211 108 84 128 113 128
185 0 64 -19 100 -68 129 -38 24 -91 25 -131 5z"/>
<path d="M1577 4425 c-127 -45 -156 -182 -55 -258 44 -33 38 -31 318 -71 398
-57 399 -57 439 -46 81 22 126 123 88 197 -23 43 -81 91 -119 97 -18 3 -130
21 -248 40 -200 33 -362 57 -378 56 -4 -1 -24 -7 -45 -15z"/>
<path d="M2275 3830 c-91 -27 -310 -52 -470 -54 -150 -1 -174 -4 -204 -21
-123 -72 -108 -247 25 -284 88 -24 495 -4 677 35 86 18 124 39 155 85 20 28
23 44 20 92 -5 63 -26 101 -74 129 -38 22 -91 29 -129 18z"/>
<path d="M3659 3817 c-30 -13 -118 -57 -195 -99 -172 -94 -323 -169 -387 -193
-61 -23 -103 -65 -117 -116 -22 -79 26 -160 104 -174 40 -8 106 17 326 123 85
41 192 92 236 113 l82 38 38 -20 c71 -37 159 -14 198 53 23 38 30 106 17 156
-13 47 -60 106 -102 128 -42 21 -135 17 -200 -9z"/>
<path d="M4977 3524 c-66 -21 -129 -84 -147 -148 -11 -42 -11 -60 1 -120 7
-39 14 -109 14 -156 0 -78 -3 -91 -35 -153 -19 -37 -75 -122 -125 -190 -111
-150 -168 -240 -211 -333 -91 -200 -98 -327 -22 -418 63 -77 171 -98 264 -51
58 29 103 85 128 160 27 82 87 181 210 345 113 151 170 245 202 332 89 242 82
541 -16 660 -58 70 -171 101 -263 72z"/>
<path d="M2009 3190 c-122 -36 -162 -191 -71 -273 28 -26 102 -43 282 -66 124
-16 157 -24 165 -38 21 -38 77 -82 111 -89 175 -33 249 170 119 324 -51 60
-115 83 -302 108 -65 8 -152 22 -193 30 -41 8 -77 14 -80 13 -3 0 -17 -4 -31
-9z"/>
<path d="M4341 3155 c-18 -8 -60 -39 -92 -69 -161 -150 -444 -276 -719 -321
-115 -19 -142 -30 -183 -70 -41 -41 -53 -98 -32 -151 33 -88 90 -108 255 -93
211 19 313 50 525 157 239 121 394 226 448 302 19 28 23 104 6 147 -22 59 -96
114 -151 113 -13 -1 -38 -7 -57 -15z"/>
<path d="M1380 2977 c-79 -25 -140 -126 -126 -207 21 -116 26 -162 36 -320 19
-307 53 -460 145 -640 72 -139 111 -185 178 -206 44 -13 59 -14 97 -4 82 22
150 113 150 202 0 15 -20 66 -45 113 -87 164 -140 378 -160 645 -10 124 -33
263 -51 310 -20 49 -71 95 -121 109 -45 13 -57 13 -103 -2z"/>
<path d="M2155 2410 c-115 -24 -215 -82 -245 -140 -51 -99 9 -214 122 -235 30
-6 50 -1 104 24 37 17 84 34 106 38 37 5 42 3 84 -40 71 -75 156 -82 216 -20
130 137 -35 366 -273 378 -41 2 -92 0 -114 -5z"/>
<path d="M4035 2103 c-16 -2 -154 -19 -305 -38 -160 -20 -340 -50 -430 -70
-85 -20 -224 -46 -307 -59 -95 -15 -165 -31 -185 -43 -78 -45 -107 -184 -57
-274 32 -57 87 -89 157 -89 71 0 271 33 422 70 295 73 528 110 719 116 127 3
137 5 180 32 76 46 114 138 91 221 -29 107 -129 154 -285 134z"/>
<path d="M2241 1790 c-44 -10 -81 -39 -106 -81 -28 -47 -24 -149 9 -254 45
-142 133 -264 249 -346 64 -45 75 -49 126 -49 94 0 161 64 161 155 0 54 -24
90 -90 135 -58 39 -109 101 -131 157 -6 15 -14 63 -19 106 -10 87 -27 123 -73
154 -39 25 -81 33 -126 23z"/>
<path d="M4737 1676 c-21 -8 -72 -47 -115 -88 -122 -116 -236 -168 -512 -234
-396 -94 -496 -125 -624 -192 -77 -40 -109 -80 -126 -155 -19 -86 24 -187 93
-220 61 -30 115 -22 211 28 116 62 230 97 465 145 329 67 451 111 594 213 83
60 205 189 229 245 68 152 -66 313 -215 258z"/>
<path d="M2032 1024 c-97 -48 -137 -162 -93 -260 31 -69 230 -207 413 -286
246 -106 480 -132 706 -78 105 25 223 74 250 103 58 61 69 169 25 248 -54 101
-143 119 -268 56 -97 -48 -160 -61 -269 -54 -191 12 -383 93 -531 225 -88 78
-145 90 -233 46z"/>
</g>
</svg>
