<?xml version="1.0" standalone="no"?>
<!DOCTYPE svg PUBLIC "-//W3C//DTD SVG 20010904//EN"
 "http://www.w3.org/TR/2001/REC-SVG-20010904/DTD/svg10.dtd">
<svg version="1.0" xmlns="http://www.w3.org/2000/svg"
 width="600.000000pt" height="600.000000pt" viewBox="0 0 600.000000 600.000000"
 preserveAspectRatio="xMidYMid meet">
<metadata>
Created by potrace 1.15, written by Peter Selinger 2001-2017
</metadata>
<g transform="translate(0.000000,600.000000) scale(0.100000,-0.100000)"
fill="#16364b" stroke="none">
<path d="M2873 5510 c-69 -41 -84 -138 -34 -207 78 -108 96 -181 87 -352 -7
-121 -6 -128 16 -161 65 -97 210 -91 261 11 38 78 39 288 2 431 -31 123 -109
249 -176 283 -40 21 -117 19 -156 -5z"/>
<path d="M1960 5428 c-129 -88 -72 -270 125 -398 78 -51 103 -94 156 -272 44
-145 62 -178 113 -202 86 -41 178 3 206 100 11 37 9 53 -30 190 -70 245 -119
328 -243 414 -53 37 -79 62 -97 97 -34 64 -79 93 -145 93 -38 0 -61 -6 -85
-22z"/>
<path d="M1473 4771 c-104 -9 -160 -57 -170 -144 -5 -37 -1 -54 20 -90 38 -64
66 -73 242 -81 193 -8 305 -22 375 -48 81 -30 157 -34 197 -9 83 52 89 187 11
257 -68 62 -204 101 -398 114 -153 10 -164 10 -277 1z"/>
<path d="M4355 4736 c-41 -19 -71 -54 -84 -100 -11 -44 -1 -84 49 -184 36 -73
137 -294 174 -382 32 -76 51 -101 97 -129 63 -39 135 -23 176 38 40 59 33 97
-67 341 -57 140 -138 319 -161 356 -21 35 -90 74 -130 74 -13 -1 -37 -7 -54
-14z"/>
<path d="M3189 4506 c-14 -7 -102 -90 -195 -183 -93 -93 -223 -212 -289 -265
-144 -114 -151 -122 -163 -173 -22 -103 38 -185 135 -185 48 0 67 10 209 111
180 129 268 217 431 431 66 86 76 135 43 204 -33 67 -107 93 -171 60z"/>
<path d="M1713 4308 c-112 -37 -139 -190 -44 -257 39 -28 128 -40 366 -47 295
-10 380 8 424 86 40 72 16 167 -55 210 -33 21 -42 22 -117 14 -100 -10 -318
-11 -447 -2 -58 4 -107 2 -127 -4z"/>
<path d="M3805 4078 c-11 -6 -74 -63 -140 -127 -192 -185 -368 -298 -599 -386
-143 -54 -158 -63 -181 -111 -46 -97 38 -214 152 -214 91 0 590 259 748 387
76 62 199 192 216 228 10 22 19 56 19 75 0 51 -34 116 -72 140 -37 22 -110 26
-143 8z"/>
<path d="M2275 3768 c-22 -6 -173 -11 -336 -13 -194 -2 -303 -6 -317 -14 -34
-18 -63 -67 -68 -118 -5 -38 -1 -57 18 -93 30 -55 64 -76 148 -89 98 -16 420
-13 557 4 182 24 228 57 228 164 0 71 -31 122 -91 151 -44 22 -76 23 -139 8z"/>
<path d="M5072 3700 c-47 -11 -108 -55 -136 -98 -40 -59 -48 -117 -31 -207 21
-106 19 -217 -5 -309 -40 -156 -178 -370 -360 -556 -106 -109 -133 -158 -133
-241 1 -64 17 -100 65 -146 67 -65 171 -82 258 -42 57 26 219 190 322 324 94
125 206 310 247 410 95 226 116 525 50 701 -29 77 -90 138 -160 158 -57 17
-68 18 -117 6z"/>
<path d="M1965 3130 c-57 -29 -89 -80 -89 -144 0 -76 30 -119 113 -160 119
-60 190 -77 371 -86 159 -9 166 -9 209 13 58 28 83 64 88 124 3 37 -1 57 -19
87 -34 58 -74 74 -218 86 -154 13 -195 22 -291 66 -89 39 -109 41 -164 14z"/>
<path d="M4429 3117 c-19 -8 -71 -42 -115 -78 -240 -195 -560 -325 -887 -359
-57 -6 -99 -16 -120 -29 -93 -58 -93 -192 0 -256 32 -21 49 -25 109 -25 205 0
622 121 836 243 145 83 360 259 377 310 43 123 -77 238 -200 194z"/>
<path d="M1447 2940 c-47 -14 -94 -57 -118 -107 -20 -42 -23 -66 -27 -214 -6
-223 18 -377 95 -614 48 -148 139 -304 217 -373 119 -104 302 -32 323 128 8
54 -9 95 -75 182 -137 183 -208 457 -184 711 14 145 7 182 -46 235 -53 53
-120 71 -185 52z"/>
<path d="M2129 2348 c-72 -19 -123 -102 -105 -172 11 -45 63 -93 119 -111 91
-30 220 -87 275 -123 94 -63 182 -51 232 30 24 40 26 107 4 153 -29 62 -133
124 -304 183 -136 46 -173 53 -221 40z"/>
<path d="M4105 2066 c-55 -18 -162 -57 -238 -85 -293 -109 -403 -132 -875
-181 -164 -17 -232 -77 -232 -205 0 -64 16 -102 60 -139 58 -48 90 -51 292
-27 457 55 618 91 983 221 326 116 314 111 349 153 27 34 31 47 31 97 -1 45
-6 66 -28 99 -70 105 -172 125 -342 67z"/>
<path d="M4863 1727 c-12 -7 -65 -58 -117 -114 -140 -148 -266 -225 -491 -302
-66 -22 -174 -52 -240 -66 -302 -64 -386 -87 -433 -119 -106 -72 -121 -220
-30 -289 64 -49 101 -51 270 -18 84 16 182 35 218 41 163 28 338 80 511 151
216 88 355 185 486 337 77 90 96 129 96 197 0 114 -82 195 -195 195 -29 -1
-63 -6 -75 -13z"/>
<path d="M2024 1466 c-59 -26 -93 -99 -79 -172 18 -100 283 -297 496 -369 85
-29 217 -50 264 -41 97 19 152 131 109 222 -26 54 -63 74 -170 90 -164 25
-278 81 -405 200 -38 35 -80 69 -94 74 -36 14 -84 12 -121 -4z"/>
<path d="M2020 922 c-47 -26 -97 -92 -105 -140 -18 -111 38 -176 235 -274 236
-116 378 -148 670 -148 180 0 335 17 422 46 201 66 152 374 -59 374 -27 0 -64
-5 -83 -10 -70 -21 -232 -40 -334 -40 -191 0 -312 35 -502 147 -115 67 -181
79 -244 45z"/>
</g>
</svg>
