<?xml version="1.0" standalone="no"?>
<!DOCTYPE svg PUBLIC "-//W3C//DTD SVG 20010904//EN"
 "http://www.w3.org/TR/2001/REC-SVG-20010904/DTD/svg10.dtd">
<svg version="1.0" xmlns="http://www.w3.org/2000/svg"
 width="600.000000pt" height="600.000000pt" viewBox="0 0 600.000000 600.000000"
 preserveAspectRatio="xMidYMid meet">
<metadata>
Created by potrace 1.15, written by Peter Selinger 2001-2017
</metadata>
<g transform="translate(0.000000,600.000000) scale(0.100000,-0.100000)"
fill="#16364b" stroke="none">
<path d="M3038 5078 c-73 -19 -158 -144 -158 -231 0 -72 56 -126 117 -113 31
7 103 61 134 100 55 69 66 174 24 220 -13 14 -31 26 -39 26 -8 0 -20 2 -28 4
-7 2 -30 -1 -50 -6z m73 -79 c8 -17 7 -31 -6 -64 -19 -50 -107 -138 -133 -133
-48 9 -3 156 61 197 41 26 63 26 78 0z"/>
<path d="M4766 4707 c-22 -22 -23 -33 -29 -212 -11 -298 -9 -377 8 -402 36
-51 117 -31 134 35 16 58 23 315 13 441 -8 107 -11 116 -36 138 -34 29 -61 29
-90 0z"/>
<path d="M1670 4409 c-98 -44 -145 -117 -144 -224 0 -77 20 -127 79 -200 41
-51 48 -66 74 -145 54 -165 75 -301 101 -665 11 -159 30 -353 42 -430 16 -108
22 -216 28 -475 6 -290 10 -347 28 -425 77 -328 195 -492 417 -580 57 -22 209
-55 261 -55 7 0 8 -15 3 -48 -23 -138 2 -344 65 -538 20 -61 36 -118 36 -126
0 -12 -18 -16 -79 -21 -43 -3 -94 -12 -113 -21 -37 -18 -68 -61 -68 -96 0 -33
30 -78 62 -91 42 -17 163 -6 225 21 58 25 129 94 139 135 10 38 -2 101 -31
175 -69 172 -103 386 -85 522 6 45 17 86 23 91 7 4 23 5 37 3 60 -12 551 -28
721 -24 l186 5 -5 -80 c-3 -44 1 -112 8 -151 15 -92 72 -310 104 -405 14 -40
23 -78 20 -83 -4 -6 -34 -7 -75 -3 -80 8 -130 -5 -159 -42 -46 -59 -6 -140 81
-163 97 -27 237 17 284 88 43 66 43 101 -4 242 -93 277 -124 446 -102 552 14
63 12 62 126 73 107 11 458 82 537 109 178 62 336 231 404 431 46 137 34 333
-32 527 -32 96 -64 147 -124 201 -77 69 -136 87 -320 97 -277 16 -425 39 -651
104 -312 89 -520 187 -737 349 -208 155 -374 350 -567 667 -121 200 -213 333
-290 421 -36 41 -90 104 -120 141 -60 73 -122 121 -186 143 -59 21 -145 19
-199 -6z m169 -155 c36 -18 67 -45 97 -83 24 -31 59 -68 78 -83 55 -44 170
-205 292 -409 139 -232 176 -287 272 -409 152 -192 338 -353 550 -480 197
-116 293 -157 523 -224 254 -73 531 -121 764 -131 102 -4 128 -9 173 -31 62
-30 109 -93 141 -190 79 -239 38 -468 -113 -618 -34 -34 -84 -73 -111 -88 -61
-32 -214 -70 -418 -103 -269 -43 -374 -50 -737 -50 -680 1 -853 4 -916 20
-208 54 -324 192 -394 468 -37 147 -50 279 -50 500 0 118 -7 240 -20 347 -11
91 -24 286 -30 435 -11 303 -21 399 -56 568 -40 191 -90 315 -160 400 -51 61
-49 143 5 172 37 20 50 19 110 -11z"/>
<path d="M2464 2587 c-36 -32 -28 -71 21 -94 34 -16 36 -16 63 4 36 27 42 75
10 97 -31 22 -62 20 -94 -7z"/>
<path d="M2937 2322 c-28 -31 -22 -70 16 -92 40 -25 42 -25 67 0 24 24 26 72
4 94 -21 22 -67 20 -87 -2z"/>
<path d="M5200 3973 c-64 -23 -142 -105 -165 -172 -80 -241 111 -500 352 -478
111 11 197 72 252 180 62 121 59 245 -6 329 -40 51 -148 128 -201 144 -59 18
-176 16 -232 -3z m165 -295 c31 -14 32 -23 0 -44 -30 -20 -55 -5 -55 32 0 27
15 30 55 12z"/>
<path d="M4214 3750 c-50 -16 -125 -71 -161 -118 -65 -86 -79 -211 -35 -299
25 -48 88 -107 139 -129 128 -56 291 15 364 158 45 87 33 252 -22 322 -35 45
-95 69 -179 72 -41 2 -89 -1 -106 -6z m96 -257 c0 -29 -16 -45 -40 -41 l-22 3
22 28 c25 31 40 35 40 10z"/>
<path d="M5351 1091 c-10 -10 -29 -49 -41 -86 -42 -127 -12 -215 75 -215 31 0
49 7 69 25 73 67 86 236 23 280 -31 22 -103 19 -126 -4z"/>
</g>
</svg>
