<?xml version="1.0" standalone="no"?>
<!DOCTYPE svg PUBLIC "-//W3C//DTD SVG 20010904//EN"
 "http://www.w3.org/TR/2001/REC-SVG-20010904/DTD/svg10.dtd">
<svg version="1.0" xmlns="http://www.w3.org/2000/svg"
 width="600.000000pt" height="600.000000pt" viewBox="0 0 600.000000 600.000000"
 preserveAspectRatio="xMidYMid meet">
<metadata>
Created by potrace 1.15, written by Peter Selinger 2001-2017
</metadata>
<g transform="translate(0.000000,600.000000) scale(0.100000,-0.100000)"
fill="#16364b" stroke="none">
<path d="M2215 5752 c-99 -47 -438 -316 -606 -482 -133 -131 -163 -184 -157
-276 3 -52 9 -70 34 -101 63 -79 179 -107 343 -83 157 23 625 166 713 217 52
30 72 66 76 136 4 72 -17 116 -69 142 -48 25 -101 16 -337 -59 -117 -37 -215
-66 -218 -63 -7 7 159 142 283 229 145 103 163 124 163 192 0 118 -120 197
-225 148z"/>
<path d="M3049 5657 c-41 -28 -59 -60 -59 -110 0 -83 52 -134 178 -172 189
-58 323 -156 352 -259 23 -84 -4 -202 -67 -284 -33 -43 -129 -106 -196 -128
-109 -35 -147 -76 -147 -158 0 -50 30 -95 81 -121 98 -51 328 35 470 175 187
185 227 436 107 674 -79 158 -254 290 -493 371 -121 42 -178 45 -226 12z"/>
<path d="M984 5332 c-105 -36 -201 -116 -259 -216 -136 -232 -104 -487 85
-676 90 -91 152 -125 216 -117 77 8 144 79 144 152 0 43 -35 97 -103 157 -162
143 -158 298 10 396 37 22 79 51 91 65 49 52 47 145 -5 199 -51 54 -103 66
-179 40z"/>
<path d="M4795 4935 c-50 -18 -83 -57 -113 -133 -23 -56 -23 -64 -13 -153 15
-122 42 -210 86 -284 50 -82 69 -101 142 -137 53 -26 71 -30 115 -26 144 13
278 144 295 288 20 166 -169 377 -396 444 -65 19 -65 19 -116 1z"/>
<path d="M2715 4904 c-110 -62 -203 -163 -257 -282 -40 -86 -50 -220 -24 -300
20 -59 82 -134 146 -174 61 -39 189 -78 254 -78 117 0 190 111 140 215 -21 45
-49 62 -133 79 -75 16 -126 44 -136 76 -8 25 19 88 53 124 15 15 53 46 84 67
32 22 65 53 73 69 32 62 11 150 -45 190 -42 30 -114 36 -155 14z"/>
<path d="M1840 4399 c-118 -23 -288 -145 -333 -241 -32 -67 -15 -159 36 -193
80 -52 143 -39 237 50 95 89 146 102 230 60 95 -48 190 -23 230 60 53 110 -29
214 -207 260 -62 16 -123 18 -193 4z"/>
<path d="M2620 3844 c-104 -20 -171 -38 -199 -55 -95 -58 -95 -200 1 -259 37
-22 102 -26 158 -10 19 6 79 13 132 17 84 5 98 4 104 -10 19 -50 -58 -169
-350 -542 -39 -49 -91 -115 -117 -145 -60 -71 -69 -90 -69 -140 0 -81 59 -149
136 -158 89 -10 96 -4 330 288 227 283 327 441 368 579 20 70 20 164 0 225
-23 68 -99 147 -176 181 -56 26 -76 29 -178 31 -63 1 -126 0 -140 -2z"/>
<path d="M4243 3790 c-172 -31 -301 -127 -338 -252 -46 -155 14 -302 150 -370
129 -65 290 -38 404 68 76 70 122 138 171 252 65 149 50 241 -47 287 -44 21
-253 30 -340 15z m21 -324 c-3 -7 -17 -19 -31 -25 -36 -16 -52 1 -22 23 29 20
60 21 53 2z"/>
<path d="M1194 3696 c-83 -19 -302 -120 -341 -158 -84 -82 -64 -225 40 -289
42 -25 111 -34 155 -21 20 6 37 10 39 8 4 -3 -81 -170 -156 -306 -94 -172
-146 -308 -181 -482 -28 -136 -27 -194 7 -245 47 -73 149 -108 243 -83 41 10
80 47 395 366 193 195 354 354 358 354 10 0 8 -10 -49 -260 -92 -395 -126
-528 -174 -681 -53 -166 -59 -212 -35 -260 49 -95 207 -90 261 7 26 46 122
304 158 424 25 83 79 317 132 575 15 72 30 148 35 170 20 96 3 288 -31 356
-60 116 -175 145 -298 73 -39 -23 -223 -187 -385 -343 -66 -63 -65 -54 5 72
27 48 66 124 87 170 93 200 95 371 5 475 -66 78 -155 103 -270 78z"/>
<path d="M3533 3345 c-133 -58 -213 -179 -242 -365 -11 -68 -10 -76 11 -118
41 -81 117 -99 283 -67 138 26 219 77 268 169 30 57 29 162 -1 230 -34 75 -66
111 -124 140 -60 30 -142 34 -195 11z"/>
<path d="M4850 2703 c-176 -29 -306 -146 -326 -291 l-6 -50 -47 25 c-39 21
-56 24 -113 21 -86 -5 -140 -39 -180 -117 -33 -63 -36 -122 -12 -230 9 -40 14
-75 11 -78 -4 -3 -48 6 -99 21 -129 36 -207 42 -288 22 -121 -31 -214 -119
-251 -237 -25 -79 -24 -127 5 -322 13 -89 27 -196 31 -237 4 -47 15 -94 31
-126 91 -192 376 -141 425 76 5 23 0 86 -14 182 -11 81 -19 150 -16 153 7 6
102 -26 147 -49 74 -38 263 -6 370 63 109 71 154 160 154 306 1 83 -17 201
-41 284 -6 19 -9 36 -8 37 1 2 30 -11 64 -28 84 -41 160 -42 233 -2 98 53 148
163 157 344 4 96 3 109 -19 150 -40 78 -99 101 -208 83z"/>
<path d="M2875 2419 c-79 -19 -402 -170 -507 -238 -65 -42 -91 -94 -86 -175 2
-33 8 -69 12 -78 7 -15 4 -16 -31 -6 -79 22 -195 -10 -267 -72 -64 -57 -84
-120 -61 -196 19 -64 67 -111 132 -130 44 -13 54 -20 59 -42 3 -15 18 -71 33
-124 l28 -98 -43 -32 c-109 -84 -145 -202 -109 -356 40 -167 237 -435 377
-511 65 -35 215 -88 301 -105 165 -34 341 -11 497 67 95 47 125 81 136 152 9
61 -17 132 -64 178 -74 72 -142 76 -276 16 -117 -53 -168 -55 -281 -10 -44 18
-98 44 -120 59 l-40 27 62 6 c121 12 213 100 213 205 0 73 -31 125 -108 183
-118 87 -153 154 -222 426 -24 96 -55 178 -97 256 -2 4 24 9 59 12 55 4 85 16
228 91 225 117 254 129 258 109 8 -32 -74 -252 -147 -397 -60 -120 -76 -160
-76 -196 0 -60 31 -118 84 -155 36 -26 52 -30 104 -30 95 0 143 33 205 138
110 189 212 450 249 635 13 68 14 94 5 143 -41 223 -230 315 -507 248z"/>
</g>
</svg>
