<?xml version="1.0" standalone="no"?>
<!DOCTYPE svg PUBLIC "-//W3C//DTD SVG 20010904//EN"
 "http://www.w3.org/TR/2001/REC-SVG-20010904/DTD/svg10.dtd">
<svg version="1.0" xmlns="http://www.w3.org/2000/svg"
 width="600.000000pt" height="600.000000pt" viewBox="0 0 600.000000 600.000000"
 preserveAspectRatio="xMidYMid meet">
<metadata>
Created by potrace 1.15, written by Peter Selinger 2001-2017
</metadata>
<g transform="translate(0.000000,600.000000) scale(0.100000,-0.100000)"
fill="#16364b" stroke="none">
<path d="M2388 5388 c-12 -11 -17 -45 -22 -173 -17 -429 -89 -611 -279 -711
-39 -20 -75 -42 -79 -48 -23 -33 7 -86 48 -86 11 0 52 16 93 35 97 47 167 119
220 227 67 137 96 289 108 568 6 146 5 162 -12 180 -21 23 -54 26 -77 8z"/>
<path d="M3521 5259 c-29 -47 -26 -76 14 -156 74 -149 214 -236 275 -171 40
43 20 123 -61 238 -56 80 -100 112 -160 118 -46 4 -49 3 -68 -29z"/>
<path d="M3004 5081 c-79 -36 -154 -158 -154 -251 0 -62 26 -116 65 -134 42
-20 51 -20 100 3 93 42 185 176 187 272 3 107 -91 159 -198 110z m88 -121 c-7
-52 -90 -160 -123 -160 -12 0 -11 26 2 73 21 78 130 156 121 87z"/>
<path d="M4762 4733 c-34 -13 -42 -60 -42 -230 0 -246 24 -370 81 -418 38 -31
86 -33 123 -4 84 66 71 349 -28 571 -34 76 -79 103 -134 81z"/>
<path d="M2638 4205 c-54 -30 -74 -107 -41 -155 23 -33 38 -45 100 -74 154
-74 359 -82 425 -15 22 21 28 37 28 70 0 66 -23 82 -184 135 -162 53 -279 67
-328 39z"/>
<path d="M5263 3980 c-134 -20 -211 -97 -233 -234 -20 -127 40 -294 131 -366
62 -49 114 -64 202 -57 52 3 86 13 142 41 213 106 273 354 119 497 -106 98
-228 138 -361 119z m135 -325 c10 -9 -9 -36 -30 -44 -18 -7 -27 -5 -40 11 -32
36 -24 51 24 44 23 -4 44 -9 46 -11z"/>
<path d="M1378 3819 c-222 -31 -320 -256 -191 -441 36 -53 131 -123 197 -145
103 -36 192 -166 251 -369 46 -157 120 -633 134 -864 15 -235 51 -348 166
-519 94 -141 203 -229 334 -271 39 -12 71 -24 71 -25 0 -2 -21 -13 -47 -26
-134 -65 -193 -181 -125 -249 38 -38 117 -53 235 -46 51 3 171 11 268 17 97 7
184 9 193 6 14 -6 13 -11 -9 -43 -29 -43 -30 -55 -10 -93 17 -33 33 -41 84
-41 66 0 111 66 111 164 0 61 -25 107 -79 143 -29 20 -47 23 -120 23 -47 0
-126 -4 -176 -9 -49 -6 -142 -12 -205 -16 -102 -5 -113 -4 -97 8 24 20 83 39
262 83 l150 37 349 -6 349 -6 26 -25 c49 -46 111 -58 271 -54 l146 3 31 -34
c28 -32 36 -35 94 -39 57 -3 69 0 109 26 28 18 54 47 70 75 21 41 23 51 13 78
-7 18 -10 35 -8 39 2 4 30 12 62 20 159 35 388 141 521 240 200 148 307 302
358 516 21 84 23 256 5 338 -48 217 -189 410 -363 496 -142 70 -281 84 -431
45 -104 -27 -166 -65 -272 -165 -140 -133 -255 -190 -498 -246 -255 -58 -422
-35 -642 88 -218 123 -309 218 -555 578 -168 246 -206 296 -303 397 -132 138
-250 209 -449 272 -138 43 -197 51 -280 40z m127 -248 c171 -53 275 -112 383
-215 121 -116 234 -259 400 -511 109 -165 166 -240 226 -300 132 -132 377
-285 556 -347 91 -31 101 -32 250 -33 134 0 172 4 285 29 165 36 365 105 478
164 58 31 118 73 173 124 101 91 162 119 276 126 55 3 91 -1 127 -13 144 -48
261 -251 261 -455 0 -150 -61 -282 -187 -408 -75 -74 -96 -89 -216 -147 -232
-113 -429 -164 -707 -185 -207 -16 -1259 4 -1364 25 -151 31 -258 106 -319
223 -52 99 -75 195 -97 407 -11 105 -24 213 -29 240 -5 28 -21 140 -36 250
-27 207 -48 306 -91 427 -39 108 -106 247 -151 314 -71 104 -122 142 -275 208
-39 16 -74 58 -63 76 8 12 80 13 120 1z"/>
<path d="M2294 2435 c-19 -29 -12 -57 23 -85 48 -38 93 -16 93 45 0 61 -83 90
-116 40z"/>
<path d="M2848 2049 c-30 -17 -40 -46 -27 -71 36 -67 102 -62 123 9 5 17 1 29
-18 48 -27 27 -50 31 -78 14z"/>
<path d="M4164 3729 c-103 -39 -185 -142 -200 -250 -15 -108 60 -233 168 -279
43 -19 65 -22 128 -18 135 8 243 83 284 198 23 63 19 206 -7 257 -49 95 -243
142 -373 92z m116 -247 c0 -10 -5 -23 -12 -30 -17 -17 -48 -15 -48 2 0 14 36
46 52 46 5 0 8 -8 8 -18z"/>
<path d="M3442 3327 c-30 -32 -144 -266 -144 -296 -1 -29 26 -51 62 -51 66 0
215 240 196 315 -14 56 -75 74 -114 32z"/>
<path d="M456 2024 c-35 -34 -21 -67 59 -135 165 -141 285 -168 285 -64 0 27
-8 40 -39 67 -43 36 -249 148 -274 148 -9 0 -23 -7 -31 -16z"/>
<path d="M5314 1097 c-50 -42 -77 -151 -53 -214 19 -50 48 -73 94 -73 78 0
121 62 132 190 7 87 -10 111 -88 118 -48 4 -59 1 -85 -21z"/>
</g>
</svg>
