<?xml version="1.0" standalone="no"?>
<!DOCTYPE svg PUBLIC "-//W3C//DTD SVG 20010904//EN"
 "http://www.w3.org/TR/2001/REC-SVG-20010904/DTD/svg10.dtd">
<svg version="1.0" xmlns="http://www.w3.org/2000/svg"
 width="600.000000pt" height="600.000000pt" viewBox="0 0 600.000000 600.000000"
 preserveAspectRatio="xMidYMid meet">
<metadata>
Created by potrace 1.15, written by Peter Selinger 2001-2017
</metadata>
<g transform="translate(0.000000,600.000000) scale(0.100000,-0.100000)"
fill="#16364b" stroke="none">
<path d="M2085 5822 c-17 -11 -55 -48 -85 -83 -30 -35 -83 -96 -120 -134 -137
-148 -168 -182 -231 -260 -80 -97 -136 -178 -156 -225 -20 -48 -20 -137 0
-176 55 -106 168 -121 353 -49 100 40 616 293 644 317 75 62 64 188 -20 246
-60 40 -104 32 -257 -49 -74 -39 -137 -68 -141 -65 -3 4 19 32 50 64 93 95
168 194 179 235 13 48 4 93 -28 135 -46 61 -128 80 -188 44z"/>
<path d="M3032 5690 c-65 -40 -89 -120 -58 -194 20 -48 61 -81 130 -107 307
-111 456 -257 456 -446 0 -95 -65 -155 -233 -214 -104 -36 -147 -77 -147 -141
0 -85 73 -149 168 -149 90 0 241 58 327 125 133 104 194 237 182 400 -18 240
-127 415 -355 567 -122 82 -200 123 -296 155 -85 29 -131 30 -174 4z"/>
<path d="M913 5336 c-121 -45 -210 -138 -265 -275 -19 -48 -22 -75 -23 -186 0
-128 1 -131 34 -200 43 -89 173 -223 242 -249 61 -23 115 -10 158 39 65 75 52
158 -38 232 -77 62 -115 129 -109 188 8 63 39 99 116 136 140 65 154 79 160
166 3 49 0 64 -20 93 -56 82 -136 100 -255 56z"/>
<path d="M2715 4956 c-64 -29 -128 -101 -156 -175 -31 -80 -31 -198 -1 -265
50 -110 144 -183 266 -205 146 -27 229 5 257 97 10 35 9 48 -5 87 -25 64 -73
95 -148 95 -80 0 -110 15 -106 54 3 30 5 31 58 36 31 3 68 13 84 23 38 25 70
99 61 143 -20 110 -185 169 -310 110z"/>
<path d="M4785 4924 c-46 -24 -93 -74 -106 -113 -15 -45 -6 -217 17 -308 50
-203 168 -331 320 -349 141 -17 276 87 303 233 28 148 -74 348 -232 455 -131
89 -235 117 -302 82z"/>
<path d="M1880 4572 c-77 -26 -110 -45 -178 -101 -67 -56 -97 -114 -86 -165
18 -86 77 -136 161 -136 46 0 56 4 104 45 68 58 96 59 139 5 40 -50 77 -70
130 -70 83 0 163 69 176 152 14 82 -79 204 -194 255 -77 34 -177 40 -252 15z"/>
<path d="M2864 3911 c-72 -44 -87 -86 -119 -351 -14 -113 -32 -252 -40 -310
-8 -58 -11 -116 -8 -130 19 -79 69 -120 146 -120 58 0 98 19 132 64 27 35 31
66 75 479 6 62 15 95 29 113 43 54 36 142 -15 210 -48 62 -139 82 -200 45z"/>
<path d="M1182 3865 c-85 -24 -258 -94 -287 -116 -42 -34 -69 -96 -69 -159 1
-123 86 -194 209 -176 25 4 45 5 45 3 0 -2 -43 -78 -96 -168 -184 -315 -319
-618 -349 -780 -23 -122 88 -223 217 -198 24 4 46 8 50 9 8 0 91 67 259 210
134 114 502 422 561 470 l31 25 -6 -80 c-8 -92 -43 -241 -85 -365 -40 -116
-233 -563 -294 -681 -45 -86 -49 -101 -43 -137 7 -43 43 -88 83 -103 32 -12
105 -11 139 2 66 25 122 110 188 284 21 55 79 199 128 320 111 274 159 416
192 572 24 113 25 129 16 245 -16 193 -45 266 -129 315 -120 71 -273 10 -507
-200 -38 -35 -76 -67 -82 -71 -18 -10 -7 15 50 114 75 129 144 270 157 320 38
142 -12 274 -125 333 -52 27 -178 33 -253 12z"/>
<path d="M4210 3792 c-123 -32 -221 -109 -268 -211 -88 -187 44 -409 256 -428
136 -12 279 68 366 205 43 69 106 241 106 291 0 54 -27 104 -67 124 -74 38
-282 48 -393 19z m57 -317 c-33 -29 -79 -36 -56 -9 15 18 46 33 69 33 10 0 5
-8 -13 -24z"/>
<path d="M3487 3386 c-100 -37 -169 -118 -217 -257 -48 -136 -36 -204 43 -263
25 -19 42 -21 145 -20 136 0 182 16 256 84 164 152 77 440 -140 465 -31 3 -63
0 -87 -9z"/>
<path d="M4890 2892 c-46 -23 -166 -164 -212 -249 -94 -173 -91 -344 7 -419
30 -22 50 -29 101 -32 57 -4 72 0 136 30 204 98 301 282 257 490 -10 45 -20
61 -73 112 -90 87 -145 104 -216 68z"/>
<path d="M4105 2486 c-46 -20 -94 -64 -115 -106 -34 -66 -35 -108 -5 -235 15
-64 25 -119 22 -121 -2 -3 -46 10 -98 27 -154 52 -260 35 -350 -55 -84 -83
-114 -208 -90 -366 23 -149 111 -483 136 -522 96 -145 312 -132 389 23 35 71
34 136 -4 263 -17 55 -30 103 -30 108 0 15 19 8 52 -21 80 -69 174 -89 279
-57 111 34 170 83 216 181 26 55 28 69 27 175 -1 101 -8 142 -53 335 -28 121
-59 237 -68 258 -19 43 -71 93 -119 113 -42 18 -149 17 -189 0z"/>
<path d="M2882 2210 c-84 -22 -196 -74 -397 -183 l-139 -76 -20 29 c-63 88
-198 125 -290 80 -92 -44 -206 -207 -206 -294 0 -103 81 -194 179 -204 l49 -4
7 -55 c4 -30 5 -56 3 -57 -2 -1 -32 -15 -67 -31 -126 -59 -217 -183 -242 -329
-32 -189 34 -415 162 -554 97 -105 232 -198 349 -240 142 -52 171 -57 320 -57
132 1 152 3 219 27 91 33 214 107 287 171 43 39 57 59 69 100 26 91 -4 163
-86 205 -70 37 -131 28 -217 -32 -38 -26 -95 -58 -128 -71 -186 -77 -472 34
-572 223 -39 74 -45 167 -13 196 25 22 47 12 116 -54 88 -85 118 -100 197
-100 79 0 111 13 155 64 67 75 53 168 -39 260 -66 67 -101 131 -129 240 -24
93 -24 106 3 106 11 0 67 26 122 59 200 115 400 211 414 197 13 -14 -60 -197
-155 -389 -89 -180 -103 -215 -103 -258 0 -58 15 -91 62 -136 73 -70 172 -83
251 -33 44 28 53 41 126 192 148 304 222 536 224 699 1 74 -2 93 -26 141 -58
117 -162 177 -322 184 -68 3 -108 -1 -163 -16z"/>
</g>
</svg>
