<?xml version="1.0" standalone="no"?>
<!DOCTYPE svg PUBLIC "-//W3C//DTD SVG 20010904//EN"
 "http://www.w3.org/TR/2001/REC-SVG-20010904/DTD/svg10.dtd">
<svg version="1.0" xmlns="http://www.w3.org/2000/svg"
 width="600.000000pt" height="600.000000pt" viewBox="0 0 600.000000 600.000000"
 preserveAspectRatio="xMidYMid meet">
<metadata>
Created by potrace 1.15, written by Peter Selinger 2001-2017
</metadata>
<g transform="translate(0.000000,600.000000) scale(0.100000,-0.100000)"
fill="#16364b" stroke="none">
<path d="M2371 5389 c-17 -19 -20 -40 -24 -247 -4 -252 -12 -295 -72 -419 -42
-86 -114 -155 -210 -203 -37 -18 -73 -40 -81 -47 -34 -34 0 -113 49 -113 11 0
56 19 101 43 256 134 366 383 354 802 -4 157 -4 158 -32 181 -34 30 -59 30
-85 3z"/>
<path d="M3564 5290 c-27 -11 -54 -53 -54 -85 0 -27 44 -124 81 -178 80 -117
183 -167 237 -117 59 55 27 169 -84 306 -47 58 -131 93 -180 74z"/>
<path d="M3025 5111 c-91 -41 -156 -146 -163 -262 -6 -106 25 -149 110 -149
76 0 186 88 228 182 45 102 32 178 -39 225 -41 28 -82 29 -136 4z m65 -133 c0
-32 -39 -97 -72 -121 -15 -12 -29 -19 -32 -16 -10 11 27 100 53 128 34 37 51
39 51 9z"/>
<path d="M4791 4741 c-13 -3 -34 -19 -45 -34 -19 -26 -21 -44 -24 -210 -6
-325 42 -439 177 -424 56 6 104 53 122 119 28 106 -9 286 -98 461 -27 54 -41
71 -68 83 -19 8 -36 14 -37 13 -2 -1 -14 -4 -27 -8z"/>
<path d="M2634 4212 c-43 -21 -74 -69 -74 -116 0 -136 209 -249 403 -217 142
24 217 76 217 153 0 50 -30 102 -68 117 -59 24 -282 72 -357 77 -66 4 -87 2
-121 -14z"/>
<path d="M5220 3985 c-141 -40 -210 -136 -210 -295 0 -185 94 -329 236 -361
119 -27 284 29 373 127 58 64 81 124 81 213 0 119 -64 209 -200 284 -81 44
-190 56 -280 32z m139 -306 c17 -6 31 -14 31 -17 0 -13 -35 -42 -51 -42 -21 0
-43 35 -35 56 6 17 14 17 55 3z"/>
<path d="M4183 3756 c-217 -68 -295 -331 -148 -504 36 -43 99 -79 162 -92 131
-28 288 63 344 200 22 55 18 225 -6 275 -49 100 -226 160 -352 121z m97 -279
c0 -26 -26 -49 -51 -45 l-24 3 27 28 c29 29 48 35 48 14z"/>
<path d="M1110 3518 c-171 -60 -249 -150 -258 -299 -4 -61 -1 -84 16 -122 54
-122 227 -243 410 -287 112 -26 217 -126 288 -270 41 -83 66 -172 98 -340 82
-444 160 -665 290 -821 156 -190 368 -254 921 -279 285 -13 797 -13 950 0 404
35 546 73 880 236 117 57 165 86 216 133 189 172 294 411 306 696 7 157 -4
217 -57 323 -46 90 -177 237 -275 308 -74 52 -187 106 -265 125 -81 21 -266
16 -370 -9 -164 -39 -228 -73 -436 -228 -149 -111 -216 -147 -323 -176 -100
-26 -243 -28 -331 -3 -230 64 -554 263 -859 525 -267 230 -481 353 -804 461
-104 35 -137 42 -227 46 -91 3 -114 1 -170 -19z m255 -318 c225 -60 485 -209
755 -431 145 -120 599 -428 718 -488 272 -137 493 -161 760 -85 131 37 258
103 431 223 233 162 306 193 454 193 123 -1 183 -26 274 -117 103 -102 135
-173 141 -310 8 -179 -49 -336 -161 -442 -83 -79 -369 -215 -537 -257 -101
-24 -177 -33 -511 -57 -287 -21 -332 -21 -588 -11 -564 23 -756 54 -866 138
-115 87 -212 355 -270 749 -43 286 -87 409 -198 550 -122 157 -272 251 -452
286 -67 12 -135 46 -135 66 0 20 98 16 185 -7z"/>
<path d="M2221 2334 c-12 -15 -21 -33 -21 -40 0 -19 49 -54 76 -54 32 0 64 34
64 68 0 38 -17 52 -61 52 -29 0 -43 -6 -58 -26z"/>
<path d="M2846 2049 c-15 -12 -26 -30 -26 -44 0 -25 51 -75 76 -75 23 0 54 38
54 68 0 33 -8 45 -37 61 -30 15 -36 14 -67 -10z"/>
<path d="M3456 3359 c-39 -31 -176 -273 -176 -312 0 -30 36 -60 70 -60 29 0
43 10 95 65 71 77 135 196 135 251 0 70 -67 101 -124 56z"/>
<path d="M480 2037 c-18 -9 -26 -22 -28 -48 -3 -32 4 -43 70 -114 90 -95 154
-135 221 -135 77 0 113 62 72 124 -22 32 -114 95 -212 145 -93 46 -89 45 -123
28z"/>
<path d="M5313 1108 c-54 -26 -85 -175 -49 -230 31 -47 110 -63 155 -32 36 26
61 90 61 161 0 56 -2 63 -31 87 -33 28 -94 34 -136 14z"/>
</g>
</svg>
