<?xml version="1.0" standalone="no"?>
<!DOCTYPE svg PUBLIC "-//W3C//DTD SVG 20010904//EN"
 "http://www.w3.org/TR/2001/REC-SVG-20010904/DTD/svg10.dtd">
<svg version="1.0" xmlns="http://www.w3.org/2000/svg"
 width="600.000000pt" height="600.000000pt" viewBox="0 0 600.000000 600.000000"
 preserveAspectRatio="xMidYMid meet">
<metadata>
Created by potrace 1.15, written by Peter Selinger 2001-2017
</metadata>
<g transform="translate(0.000000,600.000000) scale(0.100000,-0.100000)"
fill="#16364b" stroke="none">
<path d="M1779 5798 c-51 -34 -99 -137 -247 -523 -41 -106 -46 -130 -47 -201
0 -71 3 -85 27 -121 57 -87 186 -113 300 -61 31 15 83 45 115 69 73 53 365
349 404 408 71 109 1 231 -132 231 -57 0 -97 -25 -196 -123 -40 -39 -73 -68
-73 -64 0 4 20 57 45 117 49 119 54 154 29 207 -38 79 -151 109 -225 61z"/>
<path d="M3000 5693 c-61 -43 -86 -109 -68 -181 9 -38 22 -52 102 -115 50 -40
150 -115 221 -167 231 -169 363 -321 353 -407 -3 -26 -7 -28 -61 -34 -34 -4
-70 -15 -85 -26 -98 -73 -95 -211 5 -258 54 -26 175 -16 248 20 176 86 233
329 124 524 -76 134 -144 204 -406 413 -314 251 -309 248 -362 248 -28 0 -56
-7 -71 -17z"/>
<path d="M886 5435 c-171 -43 -298 -188 -326 -371 -23 -145 31 -307 137 -412
101 -101 177 -122 258 -72 37 23 75 91 75 135 0 45 -36 107 -81 139 -54 38
-79 80 -79 136 0 53 27 103 67 123 15 8 54 17 86 20 98 10 155 58 164 139 7
58 -15 108 -63 144 -32 25 -47 29 -108 31 -39 1 -98 -4 -130 -12z"/>
<path d="M2943 5168 c-60 -13 -135 -84 -175 -166 -78 -158 -17 -318 137 -361
83 -23 241 -5 300 33 40 26 65 75 65 126 0 139 -51 267 -128 323 -76 55 -116
64 -199 45z"/>
<path d="M4785 4893 c-35 -9 -87 -55 -102 -92 -12 -29 -14 -60 -8 -156 13
-236 55 -366 144 -455 62 -62 112 -84 186 -84 107 0 205 65 260 174 93 184 23
354 -206 503 -138 90 -220 123 -274 110z"/>
<path d="M2010 4825 c-132 -37 -182 -84 -183 -174 -1 -58 28 -110 76 -136 27
-14 45 -16 88 -11 30 4 68 8 84 9 l30 2 6 -73 c6 -80 22 -111 80 -150 28 -20
44 -23 92 -20 97 7 149 61 155 161 10 158 -68 321 -182 379 -54 28 -170 34
-246 13z"/>
<path d="M2850 4071 c-146 -45 -203 -181 -130 -308 54 -93 171 -170 307 -198
117 -25 342 -13 497 26 132 33 186 178 98 262 -55 53 -365 179 -520 212 -76
16 -209 19 -252 6z"/>
<path d="M1127 4035 c-61 -9 -124 -23 -146 -35 -73 -37 -107 -106 -98 -198 11
-104 84 -172 187 -172 l50 0 -38 -49 c-21 -27 -85 -102 -141 -168 -56 -66
-122 -147 -146 -179 -102 -136 -253 -451 -262 -545 -10 -108 57 -197 157 -207
88 -8 118 4 185 72 33 34 107 98 165 142 168 128 662 456 672 446 14 -14 -8
-158 -38 -247 -75 -224 -329 -704 -471 -892 -33 -43 -66 -89 -73 -102 -17 -32
-8 -116 17 -149 49 -67 163 -87 225 -40 68 52 262 354 384 598 89 179 190 420
224 531 37 124 54 263 48 397 -7 169 -50 238 -163 263 -102 23 -229 -18 -397
-127 -139 -89 -125 -82 -108 -58 8 12 56 75 106 141 117 153 146 212 152 308
4 62 1 80 -20 126 -32 70 -75 113 -135 134 -65 23 -206 27 -336 10z"/>
<path d="M4224 3795 c-125 -27 -224 -98 -270 -192 -22 -45 -27 -68 -27 -126 3
-245 208 -405 420 -325 73 27 174 125 222 216 32 62 101 252 101 281 0 31 -41
97 -70 115 -69 40 -260 56 -376 31z m43 -340 c-42 -37 -65 -32 -30 7 9 10 26
18 37 18 19 -1 19 -2 -7 -25z"/>
<path d="M3416 3414 c-69 -22 -140 -97 -199 -212 -54 -104 -60 -152 -26 -212
31 -54 78 -77 179 -85 81 -6 88 -5 139 22 157 82 215 344 100 450 -30 27 -90
53 -121 52 -13 0 -45 -7 -72 -15z"/>
<path d="M5020 3153 c-30 -12 -128 -93 -183 -152 -66 -72 -125 -185 -133 -257
-20 -169 117 -298 280 -265 77 16 128 42 185 96 110 103 150 289 91 423 -25
56 -92 129 -137 148 -33 14 -76 17 -103 7z"/>
<path d="M3866 2646 c-55 -20 -106 -65 -133 -116 -37 -70 -32 -144 21 -292 24
-68 47 -131 51 -140 6 -15 1 -14 -47 4 -199 78 -382 -53 -382 -274 l0 -78 -28
53 c-40 72 -72 103 -148 140 -59 29 -73 32 -160 32 -124 0 -197 -23 -410 -128
-91 -45 -168 -83 -171 -85 -3 -1 -11 30 -19 70 -29 166 -85 303 -151 369 -118
118 -281 110 -415 -18 -92 -89 -190 -241 -214 -333 -7 -25 -31 -76 -55 -115
-116 -192 -179 -412 -178 -625 1 -259 95 -456 285 -600 153 -116 375 -210 550
-232 83 -10 107 -9 184 6 227 44 504 224 588 381 15 28 38 68 51 90 14 22 43
83 66 135 23 52 64 144 91 204 121 266 150 367 150 511 l0 89 35 -99 c19 -55
62 -180 95 -279 45 -132 69 -187 92 -214 105 -119 314 -86 385 61 23 48 28
137 11 183 -6 15 -9 28 -7 31 2 2 21 -4 43 -13 53 -22 126 -14 205 23 163 76
223 225 170 418 -11 39 -43 124 -72 190 -28 66 -82 212 -120 325 -39 118 -80
221 -96 244 -54 76 -179 114 -267 82z m-1781 -1070 c17 -180 31 -225 81 -265
41 -32 101 -45 154 -33 25 6 61 13 80 16 19 4 69 27 110 52 90 55 447 234 466
234 18 0 11 -35 -34 -175 -35 -111 -97 -261 -169 -411 -89 -183 -151 -257
-262 -311 -52 -26 -65 -28 -171 -27 -132 0 -171 12 -305 90 -106 63 -175 133
-206 209 -20 51 -23 77 -23 175 0 104 3 125 33 213 19 54 56 136 83 184 28 48
52 103 56 122 3 20 13 47 22 61 10 14 25 38 35 55 l18 30 8 -25 c4 -14 15
-101 24 -194z"/>
</g>
</svg>
