<?xml version="1.0" standalone="no"?>
<!DOCTYPE svg PUBLIC "-//W3C//DTD SVG 20010904//EN"
 "http://www.w3.org/TR/2001/REC-SVG-20010904/DTD/svg10.dtd">
<svg version="1.0" xmlns="http://www.w3.org/2000/svg"
 width="600.000000pt" height="600.000000pt" viewBox="0 0 600.000000 600.000000"
 preserveAspectRatio="xMidYMid meet">
<metadata>
Created by potrace 1.15, written by Peter Selinger 2001-2017
</metadata>
<g transform="translate(0.000000,600.000000) scale(0.100000,-0.100000)"
fill="#16364b" stroke="none">
<path d="M2375 5396 c-23 -23 -23 -26 -18 -158 7 -159 -8 -298 -44 -413 -52
-167 -121 -255 -253 -322 -89 -45 -107 -75 -73 -121 31 -42 69 -40 163 9 116
60 178 126 239 252 93 190 128 376 115 608 -6 110 -10 126 -30 146 -30 30 -69
29 -99 -1z"/>
<path d="M3537 5290 c-9 -6 -24 -28 -32 -48 -15 -35 -15 -38 16 -100 38 -74
134 -183 183 -206 49 -23 89 -20 120 9 34 32 35 84 0 153 -29 59 -113 156
-153 177 -37 19 -113 27 -134 15z"/>
<path d="M3015 5122 c-64 -30 -112 -95 -141 -191 -39 -128 8 -224 109 -224
120 0 257 159 245 285 -11 111 -116 175 -213 130z m75 -137 c0 -31 -61 -125
-82 -125 -21 0 5 73 40 113 14 16 42 24 42 12z"/>
<path d="M4764 4740 c-39 -15 -48 -60 -41 -204 12 -236 50 -379 117 -440 34
-31 47 -36 88 -36 101 0 151 67 152 203 0 127 -48 248 -159 396 -62 82 -102
103 -157 81z"/>
<path d="M2676 4220 c-45 -14 -95 -52 -111 -87 -98 -204 284 -360 532 -217 68
40 91 109 58 174 -19 37 -31 43 -163 85 -164 52 -251 64 -316 45z"/>
<path d="M5233 3966 c-134 -44 -210 -162 -201 -315 8 -126 78 -235 184 -287
147 -72 376 20 455 183 31 64 37 159 14 219 -21 55 -92 128 -169 174 -54 31
-67 34 -150 37 -57 2 -107 -2 -133 -11z m175 -291 c11 -11 -15 -40 -38 -43
-25 -4 -40 12 -40 42 0 16 5 18 36 13 20 -3 39 -9 42 -12z"/>
<path d="M4272 3759 c-195 -32 -339 -227 -291 -396 18 -65 94 -141 167 -167
69 -24 169 -19 233 12 124 60 199 194 199 355 0 114 -25 150 -125 181 -70 20
-121 25 -183 15z m35 -282 c-15 -23 -57 -36 -57 -18 0 14 51 52 62 45 5 -3 3
-15 -5 -27z"/>
<path d="M1040 3390 c-117 -28 -218 -109 -266 -213 -25 -54 -29 -74 -29 -152
0 -64 5 -103 18 -135 65 -159 238 -270 471 -300 111 -14 165 -39 221 -103 91
-104 143 -242 194 -508 43 -228 58 -282 102 -376 125 -273 314 -422 602 -479
257 -50 1505 -57 1809 -10 342 53 698 215 852 388 152 171 236 427 236 719 0
207 -38 297 -199 462 -116 119 -193 179 -286 222 -153 72 -374 91 -530 47
-110 -32 -256 -103 -426 -209 -257 -161 -312 -185 -472 -205 -80 -10 -107 -9
-176 4 -103 21 -230 82 -376 182 -541 370 -718 472 -971 556 -132 44 -162 50
-364 82 -74 11 -157 24 -185 28 -64 11 -180 10 -225 0z m352 -380 c101 -16
219 -39 263 -50 135 -35 316 -133 630 -340 353 -233 474 -306 607 -370 162
-76 238 -94 398 -94 126 0 142 2 235 33 143 48 280 114 440 216 232 147 365
199 510 198 56 -1 96 -7 135 -22 100 -38 204 -142 241 -241 59 -158 17 -432
-88 -565 -53 -68 -237 -175 -393 -228 -229 -78 -350 -95 -775 -109 -271 -8
-422 -8 -610 1 -137 6 -299 11 -360 11 -211 0 -318 32 -406 119 -89 90 -133
197 -194 476 -25 112 -103 342 -156 455 -65 142 -103 202 -167 267 -108 110
-221 161 -415 188 -76 10 -117 21 -138 36 -31 22 -36 34 -16 42 26 11 83 6
259 -23z"/>
<path d="M2200 2307 c-35 -17 -40 -69 -8 -91 33 -23 74 -20 92 6 21 30 20 54
-4 78 -23 23 -45 25 -80 7z"/>
<path d="M2880 2051 c-5 -11 -10 -28 -10 -39 0 -22 35 -57 67 -66 49 -15 85
71 45 107 -26 24 -88 22 -102 -2z"/>
<path d="M3436 3317 c-40 -42 -156 -250 -156 -279 0 -9 9 -27 21 -42 32 -41
87 -37 141 12 83 74 159 226 144 285 -9 37 -45 67 -80 67 -22 0 -40 -11 -70
-43z"/>
<path d="M455 2046 c-29 -21 -26 -83 6 -110 13 -11 39 -42 58 -68 87 -121 228
-182 286 -123 72 72 -17 176 -252 294 -49 25 -72 26 -98 7z"/>
<path d="M5353 1088 c-25 -27 -63 -134 -63 -176 0 -69 42 -122 97 -122 29 0
81 37 98 70 42 82 39 202 -8 235 -33 23 -99 20 -124 -7z"/>
</g>
</svg>
