<?xml version="1.0" standalone="no"?>
<!DOCTYPE svg PUBLIC "-//W3C//DTD SVG 20010904//EN"
 "http://www.w3.org/TR/2001/REC-SVG-20010904/DTD/svg10.dtd">
<svg version="1.0" xmlns="http://www.w3.org/2000/svg"
 width="600.000000pt" height="600.000000pt" viewBox="0 0 600.000000 600.000000"
 preserveAspectRatio="xMidYMid meet">
<metadata>
Created by potrace 1.15, written by Peter Selinger 2001-2017
</metadata>
<g transform="translate(0.000000,600.000000) scale(0.100000,-0.100000)"
fill="#16364b" stroke="none">
<path d="M3130 5648 c-45 -12 -86 -52 -101 -96 -15 -47 -6 -185 17 -242 46
-117 140 -200 332 -292 67 -32 122 -62 122 -66 0 -4 -35 -27 -78 -52 -100 -58
-328 -211 -431 -290 -80 -60 -111 -99 -111 -139 0 -12 -11 -26 -27 -35 -62
-32 -94 -86 -96 -161 -1 -43 4 -59 26 -89 55 -71 109 -80 263 -46 49 11 145
23 214 26 162 8 200 29 221 124 18 78 -37 164 -112 176 -21 4 -36 10 -34 15 3
4 90 62 194 129 221 142 270 182 305 252 79 158 -18 284 -301 392 -98 37 -156
70 -188 106 -16 17 -21 41 -25 111 -5 67 -11 95 -26 116 -43 57 -99 78 -164
61z"/>
<path d="M1283 5374 c-69 -34 -175 -124 -235 -198 -93 -115 -165 -300 -194
-497 -37 -251 8 -364 144 -364 64 1 94 17 133 74 21 30 23 46 25 155 2 132 17
203 63 301 48 103 114 179 205 239 82 54 90 62 107 120 19 64 -25 145 -95 177
-56 25 -92 23 -153 -7z"/>
<path d="M1473 5015 c-34 -7 -73 -21 -87 -30 -88 -58 -87 -202 1 -256 30 -19
44 -21 104 -15 l69 6 -22 -52 c-68 -167 -79 -238 -52 -324 22 -71 76 -129 153
-166 l53 -25 -79 -47 c-116 -69 -211 -142 -233 -179 -41 -67 -14 -164 55 -193
67 -27 114 -19 206 37 119 74 231 124 328 148 46 11 95 28 108 36 62 41 83
147 43 213 -23 37 -88 71 -135 72 -29 0 -31 2 -27 35 8 71 -53 151 -130 170
-16 4 -28 12 -28 17 0 6 21 71 46 146 42 124 46 144 42 212 -4 98 -33 146
-109 184 -47 23 -64 26 -148 25 -53 0 -124 -7 -158 -14z"/>
<path d="M4583 4549 c-104 -8 -131 -16 -171 -53 -76 -69 -66 -187 20 -232 27
-15 55 -17 151 -15 73 1 117 -2 113 -7 -3 -6 -64 -58 -135 -117 -70 -58 -134
-118 -140 -131 -18 -39 -13 -115 9 -151 29 -48 65 -67 124 -67 62 0 65 2 209
135 272 249 321 314 322 419 0 43 -7 66 -28 103 -66 111 -178 139 -474 116z"/>
<path d="M2482 3695 c-94 -21 -244 -95 -272 -135 -58 -81 -29 -199 58 -241 53
-26 82 -21 207 34 48 22 105 39 144 43 l64 7 -7 -52 c-17 -126 -94 -296 -263
-579 -93 -155 -103 -177 -103 -221 0 -34 7 -58 24 -83 21 -32 23 -40 13 -75
-14 -54 -2 -107 35 -149 78 -88 143 -90 363 -6 199 75 215 80 215 58 0 -30
-71 -208 -130 -326 -65 -131 -76 -172 -59 -232 34 -129 206 -174 322 -85 57
43 192 328 248 522 32 111 34 279 3 346 -83 179 -269 223 -557 132 -44 -13
-80 -23 -82 -21 -2 2 21 44 52 93 135 221 217 473 218 670 0 90 -3 105 -27
151 -55 104 -152 154 -308 160 -59 2 -119 -2 -158 -11z"/>
<path d="M3940 3691 c-135 -29 -193 -154 -130 -281 47 -92 197 -196 323 -222
98 -21 188 16 227 92 39 76 15 164 -53 196 -31 15 -34 20 -34 59 0 47 -20 86
-58 111 -51 34 -207 59 -275 45z"/>
<path d="M1113 3495 c-116 -32 -308 -155 -362 -230 -47 -67 -39 -174 18 -239
46 -52 159 -73 222 -40 17 8 33 13 36 10 3 -2 -24 -112 -60 -243 -108 -391
-126 -484 -128 -653 -1 -79 1 -94 25 -133 34 -58 88 -85 187 -93 98 -7 109 0
245 167 60 74 151 181 202 239 52 58 143 170 204 250 60 80 113 146 117 148
16 6 21 -60 10 -136 -6 -42 -26 -135 -45 -207 -127 -482 -144 -566 -144 -694
0 -171 64 -261 185 -261 94 0 155 69 139 159 -4 25 -7 80 -6 121 2 117 65 445
122 635 68 225 76 293 63 492 -15 218 -49 296 -150 343 -63 30 -152 24 -216
-13 -78 -46 -192 -180 -401 -473 -27 -38 -51 -64 -53 -59 -1 6 15 71 37 145
87 292 111 400 112 494 0 81 -3 94 -33 154 -29 55 -42 70 -87 95 -65 36 -158
45 -239 22z"/>
<path d="M4570 3238 c-49 -33 -72 -82 -66 -136 9 -68 32 -100 109 -150 76 -49
152 -114 168 -144 13 -24 -11 -69 -67 -129 -49 -53 -62 -99 -44 -154 28 -84
100 -126 179 -105 50 13 142 110 191 200 34 62 35 69 35 170 0 103 -1 107 -39
177 -72 136 -262 283 -376 291 -45 3 -61 0 -90 -20z"/>
<path d="M3650 3217 c-156 -35 -303 -204 -305 -349 0 -64 20 -100 76 -133 69
-40 185 -14 220 51 10 20 21 22 113 26 79 3 110 9 143 26 90 47 127 144 93
246 -33 102 -196 165 -340 133z"/>
<path d="M4550 2265 c-103 -32 -178 -140 -166 -238 l5 -49 -32 5 c-18 2 -75
12 -127 22 -178 33 -372 8 -481 -61 -101 -63 -162 -168 -179 -304 -9 -77 -6
-369 5 -496 l5 -51 -39 -7 c-21 -3 -50 -15 -64 -26 -14 -11 -31 -20 -38 -20
-7 0 -44 26 -83 58 -39 32 -87 69 -106 82 -19 13 -73 55 -120 93 -102 83 -246
156 -324 164 -127 13 -233 -74 -277 -227 l-12 -45 -8 40 c-4 22 -15 126 -24
230 -8 105 -18 209 -21 231 -23 163 -223 220 -335 97 -36 -40 -52 -85 -46
-135 2 -24 14 -131 26 -238 22 -207 42 -323 68 -405 27 -86 82 -185 128 -231
91 -91 280 -192 393 -210 51 -8 104 9 148 49 46 39 65 78 65 130 -1 168 -1
221 3 224 4 5 137 -84 270 -180 115 -84 191 -111 289 -105 167 11 314 137 305
261 -2 39 -2 39 37 43 68 6 122 33 165 81 56 64 61 102 50 373 l-4 115 64 -3
c36 -2 85 -8 110 -13 95 -20 235 -29 314 -19 152 19 252 86 310 209 29 62 31
74 34 203 4 157 -9 221 -57 279 -57 68 -167 101 -251 74z"/>
</g>
</svg>
