<?xml version="1.0" standalone="no"?>
<!DOCTYPE svg PUBLIC "-//W3C//DTD SVG 20010904//EN"
 "http://www.w3.org/TR/2001/REC-SVG-20010904/DTD/svg10.dtd">
<svg version="1.0" xmlns="http://www.w3.org/2000/svg"
 width="600.000000pt" height="600.000000pt" viewBox="0 0 600.000000 600.000000"
 preserveAspectRatio="xMidYMid meet">
<metadata>
Created by potrace 1.15, written by Peter Selinger 2001-2017
</metadata>
<g transform="translate(0.000000,600.000000) scale(0.100000,-0.100000)"
fill="#16364b" stroke="none">
<path d="M2213 5461 c-65 -30 -103 -124 -103 -259 0 -115 42 -192 127 -232 45
-21 57 -22 206 -17 86 3 157 3 157 2 0 -7 -81 -189 -170 -380 -48 -104 -90
-203 -93 -219 -17 -100 90 -194 191 -166 53 14 76 42 117 145 20 50 81 183
135 296 54 114 108 237 119 274 40 129 20 231 -57 295 -72 59 -172 75 -359 57
l-81 -7 10 36 c5 20 7 52 3 71 -8 45 -59 100 -103 113 -48 13 -50 13 -99 -9z"/>
<path d="M3775 5224 c-16 -3 -52 -12 -80 -21 -119 -37 -165 -84 -165 -168 0
-61 24 -109 67 -136 47 -29 95 -28 175 4 113 46 158 34 158 -41 0 -43 -45
-193 -91 -299 -21 -51 -39 -105 -39 -121 0 -45 33 -94 80 -119 54 -29 109 -29
161 -2 48 24 70 66 124 239 55 173 78 294 71 365 -12 121 -96 229 -213 274
-58 22 -183 35 -248 25z"/>
<path d="M1760 4893 c-190 -30 -282 -58 -424 -131 -128 -67 -158 -98 -163
-175 -5 -65 26 -123 79 -152 29 -15 37 -27 42 -57 4 -24 20 -53 41 -77 39 -43
39 -43 270 -86 194 -36 249 -51 333 -92 97 -46 135 -51 192 -21 85 44 116 139
69 215 -39 62 -240 143 -496 200 -45 10 -79 21 -74 26 19 19 158 47 233 47 91
0 133 15 171 59 74 88 42 212 -62 241 -35 9 -159 12 -211 3z"/>
<path d="M3200 4360 c-36 -10 -126 -39 -200 -64 -74 -26 -217 -74 -317 -107
-198 -65 -224 -82 -237 -153 -13 -70 30 -153 91 -177 49 -18 97 -7 365 85 362
126 456 161 480 183 57 52 63 141 12 195 -50 53 -104 63 -194 38z"/>
<path d="M4271 4280 c-130 -32 -164 -203 -55 -271 33 -20 43 -21 202 -15 262
10 274 2 254 -156 -6 -51 -25 -140 -42 -198 -35 -123 -37 -154 -10 -198 61
-100 211 -95 262 9 43 86 80 293 81 444 0 166 -40 258 -141 325 -82 54 -128
63 -332 66 -102 2 -200 -1 -219 -6z"/>
<path d="M2225 3913 c-11 -3 -48 -13 -82 -23 -111 -34 -295 -68 -428 -81 -71
-7 -143 -18 -158 -26 -66 -33 -90 -146 -44 -213 40 -61 75 -74 196 -72 165 2
338 34 536 99 124 40 179 111 161 206 -8 40 -60 93 -101 102 -53 12 -60 13
-80 8z"/>
<path d="M3665 3752 c-27 -10 -118 -58 -200 -108 -164 -100 -227 -133 -307
-165 -117 -45 -153 -133 -94 -224 19 -28 75 -55 116 -55 45 0 217 70 356 146
65 35 119 62 121 60 2 -2 -13 -39 -33 -82 -20 -44 -40 -91 -44 -106 -19 -61
31 -138 99 -153 39 -8 103 10 140 40 33 29 123 230 146 330 29 119 15 217 -38
273 -57 62 -161 79 -262 44z"/>
<path d="M2135 3258 c-67 -7 -99 -15 -126 -33 -96 -63 -92 -223 8 -270 34 -16
45 -16 195 0 87 9 173 13 189 10 29 -7 31 -9 24 -39 -16 -79 -16 -92 7 -136
32 -62 77 -90 145 -90 49 0 59 4 88 33 45 45 70 128 70 237 0 73 -4 93 -28
142 -34 70 -78 110 -152 137 -48 18 -76 21 -193 20 -75 -1 -177 -6 -227 -11z"/>
<path d="M4932 3249 c-19 -6 -53 -29 -76 -53 -60 -60 -77 -116 -74 -243 3
-119 11 -108 -148 -238 -182 -151 -242 -235 -284 -400 -88 -343 44 -642 269
-611 98 13 171 85 193 188 10 47 9 62 -6 104 -26 72 -30 109 -16 162 22 89 43
117 204 277 175 173 209 221 241 345 25 96 17 287 -15 353 -48 102 -169 150
-288 116z"/>
<path d="M4255 3176 c-16 -7 -39 -24 -50 -36 -41 -47 -177 -139 -277 -188
-134 -66 -251 -109 -363 -133 -49 -11 -101 -28 -114 -37 -61 -45 -80 -151 -38
-212 51 -76 108 -92 238 -66 258 52 581 209 753 367 68 62 86 94 86 151 -1
117 -128 201 -235 154z"/>
<path d="M1245 3040 c-36 -11 -93 -64 -106 -98 -25 -66 -3 -157 53 -215 l41
-42 13 -195 c20 -300 63 -586 109 -722 37 -109 84 -148 177 -148 66 0 114 24
150 76 50 70 51 119 9 279 -33 127 -61 354 -71 565 -12 270 -29 343 -98 421
-61 70 -189 106 -277 79z"/>
<path d="M2039 2507 c-36 -12 -91 -38 -123 -57 -67 -40 -184 -159 -209 -212
-61 -129 48 -264 184 -228 32 9 62 33 138 111 107 108 130 119 151 68 7 -16
28 -42 46 -56 l33 -25 -24 -49 c-84 -165 -104 -334 -62 -535 27 -134 42 -165
92 -188 44 -21 78 -20 124 4 84 42 107 105 86 225 -26 143 -15 245 40 375 40
96 30 171 -30 218 -24 19 -25 22 -13 66 29 111 -57 252 -181 294 -56 20 -178
14 -252 -11z"/>
<path d="M3605 2209 c-44 -5 -141 -20 -215 -34 -74 -13 -243 -43 -375 -65
-132 -22 -252 -45 -266 -51 -58 -23 -109 -104 -109 -174 0 -54 43 -130 92
-162 56 -38 110 -36 370 10 346 62 439 77 528 86 l85 9 42 -38 c90 -84 226
-58 302 57 57 86 49 173 -22 250 -88 96 -236 134 -432 112z"/>
<path d="M4533 1597 c-17 -6 -59 -37 -91 -67 -76 -70 -118 -85 -311 -110 -448
-57 -592 -115 -803 -318 -52 -50 -91 -97 -98 -117 -10 -29 -15 -33 -60 -39
-39 -5 -64 -18 -116 -57 -99 -77 -144 -94 -239 -93 -66 0 -92 5 -150 30 -132
56 -234 140 -322 262 -53 73 -84 92 -151 92 -64 0 -133 -43 -163 -101 -31 -62
-24 -148 18 -209 180 -261 429 -426 694 -462 153 -20 265 12 468 131 113 68
164 110 181 151 10 24 19 30 42 30 52 0 100 29 192 118 156 149 233 177 531
192 214 11 310 30 415 83 75 37 177 133 209 194 47 94 16 212 -70 266 -52 32
-128 43 -176 24z"/>
</g>
</svg>
