<?xml version="1.0" standalone="no"?>
<!DOCTYPE svg PUBLIC "-//W3C//DTD SVG 20010904//EN"
 "http://www.w3.org/TR/2001/REC-SVG-20010904/DTD/svg10.dtd">
<svg version="1.0" xmlns="http://www.w3.org/2000/svg"
 width="600.000000pt" height="600.000000pt" viewBox="0 0 600.000000 600.000000"
 preserveAspectRatio="xMidYMid meet">
<metadata>
Created by potrace 1.15, written by Peter Selinger 2001-2017
</metadata>
<g transform="translate(0.000000,600.000000) scale(0.100000,-0.100000)"
fill="#16364b" stroke="none">
<path d="M2143 5350 c-109 -39 -179 -112 -231 -244 -15 -36 -17 -97 -17 -516
-1 -513 -21 -1597 -31 -1670 -4 -25 -12 -48 -18 -52 -19 -13 -308 -9 -422 6
-205 28 -193 24 -200 65 -9 48 -22 65 -41 50 -9 -8 -12 -23 -7 -48 l5 -36 -46
53 c-63 71 -100 70 -70 -2 25 -60 22 -68 -26 -51 -69 25 -84 -8 -22 -46 l38
-23 -43 -9 c-39 -8 -55 -28 -33 -41 16 -10 362 -66 479 -77 64 -6 175 -9 248
-7 l132 4 5 -265 c5 -296 13 -358 77 -586 68 -246 130 -367 241 -470 73 -66
193 -128 312 -157 l84 -20 -5 -122 c-5 -144 7 -216 75 -444 26 -83 44 -154 41
-157 -3 -3 -48 -9 -101 -14 -103 -10 -138 -26 -163 -72 -18 -36 -18 -63 1 -98
27 -53 116 -65 227 -31 76 23 137 65 172 117 39 56 35 108 -23 292 -27 86 -54
188 -61 226 -11 65 -11 268 0 278 7 7 409 -9 606 -24 125 -9 200 -10 275 -3
57 6 106 9 108 7 3 -2 -1 -32 -7 -67 -28 -151 -4 -351 64 -533 19 -51 32 -98
29 -103 -3 -6 -34 -10 -68 -10 -91 -1 -138 -14 -169 -50 -75 -82 11 -173 145
-155 70 10 154 40 193 70 34 26 74 97 74 133 0 12 -18 75 -39 139 -49 145 -71
250 -78 368 -6 99 11 231 31 238 7 3 84 13 172 22 270 28 351 54 447 143 91
86 159 208 188 337 41 181 -20 697 -102 871 -38 81 -104 170 -192 261 -46 48
-65 74 -56 77 8 2 73 14 144 26 240 41 480 118 562 182 71 55 81 68 61 79 -10
5 -14 17 -11 29 5 17 0 20 -26 20 -28 0 -31 2 -22 19 8 14 7 22 -3 30 -11 10
-22 5 -50 -20 -20 -17 -36 -29 -37 -28 0 2 -2 14 -3 26 -3 29 -11 37 -31 30
-10 -4 -15 -19 -15 -45 0 -38 -2 -40 -50 -61 -123 -53 -398 -120 -587 -142
l-102 -12 -97 89 c-239 222 -315 278 -614 454 -219 128 -286 175 -378 264
-119 114 -176 210 -262 441 -74 198 -113 337 -145 515 -54 310 -75 373 -146
454 -91 104 -254 144 -386 96z m208 -156 c71 -36 122 -134 139 -267 14 -108
40 -248 67 -357 26 -111 123 -385 174 -495 50 -108 142 -235 236 -326 107
-103 156 -138 438 -315 306 -191 382 -249 620 -474 50 -47 129 -120 177 -163
103 -92 183 -189 231 -277 71 -129 140 -537 122 -715 -22 -210 -131 -362 -290
-403 -22 -6 -105 -18 -185 -27 -80 -8 -219 -25 -310 -36 -177 -23 -184 -23
-795 0 -434 17 -541 38 -677 133 -123 86 -198 230 -265 506 -24 101 -26 125
-30 437 -4 246 -1 382 11 535 8 113 17 376 20 585 3 209 10 450 17 535 9 120
9 244 -1 545 -14 456 -13 463 60 536 28 28 61 50 86 57 45 12 117 6 155 -14z"/>
<path d="M2600 2850 c-27 -27 -25 -56 5 -85 46 -47 99 -25 99 42 0 59 -62 85
-104 43z"/>
<path d="M3152 2784 c-47 -32 -9 -114 53 -114 48 0 76 64 44 103 -24 31 -63
35 -97 11z"/>
<path d="M3060 1878 c-36 -5 -91 -6 -123 -3 -65 7 -87 -3 -87 -40 0 -45 20
-50 208 -48 187 3 205 7 200 52 -6 48 -59 59 -198 39z"/>
</g>
</svg>
