<?xml version="1.0" standalone="no"?>
<!DOCTYPE svg PUBLIC "-//W3C//DTD SVG 20010904//EN"
 "http://www.w3.org/TR/2001/REC-SVG-20010904/DTD/svg10.dtd">
<svg version="1.0" xmlns="http://www.w3.org/2000/svg"
 width="600.000000pt" height="600.000000pt" viewBox="0 0 600.000000 600.000000"
 preserveAspectRatio="xMidYMid meet">
<metadata>
Created by potrace 1.15, written by Peter Selinger 2001-2017
</metadata>
<g transform="translate(0.000000,600.000000) scale(0.100000,-0.100000)"
fill="#16364b" stroke="none">
<path d="M1557 5780 c-44 -13 -58 -29 -100 -120 -90 -194 -145 -377 -134 -445
9 -55 37 -103 72 -125 39 -24 110 -26 162 -5 55 23 163 116 277 239 143 153
156 170 163 210 12 75 -36 126 -118 126 -40 0 -47 -5 -151 -107 -92 -90 -107
-102 -95 -73 8 19 29 67 46 107 36 83 36 84 15 128 -25 54 -82 81 -137 65z"/>
<path d="M830 5527 c-106 -44 -216 -140 -273 -237 -69 -119 -44 -275 61 -371
71 -66 134 -84 192 -54 41 21 60 53 60 100 0 44 -17 69 -67 104 -61 41 -52
109 22 185 57 60 103 72 163 46 114 -51 204 3 189 111 -6 49 -22 68 -89 104
-74 40 -180 45 -258 12z"/>
<path d="M2344 5409 c-11 -6 -29 -24 -38 -40 -16 -27 -17 -45 -10 -157 25
-394 -21 -508 -249 -619 -88 -43 -112 -67 -122 -119 -12 -60 58 -134 126 -134
59 0 218 89 301 168 150 143 198 319 176 655 -11 177 -23 218 -69 242 -32 17
-84 18 -115 4z"/>
<path d="M3485 5351 c-25 -11 -47 -31 -58 -52 -17 -30 -18 -43 -9 -108 19
-132 92 -242 199 -298 82 -44 140 -51 197 -24 106 52 102 190 -10 343 -43 58
-96 96 -187 131 -79 32 -80 32 -132 8z"/>
<path d="M2975 5147 c-58 -23 -77 -39 -116 -100 -49 -76 -73 -154 -65 -212 9
-59 53 -122 102 -145 84 -41 236 -15 300 51 28 30 29 33 29 137 0 88 -4 115
-22 154 -34 74 -106 126 -173 126 -14 0 -38 -5 -55 -11z"/>
<path d="M4741 4774 c-47 -39 -55 -84 -42 -241 21 -252 89 -386 229 -457 40
-21 118 -31 165 -22 60 11 123 62 153 122 23 48 26 63 22 127 -11 172 -162
368 -360 468 -74 37 -125 38 -167 3z m269 -425 c11 -21 16 -39 11 -39 -11 0
-25 22 -41 65 -15 39 6 21 30 -26z"/>
<path d="M2690 4230 c-95 -20 -157 -68 -199 -152 -95 -188 43 -378 273 -378
127 0 256 54 377 159 66 57 89 95 89 149 0 87 -48 136 -171 176 -157 49 -281
65 -369 46z"/>
<path d="M1055 4075 c-72 -26 -109 -98 -85 -169 12 -38 58 -83 93 -91 12 -3
58 -12 102 -21 44 -9 96 -22 115 -30 l35 -15 -53 -34 c-57 -36 -199 -90 -330
-125 -94 -25 -135 -54 -152 -106 -17 -50 -4 -99 36 -143 48 -54 100 -66 189
-46 192 45 359 119 453 201 29 25 55 44 57 42 3 -3 9 -49 13 -104 10 -115 31
-164 91 -216 55 -47 131 -73 216 -72 90 0 158 29 218 93 59 63 81 123 75 204
-10 118 -77 215 -185 269 -56 27 -77 32 -137 32 -60 0 -81 -5 -135 -32 -35
-18 -66 -32 -67 -32 -2 0 1 12 6 26 27 71 -9 188 -73 237 -76 58 -179 97 -334
127 -57 11 -105 20 -106 20 -1 -1 -20 -7 -42 -15z"/>
<path d="M4175 3766 c-62 -20 -99 -41 -146 -88 -68 -66 -84 -107 -84 -213 0
-78 4 -97 27 -141 102 -195 349 -218 514 -47 61 63 105 172 120 295 12 110
-28 163 -147 192 -77 19 -227 20 -284 2z m105 -275 c0 -16 -31 -41 -50 -41
-38 0 2 46 43 49 4 1 7 -3 7 -8z"/>
<path d="M5128 3535 c-197 -54 -310 -211 -278 -386 15 -81 40 -130 96 -186 63
-62 122 -87 209 -86 148 0 268 106 311 273 19 76 15 148 -14 212 -20 47 -104
138 -156 169 -36 22 -98 23 -168 4z m42 -330 c-7 -9 -15 -13 -17 -11 -7 7 7
26 19 26 6 0 6 -6 -2 -15z"/>
<path d="M2589 3420 c-190 -34 -322 -178 -416 -455 -59 -173 -104 -227 -254
-302 -238 -120 -458 -357 -539 -582 -111 -305 -93 -600 48 -807 91 -135 306
-303 463 -364 341 -132 747 -35 1016 242 64 66 143 195 177 290 25 70 106 439
128 583 13 87 5 264 -22 505 -39 350 -99 554 -207 707 -100 142 -246 210 -394
183z m95 -412 c21 -28 66 -138 105 -257 19 -60 33 -266 34 -516 1 -207 -2
-256 -21 -360 -54 -295 -101 -390 -252 -502 -244 -182 -499 -172 -701 27 -108
107 -144 223 -121 386 25 173 77 280 191 395 61 61 95 86 171 123 117 59 170
97 252 185 106 112 153 191 213 355 51 140 78 196 96 196 4 0 19 -15 33 -32z"/>
<path d="M3424 3390 c-42 -17 -93 -83 -148 -191 -62 -122 -70 -171 -36 -219
31 -43 72 -56 134 -41 69 18 128 53 165 100 64 81 96 201 71 275 -22 68 -114
105 -186 76z"/>
<path d="M435 2342 c-39 -24 -84 -90 -91 -133 -11 -67 115 -343 219 -481 186
-248 405 -315 524 -160 79 103 53 269 -65 418 -103 130 -275 265 -449 353 -52
26 -98 27 -138 3z m329 -414 c77 -78 149 -188 133 -205 -13 -13 -89 50 -133
110 -54 73 -109 177 -93 177 6 0 48 -37 93 -82z"/>
<path d="M4337 2061 c-21 -11 -47 -31 -58 -45 l-21 -26 -31 22 c-46 33 -149
33 -198 -1 -45 -31 -67 -61 -77 -108 -12 -54 32 -341 63 -408 81 -175 98 -206
128 -229 33 -25 99 -48 120 -41 7 2 25 6 40 10 79 17 158 143 191 305 27 134
58 382 51 416 -11 63 -84 124 -148 124 -12 0 -40 -9 -60 -19z"/>
</g>
</svg>
