<?xml version="1.0" standalone="no"?>
<!DOCTYPE svg PUBLIC "-//W3C//DTD SVG 20010904//EN"
 "http://www.w3.org/TR/2001/REC-SVG-20010904/DTD/svg10.dtd">
<svg version="1.0" xmlns="http://www.w3.org/2000/svg"
 width="600.000000pt" height="600.000000pt" viewBox="0 0 600.000000 600.000000"
 preserveAspectRatio="xMidYMid meet">
<metadata>
Created by potrace 1.15, written by Peter Selinger 2001-2017
</metadata>
<g transform="translate(0.000000,600.000000) scale(0.100000,-0.100000)"
fill="#16364b" stroke="none">
<path d="M1930 4861 c-120 -39 -200 -152 -200 -281 0 -26 11 -82 24 -126 51
-172 74 -542 80 -1334 l5 -585 -35 -150 c-19 -82 -57 -238 -84 -345 -32 -127
-48 -211 -46 -240 2 -25 4 -58 5 -74 1 -26 4 -28 30 -23 23 5 30 2 34 -15 8
-28 27 -19 61 32 23 33 27 46 19 59 -6 10 -7 24 -3 32 4 8 15 45 25 82 18 67
34 75 35 16 0 -51 42 -186 85 -274 71 -147 171 -253 301 -318 54 -27 184 -71
248 -85 l39 -8 -2 -134 c-2 -162 21 -316 74 -478 19 -60 35 -116 35 -124 0
-12 -17 -16 -84 -20 -56 -3 -93 -10 -110 -21 -64 -42 -79 -118 -33 -165 26
-25 33 -27 115 -27 96 0 162 22 216 73 68 64 71 127 16 299 -56 177 -74 276
-74 430 -1 72 1 134 4 136 6 7 360 -8 585 -24 88 -6 212 -8 275 -4 l116 7 1
-109 c1 -161 32 -315 99 -490 20 -51 33 -97 29 -103 -3 -5 -42 -10 -85 -10
-43 0 -91 -5 -107 -11 -103 -39 -106 -147 -5 -191 38 -17 59 -20 120 -15 100
8 170 42 211 104 41 62 41 115 0 225 -79 210 -116 413 -99 536 6 42 14 80 18
83 4 4 77 20 162 34 218 38 371 78 435 115 162 93 270 257 310 475 36 190 -3
390 -105 541 -16 25 -30 47 -30 49 0 2 35 5 78 7 74 3 77 4 75 26 -2 13 4 38
12 57 l14 35 -52 26 c-28 15 -57 34 -64 43 -6 9 -15 13 -18 9 -4 -4 -24 0 -44
8 -130 56 -349 139 -486 184 -144 47 -182 65 -390 183 -575 326 -643 370 -783
509 -170 168 -273 332 -437 697 -58 129 -122 264 -143 300 -20 36 -54 100 -74
141 -43 89 -119 169 -193 205 -55 27 -161 41 -205 26z m150 -176 c69 -36 115
-118 399 -710 198 -412 377 -625 716 -852 101 -67 115 -75 410 -233 116 -62
228 -125 250 -140 22 -16 135 -80 252 -143 241 -131 275 -155 362 -252 176
-198 207 -452 85 -702 -39 -79 -106 -154 -166 -184 -89 -45 -427 -107 -768
-139 -197 -19 -918 23 -1091 64 -315 73 -447 232 -494 596 -39 304 -52 695
-46 1360 4 505 -32 980 -85 1134 -22 61 -18 138 8 171 41 53 103 63 168 30z
m2540 -2235 c8 -5 11 -12 7 -16 -4 -4 -15 0 -24 9 -18 18 -8 23 17 7z"/>
<path d="M2582 2714 c-33 -23 -29 -66 9 -98 17 -14 35 -26 40 -26 18 0 59 49
59 70 0 26 -43 70 -67 70 -10 0 -29 -7 -41 -16z"/>
<path d="M3050 2552 c-26 -8 -50 -34 -50 -54 0 -30 45 -68 80 -68 25 0 33 6
47 34 15 32 15 37 0 59 -16 25 -50 37 -77 29z"/>
<path d="M5273 3980 c-112 -23 -193 -84 -236 -179 -30 -66 -30 -198 0 -264 31
-66 115 -152 182 -184 49 -25 68 -28 151 -28 86 0 100 3 148 29 108 60 172
166 180 297 7 121 -35 193 -157 274 -50 33 -82 46 -131 54 -73 12 -78 12 -137
1z m118 -311 c20 -10 20 -11 3 -30 -9 -10 -25 -19 -35 -19 -18 0 -39 27 -39
49 0 14 46 14 71 0z"/>
<path d="M5374 1115 c-31 -13 -54 -54 -74 -132 -22 -86 21 -157 91 -155 73 2
118 73 119 183 0 56 -3 69 -23 88 -29 27 -73 33 -113 16z"/>
</g>
</svg>
