<?xml version="1.0" standalone="no"?>
<!DOCTYPE svg PUBLIC "-//W3C//DTD SVG 20010904//EN"
 "http://www.w3.org/TR/2001/REC-SVG-20010904/DTD/svg10.dtd">
<svg version="1.0" xmlns="http://www.w3.org/2000/svg"
 width="600.000000pt" height="600.000000pt" viewBox="0 0 600.000000 600.000000"
 preserveAspectRatio="xMidYMid meet">
<metadata>
Created by potrace 1.15, written by Peter Selinger 2001-2017
</metadata>
<g transform="translate(0.000000,600.000000) scale(0.100000,-0.100000)"
fill="#16364b" stroke="none">
<path d="M2198 5471 c-112 -36 -211 -138 -255 -263 -16 -48 -18 -83 -15 -348
2 -200 -2 -347 -12 -455 -8 -88 -17 -335 -21 -550 -7 -534 -16 -878 -20 -886
-5 -7 -75 8 -162 34 -86 26 -222 83 -323 136 -99 52 -97 50 -89 116 6 43 -28
48 -42 5 -14 -38 -19 -33 -40 33 -12 39 -21 52 -35 52 -15 0 -20 -8 -22 -40
-5 -66 -8 -69 -47 -39 -56 42 -91 12 -40 -36 34 -32 31 -40 -11 -28 -38 10
-62 0 -49 -21 3 -6 34 -25 68 -42 34 -17 78 -42 98 -55 56 -35 325 -168 404
-199 39 -16 115 -40 170 -55 l100 -27 -5 -89 c-10 -176 -5 -538 9 -624 33
-215 102 -421 185 -553 104 -167 239 -261 433 -303 l82 -17 -7 -31 c-4 -17 -7
-89 -6 -161 0 -142 10 -192 85 -423 22 -67 37 -127 34 -132 -3 -6 -42 -10 -86
-10 -125 0 -182 -34 -182 -110 0 -127 202 -147 350 -34 45 34 75 97 75 153 0
25 -21 118 -47 206 -64 222 -82 333 -68 442 6 46 15 89 21 95 8 8 23 7 54 -1
29 -9 183 -14 486 -18 l443 -6 -8 -46 c-4 -25 -8 -118 -8 -206 0 -182 9 -228
75 -373 22 -49 40 -92 40 -96 0 -3 -42 -6 -92 -7 -120 0 -158 -13 -181 -61
-18 -37 -18 -39 0 -75 25 -51 70 -75 153 -81 116 -8 225 42 267 121 22 44 20
123 -4 172 -32 64 -81 223 -94 307 -12 77 -8 298 5 329 6 13 30 18 119 23 319
19 425 52 530 165 96 103 126 209 148 527 12 171 11 192 -10 375 -14 115 -33
224 -47 269 -34 108 -106 222 -223 352 -24 27 -42 50 -40 52 2 2 42 11 89 20
270 54 516 174 638 313 54 60 63 83 36 83 -10 0 -14 6 -11 14 9 23 -17 38 -46
27 -25 -10 -26 -9 -21 18 10 47 -15 50 -52 6 -31 -38 -32 -38 -36 -14 -2 13
-11 25 -21 27 -16 3 -18 -2 -16 -49 3 -51 2 -53 -39 -84 -108 -83 -326 -170
-501 -199 -156 -26 -132 -38 -325 152 -186 183 -230 217 -443 346 -282 169
-407 267 -518 409 -78 98 -163 261 -209 398 -54 162 -123 450 -146 609 -11 80
-29 173 -41 206 -68 208 -279 319 -481 255z m218 -150 c72 -33 115 -106 140
-237 125 -673 190 -880 355 -1119 51 -74 198 -226 284 -293 49 -39 267 -185
375 -252 212 -132 413 -312 620 -554 245 -289 279 -357 316 -631 36 -279 -14
-634 -106 -751 -70 -87 -125 -107 -354 -129 -194 -19 -964 -22 -1121 -5 -55 6
-170 14 -255 19 -219 13 -317 47 -414 147 -103 105 -192 299 -230 503 -40 210
-41 370 -5 791 14 169 34 959 31 1229 -2 168 2 274 14 375 13 115 15 190 9
402 -5 184 -4 277 4 316 26 124 122 208 236 208 37 0 76 -8 101 -19z"/>
<path d="M2621 2878 c-49 -26 -45 -85 7 -112 39 -20 66 -11 88 30 18 33 18 34
-2 61 -24 32 -58 39 -93 21z"/>
<path d="M3172 2834 c-38 -27 -24 -82 28 -109 36 -19 55 -12 70 26 16 38 6 73
-25 87 -34 16 -46 15 -73 -4z"/>
<path d="M2834 1939 c-29 -10 -37 -37 -20 -64 11 -17 31 -25 78 -33 64 -10
411 -8 428 3 6 3 10 20 10 36 0 25 -6 33 -37 45 -31 13 -64 15 -202 9 -100 -5
-180 -3 -201 2 -20 6 -45 7 -56 2z"/>
</g>
</svg>
