<?xml version="1.0" standalone="no"?>
<!DOCTYPE svg PUBLIC "-//W3C//DTD SVG 20010904//EN"
 "http://www.w3.org/TR/2001/REC-SVG-20010904/DTD/svg10.dtd">
<svg version="1.0" xmlns="http://www.w3.org/2000/svg"
 width="600.000000pt" height="600.000000pt" viewBox="0 0 600.000000 600.000000"
 preserveAspectRatio="xMidYMid meet">
<metadata>
Created by potrace 1.15, written by Peter Selinger 2001-2017
</metadata>
<g transform="translate(0.000000,600.000000) scale(0.100000,-0.100000)"
fill="#16364b" stroke="none">
<path d="M1560 5790 c-62 -15 -93 -62 -126 -191 -26 -104 -29 -128 -28 -279 0
-148 3 -171 24 -225 13 -33 41 -79 65 -104 38 -40 47 -45 98 -49 113 -9 153
27 365 333 144 208 165 249 159 299 -15 110 -140 152 -221 73 -18 -18 -82
-108 -142 -202 -74 -115 -110 -163 -113 -150 -6 32 20 166 51 264 21 66 29
106 25 134 -10 74 -76 115 -157 97z"/>
<path d="M882 5505 c-191 -42 -342 -231 -342 -430 0 -92 30 -154 111 -229 69
-64 121 -84 174 -66 45 15 85 63 85 101 0 41 -15 66 -72 120 -38 36 -48 52
-48 77 0 67 66 151 130 165 14 3 43 -1 65 -9 52 -18 89 -18 126 1 65 34 87
120 48 185 -27 44 -43 56 -99 74 -72 23 -111 25 -178 11z"/>
<path d="M3319 5431 c-33 -32 -39 -45 -39 -79 0 -62 18 -89 84 -129 34 -20 74
-45 89 -56 l28 -19 -27 -29 c-38 -40 -45 -114 -15 -163 36 -58 126 -133 182
-151 105 -35 214 0 255 82 64 130 -54 347 -266 490 -110 74 -153 93 -206 93
-41 0 -51 -5 -85 -39z"/>
<path d="M2343 5198 c-17 -6 -46 -25 -63 -43 -31 -32 -33 -39 -46 -162 -26
-237 -53 -283 -209 -358 -109 -51 -135 -79 -135 -141 0 -36 6 -51 33 -79 49
-54 86 -56 198 -10 203 81 294 177 349 368 22 79 45 293 36 341 -13 67 -91
108 -163 84z"/>
<path d="M2935 5141 c-95 -44 -170 -168 -169 -281 0 -82 28 -139 86 -177 37
-25 50 -28 127 -28 92 0 183 27 222 66 64 64 44 294 -34 377 -56 61 -155 79
-232 43z"/>
<path d="M4747 4782 c-52 -32 -62 -83 -49 -262 14 -213 49 -303 147 -378 123
-94 306 -77 379 36 96 147 25 346 -176 497 -156 117 -238 146 -301 107z m241
-417 c-3 -3 -9 2 -12 12 -6 14 -5 15 5 6 7 -7 10 -15 7 -18z"/>
<path d="M2755 4176 c-139 -35 -225 -126 -225 -241 0 -89 57 -171 155 -223 45
-25 60 -27 155 -26 95 0 114 4 204 37 118 43 241 112 267 149 42 58 36 139
-12 187 -21 22 -61 40 -142 67 -193 62 -299 75 -402 50z"/>
<path d="M1067 4081 c-50 -17 -94 -59 -113 -106 -14 -39 -15 -52 -5 -88 22
-74 78 -117 152 -117 52 0 160 -18 179 -30 20 -12 -11 -44 -120 -124 -101 -75
-182 -120 -308 -171 -133 -54 -160 -87 -149 -181 9 -88 83 -154 171 -154 50 0
191 61 311 133 l60 37 21 -49 c49 -111 160 -142 250 -70 22 17 56 40 77 51 35
17 41 18 56 4 63 -57 195 -73 266 -33 52 29 85 87 85 150 0 93 -50 157 -156
197 -49 18 -75 21 -166 18 -59 -2 -107 -1 -105 2 67 112 79 225 35 321 -46
100 -125 163 -245 194 -69 18 -258 28 -296 16z"/>
<path d="M4227 3780 c-132 -34 -239 -134 -279 -262 -35 -114 -14 -203 67 -284
94 -94 226 -119 342 -63 73 35 157 125 198 211 34 71 65 197 65 261 0 49 -34
96 -87 119 -54 24 -239 35 -306 18z m83 -299 c0 -5 -12 -19 -27 -31 -19 -15
-29 -18 -37 -10 -8 8 -4 17 13 31 25 20 51 25 51 10z"/>
<path d="M5090 3432 c-250 -123 -354 -328 -261 -516 59 -121 148 -174 275
-164 124 10 261 115 305 233 30 79 28 191 -3 266 -27 67 -109 175 -148 195
-42 22 -106 16 -168 -14z"/>
<path d="M3412 3393 c-43 -21 -97 -94 -156 -208 -31 -60 -46 -103 -46 -128 0
-89 61 -135 155 -118 75 14 105 32 159 93 78 89 118 237 82 305 -36 71 -118
94 -194 56z"/>
<path d="M2334 3042 c-110 -38 -171 -113 -264 -321 -64 -144 -101 -191 -196
-246 -118 -69 -251 -192 -336 -310 -98 -138 -146 -258 -173 -440 -19 -126 -19
-194 0 -318 27 -179 94 -308 229 -443 194 -194 478 -296 731 -265 207 26 371
110 545 277 173 168 294 428 371 797 27 130 32 172 31 287 -2 276 -85 451
-271 574 -76 49 -126 97 -238 229 -91 105 -154 153 -234 178 -75 23 -129 24
-195 1z m162 -464 c27 -35 60 -83 74 -108 18 -33 47 -60 109 -103 168 -113
176 -132 176 -387 -1 -160 -3 -184 -28 -274 -71 -256 -195 -451 -351 -551
-132 -84 -309 -98 -443 -36 -198 93 -306 253 -307 456 0 102 26 192 86 293 41
68 147 183 208 225 25 17 72 54 105 81 143 123 204 207 274 384 18 45 37 82
41 82 4 0 29 -28 56 -62z"/>
<path d="M751 2609 c-26 -26 -31 -38 -31 -78 0 -63 19 -86 122 -146 106 -61
200 -151 234 -223 46 -98 31 -212 -31 -228 -52 -13 -151 76 -210 187 -43 82
-77 117 -123 125 -70 13 -145 -51 -145 -124 0 -75 106 -238 227 -349 92 -84
162 -117 251 -118 59 0 78 5 124 30 86 47 139 124 166 237 50 214 -47 456
-237 591 -118 84 -209 127 -266 127 -43 0 -55 -4 -81 -31z"/>
<path d="M4210 2221 c-80 -25 -122 -68 -139 -140 -12 -53 -12 -54 -45 -41 -43
16 -78 12 -132 -15 -68 -34 -98 -86 -96 -169 1 -71 68 -418 88 -459 22 -41 83
-77 145 -83 30 -3 70 -13 89 -22 49 -22 135 -20 190 5 61 28 96 68 121 139 20
56 21 72 15 279 -7 260 -19 382 -41 424 -30 60 -131 102 -195 82z"/>
</g>
</svg>
