<?xml version="1.0" standalone="no"?>
<!DOCTYPE svg PUBLIC "-//W3C//DTD SVG 20010904//EN"
 "http://www.w3.org/TR/2001/REC-SVG-20010904/DTD/svg10.dtd">
<svg version="1.0" xmlns="http://www.w3.org/2000/svg"
 width="600.000000pt" height="600.000000pt" viewBox="0 0 600.000000 600.000000"
 preserveAspectRatio="xMidYMid meet">
<metadata>
Created by potrace 1.15, written by Peter Selinger 2001-2017
</metadata>
<g transform="translate(0.000000,600.000000) scale(0.100000,-0.100000)"
fill="#16364b" stroke="none">
<path d="M1461 5718 c-112 -119 -240 -271 -256 -305 -8 -17 -15 -50 -15 -73 0
-35 6 -48 35 -77 34 -34 38 -35 88 -30 67 7 182 51 374 142 134 65 154 77 169
108 23 48 12 98 -27 131 -38 32 -85 34 -139 6 -42 -22 -49 -18 -25 14 18 23
19 69 4 99 -19 38 -52 57 -97 57 -40 0 -47 -4 -111 -72z"/>
<path d="M2378 5434 c-41 -22 -48 -43 -48 -147 0 -216 -31 -398 -90 -522 -44
-93 -98 -152 -187 -202 -75 -42 -103 -74 -103 -120 0 -69 51 -123 117 -123 37
0 174 81 228 134 86 86 166 256 206 437 21 98 41 360 32 428 -8 65 -29 100
-68 117 -42 17 -53 17 -87 -2z"/>
<path d="M3506 5299 c-32 -38 -40 -68 -32 -120 15 -94 122 -236 210 -279 57
-27 135 -27 169 1 62 48 57 132 -16 241 -62 93 -115 142 -181 167 -82 30 -118
28 -150 -10z"/>
<path d="M3006 5145 c-122 -43 -215 -190 -204 -322 5 -57 25 -92 72 -127 60
-45 189 -15 279 64 42 36 80 144 80 224 0 136 -100 207 -227 161z"/>
<path d="M4765 4751 c-59 -26 -70 -56 -69 -175 3 -232 102 -464 225 -527 147
-74 311 80 297 280 -9 122 -85 235 -239 352 -76 57 -133 89 -161 89 -7 0 -31
-9 -53 -19z"/>
<path d="M2687 4219 c-91 -21 -177 -94 -202 -170 -60 -179 173 -344 402 -285
117 29 259 119 304 192 28 45 25 109 -6 150 -30 40 -49 51 -118 70 -187 52
-293 64 -380 43z"/>
<path d="M1103 4113 c-34 -7 -81 -61 -88 -104 -8 -44 15 -100 48 -122 12 -7
60 -26 107 -40 105 -33 120 -41 102 -59 -9 -9 -58 -14 -160 -16 -162 -5 -192
-13 -217 -62 -33 -63 -7 -143 57 -176 26 -14 61 -17 168 -18 146 -1 213 11
295 51 178 88 213 272 76 396 -84 76 -312 164 -388 150z"/>
<path d="M4153 3760 c-93 -33 -157 -93 -202 -190 -68 -148 3 -335 152 -401 78
-35 193 -33 265 4 29 15 70 43 91 62 85 77 140 241 132 399 -1 18 -14 41 -38
66 -72 71 -282 103 -400 60z m113 -305 c-17 -27 -56 -34 -56 -11 0 17 18 32
45 38 28 6 30 2 11 -27z"/>
<path d="M5221 3695 c-134 -29 -258 -111 -303 -200 -30 -57 -36 -167 -13 -236
68 -204 261 -292 452 -204 166 75 254 276 193 440 -38 99 -170 217 -242 214
-13 0 -52 -7 -87 -14z m29 -317 c0 -14 -30 -48 -42 -48 -12 0 -10 34 4 48 15
15 38 16 38 0z"/>
<path d="M1618 3661 l-33 -29 0 -104 c0 -89 4 -110 26 -158 30 -64 80 -125
120 -146 39 -20 118 -18 151 4 67 44 99 128 79 210 -26 104 -90 187 -176 228
-71 34 -126 32 -167 -5z"/>
<path d="M3428 3396 c-45 -24 -76 -65 -134 -183 -73 -146 -74 -202 -4 -238 42
-22 84 -19 140 10 86 44 150 157 158 282 5 72 4 73 -31 108 -39 39 -81 46
-129 21z"/>
<path d="M2170 3060 c-58 -10 -141 -30 -185 -44 -114 -36 -383 -147 -457 -189
-255 -144 -418 -419 -418 -707 0 -234 58 -336 321 -565 88 -77 207 -193 265
-257 112 -126 193 -191 300 -239 202 -92 412 -92 656 0 117 45 468 236 688
374 162 103 343 266 445 402 203 271 178 559 -70 811 -204 208 -489 350 -779
390 -353 47 -590 55 -766 24z m596 -385 c272 -41 519 -154 692 -319 47 -45 86
-105 96 -150 15 -62 -36 -147 -139 -234 -88 -72 -513 -332 -711 -433 -300
-153 -457 -182 -582 -107 -46 28 -587 570 -609 610 -13 24 -18 55 -18 113 0
100 30 171 103 244 58 58 100 80 247 134 271 97 365 127 440 141 109 19 353
20 481 1z"/>
<path d="M400 2218 c-54 -36 -52 -69 14 -243 64 -172 122 -269 205 -348 81
-78 154 -111 231 -105 153 11 204 159 115 334 -68 133 -175 228 -372 328 -117
60 -147 65 -193 34z"/>
<path d="M4634 1741 c-18 -11 -34 -24 -38 -29 -3 -6 -23 -3 -50 6 -58 21 -115
5 -148 -41 -29 -41 -29 -121 0 -257 32 -153 50 -204 88 -248 46 -54 92 -68
162 -47 96 29 159 133 187 310 21 129 20 212 -5 253 -41 68 -132 92 -196 53z"/>
</g>
</svg>
