<?xml version="1.0" standalone="no"?>
<!DOCTYPE svg PUBLIC "-//W3C//DTD SVG 20010904//EN"
 "http://www.w3.org/TR/2001/REC-SVG-20010904/DTD/svg10.dtd">
<svg version="1.0" xmlns="http://www.w3.org/2000/svg"
 width="600.000000pt" height="600.000000pt" viewBox="0 0 600.000000 600.000000"
 preserveAspectRatio="xMidYMid meet">
<metadata>
Created by potrace 1.15, written by Peter Selinger 2001-2017
</metadata>
<g transform="translate(0.000000,600.000000) scale(0.100000,-0.100000)"
fill="#16364b" stroke="none">
<path d="M1548 5784 c-44 -24 -56 -62 -83 -266 -59 -442 -18 -610 161 -664 99
-30 200 21 292 145 94 125 235 439 249 552 14 112 -106 189 -203 130 -28 -17
-37 -35 -82 -176 -51 -157 -104 -278 -143 -325 l-20 -25 5 170 c4 94 9 215 12
271 5 83 4 106 -10 133 -33 63 -116 89 -178 55z"/>
<path d="M3283 5526 c-61 -27 -88 -106 -58 -169 11 -24 38 -50 83 -79 72 -46
184 -137 218 -177 l22 -25 -39 -18 c-102 -45 -105 -176 -7 -252 154 -117 349
-90 388 53 15 57 5 111 -35 196 -76 159 -214 305 -397 419 -99 62 -130 71
-175 52z"/>
<path d="M855 5475 c-116 -31 -213 -115 -268 -233 -30 -62 -32 -75 -32 -172 0
-93 3 -112 27 -162 48 -102 155 -188 235 -188 70 0 133 62 133 130 0 36 -38
97 -73 119 -58 36 -72 93 -38 159 40 78 107 108 184 83 138 -46 239 147 122
231 -58 43 -196 59 -290 33z"/>
<path d="M2972 5173 c-89 -31 -176 -145 -202 -266 -32 -144 52 -267 181 -267
55 0 169 40 215 75 47 36 63 72 76 170 19 143 -15 239 -102 283 -51 25 -106
27 -168 5z"/>
<path d="M2312 5033 c-12 -2 -38 -19 -57 -37 -34 -32 -35 -36 -35 -108 0 -110
-2 -112 -223 -203 -89 -37 -127 -79 -127 -141 0 -59 24 -100 75 -124 58 -28
78 -26 209 25 212 82 275 127 322 229 50 109 41 256 -19 313 -26 26 -97 57
-117 52 -3 -1 -15 -4 -28 -6z"/>
<path d="M4768 4825 c-59 -40 -72 -90 -65 -248 12 -261 71 -392 211 -465 68
-35 170 -37 232 -5 96 51 153 161 140 270 -17 149 -154 334 -316 429 -91 53
-144 59 -202 19z"/>
<path d="M2800 4149 c-131 -22 -239 -120 -248 -225 -17 -200 216 -318 506
-258 88 18 228 72 285 110 39 26 76 89 77 131 0 48 -31 103 -74 127 -61 36
-237 94 -334 111 -93 17 -130 17 -212 4z"/>
<path d="M1020 4060 c-57 -35 -85 -84 -85 -151 0 -97 58 -152 172 -163 91 -9
186 -27 197 -37 14 -12 -87 -102 -193 -173 -53 -35 -163 -98 -246 -141 -82
-42 -162 -90 -177 -106 -54 -57 -60 -143 -15 -210 26 -39 98 -79 142 -79 16 0
79 25 139 55 60 30 113 55 116 55 4 0 10 -13 13 -29 8 -40 52 -88 94 -101 59
-20 110 -7 208 52 50 30 131 72 180 93 83 36 97 39 186 39 85 1 100 4 132 26
42 28 77 91 77 136 -1 43 -33 108 -66 131 -65 47 -128 50 -292 17 l-34 -7 31
54 c34 61 61 154 61 211 0 62 -37 143 -89 197 -85 87 -228 138 -421 147 -84 4
-99 3 -130 -16z"/>
<path d="M4260 3789 c-75 -13 -169 -59 -224 -109 -163 -150 -126 -396 74 -489
80 -37 183 -36 263 1 115 54 210 190 243 348 34 162 -1 226 -135 249 -80 13
-142 13 -221 0z m17 -315 c-27 -23 -47 -24 -47 -3 0 11 62 40 70 32 3 -2 -8
-16 -23 -29z"/>
<path d="M3394 3391 c-44 -27 -85 -83 -139 -191 -67 -133 -64 -198 12 -247 37
-24 149 -20 203 7 115 59 194 252 146 359 -36 79 -150 116 -222 72z"/>
<path d="M5042 3343 c-148 -86 -237 -196 -263 -326 -30 -146 66 -298 204 -326
132 -27 295 67 365 209 24 49 27 67 27 155 0 117 -14 156 -90 248 -85 103
-123 109 -243 40z"/>
<path d="M1003 2810 c-66 -40 -84 -133 -37 -189 14 -17 57 -47 95 -67 187 -98
243 -286 133 -445 -27 -39 -89 -79 -123 -79 -36 0 -77 27 -117 75 -44 55 -80
75 -129 75 -119 0 -177 -129 -104 -231 86 -121 216 -190 356 -190 119 0 199
30 281 104 192 177 212 508 45 745 -51 72 -128 136 -224 187 -77 40 -128 45
-176 15z"/>
<path d="M2209 2817 c-101 -38 -165 -104 -221 -226 -79 -174 -91 -192 -170
-264 -43 -39 -81 -79 -84 -90 -3 -11 -28 -47 -56 -81 -131 -162 -245 -407
-278 -594 -56 -319 89 -619 398 -825 195 -130 371 -164 610 -118 357 69 606
274 739 607 41 104 97 287 117 387 49 235 35 465 -38 622 -56 120 -177 204
-326 226 -139 21 -152 28 -206 126 -59 105 -121 172 -194 209 -47 24 -69 28
-155 31 -67 2 -112 -1 -136 -10z m195 -490 c36 -81 131 -192 181 -213 17 -7
78 -17 135 -24 179 -18 178 -17 187 -151 9 -123 -37 -298 -143 -546 -83 -195
-155 -292 -253 -343 -139 -70 -353 -65 -491 12 -109 60 -178 127 -218 208 -23
48 -26 67 -26 150 0 118 23 198 101 352 50 97 70 124 187 249 156 165 228 255
264 327 14 28 30 52 34 52 5 0 23 -33 42 -73z"/>
<path d="M4175 2335 c-5 -2 -22 -6 -37 -9 -37 -8 -95 -61 -119 -108 -15 -30
-20 -56 -18 -106 1 -53 -1 -66 -12 -63 -87 24 -92 24 -143 8 -61 -20 -120 -73
-137 -125 -7 -21 -9 -63 -6 -106 7 -82 101 -457 125 -499 9 -15 34 -40 56 -55
34 -23 49 -27 110 -27 58 0 78 5 110 24 31 19 50 24 93 22 105 -5 204 64 244
169 32 82 28 193 -15 443 -20 115 -36 222 -36 238 0 68 -64 160 -124 178 -44
13 -79 19 -91 16z"/>
</g>
</svg>
