<?xml version="1.0" standalone="no"?>
<!DOCTYPE svg PUBLIC "-//W3C//DTD SVG 20010904//EN"
 "http://www.w3.org/TR/2001/REC-SVG-20010904/DTD/svg10.dtd">
<svg version="1.0" xmlns="http://www.w3.org/2000/svg"
 width="600.000000pt" height="600.000000pt" viewBox="0 0 600.000000 600.000000"
 preserveAspectRatio="xMidYMid meet">
<metadata>
Created by potrace 1.15, written by Peter Selinger 2001-2017
</metadata>
<g transform="translate(0.000000,600.000000) scale(0.100000,-0.100000)"
fill="#16364b" stroke="none">
<path d="M2190 5463 c-58 -21 -90 -89 -97 -203 -6 -103 17 -176 73 -234 63
-65 126 -79 281 -64 62 7 115 9 118 7 3 -3 -50 -129 -118 -280 -111 -249 -122
-279 -122 -332 0 -55 2 -61 37 -92 61 -56 151 -59 202 -7 15 15 43 67 62 115
18 48 81 182 138 297 104 209 126 271 126 356 0 87 -51 169 -133 212 -51 26
-56 27 -213 26 l-162 -1 9 30 c9 33 -2 90 -24 118 -35 46 -123 72 -177 52z"/>
<path d="M3763 5280 c-28 -4 -83 -20 -122 -35 -77 -29 -113 -64 -126 -122 -8
-41 23 -115 59 -138 38 -25 109 -31 159 -12 69 26 110 30 132 13 17 -13 20
-26 19 -103 -1 -97 -18 -175 -65 -291 -47 -118 -30 -193 54 -235 78 -39 157 9
206 126 73 177 110 375 92 502 -31 215 -189 330 -408 295z"/>
<path d="M1660 4885 c-139 -31 -391 -145 -434 -196 -72 -85 -49 -220 43 -256
35 -14 39 -19 44 -60 10 -94 56 -124 232 -153 182 -31 304 -64 406 -112 75
-35 95 -40 135 -35 58 6 92 31 123 90 32 62 23 127 -22 172 -49 49 -345 151
-517 180 -76 12 -80 21 -20 41 38 12 95 18 182 20 140 4 168 12 211 64 44 52
49 142 10 194 -34 47 -77 60 -208 63 -77 1 -143 -3 -185 -12z"/>
<path d="M2960 4286 c-488 -164 -496 -169 -520 -257 -26 -94 48 -199 140 -199
16 0 74 18 128 41 141 59 358 140 505 189 146 48 190 78 207 141 12 43 2 98
-24 135 -19 26 -76 54 -108 53 -12 0 -160 -47 -328 -103z"/>
<path d="M4282 4321 c-52 -7 -69 -14 -97 -41 -63 -61 -69 -137 -16 -194 39
-42 63 -48 221 -51 138 -2 220 -15 248 -37 21 -17 14 -143 -14 -263 -39 -164
-40 -196 -15 -242 25 -44 72 -80 117 -89 42 -8 100 18 123 57 24 39 77 253 93
374 35 257 -87 433 -328 474 -85 14 -259 20 -332 12z"/>
<path d="M2148 3870 c-101 -32 -279 -60 -431 -68 -125 -7 -151 -11 -175 -29
-86 -64 -86 -192 1 -257 23 -17 46 -22 119 -25 225 -8 637 69 696 131 57 62
64 151 15 209 -52 62 -118 73 -225 39z"/>
<path d="M3635 3729 c-92 -32 -537 -253 -559 -278 -13 -14 -21 -41 -24 -79 -3
-48 0 -63 20 -92 13 -19 39 -45 58 -58 59 -40 104 -29 323 81 105 53 193 95
194 93 2 -2 -8 -33 -22 -70 -21 -57 -24 -73 -15 -105 26 -97 139 -137 233 -82
62 35 154 288 145 397 -6 71 -44 142 -97 179 -37 26 -53 30 -119 33 -58 2 -92
-3 -137 -19z"/>
<path d="M4980 3270 c-74 -14 -136 -64 -165 -134 -14 -33 -16 -59 -10 -153 l7
-114 -58 -57 c-33 -31 -102 -90 -154 -131 -139 -107 -225 -234 -275 -406 -65
-219 -11 -439 125 -515 61 -33 185 -36 244 -4 87 45 127 141 104 247 -7 28
-12 79 -13 112 0 98 28 141 166 250 63 51 134 114 158 141 51 59 126 209 142
283 18 83 7 263 -20 333 -43 110 -141 169 -251 148z"/>
<path d="M2122 3241 l-94 -6 -39 -42 c-35 -38 -39 -48 -39 -93 0 -62 18 -100
67 -137 36 -28 38 -28 197 -31 218 -3 205 1 204 -75 0 -40 5 -74 15 -94 50
-95 174 -109 246 -28 39 45 54 100 55 205 1 99 -21 161 -82 223 -59 61 -122
79 -292 82 -80 2 -187 0 -238 -4z"/>
<path d="M4283 3157 c-17 -6 -61 -36 -96 -65 -35 -29 -91 -70 -123 -89 -126
-77 -370 -178 -501 -209 -38 -8 -82 -26 -99 -39 -87 -66 -84 -203 6 -263 30
-21 44 -23 100 -19 166 11 575 202 808 377 98 73 125 112 125 177 0 101 -117
170 -220 130z"/>
<path d="M1305 3021 c-16 -4 -44 -15 -60 -23 -108 -56 -127 -217 -38 -310 28
-29 31 -52 53 -358 30 -436 101 -663 223 -709 69 -26 164 -4 205 48 54 69 71
175 38 240 -43 82 -89 373 -101 641 -8 169 -24 258 -59 327 -52 103 -167 166
-261 144z"/>
<path d="M2085 2536 c-104 -33 -218 -115 -298 -216 -63 -79 -83 -130 -73 -184
13 -71 107 -135 175 -120 57 12 80 28 150 104 40 44 86 87 102 95 28 15 29 15
48 -24 19 -37 57 -75 84 -84 8 -2 0 -30 -25 -83 -60 -129 -72 -184 -72 -314 1
-131 33 -304 66 -358 52 -84 172 -83 247 4 43 48 47 86 21 199 -33 139 -25
211 35 331 48 96 53 125 31 177 -15 36 -69 87 -93 87 -11 0 -13 5 -7 18 21 48
16 103 -15 166 -83 169 -230 248 -376 202z"/>
<path d="M3605 2193 c-329 -49 -759 -132 -818 -156 -64 -27 -117 -113 -117
-187 1 -40 34 -103 73 -137 56 -49 90 -51 267 -14 390 81 542 110 632 121 l98
12 39 -35 c48 -43 99 -61 163 -55 52 5 89 27 122 72 31 41 29 154 -3 216 -40
76 -71 108 -129 137 -52 26 -68 28 -177 29 -66 1 -133 0 -150 -3z"/>
<path d="M4562 1617 c-18 -5 -59 -36 -91 -67 -97 -95 -134 -106 -449 -130
-203 -15 -325 -60 -532 -197 -136 -90 -246 -195 -255 -245 -6 -34 -9 -36 -57
-42 -53 -7 -71 -17 -153 -79 -55 -41 -127 -67 -189 -67 -139 0 -339 121 -506
306 -72 80 -153 90 -253 30 -64 -37 -90 -77 -95 -146 -5 -74 7 -97 115 -210
149 -157 402 -308 601 -360 61 -16 206 -13 277 5 83 21 212 86 284 143 54 42
89 91 105 145 4 12 16 17 46 17 51 0 82 16 188 96 104 78 261 157 367 183 44
11 145 27 223 36 79 8 171 22 205 31 145 36 334 155 401 252 34 49 45 121 27
175 -15 46 -88 112 -137 126 -47 13 -78 13 -122 -2z"/>
</g>
</svg>
