<?xml version="1.0" standalone="no"?>
<!DOCTYPE svg PUBLIC "-//W3C//DTD SVG 20010904//EN"
 "http://www.w3.org/TR/2001/REC-SVG-20010904/DTD/svg10.dtd">
<svg version="1.0" xmlns="http://www.w3.org/2000/svg"
 width="600.000000pt" height="600.000000pt" viewBox="0 0 600.000000 600.000000"
 preserveAspectRatio="xMidYMid meet">
<metadata>
Created by potrace 1.15, written by Peter Selinger 2001-2017
</metadata>
<g transform="translate(0.000000,600.000000) scale(0.100000,-0.100000)"
fill="#16364b" stroke="none">
<path d="M3100 5649 c-44 -27 -57 -44 -71 -94 -9 -33 -8 -50 6 -95 48 -155
162 -286 326 -377 122 -67 199 -115 199 -124 0 -12 -64 -70 -120 -109 -30 -20
-138 -88 -240 -150 -102 -62 -196 -123 -210 -135 -14 -12 -46 -30 -73 -39 -83
-31 -183 -118 -207 -180 -5 -15 -10 -48 -10 -73 0 -95 74 -157 187 -158 54 0
66 4 100 31 24 20 41 44 47 67 8 32 15 38 55 51 25 8 72 20 104 26 70 14 112
48 131 105 12 36 28 50 182 153 270 180 347 275 347 425 0 128 -69 217 -236
303 -188 96 -253 155 -312 279 -30 62 -43 79 -75 95 -50 26 -86 25 -130 -1z"/>
<path d="M1194 5365 c-111 -55 -263 -214 -328 -344 -63 -123 -87 -280 -67
-422 29 -192 93 -279 208 -279 86 0 153 66 153 151 0 18 -12 62 -27 98 -23 55
-27 81 -27 157 0 85 2 96 37 166 37 76 98 142 185 201 103 70 108 217 10 277
-44 27 -84 25 -144 -5z"/>
<path d="M1604 5231 c-90 -55 -110 -160 -43 -232 l29 -31 -20 -38 c-117 -229
-83 -427 87 -503 104 -46 341 -58 414 -21 105 53 106 190 3 255 -33 21 -50 24
-114 22 -86 -3 -120 3 -120 19 0 6 18 55 40 108 87 213 71 348 -49 413 -62 34
-177 38 -227 8z"/>
<path d="M4522 4650 c-94 -58 -95 -192 -1 -249 17 -10 61 -22 97 -26 37 -3 78
-9 91 -12 24 -6 24 -6 4 -14 -12 -4 -50 -13 -84 -19 -76 -14 -104 -32 -130
-81 -37 -74 -16 -175 45 -206 43 -22 96 -19 210 11 245 65 366 154 390 286 9
52 -18 134 -61 181 -68 75 -153 112 -308 134 -143 21 -213 19 -253 -5z"/>
<path d="M1858 4270 c-161 -27 -385 -145 -442 -233 -68 -105 6 -247 129 -247
42 0 64 10 120 56 90 73 229 124 337 124 131 0 206 89 160 192 -43 98 -146
134 -304 108z"/>
<path d="M2560 3735 c-100 -22 -228 -65 -263 -89 -103 -70 -102 -193 2 -263
45 -30 99 -30 192 3 41 14 109 28 153 31 l78 6 -7 -44 c-22 -134 -124 -318
-304 -552 -141 -182 -136 -174 -135 -226 1 -67 34 -117 97 -146 l49 -23 -31
-16 c-84 -44 -115 -179 -59 -263 63 -95 158 -112 288 -51 102 48 258 106 309
114 l41 7 -24 -64 c-31 -84 -61 -150 -127 -283 -46 -93 -54 -118 -54 -165 0
-181 199 -288 324 -175 47 42 136 217 180 354 119 369 121 538 6 639 -61 53
-118 74 -216 79 -110 6 -215 -15 -373 -74 -66 -24 -121 -42 -123 -41 -1 2 25
39 58 83 97 125 251 362 307 471 28 55 63 142 78 192 34 118 32 259 -5 329
-76 147 -244 211 -441 167z"/>
<path d="M3996 3705 c-64 -24 -107 -64 -133 -123 -45 -96 -15 -198 87 -300 77
-78 151 -114 243 -120 65 -3 78 -1 127 25 61 32 109 88 135 157 23 59 14 106
-30 154 -20 22 -36 54 -41 77 -9 50 -65 108 -119 125 -66 19 -224 22 -269 5z"/>
<path d="M1116 3569 c-70 -17 -234 -110 -305 -173 -33 -30 -71 -114 -71 -160
0 -57 35 -123 82 -153 31 -21 51 -26 96 -26 31 0 68 5 80 12 13 7 26 10 29 7
5 -5 -44 -175 -133 -465 -73 -235 -103 -483 -68 -557 27 -57 86 -99 163 -118
63 -15 72 -16 109 -1 22 9 53 31 69 48 15 18 57 66 93 107 36 41 125 140 199
220 73 80 176 201 228 270 52 69 99 127 105 129 8 3 9 -33 5 -115 -6 -122 -16
-169 -111 -509 -61 -217 -79 -319 -80 -445 -1 -130 11 -166 67 -201 64 -39
124 -37 177 8 43 36 56 74 63 188 6 111 30 234 107 554 74 309 82 378 77 616
-5 219 -12 257 -59 311 -61 69 -133 82 -224 40 -74 -35 -271 -235 -429 -436
-33 -41 -61 -77 -62 -79 -2 -2 -5 -2 -7 0 -4 4 30 106 130 389 91 257 65 406
-87 510 -47 32 -59 35 -128 37 -42 1 -94 -2 -115 -8z"/>
<path d="M3603 3251 c-109 -37 -195 -126 -246 -255 -40 -99 -43 -136 -18 -190
44 -91 174 -114 248 -44 19 18 45 26 118 35 144 18 222 61 266 145 27 53 25
141 -4 193 -63 111 -227 164 -364 116z"/>
<path d="M4705 3090 c-67 -20 -110 -88 -103 -160 5 -51 31 -111 90 -208 37
-60 38 -64 23 -92 -33 -64 -5 -149 60 -176 43 -18 136 -18 178 0 41 16 81 64
97 112 20 59 5 118 -57 233 -31 58 -74 140 -95 181 -23 47 -48 82 -65 92 -37
21 -91 29 -128 18z"/>
<path d="M4467 2326 c-136 -49 -192 -159 -163 -320 l9 -49 -29 8 c-126 32
-181 39 -299 39 -157 1 -214 -17 -298 -94 -106 -97 -142 -225 -141 -505 0
-214 12 -274 64 -337 103 -124 313 -115 396 17 17 25 20 56 24 240 l5 210 25
-3 c13 -2 69 -17 123 -33 94 -27 105 -28 202 -19 57 5 128 18 158 29 202 71
285 261 243 558 -17 126 -39 179 -89 217 -72 55 -152 69 -230 42z"/>
<path d="M2129 1840 c-94 -50 -114 -110 -105 -310 7 -183 28 -307 72 -439 76
-227 156 -318 381 -430 143 -71 233 -88 306 -57 31 13 90 70 99 98 4 9 27 -2
79 -38 153 -106 259 -138 384 -117 124 21 260 105 292 180 17 42 17 117 -1
152 -22 42 -81 89 -128 101 -57 16 -117 5 -173 -32 -47 -31 -47 -31 -83 -14
-84 40 -248 143 -301 189 -31 28 -96 90 -146 138 -91 90 -140 119 -195 119
-38 0 -93 -23 -136 -55 -23 -18 -35 -22 -40 -13 -4 6 -9 102 -12 212 -5 230
-13 256 -84 303 -55 37 -155 43 -209 13z"/>
</g>
</svg>
