<?xml version="1.0" standalone="no"?>
<!DOCTYPE svg PUBLIC "-//W3C//DTD SVG 20010904//EN"
 "http://www.w3.org/TR/2001/REC-SVG-20010904/DTD/svg10.dtd">
<svg version="1.0" xmlns="http://www.w3.org/2000/svg"
 width="600.000000pt" height="600.000000pt" viewBox="0 0 600.000000 600.000000"
 preserveAspectRatio="xMidYMid meet">
<metadata>
Created by potrace 1.15, written by Peter Selinger 2001-2017
</metadata>
<g transform="translate(0.000000,600.000000) scale(0.100000,-0.100000)"
fill="#16364b" stroke="none">
<path d="M3135 5651 c-46 -28 -61 -49 -95 -134 -38 -96 -63 -218 -56 -275 20
-153 151 -266 341 -293 44 -6 83 -15 88 -18 4 -4 -66 -56 -155 -116 -187 -124
-366 -256 -420 -309 -25 -24 -39 -48 -43 -74 -3 -20 -10 -58 -15 -83 -12 -63
4 -116 47 -157 74 -70 170 -101 393 -127 74 -9 169 -23 210 -31 142 -27 197
-15 241 52 38 58 16 174 -39 203 -31 17 -100 29 -278 51 -92 12 -174 25 -181
29 -9 5 33 42 134 118 147 110 187 137 375 247 177 104 218 185 157 307 -46
93 -172 152 -398 190 -69 12 -134 25 -143 30 -25 14 -23 63 7 151 30 89 31
127 5 179 -37 72 -113 98 -175 60z"/>
<path d="M1384 5375 c-222 -116 -407 -377 -494 -695 -32 -116 -34 -263 -5
-302 64 -85 192 -80 250 9 18 28 35 34 185 76 174 49 240 63 240 53 0 -3 -29
-68 -64 -144 -82 -175 -100 -236 -100 -339 -1 -73 -3 -84 -22 -94 -12 -6 -32
-29 -44 -51 -28 -50 -25 -143 7 -186 34 -46 91 -73 143 -69 53 5 214 80 410
192 157 90 176 105 202 163 35 77 -1 166 -79 198 -51 22 -83 17 -172 -26 l-83
-40 7 27 c3 16 29 81 56 146 88 209 99 294 52 388 -36 69 -94 114 -170 130
-81 16 -237 5 -357 -25 -55 -14 -101 -24 -104 -22 -2 3 16 42 39 88 53 101
155 207 246 256 69 37 98 67 113 120 25 92 -51 182 -155 182 -19 0 -63 -15
-101 -35z"/>
<path d="M4625 4460 c-102 -15 -294 -59 -325 -75 -33 -17 -70 -80 -70 -120 0
-63 58 -136 119 -150 17 -3 84 5 161 20 73 14 135 23 138 21 3 -3 0 -11 -5
-18 -5 -7 -79 -101 -165 -208 -85 -107 -160 -205 -167 -217 -30 -58 -1 -145
61 -183 38 -23 113 -27 153 -8 30 13 324 359 386 453 127 192 151 326 76 412
-48 54 -105 76 -212 79 -49 1 -117 -1 -150 -6z"/>
<path d="M3834 3681 c-51 -24 -84 -74 -84 -130 0 -72 26 -104 182 -229 52 -43
80 -73 87 -95 24 -71 102 -116 170 -97 46 13 63 27 90 70 25 42 28 108 5 156
-9 19 -45 64 -80 100 -35 37 -65 78 -69 94 -8 38 -62 85 -133 116 -78 34 -119
38 -168 15z"/>
<path d="M2450 3617 c-163 -46 -302 -114 -331 -162 -43 -69 -9 -170 71 -213
60 -32 112 -26 220 25 95 46 150 63 198 63 31 0 32 -2 32 -38 0 -122 -79 -304
-245 -561 -58 -91 -110 -181 -115 -200 -17 -64 1 -108 71 -174 103 -97 156
-113 254 -77 138 49 328 110 346 110 10 0 19 -3 19 -7 0 -27 -75 -190 -164
-357 -31 -58 -33 -106 -7 -161 37 -80 111 -125 203 -125 91 0 124 27 185 150
64 129 137 323 165 439 26 111 22 236 -10 298 -75 144 -234 196 -450 148 -45
-10 -85 -16 -88 -12 -3 3 6 27 19 54 64 127 109 319 111 473 1 173 -40 262
-148 317 -75 39 -217 43 -336 10z"/>
<path d="M4483 3450 c-84 -51 -92 -144 -21 -226 33 -37 61 -51 250 -125 69
-27 131 -56 138 -64 15 -18 -17 -77 -150 -280 -88 -134 -92 -142 -88 -186 13
-133 181 -182 258 -75 39 54 200 308 233 366 69 124 81 233 36 321 -26 52
-112 124 -194 164 -98 47 -342 125 -390 125 -22 0 -54 -9 -72 -20z"/>
<path d="M1065 3411 c-84 -30 -181 -87 -277 -164 -105 -84 -103 -244 3 -314
56 -37 138 -43 193 -14 22 11 41 19 43 18 1 -2 -8 -46 -22 -98 -129 -485 -145
-565 -145 -722 0 -134 12 -184 57 -237 49 -57 80 -71 205 -97 38 -7 71 3 107
33 38 32 218 270 426 563 l158 223 15 -28 c18 -35 11 -128 -24 -304 -28 -143
-90 -539 -106 -680 -10 -83 -9 -103 6 -155 42 -144 186 -198 273 -104 44 48
56 129 28 183 -20 37 -19 65 5 182 11 54 34 177 50 273 17 97 39 221 50 276
29 151 36 322 17 436 -9 52 -18 126 -21 164 -7 94 -21 139 -57 180 -57 64
-143 79 -224 38 -80 -41 -278 -264 -450 -507 -27 -38 -51 -64 -53 -58 -2 6 18
91 43 189 26 98 58 220 71 272 16 62 24 121 24 176 0 71 -4 90 -30 142 -65
131 -219 187 -365 134z"/>
<path d="M3805 3199 c-174 -17 -349 -132 -415 -271 -35 -73 -37 -98 -10 -155
24 -55 70 -83 133 -83 77 0 118 29 167 118 19 35 31 46 45 43 11 -2 61 -4 110
-4 73 -1 98 3 130 20 75 39 105 88 105 171 0 115 -103 178 -265 161z"/>
<path d="M4630 2200 c-92 -32 -160 -121 -160 -212 0 -25 -4 -28 -31 -28 -17 0
-99 12 -183 26 -169 29 -305 29 -386 0 -110 -40 -206 -138 -244 -251 -11 -30
-21 -109 -27 -200 -6 -82 -12 -178 -15 -213 l-6 -63 -38 33 c-167 145 -233
195 -290 222 -59 28 -74 31 -165 31 -92 0 -104 -2 -153 -30 -84 -46 -146 -122
-210 -257 -32 -64 -60 -118 -63 -118 -3 0 -13 57 -23 128 -50 364 -102 491
-215 522 -76 20 -162 -10 -224 -79 -46 -51 -64 -111 -48 -166 31 -106 85 -330
126 -516 24 -113 54 -231 65 -262 54 -144 193 -260 346 -288 73 -14 124 -4
173 32 59 42 81 92 81 184 0 67 6 89 54 213 60 155 102 242 116 242 16 0 154
-117 234 -199 55 -57 97 -90 142 -112 57 -28 70 -31 141 -27 57 2 92 10 128
28 54 26 155 120 155 144 0 8 17 28 38 44 77 62 122 201 122 382 0 49 3 95 6
104 7 18 81 21 174 6 192 -32 290 -40 355 -31 184 26 318 166 345 361 19 140
-13 261 -85 316 -73 55 -144 66 -235 34z"/>
</g>
</svg>
