<?xml version="1.0" standalone="no"?>
<!DOCTYPE svg PUBLIC "-//W3C//DTD SVG 20010904//EN"
 "http://www.w3.org/TR/2001/REC-SVG-20010904/DTD/svg10.dtd">
<svg version="1.0" xmlns="http://www.w3.org/2000/svg"
 width="600.000000pt" height="600.000000pt" viewBox="0 0 600.000000 600.000000"
 preserveAspectRatio="xMidYMid meet">
<metadata>
Created by potrace 1.15, written by Peter Selinger 2001-2017
</metadata>
<g transform="translate(0.000000,600.000000) scale(0.100000,-0.100000)"
fill="#16364b" stroke="none">
<path d="M3535 5244 c-14 -15 -25 -38 -25 -52 0 -58 102 -200 172 -239 36 -20
92 -16 114 8 41 45 13 131 -76 232 -72 82 -140 100 -185 51z m134 -127 c42
-56 48 -67 31 -67 -9 0 -90 101 -90 113 0 19 22 2 59 -46z"/>
<path d="M3022 5069 c-82 -41 -143 -142 -146 -242 -1 -54 2 -61 32 -88 37 -33
60 -36 105 -13 87 45 155 128 177 216 30 117 -56 182 -168 127z m88 -97 c0
-36 -48 -112 -92 -146 -45 -34 -58 -33 -58 6 0 70 73 168 126 168 20 0 24 -5
24 -28z"/>
<path d="M4768 4714 c-15 -8 -31 -27 -35 -42 -19 -67 3 -437 32 -538 12 -43
21 -55 50 -68 32 -16 38 -16 69 -1 24 12 40 29 51 58 25 62 23 230 -4 387 -30
166 -37 187 -71 205 -36 19 -57 18 -92 -1z"/>
<path d="M2647 4229 c-33 -19 -49 -65 -37 -108 13 -50 51 -88 125 -122 86 -40
168 -59 258 -59 76 0 80 1 113 34 64 64 35 142 -61 165 -22 5 -104 30 -183 55
-147 47 -184 53 -215 35z"/>
<path d="M1511 4146 c-51 -17 -107 -67 -127 -113 -8 -18 -14 -61 -14 -96 0
-91 40 -168 127 -245 98 -86 140 -188 178 -427 9 -55 25 -140 36 -190 47 -219
66 -399 89 -842 20 -394 53 -523 183 -711 69 -100 165 -187 252 -229 40 -19
125 -47 190 -63 64 -16 119 -31 121 -33 2 -2 -1 -40 -7 -84 -16 -114 -1 -201
73 -424 34 -104 59 -193 55 -202 -5 -14 -21 -17 -82 -17 -116 0 -175 -35 -175
-103 0 -67 48 -97 159 -97 87 0 165 27 208 72 72 77 73 120 4 337 -81 253 -94
338 -71 448 l11 48 167 0 c92 0 304 4 471 9 l304 9 -9 -29 c-5 -16 -9 -72 -9
-124 0 -83 4 -103 29 -157 28 -61 95 -136 159 -177 40 -27 33 -36 -23 -36 -60
0 -114 -20 -129 -48 -17 -32 -13 -77 9 -105 60 -76 247 -52 318 41 23 30 27
45 27 96 0 77 -19 105 -126 187 -43 33 -86 74 -95 91 -25 48 -15 141 22 203
l30 49 95 12 c174 22 542 125 664 187 183 92 316 253 386 467 27 82 31 109 31
200 0 124 -26 219 -93 340 -55 99 -179 223 -269 268 -141 70 -292 66 -464 -12
-141 -65 -361 -81 -606 -46 -253 36 -374 70 -520 146 -281 146 -489 366 -700
738 -145 256 -241 364 -445 503 -44 30 -108 74 -143 98 -34 25 -79 49 -100 55
-62 19 -144 21 -191 6z m168 -192 c25 -13 61 -38 80 -55 20 -17 70 -52 111
-79 147 -95 228 -190 372 -434 127 -215 252 -380 393 -521 159 -160 315 -269
484 -340 108 -45 168 -60 404 -100 362 -61 524 -47 806 70 139 58 287 25 386
-88 63 -72 132 -215 144 -297 16 -119 -15 -244 -88 -356 -48 -74 -156 -176
-223 -210 -133 -67 -417 -150 -608 -177 -89 -13 -186 -14 -640 -7 -294 5 -574
13 -622 19 -128 16 -295 57 -365 91 -135 66 -237 213 -288 416 -28 109 -39
224 -55 594 -13 288 -21 363 -60 559 -16 80 -39 204 -50 276 -42 261 -97 378
-233 497 -74 65 -96 106 -79 143 16 34 72 34 131 -1z"/>
<path d="M2386 2518 c-9 -12 -16 -30 -16 -39 0 -21 55 -69 79 -69 23 0 48 27
56 62 15 58 -84 96 -119 46z"/>
<path d="M2857 2152 c-10 -10 -17 -29 -17 -41 0 -28 46 -71 75 -71 50 0 80 87
40 116 -27 20 -79 17 -98 -4z"/>
<path d="M5250 3967 c-99 -23 -160 -71 -203 -156 -31 -65 -32 -214 0 -283 30
-66 105 -143 172 -175 49 -24 68 -28 146 -28 76 0 99 4 146 26 69 33 129 91
166 161 23 45 27 65 28 133 0 66 -4 89 -25 129 -29 57 -94 125 -142 150 -18
10 -44 24 -58 31 -37 20 -166 27 -230 12z m136 -297 c26 -10 26 -11 9 -30 -30
-33 -75 -20 -75 22 0 21 24 23 66 8z"/>
<path d="M4220 3751 c-95 -31 -182 -112 -230 -214 -66 -137 -22 -255 114 -312
67 -28 139 -37 211 -25 163 26 248 117 248 265 1 137 -43 219 -141 265 -51 24
-158 36 -202 21z m80 -260 c0 -25 -14 -41 -36 -41 -28 0 -30 7 -7 32 17 19 43
24 43 9z"/>
<path d="M486 2014 c-32 -32 -16 -58 76 -121 131 -90 188 -114 232 -97 24 9
20 60 -6 79 -35 25 -268 155 -278 155 -5 0 -16 -7 -24 -16z"/>
<path d="M5338 1100 c-53 -41 -78 -173 -44 -225 27 -41 73 -59 117 -46 60 18
83 60 88 158 3 79 2 83 -24 108 -35 32 -100 35 -137 5z"/>
</g>
</svg>
