<?xml version="1.0" standalone="no"?>
<!DOCTYPE svg PUBLIC "-//W3C//DTD SVG 20010904//EN"
 "http://www.w3.org/TR/2001/REC-SVG-20010904/DTD/svg10.dtd">
<svg version="1.0" xmlns="http://www.w3.org/2000/svg"
 width="600.000000pt" height="600.000000pt" viewBox="0 0 600.000000 600.000000"
 preserveAspectRatio="xMidYMid meet">
<metadata>
Created by potrace 1.15, written by Peter Selinger 2001-2017
</metadata>
<g transform="translate(0.000000,600.000000) scale(0.100000,-0.100000)"
fill="#16364b" stroke="none">
<path d="M3029 5613 c-52 -8 -97 -62 -138 -163 -69 -173 -76 -286 -23 -383 56
-104 142 -145 321 -156 l113 -6 -109 -72 c-188 -123 -488 -374 -519 -435 -32
-62 -10 -132 61 -191 51 -43 119 -70 285 -117 129 -36 294 -86 449 -136 149
-48 200 -44 260 20 35 37 41 127 12 173 -11 18 -30 39 -43 47 -28 18 -447 157
-545 181 -40 9 -73 21 -73 25 0 11 164 133 270 200 296 187 360 237 391 305
53 116 -10 225 -159 275 -58 20 -94 24 -256 28 l-188 4 5 32 c3 17 21 65 41
107 41 86 46 143 19 191 -32 53 -105 83 -174 71z"/>
<path d="M1507 5355 c-112 -42 -315 -217 -407 -350 -63 -91 -89 -149 -152
-335 -75 -224 -73 -301 11 -357 45 -30 99 -30 192 3 171 58 429 112 429 88 0
-5 -34 -72 -76 -149 -111 -207 -154 -301 -154 -339 0 -18 -12 -55 -26 -80 -61
-109 5 -226 127 -226 61 0 514 183 587 237 111 83 64 261 -74 280 -32 4 -52
-2 -116 -36 -43 -23 -82 -41 -88 -41 -6 0 6 32 25 71 50 99 93 218 105 293 19
117 -27 211 -131 266 -59 31 -72 34 -174 38 -76 3 -137 -1 -199 -12 -48 -10
-90 -15 -93 -13 -6 7 33 82 78 148 48 72 162 177 230 213 64 34 96 61 115 98
60 115 -81 252 -209 203z"/>
<path d="M4600 4519 c-95 -16 -442 -138 -473 -167 -82 -78 -43 -218 71 -253
37 -11 48 -10 99 10 155 60 247 92 260 89 15 -3 -115 -224 -250 -423 -95 -141
-110 -177 -96 -228 11 -40 54 -97 73 -97 7 0 23 -12 37 -26 36 -39 63 -50 184
-73 200 -40 365 -86 365 -103 0 -6 -40 -79 -89 -162 -129 -219 -182 -328 -183
-380 -2 -132 156 -214 239 -123 11 12 46 72 76 132 31 61 73 135 93 165 151
228 200 338 191 422 -11 91 -66 162 -165 212 -56 28 -232 85 -361 116 -58 14
-91 27 -88 34 3 6 58 88 122 181 139 199 188 287 211 374 37 145 -32 270 -166
300 -52 12 -74 12 -150 0z"/>
<path d="M3738 3670 c-67 -36 -106 -117 -89 -188 24 -107 108 -182 189 -169
79 13 77 14 80 -16 2 -16 -6 -52 -18 -81 -22 -52 -23 -53 -79 -64 -166 -31
-311 -135 -385 -277 -50 -96 24 -220 133 -220 59 0 103 28 151 98 51 73 106
99 218 101 132 3 192 47 192 141 0 22 8 54 18 70 126 207 26 498 -208 604 -59
27 -151 27 -202 1z"/>
<path d="M2467 3564 c-94 -20 -230 -66 -310 -104 -103 -50 -131 -118 -84 -210
16 -33 34 -51 67 -68 59 -30 101 -25 211 27 97 47 193 74 247 69 l37 -3 -2
-50 c-4 -100 -89 -307 -207 -504 -58 -98 -70 -147 -46 -191 6 -11 12 -46 14
-79 6 -102 67 -181 154 -197 28 -5 67 3 176 39 126 42 269 77 311 77 8 0 15
-7 15 -15 0 -8 -38 -90 -85 -182 -92 -181 -99 -208 -66 -278 33 -72 111 -125
183 -125 45 1 107 31 144 71 39 43 134 212 173 310 91 227 77 429 -36 529 -73
64 -137 84 -273 83 -63 -1 -151 -8 -195 -17 -44 -9 -83 -16 -88 -16 -4 0 10
35 31 78 94 187 127 311 120 456 -6 147 -62 241 -173 292 -42 20 -65 24 -150
23 -55 0 -130 -7 -168 -15z"/>
<path d="M1087 3346 c-64 -27 -176 -108 -254 -183 -75 -74 -92 -151 -50 -233
33 -65 85 -102 150 -108 38 -3 63 1 86 13 18 9 35 14 37 12 3 -3 -15 -83 -40
-179 -61 -239 -80 -368 -80 -568 -1 -188 11 -249 56 -304 48 -59 98 -79 200
-80 87 -1 88 -1 122 34 36 36 209 303 385 594 105 174 140 226 151 226 3 0 12
-17 20 -37 26 -73 12 -256 -47 -613 -25 -151 -36 -249 -37 -330 -1 -109 1
-118 29 -175 40 -78 70 -100 143 -100 44 0 65 5 90 23 62 45 71 84 57 237 -5
55 1 117 29 295 19 124 42 276 51 338 17 125 19 362 5 432 -6 25 -17 80 -25
123 -18 100 -43 155 -88 194 -89 78 -195 64 -321 -41 -82 -68 -311 -347 -366
-446 -20 -36 -17 5 10 120 80 346 92 495 50 605 -57 149 -211 213 -363 151z"/>
<path d="M4740 2331 c-86 -17 -161 -87 -190 -179 -15 -46 -15 -47 -55 -44 -65
5 -335 -17 -395 -32 -177 -44 -293 -124 -355 -245 -42 -83 -55 -154 -55 -293
0 -70 -2 -128 -4 -128 -3 0 -36 23 -73 52 -125 95 -241 131 -350 109 -185 -37
-331 -185 -499 -505 -58 -112 -63 -118 -69 -90 -4 16 -9 36 -11 44 -2 8 -13
80 -24 160 -43 300 -95 457 -170 506 -88 58 -205 37 -274 -49 -28 -35 -31 -46
-30 -105 0 -43 10 -97 28 -152 15 -47 45 -186 67 -309 45 -255 72 -344 130
-436 47 -74 93 -114 176 -152 108 -50 279 -29 340 40 28 33 44 64 130 262 56
127 145 280 201 344 51 59 65 54 186 -57 112 -103 197 -157 275 -173 153 -32
315 43 392 182 80 142 74 115 74 331 0 108 4 200 8 204 5 5 128 9 275 9 255 0
270 1 324 23 80 32 148 97 184 174 27 59 29 70 29 193 0 148 -14 191 -83 257
-31 31 -116 71 -140 67 -4 -1 -23 -4 -42 -8z"/>
</g>
</svg>
