<?xml version="1.0" standalone="no"?>
<!DOCTYPE svg PUBLIC "-//W3C//DTD SVG 20010904//EN"
 "http://www.w3.org/TR/2001/REC-SVG-20010904/DTD/svg10.dtd">
<svg version="1.0" xmlns="http://www.w3.org/2000/svg"
 width="600.000000pt" height="600.000000pt" viewBox="0 0 600.000000 600.000000"
 preserveAspectRatio="xMidYMid meet">
<metadata>
Created by potrace 1.15, written by Peter Selinger 2001-2017
</metadata>
<g transform="translate(0.000000,600.000000) scale(0.100000,-0.100000)"
fill="#16364b" stroke="none">
<path d="M3184 5472 c-69 -44 -94 -105 -74 -178 12 -43 66 -104 93 -104 21 -1
57 -37 72 -74 23 -55 18 -131 -15 -226 -16 -47 -30 -102 -30 -124 0 -106 117
-169 219 -116 51 26 75 58 100 133 61 183 43 388 -45 528 -82 131 -241 210
-320 161z"/>
<path d="M2053 5440 c-61 -31 -86 -87 -86 -194 0 -167 78 -244 275 -272 26 -3
52 -12 58 -19 8 -10 7 -50 -4 -149 -21 -177 -21 -270 0 -306 41 -69 152 -87
220 -35 46 35 60 70 67 170 3 44 13 114 22 155 26 120 23 216 -7 282 -48 104
-138 170 -269 197 -56 12 -57 12 -62 53 -14 102 -124 163 -214 118z"/>
<path d="M1437 4770 c-113 -18 -174 -85 -164 -183 5 -59 30 -95 82 -121 36
-18 44 -18 134 -6 154 22 331 18 423 -9 92 -26 130 -22 182 20 85 71 69 197
-33 248 -82 43 -148 53 -361 56 -113 2 -231 0 -263 -5z"/>
<path d="M4296 4571 c-45 -30 -68 -75 -68 -131 0 -64 24 -98 101 -139 136 -72
160 -116 171 -307 8 -135 15 -160 58 -206 67 -73 193 -54 239 35 13 26 15 55
10 182 -9 250 -63 367 -223 485 -125 93 -226 121 -288 81z"/>
<path d="M3182 4450 c-12 -6 -60 -40 -105 -78 -89 -75 -151 -118 -297 -209
-249 -155 -260 -166 -260 -251 0 -59 29 -109 80 -135 64 -33 97 -21 307 110
200 126 327 219 418 307 44 44 54 60 60 99 17 109 -99 198 -203 157z"/>
<path d="M1617 4386 c-68 -25 -107 -76 -107 -141 0 -86 66 -148 168 -159 213
-23 393 -36 501 -36 107 0 131 3 158 20 45 27 66 73 61 131 -10 101 -92 157
-212 146 -98 -9 -281 8 -506 48 -14 2 -42 -2 -63 -9z"/>
<path d="M3685 3855 c-32 -13 -145 -74 -250 -134 -104 -60 -228 -127 -275
-149 -173 -80 -182 -85 -205 -121 -36 -55 -41 -100 -16 -155 21 -49 63 -76
116 -76 59 0 324 114 577 248 127 67 141 72 198 72 59 0 65 2 100 38 108 107
17 303 -142 302 -23 0 -70 -11 -103 -25z"/>
<path d="M2210 3820 c-146 -33 -296 -50 -431 -50 -110 0 -136 -3 -169 -20 -59
-30 -85 -74 -85 -142 0 -103 51 -141 215 -159 178 -20 356 -1 563 60 86 25
126 48 153 89 35 52 39 97 12 150 -44 89 -107 106 -258 72z"/>
<path d="M5007 3555 c-62 -23 -114 -71 -143 -133 -25 -53 -26 -61 -18 -137 20
-196 9 -234 -125 -440 -87 -133 -213 -354 -275 -485 -35 -74 -40 -94 -40 -155
0 -52 5 -80 21 -110 58 -109 175 -153 279 -106 58 27 89 61 136 154 75 150
170 310 274 463 172 251 208 348 208 554 0 164 -17 257 -57 317 -57 84 -160
114 -260 78z"/>
<path d="M1982 3139 c-43 -28 -62 -67 -62 -124 0 -116 63 -150 334 -181 136
-15 142 -17 176 -49 47 -44 71 -55 120 -55 102 0 174 92 148 188 -6 24 -30 57
-67 93 -70 68 -138 97 -266 110 -49 5 -126 15 -170 21 -151 21 -177 21 -213
-3z"/>
<path d="M4355 3138 c-11 -6 -56 -44 -100 -83 -128 -114 -269 -200 -402 -246
-87 -30 -238 -59 -353 -68 -126 -10 -161 -26 -190 -86 -25 -53 -25 -88 1 -141
21 -44 62 -76 112 -88 31 -7 184 7 314 30 254 44 523 181 719 367 90 85 114
123 114 180 0 38 -31 90 -72 120 -32 24 -115 33 -143 15z"/>
<path d="M1348 2941 c-31 -20 -52 -44 -68 -76 l-23 -47 17 -212 c29 -379 87
-640 186 -837 56 -111 83 -144 136 -170 35 -17 58 -20 104 -17 77 5 122 36
157 106 37 75 29 123 -41 254 -104 197 -153 401 -166 700 -9 197 -14 221 -52
269 -52 66 -171 80 -250 30z"/>
<path d="M2076 2365 c-77 -20 -120 -47 -140 -89 -35 -74 -7 -165 64 -212 42
-28 49 -28 207 -8 67 8 94 1 135 -37 65 -61 124 -73 194 -38 46 22 77 63 88
115 17 77 -69 179 -204 242 -68 32 -84 36 -180 38 -69 2 -125 -1 -164 -11z"/>
<path d="M3980 2080 c-52 -10 -176 -38 -275 -64 -217 -55 -311 -70 -607 -101
-249 -25 -285 -35 -326 -95 -56 -82 -50 -183 14 -259 64 -75 101 -83 271 -65
167 17 536 91 893 179 58 14 145 30 194 35 110 11 167 42 204 110 19 37 23 56
20 106 -4 73 -33 122 -89 153 -47 27 -163 27 -299 1z"/>
<path d="M2161 1692 c-75 -38 -97 -112 -62 -206 75 -200 213 -356 398 -450
125 -63 235 -4 235 124 0 78 -27 116 -120 167 -111 61 -191 152 -226 258 -37
109 -133 155 -225 107z"/>
<path d="M4792 1688 c-34 -7 -60 -27 -137 -103 -119 -118 -169 -143 -450 -225
-366 -107 -681 -219 -740 -264 -71 -54 -87 -160 -36 -236 40 -60 93 -90 159
-90 42 0 88 14 215 64 199 78 332 122 547 180 242 66 316 96 435 181 68 48
186 169 209 214 57 110 6 242 -107 276 -28 8 -51 15 -51 14 -1 -1 -20 -5 -44
-11z"/>
<path d="M2071 1015 c-83 -26 -131 -94 -131 -182 0 -59 27 -118 71 -159 101
-95 273 -198 404 -242 167 -57 408 -77 572 -48 114 20 269 68 313 98 103 71
97 249 -11 328 -65 47 -117 49 -208 10 -135 -58 -204 -72 -316 -67 -156 7
-296 61 -435 167 -145 111 -176 122 -259 95z"/>
</g>
</svg>
