<?xml version="1.0" standalone="no"?>
<!DOCTYPE svg PUBLIC "-//W3C//DTD SVG 20010904//EN"
 "http://www.w3.org/TR/2001/REC-SVG-20010904/DTD/svg10.dtd">
<svg version="1.0" xmlns="http://www.w3.org/2000/svg"
 width="600.000000pt" height="600.000000pt" viewBox="0 0 600.000000 600.000000"
 preserveAspectRatio="xMidYMid meet">
<metadata>
Created by potrace 1.15, written by Peter Selinger 2001-2017
</metadata>
<g transform="translate(0.000000,600.000000) scale(0.100000,-0.100000)"
fill="#16364b" stroke="none">
<path d="M1548 5762 c-29 -12 -347 -304 -368 -337 -44 -71 -15 -155 60 -175
61 -16 101 -4 420 129 159 67 190 90 190 147 0 73 -76 105 -164 69 -39 -16
-44 -11 -21 19 25 33 19 89 -12 118 -30 28 -77 41 -105 30z"/>
<path d="M2351 5432 l-28 -27 -6 -190 c-7 -231 -29 -344 -87 -461 -45 -92 -84
-132 -189 -194 -83 -48 -108 -85 -97 -143 10 -52 59 -91 106 -84 70 9 223 119
294 210 88 114 158 310 177 500 12 121 5 326 -13 361 -31 61 -110 75 -157 28z"/>
<path d="M3508 5297 c-14 -14 -30 -44 -38 -66 -11 -35 -11 -46 4 -85 44 -114
149 -214 249 -236 44 -10 59 -10 90 3 42 18 77 68 77 113 0 71 -110 223 -192
265 -21 11 -68 23 -103 26 -59 5 -65 4 -87 -20z"/>
<path d="M2975 5106 c-119 -55 -195 -230 -147 -338 46 -105 177 -118 312 -33
53 34 82 95 88 190 6 89 -12 133 -69 174 -53 39 -112 41 -184 7z"/>
<path d="M4765 4756 c-17 -7 -36 -21 -44 -30 -22 -26 -30 -110 -20 -215 21
-229 96 -383 214 -437 87 -41 176 -27 237 37 86 90 89 251 6 381 -37 59 -132
148 -228 214 -85 58 -122 69 -165 50z"/>
<path d="M2730 4230 c-186 -33 -279 -187 -204 -338 49 -99 140 -147 274 -145
120 2 239 55 334 149 54 53 76 93 76 134 -1 47 -32 115 -64 135 -66 43 -318
83 -416 65z"/>
<path d="M1090 4107 c-42 -21 -72 -76 -67 -121 8 -58 46 -91 127 -110 84 -19
143 -43 136 -55 -11 -17 -97 -31 -198 -31 -85 0 -109 -4 -135 -20 -83 -50 -83
-172 0 -217 26 -14 58 -18 177 -18 123 1 157 4 220 24 148 45 209 116 210 242
0 147 -100 252 -287 300 -88 22 -147 24 -183 6z"/>
<path d="M4182 3749 c-80 -26 -158 -88 -197 -159 -27 -49 -30 -64 -30 -140 0
-65 5 -96 21 -131 114 -247 426 -237 562 19 60 113 85 299 48 355 -10 15 -28
33 -39 39 -79 42 -260 50 -365 17z m108 -289 c-9 -18 -40 -40 -54 -40 -3 0 -6
9 -6 20 0 21 24 39 53 40 15 0 16 -3 7 -20z"/>
<path d="M5235 3703 c-145 -30 -249 -104 -298 -211 -34 -72 -30 -199 6 -270
55 -105 144 -175 240 -188 93 -13 241 51 302 132 95 124 107 284 30 403 -32
50 -114 128 -148 140 -35 13 -45 13 -132 -6z m25 -315 c0 -14 -30 -48 -42 -48
-15 0 -8 39 10 49 23 14 32 13 32 -1z"/>
<path d="M1633 3681 c-40 -25 -47 -50 -40 -154 12 -191 97 -317 215 -317 36 0
49 6 83 38 55 52 70 122 44 205 -25 79 -83 157 -150 202 -70 46 -109 53 -152
26z"/>
<path d="M3450 3394 c-65 -23 -94 -59 -171 -214 -60 -122 -64 -166 -20 -211
36 -36 66 -37 136 -4 63 30 142 112 175 182 25 52 36 126 26 167 -12 47 -101
96 -146 80z"/>
<path d="M2150 3049 c-36 -4 -96 -15 -135 -25 -111 -26 -434 -142 -502 -180
-190 -105 -353 -292 -408 -466 -44 -140 -31 -346 30 -469 44 -86 104 -148 242
-250 168 -125 249 -205 336 -336 124 -185 257 -284 429 -319 76 -16 99 -17
190 -7 121 14 265 50 363 91 146 62 223 92 320 128 206 75 401 189 633 369
216 168 311 300 347 477 28 144 17 231 -50 363 -79 158 -215 284 -416 384
-139 70 -478 178 -729 232 -71 16 -127 18 -335 18 -137 -1 -279 -5 -315 -10z
m565 -398 c78 -15 420 -97 510 -123 220 -64 399 -224 381 -341 -34 -218 -431
-538 -791 -638 -44 -12 -120 -39 -170 -59 -164 -68 -253 -93 -340 -93 -126 -2
-176 31 -311 203 -86 110 -201 220 -338 323 -136 102 -149 115 -176 172 -60
124 23 303 179 389 114 62 413 154 571 176 83 11 406 5 485 -9z"/>
<path d="M407 2209 c-21 -13 -47 -61 -47 -90 0 -34 68 -216 114 -304 50 -97
166 -220 240 -254 92 -42 184 -27 240 39 33 39 40 67 34 135 -10 114 -112 260
-246 349 -172 113 -283 155 -335 125z"/>
<path d="M4656 1714 c-32 -22 -42 -24 -63 -15 -53 24 -115 8 -163 -43 -45 -49
-36 -210 21 -379 42 -126 114 -186 206 -173 124 17 192 145 223 419 9 79 8 93
-9 132 -37 85 -137 112 -215 59z"/>
</g>
</svg>
