<?xml version="1.0" standalone="no"?>
<!DOCTYPE svg PUBLIC "-//W3C//DTD SVG 20010904//EN"
 "http://www.w3.org/TR/2001/REC-SVG-20010904/DTD/svg10.dtd">
<svg version="1.0" xmlns="http://www.w3.org/2000/svg"
 width="600.000000pt" height="600.000000pt" viewBox="0 0 600.000000 600.000000"
 preserveAspectRatio="xMidYMid meet">
<metadata>
Created by potrace 1.15, written by Peter Selinger 2001-2017
</metadata>
<g transform="translate(0.000000,600.000000) scale(0.100000,-0.100000)"
fill="#16364b" stroke="none">
<path d="M1565 5763 c-24 -6 -53 -31 -67 -56 -15 -29 -109 -305 -129 -382 -22
-83 -24 -173 -5 -219 14 -34 61 -69 108 -81 42 -11 129 13 198 53 77 45 247
209 325 315 50 67 59 86 63 131 4 48 1 57 -24 85 -21 23 -41 34 -70 38 -57 7
-93 -14 -150 -89 -67 -89 -156 -190 -161 -184 -3 2 14 58 36 123 45 130 48
159 27 202 -25 48 -96 78 -151 64z"/>
<path d="M786 5516 c-154 -65 -273 -278 -251 -451 12 -101 81 -202 166 -246
115 -58 224 38 178 158 -6 15 -31 46 -57 69 -41 36 -47 46 -46 80 0 55 30 111
77 145 48 34 83 36 139 8 59 -30 113 -21 155 25 24 26 33 45 33 71 0 59 -24
92 -93 127 -53 27 -75 32 -152 35 -78 3 -98 0 -149 -21z"/>
<path d="M3422 5375 c-62 -52 -67 -134 -10 -185 25 -23 28 -31 19 -48 -42 -78
50 -220 182 -283 145 -68 277 -16 277 111 0 58 -28 117 -95 206 -60 80 -108
122 -208 183 -80 49 -121 53 -165 16z"/>
<path d="M2328 5294 c-48 -26 -53 -46 -54 -229 -1 -295 -45 -382 -236 -474
-90 -43 -112 -67 -112 -126 0 -45 19 -77 56 -100 45 -26 94 -22 178 15 224 97
325 243 349 502 11 115 5 306 -10 355 -21 66 -104 94 -171 57z"/>
<path d="M2954 5141 c-142 -65 -218 -232 -164 -359 39 -90 111 -130 218 -119
67 7 175 57 198 92 22 34 32 210 15 272 -13 49 -51 97 -92 118 -39 21 -126 18
-175 -4z"/>
<path d="M4749 4788 c-20 -11 -47 -39 -59 -61 -21 -37 -22 -48 -17 -161 13
-293 140 -494 323 -513 47 -5 63 -2 120 27 148 73 204 245 131 403 -44 97
-189 233 -319 298 -70 35 -128 38 -179 7z m261 -435 c0 -23 -17 -6 -29 29
l-11 33 20 -24 c11 -13 20 -30 20 -38z"/>
<path d="M2732 4194 c-69 -18 -104 -37 -154 -82 -158 -142 -65 -362 174 -413
110 -24 243 16 383 116 126 89 158 151 121 239 -20 48 -68 79 -171 109 -168
50 -255 58 -353 31z"/>
<path d="M1042 4080 c-92 -56 -98 -206 -10 -264 13 -8 57 -20 98 -26 41 -6 97
-18 123 -27 41 -13 46 -17 35 -30 -39 -48 -236 -155 -391 -214 -62 -23 -97
-43 -117 -66 -78 -89 -31 -231 83 -248 36 -6 64 1 172 40 72 26 176 71 233
101 57 30 105 54 106 54 2 0 6 -12 9 -27 16 -76 89 -132 171 -133 26 0 48 -8
68 -25 76 -64 178 -93 267 -74 68 14 134 75 151 141 36 132 -59 294 -196 334
-56 16 -143 15 -216 -2 l-28 -6 20 45 c30 68 35 126 15 186 -20 61 -83 130
-152 164 -90 46 -288 97 -378 97 -16 0 -45 -9 -63 -20z"/>
<path d="M4183 3755 c-114 -35 -201 -119 -233 -223 -24 -77 -25 -102 -4 -171
34 -117 148 -194 284 -193 203 1 340 138 372 371 18 132 -17 186 -142 215 -79
19 -220 19 -277 1z m92 -285 c-18 -20 -55 -28 -55 -11 0 12 21 28 45 33 28 6
31 1 10 -22z"/>
<path d="M5120 3507 c-190 -78 -312 -244 -296 -401 7 -73 42 -150 87 -195 137
-135 389 -79 494 110 28 51 30 61 30 164 0 94 -3 117 -23 155 -27 56 -110 158
-143 176 -35 20 -87 16 -149 -9z"/>
<path d="M3440 3392 c-36 -17 -69 -45 -99 -87 -51 -71 -121 -220 -121 -257 0
-73 75 -137 144 -124 112 23 169 62 213 149 35 71 56 178 43 225 -12 44 -17
51 -54 80 -29 22 -92 29 -126 14z"/>
<path d="M2438 3226 c-157 -64 -236 -161 -363 -443 -35 -77 -74 -117 -183
-189 -318 -208 -492 -456 -551 -788 -14 -77 -14 -245 0 -322 46 -255 167 -428
391 -556 303 -174 578 -193 873 -59 193 88 384 280 492 496 64 126 104 274
135 490 17 123 17 494 0 565 -35 142 -86 266 -148 355 -15 22 -43 69 -62 105
-92 175 -211 306 -315 348 -80 31 -191 30 -269 -2z m222 -494 c12 -24 45 -79
74 -121 29 -42 60 -94 69 -116 71 -168 74 -500 7 -773 -52 -215 -123 -336
-251 -434 -216 -166 -439 -180 -642 -42 -107 74 -158 149 -176 266 -24 149 36
395 133 541 50 75 107 124 233 200 193 115 289 226 377 438 26 63 55 125 63
138 l15 23 39 -38 c21 -20 48 -58 59 -82z"/>
<path d="M611 2472 c-60 -30 -84 -105 -56 -173 4 -12 -1 -18 -25 -22 -37 -8
-77 -46 -86 -83 -24 -96 122 -381 266 -518 174 -167 396 -150 489 36 27 52 31
72 31 139 0 237 -176 462 -472 604 -83 40 -100 42 -147 17z m132 -298 c157
-102 263 -256 231 -338 -3 -9 -15 -16 -26 -16 -73 0 -194 145 -258 311 -16 43
-30 81 -30 84 0 10 13 4 83 -41z"/>
<path d="M4235 2146 c-34 -15 -85 -70 -85 -92 0 -18 -9 -18 -56 2 -97 41 -195
-20 -229 -143 -11 -41 57 -367 91 -434 7 -14 29 -39 49 -55 20 -16 58 -52 86
-81 94 -96 216 -109 303 -33 74 66 94 172 97 526 2 241 -2 259 -77 301 -45 26
-130 30 -179 9z"/>
</g>
</svg>
