<?xml version="1.0" standalone="no"?>
<!DOCTYPE svg PUBLIC "-//W3C//DTD SVG 20010904//EN"
 "http://www.w3.org/TR/2001/REC-SVG-20010904/DTD/svg10.dtd">
<svg version="1.0" xmlns="http://www.w3.org/2000/svg"
 width="600.000000pt" height="600.000000pt" viewBox="0 0 600.000000 600.000000"
 preserveAspectRatio="xMidYMid meet">
<metadata>
Created by potrace 1.15, written by Peter Selinger 2001-2017
</metadata>
<g transform="translate(0.000000,600.000000) scale(0.100000,-0.100000)"
fill="#16364b" stroke="none">
<path d="M2929 5588 c-23 -16 -46 -47 -71 -97 -125 -253 -110 -433 44 -512 43
-22 76 -27 222 -34 60 -3 111 -6 112 -8 2 -2 -27 -25 -64 -52 -87 -64 -504
-482 -521 -523 -23 -55 -7 -100 58 -163 l56 -55 185 -52 c156 -43 469 -125
627 -165 36 -9 47 -7 90 14 83 41 114 120 79 202 -32 77 -65 88 -471 168 -115
23 -214 46 -220 51 -21 19 173 182 420 353 175 121 215 170 215 262 0 71 -33
130 -100 176 -87 60 -159 78 -347 84 -90 3 -163 8 -163 11 0 2 18 42 40 89 46
98 51 150 20 201 -44 71 -143 95 -211 50z"/>
<path d="M1548 5316 c-234 -84 -565 -474 -633 -748 -28 -109 -3 -195 67 -238
44 -26 97 -25 212 5 193 50 376 71 376 43 0 -7 -28 -71 -61 -143 -93 -198
-122 -282 -116 -336 3 -37 0 -48 -15 -58 -56 -35 -75 -137 -38 -198 42 -70
129 -81 257 -34 184 68 413 174 471 218 86 65 86 201 -1 253 -53 33 -105 26
-208 -26 -50 -25 -93 -43 -96 -41 -2 3 17 49 43 103 76 163 86 193 91 284 6
99 -6 152 -44 202 -63 81 -144 108 -317 108 -67 -1 -140 -5 -164 -9 -23 -5
-44 -5 -47 -2 -7 13 95 139 169 209 41 38 106 85 145 106 38 20 81 50 94 66
61 71 34 184 -53 228 -50 25 -79 27 -132 8z"/>
<path d="M4465 4541 c-128 -35 -359 -121 -382 -143 -67 -63 -46 -186 42 -247
43 -29 91 -27 182 10 71 29 212 79 220 79 12 0 -73 -163 -244 -465 -42 -74
-73 -141 -73 -157 0 -45 30 -107 64 -130 17 -13 45 -37 61 -54 25 -26 42 -33
105 -44 152 -24 336 -61 383 -76 42 -14 47 -19 41 -37 -3 -12 -46 -94 -94
-182 -144 -261 -184 -348 -176 -389 15 -79 98 -131 174 -108 49 15 90 59 139
152 22 41 80 140 128 220 107 175 132 230 146 308 14 78 -6 150 -56 210 -69
80 -171 122 -396 161 -68 13 -134 24 -146 27 l-23 4 32 58 c17 31 68 118 112
192 43 74 97 173 119 220 36 76 41 93 41 166 1 73 -2 85 -29 129 -19 31 -49
61 -79 80 -44 26 -59 30 -135 32 -60 2 -107 -3 -156 -16z"/>
<path d="M3751 3673 c-62 -22 -125 -88 -139 -144 -31 -128 60 -247 181 -236
28 2 61 13 78 26 26 19 30 20 35 6 11 -27 -4 -102 -30 -152 -23 -46 -27 -49
-92 -66 -116 -30 -211 -83 -291 -162 -61 -61 -72 -77 -78 -115 -15 -99 57
-180 160 -180 57 0 75 9 147 76 65 59 133 86 262 104 91 12 131 32 163 80 24
34 30 95 14 135 -5 12 0 40 12 75 29 78 34 220 12 296 -31 108 -102 192 -205
244 -59 30 -167 36 -229 13z"/>
<path d="M2498 3590 c-90 -14 -238 -68 -329 -118 -96 -54 -123 -90 -123 -161
1 -89 57 -150 146 -159 42 -4 61 1 146 41 110 51 198 77 266 77 46 0 46 0 46
-34 0 -68 -73 -253 -194 -494 -42 -84 -45 -122 -12 -184 21 -39 22 -47 10 -69
-51 -93 -11 -229 80 -270 61 -28 99 -24 241 27 146 51 306 96 314 88 8 -8 -37
-129 -81 -217 -44 -89 -56 -149 -38 -201 47 -144 222 -170 330 -50 45 50 143
248 168 341 11 39 23 100 27 136 18 168 -73 318 -218 362 -100 30 -291 16
-454 -34 -35 -11 -63 -17 -63 -14 0 2 29 70 64 151 108 247 144 395 126 519
-10 75 -51 154 -100 194 -75 63 -217 90 -352 69z"/>
<path d="M1142 3315 c-62 -17 -89 -30 -200 -97 -111 -67 -136 -101 -140 -192
-3 -65 -1 -75 27 -119 22 -33 45 -54 74 -67 46 -22 127 -26 159 -9 11 6 22 8
25 5 3 -3 -13 -85 -35 -183 -22 -98 -45 -209 -51 -248 -30 -190 -39 -441 -20
-525 21 -93 92 -146 199 -150 99 -4 109 -2 149 38 35 34 265 382 405 612 31
52 73 117 93 144 l36 49 18 -38 c16 -32 19 -62 19 -169 0 -142 -11 -234 -59
-509 -46 -264 -42 -399 15 -466 62 -74 162 -74 228 -1 40 45 39 38 41 175 2
67 19 199 54 400 76 441 77 516 10 732 -41 132 -59 172 -93 211 -89 101 -215
86 -355 -44 -55 -50 -215 -251 -300 -377 -18 -27 -34 -47 -36 -45 -2 2 12 66
30 143 74 307 83 468 31 581 -32 69 -56 97 -113 131 -54 31 -138 39 -211 18z"/>
<path d="M4690 2358 c-65 -39 -108 -103 -118 -174 l-7 -49 -180 0 c-199 0
-237 -7 -354 -62 -186 -88 -252 -228 -255 -540 0 -84 -3 -153 -6 -153 -3 0
-34 25 -70 56 -178 152 -337 183 -506 99 -148 -73 -310 -270 -445 -543 l-57
-114 -21 56 c-21 58 -40 154 -66 344 -21 153 -57 284 -89 331 -58 83 -185 104
-271 43 -75 -53 -103 -144 -75 -242 6 -19 22 -102 36 -185 72 -428 177 -649
356 -746 58 -32 69 -34 153 -34 81 0 95 3 145 30 63 35 149 139 176 214 37
101 95 231 129 290 40 68 146 187 175 196 27 9 64 -13 191 -114 62 -50 145
-107 186 -127 65 -34 82 -38 151 -38 69 0 84 3 140 34 68 36 118 89 152 160
12 25 33 65 47 90 27 48 26 44 7 296 -9 111 1 171 29 181 12 4 113 7 225 5
126 -2 224 1 258 8 214 45 317 195 301 440 -7 109 -21 159 -59 205 -69 83
-182 100 -278 43z"/>
</g>
</svg>
