<?xml version="1.0" standalone="no"?>
<!DOCTYPE svg PUBLIC "-//W3C//DTD SVG 20010904//EN"
 "http://www.w3.org/TR/2001/REC-SVG-20010904/DTD/svg10.dtd">
<svg version="1.0" xmlns="http://www.w3.org/2000/svg"
 width="600.000000pt" height="600.000000pt" viewBox="0 0 600.000000 600.000000"
 preserveAspectRatio="xMidYMid meet">
<metadata>
Created by potrace 1.15, written by Peter Selinger 2001-2017
</metadata>
<g transform="translate(0.000000,600.000000) scale(0.100000,-0.100000)"
fill="#16364b" stroke="none">
<path d="M3009 5047 c-103 -69 -152 -234 -88 -298 22 -22 82 -25 117 -6 41 23
110 97 131 141 23 46 27 106 11 137 -27 49 -116 63 -171 26z m102 -37 c24 -13
25 -59 3 -106 -20 -42 -109 -124 -135 -124 -26 0 -35 43 -20 99 14 55 37 89
81 119 37 25 44 26 71 12z"/>
<path d="M1815 4644 c-49 -12 -82 -29 -113 -58 -89 -82 -102 -194 -39 -332 66
-145 107 -422 132 -884 4 -63 15 -200 25 -305 30 -301 33 -398 21 -595 -18
-280 2 -473 71 -690 56 -176 117 -279 222 -377 100 -94 252 -169 379 -188 l44
-7 0 -146 c-1 -179 29 -347 93 -531 11 -30 20 -61 20 -67 0 -8 -31 -13 -99
-16 -81 -2 -105 -7 -127 -24 -55 -41 -52 -103 9 -148 34 -25 138 -34 212 -17
96 22 165 96 165 179 0 24 -18 101 -40 173 -57 187 -82 316 -82 439 -1 58 2
116 6 129 7 21 12 23 55 17 25 -3 245 -9 489 -12 l443 -7 -5 -22 c-34 -134 -4
-397 70 -609 31 -92 29 -96 -60 -96 -118 0 -176 -37 -176 -110 0 -68 73 -109
168 -95 157 23 262 108 262 211 0 20 -18 93 -40 162 -66 211 -95 436 -68 536
l13 50 95 17 c215 39 468 108 555 152 279 140 404 445 314 767 -49 178 -139
282 -339 395 -160 90 -197 106 -384 160 -177 52 -161 46 -447 175 -251 114
-330 157 -528 288 -261 172 -322 249 -619 782 -170 306 -339 556 -414 614 -80
61 -220 105 -283 90z m144 -177 c21 -14 57 -54 79 -89 23 -35 59 -85 81 -113
59 -75 167 -250 302 -487 304 -534 323 -555 694 -787 212 -132 704 -370 860
-416 141 -42 308 -96 330 -108 74 -38 226 -139 261 -173 69 -68 134 -232 134
-339 0 -169 -105 -359 -243 -439 -96 -57 -441 -142 -672 -167 -100 -11 -560
-8 -1115 6 -292 7 -444 99 -559 338 -111 228 -147 443 -122 717 27 287 26 382
-13 710 -9 69 -20 193 -26 275 -38 548 -67 723 -155 934 -32 76 -28 119 13
152 35 27 97 22 151 -14z"/>
<path d="M2536 2649 c-15 -12 -26 -30 -26 -44 0 -28 43 -65 76 -65 57 0 87 83
42 114 -31 22 -60 20 -92 -5z"/>
<path d="M3003 2439 c-21 -8 -43 -37 -43 -58 0 -21 53 -71 75 -71 41 0 71 69
47 107 -12 19 -55 31 -79 22z"/>
<path d="M5280 3970 c-116 -25 -218 -109 -254 -211 -51 -140 1 -306 122 -394
61 -44 115 -58 199 -53 177 10 314 151 330 338 10 123 -40 214 -157 285 -49
30 -71 37 -127 40 -38 2 -88 0 -113 -5z m109 -315 c3 -4 -7 -18 -23 -31 -33
-29 -56 -19 -56 24 0 23 3 24 36 19 20 -3 39 -9 43 -12z"/>
<path d="M4235 3751 c-62 -11 -144 -61 -186 -113 -52 -67 -73 -133 -67 -222
11 -162 118 -266 275 -266 212 0 342 204 274 427 -11 39 -30 82 -42 97 -45 58
-162 93 -254 77z m55 -296 c0 -29 -37 -55 -46 -31 -7 19 13 56 31 56 9 0 15
-10 15 -25z"/>
<path d="M5329 1100 c-19 -11 -54 -89 -64 -142 -15 -80 34 -148 108 -148 32 0
46 6 72 35 54 57 73 189 34 239 -18 23 -28 26 -77 26 -31 0 -64 -5 -73 -10z"/>
</g>
</svg>
