<?xml version="1.0" standalone="no"?>
<!DOCTYPE svg PUBLIC "-//W3C//DTD SVG 20010904//EN"
 "http://www.w3.org/TR/2001/REC-SVG-20010904/DTD/svg10.dtd">
<svg version="1.0" xmlns="http://www.w3.org/2000/svg"
 width="600.000000pt" height="600.000000pt" viewBox="0 0 600.000000 600.000000"
 preserveAspectRatio="xMidYMid meet">
<metadata>
Created by potrace 1.15, written by Peter Selinger 2001-2017
</metadata>
<g transform="translate(0.000000,600.000000) scale(0.100000,-0.100000)"
fill="#16364b" stroke="none">
<path d="M1507 5770 c-62 -33 -226 -101 -349 -144 -118 -42 -155 -93 -120
-166 28 -57 72 -72 215 -72 140 -1 389 28 430 49 49 25 63 101 26 147 -16 20
-29 26 -62 26 -41 1 -42 1 -21 18 70 58 54 157 -26 167 -26 4 -50 -3 -93 -25z"/>
<path d="M2361 5412 c-27 -26 -28 -31 -34 -172 -7 -167 -20 -271 -47 -377 -39
-152 -100 -233 -233 -310 -85 -50 -100 -68 -100 -127 0 -31 6 -45 27 -63 15
-13 38 -23 52 -23 46 0 192 86 275 162 139 126 209 374 209 735 0 150 -1 155
-25 178 -34 35 -88 34 -124 -3z"/>
<path d="M3538 5318 c-29 -10 -68 -77 -68 -116 0 -12 10 -47 22 -79 29 -80
142 -194 209 -212 79 -22 138 6 158 75 24 85 -98 276 -203 319 -48 19 -88 24
-118 13z"/>
<path d="M2985 5101 c-95 -43 -158 -144 -163 -261 -3 -66 -1 -79 20 -110 29
-43 61 -60 114 -60 49 0 149 47 192 91 35 35 72 140 72 202 0 123 -117 192
-235 138z m46 -215 c-6 -14 -18 -26 -26 -26 -17 0 -13 12 13 43 20 23 25 16
13 -17z"/>
<path d="M4728 4737 c-35 -32 -41 -71 -33 -196 20 -314 118 -491 271 -491 118
0 196 113 180 263 -8 76 -58 185 -122 267 -46 59 -141 147 -181 168 -36 20
-87 14 -115 -11z"/>
<path d="M2635 4216 c-42 -18 -82 -68 -95 -118 -42 -153 139 -320 318 -293
107 16 250 98 292 168 49 80 6 172 -95 198 -16 4 -72 20 -124 34 -106 28 -244
34 -296 11z"/>
<path d="M1087 4104 c-35 -35 -44 -86 -23 -130 14 -31 14 -34 0 -34 -9 0 -31
-15 -50 -34 -60 -60 -42 -129 48 -188 143 -94 298 -104 402 -25 94 72 89 216
-11 295 -89 70 -243 142 -306 142 -24 0 -42 -8 -60 -26z"/>
<path d="M5265 3844 c-104 -16 -207 -72 -261 -142 -111 -145 -69 -363 90 -469
64 -43 117 -57 199 -50 86 7 161 41 228 104 71 66 101 129 107 224 7 121 -38
203 -159 285 -58 40 -77 48 -121 50 -29 1 -66 0 -83 -2z m50 -315 c8 -13 -23
-49 -42 -49 -17 0 -27 25 -19 45 6 17 52 20 61 4z"/>
<path d="M4235 3766 c-69 -22 -120 -53 -169 -102 -126 -129 -141 -307 -34
-429 62 -71 106 -90 208 -90 70 0 93 4 129 23 130 69 221 249 221 435 0 91
-24 125 -110 154 -74 25 -181 29 -245 9z m71 -305 c-14 -27 -43 -47 -53 -37
-10 10 9 44 30 54 35 17 39 14 23 -17z"/>
<path d="M3395 3345 c-42 -43 -144 -247 -152 -304 -5 -35 -2 -44 26 -72 28
-27 37 -31 71 -26 101 13 226 163 246 295 12 81 -37 142 -115 142 -33 0 -47
-6 -76 -35z"/>
<path d="M1645 3133 c-213 -25 -357 -59 -456 -109 -122 -61 -217 -167 -259
-290 -71 -203 4 -508 153 -626 64 -52 85 -63 177 -93 127 -41 197 -81 261
-145 48 -48 71 -84 135 -215 167 -343 309 -494 529 -562 82 -25 391 -25 510 1
47 10 168 21 290 26 335 15 477 32 641 76 280 74 479 189 668 384 274 284 401
600 338 841 -24 89 -71 165 -167 267 -121 129 -225 189 -370 212 -110 18 -177
1 -350 -84 -82 -41 -172 -82 -200 -90 -92 -28 -186 -44 -215 -36 -15 4 -66 3
-112 -2 -176 -22 -343 28 -615 184 -260 149 -439 225 -603 254 -68 12 -279 16
-355 7z m250 -398 c183 -29 359 -97 584 -223 157 -87 255 -135 326 -160 66
-22 201 -52 237 -52 13 0 51 -10 84 -22 l61 -22 119 23 c214 41 409 89 474
115 36 15 102 49 146 76 93 57 126 62 183 26 58 -37 150 -143 157 -183 9 -49
-21 -154 -74 -258 -38 -74 -63 -106 -141 -184 -121 -117 -196 -172 -296 -212
-243 -97 -515 -148 -806 -150 -125 -1 -198 -6 -259 -19 -305 -65 -436 -48
-541 69 -37 41 -75 106 -141 241 -107 220 -155 295 -240 376 -83 79 -164 126
-307 175 -72 25 -126 50 -144 66 -50 48 -55 124 -12 189 32 49 159 99 330 129
96 17 155 17 260 0z"/>
<path d="M436 2109 c-41 -49 -38 -62 67 -279 46 -94 146 -193 216 -214 112
-33 193 23 193 135 -1 92 -91 213 -228 306 -137 93 -202 107 -248 52z"/>
<path d="M4988 1444 c-16 -8 -28 -19 -28 -24 0 -6 -16 -10 -35 -10 -49 0 -91
-24 -111 -62 -13 -24 -15 -49 -11 -107 7 -107 31 -178 77 -223 32 -33 44 -38
82 -38 93 0 136 70 173 284 19 105 14 137 -27 171 -34 29 -78 32 -120 9z"/>
</g>
</svg>
