<?xml version="1.0" standalone="no"?>
<!DOCTYPE svg PUBLIC "-//W3C//DTD SVG 20010904//EN"
 "http://www.w3.org/TR/2001/REC-SVG-20010904/DTD/svg10.dtd">
<svg version="1.0" xmlns="http://www.w3.org/2000/svg"
 width="600.000000pt" height="600.000000pt" viewBox="0 0 600.000000 600.000000"
 preserveAspectRatio="xMidYMid meet">
<metadata>
Created by potrace 1.15, written by Peter Selinger 2001-2017
</metadata>
<g transform="translate(0.000000,600.000000) scale(0.100000,-0.100000)"
fill="#16364b" stroke="none">
<path d="M1428 5698 c-155 -139 -248 -230 -264 -260 -25 -49 -18 -96 21 -135
35 -35 36 -36 103 -30 120 9 486 145 535 197 53 58 27 147 -49 166 -18 5 -45
1 -73 -9 -25 -9 -47 -14 -49 -12 -2 2 3 14 12 27 26 36 20 85 -13 119 -24 23
-38 29 -75 29 -42 0 -50 -5 -148 -92z"/>
<path d="M2358 5429 c-36 -20 -42 -51 -44 -234 -5 -367 -85 -570 -260 -656
-98 -49 -123 -93 -90 -158 36 -68 105 -78 200 -29 87 46 173 136 223 233 89
174 122 324 130 590 7 231 -6 265 -104 265 -21 0 -46 -5 -55 -11z"/>
<path d="M3516 5319 c-27 -21 -56 -78 -56 -109 0 -36 74 -163 125 -216 83 -84
161 -112 225 -79 109 57 91 195 -45 331 -42 42 -65 56 -120 73 -84 26 -96 26
-129 0z"/>
<path d="M2965 5122 c-118 -56 -194 -220 -156 -335 25 -74 120 -125 205 -112
62 10 166 65 186 98 24 39 44 138 37 187 -18 135 -155 217 -272 162z"/>
<path d="M4762 4775 c-65 -29 -83 -112 -61 -285 34 -280 140 -431 303 -432
159 -2 245 160 187 350 -37 124 -141 256 -270 344 -51 36 -112 45 -159 23z"/>
<path d="M2725 4220 c-94 -19 -153 -58 -187 -123 -69 -133 25 -302 188 -338
111 -25 230 21 353 137 l74 70 4 60 c5 66 -15 110 -58 130 -67 31 -259 76
-314 73 -11 -1 -38 -5 -60 -9z"/>
<path d="M1093 4100 c-101 -61 -73 -214 45 -241 60 -13 152 -49 152 -59 0 -17
-106 -30 -213 -28 l-108 3 -35 -37 c-27 -30 -34 -46 -34 -78 0 -53 23 -96 60
-115 80 -41 276 -39 391 5 214 80 279 293 132 431 -54 51 -96 74 -200 108
-106 36 -146 38 -190 11z"/>
<path d="M4240 3769 c-121 -21 -229 -97 -271 -192 -33 -74 -33 -174 1 -240 81
-161 304 -205 466 -94 94 65 142 169 151 328 8 127 -15 160 -127 187 -71 17
-160 22 -220 11z m40 -268 c0 -17 -53 -52 -63 -42 -12 12 -1 30 27 41 28 12
36 12 36 1z"/>
<path d="M1640 3702 c-46 -23 -61 -65 -54 -157 12 -155 72 -288 148 -324 51
-25 77 -26 122 -5 40 19 74 83 74 140 -1 130 -91 294 -191 344 -47 24 -55 25
-99 2z"/>
<path d="M5162 3684 c-140 -37 -225 -121 -252 -246 -28 -128 35 -279 144 -343
200 -117 487 41 512 281 10 95 -14 154 -92 230 -35 34 -79 69 -98 78 -42 20
-141 20 -214 0z m103 -294 c6 -10 -29 -50 -45 -50 -17 0 -11 38 8 49 22 13 29
13 37 1z"/>
<path d="M3420 3364 c-50 -46 -170 -277 -170 -329 0 -43 42 -95 77 -95 45 0
143 61 186 115 60 75 101 169 102 233 0 48 -3 57 -33 83 -25 23 -42 29 -77 29
-38 0 -52 -6 -85 -36z"/>
<path d="M2187 3045 c-156 -19 -252 -40 -432 -94 -244 -74 -329 -113 -432
-200 -92 -76 -186 -236 -218 -372 -18 -80 -19 -227 -1 -296 38 -141 87 -214
288 -421 86 -89 209 -223 273 -298 131 -152 199 -207 330 -270 133 -62 215
-77 393 -71 166 5 256 26 404 95 46 22 137 61 203 87 181 72 375 167 462 226
96 66 346 314 432 429 189 252 194 435 18 665 -94 122 -239 224 -449 314 -132
57 -217 83 -371 116 -62 13 -161 35 -222 50 -226 54 -449 67 -678 40z m210
-365 c162 -13 300 -39 511 -95 92 -25 178 -45 191 -45 38 0 197 -57 307 -110
147 -71 234 -156 234 -227 0 -37 -39 -117 -83 -172 -116 -145 -533 -411 -738
-471 -41 -12 -114 -39 -164 -60 -187 -80 -354 -108 -456 -76 -76 24 -124 64
-227 191 -89 109 -304 327 -394 399 -166 133 -111 384 109 498 112 58 344 146
413 157 141 23 145 23 297 11z"/>
<path d="M409 2201 c-39 -39 -38 -77 5 -184 125 -309 247 -453 407 -482 82
-15 174 39 205 120 49 130 -43 273 -277 431 -220 149 -284 170 -340 115z"/>
<path d="M4720 1699 c-13 -6 -31 -16 -40 -24 -13 -12 -22 -12 -61 1 -87 29
-156 -9 -180 -100 -17 -65 12 -255 55 -358 69 -163 240 -169 323 -12 36 69 71
211 80 324 5 73 4 82 -18 115 -23 34 -81 66 -117 64 -9 0 -28 -5 -42 -10z"/>
</g>
</svg>
