<?xml version="1.0" standalone="no"?>
<!DOCTYPE svg PUBLIC "-//W3C//DTD SVG 20010904//EN"
 "http://www.w3.org/TR/2001/REC-SVG-20010904/DTD/svg10.dtd">
<svg version="1.0" xmlns="http://www.w3.org/2000/svg"
 width="600.000000pt" height="600.000000pt" viewBox="0 0 600.000000 600.000000"
 preserveAspectRatio="xMidYMid meet">
<metadata>
Created by potrace 1.15, written by Peter Selinger 2001-2017
</metadata>
<g transform="translate(0.000000,600.000000) scale(0.100000,-0.100000)"
fill="#16364b" stroke="none">
<path d="M2512 5500 c-62 -38 -155 -269 -155 -385 0 -107 56 -181 160 -211 67
-19 125 -15 305 21 66 14 123 23 125 21 2 -2 -20 -30 -51 -63 -130 -139 -255
-316 -441 -621 -46 -75 -50 -130 -17 -205 32 -72 71 -87 229 -87 70 0 210 5
309 11 135 9 215 9 311 1 152 -13 192 -6 240 44 41 44 50 87 28 142 -36 88
-78 98 -477 110 l-247 7 62 101 c87 141 149 222 269 349 133 140 164 184 179
250 24 107 -38 212 -146 248 -77 27 -215 22 -380 -12 -77 -16 -142 -27 -144
-25 -3 3 9 34 27 70 38 76 40 124 9 178 -41 71 -129 96 -195 56z"/>
<path d="M1695 5106 c-79 -20 -158 -62 -268 -144 -113 -83 -309 -274 -350
-339 -54 -86 -25 -188 66 -232 36 -18 62 -21 158 -21 184 -1 318 -28 334 -68
3 -9 13 -55 21 -102 21 -120 59 -169 144 -184 45 -9 97 17 128 64 22 32 23 41
17 120 -23 299 -102 409 -325 451 -36 6 -67 14 -69 16 -13 10 170 128 229 148
116 38 155 163 79 249 -16 19 -42 37 -57 40 -15 4 -34 9 -42 11 -8 1 -37 -2
-65 -9z"/>
<path d="M4244 4770 c-100 -15 -214 -62 -341 -142 -119 -75 -152 -140 -117
-226 24 -58 71 -92 128 -92 33 0 58 11 125 55 87 56 195 105 232 105 20 0 21
-4 14 -47 -10 -69 -58 -205 -128 -367 -54 -124 -61 -149 -61 -206 -1 -59 3
-71 37 -123 60 -91 79 -100 217 -92 63 3 193 8 288 12 l172 6 0 -33 c0 -47
-45 -211 -103 -375 -59 -166 -67 -225 -37 -273 27 -44 97 -75 146 -66 65 12
98 52 143 177 57 157 117 351 131 424 7 34 11 103 8 152 -4 77 -8 96 -34 138
-16 27 -51 62 -78 80 -80 55 -130 65 -338 70 -104 3 -188 6 -188 8 0 1 14 35
31 76 66 160 106 378 89 481 -18 116 -69 192 -153 232 -61 29 -113 36 -183 26z"/>
<path d="M1988 3975 c-141 -65 -258 -102 -382 -119 -115 -16 -141 -28 -180
-80 -16 -21 -21 -42 -21 -90 0 -53 4 -68 28 -99 40 -53 87 -70 167 -62 218 23
557 157 623 246 51 71 20 185 -63 227 -24 12 -51 22 -60 22 -8 0 -59 -21 -112
-45z"/>
<path d="M3757 3694 c-123 -30 -395 -191 -444 -264 -27 -39 -31 -116 -9 -158
32 -61 105 -99 168 -87 18 4 69 33 113 65 82 60 166 114 199 126 17 7 18 4 12
-32 -14 -73 -67 -217 -122 -330 -52 -107 -57 -114 -108 -142 -58 -34 -86 -76
-86 -135 0 -71 75 -137 157 -137 61 0 267 71 418 145 200 97 274 175 275 290
0 93 -62 155 -156 155 -38 0 -61 -6 -89 -26 -27 -18 -36 -21 -31 -9 28 74 40
151 41 260 0 112 -2 123 -27 172 -58 109 -159 144 -311 107z"/>
<path d="M2480 3453 c-115 -18 -362 -102 -419 -142 -88 -63 -78 -197 19 -248
58 -31 82 -29 228 16 200 63 292 73 292 34 0 -24 -57 -188 -85 -243 -14 -27
-25 -65 -25 -85 0 -136 150 -212 251 -128 54 46 129 222 156 366 34 186 -25
321 -173 395 -62 31 -171 47 -244 35z"/>
<path d="M1175 3136 c-122 -39 -196 -104 -214 -186 -25 -116 66 -230 182 -230
35 0 37 -1 37 -34 0 -19 -10 -108 -22 -198 -30 -227 -32 -586 -4 -668 38 -108
99 -155 201 -154 100 1 181 58 206 146 6 20 22 41 42 53 24 15 50 54 102 155
80 153 176 299 251 379 l51 55 7 -93 c15 -181 -12 -458 -60 -627 -31 -110 -24
-154 31 -203 61 -53 143 -51 200 7 33 33 39 47 76 187 42 160 59 280 65 455
13 346 -29 504 -154 577 -40 24 -58 28 -117 28 -135 -1 -238 -74 -404 -283
-58 -73 -106 -131 -107 -129 -1 1 4 54 12 117 35 301 3 483 -103 586 -70 68
-179 91 -278 60z"/>
<path d="M4860 2811 c-112 -23 -183 -112 -186 -235 -1 -47 -6 -71 -15 -76 -8
-5 -63 -22 -124 -39 -279 -81 -423 -203 -470 -402 -42 -179 2 -367 124 -529
42 -55 48 -70 32 -70 -5 0 -31 -16 -57 -36 l-47 -36 -112 41 c-61 22 -140 47
-176 56 -215 50 -434 -30 -631 -231 -63 -65 -170 -201 -197 -251 -6 -13 -28
-31 -49 -42 -20 -10 -46 -29 -57 -41 -38 -42 -103 -80 -136 -80 -74 0 -193
173 -285 412 -40 105 -76 150 -141 174 -53 20 -111 13 -170 -21 -49 -29 -93
-108 -93 -166 0 -132 234 -554 372 -674 190 -163 478 -151 690 28 35 30 72 57
83 61 35 12 60 39 130 146 74 114 198 244 261 276 62 31 159 25 269 -15 135
-50 201 -64 277 -58 166 11 337 154 338 282 0 40 1 41 47 53 62 17 127 81 143
142 25 92 -15 206 -90 262 -41 29 -77 91 -86 144 -9 59 12 74 183 130 164 54
242 96 318 170 103 102 152 228 142 366 -4 42 -13 92 -20 111 -43 102 -163
168 -267 148z"/>
<path d="M3225 2466 c-97 -16 -308 -71 -468 -121 -168 -52 -217 -101 -217
-218 0 -68 28 -113 90 -144 59 -30 87 -29 248 11 170 43 390 86 438 86 35 0
36 -1 30 -27 -19 -78 -18 -139 3 -181 57 -111 197 -141 294 -61 41 34 68 88
92 187 48 199 -25 377 -183 450 -68 31 -203 38 -327 18z"/>
</g>
</svg>
