<?xml version="1.0" standalone="no"?>
<!DOCTYPE svg PUBLIC "-//W3C//DTD SVG 20010904//EN"
 "http://www.w3.org/TR/2001/REC-SVG-20010904/DTD/svg10.dtd">
<svg version="1.0" xmlns="http://www.w3.org/2000/svg"
 width="600.000000pt" height="600.000000pt" viewBox="0 0 600.000000 600.000000"
 preserveAspectRatio="xMidYMid meet">
<metadata>
Created by potrace 1.15, written by Peter Selinger 2001-2017
</metadata>
<g transform="translate(0.000000,600.000000) scale(0.100000,-0.100000)"
fill="#16364b" stroke="none">
<path d="M3130 5642 c-22 -11 -44 -35 -58 -63 -21 -40 -23 -54 -20 -164 3
-115 5 -123 37 -183 60 -110 156 -179 339 -242 50 -18 92 -36 92 -41 0 -10
-50 -39 -233 -132 -271 -139 -437 -270 -437 -345 0 -11 -11 -27 -25 -36 -62
-41 -83 -149 -42 -220 46 -82 105 -98 274 -76 54 8 163 14 243 14 155 1 175 6
208 53 32 45 36 86 14 136 -29 66 -68 88 -175 101 -73 9 -87 14 -75 24 8 6 77
46 154 88 309 169 423 272 440 397 9 64 -16 125 -71 176 -55 50 -120 83 -243
123 -192 61 -212 80 -212 207 0 100 -17 143 -69 178 -41 28 -94 30 -141 5z"/>
<path d="M1313 5385 c-72 -37 -234 -207 -322 -340 -118 -179 -157 -308 -149
-497 7 -181 54 -253 165 -253 56 0 90 18 127 69 19 25 21 39 18 147 -3 89 1
134 13 176 43 146 180 346 284 412 57 37 81 80 81 146 0 56 -19 96 -62 129
-52 38 -94 41 -155 11z"/>
<path d="M1455 4966 c-154 -38 -196 -75 -203 -175 -5 -73 23 -117 91 -145 46
-19 50 -19 130 -3 45 9 87 17 93 17 8 0 -4 -46 -28 -117 -67 -193 -57 -308 36
-411 l36 -40 -77 -42 c-117 -64 -159 -96 -177 -134 -51 -108 21 -231 137 -231
45 0 65 8 147 56 116 68 231 120 330 150 86 25 132 64 148 121 30 108 -63 209
-177 193 l-48 -6 -7 42 c-5 32 -17 53 -47 81 -46 43 -46 33 8 173 45 116 65
223 52 289 -18 95 -84 172 -170 196 -56 16 -178 10 -274 -14z"/>
<path d="M4498 4510 c-63 -8 -104 -34 -130 -83 -34 -63 -12 -145 48 -186 33
-23 43 -25 150 -22 63 1 114 0 114 -3 0 -8 -85 -86 -185 -169 -101 -84 -120
-111 -120 -173 0 -81 71 -139 159 -130 54 6 91 31 265 180 304 262 356 499
127 578 -41 14 -82 17 -211 16 -88 0 -185 -4 -217 -8z"/>
<path d="M3889 3697 c-88 -47 -113 -149 -63 -257 31 -68 163 -200 254 -255 56
-34 73 -40 125 -40 105 0 161 64 153 174 -5 67 -27 103 -80 128 -36 17 -37 20
-38 70 0 99 -33 138 -150 177 -98 32 -144 33 -201 3z"/>
<path d="M2475 3686 c-125 -34 -264 -102 -299 -149 -74 -96 -16 -234 107 -254
26 -4 54 4 118 32 98 45 168 65 227 65 40 0 42 -1 42 -31 0 -115 -182 -494
-339 -705 -13 -18 -26 -47 -30 -65 -9 -40 4 -107 25 -130 9 -10 14 -38 14 -78
0 -113 64 -191 163 -199 45 -3 67 2 157 41 119 50 300 111 308 102 3 -3 -14
-47 -37 -98 -137 -292 -156 -341 -156 -397 1 -195 252 -286 359 -131 41 58
131 267 189 436 49 143 51 155 52 255 0 93 -3 112 -26 161 -49 104 -150 178
-256 187 -64 5 -145 -10 -266 -49 -50 -16 -92 -27 -95 -25 -2 3 12 32 32 65
147 241 243 616 198 771 -22 76 -72 134 -149 172 -63 31 -75 33 -178 35 -67 1
-129 -3 -160 -11z"/>
<path d="M1088 3466 c-84 -35 -262 -151 -302 -198 -38 -44 -53 -102 -42 -162
9 -48 57 -109 102 -131 50 -24 138 -25 182 -2 17 10 32 14 32 10 0 -3 -18 -59
-39 -122 -113 -331 -187 -720 -160 -840 21 -95 87 -144 210 -157 85 -8 119 8
179 84 24 31 94 117 155 191 60 73 175 219 255 324 80 105 150 191 155 191 19
2 16 -115 -5 -222 -12 -59 -40 -172 -62 -252 -108 -395 -123 -479 -107 -631
14 -146 75 -224 174 -224 117 0 188 117 145 238 -12 30 -12 54 -2 135 14 105
67 354 131 603 54 215 65 318 51 477 -14 166 -38 238 -95 291 -86 80 -182 77
-294 -7 -37 -29 -178 -196 -321 -380 -52 -68 -96 -119 -97 -115 -2 5 10 54 26
109 109 373 114 398 114 515 0 70 -4 95 -26 142 -64 141 -209 195 -359 133z"/>
<path d="M4562 3280 c-45 -28 -72 -76 -72 -131 0 -59 30 -105 90 -136 129 -68
220 -140 220 -172 0 -17 -57 -105 -114 -175 -56 -71 -44 -156 30 -213 31 -23
47 -28 97 -28 l60 0 62 67 c97 105 165 252 165 359 0 143 -88 245 -340 394
-105 61 -143 68 -198 35z"/>
<path d="M3654 3210 c-72 -23 -168 -83 -223 -140 -84 -87 -113 -208 -69 -285
67 -115 216 -106 278 16 17 33 24 38 44 33 12 -3 61 0 107 6 181 24 268 107
237 229 -33 130 -204 194 -374 141z"/>
<path d="M4534 2261 c-86 -39 -154 -162 -139 -251 4 -22 3 -40 -2 -40 -4 0
-64 9 -133 20 -285 45 -421 15 -543 -121 -122 -134 -170 -311 -166 -612 l1
-140 -30 -12 c-16 -7 -33 -18 -36 -24 -13 -20 -40 -11 -86 25 -25 20 -76 60
-115 89 -38 29 -103 82 -144 118 -84 74 -158 114 -241 129 -138 26 -260 -63
-307 -222 -22 -75 -27 -58 -57 186 -32 254 -41 294 -76 342 -78 108 -266 111
-334 4 -34 -52 -39 -96 -22 -203 8 -52 17 -125 21 -164 17 -178 69 -387 131
-522 75 -166 313 -333 475 -333 60 0 95 17 137 64 41 47 57 107 45 167 -9 48
3 217 17 232 7 8 111 -66 265 -191 182 -148 318 -167 465 -65 74 52 118 112
126 173 6 45 9 50 38 56 73 15 145 72 180 142 13 25 54 338 56 426 0 12 90 0
185 -25 104 -27 312 -24 387 7 144 59 220 167 249 356 24 151 -6 287 -75 345
-75 63 -189 82 -272 44z"/>
</g>
</svg>
