<?xml version="1.0" standalone="no"?>
<!DOCTYPE svg PUBLIC "-//W3C//DTD SVG 20010904//EN"
 "http://www.w3.org/TR/2001/REC-SVG-20010904/DTD/svg10.dtd">
<svg version="1.0" xmlns="http://www.w3.org/2000/svg"
 width="600.000000pt" height="600.000000pt" viewBox="0 0 600.000000 600.000000"
 preserveAspectRatio="xMidYMid meet">
<metadata>
Created by potrace 1.15, written by Peter Selinger 2001-2017
</metadata>
<g transform="translate(0.000000,600.000000) scale(0.100000,-0.100000)"
fill="#16364b" stroke="none">
<path d="M2148 5420 c-43 -23 -70 -58 -97 -126 -46 -118 -36 -202 33 -270 57
-58 117 -74 273 -74 68 0 123 -2 123 -5 0 -3 -20 -49 -44 -102 -55 -123 -98
-246 -121 -344 -18 -75 -18 -78 2 -115 32 -62 63 -79 144 -79 63 0 71 2 100
31 25 25 36 53 60 143 16 61 55 169 85 239 80 181 93 220 93 282 1 99 -60 191
-150 230 -46 19 -65 21 -174 18 l-122 -3 0 50 c1 91 -48 146 -130 145 -21 -1
-55 -10 -75 -20z"/>
<path d="M3615 5420 c-72 -10 -112 -34 -135 -80 -38 -75 -17 -163 49 -207 28
-19 47 -23 117 -23 103 0 114 -9 114 -89 0 -67 -19 -145 -61 -250 -32 -81 -33
-121 -2 -168 36 -55 141 -73 205 -36 70 41 137 239 145 429 6 140 -6 195 -64
281 -72 107 -221 165 -368 143z"/>
<path d="M1705 4854 c-11 -2 -45 -9 -75 -15 -118 -22 -313 -94 -367 -135 -44
-33 -68 -99 -54 -150 18 -66 81 -114 149 -114 l40 0 -14 -37 c-18 -51 -17 -71
5 -119 31 -67 57 -79 282 -124 112 -23 257 -54 321 -71 65 -16 133 -29 151
-29 41 0 93 33 124 79 43 63 23 164 -39 205 -28 18 -161 50 -418 101 -102 20
-201 40 -220 44 l-35 8 40 11 c89 26 201 36 275 25 116 -18 186 16 209 103 22
83 -24 159 -117 194 -55 21 -209 35 -257 24z"/>
<path d="M4247 4410 c-41 -23 -77 -83 -77 -130 0 -42 37 -108 70 -129 22 -13
60 -21 124 -26 102 -7 153 -18 180 -38 29 -21 34 -94 20 -259 -13 -142 -13
-152 5 -192 37 -84 129 -118 209 -77 55 28 72 65 88 186 51 387 -48 598 -308
660 -35 8 -110 17 -168 20 -94 5 -109 3 -143 -15z"/>
<path d="M3140 4362 c-165 -81 -351 -167 -489 -228 -164 -71 -186 -94 -186
-190 0 -48 5 -69 21 -90 34 -46 69 -66 110 -66 81 2 750 340 790 400 14 19 19
45 19 90 0 61 -2 65 -37 98 -55 50 -104 47 -228 -14z"/>
<path d="M2205 3851 c-59 -24 -226 -43 -417 -48 -178 -5 -211 -8 -238 -24 -99
-61 -93 -220 10 -271 72 -37 552 -18 732 27 103 26 144 77 136 172 -5 60 -26
96 -78 131 -34 23 -104 29 -145 13z"/>
<path d="M3674 3785 c-67 -18 -189 -77 -344 -165 -69 -38 -159 -84 -200 -101
-114 -47 -157 -97 -147 -171 11 -79 75 -138 151 -138 38 0 161 53 353 152 62
32 117 58 123 58 5 0 10 -10 10 -22 0 -61 82 -127 157 -128 81 0 131 44 174
154 43 110 51 214 20 274 -33 65 -89 96 -175 99 -39 2 -94 -4 -122 -12z"/>
<path d="M4926 3370 c-53 -27 -64 -37 -97 -95 -32 -56 -36 -99 -17 -201 20
-111 1 -148 -173 -330 -195 -204 -310 -468 -297 -683 5 -84 21 -124 72 -174
53 -53 101 -72 182 -72 61 0 77 4 120 30 27 17 62 50 78 74 25 38 31 58 37
135 5 67 15 112 38 171 33 82 56 116 174 251 197 226 270 416 246 636 -12 109
-24 143 -67 190 -76 84 -204 113 -296 68z"/>
<path d="M2009 3197 c-106 -53 -120 -174 -29 -250 43 -37 89 -47 215 -48 61 0
133 -4 160 -7 l50 -7 5 -50 c12 -118 132 -182 219 -117 54 40 66 68 70 164 5
151 -33 234 -131 282 -61 29 -155 42 -374 50 -132 5 -144 4 -185 -17z"/>
<path d="M4305 3145 c-16 -9 -52 -37 -80 -63 -123 -116 -393 -234 -659 -287
-64 -12 -130 -32 -149 -44 -43 -26 -67 -75 -67 -135 0 -36 6 -52 31 -81 47
-54 87 -61 219 -41 326 50 641 188 831 363 87 81 107 140 75 217 -29 69 -135
107 -201 71z"/>
<path d="M1282 2989 c-96 -49 -125 -161 -69 -267 24 -47 32 -85 63 -329 19
-152 41 -309 49 -348 29 -137 93 -295 152 -373 112 -148 346 -67 347 120 0 35
-11 70 -42 135 -52 110 -78 225 -97 440 -26 283 -60 423 -126 523 -54 80 -103
113 -177 117 -44 3 -67 -1 -100 -18z"/>
<path d="M2166 2460 c-112 -20 -320 -159 -345 -231 -45 -130 71 -256 194 -209
14 5 47 30 73 54 26 24 67 54 91 67 43 22 45 22 55 5 58 -99 144 -132 216 -83
80 54 100 131 56 221 -64 130 -200 200 -340 176z"/>
<path d="M3757 2169 c-84 -9 -126 -19 -450 -103 -77 -20 -219 -47 -321 -60
-103 -13 -196 -31 -214 -40 -84 -43 -116 -157 -70 -245 13 -25 40 -58 60 -75
69 -54 166 -47 578 44 124 28 298 62 388 77 l162 27 45 -22 c86 -42 175 -21
223 51 23 34 27 52 27 108 0 59 -4 73 -30 111 -76 109 -200 148 -398 127z"/>
<path d="M2310 1991 c-80 -42 -125 -166 -124 -341 0 -104 4 -123 33 -202 37
-99 97 -199 135 -223 95 -62 227 13 230 129 1 31 -11 68 -42 132 -56 119 -65
196 -32 285 15 43 21 76 17 105 -12 106 -123 165 -217 115z"/>
<path d="M4605 1617 c-16 -8 -52 -40 -79 -71 -75 -88 -106 -99 -414 -141 -270
-37 -455 -109 -689 -267 -116 -78 -144 -117 -145 -203 l-1 -53 -44 15 c-62 21
-108 12 -182 -36 -81 -52 -145 -71 -235 -71 -166 0 -305 69 -471 231 -49 48
-103 93 -118 98 -89 34 -207 -14 -253 -101 -20 -39 -18 -122 5 -166 25 -47
166 -189 256 -258 91 -68 237 -138 351 -166 72 -17 119 -22 244 -22 170 0 236
12 345 63 139 66 184 124 185 239 l0 63 32 -17 c22 -11 48 -15 89 -12 48 3 69
12 135 55 188 123 382 194 664 243 277 48 383 84 491 167 184 140 199 311 34
395 -50 26 -158 34 -200 15z"/>
</g>
</svg>
