<?xml version="1.0" standalone="no"?>
<!DOCTYPE svg PUBLIC "-//W3C//DTD SVG 20010904//EN"
 "http://www.w3.org/TR/2001/REC-SVG-20010904/DTD/svg10.dtd">
<svg version="1.0" xmlns="http://www.w3.org/2000/svg"
 width="600.000000pt" height="600.000000pt" viewBox="0 0 600.000000 600.000000"
 preserveAspectRatio="xMidYMid meet">
<metadata>
Created by potrace 1.15, written by Peter Selinger 2001-2017
</metadata>
<g transform="translate(0.000000,600.000000) scale(0.100000,-0.100000)"
fill="#16364b" stroke="none">
<path d="M1509 5767 c-32 -27 -198 -210 -262 -289 -75 -94 -81 -166 -17 -223
51 -46 180 -11 466 125 134 64 146 72 160 107 13 30 14 44 5 74 -23 75 -93 99
-171 59 -42 -22 -49 -18 -25 14 29 38 15 103 -29 138 -31 25 -95 23 -127 -5z"/>
<path d="M2383 5435 c-45 -19 -53 -42 -53 -148 0 -211 -35 -416 -91 -530 -39
-82 -97 -142 -187 -195 -81 -48 -102 -73 -102 -120 0 -67 52 -122 115 -122 30
0 118 46 186 97 124 94 228 312 263 555 23 150 23 375 2 416 -26 50 -81 69
-133 47z"/>
<path d="M3518 5310 c-59 -46 -61 -121 -7 -226 36 -71 128 -166 183 -189 52
-22 128 -19 159 6 62 48 57 132 -16 241 -62 93 -115 142 -181 167 -71 26 -106
27 -138 1z"/>
<path d="M3006 5145 c-122 -43 -215 -190 -204 -322 5 -57 25 -92 72 -127 43
-33 127 -27 203 13 80 43 107 73 133 150 68 205 -33 347 -204 286z"/>
<path d="M4765 4751 c-59 -26 -70 -56 -69 -175 3 -232 106 -472 228 -530 108
-51 242 27 280 163 36 130 4 246 -102 363 -48 54 -191 164 -236 183 -45 19
-52 19 -101 -4z"/>
<path d="M2680 4216 c-135 -36 -229 -159 -201 -262 17 -61 46 -101 103 -138
155 -103 338 -82 525 58 34 26 71 62 82 80 30 48 28 110 -4 152 -30 40 -49 51
-118 70 -195 54 -298 65 -387 40z"/>
<path d="M1105 4113 c-29 -7 -66 -43 -82 -82 -31 -72 20 -150 111 -172 63 -14
146 -49 146 -60 0 -18 -88 -30 -200 -27 -108 3 -121 1 -147 -18 -36 -27 -57
-83 -49 -128 8 -44 54 -91 97 -100 59 -12 273 -6 337 9 159 38 254 131 255
253 0 103 -59 180 -192 247 -60 30 -230 87 -250 84 -3 -1 -15 -3 -26 -6z"/>
<path d="M4153 3760 c-137 -49 -226 -173 -226 -315 0 -120 69 -229 176 -276
78 -35 193 -33 265 4 29 15 70 43 91 62 85 77 140 241 132 399 -1 18 -14 41
-38 66 -72 71 -282 103 -400 60z m113 -305 c-17 -27 -56 -34 -56 -11 0 17 18
32 45 38 28 6 30 2 11 -27z"/>
<path d="M5206 3694 c-131 -32 -240 -105 -288 -196 -19 -36 -23 -59 -23 -133
0 -76 4 -98 26 -146 36 -76 90 -133 157 -166 48 -23 69 -28 132 -26 146 2 259
73 322 201 30 60 33 75 33 157 0 78 -4 97 -27 140 -31 58 -130 159 -171 174
-37 14 -89 13 -161 -5z m48 -316 c-13 -23 -37 -48 -46 -48 -12 0 -10 34 4 48
16 16 51 16 42 0z"/>
<path d="M1619 3662 c-31 -27 -34 -35 -37 -99 -7 -127 40 -251 120 -316 53
-42 128 -49 177 -15 55 37 74 71 79 137 11 151 -112 307 -252 319 -48 4 -56 1
-87 -26z"/>
<path d="M3428 3396 c-46 -24 -76 -65 -134 -184 -72 -147 -73 -201 -4 -237 42
-22 84 -19 140 10 86 44 150 157 158 282 5 72 4 73 -31 108 -39 39 -81 46
-129 21z"/>
<path d="M2245 3073 c-145 -18 -276 -55 -480 -136 -253 -100 -371 -174 -470
-296 -155 -192 -224 -438 -180 -646 33 -159 98 -246 341 -457 62 -54 150 -139
195 -190 170 -188 242 -246 362 -295 213 -87 410 -83 650 13 163 65 555 277
737 397 244 163 455 405 511 589 27 88 26 228 -2 311 -93 282 -444 551 -839
644 -206 48 -671 86 -825 66z m495 -399 c120 -16 315 -69 420 -113 151 -63
339 -211 389 -306 51 -97 -2 -199 -166 -317 -214 -154 -776 -464 -928 -512
-130 -40 -241 -39 -327 5 -24 12 -81 62 -128 113 -113 121 -266 273 -371 371
-98 90 -125 130 -138 201 -25 129 66 291 200 360 46 23 367 139 469 170 148
44 384 56 580 28z"/>
<path d="M423 2229 c-38 -11 -63 -43 -63 -81 0 -34 70 -227 116 -320 116 -237
310 -362 446 -286 117 66 111 236 -15 403 -66 87 -157 156 -308 234 -126 64
-126 64 -176 50z m332 -439 c10 -11 16 -20 13 -20 -3 0 -13 9 -23 20 -10 11
-16 20 -13 20 3 0 13 -9 23 -20z"/>
<path d="M4655 1745 c-16 -9 -38 -24 -48 -32 -14 -13 -22 -14 -43 -5 -13 7
-43 12 -66 12 -34 0 -47 -6 -79 -39 -35 -34 -39 -44 -39 -87 0 -62 33 -236 62
-328 38 -120 111 -172 207 -146 101 27 167 139 195 331 9 59 16 127 16 151 0
106 -119 189 -205 143z"/>
</g>
</svg>
