<?xml version="1.0" standalone="no"?>
<!DOCTYPE svg PUBLIC "-//W3C//DTD SVG 20010904//EN"
 "http://www.w3.org/TR/2001/REC-SVG-20010904/DTD/svg10.dtd">
<svg version="1.0" xmlns="http://www.w3.org/2000/svg"
 width="600.000000pt" height="600.000000pt" viewBox="0 0 600.000000 600.000000"
 preserveAspectRatio="xMidYMid meet">
<metadata>
Created by potrace 1.15, written by Peter Selinger 2001-2017
</metadata>
<g transform="translate(0.000000,600.000000) scale(0.100000,-0.100000)"
fill="#16364b" stroke="none">
<path d="M1555 5756 c-39 -17 -48 -28 -80 -106 -68 -165 -105 -316 -105 -427
0 -167 113 -246 257 -179 126 59 413 394 413 483 0 77 -59 130 -134 120 -45
-6 -49 -10 -180 -171 -43 -53 -80 -95 -82 -93 -4 4 18 77 50 161 44 115 28
179 -50 212 -40 17 -50 17 -89 0z"/>
<path d="M878 5540 c-200 -34 -347 -234 -323 -441 19 -160 162 -321 259 -289
55 18 81 54 81 110 0 44 -4 53 -42 92 -49 49 -61 90 -43 143 17 50 73 111 116
125 32 11 41 9 86 -14 71 -37 102 -34 149 13 35 35 39 44 39 90 0 63 -18 93
-75 127 -37 21 -160 56 -190 53 -5 -1 -31 -5 -57 -9z"/>
<path d="M3428 5364 c-33 -17 -48 -43 -48 -80 0 -33 35 -91 60 -99 15 -5 18
-13 13 -39 -7 -44 33 -119 102 -190 66 -69 125 -100 192 -100 64 0 98 22 131
85 44 84 8 192 -99 299 -43 44 -76 65 -151 98 -102 45 -154 52 -200 26z"/>
<path d="M2355 5321 c-11 -5 -29 -19 -40 -31 -18 -20 -20 -37 -21 -174 -1
-290 -70 -426 -265 -527 -68 -36 -87 -51 -102 -81 -16 -32 -17 -44 -7 -72 23
-72 99 -112 163 -88 191 72 363 291 434 553 23 85 23 297 0 351 -26 62 -101
94 -162 69z"/>
<path d="M2975 5167 c-88 -41 -175 -204 -175 -330 0 -176 193 -229 374 -104
36 25 62 85 71 162 17 153 -64 274 -188 282 -30 2 -65 -2 -82 -10z"/>
<path d="M4769 4780 c-88 -26 -103 -58 -97 -209 16 -371 244 -615 466 -502 53
27 107 92 122 147 17 58 8 158 -18 218 -48 107 -173 226 -319 303 -88 46 -117
54 -154 43z m237 -442 c8 -16 13 -32 10 -35 -5 -6 -46 56 -46 70 0 15 20 -4
36 -35z"/>
<path d="M2727 4200 c-137 -24 -226 -122 -227 -249 0 -68 27 -127 82 -176 66
-60 120 -80 218 -80 75 0 93 4 151 31 82 39 207 122 253 169 41 41 54 90 37
145 -15 51 -45 73 -139 104 -154 51 -289 71 -375 56z"/>
<path d="M1063 4081 c-80 -37 -109 -137 -60 -208 27 -41 64 -59 147 -72 85
-14 170 -39 170 -51 0 -16 -80 -70 -155 -105 -38 -18 -133 -56 -210 -84 -177
-64 -205 -89 -205 -181 0 -53 4 -63 32 -96 38 -43 82 -64 136 -64 79 0 406
129 500 196 21 16 22 16 22 -10 0 -63 56 -136 104 -136 12 0 41 -18 64 -39 57
-53 134 -81 223 -81 107 0 185 47 226 138 22 46 25 64 21 123 -6 85 -36 134
-111 184 -90 60 -207 79 -303 50 -27 -8 -50 -15 -51 -15 -1 0 3 17 9 37 15 56
6 152 -21 203 -66 129 -208 202 -436 224 -48 5 -69 2 -102 -13z"/>
<path d="M4167 3760 c-154 -49 -243 -166 -241 -320 0 -90 23 -149 80 -205 64
-62 114 -80 224 -80 87 0 101 3 162 33 111 54 181 156 212 305 27 130 20 184
-30 230 -60 55 -286 76 -407 37z m123 -277 c0 -14 -34 -43 -52 -43 -25 0 -23
16 4 34 23 16 48 21 48 9z"/>
<path d="M5166 3509 c-69 -17 -165 -70 -218 -122 -164 -163 -136 -434 57 -532
136 -70 306 -13 396 132 60 97 68 246 19 348 -24 49 -139 175 -160 175 -8 0
-24 2 -35 4 -11 3 -38 0 -59 -5z"/>
<path d="M3434 3400 c-16 -5 -46 -25 -65 -45 -35 -34 -113 -181 -139 -259 -26
-81 28 -158 114 -160 158 -3 259 113 260 299 1 61 -3 87 -17 108 -34 52 -94
74 -153 57z"/>
<path d="M2459 3276 c-93 -25 -193 -108 -262 -218 -37 -59 -53 -96 -96 -217
-53 -146 -89 -191 -206 -256 -192 -105 -338 -255 -420 -430 -38 -81 -101 -252
-130 -354 -61 -210 -33 -404 81 -567 115 -163 397 -361 584 -409 136 -35 359
-17 525 42 313 113 509 320 590 626 38 142 104 477 111 559 8 89 -7 213 -48
413 -33 164 -62 255 -113 355 -18 36 -47 94 -64 130 -118 251 -342 383 -552
326z m136 -416 c26 -27 55 -78 149 -265 73 -143 108 -390 87 -598 -15 -141
-45 -298 -77 -397 -72 -229 -311 -411 -544 -413 -136 -2 -247 49 -363 167 -81
82 -110 149 -115 263 -6 122 16 218 78 341 65 130 136 201 272 273 114 61 215
148 282 243 58 81 70 106 120 250 42 117 64 166 77 166 3 0 18 -13 34 -30z"/>
<path d="M580 2469 c-58 -24 -88 -86 -71 -146 8 -28 6 -34 -15 -48 -33 -22
-64 -74 -64 -108 0 -33 89 -232 150 -338 128 -218 330 -320 485 -245 153 75
199 267 107 451 -58 118 -430 422 -537 440 -17 2 -41 0 -55 -6z m169 -333
c119 -88 211 -217 211 -298 0 -34 -3 -38 -25 -38 -36 0 -115 77 -153 148 -27
50 -92 204 -92 217 0 11 14 3 59 -29z"/>
<path d="M4267 2110 c-32 -18 -69 -60 -80 -93 -1 -4 -20 2 -42 13 -105 54
-209 1 -239 -122 -6 -28 46 -375 66 -438 6 -19 30 -54 52 -77 23 -23 54 -59
71 -79 77 -95 220 -97 299 -3 34 40 51 78 66 146 17 73 48 503 39 542 -23 104
-141 160 -232 111z"/>
</g>
</svg>
