<?xml version="1.0" standalone="no"?>
<!DOCTYPE svg PUBLIC "-//W3C//DTD SVG 20010904//EN"
 "http://www.w3.org/TR/2001/REC-SVG-20010904/DTD/svg10.dtd">
<svg version="1.0" xmlns="http://www.w3.org/2000/svg"
 width="600.000000pt" height="600.000000pt" viewBox="0 0 600.000000 600.000000"
 preserveAspectRatio="xMidYMid meet">
<metadata>
Created by potrace 1.15, written by Peter Selinger 2001-2017
</metadata>
<g transform="translate(0.000000,600.000000) scale(0.100000,-0.100000)"
fill="#16364b" stroke="none">
<path d="M2934 5549 c-44 -13 -91 -69 -99 -118 -7 -42 3 -70 65 -177 50 -86
64 -160 56 -307 -5 -103 -3 -133 9 -157 43 -83 153 -108 219 -50 53 47 61 83
60 260 -1 124 -6 171 -23 235 -35 131 -107 263 -163 299 -31 20 -87 27 -124
15z"/>
<path d="M1974 5406 c-38 -17 -73 -65 -80 -108 -8 -47 29 -137 77 -191 22 -25
73 -67 113 -93 92 -58 114 -94 165 -279 41 -146 56 -176 104 -205 94 -58 216
21 217 138 0 56 -71 305 -109 380 -39 77 -102 143 -181 190 -51 31 -71 49 -91
88 -14 26 -38 57 -52 68 -33 25 -121 31 -163 12z"/>
<path d="M1448 4760 c-62 -11 -106 -43 -129 -94 -32 -70 -21 -123 35 -175 29
-27 16 -26 276 -21 152 3 221 -10 327 -60 89 -43 150 -42 201 4 36 33 37 37
37 103 0 90 -21 120 -118 168 -122 59 -208 76 -407 80 -96 2 -196 0 -222 -5z"/>
<path d="M4340 4708 c-38 -25 -80 -97 -80 -137 0 -14 31 -86 69 -161 38 -74
97 -200 130 -280 66 -157 93 -192 158 -209 78 -21 154 27 169 107 18 91 -206
614 -289 676 -14 10 -47 21 -74 23 -39 4 -55 0 -83 -19z"/>
<path d="M3185 4499 c-11 -7 -82 -73 -158 -146 -76 -74 -214 -194 -307 -268
-175 -140 -190 -158 -190 -232 0 -40 19 -79 54 -112 33 -31 111 -40 154 -18
59 29 350 273 475 399 131 132 166 183 167 246 0 41 -21 91 -49 116 -26 23
-116 32 -146 15z"/>
<path d="M1670 4328 c-58 -40 -75 -72 -75 -143 0 -71 19 -106 71 -137 46 -27
300 -61 459 -62 161 -1 241 14 286 52 78 65 76 177 -5 235 -29 21 -42 22 -201
22 -146 1 -188 5 -295 28 -154 33 -197 34 -240 5z"/>
<path d="M3805 4054 c-16 -9 -59 -44 -95 -78 -187 -179 -394 -309 -663 -415
-101 -40 -124 -56 -148 -102 -37 -74 -15 -157 53 -199 48 -29 83 -25 209 26
267 107 371 169 583 347 67 56 126 106 132 112 6 5 27 25 48 42 84 74 106 145
66 211 -40 65 -120 89 -185 56z"/>
<path d="M2275 3765 c-140 -32 -402 -45 -535 -26 -95 14 -169 -24 -191 -99
-25 -84 28 -175 118 -201 76 -22 519 -19 643 4 129 25 159 41 189 101 22 44
23 53 12 94 -15 59 -43 96 -85 116 -50 23 -83 26 -151 11z"/>
<path d="M5029 3697 c-68 -25 -110 -59 -139 -111 -34 -59 -38 -107 -15 -201
19 -79 19 -212 -1 -289 -43 -165 -171 -362 -386 -591 -68 -73 -88 -115 -88
-187 0 -125 108 -225 245 -227 85 -1 120 15 200 91 97 92 166 177 271 334 258
389 330 710 228 1018 -20 58 -73 120 -128 148 -50 26 -139 33 -187 15z"/>
<path d="M1996 3130 c-63 -19 -106 -83 -106 -157 0 -133 132 -191 485 -212
153 -10 173 -9 204 7 110 54 112 211 4 275 -23 13 -76 21 -204 32 -138 11
-188 19 -242 39 -71 27 -94 30 -141 16z"/>
<path d="M4390 3107 c-14 -8 -50 -37 -80 -66 -105 -99 -297 -210 -455 -263
-103 -34 -251 -64 -383 -77 -108 -11 -143 -24 -178 -63 -56 -61 -51 -148 11
-208 l36 -35 122 1 c214 1 458 64 682 173 157 77 292 168 387 261 64 64 77 82
83 118 9 54 -22 123 -69 152 -39 23 -118 27 -156 7z"/>
<path d="M1392 2923 c-46 -22 -89 -75 -103 -125 -15 -57 -5 -391 16 -518 42
-249 222 -622 327 -676 132 -69 266 -6 293 137 8 45 -8 106 -40 150 -73 102
-119 202 -154 336 -37 142 -44 196 -47 393 l-3 194 -28 41 c-53 76 -178 109
-261 68z"/>
<path d="M2103 2340 c-75 -34 -104 -118 -67 -196 22 -46 53 -66 154 -99 119
-39 180 -64 218 -93 65 -48 160 -42 222 14 61 56 74 128 33 191 -39 59 -195
136 -364 178 -117 30 -141 30 -196 5z"/>
<path d="M4205 2105 c-27 -8 -144 -46 -260 -85 -405 -138 -548 -171 -831 -190
-208 -14 -243 -22 -288 -67 -89 -90 -70 -238 41 -313 33 -23 46 -25 132 -24
250 3 623 85 1014 224 92 33 213 71 270 85 104 26 137 42 170 86 22 31 32 94
23 145 -10 53 -87 127 -148 142 -56 14 -60 14 -123 -3z"/>
<path d="M4860 1711 c-19 -11 -61 -49 -93 -85 -151 -171 -294 -238 -769 -361
-281 -73 -396 -110 -440 -140 -101 -69 -105 -227 -7 -292 58 -38 101 -39 235
-5 66 17 171 40 234 52 385 70 641 165 840 313 84 63 226 210 253 264 35 68
29 153 -14 207 -50 63 -165 86 -239 47z"/>
<path d="M2046 1480 c-67 -43 -93 -131 -62 -205 19 -45 143 -169 225 -224 183
-124 432 -185 531 -130 50 28 80 83 80 145 0 89 -50 135 -164 155 -155 26
-263 81 -389 199 -86 79 -88 80 -139 80 -36 0 -63 -7 -82 -20z"/>
<path d="M2051 938 c-85 -24 -138 -103 -128 -190 9 -76 43 -116 151 -181 186
-111 375 -190 520 -219 138 -26 355 -13 556 34 114 27 155 49 191 106 28 43
30 53 27 114 -3 56 -8 73 -34 105 -35 45 -105 83 -150 83 -18 0 -79 -11 -136
-25 -194 -47 -358 -50 -513 -10 -70 18 -205 80 -291 135 -54 34 -122 61 -149
59 -5 0 -25 -5 -44 -11z"/>
</g>
</svg>
