<?xml version="1.0" standalone="no"?>
<!DOCTYPE svg PUBLIC "-//W3C//DTD SVG 20010904//EN"
 "http://www.w3.org/TR/2001/REC-SVG-20010904/DTD/svg10.dtd">
<svg version="1.0" xmlns="http://www.w3.org/2000/svg"
 width="600.000000pt" height="600.000000pt" viewBox="0 0 600.000000 600.000000"
 preserveAspectRatio="xMidYMid meet">
<metadata>
Created by potrace 1.15, written by Peter Selinger 2001-2017
</metadata>
<g transform="translate(0.000000,600.000000) scale(0.100000,-0.100000)"
fill="#16364b" stroke="none">
<path d="M2205 5821 c-47 -30 -459 -392 -573 -504 -119 -118 -162 -189 -162
-269 0 -52 17 -99 48 -134 92 -106 309 -70 839 138 167 65 207 85 232 113 97
111 -5 280 -151 251 -18 -4 -111 -35 -206 -70 -95 -35 -171 -58 -169 -52 2 6
83 75 180 154 192 155 208 177 193 256 -19 101 -151 168 -231 117z"/>
<path d="M3074 5651 c-31 -14 -47 -30 -63 -63 -25 -52 -26 -76 -7 -123 20 -47
62 -70 154 -84 266 -41 391 -151 392 -344 0 -44 -6 -92 -14 -111 -33 -79 -128
-154 -298 -234 -78 -38 -88 -46 -108 -87 -50 -103 17 -215 128 -215 78 0 326
145 438 258 105 104 145 204 146 362 1 88 -3 118 -27 190 -39 122 -81 195
-156 271 -99 100 -202 144 -433 184 -109 18 -102 19 -152 -4z"/>
<path d="M938 5316 c-148 -61 -266 -174 -317 -304 -45 -114 -34 -255 30 -389
60 -128 227 -263 324 -263 87 0 155 65 155 147 0 60 -23 96 -96 148 -98 70
-143 153 -124 226 13 47 73 102 152 139 33 16 69 37 80 47 103 93 30 274 -109
273 -21 0 -64 -11 -95 -24z"/>
<path d="M2705 4958 c-97 -35 -199 -132 -248 -236 -30 -62 -32 -75 -32 -172 0
-101 1 -108 34 -168 74 -137 255 -242 415 -242 73 0 115 22 139 73 22 46 21
89 -3 137 -26 50 -52 67 -137 89 -90 24 -129 45 -148 82 -32 60 5 127 90 165
138 60 153 209 28 273 -27 14 -98 13 -138 -1z"/>
<path d="M4825 4953 c-32 -8 -100 -59 -120 -90 -27 -41 -33 -92 -24 -195 19
-208 107 -370 238 -442 137 -74 298 -21 368 121 63 130 18 314 -110 450 -103
109 -261 179 -352 156z"/>
<path d="M1865 4474 c-97 -24 -186 -76 -263 -154 -84 -87 -89 -156 -16 -231
74 -75 166 -75 239 2 44 47 97 73 130 65 13 -3 42 -22 65 -41 36 -30 49 -35
92 -35 61 0 97 20 132 73 73 114 27 215 -131 289 -51 24 -80 31 -146 34 -45 1
-91 1 -102 -2z"/>
<path d="M2632 3855 c-75 -23 -112 -72 -112 -148 0 -49 27 -96 73 -131 22 -16
45 -21 100 -22 40 -1 80 -2 90 -3 25 -1 22 -63 -6 -132 -38 -91 -176 -292
-300 -438 -79 -93 -85 -160 -20 -232 70 -77 155 -78 225 0 232 258 375 483
414 646 39 168 2 317 -98 395 -90 72 -253 100 -366 65z"/>
<path d="M4300 3810 c-65 -12 -139 -38 -188 -67 -64 -37 -146 -124 -178 -189
-87 -176 25 -377 229 -415 147 -27 295 59 411 238 59 92 136 250 136 280 0 64
-50 124 -119 143 -50 14 -237 21 -291 10z m-10 -335 c-19 -23 -68 -47 -74 -36
-7 11 22 37 54 49 31 12 37 7 20 -13z"/>
<path d="M1224 3790 c-50 -9 -233 -79 -311 -118 -146 -75 -142 -245 7 -326 45
-25 60 -28 116 -24 35 2 64 2 64 1 0 -10 -73 -146 -148 -278 -47 -82 -105
-193 -128 -245 -57 -131 -144 -400 -144 -447 1 -145 169 -246 305 -184 23 10
81 58 131 107 109 108 419 427 532 547 45 48 85 87 88 87 7 0 -1 -74 -27 -254
-31 -211 -108 -451 -237 -734 -72 -160 -76 -190 -29 -261 51 -77 168 -95 227
-35 45 46 203 440 274 685 29 103 42 167 67 354 10 77 24 165 30 195 17 84 7
306 -15 350 -42 80 -104 120 -189 120 -94 0 -156 -40 -343 -223 -90 -88 -164
-156 -164 -152 0 4 20 44 44 88 58 106 142 302 161 377 41 159 -3 288 -117
344 -62 30 -123 38 -194 26z"/>
<path d="M3500 3375 c-97 -30 -167 -123 -209 -275 -31 -112 -35 -178 -14 -220
21 -41 72 -77 122 -86 55 -11 187 12 255 44 85 40 120 73 157 148 29 59 31 70
27 139 -4 60 -11 84 -34 122 -65 105 -198 161 -304 128z"/>
<path d="M4837 2793 c-47 -19 -179 -183 -236 -293 -90 -172 -73 -317 45 -386
99 -58 230 -20 350 103 91 91 136 187 142 297 5 93 -11 144 -55 174 -13 9 -43
36 -67 58 -24 24 -59 47 -81 53 -50 14 -52 13 -98 -6z"/>
<path d="M4222 2459 c-40 -12 -101 -71 -127 -124 -27 -57 -30 -144 -7 -257 10
-54 17 -98 14 -98 -3 0 -48 14 -101 32 -124 41 -249 45 -322 12 -127 -59 -199
-196 -199 -377 0 -135 57 -423 100 -506 26 -51 76 -99 134 -128 41 -21 60 -24
112 -21 81 5 134 39 169 108 34 67 32 126 -10 285 -18 72 -30 131 -25 133 8 3
50 -18 125 -63 22 -14 60 -27 85 -31 45 -7 143 8 215 33 110 38 193 131 222
249 14 58 15 80 4 166 -13 105 -79 387 -107 457 -20 50 -93 117 -143 131 -43
12 -94 12 -139 -1z"/>
<path d="M2885 2331 c-192 -52 -497 -185 -563 -245 -13 -12 -30 -33 -37 -47
-13 -24 -21 -27 -84 -31 -91 -7 -159 -40 -233 -114 -68 -67 -93 -123 -85 -190
10 -91 100 -174 188 -174 l37 0 22 -87 c31 -123 31 -122 -14 -138 -56 -20
-126 -71 -164 -120 -98 -128 -102 -340 -10 -520 122 -237 276 -364 558 -461
77 -26 97 -29 210 -28 111 0 132 3 187 26 100 42 248 134 286 178 113 133 38
306 -133 305 -48 -1 -67 -8 -147 -54 -107 -62 -174 -84 -223 -76 -107 20 -227
83 -297 156 -57 60 -103 148 -103 196 0 39 2 43 24 43 14 0 48 -19 79 -44 100
-82 239 -100 315 -40 47 38 82 106 82 159 -1 64 -31 117 -96 166 -115 87 -173
220 -209 475 -6 51 -6 52 23 62 17 6 76 37 132 71 89 52 268 135 338 156 30 9
29 -6 -8 -116 -33 -100 -58 -152 -159 -329 -62 -110 -71 -131 -71 -176 0 -119
127 -206 265 -180 69 13 101 55 211 281 146 299 192 449 182 594 -10 130 -85
244 -196 294 -67 30 -212 34 -307 8z"/>
</g>
</svg>
