<?xml version="1.0" standalone="no"?>
<!DOCTYPE svg PUBLIC "-//W3C//DTD SVG 20010904//EN"
 "http://www.w3.org/TR/2001/REC-SVG-20010904/DTD/svg10.dtd">
<svg version="1.0" xmlns="http://www.w3.org/2000/svg"
 width="600.000000pt" height="600.000000pt" viewBox="0 0 600.000000 600.000000"
 preserveAspectRatio="xMidYMid meet">
<metadata>
Created by potrace 1.15, written by Peter Selinger 2001-2017
</metadata>
<g transform="translate(0.000000,600.000000) scale(0.100000,-0.100000)"
fill="#16364b" stroke="none">
<path d="M3174 5651 c-52 -13 -83 -43 -118 -116 -96 -199 -101 -354 -16 -462
53 -67 143 -107 299 -132 l105 -16 -130 -74 c-170 -98 -283 -175 -392 -265
-138 -115 -154 -148 -128 -269 18 -84 32 -106 93 -145 76 -49 164 -77 379
-122 109 -23 226 -51 259 -61 95 -30 152 -23 194 22 51 55 46 141 -12 197 -41
40 -107 63 -324 112 -225 51 -223 51 -223 60 0 21 235 181 463 315 201 117
257 177 257 273 0 56 -15 90 -58 135 -74 78 -182 116 -400 142 -67 8 -127 17
-133 21 -16 9 -3 64 37 162 37 89 38 121 6 170 -28 42 -100 67 -158 53z"/>
<path d="M1431 5408 c-129 -70 -236 -179 -363 -367 -114 -171 -173 -304 -202
-461 -20 -105 -20 -137 2 -180 40 -80 143 -105 227 -55 47 27 199 73 364 111
59 13 109 24 114 24 16 0 3 -31 -77 -179 -94 -174 -144 -290 -153 -360 -3 -25
-13 -56 -21 -68 -56 -87 -14 -208 81 -234 48 -13 58 -10 197 61 63 32 169 82
235 110 209 89 245 120 245 211 0 82 -63 148 -148 157 -43 4 -59 -1 -118 -32
-37 -19 -69 -34 -71 -32 -2 2 26 61 62 132 109 216 129 344 68 443 -72 117
-244 131 -563 46 -30 -8 -56 -12 -58 -10 -5 5 21 49 97 165 54 83 187 226 244
264 97 63 87 210 -17 257 -54 25 -94 24 -145 -3z"/>
<path d="M4638 4445 c-107 -22 -324 -86 -357 -106 -61 -37 -83 -134 -45 -200
12 -21 38 -43 67 -58 l49 -24 145 42 c81 22 148 39 151 37 6 -7 -151 -234
-249 -359 -106 -135 -133 -186 -125 -230 9 -49 40 -92 78 -110 35 -16 35 -17
30 -68 -6 -62 16 -110 62 -138 17 -10 87 -35 156 -56 136 -40 280 -94 280
-104 0 -16 -84 -147 -169 -265 -51 -71 -100 -143 -108 -161 -36 -75 21 -167
110 -180 97 -15 155 38 342 315 122 181 153 281 120 381 -38 114 -147 184
-425 275 -96 31 -178 58 -182 61 -4 2 32 54 80 116 173 220 303 420 342 523
66 177 -35 325 -220 323 -36 -1 -95 -7 -132 -14z"/>
<path d="M3830 3647 c-35 -18 -49 -34 -64 -69 -31 -74 -18 -109 67 -187 151
-139 157 -146 157 -180 0 -18 5 -41 11 -52 10 -19 9 -19 -28 -4 -152 65 -381
14 -512 -114 -66 -64 -114 -161 -106 -211 15 -84 76 -135 161 -134 67 1 99 22
152 96 40 55 45 59 70 51 15 -4 70 -8 123 -8 88 0 99 2 138 28 69 46 97 133
66 209 -6 15 -3 16 26 8 63 -18 133 18 168 88 20 38 15 127 -10 178 -12 25
-51 79 -88 119 -36 41 -76 86 -87 102 -28 36 -121 92 -165 99 -24 4 -47 -1
-79 -19z"/>
<path d="M2453 3631 c-145 -40 -307 -122 -336 -171 -34 -57 -20 -148 29 -191
67 -59 125 -56 256 9 112 56 185 79 213 68 15 -5 17 -14 11 -67 -17 -147 -70
-280 -230 -569 -106 -193 -116 -231 -76 -295 18 -29 72 -65 98 -65 5 0 29 -9
53 -20 24 -11 60 -20 79 -20 19 0 119 28 222 62 103 34 190 59 194 55 10 -10
-18 -79 -104 -257 -105 -217 -109 -286 -21 -364 95 -87 240 -62 301 51 32 58
157 355 186 438 66 195 49 345 -51 443 -68 67 -124 86 -242 86 -59 -1 -125 -8
-161 -18 -34 -9 -64 -16 -67 -16 -3 0 11 42 30 93 80 212 109 450 69 566 -24
71 -90 142 -159 172 -73 32 -197 36 -294 10z"/>
<path d="M1072 3400 c-66 -24 -139 -68 -237 -145 -95 -75 -131 -138 -121 -212
8 -63 45 -116 98 -142 58 -27 113 -27 171 3 46 23 47 23 47 3 0 -11 -22 -100
-49 -196 -89 -314 -105 -410 -106 -611 0 -193 3 -207 66 -268 43 -42 174 -86
236 -79 55 6 76 25 166 152 39 55 127 177 197 270 167 226 211 289 250 359
l33 58 16 -28 c21 -37 19 -167 -3 -284 -9 -47 -41 -166 -71 -265 -101 -331
-111 -501 -37 -638 65 -122 222 -146 305 -47 37 44 43 88 19 143 -11 24 -25
48 -31 51 -16 10 -14 132 4 217 8 39 33 137 55 218 63 228 83 362 77 511 -3
86 -11 145 -25 190 -11 36 -25 115 -31 175 -17 169 -65 249 -157 262 -64 8
-117 -12 -180 -69 -53 -49 -158 -180 -234 -293 -80 -118 -194 -267 -198 -257
-2 6 15 75 37 154 120 431 125 580 24 698 -73 85 -201 113 -321 70z"/>
<path d="M4641 2224 c-83 -31 -151 -130 -151 -221 0 -21 -5 -23 -47 -23 -27 0
-124 7 -217 16 -198 20 -280 12 -374 -35 -157 -80 -213 -194 -232 -475 -5 -88
-12 -161 -15 -164 -2 -2 -16 9 -30 26 -44 53 -177 154 -240 183 -165 77 -333
49 -466 -78 -64 -61 -134 -164 -170 -251 -12 -29 -25 -49 -29 -45 -4 4 -15 55
-25 113 -46 273 -134 464 -232 506 -98 42 -211 -17 -238 -124 -15 -57 -8 -108
23 -168 34 -66 60 -173 87 -363 47 -317 78 -404 185 -512 162 -163 387 -182
461 -37 18 35 21 53 16 107 -5 59 0 81 38 196 60 184 124 305 161 305 9 0 79
-62 155 -139 181 -179 226 -206 354 -206 76 0 98 4 145 26 91 43 133 87 217
228 21 36 40 150 61 366 l7 80 100 -5 c55 -3 190 -5 300 -5 l200 0 67 32 c124
58 189 154 207 304 12 94 2 199 -22 245 -22 41 -71 89 -113 109 -51 24 -130
28 -183 9z"/>
</g>
</svg>
