<?xml version="1.0" standalone="no"?>
<!DOCTYPE svg PUBLIC "-//W3C//DTD SVG 20010904//EN"
 "http://www.w3.org/TR/2001/REC-SVG-20010904/DTD/svg10.dtd">
<svg version="1.0" xmlns="http://www.w3.org/2000/svg"
 width="600.000000pt" height="600.000000pt" viewBox="0 0 600.000000 600.000000"
 preserveAspectRatio="xMidYMid meet">
<metadata>
Created by potrace 1.15, written by Peter Selinger 2001-2017
</metadata>
<g transform="translate(0.000000,600.000000) scale(0.100000,-0.100000)"
fill="#16364b" stroke="none">
<path d="M1335 5707 c-306 -102 -335 -120 -335 -199 0 -32 5 -41 33 -58 30
-19 51 -20 335 -20 l303 0 24 25 c52 51 18 128 -65 144 -25 5 -38 9 -29 10 26
2 59 45 59 79 0 39 -35 80 -75 87 -21 3 -99 -18 -250 -68z"/>
<path d="M2377 5401 c-21 -26 -24 -41 -30 -147 -8 -145 -40 -366 -67 -455 -33
-111 -102 -188 -220 -249 -74 -37 -95 -62 -95 -112 0 -54 42 -93 91 -85 78 13
262 139 324 221 77 103 99 175 125 399 27 239 30 367 11 404 -31 61 -98 72
-139 24z"/>
<path d="M3524 5295 c-43 -22 -68 -68 -61 -115 16 -124 151 -261 280 -284 81
-15 146 51 132 135 -8 46 -63 140 -113 193 -65 68 -177 101 -238 71z"/>
<path d="M3016 5144 c-98 -30 -186 -153 -194 -271 -5 -77 10 -124 54 -163 48
-42 117 -42 190 -1 99 57 131 115 141 252 7 98 -17 151 -80 180 -49 22 -48 22
-111 3z m8 -242 c-25 -38 -32 -8 -8 37 17 31 19 33 22 12 2 -12 -4 -34 -14
-49z"/>
<path d="M4753 4756 c-28 -24 -28 -26 -31 -156 -4 -156 10 -301 38 -391 20
-66 71 -138 113 -161 158 -84 305 87 268 312 -23 141 -124 293 -265 398 -38
29 -88 28 -123 -2z"/>
<path d="M2624 4222 c-123 -58 -140 -216 -35 -318 70 -68 191 -104 286 -84 78
16 168 64 225 120 46 45 50 53 50 95 0 52 -21 99 -50 115 -10 6 -70 26 -132
46 -145 46 -280 56 -344 26z"/>
<path d="M1109 4136 c-35 -20 -63 -80 -55 -119 5 -25 1 -36 -25 -63 -45 -46
-51 -110 -16 -163 43 -65 166 -131 247 -131 47 0 129 26 169 55 111 76 104
249 -14 339 -96 73 -249 114 -306 82z"/>
<path d="M5254 3856 c-34 -8 -80 -24 -104 -36 -55 -28 -127 -95 -150 -140 -79
-156 -10 -378 144 -458 42 -22 65 -27 126 -27 64 0 85 5 140 31 129 62 200
168 208 310 4 72 1 89 -20 135 -32 70 -63 105 -132 153 -66 46 -117 53 -212
32z m71 -307 c8 -13 -23 -49 -42 -49 -17 0 -27 25 -19 45 6 17 52 20 61 4z"/>
<path d="M4200 3756 c-107 -29 -184 -90 -223 -175 -32 -69 -30 -179 6 -247 59
-115 141 -169 258 -168 117 2 246 80 298 181 45 90 52 249 14 315 -24 42 -80
73 -165 93 -79 18 -127 18 -188 1z m90 -268 c0 -19 -31 -48 -52 -48 -29 0 -20
27 17 48 26 15 35 15 35 0z"/>
<path d="M3423 3356 c-28 -24 -52 -67 -120 -214 -41 -90 -41 -115 -4 -153 39
-38 82 -38 143 0 100 63 176 222 149 312 -22 74 -111 103 -168 55z"/>
<path d="M1415 3161 c-129 -21 -238 -67 -343 -146 -227 -171 -291 -437 -161
-664 67 -117 177 -196 358 -258 213 -73 245 -107 361 -382 146 -349 255 -487
454 -575 132 -58 336 -72 566 -37 90 14 210 21 430 25 362 8 450 17 634 63
321 80 490 163 691 340 199 174 325 424 350 699 7 79 -8 206 -33 269 -63 160
-268 354 -430 406 -49 16 -92 21 -162 22 -122 0 -200 -26 -405 -133 -196 -102
-234 -112 -415 -116 -313 -5 -409 25 -757 234 -234 141 -342 181 -628 233
-130 23 -418 34 -510 20z m539 -406 c132 -27 231 -70 426 -182 353 -204 442
-243 613 -269 56 -8 125 -22 153 -30 42 -12 69 -13 153 -5 236 25 373 68 561
180 162 96 178 103 230 103 64 0 122 -32 202 -112 58 -58 67 -72 73 -114 20
-132 -68 -371 -175 -475 -111 -108 -233 -179 -407 -236 -218 -72 -387 -92
-838 -100 -121 -2 -274 -11 -340 -19 -260 -34 -366 -12 -466 98 -38 42 -78
119 -134 256 -61 150 -104 230 -166 313 -103 137 -250 235 -445 297 -127 40
-169 76 -169 145 0 95 99 141 360 169 78 8 291 -3 369 -19z"/>
<path d="M411 2114 c-12 -15 -21 -40 -21 -57 0 -47 114 -267 173 -333 103
-115 236 -137 305 -49 29 36 29 104 1 161 -28 58 -128 149 -256 234 -124 81
-166 90 -202 44z"/>
<path d="M5037 1380 c-19 -16 -45 -30 -57 -30 -36 0 -88 -46 -99 -86 -22 -80
38 -243 105 -285 45 -28 114 -28 153 0 47 34 70 97 80 224 7 86 6 119 -4 143
-29 70 -118 87 -178 34z"/>
</g>
</svg>
