<?xml version="1.0" standalone="no"?>
<!DOCTYPE svg PUBLIC "-//W3C//DTD SVG 20010904//EN"
 "http://www.w3.org/TR/2001/REC-SVG-20010904/DTD/svg10.dtd">
<svg version="1.0" xmlns="http://www.w3.org/2000/svg"
 width="600.000000pt" height="600.000000pt" viewBox="0 0 600.000000 600.000000"
 preserveAspectRatio="xMidYMid meet">
<metadata>
Created by potrace 1.15, written by Peter Selinger 2001-2017
</metadata>
<g transform="translate(0.000000,600.000000) scale(0.100000,-0.100000)"
fill="#16364b" stroke="none">
<path d="M2125 5831 c-16 -10 -68 -60 -115 -112 -47 -52 -110 -121 -140 -154
-31 -33 -76 -83 -100 -110 -25 -28 -90 -99 -145 -158 -156 -169 -189 -231
-165 -311 41 -136 175 -172 384 -102 163 55 647 265 686 298 34 29 50 64 50
111 0 91 -51 159 -130 172 -37 6 -56 0 -208 -73 -92 -45 -169 -79 -171 -76 -2
2 34 43 81 91 132 135 185 202 197 247 18 71 -11 145 -71 180 -36 22 -116 20
-153 -3z"/>
<path d="M3046 5670 c-67 -21 -105 -90 -87 -157 15 -56 65 -99 146 -126 236
-81 395 -186 440 -293 19 -47 20 -175 1 -213 -34 -65 -120 -122 -266 -176 -41
-15 -87 -39 -103 -53 -68 -64 -52 -186 33 -245 46 -32 100 -22 233 42 310 150
410 283 408 541 -1 104 -18 185 -55 258 -83 163 -283 306 -546 392 -108 35
-162 43 -204 30z"/>
<path d="M944 5341 c-130 -47 -245 -148 -304 -266 -29 -61 -35 -82 -38 -161
-7 -162 42 -278 178 -415 99 -99 142 -123 210 -117 106 10 165 104 129 206 -6
17 -45 62 -90 102 -90 81 -119 129 -119 193 0 68 31 104 134 158 106 54 129
81 134 158 8 128 -96 191 -234 142z"/>
<path d="M2755 4966 c-109 -35 -203 -111 -256 -208 -32 -58 -34 -69 -34 -153
0 -77 4 -98 27 -147 62 -133 208 -221 390 -235 63 -5 82 -3 103 11 37 24 65
75 65 116 -1 74 -65 162 -128 176 -127 28 -152 44 -152 97 0 44 34 74 90 79
77 8 130 67 130 145 0 105 -107 159 -235 119z"/>
<path d="M4757 4909 c-30 -20 -53 -46 -68 -75 -20 -42 -21 -54 -14 -156 19
-300 142 -482 336 -496 168 -12 304 108 317 280 12 171 -99 318 -323 429 -125
62 -177 66 -248 18z"/>
<path d="M1916 4529 c-74 -12 -174 -66 -233 -125 -60 -60 -73 -86 -73 -152 0
-84 60 -142 148 -142 50 0 54 2 153 78 56 42 95 43 135 1 123 -131 327 -24
260 136 -36 86 -136 171 -235 199 -59 17 -80 18 -155 5z"/>
<path d="M2822 3903 c-12 -3 -40 -21 -61 -41 -69 -66 -77 -162 -18 -229 29
-32 30 -37 24 -102 -7 -91 -53 -224 -124 -363 -44 -89 -57 -123 -57 -159 0
-64 29 -109 85 -132 39 -16 51 -17 89 -7 58 16 93 54 156 171 59 108 93 190
126 304 18 66 23 105 23 220 0 134 -1 143 -29 203 -33 71 -78 116 -133 131
-39 11 -42 11 -81 4z"/>
<path d="M1240 3829 c-60 -8 -249 -73 -318 -108 -94 -48 -129 -166 -79 -262
34 -63 111 -103 185 -95 28 3 52 3 52 0 0 -3 -35 -65 -79 -138 -293 -490 -392
-762 -323 -893 56 -107 197 -133 295 -55 19 16 115 101 213 189 220 198 441
395 500 447 25 21 48 36 51 32 13 -13 -27 -194 -81 -366 -30 -96 -71 -230 -91
-298 -48 -163 -95 -278 -156 -385 -56 -97 -65 -147 -36 -204 28 -53 73 -78
143 -78 105 0 131 31 260 316 60 133 92 227 161 474 130 466 137 502 130 624
-8 128 -29 192 -78 246 -50 54 -92 69 -179 63 -104 -8 -192 -65 -389 -253 -46
-44 -82 -75 -80 -69 2 6 50 102 107 215 109 216 130 282 117 368 -13 88 -75
175 -148 209 -54 25 -108 31 -177 21z"/>
<path d="M4211 3784 c-134 -28 -231 -96 -280 -196 -80 -159 -6 -344 163 -407
161 -60 296 -24 426 115 79 85 173 273 174 347 0 81 -54 133 -155 147 -92 14
-253 11 -328 -6z m46 -309 c-29 -26 -57 -33 -57 -15 0 11 55 39 75 39 6 0 -3
-11 -18 -24z"/>
<path d="M3453 3369 c-84 -41 -144 -132 -188 -285 -31 -106 -31 -138 -2 -188
35 -62 75 -78 182 -73 108 5 179 33 250 98 64 59 96 117 102 186 10 110 -39
204 -132 255 -64 35 -149 38 -212 7z"/>
<path d="M4896 2860 c-59 -18 -181 -160 -242 -283 -78 -154 -78 -280 0 -365
85 -94 260 -64 374 64 109 122 162 319 116 432 -16 43 -134 152 -162 152 -9 0
-26 2 -37 5 -11 2 -33 0 -49 -5z"/>
<path d="M4153 2464 c-44 -16 -96 -62 -118 -104 -28 -54 -27 -86 5 -216 17
-69 29 -129 26 -131 -2 -3 -35 7 -71 22 -193 77 -318 65 -427 -42 -90 -89
-128 -224 -108 -388 14 -109 74 -362 102 -427 58 -135 223 -196 349 -130 43
22 59 38 81 81 36 69 36 111 -2 261 -16 65 -30 124 -30 130 0 15 35 -4 84 -46
54 -46 124 -68 195 -61 130 13 230 66 288 152 83 125 83 234 3 572 -58 241
-75 274 -162 317 -60 30 -146 34 -215 10z"/>
<path d="M2861 2250 c-129 -27 -308 -103 -475 -202 l-59 -35 -45 25 c-60 34
-140 35 -208 2 -99 -47 -223 -198 -224 -270 0 -108 89 -199 196 -200 l41 0 12
-57 c6 -32 14 -68 17 -79 5 -19 -3 -27 -53 -53 -126 -67 -207 -166 -239 -291
-69 -268 112 -642 375 -779 178 -92 459 -124 636 -73 107 31 210 82 283 139
81 65 97 92 97 175 0 58 -4 72 -30 110 -35 50 -102 88 -157 88 -49 0 -95 -19
-155 -65 -67 -51 -160 -94 -219 -101 -82 -10 -193 19 -267 70 -108 74 -190
206 -185 298 4 73 22 80 89 38 30 -19 75 -53 100 -76 63 -57 116 -72 184 -50
61 19 108 65 130 125 31 89 13 152 -68 235 -70 72 -123 177 -156 306 -28 114
-27 126 7 135 15 3 90 41 167 84 164 90 315 156 315 136 0 -4 -14 -54 -30
-111 -40 -135 -90 -266 -147 -383 -37 -75 -46 -105 -46 -146 0 -161 172 -248
305 -154 52 37 181 336 288 664 65 200 50 318 -52 410 -73 65 -140 88 -273 91
-60 2 -130 -1 -154 -6z"/>
</g>
</svg>
