<?xml version="1.0" standalone="no"?>
<!DOCTYPE svg PUBLIC "-//W3C//DTD SVG 20010904//EN"
 "http://www.w3.org/TR/2001/REC-SVG-20010904/DTD/svg10.dtd">
<svg version="1.0" xmlns="http://www.w3.org/2000/svg"
 width="600.000000pt" height="600.000000pt" viewBox="0 0 600.000000 600.000000"
 preserveAspectRatio="xMidYMid meet">
<metadata>
Created by potrace 1.15, written by Peter Selinger 2001-2017
</metadata>
<g transform="translate(0.000000,600.000000) scale(0.100000,-0.100000)"
fill="#16364b" stroke="none">
<path d="M2195 5810 c-77 -23 -583 -493 -659 -612 -67 -106 -70 -196 -9 -269
76 -90 202 -90 473 0 107 36 343 136 470 199 78 39 113 86 114 156 0 41 -5 63
-20 83 -67 90 -124 91 -332 4 -84 -35 -155 -61 -158 -58 -3 3 62 64 145 136
162 142 179 166 166 241 -15 86 -107 144 -190 120z"/>
<path d="M3035 5672 c-74 -47 -94 -116 -53 -186 29 -49 62 -69 169 -101 175
-52 310 -140 352 -228 25 -53 39 -135 31 -192 -15 -112 -74 -183 -203 -242
-141 -64 -143 -66 -163 -110 -24 -54 -16 -103 24 -149 43 -49 90 -60 164 -39
112 32 238 102 317 175 121 113 161 211 161 400 0 64 -6 139 -13 170 -51 209
-250 385 -545 481 -121 40 -201 47 -241 21z"/>
<path d="M916 5330 c-122 -62 -189 -129 -246 -245 -99 -205 -68 -415 84 -570
145 -148 280 -165 343 -45 45 85 25 147 -73 221 -69 53 -107 119 -107 183 2
83 43 129 164 184 82 37 113 76 113 143 0 34 -7 58 -26 87 -52 78 -149 94
-252 42z"/>
<path d="M2741 4964 c-111 -30 -218 -129 -263 -244 -16 -41 -21 -78 -22 -145
-1 -79 3 -98 28 -153 57 -124 165 -193 337 -215 76 -9 92 -9 133 7 52 20 81
51 97 106 25 84 -26 172 -107 184 -160 24 -184 36 -184 95 0 50 23 78 73 91
99 24 140 65 140 136 0 57 -30 104 -83 132 -51 25 -74 26 -149 6z"/>
<path d="M4759 4918 c-77 -60 -84 -77 -82 -188 2 -118 23 -210 71 -310 113
-235 362 -314 505 -161 79 85 102 216 57 333 -47 127 -153 229 -322 314 -114
57 -166 60 -229 12z"/>
<path d="M1835 4496 c-105 -26 -226 -110 -259 -180 -46 -96 9 -196 121 -221
46 -9 101 11 148 55 78 74 116 78 178 20 49 -45 83 -60 133 -60 69 0 132 53
141 118 8 58 -12 104 -65 154 -117 109 -256 149 -397 114z"/>
<path d="M2770 3883 c-88 -32 -130 -81 -130 -151 0 -70 46 -135 106 -151 23
-6 30 -14 32 -39 7 -72 -69 -249 -177 -412 -53 -80 -56 -89 -56 -147 0 -69 17
-101 75 -140 49 -34 137 -32 178 2 58 48 194 310 251 481 74 220 56 386 -52
492 -60 59 -163 88 -227 65z"/>
<path d="M1160 3792 c-36 -11 -112 -38 -171 -60 -143 -57 -189 -106 -189 -203
0 -56 20 -98 68 -141 46 -41 90 -53 162 -45 l49 6 -18 -37 c-9 -20 -75 -151
-145 -291 -176 -351 -256 -548 -256 -634 0 -67 54 -146 119 -173 43 -18 128
-18 163 0 46 24 319 259 470 405 79 76 184 174 233 219 83 75 90 79 93 57 5
-34 -34 -217 -74 -356 -39 -134 -122 -356 -217 -580 -81 -188 -85 -206 -63
-264 25 -63 69 -89 145 -83 63 4 102 27 131 76 40 67 181 407 258 622 98 271
161 614 145 790 -16 181 -120 282 -259 251 -75 -17 -123 -52 -361 -264 -68
-60 -123 -106 -123 -103 0 4 32 63 71 133 177 311 203 495 90 616 -66 72 -193
95 -321 59z"/>
<path d="M4355 3800 c-277 -39 -439 -163 -461 -351 -22 -192 167 -355 369
-318 162 29 270 135 383 375 61 129 68 173 37 226 -31 53 -70 69 -175 73 -51
2 -120 0 -153 -5z m-85 -329 c0 -12 -54 -51 -69 -51 -19 0 -12 18 15 39 28 22
54 28 54 12z"/>
<path d="M3518 3366 c-105 -28 -184 -120 -228 -265 -30 -99 -32 -180 -4 -217
45 -61 66 -69 183 -69 101 1 112 3 174 33 154 76 206 230 131 388 -50 105
-152 157 -256 130z"/>
<path d="M4863 2829 c-58 -17 -219 -228 -262 -345 -51 -136 -48 -216 11 -288
42 -52 82 -69 155 -70 51 0 74 7 136 37 145 72 237 208 245 363 5 96 -7 140
-49 180 -17 16 -45 44 -62 63 -54 56 -115 77 -174 60z"/>
<path d="M4172 2457 c-58 -18 -117 -80 -137 -142 l-17 -56 31 -126 c18 -69 30
-127 28 -129 -2 -2 -38 12 -81 31 -176 82 -316 66 -421 -46 -70 -74 -88 -124
-93 -254 -4 -111 14 -247 68 -514 20 -101 46 -145 108 -187 101 -69 259 -17
327 107 34 63 37 113 13 272 l-15 97 21 -6 c12 -3 32 -14 46 -25 46 -36 124
-69 164 -69 21 0 65 7 99 16 124 32 191 83 239 183 40 84 47 177 23 306 -27
149 -95 408 -116 445 -50 88 -180 132 -287 97z"/>
<path d="M2953 2310 c-99 -18 -264 -93 -536 -244 l-119 -65 -63 17 c-85 22
-158 8 -235 -46 -69 -49 -137 -131 -146 -177 -11 -63 4 -123 43 -166 45 -50
83 -70 147 -78 l50 -6 18 -84 c10 -46 17 -85 16 -86 -2 0 -34 -16 -73 -35 -83
-40 -180 -132 -214 -202 -73 -152 -41 -341 94 -549 96 -148 194 -239 311 -289
174 -76 435 -110 576 -75 153 37 347 143 385 210 48 85 19 200 -66 260 -35 25
-52 30 -100 30 -51 0 -67 -6 -148 -53 -50 -29 -110 -59 -133 -67 -83 -29 -213
-12 -313 42 -116 64 -217 193 -225 288 -4 47 -2 54 16 59 23 8 43 -2 137 -64
109 -71 117 -74 180 -74 111 0 176 60 183 169 5 77 -10 110 -87 185 -36 35
-68 80 -89 122 -30 64 -72 204 -87 294 -6 39 -5 42 22 48 15 4 84 38 153 76
193 105 310 163 317 156 18 -17 -86 -335 -159 -486 -43 -88 -51 -114 -51 -161
0 -67 20 -108 76 -153 34 -27 46 -31 102 -31 93 0 135 32 197 150 83 158 205
493 237 653 59 290 -127 483 -416 432z"/>
</g>
</svg>
