<?xml version="1.0" standalone="no"?>
<!DOCTYPE svg PUBLIC "-//W3C//DTD SVG 20010904//EN"
 "http://www.w3.org/TR/2001/REC-SVG-20010904/DTD/svg10.dtd">
<svg version="1.0" xmlns="http://www.w3.org/2000/svg"
 width="600.000000pt" height="600.000000pt" viewBox="0 0 600.000000 600.000000"
 preserveAspectRatio="xMidYMid meet">
<metadata>
Created by potrace 1.15, written by Peter Selinger 2001-2017
</metadata>
<g transform="translate(0.000000,600.000000) scale(0.100000,-0.100000)"
fill="#16364b" stroke="none">
<path d="M2400 5452 c-48 -24 -93 -87 -130 -184 -70 -181 -16 -304 155 -353
76 -23 231 -16 363 15 51 12 96 20 99 17 3 -3 -42 -66 -99 -139 -224 -287
-363 -499 -404 -616 -32 -89 -2 -193 69 -246 37 -27 99 -26 367 9 118 16 286
30 395 33 210 8 230 13 261 74 21 40 15 125 -12 161 -10 14 -35 35 -56 46 -55
32 -236 38 -455 16 -95 -9 -177 -15 -183 -13 -22 7 155 257 376 528 93 115
124 176 124 248 0 90 -48 156 -140 193 -51 20 -156 15 -310 -14 -169 -32 -250
-41 -250 -29 0 5 12 31 26 56 44 80 21 155 -62 196 -50 25 -88 25 -134 2z"/>
<path d="M1632 5046 c-109 -41 -317 -194 -473 -349 -107 -105 -124 -173 -62
-247 43 -52 85 -66 258 -85 167 -18 255 -36 292 -60 25 -17 42 -39 86 -115 39
-66 83 -94 149 -94 77 0 136 56 145 138 5 40 0 58 -31 121 -73 148 -196 244
-353 276 -35 7 -63 16 -63 20 0 12 110 77 155 93 22 8 59 19 82 25 57 15 98
52 118 106 23 59 6 115 -48 159 -35 28 -47 31 -115 33 -61 2 -90 -2 -140 -21z"/>
<path d="M4115 4823 c-127 -28 -332 -149 -382 -224 -51 -78 -36 -168 37 -217
28 -19 45 -23 85 -20 41 4 65 14 130 60 133 93 227 129 241 94 18 -46 -49
-275 -136 -467 -66 -144 -68 -175 -16 -254 39 -58 79 -90 127 -100 15 -4 98 9
191 29 181 39 311 53 373 39 l40 -9 -1 -65 c-2 -51 -18 -111 -78 -292 -42
-125 -76 -245 -76 -266 0 -115 140 -179 234 -107 75 57 216 500 216 675 0 25
-6 71 -13 102 -42 176 -167 253 -407 253 -63 0 -146 -6 -183 -13 -37 -7 -70
-12 -72 -9 -2 2 11 53 30 112 72 225 84 403 35 514 -28 65 -102 134 -167 156
-43 15 -160 20 -208 9z"/>
<path d="M2031 3959 c-80 -33 -330 -103 -427 -120 -87 -15 -134 -44 -163 -102
-29 -59 -23 -104 23 -154 45 -49 93 -53 266 -18 180 36 442 101 483 121 101
48 111 207 16 275 -49 34 -110 34 -198 -2z"/>
<path d="M3700 3681 c-90 -29 -259 -120 -417 -224 -77 -50 -104 -102 -85 -165
24 -78 105 -127 172 -103 18 6 85 42 149 80 135 81 208 117 217 109 11 -12
-192 -478 -256 -588 -42 -73 -10 -175 70 -217 57 -30 86 -29 205 8 274 86 526
253 598 399 31 62 33 95 11 148 -35 84 -106 123 -186 101 -34 -9 -62 -32 -145
-117 -57 -58 -105 -103 -108 -100 -7 7 34 123 95 268 53 125 71 214 56 274
-10 40 -66 97 -121 122 -63 30 -173 32 -255 5z"/>
<path d="M2360 3375 c-177 -20 -296 -45 -332 -69 -20 -13 -40 -40 -52 -69 -18
-42 -19 -53 -8 -95 15 -56 67 -108 119 -118 22 -4 69 3 136 19 134 34 210 47
270 47 l50 0 -6 -44 c-4 -24 -20 -78 -37 -120 -46 -117 -37 -181 33 -243 56
-49 124 -55 185 -15 29 19 79 121 113 232 34 108 34 246 0 314 -72 145 -206
191 -471 161z"/>
<path d="M1158 3102 c-114 -40 -167 -151 -123 -256 25 -59 68 -94 149 -120 17
-6 18 -14 12 -94 -3 -48 -9 -199 -12 -337 -7 -281 5 -396 52 -493 56 -115 216
-148 315 -65 43 36 59 74 59 138 0 54 1 55 29 55 52 0 92 39 146 140 65 123
104 179 172 246 57 56 67 61 78 43 14 -22 -17 -375 -46 -519 -33 -168 -30
-199 26 -249 73 -64 187 -45 229 37 46 92 132 617 124 757 -8 130 -76 237
-190 297 -35 19 -59 23 -128 23 -121 0 -174 -28 -306 -159 -55 -56 -115 -125
-134 -153 -30 -48 -60 -72 -47 -40 13 34 19 395 7 456 -37 202 -144 312 -300
310 -36 0 -86 -8 -112 -17z"/>
<path d="M4846 2918 c-23 -6 -57 -28 -81 -52 -53 -53 -70 -111 -61 -205 l7
-68 -128 -52 c-330 -132 -443 -280 -443 -578 0 -166 33 -255 148 -396 30 -37
53 -69 51 -71 -2 -1 -19 -9 -38 -16 -18 -7 -51 -29 -74 -47 -46 -39 -59 -39
-212 -2 -105 26 -261 35 -351 20 -187 -32 -417 -186 -556 -373 -28 -37 -57
-68 -64 -68 -7 0 -44 -30 -81 -66 -71 -70 -112 -94 -163 -94 -38 0 -97 29
-145 71 -48 43 -153 203 -208 319 -35 72 -55 101 -81 119 -67 45 -163 38 -227
-16 -84 -71 -91 -179 -22 -325 58 -123 139 -244 224 -332 123 -131 224 -191
367 -222 168 -36 318 11 509 159 23 17 57 41 75 52 18 11 55 55 83 97 99 150
214 257 315 293 61 22 153 19 272 -9 153 -36 212 -40 291 -22 102 24 175 63
244 130 72 72 93 124 73 188 -13 44 -7 58 22 58 37 0 107 40 143 82 47 55 63
127 45 205 -11 49 -21 67 -76 123 -68 71 -84 101 -84 159 0 53 35 79 182 134
169 64 247 122 301 224 46 89 61 167 55 300 -4 85 -9 117 -26 150 -55 106
-176 162 -286 131z"/>
<path d="M3210 2370 c-129 -17 -483 -106 -541 -136 -74 -38 -122 -149 -100
-232 21 -75 110 -151 178 -152 12 0 88 20 169 45 207 65 295 84 412 92 l103 6
-6 -54 c-20 -175 196 -272 316 -142 38 40 54 77 74 166 45 202 -19 343 -178
393 -61 19 -322 28 -427 14z"/>
</g>
</svg>
