<?xml version="1.0" standalone="no"?>
<!DOCTYPE svg PUBLIC "-//W3C//DTD SVG 20010904//EN"
 "http://www.w3.org/TR/2001/REC-SVG-20010904/DTD/svg10.dtd">
<svg version="1.0" xmlns="http://www.w3.org/2000/svg"
 width="600.000000pt" height="600.000000pt" viewBox="0 0 600.000000 600.000000"
 preserveAspectRatio="xMidYMid meet">
<metadata>
Created by potrace 1.15, written by Peter Selinger 2001-2017
</metadata>
<g transform="translate(0.000000,600.000000) scale(0.100000,-0.100000)"
fill="#16364b" stroke="none">
<path d="M1825 5791 c-22 -10 -48 -27 -57 -37 -35 -40 -179 -336 -212 -435
-61 -187 -66 -314 -15 -396 53 -85 167 -103 281 -44 119 62 228 154 416 354
113 120 126 143 120 214 -4 46 -10 60 -41 90 -30 31 -44 37 -90 41 -64 5 -90
-7 -162 -73 -66 -60 -125 -108 -125 -101 0 3 23 53 50 112 58 123 63 171 27
225 -43 65 -117 84 -192 50z"/>
<path d="M2967 5699 c-49 -26 -81 -92 -71 -144 8 -47 37 -81 103 -124 107 -69
359 -252 418 -304 82 -70 130 -130 164 -202 46 -96 37 -145 -27 -145 -76 0
-156 -54 -174 -119 -19 -68 23 -144 93 -170 75 -29 215 -1 292 57 92 70 144
211 125 339 -21 150 -72 245 -200 374 -108 109 -297 262 -466 375 -100 68
-120 78 -166 81 -40 2 -63 -2 -91 -18z"/>
<path d="M913 5425 c-232 -63 -351 -254 -322 -517 15 -133 62 -223 164 -316
62 -57 104 -71 158 -53 64 21 110 95 110 176 0 60 -22 106 -64 137 -46 34 -69
79 -69 132 0 101 41 143 152 157 82 10 130 37 149 82 31 74 2 155 -69 195 -47
26 -128 29 -209 7z"/>
<path d="M2912 5167 c-53 -17 -116 -80 -158 -159 -34 -66 -38 -81 -38 -148 -1
-81 14 -121 63 -173 52 -57 96 -72 206 -72 158 0 239 39 263 128 5 18 5 73 1
124 -12 143 -58 229 -152 283 -56 32 -120 38 -185 17z"/>
<path d="M4795 4890 c-48 -15 -102 -70 -115 -119 -22 -83 12 -303 65 -417 36
-79 98 -153 160 -192 57 -36 166 -43 227 -14 71 35 115 79 149 147 28 58 31
71 27 137 -8 168 -142 331 -351 428 -74 35 -119 43 -162 30z"/>
<path d="M2041 4819 c-123 -21 -221 -89 -235 -163 -9 -50 22 -119 66 -146 52
-31 88 -34 153 -11 73 26 81 20 94 -71 13 -96 43 -133 124 -152 73 -17 165 44
187 123 15 56 -1 164 -36 236 -28 61 -91 128 -144 155 -27 14 -151 45 -154 39
-1 -1 -25 -5 -55 -10z"/>
<path d="M1134 4036 c-140 -31 -171 -44 -212 -91 -42 -47 -52 -74 -52 -136 0
-65 30 -122 82 -156 34 -23 53 -28 104 -28 52 0 61 -2 54 -15 -5 -8 -54 -70
-109 -138 -199 -242 -295 -385 -392 -587 -62 -129 -89 -202 -89 -239 0 -98
103 -195 208 -196 60 0 103 21 143 69 19 23 95 85 169 139 74 53 169 124 210
157 230 184 436 335 459 335 17 0 13 -78 -8 -162 -24 -94 -92 -260 -166 -408
-52 -104 -268 -472 -363 -619 -33 -50 -42 -73 -42 -108 0 -84 51 -143 128
-151 104 -10 125 13 342 373 203 336 345 637 400 845 26 102 39 359 21 426
-36 131 -155 184 -312 138 -66 -20 -192 -82 -281 -140 -38 -24 -68 -41 -68
-38 0 2 47 62 104 133 130 160 153 201 172 295 15 70 15 80 -2 131 -21 69 -80
138 -142 166 -72 34 -216 36 -358 5z"/>
<path d="M2923 4048 c-152 -17 -253 -110 -253 -232 0 -90 55 -160 165 -212
109 -50 215 -68 390 -68 169 1 265 15 312 47 45 30 93 123 93 179 0 88 -50
130 -247 208 -174 69 -322 94 -460 78z"/>
<path d="M4254 3790 c-156 -23 -267 -96 -319 -211 -24 -55 -27 -71 -23 -138 8
-126 75 -224 192 -281 70 -34 182 -34 252 0 67 33 146 110 198 194 56 91 116
242 116 292 0 47 -29 98 -67 118 -58 30 -234 43 -349 26z m-7 -335 c-16 -14
-33 -23 -38 -19 -15 9 21 44 45 44 19 -1 19 -2 -7 -25z"/>
<path d="M3405 3403 c-68 -36 -104 -84 -165 -224 -46 -104 -52 -165 -20 -216
26 -43 61 -59 148 -68 66 -6 77 -5 127 19 188 92 223 399 55 484 -51 26 -103
28 -145 5z"/>
<path d="M4950 3113 c-89 -59 -184 -164 -227 -250 -65 -131 -56 -245 26 -336
47 -52 102 -77 173 -77 225 -1 397 250 334 488 -16 60 -32 87 -85 144 -74 81
-135 89 -221 31z"/>
<path d="M3897 2644 c-69 -22 -131 -87 -152 -159 -21 -72 -15 -106 45 -267 26
-71 44 -128 39 -128 -6 0 -38 9 -72 21 -112 38 -206 12 -289 -80 -55 -61 -78
-128 -79 -230 l0 -76 -15 49 c-56 182 -235 266 -449 211 -75 -20 -279 -117
-372 -178 -38 -26 -73 -47 -76 -47 -3 0 -10 30 -16 66 -30 168 -96 321 -169
384 -88 78 -229 92 -341 35 -132 -67 -293 -291 -297 -415 -2 -46 -9 -66 -42
-115 -133 -199 -191 -398 -179 -609 8 -130 36 -237 93 -355 39 -81 59 -107
147 -195 159 -160 329 -260 485 -287 91 -16 269 -6 362 21 98 28 239 97 321
159 74 55 163 155 186 210 8 20 41 88 73 151 84 166 227 500 257 600 17 57 27
121 30 195 l6 110 18 -65 c15 -54 80 -243 156 -449 73 -201 361 -210 437 -13
20 53 20 87 1 142 -8 23 -15 44 -15 46 0 2 16 -4 35 -12 92 -38 256 6 335 92
111 121 115 259 15 559 -53 158 -148 412 -184 490 -55 119 -177 177 -294 139z
m-1827 -891 c0 -35 41 -341 50 -373 24 -87 141 -159 237 -144 25 4 73 26 122
58 347 222 494 306 508 292 9 -8 -16 -122 -48 -222 -16 -51 -70 -172 -119
-270 -50 -99 -90 -186 -90 -194 0 -25 -72 -111 -122 -147 -118 -85 -334 -116
-462 -66 -125 49 -258 169 -296 268 -32 86 -33 232 -1 335 26 86 69 174 104
216 39 47 60 96 62 144 2 46 28 110 45 110 6 0 10 -3 10 -7z"/>
</g>
</svg>
