<?xml version="1.0" standalone="no"?>
<!DOCTYPE svg PUBLIC "-//W3C//DTD SVG 20010904//EN"
 "http://www.w3.org/TR/2001/REC-SVG-20010904/DTD/svg10.dtd">
<svg version="1.0" xmlns="http://www.w3.org/2000/svg"
 width="600.000000pt" height="600.000000pt" viewBox="0 0 600.000000 600.000000"
 preserveAspectRatio="xMidYMid meet">
<metadata>
Created by potrace 1.15, written by Peter Selinger 2001-2017
</metadata>
<g transform="translate(0.000000,600.000000) scale(0.100000,-0.100000)"
fill="#16364b" stroke="none">
<path d="M1545 5761 c-64 -28 -86 -95 -106 -321 -22 -260 6 -425 86 -505 76
-76 173 -82 269 -16 90 62 221 278 327 543 l41 102 -18 44 c-24 57 -71 85
-132 79 -63 -7 -94 -42 -138 -156 -45 -117 -124 -277 -153 -311 l-22 -25 6
121 c3 66 10 149 16 185 22 145 22 155 5 190 -9 19 -28 43 -43 53 -29 21 -107
31 -138 17z"/>
<path d="M3300 5492 c-44 -21 -74 -79 -65 -121 10 -46 40 -78 129 -135 98 -64
186 -133 186 -146 0 -6 -7 -10 -16 -10 -9 0 -31 -15 -50 -34 -26 -26 -34 -42
-34 -71 0 -130 193 -259 323 -216 107 36 155 149 110 263 -63 162 -253 354
-459 463 -56 30 -77 31 -124 7z"/>
<path d="M911 5488 c-78 -12 -171 -62 -235 -125 -186 -185 -170 -464 35 -613
72 -51 167 -37 209 33 40 64 21 136 -51 197 -44 37 -49 46 -49 81 0 53 32 113
77 144 42 28 71 31 136 13 38 -10 49 -9 83 8 47 23 84 75 84 119 0 101 -134
168 -289 143z"/>
<path d="M2978 5181 c-83 -27 -174 -128 -203 -224 -21 -72 -19 -159 5 -207 38
-75 127 -117 218 -104 66 9 184 60 215 92 35 37 50 104 46 204 -7 150 -78 239
-196 245 -32 1 -70 -2 -85 -6z"/>
<path d="M2273 5059 c-40 -25 -63 -83 -63 -159 0 -110 -27 -141 -186 -216
-126 -59 -144 -79 -144 -160 0 -39 5 -51 33 -79 53 -53 90 -54 203 -10 255
101 349 214 370 442 9 92 -11 152 -60 183 -43 26 -111 26 -153 -1z"/>
<path d="M4760 4817 c-30 -16 -52 -37 -68 -68 -22 -41 -24 -51 -18 -144 11
-185 63 -328 153 -419 132 -135 333 -134 423 2 57 86 54 177 -10 309 -57 117
-189 252 -299 306 -86 43 -122 46 -181 14z"/>
<path d="M2770 4144 c-71 -19 -128 -53 -174 -104 -44 -49 -56 -77 -56 -131 0
-81 62 -163 156 -206 123 -56 278 -54 464 6 190 62 242 104 242 196 0 85 -42
128 -178 185 -164 68 -328 88 -454 54z"/>
<path d="M1035 4061 c-90 -40 -118 -190 -49 -264 38 -42 78 -57 171 -68 99
-11 173 -28 173 -39 0 -14 -72 -71 -158 -128 -46 -30 -149 -85 -230 -123 -225
-106 -235 -112 -259 -148 -45 -67 -22 -171 47 -218 25 -17 47 -23 89 -23 47 0
76 9 185 60 71 33 130 60 132 60 2 0 4 -9 4 -20 0 -66 69 -124 145 -124 44 0
59 6 116 47 90 64 187 108 240 109 24 0 74 -3 111 -7 58 -7 72 -5 112 15 55
26 86 67 93 120 12 85 -24 129 -131 162 -62 19 -80 20 -158 12 -48 -5 -88 -6
-88 -3 0 4 9 18 20 32 68 86 85 221 41 312 -32 64 -93 124 -156 154 -116 54
-397 106 -450 82z"/>
<path d="M4235 3789 c-126 -18 -231 -95 -282 -206 -21 -46 -25 -66 -21 -131 6
-127 69 -226 180 -281 81 -41 177 -43 253 -7 138 65 259 276 260 453 0 67 -2
75 -30 103 -51 51 -235 86 -360 69z m35 -316 c0 -14 -34 -43 -52 -43 -25 0
-23 16 4 34 23 16 48 21 48 9z"/>
<path d="M3417 3410 c-69 -21 -127 -89 -198 -229 -43 -86 -48 -125 -23 -178
31 -63 92 -87 187 -72 94 15 154 60 208 154 35 61 53 142 44 196 -16 94 -123
157 -218 129z"/>
<path d="M5101 3370 c-128 -46 -250 -152 -300 -260 -72 -157 -11 -340 132
-395 159 -60 394 87 451 284 34 115 13 210 -66 296 -81 89 -131 106 -217 75z"/>
<path d="M2233 2866 c-96 -31 -168 -99 -215 -205 -100 -220 -103 -225 -177
-292 -40 -35 -82 -79 -94 -98 -11 -19 -41 -57 -66 -85 -96 -109 -227 -342
-276 -493 -68 -208 -49 -438 52 -625 38 -71 151 -188 234 -243 94 -63 281
-151 359 -170 157 -37 318 -26 505 32 197 62 303 144 431 334 184 274 297 610
296 884 0 339 -120 532 -377 603 -105 29 -137 53 -186 135 -97 164 -195 229
-354 234 -57 2 -105 -2 -132 -11z m167 -468 c19 -34 69 -96 110 -138 81 -82
80 -82 250 -117 56 -11 92 -24 106 -38 24 -25 44 -102 44 -174 0 -164 -114
-520 -214 -667 -77 -114 -197 -200 -313 -224 -71 -15 -232 -8 -298 13 -119 38
-245 140 -293 236 -24 50 -27 67 -27 156 0 79 5 115 24 170 54 157 111 244
280 423 146 155 193 219 247 337 21 46 41 85 44 85 3 -1 21 -28 40 -62z"/>
<path d="M942 2780 c-57 -35 -79 -127 -47 -190 9 -18 43 -45 85 -70 153 -89
243 -204 243 -310 0 -67 -19 -106 -74 -153 -91 -78 -153 -61 -238 65 -37 56
-58 69 -111 70 -102 1 -161 -97 -121 -203 62 -162 222 -272 373 -255 116 14
225 63 306 139 94 90 132 179 132 317 0 170 -71 306 -239 462 -151 139 -236
174 -309 128z"/>
<path d="M4112 2289 c-26 -13 -55 -39 -70 -62 -23 -35 -27 -51 -27 -114 0 -40
-1 -73 -1 -73 -1 0 -19 7 -40 16 -77 32 -183 -6 -217 -79 -23 -48 -21 -109 8
-256 13 -69 34 -175 45 -236 24 -126 45 -165 103 -200 59 -34 112 -40 167 -20
30 12 69 17 116 16 90 -3 142 18 193 75 76 87 87 202 41 467 -10 62 -26 164
-35 227 -19 139 -21 146 -52 188 -52 69 -150 91 -231 51z"/>
</g>
</svg>
