<?xml version="1.0" standalone="no"?>
<!DOCTYPE svg PUBLIC "-//W3C//DTD SVG 20010904//EN"
 "http://www.w3.org/TR/2001/REC-SVG-20010904/DTD/svg10.dtd">
<svg version="1.0" xmlns="http://www.w3.org/2000/svg"
 width="600.000000pt" height="600.000000pt" viewBox="0 0 600.000000 600.000000"
 preserveAspectRatio="xMidYMid meet">
<metadata>
Created by potrace 1.15, written by Peter Selinger 2001-2017
</metadata>
<g transform="translate(0.000000,600.000000) scale(0.100000,-0.100000)"
fill="#16364b" stroke="none">
<path d="M1583 5790 c-23 -12 -49 -33 -59 -48 -9 -14 -32 -100 -51 -191 -30
-144 -35 -186 -36 -316 -1 -131 2 -157 21 -209 44 -118 122 -181 223 -180 139
2 237 107 407 437 90 175 116 246 108 300 -17 110 -150 153 -225 73 -13 -14
-62 -105 -111 -204 -48 -99 -100 -201 -116 -227 l-28 -49 -8 30 c-12 45 8 238
38 364 26 104 26 115 13 153 -27 76 -102 104 -176 67z"/>
<path d="M3230 5517 c-13 -7 -35 -28 -48 -47 -26 -39 -26 -92 1 -133 8 -13 80
-66 158 -119 79 -53 162 -115 184 -137 38 -39 38 -41 15 -41 -58 0 -120 -70
-120 -135 0 -91 131 -187 254 -188 214 -1 283 202 141 418 -61 94 -164 187
-326 295 -131 87 -155 100 -192 100 -23 0 -53 -6 -67 -13z"/>
<path d="M900 5479 c-135 -22 -264 -123 -328 -256 -34 -72 -37 -84 -37 -168 1
-77 4 -97 27 -140 48 -93 184 -195 261 -195 111 0 167 117 103 215 -9 14 -34
36 -56 50 -21 14 -44 33 -50 44 -28 54 2 133 70 179 31 21 41 22 115 16 64 -5
88 -3 112 9 81 42 90 148 18 205 -47 37 -147 55 -235 41z"/>
<path d="M2943 5165 c-87 -37 -174 -178 -181 -292 -6 -94 4 -128 51 -177 34
-36 51 -45 91 -51 105 -16 282 47 320 113 28 51 27 210 -3 277 -54 121 -172
176 -278 130z"/>
<path d="M2269 4986 c-42 -29 -69 -87 -69 -149 0 -58 -20 -76 -161 -137 -62
-28 -122 -59 -132 -69 -38 -38 -37 -131 1 -175 49 -54 110 -58 219 -15 190 75
269 137 321 249 33 71 43 200 18 247 -38 74 -128 96 -197 49z"/>
<path d="M4775 4820 c-11 -4 -31 -20 -45 -35 -25 -26 -25 -29 -25 -188 1 -228
34 -342 126 -442 104 -113 248 -126 355 -32 72 63 89 105 89 217 0 86 -3 101
-31 160 -50 106 -170 212 -339 299 -60 31 -93 37 -130 21z"/>
<path d="M2797 4150 c-58 -15 -132 -56 -166 -92 -46 -49 -64 -105 -59 -182 6
-91 40 -139 132 -186 l69 -35 146 0 c163 0 241 16 375 79 103 48 121 71 121
154 0 95 -22 123 -139 177 -141 66 -216 86 -336 91 -58 2 -122 -1 -143 -6z"/>
<path d="M1025 4059 c-135 -79 -134 -258 2 -315 18 -8 56 -14 85 -14 58 0 167
-16 177 -26 10 -9 -146 -154 -249 -231 -52 -39 -147 -101 -210 -138 -168 -99
-190 -124 -190 -213 0 -88 62 -152 154 -160 51 -4 61 -1 160 52 l105 57 14
-34 c8 -18 29 -45 46 -60 61 -51 131 -45 213 17 61 47 164 108 224 134 69 29
122 36 172 23 87 -24 177 29 208 121 32 98 3 177 -82 218 -52 26 -83 24 -228
-9 -50 -12 -91 -21 -93 -21 -2 0 15 26 37 59 63 92 83 146 84 226 1 149 -90
243 -289 297 -86 24 -310 35 -340 17z"/>
<path d="M4240 3789 c-128 -22 -227 -96 -285 -212 -31 -61 -35 -79 -35 -146 0
-122 51 -206 160 -263 37 -19 60 -23 135 -23 82 0 97 3 157 33 81 40 155 117
197 205 34 72 71 203 71 250 0 37 -29 89 -62 111 -59 39 -239 63 -338 45z m37
-334 c-32 -28 -47 -32 -47 -10 0 17 27 34 55 34 18 0 17 -2 -8 -24z"/>
<path d="M3412 3399 c-55 -27 -102 -89 -158 -206 -51 -106 -56 -152 -21 -204
31 -46 67 -61 143 -60 69 1 125 19 160 52 55 51 100 221 84 310 -19 106 -115
155 -208 108z"/>
<path d="M5068 3336 c-88 -36 -139 -70 -195 -128 -76 -81 -105 -146 -111 -244
-4 -73 -1 -88 23 -143 49 -109 132 -158 253 -149 213 15 404 244 362 433 -14
63 -29 91 -89 162 -79 94 -140 111 -243 69z"/>
<path d="M1066 2857 c-71 -40 -98 -122 -61 -184 9 -16 45 -43 82 -63 76 -40
136 -97 165 -154 26 -51 35 -159 18 -212 -18 -59 -69 -129 -114 -159 -61 -40
-113 -32 -175 28 -56 54 -79 67 -123 67 -64 0 -123 -54 -135 -123 -12 -75 81
-192 194 -244 166 -76 336 -42 473 96 110 111 163 241 163 401 -1 181 -51 311
-165 424 -80 78 -197 146 -252 146 -17 0 -49 -10 -70 -23z"/>
<path d="M2218 2796 c-121 -26 -196 -99 -263 -258 -56 -134 -77 -166 -149
-236 -36 -35 -68 -74 -72 -85 -4 -12 -21 -40 -39 -62 -60 -75 -137 -196 -185
-293 -108 -217 -141 -417 -105 -628 30 -167 86 -266 234 -414 106 -106 184
-152 319 -189 168 -46 416 -52 552 -13 340 99 533 305 680 727 139 400 153
613 55 813 -43 86 -110 156 -186 195 -62 31 -171 57 -244 57 -77 0 -104 22
-142 116 -48 117 -111 190 -203 236 -87 43 -164 54 -252 34z m122 -437 c0 -6
16 -44 35 -85 37 -81 132 -191 188 -218 18 -8 95 -21 171 -30 89 -9 142 -20
148 -28 28 -45 37 -182 17 -280 -25 -125 -90 -300 -159 -428 -46 -85 -175
-215 -256 -257 -161 -85 -356 -82 -495 8 -82 54 -151 126 -186 196 -26 54 -28
66 -28 178 1 111 3 126 33 200 43 108 121 233 196 314 34 36 69 77 79 91 9 14
45 60 81 103 35 43 85 116 111 163 43 77 65 101 65 73z"/>
<path d="M4116 2343 c-39 -10 -93 -54 -116 -96 -20 -35 -24 -54 -22 -120 1
-71 -1 -78 -16 -71 -9 4 -42 10 -73 12 -71 5 -127 -21 -168 -79 -67 -92 -60
-197 36 -534 29 -102 57 -149 108 -184 64 -43 170 -41 226 6 26 22 40 26 79
24 76 -4 129 17 186 74 60 60 80 116 77 225 -1 99 -69 573 -89 627 -32 87
-135 140 -228 116z"/>
</g>
</svg>
