<?xml version="1.0" standalone="no"?>
<!DOCTYPE svg PUBLIC "-//W3C//DTD SVG 20010904//EN"
 "http://www.w3.org/TR/2001/REC-SVG-20010904/DTD/svg10.dtd">
<svg version="1.0" xmlns="http://www.w3.org/2000/svg"
 width="600.000000pt" height="600.000000pt" viewBox="0 0 600.000000 600.000000"
 preserveAspectRatio="xMidYMid meet">
<metadata>
Created by potrace 1.15, written by Peter Selinger 2001-2017
</metadata>
<g transform="translate(0.000000,600.000000) scale(0.100000,-0.100000)"
fill="#16364b" stroke="none">
<path d="M2243 5435 c-92 -40 -145 -271 -89 -390 58 -126 150 -155 380 -120
55 8 100 14 102 13 1 -2 -34 -59 -78 -128 -142 -220 -246 -466 -235 -558 4
-37 12 -53 41 -79 20 -19 50 -36 66 -40 17 -3 30 -8 30 -10 0 -3 -11 -18 -25
-35 -14 -16 -28 -40 -31 -54 -17 -67 32 -143 107 -165 42 -13 28 -17 378 87
46 13 163 40 260 59 203 41 223 47 256 87 68 81 23 214 -78 233 -34 7 -438
-82 -618 -136 -119 -35 -124 -35 -105 -6 8 12 38 80 67 150 28 71 93 199 142
285 132 229 159 290 165 371 5 81 -11 123 -68 175 -72 65 -182 80 -370 51 -52
-8 -96 -12 -98 -10 -2 2 1 12 7 23 6 12 11 43 11 71 0 39 -6 56 -27 82 -47 56
-123 74 -190 44z"/>
<path d="M3852 5139 c-82 -14 -197 -66 -231 -104 -56 -65 -50 -157 15 -215 45
-39 94 -40 172 -3 31 14 77 28 103 31 45 4 48 3 55 -22 14 -56 -14 -174 -83
-348 -51 -131 -52 -164 -6 -219 68 -80 204 -77 254 5 30 48 77 176 106 288 21
83 26 126 26 218 0 137 -22 207 -86 278 -50 53 -94 77 -172 91 -66 12 -78 12
-153 0z"/>
<path d="M1660 4924 c-134 -36 -420 -203 -467 -273 -44 -65 -27 -174 35 -217
11 -8 23 -27 27 -44 7 -33 38 -75 65 -90 10 -5 69 -17 132 -25 223 -31 362
-73 457 -138 87 -60 164 -62 225 -4 44 42 55 92 32 152 -37 96 -242 207 -480
260 -77 17 -78 18 -53 31 48 26 141 44 220 44 90 0 123 13 164 66 23 30 28 47
28 93 0 69 -29 115 -89 142 -51 23 -213 25 -296 3z"/>
<path d="M4505 4263 c-122 -10 -273 -36 -300 -53 -48 -30 -78 -92 -73 -149 6
-57 30 -94 78 -117 31 -15 47 -16 146 -6 193 21 294 14 316 -21 20 -32 0 -186
-49 -366 -31 -116 -28 -169 13 -212 59 -61 156 -59 212 5 17 19 33 43 36 53 2
10 22 86 43 168 33 133 37 164 38 275 0 147 -15 203 -77 281 -82 105 -219 155
-383 142z"/>
<path d="M2110 3899 c-118 -35 -298 -66 -452 -77 -103 -8 -120 -12 -151 -35
-91 -69 -89 -206 4 -261 30 -18 46 -18 216 -12 211 8 313 23 437 65 161 55
206 97 206 194 0 73 -56 136 -135 150 -18 3 -68 -6 -125 -24z"/>
<path d="M3690 3734 c-92 -25 -228 -82 -380 -161 -213 -110 -232 -128 -232
-214 0 -87 61 -152 144 -152 28 0 68 18 160 71 128 74 269 144 275 138 2 -2
-17 -55 -42 -117 -62 -152 -61 -224 2 -281 63 -58 145 -57 201 1 59 62 173
342 187 463 24 195 -114 306 -315 252z"/>
<path d="M2190 3255 c-170 -27 -171 -28 -214 -75 -32 -35 -36 -46 -36 -92 0
-64 28 -110 82 -134 30 -14 54 -16 120 -10 46 3 134 9 197 13 l114 6 -6 -41
c-4 -23 -10 -59 -13 -81 -13 -82 56 -161 150 -169 58 -5 95 9 135 51 33 36 61
146 61 242 0 67 -5 90 -28 140 -35 74 -92 126 -166 154 -74 28 -211 26 -396
-4z"/>
<path d="M4881 3174 c-58 -29 -105 -84 -121 -143 -5 -20 -7 -72 -4 -117 5 -53
3 -88 -5 -102 -6 -12 -58 -56 -114 -98 -240 -180 -307 -287 -338 -541 -10 -83
-9 -112 4 -186 39 -224 172 -366 319 -343 154 25 244 202 173 342 -35 70 -39
104 -20 170 19 67 41 90 182 195 147 109 210 182 254 294 20 52 23 77 23 195
1 168 -15 227 -75 287 -74 75 -183 94 -278 47z"/>
<path d="M4251 3165 c-19 -9 -64 -44 -101 -79 -78 -73 -201 -152 -307 -196
-77 -32 -234 -70 -293 -70 -43 0 -104 -39 -125 -80 -22 -43 -19 -111 8 -151
12 -19 42 -44 67 -57 39 -19 54 -22 110 -16 150 14 276 54 428 135 180 96 372
242 407 310 23 43 19 110 -7 149 -44 63 -117 85 -187 55z"/>
<path d="M1225 3016 c-71 -31 -123 -128 -109 -204 10 -55 28 -86 76 -127 l43
-36 -3 -234 c-4 -316 19 -461 101 -645 31 -69 58 -97 115 -122 78 -35 183 -5
238 68 38 49 44 132 16 195 -52 117 -61 178 -72 504 -11 347 -30 429 -118 527
-70 78 -201 111 -287 74z"/>
<path d="M2064 2581 c-97 -25 -218 -127 -333 -282 -78 -105 -90 -142 -66 -204
22 -58 76 -96 143 -102 68 -6 107 19 167 107 50 75 138 170 156 170 5 0 14
-12 20 -27 6 -16 23 -42 39 -58 l29 -30 -24 -67 c-40 -111 -65 -254 -65 -375
1 -132 14 -243 35 -283 40 -78 161 -107 225 -54 58 49 63 70 55 233 -8 169 0
227 52 382 42 122 40 159 -9 215 -27 30 -31 43 -29 80 5 92 -91 231 -190 273
-54 24 -156 35 -205 22z"/>
<path d="M3430 2233 c-239 -29 -646 -121 -701 -158 -66 -43 -98 -153 -68 -232
24 -63 95 -113 162 -113 19 0 101 14 183 30 217 45 560 100 613 100 41 -1 48
-5 66 -33 33 -51 80 -77 142 -77 67 0 110 18 155 64 123 126 35 338 -165 402
-51 17 -304 28 -387 17z"/>
<path d="M4529 1571 c-38 -12 -62 -26 -110 -67 -76 -64 -92 -67 -314 -69 -229
-2 -288 -12 -421 -74 -167 -79 -419 -268 -474 -355 -15 -26 -29 -35 -59 -40
-24 -4 -66 -26 -115 -62 -159 -116 -286 -124 -429 -25 -60 41 -169 151 -227
230 -80 108 -178 137 -281 83 -85 -44 -121 -139 -85 -225 16 -40 145 -196 229
-279 119 -116 234 -189 367 -230 63 -19 96 -23 210 -23 121 1 143 4 215 29
125 43 258 135 304 210 16 26 30 35 59 40 30 4 63 27 146 99 120 105 216 167
308 198 64 21 227 38 383 39 102 0 246 30 317 65 111 54 200 154 213 240 22
138 -106 255 -236 216z"/>
</g>
</svg>
