<?xml version="1.0" standalone="no"?>
<!DOCTYPE svg PUBLIC "-//W3C//DTD SVG 20010904//EN"
 "http://www.w3.org/TR/2001/REC-SVG-20010904/DTD/svg10.dtd">
<svg version="1.0" xmlns="http://www.w3.org/2000/svg"
 width="600.000000pt" height="600.000000pt" viewBox="0 0 600.000000 600.000000"
 preserveAspectRatio="xMidYMid meet">
<metadata>
Created by potrace 1.15, written by Peter Selinger 2001-2017
</metadata>
<g transform="translate(0.000000,600.000000) scale(0.100000,-0.100000)"
fill="#16364b" stroke="none">
<path d="M3525 5250 c-21 -41 -19 -54 17 -123 37 -69 117 -161 159 -182 46
-24 94 -19 118 11 24 31 25 36 10 87 -13 48 -120 190 -163 216 -21 13 -50 21
-79 21 -41 0 -48 -3 -62 -30z m155 -145 c14 -19 14 -19 -2 -6 -10 7 -18 18
-18 24 0 6 1 8 3 6 1 -2 9 -13 17 -24z"/>
<path d="M3053 5090 c-86 -19 -164 -137 -171 -260 -4 -60 -2 -69 23 -98 23
-28 33 -32 74 -32 51 0 74 12 139 74 107 101 127 250 41 297 -37 19 -73 26
-106 19z m57 -125 c0 -14 -9 -43 -19 -64 -20 -38 -83 -101 -101 -101 -33 0 18
144 61 174 35 24 59 21 59 -9z"/>
<path d="M4799 4755 c-41 -22 -50 -61 -57 -237 -8 -196 0 -328 23 -386 44
-108 167 -90 195 30 18 72 7 295 -20 436 -31 157 -67 197 -141 157z"/>
<path d="M2644 4201 c-96 -59 -84 -152 27 -211 111 -59 285 -86 380 -60 78 22
115 92 82 158 -15 32 -27 40 -83 59 -201 70 -349 89 -406 54z"/>
<path d="M5292 3999 c-107 -18 -192 -81 -234 -174 -45 -99 -22 -263 52 -370
89 -129 228 -155 381 -73 71 37 121 91 157 168 22 45 26 70 27 135 0 130 -40
204 -148 273 -70 45 -140 58 -235 41z m93 -320 c10 -10 -27 -49 -46 -49 -13 0
-31 40 -25 57 7 16 52 11 71 -8z"/>
<path d="M1365 3934 c-140 -51 -212 -253 -141 -397 32 -67 85 -116 168 -158
92 -46 114 -64 157 -127 57 -85 86 -170 116 -337 14 -82 37 -206 50 -275 36
-185 62 -380 70 -510 15 -270 39 -389 105 -522 84 -167 197 -291 323 -353 74
-36 171 -65 217 -65 49 0 41 -13 -32 -53 -183 -99 -258 -178 -258 -273 0 -41
5 -59 24 -81 48 -57 130 -64 413 -36 95 9 176 14 180 10 4 -4 -4 -15 -18 -24
-13 -9 -41 -33 -62 -54 -32 -32 -37 -43 -37 -84 0 -64 39 -105 100 -105 37 0
47 6 94 52 57 58 92 123 108 203 21 108 -47 185 -164 185 -29 0 -132 -11 -228
-25 -192 -27 -240 -30 -240 -15 0 23 136 108 306 191 209 103 178 98 470 69
109 -11 250 -23 312 -27 l112 -6 0 -33 c0 -49 49 -100 113 -119 28 -8 88 -15
134 -15 l83 0 0 -33 c0 -44 31 -73 95 -87 74 -17 137 2 192 56 37 38 43 49 43
86 -1 49 -19 76 -71 104 -28 15 -65 19 -221 24 -179 5 -238 13 -167 24 19 2
63 9 99 15 36 7 121 20 190 31 192 29 275 48 403 91 242 81 388 155 483 242
149 135 245 381 245 624 0 134 -20 211 -88 346 -118 231 -282 331 -548 331
-160 0 -272 -38 -360 -119 -146 -137 -486 -232 -733 -204 -256 29 -501 137
-652 288 -101 101 -174 197 -376 496 -207 306 -284 380 -539 515 -55 29 -128
70 -162 91 -117 73 -223 94 -308 63z m171 -260 c27 -15 99 -52 159 -83 231
-118 295 -178 469 -440 136 -203 207 -295 354 -459 219 -242 311 -301 588
-377 177 -49 281 -65 414 -65 304 0 579 91 768 253 132 113 358 99 470 -28 38
-44 98 -156 123 -230 22 -66 17 -228 -9 -310 -56 -181 -172 -301 -378 -394
-204 -91 -291 -111 -639 -145 -375 -36 -502 -40 -775 -21 -129 9 -320 20 -425
25 -253 11 -347 41 -444 138 -119 120 -165 269 -195 632 -9 112 -29 247 -55
375 -22 110 -52 272 -66 360 -32 199 -57 301 -96 378 -62 126 -130 196 -271
278 -77 45 -113 90 -97 121 14 25 47 23 105 -8z"/>
<path d="M2372 2464 c-32 -22 -30 -76 4 -103 36 -28 58 -26 83 5 27 35 26 59
-4 89 -28 29 -51 31 -83 9z"/>
<path d="M2820 2047 c-36 -18 -48 -59 -27 -91 20 -29 62 -44 86 -29 24 15 42
59 36 86 -4 14 -18 30 -31 36 -31 14 -33 14 -64 -2z"/>
<path d="M4204 3736 c-121 -38 -209 -149 -221 -278 -8 -80 15 -135 79 -193
149 -134 384 -83 475 103 24 49 28 68 27 137 -1 48 -7 95 -16 116 -42 97 -215
155 -344 115z m106 -256 c0 -23 -37 -47 -52 -32 -7 7 -3 17 11 31 26 26 41 27
41 1z"/>
<path d="M3448 3311 c-18 -22 -62 -92 -97 -156 -56 -102 -62 -119 -53 -140 6
-14 23 -27 37 -31 22 -5 34 0 66 32 54 52 137 182 155 240 12 42 12 50 -1 71
-25 37 -67 31 -107 -16z"/>
<path d="M462 2018 c-7 -7 -12 -24 -12 -38 0 -51 224 -209 297 -210 64 0 84
62 35 108 -43 40 -250 152 -281 152 -15 0 -32 -5 -39 -12z"/>
<path d="M5343 1108 c-54 -27 -91 -175 -59 -236 20 -39 44 -52 96 -52 77 0
127 85 118 198 -3 36 -11 60 -25 74 -24 24 -97 33 -130 16z"/>
</g>
</svg>
