<?xml version="1.0" standalone="no"?>
<!DOCTYPE svg PUBLIC "-//W3C//DTD SVG 20010904//EN"
 "http://www.w3.org/TR/2001/REC-SVG-20010904/DTD/svg10.dtd">
<svg version="1.0" xmlns="http://www.w3.org/2000/svg"
 width="600.000000pt" height="600.000000pt" viewBox="0 0 600.000000 600.000000"
 preserveAspectRatio="xMidYMid meet">
<metadata>
Created by potrace 1.15, written by Peter Selinger 2001-2017
</metadata>
<g transform="translate(0.000000,600.000000) scale(0.100000,-0.100000)"
fill="#16364b" stroke="none">
<path d="M2832 5569 c-64 -32 -165 -190 -193 -302 -30 -122 27 -259 135 -321
78 -46 179 -54 355 -29 l44 6 -197 -193 c-222 -218 -359 -370 -382 -425 -9
-22 -13 -49 -9 -65 7 -32 58 -102 92 -125 13 -9 155 -39 329 -71 168 -30 355
-66 414 -80 118 -27 160 -24 208 15 24 21 52 79 52 108 0 33 -42 102 -73 122
-56 34 -267 79 -529 113 -49 6 -88 14 -88 17 0 7 169 174 305 301 264 246 278
265 278 361 0 68 -26 117 -86 160 -69 50 -120 59 -334 59 -129 0 -193 4 -193
11 0 5 19 46 41 90 37 72 41 86 37 135 -4 47 -10 61 -40 91 -47 46 -104 54
-166 22z"/>
<path d="M1519 5218 c-164 -84 -428 -374 -525 -575 -67 -138 -58 -218 30 -272
54 -34 90 -35 226 -7 145 29 277 46 314 39 31 -6 33 0 -40 -220 -58 -173 -63
-207 -38 -254 8 -17 14 -33 11 -35 -2 -2 -28 -17 -58 -32 -119 -60 -130 -201
-20 -265 52 -31 103 -25 285 37 290 98 424 154 452 191 63 83 28 186 -81 236
-61 28 -100 23 -205 -25 -52 -24 -97 -43 -98 -41 -2 2 19 73 48 157 84 248 81
367 -10 459 -68 68 -135 91 -287 97 -68 2 -123 8 -123 12 0 9 115 118 163 155
21 15 70 45 110 65 58 30 76 45 94 80 13 24 23 59 23 79 0 53 -38 121 -80 143
-55 29 -99 23 -191 -24z"/>
<path d="M4385 4601 c-94 -25 -133 -40 -245 -96 -137 -68 -170 -104 -170 -187
0 -78 59 -138 136 -138 15 0 79 24 143 53 142 66 209 92 218 84 10 -10 -131
-291 -228 -452 -120 -203 -120 -226 0 -330 34 -30 72 -57 84 -60 24 -5 248
-37 397 -55 52 -7 105 -16 117 -21 28 -11 35 6 -111 -289 -126 -256 -133 -282
-95 -350 50 -89 175 -106 241 -33 46 50 237 480 269 602 23 89 23 112 4 177
-27 92 -114 167 -227 194 -24 6 -121 17 -216 24 -95 8 -176 16 -178 19 -3 3
35 83 85 178 184 356 212 500 119 613 -68 83 -189 106 -343 67z"/>
<path d="M3764 3670 c-134 -27 -231 -119 -250 -237 -14 -92 74 -185 161 -169
40 8 90 47 111 87 8 17 23 29 34 29 28 0 26 -52 -4 -138 -51 -144 -58 -154
-135 -190 -96 -46 -200 -134 -230 -196 -22 -45 -23 -52 -12 -95 19 -72 76
-121 141 -121 40 0 63 13 124 67 65 58 150 96 275 124 144 32 197 72 208 157
7 52 -18 124 -54 152 l-25 20 17 77 c22 98 17 203 -13 264 -61 125 -209 197
-348 169z"/>
<path d="M2620 3542 c-64 -5 -234 -42 -331 -71 -205 -62 -244 -92 -244 -191 0
-64 26 -110 78 -137 48 -24 97 -19 189 20 97 42 233 77 301 77 45 0 47 -1 47
-27 0 -51 -38 -153 -129 -348 -55 -117 -63 -163 -35 -221 41 -86 180 -101 245
-28 32 37 228 440 243 500 64 253 -104 449 -364 426z"/>
<path d="M1130 3275 c-111 -31 -257 -132 -290 -199 -44 -91 -14 -186 74 -241
44 -27 58 -30 123 -29 l73 1 -6 -41 c-4 -23 -17 -104 -29 -181 -46 -277 -61
-484 -45 -621 14 -116 35 -161 94 -201 36 -23 50 -27 113 -26 73 2 125 20 150
52 7 9 56 88 110 176 154 256 241 381 326 471 43 46 82 84 86 84 15 0 41 -90
41 -145 0 -83 -17 -257 -36 -362 -32 -180 -54 -331 -60 -414 -8 -102 8 -147
65 -185 57 -37 116 -41 176 -10 27 14 50 24 50 23 1 -1 10 -82 19 -181 29
-293 88 -486 192 -633 129 -182 309 -229 511 -132 36 17 82 46 102 64 20 18
50 39 66 48 48 24 67 52 158 229 108 212 157 286 221 336 43 33 75 28 157 -28
41 -27 105 -71 142 -96 126 -85 247 -106 360 -64 67 25 158 106 185 164 12 24
34 54 51 65 41 29 81 114 81 171 0 26 -14 89 -31 141 -16 52 -33 123 -36 160
l-6 65 39 12 c22 6 98 16 169 23 290 25 444 104 520 264 49 104 52 285 6 359
-120 193 -420 126 -439 -98 l-4 -53 -82 -7 c-44 -3 -110 -6 -146 -6 -88 0
-234 -32 -300 -65 -100 -49 -151 -114 -196 -245 -30 -86 -25 -321 8 -452 14
-54 23 -98 21 -98 -2 0 -45 27 -95 60 -152 100 -278 133 -407 106 -87 -18
-128 -36 -211 -91 -135 -90 -261 -254 -411 -535 -28 -52 -101 -99 -125 -80
-19 16 -69 142 -93 235 -12 44 -30 149 -41 233 -23 175 -33 205 -83 249 -71
63 -170 67 -234 9 l-36 -31 7 74 c3 41 21 172 38 290 29 195 32 239 32 456 1
216 -2 249 -22 328 -27 109 -51 157 -98 195 -105 87 -229 58 -417 -95 -71 -58
-166 -161 -226 -246 -19 -26 -36 -45 -38 -43 -2 2 8 66 24 142 22 113 27 167
28 289 0 162 -10 202 -71 282 -61 80 -184 111 -304 78z"/>
<path d="M3061 2648 c-185 -23 -485 -120 -544 -175 -95 -89 -88 -252 13 -319
65 -43 108 -42 240 6 123 43 274 85 354 96 l49 7 -7 -29 c-4 -16 -23 -69 -42
-117 -43 -108 -49 -141 -34 -195 12 -47 67 -115 111 -138 43 -22 127 -18 171
9 51 31 70 59 111 162 58 147 71 208 71 330 1 94 -3 119 -24 174 -66 167 -204
222 -469 189z"/>
</g>
</svg>
