<?xml version="1.0" standalone="no"?>
<!DOCTYPE svg PUBLIC "-//W3C//DTD SVG 20010904//EN"
 "http://www.w3.org/TR/2001/REC-SVG-20010904/DTD/svg10.dtd">
<svg version="1.0" xmlns="http://www.w3.org/2000/svg"
 width="600.000000pt" height="600.000000pt" viewBox="0 0 600.000000 600.000000"
 preserveAspectRatio="xMidYMid meet">
<metadata>
Created by potrace 1.15, written by Peter Selinger 2001-2017
</metadata>
<g transform="translate(0.000000,600.000000) scale(0.100000,-0.100000)"
fill="#16364b" stroke="none">
<path d="M2350 5468 c-36 -18 -52 -36 -77 -83 -120 -223 -106 -401 38 -480 49
-27 63 -30 139 -29 58 1 128 11 218 33 73 17 138 31 143 31 5 0 -17 -39 -50
-87 -32 -49 -99 -155 -148 -238 -50 -82 -114 -188 -143 -235 -98 -159 -125
-219 -122 -278 2 -62 20 -100 62 -136 55 -46 67 -46 355 -2 98 15 270 31 407
39 l238 13 31 29 c45 43 62 82 56 126 -7 53 -39 94 -89 113 -88 36 -340 31
-582 -10 -48 -8 -90 -13 -93 -10 -8 7 143 254 215 353 37 50 97 128 135 174
81 101 107 150 114 222 10 100 -35 176 -129 218 -45 19 -69 23 -163 22 -90 -1
-135 -7 -250 -36 -77 -19 -141 -34 -143 -32 -1 1 10 28 24 59 44 97 23 175
-62 223 -49 28 -69 29 -124 1z"/>
<path d="M1652 5026 c-163 -53 -449 -259 -531 -383 -40 -60 -42 -127 -7 -188
32 -54 70 -69 221 -90 138 -18 251 -47 315 -81 54 -28 76 -47 113 -97 35 -47
74 -67 129 -67 58 0 104 30 128 83 26 57 25 74 -10 145 -45 89 -146 180 -263
237 -51 25 -100 45 -109 45 -37 0 -25 20 26 44 52 25 102 38 187 51 133 20
162 212 46 296 -35 25 -49 29 -106 29 -41 -1 -94 -10 -139 -24z"/>
<path d="M4085 4834 c-167 -42 -366 -149 -400 -214 -51 -99 24 -230 132 -230
37 0 56 8 107 45 84 59 183 105 229 105 l37 0 0 -59 c0 -72 -35 -198 -97 -346
-75 -182 -76 -186 -64 -225 16 -52 71 -131 110 -157 45 -30 83 -29 232 6 179
43 305 63 379 59 l65 -3 -2 -62 c-2 -80 -39 -215 -108 -387 -35 -89 -55 -154
-55 -180 0 -83 67 -146 153 -146 57 0 98 19 124 57 25 37 148 407 169 508 23
113 23 237 0 305 -26 74 -101 149 -181 180 -81 31 -226 31 -389 1 -65 -12
-120 -20 -122 -18 -2 1 10 45 27 97 44 143 62 251 57 355 -7 140 -58 229 -162
282 -41 22 -67 27 -136 29 -47 2 -94 1 -105 -2z"/>
<path d="M2010 3943 c-114 -41 -291 -87 -398 -103 -123 -19 -182 -69 -182
-158 0 -92 56 -142 161 -142 192 0 565 96 672 172 39 28 71 100 63 143 -14 72
-89 126 -173 124 -27 -1 -90 -17 -143 -36z"/>
<path d="M3785 3723 c-94 -13 -206 -69 -470 -231 -157 -97 -187 -145 -147
-236 44 -98 137 -112 255 -38 92 58 317 175 324 169 13 -13 -81 -257 -174
-449 -53 -113 -66 -149 -70 -200 -6 -80 17 -120 84 -150 54 -24 137 -20 250
12 191 55 453 231 535 359 70 110 1 251 -122 251 -55 0 -87 -20 -135 -83 -34
-44 -183 -173 -191 -164 -2 1 24 71 56 154 123 309 132 453 34 545 -51 48
-147 74 -229 61z"/>
<path d="M2370 3375 c-72 -14 -291 -80 -320 -95 -31 -17 -69 -69 -76 -105 -10
-55 4 -102 40 -139 50 -50 76 -51 273 -10 96 19 187 34 201 32 23 -3 27 -7 24
-33 -1 -16 -16 -71 -33 -121 -27 -80 -29 -95 -20 -132 24 -88 114 -146 189
-124 61 18 88 57 134 188 40 113 43 125 43 234 0 99 -3 121 -22 155 -72 135
-233 190 -433 150z"/>
<path d="M1172 3099 c-80 -26 -134 -76 -151 -143 -27 -107 27 -207 128 -237
l39 -11 5 -312 c8 -503 46 -655 179 -711 151 -62 311 86 253 236 -5 12 3 15
42 15 81 1 104 20 173 146 76 139 139 234 179 272 l30 29 11 -28 c16 -41 -23
-404 -55 -520 -14 -49 -25 -110 -25 -135 0 -87 59 -142 152 -142 61 1 106 28
135 79 36 66 71 231 98 458 23 190 25 230 16 295 -20 133 -89 235 -197 290
-41 21 -63 25 -134 25 -75 0 -90 -3 -133 -28 -91 -53 -171 -150 -314 -373 -9
-15 -12 26 -12 196 -2 329 -25 433 -121 532 -84 86 -173 107 -298 67z"/>
<path d="M4881 2976 c-50 -18 -106 -70 -131 -120 -17 -35 -21 -60 -19 -120 1
-42 0 -78 -2 -80 -2 -2 -69 -36 -149 -75 -80 -40 -170 -91 -201 -113 -254
-188 -281 -625 -56 -890 l56 -66 -27 -7 c-15 -3 -54 -27 -87 -53 -70 -55 -88
-57 -265 -27 -146 24 -296 17 -405 -19 -136 -47 -224 -106 -374 -253 -73 -73
-138 -133 -143 -133 -5 0 -42 -31 -82 -69 -112 -106 -174 -123 -274 -76 -95
44 -223 188 -295 330 -49 97 -106 135 -205 135 -81 0 -140 -39 -172 -112 -28
-66 -23 -113 26 -210 88 -175 188 -294 345 -413 240 -181 411 -208 623 -100
70 36 165 105 200 144 11 12 38 30 61 40 28 12 62 43 103 93 84 104 189 198
263 237 79 43 147 49 310 28 68 -9 144 -18 168 -21 160 -17 373 96 432 228 24
56 22 127 -6 170 l-17 25 46 12 c59 15 138 84 161 141 19 47 22 139 6 181 -6
15 -30 49 -54 75 -59 63 -67 81 -67 145 0 65 -2 63 147 151 221 130 322 236
374 388 17 53 20 80 17 168 -5 120 -22 165 -84 220 -67 59 -144 75 -223 46z"/>
<path d="M3365 2370 c-118 -17 -643 -143 -683 -164 -118 -61 -123 -247 -9
-339 62 -51 108 -48 337 18 163 47 384 95 435 95 7 0 15 -19 19 -46 14 -107
86 -176 190 -182 110 -6 175 52 202 178 42 199 -31 359 -190 419 -68 25 -207
35 -301 21z"/>
</g>
</svg>
