<?xml version="1.0" standalone="no"?>
<!DOCTYPE svg PUBLIC "-//W3C//DTD SVG 20010904//EN"
 "http://www.w3.org/TR/2001/REC-SVG-20010904/DTD/svg10.dtd">
<svg version="1.0" xmlns="http://www.w3.org/2000/svg"
 width="600.000000pt" height="600.000000pt" viewBox="0 0 600.000000 600.000000"
 preserveAspectRatio="xMidYMid meet">
<metadata>
Created by potrace 1.15, written by Peter Selinger 2001-2017
</metadata>
<g transform="translate(0.000000,600.000000) scale(0.100000,-0.100000)"
fill="#16364b" stroke="none">
<path d="M1544 5764 c-22 -8 -40 -14 -40 -14 -1 0 -9 -11 -18 -25 -52 -79 -68
-413 -28 -575 53 -216 112 -290 230 -290 115 0 201 81 319 300 79 146 163 357
163 408 0 47 -31 94 -76 114 -37 16 -50 17 -88 7 -59 -15 -89 -49 -121 -136
-38 -107 -117 -281 -150 -333 l-29 -45 -8 50 c-10 58 -5 155 18 316 15 108 15
118 0 150 -32 66 -104 96 -172 73z"/>
<path d="M3271 5513 c-50 -26 -76 -66 -76 -118 0 -57 21 -79 150 -154 56 -33
127 -83 159 -112 l57 -52 -33 -14 c-45 -19 -65 -40 -79 -80 -17 -53 -3 -99 44
-147 135 -134 335 -130 398 8 35 77 20 154 -54 278 -79 132 -207 253 -370 352
-92 55 -145 66 -196 39z"/>
<path d="M896 5498 c-128 -17 -248 -105 -310 -229 -104 -208 -57 -405 123
-525 35 -23 48 -26 98 -22 49 4 60 9 90 41 27 30 33 45 33 82 0 54 -19 87 -67
116 -65 40 -76 112 -30 188 39 64 103 85 188 60 32 -10 46 -9 85 6 54 21 84
62 84 118 0 118 -123 187 -294 165z"/>
<path d="M2932 5154 c-151 -75 -224 -300 -138 -426 64 -96 222 -106 386 -25
66 33 85 71 83 177 -2 139 -47 230 -136 275 -67 33 -127 33 -195 -1z"/>
<path d="M2312 5043 c-33 -7 -88 -66 -96 -103 -3 -18 -6 -57 -6 -88 0 -51 -3
-58 -38 -91 -25 -24 -72 -50 -138 -76 -124 -49 -164 -84 -164 -145 0 -23 7
-55 17 -70 20 -35 81 -70 122 -70 41 0 233 73 293 111 68 44 133 121 159 187
26 68 37 203 20 254 -23 69 -94 107 -169 91z"/>
<path d="M4775 4811 c-92 -41 -116 -109 -97 -272 37 -311 186 -490 388 -464
184 23 273 238 178 432 -47 98 -181 220 -318 293 -67 35 -95 37 -151 11z"/>
<path d="M2818 4154 c-288 -69 -345 -345 -96 -460 59 -27 71 -29 188 -29 150
0 213 15 350 83 102 50 134 83 146 149 9 47 -10 106 -45 140 -33 33 -190 94
-303 117 -92 19 -163 19 -240 0z"/>
<path d="M1025 4066 c-94 -41 -124 -168 -58 -246 37 -44 72 -59 176 -75 120
-19 152 -28 152 -46 0 -7 -34 -39 -75 -70 -73 -54 -357 -238 -452 -293 -90
-52 -129 -120 -114 -199 10 -50 42 -94 85 -117 67 -34 104 -27 221 40 58 33
110 60 115 60 6 0 18 -18 28 -40 24 -52 68 -82 128 -88 65 -6 85 0 149 48 121
92 292 154 351 129 39 -16 115 -3 160 26 44 28 69 78 69 137 0 63 -29 104 -96
135 -59 27 -71 27 -252 7 l-54 -7 40 53 c54 72 76 143 70 231 -12 166 -140
261 -414 309 -135 23 -187 25 -229 6z"/>
<path d="M4193 3775 c-108 -29 -178 -80 -235 -168 -31 -49 -33 -57 -33 -142 0
-109 23 -163 98 -231 63 -57 128 -78 222 -72 93 6 153 35 225 107 67 68 104
135 130 237 34 130 21 197 -46 240 -62 41 -258 57 -361 29z m67 -294 c-10 -20
-47 -37 -57 -28 -8 9 7 28 31 37 33 13 38 12 26 -9z"/>
<path d="M3382 3399 c-53 -27 -101 -88 -155 -199 -52 -107 -59 -170 -25 -220
45 -68 101 -80 222 -49 51 14 126 85 159 151 33 67 49 163 35 215 -28 103
-137 151 -236 102z"/>
<path d="M5045 3342 c-99 -52 -205 -160 -235 -238 -56 -149 13 -340 146 -405
96 -46 230 -14 320 76 84 84 121 183 112 299 -6 75 -34 142 -91 215 -79 103
-136 115 -252 53z"/>
<path d="M2179 2826 c-105 -43 -148 -92 -216 -249 -61 -140 -85 -179 -143
-228 -28 -23 -63 -63 -79 -88 -15 -25 -45 -64 -65 -86 -54 -59 -138 -188 -190
-291 -52 -105 -89 -224 -107 -344 -14 -98 -7 -280 14 -357 57 -204 193 -344
469 -482 205 -103 328 -122 524 -82 309 64 484 176 636 406 206 311 288 583
275 902 -15 348 -127 493 -412 532 -119 16 -139 30 -187 131 -58 120 -146 207
-241 238 -93 30 -202 30 -278 -2z m312 -634 c72 -76 98 -88 215 -102 168 -20
161 -17 179 -63 43 -106 26 -287 -45 -487 -94 -263 -180 -388 -323 -474 -105
-63 -279 -84 -411 -50 -139 36 -287 138 -331 229 -27 56 -32 181 -10 265 43
166 115 298 235 426 190 205 256 295 316 433 l27 62 44 -88 c29 -59 63 -109
104 -151z"/>
<path d="M1013 2810 c-45 -27 -66 -64 -66 -115 0 -48 32 -107 68 -123 52 -24
148 -107 180 -155 72 -108 65 -239 -17 -332 -47 -54 -84 -75 -130 -75 -27 0
-43 11 -93 64 -69 73 -90 86 -140 86 -103 0 -155 -102 -104 -202 30 -58 116
-141 180 -173 171 -87 422 7 544 204 83 134 97 319 36 482 -48 129 -173 263
-304 329 -70 35 -109 38 -154 10z"/>
<path d="M4120 2328 c-25 -14 -58 -44 -75 -67 -26 -38 -30 -53 -33 -126 l-4
-83 -31 9 c-86 24 -187 -11 -234 -82 -24 -37 -28 -52 -27 -108 2 -89 97 -492
129 -548 47 -79 172 -108 243 -56 21 16 43 20 97 20 86 0 146 24 192 76 65 74
75 171 48 468 -31 348 -36 384 -54 418 -47 92 -160 127 -251 79z"/>
</g>
</svg>
