<?xml version="1.0" standalone="no"?>
<!DOCTYPE svg PUBLIC "-//W3C//DTD SVG 20010904//EN"
 "http://www.w3.org/TR/2001/REC-SVG-20010904/DTD/svg10.dtd">
<svg version="1.0" xmlns="http://www.w3.org/2000/svg"
 width="600.000000pt" height="600.000000pt" viewBox="0 0 600.000000 600.000000"
 preserveAspectRatio="xMidYMid meet">
<metadata>
Created by potrace 1.15, written by Peter Selinger 2001-2017
</metadata>
<g transform="translate(0.000000,600.000000) scale(0.100000,-0.100000)"
fill="#16364b" stroke="none">
<path d="M2140 5833 c-28 -11 -59 -40 -98 -89 -21 -27 -128 -142 -237 -254
-225 -233 -305 -329 -330 -394 -24 -63 -17 -134 20 -182 77 -101 233 -99 484
8 147 62 490 238 526 270 44 38 58 77 53 143 -5 61 -25 90 -75 111 -59 25 -88
17 -247 -66 -84 -44 -157 -80 -162 -80 -4 0 21 30 57 68 70 72 165 181 192
222 11 16 17 45 17 81 0 61 -22 105 -71 142 -27 20 -102 32 -129 20z"/>
<path d="M3050 5667 c-59 -30 -85 -112 -56 -180 21 -50 45 -65 173 -108 145
-49 232 -97 298 -163 61 -61 93 -126 101 -205 9 -85 -1 -122 -47 -175 -39 -44
-80 -68 -252 -145 -59 -26 -87 -69 -87 -134 0 -91 56 -152 139 -150 89 2 294
117 393 220 102 108 138 199 138 348 0 111 -18 185 -70 292 -84 171 -248 290
-517 377 -119 38 -172 44 -213 23z"/>
<path d="M975 5346 c-100 -33 -147 -62 -227 -142 -224 -222 -166 -617 113
-768 95 -52 190 -30 234 54 36 69 11 132 -81 208 -161 133 -135 296 59 367 54
20 92 59 106 110 20 73 -26 155 -98 175 -45 12 -56 12 -106 -4z"/>
<path d="M2751 4979 c-94 -18 -173 -88 -213 -189 -18 -45 -22 -75 -22 -170 0
-103 2 -121 26 -172 31 -67 91 -128 156 -158 61 -29 207 -55 255 -46 78 15
136 98 122 174 -15 83 -76 134 -175 147 -25 3 -60 14 -78 25 -26 16 -32 26
-32 53 0 44 15 57 67 57 111 0 174 98 127 196 -31 65 -134 102 -233 83z"/>
<path d="M4795 4950 c-45 -14 -113 -86 -121 -128 -10 -52 4 -223 26 -307 26
-103 66 -181 117 -233 141 -141 379 -131 466 20 117 203 -5 459 -284 596 -111
55 -156 66 -204 52z"/>
<path d="M1872 4530 c-147 -31 -285 -162 -268 -254 15 -76 85 -135 164 -136
36 0 100 29 122 55 19 23 65 45 94 45 16 0 35 -12 54 -35 34 -42 94 -75 136
-75 16 0 49 9 72 21 55 26 89 90 81 150 -11 80 -96 166 -207 209 -62 24 -183
34 -248 20z"/>
<path d="M2823 3889 c-32 -16 -48 -33 -68 -72 -29 -59 -31 -84 -9 -135 27 -65
-7 -264 -80 -466 -20 -54 -36 -114 -36 -133 0 -85 84 -163 177 -163 72 0 114
36 142 123 73 224 111 421 111 578 0 178 -33 254 -121 279 -49 14 -69 13 -116
-11z"/>
<path d="M1134 3825 c-117 -35 -211 -71 -246 -96 -63 -45 -86 -154 -49 -234
36 -80 111 -120 212 -113 32 2 59 4 59 3 0 -1 -41 -67 -90 -146 -143 -229
-340 -631 -375 -767 -18 -68 -1 -133 47 -179 47 -44 70 -53 132 -53 91 0 87
-3 357 250 80 75 230 205 334 289 105 85 198 161 209 170 18 15 18 14 12 -44
-10 -84 -29 -155 -91 -345 -29 -91 -75 -232 -101 -315 -30 -94 -73 -200 -116
-286 -74 -148 -80 -177 -49 -245 38 -84 150 -121 226 -74 65 40 140 221 366
879 51 150 92 328 97 419 4 85 -12 220 -34 285 -24 71 -76 124 -140 143 -95
27 -165 -4 -324 -145 -111 -99 -240 -204 -240 -195 0 4 29 50 64 103 182 270
229 440 161 577 -33 65 -91 117 -153 134 -64 17 -180 11 -268 -15z"/>
<path d="M4305 3796 c-166 -28 -259 -68 -323 -141 -55 -63 -76 -128 -70 -219
8 -117 68 -215 168 -274 40 -24 55 -27 135 -27 115 0 164 22 257 116 53 54 78
90 117 171 90 186 105 248 74 308 -29 55 -68 71 -181 76 -53 2 -133 -3 -177
-10z m-53 -337 c-30 -27 -52 -31 -52 -9 0 12 50 39 70 39 9 0 2 -11 -18 -30z"/>
<path d="M3486 3380 c-89 -27 -165 -123 -212 -267 -48 -151 -37 -214 47 -271
32 -22 41 -24 134 -19 133 6 203 32 270 101 107 109 113 268 13 381 -23 26
-60 56 -83 66 -42 20 -120 23 -169 9z"/>
<path d="M4883 2871 c-48 -30 -188 -197 -228 -271 -68 -131 -81 -250 -36 -338
72 -142 273 -133 421 18 93 95 147 239 137 372 -5 83 -26 121 -100 187 -53 48
-61 51 -110 51 -34 0 -63 -7 -84 -19z"/>
<path d="M4147 2496 c-97 -27 -167 -115 -167 -210 0 -28 13 -98 29 -156 17
-57 28 -106 27 -108 -2 -1 -45 12 -97 29 -126 43 -239 46 -312 9 -99 -50 -164
-151 -174 -271 -6 -76 3 -139 57 -374 56 -240 64 -266 110 -318 94 -106 221
-117 324 -27 86 76 100 154 58 323 -33 134 -31 137 54 72 83 -63 164 -74 276
-36 169 56 245 209 218 435 -11 95 -92 446 -114 500 -44 105 -173 164 -289
132z"/>
<path d="M2880 2240 c-44 -12 -175 -70 -315 -139 l-240 -119 -25 23 c-54 52
-139 68 -224 43 -29 -8 -62 -33 -112 -82 -86 -87 -114 -141 -114 -221 0 -112
63 -187 160 -191 l45 -2 12 -58 c7 -33 12 -62 13 -66 0 -4 -21 -16 -47 -28
-168 -74 -273 -236 -273 -419 0 -98 20 -175 70 -277 131 -262 409 -458 702
-495 166 -21 361 40 545 170 79 56 118 109 129 179 13 85 -49 179 -133 202
-61 16 -111 -1 -216 -71 -86 -58 -163 -89 -219 -89 -54 0 -173 32 -228 61 -92
49 -147 95 -191 160 -49 73 -70 134 -62 183 10 66 60 54 159 -35 85 -78 158
-102 241 -80 84 23 133 86 133 171 0 64 -18 99 -89 176 -32 33 -69 86 -84 117
-23 49 -87 245 -87 267 0 4 12 10 28 13 15 3 119 50 232 104 231 112 268 128
276 120 5 -5 -35 -146 -82 -287 -14 -41 -52 -130 -85 -196 -65 -134 -71 -171
-40 -239 50 -111 179 -146 289 -79 41 26 54 42 99 132 59 117 135 341 188 556
32 129 37 160 32 226 -8 121 -63 207 -163 256 -77 37 -215 43 -324 14z"/>
</g>
</svg>
