<?xml version="1.0" standalone="no"?>
<!DOCTYPE svg PUBLIC "-//W3C//DTD SVG 20010904//EN"
 "http://www.w3.org/TR/2001/REC-SVG-20010904/DTD/svg10.dtd">
<svg version="1.0" xmlns="http://www.w3.org/2000/svg"
 width="600.000000pt" height="600.000000pt" viewBox="0 0 600.000000 600.000000"
 preserveAspectRatio="xMidYMid meet">
<metadata>
Created by potrace 1.15, written by Peter Selinger 2001-2017
</metadata>
<g transform="translate(0.000000,600.000000) scale(0.100000,-0.100000)"
fill="#16364b" stroke="none">
<path d="M1541 5773 c-35 -32 -249 -371 -268 -423 -48 -135 53 -226 196 -175
66 23 376 232 441 297 53 53 35 149 -34 182 -47 22 -73 14 -149 -45 -34 -26
-63 -46 -66 -44 -2 2 8 24 23 49 17 29 26 59 26 86 0 90 -103 134 -169 73z"/>
<path d="M2333 5425 l-36 -36 7 -167 c7 -181 -2 -280 -36 -390 -49 -158 -114
-245 -223 -296 -33 -16 -70 -37 -82 -48 -50 -46 -34 -131 32 -162 45 -22 70
-18 159 24 138 65 202 141 285 335 70 162 91 263 90 424 0 75 -4 171 -8 215
-6 71 -10 81 -39 107 -48 43 -102 41 -149 -6z"/>
<path d="M3508 5325 c-29 -16 -68 -88 -68 -127 0 -43 61 -150 116 -204 119
-116 257 -135 314 -42 37 61 24 133 -41 230 -52 77 -102 115 -180 138 -78 23
-105 24 -141 5z"/>
<path d="M2975 5136 c-45 -20 -93 -74 -125 -141 -70 -147 -37 -263 86 -302 53
-16 59 -16 122 0 134 35 174 85 176 217 1 62 -4 84 -26 130 -47 95 -144 135
-233 96z"/>
<path d="M4757 4781 c-58 -38 -62 -53 -61 -211 1 -162 15 -235 64 -337 71
-144 218 -215 351 -168 85 30 128 98 129 201 0 169 -123 363 -309 485 -84 55
-126 62 -174 30z m228 -432 c9 -17 14 -33 11 -36 -4 -4 -36 49 -36 62 0 13 11
2 25 -26z"/>
<path d="M2741 4229 c-105 -18 -201 -87 -232 -166 -18 -48 -13 -145 12 -202
26 -61 95 -126 148 -141 129 -36 322 28 452 148 73 67 104 127 95 185 -8 51
-36 100 -70 123 -62 40 -301 72 -405 53z"/>
<path d="M1085 4089 c-42 -24 -75 -64 -81 -96 -17 -90 28 -154 121 -173 81
-16 165 -42 165 -51 0 -26 -167 -91 -279 -110 -98 -16 -129 -28 -150 -57 -42
-60 -35 -135 17 -186 44 -41 80 -47 187 -31 177 27 318 90 422 188 70 66 103
133 103 209 0 109 -60 189 -185 248 -108 50 -280 82 -320 59z"/>
<path d="M4174 3761 c-142 -51 -224 -163 -224 -304 0 -74 19 -123 67 -177 62
-70 125 -95 238 -95 78 0 97 4 146 28 134 65 219 211 223 378 1 77 -16 110
-75 140 -96 50 -279 64 -375 30z m126 -286 c-13 -16 -60 -21 -60 -6 0 12 22
28 45 33 24 5 31 -8 15 -27z"/>
<path d="M1660 3697 c-62 -25 -88 -57 -115 -142 -34 -111 -7 -247 63 -312 55
-51 101 -67 192 -67 99 -1 148 19 199 81 107 130 61 345 -93 434 -66 38 -162
40 -246 6z"/>
<path d="M5213 3630 c-111 -26 -242 -133 -291 -237 -30 -66 -41 -173 -23 -238
17 -66 65 -131 118 -162 43 -25 57 -28 138 -27 68 0 104 6 146 23 180 70 273
283 200 454 -21 48 -117 164 -153 184 -25 14 -85 15 -135 3z m-2 -353 c-20
-20 -21 -20 -21 -3 0 10 8 25 18 32 26 19 28 -4 3 -29z"/>
<path d="M3445 3396 c-49 -21 -112 -102 -168 -215 -61 -122 -68 -173 -28 -215
13 -14 38 -28 55 -31 43 -8 134 34 185 85 51 52 105 149 121 217 29 125 -56
207 -165 159z"/>
<path d="M2546 3275 c-176 -37 -276 -91 -372 -201 -162 -187 -203 -220 -340
-274 -266 -106 -467 -312 -565 -582 -38 -103 -59 -209 -59 -297 0 -189 125
-421 333 -615 257 -242 386 -322 574 -359 95 -19 115 -20 209 -9 192 21 343
85 529 224 215 160 356 327 476 562 29 56 72 134 97 175 64 107 82 167 82 274
0 118 -23 210 -85 332 -55 109 -176 324 -206 367 -11 14 -19 41 -19 60 0 78
-100 212 -204 273 -129 75 -298 102 -450 70z m204 -389 c5 -13 46 -73 92 -134
71 -93 234 -378 262 -457 32 -90 25 -156 -23 -222 -16 -23 -43 -74 -60 -115
-45 -107 -123 -229 -197 -308 -70 -73 -281 -222 -376 -264 -166 -73 -313 -73
-432 1 -23 14 -102 87 -177 162 -153 153 -190 213 -209 335 -13 85 -1 155 42
241 65 130 154 216 303 292 181 93 240 136 390 287 77 78 147 147 156 154 31
24 124 51 172 52 41 0 49 -3 57 -24z"/>
<path d="M359 2261 c-23 -23 -29 -38 -29 -70 0 -50 76 -266 131 -371 113 -217
275 -349 414 -338 191 16 241 205 108 405 -68 103 -227 235 -420 349 -112 66
-157 71 -204 25z m438 -493 c32 -47 26 -57 -15 -23 -29 25 -92 113 -92 130 0
13 77 -64 107 -107z"/>
<path d="M4470 1904 c-19 -8 -45 -24 -57 -36 l-22 -20 -27 21 c-19 15 -41 21
-79 21 -62 0 -111 -28 -138 -80 -45 -86 25 -426 110 -539 47 -62 157 -90 221
-57 82 43 113 117 162 395 36 204 26 257 -54 295 -42 20 -70 20 -116 0z"/>
</g>
</svg>
