<?xml version="1.0" standalone="no"?>
<!DOCTYPE svg PUBLIC "-//W3C//DTD SVG 20010904//EN"
 "http://www.w3.org/TR/2001/REC-SVG-20010904/DTD/svg10.dtd">
<svg version="1.0" xmlns="http://www.w3.org/2000/svg"
 width="600.000000pt" height="600.000000pt" viewBox="0 0 600.000000 600.000000"
 preserveAspectRatio="xMidYMid meet">
<metadata>
Created by potrace 1.15, written by Peter Selinger 2001-2017
</metadata>
<g transform="translate(0.000000,600.000000) scale(0.100000,-0.100000)"
fill="#16364b" stroke="none">
<path d="M2272 5519 c-164 -22 -302 -174 -333 -370 -8 -49 -13 -252 -14 -614
-1 -412 -5 -585 -18 -730 -22 -251 -37 -519 -37 -666 0 -92 -3 -119 -13 -119
-23 0 -149 46 -207 75 -60 30 -234 146 -290 193 -34 29 -35 30 -22 66 20 54
-7 81 -30 31 -16 -36 -25 -31 -38 25 -7 31 -17 50 -26 50 -16 0 -20 -7 -29
-63 l-6 -37 -35 26 c-25 20 -38 24 -46 16 -11 -11 -8 -24 18 -60 l17 -23 -42
7 c-65 10 -53 -18 32 -71 39 -26 77 -52 82 -59 15 -18 163 -128 228 -169 90
-58 203 -111 307 -146 l95 -31 0 -337 c0 -370 7 -445 64 -678 50 -205 109
-324 208 -420 92 -90 196 -150 304 -175 29 -7 68 -16 84 -20 18 -4 29 -13 27
-21 -11 -45 -13 -194 -4 -254 6 -38 37 -158 68 -267 31 -108 54 -204 50 -213
-5 -15 -16 -16 -74 -10 -124 12 -192 -25 -192 -106 0 -29 8 -47 29 -71 l29
-33 99 0 c91 0 102 2 153 31 32 18 68 49 85 73 47 66 42 139 -23 366 -65 228
-76 296 -68 399 9 101 17 112 83 98 89 -19 416 -37 673 -36 l255 1 0 -176 c0
-191 17 -311 62 -450 13 -41 22 -80 19 -86 -2 -7 -37 -14 -88 -17 -96 -6 -141
-25 -163 -68 -48 -93 32 -155 171 -131 121 21 201 69 230 138 20 47 18 75 -16
181 -17 52 -37 138 -45 191 -22 145 -18 402 8 427 2 2 87 11 188 19 193 16
261 31 342 72 114 57 204 192 233 350 8 43 17 170 21 283 5 176 2 228 -16 370
-26 193 -31 216 -76 335 -38 100 -96 194 -175 285 -34 39 -47 61 -38 63 7 2
85 28 173 56 270 88 430 178 543 304 55 61 61 74 37 83 -8 4 -15 15 -15 26 0
17 -5 19 -33 14 -33 -6 -33 -5 -29 24 6 42 -21 40 -50 -5 -27 -41 -38 -44 -38
-10 0 18 -5 25 -20 25 -18 0 -20 -7 -20 -58 0 -57 -1 -59 -42 -89 -121 -86
-463 -218 -613 -237 l-50 -6 -66 62 c-361 343 -442 408 -722 579 -233 142
-324 228 -439 410 -115 182 -181 400 -203 671 -24 292 -37 361 -88 466 -87
178 -241 265 -425 241z m169 -170 c40 -20 90 -73 115 -122 28 -53 43 -125 54
-257 28 -338 41 -412 101 -590 84 -251 177 -409 328 -560 94 -94 125 -116 381
-274 147 -91 220 -148 435 -340 88 -79 207 -184 265 -233 227 -194 338 -360
360 -541 71 -586 46 -875 -88 -993 -60 -53 -115 -67 -306 -79 -89 -6 -222 -15
-296 -20 -175 -13 -612 -12 -763 0 -64 5 -204 14 -310 20 -211 11 -257 19
-332 56 -261 131 -366 417 -369 999 -1 372 22 1195 38 1340 25 222 29 344 30
875 1 500 2 517 22 566 64 156 203 219 335 153z"/>
<path d="M2576 2904 c-37 -37 3 -104 63 -104 54 0 76 94 26 114 -30 11 -73 6
-89 -10z"/>
<path d="M3162 2858 c-22 -22 -14 -75 14 -97 46 -36 91 -21 108 35 11 35 -28
74 -73 74 -20 0 -42 -5 -49 -12z"/>
<path d="M3080 1933 c-96 -13 -195 -12 -261 3 -32 7 -61 -19 -57 -50 8 -55
146 -71 353 -41 55 8 125 15 156 15 59 0 79 11 79 45 0 12 -5 26 -12 33 -16
16 -122 14 -258 -5z"/>
</g>
</svg>
