<?xml version="1.0" standalone="no"?>
<!DOCTYPE svg PUBLIC "-//W3C//DTD SVG 20010904//EN"
 "http://www.w3.org/TR/2001/REC-SVG-20010904/DTD/svg10.dtd">
<svg version="1.0" xmlns="http://www.w3.org/2000/svg"
 width="600.000000pt" height="600.000000pt" viewBox="0 0 600.000000 600.000000"
 preserveAspectRatio="xMidYMid meet">
<metadata>
Created by potrace 1.15, written by Peter Selinger 2001-2017
</metadata>
<g transform="translate(0.000000,600.000000) scale(0.100000,-0.100000)"
fill="#16364b" stroke="none">
<path d="M3080 5648 c-54 -37 -74 -72 -74 -128 0 -40 7 -59 37 -102 51 -74
175 -195 286 -278 94 -70 150 -118 185 -159 20 -21 20 -22 -20 -62 -48 -51
-356 -259 -383 -259 -37 0 -157 -43 -241 -86 -227 -117 -303 -284 -186 -412
65 -72 211 -87 274 -29 42 39 55 75 48 138 -7 68 -2 71 84 62 56 -5 62 -4 143
40 212 115 428 266 512 359 107 118 129 245 64 369 -45 85 -163 203 -311 307
-73 52 -143 111 -185 158 -37 42 -80 82 -95 90 -40 21 -100 18 -138 -8z"/>
<path d="M1155 5353 c-273 -111 -441 -421 -381 -703 29 -136 91 -254 155 -297
68 -46 166 -23 212 49 26 42 22 122 -8 164 -63 88 -68 214 -14 327 35 74 86
123 171 167 71 36 100 68 107 118 7 53 -10 102 -50 139 -56 53 -120 65 -192
36z"/>
<path d="M1789 5331 c-78 -25 -112 -75 -111 -164 1 -57 -2 -66 -58 -156 -115
-188 -142 -284 -103 -372 59 -133 174 -180 388 -158 128 13 244 36 273 55 80
52 82 180 4 246 -57 48 -89 52 -207 28 -160 -32 -158 -36 -75 105 105 178 121
257 70 340 -34 55 -124 93 -181 76z"/>
<path d="M4594 4702 c-99 -63 -102 -228 -5 -272 l25 -11 -31 -20 c-35 -22 -73
-91 -73 -132 0 -85 64 -136 195 -157 269 -43 510 158 441 368 -41 123 -230
226 -436 238 -73 5 -89 3 -116 -14z"/>
<path d="M1802 4261 c-161 -41 -340 -156 -376 -243 -17 -41 -18 -53 -7 -88 23
-77 105 -124 180 -102 21 7 56 26 77 43 86 69 224 108 318 90 65 -12 112 2
157 48 72 71 57 190 -29 243 -51 32 -213 36 -320 9z"/>
<path d="M2553 3750 c-80 -12 -214 -59 -252 -87 -91 -69 -72 -207 34 -258 43
-20 85 -17 200 13 44 12 105 22 135 24 51 3 55 1 58 -21 10 -69 -88 -251 -274
-510 -60 -83 -124 -172 -141 -197 -76 -107 -8 -239 123 -239 86 0 103 19 316
335 193 288 278 485 280 651 2 129 -51 212 -172 267 -45 21 -72 26 -155 28
-55 2 -124 -1 -152 -6z"/>
<path d="M4071 3730 c-68 -14 -128 -48 -166 -93 -59 -69 -70 -147 -33 -244 28
-75 122 -172 205 -211 151 -70 319 -8 403 149 39 73 43 127 14 178 -10 18 -23
43 -29 54 -5 11 -19 39 -30 61 -35 71 -103 100 -253 110 -37 3 -87 1 -111 -4z"/>
<path d="M1194 3600 c-28 -4 -69 -13 -90 -20 -70 -23 -252 -120 -283 -153
-128 -130 23 -371 206 -330 26 6 50 10 52 8 2 -3 -24 -69 -57 -147 -123 -289
-176 -459 -212 -674 -26 -156 -20 -197 39 -255 59 -59 187 -87 249 -55 15 8
74 67 132 132 58 65 161 177 229 249 68 71 171 188 230 258 l106 128 3 -56 c5
-84 -30 -267 -91 -480 -59 -204 -109 -423 -126 -546 -13 -94 -2 -137 44 -178
104 -91 265 -17 265 123 0 58 67 395 125 631 89 362 89 367 89 585 0 161 -3
203 -17 239 -36 94 -107 151 -184 151 -90 0 -150 -49 -379 -309 -60 -68 -128
-144 -152 -170 l-42 -46 21 55 c11 30 41 109 66 175 78 206 103 307 103 415 0
194 -129 300 -326 270z"/>
<path d="M3595 3277 c-111 -37 -187 -103 -238 -206 -27 -56 -32 -76 -32 -141
0 -59 4 -81 20 -102 53 -71 166 -93 237 -44 25 17 53 24 105 28 163 12 273
109 273 243 0 94 -49 164 -145 206 -61 27 -164 34 -220 16z"/>
<path d="M4725 2996 c-44 -20 -71 -54 -90 -112 -21 -66 -9 -140 40 -239 101
-205 147 -255 234 -255 69 0 131 72 131 153 0 20 -14 60 -35 98 -66 118 -76
149 -69 195 13 91 -43 164 -134 171 -27 2 -60 -3 -77 -11z"/>
<path d="M2957 2589 c-74 -8 -174 -36 -277 -76 -113 -44 -274 -115 -305 -134
-36 -21 -70 -78 -80 -132 -21 -111 108 -234 224 -212 19 4 80 26 136 50 93 40
283 105 305 105 6 0 10 -7 10 -15 0 -27 -90 -245 -152 -369 -56 -112 -60 -124
-56 -177 8 -104 76 -170 183 -177 72 -5 126 17 169 68 37 45 158 297 199 415
54 156 70 242 65 348 -3 74 -9 102 -30 142 -46 88 -114 139 -216 160 -73 16
-76 16 -175 4z"/>
<path d="M4442 2332 c-65 -24 -126 -81 -148 -139 -13 -35 -16 -62 -11 -133 5
-59 3 -90 -3 -90 -6 0 -36 9 -68 19 -272 92 -407 79 -533 -50 -26 -27 -63 -79
-81 -116 -33 -67 -33 -69 -33 -208 0 -251 15 -485 35 -531 61 -142 294 -151
397 -16 47 62 56 122 43 283 -6 74 -13 147 -16 163 -6 28 -6 29 30 22 20 -4
69 -18 109 -32 119 -41 139 -44 233 -35 118 11 181 39 243 107 55 59 91 130
112 214 28 112 8 381 -34 455 -51 91 -164 126 -275 87z"/>
<path d="M2115 1843 c-44 -23 -65 -44 -86 -85 -29 -58 -28 -80 31 -393 24
-126 59 -233 117 -354 37 -79 59 -108 126 -176 131 -130 310 -222 407 -209 25
4 52 10 61 15 11 6 51 -11 134 -58 129 -71 193 -96 271 -107 110 -14 249 38
338 127 45 45 55 62 61 102 10 65 -7 116 -55 158 -72 66 -159 71 -259 14 -53
-30 -55 -30 -95 -15 -69 26 -244 146 -316 216 -39 39 -81 93 -100 130 -59 111
-140 161 -241 147 -27 -4 -49 -4 -49 -1 0 19 -63 347 -72 376 -27 86 -90 130
-185 130 -33 -1 -71 -8 -88 -17z"/>
</g>
</svg>
