<?xml version="1.0" standalone="no"?>
<!DOCTYPE svg PUBLIC "-//W3C//DTD SVG 20010904//EN"
 "http://www.w3.org/TR/2001/REC-SVG-20010904/DTD/svg10.dtd">
<svg version="1.0" xmlns="http://www.w3.org/2000/svg"
 width="600.000000pt" height="600.000000pt" viewBox="0 0 600.000000 600.000000"
 preserveAspectRatio="xMidYMid meet">
<metadata>
Created by potrace 1.15, written by Peter Selinger 2001-2017
</metadata>
<g transform="translate(0.000000,600.000000) scale(0.100000,-0.100000)"
fill="#16364b" stroke="none">
<path d="M2385 5380 c-15 -16 -18 -42 -21 -160 -5 -253 -51 -457 -128 -573
-44 -67 -87 -102 -176 -147 -73 -36 -80 -44 -80 -82 0 -19 8 -33 26 -44 24
-17 28 -16 112 27 240 122 344 350 359 789 5 159 4 166 -16 188 -27 27 -52 28
-76 2z"/>
<path d="M3527 5282 c-34 -37 -32 -77 7 -155 50 -100 99 -163 153 -198 87 -54
160 -28 151 55 -6 46 -78 170 -142 243 -60 69 -135 93 -169 55z"/>
<path d="M3013 5094 c-18 -9 -50 -35 -71 -58 -90 -98 -111 -282 -37 -330 54
-36 128 -13 205 63 64 63 100 138 100 209 0 45 -4 57 -33 88 -28 31 -41 37
-83 41 -33 2 -60 -2 -81 -13z m83 -108 c13 -34 -78 -176 -112 -176 -32 0 1
111 48 159 33 33 55 39 64 17z"/>
<path d="M4767 4750 c-39 -31 -47 -77 -47 -267 0 -326 39 -433 153 -419 48 5
65 20 89 73 50 114 -9 531 -87 609 -30 30 -73 31 -108 4z"/>
<path d="M2650 4202 c-19 -11 -43 -35 -53 -56 -42 -81 10 -157 144 -210 216
-86 454 15 382 162 -15 31 -27 40 -73 55 -200 66 -336 83 -400 49z"/>
<path d="M5231 3975 c-109 -31 -177 -107 -195 -220 -16 -95 34 -259 103 -338
18 -20 58 -49 89 -64 48 -24 69 -28 137 -28 105 1 172 25 241 88 76 69 109
141 109 237 0 58 -5 85 -23 123 -37 74 -118 145 -220 192 -49 23 -176 28 -241
10z m177 -300 c12 -11 -15 -40 -40 -43 -18 -2 -27 4 -36 23 -7 14 -12 29 -12
32 0 7 79 -3 88 -12z"/>
<path d="M1305 3776 c-126 -40 -194 -127 -195 -247 0 -145 92 -267 250 -329
29 -12 65 -30 79 -41 80 -63 174 -261 215 -454 31 -142 105 -603 116 -714 19
-199 53 -330 123 -464 69 -135 162 -221 305 -283 40 -17 75 -34 78 -37 3 -2
-11 -15 -32 -27 -102 -64 -98 -203 9 -250 65 -28 141 -33 308 -18 85 7 192 13
239 13 79 0 85 -1 82 -20 -14 -82 -14 -93 7 -114 13 -13 34 -21 56 -21 78 0
115 44 115 138 0 50 -5 65 -30 100 -57 80 -100 88 -328 68 -198 -18 -331 -21
-316 -6 5 5 86 23 179 41 133 25 188 31 255 28 47 -2 218 -2 382 -1 252 3 300
1 320 -12 42 -27 153 -39 294 -32 129 7 133 6 144 -14 24 -45 132 -65 190 -35
40 21 82 78 85 117 2 32 3 32 136 75 200 64 372 153 491 252 181 152 281 291
320 442 27 109 22 286 -12 394 -30 93 -97 226 -153 300 -147 195 -392 280
-670 230 -109 -19 -191 -61 -277 -140 -165 -151 -312 -225 -538 -271 -104 -21
-142 -25 -213 -20 -105 8 -210 36 -304 81 -157 75 -370 266 -510 459 -44 60
-120 163 -169 230 -50 68 -140 171 -205 236 -173 172 -298 251 -512 324 -90
31 -119 36 -190 35 -46 0 -102 -6 -124 -13z m311 -296 c229 -110 419 -298 644
-635 135 -202 207 -281 372 -407 237 -180 442 -263 683 -275 126 -6 230 12
433 73 221 67 381 154 492 268 30 31 79 68 109 83 47 23 67 27 145 28 187 0
308 -89 408 -301 31 -65 33 -75 32 -179 0 -130 -17 -183 -95 -300 -105 -157
-254 -254 -529 -344 -280 -91 -432 -106 -995 -97 -496 8 -751 20 -858 40 -239
46 -340 163 -396 462 -11 54 -22 135 -26 179 -4 44 -15 121 -26 170 -10 50
-35 189 -54 310 -40 245 -70 346 -148 505 -104 212 -207 339 -307 376 -59 22
-97 49 -105 76 -18 56 60 45 221 -32z"/>
<path d="M2305 2425 c-14 -13 -25 -29 -25 -35 0 -23 49 -60 79 -60 24 0 34 7
46 29 36 71 -43 124 -100 66z"/>
<path d="M2850 2058 c-30 -11 -40 -25 -40 -59 0 -51 76 -91 114 -60 20 17 28
55 17 84 -12 30 -57 48 -91 35z"/>
<path d="M4183 3761 c-100 -37 -154 -84 -204 -181 -33 -64 -34 -206 -2 -266
36 -67 70 -101 135 -133 192 -97 393 35 440 287 15 80 -3 190 -38 231 -58 69
-227 101 -331 62z m97 -281 c0 -20 -32 -60 -48 -60 -38 0 0 75 41 79 4 1 7 -8
7 -19z"/>
<path d="M3455 3358 c-35 -28 -155 -273 -155 -317 0 -37 37 -66 70 -56 55 17
179 232 183 315 1 33 -3 46 -22 61 -30 24 -42 24 -76 -3z"/>
<path d="M452 2018 c-7 -7 -12 -24 -12 -40 0 -22 16 -40 78 -93 162 -137 282
-163 282 -60 0 45 -48 87 -177 153 -101 52 -148 63 -171 40z"/>
<path d="M5364 1110 c-47 -19 -89 -161 -65 -222 24 -62 115 -85 163 -41 65 58
74 210 15 247 -29 18 -87 27 -113 16z"/>
</g>
</svg>
