<?xml version="1.0" standalone="no"?>
<!DOCTYPE svg PUBLIC "-//W3C//DTD SVG 20010904//EN"
 "http://www.w3.org/TR/2001/REC-SVG-20010904/DTD/svg10.dtd">
<svg version="1.0" xmlns="http://www.w3.org/2000/svg"
 width="600.000000pt" height="600.000000pt" viewBox="0 0 600.000000 600.000000"
 preserveAspectRatio="xMidYMid meet">
<metadata>
Created by potrace 1.15, written by Peter Selinger 2001-2017
</metadata>
<g transform="translate(0.000000,600.000000) scale(0.100000,-0.100000)"
fill="#16364b" stroke="none">
<path d="M1548 5784 c-42 -22 -56 -60 -84 -226 -22 -130 -25 -175 -22 -298 4
-124 8 -155 30 -212 47 -124 102 -172 194 -171 102 1 191 71 299 237 90 137
195 385 195 457 0 83 -83 149 -168 133 -52 -10 -84 -51 -116 -150 -53 -162
-140 -344 -166 -344 -15 0 -12 164 6 297 21 153 21 181 5 220 -26 63 -111 91
-173 57z"/>
<path d="M3293 5516 c-39 -18 -73 -70 -73 -112 0 -65 19 -92 113 -163 51 -38
112 -90 136 -114 l44 -46 -34 -14 c-61 -26 -90 -79 -81 -151 5 -37 75 -107
144 -142 70 -36 187 -45 239 -19 77 39 109 88 109 167 0 58 -18 103 -73 189
-96 151 -220 277 -358 367 -76 49 -120 59 -166 38z"/>
<path d="M859 5492 c-110 -37 -220 -138 -260 -240 -32 -82 -32 -224 -1 -304
28 -69 81 -140 134 -179 78 -56 170 -31 203 55 24 63 10 108 -49 164 -24 23
-47 55 -51 71 -10 49 11 105 56 146 36 32 46 36 78 31 107 -18 126 -17 158 3
98 62 87 187 -21 240 -65 33 -170 38 -247 13z"/>
<path d="M2987 5170 c-67 -20 -142 -108 -183 -215 -28 -74 -26 -188 4 -237 29
-46 92 -78 155 -78 86 0 224 58 249 103 17 32 27 161 18 233 -19 156 -115 232
-243 194z"/>
<path d="M2306 5050 c-61 -19 -96 -73 -96 -150 0 -58 -20 -107 -53 -131 -12
-9 -63 -33 -112 -54 -108 -46 -141 -67 -160 -105 -45 -87 23 -200 120 -200 40
0 232 80 301 126 122 81 205 253 191 397 -8 91 -96 145 -191 117z"/>
<path d="M4759 4805 c-14 -7 -33 -29 -44 -48 -16 -30 -17 -50 -12 -178 4 -93
12 -169 25 -214 49 -183 152 -296 282 -312 90 -11 201 62 252 166 18 36 23 62
23 126 -1 71 -4 87 -34 142 -56 104 -163 197 -342 296 -70 39 -108 45 -150 22z"/>
<path d="M2808 4159 c-186 -27 -286 -181 -214 -334 79 -171 303 -202 653 -89
137 44 173 75 173 150 0 85 -44 135 -165 187 -172 74 -326 104 -447 86z"/>
<path d="M1034 4062 c-76 -36 -117 -119 -95 -192 25 -85 90 -129 191 -130 62
-1 163 -23 167 -37 5 -15 -159 -151 -265 -221 -46 -30 -136 -81 -200 -114
-139 -71 -146 -78 -168 -134 -43 -113 35 -224 157 -224 43 0 121 31 223 87 32
19 60 32 61 31 1 -2 12 -24 23 -50 40 -91 130 -111 219 -49 106 75 135 93 195
118 68 27 143 33 234 19 102 -17 178 44 176 141 -1 54 -25 96 -72 127 -59 40
-95 47 -210 38 -58 -5 -107 -7 -109 -6 -2 2 10 19 28 39 69 79 106 195 90 281
-32 172 -209 273 -504 289 -86 5 -106 3 -141 -13z"/>
<path d="M4185 3763 c-143 -52 -241 -175 -253 -318 -3 -49 0 -72 17 -110 34
-78 66 -111 138 -147 60 -29 77 -33 148 -33 68 0 89 4 139 29 119 59 214 190
250 350 28 119 -7 180 -125 217 -92 30 -248 35 -314 12z m96 -303 c-24 -20
-51 -27 -51 -12 0 16 25 32 50 32 l25 -1 -24 -19z"/>
<path d="M3441 3403 c-74 -14 -231 -258 -231 -360 0 -28 7 -58 16 -71 54 -78
216 -67 301 20 100 103 138 293 72 364 -45 48 -86 60 -158 47z"/>
<path d="M5044 3346 c-174 -88 -286 -254 -271 -401 14 -136 110 -218 257 -219
46 0 95 7 125 17 188 64 286 301 196 474 -25 49 -98 131 -133 149 -45 23 -99
17 -174 -20z"/>
<path d="M2225 2849 c-77 -24 -147 -76 -180 -133 -14 -24 -43 -92 -64 -150
-44 -120 -72 -162 -141 -212 -26 -19 -60 -50 -75 -69 -14 -20 -49 -56 -76 -82
-75 -70 -153 -170 -198 -254 -82 -152 -111 -276 -111 -475 0 -217 33 -336 134
-488 167 -251 417 -371 776 -371 161 0 197 8 327 72 138 69 293 213 405 376
87 127 206 409 259 612 20 74 24 114 23 225 -1 221 -48 369 -146 462 -60 58
-129 85 -262 105 -136 21 -152 32 -222 159 -116 212 -261 284 -449 223z m161
-499 c42 -80 138 -190 186 -213 18 -8 85 -21 148 -28 131 -15 150 -26 171
-100 17 -56 16 -226 0 -304 -22 -105 -61 -217 -113 -324 -43 -89 -62 -117
-133 -187 -98 -98 -185 -157 -273 -184 -267 -83 -569 112 -612 394 -29 186 68
409 243 558 34 29 66 59 71 67 4 7 42 50 83 95 59 64 86 104 127 188 28 59 54
107 58 108 4 0 23 -31 44 -70z"/>
<path d="M1000 2803 c-25 -10 -64 -43 -77 -66 -16 -28 -16 -102 -1 -130 15
-29 32 -42 98 -75 74 -36 172 -135 188 -188 17 -57 15 -144 -3 -188 -9 -21
-34 -57 -57 -82 -78 -84 -156 -79 -224 16 -59 82 -128 102 -195 57 -73 -49
-80 -124 -18 -215 72 -109 159 -162 275 -170 180 -12 367 104 454 282 82 167
92 309 31 430 -41 81 -111 159 -198 224 -124 91 -216 127 -273 105z"/>
<path d="M4156 2308 c-51 -14 -121 -84 -135 -134 -6 -22 -11 -61 -11 -88 0
-42 -2 -47 -17 -41 -37 14 -121 17 -157 5 -48 -16 -102 -63 -127 -111 -39 -77
-22 -246 44 -431 47 -130 74 -177 125 -212 59 -42 149 -48 213 -15 33 16 62
23 114 23 115 2 196 56 231 153 7 21 13 79 14 130 0 106 -45 573 -61 620 -13
41 -68 89 -116 102 -45 13 -65 12 -117 -1z"/>
</g>
</svg>
