<?xml version="1.0" standalone="no"?>
<!DOCTYPE svg PUBLIC "-//W3C//DTD SVG 20010904//EN"
 "http://www.w3.org/TR/2001/REC-SVG-20010904/DTD/svg10.dtd">
<svg version="1.0" xmlns="http://www.w3.org/2000/svg"
 width="600.000000pt" height="600.000000pt" viewBox="0 0 600.000000 600.000000"
 preserveAspectRatio="xMidYMid meet">
<metadata>
Created by potrace 1.15, written by Peter Selinger 2001-2017
</metadata>
<g transform="translate(0.000000,600.000000) scale(0.100000,-0.100000)"
fill="#16364b" stroke="none">
<path d="M1950 5818 c-22 -16 -67 -80 -137 -198 -58 -96 -140 -232 -184 -302
-113 -180 -132 -226 -127 -298 11 -148 145 -201 310 -122 58 27 383 218 554
325 79 49 104 87 104 159 0 60 -30 105 -87 130 -68 30 -112 20 -231 -52 -55
-33 -102 -60 -105 -60 -3 0 28 49 69 109 41 61 77 123 80 140 12 58 -35 145
-97 176 -43 23 -110 19 -149 -7z"/>
<path d="M3031 5672 c-48 -24 -73 -75 -68 -135 6 -66 28 -91 127 -144 246
-130 365 -249 426 -422 42 -124 17 -172 -114 -211 -77 -22 -117 -57 -133 -113
-21 -77 33 -166 115 -188 76 -21 247 40 338 121 92 80 146 205 134 307 -13
113 -99 304 -190 421 -91 119 -228 223 -430 326 -117 60 -150 66 -205 38z"/>
<path d="M930 5381 c-210 -68 -320 -225 -320 -457 0 -149 41 -252 147 -365 66
-71 124 -103 184 -102 63 1 112 31 138 87 40 82 19 148 -70 226 -69 60 -91 97
-91 154 -1 85 44 134 146 160 108 28 150 76 143 162 -9 127 -126 184 -277 135z"/>
<path d="M2763 5011 c-79 -46 -130 -125 -153 -235 -44 -214 117 -381 351 -363
85 7 120 20 159 62 22 23 25 36 25 97 0 67 -1 71 -36 102 l-35 33 18 34 c42
79 2 199 -90 263 -37 26 -54 31 -115 34 -65 3 -77 0 -124 -27z"/>
<path d="M4792 4922 c-12 -2 -40 -20 -61 -40 -51 -48 -57 -86 -42 -232 28
-271 90 -409 215 -480 68 -40 165 -42 241 -6 148 69 222 255 164 410 -38 102
-161 208 -354 303 -82 41 -123 52 -163 45z"/>
<path d="M1960 4679 c-93 -10 -225 -89 -250 -149 -17 -41 -8 -130 16 -162 49
-66 134 -80 204 -34 55 36 92 39 105 7 31 -77 53 -106 96 -129 76 -41 159 -21
213 51 67 90 -37 312 -178 384 -58 30 -130 41 -206 32z"/>
<path d="M2960 3955 c-104 -30 -198 -105 -243 -195 -18 -37 -22 -62 -22 -140
0 -89 2 -99 34 -158 59 -108 156 -176 296 -207 57 -13 81 -14 112 -6 43 12 90
52 104 89 34 88 -31 190 -131 208 -94 16 -139 56 -104 95 21 23 45 24 120 4
71 -18 120 -8 163 36 37 37 45 64 39 131 -5 43 -11 57 -41 84 -64 59 -223 88
-327 59z"/>
<path d="M1175 3938 c-105 -20 -231 -61 -264 -85 -93 -71 -92 -217 2 -300 40
-35 83 -47 152 -41 25 2 45 1 45 -2 0 -3 -41 -61 -90 -130 -161 -225 -363
-600 -410 -760 -29 -96 -18 -144 44 -206 80 -81 189 -82 276 -3 25 22 100 79
167 126 135 94 246 185 374 307 99 95 253 226 264 226 15 0 -5 -138 -39 -260
-60 -218 -102 -318 -231 -545 -116 -204 -225 -432 -225 -470 0 -148 168 -216
273 -109 32 32 326 619 386 770 44 112 89 261 122 404 29 126 32 330 5 407
-26 78 -69 131 -129 159 -61 28 -81 29 -144 8 -60 -20 -116 -58 -268 -178 -66
-52 -121 -93 -123 -91 -2 2 28 48 67 102 126 175 191 336 178 444 -7 57 -45
134 -84 171 -52 50 -108 68 -208 67 -49 -1 -112 -6 -140 -11z"/>
<path d="M4170 3776 c-105 -29 -179 -84 -225 -167 -27 -49 -30 -63 -30 -144 0
-106 19 -157 86 -230 69 -75 106 -90 224 -90 87 0 107 3 157 27 114 53 199
158 263 321 50 130 45 182 -24 240 -58 48 -336 75 -451 43z m81 -316 c-24 -21
-61 -27 -61 -10 0 14 32 29 60 29 l25 0 -24 -19z"/>
<path d="M3448 3386 c-76 -28 -133 -85 -181 -181 -64 -129 -70 -206 -20 -266
44 -52 94 -69 203 -69 141 0 206 34 258 135 21 41 26 64 26 130 1 70 -3 88
-29 140 -39 77 -89 114 -166 121 -33 3 -69 -1 -91 -10z"/>
<path d="M4944 2991 c-56 -34 -242 -250 -279 -323 -63 -126 -55 -236 23 -310
46 -45 65 -54 122 -63 33 -4 63 0 112 15 129 40 238 150 280 284 24 76 27 207
5 256 -17 39 -100 131 -134 149 -33 17 -94 13 -129 -8z"/>
<path d="M4002 2549 c-48 -15 -128 -96 -141 -144 -19 -69 -12 -116 33 -247 24
-71 41 -128 37 -128 -4 0 -36 12 -72 27 -53 22 -80 26 -159 27 -87 1 -99 -1
-143 -27 -57 -34 -100 -96 -118 -169 -15 -64 -7 -287 16 -411 16 -95 76 -289
105 -347 73 -142 271 -167 389 -49 74 74 89 166 47 305 -13 43 -22 81 -20 83
2 3 17 -7 32 -22 71 -68 171 -83 275 -42 79 32 141 90 176 164 38 81 36 213
-6 366 -47 171 -141 472 -157 503 -19 36 -63 80 -101 99 -36 19 -148 26 -193
12z"/>
<path d="M2021 2158 c-45 -13 -165 -134 -212 -213 -60 -103 -70 -150 -47 -227
15 -50 84 -114 132 -123 20 -4 36 -10 36 -14 0 -3 -19 -16 -42 -29 -124 -66
-225 -218 -249 -372 -24 -155 8 -325 93 -494 113 -226 290 -369 518 -420 291
-66 572 13 792 222 93 89 110 171 53 262 -26 42 -98 90 -133 90 -12 0 -22 5
-22 10 0 6 8 10 17 10 9 0 37 10 61 21 85 42 167 201 293 569 l73 215 1 110
c0 100 -2 115 -27 166 -78 157 -241 222 -430 170 -95 -26 -272 -101 -434 -185
l-124 -64 -6 27 c-28 126 -48 165 -110 220 -66 58 -145 75 -233 49z m975 -480
c-29 -93 -136 -322 -228 -488 -44 -79 -52 -124 -37 -186 16 -61 81 -130 133
-139 40 -8 49 -25 13 -25 -30 0 -56 -19 -150 -106 -115 -108 -213 -139 -342
-109 -165 38 -323 206 -360 383 -26 122 7 223 73 230 26 3 33 -2 48 -30 24
-47 98 -141 134 -172 99 -83 243 -33 284 98 22 69 14 113 -30 174 -19 26 -40
56 -48 67 -8 11 -22 36 -30 56 l-15 36 162 83 c165 85 358 169 389 170 15 0
16 -4 4 -42z"/>
</g>
</svg>
