<?xml version="1.0" standalone="no"?>
<!DOCTYPE svg PUBLIC "-//W3C//DTD SVG 20010904//EN"
 "http://www.w3.org/TR/2001/REC-SVG-20010904/DTD/svg10.dtd">
<svg version="1.0" xmlns="http://www.w3.org/2000/svg"
 width="600.000000pt" height="600.000000pt" viewBox="0 0 600.000000 600.000000"
 preserveAspectRatio="xMidYMid meet">
<metadata>
Created by potrace 1.15, written by Peter Selinger 2001-2017
</metadata>
<g transform="translate(0.000000,600.000000) scale(0.100000,-0.100000)"
fill="#16364b" stroke="none">
<path d="M2292 5611 c-113 -39 -225 -141 -282 -257 -54 -111 -63 -183 -65
-524 -4 -600 -24 -1352 -39 -1485 -9 -71 -16 -156 -16 -187 0 -32 -4 -58 -9
-58 -5 0 -43 22 -84 50 -93 60 -218 178 -293 275 l-56 74 26 37 c20 30 23 41
14 52 -10 12 -16 10 -35 -12 -12 -14 -25 -26 -28 -26 -3 0 -5 27 -3 59 1 33 0
63 -4 67 -15 14 -35 -5 -47 -45 -6 -23 -15 -41 -19 -41 -4 0 -16 16 -26 35
-31 58 -62 44 -45 -19 13 -47 9 -52 -24 -25 -27 20 -47 19 -47 -4 0 -7 22 -39
48 -72 26 -33 60 -80 74 -105 39 -68 160 -203 251 -281 45 -38 130 -97 189
-131 124 -73 115 -48 94 -248 -26 -240 -29 -339 -16 -475 25 -262 97 -534 181
-681 106 -185 280 -311 492 -358 l27 -6 0 -126 c0 -149 20 -257 85 -469 25
-80 43 -150 39 -156 -4 -7 -28 -8 -65 -4 -112 13 -199 -27 -199 -92 0 -70 64
-113 168 -113 153 0 252 78 252 199 0 32 -17 109 -45 202 -65 217 -87 336 -83
441 2 47 5 89 8 91 7 7 400 -10 550 -24 69 -6 194 -11 278 -11 l153 1 -8 -47
c-4 -26 -8 -94 -7 -152 0 -119 19 -202 85 -382 22 -60 38 -112 35 -116 -4 -3
-48 -9 -99 -12 -98 -7 -126 -17 -151 -52 -40 -56 4 -133 84 -148 53 -10 149 4
205 29 86 39 145 131 130 203 -4 16 -27 80 -51 141 -86 216 -111 362 -82 487
9 40 18 54 36 61 13 5 90 9 171 9 232 0 337 35 451 150 66 65 112 150 142 257
21 75 22 95 21 473 -1 365 -3 401 -22 476 -37 145 -109 289 -201 401 -27 32
-47 60 -45 62 2 2 36 14 75 27 254 86 472 238 613 427 46 63 49 71 34 82 -9 7
-17 17 -17 23 0 20 -19 23 -50 7 l-30 -16 0 36 c0 47 -25 47 -47 0 -20 -41
-29 -44 -37 -10 -7 26 -31 34 -39 13 -2 -7 0 -29 4 -48 14 -58 11 -69 -31
-110 -75 -73 -174 -142 -285 -196 -101 -49 -262 -104 -305 -104 -10 0 -84 70
-172 161 -246 259 -319 317 -598 473 -188 106 -259 156 -339 242 -134 143
-217 305 -281 549 -42 160 -58 274 -74 515 -17 251 -33 317 -100 407 -94 129
-268 185 -414 134z m203 -160 c82 -38 129 -118 145 -248 5 -43 14 -159 20
-258 12 -211 28 -316 76 -471 78 -259 181 -444 336 -602 78 -81 143 -125 332
-225 83 -44 178 -98 211 -120 71 -47 645 -626 724 -731 69 -90 125 -209 145
-308 22 -108 23 -719 1 -822 -32 -152 -107 -256 -213 -297 -47 -17 -91 -23
-242 -30 -463 -22 -552 -22 -720 -6 -91 9 -271 18 -400 21 -355 8 -464 33
-609 142 -69 51 -136 139 -180 235 -98 210 -140 557 -107 864 9 83 21 224 27
315 5 91 17 264 25 385 12 161 17 411 20 935 4 840 13 960 74 1081 67 130 219
194 335 140z"/>
<path d="M2602 2924 c-31 -22 -29 -67 4 -93 51 -40 104 -16 104 47 0 34 -29
62 -65 62 -11 0 -31 -7 -43 -16z"/>
<path d="M3186 2888 c-22 -31 -20 -41 10 -77 18 -21 35 -31 54 -31 53 0 81 78
42 113 -28 25 -87 22 -106 -5z"/>
<path d="M3055 1979 c-114 -18 -241 -21 -276 -5 -9 4 -25 -1 -40 -13 -20 -16
-22 -23 -14 -47 20 -57 130 -68 343 -33 74 12 164 20 217 18 115 -2 113 -2
120 21 25 77 -100 98 -350 59z"/>
</g>
</svg>
