<?xml version="1.0" standalone="no"?>
<!DOCTYPE svg PUBLIC "-//W3C//DTD SVG 20010904//EN"
 "http://www.w3.org/TR/2001/REC-SVG-20010904/DTD/svg10.dtd">
<svg version="1.0" xmlns="http://www.w3.org/2000/svg"
 width="600.000000pt" height="600.000000pt" viewBox="0 0 600.000000 600.000000"
 preserveAspectRatio="xMidYMid meet">
<metadata>
Created by potrace 1.15, written by Peter Selinger 2001-2017
</metadata>
<g transform="translate(0.000000,600.000000) scale(0.100000,-0.100000)"
fill="#16364b" stroke="none">
<path d="M1531 5773 c-30 -29 -157 -329 -186 -441 -42 -160 18 -272 145 -272
111 1 233 98 456 366 73 88 85 124 58 179 -20 43 -48 64 -98 72 -49 8 -78 -13
-177 -131 -45 -55 -84 -95 -86 -89 -2 6 12 50 32 99 47 117 47 164 1 210 -45
45 -101 48 -145 7z"/>
<path d="M838 5546 c-64 -23 -129 -67 -193 -130 -69 -70 -110 -143 -125 -229
-27 -144 73 -307 207 -338 137 -30 199 136 78 211 -56 35 -60 110 -9 177 55
72 117 90 189 53 22 -11 50 -20 63 -20 34 0 88 28 105 53 53 83 8 170 -115
222 -45 18 -149 19 -200 1z"/>
<path d="M2341 5376 c-45 -25 -49 -48 -44 -216 7 -184 -9 -285 -63 -397 -43
-89 -101 -148 -190 -192 -120 -59 -154 -111 -119 -184 17 -36 65 -67 102 -67
31 0 173 73 238 123 98 74 160 171 215 335 39 119 53 225 48 388 -3 116 -6
144 -22 167 -36 53 -112 73 -165 43z"/>
<path d="M3505 5373 c-36 -10 -68 -37 -82 -71 -12 -30 -12 -40 1 -81 9 -25 21
-65 26 -88 23 -94 123 -204 231 -253 116 -52 219 8 219 129 0 68 -54 176 -121
243 -70 70 -217 135 -274 121z"/>
<path d="M2965 5136 c-128 -59 -206 -231 -161 -351 45 -118 193 -150 337 -74
85 46 100 72 101 186 1 128 -34 198 -124 244 -49 25 -92 24 -153 -5z"/>
<path d="M4733 4750 c-59 -36 -66 -57 -60 -183 6 -122 26 -200 79 -299 68
-129 146 -188 258 -196 61 -4 76 -1 125 22 94 46 143 145 132 265 -6 74 -42
144 -104 203 -65 63 -82 76 -202 146 -118 70 -168 79 -228 42z m287 -416 c0
-8 -2 -14 -4 -14 -7 0 -46 66 -46 76 1 15 50 -46 50 -62z"/>
<path d="M2713 4215 c-113 -25 -201 -95 -225 -180 -65 -231 161 -410 406 -322
123 45 298 197 311 270 18 96 -29 162 -140 195 -156 47 -261 58 -352 37z"/>
<path d="M1066 4100 c-89 -27 -136 -149 -85 -221 27 -38 61 -55 129 -64 66 -8
169 -35 175 -46 14 -22 -151 -109 -320 -170 -134 -47 -179 -80 -196 -141 -19
-71 18 -150 85 -182 49 -23 72 -21 199 20 135 44 273 107 355 163 33 22 63 41
66 41 4 0 6 -12 6 -26 0 -14 11 -47 24 -73 13 -25 32 -64 42 -86 46 -96 161
-167 283 -174 92 -4 141 10 192 56 65 59 84 104 84 203 0 73 -4 92 -27 136
-28 52 -87 112 -135 137 -45 24 -141 40 -192 32 -25 -4 -71 -17 -101 -29 l-56
-22 12 57 c14 70 4 135 -31 194 -60 103 -172 161 -365 190 -106 17 -104 17
-144 5z"/>
<path d="M4230 3769 c-176 -30 -303 -168 -303 -328 0 -39 8 -83 18 -109 34
-83 136 -146 258 -159 183 -19 359 139 412 368 18 76 18 76 -5 123 -12 26 -34
53 -49 60 -75 39 -238 61 -331 45z m64 -284 c-7 -16 -35 -35 -53 -35 -20 0
-11 31 12 40 34 13 47 12 41 -5z"/>
<path d="M5158 3541 c-154 -49 -278 -172 -313 -308 -16 -61 -11 -120 15 -188
22 -57 86 -129 141 -160 47 -26 64 -30 134 -30 67 0 89 5 137 28 71 35 139
109 170 185 31 78 31 225 1 292 -28 63 -127 176 -165 189 -40 14 -52 13 -120
-8z m2 -342 c-7 -11 -14 -18 -17 -15 -3 3 0 12 7 21 18 21 23 19 10 -6z"/>
<path d="M2551 3379 c-65 -13 -160 -61 -211 -106 -65 -59 -135 -181 -180 -318
-64 -190 -100 -235 -250 -310 -107 -54 -183 -108 -265 -189 -281 -278 -385
-743 -243 -1084 103 -247 304 -412 596 -489 132 -35 338 -37 454 -5 338 92
627 398 721 762 42 162 52 265 52 565 0 255 -2 289 -23 385 -32 144 -132 440
-179 524 -76 138 -188 233 -305 261 -69 16 -101 17 -167 4z m121 -411 c14 -18
38 -62 53 -98 87 -208 114 -346 122 -641 6 -218 -8 -332 -62 -496 -79 -237
-186 -381 -342 -459 -96 -49 -197 -56 -328 -25 -283 68 -411 223 -391 477 17
223 108 410 245 504 33 22 62 40 66 40 14 0 106 48 165 85 151 97 275 268 340
470 35 110 69 175 90 175 9 0 29 -15 42 -32z"/>
<path d="M3424 3366 c-45 -20 -98 -88 -154 -197 -63 -123 -66 -165 -16 -215
39 -39 61 -42 144 -18 116 33 202 161 202 300 0 59 -3 67 -33 100 -37 41 -93
53 -143 30z"/>
<path d="M482 2354 c-12 -8 -31 -32 -41 -53 -11 -20 -26 -43 -35 -50 -32 -27
-30 -76 8 -187 45 -129 83 -206 149 -302 65 -95 156 -178 237 -216 57 -27 76
-31 150 -31 92 0 142 18 187 67 109 117 43 360 -144 528 -73 65 -190 143 -314
209 -103 55 -155 64 -197 35z m273 -349 c81 -58 170 -156 191 -212 9 -24 14
-46 11 -49 -11 -12 -85 37 -132 87 -28 30 -72 88 -98 130 -67 107 -65 110 28
44z"/>
<path d="M4314 2075 c-18 -8 -45 -31 -62 -51 l-30 -36 -30 22 c-73 54 -182 27
-222 -55 -11 -23 -20 -50 -20 -61 0 -10 16 -106 35 -213 22 -130 40 -203 52
-220 11 -14 27 -48 37 -74 36 -95 105 -147 196 -147 112 0 178 64 209 202 6
23 15 102 20 173 6 72 16 176 22 232 10 90 10 108 -5 145 -29 77 -128 117
-202 83z"/>
</g>
</svg>
