<?xml version="1.0" standalone="no"?>
<!DOCTYPE svg PUBLIC "-//W3C//DTD SVG 20010904//EN"
 "http://www.w3.org/TR/2001/REC-SVG-20010904/DTD/svg10.dtd">
<svg version="1.0" xmlns="http://www.w3.org/2000/svg"
 width="600.000000pt" height="600.000000pt" viewBox="0 0 600.000000 600.000000"
 preserveAspectRatio="xMidYMid meet">
<metadata>
Created by potrace 1.15, written by Peter Selinger 2001-2017
</metadata>
<g transform="translate(0.000000,600.000000) scale(0.100000,-0.100000)"
fill="#16364b" stroke="none">
<path d="M2300 5557 c-119 -35 -234 -124 -297 -228 -66 -111 -67 -114 -68
-729 0 -305 -4 -571 -8 -590 -5 -27 -37 -837 -37 -950 0 -30 -22 -25 -144 34
-117 57 -269 152 -348 218 l-47 39 15 40 c7 23 11 45 8 50 -11 18 -35 8 -45
-18 -13 -32 -16 -27 -33 52 -16 69 -38 67 -50 -5 l-8 -55 -27 33 c-46 54 -77
36 -41 -25 11 -19 19 -38 16 -40 -2 -2 -18 3 -35 12 -29 15 -32 14 -38 -1 -5
-12 10 -31 53 -69 32 -29 86 -78 119 -110 109 -104 353 -252 529 -321 26 -10
50 -25 53 -31 3 -7 -2 -79 -11 -160 -55 -506 38 -1004 231 -1238 88 -107 261
-203 428 -237 l50 -10 0 -161 c0 -178 11 -245 71 -444 49 -160 53 -150 -65
-155 -89 -3 -102 -6 -125 -27 -14 -13 -28 -38 -32 -55 -14 -76 42 -126 142
-126 110 0 200 40 250 112 43 62 42 104 -10 264 -68 213 -89 327 -83 452 3 57
9 108 15 114 7 7 41 6 103 -3 63 -9 221 -13 479 -14 l385 0 -3 -98 c-4 -112
13 -226 64 -429 19 -75 34 -148 34 -162 0 -25 -2 -26 -64 -26 -91 0 -123 -9
-157 -42 -23 -24 -29 -38 -29 -73 0 -36 5 -48 30 -69 96 -80 303 -15 371 116
26 51 24 92 -10 207 -58 195 -84 330 -83 431 1 52 5 111 10 130 9 41 13 42
234 59 81 7 171 19 200 28 185 54 310 183 364 373 33 118 25 723 -12 875 -23
95 -79 197 -185 339 l-99 131 28 7 c15 4 66 16 113 27 225 53 426 182 561 361
41 53 47 66 35 75 -8 6 -16 19 -19 30 -4 20 -15 22 -53 10 -17 -5 -20 -2 -20
26 0 45 -19 46 -46 2 l-24 -38 -9 28 c-10 27 -29 36 -40 18 -3 -5 -2 -31 3
-57 9 -47 8 -50 -22 -82 -108 -113 -318 -203 -543 -233 l-84 -11 -90 86 c-94
89 -153 136 -410 325 -181 134 -287 205 -425 287 -129 76 -252 197 -314 307
-65 116 -147 328 -170 442 -11 55 -25 179 -31 275 -19 320 -37 408 -106 521
-90 149 -255 226 -394 186z m133 -158 c21 -6 56 -26 77 -46 77 -69 112 -185
125 -413 19 -350 55 -504 180 -774 52 -114 132 -231 206 -303 80 -78 112 -101
279 -203 247 -151 517 -349 659 -485 158 -151 438 -500 497 -620 42 -85 49
-127 65 -426 13 -218 8 -360 -15 -446 -41 -155 -135 -256 -271 -291 -45 -12
-300 -34 -680 -58 -219 -14 -296 -15 -486 -5 -124 6 -241 16 -260 21 -18 6
-61 10 -95 10 -190 0 -393 81 -494 198 -84 97 -164 300 -202 512 -18 104 -15
480 5 705 10 99 22 311 27 470 6 160 17 407 26 550 19 309 22 568 10 915 -8
252 -1 397 25 492 26 98 158 204 259 207 14 1 42 -4 63 -10z"/>
<path d="M2594 2922 c-20 -13 -32 -47 -24 -68 9 -24 47 -54 67 -54 23 0 53 39
53 69 0 45 -60 78 -96 53z"/>
<path d="M3210 2860 c-14 -3 -31 -18 -39 -32 -13 -23 -13 -29 2 -52 18 -27 56
-42 81 -33 8 3 23 18 32 33 16 23 16 29 3 52 -17 30 -45 41 -79 32z"/>
<path d="M3095 1949 c-124 -20 -224 -24 -273 -10 -40 12 -59 6 -67 -20 -10
-31 3 -56 38 -70 47 -20 201 -16 344 9 66 12 141 22 165 22 24 0 49 5 56 12
18 18 14 56 -7 68 -28 14 -128 10 -256 -11z"/>
</g>
</svg>
