<?xml version="1.0" standalone="no"?>
<!DOCTYPE svg PUBLIC "-//W3C//DTD SVG 20010904//EN"
 "http://www.w3.org/TR/2001/REC-SVG-20010904/DTD/svg10.dtd">
<svg version="1.0" xmlns="http://www.w3.org/2000/svg"
 width="600.000000pt" height="600.000000pt" viewBox="0 0 600.000000 600.000000"
 preserveAspectRatio="xMidYMid meet">
<metadata>
Created by potrace 1.15, written by Peter Selinger 2001-2017
</metadata>
<g transform="translate(0.000000,600.000000) scale(0.100000,-0.100000)"
fill="#16364b" stroke="none">
<path d="M2209 5417 c-56 -37 -99 -149 -99 -255 0 -100 72 -195 174 -228 41
-14 75 -16 193 -11 79 3 143 4 143 2 0 -3 -33 -55 -74 -117 -91 -139 -133
-222 -181 -358 -44 -127 -48 -185 -14 -235 28 -41 57 -55 110 -55 79 0 118 37
159 150 36 99 73 170 183 345 58 92 111 190 125 230 49 141 10 271 -102 335
-68 39 -131 46 -246 25 -52 -9 -111 -19 -131 -22 l-37 -5 11 39 c19 74 -16
149 -81 174 -41 16 -97 10 -133 -14z"/>
<path d="M3740 5204 c-87 -23 -157 -61 -179 -98 -25 -39 -28 -114 -7 -154 43
-82 114 -100 223 -57 45 17 83 25 108 23 l40 -3 -1 -65 c-1 -68 -33 -180 -85
-297 -42 -93 -45 -124 -19 -178 50 -104 197 -113 253 -16 41 68 126 281 147
366 42 167 13 316 -76 394 -101 89 -261 123 -404 85z"/>
<path d="M1780 4914 c-122 -22 -190 -38 -257 -60 -153 -52 -300 -138 -333
-195 -39 -71 -17 -174 46 -211 25 -14 33 -27 37 -59 7 -50 29 -84 68 -104 16
-9 107 -29 201 -46 256 -44 338 -68 437 -131 80 -50 174 -31 222 44 28 46 22
124 -14 172 -36 47 -155 119 -247 150 -76 25 -261 66 -299 66 -45 0 -17 18 67
44 55 17 110 26 150 26 94 0 163 36 198 102 31 60 7 146 -52 184 -26 18 -164
29 -224 18z"/>
<path d="M3170 4367 c-161 -45 -683 -248 -718 -280 -30 -27 -52 -76 -52 -114
1 -67 76 -143 142 -143 15 0 65 15 110 34 119 49 410 142 573 183 77 19 148
39 158 45 25 13 57 85 57 128 0 49 -32 113 -70 140 -45 32 -101 34 -200 7z"/>
<path d="M4259 4280 c-61 -11 -86 -25 -109 -63 -42 -68 -17 -164 52 -208 31
-19 43 -20 164 -14 155 8 247 -1 277 -26 33 -26 27 -116 -18 -296 -40 -161
-41 -202 -6 -252 12 -16 41 -37 66 -47 86 -33 159 13 188 118 8 29 28 103 45
163 59 210 64 298 23 405 -39 103 -119 173 -240 210 -53 17 -90 20 -230 19
-91 -1 -187 -5 -212 -9z"/>
<path d="M2115 3878 c-120 -39 -282 -70 -408 -77 -104 -7 -134 -12 -155 -28
-86 -63 -81 -211 8 -271 33 -23 41 -24 145 -19 158 8 529 79 598 114 48 24 69
69 65 139 -3 49 -10 69 -32 99 -51 66 -113 79 -221 43z"/>
<path d="M3684 3736 c-61 -20 -504 -239 -570 -283 -12 -8 -29 -29 -38 -48 -43
-90 9 -185 109 -201 52 -7 94 10 318 132 76 42 141 73 145 70 3 -4 -9 -39 -27
-79 -48 -105 -54 -132 -41 -173 29 -88 107 -129 186 -99 24 9 52 29 62 43 19
27 108 230 137 312 56 156 26 283 -79 331 -54 25 -115 23 -202 -5z"/>
<path d="M2110 3251 c-41 -4 -84 -11 -95 -18 -88 -50 -107 -179 -38 -245 45
-43 73 -48 265 -47 99 0 183 -2 186 -5 3 -3 0 -30 -6 -58 -16 -69 -2 -117 43
-157 74 -64 165 -63 231 3 40 40 55 88 61 202 5 83 3 95 -20 141 -39 76 -72
110 -140 142 -97 46 -258 60 -487 42z"/>
<path d="M4934 3249 c-51 -12 -117 -68 -147 -123 -18 -34 -22 -58 -22 -146 0
-60 -6 -114 -12 -126 -7 -11 -38 -43 -70 -69 -216 -182 -273 -249 -313 -369
-30 -92 -40 -166 -41 -308 0 -214 49 -346 151 -398 111 -56 241 -14 308 99 35
59 38 154 7 216 -23 47 -23 104 0 178 15 46 35 70 165 197 151 149 212 228
252 329 18 47 22 75 22 181 0 69 -5 143 -12 165 -35 122 -168 201 -288 174z"/>
<path d="M4256 3171 c-22 -11 -52 -36 -68 -55 -48 -58 -187 -156 -293 -207
-109 -52 -216 -83 -339 -98 -88 -11 -119 -27 -147 -81 -25 -46 -24 -86 4 -140
27 -54 83 -90 143 -90 68 0 206 28 300 61 281 99 591 317 624 439 34 125 -107
232 -224 171z"/>
<path d="M1217 2999 c-74 -39 -114 -142 -87 -224 7 -21 30 -58 52 -81 46 -50
49 -63 73 -361 18 -227 36 -339 72 -448 51 -158 88 -207 170 -231 98 -28 205
14 249 97 22 44 17 100 -16 171 -44 94 -59 179 -70 398 -24 455 -88 635 -249
689 -54 18 -150 13 -194 -10z"/>
<path d="M2055 2557 c-87 -35 -171 -114 -282 -271 -71 -100 -83 -141 -57 -204
20 -52 62 -83 118 -89 60 -7 110 19 149 77 51 76 143 170 166 170 4 0 13 -16
20 -35 6 -19 28 -47 47 -63 l34 -29 -25 -57 c-66 -148 -91 -350 -65 -527 15
-106 36 -144 97 -171 84 -37 180 -1 218 82 17 38 18 49 7 124 -15 102 -15 199
-1 251 6 22 27 75 46 119 28 61 34 87 30 118 -6 43 -47 103 -77 113 -17 6 -19
13 -14 63 5 51 2 65 -30 130 -46 94 -114 162 -189 191 -63 23 -144 27 -192 8z"/>
<path d="M3510 2205 c-150 -22 -714 -145 -750 -164 -113 -57 -131 -225 -34
-310 65 -58 87 -58 336 -1 291 67 455 98 567 106 l90 7 43 -44 c65 -67 146
-85 223 -50 79 36 122 114 112 206 -21 206 -244 301 -587 250z"/>
<path d="M4557 1586 c-21 -8 -65 -39 -97 -70 -33 -31 -76 -64 -96 -72 -21 -9
-94 -20 -163 -25 -311 -24 -436 -51 -594 -130 -150 -75 -366 -238 -398 -301
-16 -31 -25 -38 -49 -38 -43 0 -75 -15 -139 -64 -77 -60 -115 -77 -181 -83
-142 -13 -330 103 -464 287 -58 79 -89 105 -145 120 -86 23 -188 -26 -231
-111 -26 -50 -26 -128 0 -179 51 -100 216 -266 360 -362 272 -180 496 -210
736 -98 109 51 246 169 259 223 5 18 13 23 45 24 49 2 92 24 153 79 98 88 249
176 357 208 30 10 125 21 210 27 304 20 436 68 590 218 70 67 90 107 90 176
-1 73 -65 154 -138 175 -47 13 -58 12 -105 -4z"/>
</g>
</svg>
