<?xml version="1.0" standalone="no"?>
<!DOCTYPE svg PUBLIC "-//W3C//DTD SVG 20010904//EN"
 "http://www.w3.org/TR/2001/REC-SVG-20010904/DTD/svg10.dtd">
<svg version="1.0" xmlns="http://www.w3.org/2000/svg"
 width="600.000000pt" height="600.000000pt" viewBox="0 0 600.000000 600.000000"
 preserveAspectRatio="xMidYMid meet">
<metadata>
Created by potrace 1.15, written by Peter Selinger 2001-2017
</metadata>
<g transform="translate(0.000000,600.000000) scale(0.100000,-0.100000)"
fill="#16364b" stroke="none">
<path d="M2168 5437 c-33 -27 -52 -65 -72 -144 -39 -150 3 -262 121 -320 56
-27 63 -28 201 -27 78 1 142 -1 142 -5 0 -3 -23 -42 -51 -86 -102 -158 -184
-356 -196 -471 -12 -110 90 -198 190 -165 53 18 74 48 113 166 39 118 87 218
187 393 107 185 113 268 27 366 -63 71 -146 96 -320 96 l-108 0 10 36 c14 53
-12 117 -65 155 -53 38 -137 41 -179 6z"/>
<path d="M3695 5306 c-127 -31 -188 -87 -188 -173 0 -52 24 -90 74 -116 39
-20 73 -19 172 9 93 26 102 19 101 -77 0 -62 -9 -98 -52 -224 -29 -82 -52
-161 -52 -175 0 -41 42 -113 80 -138 28 -19 44 -23 83 -19 73 7 104 44 167
200 97 241 116 385 68 504 -14 34 -36 74 -49 90 -91 111 -248 157 -404 119z"/>
<path d="M1790 4898 c-36 -5 -104 -22 -151 -38 -94 -31 -357 -151 -402 -182
-89 -63 -73 -204 30 -253 41 -19 42 -22 43 -67 0 -77 56 -128 155 -142 114
-17 324 -58 382 -76 34 -10 94 -33 133 -49 82 -35 139 -39 189 -13 101 51 106
185 10 266 -90 76 -332 154 -488 157 -20 0 -45 4 -55 8 -36 14 145 72 250 80
107 9 141 27 173 94 27 56 27 106 -2 148 -41 62 -137 86 -267 67z"/>
<path d="M3075 4324 c-384 -126 -557 -200 -596 -255 -44 -62 -30 -173 28 -219
52 -41 84 -37 201 23 113 57 170 79 479 177 166 52 198 65 227 95 37 37 53 87
42 132 -14 54 -102 114 -166 113 -8 -1 -105 -30 -215 -66z"/>
<path d="M4255 4329 c-89 -26 -132 -130 -85 -207 37 -60 64 -69 228 -74 142
-5 198 -16 214 -41 15 -24 7 -175 -16 -290 -25 -129 -23 -165 13 -215 30 -43
84 -65 143 -60 86 9 115 55 149 243 29 166 30 318 0 406 -35 106 -107 177
-216 212 -100 33 -356 48 -430 26z"/>
<path d="M2185 3860 c-92 -25 -287 -48 -456 -54 -163 -5 -191 -16 -221 -82
-32 -74 -5 -161 64 -205 32 -20 42 -20 238 -15 273 8 481 39 544 81 46 31 68
80 63 143 -4 59 -27 97 -73 124 -47 26 -85 28 -159 8z"/>
<path d="M3670 3751 c-87 -28 -536 -257 -578 -295 -77 -69 -67 -197 19 -242
55 -28 111 -15 230 53 124 72 289 156 295 150 2 -2 -6 -26 -17 -54 -34 -80 -6
-158 72 -198 76 -40 147 -4 198 100 65 135 85 203 85 296 1 77 -2 89 -27 128
-51 77 -157 101 -277 62z"/>
<path d="M4925 3281 c-53 -24 -111 -90 -125 -143 -8 -27 -9 -69 -4 -118 13
-132 21 -117 -161 -295 -151 -148 -166 -166 -204 -245 -60 -124 -83 -223 -84
-355 -2 -182 48 -290 158 -341 137 -64 281 2 315 146 10 41 9 58 -5 107 -21
73 -15 131 23 215 24 53 46 79 133 158 207 188 256 256 280 387 14 74 5 272
-15 338 -20 63 -68 122 -120 146 -53 24 -139 24 -191 0z"/>
<path d="M2022 3221 c-97 -62 -95 -210 5 -272 35 -22 51 -24 218 -29 l180 -5
6 -73 c4 -61 9 -76 34 -102 70 -73 195 -61 253 24 32 47 46 134 32 202 -11 53
-56 125 -104 166 -77 67 -200 97 -421 104 -160 5 -172 4 -203 -15z"/>
<path d="M4286 3156 c-22 -8 -64 -39 -95 -69 -131 -127 -378 -252 -571 -288
-127 -23 -144 -30 -182 -70 -60 -63 -63 -140 -7 -204 44 -50 83 -59 187 -45
210 30 443 119 618 237 101 69 228 182 249 224 20 38 19 114 -2 151 -37 61
-125 90 -197 64z"/>
<path d="M1300 3021 c-56 -18 -93 -44 -120 -87 -52 -82 -49 -165 9 -238 34
-42 43 -88 66 -321 33 -337 63 -470 137 -618 50 -100 143 -145 243 -117 74 21
135 105 135 188 0 13 -13 57 -30 98 -41 104 -66 237 -85 454 -23 272 -43 376
-91 472 -60 119 -180 196 -264 169z"/>
<path d="M2100 2502 c-92 -31 -174 -80 -253 -153 -41 -37 -82 -85 -92 -105
-23 -48 -16 -120 15 -164 25 -34 89 -69 129 -70 41 0 104 38 141 86 35 45 118
114 138 114 6 0 21 -19 34 -42 13 -23 37 -48 55 -57 18 -9 33 -19 33 -24 0 -4
-10 -24 -23 -45 -73 -118 -114 -276 -103 -399 13 -161 58 -316 104 -359 80
-74 212 -34 241 73 9 34 8 52 -9 105 -50 164 -44 272 26 411 25 50 44 101 44
120 -1 51 -35 115 -75 138 -19 12 -35 22 -35 24 0 1 7 19 15 38 22 52 19 84
-13 152 -67 141 -222 206 -372 157z"/>
<path d="M3695 2190 c-66 -8 -190 -30 -545 -99 -85 -16 -201 -36 -257 -45
-123 -18 -167 -37 -200 -87 -91 -138 -4 -309 157 -309 28 0 153 18 278 41 125
22 250 44 277 49 28 5 110 21 184 35 146 27 206 31 217 14 12 -20 88 -49 129
-49 42 0 117 29 148 58 57 51 74 160 37 232 -44 87 -126 141 -243 160 -68 11
-80 11 -182 0z"/>
<path d="M4601 1627 c-19 -6 -59 -34 -90 -62 -102 -93 -155 -115 -342 -139
-285 -38 -365 -62 -518 -153 -109 -65 -320 -221 -350 -259 -12 -15 -25 -43
-31 -63 l-9 -36 -58 0 c-42 0 -69 -6 -98 -23 -134 -75 -187 -95 -265 -100
-172 -10 -301 63 -524 297 -100 105 -239 90 -301 -33 -52 -103 -28 -173 107
-312 152 -158 280 -241 458 -300 79 -26 96 -28 240 -28 141 1 162 3 233 27
104 36 223 97 274 142 28 24 49 53 60 85 16 46 19 48 48 43 54 -9 107 15 210
93 115 87 269 165 370 188 39 9 129 23 200 31 151 18 187 26 275 62 129 52
286 173 337 260 19 33 26 59 26 96 0 140 -119 227 -252 184z"/>
</g>
</svg>
