<?xml version="1.0" standalone="no"?>
<!DOCTYPE svg PUBLIC "-//W3C//DTD SVG 20010904//EN"
 "http://www.w3.org/TR/2001/REC-SVG-20010904/DTD/svg10.dtd">
<svg version="1.0" xmlns="http://www.w3.org/2000/svg"
 width="600.000000pt" height="600.000000pt" viewBox="0 0 600.000000 600.000000"
 preserveAspectRatio="xMidYMid meet">
<metadata>
Created by potrace 1.15, written by Peter Selinger 2001-2017
</metadata>
<g transform="translate(0.000000,600.000000) scale(0.100000,-0.100000)"
fill="#16364b" stroke="none">
<path d="M1944 5811 c-50 -23 -54 -28 -232 -301 -158 -243 -226 -368 -237
-431 -15 -89 41 -183 123 -207 81 -25 158 -9 289 56 141 71 511 352 537 407
33 70 8 158 -54 190 -34 18 -112 20 -143 4 -12 -7 -62 -41 -110 -77 -48 -35
-90 -62 -93 -59 -3 2 14 36 37 73 91 149 103 196 70 270 -35 77 -114 109 -187
75z"/>
<path d="M3003 5670 c-42 -25 -63 -68 -63 -128 0 -35 6 -57 21 -76 11 -14 87
-71 167 -125 246 -167 330 -246 388 -368 15 -32 29 -79 32 -105 4 -41 1 -50
-22 -71 -15 -14 -50 -30 -79 -37 -79 -18 -105 -30 -132 -62 -52 -61 -25 -154
60 -203 42 -25 53 -27 128 -23 144 7 253 80 317 213 63 126 61 234 -4 386 -47
109 -106 191 -211 295 -99 97 -196 167 -370 263 -123 69 -173 77 -232 41z"/>
<path d="M944 5396 c-131 -41 -282 -166 -339 -281 -28 -56 -30 -68 -30 -171 0
-107 1 -112 37 -185 61 -122 191 -236 283 -247 97 -10 176 48 177 131 1 58
-21 95 -92 157 -71 62 -90 93 -90 152 0 81 47 125 159 149 114 24 172 132 123
229 -36 73 -124 99 -228 66z"/>
<path d="M2856 5070 c-95 -29 -171 -129 -196 -258 -31 -153 46 -281 189 -314
58 -13 186 3 240 30 72 35 98 112 63 181 -17 33 -19 46 -11 76 22 77 -55 221
-140 264 -46 23 -108 32 -145 21z"/>
<path d="M4789 4911 c-39 -13 -88 -51 -111 -89 -19 -31 -20 -45 -15 -160 6
-150 34 -253 96 -349 93 -144 256 -197 395 -129 63 31 125 100 148 163 21 61
15 179 -12 238 -73 158 -387 362 -501 326z"/>
<path d="M1919 4695 c-139 -51 -200 -126 -179 -220 16 -71 60 -113 127 -122
30 -4 51 2 95 26 32 17 64 31 71 31 15 0 37 -41 37 -70 0 -26 48 -80 87 -96
71 -30 164 -1 208 64 76 112 -23 322 -178 380 -67 26 -208 29 -268 7z"/>
<path d="M2927 3979 c-105 -36 -192 -102 -228 -171 -70 -136 4 -300 169 -376
139 -65 368 -93 433 -55 33 20 69 86 69 126 0 32 -24 94 -45 117 -13 15 -10
18 25 34 53 23 83 67 88 130 5 71 -22 110 -109 152 -134 66 -288 83 -402 43z
m193 -289 c23 -7 22 -8 -10 -8 -19 0 -44 3 -55 8 -17 7 -15 9 10 8 17 0 41 -4
55 -8z"/>
<path d="M1150 3961 c-169 -25 -231 -55 -269 -133 -63 -131 29 -265 175 -256
30 1 54 1 54 -1 0 -2 -16 -26 -35 -53 -20 -27 -71 -106 -114 -176 -43 -70
-113 -181 -156 -247 -138 -210 -235 -423 -235 -513 0 -103 86 -192 184 -192
61 0 102 20 154 74 44 46 318 254 592 451 91 65 180 129 198 143 l32 24 0 -60
c0 -109 -30 -192 -223 -622 -111 -248 -153 -329 -231 -449 -60 -91 -69 -141
-37 -198 31 -53 66 -76 125 -81 105 -8 146 50 412 581 181 360 222 452 248
555 41 155 38 421 -4 520 -46 106 -141 156 -253 133 -91 -19 -178 -69 -327
-186 -89 -71 -99 -76 -75 -40 115 176 201 316 222 363 67 150 24 287 -107 345
-51 22 -232 32 -330 18z"/>
<path d="M4205 3762 c-127 -38 -216 -106 -260 -196 -87 -179 6 -371 204 -422
150 -38 290 35 406 211 55 83 105 209 105 266 0 57 -30 104 -83 132 -57 29
-287 35 -372 9z m93 -293 c-6 -17 -56 -44 -65 -35 -10 9 33 46 54 46 8 0 13
-5 11 -11z"/>
<path d="M3442 3408 c-78 -17 -129 -90 -193 -275 -45 -130 -35 -201 34 -243
38 -23 164 -28 229 -8 61 18 133 89 157 154 27 72 28 192 2 249 -43 95 -134
144 -229 123z"/>
<path d="M4965 3041 c-43 -26 -173 -166 -219 -234 -49 -75 -76 -153 -76 -220
0 -73 40 -152 98 -192 38 -26 52 -30 110 -30 113 1 235 71 302 175 65 101 86
224 55 327 -17 57 -93 156 -136 179 -38 19 -98 18 -134 -5z"/>
<path d="M3955 2581 c-81 -37 -135 -117 -135 -199 0 -33 15 -92 45 -176 25
-70 45 -129 45 -131 0 -2 -26 8 -57 23 -49 23 -72 27 -143 27 -75 0 -91 -3
-132 -27 -62 -37 -119 -104 -142 -167 -28 -80 -18 -212 28 -366 33 -109 95
-339 110 -407 15 -67 112 -137 191 -138 93 0 201 86 230 184 19 63 19 68 -4
154 -10 40 -18 72 -17 72 0 0 23 -11 50 -25 62 -31 139 -33 220 -5 99 34 161
91 192 177 40 113 -11 433 -128 805 -35 112 -73 164 -143 197 -58 27 -153 28
-210 2z"/>
<path d="M1992 2182 c-75 -27 -120 -68 -189 -175 -61 -94 -83 -144 -83 -198 0
-58 20 -108 60 -147 l30 -30 -32 -27 c-121 -102 -201 -281 -223 -496 -17 -167
60 -401 175 -532 113 -128 364 -267 570 -317 238 -56 480 7 650 170 145 140
184 263 114 365 l-25 37 35 45 c46 60 185 334 231 458 53 141 85 292 86 398 1
118 -20 176 -86 243 -69 69 -127 89 -260 88 -86 0 -113 -5 -199 -34 -54 -18
-177 -72 -275 -120 -167 -84 -176 -87 -183 -66 -3 11 -18 59 -32 106 -33 109
-81 174 -156 212 -74 37 -141 43 -208 20z m998 -505 c0 -2 -15 -48 -34 -103
-54 -159 -104 -280 -173 -416 -52 -104 -64 -137 -65 -177 0 -58 8 -86 34 -124
l20 -27 -73 -75 c-95 -98 -155 -128 -253 -128 -125 0 -235 44 -350 139 -95 79
-132 144 -156 274 -13 71 1 168 31 217 17 27 104 82 113 72 2 -2 16 -31 32
-63 37 -75 107 -154 159 -177 106 -49 229 6 260 116 17 60 8 111 -29 163 -14
19 -23 39 -21 43 3 4 74 47 157 97 198 117 348 190 348 169z"/>
</g>
</svg>
