<?xml version="1.0" standalone="no"?>
<!DOCTYPE svg PUBLIC "-//W3C//DTD SVG 20010904//EN"
 "http://www.w3.org/TR/2001/REC-SVG-20010904/DTD/svg10.dtd">
<svg version="1.0" xmlns="http://www.w3.org/2000/svg"
 width="600.000000pt" height="600.000000pt" viewBox="0 0 600.000000 600.000000"
 preserveAspectRatio="xMidYMid meet">
<metadata>
Created by potrace 1.15, written by Peter Selinger 2001-2017
</metadata>
<g transform="translate(0.000000,600.000000) scale(0.100000,-0.100000)"
fill="#16364b" stroke="none">
<path d="M2580 5492 c-45 -24 -102 -107 -139 -202 -39 -103 -46 -158 -26 -225
40 -141 157 -177 458 -141 59 7 109 11 110 10 2 -2 -49 -56 -113 -121 -89 -90
-139 -153 -212 -263 -94 -142 -180 -299 -193 -351 -10 -39 29 -138 70 -179
l35 -35 342 0 c240 0 370 -4 433 -14 111 -17 154 -10 199 32 63 60 67 148 10
209 -34 34 -60 43 -199 64 -82 12 -398 27 -508 24 -5 0 8 24 29 53 73 101 200
240 314 345 110 100 181 176 200 213 20 37 29 106 19 143 -14 52 -70 110 -137
143 -49 24 -71 28 -162 31 -66 2 -157 -4 -245 -16 -77 -11 -142 -18 -145 -15
-3 3 12 36 33 74 42 77 48 132 20 180 -34 57 -126 76 -193 41z"/>
<path d="M1653 5126 c-197 -64 -434 -249 -560 -439 -85 -127 -92 -193 -30
-264 52 -60 72 -64 279 -57 216 8 263 0 273 -45 3 -15 5 -75 3 -132 -2 -93 0
-108 20 -141 25 -39 74 -68 119 -68 71 1 156 68 169 135 3 19 4 90 3 157 -4
116 -6 128 -37 190 -54 110 -151 177 -299 207 l-83 17 27 26 c46 43 153 107
205 123 69 20 104 48 124 100 32 85 5 162 -69 196 -52 23 -56 23 -144 -5z"/>
<path d="M4230 4723 c-92 -15 -279 -95 -361 -155 -68 -49 -85 -118 -48 -194
45 -94 129 -109 242 -43 113 65 246 117 267 104 20 -13 -36 -163 -151 -404
-103 -215 -104 -238 -8 -352 71 -85 66 -84 374 -84 l270 0 -3 -38 c-5 -56 -51
-182 -126 -349 -74 -165 -81 -207 -44 -266 22 -36 85 -71 127 -72 14 0 45 10
69 22 43 20 48 28 107 152 77 163 108 244 140 371 52 205 42 315 -36 400 -78
85 -188 110 -436 99 -125 -5 -163 -4 -163 5 0 7 29 74 64 150 91 195 118 279
124 383 4 80 3 92 -22 140 -49 97 -132 138 -276 136 -47 0 -96 -3 -110 -5z"/>
<path d="M2020 4006 c-56 -30 -338 -128 -437 -152 -123 -30 -147 -43 -174 -95
-40 -80 -9 -176 73 -219 l46 -24 104 23 c206 46 527 163 583 212 21 19 37 45
44 72 26 106 -47 197 -159 197 -30 -1 -66 -7 -80 -14z"/>
<path d="M3763 3705 c-133 -36 -378 -197 -418 -275 -48 -93 20 -200 127 -200
38 0 54 6 90 34 112 89 228 158 228 137 0 -20 -75 -224 -127 -346 l-55 -130
-58 -28 c-98 -46 -135 -139 -91 -231 46 -93 132 -111 250 -51 38 19 147 69
242 111 282 124 339 175 339 303 0 123 -66 189 -182 178 -32 -3 -58 -2 -58 1
0 4 12 43 25 87 53 167 41 269 -40 350 -69 69 -162 89 -272 60z"/>
<path d="M2500 3444 c-159 -31 -390 -99 -431 -128 -61 -42 -78 -135 -36 -196
61 -90 125 -99 282 -41 119 44 261 78 287 69 22 -9 9 -75 -38 -187 -84 -201
-87 -223 -37 -290 48 -63 138 -78 202 -32 35 25 85 126 144 286 33 93 40 126
45 211 4 93 2 106 -20 155 -52 112 -121 152 -273 155 -55 1 -111 0 -125 -2z"/>
<path d="M1120 3153 c-13 -3 -47 -14 -75 -25 -89 -35 -125 -84 -125 -171 0
-104 74 -191 176 -205 46 -7 49 -9 52 -38 2 -16 -6 -120 -18 -229 -26 -256
-26 -432 -1 -564 23 -117 36 -145 90 -194 91 -82 247 -54 300 55 11 24 33 51
49 60 31 18 29 15 102 172 66 144 162 286 246 366 l69 65 8 -100 c13 -172 -8
-460 -45 -619 -29 -124 -22 -169 32 -219 41 -39 43 -39 106 -35 53 3 68 9 93
32 35 33 43 53 70 161 66 265 90 751 45 915 -20 71 -67 141 -117 174 -146 94
-382 -7 -567 -244 -109 -139 -102 -134 -96 -70 31 296 32 446 1 532 -23 66
-84 131 -147 158 -53 23 -187 36 -248 23z"/>
<path d="M4845 2773 c-11 -2 -30 -6 -43 -9 -13 -2 -43 -23 -67 -45 -52 -48
-78 -114 -74 -191 l3 -53 -39 -13 c-22 -8 -71 -20 -110 -28 -173 -37 -318
-110 -384 -193 -80 -101 -122 -227 -122 -371 1 -142 32 -246 111 -361 40 -59
48 -79 30 -79 -5 0 -25 -14 -45 -31 l-36 -32 -87 33 c-158 58 -230 79 -295 86
-154 16 -325 -50 -463 -179 -67 -62 -246 -285 -261 -325 -3 -7 -23 -22 -43
-32 -21 -11 -60 -38 -86 -61 -53 -45 -88 -62 -114 -54 -30 10 -100 88 -137
153 -41 73 -98 228 -108 293 -19 126 -121 200 -234 170 -120 -32 -167 -126
-136 -276 88 -429 364 -755 640 -755 108 0 193 43 319 161 35 32 68 59 73 59
5 0 29 13 54 28 31 20 65 58 109 123 79 116 208 251 264 279 60 28 93 26 235
-22 120 -39 132 -42 251 -42 121 -1 127 0 191 31 60 30 148 105 171 148 6 9
13 37 16 62 6 42 10 47 46 60 52 18 99 55 127 100 18 28 23 52 23 102 0 76
-22 127 -83 194 -53 58 -71 98 -71 156 0 48 2 51 38 70 20 10 104 37 186 60
237 66 342 133 400 254 36 77 49 156 42 249 -10 133 -61 215 -160 258 -46 20
-101 30 -131 23z"/>
<path d="M3110 2475 c-91 -15 -455 -112 -490 -130 -30 -16 -73 -61 -90 -95
-18 -33 -16 -119 3 -155 30 -58 103 -105 162 -105 14 0 88 15 163 34 216 54
433 93 452 81 5 -3 -2 -37 -16 -76 -34 -97 -24 -149 39 -217 53 -55 154 -73
222 -39 89 43 165 239 153 390 -10 118 -78 220 -181 274 -98 49 -262 64 -417
38z"/>
</g>
</svg>
