<?xml version="1.0" standalone="no"?>
<!DOCTYPE svg PUBLIC "-//W3C//DTD SVG 20010904//EN"
 "http://www.w3.org/TR/2001/REC-SVG-20010904/DTD/svg10.dtd">
<svg version="1.0" xmlns="http://www.w3.org/2000/svg"
 width="600.000000pt" height="600.000000pt" viewBox="0 0 600.000000 600.000000"
 preserveAspectRatio="xMidYMid meet">
<metadata>
Created by potrace 1.15, written by Peter Selinger 2001-2017
</metadata>
<g transform="translate(0.000000,600.000000) scale(0.100000,-0.100000)"
fill="#16364b" stroke="none">
<path d="M1555 5760 c-33 -13 -61 -52 -78 -105 -69 -216 -109 -451 -93 -538 8
-45 47 -92 97 -117 46 -24 74 -25 136 -4 108 36 202 134 364 378 86 128 99
154 99 190 0 78 -64 126 -140 106 -46 -12 -63 -32 -173 -199 -45 -69 -87 -126
-93 -128 -12 -4 8 92 51 248 18 65 18 67 -1 104 -32 61 -109 90 -169 65z"/>
<path d="M870 5497 c-66 -19 -113 -44 -161 -85 -94 -80 -158 -227 -146 -336
10 -103 79 -213 164 -263 77 -45 164 -14 179 64 10 51 -3 80 -53 129 -43 42
-45 47 -41 88 6 49 43 110 85 137 31 21 84 25 115 8 58 -31 140 0 169 64 23
52 23 70 2 114 -33 70 -200 113 -313 80z"/>
<path d="M3381 5404 c-33 -27 -53 -80 -44 -116 9 -35 28 -58 76 -92 l44 -31
-18 -35 c-24 -43 -23 -64 1 -118 30 -65 67 -108 131 -151 111 -74 215 -77 285
-7 66 66 55 149 -37 286 -69 103 -129 161 -242 235 -101 65 -145 72 -196 29z"/>
<path d="M2303 5240 c-52 -32 -57 -50 -63 -240 -5 -155 -8 -180 -28 -222 -31
-62 -78 -102 -178 -150 -108 -52 -129 -75 -129 -140 0 -45 4 -53 39 -85 36
-33 42 -35 90 -31 92 9 284 115 363 200 93 102 116 189 111 423 -2 144 -6 175
-21 198 -41 63 -123 84 -184 47z"/>
<path d="M3025 5173 c-61 -14 -94 -30 -137 -70 -169 -159 -146 -394 44 -444
92 -25 247 34 283 106 29 60 28 232 -2 297 -38 84 -113 128 -188 111z"/>
<path d="M4760 4808 c-78 -41 -85 -58 -84 -221 0 -103 5 -160 18 -207 56 -206
168 -313 331 -314 126 -2 221 71 245 189 40 194 -149 460 -398 558 -54 22 -59
21 -112 -5z m243 -459 c4 -16 3 -18 -8 -9 -7 6 -15 20 -18 31 -4 16 -3 18 8 9
7 -6 15 -20 18 -31z"/>
<path d="M2725 4176 c-139 -44 -214 -141 -202 -264 8 -96 59 -166 147 -205 63
-29 187 -34 270 -13 128 33 296 136 340 209 37 61 17 153 -42 190 -28 18 -211
72 -292 86 -78 14 -171 13 -221 -3z"/>
<path d="M1050 4069 c-69 -28 -110 -106 -90 -177 17 -66 66 -99 169 -113 68
-10 161 -36 161 -46 0 -19 -163 -120 -329 -206 -86 -44 -167 -89 -180 -101
-54 -47 -67 -139 -28 -197 42 -63 114 -83 194 -55 53 19 233 109 306 153 32
19 60 34 61 32 2 -2 12 -25 24 -50 41 -94 145 -134 236 -89 l46 22 32 -28 c78
-65 208 -85 288 -44 120 61 131 245 22 342 -69 60 -113 73 -248 73 l-121 0 26
50 c34 67 36 170 4 231 -28 53 -93 110 -157 140 -121 55 -348 90 -416 63z"/>
<path d="M4240 3780 c-146 -22 -259 -102 -296 -210 -54 -157 7 -330 140 -395
144 -71 304 -25 412 118 60 79 89 144 107 242 26 142 -13 204 -148 233 -77 17
-154 21 -215 12z m44 -305 c-7 -18 -36 -35 -58 -35 -22 0 -9 30 18 40 33 13
46 12 40 -5z"/>
<path d="M5077 3442 c-168 -66 -272 -204 -271 -359 0 -48 7 -75 33 -127 58
-118 155 -170 277 -149 248 43 408 294 312 488 -23 46 -110 140 -150 161 -42
22 -124 17 -201 -14z"/>
<path d="M3443 3390 c-77 -24 -223 -249 -223 -345 0 -40 5 -52 34 -81 38 -38
73 -43 164 -23 112 24 201 160 202 307 0 106 -81 171 -177 142z"/>
<path d="M2433 3155 c-80 -22 -124 -48 -174 -102 -60 -64 -81 -101 -129 -223
-62 -156 -93 -197 -197 -266 -397 -263 -577 -545 -577 -904 0 -259 58 -459
173 -597 86 -104 340 -251 505 -293 289 -73 654 43 877 277 127 135 206 290
260 509 49 202 60 288 66 506 9 337 -28 468 -175 628 -38 41 -75 86 -82 99
-25 49 -153 214 -203 263 -97 95 -230 135 -344 103z m127 -446 c22 -28 48 -69
58 -92 11 -23 54 -78 96 -122 136 -142 161 -207 160 -415 -1 -113 -6 -159 -32
-279 -43 -195 -67 -274 -110 -356 -81 -154 -262 -280 -445 -308 -209 -33 -468
111 -523 290 -22 70 -19 220 6 318 29 115 98 248 165 322 31 34 100 92 153
129 53 37 131 102 173 144 102 102 143 174 230 398 13 32 24 28 69 -29z"/>
<path d="M693 2559 c-39 -11 -83 -62 -84 -97 -4 -83 12 -105 115 -166 209
-125 331 -269 312 -372 -24 -123 -184 -19 -280 181 -57 119 -68 132 -118 146
-74 19 -158 -45 -158 -121 0 -55 124 -261 220 -364 81 -88 197 -146 291 -146
61 0 148 38 201 88 116 109 138 278 55 437 -57 110 -286 318 -427 389 -59 30
-88 36 -127 25z"/>
<path d="M4238 2190 c-54 -10 -105 -53 -119 -101 -10 -30 -16 -38 -28 -33 -79
32 -135 29 -187 -11 -49 -37 -68 -79 -67 -150 1 -65 66 -386 90 -447 17 -43
62 -85 101 -95 15 -3 41 -17 57 -31 71 -59 158 -68 243 -26 62 31 84 57 112
132 29 76 42 281 32 493 -7 159 -9 168 -34 201 -43 56 -120 82 -200 68z"/>
</g>
</svg>
