<?xml version="1.0" standalone="no"?>
<!DOCTYPE svg PUBLIC "-//W3C//DTD SVG 20010904//EN"
 "http://www.w3.org/TR/2001/REC-SVG-20010904/DTD/svg10.dtd">
<svg version="1.0" xmlns="http://www.w3.org/2000/svg"
 width="600.000000pt" height="600.000000pt" viewBox="0 0 600.000000 600.000000"
 preserveAspectRatio="xMidYMid meet">
<metadata>
Created by potrace 1.15, written by Peter Selinger 2001-2017
</metadata>
<g transform="translate(0.000000,600.000000) scale(0.100000,-0.100000)"
fill="#16364b" stroke="none">
<path d="M1567 5800 c-41 -12 -54 -26 -73 -78 -9 -26 -47 -126 -85 -222 -37
-97 -72 -202 -78 -234 -19 -102 13 -171 93 -201 40 -16 48 -16 107 0 120 30
263 147 416 339 79 99 92 135 69 191 -19 45 -51 72 -94 81 -46 9 -83 -10 -124
-64 -56 -76 -140 -174 -144 -169 -2 2 12 50 32 108 40 117 40 165 2 206 -19
21 -79 56 -90 52 -2 0 -16 -5 -31 -9z"/>
<path d="M768 5527 c-129 -55 -213 -158 -238 -295 -24 -137 37 -288 147 -362
40 -27 55 -31 91 -27 50 5 86 35 102 84 18 51 3 92 -51 145 -40 39 -49 54 -49
82 0 66 40 130 102 162 39 20 67 17 113 -11 47 -28 84 -31 130 -9 36 17 65 65
65 107 0 37 -43 82 -108 113 -47 23 -73 28 -152 31 -82 3 -102 1 -152 -20z"/>
<path d="M2334 5356 c-19 -19 -34 -42 -34 -52 -3 -375 -10 -427 -75 -560 -42
-87 -92 -134 -190 -181 -92 -43 -116 -68 -117 -120 0 -50 15 -79 55 -103 46
-29 78 -25 170 19 144 69 236 172 304 337 57 141 75 245 77 440 1 187 -5 214
-56 240 -49 25 -96 18 -134 -20z"/>
<path d="M3424 5346 c-38 -38 -45 -85 -18 -124 8 -12 17 -38 19 -58 8 -90 113
-227 211 -274 64 -31 138 -37 184 -13 46 24 83 94 75 143 -10 56 -50 130 -109
202 -47 57 -69 73 -147 112 -118 59 -165 62 -215 12z"/>
<path d="M2981 5168 c-87 -20 -190 -160 -199 -274 -9 -105 20 -164 101 -205
55 -29 140 -23 224 15 83 38 101 60 114 137 35 212 -77 364 -240 327z"/>
<path d="M4738 4795 c-14 -8 -36 -31 -48 -51 -21 -34 -22 -44 -17 -162 4 -105
10 -143 36 -219 71 -217 179 -326 322 -326 137 0 238 107 239 254 0 185 -146
382 -367 493 -59 29 -123 34 -165 11z m268 -436 c8 -17 13 -36 11 -42 -3 -10
-47 62 -47 78 0 13 21 -8 36 -36z"/>
<path d="M2680 4208 c-74 -29 -151 -106 -169 -170 -18 -62 -10 -132 20 -192
75 -151 260 -178 487 -71 86 41 186 115 213 159 37 61 13 172 -47 211 -25 16
-112 46 -200 69 -91 23 -235 20 -304 -6z"/>
<path d="M1071 4093 c-54 -28 -76 -66 -75 -128 0 -77 39 -125 115 -143 30 -7
82 -20 117 -29 34 -8 62 -21 62 -27 0 -18 -123 -95 -209 -131 -42 -18 -113
-44 -158 -59 -118 -39 -164 -96 -149 -184 11 -68 67 -121 137 -129 88 -10 358
101 487 200 l59 46 6 -40 c3 -22 18 -59 34 -82 15 -23 31 -50 35 -60 18 -44
72 -109 115 -138 51 -36 147 -69 198 -69 93 0 192 61 235 146 21 41 25 63 25
134 -1 75 -4 91 -30 138 -79 144 -248 213 -405 163 -35 -11 -66 -19 -67 -17
-2 2 1 15 7 30 17 45 12 126 -11 173 -40 82 -154 155 -301 192 -122 31 -187
35 -227 14z"/>
<path d="M4232 3759 c-144 -28 -284 -180 -299 -324 -14 -138 92 -266 244 -294
177 -34 371 118 428 334 45 174 1 242 -178 279 -82 17 -128 19 -195 5z m48
-314 c-26 -28 -50 -33 -50 -10 0 17 27 34 54 35 18 0 18 -2 -4 -25z"/>
<path d="M5170 3530 c-117 -43 -246 -156 -300 -264 -24 -46 -30 -73 -30 -121
0 -161 102 -273 259 -283 156 -11 288 78 347 233 27 71 25 194 -4 258 -31 70
-127 175 -171 187 -44 12 -35 13 -101 -10z m-18 -362 c-7 -7 -12 -8 -12 -2 0
14 12 26 19 19 2 -3 -1 -11 -7 -17z"/>
<path d="M3414 3391 c-43 -26 -93 -94 -148 -200 -59 -114 -61 -158 -12 -207
39 -39 72 -43 155 -18 124 36 238 242 199 359 -25 76 -123 109 -194 66z"/>
<path d="M2510 3374 c-144 -52 -275 -215 -358 -446 -67 -183 -95 -217 -253
-304 -110 -61 -181 -114 -264 -198 -133 -134 -240 -311 -291 -482 -23 -75 -27
-109 -28 -219 -1 -162 19 -256 81 -382 91 -186 324 -387 544 -468 195 -72 535
-25 765 106 207 118 354 332 444 644 39 134 48 195 65 425 25 336 18 436 -41
650 -36 128 -107 321 -146 400 -46 91 -162 207 -251 250 -84 41 -193 51 -267
24z m173 -472 c8 -20 32 -77 52 -126 20 -49 49 -132 63 -185 25 -93 26 -105
26 -361 -1 -288 -12 -387 -61 -545 -54 -171 -136 -279 -286 -376 -129 -83
-297 -107 -419 -60 -133 51 -270 171 -321 279 -36 77 -47 190 -27 281 26 124
136 305 233 384 26 21 84 59 129 84 270 151 360 255 458 529 27 75 56 147 65
161 l17 25 28 -27 c15 -14 34 -43 43 -63z"/>
<path d="M484 2356 c-19 -19 -34 -43 -34 -53 0 -11 -11 -30 -25 -43 -40 -38
-42 -78 -5 -182 74 -212 168 -377 269 -470 77 -71 137 -100 226 -106 62 -4 77
-1 123 22 115 58 160 203 112 359 -50 163 -212 321 -471 461 -108 58 -146 61
-195 12z m326 -386 c65 -66 120 -156 120 -198 0 -46 -69 -9 -128 70 -40 52
-122 206 -122 228 0 18 59 -27 130 -100z"/>
<path d="M4293 2091 c-23 -11 -52 -35 -64 -53 l-22 -34 -45 23 c-56 28 -93 29
-148 2 -56 -26 -88 -77 -88 -138 1 -25 13 -124 27 -220 23 -150 31 -181 56
-220 16 -25 34 -58 39 -72 16 -40 61 -88 105 -110 58 -30 149 -23 207 15 85
56 139 232 162 528 11 146 11 159 -7 198 -39 86 -136 121 -222 81z"/>
</g>
</svg>
