<?xml version="1.0" standalone="no"?>
<!DOCTYPE svg PUBLIC "-//W3C//DTD SVG 20010904//EN"
 "http://www.w3.org/TR/2001/REC-SVG-20010904/DTD/svg10.dtd">
<svg version="1.0" xmlns="http://www.w3.org/2000/svg"
 width="600.000000pt" height="600.000000pt" viewBox="0 0 600.000000 600.000000"
 preserveAspectRatio="xMidYMid meet">
<metadata>
Created by potrace 1.15, written by Peter Selinger 2001-2017
</metadata>
<g transform="translate(0.000000,600.000000) scale(0.100000,-0.100000)"
fill="#16364b" stroke="none">
<path d="M1510 5761 c-25 -9 -130 -49 -234 -87 -219 -80 -256 -105 -256 -171
0 -46 28 -78 81 -93 44 -13 211 -13 419 0 194 12 213 20 218 90 4 54 -24 88
-81 97 -32 5 -36 8 -22 15 9 6 23 25 31 44 12 29 12 39 0 68 -24 58 -73 70
-156 37z"/>
<path d="M2374 5414 c-45 -22 -54 -51 -54 -170 0 -295 -60 -525 -165 -629 -23
-23 -74 -61 -114 -85 -78 -45 -107 -86 -95 -135 8 -31 49 -65 78 -65 30 0 152
60 211 105 176 133 266 395 266 781 0 88 -4 152 -11 165 -7 11 -27 27 -45 35
-41 17 -33 17 -71 -2z"/>
<path d="M3512 5305 c-84 -61 -58 -210 55 -317 61 -56 99 -76 158 -84 108 -15
164 67 119 174 -25 60 -123 181 -169 208 -56 32 -132 41 -163 19z"/>
<path d="M3019 5135 c-63 -20 -141 -93 -175 -161 -36 -75 -44 -183 -16 -233
21 -40 73 -71 117 -71 43 0 125 41 172 86 48 46 83 131 90 219 12 133 -66 199
-188 160z m9 -215 c-10 -30 -25 -46 -34 -37 -8 7 25 67 36 67 5 0 5 -13 -2
-30z"/>
<path d="M4783 4750 c-13 -5 -32 -24 -44 -42 -19 -31 -20 -44 -16 -203 7 -243
39 -342 135 -409 91 -64 214 -30 263 72 47 96 43 205 -12 314 -37 74 -187 233
-244 259 -45 21 -51 21 -82 9z"/>
<path d="M2690 4211 c-146 -32 -205 -169 -122 -286 41 -58 125 -112 200 -127
120 -24 268 24 373 120 44 40 52 53 56 93 6 57 -15 102 -59 125 -46 24 -261
73 -343 78 -38 3 -86 1 -105 -3z"/>
<path d="M1123 4121 c-44 -28 -56 -55 -50 -113 3 -26 2 -48 -3 -48 -5 0 -22
-12 -39 -26 -32 -26 -48 -76 -36 -112 10 -34 77 -91 145 -125 54 -27 76 -32
135 -32 59 0 79 5 124 30 59 32 105 87 122 145 13 43 0 100 -34 151 -72 107
-281 182 -364 130z"/>
<path d="M5207 3839 c-88 -21 -175 -90 -210 -169 -28 -62 -34 -189 -14 -261
32 -108 98 -177 196 -206 109 -31 250 13 348 109 144 142 134 340 -22 461 -95
73 -104 77 -185 76 -41 -1 -92 -5 -113 -10z m118 -309 c6 -10 -29 -50 -45 -50
-14 0 -24 26 -16 45 6 17 51 21 61 5z"/>
<path d="M4217 3779 c-92 -22 -197 -101 -237 -179 -64 -126 -36 -290 65 -379
66 -57 112 -76 195 -76 192 0 323 151 346 398 13 143 -15 193 -123 227 -69 21
-177 25 -246 9z m73 -284 c0 -22 -34 -65 -50 -65 -28 0 -25 25 6 49 26 20 44
27 44 16z"/>
<path d="M3465 3376 c-17 -7 -43 -28 -59 -46 -38 -45 -137 -253 -138 -289 -1
-40 25 -78 60 -85 96 -22 254 158 269 308 5 48 3 56 -23 84 -35 38 -69 46
-109 28z"/>
<path d="M1555 3135 c-365 -65 -523 -152 -615 -338 -105 -214 -71 -433 94
-598 73 -73 115 -99 252 -155 231 -94 274 -140 405 -437 87 -194 130 -262 240
-374 69 -69 146 -115 240 -140 94 -25 345 -23 504 5 93 16 180 22 385 26 627
13 858 94 1262 443 252 218 366 462 356 762 -3 105 -6 122 -35 183 -56 119
-264 306 -409 368 -147 63 -306 64 -416 2 -18 -11 -73 -42 -123 -71 -136 -78
-248 -110 -409 -118 -297 -14 -373 6 -634 164 -86 52 -193 114 -237 138 -275
150 -550 195 -860 140z m381 -376 c174 -31 284 -79 493 -218 213 -141 371
-207 575 -237 55 -8 122 -22 148 -31 45 -14 54 -14 175 12 352 73 428 98 588
195 105 63 122 67 180 41 67 -30 182 -144 196 -195 31 -114 -67 -323 -223
-472 -204 -195 -287 -236 -613 -302 -240 -49 -310 -55 -531 -49 -140 3 -235 1
-310 -9 -145 -18 -298 -18 -360 1 -57 17 -108 56 -148 114 -15 22 -63 121
-106 220 -42 100 -93 206 -111 237 -97 159 -241 265 -468 345 -103 36 -147 70
-157 124 -12 66 34 139 105 167 39 15 179 49 236 58 76 12 264 11 331 -1z"/>
<path d="M415 2124 c-28 -30 -32 -72 -11 -112 8 -15 37 -75 65 -133 56 -118
127 -206 195 -242 29 -15 60 -21 107 -22 57 0 70 4 102 28 49 37 65 89 47 152
-25 88 -116 173 -311 290 -123 74 -156 80 -194 39z"/>
<path d="M4996 1415 c-15 -14 -36 -25 -48 -25 -32 0 -85 -29 -103 -57 -39 -60
-3 -247 60 -310 83 -83 191 -40 230 91 27 91 46 231 35 263 -22 63 -124 85
-174 38z"/>
</g>
</svg>
