<?xml version="1.0" standalone="no"?>
<!DOCTYPE svg PUBLIC "-//W3C//DTD SVG 20010904//EN"
 "http://www.w3.org/TR/2001/REC-SVG-20010904/DTD/svg10.dtd">
<svg version="1.0" xmlns="http://www.w3.org/2000/svg"
 width="600.000000pt" height="600.000000pt" viewBox="0 0 600.000000 600.000000"
 preserveAspectRatio="xMidYMid meet">
<metadata>
Created by potrace 1.15, written by Peter Selinger 2001-2017
</metadata>
<g transform="translate(0.000000,600.000000) scale(0.100000,-0.100000)"
fill="#16364b" stroke="none">
<path d="M2135 5421 c-47 -21 -69 -51 -96 -129 -29 -84 -27 -161 5 -216 46
-79 134 -113 311 -120 98 -4 110 -7 109 -23 -1 -10 -34 -119 -73 -243 -78
-241 -82 -277 -43 -329 10 -14 39 -34 63 -44 38 -16 51 -17 88 -7 64 17 96 54
121 141 12 41 49 162 81 269 69 223 80 295 55 355 -32 76 -66 114 -131 146
-61 30 -67 31 -174 27 l-111 -3 0 52 c0 44 -5 58 -31 87 -28 32 -79 56 -119
56 -8 0 -33 -9 -55 -19z"/>
<path d="M3538 5415 c-64 -21 -100 -68 -106 -138 -3 -42 1 -58 20 -86 42 -62
71 -76 151 -74 85 2 113 -12 122 -60 9 -48 -11 -148 -51 -252 -20 -49 -35
-106 -36 -126 -1 -78 60 -139 140 -139 87 0 129 42 185 185 53 133 69 214 65
325 -3 84 -7 104 -36 162 -41 84 -120 158 -200 189 -73 28 -190 34 -254 14z"/>
<path d="M1663 4840 c-101 -23 -275 -81 -347 -115 -44 -21 -59 -34 -76 -71
-55 -112 29 -240 153 -232 52 3 53 2 32 -26 -23 -31 -19 -122 7 -164 27 -44
78 -66 188 -82 228 -31 304 -44 406 -65 91 -20 118 -22 152 -13 86 22 141 125
112 212 -26 80 -97 103 -473 157 -125 18 -224 36 -220 40 5 4 53 19 108 34 75
19 121 25 185 24 90 -2 122 8 168 51 74 70 46 196 -54 246 -56 27 -230 30
-341 4z"/>
<path d="M3035 4334 c-110 -53 -272 -129 -359 -170 -88 -41 -169 -82 -179 -92
-74 -67 -57 -189 33 -234 72 -37 56 -43 615 218 105 49 200 96 212 105 81 57
66 218 -23 255 -61 26 -91 17 -299 -82z"/>
<path d="M4269 4419 c-20 -6 -52 -26 -70 -45 -31 -32 -34 -41 -34 -92 0 -101
64 -152 191 -152 120 -1 193 -24 214 -68 16 -37 14 -171 -6 -287 -16 -95 -16
-102 1 -138 46 -98 186 -117 249 -34 51 67 83 355 55 489 -34 158 -139 275
-282 312 -72 19 -272 28 -318 15z"/>
<path d="M2200 3869 c-44 -18 -222 -58 -305 -68 -44 -6 -130 -12 -192 -14
-132 -5 -169 -22 -202 -91 -27 -54 -26 -81 2 -136 39 -77 63 -85 267 -84 125
1 198 6 255 18 115 25 286 82 326 109 93 61 91 200 -3 257 -36 22 -106 26
-148 9z"/>
<path d="M3675 3786 c-37 -12 -252 -110 -516 -234 -116 -55 -144 -82 -155
-149 -6 -42 13 -102 44 -136 25 -28 87 -57 121 -57 19 0 112 41 238 105 114
58 211 105 215 105 5 0 8 -8 8 -17 0 -32 39 -82 79 -103 72 -36 156 -18 195
42 26 40 56 170 56 242 0 133 -64 208 -184 213 -33 1 -79 -3 -101 -11z"/>
<path d="M4970 3401 c-73 -24 -114 -59 -149 -128 -19 -38 -21 -57 -19 -165 3
-146 7 -139 -139 -311 -123 -147 -229 -331 -294 -514 -30 -84 -37 -238 -14
-300 48 -126 199 -200 324 -158 99 32 141 100 147 235 6 155 45 235 200 408
192 213 234 298 241 482 9 227 -32 364 -127 422 -48 29 -128 43 -170 29z"/>
<path d="M2001 3189 c-52 -23 -81 -69 -81 -130 0 -100 72 -153 222 -163 51 -4
127 -9 170 -12 l76 -6 6 -42 c4 -23 16 -56 26 -74 21 -35 87 -71 129 -72 45 0
106 38 130 81 21 36 23 51 19 132 -3 78 -8 100 -33 145 -51 95 -142 142 -285
148 -299 13 -337 12 -379 -7z"/>
<path d="M4331 3158 c-20 -5 -66 -38 -105 -75 -194 -180 -385 -265 -688 -308
-78 -11 -107 -19 -134 -40 -91 -70 -83 -196 16 -248 92 -48 485 27 685 132
199 103 425 321 425 410 0 89 -105 156 -199 129z"/>
<path d="M1258 2980 c-57 -31 -82 -74 -86 -150 -3 -55 0 -73 22 -112 29 -55
40 -109 61 -313 30 -296 59 -419 139 -590 46 -97 83 -148 125 -169 96 -49 207
-10 252 89 28 62 24 112 -16 187 -56 107 -83 241 -120 593 -31 295 -77 409
-187 466 -50 25 -140 25 -190 -1z"/>
<path d="M2077 2456 c-78 -32 -123 -65 -202 -144 -70 -71 -92 -118 -81 -181 9
-59 74 -111 139 -111 51 0 98 19 137 55 84 78 152 105 165 66 10 -32 81 -89
121 -97 46 -8 119 20 147 58 33 44 34 115 3 176 -33 64 -108 140 -172 172 -73
36 -179 39 -257 6z"/>
<path d="M3760 2164 c-14 -3 -90 -18 -170 -34 -80 -16 -210 -41 -290 -55 -161
-29 -424 -89 -485 -111 -51 -18 -92 -56 -116 -108 -25 -56 -24 -93 7 -154 28
-56 90 -105 148 -116 35 -7 218 24 446 75 288 65 517 109 563 109 28 0 58 -7
74 -17 40 -26 143 -24 180 3 51 38 73 81 73 143 -1 98 -60 190 -154 239 -44
22 -65 26 -151 28 -55 1 -111 0 -125 -2z"/>
<path d="M2295 1990 c-33 -13 -71 -62 -91 -115 -15 -40 -19 -76 -18 -175 0
-109 4 -136 28 -210 37 -112 86 -217 120 -257 33 -39 90 -58 141 -49 50 10
110 66 123 117 13 50 6 72 -51 179 -67 124 -76 203 -37 308 27 72 -15 169 -86
198 -37 15 -98 17 -129 4z"/>
<path d="M4663 1631 c-42 -11 -78 -34 -133 -88 -77 -75 -146 -98 -386 -133
-172 -25 -261 -47 -379 -94 -164 -66 -411 -229 -447 -296 -15 -27 -18 -49 -15
-96 l5 -62 -42 19 c-70 32 -111 25 -233 -36 -144 -72 -232 -93 -326 -77 -114
20 -208 73 -312 177 -49 50 -106 109 -125 132 -109 128 -300 26 -300 -160 0
-74 16 -108 88 -187 127 -141 352 -280 537 -332 61 -17 107 -22 195 -23 137 0
210 19 364 97 124 62 178 98 213 145 23 30 28 45 27 95 0 32 0 58 1 58 2 0 20
-7 41 -16 25 -11 57 -15 94 -12 47 4 68 13 150 67 217 144 377 203 659 245
221 33 402 127 542 280 58 63 62 141 10 213 -44 61 -155 102 -228 84z"/>
</g>
</svg>
