<?xml version="1.0" standalone="no"?>
<!DOCTYPE svg PUBLIC "-//W3C//DTD SVG 20010904//EN"
 "http://www.w3.org/TR/2001/REC-SVG-20010904/DTD/svg10.dtd">
<svg version="1.0" xmlns="http://www.w3.org/2000/svg"
 width="600.000000pt" height="600.000000pt" viewBox="0 0 600.000000 600.000000"
 preserveAspectRatio="xMidYMid meet">
<metadata>
Created by potrace 1.15, written by Peter Selinger 2001-2017
</metadata>
<g transform="translate(0.000000,600.000000) scale(0.100000,-0.100000)"
fill="#16364b" stroke="none">
<path d="M2145 5426 c-41 -18 -67 -51 -95 -116 -63 -152 -21 -281 108 -331 49
-19 76 -22 190 -22 72 0 132 -3 132 -8 0 -5 -13 -41 -29 -81 -53 -134 -141
-424 -141 -463 0 -105 120 -172 219 -121 30 16 81 80 81 102 0 28 74 274 119
397 66 179 73 234 37 313 -34 73 -57 99 -121 132 -47 25 -58 27 -177 25 l-128
-2 0 53 c0 39 -6 61 -21 80 -42 53 -111 70 -174 42z"/>
<path d="M3620 5414 c-58 -11 -91 -27 -114 -55 -48 -56 -43 -135 11 -200 40
-47 73 -59 161 -59 98 0 106 -7 105 -94 0 -65 -26 -158 -70 -251 -55 -120 0
-225 118 -225 89 0 126 48 189 245 40 127 52 289 27 375 -33 113 -116 204
-220 240 -56 20 -163 32 -207 24z"/>
<path d="M1652 4840 c-103 -24 -359 -124 -390 -154 -101 -91 -40 -256 95 -256
40 0 43 -2 33 -19 -20 -38 -12 -107 16 -141 36 -42 70 -58 156 -70 109 -17
289 -64 416 -109 63 -23 131 -41 151 -41 52 0 101 35 129 92 31 62 24 115 -24
168 -29 32 -53 44 -157 78 -192 64 -365 102 -461 102 -59 0 -41 16 43 39 83
22 164 28 243 16 61 -9 109 7 148 51 64 74 27 198 -71 239 -67 27 -223 30
-327 5z"/>
<path d="M4283 4414 c-43 -15 -58 -28 -77 -68 -24 -50 -21 -123 7 -163 31 -47
68 -60 182 -66 119 -6 171 -24 181 -62 6 -25 3 -119 -12 -320 -5 -73 -4 -83
18 -115 52 -76 137 -102 205 -60 42 25 57 57 77 165 38 204 30 370 -24 475
-68 134 -226 214 -439 222 -47 2 -99 -2 -118 -8z"/>
<path d="M3050 4328 c-274 -133 -406 -196 -488 -230 -76 -32 -104 -57 -122
-114 -30 -91 78 -191 183 -168 177 37 718 295 768 366 68 95 -2 239 -116 237
-29 0 -90 -24 -225 -91z"/>
<path d="M2137 3840 c-132 -45 -242 -61 -397 -59 -150 3 -176 -4 -224 -61 -60
-72 -54 -157 17 -214 l39 -31 171 1 c195 0 266 12 471 75 142 44 177 68 194
132 14 52 -1 104 -42 145 -48 49 -109 52 -229 12z"/>
<path d="M3672 3770 c-30 -10 -95 -42 -145 -70 -51 -27 -179 -94 -285 -147
-162 -80 -198 -102 -217 -132 -50 -76 -38 -161 27 -201 51 -31 91 -25 198 27
151 74 382 183 386 183 2 0 4 -15 4 -32 0 -42 31 -93 72 -119 26 -16 45 -19
87 -16 47 3 59 9 86 39 18 19 47 73 65 119 65 165 38 280 -79 341 -64 34 -122
36 -199 8z"/>
<path d="M4945 3371 c-60 -27 -103 -77 -122 -141 -13 -46 -14 -66 -4 -130 6
-41 11 -86 11 -99 0 -47 -42 -112 -142 -219 -151 -162 -238 -302 -300 -485
-27 -78 -31 -107 -32 -192 0 -115 17 -165 78 -226 48 -48 99 -72 167 -77 63
-5 113 15 163 64 45 45 59 89 66 209 6 92 12 123 39 186 39 93 54 114 183 252
152 163 183 209 212 324 31 117 9 342 -42 436 -55 102 -175 145 -277 98z"/>
<path d="M2022 3214 c-108 -56 -114 -224 -9 -281 26 -15 63 -19 213 -21 l181
-4 6 -51 c14 -116 142 -192 224 -131 42 32 61 72 69 145 16 163 -80 286 -261
334 -35 9 -127 17 -224 21 -144 4 -170 3 -199 -12z"/>
<path d="M4315 3134 c-16 -8 -52 -36 -80 -62 -71 -68 -161 -127 -279 -183
-124 -59 -215 -85 -370 -105 -128 -17 -157 -27 -195 -68 -19 -20 -26 -40 -28
-84 -5 -71 17 -112 79 -143 51 -26 115 -23 296 16 217 47 388 115 549 220 93
61 216 172 239 217 33 63 6 149 -58 188 -40 24 -111 26 -153 4z"/>
<path d="M1287 2995 c-110 -39 -148 -154 -89 -267 31 -58 31 -58 63 -333 52
-452 132 -695 249 -755 121 -62 265 16 278 150 4 42 -1 61 -32 126 -42 86 -69
205 -86 374 -49 495 -68 572 -169 663 -61 55 -137 70 -214 42z"/>
<path d="M2107 2461 c-77 -25 -150 -75 -225 -152 -77 -78 -96 -116 -89 -182 3
-41 11 -56 35 -78 63 -56 150 -57 218 -2 140 114 170 129 189 97 73 -125 214
-141 275 -31 62 110 -8 270 -149 339 -63 31 -175 35 -254 9z"/>
<path d="M3753 2170 c-34 -5 -167 -34 -295 -65 -128 -31 -332 -77 -453 -101
-236 -47 -255 -54 -292 -120 -38 -66 -26 -181 25 -237 23 -25 77 -47 118 -47
19 0 94 13 167 29 196 44 740 141 790 141 23 0 60 -9 82 -20 139 -71 314 55
289 209 -13 84 -89 164 -184 197 -54 19 -169 25 -247 14z"/>
<path d="M2320 2001 c-46 -24 -72 -63 -101 -153 -34 -102 -34 -286 -1 -403 28
-95 87 -211 118 -232 63 -41 152 -31 204 22 49 51 53 113 11 205 -54 117 -59
233 -15 339 34 81 0 178 -76 218 -52 28 -94 29 -140 4z"/>
<path d="M4695 1625 c-5 -2 -23 -6 -38 -10 -16 -3 -59 -34 -96 -70 -103 -96
-127 -105 -371 -145 -310 -52 -502 -122 -744 -273 -120 -75 -151 -115 -151
-192 l1 -52 -45 14 c-72 21 -102 16 -207 -36 -110 -55 -163 -70 -244 -71 -139
0 -296 82 -470 245 -75 70 -120 89 -192 83 -125 -12 -202 -166 -141 -283 48
-91 270 -268 428 -341 136 -63 211 -78 390 -78 186 -1 263 16 397 86 144 75
203 148 191 235 l-5 31 46 -15 c73 -24 120 -12 228 61 188 128 286 164 588
215 245 43 347 77 470 161 66 45 156 138 171 177 15 40 13 117 -5 150 -16 31
-60 75 -91 91 -23 11 -95 23 -110 17z"/>
</g>
</svg>
