<?xml version="1.0" standalone="no"?>
<!DOCTYPE svg PUBLIC "-//W3C//DTD SVG 20010904//EN"
 "http://www.w3.org/TR/2001/REC-SVG-20010904/DTD/svg10.dtd">
<svg version="1.0" xmlns="http://www.w3.org/2000/svg"
 width="600.000000pt" height="600.000000pt" viewBox="0 0 600.000000 600.000000"
 preserveAspectRatio="xMidYMid meet">
<metadata>
Created by potrace 1.15, written by Peter Selinger 2001-2017
</metadata>
<g transform="translate(0.000000,600.000000) scale(0.100000,-0.100000)"
fill="#16364b" stroke="none">
<path d="M2376 5388 c-13 -18 -16 -53 -16 -173 -1 -399 -81 -600 -285 -708
-68 -36 -80 -46 -83 -71 -4 -35 31 -76 65 -76 45 0 165 70 225 131 65 67 136
200 163 309 26 99 44 280 45 430 0 157 -8 180 -65 180 -24 0 -39 -7 -49 -22z"/>
<path d="M3553 5280 c-23 -9 -53 -58 -53 -86 0 -34 77 -161 131 -215 68 -68
128 -90 176 -65 34 17 43 34 43 79 0 68 -93 213 -168 261 -43 28 -97 39 -129
26z"/>
<path d="M2968 5061 c-129 -82 -173 -287 -76 -355 53 -37 138 -8 223 78 144
145 120 306 -47 306 -42 0 -64 -6 -100 -29z m112 -103 c0 -34 -87 -138 -115
-138 -11 0 -4 32 15 71 26 49 100 100 100 67z"/>
<path d="M4751 4712 c-25 -25 -29 -38 -36 -116 -15 -190 21 -428 77 -497 41
-50 121 -53 173 -8 99 87 82 335 -37 545 -60 105 -122 132 -177 76z"/>
<path d="M2624 4185 c-81 -48 -95 -143 -30 -209 128 -127 421 -144 545 -30 31
28 36 39 36 78 0 79 -26 93 -299 167 -101 28 -200 25 -252 -6z"/>
<path d="M5241 3984 c-70 -19 -111 -44 -160 -100 -107 -122 -91 -325 36 -452
65 -65 121 -87 218 -87 65 1 91 6 137 27 71 33 147 102 176 162 79 157 38 303
-112 403 -95 64 -182 78 -295 47z m123 -284 c33 -12 33 -25 1 -46 -30 -20 -55
-5 -55 32 0 26 14 30 54 14z"/>
<path d="M4213 3746 c-178 -58 -296 -245 -254 -402 15 -57 80 -127 149 -161
114 -56 264 -30 355 61 78 78 109 181 95 315 -11 98 -30 129 -101 165 -69 35
-176 44 -244 22z m82 -278 c-12 -39 -65 -67 -65 -34 0 15 46 56 62 56 5 0 6
-10 3 -22z"/>
<path d="M1178 3561 c-218 -72 -305 -263 -210 -464 60 -130 151 -196 304 -223
43 -7 91 -20 106 -28 44 -23 108 -99 145 -173 78 -154 162 -488 197 -777 16
-138 44 -236 95 -341 73 -151 174 -256 311 -324 208 -102 469 -126 1309 -118
579 5 662 11 866 61 173 43 384 135 524 229 130 88 246 236 307 394 37 95 76
279 84 399 19 267 -150 555 -391 664 -217 99 -507 88 -740 -27 -27 -13 -124
-76 -215 -139 -91 -64 -196 -131 -235 -150 -129 -64 -317 -80 -455 -39 -74 23
-279 121 -420 202 -248 144 -366 231 -590 438 -174 161 -271 228 -455 316
-172 82 -266 110 -380 115 -80 3 -112 0 -157 -15z m232 -290 c175 -59 317
-153 515 -341 183 -174 255 -230 455 -352 85 -53 203 -125 262 -161 304 -188
550 -267 791 -254 195 10 345 71 621 256 244 163 317 194 456 194 93 0 144
-14 206 -56 147 -99 205 -293 156 -528 -39 -187 -125 -309 -280 -398 -314
-180 -573 -220 -1327 -207 -601 10 -819 20 -896 43 -197 58 -277 176 -314 460
-31 238 -121 560 -235 840 -101 247 -252 395 -449 439 -73 17 -121 44 -121 70
0 21 92 18 160 -5z"/>
<path d="M2250 2350 c-27 -27 -25 -56 5 -85 45 -46 105 -20 105 47 0 52 -71
77 -110 38z"/>
<path d="M2848 2069 c-28 -16 -23 -64 8 -88 49 -39 114 -17 114 37 0 49 -74
80 -122 51z"/>
<path d="M3453 3360 c-12 -5 -38 -31 -57 -57 -48 -66 -129 -232 -129 -265 0
-41 29 -68 74 -68 32 0 43 7 81 49 54 60 127 200 135 258 5 35 2 45 -20 67
-27 27 -47 31 -84 16z"/>
<path d="M460 2020 c-35 -35 -25 -63 49 -142 118 -124 226 -173 284 -128 31
25 37 72 11 108 -21 30 -112 91 -211 141 -94 47 -105 49 -133 21z"/>
<path d="M5344 1115 c-26 -18 -60 -95 -69 -157 -9 -63 9 -114 49 -139 39 -24
63 -24 103 1 40 24 61 65 74 138 12 72 3 127 -24 153 -25 23 -102 26 -133 4z"/>
</g>
</svg>
