<?xml version="1.0" standalone="no"?>
<!DOCTYPE svg PUBLIC "-//W3C//DTD SVG 20010904//EN"
 "http://www.w3.org/TR/2001/REC-SVG-20010904/DTD/svg10.dtd">
<svg version="1.0" xmlns="http://www.w3.org/2000/svg"
 width="600.000000pt" height="600.000000pt" viewBox="0 0 600.000000 600.000000"
 preserveAspectRatio="xMidYMid meet">
<metadata>
Created by potrace 1.15, written by Peter Selinger 2001-2017
</metadata>
<g transform="translate(0.000000,600.000000) scale(0.100000,-0.100000)"
fill="#16364b" stroke="none">
<path d="M1485 5749 c-38 -17 -142 -55 -230 -86 -88 -30 -169 -60 -180 -65
-91 -46 -97 -139 -12 -185 28 -15 58 -17 227 -16 107 1 237 6 288 11 81 8 98
13 120 35 57 57 19 147 -62 147 l-41 0 27 23 c40 32 51 70 34 112 -27 63 -66
68 -171 24z"/>
<path d="M2369 5411 c-26 -26 -29 -36 -29 -93 0 -100 -19 -284 -41 -393 -40
-199 -109 -311 -235 -381 -74 -41 -94 -65 -94 -112 0 -45 46 -92 90 -92 52 0
171 69 239 139 74 77 138 205 176 354 34 136 45 230 45 398 l0 151 -29 29
c-20 20 -39 29 -61 29 -22 0 -41 -9 -61 -29z"/>
<path d="M3534 5309 c-12 -6 -31 -29 -44 -51 -17 -31 -21 -48 -16 -81 13 -87
116 -219 201 -258 120 -56 218 22 181 144 -27 89 -106 191 -176 227 -45 23
-119 33 -146 19z"/>
<path d="M3016 5125 c-122 -43 -218 -249 -172 -367 43 -111 173 -113 293 -4
81 72 112 268 53 332 -51 54 -101 65 -174 39z m18 -233 c-11 -16 -19 -22 -22
-14 -2 7 4 25 14 40 11 16 19 22 22 14 2 -7 -4 -25 -14 -40z"/>
<path d="M4791 4747 c-54 -28 -66 -59 -69 -190 -7 -246 43 -416 144 -494 32
-24 47 -28 100 -28 74 0 104 18 148 89 26 41 30 60 34 134 5 102 -16 178 -76
276 -45 76 -157 195 -199 212 -40 17 -51 17 -82 1z"/>
<path d="M2659 4207 c-77 -29 -129 -85 -144 -154 -16 -76 43 -171 139 -221 46
-24 61 -27 156 -27 92 0 112 3 160 26 75 36 161 102 183 141 28 53 23 103 -15
142 -70 72 -376 131 -479 93z"/>
<path d="M1124 4130 c-50 -20 -81 -98 -55 -139 6 -10 -2 -25 -30 -51 -34 -33
-39 -42 -39 -84 0 -41 5 -52 41 -91 62 -68 137 -100 229 -100 138 0 219 65
228 184 9 124 -94 232 -263 276 -66 17 -81 18 -111 5z"/>
<path d="M5247 3839 c-113 -27 -212 -103 -255 -197 -20 -45 -26 -72 -26 -133
0 -67 5 -86 33 -143 83 -168 240 -218 418 -131 182 89 259 289 174 453 -22 42
-77 97 -135 136 -33 22 -49 26 -105 25 -36 -1 -83 -5 -104 -10z m83 -310 c0
-15 -41 -50 -53 -46 -19 6 -21 40 -3 53 18 13 56 8 56 -7z"/>
<path d="M4175 3750 c-89 -22 -169 -82 -208 -154 -18 -33 -22 -58 -22 -131 0
-101 16 -142 77 -204 124 -127 383 -98 491 55 44 62 67 134 73 229 8 124 -20
156 -173 196 -76 19 -182 23 -238 9z m115 -257 c0 -14 -34 -43 -52 -43 -23 0
-24 26 0 39 19 12 52 14 52 4z"/>
<path d="M3426 3339 c-47 -41 -156 -254 -156 -304 0 -46 36 -85 80 -85 152 0
312 314 203 400 -38 30 -85 26 -127 -11z"/>
<path d="M1485 3150 c-159 -12 -251 -43 -363 -118 -203 -138 -311 -417 -241
-624 55 -165 181 -278 394 -356 178 -64 226 -115 349 -367 179 -366 343 -524
616 -596 108 -29 301 -31 430 -4 47 9 150 21 230 25 185 10 346 26 535 51 288
39 466 88 637 176 227 118 372 274 540 583 79 146 115 300 98 422 -21 145 -83
252 -221 381 -150 140 -256 190 -404 190 -106 0 -169 -19 -345 -108 -204 -102
-273 -118 -505 -118 -167 0 -186 2 -262 27 -88 29 -257 112 -452 224 -192 111
-383 177 -576 201 -111 14 -352 20 -460 11z m455 -410 c117 -24 239 -72 360
-141 284 -161 524 -259 720 -294 41 -7 95 -21 119 -30 41 -15 52 -15 180 5
262 42 384 79 571 173 69 35 138 67 153 71 45 11 127 -33 207 -111 l70 -69 0
-60 c0 -78 -21 -148 -77 -257 -74 -143 -248 -311 -388 -372 -167 -74 -544
-133 -960 -151 -91 -4 -180 -13 -225 -24 -188 -46 -331 -48 -425 -6 -90 41
-174 147 -242 306 -50 119 -133 281 -172 339 -102 149 -230 240 -429 306 -45
15 -96 38 -112 51 -59 51 -61 131 -2 187 47 45 105 62 307 88 78 10 275 4 345
-11z"/>
<path d="M415 2095 c-37 -36 -32 -71 30 -185 110 -206 202 -290 317 -290 111
0 170 107 118 214 -41 85 -169 189 -313 255 -82 38 -120 39 -152 6z"/>
<path d="M5044 1409 c-17 -5 -39 -18 -49 -29 -10 -11 -29 -20 -42 -20 -37 0
-81 -27 -98 -60 -19 -37 -19 -86 1 -164 31 -120 81 -176 159 -176 90 0 138 71
162 243 14 95 15 118 4 145 -22 52 -79 77 -137 61z"/>
</g>
</svg>
