<?xml version="1.0" standalone="no"?>
<!DOCTYPE svg PUBLIC "-//W3C//DTD SVG 20010904//EN"
 "http://www.w3.org/TR/2001/REC-SVG-20010904/DTD/svg10.dtd">
<svg version="1.0" xmlns="http://www.w3.org/2000/svg"
 width="600.000000pt" height="600.000000pt" viewBox="0 0 600.000000 600.000000"
 preserveAspectRatio="xMidYMid meet">
<metadata>
Created by potrace 1.15, written by Peter Selinger 2001-2017
</metadata>
<g transform="translate(0.000000,600.000000) scale(0.100000,-0.100000)"
fill="#16364b" stroke="none">
<path d="M1529 5775 c-38 -20 -53 -49 -87 -161 -50 -160 -65 -243 -66 -349 -1
-121 17 -177 74 -229 51 -45 96 -54 169 -31 47 14 69 30 136 99 86 88 248 307
292 395 25 51 26 55 12 94 -19 55 -58 82 -117 82 -59 0 -84 -18 -142 -104 -85
-123 -164 -225 -167 -215 -2 6 13 64 32 130 50 166 54 182 47 207 -19 78 -113
120 -183 82z"/>
<path d="M854 5520 c-132 -28 -255 -151 -298 -299 -37 -125 -12 -258 65 -344
82 -94 159 -113 223 -57 65 58 72 145 15 197 -17 16 -41 38 -55 50 -48 44 -18
151 56 201 38 26 76 26 158 1 131 -40 216 113 109 196 -65 48 -187 73 -273 55z"/>
<path d="M3423 5396 c-48 -22 -75 -71 -70 -126 5 -44 19 -63 77 -101 23 -15
23 -16 7 -39 -36 -51 -9 -129 69 -205 121 -118 270 -144 353 -63 59 57 56 140
-7 246 -62 104 -128 169 -235 235 -105 64 -145 75 -194 53z"/>
<path d="M2343 5266 c-18 -8 -41 -29 -52 -47 -18 -29 -19 -45 -14 -144 10
-188 -23 -311 -103 -385 -25 -23 -88 -62 -141 -87 -89 -43 -97 -49 -115 -91
-17 -38 -19 -51 -9 -83 13 -42 47 -74 91 -84 56 -12 272 98 368 189 61 57 100
122 133 221 22 63 24 87 24 247 0 163 -2 179 -21 204 -46 63 -106 84 -161 60z"/>
<path d="M2996 5144 c-97 -31 -187 -156 -194 -271 -5 -79 10 -123 58 -167 64
-58 178 -60 289 -4 76 38 86 61 86 191 0 98 -3 118 -24 160 -43 87 -122 120
-215 91z"/>
<path d="M4735 4777 c-44 -44 -50 -90 -36 -270 16 -212 57 -317 149 -381 113
-78 248 -68 341 26 92 93 112 221 54 339 -38 76 -111 153 -208 219 -107 73
-168 100 -221 100 -39 0 -51 -5 -79 -33z m275 -419 c0 -18 -27 11 -33 35 -6
22 -6 22 14 -2 10 -13 19 -28 19 -33z"/>
<path d="M2764 4190 c-97 -20 -173 -75 -205 -145 -29 -64 -25 -160 9 -226 52
-100 175 -160 295 -144 150 20 343 131 404 232 46 76 22 180 -49 216 -98 50
-356 88 -454 67z"/>
<path d="M1068 4080 c-67 -19 -108 -73 -108 -143 0 -94 52 -140 181 -161 97
-16 169 -36 169 -47 0 -31 -215 -149 -410 -224 -123 -47 -138 -58 -162 -112
-47 -106 33 -223 151 -223 50 0 154 41 335 131 76 38 140 69 141 69 1 0 5 -19
9 -42 13 -80 107 -136 183 -109 30 11 36 10 66 -13 112 -85 271 -91 355 -13
66 62 87 183 44 264 -56 106 -223 172 -367 144 -27 -5 -51 -8 -52 -7 -1 1 5
22 13 46 51 145 -46 317 -213 380 -108 40 -288 73 -335 60z"/>
<path d="M4210 3782 c-84 -22 -147 -60 -201 -120 -137 -152 -92 -395 91 -490
60 -31 71 -34 135 -30 94 6 154 35 221 105 121 125 197 380 138 459 -34 46
-69 66 -141 80 -91 18 -164 16 -243 -4z m60 -302 c0 -11 -40 -50 -51 -50 -26
0 -16 30 16 48 25 14 35 15 35 2z"/>
<path d="M5135 3477 c-121 -45 -229 -137 -277 -235 -66 -137 -6 -311 136 -392
64 -37 138 -40 221 -9 69 26 160 108 200 181 27 48 30 62 30 143 0 73 -4 99
-22 135 -34 68 -128 176 -164 189 -43 15 -54 14 -124 -12z"/>
<path d="M3404 3361 c-17 -10 -45 -36 -63 -57 -37 -46 -131 -224 -131 -251 0
-26 35 -79 66 -100 34 -22 124 -21 183 3 114 46 199 232 153 340 -30 70 -142
106 -208 65z"/>
<path d="M2394 3179 c-97 -28 -190 -136 -239 -277 -68 -192 -112 -251 -251
-334 -101 -60 -130 -83 -239 -193 -219 -218 -354 -535 -330 -774 18 -174 73
-352 142 -458 104 -158 323 -304 515 -344 231 -47 514 -6 708 103 244 137 434
409 515 738 39 156 51 315 37 475 -27 294 -86 484 -201 640 -20 28 -52 77 -71
109 -19 33 -69 94 -110 136 -127 132 -244 191 -373 189 -40 0 -86 -5 -103 -10z
m233 -483 c13 -26 52 -82 85 -125 117 -146 141 -237 141 -546 1 -195 -1 -217
-25 -307 -122 -450 -410 -649 -775 -533 -120 38 -223 111 -278 196 -76 118
-74 318 6 488 54 116 175 260 268 319 218 137 332 265 400 448 19 49 43 111
54 137 l20 48 39 -38 c22 -21 51 -60 65 -87z"/>
<path d="M628 2511 c-30 -26 -33 -35 -33 -83 0 -71 17 -96 113 -159 100 -68
252 -219 280 -281 35 -76 25 -148 -20 -148 -72 0 -154 107 -228 298 -38 99
-73 132 -139 132 -36 0 -49 -6 -77 -34 -30 -30 -34 -41 -34 -84 0 -42 12 -73
75 -200 109 -218 195 -301 347 -333 131 -28 265 28 320 134 48 95 42 220 -18
344 -31 66 -55 96 -153 193 -148 147 -296 250 -358 250 -33 0 -50 -7 -75 -29z"/>
<path d="M4265 2163 c-35 -9 -85 -53 -100 -89 -14 -35 -14 -35 -44 -19 -43 21
-124 19 -171 -5 -50 -25 -88 -82 -96 -141 -7 -49 33 -286 66 -399 26 -88 50
-123 98 -147 22 -11 52 -34 67 -51 31 -37 100 -72 142 -72 107 0 193 81 228
215 20 77 47 551 34 598 -10 38 -61 91 -102 106 -29 11 -85 13 -122 4z"/>
</g>
</svg>
