<?xml version="1.0" standalone="no"?>
<!DOCTYPE svg PUBLIC "-//W3C//DTD SVG 20010904//EN"
 "http://www.w3.org/TR/2001/REC-SVG-20010904/DTD/svg10.dtd">
<svg version="1.0" xmlns="http://www.w3.org/2000/svg"
 width="600.000000pt" height="600.000000pt" viewBox="0 0 600.000000 600.000000"
 preserveAspectRatio="xMidYMid meet">
<metadata>
Created by potrace 1.15, written by Peter Selinger 2001-2017
</metadata>
<g transform="translate(0.000000,600.000000) scale(0.100000,-0.100000)"
fill="#16364b" stroke="none">
<path d="M2391 5402 c-25 -25 -28 -36 -34 -127 -13 -193 -66 -425 -127 -551
-43 -90 -94 -144 -184 -195 -31 -17 -63 -41 -71 -52 -38 -54 2 -127 70 -127
49 0 165 68 232 137 91 93 170 258 220 461 23 93 27 129 27 270 l1 164 -28 24
c-37 32 -72 31 -106 -4z"/>
<path d="M3522 5305 c-38 -27 -55 -73 -49 -127 12 -98 107 -227 201 -272 19
-9 53 -16 76 -16 34 0 48 6 76 34 27 27 34 42 34 73 0 82 -113 253 -192 291
-62 31 -118 37 -146 17z"/>
<path d="M3026 5126 c-90 -34 -167 -155 -174 -276 -4 -78 17 -124 69 -152 45
-24 84 -23 144 7 99 47 141 111 152 230 13 145 -75 234 -191 191z m44 -175 c0
-23 -23 -68 -40 -79 -26 -16 -26 -2 0 48 18 36 40 53 40 31z"/>
<path d="M4753 4760 c-52 -31 -58 -52 -57 -190 1 -277 83 -472 209 -500 115
-26 205 76 205 231 0 135 -54 259 -169 390 -77 87 -128 106 -188 69z"/>
<path d="M2662 4222 c-60 -22 -94 -50 -116 -97 -34 -71 -7 -169 61 -221 65
-50 128 -68 233 -68 85 0 102 4 161 31 81 37 144 93 159 139 10 29 9 43 -5 80
-20 52 -26 56 -175 106 -144 49 -240 58 -318 30z"/>
<path d="M1116 4124 c-16 -17 -26 -38 -26 -56 0 -17 -9 -41 -20 -55 -26 -33
-26 -87 1 -158 46 -124 137 -176 252 -144 47 13 106 63 123 106 18 42 18 115
0 157 -21 50 -83 105 -161 142 -86 42 -132 44 -169 8z"/>
<path d="M5204 3906 c-82 -20 -143 -71 -184 -150 -31 -61 -35 -77 -34 -145 0
-133 56 -240 157 -305 183 -117 427 -20 500 198 44 130 -3 245 -138 340 -38
26 -79 52 -92 57 -43 16 -156 19 -209 5z m130 -296 c29 -11 26 -34 -6 -51 -14
-7 -23 -7 -34 2 -17 14 -18 46 -1 52 6 3 13 6 14 6 1 1 13 -3 27 -9z"/>
<path d="M4215 3767 c-109 -29 -196 -101 -241 -200 -68 -150 -12 -307 135
-379 69 -34 186 -33 262 3 136 64 209 197 209 381 0 71 -18 118 -56 145 -72
50 -217 73 -309 50z m65 -280 c0 -30 -53 -67 -65 -47 -7 11 38 60 55 60 5 0
10 -6 10 -13z"/>
<path d="M3434 3361 c-61 -37 -196 -274 -186 -326 11 -59 96 -84 157 -47 88
55 178 201 179 293 1 44 -3 54 -27 75 -34 29 -80 31 -123 5z"/>
<path d="M1330 3234 c-14 -2 -59 -9 -100 -15 -309 -43 -470 -215 -470 -499 0
-49 7 -110 16 -141 48 -165 201 -286 416 -329 192 -39 257 -80 353 -224 68
-102 120 -215 170 -366 107 -328 219 -451 482 -529 129 -39 264 -54 413 -46
74 3 209 8 300 10 348 9 749 37 900 61 279 46 570 151 735 264 304 210 479
647 389 969 -48 171 -205 384 -355 481 -156 101 -355 114 -581 39 -48 -15
-186 -78 -305 -138 -120 -60 -236 -114 -258 -120 -22 -6 -105 -13 -185 -17
-171 -7 -245 8 -381 76 -82 41 -126 70 -386 251 -275 192 -433 247 -778 269
-153 10 -322 11 -375 4z m515 -405 c136 -20 245 -58 325 -112 25 -17 102 -77
173 -134 167 -134 229 -175 351 -234 121 -57 244 -94 363 -109 48 -6 111 -15
138 -21 57 -11 148 -1 281 31 122 29 200 61 358 150 202 113 273 142 368 148
69 4 83 2 140 -25 78 -37 180 -129 202 -182 53 -134 13 -354 -84 -465 -36 -40
-190 -148 -300 -209 -235 -130 -531 -176 -1145 -179 -714 -4 -684 -5 -746 20
-101 40 -153 110 -217 292 -98 278 -184 461 -262 558 -106 131 -265 224 -459
267 -144 32 -181 56 -181 119 0 31 38 62 94 77 90 25 456 29 601 8z"/>
<path d="M453 2100 c-29 -12 -56 -65 -47 -93 3 -12 14 -31 24 -42 9 -11 33
-48 54 -82 66 -111 213 -223 290 -223 79 1 121 101 82 194 -32 78 -147 172
-276 227 -72 31 -91 33 -127 19z"/>
<path d="M5163 1267 c-15 -12 -45 -30 -65 -39 -53 -25 -72 -66 -65 -145 8
-110 75 -181 159 -170 89 12 128 76 136 224 5 92 5 92 -26 122 -39 39 -96 43
-139 8z"/>
</g>
</svg>
