<?xml version="1.0" standalone="no"?>
<!DOCTYPE svg PUBLIC "-//W3C//DTD SVG 20010904//EN"
 "http://www.w3.org/TR/2001/REC-SVG-20010904/DTD/svg10.dtd">
<svg version="1.0" xmlns="http://www.w3.org/2000/svg"
 width="600.000000pt" height="600.000000pt" viewBox="0 0 600.000000 600.000000"
 preserveAspectRatio="xMidYMid meet">
<metadata>
Created by potrace 1.15, written by Peter Selinger 2001-2017
</metadata>
<g transform="translate(0.000000,600.000000) scale(0.100000,-0.100000)"
fill="#16364b" stroke="none">
<path d="M1955 5806 c-40 -18 -62 -44 -130 -156 -32 -52 -100 -158 -151 -235
-181 -273 -214 -397 -132 -491 43 -49 78 -64 147 -64 51 0 73 6 144 43 46 24
148 88 228 143 79 55 194 130 254 167 139 83 150 94 150 161 0 91 -67 150
-171 150 -45 0 -65 -8 -158 -61 -58 -34 -106 -59 -106 -56 0 2 32 51 70 107
61 90 70 109 70 148 0 49 -26 97 -71 131 -34 25 -105 31 -144 13z"/>
<path d="M3015 5688 c-89 -49 -109 -148 -45 -221 18 -21 62 -48 117 -72 157
-69 234 -116 312 -189 128 -120 198 -301 146 -379 -17 -27 -82 -58 -159 -78
-122 -31 -164 -168 -75 -243 48 -41 96 -49 181 -31 148 31 254 112 316 243 30
63 36 87 40 165 17 339 -208 617 -631 778 -104 40 -165 48 -202 27z"/>
<path d="M952 5395 c-181 -51 -315 -180 -366 -354 -55 -186 40 -394 238 -523
47 -30 69 -38 106 -38 81 0 148 61 157 142 7 65 -17 111 -83 154 -71 47 -97
85 -102 149 -8 92 34 138 153 169 104 27 150 81 142 169 -10 115 -111 169
-245 132z"/>
<path d="M2818 5040 c-172 -43 -272 -295 -182 -459 55 -102 151 -147 298 -138
109 6 157 24 191 74 41 61 32 133 -21 178 l-24 21 20 39 c26 50 25 85 -1 138
-58 115 -171 174 -281 147z"/>
<path d="M4775 4901 c-52 -23 -102 -81 -111 -127 -4 -21 -4 -78 -1 -128 20
-308 217 -540 415 -488 147 39 248 195 222 342 -27 150 -163 296 -363 391 -72
33 -106 36 -162 10z"/>
<path d="M1879 4647 c-130 -55 -169 -97 -169 -182 0 -89 67 -155 158 -155 25
0 60 11 96 31 32 16 65 29 74 27 9 -2 30 -28 47 -58 52 -93 128 -123 211 -84
107 51 95 210 -26 338 -69 73 -129 99 -245 103 -77 3 -98 0 -146 -20z"/>
<path d="M3004 3975 c-159 -35 -276 -139 -304 -272 -13 -60 0 -155 31 -215 58
-113 190 -197 358 -228 75 -13 115 -3 156 40 40 42 46 127 13 185 -25 43 -92
85 -138 85 -42 1 -112 37 -108 57 6 31 54 47 101 33 82 -24 139 -24 177 2 38
25 80 98 80 138 -1 43 -37 108 -72 130 -75 46 -202 66 -294 45z"/>
<path d="M1160 3924 c-14 -2 -59 -9 -100 -15 -148 -21 -214 -79 -215 -188 0
-69 24 -122 73 -159 30 -23 47 -28 112 -30 l77 -4 -69 -101 c-180 -264 -414
-720 -434 -847 -9 -55 17 -120 66 -164 77 -69 166 -68 243 3 40 37 123 106
461 385 207 171 338 268 347 259 16 -16 -13 -160 -57 -290 -65 -195 -163 -419
-296 -681 -126 -248 -137 -286 -104 -350 29 -56 63 -77 125 -77 81 0 115 26
188 145 118 188 193 345 305 635 148 381 162 440 156 659 -4 166 -17 213 -74
269 -47 47 -83 61 -158 60 -62 0 -77 -5 -170 -52 -55 -28 -144 -83 -196 -121
-52 -39 -96 -70 -98 -70 -2 0 13 24 34 53 21 28 64 88 96 132 87 121 118 188
125 271 10 120 -34 202 -134 250 -51 24 -71 28 -168 30 -60 1 -121 1 -135 -2z"/>
<path d="M4210 3782 c-115 -30 -215 -105 -261 -194 -33 -64 -38 -185 -10 -258
44 -115 141 -191 257 -198 179 -12 334 117 438 363 49 116 51 171 9 223 -34
42 -69 56 -177 71 -106 15 -179 13 -256 -7z m90 -307 c0 -12 -46 -45 -63 -45
-17 0 -18 2 -6 16 17 21 69 43 69 29z"/>
<path d="M3423 3379 c-37 -18 -58 -42 -105 -120 -29 -47 -82 -223 -81 -266 3
-86 75 -140 188 -142 134 -1 224 49 275 153 31 61 32 71 28 148 -5 95 -28 149
-80 193 -69 58 -151 71 -225 34z"/>
<path d="M4919 2992 c-47 -31 -153 -140 -201 -210 -72 -104 -105 -236 -79
-315 35 -104 114 -161 226 -162 165 -1 298 128 339 327 19 92 19 102 5 187
-10 58 -17 71 -63 119 -28 30 -63 60 -78 68 -44 23 -99 17 -149 -14z"/>
<path d="M4000 2554 c-80 -35 -140 -129 -140 -219 0 -27 14 -104 30 -169 16
-66 28 -121 27 -122 -2 -2 -43 11 -92 28 -100 34 -165 34 -234 -1 -46 -24
-118 -101 -137 -147 -44 -106 -38 -200 27 -418 22 -72 50 -186 64 -253 29
-145 42 -174 97 -211 79 -52 213 -27 290 55 80 85 86 181 22 371 -2 8 11 1 28
-14 52 -43 107 -64 174 -64 93 0 195 41 251 101 61 66 87 208 64 343 -11 62
-132 485 -168 586 -41 117 -190 183 -303 134z"/>
<path d="M2060 2161 c-50 -15 -86 -40 -141 -98 -79 -82 -146 -182 -158 -234
-19 -86 22 -169 105 -209 l46 -23 -56 -30 c-112 -60 -214 -199 -251 -342 -19
-76 -19 -250 0 -332 64 -271 349 -543 666 -633 105 -30 270 -37 374 -16 89 18
205 69 269 118 22 17 69 59 104 92 94 90 123 158 102 236 -13 49 -67 111 -116
135 l-36 17 40 24 c43 26 65 57 165 234 136 243 165 318 198 516 36 217 15
335 -74 422 -69 67 -124 87 -242 87 -84 -1 -113 -6 -180 -29 -85 -30 -314
-141 -428 -208 -38 -22 -70 -38 -72 -36 -2 2 -10 35 -19 75 -19 92 -45 142
-98 187 -59 51 -130 67 -198 47z m920 -474 c0 -28 -52 -215 -75 -272 -21 -50
-111 -230 -135 -270 -10 -16 -24 -51 -30 -77 -23 -89 32 -198 111 -223 22 -7
22 -8 -7 -23 -16 -8 -61 -47 -100 -87 -91 -92 -144 -118 -251 -123 -105 -5
-170 14 -265 78 -148 98 -230 222 -236 356 -5 87 9 135 49 169 46 38 70 33
107 -24 79 -122 181 -201 257 -201 39 0 104 31 132 61 46 51 66 143 44 202 -5
14 -29 47 -53 74 -40 44 -77 109 -67 117 44 33 490 265 512 266 4 0 7 -10 7
-23z"/>
</g>
</svg>
