<?xml version="1.0" standalone="no"?>
<!DOCTYPE svg PUBLIC "-//W3C//DTD SVG 20010904//EN"
 "http://www.w3.org/TR/2001/REC-SVG-20010904/DTD/svg10.dtd">
<svg version="1.0" xmlns="http://www.w3.org/2000/svg"
 width="600.000000pt" height="600.000000pt" viewBox="0 0 600.000000 600.000000"
 preserveAspectRatio="xMidYMid meet">
<metadata>
Created by potrace 1.15, written by Peter Selinger 2001-2017
</metadata>
<g transform="translate(0.000000,600.000000) scale(0.100000,-0.100000)"
fill="#16364b" stroke="none">
<path d="M1505 5738 c-31 -30 -36 -42 -49 -123 -39 -233 -38 -467 4 -577 63
-170 250 -206 388 -75 86 83 198 286 267 489 36 103 37 108 23 150 -26 77
-118 113 -187 72 -37 -22 -44 -36 -82 -146 -53 -157 -135 -318 -162 -318 -11
0 -4 181 15 348 10 90 10 106 -5 137 -23 47 -70 75 -130 75 -40 0 -53 -5 -82
-32z"/>
<path d="M3294 5520 c-31 -12 -72 -66 -79 -103 -13 -66 12 -106 109 -174 49
-34 114 -85 145 -111 l56 -49 -36 -16 c-20 -8 -46 -27 -58 -43 -19 -24 -22
-38 -18 -84 4 -49 8 -58 48 -93 55 -49 102 -73 181 -93 178 -46 300 73 243
237 -34 94 -172 279 -273 365 -37 32 -107 84 -156 116 -87 57 -117 66 -162 48z"/>
<path d="M832 5466 c-113 -42 -187 -109 -236 -212 -74 -156 -44 -345 73 -462
91 -91 171 -104 238 -37 27 27 33 41 33 77 0 48 -14 73 -77 134 -38 37 -43 47
-43 86 0 55 40 121 88 144 28 13 40 14 81 3 57 -14 89 -8 129 26 92 77 78 206
-28 247 -67 25 -180 23 -258 -6z"/>
<path d="M2942 5134 c-94 -47 -163 -152 -170 -261 -5 -76 10 -124 55 -174 68
-75 187 -80 328 -13 74 34 89 66 89 184 0 143 -39 236 -115 275 -45 24 -127
19 -187 -11z"/>
<path d="M2284 5054 c-47 -23 -64 -61 -64 -142 0 -121 -22 -153 -138 -202
-163 -69 -183 -81 -198 -116 -18 -43 -18 -68 2 -110 21 -43 71 -74 121 -74 47
0 225 67 304 116 71 43 124 101 158 173 23 49 26 69 26 161 0 87 -3 111 -20
138 -37 63 -125 89 -191 56z"/>
<path d="M4733 4810 c-55 -36 -67 -78 -60 -205 19 -319 158 -515 367 -515 80
0 132 23 181 77 49 54 62 99 57 189 -7 110 -48 187 -157 294 -154 152 -305
214 -388 160z"/>
<path d="M2802 4139 c-137 -24 -214 -111 -213 -242 0 -124 80 -218 210 -247
113 -26 290 6 451 81 95 45 126 70 146 116 19 43 17 80 -5 129 -23 50 -60 74
-166 108 -166 53 -320 73 -423 55z"/>
<path d="M1035 4066 c-67 -29 -110 -113 -95 -182 18 -81 73 -121 183 -135 102
-12 167 -29 167 -43 0 -22 -77 -79 -358 -266 -216 -143 -241 -162 -261 -202
-48 -100 -6 -199 96 -227 47 -13 95 4 214 74 51 30 96 55 100 55 4 0 10 -11
13 -25 9 -34 60 -90 96 -105 17 -7 53 -11 83 -8 43 4 65 13 118 50 136 97 209
122 354 123 101 0 113 2 143 24 76 58 93 171 36 233 -47 49 -98 68 -189 67
-44 0 -100 -4 -125 -9 -25 -4 -47 -7 -48 -5 -2 2 9 23 26 47 45 66 59 98 72
164 10 52 10 70 -4 116 -39 136 -172 212 -441 253 -121 18 -141 18 -180 1z"/>
<path d="M4220 3779 c-72 -14 -165 -65 -209 -115 -62 -70 -85 -127 -89 -215
-6 -126 41 -207 157 -264 168 -85 410 3 496 179 24 49 55 180 55 233 0 38 -29
91 -66 120 -60 45 -250 80 -344 62z m35 -319 c-19 -21 -55 -27 -55 -10 0 12
31 29 54 30 18 0 18 -1 1 -20z"/>
<path d="M3440 3376 c-25 -6 -62 -24 -82 -40 -76 -58 -178 -223 -178 -288 0
-42 31 -93 72 -119 29 -17 43 -19 107 -14 89 7 136 30 185 86 74 86 106 254
60 315 -45 61 -94 79 -164 60z"/>
<path d="M5093 3370 c-301 -136 -385 -465 -158 -616 48 -32 65 -38 128 -41
185 -12 315 115 325 318 6 115 -13 177 -78 262 -75 96 -131 116 -217 77z"/>
<path d="M2270 2850 c-136 -24 -217 -101 -274 -259 -46 -127 -78 -184 -129
-231 -55 -51 -75 -71 -200 -207 -104 -113 -151 -180 -199 -283 -157 -335 -153
-612 14 -861 207 -311 609 -462 974 -369 176 45 409 207 546 378 131 164 286
573 306 806 18 211 -32 382 -150 511 -74 81 -150 128 -250 154 -130 33 -144
44 -189 133 -22 43 -58 97 -80 119 -51 51 -144 95 -229 108 -72 12 -76 12
-140 1z m123 -474 c36 -69 151 -201 191 -220 17 -8 85 -24 151 -35 133 -23
137 -25 160 -105 37 -124 10 -316 -75 -528 -70 -176 -146 -287 -260 -381 -115
-95 -281 -131 -447 -97 -135 28 -292 140 -343 244 -49 102 -36 267 33 426 50
114 93 173 238 320 155 160 215 236 270 348 23 45 44 82 48 82 3 0 19 -24 34
-54z"/>
<path d="M983 2795 c-66 -29 -94 -126 -54 -191 11 -17 44 -46 74 -63 120 -68
195 -161 212 -258 15 -93 -38 -220 -108 -258 -63 -33 -119 -6 -186 93 -57 82
-173 84 -223 4 -34 -55 -29 -111 17 -177 114 -167 314 -240 486 -180 141 50
255 217 289 422 37 228 -105 465 -356 592 -67 34 -102 38 -151 16z"/>
<path d="M4135 2312 c-86 -40 -132 -126 -119 -222 l7 -51 -27 11 c-39 15 -128
12 -168 -4 -47 -20 -94 -71 -114 -123 -26 -67 -14 -195 36 -388 23 -88 48
-175 57 -193 38 -80 156 -114 249 -72 33 14 74 22 124 25 113 4 181 41 223
118 21 40 22 52 20 247 -4 342 -17 519 -42 568 -44 86 -158 125 -246 84z"/>
</g>
</svg>
