<?xml version="1.0" standalone="no"?>
<!DOCTYPE svg PUBLIC "-//W3C//DTD SVG 20010904//EN"
 "http://www.w3.org/TR/2001/REC-SVG-20010904/DTD/svg10.dtd">
<svg version="1.0" xmlns="http://www.w3.org/2000/svg"
 width="600.000000pt" height="600.000000pt" viewBox="0 0 600.000000 600.000000"
 preserveAspectRatio="xMidYMid meet">
<metadata>
Created by potrace 1.15, written by Peter Selinger 2001-2017
</metadata>
<g transform="translate(0.000000,600.000000) scale(0.100000,-0.100000)"
fill="#16364b" stroke="none">
<path d="M2140 5718 c-47 -13 -630 -592 -662 -656 -26 -56 -34 -128 -18 -176
17 -51 89 -111 152 -127 73 -17 258 -5 393 25 183 42 453 136 491 171 41 39
57 97 43 150 -15 53 -74 111 -123 120 -42 8 -53 6 -290 -69 -82 -26 -151 -44
-155 -40 -3 3 78 88 181 188 161 156 188 186 194 219 15 85 -19 156 -90 188
-46 21 -65 22 -116 7z"/>
<path d="M3060 5642 c-47 -25 -85 -98 -75 -148 11 -61 58 -99 160 -129 177
-53 333 -157 383 -258 31 -63 29 -130 -6 -198 -35 -68 -126 -139 -269 -210
-136 -68 -163 -99 -163 -187 0 -89 72 -158 153 -148 47 5 167 61 245 114 197
135 316 293 343 458 15 92 -5 198 -57 303 -80 162 -279 309 -538 397 -83 29
-130 30 -176 6z"/>
<path d="M987 5316 c-244 -127 -369 -334 -337 -555 23 -154 159 -364 273 -423
78 -39 182 -6 213 68 31 75 12 134 -70 213 -120 116 -140 244 -52 339 11 13
57 45 101 72 91 55 117 90 118 159 1 84 -51 146 -135 157 -36 5 -53 1 -111
-30z"/>
<path d="M4740 4878 c-65 -33 -81 -68 -97 -213 -6 -61 24 -198 63 -279 69
-145 211 -215 355 -172 119 35 219 156 219 266 0 159 -157 322 -387 401 -72
25 -99 24 -153 -3z"/>
<path d="M2755 4849 c-230 -125 -347 -310 -302 -481 34 -129 134 -227 284
-277 118 -40 202 -21 236 52 45 94 -2 178 -118 212 -57 16 -115 57 -115 81 0
25 81 101 145 137 73 40 105 84 105 144 0 50 -16 87 -54 122 -38 36 -126 40
-181 10z"/>
<path d="M1779 4361 c-163 -53 -319 -208 -319 -317 0 -38 40 -100 79 -122 73
-41 137 -25 216 58 28 28 67 60 87 71 45 23 118 25 160 3 40 -21 125 -15 161
12 42 30 70 97 64 150 -7 64 -30 92 -105 127 -61 29 -77 32 -177 34 -86 2
-122 -1 -166 -16z"/>
<path d="M2570 3823 c-69 -10 -160 -36 -187 -53 -85 -52 -82 -198 6 -257 40
-27 77 -29 184 -8 90 17 193 20 202 5 9 -15 -18 -97 -59 -178 -49 -97 -140
-229 -271 -395 -149 -187 -165 -213 -165 -262 0 -109 121 -179 225 -129 40 19
333 375 439 534 148 222 195 418 134 551 -44 96 -118 157 -223 185 -46 13
-224 17 -285 7z"/>
<path d="M4160 3757 c-208 -86 -307 -274 -224 -426 86 -159 270 -214 434 -131
137 69 270 255 270 376 0 67 -28 134 -66 159 -37 24 -163 45 -267 45 -72 0
-104 -5 -147 -23z m120 -286 c0 -10 -24 -21 -46 -21 -20 0 -17 18 4 23 29 8
42 7 42 -2z"/>
<path d="M1110 3675 c-86 -23 -237 -103 -269 -142 -80 -97 -60 -251 39 -302
52 -27 94 -34 140 -21 23 6 44 10 46 8 1 -2 -17 -49 -43 -103 -119 -261 -148
-329 -194 -450 -58 -149 -109 -337 -109 -399 0 -58 36 -125 86 -159 57 -40
151 -48 216 -20 61 28 385 346 580 570 82 95 152 173 155 173 8 0 -5 -116 -28
-250 -30 -180 -94 -425 -175 -670 -55 -166 -73 -233 -68 -255 23 -114 153
-170 244 -105 42 30 48 45 135 310 152 468 210 758 210 1055 0 172 -14 230
-68 285 -40 41 -84 60 -140 60 -104 0 -182 -55 -396 -277 -181 -189 -176 -193
-62 56 77 167 111 281 111 371 0 120 -40 195 -131 245 -46 24 -67 29 -139 32
-53 2 -106 -3 -140 -12z"/>
<path d="M3505 3346 c-62 -29 -113 -84 -154 -167 -32 -67 -71 -202 -71 -250 0
-64 41 -123 97 -138 39 -11 202 16 297 49 196 67 290 231 215 377 -65 125
-256 189 -384 129z"/>
<path d="M4796 2744 c-90 -28 -155 -82 -198 -164 -20 -39 -23 -59 -23 -151 l0
-106 -38 28 c-88 64 -223 54 -294 -23 -34 -36 -63 -108 -63 -157 0 -25 5 -82
12 -128 7 -45 9 -85 6 -89 -4 -3 -42 7 -85 24 -279 106 -474 70 -559 -104 -40
-82 -43 -191 -10 -417 14 -98 26 -195 26 -217 0 -87 20 -142 69 -191 37 -38
56 -49 102 -58 112 -23 218 26 268 124 33 63 32 127 -2 285 -14 63 -24 117
-21 119 6 6 82 -18 156 -50 77 -34 146 -37 248 -13 82 19 137 51 189 110 99
113 110 237 55 624 l-7 45 29 -28 c57 -57 134 -78 200 -57 123 40 216 172 231
326 5 53 1 71 -27 144 -27 67 -41 88 -73 111 -46 34 -109 38 -191 13z"/>
<path d="M2893 2469 c-75 -12 -164 -48 -336 -135 -210 -105 -232 -122 -263
-201 -47 -119 42 -253 168 -253 32 0 74 16 173 64 121 60 235 104 312 120 33
8 33 7 26 -26 -17 -90 -105 -290 -180 -407 -65 -102 -78 -172 -44 -239 43 -84
103 -117 202 -110 82 6 127 40 205 155 90 135 149 287 199 516 24 109 18 255
-14 316 -56 107 -159 181 -283 201 -72 11 -92 11 -165 -1z"/>
<path d="M2106 1900 c-97 -31 -165 -115 -166 -204 0 -77 66 -170 131 -183 21
-4 31 -14 38 -37 5 -17 24 -79 41 -137 l33 -107 -23 -23 c-46 -49 -70 -118
-70 -205 0 -134 25 -196 135 -339 114 -147 189 -210 319 -271 180 -82 366
-111 512 -79 82 18 214 73 247 103 89 81 66 246 -43 302 -59 30 -127 26 -213
-12 -118 -51 -165 -50 -300 12 l-60 27 45 21 c64 32 91 74 96 148 5 76 -15
123 -72 167 -90 71 -158 148 -188 214 -16 36 -49 142 -74 235 -63 243 -104
314 -209 364 -60 28 -100 29 -179 4z"/>
</g>
</svg>
