<?xml version="1.0" standalone="no"?>
<!DOCTYPE svg PUBLIC "-//W3C//DTD SVG 20010904//EN"
 "http://www.w3.org/TR/2001/REC-SVG-20010904/DTD/svg10.dtd">
<svg version="1.0" xmlns="http://www.w3.org/2000/svg"
 width="600.000000pt" height="600.000000pt" viewBox="0 0 600.000000 600.000000"
 preserveAspectRatio="xMidYMid meet">
<metadata>
Created by potrace 1.15, written by Peter Selinger 2001-2017
</metadata>
<g transform="translate(0.000000,600.000000) scale(0.100000,-0.100000)"
fill="#16364b" stroke="none">
<path d="M2548 5500 c-66 -35 -139 -161 -164 -282 -13 -63 -13 -76 1 -125 20
-69 70 -124 138 -153 66 -29 196 -29 345 -2 60 11 102 15 102 10 0 -6 -37 -51
-83 -102 -171 -188 -259 -309 -369 -507 -51 -94 -62 -121 -61 -159 1 -60 34
-132 73 -160 31 -22 32 -22 483 -24 438 -1 452 0 482 19 81 55 82 177 2 230
-35 22 -153 34 -414 42 -128 3 -233 8 -233 9 0 18 157 216 282 356 174 196
221 274 222 372 1 98 -49 166 -159 215 -56 25 -198 24 -350 -2 -77 -13 -144
-22 -148 -20 -4 3 8 33 28 68 27 50 35 74 35 115 0 46 -4 56 -34 86 -30 30
-40 34 -87 34 -34 -1 -68 -8 -91 -20z"/>
<path d="M1634 5096 c-181 -67 -454 -284 -566 -451 -32 -48 -38 -65 -38 -110
0 -58 23 -102 73 -139 27 -20 41 -21 240 -21 201 0 236 -4 276 -32 2 -1 7 -52
11 -112 9 -130 27 -175 86 -208 80 -46 174 -21 216 57 16 31 18 50 13 150 -10
180 -26 236 -91 317 -42 51 -145 105 -238 123 -36 8 -66 17 -66 21 0 12 140
98 189 114 81 28 114 49 133 85 24 46 23 116 -2 158 -45 73 -125 90 -236 48z"/>
<path d="M4220 4745 c-75 -17 -216 -83 -313 -146 -50 -33 -73 -55 -89 -87 -49
-102 15 -205 128 -205 30 0 63 12 130 49 114 64 209 103 248 104 31 0 -54
-248 -141 -409 -95 -177 -103 -195 -103 -234 0 -47 10 -67 68 -134 60 -72 93
-81 209 -60 144 26 294 39 362 32 91 -10 93 -11 85 -54 -12 -72 -76 -299 -119
-427 -25 -72 -45 -143 -45 -157 0 -93 97 -162 192 -137 69 19 91 51 141 206
148 455 163 627 63 749 -76 92 -207 125 -436 107 -74 -5 -136 -9 -138 -7 -2 2
10 29 26 61 44 87 100 242 123 342 47 195 2 325 -135 391 -59 29 -168 36 -256
16z"/>
<path d="M2022 3989 c-77 -34 -223 -80 -379 -119 -172 -44 -202 -57 -235 -102
-34 -48 -33 -136 2 -173 35 -37 72 -55 117 -55 56 0 352 76 493 127 166 60
203 82 230 139 66 135 -78 250 -228 183z"/>
<path d="M3740 3670 c-115 -28 -356 -180 -401 -254 -39 -64 -13 -172 51 -209
15 -10 48 -17 72 -17 38 0 60 11 170 84 118 77 168 104 168 88 -1 -43 -70
-200 -153 -346 -52 -92 -60 -102 -114 -130 -72 -39 -96 -78 -90 -152 6 -88 66
-144 155 -144 42 0 70 9 140 44 48 24 155 73 239 109 176 77 214 99 265 155
68 75 74 173 14 236 -40 43 -103 62 -160 47 -22 -5 -42 -9 -43 -7 -2 1 6 27
17 58 26 75 42 184 34 233 -9 59 -51 130 -94 160 -71 49 -177 67 -270 45z"/>
<path d="M2455 3464 c-143 -21 -352 -84 -393 -119 -106 -89 -36 -285 102 -285
20 0 69 11 111 25 103 33 239 65 281 65 32 0 34 -2 34 -32 0 -44 -22 -123 -66
-241 -34 -90 -36 -101 -25 -137 34 -115 158 -155 245 -79 39 34 101 166 141
304 37 123 39 257 6 331 -28 64 -81 116 -146 145 -40 18 -72 23 -155 25 -58 1
-118 0 -135 -2z"/>
<path d="M1170 3136 c-180 -67 -255 -174 -205 -294 31 -72 102 -122 175 -122
l41 0 -6 -102 c-4 -57 -13 -168 -21 -247 -19 -199 -18 -340 5 -460 22 -113 37
-148 80 -184 93 -78 210 -49 264 65 14 29 39 61 54 72 16 10 48 49 71 86 107
174 348 490 373 490 12 0 12 -218 -2 -337 -6 -54 -24 -149 -41 -212 -65 -250
-65 -269 -7 -335 55 -63 135 -83 205 -50 61 29 86 88 129 299 39 193 58 591
34 720 -21 114 -79 199 -164 241 -73 35 -154 32 -240 -11 -74 -35 -215 -174
-300 -292 -59 -84 -80 -101 -70 -60 13 54 23 330 15 417 -14 165 -66 256 -175
306 -57 27 -156 31 -215 10z"/>
<path d="M4871 2779 c-83 -16 -166 -81 -198 -156 -7 -18 -13 -57 -13 -87 l0
-55 -57 -16 c-239 -66 -349 -118 -438 -210 -89 -91 -128 -198 -127 -350 1
-141 56 -318 129 -414 25 -33 26 -35 8 -45 -10 -6 -33 -23 -50 -38 -40 -34
-47 -34 -132 -2 -207 78 -298 97 -403 83 -179 -25 -435 -214 -572 -423 -32
-48 -58 -92 -58 -96 0 -5 -9 -11 -19 -15 -11 -3 -47 -30 -80 -60 -96 -85 -133
-85 -216 0 -69 70 -146 226 -176 355 -32 139 -58 174 -145 200 -82 24 -185
-35 -220 -126 -43 -113 42 -381 192 -610 97 -147 198 -220 350 -251 66 -13 91
-14 154 -4 89 13 196 62 278 124 31 24 83 57 115 72 62 29 62 29 169 194 67
103 164 208 218 236 53 27 112 21 227 -24 130 -51 247 -75 322 -67 75 8 184
63 245 123 54 54 76 96 76 148 0 33 2 35 45 46 29 7 63 27 94 55 105 94 107
225 5 344 -59 70 -86 123 -88 178 -1 41 2 47 30 64 17 10 81 29 142 43 152 34
213 59 284 113 68 53 123 135 154 229 25 79 26 249 1 314 -37 97 -135 149
-246 128z"/>
<path d="M3180 2465 c-133 -18 -400 -76 -511 -111 -133 -42 -173 -218 -72
-316 40 -39 97 -68 134 -68 11 0 138 27 281 60 143 33 270 60 284 60 28 0 29
-10 9 -65 -20 -57 -18 -96 8 -146 59 -111 238 -131 325 -37 39 42 74 161 79
268 4 80 2 104 -16 151 -43 112 -143 187 -281 209 -80 12 -118 11 -240 -5z"/>
</g>
</svg>
