<?xml version="1.0" standalone="no"?>
<!DOCTYPE svg PUBLIC "-//W3C//DTD SVG 20010904//EN"
 "http://www.w3.org/TR/2001/REC-SVG-20010904/DTD/svg10.dtd">
<svg version="1.0" xmlns="http://www.w3.org/2000/svg"
 width="600.000000pt" height="600.000000pt" viewBox="0 0 600.000000 600.000000"
 preserveAspectRatio="xMidYMid meet">
<metadata>
Created by potrace 1.15, written by Peter Selinger 2001-2017
</metadata>
<g transform="translate(0.000000,600.000000) scale(0.100000,-0.100000)"
fill="#16364b" stroke="none">
<path d="M2635 5536 c-16 -7 -40 -24 -52 -37 -30 -33 -89 -161 -108 -234 -38
-150 6 -253 135 -314 53 -25 61 -26 247 -26 106 0 193 -3 193 -7 0 -3 -42 -42
-92 -86 -189 -163 -301 -292 -413 -473 -72 -117 -77 -147 -37 -232 50 -108 58
-111 307 -119 227 -7 351 -18 524 -48 115 -20 145 -17 194 15 94 62 65 229
-47 264 -75 24 -436 67 -599 71 -18 0 65 92 273 303 118 120 227 237 242 259
54 79 61 149 23 225 -29 58 -79 97 -151 119 -53 16 -220 18 -379 5 -55 -5
-103 -6 -107 -2 -4 3 6 37 23 76 32 77 36 119 15 169 -28 67 -124 103 -191 72z"/>
<path d="M1631 5160 c-103 -35 -222 -107 -310 -185 -144 -130 -284 -310 -311
-402 -18 -60 1 -122 51 -167 49 -45 84 -51 229 -36 127 14 254 9 289 -10 21
-10 21 -16 14 -103 -12 -143 -9 -198 11 -232 31 -53 64 -70 133 -70 52 0 66 4
88 25 50 46 55 69 61 252 6 161 5 177 -15 229 -45 117 -155 199 -297 221 -38
6 -75 12 -83 15 -38 10 137 140 235 173 67 23 89 41 115 92 48 95 1 198 -101
221 -16 4 -58 -5 -109 -23z"/>
<path d="M4315 4692 c-124 -28 -211 -59 -325 -115 -90 -44 -108 -58 -127 -92
-28 -49 -28 -77 -4 -131 14 -31 30 -47 63 -63 64 -31 93 -27 204 27 120 59
230 99 241 89 14 -15 -52 -183 -150 -380 -55 -108 -101 -215 -104 -235 -4 -27
1 -50 15 -78 27 -51 108 -133 140 -141 14 -3 75 0 136 8 120 15 312 18 389 5
37 -6 47 -11 47 -27 0 -35 -40 -139 -132 -344 -79 -176 -89 -205 -85 -243 12
-115 153 -180 240 -112 30 23 203 395 242 520 50 160 32 297 -52 390 -81 91
-210 125 -445 118 -76 -2 -138 -1 -138 3 0 3 34 76 75 161 128 266 157 425 98
538 -54 102 -169 138 -328 102z"/>
<path d="M1935 3987 c-127 -56 -222 -89 -355 -122 -119 -30 -143 -43 -170 -88
-56 -92 12 -222 123 -234 63 -7 181 19 352 79 197 70 303 123 333 167 64 97
-11 228 -136 238 -39 3 -65 -4 -147 -40z"/>
<path d="M3740 3655 c-124 -28 -316 -149 -355 -225 -32 -61 -11 -150 44 -190
69 -48 134 -36 219 42 56 51 146 94 150 73 4 -19 -29 -121 -76 -235 -58 -143
-77 -173 -119 -195 -119 -61 -153 -99 -153 -173 0 -63 31 -116 83 -141 61 -29
95 -26 174 15 37 20 127 60 198 89 256 104 302 131 345 200 38 61 25 160 -27
207 -25 23 -87 48 -118 48 -30 0 -31 5 -5 105 35 138 21 245 -43 313 -62 67
-193 95 -317 67z"/>
<path d="M2465 3466 c-94 -18 -172 -39 -279 -75 -105 -35 -149 -72 -167 -141
-11 -40 -10 -51 9 -92 41 -94 102 -106 258 -54 156 53 287 81 331 70 21 -6 22
-10 17 -48 -9 -54 -42 -143 -89 -236 -44 -86 -49 -139 -19 -190 28 -48 66 -72
121 -77 93 -8 152 47 217 203 63 150 79 223 74 338 -3 84 -8 109 -30 152 -31
60 -84 109 -147 137 -58 26 -199 32 -296 13z"/>
<path d="M1205 3210 c-87 -21 -205 -95 -242 -152 -38 -57 -43 -147 -11 -203
33 -56 95 -97 158 -103 l52 -5 -6 -46 c-3 -25 -8 -80 -11 -121 -4 -41 -13
-131 -22 -200 -29 -239 -15 -499 31 -589 43 -82 135 -118 230 -87 73 23 180
133 234 243 85 169 248 409 330 486 l29 28 8 -23 c4 -13 9 -88 12 -168 6 -177
-14 -369 -57 -541 -41 -166 -39 -197 15 -251 36 -37 84 -45 139 -24 72 28 89
54 126 191 62 233 90 423 90 625 0 369 -102 550 -311 550 -49 0 -72 -6 -120
-31 -72 -39 -176 -145 -279 -286 -41 -56 -76 -101 -77 -99 -2 2 2 59 8 127 6
68 9 196 7 284 -6 195 -23 251 -103 330 -67 68 -139 88 -230 65z"/>
<path d="M4773 2684 c-80 -39 -123 -113 -123 -208 l0 -65 -47 -6 c-240 -31
-373 -90 -484 -214 -98 -110 -169 -300 -155 -417 9 -77 47 -171 107 -265 l52
-81 -29 -24 c-16 -13 -37 -23 -46 -24 -10 0 -55 20 -100 44 -146 78 -275 106
-388 86 -228 -41 -444 -220 -623 -517 -25 -40 -47 -64 -65 -71 -15 -5 -49 -28
-76 -51 -27 -23 -57 -41 -71 -41 -51 0 -105 108 -200 402 -72 222 -111 268
-225 268 -94 0 -172 -59 -196 -149 -15 -60 -7 -103 57 -292 112 -333 219 -497
373 -572 146 -72 324 -47 490 67 32 23 75 49 95 60 63 32 80 52 151 181 120
217 245 345 337 345 29 0 84 -26 217 -103 105 -61 205 -86 282 -69 158 33 303
159 304 264 0 22 8 32 38 47 79 41 122 113 122 205 0 68 -11 97 -60 161 -22
28 -47 69 -56 90 -20 49 -22 122 -3 139 21 20 112 51 249 86 225 56 323 119
383 248 26 56 32 82 35 158 7 161 -41 258 -153 310 -59 28 -144 31 -192 8z"/>
<path d="M3115 2513 c-100 -14 -296 -59 -389 -90 -86 -28 -119 -44 -152 -75
-88 -81 -97 -212 -20 -287 17 -16 52 -36 79 -43 41 -10 56 -10 110 5 248 70
511 127 524 113 4 -3 -4 -38 -16 -76 -55 -168 24 -306 175 -305 97 1 145 54
193 210 44 147 51 237 25 325 -34 115 -99 180 -214 214 -51 15 -232 20 -315 9z"/>
</g>
</svg>
