<?xml version="1.0" standalone="no"?>
<!DOCTYPE svg PUBLIC "-//W3C//DTD SVG 20010904//EN"
 "http://www.w3.org/TR/2001/REC-SVG-20010904/DTD/svg10.dtd">
<svg version="1.0" xmlns="http://www.w3.org/2000/svg"
 width="600.000000pt" height="600.000000pt" viewBox="0 0 600.000000 600.000000"
 preserveAspectRatio="xMidYMid meet">
<metadata>
Created by potrace 1.15, written by Peter Selinger 2001-2017
</metadata>
<g transform="translate(0.000000,600.000000) scale(0.100000,-0.100000)"
fill="#16364b" stroke="none">
<path d="M1714 5814 c-22 -8 -40 -14 -41 -14 -27 -2 -109 -254 -159 -490 -28
-136 -32 -264 -8 -333 32 -94 132 -149 231 -129 107 22 196 109 399 393 75
106 140 206 144 223 17 81 -48 168 -135 182 -80 12 -116 -16 -220 -167 -49
-72 -93 -133 -97 -135 -11 -7 -1 44 39 194 40 153 39 185 -10 238 -40 44 -89
57 -143 38z"/>
<path d="M3126 5640 c-54 -17 -96 -73 -96 -130 0 -60 27 -95 128 -166 158
-111 253 -188 328 -266 65 -66 134 -160 134 -180 0 -4 -24 -8 -52 -8 -100 0
-162 -64 -155 -158 5 -66 40 -106 111 -127 108 -32 224 -11 299 55 66 59 92
117 91 211 0 66 -5 86 -36 150 -84 176 -234 322 -554 541 -116 79 -150 92
-198 78z"/>
<path d="M887 5435 c-125 -34 -225 -131 -274 -265 -36 -98 -38 -234 -5 -320
26 -66 100 -160 158 -202 98 -70 209 -33 234 79 13 57 -7 106 -64 161 -59 55
-72 92 -56 152 11 41 66 97 103 104 12 3 51 7 86 9 58 3 67 7 97 39 58 64 58
154 0 212 -19 18 -48 36 -66 40 -51 10 -161 5 -213 -9z"/>
<path d="M2945 5171 c-81 -36 -158 -152 -178 -265 -10 -57 -9 -66 15 -117 27
-60 62 -91 129 -114 52 -19 148 -19 217 -1 113 30 137 68 135 206 -1 105 -25
187 -69 239 -56 66 -167 90 -249 52z"/>
<path d="M4733 4821 c-58 -42 -67 -72 -60 -199 11 -193 69 -335 174 -432 140
-128 339 -99 429 62 26 48 29 62 29 148 0 112 -19 160 -92 235 -61 61 -110 94
-239 160 -130 67 -177 72 -241 26z"/>
<path d="M2118 4800 c-133 -23 -220 -67 -249 -127 -34 -71 -13 -142 54 -184
37 -23 87 -21 183 7 61 18 61 18 89 -4 118 -93 266 4 241 160 -9 55 -35 89
-93 120 -54 29 -149 41 -225 28z"/>
<path d="M2860 4087 c-133 -31 -200 -104 -200 -219 0 -98 57 -174 173 -229
127 -60 329 -64 537 -11 130 33 153 44 179 87 43 69 34 152 -23 208 -40 40
-201 109 -334 143 -116 29 -257 38 -332 21z"/>
<path d="M1097 4050 c-133 -13 -209 -80 -209 -184 0 -52 20 -94 62 -130 43
-36 95 -47 182 -40 l73 7 -40 -49 c-22 -27 -94 -112 -160 -188 -299 -346 -340
-395 -386 -459 -31 -45 -50 -84 -54 -111 -20 -130 94 -239 216 -206 24 7 76
13 114 14 l70 2 125 85 c69 47 164 107 212 133 l86 47 27 -25 c14 -13 39 -37
55 -51 20 -19 33 -44 41 -83 47 -229 -210 -676 -417 -722 -61 -14 -89 -32
-114 -73 -44 -71 -15 -171 60 -210 53 -28 155 -17 239 24 196 96 465 495 517
767 23 120 13 287 -21 374 -6 15 -2 16 27 11 24 -3 47 1 74 15 77 39 104 94
104 210 0 214 -59 307 -194 307 -57 -1 -72 -6 -219 -84 -87 -45 -160 -81 -162
-79 -2 2 21 35 52 73 92 114 152 213 175 289 19 62 20 77 10 125 -20 92 -70
146 -175 189 -51 21 -82 25 -177 28 -63 1 -150 -1 -193 -6z"/>
<path d="M4203 3775 c-151 -42 -262 -152 -293 -289 -24 -108 30 -217 131 -269
231 -116 468 2 578 287 45 117 44 162 -2 212 -25 27 -46 39 -92 50 -93 22
-260 27 -322 9z m67 -285 c0 -18 -50 -44 -62 -32 -7 7 -2 15 18 26 34 18 44
19 44 6z"/>
<path d="M3425 3399 c-84 -31 -225 -245 -225 -340 0 -93 60 -139 182 -141 85
-2 119 12 168 68 53 61 73 118 78 219 3 82 2 93 -20 124 -46 68 -115 94 -183
70z"/>
<path d="M5033 3220 c-114 -51 -230 -156 -279 -251 -24 -46 -28 -66 -28 -139
-1 -100 20 -155 79 -213 55 -53 108 -71 202 -65 98 6 160 34 229 103 129 128
125 354 -9 500 -20 22 -37 43 -37 46 0 9 -76 39 -98 39 -9 0 -36 -9 -59 -20z"/>
<path d="M3977 2546 c-91 -34 -140 -89 -159 -179 -11 -52 -10 -64 20 -170 18
-62 32 -117 32 -120 0 -3 -16 1 -35 9 -50 21 -148 18 -194 -5 -45 -24 -95 -78
-116 -127 -39 -93 -29 -178 45 -409 27 -82 58 -190 69 -239 26 -107 50 -150
102 -176 118 -61 285 19 321 153 l12 47 56 0 c117 1 230 71 282 178 31 62 33
74 32 162 0 90 -4 106 -73 315 -40 121 -84 267 -98 325 -13 58 -36 124 -49
147 -45 78 -162 120 -247 89z"/>
<path d="M2089 2419 c-25 -4 -59 -14 -76 -22 -97 -51 -235 -204 -300 -336 -20
-42 -54 -102 -75 -133 -48 -72 -140 -245 -168 -318 -59 -149 -81 -299 -69
-481 15 -227 116 -394 320 -529 187 -123 361 -179 579 -187 295 -10 429 53
644 304 134 158 151 184 262 418 97 205 128 315 149 535 23 249 -106 427 -327
447 -89 9 -222 -22 -377 -86 -41 -17 -75 -31 -76 -31 -1 0 -12 27 -24 60 -26
70 -63 121 -167 229 -105 109 -188 146 -295 130z m70 -443 c7 -8 28 -63 47
-123 42 -128 57 -154 128 -221 100 -94 139 -96 320 -11 124 58 275 119 296
119 15 0 12 -48 -11 -161 -54 -274 -146 -462 -317 -650 -49 -53 -150 -110
-231 -129 -78 -18 -224 -8 -292 21 -71 30 -175 97 -220 142 -152 155 -123 464
70 747 32 47 62 97 66 110 9 29 113 170 125 170 4 0 13 -6 19 -14z"/>
</g>
</svg>
