<?xml version="1.0" standalone="no"?>
<!DOCTYPE svg PUBLIC "-//W3C//DTD SVG 20010904//EN"
 "http://www.w3.org/TR/2001/REC-SVG-20010904/DTD/svg10.dtd">
<svg version="1.0" xmlns="http://www.w3.org/2000/svg"
 width="600.000000pt" height="600.000000pt" viewBox="0 0 600.000000 600.000000"
 preserveAspectRatio="xMidYMid meet">
<metadata>
Created by potrace 1.15, written by Peter Selinger 2001-2017
</metadata>
<g transform="translate(0.000000,600.000000) scale(0.100000,-0.100000)"
fill="#16364b" stroke="none">
<path d="M2972 5513 c-47 -23 -75 -67 -80 -129 -4 -49 -2 -54 36 -95 21 -24
50 -64 62 -89 32 -62 39 -184 15 -279 -20 -83 -14 -120 27 -167 38 -43 92 -59
148 -44 101 27 154 143 155 335 0 121 -15 183 -67 291 -34 70 -106 158 -149
179 -37 20 -106 19 -147 -2z"/>
<path d="M1981 5413 c-101 -51 -93 -209 17 -316 22 -21 72 -55 113 -76 92 -47
107 -73 144 -256 31 -159 38 -177 82 -215 28 -25 42 -30 86 -30 70 0 112 27
139 87 20 45 20 49 4 122 -9 42 -23 114 -32 159 -20 109 -47 184 -85 243 -37
58 -79 91 -165 130 -57 26 -67 35 -84 73 -10 24 -33 54 -51 66 -43 31 -121 37
-168 13z"/>
<path d="M1468 4790 c-87 -9 -126 -30 -152 -84 -22 -47 -20 -94 7 -146 38 -76
66 -85 242 -82 177 4 275 -9 359 -44 116 -50 186 -42 237 28 57 80 33 185 -56
235 -54 31 -175 69 -260 81 -102 16 -288 22 -377 12z"/>
<path d="M4344 4681 c-51 -31 -74 -68 -74 -120 0 -49 13 -75 76 -157 65 -85
97 -170 139 -377 14 -66 21 -81 48 -101 96 -73 234 -21 244 91 5 59 -40 243
-87 356 -35 85 -114 213 -164 265 -60 64 -123 79 -182 43z"/>
<path d="M3185 4499 c-11 -7 -90 -80 -175 -163 -145 -141 -204 -192 -385 -329
-79 -60 -103 -105 -91 -170 15 -83 108 -142 186 -118 19 6 78 45 130 88 121
98 516 458 535 486 32 51 23 119 -24 169 -35 38 -43 42 -97 45 -34 2 -67 -1
-79 -8z"/>
<path d="M1690 4349 c-57 -23 -100 -89 -100 -156 0 -43 33 -108 65 -129 14 -9
92 -27 177 -40 243 -38 478 -31 557 17 102 62 93 222 -16 274 -34 16 -49 17
-153 8 -122 -12 -229 -5 -380 22 -97 17 -115 18 -150 4z"/>
<path d="M3713 3963 c-314 -216 -431 -288 -607 -374 -76 -37 -150 -78 -164
-91 -70 -65 -68 -195 4 -243 59 -38 103 -27 326 83 223 111 345 185 562 340
160 114 182 141 173 218 -9 80 -72 134 -156 134 -34 0 -57 -11 -138 -67z"/>
<path d="M2245 3775 c-124 -28 -306 -38 -444 -26 -114 10 -135 10 -168 -4 -75
-32 -123 -104 -108 -163 11 -43 55 -93 100 -113 135 -60 735 -27 830 45 111
85 38 278 -104 275 -25 -1 -73 -7 -106 -14z"/>
<path d="M5040 3681 c-43 -13 -84 -38 -111 -68 -61 -65 -72 -128 -44 -258 31
-146 15 -250 -60 -400 -50 -99 -177 -281 -301 -432 -44 -54 -87 -114 -94 -133
-38 -93 3 -235 86 -293 83 -58 201 -45 279 30 64 62 393 515 466 643 48 83 91
201 110 305 25 136 -4 405 -54 502 -45 87 -174 135 -277 104z"/>
<path d="M1981 3143 c-41 -21 -78 -75 -87 -130 -20 -131 114 -206 414 -232 61
-6 139 -16 172 -23 54 -11 64 -10 107 8 61 25 93 71 93 132 0 118 -86 162
-392 201 -48 6 -116 23 -153 36 -76 29 -107 31 -154 8z"/>
<path d="M4407 3136 c-21 -8 -59 -34 -85 -59 -135 -125 -335 -243 -514 -301
-94 -31 -244 -62 -362 -74 -97 -11 -128 -26 -160 -82 -43 -73 -9 -177 70 -215
31 -15 52 -17 128 -11 338 25 791 211 1035 424 79 69 101 104 101 160 0 75
-52 140 -128 162 -44 12 -38 12 -85 -4z"/>
<path d="M1408 2940 c-106 -57 -124 -148 -93 -476 33 -344 103 -567 241 -760
105 -147 185 -176 293 -106 93 60 118 197 52 286 -127 171 -185 384 -197 716
-3 85 -10 175 -15 199 -28 124 -174 197 -281 141z"/>
<path d="M2080 2338 c-75 -52 -98 -125 -61 -200 26 -54 72 -82 167 -102 100
-22 149 -41 218 -87 55 -37 66 -41 109 -36 116 11 185 139 127 234 -44 72
-171 139 -349 184 -136 35 -168 36 -211 7z"/>
<path d="M4055 2049 c-93 -27 -257 -67 -365 -89 -306 -61 -658 -128 -733 -139
-92 -13 -136 -38 -171 -94 -65 -106 -21 -233 99 -283 80 -33 278 -5 720 103
644 157 735 181 760 197 14 9 37 35 53 58 24 36 27 51 27 119 0 86 -14 115
-75 157 -51 35 -117 29 -315 -29z"/>
<path d="M4858 1711 c-41 -13 -65 -34 -131 -108 -157 -177 -259 -226 -635
-303 -243 -51 -464 -105 -501 -125 -69 -35 -120 -131 -105 -198 25 -119 126
-197 234 -183 84 11 682 176 780 215 175 70 383 211 505 343 82 88 98 118 99
183 1 95 -70 173 -165 180 -30 3 -66 1 -81 -4z"/>
<path d="M2040 1508 c-50 -34 -72 -71 -78 -127 -6 -63 13 -95 107 -184 172
-162 383 -259 567 -261 73 -1 84 2 116 26 46 35 73 102 63 155 -8 43 -68 109
-106 117 -13 2 -62 11 -109 20 -126 23 -217 72 -314 168 -44 44 -92 86 -107
94 -42 21 -101 18 -139 -8z"/>
<path d="M2008 940 c-89 -48 -124 -160 -79 -254 26 -53 85 -94 276 -191 209
-106 296 -125 590 -125 215 0 318 14 439 60 64 24 128 76 152 123 44 85 -1
191 -98 232 -52 21 -93 19 -205 -11 -87 -24 -117 -27 -263 -27 -245 -1 -365
31 -563 151 -80 49 -100 56 -152 59 -46 2 -69 -2 -97 -17z"/>
</g>
</svg>
