<?xml version="1.0" standalone="no"?>
<!DOCTYPE svg PUBLIC "-//W3C//DTD SVG 20010904//EN"
 "http://www.w3.org/TR/2001/REC-SVG-20010904/DTD/svg10.dtd">
<svg version="1.0" xmlns="http://www.w3.org/2000/svg"
 width="600.000000pt" height="600.000000pt" viewBox="0 0 600.000000 600.000000"
 preserveAspectRatio="xMidYMid meet">
<metadata>
Created by potrace 1.15, written by Peter Selinger 2001-2017
</metadata>
<g transform="translate(0.000000,600.000000) scale(0.100000,-0.100000)"
fill="#16364b" stroke="none">
<path d="M2379 5381 c-24 -19 -24 -23 -30 -238 -6 -233 -16 -296 -66 -400 -37
-80 -111 -154 -195 -198 -97 -50 -108 -61 -108 -105 0 -39 18 -62 58 -75 37
-11 184 67 252 134 69 69 130 184 159 301 23 95 41 290 41 445 0 88 -3 106
-21 129 -24 31 -57 34 -90 7z"/>
<path d="M3544 5300 c-12 -4 -32 -23 -45 -41 -30 -42 -28 -92 6 -159 73 -144
231 -231 309 -169 22 17 26 28 26 72 0 41 -8 66 -38 119 -40 73 -99 141 -141
162 -37 20 -92 27 -117 16z"/>
<path d="M2969 5072 c-115 -59 -173 -218 -111 -301 35 -47 69 -65 120 -64 119
2 222 115 222 243 0 131 -106 187 -231 122z m97 -134 c-10 -51 -96 -128 -96
-87 0 23 33 80 58 99 35 28 46 25 38 -12z"/>
<path d="M4772 4735 c-18 -8 -37 -26 -43 -42 -6 -16 -11 -104 -12 -203 -1
-190 13 -279 56 -355 63 -112 188 -111 240 3 33 71 30 227 -7 337 -41 121
-114 245 -153 261 -39 17 -40 17 -81 -1z"/>
<path d="M2660 4215 c-101 -46 -117 -162 -32 -236 136 -119 437 -130 537 -19
27 30 27 99 -1 137 -16 23 -48 38 -165 77 -165 56 -275 70 -339 41z"/>
<path d="M5217 3966 c-131 -55 -199 -149 -205 -286 -5 -108 22 -176 102 -256
78 -78 147 -106 258 -107 66 -1 85 3 142 32 115 56 188 182 189 326 0 114 -53
195 -183 276 -51 32 -61 34 -150 37 -82 2 -103 -1 -153 -22z m152 -292 c37 -8
40 -28 6 -50 -30 -20 -55 -5 -55 32 0 26 2 27 49 18z"/>
<path d="M4229 3746 c-143 -38 -245 -158 -257 -302 -21 -270 289 -394 489
-195 79 79 103 144 103 276 0 144 -27 182 -153 219 -64 19 -118 19 -182 2z
m65 -307 c-9 -10 -23 -19 -31 -19 -22 0 -15 27 15 50 24 19 27 20 30 5 2 -9
-4 -25 -14 -36z"/>
<path d="M1130 3489 c-295 -51 -418 -356 -229 -563 82 -90 227 -172 357 -202
36 -8 82 -24 103 -34 132 -68 213 -255 362 -840 75 -291 141 -427 263 -538
115 -106 264 -166 488 -198 155 -22 937 -31 1194 -15 325 21 635 69 817 126
119 38 392 177 468 240 154 127 250 357 264 630 11 207 -54 420 -182 601 -65
90 -129 142 -255 205 -93 46 -173 63 -295 62 -210 -2 -387 -69 -655 -249 -271
-182 -319 -203 -485 -211 -210 -10 -358 51 -685 282 -255 181 -610 411 -724
471 -333 173 -640 262 -806 233z m276 -364 c131 -44 506 -237 664 -343 63 -42
187 -128 275 -191 269 -192 376 -261 480 -311 175 -84 328 -120 514 -120 240
1 399 63 636 249 79 63 175 128 220 150 254 127 461 78 611 -144 115 -169 96
-469 -41 -648 -38 -50 -99 -90 -250 -165 -201 -100 -339 -128 -730 -152 -166
-10 -807 -13 -1135 -6 -333 8 -462 71 -538 264 -17 43 -58 187 -91 318 -152
600 -203 724 -358 863 -126 114 -214 161 -355 191 -121 26 -180 59 -147 82 25
16 136 0 245 -37z"/>
<path d="M2206 2311 c-27 -30 -17 -71 22 -94 33 -20 34 -20 60 0 32 24 41 73
17 97 -23 22 -78 21 -99 -3z"/>
<path d="M2847 2052 c-10 -10 -17 -28 -17 -39 0 -27 54 -73 85 -73 50 0 75 85
33 114 -30 22 -81 20 -101 -2z"/>
<path d="M3435 3345 c-44 -46 -155 -269 -155 -310 0 -60 62 -85 112 -46 66 52
188 254 188 310 0 45 -35 81 -77 81 -28 0 -43 -8 -68 -35z"/>
<path d="M477 2036 c-8 -9 -18 -25 -22 -36 -6 -19 19 -80 33 -80 5 0 24 -21
43 -47 70 -95 202 -167 263 -143 38 14 59 53 52 96 -10 49 -65 99 -180 163
-106 59 -163 73 -189 47z"/>
<path d="M5307 1100 c-37 -29 -58 -83 -59 -150 -1 -63 18 -102 63 -126 59 -30
120 -6 150 59 26 58 26 176 1 207 -28 34 -117 40 -155 10z"/>
</g>
</svg>
