<?xml version="1.0" standalone="no"?>
<!DOCTYPE svg PUBLIC "-//W3C//DTD SVG 20010904//EN"
 "http://www.w3.org/TR/2001/REC-SVG-20010904/DTD/svg10.dtd">
<svg version="1.0" xmlns="http://www.w3.org/2000/svg"
 width="600.000000pt" height="600.000000pt" viewBox="0 0 600.000000 600.000000"
 preserveAspectRatio="xMidYMid meet">
<metadata>
Created by potrace 1.15, written by Peter Selinger 2001-2017
</metadata>
<g transform="translate(0.000000,600.000000) scale(0.100000,-0.100000)"
fill="#16364b" stroke="none">
<path d="M3038 5066 c-59 -21 -85 -43 -123 -100 -56 -84 -58 -197 -4 -226 88
-47 268 113 269 238 0 46 -16 71 -55 88 -41 17 -40 17 -87 0z m61 -65 c18 -12
9 -59 -20 -103 -28 -43 -96 -98 -120 -98 -42 0 -12 117 43 166 45 41 72 51 97
35z"/>
<path d="M4764 4748 c-39 -18 -44 -50 -44 -251 1 -253 12 -382 38 -416 28 -38
87 -37 116 2 20 27 21 40 20 250 -1 293 -9 373 -40 403 -24 25 -55 29 -90 12z"/>
<path d="M1660 4379 c-116 -49 -168 -184 -120 -312 12 -32 37 -77 55 -102 45
-58 59 -87 83 -170 51 -172 84 -412 107 -770 9 -132 20 -265 25 -295 25 -141
32 -223 40 -465 8 -279 26 -401 86 -582 89 -266 267 -420 535 -463 l77 -12 5
-197 c6 -216 21 -303 77 -450 18 -45 29 -85 25 -89 -3 -3 -41 -9 -85 -13 -84
-7 -130 -27 -150 -65 -16 -29 -16 -69 0 -99 50 -93 306 -39 375 79 33 56 32
106 -4 193 -65 158 -94 310 -94 491 0 73 4 137 9 142 5 5 78 5 184 0 96 -5
312 -10 480 -10 l305 0 1 -93 c1 -105 32 -297 76 -472 17 -66 32 -129 35 -141
6 -27 -17 -34 -113 -34 -65 0 -75 -3 -103 -29 -25 -24 -31 -37 -31 -71 0 -75
74 -121 173 -106 97 14 176 55 213 111 38 58 37 96 -6 252 -67 244 -98 494
-71 566 8 21 19 25 103 37 170 23 387 84 563 157 233 98 407 308 434 523 17
130 -21 331 -89 478 -56 121 -167 207 -296 231 -27 5 -148 9 -269 10 -120 0
-240 3 -265 6 -132 17 -194 29 -285 56 -295 88 -472 157 -597 233 -180 110
-406 321 -530 497 -34 48 -103 165 -153 259 -128 240 -193 328 -375 511 -179
180 -225 209 -338 215 -37 2 -78 -1 -92 -7z m146 -154 c19 -8 95 -75 172 -152
151 -151 219 -244 337 -463 145 -268 205 -351 374 -523 179 -183 306 -280 473
-363 113 -57 538 -199 669 -225 145 -28 372 -49 528 -49 240 0 292 -23 360
-162 105 -214 107 -426 6 -575 -89 -133 -288 -239 -580 -312 -195 -48 -277
-54 -710 -55 -464 -1 -893 10 -975 26 -82 15 -173 62 -241 125 -76 71 -136
190 -173 343 -37 157 -46 232 -52 438 -3 103 -16 272 -29 377 -15 115 -29 295
-35 455 -17 462 -76 754 -180 900 -59 82 -83 136 -75 170 12 56 64 73 131 45z"/>
<path d="M2470 2587 c-36 -18 -39 -69 -6 -102 54 -54 115 -16 108 67 -1 10
-15 24 -32 33 -35 18 -38 18 -70 2z"/>
<path d="M2930 2280 c-27 -27 -25 -56 5 -85 29 -30 58 -32 85 -5 27 27 27 85
1 100 -31 16 -69 12 -91 -10z"/>
<path d="M2659 4211 c-19 -20 -29 -40 -29 -60 0 -56 31 -76 224 -141 98 -33
193 -60 211 -60 18 0 44 9 59 21 21 16 26 29 26 63 0 74 -19 87 -210 150 -198
65 -238 69 -281 27z"/>
<path d="M5320 3983 c-48 -8 -125 -36 -160 -58 -106 -68 -156 -193 -130 -321
23 -109 79 -195 158 -241 155 -91 398 -3 480 175 22 47 26 71 27 142 0 75 -4
92 -29 143 -53 104 -153 168 -259 166 -34 -1 -73 -4 -87 -6z m49 -299 c37 -8
40 -28 6 -50 -30 -20 -55 -5 -55 32 0 26 2 27 49 18z"/>
<path d="M4208 3750 c-74 -22 -158 -106 -201 -200 -32 -70 -29 -189 5 -256 30
-56 84 -109 134 -130 19 -8 64 -14 101 -14 144 0 260 98 299 252 25 98 -1 221
-59 280 -67 66 -187 96 -279 68z m100 -292 c4 -18 -23 -48 -44 -48 -19 0 -18
20 2 48 17 25 37 25 42 0z"/>
<path d="M5340 1117 c-55 -27 -98 -179 -68 -237 7 -14 29 -33 49 -43 32 -15
41 -16 75 -5 56 19 94 95 94 188 0 62 -2 71 -26 89 -30 24 -86 27 -124 8z"/>
</g>
</svg>
