<?xml version="1.0" standalone="no"?>
<!DOCTYPE svg PUBLIC "-//W3C//DTD SVG 20010904//EN"
 "http://www.w3.org/TR/2001/REC-SVG-20010904/DTD/svg10.dtd">
<svg version="1.0" xmlns="http://www.w3.org/2000/svg"
 width="600.000000pt" height="600.000000pt" viewBox="0 0 600.000000 600.000000"
 preserveAspectRatio="xMidYMid meet">
<metadata>
Created by potrace 1.15, written by Peter Selinger 2001-2017
</metadata>
<g transform="translate(0.000000,600.000000) scale(0.100000,-0.100000)"
fill="#16364b" stroke="none">
<path d="M2493 5489 c-22 -14 -44 -45 -69 -97 -84 -177 -105 -284 -70 -367 22
-52 42 -73 97 -101 74 -37 126 -39 307 -9 90 15 166 24 169 21 3 -3 -27 -40
-66 -82 -134 -143 -334 -422 -406 -563 -39 -79 -44 -127 -20 -208 16 -55 65
-108 111 -119 14 -4 116 1 227 9 345 27 381 29 506 17 139 -13 171 -7 216 40
40 42 45 118 13 175 -33 57 -84 80 -219 95 -109 13 -363 9 -451 -6 -28 -5 -38
-3 -38 6 0 22 104 153 227 284 252 271 284 319 286 428 3 119 -62 199 -185
229 -68 16 -224 7 -361 -21 -59 -12 -110 -20 -113 -17 -3 3 8 32 25 66 50 97
38 179 -32 221 -43 26 -112 26 -154 -1z"/>
<path d="M1647 5095 c-134 -46 -320 -184 -482 -358 -102 -110 -130 -160 -121
-220 4 -23 18 -56 32 -74 45 -59 69 -65 279 -73 206 -8 258 -20 274 -62 5 -13
14 -56 20 -97 14 -89 32 -126 74 -151 100 -61 248 19 247 134 -1 74 -28 196
-58 260 -53 113 -148 179 -287 199 -41 6 -75 14 -75 17 0 20 162 124 226 145
58 19 85 40 113 86 59 96 -14 220 -129 218 -25 0 -75 -11 -113 -24z"/>
<path d="M4151 4760 c-139 -37 -341 -142 -372 -194 -29 -48 -33 -82 -12 -123
44 -90 140 -108 248 -48 76 43 193 85 236 85 l31 0 -6 -47 c-10 -66 -78 -264
-142 -413 -65 -150 -67 -178 -20 -263 58 -103 93 -112 331 -82 128 16 335 23
354 11 6 -4 11 -17 11 -30 0 -31 -71 -285 -120 -431 -22 -65 -40 -134 -40
-153 0 -97 104 -172 200 -143 53 16 83 55 104 137 10 38 47 164 82 279 79 264
90 324 74 401 -39 186 -198 258 -515 234 -76 -6 -140 -9 -142 -7 -2 2 10 36
27 76 59 139 84 253 84 391 1 140 -11 182 -74 254 -72 82 -193 105 -339 66z"/>
<path d="M1975 3969 c-150 -61 -320 -115 -413 -133 -117 -22 -158 -55 -176
-143 -10 -43 22 -113 64 -143 44 -31 105 -35 220 -16 100 17 417 119 509 165
96 46 126 148 71 239 -51 83 -126 91 -275 31z"/>
<path d="M3738 3706 c-81 -29 -157 -74 -314 -188 -128 -93 -154 -125 -154
-190 0 -48 34 -96 83 -118 83 -38 108 -29 287 100 69 49 128 90 133 90 16 0 5
-45 -39 -168 -60 -166 -148 -352 -167 -352 -26 0 -75 -55 -86 -96 -12 -47 -1
-98 30 -138 22 -28 78 -56 112 -56 59 0 353 110 459 171 189 110 280 267 219
379 -20 38 -89 80 -130 80 -61 -1 -133 -53 -154 -112 -4 -10 -11 -18 -16 -18
-6 0 1 29 14 64 13 36 34 111 46 168 64 312 -71 473 -323 384z"/>
<path d="M2395 3398 c-103 -11 -305 -61 -338 -82 -73 -49 -76 -178 -5 -242 50
-46 87 -48 205 -15 122 34 270 58 298 48 25 -10 16 -63 -30 -173 -44 -104 -54
-177 -31 -222 46 -88 170 -106 239 -34 28 29 104 195 133 289 26 87 24 206 -5
263 -49 95 -129 151 -242 170 -73 11 -111 11 -224 -2z"/>
<path d="M1190 3143 c-39 -8 -121 -42 -152 -64 -40 -29 -70 -93 -70 -151 0
-90 68 -165 165 -183 l37 -7 0 -52 c0 -28 -7 -123 -15 -211 -30 -318 -14 -595
38 -689 25 -46 73 -81 129 -97 98 -26 206 45 232 151 4 17 19 31 45 43 35 16
49 34 112 145 116 205 255 402 282 402 7 0 8 -63 3 -182 -9 -230 -20 -346 -47
-475 -31 -146 -15 -199 72 -243 70 -36 141 -22 191 39 49 58 90 306 108 652
15 293 -1 376 -90 473 -84 91 -198 107 -327 46 -80 -37 -210 -163 -297 -288
-32 -46 -60 -81 -63 -78 -3 3 0 72 7 153 18 214 11 383 -19 451 -55 123 -196
192 -341 165z"/>
<path d="M4868 2826 c-78 -21 -151 -90 -177 -165 -6 -19 -11 -58 -11 -87 l0
-53 -101 -31 c-250 -78 -398 -177 -462 -311 -89 -190 -49 -458 98 -649 28 -37
41 -60 32 -60 -8 0 -35 -18 -60 -40 -26 -23 -55 -40 -69 -40 -14 0 -73 15
-132 34 -320 103 -508 62 -747 -162 -71 -66 -175 -193 -216 -263 -10 -16 -23
-29 -29 -29 -7 0 -45 -30 -85 -66 -71 -66 -72 -66 -120 -62 -121 12 -264 191
-335 417 -33 109 -66 152 -131 171 -83 25 -176 -20 -218 -104 -33 -65 -32
-114 4 -224 59 -181 145 -320 284 -460 84 -85 177 -150 262 -182 82 -31 198
-31 276 -1 69 26 163 86 222 141 24 22 59 46 78 55 47 20 70 41 119 110 135
189 242 286 337 305 54 12 86 6 292 -50 148 -40 277 -18 390 65 85 63 124 124
129 201 l4 62 37 5 c52 7 116 49 148 99 24 35 28 52 28 107 -1 82 -25 132 -94
192 -56 50 -86 97 -95 151 -13 73 9 89 190 141 150 43 206 72 282 142 115 106
162 212 162 366 0 105 -17 157 -68 211 -61 65 -140 87 -224 64z"/>
<path d="M3305 2453 c-86 -12 -444 -88 -540 -115 -116 -32 -144 -45 -183 -87
-50 -54 -67 -146 -38 -214 28 -67 122 -124 189 -114 18 2 145 32 282 66 138
34 277 64 309 68 59 6 59 6 52 -18 -34 -114 3 -207 99 -250 112 -51 226 11
268 146 71 231 -27 450 -229 511 -44 13 -141 16 -209 7z"/>
</g>
</svg>
