<?xml version="1.0" standalone="no"?>
<!DOCTYPE svg PUBLIC "-//W3C//DTD SVG 20010904//EN"
 "http://www.w3.org/TR/2001/REC-SVG-20010904/DTD/svg10.dtd">
<svg version="1.0" xmlns="http://www.w3.org/2000/svg"
 width="600.000000pt" height="600.000000pt" viewBox="0 0 600.000000 600.000000"
 preserveAspectRatio="xMidYMid meet">
<metadata>
Created by potrace 1.15, written by Peter Selinger 2001-2017
</metadata>
<g transform="translate(0.000000,600.000000) scale(0.100000,-0.100000)"
fill="#16364b" stroke="none">
<path d="M2794 5580 c-32 -13 -72 -67 -80 -106 -5 -25 0 -52 16 -92 51 -132
62 -192 66 -357 6 -190 7 -195 40 -234 67 -80 195 -47 239 61 22 56 22 238 0
363 -18 103 -66 254 -97 303 -38 62 -118 89 -184 62z"/>
<path d="M1971 5438 c-63 -32 -86 -68 -86 -131 0 -64 44 -142 138 -245 64 -69
161 -201 263 -357 67 -101 108 -135 166 -135 82 0 138 59 138 146 0 44 -9 64
-82 184 -110 180 -158 248 -231 332 -34 38 -80 95 -102 126 -72 99 -126 121
-204 80z"/>
<path d="M4375 4781 c-35 -15 -75 -62 -85 -102 -22 -80 50 -334 151 -529 54
-107 79 -133 141 -152 81 -24 178 48 178 133 0 25 -17 72 -54 146 -55 110 -91
216 -121 355 -17 82 -40 120 -85 143 -31 16 -93 19 -125 6z"/>
<path d="M1401 4763 c-110 -54 -112 -230 -4 -276 26 -11 82 -17 178 -20 167
-6 261 -26 374 -78 90 -42 129 -47 183 -24 99 41 135 154 77 237 -44 61 -268
145 -444 167 -139 17 -323 14 -364 -6z"/>
<path d="M3154 4536 c-20 -9 -79 -74 -170 -187 -76 -96 -196 -233 -266 -305
-100 -103 -129 -139 -138 -172 -30 -115 72 -223 172 -181 54 22 222 194 397
404 227 273 211 249 211 311 0 42 -5 59 -26 84 -49 58 -114 75 -180 46z"/>
<path d="M1735 4296 c-81 -37 -115 -126 -79 -202 39 -81 117 -101 439 -110
261 -8 341 5 393 61 28 30 32 42 32 88 0 64 -24 113 -71 145 -31 22 -41 23
-109 18 -194 -16 -282 -18 -380 -6 -179 20 -194 21 -225 6z"/>
<path d="M3830 4172 c-31 -14 -57 -39 -132 -127 -157 -185 -351 -327 -618
-451 -170 -80 -194 -99 -216 -168 -16 -52 -16 -57 1 -101 21 -57 62 -85 123
-85 32 0 84 19 214 80 195 91 273 135 384 218 169 127 398 357 431 432 19 43
12 113 -14 149 -36 49 -123 75 -173 53z"/>
<path d="M5068 3759 c-91 -21 -165 -104 -175 -192 -3 -23 2 -77 11 -119 34
-162 13 -294 -73 -471 -87 -179 -202 -332 -309 -411 -52 -38 -96 -107 -107
-168 -11 -56 17 -136 62 -180 50 -49 99 -68 175 -68 81 0 136 26 246 115 145
118 236 236 337 440 135 273 179 452 158 642 -17 155 -50 277 -87 325 -53 70
-155 108 -238 87z"/>
<path d="M1634 3742 c-99 -63 -96 -222 6 -273 104 -52 478 -69 696 -31 127 22
155 37 184 96 40 83 17 165 -58 209 -32 19 -41 19 -207 7 -161 -12 -269 -11
-505 6 -74 5 -89 3 -116 -14z"/>
<path d="M4413 3126 c-18 -8 -60 -41 -95 -73 -249 -230 -508 -335 -939 -378
-68 -7 -111 -32 -132 -78 -33 -69 -9 -163 54 -208 30 -21 44 -24 117 -22 337
8 874 223 1121 449 92 84 113 152 71 233 -35 70 -131 107 -197 77z"/>
<path d="M1965 3116 c-85 -38 -121 -145 -72 -217 41 -60 130 -105 272 -136 88
-19 315 -11 373 12 107 45 140 157 70 233 -46 48 -67 53 -236 50 l-157 -2 -81
37 c-87 39 -121 44 -169 23z"/>
<path d="M1444 2921 c-96 -44 -127 -141 -127 -401 -1 -349 94 -642 284 -875
56 -69 88 -91 146 -101 113 -18 225 90 225 216 0 56 -13 84 -86 175 -162 202
-235 482 -191 733 15 84 16 108 6 144 -31 110 -146 159 -257 109z"/>
<path d="M2127 2351 c-90 -79 -70 -214 42 -291 112 -76 324 -182 371 -187 90
-8 160 57 160 151 0 84 -21 106 -162 177 -68 34 -160 86 -206 116 -107 72
-152 80 -205 34z"/>
<path d="M4230 2079 c-24 -11 -83 -34 -130 -50 -123 -44 -937 -247 -1058 -264
-107 -16 -162 -37 -199 -77 -90 -97 -31 -279 101 -312 51 -13 173 -6 323 19
106 18 604 140 774 190 140 41 336 123 384 160 82 62 106 192 52 274 -51 76
-155 102 -247 60z"/>
<path d="M4898 1747 c-15 -7 -74 -57 -131 -112 -147 -143 -319 -256 -495 -324
-85 -34 -254 -77 -427 -110 -177 -34 -229 -55 -263 -105 -54 -80 -49 -169 15
-232 56 -56 93 -60 283 -29 486 78 655 126 845 237 224 131 425 328 440 432 9
56 -16 143 -51 186 -53 62 -148 87 -216 57z"/>
<path d="M2035 1380 c-89 -19 -137 -73 -143 -163 l-5 -59 55 -51 c145 -136
392 -237 658 -267 172 -20 248 -1 285 70 19 37 19 103 0 140 -32 61 -74 81
-207 96 -194 23 -335 76 -487 182 -69 48 -109 62 -156 52z"/>
<path d="M2025 886 c-127 -47 -160 -207 -64 -311 83 -90 361 -207 584 -245
212 -36 459 -19 700 47 156 44 212 216 105 323 -62 62 -103 67 -271 35 -179
-34 -318 -36 -468 -5 -138 28 -279 74 -374 122 -91 45 -153 55 -212 34z"/>
</g>
</svg>
