<?xml version="1.0" standalone="no"?>
<!DOCTYPE svg PUBLIC "-//W3C//DTD SVG 20010904//EN"
 "http://www.w3.org/TR/2001/REC-SVG-20010904/DTD/svg10.dtd">
<svg version="1.0" xmlns="http://www.w3.org/2000/svg"
 width="600.000000pt" height="600.000000pt" viewBox="0 0 600.000000 600.000000"
 preserveAspectRatio="xMidYMid meet">
<metadata>
Created by potrace 1.15, written by Peter Selinger 2001-2017
</metadata>
<g transform="translate(0.000000,600.000000) scale(0.100000,-0.100000)"
fill="#16364b" stroke="none">
<path d="M3035 5086 c-111 -48 -188 -243 -129 -323 28 -37 81 -42 129 -13 44
27 109 106 135 161 19 44 26 124 12 145 -29 41 -92 54 -147 30z m93 -79 c5
-42 -42 -130 -95 -177 -71 -62 -89 -55 -83 35 5 83 85 179 143 173 27 -2 33
-8 35 -31z"/>
<path d="M4793 4740 c-12 -5 -26 -18 -32 -29 -11 -19 -34 -263 -48 -494 -5
-95 -4 -109 12 -127 40 -44 125 -5 125 57 0 44 29 453 36 504 4 35 1 50 -13
66 -22 26 -51 34 -80 23z"/>
<path d="M1800 4591 c-71 -23 -131 -74 -166 -141 -14 -26 -19 -57 -19 -115 0
-74 3 -86 42 -165 51 -102 73 -192 112 -461 55 -382 63 -506 66 -1089 2 -573
5 -611 56 -809 79 -305 240 -486 510 -569 36 -11 86 -23 111 -27 l46 -7 -5
-116 c-6 -139 7 -221 73 -450 61 -215 64 -202 -47 -202 -94 0 -122 -8 -151
-44 -22 -27 -23 -85 -2 -115 53 -75 244 -66 335 16 87 78 90 129 25 358 -64
223 -79 310 -74 428 3 53 8 100 11 104 4 3 134 4 289 2 156 -2 371 -4 480 -4
l196 0 4 -125 c5 -138 34 -285 94 -471 19 -58 34 -109 34 -112 0 -4 -36 -7
-80 -7 -111 0 -166 -26 -185 -88 -10 -33 13 -80 47 -98 100 -52 292 -3 348 89
38 62 37 90 -13 236 -47 140 -84 298 -94 405 -5 60 10 173 25 188 4 4 68 14
142 23 343 38 621 156 754 318 180 220 161 629 -39 845 -79 86 -267 178 -508
248 -283 83 -659 223 -832 309 -250 126 -487 340 -662 600 -22 33 -91 148
-153 255 -62 107 -133 227 -158 265 -46 70 -179 250 -204 276 -8 8 -32 41 -55
74 -48 71 -106 126 -165 156 -46 23 -146 34 -188 20z m176 -206 c28 -28 61
-69 72 -91 11 -22 28 -47 38 -54 55 -47 202 -265 329 -490 162 -288 256 -420
420 -589 207 -214 403 -334 795 -488 240 -94 247 -96 460 -158 245 -70 454
-166 514 -236 43 -50 80 -118 108 -199 27 -79 26 -215 -2 -300 -80 -239 -311
-359 -755 -395 -44 -3 -131 -13 -193 -21 -136 -18 -281 -21 -802 -12 -465 7
-531 16 -662 95 -230 137 -337 489 -308 1007 16 287 -2 682 -51 1131 -40 373
-75 533 -143 661 -45 84 -28 175 36 192 56 14 89 2 144 -53z"/>
<path d="M2511 2621 c-28 -28 -26 -47 8 -82 44 -44 80 -38 101 16 23 61 -62
113 -109 66z"/>
<path d="M2977 2392 c-23 -26 -21 -55 6 -80 30 -28 68 -28 95 1 43 46 18 97
-47 97 -24 0 -44 -7 -54 -18z"/>
<path d="M5260 3994 c-102 -36 -159 -77 -196 -139 -35 -61 -45 -99 -45 -181 0
-103 29 -174 100 -245 208 -207 550 -66 569 235 8 128 -35 216 -140 287 l-63
44 -105 2 c-58 1 -112 0 -120 -3z m114 -304 c14 -5 26 -14 26 -19 0 -14 -30
-41 -45 -41 -18 0 -38 37 -31 56 6 17 16 17 50 4z"/>
<path d="M4211 3749 c-123 -37 -245 -202 -244 -329 1 -69 20 -114 70 -162 58
-56 124 -82 213 -82 103 -1 171 24 231 84 88 88 97 197 29 337 -58 117 -190
185 -299 152z m77 -295 c-2 -12 -13 -20 -31 -22 -27 -3 -28 -2 -16 20 22 43
55 44 47 2z"/>
<path d="M5353 1090 c-52 -48 -83 -218 -48 -266 8 -12 28 -27 44 -34 44 -18
98 11 130 68 25 46 39 149 27 196 -13 51 -112 75 -153 36z"/>
</g>
</svg>
