<?xml version="1.0" standalone="no"?>
<!DOCTYPE svg PUBLIC "-//W3C//DTD SVG 20010904//EN"
 "http://www.w3.org/TR/2001/REC-SVG-20010904/DTD/svg10.dtd">
<svg version="1.0" xmlns="http://www.w3.org/2000/svg"
 width="600.000000pt" height="600.000000pt" viewBox="0 0 600.000000 600.000000"
 preserveAspectRatio="xMidYMid meet">
<metadata>
Created by potrace 1.15, written by Peter Selinger 2001-2017
</metadata>
<g transform="translate(0.000000,600.000000) scale(0.100000,-0.100000)"
fill="#16364b" stroke="none">
<path d="M1898 5800 c-45 -24 -60 -44 -183 -244 -109 -179 -146 -254 -181
-375 -36 -126 -30 -209 23 -271 35 -43 74 -60 131 -60 64 0 116 19 210 76 117
71 402 297 479 380 76 82 34 234 -72 263 -60 16 -101 0 -206 -83 -52 -41 -96
-73 -98 -70 -2 2 22 50 54 106 65 117 76 164 48 218 -39 75 -127 101 -205 60z"/>
<path d="M3004 5701 c-122 -74 -121 -229 2 -290 71 -35 267 -155 343 -210 135
-95 210 -189 239 -295 23 -83 -2 -115 -111 -135 -98 -18 -147 -69 -147 -152 0
-54 30 -102 77 -124 81 -39 248 5 342 90 24 22 56 68 78 111 66 134 55 265
-35 439 -52 101 -188 232 -413 401 -102 76 -206 149 -231 162 -55 27 -103 28
-144 3z"/>
<path d="M914 5395 c-108 -23 -183 -70 -245 -153 -137 -181 -136 -400 3 -579
50 -65 146 -139 199 -153 94 -26 189 49 189 149 0 61 -14 86 -75 131 -69 51
-95 91 -95 149 0 37 6 49 38 81 30 31 50 40 112 54 132 30 176 78 168 181 -11
128 -118 179 -294 140z"/>
<path d="M2842 5089 c-58 -29 -127 -108 -152 -177 -41 -108 -23 -240 43 -310
58 -62 168 -85 302 -62 130 22 180 72 170 170 -3 30 -7 81 -9 113 -8 117 -71
224 -157 267 -53 27 -141 27 -197 -1z"/>
<path d="M4747 4870 c-80 -50 -89 -74 -84 -220 4 -138 19 -192 84 -315 120
-228 320 -279 477 -122 64 65 90 127 91 217 0 66 -4 84 -33 143 -41 83 -123
173 -211 232 -155 103 -239 119 -324 65z"/>
<path d="M2003 4775 c-98 -27 -180 -81 -208 -136 -8 -15 -15 -47 -15 -71 0
-127 115 -187 235 -123 l50 26 17 -22 c10 -11 18 -32 18 -45 0 -98 103 -188
192 -169 45 10 96 61 109 107 24 91 -38 275 -121 358 -76 76 -177 103 -277 75z"/>
<path d="M2893 3999 c-82 -26 -141 -72 -175 -138 -54 -102 -30 -230 58 -312
54 -50 96 -73 189 -105 67 -22 102 -27 220 -31 159 -5 191 4 233 67 21 30 23
44 19 97 -4 53 -2 65 16 80 42 37 60 120 36 166 -25 49 -67 78 -171 122 -180
76 -305 92 -425 54z"/>
<path d="M1210 3994 c-14 -2 -73 -11 -131 -20 -125 -19 -174 -43 -206 -99 -26
-47 -31 -127 -9 -178 30 -73 128 -126 209 -113 l39 7 -34 -48 c-19 -26 -71
-98 -115 -160 -173 -240 -325 -503 -384 -665 -36 -96 -34 -145 5 -212 66 -112
241 -121 329 -17 14 17 153 124 309 239 155 114 326 243 378 285 52 42 101 77
108 77 16 0 15 -29 -3 -136 -25 -141 -87 -309 -190 -515 -105 -210 -168 -321
-257 -451 -70 -102 -82 -136 -67 -192 22 -81 105 -129 187 -107 82 23 207 205
402 586 106 208 148 324 206 575 33 138 37 171 38 300 1 142 0 146 -29 205
-41 82 -93 118 -178 123 -92 6 -150 -20 -300 -135 -155 -118 -173 -131 -165
-118 3 6 39 60 80 121 41 61 94 150 118 199 37 76 44 99 48 167 7 127 -33 205
-132 255 -42 21 -67 26 -141 29 -49 1 -101 1 -115 -2z"/>
<path d="M4167 3769 c-105 -36 -171 -91 -219 -182 -19 -35 -23 -58 -23 -132 0
-78 4 -97 27 -140 31 -60 67 -95 128 -127 38 -20 60 -23 145 -23 90 0 106 3
160 29 114 56 205 174 255 332 27 83 22 128 -17 174 -34 41 -64 55 -155 74
-107 22 -229 20 -301 -5z m128 -299 c-19 -21 -55 -27 -55 -10 0 11 35 28 59
29 11 1 10 -4 -4 -19z"/>
<path d="M3446 3405 c-82 -21 -145 -105 -211 -280 -30 -82 -27 -129 12 -176
37 -43 68 -56 159 -64 63 -5 89 -3 118 9 81 34 127 91 152 188 51 198 -67 364
-230 323z"/>
<path d="M4960 3063 c-19 -10 -78 -60 -131 -113 -80 -80 -104 -112 -140 -185
-39 -79 -44 -96 -44 -159 0 -57 5 -80 25 -116 46 -83 173 -141 271 -125 98 17
211 102 259 195 52 101 69 265 36 344 -22 52 -112 153 -148 165 -44 15 -87 13
-128 -6z"/>
<path d="M3957 2594 c-61 -19 -131 -87 -146 -140 -18 -64 -13 -99 30 -235 23
-72 39 -132 37 -134 -2 -3 -29 5 -59 17 -36 14 -77 21 -124 22 -59 0 -78 -4
-124 -29 -91 -50 -157 -152 -168 -260 -8 -72 8 -149 67 -330 27 -82 60 -195
75 -250 34 -127 63 -177 122 -212 115 -67 285 -6 339 123 18 44 18 131 -1 184
-21 60 -20 62 28 37 62 -33 163 -31 239 5 165 77 201 210 138 518 -29 146
-154 539 -186 588 -30 46 -78 82 -128 97 -60 18 -77 18 -139 -1z"/>
<path d="M1973 2191 c-83 -38 -185 -158 -248 -292 -32 -70 -31 -105 3 -171
l29 -54 -51 -56 c-137 -152 -204 -343 -193 -553 20 -368 325 -736 664 -801
206 -39 439 6 641 124 86 51 210 170 243 233 27 52 29 121 5 167 -16 31 -16
32 31 104 72 111 206 383 235 478 91 289 72 487 -59 613 -78 76 -214 98 -349
56 -38 -12 -162 -68 -276 -125 -114 -57 -212 -104 -218 -104 -5 0 -14 19 -20
43 -63 241 -170 357 -329 357 -43 0 -81 -7 -108 -19z m1007 -570 c0 -32 -48
-202 -75 -271 -36 -87 -90 -192 -135 -265 -52 -81 -66 -139 -50 -205 l12 -51
-39 -47 c-93 -110 -200 -157 -341 -150 -74 3 -97 9 -151 37 -138 70 -241 172
-280 276 -25 67 -28 188 -7 260 21 68 78 148 131 185 26 18 47 30 49 28 1 -1
10 -30 20 -63 25 -83 72 -168 106 -193 75 -56 169 -50 242 16 59 53 81 108 76
191 l-3 66 35 18 c106 54 387 186 398 186 6 1 12 -8 12 -18z"/>
</g>
</svg>
