<?xml version="1.0" standalone="no"?>
<!DOCTYPE svg PUBLIC "-//W3C//DTD SVG 20010904//EN"
 "http://www.w3.org/TR/2001/REC-SVG-20010904/DTD/svg10.dtd">
<svg version="1.0" xmlns="http://www.w3.org/2000/svg"
 width="600.000000pt" height="600.000000pt" viewBox="0 0 600.000000 600.000000"
 preserveAspectRatio="xMidYMid meet">
<metadata>
Created by potrace 1.15, written by Peter Selinger 2001-2017
</metadata>
<g transform="translate(0.000000,600.000000) scale(0.100000,-0.100000)"
fill="#16364b" stroke="none">
<path d="M3003 5060 c-53 -27 -99 -88 -119 -158 -17 -59 -12 -99 17 -137 69
-87 269 71 269 213 0 86 -81 125 -167 82z m88 -50 c10 -6 19 -20 19 -31 0 -57
-104 -179 -152 -179 -19 0 -20 5 -16 54 5 66 41 125 89 149 41 20 36 19 60 7z"/>
<path d="M4784 4720 c-12 -5 -27 -24 -32 -42 -6 -18 -14 -157 -17 -309 l-7
-276 24 -28 c18 -21 33 -28 58 -27 71 2 78 36 79 392 0 257 -1 264 -46 288
-25 14 -30 14 -59 2z"/>
<path d="M1758 4501 c-102 -21 -188 -115 -196 -216 -6 -69 15 -129 72 -209 79
-111 101 -206 141 -616 28 -295 41 -514 55 -940 22 -687 40 -792 164 -978 115
-173 268 -265 496 -302 l75 -12 1 -186 c0 -200 16 -306 69 -474 14 -42 25 -84
25 -91 0 -12 -22 -16 -101 -19 -99 -4 -102 -4 -130 -36 -49 -55 -34 -129 33
-163 98 -50 289 7 349 105 28 46 24 107 -16 218 -64 181 -97 414 -81 571 l8
68 81 -6 c359 -25 576 -36 718 -36 l165 0 0 -117 c0 -127 23 -271 75 -471 16
-63 29 -120 29 -126 0 -8 -24 -15 -67 -19 -93 -10 -128 -22 -158 -57 -48 -58
-23 -135 51 -159 75 -25 206 14 273 81 72 71 76 129 26 315 -41 154 -75 345
-75 423 0 53 13 127 23 137 3 3 49 9 102 15 168 15 422 73 530 119 249 107
431 417 412 700 -11 160 -71 310 -162 409 -65 69 -143 113 -245 136 -41 9 -88
21 -105 26 -16 5 -91 20 -165 34 -307 57 -413 91 -745 239 -262 118 -374 184
-526 312 -191 162 -261 256 -597 809 -63 105 -134 214 -156 243 -23 30 -54 70
-69 90 -91 120 -175 172 -292 185 -28 3 -67 2 -87 -2z m160 -185 c23 -14 56
-47 74 -72 18 -25 49 -63 68 -83 40 -41 76 -97 215 -331 301 -506 491 -733
765 -913 158 -104 649 -323 842 -375 42 -12 165 -40 275 -62 422 -85 401 -79
467 -139 41 -38 70 -86 97 -166 20 -59 24 -89 23 -185 0 -98 -4 -126 -27 -194
-35 -100 -67 -154 -133 -226 -70 -75 -142 -109 -324 -153 -284 -69 -568 -94
-890 -77 -689 36 -838 46 -914 65 -231 55 -367 201 -416 445 -22 112 -47 427
-55 700 -12 415 -25 602 -75 1060 -38 360 -56 428 -144 559 -55 81 -46 147 24
174 28 12 87 -1 128 -27z"/>
<path d="M2492 2623 c-22 -9 -33 -52 -20 -76 38 -73 128 -56 128 24 0 46 -56
73 -108 52z"/>
<path d="M2983 2360 c-28 -11 -46 -45 -38 -70 8 -25 52 -60 76 -60 26 0 59 39
59 69 0 32 -8 45 -37 60 -25 13 -30 13 -60 1z"/>
<path d="M5312 3979 c-73 -12 -146 -52 -207 -113 -68 -68 -97 -131 -98 -215
-1 -57 4 -75 33 -129 79 -148 233 -218 390 -178 108 28 199 92 247 174 21 36
28 62 31 127 5 87 -8 127 -65 202 -41 54 -156 123 -221 134 -31 5 -57 8 -57 8
0 -1 -24 -5 -53 -10z m102 -299 c12 -12 -9 -35 -41 -45 -19 -5 -25 -1 -33 20
-6 15 -7 31 -4 37 7 11 63 3 78 -12z"/>
<path d="M4174 3729 c-117 -45 -193 -152 -202 -283 -7 -118 41 -202 148 -258
36 -18 61 -23 120 -23 125 0 228 63 282 174 19 37 23 63 23 131 0 145 -34 212
-130 256 -65 31 -167 32 -241 3z m131 -249 c9 -15 -4 -47 -22 -54 -27 -11 -38
10 -19 38 17 28 31 32 41 16z"/>
<path d="M5371 1114 c-41 -17 -72 -85 -79 -170 -4 -60 -3 -64 27 -95 29 -28
36 -31 74 -26 74 10 119 86 121 204 1 41 -4 57 -20 73 -25 26 -81 32 -123 14z"/>
</g>
</svg>
