<?xml version="1.0" standalone="no"?>
<!DOCTYPE svg PUBLIC "-//W3C//DTD SVG 20010904//EN"
 "http://www.w3.org/TR/2001/REC-SVG-20010904/DTD/svg10.dtd">
<svg version="1.0" xmlns="http://www.w3.org/2000/svg"
 width="600.000000pt" height="600.000000pt" viewBox="0 0 600.000000 600.000000"
 preserveAspectRatio="xMidYMid meet">
<metadata>
Created by potrace 1.15, written by Peter Selinger 2001-2017
</metadata>
<g transform="translate(0.000000,600.000000) scale(0.100000,-0.100000)"
fill="#16364b" stroke="none">
<path d="M2249 5458 c-43 -29 -86 -115 -106 -213 -27 -136 16 -240 125 -298
71 -38 162 -45 305 -22 110 17 128 16 110 -7 -22 -27 -248 -437 -294 -533 -54
-112 -61 -160 -29 -212 10 -18 31 -40 45 -49 18 -11 24 -22 19 -33 -41 -99 -2
-197 89 -222 34 -9 54 -6 168 31 141 45 317 86 536 124 79 14 152 30 163 36
35 19 60 70 60 123 0 57 -18 95 -62 132 -31 26 -37 27 -103 22 -84 -7 -272
-44 -489 -99 -87 -21 -160 -37 -163 -34 -12 11 120 257 222 416 149 232 179
296 183 385 3 57 0 80 -16 111 -66 130 -192 164 -449 119 -62 -10 -114 -17
-117 -14 -3 3 2 24 10 48 46 135 -95 263 -207 189z"/>
<path d="M3875 5084 c-138 -35 -256 -93 -285 -139 -54 -87 10 -208 117 -222
34 -4 55 1 119 32 44 21 100 40 126 43 47 4 47 4 53 -30 13 -70 -35 -264 -101
-407 -39 -84 -43 -132 -14 -178 27 -45 73 -66 131 -61 73 7 112 40 153 128 94
201 130 345 124 493 -3 83 -9 112 -29 157 -35 76 -77 121 -145 155 -48 24 -71
29 -143 31 -47 2 -95 1 -106 -2z"/>
<path d="M1755 4954 c-142 -35 -403 -165 -543 -271 -90 -68 -95 -166 -14 -235
16 -14 33 -34 36 -45 9 -27 54 -73 83 -84 12 -4 76 -15 142 -24 215 -28 329
-67 419 -143 71 -60 94 -72 141 -72 58 0 104 30 130 84 52 106 3 201 -155 302
-61 39 -201 88 -284 99 -30 4 -61 11 -69 15 -24 13 134 71 213 79 43 4 85 15
106 27 98 57 109 184 22 249 -22 16 -44 20 -117 22 -49 1 -99 -1 -110 -3z"/>
<path d="M4360 4224 c-141 -22 -168 -32 -213 -73 -36 -34 -41 -44 -45 -94 -4
-55 -3 -58 35 -96 22 -22 52 -43 68 -47 16 -4 72 -1 124 7 113 16 295 16 333
1 51 -21 48 -105 -12 -378 -24 -106 -27 -138 -19 -167 32 -117 169 -152 248
-62 21 24 41 69 65 147 62 204 76 319 52 441 -28 141 -104 239 -234 300 -62
29 -76 31 -187 34 -71 1 -159 -4 -215 -13z"/>
<path d="M2095 3879 c-140 -46 -268 -69 -413 -76 -150 -7 -182 -19 -214 -83
-37 -72 -15 -152 55 -204 36 -26 164 -34 276 -16 116 18 441 99 488 121 111
53 118 209 13 268 -50 28 -95 25 -205 -10z"/>
<path d="M3730 3733 c-80 -13 -217 -75 -445 -200 -139 -77 -171 -103 -187
-154 -23 -77 25 -168 100 -188 50 -14 72 -7 203 70 127 75 267 144 275 136 3
-2 -23 -73 -56 -157 -72 -179 -74 -209 -11 -272 43 -42 75 -53 128 -43 63 12
102 62 177 234 130 296 138 413 37 512 -61 59 -127 78 -221 62z"/>
<path d="M2127 3291 c-75 -8 -108 -27 -145 -82 -20 -28 -23 -44 -20 -94 4 -66
24 -102 72 -131 23 -14 47 -16 125 -13 53 2 143 3 201 4 l105 0 -3 -28 c-2
-16 -10 -44 -18 -62 -8 -19 -14 -55 -14 -80 0 -37 6 -52 33 -82 29 -31 41 -37
89 -41 64 -5 124 20 156 65 33 47 65 170 66 254 1 65 -3 84 -29 134 -35 69
-92 117 -168 141 -58 19 -330 28 -450 15z"/>
<path d="M4260 3188 c-19 -5 -63 -37 -99 -70 -81 -76 -174 -137 -296 -193 -93
-43 -241 -95 -272 -95 -9 0 -36 -9 -60 -21 -79 -38 -115 -138 -79 -224 16 -37
46 -61 96 -75 160 -46 850 308 910 466 33 85 -24 187 -118 214 -20 5 -39 10
-42 9 -3 0 -21 -5 -40 -11z"/>
<path d="M4915 3161 c-53 -24 -103 -75 -129 -131 -17 -38 -20 -62 -18 -157 2
-132 13 -117 -167 -228 -62 -38 -135 -92 -162 -119 -181 -178 -232 -496 -118
-730 41 -85 80 -130 132 -155 126 -61 282 14 323 157 20 69 12 130 -28 201
-25 45 -29 62 -24 97 12 88 30 109 181 208 152 100 212 158 263 253 42 80 62
168 62 285 0 178 -35 256 -139 310 -63 33 -118 36 -176 9z"/>
<path d="M1226 3045 c-107 -38 -166 -172 -121 -278 8 -19 38 -56 67 -81 l52
-45 7 -283 c7 -295 12 -328 63 -488 46 -145 90 -201 173 -216 72 -13 170 42
199 113 18 42 18 120 0 171 -8 22 -18 62 -22 88 l-7 47 41 -33 c43 -34 113
-50 166 -36 36 9 81 51 123 113 45 68 131 163 147 163 7 0 22 -19 34 -42 12
-24 27 -50 33 -59 9 -12 3 -50 -26 -170 -58 -233 -60 -472 -5 -549 44 -62 143
-84 197 -44 65 48 67 59 74 267 6 176 10 201 39 302 44 151 42 193 -13 253
-13 14 -22 38 -23 62 -1 22 -16 69 -32 104 -141 300 -456 253 -709 -107 -31
-43 -57 -76 -59 -74 -2 2 -8 113 -14 248 -10 255 -24 349 -62 428 -60 125
-201 189 -322 146z"/>
<path d="M3396 2249 c-146 -15 -599 -110 -648 -135 -34 -18 -74 -59 -95 -99
-21 -39 -21 -131 -1 -170 32 -61 104 -105 171 -105 38 0 262 44 432 85 134 33
266 55 322 55 38 0 45 -4 67 -37 125 -183 380 -96 364 124 -10 147 -121 257
-285 283 -68 11 -215 11 -327 -1z"/>
<path d="M4457 1566 c-41 -15 -55 -25 -107 -72 -48 -43 -87 -54 -200 -54 -405
0 -631 -90 -897 -357 -50 -51 -97 -93 -103 -93 -22 0 -76 -34 -123 -77 -150
-139 -328 -114 -512 71 -44 45 -99 111 -123 147 -52 81 -97 109 -174 109 -139
0 -244 -136 -195 -252 24 -56 161 -233 252 -324 91 -91 185 -151 295 -188 232
-77 431 -56 605 64 53 37 165 145 165 159 0 6 19 15 42 21 31 9 66 36 147 113
123 118 182 159 283 194 65 23 96 26 293 34 276 10 348 24 450 83 65 38 152
136 165 187 40 145 -120 288 -263 235z"/>
</g>
</svg>
