<?xml version="1.0" standalone="no"?>
<!DOCTYPE svg PUBLIC "-//W3C//DTD SVG 20010904//EN"
 "http://www.w3.org/TR/2001/REC-SVG-20010904/DTD/svg10.dtd">
<svg version="1.0" xmlns="http://www.w3.org/2000/svg"
 width="600.000000pt" height="600.000000pt" viewBox="0 0 600.000000 600.000000"
 preserveAspectRatio="xMidYMid meet">
<metadata>
Created by potrace 1.15, written by Peter Selinger 2001-2017
</metadata>
<g transform="translate(0.000000,600.000000) scale(0.100000,-0.100000)"
fill="#16364b" stroke="none">
<path d="M3083 5660 c-69 -35 -100 -121 -69 -193 20 -47 46 -66 201 -146 214
-111 280 -164 326 -256 24 -50 29 -69 24 -99 -17 -88 -120 -176 -333 -282
-147 -75 -172 -99 -172 -173 0 -51 19 -90 60 -125 65 -54 160 -27 380 109 204
127 326 287 338 443 10 143 -53 294 -179 427 -94 99 -185 163 -346 245 -144
73 -173 79 -230 50z"/>
<path d="M2034 5607 c-38 -22 -458 -461 -496 -517 -103 -156 -86 -310 41 -372
39 -20 61 -23 146 -22 119 1 240 25 485 95 185 52 211 65 248 120 20 28 23 43
20 87 -5 55 -25 91 -70 125 -35 26 -99 24 -182 -8 -67 -25 -270 -85 -289 -85
-5 0 42 53 105 118 190 195 226 252 215 333 -3 21 -14 51 -26 68 -41 57 -145
88 -197 58z"/>
<path d="M984 5321 c-229 -115 -350 -389 -289 -650 41 -171 192 -341 303 -341
52 0 108 24 128 55 43 66 35 133 -25 199 -84 93 -118 180 -107 269 14 100 60
155 175 210 97 47 130 116 93 199 -27 61 -71 91 -141 96 -50 3 -65 -1 -137
-37z"/>
<path d="M4677 4830 c-45 -39 -61 -79 -54 -138 3 -26 0 -66 -6 -89 -32 -122
92 -341 235 -412 115 -58 258 -35 336 53 139 158 56 411 -176 534 -87 47 -197
82 -253 82 -39 0 -55 -6 -82 -30z"/>
<path d="M2779 4773 c-94 -48 -209 -158 -239 -229 -36 -83 -43 -146 -26 -215
39 -149 174 -251 338 -253 68 -1 79 2 103 24 42 39 58 78 52 128 -8 75 -52
115 -154 142 -26 6 -43 17 -43 25 0 25 76 93 140 125 73 37 100 75 100 141 0
85 -68 149 -156 149 -29 0 -65 -12 -115 -37z"/>
<path d="M1831 4355 c-157 -35 -361 -179 -377 -268 -14 -82 36 -165 112 -186
57 -15 108 2 158 54 81 83 193 120 275 91 79 -29 151 -15 199 37 67 73 32 201
-67 243 -103 45 -187 53 -300 29z"/>
<path d="M2590 3794 c-137 -24 -214 -50 -249 -86 -59 -60 -64 -139 -14 -198
54 -64 101 -73 229 -40 98 25 234 38 234 22 0 -27 -44 -126 -90 -203 -68 -112
-153 -228 -284 -388 -112 -137 -146 -189 -146 -226 0 -113 98 -191 205 -164
39 10 58 25 130 103 246 268 383 479 460 711 37 111 40 237 6 313 -29 64 -94
124 -159 147 -66 23 -219 27 -322 9z"/>
<path d="M4105 3767 c-95 -32 -152 -75 -188 -142 -18 -32 -22 -57 -22 -125 1
-75 5 -93 32 -150 44 -90 93 -143 165 -179 148 -74 331 -10 440 155 87 131
104 188 82 278 -21 87 -57 130 -127 152 -70 22 -326 29 -382 11z m155 -306 c0
-12 -29 -23 -42 -15 -6 4 -5 10 3 15 18 11 39 11 39 0z"/>
<path d="M1141 3664 c-30 -8 -108 -42 -175 -77 -107 -55 -124 -67 -150 -109
-48 -78 -34 -192 31 -250 47 -43 147 -61 208 -38 24 9 26 8 20 -12 -3 -13 -55
-122 -115 -243 -152 -311 -211 -491 -214 -660 -1 -91 14 -128 75 -177 51 -41
153 -57 215 -33 77 29 361 318 629 638 60 72 91 102 93 91 12 -55 -101 -613
-173 -854 -75 -252 -82 -288 -65 -340 16 -50 67 -97 115 -106 96 -18 161 35
190 157 9 41 46 161 81 267 95 283 120 405 149 710 19 205 19 390 0 461 -47
179 -224 214 -383 76 -23 -20 -106 -113 -184 -207 -77 -93 -142 -167 -144
-165 -3 2 14 51 37 108 148 373 165 550 64 681 -67 89 -173 117 -304 82z"/>
<path d="M3614 3339 c-95 -17 -196 -95 -244 -189 -30 -58 -60 -183 -60 -248 0
-50 3 -58 38 -92 45 -46 97 -59 157 -41 22 7 65 16 95 21 122 17 178 40 242
98 131 118 112 330 -38 418 -50 29 -130 43 -190 33z"/>
<path d="M4825 2812 c-157 -54 -238 -152 -239 -287 -1 -93 24 -162 81 -225 59
-66 112 -93 183 -94 142 -1 230 117 230 309 0 61 -4 87 -17 105 -10 14 -19 44
-19 67 -2 54 -30 101 -74 124 -43 23 -80 23 -145 1z"/>
<path d="M2850 2471 c-92 -26 -153 -52 -322 -137 -87 -44 -162 -90 -182 -110
-111 -114 -41 -314 110 -314 26 0 81 20 173 64 132 62 298 126 327 126 11 0
13 -7 8 -27 -11 -49 -90 -234 -154 -363 -59 -119 -61 -128 -58 -187 5 -78 42
-137 108 -171 80 -40 165 -26 228 39 39 40 149 259 191 380 43 125 81 306 81
386 0 162 -72 269 -214 317 -67 22 -211 20 -296 -3z"/>
<path d="M4330 2351 c-107 -57 -139 -139 -115 -298 8 -53 13 -99 10 -101 -2
-3 -42 9 -87 26 -109 41 -200 62 -272 62 -172 0 -308 -113 -336 -279 -12 -70
-12 -67 36 -406 7 -55 14 -116 14 -136 0 -84 54 -169 130 -209 114 -58 246
-17 299 93 28 57 27 134 -3 307 -13 74 -22 137 -21 138 4 5 126 -43 180 -71
33 -17 52 -19 120 -14 133 10 239 59 317 145 47 53 65 86 83 164 25 105 13
307 -26 436 -16 55 -68 115 -122 141 -57 27 -157 28 -207 2z"/>
<path d="M2135 1890 c-131 -20 -209 -150 -160 -267 19 -46 40 -69 88 -99 20
-14 37 -30 37 -36 0 -7 19 -74 41 -150 l42 -139 -19 -42 c-26 -57 -24 -172 5
-252 29 -82 75 -147 179 -257 105 -109 209 -187 344 -256 162 -83 273 -91 453
-31 119 40 202 85 239 132 25 31 31 49 34 101 5 75 -17 128 -74 174 -74 61
-149 61 -269 -2 -81 -42 -121 -45 -197 -16 -82 31 -81 30 -59 81 38 83 23 167
-44 237 -19 20 -53 60 -75 89 -22 29 -64 70 -93 91 l-52 39 -59 183 c-33 100
-74 213 -91 249 -62 129 -155 188 -270 171z"/>
</g>
</svg>
