<?xml version="1.0" standalone="no"?>
<!DOCTYPE svg PUBLIC "-//W3C//DTD SVG 20010904//EN"
 "http://www.w3.org/TR/2001/REC-SVG-20010904/DTD/svg10.dtd">
<svg version="1.0" xmlns="http://www.w3.org/2000/svg"
 width="600.000000pt" height="600.000000pt" viewBox="0 0 600.000000 600.000000"
 preserveAspectRatio="xMidYMid meet">
<metadata>
Created by potrace 1.15, written by Peter Selinger 2001-2017
</metadata>
<g transform="translate(0.000000,600.000000) scale(0.100000,-0.100000)"
fill="#16364b" stroke="none">
<path d="M2205 5824 c-16 -8 -61 -45 -100 -83 -119 -115 -191 -177 -323 -280
-150 -116 -235 -205 -271 -281 -55 -118 -23 -253 72 -302 107 -55 322 -4 799
192 193 79 231 105 244 175 15 83 -53 173 -139 182 -36 4 -57 -2 -137 -42
-108 -53 -277 -125 -294 -125 -6 0 9 17 34 37 89 73 292 279 311 315 23 45 25
118 4 159 -33 63 -131 89 -200 53z"/>
<path d="M3064 5676 c-70 -31 -98 -106 -66 -179 28 -63 71 -92 178 -117 165
-38 262 -99 312 -194 22 -44 26 -63 25 -141 0 -102 -14 -145 -69 -212 -38 -46
-117 -104 -199 -146 -65 -33 -91 -62 -106 -118 -11 -41 -10 -53 5 -94 36 -94
109 -108 242 -46 175 82 346 217 394 310 66 131 67 357 0 533 -71 189 -277
336 -568 403 -77 18 -108 18 -148 1z"/>
<path d="M995 5350 c-64 -14 -181 -85 -242 -147 -159 -159 -196 -380 -95 -567
54 -100 222 -254 300 -275 148 -41 257 174 135 266 -117 89 -173 164 -173 231
0 71 39 116 151 173 42 21 86 50 98 65 57 73 25 197 -61 236 -46 22 -78 27
-113 18z"/>
<path d="M2730 4961 c-91 -28 -192 -112 -237 -198 -44 -84 -58 -146 -58 -253
0 -111 18 -161 84 -232 92 -100 333 -164 422 -112 74 43 101 133 59 201 -26
44 -58 62 -134 78 -83 18 -124 39 -137 73 -25 65 28 143 119 175 69 24 102 64
102 125 0 112 -103 178 -220 143z"/>
<path d="M4775 4941 c-46 -20 -92 -70 -101 -108 -10 -39 3 -211 21 -278 44
-161 137 -289 250 -345 74 -36 173 -35 237 3 88 51 127 126 128 243 1 218
-140 392 -388 480 -81 28 -95 29 -147 5z"/>
<path d="M1883 4480 c-91 -19 -183 -73 -267 -156 -55 -56 -66 -78 -66 -137 0
-47 20 -84 65 -119 24 -18 42 -23 92 -23 63 0 63 0 112 51 80 83 124 91 195
35 96 -76 241 -35 262 75 11 57 -12 111 -69 166 -92 88 -217 130 -324 108z"/>
<path d="M2685 3871 c-90 -24 -146 -87 -153 -174 -5 -64 23 -112 81 -141 32
-15 46 -17 88 -8 87 17 96 -18 42 -158 -46 -119 -129 -253 -223 -360 -75 -86
-93 -122 -87 -176 9 -85 86 -142 171 -129 49 8 113 70 243 232 221 276 292
500 218 687 -33 82 -111 170 -180 205 -51 25 -148 36 -200 22z"/>
<path d="M1250 3793 c-85 -15 -329 -120 -374 -161 -78 -73 -75 -197 7 -269 47
-41 97 -57 159 -49 l49 7 -22 -43 c-12 -24 -58 -108 -102 -187 -44 -80 -101
-192 -127 -250 -49 -110 -141 -357 -161 -433 -39 -143 91 -263 247 -230 68 14
90 32 356 290 292 285 452 427 456 403 6 -34 -56 -315 -112 -508 -64 -222
-108 -351 -165 -487 -22 -55 -41 -114 -41 -133 0 -133 155 -198 265 -111 35
27 101 167 148 313 100 311 166 578 182 735 4 36 13 86 20 112 8 26 17 105 21
175 5 106 4 139 -10 186 -39 136 -177 193 -306 127 -51 -27 -123 -82 -270
-211 -72 -63 -136 -116 -141 -117 -5 -2 23 52 63 120 150 257 188 406 138 541
-46 123 -166 200 -280 180z"/>
<path d="M4320 3789 c-147 -19 -251 -61 -323 -133 -64 -64 -91 -125 -95 -214
-4 -66 -1 -79 28 -138 36 -74 91 -122 178 -155 73 -27 186 -23 247 8 102 54
206 180 300 365 51 101 57 120 51 152 -10 55 -61 106 -116 117 -55 10 -182 9
-270 -2z m-26 -313 c-9 -22 -54 -48 -71 -41 -27 10 -2 28 74 54 1 1 0 -5 -3
-13z"/>
<path d="M3520 3371 c-46 -14 -105 -49 -132 -78 -52 -55 -98 -173 -123 -315
-14 -77 42 -156 126 -178 50 -14 143 -1 232 32 83 30 160 102 187 176 55 144
-24 315 -164 357 -54 16 -87 18 -126 6z"/>
<path d="M4757 2709 c-185 -193 -248 -330 -212 -457 21 -72 81 -135 145 -152
91 -24 213 22 316 121 72 70 108 131 129 224 26 112 3 200 -62 242 -15 10 -39
31 -52 46 -34 40 -73 57 -133 57 l-53 0 -78 -81z"/>
<path d="M4191 2434 c-38 -19 -62 -40 -82 -72 -41 -65 -44 -108 -15 -246 14
-66 23 -122 21 -125 -3 -2 -42 14 -87 37 -100 49 -145 62 -219 62 -139 0 -265
-98 -309 -239 -28 -88 -25 -142 14 -342 19 -96 40 -212 46 -258 13 -97 34
-145 84 -188 46 -41 97 -57 161 -50 96 10 166 61 206 151 24 56 23 111 -7 263
-9 46 -14 86 -10 90 8 9 64 -18 116 -56 63 -45 130 -57 209 -36 123 32 191 81
234 169 63 129 63 287 -2 538 -44 173 -63 217 -113 265 -70 68 -158 81 -247
37z"/>
<path d="M2863 2320 c-98 -26 -182 -60 -360 -147 -111 -54 -161 -84 -187 -113
-20 -22 -36 -44 -36 -49 0 -4 -30 -10 -68 -13 -91 -7 -151 -35 -228 -109 -78
-76 -103 -138 -84 -211 23 -86 98 -148 177 -148 l38 0 18 -85 c9 -46 20 -90
23 -98 3 -9 -19 -26 -70 -50 -163 -81 -250 -237 -232 -417 9 -82 49 -177 116
-274 127 -184 309 -321 515 -386 97 -31 266 -38 355 -16 88 23 284 122 329
168 86 86 77 217 -20 287 -35 26 -51 31 -100 31 -49 0 -68 -6 -126 -40 -136
-78 -206 -87 -338 -43 -103 34 -192 90 -255 161 -130 145 -115 245 23 152 34
-22 73 -43 87 -46 14 -3 42 -12 63 -20 101 -38 222 9 256 99 15 39 14 111 -3
151 -7 18 -37 53 -65 77 -61 52 -101 112 -130 194 -29 82 -81 339 -69 344 5 2
33 15 61 30 234 124 310 161 359 177 32 9 60 15 63 13 6 -7 -136 -400 -175
-483 -43 -89 -51 -131 -39 -185 19 -85 86 -141 169 -141 95 0 159 61 244 233
65 129 195 542 203 643 20 231 -235 387 -514 314z"/>
</g>
</svg>
