<?xml version="1.0" standalone="no"?>
<!DOCTYPE svg PUBLIC "-//W3C//DTD SVG 20010904//EN"
 "http://www.w3.org/TR/2001/REC-SVG-20010904/DTD/svg10.dtd">
<svg version="1.0" xmlns="http://www.w3.org/2000/svg"
 width="600.000000pt" height="600.000000pt" viewBox="0 0 600.000000 600.000000"
 preserveAspectRatio="xMidYMid meet">
<metadata>
Created by potrace 1.15, written by Peter Selinger 2001-2017
</metadata>
<g transform="translate(0.000000,600.000000) scale(0.100000,-0.100000)"
fill="#16364b" stroke="none">
<path d="M2186 5808 c-35 -20 -519 -462 -593 -541 -88 -95 -123 -161 -123
-234 0 -138 98 -206 261 -183 90 13 207 43 301 77 111 39 501 213 522 231 29
27 48 71 48 117 0 84 -57 145 -142 153 -42 4 -66 -4 -220 -72 -95 -42 -174
-75 -177 -73 -2 3 68 71 156 153 91 83 168 163 177 182 30 64 5 144 -59 182
-36 22 -120 27 -151 8z"/>
<path d="M3073 5680 c-74 -33 -108 -121 -77 -198 21 -55 50 -73 154 -101 245
-66 357 -168 368 -337 11 -178 -66 -282 -270 -360 -80 -30 -111 -65 -112 -128
-2 -122 104 -176 249 -126 141 49 258 138 336 257 67 103 90 176 96 303 6 127
-9 197 -67 317 -93 190 -263 306 -545 374 -96 23 -81 23 -132 -1z"/>
<path d="M983 5321 c-165 -61 -290 -176 -338 -311 -9 -25 -20 -74 -24 -110
-24 -195 59 -368 232 -483 68 -46 122 -55 181 -33 63 24 88 55 94 117 6 69
-12 102 -89 158 -78 56 -111 107 -117 174 -5 68 21 107 108 158 132 77 138 82
157 122 23 51 21 122 -4 156 -50 66 -115 83 -200 52z"/>
<path d="M2761 4964 c-82 -22 -150 -62 -216 -129 -182 -180 -153 -428 66 -574
117 -78 280 -105 349 -58 87 59 95 199 14 251 -14 10 -55 22 -91 27 -101 14
-153 48 -153 99 0 44 48 93 113 113 67 21 102 52 118 105 16 54 -2 104 -51
142 -45 36 -83 42 -149 24z"/>
<path d="M4785 4932 c-51 -32 -94 -81 -105 -123 -13 -46 -5 -166 17 -259 33
-137 121 -267 222 -327 38 -23 58 -28 116 -28 82 0 126 18 184 76 110 111 118
284 20 433 -81 121 -271 246 -375 246 -30 0 -61 -7 -79 -18z"/>
<path d="M1805 4476 c-91 -29 -189 -106 -226 -178 -55 -108 14 -238 128 -238
54 0 76 11 129 62 50 47 107 70 144 56 14 -5 39 -23 57 -40 61 -59 174 -46
225 25 16 22 23 50 26 92 3 50 0 66 -20 95 -32 47 -106 96 -185 120 -75 23
-214 26 -278 6z"/>
<path d="M2695 3861 c-100 -46 -135 -154 -80 -246 28 -50 75 -75 135 -75 l43
0 -6 -54 c-10 -96 -103 -266 -226 -414 -28 -33 -59 -75 -71 -94 -25 -41 -26
-102 -1 -148 20 -38 88 -80 129 -80 44 0 105 39 148 93 257 328 327 472 327
667 -1 172 -88 312 -222 358 -50 17 -130 14 -176 -7z"/>
<path d="M4272 3789 c-187 -24 -310 -114 -347 -255 -27 -103 6 -215 86 -295
53 -53 117 -81 199 -87 83 -6 133 8 208 58 81 54 152 144 217 273 62 123 70
175 35 232 -27 44 -70 63 -176 75 -100 11 -131 11 -222 -1z m9 -320 c-26 -21
-65 -26 -59 -7 4 12 70 38 78 31 3 -3 -6 -13 -19 -24z"/>
<path d="M1195 3780 c-105 -16 -258 -67 -308 -102 -61 -43 -87 -160 -51 -231
43 -84 107 -121 205 -115 65 3 67 3 57 -17 -25 -48 -97 -169 -168 -285 -43
-69 -94 -159 -115 -200 -50 -99 -155 -419 -155 -473 0 -90 73 -164 171 -174
100 -10 142 11 284 146 33 31 119 110 190 176 120 110 297 289 390 393 61 69
61 67 24 -143 -39 -213 -159 -598 -250 -799 -83 -182 -91 -210 -78 -259 23
-85 116 -136 190 -104 48 20 63 41 108 147 21 52 60 140 86 195 137 294 181
434 242 765 36 199 41 236 42 330 2 201 -63 300 -197 300 -106 0 -195 -56
-385 -240 -67 -65 -123 -117 -125 -116 -1 2 38 81 87 177 49 96 99 202 110
236 68 203 -41 379 -244 396 -33 3 -82 2 -110 -3z"/>
<path d="M3543 3369 c-135 -25 -232 -142 -271 -327 -22 -106 -9 -151 56 -197
42 -29 47 -30 145 -29 157 2 265 50 329 146 130 192 -33 449 -259 407z"/>
<path d="M4875 2805 c-22 -8 -55 -31 -73 -52 -216 -252 -275 -402 -210 -528
21 -40 44 -60 98 -84 165 -75 388 77 439 300 14 58 14 171 0 206 -16 43 -129
152 -169 163 -42 12 -36 12 -85 -5z"/>
<path d="M4190 2464 c-59 -26 -101 -65 -126 -118 -29 -63 -30 -108 -3 -231 12
-53 18 -99 15 -102 -3 -3 -36 8 -73 25 -98 45 -187 58 -255 38 -122 -35 -232
-162 -269 -309 -22 -88 -6 -280 35 -442 42 -160 70 -213 140 -266 122 -92 277
-71 343 45 35 63 36 109 8 241 -14 65 -25 129 -23 142 3 23 3 23 35 6 17 -10
53 -31 79 -47 66 -42 128 -45 224 -12 122 43 182 97 227 207 39 95 15 483 -42
684 -16 57 -69 115 -127 140 -47 19 -142 19 -188 -1z"/>
<path d="M2934 2310 c-139 -29 -563 -217 -626 -277 -25 -24 -29 -25 -77 -13
-93 22 -178 -5 -278 -89 -72 -60 -103 -116 -103 -185 0 -109 93 -196 211 -196
42 0 41 1 68 -121 6 -25 13 -53 16 -61 5 -12 -10 -24 -60 -48 -175 -84 -268
-266 -237 -467 28 -178 196 -425 363 -533 72 -46 206 -96 314 -117 154 -30
293 -1 488 100 117 60 173 107 198 161 24 53 24 88 -1 136 -37 72 -123 116
-209 108 -28 -3 -87 -25 -154 -58 -130 -65 -182 -72 -284 -41 -79 23 -135 58
-203 125 -97 96 -143 237 -80 244 15 2 42 -8 64 -23 21 -14 72 -44 114 -66 67
-36 83 -40 125 -36 95 9 171 92 171 186 -1 57 -22 99 -76 148 -86 79 -151 214
-198 408 -21 89 -18 105 15 105 6 0 105 47 220 105 116 57 221 107 234 111 23
6 23 5 17 -32 -15 -80 -109 -343 -157 -439 -27 -56 -52 -117 -55 -136 -14 -87
49 -186 135 -209 78 -21 163 15 211 89 63 99 193 424 255 636 18 61 27 116 28
170 1 70 -3 89 -30 145 -58 125 -133 171 -283 176 -52 2 -114 -1 -136 -6z"/>
</g>
</svg>
