<?xml version="1.0" standalone="no"?>
<!DOCTYPE svg PUBLIC "-//W3C//DTD SVG 20010904//EN"
 "http://www.w3.org/TR/2001/REC-SVG-20010904/DTD/svg10.dtd">
<svg version="1.0" xmlns="http://www.w3.org/2000/svg"
 width="600.000000pt" height="600.000000pt" viewBox="0 0 600.000000 600.000000"
 preserveAspectRatio="xMidYMid meet">
<metadata>
Created by potrace 1.15, written by Peter Selinger 2001-2017
</metadata>
<g transform="translate(0.000000,600.000000) scale(0.100000,-0.100000)"
fill="#16364b" stroke="none">
<path d="M2390 5390 c-18 -18 -20 -33 -20 -127 0 -239 -31 -446 -85 -560 -43
-91 -105 -154 -196 -198 -90 -43 -99 -51 -99 -90 0 -40 26 -65 69 -65 53 0
168 67 242 140 138 136 185 299 196 678 5 185 4 204 -12 222 -23 26 -69 26
-95 0z"/>
<path d="M3532 5293 c-7 -3 -21 -22 -32 -43 -18 -35 -18 -42 -6 -78 53 -149
167 -262 266 -262 92 0 115 70 57 172 -93 165 -201 245 -285 211z"/>
<path d="M3026 5125 c-21 -7 -58 -33 -82 -56 -131 -128 -135 -349 -7 -375 104
-21 252 130 278 283 10 60 -22 129 -69 148 -43 18 -69 18 -120 0z m36 -192
c-11 -21 -34 -51 -51 -67 -30 -29 -31 -29 -31 -8 0 37 28 92 62 124 31 29 33
30 36 10 2 -11 -6 -38 -16 -59z"/>
<path d="M4774 4741 c-41 -25 -51 -59 -59 -197 -11 -191 20 -377 75 -442 27
-33 84 -54 126 -46 46 9 99 60 113 109 32 117 -16 345 -110 519 -41 75 -86 93
-145 57z"/>
<path d="M2634 4201 c-73 -33 -105 -121 -69 -190 22 -43 91 -98 154 -122 77
-30 215 -32 289 -4 101 37 162 113 144 179 -10 36 -47 75 -79 82 -15 3 -64 16
-108 29 -173 50 -262 57 -331 26z"/>
<path d="M5273 3985 c-123 -34 -206 -103 -243 -201 -61 -162 27 -377 175 -427
128 -44 320 3 430 104 117 108 120 301 7 430 -17 20 -59 50 -94 69 -53 28 -75
34 -143 37 -50 2 -100 -3 -132 -12z m147 -291 c8 -9 -16 -37 -38 -45 -17 -7
-25 -3 -38 16 -22 34 -10 48 35 40 20 -4 38 -9 41 -11z"/>
<path d="M4235 3756 c-160 -39 -270 -168 -269 -316 1 -161 127 -258 318 -248
206 11 317 159 285 380 -6 42 -19 89 -29 106 -21 35 -85 68 -159 82 -65 12
-82 12 -146 -4z m85 -256 c0 -15 -38 -50 -55 -50 -22 0 -18 27 7 44 26 18 48
21 48 6z"/>
<path d="M1125 3485 c-141 -31 -253 -110 -295 -207 -29 -68 -25 -180 10 -248
71 -139 219 -239 425 -289 136 -33 186 -75 255 -212 66 -130 149 -416 190
-654 44 -255 108 -404 226 -521 153 -152 410 -237 704 -234 63 1 189 -4 280
-10 91 -7 226 -9 300 -6 74 4 299 11 500 16 244 6 395 14 455 24 322 55 648
197 801 350 110 111 195 276 230 448 24 118 15 337 -20 473 -56 219 -169 372
-336 454 -132 64 -220 84 -385 85 -209 2 -282 -25 -595 -221 -278 -173 -386
-214 -570 -216 -172 -2 -257 32 -575 231 -224 139 -303 194 -491 337 -202 154
-448 295 -608 350 -176 60 -369 79 -501 50z m210 -325 c286 -62 496 -178 920
-506 383 -297 649 -433 932 -480 155 -25 311 -7 503 60 97 34 169 76 330 191
162 116 249 160 355 182 95 19 206 8 276 -28 62 -31 145 -114 174 -173 100
-204 54 -508 -99 -661 -92 -92 -343 -218 -496 -249 -41 -8 -212 -24 -380 -36
-168 -11 -359 -25 -425 -32 -146 -13 -393 -12 -495 2 -41 6 -172 14 -290 19
-221 9 -286 20 -374 62 -121 57 -187 187 -216 429 -17 139 -34 212 -106 444
-106 338 -149 423 -281 546 -75 71 -187 130 -279 148 -32 6 -84 16 -114 22
-56 11 -120 42 -120 59 0 25 71 25 185 1z"/>
<path d="M2217 2322 c-27 -29 -21 -67 14 -96 37 -31 43 -32 69 -6 28 28 27 84
-2 104 -30 21 -61 20 -81 -2z"/>
<path d="M2870 2073 c-21 -8 -40 -34 -40 -55 0 -30 48 -68 87 -68 29 0 36 5
47 32 17 39 8 68 -25 85 -25 13 -44 15 -69 6z"/>
<path d="M3464 3360 c-12 -5 -33 -24 -47 -42 -39 -51 -137 -258 -137 -288 0
-35 28 -60 67 -60 73 0 223 219 223 326 0 29 -41 74 -67 73 -10 0 -28 -4 -39
-9z"/>
<path d="M470 2018 c-39 -42 -33 -53 108 -202 77 -81 163 -107 216 -65 21 16
26 29 26 62 0 36 -6 47 -52 92 -60 58 -201 135 -247 135 -18 0 -38 -9 -51 -22z"/>
<path d="M5322 1103 c-17 -7 -58 -89 -66 -134 -18 -98 69 -172 158 -135 47 20
75 78 76 158 0 46 -5 62 -26 87 -23 28 -32 31 -77 30 -29 0 -58 -3 -65 -6z"/>
</g>
</svg>
