<?xml version="1.0" standalone="no"?>
<!DOCTYPE svg PUBLIC "-//W3C//DTD SVG 20010904//EN"
 "http://www.w3.org/TR/2001/REC-SVG-20010904/DTD/svg10.dtd">
<svg version="1.0" xmlns="http://www.w3.org/2000/svg"
 width="600.000000pt" height="600.000000pt" viewBox="0 0 600.000000 600.000000"
 preserveAspectRatio="xMidYMid meet">
<metadata>
Created by potrace 1.15, written by Peter Selinger 2001-2017
</metadata>
<g transform="translate(0.000000,600.000000) scale(0.100000,-0.100000)"
fill="#16364b" stroke="none">
<path d="M2375 5375 c-25 -24 -25 -26 -25 -207 0 -358 -70 -523 -262 -623 -97
-50 -108 -61 -108 -105 0 -39 18 -62 58 -75 37 -11 184 67 252 134 70 70 133
188 160 303 23 98 40 276 40 434 0 98 -3 115 -21 138 -26 33 -62 34 -94 1z"/>
<path d="M3529 5291 c-37 -28 -61 -84 -53 -118 42 -172 243 -317 338 -242 22
17 26 28 26 72 0 86 -98 240 -179 282 -53 27 -103 29 -132 6z"/>
<path d="M2969 5072 c-115 -59 -173 -218 -111 -301 35 -47 69 -65 120 -64 120
2 222 114 222 243 0 131 -106 187 -231 122z m101 -119 c0 -39 -78 -128 -96
-111 -11 12 10 61 41 94 36 37 55 43 55 17z"/>
<path d="M4772 4735 c-18 -8 -37 -26 -43 -42 -6 -16 -11 -103 -12 -198 -2
-245 30 -367 112 -422 71 -48 150 -16 189 77 48 116 12 319 -89 496 -33 57
-52 80 -76 90 -39 17 -40 17 -81 -1z"/>
<path d="M2658 4213 c-80 -39 -110 -128 -66 -193 87 -129 357 -181 520 -99 56
28 81 66 75 113 -10 72 -29 86 -188 140 -170 58 -276 70 -341 39z"/>
<path d="M5217 3966 c-131 -55 -199 -149 -205 -286 -5 -108 22 -176 102 -256
78 -78 147 -106 258 -107 66 -1 85 3 142 32 115 56 188 182 189 326 0 114 -53
195 -183 276 -51 32 -61 34 -150 37 -82 2 -103 -1 -153 -22z m152 -292 c37 -8
40 -28 6 -50 -30 -20 -55 -5 -55 32 0 26 2 27 49 18z"/>
<path d="M4229 3746 c-143 -38 -245 -158 -257 -302 -21 -270 289 -394 489
-195 79 79 103 144 103 276 0 144 -27 182 -153 219 -64 19 -118 19 -182 2z
m65 -307 c-9 -10 -23 -19 -31 -19 -22 0 -15 27 15 50 24 19 27 20 30 5 2 -9
-4 -25 -14 -36z"/>
<path d="M1095 3476 c-219 -53 -337 -247 -271 -444 44 -131 232 -267 444 -320
128 -33 180 -77 249 -217 54 -107 123 -322 194 -606 79 -316 133 -433 254
-554 153 -154 324 -213 680 -235 207 -13 870 -13 1050 0 374 27 671 78 850
145 90 34 289 136 365 186 141 95 230 243 288 483 12 52 17 113 16 226 0 138
-3 164 -26 240 -92 299 -240 468 -481 551 -158 54 -325 47 -523 -22 -114 -39
-181 -77 -384 -212 -187 -125 -279 -171 -371 -186 -227 -37 -400 20 -713 237
-626 435 -852 564 -1190 678 -184 63 -317 78 -431 50z m305 -355 c100 -33 484
-222 599 -294 81 -51 139 -91 329 -226 354 -251 468 -320 617 -374 232 -83
490 -90 695 -19 101 35 174 79 335 202 178 136 242 172 353 201 192 49 332 -3
458 -171 75 -100 89 -147 88 -305 0 -114 -3 -140 -27 -210 -52 -154 -110 -212
-314 -314 -183 -92 -315 -125 -613 -153 -94 -9 -332 -13 -780 -13 -593 0 -651
1 -725 19 -167 38 -247 103 -303 245 -18 44 -63 203 -101 353 -133 521 -181
644 -298 768 -130 138 -257 214 -413 245 -161 32 -208 92 -65 82 41 -2 110
-17 165 -36z"/>
<path d="M2212 2314 c-31 -22 -29 -67 4 -93 15 -12 35 -21 45 -21 23 0 59 46
59 76 0 26 -34 54 -65 54 -11 0 -31 -7 -43 -16z"/>
<path d="M2847 2052 c-10 -10 -17 -26 -17 -36 0 -26 55 -76 84 -76 51 0 76 85
34 114 -30 22 -81 20 -101 -2z"/>
<path d="M3434 3345 c-39 -42 -156 -274 -156 -310 0 -63 67 -84 122 -39 68 58
180 247 180 305 0 43 -35 79 -77 79 -28 0 -43 -8 -69 -35z"/>
<path d="M484 2042 c-20 -13 -35 -53 -28 -75 14 -45 159 -188 220 -218 67 -32
120 -31 150 4 28 33 30 56 8 103 -39 83 -299 221 -350 186z"/>
<path d="M5307 1100 c-37 -29 -58 -83 -59 -150 -1 -63 18 -102 63 -126 59 -30
120 -6 150 59 26 58 26 176 1 207 -28 34 -117 40 -155 10z"/>
</g>
</svg>
