<?xml version="1.0" standalone="no"?>
<!DOCTYPE svg PUBLIC "-//W3C//DTD SVG 20010904//EN"
 "http://www.w3.org/TR/2001/REC-SVG-20010904/DTD/svg10.dtd">
<svg version="1.0" xmlns="http://www.w3.org/2000/svg"
 width="600.000000pt" height="600.000000pt" viewBox="0 0 600.000000 600.000000"
 preserveAspectRatio="xMidYMid meet">
<metadata>
Created by potrace 1.15, written by Peter Selinger 2001-2017
</metadata>
<g transform="translate(0.000000,600.000000) scale(0.100000,-0.100000)"
fill="#16364b" stroke="none">
<path d="M2232 5440 c-40 -25 -67 -67 -92 -149 -50 -158 3 -301 127 -342 27
-9 84 -10 210 -5 95 3 173 3 173 0 0 -3 -35 -56 -78 -117 -43 -62 -91 -134
-108 -162 -68 -112 -144 -297 -144 -350 0 -72 79 -155 147 -155 37 0 42 -9 15
-27 -51 -31 -66 -137 -31 -211 42 -86 110 -101 231 -53 91 36 317 107 513 162
188 52 202 59 227 115 36 82 2 170 -78 205 l-45 20 -92 -21 c-51 -11 -217 -57
-370 -100 -152 -44 -280 -80 -283 -80 -3 0 5 13 19 30 14 16 33 53 42 82 22
67 76 177 113 231 16 23 59 85 95 139 190 274 215 441 86 551 -77 67 -190 82
-374 52 -120 -20 -116 -20 -105 11 49 127 -84 243 -198 174z"/>
<path d="M3844 5161 c-71 -12 -176 -48 -215 -74 -52 -36 -71 -69 -71 -124 0
-128 93 -182 220 -129 36 15 86 28 115 29 l52 2 3 -38 c4 -45 -31 -172 -89
-328 -34 -91 -41 -119 -37 -160 11 -109 137 -167 229 -104 30 20 44 43 81 132
110 264 132 340 132 468 1 88 -2 107 -25 156 -51 107 -142 166 -270 173 -41 3
-97 1 -125 -3z"/>
<path d="M1701 4905 c-107 -24 -191 -55 -301 -112 -194 -100 -244 -150 -237
-236 5 -54 28 -92 75 -122 17 -11 33 -31 37 -44 10 -39 42 -77 77 -94 18 -8
78 -20 134 -26 203 -23 329 -66 436 -146 54 -41 65 -45 116 -45 44 0 62 5 90
26 88 67 82 198 -12 266 -95 69 -267 137 -421 168 l-90 18 38 16 c65 29 163
47 219 40 105 -11 188 60 188 162 0 42 -5 59 -27 85 -15 17 -42 38 -60 45 -41
18 -178 17 -262 -1z"/>
<path d="M4311 4250 c-107 -19 -138 -33 -175 -84 -32 -42 -29 -122 6 -168 43
-56 74 -64 187 -48 146 20 308 25 326 10 28 -23 18 -128 -36 -377 -25 -119
-21 -159 22 -208 40 -45 95 -62 147 -47 75 23 89 52 154 332 38 164 43 295 15
377 -38 107 -127 188 -242 218 -80 21 -271 18 -404 -5z"/>
<path d="M2170 3889 c-114 -46 -414 -98 -562 -96 -66 0 -120 -37 -143 -97 -30
-78 -7 -144 65 -193 63 -43 267 -27 606 47 162 35 219 61 245 110 72 134 -68
286 -211 229z"/>
<path d="M3690 3730 c-50 -11 -78 -21 -165 -60 -85 -39 -386 -208 -411 -232
-29 -26 -44 -88 -34 -134 16 -70 95 -123 163 -110 18 3 73 29 122 57 131 75
290 150 293 139 2 -5 -15 -52 -37 -106 -49 -115 -53 -173 -18 -224 50 -74 115
-95 190 -62 54 24 68 44 131 191 102 240 107 377 17 474 -55 61 -154 87 -251
67z"/>
<path d="M2185 3271 c-80 -5 -130 -12 -150 -23 -121 -65 -128 -225 -12 -282
35 -17 48 -17 145 -7 128 13 282 14 282 2 0 -5 -7 -28 -15 -51 -8 -23 -15 -58
-15 -78 0 -53 42 -116 93 -141 55 -26 89 -26 143 0 53 25 87 89 105 193 23
134 -11 251 -91 317 -73 61 -232 84 -485 70z"/>
<path d="M4922 3205 c-64 -20 -111 -61 -139 -121 -21 -46 -23 -65 -21 -149 l3
-96 -41 -37 c-252 -227 -278 -257 -351 -398 -59 -113 -83 -207 -83 -326 0
-164 62 -315 157 -382 147 -103 362 32 363 227 0 39 -7 71 -21 99 -45 87 -1
199 117 303 43 38 116 106 161 151 134 135 182 266 170 462 -11 156 -61 234
-173 268 -57 17 -86 17 -142 -1z"/>
<path d="M4255 3156 c-16 -8 -55 -40 -85 -72 -120 -127 -350 -242 -545 -274
-148 -24 -193 -51 -216 -131 -24 -79 28 -167 112 -189 123 -34 514 108 719
261 101 75 226 207 235 249 15 66 -22 138 -82 161 -35 13 -103 11 -138 -5z"/>
<path d="M1266 3026 c-21 -8 -56 -32 -77 -52 -82 -80 -78 -197 9 -282 l47 -45
6 -296 c7 -316 15 -384 65 -534 41 -125 101 -177 199 -177 105 0 186 82 187
189 0 26 -10 75 -21 110 -31 96 -61 347 -71 606 -9 253 -18 301 -73 381 -56
84 -185 132 -271 100z"/>
<path d="M2050 2557 c-114 -32 -258 -149 -342 -276 -39 -60 -48 -82 -48 -118
0 -96 70 -167 165 -167 67 0 101 22 165 109 59 79 107 132 132 146 14 8 21 2
38 -30 11 -22 30 -47 41 -55 l22 -15 -36 -123 c-43 -145 -53 -191 -62 -278 -8
-80 18 -269 41 -310 40 -67 150 -91 214 -47 75 50 83 85 61 245 -17 113 -8
181 45 345 33 101 35 114 24 150 -6 22 -25 53 -41 69 -24 25 -29 38 -29 79 0
95 -86 221 -179 262 -56 24 -151 31 -211 14z"/>
<path d="M3530 2223 c-217 -16 -739 -111 -809 -147 -76 -40 -113 -154 -77
-239 20 -50 75 -96 131 -113 48 -13 59 -13 170 10 66 14 194 43 285 65 195 47
256 58 372 67 l87 7 41 -46 c85 -93 196 -103 278 -24 104 100 45 300 -112 377
-89 44 -193 56 -366 43z"/>
<path d="M4485 1564 c-16 -8 -52 -37 -81 -64 -59 -56 -52 -54 -314 -69 -308
-18 -435 -68 -695 -277 -94 -75 -185 -165 -185 -184 0 -5 -13 -10 -29 -10 -44
0 -70 -13 -143 -68 -86 -64 -150 -86 -238 -80 -133 10 -294 117 -395 264 -22
32 -61 80 -87 105 -37 39 -55 49 -93 55 -123 18 -226 -73 -226 -201 0 -62 11
-86 94 -209 140 -205 315 -334 532 -392 106 -29 298 -27 386 4 122 42 336 195
354 253 4 12 15 19 31 19 44 0 89 26 191 111 122 102 219 161 320 195 61 21
114 28 277 40 110 7 221 19 246 24 123 30 287 153 326 246 38 90 -11 198 -108
239 -48 19 -125 19 -163 -1z"/>
</g>
</svg>
