<?xml version="1.0" standalone="no"?>
<!DOCTYPE svg PUBLIC "-//W3C//DTD SVG 20010904//EN"
 "http://www.w3.org/TR/2001/REC-SVG-20010904/DTD/svg10.dtd">
<svg version="1.0" xmlns="http://www.w3.org/2000/svg"
 width="600.000000pt" height="600.000000pt" viewBox="0 0 600.000000 600.000000"
 preserveAspectRatio="xMidYMid meet">
<metadata>
Created by potrace 1.15, written by Peter Selinger 2001-2017
</metadata>
<g transform="translate(0.000000,600.000000) scale(0.100000,-0.100000)"
fill="#16364b" stroke="none">
<path d="M1523 5791 c-41 -18 -202 -250 -258 -374 -29 -63 -36 -147 -16 -185
6 -12 26 -29 43 -38 42 -22 90 -13 201 36 116 52 392 215 417 247 45 58 12
154 -61 173 -48 13 -73 6 -144 -38 -27 -17 -51 -29 -53 -27 -2 2 5 17 17 33
52 73 8 170 -79 178 -25 2 -55 0 -67 -5z"/>
<path d="M2385 5441 c-11 -5 -29 -19 -40 -31 -18 -20 -21 -41 -26 -219 -7
-225 -25 -332 -73 -436 -41 -88 -95 -142 -195 -194 -63 -33 -82 -48 -96 -77
-22 -47 -8 -101 36 -138 39 -33 87 -34 157 -1 218 101 324 276 367 603 21 160
30 400 16 434 -20 51 -93 80 -146 59z"/>
<path d="M3530 5322 c-24 -12 -43 -32 -59 -66 -22 -45 -23 -53 -12 -95 36
-138 184 -273 300 -274 59 -1 104 23 125 67 30 64 14 127 -61 234 -52 74 -97
106 -184 132 -77 24 -67 24 -109 2z"/>
<path d="M2979 5124 c-98 -30 -189 -148 -189 -245 0 -59 13 -96 48 -132 55
-59 119 -74 207 -52 142 37 180 90 180 246 0 76 -3 90 -27 126 -45 69 -119 88
-219 57z"/>
<path d="M4741 4765 c-45 -39 -55 -81 -48 -214 13 -243 96 -425 222 -482 169
-77 348 93 306 291 -20 93 -60 159 -156 256 -159 162 -255 206 -324 149z m249
-433 c0 -15 -2 -15 -10 -2 -13 20 -13 33 0 25 6 -3 10 -14 10 -23z"/>
<path d="M2661 4208 c-73 -28 -135 -91 -155 -158 -50 -167 115 -338 303 -315
108 13 229 81 319 180 76 83 83 161 19 223 -26 25 -54 37 -150 62 -146 37
-253 40 -336 8z"/>
<path d="M1083 4090 c-59 -36 -80 -116 -48 -184 21 -43 53 -60 162 -86 51 -12
96 -26 99 -31 20 -33 -142 -88 -309 -105 -70 -7 -120 -45 -138 -104 -10 -32
-9 -44 7 -76 11 -21 35 -49 54 -62 31 -21 43 -23 100 -19 102 9 255 53 355
101 188 92 260 233 189 374 -44 89 -136 150 -285 192 -92 25 -145 25 -186 0z"/>
<path d="M4290 3780 c-103 -19 -185 -64 -254 -140 -60 -67 -81 -122 -81 -215
0 -70 3 -86 28 -128 62 -102 159 -153 275 -145 193 14 335 195 357 454 10 109
-26 150 -150 173 -66 12 -109 12 -175 1z m24 -292 c-15 -27 -38 -48 -51 -48
-21 0 -15 27 9 44 27 19 52 21 42 4z"/>
<path d="M1640 3712 c-49 -24 -73 -78 -78 -178 -7 -139 43 -254 141 -321 151
-102 306 -10 307 180 0 127 -66 251 -164 307 -62 36 -149 41 -206 12z"/>
<path d="M5185 3656 c-233 -74 -354 -312 -262 -517 63 -140 205 -207 351 -165
107 31 186 100 235 205 36 76 37 211 4 284 -27 58 -135 174 -180 193 -39 17
-95 17 -148 0z m45 -351 c-13 -25 -40 -35 -40 -15 0 14 40 53 48 46 3 -3 -1
-17 -8 -31z"/>
<path d="M3414 3381 c-45 -27 -75 -71 -133 -190 -61 -126 -66 -168 -22 -211
40 -41 72 -46 139 -24 72 24 133 83 172 166 52 111 49 186 -9 242 -39 38 -103
45 -147 17z"/>
<path d="M2515 3216 c-168 -44 -294 -108 -525 -264 -85 -58 -200 -126 -255
-152 -227 -106 -353 -218 -448 -397 -67 -129 -98 -242 -104 -388 -7 -149 11
-246 67 -360 63 -131 76 -143 470 -465 214 -174 346 -230 545 -230 197 0 305
40 565 209 363 236 467 327 595 521 38 58 83 122 101 143 17 21 46 65 64 99
108 203 71 406 -124 678 -41 58 -94 132 -118 165 -24 33 -57 76 -74 95 -16 19
-36 54 -43 78 -23 81 -165 200 -306 258 -62 25 -85 28 -195 31 -106 3 -139 -1
-215 -21z m278 -398 c9 -13 53 -61 98 -108 45 -47 107 -122 136 -167 30 -46
88 -131 129 -189 113 -163 123 -224 49 -316 -19 -24 -49 -63 -66 -88 -85 -118
-241 -269 -423 -405 -39 -30 -98 -75 -131 -101 -122 -95 -242 -134 -354 -116
-115 20 -168 55 -378 249 -105 99 -201 191 -213 205 -61 79 -85 214 -56 325
23 92 61 160 125 223 57 56 77 68 232 138 47 21 125 67 175 101 49 34 131 90
182 126 51 35 119 74 150 85 81 31 208 58 273 59 48 1 59 -2 72 -21z"/>
<path d="M403 2265 c-61 -26 -67 -78 -27 -225 49 -182 134 -331 247 -437 159
-149 324 -162 397 -33 76 136 -17 338 -229 499 -64 49 -227 155 -304 198 -28
16 -44 16 -84 -2z m356 -462 c51 -57 60 -73 41 -73 -9 0 -110 115 -110 126 0
15 25 -4 69 -53z"/>
<path d="M4550 1868 c-19 -5 -47 -21 -61 -35 -26 -24 -28 -24 -53 -8 -35 23
-116 24 -150 1 -15 -9 -36 -31 -47 -49 -18 -28 -20 -43 -14 -110 7 -102 67
-335 103 -401 21 -39 38 -56 75 -75 105 -52 202 19 252 184 30 100 77 365 71
400 -7 37 -65 95 -96 95 -10 0 -24 2 -32 4 -7 2 -29 0 -48 -6z"/>
</g>
</svg>
