<?xml version="1.0" standalone="no"?>
<!DOCTYPE svg PUBLIC "-//W3C//DTD SVG 20010904//EN"
 "http://www.w3.org/TR/2001/REC-SVG-20010904/DTD/svg10.dtd">
<svg version="1.0" xmlns="http://www.w3.org/2000/svg"
 width="600.000000pt" height="600.000000pt" viewBox="0 0 600.000000 600.000000"
 preserveAspectRatio="xMidYMid meet">
<metadata>
Created by potrace 1.15, written by Peter Selinger 2001-2017
</metadata>
<g transform="translate(0.000000,600.000000) scale(0.100000,-0.100000)"
fill="#16364b" stroke="none">
<path d="M3564 5272 c-6 -4 -19 -22 -28 -40 -17 -34 -17 -34 22 -117 67 -138
178 -231 247 -205 26 10 45 38 45 67 0 60 -134 258 -193 286 -37 18 -75 22
-93 9z m137 -189 c12 -19 19 -36 16 -39 -5 -6 -67 76 -67 89 0 15 28 -12 51
-50z"/>
<path d="M3027 5076 c-91 -33 -157 -127 -165 -235 -7 -98 52 -154 137 -131 85
23 211 174 211 254 0 44 -34 95 -75 112 -42 17 -59 17 -108 0z m79 -101 c16
-40 -96 -181 -136 -172 -35 7 4 125 56 166 31 24 72 28 80 6z"/>
<path d="M4741 4724 c-18 -23 -21 -41 -21 -134 0 -140 19 -414 31 -464 19 -73
78 -104 142 -75 44 20 60 72 65 209 5 141 -13 268 -53 383 -31 90 -47 107
-101 107 -34 0 -47 -5 -63 -26z"/>
<path d="M2673 4233 c-12 -2 -34 -18 -49 -36 -22 -26 -25 -38 -21 -71 8 -56
34 -86 108 -123 125 -63 307 -91 382 -60 49 21 73 72 57 122 -14 44 -37 63
-96 79 -27 7 -101 29 -164 49 -118 36 -178 47 -217 40z"/>
<path d="M1450 4034 c-151 -66 -181 -270 -59 -409 19 -21 58 -54 87 -72 80
-52 108 -107 168 -340 44 -172 70 -317 94 -533 11 -96 29 -229 40 -295 10 -66
26 -214 35 -330 23 -307 52 -408 162 -563 102 -144 279 -245 498 -283 l64 -11
-50 -61 c-105 -130 -142 -257 -101 -350 32 -72 76 -94 310 -154 19 -4 33 -12
33 -18 -1 -5 -33 -18 -72 -28 -82 -21 -114 -39 -135 -78 -20 -39 -18 -71 6
-97 41 -43 116 -41 216 7 101 49 154 117 154 199 0 84 -66 137 -223 179 -121
33 -147 47 -147 78 0 45 40 112 128 215 73 85 90 100 109 95 21 -5 606 -24
755 -25 l68 0 -10 -26 c-13 -33 -13 -89 1 -139 15 -56 89 -125 159 -149 59
-20 84 -36 58 -36 -26 0 -58 -49 -58 -87 0 -79 95 -120 203 -89 121 35 179
136 131 227 -18 35 -100 77 -204 104 -35 9 -81 25 -102 36 -31 16 -38 25 -38
49 0 24 8 35 43 56 23 15 51 35 63 46 15 13 47 21 110 28 193 22 354 62 562
141 273 104 424 224 516 414 54 111 70 183 70 320 1 144 -20 227 -93 380 -108
227 -259 314 -521 302 -131 -6 -198 -26 -300 -87 -148 -89 -305 -117 -563
-101 -343 21 -520 75 -713 219 -179 132 -258 225 -469 547 -64 99 -146 216
-180 261 -78 100 -222 236 -312 296 -164 109 -220 143 -265 160 -60 22 -178
24 -228 2z m178 -194 c23 -10 57 -31 76 -45 18 -14 36 -25 41 -25 4 0 38 -20
75 -45 122 -81 238 -221 460 -555 233 -350 395 -520 625 -654 157 -91 298
-133 560 -166 366 -47 596 -11 832 129 173 102 368 89 467 -32 150 -185 170
-454 48 -643 -46 -70 -160 -180 -225 -216 -69 -39 -239 -103 -375 -142 -249
-72 -413 -82 -1057 -67 -472 11 -579 19 -710 51 -169 42 -266 110 -329 229
-48 91 -63 163 -81 382 -17 204 -18 212 -46 353 -11 54 -31 185 -44 290 -35
270 -60 406 -110 603 -66 261 -115 351 -230 427 -56 38 -95 79 -95 102 0 20
29 44 53 44 12 0 41 -9 65 -20z"/>
<path d="M2367 2482 c-10 -10 -17 -26 -17 -36 0 -21 53 -76 73 -76 23 0 55 32
62 62 14 55 -78 94 -118 50z"/>
<path d="M2859 2099 c-39 -39 -1 -118 58 -119 47 0 72 90 35 123 -25 23 -68
21 -93 -4z"/>
<path d="M5257 3959 c-76 -18 -161 -80 -193 -141 -79 -151 7 -390 171 -476 70
-37 187 -38 258 -2 112 56 187 176 195 310 8 132 -46 215 -182 285 -61 31 -77
35 -140 34 -39 -1 -88 -5 -109 -10z m120 -300 l28 -11 -28 -24 c-31 -26 -44
-24 -57 10 -14 37 4 45 57 25z"/>
<path d="M4208 3747 c-107 -40 -189 -122 -229 -226 -68 -180 56 -331 270 -331
87 0 149 22 205 71 65 58 101 137 100 219 -2 89 -34 171 -82 207 -82 63 -190
87 -264 60z m82 -265 c0 -10 -5 -23 -12 -30 -13 -13 -48 -16 -48 -4 0 16 32
52 46 52 8 0 14 -8 14 -18z"/>
<path d="M488 2019 c-11 -6 -18 -22 -18 -38 0 -24 12 -38 78 -86 169 -125 272
-149 272 -65 0 37 -30 62 -166 136 -123 66 -137 70 -166 53z"/>
<path d="M5363 1111 c-54 -9 -68 -22 -93 -87 -38 -102 -18 -193 48 -221 69
-29 141 23 161 117 18 83 14 135 -11 164 -28 30 -50 35 -105 27z"/>
</g>
</svg>
