<?xml version="1.0" standalone="no"?>
<!DOCTYPE svg PUBLIC "-//W3C//DTD SVG 20010904//EN"
 "http://www.w3.org/TR/2001/REC-SVG-20010904/DTD/svg10.dtd">
<svg version="1.0" xmlns="http://www.w3.org/2000/svg"
 width="600.000000pt" height="600.000000pt" viewBox="0 0 600.000000 600.000000"
 preserveAspectRatio="xMidYMid meet">
<metadata>
Created by potrace 1.15, written by Peter Selinger 2001-2017
</metadata>
<g transform="translate(0.000000,600.000000) scale(0.100000,-0.100000)"
fill="#16364b" stroke="none">
<path d="M1846 5798 c-72 -15 -91 -39 -184 -226 -91 -182 -144 -327 -164 -443
-22 -129 22 -228 118 -265 129 -49 270 34 566 333 195 198 207 219 167 300
-32 64 -77 93 -143 93 -62 0 -87 -14 -189 -110 -43 -40 -80 -70 -82 -68 -3 3
17 54 45 114 53 117 57 137 36 187 -29 68 -94 101 -170 85z"/>
<path d="M2975 5691 c-58 -35 -70 -58 -70 -126 0 -79 9 -89 161 -191 195 -129
392 -302 471 -412 56 -78 79 -145 57 -167 -9 -8 -32 -15 -52 -15 -86 0 -152
-66 -152 -152 0 -63 20 -101 64 -122 89 -42 264 5 355 96 141 143 121 380 -52
589 -89 107 -475 418 -607 488 -68 36 -129 41 -175 12z"/>
<path d="M951 5425 c-175 -39 -305 -148 -354 -300 -54 -167 -17 -314 114 -447
79 -80 160 -124 212 -113 51 12 86 34 107 68 42 69 15 155 -67 216 -54 40 -77
88 -68 142 12 69 65 107 176 124 84 13 143 84 143 170 0 129 -90 177 -263 140z"/>
<path d="M2953 5160 c-64 -13 -116 -44 -166 -100 -163 -181 -58 -420 195 -438
147 -10 255 34 277 115 9 33 1 151 -15 208 -43 160 -155 242 -291 215z"/>
<path d="M4765 4876 c-42 -18 -83 -69 -91 -113 -11 -57 5 -264 26 -347 36
-142 95 -227 192 -275 123 -62 279 -30 354 72 45 60 57 107 52 193 -11 173
-131 310 -386 441 -90 47 -102 49 -147 29z"/>
<path d="M2040 4849 c-74 -14 -166 -65 -191 -105 -48 -79 -29 -167 47 -212 42
-24 74 -25 151 -1 23 7 45 10 49 6 4 -3 10 -40 14 -81 9 -92 32 -134 90 -164
76 -39 151 -20 204 51 26 35 25 120 -3 229 -37 145 -102 232 -199 268 -56 21
-90 23 -162 9z"/>
<path d="M1245 4074 c-266 -38 -304 -53 -347 -139 -25 -48 -27 -128 -5 -170
32 -63 88 -97 169 -105 l57 -5 -82 -117 c-160 -227 -373 -564 -437 -693 -56
-114 -64 -137 -64 -187 -1 -47 4 -64 29 -99 60 -84 169 -108 258 -56 24 14 51
37 60 51 9 13 65 57 124 99 59 41 184 136 277 211 172 139 395 296 421 296 18
0 20 -47 4 -122 -19 -87 -155 -444 -223 -583 -68 -137 -154 -272 -267 -418
-37 -48 -73 -104 -79 -123 -41 -124 101 -236 224 -177 65 31 247 274 363 483
100 182 149 294 208 474 65 195 85 289 92 421 15 270 -60 395 -235 395 -93 0
-218 -53 -362 -154 -67 -48 -74 -51 -65 -35 5 8 36 50 70 94 150 193 190 280
183 398 -9 162 -102 249 -278 261 -36 2 -78 2 -95 0z"/>
<path d="M2839 4054 c-112 -34 -187 -152 -160 -252 25 -95 108 -162 254 -203
76 -22 100 -24 317 -24 260 0 298 6 356 57 63 55 81 125 49 188 -21 41 -56 62
-195 120 -278 114 -493 154 -621 114z"/>
<path d="M4260 3804 c-186 -37 -305 -130 -346 -272 -67 -230 124 -437 363
-393 87 16 136 42 204 110 67 67 116 164 153 301 20 75 24 103 16 129 -27 94
-81 122 -249 126 -64 2 -127 1 -141 -1z m-3 -339 c-29 -25 -57 -33 -57 -15 0
11 49 39 70 39 10 0 5 -8 -13 -24z"/>
<path d="M3403 3404 c-18 -9 -49 -34 -68 -55 -41 -46 -125 -208 -135 -263 -16
-81 30 -154 110 -176 65 -17 160 -16 197 3 81 42 133 159 133 300 0 96 -24
155 -74 187 -41 25 -117 26 -163 4z"/>
<path d="M4995 3141 c-54 -25 -166 -120 -216 -183 -145 -184 -139 -371 15
-450 92 -47 241 -28 346 43 120 82 169 252 120 411 -15 49 -32 77 -73 121 -76
80 -117 93 -192 58z"/>
<path d="M3899 2636 c-59 -21 -107 -64 -136 -123 -37 -77 -35 -143 11 -302 19
-69 34 -126 33 -127 -1 -2 -29 7 -62 18 -114 38 -236 8 -299 -75 -40 -52 -56
-111 -56 -206 l0 -86 -24 50 c-94 202 -348 253 -624 124 -46 -21 -124 -62
-174 -90 -49 -28 -91 -50 -92 -48 -2 2 -14 44 -26 93 -68 273 -175 397 -344
396 -102 -1 -199 -53 -281 -151 -64 -77 -145 -218 -145 -253 0 -21 -13 -49
-41 -86 -108 -144 -174 -354 -186 -590 -15 -306 110 -567 342 -715 177 -114
458 -195 623 -180 346 30 614 294 826 812 95 231 155 432 157 523 l1 45 15
-50 c33 -116 137 -423 153 -455 95 -186 385 -147 429 58 9 44 6 81 -13 139 -7
22 -7 22 39 6 61 -20 135 -14 208 20 84 38 132 80 162 141 56 114 45 207 -58
471 -65 168 -93 255 -148 464 -19 72 -29 91 -65 127 -60 61 -143 79 -225 50z
m-1811 -946 c6 -36 16 -112 22 -170 12 -111 28 -161 63 -198 26 -28 79 -52
115 -52 53 0 169 44 285 109 221 124 423 219 436 205 9 -9 -81 -259 -134 -371
-93 -196 -225 -406 -285 -453 -109 -86 -261 -113 -397 -71 -85 26 -178 81
-243 142 -83 81 -110 156 -110 312 0 155 41 297 119 410 16 24 35 66 42 92 16
65 60 142 69 124 4 -8 12 -43 18 -79z"/>
</g>
</svg>
