<?xml version="1.0" standalone="no"?>
<!DOCTYPE svg PUBLIC "-//W3C//DTD SVG 20010904//EN"
 "http://www.w3.org/TR/2001/REC-SVG-20010904/DTD/svg10.dtd">
<svg version="1.0" xmlns="http://www.w3.org/2000/svg"
 width="600.000000pt" height="600.000000pt" viewBox="0 0 600.000000 600.000000"
 preserveAspectRatio="xMidYMid meet">
<metadata>
Created by potrace 1.15, written by Peter Selinger 2001-2017
</metadata>
<g transform="translate(0.000000,600.000000) scale(0.100000,-0.100000)"
fill="#16364b" stroke="none">
<path d="M1783 5805 c-53 -32 -66 -59 -165 -348 -126 -367 -137 -420 -99 -502
22 -48 44 -69 94 -90 108 -45 227 3 394 159 109 101 313 333 330 375 19 45 11
112 -18 153 -23 31 -89 67 -124 68 -63 0 -95 -21 -177 -116 -44 -52 -83 -93
-84 -91 -2 2 12 54 31 116 40 130 42 160 16 218 -36 79 -123 105 -198 58z"/>
<path d="M2983 5681 c-52 -24 -76 -60 -76 -115 0 -56 24 -95 86 -137 297 -198
560 -462 583 -584 8 -46 0 -55 -54 -55 -59 0 -103 -26 -125 -73 -32 -67 -15
-141 42 -190 29 -24 41 -27 109 -27 98 0 161 22 223 78 69 62 102 134 107 237
7 132 -39 255 -138 372 -110 130 -515 448 -633 498 -47 20 -73 19 -124 -4z"/>
<path d="M923 5415 c-216 -47 -356 -234 -340 -455 9 -138 80 -266 192 -351 46
-35 66 -43 110 -47 95 -8 155 49 155 145 0 58 -22 98 -80 144 -23 19 -48 46
-56 61 -30 59 -7 146 48 182 13 9 54 20 92 25 37 5 79 17 92 26 64 42 84 145
42 213 -41 66 -125 85 -255 57z"/>
<path d="M2927 5186 c-52 -19 -101 -59 -135 -109 -57 -82 -66 -108 -66 -187
-1 -64 3 -82 26 -122 55 -92 152 -136 277 -124 194 18 241 68 221 236 -19 157
-48 223 -123 284 -31 25 -48 31 -100 33 -36 2 -78 -3 -100 -11z"/>
<path d="M4755 4886 c-70 -43 -80 -71 -77 -221 7 -358 105 -521 325 -542 141
-13 257 59 292 181 58 199 -86 426 -357 565 -92 47 -127 50 -183 17z"/>
<path d="M1989 4828 c-83 -30 -114 -50 -135 -91 -35 -66 -14 -154 46 -197 44
-31 92 -36 161 -15 72 22 75 19 84 -65 11 -105 57 -160 142 -167 95 -8 173 70
173 172 0 116 -50 238 -124 303 -90 79 -225 102 -347 60z"/>
<path d="M2885 4056 c-107 -26 -183 -87 -206 -165 -44 -148 136 -296 407 -332
163 -22 448 9 516 55 70 47 88 145 43 223 -23 38 -39 50 -138 98 -241 117
-464 160 -622 121z"/>
<path d="M1084 4036 c-50 -7 -104 -21 -120 -30 -66 -39 -100 -134 -74 -210 27
-83 104 -135 198 -136 l53 0 -133 -143 c-73 -79 -158 -180 -189 -223 -122
-170 -284 -489 -296 -585 -14 -103 59 -208 158 -228 34 -7 68 -7 92 -2 51 12
113 54 131 89 15 29 139 134 316 267 58 44 146 111 195 150 128 102 261 188
276 180 22 -14 4 -151 -36 -272 -75 -226 -374 -808 -481 -936 -68 -81 -22
-213 82 -233 121 -22 238 112 416 476 50 102 123 251 164 332 155 309 187 418
188 633 1 110 -3 151 -17 192 -60 171 -209 228 -376 144 -56 -29 -209 -123
-250 -155 -23 -18 -4 11 55 80 114 135 169 232 184 329 20 127 -36 234 -146
274 -45 17 -76 21 -177 20 -67 -1 -163 -7 -213 -13z"/>
<path d="M4194 3766 c-157 -36 -259 -140 -271 -275 -11 -120 47 -225 158 -286
50 -28 62 -30 154 -30 95 0 103 2 163 34 110 60 192 173 237 328 16 54 16 69
5 105 -18 62 -66 102 -137 117 -92 19 -240 23 -309 7z m96 -280 c0 -2 -11 -11
-25 -20 -31 -20 -58 -10 -30 11 17 12 55 18 55 9z"/>
<path d="M3385 3372 c-78 -37 -201 -199 -220 -289 -10 -48 24 -115 74 -149 34
-22 55 -27 130 -32 78 -4 95 -2 135 17 90 44 150 152 150 271 1 87 -15 124
-70 167 -48 36 -139 43 -199 15z"/>
<path d="M5028 3156 c-20 -7 -59 -32 -86 -54 -184 -154 -272 -339 -231 -487
16 -56 91 -129 149 -145 108 -29 233 12 319 105 145 160 160 387 33 518 -64
65 -122 85 -184 63z"/>
<path d="M3845 2643 c-83 -43 -129 -121 -128 -218 1 -58 13 -100 77 -269 l27
-69 -23 7 c-149 42 -179 42 -261 -2 -94 -50 -147 -143 -156 -272 l-6 -85 -23
50 c-46 101 -153 176 -270 190 -112 13 -308 -55 -509 -177 -51 -31 -95 -53
-97 -50 -2 4 -7 30 -10 57 -21 149 -86 300 -165 387 -71 77 -150 112 -240 106
-86 -6 -142 -35 -213 -111 -59 -61 -168 -254 -168 -295 0 -11 -8 -30 -19 -43
-32 -41 -122 -199 -158 -277 -130 -281 -99 -673 75 -929 98 -144 325 -302 503
-348 141 -37 404 -13 566 52 132 53 262 157 353 283 22 30 53 74 70 98 50 68
135 247 180 377 52 152 117 406 126 493 l7 67 28 -105 c39 -152 135 -401 170
-443 84 -102 251 -104 351 -5 56 56 73 102 73 191 -1 42 1 77 3 77 1 0 17 -7
34 -16 44 -23 138 -15 209 18 145 66 202 202 165 387 -15 72 -235 691 -271
760 -18 37 -89 100 -131 117 -44 18 -131 17 -169 -3z m-1750 -1018 c8 -182 12
-207 41 -252 34 -51 75 -78 152 -97 73 -18 120 -20 157 -6 15 6 94 53 177 106
171 109 344 202 355 190 11 -10 -27 -149 -82 -301 -54 -148 -131 -310 -175
-363 -16 -21 -44 -57 -63 -82 -74 -100 -205 -160 -351 -160 -129 1 -241 51
-351 157 -93 91 -125 183 -125 369 0 144 23 236 94 368 29 56 55 108 57 116 2
8 24 46 49 83 l45 69 7 -34 c4 -18 10 -91 13 -163z"/>
</g>
</svg>
