<?xml version="1.0" standalone="no"?>
<!DOCTYPE svg PUBLIC "-//W3C//DTD SVG 20010904//EN"
 "http://www.w3.org/TR/2001/REC-SVG-20010904/DTD/svg10.dtd">
<svg version="1.0" xmlns="http://www.w3.org/2000/svg"
 width="600.000000pt" height="600.000000pt" viewBox="0 0 600.000000 600.000000"
 preserveAspectRatio="xMidYMid meet">
<metadata>
Created by potrace 1.15, written by Peter Selinger 2001-2017
</metadata>
<g transform="translate(0.000000,600.000000) scale(0.100000,-0.100000)"
fill="#16364b" stroke="none">
<path d="M3255 5467 c-87 -40 -114 -144 -54 -212 21 -23 48 -40 82 -50 64 -19
93 -38 110 -73 35 -68 27 -157 -22 -271 -36 -80 -39 -133 -11 -178 55 -90 190
-83 256 14 32 47 72 179 85 281 21 156 -15 276 -114 373 -95 94 -257 150 -332
116z"/>
<path d="M2070 5418 c-56 -29 -81 -77 -88 -167 -6 -83 9 -131 55 -182 41 -45
110 -74 203 -84 36 -3 73 -9 83 -11 22 -7 22 -34 -2 -159 -11 -55 -22 -140
-26 -190 -6 -82 -4 -94 17 -134 39 -74 126 -102 204 -65 51 25 70 65 78 167 3
48 15 143 26 210 11 67 20 143 20 168 0 105 -58 213 -137 257 -25 14 -74 27
-127 34 l-86 11 0 31 c0 46 -34 94 -83 116 -55 25 -83 25 -137 -2z"/>
<path d="M1590 4804 c-88 -11 -236 -46 -264 -62 -99 -58 -90 -219 15 -272 45
-24 81 -24 169 -4 104 24 352 30 426 10 119 -31 204 26 204 137 0 84 -40 134
-135 168 -50 18 -86 22 -220 24 -88 2 -176 1 -195 -1z"/>
<path d="M4273 4527 c-31 -29 -37 -41 -41 -89 -7 -89 35 -146 142 -188 67 -27
113 -62 129 -99 6 -14 13 -96 16 -181 6 -168 13 -189 73 -224 37 -23 116 -20
156 4 54 33 73 90 79 238 8 183 -18 274 -106 374 -83 94 -276 198 -367 198
-36 0 -51 -6 -81 -33z"/>
<path d="M3194 4456 c-16 -7 -75 -49 -130 -93 -125 -101 -235 -172 -396 -258
-134 -70 -161 -94 -178 -153 -30 -110 85 -210 195 -171 124 45 623 377 678
451 11 14 22 48 24 75 4 39 0 55 -19 82 -46 67 -114 94 -174 67z"/>
<path d="M1570 4402 c-50 -25 -80 -74 -80 -134 0 -110 42 -141 229 -174 318
-54 500 -67 565 -40 84 35 124 163 74 235 -35 52 -80 71 -166 71 -81 0 -307
23 -447 45 -115 19 -133 19 -175 -3z"/>
<path d="M3690 3836 c-36 -12 -173 -77 -305 -143 -132 -66 -271 -133 -308
-148 -41 -17 -80 -42 -97 -61 -53 -61 -52 -149 3 -208 42 -44 90 -54 158 -32
88 29 279 115 409 183 69 36 138 72 153 81 23 11 34 12 53 3 14 -6 45 -11 70
-11 79 0 127 38 150 118 37 128 -45 242 -176 242 -25 0 -74 -11 -110 -24z"/>
<path d="M2230 3821 c-111 -37 -242 -52 -429 -50 -203 3 -226 -4 -261 -76 -46
-96 -5 -193 95 -226 61 -19 367 -17 480 4 119 22 261 63 290 85 81 60 73 189
-16 254 -36 27 -94 30 -159 9z"/>
<path d="M5025 3535 c-5 -2 -27 -6 -48 -10 -50 -8 -111 -64 -133 -120 -17 -47
-16 -90 6 -215 6 -36 9 -84 5 -106 -8 -59 -64 -168 -124 -244 -210 -267 -344
-521 -344 -650 0 -138 101 -240 238 -240 110 0 183 55 225 167 41 111 127 250
274 443 83 110 143 223 171 325 26 95 31 303 11 405 -20 97 -32 123 -78 167
-48 47 -164 91 -203 78z"/>
<path d="M1970 3158 c-104 -70 -106 -200 -5 -260 35 -20 169 -44 303 -54 65
-4 97 -11 105 -21 63 -80 119 -105 189 -83 167 50 150 279 -28 368 -47 24
-117 37 -289 53 -240 23 -237 23 -275 -3z"/>
<path d="M4368 3170 c-15 -4 -64 -41 -108 -81 -154 -140 -283 -214 -493 -283
-104 -35 -283 -76 -326 -76 -37 0 -98 -38 -120 -73 -14 -23 -21 -51 -21 -85 0
-44 5 -57 32 -88 61 -69 124 -78 321 -44 306 52 612 203 831 410 70 67 86 95
86 155 0 78 -51 143 -128 165 -42 11 -38 11 -74 0z"/>
<path d="M1345 2972 c-52 -25 -101 -81 -115 -134 -10 -35 -8 -59 9 -142 12
-56 37 -200 56 -321 55 -339 83 -442 164 -600 72 -142 131 -195 216 -195 147
0 250 198 163 312 -84 110 -122 241 -148 513 -14 151 -66 409 -95 472 -43 96
-156 139 -250 95z"/>
<path d="M2180 2400 c-162 -29 -280 -125 -280 -226 0 -51 17 -83 59 -111 46
-31 104 -30 176 3 32 15 77 29 100 32 40 4 46 1 89 -42 53 -52 76 -60 147 -54
104 10 160 118 111 214 -43 85 -157 162 -272 184 -59 11 -66 11 -130 0z"/>
<path d="M4015 2103 c-16 -2 -154 -28 -305 -58 -308 -61 -449 -85 -688 -120
-185 -27 -223 -42 -267 -104 -26 -37 -30 -51 -30 -109 0 -56 5 -74 28 -108 15
-22 46 -51 70 -65 36 -21 53 -24 123 -22 149 4 369 44 754 137 239 57 298 68
392 71 97 2 159 32 203 94 26 37 30 51 30 110 0 59 -4 72 -29 105 -50 67 -139
88 -281 69z"/>
<path d="M2223 1789 c-44 -9 -80 -34 -103 -72 -41 -67 -18 -227 50 -344 80
-140 295 -313 387 -313 76 0 143 71 143 150 -1 63 -32 112 -103 163 -107 77
-158 150 -182 263 -7 36 -21 76 -29 89 -33 50 -103 77 -163 64z"/>
<path d="M4725 1664 c-16 -8 -59 -43 -95 -78 -115 -111 -171 -137 -485 -227
-351 -100 -602 -193 -679 -253 -73 -55 -100 -188 -53 -257 58 -87 151 -103
267 -48 180 85 307 127 595 194 250 58 337 86 424 139 109 68 231 195 266 280
38 90 6 200 -70 243 -48 27 -126 30 -170 7z"/>
<path d="M2066 1026 c-85 -32 -132 -112 -124 -215 5 -76 30 -108 145 -195 233
-175 433 -233 773 -223 187 5 278 22 387 71 102 47 148 135 123 233 -15 64
-42 97 -96 123 -54 27 -101 23 -184 -13 -86 -37 -147 -49 -255 -48 -180 1
-319 52 -497 183 -51 37 -104 73 -118 79 -40 18 -112 20 -154 5z"/>
</g>
</svg>
