<?xml version="1.0" standalone="no"?>
<!DOCTYPE svg PUBLIC "-//W3C//DTD SVG 20010904//EN"
 "http://www.w3.org/TR/2001/REC-SVG-20010904/DTD/svg10.dtd">
<svg version="1.0" xmlns="http://www.w3.org/2000/svg"
 width="600.000000pt" height="600.000000pt" viewBox="0 0 600.000000 600.000000"
 preserveAspectRatio="xMidYMid meet">
<metadata>
Created by potrace 1.15, written by Peter Selinger 2001-2017
</metadata>
<g transform="translate(0.000000,600.000000) scale(0.100000,-0.100000)"
fill="#16364b" stroke="none">
<path d="M2165 5708 c-52 -30 -290 -222 -374 -303 -134 -129 -267 -280 -296
-339 -89 -178 53 -336 279 -311 166 18 651 157 729 209 123 82 62 286 -86 286
-19 0 -126 -30 -237 -66 -111 -36 -204 -64 -206 -61 -7 7 175 177 283 266 113
92 142 137 129 205 -8 41 -46 90 -87 111 -33 18 -106 19 -134 3z"/>
<path d="M3120 5672 c-65 -10 -128 -101 -114 -165 17 -81 36 -97 169 -142 110
-36 189 -81 247 -137 61 -60 88 -119 89 -196 2 -135 -74 -224 -279 -325 -142
-70 -167 -94 -167 -162 0 -74 72 -145 147 -145 48 0 181 50 271 102 144 83
270 234 318 379 45 138 28 319 -40 429 -83 135 -249 253 -448 321 -99 34 -157
46 -193 41z"/>
<path d="M1055 5330 c-130 -28 -273 -150 -341 -291 -96 -198 -48 -447 121
-628 104 -111 193 -129 276 -54 84 76 76 157 -26 259 -65 65 -102 127 -112
187 -11 73 48 152 168 220 62 36 86 64 100 118 11 43 10 50 -12 95 -37 74
-102 109 -174 94z"/>
<path d="M4723 4900 c-47 -28 -62 -57 -74 -147 -10 -71 -9 -92 10 -185 36
-182 96 -285 196 -333 64 -32 159 -43 222 -26 160 43 244 222 183 385 -41 108
-179 220 -364 294 -91 37 -128 40 -173 12z"/>
<path d="M2735 4848 c-73 -41 -173 -132 -215 -198 -71 -111 -91 -261 -46 -355
44 -94 141 -165 273 -199 162 -42 253 4 253 128 0 50 -4 61 -32 92 -26 28 -48
39 -106 54 -77 19 -112 41 -112 70 0 33 58 106 115 145 69 47 97 89 97 147 2
82 -46 137 -125 145 -33 3 -54 -3 -102 -29z"/>
<path d="M1890 4373 c-58 -9 -119 -28 -180 -57 -87 -41 -213 -163 -231 -223
-34 -119 85 -235 195 -189 20 8 57 38 82 65 82 89 152 109 253 70 123 -46 229
24 219 146 -6 68 -37 108 -113 146 -51 25 -158 52 -190 48 -5 -1 -21 -3 -35
-6z"/>
<path d="M2620 3825 c-224 -50 -280 -91 -280 -202 0 -107 86 -166 198 -136
126 34 169 42 211 43 l44 0 -6 -36 c-16 -95 -192 -388 -323 -537 -167 -189
-182 -208 -188 -242 -21 -110 76 -201 191 -180 31 5 58 26 144 113 163 165
331 405 429 615 122 261 88 461 -92 542 -54 25 -78 29 -163 32 -61 1 -125 -3
-165 -12z"/>
<path d="M4117 3769 c-112 -38 -170 -91 -201 -182 -20 -59 -20 -106 -1 -181
19 -73 55 -135 105 -180 68 -61 95 -71 200 -71 86 0 101 3 163 32 111 53 201
164 247 307 33 103 -6 218 -90 261 -76 39 -327 47 -423 14z m159 -304 c-22
-17 -56 -20 -56 -6 0 12 19 19 50 20 24 0 24 0 6 -14z"/>
<path d="M1165 3680 c-133 -27 -314 -114 -350 -169 -103 -157 11 -341 186
-302 24 6 45 8 47 7 1 -2 -16 -46 -39 -97 -103 -235 -289 -780 -289 -849 0
-60 43 -125 103 -157 44 -23 158 -29 195 -10 51 25 288 247 417 389 157 174
307 329 313 324 13 -14 -104 -542 -200 -901 -60 -223 -61 -229 -54 -266 7 -39
46 -86 83 -100 36 -14 100 -11 133 6 51 26 75 75 138 275 97 311 144 499 192
770 11 63 24 134 30 158 15 64 13 300 -4 355 -29 98 -93 147 -189 147 -124 0
-183 -43 -469 -337 -54 -55 -98 -96 -98 -91 0 4 18 45 39 91 21 45 62 132 91
192 86 181 95 210 95 305 0 97 -15 136 -72 194 -65 65 -177 90 -298 66z"/>
<path d="M3563 3342 c-146 -52 -241 -179 -273 -365 -11 -58 -10 -70 8 -110 37
-84 88 -101 242 -81 174 23 269 69 332 159 51 74 57 192 14 272 -59 113 -203
168 -323 125z"/>
<path d="M4820 2741 c-127 -41 -213 -108 -250 -194 -19 -43 -22 -63 -17 -119
l6 -67 -36 25 c-105 71 -232 46 -297 -59 -36 -59 -43 -119 -26 -238 7 -49 11
-92 8 -94 -3 -3 -40 4 -84 16 -113 30 -283 37 -359 14 -115 -33 -195 -113
-236 -234 -17 -51 -22 -87 -21 -165 1 -121 43 -424 67 -484 21 -52 99 -124
153 -140 138 -42 271 38 297 178 3 20 -3 97 -14 173 -27 182 -27 190 2 182 12
-4 58 -25 102 -47 94 -46 144 -54 243 -39 156 24 235 98 277 258 21 79 21 339
0 452 -8 47 -13 86 -11 88 2 2 16 -7 30 -21 122 -112 303 -70 383 88 58 115
67 216 28 316 -29 74 -48 98 -92 116 -43 18 -86 17 -153 -5z"/>
<path d="M2872 2440 c-140 -37 -467 -181 -529 -234 -122 -103 -44 -317 124
-342 51 -7 67 -2 323 114 178 80 196 86 192 57 -5 -32 -96 -253 -162 -393 -67
-143 -74 -186 -41 -251 56 -108 173 -142 271 -77 46 30 88 111 203 386 137
329 155 404 123 511 -58 193 -270 290 -504 229z"/>
<path d="M2100 1915 c-189 -61 -210 -295 -35 -386 l49 -25 26 -100 c15 -54 31
-114 38 -133 11 -31 10 -36 -19 -65 -123 -124 -110 -351 30 -536 59 -79 157
-175 218 -216 61 -40 207 -110 303 -144 46 -16 95 -25 167 -28 88 -4 114 -1
193 22 142 41 255 98 287 147 31 47 41 124 23 169 -18 43 -82 95 -135 110 -60
17 -110 9 -192 -31 -102 -48 -158 -50 -263 -6 -90 37 -105 51 -66 61 66 16
126 105 126 186 0 72 -29 120 -110 185 -123 98 -145 139 -220 402 -27 95 -61
196 -75 223 -34 66 -89 126 -139 152 -52 26 -147 32 -206 13z"/>
</g>
</svg>
