<?xml version="1.0" standalone="no"?>
<!DOCTYPE svg PUBLIC "-//W3C//DTD SVG 20010904//EN"
 "http://www.w3.org/TR/2001/REC-SVG-20010904/DTD/svg10.dtd">
<svg version="1.0" xmlns="http://www.w3.org/2000/svg"
 width="600.000000pt" height="600.000000pt" viewBox="0 0 600.000000 600.000000"
 preserveAspectRatio="xMidYMid meet">
<metadata>
Created by potrace 1.15, written by Peter Selinger 2001-2017
</metadata>
<g transform="translate(0.000000,600.000000) scale(0.100000,-0.100000)"
fill="#16364b" stroke="none">
<path d="M2525 5508 c-64 -23 -121 -104 -166 -237 -49 -141 -2 -269 118 -327
53 -26 67 -28 173 -28 67 0 150 7 199 17 46 9 92 17 103 17 14 0 -18 -41 -114
-147 -197 -218 -258 -304 -358 -503 -45 -89 -52 -108 -47 -146 7 -63 46 -135
86 -158 32 -18 41 -19 203 -6 171 13 408 9 588 -10 107 -11 157 0 200 45 42
43 53 119 25 171 -33 61 -72 71 -321 83 -122 6 -260 11 -308 11 -47 0 -86 3
-86 8 0 23 204 272 351 426 52 56 114 125 136 153 102 131 71 279 -74 349 -77
38 -178 43 -343 15 -171 -28 -220 -34 -220 -28 0 2 14 35 31 71 24 52 30 75
25 104 -15 93 -114 152 -201 120z"/>
<path d="M1640 5106 c-99 -34 -152 -60 -232 -111 -142 -92 -355 -336 -372
-429 -8 -41 7 -102 32 -132 44 -52 59 -56 259 -58 150 -3 198 -7 236 -21 56
-20 59 -26 76 -148 19 -129 65 -186 159 -195 61 -5 102 14 132 64 21 33 22 43
16 139 -7 112 -25 194 -55 254 -47 91 -172 178 -293 203 -32 7 -57 16 -55 22
7 20 171 105 223 116 29 6 65 21 80 32 78 62 69 221 -16 271 -39 23 -112 20
-190 -7z"/>
<path d="M4145 4756 c-126 -41 -316 -151 -346 -200 -40 -66 -15 -167 50 -201
52 -27 97 -19 181 30 95 56 190 95 229 95 29 0 30 -1 24 -37 -11 -70 -62 -212
-134 -370 -39 -87 -74 -171 -78 -188 -11 -44 2 -87 43 -149 43 -65 77 -93 120
-101 17 -3 147 1 289 10 141 8 269 12 283 9 26 -7 26 -9 21 -63 -7 -72 -40
-171 -117 -350 -75 -175 -79 -196 -51 -254 51 -105 204 -101 254 6 19 40 104
246 152 367 103 261 75 440 -83 545 -67 44 -138 55 -354 55 l-198 0 26 58 c96
213 129 339 122 471 -3 67 -10 97 -30 136 -32 62 -78 108 -133 135 -59 28
-177 27 -270 -4z"/>
<path d="M2030 3969 c-102 -39 -284 -90 -410 -115 -160 -32 -205 -64 -217
-152 -12 -90 61 -172 154 -172 65 0 242 45 457 117 135 45 178 64 208 91 84
75 66 186 -36 233 -53 24 -88 23 -156 -2z"/>
<path d="M3706 3685 c-81 -28 -193 -92 -311 -175 -69 -50 -86 -67 -100 -104
-39 -102 27 -196 138 -196 38 0 56 9 143 71 119 86 194 126 194 105 0 -7 -36
-113 -80 -234 -44 -121 -80 -225 -80 -231 0 -6 -12 -17 -27 -25 -125 -65 -138
-229 -23 -289 55 -28 108 -18 265 52 259 116 392 189 440 243 75 83 80 176 13
245 -55 57 -144 69 -222 29 -39 -20 -46 -21 -41 -7 23 59 55 189 60 248 13
127 -37 232 -130 274 -58 27 -154 24 -239 -6z"/>
<path d="M2387 3425 c-127 -21 -294 -62 -327 -82 -16 -9 -38 -33 -49 -53 -38
-68 -22 -141 42 -197 63 -55 101 -55 302 2 50 14 123 28 163 31 70 7 72 6 72
-15 0 -32 -45 -162 -81 -233 -54 -107 -41 -179 42 -236 27 -19 43 -23 82 -19
27 2 61 13 75 23 52 38 152 274 178 419 29 162 -24 283 -152 346 -41 20 -67
24 -154 26 -58 1 -145 -4 -193 -12z"/>
<path d="M1130 3131 c-123 -40 -170 -86 -178 -176 -8 -103 56 -184 161 -204
26 -5 51 -11 54 -14 3 -4 -2 -100 -12 -214 -31 -361 -20 -628 30 -723 43 -82
161 -123 248 -86 42 17 83 66 98 114 8 27 21 43 47 57 22 12 52 44 76 80 82
126 236 333 295 395 l60 65 1 -135 c0 -171 -12 -269 -55 -448 -19 -79 -35
-162 -35 -185 0 -51 25 -95 75 -133 30 -23 48 -28 91 -28 60 0 97 21 126 70
23 41 88 366 100 509 13 145 -1 423 -26 502 -22 68 -71 132 -126 163 -139 77
-323 -20 -532 -282 -39 -49 -72 -87 -73 -86 -2 2 1 48 7 103 5 55 7 159 4 230
-7 186 -34 272 -111 354 -81 86 -200 113 -325 72z"/>
<path d="M4802 2803 c-85 -42 -126 -110 -127 -212 -1 -52 -5 -75 -16 -81 -8
-4 -57 -20 -109 -35 -246 -70 -350 -147 -430 -317 -36 -76 -60 -180 -60 -259
0 -113 59 -279 132 -373 25 -30 28 -40 17 -47 -8 -5 -17 -9 -20 -9 -3 0 -21
-16 -40 -35 -19 -19 -43 -35 -53 -35 -11 0 -76 19 -145 42 -123 42 -129 42
-261 42 -154 0 -210 -14 -334 -86 -91 -53 -247 -209 -313 -313 -55 -85 -60
-91 -138 -158 -105 -91 -133 -97 -207 -42 -91 66 -191 221 -243 376 -13 38
-33 82 -45 98 -24 35 -95 71 -138 71 -119 0 -211 -129 -181 -253 62 -264 223
-504 423 -632 194 -124 430 -108 596 42 29 27 71 57 94 68 41 20 51 33 146
186 57 93 180 218 243 249 66 31 131 24 272 -29 141 -53 225 -68 301 -52 83
16 156 53 214 107 68 64 92 106 96 167 l2 51 46 11 c63 16 122 60 154 114 22
38 27 58 27 111 -1 79 -17 113 -94 196 -56 59 -81 112 -81 168 0 32 16 40 183
93 210 66 306 130 364 240 42 80 58 152 56 261 -2 148 -40 224 -135 273 -47
24 -149 25 -196 2z"/>
<path d="M3155 2444 c-180 -33 -466 -113 -528 -147 -124 -69 -123 -263 1 -326
69 -34 99 -34 238 5 274 75 484 114 484 88 0 -5 -7 -31 -15 -59 -26 -83 -5
-156 59 -213 90 -79 234 -44 290 70 97 202 81 415 -39 514 -80 65 -124 78
-275 81 -86 1 -164 -3 -215 -13z"/>
</g>
</svg>
