<?xml version="1.0" standalone="no"?>
<!DOCTYPE svg PUBLIC "-//W3C//DTD SVG 20010904//EN"
 "http://www.w3.org/TR/2001/REC-SVG-20010904/DTD/svg10.dtd">
<svg version="1.0" xmlns="http://www.w3.org/2000/svg"
 width="600.000000pt" height="600.000000pt" viewBox="0 0 600.000000 600.000000"
 preserveAspectRatio="xMidYMid meet">
<metadata>
Created by potrace 1.15, written by Peter Selinger 2001-2017
</metadata>
<g transform="translate(0.000000,600.000000) scale(0.100000,-0.100000)"
fill="#16364b" stroke="none">
<path d="M3115 5673 c-73 -19 -117 -99 -95 -169 18 -56 37 -74 205 -189 237
-164 326 -249 341 -322 12 -65 -56 -145 -196 -230 -85 -52 -241 -136 -243
-131 -1 1 -11 21 -22 42 -26 52 -62 77 -119 83 -42 5 -58 0 -163 -52 -144 -72
-228 -149 -262 -239 -66 -176 35 -325 249 -367 77 -15 138 5 170 55 45 74 14
158 -72 199 l-51 25 40 25 c39 25 108 57 122 57 4 0 13 -16 19 -35 16 -43 62
-82 108 -91 47 -9 95 11 240 97 265 157 381 273 435 436 17 52 21 81 17 147
-7 119 -37 177 -157 297 -89 89 -331 279 -425 334 -42 25 -106 37 -141 28z"/>
<path d="M1945 5521 c-30 -14 -63 -48 -84 -89 -11 -20 -56 -77 -101 -127 -136
-150 -189 -220 -231 -300 -34 -66 -39 -85 -39 -141 0 -177 139 -259 395 -233
113 11 347 69 415 102 83 41 121 140 83 214 -24 47 -76 83 -117 83 -17 0 -92
-15 -166 -34 -167 -41 -210 -49 -210 -39 0 4 39 51 87 103 201 222 232 285
183 380 -29 56 -72 83 -139 87 -31 2 -65 -1 -76 -6z"/>
<path d="M1115 5348 c-98 -35 -266 -176 -329 -276 -118 -187 -106 -424 33
-634 93 -142 159 -175 252 -128 54 28 79 72 79 138 0 59 -9 81 -53 131 -46 54
-77 128 -77 189 0 101 49 174 175 256 65 44 87 65 104 99 27 56 27 102 -1 157
-35 69 -106 95 -183 68z"/>
<path d="M4635 4782 c-22 -11 -48 -33 -57 -50 -21 -35 -23 -99 -6 -137 9 -20
8 -31 -3 -51 -31 -60 -6 -139 72 -228 144 -163 362 -193 508 -70 66 55 95 161
70 251 -28 104 -178 208 -383 268 -128 36 -154 39 -201 17z"/>
<path d="M1815 4326 c-109 -28 -219 -97 -298 -187 -117 -133 -65 -279 98 -279
56 0 76 10 136 66 26 23 70 54 99 69 57 29 47 28 205 9 83 -10 155 58 155 148
0 59 -19 98 -62 132 -67 50 -222 70 -333 42z"/>
<path d="M2540 3794 c-171 -37 -238 -77 -261 -154 -16 -52 -4 -103 32 -145 43
-48 93 -61 167 -40 102 28 216 46 251 40 32 -6 33 -8 28 -42 -8 -48 -110 -255
-188 -383 -72 -118 -127 -194 -206 -287 -85 -100 -101 -158 -63 -221 38 -62
123 -89 195 -62 34 13 122 97 200 190 169 204 342 528 375 703 34 182 -66 349
-240 401 -66 20 -200 19 -290 0z"/>
<path d="M4084 3749 c-69 -16 -145 -69 -179 -123 -26 -43 -30 -59 -30 -120 0
-87 27 -149 95 -216 72 -73 128 -95 235 -95 82 0 97 3 157 33 146 72 243 255
191 359 -11 21 -28 56 -39 78 -33 69 -78 86 -246 90 -79 3 -161 0 -184 -6z"/>
<path d="M1140 3635 c-52 -10 -108 -31 -190 -73 -145 -74 -175 -110 -174 -205
0 -91 51 -169 131 -203 38 -16 126 -18 154 -4 10 6 19 8 19 5 0 -3 -25 -61
-56 -128 -31 -67 -78 -170 -105 -229 -79 -177 -179 -507 -179 -593 0 -60 45
-126 106 -156 58 -28 169 -38 214 -19 17 7 145 138 307 314 353 382 404 436
415 436 21 0 -30 -296 -86 -501 -19 -68 -57 -194 -85 -279 -52 -160 -81 -285
-81 -342 1 -70 65 -159 126 -174 73 -18 166 45 179 121 11 65 62 268 115 458
71 256 138 540 157 668 19 132 9 253 -28 338 -23 56 -82 115 -135 137 -48 20
-131 17 -183 -7 -43 -19 -203 -172 -379 -362 -40 -42 -72 -73 -72 -68 0 6 29
74 63 153 108 242 122 293 122 434 0 117 -1 122 -30 170 -62 100 -173 137
-325 109z"/>
<path d="M3578 3327 c-63 -24 -124 -65 -153 -103 -94 -123 -143 -320 -98 -395
36 -63 129 -87 196 -52 18 9 71 24 118 34 164 33 263 105 295 216 46 159 -70
299 -256 310 -39 2 -79 -2 -102 -10z"/>
<path d="M4790 2863 c-64 -27 -117 -80 -151 -148 -29 -60 -31 -71 -26 -130 20
-216 237 -376 374 -276 52 38 74 93 75 187 0 86 -6 111 -37 144 -22 23 -23 28
-12 68 33 124 -92 212 -223 155z"/>
<path d="M2905 2495 c-88 -20 -362 -110 -460 -151 -127 -54 -165 -108 -152
-220 10 -96 92 -164 196 -164 41 0 75 10 145 41 113 51 337 132 345 124 11
-11 -30 -139 -74 -232 -24 -51 -67 -132 -95 -178 -56 -92 -66 -130 -56 -200
10 -62 72 -128 136 -145 60 -16 134 0 183 41 56 46 154 216 222 384 142 353
113 578 -88 682 -44 23 -67 27 -147 29 -55 2 -120 -3 -155 -11z"/>
<path d="M4420 2371 c-80 -26 -140 -73 -172 -135 -21 -40 -21 -99 -2 -220 6
-35 5 -38 -12 -32 -11 5 -62 19 -114 33 -126 33 -262 37 -339 8 -68 -25 -163
-110 -196 -175 -49 -96 -58 -152 -52 -310 10 -261 26 -400 51 -450 33 -67 91
-103 172 -108 110 -7 193 37 239 129 30 58 32 119 10 294 -8 66 -15 121 -15
123 0 12 76 -9 215 -58 56 -20 67 -21 163 -11 57 6 123 19 146 30 87 38 159
123 197 232 28 80 30 239 5 379 -29 166 -54 213 -128 251 -45 23 -129 33 -168
20z"/>
<path d="M2083 1859 c-67 -33 -113 -102 -113 -169 0 -39 24 -92 60 -133 36
-40 44 -61 75 -181 56 -216 147 -464 194 -528 57 -77 204 -220 271 -263 77
-49 259 -134 350 -164 142 -47 255 -36 393 36 110 58 157 121 157 209 -1 44
-34 108 -71 137 -73 55 -154 55 -246 1 -68 -40 -119 -38 -216 9 -72 33 -77 38
-77 67 0 33 -21 82 -49 115 -10 11 -37 54 -61 95 -45 78 -153 193 -205 221
-24 12 -33 26 -42 65 -7 27 -26 104 -43 172 -44 181 -84 251 -173 302 -65 37
-140 41 -204 9z"/>
</g>
</svg>
