<?xml version="1.0" standalone="no"?>
<!DOCTYPE svg PUBLIC "-//W3C//DTD SVG 20010904//EN"
 "http://www.w3.org/TR/2001/REC-SVG-20010904/DTD/svg10.dtd">
<svg version="1.0" xmlns="http://www.w3.org/2000/svg"
 width="600.000000pt" height="600.000000pt" viewBox="0 0 600.000000 600.000000"
 preserveAspectRatio="xMidYMid meet">
<metadata>
Created by potrace 1.15, written by Peter Selinger 2001-2017
</metadata>
<g transform="translate(0.000000,600.000000) scale(0.100000,-0.100000)"
fill="#16364b" stroke="none">
<path d="M2352 5470 c-25 -16 -43 -42 -72 -103 -44 -96 -60 -156 -60 -228 0
-107 43 -180 134 -226 70 -36 182 -36 365 1 74 14 136 25 138 22 3 -2 -33 -51
-79 -108 -108 -134 -301 -424 -373 -561 -53 -99 -57 -113 -58 -177 -1 -81 16
-113 78 -144 37 -19 40 -19 174 3 204 32 307 41 563 50 262 8 279 12 324 81
50 76 13 176 -75 200 -47 13 -337 13 -520 -1 -79 -5 -146 -7 -149 -5 -14 15
181 282 336 461 62 71 124 152 137 179 64 128 3 262 -143 316 -91 34 -286 21
-504 -35 -34 -9 -35 3 -8 60 55 114 -11 235 -130 235 -28 0 -58 -8 -78 -20z"/>
<path d="M1693 5035 c-55 -15 -188 -79 -257 -123 -142 -91 -314 -242 -341
-298 -33 -70 -2 -164 65 -199 16 -8 91 -26 167 -40 294 -54 332 -73 413 -206
86 -142 300 -90 300 74 0 95 -92 224 -220 306 -34 22 -101 54 -151 72 -49 17
-89 33 -89 35 0 12 153 77 211 91 75 17 119 46 144 94 34 64 8 149 -57 189
-39 24 -108 25 -185 5z"/>
<path d="M4048 4815 c-106 -27 -283 -132 -328 -195 -69 -97 1 -230 120 -230
39 0 58 7 101 37 70 48 169 92 224 100 l45 6 0 -49 c0 -63 -37 -197 -96 -349
-95 -243 -90 -226 -71 -276 30 -75 80 -135 132 -154 45 -18 49 -18 143 4 242
56 326 71 407 71 l85 0 0 -48 c0 -83 -38 -212 -130 -442 -35 -86 -41 -113 -37
-153 10 -109 142 -164 234 -99 51 36 145 261 191 457 36 153 37 323 3 409 -66
165 -230 214 -534 156 -65 -12 -120 -20 -123 -18 -2 3 2 21 10 40 8 19 30 88
48 154 28 104 32 134 33 244 0 114 -2 129 -25 174 -32 63 -98 120 -169 147
-72 27 -188 33 -263 14z"/>
<path d="M2000 3929 c-115 -45 -330 -104 -416 -115 -30 -3 -69 -16 -87 -28
-125 -84 -57 -276 98 -276 83 0 207 27 370 81 240 80 294 116 311 206 9 49
-22 121 -65 150 -48 32 -89 29 -211 -18z"/>
<path d="M3690 3687 c-81 -29 -78 -27 -294 -155 -161 -95 -180 -110 -197 -146
-24 -53 -24 -88 1 -137 26 -51 72 -79 129 -79 45 0 75 15 311 154 68 40 96 52
98 42 5 -24 -84 -230 -184 -426 -103 -202 -111 -236 -74 -298 54 -89 152 -101
340 -40 206 66 475 258 533 381 49 102 -14 207 -124 207 -71 0 -103 -16 -158
-80 -46 -53 -139 -125 -148 -116 -3 2 25 76 61 163 35 88 72 187 80 220 39
150 3 253 -106 307 -70 35 -174 36 -268 3z"/>
<path d="M2244 3356 c-156 -33 -209 -52 -239 -87 -31 -38 -39 -67 -33 -124 7
-59 39 -100 94 -121 46 -17 49 -17 188 9 168 32 256 41 274 29 14 -9 3 -47
-64 -225 -20 -52 -10 -97 33 -146 64 -75 158 -78 220 -7 32 36 93 190 119 301
35 151 -25 287 -156 355 -87 46 -261 52 -436 16z"/>
<path d="M1146 3105 c-89 -25 -136 -75 -144 -154 -9 -100 59 -194 162 -222
l39 -10 -7 -77 c-24 -294 -14 -554 29 -767 32 -156 87 -220 190 -220 102 1
176 78 183 189 l4 64 35 5 c70 12 96 40 212 225 61 97 126 195 145 217 53 62
61 45 60 -133 -1 -173 -14 -259 -60 -395 -19 -56 -34 -120 -34 -142 0 -58 33
-105 93 -129 42 -18 53 -19 95 -7 51 13 98 51 114 91 54 137 87 322 95 525 7
188 -5 283 -46 370 -38 83 -81 128 -153 165 -75 37 -142 40 -225 9 -76 -29
-207 -158 -293 -289 -34 -52 -64 -97 -67 -100 -3 -3 -2 74 3 170 17 347 -1
445 -99 548 -74 76 -203 102 -331 67z"/>
<path d="M4835 2939 c-46 -13 -110 -73 -131 -121 -11 -28 -18 -70 -18 -121
l-1 -78 -125 -52 c-250 -105 -360 -217 -406 -414 -19 -80 -14 -224 10 -318 22
-84 88 -211 142 -272 l45 -52 -38 -20 c-21 -10 -52 -35 -70 -55 -38 -44 -47
-44 -201 -9 -137 31 -346 38 -442 15 -165 -41 -289 -138 -421 -328 -40 -58
-84 -111 -99 -119 -14 -7 -46 -35 -70 -62 -25 -27 -59 -59 -76 -71 -88 -61
-195 -25 -329 111 -68 69 -89 100 -135 192 -71 143 -84 162 -130 185 -127 65
-290 -41 -290 -187 0 -82 132 -299 273 -448 310 -330 573 -370 859 -131 42 36
90 72 106 80 33 17 74 65 138 160 71 106 166 200 235 231 75 33 126 31 289
-12 84 -22 127 -28 215 -28 105 0 113 2 179 34 84 41 197 149 216 205 12 38
10 124 -5 159 -5 13 -2 17 14 17 58 0 151 67 178 129 23 53 21 137 -4 191 -11
25 -48 73 -81 107 -49 50 -62 70 -67 105 -12 79 0 93 143 159 200 94 212 101
277 164 71 70 108 139 131 245 18 86 12 221 -12 279 -44 106 -180 165 -299
130z"/>
<path d="M3285 2374 c-131 -20 -558 -125 -605 -149 -29 -16 -73 -60 -89 -93
-17 -33 -15 -125 3 -160 29 -57 105 -102 171 -102 11 0 121 23 245 51 238 53
407 82 422 73 5 -3 7 -12 4 -20 -11 -28 15 -111 46 -149 82 -98 248 -100 322
-2 33 44 51 142 43 244 -7 90 -51 188 -105 233 -69 57 -130 73 -287 76 -77 1
-153 0 -170 -2z"/>
</g>
</svg>
