<?xml version="1.0" standalone="no"?>
<!DOCTYPE svg PUBLIC "-//W3C//DTD SVG 20010904//EN"
 "http://www.w3.org/TR/2001/REC-SVG-20010904/DTD/svg10.dtd">
<svg version="1.0" xmlns="http://www.w3.org/2000/svg"
 width="600.000000pt" height="600.000000pt" viewBox="0 0 600.000000 600.000000"
 preserveAspectRatio="xMidYMid meet">
<metadata>
Created by potrace 1.15, written by Peter Selinger 2001-2017
</metadata>
<g transform="translate(0.000000,600.000000) scale(0.100000,-0.100000)"
fill="#16364b" stroke="none">
<path d="M2070 5809 c-19 -12 -50 -40 -69 -62 -18 -23 -100 -112 -181 -197
-240 -252 -319 -358 -341 -456 -20 -90 16 -176 91 -214 108 -55 279 -3 611
187 57 33 146 82 198 109 118 62 146 94 146 173 0 70 -29 115 -92 143 -59 26
-82 20 -232 -63 -69 -38 -127 -66 -130 -63 -3 2 16 26 41 52 63 65 145 167
163 202 18 35 19 106 2 140 -33 66 -137 91 -207 49z"/>
<path d="M3064 5693 c-12 -2 -39 -19 -60 -37 -37 -32 -39 -37 -39 -92 0 -89
27 -118 173 -189 255 -124 347 -214 381 -373 26 -122 6 -185 -73 -239 -26 -18
-78 -42 -116 -53 -51 -15 -76 -29 -99 -56 -79 -89 4 -234 134 -234 89 0 270
87 354 170 87 85 131 192 131 317 0 80 -39 241 -76 315 -57 112 -213 258 -385
359 -139 81 -267 125 -325 112z"/>
<path d="M951 5379 c-172 -44 -291 -163 -336 -334 -31 -122 -12 -273 49 -390
38 -73 125 -162 187 -193 152 -74 301 51 229 192 -11 22 -44 61 -75 89 -66 58
-97 113 -99 176 -2 89 46 145 150 177 68 20 93 40 115 90 14 32 18 54 13 80
-8 45 -64 109 -102 118 -15 4 -34 9 -42 11 -8 2 -48 -5 -89 -16z"/>
<path d="M2760 4990 c-52 -10 -92 -34 -134 -81 -93 -102 -116 -264 -56 -392
54 -115 206 -197 365 -197 105 0 170 61 162 152 -8 91 -76 148 -177 148 -63 0
-90 13 -90 45 0 22 3 23 34 18 109 -18 194 65 171 167 -19 86 -167 162 -275
140z"/>
<path d="M4785 4914 c-46 -24 -93 -74 -106 -113 -17 -52 -5 -230 22 -316 46
-149 123 -258 215 -305 69 -35 169 -35 237 0 145 74 204 264 130 421 -60 127
-161 225 -308 295 -78 38 -140 44 -190 18z"/>
<path d="M1924 4579 c-148 -25 -284 -135 -284 -231 0 -41 42 -109 80 -129 66
-36 128 -24 221 43 13 9 36 20 51 23 23 6 31 1 58 -36 43 -60 75 -79 136 -79
123 0 194 123 136 237 -43 83 -153 154 -269 173 -64 11 -58 11 -129 -1z"/>
<path d="M2956 3939 c-59 -14 -94 -39 -131 -95 -66 -99 -97 -244 -98 -464 -2
-228 48 -334 165 -347 64 -7 119 23 147 80 25 51 26 77 6 154 -19 74 -19 167
1 273 16 84 16 85 57 106 101 49 118 174 35 251 -42 39 -118 57 -182 42z"/>
<path d="M1195 3885 c-122 -33 -261 -95 -303 -135 -108 -105 -76 -264 64 -310
21 -7 56 -10 80 -6 24 3 44 3 44 -1 0 -4 -40 -68 -89 -142 -174 -267 -248
-411 -317 -619 -62 -187 -59 -258 17 -328 60 -55 145 -69 210 -36 26 13 227
179 269 222 46 47 536 470 544 470 13 0 4 -97 -19 -226 -43 -233 -142 -497
-297 -794 -67 -129 -81 -163 -81 -203 -1 -32 6 -56 19 -75 65 -87 171 -96 241
-20 45 48 213 387 296 598 57 142 89 261 123 450 14 80 30 170 36 200 5 30 8
107 6 171 -4 107 -6 119 -35 170 -63 112 -194 140 -334 72 -69 -34 -161 -100
-272 -195 -37 -32 -70 -58 -73 -58 -6 0 -5 3 55 95 80 125 151 257 172 319 68
198 -56 397 -245 395 -34 0 -83 -6 -111 -14z"/>
<path d="M4183 3776 c-137 -34 -228 -111 -263 -224 -47 -151 -4 -289 115 -368
215 -143 471 -11 617 316 21 47 38 101 38 120 0 46 -40 104 -88 129 -76 39
-308 54 -419 27z m82 -332 c-35 -28 -58 -31 -53 -6 3 16 67 45 78 35 3 -3 -8
-16 -25 -29z"/>
<path d="M3515 3381 c-114 -30 -199 -123 -250 -276 -44 -130 -26 -203 61 -252
77 -44 255 -20 334 46 20 16 49 53 65 82 27 49 30 63 30 144 0 79 -4 97 -28
148 -45 90 -125 131 -212 108z"/>
<path d="M4895 2923 c-38 -20 -140 -122 -193 -193 -110 -148 -140 -317 -75
-417 55 -85 154 -119 260 -88 151 43 253 159 288 326 29 138 15 206 -62 292
-80 91 -150 117 -218 80z"/>
<path d="M4125 2511 c-101 -25 -172 -109 -181 -215 -4 -37 3 -81 25 -161 16
-60 29 -110 28 -112 -2 -1 -34 10 -72 24 -56 21 -89 27 -160 27 -105 1 -147
-16 -215 -86 -106 -110 -118 -331 -35 -658 40 -162 47 -181 82 -226 54 -71
156 -107 239 -85 91 24 176 119 190 209 6 42 -4 103 -43 252 -7 27 8 25 43 -6
96 -86 249 -84 376 3 91 62 136 198 118 351 -10 84 -129 521 -156 573 -21 42
-80 87 -136 104 -56 16 -59 16 -103 6z"/>
<path d="M2849 2180 c-127 -32 -296 -113 -476 -228 -21 -13 -23 -12 -32 11
-17 44 -80 105 -127 123 -89 34 -182 4 -271 -87 -139 -142 -173 -239 -120
-339 30 -57 64 -81 134 -95 l58 -11 3 -42 c3 -35 0 -42 -15 -42 -31 0 -119
-57 -158 -102 -84 -97 -110 -208 -102 -422 5 -147 19 -211 62 -297 114 -224
424 -399 740 -416 194 -11 321 32 484 164 97 78 131 130 131 203 0 95 -89 180
-188 180 -56 0 -85 -13 -157 -70 -93 -74 -176 -110 -254 -110 -177 0 -351 108
-426 265 -32 68 -46 195 -26 233 15 29 56 28 80 0 11 -13 43 -51 71 -86 29
-34 72 -74 96 -88 128 -75 284 18 284 168 0 69 -13 99 -70 153 -56 55 -93 116
-125 207 -30 84 -28 108 6 108 13 0 79 33 148 74 69 40 153 87 186 103 75 38
206 85 213 78 9 -8 -25 -127 -65 -229 -19 -50 -71 -163 -114 -251 -82 -167
-93 -208 -68 -272 45 -120 216 -152 305 -56 29 31 146 259 217 423 108 250
147 429 118 536 -25 92 -102 168 -208 206 -84 30 -234 34 -334 8z"/>
</g>
</svg>
