<?xml version="1.0" standalone="no"?>
<!DOCTYPE svg PUBLIC "-//W3C//DTD SVG 20010904//EN"
 "http://www.w3.org/TR/2001/REC-SVG-20010904/DTD/svg10.dtd">
<svg version="1.0" xmlns="http://www.w3.org/2000/svg"
 width="600.000000pt" height="600.000000pt" viewBox="0 0 600.000000 600.000000"
 preserveAspectRatio="xMidYMid meet">
<metadata>
Created by potrace 1.15, written by Peter Selinger 2001-2017
</metadata>
<g transform="translate(0.000000,600.000000) scale(0.100000,-0.100000)"
fill="#16364b" stroke="none">
<path d="M3541 5251 c-12 -16 -21 -36 -21 -45 0 -34 64 -141 114 -192 66 -65
121 -86 161 -60 38 25 47 57 31 109 -13 42 -52 107 -92 153 -33 38 -87 64
-131 64 -35 0 -45 -5 -62 -29z m142 -118 c48 -68 53 -77 34 -67 -17 10 -87 95
-87 107 0 19 21 3 53 -40z"/>
<path d="M3025 5077 c-72 -41 -135 -163 -135 -265 0 -35 6 -49 29 -73 50 -49
107 -32 191 57 62 66 90 123 90 189 0 101 -83 144 -175 92z m95 -89 c-1 -39
-36 -101 -83 -147 -42 -40 -67 -47 -67 -17 0 38 35 119 64 151 40 42 86 49 86
13z"/>
<path d="M4763 4740 c-42 -25 -47 -56 -39 -244 18 -398 29 -436 120 -436 118
0 147 221 70 541 -37 154 -72 187 -151 139z"/>
<path d="M2638 4200 c-27 -27 -30 -36 -25 -73 7 -56 46 -88 156 -128 246 -89
381 -75 381 40 0 48 -37 80 -131 113 -157 56 -243 78 -297 78 -46 0 -58 -4
-84 -30z"/>
<path d="M1512 4116 c-118 -39 -177 -153 -142 -276 16 -55 75 -133 140 -183
32 -26 67 -61 76 -79 97 -187 198 -829 233 -1483 15 -274 50 -417 138 -567
103 -176 302 -306 495 -324 93 -8 89 -3 61 -91 -21 -67 -24 -92 -21 -183 4
-129 26 -182 129 -316 38 -50 69 -97 69 -106 0 -12 -18 -16 -89 -20 -63 -4
-99 -11 -123 -25 -60 -35 -63 -104 -5 -147 24 -18 43 -21 125 -21 85 0 102 3
141 25 72 41 104 89 109 164 5 79 -12 119 -106 243 -63 82 -71 98 -83 162 -14
82 -4 159 33 256 l21 57 41 -6 c121 -17 676 -48 784 -44 110 4 122 3 116 -11
-36 -84 -43 -153 -23 -224 15 -54 71 -112 151 -156 l68 -38 -62 -11 c-99 -18
-148 -84 -114 -150 37 -71 168 -72 278 -3 62 40 92 96 86 163 -6 61 -36 94
-133 150 -105 61 -115 72 -115 132 0 44 6 61 44 116 l43 66 134 18 c236 31
532 117 664 191 86 48 184 132 240 206 88 117 125 228 125 374 -1 221 -70 410
-204 553 -123 132 -252 189 -405 179 -85 -5 -129 -18 -279 -81 -135 -58 -354
-88 -533 -74 -274 21 -524 135 -780 355 -164 142 -234 227 -396 488 -58 93
-121 190 -140 215 -118 155 -431 424 -567 486 -67 31 -164 39 -224 20z m163
-190 c28 -13 62 -35 76 -49 14 -13 45 -37 70 -52 108 -67 272 -260 494 -580
148 -214 199 -276 327 -401 193 -186 380 -308 618 -399 155 -60 271 -80 470
-79 150 0 191 4 290 26 63 14 151 40 195 58 167 67 186 72 257 67 134 -9 233
-86 308 -242 51 -106 70 -184 70 -293 0 -230 -119 -385 -361 -468 -205 -70
-376 -104 -694 -139 -251 -27 -499 -32 -765 -14 -80 5 -235 12 -345 15 -278 7
-373 34 -481 136 -131 124 -181 284 -204 658 -20 331 -60 718 -91 895 -23 134
-99 439 -128 515 -33 88 -82 161 -137 205 -87 69 -108 111 -75 144 27 27 45
26 106 -3z"/>
<path d="M2408 2525 c-63 -35 -32 -115 45 -115 27 0 57 36 57 68 0 46 -56 72
-102 47z"/>
<path d="M2890 2169 c-29 -12 -40 -26 -40 -56 0 -26 47 -73 72 -73 27 0 58 40
58 76 0 47 -42 72 -90 53z"/>
<path d="M5217 3986 c-128 -48 -202 -157 -200 -296 3 -160 115 -305 267 -345
147 -37 339 48 406 181 17 35 26 70 28 122 4 63 1 79 -22 127 -32 65 -87 115
-190 174 -71 41 -82 44 -164 47 -59 3 -99 0 -125 -10z m176 -295 c15 -15 -10
-41 -39 -41 -22 0 -44 25 -44 51 0 14 67 6 83 -10z"/>
<path d="M4170 3728 c-119 -46 -202 -173 -202 -308 0 -77 18 -125 70 -182 74
-82 201 -111 316 -72 64 22 147 100 177 166 44 100 22 263 -44 329 -82 82
-208 109 -317 67z m130 -273 c0 -18 -28 -45 -46 -45 -20 0 -17 27 6 50 21 21
40 19 40 -5z"/>
<path d="M470 1990 c-6 -12 -9 -28 -5 -38 6 -19 209 -142 268 -163 45 -16 70
-5 75 33 4 35 -43 72 -172 137 -113 56 -149 62 -166 31z"/>
<path d="M5312 1096 c-55 -47 -81 -195 -45 -256 37 -64 129 -67 173 -6 40 55
54 181 25 235 -26 52 -106 66 -153 27z"/>
</g>
</svg>
