<?xml version="1.0" standalone="no"?>
<!DOCTYPE svg PUBLIC "-//W3C//DTD SVG 20010904//EN"
 "http://www.w3.org/TR/2001/REC-SVG-20010904/DTD/svg10.dtd">
<svg version="1.0" xmlns="http://www.w3.org/2000/svg"
 width="600.000000pt" height="600.000000pt" viewBox="0 0 600.000000 600.000000"
 preserveAspectRatio="xMidYMid meet">
<metadata>
Created by potrace 1.15, written by Peter Selinger 2001-2017
</metadata>
<g transform="translate(0.000000,600.000000) scale(0.100000,-0.100000)"
fill="#16364b" stroke="none">
<path d="M2095 5811 c-17 -10 -76 -69 -130 -132 -55 -63 -156 -175 -224 -249
-185 -202 -240 -292 -241 -388 0 -124 95 -204 227 -188 104 12 237 67 453 186
69 38 172 93 230 122 76 39 111 62 127 87 46 68 20 159 -58 199 -62 33 -99 24
-257 -58 -73 -39 -137 -70 -143 -70 -5 0 40 55 102 123 124 136 154 188 146
250 -15 107 -143 173 -232 118z"/>
<path d="M3074 5699 c-67 -19 -114 -105 -101 -185 10 -59 40 -90 120 -119 316
-117 444 -234 455 -416 3 -57 0 -83 -12 -107 -24 -47 -104 -105 -193 -142 -43
-17 -88 -38 -101 -46 -39 -25 -62 -74 -62 -131 0 -47 4 -56 38 -92 55 -58 88
-61 197 -17 243 98 380 232 416 406 14 65 -1 209 -31 296 -79 228 -257 397
-540 512 -111 45 -144 53 -186 41z"/>
<path d="M963 5336 c-135 -50 -280 -174 -329 -280 -74 -161 -23 -367 127 -516
129 -128 230 -151 310 -72 49 50 59 105 29 167 -12 25 -36 53 -54 65 -52 32
-114 104 -125 147 -23 85 33 160 152 204 34 12 76 33 94 46 60 44 68 142 16
203 -54 65 -116 75 -220 36z"/>
<path d="M2725 4963 c-56 -16 -125 -65 -162 -115 -84 -110 -103 -247 -48 -346
73 -135 249 -232 416 -232 92 0 149 53 149 140 0 88 -64 150 -155 150 -61 0
-119 27 -123 57 -5 35 16 65 39 58 58 -19 148 35 169 101 27 79 -23 162 -113
189 -62 19 -107 18 -172 -2z"/>
<path d="M4775 4926 c-97 -43 -119 -96 -105 -246 24 -249 104 -401 248 -472
70 -34 188 -33 257 4 101 53 150 136 149 254 0 62 -5 82 -37 147 -57 115 -161
200 -350 286 -85 38 -124 45 -162 27z"/>
<path d="M1849 4532 c-95 -32 -200 -118 -215 -178 -12 -49 2 -114 32 -146 68
-72 145 -73 225 -2 63 56 92 57 140 8 45 -47 79 -64 129 -64 120 0 191 109
141 214 -28 58 -98 121 -169 154 -76 35 -201 41 -283 14z"/>
<path d="M2855 3916 c-41 -18 -83 -69 -89 -109 -3 -18 -8 -77 -11 -132 -11
-183 -36 -344 -77 -494 -32 -118 -4 -192 87 -227 39 -14 52 -15 87 -5 86 26
114 83 164 330 27 133 49 459 34 510 -30 107 -117 163 -195 127z"/>
<path d="M1193 3859 c-29 -5 -102 -25 -163 -44 -81 -27 -119 -44 -145 -69
-136 -129 -42 -352 141 -333 30 3 54 4 54 2 0 -2 -28 -46 -62 -97 -87 -131
-135 -231 -234 -489 -132 -343 -148 -391 -140 -430 14 -78 72 -133 154 -145
64 -10 126 12 197 70 133 108 486 416 613 534 l132 123 0 -66 c0 -78 -30 -232
-70 -353 -33 -101 -38 -114 -135 -327 -41 -88 -87 -194 -103 -235 -17 -41 -44
-104 -61 -140 -70 -148 -9 -264 130 -245 83 12 121 48 183 178 30 61 75 162
99 222 25 61 68 163 96 228 78 181 128 335 162 501 28 136 31 164 26 281 -3
103 -9 142 -27 189 -28 73 -84 131 -142 147 -118 31 -230 -25 -453 -229 -54
-50 -101 -90 -102 -88 -2 2 40 80 92 174 53 94 105 197 117 229 49 140 31 252
-55 337 -79 78 -162 99 -304 75z"/>
<path d="M4194 3775 c-119 -26 -213 -95 -260 -192 -73 -148 -1 -344 154 -420
49 -24 69 -28 142 -28 76 0 93 4 151 32 123 61 204 165 274 351 44 118 34 182
-37 235 -47 35 -302 49 -424 22z m86 -304 c0 -12 -46 -41 -65 -41 -23 0 -13
23 16 37 28 15 49 17 49 4z"/>
<path d="M3455 3381 c-87 -39 -155 -145 -195 -301 -25 -96 -21 -138 16 -188
42 -54 74 -65 185 -60 87 3 104 7 165 38 118 61 171 155 162 289 -8 104 -65
190 -150 225 -50 21 -134 20 -183 -3z"/>
<path d="M4922 2877 c-37 -14 -238 -208 -284 -275 -96 -140 -87 -292 23 -372
170 -123 416 11 493 269 16 55 21 200 8 233 -14 33 -108 131 -139 145 -39 16
-57 16 -101 0z"/>
<path d="M4157 2496 c-95 -26 -166 -114 -167 -207 0 -25 9 -82 19 -125 11 -44
23 -97 27 -118 6 -35 5 -38 -12 -33 -10 4 -57 20 -104 36 -206 73 -360 10
-434 -179 -40 -99 -32 -262 25 -515 48 -213 55 -232 108 -285 79 -78 180 -90
275 -30 59 38 102 98 117 164 10 47 9 62 -20 170 -18 65 -30 121 -27 123 3 3
33 -13 66 -36 95 -63 150 -73 253 -46 121 31 203 93 255 190 25 47 27 58 27
180 0 121 -3 139 -38 255 -85 287 -114 356 -167 404 -63 57 -125 73 -203 52z"/>
<path d="M2967 2249 c-109 -14 -207 -52 -424 -161 l-202 -102 -28 26 c-40 38
-111 68 -163 67 -91 0 -171 -46 -244 -139 -75 -96 -92 -169 -57 -245 33 -72
95 -115 166 -115 37 0 40 -4 50 -87 6 -45 4 -53 -9 -53 -9 0 -39 -11 -67 -25
-138 -70 -201 -185 -215 -395 -18 -255 108 -505 331 -659 156 -108 301 -155
480 -155 164 -1 253 29 415 136 132 88 170 138 170 225 0 73 -32 122 -102 156
-77 39 -112 32 -225 -42 -145 -95 -217 -113 -342 -87 -143 31 -253 115 -315
242 -49 99 -61 197 -28 228 21 18 22 18 54 -3 18 -11 61 -51 95 -89 76 -85
116 -106 189 -100 117 10 202 136 173 254 -9 36 -26 59 -76 108 -71 68 -111
139 -136 246 -26 110 -26 110 13 124 20 7 85 42 145 78 132 79 241 134 314
159 30 11 56 19 59 19 2 0 2 -19 -2 -42 -10 -64 -89 -256 -170 -414 -40 -78
-76 -156 -79 -174 -27 -133 137 -260 266 -206 63 26 108 99 243 394 133 290
175 492 128 622 -58 162 -203 236 -407 209z"/>
</g>
</svg>
