<?xml version="1.0" standalone="no"?>
<!DOCTYPE svg PUBLIC "-//W3C//DTD SVG 20010904//EN"
 "http://www.w3.org/TR/2001/REC-SVG-20010904/DTD/svg10.dtd">
<svg version="1.0" xmlns="http://www.w3.org/2000/svg"
 width="600.000000pt" height="600.000000pt" viewBox="0 0 600.000000 600.000000"
 preserveAspectRatio="xMidYMid meet">
<metadata>
Created by potrace 1.15, written by Peter Selinger 2001-2017
</metadata>
<g transform="translate(0.000000,600.000000) scale(0.100000,-0.100000)"
fill="#16364b" stroke="none">
<path d="M1600 5773 c-25 -9 -61 -46 -71 -72 -17 -44 -70 -384 -76 -492 -4
-70 -2 -123 7 -157 50 -211 276 -258 426 -89 120 136 327 505 327 584 0 82
-53 133 -135 133 -63 0 -101 -28 -133 -97 -65 -138 -144 -293 -170 -329 l-27
-39 5 91 c3 50 15 149 27 222 22 128 22 131 4 169 -33 66 -116 101 -184 76z"/>
<path d="M3231 5548 c-58 -31 -85 -110 -57 -169 11 -24 45 -53 113 -99 173
-116 303 -219 303 -240 0 -4 -16 -11 -35 -14 -105 -20 -148 -151 -74 -225 57
-58 181 -98 250 -82 61 15 84 28 121 69 88 97 70 241 -49 391 -58 71 -87 98
-198 181 -243 180 -318 218 -374 188z"/>
<path d="M860 5483 c-140 -51 -238 -150 -275 -278 -23 -79 -16 -227 14 -307
26 -69 79 -139 133 -179 100 -72 228 -8 228 116 0 47 -12 68 -71 132 -41 43
-49 58 -49 90 0 57 38 124 81 146 31 15 43 16 86 6 60 -14 91 -8 132 26 86 73
51 198 -68 240 -42 14 -178 20 -211 8z"/>
<path d="M2966 5165 c-76 -31 -138 -92 -179 -175 -58 -117 -40 -257 42 -318
69 -51 182 -54 284 -9 128 58 156 100 157 238 0 49 -7 108 -16 138 -26 89
-109 152 -200 151 -16 0 -56 -11 -88 -25z"/>
<path d="M2259 4945 c-33 -18 -59 -57 -59 -89 0 -31 -22 -46 -120 -81 -155
-54 -195 -92 -195 -185 0 -72 24 -109 83 -130 39 -13 45 -13 94 9 29 12 100
40 158 62 182 69 250 141 250 266 0 75 -18 116 -63 143 -38 23 -110 26 -148 5z"/>
<path d="M4766 4827 c-56 -32 -78 -67 -87 -139 -23 -184 52 -422 165 -526 123
-112 289 -109 389 8 49 57 60 97 55 189 -4 63 -11 89 -42 151 -79 156 -191
268 -329 328 -44 19 -107 14 -151 -11z"/>
<path d="M2792 4130 c-98 -21 -161 -81 -182 -175 -29 -130 36 -248 162 -291
82 -29 304 -27 417 4 222 61 299 133 269 252 -16 60 -60 92 -185 134 -195 65
-387 95 -481 76z"/>
<path d="M1098 4079 c-120 -10 -185 -78 -176 -184 9 -106 78 -155 219 -155
101 0 159 -9 159 -24 0 -26 -194 -196 -411 -358 -263 -197 -275 -210 -267
-303 5 -62 29 -98 84 -125 74 -37 135 -25 227 41 49 36 60 36 77 4 11 -21 38
-42 87 -70 1 0 -4 -19 -12 -41 -26 -76 4 -138 90 -188 55 -33 120 -104 135
-150 7 -22 10 -68 8 -109 -7 -119 -74 -233 -177 -299 -60 -38 -93 -36 -143 6
-54 47 -104 55 -163 26 -66 -32 -91 -82 -87 -173 3 -43 93 -129 165 -155 71
-27 179 -29 258 -6 138 41 266 160 348 327 101 203 107 368 22 542 -46 93
-122 173 -214 225 -32 18 -56 34 -54 36 2 2 31 22 66 44 88 57 227 125 294
145 56 16 59 16 100 -4 85 -41 171 -17 210 59 14 28 16 49 11 110 -4 41 -15
91 -25 112 -37 73 -120 105 -194 73 -22 -9 -71 -25 -110 -35 -38 -10 -78 -22
-88 -25 -12 -5 1 21 36 72 66 97 91 166 91 254 0 115 -71 227 -179 282 -78 39
-242 59 -387 46z"/>
<path d="M4203 3775 c-123 -34 -222 -114 -258 -208 -26 -69 -18 -176 21 -246
35 -66 101 -125 161 -145 56 -19 154 -20 206 -2 127 46 228 184 278 380 29
115 12 173 -64 213 -45 23 -271 29 -344 8z m54 -300 c-32 -28 -47 -32 -47 -10
0 17 27 34 55 34 18 0 17 -2 -8 -24z"/>
<path d="M3395 3376 c-27 -13 -62 -36 -76 -52 -70 -78 -139 -212 -139 -272 0
-49 33 -101 80 -124 45 -23 141 -23 205 -1 155 52 238 307 137 417 -56 59
-126 70 -207 32z"/>
<path d="M5043 3320 c-114 -51 -198 -131 -251 -239 -33 -68 -37 -83 -37 -155
0 -91 19 -137 77 -193 93 -90 265 -89 393 1 136 97 193 279 130 414 -29 63
-107 157 -146 178 -39 20 -116 17 -166 -6z"/>
<path d="M2216 2684 c-27 -8 -65 -26 -85 -38 -45 -29 -126 -115 -171 -181 -52
-77 -114 -148 -164 -186 -24 -19 -55 -52 -67 -74 -12 -22 -39 -58 -59 -80
-123 -137 -244 -386 -285 -594 -25 -122 -17 -298 18 -406 69 -211 210 -354
483 -495 163 -84 211 -95 404 -95 179 0 250 14 365 72 62 32 179 119 221 164
120 131 255 365 324 564 50 142 91 353 97 490 5 101 2 134 -16 204 -34 137
-101 226 -204 274 -72 34 -113 40 -264 38 l-131 -1 -7 32 c-14 67 -73 177
-120 223 -88 89 -226 125 -339 89z m113 -466 c25 -83 73 -159 134 -209 32 -27
70 -52 84 -55 25 -7 177 0 278 12 80 9 90 -4 89 -118 -2 -175 -61 -434 -132
-575 -68 -134 -192 -265 -297 -314 -185 -87 -406 -50 -590 98 -45 37 -69 66
-95 117 -34 67 -35 73 -34 175 1 86 6 122 29 191 51 159 106 250 225 371 82
83 176 195 233 277 28 39 54 72 57 72 4 0 12 -19 19 -42z"/>
<path d="M4066 2376 c-51 -19 -92 -60 -112 -113 -15 -38 -15 -53 -5 -114 7
-39 11 -72 9 -74 -2 -3 -29 1 -60 7 -76 16 -137 -2 -193 -56 -76 -73 -77 -123
-11 -436 48 -228 68 -289 108 -327 93 -88 199 -92 280 -11 33 33 48 41 82 43
97 6 204 84 253 184 26 52 28 64 27 176 0 105 -5 141 -42 290 -22 94 -44 195
-47 225 -10 85 -48 155 -100 186 -54 31 -135 40 -189 20z"/>
</g>
</svg>
