<?xml version="1.0" standalone="no"?>
<!DOCTYPE svg PUBLIC "-//W3C//DTD SVG 20010904//EN"
 "http://www.w3.org/TR/2001/REC-SVG-20010904/DTD/svg10.dtd">
<svg version="1.0" xmlns="http://www.w3.org/2000/svg"
 width="600.000000pt" height="600.000000pt" viewBox="0 0 600.000000 600.000000"
 preserveAspectRatio="xMidYMid meet">
<metadata>
Created by potrace 1.15, written by Peter Selinger 2001-2017
</metadata>
<g transform="translate(0.000000,600.000000) scale(0.100000,-0.100000)"
fill="#16364b" stroke="none">
<path d="M1320 5665 c-128 -64 -234 -124 -247 -140 -23 -26 -30 -75 -17 -110
11 -27 60 -45 124 -45 96 0 481 50 518 68 55 25 69 91 28 139 -19 22 -33 28
-64 28 l-40 0 19 24 c46 59 7 152 -63 150 -21 -1 -117 -43 -258 -114z"/>
<path d="M2349 5414 c-23 -25 -24 -32 -30 -222 -12 -370 -76 -521 -267 -635
-94 -56 -114 -89 -89 -150 32 -76 88 -85 186 -30 206 114 338 361 359 673 4
63 5 165 2 227 -5 100 -8 114 -29 137 -34 36 -98 36 -132 0z"/>
<path d="M3544 5340 c-28 -11 -62 -55 -73 -96 -19 -70 29 -186 106 -254 64
-56 96 -71 162 -77 51 -5 60 -3 88 21 38 32 57 84 48 129 -22 102 -129 234
-212 260 -72 23 -96 26 -119 17z"/>
<path d="M2979 5092 c-87 -45 -159 -169 -159 -271 1 -55 33 -117 72 -137 93
-49 253 18 299 124 30 68 36 186 12 232 -42 81 -130 102 -224 52z m64 -202
c-6 -22 -21 -35 -29 -27 -7 7 15 47 25 47 5 0 7 -9 4 -20z"/>
<path d="M4774 4756 c-51 -22 -57 -54 -51 -249 7 -237 36 -337 123 -417 94
-86 229 -59 286 58 49 102 29 245 -51 370 -48 74 -193 219 -238 238 -38 16
-31 16 -69 0z"/>
<path d="M2632 4205 c-84 -43 -123 -126 -102 -214 16 -69 72 -130 151 -166 56
-25 70 -27 154 -23 83 3 101 8 170 42 43 21 99 59 126 85 45 44 49 51 49 95 0
50 -16 91 -46 117 -11 9 -64 31 -119 49 -82 26 -121 33 -215 37 -109 4 -118 3
-168 -22z"/>
<path d="M1115 4141 c-64 -28 -91 -107 -57 -165 l21 -35 -22 -6 c-43 -12 -69
-30 -83 -57 -20 -39 -18 -101 6 -130 27 -35 152 -94 228 -109 220 -42 400 162
290 327 -18 27 -57 65 -87 86 -95 67 -245 112 -296 89z m105 -252 c13 -7 13
-8 0 -8 -8 0 -26 6 -40 15 l-25 15 25 -7 c14 -3 32 -10 40 -15z"/>
<path d="M5247 3819 c-189 -44 -303 -228 -269 -431 15 -86 39 -134 90 -180 53
-48 99 -61 187 -56 252 16 431 279 333 488 -32 68 -104 143 -167 177 -29 14
-116 16 -174 2z m70 -306 c4 -11 -34 -53 -48 -53 -12 0 -17 37 -7 54 11 19 49
18 55 -1z"/>
<path d="M4143 3741 c-137 -47 -211 -161 -201 -309 8 -108 68 -196 166 -244
72 -34 179 -31 264 9 135 63 207 177 215 337 5 83 3 94 -19 125 -12 19 -37 43
-53 52 -83 49 -274 64 -372 30z m119 -283 c-22 -23 -55 -18 -46 6 7 18 57 37
63 23 2 -5 -6 -18 -17 -29z"/>
<path d="M3443 3360 c-18 -10 -43 -37 -57 -58 -42 -67 -126 -241 -126 -261 0
-50 41 -91 91 -91 84 0 210 145 239 276 25 113 -58 189 -147 134z"/>
<path d="M1695 3114 c-234 -37 -435 -100 -538 -170 -167 -114 -247 -261 -247
-454 0 -250 126 -425 388 -538 225 -97 280 -154 382 -402 65 -157 93 -204 168
-283 184 -192 460 -250 827 -172 66 14 181 30 255 36 459 34 642 74 885 196
163 82 260 149 378 263 325 313 447 646 332 906 -66 150 -246 312 -403 365
-52 17 -89 22 -162 22 -101 -1 -148 -13 -310 -82 -105 -45 -257 -68 -461 -70
-146 -1 -178 2 -262 23 -101 26 -221 81 -361 166 -139 83 -244 123 -451 172
-88 20 -343 33 -420 22z m316 -388 c134 -24 264 -76 438 -175 234 -133 323
-169 501 -201 58 -11 124 -25 147 -31 36 -11 67 -8 245 21 276 45 346 63 467
120 113 54 136 58 184 33 56 -28 166 -142 173 -178 8 -46 -21 -144 -75 -250
-74 -146 -247 -313 -406 -393 -183 -91 -437 -140 -806 -156 -86 -4 -147 -14
-235 -37 -104 -28 -136 -32 -254 -33 -123 -1 -139 1 -183 23 -78 38 -124 101
-196 262 -94 209 -150 300 -245 395 -86 85 -184 148 -311 200 -38 15 -82 36
-96 46 -35 23 -59 76 -59 128 0 100 70 157 245 199 178 42 330 51 466 27z"/>
<path d="M421 2124 c-26 -21 -31 -33 -31 -69 0 -24 4 -47 10 -50 5 -3 27 -44
50 -91 73 -158 174 -271 269 -303 87 -29 196 0 227 61 19 36 18 102 -2 144
-36 76 -218 221 -381 303 -76 38 -102 39 -142 5z"/>
<path d="M4950 1483 c-14 -9 -29 -23 -33 -30 -4 -7 -26 -13 -48 -13 -88 0
-134 -53 -133 -155 2 -184 105 -312 223 -276 22 6 51 25 65 42 32 38 70 158
86 270 10 76 10 91 -4 118 -29 56 -107 78 -156 44z"/>
</g>
</svg>
