<?xml version="1.0" standalone="no"?>
<!DOCTYPE svg PUBLIC "-//W3C//DTD SVG 20010904//EN"
 "http://www.w3.org/TR/2001/REC-SVG-20010904/DTD/svg10.dtd">
<svg version="1.0" xmlns="http://www.w3.org/2000/svg"
 width="600.000000pt" height="600.000000pt" viewBox="0 0 600.000000 600.000000"
 preserveAspectRatio="xMidYMid meet">
<metadata>
Created by potrace 1.15, written by Peter Selinger 2001-2017
</metadata>
<g transform="translate(0.000000,600.000000) scale(0.100000,-0.100000)"
fill="#16364b" stroke="none">
<path d="M1940 4881 c-110 -34 -186 -134 -197 -260 -4 -42 1 -81 21 -153 76
-278 102 -794 83 -1593 l-9 -340 -53 -165 c-30 -91 -65 -223 -79 -295 -30
-149 -48 -313 -38 -329 4 -6 7 -22 7 -36 0 -21 4 -25 26 -22 20 2 28 -3 32
-19 8 -30 27 -19 61 35 21 36 27 53 20 64 -7 10 -6 33 2 66 7 28 18 85 25 126
l13 75 19 -85 c63 -287 131 -445 235 -549 104 -103 234 -163 385 -177 l72 -6
0 -172 c1 -185 14 -271 75 -481 16 -55 26 -103 22 -107 -4 -3 -53 -8 -109 -10
-97 -3 -103 -4 -132 -32 -41 -40 -42 -84 -2 -128 l29 -33 99 0 c89 0 104 3
158 30 41 20 69 43 89 71 45 65 44 107 -3 274 -56 199 -71 270 -78 380 -6 98
9 210 28 210 6 0 92 -8 192 -17 121 -12 278 -17 465 -18 l283 0 -5 -25 c-4
-14 -9 -60 -13 -102 -10 -131 24 -288 108 -485 21 -51 39 -96 39 -101 0 -5
-43 -12 -96 -15 -127 -9 -173 -36 -174 -105 0 -70 48 -105 145 -105 169 0 294
83 295 196 0 16 -28 97 -61 180 -101 250 -127 389 -97 517 8 36 18 55 32 61
12 4 85 15 162 24 156 17 312 52 389 86 82 36 195 120 248 184 99 118 157 307
142 455 -17 167 -73 333 -151 450 -63 96 -62 94 -20 73 22 -10 36 -24 36 -35
0 -22 30 -30 101 -26 50 3 54 5 55 28 0 14 6 38 12 53 15 36 12 41 -43 68 -25
12 -45 28 -45 36 0 7 -10 13 -22 13 -13 0 -86 28 -163 61 -169 74 -340 138
-466 174 -51 15 -123 44 -159 65 -36 21 -162 86 -280 145 -223 110 -313 165
-440 269 -109 89 -281 258 -366 358 -148 177 -211 289 -304 543 -67 180 -181
424 -236 501 -50 71 -118 125 -187 148 -50 17 -134 20 -177 7z m145 -170 c71
-33 103 -79 219 -316 19 -38 57 -137 86 -220 64 -184 97 -258 158 -355 159
-255 518 -612 774 -768 37 -23 172 -95 300 -160 509 -260 661 -343 752 -415
53 -42 151 -176 192 -262 41 -84 84 -249 84 -317 0 -120 -54 -255 -138 -341
-96 -99 -209 -139 -492 -173 -448 -53 -702 -63 -990 -38 -113 10 -259 17 -325
15 -395 -7 -564 132 -670 548 -43 171 -48 280 -40 800 12 720 11 965 -3 1201
-17 273 -36 434 -64 535 -12 44 -23 107 -25 141 -4 55 -2 64 23 93 45 54 91
63 159 32z m-345 -2955 c0 -3 -4 -8 -10 -11 -5 -3 -10 -1 -10 4 0 6 5 11 10
11 6 0 10 -2 10 -4z"/>
<path d="M2597 2692 c-10 -10 -17 -26 -17 -36 0 -24 54 -76 79 -76 43 0 68 82
35 114 -21 22 -77 20 -97 -2z"/>
<path d="M3060 2548 c-46 -17 -54 -61 -16 -97 48 -45 119 -3 103 61 -8 32 -51
49 -87 36z"/>
<path d="M5231 3969 c-115 -37 -201 -149 -201 -264 0 -86 43 -202 102 -277 42
-54 136 -98 209 -98 71 0 174 31 225 68 104 76 147 149 152 260 4 62 1 80 -22
126 -35 72 -92 126 -180 169 -65 33 -81 37 -147 36 -45 0 -99 -8 -138 -20z
m147 -295 c29 -8 28 -30 -4 -50 -22 -15 -27 -15 -39 -3 -7 8 -16 24 -20 37 -5
18 -3 22 17 22 13 0 33 -3 46 -6z"/>
<path d="M5309 1107 c-32 -24 -59 -94 -59 -153 0 -89 41 -138 114 -138 77 0
119 60 120 173 1 70 -1 74 -32 102 -26 24 -41 29 -80 29 -26 0 -54 -6 -63 -13z"/>
</g>
</svg>
