<?xml version="1.0" standalone="no"?>
<!DOCTYPE svg PUBLIC "-//W3C//DTD SVG 20010904//EN"
 "http://www.w3.org/TR/2001/REC-SVG-20010904/DTD/svg10.dtd">
<svg version="1.0" xmlns="http://www.w3.org/2000/svg"
 width="600.000000pt" height="600.000000pt" viewBox="0 0 600.000000 600.000000"
 preserveAspectRatio="xMidYMid meet">
<metadata>
Created by potrace 1.15, written by Peter Selinger 2001-2017
</metadata>
<g transform="translate(0.000000,600.000000) scale(0.100000,-0.100000)"
fill="#16364b" stroke="none">
<path d="M2363 5408 c-17 -19 -21 -41 -26 -138 -12 -221 -56 -440 -111 -548
-32 -63 -97 -126 -178 -173 -77 -45 -98 -70 -98 -116 0 -43 33 -73 79 -73 86
1 281 152 349 271 75 132 121 337 129 579 l6 155 -28 33 c-34 40 -90 45 -122
10z"/>
<path d="M3523 5311 c-60 -57 -65 -120 -19 -225 29 -65 114 -159 168 -187 46
-23 116 -25 147 -3 13 9 30 32 38 51 12 30 12 41 -1 86 -15 52 -65 142 -112
204 -33 43 -100 82 -155 89 -36 5 -48 2 -66 -15z"/>
<path d="M2982 5094 c-161 -80 -212 -329 -82 -397 54 -28 126 -19 197 25 48
29 63 45 87 94 25 49 30 72 30 134 1 86 -13 118 -67 150 -44 27 -103 25 -165
-6z m54 -210 c-17 -25 -36 -32 -36 -13 0 7 10 28 23 48 20 33 22 34 25 13 2
-13 -4 -34 -12 -48z"/>
<path d="M4791 4767 c-13 -6 -34 -25 -45 -40 -20 -27 -21 -41 -21 -225 0 -215
9 -269 60 -347 57 -87 153 -117 235 -73 118 64 137 258 44 453 -18 39 -56 100
-84 137 -75 98 -129 126 -189 95z"/>
<path d="M2675 4231 c-92 -23 -142 -92 -132 -181 19 -159 182 -265 353 -230
116 24 245 111 265 179 19 65 -2 123 -57 154 -6 3 -71 21 -145 40 -145 37
-237 49 -284 38z"/>
<path d="M1144 4126 c-40 -18 -64 -52 -64 -92 0 -18 -8 -38 -20 -49 -67 -60 1
-209 122 -269 108 -54 228 -26 275 63 70 133 -22 276 -221 344 -58 20 -53 20
-92 3z"/>
<path d="M5227 3879 c-92 -22 -175 -88 -218 -175 -20 -40 -24 -64 -24 -134 0
-72 4 -93 27 -141 74 -149 222 -218 373 -174 129 37 228 130 268 249 28 84 17
166 -33 236 -22 32 -120 109 -169 134 -33 18 -159 20 -224 5z m138 -310 c7
-10 -34 -49 -51 -49 -12 0 -24 22 -24 45 0 22 62 26 75 4z"/>
<path d="M4211 3760 c-153 -32 -253 -146 -254 -290 -3 -217 219 -352 425 -257
77 35 123 79 160 155 28 57 33 77 36 161 4 109 -10 144 -70 181 -72 44 -212
68 -297 50z m77 -282 c-18 -27 -58 -37 -58 -14 0 17 27 35 54 36 17 0 17 -2 4
-22z"/>
<path d="M3463 3393 c-35 -7 -72 -59 -133 -188 -70 -147 -75 -166 -55 -205 33
-64 98 -52 180 33 74 76 125 169 132 241 5 48 3 56 -23 84 -30 32 -62 43 -101
35z"/>
<path d="M1440 3204 c-248 -32 -348 -61 -453 -131 -126 -83 -195 -207 -204
-364 -6 -96 11 -172 54 -249 87 -153 211 -238 411 -281 213 -46 263 -100 391
-422 65 -163 110 -252 176 -352 131 -196 264 -279 495 -307 73 -9 177 -9 450
0 195 7 437 12 537 12 283 0 628 51 808 121 141 54 387 215 517 338 83 78 136
152 190 268 63 133 78 200 84 358 7 165 -7 250 -59 360 -81 168 -320 349 -519
391 -157 34 -303 -4 -603 -156 -272 -138 -274 -138 -462 -146 -144 -6 -165 -5
-238 15 -114 31 -235 94 -435 226 -208 138 -315 192 -472 239 -204 61 -297 77
-473 81 -88 2 -176 1 -195 -1z m400 -374 c80 -13 207 -54 280 -90 30 -15 120
-77 200 -137 162 -122 233 -167 336 -214 144 -65 267 -101 436 -126 268 -41
498 2 740 138 211 119 265 143 336 147 55 4 71 0 125 -26 68 -34 157 -114 183
-165 60 -114 -1 -364 -115 -477 -70 -69 -257 -206 -341 -250 -106 -55 -228
-87 -393 -105 -139 -14 -761 -30 -1137 -30 -172 1 -189 3 -238 24 -103 46
-159 133 -252 391 -107 297 -196 430 -357 533 -85 55 -168 88 -302 121 -57 14
-111 31 -120 38 -56 42 -66 94 -26 134 35 35 73 49 200 72 61 12 119 23 130
25 40 9 252 7 315 -3z"/>
<path d="M455 2099 c-46 -26 -60 -85 -30 -125 8 -10 35 -59 59 -109 24 -49 61
-110 82 -134 43 -50 122 -91 174 -91 53 1 116 33 135 71 49 94 -37 210 -252
340 -88 53 -135 67 -168 48z"/>
<path d="M5107 1290 c-14 -11 -34 -20 -46 -20 -11 0 -35 -13 -53 -29 -30 -27
-33 -34 -32 -88 2 -144 111 -265 200 -221 41 19 62 64 84 177 26 131 25 137
-9 172 -37 36 -104 41 -144 9z"/>
</g>
</svg>
