<?xml version="1.0" standalone="no"?>
<!DOCTYPE svg PUBLIC "-//W3C//DTD SVG 20010904//EN"
 "http://www.w3.org/TR/2001/REC-SVG-20010904/DTD/svg10.dtd">
<svg version="1.0" xmlns="http://www.w3.org/2000/svg"
 width="600.000000pt" height="600.000000pt" viewBox="0 0 600.000000 600.000000"
 preserveAspectRatio="xMidYMid meet">
<metadata>
Created by potrace 1.15, written by Peter Selinger 2001-2017
</metadata>
<g transform="translate(0.000000,600.000000) scale(0.100000,-0.100000)"
fill="#16364b" stroke="none">
<path d="M2100 5452 c-120 -60 -140 -303 -33 -414 45 -47 117 -71 223 -75 52
-2 105 -6 117 -8 l22 -5 -20 -68 c-68 -236 -97 -380 -85 -427 10 -39 69 -93
111 -101 47 -8 99 11 134 51 32 37 34 42 51 130 7 33 37 132 67 219 66 189 72
251 34 330 -52 106 -151 165 -291 173 -118 7 -115 5 -116 63 -1 62 -23 96 -84
128 -53 27 -84 28 -130 4z"/>
<path d="M3374 5422 c-94 -60 -110 -174 -34 -247 27 -26 41 -30 106 -36 48 -4
81 -11 91 -22 35 -34 27 -156 -19 -310 -34 -113 -13 -187 65 -229 46 -25 117
-23 158 5 73 48 131 238 132 437 1 108 -2 133 -21 181 -62 155 -171 228 -352
236 -82 4 -99 2 -126 -15z"/>
<path d="M1610 4823 c-93 -18 -242 -59 -287 -78 -88 -39 -117 -119 -73 -205
23 -45 60 -73 113 -88 38 -11 59 -7 202 33 90 26 216 36 291 24 176 -28 209
-22 251 40 44 65 24 149 -49 204 -64 49 -150 70 -293 73 -71 1 -141 0 -155 -3z"/>
<path d="M4272 4460 c-46 -28 -72 -76 -72 -134 0 -43 4 -53 38 -86 26 -27 50
-40 77 -45 81 -12 166 -38 189 -56 40 -31 50 -106 35 -258 -11 -122 -11 -131
8 -162 23 -41 73 -76 119 -85 51 -9 123 30 149 81 18 36 20 60 20 225 0 155
-3 194 -19 240 -54 157 -160 251 -323 285 -99 21 -181 19 -221 -5z"/>
<path d="M1540 4448 c-63 -33 -83 -66 -88 -141 -2 -49 1 -69 17 -94 31 -50 61
-63 178 -78 59 -8 195 -30 302 -50 232 -42 285 -44 331 -12 73 48 96 147 52
219 -30 48 -67 63 -187 78 -55 6 -196 32 -313 56 -117 24 -220 44 -230 44 -10
0 -38 -10 -62 -22z"/>
<path d="M3220 4417 c-19 -7 -53 -25 -76 -39 -22 -14 -145 -81 -272 -147 -369
-193 -367 -192 -367 -289 0 -72 27 -113 90 -138 62 -23 85 -15 283 100 89 53
226 130 305 172 165 89 202 114 222 154 56 108 -66 231 -185 187z"/>
<path d="M2195 3834 c-132 -41 -293 -64 -438 -64 -107 0 -140 -4 -173 -19
-112 -51 -114 -211 -4 -275 31 -19 51 -21 190 -21 188 1 261 12 455 73 134 42
154 51 192 88 52 52 65 111 37 169 -37 78 -114 93 -259 49z"/>
<path d="M3690 3817 c-57 -16 -220 -91 -470 -215 -219 -109 -240 -127 -240
-210 0 -96 91 -182 178 -169 20 4 141 58 268 122 l230 116 37 -35 c69 -65 176
-55 220 20 30 54 49 166 37 221 -27 122 -137 185 -260 150z"/>
<path d="M5005 3453 c-79 -17 -128 -52 -162 -115 -19 -37 -22 -115 -8 -240 12
-118 -11 -164 -190 -374 -127 -151 -213 -334 -240 -510 -22 -145 0 -217 86
-286 115 -93 312 -18 348 132 4 19 13 58 20 85 19 80 95 224 162 305 160 194
230 309 270 440 19 60 24 98 23 190 0 200 -37 286 -146 338 -63 30 -125 43
-163 35z"/>
<path d="M2017 3187 c-80 -26 -130 -106 -108 -177 14 -47 44 -86 82 -105 32
-17 174 -40 311 -50 l87 -7 11 -33 c23 -70 120 -128 182 -110 80 24 118 79
118 167 0 116 -57 206 -163 257 -68 33 -89 37 -292 51 -77 6 -151 12 -165 15
-14 2 -42 -1 -63 -8z"/>
<path d="M4315 3134 c-16 -10 -59 -43 -95 -74 -181 -159 -428 -269 -683 -305
-148 -21 -207 -69 -207 -170 0 -87 70 -145 173 -145 166 0 464 86 647 187 201
111 383 265 395 335 10 55 -13 115 -57 151 -47 38 -126 47 -173 21z"/>
<path d="M1325 2975 c-42 -20 -59 -35 -84 -75 -25 -42 -28 -123 -6 -176 20
-48 41 -176 60 -369 30 -290 72 -457 155 -611 53 -100 98 -142 162 -155 124
-23 233 71 233 202 0 44 -7 69 -36 125 -66 124 -101 271 -124 514 -30 309 -92
493 -184 540 -47 24 -131 26 -176 5z"/>
<path d="M2131 2415 c-121 -34 -228 -98 -261 -158 -56 -99 18 -222 133 -222
43 0 63 7 113 38 33 21 77 40 97 44 34 5 40 2 84 -44 55 -58 97 -71 165 -52
55 14 114 73 123 122 16 84 -60 194 -173 249 -56 28 -79 33 -147 35 -48 2
-102 -3 -134 -12z"/>
<path d="M3895 2114 c-11 -2 -90 -10 -175 -19 -171 -18 -263 -32 -480 -75 -80
-16 -198 -36 -263 -45 -141 -19 -154 -24 -206 -71 -65 -58 -83 -149 -45 -225
21 -43 73 -86 118 -99 50 -14 227 6 396 45 58 13 155 35 215 49 217 51 419 72
607 65 59 -2 72 1 115 27 155 96 140 289 -27 338 -48 14 -192 20 -255 10z"/>
<path d="M2240 1878 c-29 -15 -50 -36 -63 -60 -24 -49 -33 -167 -18 -254 30
-172 191 -404 300 -434 89 -24 168 31 178 124 7 60 -11 107 -64 169 -24 28
-59 79 -76 112 -29 56 -31 68 -33 166 -1 124 -16 155 -84 183 -55 22 -88 20
-140 -6z"/>
<path d="M4705 1656 c-16 -7 -61 -44 -98 -80 -97 -96 -160 -123 -462 -196
-268 -66 -361 -98 -524 -180 -235 -117 -276 -158 -276 -274 0 -85 24 -127 89
-157 73 -33 109 -26 266 52 178 88 263 116 520 173 235 52 346 87 457 145 129
67 257 188 283 267 30 90 -9 197 -89 242 -45 25 -119 29 -166 8z"/>
<path d="M2113 1080 c-110 -16 -181 -123 -153 -231 9 -34 27 -58 78 -107 273
-260 563 -379 859 -351 137 12 303 76 401 154 64 51 87 139 57 212 -20 48 -41
71 -87 94 -57 29 -103 24 -198 -22 -116 -57 -210 -75 -309 -59 -143 22 -281
92 -427 216 -38 32 -76 64 -84 71 -24 18 -90 30 -137 23z"/>
</g>
</svg>
