<?xml version="1.0" standalone="no"?>
<!DOCTYPE svg PUBLIC "-//W3C//DTD SVG 20010904//EN"
 "http://www.w3.org/TR/2001/REC-SVG-20010904/DTD/svg10.dtd">
<svg version="1.0" xmlns="http://www.w3.org/2000/svg"
 width="600.000000pt" height="600.000000pt" viewBox="0 0 600.000000 600.000000"
 preserveAspectRatio="xMidYMid meet">
<metadata>
Created by potrace 1.15, written by Peter Selinger 2001-2017
</metadata>
<g transform="translate(0.000000,600.000000) scale(0.100000,-0.100000)"
fill="#16364b" stroke="none">
<path d="M2969 5611 c-54 -17 -78 -44 -123 -134 -55 -113 -69 -162 -69 -252
-1 -55 4 -82 24 -125 60 -130 140 -171 347 -178 72 -2 132 -8 132 -13 0 -5 -4
-9 -8 -9 -15 0 -180 -128 -287 -221 -138 -121 -302 -288 -314 -322 -25 -67 -5
-120 71 -185 60 -51 227 -106 497 -163 106 -22 221 -49 255 -60 89 -28 147
-25 187 8 78 66 77 194 -2 242 -35 21 -157 52 -374 96 -71 14 -154 33 -184 41
l-53 15 23 26 c54 58 266 228 381 304 207 139 268 210 268 314 0 66 -32 121
-91 158 -77 47 -136 58 -361 65 -113 4 -209 10 -213 14 -6 6 11 51 65 174 17
38 21 60 16 88 -7 39 -56 102 -84 110 -42 11 -79 14 -103 7z"/>
<path d="M1536 5346 c-145 -54 -410 -329 -530 -550 -53 -96 -116 -277 -116
-333 0 -98 85 -178 180 -170 25 2 115 22 200 45 163 43 293 68 309 57 14 -8
-2 -48 -99 -259 -59 -126 -85 -194 -88 -230 -4 -39 -12 -59 -37 -87 -79 -88
-36 -210 83 -232 40 -8 100 11 297 93 350 145 397 179 397 285 0 55 -23 98
-65 124 -55 33 -104 28 -207 -24 -50 -25 -90 -43 -90 -41 0 2 22 53 49 113 74
165 85 206 86 308 0 99 -16 145 -72 197 -55 52 -116 71 -230 70 -56 0 -142 -8
-189 -17 -47 -9 -88 -14 -91 -11 -3 3 21 42 53 88 74 106 202 234 279 279 72
42 105 87 105 141 0 115 -115 194 -224 154z"/>
<path d="M4505 4533 c-93 -21 -370 -126 -399 -151 -69 -62 -59 -178 19 -231
53 -36 101 -32 245 21 171 63 170 62 170 44 0 -26 -107 -224 -265 -491 -88
-148 -80 -187 62 -317 48 -44 47 -43 228 -63 195 -21 294 -36 301 -46 5 -9
-36 -92 -185 -367 -87 -160 -101 -206 -82 -265 24 -72 126 -130 188 -106 47
17 63 39 117 154 29 61 92 174 139 252 115 186 139 240 145 325 4 61 2 74 -27
132 -58 119 -151 158 -463 197 -54 7 -102 15 -108 19 -6 4 19 58 66 141 178
312 242 466 231 551 -11 82 -82 161 -174 194 -36 12 -164 17 -208 7z"/>
<path d="M3741 3649 c-47 -24 -75 -62 -92 -124 -24 -87 29 -200 107 -225 36
-12 110 -5 120 11 3 5 12 9 21 9 23 0 11 -84 -21 -140 -24 -43 -28 -45 -93
-57 -134 -25 -289 -126 -349 -229 -27 -46 -34 -108 -16 -154 15 -38 60 -79
103 -92 63 -18 112 2 184 77 72 74 127 98 262 113 137 14 186 59 182 165 -1
35 5 67 19 97 118 256 -47 555 -313 568 -57 2 -78 -1 -114 -19z"/>
<path d="M2475 3554 c-165 -33 -380 -121 -412 -170 -9 -14 -18 -49 -21 -77 -3
-42 1 -58 20 -86 59 -86 134 -99 250 -44 104 50 188 76 253 77 l60 1 3 -47 c5
-82 -34 -199 -131 -388 -96 -188 -106 -225 -74 -287 13 -24 15 -38 7 -58 -13
-35 -13 -116 1 -152 23 -62 95 -113 160 -113 17 0 93 24 168 54 144 57 289
101 298 92 8 -7 -30 -110 -83 -227 -51 -112 -56 -161 -21 -229 33 -65 85 -102
151 -108 118 -10 164 30 252 213 84 173 108 262 109 390 0 87 -3 107 -26 155
-32 69 -82 121 -151 157 -50 26 -60 28 -178 28 -106 -1 -139 -5 -219 -28 -51
-16 -95 -26 -97 -25 -2 2 17 44 41 93 119 243 139 504 50 645 -38 60 -102 108
-173 130 -73 23 -137 24 -237 4z"/>
<path d="M1150 3334 c-129 -25 -306 -134 -357 -221 -53 -91 -12 -221 87 -270
49 -25 114 -30 155 -11 14 6 28 9 31 5 3 -3 -8 -88 -26 -189 -49 -283 -58
-352 -71 -503 -26 -322 27 -422 223 -428 72 -2 87 1 114 20 18 13 77 97 144
205 154 247 312 489 367 561 l45 59 19 -42 c34 -75 22 -236 -41 -555 -22 -112
-43 -245 -47 -297 -7 -112 10 -224 41 -270 58 -88 207 -91 270 -5 19 26 21 43
22 170 0 119 8 190 48 437 62 384 64 474 13 670 -19 74 -41 151 -50 171 -20
48 -70 103 -111 123 -43 20 -135 21 -183 1 -88 -37 -199 -160 -352 -388 -47
-71 -87 -124 -89 -119 -2 6 14 97 34 204 31 159 37 216 38 323 0 119 -2 135
-25 185 -31 66 -79 116 -137 142 -44 20 -119 30 -162 22z"/>
<path d="M4720 2351 c-94 -30 -143 -86 -165 -185 l-6 -29 -107 5 c-397 19
-601 -96 -679 -382 -13 -49 -17 -105 -18 -222 0 -87 -2 -158 -4 -158 -2 0 -36
24 -75 54 -137 105 -244 143 -370 133 -188 -16 -316 -153 -570 -609 -21 -38
-39 -68 -41 -68 -11 0 -39 134 -65 303 -54 359 -78 430 -164 474 -47 24 -134
21 -183 -7 -51 -28 -79 -65 -95 -124 -11 -40 -9 -56 10 -131 13 -47 34 -164
47 -260 41 -285 73 -392 150 -500 55 -77 93 -110 170 -147 50 -23 73 -28 137
-28 82 0 154 19 201 52 45 32 108 124 172 253 115 228 245 401 292 389 10 -3
73 -49 140 -103 68 -54 153 -113 190 -132 61 -31 75 -34 152 -34 70 0 95 5
134 24 67 33 144 105 172 162 14 26 30 51 36 55 6 3 22 30 35 58 28 61 30 98
9 306 -10 100 -12 157 -6 163 19 19 111 19 244 2 165 -21 246 -12 354 40 157
77 248 250 229 438 -9 93 -49 148 -136 186 -51 22 -153 34 -190 22z"/>
</g>
</svg>
