<?xml version="1.0" standalone="no"?>
<!DOCTYPE svg PUBLIC "-//W3C//DTD SVG 20010904//EN"
 "http://www.w3.org/TR/2001/REC-SVG-20010904/DTD/svg10.dtd">
<svg version="1.0" xmlns="http://www.w3.org/2000/svg"
 width="600.000000pt" height="600.000000pt" viewBox="0 0 600.000000 600.000000"
 preserveAspectRatio="xMidYMid meet">
<metadata>
Created by potrace 1.15, written by Peter Selinger 2001-2017
</metadata>
<g transform="translate(0.000000,600.000000) scale(0.100000,-0.100000)"
fill="#16364b" stroke="none">
<path d="M1626 5809 c-31 -9 -63 -34 -77 -62 -16 -28 -69 -331 -81 -460 -14
-140 -2 -233 39 -308 63 -117 195 -146 315 -70 108 69 398 535 398 640 0 76
-61 135 -141 135 -74 0 -94 -21 -174 -180 -76 -151 -143 -264 -156 -264 -11 0
-2 93 27 269 13 80 24 158 24 174 0 80 -95 149 -174 126z"/>
<path d="M3226 5550 c-40 -12 -84 -58 -97 -100 -18 -61 6 -101 88 -146 113
-63 264 -166 318 -218 l50 -48 -40 -12 c-59 -18 -82 -36 -101 -77 -24 -54 -12
-104 36 -150 107 -102 309 -106 383 -8 126 168 -37 429 -428 685 -113 73 -157
89 -209 74z"/>
<path d="M900 5469 c-222 -60 -371 -248 -358 -453 6 -94 44 -174 117 -247 93
-92 181 -111 250 -53 61 51 60 146 -1 201 -84 75 -81 70 -76 127 5 57 28 96
76 129 23 15 39 17 102 13 89 -7 131 9 168 64 20 29 23 44 19 89 -3 47 -9 59
-39 87 -53 48 -168 67 -258 43z"/>
<path d="M2964 5172 c-58 -28 -109 -85 -152 -171 -34 -69 -37 -82 -37 -160 0
-72 4 -92 23 -123 53 -85 168 -100 312 -39 113 48 136 72 150 157 20 124 -26
261 -107 318 -55 38 -130 45 -189 18z"/>
<path d="M2264 4921 c-39 -24 -64 -58 -64 -87 0 -43 -13 -53 -128 -95 -150
-54 -192 -91 -192 -165 0 -61 25 -105 73 -127 49 -24 62 -22 178 23 221 85
279 124 323 212 30 61 35 142 11 189 -34 65 -135 90 -201 50z"/>
<path d="M4806 4830 c-35 -11 -73 -45 -93 -85 -13 -24 -15 -54 -10 -170 11
-258 72 -384 218 -450 53 -23 71 -27 138 -24 104 5 163 40 204 119 26 50 28
63 25 140 -3 73 -8 95 -37 154 -38 78 -124 170 -217 233 -113 77 -174 99 -228
83z"/>
<path d="M2803 4135 c-167 -47 -240 -152 -202 -289 16 -57 100 -137 174 -166
114 -45 350 -23 569 51 88 30 111 58 111 134 0 44 -5 59 -31 92 -35 44 -191
131 -294 164 -86 28 -254 35 -327 14z"/>
<path d="M1023 4058 c-17 -6 -46 -26 -64 -44 -28 -29 -33 -43 -37 -92 -3 -43
1 -68 13 -93 42 -83 79 -101 217 -109 59 -3 110 -9 114 -13 16 -16 -240 -247
-530 -477 -103 -83 -127 -148 -87 -236 22 -48 60 -80 110 -94 51 -13 94 1 152
50 26 22 51 40 56 40 5 0 17 -14 27 -31 10 -16 33 -37 51 -46 33 -16 33 -16
28 -73 -8 -80 12 -116 98 -180 97 -72 140 -133 153 -217 17 -112 -61 -264
-173 -335 -60 -37 -93 -36 -142 6 -60 51 -112 55 -172 14 -38 -27 -57 -68 -57
-123 0 -58 18 -93 71 -139 61 -52 126 -71 240 -71 91 1 101 3 170 37 175 87
315 304 349 541 12 80 -4 177 -43 260 -52 111 -167 234 -272 289 l-39 21 29
23 c45 37 252 138 332 164 71 23 73 23 112 5 63 -28 142 -18 185 24 21 20 38
49 44 75 13 57 1 176 -21 209 -43 67 -134 85 -232 48 -66 -25 -198 -61 -204
-55 -2 2 5 14 16 27 105 116 147 258 112 376 -15 51 -87 135 -138 160 -59 29
-149 50 -266 61 -129 12 -159 11 -202 -2z"/>
<path d="M4275 3784 c-107 -21 -136 -29 -176 -50 -67 -33 -101 -66 -134 -126
-57 -103 -34 -250 55 -352 81 -91 224 -119 341 -64 119 55 229 213 274 394 18
69 17 72 -1 109 -36 74 -92 94 -254 93 -47 0 -94 -2 -105 -4z m0 -304 c-19
-21 -55 -27 -55 -10 0 12 31 29 54 30 18 0 18 -1 1 -20z"/>
<path d="M3455 3393 c-53 -9 -65 -15 -99 -50 -20 -21 -62 -87 -93 -148 -64
-125 -73 -182 -37 -233 36 -48 79 -64 159 -56 83 8 129 29 176 81 52 57 79
121 85 200 5 58 2 75 -18 113 -31 61 -111 103 -173 93z"/>
<path d="M5070 3327 c-124 -52 -219 -136 -270 -240 -27 -55 -31 -75 -32 -144
0 -66 4 -88 26 -130 32 -64 82 -106 153 -128 103 -33 239 -2 324 73 83 72 133
230 110 339 -29 131 -142 254 -234 253 -12 0 -47 -11 -77 -23z"/>
<path d="M2203 2676 c-104 -34 -165 -89 -258 -236 -26 -41 -83 -111 -125 -155
-43 -44 -86 -96 -95 -115 -10 -19 -32 -51 -50 -71 -124 -139 -252 -433 -276
-636 -52 -441 280 -845 750 -911 95 -13 130 -14 220 -4 284 32 448 117 591
307 154 206 225 371 290 681 75 352 43 575 -99 707 -91 83 -151 102 -326 101
l-141 0 -27 71 c-50 133 -124 214 -227 250 -65 22 -176 28 -227 11z m121 -481
c25 -76 74 -150 134 -202 77 -65 113 -73 282 -58 83 8 142 9 153 3 38 -19 11
-279 -48 -474 -49 -161 -111 -274 -205 -377 -82 -90 -182 -140 -314 -157 -76
-9 -187 1 -241 22 -109 43 -228 150 -273 246 -24 51 -27 69 -27 167 0 95 4
122 29 198 35 107 105 226 183 313 32 36 67 80 78 99 11 18 43 57 71 87 28 29
73 86 99 126 27 40 52 69 55 65 4 -4 15 -30 24 -58z"/>
<path d="M4055 2384 c-84 -43 -121 -116 -112 -222 3 -37 7 -74 9 -82 2 -9 -3
-13 -12 -11 -111 29 -142 26 -214 -19 -59 -38 -96 -109 -96 -188 0 -66 53
-338 87 -446 41 -132 80 -183 161 -212 85 -30 170 -11 229 53 29 30 43 37 77
39 69 3 126 26 175 70 82 74 97 164 62 369 -23 131 -89 488 -97 529 -7 33 -66
101 -105 122 -37 19 -126 18 -164 -2z"/>
</g>
</svg>
