<?xml version="1.0" standalone="no"?>
<!DOCTYPE svg PUBLIC "-//W3C//DTD SVG 20010904//EN"
 "http://www.w3.org/TR/2001/REC-SVG-20010904/DTD/svg10.dtd">
<svg version="1.0" xmlns="http://www.w3.org/2000/svg"
 width="600.000000pt" height="600.000000pt" viewBox="0 0 600.000000 600.000000"
 preserveAspectRatio="xMidYMid meet">
<metadata>
Created by potrace 1.15, written by Peter Selinger 2001-2017
</metadata>
<g transform="translate(0.000000,600.000000) scale(0.100000,-0.100000)"
fill="#16364b" stroke="none">
<path d="M1580 5762 c-45 -22 -64 -62 -89 -189 -37 -184 -47 -311 -33 -421 22
-176 89 -269 202 -280 117 -11 204 50 319 223 95 145 224 404 224 453 0 81
-57 136 -140 134 -68 -1 -96 -28 -165 -165 -63 -128 -155 -287 -165 -287 -12
0 8 207 27 290 26 113 26 170 -1 204 -44 56 -114 71 -179 38z"/>
<path d="M3219 5517 c-46 -31 -64 -84 -47 -139 10 -35 29 -53 142 -138 72 -55
156 -122 186 -150 l55 -52 -47 -14 c-66 -20 -98 -61 -98 -126 0 -46 4 -55 38
-87 67 -64 217 -105 316 -87 73 14 135 98 136 183 0 90 -59 216 -147 314 -50
55 -215 187 -327 261 -102 67 -148 75 -207 35z"/>
<path d="M858 5451 c-80 -26 -140 -64 -202 -126 -180 -180 -158 -443 50 -602
71 -54 149 -49 202 11 62 71 51 139 -33 211 -68 57 -78 93 -45 160 12 24 36
55 53 67 28 20 42 23 116 20 70 -2 88 1 117 19 86 53 90 179 6 231 -50 31
-184 36 -264 9z"/>
<path d="M2976 5166 c-135 -50 -243 -287 -191 -421 35 -94 139 -128 271 -90
104 30 149 59 174 110 20 41 22 58 18 144 -6 124 -36 196 -97 237 -50 32 -119
40 -175 20z"/>
<path d="M2270 4943 c-38 -20 -80 -89 -80 -133 0 -32 -16 -42 -153 -92 -121
-43 -162 -73 -176 -125 -20 -71 37 -154 116 -169 69 -13 328 93 397 162 60 60
96 145 96 227 0 62 -2 70 -33 103 -28 31 -41 37 -83 41 -34 3 -59 -1 -84 -14z"/>
<path d="M4745 4814 c-60 -30 -70 -56 -69 -184 2 -354 198 -593 430 -525 197
57 244 315 90 492 -42 48 -186 148 -288 199 -73 37 -117 42 -163 18z"/>
<path d="M2826 4124 c-116 -25 -194 -76 -227 -149 -62 -135 46 -277 251 -330
131 -34 335 -4 490 73 64 32 78 44 98 82 50 97 11 185 -106 244 -175 87 -345
114 -506 80z"/>
<path d="M1004 4051 c-93 -56 -105 -175 -28 -260 39 -43 69 -53 214 -71 52 -6
98 -14 102 -18 14 -14 -85 -99 -313 -269 -125 -92 -247 -182 -271 -199 -59
-42 -93 -109 -84 -167 15 -94 88 -153 177 -145 36 4 65 16 115 51 l67 46 27
-38 c15 -21 42 -43 59 -51 l31 -12 -20 -33 c-45 -74 -14 -163 77 -218 116 -71
165 -149 164 -266 0 -98 -30 -170 -105 -249 -81 -86 -143 -96 -212 -32 -40 37
-48 40 -101 40 -46 0 -66 -5 -97 -26 -39 -27 -66 -75 -66 -119 0 -89 147 -200
297 -224 140 -22 272 26 372 135 117 128 182 299 182 479 0 114 -26 209 -81
295 -40 62 -144 160 -209 197 -28 15 -51 31 -51 35 0 11 143 98 235 143 50 24
115 50 145 57 50 13 59 13 95 -3 52 -24 89 -24 140 1 64 31 87 81 81 171 -6
82 -26 123 -76 156 -41 28 -85 29 -164 4 -68 -22 -186 -49 -186 -44 0 2 18 26
39 53 71 89 96 154 96 246 0 70 -4 88 -30 139 -60 117 -155 168 -372 200 -141
21 -211 19 -249 -4z"/>
<path d="M4198 3774 c-147 -35 -244 -127 -268 -252 -18 -98 20 -210 96 -287
156 -155 418 -84 534 145 38 75 70 195 70 263 0 44 -4 54 -37 87 -32 31 -49
39 -104 49 -87 15 -220 13 -291 -5z m59 -309 c-32 -28 -47 -32 -47 -10 0 17
27 34 55 34 18 0 17 -2 -8 -24z"/>
<path d="M3395 3396 c-84 -37 -215 -241 -215 -335 0 -51 34 -101 90 -129 38
-19 55 -21 105 -16 33 3 75 10 94 16 47 14 108 72 139 132 24 45 27 63 27 148
0 82 -3 101 -21 125 -48 64 -147 91 -219 59z"/>
<path d="M5055 3332 c-130 -72 -214 -151 -262 -250 -24 -49 -28 -69 -28 -142
0 -128 46 -209 149 -262 134 -70 345 31 431 206 66 136 49 271 -50 387 -80 95
-148 112 -240 61z"/>
<path d="M2215 2696 c-103 -34 -189 -107 -250 -213 -46 -79 -124 -181 -169
-218 -22 -20 -52 -55 -66 -79 -14 -24 -54 -85 -88 -137 -108 -157 -205 -370
-238 -521 -24 -108 -22 -301 5 -401 53 -200 206 -378 399 -464 221 -98 483
-131 676 -84 162 39 323 128 428 237 113 119 274 407 337 605 48 152 65 265
65 434 0 131 -3 158 -23 215 -45 129 -116 210 -217 251 -54 22 -74 24 -227 24
l-168 0 -33 76 c-44 102 -68 139 -122 189 -86 79 -219 116 -309 86z m103 -491
c33 -83 74 -137 145 -195 84 -68 110 -74 276 -61 76 6 143 11 149 11 40 0 45
-162 9 -290 -30 -107 -64 -193 -137 -345 -122 -256 -262 -370 -470 -382 -109
-6 -196 14 -304 69 -113 59 -189 135 -212 214 -49 171 52 456 240 673 31 36
56 69 56 74 0 5 24 37 54 70 56 64 131 175 141 209 10 31 28 16 53 -47z"/>
<path d="M4050 2380 c-57 -27 -77 -46 -102 -95 -17 -33 -20 -52 -15 -115 3
-41 9 -84 13 -94 6 -16 4 -18 -12 -12 -91 38 -158 25 -225 -43 -96 -95 -94
-191 7 -526 57 -190 70 -219 111 -255 79 -69 215 -57 269 24 11 18 24 23 62
24 71 1 130 32 190 96 102 112 114 234 52 491 -18 72 -42 191 -55 265 -19 107
-30 142 -52 174 -54 76 -159 105 -243 66z"/>
</g>
</svg>
