<?xml version="1.0" standalone="no"?>
<!DOCTYPE svg PUBLIC "-//W3C//DTD SVG 20010904//EN"
 "http://www.w3.org/TR/2001/REC-SVG-20010904/DTD/svg10.dtd">
<svg version="1.0" xmlns="http://www.w3.org/2000/svg"
 width="600.000000pt" height="600.000000pt" viewBox="0 0 600.000000 600.000000"
 preserveAspectRatio="xMidYMid meet">
<metadata>
Created by potrace 1.15, written by Peter Selinger 2001-2017
</metadata>
<g transform="translate(0.000000,600.000000) scale(0.100000,-0.100000)"
fill="#16364b" stroke="none">
<path d="M2266 5845 c-22 -7 -64 -38 -95 -68 -112 -107 -169 -158 -351 -309
-266 -222 -338 -304 -355 -405 -8 -48 17 -114 56 -150 78 -71 261 -69 509 5
141 42 538 202 571 229 40 34 56 91 40 143 -26 87 -107 141 -179 120 -18 -5
-79 -28 -135 -51 -105 -43 -267 -100 -267 -94 0 1 53 47 118 101 246 206 288
258 279 347 -9 103 -100 165 -191 132z"/>
<path d="M3042 5680 c-61 -38 -94 -121 -74 -189 20 -65 56 -89 186 -121 152
-37 267 -93 328 -158 51 -54 68 -100 68 -177 -2 -139 -92 -243 -296 -340 -50
-24 -101 -56 -113 -70 -44 -57 -36 -137 19 -190 23 -22 42 -29 82 -33 45 -3
66 2 137 33 137 60 220 115 306 200 116 115 165 228 165 380 -1 275 -152 482
-444 608 -173 74 -302 95 -364 57z"/>
<path d="M930 5288 c-105 -53 -222 -164 -262 -248 -90 -191 -53 -399 98 -560
126 -134 218 -174 301 -131 55 27 83 75 83 138 0 64 -26 104 -104 158 -63 43
-112 107 -122 161 -14 76 38 146 156 208 81 43 111 81 118 146 8 90 -48 159
-137 168 -39 3 -58 -2 -131 -40z"/>
<path d="M2697 4955 c-65 -24 -174 -103 -218 -158 -70 -87 -94 -149 -94 -242
0 -90 26 -160 86 -235 73 -91 213 -171 337 -192 85 -14 116 -7 163 41 44 44
57 94 40 152 -16 53 -61 85 -148 103 -84 17 -124 36 -152 72 -47 59 -9 132 99
188 86 46 110 74 110 134 0 59 -31 109 -84 133 -48 22 -87 23 -139 4z"/>
<path d="M4801 4949 c-36 -14 -84 -58 -103 -93 -38 -70 -15 -312 41 -433 40
-85 80 -132 148 -173 53 -33 63 -35 143 -35 98 0 141 16 202 77 62 62 82 111
82 203 0 70 -4 88 -31 140 -45 87 -102 147 -211 219 -151 101 -208 120 -271
95z"/>
<path d="M1833 4440 c-64 -15 -143 -62 -199 -118 -68 -69 -86 -101 -86 -157 0
-80 54 -142 132 -152 59 -8 87 3 144 57 79 75 140 93 186 55 81 -67 181 -55
244 28 29 39 33 123 7 163 -51 82 -174 135 -309 133 -48 -1 -101 -4 -119 -9z"/>
<path d="M2642 3859 c-65 -13 -104 -39 -130 -89 -29 -57 -25 -116 11 -164 40
-52 81 -66 190 -66 109 0 123 -8 113 -65 -18 -96 -146 -279 -324 -466 -130
-137 -146 -170 -118 -244 33 -84 133 -121 212 -77 35 20 219 217 318 341 80
101 133 190 177 297 29 70 33 90 33 179 1 90 -2 106 -28 157 -76 153 -263 235
-454 197z"/>
<path d="M4244 3785 c-134 -20 -243 -81 -289 -159 -76 -129 -44 -302 76 -410
129 -116 323 -94 468 54 60 61 101 130 151 251 36 89 38 144 8 189 -38 55 -65
69 -163 80 -110 12 -148 12 -251 -5z m31 -320 c-30 -25 -55 -29 -57 -10 -1 13
41 35 67 34 17 0 16 -3 -10 -24z"/>
<path d="M1170 3751 c-118 -39 -281 -115 -315 -148 -55 -53 -68 -128 -36 -198
42 -91 149 -138 237 -105 15 6 28 9 31 7 2 -2 -50 -109 -115 -238 -122 -242
-176 -369 -243 -572 -58 -174 -52 -237 25 -305 58 -50 144 -66 212 -37 33 13
262 229 633 593 80 79 147 139 149 134 5 -16 -46 -305 -69 -387 -21 -77 -79
-244 -122 -350 -13 -33 -50 -122 -81 -197 -42 -103 -56 -149 -56 -186 0 -119
131 -201 227 -142 37 22 40 26 116 195 85 189 153 363 186 481 34 117 43 161
72 364 11 80 25 177 30 215 15 104 7 272 -15 315 -43 82 -103 123 -182 123
-93 0 -185 -63 -394 -269 -58 -57 -108 -104 -112 -104 -4 0 26 67 66 149 122
249 155 381 123 492 -36 122 -124 189 -246 188 -37 0 -91 -8 -121 -18z"/>
<path d="M3495 3366 c-104 -48 -188 -173 -222 -327 -20 -95 -13 -139 32 -183
47 -47 107 -60 217 -46 229 28 348 133 348 305 0 200 -199 334 -375 251z"/>
<path d="M4860 2771 c-19 -11 -46 -32 -60 -48 -111 -126 -142 -165 -172 -213
-33 -52 -69 -141 -83 -204 l-6 -29 -21 42 c-44 90 -156 144 -253 122 -104 -23
-185 -128 -185 -241 0 -30 7 -95 16 -144 8 -48 14 -90 12 -92 -2 -1 -46 13
-98 33 -74 28 -114 37 -181 41 -77 4 -91 2 -141 -22 -146 -69 -215 -220 -205
-446 6 -127 48 -349 79 -423 64 -149 256 -194 379 -88 85 72 97 154 49 341
-16 63 -27 116 -25 119 7 6 65 -19 115 -49 68 -42 115 -53 190 -47 146 12 247
73 300 180 55 112 61 231 20 432 -10 49 -17 92 -15 94 2 2 12 -5 22 -14 10
-10 38 -27 62 -38 89 -39 211 2 317 107 144 145 205 437 106 508 -10 7 -27 26
-37 41 -37 57 -118 73 -185 38z"/>
<path d="M2881 2355 c-76 -22 -120 -42 -344 -162 -195 -104 -240 -138 -253
-189 -6 -22 -11 -24 -63 -24 -81 0 -150 -23 -219 -74 -83 -61 -112 -103 -119
-168 -4 -43 0 -61 19 -98 33 -60 91 -100 158 -108 l53 -7 23 -105 c13 -58 22
-110 20 -116 -2 -6 -17 -15 -33 -18 -39 -10 -118 -62 -149 -98 -103 -124 -118
-330 -34 -486 47 -88 160 -223 251 -300 100 -86 202 -145 317 -185 114 -40
239 -43 349 -9 90 28 256 104 300 138 58 44 90 130 73 193 -22 83 -91 131
-185 131 -44 0 -79 -10 -161 -45 -139 -59 -178 -64 -276 -32 -42 14 -89 32
-106 41 -101 52 -224 196 -226 264 -1 35 1 37 27 35 16 -1 45 -15 64 -30 89
-70 83 -68 175 -71 74 -3 95 -1 132 17 80 39 128 140 105 224 -11 41 -49 85
-121 139 -52 39 -101 143 -122 259 -10 52 -24 130 -33 174 -13 66 -13 80 -2
84 8 2 77 36 154 76 129 66 324 155 339 155 35 0 -65 -247 -173 -429 -75 -126
-90 -173 -73 -229 24 -78 88 -128 181 -139 61 -7 128 21 164 68 32 42 174 326
215 429 66 167 86 249 87 355 0 90 -3 106 -28 157 -35 72 -110 140 -185 169
-75 28 -224 35 -301 14z"/>
</g>
</svg>
