<?xml version="1.0" standalone="no"?>
<!DOCTYPE svg PUBLIC "-//W3C//DTD SVG 20010904//EN"
 "http://www.w3.org/TR/2001/REC-SVG-20010904/DTD/svg10.dtd">
<svg version="1.0" xmlns="http://www.w3.org/2000/svg"
 width="600.000000pt" height="600.000000pt" viewBox="0 0 600.000000 600.000000"
 preserveAspectRatio="xMidYMid meet">
<metadata>
Created by potrace 1.15, written by Peter Selinger 2001-2017
</metadata>
<g transform="translate(0.000000,600.000000) scale(0.100000,-0.100000)"
fill="#16364b" stroke="none">
<path d="M3160 5639 c-42 -17 -70 -51 -110 -129 -56 -113 -74 -175 -74 -260 0
-127 59 -221 169 -270 61 -28 162 -50 228 -50 20 0 38 -4 41 -9 4 -5 -47 -37
-111 -71 -195 -103 -428 -270 -510 -363 -55 -63 -57 -126 -6 -212 54 -92 138
-131 463 -215 124 -33 258 -71 297 -85 86 -30 146 -32 191 -5 35 22 62 72 62
116 0 46 -45 109 -92 132 -76 35 -209 78 -378 122 -91 23 -169 46 -173 50 -16
15 130 111 472 310 151 88 234 164 251 230 30 114 -25 202 -154 245 -51 16
-122 27 -307 44 -58 6 -113 13 -122 17 -27 10 -20 53 23 143 27 56 40 96 40
124 0 47 -26 98 -63 121 -30 21 -105 29 -137 15z"/>
<path d="M1404 5390 c-257 -168 -563 -654 -568 -902 -1 -79 17 -111 85 -146
58 -31 93 -27 364 37 246 59 295 67 295 53 0 -5 -57 -124 -126 -263 -143 -287
-142 -284 -151 -347 -10 -72 -6 -113 15 -141 34 -46 67 -63 119 -63 42 0 78
15 263 107 261 130 341 176 359 207 64 105 -6 238 -127 238 -26 0 -57 -11 -97
-35 -32 -20 -59 -34 -61 -32 -2 1 19 50 45 107 85 183 105 271 80 357 -18 66
-87 134 -160 158 -77 27 -230 23 -384 -9 -65 -14 -121 -23 -123 -21 -3 2 12
35 33 72 79 145 194 274 309 348 89 57 116 134 77 220 -29 64 -72 95 -134 95
-44 0 -62 -6 -113 -40z"/>
<path d="M4710 4449 c-114 -13 -415 -97 -459 -128 -36 -26 -66 -99 -56 -138
18 -74 77 -123 147 -123 18 0 91 16 161 36 71 20 131 33 134 31 6 -7 -209
-341 -293 -456 -35 -47 -65 -99 -68 -116 -10 -51 14 -105 60 -140 28 -20 44
-40 48 -61 3 -17 20 -44 37 -62 33 -33 44 -38 255 -106 78 -26 158 -53 178
-61 35 -15 36 -16 22 -43 -8 -15 -60 -94 -116 -177 -56 -82 -118 -173 -137
-202 -43 -64 -52 -122 -26 -173 24 -47 76 -80 125 -80 82 0 96 14 265 269 191
289 208 322 208 416 0 58 -5 78 -27 117 -62 105 -158 151 -455 219 -51 11 -95
24 -97 28 -3 4 13 33 35 64 58 82 247 398 299 500 35 71 45 101 48 153 11 169
-96 255 -288 233z"/>
<path d="M3825 3674 c-43 -22 -64 -44 -86 -86 -40 -78 -16 -138 85 -213 107
-80 118 -94 120 -160 1 -41 -2 -54 -11 -51 -35 14 -114 17 -168 7 -134 -24
-254 -110 -329 -235 -76 -127 -28 -236 109 -244 70 -4 115 18 143 70 9 17 29
45 43 61 22 26 28 28 46 18 36 -19 158 -14 203 9 62 31 85 73 85 152 l0 66 48
6 c96 13 165 112 154 220 -8 76 -44 135 -151 242 -144 145 -214 178 -291 138z"/>
<path d="M2475 3636 c-125 -29 -299 -109 -358 -164 -96 -91 -15 -272 124 -272
18 0 66 19 112 44 106 56 187 82 245 77 19 -2 15 -90 -9 -167 -39 -126 -120
-317 -205 -484 -92 -180 -101 -218 -64 -277 29 -49 59 -63 158 -74 l90 -11 84
37 c100 45 266 105 291 105 9 0 17 -4 17 -10 0 -20 -50 -140 -115 -278 -64
-136 -67 -146 -63 -202 5 -75 40 -123 118 -162 62 -32 109 -35 165 -9 64 30
90 67 160 231 175 407 199 606 85 720 -92 92 -225 119 -415 85 -44 -8 -85 -15
-92 -15 -7 0 7 39 32 93 82 172 99 237 100 367 0 105 -2 120 -28 175 -74 158
-245 234 -432 191z"/>
<path d="M1126 3409 c-64 -15 -151 -67 -264 -159 -131 -105 -154 -140 -150
-226 3 -44 10 -71 27 -96 55 -79 157 -108 246 -69 26 12 50 20 52 18 2 -2 -6
-39 -17 -83 -95 -374 -121 -518 -127 -697 -7 -185 3 -225 68 -281 41 -35 139
-66 209 -66 73 0 106 39 370 435 122 184 277 395 289 395 4 0 12 -12 17 -27
12 -34 5 -86 -40 -333 -67 -362 -100 -621 -92 -707 13 -127 57 -201 143 -240
84 -39 161 -16 203 60 28 50 25 130 -8 172 -17 22 -22 41 -22 89 0 115 35 349
99 654 25 121 41 225 42 280 3 105 -17 315 -36 378 -43 143 -167 204 -290 143
-83 -42 -272 -263 -441 -517 -37 -57 -70 -100 -71 -95 -2 5 23 117 56 249 65
259 87 391 77 463 -18 130 -76 211 -180 250 -60 22 -97 25 -160 10z"/>
<path d="M4680 2201 c-82 -25 -141 -84 -165 -163 -8 -28 -15 -58 -15 -65 0 -9
-8 -12 -22 -9 -74 15 -269 28 -363 24 -248 -12 -406 -111 -459 -288 -12 -39
-44 -281 -46 -346 0 0 -40 38 -88 85 -108 106 -176 142 -279 149 -97 6 -187
-22 -278 -87 -88 -62 -146 -136 -274 -351 -6 -10 -11 7 -16 55 -32 321 -101
505 -210 563 -43 22 -134 20 -175 -4 -57 -33 -93 -87 -98 -147 -3 -44 1 -66
27 -125 34 -76 49 -167 71 -407 29 -312 113 -492 265 -561 205 -94 389 -17
387 164 0 63 28 150 93 287 51 106 128 215 152 215 10 0 81 -64 158 -143 173
-177 227 -210 345 -211 90 -1 145 21 214 84 95 88 129 185 157 450 16 154 18
160 70 160 23 0 89 -8 148 -17 60 -9 169 -17 251 -17 140 -1 147 0 203 28 140
68 244 221 254 373 8 112 -9 181 -58 236 -57 66 -162 94 -249 68z"/>
</g>
</svg>
