<?xml version="1.0" standalone="no"?>
<!DOCTYPE svg PUBLIC "-//W3C//DTD SVG 20010904//EN"
 "http://www.w3.org/TR/2001/REC-SVG-20010904/DTD/svg10.dtd">
<svg version="1.0" xmlns="http://www.w3.org/2000/svg"
 width="600.000000pt" height="600.000000pt" viewBox="0 0 600.000000 600.000000"
 preserveAspectRatio="xMidYMid meet">
<metadata>
Created by potrace 1.15, written by Peter Selinger 2001-2017
</metadata>
<g transform="translate(0.000000,600.000000) scale(0.100000,-0.100000)"
fill="#16364b" stroke="none">
<path d="M1987 5801 c-40 -26 -382 -478 -460 -607 -20 -33 -41 -84 -47 -112
-10 -44 -9 -57 8 -95 35 -80 117 -123 215 -114 48 4 83 16 157 55 164 85 533
308 573 345 32 30 37 41 37 79 0 57 -28 108 -76 136 -62 36 -111 27 -239 -46
-59 -34 -109 -62 -111 -62 -2 0 34 50 81 111 53 70 87 123 91 146 10 52 -11
106 -56 147 -35 32 -46 36 -93 36 -34 0 -62 -7 -80 -19z"/>
<path d="M2999 5667 c-49 -32 -73 -86 -64 -143 9 -64 59 -111 158 -148 105
-39 228 -117 298 -188 66 -67 123 -171 141 -258 10 -47 9 -60 -6 -91 -19 -40
-73 -74 -162 -103 -85 -27 -130 -87 -121 -158 14 -101 100 -150 217 -122 215
50 367 217 378 416 5 92 -13 173 -63 284 -103 226 -295 392 -587 508 -83 33
-143 34 -189 3z"/>
<path d="M1000 5393 c-145 -26 -282 -113 -361 -233 -138 -207 -58 -492 181
-653 89 -60 177 -49 237 29 22 29 27 47 27 88 0 64 -21 101 -85 146 -73 52
-104 102 -104 166 0 84 47 131 161 161 99 25 134 64 134 146 0 57 -32 105 -90
135 -44 22 -53 23 -100 15z"/>
<path d="M2820 5011 c-75 -23 -134 -76 -174 -157 -87 -174 -46 -350 99 -427
34 -19 57 -22 160 -22 134 0 162 10 203 69 42 61 20 165 -40 197 -13 6 -25 13
-27 15 -2 2 8 17 22 34 56 67 44 156 -32 231 -61 61 -136 83 -211 60z"/>
<path d="M4835 4925 c-5 -2 -23 -6 -38 -9 -44 -10 -115 -82 -128 -130 -14 -52
-4 -194 22 -294 66 -257 260 -394 446 -312 185 80 224 323 82 512 -21 29 -65
75 -97 101 -83 70 -248 146 -287 132z"/>
<path d="M1908 4656 c-89 -37 -165 -103 -193 -168 -44 -107 20 -208 131 -208
31 0 55 9 93 35 67 47 85 45 112 -7 43 -86 89 -118 170 -118 65 0 112 29 134
83 20 49 19 72 -4 139 -37 109 -106 189 -204 238 -77 38 -155 40 -239 6z"/>
<path d="M2967 3960 c-157 -40 -267 -202 -267 -395 0 -39 7 -93 16 -119 21
-62 99 -145 172 -184 70 -38 182 -66 226 -57 122 26 158 177 60 254 -15 12
-52 28 -82 37 -86 25 -113 69 -76 122 17 25 35 27 97 10 52 -14 86 -6 127 28
108 91 64 253 -80 294 -54 15 -151 20 -193 10z"/>
<path d="M1110 3911 c-161 -31 -181 -39 -227 -87 -84 -87 -68 -224 35 -295 29
-20 48 -24 104 -24 54 0 67 -3 63 -14 -8 -20 -121 -207 -243 -400 -113 -180
-160 -272 -217 -426 -31 -83 -36 -109 -33 -156 6 -88 66 -155 161 -180 69 -19
116 -1 191 74 102 101 201 186 396 337 102 79 227 179 278 222 51 43 98 78
104 78 15 0 2 -103 -28 -218 -47 -181 -183 -495 -344 -793 -50 -92 -93 -180
-96 -196 -9 -47 13 -108 51 -142 30 -26 44 -31 86 -31 88 0 117 25 222 198
112 182 200 354 240 472 9 25 34 97 57 160 105 296 133 432 128 634 -3 139 -5
154 -28 195 -14 24 -42 58 -63 75 -37 29 -44 31 -125 31 -82 0 -91 -2 -157
-39 -59 -32 -169 -115 -284 -213 -14 -12 -29 -22 -33 -23 -3 0 30 60 74 133
106 173 144 253 158 335 15 81 5 128 -43 198 -49 74 -122 107 -240 111 -58 1
-127 -5 -187 -16z"/>
<path d="M4305 3794 c-11 -2 -45 -9 -75 -15 -186 -37 -325 -185 -323 -344 1
-110 77 -212 189 -255 84 -31 216 -26 295 13 112 54 187 156 254 342 40 113
43 147 15 192 -36 59 -59 67 -204 70 -72 1 -140 0 -151 -3z m-5 -289 c0 -11
-46 -45 -62 -45 -30 0 -20 17 20 33 44 19 42 18 42 12z"/>
<path d="M3455 3397 c-84 -33 -132 -102 -189 -269 -33 -96 -36 -112 -26 -147
24 -90 79 -120 212 -116 170 4 268 101 271 270 2 96 -22 162 -78 213 -61 57
-127 74 -190 49z"/>
<path d="M4924 2970 c-32 -13 -149 -125 -200 -192 -73 -94 -107 -178 -108
-262 0 -100 37 -161 127 -208 64 -34 173 -32 248 5 150 73 242 277 209 461
-11 63 -17 75 -64 124 -28 29 -63 60 -78 68 -30 15 -101 18 -134 4z"/>
<path d="M4031 2549 c-18 -6 -55 -32 -81 -58 -83 -83 -90 -163 -30 -344 32
-99 36 -118 22 -114 -9 3 -48 17 -87 31 -125 45 -232 33 -312 -37 -87 -78
-123 -164 -123 -298 0 -134 44 -336 111 -509 48 -125 135 -193 244 -192 116 1
218 87 240 203 5 25 -2 68 -20 138 -27 100 -28 135 -5 91 6 -12 35 -32 63 -46
66 -30 145 -32 229 -3 150 50 211 142 210 314 -1 113 -16 186 -99 460 -74 247
-88 281 -135 320 -63 53 -141 68 -227 44z"/>
<path d="M2010 2123 c-37 -20 -77 -54 -124 -108 -102 -119 -129 -161 -134
-215 -10 -105 85 -200 200 -200 50 0 41 -12 -22 -29 -139 -39 -253 -166 -295
-330 -28 -109 -30 -223 -7 -321 64 -267 227 -464 483 -584 178 -84 299 -111
458 -103 174 8 280 53 436 186 120 102 158 176 135 261 -21 78 -110 149 -188
150 -50 0 -95 -23 -162 -85 -106 -97 -214 -130 -350 -105 -203 36 -359 142
-410 276 -28 77 -28 204 0 250 34 54 73 56 103 5 28 -47 139 -153 182 -172 94
-43 209 -11 252 71 45 84 26 169 -60 269 -26 30 -56 78 -66 105 l-19 51 21 9
c12 5 105 51 207 102 205 102 309 148 317 140 11 -11 -79 -265 -152 -431 -41
-93 -78 -186 -81 -207 -9 -53 19 -127 64 -170 57 -55 96 -71 159 -66 126 11
186 120 335 608 72 236 81 274 82 350 1 98 -18 151 -75 209 -60 60 -129 85
-249 89 -162 6 -277 -31 -539 -173 -76 -41 -140 -75 -143 -75 -3 0 -10 24 -17
53 -17 76 -59 147 -109 181 -35 25 -55 31 -110 34 -59 3 -74 0 -122 -25z"/>
</g>
</svg>
