<?xml version="1.0" standalone="no"?>
<!DOCTYPE svg PUBLIC "-//W3C//DTD SVG 20010904//EN"
 "http://www.w3.org/TR/2001/REC-SVG-20010904/DTD/svg10.dtd">
<svg version="1.0" xmlns="http://www.w3.org/2000/svg"
 width="600.000000pt" height="600.000000pt" viewBox="0 0 600.000000 600.000000"
 preserveAspectRatio="xMidYMid meet">
<metadata>
Created by potrace 1.15, written by Peter Selinger 2001-2017
</metadata>
<g transform="translate(0.000000,600.000000) scale(0.100000,-0.100000)"
fill="#16364b" stroke="none">
<path d="M2755 5570 c-33 -13 -62 -52 -74 -97 -10 -36 -8 -50 10 -100 49 -134
61 -202 63 -370 2 -133 6 -166 20 -188 59 -90 199 -86 256 7 17 28 20 51 20
158 0 205 -41 407 -106 518 -39 66 -125 99 -189 72z"/>
<path d="M1945 5436 c-77 -35 -116 -127 -82 -192 9 -16 56 -76 106 -132 86
-100 126 -153 280 -378 75 -109 108 -134 176 -134 90 0 159 85 136 166 -12 41
-242 390 -354 536 -57 75 -101 122 -122 132 -40 19 -99 20 -140 2z"/>
<path d="M4355 4792 c-67 -41 -80 -84 -59 -196 37 -192 142 -446 224 -539 32
-36 42 -40 90 -44 65 -5 95 9 127 56 39 57 32 108 -28 212 -62 108 -104 227
-120 344 -8 55 -20 98 -33 118 -42 63 -140 86 -201 49z"/>
<path d="M1400 4769 c-19 -13 -46 -45 -59 -72 -26 -53 -24 -91 9 -144 34 -57
59 -66 209 -75 180 -12 309 -39 396 -83 94 -47 123 -51 177 -27 60 26 91 76
91 147 0 70 -26 111 -97 154 -127 76 -273 109 -526 118 -161 5 -166 5 -200
-18z"/>
<path d="M3150 4514 c-14 -9 -63 -63 -110 -121 -47 -57 -165 -183 -263 -280
-103 -101 -185 -189 -193 -209 -28 -68 -10 -164 37 -198 38 -26 109 -21 157
12 83 56 288 240 368 330 107 120 211 254 224 287 23 61 -2 134 -59 172 -41
28 -123 31 -161 7z"/>
<path d="M2270 4303 c-73 -23 -230 -28 -355 -9 -131 19 -169 12 -214 -39 -67
-77 -44 -198 46 -243 55 -28 197 -46 363 -47 287 0 414 58 414 189 0 62 -25
111 -74 143 -39 27 -109 29 -180 6z"/>
<path d="M3835 4171 c-25 -11 -60 -43 -92 -83 -85 -105 -277 -285 -373 -347
-113 -75 -228 -130 -359 -172 -116 -38 -156 -68 -167 -124 -16 -88 74 -185
174 -185 105 0 460 179 635 320 153 123 381 381 393 445 13 69 -26 133 -94
153 -52 16 -70 15 -117 -7z"/>
<path d="M5055 3761 c-66 -17 -132 -67 -159 -119 -27 -54 -27 -96 -1 -203 44
-182 28 -323 -54 -487 -71 -141 -152 -237 -302 -357 -125 -101 -161 -212 -105
-330 42 -89 112 -135 206 -135 71 0 110 19 218 107 163 132 286 290 397 508
105 205 139 334 139 525 -1 252 -63 419 -176 473 -41 19 -123 28 -163 18z"/>
<path d="M2280 3738 c-40 -9 -435 -13 -562 -6 -51 3 -84 -15 -122 -66 -31 -41
-29 -121 4 -169 50 -74 162 -91 496 -78 283 12 343 22 389 65 67 64 67 169 -2
233 -32 30 -39 33 -96 32 -34 -1 -82 -6 -107 -11z"/>
<path d="M1950 3118 c-58 -30 -90 -78 -90 -135 0 -81 39 -126 160 -182 144
-67 328 -89 480 -56 54 11 71 20 102 53 46 50 57 108 33 170 -30 74 -95 104
-182 83 -27 -7 -85 -12 -128 -13 -86 -1 -126 11 -205 62 -65 42 -114 47 -170
18z"/>
<path d="M4415 3121 c-16 -11 -48 -35 -70 -56 -258 -235 -544 -357 -915 -391
-87 -8 -134 -24 -173 -62 -91 -87 -27 -239 107 -250 29 -2 104 3 167 12 322
47 603 143 794 271 91 61 245 187 284 230 70 80 56 192 -32 245 -42 26 -122
26 -162 1z"/>
<path d="M1445 2935 c-68 -37 -98 -86 -116 -191 -15 -88 -6 -438 15 -550 31
-171 101 -332 204 -470 107 -143 171 -184 265 -170 84 13 166 110 167 197 0
58 -19 100 -81 173 -142 169 -199 394 -184 726 6 140 6 147 -18 190 -34 65
-93 103 -164 107 -40 3 -67 -1 -88 -12z"/>
<path d="M2170 2374 c-78 -32 -111 -140 -68 -224 18 -36 43 -58 122 -111 143
-97 287 -169 337 -169 130 0 205 152 123 250 -14 16 -74 55 -133 86 -60 30
-140 79 -178 108 -101 76 -139 87 -203 60z"/>
<path d="M4250 2059 c-282 -103 -913 -261 -1190 -297 -157 -21 -196 -34 -234
-85 -59 -77 -51 -182 18 -251 61 -61 97 -69 263 -56 197 16 327 42 541 111
103 33 268 79 367 101 326 72 479 134 519 212 24 47 25 120 2 163 -22 43 -88
97 -135 111 -53 17 -87 14 -151 -9z"/>
<path d="M4936 1736 c-27 -10 -68 -46 -133 -115 -198 -211 -422 -317 -811
-381 -299 -49 -343 -62 -393 -117 -61 -65 -76 -150 -39 -223 23 -45 59 -73
115 -90 34 -10 71 -7 251 19 230 33 330 59 504 128 267 105 488 241 646 398
80 78 93 96 102 138 32 151 -108 291 -242 243z"/>
<path d="M1984 1342 c-53 -25 -84 -75 -84 -136 0 -63 18 -95 82 -143 193 -145
396 -217 644 -230 146 -7 183 -1 222 35 80 75 50 214 -54 258 -20 9 -69 14
-124 14 -176 0 -326 48 -476 152 -102 70 -144 80 -210 50z"/>
<path d="M2015 884 c-71 -37 -106 -90 -107 -164 0 -58 24 -113 63 -141 50 -35
280 -146 371 -177 235 -83 485 -92 816 -31 132 25 181 54 220 129 46 89 7 198
-88 246 -57 29 -106 30 -240 3 -141 -29 -368 -31 -489 -5 -117 25 -213 57
-326 111 -106 49 -166 58 -220 29z"/>
</g>
</svg>
