<?xml version="1.0" standalone="no"?>
<!DOCTYPE svg PUBLIC "-//W3C//DTD SVG 20010904//EN"
 "http://www.w3.org/TR/2001/REC-SVG-20010904/DTD/svg10.dtd">
<svg version="1.0" xmlns="http://www.w3.org/2000/svg"
 width="600.000000pt" height="600.000000pt" viewBox="0 0 600.000000 600.000000"
 preserveAspectRatio="xMidYMid meet">
<metadata>
Created by potrace 1.15, written by Peter Selinger 2001-2017
</metadata>
<g transform="translate(0.000000,600.000000) scale(0.100000,-0.100000)"
fill="#16364b" stroke="none">
<path d="M1633 5779 c-62 -18 -89 -58 -117 -176 -63 -266 -82 -483 -52 -587
32 -109 128 -176 238 -163 121 15 208 104 381 391 109 181 147 258 147 297 0
77 -90 149 -168 134 -63 -12 -87 -39 -178 -202 -104 -188 -134 -237 -141 -230
-8 9 15 171 42 292 31 135 31 150 3 192 -33 48 -97 69 -155 52z"/>
<path d="M3225 5570 c-45 -10 -71 -30 -94 -71 -50 -88 -21 -143 114 -219 54
-30 135 -79 179 -109 78 -51 176 -137 176 -153 0 -4 -12 -8 -26 -8 -71 0 -136
-69 -138 -145 -1 -56 24 -91 95 -130 49 -27 63 -30 145 -30 82 0 94 3 132 28
23 15 54 46 69 69 25 38 28 50 28 132 0 84 -3 96 -33 152 -74 136 -183 237
-419 390 -137 89 -176 105 -228 94z"/>
<path d="M875 5464 c-137 -34 -246 -139 -295 -285 -32 -93 -25 -230 14 -313
46 -94 131 -174 208 -197 70 -20 153 33 165 104 11 67 -4 105 -63 160 -30 29
-58 67 -63 84 -19 65 25 150 89 175 13 5 52 6 86 3 91 -10 140 20 164 101 17
58 -11 123 -66 149 -39 19 -192 31 -239 19z"/>
<path d="M2955 5168 c-110 -39 -205 -174 -205 -293 1 -113 61 -189 171 -215
110 -27 276 28 321 107 26 43 27 172 3 244 -41 124 -176 197 -290 157z"/>
<path d="M2255 4900 c-16 -10 -39 -38 -51 -61 -20 -40 -26 -44 -126 -79 -59
-20 -122 -47 -141 -59 -89 -55 -86 -185 6 -241 18 -11 45 -20 60 -20 27 0 204
65 307 111 120 56 165 127 161 258 -1 25 -11 43 -40 72 -35 36 -43 39 -92 39
-37 0 -64 -6 -84 -20z"/>
<path d="M4726 4820 c-50 -45 -60 -84 -52 -213 8 -138 28 -220 76 -322 46 -95
95 -155 158 -193 95 -55 227 -29 309 61 72 81 97 183 68 283 -41 141 -131 238
-337 360 -77 45 -100 54 -140 54 -39 0 -54 -6 -82 -30z"/>
<path d="M2753 4121 c-72 -25 -117 -62 -147 -123 -42 -84 -31 -170 31 -239 80
-88 224 -136 378 -125 144 9 357 68 403 110 71 64 69 177 -3 234 -41 32 -237
111 -342 138 -118 30 -243 32 -320 5z"/>
<path d="M1105 4071 c-85 -10 -112 -20 -146 -57 -39 -42 -49 -67 -49 -119 0
-57 19 -96 67 -132 34 -26 44 -28 156 -33 67 -3 122 -9 124 -15 4 -13 -96
-128 -171 -194 -32 -29 -120 -98 -195 -154 -254 -188 -274 -210 -273 -305 0
-67 32 -133 85 -175 29 -24 49 -32 95 -35 54 -4 61 -2 105 32 26 20 50 36 53
36 3 0 15 -11 26 -25 25 -32 64 -52 108 -57 18 -2 37 -11 40 -19 29 -62 41
-77 81 -99 78 -43 107 -69 129 -116 19 -39 22 -58 18 -133 -3 -75 -9 -98 -40
-162 -42 -87 -94 -151 -157 -191 -55 -34 -93 -35 -146 -3 -86 53 -191 13 -224
-84 -23 -69 22 -142 115 -190 153 -79 339 -31 511 132 132 126 198 271 210
462 4 67 2 126 -6 167 -26 132 -105 249 -215 318 -31 19 -56 38 -56 41 0 16
284 159 317 159 6 0 29 -10 49 -22 78 -46 178 -19 223 62 16 29 20 53 19 129
-1 108 -22 162 -77 198 -44 29 -120 31 -165 4 -17 -11 -51 -24 -75 -31 -24 -6
-69 -23 -99 -36 -30 -13 -56 -23 -58 -21 -2 1 23 39 55 83 70 99 108 174 121
242 28 149 -67 269 -258 326 -66 19 -203 27 -297 17z"/>
<path d="M4208 3777 c-101 -29 -196 -105 -253 -202 -37 -63 -46 -173 -20 -242
25 -65 89 -131 160 -164 127 -61 269 -28 373 85 94 104 183 326 162 405 -13
49 -55 87 -115 106 -69 22 -247 29 -307 12z m62 -304 c0 -14 -34 -43 -51 -43
-24 0 -15 24 14 38 26 13 37 14 37 5z"/>
<path d="M3385 3386 c-78 -34 -207 -235 -207 -323 0 -50 18 -82 66 -117 22
-17 45 -22 114 -24 75 -3 93 0 132 20 84 43 140 150 140 265 0 64 -17 108 -56
145 -52 48 -126 61 -189 34z"/>
<path d="M5023 3308 c-175 -88 -276 -235 -276 -398 0 -89 17 -134 72 -189 53
-53 122 -75 215 -69 170 11 284 117 323 302 25 120 3 197 -86 303 -77 93 -141
106 -248 51z"/>
<path d="M2158 2613 c-75 -29 -133 -76 -205 -169 -38 -48 -102 -128 -143 -177
-41 -49 -88 -111 -105 -137 -16 -27 -51 -73 -76 -102 -132 -152 -212 -321
-244 -520 -48 -296 29 -543 231 -745 58 -57 91 -81 166 -116 203 -97 540 -145
712 -101 111 28 263 111 375 204 60 50 164 177 211 256 102 175 215 554 235
789 19 217 -72 403 -232 478 -44 20 -61 22 -193 19 -80 -1 -164 -3 -188 -5
l-43 -2 -19 52 c-46 131 -115 213 -220 261 -73 34 -193 41 -262 15z m130 -460
c12 -32 35 -79 51 -104 31 -49 137 -144 178 -160 37 -14 98 -11 249 11 99 15
140 18 148 10 20 -20 11 -168 -17 -280 -115 -470 -326 -719 -610 -720 -141 0
-322 71 -431 169 -97 88 -128 233 -86 408 35 149 92 252 207 377 35 38 63 75
63 82 0 7 27 44 61 81 33 37 81 93 106 125 25 32 49 58 53 58 4 0 17 -26 28
-57z"/>
<path d="M4055 2414 c-48 -24 -93 -74 -111 -121 -17 -43 -15 -140 2 -202 6
-21 5 -23 -12 -16 -58 25 -112 29 -158 11 -107 -41 -151 -114 -150 -246 2
-133 60 -409 108 -515 41 -90 123 -145 215 -145 52 0 118 37 148 81 22 34 31
39 64 39 61 0 140 35 186 82 70 74 78 97 77 233 0 104 -8 158 -57 405 -48 242
-61 291 -85 325 -50 73 -157 106 -227 69z"/>
</g>
</svg>
