<?xml version="1.0" standalone="no"?>
<!DOCTYPE svg PUBLIC "-//W3C//DTD SVG 20010904//EN"
 "http://www.w3.org/TR/2001/REC-SVG-20010904/DTD/svg10.dtd">
<svg version="1.0" xmlns="http://www.w3.org/2000/svg"
 width="600.000000pt" height="600.000000pt" viewBox="0 0 600.000000 600.000000"
 preserveAspectRatio="xMidYMid meet">
<metadata>
Created by potrace 1.15, written by Peter Selinger 2001-2017
</metadata>
<g transform="translate(0.000000,600.000000) scale(0.100000,-0.100000)"
fill="#16364b" stroke="none">
<path d="M2155 5831 c-16 -11 -149 -138 -295 -283 -280 -277 -350 -363 -370
-453 -20 -90 19 -178 96 -215 104 -51 236 -12 774 230 182 81 181 81 202 127
16 36 17 49 8 83 -20 75 -98 140 -167 140 -15 0 -97 -32 -181 -70 -85 -39
-156 -70 -160 -70 -4 0 57 64 135 143 177 176 195 213 154 304 -34 73 -131
105 -196 64z"/>
<path d="M3054 5666 c-91 -40 -118 -169 -50 -240 26 -27 47 -37 126 -55 109
-26 237 -84 295 -134 91 -78 130 -226 91 -345 -28 -84 -126 -162 -251 -202
-133 -42 -147 -201 -23 -266 39 -20 77 -17 160 12 118 42 188 85 264 159 117
115 166 240 165 417 -1 116 -12 169 -58 265 -87 179 -269 305 -553 383 -86 23
-123 25 -166 6z"/>
<path d="M940 5337 c-210 -88 -333 -296 -316 -532 12 -167 76 -279 209 -366
72 -47 127 -57 185 -34 87 35 121 119 82 200 -12 25 -36 53 -55 65 -89 55
-142 158 -124 240 15 65 43 96 117 131 107 50 116 56 136 89 55 92 -17 211
-135 225 -33 4 -58 0 -99 -18z"/>
<path d="M2740 4969 c-111 -22 -202 -95 -257 -208 -25 -50 -28 -67 -28 -156 0
-89 3 -106 27 -156 54 -108 160 -184 303 -214 176 -37 263 4 272 129 7 93 -50
149 -163 161 -79 8 -128 38 -132 81 -5 48 27 79 96 93 77 15 113 50 119 118 6
61 -23 108 -87 141 -47 23 -76 25 -150 11z"/>
<path d="M4780 4929 c-41 -17 -100 -81 -110 -120 -12 -45 2 -187 26 -269 60
-203 208 -343 365 -343 222 0 339 251 213 455 -57 93 -157 172 -297 238 -92
43 -157 56 -197 39z"/>
<path d="M1894 4530 c-100 -21 -245 -119 -290 -196 -50 -85 -16 -186 73 -226
64 -28 114 -18 173 38 42 39 85 64 111 64 5 0 31 -20 57 -44 49 -46 87 -66
124 -66 38 0 107 40 128 74 48 79 35 148 -47 237 -94 101 -212 144 -329 119z"/>
<path d="M2745 3889 c-101 -50 -133 -172 -67 -251 14 -16 36 -34 50 -39 24 -9
25 -12 18 -71 -10 -96 -53 -220 -124 -357 -69 -136 -78 -180 -48 -239 32 -62
112 -101 182 -87 54 10 99 61 157 180 107 218 150 370 150 540 1 101 -3 129
-21 175 -56 143 -183 206 -297 149z"/>
<path d="M1155 3794 c-33 -8 -103 -29 -155 -47 -78 -26 -103 -40 -142 -78 -37
-38 -48 -55 -53 -93 -10 -64 15 -126 68 -171 50 -43 105 -59 176 -51 l53 6
-20 -32 c-286 -468 -332 -554 -389 -726 -47 -144 -49 -211 -8 -277 39 -62 90
-90 166 -90 45 1 66 7 102 30 91 59 375 303 532 456 204 200 259 247 263 227
5 -26 -37 -197 -109 -442 -83 -282 -127 -403 -214 -586 -36 -74 -65 -148 -65
-163 0 -94 99 -175 187 -153 54 14 86 64 190 301 142 322 227 566 290 834 48
208 49 380 2 478 -56 115 -180 154 -299 93 -45 -23 -157 -109 -280 -215 -114
-97 -132 -110 -109 -75 79 121 161 254 182 295 101 201 65 381 -91 462 -56 29
-73 33 -140 32 -43 0 -104 -7 -137 -15z"/>
<path d="M4254 3780 c-222 -24 -337 -128 -338 -305 -1 -137 72 -258 189 -315
72 -36 199 -36 269 0 113 57 200 164 273 335 48 114 51 141 22 202 -27 56 -57
71 -171 83 -103 11 -140 11 -244 0z m36 -325 c-23 -24 -60 -34 -60 -16 0 17
33 35 74 40 5 0 -1 -10 -14 -24z"/>
<path d="M3497 3396 c-62 -23 -112 -61 -145 -113 -75 -118 -111 -319 -66 -379
51 -69 131 -89 255 -65 177 35 282 144 282 291 1 186 -167 322 -326 266z"/>
<path d="M4879 2827 c-91 -57 -235 -254 -271 -371 -44 -143 -24 -241 61 -301
37 -26 51 -30 109 -30 201 1 382 230 382 483 0 45 -6 83 -14 100 -17 32 -101
114 -133 131 -35 18 -95 13 -134 -12z"/>
<path d="M4165 2464 c-48 -18 -100 -65 -126 -116 -24 -48 -24 -124 1 -243 10
-49 17 -92 14 -94 -2 -2 -36 10 -76 27 -104 44 -154 55 -222 48 -150 -15 -260
-137 -286 -316 -24 -163 27 -476 100 -621 76 -148 292 -199 391 -92 69 74 74
150 24 335 -17 59 -27 110 -23 113 8 8 41 -9 88 -45 68 -53 126 -61 230 -31
102 29 161 61 218 118 76 75 96 126 96 238 0 75 -7 118 -46 260 -25 94 -51
195 -58 225 -23 102 -70 164 -147 197 -42 17 -127 16 -178 -3z"/>
<path d="M2865 2262 c-44 -16 -123 -50 -175 -76 -52 -27 -161 -79 -243 -116
l-147 -69 -48 22 c-65 30 -161 29 -222 -2 -56 -30 -156 -125 -181 -173 -40
-78 -16 -189 53 -241 37 -28 107 -50 146 -45 25 3 27 0 39 -62 7 -36 15 -75
18 -86 4 -18 -5 -26 -52 -50 -32 -16 -88 -58 -125 -93 -184 -173 -182 -383 9
-668 131 -198 256 -296 449 -356 252 -79 449 -51 669 96 124 82 160 136 153
224 -8 98 -86 166 -193 167 -51 1 -71 -4 -121 -32 -158 -87 -207 -107 -264
-106 -160 2 -324 116 -410 284 -24 47 -24 107 0 123 17 10 102 -33 194 -98 41
-30 57 -35 102 -35 30 0 69 6 87 14 71 29 126 129 111 199 -10 50 -29 80 -82
134 -27 28 -64 79 -81 114 -29 61 -71 205 -85 296 -6 40 -5 42 24 48 30 7 199
79 395 169 75 34 101 42 103 32 8 -35 -112 -309 -215 -493 -31 -56 -38 -77
-37 -123 1 -171 182 -257 322 -153 37 28 67 84 142 263 71 170 131 336 164
453 59 208 10 353 -148 435 -44 23 -65 26 -161 29 -101 3 -117 1 -190 -25z"/>
</g>
</svg>
