<?xml version="1.0" standalone="no"?>
<!DOCTYPE svg PUBLIC "-//W3C//DTD SVG 20010904//EN"
 "http://www.w3.org/TR/2001/REC-SVG-20010904/DTD/svg10.dtd">
<svg version="1.0" xmlns="http://www.w3.org/2000/svg"
 width="600.000000pt" height="600.000000pt" viewBox="0 0 600.000000 600.000000"
 preserveAspectRatio="xMidYMid meet">
<metadata>
Created by potrace 1.15, written by Peter Selinger 2001-2017
</metadata>
<g transform="translate(0.000000,600.000000) scale(0.100000,-0.100000)"
fill="#16364b" stroke="none">
<path d="M2065 5812 c-16 -11 -52 -45 -80 -78 -58 -69 -101 -117 -170 -194
-164 -179 -265 -309 -301 -385 -68 -144 11 -285 160 -285 71 0 116 15 407 139
278 118 395 173 426 203 54 51 52 142 -3 208 -68 81 -126 80 -299 -5 -71 -35
-132 -61 -134 -59 -3 3 18 28 45 57 76 79 149 168 168 204 33 65 10 148 -53
190 -43 29 -122 31 -166 5z"/>
<path d="M3030 5668 c-49 -34 -72 -71 -78 -126 -5 -55 14 -102 51 -127 12 -8
62 -26 110 -40 188 -54 338 -159 394 -273 23 -48 27 -70 27 -144 l1 -88 -41
-40 c-23 -23 -82 -62 -134 -88 -114 -57 -133 -80 -138 -165 -4 -75 19 -120 75
-143 48 -21 83 -13 190 41 262 131 376 310 344 540 -25 174 -84 288 -221 425
-110 110 -193 159 -364 215 -126 41 -170 44 -216 13z"/>
<path d="M960 5364 c-223 -60 -350 -236 -350 -484 0 -154 42 -253 155 -365 79
-79 124 -105 185 -105 78 0 139 61 148 148 6 69 -15 111 -84 163 -95 71 -128
167 -86 246 21 38 53 63 112 87 87 34 115 51 137 85 44 65 21 152 -53 203 -50
35 -96 41 -164 22z"/>
<path d="M2777 4980 c-97 -25 -177 -92 -225 -189 -24 -50 -27 -67 -27 -156 0
-89 3 -106 27 -151 52 -100 153 -164 289 -185 129 -20 211 6 250 81 57 107
-18 220 -147 220 -28 0 -65 5 -83 11 -25 9 -31 16 -31 40 0 29 0 29 61 29 75
0 119 24 144 77 21 44 16 114 -12 152 -41 57 -162 92 -246 71z"/>
<path d="M4765 4908 c-41 -22 -86 -74 -96 -110 -12 -45 3 -207 27 -302 81
-314 355 -447 539 -262 125 125 110 342 -33 480 -68 66 -117 98 -236 157 -102
51 -158 61 -201 37z"/>
<path d="M1915 4596 c-122 -31 -252 -132 -276 -214 -34 -114 78 -227 191 -193
22 6 55 25 74 41 68 60 106 59 146 -4 82 -134 283 -85 283 68 0 85 -113 236
-213 284 -58 27 -141 35 -205 18z"/>
<path d="M2863 3895 c-79 -48 -112 -164 -133 -466 -20 -295 -11 -352 63 -398
45 -28 120 -28 165 -1 59 36 71 82 72 265 1 88 5 196 9 240 7 70 12 84 39 113
55 58 55 145 0 208 -62 70 -139 84 -215 39z"/>
<path d="M1145 3866 c-113 -30 -212 -70 -243 -99 -84 -78 -81 -216 8 -290 36
-31 84 -42 151 -34 l49 6 -16 -32 c-43 -83 -156 -274 -230 -387 -99 -152 -151
-254 -198 -389 -40 -113 -46 -183 -21 -236 20 -40 69 -91 109 -113 42 -21 127
-20 163 3 15 10 114 96 218 190 278 250 591 515 608 515 8 0 -3 -79 -24 -164
-11 -44 -45 -147 -76 -230 -57 -155 -251 -629 -297 -726 -33 -71 -34 -134 -3
-181 55 -83 185 -92 254 -18 36 40 133 255 266 589 185 467 197 513 204 742 7
225 -25 316 -125 360 -116 51 -278 -18 -520 -222 -41 -34 -75 -60 -77 -58 -2
2 32 60 77 128 116 179 152 258 156 345 5 99 -23 171 -97 246 -84 86 -165 99
-336 55z"/>
<path d="M4326 3799 c-200 -29 -327 -101 -386 -216 -35 -67 -35 -185 -1 -260
29 -65 110 -143 173 -167 66 -25 176 -19 243 14 61 29 134 103 192 192 47 73
127 239 138 286 8 36 -13 88 -47 120 -41 38 -174 51 -312 31z m-66 -334 c-25
-27 -50 -33 -50 -12 0 13 61 49 69 41 3 -2 -6 -15 -19 -29z"/>
<path d="M3442 3374 c-84 -42 -144 -136 -183 -288 -25 -96 -24 -145 4 -187 38
-58 77 -71 192 -66 156 6 249 56 302 165 22 46 27 70 27 127 -1 204 -176 332
-342 249z"/>
<path d="M4809 2843 c-145 -141 -221 -275 -223 -393 -1 -74 13 -106 69 -162
99 -98 266 -85 381 30 86 85 141 239 130 359 -6 75 -14 91 -79 165 -59 66 -81
78 -149 78 -49 0 -52 -2 -129 -77z"/>
<path d="M4105 2524 c-94 -33 -157 -120 -156 -216 0 -35 14 -95 40 -173 22
-66 38 -121 36 -123 -1 -2 -43 11 -91 28 -117 42 -233 45 -309 9 -93 -44 -153
-127 -175 -239 -17 -88 -4 -172 76 -502 41 -168 49 -190 82 -229 47 -54 101
-79 177 -79 133 0 225 86 225 210 0 27 -11 96 -25 154 -14 58 -25 108 -25 111
0 15 32 1 46 -20 9 -13 40 -36 70 -51 43 -21 64 -25 102 -22 118 13 263 98
322 190 88 136 80 273 -41 643 -62 193 -77 223 -129 267 -65 57 -144 71 -225
42z"/>
<path d="M2945 2223 c-97 -22 -294 -101 -467 -190 -60 -30 -112 -53 -117 -51
-6 1 -20 19 -33 38 -27 42 -116 90 -165 90 -94 0 -180 -49 -259 -147 -82 -104
-101 -172 -69 -251 30 -71 102 -121 176 -122 36 0 37 -1 46 -50 l10 -50 -71
-34 c-172 -83 -271 -248 -269 -451 0 -143 59 -289 179 -446 158 -207 400 -322
679 -323 105 -1 130 2 205 27 144 47 314 161 351 235 31 63 24 148 -17 199
-39 49 -93 75 -155 76 -43 1 -57 -5 -121 -50 -110 -76 -151 -94 -232 -100
-253 -19 -532 210 -496 406 15 81 55 81 129 0 64 -70 118 -105 176 -114 78
-13 166 29 200 96 21 40 19 132 -4 177 -11 20 -36 53 -56 72 -46 43 -88 126
-115 222 -26 95 -26 104 8 113 15 3 97 40 182 82 198 96 304 143 323 143 12 0
14 -6 7 -29 -27 -96 -95 -257 -167 -401 -91 -180 -98 -211 -64 -285 37 -82
122 -131 212 -123 75 8 108 40 188 186 125 226 216 485 228 647 14 192 -71
354 -208 398 -48 16 -165 21 -214 10z"/>
</g>
</svg>
