<?xml version="1.0" standalone="no"?>
<!DOCTYPE svg PUBLIC "-//W3C//DTD SVG 20010904//EN"
 "http://www.w3.org/TR/2001/REC-SVG-20010904/DTD/svg10.dtd">
<svg version="1.0" xmlns="http://www.w3.org/2000/svg"
 width="600.000000pt" height="600.000000pt" viewBox="0 0 600.000000 600.000000"
 preserveAspectRatio="xMidYMid meet">
<metadata>
Created by potrace 1.15, written by Peter Selinger 2001-2017
</metadata>
<g transform="translate(0.000000,600.000000) scale(0.100000,-0.100000)"
fill="#16364b" stroke="none">
<path d="M1990 5011 c-102 -34 -170 -101 -200 -199 -25 -81 -25 -119 0 -226
33 -136 59 -365 71 -618 12 -267 5 -1019 -13 -1258 l-11 -154 -47 -66 c-26
-37 -107 -165 -179 -286 -73 -120 -143 -227 -157 -238 -19 -14 -22 -21 -13
-32 9 -11 7 -14 -10 -14 -30 0 -37 -26 -15 -52 14 -15 16 -22 7 -25 -7 -3 -13
-13 -13 -24 0 -15 7 -19 31 -19 26 0 30 -3 27 -22 -6 -42 31 -34 83 18 27 27
49 53 49 60 0 17 216 398 229 402 7 2 11 -13 11 -41 0 -118 75 -434 140 -591
95 -228 260 -363 490 -402 52 -9 96 -17 97 -18 1 -1 -3 -22 -9 -46 -26 -112
13 -375 86 -589 31 -88 32 -111 9 -111 -188 -5 -231 -18 -253 -71 -9 -21 -9
-34 2 -55 24 -49 62 -68 141 -72 125 -7 227 32 276 104 38 54 37 97 -2 205
-91 251 -125 455 -96 589 l11 51 106 -6 c59 -3 177 -11 262 -16 340 -23 403
-26 498 -21 l98 4 -8 -83 c-17 -161 17 -368 87 -541 14 -34 25 -65 25 -70 0
-4 -39 -8 -87 -8 -101 0 -150 -18 -171 -63 -18 -37 0 -90 41 -121 56 -42 242
-20 319 37 30 22 68 91 68 124 0 11 -20 80 -45 154 -24 74 -51 175 -60 224
-17 96 -21 281 -7 330 10 35 16 37 200 60 275 35 366 70 483 186 60 59 86 94
117 160 43 88 76 210 86 319 8 77 -7 241 -29 325 -37 141 -145 318 -252 412
-35 31 -62 57 -60 59 2 2 74 -16 161 -40 102 -28 161 -49 170 -61 11 -16 23
-17 86 -12 80 7 101 17 81 41 -7 9 -9 21 -5 28 5 7 9 28 11 45 1 27 -2 34 -20
37 -71 15 -79 18 -84 36 -6 22 -23 26 -39 10 -8 -8 -43 -2 -117 19 -123 34
-329 80 -502 111 -110 20 -127 26 -206 75 -48 30 -176 106 -285 171 -416 245
-626 405 -748 569 -155 208 -262 423 -446 895 -103 265 -139 320 -250 379 -64
34 -168 49 -220 32z m151 -167 c56 -28 113 -113 142 -211 9 -28 22 -62 30 -75
9 -12 47 -102 87 -198 71 -173 230 -500 298 -615 58 -97 139 -201 205 -261 58
-53 346 -272 449 -342 26 -18 129 -80 230 -138 101 -59 230 -139 288 -179 58
-39 139 -91 180 -115 317 -183 432 -301 506 -516 25 -71 27 -93 28 -224 1
-111 -3 -160 -17 -210 -42 -148 -117 -260 -212 -315 -47 -27 -185 -56 -420
-86 -206 -27 -471 -31 -810 -10 -126 7 -305 13 -397 12 -195 -1 -287 13 -379
60 -159 80 -264 262 -331 573 -27 127 -30 370 -9 881 32 792 8 1464 -64 1738
-19 75 -19 130 1 173 19 41 33 53 81 69 40 14 70 11 114 -11z m-636 -2974 c3
-5 1 -10 -4 -10 -6 0 -11 5 -11 10 0 6 2 10 4 10 3 0 8 -4 11 -10z"/>
<path d="M2611 2731 c-29 -29 -26 -57 8 -92 35 -35 53 -36 81 -7 39 42 20 103
-36 114 -25 5 -37 1 -53 -15z"/>
<path d="M3066 2597 c-44 -32 -5 -106 56 -107 48 0 77 70 42 104 -19 19 -74
21 -98 3z"/>
<path d="M5201 3979 c-216 -86 -256 -377 -76 -552 61 -60 118 -82 210 -82 71
0 89 4 145 32 126 62 199 162 208 284 3 52 0 75 -16 112 -28 63 -91 128 -172
177 -63 38 -74 42 -157 46 -74 4 -97 1 -142 -17z m175 -284 c19 -15 19 -15 0
-30 -37 -28 -66 -14 -66 31 0 19 41 18 66 -1z"/>
<path d="M5372 1120 c-18 -4 -42 -16 -53 -25 -20 -19 -59 -130 -59 -171 0 -44
31 -104 62 -120 81 -42 154 38 172 187 9 74 0 106 -35 124 -31 16 -38 17 -87
5z"/>
</g>
</svg>
