<?xml version="1.0" standalone="no"?>
<!DOCTYPE svg PUBLIC "-//W3C//DTD SVG 20010904//EN"
 "http://www.w3.org/TR/2001/REC-SVG-20010904/DTD/svg10.dtd">
<svg version="1.0" xmlns="http://www.w3.org/2000/svg"
 width="600.000000pt" height="600.000000pt" viewBox="0 0 600.000000 600.000000"
 preserveAspectRatio="xMidYMid meet">
<metadata>
Created by potrace 1.15, written by Peter Selinger 2001-2017
</metadata>
<g transform="translate(0.000000,600.000000) scale(0.100000,-0.100000)"
fill="#16364b" stroke="none">
<path d="M2361 5394 c-18 -23 -19 -35 -14 -163 9 -221 -24 -408 -93 -526 -33
-57 -110 -127 -174 -160 -73 -37 -100 -69 -100 -116 0 -46 28 -79 66 -79 46 0
184 80 250 145 137 134 192 318 201 681 6 200 6 201 -18 222 -33 32 -91 30
-118 -4z"/>
<path d="M3533 5290 c-27 -11 -63 -66 -63 -95 0 -29 45 -121 80 -166 72 -90
187 -145 250 -119 93 39 64 162 -72 306 -60 64 -143 95 -195 74z"/>
<path d="M2975 5091 c-118 -53 -188 -226 -135 -331 80 -156 334 -30 365 180 5
36 1 54 -17 90 -39 76 -126 101 -213 61z m75 -151 c0 -35 -61 -103 -77 -87
-11 12 50 97 69 97 4 0 8 -5 8 -10z"/>
<path d="M4764 4750 c-62 -25 -82 -111 -64 -275 20 -179 66 -332 118 -392 30
-34 84 -63 118 -63 62 0 133 70 155 154 16 59 6 200 -19 270 -29 78 -105 199
-167 264 -43 43 -57 52 -86 51 -19 0 -44 -4 -55 -9z"/>
<path d="M2678 4210 c-50 -15 -93 -48 -116 -88 -85 -151 85 -302 328 -290 77
4 98 9 162 40 90 45 128 83 134 134 6 47 -19 100 -56 120 -28 14 -200 68 -270
83 -53 12 -144 13 -182 1z"/>
<path d="M1144 4155 c-74 -38 -106 -216 -56 -312 24 -47 78 -87 130 -98 77
-16 189 41 218 111 16 39 18 102 4 138 -17 45 -78 102 -144 135 -81 40 -113
45 -152 26z"/>
<path d="M5297 3959 c-89 -21 -200 -106 -240 -184 -61 -120 -13 -320 102 -421
78 -70 193 -71 326 -5 157 78 233 212 205 361 -19 98 -76 173 -176 231 -43 24
-62 29 -115 28 -35 -1 -81 -5 -102 -10z m92 -319 c11 -6 9 -12 -8 -29 -27 -27
-49 -27 -60 2 -16 42 16 55 68 27z"/>
<path d="M4182 3754 c-71 -19 -106 -38 -150 -82 -61 -61 -77 -104 -77 -207 0
-78 4 -97 27 -141 38 -73 69 -106 130 -139 45 -26 64 -30 128 -30 62 0 85 5
131 28 131 64 209 207 209 385 0 82 -17 131 -55 156 -65 43 -239 58 -343 30z
m88 -265 c0 -23 -22 -49 -40 -49 -24 0 -26 17 -3 42 18 20 43 24 43 7z"/>
<path d="M3423 3348 c-50 -36 -182 -257 -183 -306 0 -35 43 -72 83 -72 92 0
249 191 251 307 1 37 -4 49 -27 69 -36 30 -82 31 -124 2z"/>
<path d="M1255 3270 c-187 -8 -245 -19 -336 -66 -75 -38 -154 -117 -191 -192
-31 -63 -33 -73 -33 -172 0 -97 2 -110 32 -172 79 -168 236 -261 483 -287 127
-14 181 -34 233 -86 62 -62 105 -151 192 -400 42 -121 96 -260 120 -310 98
-203 223 -352 346 -412 151 -73 262 -85 779 -87 510 -1 977 16 1155 43 313 47
564 140 783 288 129 87 213 187 281 335 59 128 75 201 74 353 -1 278 -98 491
-311 685 -84 77 -158 124 -247 156 -176 64 -439 45 -673 -47 -96 -38 -156 -72
-302 -169 -63 -42 -136 -89 -161 -104 -57 -33 -194 -59 -264 -51 -168 20 -473
178 -770 398 -177 131 -363 222 -564 274 -81 21 -124 25 -271 28 -96 2 -256
-1 -355 -5z m550 -385 c97 -26 250 -108 395 -211 248 -176 353 -241 580 -356
255 -130 311 -148 458 -148 186 0 343 55 564 198 169 109 237 145 348 184 85
29 107 32 210 33 110 0 118 -2 180 -32 245 -121 322 -370 196 -634 -36 -77
-79 -125 -157 -175 -216 -138 -487 -224 -774 -244 -576 -41 -620 -43 -794 -34
-97 5 -275 9 -396 9 -179 1 -229 4 -270 18 -154 51 -226 154 -295 424 -125
482 -270 698 -535 798 -71 27 -208 55 -269 55 -60 0 -113 17 -148 49 -60 53
-16 71 197 81 231 11 438 5 510 -15z"/>
<path d="M483 2066 c-57 -26 -69 -79 -28 -130 14 -17 47 -60 73 -96 101 -139
251 -189 297 -99 50 96 -29 219 -190 295 -89 42 -113 47 -152 30z"/>
<path d="M5295 1173 c-66 -34 -101 -82 -105 -143 -5 -68 0 -90 31 -125 27 -31
37 -35 79 -35 60 0 93 25 114 87 9 26 16 77 16 115 0 60 -3 72 -25 93 -28 29
-66 32 -110 8z"/>
</g>
</svg>
