<?xml version="1.0" standalone="no"?>
<!DOCTYPE svg PUBLIC "-//W3C//DTD SVG 20010904//EN"
 "http://www.w3.org/TR/2001/REC-SVG-20010904/DTD/svg10.dtd">
<svg version="1.0" xmlns="http://www.w3.org/2000/svg"
 width="600.000000pt" height="600.000000pt" viewBox="0 0 600.000000 600.000000"
 preserveAspectRatio="xMidYMid meet">
<metadata>
Created by potrace 1.15, written by Peter Selinger 2001-2017
</metadata>
<g transform="translate(0.000000,600.000000) scale(0.100000,-0.100000)"
fill="#16364b" stroke="none">
<path d="M1965 5826 c-42 -19 -59 -39 -192 -241 -209 -316 -262 -418 -271
-520 -10 -126 63 -210 182 -210 77 0 158 38 339 156 70 46 188 122 263 169
137 86 165 114 179 177 16 77 -46 175 -120 189 -47 9 -84 -6 -184 -75 -104
-70 -137 -89 -124 -69 4 7 36 56 71 108 72 110 87 153 73 208 -15 53 -38 82
-85 103 -48 22 -89 23 -131 5z"/>
<path d="M3035 5689 c-61 -19 -95 -65 -95 -129 0 -74 24 -101 148 -165 153
-78 227 -128 299 -201 114 -116 187 -310 137 -365 -26 -29 -64 -47 -124 -60
-129 -28 -181 -167 -93 -251 58 -55 116 -61 231 -22 178 59 286 177 312 340
16 99 -16 238 -88 379 -37 72 -65 109 -137 181 -105 106 -203 169 -373 242
-129 55 -172 66 -217 51z"/>
<path d="M930 5381 c-196 -64 -321 -201 -352 -384 -30 -179 77 -391 247 -488
121 -70 255 -1 255 131 0 57 -21 93 -85 141 -73 55 -99 99 -99 164 1 32 8 62
20 80 20 31 104 75 144 75 39 0 101 41 121 80 38 70 14 147 -60 197 -42 28
-112 30 -191 4z"/>
<path d="M2784 5031 c-60 -35 -104 -87 -142 -168 -23 -49 -27 -71 -27 -143 0
-95 15 -138 69 -191 67 -66 153 -90 279 -78 88 8 131 29 165 80 33 48 27 127
-13 169 -27 29 -28 29 -11 64 24 51 20 97 -17 167 -45 88 -95 122 -185 127
-60 3 -73 0 -118 -27z"/>
<path d="M4754 4891 c-75 -46 -87 -107 -60 -321 30 -237 84 -334 221 -396 127
-58 278 -25 352 77 48 67 70 162 55 241 -28 149 -115 237 -366 367 -110 56
-151 63 -202 32z"/>
<path d="M1932 4664 c-93 -25 -171 -74 -197 -124 -22 -42 -19 -118 5 -158 22
-36 88 -71 134 -72 16 0 57 14 92 32 60 31 64 31 82 14 11 -9 22 -30 25 -45 7
-35 50 -87 88 -106 62 -32 145 -8 187 55 64 94 -31 306 -168 375 -46 23 -133
46 -173 44 -12 0 -46 -7 -75 -15z"/>
<path d="M2929 3976 c-104 -40 -167 -93 -210 -176 -30 -58 -32 -178 -5 -260
61 -180 184 -269 381 -273 67 -2 86 2 115 20 88 55 101 179 26 252 -25 24 -47
34 -110 46 -118 22 -157 57 -92 80 21 7 43 4 96 -14 102 -35 167 -19 210 52
66 108 22 213 -107 257 -85 28 -249 37 -304 16z"/>
<path d="M1200 3963 c-36 -7 -137 -32 -198 -49 -83 -24 -134 -78 -153 -161
-16 -72 28 -165 94 -200 18 -9 61 -19 95 -22 l64 -6 -145 -220 c-204 -311
-284 -459 -335 -615 -31 -97 -34 -124 -22 -172 24 -89 92 -148 172 -148 64 0
91 12 151 68 29 27 124 100 212 163 88 62 200 147 249 189 241 204 313 263
330 272 18 10 19 7 13 -68 -21 -264 -175 -633 -429 -1026 -78 -121 -89 -159
-63 -219 27 -59 89 -93 160 -87 74 6 110 34 178 137 63 97 213 384 283 543 64
146 139 373 170 513 22 105 25 137 21 250 -5 147 -20 202 -76 266 -47 55 -101
81 -172 81 -79 0 -147 -38 -310 -173 -121 -101 -147 -121 -136 -101 3 4 30 49
61 101 125 206 177 332 178 433 2 101 -45 178 -137 226 -41 21 -66 26 -140 28
-49 1 -101 0 -115 -3z"/>
<path d="M4265 3784 c-132 -31 -196 -60 -259 -115 -25 -23 -58 -66 -75 -101
-26 -51 -31 -73 -31 -132 0 -90 25 -145 91 -208 99 -93 253 -120 371 -66 117
54 205 166 273 348 39 107 43 150 17 200 -32 59 -76 73 -231 76 -75 2 -145 1
-156 -2z m5 -309 c0 -10 -44 -45 -57 -45 -21 0 -15 26 10 38 23 11 47 15 47 7z"/>
<path d="M3399 3370 c-62 -33 -125 -128 -170 -257 -38 -112 -17 -179 71 -225
93 -49 236 -33 316 35 113 98 127 304 26 404 -21 19 -51 42 -69 49 -46 20
-131 17 -174 -6z"/>
<path d="M4945 3011 c-53 -24 -192 -163 -248 -248 -58 -89 -80 -158 -75 -233
6 -83 46 -145 118 -183 48 -25 63 -28 120 -24 155 10 283 128 335 311 20 68
23 188 6 231 -17 41 -98 127 -140 147 -46 22 -66 22 -116 -1z"/>
<path d="M4025 2579 c-46 -13 -103 -66 -133 -123 -40 -77 -38 -178 6 -310 18
-54 31 -100 29 -102 -2 -2 -37 8 -78 22 -190 66 -334 32 -396 -95 -25 -50 -28
-66 -27 -151 3 -223 102 -625 179 -727 58 -75 183 -104 275 -62 132 60 173
176 117 337 -25 69 -24 89 3 58 21 -26 108 -49 161 -43 66 8 186 66 233 112
53 52 88 132 94 214 6 87 -17 196 -83 390 -29 86 -69 209 -89 273 -33 108 -40
120 -82 157 -64 57 -132 73 -209 50z"/>
<path d="M2013 2155 c-69 -30 -174 -149 -233 -265 -47 -91 -16 -212 64 -255
42 -23 44 -28 13 -42 -38 -18 -133 -110 -170 -166 -178 -270 -123 -626 138
-892 96 -97 174 -152 309 -215 137 -64 204 -83 306 -83 111 -1 190 21 325 87
126 62 294 194 332 261 47 83 24 187 -54 239 -32 22 -33 25 -14 31 35 11 98
92 145 188 47 93 157 412 196 567 30 116 25 241 -12 321 -73 158 -213 224
-393 184 -75 -16 -158 -55 -445 -209 -58 -30 -110 -56 -116 -56 -7 0 -17 21
-23 48 -43 171 -148 272 -281 272 -30 -1 -70 -7 -87 -15z m954 -566 c-50 -121
-170 -384 -206 -453 -37 -68 -40 -121 -11 -184 21 -47 32 -60 73 -87 l28 -18
-23 -15 c-13 -8 -45 -36 -73 -62 -68 -63 -129 -97 -210 -117 -59 -14 -77 -15
-144 -4 -93 16 -137 34 -234 99 -130 89 -190 191 -191 327 -1 67 3 86 23 118
22 36 54 57 86 57 7 0 24 -17 36 -37 94 -154 208 -218 317 -178 59 22 90 49
113 100 35 76 23 131 -53 243 -47 69 -50 65 137 160 94 47 213 105 265 129
115 52 118 48 67 -78z"/>
</g>
</svg>
