<?xml version="1.0" standalone="no"?>
<!DOCTYPE svg PUBLIC "-//W3C//DTD SVG 20010904//EN"
 "http://www.w3.org/TR/2001/REC-SVG-20010904/DTD/svg10.dtd">
<svg version="1.0" xmlns="http://www.w3.org/2000/svg"
 width="600.000000pt" height="600.000000pt" viewBox="0 0 600.000000 600.000000"
 preserveAspectRatio="xMidYMid meet">
<metadata>
Created by potrace 1.15, written by Peter Selinger 2001-2017
</metadata>
<g transform="translate(0.000000,600.000000) scale(0.100000,-0.100000)"
fill="#16364b" stroke="none">
<path d="M2384 5379 c-17 -18 -20 -44 -25 -208 -6 -153 -11 -203 -32 -284 -53
-200 -130 -311 -262 -378 -81 -41 -100 -70 -72 -113 28 -42 59 -43 135 -5 230
117 358 388 369 784 5 164 4 171 -17 198 -26 33 -69 36 -96 6z"/>
<path d="M3548 5286 c-13 -7 -29 -29 -37 -53 -15 -40 -14 -43 21 -115 68 -136
197 -237 267 -208 36 15 56 58 47 105 -9 45 -115 204 -160 238 -44 34 -106 49
-138 33z"/>
<path d="M3009 5092 c-97 -50 -159 -161 -159 -280 0 -57 3 -67 29 -93 40 -40
91 -40 152 0 116 77 192 188 192 279 0 49 -16 78 -56 102 -45 28 -95 25 -158
-8z m81 -112 c0 -24 -41 -89 -76 -120 -46 -40 -54 -27 -24 35 29 59 100 120
100 85z"/>
<path d="M4747 4741 c-22 -26 -24 -40 -30 -167 -11 -231 17 -405 75 -474 43
-52 118 -66 168 -30 35 25 67 98 75 175 8 73 -13 202 -50 295 -32 82 -99 195
-127 215 -37 25 -83 19 -111 -14z"/>
<path d="M2628 4215 c-35 -20 -58 -64 -58 -110 0 -113 124 -212 286 -230 103
-12 248 33 293 91 36 45 25 121 -23 156 -12 9 -87 35 -167 58 -167 48 -286 61
-331 35z"/>
<path d="M5218 3975 c-192 -73 -272 -281 -179 -469 62 -125 176 -196 294 -181
129 16 270 88 327 166 40 56 64 139 56 197 -14 101 -74 174 -206 253 -72 42
-78 44 -165 46 -59 2 -103 -2 -127 -12z m179 -309 c11 -11 -7 -36 -32 -42 -30
-7 -55 10 -55 39 0 17 5 19 41 14 22 -3 43 -8 46 -11z"/>
<path d="M4180 3756 c-65 -18 -100 -39 -147 -88 -63 -64 -88 -127 -87 -218 0
-90 21 -136 86 -197 62 -56 128 -77 232 -71 126 7 212 61 263 166 23 47 28 73
31 154 5 120 -2 159 -34 198 -51 59 -227 88 -344 56z m100 -256 c0 -15 -38
-50 -55 -50 -20 0 -19 19 2 42 17 19 53 25 53 8z"/>
<path d="M1122 3505 c-98 -28 -165 -71 -210 -138 -81 -118 -82 -270 -3 -388
38 -56 129 -131 206 -169 33 -16 103 -41 155 -55 122 -34 172 -70 239 -171 83
-127 112 -224 196 -664 45 -234 65 -302 122 -419 61 -123 152 -218 269 -279
130 -67 230 -87 504 -102 723 -40 962 -43 1220 -17 96 10 222 22 280 28 168
16 328 64 537 160 194 89 301 166 389 280 116 151 213 427 214 611 1 248 -160
511 -406 661 -167 101 -409 128 -594 67 -108 -36 -185 -78 -418 -224 -171
-107 -272 -154 -373 -172 -164 -30 -272 -4 -523 124 -152 78 -242 135 -598
373 -231 155 -523 333 -630 385 -40 19 -129 53 -198 75 -147 48 -284 61 -378
34z m248 -341 c221 -60 624 -288 933 -529 181 -141 276 -199 492 -305 270
-132 388 -165 580 -163 224 2 361 53 648 242 239 156 380 210 517 197 122 -11
241 -94 314 -218 101 -173 61 -454 -89 -625 -92 -105 -333 -228 -530 -269 -38
-8 -160 -19 -270 -25 -110 -5 -249 -16 -310 -24 -123 -16 -558 -19 -735 -4
-58 4 -177 13 -265 18 -302 18 -433 62 -505 166 -62 90 -117 293 -185 675 -57
318 -103 427 -244 574 -119 124 -236 194 -371 222 -86 18 -130 35 -149 58 -13
15 -13 19 0 27 23 15 69 10 169 -17z"/>
<path d="M2212 2334 c-31 -22 -29 -68 4 -99 33 -30 57 -32 84 -5 60 60 -18
153 -88 104z"/>
<path d="M2884 2072 c-19 -13 -34 -50 -28 -69 9 -24 45 -52 66 -53 22 0 58 47
58 76 0 12 -7 30 -16 38 -16 17 -61 21 -80 8z"/>
<path d="M3430 3351 c-37 -38 -150 -271 -150 -308 0 -35 29 -63 65 -63 40 0
80 36 136 124 75 115 99 226 59 266 -32 32 -68 25 -110 -19z"/>
<path d="M470 2030 c-30 -30 -25 -64 18 -111 20 -23 55 -62 76 -86 92 -103
214 -130 261 -59 40 61 -17 131 -179 220 -109 60 -145 67 -176 36z"/>
<path d="M5332 1112 c-48 -37 -79 -184 -51 -245 12 -27 58 -57 86 -57 33 0 82
38 104 81 16 32 21 61 22 116 0 63 -3 77 -23 98 -29 31 -102 35 -138 7z"/>
</g>
</svg>
