<?xml version="1.0" standalone="no"?>
<!DOCTYPE svg PUBLIC "-//W3C//DTD SVG 20010904//EN"
 "http://www.w3.org/TR/2001/REC-SVG-20010904/DTD/svg10.dtd">
<svg version="1.0" xmlns="http://www.w3.org/2000/svg"
 width="600.000000pt" height="600.000000pt" viewBox="0 0 600.000000 600.000000"
 preserveAspectRatio="xMidYMid meet">
<metadata>
Created by potrace 1.15, written by Peter Selinger 2001-2017
</metadata>
<g transform="translate(0.000000,600.000000) scale(0.100000,-0.100000)"
fill="#16364b" stroke="none">
<path d="M1535 5790 c-33 -14 -231 -239 -308 -349 -80 -116 -19 -247 105 -226
82 14 505 218 532 257 9 12 16 42 16 66 0 60 -41 102 -100 102 -22 0 -53 -6
-68 -14 -15 -7 -38 -17 -51 -21 l-23 -7 22 30 c24 32 29 87 11 121 -22 41 -89
61 -136 41z"/>
<path d="M2338 5411 l-33 -29 0 -239 c-1 -259 -7 -306 -56 -409 -36 -77 -95
-132 -198 -183 -57 -29 -85 -50 -96 -70 -28 -56 -14 -115 35 -144 42 -25 61
-22 173 31 281 133 371 339 352 812 -8 196 -16 223 -70 246 -50 20 -71 18
-107 -15z"/>
<path d="M3507 5320 c-14 -11 -33 -40 -42 -63 -16 -41 -15 -46 4 -101 29 -82
67 -143 127 -203 65 -65 112 -86 182 -80 69 5 102 35 109 100 7 56 -9 105 -59
184 -91 144 -245 222 -321 163z"/>
<path d="M2962 5124 c-161 -80 -217 -328 -94 -422 31 -23 44 -27 101 -26 53 1
78 7 126 31 79 41 101 66 120 138 18 70 19 115 4 170 -33 121 -141 167 -257
109z"/>
<path d="M4765 4780 c-11 -4 -31 -20 -45 -35 -21 -22 -25 -38 -28 -100 -2 -40
1 -113 7 -162 37 -278 151 -427 326 -427 260 0 272 329 21 580 -84 84 -193
155 -237 153 -13 0 -33 -4 -44 -9z"/>
<path d="M2691 4225 c-68 -19 -109 -45 -154 -95 -82 -89 -67 -217 34 -304 140
-119 346 -96 540 59 93 75 117 133 85 208 -23 56 -65 82 -179 110 -136 34
-254 42 -326 22z"/>
<path d="M1068 4078 c-63 -37 -84 -106 -49 -163 20 -34 55 -51 184 -89 48 -15
87 -31 87 -35 0 -20 -72 -33 -195 -37 -143 -5 -180 -16 -208 -64 -9 -15 -17
-49 -17 -74 0 -39 6 -52 34 -84 l34 -37 99 -3 c325 -11 553 114 553 303 0 129
-120 234 -325 285 -103 25 -151 25 -197 -2z"/>
<path d="M4188 3761 c-73 -24 -116 -51 -168 -107 -63 -68 -83 -121 -78 -208
14 -263 315 -373 517 -190 57 50 87 105 111 199 34 134 25 230 -27 277 -49 45
-253 61 -355 29z m76 -286 c-16 -25 -54 -35 -54 -14 0 16 31 38 53 39 16 0 16
-2 1 -25z"/>
<path d="M1631 3674 c-37 -31 -51 -77 -51 -170 0 -127 46 -224 131 -281 58
-38 148 -40 202 -3 141 95 90 367 -85 454 -73 36 -154 36 -197 0z"/>
<path d="M5165 3661 c-129 -38 -197 -87 -241 -172 -79 -157 5 -377 174 -451
62 -28 177 -22 247 12 64 31 130 98 158 158 31 66 31 216 0 283 -23 49 -112
157 -146 176 -31 17 -122 15 -192 -6z m75 -304 c0 -17 -20 -37 -37 -37 -16 0
-17 22 -1 38 16 16 38 15 38 -1z"/>
<path d="M3424 3381 c-40 -17 -92 -93 -143 -205 -58 -128 -59 -159 -9 -201 55
-46 100 -43 195 11 80 46 149 184 140 277 -6 67 -55 117 -118 123 -24 2 -53 0
-65 -5z"/>
<path d="M2380 3090 c-219 -25 -604 -151 -775 -254 -179 -108 -348 -290 -411
-446 -84 -208 -77 -432 21 -635 47 -98 77 -130 245 -265 81 -65 178 -154 216
-197 104 -119 161 -170 233 -213 137 -81 305 -116 468 -98 153 16 243 53 613
251 41 22 118 68 170 102 121 79 419 323 531 434 72 73 90 98 119 166 32 76
34 86 35 200 0 144 -20 218 -91 340 -62 105 -259 300 -396 391 -53 36 -102 72
-109 80 -36 44 -208 108 -344 129 -115 17 -428 26 -525 15z m559 -444 c146
-78 152 -83 303 -204 266 -212 281 -291 87 -463 -94 -83 -290 -239 -394 -314
-87 -62 -384 -211 -505 -253 -102 -35 -205 -36 -273 -3 -26 13 -103 74 -170
136 -67 62 -185 164 -262 227 -77 62 -150 129 -162 147 -73 109 -47 292 60
419 65 77 125 118 320 216 272 137 412 168 727 162 l145 -3 124 -67z"/>
<path d="M414 2250 c-32 -13 -64 -59 -64 -93 0 -56 41 -181 96 -293 136 -277
354 -420 506 -331 64 37 91 92 86 170 -9 148 -94 237 -442 471 -129 86 -143
92 -182 76z m346 -455 c18 -19 31 -37 29 -40 -3 -2 -23 13 -44 35 -22 22 -35
40 -29 40 6 0 25 -16 44 -35z"/>
<path d="M4605 1788 c-11 -6 -32 -22 -46 -35 -22 -20 -31 -23 -47 -14 -29 16
-98 14 -132 -4 -32 -17 -65 -65 -74 -111 -9 -39 17 -200 44 -278 54 -156 151
-241 254 -222 92 17 126 91 162 345 28 204 29 232 9 271 -27 52 -117 78 -170
48z"/>
</g>
</svg>
