<?xml version="1.0" standalone="no"?>
<!DOCTYPE svg PUBLIC "-//W3C//DTD SVG 20010904//EN"
 "http://www.w3.org/TR/2001/REC-SVG-20010904/DTD/svg10.dtd">
<svg version="1.0" xmlns="http://www.w3.org/2000/svg"
 width="600.000000pt" height="600.000000pt" viewBox="0 0 600.000000 600.000000"
 preserveAspectRatio="xMidYMid meet">
<metadata>
Created by potrace 1.15, written by Peter Selinger 2001-2017
</metadata>
<g transform="translate(0.000000,600.000000) scale(0.100000,-0.100000)"
fill="#16364b" stroke="none">
<path d="M2346 5379 c-25 -29 -26 -37 -26 -140 0 -150 -17 -287 -47 -383 -49
-158 -109 -241 -223 -309 -30 -18 -61 -46 -68 -61 -30 -61 15 -136 82 -136 39
0 135 56 194 113 83 80 182 282 223 454 18 76 21 111 17 266 l-3 179 -28 24
c-41 35 -88 32 -121 -7z"/>
<path d="M3537 5319 c-21 -12 -57 -80 -57 -108 0 -38 41 -131 85 -190 104
-141 246 -174 290 -67 24 57 -12 149 -104 263 -66 82 -166 130 -214 102z"/>
<path d="M3002 5099 c-50 -25 -102 -85 -133 -154 -29 -67 -32 -168 -5 -208 51
-75 152 -74 261 4 31 23 51 48 71 93 71 156 22 286 -108 286 -24 0 -62 -10
-86 -21z m51 -201 c-20 -35 -43 -48 -43 -25 0 21 53 83 58 68 2 -6 -5 -25 -15
-43z"/>
<path d="M4769 4765 c-46 -25 -51 -56 -47 -267 3 -168 7 -201 26 -256 47 -132
121 -199 207 -189 85 9 139 71 158 180 24 145 -43 323 -172 459 -83 86 -121
102 -172 73z"/>
<path d="M2672 4212 c-146 -52 -187 -195 -86 -296 16 -16 58 -43 94 -60 60
-29 73 -31 171 -31 101 0 108 1 180 37 40 21 89 50 107 65 63 53 72 148 19
200 -35 35 -237 93 -347 99 -67 4 -96 1 -138 -14z"/>
<path d="M1120 4103 c-21 -19 -33 -39 -34 -60 -2 -17 -13 -43 -24 -58 -74 -93
63 -295 199 -295 82 0 161 46 196 114 21 40 21 123 1 161 -42 79 -160 155
-254 163 -46 4 -55 1 -84 -25z"/>
<path d="M5205 3896 c-68 -22 -101 -43 -148 -96 -115 -127 -107 -315 18 -449
80 -85 189 -117 305 -87 198 51 319 229 274 403 -19 75 -63 130 -149 189 l-70
49 -95 2 c-58 2 -111 -3 -135 -11z m141 -291 c9 -21 -15 -47 -40 -43 -15 2
-22 12 -24 31 -3 24 0 27 28 27 18 0 33 -6 36 -15z"/>
<path d="M4207 3759 c-96 -23 -182 -94 -225 -188 -66 -143 -13 -301 126 -372
69 -35 185 -34 264 4 74 36 149 118 178 195 31 79 39 226 16 270 -38 74 -227
122 -359 91z m83 -273 c0 -14 -36 -46 -52 -46 -17 0 -7 30 14 44 28 20 38 20
38 2z"/>
<path d="M3480 3383 c-44 -16 -97 -87 -164 -220 -53 -106 -58 -148 -21 -183
66 -62 191 34 275 212 39 83 40 130 1 169 -28 28 -57 35 -91 22z"/>
<path d="M1385 3199 c-193 -22 -328 -75 -431 -172 -121 -113 -168 -221 -162
-377 3 -82 7 -104 34 -160 36 -76 99 -144 175 -192 75 -47 120 -65 224 -88
160 -37 228 -80 310 -194 60 -85 110 -189 146 -303 104 -335 185 -450 384
-549 50 -24 124 -52 165 -61 89 -20 274 -22 405 -5 50 7 227 14 395 17 314 4
641 24 812 50 277 41 482 127 662 276 160 133 278 272 331 392 54 123 91 349
80 486 -14 173 -60 274 -172 382 -79 76 -131 113 -229 163 -131 66 -211 88
-329 87 -138 -1 -241 -39 -512 -192 -149 -85 -271 -134 -306 -125 -12 3 -55 1
-96 -5 -142 -20 -320 25 -468 117 -41 25 -132 90 -203 143 -71 53 -157 114
-192 134 -118 70 -294 126 -522 167 -119 22 -348 25 -501 9z m459 -394 c117
-20 251 -65 328 -108 35 -20 144 -92 243 -161 262 -183 445 -267 640 -295 44
-6 102 -16 128 -22 55 -13 124 -6 247 22 191 44 316 97 495 209 146 92 188
110 266 110 56 0 77 -5 135 -35 88 -44 162 -108 185 -159 52 -114 -2 -344
-112 -483 -19 -24 -79 -77 -134 -118 -283 -212 -517 -265 -1175 -265 -262 0
-340 -3 -405 -16 -116 -24 -334 -25 -402 -1 -126 44 -168 106 -258 375 -68
206 -118 310 -197 416 -102 136 -281 252 -448 292 -41 9 -91 21 -110 25 -121
29 -149 126 -50 175 96 49 445 70 624 39z"/>
<path d="M435 2105 c-30 -29 -32 -73 -6 -106 10 -13 34 -56 54 -94 60 -121
163 -216 264 -245 52 -16 87 -7 124 30 24 24 29 37 29 80 0 112 -86 204 -301
323 -80 45 -128 49 -164 12z"/>
<path d="M5144 1291 c-18 -11 -35 -24 -38 -30 -4 -6 -14 -11 -23 -11 -31 0
-72 -41 -84 -83 -23 -86 37 -234 108 -263 65 -28 127 9 157 92 20 59 38 217
27 246 -22 59 -94 83 -147 49z"/>
</g>
</svg>
