<?xml version="1.0" standalone="no"?>
<!DOCTYPE svg PUBLIC "-//W3C//DTD SVG 20010904//EN"
 "http://www.w3.org/TR/2001/REC-SVG-20010904/DTD/svg10.dtd">
<svg version="1.0" xmlns="http://www.w3.org/2000/svg"
 width="600.000000pt" height="600.000000pt" viewBox="0 0 600.000000 600.000000"
 preserveAspectRatio="xMidYMid meet">
<metadata>
Created by potrace 1.15, written by Peter Selinger 2001-2017
</metadata>
<g transform="translate(0.000000,600.000000) scale(0.100000,-0.100000)"
fill="#16364b" stroke="none">
<path d="M2405 5420 c-46 -18 -50 -35 -47 -174 9 -387 -81 -609 -292 -716 -75
-38 -96 -60 -96 -103 0 -36 40 -77 76 -77 43 0 171 68 232 124 156 143 233
398 232 775 -1 131 -5 147 -47 169 -25 14 -30 14 -58 2z"/>
<path d="M3509 5289 c-39 -42 -44 -70 -24 -132 59 -182 262 -320 350 -237 37
35 40 71 12 134 -97 211 -256 322 -338 235z"/>
<path d="M2995 5112 c-103 -48 -184 -215 -155 -320 15 -57 59 -92 116 -92 119
0 231 113 250 253 8 54 -21 127 -60 152 -40 26 -104 29 -151 7z m55 -187 c-11
-34 -54 -74 -66 -62 -7 7 24 67 49 95 26 28 33 15 17 -33z"/>
<path d="M4794 4752 c-12 -2 -32 -14 -45 -28 -23 -25 -24 -30 -23 -202 1 -245
28 -350 108 -420 66 -58 157 -52 215 13 71 81 68 243 -9 395 -28 55 -140 213
-161 226 -18 11 -64 20 -85 16z"/>
<path d="M2710 4230 c-59 -12 -85 -27 -118 -64 -40 -46 -47 -76 -32 -132 16
-56 63 -104 138 -141 52 -26 66 -28 173 -28 116 0 117 0 195 40 113 58 143
109 110 190 -16 37 -49 63 -98 76 -18 4 -71 19 -118 32 -97 27 -198 38 -250
27z"/>
<path d="M1136 4129 c-43 -34 -59 -83 -60 -184 -1 -100 12 -134 63 -178 73
-61 196 -35 266 57 76 100 19 222 -139 297 -73 34 -95 36 -130 8z"/>
<path d="M5310 3989 c-122 -21 -229 -101 -278 -207 -36 -80 -36 -184 2 -264
31 -66 111 -144 183 -179 62 -30 161 -37 234 -15 142 42 239 188 239 362 0 80
-23 143 -71 198 -80 90 -184 126 -309 105z m79 -308 c20 -13 6 -39 -24 -47
-31 -8 -31 -7 -40 29 -7 25 -5 27 21 27 16 0 35 -4 43 -9z"/>
<path d="M4214 3757 c-65 -17 -111 -46 -162 -101 -61 -66 -84 -119 -90 -204
-8 -126 43 -219 152 -272 61 -30 71 -32 143 -28 133 8 228 70 285 185 27 56
33 79 36 157 5 111 -8 166 -48 199 -69 58 -219 88 -316 64z m96 -287 c0 -15
-38 -50 -55 -50 -20 0 -19 19 2 42 17 19 53 25 53 8z"/>
<path d="M3453 3377 c-34 -19 -60 -58 -123 -189 -35 -73 -60 -136 -60 -155 0
-39 30 -73 63 -73 88 0 258 246 244 353 -9 63 -69 95 -124 64z"/>
<path d="M1185 3304 c-146 -15 -292 -70 -374 -140 -60 -52 -109 -132 -128
-211 -38 -151 33 -318 182 -430 102 -77 184 -106 352 -122 110 -12 166 -34
214 -88 77 -85 108 -158 194 -451 83 -284 120 -358 254 -496 113 -117 213
-177 391 -234 117 -38 227 -51 475 -57 132 -3 350 -10 485 -17 381 -17 555 -3
965 78 240 47 390 91 497 145 77 39 208 125 265 173 118 103 226 350 253 583
20 173 -14 362 -97 533 -39 82 -59 108 -142 191 -138 137 -244 195 -408 224
-107 19 -162 19 -288 0 -223 -34 -430 -120 -625 -259 -199 -143 -252 -165
-391 -166 -160 0 -297 65 -704 339 -314 211 -445 284 -594 332 -179 58 -264
70 -511 74 -124 1 -243 1 -265 -1z m620 -423 c106 -28 215 -84 355 -180 486
-333 652 -434 794 -480 130 -43 210 -54 344 -48 205 8 319 56 564 238 199 147
355 209 522 209 132 -1 225 -41 334 -144 81 -76 113 -172 113 -337 -1 -172
-55 -313 -152 -391 -129 -104 -299 -172 -644 -260 -90 -23 -91 -23 -805 -22
-744 1 -806 4 -914 45 -64 23 -146 93 -181 154 -38 64 -72 153 -100 262 -62
236 -141 428 -230 563 -87 131 -228 238 -366 276 -30 8 -110 18 -179 21 -94 4
-134 10 -162 25 -45 22 -49 44 -10 59 105 41 575 48 717 10z"/>
<path d="M451 2054 c-38 -32 -41 -75 -8 -108 13 -13 36 -45 51 -71 83 -141
226 -206 297 -136 81 82 -2 206 -208 310 -76 38 -93 38 -132 5z"/>
<path d="M5367 1140 c-42 -13 -58 -29 -83 -86 -38 -85 -36 -159 5 -203 23 -25
37 -31 69 -31 81 0 131 75 132 197 0 61 -4 76 -22 97 -27 29 -61 38 -101 26z"/>
</g>
</svg>
