<?xml version="1.0" standalone="no"?>
<!DOCTYPE svg PUBLIC "-//W3C//DTD SVG 20010904//EN"
 "http://www.w3.org/TR/2001/REC-SVG-20010904/DTD/svg10.dtd">
<svg version="1.0" xmlns="http://www.w3.org/2000/svg"
 width="600.000000pt" height="600.000000pt" viewBox="0 0 600.000000 600.000000"
 preserveAspectRatio="xMidYMid meet">
<metadata>
Created by potrace 1.15, written by Peter Selinger 2001-2017
</metadata>
<g transform="translate(0.000000,600.000000) scale(0.100000,-0.100000)"
fill="#16364b" stroke="none">
<path d="M3114 5666 c-81 -36 -116 -157 -68 -233 8 -13 60 -53 117 -89 174
-113 305 -231 347 -313 26 -53 25 -66 -10 -127 -31 -55 -82 -103 -168 -160
-52 -35 -193 -108 -196 -102 -29 63 -47 86 -81 105 -63 36 -99 30 -232 -36
-198 -100 -278 -192 -278 -321 0 -164 146 -310 310 -310 71 0 107 20 142 77
57 95 -1 223 -102 223 -14 0 -25 4 -25 9 0 16 113 92 157 105 18 6 22 2 28
-23 13 -62 105 -113 172 -96 44 11 246 109 299 146 132 90 247 236 285 361 57
187 -14 339 -246 522 -155 123 -327 248 -361 262 -41 17 -50 17 -90 0z"/>
<path d="M1969 5530 c-22 -11 -49 -40 -66 -67 -26 -41 -122 -153 -264 -308
-66 -71 -119 -142 -139 -186 -51 -114 -2 -237 118 -296 54 -27 64 -28 187 -27
96 0 152 6 215 22 129 31 297 80 317 90 117 63 96 246 -32 281 -33 9 -54 6
-135 -16 -124 -34 -253 -63 -258 -58 -3 2 27 38 66 80 141 154 212 272 212
354 0 115 -118 185 -221 131z"/>
<path d="M1079 5336 c-73 -28 -124 -60 -175 -108 -203 -192 -238 -518 -82
-765 91 -144 196 -177 284 -89 66 66 65 154 -1 237 -75 95 -96 220 -51 314 29
62 52 84 141 132 105 58 135 116 101 198 -29 69 -140 110 -217 81z"/>
<path d="M4660 4799 c-81 -34 -126 -138 -84 -197 14 -20 14 -24 0 -44 -66 -94
91 -312 267 -372 135 -46 287 20 362 155 36 65 40 153 12 207 -45 84 -169 161
-357 222 -110 36 -165 44 -200 29z"/>
<path d="M1885 4339 c-130 -19 -259 -80 -355 -166 -73 -67 -90 -97 -90 -161 0
-85 73 -162 152 -162 51 0 70 11 150 85 74 71 161 111 213 100 16 -3 55 -8 85
-11 47 -5 60 -2 89 18 69 47 95 150 55 219 -36 62 -172 97 -299 78z"/>
<path d="M2565 3780 c-84 -12 -186 -39 -213 -56 -61 -40 -80 -139 -42 -214 38
-74 102 -94 215 -65 73 18 187 32 223 27 15 -2 22 -10 22 -26 0 -32 -72 -176
-127 -254 -75 -107 -222 -303 -268 -357 -73 -87 -95 -125 -95 -166 0 -93 80
-169 176 -169 68 0 92 20 186 154 40 55 121 168 181 250 127 175 181 264 218
361 92 240 37 425 -147 495 -67 25 -225 35 -329 20z"/>
<path d="M4163 3760 c-132 -19 -231 -85 -273 -182 -26 -61 -24 -151 5 -208 31
-59 102 -126 168 -156 52 -24 75 -29 142 -29 67 0 89 4 137 28 146 72 274 306
214 392 -7 11 -19 37 -25 58 -20 61 -64 86 -168 97 -99 11 -126 11 -200 0z"/>
<path d="M1181 3639 c-71 -11 -156 -42 -271 -99 -84 -42 -112 -68 -135 -122
-61 -148 100 -322 246 -265 29 12 39 12 39 3 0 -26 -92 -262 -163 -418 -114
-252 -175 -450 -162 -535 8 -58 57 -120 111 -144 50 -23 167 -29 199 -12 19
11 188 181 405 408 58 61 152 166 210 235 70 84 106 119 108 108 6 -30 -47
-318 -92 -503 -24 -99 -65 -285 -90 -413 -39 -194 -45 -239 -36 -270 10 -38
46 -80 87 -101 58 -29 162 1 196 58 17 29 49 162 92 381 14 74 44 210 65 301
53 226 68 322 80 539 12 197 6 279 -26 345 -36 76 -115 114 -201 95 -102 -23
-179 -88 -368 -310 -71 -82 -130 -149 -131 -147 -2 2 17 52 42 113 25 60 68
175 95 257 41 121 51 160 51 220 2 196 -139 307 -351 276z"/>
<path d="M3597 3329 c-124 -19 -218 -125 -267 -300 -35 -128 -22 -200 43 -239
42 -26 119 -26 172 0 22 11 50 19 61 20 43 0 160 43 210 76 127 84 156 223 72
340 -54 76 -177 119 -291 103z"/>
<path d="M4755 2866 c-96 -44 -165 -156 -165 -268 0 -55 36 -157 75 -215 60
-89 166 -144 248 -129 41 8 100 54 122 95 37 73 25 207 -24 264 -23 26 -27 39
-23 70 10 84 -33 163 -105 193 -45 19 -70 17 -128 -10z"/>
<path d="M2962 2509 c-142 -17 -547 -176 -612 -240 -124 -122 -28 -335 150
-333 46 1 76 11 190 66 158 77 269 122 278 113 9 -9 -63 -204 -159 -432 -42
-100 -49 -157 -25 -215 37 -88 139 -141 226 -118 80 22 105 58 175 254 24 67
73 193 110 279 80 190 102 284 86 365 -16 81 -46 136 -102 186 -77 69 -175 92
-317 75z"/>
<path d="M4400 2368 c-19 -5 -51 -22 -71 -36 -82 -59 -104 -131 -82 -271 8
-46 12 -85 11 -87 -2 -1 -47 10 -101 26 -245 73 -396 56 -510 -56 -26 -25 -59
-71 -74 -102 -25 -51 -28 -67 -28 -162 0 -93 18 -293 45 -494 6 -50 17 -81 37
-110 91 -130 307 -123 381 12 29 52 30 94 7 290 -10 84 -16 155 -13 157 6 6
113 -34 175 -64 28 -14 61 -21 100 -21 241 0 396 114 435 319 21 111 -11 400
-53 482 -25 51 -92 105 -144 118 -51 13 -68 13 -115 -1z"/>
<path d="M2116 1856 c-77 -29 -127 -97 -127 -174 -1 -61 14 -99 56 -142 28
-29 39 -56 69 -170 20 -74 49 -171 65 -215 16 -44 34 -113 40 -154 16 -104 49
-165 148 -276 110 -123 188 -177 373 -259 180 -79 224 -90 350 -84 88 4 105 9
182 46 104 50 151 99 167 170 24 113 -31 216 -130 242 -47 13 -77 6 -155 -37
-75 -41 -106 -41 -200 -2 -66 27 -74 34 -74 57 0 43 -18 96 -44 133 -14 19
-41 62 -61 97 -48 82 -131 165 -188 187 -25 9 -47 24 -50 34 -3 9 -24 86 -46
171 -23 85 -53 179 -67 210 -61 134 -197 207 -308 166z"/>
</g>
</svg>
