<?xml version="1.0" standalone="no"?>
<!DOCTYPE svg PUBLIC "-//W3C//DTD SVG 20010904//EN"
 "http://www.w3.org/TR/2001/REC-SVG-20010904/DTD/svg10.dtd">
<svg version="1.0" xmlns="http://www.w3.org/2000/svg"
 width="600.000000pt" height="600.000000pt" viewBox="0 0 600.000000 600.000000"
 preserveAspectRatio="xMidYMid meet">
<metadata>
Created by potrace 1.15, written by Peter Selinger 2001-2017
</metadata>
<g transform="translate(0.000000,600.000000) scale(0.100000,-0.100000)"
fill="#16364b" stroke="none">
<path d="M1570 5789 c-14 -4 -61 -24 -105 -44 -44 -20 -132 -57 -195 -81 -212
-82 -234 -95 -245 -144 -23 -106 93 -140 416 -120 204 13 248 22 276 55 50 57
8 155 -67 155 l-32 0 31 31 c69 68 12 174 -79 148z"/>
<path d="M2365 5418 c-38 -22 -42 -40 -49 -215 -17 -415 -88 -601 -262 -683
-86 -40 -107 -88 -64 -143 35 -44 72 -44 159 -1 149 73 251 220 305 435 42
164 60 480 33 559 -18 52 -76 74 -122 48z"/>
<path d="M3500 5278 c-29 -47 -33 -70 -21 -115 24 -89 120 -202 209 -247 72
-37 154 -13 170 48 18 66 -22 155 -112 253 -59 65 -112 92 -179 93 -43 0 -49
-3 -67 -32z"/>
<path d="M2992 5115 c-101 -44 -171 -151 -179 -272 -5 -81 15 -126 68 -155 63
-34 128 -20 220 48 98 72 148 251 92 330 -42 59 -129 80 -201 49z m37 -202
c-12 -32 -28 -53 -40 -53 -16 0 -10 18 17 49 32 38 36 39 23 4z"/>
<path d="M4759 4767 c-51 -35 -59 -58 -59 -190 0 -214 57 -410 139 -478 95
-78 212 -50 274 65 19 35 22 57 22 146 0 101 -2 108 -37 183 -47 98 -110 187
-176 250 -43 39 -57 47 -90 47 -24 0 -52 -9 -73 -23z"/>
<path d="M2643 4214 c-51 -18 -98 -69 -114 -124 -10 -34 -10 -49 4 -93 23 -72
66 -120 142 -158 54 -26 76 -31 137 -32 105 0 212 38 305 111 70 55 83 128 33
185 -24 28 -49 41 -131 66 -187 60 -297 73 -376 45z"/>
<path d="M1115 4122 c-40 -25 -58 -62 -53 -108 4 -34 0 -42 -34 -75 -33 -31
-38 -42 -38 -79 0 -40 5 -49 53 -95 104 -101 240 -136 347 -88 56 24 107 81
116 128 25 134 -49 230 -236 306 -84 34 -114 36 -155 11z"/>
<path d="M5230 3859 c-67 -13 -144 -55 -185 -101 -55 -60 -78 -120 -83 -213
-5 -104 19 -173 89 -249 66 -72 129 -100 229 -100 93 1 144 15 207 57 120 82
172 276 111 408 -28 58 -59 95 -126 147 -78 61 -133 72 -242 51z m89 -298 c21
-13 -4 -51 -34 -51 -20 0 -25 5 -25 23 0 13 3 27 7 30 9 10 35 8 52 -2z"/>
<path d="M4188 3746 c-148 -53 -234 -167 -232 -311 0 -84 24 -136 83 -187 59
-50 126 -71 219 -66 93 4 156 32 220 96 69 68 95 137 100 260 l4 102 -39 39
c-69 69 -252 104 -355 67z m132 -253 c0 -14 -34 -43 -52 -43 -25 0 -23 16 4
34 23 16 48 21 48 9z"/>
<path d="M3428 3364 c-36 -19 -77 -80 -138 -206 -57 -115 -58 -136 -9 -180 41
-38 83 -37 145 5 84 55 154 187 154 288 0 43 -5 55 -29 80 -33 33 -78 38 -123
13z"/>
<path d="M1575 3150 c-276 -29 -457 -100 -580 -224 -228 -232 -170 -584 128
-777 32 -21 112 -59 178 -84 208 -81 285 -165 373 -410 20 -55 50 -129 67
-165 95 -200 257 -338 456 -391 112 -30 348 -37 502 -16 130 19 429 43 626 52
257 12 471 69 730 194 139 67 253 150 381 276 101 100 137 149 194 263 66 131
92 238 93 372 0 175 -42 287 -161 430 -97 116 -200 196 -300 233 -45 17 -80
22 -167 22 -134 0 -198 -19 -336 -102 -213 -127 -267 -143 -484 -148 -285 -7
-384 25 -680 215 -226 146 -324 188 -547 235 -138 29 -336 40 -473 25z m434
-406 c121 -30 206 -72 351 -174 63 -44 154 -101 203 -126 112 -58 300 -119
441 -144 61 -11 130 -25 153 -32 78 -22 415 37 572 101 37 15 122 60 188 100
141 84 172 92 233 61 55 -28 154 -121 174 -165 45 -95 -12 -332 -111 -462 -35
-46 -187 -151 -298 -206 -156 -78 -295 -115 -523 -142 -126 -14 -393 -34 -547
-40 -44 -2 -118 -12 -165 -24 -138 -33 -259 -44 -343 -31 -167 25 -221 83
-321 343 -137 355 -271 510 -506 586 -36 11 -92 28 -125 37 -81 23 -135 75
-135 130 0 49 27 95 72 122 40 25 233 77 335 91 97 14 241 3 352 -25z"/>
<path d="M441 2104 c-46 -38 -41 -72 26 -205 96 -189 199 -279 318 -279 99 0
155 47 155 132 0 80 -49 156 -153 234 -75 57 -250 144 -288 144 -15 0 -41 -12
-58 -26z"/>
<path d="M5017 1390 c-22 -19 -46 -30 -64 -30 -89 0 -129 -116 -84 -245 27
-76 57 -114 109 -137 87 -39 159 1 191 105 22 71 36 220 26 266 -15 71 -118
94 -178 41z"/>
</g>
</svg>
