<?xml version="1.0" standalone="no"?>
<!DOCTYPE svg PUBLIC "-//W3C//DTD SVG 20010904//EN"
 "http://www.w3.org/TR/2001/REC-SVG-20010904/DTD/svg10.dtd">
<svg version="1.0" xmlns="http://www.w3.org/2000/svg"
 width="600.000000pt" height="600.000000pt" viewBox="0 0 600.000000 600.000000"
 preserveAspectRatio="xMidYMid meet">
<metadata>
Created by potrace 1.15, written by Peter Selinger 2001-2017
</metadata>
<g transform="translate(0.000000,600.000000) scale(0.100000,-0.100000)"
fill="#16364b" stroke="none">
<path d="M3174 5649 c-43 -12 -68 -43 -105 -129 -92 -217 -92 -373 0 -467 58
-60 186 -112 281 -114 80 -1 78 -12 -11 -64 -135 -77 -325 -207 -441 -299 -87
-71 -109 -94 -123 -131 -17 -43 -17 -47 3 -121 14 -49 31 -87 48 -105 40 -41
126 -83 254 -123 63 -19 203 -62 311 -96 107 -33 209 -60 226 -60 63 0 133 77
133 148 0 18 -9 50 -20 72 -26 51 -83 78 -350 164 -113 37 -211 69 -219 72
-28 9 185 151 419 279 237 129 288 177 298 274 6 68 -12 113 -64 161 -77 71
-183 109 -359 130 -155 18 -155 18 -155 51 0 15 11 63 25 106 14 43 25 96 25
118 0 93 -88 160 -176 134z"/>
<path d="M1456 5425 c-114 -41 -317 -223 -408 -365 -107 -167 -198 -437 -198
-590 0 -52 25 -99 73 -134 35 -26 120 -28 158 -3 71 47 499 168 499 141 0 -4
-43 -94 -95 -199 -98 -200 -150 -322 -165 -390 -5 -22 -16 -59 -24 -83 -21
-55 -9 -106 34 -147 23 -22 41 -29 84 -33 54 -4 60 -2 322 129 174 86 280 145
305 169 37 35 39 40 39 96 0 145 -131 209 -264 129 -32 -20 -60 -34 -63 -31
-2 2 25 64 61 138 93 188 111 269 81 360 -32 93 -128 154 -263 167 -94 9 -249
-2 -333 -23 -34 -9 -64 -14 -66 -12 -10 10 21 79 66 148 58 89 147 171 241
223 84 46 111 80 118 144 11 118 -95 206 -202 166z"/>
<path d="M4680 4458 c-124 -28 -392 -107 -414 -122 -56 -36 -77 -133 -39 -184
58 -78 117 -87 292 -42 68 17 126 29 129 26 11 -11 -96 -173 -252 -381 -96
-129 -121 -180 -110 -229 8 -39 49 -95 77 -105 18 -7 21 -15 19 -49 -4 -46 25
-110 58 -130 11 -7 92 -36 178 -63 171 -55 252 -87 252 -99 0 -4 -22 -41 -48
-81 -232 -357 -258 -417 -210 -489 27 -40 98 -80 144 -80 60 0 92 36 232 255
74 116 148 239 165 275 59 122 45 239 -36 317 -76 72 -153 108 -365 169 -68
19 -134 39 -147 44 -23 9 -21 12 73 139 53 71 131 187 173 258 162 272 188
362 134 470 -38 76 -90 107 -185 110 -41 1 -95 -3 -120 -9z"/>
<path d="M3813 3651 c-41 -26 -63 -69 -63 -123 0 -56 21 -85 132 -183 49 -42
90 -86 92 -98 3 -12 7 -38 11 -58 l5 -36 -57 19 c-44 15 -78 19 -148 16 -78
-3 -100 -7 -157 -36 -112 -55 -222 -196 -235 -301 -11 -92 86 -181 182 -167
52 8 98 43 124 95 33 63 51 74 105 60 59 -15 151 -8 199 15 67 33 100 114 78
192 l-9 31 54 -1 c93 -1 149 66 149 179 -1 82 -28 134 -127 242 -141 153 -254
205 -335 154z"/>
<path d="M2473 3611 c-78 -19 -248 -97 -300 -137 -112 -85 -74 -259 60 -279
42 -7 56 -3 154 43 113 53 170 72 216 72 25 0 27 -2 27 -46 0 -94 -96 -310
-264 -591 -84 -142 -89 -155 -76 -204 15 -55 54 -97 103 -110 23 -6 59 -18 80
-25 65 -24 113 -17 305 47 101 33 187 58 190 55 7 -8 -46 -147 -120 -315 -57
-128 -60 -137 -56 -201 4 -76 34 -127 91 -157 66 -34 168 -12 225 49 26 28
174 369 229 528 32 90 37 118 38 195 0 77 -4 97 -25 138 -76 150 -258 197
-510 132 -30 -8 -55 -13 -57 -11 -2 1 23 59 56 127 79 166 105 253 104 354 0
101 -27 176 -89 244 -90 100 -224 132 -381 92z"/>
<path d="M1102 3420 c-93 -20 -328 -174 -372 -244 -30 -49 -36 -122 -16 -183
39 -117 172 -176 276 -123 22 11 40 18 40 15 0 -4 -27 -130 -60 -282 -111
-510 -115 -670 -18 -770 34 -35 56 -45 140 -64 66 -14 118 -4 156 31 12 11 64
80 116 153 51 72 157 214 234 314 77 100 162 217 188 259 l47 76 15 -28 c24
-46 10 -203 -33 -364 -95 -361 -119 -502 -113 -665 5 -131 19 -174 75 -227 53
-51 111 -60 179 -29 80 37 112 147 65 227 -12 19 -21 52 -21 72 0 20 20 127
45 237 114 501 133 669 94 831 -5 21 -16 90 -24 151 -16 128 -38 187 -84 226
-74 62 -170 56 -261 -17 -75 -58 -145 -147 -299 -379 -73 -110 -134 -197 -136
-195 -4 5 40 230 82 413 62 275 56 365 -32 463 -76 85 -182 123 -283 102z"/>
<path d="M4620 2214 c-68 -30 -117 -95 -129 -172 -5 -39 -10 -47 -26 -45 -11
1 -90 9 -175 19 -282 30 -421 -3 -544 -132 -89 -92 -121 -184 -137 -394 -6
-74 -12 -136 -14 -138 -2 -2 -32 20 -67 50 -154 130 -241 171 -368 172 -72 1
-94 -3 -140 -25 -107 -50 -206 -165 -300 -347 -28 -54 -46 -79 -50 -70 -4 7
-12 69 -19 137 -21 212 -80 398 -147 465 -107 105 -263 78 -319 -56 -23 -55
-18 -121 14 -217 16 -47 41 -160 56 -251 39 -250 62 -362 90 -437 62 -167 207
-278 375 -290 79 -5 128 19 174 84 24 35 30 56 36 125 6 66 16 102 49 178 56
124 126 259 155 295 23 28 25 29 52 15 16 -8 93 -77 171 -153 169 -164 216
-191 328 -191 52 0 82 6 117 23 56 27 120 86 144 133 9 18 28 46 41 62 47 57
78 175 97 371 l11 120 43 3 c24 2 105 -8 180 -22 191 -35 248 -40 316 -27 172
32 286 143 317 306 15 78 5 213 -19 268 -53 119 -204 188 -312 141z"/>
</g>
</svg>
