<?xml version="1.0" standalone="no"?>
<!DOCTYPE svg PUBLIC "-//W3C//DTD SVG 20010904//EN"
 "http://www.w3.org/TR/2001/REC-SVG-20010904/DTD/svg10.dtd">
<svg version="1.0" xmlns="http://www.w3.org/2000/svg"
 width="600.000000pt" height="600.000000pt" viewBox="0 0 600.000000 600.000000"
 preserveAspectRatio="xMidYMid meet">
<metadata>
Created by potrace 1.15, written by Peter Selinger 2001-2017
</metadata>
<g transform="translate(0.000000,600.000000) scale(0.100000,-0.100000)"
fill="#16364b" stroke="none">
<path d="M2880 5563 c-33 -23 -43 -35 -96 -123 -111 -187 -111 -345 2 -452 61
-57 115 -71 279 -70 l140 1 -35 -27 c-118 -92 -504 -475 -537 -535 -15 -27
-16 -87 -3 -122 5 -14 31 -47 57 -73 41 -40 60 -50 128 -69 79 -22 261 -56
467 -88 59 -9 143 -25 185 -36 120 -32 186 -16 227 53 22 36 20 106 -4 145
-36 59 -92 76 -425 128 -127 20 -234 41 -240 47 -15 14 150 169 297 277 241
178 267 200 295 248 54 93 31 204 -56 270 -76 59 -151 75 -368 81 -143 3 -193
8 -193 17 0 6 18 48 40 93 58 117 53 187 -16 233 -37 24 -110 25 -144 2z"/>
<path d="M1508 5277 c-89 -50 -135 -93 -293 -279 -171 -201 -218 -267 -258
-361 -59 -141 -42 -240 50 -293 52 -31 82 -30 312 10 79 14 175 26 212 26 l68
0 -13 -37 c-8 -21 -35 -83 -61 -138 -79 -169 -98 -224 -91 -276 6 -44 5 -46
-29 -62 -39 -19 -72 -65 -81 -114 -8 -40 28 -118 68 -146 55 -40 108 -34 279
31 225 87 402 169 431 200 73 78 52 210 -38 248 -55 23 -95 17 -194 -31 -51
-25 -97 -44 -101 -43 -5 2 14 51 40 109 68 146 91 226 91 313 -1 190 -137 282
-379 255 -47 -5 -98 -12 -113 -15 -16 -3 -28 -1 -28 4 0 17 165 215 220 265
30 27 70 57 89 67 120 61 127 207 13 282 -45 30 -126 24 -194 -15z"/>
<path d="M4435 4571 c-68 -21 -304 -121 -341 -146 -85 -55 -84 -186 0 -243 57
-39 102 -32 246 37 69 33 138 63 153 66 l28 7 -21 -53 c-37 -93 -123 -249
-214 -389 -108 -164 -120 -190 -110 -243 5 -33 19 -54 68 -102 33 -33 68 -65
76 -72 19 -14 103 -28 255 -43 186 -17 275 -31 275 -44 0 -6 -57 -127 -127
-269 -102 -209 -126 -267 -126 -301 0 -81 63 -146 141 -146 58 0 101 34 140
110 18 36 77 146 131 245 121 221 155 311 149 392 -5 70 -28 121 -77 169 -74
73 -145 96 -371 124 -90 12 -165 22 -166 23 -2 1 10 23 25 47 97 158 231 448
251 544 27 133 -25 244 -137 291 -48 20 -173 18 -248 -4z"/>
<path d="M3730 3668 c-89 -24 -156 -102 -166 -195 -18 -158 202 -252 294 -126
l20 28 7 -28 c11 -44 -1 -105 -33 -166 -29 -55 -30 -56 -108 -82 -98 -32 -142
-55 -220 -112 -75 -55 -124 -126 -124 -179 0 -78 43 -136 119 -159 57 -17 107
2 173 64 82 79 147 105 337 136 73 12 104 29 131 74 25 41 25 92 0 142 -18 36
-19 42 -5 89 20 67 19 209 -2 272 -63 190 -242 292 -423 242z"/>
<path d="M2465 3531 c-255 -59 -383 -109 -410 -161 -35 -67 -2 -163 69 -205
59 -35 114 -33 196 6 100 47 258 99 301 99 38 0 39 -1 39 -36 0 -55 -53 -201
-135 -374 -81 -167 -88 -204 -59 -266 9 -19 26 -41 37 -49 20 -14 20 -14 -5
-34 -14 -11 -35 -44 -48 -73 -28 -65 -23 -123 15 -178 51 -74 140 -96 255 -65
84 24 393 84 402 79 9 -6 -10 -59 -62 -169 -49 -106 -57 -140 -40 -189 26 -79
103 -136 185 -136 108 0 157 49 230 231 68 168 89 256 83 358 -8 130 -71 231
-183 289 -95 49 -269 41 -491 -24 -48 -13 -88 -23 -90 -21 -2 2 41 100 96 218
55 118 107 244 116 279 38 147 12 281 -72 364 -91 91 -211 107 -429 57z"/>
<path d="M1137 3289 c-79 -19 -246 -126 -286 -184 -42 -62 -37 -161 12 -228
41 -55 144 -83 211 -57 34 12 34 10 -3 -171 -54 -262 -64 -356 -58 -549 3
-118 10 -191 21 -225 17 -55 72 -117 119 -134 47 -18 136 -13 182 9 44 21 91
87 293 410 103 165 176 269 233 334 l43 49 12 -34 c19 -51 16 -121 -11 -353
-64 -549 -72 -637 -61 -680 11 -43 73 -105 119 -117 54 -14 119 10 151 57 l23
34 43 -217 c85 -439 187 -666 333 -739 90 -46 238 -43 372 7 76 28 184 137
209 209 30 89 99 230 155 317 50 78 119 153 141 153 23 0 89 -42 180 -115 52
-41 128 -92 169 -112 64 -32 83 -37 145 -38 56 0 83 6 128 27 71 33 143 99
173 158 12 25 33 54 45 65 60 54 79 140 55 251 -9 43 -19 132 -22 196 l-6 117
26 6 c35 9 75 9 257 0 145 -7 159 -6 219 14 190 65 290 231 279 463 -3 73 -8
92 -31 127 -43 64 -97 95 -177 99 -53 3 -75 0 -107 -17 -79 -40 -131 -113
-141 -198 l-5 -43 -181 3 c-203 2 -251 -7 -362 -69 -95 -52 -159 -137 -188
-247 -20 -76 -40 -343 -33 -429 3 -38 3 -68 0 -68 -3 0 -41 27 -85 60 -239
181 -405 182 -633 7 -108 -83 -178 -172 -250 -322 -35 -71 -70 -153 -79 -180
-19 -59 -43 -98 -57 -89 -16 9 -60 105 -90 192 -16 46 -47 170 -70 275 -45
208 -52 228 -99 274 -86 84 -239 54 -289 -57 l-16 -35 -3 33 c-4 40 30 332 69
597 43 287 46 364 20 511 -35 201 -62 253 -156 300 -48 23 -64 26 -115 21 -32
-3 -80 -16 -107 -28 -73 -36 -225 -194 -323 -336 -46 -67 -86 -121 -88 -118
-2 2 11 88 28 192 22 126 33 222 33 293 0 94 -2 111 -28 168 -59 132 -192 196
-338 161z"/>
</g>
</svg>
