<?xml version="1.0" standalone="no"?>
<!DOCTYPE svg PUBLIC "-//W3C//DTD SVG 20010904//EN"
 "http://www.w3.org/TR/2001/REC-SVG-20010904/DTD/svg10.dtd">
<svg version="1.0" xmlns="http://www.w3.org/2000/svg"
 width="600.000000pt" height="600.000000pt" viewBox="0 0 600.000000 600.000000"
 preserveAspectRatio="xMidYMid meet">
<metadata>
Created by potrace 1.15, written by Peter Selinger 2001-2017
</metadata>
<g transform="translate(0.000000,600.000000) scale(0.100000,-0.100000)"
fill="#16364b" stroke="none">
<path d="M1770 5802 c-43 -22 -69 -71 -145 -274 -80 -212 -108 -324 -109 -433
-1 -81 2 -95 26 -137 38 -63 88 -93 158 -93 109 0 228 85 485 344 176 178 195
207 176 279 -22 79 -79 122 -163 122 -53 0 -70 -11 -176 -113 -45 -44 -85 -78
-88 -75 -3 3 16 52 41 108 52 118 57 166 23 217 -45 66 -155 93 -228 55z"/>
<path d="M3030 5707 c-21 -8 -45 -28 -64 -55 -26 -37 -31 -52 -31 -107 0 -78
7 -86 140 -173 187 -121 344 -257 446 -387 41 -53 79 -128 79 -158 0 -22 -5
-25 -58 -31 -68 -8 -115 -33 -142 -78 -56 -92 17 -207 142 -222 112 -14 222
29 284 111 86 113 97 257 32 393 -67 139 -243 348 -397 472 -138 111 -356 250
-388 247 -4 0 -24 -5 -43 -12z"/>
<path d="M930 5425 c-144 -40 -265 -137 -328 -263 -36 -74 -37 -79 -37 -186 0
-91 4 -121 23 -166 30 -77 105 -167 181 -217 51 -35 71 -43 109 -43 58 0 105
31 132 86 39 78 18 149 -59 200 -53 35 -74 69 -74 122 0 78 56 129 156 142 38
4 81 17 101 29 40 25 76 92 76 141 0 47 -34 111 -72 140 -41 30 -129 36 -208
15z"/>
<path d="M2951 5169 c-75 -24 -144 -86 -187 -170 -23 -44 -28 -67 -29 -125 0
-61 4 -77 30 -119 61 -98 183 -129 337 -86 131 36 152 69 146 230 -6 164 -49
241 -151 275 -59 20 -67 20 -146 -5z"/>
<path d="M4792 4889 c-34 -13 -74 -46 -94 -77 -15 -22 -18 -49 -18 -157 0
-225 47 -383 139 -475 68 -67 110 -85 206 -85 90 0 132 15 188 70 156 152 91
449 -136 621 -77 58 -192 114 -232 113 -16 0 -41 -4 -53 -10z"/>
<path d="M1967 4836 c-73 -30 -92 -47 -113 -102 -23 -61 -12 -125 30 -171 27
-29 41 -36 82 -40 35 -4 60 0 82 11 67 34 75 26 87 -87 17 -153 196 -202 276
-75 17 29 20 45 16 123 -7 161 -72 276 -188 334 -82 41 -183 43 -272 7z"/>
<path d="M2858 4066 c-109 -29 -168 -102 -168 -207 0 -69 25 -124 78 -171 53
-48 87 -65 176 -88 109 -28 259 -34 440 -20 192 16 229 30 264 102 29 58 23
113 -16 160 -45 53 -330 179 -495 218 -93 22 -209 25 -279 6z"/>
<path d="M1170 4049 c-131 -16 -174 -28 -214 -61 -21 -17 -45 -46 -52 -64 -18
-43 -18 -118 0 -153 36 -69 131 -119 204 -107 25 4 31 2 24 -7 -5 -7 -45 -57
-88 -112 -86 -107 -245 -326 -338 -465 -70 -103 -149 -263 -172 -346 -15 -56
-15 -65 0 -116 8 -30 25 -67 38 -83 24 -31 90 -64 129 -65 43 0 125 47 153 90
26 40 122 117 261 210 44 30 152 108 240 174 217 163 294 216 310 210 35 -14
21 -162 -30 -309 -25 -73 -198 -430 -283 -585 -48 -87 -126 -204 -177 -265
-56 -67 -65 -85 -65 -141 0 -61 31 -111 84 -135 111 -50 172 -6 345 254 79
118 148 243 288 517 97 190 143 310 177 465 19 81 22 298 5 374 -31 147 -150
217 -309 180 -55 -12 -173 -68 -258 -122 -35 -22 -65 -38 -67 -36 -2 2 35 49
82 104 146 169 183 242 183 359 0 54 -42 139 -85 172 -82 62 -216 84 -385 63z"/>
<path d="M4178 3761 c-215 -71 -315 -271 -221 -443 59 -108 163 -163 293 -155
107 6 178 37 254 108 71 66 114 138 145 247 27 90 21 131 -27 183 -47 53 -107
70 -262 75 -104 4 -135 1 -182 -15z m112 -277 c0 -12 -35 -33 -55 -33 -19 0
-19 1 4 19 22 19 51 27 51 14z"/>
<path d="M3390 3399 c-64 -26 -115 -84 -178 -201 -62 -117 -64 -162 -10 -224
39 -44 79 -61 167 -70 95 -9 131 0 182 45 84 74 126 209 96 312 -34 114 -154
179 -257 138z"/>
<path d="M5038 3156 c-50 -18 -160 -107 -218 -177 -187 -225 -148 -496 76
-533 78 -13 201 33 278 105 91 83 148 249 126 364 -7 33 -21 78 -32 100 -27
52 -105 132 -137 140 -15 3 -33 8 -41 10 -8 2 -32 -2 -52 -9z"/>
<path d="M3878 2638 c-47 -12 -113 -69 -138 -119 -33 -63 -26 -134 24 -289 25
-74 43 -136 41 -138 -2 -3 -25 3 -51 12 -68 23 -158 21 -211 -5 -97 -47 -153
-154 -154 -297 l0 -87 -20 51 c-61 158 -232 232 -414 179 -61 -17 -350 -137
-437 -181 -26 -13 -51 -24 -56 -24 -4 0 -13 33 -20 73 -43 254 -107 374 -230
434 -110 54 -255 29 -358 -61 -67 -59 -204 -265 -204 -308 0 -7 -12 -24 -25
-37 -104 -98 -196 -415 -196 -679 0 -143 12 -216 51 -323 90 -247 344 -462
637 -541 105 -28 296 -30 402 -5 214 51 354 139 459 287 25 36 61 83 80 105
107 127 322 689 339 883 l6 74 42 -118 c90 -258 128 -345 173 -395 124 -138
336 -89 389 90 15 54 12 98 -12 153 -7 17 -4 17 35 3 117 -41 278 15 349 122
84 126 63 257 -114 733 -40 107 -80 219 -90 249 -12 38 -32 69 -65 102 -65 65
-136 83 -232 57z m-1814 -865 c11 -51 36 -228 36 -254 0 -52 30 -125 65 -161
48 -47 148 -98 196 -98 25 0 62 13 111 40 202 111 430 218 502 236 23 5 28 4
24 -7 -3 -8 -18 -54 -33 -104 -64 -212 -180 -468 -235 -520 -17 -16 -40 -46
-50 -66 -52 -101 -215 -179 -375 -179 -135 0 -258 55 -371 165 -93 91 -114
143 -122 302 -5 118 7 230 35 318 20 63 107 232 137 265 13 14 32 40 42 58 22
39 31 40 38 5z"/>
</g>
</svg>
