<?xml version="1.0" standalone="no"?>
<!DOCTYPE svg PUBLIC "-//W3C//DTD SVG 20010904//EN"
 "http://www.w3.org/TR/2001/REC-SVG-20010904/DTD/svg10.dtd">
<svg version="1.0" xmlns="http://www.w3.org/2000/svg"
 width="600.000000pt" height="600.000000pt" viewBox="0 0 600.000000 600.000000"
 preserveAspectRatio="xMidYMid meet">
<metadata>
Created by potrace 1.15, written by Peter Selinger 2001-2017
</metadata>
<g transform="translate(0.000000,600.000000) scale(0.100000,-0.100000)"
fill="#16364b" stroke="none">
<path d="M3024 5061 c-70 -42 -134 -151 -134 -226 0 -36 21 -85 40 -95 35 -19
85 -11 128 19 103 76 157 203 117 280 -8 16 -22 31 -30 35 -32 12 -90 6 -121
-13z m96 -81 c0 -44 -33 -102 -81 -144 -55 -46 -79 -48 -79 -3 1 76 75 177
131 177 26 0 29 -4 29 -30z"/>
<path d="M4774 4713 c-23 -16 -34 -54 -34 -120 0 -37 -5 -150 -11 -251 -14
-215 -8 -252 42 -272 45 -19 80 -4 104 45 18 37 20 60 20 292 0 240 -1 253
-21 280 -21 28 -76 42 -100 26z"/>
<path d="M1612 4345 c-85 -43 -124 -108 -124 -206 0 -70 26 -131 88 -208 56
-69 85 -138 124 -291 61 -240 89 -472 91 -729 0 -69 4 -178 9 -241 5 -63 14
-218 20 -345 20 -449 55 -607 176 -797 113 -176 261 -273 477 -309 l78 -13 -8
-66 c-18 -148 4 -290 78 -507 22 -62 39 -121 39 -131 0 -17 -11 -20 -81 -26
-95 -8 -138 -23 -167 -61 -28 -35 -28 -75 -1 -108 58 -75 259 -48 355 48 71
71 75 122 24 270 -78 222 -105 400 -80 518 l12 58 86 -8 c126 -12 371 -9 575
5 98 7 211 10 252 6 75 -7 75 -7 67 -33 -4 -14 -7 -100 -6 -191 1 -184 18
-305 59 -419 38 -105 38 -105 -75 -106 -102 0 -130 -10 -149 -52 -34 -74 22
-142 130 -158 55 -8 159 16 205 47 82 56 101 135 60 254 -41 119 -54 185 -67
364 -11 152 -7 274 9 284 4 2 50 11 102 20 95 16 410 93 505 122 108 34 178
77 266 164 236 233 283 509 137 793 -57 112 -183 240 -283 288 l-70 34 -305 7
c-336 7 -368 11 -550 62 -161 45 -271 85 -395 146 -170 83 -247 140 -415 309
-180 180 -298 325 -390 475 -221 363 -268 428 -432 597 -117 121 -173 151
-292 157 -72 3 -87 1 -134 -23z m183 -144 c22 -10 58 -38 80 -61 22 -24 69
-71 104 -104 85 -82 158 -180 286 -388 161 -260 213 -329 422 -568 146 -167
257 -255 441 -348 230 -117 545 -222 727 -241 98 -11 391 -29 550 -34 85 -3
108 -7 151 -30 132 -68 244 -270 244 -442 0 -142 -53 -268 -155 -370 -97 -97
-135 -112 -515 -212 l-175 -46 -280 -8 c-154 -4 -356 -11 -448 -15 -159 -7
-314 0 -638 26 -196 17 -306 63 -402 170 -59 66 -129 207 -156 317 -27 105
-51 312 -51 433 0 52 -9 187 -20 300 -10 113 -24 329 -29 480 -11 292 -32 447
-86 655 -30 114 -88 245 -131 295 -51 59 -64 83 -64 118 0 82 60 112 145 73z"/>
<path d="M2477 2572 c-37 -41 -2 -112 55 -112 49 0 71 60 38 103 -25 32 -69
36 -93 9z"/>
<path d="M2945 2288 c-42 -24 -46 -58 -10 -93 45 -46 105 -22 105 43 0 49 -50
76 -95 50z"/>
<path d="M2638 4220 c-26 -27 -30 -36 -25 -67 4 -20 16 -46 28 -59 39 -42 333
-144 414 -144 71 0 112 85 68 139 -10 12 -61 37 -113 55 -52 19 -139 51 -193
70 -120 44 -140 45 -179 6z"/>
<path d="M5213 3971 c-105 -36 -178 -110 -204 -205 -18 -66 -6 -183 24 -242
34 -67 107 -138 176 -171 48 -23 69 -27 146 -28 76 0 99 4 146 26 124 58 199
183 199 331 0 119 -60 203 -196 272 -65 33 -77 36 -155 36 -54 -1 -102 -7
-136 -19z m172 -292 c7 -7 3 -16 -14 -30 -13 -10 -27 -19 -32 -19 -14 0 -41
48 -34 61 8 13 63 5 80 -12z"/>
<path d="M4173 3747 c-87 -33 -170 -123 -194 -212 -6 -22 -9 -71 -7 -110 7
-107 57 -190 147 -243 63 -37 172 -38 246 -2 146 72 205 216 155 381 -18 61
-30 82 -69 120 -74 71 -189 98 -278 66z m107 -284 c0 -23 -11 -38 -32 -46 -25
-9 -32 10 -14 38 19 29 46 33 46 8z"/>
<path d="M5305 1096 c-21 -21 -55 -109 -55 -143 0 -7 7 -30 16 -52 37 -94 153
-92 202 5 19 36 25 119 12 158 -14 45 -35 56 -100 56 -40 0 -56 -5 -75 -24z"/>
</g>
</svg>
