<?xml version="1.0" standalone="no"?>
<!DOCTYPE svg PUBLIC "-//W3C//DTD SVG 20010904//EN"
 "http://www.w3.org/TR/2001/REC-SVG-20010904/DTD/svg10.dtd">
<svg version="1.0" xmlns="http://www.w3.org/2000/svg"
 width="600.000000pt" height="600.000000pt" viewBox="0 0 600.000000 600.000000"
 preserveAspectRatio="xMidYMid meet">
<metadata>
Created by potrace 1.15, written by Peter Selinger 2001-2017
</metadata>
<g transform="translate(0.000000,600.000000) scale(0.100000,-0.100000)"
fill="#16364b" stroke="none">
<path d="M1848 5800 c-44 -23 -62 -48 -118 -160 -23 -47 -68 -134 -100 -195
-88 -166 -130 -288 -130 -375 0 -111 39 -169 133 -199 76 -25 197 20 343 127
120 88 375 334 397 383 34 74 -2 166 -77 203 -62 30 -109 12 -218 -82 -49 -42
-93 -79 -99 -80 -5 -2 16 47 47 110 49 100 55 118 51 161 -9 105 -128 160
-229 107z"/>
<path d="M3000 5673 c-41 -21 -77 -71 -86 -119 -5 -25 0 -46 17 -81 21 -42 37
-56 129 -111 268 -161 486 -379 507 -505 7 -43 -7 -53 -86 -66 -35 -6 -74 -17
-88 -26 -85 -56 -83 -195 4 -252 54 -36 211 -15 325 43 183 93 215 254 97 488
-63 123 -134 220 -244 332 -109 110 -150 139 -334 240 -138 75 -185 86 -241
57z"/>
<path d="M981 5414 c-238 -51 -400 -233 -401 -451 -1 -160 74 -293 214 -385
49 -32 68 -38 111 -38 57 0 102 24 137 71 42 57 15 162 -52 202 -56 34 -83 74
-87 129 -7 91 38 140 146 159 108 19 161 77 161 174 0 65 -28 110 -83 135 -49
23 -60 23 -146 4z"/>
<path d="M2890 5108 c-67 -19 -124 -71 -165 -152 -32 -64 -35 -188 -6 -251 43
-95 157 -154 274 -141 90 9 135 26 167 63 30 33 56 106 45 123 -4 6 -10 47
-15 93 -21 206 -140 311 -300 265z"/>
<path d="M4760 4895 c-83 -38 -110 -86 -110 -195 0 -181 78 -374 204 -509 104
-110 263 -124 369 -31 65 57 91 117 91 210 -1 172 -101 340 -264 442 -133 84
-228 110 -290 83z"/>
<path d="M2030 4809 c-76 -12 -179 -66 -207 -108 -45 -67 -42 -149 8 -206 42
-47 90 -59 157 -40 28 9 54 20 57 25 3 6 17 10 30 10 25 0 45 -39 45 -88 0
-41 37 -105 76 -131 26 -18 49 -25 85 -25 60 0 95 23 127 85 20 37 22 53 17
104 -28 268 -177 409 -395 374z"/>
<path d="M1090 4013 c-117 -20 -165 -49 -197 -120 -20 -43 -24 -65 -19 -99 16
-120 103 -197 206 -182 17 3 30 1 30 -3 0 -5 -82 -129 -182 -276 -272 -400
-277 -408 -335 -529 -55 -117 -64 -163 -42 -221 24 -65 109 -123 178 -123 57
0 90 15 141 64 25 24 101 81 170 126 68 46 169 119 224 164 164 134 246 197
346 263 l95 64 3 -55 c3 -61 -16 -146 -79 -341 -49 -155 -105 -270 -207 -425
-123 -187 -249 -405 -256 -442 -10 -55 4 -98 48 -144 51 -53 97 -64 161 -39
62 23 104 76 209 262 49 87 116 203 148 258 118 200 163 314 240 610 40 152
42 167 42 310 1 136 -1 155 -22 200 -59 129 -165 172 -313 129 -57 -16 -223
-100 -274 -138 -38 -29 -55 -38 -55 -32 0 2 46 62 103 133 124 155 140 181
162 257 43 147 -27 285 -166 329 -65 21 -239 21 -359 0z"/>
<path d="M2875 4006 c-118 -37 -195 -120 -195 -209 0 -138 131 -257 335 -304
96 -22 338 -25 397 -4 43 14 95 69 103 109 4 15 17 55 31 90 38 98 29 151 -35
205 -39 33 -171 84 -280 108 -101 22 -294 25 -356 5z"/>
<path d="M4196 3790 c-100 -26 -168 -63 -217 -118 -87 -100 -103 -239 -40
-366 56 -115 158 -180 281 -180 174 0 303 131 405 412 54 147 40 209 -55 250
-58 25 -277 26 -374 2z m68 -314 c-7 -18 -54 -50 -61 -42 -10 10 7 37 29 46
33 13 38 12 32 -4z"/>
<path d="M3417 3396 c-20 -8 -45 -20 -54 -27 -51 -42 -153 -258 -153 -324 0
-52 32 -107 76 -132 56 -30 187 -41 240 -18 83 34 133 118 142 237 9 122 -34
220 -112 258 -49 23 -85 25 -139 6z"/>
<path d="M4980 3082 c-19 -9 -76 -57 -126 -107 -111 -110 -163 -204 -171 -309
-17 -210 176 -330 370 -231 74 37 140 108 180 193 28 59 32 77 32 152 0 103
-20 153 -95 240 -70 80 -121 96 -190 62z"/>
<path d="M3923 2621 c-72 -25 -117 -62 -147 -123 -41 -81 -36 -128 29 -286 36
-90 49 -132 39 -128 -167 64 -299 38 -381 -75 -88 -123 -81 -254 38 -658 64
-218 74 -244 111 -278 27 -26 98 -53 137 -53 52 0 132 31 170 66 59 52 85 122
78 209 -3 38 -9 80 -13 93 l-7 23 44 -23 c95 -49 234 -12 335 90 91 91 120
203 90 350 -16 80 -98 328 -190 577 -54 147 -92 197 -168 220 -66 19 -101 19
-165 -4z"/>
<path d="M1984 2226 c-68 -32 -124 -84 -178 -165 -89 -133 -115 -233 -85 -320
10 -29 8 -34 -24 -70 -47 -52 -108 -143 -146 -218 -47 -94 -64 -179 -64 -318
0 -242 61 -404 208 -550 234 -235 567 -355 832 -301 155 31 317 114 429 218
90 84 117 134 117 210 -1 50 5 70 36 126 88 163 172 368 247 609 33 103 38
131 38 223 1 95 -1 110 -26 155 -66 126 -178 188 -335 187 -127 -2 -268 -50
-465 -158 -64 -35 -119 -64 -122 -64 -2 0 -7 19 -11 43 -10 58 -53 194 -77
240 -76 150 -238 216 -374 153z m1013 -626 c-8 -38 -118 -330 -157 -417 -17
-37 -52 -103 -77 -146 -41 -70 -46 -85 -45 -137 1 -55 -2 -62 -39 -104 -26
-30 -67 -59 -116 -83 -70 -35 -84 -38 -177 -41 -161 -6 -276 41 -401 163 -91
88 -110 142 -110 310 0 125 1 133 31 195 17 36 51 88 76 115 25 28 55 68 66
90 l21 40 1 -38 c0 -53 27 -179 49 -230 35 -82 124 -135 203 -123 88 14 169
85 184 160 6 33 17 40 234 160 93 51 230 115 249 116 10 0 12 -8 8 -30z"/>
</g>
</svg>
