<?xml version="1.0" standalone="no"?>
<!DOCTYPE svg PUBLIC "-//W3C//DTD SVG 20010904//EN"
 "http://www.w3.org/TR/2001/REC-SVG-20010904/DTD/svg10.dtd">
<svg version="1.0" xmlns="http://www.w3.org/2000/svg"
 width="600.000000pt" height="600.000000pt" viewBox="0 0 600.000000 600.000000"
 preserveAspectRatio="xMidYMid meet">
<metadata>
Created by potrace 1.15, written by Peter Selinger 2001-2017
</metadata>
<g transform="translate(0.000000,600.000000) scale(0.100000,-0.100000)"
fill="#16364b" stroke="none">
<path d="M2392 5403 c-31 -12 -40 -57 -35 -163 3 -58 0 -154 -6 -213 -28 -274
-111 -424 -282 -511 -81 -41 -89 -49 -89 -88 0 -28 49 -78 76 -78 40 0 163 77
230 144 152 152 214 361 214 723 l0 152 -26 20 c-26 20 -55 25 -82 14z"/>
<path d="M3522 5284 c-29 -20 -52 -65 -52 -101 0 -79 105 -220 196 -262 66
-31 119 -28 156 10 29 28 30 34 25 85 -10 102 -121 250 -203 273 -55 15 -96
14 -122 -5z"/>
<path d="M2990 5084 c-155 -67 -205 -305 -78 -370 102 -53 245 24 283 150 28
93 14 160 -44 209 -38 32 -103 36 -161 11z m75 -151 c-9 -37 -31 -70 -55 -83
-33 -18 -25 33 11 75 38 42 54 45 44 8z"/>
<path d="M4785 4741 c-48 -20 -59 -47 -63 -149 -7 -181 36 -408 93 -492 72
-105 191 -86 247 38 60 132 18 317 -113 508 -66 94 -107 118 -164 95z"/>
<path d="M2653 4206 c-39 -19 -57 -34 -72 -65 -54 -105 0 -211 137 -274 67
-31 223 -30 303 1 138 55 192 143 139 229 -23 39 -36 46 -140 79 -190 60 -286
67 -367 30z"/>
<path d="M1162 4145 c-71 -31 -119 -231 -75 -315 65 -125 258 -98 324 45 47
101 5 186 -125 254 -65 35 -77 36 -124 16z"/>
<path d="M5306 3990 c-76 -14 -169 -65 -217 -118 -59 -67 -79 -119 -79 -206 0
-95 37 -173 116 -245 75 -69 145 -94 245 -89 98 6 168 39 236 111 69 73 96
147 91 248 -12 205 -184 336 -392 299z m86 -317 c13 -7 -10 -41 -32 -48 -27
-9 -50 11 -50 42 0 24 2 25 37 18 21 -4 41 -9 45 -12z"/>
<path d="M4244 3766 c-178 -41 -277 -153 -278 -316 0 -95 28 -162 93 -223 56
-53 106 -71 184 -70 104 2 221 82 275 189 55 108 76 300 40 356 -37 57 -200
90 -314 64z m52 -301 c-15 -23 -56 -36 -56 -17 1 23 62 69 68 51 2 -5 -3 -21
-12 -34z"/>
<path d="M3467 3375 c-16 -8 -37 -25 -48 -37 -25 -30 -149 -272 -149 -292 0
-27 44 -68 74 -68 82 0 222 185 234 309 4 45 1 55 -21 77 -30 30 -50 32 -90
11z"/>
<path d="M1035 3330 c-201 -29 -333 -143 -364 -316 -46 -254 184 -479 526
-514 157 -16 193 -31 265 -108 84 -90 116 -175 173 -463 63 -321 113 -437 240
-565 64 -65 98 -90 173 -127 112 -56 276 -110 397 -131 146 -26 394 -39 575
-31 91 4 345 10 565 15 392 8 404 9 615 43 235 39 350 69 480 125 255 109 380
211 461 377 139 287 154 556 48 849 -85 236 -253 399 -494 482 -74 26 -92 28
-235 28 -145 0 -162 -2 -255 -31 -178 -55 -333 -131 -549 -271 -194 -126 -317
-163 -467 -142 -172 25 -328 104 -636 322 -271 193 -404 269 -614 353 -127 52
-243 81 -364 94 -133 14 -471 21 -540 11z m370 -375 c110 -9 236 -23 280 -31
223 -45 392 -139 731 -407 244 -192 456 -300 689 -348 92 -19 275 -14 370 10
103 27 239 93 340 166 209 151 288 196 426 242 74 25 98 28 209 28 119 0 128
-1 190 -31 160 -76 244 -209 257 -406 10 -142 -28 -274 -112 -388 -35 -48
-151 -132 -251 -183 -107 -54 -336 -109 -564 -136 -115 -14 -808 -21 -1000
-10 -526 29 -595 37 -694 82 -140 64 -176 134 -290 574 -59 224 -75 273 -130
381 -66 130 -160 225 -296 296 -92 48 -186 75 -322 90 -121 14 -193 39 -193
67 0 18 48 28 110 23 28 -2 140 -11 250 -19z"/>
<path d="M457 2048 c-25 -19 -36 -59 -25 -90 6 -16 14 -28 18 -28 5 0 23 -20
40 -45 91 -132 222 -196 309 -150 44 22 54 71 26 126 -21 39 -119 111 -220
160 -85 41 -120 47 -148 27z"/>
<path d="M5351 1086 c-26 -27 -61 -132 -61 -180 0 -18 10 -48 23 -67 19 -28
30 -35 63 -37 80 -6 133 71 134 194 0 91 -18 114 -89 114 -37 0 -52 -5 -70
-24z"/>
</g>
</svg>
