<?xml version="1.0" standalone="no"?>
<!DOCTYPE svg PUBLIC "-//W3C//DTD SVG 20010904//EN"
 "http://www.w3.org/TR/2001/REC-SVG-20010904/DTD/svg10.dtd">
<svg version="1.0" xmlns="http://www.w3.org/2000/svg"
 width="600.000000pt" height="600.000000pt" viewBox="0 0 600.000000 600.000000"
 preserveAspectRatio="xMidYMid meet">
<metadata>
Created by potrace 1.15, written by Peter Selinger 2001-2017
</metadata>
<g transform="translate(0.000000,600.000000) scale(0.100000,-0.100000)"
fill="#16364b" stroke="none">
<path d="M2155 5430 c-70 -21 -125 -117 -133 -231 -4 -56 -1 -75 18 -114 42
-87 130 -122 320 -130 63 -3 114 -8 113 -12 0 -5 -33 -106 -72 -226 -39 -121
-73 -234 -77 -252 -19 -102 82 -187 185 -157 67 21 89 55 136 219 23 81 61
206 84 276 50 157 54 231 17 306 -55 107 -138 145 -302 139 l-104 -4 0 49 c0
55 -20 97 -59 120 -35 21 -89 28 -126 17z"/>
<path d="M3573 5420 c-17 -4 -46 -16 -63 -26 -89 -52 -93 -195 -9 -255 29 -21
46 -24 118 -24 76 -1 85 -3 103 -25 29 -35 19 -123 -28 -253 -20 -56 -39 -128
-41 -160 -5 -54 -3 -59 29 -91 63 -63 157 -65 217 -4 32 33 101 189 124 283
36 141 30 251 -19 350 -30 59 -93 126 -149 160 -78 45 -199 65 -282 45z"/>
<path d="M1625 4831 c-113 -30 -279 -87 -333 -115 -34 -18 -72 -87 -72 -132 0
-40 38 -113 72 -138 16 -11 49 -21 81 -24 l54 -4 -15 -44 c-24 -73 6 -157 68
-189 17 -9 134 -31 259 -50 126 -19 257 -41 292 -50 122 -32 188 -17 233 53
14 20 28 54 31 74 10 53 -25 122 -74 147 -50 26 -192 55 -416 86 -104 14 -197
28 -205 31 -9 4 20 17 65 31 59 18 114 27 207 31 140 8 160 16 206 83 46 66
10 172 -71 216 -24 13 -62 18 -152 20 -106 3 -133 0 -230 -26z"/>
<path d="M3170 4397 c-234 -106 -657 -310 -673 -325 -74 -67 -58 -186 32 -232
69 -35 86 -31 295 68 55 26 198 92 319 147 232 105 251 119 267 188 12 54 -4
105 -43 145 -51 50 -100 53 -197 9z"/>
<path d="M4240 4402 c-74 -37 -102 -131 -60 -200 33 -54 68 -68 183 -75 116
-8 170 -20 197 -47 29 -29 34 -119 13 -245 -23 -145 -22 -188 3 -221 37 -50
70 -68 124 -68 53 0 87 18 122 65 47 63 78 365 49 484 -19 78 -70 171 -116
214 -87 80 -187 111 -365 111 -90 0 -123 -4 -150 -18z"/>
<path d="M2180 3864 c-109 -36 -290 -66 -436 -73 -175 -9 -208 -21 -243 -95
-27 -54 -26 -81 2 -136 38 -77 64 -85 257 -84 112 0 193 6 254 18 113 22 290
80 337 111 93 60 91 198 -3 255 -39 24 -103 25 -168 4z"/>
<path d="M3670 3782 c-63 -21 -338 -146 -512 -233 -120 -60 -136 -75 -152
-142 -8 -35 8 -97 35 -131 31 -40 95 -69 139 -63 38 5 210 85 348 161 46 26
87 44 91 41 5 -2 11 -18 15 -35 13 -67 104 -120 182 -105 63 11 98 58 124 164
30 122 26 221 -12 278 -48 73 -153 100 -258 65z"/>
<path d="M4925 3379 c-55 -29 -68 -42 -99 -98 -25 -47 -26 -55 -24 -173 3
-146 6 -140 -135 -307 -108 -127 -137 -172 -215 -327 -80 -160 -103 -230 -109
-341 -7 -119 6 -169 64 -233 117 -130 324 -117 393 26 17 35 23 67 25 133 5
153 46 238 197 404 184 202 237 303 246 470 6 109 -13 268 -39 327 -40 91
-113 139 -209 140 -37 0 -68 -7 -95 -21z"/>
<path d="M1996 3188 c-54 -28 -78 -71 -73 -134 4 -59 33 -106 80 -130 19 -10
77 -20 147 -26 63 -5 143 -11 176 -14 l62 -5 6 -42 c15 -94 89 -155 173 -143
92 12 132 71 133 193 0 131 -40 210 -133 263 -71 40 -121 48 -343 53 -173 4
-194 2 -228 -15z"/>
<path d="M4327 3158 c-24 -6 -61 -32 -100 -70 -178 -171 -378 -264 -657 -307
-140 -21 -165 -32 -204 -85 -15 -19 -21 -43 -21 -79 0 -92 62 -147 167 -147
122 0 386 59 517 114 206 89 472 315 495 422 10 44 -18 109 -58 133 -40 25
-92 32 -139 19z"/>
<path d="M1265 2984 c-69 -36 -96 -82 -97 -160 -1 -40 6 -68 25 -104 31 -59
41 -112 62 -320 30 -302 57 -413 144 -595 53 -111 95 -157 161 -175 105 -28
210 47 226 162 6 40 1 57 -34 134 -62 136 -78 218 -117 589 -9 83 -23 182 -32
220 -27 120 -82 209 -154 245 -47 25 -141 27 -184 4z"/>
<path d="M2144 2479 c-112 -21 -260 -125 -326 -228 -51 -82 -29 -185 47 -217
73 -30 148 -11 220 55 24 22 57 46 73 55 35 18 72 21 72 6 0 -21 64 -80 104
-95 58 -22 113 -8 155 40 55 64 53 128 -8 223 -78 120 -214 185 -337 161z"/>
<path d="M3740 2163 c-14 -2 -90 -17 -170 -33 -80 -16 -208 -41 -285 -55 -206
-38 -479 -105 -514 -126 -43 -26 -83 -91 -88 -144 -8 -65 31 -140 94 -182 78
-53 75 -53 760 91 144 31 284 56 311 56 29 0 70 -9 97 -21 91 -40 188 -8 226
75 50 110 -11 247 -140 313 -60 31 -68 33 -164 32 -56 -1 -113 -4 -127 -6z"/>
<path d="M2290 1993 c-26 -14 -44 -37 -70 -88 -35 -69 -35 -70 -35 -200 1
-123 3 -136 38 -240 70 -205 125 -275 214 -275 63 0 109 25 138 75 38 64 33
101 -27 212 -47 87 -52 104 -56 174 -3 57 0 89 12 119 33 84 13 162 -56 213
-38 28 -114 33 -158 10z"/>
<path d="M4670 1630 c-49 -9 -89 -32 -130 -75 -72 -76 -139 -104 -310 -130
-305 -46 -406 -73 -545 -142 -138 -70 -331 -202 -361 -248 -22 -33 -32 -91
-23 -132 3 -18 5 -33 4 -33 -1 0 -20 7 -41 16 -49 20 -127 15 -180 -13 -140
-72 -173 -86 -237 -100 -176 -37 -365 54 -532 256 -96 116 -164 136 -258 75
-79 -52 -111 -188 -66 -282 30 -60 171 -198 272 -266 105 -70 232 -129 340
-158 116 -32 273 -32 377 1 92 28 295 132 348 177 49 42 76 103 67 156 l-7 38
38 -16 c26 -11 58 -15 99 -12 54 3 69 10 153 67 220 148 345 193 712 256 174
30 322 107 450 233 78 76 97 121 79 185 -26 96 -144 165 -249 147z"/>
</g>
</svg>
