<?xml version="1.0" standalone="no"?>
<!DOCTYPE svg PUBLIC "-//W3C//DTD SVG 20010904//EN"
 "http://www.w3.org/TR/2001/REC-SVG-20010904/DTD/svg10.dtd">
<svg version="1.0" xmlns="http://www.w3.org/2000/svg"
 width="600.000000pt" height="600.000000pt" viewBox="0 0 600.000000 600.000000"
 preserveAspectRatio="xMidYMid meet">
<metadata>
Created by potrace 1.15, written by Peter Selinger 2001-2017
</metadata>
<g transform="translate(0.000000,600.000000) scale(0.100000,-0.100000)"
fill="#16364b" stroke="none">
<path d="M2296 5470 c-74 -23 -144 -154 -153 -289 -11 -172 82 -281 242 -281
48 0 219 24 259 36 26 9 20 -6 -61 -135 -135 -214 -253 -475 -253 -558 0 -54
30 -105 76 -131 15 -8 15 -12 -1 -42 -27 -53 -16 -116 28 -157 59 -53 85 -53
317 5 113 28 291 68 395 87 214 40 238 48 265 83 67 85 25 219 -74 237 -38 8
-356 -49 -575 -101 -79 -19 -146 -32 -148 -30 -15 14 118 278 232 461 122 197
155 275 155 367 0 121 -79 203 -215 223 -30 5 -91 0 -180 -15 -75 -12 -138
-20 -140 -18 -3 3 2 26 11 52 14 40 14 55 5 87 -16 53 -65 106 -109 119 -42
11 -37 11 -76 0z"/>
<path d="M3880 5093 c-48 -8 -154 -45 -209 -73 -75 -38 -102 -69 -108 -123
-10 -87 48 -156 139 -165 40 -4 61 1 121 29 41 19 94 35 124 37 50 4 52 3 59
-22 16 -63 -22 -202 -96 -360 -37 -76 -42 -95 -38 -138 4 -41 12 -57 42 -86
34 -35 40 -37 99 -37 82 0 108 18 151 103 114 226 158 495 105 639 -32 85
-106 155 -194 182 -62 19 -133 24 -195 14z"/>
<path d="M1715 4929 c-192 -28 -417 -127 -530 -233 -69 -65 -67 -165 6 -239
21 -22 39 -46 39 -54 0 -7 20 -33 44 -58 32 -31 55 -45 83 -50 325 -51 449
-87 524 -152 76 -67 144 -80 213 -40 54 30 78 78 73 143 -4 61 -22 86 -102
147 -78 59 -185 108 -324 149 -61 18 -111 35 -111 38 0 15 124 44 212 49 76 5
103 10 124 27 45 33 67 70 71 121 9 102 -64 164 -191 162 -39 -1 -98 -5 -131
-10z"/>
<path d="M4330 4223 c-131 -16 -175 -34 -207 -82 -40 -60 -23 -159 34 -196 45
-30 77 -33 194 -19 139 16 271 18 323 3 l38 -11 -5 -81 c-3 -62 -17 -119 -56
-238 -56 -172 -61 -208 -31 -257 56 -92 186 -95 246 -5 23 35 106 317 125 427
40 236 -73 419 -289 465 -70 15 -229 12 -372 -6z"/>
<path d="M2086 3889 c-127 -41 -260 -68 -410 -84 -136 -14 -158 -23 -200 -79
-15 -20 -21 -43 -21 -81 0 -60 19 -94 76 -134 32 -22 40 -23 149 -18 63 4 156
13 205 22 111 20 313 86 382 125 115 66 120 211 9 264 -47 22 -86 19 -190 -15z"/>
<path d="M3685 3726 c-55 -18 -118 -48 -270 -130 -71 -39 -170 -91 -220 -116
-82 -41 -92 -49 -114 -93 -21 -43 -22 -53 -12 -88 14 -48 53 -86 104 -101 52
-16 100 1 326 112 l184 90 -6 -29 c-4 -16 -32 -87 -63 -157 -46 -104 -55 -134
-50 -163 17 -108 148 -167 237 -107 28 19 45 47 87 141 79 176 104 269 106
395 1 92 -2 111 -23 154 -35 72 -94 106 -180 105 -37 0 -84 -6 -106 -13z"/>
<path d="M2375 3304 c-16 -3 -77 -14 -135 -25 -58 -11 -128 -25 -157 -30 -64
-13 -107 -50 -123 -107 -14 -55 0 -109 39 -146 41 -39 96 -43 247 -17 120 21
224 27 224 14 0 -4 -10 -37 -21 -73 -15 -46 -20 -78 -15 -102 28 -150 220
-189 287 -58 29 57 51 157 51 239 1 189 -103 298 -288 306 -44 2 -92 1 -109
-1z"/>
<path d="M4235 3191 c-11 -5 -48 -40 -83 -79 -125 -142 -325 -244 -537 -276
-111 -17 -145 -37 -169 -98 -22 -54 -13 -109 26 -153 39 -46 84 -59 169 -51
256 26 530 151 704 322 90 89 111 128 102 199 -11 100 -123 172 -212 136z"/>
<path d="M4884 3166 c-51 -22 -100 -73 -123 -126 -18 -43 -21 -67 -20 -157 2
-121 17 -99 -137 -208 -179 -126 -267 -231 -313 -374 -85 -261 -8 -558 165
-641 66 -32 184 -26 242 13 65 43 96 97 100 177 4 68 -5 97 -53 180 -20 34
-18 107 4 155 18 42 27 49 192 154 113 72 210 169 244 243 35 77 49 175 41
287 -11 161 -50 237 -147 286 -55 29 -143 33 -195 11z"/>
<path d="M1237 3036 c-142 -53 -170 -238 -49 -323 l40 -28 5 -300 c5 -334 17
-435 67 -564 38 -97 83 -151 151 -181 94 -40 178 -8 224 84 32 64 32 124 0
220 -14 41 -25 84 -25 96 0 21 2 21 35 -8 65 -58 156 -55 215 7 19 20 62 75
96 122 34 47 75 95 92 108 l31 22 16 -38 c9 -21 25 -48 36 -60 l21 -21 -26
-91 c-45 -154 -58 -231 -63 -372 -7 -180 -1 -220 44 -270 44 -48 95 -65 155
-48 49 13 107 67 109 100 1 13 2 101 3 194 2 157 4 179 34 288 39 144 40 182
7 231 -17 25 -25 51 -25 80 0 111 -88 258 -184 308 -56 29 -141 34 -208 14
-110 -35 -239 -158 -360 -344 -23 -34 -43 -61 -45 -58 -2 2 -8 127 -13 277 -9
282 -16 334 -58 414 -58 113 -216 182 -325 141z"/>
<path d="M3425 2254 c-55 -7 -232 -40 -394 -73 -252 -51 -301 -64 -335 -88
-47 -33 -86 -101 -86 -152 0 -56 37 -119 88 -152 60 -38 109 -43 217 -24 159
28 637 95 680 95 37 0 43 -3 58 -35 9 -19 35 -47 58 -62 35 -23 53 -28 105
-28 53 0 69 4 105 30 57 40 82 92 83 169 1 165 -112 293 -288 325 -76 14 -165
13 -291 -5z"/>
<path d="M4515 1591 c-46 -11 -72 -28 -135 -86 -72 -66 -102 -75 -253 -75
-376 0 -571 -81 -851 -351 -78 -76 -108 -98 -135 -103 -20 -3 -71 -30 -116
-61 -89 -62 -152 -85 -235 -85 -113 0 -269 109 -393 273 -65 86 -82 102 -130
122 -134 56 -274 -55 -252 -201 14 -97 216 -338 370 -441 270 -181 502 -194
784 -42 82 44 178 112 199 141 7 10 22 18 33 18 41 0 91 31 159 99 125 126
230 196 332 221 24 6 138 15 253 19 222 9 259 17 353 69 66 37 174 143 206
202 24 45 28 60 24 115 -3 49 -10 70 -31 99 -44 56 -115 83 -182 67z"/>
</g>
</svg>
