<?xml version="1.0" standalone="no"?>
<!DOCTYPE svg PUBLIC "-//W3C//DTD SVG 20010904//EN"
 "http://www.w3.org/TR/2001/REC-SVG-20010904/DTD/svg10.dtd">
<svg version="1.0" xmlns="http://www.w3.org/2000/svg"
 width="600.000000pt" height="600.000000pt" viewBox="0 0 600.000000 600.000000"
 preserveAspectRatio="xMidYMid meet">
<metadata>
Created by potrace 1.15, written by Peter Selinger 2001-2017
</metadata>
<g transform="translate(0.000000,600.000000) scale(0.100000,-0.100000)"
fill="#16364b" stroke="none">
<path d="M3557 5287 c-10 -6 -20 -28 -23 -48 -8 -50 50 -161 126 -240 48 -51
61 -59 92 -59 48 0 68 21 68 72 0 50 -44 135 -106 206 -66 76 -118 98 -157 69z
m130 -163 c23 -32 42 -63 42 -69 0 -14 -70 65 -93 105 -32 55 4 30 51 -36z"/>
<path d="M3008 5071 c-77 -49 -131 -147 -132 -243 -1 -72 27 -108 83 -108 45
0 81 22 148 89 62 63 97 130 97 189 1 37 -4 48 -32 73 -44 40 -101 40 -164 0z
m106 -88 c-2 -41 -48 -109 -103 -151 -33 -24 -46 -30 -52 -21 -18 30 20 126
68 170 53 49 89 50 87 2z"/>
<path d="M4773 4745 c-27 -19 -29 -32 -44 -285 -17 -300 2 -390 86 -390 44 0
73 24 86 73 16 61 16 405 0 496 -19 107 -68 148 -128 106z"/>
<path d="M2665 4231 c-37 -16 -60 -50 -60 -93 0 -35 6 -46 38 -73 60 -52 278
-123 392 -128 51 -2 59 1 81 26 16 19 24 40 24 67 0 61 -28 84 -160 129 -196
67 -280 86 -315 72z"/>
<path d="M1551 4146 c-92 -33 -153 -126 -153 -231 0 -79 28 -140 92 -197 86
-76 95 -87 123 -153 102 -240 169 -690 202 -1339 11 -217 21 -323 36 -394 64
-298 225 -509 444 -582 51 -17 213 -50 247 -50 3 0 6 -57 6 -127 -1 -148 13
-226 78 -445 24 -81 44 -155 44 -163 0 -12 -17 -15 -95 -15 -114 0 -148 -13
-165 -65 -10 -30 -9 -40 7 -68 66 -114 342 -85 408 44 24 45 18 108 -21 225
-81 247 -113 425 -100 548 l8 68 66 -8 c37 -4 255 -6 485 -5 386 1 443 -2 408
-23 -21 -14 -44 -136 -39 -218 6 -116 37 -171 140 -252 l77 -61 -77 -12 c-42
-6 -82 -12 -88 -12 -6 -1 -23 -13 -38 -27 -49 -49 -28 -129 41 -155 87 -33
271 22 319 96 22 34 32 84 23 123 -8 39 -39 74 -132 149 -38 30 -77 69 -87 85
-42 70 -32 187 24 269 24 36 26 36 113 43 198 16 329 54 582 169 215 99 305
165 385 285 67 101 98 202 104 343 5 130 -5 209 -44 326 -74 223 -162 313
-349 354 -80 17 -256 15 -320 -4 -27 -9 -86 -27 -130 -40 -137 -43 -274 -61
-404 -54 -262 14 -455 71 -712 213 -247 136 -309 200 -589 609 -249 364 -282
408 -370 496 -47 47 -110 102 -140 122 -30 21 -75 53 -100 72 -89 68 -218 94
-309 61z m177 -180 c26 -13 58 -36 71 -50 14 -15 43 -37 66 -51 64 -37 148
-135 289 -336 237 -337 470 -640 553 -720 122 -117 238 -189 437 -274 145 -61
250 -91 431 -122 129 -22 169 -24 285 -19 153 6 294 34 430 87 75 28 97 32
185 33 116 1 167 -17 228 -78 71 -71 132 -232 144 -378 12 -154 -31 -274 -136
-378 -75 -75 -139 -111 -346 -195 -290 -119 -360 -127 -1040 -123 -645 5 -822
11 -900 32 -237 64 -361 229 -411 546 -8 52 -19 208 -24 347 -14 370 -42 647
-91 888 -35 170 -86 378 -113 453 -31 90 -52 121 -132 198 -56 52 -64 65 -64
97 0 67 56 84 138 43z"/>
<path d="M2434 2515 c-30 -30 -26 -59 14 -92 33 -28 54 -29 75 -5 32 35 26 87
-13 107 -39 20 -47 19 -76 -10z"/>
<path d="M2892 2174 c-39 -27 -24 -82 28 -104 28 -12 33 -11 55 10 46 43 21
110 -40 110 -11 0 -31 -7 -43 -16z"/>
<path d="M5208 3973 c-63 -21 -120 -71 -149 -130 -18 -39 -23 -65 -23 -138 0
-181 83 -325 212 -369 58 -20 102 -20 177 0 165 42 275 175 275 330 0 133 -54
221 -175 288 -64 35 -69 36 -168 35 -65 0 -119 -6 -149 -16z m187 -314 c14
-13 -29 -53 -49 -46 -20 8 -30 32 -22 53 5 12 13 14 34 9 15 -3 31 -11 37 -16z"/>
<path d="M4145 3746 c-197 -82 -249 -333 -101 -481 65 -65 138 -91 232 -82
109 10 190 66 240 164 25 50 29 69 29 138 0 141 -33 203 -132 251 -81 40 -186
44 -268 10z m125 -250 c0 -30 -13 -46 -36 -46 -28 0 -31 16 -7 42 19 21 43 24
43 4z"/>
<path d="M490 1995 c-23 -27 -2 -59 68 -102 174 -108 272 -130 272 -63 0 28
-40 55 -168 119 -131 64 -152 70 -172 46z"/>
<path d="M5358 1100 c-34 -26 -73 -146 -65 -201 12 -91 98 -120 162 -56 38 38
55 89 55 170 0 48 -4 62 -25 82 -31 32 -91 34 -127 5z"/>
</g>
</svg>
