<?xml version="1.0" standalone="no"?>
<!DOCTYPE svg PUBLIC "-//W3C//DTD SVG 20010904//EN"
 "http://www.w3.org/TR/2001/REC-SVG-20010904/DTD/svg10.dtd">
<svg version="1.0" xmlns="http://www.w3.org/2000/svg"
 width="600.000000pt" height="600.000000pt" viewBox="0 0 600.000000 600.000000"
 preserveAspectRatio="xMidYMid meet">
<metadata>
Created by potrace 1.15, written by Peter Selinger 2001-2017
</metadata>
<g transform="translate(0.000000,600.000000) scale(0.100000,-0.100000)"
fill="#16364b" stroke="none">
<path d="M2005 5816 c-43 -19 -72 -54 -161 -191 -42 -66 -119 -183 -170 -261
-136 -208 -155 -245 -161 -311 -4 -47 0 -66 19 -103 50 -98 162 -117 294 -49
216 110 517 270 565 301 75 48 101 86 101 147 0 106 -91 187 -181 161 -18 -5
-75 -36 -126 -70 -104 -67 -133 -81 -119 -59 5 8 41 63 81 122 73 111 91 159
78 217 -18 81 -137 133 -220 96z"/>
<path d="M3020 5681 c-51 -27 -82 -85 -75 -140 8 -71 41 -103 147 -145 173
-69 309 -168 376 -274 37 -58 72 -169 72 -229 0 -39 -5 -51 -37 -83 -21 -20
-60 -45 -88 -54 -91 -32 -114 -47 -135 -91 -48 -98 3 -205 104 -222 49 -8 159
28 231 75 166 108 251 281 226 462 -24 180 -81 290 -217 419 -105 100 -253
195 -399 258 -110 47 -153 52 -205 24z"/>
<path d="M958 5370 c-110 -28 -241 -129 -301 -232 -120 -206 -43 -506 165
-639 122 -79 258 -11 258 128 0 58 -14 81 -84 132 -58 43 -90 96 -90 151 -1
82 51 136 158 164 99 25 139 66 139 139 0 88 -67 158 -156 163 -29 2 -69 -1
-89 -6z"/>
<path d="M2803 5011 c-88 -30 -142 -82 -183 -175 -78 -176 -21 -351 138 -424
65 -30 210 -42 279 -23 52 14 99 60 114 112 11 34 10 46 -7 87 -16 39 -28 51
-67 71 -45 22 -47 24 -29 37 51 36 69 152 32 212 -31 51 -81 91 -134 107 -62
19 -79 19 -143 -4z"/>
<path d="M4804 4920 c-11 -4 -37 -23 -56 -42 -53 -50 -62 -96 -49 -243 22
-238 88 -367 223 -435 160 -79 324 -1 374 178 15 56 16 71 5 125 -19 95 -75
192 -157 273 -119 118 -259 177 -340 144z"/>
<path d="M1934 4665 c-87 -24 -201 -101 -229 -155 -20 -40 -19 -108 4 -150 11
-20 36 -44 62 -58 57 -31 111 -25 177 17 72 46 91 42 127 -26 41 -77 72 -98
143 -98 71 0 114 29 138 92 49 126 -87 327 -256 377 -64 19 -98 19 -166 1z"/>
<path d="M2950 3961 c-48 -15 -85 -39 -126 -80 -85 -83 -127 -192 -127 -327 0
-70 4 -91 31 -148 39 -82 107 -152 191 -194 112 -56 192 -36 240 61 41 83 6
158 -95 203 -69 31 -84 76 -44 141 19 32 19 32 84 26 54 -5 69 -3 98 15 46 28
70 74 70 131 0 111 -73 171 -216 177 -45 2 -92 0 -106 -5z"/>
<path d="M1205 3920 c-113 -16 -254 -57 -290 -85 -52 -39 -78 -97 -73 -161 9
-107 93 -178 209 -176 32 0 59 -1 59 -3 0 -2 -40 -65 -90 -141 -140 -213 -393
-727 -406 -826 -11 -77 25 -152 89 -184 59 -31 162 -15 212 33 19 18 95 75
304 229 52 38 168 139 258 225 90 86 185 171 210 189 l46 34 -6 -70 c-4 -38
-18 -114 -32 -169 -56 -218 -106 -344 -267 -665 -167 -333 -174 -353 -144
-424 33 -79 137 -104 215 -53 45 30 92 102 215 332 137 254 223 497 296 829
36 168 42 357 13 441 -34 101 -138 166 -237 149 -80 -13 -224 -104 -393 -249
-24 -20 -43 -34 -43 -30 0 3 38 63 84 133 101 154 132 213 152 294 20 77 14
139 -20 206 -59 116 -187 167 -361 142z"/>
<path d="M4215 3787 c-110 -29 -223 -115 -268 -207 -32 -66 -31 -206 1 -268
32 -60 104 -129 160 -155 75 -33 173 -29 256 12 83 41 154 105 212 192 62 93
116 222 117 277 1 66 -51 124 -129 143 -67 16 -293 20 -349 6z m41 -333 c-28
-24 -47 -28 -48 -9 -1 12 41 35 62 35 10 -1 5 -9 -14 -26z"/>
<path d="M3456 3404 c-110 -35 -217 -208 -233 -375 -7 -67 10 -105 64 -146 35
-27 41 -28 130 -25 155 4 248 53 308 163 26 47 29 65 30 134 0 84 -20 140 -69
193 -53 59 -148 82 -230 56z"/>
<path d="M4920 2964 c-53 -23 -220 -198 -258 -271 -120 -228 -35 -438 178
-438 124 0 258 92 320 220 75 155 62 322 -33 422 -77 81 -132 99 -207 67z"/>
<path d="M4032 2539 c-79 -39 -132 -131 -132 -228 0 -25 16 -98 34 -161 19
-63 33 -116 32 -117 -1 -2 -40 11 -87 28 -161 59 -284 35 -369 -72 -68 -87
-88 -187 -70 -361 13 -127 36 -234 82 -386 35 -116 78 -176 151 -213 93 -48
226 -12 288 78 47 68 52 120 24 254 -13 63 -21 116 -19 119 3 2 17 -11 31 -29
73 -93 223 -94 362 -3 122 80 166 231 126 425 -8 40 -48 185 -88 322 -79 274
-96 308 -171 344 -57 28 -137 28 -194 0z"/>
<path d="M2862 2135 c-136 -41 -299 -116 -442 -203 l-65 -40 -11 58 c-27 131
-95 200 -197 200 -95 0 -172 -49 -278 -180 -89 -108 -102 -138 -97 -206 8 -89
78 -158 174 -172 26 -4 49 -12 51 -18 2 -7 -23 -21 -57 -32 -142 -48 -247
-173 -286 -339 -23 -99 -15 -265 19 -360 87 -247 246 -432 460 -538 221 -109
405 -113 652 -15 116 45 204 101 283 178 102 98 115 169 50 266 -53 80 -167
117 -252 82 -19 -8 -66 -43 -105 -79 -120 -110 -220 -143 -353 -117 -133 25
-281 138 -340 258 -30 60 -33 75 -33 153 0 79 2 90 24 113 34 37 52 33 84 -19
71 -112 178 -195 251 -195 81 1 175 82 196 170 17 70 0 111 -75 192 -43 45
-70 84 -84 123 -23 62 -21 75 13 75 13 0 88 39 167 86 155 93 298 168 342 179
35 9 35 -2 -3 -138 -36 -130 -90 -255 -164 -385 -63 -110 -70 -155 -37 -227
22 -48 44 -69 94 -90 73 -30 162 -9 220 52 15 17 58 90 96 164 101 201 231
607 231 723 0 122 -61 221 -168 272 -50 25 -71 28 -167 31 -94 3 -122 -1 -193
-22z"/>
</g>
</svg>
