<?xml version="1.0" standalone="no"?>
<!DOCTYPE svg PUBLIC "-//W3C//DTD SVG 20010904//EN"
 "http://www.w3.org/TR/2001/REC-SVG-20010904/DTD/svg10.dtd">
<svg version="1.0" xmlns="http://www.w3.org/2000/svg"
 width="600.000000pt" height="600.000000pt" viewBox="0 0 600.000000 600.000000"
 preserveAspectRatio="xMidYMid meet">
<metadata>
Created by potrace 1.15, written by Peter Selinger 2001-2017
</metadata>
<g transform="translate(0.000000,600.000000) scale(0.100000,-0.100000)"
fill="#16364b" stroke="none">
<path d="M2445 5468 c-47 -16 -74 -47 -115 -129 -103 -204 -91 -350 34 -424
70 -41 159 -44 331 -11 77 15 150 30 163 33 12 3 22 1 22 -4 0 -5 -36 -49 -81
-98 -181 -202 -306 -389 -386 -578 -31 -74 -34 -88 -29 -146 6 -73 28 -117 76
-148 41 -29 45 -29 286 4 165 22 239 27 436 28 222 0 239 2 265 21 89 65 75
206 -27 259 -72 37 -336 43 -567 12 -57 -8 -93 -9 -93 -3 0 13 82 145 151 241
31 44 99 127 151 183 175 195 198 231 198 320 0 87 -76 171 -188 207 -70 23
-200 16 -345 -19 -157 -38 -154 -38 -117 34 52 103 35 182 -46 216 -39 16 -77
17 -119 2z"/>
<path d="M1676 5044 c-192 -47 -477 -245 -577 -402 -51 -81 -33 -179 42 -229
30 -20 59 -27 126 -34 203 -21 339 -58 386 -107 15 -15 36 -54 47 -87 32 -92
73 -125 157 -125 61 0 106 27 133 79 28 56 25 103 -13 196 -39 96 -83 162
-135 204 -48 38 -148 85 -213 102 -27 7 -49 15 -49 19 0 13 118 73 198 100 93
32 135 64 153 117 22 67 -5 130 -71 163 -45 23 -100 24 -184 4z"/>
<path d="M4130 4834 c-98 -19 -199 -69 -321 -158 -84 -61 -109 -99 -109 -165
0 -92 63 -161 148 -161 38 0 55 8 124 61 90 67 180 116 224 121 28 3 29 2 32
-48 5 -85 -57 -294 -139 -472 -48 -104 -49 -138 -6 -217 26 -48 41 -64 79 -83
l46 -23 149 26 c154 28 345 43 407 31 33 -6 36 -10 36 -40 0 -54 -34 -172
-104 -356 -37 -96 -66 -190 -66 -209 0 -131 175 -190 266 -89 40 43 144 324
190 513 68 280 -8 407 -276 461 -65 13 -114 15 -220 11 -74 -3 -146 -9 -159
-13 -28 -8 -29 -13 23 123 54 139 68 198 73 318 4 95 2 117 -16 166 -45 119
-152 195 -286 203 -38 3 -81 2 -95 0z"/>
<path d="M2005 3929 c-44 -15 -163 -44 -265 -64 -265 -52 -265 -52 -305 -96
-30 -34 -35 -46 -35 -90 0 -93 58 -149 153 -149 54 0 353 53 457 81 110 29
207 68 240 95 16 14 36 45 46 69 16 43 16 48 -1 90 -37 98 -132 119 -290 64z"/>
<path d="M3738 3721 c-72 -23 -176 -80 -336 -182 -151 -96 -187 -131 -197
-188 -13 -80 51 -164 138 -178 47 -7 102 19 266 127 76 49 140 90 144 90 28 0
-46 -223 -112 -340 -27 -47 -61 -107 -76 -135 -16 -27 -43 -67 -62 -88 -27
-30 -33 -45 -33 -83 0 -78 54 -146 126 -160 67 -12 302 50 429 113 141 72 267
184 311 278 29 62 30 96 4 151 -49 100 -171 120 -237 38 -62 -77 -116 -134
-128 -134 -9 0 -6 17 10 58 52 128 70 219 70 362 0 112 -3 141 -19 173 -52
106 -161 142 -298 98z"/>
<path d="M2375 3386 c-121 -23 -304 -77 -330 -98 -56 -44 -80 -131 -51 -186
45 -87 108 -99 271 -52 65 18 146 34 199 37 l89 6 -6 -35 c-3 -20 -17 -65 -32
-100 -59 -139 -60 -142 -47 -187 17 -56 65 -108 113 -122 32 -10 46 -9 84 6
54 20 63 32 109 147 88 217 101 323 53 420 -53 108 -155 167 -302 174 -44 2
-112 -3 -150 -10z"/>
<path d="M1195 3120 c-68 -10 -141 -46 -167 -83 -26 -36 -35 -120 -19 -170 18
-54 83 -115 137 -130 l47 -12 -9 -195 c-28 -607 3 -793 143 -864 40 -20 125
-21 162 -2 64 34 111 115 111 192 0 27 4 32 30 37 54 11 78 37 156 165 110
181 219 322 247 322 6 0 7 -80 4 -192 -5 -187 -6 -196 -41 -308 -47 -149 -56
-194 -45 -235 30 -109 160 -136 245 -51 90 90 190 635 154 836 -25 139 -99
239 -206 280 -159 60 -339 -45 -513 -298 -34 -51 -65 -92 -67 -90 -1 2 2 88 8
192 22 356 -23 502 -175 575 -70 33 -128 42 -202 31z"/>
<path d="M4812 2909 c-86 -43 -136 -139 -130 -249 l3 -61 -91 -38 c-321 -133
-441 -265 -475 -520 -22 -162 26 -318 140 -459 28 -34 51 -64 51 -67 0 -3 -17
-12 -37 -20 -21 -9 -55 -32 -75 -52 l-38 -37 -141 33 c-78 18 -177 35 -220 38
-240 17 -458 -111 -668 -391 -39 -53 -76 -96 -81 -96 -5 0 -33 -25 -62 -56
-29 -30 -68 -65 -86 -76 -121 -74 -301 70 -445 359 -63 125 -125 173 -225 173
-40 0 -99 -24 -131 -53 -31 -29 -61 -94 -61 -135 0 -86 225 -434 370 -570 147
-139 289 -200 444 -189 68 5 93 12 170 51 51 25 117 68 150 98 33 29 80 64
105 78 34 19 62 49 115 125 83 119 194 233 256 265 71 36 144 36 301 1 199
-45 290 -40 420 23 143 71 214 178 179 272 -12 31 -1 44 38 44 31 0 92 32 124
67 39 40 58 94 58 160 -1 79 -27 133 -105 214 -36 37 -67 79 -70 95 -4 16 -8
35 -11 42 -2 7 -1 25 2 41 8 36 44 57 192 110 62 22 135 53 164 68 163 89 239
238 224 443 -7 114 -29 174 -82 225 -69 67 -186 86 -272 44z"/>
<path d="M3155 2365 c-110 -24 -263 -58 -340 -75 -160 -34 -204 -58 -242 -129
-27 -52 -31 -136 -9 -180 22 -42 81 -89 128 -102 48 -13 74 -8 423 76 99 24
203 47 231 51 l52 6 4 -65 c3 -47 10 -74 27 -99 70 -102 192 -117 275 -35 54
54 90 165 90 278 1 68 -3 84 -34 145 -25 49 -49 79 -84 105 -111 84 -222 89
-521 24z"/>
</g>
</svg>
