<?xml version="1.0" standalone="no"?>
<!DOCTYPE svg PUBLIC "-//W3C//DTD SVG 20010904//EN"
 "http://www.w3.org/TR/2001/REC-SVG-20010904/DTD/svg10.dtd">
<svg version="1.0" xmlns="http://www.w3.org/2000/svg"
 width="600.000000pt" height="600.000000pt" viewBox="0 0 600.000000 600.000000"
 preserveAspectRatio="xMidYMid meet">
<metadata>
Created by potrace 1.15, written by Peter Selinger 2001-2017
</metadata>
<g transform="translate(0.000000,600.000000) scale(0.100000,-0.100000)"
fill="#16364b" stroke="none">
<path d="M2110 5247 c-123 -35 -221 -146 -251 -287 -8 -40 -8 -91 2 -214 27
-325 20 -1628 -10 -1926 l-6 -64 -116 -37 c-170 -54 -522 -135 -527 -121 -2 7
-12 22 -22 34 -15 19 -21 21 -32 10 -10 -10 -10 -16 0 -33 20 -32 8 -33 -41
-5 -24 14 -49 26 -55 26 -20 0 -13 -29 13 -64 29 -38 22 -46 -37 -46 -44 0
-34 -32 15 -44 20 -5 37 -12 37 -15 0 -3 -14 -14 -30 -23 -32 -18 -38 -33 -17
-41 23 -9 558 110 713 158 45 14 86 25 92 25 6 0 12 -92 14 -247 4 -205 9
-266 27 -351 28 -134 82 -309 119 -392 88 -195 257 -320 492 -364 l64 -12 2
-160 c1 -172 16 -252 84 -473 17 -56 29 -105 26 -110 -3 -4 -50 -11 -105 -14
-104 -5 -161 -26 -175 -63 -13 -34 -5 -75 18 -99 30 -30 79 -39 170 -32 115 9
211 59 246 127 27 52 25 101 -5 191 -44 129 -83 271 -96 352 -11 70 -9 251 4
263 2 3 112 -3 243 -12 163 -11 313 -15 471 -12 l233 5 -6 -97 c-9 -127 12
-248 77 -443 27 -82 46 -153 43 -159 -4 -6 -30 -8 -68 -4 -114 11 -186 -26
-186 -97 0 -72 59 -111 167 -110 144 2 263 93 263 201 0 16 -18 78 -41 138
-52 138 -74 209 -93 306 -20 97 -20 141 0 228 14 61 18 69 42 74 41 8 173 24
301 37 194 18 281 57 381 166 83 91 147 248 165 408 10 90 -12 332 -40 438
-59 227 -109 316 -267 482 l-100 105 151 -1 c201 -1 455 37 549 83 64 31 85
54 63 67 -6 4 -9 15 -5 25 5 12 1 19 -15 23 -14 3 -21 13 -21 29 0 28 -24 32
-54 9 -28 -21 -44 -19 -48 8 -5 35 -32 27 -36 -10 -3 -30 -7 -33 -55 -42 -170
-34 -376 -41 -600 -19 l-122 11 -72 63 c-94 82 -148 118 -432 289 -130 78
-263 159 -296 180 -175 112 -306 240 -422 415 -134 201 -182 331 -293 798 -49
208 -76 279 -135 354 -79 101 -231 150 -355 115z m155 -166 c83 -38 130 -113
164 -262 46 -200 132 -512 164 -595 90 -232 236 -465 373 -594 112 -106 207
-169 594 -399 276 -163 314 -192 620 -476 136 -126 223 -224 257 -289 30 -58
94 -260 108 -345 20 -113 20 -316 -1 -395 -31 -120 -111 -234 -195 -277 -55
-27 -108 -37 -294 -54 -93 -9 -253 -27 -355 -42 -160 -23 -218 -26 -425 -26
-132 0 -287 6 -345 12 -58 7 -168 16 -245 21 -162 10 -231 26 -335 77 -135 66
-213 170 -275 363 -57 181 -66 254 -74 570 -5 163 -4 354 0 425 5 72 13 335
19 585 5 250 13 568 16 705 4 154 2 319 -5 430 -26 392 -26 426 -3 470 50 99
146 138 237 96z"/>
<path d="M2663 2812 c-25 -4 -53 -37 -53 -63 0 -24 49 -69 76 -69 45 0 81 68
56 107 -10 16 -52 30 -79 25z"/>
<path d="M3116 2718 c-22 -32 -20 -55 9 -83 40 -41 88 -28 108 28 7 19 -8 56
-27 69 -24 16 -75 8 -90 -14z"/>
<path d="M2919 1823 c-17 -20 -3 -58 26 -71 14 -7 66 -12 115 -12 77 0 93 3
110 20 24 24 24 29 5 57 -14 20 -23 22 -130 21 -82 -1 -119 -5 -126 -15z"/>
<path d="M5253 3992 c-158 -56 -241 -196 -216 -362 35 -226 190 -341 383 -284
139 41 234 156 258 313 21 141 -22 231 -148 311 -50 32 -62 35 -140 38 -63 2
-99 -3 -137 -16z m141 -312 c11 -11 -21 -50 -40 -50 -18 0 -37 38 -30 57 6 16
51 11 70 -7z"/>
</g>
</svg>
