<?xml version="1.0" standalone="no"?>
<!DOCTYPE svg PUBLIC "-//W3C//DTD SVG 20010904//EN"
 "http://www.w3.org/TR/2001/REC-SVG-20010904/DTD/svg10.dtd">
<svg version="1.0" xmlns="http://www.w3.org/2000/svg"
 width="600.000000pt" height="600.000000pt" viewBox="0 0 600.000000 600.000000"
 preserveAspectRatio="xMidYMid meet">
<metadata>
Created by potrace 1.15, written by Peter Selinger 2001-2017
</metadata>
<g transform="translate(0.000000,600.000000) scale(0.100000,-0.100000)"
fill="#16364b" stroke="none">
<path d="M1653 5781 c-50 -23 -64 -48 -91 -161 -72 -292 -98 -537 -68 -628 43
-128 190 -179 312 -107 55 32 158 136 232 234 86 115 211 319 218 357 20 110
-69 198 -169 165 -44 -15 -72 -46 -146 -166 -104 -166 -153 -223 -136 -157 4
15 13 54 20 87 7 33 23 103 36 156 l22 97 -22 45 c-40 82 -128 115 -208 78z"/>
<path d="M3140 5598 c-19 -13 -40 -35 -47 -48 -18 -36 -16 -110 5 -141 9 -15
73 -69 141 -120 133 -99 274 -233 330 -313 l34 -48 -40 7 c-47 7 -97 -10 -128
-45 -29 -32 -28 -128 1 -167 63 -85 244 -115 353 -59 107 57 145 197 89 332
-72 173 -153 253 -597 587 -53 40 -97 44 -141 15z"/>
<path d="M855 5467 c-151 -51 -242 -152 -285 -323 -32 -124 -22 -221 32 -327
44 -87 153 -177 215 -177 107 0 180 98 152 202 -8 31 -26 57 -66 94 -50 46
-56 56 -60 100 -5 59 18 108 67 142 27 18 46 22 105 21 84 -1 126 16 155 64
39 63 17 152 -46 194 -36 23 -209 29 -269 10z"/>
<path d="M2995 5191 c-125 -33 -223 -151 -233 -280 -5 -74 8 -112 57 -164 50
-55 97 -71 196 -71 104 0 180 21 216 60 20 21 24 38 27 99 8 153 -34 280 -109
330 -42 28 -106 39 -154 26z"/>
<path d="M4755 4842 c-16 -11 -41 -32 -55 -47 -24 -26 -25 -31 -24 -163 1
-107 6 -154 23 -216 42 -151 105 -248 199 -304 205 -120 473 161 382 400 -28
76 -79 137 -174 207 -158 118 -288 163 -351 123z"/>
<path d="M2280 4821 c-8 -6 -37 -13 -65 -16 -160 -21 -297 -71 -333 -123 -34
-47 -31 -127 8 -173 48 -59 120 -67 220 -25 19 8 85 22 145 32 126 20 173 40
211 89 20 26 26 47 27 84 1 56 -19 93 -66 121 -34 21 -120 27 -147 11z"/>
<path d="M2803 4112 c-197 -70 -241 -265 -89 -399 82 -72 231 -111 381 -99 97
8 323 62 365 88 35 21 69 87 70 133 0 17 -10 51 -22 75 -21 41 -33 50 -125 96
-56 28 -146 66 -200 84 -83 28 -115 34 -213 37 -93 3 -125 0 -167 -15z"/>
<path d="M1075 4071 c-149 -25 -213 -189 -118 -302 41 -48 78 -59 199 -59
l106 0 -34 -42 c-18 -23 -166 -175 -328 -338 -253 -252 -297 -301 -308 -339
-30 -97 23 -187 126 -217 51 -15 60 -15 114 0 51 14 62 14 86 2 82 -41 135
-29 257 59 50 35 94 65 99 65 4 0 17 -11 27 -24 10 -13 41 -38 68 -56 87 -55
111 -146 75 -283 -43 -166 -154 -331 -274 -408 -40 -26 -50 -29 -105 -23 -105
9 -170 -44 -170 -139 0 -63 22 -98 80 -127 62 -30 122 -35 208 -16 171 38 341
192 453 411 160 309 142 573 -51 770 l-54 55 59 30 c33 17 65 30 73 30 7 0 20
-13 30 -29 52 -88 203 -75 254 22 20 37 21 165 2 255 -24 121 -134 176 -242
120 -74 -37 -241 -108 -245 -103 -3 2 12 23 32 46 59 64 122 169 146 240 64
188 -41 349 -259 395 -67 14 -234 17 -306 5z"/>
<path d="M4280 3783 c-151 -18 -295 -128 -330 -251 -13 -47 -13 -136 0 -182
40 -144 199 -240 348 -210 31 7 75 21 96 32 57 29 137 113 178 188 37 66 88
213 88 252 0 35 -38 102 -67 120 -59 34 -226 62 -313 51z m30 -310 c0 -14 -34
-43 -52 -43 -27 0 -22 17 10 34 30 17 42 19 42 9z"/>
<path d="M3414 3399 c-79 -23 -210 -193 -239 -311 -11 -43 28 -113 78 -142 50
-28 163 -41 221 -25 52 14 119 79 146 140 27 64 37 172 20 225 -30 94 -127
142 -226 113z"/>
<path d="M5022 3258 c-170 -87 -284 -258 -285 -428 -1 -58 4 -84 21 -116 110
-212 439 -163 554 83 60 126 38 267 -61 396 -49 64 -96 96 -142 97 -14 0 -54
-14 -87 -32z"/>
<path d="M2063 2475 c-32 -16 -81 -57 -127 -106 -86 -92 -226 -273 -226 -293
0 -8 -29 -56 -64 -107 -173 -256 -234 -425 -243 -679 -5 -138 -3 -164 16 -233
56 -204 189 -376 379 -490 159 -96 327 -135 513 -117 301 29 448 113 679 389
164 195 343 621 366 870 18 196 -81 394 -234 464 -40 19 -64 22 -167 22 -115
-1 -179 -12 -336 -60 -12 -4 -21 9 -37 52 -46 125 -114 201 -237 265 -69 36
-91 42 -155 46 -66 3 -81 0 -127 -23z m182 -475 c38 -105 66 -149 130 -211 61
-59 114 -88 161 -89 17 0 89 17 160 39 152 45 261 71 268 63 41 -40 -91 -464
-202 -650 -23 -37 -73 -99 -112 -139 -121 -120 -230 -163 -415 -163 -113 1
-169 16 -260 71 -159 96 -223 230 -196 409 23 145 93 304 192 436 33 44 62 90
66 104 10 41 161 227 173 213 4 -5 20 -42 35 -83z"/>
<path d="M4040 2491 c-73 -23 -119 -63 -145 -123 -20 -49 -19 -96 4 -188 11
-41 18 -77 16 -79 -2 -2 -18 2 -36 8 -92 32 -207 -3 -267 -81 -78 -101 -70
-204 44 -613 25 -88 54 -174 65 -192 24 -39 88 -78 142 -87 62 -11 137 16 185
67 22 24 43 58 47 76 6 29 9 31 50 31 142 0 255 95 273 228 18 131 -22 409
-100 697 -17 61 -37 124 -45 140 -20 38 -61 83 -93 100 -33 17 -109 26 -140
16z"/>
</g>
</svg>
