<?xml version="1.0" standalone="no"?>
<!DOCTYPE svg PUBLIC "-//W3C//DTD SVG 20010904//EN"
 "http://www.w3.org/TR/2001/REC-SVG-20010904/DTD/svg10.dtd">
<svg version="1.0" xmlns="http://www.w3.org/2000/svg"
 width="600.000000pt" height="600.000000pt" viewBox="0 0 600.000000 600.000000"
 preserveAspectRatio="xMidYMid meet">
<metadata>
Created by potrace 1.15, written by Peter Selinger 2001-2017
</metadata>
<g transform="translate(0.000000,600.000000) scale(0.100000,-0.100000)"
fill="#16364b" stroke="none">
<path d="M2918 5590 c-30 -16 -45 -36 -77 -103 -57 -118 -73 -172 -79 -258 -6
-103 15 -167 77 -229 61 -60 121 -79 280 -88 l125 -7 -45 -29 c-99 -65 -234
-183 -373 -327 -82 -84 -157 -166 -167 -183 -22 -37 -25 -96 -5 -134 16 -31
71 -84 102 -100 31 -16 215 -67 409 -113 94 -22 215 -53 269 -69 150 -45 208
-39 263 30 24 29 34 88 24 128 -23 85 -69 104 -438 182 -130 27 -238 52 -242
55 -16 17 235 224 440 363 192 130 242 209 207 326 -16 53 -79 115 -154 152
-58 28 -63 29 -264 34 -175 4 -205 7 -202 20 2 8 19 50 38 93 20 42 38 92 40
110 6 39 -29 112 -68 140 -39 29 -114 32 -160 7z"/>
<path d="M1569 5321 c-15 -5 -60 -26 -100 -47 -58 -30 -99 -63 -189 -154 -129
-129 -207 -233 -279 -371 -109 -207 -117 -313 -33 -386 44 -37 92 -43 184 -22
199 45 428 73 428 52 0 -16 -42 -117 -79 -191 -67 -135 -93 -209 -90 -262 2
-43 -1 -52 -29 -81 -58 -59 -65 -137 -19 -207 23 -35 89 -72 126 -72 32 0 301
110 458 187 143 70 187 107 199 168 15 79 -17 141 -88 170 -55 22 -89 15 -200
-41 -48 -24 -90 -44 -92 -44 -3 0 24 60 59 133 36 74 69 159 75 194 48 245
-173 409 -490 365 -41 -6 -76 -9 -78 -7 -3 2 16 32 41 67 78 110 192 205 308
255 65 29 94 73 94 143 0 87 -51 143 -141 154 -22 3 -51 1 -65 -3z"/>
<path d="M4488 4545 c-78 -15 -300 -91 -370 -126 -48 -25 -70 -59 -75 -117 -8
-87 54 -152 142 -152 22 0 92 18 157 40 64 21 132 42 152 46 33 6 36 4 29 -12
-14 -37 -128 -222 -234 -379 -60 -88 -111 -174 -115 -192 -11 -55 12 -97 91
-166 54 -48 84 -67 112 -71 258 -38 464 -83 484 -103 11 -11 -47 -130 -168
-343 -87 -154 -101 -195 -84 -250 23 -78 88 -130 160 -130 59 0 82 27 161 185
38 77 100 195 138 263 81 144 103 206 103 295 0 179 -154 282 -511 343 -58 9
-106 18 -108 19 -1 1 45 78 104 171 120 192 165 276 188 353 68 228 -93 375
-356 326z"/>
<path d="M3758 3690 c-54 -16 -99 -53 -128 -104 -24 -41 -30 -63 -30 -114 0
-109 51 -172 140 -172 45 0 72 11 109 44 l24 21 -6 -65 c-3 -39 -15 -86 -30
-119 -25 -53 -27 -55 -96 -76 -91 -29 -153 -66 -225 -134 -84 -80 -110 -128
-104 -195 5 -61 27 -96 79 -125 73 -42 144 -22 217 60 56 63 127 97 243 115
110 18 150 40 180 102 17 34 20 52 14 85 -12 65 -10 97 8 162 55 195 -30 412
-195 494 -64 32 -138 40 -200 21z"/>
<path d="M2420 3567 c-99 -30 -254 -112 -306 -162 -97 -92 -72 -233 46 -265
54 -14 86 -7 190 45 133 66 260 97 295 71 19 -14 19 -15 2 -86 -22 -91 -72
-199 -167 -359 -86 -146 -97 -191 -60 -263 l22 -45 -21 -39 c-27 -50 -27 -115
0 -171 50 -104 143 -127 294 -73 91 32 343 100 371 100 20 0 15 -16 -58 -173
-53 -112 -60 -134 -55 -173 6 -56 45 -116 100 -151 36 -24 52 -28 113 -28 62
0 75 3 107 28 44 33 53 51 123 224 113 281 108 442 -16 561 -80 76 -114 87
-280 87 -124 0 -161 -4 -253 -28 -60 -15 -110 -27 -112 -27 -2 0 36 82 84 183
113 233 134 297 135 407 0 71 -4 94 -26 142 -36 78 -98 142 -175 180 -58 28
-75 32 -171 35 -89 3 -119 -1 -182 -20z"/>
<path d="M1113 3295 c-66 -18 -110 -41 -198 -102 -85 -59 -115 -105 -115 -182
0 -133 113 -226 235 -192 21 6 41 8 43 6 3 -3 -9 -91 -27 -197 -63 -381 -93
-684 -77 -772 9 -49 66 -111 119 -130 103 -36 196 -28 250 23 36 33 119 162
237 366 104 181 106 183 209 322 72 98 91 117 91 92 0 -6 7 -27 16 -46 22 -44
15 -216 -15 -383 -11 -63 -30 -167 -41 -230 -28 -156 -36 -291 -20 -363 27
-134 161 -198 261 -126 50 35 58 69 52 199 -5 104 -1 138 37 365 38 217 43
270 44 405 1 160 -12 246 -65 433 -44 152 -177 216 -314 152 -81 -39 -263
-237 -374 -408 -24 -37 -45 -66 -47 -64 -2 2 7 69 21 148 61 345 65 445 24
539 -25 55 -71 105 -124 132 -52 27 -153 33 -222 13z"/>
<path d="M4730 2377 c-70 -22 -150 -129 -150 -199 0 -12 -28 -16 -162 -21
-197 -6 -297 -26 -405 -77 -98 -48 -161 -107 -202 -193 -54 -109 -61 -188 -35
-387 8 -67 13 -124 11 -127 -3 -3 -40 25 -83 61 -93 80 -193 132 -270 142
-169 21 -374 -103 -513 -310 -56 -83 -158 -266 -195 -349 -13 -31 -27 -57 -30
-57 -11 0 -49 141 -81 308 -56 286 -90 389 -143 440 -97 90 -234 77 -289 -27
-28 -54 -29 -107 -3 -203 10 -40 29 -127 40 -193 51 -297 108 -470 189 -577
110 -146 286 -187 466 -107 62 28 150 132 190 227 77 184 152 306 237 389 81
79 85 78 229 -42 63 -53 143 -110 179 -128 58 -29 73 -32 155 -32 76 0 98 4
139 25 64 32 141 108 167 162 11 24 35 62 54 85 46 58 52 107 31 257 -26 194
-26 198 7 214 17 8 92 17 195 22 92 5 190 13 217 19 160 32 275 114 333 240
22 46 27 75 30 159 5 127 -10 174 -73 230 -67 58 -150 76 -235 49z"/>
</g>
</svg>
