<?xml version="1.0" standalone="no"?>
<!DOCTYPE svg PUBLIC "-//W3C//DTD SVG 20010904//EN"
 "http://www.w3.org/TR/2001/REC-SVG-20010904/DTD/svg10.dtd">
<svg version="1.0" xmlns="http://www.w3.org/2000/svg"
 width="600.000000pt" height="600.000000pt" viewBox="0 0 600.000000 600.000000"
 preserveAspectRatio="xMidYMid meet">
<metadata>
Created by potrace 1.15, written by Peter Selinger 2001-2017
</metadata>
<g transform="translate(0.000000,600.000000) scale(0.100000,-0.100000)"
fill="#16364b" stroke="none">
<path d="M2370 5390 c-18 -18 -20 -33 -20 -192 0 -397 -78 -578 -298 -693 -70
-37 -77 -43 -80 -73 -4 -41 20 -72 56 -72 41 0 164 72 232 137 157 148 220
345 220 689 0 168 -1 182 -20 202 -26 27 -64 28 -90 2z"/>
<path d="M3525 5282 c-6 -4 -19 -20 -29 -36 -52 -82 50 -271 179 -332 64 -31
96 -30 134 2 24 20 31 34 31 60 0 71 -112 247 -184 289 -42 24 -109 33 -131
17z"/>
<path d="M3020 5104 c-175 -75 -233 -375 -80 -409 134 -29 306 197 261 345
-22 74 -97 100 -181 64z m65 -136 c-13 -42 -54 -105 -80 -122 -24 -16 -25 -16
-25 4 0 50 61 140 95 140 12 0 15 -6 10 -22z"/>
<path d="M4747 4752 c-29 -32 -37 -72 -37 -185 0 -242 35 -404 100 -469 33
-33 44 -38 85 -38 40 0 52 5 80 33 42 42 55 90 55 208 0 160 -55 322 -147 428
-30 36 -40 41 -77 41 -28 0 -48 -6 -59 -18z"/>
<path d="M2628 4213 c-62 -39 -73 -133 -25 -204 84 -124 274 -165 430 -92 70
33 95 61 103 114 4 25 0 43 -18 68 -21 31 -37 38 -163 78 -167 53 -282 66
-327 36z"/>
<path d="M5274 3990 c-63 -13 -136 -54 -176 -98 -110 -122 -102 -339 18 -472
78 -87 186 -110 316 -70 166 51 268 182 268 345 0 117 -52 194 -175 264 -51
29 -71 35 -135 37 -41 2 -94 -1 -116 -6z m106 -294 l33 -13 -22 -22 c-28 -28
-49 -27 -63 5 -10 21 -9 27 3 35 17 11 11 11 49 -5z"/>
<path d="M4180 3748 c-106 -41 -201 -166 -216 -284 -18 -146 97 -293 244 -311
125 -14 271 71 328 193 30 65 38 123 29 219 -6 64 -11 82 -36 109 -72 82 -239
118 -349 74z m110 -277 c0 -23 -25 -51 -46 -51 -23 0 -16 27 12 49 33 26 34
26 34 2z"/>
<path d="M1150 3550 c-282 -60 -364 -395 -147 -602 60 -56 149 -97 253 -114
49 -8 106 -22 127 -31 149 -64 255 -335 327 -833 43 -304 113 -477 251 -625
145 -155 253 -188 674 -206 354 -16 1229 -21 1340 -8 144 16 474 85 570 119
107 36 258 116 336 175 119 92 211 223 270 384 118 325 90 586 -89 827 -126
170 -283 278 -453 312 -70 13 -95 14 -178 4 -179 -23 -318 -79 -466 -189 -233
-172 -336 -223 -524 -258 -169 -31 -305 -11 -461 68 -164 83 -472 296 -955
662 -185 140 -313 214 -435 253 -174 56 -350 81 -440 62z m252 -351 c195 -54
273 -97 526 -291 86 -67 249 -184 362 -260 113 -76 239 -163 281 -193 187
-134 421 -246 581 -279 143 -29 312 -16 504 39 151 44 222 86 424 249 124 100
180 132 282 158 71 18 92 19 150 10 94 -14 164 -50 226 -114 108 -112 151
-204 159 -338 6 -111 -15 -209 -68 -317 -56 -112 -120 -175 -246 -240 -124
-64 -200 -91 -386 -137 -249 -62 -290 -65 -842 -56 -269 5 -506 13 -525 18
-19 6 -103 13 -186 16 -432 15 -538 102 -608 496 -82 471 -116 602 -199 769
-86 171 -172 275 -287 343 -58 34 -116 53 -240 77 -59 12 -118 50 -106 69 12
20 81 13 198 -19z"/>
<path d="M2243 2365 c-34 -24 -30 -67 8 -100 18 -14 38 -24 46 -21 8 4 19 6
24 6 10 0 39 53 39 72 -1 45 -77 72 -117 43z"/>
<path d="M2867 2052 c-10 -10 -17 -28 -17 -39 0 -28 41 -63 74 -63 22 0 30 7
42 36 14 32 13 38 -1 60 -19 30 -74 33 -98 6z"/>
<path d="M3448 3373 c-50 -31 -171 -245 -185 -325 -11 -71 66 -103 126 -52 36
30 132 171 161 237 29 65 29 115 1 139 -28 22 -67 23 -103 1z"/>
<path d="M461 2031 c-27 -27 -27 -66 2 -95 12 -12 39 -44 61 -70 74 -90 189
-150 246 -126 33 14 55 59 46 94 -9 36 -92 105 -191 159 -109 60 -136 66 -164
38z"/>
<path d="M5323 1108 c-32 -16 -73 -103 -73 -156 0 -110 103 -166 179 -98 35
31 51 78 51 151 0 57 -3 69 -25 90 -18 19 -34 25 -67 24 -24 0 -53 -5 -65 -11z"/>
</g>
</svg>
