<?xml version="1.0" standalone="no"?>
<!DOCTYPE svg PUBLIC "-//W3C//DTD SVG 20010904//EN"
 "http://www.w3.org/TR/2001/REC-SVG-20010904/DTD/svg10.dtd">
<svg version="1.0" xmlns="http://www.w3.org/2000/svg"
 width="600.000000pt" height="600.000000pt" viewBox="0 0 600.000000 600.000000"
 preserveAspectRatio="xMidYMid meet">
<metadata>
Created by potrace 1.15, written by Peter Selinger 2001-2017
</metadata>
<g transform="translate(0.000000,600.000000) scale(0.100000,-0.100000)"
fill="#16364b" stroke="none">
<path d="M2005 5830 c-16 -3 -40 -12 -52 -18 -23 -13 -385 -547 -428 -632 -36
-70 -48 -133 -35 -181 14 -51 62 -105 107 -120 80 -26 153 -1 410 143 62 35
172 95 245 133 163 86 213 131 223 197 6 39 3 56 -16 95 -29 57 -74 83 -144
83 -43 0 -65 -9 -154 -60 -57 -33 -106 -59 -107 -57 -2 2 30 49 71 106 66 91
75 109 75 147 0 55 -11 82 -46 118 -42 41 -97 59 -149 46z"/>
<path d="M3022 5690 c-38 -24 -71 -88 -72 -141 0 -66 32 -97 178 -171 167 -84
232 -127 308 -203 70 -69 117 -153 135 -242 11 -54 11 -64 -5 -87 -23 -36 -70
-63 -131 -76 -28 -6 -65 -19 -83 -30 -38 -23 -71 -88 -72 -138 0 -64 52 -129
112 -138 48 -8 149 19 237 63 229 115 287 316 175 601 -84 211 -257 374 -561
526 -124 62 -166 69 -221 36z"/>
<path d="M953 5405 c-220 -48 -353 -228 -354 -477 0 -112 11 -160 53 -241 34
-63 134 -163 190 -190 71 -34 154 -14 196 48 53 77 35 164 -50 235 -58 50 -87
106 -88 168 0 88 45 138 145 163 68 16 100 34 123 67 59 82 20 191 -81 229
-41 15 -58 14 -134 -2z"/>
<path d="M2795 5041 c-124 -58 -197 -223 -166 -373 16 -79 41 -127 86 -166 61
-54 98 -66 215 -66 129 -1 173 15 213 77 44 67 36 146 -19 193 -24 20 -24 21
-9 57 21 50 19 103 -6 153 -23 49 -86 110 -135 130 -47 20 -131 17 -179 -5z"/>
<path d="M4795 4906 c-16 -8 -46 -30 -65 -50 l-35 -37 1 -147 c2 -239 42 -372
141 -462 119 -109 258 -102 387 20 142 134 141 315 -4 473 -67 73 -156 137
-253 182 -81 37 -124 42 -172 21z"/>
<path d="M1905 4693 c-74 -31 -155 -95 -181 -145 -22 -41 -18 -109 9 -148 53
-80 135 -94 234 -39 73 40 89 36 113 -28 25 -65 47 -90 94 -108 58 -22 105
-14 152 27 53 47 67 82 61 150 -10 117 -88 222 -205 276 -73 34 -213 42 -277
15z"/>
<path d="M2967 3970 c-261 -66 -367 -379 -188 -558 114 -114 329 -177 418
-122 65 39 92 141 54 210 -25 48 -57 68 -126 81 -97 18 -137 48 -102 77 26 22
63 22 127 2 69 -22 104 -20 153 9 75 43 94 160 36 225 -44 51 -122 78 -239 82
-52 2 -112 -1 -133 -6z"/>
<path d="M1155 3940 c-189 -50 -244 -81 -282 -158 -43 -89 -21 -180 60 -246
35 -28 46 -31 108 -31 38 0 69 -3 69 -6 0 -6 -74 -114 -233 -339 -171 -242
-279 -478 -280 -610 -2 -180 201 -264 328 -135 22 22 139 117 260 212 121 94
288 227 370 297 83 69 153 126 158 126 12 0 8 -95 -8 -171 -23 -110 -63 -221
-175 -484 -106 -250 -125 -287 -221 -446 -51 -83 -59 -103 -59 -146 0 -119
127 -191 224 -128 37 25 128 180 246 420 281 574 325 714 318 1014 -3 142 -7
173 -25 212 -67 147 -253 147 -458 1 -27 -20 -86 -65 -130 -101 -43 -37 -76
-58 -72 -49 3 10 37 64 75 120 101 151 148 236 166 297 44 151 -6 275 -136
340 -54 28 -71 31 -147 30 -51 0 -115 -8 -156 -19z"/>
<path d="M4188 3765 c-185 -46 -297 -177 -285 -331 6 -79 42 -157 97 -212 63
-63 112 -85 200 -90 115 -6 175 20 270 117 82 83 121 148 170 283 27 75 30 91
21 125 -11 40 -46 80 -91 104 -37 20 -308 23 -382 4z m72 -311 c-21 -24 -51
-37 -62 -26 -12 12 28 42 55 42 17 0 17 -2 7 -16z"/>
<path d="M3415 3391 c-44 -20 -90 -66 -122 -121 -29 -49 -83 -206 -83 -241 0
-69 55 -138 125 -158 51 -14 202 2 250 26 124 64 176 233 115 371 -51 117
-179 172 -285 123z"/>
<path d="M4953 3010 c-39 -9 -89 -48 -169 -131 -75 -79 -112 -137 -136 -212
-47 -153 8 -286 136 -327 131 -42 343 65 413 208 25 50 28 68 28 152 -1 113
-14 145 -97 232 -71 75 -111 93 -175 78z"/>
<path d="M4057 2589 c-86 -14 -167 -104 -189 -211 -11 -51 -9 -67 20 -189 18
-74 32 -139 32 -146 0 -8 -20 -3 -57 14 -70 31 -173 41 -237 23 -52 -14 -117
-66 -151 -120 -80 -126 -71 -331 26 -637 50 -155 67 -191 114 -231 123 -109
301 -75 378 73 29 55 27 139 -5 236 l-25 77 44 -34 c54 -42 141 -68 191 -59
127 24 224 91 273 191 30 59 33 75 32 149 -1 73 -8 103 -61 262 -34 99 -80
247 -102 329 -23 82 -51 164 -62 182 -41 66 -136 106 -221 91z"/>
<path d="M1972 2144 c-28 -14 -70 -46 -92 -72 -60 -68 -131 -187 -142 -237
-19 -88 27 -171 116 -210 l49 -22 -45 -31 c-106 -73 -199 -212 -234 -352 -26
-99 -23 -285 6 -375 43 -134 102 -229 221 -352 87 -91 153 -141 236 -180 98
-45 191 -63 333 -63 189 0 310 35 450 130 77 52 197 164 217 203 20 39 20 125
0 164 -19 35 -72 83 -93 83 -24 0 -15 17 16 30 81 33 146 160 264 510 108 319
124 387 107 476 -16 89 -50 152 -109 206 -61 54 -129 78 -226 78 -130 0 -231
-37 -498 -181 -93 -50 -171 -89 -172 -87 -2 1 -8 24 -14 49 -41 168 -139 259
-278 259 -45 0 -73 -7 -112 -26z m1018 -418 c0 -37 -168 -464 -226 -574 -34
-65 -44 -95 -44 -130 1 -70 30 -126 86 -162 27 -16 41 -30 33 -30 -9 0 -56
-34 -105 -77 -49 -42 -112 -87 -140 -100 -99 -45 -230 -40 -340 14 -80 39
-179 133 -216 207 -74 145 -34 366 65 366 28 0 35 -6 60 -53 15 -29 48 -76 73
-105 57 -65 124 -90 197 -71 51 12 103 57 123 106 30 70 16 122 -63 239 -18
26 -33 55 -33 64 0 14 126 101 305 211 96 59 225 113 225 95z"/>
</g>
</svg>
