<?xml version="1.0" standalone="no"?>
<!DOCTYPE svg PUBLIC "-//W3C//DTD SVG 20010904//EN"
 "http://www.w3.org/TR/2001/REC-SVG-20010904/DTD/svg10.dtd">
<svg version="1.0" xmlns="http://www.w3.org/2000/svg"
 width="600.000000pt" height="600.000000pt" viewBox="0 0 600.000000 600.000000"
 preserveAspectRatio="xMidYMid meet">
<metadata>
Created by potrace 1.15, written by Peter Selinger 2001-2017
</metadata>
<g transform="translate(0.000000,600.000000) scale(0.100000,-0.100000)"
fill="#16364b" stroke="none">
<path d="M1904 5791 c-37 -23 -58 -52 -109 -151 -21 -41 -77 -140 -125 -220
-48 -80 -98 -163 -110 -184 -81 -146 -82 -261 -2 -332 69 -60 158 -58 294 8
178 86 522 338 558 408 43 84 14 182 -65 220 -70 34 -103 23 -220 -70 -54 -44
-101 -78 -103 -76 -2 3 21 51 52 109 65 120 76 174 49 227 -39 75 -147 105
-219 61z"/>
<path d="M3017 5696 c-65 -24 -97 -66 -97 -130 0 -75 26 -106 140 -167 267
-144 441 -307 490 -460 37 -113 16 -149 -103 -176 -79 -18 -102 -33 -128 -85
-42 -82 -1 -186 81 -208 75 -20 232 29 319 100 79 66 141 197 141 301 0 117
-62 269 -157 384 -94 114 -320 291 -508 398 -94 53 -127 61 -178 43z"/>
<path d="M923 5396 c-166 -41 -293 -168 -338 -341 -47 -184 35 -397 196 -504
51 -34 69 -41 111 -41 91 0 155 50 165 128 8 58 -17 104 -81 151 -62 46 -88
87 -89 141 -2 76 51 129 150 151 74 17 113 45 141 99 27 55 28 92 2 145 -38
78 -126 102 -257 71z"/>
<path d="M2842 5085 c-157 -69 -238 -294 -161 -453 53 -108 134 -147 289 -140
121 6 164 25 197 88 28 52 29 94 5 142 -14 27 -18 50 -14 91 8 102 -57 225
-140 266 -51 24 -127 27 -176 6z"/>
<path d="M4786 4905 c-47 -17 -94 -59 -112 -102 -21 -49 -18 -204 6 -299 41
-164 142 -310 247 -356 101 -45 212 -20 298 67 66 65 89 122 89 216 0 66 -5
86 -36 151 -59 125 -192 243 -347 309 -75 32 -90 34 -145 14z"/>
<path d="M1955 4717 c-71 -19 -148 -61 -178 -97 -64 -75 -38 -200 49 -236 47
-20 76 -18 146 12 37 15 64 22 70 16 5 -5 15 -32 23 -61 19 -71 36 -95 90
-121 81 -39 165 -19 219 54 29 38 27 149 -3 227 -61 159 -245 250 -416 206z"/>
<path d="M2930 3984 c-140 -37 -230 -151 -230 -289 0 -216 212 -356 521 -343
94 3 121 15 163 72 28 37 28 127 1 175 -17 29 -18 35 -5 39 30 10 78 69 89
108 13 47 -7 130 -36 156 -90 79 -354 122 -503 82z"/>
<path d="M1185 3974 c-62 -5 -176 -24 -215 -36 -52 -16 -88 -45 -110 -88 -67
-131 48 -296 191 -277 22 3 39 2 39 -1 0 -3 -17 -33 -39 -66 -178 -279 -328
-531 -395 -664 -79 -156 -94 -231 -61 -307 20 -50 41 -72 87 -96 75 -38 170
-19 243 50 22 21 65 55 95 76 30 21 118 88 195 149 189 150 489 376 498 376
13 0 7 -123 -8 -190 -34 -146 -106 -342 -176 -483 -73 -146 -201 -370 -265
-465 -69 -103 -81 -139 -65 -198 17 -62 59 -96 125 -102 136 -11 215 80 420
488 145 288 233 496 278 663 20 71 23 106 23 262 -1 191 -12 253 -57 318 -50
70 -173 91 -291 49 -65 -23 -191 -98 -287 -171 -36 -27 -66 -48 -68 -46 -1 1
46 75 106 165 146 216 176 309 137 421 -34 96 -108 152 -222 169 -66 9 -95 10
-178 4z"/>
<path d="M4270 3780 c-206 -36 -360 -199 -360 -382 0 -76 25 -132 84 -186 121
-111 330 -107 465 10 46 40 106 119 137 180 33 65 74 194 74 233 0 36 -32 88
-70 116 -44 32 -221 48 -330 29z m20 -325 c-23 -24 -60 -34 -60 -16 0 9 57 40
74 41 5 0 -1 -11 -14 -25z"/>
<path d="M3446 3385 c-75 -26 -135 -105 -195 -257 -36 -88 -39 -140 -11 -185
34 -57 63 -68 170 -68 87 0 100 3 149 30 62 34 95 80 116 162 19 72 19 126 0
190 -19 65 -48 101 -99 124 -49 22 -77 23 -130 4z"/>
<path d="M4935 3038 c-59 -31 -195 -174 -231 -243 -63 -120 -69 -223 -18 -322
41 -80 100 -117 189 -117 53 0 76 6 139 37 147 73 218 175 224 324 5 113 -13
171 -83 254 -76 92 -137 111 -220 67z"/>
<path d="M3995 2591 c-99 -25 -175 -113 -175 -203 0 -18 15 -85 34 -148 18
-63 36 -127 39 -141 l7 -27 -61 25 c-131 53 -235 38 -319 -46 -88 -88 -116
-194 -99 -373 18 -186 98 -447 164 -534 96 -125 267 -151 369 -56 69 65 84
168 41 274 -14 34 -23 63 -21 65 2 2 19 -5 37 -16 54 -32 130 -45 190 -32 120
26 213 94 256 188 27 59 32 163 13 263 -23 119 -163 559 -203 636 -20 38 -80
92 -121 109 -42 18 -115 25 -151 16z"/>
<path d="M2029 2184 c-84 -25 -182 -132 -259 -281 -46 -88 -38 -171 21 -233
l24 -25 -95 -95 c-150 -149 -197 -272 -187 -480 14 -251 109 -449 291 -602
123 -103 272 -177 413 -204 95 -18 258 -18 345 0 191 41 372 153 481 299 57
77 59 162 5 240 -19 27 -19 27 0 55 80 112 255 537 303 737 70 294 -55 475
-331 475 -136 0 -311 -61 -540 -190 -58 -32 -106 -57 -108 -55 -2 2 -12 42
-22 88 -26 119 -55 181 -106 226 -68 60 -142 74 -235 45z m971 -529 c0 -32
-145 -383 -208 -504 -57 -109 -65 -133 -66 -182 -1 -46 5 -64 28 -100 l29 -43
-72 -67 c-85 -80 -149 -108 -262 -116 -129 -9 -242 30 -364 127 -66 52 -115
118 -138 186 -54 151 -11 321 93 371 l45 21 28 -61 c73 -160 171 -228 285
-198 51 14 110 64 128 108 23 54 18 130 -12 181 l-27 45 23 17 c64 48 440 229
478 230 6 0 12 -7 12 -15z"/>
</g>
</svg>
