<?xml version="1.0" standalone="no"?>
<!DOCTYPE svg PUBLIC "-//W3C//DTD SVG 20010904//EN"
 "http://www.w3.org/TR/2001/REC-SVG-20010904/DTD/svg10.dtd">
<svg version="1.0" xmlns="http://www.w3.org/2000/svg"
 width="600.000000pt" height="600.000000pt" viewBox="0 0 600.000000 600.000000"
 preserveAspectRatio="xMidYMid meet">
<metadata>
Created by potrace 1.15, written by Peter Selinger 2001-2017
</metadata>
<g transform="translate(0.000000,600.000000) scale(0.100000,-0.100000)"
fill="#16364b" stroke="none">
<path d="M1797 5790 c-20 -17 -45 -56 -62 -97 -16 -37 -71 -160 -123 -273 -52
-113 -103 -229 -113 -259 -43 -123 -13 -228 77 -271 124 -61 306 22 600 272
186 158 230 225 205 316 -25 96 -111 144 -196 112 -15 -6 -70 -51 -123 -100
-52 -49 -98 -88 -100 -85 -2 2 16 52 42 110 53 120 59 178 26 233 -30 49 -75
72 -142 72 -49 0 -62 -4 -91 -30z"/>
<path d="M2990 5693 c-69 -36 -99 -118 -66 -181 20 -38 49 -62 143 -117 200
-117 421 -310 492 -428 19 -32 36 -76 38 -101 5 -44 5 -44 -33 -55 -22 -6 -52
-11 -68 -11 -19 0 -40 -12 -66 -38 -51 -51 -62 -111 -31 -175 30 -63 69 -81
158 -75 185 13 310 144 321 335 9 165 -59 295 -254 482 -137 132 -248 218
-396 307 -124 75 -179 88 -238 57z"/>
<path d="M948 5414 c-145 -35 -292 -144 -349 -260 -80 -162 -43 -341 100 -485
77 -77 133 -109 192 -109 113 0 179 99 135 204 -7 18 -35 50 -60 71 -64 53
-87 87 -88 134 -1 77 73 150 152 151 118 1 210 129 167 233 -31 73 -115 94
-249 61z"/>
<path d="M2929 5166 c-78 -28 -134 -89 -184 -199 -34 -75 -39 -127 -21 -189
39 -135 189 -194 376 -149 148 36 181 89 155 249 -27 166 -75 251 -162 287
-43 18 -115 19 -164 1z"/>
<path d="M4757 4857 c-65 -40 -77 -68 -77 -180 0 -167 44 -323 118 -422 29
-38 56 -59 116 -90 71 -36 85 -40 155 -39 112 0 172 36 220 131 26 53 28 163
5 238 -37 118 -147 229 -318 324 -117 65 -164 73 -219 38z"/>
<path d="M2010 4840 c-61 -13 -145 -56 -170 -87 -54 -69 -50 -155 10 -215 35
-35 42 -38 97 -38 37 0 67 6 79 15 20 15 74 21 74 8 0 -34 24 -144 37 -171 21
-44 87 -82 144 -82 84 0 139 59 139 147 -1 106 -57 265 -119 336 -63 71 -186
108 -291 87z"/>
<path d="M2892 4045 c-70 -20 -101 -37 -139 -77 -119 -124 -62 -306 125 -394
116 -55 259 -66 481 -39 151 19 187 36 232 107 61 99 47 186 -39 244 -45 31
-241 113 -337 141 -103 31 -250 39 -323 18z"/>
<path d="M1041 4019 c-70 -12 -115 -41 -146 -93 -76 -130 22 -276 184 -276
l43 0 -19 -24 c-10 -13 -58 -73 -106 -132 -222 -273 -446 -669 -454 -804 -5
-81 32 -145 106 -182 33 -17 71 -28 96 -28 53 0 134 41 160 80 11 17 30 37 41
45 12 8 76 59 142 114 66 55 158 127 204 159 45 32 150 106 231 165 82 59 153
107 158 107 5 0 9 -19 9 -42 0 -111 -49 -288 -127 -463 -156 -347 -224 -478
-336 -643 -51 -76 -71 -114 -74 -145 -11 -92 59 -173 149 -171 82 1 114 37
282 314 225 372 359 672 411 915 24 111 23 329 -1 416 -25 88 -87 152 -165
169 -97 22 -192 -14 -388 -144 -46 -31 -86 -55 -87 -53 -2 2 17 28 43 58 85
100 166 213 197 279 25 53 30 78 31 136 0 61 -4 77 -30 120 -36 57 -96 97
-180 119 -66 17 -282 19 -374 4z"/>
<path d="M4275 3789 c-126 -19 -257 -108 -322 -218 -37 -64 -44 -178 -15 -244
30 -68 93 -130 163 -162 56 -25 70 -27 143 -22 102 6 156 30 236 104 44 40 70
76 94 127 38 78 76 209 76 257 0 40 -26 94 -57 119 -43 34 -212 55 -318 39z
m-8 -334 c-31 -28 -47 -32 -47 -12 0 15 35 35 60 36 10 0 5 -8 -13 -24z"/>
<path d="M3425 3421 c-16 -4 -39 -13 -51 -19 -44 -23 -108 -108 -153 -200 -38
-81 -46 -106 -46 -153 1 -46 6 -63 28 -93 41 -53 74 -66 169 -68 67 -1 91 3
123 19 158 83 220 337 110 455 -47 51 -119 74 -180 59z"/>
<path d="M4985 3103 c-105 -56 -229 -183 -278 -283 -27 -56 -32 -76 -32 -142
0 -69 3 -80 30 -119 18 -26 50 -53 80 -68 43 -23 62 -26 145 -26 85 0 101 3
153 30 132 66 202 191 195 348 -5 105 -33 167 -106 231 -48 42 -57 46 -105 46
-29 -1 -65 -8 -82 -17z"/>
<path d="M3863 2608 c-58 -28 -99 -77 -118 -142 -19 -64 -14 -93 45 -257 22
-62 40 -116 40 -120 0 -4 -25 1 -55 12 -30 10 -80 19 -112 19 -157 0 -285
-145 -285 -322 0 -38 -1 -68 -3 -68 -1 0 -12 27 -24 59 -28 77 -94 151 -163
182 -76 34 -186 32 -285 -5 -98 -36 -267 -116 -352 -165 -38 -23 -73 -41 -78
-41 -5 0 -17 42 -27 93 -39 194 -107 326 -191 374 -102 57 -229 51 -333 -17
-120 -77 -257 -280 -269 -398 -5 -40 -15 -68 -41 -106 -47 -69 -87 -157 -113
-252 -30 -111 -39 -386 -15 -504 57 -279 226 -487 499 -615 216 -102 516 -80
775 55 143 74 280 207 303 295 6 22 32 83 59 135 65 129 152 335 188 450 37
116 72 291 73 368 1 31 3 48 6 37 19 -79 177 -535 195 -561 129 -188 437 -60
415 173 -3 32 -8 68 -12 81 l-8 23 39 -16 c125 -53 327 30 388 159 60 128 27
336 -106 666 -28 69 -64 160 -79 203 -16 42 -35 89 -43 105 -21 39 -75 89
-118 106 -53 22 -144 20 -195 -6z m-1774 -978 c56 -293 53 -283 100 -333 34
-37 82 -57 137 -57 54 0 91 14 129 49 69 65 504 305 521 288 10 -10 -35 -185
-73 -282 -20 -49 -64 -150 -99 -223 -35 -74 -67 -150 -70 -170 -19 -104 -142
-209 -283 -242 -33 -8 -86 -11 -136 -8 -102 7 -181 42 -280 125 -131 111 -169
196 -169 383 -1 160 28 247 128 390 24 34 30 53 31 98 1 57 22 120 35 105 4
-5 17 -60 29 -123z"/>
</g>
</svg>
