<?xml version="1.0" standalone="no"?>
<!DOCTYPE svg PUBLIC "-//W3C//DTD SVG 20010904//EN"
 "http://www.w3.org/TR/2001/REC-SVG-20010904/DTD/svg10.dtd">
<svg version="1.0" xmlns="http://www.w3.org/2000/svg"
 width="600.000000pt" height="600.000000pt" viewBox="0 0 600.000000 600.000000"
 preserveAspectRatio="xMidYMid meet">
<metadata>
Created by potrace 1.15, written by Peter Selinger 2001-2017
</metadata>
<g transform="translate(0.000000,600.000000) scale(0.100000,-0.100000)"
fill="#16364b" stroke="none">
<path d="M1360 5706 c-217 -84 -286 -120 -306 -158 -28 -54 -10 -108 45 -134
32 -16 51 -16 206 -6 93 7 213 12 266 12 143 0 179 18 179 90 0 43 -47 90 -89
90 -36 0 -37 4 -11 37 46 59 5 144 -69 142 -20 -1 -119 -33 -221 -73z"/>
<path d="M2339 5401 l-29 -29 0 -214 c0 -305 -19 -414 -87 -505 -42 -57 -102
-101 -183 -134 -67 -27 -90 -51 -90 -96 0 -47 37 -83 85 -83 49 0 164 50 242
106 187 133 246 332 223 751 -9 170 -12 188 -32 210 -32 35 -91 32 -129 -6z"/>
<path d="M3530 5316 c-40 -22 -73 -90 -65 -134 30 -159 213 -311 330 -272 77
25 95 112 46 217 -43 89 -121 167 -190 187 -66 19 -88 20 -121 2z"/>
<path d="M2983 5109 c-77 -38 -141 -143 -150 -249 -7 -73 9 -121 53 -160 60
-53 159 -39 250 35 57 47 79 106 79 211 0 73 -3 84 -28 117 -52 69 -125 85
-204 46z m62 -212 c-7 -25 -35 -46 -35 -26 0 13 32 61 37 55 2 -2 1 -15 -2
-29z"/>
<path d="M4771 4766 c-45 -25 -50 -50 -50 -221 0 -234 24 -344 92 -417 39 -42
86 -61 153 -62 229 -3 248 306 36 570 -26 32 -71 77 -100 101 -56 46 -88 53
-131 29z"/>
<path d="M2675 4216 c-92 -29 -145 -95 -145 -181 0 -142 140 -245 314 -232 83
6 139 29 224 92 74 54 96 92 89 152 -7 63 -33 86 -150 127 -159 55 -252 67
-332 42z"/>
<path d="M1145 4143 c-69 -18 -108 -91 -82 -155 l15 -36 -30 -13 c-41 -17 -68
-64 -68 -118 0 -39 5 -49 44 -87 53 -51 137 -84 227 -91 110 -9 197 32 245
112 61 105 18 236 -104 314 -76 49 -199 86 -247 74z"/>
<path d="M5223 3825 c-110 -30 -183 -88 -225 -180 -19 -41 -23 -67 -23 -145 0
-88 3 -101 33 -163 41 -82 107 -139 189 -163 77 -22 150 -13 240 31 107 53
172 142 192 262 23 143 -38 254 -194 354 -37 23 -134 25 -212 4z m95 -303 c16
-11 6 -39 -19 -53 -23 -12 -39 -4 -39 20 0 32 31 50 58 33z"/>
<path d="M4211 3764 c-111 -30 -222 -137 -252 -242 -26 -93 3 -208 73 -287 77
-89 218 -117 323 -65 135 66 225 226 225 400 0 117 -38 161 -165 194 -72 19
-133 19 -204 0z m72 -295 c-6 -21 -50 -56 -59 -46 -11 11 8 48 29 57 33 13 36
12 30 -11z"/>
<path d="M3463 3373 c-36 -7 -79 -66 -144 -195 -48 -95 -59 -126 -54 -149 8
-37 49 -69 89 -69 36 0 106 41 148 86 38 42 86 136 93 187 13 85 -53 155 -132
140z"/>
<path d="M1620 3123 c-159 -17 -372 -74 -455 -122 -175 -101 -265 -258 -265
-461 0 -172 52 -286 190 -413 61 -57 99 -80 229 -144 133 -65 164 -84 216
-137 67 -68 106 -140 155 -286 46 -138 85 -206 165 -286 56 -57 88 -80 165
-117 220 -105 412 -121 687 -57 51 12 156 23 280 30 685 37 945 123 1297 428
120 105 182 185 247 317 123 253 141 483 53 659 -46 91 -159 214 -259 280 -96
64 -183 90 -300 90 -116 0 -173 -18 -314 -104 -129 -77 -304 -124 -380 -102
-20 6 -85 11 -146 11 -193 -1 -331 44 -572 187 -268 158 -547 236 -834 232
-68 0 -140 -3 -159 -5z m435 -416 c163 -46 186 -56 435 -194 198 -109 376
-180 515 -204 39 -6 88 -20 111 -30 52 -24 71 -24 244 6 286 50 438 102 583
200 63 43 98 44 158 7 50 -33 137 -125 151 -162 20 -53 -28 -214 -105 -348
-43 -77 -154 -192 -244 -253 -193 -133 -381 -176 -888 -199 -202 -10 -253 -15
-325 -36 -195 -56 -299 -66 -400 -39 -108 29 -179 105 -241 260 -143 356 -306
540 -574 645 -44 18 -95 39 -112 47 -65 30 -91 116 -58 187 28 60 91 91 250
126 131 29 372 22 500 -13z"/>
<path d="M438 2124 c-62 -33 -62 -74 -2 -190 85 -162 149 -243 231 -291 158
-93 315 26 243 184 -42 93 -155 187 -322 268 -100 49 -110 51 -150 29z"/>
<path d="M4995 1441 c-11 -5 -29 -18 -39 -30 -12 -13 -26 -19 -37 -16 -28 9
-87 -21 -109 -57 -26 -41 -22 -120 10 -215 43 -124 124 -174 215 -134 77 34
107 100 120 272 6 70 4 92 -9 118 -30 56 -97 84 -151 62z"/>
</g>
</svg>
