<?xml version="1.0" standalone="no"?>
<!DOCTYPE svg PUBLIC "-//W3C//DTD SVG 20010904//EN"
 "http://www.w3.org/TR/2001/REC-SVG-20010904/DTD/svg10.dtd">
<svg version="1.0" xmlns="http://www.w3.org/2000/svg"
 width="600.000000pt" height="600.000000pt" viewBox="0 0 600.000000 600.000000"
 preserveAspectRatio="xMidYMid meet">
<metadata>
Created by potrace 1.15, written by Peter Selinger 2001-2017
</metadata>
<g transform="translate(0.000000,600.000000) scale(0.100000,-0.100000)"
fill="#16364b" stroke="none">
<path d="M3010 5048 c-87 -59 -138 -180 -109 -261 35 -101 156 -69 249 66 46
65 53 141 18 181 -35 41 -109 47 -158 14z m101 -38 c24 -13 25 -59 3 -106 -20
-41 -109 -124 -134 -124 -33 0 -39 51 -15 121 18 51 49 86 90 105 37 16 33 16
56 4z"/>
<path d="M1772 4627 c-55 -21 -103 -67 -129 -124 -35 -76 -29 -150 19 -258 66
-145 107 -421 133 -890 3 -60 15 -195 25 -300 30 -299 33 -387 20 -585 -18
-277 2 -472 72 -690 76 -238 179 -377 354 -476 72 -40 179 -79 245 -89 l46 -7
0 -146 c-1 -179 29 -347 93 -531 11 -30 20 -61 20 -67 0 -8 -31 -13 -99 -16
-81 -2 -105 -7 -127 -24 -55 -41 -52 -103 9 -148 34 -25 138 -34 212 -17 96
22 165 96 165 179 0 24 -18 101 -40 173 -57 187 -82 316 -82 439 -1 58 2 116
6 129 7 21 12 23 55 17 25 -3 245 -9 489 -12 l443 -7 -5 -22 c-34 -134 -4
-397 70 -609 31 -92 29 -96 -60 -96 -118 0 -176 -37 -176 -110 0 -68 73 -109
168 -95 157 23 262 108 262 211 0 20 -18 93 -40 162 -66 211 -95 436 -68 536
l13 50 95 17 c207 37 470 109 560 154 230 115 351 333 337 604 -11 225 -105
396 -277 503 -176 110 -292 162 -484 214 -142 38 -203 62 -479 188 -370 169
-652 354 -777 511 -57 72 -136 194 -197 305 -145 261 -311 540 -364 614 -35
49 -79 111 -97 137 -41 59 -119 123 -189 156 -62 29 -172 39 -221 20z m181
-168 c41 -27 117 -122 117 -146 0 -5 11 -20 25 -33 42 -40 196 -283 359 -567
85 -150 174 -301 197 -335 92 -136 195 -225 446 -382 169 -106 242 -145 513
-272 254 -119 274 -127 450 -177 191 -56 248 -78 325 -126 33 -21 84 -53 113
-71 131 -81 211 -252 199 -425 -13 -184 -116 -348 -266 -424 -96 -49 -442
-130 -646 -152 -100 -11 -559 -8 -1115 6 -191 5 -302 38 -401 121 -117 97
-215 291 -265 524 -23 105 -25 366 -5 545 16 138 10 288 -19 530 -11 88 -26
255 -35 370 -38 515 -69 696 -147 860 -31 67 -35 103 -13 145 17 33 27 38 81
39 29 1 53 -7 87 -30z"/>
<path d="M2551 2658 c-34 -18 -45 -40 -37 -72 7 -30 56 -57 88 -48 40 10 65
86 35 110 -22 18 -61 23 -86 10z"/>
<path d="M2976 2418 c-22 -32 -20 -55 9 -83 45 -46 105 -20 105 46 0 55 -83
82 -114 37z"/>
<path d="M5280 3970 c-116 -25 -218 -109 -254 -211 -51 -140 1 -306 122 -394
61 -44 115 -58 199 -53 177 10 314 151 330 338 10 123 -40 214 -157 285 -49
30 -71 37 -127 40 -38 2 -88 0 -113 -5z m109 -315 c3 -4 -7 -18 -23 -31 -33
-29 -56 -19 -56 24 0 23 3 24 36 19 20 -3 39 -9 43 -12z"/>
<path d="M4235 3751 c-62 -11 -144 -61 -186 -113 -52 -67 -73 -133 -67 -222
11 -162 118 -266 275 -266 214 0 342 203 273 432 -12 40 -31 84 -43 96 -52 56
-163 89 -252 73z m55 -296 c0 -29 -37 -55 -46 -31 -7 19 13 56 31 56 9 0 15
-10 15 -25z"/>
<path d="M5329 1100 c-19 -11 -54 -89 -64 -142 -15 -80 34 -148 108 -148 32 0
46 6 72 35 54 57 73 189 34 239 -18 23 -28 26 -77 26 -31 0 -64 -5 -73 -10z"/>
</g>
</svg>
