<?xml version="1.0" standalone="no"?>
<!DOCTYPE svg PUBLIC "-//W3C//DTD SVG 20010904//EN"
 "http://www.w3.org/TR/2001/REC-SVG-20010904/DTD/svg10.dtd">
<svg version="1.0" xmlns="http://www.w3.org/2000/svg"
 width="600.000000pt" height="600.000000pt" viewBox="0 0 600.000000 600.000000"
 preserveAspectRatio="xMidYMid meet">
<metadata>
Created by potrace 1.15, written by Peter Selinger 2001-2017
</metadata>
<g transform="translate(0.000000,600.000000) scale(0.100000,-0.100000)"
fill="#16364b" stroke="none">
<path d="M2850 5568 c-67 -46 -144 -243 -144 -373 -1 -71 3 -86 29 -134 63
-113 137 -144 335 -139 71 2 130 1 130 -1 0 -2 -28 -29 -62 -60 -48 -43 -354
-330 -447 -419 -7 -7 -29 -31 -47 -53 -29 -35 -34 -48 -34 -94 0 -46 5 -60 37
-101 67 -89 76 -92 384 -149 107 -20 264 -54 349 -75 174 -45 215 -48 268 -21
87 45 101 149 29 227 -28 30 -50 40 -167 74 -74 22 -209 54 -300 71 -213 41
-198 35 -169 65 36 39 312 281 404 354 164 130 190 167 183 257 -6 70 -45 126
-115 165 -86 48 -140 58 -330 58 -95 0 -173 3 -173 6 0 3 19 46 41 95 47 100
50 152 11 207 -45 62 -150 82 -212 40z"/>
<path d="M1562 5294 c-159 -56 -355 -248 -497 -486 -144 -241 -161 -385 -55
-456 42 -29 76 -27 255 12 118 26 315 46 315 32 0 -4 -20 -53 -44 -109 -91
-210 -119 -323 -93 -376 14 -28 14 -31 -4 -36 -29 -9 -78 -54 -94 -86 -47 -91
29 -206 134 -203 78 3 515 173 605 237 32 23 65 88 66 129 0 44 -30 106 -62
129 -56 40 -97 37 -202 -17 -52 -27 -97 -46 -100 -43 -3 3 18 65 45 139 62
163 84 274 69 343 -16 76 -46 125 -96 157 -71 44 -128 54 -296 47 -81 -3 -148
-3 -148 0 0 10 76 106 118 149 63 64 122 109 192 145 76 40 110 83 110 141 0
113 -110 190 -218 152z"/>
<path d="M4445 4571 c-54 -16 -290 -113 -358 -148 -90 -46 -87 -187 5 -243 55
-34 96 -26 255 46 80 36 148 63 151 59 19 -19 -104 -277 -231 -485 -107 -174
-106 -208 12 -323 71 -70 79 -72 291 -87 210 -14 275 -21 291 -30 10 -7 -16
-68 -120 -275 -140 -280 -150 -310 -121 -370 36 -73 141 -98 211 -51 30 21 58
68 171 288 174 338 194 399 163 503 -27 94 -111 167 -226 195 -24 6 -117 16
-207 24 -89 7 -164 15 -167 18 -3 3 8 30 26 59 32 54 125 251 173 366 32 77
56 174 56 230 0 97 -61 192 -147 228 -47 20 -153 18 -228 -4z"/>
<path d="M3797 3679 c-90 -14 -178 -73 -214 -143 -8 -16 -17 -54 -20 -85 -5
-68 16 -115 67 -149 29 -20 44 -23 89 -19 48 3 59 9 93 45 30 33 40 38 45 26
10 -27 -6 -104 -39 -181 l-33 -75 -65 -23 c-127 -43 -234 -113 -290 -188 -70
-95 -13 -239 100 -254 65 -9 105 4 158 52 66 59 132 88 271 120 63 14 128 33
144 43 74 43 94 118 53 195 l-26 48 21 81 c55 213 -17 412 -176 483 -59 27
-112 34 -178 24z"/>
<path d="M2465 3570 c-123 -25 -342 -153 -382 -225 -46 -81 -20 -179 57 -217
55 -28 92 -22 203 32 113 55 196 80 269 80 36 0 50 -4 55 -16 15 -41 -67 -248
-162 -409 -75 -128 -80 -176 -23 -241 l30 -34 -26 -25 c-33 -31 -66 -100 -66
-140 0 -65 69 -160 133 -184 43 -17 111 -13 174 8 180 61 367 108 392 100 6
-3 -8 -49 -35 -114 -71 -172 -80 -208 -65 -263 41 -155 222 -204 329 -90 43
47 146 326 163 442 12 86 4 145 -29 215 -49 106 -162 183 -288 196 -78 9 -239
-10 -354 -41 -47 -12 -86 -21 -87 -20 -2 1 29 63 67 137 168 328 190 559 65
707 -71 85 -268 132 -420 102z"/>
<path d="M1095 3271 c-73 -25 -133 -57 -195 -105 -73 -56 -95 -95 -95 -171 0
-83 33 -148 94 -187 43 -28 51 -29 119 -25 l73 6 -7 -37 c-3 -20 -15 -80 -25
-133 -64 -335 -72 -401 -73 -579 -1 -162 1 -178 21 -216 45 -85 112 -118 226
-112 100 5 122 23 194 156 117 219 267 437 436 635 l50 58 18 -42 c33 -73 20
-264 -36 -544 -48 -241 -56 -294 -56 -411 -1 -85 3 -110 18 -137 60 -102 206
-103 273 -3 l24 38 13 -69 c8 -37 25 -140 39 -228 39 -252 88 -426 149 -529
29 -50 117 -136 163 -160 52 -27 128 -37 194 -26 76 12 189 64 226 104 16 17
46 43 65 59 27 20 57 69 122 195 47 92 108 195 136 230 54 68 121 122 151 122
28 0 74 -26 168 -95 198 -146 331 -176 471 -104 59 29 127 96 154 149 12 25
33 54 45 65 63 56 85 169 55 290 -8 33 -18 101 -21 152 l-7 92 29 12 c18 7
107 14 229 16 234 5 295 19 367 83 90 79 146 245 135 400 -8 119 -45 181 -132
221 -133 61 -300 -46 -322 -206 l-6 -45 -153 0 c-176 0 -265 -15 -366 -62 -75
-34 -151 -106 -187 -176 -54 -106 -69 -309 -39 -504 8 -49 13 -88 11 -88 -2 0
-40 27 -85 61 -144 106 -223 135 -356 126 -73 -4 -96 -11 -166 -45 -187 -93
-312 -245 -497 -602 -19 -36 -42 -66 -51 -68 -24 -5 -50 85 -88 303 -54 310
-82 408 -131 454 -98 92 -229 77 -292 -34 l-28 -50 5 101 c3 55 17 161 32 235
55 288 57 307 57 524 0 431 -63 570 -258 570 -57 0 -81 -5 -130 -29 -79 -38
-212 -173 -325 -328 -47 -65 -88 -118 -91 -118 -4 0 -1 28 6 63 28 131 57 402
52 478 -8 130 -62 218 -162 265 -61 29 -164 31 -240 5z"/>
</g>
</svg>
