<?xml version="1.0" standalone="no"?>
<!DOCTYPE svg PUBLIC "-//W3C//DTD SVG 20010904//EN"
 "http://www.w3.org/TR/2001/REC-SVG-20010904/DTD/svg10.dtd">
<svg version="1.0" xmlns="http://www.w3.org/2000/svg"
 width="600.000000pt" height="600.000000pt" viewBox="0 0 600.000000 600.000000"
 preserveAspectRatio="xMidYMid meet">
<metadata>
Created by potrace 1.15, written by Peter Selinger 2001-2017
</metadata>
<g transform="translate(0.000000,600.000000) scale(0.100000,-0.100000)"
fill="#16364b" stroke="none">
<path d="M3080 5667 c-47 -31 -73 -80 -74 -138 -1 -71 21 -94 163 -166 208
-106 295 -174 344 -268 74 -145 -19 -273 -302 -415 -65 -33 -107 -60 -122 -81
-71 -100 2 -244 125 -244 96 0 330 138 467 275 174 173 213 396 108 609 -66
133 -239 274 -482 392 -136 66 -175 72 -227 36z"/>
<path d="M2075 5624 c-16 -8 -52 -37 -80 -63 -27 -26 -95 -86 -150 -133 -191
-163 -340 -336 -365 -426 -20 -72 -13 -126 23 -178 88 -133 294 -149 632 -49
173 51 288 94 313 118 76 71 67 187 -20 244 -50 34 -93 33 -200 -5 -97 -35
-278 -86 -283 -80 -2 2 61 71 141 153 178 184 204 221 204 289 0 57 -21 97
-66 127 -36 23 -108 25 -149 3z"/>
<path d="M1003 5316 c-161 -76 -287 -222 -323 -375 -38 -164 41 -407 180 -552
62 -65 113 -86 176 -74 51 9 108 67 124 125 16 60 1 105 -56 172 -93 107 -124
220 -84 302 25 54 59 83 140 127 74 39 100 77 100 147 0 43 -5 57 -31 87 -62
71 -134 83 -226 41z"/>
<path d="M4710 4859 c-62 -25 -97 -81 -106 -166 -14 -146 -12 -164 34 -256
131 -265 397 -343 557 -165 100 112 96 264 -11 395 -102 125 -370 233 -474
192z"/>
<path d="M2785 4805 c-139 -72 -235 -156 -281 -245 -11 -22 -19 -65 -22 -117
-4 -76 -2 -87 24 -140 55 -109 148 -177 291 -213 80 -21 115 -20 165 6 60 31
75 116 32 180 -34 50 -49 61 -108 79 -55 16 -96 40 -96 55 0 22 67 83 132 121
75 44 107 90 108 154 0 47 -40 116 -80 137 -51 26 -90 22 -165 -17z"/>
<path d="M1843 4359 c-113 -19 -215 -72 -310 -162 -68 -64 -83 -92 -83 -154 0
-88 63 -153 148 -153 54 0 73 10 143 74 55 51 129 86 181 86 15 0 51 -9 80
-21 34 -13 65 -19 86 -15 85 13 149 96 140 181 -10 85 -70 134 -197 161 -73
15 -111 16 -188 3z"/>
<path d="M2580 3804 c-138 -29 -196 -52 -228 -89 -52 -59 -54 -137 -5 -196 54
-63 104 -72 233 -39 43 11 107 21 142 23 l63 2 -1 -35 c-3 -100 -191 -391
-392 -606 -111 -120 -132 -153 -132 -210 0 -75 77 -154 149 -154 62 1 112 33
217 141 153 158 267 320 377 537 77 150 101 229 102 327 0 155 -74 255 -224
299 -67 20 -211 20 -301 0z"/>
<path d="M4114 3751 c-102 -29 -161 -76 -206 -161 -32 -63 -32 -175 1 -242 36
-75 95 -134 168 -170 57 -28 77 -32 137 -32 89 1 142 24 219 94 60 55 118 144
158 243 21 53 22 63 12 133 -12 87 -41 127 -102 144 -61 17 -317 11 -387 -9z
m126 -286 c0 -2 -9 -9 -20 -15 -22 -12 -44 -5 -35 11 6 9 55 13 55 4z"/>
<path d="M1205 3680 c-78 -12 -131 -29 -223 -71 -109 -50 -150 -81 -173 -133
-74 -162 88 -347 246 -282 19 8 35 13 35 10 0 -3 -47 -114 -104 -247 -135
-314 -236 -625 -236 -721 1 -89 82 -169 185 -181 107 -14 115 -8 385 285 74
80 194 208 266 285 73 77 141 151 153 165 l20 25 0 -45 c1 -70 -35 -294 -64
-405 -14 -55 -55 -190 -91 -300 -118 -360 -127 -421 -74 -495 67 -94 212 -77
251 30 62 168 193 584 214 676 38 172 76 489 78 654 2 167 -11 219 -68 269
-81 70 -179 65 -293 -16 -37 -26 -143 -122 -235 -214 -92 -92 -165 -158 -162
-148 4 10 44 96 89 191 110 229 131 292 131 393 0 66 -4 89 -25 128 -56 111
-172 166 -305 147z"/>
<path d="M3542 3351 c-108 -38 -185 -148 -217 -310 -20 -95 -16 -168 9 -206
10 -15 39 -36 64 -47 40 -18 53 -19 92 -10 25 5 78 18 119 27 198 44 305 143
305 280 0 188 -197 329 -372 266z"/>
<path d="M4800 2784 c-112 -31 -183 -93 -221 -194 -85 -225 166 -479 370 -375
85 43 123 120 125 255 1 66 -3 90 -16 110 -10 13 -18 36 -18 50 -1 45 -36 107
-77 134 -50 33 -96 39 -163 20z"/>
<path d="M2975 2474 c-168 -26 -532 -173 -628 -253 -37 -31 -67 -94 -67 -141
0 -107 108 -202 211 -186 21 3 98 37 171 75 156 81 308 139 308 116 0 -40 -87
-272 -146 -388 -64 -127 -66 -134 -62 -193 7 -110 81 -184 184 -184 96 0 146
45 242 217 133 238 185 406 186 593 1 104 -2 120 -25 170 -51 110 -143 169
-272 175 -39 2 -85 1 -102 -1z"/>
<path d="M4350 2385 c-87 -27 -151 -103 -166 -194 -4 -25 0 -76 11 -131 10
-50 15 -93 13 -96 -3 -2 -54 12 -114 33 -95 32 -121 37 -204 38 -86 0 -101 -3
-153 -30 -97 -49 -170 -145 -198 -262 -28 -115 0 -514 43 -615 23 -54 82 -112
137 -135 85 -36 204 -7 258 64 48 63 55 116 37 301 -8 90 -14 166 -11 168 4 5
105 -36 162 -65 101 -53 320 0 410 100 110 122 137 311 84 578 -30 147 -81
216 -185 247 -56 17 -66 17 -124 -1z"/>
<path d="M2085 1872 c-169 -56 -193 -270 -38 -345 46 -22 46 -23 69 -107 12
-47 32 -111 44 -142 l21 -58 -25 -64 c-20 -49 -26 -82 -26 -138 1 -137 55
-241 205 -392 112 -113 177 -156 331 -216 197 -77 311 -94 440 -65 89 19 190
62 242 102 70 53 90 150 48 238 -57 122 -154 147 -295 78 -68 -34 -84 -38
-151 -37 -54 0 -88 6 -123 22 l-48 22 31 39 c69 86 57 192 -28 255 -17 12 -51
50 -76 83 -26 34 -62 75 -81 92 -42 36 -61 82 -120 287 -54 186 -79 239 -141
293 -77 68 -178 87 -279 53z"/>
</g>
</svg>
