<?xml version="1.0" standalone="no"?>
<!DOCTYPE svg PUBLIC "-//W3C//DTD SVG 20010904//EN"
 "http://www.w3.org/TR/2001/REC-SVG-20010904/DTD/svg10.dtd">
<svg version="1.0" xmlns="http://www.w3.org/2000/svg"
 width="600.000000pt" height="600.000000pt" viewBox="0 0 600.000000 600.000000"
 preserveAspectRatio="xMidYMid meet">
<metadata>
Created by potrace 1.15, written by Peter Selinger 2001-2017
</metadata>
<g transform="translate(0.000000,600.000000) scale(0.100000,-0.100000)"
fill="#16364b" stroke="none">
<path d="M2740 5558 c-40 -20 -50 -33 -87 -108 -67 -137 -90 -266 -60 -347 24
-65 73 -119 133 -149 58 -28 62 -29 227 -29 92 0 166 -2 165 -5 -2 -3 -46 -44
-98 -91 -135 -121 -209 -200 -333 -357 -127 -159 -137 -177 -137 -233 0 -53
47 -131 93 -152 18 -9 89 -23 157 -31 217 -28 438 -68 646 -117 28 -6 67 -9
87 -5 69 13 127 84 127 156 0 41 -33 103 -65 124 -42 28 -391 96 -567 112 -43
3 -78 10 -78 14 0 20 225 241 345 340 206 170 245 221 248 324 3 157 -185 235
-533 219 l-123 -6 6 30 c3 16 18 56 33 88 53 118 9 219 -106 240 -26 4 -47 0
-80 -17z"/>
<path d="M1570 5227 c-200 -83 -425 -315 -547 -564 -52 -106 -55 -116 -51
-173 4 -52 9 -65 38 -95 54 -55 85 -60 229 -36 73 12 168 21 232 21 127 0 123
6 85 -117 -62 -196 -69 -266 -36 -320 11 -18 24 -33 30 -33 5 0 10 -4 10 -10
0 -5 -31 -18 -69 -30 -54 -16 -77 -29 -105 -60 -60 -67 -51 -170 21 -224 52
-39 95 -34 314 39 246 81 397 150 430 196 33 46 37 132 10 177 -27 42 -77 72
-121 72 -20 0 -77 -19 -130 -44 -84 -38 -95 -41 -98 -25 -2 9 15 69 37 133 48
138 65 244 51 315 -19 102 -76 177 -165 217 -58 27 -209 49 -272 40 -23 -3
-43 -2 -43 2 0 4 35 42 78 84 78 77 185 158 208 158 21 0 76 52 90 87 30 71 8
157 -51 193 -43 26 -106 25 -175 -3z"/>
<path d="M4410 4650 c-104 -13 -332 -100 -408 -157 -112 -84 -63 -268 72 -266
25 1 76 16 132 41 95 42 220 83 228 75 2 -3 -8 -32 -24 -66 -27 -60 -47 -103
-178 -379 -33 -70 -63 -140 -67 -157 -12 -56 12 -110 77 -170 33 -31 66 -59
73 -64 8 -4 105 -12 217 -17 207 -11 324 -25 334 -41 10 -16 -16 -79 -132
-318 -120 -247 -130 -281 -99 -340 25 -50 71 -81 120 -81 89 0 101 14 190 210
196 432 215 481 215 563 0 99 -53 178 -147 220 -74 33 -171 52 -357 72 -83 8
-151 17 -153 19 -2 1 22 50 52 107 144 270 186 381 187 494 1 89 -20 143 -78
194 -62 54 -144 74 -254 61z"/>
<path d="M3710 3642 c-78 -26 -110 -45 -158 -91 -108 -105 -109 -229 -1 -290
48 -27 111 -27 160 1 22 12 39 25 39 29 0 18 69 79 89 79 17 0 21 -6 21 -33 0
-18 -7 -58 -16 -88 -19 -64 -94 -219 -107 -219 -19 0 -176 -84 -224 -121 -62
-46 -83 -82 -83 -140 0 -89 83 -156 181 -147 31 3 61 14 77 27 61 49 135 83
269 127 161 52 215 85 244 147 35 78 23 147 -37 208 l-35 36 16 64 c48 185 2
327 -129 394 -51 26 -71 30 -155 32 -72 2 -110 -1 -151 -15z"/>
<path d="M2445 3546 c-83 -23 -132 -43 -247 -103 -133 -69 -163 -104 -163
-189 0 -59 20 -94 75 -131 46 -32 93 -29 176 11 139 66 310 113 364 99 21 -6
22 -10 16 -65 -8 -77 -46 -191 -102 -301 -31 -63 -44 -100 -44 -131 0 -112
124 -180 229 -126 45 22 81 75 146 212 64 136 88 230 89 358 1 100 -1 109 -32
172 -39 79 -92 130 -180 171 -58 27 -78 31 -171 33 -66 2 -125 -2 -156 -10z"/>
<path d="M1100 3216 c-112 -42 -203 -107 -226 -163 -34 -80 -1 -176 75 -225
39 -25 55 -29 106 -27 l60 3 -3 -45 c-2 -24 -14 -141 -28 -259 -38 -329 -31
-590 19 -687 44 -84 112 -115 204 -93 68 17 114 54 145 118 64 132 184 321
301 477 86 114 178 225 187 225 4 0 15 -19 24 -43 11 -31 16 -75 16 -159 0
-152 -11 -225 -72 -503 -28 -126 -51 -252 -52 -280 0 -63 24 -106 77 -135 48
-27 119 -24 163 7 l29 21 1 -77 c3 -148 58 -393 131 -580 67 -171 151 -274
270 -333 60 -29 77 -33 149 -33 75 0 87 3 166 42 49 25 101 60 124 83 21 23
60 50 85 61 62 27 86 55 148 173 116 220 223 346 294 346 31 0 93 -30 192 -93
137 -87 294 -101 420 -37 86 43 169 123 185 177 8 27 27 53 56 78 94 78 114
183 57 305 -34 72 -57 162 -52 200 5 32 53 46 229 65 74 8 164 24 200 35 136
40 238 134 282 257 27 74 35 198 17 260 -26 94 -133 165 -248 165 -59 0 -107
-20 -148 -62 -41 -42 -60 -83 -68 -146 l-7 -51 -107 -7 c-455 -27 -590 -146
-591 -518 0 -144 13 -253 40 -342 12 -37 16 -64 10 -70 -6 -6 -55 18 -128 63
-183 111 -288 142 -412 122 -198 -32 -349 -179 -549 -534 -40 -70 -78 -127
-85 -127 -7 0 -33 -13 -59 -30 -26 -16 -52 -30 -58 -30 -18 0 -68 121 -93 229
-14 58 -35 171 -46 251 -26 181 -44 222 -120 268 -49 30 -62 33 -112 30 -42
-3 -65 -11 -92 -32 -20 -15 -36 -25 -36 -23 0 2 9 46 20 98 82 377 94 474 87
721 -5 208 -24 312 -73 409 -70 139 -231 170 -377 73 -51 -33 -272 -255 -307
-307 -14 -20 -28 -37 -31 -37 -3 0 -1 33 3 73 5 39 10 156 11 258 l2 186 -35
69 c-38 74 -95 123 -168 144 -50 14 -159 11 -202 -4z"/>
<path d="M3060 2594 c-52 -8 -126 -23 -165 -33 -219 -58 -333 -94 -362 -114
-40 -26 -73 -90 -73 -138 1 -72 58 -153 132 -183 50 -21 110 -20 221 5 147 33
335 69 357 69 25 0 22 -19 -20 -125 -38 -96 -43 -127 -30 -174 22 -81 121
-142 207 -126 100 18 155 74 206 209 96 249 87 407 -27 522 -94 93 -237 122
-446 88z"/>
</g>
</svg>
