<?xml version="1.0" standalone="no"?>
<!DOCTYPE svg PUBLIC "-//W3C//DTD SVG 20010904//EN"
 "http://www.w3.org/TR/2001/REC-SVG-20010904/DTD/svg10.dtd">
<svg version="1.0" xmlns="http://www.w3.org/2000/svg"
 width="600.000000pt" height="600.000000pt" viewBox="0 0 600.000000 600.000000"
 preserveAspectRatio="xMidYMid meet">
<metadata>
Created by potrace 1.15, written by Peter Selinger 2001-2017
</metadata>
<g transform="translate(0.000000,600.000000) scale(0.100000,-0.100000)"
fill="#16364b" stroke="none">
<path d="M1565 5796 c-40 -18 -50 -31 -134 -180 -138 -243 -165 -320 -140
-397 16 -49 65 -89 109 -89 43 0 108 27 189 77 98 61 258 180 315 235 43 41
46 48 46 95 0 57 -22 93 -72 119 -44 23 -79 10 -159 -57 -39 -32 -73 -59 -75
-59 -3 0 8 26 24 58 40 77 42 85 31 124 -17 65 -78 98 -134 74z"/>
<path d="M2381 5447 c-13 -6 -33 -24 -44 -38 -17 -24 -20 -46 -22 -210 -2
-159 -6 -197 -28 -281 -30 -114 -84 -222 -138 -278 -21 -22 -67 -54 -101 -71
-35 -17 -73 -40 -85 -52 -69 -63 -9 -187 91 -187 82 0 230 109 305 223 120
184 181 428 181 723 l0 116 -34 34 c-37 37 -80 44 -125 21z"/>
<path d="M3516 5329 c-40 -31 -69 -95 -63 -137 17 -103 129 -253 222 -296 120
-57 225 -4 225 112 0 72 -90 228 -161 281 -40 30 -124 61 -163 61 -19 0 -45
-9 -60 -21z"/>
<path d="M2972 5148 c-52 -18 -118 -83 -151 -150 -25 -50 -31 -73 -31 -128 0
-59 4 -72 31 -109 64 -89 181 -106 307 -46 91 43 105 69 106 200 1 109 -22
167 -85 211 -45 31 -121 41 -177 22z"/>
<path d="M4771 4757 c-60 -21 -76 -55 -79 -168 -7 -199 41 -386 124 -478 119
-132 312 -126 399 14 27 44 30 56 30 134 0 78 -4 93 -36 162 -57 119 -207 266
-334 325 -57 27 -58 27 -104 11z m214 -428 c9 -17 14 -36 12 -42 -4 -12 -37
44 -37 63 0 18 9 11 25 -21z"/>
<path d="M2697 4230 c-135 -35 -217 -130 -217 -255 0 -225 243 -333 471 -208
73 39 177 129 210 181 45 71 37 154 -19 205 -53 48 -354 100 -445 77z"/>
<path d="M1064 4091 c-92 -42 -100 -190 -13 -253 14 -11 64 -28 112 -38 48
-11 96 -24 109 -31 21 -11 21 -12 2 -26 -67 -51 -186 -95 -319 -118 -70 -13
-84 -19 -112 -50 -27 -28 -33 -43 -33 -80 0 -38 6 -51 36 -85 50 -55 91 -66
190 -51 229 34 465 174 530 316 42 88 28 193 -34 259 -57 60 -180 119 -329
156 -94 24 -89 24 -139 1z"/>
<path d="M4232 3764 c-214 -57 -357 -295 -276 -457 80 -159 295 -206 456 -100
51 34 121 129 148 200 26 70 45 198 36 246 -4 20 -18 49 -31 65 -47 56 -212
79 -333 46z m78 -272 c0 -14 -40 -52 -55 -52 -25 0 -17 28 13 44 31 17 42 19
42 8z"/>
<path d="M1725 3737 c-110 -37 -152 -74 -182 -160 -39 -114 -16 -239 60 -324
59 -65 117 -88 222 -88 76 0 98 4 138 25 50 25 89 67 123 130 28 52 26 179 -3
241 -63 132 -234 216 -358 176z"/>
<path d="M5122 3584 c-87 -29 -171 -80 -201 -122 -83 -117 -82 -269 4 -380 78
-102 173 -143 284 -124 221 37 343 211 286 407 -22 75 -88 167 -159 223 -39
30 -118 29 -214 -4z m78 -313 c-12 -24 -30 -28 -30 -6 0 13 31 38 38 30 2 -2
-1 -13 -8 -24z"/>
<path d="M3444 3389 c-18 -5 -48 -26 -68 -46 -47 -48 -146 -243 -146 -287 0
-55 64 -116 121 -116 56 0 131 35 169 78 70 79 107 255 66 316 -32 50 -88 71
-142 55z"/>
<path d="M2553 3366 c-162 -60 -264 -150 -390 -344 -96 -147 -139 -189 -260
-247 -134 -65 -231 -133 -336 -234 -227 -219 -307 -383 -307 -631 0 -236 51
-413 157 -544 96 -119 401 -341 546 -396 222 -86 417 -81 610 16 209 105 426
280 533 429 54 77 133 241 178 373 18 53 45 122 59 153 14 31 31 76 38 100 18
61 15 274 -6 374 -25 122 -91 319 -146 432 -27 57 -49 113 -49 125 0 103 -128
279 -256 354 -115 68 -256 83 -371 40z m177 -412 c4 -23 35 -94 77 -170 86
-154 110 -206 157 -345 57 -170 64 -312 16 -379 -11 -16 -33 -69 -50 -120 -75
-231 -167 -357 -370 -507 -170 -126 -351 -157 -502 -86 -142 67 -351 241 -393
326 -52 108 -44 244 22 366 87 162 211 284 387 381 232 128 282 173 387 352
40 66 86 137 103 156 35 40 100 73 136 70 21 -3 26 -9 30 -44z"/>
<path d="M388 2274 c-31 -16 -58 -61 -58 -97 0 -38 67 -225 119 -332 56 -114
149 -245 210 -293 69 -56 145 -85 220 -85 224 -1 300 196 160 414 -83 128
-200 222 -429 344 -130 69 -169 78 -222 49z m418 -466 c61 -64 82 -98 60 -98
-27 0 -166 155 -166 185 0 12 55 -33 106 -87z"/>
<path d="M4428 1945 c-20 -14 -41 -32 -46 -41 -8 -15 -12 -14 -40 6 -47 35
-127 39 -171 8 -65 -44 -76 -69 -75 -171 1 -109 24 -244 59 -356 72 -226 266
-254 373 -54 53 101 122 373 122 485 0 27 -7 62 -15 79 -36 69 -138 91 -207
44z"/>
</g>
</svg>
