<?xml version="1.0" standalone="no"?>
<!DOCTYPE svg PUBLIC "-//W3C//DTD SVG 20010904//EN"
 "http://www.w3.org/TR/2001/REC-SVG-20010904/DTD/svg10.dtd">
<svg version="1.0" xmlns="http://www.w3.org/2000/svg"
 width="600.000000pt" height="600.000000pt" viewBox="0 0 600.000000 600.000000"
 preserveAspectRatio="xMidYMid meet">
<metadata>
Created by potrace 1.15, written by Peter Selinger 2001-2017
</metadata>
<g transform="translate(0.000000,600.000000) scale(0.100000,-0.100000)"
fill="#16364b" stroke="none">
<path d="M1855 5800 c-53 -17 -84 -58 -156 -208 -156 -323 -202 -447 -203
-542 -1 -79 19 -118 83 -161 38 -25 54 -29 112 -29 130 0 241 71 463 294 200
204 216 224 216 288 0 77 -35 130 -101 148 -60 18 -100 -2 -204 -102 -53 -50
-98 -89 -100 -86 -3 3 17 53 45 112 56 120 63 170 30 223 -33 54 -119 83 -185
63z"/>
<path d="M3032 5702 c-74 -22 -120 -105 -100 -180 14 -51 26 -63 159 -153 267
-181 482 -405 505 -527 8 -43 -7 -60 -64 -67 -79 -10 -91 -14 -126 -46 -69
-60 -70 -147 -1 -207 46 -41 105 -49 208 -29 148 29 238 107 279 240 19 64 20
80 11 153 -12 97 -55 196 -128 292 -87 115 -529 467 -650 518 -36 15 -56 16
-93 6z"/>
<path d="M890 5406 c-203 -59 -330 -225 -330 -430 1 -144 40 -238 144 -342 86
-86 145 -113 205 -95 80 24 121 80 121 167 0 49 -3 53 -113 151 -23 21 -38 45
-43 69 -8 43 9 104 35 128 26 24 88 45 132 46 43 0 95 33 126 79 47 70 23 177
-49 221 -39 24 -155 27 -228 6z"/>
<path d="M2958 5146 c-68 -18 -120 -56 -160 -118 -147 -221 -36 -449 207 -424
177 18 225 63 225 210 0 190 -51 293 -163 330 -55 18 -48 18 -109 2z"/>
<path d="M4765 4886 c-42 -18 -83 -69 -91 -114 -9 -45 10 -235 32 -317 71
-271 302 -409 485 -288 83 55 129 176 110 286 -17 97 -55 163 -145 252 -68 67
-100 90 -194 138 -117 59 -146 65 -197 43z"/>
<path d="M2002 4800 c-140 -37 -202 -91 -202 -177 0 -52 18 -91 59 -126 44
-36 89 -41 157 -17 32 11 64 20 70 20 11 0 27 -49 39 -120 22 -130 226 -165
285 -49 25 49 25 106 0 203 -37 147 -111 241 -211 270 -67 20 -107 19 -197 -4z"/>
<path d="M2877 4059 c-157 -37 -236 -192 -166 -330 24 -48 91 -106 155 -135
101 -45 197 -57 413 -52 179 4 200 6 239 27 36 18 48 33 69 79 34 78 39 114
19 166 -22 57 -46 78 -140 121 -218 101 -465 153 -589 124z"/>
<path d="M1133 4036 c-152 -27 -197 -47 -237 -104 -24 -34 -29 -51 -29 -99 0
-34 7 -71 16 -89 37 -72 132 -123 204 -109 19 3 33 2 33 -4 0 -5 -48 -72 -107
-148 -206 -267 -274 -381 -399 -668 -40 -93 -48 -120 -48 -175 -1 -110 60
-180 157 -180 61 0 111 23 145 67 15 19 95 80 177 136 169 113 271 189 395
291 46 39 120 99 164 133 100 77 104 73 87 -73 -30 -258 -121 -456 -403 -878
-157 -234 -164 -252 -126 -326 38 -75 126 -108 202 -76 33 14 49 33 224 272
161 221 320 562 394 849 31 124 33 138 33 305 -1 160 -3 179 -23 222 -47 99
-145 148 -253 128 -76 -15 -146 -49 -270 -135 -60 -41 -109 -73 -109 -72 0 2
41 57 90 123 121 159 164 245 168 340 7 126 -38 206 -142 255 -88 41 -175 45
-343 15z"/>
<path d="M4225 3779 c-72 -15 -171 -65 -216 -110 -21 -21 -51 -62 -66 -91 -74
-142 -2 -332 154 -409 38 -19 64 -24 128 -24 69 0 89 5 148 32 79 38 158 112
205 194 47 83 96 240 88 284 -9 46 -47 89 -97 109 -51 21 -271 30 -344 15z
m30 -319 c-10 -11 -28 -20 -39 -20 -20 1 -20 1 3 20 13 11 30 20 39 20 13 0
12 -3 -3 -20z"/>
<path d="M3385 3402 c-47 -29 -85 -87 -137 -207 -67 -153 -64 -232 9 -281 43
-29 193 -27 249 3 94 50 157 162 158 283 1 81 -12 117 -61 166 -55 55 -159 72
-218 36z"/>
<path d="M4993 3105 c-57 -24 -191 -134 -233 -188 -97 -130 -115 -251 -50
-349 69 -104 211 -133 342 -71 112 53 181 136 208 252 26 110 -5 218 -88 302
-65 66 -116 82 -179 54z"/>
<path d="M3894 2642 c-69 -24 -108 -57 -139 -116 -38 -75 -34 -130 21 -293 25
-74 43 -137 41 -139 -2 -3 -29 5 -58 16 -111 44 -214 25 -291 -52 -59 -59 -80
-110 -88 -213 -6 -89 -6 -90 -18 -50 -51 176 -245 251 -459 180 -43 -15 -160
-66 -260 -115 -101 -49 -185 -85 -187 -82 -2 4 -11 40 -20 81 -64 282 -245
446 -427 386 -77 -24 -132 -67 -199 -151 -94 -118 -135 -198 -136 -265 -1 -48
-7 -66 -42 -122 -136 -216 -199 -544 -148 -771 22 -97 71 -216 116 -282 102
-149 304 -286 516 -350 114 -34 291 -39 393 -11 129 35 299 139 409 249 75 75
99 110 113 163 6 22 17 47 24 55 24 28 94 165 146 285 105 244 159 426 175
590 l7 70 19 -85 c25 -112 132 -435 161 -484 12 -21 41 -52 65 -69 36 -26 55
-32 112 -35 60 -4 74 -1 120 24 112 61 172 191 136 293 -15 40 -15 43 2 36 90
-39 162 -40 259 -3 188 70 206 221 83 685 -46 171 -164 480 -197 515 -64 67
-162 91 -249 60z m-1830 -899 c3 -16 13 -91 21 -168 22 -186 38 -245 83 -290
32 -32 83 -55 123 -55 43 0 111 35 146 74 41 46 173 122 352 204 124 58 178
78 186 71 8 -8 -47 -191 -89 -299 -21 -52 -71 -159 -112 -237 -41 -79 -74
-151 -74 -161 0 -30 -71 -123 -125 -164 -82 -62 -144 -81 -252 -75 -79 4 -102
9 -167 40 -129 61 -227 142 -267 219 -47 91 -61 236 -35 360 16 74 73 204 112
255 37 49 54 96 54 152 0 49 16 101 31 101 4 0 10 -12 13 -27z"/>
</g>
</svg>
