<?xml version="1.0" standalone="no"?>
<!DOCTYPE svg PUBLIC "-//W3C//DTD SVG 20010904//EN"
 "http://www.w3.org/TR/2001/REC-SVG-20010904/DTD/svg10.dtd">
<svg version="1.0" xmlns="http://www.w3.org/2000/svg"
 width="600.000000pt" height="600.000000pt" viewBox="0 0 600.000000 600.000000"
 preserveAspectRatio="xMidYMid meet">
<metadata>
Created by potrace 1.15, written by Peter Selinger 2001-2017
</metadata>
<g transform="translate(0.000000,600.000000) scale(0.100000,-0.100000)"
fill="#16364b" stroke="none">
<path d="M2367 5382 c-14 -16 -17 -44 -17 -188 0 -191 -16 -314 -53 -426 -48
-140 -108 -214 -223 -274 -84 -43 -102 -84 -58 -129 24 -23 60 -18 127 18 102
53 180 135 232 241 25 50 52 118 61 151 42 162 61 557 28 603 -19 28 -74 30
-97 4z"/>
<path d="M3533 5302 c-23 -14 -41 -74 -32 -104 26 -91 139 -233 204 -258 43
-16 82 -11 112 14 41 35 38 96 -8 171 -47 77 -112 149 -153 169 -36 17 -102
21 -123 8z"/>
<path d="M3002 5093 c-48 -23 -108 -97 -133 -162 -30 -78 -32 -179 -3 -218 49
-66 121 -54 219 38 135 127 166 276 69 340 -36 23 -106 25 -152 2z m78 -128
c0 -37 -86 -155 -112 -155 -10 0 0 45 20 85 30 62 92 109 92 70z"/>
<path d="M4773 4740 c-12 -5 -29 -21 -39 -35 -15 -23 -16 -49 -11 -233 9 -327
50 -432 169 -432 85 0 134 87 132 240 -1 118 -21 197 -81 317 -62 125 -111
166 -170 143z"/>
<path d="M2629 4197 c-73 -49 -87 -132 -33 -196 64 -76 269 -134 393 -112 122
23 181 70 181 147 0 72 -37 104 -157 137 -134 37 -193 47 -278 47 -58 0 -78
-4 -106 -23z"/>
<path d="M5240 3972 c-145 -54 -215 -148 -213 -287 3 -218 164 -379 345 -345
139 27 253 128 292 260 47 159 -10 284 -166 363 -45 23 -65 27 -133 26 -48 0
-98 -7 -125 -17z m145 -293 c10 -10 -27 -49 -46 -49 -13 0 -31 40 -25 57 7 16
52 11 71 -8z"/>
<path d="M4179 3758 c-147 -52 -220 -151 -218 -297 1 -120 50 -201 152 -251
60 -30 72 -32 144 -28 55 2 92 10 125 26 134 66 206 218 178 381 -16 95 -41
130 -115 160 -87 35 -182 38 -266 9z m101 -262 c0 -8 -7 -22 -16 -30 -8 -9
-22 -16 -30 -16 -19 0 -18 25 2 44 19 20 44 21 44 2z"/>
<path d="M1155 3606 c-164 -52 -245 -204 -201 -376 40 -154 151 -256 343 -311
52 -15 109 -39 128 -53 83 -64 140 -196 200 -467 20 -90 53 -231 75 -314 21
-82 52 -211 70 -285 63 -269 100 -352 199 -450 89 -89 217 -154 376 -194 150
-37 538 -54 800 -36 94 7 312 12 485 11 349 -1 461 6 644 44 259 52 465 145
616 277 133 116 256 314 302 483 30 113 30 336 0 446 -51 188 -167 348 -322
444 -111 70 -307 114 -443 100 -176 -17 -288 -65 -472 -204 -213 -160 -326
-213 -496 -233 -74 -9 -117 -9 -171 0 -276 43 -656 262 -998 576 -341 313
-423 366 -755 489 -184 68 -287 83 -380 53z m302 -355 c201 -65 292 -123 482
-307 163 -157 250 -228 426 -347 373 -253 490 -312 765 -385 127 -33 144 -36
290 -36 129 0 168 4 234 22 124 34 249 100 449 235 220 149 289 177 436 177
78 0 95 -3 149 -31 88 -44 164 -140 196 -248 62 -212 -1 -448 -164 -612 -65
-65 -92 -84 -200 -137 -79 -39 -160 -71 -220 -86 -181 -46 -538 -65 -1285 -68
-505 -3 -566 -1 -622 14 -133 37 -220 104 -268 206 -25 53 -76 241 -90 332
-27 177 -114 528 -175 705 -111 322 -234 455 -475 514 -82 21 -128 46 -133 75
-6 28 75 19 205 -23z"/>
<path d="M2257 2360 c-34 -27 -34 -54 -2 -85 45 -46 115 -22 115 40 0 55 -67
81 -113 45z"/>
<path d="M2861 2044 c-26 -33 -26 -45 -1 -77 41 -51 90 -43 110 18 10 30 9 40
-4 60 -23 35 -77 35 -105 -1z"/>
<path d="M3483 3350 c-31 -12 -83 -87 -145 -206 -47 -92 -51 -104 -40 -128 16
-35 57 -51 95 -35 66 27 187 222 187 301 0 62 -41 90 -97 68z"/>
<path d="M492 2040 c-30 -12 -46 -54 -31 -82 28 -52 148 -172 199 -198 83 -43
160 -14 160 60 0 45 -67 108 -181 171 -98 55 -116 61 -147 49z"/>
<path d="M5348 1121 c-50 -10 -64 -24 -89 -89 -42 -114 -1 -202 94 -202 47 0
76 20 101 68 21 42 28 116 16 162 -9 33 -18 44 -45 56 -19 8 -36 13 -37 13 -2
-1 -20 -5 -40 -8z"/>
</g>
</svg>
