<?xml version="1.0" standalone="no"?>
<!DOCTYPE svg PUBLIC "-//W3C//DTD SVG 20010904//EN"
 "http://www.w3.org/TR/2001/REC-SVG-20010904/DTD/svg10.dtd">
<svg version="1.0" xmlns="http://www.w3.org/2000/svg"
 width="600.000000pt" height="600.000000pt" viewBox="0 0 600.000000 600.000000"
 preserveAspectRatio="xMidYMid meet">
<metadata>
Created by potrace 1.15, written by Peter Selinger 2001-2017
</metadata>
<g transform="translate(0.000000,600.000000) scale(0.100000,-0.100000)"
fill="#16364b" stroke="none">
<path d="M3110 5673 c-32 -12 -79 -67 -90 -107 -17 -62 -1 -109 62 -183 69
-80 136 -139 281 -247 104 -77 177 -151 177 -177 0 -22 -86 -100 -205 -184
-171 -122 -164 -118 -211 -95 -21 11 -53 20 -71 20 -67 0 -284 -100 -362 -166
-174 -150 -105 -385 127 -435 66 -14 110 0 151 46 51 59 53 127 5 184 l-25 31
35 17 c35 16 37 16 58 -5 13 -11 44 -26 69 -33 43 -12 50 -11 100 14 68 33
327 206 428 286 138 109 185 188 186 312 0 67 -4 83 -38 151 -47 97 -151 209
-296 321 -58 45 -142 117 -187 159 -95 92 -138 111 -194 91z"/>
<path d="M1872 5439 c-57 -12 -103 -67 -116 -139 -4 -22 -43 -87 -106 -174
-125 -173 -153 -230 -158 -317 -7 -118 53 -198 178 -236 70 -22 245 -20 356 2
151 31 210 53 243 90 51 59 53 137 4 196 -55 65 -112 73 -263 35 -116 -29
-170 -37 -170 -27 0 4 18 34 40 65 171 245 201 308 181 384 -24 89 -103 140
-189 121z"/>
<path d="M1153 5349 c-63 -19 -159 -83 -228 -153 -159 -161 -212 -375 -144
-591 25 -81 79 -195 115 -242 91 -120 261 -59 272 97 4 53 1 63 -32 118 -71
114 -82 231 -31 331 27 55 67 93 151 144 70 42 98 84 98 147 0 103 -102 179
-201 149z"/>
<path d="M4634 4750 c-80 -40 -106 -136 -59 -217 l26 -43 -23 -31 c-18 -25
-23 -44 -23 -96 l0 -65 52 -48 c71 -66 144 -93 248 -93 97 0 148 13 211 56 76
50 108 104 112 188 4 59 1 77 -22 124 -51 102 -163 175 -340 220 -119 30 -130
30 -182 5z"/>
<path d="M1793 4305 c-99 -27 -206 -89 -296 -174 -51 -48 -67 -80 -67 -138 0
-88 57 -143 147 -143 44 0 82 19 152 77 75 62 150 87 231 78 92 -10 122 -7
149 13 122 90 88 256 -58 290 -69 16 -193 14 -258 -3z"/>
<path d="M2535 3746 c-200 -53 -252 -88 -262 -180 -10 -88 59 -176 138 -176
19 0 70 11 113 25 43 13 105 27 137 31 74 8 79 -2 49 -96 -46 -142 -176 -358
-345 -570 -71 -90 -80 -110 -73 -175 10 -87 79 -141 170 -133 58 6 73 18 175
145 167 209 290 427 364 643 27 79 33 111 33 185 1 79 -2 97 -27 147 -78 159
-245 213 -472 154z"/>
<path d="M4069 3737 c-70 -20 -137 -64 -166 -110 -22 -33 -28 -57 -31 -115 -4
-66 -1 -79 27 -137 36 -72 105 -141 179 -176 65 -32 186 -33 254 -2 102 47
198 172 214 278 6 44 -6 80 -69 204 -26 53 -69 66 -222 68 -90 2 -156 -2 -186
-10z"/>
<path d="M1140 3611 c-88 -28 -240 -111 -293 -160 -64 -58 -87 -161 -53 -232
35 -74 147 -110 230 -75 22 9 41 15 42 13 2 -2 -28 -84 -67 -183 -124 -314
-212 -598 -225 -731 -8 -78 12 -139 61 -182 42 -36 90 -51 170 -51 l59 0 191
193 c105 105 265 275 355 377 155 174 165 183 168 155 3 -34 -73 -417 -149
-750 -31 -136 -53 -254 -56 -310 -5 -86 -4 -92 23 -132 28 -43 81 -73 127 -73
36 1 104 36 123 65 9 14 24 67 34 118 15 85 104 487 185 842 49 213 58 287 52
390 -11 166 -58 263 -152 313 -40 21 -148 20 -198 -1 -52 -22 -133 -102 -305
-299 -80 -92 -147 -166 -150 -164 -2 2 23 75 56 163 141 375 161 532 81 643
-60 83 -184 111 -309 71z"/>
<path d="M3569 3296 c-94 -33 -185 -122 -219 -214 -12 -31 -24 -92 -27 -134
-5 -69 -3 -81 20 -120 47 -80 149 -111 228 -69 19 10 66 24 104 30 94 14 188
62 226 114 29 40 59 122 59 162 0 92 -73 190 -167 225 -62 23 -168 26 -224 6z"/>
<path d="M4745 2938 c-69 -38 -125 -131 -125 -208 0 -99 59 -240 137 -330 89
-101 192 -108 267 -20 58 70 20 223 -68 275 l-45 26 19 32 c24 39 26 116 5
156 -26 52 -71 81 -123 81 -26 0 -56 -6 -67 -12z"/>
<path d="M2965 2539 c-86 -13 -209 -52 -375 -121 -201 -83 -237 -104 -266
-155 -30 -50 -34 -134 -10 -181 21 -40 77 -87 121 -102 55 -18 105 -7 203 43
94 48 321 141 329 134 7 -8 -37 -126 -118 -314 -66 -152 -79 -191 -79 -235 1
-171 174 -265 290 -159 34 30 54 68 125 234 124 289 168 422 173 527 7 146
-46 244 -161 299 -71 34 -143 44 -232 30z"/>
<path d="M4427 2356 c-97 -35 -165 -113 -174 -201 -3 -24 0 -73 6 -110 7 -37
10 -70 7 -73 -3 -2 -61 12 -128 32 -300 89 -485 39 -579 -159 -52 -110 -60
-285 -23 -545 19 -128 39 -176 98 -234 153 -148 353 -109 397 79 9 42 8 74 -9
190 -32 213 -32 211 -2 207 14 -2 64 -19 111 -38 115 -45 129 -47 237 -35 114
12 189 44 254 108 108 106 140 277 103 552 -17 128 -42 172 -124 214 -61 30
-114 34 -174 13z"/>
<path d="M2148 1860 c-46 -8 -79 -30 -115 -77 -24 -31 -28 -45 -28 -102 0 -47
6 -79 22 -111 12 -25 40 -130 63 -235 23 -104 55 -225 72 -267 54 -141 157
-255 312 -343 48 -27 124 -72 169 -99 153 -92 336 -174 426 -192 134 -26 238
-7 341 64 78 55 102 105 98 203 -2 62 -8 83 -31 117 -60 92 -161 106 -264 37
-36 -24 -70 -39 -89 -39 -34 0 -218 90 -275 135 -23 18 -40 43 -48 71 -18 60
-66 153 -101 198 -35 45 -120 90 -166 90 -18 0 -36 5 -40 11 -4 6 -21 82 -40
169 -54 258 -108 347 -225 368 -24 4 -60 5 -81 2z"/>
</g>
</svg>
