<?xml version="1.0" standalone="no"?>
<!DOCTYPE svg PUBLIC "-//W3C//DTD SVG 20010904//EN"
 "http://www.w3.org/TR/2001/REC-SVG-20010904/DTD/svg10.dtd">
<svg version="1.0" xmlns="http://www.w3.org/2000/svg"
 width="600.000000pt" height="600.000000pt" viewBox="0 0 600.000000 600.000000"
 preserveAspectRatio="xMidYMid meet">
<metadata>
Created by potrace 1.15, written by Peter Selinger 2001-2017
</metadata>
<g transform="translate(0.000000,600.000000) scale(0.100000,-0.100000)"
fill="#16364b" stroke="none">
<path d="M2377 5382 c-14 -15 -17 -42 -17 -148 0 -389 -92 -614 -292 -713 -66
-32 -78 -45 -78 -82 0 -25 35 -59 61 -59 43 0 154 65 214 125 143 141 214 380
215 716 0 129 -2 148 -18 162 -24 22 -65 21 -85 -1z"/>
<path d="M3543 5290 c-24 -10 -53 -58 -53 -87 0 -35 60 -144 107 -194 113
-121 243 -126 243 -9 0 41 -46 140 -95 205 -50 64 -150 107 -202 85z"/>
<path d="M3075 5104 c-6 -1 -23 -5 -38 -9 -43 -9 -122 -88 -147 -147 -27 -64
-36 -144 -21 -191 27 -80 113 -102 188 -48 175 126 207 364 53 393 -14 2 -30
3 -35 2z m25 -131 c-1 -32 -36 -98 -76 -138 -37 -39 -38 -39 -42 -16 -2 13 4
44 14 70 27 70 104 133 104 84z"/>
<path d="M4740 4710 c-18 -18 -20 -33 -20 -162 0 -153 19 -314 46 -391 24 -69
65 -107 118 -107 52 0 78 18 104 72 39 84 37 222 -4 353 -24 76 -92 207 -120
233 -33 29 -96 30 -124 2z"/>
<path d="M2668 4218 c-22 -6 -49 -23 -64 -41 -22 -27 -25 -38 -21 -80 5 -61
29 -93 97 -134 146 -88 403 -79 468 17 26 38 24 75 -4 117 -17 27 -22 29 -159
71 -169 51 -258 65 -317 50z"/>
<path d="M5255 3976 c-147 -37 -227 -133 -226 -274 0 -120 43 -216 132 -296
153 -137 404 -75 498 124 22 47 26 69 26 150 0 85 -3 100 -27 141 -37 63 -82
105 -152 139 -50 25 -70 30 -130 29 -39 0 -93 -6 -121 -13z m109 -286 c14 -5
26 -16 26 -24 0 -15 -29 -36 -49 -36 -15 0 -34 39 -27 56 6 17 16 17 50 4z"/>
<path d="M4216 3764 c-124 -38 -220 -148 -245 -277 -39 -212 189 -369 403
-277 64 27 131 92 163 159 25 50 28 67 27 156 0 146 -35 196 -165 236 -72 22
-116 23 -183 3z m87 -271 c-10 -29 -24 -43 -44 -43 -25 0 -24 15 1 40 25 25
52 27 43 3z"/>
<path d="M1235 3707 c-137 -46 -209 -143 -209 -287 -1 -161 100 -281 294 -350
137 -48 201 -130 274 -351 51 -153 133 -551 151 -731 25 -242 53 -344 134
-482 58 -99 161 -198 259 -249 60 -32 72 -42 72 -63 0 -49 27 -92 72 -115 58
-30 175 -35 434 -19 236 15 272 8 339 -60 47 -49 86 -53 127 -15 34 32 43 65
29 106 -6 18 -10 33 -9 35 2 1 68 7 148 14 94 8 212 10 340 6 352 -13 607 37
896 174 266 126 416 261 529 473 66 123 90 225 89 377 -1 107 -5 137 -27 206
-50 152 -173 325 -291 408 -123 88 -198 115 -341 123 -204 11 -315 -33 -521
-204 -249 -208 -654 -298 -934 -208 -105 33 -246 106 -354 182 -123 88 -314
285 -463 478 -237 308 -300 353 -723 510 -140 53 -241 66 -315 42z m265 -322
c270 -104 368 -178 587 -447 357 -439 734 -698 1113 -764 157 -27 283 -10 533
72 192 63 299 121 476 257 113 87 170 114 260 124 154 16 286 -61 384 -223 50
-83 67 -134 74 -224 11 -151 -50 -293 -187 -431 -76 -77 -98 -93 -217 -153
-259 -130 -397 -161 -803 -177 -140 -5 -302 -14 -360 -19 -129 -12 -298 -12
-405 0 -44 5 -172 16 -285 24 -284 20 -378 47 -466 136 -89 88 -141 239 -160
458 -11 133 -129 661 -182 814 -65 187 -150 320 -258 405 -43 34 -159 93 -182
93 -36 0 -122 62 -122 88 0 24 91 8 200 -33z"/>
<path d="M2298 2399 c-30 -17 -23 -74 11 -98 37 -27 55 -26 81 1 25 27 26 70
2 91 -21 19 -68 22 -94 6z"/>
<path d="M2855 2045 c-31 -30 -31 -36 1 -74 32 -38 75 -42 98 -9 23 33 19 64
-10 87 -35 27 -59 26 -89 -4z"/>
<path d="M3460 3367 c-36 -18 -92 -97 -151 -214 -47 -91 -51 -105 -41 -128 13
-29 55 -49 84 -39 44 14 154 160 188 252 25 65 25 84 3 110 -24 27 -53 34 -83
19z"/>
<path d="M470 2010 c-34 -34 -24 -56 54 -134 82 -81 141 -121 198 -131 31 -6
41 -3 62 19 15 14 26 33 26 43 0 46 -74 113 -202 183 -82 45 -109 49 -138 20z"/>
<path d="M5349 1107 c-37 -18 -72 -101 -73 -173 -1 -71 16 -109 57 -130 39
-21 80 -10 116 32 38 42 46 70 46 156 0 59 -3 71 -25 92 -30 28 -87 39 -121
23z"/>
</g>
</svg>
