<?xml version="1.0" standalone="no"?>
<!DOCTYPE svg PUBLIC "-//W3C//DTD SVG 20010904//EN"
 "http://www.w3.org/TR/2001/REC-SVG-20010904/DTD/svg10.dtd">
<svg version="1.0" xmlns="http://www.w3.org/2000/svg"
 width="600.000000pt" height="600.000000pt" viewBox="0 0 600.000000 600.000000"
 preserveAspectRatio="xMidYMid meet">
<metadata>
Created by potrace 1.15, written by Peter Selinger 2001-2017
</metadata>
<g transform="translate(0.000000,600.000000) scale(0.100000,-0.100000)"
fill="#16364b" stroke="none">
<path d="M3525 5250 c-21 -41 -19 -54 17 -123 37 -69 117 -161 159 -182 46
-24 94 -19 118 11 12 15 21 36 21 48 0 54 -109 213 -175 256 -19 13 -47 20
-77 20 -42 0 -49 -3 -63 -30z"/>
<path d="M3053 5089 c-86 -18 -164 -136 -171 -260 -4 -62 -2 -69 25 -99 24
-27 36 -32 70 -32 52 1 73 12 136 71 110 102 134 235 54 294 -37 28 -69 36
-114 26z m57 -124 c0 -14 -9 -43 -19 -64 -20 -38 -83 -101 -101 -101 -16 0
-11 52 10 97 37 82 110 126 110 68z"/>
<path d="M4799 4755 c-41 -22 -50 -61 -57 -237 -14 -345 16 -458 123 -458 34
0 80 43 93 88 26 85 10 341 -32 515 -22 94 -66 125 -127 92z"/>
<path d="M2644 4201 c-102 -62 -84 -156 41 -217 101 -49 183 -67 285 -62 99 5
141 24 166 76 31 66 -7 131 -88 153 -18 4 -82 22 -143 38 -131 36 -216 40
-261 12z"/>
<path d="M5292 3999 c-107 -18 -192 -81 -234 -174 -45 -99 -22 -263 52 -370
89 -129 228 -155 381 -73 71 37 121 91 157 168 22 45 26 70 27 135 0 130 -40
204 -148 273 -70 45 -140 58 -235 41z m93 -320 c10 -10 -27 -49 -46 -49 -13 0
-31 40 -25 57 7 16 52 11 71 -8z"/>
<path d="M1343 3919 c-96 -48 -159 -163 -150 -279 8 -124 74 -209 215 -278 83
-40 128 -86 174 -176 42 -82 53 -123 94 -346 19 -107 40 -215 45 -239 23 -104
51 -321 65 -509 16 -220 29 -301 67 -406 57 -154 202 -343 318 -411 67 -39
204 -85 255 -85 18 0 34 -4 34 -9 0 -5 -36 -27 -79 -50 -170 -88 -254 -177
-254 -266 0 -51 21 -88 66 -112 26 -15 54 -18 162 -16 72 0 179 8 239 17 60 9
126 16 145 16 l36 0 -63 -58 c-54 -48 -64 -63 -68 -97 -9 -74 52 -131 126
-117 36 7 113 90 145 157 37 80 44 167 16 212 -35 56 -65 68 -161 67 -47 -1
-143 -11 -215 -22 -188 -30 -255 -36 -255 -23 0 22 102 86 270 170 253 125
221 119 490 92 126 -12 275 -25 333 -28 l105 -6 11 -42 c13 -50 54 -90 110
-105 21 -5 80 -12 132 -14 80 -3 94 -6 91 -19 -1 -9 4 -30 13 -47 12 -23 27
-33 71 -46 86 -25 149 -7 214 60 59 62 42 140 -40 182 -29 15 -67 19 -222 22
-104 2 -188 8 -188 13 0 5 21 9 48 9 26 1 67 5 92 11 25 6 104 18 175 29 72
10 173 28 225 40 171 40 432 140 541 206 227 137 359 394 362 704 2 147 -16
218 -90 363 -108 208 -271 313 -508 324 -175 9 -298 -30 -414 -130 -132 -113
-336 -185 -578 -203 -145 -11 -333 27 -513 103 -234 99 -343 213 -660 688
-199 298 -298 389 -570 525 -47 24 -105 56 -130 73 -111 77 -241 99 -327 56z
m193 -255 c27 -15 97 -51 156 -80 225 -111 293 -174 453 -416 131 -198 167
-246 311 -413 249 -290 353 -362 625 -439 204 -57 289 -71 439 -69 290 2 552
84 732 230 98 78 159 103 257 103 150 0 248 -67 325 -223 55 -110 70 -184 62
-294 -14 -183 -109 -343 -264 -447 -84 -55 -259 -131 -377 -161 -104 -28 -170
-37 -460 -64 -330 -31 -436 -34 -705 -16 -135 9 -329 20 -431 25 -197 8 -261
21 -352 67 -133 67 -236 247 -266 467 -6 42 -17 152 -26 245 -9 105 -31 253
-59 393 -25 122 -57 295 -71 382 -56 335 -134 470 -346 592 -94 54 -140 110
-112 137 14 15 62 6 109 -19z"/>
<path d="M2382 2469 c-20 -8 -42 -37 -42 -58 0 -21 53 -71 75 -71 26 0 65 42
65 69 0 44 -53 77 -98 60z"/>
<path d="M2822 2050 c-54 -22 -47 -104 11 -124 71 -25 119 92 51 123 -29 13
-31 13 -62 1z"/>
<path d="M4204 3736 c-121 -38 -209 -149 -221 -278 -8 -80 15 -135 79 -193
149 -134 384 -83 475 103 24 49 28 68 27 137 -1 48 -7 95 -16 116 -42 97 -215
155 -344 115z m106 -256 c0 -23 -37 -47 -52 -32 -7 7 -3 17 11 31 26 26 41 27
41 1z"/>
<path d="M3458 3323 c-27 -29 -98 -145 -144 -235 -30 -59 -23 -93 21 -104 22
-5 34 0 67 32 53 52 133 175 154 236 15 45 15 51 0 73 -23 34 -65 33 -98 -2z"/>
<path d="M462 2018 c-26 -26 -13 -62 36 -103 148 -127 253 -172 296 -129 25
24 19 63 -12 92 -43 40 -250 152 -281 152 -15 0 -32 -5 -39 -12z"/>
<path d="M5343 1108 c-54 -27 -91 -175 -59 -236 20 -39 44 -52 96 -52 77 0
127 85 118 198 -3 36 -11 60 -25 74 -24 24 -97 33 -130 16z"/>
</g>
</svg>
