<?xml version="1.0" standalone="no"?>
<!DOCTYPE svg PUBLIC "-//W3C//DTD SVG 20010904//EN"
 "http://www.w3.org/TR/2001/REC-SVG-20010904/DTD/svg10.dtd">
<svg version="1.0" xmlns="http://www.w3.org/2000/svg"
 width="600.000000pt" height="600.000000pt" viewBox="0 0 600.000000 600.000000"
 preserveAspectRatio="xMidYMid meet">
<metadata>
Created by potrace 1.15, written by Peter Selinger 2001-2017
</metadata>
<g transform="translate(0.000000,600.000000) scale(0.100000,-0.100000)"
fill="#16364b" stroke="none">
<path d="M1534 5786 c-77 -34 -107 -153 -108 -431 0 -198 13 -277 59 -347 81
-123 223 -131 329 -18 60 64 176 242 265 405 59 107 71 138 71 175 -1 54 -16
84 -56 111 -38 25 -87 24 -134 -2 -33 -19 -48 -40 -99 -143 -78 -156 -160
-296 -173 -296 -17 0 6 219 38 353 19 81 13 125 -24 160 -49 47 -109 58 -168
33z"/>
<path d="M875 5489 c-78 -27 -153 -78 -216 -147 -60 -66 -95 -136 -111 -221
-25 -131 49 -286 172 -360 83 -50 182 -3 210 98 15 57 -2 98 -66 158 -54 49
-56 54 -51 89 9 53 52 110 104 135 39 19 50 20 83 10 66 -19 125 -14 159 15
77 65 34 179 -86 224 -68 25 -122 25 -198 -1z"/>
<path d="M3276 5449 c-44 -38 -54 -83 -31 -132 13 -27 45 -54 136 -114 101
-65 117 -80 102 -88 -48 -27 -73 -63 -73 -105 0 -53 18 -86 75 -139 64 -59
125 -84 206 -85 56 -1 72 3 114 29 179 111 92 367 -182 534 -48 30 -115 72
-149 93 -50 31 -69 38 -112 38 -43 0 -57 -5 -86 -31z"/>
<path d="M2958 5176 c-48 -17 -87 -50 -132 -110 -36 -49 -76 -156 -76 -205 0
-44 21 -104 47 -140 62 -82 202 -94 330 -30 99 50 108 67 107 197 -1 73 -7
121 -18 151 -45 123 -147 176 -258 137z"/>
<path d="M2283 5100 c-45 -27 -56 -53 -64 -161 -12 -158 -40 -197 -193 -271
-51 -26 -99 -57 -108 -69 -54 -84 -3 -195 94 -206 33 -4 60 3 118 27 206 88
307 206 345 405 29 150 17 228 -41 274 -35 27 -107 28 -151 1z"/>
<path d="M4763 4800 c-58 -35 -67 -67 -60 -215 9 -203 51 -326 143 -419 137
-140 348 -108 420 62 20 48 20 145 0 202 -41 112 -170 248 -321 338 -98 57
-131 63 -182 32z"/>
<path d="M2772 4156 c-198 -50 -275 -249 -151 -390 60 -68 123 -91 244 -90 85
0 114 5 195 33 155 53 256 104 280 143 25 42 25 88 0 138 -23 45 -54 69 -135
103 -163 68 -322 91 -433 63z"/>
<path d="M1051 4068 c-31 -17 -52 -38 -68 -68 -27 -51 -29 -85 -8 -138 25 -61
62 -82 175 -98 118 -16 150 -23 150 -34 0 -14 -93 -92 -167 -142 -62 -42 -198
-118 -363 -204 -70 -37 -100 -81 -100 -146 0 -65 24 -113 73 -149 74 -54 148
-34 356 98 55 35 70 34 71 -9 0 -22 46 -75 81 -93 37 -20 102 -19 142 1 17 9
56 34 87 54 30 21 84 48 119 60 l64 21 60 -27 c103 -46 185 -24 234 62 51 89
14 192 -88 249 -52 29 -59 30 -176 30 -68 0 -123 1 -123 3 0 2 12 19 26 37 65
86 81 202 40 291 -61 131 -206 203 -441 219 -93 6 -103 5 -144 -17z"/>
<path d="M4270 3789 c-131 -22 -247 -106 -303 -218 -72 -147 -25 -299 117
-373 33 -18 59 -22 131 -23 77 0 98 4 145 26 132 62 220 186 271 379 l21 78
-20 45 c-24 54 -54 72 -143 86 -75 13 -142 12 -219 0z m20 -304 c-26 -27 -50
-33 -50 -12 0 14 34 35 59 36 10 1 7 -7 -9 -24z"/>
<path d="M5125 3416 c-80 -25 -151 -70 -215 -135 -89 -89 -105 -124 -105 -231
0 -72 4 -94 28 -144 80 -172 205 -228 352 -157 87 41 148 100 187 179 31 62
33 74 33 167 0 94 -2 104 -33 160 -42 78 -114 152 -160 165 -43 12 -37 12 -87
-4z"/>
<path d="M3414 3402 c-51 -32 -103 -102 -151 -202 -70 -146 -68 -226 9 -266
40 -21 133 -13 195 17 69 33 130 125 152 227 22 106 11 160 -43 211 -36 34
-118 40 -162 13z"/>
<path d="M2280 2953 c-58 -20 -120 -63 -160 -110 -28 -33 -76 -126 -142 -273
-13 -27 -60 -85 -122 -147 -274 -277 -392 -453 -453 -678 -25 -90 -28 -116
-28 -270 0 -194 11 -252 72 -373 82 -164 282 -320 507 -396 157 -53 361 -62
518 -22 163 41 318 132 418 243 74 83 196 271 247 381 100 213 137 378 136
597 -1 239 -35 398 -107 502 -37 53 -134 124 -224 163 -94 40 -139 79 -221
190 -55 75 -93 116 -132 142 -98 65 -215 84 -309 51z m187 -471 c120 -164 136
-178 274 -246 124 -61 124 -61 143 -111 41 -110 21 -313 -51 -520 -91 -261
-209 -417 -378 -500 -102 -51 -198 -63 -311 -41 -161 31 -295 103 -356 191
-71 102 -53 300 46 518 52 114 85 157 259 332 176 177 237 256 287 369 18 42
34 76 35 76 1 0 25 -31 52 -68z"/>
<path d="M914 2710 c-11 -4 -33 -23 -48 -41 -24 -29 -28 -40 -24 -81 6 -59 23
-79 108 -124 218 -114 295 -318 167 -443 -74 -71 -151 -44 -232 81 -69 106
-131 133 -214 90 -119 -60 -96 -187 64 -348 108 -109 169 -139 285 -139 74 0
93 4 150 31 123 58 223 174 256 298 53 199 -56 457 -248 587 -121 82 -208 112
-264 89z"/>
<path d="M4160 2275 c-73 -33 -120 -103 -120 -180 l0 -46 -37 8 c-123 26 -233
-31 -265 -138 -9 -32 -9 -57 0 -112 17 -100 100 -385 124 -425 40 -66 158
-104 219 -72 13 8 25 7 40 -1 67 -36 208 11 261 86 61 87 70 202 42 557 -17
223 -27 256 -88 303 -44 34 -125 43 -176 20z"/>
</g>
</svg>
