<?xml version="1.0" standalone="no"?>
<!DOCTYPE svg PUBLIC "-//W3C//DTD SVG 20010904//EN"
 "http://www.w3.org/TR/2001/REC-SVG-20010904/DTD/svg10.dtd">
<svg version="1.0" xmlns="http://www.w3.org/2000/svg"
 width="600.000000pt" height="600.000000pt" viewBox="0 0 600.000000 600.000000"
 preserveAspectRatio="xMidYMid meet">
<metadata>
Created by potrace 1.15, written by Peter Selinger 2001-2017
</metadata>
<g transform="translate(0.000000,600.000000) scale(0.100000,-0.100000)"
fill="#16364b" stroke="none">
<path d="M2222 5505 c-139 -39 -248 -155 -287 -305 -15 -57 -16 -90 -9 -260 5
-107 9 -379 8 -605 -1 -363 -4 -431 -24 -590 -16 -133 -24 -253 -27 -458 -4
-214 -8 -280 -18 -283 -20 -8 -190 52 -288 102 -49 24 -129 70 -178 102 -75
48 -88 60 -82 77 21 61 -6 101 -30 44 l-13 -33 -20 55 c-25 70 -48 73 -52 7
-2 -27 -6 -48 -10 -48 -4 0 -18 9 -32 20 -51 40 -74 16 -34 -36 l27 -35 -38 3
c-56 4 -60 -24 -7 -51 22 -11 97 -59 168 -107 155 -104 308 -179 467 -230 137
-43 123 -11 106 -257 -24 -322 36 -748 135 -963 105 -227 248 -349 482 -409
l88 -23 -4 -43 c-3 -24 -5 -102 -4 -174 1 -144 16 -232 70 -413 19 -62 32
-117 29 -123 -4 -5 -40 -9 -82 -9 -124 0 -189 -43 -181 -120 2 -26 12 -40 38
-58 32 -22 42 -24 120 -19 106 7 149 21 202 66 78 67 85 128 34 289 -50 154
-65 218 -75 322 -10 95 0 245 18 263 6 6 25 6 53 -1 80 -21 440 -46 678 -46
l235 -1 1 -110 c1 -119 22 -222 89 -433 45 -138 45 -142 -2 -142 -65 0 -152
-18 -178 -37 -33 -24 -57 -76 -49 -107 26 -106 235 -107 352 -2 84 76 90 131
33 298 -87 252 -109 397 -80 513 11 44 11 44 63 49 28 3 114 8 192 11 220 8
328 47 429 157 126 136 170 340 144 673 -4 50 -12 160 -18 245 -7 85 -19 183
-27 218 -30 131 -127 302 -228 402 -31 30 -56 57 -56 61 0 4 15 11 33 14 55
12 329 103 407 135 120 49 222 115 290 185 57 60 61 67 48 83 -9 9 -13 23 -11
29 7 19 -22 26 -48 13 -21 -12 -22 -11 -16 18 10 48 -12 51 -49 7 -31 -38 -32
-38 -36 -14 -2 16 -9 24 -23 24 -17 0 -20 -7 -20 -52 0 -59 -3 -63 -105 -117
-156 -83 -502 -196 -599 -196 -11 0 -79 58 -168 146 -221 219 -317 291 -658
496 -161 97 -242 157 -303 226 -170 190 -277 490 -338 951 -30 221 -45 286
-87 366 -99 186 -283 285 -445 240z m161 -165 c46 -15 87 -50 122 -104 42 -67
64 -136 75 -238 30 -283 69 -485 122 -637 43 -124 149 -336 214 -428 108 -151
202 -233 407 -354 160 -94 335 -212 421 -283 38 -31 143 -127 235 -214 91 -87
195 -185 230 -217 124 -117 225 -260 268 -379 8 -23 18 -93 24 -156 5 -63 14
-153 19 -200 27 -235 18 -411 -27 -545 -23 -67 -37 -89 -83 -136 -73 -73 -118
-87 -330 -99 -91 -5 -259 -17 -375 -26 -241 -19 -623 -14 -785 11 -52 8 -147
21 -210 30 -283 38 -425 107 -524 253 -128 188 -182 475 -172 911 3 135 9 437
15 671 6 259 15 474 25 550 37 303 44 609 25 1010 -14 278 -5 393 33 467 56
105 159 148 271 113z"/>
<path d="M2600 2897 c-37 -19 -39 -69 -4 -102 32 -29 55 -32 77 -7 26 29 30
66 10 89 -24 28 -53 35 -83 20z"/>
<path d="M3162 2844 c-46 -32 -10 -114 50 -114 29 0 68 41 68 71 0 22 -46 59
-74 59 -12 0 -32 -7 -44 -16z"/>
<path d="M2789 1926 c-16 -35 7 -61 69 -75 60 -13 425 -21 446 -9 22 12 21 64
-1 74 -10 4 -112 11 -228 15 -115 4 -224 11 -242 14 -28 6 -34 4 -44 -19z"/>
</g>
</svg>
