<?xml version="1.0" standalone="no"?>
<!DOCTYPE svg PUBLIC "-//W3C//DTD SVG 20010904//EN"
 "http://www.w3.org/TR/2001/REC-SVG-20010904/DTD/svg10.dtd">
<svg version="1.0" xmlns="http://www.w3.org/2000/svg"
 width="600.000000pt" height="600.000000pt" viewBox="0 0 600.000000 600.000000"
 preserveAspectRatio="xMidYMid meet">
<metadata>
Created by potrace 1.15, written by Peter Selinger 2001-2017
</metadata>
<g transform="translate(0.000000,600.000000) scale(0.100000,-0.100000)"
fill="#16364b" stroke="none">
<path d="M2304 5466 c-87 -38 -165 -256 -140 -389 11 -57 61 -123 114 -148 58
-29 161 -30 309 -5 56 10 109 16 118 14 12 -2 5 -18 -30 -71 -120 -178 -273
-456 -320 -580 -22 -59 -24 -74 -15 -107 6 -22 21 -52 34 -67 17 -20 23 -37
19 -55 -8 -40 14 -94 53 -128 46 -40 93 -40 231 0 177 51 389 88 601 105 101
9 138 30 166 97 17 41 18 53 7 87 -16 55 -55 99 -99 111 -67 17 -422 -33 -621
-89 -41 -11 -77 -19 -79 -17 -7 7 45 115 100 205 28 47 100 156 160 242 59 86
120 183 135 215 61 134 19 265 -107 330 -50 26 -198 30 -333 10 -149 -22 -141
-24 -116 26 40 79 7 172 -75 209 -49 22 -70 23 -112 5z"/>
<path d="M3907 5015 c-76 -19 -210 -89 -258 -135 -49 -46 -59 -95 -33 -158 22
-52 66 -88 121 -98 28 -5 47 0 96 26 134 72 157 82 195 87 l40 5 7 -49 c12
-92 -33 -269 -106 -415 -44 -88 -50 -144 -20 -194 21 -34 75 -64 115 -64 23 0
26 -4 26 -32 0 -48 30 -98 70 -120 37 -21 79 -20 250 2 101 12 307 13 331 0
40 -22 19 -160 -61 -395 -45 -133 -48 -164 -22 -215 39 -78 133 -103 205 -55
45 31 55 50 111 213 53 156 70 260 64 390 -9 168 -63 264 -181 322 -105 51
-217 56 -539 24 l-67 -7 33 79 c92 218 113 489 48 619 -54 109 -158 174 -288
181 -50 2 -101 -2 -137 -11z"/>
<path d="M1755 4954 c-186 -38 -328 -104 -506 -237 -110 -81 -122 -97 -127
-165 -3 -54 -1 -61 43 -128 57 -89 77 -98 260 -119 239 -27 321 -55 419 -144
59 -53 95 -66 156 -56 81 14 135 104 111 184 -32 109 -238 245 -423 282 -38 7
-68 16 -68 19 0 20 124 60 213 69 55 6 87 15 112 32 91 62 86 208 -9 253 -32
15 -129 20 -181 10z"/>
<path d="M2115 3924 c-108 -41 -307 -82 -525 -109 -92 -11 -150 -72 -150 -157
0 -52 29 -96 84 -126 69 -38 395 -8 581 53 180 59 232 94 256 176 10 32 9 46
-5 84 -32 84 -136 118 -241 79z"/>
<path d="M3660 3714 c-78 -26 -448 -207 -501 -245 -92 -65 -94 -221 -3 -264
60 -28 87 -20 317 96 121 60 221 108 223 106 9 -9 -43 -138 -107 -265 -43 -84
-69 -149 -69 -169 0 -40 16 -82 41 -109 l20 -22 -37 -7 c-105 -19 -149 -160
-76 -246 42 -51 102 -72 175 -64 155 18 359 91 499 178 155 97 293 237 305
310 17 108 -65 207 -172 207 -51 0 -89 -23 -124 -74 -36 -52 -111 -120 -184
-169 -63 -42 -125 -73 -132 -65 -3 2 17 52 44 109 102 216 154 432 132 541
-33 157 -165 215 -351 152z"/>
<path d="M2385 3313 c-86 -7 -312 -57 -344 -76 -36 -22 -70 -84 -71 -129 0
-65 50 -132 110 -148 26 -7 58 -6 111 5 116 22 239 35 265 29 29 -8 30 -24 4
-99 -24 -69 -25 -104 -6 -150 38 -91 189 -100 253 -16 25 32 63 142 74 211 35
229 -138 393 -396 373z"/>
<path d="M4921 3100 c-54 -13 -111 -60 -145 -120 -29 -52 -31 -60 -29 -153 l3
-97 -38 -26 c-20 -14 -84 -56 -142 -94 -127 -82 -197 -150 -249 -239 -59 -98
-85 -195 -85 -316 -1 -156 38 -272 130 -388 103 -131 259 -142 359 -24 35 41
65 118 65 166 0 44 -21 104 -51 148 -35 51 -44 87 -35 148 9 59 47 96 158 154
180 95 267 174 321 289 25 55 32 82 35 155 10 209 -65 364 -193 396 -49 12
-56 12 -104 1z"/>
<path d="M1193 3074 c-84 -30 -142 -129 -128 -219 8 -58 55 -128 97 -148 27
-13 37 -25 42 -49 4 -18 11 -159 17 -313 5 -154 16 -321 24 -372 16 -102 65
-235 98 -271 75 -82 208 -87 290 -13 72 65 82 119 42 226 -14 37 -24 69 -22
71 2 2 22 -4 45 -13 82 -32 153 11 222 136 33 60 143 191 160 191 4 0 13 -12
19 -27 6 -16 16 -35 23 -45 9 -13 7 -40 -11 -131 -24 -122 -41 -447 -27 -520
4 -21 21 -54 39 -74 57 -65 137 -81 198 -40 56 37 68 74 79 253 6 87 18 220
27 294 27 221 27 231 2 270 -12 19 -23 52 -25 73 -7 99 -99 213 -199 248 -77
27 -143 21 -233 -21 -83 -39 -201 -156 -287 -285 l-60 -90 -6 225 c-8 286 -31
399 -109 518 -78 122 -196 169 -317 126z"/>
<path d="M3385 2283 c-175 -22 -595 -105 -666 -131 -54 -21 -109 -110 -109
-178 0 -11 7 -45 16 -74 20 -68 73 -124 133 -140 51 -14 62 -11 336 65 197 56
307 80 411 90 l61 6 27 -56 c33 -66 87 -102 165 -112 42 -5 59 -1 104 20 75
37 102 86 102 187 0 165 -108 286 -285 320 -50 9 -229 11 -295 3z"/>
<path d="M4425 1538 c-11 -6 -42 -32 -70 -58 -61 -58 -86 -63 -240 -43 -267
36 -462 -6 -635 -136 -65 -49 -197 -178 -260 -254 -31 -37 -57 -58 -82 -66
-20 -6 -63 -34 -95 -61 -110 -95 -193 -118 -296 -82 -118 42 -234 146 -333
298 -56 87 -86 114 -148 134 -127 41 -260 -74 -239 -207 12 -73 179 -312 287
-410 154 -141 358 -233 513 -233 146 1 323 79 463 206 30 28 70 56 88 64 18 7
77 58 130 112 106 109 208 184 299 218 66 26 144 29 343 16 140 -10 204 1 315
53 74 34 167 118 194 174 23 48 28 128 10 174 -13 34 -55 80 -91 99 -32 17
-124 18 -153 2z"/>
</g>
</svg>
