<?xml version="1.0" standalone="no"?>
<!DOCTYPE svg PUBLIC "-//W3C//DTD SVG 20010904//EN"
 "http://www.w3.org/TR/2001/REC-SVG-20010904/DTD/svg10.dtd">
<svg version="1.0" xmlns="http://www.w3.org/2000/svg"
 width="600.000000pt" height="600.000000pt" viewBox="0 0 600.000000 600.000000"
 preserveAspectRatio="xMidYMid meet">
<metadata>
Created by potrace 1.15, written by Peter Selinger 2001-2017
</metadata>
<g transform="translate(0.000000,600.000000) scale(0.100000,-0.100000)"
fill="#16364b" stroke="none">
<path d="M2508 5471 c-37 -32 -97 -146 -122 -230 -21 -71 -21 -172 0 -214 60
-119 162 -146 414 -112 58 8 121 15 140 15 l35 0 -106 -107 c-173 -176 -314
-364 -395 -529 l-37 -74 18 -65 c21 -80 60 -136 111 -160 35 -16 55 -17 254
-9 270 11 397 11 530 1 101 -8 106 -8 140 15 44 30 63 69 62 127 0 49 -21 84
-70 117 -43 29 -196 45 -439 45 -119 1 -193 5 -193 11 0 29 130 189 298 366
160 169 199 222 214 296 16 76 -1 127 -61 188 -67 67 -129 83 -281 74 -63 -4
-162 -15 -220 -25 -58 -10 -108 -16 -112 -14 -4 2 9 37 29 79 28 58 34 82 30
110 -13 78 -70 124 -154 124 -43 0 -58 -5 -85 -29z"/>
<path d="M1665 5106 c-66 -21 -119 -52 -227 -133 -132 -99 -307 -268 -359
-347 -38 -57 -41 -65 -37 -117 6 -88 61 -147 140 -150 18 -1 107 2 198 6 174
8 232 1 244 -31 3 -9 11 -59 17 -112 15 -141 52 -191 146 -199 59 -5 105 20
130 72 15 32 16 51 6 178 -14 179 -34 238 -103 300 -53 48 -122 75 -213 84
-36 4 -56 10 -54 17 6 19 168 123 211 136 84 24 126 74 126 148 0 62 -25 108
-75 137 -46 27 -88 30 -150 11z"/>
<path d="M4175 4741 c-75 -21 -158 -59 -258 -118 -85 -50 -111 -77 -128 -133
-10 -31 -8 -44 9 -83 25 -57 70 -87 129 -87 33 0 63 11 129 49 85 49 190 91
227 91 17 0 18 -5 12 -42 -16 -99 -89 -295 -170 -459 -70 -141 -71 -172 -7
-266 60 -89 67 -90 280 -64 185 22 390 28 421 11 16 -8 17 -16 10 -52 -11 -62
-56 -180 -133 -351 -37 -82 -69 -161 -72 -175 -7 -37 33 -111 75 -139 24 -16
49 -23 83 -23 77 0 102 31 196 245 117 264 135 327 136 455 1 90 -2 113 -23
157 -27 62 -94 126 -157 153 -71 31 -202 43 -339 31 -66 -6 -121 -9 -123 -7
-2 3 12 44 31 93 87 220 118 470 71 573 -63 135 -223 192 -399 141z"/>
<path d="M1990 3998 c-117 -54 -272 -109 -391 -138 -130 -31 -170 -53 -199
-110 -26 -51 -25 -89 3 -130 53 -79 118 -88 311 -45 185 41 460 147 512 196
38 35 58 101 45 142 -22 65 -103 118 -178 116 -21 0 -67 -14 -103 -31z"/>
<path d="M3685 3666 c-161 -52 -351 -176 -379 -247 -31 -77 3 -156 82 -191 60
-27 94 -19 192 48 81 56 173 104 198 104 10 0 12 -9 7 -32 -12 -56 -52 -168
-100 -283 -26 -60 -51 -122 -56 -136 -6 -16 -25 -33 -49 -44 -48 -22 -74 -49
-95 -99 -40 -95 34 -206 136 -206 38 0 405 146 497 197 96 54 157 119 177 188
20 68 14 113 -20 154 -48 56 -139 78 -195 46 -38 -22 -39 -19 -24 38 8 28 18
97 21 153 6 111 -8 175 -54 247 -54 84 -193 110 -338 63z"/>
<path d="M2393 3441 c-80 -22 -258 -91 -315 -123 -89 -50 -102 -168 -27 -240
45 -43 96 -56 149 -40 19 6 94 31 165 56 91 32 146 46 183 46 l53 0 -7 -37
c-9 -53 -51 -175 -85 -247 -16 -34 -29 -74 -29 -89 0 -110 115 -177 223 -129
56 25 89 73 140 201 112 280 79 486 -93 580 -62 34 -70 36 -175 38 -84 2 -127
-2 -182 -16z"/>
<path d="M1137 3156 c-136 -56 -181 -110 -181 -216 0 -107 54 -174 151 -188
57 -9 53 29 34 -322 -21 -373 -3 -606 54 -692 30 -45 90 -78 141 -78 75 0 164
63 188 134 7 21 26 45 46 58 25 17 52 57 100 148 37 69 92 166 122 215 57 91
163 225 184 232 18 6 28 -280 15 -394 -13 -109 -34 -214 -61 -302 -39 -125
-18 -200 66 -241 52 -26 87 -25 141 1 52 25 66 50 103 179 55 190 65 274 63
526 -2 255 -13 363 -44 433 -90 204 -318 183 -566 -52 -40 -38 -94 -100 -120
-139 -33 -49 -49 -65 -51 -53 -2 10 1 82 7 160 14 175 14 316 1 373 -24 101
-88 188 -165 223 -59 27 -155 25 -228 -5z"/>
<path d="M4795 2771 c-81 -37 -115 -101 -115 -215 l0 -75 -57 -11 c-175 -33
-366 -117 -456 -200 -97 -89 -150 -222 -150 -375 0 -139 49 -274 134 -377 39
-46 48 -68 29 -68 -5 0 -27 -16 -49 -35 -21 -19 -48 -35 -59 -35 -11 0 -87 20
-169 44 -232 69 -328 76 -450 32 -124 -44 -258 -169 -396 -369 -54 -77 -100
-133 -118 -142 -16 -9 -52 -36 -80 -61 -28 -25 -62 -49 -75 -54 -87 -33 -219
140 -309 405 -15 44 -34 92 -43 108 -24 41 -81 76 -144 89 -75 16 -130 -1
-180 -53 -51 -54 -58 -105 -27 -202 28 -86 170 -375 230 -467 63 -95 172 -201
247 -238 191 -94 362 -58 555 118 30 28 70 57 89 64 49 21 72 46 153 170 129
196 219 276 309 276 20 0 92 -18 159 -40 212 -69 314 -71 443 -11 118 55 194
147 194 235 0 42 2 45 33 51 51 11 115 53 142 93 67 102 52 200 -45 307 -64
71 -93 133 -88 186 3 29 9 37 48 56 25 13 86 32 135 43 256 60 331 95 392 187
53 79 66 138 61 262 -4 92 -8 117 -32 164 -61 126 -202 188 -311 138z"/>
<path d="M3249 2460 c-191 -23 -558 -104 -629 -140 -97 -50 -136 -161 -89
-258 43 -89 126 -116 254 -84 82 21 519 102 548 102 15 0 15 -5 -3 -50 -39
-98 -19 -175 59 -227 65 -44 137 -42 209 4 48 31 81 88 112 191 55 180 -3 346
-147 424 -80 44 -170 54 -314 38z"/>
</g>
</svg>
