<?xml version="1.0" standalone="no"?>
<!DOCTYPE svg PUBLIC "-//W3C//DTD SVG 20010904//EN"
 "http://www.w3.org/TR/2001/REC-SVG-20010904/DTD/svg10.dtd">
<svg version="1.0" xmlns="http://www.w3.org/2000/svg"
 width="600.000000pt" height="600.000000pt" viewBox="0 0 600.000000 600.000000"
 preserveAspectRatio="xMidYMid meet">
<metadata>
Created by potrace 1.15, written by Peter Selinger 2001-2017
</metadata>
<g transform="translate(0.000000,600.000000) scale(0.100000,-0.100000)"
fill="#16364b" stroke="none">
<path d="M1535 5761 c-32 -19 -89 -117 -157 -269 -96 -214 -91 -325 16 -373
75 -33 151 -6 303 108 98 73 235 196 254 228 63 102 -56 233 -151 168 -14 -9
-54 -43 -89 -75 -34 -33 -65 -57 -68 -55 -2 3 12 37 31 76 20 39 36 82 36 96
0 88 -99 143 -175 96z"/>
<path d="M2374 5444 c-57 -28 -64 -53 -64 -241 0 -174 -9 -261 -36 -341 -49
-145 -113 -226 -235 -298 -69 -40 -85 -54 -101 -90 -28 -66 -5 -133 54 -153
40 -14 69 -6 153 43 104 61 222 183 272 281 94 184 123 313 123 550 0 91 -5
176 -11 193 -12 35 -64 72 -100 72 -13 0 -38 -7 -55 -16z"/>
<path d="M3479 5291 c-20 -22 -40 -53 -44 -70 -21 -97 110 -289 233 -342 90
-39 176 -14 215 61 30 60 12 122 -70 237 -49 70 -104 112 -177 136 -81 28
-113 23 -157 -22z"/>
<path d="M2980 5147 c-127 -40 -223 -280 -158 -391 51 -87 165 -105 285 -45
85 42 103 74 110 193 8 125 -23 193 -108 236 -42 22 -76 24 -129 7z"/>
<path d="M4775 4786 c-16 -7 -38 -22 -48 -33 -52 -59 -45 -321 14 -478 31 -84
124 -177 199 -199 63 -19 86 -20 145 -5 49 12 118 66 140 109 43 84 38 178
-16 288 -53 109 -211 258 -330 312 -52 23 -64 24 -104 6z m210 -416 c8 -16 15
-35 15 -42 0 -16 -37 30 -44 55 -7 28 12 20 29 -13z"/>
<path d="M2646 4224 c-74 -23 -137 -92 -160 -173 -37 -134 16 -261 132 -318
49 -24 69 -28 142 -28 137 1 218 49 362 212 67 76 71 168 10 226 -71 68 -371
118 -486 81z"/>
<path d="M1046 4079 c-37 -29 -56 -70 -56 -121 0 -77 54 -131 144 -143 67 -10
176 -43 176 -55 0 -19 -170 -90 -296 -123 -149 -39 -175 -53 -199 -104 -27
-57 -16 -119 29 -160 30 -28 43 -33 85 -33 90 0 271 44 390 94 85 36 153 79
218 139 l42 39 -20 -41 c-83 -173 -2 -365 178 -417 157 -46 321 34 369 180 64
190 -84 409 -275 409 -69 0 -176 -45 -222 -94 l-29 -31 20 45 c49 111 35 194
-45 272 -60 59 -146 99 -297 140 -116 31 -176 32 -212 4z"/>
<path d="M4153 3761 c-105 -38 -174 -105 -208 -200 -44 -127 18 -275 146 -346
49 -27 62 -30 149 -30 81 0 102 4 140 24 140 74 218 196 236 369 12 108 -37
153 -195 187 -98 20 -204 19 -268 -4z m107 -286 c-14 -17 -60 -20 -60 -5 0 15
64 41 68 29 2 -5 -2 -16 -8 -24z"/>
<path d="M5185 3582 c-176 -61 -310 -217 -322 -376 -14 -165 99 -286 268 -286
96 0 236 63 294 132 83 99 101 248 44 360 -45 89 -159 189 -213 188 -12 -1
-44 -8 -71 -18z m15 -341 c-5 -11 -15 -23 -20 -26 -14 -9 -12 19 2 33 19 19
30 14 18 -7z"/>
<path d="M2568 3436 c-85 -30 -198 -105 -245 -162 -52 -62 -97 -144 -140 -254
-67 -173 -111 -224 -259 -298 -154 -77 -336 -238 -448 -396 -108 -151 -173
-346 -183 -548 -10 -203 38 -361 159 -526 130 -176 439 -329 732 -362 318 -37
644 152 895 519 128 188 163 293 201 614 11 95 1 225 -41 507 -32 219 -49 305
-74 385 -9 28 -20 77 -25 110 -14 91 -97 252 -167 322 -78 77 -145 107 -253
111 -70 2 -97 -2 -152 -22z m156 -386 c27 -52 96 -279 110 -360 96 -558 93
-527 66 -670 -27 -145 -52 -225 -102 -321 -75 -147 -226 -298 -368 -367 -75
-37 -75 -37 -205 -37 -125 0 -133 1 -208 34 -98 42 -212 116 -256 166 -137
156 -116 407 52 630 66 88 174 188 237 220 168 84 338 230 409 348 18 32 56
110 84 175 73 171 105 215 150 209 10 -1 24 -13 31 -27z"/>
<path d="M3403 3371 c-42 -26 -87 -94 -140 -213 -49 -109 -51 -142 -12 -192
64 -82 228 -26 307 104 42 71 55 121 50 194 -4 54 -8 63 -43 93 -31 27 -47 33
-84 33 -28 0 -59 -8 -78 -19z"/>
<path d="M344 2266 c-45 -45 -45 -88 2 -214 67 -180 148 -312 261 -426 145
-148 270 -196 378 -147 169 77 148 317 -45 512 -93 94 -159 139 -346 234 -172
88 -198 93 -250 41z m418 -428 c71 -68 121 -138 99 -138 -25 0 -191 177 -191
204 0 17 24 0 92 -66z"/>
<path d="M4105 2003 c-40 -10 -84 -53 -97 -94 -9 -32 -9 -62 1 -142 27 -221
75 -401 125 -476 64 -93 177 -117 264 -55 51 36 77 82 102 179 20 79 70 393
70 442 0 42 -38 110 -74 133 -64 39 -184 18 -215 -37 -7 -14 -14 -12 -47 15
-39 31 -91 45 -129 35z"/>
</g>
</svg>
