<?xml version="1.0" standalone="no"?>
<!DOCTYPE svg PUBLIC "-//W3C//DTD SVG 20010904//EN"
 "http://www.w3.org/TR/2001/REC-SVG-20010904/DTD/svg10.dtd">
<svg version="1.0" xmlns="http://www.w3.org/2000/svg"
 width="600.000000pt" height="600.000000pt" viewBox="0 0 600.000000 600.000000"
 preserveAspectRatio="xMidYMid meet">
<metadata>
Created by potrace 1.15, written by Peter Selinger 2001-2017
</metadata>
<g transform="translate(0.000000,600.000000) scale(0.100000,-0.100000)"
fill="#16364b" stroke="none">
<path d="M2245 5836 c-42 -18 -512 -409 -622 -518 -113 -111 -154 -181 -155
-266 -1 -85 31 -137 112 -177 57 -29 170 -15 425 53 360 97 500 145 565 195
92 69 92 212 0 275 -51 34 -99 29 -236 -26 -132 -54 -275 -105 -280 -100 -2 2
53 50 121 107 191 158 252 219 264 266 21 79 -31 174 -109 195 -44 12 -48 12
-85 -4z"/>
<path d="M3064 5670 c-31 -12 -72 -66 -80 -104 -7 -43 24 -118 59 -140 13 -9
64 -27 112 -41 177 -48 300 -127 346 -222 31 -64 30 -173 -4 -246 -37 -81
-117 -152 -242 -213 -87 -42 -121 -74 -136 -125 -32 -106 70 -207 186 -185 66
13 247 112 312 171 74 67 143 168 179 261 21 55 28 92 32 181 7 175 -27 281
-128 395 -135 153 -519 315 -636 268z"/>
<path d="M989 5341 c-57 -18 -187 -93 -235 -136 -99 -86 -164 -217 -164 -328
1 -139 65 -282 178 -394 75 -74 173 -133 221 -133 44 1 109 37 131 72 13 22
20 51 20 87 0 59 -8 69 -139 180 -89 75 -115 163 -68 231 12 18 51 50 87 71
114 66 124 73 147 108 45 67 21 184 -46 224 -35 20 -98 29 -132 18z"/>
<path d="M2737 4966 c-21 -8 -63 -30 -92 -50 -186 -123 -267 -336 -203 -533
37 -113 146 -207 288 -249 122 -35 183 -27 238 29 55 57 67 127 32 184 -26 44
-58 62 -135 78 -37 8 -81 23 -99 33 -90 52 -63 168 54 227 94 48 128 121 94
203 -30 71 -104 104 -177 78z"/>
<path d="M4812 4950 c-46 -11 -103 -58 -126 -105 -18 -36 -18 -47 -8 -144 14
-132 33 -206 77 -298 89 -190 265 -275 411 -200 50 25 111 83 135 128 39 74
49 195 23 277 -43 132 -215 272 -408 331 -37 12 -69 21 -70 20 0 -1 -16 -5
-34 -9z"/>
<path d="M1876 4480 c-80 -14 -175 -67 -244 -136 -93 -93 -114 -162 -72 -245
28 -54 71 -79 140 -79 54 0 55 1 110 59 30 32 65 63 77 70 36 19 89 13 120
-13 45 -37 68 -46 120 -46 57 0 105 26 133 72 43 72 16 156 -74 229 -96 78
-202 108 -310 89z"/>
<path d="M2597 3836 c-20 -7 -44 -20 -53 -27 -54 -45 -59 -157 -8 -210 45 -48
63 -54 156 -54 108 0 116 -6 99 -77 -25 -114 -144 -301 -297 -468 -93 -101
-104 -121 -104 -178 0 -80 72 -151 153 -152 73 0 100 23 284 256 145 183 170
218 217 312 124 247 68 485 -138 578 -52 24 -76 29 -166 31 -72 2 -117 -1
-143 -11z"/>
<path d="M4291 3800 c-199 -28 -333 -127 -377 -278 -56 -193 141 -417 340
-388 67 10 143 52 199 108 66 66 101 117 177 258 51 94 60 119 60 162 0 43 -4
54 -33 83 -18 18 -51 38 -73 44 -57 15 -219 21 -293 11z m-49 -341 c-32 -29
-52 -34 -55 -14 -2 10 60 45 78 45 6 0 -5 -14 -23 -31z"/>
<path d="M1125 3735 c-44 -13 -120 -40 -168 -61 -71 -29 -95 -45 -117 -76 -71
-97 -34 -219 84 -280 31 -16 53 -19 107 -16 l68 4 -73 -141 c-40 -77 -109
-210 -154 -295 -121 -232 -195 -473 -172 -559 39 -147 214 -184 343 -73 30 26
100 85 156 131 90 73 278 258 469 461 33 36 63 62 67 59 3 -4 -6 -82 -20 -174
-38 -245 -107 -471 -236 -772 -38 -89 -69 -175 -69 -190 1 -40 33 -106 65
-131 57 -45 149 -38 200 16 14 15 56 93 92 172 161 357 207 515 249 860 8 69
20 159 25 200 6 41 9 122 7 180 -4 124 -26 175 -95 224 -37 26 -52 30 -106 29
-106 -1 -205 -66 -419 -277 -60 -58 -108 -102 -108 -99 0 4 42 86 94 182 115
216 146 298 146 390 0 79 -16 125 -62 177 -76 86 -211 107 -373 59z"/>
<path d="M3464 3350 c-28 -16 -64 -44 -79 -62 -44 -51 -92 -165 -111 -259 -18
-84 -18 -85 4 -130 41 -83 122 -112 249 -89 143 26 275 116 320 219 20 47 20
136 0 183 -61 144 -253 213 -383 138z"/>
<path d="M4868 2768 c-31 -8 -52 -28 -112 -102 -122 -152 -196 -282 -196 -346
0 -28 -17 -25 -24 4 -10 40 -57 87 -111 112 -168 79 -364 -40 -365 -221 0 -27
11 -94 24 -147 13 -54 22 -98 20 -98 -2 0 -37 13 -78 30 -201 80 -362 60 -465
-56 -74 -85 -89 -206 -51 -424 11 -63 29 -175 39 -247 15 -103 25 -143 45
-178 32 -54 100 -96 165 -103 100 -9 213 73 246 179 16 51 16 61 -3 199 -11
80 -19 146 -17 148 2 2 26 -9 55 -25 28 -15 70 -38 93 -50 52 -29 114 -30 198
-2 125 41 199 103 247 207 36 80 40 196 12 382 -11 80 -23 156 -26 170 -6 24
-5 23 14 -5 71 -108 174 -140 299 -93 105 39 191 149 223 288 21 87 19 200 -4
235 -30 46 -132 145 -149 145 -8 0 -21 2 -29 4 -7 2 -30 -1 -50 -6z"/>
<path d="M2950 2348 c-80 -11 -201 -58 -392 -154 -210 -105 -239 -124 -272
-188 -13 -27 -19 -29 -79 -31 -78 -3 -149 -33 -230 -99 -68 -56 -89 -93 -89
-156 0 -100 72 -177 179 -189 l56 -6 27 -103 27 -103 -61 -32 c-83 -44 -170
-131 -203 -203 -53 -116 -41 -258 33 -406 124 -246 274 -383 504 -460 88 -30
105 -32 225 -32 153 1 240 23 408 103 116 55 151 86 168 153 33 122 -84 249
-218 236 -27 -3 -87 -23 -138 -47 -129 -61 -178 -70 -268 -47 -40 10 -99 32
-132 50 -110 57 -231 206 -223 274 3 23 7 27 32 25 16 -1 45 -16 65 -33 52
-45 107 -67 182 -75 55 -6 74 -4 112 13 74 33 115 94 116 175 1 57 -22 102
-88 167 -88 86 -131 181 -185 408 -14 57 -28 111 -31 121 -4 15 4 22 47 36 29
9 142 60 251 112 109 53 200 93 203 90 13 -13 -82 -272 -151 -414 -65 -131
-75 -158 -75 -205 0 -64 23 -111 74 -152 51 -42 142 -48 201 -14 105 61 256
383 315 671 60 295 -30 481 -251 517 -35 5 -66 9 -69 9 -3 -1 -34 -6 -70 -11z"/>
</g>
</svg>
