<?xml version="1.0" standalone="no"?>
<!DOCTYPE svg PUBLIC "-//W3C//DTD SVG 20010904//EN"
 "http://www.w3.org/TR/2001/REC-SVG-20010904/DTD/svg10.dtd">
<svg version="1.0" xmlns="http://www.w3.org/2000/svg"
 width="600.000000pt" height="600.000000pt" viewBox="0 0 600.000000 600.000000"
 preserveAspectRatio="xMidYMid meet">
<metadata>
Created by potrace 1.15, written by Peter Selinger 2001-2017
</metadata>
<g transform="translate(0.000000,600.000000) scale(0.100000,-0.100000)"
fill="#16364b" stroke="none">
<path d="M3105 5651 c-86 -40 -108 -159 -43 -229 13 -13 65 -44 116 -68 227
-106 375 -249 375 -363 0 -48 -32 -107 -85 -157 -61 -58 -95 -80 -238 -154
-141 -73 -170 -103 -170 -175 0 -76 70 -145 145 -145 35 0 228 91 312 147 237
157 361 399 309 602 -50 197 -215 360 -497 495 -138 66 -170 73 -224 47z"/>
<path d="M2060 5599 c-25 -5 -47 -22 -80 -61 -46 -55 -137 -148 -278 -282 -87
-83 -157 -167 -187 -226 -10 -19 -20 -62 -23 -97 -9 -118 44 -197 155 -229 84
-24 302 -15 438 20 133 33 335 103 359 124 31 29 46 69 46 125 0 119 -105 187
-215 141 -46 -19 -298 -84 -327 -84 -17 0 13 34 119 135 165 158 203 209 203
272 0 24 -7 57 -15 73 -33 63 -123 104 -195 89z"/>
<path d="M1088 5350 c-67 -20 -167 -87 -239 -160 -139 -140 -192 -300 -156
-474 38 -187 176 -370 294 -392 68 -13 170 51 175 109 5 72 -7 102 -67 167
-85 92 -113 166 -94 250 20 88 51 120 222 221 87 52 100 152 30 230 -46 51
-103 68 -165 49z"/>
<path d="M4650 4824 c-44 -38 -61 -77 -61 -142 0 -31 -1 -82 -2 -113 -2 -46 4
-67 33 -124 45 -89 154 -202 231 -239 148 -71 312 -25 382 108 33 62 30 174
-5 242 -54 103 -167 180 -385 263 -103 39 -151 40 -193 5z"/>
<path d="M2810 4769 c-159 -80 -279 -234 -296 -381 -20 -170 110 -301 312
-315 71 -5 72 -5 111 31 73 65 79 162 15 221 -14 13 -40 27 -57 30 -54 11 -95
26 -95 35 0 24 68 82 140 119 44 23 88 54 100 71 65 92 10 215 -103 227 -35 4
-56 -2 -127 -38z"/>
<path d="M1810 4344 c-88 -24 -159 -64 -232 -132 -121 -114 -148 -217 -77
-290 62 -63 137 -52 231 35 97 89 196 122 275 92 41 -16 107 -13 147 6 72 34
99 133 56 203 -50 81 -254 125 -400 86z"/>
<path d="M2615 3786 c-112 -22 -225 -55 -250 -74 -76 -56 -71 -204 9 -253 43
-26 105 -24 201 7 44 14 111 28 149 31 l69 6 -7 -29 c-21 -85 -250 -431 -417
-628 -50 -60 -96 -124 -101 -142 -11 -40 3 -100 32 -136 43 -56 138 -74 196
-39 41 25 316 379 440 566 119 179 154 271 155 399 0 64 -4 88 -25 130 -56
115 -146 168 -291 173 -49 1 -121 -4 -160 -11z"/>
<path d="M4160 3779 c-123 -13 -211 -64 -251 -145 -20 -40 -24 -64 -24 -134 0
-74 4 -93 31 -150 100 -211 320 -268 495 -128 49 39 119 134 154 209 29 64 32
122 7 197 -32 97 -93 135 -241 147 -36 4 -75 7 -86 9 -11 1 -49 -1 -85 -5z
m65 -319 c-3 -5 -15 -10 -26 -10 -10 0 -19 5 -19 10 0 6 12 10 26 10 14 0 23
-4 19 -10z"/>
<path d="M1184 3660 c-52 -11 -178 -61 -274 -108 -101 -50 -135 -93 -135 -170
0 -136 126 -239 243 -199 23 8 42 11 42 8 0 -17 -93 -258 -160 -416 -40 -93
-81 -195 -92 -225 -27 -79 -58 -233 -58 -294 0 -107 72 -188 182 -205 87 -15
113 -3 204 91 79 82 429 457 552 592 34 38 65 67 68 64 12 -12 -83 -521 -129
-688 -13 -47 -47 -171 -76 -276 l-53 -191 20 -45 c34 -78 131 -109 212 -68 50
26 67 52 95 148 12 42 49 160 83 262 79 244 92 313 152 785 13 103 13 317 -1
375 -23 100 -87 155 -184 155 -114 0 -203 -68 -422 -322 -62 -73 -117 -134
-122 -137 -5 -3 15 54 44 128 150 378 171 512 101 628 -55 91 -171 134 -292
108z"/>
<path d="M3599 3327 c-147 -42 -249 -163 -285 -341 -15 -71 -15 -77 4 -119 29
-65 80 -100 145 -100 29 0 75 5 102 11 28 7 73 17 100 23 106 24 199 92 240
174 41 83 21 198 -48 281 -54 64 -170 95 -258 71z"/>
<path d="M4830 2831 c-59 -18 -130 -63 -167 -105 -52 -59 -67 -114 -61 -220 7
-98 35 -171 93 -234 112 -124 293 -51 350 142 22 72 19 163 -5 211 -11 22 -20
53 -20 70 0 48 -32 97 -80 122 -45 24 -68 27 -110 14z"/>
<path d="M2871 2500 c-91 -19 -166 -56 -413 -201 -127 -75 -157 -108 -165
-184 -10 -82 36 -162 112 -196 72 -33 110 -26 249 46 104 54 290 135 311 135
20 0 -24 -125 -120 -345 -78 -177 -84 -194 -85 -238 0 -71 48 -150 115 -184
38 -20 122 -20 160 0 66 34 90 76 208 367 144 357 161 420 137 519 -26 109
-127 219 -242 263 -61 23 -198 32 -267 18z"/>
<path d="M4344 2354 c-78 -28 -143 -117 -144 -196 0 -20 7 -67 15 -104 9 -36
13 -69 10 -72 -3 -3 -27 2 -53 11 -153 53 -315 64 -413 28 -100 -38 -170 -115
-210 -232 -19 -58 -21 -77 -15 -204 3 -77 14 -204 25 -283 15 -121 23 -149 47
-189 94 -152 325 -147 404 7 30 59 33 103 16 269 -9 85 -16 157 -16 162 0 10
111 -31 175 -66 47 -25 56 -27 151 -22 130 6 201 35 274 113 103 109 118 197
76 455 -30 186 -46 236 -84 275 -60 60 -166 80 -258 48z"/>
<path d="M2100 1875 c-53 -18 -79 -39 -114 -90 -53 -77 -25 -201 56 -254 28
-18 39 -33 47 -70 7 -25 30 -102 52 -171 40 -124 40 -127 28 -188 -27 -131 21
-252 166 -414 124 -140 193 -194 340 -268 195 -98 334 -110 500 -44 72 29 166
90 195 126 68 88 35 253 -60 300 -57 29 -101 23 -198 -27 -98 -51 -127 -54
-204 -25 -83 31 -84 32 -65 73 33 68 12 180 -39 210 -8 4 -41 44 -75 88 -34
44 -83 96 -110 115 -56 41 -67 66 -124 284 -21 80 -50 170 -66 201 -63 126
-208 194 -329 154z"/>
</g>
</svg>
