<?xml version="1.0" standalone="no"?>
<!DOCTYPE svg PUBLIC "-//W3C//DTD SVG 20010904//EN"
 "http://www.w3.org/TR/2001/REC-SVG-20010904/DTD/svg10.dtd">
<svg version="1.0" xmlns="http://www.w3.org/2000/svg"
 width="600.000000pt" height="600.000000pt" viewBox="0 0 600.000000 600.000000"
 preserveAspectRatio="xMidYMid meet">
<metadata>
Created by potrace 1.15, written by Peter Selinger 2001-2017
</metadata>
<g transform="translate(0.000000,600.000000) scale(0.100000,-0.100000)"
fill="#16364b" stroke="none">
<path d="M2370 5400 c-18 -18 -20 -33 -20 -184 0 -200 -12 -291 -54 -416 -53
-158 -120 -241 -240 -296 -31 -14 -64 -36 -72 -49 -30 -46 9 -105 68 -105 48
0 167 67 224 126 134 140 204 372 219 734 7 149 6 156 -15 183 -27 34 -80 37
-110 7z"/>
<path d="M3535 5282 c-20 -14 -45 -61 -45 -84 0 -32 44 -122 83 -172 68 -86
131 -129 194 -130 59 -1 93 34 93 99 0 82 -102 235 -183 274 -43 21 -122 28
-142 13z"/>
<path d="M2962 5102 c-80 -53 -132 -150 -132 -246 0 -117 100 -185 207 -141
175 73 240 318 105 398 -48 28 -130 23 -180 -11z m85 -179 c-18 -34 -55 -69
-64 -60 -12 13 18 86 45 107 27 22 27 22 30 2 2 -12 -3 -33 -11 -49z"/>
<path d="M4743 4714 l-26 -26 6 -161 c8 -190 25 -289 67 -374 36 -73 74 -104
129 -105 55 -1 101 29 128 82 69 136 44 289 -77 464 -80 116 -113 146 -161
146 -30 0 -47 -7 -66 -26z"/>
<path d="M2686 4215 c-59 -21 -88 -46 -114 -97 -20 -41 -22 -51 -12 -87 15
-56 60 -105 128 -138 51 -25 67 -28 163 -28 101 0 108 1 182 38 87 43 119 80
121 137 1 62 -27 90 -130 127 -169 61 -264 75 -338 48z"/>
<path d="M5250 3991 c-190 -61 -286 -248 -218 -428 29 -78 131 -182 202 -206
214 -73 486 103 486 313 0 110 -65 205 -192 281 -70 42 -76 44 -163 46 -49 1
-101 -1 -115 -6z m147 -305 c12 -11 -7 -36 -33 -42 -20 -5 -31 -2 -41 11 -25
35 -17 48 28 42 22 -3 43 -8 46 -11z"/>
<path d="M4203 3760 c-239 -50 -346 -343 -188 -518 91 -101 231 -126 358 -64
79 39 137 101 169 181 29 73 31 237 4 289 -40 78 -223 137 -343 112z m77 -294
c0 -18 -27 -46 -45 -46 -23 0 -25 16 -4 38 23 25 49 29 49 8z"/>
<path d="M1105 3369 c-204 -29 -320 -97 -375 -221 -61 -138 -17 -329 101 -446
100 -98 203 -140 380 -152 133 -9 174 -25 232 -89 77 -85 112 -179 197 -519
55 -221 77 -291 114 -365 87 -178 216 -313 371 -387 122 -59 180 -69 470 -83
318 -15 1390 -13 1520 3 227 28 395 81 645 206 268 134 347 213 423 420 62
169 72 229 71 414 0 184 -11 242 -68 365 -85 183 -291 373 -470 435 -268 92
-654 9 -941 -202 -116 -85 -218 -150 -283 -181 -57 -27 -79 -31 -173 -35 -94
-4 -118 -1 -198 22 -156 44 -306 131 -501 287 -219 176 -270 210 -456 303
-352 175 -774 265 -1059 225z m391 -398 c260 -49 497 -140 691 -267 48 -31
151 -105 228 -164 239 -183 369 -258 553 -320 175 -58 332 -73 483 -44 157 29
279 90 481 238 219 160 320 201 498 201 110 0 119 -2 180 -32 133 -66 229
-181 261 -313 35 -142 2 -359 -72 -468 -40 -61 -78 -89 -219 -164 -311 -165
-445 -180 -1490 -171 -695 6 -713 7 -822 65 -120 64 -163 150 -248 488 -82
325 -129 448 -227 598 -73 109 -239 231 -373 273 -37 11 -109 22 -165 26 -63
3 -116 12 -142 24 -42 17 -56 42 -30 53 27 13 306 -3 413 -23z"/>
<path d="M2166 2278 c-22 -31 -20 -41 10 -77 45 -53 114 -31 114 36 0 57 -92
87 -124 41z"/>
<path d="M2884 2055 c-21 -33 -12 -66 25 -88 38 -22 54 -22 76 3 24 27 24 79
0 96 -32 23 -82 18 -101 -11z"/>
<path d="M3409 3311 c-31 -32 -67 -89 -105 -164 -53 -107 -56 -118 -45 -145
24 -57 89 -67 145 -23 138 110 211 322 126 366 -48 25 -70 19 -121 -34z"/>
<path d="M462 2037 c-30 -32 -29 -80 2 -104 13 -10 30 -33 39 -49 25 -48 97
-118 148 -142 94 -46 159 -15 159 75 0 45 -3 50 -62 108 -69 66 -189 135 -235
135 -18 0 -38 -9 -51 -23z"/>
<path d="M5324 1110 c-29 -12 -67 -93 -72 -155 -5 -62 15 -108 58 -130 39 -20
58 -19 98 5 46 29 72 89 72 173 0 59 -3 71 -25 92 -18 19 -34 25 -67 24 -24 0
-53 -4 -64 -9z"/>
</g>
</svg>
