<?xml version="1.0" standalone="no"?>
<!DOCTYPE svg PUBLIC "-//W3C//DTD SVG 20010904//EN"
 "http://www.w3.org/TR/2001/REC-SVG-20010904/DTD/svg10.dtd">
<svg version="1.0" xmlns="http://www.w3.org/2000/svg"
 width="600.000000pt" height="600.000000pt" viewBox="0 0 600.000000 600.000000"
 preserveAspectRatio="xMidYMid meet">
<metadata>
Created by potrace 1.15, written by Peter Selinger 2001-2017
</metadata>
<g transform="translate(0.000000,600.000000) scale(0.100000,-0.100000)"
fill="#16364b" stroke="none">
<path d="M2759 5557 c-102 -69 -170 -359 -111 -479 32 -66 89 -114 159 -134
47 -14 85 -16 201 -11 l144 5 -135 -129 c-141 -134 -224 -228 -339 -383 -86
-116 -102 -148 -95 -197 6 -45 56 -118 97 -142 16 -10 75 -24 132 -33 233 -34
421 -67 564 -99 158 -36 182 -36 237 0 32 21 67 90 67 133 0 45 -23 95 -54
119 -28 22 -140 46 -419 88 -89 14 -177 28 -195 31 l-33 5 33 41 c53 68 196
208 313 307 195 166 236 223 237 327 1 77 -37 136 -115 179 -85 47 -167 58
-363 50 -125 -6 -164 -5 -164 5 0 6 14 45 30 87 17 41 30 88 30 104 0 44 -23
91 -59 122 -43 36 -112 38 -162 4z"/>
<path d="M1543 5236 c-130 -61 -295 -207 -422 -376 -75 -100 -161 -270 -168
-333 -10 -87 41 -167 121 -188 33 -9 60 -6 160 15 135 30 261 44 321 36 49 -6
49 -5 -6 -179 -54 -169 -56 -194 -26 -254 17 -32 21 -50 13 -52 -6 -2 -29 -9
-51 -15 -106 -32 -145 -148 -84 -247 23 -37 84 -73 123 -73 54 0 476 159 573
216 82 48 104 142 51 220 -51 75 -125 82 -246 24 -46 -22 -85 -40 -87 -40 -11
0 -3 39 37 183 64 235 57 348 -25 435 -67 70 -169 102 -329 102 -48 0 -88 3
-88 6 0 34 161 174 265 232 84 46 107 75 112 144 10 137 -108 207 -244 144z"/>
<path d="M4455 4624 c-11 -2 -45 -9 -75 -15 -51 -11 -273 -91 -349 -127 -98
-46 -93 -203 9 -261 21 -11 49 -21 64 -21 14 0 83 24 153 54 157 67 183 74
183 52 0 -42 -107 -272 -215 -461 -75 -132 -79 -143 -66 -192 11 -40 106 -150
148 -172 12 -6 64 -11 115 -11 175 0 399 -27 413 -50 8 -13 -14 -66 -122 -298
-57 -123 -106 -237 -110 -252 -3 -16 0 -45 7 -67 23 -69 79 -113 147 -113 61
0 96 29 136 112 19 40 72 149 117 242 120 248 125 264 125 376 0 85 -3 100
-27 141 -72 123 -213 184 -448 195 -171 8 -165 -14 -56 197 114 218 147 312
148 411 1 111 -41 185 -131 230 -46 23 -128 38 -166 30z"/>
<path d="M3753 3682 c-102 -36 -170 -100 -218 -203 -29 -62 -32 -117 -9 -165
31 -65 118 -93 183 -59 33 17 81 70 81 90 0 13 36 45 51 45 32 0 6 -143 -47
-260 l-38 -83 -83 -38 c-102 -47 -194 -109 -224 -150 -58 -82 0 -209 103 -225
55 -9 101 3 144 38 52 41 144 82 272 119 135 39 175 60 207 106 43 63 25 174
-36 216 -20 14 -20 16 -5 90 27 129 19 229 -26 324 -64 136 -219 204 -355 155z"/>
<path d="M2495 3539 c-133 -22 -393 -129 -432 -177 -28 -34 -39 -100 -24 -144
15 -45 67 -94 113 -106 46 -13 82 -4 179 41 107 51 215 85 279 89 l55 3 -1
-50 c-2 -54 -58 -205 -135 -356 -35 -71 -41 -90 -37 -131 12 -122 156 -189
246 -113 34 29 145 263 199 423 34 97 37 117 38 217 0 105 -1 113 -31 165 -37
66 -97 114 -166 135 -56 16 -198 19 -283 4z"/>
<path d="M1120 3237 c-116 -39 -230 -122 -256 -184 -38 -90 4 -216 86 -261 37
-20 55 -23 102 -19 55 5 58 4 53 -16 -51 -238 -80 -509 -71 -667 13 -224 35
-294 108 -353 66 -53 209 -46 265 13 14 16 74 113 133 217 58 104 137 238 174
299 68 109 194 284 206 284 3 0 14 -25 24 -55 17 -48 18 -74 13 -214 -8 -187
-38 -438 -73 -601 -13 -63 -24 -133 -24 -156 0 -47 31 -101 70 -122 36 -19
124 -10 159 16 l28 21 7 -81 c18 -222 99 -509 194 -693 44 -86 151 -196 219
-228 39 -18 66 -22 143 -22 86 0 101 3 162 32 37 17 89 51 115 76 27 24 64 53
83 65 55 32 72 56 153 213 144 280 220 371 298 354 17 -4 85 -44 153 -90 68
-45 150 -93 182 -105 79 -29 170 -29 247 0 75 28 169 114 192 175 10 25 33 56
55 74 87 70 103 168 50 321 -18 52 -35 123 -38 156 -4 53 -2 63 14 72 28 15
144 30 278 37 249 13 364 94 428 300 31 98 31 243 1 301 -40 75 -126 124 -218
124 -124 0 -209 -74 -224 -195 l-6 -50 -45 -2 c-300 -17 -465 -62 -562 -154
-47 -44 -94 -145 -107 -229 -22 -136 -6 -365 34 -494 8 -27 14 -51 12 -52 -2
-2 -43 24 -93 57 -118 80 -171 106 -262 130 -130 33 -229 22 -347 -39 -154
-81 -268 -240 -423 -592 -16 -35 -31 -51 -71 -72 l-51 -28 -30 41 c-62 86
-111 253 -150 506 -14 96 -24 133 -44 164 -61 91 -193 112 -276 43 -35 -30
-35 -29 -15 64 110 524 124 861 46 1112 -38 121 -118 184 -234 182 -133 -2
-300 -130 -452 -346 -38 -54 -71 -94 -73 -88 -2 6 7 80 19 164 13 90 23 206
23 283 1 125 0 132 -29 190 -66 131 -197 176 -355 122z"/>
<path d="M3150 2634 c-14 -2 -52 -9 -85 -15 -56 -10 -289 -73 -448 -121 -80
-24 -123 -57 -148 -113 -34 -73 -15 -159 47 -217 62 -58 126 -62 281 -18 136
39 366 91 372 85 4 -5 -15 -54 -73 -190 -40 -94 -31 -160 30 -217 38 -35 74
-48 138 -48 116 0 173 61 239 256 64 192 72 316 27 422 -28 65 -102 134 -168
157 -47 16 -166 27 -212 19z"/>
</g>
</svg>
