<?xml version="1.0" standalone="no"?>
<!DOCTYPE svg PUBLIC "-//W3C//DTD SVG 20010904//EN"
 "http://www.w3.org/TR/2001/REC-SVG-20010904/DTD/svg10.dtd">
<svg version="1.0" xmlns="http://www.w3.org/2000/svg"
 width="600.000000pt" height="600.000000pt" viewBox="0 0 600.000000 600.000000"
 preserveAspectRatio="xMidYMid meet">
<metadata>
Created by potrace 1.15, written by Peter Selinger 2001-2017
</metadata>
<g transform="translate(0.000000,600.000000) scale(0.100000,-0.100000)"
fill="#16364b" stroke="none">
<path d="M2734 5536 c-79 -35 -174 -238 -174 -368 0 -71 16 -113 64 -166 67
-74 202 -108 381 -95 48 3 85 2 85 -3 0 -5 -18 -22 -40 -37 -120 -85 -455
-466 -496 -563 -34 -80 36 -227 120 -253 37 -12 159 -28 281 -36 129 -9 313
-33 422 -56 117 -23 148 -24 193 -1 104 52 107 204 5 263 -48 29 -479 99 -602
99 -18 0 -33 5 -33 11 0 37 183 224 345 354 151 120 199 169 222 224 22 52 20
120 -3 167 -22 43 -94 97 -152 114 -63 19 -191 23 -336 11 -87 -7 -143 -8
-149 -2 -5 5 5 39 27 89 40 89 44 131 18 181 -33 67 -113 97 -178 67z"/>
<path d="M1575 5205 c-147 -60 -380 -262 -483 -418 -131 -198 -155 -320 -79
-401 49 -51 89 -58 205 -36 190 36 346 37 359 3 3 -8 -9 -77 -27 -153 -39
-165 -37 -193 20 -250 l39 -39 -37 -10 c-20 -6 -50 -13 -67 -17 -84 -19 -125
-68 -125 -147 0 -94 53 -157 139 -164 34 -3 78 5 166 32 141 43 370 127 436
161 144 72 100 297 -57 296 -36 0 -73 -11 -138 -42 -48 -22 -91 -39 -93 -36
-6 5 5 53 41 190 49 186 31 307 -60 399 -74 75 -158 108 -308 122 l-78 8 49
49 c70 71 138 122 220 162 88 44 113 79 113 158 0 65 -26 111 -80 139 -46 25
-83 24 -155 -6z"/>
<path d="M4301 4644 c-61 -16 -244 -92 -306 -127 -85 -48 -109 -136 -59 -214
29 -44 78 -73 123 -73 16 0 66 17 112 39 89 41 199 81 224 81 20 0 20 -4 -19
-117 -44 -125 -109 -263 -180 -382 -47 -80 -56 -103 -56 -143 0 -43 5 -53 48
-102 71 -80 98 -93 232 -105 63 -6 176 -13 250 -16 184 -8 183 -8 174 -48 -9
-44 -96 -249 -162 -382 -63 -127 -71 -165 -45 -215 40 -76 130 -101 207 -57
36 20 49 40 117 177 87 173 150 325 174 415 48 186 -24 328 -195 383 -27 9
-114 17 -222 21 -98 4 -180 10 -183 13 -4 3 14 46 38 94 88 176 138 351 140
491 1 72 -2 88 -29 139 -33 65 -92 117 -152 134 -52 14 -167 11 -231 -6z"/>
<path d="M3763 3675 c-157 -43 -303 -177 -303 -279 0 -106 117 -179 209 -131
16 8 43 33 61 55 31 39 76 70 100 70 25 0 -16 -147 -78 -283 l-35 -78 -97 -49
c-169 -87 -215 -146 -189 -242 15 -58 72 -113 126 -122 46 -8 88 7 174 65 26
17 118 55 204 86 87 30 175 65 196 79 77 48 115 142 89 219 -14 43 -75 115
-97 115 -12 0 -14 8 -9 38 3 20 8 80 12 132 5 84 3 102 -16 155 -32 84 -96
146 -176 168 -72 20 -101 20 -171 2z"/>
<path d="M2464 3495 c-161 -30 -343 -92 -382 -128 -55 -51 -68 -126 -31 -186
28 -46 56 -68 106 -80 36 -10 51 -8 100 10 88 33 263 77 313 79 90 5 100 2
100 -26 0 -42 -47 -170 -105 -284 -62 -120 -70 -171 -35 -227 28 -46 92 -76
148 -70 85 9 114 46 200 250 76 179 95 250 95 357 1 72 -3 93 -26 142 -32 65
-89 121 -155 150 -60 26 -225 33 -328 13z"/>
<path d="M1194 3245 c-115 -25 -260 -117 -297 -189 -33 -63 -33 -122 0 -186
38 -74 92 -105 181 -103 34 0 62 -3 62 -7 0 -4 -14 -74 -31 -156 -42 -206 -59
-340 -59 -469 0 -129 22 -281 49 -333 36 -70 106 -114 180 -114 52 0 145 39
167 70 7 11 47 86 88 168 70 141 183 316 334 517 36 48 68 87 72 87 3 0 15
-24 26 -52 16 -46 19 -79 19 -243 0 -200 -5 -237 -84 -565 -34 -139 -26 -184
38 -227 42 -28 103 -30 151 -4 l35 18 2 -91 c2 -107 33 -312 68 -445 78 -292
244 -474 447 -489 131 -9 279 41 365 123 25 24 57 49 73 55 43 18 67 49 105
137 88 202 230 402 296 415 41 8 84 -10 160 -66 171 -127 286 -168 398 -145
121 25 225 105 258 199 12 34 29 59 48 73 44 31 65 57 88 107 32 69 28 138
-16 237 -42 95 -63 193 -48 222 14 24 80 39 231 51 162 12 191 18 262 54 49
24 73 45 110 94 70 92 93 173 93 332 0 117 -2 129 -28 183 -36 72 -83 106
-159 114 -71 7 -115 -8 -173 -59 -52 -46 -82 -105 -88 -173 -2 -25 -6 -48 -9
-50 -3 -3 -54 -12 -114 -20 -183 -26 -295 -63 -396 -133 -141 -97 -228 -258
-228 -423 0 -78 35 -226 79 -329 48 -116 40 -116 -139 -10 -152 90 -232 120
-326 120 -211 0 -440 -205 -602 -541 -35 -73 -54 -100 -75 -109 -15 -7 -44
-26 -64 -41 -46 -37 -56 -36 -86 3 -68 91 -105 206 -142 435 -13 84 -31 166
-40 184 -52 99 -177 140 -260 84 -20 -15 -39 -25 -41 -23 -3 4 32 172 78 363
32 135 33 147 33 350 0 164 -4 229 -18 295 -39 185 -77 259 -160 312 -45 29
-60 33 -117 33 -127 0 -242 -87 -419 -318 -46 -60 -84 -107 -86 -105 -1 2 9
66 22 143 31 181 29 377 -5 466 -40 101 -118 168 -212 182 -19 3 -62 -1 -96
-8z"/>
<path d="M3090 2581 c-72 -16 -214 -54 -465 -126 -95 -28 -136 -68 -156 -154
-17 -76 35 -176 108 -207 49 -21 97 -17 231 21 158 44 341 85 381 85 29 0 31
-2 25 -27 -4 -16 -20 -58 -36 -95 -61 -144 -17 -255 114 -288 97 -25 175 25
238 150 62 123 83 207 78 303 -9 154 -73 259 -193 318 -84 41 -198 48 -325 20z"/>
</g>
</svg>
