<?xml version="1.0" standalone="no"?>
<!DOCTYPE svg PUBLIC "-//W3C//DTD SVG 20010904//EN"
 "http://www.w3.org/TR/2001/REC-SVG-20010904/DTD/svg10.dtd">
<svg version="1.0" xmlns="http://www.w3.org/2000/svg"
 width="600.000000pt" height="600.000000pt" viewBox="0 0 600.000000 600.000000"
 preserveAspectRatio="xMidYMid meet">
<metadata>
Created by potrace 1.15, written by Peter Selinger 2001-2017
</metadata>
<g transform="translate(0.000000,600.000000) scale(0.100000,-0.100000)"
fill="#16364b" stroke="none">
<path d="M3101 5653 c-71 -35 -88 -112 -50 -226 45 -134 134 -246 255 -322
139 -87 244 -158 244 -165 0 -13 -34 -36 -180 -125 -210 -128 -404 -260 -428
-290 -12 -15 -24 -35 -27 -44 -3 -10 -34 -30 -69 -45 -132 -56 -175 -152 -114
-254 50 -83 197 -96 264 -24 23 24 100 46 217 62 93 13 123 28 156 76 21 30
23 42 19 105 l-5 70 41 26 c146 92 288 193 334 237 99 96 127 202 81 301 -27
57 -126 159 -199 206 -270 173 -279 182 -304 288 -22 94 -75 141 -158 141 -24
0 -58 -8 -77 -17z"/>
<path d="M1245 5384 c-86 -45 -184 -139 -283 -272 -118 -159 -158 -282 -150
-464 6 -133 35 -237 77 -279 59 -58 154 -62 216 -8 59 52 64 90 31 234 -12 55
-13 84 -6 135 21 132 118 279 239 359 70 46 93 87 88 158 -4 58 -35 111 -78
137 -34 20 -95 20 -134 0z"/>
<path d="M1582 5151 c-109 -19 -162 -124 -112 -222 17 -33 58 -69 92 -81 4 -2
-9 -43 -28 -92 -48 -119 -51 -205 -11 -288 49 -100 134 -151 282 -167 110 -13
152 -3 194 44 104 119 20 290 -132 269 -28 -4 -47 -2 -51 4 -4 6 11 53 33 104
48 115 61 160 61 218 -1 84 -54 160 -136 195 -43 18 -136 26 -192 16z"/>
<path d="M4534 4604 c-78 -27 -129 -120 -101 -186 30 -70 90 -97 214 -98 34 0
65 -4 68 -10 3 -6 -45 -34 -109 -64 -119 -57 -141 -76 -156 -139 -15 -68 39
-158 106 -176 56 -15 106 3 289 107 159 90 222 140 250 195 67 136 -16 286
-189 340 -109 34 -313 51 -372 31z"/>
<path d="M1875 4254 c-142 -30 -236 -79 -392 -206 -81 -66 -110 -120 -99 -182
14 -71 102 -127 179 -112 19 4 63 25 98 48 119 77 220 119 310 129 44 5 90 14
102 21 58 30 87 105 67 170 -27 90 -92 139 -185 137 -33 -1 -69 -3 -80 -5z"/>
<path d="M3961 3716 c-47 -16 -95 -55 -117 -98 -8 -15 -14 -53 -14 -86 0 -79
34 -145 115 -220 83 -78 155 -113 245 -120 61 -4 76 -1 126 23 41 20 64 39 85
73 54 85 50 151 -12 212 -26 25 -39 46 -39 64 0 32 -14 62 -43 94 -47 51 -258
87 -346 58z"/>
<path d="M2535 3685 c-107 -28 -248 -78 -282 -100 -76 -50 -85 -176 -17 -237
11 -9 37 -21 59 -28 35 -10 48 -9 100 10 157 56 238 80 271 80 36 0 36 -1 30
-32 -12 -65 -170 -362 -287 -539 -65 -99 -126 -193 -134 -209 -31 -60 -10
-151 46 -192 l28 -21 -20 -38 c-55 -108 7 -248 123 -280 55 -14 78 -9 233 55
154 64 272 103 282 93 10 -11 -51 -155 -133 -313 -63 -120 -74 -149 -74 -190
1 -150 155 -258 278 -195 20 10 44 27 53 37 27 30 233 453 257 526 89 275 18
476 -185 524 -112 26 -260 9 -441 -51 -57 -19 -107 -35 -112 -35 -4 0 33 62
84 138 208 312 333 638 307 802 -12 71 -23 94 -69 143 -76 79 -220 98 -397 52z"/>
<path d="M1145 3549 c-62 -13 -210 -82 -304 -142 -90 -59 -115 -102 -109 -193
9 -148 146 -247 259 -188 17 8 33 14 35 11 5 -5 -46 -203 -90 -349 -91 -298
-132 -494 -124 -597 8 -108 76 -166 209 -177 59 -5 83 -3 110 10 43 20 222
223 384 435 238 312 260 340 269 341 26 1 -15 -331 -75 -610 -85 -401 -96
-475 -79 -554 31 -151 218 -185 287 -53 11 22 17 62 19 122 2 66 15 140 49
280 69 287 84 365 101 540 22 228 6 554 -32 626 -19 37 -76 85 -119 99 -71 24
-153 -6 -249 -90 -44 -39 -178 -193 -289 -332 -43 -54 -79 -98 -82 -98 -2 0
27 93 65 206 96 285 113 360 108 455 -7 120 -56 199 -150 239 -60 26 -126 32
-193 19z"/>
<path d="M3619 3255 c-101 -37 -159 -86 -212 -176 -37 -65 -60 -153 -54 -212
4 -43 10 -56 45 -88 70 -66 158 -65 225 2 37 37 43 39 101 39 126 0 226 55
267 145 51 111 -10 237 -137 285 -64 23 -178 26 -235 5z"/>
<path d="M4633 3150 c-42 -25 -63 -68 -63 -128 0 -55 8 -68 110 -185 36 -41
72 -86 79 -101 14 -25 13 -28 -16 -59 -58 -61 -69 -116 -33 -174 43 -71 117
-90 202 -51 74 35 113 70 144 134 37 76 32 169 -15 267 -47 99 -190 269 -253
303 -39 20 -117 18 -155 -6z"/>
<path d="M4485 2305 c-60 -22 -110 -68 -139 -127 -28 -57 -32 -104 -15 -174 6
-25 9 -47 6 -51 -4 -3 -79 9 -167 27 -124 25 -177 31 -230 28 -132 -10 -246
-91 -310 -222 l-34 -68 -7 -217 c-4 -119 -10 -251 -14 -293 -11 -117 20 -190
98 -230 112 -57 262 1 321 125 22 46 26 76 37 242 7 105 15 193 18 197 3 4 56
-7 116 -24 100 -27 119 -29 210 -24 236 14 384 92 432 230 31 89 18 327 -24
446 -20 56 -43 87 -90 118 -46 31 -147 39 -208 17z"/>
<path d="M2185 1838 c-49 -17 -92 -55 -114 -101 -18 -38 -21 -61 -21 -188 1
-255 39 -448 125 -625 44 -91 64 -120 113 -166 123 -113 303 -212 387 -212 98
0 172 75 182 186 3 32 8 58 10 58 2 0 49 -29 104 -65 196 -127 284 -160 413
-153 66 4 93 11 144 37 78 40 134 94 150 147 16 54 15 72 -3 125 -43 120 -173
162 -291 93 l-44 -26 -68 41 c-104 64 -200 135 -256 189 -217 211 -316 261
-421 213 -43 -19 -90 -68 -107 -110 -10 -25 -10 -25 -18 -6 -11 29 -28 180
-36 315 -3 63 -12 129 -19 145 -19 46 -72 92 -120 104 -52 13 -70 13 -110 -1z"/>
</g>
</svg>
