<?xml version="1.0" standalone="no"?>
<!DOCTYPE svg PUBLIC "-//W3C//DTD SVG 20010904//EN"
 "http://www.w3.org/TR/2001/REC-SVG-20010904/DTD/svg10.dtd">
<svg version="1.0" xmlns="http://www.w3.org/2000/svg"
 width="600.000000pt" height="600.000000pt" viewBox="0 0 600.000000 600.000000"
 preserveAspectRatio="xMidYMid meet">
<metadata>
Created by potrace 1.15, written by Peter Selinger 2001-2017
</metadata>
<g transform="translate(0.000000,600.000000) scale(0.100000,-0.100000)"
fill="#16364b" stroke="none">
<path d="M2380 5392 c-21 -17 -22 -25 -25 -198 -3 -253 -33 -382 -121 -514
-42 -64 -106 -121 -174 -155 -77 -38 -99 -84 -64 -133 20 -28 62 -29 117 -1
139 71 227 167 293 319 49 114 72 216 85 378 14 181 6 286 -24 307 -29 20 -60
19 -87 -3z"/>
<path d="M3525 5286 c-53 -53 -40 -116 48 -238 90 -123 182 -167 243 -115 25
22 29 32 28 74 -1 61 -52 152 -129 228 -73 74 -147 93 -190 51z"/>
<path d="M3028 5108 c-82 -22 -173 -141 -179 -234 -5 -72 1 -92 35 -128 29
-32 39 -36 83 -36 114 0 246 141 247 265 0 100 -84 161 -186 133z m46 -150
c-13 -44 -33 -75 -59 -92 -15 -10 -29 -15 -32 -12 -11 11 8 57 38 91 36 41 64
47 53 13z"/>
<path d="M4773 4740 c-48 -20 -55 -47 -56 -232 -1 -133 3 -189 16 -241 33
-130 84 -196 160 -204 39 -5 48 -1 80 26 77 68 88 214 29 385 -40 116 -115
241 -158 261 -36 17 -40 17 -71 5z"/>
<path d="M2644 4222 c-69 -33 -106 -102 -90 -168 11 -42 81 -109 149 -140 57
-27 71 -29 182 -29 114 0 123 2 188 32 56 27 70 39 83 70 18 43 8 98 -25 127
-10 9 -83 39 -161 67 -172 60 -261 71 -326 41z"/>
<path d="M5245 3980 c-160 -33 -242 -143 -233 -313 9 -178 149 -323 324 -335
138 -9 234 50 299 181 70 144 56 258 -43 356 -74 73 -146 108 -237 115 -38 2
-88 1 -110 -4z m104 -281 c17 -6 31 -17 31 -25 0 -13 -30 -34 -49 -34 -15 0
-34 39 -27 56 6 17 5 17 45 3z"/>
<path d="M4194 3750 c-98 -39 -176 -130 -210 -246 -45 -154 38 -305 194 -350
228 -67 433 160 398 440 -9 70 -37 105 -113 142 -76 38 -194 44 -269 14z m126
-282 c-1 -31 -53 -67 -66 -47 -7 13 34 59 53 59 7 0 13 -6 13 -12z"/>
<path d="M1135 3480 c-151 -27 -267 -113 -309 -229 -29 -80 -20 -188 22 -273
63 -128 236 -246 414 -282 98 -19 143 -43 194 -98 113 -122 188 -346 234 -695
22 -166 77 -329 150 -441 100 -156 256 -246 530 -307 174 -39 201 -41 915 -75
225 -11 303 -8 655 25 374 35 514 74 791 217 230 118 326 206 408 373 70 144
104 293 104 455 -3 389 -224 693 -573 787 -176 48 -505 -2 -712 -106 -77 -39
-128 -75 -283 -200 -115 -93 -182 -121 -299 -128 -227 -14 -427 75 -812 359
-334 246 -541 374 -762 470 -277 120 -521 174 -667 148z m228 -354 c271 -69
567 -228 897 -481 167 -128 325 -233 435 -288 336 -167 654 -222 903 -156 98
26 154 55 302 158 293 204 415 256 582 249 78 -3 102 -8 150 -32 66 -33 174
-139 207 -203 71 -140 66 -360 -12 -521 -48 -99 -99 -143 -255 -221 -204 -102
-325 -139 -547 -167 -159 -20 -800 -29 -1030 -14 -93 6 -241 15 -328 20 -248
13 -363 38 -451 99 -89 62 -128 153 -192 448 -71 332 -133 541 -197 668 -99
198 -301 347 -511 377 -140 21 -214 88 -97 88 27 0 92 -11 144 -24z"/>
<path d="M2185 2296 c-21 -31 -6 -70 34 -90 46 -24 81 0 81 57 0 55 -85 79
-115 33z"/>
<path d="M2878 2084 c-35 -19 -38 -64 -6 -94 38 -35 87 -21 103 31 7 20 -17
69 -34 69 -5 0 -15 2 -23 5 -7 2 -25 -2 -40 -11z"/>
<path d="M3440 3351 c-38 -39 -170 -288 -170 -319 0 -33 29 -62 63 -62 71 0
236 226 245 335 4 46 1 54 -19 69 -40 28 -78 20 -119 -23z"/>
<path d="M476 2035 c-36 -36 -30 -69 24 -129 15 -17 50 -55 76 -85 81 -89 170
-116 221 -65 22 22 25 32 20 72 -4 41 -12 53 -55 93 -59 55 -198 129 -240 129
-17 0 -37 -7 -46 -15z"/>
<path d="M5372 1110 c-29 -12 -69 -97 -78 -166 -20 -161 115 -214 186 -73 22
43 36 143 26 183 -14 58 -71 81 -134 56z"/>
</g>
</svg>
