<?xml version="1.0" standalone="no"?>
<!DOCTYPE svg PUBLIC "-//W3C//DTD SVG 20010904//EN"
 "http://www.w3.org/TR/2001/REC-SVG-20010904/DTD/svg10.dtd">
<svg version="1.0" xmlns="http://www.w3.org/2000/svg"
 width="600.000000pt" height="600.000000pt" viewBox="0 0 600.000000 600.000000"
 preserveAspectRatio="xMidYMid meet">
<metadata>
Created by potrace 1.15, written by Peter Selinger 2001-2017
</metadata>
<g transform="translate(0.000000,600.000000) scale(0.100000,-0.100000)"
fill="#16364b" stroke="none">
<path d="M3243 5490 c-51 -12 -83 -38 -105 -87 -37 -85 -3 -158 96 -202 55
-25 65 -34 79 -70 23 -55 21 -148 -3 -249 -25 -103 -25 -116 0 -167 22 -46 80
-85 125 -85 38 0 92 28 115 60 10 15 31 67 46 116 23 75 27 108 27 209 1 105
-3 130 -26 198 -15 42 -38 94 -51 115 -67 107 -211 183 -303 162z"/>
<path d="M2050 5437 c-58 -39 -75 -79 -75 -182 0 -80 3 -95 27 -136 41 -70
110 -112 241 -145 37 -9 71 -22 76 -28 7 -8 5 -42 -4 -102 -8 -49 -18 -138
-21 -199 -5 -102 -4 -113 18 -155 61 -119 196 -119 256 0 13 26 22 63 22 90 0
25 12 101 25 170 33 166 33 250 0 316 -50 100 -122 152 -260 189 l-80 22 -5
45 c-3 25 -14 57 -23 72 -43 65 -135 86 -197 43z"/>
<path d="M1660 4809 c-46 -4 -135 -20 -198 -35 -103 -23 -118 -30 -152 -64
-53 -53 -67 -108 -45 -166 29 -76 99 -111 184 -94 153 32 393 38 497 14 72
-17 72 -17 120 7 64 32 86 73 81 152 -4 67 -25 102 -83 134 -81 46 -248 67
-404 52z"/>
<path d="M4355 4570 c-75 -17 -115 -66 -115 -141 0 -64 30 -105 105 -143 146
-75 157 -95 165 -303 4 -133 8 -155 26 -179 33 -45 70 -67 121 -71 60 -5 108
18 141 67 24 34 24 39 19 190 -3 94 -12 178 -22 215 -42 159 -143 272 -300
338 -76 31 -103 36 -140 27z"/>
<path d="M3212 4460 c-12 -5 -57 -36 -100 -68 -119 -90 -378 -273 -473 -336
-92 -59 -119 -95 -119 -156 0 -65 59 -132 126 -145 32 -5 49 -1 108 29 159 81
574 388 626 463 26 38 30 105 9 148 -29 61 -112 91 -177 65z"/>
<path d="M1575 4386 c-43 -21 -60 -37 -78 -73 -23 -44 -21 -90 6 -138 34 -62
83 -80 277 -104 401 -49 505 -53 557 -21 46 28 67 65 67 119 0 57 -30 111 -79
141 -27 17 -66 24 -187 36 -84 8 -216 21 -293 30 -230 25 -238 26 -270 10z"/>
<path d="M3745 3876 c-62 -20 -137 -60 -294 -159 -80 -50 -201 -117 -270 -149
-188 -88 -190 -89 -211 -123 -26 -42 -27 -119 -1 -161 23 -38 76 -64 129 -64
51 0 341 143 533 263 129 81 138 85 173 77 83 -19 157 34 176 127 30 145 -84
237 -235 189z"/>
<path d="M2215 3809 c-129 -34 -299 -52 -435 -45 -141 8 -167 2 -218 -47 -84
-81 -46 -215 71 -249 62 -17 351 -15 467 5 156 27 289 64 325 92 65 49 81 149
34 209 -46 59 -116 69 -244 35z"/>
<path d="M5010 3530 c-59 -28 -96 -64 -128 -125 -26 -48 -27 -56 -24 -182 3
-128 2 -134 -28 -205 -17 -40 -71 -129 -120 -198 -82 -116 -237 -374 -308
-515 -58 -114 -52 -184 25 -266 104 -111 278 -117 374 -12 15 15 55 82 89 148
34 66 115 199 179 295 64 96 131 200 148 230 40 73 81 188 99 278 30 154 9
399 -41 473 -57 87 -174 121 -265 79z"/>
<path d="M1971 3158 c-19 -13 -43 -35 -54 -50 -28 -37 -34 -116 -12 -161 32
-68 88 -87 330 -112 l140 -15 30 -35 c54 -62 127 -79 200 -46 158 71 112 258
-85 350 -44 21 -99 35 -170 46 -58 8 -134 20 -170 26 -132 23 -172 23 -209 -3z"/>
<path d="M4363 3130 c-13 -5 -57 -38 -99 -74 -89 -76 -186 -129 -362 -195
-161 -61 -246 -86 -394 -115 -64 -13 -129 -31 -143 -40 -93 -61 -85 -205 15
-257 61 -33 212 -19 451 41 305 77 445 150 628 326 81 77 101 102 111 139 11
39 10 51 -4 90 -23 58 -64 88 -130 92 -28 1 -61 -1 -73 -7z"/>
<path d="M1390 2979 c-44 -13 -93 -59 -116 -111 -17 -38 -17 -49 -1 -256 16
-209 33 -316 91 -567 44 -190 108 -345 169 -414 29 -31 94 -61 135 -61 80 0
161 77 183 175 14 65 7 108 -29 166 -79 126 -132 346 -167 702 -21 216 -30
251 -73 299 -58 64 -123 87 -192 67z"/>
<path d="M2093 2365 c-126 -35 -173 -81 -173 -170 0 -113 100 -177 221 -141
29 9 73 16 99 16 40 0 51 -5 81 -36 18 -20 46 -42 61 -50 64 -33 156 -5 190
57 21 40 23 109 4 147 -23 45 -117 126 -181 157 -51 24 -75 29 -155 32 -62 2
-113 -2 -147 -12z"/>
<path d="M4020 2100 c-36 -5 -137 -24 -225 -44 -275 -63 -342 -76 -630 -116
-154 -22 -295 -45 -313 -51 -45 -15 -102 -66 -118 -106 -22 -53 -18 -144 9
-183 59 -87 97 -94 340 -65 361 45 432 57 685 121 153 39 291 67 348 73 78 7
101 13 134 36 70 49 97 136 65 213 -43 101 -138 140 -295 122z"/>
<path d="M2149 1727 c-40 -26 -69 -79 -69 -123 0 -37 41 -167 71 -227 79 -154
220 -289 350 -334 55 -18 116 -2 160 43 28 29 33 42 36 91 5 78 -17 113 -98
153 -113 58 -178 137 -214 265 -21 72 -52 117 -98 139 -48 22 -98 20 -138 -7z"/>
<path d="M4745 1664 c-16 -8 -64 -48 -105 -88 -116 -113 -178 -141 -449 -211
-174 -44 -275 -75 -381 -115 -136 -53 -312 -139 -344 -168 -85 -80 -72 -225
26 -289 66 -44 125 -39 273 24 161 69 269 104 530 169 324 82 423 131 576 287
87 88 129 160 129 219 0 71 -43 143 -102 174 -36 19 -116 18 -153 -2z"/>
<path d="M2072 1023 c-13 -3 -43 -23 -67 -46 -84 -81 -87 -205 -7 -283 85 -83
334 -232 462 -276 233 -80 564 -64 793 40 76 35 112 75 127 145 21 92 -21 191
-98 231 -60 31 -93 29 -207 -9 -147 -49 -234 -66 -337 -66 -146 0 -293 62
-444 187 -97 80 -136 93 -222 77z"/>
</g>
</svg>
