<?xml version="1.0" standalone="no"?>
<!DOCTYPE svg PUBLIC "-//W3C//DTD SVG 20010904//EN"
 "http://www.w3.org/TR/2001/REC-SVG-20010904/DTD/svg10.dtd">
<svg version="1.0" xmlns="http://www.w3.org/2000/svg"
 width="600.000000pt" height="600.000000pt" viewBox="0 0 600.000000 600.000000"
 preserveAspectRatio="xMidYMid meet">
<metadata>
Created by potrace 1.15, written by Peter Selinger 2001-2017
</metadata>
<g transform="translate(0.000000,600.000000) scale(0.100000,-0.100000)"
fill="#16364b" stroke="none">
<path d="M3172 5493 c-37 -8 -90 -65 -97 -106 -16 -81 11 -128 114 -205 17
-13 39 -38 48 -55 22 -44 22 -163 -1 -255 -10 -41 -16 -88 -13 -108 22 -133
204 -170 260 -52 31 66 57 213 57 326 0 123 -20 203 -72 284 -72 114 -204 191
-296 171z"/>
<path d="M2060 5443 c-69 -26 -109 -95 -110 -189 0 -120 78 -214 209 -250 31
-8 74 -21 96 -27 l40 -12 0 -222 c0 -209 1 -223 21 -250 66 -88 189 -87 245 3
18 30 24 60 33 183 18 242 14 336 -16 402 -28 61 -80 119 -131 146 -17 9 -63
24 -102 33 l-70 17 -7 44 c-10 54 -34 89 -79 111 -33 17 -98 23 -129 11z"/>
<path d="M1470 4789 c-46 -5 -103 -18 -125 -29 -108 -52 -115 -219 -12 -275
37 -19 62 -19 272 5 123 15 268 8 321 -15 87 -37 169 -13 211 61 42 73 19 170
-50 213 -66 41 -138 51 -342 50 -104 -1 -228 -6 -275 -10z"/>
<path d="M4314 4586 c-75 -33 -103 -137 -56 -204 14 -19 51 -47 92 -67 117
-59 139 -105 149 -316 6 -140 7 -147 35 -184 70 -91 183 -81 248 23 21 34 23
47 21 172 -2 155 -19 246 -63 329 -52 96 -141 179 -250 230 -71 34 -125 39
-176 17z"/>
<path d="M3169 4457 c-19 -13 -97 -74 -174 -136 -77 -62 -211 -161 -298 -219
-160 -106 -180 -126 -192 -192 -15 -85 81 -179 170 -165 79 12 378 223 576
407 98 90 120 116 130 151 15 56 -1 106 -46 146 -46 40 -114 43 -166 8z"/>
<path d="M1585 4387 c-43 -24 -85 -91 -85 -137 0 -40 42 -113 77 -133 19 -11
108 -30 225 -49 156 -25 224 -31 356 -32 l163 -1 40 42 c35 38 39 47 39 96 0
44 -6 62 -29 94 -37 52 -86 70 -211 78 -52 3 -177 19 -277 36 -217 35 -246 35
-298 6z"/>
<path d="M3720 3885 c-53 -17 -110 -47 -246 -131 -130 -80 -308 -174 -403
-214 -90 -37 -105 -50 -127 -106 -30 -80 8 -162 86 -185 33 -10 47 -9 87 6 58
22 246 108 448 205 197 94 190 92 264 100 100 12 146 60 145 151 -1 69 -41
130 -106 163 -58 29 -83 31 -148 11z"/>
<path d="M2245 3805 c-127 -30 -308 -46 -467 -43 -145 3 -158 2 -184 -18 -72
-53 -91 -128 -52 -204 35 -68 67 -81 211 -87 207 -9 592 34 660 75 69 40 88
126 46 201 -42 76 -110 100 -214 76z"/>
<path d="M4989 3560 c-92 -49 -143 -134 -138 -234 1 -33 3 -106 3 -161 1 -93
-1 -105 -31 -168 -18 -38 -63 -112 -100 -165 -125 -178 -223 -336 -278 -445
-66 -130 -71 -180 -29 -265 61 -123 198 -172 314 -112 46 24 69 51 115 135 41
76 176 281 274 415 77 106 154 261 181 365 41 160 35 432 -12 532 -22 48 -66
89 -115 110 -47 19 -141 16 -184 -7z"/>
<path d="M2015 3181 c-47 -12 -75 -30 -95 -64 -38 -62 -18 -159 43 -210 50
-41 146 -69 318 -92 102 -15 117 -19 145 -46 60 -58 151 -59 209 -1 72 72 62
188 -25 266 -50 45 -121 70 -255 90 -60 10 -148 26 -195 37 -47 11 -92 22
-100 24 -8 1 -28 0 -45 -4z"/>
<path d="M4358 3135 c-14 -8 -44 -31 -65 -51 -87 -83 -199 -152 -333 -204
-186 -73 -354 -120 -527 -148 -76 -13 -108 -33 -135 -85 -37 -74 -13 -153 63
-206 32 -22 41 -23 139 -18 232 11 589 122 780 242 104 65 232 177 274 239 66
98 -1 233 -122 243 -30 2 -57 -2 -74 -12z"/>
<path d="M1380 2964 c-42 -18 -86 -59 -107 -98 -24 -45 -15 -266 18 -461 14
-80 84 -362 111 -439 33 -97 129 -275 173 -321 90 -93 223 -75 289 38 49 84
46 146 -10 227 -52 76 -79 127 -108 208 -58 162 -80 288 -96 539 -6 105 -15
175 -26 202 -38 96 -152 145 -244 105z"/>
<path d="M2097 2350 c-102 -27 -147 -78 -147 -166 0 -40 5 -51 38 -84 53 -53
96 -63 190 -43 94 19 132 10 185 -46 62 -65 131 -76 204 -31 38 22 73 86 73
130 0 91 -120 203 -259 244 -72 21 -199 19 -284 -4z"/>
<path d="M4038 2095 c-42 -8 -163 -35 -270 -61 -106 -25 -348 -77 -538 -115
-376 -76 -409 -88 -456 -158 -68 -103 -19 -231 102 -267 47 -13 62 -13 240 15
245 39 296 50 559 121 235 63 417 100 499 100 110 0 187 73 194 184 4 73 -15
115 -70 159 -32 26 -47 30 -110 33 -40 2 -108 -3 -150 -11z"/>
<path d="M2138 1684 c-71 -38 -85 -142 -36 -262 69 -168 170 -280 321 -357
121 -61 192 -71 246 -33 56 38 76 73 76 131 0 37 -6 61 -22 82 -22 32 -26 34
-135 83 -99 45 -161 108 -213 217 -58 120 -97 155 -172 155 -21 -1 -50 -8 -65
-16z"/>
<path d="M4774 1680 c-18 -6 -60 -40 -95 -76 -153 -157 -247 -196 -729 -300
-161 -35 -414 -129 -464 -173 -52 -46 -73 -159 -42 -232 26 -62 106 -119 166
-119 17 0 72 16 123 36 123 49 179 66 392 120 422 107 566 175 767 363 105 98
143 166 136 236 -7 56 -27 88 -79 122 -44 29 -121 39 -175 23z"/>
<path d="M2071 990 c-82 -35 -126 -103 -119 -185 6 -74 34 -106 166 -193 285
-188 559 -286 742 -268 139 14 393 97 455 149 70 58 95 160 60 244 -21 50 -42
72 -90 94 -57 26 -94 24 -193 -14 -144 -56 -221 -71 -331 -64 -145 9 -305 72
-478 188 -64 43 -84 52 -132 55 -31 2 -67 -1 -80 -6z"/>
</g>
</svg>
