<?xml version="1.0" standalone="no"?>
<!DOCTYPE svg PUBLIC "-//W3C//DTD SVG 20010904//EN"
 "http://www.w3.org/TR/2001/REC-SVG-20010904/DTD/svg10.dtd">
<svg version="1.0" xmlns="http://www.w3.org/2000/svg"
 width="600.000000pt" height="600.000000pt" viewBox="0 0 600.000000 600.000000"
 preserveAspectRatio="xMidYMid meet">
<metadata>
Created by potrace 1.15, written by Peter Selinger 2001-2017
</metadata>
<g transform="translate(0.000000,600.000000) scale(0.100000,-0.100000)"
fill="#16364b" stroke="none">
<path d="M1536 5789 c-15 -12 -44 -58 -65 -103 -21 -44 -70 -146 -110 -226
-79 -160 -92 -214 -68 -273 37 -88 139 -100 266 -31 85 46 254 171 339 251 59
56 62 60 62 107 0 84 -58 156 -125 156 -20 0 -47 -19 -106 -77 -44 -42 -79
-72 -79 -66 0 6 11 36 25 67 14 31 25 72 25 92 0 96 -96 156 -164 103z"/>
<path d="M2394 5436 c-55 -24 -64 -48 -64 -166 0 -129 -24 -330 -50 -428 -43
-156 -99 -229 -229 -296 -50 -26 -97 -56 -106 -69 -39 -56 1 -150 70 -163 41
-7 113 23 214 90 172 115 247 253 292 536 25 160 37 417 20 449 -15 27 -69 61
-96 61 -11 -1 -34 -7 -51 -14z"/>
<path d="M3540 5323 c-51 -19 -95 -98 -86 -156 29 -180 252 -352 379 -292 82
38 95 129 34 237 -68 121 -125 170 -236 204 -48 15 -66 16 -91 7z"/>
<path d="M2976 5134 c-74 -23 -159 -112 -182 -190 -21 -72 -9 -147 31 -199 54
-72 183 -85 303 -30 73 33 86 51 103 149 22 128 -13 226 -94 265 -50 24 -93
26 -161 5z"/>
<path d="M4753 4770 c-46 -28 -56 -54 -61 -165 -14 -324 127 -555 338 -555
248 0 306 283 106 518 -94 111 -252 222 -315 222 -20 0 -50 -9 -68 -20z m232
-410 c21 -41 18 -60 -5 -30 -18 23 -27 60 -15 60 2 0 11 -13 20 -30z"/>
<path d="M2710 4237 c-69 -16 -95 -30 -143 -75 -42 -41 -77 -123 -77 -182 0
-48 30 -130 63 -173 14 -18 49 -46 78 -62 48 -27 63 -30 139 -30 77 0 92 3
154 34 92 47 239 188 255 246 14 53 14 79 -3 118 -23 55 -56 76 -162 103 -122
30 -231 38 -304 21z"/>
<path d="M1072 4104 c-70 -36 -99 -120 -66 -189 21 -45 63 -72 124 -80 77 -11
165 -39 165 -55 0 -23 -104 -78 -217 -115 -59 -19 -118 -35 -130 -35 -37 -1
-104 -36 -125 -66 -46 -65 -37 -141 22 -193 51 -44 85 -47 211 -16 268 66 445
161 511 272 25 43 28 57 28 138 0 75 -4 98 -24 139 -30 60 -86 118 -143 147
-111 56 -296 84 -356 53z"/>
<path d="M4169 3761 c-76 -24 -142 -74 -182 -135 -28 -44 -32 -60 -35 -132 -4
-72 -1 -89 23 -143 32 -71 102 -142 161 -162 66 -23 170 -17 235 13 139 64
218 186 234 359 7 87 -9 130 -63 166 -76 50 -267 68 -373 34z m118 -286 c-31
-28 -47 -32 -47 -12 0 21 22 37 50 37 l25 -1 -28 -24z"/>
<path d="M1715 3718 c-80 -30 -119 -63 -155 -133 -31 -61 -35 -76 -35 -149 0
-95 25 -155 88 -212 61 -56 119 -77 212 -78 68 -1 88 3 137 27 105 52 162 144
163 262 0 128 -74 232 -199 275 -61 22 -162 25 -211 8z"/>
<path d="M5169 3575 c-132 -26 -243 -106 -289 -208 -52 -114 -1 -302 103 -381
66 -50 124 -69 198 -64 244 18 404 300 285 502 -36 60 -127 143 -173 155 -44
13 -39 13 -124 -4z m13 -327 c-18 -19 -22 -20 -22 -6 0 9 8 21 17 27 27 15 29
3 5 -21z"/>
<path d="M2553 3420 c-85 -28 -177 -93 -244 -173 -54 -64 -78 -107 -167 -297
-52 -110 -100 -157 -227 -222 -139 -71 -205 -120 -316 -236 -227 -236 -318
-437 -319 -703 0 -270 115 -478 376 -676 210 -159 364 -216 584 -217 104 -1
138 3 200 23 146 45 282 131 454 286 92 82 155 163 203 260 31 60 154 408 200
560 19 65 11 258 -16 405 -47 249 -73 366 -101 453 -17 52 -30 108 -30 126 0
73 -100 252 -181 326 -23 20 -71 51 -108 68 -87 41 -212 48 -308 17z m156
-386 c12 -15 21 -37 21 -49 0 -12 19 -71 41 -131 23 -60 61 -185 85 -279 82
-325 93 -433 55 -550 -12 -38 -36 -113 -53 -165 -48 -154 -103 -256 -172 -323
-216 -211 -411 -285 -600 -227 -127 40 -318 192 -376 302 -30 56 -35 74 -38
156 -5 109 17 194 78 294 83 138 176 222 333 305 136 71 238 149 301 234 57
75 65 90 127 237 52 124 85 174 133 203 40 24 41 24 65 -7z"/>
<path d="M3403 3378 c-41 -29 -87 -101 -135 -208 -44 -98 -49 -154 -18 -193
64 -81 227 -34 308 89 83 124 80 267 -6 317 -43 24 -110 22 -149 -5z"/>
<path d="M383 2295 c-40 -17 -67 -58 -66 -99 1 -34 77 -231 147 -380 112 -241
249 -361 411 -361 58 0 78 5 116 27 197 116 79 431 -248 665 -73 52 -285 163
-310 163 -10 -1 -32 -7 -50 -15z m366 -447 c55 -57 110 -148 90 -148 -19 0
-86 75 -119 133 -48 84 -41 88 29 15z"/>
<path d="M4091 1988 c-19 -12 -43 -40 -54 -61 -19 -37 -19 -39 2 -240 29 -272
48 -341 117 -410 66 -65 165 -73 241 -18 45 32 91 114 122 213 27 89 71 317
71 369 0 86 -62 157 -144 166 -58 7 -87 -1 -125 -33 l-31 -25 -35 27 c-51 38
-118 44 -164 12z"/>
</g>
</svg>
