<?xml version="1.0" standalone="no"?>
<!DOCTYPE svg PUBLIC "-//W3C//DTD SVG 20010904//EN"
 "http://www.w3.org/TR/2001/REC-SVG-20010904/DTD/svg10.dtd">
<svg version="1.0" xmlns="http://www.w3.org/2000/svg"
 width="600.000000pt" height="600.000000pt" viewBox="0 0 600.000000 600.000000"
 preserveAspectRatio="xMidYMid meet">
<metadata>
Created by potrace 1.15, written by Peter Selinger 2001-2017
</metadata>
<g transform="translate(0.000000,600.000000) scale(0.100000,-0.100000)"
fill="#16364b" stroke="none">
<path d="M1939 5799 c-23 -14 -58 -54 -97 -113 -33 -50 -98 -145 -143 -211
-113 -165 -190 -326 -197 -411 -6 -82 16 -144 66 -182 30 -23 45 -27 96 -27
77 0 134 28 381 189 99 65 223 145 275 179 114 75 134 100 134 166 0 88 -68
151 -163 151 -44 0 -60 -7 -156 -71 -59 -38 -109 -69 -111 -67 -1 2 29 53 69
113 65 99 71 114 71 160 0 58 -20 95 -69 125 -43 26 -109 26 -156 -1z"/>
<path d="M3046 5700 c-39 -12 -66 -38 -87 -85 -24 -52 -24 -96 0 -143 16 -32
39 -48 146 -106 331 -178 465 -315 465 -475 0 -37 -5 -52 -22 -68 -32 -29 -77
-50 -123 -58 -167 -30 -219 -201 -85 -280 45 -26 114 -23 216 9 145 46 244
139 285 266 40 124 23 294 -43 425 -61 120 -215 256 -440 390 -198 119 -256
142 -312 125z"/>
<path d="M945 5381 c-171 -61 -317 -191 -360 -322 -23 -67 -22 -182 0 -250 38
-113 126 -227 229 -298 63 -43 118 -51 173 -23 47 25 68 53 84 116 18 70 -6
123 -81 181 -71 55 -105 116 -97 176 11 80 57 119 174 145 55 12 80 23 103 47
66 68 46 188 -40 232 -38 20 -123 18 -185 -4z"/>
<path d="M2842 5049 c-66 -12 -132 -65 -167 -134 -28 -55 -30 -65 -30 -174 0
-125 9 -155 64 -214 59 -64 168 -90 286 -68 89 16 140 62 152 134 6 41 -19
112 -44 121 -12 5 -11 10 2 35 20 39 19 114 -1 154 -58 113 -154 166 -262 146z"/>
<path d="M4787 4920 c-44 -14 -92 -55 -112 -96 -15 -32 -17 -56 -12 -158 14
-323 150 -506 375 -506 253 0 347 282 173 520 -51 70 -156 153 -257 203 -79
40 -126 50 -167 37z"/>
<path d="M1953 4710 c-94 -19 -204 -97 -235 -168 -39 -88 6 -184 99 -212 53
-16 99 -7 156 31 63 41 85 36 109 -26 33 -84 84 -125 158 -125 53 0 92 21 127
67 24 31 28 45 27 97 -3 165 -125 304 -296 336 -58 11 -86 11 -145 0z"/>
<path d="M2960 3967 c-117 -35 -209 -109 -253 -205 -31 -67 -31 -189 1 -253
37 -76 87 -125 165 -164 115 -56 297 -71 375 -31 100 52 110 201 17 262 -15
10 -66 23 -113 30 -100 14 -145 29 -140 47 7 21 95 20 161 -2 75 -26 112 -26
157 -2 103 54 108 191 10 263 -76 55 -277 85 -380 55z"/>
<path d="M1166 3940 c-137 -17 -215 -40 -253 -73 -61 -54 -79 -129 -48 -204
32 -75 98 -117 183 -116 39 0 52 -3 48 -12 -2 -7 -44 -73 -92 -146 -136 -209
-239 -380 -287 -476 -66 -131 -134 -293 -142 -336 -16 -83 57 -183 151 -206
71 -18 112 -2 204 83 44 40 125 106 181 147 243 176 302 222 443 342 82 70
154 127 159 127 6 0 8 -33 4 -90 -6 -97 -46 -229 -113 -375 -20 -44 -63 -145
-95 -223 -80 -192 -108 -247 -198 -381 -71 -106 -76 -118 -76 -167 0 -65 23
-100 88 -132 85 -43 156 -14 236 95 112 152 149 227 334 673 142 344 166 448
148 650 -13 145 -32 202 -87 256 -50 50 -106 69 -181 60 -89 -10 -228 -83
-348 -181 -38 -30 -70 -53 -73 -50 -3 2 39 69 92 148 117 174 145 237 146 328
0 115 -74 219 -178 249 -54 15 -167 20 -246 10z"/>
<path d="M4232 3785 c-195 -43 -302 -153 -302 -312 0 -89 23 -145 85 -212 66
-70 126 -94 229 -89 136 5 238 72 331 218 43 66 105 216 105 251 0 66 -60 133
-132 149 -67 14 -240 11 -316 -5z m68 -284 c0 -10 -45 -41 -60 -41 -20 0 -10
19 18 34 32 18 42 19 42 7z"/>
<path d="M3450 3407 c-73 -23 -135 -112 -191 -274 -34 -98 -36 -123 -9 -178
27 -56 66 -77 158 -82 186 -9 311 91 328 263 20 189 -122 323 -286 271z"/>
<path d="M4929 2992 c-59 -38 -167 -146 -211 -214 -20 -30 -46 -82 -57 -116
-38 -111 -24 -203 40 -276 129 -146 391 -72 496 140 31 64 37 88 41 158 6 120
-12 175 -85 252 -32 34 -68 67 -80 73 -39 20 -96 13 -144 -17z"/>
<path d="M3963 2569 c-75 -37 -123 -112 -123 -192 0 -24 18 -95 40 -161 22
-65 40 -124 40 -131 0 -9 -19 -5 -67 16 -170 72 -323 15 -410 -153 -51 -101
-44 -286 22 -543 44 -172 87 -281 127 -323 102 -106 263 -102 363 10 72 79 84
166 40 278 -14 35 -23 65 -21 67 2 2 20 -7 40 -20 106 -73 273 -52 384 48 91
82 122 212 88 371 -32 145 -160 553 -196 624 -24 46 -76 95 -122 114 -55 23
-154 21 -205 -5z"/>
<path d="M2043 2167 c-82 -30 -160 -110 -248 -255 -32 -52 -38 -71 -38 -116 0
-67 38 -138 90 -168 19 -12 31 -24 26 -27 -4 -4 -33 -26 -63 -48 -66 -49 -89
-75 -140 -155 -69 -106 -85 -171 -85 -343 0 -163 8 -199 68 -320 88 -177 306
-346 584 -450 266 -101 536 -44 749 157 87 83 134 157 134 212 0 56 -21 107
-59 145 l-37 37 41 46 c86 95 164 292 264 668 56 213 60 301 15 395 -21 45
-84 101 -142 127 -71 32 -216 36 -314 10 -117 -33 -285 -107 -445 -198 -23
-13 -46 -24 -51 -24 -6 0 -13 19 -17 43 -20 128 -80 232 -152 262 -42 18 -135
18 -180 2z m937 -465 c0 -21 -82 -286 -110 -358 -18 -43 -56 -126 -86 -184
-46 -88 -54 -113 -54 -158 0 -63 16 -98 64 -140 l36 -31 -55 -52 c-30 -28 -69
-62 -87 -75 -126 -93 -328 -87 -483 15 -158 104 -217 193 -224 338 -2 68 1 90
18 126 26 55 58 85 96 92 28 6 31 3 57 -52 63 -137 134 -190 236 -180 61 6 90
24 136 81 29 35 31 44 31 114 0 73 -2 81 -43 146 -23 39 -42 74 -42 78 0 10
477 248 496 248 8 0 14 -4 14 -8z"/>
</g>
</svg>
