<?xml version="1.0" standalone="no"?>
<!DOCTYPE svg PUBLIC "-//W3C//DTD SVG 20010904//EN"
 "http://www.w3.org/TR/2001/REC-SVG-20010904/DTD/svg10.dtd">
<svg version="1.0" xmlns="http://www.w3.org/2000/svg"
 width="600.000000pt" height="600.000000pt" viewBox="0 0 600.000000 600.000000"
 preserveAspectRatio="xMidYMid meet">
<metadata>
Created by potrace 1.15, written by Peter Selinger 2001-2017
</metadata>
<g transform="translate(0.000000,600.000000) scale(0.100000,-0.100000)"
fill="#16364b" stroke="none">
<path d="M1720 5788 c-52 -35 -67 -63 -116 -208 -82 -244 -123 -445 -108 -531
19 -114 84 -179 177 -179 96 0 195 58 332 195 93 93 267 313 285 360 47 123
-72 242 -193 191 -34 -14 -48 -28 -162 -170 -38 -47 -71 -82 -73 -77 -2 5 15
69 37 141 23 73 41 142 41 154 -1 39 -38 105 -72 126 -45 27 -106 26 -148 -2z"/>
<path d="M3074 5659 c-41 -12 -91 -69 -99 -113 -12 -61 21 -115 108 -177 259
-185 356 -261 422 -330 65 -68 115 -141 115 -167 0 -5 -26 -8 -58 -8 -50 1
-65 -4 -96 -28 -21 -15 -41 -39 -47 -53 -25 -68 2 -148 63 -179 18 -10 65 -19
104 -22 129 -8 241 44 294 138 21 38 25 58 25 125 0 71 -4 88 -33 148 -78 157
-261 352 -482 514 -208 152 -250 172 -316 152z"/>
<path d="M885 5446 c-75 -24 -140 -64 -197 -121 -136 -137 -173 -338 -91 -505
30 -61 138 -177 193 -205 41 -21 94 -24 136 -7 44 19 84 85 84 142 0 55 -20
87 -83 135 -56 43 -67 61 -67 115 0 90 56 140 155 140 37 0 73 7 95 18 111 55
105 218 -9 279 -51 26 -148 31 -216 9z"/>
<path d="M2936 5174 c-57 -18 -133 -89 -166 -155 -13 -25 -25 -70 -28 -106 -6
-84 15 -140 74 -192 70 -61 165 -76 293 -46 131 31 167 78 158 204 -15 219
-161 349 -331 295z"/>
<path d="M4761 4868 c-87 -45 -104 -105 -81 -298 26 -227 97 -366 222 -436 48
-26 62 -29 149 -29 88 0 99 2 138 28 52 35 98 105 107 166 10 64 -10 170 -47
245 -60 124 -156 217 -299 290 -113 58 -134 62 -189 34z"/>
<path d="M2015 4831 c-125 -35 -185 -94 -185 -178 0 -77 71 -143 152 -143 21
0 60 9 88 20 72 28 86 26 100 -15 22 -66 110 -118 172 -101 79 20 120 78 120
166 0 110 -71 210 -178 250 -68 25 -184 26 -269 1z"/>
<path d="M2864 4099 c-72 -17 -145 -69 -172 -121 -48 -93 -23 -226 52 -283 99
-76 260 -111 461 -101 140 7 284 30 327 52 82 43 103 166 40 234 -33 35 -280
160 -389 196 -87 29 -247 41 -319 23z"/>
<path d="M1073 4049 c-73 -9 -111 -27 -147 -69 -69 -83 -52 -196 40 -266 35
-27 44 -29 120 -28 57 0 81 -3 76 -10 -3 -6 -47 -63 -97 -126 -281 -354 -485
-645 -505 -719 -28 -106 41 -221 141 -237 42 -7 185 21 219 43 13 9 61 44 105
77 44 34 167 119 273 191 l193 129 34 -18 c44 -24 60 -69 51 -149 -13 -126
-123 -391 -233 -561 -57 -88 -183 -219 -243 -252 -62 -35 -83 -67 -88 -135 -5
-70 19 -118 72 -143 88 -42 191 0 321 129 107 105 214 268 335 508 120 239
151 329 158 459 l5 98 33 19 c57 34 68 69 60 196 -11 202 -49 289 -144 333
-43 19 -62 23 -99 17 -64 -9 -81 -18 -228 -115 -71 -48 -137 -90 -145 -95 -8
-5 3 15 25 45 197 273 247 407 195 528 -29 68 -93 126 -161 146 -57 17 -253
20 -366 5z"/>
<path d="M4224 3785 c-122 -26 -217 -93 -261 -183 -54 -110 -32 -254 55 -353
77 -87 211 -121 325 -81 154 55 250 188 298 414 11 54 11 60 -12 105 -31 59
-67 81 -166 98 -96 17 -160 17 -239 0z m61 -315 c-19 -21 -55 -27 -55 -10 0
11 62 41 69 34 2 -2 -4 -13 -14 -24z"/>
<path d="M3385 3377 c-72 -35 -113 -84 -179 -213 -84 -165 -18 -274 165 -274
64 0 81 4 125 30 124 71 197 257 146 372 -41 95 -158 133 -257 85z"/>
<path d="M5000 3188 c-82 -46 -200 -170 -238 -248 -74 -151 -58 -289 44 -379
165 -145 420 -10 499 264 35 119 10 242 -65 323 -75 81 -148 93 -240 40z"/>
<path d="M3947 2575 c-66 -23 -118 -77 -147 -153 -26 -69 -25 -86 10 -221 17
-63 29 -116 27 -118 -2 -2 -23 4 -47 12 -91 32 -198 15 -261 -42 -109 -99
-113 -206 -19 -515 98 -323 117 -374 162 -415 58 -54 159 -68 238 -32 87 39
137 110 147 204 l6 53 52 -5 c38 -4 73 0 123 16 87 26 141 75 171 155 39 105
27 185 -78 534 -39 128 -80 270 -91 315 -28 111 -36 129 -73 165 -61 59 -140
76 -220 47z"/>
<path d="M1998 2337 c-66 -25 -125 -66 -177 -122 -52 -58 -151 -209 -151 -232
0 -7 -21 -43 -46 -80 -204 -298 -274 -753 -159 -1036 54 -132 170 -253 341
-355 182 -108 334 -147 544 -140 106 4 139 10 220 37 236 79 417 245 545 502
166 331 245 580 245 775 0 139 -53 251 -147 313 -66 44 -114 56 -223 55 -108
-1 -194 -25 -364 -101 -55 -24 -105 -42 -112 -39 -6 2 -14 20 -18 38 -9 49
-130 255 -179 306 -63 65 -108 85 -202 89 -51 2 -93 -2 -117 -10z m121 -475
c6 -15 20 -65 31 -111 28 -112 52 -159 108 -216 63 -63 115 -89 177 -89 43 0
77 13 230 88 150 74 288 136 302 136 11 0 -1 -92 -21 -173 -43 -168 -155 -421
-222 -502 -19 -22 -48 -60 -66 -84 -72 -97 -209 -161 -346 -161 -146 0 -300
68 -418 185 -76 75 -96 116 -110 222 -18 141 49 377 148 521 16 23 34 55 41
70 7 15 32 60 57 99 41 67 46 71 61 57 10 -9 22 -27 28 -42z"/>
</g>
</svg>
