<?xml version="1.0" standalone="no"?>
<!DOCTYPE svg PUBLIC "-//W3C//DTD SVG 20010904//EN"
 "http://www.w3.org/TR/2001/REC-SVG-20010904/DTD/svg10.dtd">
<svg version="1.0" xmlns="http://www.w3.org/2000/svg"
 width="600.000000pt" height="600.000000pt" viewBox="0 0 600.000000 600.000000"
 preserveAspectRatio="xMidYMid meet">
<metadata>
Created by potrace 1.15, written by Peter Selinger 2001-2017
</metadata>
<g transform="translate(0.000000,600.000000) scale(0.100000,-0.100000)"
fill="#16364b" stroke="none">
<path d="M2763 5564 c-24 -12 -43 -37 -76 -103 -95 -185 -106 -309 -38 -412
67 -99 170 -129 373 -111 67 6 124 10 125 8 2 -2 -75 -80 -172 -172 -185 -179
-285 -287 -360 -394 -54 -77 -68 -122 -55 -171 12 -42 70 -114 110 -134 26
-13 177 -32 455 -55 131 -12 254 -29 356 -51 49 -11 60 -10 95 7 54 27 84 75
84 136 0 62 -27 104 -84 128 -73 32 -455 100 -562 100 -18 0 -34 5 -34 10 0
14 110 120 285 275 207 182 270 252 290 317 19 66 19 94 -4 143 -60 131 -203
177 -479 155 -84 -7 -155 -10 -158 -7 -3 3 13 43 35 90 23 46 41 96 41 111 0
109 -125 180 -227 130z"/>
<path d="M1536 5196 c-146 -75 -294 -210 -419 -384 -162 -225 -189 -385 -78
-459 43 -29 71 -29 206 2 119 27 318 44 328 28 3 -5 -15 -72 -40 -149 -56
-168 -64 -257 -25 -311 12 -17 22 -33 22 -36 0 -3 -24 -13 -53 -21 -30 -9 -65
-25 -79 -36 -56 -43 -74 -135 -39 -200 22 -42 83 -80 131 -80 115 0 538 166
633 250 85 74 65 215 -37 261 -59 27 -80 24 -183 -26 -50 -25 -97 -45 -102
-45 -11 0 11 85 59 224 62 183 49 291 -44 382 -34 33 -72 59 -108 72 -62 23
-213 46 -259 40 -16 -3 -29 -1 -29 3 0 17 162 157 219 189 104 59 124 74 145
110 42 71 15 189 -49 218 -52 24 -109 15 -199 -32z"/>
<path d="M4379 4621 c-81 -18 -276 -89 -362 -133 -97 -49 -104 -194 -13 -253
52 -34 93 -30 210 19 118 51 222 83 233 73 10 -11 -148 -319 -231 -452 -68
-107 -76 -125 -76 -169 0 -59 19 -92 94 -163 39 -38 63 -53 83 -53 261 -4 377
-9 418 -19 114 -27 125 -31 125 -50 0 -10 -55 -130 -122 -267 -109 -221 -123
-255 -123 -301 0 -112 111 -184 212 -136 31 14 44 36 123 197 219 448 248 573
160 693 -58 79 -213 135 -464 168 -66 8 -122 17 -124 20 -3 3 12 31 33 62 129
195 212 427 203 568 -11 173 -151 246 -379 196z"/>
<path d="M3767 3700 c-20 -6 -54 -18 -75 -29 -84 -43 -182 -186 -182 -266 0
-75 54 -136 127 -142 62 -5 110 20 141 76 28 48 60 70 73 50 14 -21 0 -105
-32 -194 -41 -114 -61 -142 -117 -166 -201 -86 -294 -180 -277 -281 9 -53 64
-114 116 -128 53 -14 98 -1 162 48 72 55 133 84 266 126 147 46 197 76 222
129 10 23 19 52 19 65 0 36 -27 91 -61 123 -30 28 -31 30 -20 79 34 159 -10
350 -101 437 -63 61 -178 93 -261 73z"/>
<path d="M2490 3516 c-163 -34 -388 -129 -424 -178 -26 -37 -33 -116 -12 -156
21 -40 72 -79 116 -87 29 -5 59 3 160 44 147 59 226 81 292 81 48 0 48 0 48
-33 0 -53 -27 -132 -96 -278 -49 -103 -64 -146 -64 -180 0 -54 26 -98 75 -129
48 -30 123 -24 162 11 32 30 176 319 205 414 16 51 22 97 23 170 0 90 -3 106
-28 157 -31 63 -86 116 -155 150 -57 27 -206 34 -302 14z"/>
<path d="M1133 3236 c-51 -16 -161 -77 -203 -112 -43 -37 -63 -80 -63 -139 0
-114 94 -194 214 -183 36 4 49 2 49 -8 0 -8 -13 -94 -29 -191 -43 -264 -54
-381 -50 -563 4 -159 5 -167 32 -213 44 -75 124 -104 229 -82 73 16 94 39 218
248 66 111 143 240 172 286 54 86 190 241 212 241 23 0 46 -111 46 -223 0
-142 -14 -263 -57 -487 -47 -248 -49 -277 -25 -320 30 -55 92 -94 150 -94 26
0 61 8 78 17 l31 16 6 -77 c4 -42 16 -131 27 -197 77 -451 157 -618 338 -707
60 -30 75 -33 153 -33 80 1 93 4 164 39 48 24 99 59 133 92 30 30 58 54 63 54
4 0 25 15 45 32 25 23 53 66 86 137 95 203 218 375 286 399 42 14 81 -3 208
-91 155 -107 188 -121 299 -121 79 0 97 3 148 28 74 36 150 109 168 163 9 27
26 50 49 65 47 32 76 78 91 145 12 52 11 64 -15 162 -32 122 -46 264 -26 276
7 4 89 12 184 16 238 12 329 42 417 136 85 90 128 228 114 363 -11 103 -58
173 -140 211 -137 63 -291 -31 -314 -190 l-6 -46 -126 -6 c-150 -7 -180 -12
-281 -45 -211 -69 -311 -201 -333 -437 -8 -89 8 -254 36 -365 11 -46 19 -86
16 -88 -2 -2 -42 21 -88 52 -145 98 -247 134 -375 134 -233 0 -407 -152 -623
-545 -33 -60 -64 -113 -68 -118 -15 -14 -98 -67 -106 -67 -29 0 -77 180 -132
492 -27 155 -37 180 -94 231 -61 55 -166 64 -229 18 -17 -11 -32 -21 -35 -21
-2 0 -1 21 4 48 4 26 15 94 24 152 9 58 30 186 47 285 27 154 32 206 32 360 1
162 -1 187 -22 255 -48 151 -92 216 -177 256 -120 57 -251 9 -418 -154 -38
-37 -98 -104 -134 -150 -36 -46 -67 -82 -69 -80 -1 2 6 48 17 103 60 310 62
395 9 501 -33 67 -92 120 -159 143 -44 15 -145 13 -198 -3z"/>
<path d="M2954 2596 c-118 -25 -314 -86 -376 -117 -111 -56 -143 -221 -59
-313 58 -63 120 -70 261 -27 95 28 280 73 353 86 46 7 46 12 -11 -130 -49
-121 -51 -196 -6 -251 50 -63 78 -78 149 -82 126 -8 177 49 243 273 38 128 56
242 49 304 -13 112 -83 208 -185 254 -73 33 -269 35 -418 3z"/>
</g>
</svg>
