<?xml version="1.0" standalone="no"?>
<!DOCTYPE svg PUBLIC "-//W3C//DTD SVG 20010904//EN"
 "http://www.w3.org/TR/2001/REC-SVG-20010904/DTD/svg10.dtd">
<svg version="1.0" xmlns="http://www.w3.org/2000/svg"
 width="600.000000pt" height="600.000000pt" viewBox="0 0 600.000000 600.000000"
 preserveAspectRatio="xMidYMid meet">
<metadata>
Created by potrace 1.15, written by Peter Selinger 2001-2017
</metadata>
<g transform="translate(0.000000,600.000000) scale(0.100000,-0.100000)"
fill="#16364b" stroke="none">
<path d="M1544 5760 c-12 -4 -31 -20 -42 -35 -41 -51 -118 -442 -110 -556 9
-119 69 -201 160 -215 54 -9 141 21 200 69 86 70 246 279 336 438 65 114 23
216 -88 213 -62 -2 -93 -29 -160 -141 -77 -128 -157 -243 -170 -243 -14 0 8
125 50 280 22 83 22 87 5 123 -30 64 -113 95 -181 67z"/>
<path d="M866 5499 c-119 -29 -233 -129 -293 -256 -33 -69 -37 -85 -37 -157 0
-99 22 -153 89 -225 76 -81 152 -108 215 -76 45 24 70 62 70 111 0 61 -13 88
-59 120 -22 16 -46 42 -52 57 -17 40 4 102 50 148 46 47 95 58 151 35 22 -9
53 -16 69 -16 43 0 94 40 110 86 13 37 12 44 -5 80 -37 76 -191 123 -308 93z"/>
<path d="M3368 5439 c-38 -15 -68 -67 -68 -120 0 -57 14 -76 100 -134 38 -27
70 -52 70 -55 0 -4 -9 -15 -20 -25 -31 -29 -45 -85 -30 -129 16 -50 107 -141
167 -168 187 -85 362 82 275 262 -51 107 -151 204 -320 312 -95 62 -131 73
-174 57z"/>
<path d="M2295 5170 c-52 -34 -65 -72 -65 -186 0 -186 -31 -235 -205 -322
-120 -59 -142 -87 -132 -168 4 -38 12 -54 37 -77 50 -44 104 -36 260 40 206
100 283 191 310 364 16 102 9 264 -13 306 -33 62 -131 84 -192 43z"/>
<path d="M3014 5161 c-172 -28 -292 -254 -214 -406 21 -39 37 -55 80 -78 48
-25 62 -28 110 -23 130 13 217 57 238 121 18 52 10 216 -12 270 -38 89 -109
130 -202 116z"/>
<path d="M4733 4800 c-58 -35 -66 -66 -60 -220 3 -74 13 -160 21 -191 38 -137
107 -247 191 -305 52 -35 63 -39 119 -39 133 1 251 117 276 269 28 174 -95
339 -347 465 -94 47 -149 53 -200 21z m257 -420 c6 -11 8 -20 6 -20 -3 0 -10
9 -16 20 -6 11 -8 20 -6 20 3 0 10 -9 16 -20z"/>
<path d="M2808 4190 c-131 -23 -215 -74 -261 -158 -69 -127 -3 -275 148 -331
121 -46 259 -33 409 38 175 81 226 131 226 221 0 80 -39 124 -151 169 -145 57
-275 79 -371 61z"/>
<path d="M1035 4076 c-42 -19 -71 -54 -86 -104 -29 -101 47 -221 141 -222 45
-1 190 -27 199 -35 10 -12 -102 -106 -193 -163 -47 -30 -140 -78 -208 -108
-137 -61 -182 -99 -193 -164 -10 -61 21 -122 77 -149 24 -11 55 -21 67 -21 27
0 165 53 300 116 52 24 96 44 97 44 2 0 4 -11 4 -24 0 -33 39 -86 80 -107 19
-11 55 -19 81 -19 39 0 59 8 129 55 45 30 88 55 96 55 7 0 35 -11 62 -25 138
-69 257 -51 308 47 34 65 9 171 -53 230 -63 60 -196 95 -301 78 -31 -5 -58 -8
-60 -5 -3 2 2 15 10 27 29 45 50 129 46 182 -13 158 -134 244 -428 306 -111
23 -135 24 -175 6z"/>
<path d="M4212 3775 c-90 -20 -150 -52 -204 -107 -57 -59 -82 -126 -83 -224 0
-178 151 -320 321 -300 137 16 248 110 330 279 39 81 70 203 60 240 -11 45
-54 86 -109 102 -75 23 -238 28 -315 10z m68 -292 c0 -14 -34 -43 -52 -43 -25
0 -23 16 4 34 23 16 48 21 48 9z"/>
<path d="M5159 3440 c-60 -18 -173 -86 -232 -140 -83 -76 -121 -151 -120 -236
1 -110 74 -229 169 -275 93 -45 226 -6 334 97 120 114 159 281 95 404 -23 45
-109 129 -147 145 -41 16 -59 17 -99 5z"/>
<path d="M3465 3400 c-16 -3 -40 -12 -51 -18 -67 -36 -197 -250 -197 -323 0
-84 74 -135 177 -124 76 9 125 33 161 81 63 83 94 246 58 313 -31 59 -87 86
-148 71z"/>
<path d="M2367 3040 c-81 -21 -167 -82 -217 -155 -17 -24 -54 -98 -84 -164
-66 -148 -91 -180 -186 -246 -83 -59 -214 -189 -279 -278 -93 -127 -191 -345
-232 -512 -38 -160 -18 -370 51 -521 100 -221 338 -402 585 -445 108 -19 328
-7 449 25 292 76 512 258 654 541 57 113 79 192 118 425 43 253 53 413 31 525
-37 194 -103 297 -263 405 -40 27 -111 92 -160 146 -149 164 -193 205 -249
230 -60 28 -159 38 -218 24z m198 -552 c38 -58 61 -78 145 -132 121 -79 135
-102 152 -246 23 -199 -28 -513 -110 -676 -61 -120 -224 -263 -357 -313 -87
-33 -192 -45 -267 -32 -148 26 -294 134 -359 266 -32 66 -34 75 -34 180 0 90
4 123 24 180 55 163 141 294 242 370 35 27 69 53 74 59 6 7 37 32 70 58 110
84 193 191 242 312 14 34 32 77 40 96 l14 35 40 -45 c21 -25 59 -75 84 -112z"/>
<path d="M813 2634 c-82 -41 -99 -164 -29 -214 12 -8 46 -27 76 -41 208 -99
325 -294 247 -410 -61 -91 -184 -17 -283 170 -16 30 -42 62 -59 72 -83 51
-205 -9 -205 -100 0 -25 12 -57 36 -97 115 -192 263 -315 410 -344 150 -29
293 59 356 220 31 79 31 231 0 311 -63 160 -227 331 -404 420 -65 33 -99 36
-145 13z"/>
<path d="M4230 2238 c-19 -5 -49 -20 -66 -34 -37 -28 -84 -115 -84 -157 0 -26
-3 -28 -22 -22 -55 18 -135 17 -174 -3 -97 -49 -121 -129 -89 -287 27 -127 93
-321 122 -356 35 -41 96 -69 154 -69 26 0 63 -7 82 -15 110 -46 232 7 290 124
l32 66 -2 180 c-1 99 -8 243 -17 320 -13 123 -18 144 -43 179 -46 65 -114 93
-183 74z"/>
</g>
</svg>
