<?xml version="1.0" standalone="no"?>
<!DOCTYPE svg PUBLIC "-//W3C//DTD SVG 20010904//EN"
 "http://www.w3.org/TR/2001/REC-SVG-20010904/DTD/svg10.dtd">
<svg version="1.0" xmlns="http://www.w3.org/2000/svg"
 width="600.000000pt" height="600.000000pt" viewBox="0 0 600.000000 600.000000"
 preserveAspectRatio="xMidYMid meet">
<metadata>
Created by potrace 1.15, written by Peter Selinger 2001-2017
</metadata>
<g transform="translate(0.000000,600.000000) scale(0.100000,-0.100000)"
fill="#16364b" stroke="none">
<path d="M2265 5519 c-143 -18 -274 -135 -322 -287 -16 -50 -17 -82 -13 -257
3 -110 5 -393 4 -630 -1 -384 -3 -449 -23 -605 -17 -128 -24 -249 -28 -452 -6
-318 5 -293 -109 -254 -108 36 -229 98 -347 176 -101 67 -107 72 -100 98 11
42 9 65 -5 69 -7 3 -17 -8 -23 -27 -13 -37 -18 -34 -38 28 -21 63 -45 63 -49
0 -2 -27 -6 -48 -8 -48 -3 0 -17 9 -31 20 -52 41 -77 17 -37 -35 l27 -36 -42
7 c-36 6 -41 4 -41 -12 0 -13 22 -32 64 -56 34 -20 82 -53 105 -72 114 -95
331 -209 509 -267 l102 -33 0 -36 c0 -19 -5 -104 -11 -188 -17 -224 14 -566
70 -784 43 -168 129 -326 234 -431 68 -68 187 -129 313 -162 l88 -23 -4 -43
c-3 -24 -5 -102 -4 -174 1 -144 16 -232 70 -413 19 -62 32 -117 29 -123 -4 -5
-40 -9 -82 -9 -124 0 -189 -43 -181 -120 2 -26 12 -40 38 -58 32 -22 42 -24
120 -19 106 7 149 21 202 66 78 67 85 128 34 289 -50 154 -65 218 -75 322 -10
95 0 245 18 263 6 6 25 6 53 -1 80 -21 440 -46 678 -46 l235 -1 1 -110 c1
-119 22 -222 89 -433 45 -138 45 -142 -2 -142 -65 0 -152 -18 -178 -37 -33
-24 -57 -76 -49 -107 26 -106 235 -107 352 -2 84 76 90 131 33 298 -86 252
-109 397 -80 513 l11 44 62 5 c33 3 120 8 191 11 197 8 300 42 396 132 138
129 188 319 168 648 -20 353 -31 464 -50 535 -35 130 -119 275 -225 389 l-55
60 43 11 c24 7 99 30 167 52 279 90 411 159 519 271 64 67 72 84 48 93 -8 3
-12 12 -9 20 7 20 -21 28 -48 14 -21 -12 -22 -11 -16 18 10 48 -12 51 -49 7
-31 -38 -32 -38 -36 -14 -2 16 -9 24 -23 24 -18 0 -20 -6 -17 -51 l2 -52 -52
-35 c-67 -44 -117 -69 -210 -105 -161 -64 -320 -112 -416 -126 l-43 -6 -172
167 c-225 220 -296 274 -633 477 -186 112 -273 180 -343 269 -70 87 -145 234
-190 374 -58 174 -88 331 -132 678 -38 301 -241 504 -474 474z m164 -192 c88
-58 133 -156 156 -336 40 -304 49 -364 75 -466 75 -296 215 -567 383 -734 74
-75 136 -119 392 -275 266 -164 375 -257 786 -665 138 -137 214 -242 249 -343
44 -129 76 -695 46 -836 -34 -160 -111 -265 -219 -297 -29 -9 -126 -20 -217
-25 -91 -6 -259 -17 -375 -26 -241 -19 -624 -14 -785 11 -52 8 -147 21 -210
30 -347 47 -506 151 -599 394 -76 196 -105 428 -97 769 22 999 24 1071 46
1272 24 215 30 536 21 1090 -5 271 3 316 66 389 51 60 102 82 179 78 47 -2 72
-9 103 -30z"/>
<path d="M2592 2894 c-38 -26 -28 -85 19 -110 36 -18 63 -7 77 33 11 34 0 68
-27 82 -27 15 -43 14 -69 -5z"/>
<path d="M3157 2842 c-10 -10 -17 -29 -17 -41 0 -28 46 -71 76 -71 25 0 64 43
64 71 0 51 -88 80 -123 41z"/>
<path d="M2793 1939 c-18 -18 -16 -43 5 -61 29 -26 117 -37 314 -40 195 -2
218 2 218 42 0 39 -25 45 -239 51 -113 4 -224 10 -246 14 -27 4 -44 3 -52 -6z"/>
</g>
</svg>
