<?xml version="1.0" standalone="no"?>
<!DOCTYPE svg PUBLIC "-//W3C//DTD SVG 20010904//EN"
 "http://www.w3.org/TR/2001/REC-SVG-20010904/DTD/svg10.dtd">
<svg version="1.0" xmlns="http://www.w3.org/2000/svg"
 width="600.000000pt" height="600.000000pt" viewBox="0 0 600.000000 600.000000"
 preserveAspectRatio="xMidYMid meet">
<metadata>
Created by potrace 1.15, written by Peter Selinger 2001-2017
</metadata>
<g transform="translate(0.000000,600.000000) scale(0.100000,-0.100000)"
fill="#16364b" stroke="none">
<path d="M2850 5551 c-87 -46 -190 -276 -177 -394 7 -56 46 -133 91 -176 18
-17 59 -41 92 -52 53 -19 72 -21 194 -15 l135 6 -35 -27 c-54 -43 -237 -211
-257 -237 -10 -13 -74 -82 -143 -154 -68 -72 -130 -143 -138 -158 -24 -46 -11
-115 32 -172 21 -27 53 -56 70 -65 38 -17 150 -40 316 -62 152 -21 381 -61
450 -80 89 -24 134 -20 175 16 95 83 57 228 -69 264 -66 18 -288 59 -436 80
-63 9 -123 20 -133 23 -15 6 -5 22 63 100 86 99 164 165 325 276 195 136 227
174 229 272 1 101 -83 177 -234 210 -61 14 -105 16 -252 10 -98 -3 -178 -3
-178 0 0 4 18 50 41 102 42 98 44 122 20 184 -23 61 -114 85 -181 49z"/>
<path d="M1518 5232 c-206 -104 -388 -304 -511 -561 -72 -149 -76 -237 -16
-299 40 -41 89 -54 148 -41 164 37 431 62 431 40 0 -6 -20 -60 -44 -119 -76
-186 -93 -277 -61 -332 20 -36 19 -38 -24 -50 -47 -12 -95 -64 -112 -118 -24
-80 25 -159 113 -182 50 -14 144 5 299 60 110 39 307 135 355 172 31 25 63 91
64 130 0 47 -30 106 -65 128 -53 32 -103 26 -206 -26 -50 -25 -95 -44 -99 -42
-5 2 11 55 36 118 64 163 77 219 72 315 -5 90 -26 141 -79 193 -55 54 -113 67
-286 66 -177 -1 -172 -9 -67 104 77 84 157 148 231 185 63 33 95 75 100 136 8
92 -57 161 -151 161 -40 0 -69 -9 -128 -38z"/>
<path d="M4415 4591 c-103 -28 -366 -129 -388 -149 -26 -23 -47 -66 -47 -96 0
-42 30 -105 62 -127 52 -37 94 -36 199 9 116 49 228 86 236 78 8 -8 -152 -327
-241 -480 -61 -104 -76 -138 -76 -170 0 -47 28 -99 62 -117 13 -7 28 -20 35
-29 22 -31 77 -49 188 -60 121 -12 319 -44 378 -60 21 -6 37 -17 37 -26 0 -24
-105 -250 -176 -379 -75 -134 -88 -189 -60 -243 34 -66 137 -85 216 -41 47 27
91 94 167 258 114 242 161 398 150 491 -20 168 -155 244 -502 280 -60 7 -111
13 -113 15 -2 2 21 45 50 96 74 128 134 256 171 364 58 172 37 300 -62 370
-38 27 -51 30 -129 32 -61 2 -108 -3 -157 -16z"/>
<path d="M3751 3644 c-155 -55 -237 -217 -162 -323 27 -38 98 -66 145 -57 39
7 106 64 106 90 0 26 27 18 34 -10 10 -37 -2 -89 -41 -180 -33 -79 -36 -83
-81 -99 -118 -44 -263 -149 -297 -216 -45 -85 9 -198 101 -215 56 -10 98 4
161 54 66 53 147 90 268 122 44 12 99 33 122 46 86 50 109 179 43 249 -20 21
-20 23 -4 101 25 122 10 229 -45 316 -72 113 -224 166 -350 122z"/>
<path d="M2508 3549 c-147 -19 -383 -113 -437 -174 -57 -65 -38 -167 41 -218
57 -37 110 -36 201 4 90 40 176 65 255 74 84 10 102 2 102 -42 0 -51 -49 -190
-114 -321 -30 -63 -58 -130 -62 -149 -13 -71 33 -155 104 -192 l36 -19 -33 -7
c-18 -4 -50 -23 -72 -42 -128 -116 -63 -333 100 -333 24 0 99 23 193 59 164
62 293 100 304 88 8 -7 1 -29 -56 -193 -37 -104 -36 -157 3 -216 65 -95 189
-113 283 -41 40 30 94 136 145 283 30 86 33 106 34 210 0 106 -2 119 -28 173
-54 108 -158 161 -318 159 -90 0 -188 -20 -346 -71 -51 -16 -93 -28 -93 -26 0
2 19 36 42 77 100 177 178 368 198 486 16 94 6 166 -31 241 -50 100 -133 160
-258 187 -73 15 -95 15 -193 3z"/>
<path d="M1170 3289 c-97 -19 -266 -124 -304 -189 -43 -74 -18 -206 50 -259
40 -31 101 -45 143 -32 19 6 37 9 39 6 2 -2 -8 -75 -22 -162 -48 -296 -51
-327 -51 -533 0 -170 3 -214 18 -256 39 -113 154 -168 278 -134 50 14 77 47
163 203 116 210 299 468 405 571 l40 39 12 -29 c18 -42 23 -200 9 -317 -6 -56
-31 -201 -55 -322 -66 -331 -65 -328 -54 -371 21 -76 80 -124 151 -124 33 0
94 30 113 57 8 10 17 -24 34 -129 104 -624 326 -929 620 -854 82 21 154 58
206 104 23 20 55 44 72 53 20 11 44 41 68 85 155 285 254 434 307 463 24 14
30 14 64 -2 21 -10 74 -45 118 -77 200 -145 350 -172 499 -92 55 30 132 109
141 146 3 14 28 47 54 73 47 48 72 101 72 157 0 14 -9 66 -20 116 -28 125 -37
259 -19 271 27 16 116 20 234 10 202 -18 311 13 403 114 76 83 97 149 97 310
0 119 -2 135 -26 185 -31 65 -79 115 -127 131 -48 16 -149 6 -199 -19 -74 -38
-123 -117 -123 -199 0 -25 -4 -33 -17 -33 -10 0 -72 -5 -138 -10 -358 -30
-562 -182 -595 -445 -12 -92 1 -250 29 -370 10 -41 15 -75 12 -75 -3 0 -46 29
-96 65 -200 145 -314 173 -467 115 -32 -12 -85 -39 -118 -61 -124 -83 -203
-183 -373 -475 -74 -125 -100 -154 -141 -154 -34 0 -98 212 -135 450 -36 229
-40 241 -80 281 -78 79 -187 74 -285 -11 l-34 -30 14 67 c7 38 29 142 48 233
93 441 99 657 26 894 -60 192 -206 259 -378 174 -68 -34 -199 -164 -303 -299
-50 -66 -92 -119 -94 -117 -1 2 4 48 13 103 9 61 15 177 16 295 l1 195 -33 68
c-37 75 -90 119 -170 143 -50 15 -48 15 -112 3z"/>
</g>
</svg>
