<?xml version="1.0" standalone="no"?>
<!DOCTYPE svg PUBLIC "-//W3C//DTD SVG 20010904//EN"
 "http://www.w3.org/TR/2001/REC-SVG-20010904/DTD/svg10.dtd">
<svg version="1.0" xmlns="http://www.w3.org/2000/svg"
 width="600.000000pt" height="600.000000pt" viewBox="0 0 600.000000 600.000000"
 preserveAspectRatio="xMidYMid meet">
<metadata>
Created by potrace 1.15, written by Peter Selinger 2001-2017
</metadata>
<g transform="translate(0.000000,600.000000) scale(0.100000,-0.100000)"
fill="#16364b" stroke="none">
<path d="M1516 5748 c-32 -33 -96 -167 -142 -299 -35 -101 -49 -204 -35 -256
22 -79 88 -133 163 -133 91 0 231 116 394 325 86 109 94 124 94 163 0 37 -6
50 -34 78 -28 28 -42 34 -76 34 -46 0 -63 -14 -178 -144 -28 -33 -54 -58 -56
-55 -2 2 11 42 30 89 45 109 43 161 -7 202 -49 41 -110 39 -153 -4z"/>
<path d="M798 5537 c-143 -53 -243 -172 -268 -320 -37 -209 140 -445 279 -373
79 41 82 160 6 210 -15 10 -33 33 -41 51 -26 63 24 164 103 204 34 17 62 13
111 -15 122 -72 246 43 169 157 -14 20 -46 46 -82 64 -51 26 -73 30 -150 32
-57 2 -103 -2 -127 -10z"/>
<path d="M2353 5411 c-17 -11 -34 -30 -38 -42 -4 -12 -8 -108 -10 -213 -2
-215 -19 -305 -77 -422 -44 -88 -97 -139 -197 -187 -69 -34 -86 -47 -98 -76
-19 -44 -10 -76 32 -118 46 -46 100 -46 194 2 174 87 291 267 345 529 18 90
40 401 31 449 -16 84 -107 123 -182 78z"/>
<path d="M3493 5345 c-52 -22 -66 -54 -59 -133 12 -125 102 -264 214 -329 62
-36 142 -38 189 -5 44 31 69 99 55 152 -15 59 -69 144 -132 209 -42 43 -74 64
-132 89 -87 36 -91 37 -135 17z"/>
<path d="M2983 5169 c-60 -14 -135 -85 -175 -166 -38 -79 -45 -175 -15 -231
47 -87 155 -120 274 -83 136 41 163 76 165 214 2 99 -13 156 -54 203 -53 60
-117 81 -195 63z"/>
<path d="M4761 4787 c-13 -6 -34 -25 -45 -40 -19 -26 -21 -40 -18 -148 3 -148
23 -252 66 -345 63 -135 152 -204 264 -204 154 0 252 114 240 280 -10 135
-102 268 -262 378 -130 90 -188 109 -245 79z m258 -438 c6 -17 6 -29 1 -29
-10 0 -24 23 -41 66 -10 28 -10 28 10 10 11 -10 24 -31 30 -47z"/>
<path d="M2690 4231 c-124 -38 -200 -136 -200 -257 0 -103 52 -183 154 -237
33 -17 59 -21 131 -22 85 0 96 2 166 37 83 41 220 162 238 212 19 48 13 120
-12 157 -28 43 -66 61 -191 93 -99 26 -230 34 -286 17z"/>
<path d="M1024 4060 c-37 -24 -58 -67 -56 -118 3 -69 57 -117 157 -138 113
-24 176 -45 172 -57 -9 -29 -163 -95 -342 -148 -112 -33 -146 -59 -165 -129
-19 -71 10 -134 79 -170 77 -40 432 77 589 194 34 25 63 46 65 46 2 0 0 -30
-5 -67 -11 -88 4 -159 44 -215 40 -54 50 -63 122 -98 158 -78 330 -31 410 110
28 50 31 63 31 140 0 100 -27 169 -90 234 -58 59 -115 80 -210 81 -71 0 -89
-4 -145 -32 -36 -17 -66 -31 -67 -29 -1 1 2 18 7 37 21 74 3 157 -47 215 -56
64 -162 114 -310 144 -125 26 -198 26 -239 0z"/>
<path d="M4195 3777 c-124 -32 -218 -110 -251 -209 -34 -103 -3 -231 77 -322
77 -88 229 -118 334 -66 135 66 232 234 252 436 5 58 4 62 -27 97 -22 25 -48
42 -83 52 -71 22 -239 28 -302 12z m75 -284 c0 -12 -43 -53 -57 -53 -23 0 -14
29 15 44 30 17 42 19 42 9z"/>
<path d="M5108 3537 c-207 -71 -308 -242 -251 -423 33 -107 138 -203 236 -218
87 -13 196 25 273 96 110 102 142 249 82 378 -26 56 -115 158 -155 179 -34 18
-112 12 -185 -12z m62 -322 c-7 -9 -15 -13 -18 -10 -3 2 1 11 8 20 7 9 15 13
18 10 3 -2 -1 -11 -8 -20z"/>
<path d="M2562 3455 c-72 -20 -154 -76 -211 -145 -59 -71 -131 -209 -172 -331
-63 -188 -105 -237 -274 -319 -263 -126 -426 -318 -531 -624 -123 -358 -28
-762 228 -965 132 -105 336 -189 523 -217 214 -32 351 9 587 177 158 113 232
182 294 276 92 140 122 222 176 480 32 151 33 167 32 373 -1 388 -70 808 -165
1007 -107 224 -303 340 -487 288z m162 -537 c48 -153 62 -219 82 -373 20 -157
23 -512 5 -634 -40 -275 -123 -442 -274 -555 -94 -70 -143 -94 -231 -112 -194
-41 -468 72 -561 231 -55 94 -72 249 -40 370 37 139 148 309 256 392 30 22 86
56 124 74 153 70 288 188 364 314 19 31 60 133 92 225 59 176 62 184 88 213
15 18 16 18 37 -6 12 -14 38 -77 58 -139z"/>
<path d="M3435 3385 c-54 -19 -102 -77 -164 -197 -66 -127 -67 -179 -7 -230
34 -28 75 -31 147 -9 52 17 75 31 107 65 117 127 135 301 37 357 -45 26 -76
30 -120 14z"/>
<path d="M389 2301 c-43 -42 -49 -54 -49 -89 0 -99 136 -399 248 -547 119
-157 238 -232 353 -222 220 19 284 262 130 497 -78 119 -236 244 -454 358
-132 70 -162 70 -228 3z m364 -369 c66 -50 123 -118 151 -180 22 -49 17 -61
-18 -38 -55 35 -190 202 -213 262 -8 21 1 17 80 -44z"/>
<path d="M4294 2046 c-17 -8 -40 -25 -51 -40 -12 -14 -23 -26 -26 -26 -4 0
-23 11 -43 25 -48 33 -119 34 -158 4 -56 -44 -70 -117 -42 -228 8 -31 20 -96
26 -146 6 -49 17 -108 25 -130 7 -22 21 -65 30 -97 71 -236 331 -216 405 30
28 93 59 288 66 407 6 94 5 102 -17 135 -45 66 -144 97 -215 66z"/>
</g>
</svg>
