<?xml version="1.0" standalone="no"?>
<!DOCTYPE svg PUBLIC "-//W3C//DTD SVG 20010904//EN"
 "http://www.w3.org/TR/2001/REC-SVG-20010904/DTD/svg10.dtd">
<svg version="1.0" xmlns="http://www.w3.org/2000/svg"
 width="600.000000pt" height="600.000000pt" viewBox="0 0 600.000000 600.000000"
 preserveAspectRatio="xMidYMid meet">
<metadata>
Created by potrace 1.15, written by Peter Selinger 2001-2017
</metadata>
<g transform="translate(0.000000,600.000000) scale(0.100000,-0.100000)"
fill="#16364b" stroke="none">
<path d="M1524 5771 c-38 -23 -54 -56 -97 -207 -93 -321 -68 -504 79 -560 38
-15 47 -15 96 0 101 29 208 141 391 410 72 108 83 147 52 205 -19 39 -77 65
-122 56 -52 -9 -76 -29 -118 -93 -29 -43 -127 -178 -162 -221 -21 -28 9 107
52 228 23 66 20 123 -10 155 -45 48 -108 59 -161 27z"/>
<path d="M854 5520 c-179 -38 -314 -219 -314 -421 0 -99 29 -170 100 -241 83
-83 159 -91 219 -23 58 67 46 162 -26 206 -18 11 -38 29 -43 39 -16 29 -12 77
9 118 23 45 46 67 92 86 31 13 40 13 89 -5 30 -10 66 -19 81 -19 34 0 90 38
107 73 16 34 2 94 -30 124 -56 52 -193 83 -284 63z"/>
<path d="M3443 5403 c-34 -7 -81 -59 -89 -99 -9 -48 12 -91 57 -121 38 -25 38
-26 24 -54 -20 -38 -19 -67 6 -114 56 -106 189 -196 292 -197 102 -1 167 57
167 149 0 57 -25 114 -84 197 -57 81 -103 121 -208 184 -85 52 -123 64 -165
55z"/>
<path d="M2332 5267 c-50 -28 -55 -48 -57 -231 -2 -188 -11 -233 -67 -312 -31
-44 -72 -72 -188 -131 -86 -44 -115 -77 -115 -133 0 -50 30 -91 81 -109 36
-13 44 -12 101 11 99 40 212 108 275 166 65 61 105 125 139 227 22 63 24 87
24 245 0 157 -2 178 -20 208 -38 63 -117 90 -173 59z"/>
<path d="M2996 5144 c-97 -30 -187 -156 -194 -271 -5 -76 9 -121 51 -160 62
-59 140 -67 251 -28 118 42 141 80 134 229 -3 68 -10 103 -28 139 -41 85 -122
120 -214 91z"/>
<path d="M4735 4777 c-44 -44 -50 -90 -36 -273 16 -211 57 -314 149 -378 113
-78 248 -68 341 26 92 93 112 221 54 339 -38 76 -111 153 -211 221 -100 67
-168 98 -220 98 -36 0 -50 -6 -77 -33z m275 -419 c0 -18 -27 11 -33 35 -6 22
-6 22 14 -2 10 -13 19 -28 19 -33z"/>
<path d="M2745 4186 c-132 -33 -208 -123 -208 -248 -1 -171 163 -292 352 -258
141 25 349 158 386 247 43 102 -4 185 -125 222 -163 50 -302 62 -405 37z"/>
<path d="M1068 4080 c-125 -35 -147 -191 -37 -272 14 -11 56 -23 95 -29 83
-12 184 -39 184 -49 0 -10 -61 -58 -111 -88 -44 -27 -233 -110 -319 -142 -114
-41 -154 -85 -152 -166 1 -82 65 -152 146 -161 53 -6 168 37 364 137 l132 68
6 -27 c20 -95 68 -134 159 -128 54 3 64 1 105 -28 135 -96 296 -77 376 44 75
115 19 270 -124 337 -64 30 -180 42 -250 26 -39 -9 -43 -8 -36 6 16 38 26 121
20 163 -15 102 -108 206 -223 249 -108 41 -288 72 -335 60z"/>
<path d="M4210 3782 c-84 -22 -147 -60 -201 -120 -137 -152 -92 -395 91 -490
60 -31 71 -34 135 -30 94 6 154 35 221 105 121 125 197 380 138 459 -34 46
-69 66 -141 80 -91 18 -164 16 -243 -4z m60 -302 c0 -11 -40 -50 -51 -50 -26
0 -16 30 16 48 25 14 35 15 35 2z"/>
<path d="M5128 3476 c-190 -78 -306 -224 -296 -371 8 -110 84 -220 184 -265
173 -78 431 106 435 311 3 104 -19 159 -102 258 -81 97 -120 109 -221 67z"/>
<path d="M3404 3361 c-48 -29 -91 -87 -146 -198 -56 -111 -57 -129 -12 -182
33 -39 76 -51 148 -39 67 10 101 25 139 64 41 41 65 84 82 150 24 92 6 156
-57 197 -50 32 -109 36 -154 8z"/>
<path d="M2376 3176 c-105 -45 -171 -130 -232 -302 -62 -175 -95 -215 -248
-308 -157 -94 -286 -218 -381 -364 -169 -263 -216 -497 -152 -771 52 -225 155
-379 332 -496 172 -115 292 -150 510 -149 159 0 272 21 400 74 351 147 597
525 646 995 19 186 -11 461 -73 655 -34 106 -54 147 -136 270 -30 47 -71 109
-90 138 -56 85 -172 186 -268 234 -75 37 -94 42 -167 45 -70 3 -91 0 -141 -21z
m207 -399 c19 -24 42 -59 50 -79 8 -19 45 -73 81 -119 100 -126 130 -227 141
-474 14 -288 -43 -520 -174 -713 -117 -171 -309 -259 -506 -231 -195 27 -351
122 -415 254 -89 182 -40 420 132 632 56 69 82 91 219 186 193 133 271 227
339 406 60 157 72 181 85 181 7 0 28 -19 48 -43z"/>
<path d="M651 2528 c-42 -23 -66 -65 -65 -114 1 -60 21 -85 133 -165 205 -147
314 -296 281 -383 -27 -73 -143 8 -210 149 -21 44 -47 104 -57 134 -21 63 -68
116 -111 126 -42 9 -97 -17 -122 -57 -33 -52 -22 -100 59 -263 120 -240 226
-333 392 -343 277 -16 396 243 239 516 -40 69 -154 189 -255 267 -169 132
-232 161 -284 133z"/>
<path d="M4266 2155 c-45 -16 -94 -60 -102 -92 -7 -27 -10 -27 -44 -8 -41 23
-127 19 -174 -9 -59 -35 -88 -91 -87 -171 0 -58 44 -303 71 -397 13 -46 52
-93 94 -115 17 -8 43 -30 58 -48 55 -65 150 -91 221 -62 75 32 126 98 153 202
21 77 48 551 35 597 -14 44 -67 93 -118 107 -48 14 -59 13 -107 -4z"/>
</g>
</svg>
