<?xml version="1.0" standalone="no"?>
<!DOCTYPE svg PUBLIC "-//W3C//DTD SVG 20010904//EN"
 "http://www.w3.org/TR/2001/REC-SVG-20010904/DTD/svg10.dtd">
<svg version="1.0" xmlns="http://www.w3.org/2000/svg"
 width="600.000000pt" height="600.000000pt" viewBox="0 0 600.000000 600.000000"
 preserveAspectRatio="xMidYMid meet">
<metadata>
Created by potrace 1.15, written by Peter Selinger 2001-2017
</metadata>
<g transform="translate(0.000000,600.000000) scale(0.100000,-0.100000)"
fill="#16364b" stroke="none">
<path d="M3138 5652 c-50 -23 -72 -55 -92 -133 -29 -119 -18 -248 32 -345 43
-84 167 -169 320 -218 28 -10 52 -21 52 -25 0 -4 -19 -18 -42 -31 -81 -44
-333 -213 -446 -297 -103 -78 -142 -120 -142 -156 0 -7 -11 -28 -25 -47 -29
-40 -34 -114 -10 -159 23 -45 89 -95 147 -114 29 -9 127 -23 218 -32 91 -9
206 -22 256 -30 90 -14 124 -12 173 15 60 32 80 138 39 200 -34 49 -79 67
-218 85 -69 9 -143 19 -165 23 l-40 7 85 56 c47 30 166 104 264 165 258 157
316 216 316 321 0 127 -108 217 -360 298 -156 51 -170 60 -170 108 0 21 7 67
17 101 20 75 13 123 -24 167 -49 58 -117 73 -185 41z"/>
<path d="M1385 5408 c-170 -61 -410 -380 -509 -678 -37 -109 -48 -278 -22
-328 57 -110 215 -122 284 -22 18 27 22 47 22 108 0 67 2 73 18 67 67 -29 90
-29 189 -2 118 33 203 51 209 45 2 -3 -12 -49 -32 -104 -84 -230 -94 -311 -58
-464 5 -23 -2 -30 -60 -67 -68 -44 -92 -76 -101 -139 -5 -29 0 -50 17 -83 30
-58 65 -83 127 -89 48 -4 56 -1 206 83 87 48 203 108 259 135 104 49 137 75
155 123 27 71 -7 156 -79 194 -55 29 -86 29 -162 -2 -35 -14 -69 -23 -77 -20
-25 10 -7 84 59 246 53 131 64 166 68 232 6 97 -13 150 -72 205 -57 53 -103
67 -211 66 -88 0 -168 -15 -292 -53 -35 -11 -63 -15 -63 -11 0 5 26 44 58 87
64 85 142 162 189 186 16 9 44 32 61 51 107 122 -25 291 -183 234z"/>
<path d="M4640 4499 c-141 -16 -250 -37 -283 -57 -83 -48 -93 -178 -18 -246
29 -27 93 -30 205 -11 54 9 100 14 103 11 7 -7 6 -8 -147 -189 -69 -81 -133
-162 -142 -180 -47 -84 5 -195 97 -213 52 -9 98 12 151 69 26 29 96 102 154
162 226 234 300 374 264 497 -40 133 -159 182 -384 157z"/>
<path d="M3860 3688 c-77 -52 -100 -130 -61 -207 25 -49 194 -236 278 -306 59
-51 68 -55 115 -55 61 0 99 21 127 70 42 75 22 145 -60 218 -45 40 -49 48 -49
87 0 86 -31 130 -125 177 -84 43 -176 50 -225 16z"/>
<path d="M2454 3670 c-141 -37 -289 -117 -319 -174 -37 -69 -2 -167 75 -206
62 -32 117 -26 207 20 87 44 200 77 227 67 16 -6 17 -14 11 -55 -18 -125 -121
-358 -252 -570 -116 -188 -116 -188 -111 -242 3 -29 15 -65 30 -87 14 -21 28
-51 32 -68 19 -78 100 -145 175 -145 19 0 89 25 165 60 130 59 237 100 262
100 20 0 -18 -96 -146 -364 -31 -65 -42 -102 -42 -136 0 -170 205 -251 330
-129 58 57 212 395 253 556 93 370 -109 550 -503 447 -35 -8 -71 -20 -81 -26
-10 -5 -21 -7 -23 -5 -3 3 26 67 64 143 128 257 162 358 162 486 0 165 -88
287 -240 332 -71 21 -188 19 -276 -4z"/>
<path d="M1110 3455 c-117 -33 -326 -178 -367 -255 -84 -156 92 -331 252 -250
21 11 40 19 41 17 1 -1 -20 -76 -47 -167 -103 -346 -139 -540 -139 -748 0
-154 36 -202 181 -241 97 -26 145 -20 198 24 52 45 176 207 251 330 135 221
172 279 243 379 65 92 71 98 84 80 16 -21 15 -34 -18 -304 -11 -91 -39 -255
-61 -365 -36 -175 -41 -218 -42 -341 -1 -140 -1 -141 29 -190 39 -62 85 -94
139 -94 106 0 176 120 131 226 -20 47 -14 84 55 364 80 325 93 410 94 620 1
175 -14 375 -33 439 -28 95 -114 159 -197 147 -65 -8 -100 -30 -188 -115 -107
-104 -186 -200 -301 -369 -53 -79 -99 -141 -101 -139 -5 5 67 286 100 393 65
205 74 325 30 412 -61 123 -200 184 -334 147z"/>
<path d="M4566 3390 c-63 -19 -108 -86 -108 -162 0 -83 28 -110 169 -162 117
-44 224 -97 231 -115 8 -22 -32 -89 -120 -197 -44 -54 -84 -109 -89 -122 -25
-65 3 -147 60 -177 79 -40 140 -7 267 145 117 141 149 195 163 275 9 49 8 73
-4 119 -22 83 -40 114 -111 183 -52 51 -87 74 -216 136 -162 80 -196 91 -242
77z"/>
<path d="M3669 3216 c-108 -29 -207 -118 -264 -238 -57 -118 -42 -200 46 -246
84 -44 188 -11 225 71 17 37 19 38 53 30 70 -16 172 -8 224 16 190 92 115 320
-121 370 -66 14 -104 13 -163 -3z"/>
<path d="M4611 2229 c-39 -12 -99 -48 -123 -75 -28 -32 -58 -107 -58 -146 0
-46 0 -46 -135 -18 -204 42 -348 36 -471 -20 -86 -39 -163 -116 -195 -195 -22
-56 -23 -74 -26 -305 -3 -294 -6 -333 -21 -338 -6 -2 -48 32 -94 76 -123 117
-255 219 -326 254 -179 85 -351 47 -453 -102 -33 -48 -49 -83 -91 -199 -5 -13
-10 -22 -13 -20 -2 3 -22 106 -45 229 -22 124 -50 253 -61 287 -69 209 -334
211 -378 1 -9 -40 -5 -76 34 -270 62 -309 119 -530 160 -616 61 -128 164 -210
314 -248 165 -42 296 56 278 208 -5 41 2 74 44 204 35 108 54 152 62 147 23
-13 172 -134 251 -202 43 -38 104 -82 135 -98 51 -25 65 -28 161 -28 93 0 112
3 162 27 75 35 143 99 164 154 11 28 27 50 43 59 43 22 82 67 110 125 25 53
26 62 26 242 l0 188 45 -1 c25 0 79 -7 120 -14 210 -41 353 -38 457 10 75 34
145 103 179 178 27 59 29 69 28 192 0 112 -3 137 -23 180 -52 116 -148 166
-260 134z"/>
</g>
</svg>
