<?xml version="1.0" standalone="no"?>
<!DOCTYPE svg PUBLIC "-//W3C//DTD SVG 20010904//EN"
 "http://www.w3.org/TR/2001/REC-SVG-20010904/DTD/svg10.dtd">
<svg version="1.0" xmlns="http://www.w3.org/2000/svg"
 width="600.000000pt" height="600.000000pt" viewBox="0 0 600.000000 600.000000"
 preserveAspectRatio="xMidYMid meet">
<metadata>
Created by potrace 1.15, written by Peter Selinger 2001-2017
</metadata>
<g transform="translate(0.000000,600.000000) scale(0.100000,-0.100000)"
fill="#16364b" stroke="none">
<path d="M2315 5437 c-33 -18 -48 -37 -82 -106 -82 -165 -80 -283 6 -372 85
-88 199 -99 432 -43 61 14 113 23 116 20 3 -3 -27 -47 -68 -98 -220 -277 -307
-422 -359 -594 -20 -66 -20 -74 -6 -115 9 -24 16 -59 16 -77 0 -72 55 -146
118 -158 21 -4 78 3 150 19 201 45 471 87 610 95 108 7 137 12 159 28 48 36
67 70 67 123 0 59 -37 115 -90 137 -64 27 -264 14 -569 -35 -65 -11 -122 -18
-125 -15 -14 15 97 197 319 517 49 71 96 151 105 179 52 161 -34 297 -204 323
-55 8 -136 -5 -287 -47 -62 -17 -115 -29 -117 -27 -3 2 4 30 15 62 29 87 6
157 -65 191 -47 22 -93 20 -141 -7z"/>
<path d="M1702 4984 c-163 -36 -323 -121 -488 -261 -124 -105 -140 -189 -59
-297 45 -58 71 -71 170 -85 283 -41 392 -77 475 -159 84 -84 137 -99 216 -63
43 20 80 68 90 118 25 124 -157 283 -390 343 -44 11 -88 20 -98 20 -36 0 -16
18 60 54 44 20 107 41 140 47 133 24 207 132 157 229 -34 65 -133 85 -273 54z"/>
<path d="M3974 4916 c-110 -25 -280 -122 -315 -179 -37 -61 -16 -152 44 -192
67 -44 125 -39 224 20 65 37 166 70 190 61 13 -5 15 -18 11 -74 -6 -77 -32
-155 -112 -334 -31 -70 -56 -141 -56 -158 0 -47 25 -91 70 -123 22 -16 40 -35
40 -42 0 -25 61 -84 98 -96 30 -9 71 -6 212 15 237 36 344 43 366 25 35 -29
-4 -257 -81 -478 -34 -96 -36 -108 -25 -145 21 -70 68 -106 140 -106 86 0 116
31 171 176 107 286 144 512 103 647 -24 82 -103 165 -184 193 -74 26 -308 26
-463 0 -60 -10 -110 -16 -113 -14 -2 2 15 49 37 103 73 183 83 227 84 360 0
111 -2 124 -27 171 -77 147 -233 211 -414 170z"/>
<path d="M2070 3924 c-104 -35 -306 -80 -424 -94 -55 -6 -109 -15 -120 -20
-49 -19 -96 -89 -96 -143 0 -40 43 -108 80 -128 23 -13 55 -19 95 -19 153 0
572 88 660 138 33 19 75 92 75 132 0 36 -40 110 -72 133 -41 30 -111 30 -198
1z"/>
<path d="M3730 3734 c-30 -8 -116 -50 -190 -93 -74 -43 -180 -104 -235 -136
-120 -69 -152 -97 -167 -146 -32 -110 69 -218 177 -188 39 11 159 76 298 161
54 33 101 57 104 54 13 -13 -48 -175 -123 -327 -65 -132 -75 -160 -70 -193 3
-31 0 -44 -19 -64 -56 -60 -50 -164 12 -223 32 -32 38 -34 101 -33 86 1 208
42 398 134 206 99 328 187 380 276 58 99 6 208 -108 229 -55 10 -99 -9 -165
-73 -57 -56 -243 -165 -243 -143 0 6 22 54 49 108 84 168 121 342 101 471 -13
79 -28 110 -74 150 -59 52 -126 63 -226 36z"/>
<path d="M2205 3316 c-140 -22 -153 -26 -183 -54 -64 -60 -64 -154 -2 -225 48
-56 87 -61 226 -32 141 29 251 33 261 9 3 -9 -7 -52 -22 -97 -31 -93 -30 -148
4 -196 30 -42 76 -64 132 -65 68 0 112 32 149 108 126 265 43 486 -206 550
-74 19 -242 20 -359 2z"/>
<path d="M1189 3077 c-64 -18 -104 -50 -129 -103 -46 -93 -1 -216 96 -263 l49
-25 1 -335 c0 -358 7 -431 53 -553 28 -74 51 -101 106 -127 121 -57 269 6 307
130 12 42 7 64 -37 170 -6 15 1 16 57 12 59 -5 66 -3 96 22 18 15 49 60 69 99
72 143 203 277 203 208 0 -10 7 -27 15 -40 14 -19 14 -30 1 -100 -8 -44 -22
-162 -31 -263 -9 -101 -18 -192 -21 -202 -12 -38 7 -107 38 -142 54 -62 145
-67 206 -11 48 43 46 34 102 431 11 77 25 171 32 208 10 55 10 74 -1 100 -7
18 -17 55 -21 83 -9 60 -48 145 -88 194 -144 174 -481 61 -653 -219 -24 -39
-48 -71 -53 -71 -4 0 -5 102 -1 228 8 247 2 309 -38 396 -66 143 -212 214
-358 173z"/>
<path d="M4890 3041 c-121 -37 -174 -118 -168 -260 l3 -85 -100 -58 c-224
-130 -303 -200 -362 -323 -84 -176 -82 -359 6 -540 39 -82 123 -203 148 -212
20 -8 15 -23 -8 -23 -29 0 -81 -33 -109 -69 -37 -49 -71 -55 -232 -41 -81 8
-187 10 -252 7 -272 -16 -427 -99 -596 -321 -49 -65 -82 -98 -108 -110 -21
-10 -62 -42 -92 -71 -99 -101 -194 -121 -307 -68 -104 49 -182 136 -330 364
-37 57 -92 82 -168 77 -53 -3 -71 -9 -102 -35 -59 -47 -78 -87 -78 -163 0 -59
5 -73 47 -151 59 -107 117 -185 197 -267 168 -171 336 -245 551 -244 169 0
291 51 415 172 33 32 69 61 80 64 31 10 54 34 127 128 83 106 154 169 234 209
60 30 157 50 205 43 141 -21 313 -35 359 -30 164 19 337 128 379 239 25 65 5
156 -45 208 l-25 26 39 11 c60 18 114 63 147 123 24 45 29 66 29 124 1 75 -12
108 -67 179 -23 29 -32 52 -35 92 -8 100 14 124 207 225 252 131 344 289 313
535 -7 52 -21 112 -32 133 -47 93 -168 143 -270 112z"/>
<path d="M3275 2305 c-272 -44 -579 -118 -622 -151 -65 -50 -92 -150 -59 -227
26 -62 111 -117 183 -117 13 0 96 15 185 34 211 45 439 84 507 88 l54 3 15
-54 c26 -91 107 -150 193 -138 96 13 161 79 180 181 27 151 -41 280 -187 353
-75 37 -76 37 -217 40 -88 1 -176 -3 -232 -12z"/>
</g>
</svg>
