<?xml version="1.0" standalone="no"?>
<!DOCTYPE svg PUBLIC "-//W3C//DTD SVG 20010904//EN"
 "http://www.w3.org/TR/2001/REC-SVG-20010904/DTD/svg10.dtd">
<svg version="1.0" xmlns="http://www.w3.org/2000/svg"
 width="600.000000pt" height="600.000000pt" viewBox="0 0 600.000000 600.000000"
 preserveAspectRatio="xMidYMid meet">
<metadata>
Created by potrace 1.15, written by Peter Selinger 2001-2017
</metadata>
<g transform="translate(0.000000,600.000000) scale(0.100000,-0.100000)"
fill="#16364b" stroke="none">
<path d="M1763 5800 c-47 -28 -56 -48 -112 -235 -28 -94 -74 -229 -103 -300
-47 -118 -52 -137 -52 -211 -1 -73 2 -84 26 -116 50 -65 133 -90 219 -64 111
32 174 80 370 277 217 219 241 250 241 311 0 56 -13 86 -52 123 -29 28 -37 30
-102 30 l-71 0 -98 -105 c-55 -58 -99 -102 -99 -97 0 4 18 56 40 116 45 123
49 169 19 218 -42 68 -157 95 -226 53z"/>
<path d="M2993 5691 c-66 -41 -87 -112 -55 -184 17 -38 35 -55 113 -107 167
-112 292 -212 405 -324 114 -114 169 -199 162 -248 -3 -20 -10 -24 -63 -28
-71 -6 -120 -36 -141 -86 -31 -74 -5 -147 66 -186 28 -16 50 -19 115 -16 131
7 225 60 280 160 27 48 30 61 30 145 -1 89 -3 95 -47 185 -27 54 -82 137 -130
198 -151 189 -291 314 -497 444 -82 51 -104 61 -151 64 -42 2 -62 -2 -87 -17z"/>
<path d="M922 5430 c-70 -11 -150 -51 -211 -106 -102 -92 -158 -266 -134 -411
30 -171 167 -333 283 -333 154 0 211 209 81 295 -35 23 -71 83 -71 119 0 45
30 105 64 125 18 11 58 21 98 24 39 3 79 12 93 21 36 24 65 75 65 115 0 44
-36 107 -75 131 -37 23 -120 32 -193 20z"/>
<path d="M2947 5166 c-134 -48 -232 -225 -197 -355 17 -64 54 -106 118 -138
49 -24 68 -28 142 -27 133 1 210 35 249 111 16 32 14 191 -5 252 -18 62 -73
127 -129 152 -47 22 -125 24 -178 5z"/>
<path d="M4797 4866 c-22 -8 -50 -25 -64 -38 -46 -42 -53 -69 -53 -193 0 -255
68 -410 212 -487 64 -34 194 -33 262 2 92 47 156 151 156 251 0 120 -107 281
-250 379 -130 88 -197 110 -263 86z"/>
<path d="M2032 4860 c-165 -35 -251 -137 -204 -243 35 -78 115 -110 205 -81
30 9 62 14 70 11 9 -3 17 -25 21 -59 12 -93 17 -106 54 -148 27 -30 49 -44 81
-51 87 -19 170 52 171 148 0 48 -26 171 -49 234 -26 68 -88 142 -143 170 -45
23 -144 32 -206 19z"/>
<path d="M2837 4066 c-59 -16 -92 -40 -134 -95 -27 -35 -33 -51 -33 -94 0
-130 113 -230 296 -262 155 -28 578 -14 630 20 65 42 84 144 41 220 -38 67
-224 151 -437 196 -125 26 -299 34 -363 15z"/>
<path d="M1073 4050 c-68 -10 -111 -36 -148 -89 -26 -37 -30 -51 -30 -109 0
-116 64 -183 180 -190 l64 -4 -90 -109 c-117 -143 -238 -311 -306 -427 -77
-131 -181 -350 -188 -398 -13 -77 29 -165 96 -199 61 -32 180 -4 215 51 9 13
66 60 127 106 228 168 613 441 629 446 44 11 49 -153 9 -295 -63 -220 -186
-433 -496 -854 -25 -34 -30 -50 -30 -99 1 -47 6 -64 28 -94 16 -20 41 -43 57
-51 37 -19 103 -19 139 -1 53 28 234 256 347 438 121 196 257 502 288 653 10
44 24 101 32 126 21 69 19 333 -3 413 -32 116 -125 175 -255 163 -70 -6 -174
-53 -301 -136 -42 -28 -77 -48 -77 -46 0 3 41 56 91 117 49 62 106 144 125
183 66 134 54 246 -34 332 -63 61 -115 76 -277 79 -77 1 -163 -1 -192 -6z"/>
<path d="M4241 3780 c-120 -26 -240 -115 -291 -216 -36 -73 -40 -166 -8 -236
67 -144 238 -212 398 -158 149 50 253 175 311 373 19 66 20 83 10 116 -16 54
-67 96 -133 111 -73 15 -234 21 -287 10z m49 -300 c0 -14 -48 -43 -60 -35 -14
8 -3 24 24 35 28 12 36 12 36 0z"/>
<path d="M3372 3409 c-52 -26 -98 -80 -150 -179 -74 -139 -75 -187 -9 -257 41
-44 84 -56 193 -57 88 -1 94 0 130 29 24 19 52 57 73 98 31 61 34 76 35 155 0
95 -10 126 -61 174 -61 59 -139 72 -211 37z"/>
<path d="M5022 3160 c-32 -13 -109 -66 -164 -114 -145 -126 -203 -300 -140
-423 93 -180 389 -162 519 31 44 64 57 115 57 211 0 96 -21 150 -89 230 -60
69 -119 90 -183 65z"/>
<path d="M3897 2636 c-67 -25 -111 -61 -142 -117 -44 -80 -41 -148 13 -308 23
-67 42 -124 42 -126 0 -2 -22 5 -49 15 -155 60 -280 21 -343 -107 -30 -62 -31
-66 -25 -161 7 -113 47 -337 78 -437 25 -83 85 -229 107 -262 24 -38 96 -82
153 -94 172 -37 326 115 280 277 l-9 31 80 -5 c75 -4 82 -3 153 32 79 39 129
89 160 161 50 112 -2 401 -140 779 -46 126 -92 241 -103 255 -47 64 -174 97
-255 67z"/>
<path d="M1994 2269 c-29 -11 -78 -43 -113 -75 -66 -61 -170 -208 -198 -283
-9 -25 -32 -64 -50 -86 -67 -78 -166 -309 -199 -461 -23 -108 -24 -324 -1
-418 41 -163 99 -268 212 -380 128 -127 275 -224 395 -260 181 -54 508 -6 689
101 77 46 186 145 238 216 20 29 46 58 56 66 30 21 114 156 167 266 57 119 75
171 141 409 63 225 73 330 40 417 -41 107 -131 169 -274 189 -164 23 -319 -20
-545 -151 -40 -23 -74 -40 -76 -38 -1 2 -13 45 -25 94 -81 318 -258 471 -457
394z m116 -662 c11 -76 27 -151 35 -167 19 -37 77 -84 143 -117 82 -40 125
-32 269 54 65 39 154 89 198 111 92 46 233 98 241 89 10 -9 -132 -391 -187
-505 -28 -57 -65 -119 -82 -136 -18 -18 -53 -59 -78 -92 -89 -115 -231 -170
-417 -162 -90 4 -103 7 -172 43 -103 54 -211 162 -234 233 -58 173 -26 379 94
610 27 53 50 102 50 108 0 7 11 25 24 41 13 15 34 48 46 73 l24 45 13 -45 c7
-25 22 -107 33 -183z"/>
</g>
</svg>
