<?xml version="1.0" standalone="no"?>
<!DOCTYPE svg PUBLIC "-//W3C//DTD SVG 20010904//EN"
 "http://www.w3.org/TR/2001/REC-SVG-20010904/DTD/svg10.dtd">
<svg version="1.0" xmlns="http://www.w3.org/2000/svg"
 width="600.000000pt" height="600.000000pt" viewBox="0 0 600.000000 600.000000"
 preserveAspectRatio="xMidYMid meet">
<metadata>
Created by potrace 1.15, written by Peter Selinger 2001-2017
</metadata>
<g transform="translate(0.000000,600.000000) scale(0.100000,-0.100000)"
fill="#16364b" stroke="none">
<path d="M1327 5700 c-130 -43 -253 -88 -272 -100 -71 -44 -68 -136 5 -172 31
-16 68 -18 305 -18 155 0 286 5 307 10 45 13 68 43 68 88 0 56 -46 90 -114 82
-15 -1 -11 6 17 33 39 36 45 59 25 102 -13 28 -56 56 -85 54 -10 0 -125 -36
-256 -79z"/>
<path d="M2361 5406 c-20 -21 -23 -39 -31 -177 -25 -438 -85 -585 -275 -681
-22 -11 -50 -30 -62 -41 -46 -42 -19 -136 44 -152 43 -10 183 64 261 139 79
75 125 153 157 262 30 105 55 325 55 492 0 116 -2 132 -21 156 -28 36 -95 37
-128 2z"/>
<path d="M3519 5294 c-27 -31 -39 -61 -39 -94 0 -75 119 -234 210 -280 111
-57 203 11 171 128 -23 89 -105 199 -174 233 -22 12 -66 23 -96 26 -46 4 -59
2 -72 -13z"/>
<path d="M2975 5106 c-82 -36 -155 -156 -155 -256 0 -83 25 -131 85 -160 64
-31 126 -21 208 34 75 50 107 105 114 200 5 54 2 70 -18 106 -44 78 -150 113
-234 76z m75 -190 c0 -19 -37 -63 -45 -54 -8 8 25 68 37 68 4 0 8 -6 8 -14z"/>
<path d="M4769 4755 c-47 -25 -53 -59 -46 -253 6 -191 20 -267 63 -340 63
-107 207 -135 294 -56 55 50 74 112 68 224 -7 124 -43 194 -156 309 -124 127
-165 148 -223 116z"/>
<path d="M2628 4210 c-62 -33 -83 -74 -83 -155 1 -78 22 -130 72 -177 101 -96
304 -91 459 10 89 59 109 84 109 142 0 57 -24 96 -76 122 -130 65 -407 99
-481 58z"/>
<path d="M1135 4153 c-54 -13 -95 -90 -76 -143 8 -26 7 -31 -10 -41 -28 -14
-59 -68 -59 -102 0 -96 149 -196 293 -197 137 0 218 67 219 184 0 73 -26 128
-88 185 -74 68 -222 128 -279 114z"/>
<path d="M5220 3846 c-151 -42 -239 -148 -248 -298 -13 -219 149 -385 341
-349 159 29 279 146 306 298 24 132 -32 243 -167 333 -40 27 -54 30 -116 29
-39 0 -91 -6 -116 -13z m109 -295 c11 -7 9 -14 -13 -36 -29 -29 -46 -26 -46
10 0 31 30 44 59 26z"/>
<path d="M4222 3759 c-118 -16 -233 -107 -268 -212 -49 -145 4 -280 134 -344
50 -25 68 -28 147 -27 210 1 333 118 343 325 5 104 -7 147 -54 188 -58 51
-199 84 -302 70z m68 -267 c0 -13 -24 -39 -42 -45 -28 -10 -33 14 -8 35 23 19
50 24 50 10z"/>
<path d="M3415 3347 c-45 -48 -145 -258 -145 -307 0 -15 11 -39 26 -55 22 -24
31 -27 70 -22 25 2 58 15 77 30 73 56 136 185 137 280 0 52 -4 62 -29 88 -44
44 -84 40 -136 -14z"/>
<path d="M1585 3173 c-266 -16 -446 -84 -580 -217 -111 -111 -165 -241 -165
-395 0 -143 43 -244 147 -342 74 -71 133 -101 273 -139 61 -17 130 -40 153
-51 97 -49 176 -171 252 -389 91 -262 193 -392 380 -485 116 -57 181 -70 340
-69 81 1 178 9 230 18 50 9 187 21 305 26 315 15 755 67 928 111 231 58 449
185 618 361 119 124 190 246 238 412 65 222 61 365 -15 506 -65 122 -239 277
-394 351 -183 88 -336 72 -556 -58 -93 -55 -189 -96 -264 -113 -28 -7 -133
-14 -235 -16 -162 -4 -195 -2 -265 16 -108 27 -231 90 -405 206 -173 115 -271
164 -408 204 -159 46 -412 73 -577 63z m379 -427 c158 -42 231 -76 406 -186
259 -162 429 -232 635 -260 50 -6 109 -19 132 -27 38 -14 53 -14 156 1 143 21
358 74 462 114 44 18 124 57 178 87 54 31 113 59 132 62 51 8 146 -42 228
-119 82 -79 90 -112 58 -239 -44 -172 -99 -257 -238 -362 -209 -158 -370 -230
-583 -262 -85 -13 -409 -31 -690 -40 -58 -2 -151 -12 -207 -24 -67 -14 -138
-21 -212 -21 -231 0 -284 50 -432 410 -58 141 -84 191 -146 272 -99 130 -238
225 -414 282 -60 20 -122 42 -139 51 -62 32 -79 121 -34 175 37 43 91 68 197
90 136 28 141 29 282 25 101 -2 152 -9 229 -29z"/>
<path d="M415 2105 c-18 -17 -25 -35 -25 -64 0 -22 5 -43 11 -46 6 -4 26 -40
45 -81 94 -197 236 -314 366 -302 131 13 154 157 44 276 -22 24 -90 77 -151
117 -198 131 -244 147 -290 100z"/>
<path d="M5055 1411 c-11 -5 -29 -18 -39 -30 -11 -11 -28 -21 -39 -21 -33 0
-82 -29 -100 -59 -55 -93 31 -304 134 -331 72 -20 131 14 164 93 22 53 39 230
25 271 -20 63 -91 100 -145 77z"/>
</g>
</svg>
