<?xml version="1.0" standalone="no"?>
<!DOCTYPE svg PUBLIC "-//W3C//DTD SVG 20010904//EN"
 "http://www.w3.org/TR/2001/REC-SVG-20010904/DTD/svg10.dtd">
<svg version="1.0" xmlns="http://www.w3.org/2000/svg"
 width="600.000000pt" height="600.000000pt" viewBox="0 0 600.000000 600.000000"
 preserveAspectRatio="xMidYMid meet">
<metadata>
Created by potrace 1.15, written by Peter Selinger 2001-2017
</metadata>
<g transform="translate(0.000000,600.000000) scale(0.100000,-0.100000)"
fill="#16364b" stroke="none">
<path d="M2378 5400 l-26 -19 -5 -238 c-4 -199 -8 -251 -26 -316 -43 -163
-116 -254 -260 -326 -89 -45 -107 -72 -80 -120 22 -40 65 -39 151 4 216 108
303 245 343 535 15 105 21 424 9 455 -6 15 -53 45 -72 45 -5 0 -21 -9 -34 -20z"/>
<path d="M3528 5278 c-26 -22 -48 -61 -48 -88 0 -37 43 -122 85 -168 88 -98
191 -130 252 -78 24 21 28 32 28 78 0 43 -6 63 -33 105 -39 61 -99 121 -144
146 -38 20 -117 23 -140 5z"/>
<path d="M3019 5105 c-59 -19 -128 -79 -157 -139 -87 -174 36 -324 191 -233
113 67 184 221 140 306 -35 67 -96 90 -174 66z m51 -132 c0 -20 -44 -90 -66
-106 -30 -22 -39 -17 -30 17 10 42 96 121 96 89z"/>
<path d="M4743 4724 l-26 -26 6 -147 c11 -246 44 -412 93 -471 78 -93 181 -70
235 52 33 76 34 215 0 312 -25 73 -146 264 -184 291 -35 24 -94 19 -124 -11z"/>
<path d="M2627 4209 c-48 -25 -82 -93 -73 -144 14 -73 97 -153 189 -180 76
-23 221 -21 288 4 109 41 158 110 129 180 -19 48 -50 68 -150 100 -215 68
-311 78 -383 40z"/>
<path d="M5238 3975 c-95 -36 -185 -127 -209 -212 -43 -155 63 -359 213 -409
158 -52 354 36 425 194 70 151 21 285 -141 390 -70 46 -73 47 -161 49 -59 2
-103 -2 -127 -12z m147 -296 c14 -13 -30 -53 -49 -46 -20 8 -30 32 -22 52 6
16 51 12 71 -6z"/>
<path d="M4196 3754 c-60 -19 -89 -37 -139 -83 -63 -58 -88 -121 -89 -219 0
-109 50 -196 143 -247 48 -26 64 -30 139 -30 77 0 92 3 152 33 72 35 114 77
150 152 19 38 23 62 23 150 0 141 -21 187 -102 227 -70 34 -199 42 -277 17z
m124 -252 c0 -18 -33 -52 -51 -52 -24 0 -24 15 1 40 20 20 50 27 50 12z"/>
<path d="M1086 3420 c-115 -21 -236 -108 -286 -207 -22 -42 -25 -61 -25 -149
0 -95 2 -104 37 -175 74 -149 204 -235 407 -269 61 -11 130 -28 154 -38 79
-35 162 -138 205 -255 12 -32 51 -176 87 -321 75 -308 117 -430 182 -538 128
-212 300 -316 560 -338 365 -31 1404 -40 1622 -14 152 17 397 66 483 95 160
54 383 178 475 263 171 159 293 533 253 776 -17 107 -65 252 -113 345 -49 94
-169 220 -259 274 -213 124 -449 145 -698 61 -122 -41 -197 -84 -455 -260
-121 -82 -196 -116 -301 -136 -146 -27 -240 -9 -434 83 -151 71 -230 121 -402
255 -181 140 -269 198 -439 287 -205 107 -339 151 -685 225 -178 38 -294 49
-368 36z m184 -360 c90 -15 278 -63 380 -98 194 -67 365 -158 643 -339 442
-289 582 -368 750 -425 156 -53 344 -50 545 8 110 32 200 77 329 167 199 138
261 174 361 207 83 29 111 33 197 34 92 0 106 -2 168 -32 206 -96 310 -342
247 -586 -44 -173 -116 -259 -296 -353 -186 -96 -346 -145 -581 -177 -87 -12
-228 -16 -630 -18 -286 -1 -525 2 -533 7 -8 5 -109 12 -225 16 -178 6 -220 10
-275 29 -84 28 -121 51 -168 105 -88 100 -137 243 -246 723 -62 274 -173 440
-374 558 -88 51 -167 78 -274 93 -84 12 -124 25 -150 48 -23 20 -23 30 0 36
30 8 65 7 132 -3z"/>
<path d="M2195 2308 c-27 -15 -35 -28 -35 -60 0 -20 8 -31 30 -43 39 -20 53
-19 78 8 32 34 30 85 -4 97 -32 13 -44 12 -69 -2z"/>
<path d="M2870 2060 c-26 -26 -25 -51 1 -84 20 -25 53 -33 75 -18 15 10 34 47
34 66 0 24 -37 56 -65 56 -14 0 -34 -9 -45 -20z"/>
<path d="M3458 3364 c-51 -27 -186 -290 -174 -338 8 -32 57 -59 91 -50 61 15
171 172 195 277 21 96 -36 153 -112 111z"/>
<path d="M456 2035 c-35 -36 -29 -70 23 -129 98 -111 158 -163 200 -173 96
-25 152 48 106 137 -27 53 -232 180 -289 180 -14 0 -31 -7 -40 -15z"/>
<path d="M5322 1115 c-61 -27 -99 -171 -62 -240 30 -55 115 -73 165 -33 38 30
55 76 55 153 0 79 -11 102 -55 121 -42 17 -61 17 -103 -1z"/>
</g>
</svg>
