<?xml version="1.0" standalone="no"?>
<!DOCTYPE svg PUBLIC "-//W3C//DTD SVG 20010904//EN"
 "http://www.w3.org/TR/2001/REC-SVG-20010904/DTD/svg10.dtd">
<svg version="1.0" xmlns="http://www.w3.org/2000/svg"
 width="600.000000pt" height="600.000000pt" viewBox="0 0 600.000000 600.000000"
 preserveAspectRatio="xMidYMid meet">
<metadata>
Created by potrace 1.15, written by Peter Selinger 2001-2017
</metadata>
<g transform="translate(0.000000,600.000000) scale(0.100000,-0.100000)"
fill="#16364b" stroke="none">
<path d="M3100 5619 c-47 -29 -54 -39 -111 -156 -62 -126 -85 -226 -69 -295
30 -122 142 -200 329 -228 36 -6 81 -13 100 -16 l34 -5 -87 -52 c-172 -103
-506 -366 -553 -436 -27 -40 -31 -107 -8 -150 17 -35 88 -87 171 -129 34 -17
165 -63 290 -101 126 -38 283 -88 348 -111 127 -45 172 -48 222 -15 58 38 81
124 49 184 -31 60 -66 77 -370 176 -162 53 -295 100 -295 105 0 21 240 183
450 305 160 92 193 117 219 159 83 135 -26 281 -256 340 -32 9 -121 22 -198
31 -76 8 -143 19 -147 23 -11 11 12 73 57 155 32 57 37 75 33 111 -12 103
-121 158 -208 105z"/>
<path d="M1499 5401 c-75 -24 -238 -162 -340 -289 -119 -148 -181 -264 -246
-462 -71 -212 -65 -285 27 -347 45 -31 111 -30 197 3 147 55 425 125 440 111
7 -7 -34 -93 -113 -233 -122 -218 -146 -276 -155 -372 -9 -97 0 -133 44 -180
41 -42 97 -58 152 -42 50 15 292 135 399 198 116 68 162 116 171 174 6 39 3
56 -16 95 -34 66 -67 88 -137 88 -48 0 -64 -6 -105 -34 -27 -18 -50 -31 -53
-29 -2 3 20 56 50 119 93 192 108 293 59 390 -47 92 -151 139 -306 139 -77 0
-237 -23 -282 -40 -15 -6 -30 -9 -32 -6 -7 7 57 128 103 192 50 71 182 197
233 224 93 47 124 135 81 225 -30 62 -107 96 -171 76z"/>
<path d="M4565 4461 c-107 -29 -305 -107 -332 -133 -71 -66 -70 -180 2 -236
43 -34 95 -29 241 27 71 27 130 45 132 41 3 -9 -201 -351 -289 -484 -73 -110
-87 -151 -70 -205 11 -39 39 -68 97 -104 16 -9 43 -27 60 -40 18 -13 78 -36
135 -51 130 -35 341 -105 353 -117 6 -5 -44 -89 -127 -213 -177 -265 -190
-289 -184 -345 14 -124 156 -172 247 -83 21 20 91 122 156 227 211 340 239
408 209 512 -33 111 -137 174 -413 249 -94 26 -170 50 -168 53 49 81 235 414
274 492 92 182 94 282 7 365 -68 66 -187 82 -330 45z"/>
<path d="M3818 3668 c-75 -20 -129 -111 -114 -192 13 -71 99 -156 158 -156 34
0 72 -45 63 -75 -4 -11 -9 -34 -12 -51 l-5 -31 -91 -5 c-79 -4 -103 -10 -170
-41 -93 -43 -188 -133 -230 -217 -33 -65 -33 -90 -6 -147 26 -54 78 -83 146
-83 63 0 103 25 146 93 42 65 83 88 135 76 148 -34 262 29 262 147 0 37 3 43
30 54 108 45 142 220 71 364 -36 73 -153 199 -221 238 -54 31 -112 40 -162 26z"/>
<path d="M2432 3614 c-107 -28 -285 -130 -326 -187 -31 -42 -29 -131 3 -176
25 -35 90 -70 129 -71 13 0 65 22 116 50 104 56 194 90 239 90 l30 0 -6 -72
c-11 -142 -100 -359 -232 -563 -90 -139 -101 -179 -65 -242 19 -35 56 -64 145
-115 56 -32 132 -23 324 37 96 30 181 55 188 55 10 0 11 -8 7 -27 -11 -46 -63
-172 -111 -271 -54 -111 -62 -156 -39 -217 44 -115 168 -149 267 -72 34 26 56
59 110 167 189 374 225 566 129 699 -34 46 -105 96 -160 111 -56 16 -188 11
-280 -10 -47 -11 -88 -20 -92 -20 -4 0 13 47 37 105 24 57 53 136 65 174 101
341 -36 573 -339 570 -47 0 -110 -7 -139 -15z"/>
<path d="M1086 3374 c-110 -35 -316 -191 -355 -270 -23 -44 -27 -107 -10 -151
37 -99 177 -152 273 -104 l38 20 -7 -47 c-3 -26 -22 -126 -40 -222 -87 -451
-103 -703 -47 -780 28 -39 95 -68 176 -75 125 -12 108 -28 404 377 29 40 89
132 134 203 96 154 166 255 177 255 20 0 33 -61 27 -122 -26 -250 -38 -320
-92 -543 -63 -257 -65 -398 -7 -514 38 -75 92 -113 162 -113 127 0 202 120
134 218 -26 39 -26 40 -16 134 6 52 27 161 47 242 71 293 100 588 82 838 -10
139 -30 209 -73 260 -45 53 -84 72 -144 72 -74 -1 -132 -33 -226 -124 -110
-107 -186 -201 -296 -368 -105 -159 -103 -171 -25 180 76 341 76 458 -1 551
-68 82 -204 118 -315 83z"/>
<path d="M4708 2221 c-81 -26 -143 -95 -157 -174 -7 -41 -7 -42 -46 -40 -354
16 -360 16 -445 -1 -167 -34 -298 -111 -360 -211 -34 -55 -68 -168 -81 -272
-7 -54 -13 -100 -15 -101 -1 -2 -32 21 -69 51 -197 162 -403 178 -553 43 -48
-44 -135 -169 -225 -325 -75 -129 -70 -133 -86 51 -25 268 -130 486 -249 518
-158 42 -297 -131 -221 -275 42 -80 60 -153 90 -362 45 -316 88 -448 176 -538
55 -56 98 -79 178 -95 158 -33 276 37 292 171 12 106 256 549 302 549 4 0 46
-39 92 -86 146 -150 172 -173 233 -206 58 -31 66 -33 166 -33 94 0 111 3 161
28 79 38 141 104 168 175 29 82 40 144 52 311 5 79 12 148 15 153 8 13 113 9
205 -7 235 -41 356 -38 454 10 94 45 171 144 201 259 17 62 18 205 3 257 -16
51 -62 105 -111 130 -46 23 -129 33 -170 20z"/>
</g>
</svg>
