<?xml version="1.0" standalone="no"?>
<!DOCTYPE svg PUBLIC "-//W3C//DTD SVG 20010904//EN"
 "http://www.w3.org/TR/2001/REC-SVG-20010904/DTD/svg10.dtd">
<svg version="1.0" xmlns="http://www.w3.org/2000/svg"
 width="600.000000pt" height="600.000000pt" viewBox="0 0 600.000000 600.000000"
 preserveAspectRatio="xMidYMid meet">
<metadata>
Created by potrace 1.15, written by Peter Selinger 2001-2017
</metadata>
<g transform="translate(0.000000,600.000000) scale(0.100000,-0.100000)"
fill="#16364b" stroke="none">
<path d="M2389 5425 c-36 -19 -49 -62 -49 -156 0 -97 -25 -297 -51 -409 -39
-166 -91 -242 -220 -317 -99 -57 -124 -109 -79 -166 34 -43 63 -43 154 1 93
45 140 80 196 148 92 110 134 240 164 506 16 138 21 333 10 363 -8 19 -55 45
-81 45 -10 -1 -30 -7 -44 -15z"/>
<path d="M3527 5299 c-24 -14 -47 -62 -47 -99 0 -43 57 -154 108 -212 108
-119 238 -139 278 -42 20 48 12 90 -32 175 -42 79 -102 145 -158 170 -45 20
-121 24 -149 8z"/>
<path d="M3012 5130 c-97 -23 -192 -165 -192 -286 0 -175 173 -224 324 -91 75
66 101 240 48 313 -42 56 -112 81 -180 64z m33 -213 c-4 -14 -15 -33 -26 -43
-18 -16 -19 -16 -19 3 0 20 38 78 47 70 2 -3 1 -16 -2 -30z"/>
<path d="M4735 4737 c-30 -30 -34 -41 -40 -111 -13 -141 22 -361 73 -463 44
-85 134 -135 213 -118 43 10 103 73 123 130 50 147 -5 321 -156 497 -93 107
-152 126 -213 65z"/>
<path d="M2645 4208 c-79 -28 -125 -93 -125 -174 0 -61 33 -119 94 -162 68
-49 120 -65 216 -65 100 0 168 22 263 87 101 68 122 147 59 217 -43 47 -275
110 -405 108 -40 0 -85 -5 -102 -11z"/>
<path d="M1091 4102 c-26 -25 -31 -38 -31 -78 0 -37 -5 -52 -25 -70 -54 -49
-45 -120 23 -192 106 -111 240 -132 354 -55 42 28 88 110 88 157 0 44 -36 110
-82 152 -54 48 -176 104 -244 111 -49 5 -55 4 -83 -25z"/>
<path d="M5220 3856 c-69 -18 -131 -57 -167 -104 -124 -163 -54 -431 135 -514
61 -28 168 -22 235 12 123 62 209 215 193 344 -13 97 -107 213 -213 261 -39
18 -121 18 -183 1z m110 -316 c0 -26 -39 -48 -51 -29 -19 30 -10 49 21 49 23
0 30 -4 30 -20z"/>
<path d="M4227 3766 c-105 -31 -201 -117 -237 -213 -42 -113 -20 -235 58 -316
128 -133 328 -108 448 55 64 88 87 156 87 259 -1 95 -15 135 -60 167 -71 49
-212 72 -296 48z m83 -290 c0 -14 -36 -46 -52 -46 -14 0 -9 28 8 44 19 20 44
21 44 2z"/>
<path d="M3455 3360 c-27 -10 -85 -75 -128 -143 -88 -137 -98 -188 -46 -231
54 -45 119 -32 199 40 77 70 140 207 125 274 -13 57 -86 87 -150 60z"/>
<path d="M1725 3173 c-197 -8 -451 -49 -555 -90 -179 -71 -306 -207 -340 -364
-19 -85 -9 -202 23 -272 73 -161 201 -263 413 -333 163 -53 242 -129 308 -299
117 -298 144 -351 223 -450 98 -121 237 -208 418 -261 79 -23 108 -27 240 -27
83 -1 184 4 225 11 41 6 203 16 360 22 376 14 503 25 622 56 135 34 309 94
412 143 160 75 410 252 513 365 132 144 213 375 213 605 0 172 -40 270 -155
386 -78 79 -164 141 -263 190 -101 50 -166 66 -267 66 -118 0 -188 -22 -379
-120 -204 -105 -265 -120 -500 -127 -167 -5 -192 -4 -268 16 -112 29 -208 77
-428 215 -245 154 -371 213 -524 245 -70 14 -214 26 -291 23z m247 -421 c125
-34 202 -71 400 -195 197 -122 319 -188 406 -218 87 -30 153 -40 446 -66 77
-7 218 11 342 42 75 19 146 48 294 122 177 89 200 98 250 98 71 -1 141 -38
226 -120 49 -46 64 -69 70 -99 14 -81 -52 -294 -125 -400 -37 -54 -171 -158
-273 -211 -74 -39 -217 -93 -348 -131 -130 -38 -258 -52 -580 -64 -162 -6
-333 -17 -380 -25 -234 -40 -359 -37 -457 11 -90 44 -151 131 -247 354 -117
269 -178 373 -272 460 -96 90 -228 164 -350 198 -94 26 -131 46 -149 82 -22
42 -19 74 10 109 54 64 155 81 450 77 175 -3 223 -7 287 -24z"/>
<path d="M435 2085 c-18 -17 -25 -35 -25 -64 0 -22 5 -43 10 -46 6 -4 26 -39
45 -80 62 -130 145 -223 228 -254 49 -19 121 -13 158 12 88 59 77 165 -28 271
-58 60 -110 95 -212 146 -95 48 -140 52 -176 15z"/>
<path d="M5052 1355 c-17 -14 -43 -25 -59 -25 -78 0 -111 -86 -79 -208 37
-139 124 -203 208 -154 40 23 62 70 81 167 27 142 29 157 16 187 -24 59 -115
77 -167 33z"/>
</g>
</svg>
