<?xml version="1.0" standalone="no"?>
<!DOCTYPE svg PUBLIC "-//W3C//DTD SVG 20010904//EN"
 "http://www.w3.org/TR/2001/REC-SVG-20010904/DTD/svg10.dtd">
<svg version="1.0" xmlns="http://www.w3.org/2000/svg"
 width="600.000000pt" height="600.000000pt" viewBox="0 0 600.000000 600.000000"
 preserveAspectRatio="xMidYMid meet">
<metadata>
Created by potrace 1.15, written by Peter Selinger 2001-2017
</metadata>
<g transform="translate(0.000000,600.000000) scale(0.100000,-0.100000)"
fill="#16364b" stroke="none">
<path d="M2694 5541 c-55 -34 -134 -234 -142 -362 -5 -90 7 -136 51 -186 63
-71 182 -94 382 -75 55 6 102 8 104 6 3 -3 -13 -19 -35 -36 -146 -116 -435
-454 -500 -586 -32 -63 -28 -95 20 -168 43 -64 77 -80 191 -88 160 -13 469
-60 623 -96 104 -25 129 -25 169 0 67 41 89 116 55 193 -26 60 -64 78 -212
106 -100 18 -413 61 -447 61 -23 0 -14 22 34 79 95 113 221 235 333 323 148
117 178 145 202 192 29 57 27 137 -6 187 -33 49 -93 93 -159 116 -58 20 -247
24 -414 10 -69 -6 -93 -5 -93 4 0 6 16 46 35 89 19 43 35 88 35 101 0 38 -40
107 -74 129 -42 26 -111 26 -152 1z"/>
<path d="M1600 5206 c-196 -73 -393 -246 -534 -470 -113 -181 -124 -276 -37
-349 47 -39 70 -42 216 -22 123 16 325 18 340 3 3 -3 -8 -58 -25 -122 -39
-146 -43 -233 -14 -273 11 -15 35 -38 53 -50 17 -12 28 -24 24 -26 -4 -3 -45
-15 -91 -27 -124 -34 -178 -78 -189 -157 -11 -84 52 -153 140 -153 77 0 496
132 627 197 66 33 100 79 100 135 0 123 -137 195 -256 135 -27 -13 -66 -32
-87 -41 l-38 -15 6 47 c4 26 18 104 31 173 14 70 25 160 26 201 2 185 -115
288 -347 306 -47 4 -86 11 -88 17 -4 17 165 145 240 181 40 19 82 47 93 61 30
39 43 96 30 142 -27 101 -117 145 -220 107z"/>
<path d="M4345 4655 c-110 -20 -320 -121 -381 -182 -63 -62 -69 -155 -15 -215
23 -26 37 -32 82 -36 50 -4 64 0 179 56 116 56 199 87 208 78 8 -9 -88 -232
-175 -405 -120 -237 -120 -247 -12 -371 75 -84 93 -90 307 -91 97 -1 202 -4
232 -7 52 -7 55 -9 52 -32 -6 -42 -70 -206 -143 -366 -75 -164 -83 -204 -51
-263 27 -50 75 -73 140 -68 38 3 60 10 79 28 32 29 221 413 259 524 20 60 27
102 28 165 1 78 -2 90 -30 140 -68 120 -161 158 -422 169 -95 4 -175 11 -178
14 -4 3 19 59 49 124 123 262 167 397 167 507 0 120 -71 212 -181 235 -62 14
-105 13 -194 -4z"/>
<path d="M3767 3690 c-117 -30 -271 -166 -298 -265 -28 -100 74 -194 181 -165
28 7 51 24 77 56 32 38 96 84 118 84 19 0 -6 -116 -49 -219 -50 -122 -78 -155
-169 -200 -157 -75 -207 -128 -207 -214 0 -56 18 -95 60 -130 68 -57 146 -54
229 9 58 45 142 85 272 130 120 41 177 74 208 119 53 79 47 161 -17 226 -21
20 -43 38 -50 40 -10 3 -10 12 2 45 25 72 38 184 27 241 -20 103 -84 183 -179
225 -52 23 -149 32 -205 18z"/>
<path d="M2485 3500 c-104 -22 -306 -89 -374 -122 -57 -28 -85 -74 -85 -138 0
-84 73 -160 154 -160 17 0 83 21 148 46 166 65 230 85 287 87 l50 2 -2 -44
c-3 -62 -37 -160 -99 -284 -43 -86 -54 -117 -54 -156 0 -139 172 -203 266 -99
28 30 56 86 110 221 110 274 112 440 7 557 -92 102 -221 131 -408 90z"/>
<path d="M1109 3212 c-68 -23 -157 -72 -185 -104 -89 -98 -30 -268 107 -309
19 -5 51 -7 72 -3 l39 6 -7 -48 c-4 -27 -18 -119 -31 -204 -38 -254 -50 -432
-36 -563 7 -62 19 -134 27 -159 28 -81 103 -138 182 -138 43 0 149 47 176 77
9 11 61 105 115 209 121 234 194 346 293 448 l76 80 18 -55 c44 -130 12 -508
-66 -794 -24 -89 -24 -132 1 -173 42 -68 121 -90 193 -53 l38 19 -8 -21 c-34
-92 65 -521 162 -706 76 -145 207 -265 332 -306 125 -41 265 2 391 119 37 33
84 69 104 80 55 28 69 47 153 205 92 173 138 243 198 299 72 66 100 61 263
-48 175 -116 289 -136 420 -74 78 37 178 136 193 191 8 30 21 47 50 66 55 36
92 103 98 176 5 56 3 66 -45 163 -57 116 -72 186 -47 212 21 20 91 41 230 66
61 11 135 27 165 36 125 36 232 116 271 204 49 109 45 293 -9 380 -73 117
-249 147 -355 59 -49 -41 -79 -101 -80 -161 l-1 -47 -45 -6 c-244 -33 -383
-89 -503 -203 -103 -98 -148 -205 -148 -350 0 -102 17 -175 66 -287 42 -95 44
-104 23 -117 -12 -8 -38 2 -112 46 -155 91 -213 110 -337 110 -95 0 -112 -3
-177 -31 -190 -81 -328 -230 -469 -506 -41 -80 -63 -112 -82 -120 -15 -7 -46
-25 -70 -41 l-43 -29 -24 23 c-65 61 -146 278 -185 492 -22 122 -26 131 -72
174 -63 59 -145 70 -223 29 -41 -22 -46 -23 -40 -8 20 51 85 332 99 427 52
354 11 715 -98 843 -42 50 -119 83 -191 83 -95 0 -166 -41 -290 -164 -56 -56
-123 -132 -150 -169 -27 -37 -51 -64 -53 -59 -1 5 9 78 23 162 30 187 33 332
8 404 -51 141 -243 221 -404 168z"/>
<path d="M3070 2569 c-110 -31 -422 -123 -462 -135 -78 -25 -116 -65 -132
-141 -10 -45 10 -107 47 -150 65 -74 142 -81 299 -28 140 48 304 93 353 97 37
3 40 1 37 -20 -1 -13 -16 -56 -34 -95 -39 -90 -46 -144 -24 -200 35 -92 128
-138 225 -113 75 19 115 56 156 141 144 304 103 505 -125 614 -71 34 -81 36
-190 38 -63 1 -131 -2 -150 -8z"/>
</g>
</svg>
