<?xml version="1.0" standalone="no"?>
<!DOCTYPE svg PUBLIC "-//W3C//DTD SVG 20010904//EN"
 "http://www.w3.org/TR/2001/REC-SVG-20010904/DTD/svg10.dtd">
<svg version="1.0" xmlns="http://www.w3.org/2000/svg"
 width="600.000000pt" height="600.000000pt" viewBox="0 0 600.000000 600.000000"
 preserveAspectRatio="xMidYMid meet">
<metadata>
Created by potrace 1.15, written by Peter Selinger 2001-2017
</metadata>
<g transform="translate(0.000000,600.000000) scale(0.100000,-0.100000)"
fill="#16364b" stroke="none">
<path d="M2400 5403 c-34 -12 -40 -36 -40 -152 0 -64 -5 -168 -10 -231 -27
-301 -93 -428 -270 -514 -65 -32 -87 -48 -95 -69 -11 -34 1 -58 38 -71 22 -8
42 -2 119 36 111 56 163 98 216 178 79 118 109 269 119 591 l6 206 -24 16
c-24 18 -34 19 -59 10z"/>
<path d="M3547 5286 c-8 -8 -20 -28 -27 -45 -11 -27 -9 -37 17 -93 56 -119
150 -212 226 -225 50 -8 87 29 87 88 0 77 -107 237 -184 273 -42 20 -100 21
-119 2z"/>
<path d="M3002 5093 c-47 -23 -114 -102 -135 -159 -21 -60 -22 -155 -2 -194
49 -95 166 -76 272 44 106 120 120 240 37 305 -33 26 -123 28 -172 4z m94
-130 c-14 -58 -105 -167 -124 -149 -14 15 30 116 64 145 45 40 69 41 60 4z"/>
<path d="M4769 4739 c-46 -17 -54 -48 -52 -203 3 -231 39 -401 98 -456 35 -32
93 -37 128 -10 49 39 70 94 75 200 6 122 -11 193 -80 329 -65 128 -107 162
-169 140z"/>
<path d="M2697 4220 c-106 -20 -156 -128 -97 -210 10 -14 42 -39 72 -57 193
-116 468 -58 468 98 0 57 -37 91 -135 122 -139 44 -243 60 -308 47z"/>
<path d="M5277 3999 c-109 -26 -211 -111 -247 -207 -31 -80 -25 -196 13 -274
35 -71 98 -134 165 -165 48 -22 64 -25 141 -21 106 5 196 43 265 111 74 75 91
116 91 227 0 80 -4 102 -23 139 -34 63 -100 122 -183 164 -77 39 -136 46 -222
26z m121 -324 c10 -9 -9 -36 -33 -47 -22 -10 -28 -8 -40 8 -8 10 -15 27 -15
38 0 16 5 18 42 12 23 -4 44 -9 46 -11z"/>
<path d="M4220 3745 c-30 -9 -73 -27 -96 -40 -120 -71 -198 -240 -165 -361 15
-57 80 -127 149 -161 75 -37 191 -40 263 -6 96 43 165 131 190 240 16 71 3
204 -24 245 -49 74 -203 114 -317 83z m76 -289 c-6 -23 -41 -45 -53 -33 -10
11 10 49 30 56 28 11 31 8 23 -23z"/>
<path d="M1250 3661 c-111 -21 -195 -83 -242 -178 -29 -59 -33 -77 -32 -143 1
-176 127 -307 339 -356 83 -18 124 -42 163 -92 62 -78 100 -186 151 -427 17
-77 44 -196 61 -265 17 -69 46 -201 65 -295 38 -189 69 -290 116 -374 96 -172
206 -263 439 -363 l75 -32 375 -12 c241 -8 389 -16 415 -24 34 -11 46 -11 75
3 28 12 96 16 355 21 571 10 690 31 975 172 193 96 312 176 412 277 127 127
177 226 200 392 36 264 -56 575 -220 747 -97 102 -205 156 -364 184 -79 14
-109 15 -203 5 -190 -21 -274 -58 -450 -201 -172 -140 -269 -192 -414 -222
-196 -41 -382 -8 -613 107 -242 120 -362 215 -707 557 -368 365 -449 426 -646
487 -108 34 -242 47 -325 32z m212 -317 c190 -60 254 -108 563 -419 352 -353
505 -474 757 -595 263 -126 514 -182 718 -161 173 19 258 40 365 94 77 38 129
76 283 208 151 130 202 153 342 152 149 -1 239 -50 321 -173 65 -99 84 -162
83 -290 -1 -168 -48 -298 -148 -407 -60 -66 -99 -93 -248 -172 -189 -100 -299
-131 -533 -150 -197 -16 -1408 -12 -1509 5 -158 26 -267 108 -331 247 -38 84
-79 229 -95 342 -25 173 -124 593 -176 752 -61 183 -148 326 -245 403 -68 54
-112 75 -194 96 -67 17 -125 54 -125 80 0 23 79 17 172 -12z"/>
<path d="M2255 2366 c-10 -15 -14 -33 -9 -50 7 -28 52 -66 77 -66 19 0 57 47
57 70 0 10 -9 29 -21 44 -28 35 -82 36 -104 2z"/>
<path d="M2890 2063 c-55 -20 -67 -78 -24 -112 35 -27 69 -27 88 1 42 60 -1
134 -64 111z"/>
<path d="M3443 3354 c-36 -15 -183 -278 -183 -328 0 -34 25 -56 65 -56 25 0
40 9 67 38 77 85 158 231 158 285 0 49 -56 81 -107 61z"/>
<path d="M480 2010 c-37 -37 -26 -66 53 -141 154 -146 307 -173 307 -54 0 49
-52 95 -183 161 -118 59 -147 64 -177 34z"/>
<path d="M5349 1110 c-19 -11 -54 -89 -64 -142 -22 -117 91 -194 170 -115 38
38 55 89 55 165 0 72 -28 102 -97 102 -26 0 -55 -5 -64 -10z"/>
</g>
</svg>
