<?xml version="1.0" standalone="no"?>
<!DOCTYPE svg PUBLIC "-//W3C//DTD SVG 20010904//EN"
 "http://www.w3.org/TR/2001/REC-SVG-20010904/DTD/svg10.dtd">
<svg version="1.0" xmlns="http://www.w3.org/2000/svg"
 width="600.000000pt" height="600.000000pt" viewBox="0 0 600.000000 600.000000"
 preserveAspectRatio="xMidYMid meet">
<metadata>
Created by potrace 1.15, written by Peter Selinger 2001-2017
</metadata>
<g transform="translate(0.000000,600.000000) scale(0.100000,-0.100000)"
fill="#16364b" stroke="none">
<path d="M1540 5792 c-35 -16 -60 -41 -74 -73 -50 -121 -71 -537 -32 -649 25
-74 50 -106 99 -132 89 -46 187 -18 278 78 144 153 319 440 319 525 0 47 -26
97 -62 119 -40 26 -117 23 -149 -6 -11 -10 -46 -73 -79 -141 -32 -68 -81 -156
-107 -196 -43 -65 -48 -69 -51 -45 -2 14 6 95 18 180 34 239 33 229 12 268
-30 56 -122 94 -172 72z"/>
<path d="M864 5492 c-74 -26 -146 -75 -208 -142 -155 -168 -160 -363 -15 -509
66 -65 108 -85 164 -76 81 12 129 99 94 168 -7 12 -32 40 -56 62 -38 34 -45
46 -45 77 0 74 81 168 146 168 16 0 46 -5 67 -11 32 -10 46 -9 81 4 113 44
120 200 12 252 -56 27 -174 31 -240 7z"/>
<path d="M3333 5465 c-42 -18 -65 -56 -65 -104 1 -68 23 -95 129 -155 54 -31
105 -60 113 -66 12 -7 9 -14 -17 -40 -59 -58 -55 -123 12 -198 113 -126 284
-147 362 -45 22 29 28 49 31 103 4 62 1 74 -29 130 -66 125 -219 257 -415 361
-63 33 -75 34 -121 14z"/>
<path d="M2325 5145 c-22 -8 -52 -27 -66 -43 -23 -26 -26 -39 -32 -135 -10
-172 -36 -211 -198 -293 -91 -45 -109 -64 -123 -131 -11 -50 24 -120 70 -139
49 -20 77 -13 216 58 231 117 317 254 318 503 0 148 -74 221 -185 180z"/>
<path d="M2955 5141 c-117 -53 -196 -218 -171 -356 8 -43 59 -103 103 -121 46
-20 120 -17 189 6 149 51 179 90 179 235 0 115 -26 173 -99 223 -40 27 -57 32
-105 32 -32 0 -73 -8 -96 -19z"/>
<path d="M4785 4823 c-29 -7 -65 -43 -81 -79 -10 -24 -11 -58 -3 -160 20 -274
94 -422 246 -491 46 -21 66 -25 128 -21 63 3 80 8 117 34 63 44 90 99 90 182
0 192 -144 381 -387 507 -67 35 -73 37 -110 28z"/>
<path d="M2760 4176 c-104 -23 -183 -83 -217 -164 -18 -44 -20 -131 -3 -174
24 -58 72 -110 125 -134 143 -65 346 -48 541 46 60 29 112 62 127 80 49 57 48
138 -2 207 -24 33 -45 46 -136 82 -166 66 -309 85 -435 57z"/>
<path d="M1047 4085 c-74 -26 -117 -84 -117 -160 0 -56 19 -96 61 -126 24 -17
57 -25 153 -35 152 -17 176 -22 176 -39 0 -18 -114 -110 -201 -162 -36 -22
-123 -71 -195 -108 -199 -105 -234 -138 -234 -225 0 -68 27 -110 91 -143 79
-41 103 -34 326 94 56 33 104 59 107 59 4 0 6 -9 6 -21 0 -36 32 -90 64 -110
58 -35 112 -24 197 40 30 23 77 50 104 60 l50 19 40 -24 c85 -49 195 -52 252
-5 88 73 80 209 -17 280 -71 52 -118 64 -223 59 l-94 -4 29 46 c33 51 58 128
58 176 0 86 -72 196 -164 249 -111 64 -384 111 -469 80z"/>
<path d="M4220 3774 c-107 -29 -198 -104 -247 -203 -70 -141 -4 -319 142 -387
73 -33 132 -39 202 -19 154 43 266 181 303 372 29 144 -19 199 -203 237 -92
19 -125 19 -197 0z m64 -321 c-23 -16 -47 -17 -42 0 7 19 52 39 57 25 2 -6 -4
-17 -15 -25z"/>
<path d="M5096 3415 c-78 -32 -157 -87 -208 -144 -146 -164 -125 -408 42 -494
50 -26 63 -28 135 -25 67 4 90 10 142 37 82 44 139 102 176 181 26 55 31 76
31 145 0 98 -20 149 -96 236 -83 96 -119 107 -222 64z"/>
<path d="M3424 3390 c-18 -6 -48 -28 -69 -51 -39 -44 -131 -221 -141 -273 -8
-45 18 -101 58 -126 28 -18 43 -20 103 -15 86 7 145 34 185 85 69 88 99 222
63 289 -39 74 -125 113 -199 91z"/>
<path d="M2323 2986 c-137 -45 -209 -126 -294 -331 -52 -126 -90 -177 -182
-237 -45 -30 -214 -210 -286 -304 -60 -80 -143 -242 -166 -329 -22 -79 -31
-317 -16 -414 39 -252 186 -463 411 -589 30 -17 98 -46 150 -63 91 -32 101
-33 255 -34 230 0 377 39 539 142 182 117 339 331 420 573 57 169 118 493 118
621 0 257 -107 448 -322 571 -54 32 -114 92 -169 173 -104 150 -211 223 -342
231 -47 2 -89 -1 -116 -10z m159 -477 c29 -39 63 -88 76 -109 30 -50 68 -81
171 -139 97 -54 114 -78 130 -181 32 -197 -16 -469 -117 -664 -58 -113 -194
-257 -283 -300 -143 -69 -287 -75 -424 -19 -64 27 -163 100 -205 154 -120 152
-114 382 15 584 46 72 121 156 189 212 182 148 285 278 357 454 18 43 34 79
35 79 1 0 26 -32 56 -71z"/>
<path d="M844 2661 c-34 -21 -64 -75 -64 -116 0 -49 26 -80 102 -120 109 -57
139 -77 186 -129 76 -83 101 -172 68 -250 -22 -54 -63 -79 -119 -73 -62 5
-107 42 -170 136 -51 75 -86 101 -137 101 -65 0 -129 -55 -137 -118 -7 -53 39
-140 123 -231 67 -72 135 -115 218 -137 225 -60 453 93 498 334 34 181 -86
400 -293 532 -145 93 -211 110 -275 71z"/>
<path d="M4148 2230 c-54 -29 -81 -73 -86 -140 l-4 -57 -48 14 c-62 18 -116 5
-164 -40 -50 -48 -60 -96 -42 -204 34 -209 67 -385 77 -411 27 -70 87 -105
189 -108 41 -2 103 -6 138 -10 81 -8 139 12 186 67 60 70 66 133 41 404 -8 88
-15 207 -15 265 0 129 -21 181 -85 217 -52 29 -135 30 -187 3z"/>
</g>
</svg>
