<?xml version="1.0" standalone="no"?>
<!DOCTYPE svg PUBLIC "-//W3C//DTD SVG 20010904//EN"
 "http://www.w3.org/TR/2001/REC-SVG-20010904/DTD/svg10.dtd">
<svg version="1.0" xmlns="http://www.w3.org/2000/svg"
 width="600.000000pt" height="600.000000pt" viewBox="0 0 600.000000 600.000000"
 preserveAspectRatio="xMidYMid meet">
<metadata>
Created by potrace 1.15, written by Peter Selinger 2001-2017
</metadata>
<g transform="translate(0.000000,600.000000) scale(0.100000,-0.100000)"
fill="#16364b" stroke="none">
<path d="M2385 5395 c-25 -24 -25 -27 -25 -197 0 -331 -50 -508 -174 -614 -22
-20 -78 -53 -124 -75 -94 -45 -113 -69 -93 -117 12 -29 47 -52 77 -52 23 0
152 68 209 110 163 121 230 281 254 615 20 263 12 324 -45 345 -38 15 -53 12
-79 -15z"/>
<path d="M3534 5316 c-11 -8 -26 -33 -34 -56 -12 -37 -11 -45 10 -98 81 -197
240 -313 327 -238 24 21 28 32 27 73 -1 108 -140 297 -236 321 -60 15 -69 15
-94 -2z"/>
<path d="M3002 5123 c-95 -52 -165 -165 -166 -267 -1 -171 137 -208 286 -76
114 100 136 295 38 345 -39 20 -118 19 -158 -2z m62 -155 c-13 -43 -34 -77
-54 -88 -16 -9 -20 -8 -20 5 0 31 51 105 72 105 5 0 6 -10 2 -22z"/>
<path d="M4751 4753 c-53 -26 -65 -67 -57 -193 11 -188 42 -316 100 -413 34
-56 92 -97 140 -97 48 0 102 38 132 94 25 44 29 62 29 136 0 63 -6 102 -23
151 -54 157 -202 340 -274 339 -7 0 -28 -8 -47 -17z"/>
<path d="M2683 4230 c-140 -33 -167 -205 -48 -309 121 -106 304 -111 433 -13
58 44 69 58 82 102 12 45 -2 99 -34 131 -36 36 -284 101 -376 98 -14 -1 -40
-4 -57 -9z"/>
<path d="M1124 4146 c-44 -31 -70 -150 -53 -242 19 -107 78 -164 168 -164 148
0 247 154 176 275 -58 99 -227 175 -291 131z"/>
<path d="M5194 3944 c-165 -60 -221 -272 -123 -466 53 -105 142 -168 239 -168
133 0 293 94 350 207 21 39 25 62 25 128 -1 117 -41 180 -170 264 l-70 46
-105 2 c-73 2 -117 -2 -146 -13z m170 -287 l30 -13 -22 -22 c-29 -29 -46 -28
-61 4 -19 43 -1 54 53 31z"/>
<path d="M4193 3760 c-90 -18 -176 -80 -216 -155 -18 -33 -22 -57 -22 -135 0
-84 3 -101 28 -147 39 -76 81 -118 145 -150 218 -107 452 104 452 406 0 117
-25 146 -152 176 -68 16 -168 18 -235 5z m80 -287 c-10 -29 -24 -43 -44 -43
-26 0 -24 25 3 44 30 21 49 20 41 -1z"/>
<path d="M3461 3373 c-66 -33 -215 -255 -215 -321 0 -62 68 -91 133 -58 45 24
149 142 182 207 40 80 42 134 5 166 -32 27 -59 29 -105 6z"/>
<path d="M1245 3270 c-133 -5 -215 -12 -245 -22 -226 -74 -360 -256 -330 -446
24 -147 117 -262 276 -341 80 -39 119 -49 255 -66 147 -17 187 -34 248 -101
76 -83 122 -195 201 -489 107 -396 228 -545 525 -644 134 -45 250 -63 431 -66
157 -4 453 -17 724 -34 151 -9 278 -2 490 28 80 11 199 27 265 36 212 29 355
74 548 171 158 79 257 146 330 223 185 197 266 517 208 820 -34 173 -96 298
-194 393 -238 230 -589 304 -945 202 -156 -45 -236 -90 -435 -245 -133 -103
-180 -122 -317 -123 -200 -1 -312 56 -860 435 -169 118 -351 210 -468 239
-157 39 -280 44 -707 30z m534 -386 c103 -23 177 -65 495 -277 323 -216 552
-343 713 -397 291 -97 556 -36 891 205 322 231 558 254 783 78 103 -81 144
-192 136 -372 -5 -131 -29 -205 -94 -294 -67 -91 -283 -213 -462 -261 -113
-30 -236 -48 -526 -77 -203 -20 -255 -21 -680 -15 -657 9 -783 28 -875 133
-47 54 -81 134 -145 348 -66 219 -92 289 -141 388 -90 179 -197 297 -327 360
-92 44 -167 64 -289 77 -134 14 -198 42 -198 88 0 20 41 27 215 33 231 8 423
2 504 -17z"/>
<path d="M456 2059 c-32 -25 -37 -90 -8 -111 10 -7 30 -33 45 -58 62 -107 143
-171 234 -186 82 -13 152 48 139 121 -13 67 -135 170 -273 231 -66 29 -102 30
-137 3z"/>
<path d="M5302 1150 c-36 -16 -47 -29 -69 -76 -51 -112 -5 -224 93 -224 74 0
122 72 123 188 1 73 -8 96 -49 117 -36 19 -45 18 -98 -5z"/>
</g>
</svg>
