<?xml version="1.0" standalone="no"?>
<!DOCTYPE svg PUBLIC "-//W3C//DTD SVG 20010904//EN"
 "http://www.w3.org/TR/2001/REC-SVG-20010904/DTD/svg10.dtd">
<svg version="1.0" xmlns="http://www.w3.org/2000/svg"
 width="600.000000pt" height="600.000000pt" viewBox="0 0 600.000000 600.000000"
 preserveAspectRatio="xMidYMid meet">
<metadata>
Created by potrace 1.15, written by Peter Selinger 2001-2017
</metadata>
<g transform="translate(0.000000,600.000000) scale(0.100000,-0.100000)"
fill="#16364b" stroke="none">
<path d="M2124 5810 c-26 -13 -68 -52 -110 -103 -38 -44 -141 -153 -230 -242
-236 -235 -286 -307 -287 -414 -1 -150 128 -226 299 -176 137 40 515 201 650
277 83 47 114 90 114 158 0 83 -49 143 -126 155 -42 7 -28 13 -256 -109 -60
-32 -108 -54 -108 -49 0 5 21 29 46 53 69 68 192 222 209 263 31 74 9 147 -57
187 -42 26 -92 25 -144 0z"/>
<path d="M3033 5670 c-60 -36 -80 -116 -47 -187 22 -44 42 -57 158 -98 231
-81 336 -177 366 -334 33 -174 -9 -246 -198 -337 -107 -51 -132 -81 -132 -157
0 -90 50 -148 134 -155 48 -4 64 1 147 40 164 79 265 172 324 300 39 86 50
163 37 277 -21 179 -85 314 -207 437 -67 67 -97 88 -185 132 -116 57 -259 102
-324 102 -23 0 -55 -9 -73 -20z"/>
<path d="M996 5368 c-60 -13 -158 -65 -222 -116 -231 -187 -237 -511 -13 -732
89 -89 155 -124 220 -118 105 10 168 128 125 232 -8 20 -37 51 -69 75 -70 51
-102 93 -118 153 -25 91 25 170 129 207 96 35 126 54 145 94 56 113 -63 236
-197 205z"/>
<path d="M2772 4979 c-101 -19 -202 -103 -250 -207 -37 -80 -42 -194 -12 -274
30 -81 96 -150 183 -193 75 -37 183 -65 252 -65 117 0 176 123 112 232 -33 57
-61 75 -142 92 -67 14 -112 37 -122 62 -3 8 0 28 7 44 11 28 16 30 62 30 90 0
148 54 148 136 0 102 -110 168 -238 143z"/>
<path d="M4772 4913 c-26 -17 -50 -44 -63 -70 -19 -39 -20 -49 -9 -165 20
-219 57 -333 135 -410 59 -58 118 -83 200 -83 218 0 347 221 251 430 -47 103
-182 222 -337 295 -80 38 -122 38 -177 3z"/>
<path d="M1858 4541 c-114 -37 -230 -135 -244 -206 -20 -108 83 -211 191 -191
20 4 53 22 73 40 78 70 116 74 161 17 117 -147 342 -46 276 125 -19 50 -101
145 -155 179 -89 56 -199 69 -302 36z"/>
<path d="M2855 3908 c-40 -14 -84 -56 -101 -95 -8 -19 -13 -66 -13 -115 1
-148 -30 -330 -87 -508 -39 -125 -32 -177 36 -234 65 -54 155 -53 211 3 90 91
199 737 145 864 -17 40 -51 71 -95 86 -40 13 -56 13 -96 -1z"/>
<path d="M1125 3816 c-108 -21 -186 -46 -226 -71 -72 -47 -100 -163 -60 -251
34 -75 111 -113 193 -95 23 6 44 9 45 7 2 -1 -27 -47 -63 -101 -109 -163 -220
-401 -305 -652 -73 -218 -73 -270 5 -347 54 -54 116 -73 187 -56 57 14 141 83
538 440 148 133 278 248 290 256 20 15 21 14 21 -18 -1 -125 -206 -704 -379
-1068 -34 -71 -39 -116 -17 -158 54 -105 190 -116 269 -23 30 36 148 267 205
401 67 157 175 494 215 670 29 124 31 364 5 450 -47 152 -199 214 -334 135
-54 -32 -178 -130 -287 -228 -43 -38 -80 -68 -82 -65 -2 2 36 69 84 150 118
195 153 280 159 384 4 67 1 87 -16 120 -26 50 -67 88 -117 110 -53 23 -235 28
-330 10z"/>
<path d="M4270 3785 c-160 -25 -257 -71 -306 -145 -104 -157 -4 -435 178 -496
67 -22 167 -15 227 15 57 30 133 101 188 178 49 69 140 247 149 292 14 69 -39
143 -116 160 -60 14 -215 12 -320 -4z m40 -304 c0 -12 -54 -51 -69 -51 -23 0
-9 28 22 44 37 18 47 20 47 7z"/>
<path d="M3518 3399 c-118 -18 -198 -114 -253 -305 -31 -106 -31 -148 -2 -198
42 -73 132 -94 260 -61 81 21 132 49 192 106 70 66 100 128 99 204 -2 72 -22
121 -71 176 -60 66 -133 92 -225 78z"/>
<path d="M4859 2856 c-45 -30 -149 -151 -201 -231 -125 -192 -92 -404 70 -451
67 -20 118 -13 198 25 141 67 234 228 234 409 0 40 -6 87 -14 106 -14 32 -109
130 -149 153 -37 21 -99 16 -138 -11z"/>
<path d="M4125 2511 c-49 -23 -99 -74 -119 -121 -29 -72 -29 -118 3 -244 17
-65 31 -125 31 -131 0 -8 -29 0 -81 22 -60 26 -100 36 -158 40 -70 5 -84 3
-140 -22 -100 -45 -167 -133 -191 -249 -16 -77 -8 -142 40 -346 21 -91 44
-194 51 -230 16 -85 39 -130 90 -173 84 -72 208 -70 293 4 82 73 92 147 47
348 -11 52 -21 96 -21 98 0 8 57 -27 70 -42 21 -25 85 -55 132 -61 83 -11 234
58 308 142 59 68 82 134 82 232 -1 48 -8 119 -16 157 -32 150 -116 439 -140
479 -58 99 -184 142 -281 97z"/>
<path d="M2942 2249 c-120 -21 -276 -88 -514 -220 l-89 -50 -34 30 c-65 57
-158 66 -247 22 -49 -23 -155 -123 -195 -183 -72 -108 10 -260 149 -277 l53
-6 11 -50 c19 -79 19 -79 -48 -109 -123 -57 -211 -173 -238 -313 -8 -38 -11
-108 -8 -175 4 -95 10 -125 35 -189 76 -194 238 -363 422 -440 134 -56 224
-74 371 -73 124 0 142 3 222 31 143 50 299 157 333 229 40 85 27 174 -34 235
-75 76 -159 72 -271 -11 -102 -76 -163 -104 -236 -108 -96 -6 -192 21 -278 78
-87 59 -105 77 -151 162 -32 59 -36 73 -33 129 4 80 19 92 80 61 24 -12 63
-42 88 -68 55 -56 94 -80 142 -88 119 -21 234 93 212 212 -9 51 -30 90 -76
140 -21 23 -52 63 -69 90 -33 53 -84 203 -95 279 -6 49 -6 50 22 56 16 3 97
42 179 87 135 72 287 140 315 140 16 0 12 -23 -16 -107 -39 -117 -87 -230
-156 -366 -56 -110 -62 -128 -62 -182 1 -190 204 -273 334 -136 78 82 207 336
255 503 72 252 81 385 33 489 -35 77 -70 114 -141 149 -70 34 -174 46 -265 29z"/>
</g>
</svg>
