<?xml version="1.0" standalone="no"?>
<!DOCTYPE svg PUBLIC "-//W3C//DTD SVG 20010904//EN"
 "http://www.w3.org/TR/2001/REC-SVG-20010904/DTD/svg10.dtd">
<svg version="1.0" xmlns="http://www.w3.org/2000/svg"
 width="600.000000pt" height="600.000000pt" viewBox="0 0 600.000000 600.000000"
 preserveAspectRatio="xMidYMid meet">
<metadata>
Created by potrace 1.15, written by Peter Selinger 2001-2017
</metadata>
<g transform="translate(0.000000,600.000000) scale(0.100000,-0.100000)"
fill="#16364b" stroke="none">
<path d="M1855 5800 c-49 -15 -80 -57 -128 -175 -25 -60 -78 -177 -117 -260
-88 -184 -105 -227 -114 -287 -19 -131 73 -229 201 -213 138 17 446 222 630
418 68 73 83 112 64 170 -13 40 -55 85 -89 98 -33 13 -109 11 -135 -3 -12 -6
-60 -46 -106 -89 -47 -43 -86 -77 -88 -76 -1 2 18 54 43 117 52 129 55 182 15
239 -38 53 -114 79 -176 61z"/>
<path d="M2995 5692 c-83 -53 -103 -138 -50 -218 8 -13 47 -42 87 -65 231
-134 386 -265 483 -410 39 -58 75 -134 75 -160 0 -20 -35 -39 -74 -39 -58 0
-127 -37 -149 -80 -34 -65 -11 -144 57 -194 23 -18 42 -21 119 -21 81 0 99 3
151 29 75 37 131 93 164 165 51 110 40 219 -36 350 -130 225 -274 369 -572
570 -108 74 -131 85 -175 88 -37 3 -58 -1 -80 -15z"/>
<path d="M936 5414 c-137 -33 -282 -145 -338 -263 -58 -120 -50 -291 19 -410
52 -90 155 -179 234 -201 75 -22 180 45 195 124 10 58 -20 121 -76 161 -84 59
-112 134 -75 205 28 55 55 68 202 96 70 13 125 114 104 190 -27 99 -119 133
-265 98z"/>
<path d="M2902 5134 c-58 -29 -106 -84 -149 -173 -24 -47 -28 -69 -28 -136 1
-156 79 -235 234 -235 132 0 232 48 261 125 15 40 -4 218 -31 291 -52 138
-165 189 -287 128z"/>
<path d="M4765 4891 c-47 -22 -89 -64 -104 -104 -16 -41 -13 -157 5 -240 34
-155 142 -320 251 -384 98 -57 232 -36 309 49 186 206 45 519 -302 671 -72 32
-105 33 -159 8z"/>
<path d="M1994 4815 c-148 -40 -219 -104 -219 -196 0 -117 125 -183 244 -129
79 36 88 28 106 -103 15 -108 139 -170 234 -116 65 37 76 61 75 169 0 73 -6
108 -23 153 -44 114 -130 194 -236 222 -71 18 -113 18 -181 0z"/>
<path d="M2930 4033 c-162 -44 -254 -153 -236 -280 11 -84 56 -143 141 -186
96 -48 319 -73 514 -57 161 13 199 34 222 125 4 16 15 50 24 73 34 95 -3 151
-147 223 -212 107 -379 139 -518 102z"/>
<path d="M1091 4016 c-122 -26 -168 -52 -203 -113 -43 -73 -31 -178 28 -242
44 -49 82 -65 144 -59 l49 5 -21 -31 c-12 -17 -70 -98 -129 -181 -205 -288
-369 -567 -404 -689 -35 -122 57 -246 182 -246 56 0 92 17 155 74 29 26 121
92 203 145 83 53 218 151 300 217 83 67 188 149 235 184 l85 63 3 -49 c9 -132
-77 -377 -236 -669 -109 -201 -186 -329 -254 -418 -33 -43 -66 -95 -75 -115
-54 -129 138 -260 250 -172 28 22 178 252 278 425 129 225 245 505 312 755 28
106 31 128 31 280 1 142 -2 170 -18 202 -60 122 -198 166 -341 110 -56 -23
-179 -96 -248 -149 -32 -25 -60 -43 -63 -41 -2 3 34 58 80 124 47 65 98 142
115 169 37 61 65 165 59 220 -10 86 -66 162 -147 198 -71 33 -224 34 -370 3z"/>
<path d="M4179 3782 c-252 -68 -363 -349 -206 -520 74 -80 179 -112 304 -92
182 29 314 147 377 338 30 88 32 121 11 161 -26 52 -69 78 -162 100 -130 30
-243 35 -324 13z m91 -292 c0 -8 -51 -40 -65 -40 -3 0 -5 6 -5 14 0 8 12 19
28 24 36 14 42 14 42 2z"/>
<path d="M3448 3420 c-78 -23 -144 -102 -208 -246 -44 -101 -50 -150 -22 -204
26 -53 66 -70 164 -73 74 -2 88 1 128 25 83 48 136 150 147 279 6 76 -6 125
-45 171 -42 50 -100 67 -164 48z"/>
<path d="M4964 3078 c-83 -54 -217 -195 -249 -263 -40 -82 -47 -193 -16 -252
47 -93 150 -138 263 -114 213 44 348 225 309 415 -16 79 -33 111 -90 169 -83
87 -135 98 -217 45z"/>
<path d="M3935 2631 c-108 -28 -184 -119 -185 -219 0 -24 20 -102 45 -180 25
-75 45 -140 45 -143 0 -3 -33 5 -72 19 -120 40 -202 19 -291 -77 -81 -86 -109
-182 -87 -301 6 -36 36 -126 65 -200 29 -74 69 -186 90 -249 53 -166 71 -194
149 -226 88 -37 201 -12 261 58 58 68 71 156 36 248 -22 57 -27 55 59 24 56
-21 112 -13 195 26 79 37 130 88 168 167 28 60 29 69 25 150 -6 92 -10 105
-170 574 -44 128 -85 231 -101 251 -46 61 -156 98 -232 78z"/>
<path d="M2009 2247 c-95 -36 -189 -128 -279 -273 l-55 -88 0 -86 c0 -79 -2
-89 -32 -135 -76 -119 -132 -280 -159 -460 -47 -300 61 -548 331 -764 179
-143 391 -208 592 -181 109 14 174 32 284 80 230 100 388 251 389 374 0 28 23
85 84 210 178 360 239 578 216 776 -22 196 -118 289 -307 298 -116 6 -163 -8
-441 -128 -113 -49 -207 -88 -207 -87 -1 1 -11 49 -23 107 -34 166 -100 278
-198 335 -55 32 -141 42 -195 22z m45 -569 c22 -200 58 -333 103 -381 81 -84
228 -100 294 -32 13 15 35 50 49 78 l25 52 215 102 c118 56 220 103 226 103 8
0 9 -15 3 -47 -24 -153 -100 -367 -198 -559 -21 -42 -31 -76 -31 -106 0 -121
-188 -240 -380 -242 -143 -1 -244 45 -379 170 -172 159 -177 455 -11 654 64
78 73 104 67 192 -6 93 7 105 17 16z"/>
</g>
</svg>
