<?xml version="1.0" standalone="no"?>
<!DOCTYPE svg PUBLIC "-//W3C//DTD SVG 20010904//EN"
 "http://www.w3.org/TR/2001/REC-SVG-20010904/DTD/svg10.dtd">
<svg version="1.0" xmlns="http://www.w3.org/2000/svg"
 width="600.000000pt" height="600.000000pt" viewBox="0 0 600.000000 600.000000"
 preserveAspectRatio="xMidYMid meet">
<metadata>
Created by potrace 1.15, written by Peter Selinger 2001-2017
</metadata>
<g transform="translate(0.000000,600.000000) scale(0.100000,-0.100000)"
fill="#16364b" stroke="none">
<path d="M2814 5566 c-41 -18 -75 -64 -123 -167 -47 -99 -60 -152 -61 -232 0
-103 52 -180 148 -219 51 -20 73 -22 220 -22 89 1 162 0 162 -1 0 -1 -44 -40
-97 -86 -205 -175 -370 -348 -458 -479 -55 -82 -47 -144 31 -230 20 -21 50
-43 67 -49 39 -12 344 -62 552 -91 83 -11 168 -25 190 -30 94 -22 162 -7 204
46 44 55 36 153 -16 193 -48 38 -167 63 -506 106 -75 10 -139 21 -142 25 -4 7
23 35 354 350 114 109 202 201 214 225 28 55 29 148 2 195 -27 45 -102 96
-174 117 -47 13 -87 15 -248 10 -168 -5 -193 -4 -193 9 0 9 18 50 40 91 43 82
48 114 26 167 -28 67 -124 103 -192 72z"/>
<path d="M1588 5254 c-74 -23 -214 -123 -315 -226 -182 -184 -309 -390 -320
-518 -6 -68 24 -133 77 -168 41 -28 74 -27 255 7 61 11 149 21 198 21 80 0 87
-2 87 -20 0 -11 -20 -83 -45 -160 -50 -156 -55 -209 -25 -258 20 -33 19 -52
-2 -52 -7 0 -32 -10 -56 -21 -47 -23 -82 -78 -82 -129 0 -42 37 -108 72 -130
46 -28 99 -25 193 10 44 17 139 48 211 70 298 90 372 146 350 264 -9 46 -67
101 -122 115 -53 14 -70 10 -182 -40 -63 -28 -88 -35 -90 -25 -2 7 16 68 38
136 86 256 64 405 -73 497 -69 46 -116 57 -244 58 -62 0 -113 2 -113 5 0 3 24
35 54 71 59 71 170 166 226 194 77 38 110 88 110 163 0 108 -92 170 -202 136z"/>
<path d="M4393 4625 c-85 -20 -202 -67 -303 -123 -107 -60 -133 -97 -127 -186
3 -52 7 -62 39 -91 62 -57 90 -55 246 18 75 36 154 70 175 75 39 11 39 11 32
-16 -11 -45 -84 -212 -127 -292 -23 -41 -74 -124 -114 -183 -100 -147 -99
-182 10 -292 79 -81 66 -78 391 -100 121 -9 228 -18 237 -21 15 -5 16 -9 2
-47 -14 -38 -37 -84 -184 -360 -42 -79 -52 -108 -52 -146 0 -135 145 -220 236
-138 24 21 168 315 242 494 88 212 80 335 -27 426 -70 61 -139 78 -329 83 -91
3 -174 7 -186 9 -19 4 -17 13 45 137 200 403 221 643 64 735 -38 22 -60 27
-127 29 -45 2 -109 -3 -143 -11z"/>
<path d="M3705 3666 c-99 -47 -195 -180 -195 -270 0 -108 108 -179 199 -131
33 17 81 70 81 90 0 17 36 38 50 30 27 -16 3 -128 -50 -241 l-38 -83 -76 -37
c-98 -48 -204 -129 -227 -174 -58 -107 15 -240 130 -240 50 0 67 9 152 79 67
54 131 83 265 120 118 32 174 64 197 114 33 69 17 140 -43 191 l-31 26 12 60
c16 83 7 221 -20 291 -28 73 -87 140 -153 173 -72 36 -180 37 -253 2z"/>
<path d="M2475 3556 c-81 -19 -152 -48 -263 -108 -106 -57 -126 -75 -154 -137
-24 -51 -20 -97 12 -141 52 -72 127 -79 241 -20 108 56 245 100 309 100 l53 0
-6 -57 c-8 -83 -39 -170 -113 -316 -70 -140 -76 -174 -45 -235 39 -77 160
-108 232 -59 54 37 149 228 205 412 22 74 27 111 28 205 1 101 -2 121 -23 168
-31 69 -113 144 -189 172 -72 28 -204 35 -287 16z"/>
<path d="M1150 3246 c-58 -12 -199 -83 -238 -119 -90 -83 -79 -229 20 -294 36
-24 51 -28 114 -28 69 1 73 0 69 -20 -8 -40 -55 -291 -65 -355 -17 -104 -24
-414 -11 -510 14 -105 44 -154 115 -189 45 -23 53 -23 118 -13 112 17 115 20
260 277 120 213 241 395 318 478 l63 69 19 -49 c17 -43 19 -68 15 -238 -5
-196 -16 -283 -67 -541 -18 -89 -28 -164 -24 -182 8 -40 60 -101 100 -118 48
-20 101 -17 140 7 32 19 34 20 34 2 0 -42 41 -365 56 -438 37 -182 102 -309
221 -428 161 -162 285 -193 448 -113 64 32 145 97 145 118 0 4 7 8 15 8 26 0
99 83 119 135 89 234 247 435 342 435 28 0 52 -13 229 -121 124 -76 293 -96
395 -48 82 39 160 124 160 175 0 12 16 34 39 52 77 62 104 175 68 287 -27 87
-48 200 -45 246 4 55 9 57 198 58 174 1 240 11 320 47 156 70 251 269 222 464
-12 80 -35 122 -91 161 -68 49 -143 61 -223 37 -74 -22 -148 -130 -148 -216 0
-18 -12 -19 -162 -25 -321 -12 -472 -87 -563 -280 -70 -146 -68 -291 5 -509
21 -62 36 -115 35 -116 -2 -2 -57 32 -123 76 -130 87 -204 119 -291 128 -98
10 -234 -34 -331 -108 -135 -103 -279 -305 -369 -519 -15 -36 -30 -52 -67 -73
-26 -15 -54 -24 -61 -22 -22 9 -84 147 -108 242 -13 50 -31 159 -41 240 -17
159 -33 206 -80 243 -65 51 -163 51 -233 0 -23 -16 -41 -28 -41 -26 0 2 9 52
20 113 53 281 62 359 67 589 9 383 -29 563 -134 635 -47 32 -141 39 -211 16
-100 -34 -278 -180 -387 -320 -33 -42 -62 -76 -66 -76 -3 0 0 30 7 68 41 205
48 256 47 352 0 133 -24 203 -92 271 -71 72 -152 91 -271 65z"/>
<path d="M3065 2615 c-62 -11 -280 -69 -475 -125 -128 -37 -182 -143 -131
-255 37 -82 125 -127 211 -108 25 6 97 24 160 41 145 39 329 77 336 69 7 -7
-27 -101 -62 -166 -36 -71 -41 -118 -16 -174 53 -120 226 -145 319 -45 52 56
134 260 152 379 30 192 -80 346 -277 388 -66 14 -127 13 -217 -4z"/>
</g>
</svg>
