<?xml version="1.0" standalone="no"?>
<!DOCTYPE svg PUBLIC "-//W3C//DTD SVG 20010904//EN"
 "http://www.w3.org/TR/2001/REC-SVG-20010904/DTD/svg10.dtd">
<svg version="1.0" xmlns="http://www.w3.org/2000/svg"
 width="600.000000pt" height="600.000000pt" viewBox="0 0 600.000000 600.000000"
 preserveAspectRatio="xMidYMid meet">
<metadata>
Created by potrace 1.15, written by Peter Selinger 2001-2017
</metadata>
<g transform="translate(0.000000,600.000000) scale(0.100000,-0.100000)"
fill="#16364b" stroke="none">
<path d="M3535 5250 c-22 -43 -19 -73 16 -142 40 -80 119 -162 175 -184 40
-15 46 -15 68 -1 52 34 42 95 -32 208 -68 103 -121 149 -172 149 -34 0 -42 -4
-55 -30z m146 -156 c17 -25 29 -48 26 -50 -6 -6 -48 48 -67 85 -19 37 6 16 41
-35z"/>
<path d="M3037 5066 c-92 -34 -167 -142 -167 -241 0 -96 59 -144 142 -116 88
29 198 175 198 262 0 82 -85 128 -173 95z m78 -96 c17 -27 -52 -123 -117 -165
-26 -16 -28 -16 -34 0 -20 50 65 175 119 175 14 0 29 -5 32 -10z"/>
<path d="M4769 4721 l-24 -19 0 -259 c1 -275 7 -326 48 -363 30 -28 62 -35 98
-20 48 20 63 60 67 183 7 187 -41 417 -98 470 -36 32 -59 34 -91 8z"/>
<path d="M2638 4213 c-50 -32 -59 -93 -22 -151 23 -35 82 -67 190 -103 80 -27
115 -33 184 -34 100 0 132 15 150 70 10 30 9 41 -7 73 -19 36 -24 39 -191 94
-197 66 -263 77 -304 51z"/>
<path d="M1459 4024 c-56 -17 -123 -85 -138 -140 -36 -130 12 -241 149 -343
62 -47 81 -68 106 -119 63 -125 110 -349 159 -757 14 -115 32 -253 40 -305 8
-52 22 -156 30 -230 48 -410 108 -583 256 -731 59 -60 94 -86 160 -117 79 -39
225 -82 277 -82 22 0 21 -3 -17 -46 -146 -166 -180 -316 -94 -407 41 -42 86
-62 197 -86 142 -31 148 -39 55 -65 -75 -20 -119 -60 -119 -106 0 -42 25 -77
66 -90 45 -15 117 6 192 57 118 80 134 196 39 280 -38 33 -53 38 -194 71 -106
25 -135 43 -127 80 3 15 17 45 29 67 23 40 166 203 196 222 10 8 52 8 130 2
63 -5 255 -9 428 -8 172 0 315 -2 317 -3 2 -2 -3 -22 -11 -43 -42 -118 12
-226 140 -280 l64 -27 -29 -24 c-89 -75 0 -184 140 -171 73 6 133 37 170 89
32 44 36 73 16 128 -17 48 -59 73 -191 116 -143 45 -175 64 -175 102 0 25 9
35 72 72 61 36 84 44 148 51 251 26 539 109 739 214 185 97 345 294 407 500
24 79 24 244 0 340 -10 39 -40 116 -67 172 -121 251 -342 380 -589 342 -98
-15 -158 -38 -254 -99 -133 -84 -279 -120 -480 -120 -408 0 -664 100 -928 364
-79 78 -124 135 -298 371 -102 139 -325 409 -396 478 -74 73 -142 126 -219
170 -33 18 -83 48 -111 66 -91 57 -194 74 -285 45z m146 -202 c22 -9 58 -29
80 -43 22 -14 61 -38 86 -52 135 -76 355 -324 604 -682 158 -227 301 -371 495
-502 236 -159 476 -223 836 -223 201 0 398 50 540 137 88 53 104 61 173 78 80
21 146 13 229 -26 70 -34 116 -83 175 -186 54 -94 77 -170 77 -252 0 -169
-111 -354 -279 -465 -125 -82 -389 -176 -596 -211 -128 -23 -945 -33 -1120
-15 -60 6 -184 15 -275 20 -177 9 -238 22 -331 71 -179 95 -239 240 -284 684
-8 83 -22 186 -30 230 -9 44 -27 168 -41 275 -43 336 -55 412 -85 532 -69 277
-143 420 -259 498 -88 60 -119 107 -88 138 16 16 45 14 93 -6z"/>
<path d="M2356 2491 c-38 -42 11 -121 66 -108 25 7 48 43 48 76 0 46 -81 69
-114 32z"/>
<path d="M2828 2119 c-46 -26 -1 -109 59 -109 36 0 56 20 56 55 0 53 -65 83
-115 54z"/>
<path d="M5259 3966 c-140 -38 -228 -142 -237 -282 -8 -121 48 -231 151 -301
197 -132 494 20 523 267 7 64 -20 149 -63 201 -37 43 -138 108 -186 119 -56
13 -132 11 -188 -4z m140 -296 c11 -6 9 -12 -8 -29 -28 -28 -49 -27 -62 6 -15
41 17 52 70 23z"/>
<path d="M4203 3746 c-72 -23 -131 -65 -173 -120 -121 -160 -90 -332 75 -408
72 -33 208 -33 283 1 63 28 133 103 150 159 28 91 5 242 -44 293 -64 67 -205
103 -291 75z m77 -258 c0 -20 -13 -35 -37 -42 -28 -9 -32 14 -7 38 19 19 44
21 44 4z"/>
<path d="M468 2019 c-11 -6 -18 -22 -18 -39 0 -25 11 -37 73 -81 87 -62 205
-119 246 -119 22 0 35 7 47 25 15 23 15 27 1 48 -14 21 -301 178 -323 177 -5
0 -17 -5 -26 -11z"/>
<path d="M5320 1103 c-48 -20 -89 -146 -69 -216 13 -49 61 -87 108 -87 75 0
120 67 121 182 0 57 -4 71 -25 96 -29 35 -88 45 -135 25z"/>
</g>
</svg>
