<?xml version="1.0" standalone="no"?>
<!DOCTYPE svg PUBLIC "-//W3C//DTD SVG 20010904//EN"
 "http://www.w3.org/TR/2001/REC-SVG-20010904/DTD/svg10.dtd">
<svg version="1.0" xmlns="http://www.w3.org/2000/svg"
 width="600.000000pt" height="600.000000pt" viewBox="0 0 600.000000 600.000000"
 preserveAspectRatio="xMidYMid meet">
<metadata>
Created by potrace 1.15, written by Peter Selinger 2001-2017
</metadata>
<g transform="translate(0.000000,600.000000) scale(0.100000,-0.100000)"
fill="#16364b" stroke="none">
<path d="M3115 5655 c-80 -28 -105 -90 -81 -203 29 -137 98 -267 180 -338 22
-20 95 -62 162 -95 66 -32 123 -62 127 -65 4 -4 -37 -36 -91 -72 -53 -35 -135
-92 -182 -126 -47 -34 -123 -89 -169 -122 -114 -81 -137 -104 -150 -151 -10
-35 -17 -43 -55 -57 -25 -10 -61 -35 -80 -57 -30 -33 -36 -46 -36 -85 0 -77
43 -134 116 -153 44 -12 78 -5 149 29 42 20 187 53 290 66 68 8 120 59 130
127 6 40 3 56 -18 97 -23 45 -24 50 -9 63 28 24 145 103 238 160 194 121 250
224 190 352 -34 74 -118 143 -267 220 -163 84 -209 130 -223 215 -3 19 -8 52
-11 73 -8 50 -65 113 -113 127 -46 12 -48 12 -97 -5z"/>
<path d="M1235 5361 c-188 -112 -346 -315 -396 -507 -29 -113 -27 -251 5 -373
25 -96 43 -131 88 -164 55 -41 148 -17 189 49 24 40 27 77 14 209 -10 102 5
172 57 276 49 98 127 184 212 234 77 45 102 87 93 161 -9 84 -66 136 -154 141
-50 3 -65 0 -108 -26z"/>
<path d="M1559 5101 c-96 -19 -154 -125 -118 -218 15 -40 57 -81 91 -89 34 -7
34 -5 -7 -102 -15 -35 -32 -91 -38 -124 -31 -167 91 -295 301 -314 40 -4 72
-10 72 -13 0 -3 -41 -19 -89 -34 -145 -47 -352 -182 -385 -251 -32 -67 -12
-157 42 -192 66 -43 144 -36 222 21 98 71 254 135 331 135 79 0 139 44 159
114 32 116 -68 228 -190 211 l-45 -6 31 19 c55 35 79 79 79 147 0 44 -5 67
-20 87 -28 39 -92 68 -148 68 -27 0 -47 5 -47 11 0 5 20 58 45 115 78 183 78
279 2 359 -26 27 -57 47 -82 54 -44 12 -149 13 -206 2z"/>
<path d="M4528 4590 c-46 -14 -85 -48 -102 -90 -21 -53 -20 -73 4 -120 29 -57
66 -73 190 -79 l105 -6 -125 -75 c-144 -87 -170 -116 -170 -192 0 -108 80
-175 171 -144 33 12 150 83 303 185 69 45 147 123 177 175 33 58 39 137 14
185 -18 35 -67 77 -111 96 -48 20 -207 53 -289 60 -38 3 -86 7 -105 9 -19 2
-47 0 -62 -4z"/>
<path d="M2525 3716 c-77 -18 -214 -71 -256 -99 -49 -33 -71 -70 -76 -124 -5
-60 18 -108 67 -141 47 -31 107 -26 226 21 51 20 117 40 148 43 l56 7 0 -35
c0 -111 -158 -414 -337 -647 -36 -46 -70 -97 -75 -113 -17 -47 -1 -111 38
-156 l35 -41 -17 -33 c-21 -40 -22 -121 -2 -168 29 -68 102 -120 168 -120 17
0 90 24 163 54 130 53 256 96 282 96 21 0 -23 -118 -110 -298 -66 -136 -75
-161 -75 -211 0 -139 139 -229 268 -176 57 24 80 52 134 160 157 311 232 611
187 746 -62 183 -302 229 -625 119 -46 -16 -84 -26 -84 -23 0 3 22 35 48 72
137 186 188 285 246 471 72 235 81 347 35 444 -26 55 -85 110 -147 138 -60 26
-212 33 -297 14z"/>
<path d="M3939 3697 c-58 -22 -93 -52 -118 -102 -29 -58 -25 -138 8 -204 32
-61 132 -155 204 -191 171 -83 304 -50 367 94 31 69 21 125 -29 174 -28 28
-39 48 -44 80 -9 68 -46 108 -125 133 -85 26 -214 34 -263 16z"/>
<path d="M1183 3518 c-28 -4 -74 -17 -102 -28 -55 -21 -231 -128 -269 -163
-76 -70 -82 -196 -13 -275 26 -30 98 -62 141 -62 19 0 54 9 78 20 l43 20 -6
-23 c-4 -12 -25 -74 -47 -137 -106 -303 -155 -476 -177 -627 -34 -227 10 -312
178 -347 93 -20 133 -10 182 41 72 77 219 262 324 408 88 122 246 336 261 354
12 13 19 -18 16 -70 -3 -84 -47 -406 -78 -574 -76 -416 -84 -518 -46 -596 54
-112 199 -120 276 -16 19 26 21 43 22 165 0 139 7 183 73 476 26 113 48 276
61 446 11 145 -1 403 -21 474 -27 98 -100 156 -195 156 -104 -1 -185 -67 -359
-295 -54 -71 -121 -157 -149 -190 -58 -71 -58 -69 12 135 81 232 111 427 82
530 -36 129 -149 199 -287 178z"/>
<path d="M3586 3244 c-98 -30 -192 -154 -231 -303 -19 -74 -14 -109 23 -153
66 -78 189 -77 255 2 24 28 32 31 59 26 44 -9 156 11 200 36 52 30 90 87 95
146 4 37 -1 58 -24 102 -65 128 -227 190 -377 144z"/>
<path d="M4620 3168 c-48 -33 -72 -70 -77 -120 -7 -61 14 -98 100 -178 79 -73
127 -134 127 -161 0 -10 -13 -25 -28 -34 -98 -58 -95 -201 5 -249 72 -34 156
-10 237 69 69 67 90 115 91 210 0 76 -3 85 -48 177 -54 107 -150 221 -234 277
-59 39 -123 42 -173 9z"/>
<path d="M4495 2272 c-96 -46 -143 -138 -130 -253 4 -32 3 -59 -2 -59 -4 0
-42 9 -83 20 -128 34 -276 46 -377 32 -156 -23 -250 -82 -302 -192 -23 -49
-25 -67 -25 -165 2 -353 6 -514 16 -547 15 -51 64 -107 112 -129 125 -57 285
30 315 171 6 28 11 130 11 226 l0 174 23 -5 c12 -3 65 -15 117 -27 157 -37
352 -23 460 32 138 71 209 219 196 408 -9 129 -23 184 -56 231 -62 85 -190
124 -275 83z"/>
<path d="M2193 1839 c-46 -13 -96 -67 -112 -118 -13 -45 -7 -130 35 -500 17
-148 52 -300 84 -366 47 -98 167 -195 323 -263 130 -56 219 -56 283 0 58 51
78 100 70 175 -4 35 -4 63 -2 63 3 0 39 -21 81 -47 42 -27 111 -70 153 -96
193 -120 404 -122 536 -6 60 53 76 85 76 151 0 66 -26 124 -73 165 -71 63
-146 65 -224 6 -28 -20 -36 -22 -55 -12 -54 29 -258 173 -317 224 -89 78 -206
155 -260 172 -109 34 -236 -28 -280 -135 -15 -35 -31 -42 -31 -15 0 73 -54
455 -69 488 -42 91 -134 139 -218 114z"/>
</g>
</svg>
