<?xml version="1.0" standalone="no"?>
<!DOCTYPE svg PUBLIC "-//W3C//DTD SVG 20010904//EN"
 "http://www.w3.org/TR/2001/REC-SVG-20010904/DTD/svg10.dtd">
<svg version="1.0" xmlns="http://www.w3.org/2000/svg"
 width="600.000000pt" height="600.000000pt" viewBox="0 0 600.000000 600.000000"
 preserveAspectRatio="xMidYMid meet">
<metadata>
Created by potrace 1.15, written by Peter Selinger 2001-2017
</metadata>
<g transform="translate(0.000000,600.000000) scale(0.100000,-0.100000)"
fill="#16364b" stroke="none">
<path d="M2362 5396 c-15 -20 -20 -48 -25 -143 -8 -155 -34 -373 -53 -447 -36
-138 -91 -209 -218 -280 -48 -27 -91 -57 -96 -67 -26 -48 10 -109 64 -109 52
0 205 89 277 161 120 119 157 229 185 547 20 228 17 302 -16 337 -32 34 -91
35 -118 1z"/>
<path d="M3543 5300 c-28 -11 -63 -66 -63 -98 0 -73 144 -255 223 -281 86 -29
157 20 157 107 -1 86 -82 212 -162 250 -52 24 -125 34 -155 22z"/>
<path d="M3015 5118 c-104 -36 -185 -151 -185 -262 0 -83 22 -125 82 -155 44
-21 52 -22 98 -11 74 18 145 74 178 140 22 45 27 68 27 130 0 64 -4 80 -24
107 -25 33 -85 64 -124 62 -12 0 -35 -5 -52 -11z m45 -168 c0 -30 -53 -100
-66 -88 -7 7 15 60 33 80 18 20 33 23 33 8z"/>
<path d="M4748 4744 c-15 -8 -32 -23 -38 -34 -43 -80 -5 -392 65 -529 76 -150
230 -160 301 -19 72 143 24 327 -132 505 -81 92 -132 112 -196 77z"/>
<path d="M2634 4212 c-76 -36 -110 -106 -94 -194 16 -80 60 -132 147 -174 115
-55 285 -39 402 38 74 48 101 87 101 145 0 63 -41 105 -122 126 -35 9 -106 28
-158 42 -133 36 -223 41 -276 17z"/>
<path d="M1097 4112 c-15 -15 -27 -31 -27 -36 0 -4 -9 -28 -21 -53 -58 -128
62 -303 208 -303 52 0 135 41 163 80 79 111 16 249 -143 313 -90 36 -145 36
-180 -1z"/>
<path d="M5220 3926 c-79 -30 -92 -37 -136 -78 -25 -23 -58 -65 -72 -93 -24
-45 -27 -61 -27 -150 1 -120 19 -168 92 -246 72 -77 111 -94 213 -93 73 0 94
4 145 29 76 36 149 109 183 183 23 49 27 70 27 152 -1 78 -4 102 -22 135 -29
55 -68 95 -134 138 -54 36 -59 37 -145 37 -49 -1 -105 -7 -124 -14z m124 -319
c17 -13 17 -15 -9 -35 -30 -24 -55 -16 -55 18 0 32 32 41 64 17z"/>
<path d="M4170 3751 c-101 -33 -180 -109 -206 -197 -33 -116 -3 -242 77 -323
148 -148 391 -96 491 106 28 58 32 76 35 171 6 138 -6 163 -100 211 -61 31
-75 35 -169 37 -57 2 -114 0 -128 -5z m109 -293 c-19 -36 -59 -53 -59 -26 0
19 32 48 52 48 16 0 17 -3 7 -22z"/>
<path d="M3486 3389 c-58 -16 -154 -136 -210 -263 -32 -73 -33 -106 -1 -140
67 -73 190 14 286 204 66 132 30 227 -75 199z"/>
<path d="M1410 3254 c-142 -8 -258 -25 -318 -45 -130 -44 -280 -168 -338 -280
-37 -71 -46 -208 -19 -290 41 -126 140 -241 258 -298 66 -33 115 -44 264 -60
110 -12 155 -33 214 -99 54 -60 92 -136 158 -317 129 -351 182 -454 291 -564
117 -118 247 -173 445 -191 209 -18 1230 -4 1485 21 140 14 317 52 443 95 301
105 570 331 682 576 51 112 68 201 69 363 2 312 -68 471 -274 626 -68 51 -215
123 -300 146 -91 25 -366 25 -460 0 -93 -24 -207 -85 -345 -183 -161 -115
-214 -138 -346 -153 -176 -19 -317 12 -459 101 -36 22 -132 91 -215 152 -334
250 -507 337 -753 382 -85 15 -350 25 -482 18z m380 -389 c223 -33 323 -83
610 -304 185 -143 237 -179 320 -220 130 -66 228 -91 430 -113 264 -28 392 3
634 155 276 172 504 220 668 139 85 -42 161 -110 183 -164 53 -133 16 -365
-82 -514 -72 -110 -284 -244 -448 -284 -242 -58 -693 -87 -1080 -70 -115 6
-316 11 -445 12 -220 3 -239 5 -293 26 -128 52 -173 121 -279 431 -88 258
-171 412 -280 521 -107 107 -246 173 -433 205 -135 23 -174 41 -189 92 -9 27
24 60 74 73 104 27 472 36 610 15z"/>
<path d="M431 2083 c-34 -29 -37 -72 -7 -113 15 -19 49 -70 77 -113 83 -127
200 -195 289 -168 44 13 80 57 80 99 0 80 -116 189 -297 281 -70 35 -111 39
-142 14z"/>
<path d="M5235 1230 c-12 -4 -27 -15 -34 -24 -7 -9 -19 -16 -26 -16 -23 0 -73
-67 -80 -108 -15 -92 54 -202 128 -202 20 0 48 5 62 12 62 28 109 229 70 296
-27 46 -73 62 -120 42z"/>
</g>
</svg>
