<?xml version="1.0" standalone="no"?>
<!DOCTYPE svg PUBLIC "-//W3C//DTD SVG 20010904//EN"
 "http://www.w3.org/TR/2001/REC-SVG-20010904/DTD/svg10.dtd">
<svg version="1.0" xmlns="http://www.w3.org/2000/svg"
 width="600.000000pt" height="600.000000pt" viewBox="0 0 600.000000 600.000000"
 preserveAspectRatio="xMidYMid meet">
<metadata>
Created by potrace 1.15, written by Peter Selinger 2001-2017
</metadata>
<g transform="translate(0.000000,600.000000) scale(0.100000,-0.100000)"
fill="#16364b" stroke="none">
<path d="M2993 5580 c-39 -23 -69 -70 -110 -170 -74 -180 -64 -307 32 -402 57
-57 129 -80 263 -86 61 -2 112 -7 112 -11 -1 -3 -40 -35 -88 -71 -212 -159
-480 -397 -508 -452 -48 -92 23 -195 173 -252 40 -15 186 -56 325 -91 139 -35
286 -75 327 -89 41 -15 92 -26 114 -26 163 0 202 198 53 269 -52 24 -317 105
-478 147 -60 15 -108 30 -108 34 0 22 241 211 432 339 194 130 241 193 219
292 -12 52 -35 84 -90 126 -67 51 -125 64 -331 73 -102 5 -187 9 -189 9 -10 2
12 69 44 132 57 114 45 193 -35 234 -41 21 -118 19 -157 -5z"/>
<path d="M1450 5323 c-94 -55 -273 -235 -350 -353 -123 -188 -210 -392 -210
-493 0 -64 26 -110 80 -138 44 -24 79 -24 199 1 147 30 332 60 369 60 30 0 33
-2 26 -22 -3 -13 -37 -81 -75 -153 -94 -179 -139 -289 -139 -336 0 -25 -8 -51
-21 -68 -48 -65 -29 -162 40 -208 61 -41 97 -33 343 72 281 121 356 160 385
204 61 92 -8 221 -128 237 -40 5 -54 1 -133 -40 -49 -26 -91 -45 -93 -42 -2 2
22 57 55 122 75 151 95 211 96 294 1 126 -73 214 -202 241 -63 13 -199 7 -319
-15 -40 -7 -73 -9 -73 -4 0 5 23 44 52 86 63 93 216 250 278 283 81 44 109
115 75 197 -48 114 -140 141 -255 75z"/>
<path d="M4588 4530 c-82 -15 -158 -40 -291 -98 -110 -48 -135 -63 -159 -96
-70 -96 -5 -236 110 -236 25 0 72 14 123 36 100 44 191 76 197 69 10 -9 -185
-351 -291 -511 -65 -98 -55 -156 42 -242 36 -32 71 -61 76 -64 6 -4 73 -20
150 -37 191 -43 315 -81 315 -98 0 -22 -54 -123 -167 -311 -113 -188 -126
-226 -103 -296 38 -116 204 -121 271 -8 12 20 58 95 102 166 182 296 233 455
185 581 -41 109 -128 156 -430 235 -71 18 -128 37 -128 43 0 5 53 91 119 191
200 305 238 407 196 527 -39 110 -176 174 -317 149z"/>
<path d="M3782 3687 c-48 -18 -97 -61 -117 -103 -25 -54 -17 -140 18 -193 41
-62 80 -83 147 -78 30 2 63 8 72 12 30 12 34 -38 7 -107 -26 -65 -23 -63 -139
-98 -41 -12 -101 -36 -134 -53 -69 -37 -167 -129 -196 -186 -40 -79 -16 -167
56 -208 76 -44 144 -25 217 60 57 67 124 97 218 97 33 0 74 6 92 14 59 25 107
98 107 163 0 13 14 51 30 84 96 190 72 372 -65 498 -97 88 -230 130 -313 98z"/>
<path d="M2430 3587 c-84 -26 -246 -107 -293 -146 -33 -28 -67 -93 -67 -131 0
-14 9 -44 19 -67 22 -46 78 -83 129 -83 16 0 76 24 133 54 122 63 195 89 241
84 l33 -3 -2 -60 c-3 -109 -68 -279 -188 -490 -73 -129 -85 -173 -61 -229 9
-21 13 -49 10 -62 -20 -77 59 -181 154 -204 48 -11 59 -10 174 23 227 65 338
87 338 68 0 -21 -59 -153 -101 -225 -53 -91 -65 -139 -50 -193 47 -171 267
-191 366 -35 63 100 143 274 166 362 31 117 32 266 3 330 -28 60 -77 108 -144
139 -51 24 -66 26 -190 26 -121 0 -252 -17 -314 -41 -10 -4 1 30 29 94 88 199
120 337 113 480 -7 143 -66 240 -183 300 -73 37 -211 41 -315 9z"/>
<path d="M1110 3339 c-106 -18 -296 -130 -341 -202 -16 -26 -19 -45 -17 -103
3 -60 8 -77 32 -108 43 -57 81 -76 152 -76 34 0 75 5 93 11 18 6 34 10 35 8 6
-6 -19 -158 -48 -304 -49 -247 -60 -336 -60 -500 -1 -149 1 -163 23 -208 33
-67 80 -96 176 -108 66 -8 81 -7 118 9 55 24 73 48 261 341 144 223 312 461
326 461 15 0 30 -73 30 -141 0 -41 -11 -153 -24 -249 -87 -625 -91 -683 -48
-766 28 -54 93 -89 147 -78 90 16 147 116 123 211 -8 35 -6 65 11 159 93 496
116 720 91 879 -5 33 -16 105 -24 160 -28 179 -93 265 -206 273 -137 10 -223
-65 -429 -371 -73 -109 -135 -197 -137 -195 -2 3 14 81 36 174 70 303 78 461
27 559 -41 81 -112 138 -201 161 -57 15 -68 16 -146 3z"/>
<path d="M4745 2321 c-100 -25 -181 -111 -194 -206 -7 -46 17 -43 -226 -30
-113 6 -155 5 -218 -9 -154 -32 -293 -119 -353 -221 -54 -93 -67 -150 -68
-302 -1 -79 -4 -143 -8 -143 -4 0 -37 23 -73 50 -80 61 -122 83 -199 105 -84
24 -193 17 -270 -18 -129 -59 -298 -280 -397 -521 -20 -48 -39 -84 -42 -79
-12 19 -47 175 -67 296 -27 170 -65 320 -92 370 -13 22 -40 54 -61 71 -36 29
-45 31 -116 31 -70 0 -81 -3 -115 -28 -89 -68 -109 -142 -72 -264 13 -45 48
-184 76 -310 29 -125 61 -257 72 -293 29 -93 82 -194 130 -246 109 -118 318
-148 451 -65 53 35 87 98 147 284 47 141 114 266 185 345 43 46 55 54 75 49
14 -3 75 -47 135 -97 204 -168 276 -205 385 -198 38 3 82 14 106 26 63 32 140
108 169 165 14 29 37 72 51 97 26 45 26 47 22 239 l-3 195 30 8 c18 5 92 4
186 -3 218 -17 320 -10 401 28 163 77 237 212 225 410 -7 104 -20 143 -66 195
-50 57 -137 86 -206 69z"/>
</g>
</svg>
