<?xml version="1.0" standalone="no"?>
<!DOCTYPE svg PUBLIC "-//W3C//DTD SVG 20010904//EN"
 "http://www.w3.org/TR/2001/REC-SVG-20010904/DTD/svg10.dtd">
<svg version="1.0" xmlns="http://www.w3.org/2000/svg"
 width="600.000000pt" height="600.000000pt" viewBox="0 0 600.000000 600.000000"
 preserveAspectRatio="xMidYMid meet">
<metadata>
Created by potrace 1.15, written by Peter Selinger 2001-2017
</metadata>
<g transform="translate(0.000000,600.000000) scale(0.100000,-0.100000)"
fill="#16364b" stroke="none">
<path d="M2610 5492 c-43 -21 -90 -91 -132 -197 -27 -68 -32 -93 -33 -166 0
-76 3 -90 27 -126 57 -86 171 -109 388 -79 180 25 177 31 53 -91 -146 -146
-272 -304 -387 -487 -66 -105 -72 -147 -31 -233 40 -86 48 -89 318 -96 225 -6
377 -21 541 -52 97 -19 137 -12 180 29 79 74 58 199 -42 250 -56 28 -356 66
-529 66 -46 0 -83 3 -83 6 0 21 154 199 310 359 102 105 197 208 210 230 20
33 25 53 25 111 0 62 -3 75 -28 108 -53 69 -159 116 -261 116 -28 0 -124 -12
-213 -27 -89 -15 -165 -24 -168 -21 -4 3 10 38 30 78 30 58 36 78 32 110 -13
102 -116 158 -207 112z"/>
<path d="M1623 5156 c-186 -69 -508 -358 -599 -538 -20 -40 -25 -61 -21 -95 6
-57 42 -109 93 -133 39 -19 54 -20 250 -14 143 4 218 3 237 -5 l28 -11 -3
-138 c-2 -123 0 -141 18 -172 59 -101 190 -108 254 -13 24 36 25 41 25 217 0
172 -1 184 -24 231 -54 108 -161 179 -302 199 l-81 12 42 38 c60 54 153 112
210 131 60 20 109 72 112 118 4 95 -22 149 -86 178 -53 24 -77 23 -153 -5z"/>
<path d="M4225 4711 c-116 -31 -312 -136 -359 -191 -50 -60 -44 -149 14 -205
23 -22 41 -29 84 -33 49 -4 60 -1 115 32 75 46 223 116 245 116 52 0 -32 -243
-171 -493 -61 -110 -65 -122 -61 -167 4 -39 14 -61 48 -105 69 -89 65 -89 339
-77 262 10 334 6 339 -20 5 -24 -45 -166 -127 -365 -39 -95 -71 -182 -71 -195
1 -37 35 -103 66 -125 16 -12 46 -26 68 -31 49 -14 112 6 141 43 24 31 164
410 202 545 29 105 35 204 15 261 -7 20 -29 54 -49 74 -78 81 -217 115 -465
115 l-147 0 54 114 c154 323 171 528 54 645 -74 75 -201 98 -334 62z"/>
<path d="M1965 3990 c-85 -41 -289 -107 -402 -130 -112 -24 -144 -40 -173 -92
-43 -77 -20 -169 55 -215 84 -51 356 12 640 148 76 36 106 56 124 83 47 71 23
177 -50 220 -43 25 -124 19 -194 -14z"/>
<path d="M3713 3671 c-87 -25 -175 -71 -258 -133 -95 -73 -118 -108 -113 -176
8 -94 70 -146 166 -139 41 3 60 11 90 35 57 48 133 98 176 116 l39 16 -7 -51
c-10 -70 -49 -176 -113 -300 -52 -101 -56 -107 -105 -129 -101 -46 -145 -105
-136 -184 10 -83 73 -139 158 -140 33 0 62 10 110 36 36 20 126 62 200 93 74
31 165 73 202 92 150 78 205 201 135 304 -34 51 -82 79 -134 79 l-45 0 9 53
c14 89 9 237 -11 282 -49 115 -122 166 -235 164 -37 0 -94 -8 -128 -18z"/>
<path d="M2470 3480 c-71 -12 -203 -50 -307 -90 -85 -33 -127 -67 -139 -116
-11 -41 2 -110 25 -143 47 -65 118 -79 217 -41 108 40 218 71 282 77 l62 6 0
-36 c0 -41 -36 -156 -81 -259 -49 -113 -35 -193 44 -252 38 -28 120 -29 160
-2 52 35 161 296 188 450 31 184 -42 337 -187 389 -59 21 -188 29 -264 17z"/>
<path d="M1180 3174 c-30 -8 -85 -33 -122 -54 -55 -33 -70 -49 -92 -92 -64
-129 3 -258 143 -275 l53 -6 -7 -61 c-3 -34 -18 -151 -32 -261 -36 -287 -23
-497 37 -616 60 -117 224 -132 301 -28 13 17 40 48 60 68 20 20 53 66 72 103
51 95 141 238 189 300 49 64 179 198 192 198 13 0 0 -398 -18 -531 -9 -63 -25
-161 -35 -216 -16 -79 -17 -110 -9 -139 28 -103 159 -137 243 -63 46 41 48 48
100 344 71 409 74 692 7 821 -27 52 -87 109 -137 130 -52 22 -139 20 -201 -4
-107 -40 -226 -144 -354 -307 -60 -76 -68 -73 -51 19 6 31 16 122 22 204 14
168 6 251 -33 328 -57 115 -197 175 -328 138z"/>
<path d="M4795 2704 c-84 -31 -144 -118 -145 -211 0 -59 4 -57 -103 -68 -224
-25 -427 -151 -505 -315 -33 -70 -62 -193 -62 -263 0 -104 45 -241 111 -339
22 -32 39 -61 39 -65 0 -14 -68 -63 -87 -63 -10 0 -65 21 -122 45 -124 54
-201 75 -273 75 -217 0 -497 -196 -663 -466 -32 -52 -65 -94 -72 -94 -8 0 -35
-20 -61 -44 -48 -44 -82 -66 -102 -66 -23 0 -104 88 -145 158 -26 44 -61 129
-85 206 -23 72 -49 150 -57 173 -53 154 -263 169 -340 24 -32 -60 -29 -111 12
-267 73 -276 132 -393 263 -516 141 -132 284 -192 410 -170 90 15 177 61 258
135 38 34 87 74 109 88 27 18 55 52 88 107 101 171 236 316 315 340 46 14 78
5 267 -75 85 -35 96 -38 195 -38 130 0 194 23 275 96 68 63 93 103 101 163 6
43 10 49 46 63 72 29 138 130 138 210 0 43 -23 92 -66 143 -59 71 -84 123 -84
182 0 43 3 49 31 64 43 22 108 40 214 59 217 40 343 130 406 293 30 77 33 247
5 305 -56 115 -195 173 -311 131z"/>
<path d="M3205 2503 c-98 -12 -176 -30 -352 -82 -109 -32 -212 -65 -228 -74
-96 -49 -139 -185 -85 -271 37 -61 84 -90 154 -94 55 -4 76 2 211 53 175 67
279 95 347 95 55 0 58 -8 33 -80 -71 -201 117 -383 277 -269 58 42 128 249
130 386 1 73 -2 89 -31 147 -35 72 -79 114 -156 150 -75 36 -199 52 -300 39z"/>
</g>
</svg>
