<?xml version="1.0" standalone="no"?>
<!DOCTYPE svg PUBLIC "-//W3C//DTD SVG 20010904//EN"
 "http://www.w3.org/TR/2001/REC-SVG-20010904/DTD/svg10.dtd">
<svg version="1.0" xmlns="http://www.w3.org/2000/svg"
 width="600.000000pt" height="600.000000pt" viewBox="0 0 600.000000 600.000000"
 preserveAspectRatio="xMidYMid meet">
<metadata>
Created by potrace 1.15, written by Peter Selinger 2001-2017
</metadata>
<g transform="translate(0.000000,600.000000) scale(0.100000,-0.100000)"
fill="#16364b" stroke="none">
<path d="M3092 5660 c-44 -27 -76 -99 -69 -153 3 -22 21 -72 41 -112 46 -94
131 -178 299 -298 73 -52 140 -104 150 -115 22 -24 17 -36 -33 -79 -65 -56
-485 -330 -525 -343 -105 -33 -216 -113 -252 -183 -24 -48 -22 -124 5 -180 25
-50 78 -89 139 -102 76 -16 168 43 179 117 8 46 27 58 127 81 78 17 132 50
148 89 7 18 70 66 198 151 200 134 279 206 322 294 32 64 34 197 4 258 -31 65
-122 146 -250 225 -143 88 -218 160 -262 250 -42 89 -70 112 -135 117 -41 3
-61 -1 -86 -17z"/>
<path d="M1168 5338 c-115 -62 -266 -224 -332 -355 -64 -128 -72 -294 -22
-451 54 -166 113 -232 209 -232 62 0 133 65 143 132 5 28 -2 53 -32 119 -34
75 -38 93 -38 164 -1 137 54 245 166 326 97 70 108 81 128 120 25 48 25 106 1
143 -49 73 -128 86 -223 34z"/>
<path d="M1655 5247 c-75 -43 -106 -138 -65 -205 l20 -32 -40 -80 c-94 -187
-92 -310 6 -419 73 -81 191 -112 347 -92 123 17 158 29 198 71 63 66 61 160
-6 219 -44 39 -85 46 -186 32 -45 -6 -85 -9 -88 -6 -2 3 10 40 29 83 86 201
101 290 57 366 -46 82 -183 114 -272 63z"/>
<path d="M4590 4673 c-92 -35 -139 -160 -90 -240 26 -43 57 -62 116 -68 103
-12 121 -17 99 -25 -11 -5 -38 -9 -60 -9 -54 -1 -125 -38 -152 -80 -40 -60
-24 -137 36 -180 58 -42 239 -21 419 49 163 63 224 157 187 288 -27 94 -98
172 -198 217 -80 37 -306 67 -357 48z"/>
<path d="M1835 4265 c-134 -29 -269 -102 -367 -197 -69 -68 -84 -149 -40 -216
37 -56 134 -70 193 -27 140 103 207 127 353 129 80 1 107 5 128 19 32 22 68
92 68 133 0 36 -30 103 -56 126 -54 48 -158 60 -279 33z"/>
<path d="M4038 3749 c-76 -8 -140 -47 -174 -105 -98 -168 85 -427 312 -442
132 -8 219 40 275 153 37 76 35 119 -12 177 -16 20 -29 44 -29 53 0 35 -41 95
-78 114 -76 39 -202 60 -294 50z"/>
<path d="M2533 3730 c-148 -31 -244 -76 -280 -129 -45 -66 -24 -174 41 -216
47 -31 95 -30 197 5 52 17 126 34 167 37 l72 6 0 -26 c0 -88 -185 -413 -371
-650 -42 -55 -80 -113 -83 -130 -14 -70 45 -168 110 -182 59 -13 60 -16 23
-35 -107 -56 -139 -192 -69 -289 41 -55 82 -75 155 -75 52 1 80 10 205 66 136
61 257 108 280 108 20 0 -52 -165 -173 -393 -53 -99 -59 -145 -28 -212 37 -82
113 -124 202 -112 75 10 97 38 219 279 61 122 125 257 140 299 91 246 35 440
-146 509 -52 19 -72 21 -164 17 -122 -6 -219 -29 -374 -91 -61 -25 -111 -44
-112 -43 -1 1 29 45 68 97 196 267 297 447 371 663 35 104 41 135 41 207 1
134 -48 216 -164 269 -47 21 -71 25 -170 27 -63 2 -134 -1 -157 -6z"/>
<path d="M1173 3579 c-69 -12 -140 -40 -252 -102 -139 -77 -192 -152 -177
-252 19 -117 149 -187 261 -141 22 10 35 11 35 4 0 -5 -21 -69 -46 -142 -89
-254 -164 -505 -199 -669 -22 -100 -17 -182 14 -225 59 -84 252 -140 323 -94
35 23 184 198 341 402 251 326 302 388 310 383 17 -10 -44 -389 -116 -728 -60
-278 -70 -349 -65 -434 3 -51 9 -78 24 -98 72 -98 195 -98 268 0 16 22 20 44
22 115 3 110 13 174 74 447 95 428 104 494 105 730 0 177 -3 218 -18 262 -19
54 -61 103 -112 131 -42 23 -140 21 -190 -3 -63 -31 -162 -133 -311 -319 -76
-96 -140 -174 -141 -172 -2 2 22 74 53 162 77 215 110 327 124 417 25 168 -34
283 -166 323 -52 15 -83 16 -161 3z"/>
<path d="M3609 3297 c-100 -29 -185 -99 -234 -197 -36 -71 -58 -165 -52 -224
4 -42 10 -55 45 -87 67 -63 153 -62 226 1 27 24 43 30 79 30 25 0 75 9 112 21
117 36 184 119 185 228 0 96 -57 176 -155 217 -51 21 -151 26 -206 11z"/>
<path d="M4663 3060 c-84 -51 -84 -142 0 -315 52 -106 57 -122 52 -164 -13
-101 73 -187 178 -178 60 5 95 30 125 88 37 70 27 121 -57 297 -39 81 -71 156
-71 167 0 31 -36 83 -72 105 -43 26 -113 26 -155 0z"/>
<path d="M4461 2316 c-47 -17 -108 -70 -130 -115 -28 -53 -34 -98 -23 -166 6
-33 8 -62 6 -64 -2 -2 -35 3 -74 13 -105 25 -253 36 -338 26 -193 -25 -328
-162 -334 -338 -3 -115 14 -528 24 -560 14 -46 65 -101 113 -123 90 -41 217
-8 275 73 45 62 54 120 46 308 -4 91 -4 169 -1 172 7 7 157 -38 199 -59 67
-34 266 -24 349 19 128 65 207 216 207 394 0 117 -20 256 -44 310 -46 102
-166 150 -275 110z"/>
<path d="M2135 1836 c-43 -19 -93 -79 -101 -123 -9 -48 11 -292 36 -438 60
-354 153 -481 468 -642 83 -43 112 -53 153 -53 65 0 110 20 145 64 16 20 32
36 37 36 4 0 36 -18 70 -40 151 -95 269 -124 401 -97 240 49 346 183 263 332
-57 101 -163 126 -275 64 l-62 -33 -62 32 c-128 65 -205 119 -308 216 -58 55
-116 114 -129 133 -61 84 -214 97 -293 26 -10 -9 -21 -14 -24 -11 -2 3 -14 72
-25 154 -34 263 -37 274 -63 314 -45 68 -154 100 -231 66z"/>
</g>
</svg>
