<?xml version="1.0" standalone="no"?>
<!DOCTYPE svg PUBLIC "-//W3C//DTD SVG 20010904//EN"
 "http://www.w3.org/TR/2001/REC-SVG-20010904/DTD/svg10.dtd">
<svg version="1.0" xmlns="http://www.w3.org/2000/svg"
 width="600.000000pt" height="600.000000pt" viewBox="0 0 600.000000 600.000000"
 preserveAspectRatio="xMidYMid meet">
<metadata>
Created by potrace 1.15, written by Peter Selinger 2001-2017
</metadata>
<g transform="translate(0.000000,600.000000) scale(0.100000,-0.100000)"
fill="#16364b" stroke="none">
<path d="M1513 5785 c-25 -18 -121 -149 -183 -250 -65 -106 -100 -181 -100
-214 0 -82 74 -147 155 -134 56 8 189 77 346 178 157 102 179 124 179 181 0
52 -28 90 -79 105 -41 12 -68 4 -148 -46 -49 -30 -52 -26 -21 18 15 21 23 46
23 75 0 37 -5 48 -33 73 -37 33 -102 40 -139 14z"/>
<path d="M2352 5440 c-18 -11 -37 -32 -43 -46 -6 -17 -7 -99 -3 -223 13 -364
-32 -473 -241 -596 -94 -56 -125 -91 -125 -145 0 -61 69 -118 128 -104 56 13
222 112 272 163 83 83 146 211 170 341 14 76 14 475 0 534 -18 80 -94 116
-158 76z"/>
<path d="M3517 5310 c-34 -27 -57 -70 -57 -108 0 -49 68 -170 129 -231 122
-122 245 -133 292 -26 24 55 20 85 -24 169 -65 123 -159 197 -269 212 -35 5
-48 2 -71 -16z"/>
<path d="M2949 5117 c-24 -13 -61 -46 -81 -73 -123 -161 -69 -354 98 -354 68
0 160 34 201 75 36 36 63 116 63 184 -1 148 -150 237 -281 168z"/>
<path d="M4775 4785 c-48 -26 -62 -43 -74 -90 -14 -55 -14 -126 -1 -235 33
-269 142 -420 306 -420 156 0 252 142 210 311 -38 149 -158 317 -290 405 -64
42 -110 51 -151 29z m215 -458 c0 -5 -4 -5 -10 -2 -5 3 -10 14 -10 23 0 15 2
15 10 2 5 -8 10 -19 10 -23z"/>
<path d="M2710 4234 c-93 -31 -152 -71 -185 -129 -98 -166 41 -375 248 -375
141 0 323 95 408 213 54 75 33 183 -46 228 -59 34 -223 69 -320 68 -49 0 -97
-3 -105 -5z"/>
<path d="M1091 4102 c-37 -20 -71 -73 -71 -110 0 -65 50 -124 120 -142 68 -17
160 -51 160 -60 0 -24 -177 -70 -268 -70 -105 0 -160 -41 -170 -126 -10 -88
39 -144 125 -144 132 0 375 64 466 122 127 82 170 207 111 326 -44 89 -146
157 -305 201 -92 26 -124 26 -168 3z"/>
<path d="M4195 3757 c-157 -53 -237 -156 -239 -312 -1 -69 3 -88 27 -137 121
-246 450 -209 577 64 35 76 54 200 38 253 -26 82 -131 136 -278 141 -53 3
-100 -1 -125 -9z m115 -297 c-9 -18 -40 -40 -54 -40 -15 0 -4 31 16 44 33 23
51 21 38 -4z"/>
<path d="M1671 3700 c-127 -30 -159 -271 -55 -407 105 -138 297 -144 365 -11
45 87 31 202 -36 305 -68 104 -157 140 -274 113z"/>
<path d="M5195 3636 c-123 -31 -225 -111 -276 -219 -24 -52 -29 -75 -29 -138
0 -65 5 -85 31 -137 51 -104 136 -156 249 -155 143 2 269 80 329 203 22 46 26
68 26 140 0 102 -19 144 -104 233 -82 87 -120 99 -226 73z m35 -313 c0 -10
-32 -43 -42 -43 -12 0 -10 24 4 38 13 13 38 16 38 5z"/>
<path d="M3444 3370 c-58 -23 -214 -251 -214 -313 0 -62 54 -117 114 -117 14
0 50 9 80 21 106 39 189 167 190 292 1 65 -1 70 -32 98 -25 23 -41 29 -75 28
-23 0 -51 -4 -63 -9z"/>
<path d="M2460 3176 c-141 -26 -269 -81 -495 -216 -71 -42 -173 -98 -226 -123
-274 -131 -490 -387 -554 -655 -35 -144 0 -347 88 -517 33 -63 61 -98 130
-165 49 -47 173 -166 276 -265 192 -186 223 -208 360 -257 89 -32 281 -36 394
-9 94 22 233 76 307 119 221 128 415 276 557 425 72 75 119 133 266 331 88
117 133 246 124 357 -7 81 -46 200 -89 271 -46 76 -221 303 -289 373 -32 33
-65 79 -74 103 -33 83 -175 178 -325 217 -87 23 -347 29 -450 11z m337 -410
c32 -30 96 -87 142 -128 96 -83 298 -327 337 -406 33 -66 29 -117 -15 -176
-17 -23 -53 -73 -80 -112 -99 -142 -291 -322 -421 -396 -30 -17 -80 -48 -110
-68 -139 -94 -272 -143 -386 -143 -116 0 -175 33 -309 177 -61 64 -158 160
-217 211 -89 80 -112 106 -140 162 -29 59 -33 76 -32 143 1 58 7 88 27 132 54
120 156 222 289 289 97 49 180 99 328 199 204 137 280 166 447 169 l83 1 57
-54z"/>
<path d="M402 2234 c-55 -38 -64 -105 -31 -218 82 -274 314 -510 504 -511 76
0 129 27 170 84 25 36 30 52 30 104 0 91 -44 179 -138 271 -88 89 -124 113
-305 210 -150 79 -188 89 -230 60z m393 -443 c59 -61 47 -68 -19 -10 -52 46
-81 88 -49 71 10 -6 40 -33 68 -61z"/>
<path d="M4547 1845 c-22 -7 -49 -23 -62 -35 -22 -20 -25 -21 -53 -6 -93 48
-212 -24 -212 -129 0 -41 63 -307 90 -378 39 -102 92 -147 177 -147 126 0 169
81 218 410 26 174 27 187 12 223 -12 28 -27 43 -59 57 -51 23 -61 24 -111 5z"/>
</g>
</svg>
