<?xml version="1.0" standalone="no"?>
<!DOCTYPE svg PUBLIC "-//W3C//DTD SVG 20010904//EN"
 "http://www.w3.org/TR/2001/REC-SVG-20010904/DTD/svg10.dtd">
<svg version="1.0" xmlns="http://www.w3.org/2000/svg"
 width="600.000000pt" height="600.000000pt" viewBox="0 0 600.000000 600.000000"
 preserveAspectRatio="xMidYMid meet">
<metadata>
Created by potrace 1.15, written by Peter Selinger 2001-2017
</metadata>
<g transform="translate(0.000000,600.000000) scale(0.100000,-0.100000)"
fill="#16364b" stroke="none">
<path d="M1537 5750 c-42 -33 -54 -65 -81 -216 -32 -184 -38 -266 -26 -374 19
-164 81 -271 177 -304 57 -20 67 -20 130 -1 105 31 204 154 323 400 120 248
138 311 105 375 -31 60 -124 79 -186 37 -36 -24 -37 -26 -167 -297 -44 -91
-86 -174 -95 -185 -14 -18 -15 -16 -22 35 -8 67 9 235 36 348 23 94 17 132
-26 172 -37 35 -129 40 -168 10z"/>
<path d="M3255 5498 c-31 -24 -55 -74 -55 -114 0 -53 30 -91 138 -173 146
-111 186 -146 178 -160 -4 -6 -14 -11 -22 -11 -24 0 -64 -31 -80 -61 -32 -63
-10 -131 59 -177 78 -52 125 -67 213 -67 75 0 86 3 126 30 141 99 96 287 -118
497 -62 61 -203 174 -293 235 -45 30 -108 31 -146 1z"/>
<path d="M888 5500 c-112 -20 -237 -108 -290 -207 -90 -166 -73 -353 42 -472
53 -54 136 -101 181 -101 80 0 141 80 125 165 -6 31 -22 53 -72 101 -56 54
-64 66 -64 98 0 48 31 109 70 136 28 20 38 21 115 15 101 -9 135 2 166 52 30
47 22 113 -17 154 -44 46 -167 74 -256 59z"/>
<path d="M2987 5146 c-133 -36 -227 -166 -227 -310 1 -156 125 -230 297 -178
141 43 173 86 173 227 0 101 -10 147 -43 196 -43 64 -117 88 -200 65z"/>
<path d="M2285 5031 c-54 -33 -69 -58 -76 -126 -9 -93 -24 -109 -153 -170
-121 -57 -159 -90 -170 -150 -10 -50 8 -98 50 -135 54 -47 89 -42 251 37 152
76 214 126 257 210 49 97 54 234 12 299 -34 51 -118 68 -171 35z"/>
<path d="M4739 4797 c-60 -40 -71 -76 -65 -202 10 -186 57 -321 147 -419 81
-89 174 -120 271 -92 161 46 238 231 165 390 -51 111 -131 187 -309 292 -106
63 -152 69 -209 31z"/>
<path d="M2803 4140 c-182 -39 -287 -186 -229 -324 78 -187 371 -227 704 -96
107 43 144 80 150 154 7 83 -21 125 -117 175 -125 64 -229 93 -356 97 -60 2
-129 -1 -152 -6z"/>
<path d="M1005 4036 c-52 -32 -79 -78 -79 -137 0 -53 18 -86 68 -124 30 -23
53 -29 154 -41 66 -7 132 -18 147 -24 l28 -11 -24 -25 c-57 -61 -342 -259
-500 -346 -36 -20 -77 -49 -92 -64 -100 -100 -22 -276 123 -276 49 0 121 32
219 98 l35 23 25 -51 c50 -99 144 -115 243 -41 167 126 266 158 426 138 64 -8
101 5 142 51 68 78 61 171 -17 230 -44 33 -122 52 -163 39 -25 -8 -170 -23
-170 -17 0 2 11 18 25 36 101 133 91 304 -26 430 -80 87 -236 136 -433 136
-78 0 -97 -4 -131 -24z"/>
<path d="M4240 3781 c-133 -20 -237 -86 -288 -186 -21 -41 -26 -64 -26 -125 0
-91 28 -154 96 -216 65 -60 118 -77 225 -72 110 5 179 36 254 115 74 78 139
240 139 347 0 53 -37 98 -96 118 -60 20 -226 30 -304 19z m10 -296 c-26 -28
-50 -33 -50 -10 0 15 31 33 59 34 10 1 7 -7 -9 -24z"/>
<path d="M3395 3371 c-85 -38 -215 -224 -215 -305 0 -49 24 -92 63 -116 43
-27 165 -27 222 -1 53 24 129 110 149 168 24 70 21 162 -6 203 -46 67 -133 88
-213 51z"/>
<path d="M5040 3328 c-101 -56 -200 -156 -229 -232 -37 -100 -24 -216 35 -293
33 -44 115 -90 173 -98 147 -19 322 106 368 264 20 71 14 171 -15 228 -25 49
-94 131 -131 155 -47 32 -115 24 -201 -24z"/>
<path d="M1076 2850 c-60 -18 -115 -100 -99 -148 19 -63 31 -77 94 -118 89
-59 136 -107 166 -173 22 -45 25 -64 21 -120 -10 -132 -105 -251 -200 -251
-38 0 -61 17 -107 77 -54 70 -141 82 -193 25 -73 -78 -65 -158 27 -260 174
-193 499 -142 657 102 84 130 118 345 74 476 -47 141 -143 259 -277 342 -81
50 -119 61 -163 48z"/>
<path d="M2182 2796 c-116 -55 -152 -101 -223 -281 -41 -105 -47 -114 -131
-198 -48 -48 -88 -93 -88 -98 0 -6 -25 -39 -56 -72 -77 -86 -125 -161 -199
-312 -88 -180 -116 -274 -122 -405 -6 -123 14 -214 71 -328 44 -87 138 -213
208 -279 68 -63 201 -150 285 -186 178 -75 425 -73 655 7 165 58 296 168 418
352 191 290 279 552 297 884 6 129 -10 238 -48 312 -77 154 -183 224 -373 247
-143 17 -150 21 -204 125 -56 107 -121 182 -194 221 -46 25 -65 30 -148 33
-85 3 -101 0 -148 -22z m177 -472 c38 -74 161 -203 223 -235 22 -11 89 -26
169 -36 72 -9 137 -23 144 -30 36 -36 26 -202 -26 -401 -66 -257 -167 -429
-319 -543 -101 -75 -161 -94 -305 -94 -114 0 -124 2 -185 31 -132 63 -230 166
-270 284 -57 168 31 420 218 622 45 49 82 94 82 99 0 6 20 31 44 57 55 58 124
170 156 251 14 33 27 61 30 61 3 0 20 -30 39 -66z"/>
<path d="M4084 2321 c-76 -34 -120 -121 -112 -218 5 -52 4 -54 -16 -48 -83 25
-145 13 -202 -38 -70 -61 -95 -154 -74 -274 12 -72 100 -343 130 -403 35 -68
113 -120 180 -120 33 0 95 23 120 44 8 8 48 16 88 18 125 9 205 79 238 207 19
75 14 173 -17 341 -11 58 -31 170 -44 249 -18 109 -30 153 -49 181 -48 73
-156 100 -242 61z"/>
</g>
</svg>
