<?xml version="1.0" standalone="no"?>
<!DOCTYPE svg PUBLIC "-//W3C//DTD SVG 20010904//EN"
 "http://www.w3.org/TR/2001/REC-SVG-20010904/DTD/svg10.dtd">
<svg version="1.0" xmlns="http://www.w3.org/2000/svg"
 width="600.000000pt" height="600.000000pt" viewBox="0 0 600.000000 600.000000"
 preserveAspectRatio="xMidYMid meet">
<metadata>
Created by potrace 1.15, written by Peter Selinger 2001-2017
</metadata>
<g transform="translate(0.000000,600.000000) scale(0.100000,-0.100000)"
fill="#16364b" stroke="none">
<path d="M3063 5495 c-95 -41 -93 -173 4 -252 61 -50 85 -101 91 -193 3 -57
-1 -97 -18 -163 l-22 -87 23 -47 c60 -122 212 -126 269 -9 48 100 65 303 35
421 -35 138 -129 271 -227 319 -57 29 -107 32 -155 11z"/>
<path d="M2030 5443 c-58 -30 -80 -74 -80 -159 0 -155 63 -236 233 -304 32
-12 63 -32 69 -43 6 -12 15 -97 19 -190 6 -135 12 -176 27 -205 56 -110 208
-110 264 -1 18 34 18 45 4 245 -9 133 -20 225 -31 254 -41 113 -107 179 -226
224 -60 22 -64 26 -70 61 -16 99 -126 161 -209 118z"/>
<path d="M1450 4776 c-97 -15 -123 -27 -152 -74 -43 -70 -19 -171 53 -220 30
-21 41 -23 99 -18 254 24 376 16 500 -31 83 -31 139 -27 181 13 55 52 62 129
19 199 -27 43 -113 86 -231 115 -108 27 -346 35 -469 16z"/>
<path d="M4303 4640 c-36 -21 -62 -64 -65 -107 -5 -74 0 -83 83 -162 47 -44
91 -97 106 -124 28 -57 58 -166 68 -254 8 -74 36 -121 85 -145 102 -51 220 26
220 143 0 129 -48 309 -111 416 -41 70 -180 212 -231 236 -48 23 -115 22 -155
-3z"/>
<path d="M3188 4466 c-16 -8 -74 -57 -131 -109 -123 -112 -263 -218 -404 -305
-124 -77 -143 -98 -143 -163 0 -58 33 -103 98 -131 89 -40 131 -17 457 245
298 240 339 289 316 374 -23 84 -118 128 -193 89z"/>
<path d="M1623 4361 c-68 -43 -91 -128 -54 -205 33 -67 63 -80 251 -110 287
-46 466 -47 532 -2 79 53 102 147 52 213 -41 55 -69 63 -203 63 -85 0 -163 8
-268 26 -209 37 -270 40 -310 15z"/>
<path d="M3760 3941 c-25 -9 -90 -44 -145 -78 -174 -104 -235 -138 -430 -238
-104 -54 -198 -105 -209 -114 -23 -20 -51 -76 -60 -118 -11 -47 10 -108 46
-138 28 -24 39 -27 83 -23 70 7 423 184 629 318 87 56 181 111 209 121 61 22
93 51 108 96 30 93 -50 194 -153 193 -18 -1 -53 -9 -78 -19z"/>
<path d="M2221 3795 c-144 -37 -238 -47 -426 -43 l-171 3 -38 -29 c-87 -66
-86 -183 3 -241 87 -57 427 -60 655 -6 71 17 145 39 165 48 102 50 108 195 12
258 -54 35 -94 37 -200 10z"/>
<path d="M5015 3611 c-68 -31 -120 -98 -139 -175 -4 -16 -2 -77 4 -135 21
-188 3 -235 -259 -644 -212 -332 -211 -330 -211 -409 1 -102 44 -174 131 -218
60 -31 151 -24 217 17 71 44 111 100 343 493 198 336 233 433 232 665 0 241
-44 354 -158 406 -22 10 -58 19 -80 19 -22 0 -58 -9 -80 -19z"/>
<path d="M1983 3139 c-45 -22 -83 -82 -83 -130 0 -44 42 -112 84 -135 50 -28
175 -61 301 -79 71 -10 118 -24 161 -46 74 -37 117 -33 169 15 74 70 68 165
-16 240 -61 54 -128 78 -274 96 -55 7 -136 23 -179 36 -97 29 -110 29 -163 3z"/>
<path d="M4391 3124 c-19 -8 -62 -38 -95 -68 -237 -207 -435 -293 -768 -335
-162 -21 -193 -34 -222 -95 -51 -107 21 -226 136 -226 56 0 221 23 323 45 284
62 554 206 752 400 90 88 106 131 77 203 -32 77 -122 111 -203 76z"/>
<path d="M1395 2955 c-53 -19 -111 -82 -126 -136 -14 -54 -6 -262 16 -394 22
-137 81 -356 125 -469 39 -100 121 -249 176 -321 114 -149 336 -59 336 136 0
61 -4 71 -85 202 -107 175 -177 453 -177 707 0 58 -5 122 -11 143 -15 54 -71
112 -126 131 -56 19 -76 19 -128 1z"/>
<path d="M2104 2361 c-52 -9 -89 -33 -115 -74 -29 -46 -22 -123 15 -171 41
-54 72 -66 173 -66 109 0 151 -11 203 -55 73 -61 161 -56 232 13 72 69 62 153
-28 227 -129 105 -313 153 -480 126z"/>
<path d="M4150 2088 c-25 -5 -97 -22 -160 -38 -63 -16 -191 -45 -285 -65 -93
-20 -219 -47 -280 -60 -155 -35 -230 -45 -393 -55 -159 -10 -183 -18 -236 -83
-28 -35 -31 -45 -31 -111 0 -62 4 -78 28 -114 33 -50 91 -82 149 -82 24 0 167
18 318 40 404 59 481 74 755 145 94 24 196 49 228 55 159 32 224 226 111 332
-51 48 -105 57 -204 36z"/>
<path d="M4794 1691 c-22 -10 -63 -44 -89 -75 -125 -144 -218 -192 -580 -295
-599 -170 -619 -177 -654 -235 -26 -42 -36 -99 -27 -149 13 -72 117 -156 192
-157 17 0 113 27 215 59 101 33 283 87 404 121 373 103 458 138 571 228 73 59
191 195 215 247 22 48 25 135 5 173 -46 88 -159 125 -252 83z"/>
<path d="M2140 1609 c-75 -16 -134 -122 -109 -197 32 -98 197 -283 311 -350
156 -92 304 -125 371 -83 87 53 89 200 5 255 -13 8 -52 24 -88 35 -126 40
-222 111 -294 219 -24 37 -55 77 -68 89 -30 28 -84 41 -128 32z"/>
<path d="M2076 980 c-113 -34 -168 -163 -117 -275 39 -87 225 -214 401 -274
200 -69 442 -98 594 -71 107 19 310 88 357 122 130 94 89 293 -70 334 -56 14
-77 10 -221 -41 -107 -39 -270 -46 -390 -17 -117 28 -229 77 -342 151 -87 56
-144 83 -173 80 -5 0 -23 -5 -39 -9z"/>
</g>
</svg>
