<?xml version="1.0" standalone="no"?>
<!DOCTYPE svg PUBLIC "-//W3C//DTD SVG 20010904//EN"
 "http://www.w3.org/TR/2001/REC-SVG-20010904/DTD/svg10.dtd">
<svg version="1.0" xmlns="http://www.w3.org/2000/svg"
 width="600.000000pt" height="600.000000pt" viewBox="0 0 600.000000 600.000000"
 preserveAspectRatio="xMidYMid meet">
<metadata>
Created by potrace 1.15, written by Peter Selinger 2001-2017
</metadata>
<g transform="translate(0.000000,600.000000) scale(0.100000,-0.100000)"
fill="#16364b" stroke="none">
<path d="M3104 5640 c-11 -4 -33 -22 -47 -40 -86 -101 53 -321 318 -505 126
-87 165 -119 165 -135 0 -21 -53 -63 -216 -171 -76 -50 -175 -118 -219 -149
-44 -31 -125 -77 -180 -100 -186 -81 -253 -142 -263 -240 -6 -64 26 -132 79
-167 51 -34 141 -42 193 -18 46 22 86 79 86 121 0 17 6 36 13 42 14 11 102 37
162 47 31 5 51 18 90 59 28 29 84 74 125 101 295 188 423 335 424 485 0 121
-59 198 -257 332 -153 104 -213 160 -262 243 -22 38 -53 76 -70 86 -32 20
-104 24 -141 9z"/>
<path d="M1182 5365 c-77 -36 -164 -106 -216 -175 -119 -160 -186 -405 -157
-580 14 -86 59 -195 96 -235 92 -99 255 -31 255 106 0 18 -12 67 -26 108 -63
183 5 367 178 477 89 57 110 91 105 167 -4 64 -23 98 -77 135 -43 29 -92 28
-158 -3z"/>
<path d="M1653 5250 c-47 -28 -66 -63 -67 -123 0 -38 6 -64 22 -90 l22 -38
-31 -62 c-90 -177 -107 -293 -56 -379 57 -98 156 -140 327 -140 139 -1 208 14
248 53 59 58 66 139 15 199 -45 55 -72 62 -189 54 -57 -4 -104 -4 -104 -1 0 3
18 46 39 95 52 118 71 185 71 246 -1 94 -57 173 -138 196 -58 16 -123 12 -159
-10z"/>
<path d="M4545 4666 c-16 -7 -41 -26 -55 -41 -21 -22 -25 -36 -25 -90 0 -105
48 -151 173 -168 88 -11 100 -27 21 -27 -62 0 -123 -30 -144 -70 -35 -68 -8
-159 58 -195 68 -36 280 -4 410 61 109 56 171 140 171 234 1 139 -110 222
-369 275 -162 33 -205 37 -240 21z"/>
<path d="M1860 4270 c-127 -17 -289 -102 -392 -204 -53 -53 -73 -101 -63 -154
14 -74 70 -122 144 -122 51 0 86 14 128 50 80 70 202 112 315 108 54 -3 72 1
95 18 36 26 73 98 73 144 0 53 -38 121 -80 141 -44 22 -136 30 -220 19z"/>
<path d="M2515 3736 c-83 -17 -171 -47 -225 -77 -44 -25 -80 -85 -80 -133 0
-67 59 -137 133 -157 36 -9 52 -7 129 16 48 15 124 29 169 32 l82 6 -6 -47
c-14 -98 -93 -242 -269 -487 -184 -255 -178 -245 -178 -302 0 -87 59 -147 146
-147 l38 0 -54 -34 c-72 -45 -95 -84 -95 -163 0 -52 4 -68 30 -105 38 -54 102
-88 166 -88 36 0 84 16 196 63 160 69 273 110 280 103 9 -8 -81 -223 -148
-353 -76 -148 -86 -182 -70 -240 39 -143 227 -179 325 -63 38 46 237 447 269
543 35 103 42 161 27 233 -15 74 -31 105 -83 161 -129 140 -328 141 -679 3
-94 -36 -118 -39 -81 -9 29 25 192 246 291 397 164 249 205 354 206 523 1 91
-1 100 -34 165 -40 78 -94 123 -183 149 -74 22 -218 27 -302 11z"/>
<path d="M3966 3735 c-21 -7 -54 -28 -72 -46 -129 -125 -49 -365 156 -463 57
-27 75 -31 150 -31 99 1 156 21 212 77 42 43 78 116 78 160 0 36 -32 95 -61
116 -12 8 -19 25 -19 44 0 36 -39 92 -78 112 -81 41 -288 59 -366 31z"/>
<path d="M1220 3572 c-120 -12 -367 -139 -423 -218 -41 -58 -47 -143 -15 -199
53 -90 161 -118 271 -70 21 9 29 34 -79 -245 -45 -118 -94 -253 -107 -300 -30
-102 -67 -314 -67 -379 1 -64 30 -124 80 -160 61 -44 171 -64 224 -40 41 19
403 419 601 663 l80 99 3 -56 c5 -97 -42 -325 -128 -627 -59 -206 -71 -267
-73 -370 -2 -79 1 -102 19 -135 53 -101 200 -115 264 -25 17 24 23 48 25 108
3 81 12 120 75 342 89 312 130 572 130 828 0 248 -27 326 -131 380 -51 27
-107 24 -171 -9 -55 -28 -161 -140 -315 -331 -74 -92 -139 -171 -144 -174 -5
-3 5 32 22 78 119 318 152 449 147 579 -3 92 -5 99 -40 152 -53 79 -144 120
-248 109z"/>
<path d="M3637 3289 c-91 -22 -183 -92 -236 -181 -35 -58 -71 -177 -71 -232 0
-145 171 -209 269 -102 19 20 34 26 67 26 61 0 167 36 215 73 139 106 110 312
-54 391 -60 28 -135 39 -190 25z"/>
<path d="M4702 3059 c-57 -28 -87 -84 -79 -148 7 -57 29 -124 73 -220 29 -64
33 -80 28 -125 -9 -73 19 -126 81 -156 107 -52 232 3 254 111 12 58 -5 122
-72 265 -36 77 -68 155 -71 175 -7 42 -46 85 -93 105 -45 19 -71 17 -121 -7z"/>
<path d="M4445 2303 c-109 -57 -153 -169 -125 -313 4 -25 6 -47 4 -49 -3 -3
-55 7 -117 22 -62 15 -152 32 -202 38 -221 26 -374 -65 -436 -259 -27 -82 -36
-312 -21 -500 9 -109 13 -129 39 -170 74 -120 271 -132 381 -21 72 71 77 92
75 302 -3 175 -2 188 15 183 9 -3 53 -15 97 -26 44 -12 97 -26 117 -32 50 -14
207 4 281 32 81 30 166 111 202 192 22 49 30 82 33 149 4 84 -15 236 -40 321
-14 49 -61 104 -109 128 -48 25 -150 26 -194 3z"/>
<path d="M2135 1841 c-51 -23 -101 -79 -114 -128 -12 -43 -1 -203 25 -363 29
-178 119 -404 199 -500 74 -89 274 -225 391 -266 45 -15 57 -16 94 -5 23 7 62
31 86 53 l43 40 88 -55 c116 -73 195 -99 298 -99 249 0 441 217 324 366 -57
72 -187 93 -272 43 -25 -15 -52 -27 -59 -27 -8 0 -73 34 -144 76 -115 69 -143
91 -261 210 -73 73 -146 140 -162 148 -46 24 -123 20 -181 -9 l-49 -25 -5 28
c-11 54 -17 120 -25 252 -6 95 -13 145 -25 168 -50 97 -156 137 -251 93z"/>
</g>
</svg>
