<?xml version="1.0" standalone="no"?>
<!DOCTYPE svg PUBLIC "-//W3C//DTD SVG 20010904//EN"
 "http://www.w3.org/TR/2001/REC-SVG-20010904/DTD/svg10.dtd">
<svg version="1.0" xmlns="http://www.w3.org/2000/svg"
 width="600.000000pt" height="600.000000pt" viewBox="0 0 600.000000 600.000000"
 preserveAspectRatio="xMidYMid meet">
<metadata>
Created by potrace 1.15, written by Peter Selinger 2001-2017
</metadata>
<g transform="translate(0.000000,600.000000) scale(0.100000,-0.100000)"
fill="#16364b" stroke="none">
<path d="M3134 5651 c-31 -14 -47 -30 -64 -66 -20 -42 -22 -57 -18 -153 6
-138 32 -198 128 -293 55 -55 89 -77 188 -125 67 -33 121 -62 122 -65 0 -4
-73 -53 -162 -110 -384 -244 -448 -295 -448 -355 0 -17 -12 -31 -40 -49 -103
-65 -108 -239 -10 -290 42 -22 104 -18 227 11 81 20 133 27 208 26 119 0 156
9 189 49 69 82 21 221 -83 244 -17 4 -29 10 -26 14 2 5 78 50 168 101 269 152
347 232 347 354 -1 130 -90 213 -340 315 -155 64 -180 93 -180 214 0 107 -31
159 -109 186 -44 14 -48 14 -97 -8z"/>
<path d="M1265 5385 c-210 -112 -341 -291 -409 -561 -42 -166 -41 -373 2 -448
42 -73 162 -96 236 -45 54 37 70 74 62 145 -17 164 -17 181 -2 251 18 90 62
183 121 260 44 57 60 71 160 136 70 46 98 90 92 148 -11 121 -142 177 -262
114z"/>
<path d="M1484 5042 c-136 -29 -178 -73 -172 -180 4 -57 7 -66 41 -100 37 -37
38 -37 120 -36 l82 1 -24 -71 c-32 -94 -39 -222 -17 -298 19 -68 86 -146 146
-173 l42 -19 -84 -42 c-117 -60 -209 -123 -235 -163 -29 -44 -31 -122 -4 -167
24 -39 76 -64 134 -64 35 0 56 8 94 34 106 73 254 134 376 157 75 13 106 30
136 75 66 96 -7 234 -125 234 l-42 0 5 39 c3 22 3 51 -1 65 -10 39 -63 93
-104 107 -20 6 -40 14 -44 18 -4 3 13 65 38 136 37 108 45 143 45 205 1 112
-36 187 -114 230 -56 32 -178 37 -293 12z"/>
<path d="M4451 4547 c-38 -10 -87 -66 -95 -111 -7 -38 6 -101 27 -126 6 -9 25
-25 41 -38 26 -20 40 -22 149 -22 142 0 144 9 -26 -128 -84 -67 -124 -106
-134 -131 -52 -124 92 -261 202 -192 50 31 326 273 387 340 43 46 62 76 74
117 37 128 -39 241 -188 279 -59 15 -391 25 -437 12z"/>
<path d="M3973 3689 c-80 -15 -138 -61 -167 -131 -30 -71 -12 -139 55 -212
111 -121 318 -196 422 -152 75 31 127 124 113 200 -5 24 -20 46 -46 69 -31 26
-40 41 -40 65 0 43 -14 76 -46 105 -46 43 -203 73 -291 56z"/>
<path d="M2620 3684 c-77 -12 -148 -31 -260 -71 -102 -36 -131 -51 -157 -80
-42 -46 -46 -111 -10 -163 55 -81 131 -99 237 -56 79 33 167 56 209 56 28 0
31 -3 31 -33 0 -87 -56 -208 -224 -486 -158 -261 -156 -258 -156 -310 0 -42
18 -85 41 -101 5 -3 3 -24 -3 -48 -6 -23 -7 -57 -4 -77 9 -45 59 -103 111
-126 68 -31 112 -25 299 45 94 36 184 68 199 71 27 7 28 6 21 -21 -6 -29 -107
-283 -157 -399 -30 -67 -34 -129 -13 -178 42 -99 176 -140 281 -85 51 27 82
69 134 178 140 298 192 485 170 619 -33 209 -198 309 -441 268 -52 -9 -129
-27 -171 -41 -43 -13 -77 -22 -77 -19 0 3 29 51 64 106 140 225 212 373 237
487 18 83 8 216 -21 275 -48 98 -128 163 -228 184 -53 11 -65 11 -112 5z"/>
<path d="M1137 3519 c-126 -30 -356 -193 -387 -275 -28 -72 -2 -156 63 -208
50 -40 142 -48 200 -18 20 11 37 16 37 11 0 -6 -22 -85 -49 -177 -84 -283
-170 -604 -182 -675 -17 -103 -9 -169 27 -214 46 -56 72 -71 157 -88 73 -15
79 -15 121 3 30 14 65 46 119 108 41 49 112 132 157 184 121 140 266 315 340
407 36 45 68 82 72 83 33 1 7 -183 -63 -445 -52 -196 -96 -417 -104 -530 -15
-198 58 -325 184 -325 119 0 186 98 147 213 -13 40 -14 63 -6 150 12 115 57
354 100 527 68 271 81 372 70 567 -8 141 -26 202 -78 257 -56 60 -153 81 -244
54 -68 -20 -156 -112 -282 -293 -102 -146 -201 -275 -204 -266 -2 5 15 70 38
144 65 216 90 340 97 473 7 149 -8 205 -72 269 -65 66 -156 88 -258 64z"/>
<path d="M4604 3249 c-18 -5 -46 -25 -63 -44 -26 -30 -31 -44 -31 -89 0 -71
26 -108 121 -171 87 -58 125 -89 156 -128 30 -39 16 -74 -52 -132 -63 -54 -79
-89 -72 -151 9 -87 100 -147 186 -124 51 13 128 74 174 137 57 78 80 145 80
238 1 69 -3 89 -30 146 -16 36 -45 82 -64 104 -72 82 -299 226 -352 224 -12 0
-36 -5 -53 -10z"/>
<path d="M3608 3216 c-95 -39 -169 -114 -222 -226 -25 -53 -31 -78 -31 -132 0
-60 3 -70 30 -98 74 -77 200 -56 255 42 13 23 26 35 35 32 21 -9 163 16 209
36 46 20 94 63 107 98 13 34 11 98 -5 135 -47 113 -240 170 -378 113z"/>
<path d="M4520 2254 c-46 -20 -77 -50 -103 -99 -18 -32 -22 -56 -21 -122 0
-59 -3 -83 -12 -83 -6 0 -56 9 -110 21 -126 27 -326 36 -402 19 -173 -38 -270
-152 -290 -340 -10 -91 0 -534 12 -561 6 -13 -2 -19 -41 -28 -26 -7 -62 -21
-79 -31 l-30 -19 -40 26 c-21 15 -90 70 -152 122 -62 53 -139 118 -170 144
-201 169 -421 168 -506 -2 -13 -25 -27 -61 -31 -79 -3 -18 -10 -30 -14 -27 -9
5 -11 22 -41 304 -22 210 -32 243 -86 291 -104 91 -268 42 -304 -91 -9 -32 -8
-57 5 -117 8 -42 22 -148 30 -237 42 -449 84 -552 280 -682 189 -126 327 -155
412 -86 57 45 77 86 75 152 -3 131 -2 194 3 200 7 7 42 -14 205 -120 74 -48
167 -103 205 -121 64 -30 78 -33 165 -33 84 0 102 3 151 28 31 15 77 49 102
76 48 51 63 92 55 155 l-4 34 55 5 c72 8 137 49 176 112 l30 49 -1 208 c-1
114 1 208 5 208 3 0 56 -10 116 -21 213 -41 394 -35 496 17 124 62 188 162
205 320 9 86 -11 228 -42 292 -52 106 -197 162 -304 116z"/>
</g>
</svg>
