<?xml version="1.0" standalone="no"?>
<!DOCTYPE svg PUBLIC "-//W3C//DTD SVG 20010904//EN"
 "http://www.w3.org/TR/2001/REC-SVG-20010904/DTD/svg10.dtd">
<svg version="1.0" xmlns="http://www.w3.org/2000/svg"
 width="600.000000pt" height="600.000000pt" viewBox="0 0 600.000000 600.000000"
 preserveAspectRatio="xMidYMid meet">
<metadata>
Created by potrace 1.15, written by Peter Selinger 2001-2017
</metadata>
<g transform="translate(0.000000,600.000000) scale(0.100000,-0.100000)"
fill="#16364b" stroke="none">
<path d="M1905 5805 c-51 -23 -71 -47 -121 -140 -26 -49 -87 -160 -136 -245
-105 -183 -144 -264 -158 -325 -27 -121 61 -225 190 -225 95 0 253 69 384 168
110 84 311 273 329 310 22 46 18 118 -9 155 -24 33 -90 67 -132 67 -47 0 -70
-12 -161 -84 -47 -36 -86 -64 -88 -62 -2 2 21 51 52 110 34 65 55 119 55 139
0 47 -32 99 -76 124 -45 26 -86 28 -129 8z"/>
<path d="M3000 5674 c-43 -36 -60 -74 -60 -132 0 -66 19 -88 143 -168 243
-158 378 -283 445 -411 68 -131 56 -170 -58 -188 -85 -13 -130 -65 -130 -148
0 -90 50 -147 129 -147 60 0 148 23 212 55 148 75 223 228 190 386 -13 63 -66
174 -126 264 -98 146 -307 331 -517 455 -86 51 -109 60 -149 60 -37 0 -55 -6
-79 -26z"/>
<path d="M952 5414 c-94 -25 -162 -64 -232 -133 -187 -185 -193 -428 -17 -641
121 -147 233 -170 313 -65 58 77 37 188 -47 250 -57 42 -83 88 -83 147 0 81
51 132 152 149 99 18 152 74 152 162 0 54 -30 102 -80 128 -41 22 -85 23 -158
3z"/>
<path d="M2894 5109 c-52 -15 -130 -93 -165 -165 -36 -73 -49 -172 -30 -240
15 -58 79 -126 143 -154 103 -45 300 -24 348 37 11 14 25 44 32 66 10 33 9 47
-5 87 -9 26 -17 65 -18 86 -1 98 -78 227 -160 267 -55 28 -91 32 -145 16z"/>
<path d="M4775 4893 c-40 -21 -84 -62 -101 -95 -23 -45 -19 -210 9 -304 47
-163 157 -302 269 -340 139 -47 275 3 334 123 26 55 31 186 9 255 -46 141
-183 284 -341 354 -63 28 -134 31 -179 7z"/>
<path d="M1934 4731 c-139 -40 -189 -89 -182 -179 6 -64 29 -99 89 -130 52
-27 97 -25 172 8 60 26 72 19 87 -54 17 -81 72 -126 157 -126 62 0 112 27 141
76 20 33 22 48 18 104 -12 140 -108 269 -228 305 -67 20 -177 18 -254 -4z"/>
<path d="M2898 4005 c-124 -34 -217 -144 -218 -257 0 -101 67 -211 159 -261
79 -43 164 -57 361 -57 204 0 229 7 268 81 19 35 22 53 18 91 -6 39 -2 52 18
83 35 51 41 93 21 141 -25 60 -62 91 -149 125 -165 64 -362 86 -478 54z"/>
<path d="M1085 3977 c-60 -13 -124 -31 -142 -40 -65 -34 -102 -125 -82 -199
26 -98 76 -140 176 -148 l62 -5 -119 -160 c-66 -88 -141 -200 -169 -250 -47
-86 -205 -447 -231 -529 -38 -119 55 -236 189 -236 64 0 102 18 166 81 142
138 752 619 785 619 9 0 10 -15 5 -52 -28 -207 -234 -687 -442 -1031 -49 -83
-87 -157 -90 -178 -20 -140 150 -233 259 -141 70 59 230 335 333 577 61 143
146 399 197 595 36 139 40 168 42 285 1 123 -1 133 -26 185 -31 64 -68 95
-132 112 -95 25 -223 -21 -420 -152 -122 -80 -122 -83 8 90 166 220 196 333
126 470 -23 44 -52 71 -110 101 -67 34 -234 37 -385 6z"/>
<path d="M4230 3786 c-123 -28 -222 -102 -276 -207 -21 -42 -28 -72 -32 -136
-4 -75 -2 -88 23 -139 63 -129 230 -186 394 -135 158 49 253 160 310 363 25
88 19 143 -21 185 -36 39 -71 52 -175 68 -115 17 -149 18 -223 1z m80 -305 c0
-12 -21 -27 -49 -36 -31 -10 -24 15 10 32 29 15 39 16 39 4z"/>
<path d="M3424 3390 c-50 -25 -91 -75 -137 -166 -84 -165 -94 -241 -40 -305
35 -41 59 -49 159 -50 99 -1 156 21 204 79 59 71 87 226 59 327 -32 115 -141
166 -245 115z"/>
<path d="M4958 3061 c-63 -32 -170 -123 -214 -183 -109 -149 -113 -321 -9
-417 67 -61 143 -75 246 -45 165 49 270 184 273 349 1 99 -17 152 -80 228 -73
88 -138 109 -216 68z"/>
<path d="M3985 2611 c-94 -24 -164 -98 -185 -198 -11 -50 -9 -59 35 -189 25
-75 44 -138 43 -140 -2 -2 -24 4 -48 14 -67 25 -232 23 -285 -3 -132 -65 -181
-210 -140 -420 33 -174 147 -507 193 -564 120 -148 364 -91 419 99 15 51 15
60 -1 123 -10 38 -16 71 -13 73 3 3 18 -1 34 -9 68 -34 149 -28 254 19 64 29
116 79 150 146 31 60 37 189 14 295 -32 143 -198 602 -240 663 -45 66 -156
109 -230 91z"/>
<path d="M2063 2221 c-103 -26 -229 -156 -314 -321 -31 -61 -31 -133 0 -183
l23 -37 -56 -60 c-135 -147 -184 -309 -174 -581 9 -232 71 -375 230 -526 264
-254 616 -331 932 -204 162 65 301 185 370 319 20 39 23 121 6 161 -10 26 -7
35 31 97 88 144 163 338 231 594 25 97 33 146 33 216 0 84 -2 95 -37 166 -111
224 -287 263 -593 130 -60 -26 -159 -78 -218 -116 -60 -37 -110 -66 -111 -64
-2 1 -11 39 -20 83 -35 179 -74 255 -150 300 -49 29 -128 40 -183 26z m902
-663 c-34 -165 -101 -339 -201 -518 -32 -58 -35 -71 -31 -120 2 -30 8 -63 12
-72 10 -26 -84 -121 -156 -157 -184 -92 -401 -51 -554 103 -86 87 -107 139
-113 292 -7 161 32 258 127 321 l48 31 18 -56 c53 -171 123 -242 237 -242 65
0 112 22 152 73 28 36 31 45 31 114 l0 76 145 95 c184 120 294 178 298 157 2
-8 -4 -52 -13 -97z"/>
</g>
</svg>
