<?xml version="1.0" standalone="no"?>
<!DOCTYPE svg PUBLIC "-//W3C//DTD SVG 20010904//EN"
 "http://www.w3.org/TR/2001/REC-SVG-20010904/DTD/svg10.dtd">
<svg version="1.0" xmlns="http://www.w3.org/2000/svg"
 width="600.000000pt" height="600.000000pt" viewBox="0 0 600.000000 600.000000"
 preserveAspectRatio="xMidYMid meet">
<metadata>
Created by potrace 1.15, written by Peter Selinger 2001-2017
</metadata>
<g transform="translate(0.000000,600.000000) scale(0.100000,-0.100000)"
fill="#16364b" stroke="none">
<path d="M3090 5668 c-56 -39 -74 -72 -75 -136 0 -73 27 -117 99 -160 91 -54
262 -179 324 -237 73 -67 107 -130 98 -180 -9 -48 -90 -133 -184 -193 -65 -42
-233 -132 -245 -132 -3 0 -12 20 -22 45 -22 60 -73 95 -135 95 -55 0 -157 -47
-246 -113 -72 -53 -103 -91 -140 -171 -22 -49 -26 -68 -22 -130 3 -60 9 -82
33 -122 58 -93 171 -154 286 -154 66 0 109 24 132 73 42 87 -5 182 -104 211
-24 7 -45 18 -47 24 -4 13 72 66 133 92 26 11 48 20 50 20 1 0 5 -13 8 -29 13
-62 89 -121 157 -121 35 0 224 96 348 176 166 108 271 251 294 401 29 185 -61
330 -340 551 -181 142 -202 157 -258 187 -58 31 -101 32 -144 3z"/>
<path d="M1985 5556 c-16 -7 -41 -26 -55 -41 -14 -15 -100 -105 -191 -200
-223 -232 -289 -335 -289 -449 1 -86 63 -168 155 -202 64 -24 268 -24 401 0
105 19 303 79 355 108 51 28 73 71 74 139 0 46 -5 63 -28 93 -31 40 -74 66
-110 66 -13 0 -68 -13 -123 -30 -94 -28 -254 -61 -263 -54 -2 2 25 35 61 72
111 118 196 222 218 266 25 53 26 121 1 166 -35 67 -132 98 -206 66z"/>
<path d="M1061 5322 c-217 -115 -351 -310 -351 -510 0 -176 99 -394 212 -470
82 -54 209 -19 245 65 23 57 10 109 -43 173 -63 78 -88 133 -92 210 -6 104 32
164 151 243 66 44 96 89 103 154 6 60 -24 117 -76 144 -48 26 -86 24 -149 -9z"/>
<path d="M4683 4811 c-70 -32 -102 -104 -78 -174 12 -35 12 -44 -1 -68 -23
-45 -17 -91 23 -170 43 -87 125 -174 198 -210 68 -33 180 -34 241 -2 65 34
141 125 160 190 52 180 -101 354 -377 428 -112 30 -113 30 -166 6z"/>
<path d="M1870 4340 c-139 -18 -295 -108 -372 -214 -57 -80 -25 -201 65 -245
73 -36 126 -24 183 41 45 52 99 88 151 104 41 13 53 12 102 -2 62 -18 100 -14
141 16 33 24 70 94 70 135 0 42 -35 108 -67 126 -55 32 -186 51 -273 39z"/>
<path d="M2528 3790 c-71 -13 -158 -40 -185 -57 -72 -47 -70 -185 5 -243 48
-39 96 -44 189 -20 95 24 212 35 231 22 28 -19 -55 -208 -161 -367 -57 -85
-109 -150 -262 -325 -74 -85 -91 -129 -75 -189 14 -54 43 -87 95 -106 50 -20
102 -14 150 15 39 24 193 198 268 302 78 110 180 280 227 381 106 225 106 392
1 497 -72 72 -134 92 -301 96 -74 1 -156 -1 -182 -6z"/>
<path d="M4165 3759 c-153 -25 -254 -104 -286 -223 -23 -84 22 -209 99 -277
97 -85 252 -109 364 -55 95 45 181 147 231 274 22 55 21 89 -3 166 -26 78 -51
103 -119 116 -62 12 -214 11 -286 -1z m72 -285 c-3 -3 -12 -4 -19 -1 -8 3 -5
6 6 6 11 1 17 -2 13 -5z"/>
<path d="M1180 3664 c-55 -11 -131 -40 -238 -91 -91 -43 -117 -61 -137 -92
-54 -81 -42 -168 35 -243 64 -62 131 -81 208 -59 18 5 32 6 32 1 0 -8 -23 -59
-103 -230 -55 -118 -94 -238 -153 -467 -57 -226 -65 -293 -37 -350 40 -84 172
-126 266 -85 64 28 240 202 443 437 229 266 261 301 267 295 3 -3 -3 -61 -13
-130 -36 -239 -99 -526 -161 -725 -75 -245 -82 -318 -36 -378 39 -51 79 -70
138 -65 51 5 99 36 119 78 7 14 29 93 51 175 21 83 56 211 78 285 74 246 114
481 133 787 14 217 6 290 -37 355 -29 43 -91 77 -141 78 -48 0 -112 -26 -168
-69 -48 -36 -279 -266 -361 -359 -21 -23 -40 -40 -42 -38 -3 2 28 78 67 168
139 312 164 425 121 538 -24 64 -83 130 -142 160 -40 21 -140 33 -189 24z"/>
<path d="M3525 3317 c-95 -45 -168 -157 -201 -305 -26 -119 -10 -184 58 -235
36 -27 108 -33 148 -13 18 8 55 19 84 22 238 31 365 193 296 377 -38 102 -136
168 -260 174 -64 3 -83 0 -125 -20z"/>
<path d="M4760 2853 c-64 -32 -120 -86 -152 -145 -19 -35 -23 -58 -23 -128 1
-77 4 -91 35 -148 67 -125 202 -197 296 -157 86 35 124 100 132 221 6 97 0
122 -33 162 -20 25 -23 34 -15 60 12 46 -5 95 -46 131 -47 42 -116 43 -194 4z"/>
<path d="M2930 2495 c-142 -30 -376 -113 -507 -179 -95 -47 -126 -87 -131
-171 -11 -162 133 -252 288 -179 170 80 376 161 386 152 10 -11 -57 -183 -152
-391 -62 -136 -69 -190 -33 -265 55 -112 215 -134 294 -40 36 43 259 497 290
591 36 109 37 214 2 290 -55 121 -164 195 -298 202 -42 3 -102 -2 -139 -10z"/>
<path d="M4400 2371 c-137 -42 -179 -141 -150 -356 4 -33 4 -63 1 -68 -4 -4
-41 7 -82 24 -96 40 -210 69 -269 69 -90 0 -148 -27 -225 -104 -129 -129 -170
-246 -162 -456 5 -132 30 -302 53 -357 36 -85 136 -153 228 -153 73 0 123 19
171 66 63 60 78 119 66 244 -24 240 -25 254 -4 245 10 -4 41 -15 69 -25 28
-10 65 -25 82 -34 39 -20 120 -21 197 -1 180 46 285 160 316 340 21 120 -5
376 -46 454 -24 48 -92 99 -147 110 -55 12 -63 12 -98 2z"/>
<path d="M2085 1884 c-75 -38 -115 -103 -115 -183 0 -63 21 -115 64 -161 28
-29 38 -53 61 -150 15 -63 43 -159 61 -212 19 -53 34 -114 34 -136 0 -59 38
-157 85 -220 63 -85 217 -235 288 -282 104 -68 271 -149 344 -166 114 -27 214
-6 375 78 140 72 190 140 175 234 -13 80 -100 147 -192 147 -39 1 -67 -8 -124
-37 -88 -45 -121 -45 -218 -1 l-61 27 0 52 c1 53 -18 102 -51 135 -10 10 -39
50 -64 88 -53 83 -125 154 -178 178 -36 17 -39 22 -69 119 -17 55 -43 139 -57
185 -67 219 -160 321 -293 321 -19 0 -48 -7 -65 -16z"/>
</g>
</svg>
