<?xml version="1.0" standalone="no"?>
<!DOCTYPE svg PUBLIC "-//W3C//DTD SVG 20010904//EN"
 "http://www.w3.org/TR/2001/REC-SVG-20010904/DTD/svg10.dtd">
<svg version="1.0" xmlns="http://www.w3.org/2000/svg"
 width="600.000000pt" height="600.000000pt" viewBox="0 0 600.000000 600.000000"
 preserveAspectRatio="xMidYMid meet">
<metadata>
Created by potrace 1.15, written by Peter Selinger 2001-2017
</metadata>
<g transform="translate(0.000000,600.000000) scale(0.100000,-0.100000)"
fill="#16364b" stroke="none">
<path d="M2115 5456 c-50 -23 -74 -58 -95 -141 -24 -94 -25 -138 -5 -196 35
-98 109 -137 283 -147 67 -4 117 -11 117 -17 0 -5 -19 -67 -43 -136 -42 -129
-72 -269 -72 -343 0 -88 65 -156 147 -156 93 0 134 50 157 195 9 55 40 167 69
250 44 128 51 161 51 225 0 62 -4 84 -26 125 -33 63 -59 87 -130 120 -41 18
-81 28 -142 32 l-86 6 0 39 c0 50 -21 90 -64 123 -42 32 -117 42 -161 21z"/>
<path d="M3411 5422 c-47 -23 -72 -61 -78 -115 -11 -96 33 -157 119 -164 84
-7 106 -19 119 -66 15 -56 5 -122 -38 -247 -39 -116 -40 -158 -4 -209 12 -16
41 -37 66 -47 39 -14 52 -15 87 -5 57 18 81 48 121 159 53 142 69 216 69 312
-1 196 -107 338 -287 385 -77 20 -132 19 -174 -3z"/>
<path d="M1690 4813 c-95 -9 -241 -36 -307 -55 -83 -24 -124 -60 -144 -127
-17 -59 -4 -108 42 -154 37 -38 40 -39 96 -34 32 2 108 17 168 32 100 26 127
28 295 29 156 1 190 4 211 18 34 22 59 76 59 128 0 80 -49 135 -137 156 -53
12 -196 16 -283 7z"/>
<path d="M4311 4470 c-54 -12 -93 -59 -98 -117 -10 -96 39 -145 165 -167 91
-16 147 -40 167 -70 30 -45 38 -122 25 -243 -11 -105 -11 -118 6 -154 49 -110
214 -118 268 -13 18 33 21 57 20 169 -1 340 -116 526 -359 580 -83 18 -154 24
-194 15z"/>
<path d="M1483 4428 c-41 -29 -63 -74 -63 -128 0 -81 55 -133 167 -157 161
-33 566 -103 600 -103 105 0 177 124 128 220 -38 73 -105 94 -494 155 -266 42
-295 43 -338 13z"/>
<path d="M3194 4430 c-12 -5 -98 -55 -190 -113 -93 -57 -239 -141 -324 -187
-85 -45 -163 -90 -174 -99 -70 -62 -57 -194 24 -236 45 -23 108 -19 160 11 25
15 97 54 160 87 182 97 503 274 529 293 53 38 63 125 22 183 -40 56 -144 87
-207 61z"/>
<path d="M2175 3820 c-150 -41 -313 -63 -437 -57 -103 4 -122 3 -157 -15 -131
-65 -102 -254 45 -288 104 -25 472 14 689 71 131 35 157 198 44 282 -37 27
-102 30 -184 7z"/>
<path d="M3712 3804 c-82 -22 -206 -76 -404 -176 -101 -51 -210 -105 -243
-121 -78 -35 -109 -78 -108 -149 1 -62 23 -95 85 -126 41 -21 51 -22 90 -12
23 7 150 64 282 128 l238 116 22 -26 c35 -43 82 -61 146 -56 70 5 102 28 130
92 54 123 48 227 -16 292 -54 53 -123 65 -222 38z"/>
<path d="M4965 3429 c-53 -26 -101 -74 -125 -125 -18 -36 -20 -58 -18 -160 3
-145 -3 -159 -143 -344 -121 -160 -247 -404 -285 -555 -46 -181 -18 -297 86
-352 38 -21 56 -24 115 -21 78 4 127 24 175 70 37 35 69 101 70 140 0 70 87
248 180 373 96 129 156 226 211 340 78 163 95 279 65 438 -17 87 -33 121 -73
159 -62 59 -179 76 -258 37z"/>
<path d="M1990 3188 c-51 -26 -90 -89 -90 -146 0 -66 56 -139 120 -156 14 -3
95 -11 180 -16 85 -6 162 -13 171 -15 9 -3 19 -19 22 -34 4 -16 20 -45 38 -65
97 -111 269 -39 269 113 0 52 -25 127 -57 169 -66 87 -161 124 -383 147 -80 8
-163 18 -185 21 -30 4 -51 -1 -85 -18z"/>
<path d="M4354 3150 c-36 -8 -77 -35 -114 -75 -103 -112 -454 -262 -715 -306
-85 -14 -113 -27 -153 -73 -34 -39 -48 -90 -37 -133 9 -38 76 -99 117 -107 47
-8 197 16 378 62 252 65 355 111 492 221 90 72 194 180 208 216 43 112 -57
222 -176 195z"/>
<path d="M1312 2979 c-26 -13 -55 -40 -75 -68 -29 -41 -32 -53 -32 -116 1 -40
8 -87 17 -110 9 -23 28 -122 43 -220 63 -429 102 -585 170 -700 69 -114 115
-147 206 -147 109 0 189 69 189 162 0 35 -10 65 -39 121 -69 131 -79 176 -126
575 -34 291 -99 449 -207 505 -48 25 -93 24 -146 -2z"/>
<path d="M2170 2419 c-79 -13 -193 -74 -261 -139 -49 -47 -58 -62 -64 -102
-10 -69 21 -129 81 -159 58 -28 111 -20 173 25 105 76 143 83 184 31 40 -50
80 -68 142 -63 124 10 184 124 122 230 -77 132 -226 202 -377 177z"/>
<path d="M3795 2145 c-33 -8 -124 -32 -203 -54 -89 -25 -257 -59 -445 -91
-262 -43 -308 -54 -346 -78 -107 -66 -122 -210 -30 -300 46 -45 89 -62 156
-62 82 0 301 34 483 76 451 102 533 114 595 88 151 -63 295 82 241 243 -50
149 -240 224 -451 178z"/>
<path d="M2250 1871 c-48 -25 -68 -57 -81 -126 -23 -124 29 -305 134 -472 66
-104 118 -143 190 -143 85 0 150 66 150 152 0 62 -8 79 -75 164 -76 98 -93
142 -93 254 0 109 -16 149 -71 175 -43 20 -112 19 -154 -4z"/>
<path d="M4671 1655 c-19 -9 -64 -43 -100 -78 -105 -98 -179 -130 -461 -197
-270 -65 -576 -179 -694 -259 -116 -79 -115 -243 2 -326 37 -26 53 -30 105
-30 57 0 70 4 147 51 161 96 357 166 600 214 207 42 356 97 487 183 140 91
212 176 213 253 0 16 -11 53 -25 81 -50 100 -176 150 -274 108z"/>
<path d="M2113 1081 c-77 -19 -132 -75 -154 -153 -8 -30 -7 -51 5 -92 14 -46
28 -65 101 -134 135 -128 305 -222 497 -274 73 -19 107 -22 273 -22 164 0 201
3 269 22 122 34 222 86 252 132 46 70 45 156 -4 229 -41 60 -84 84 -157 85
-53 1 -71 -5 -159 -49 l-100 -50 -120 0 c-100 0 -132 4 -187 23 -89 31 -205
104 -319 201 -52 45 -101 81 -110 81 -8 0 -24 2 -35 4 -11 3 -34 1 -52 -3z"/>
</g>
</svg>
