<?xml version="1.0" standalone="no"?>
<!DOCTYPE svg PUBLIC "-//W3C//DTD SVG 20010904//EN"
 "http://www.w3.org/TR/2001/REC-SVG-20010904/DTD/svg10.dtd">
<svg version="1.0" xmlns="http://www.w3.org/2000/svg"
 width="600.000000pt" height="600.000000pt" viewBox="0 0 600.000000 600.000000"
 preserveAspectRatio="xMidYMid meet">
<metadata>
Created by potrace 1.15, written by Peter Selinger 2001-2017
</metadata>
<g transform="translate(0.000000,600.000000) scale(0.100000,-0.100000)"
fill="#16364b" stroke="none">
<path d="M2366 5470 c-42 -13 -74 -47 -111 -120 -68 -134 -83 -254 -44 -340
27 -60 45 -79 104 -106 71 -33 161 -32 347 7 82 17 152 28 155 25 3 -3 -23
-40 -58 -83 -122 -149 -205 -282 -352 -563 -70 -132 -72 -136 -70 -204 3 -89
31 -136 97 -161 43 -17 49 -16 228 14 257 43 338 51 544 51 172 0 183 1 215
23 96 64 90 204 -11 259 -32 18 -52 19 -240 15 -120 -3 -250 -12 -313 -22 -60
-9 -110 -15 -112 -13 -6 6 139 252 201 340 32 46 85 117 118 158 103 127 128
172 133 244 5 56 2 70 -21 112 -31 56 -92 106 -156 129 -67 24 -178 18 -330
-15 -74 -17 -145 -30 -157 -30 l-22 0 24 53 c28 59 31 94 11 140 -17 40 -51
71 -95 86 -39 13 -45 13 -85 1z"/>
<path d="M1695 5011 c-89 -26 -146 -54 -254 -124 -174 -114 -303 -233 -322
-296 -11 -37 -10 -47 7 -88 35 -83 67 -100 260 -133 263 -45 312 -66 374 -164
59 -94 139 -122 210 -73 53 36 71 67 72 125 0 65 -30 127 -97 200 -66 73 -137
117 -241 150 -46 15 -84 30 -84 34 0 14 131 68 188 77 33 5 74 17 90 25 68 35
95 140 55 209 -43 72 -136 94 -258 58z"/>
<path d="M4022 4834 c-144 -42 -308 -138 -338 -196 -52 -101 24 -216 136 -205
32 3 64 17 112 50 70 47 182 91 220 85 21 -3 23 -8 21 -63 -2 -71 -34 -177
-114 -377 -35 -87 -59 -161 -59 -184 0 -42 52 -144 95 -184 38 -36 111 -33
245 7 58 17 143 39 190 49 91 18 233 24 247 11 22 -23 -4 -163 -88 -471 -38
-137 -40 -152 -29 -192 39 -139 213 -143 271 -6 32 75 119 372 134 461 43 246
-2 396 -140 466 -59 30 -62 30 -210 29 -112 -1 -174 -6 -245 -22 -52 -11 -97
-18 -99 -16 -3 3 12 53 32 112 57 167 70 228 71 337 1 94 -1 104 -32 167 -75
152 -220 201 -420 142z"/>
<path d="M2063 3936 c-80 -32 -252 -70 -421 -95 -111 -16 -138 -23 -159 -42
-36 -34 -53 -72 -53 -119 0 -85 54 -149 133 -157 85 -9 398 51 580 112 79 27
109 42 133 68 87 94 23 242 -109 253 -28 3 -63 -4 -104 -20z"/>
<path d="M3760 3694 c-128 -25 -518 -218 -574 -284 -38 -46 -43 -91 -15 -147
18 -36 35 -54 69 -71 62 -32 101 -24 224 47 147 84 246 134 253 127 6 -6 1
-20 -122 -336 -97 -251 -109 -290 -102 -341 12 -88 75 -134 170 -124 79 8 204
45 316 94 224 97 431 286 431 393 0 109 -108 188 -216 159 -27 -7 -57 -30
-101 -75 -57 -59 -191 -161 -201 -152 -2 2 21 66 51 143 109 274 126 376 77
463 -35 62 -100 101 -177 105 -32 2 -69 1 -83 -1z"/>
<path d="M2335 3364 c-109 -16 -246 -49 -279 -67 -48 -27 -77 -82 -78 -146 0
-119 82 -172 218 -141 74 17 284 41 304 35 24 -7 20 -32 -22 -155 -42 -121
-24 -186 62 -230 96 -49 173 -8 224 120 113 277 83 471 -83 553 -63 31 -71 32
-191 33 -69 1 -138 0 -155 -2z"/>
<path d="M1166 3070 c-89 -35 -136 -101 -136 -193 0 -85 52 -151 143 -181 21
-7 21 -5 21 -396 l1 -295 33 -120 c19 -66 43 -135 54 -153 41 -66 134 -89 214
-53 52 24 81 54 106 110 20 43 21 106 3 154 -6 14 -1 17 31 17 81 1 116 28
200 156 68 105 185 244 205 244 10 0 32 -67 26 -77 -3 -5 -12 -75 -22 -158 -9
-82 -28 -197 -42 -255 -33 -134 -32 -180 1 -230 34 -51 90 -80 157 -80 97 0
126 55 173 330 21 123 46 326 48 390 7 220 -125 387 -313 398 -76 5 -128 -14
-210 -74 -44 -32 -165 -166 -239 -263 l-25 -33 0 184 c-1 206 -21 331 -72 433
-68 140 -216 200 -357 145z"/>
<path d="M4880 2999 c-71 -22 -143 -93 -168 -168 -7 -19 -12 -69 -12 -112 l0
-77 -42 -20 c-24 -11 -73 -34 -109 -50 -198 -88 -322 -228 -363 -409 -44 -196
6 -387 144 -550 l61 -73 -34 -14 c-19 -7 -52 -32 -75 -55 -48 -49 -64 -51
-214 -20 -149 31 -309 31 -408 0 -83 -25 -172 -68 -240 -114 -60 -41 -190
-167 -252 -244 -27 -35 -56 -63 -64 -63 -8 0 -47 -32 -87 -71 -76 -75 -133
-108 -182 -109 -120 0 -258 119 -393 342 -56 91 -93 122 -170 139 -123 29
-238 -74 -216 -192 18 -92 175 -355 279 -468 164 -177 407 -257 624 -206 85
20 202 83 287 153 38 31 87 66 109 77 29 14 62 50 118 125 102 138 149 185
221 220 72 36 120 38 291 10 254 -42 412 -13 536 98 97 87 121 191 65 286 -26
45 -26 46 -6 46 55 0 140 68 171 135 38 83 19 178 -51 250 -46 47 -60 80 -60
141 0 31 6 50 20 64 11 11 93 55 182 99 130 63 174 89 219 133 59 57 97 121
119 200 14 55 9 243 -10 321 -15 60 -64 125 -115 154 -48 26 -127 36 -175 22z"/>
<path d="M3299 2345 c-48 -8 -136 -25 -195 -39 -60 -14 -161 -36 -224 -50
-179 -40 -192 -45 -231 -86 -81 -85 -69 -223 27 -296 54 -41 113 -42 262 -5
204 52 346 80 435 87 l84 7 7 -49 c12 -95 87 -164 179 -164 117 0 195 82 218
230 13 86 7 137 -25 206 -31 67 -86 119 -155 145 -72 28 -256 35 -382 14z"/>
</g>
</svg>
