<?xml version="1.0" standalone="no"?>
<!DOCTYPE svg PUBLIC "-//W3C//DTD SVG 20010904//EN"
 "http://www.w3.org/TR/2001/REC-SVG-20010904/DTD/svg10.dtd">
<svg version="1.0" xmlns="http://www.w3.org/2000/svg"
 width="600.000000pt" height="600.000000pt" viewBox="0 0 600.000000 600.000000"
 preserveAspectRatio="xMidYMid meet">
<metadata>
Created by potrace 1.15, written by Peter Selinger 2001-2017
</metadata>
<g transform="translate(0.000000,600.000000) scale(0.100000,-0.100000)"
fill="#16364b" stroke="none">
<path d="M1685 5801 c-17 -10 -38 -29 -46 -42 -31 -48 -137 -436 -159 -584
-23 -148 14 -236 121 -291 106 -53 210 -24 316 90 113 120 345 447 357 502 10
45 -14 103 -56 137 -29 23 -47 29 -86 30 -64 1 -91 -17 -150 -100 -137 -192
-157 -217 -160 -201 -2 10 13 77 34 150 20 73 39 150 42 170 5 48 -27 117 -67
141 -38 22 -108 22 -146 -2z"/>
<path d="M3110 5611 c-67 -35 -99 -134 -66 -200 8 -15 54 -54 103 -87 216
-145 355 -264 418 -359 19 -29 35 -56 35 -60 0 -4 -17 -4 -37 -1 -60 10 -123
-26 -147 -86 -17 -42 -18 -52 -7 -90 24 -79 103 -123 222 -122 156 2 270 134
256 298 -13 166 -119 322 -323 478 -77 58 -304 212 -343 232 -39 21 -69 20
-111 -3z"/>
<path d="M867 5441 c-162 -53 -272 -196 -293 -379 -13 -120 32 -244 123 -336
70 -70 111 -90 176 -83 42 4 56 10 83 40 65 71 55 159 -26 228 -75 63 -90 139
-40 209 31 44 57 54 137 55 56 0 78 5 99 21 92 69 93 169 1 238 -39 29 -181
33 -260 7z"/>
<path d="M2968 5170 c-83 -21 -153 -84 -196 -179 -21 -45 -24 -63 -19 -118 7
-91 40 -137 131 -183 62 -31 78 -35 145 -34 103 1 178 28 209 74 22 32 24 43
19 125 -5 95 -30 183 -67 235 -45 64 -144 99 -222 80z"/>
<path d="M4815 4870 c-78 -18 -130 -75 -140 -155 -15 -118 18 -312 70 -415 84
-165 251 -235 393 -164 147 73 211 267 138 418 -35 72 -130 170 -224 230 -124
80 -178 100 -237 86z"/>
<path d="M2157 4810 c-74 -13 -177 -47 -221 -72 -96 -56 -101 -192 -10 -249
39 -23 63 -23 198 7 74 17 81 17 108 1 81 -46 174 -19 216 63 29 56 25 133 -8
180 -46 64 -160 92 -283 70z"/>
<path d="M2820 4094 c-80 -22 -137 -59 -172 -112 -26 -41 -29 -54 -26 -104 5
-74 42 -127 126 -185 110 -75 156 -87 322 -87 151 0 228 14 365 65 122 45 168
175 93 257 -56 60 -305 143 -511 171 -100 14 -129 13 -197 -5z"/>
<path d="M1084 4061 c-123 -12 -189 -79 -188 -191 1 -65 20 -105 68 -148 43
-38 85 -47 182 -38 41 4 74 4 74 0 0 -30 -231 -295 -452 -519 -103 -105 -192
-203 -197 -218 -27 -70 6 -153 75 -193 39 -23 51 -25 111 -20 38 4 84 6 103 5
151 -5 138 -8 245 57 55 33 137 82 183 108 l82 48 60 -52 c85 -73 97 -129 61
-272 -35 -137 -135 -309 -250 -431 -71 -76 -126 -111 -186 -122 -90 -16 -145
-70 -145 -143 1 -90 48 -132 148 -132 126 0 243 61 382 200 142 141 245 307
306 490 26 78 28 97 28 240 1 179 -11 220 -90 323 -38 49 -42 58 -27 64 9 4
18 2 20 -3 13 -39 49 -78 89 -96 52 -22 90 -19 141 12 52 31 65 69 64 178 -3
181 -34 257 -125 304 -48 25 -102 19 -166 -19 -149 -86 -251 -143 -256 -143
-3 0 15 26 39 58 222 291 255 425 133 548 -62 62 -135 89 -276 104 -103 10
-128 11 -236 1z"/>
<path d="M4180 3786 c-106 -30 -194 -99 -233 -185 -16 -34 -22 -65 -21 -121 0
-98 36 -180 105 -245 52 -49 77 -61 155 -77 98 -20 236 38 318 133 69 80 136
251 136 345 0 44 -27 95 -63 119 -62 40 -297 58 -397 31z m77 -311 c-32 -28
-47 -32 -47 -10 0 17 27 34 55 34 18 0 17 -2 -8 -24z"/>
<path d="M3395 3391 c-49 -29 -85 -79 -138 -190 -72 -151 -73 -205 -2 -271 22
-21 38 -25 101 -28 96 -5 148 14 204 74 55 59 82 123 88 205 7 104 -26 176
-100 215 -38 20 -117 18 -153 -5z"/>
<path d="M5035 3229 c-70 -37 -182 -128 -223 -182 -105 -139 -104 -296 4 -401
128 -125 371 -57 472 132 74 139 55 283 -51 399 -68 74 -130 90 -202 52z"/>
<path d="M3955 2502 c-52 -25 -101 -81 -116 -134 -10 -37 -9 -59 9 -147 12
-58 20 -107 17 -109 -3 -3 -16 0 -30 6 -69 31 -183 2 -248 -62 -78 -79 -101
-208 -64 -351 30 -113 156 -476 177 -510 27 -44 109 -85 169 -85 47 0 121 28
154 58 26 23 49 70 56 112 l6 35 62 2 c106 3 204 69 255 171 19 39 23 62 22
142 0 83 -6 118 -52 280 -28 102 -67 248 -85 325 -36 149 -51 188 -89 221 -64
59 -173 79 -243 46z"/>
<path d="M2049 2397 c-106 -36 -213 -129 -314 -272 -23 -33 -46 -71 -50 -84
-4 -13 -26 -50 -50 -82 -96 -131 -173 -323 -206 -519 -18 -104 -15 -298 5
-390 66 -296 373 -558 716 -611 93 -14 305 -6 380 14 203 56 339 151 498 348
136 168 234 387 298 667 31 134 37 283 15 372 -30 122 -113 235 -206 280 -99
48 -283 36 -478 -29 -63 -22 -89 -27 -92 -18 -50 144 -80 189 -174 259 -118
89 -218 107 -342 65z m128 -389 c6 -7 21 -44 33 -83 35 -106 65 -160 123 -215
105 -101 147 -104 349 -27 156 60 274 91 284 75 27 -43 -69 -369 -171 -583
-86 -180 -209 -294 -369 -340 -91 -26 -263 -18 -336 16 -79 37 -174 111 -215
166 -125 170 -92 455 82 714 28 41 54 85 58 99 12 40 127 190 146 190 3 0 11
-6 16 -12z"/>
</g>
</svg>
