<?xml version="1.0" standalone="no"?>
<!DOCTYPE svg PUBLIC "-//W3C//DTD SVG 20010904//EN"
 "http://www.w3.org/TR/2001/REC-SVG-20010904/DTD/svg10.dtd">
<svg version="1.0" xmlns="http://www.w3.org/2000/svg"
 width="600.000000pt" height="600.000000pt" viewBox="0 0 600.000000 600.000000"
 preserveAspectRatio="xMidYMid meet">
<metadata>
Created by potrace 1.15, written by Peter Selinger 2001-2017
</metadata>
<g transform="translate(0.000000,600.000000) scale(0.100000,-0.100000)"
fill="#16364b" stroke="none">
<path d="M2365 5398 l-28 -22 7 -155 c10 -232 -15 -379 -91 -524 -44 -84 -106
-141 -207 -190 -89 -43 -110 -72 -85 -115 8 -15 28 -33 43 -41 27 -12 35 -10
131 38 153 76 222 160 298 366 56 153 70 257 61 464 -6 144 -9 156 -30 178
-29 29 -63 29 -99 1z"/>
<path d="M3518 5284 c-35 -39 -39 -70 -18 -127 53 -139 182 -268 270 -269 55
-1 90 34 90 89 0 67 -105 236 -180 288 -53 37 -136 47 -162 19z"/>
<path d="M2987 5097 c-101 -61 -168 -247 -122 -337 23 -44 53 -60 112 -60 45
0 60 6 115 43 75 52 119 125 125 210 10 131 -118 212 -230 144z m83 -144 c0
-25 -35 -80 -59 -93 -26 -13 -27 -1 -5 43 19 37 44 67 56 67 4 0 8 -8 8 -17z"/>
<path d="M4773 4740 c-39 -16 -53 -60 -53 -167 0 -296 59 -471 170 -504 102
-31 200 82 200 231 0 107 -40 202 -145 342 -77 102 -112 122 -172 98z"/>
<path d="M2652 4201 c-82 -28 -122 -76 -122 -146 0 -102 101 -186 260 -215
151 -27 352 70 367 177 6 47 -17 99 -50 113 -49 19 -236 71 -292 80 -81 13
-101 12 -163 -9z"/>
<path d="M1131 4125 c-30 -26 -55 -86 -67 -160 -13 -87 41 -184 116 -206 117
-35 260 62 260 176 0 76 -49 135 -157 189 -67 33 -112 34 -152 1z"/>
<path d="M5224 3990 c-53 -16 -127 -74 -161 -124 -44 -64 -56 -115 -51 -211 6
-100 41 -180 110 -247 188 -183 497 -57 549 225 23 126 -27 227 -152 312 l-74
50 -95 2 c-52 1 -109 -2 -126 -7z m130 -320 c33 -12 33 -25 0 -47 -25 -16 -27
-16 -40 2 -18 25 -18 55 0 55 8 0 26 -4 40 -10z"/>
<path d="M4220 3755 c-155 -44 -250 -161 -250 -310 0 -159 120 -278 280 -280
158 -1 297 138 318 316 11 101 0 194 -28 224 -50 53 -215 79 -320 50z m90
-265 c0 -15 -38 -50 -55 -50 -21 0 -19 12 5 38 21 23 50 30 50 12z"/>
<path d="M3474 3360 c-11 -4 -35 -25 -51 -47 -50 -63 -146 -243 -146 -274 0
-73 82 -93 150 -36 133 109 205 292 137 346 -28 22 -55 25 -90 11z"/>
<path d="M1055 3330 c-244 -28 -385 -168 -385 -380 0 -261 201 -437 530 -465
240 -21 291 -75 413 -442 42 -125 94 -291 117 -368 55 -190 97 -272 186 -361
124 -125 298 -194 541 -214 199 -16 1004 -32 1253 -25 705 20 1158 175 1386
475 43 57 122 232 150 332 37 133 43 308 16 438 -36 176 -92 279 -215 400
-273 267 -566 340 -917 228 -141 -45 -266 -110 -449 -231 -214 -143 -244 -156
-368 -163 -116 -7 -196 9 -308 60 -41 19 -236 142 -434 275 -198 132 -395 258
-438 279 -176 89 -361 136 -594 151 -215 15 -417 19 -484 11z m554 -391 c239
-26 387 -100 795 -398 183 -134 260 -186 329 -225 248 -137 618 -180 844 -98
94 35 132 58 283 172 157 118 238 165 347 200 222 71 383 39 546 -110 233
-214 201 -582 -68 -787 -177 -135 -368 -197 -691 -224 -204 -17 -1500 -5
-1601 15 -98 20 -160 49 -210 98 -56 55 -78 110 -123 312 -69 307 -126 480
-205 622 -47 85 -168 208 -248 252 -90 51 -222 91 -338 103 -130 13 -183 26
-204 50 -36 39 -14 42 224 35 124 -4 268 -12 320 -17z"/>
<path d="M456 2029 c-36 -28 -35 -72 3 -113 16 -17 53 -57 82 -88 106 -118
235 -141 270 -50 26 69 -53 165 -193 232 -93 45 -124 49 -162 19z"/>
<path d="M5354 1102 c-40 -25 -69 -99 -69 -175 0 -54 3 -61 33 -88 65 -58 154
-20 181 76 17 63 14 149 -7 175 -25 31 -97 38 -138 12z"/>
</g>
</svg>
