<?xml version="1.0" standalone="no"?>
<!DOCTYPE svg PUBLIC "-//W3C//DTD SVG 20010904//EN"
 "http://www.w3.org/TR/2001/REC-SVG-20010904/DTD/svg10.dtd">
<svg version="1.0" xmlns="http://www.w3.org/2000/svg"
 width="600.000000pt" height="600.000000pt" viewBox="0 0 600.000000 600.000000"
 preserveAspectRatio="xMidYMid meet">
<metadata>
Created by potrace 1.15, written by Peter Selinger 2001-2017
</metadata>
<g transform="translate(0.000000,600.000000) scale(0.100000,-0.100000)"
fill="#16364b" stroke="none">
<path d="M2150 5371 c-115 -37 -209 -140 -246 -266 -18 -64 -17 -226 6 -635
13 -245 -4 -986 -30 -1305 -11 -137 -20 -256 -20 -264 0 -20 -434 -10 -552 14
l-86 17 -7 45 c-5 34 -10 43 -23 41 -10 -2 -19 -16 -22 -33 l-5 -30 -34 48
c-47 68 -67 55 -47 -31 l8 -33 -42 17 c-36 14 -43 15 -51 3 -6 -10 2 -23 29
-46 l37 -32 -37 -1 c-31 0 -38 -4 -38 -20 0 -14 10 -22 38 -29 306 -81 373
-92 617 -97 l200 -4 -3 -108 c-5 -155 15 -471 38 -604 21 -128 82 -323 128
-413 99 -196 257 -319 465 -362 l87 -18 0 -130 c0 -203 39 -435 96 -570 23
-57 15 -65 -63 -65 -86 0 -133 -13 -163 -45 -49 -52 -20 -136 55 -164 76 -29
241 23 305 96 16 18 35 51 41 74 12 39 10 49 -34 178 -65 194 -104 433 -90
565 l6 58 51 -6 c277 -33 368 -38 636 -31 l275 6 0 -123 c1 -143 16 -228 81
-435 24 -78 44 -146 44 -151 0 -5 -39 -12 -87 -14 -100 -6 -133 -18 -156 -58
-22 -37 -21 -68 2 -106 26 -42 75 -58 161 -52 143 11 250 108 250 228 0 14
-22 87 -49 161 -91 249 -113 383 -82 506 15 61 -6 55 254 73 221 16 300 45
402 149 196 200 243 528 145 1011 -33 163 -86 265 -221 426 l-76 91 115 17
c126 19 308 71 409 116 36 17 73 30 81 30 18 0 162 106 162 120 0 5 -6 13 -14
17 -8 4 -14 17 -13 28 2 15 -5 21 -26 23 -23 3 -26 7 -21 28 8 33 -17 32 -61
-2 l-34 -25 -3 28 c-5 47 -32 35 -38 -17 -5 -42 -8 -46 -60 -72 -72 -36 -244
-93 -345 -114 -44 -9 -132 -19 -197 -21 l-116 -6 -124 109 c-220 194 -286 243
-528 389 -306 185 -460 307 -542 428 -55 81 -118 218 -167 362 -37 111 -59
208 -125 563 -33 174 -73 260 -167 353 -91 90 -158 121 -269 125 -47 2 -96 0
-110 -5z m185 -170 c50 -22 117 -96 149 -165 28 -58 63 -198 101 -401 31 -169
72 -318 118 -441 126 -330 261 -475 687 -741 363 -226 417 -265 623 -451 191
-173 366 -378 426 -499 27 -55 66 -204 92 -358 15 -86 6 -331 -16 -430 -32
-150 -117 -265 -224 -306 -64 -24 -203 -38 -656 -66 -352 -21 -551 -21 -710 1
-66 9 -176 21 -245 27 -136 10 -233 31 -295 61 -159 79 -262 229 -324 471 -46
178 -54 271 -55 652 -1 307 2 374 22 545 18 152 26 296 35 650 14 532 13 728
-4 940 -6 85 -12 205 -13 265 -1 95 2 116 21 150 22 41 62 84 98 103 31 18
125 14 170 -7z"/>
<path d="M2627 2852 c-27 -29 -21 -67 14 -96 17 -14 37 -26 44 -26 23 0 55 42
55 72 0 57 -76 91 -113 50z"/>
<path d="M3162 2794 c-31 -22 -29 -68 4 -99 33 -31 57 -32 84 -3 28 31 26 72
-6 97 -32 25 -52 26 -82 5z"/>
<path d="M2840 1886 c-14 -14 -12 -52 3 -64 7 -6 35 -16 62 -22 68 -15 301 -3
321 17 17 18 18 59 2 70 -18 11 -377 10 -388 -1z"/>
</g>
</svg>
