<?xml version="1.0" standalone="no"?>
<!DOCTYPE svg PUBLIC "-//W3C//DTD SVG 20010904//EN"
 "http://www.w3.org/TR/2001/REC-SVG-20010904/DTD/svg10.dtd">
<svg version="1.0" xmlns="http://www.w3.org/2000/svg"
 width="600.000000pt" height="600.000000pt" viewBox="0 0 600.000000 600.000000"
 preserveAspectRatio="xMidYMid meet">
<metadata>
Created by potrace 1.15, written by Peter Selinger 2001-2017
</metadata>
<g transform="translate(0.000000,600.000000) scale(0.100000,-0.100000)"
fill="#16364b" stroke="none">
<path d="M2039 5067 c-150 -43 -243 -163 -244 -317 0 -41 8 -122 17 -180 32
-192 38 -379 41 -1163 l2 -779 -35 -30 c-19 -17 -130 -124 -245 -238 -194
-192 -212 -208 -239 -203 -27 6 -29 4 -22 -21 7 -27 6 -27 -24 -21 -41 9 -53
-20 -19 -46 13 -10 22 -19 19 -21 -3 -2 -14 -8 -25 -14 -35 -19 -25 -39 19
-37 l38 3 -17 -26 c-12 -18 -14 -29 -6 -37 7 -7 32 3 80 32 39 23 71 46 71 51
0 5 28 35 63 67 34 32 118 115 186 185 68 71 127 128 132 128 5 0 9 -24 9 -52
0 -76 27 -320 44 -408 31 -155 81 -279 162 -400 108 -162 216 -241 419 -305
l99 -32 -4 -44 c-10 -88 -3 -266 14 -351 9 -48 35 -143 57 -213 22 -69 37
-130 34 -135 -3 -5 -46 -8 -94 -7 -77 2 -93 -1 -117 -19 -38 -28 -49 -64 -31
-106 21 -50 73 -72 165 -71 89 2 151 29 196 85 48 61 47 114 -7 293 -24 83
-50 189 -57 236 -12 81 -10 302 2 314 3 4 64 1 134 -6 125 -11 444 -8 728 8
l119 6 -7 -84 c-14 -160 22 -427 75 -562 34 -85 34 -85 -86 -89 -99 -3 -106
-5 -132 -30 -41 -41 -39 -100 4 -138 44 -39 124 -55 200 -40 102 21 157 60
188 132 21 52 19 73 -14 176 -42 126 -58 218 -67 359 -6 122 1 258 15 281 5 8
48 17 107 23 374 36 471 71 574 201 108 136 167 320 177 549 14 319 -75 519
-317 712 l-75 60 60 -6 c128 -14 390 -69 402 -85 11 -13 22 -13 88 -2 83 14
105 29 80 53 -9 9 -11 18 -6 22 11 6 8 65 -4 84 -4 7 -17 10 -29 7 -29 -7 -66
3 -66 19 0 7 -6 18 -14 24 -11 10 -17 8 -29 -9 -14 -21 -16 -21 -103 -6 -49 9
-170 27 -269 41 -99 14 -229 34 -290 46 -103 20 -114 24 -180 74 -86 64 -215
144 -490 305 -299 175 -377 230 -485 339 -147 147 -247 307 -335 536 -24 60
-68 167 -98 236 -66 152 -103 251 -127 346 -49 190 -155 298 -303 308 -35 3
-82 -1 -108 -8z m142 -167 c49 -26 89 -86 113 -171 10 -35 56 -161 102 -279
46 -118 104 -269 130 -335 76 -198 144 -311 293 -488 134 -160 239 -233 836
-585 132 -77 148 -88 486 -343 129 -96 260 -204 292 -238 111 -121 147 -228
147 -441 0 -288 -85 -507 -222 -574 -61 -29 -140 -41 -613 -87 -367 -35 -643
-46 -805 -29 -63 6 -137 13 -165 16 -234 20 -354 49 -437 104 -108 72 -207
215 -264 383 -65 188 -90 544 -61 847 11 117 13 198 7 330 -5 96 -9 414 -9
706 -1 521 -6 641 -37 834 -9 52 -18 129 -20 170 -4 65 -2 80 18 115 27 46 89
85 136 85 18 0 51 -9 73 -20z"/>
<path d="M2640 2758 c-30 -11 -40 -25 -40 -60 0 -31 41 -68 76 -68 40 0 70 70
46 107 -13 20 -55 31 -82 21z"/>
<path d="M3072 2634 c-31 -22 -29 -67 4 -93 48 -38 94 -20 109 41 14 54 -61
89 -113 52z"/>
<path d="M5215 3966 c-132 -45 -194 -149 -181 -302 19 -229 179 -378 369 -343
181 32 297 175 297 365 0 127 -53 210 -171 270 -63 31 -76 34 -156 34 -66 0
-106 -7 -158 -24z m163 -282 c30 -8 28 -30 -4 -51 -25 -16 -27 -16 -40 2 -32
43 -13 64 44 49z"/>
<path d="M5311 1093 c-55 -53 -79 -170 -46 -233 32 -62 117 -76 163 -27 66 70
80 246 22 277 -10 6 -39 10 -64 10 -36 0 -52 -6 -75 -27z"/>
</g>
</svg>
