<?xml version="1.0" standalone="no"?>
<!DOCTYPE svg PUBLIC "-//W3C//DTD SVG 20010904//EN"
 "http://www.w3.org/TR/2001/REC-SVG-20010904/DTD/svg10.dtd">
<svg version="1.0" xmlns="http://www.w3.org/2000/svg"
 width="600.000000pt" height="600.000000pt" viewBox="0 0 600.000000 600.000000"
 preserveAspectRatio="xMidYMid meet">
<metadata>
Created by potrace 1.15, written by Peter Selinger 2001-2017
</metadata>
<g transform="translate(0.000000,600.000000) scale(0.100000,-0.100000)"
fill="#16364b" stroke="none">
<path d="M1900 5820 c-21 -5 -46 -22 -63 -42 -16 -18 -82 -137 -147 -264 -159
-314 -197 -432 -170 -531 18 -61 72 -116 131 -131 109 -27 224 30 464 232 66
56 156 129 200 164 111 87 132 131 101 206 -22 54 -78 89 -147 94 -66 5 -96
-9 -203 -92 -33 -25 -62 -44 -64 -41 -3 3 18 50 46 105 38 73 52 110 52 141 0
101 -100 181 -200 159z"/>
<path d="M3004 5699 c-18 -5 -46 -25 -63 -44 -64 -73 -34 -188 62 -236 59 -30
206 -130 302 -204 112 -87 185 -169 228 -257 64 -129 47 -174 -75 -198 -50 -9
-69 -19 -95 -47 -29 -30 -33 -41 -33 -89 0 -48 4 -58 36 -94 23 -25 51 -44 75
-50 81 -22 245 30 326 104 22 19 55 64 74 98 32 60 34 68 34 163 0 91 -3 108
-35 185 -100 247 -360 495 -675 647 -71 34 -105 38 -161 22z"/>
<path d="M948 5405 c-240 -60 -415 -292 -380 -503 17 -102 62 -184 145 -267
82 -82 144 -118 203 -118 107 0 183 117 141 217 -7 15 -37 47 -67 70 -70 54
-100 98 -100 148 0 82 38 118 157 148 88 22 121 42 145 91 37 70 15 151 -54
202 -35 26 -115 31 -190 12z"/>
<path d="M2870 5091 c-179 -56 -258 -265 -169 -449 42 -86 143 -130 267 -118
124 13 164 26 205 66 42 42 49 86 23 143 -8 18 -16 57 -19 87 -7 100 -78 210
-159 248 -52 24 -114 34 -148 23z"/>
<path d="M4759 4887 c-60 -40 -79 -80 -79 -166 0 -147 40 -323 94 -415 127
-215 413 -227 511 -21 83 176 4 388 -193 518 -152 101 -266 129 -333 84z"/>
<path d="M2030 4733 c-115 -18 -211 -60 -239 -107 -26 -41 -28 -116 -5 -155
42 -71 136 -91 229 -50 45 20 49 20 61 5 6 -10 15 -34 19 -54 14 -78 73 -132
142 -132 45 1 108 35 139 75 54 72 37 211 -37 303 -68 84 -199 133 -309 115z"/>
<path d="M1139 4000 c-199 -41 -252 -71 -285 -155 -33 -87 2 -186 83 -236 30
-19 52 -24 106 -24 37 0 67 -2 67 -5 0 -3 -34 -48 -76 -100 -155 -196 -267
-388 -400 -682 -54 -121 -64 -152 -64 -199 0 -66 24 -108 85 -151 79 -55 187
-46 255 22 21 21 80 69 132 106 122 89 330 257 443 359 110 98 193 165 207
165 21 0 3 -208 -27 -300 -81 -252 -269 -620 -423 -828 -73 -98 -82 -132 -54
-196 37 -83 128 -115 210 -74 55 27 93 74 189 233 80 132 359 681 396 780 58
151 68 271 42 467 -16 122 -37 179 -85 225 -44 43 -87 56 -170 51 -80 -4 -179
-49 -325 -147 -49 -33 -91 -58 -93 -56 -2 2 29 43 69 92 109 133 166 225 180
291 34 164 -48 327 -185 367 -65 20 -171 18 -277 -5z"/>
<path d="M3018 4008 c-134 -16 -252 -79 -303 -162 -59 -96 -34 -215 65 -314
89 -88 235 -139 425 -148 129 -6 165 6 202 72 23 40 30 118 14 159 -6 14 -2
24 15 37 31 25 64 97 64 142 0 72 -42 122 -136 160 -124 50 -235 68 -346 54z"/>
<path d="M4305 3804 c-153 -21 -231 -51 -298 -113 -120 -111 -119 -309 1 -434
63 -66 104 -82 207 -82 141 0 236 45 320 153 81 103 153 280 141 346 -9 47
-61 101 -111 115 -44 12 -212 22 -260 15z m-44 -314 c-13 -11 -33 -20 -45 -20
-21 1 -21 1 3 20 13 11 33 20 45 20 21 -1 21 -1 -3 -20z"/>
<path d="M3404 3366 c-64 -30 -114 -88 -167 -195 -68 -138 -53 -227 47 -272
53 -24 209 -26 263 -4 89 37 135 97 154 200 38 206 -122 352 -297 271z"/>
<path d="M4924 3026 c-75 -55 -173 -158 -208 -217 -39 -68 -60 -178 -46 -244
25 -120 101 -185 217 -185 125 0 281 108 341 238 37 78 38 201 3 280 -13 29
-31 58 -40 65 -9 7 -27 26 -39 43 -27 39 -78 64 -130 64 -31 0 -52 -9 -98 -44z"/>
<path d="M3955 2591 c-73 -19 -123 -60 -150 -123 -23 -56 -18 -100 25 -248 22
-74 37 -136 35 -138 -2 -3 -19 2 -37 11 -164 78 -316 21 -395 -148 -26 -55
-28 -69 -27 -170 2 -151 43 -330 125 -542 62 -158 133 -213 273 -213 75 0 130
24 173 73 59 68 65 146 17 253 -13 30 -21 54 -18 54 2 0 24 -10 47 -22 64 -34
154 -31 237 9 92 43 144 92 182 171 29 61 32 75 31 157 -1 97 -5 113 -100 360
-27 72 -67 186 -88 255 -45 147 -75 196 -142 233 -53 28 -138 41 -188 28z"/>
<path d="M2011 2204 c-55 -15 -104 -46 -150 -94 -38 -40 -138 -196 -151 -236
-18 -53 -7 -119 26 -167 l29 -40 -55 -56 c-64 -66 -103 -141 -132 -253 -18
-71 -20 -103 -15 -282 5 -222 13 -270 72 -394 57 -121 155 -207 341 -301 176
-88 369 -129 549 -118 161 11 269 57 374 159 91 89 159 183 177 245 14 49 14
58 -1 107 l-17 53 47 64 c58 79 122 213 163 339 49 152 101 349 112 429 36
257 -131 431 -383 399 -75 -10 -232 -72 -432 -173 -88 -44 -163 -81 -166 -83
-3 -1 -14 37 -24 85 -19 98 -58 192 -99 240 -32 37 -114 79 -171 87 -22 3 -64
-2 -94 -10z m979 -566 c0 -66 -123 -385 -191 -498 -91 -149 -91 -149 -86 -215
3 -33 8 -70 12 -81 11 -34 -97 -143 -175 -178 -151 -68 -366 -12 -513 132 -64
62 -87 128 -94 258 -9 162 31 270 116 314 22 11 42 20 44 20 3 0 17 -34 32
-77 48 -136 98 -191 181 -201 124 -14 246 115 216 227 -5 20 -12 43 -16 51 -7
18 89 78 299 187 138 71 175 84 175 61z"/>
</g>
</svg>
