<?xml version="1.0" standalone="no"?>
<!DOCTYPE svg PUBLIC "-//W3C//DTD SVG 20010904//EN"
 "http://www.w3.org/TR/2001/REC-SVG-20010904/DTD/svg10.dtd">
<svg version="1.0" xmlns="http://www.w3.org/2000/svg"
 width="600.000000pt" height="600.000000pt" viewBox="0 0 600.000000 600.000000"
 preserveAspectRatio="xMidYMid meet">
<metadata>
Created by potrace 1.15, written by Peter Selinger 2001-2017
</metadata>
<g transform="translate(0.000000,600.000000) scale(0.100000,-0.100000)"
fill="#16364b" stroke="none">
<path d="M2010 5823 c-48 -9 -80 -46 -232 -266 -251 -363 -279 -414 -286 -514
-5 -77 20 -136 75 -173 30 -21 48 -25 104 -24 62 0 78 5 171 52 57 28 152 84
213 124 60 40 170 109 245 154 122 73 137 85 159 127 39 79 7 162 -76 199 -69
30 -113 21 -237 -50 -58 -33 -106 -58 -106 -55 0 3 33 52 74 109 82 114 92
143 77 202 -12 44 -79 112 -110 112 -11 0 -25 2 -33 4 -7 2 -24 1 -38 -1z"/>
<path d="M3015 5706 c-63 -27 -107 -109 -91 -169 14 -56 51 -89 165 -148 130
-68 290 -170 351 -225 54 -49 92 -105 119 -177 49 -133 19 -189 -123 -232 -92
-28 -130 -59 -147 -118 -21 -75 23 -150 105 -177 27 -9 48 -8 102 5 150 35
273 125 331 243 26 53 28 66 27 172 0 102 -4 125 -31 202 -17 48 -46 113 -64
145 -78 131 -315 324 -540 441 -108 55 -148 63 -204 38z"/>
<path d="M1000 5393 c-166 -29 -316 -139 -383 -281 -27 -58 -32 -81 -35 -166
-5 -120 14 -201 67 -284 58 -88 164 -168 248 -186 74 -16 172 43 186 113 14
68 -7 104 -102 180 -60 48 -81 86 -81 148 0 46 4 56 35 87 23 24 56 42 100 55
86 27 110 44 136 98 58 120 -42 259 -171 236z"/>
<path d="M2782 5014 c-64 -32 -115 -88 -156 -174 -26 -55 -31 -76 -31 -140 0
-87 20 -132 82 -192 67 -65 121 -83 253 -83 95 0 122 3 155 20 56 28 85 76 85
138 0 44 -4 53 -39 89 l-40 39 19 32 c39 64 19 148 -53 220 -80 80 -180 98
-275 51z"/>
<path d="M4736 4890 c-69 -44 -80 -77 -72 -220 9 -186 57 -320 147 -415 86
-91 180 -121 284 -90 48 13 70 28 121 79 73 73 101 143 91 229 -19 154 -132
274 -380 406 -95 49 -127 51 -191 11z"/>
<path d="M1939 4650 c-92 -16 -201 -77 -233 -130 -34 -59 -16 -158 36 -195 60
-42 135 -39 200 7 15 11 40 20 55 21 24 2 32 -6 56 -51 39 -72 76 -94 148 -90
70 5 114 35 141 96 23 51 19 91 -17 161 -46 91 -144 159 -259 180 -65 12 -61
12 -127 1z"/>
<path d="M2985 3977 c-189 -50 -309 -208 -291 -384 14 -135 66 -230 160 -293
108 -73 261 -103 327 -64 55 33 74 68 74 137 0 108 -55 175 -158 191 -72 12
-100 62 -57 101 16 14 28 16 67 10 96 -16 156 -12 190 13 40 28 68 98 59 147
-10 52 -58 100 -124 125 -70 27 -180 34 -247 17z"/>
<path d="M1205 3914 c-232 -33 -287 -51 -331 -110 -26 -34 -29 -45 -29 -115 0
-71 2 -80 31 -115 45 -57 107 -86 172 -82 28 2 52 0 52 -4 0 -10 -112 -198
-160 -268 -101 -149 -192 -319 -279 -523 -59 -137 -65 -164 -51 -216 22 -81
93 -133 180 -133 57 1 93 18 135 62 42 46 168 150 320 265 134 102 267 210
390 314 l70 60 3 -77 c8 -218 -150 -640 -371 -992 -85 -134 -89 -213 -15 -275
64 -54 158 -53 210 2 56 59 224 374 337 631 166 376 221 818 124 983 -38 64
-137 106 -221 93 -98 -14 -200 -72 -340 -194 -46 -39 -85 -70 -87 -68 -1 1 42
77 97 168 54 91 107 189 118 218 23 59 26 145 8 204 -16 55 -78 121 -137 147
-50 21 -164 34 -226 25z"/>
<path d="M4185 3777 c-110 -28 -194 -89 -238 -170 -18 -35 -22 -57 -22 -132 1
-107 20 -158 86 -230 96 -104 222 -129 349 -69 126 60 212 162 269 320 36 98
37 124 12 180 -33 74 -111 102 -301 109 -67 3 -123 0 -155 -8z m95 -317 c-26
-21 -60 -27 -60 -10 0 14 32 29 60 29 l25 1 -25 -20z"/>
<path d="M3483 3390 c-85 -20 -146 -91 -201 -236 -60 -158 -61 -213 -1 -270
30 -28 33 -29 132 -29 91 0 108 3 159 28 133 65 202 209 164 341 -34 117 -147
191 -253 166z"/>
<path d="M4938 2980 c-36 -11 -67 -35 -155 -122 -144 -142 -198 -320 -135
-445 40 -77 104 -113 201 -113 49 0 72 7 138 40 142 71 222 184 231 325 7 111
-14 170 -89 244 -73 74 -122 92 -191 71z"/>
<path d="M3995 2548 c-51 -18 -92 -55 -119 -110 -39 -78 -35 -128 23 -280 27
-70 46 -129 44 -132 -2 -2 -31 7 -63 20 -189 77 -344 40 -413 -98 -54 -106
-49 -190 27 -478 24 -91 53 -205 65 -254 24 -103 54 -149 115 -177 126 -57
282 19 322 157 17 58 13 85 -32 254 -7 24 -6 24 27 -7 46 -44 97 -63 166 -63
141 0 264 73 324 190 31 62 38 190 14 297 -20 91 -114 394 -156 503 -48 125
-135 190 -254 189 -33 0 -73 -5 -90 -11z"/>
<path d="M2004 2136 c-61 -28 -125 -99 -185 -204 -39 -68 -44 -84 -44 -137 0
-80 36 -144 98 -174 24 -12 54 -21 68 -21 20 0 15 -5 -26 -30 -68 -39 -159
-132 -201 -202 -56 -96 -78 -185 -78 -318 -1 -136 19 -213 92 -355 39 -74 65
-108 152 -195 118 -118 203 -173 348 -223 113 -39 252 -48 367 -22 160 35 336
124 447 225 68 61 88 98 88 164 0 81 -33 134 -105 167 -80 37 -155 20 -241
-54 -175 -149 -375 -163 -565 -39 -122 80 -180 161 -199 277 -8 51 -7 76 5
140 13 64 88 86 118 36 30 -51 118 -141 158 -161 82 -42 171 -34 234 21 77 68
68 182 -23 283 -30 34 -90 144 -81 149 212 112 527 257 557 257 20 0 15 -16
-49 -153 -102 -221 -209 -484 -209 -515 0 -41 27 -112 53 -141 80 -87 236 -78
305 18 65 89 186 356 259 568 36 103 38 114 38 238 0 126 -1 132 -32 195 -68
137 -144 191 -278 198 -102 5 -129 -4 -453 -143 -197 -85 -255 -106 -261 -96
-5 8 -12 35 -15 60 -10 72 -61 151 -121 183 -66 36 -148 38 -221 4z"/>
</g>
</svg>
