<?xml version="1.0" standalone="no"?>
<!DOCTYPE svg PUBLIC "-//W3C//DTD SVG 20010904//EN"
 "http://www.w3.org/TR/2001/REC-SVG-20010904/DTD/svg10.dtd">
<svg version="1.0" xmlns="http://www.w3.org/2000/svg"
 width="600.000000pt" height="600.000000pt" viewBox="0 0 600.000000 600.000000"
 preserveAspectRatio="xMidYMid meet">
<metadata>
Created by potrace 1.15, written by Peter Selinger 2001-2017
</metadata>
<g transform="translate(0.000000,600.000000) scale(0.100000,-0.100000)"
fill="#16364b" stroke="none">
<path d="M1711 5812 c-53 -26 -67 -54 -120 -232 -67 -226 -84 -317 -85 -440
-1 -124 17 -183 69 -229 101 -88 235 -45 396 127 69 74 257 315 299 384 57 95
-17 218 -133 218 -62 0 -91 -23 -187 -150 -51 -66 -96 -123 -102 -126 -13 -8
-4 32 38 173 19 61 34 126 34 143 0 50 -38 107 -85 130 -51 25 -80 25 -124 2z"/>
<path d="M3090 5644 c-36 -23 -58 -56 -72 -108 -10 -38 -10 -54 2 -88 17 -48
21 -51 264 -211 180 -117 288 -212 325 -284 11 -23 21 -47 21 -53 0 -5 -23
-10 -52 -10 -63 0 -102 -22 -135 -77 -29 -49 -29 -100 0 -144 30 -45 66 -61
149 -67 102 -7 152 11 219 77 47 48 58 66 74 123 31 118 5 228 -87 359 -99
141 -301 317 -512 445 -97 59 -147 68 -196 38z"/>
<path d="M880 5441 c-86 -28 -131 -55 -191 -114 -102 -102 -154 -253 -131
-380 22 -118 99 -231 202 -297 45 -29 57 -32 105 -28 92 8 140 69 133 170 -4
59 -6 61 -70 121 -36 34 -69 73 -73 85 -18 59 27 141 92 168 18 8 60 14 93 14
72 0 113 18 140 63 40 65 15 154 -56 194 -50 29 -162 30 -244 4z"/>
<path d="M2905 5136 c-126 -59 -194 -185 -161 -299 20 -69 64 -120 134 -154
49 -24 68 -28 142 -27 144 1 240 53 256 140 10 53 -4 162 -27 214 -24 54 -71
105 -121 131 -54 28 -158 26 -223 -5z"/>
<path d="M4785 4865 c-40 -18 -68 -43 -91 -80 -16 -24 -19 -48 -18 -140 3
-240 95 -435 242 -507 72 -35 169 -32 241 7 227 125 203 421 -50 620 -124 97
-248 136 -324 100z"/>
<path d="M2075 4833 c-159 -35 -227 -92 -227 -190 0 -107 117 -177 213 -127
17 8 51 18 78 21 43 5 49 3 65 -22 52 -79 196 -71 254 15 20 29 23 45 20 93
-7 96 -73 170 -181 202 -47 14 -176 19 -222 8z"/>
<path d="M2838 4086 c-73 -20 -122 -58 -152 -117 -76 -153 21 -301 228 -345
156 -34 522 -1 595 53 42 32 64 69 69 121 8 90 -32 133 -178 195 -218 91 -435
127 -562 93z"/>
<path d="M1075 4051 c-116 -15 -167 -63 -173 -166 -3 -50 1 -69 25 -115 16
-32 43 -65 63 -79 32 -21 43 -23 118 -18 45 3 82 2 82 -2 0 -9 -86 -112 -226
-272 -108 -124 -262 -315 -344 -426 -76 -105 -77 -192 -4 -273 43 -47 91 -65
148 -55 22 4 66 8 97 10 67 3 70 4 251 126 79 53 183 122 231 153 l88 57 44
-42 c69 -65 80 -128 45 -263 -43 -169 -159 -364 -300 -507 -64 -65 -97 -90
-128 -100 -25 -7 -55 -26 -72 -46 -58 -66 -32 -195 49 -250 96 -65 257 18 400
206 138 182 270 422 318 577 24 80 27 105 27 241 l1 151 37 11 c45 14 100 75
116 130 15 48 15 223 1 276 -25 93 -100 142 -204 133 -43 -4 -89 -21 -211 -81
-85 -43 -157 -77 -160 -77 -2 0 34 47 81 105 111 137 147 208 153 303 6 89
-14 147 -70 209 -62 66 -124 85 -288 89 -74 1 -162 -1 -195 -5z"/>
<path d="M4190 3766 c-128 -28 -236 -118 -266 -224 -34 -116 0 -246 87 -327
87 -82 182 -108 288 -81 151 39 263 160 325 350 32 98 33 152 3 196 -32 48
-69 66 -176 84 -110 19 -184 19 -261 2z m80 -305 c0 -13 -41 -41 -58 -41 -20
0 -9 23 19 37 29 15 39 16 39 4z"/>
<path d="M3374 3378 c-47 -37 -61 -57 -120 -173 -51 -101 -56 -114 -52 -163 5
-55 29 -92 78 -117 36 -18 140 -26 184 -14 52 14 110 70 143 136 23 48 27 69
27 144 1 81 -1 90 -29 130 -39 54 -86 79 -151 79 -38 0 -59 -6 -80 -22z"/>
<path d="M5010 3203 c-69 -36 -196 -156 -237 -224 -35 -59 -63 -152 -63 -211
0 -56 36 -140 76 -181 54 -53 99 -72 174 -72 202 0 371 212 358 449 -3 51 -11
94 -23 116 -21 42 -79 108 -114 132 -39 27 -107 23 -171 -9z"/>
<path d="M3931 2524 c-127 -64 -159 -184 -98 -377 14 -42 21 -77 17 -77 -4 0
-27 7 -50 15 -120 42 -253 -11 -306 -123 -47 -99 -17 -322 83 -612 44 -129 54
-148 90 -181 51 -48 92 -64 169 -63 58 0 78 4 117 27 58 34 97 85 112 145 l12
47 65 2 c193 6 318 161 287 352 -5 34 -30 121 -55 194 -77 223 -93 277 -129
420 -39 161 -61 197 -139 233 -66 31 -110 30 -175 -2z"/>
<path d="M2012 2362 c-117 -42 -221 -142 -286 -277 -19 -38 -75 -153 -125
-255 -137 -278 -175 -412 -173 -610 1 -176 45 -318 143 -464 104 -154 231
-248 419 -309 155 -51 383 -60 525 -22 158 43 344 163 443 288 29 36 56 67 60
69 17 6 71 96 117 192 50 105 136 353 181 526 21 81 28 129 28 210 1 99 -1
109 -32 172 -107 219 -345 261 -672 119 -62 -27 -92 -36 -95 -28 -33 95 -55
139 -101 200 -123 163 -176 198 -304 204 -55 3 -89 -1 -128 -15z m125 -444
c12 -13 33 -61 48 -108 37 -117 69 -172 128 -221 92 -78 161 -87 277 -35 225
100 328 144 354 150 l29 7 -7 -58 c-11 -97 -54 -251 -107 -383 -48 -121 -122
-260 -138 -260 -4 0 -27 -23 -50 -52 -58 -72 -128 -122 -208 -150 -57 -19 -88
-23 -188 -23 -117 1 -122 2 -197 37 -306 144 -366 496 -141 834 22 33 53 87
69 120 34 66 96 164 105 164 3 0 15 -10 26 -22z"/>
</g>
</svg>
