<?xml version="1.0" standalone="no"?>
<!DOCTYPE svg PUBLIC "-//W3C//DTD SVG 20010904//EN"
 "http://www.w3.org/TR/2001/REC-SVG-20010904/DTD/svg10.dtd">
<svg version="1.0" xmlns="http://www.w3.org/2000/svg"
 width="600.000000pt" height="600.000000pt" viewBox="0 0 600.000000 600.000000"
 preserveAspectRatio="xMidYMid meet">
<metadata>
Created by potrace 1.15, written by Peter Selinger 2001-2017
</metadata>
<g transform="translate(0.000000,600.000000) scale(0.100000,-0.100000)"
fill="#16364b" stroke="none">
<path d="M1515 5757 c-27 -13 -133 -57 -235 -97 -205 -82 -250 -112 -250 -169
0 -47 25 -87 61 -100 44 -15 175 -14 390 4 225 19 248 29 249 111 0 49 -33 86
-80 88 -36 1 -36 3 -10 31 12 12 23 38 27 58 5 31 1 40 -25 67 -36 36 -61 37
-127 7z"/>
<path d="M2356 5407 c-21 -21 -23 -35 -30 -162 -13 -258 -39 -409 -90 -522
-32 -68 -112 -152 -173 -182 -26 -13 -63 -35 -80 -48 -29 -21 -33 -30 -33 -68
0 -78 68 -107 153 -64 246 125 361 324 396 683 23 236 12 362 -34 380 -36 14
-86 6 -109 -17z"/>
<path d="M3518 5303 c-48 -55 -51 -107 -13 -184 55 -108 140 -187 227 -210 79
-21 138 23 138 104 0 87 -140 270 -226 295 -59 17 -108 15 -126 -5z"/>
<path d="M2970 5103 c-159 -84 -214 -328 -93 -409 87 -58 276 21 325 135 27
64 34 157 15 202 -22 54 -77 92 -140 97 -43 3 -62 -1 -107 -25z m70 -192 c0
-24 -32 -59 -38 -42 -4 11 23 61 33 61 3 0 5 -9 5 -19z"/>
<path d="M4755 4747 l-35 -35 0 -150 c0 -227 21 -347 76 -434 56 -88 176 -123
264 -76 124 67 128 230 12 463 -67 134 -176 250 -246 262 -31 5 -40 1 -71 -30z"/>
<path d="M2636 4225 c-78 -28 -126 -98 -126 -186 0 -98 62 -181 159 -214 91
-31 242 -15 346 37 61 31 135 90 151 120 30 58 7 146 -48 182 -13 8 -76 29
-141 46 -133 34 -271 40 -341 15z"/>
<path d="M1155 4143 c-75 -19 -111 -93 -80 -165 5 -13 1 -20 -16 -27 -32 -12
-66 -50 -74 -82 -10 -41 18 -93 69 -129 227 -156 455 -94 456 123 0 120 -82
216 -225 260 -64 20 -105 26 -130 20z"/>
<path d="M5234 3811 c-116 -33 -200 -99 -242 -190 -21 -46 -24 -64 -20 -135 3
-68 10 -91 38 -144 79 -149 213 -195 381 -132 96 36 190 131 224 226 22 62 19
151 -9 209 -23 50 -99 128 -161 166 -38 24 -128 24 -211 0z m93 -297 c5 -15
-24 -44 -43 -44 -21 0 -29 27 -13 46 14 17 50 15 56 -2z"/>
<path d="M4172 3750 c-113 -54 -202 -170 -218 -287 -9 -71 15 -148 65 -204
168 -192 469 -117 547 136 21 68 29 200 15 252 -23 85 -119 133 -265 133 -69
0 -90 -4 -144 -30z m112 -272 c-15 -27 -38 -48 -51 -48 -18 0 -16 20 4 42 18
21 58 25 47 6z"/>
<path d="M3436 3360 c-36 -32 -106 -145 -151 -242 -30 -65 -26 -98 12 -128 53
-41 130 -15 206 70 109 122 138 263 63 309 -48 30 -89 27 -130 -9z"/>
<path d="M1635 3143 c-142 -18 -326 -69 -422 -116 -135 -65 -251 -192 -303
-332 -28 -75 -38 -211 -20 -286 39 -170 167 -296 374 -368 218 -77 267 -131
393 -431 125 -298 267 -448 488 -517 82 -25 403 -25 550 0 55 9 163 21 240 27
77 6 210 22 295 36 85 13 242 38 348 55 202 31 314 62 391 106 164 95 384 266
466 363 155 181 245 502 200 706 -23 105 -60 182 -132 280 -98 131 -199 203
-338 239 -130 33 -257 14 -390 -61 -154 -86 -222 -115 -315 -134 -69 -14 -98
-16 -118 -8 -17 6 -68 8 -132 4 -110 -7 -226 4 -326 29 -83 22 -179 69 -324
160 -275 173 -537 257 -789 254 -58 -1 -119 -4 -136 -6z m338 -397 c132 -36
235 -84 372 -172 77 -50 165 -104 196 -122 116 -66 328 -135 454 -147 33 -4
90 -16 127 -28 l68 -21 132 23 c276 47 417 95 555 189 116 79 146 86 212 52
49 -24 157 -142 164 -177 7 -40 -10 -147 -37 -224 -38 -110 -90 -191 -163
-259 -189 -174 -326 -247 -536 -289 -121 -24 -513 -61 -652 -62 -49 0 -144
-10 -210 -21 -73 -12 -169 -21 -245 -21 -154 -1 -204 16 -278 98 -50 56 -54
62 -160 285 -76 158 -139 249 -229 329 -84 76 -224 166 -316 203 -96 39 -143
79 -152 131 -20 105 61 177 255 225 47 12 96 23 110 26 51 9 276 -3 333 -18z"/>
<path d="M442 2135 c-34 -15 -52 -42 -52 -77 0 -30 80 -194 131 -269 97 -144
241 -222 337 -184 54 22 82 66 82 131 0 68 -31 125 -107 193 -63 57 -295 203
-339 213 -12 3 -35 0 -52 -7z"/>
<path d="M4982 1425 c-17 -14 -40 -25 -52 -25 -36 0 -85 -28 -103 -59 -31 -53
-17 -174 33 -275 36 -76 111 -106 172 -68 55 34 84 102 114 270 18 102 11 139
-30 167 -33 24 -100 19 -134 -10z"/>
</g>
</svg>
