<?xml version="1.0" standalone="no"?>
<!DOCTYPE svg PUBLIC "-//W3C//DTD SVG 20010904//EN"
 "http://www.w3.org/TR/2001/REC-SVG-20010904/DTD/svg10.dtd">
<svg version="1.0" xmlns="http://www.w3.org/2000/svg"
 width="600.000000pt" height="600.000000pt" viewBox="0 0 600.000000 600.000000"
 preserveAspectRatio="xMidYMid meet">
<metadata>
Created by potrace 1.15, written by Peter Selinger 2001-2017
</metadata>
<g transform="translate(0.000000,600.000000) scale(0.100000,-0.100000)"
fill="#16364b" stroke="none">
<path d="M2394 5376 c-19 -14 -21 -28 -27 -183 -15 -407 -93 -590 -294 -696
-87 -46 -100 -59 -85 -92 20 -43 53 -41 142 6 207 110 310 303 341 634 6 66 9
163 6 215 -5 81 -9 97 -27 112 -27 22 -30 22 -56 4z"/>
<path d="M3533 5283 c-7 -2 -20 -20 -29 -38 -13 -29 -14 -40 -3 -72 29 -90
120 -200 188 -229 46 -19 74 -18 106 8 24 19 27 26 23 69 -8 80 -117 234 -184
259 -26 10 -80 12 -101 3z"/>
<path d="M3015 5091 c-81 -49 -138 -159 -139 -269 -1 -69 1 -75 27 -98 53 -46
128 -25 201 57 134 149 126 329 -13 329 -27 0 -58 -8 -76 -19z m85 -106 c0
-39 -24 -88 -65 -134 -37 -41 -65 -53 -65 -28 0 7 7 36 15 65 26 86 115 161
115 97z"/>
<path d="M4752 4710 c-32 -31 -35 -56 -29 -254 10 -303 50 -411 149 -408 68 2
102 76 101 226 0 104 -12 169 -54 310 -19 60 -39 107 -54 122 -30 30 -83 32
-113 4z"/>
<path d="M2655 4231 c-42 -19 -70 -61 -70 -106 0 -73 66 -123 217 -165 152
-43 293 -36 345 16 22 22 25 32 20 77 -7 79 -35 95 -274 158 -85 22 -209 33
-238 20z"/>
<path d="M5239 3971 c-73 -23 -130 -64 -167 -121 -43 -64 -55 -112 -50 -190
12 -161 133 -300 283 -324 49 -8 135 8 192 35 100 48 181 173 191 295 9 111
-35 188 -151 265 -92 62 -190 75 -298 40z m139 -275 c22 -12 23 -14 7 -29 -22
-23 -52 -21 -65 3 -20 38 12 52 58 26z"/>
<path d="M1375 3886 c-125 -39 -185 -115 -185 -230 0 -126 92 -256 223 -316
77 -35 114 -75 167 -180 65 -129 110 -311 125 -505 9 -119 24 -227 46 -346 10
-58 26 -193 34 -300 19 -251 42 -334 128 -466 120 -186 274 -295 497 -350 l34
-9 -84 -40 c-47 -23 -109 -59 -138 -81 -173 -131 -159 -286 28 -308 48 -6 229
8 523 39 45 5 49 -12 8 -37 -50 -29 -81 -74 -81 -117 0 -55 26 -82 86 -87 61
-6 104 20 151 92 84 127 52 268 -65 294 -52 11 -181 4 -444 -25 -82 -9 -152
-13 -156 -9 -9 8 16 27 97 72 58 33 392 158 451 170 14 2 122 0 240 -7 118 -6
266 -14 328 -17 89 -5 112 -9 112 -20 0 -31 34 -85 64 -101 22 -12 67 -18 161
-22 l130 -5 5 -30 c10 -61 148 -97 233 -61 40 16 97 80 97 107 0 33 -28 76
-64 98 -38 24 -210 45 -277 35 -26 -4 -39 -3 -39 5 0 6 4 11 9 11 4 0 75 7
157 15 164 17 266 39 370 81 132 53 418 195 479 239 202 144 328 389 328 640
1 124 -16 202 -65 299 -77 154 -233 318 -365 383 -75 37 -79 38 -187 38 -90 0
-123 -5 -176 -24 -79 -28 -157 -74 -230 -137 -111 -95 -307 -169 -531 -200
-278 -38 -491 22 -765 213 -151 105 -245 213 -397 456 -48 76 -113 173 -144
215 -84 112 -295 320 -384 379 -73 48 -252 129 -334 152 -52 14 -150 13 -200
-3z m207 -240 c29 -13 70 -31 92 -40 157 -65 366 -277 544 -551 231 -355 262
-395 396 -500 220 -171 454 -279 686 -315 316 -49 750 64 985 256 77 62 136
86 231 91 73 5 88 2 137 -20 133 -61 252 -249 265 -418 12 -171 -91 -362 -263
-484 -110 -79 -444 -217 -601 -250 -257 -53 -848 -58 -1360 -11 -256 23 -352
47 -447 110 -135 90 -188 220 -208 509 -5 88 -21 217 -34 286 -13 69 -31 198
-40 286 -21 209 -45 327 -94 474 -51 152 -107 271 -166 349 -53 70 -78 90
-185 148 -155 83 -100 154 62 80z m2206 -2523 c-10 -2 -28 -2 -40 0 -13 2 -5
4 17 4 22 1 32 -1 23 -4z"/>
<path d="M2333 2465 c-31 -22 -30 -69 2 -100 34 -35 71 -33 90 5 19 38 19 53
-2 78 -25 29 -63 36 -90 17z"/>
<path d="M2810 2040 c-34 -34 -21 -79 30 -105 38 -20 45 -19 70 7 25 27 26 79
2 101 -25 23 -78 21 -102 -3z"/>
<path d="M4198 3761 c-125 -40 -220 -148 -247 -282 -14 -66 -2 -133 34 -194
54 -92 186 -147 303 -125 193 35 297 202 270 431 -10 84 -17 100 -61 132 -75
56 -194 71 -299 38z m84 -287 c-5 -27 -22 -44 -43 -44 -25 0 -24 11 2 44 23
30 46 30 41 0z"/>
<path d="M3444 3358 c-11 -13 -27 -34 -36 -48 -29 -47 -118 -257 -118 -278 0
-30 43 -57 68 -43 32 17 89 102 137 204 45 95 56 152 33 175 -19 19 -63 14
-84 -10z"/>
<path d="M477 2012 c-10 -10 -17 -28 -17 -39 0 -30 126 -130 227 -182 46 -23
112 -28 131 -9 19 19 14 63 -10 85 -51 47 -262 163 -296 163 -10 0 -26 -8 -35
-18z"/>
<path d="M5305 1096 c-25 -25 -55 -111 -55 -158 0 -46 30 -108 61 -123 90 -47
168 36 169 178 0 63 -3 71 -29 98 -39 39 -109 41 -146 5z"/>
</g>
</svg>
