<?xml version="1.0" standalone="no"?>
<!DOCTYPE svg PUBLIC "-//W3C//DTD SVG 20010904//EN"
 "http://www.w3.org/TR/2001/REC-SVG-20010904/DTD/svg10.dtd">
<svg version="1.0" xmlns="http://www.w3.org/2000/svg"
 width="600.000000pt" height="600.000000pt" viewBox="0 0 600.000000 600.000000"
 preserveAspectRatio="xMidYMid meet">
<metadata>
Created by potrace 1.15, written by Peter Selinger 2001-2017
</metadata>
<g transform="translate(0.000000,600.000000) scale(0.100000,-0.100000)"
fill="#16364b" stroke="none">
<path d="M2272 5463 c-44 -9 -87 -66 -115 -151 -47 -142 -31 -256 47 -337 65
-68 127 -77 327 -49 61 8 113 13 116 11 2 -3 -25 -49 -60 -104 -157 -240 -277
-480 -277 -552 0 -43 42 -104 85 -126 22 -11 42 -21 44 -22 2 -1 -6 -14 -18
-28 -46 -60 -36 -155 22 -199 56 -43 86 -42 261 8 88 25 198 53 245 62 221 40
389 76 424 91 108 46 103 213 -7 267 -34 17 -46 18 -95 8 -114 -22 -439 -91
-545 -116 -60 -15 -111 -25 -113 -23 -5 6 64 164 104 237 20 36 77 130 126
210 120 193 149 255 154 338 5 61 2 73 -29 132 -40 77 -99 123 -183 140 -58
12 -95 9 -244 -21 -52 -11 -96 -18 -98 -15 -2 2 1 15 7 30 26 69 2 155 -54
191 -27 18 -86 26 -124 18z"/>
<path d="M3802 5100 c-89 -24 -189 -75 -216 -113 -29 -39 -29 -115 0 -153 59
-79 126 -92 235 -44 41 18 95 35 121 38 45 4 47 4 50 -24 8 -72 -31 -219 -100
-379 -38 -89 -44 -144 -18 -192 33 -64 133 -85 201 -43 41 25 75 92 133 262
87 250 101 404 47 514 -65 133 -249 187 -453 134z"/>
<path d="M1745 4944 c-65 -10 -143 -38 -229 -81 -117 -59 -310 -185 -329 -215
-39 -60 -24 -155 31 -199 15 -11 38 -44 52 -72 34 -70 68 -91 176 -106 225
-31 339 -65 420 -123 87 -63 99 -68 144 -68 58 0 103 28 130 79 25 49 26 106
3 148 -41 74 -228 177 -403 222 -61 15 -113 31 -116 34 -3 3 31 17 75 31 60
19 101 25 155 24 57 -1 82 3 107 19 53 30 79 77 79 141 0 106 -62 159 -192
166 -40 2 -86 2 -103 0z"/>
<path d="M4470 4254 c-147 -16 -262 -38 -289 -55 -94 -57 -95 -206 0 -254 36
-19 89 -20 199 -6 98 13 206 14 252 0 28 -7 40 -17 44 -35 9 -37 -3 -138 -36
-304 -36 -175 -36 -197 -7 -240 48 -71 123 -97 189 -66 46 22 61 50 96 186 98
369 78 575 -69 691 -75 59 -250 98 -379 83z"/>
<path d="M2064 3875 c-123 -41 -278 -74 -387 -81 -140 -10 -201 -57 -201 -154
1 -55 23 -101 66 -132 30 -21 43 -23 143 -22 82 1 141 8 230 28 130 30 322 95
373 126 92 56 97 197 9 250 -46 29 -114 24 -233 -15z"/>
<path d="M3684 3741 c-28 -10 -120 -60 -205 -110 -85 -51 -205 -117 -267 -147
-124 -60 -152 -88 -152 -157 0 -82 58 -137 145 -137 57 0 215 68 368 158 49
29 91 52 93 52 11 0 0 -30 -51 -142 -71 -156 -72 -212 -5 -265 48 -39 135 -34
185 10 29 25 108 199 162 356 64 185 48 304 -49 368 -54 36 -149 42 -224 14z"/>
<path d="M2161 3274 c-120 -13 -145 -24 -184 -76 -25 -33 -34 -118 -17 -158 7
-17 28 -44 47 -61 l35 -31 204 8 c171 6 204 5 204 -7 0 -8 -7 -44 -17 -80 -17
-66 -17 -66 8 -115 30 -61 74 -88 144 -88 94 0 152 54 181 164 22 89 16 209
-15 274 -83 171 -225 212 -590 170z"/>
<path d="M4235 3198 c-11 -6 -49 -39 -85 -73 -139 -131 -374 -256 -569 -301
-109 -25 -161 -83 -161 -177 0 -59 32 -106 93 -136 l48 -24 87 17 c176 35 429
139 555 230 71 50 196 170 238 229 56 77 32 184 -51 228 -39 21 -123 25 -155
7z"/>
<path d="M4895 3166 c-47 -20 -94 -65 -117 -109 -17 -34 -20 -58 -19 -139 l1
-97 -82 -69 c-370 -310 -490 -627 -350 -925 71 -152 207 -214 337 -153 65 30
109 81 124 144 14 55 5 106 -30 174 -24 48 -24 94 1 165 23 67 62 109 207 229
162 134 216 207 249 335 20 75 22 243 5 307 -26 94 -114 152 -228 152 -38 -1
-81 -7 -98 -14z"/>
<path d="M1205 3032 c-72 -35 -105 -87 -105 -168 0 -62 20 -104 70 -147 41
-35 43 -39 51 -114 4 -43 8 -132 9 -198 0 -148 15 -323 36 -422 23 -113 72
-253 101 -291 59 -77 188 -84 281 -14 79 58 91 132 43 254 -16 40 -32 91 -36
113 l-7 40 21 -29 c29 -43 89 -76 136 -76 58 0 99 30 151 111 52 81 130 169
151 169 7 0 18 -12 24 -27 6 -16 21 -40 35 -54 l25 -26 -24 -84 c-47 -162 -52
-198 -52 -389 0 -167 2 -188 20 -219 61 -104 203 -106 266 -4 23 36 24 45 21
188 -3 161 1 195 49 351 37 118 34 156 -11 208 -23 25 -30 44 -30 74 0 104
-92 239 -192 282 -126 54 -267 11 -401 -124 -77 -76 -187 -229 -187 -259 0
-10 -4 -16 -9 -13 -4 3 -11 97 -15 208 -12 365 -42 495 -133 590 -71 74 -209
107 -288 70z"/>
<path d="M3420 2225 c-79 -11 -262 -45 -627 -116 -64 -13 -124 -55 -148 -105
-23 -48 -24 -128 -2 -170 23 -45 81 -92 123 -100 48 -9 80 -4 406 66 192 42
315 63 383 67 l100 5 38 -46 c47 -57 102 -86 162 -86 52 0 77 10 118 49 44 41
60 80 60 146 0 150 -107 263 -279 294 -75 14 -215 12 -334 -4z"/>
<path d="M4476 1585 c-16 -9 -55 -42 -85 -75 -68 -71 -78 -74 -316 -94 -411
-35 -552 -94 -789 -328 -78 -76 -120 -111 -145 -118 -20 -5 -70 -34 -111 -65
-88 -64 -142 -85 -222 -85 -135 0 -288 106 -440 304 -68 89 -103 108 -185 104
-51 -3 -69 -9 -99 -34 -57 -45 -76 -77 -82 -132 -6 -68 19 -118 110 -222 282
-320 536 -447 804 -401 129 23 363 156 424 241 14 20 32 30 60 35 32 5 59 24
132 92 120 109 195 161 280 190 60 21 96 25 296 33 269 10 325 22 435 94 80
52 106 76 153 139 49 66 62 120 44 185 -29 111 -172 185 -264 137z"/>
</g>
</svg>
