<?xml version="1.0" standalone="no"?>
<!DOCTYPE svg PUBLIC "-//W3C//DTD SVG 20010904//EN"
 "http://www.w3.org/TR/2001/REC-SVG-20010904/DTD/svg10.dtd">
<svg version="1.0" xmlns="http://www.w3.org/2000/svg"
 width="600.000000pt" height="600.000000pt" viewBox="0 0 600.000000 600.000000"
 preserveAspectRatio="xMidYMid meet">
<metadata>
Created by potrace 1.15, written by Peter Selinger 2001-2017
</metadata>
<g transform="translate(0.000000,600.000000) scale(0.100000,-0.100000)"
fill="#16364b" stroke="none">
<path d="M2158 5376 c-102 -37 -166 -95 -218 -201 -50 -100 -54 -146 -39 -465
17 -372 18 -856 1 -980 -7 -52 -17 -232 -22 -400 -5 -168 -12 -334 -16 -369
l-7 -64 -189 6 c-104 4 -246 14 -317 23 l-128 17 -9 46 c-12 60 -38 63 -42 6
l-4 -40 -48 55 c-39 44 -51 53 -61 42 -11 -10 -10 -21 4 -59 9 -25 15 -48 13
-50 -2 -2 -23 4 -46 13 -36 14 -43 15 -51 3 -9 -14 11 -37 57 -66 17 -11 16
-12 -11 -13 -38 -1 -59 -14 -52 -32 3 -10 56 -26 154 -47 216 -46 266 -52 501
-58 l212 -6 0 -187 c0 -260 40 -617 86 -777 81 -280 274 -461 563 -527 34 -8
65 -16 66 -18 2 -2 -1 -39 -7 -83 -19 -156 15 -398 82 -584 17 -45 30 -85 30
-90 0 -5 -43 -11 -96 -13 -94 -4 -97 -5 -125 -36 -39 -44 -39 -90 0 -134 29
-33 30 -33 123 -33 85 0 98 3 147 30 59 33 96 80 106 137 6 30 -2 67 -38 175
-25 76 -52 180 -61 232 -16 97 -20 275 -8 346 9 47 -19 45 262 20 122 -11 295
-18 460 -19 l265 -1 -3 -102 c-4 -111 2 -151 70 -436 47 -200 47 -197 -30
-197 -111 0 -192 -53 -192 -123 0 -152 318 -109 400 54 26 50 26 120 -1 195
-40 116 -89 330 -95 414 -6 81 7 195 24 211 4 5 95 15 204 24 211 17 275 32
357 85 97 61 168 160 222 305 l33 90 0 220 c1 218 0 221 -37 385 -20 91 -49
194 -64 230 -35 86 -116 208 -197 297 l-66 71 42 7 c191 29 391 85 562 158 68
29 196 116 196 133 0 7 -6 14 -14 17 -9 4 -12 14 -9 26 4 18 1 21 -24 21 -26
0 -30 3 -26 24 7 37 -12 39 -50 6 -42 -36 -47 -37 -47 -7 0 13 -3 27 -7 30
-13 14 -33 -16 -33 -50 0 -33 -3 -36 -72 -68 -160 -73 -367 -127 -560 -147
l-108 -11 -107 100 c-169 155 -228 202 -419 331 -404 272 -607 443 -708 597
-121 182 -173 353 -257 840 -23 137 -32 170 -69 244 -51 100 -140 188 -223
219 -66 25 -171 29 -229 8z m166 -148 c58 -18 128 -90 155 -162 11 -31 28 -99
36 -149 29 -185 56 -331 76 -411 77 -311 202 -550 372 -718 72 -71 381 -304
612 -461 220 -150 319 -232 535 -447 281 -279 326 -348 385 -590 51 -207 60
-301 47 -447 -18 -179 -60 -285 -151 -370 -71 -67 -124 -82 -351 -99 -107 -8
-260 -21 -339 -29 -179 -19 -484 -18 -701 0 -354 31 -408 37 -485 56 -259 63
-403 218 -455 489 -54 277 -73 721 -46 1050 9 108 16 291 16 406 0 142 7 277
21 415 19 181 20 243 15 549 -3 190 -10 426 -15 524 -10 196 -4 247 39 309 38
55 106 94 169 96 13 1 42 -5 65 -11z"/>
<path d="M2610 2840 c-29 -29 -25 -64 11 -94 48 -41 98 -16 99 50 0 58 -68 86
-110 44z"/>
<path d="M3146 2789 c-32 -25 -33 -59 -3 -87 32 -30 71 -28 96 4 56 71 -21
139 -93 83z"/>
<path d="M2836 1885 c-34 -35 -11 -79 47 -90 38 -7 323 1 337 10 15 9 12 61
-5 75 -10 8 -56 11 -157 9 -79 -2 -157 0 -174 5 -23 5 -36 3 -48 -9z"/>
</g>
</svg>
