<?xml version="1.0" standalone="no"?>
<!DOCTYPE svg PUBLIC "-//W3C//DTD SVG 20010904//EN"
 "http://www.w3.org/TR/2001/REC-SVG-20010904/DTD/svg10.dtd">
<svg version="1.0" xmlns="http://www.w3.org/2000/svg"
 width="600.000000pt" height="600.000000pt" viewBox="0 0 600.000000 600.000000"
 preserveAspectRatio="xMidYMid meet">
<metadata>
Created by potrace 1.15, written by Peter Selinger 2001-2017
</metadata>
<g transform="translate(0.000000,600.000000) scale(0.100000,-0.100000)"
fill="#16364b" stroke="none">
<path d="M1961 4903 c-30 -7 -62 -19 -70 -25 -120 -90 -154 -206 -113 -384 37
-159 62 -491 62 -809 0 -126 4 -279 10 -340 6 -66 7 -252 4 -465 l-7 -355 -55
-135 c-86 -211 -192 -543 -178 -557 3 -3 -2 -12 -10 -20 -13 -14 -13 -17 2
-34 14 -15 14 -21 4 -34 -10 -12 -9 -16 4 -21 9 -3 23 -3 32 0 11 4 18 -1 21
-14 3 -11 12 -20 19 -20 20 0 75 80 73 105 -1 11 1 27 4 35 3 8 23 74 43 145
20 72 40 134 44 138 4 4 10 -18 14 -50 10 -83 52 -263 87 -373 64 -197 145
-298 303 -376 88 -42 222 -84 274 -84 l25 0 -6 -92 c-11 -154 18 -326 94 -556
17 -51 29 -99 26 -106 -4 -9 -36 -15 -102 -19 -111 -8 -156 -28 -174 -78 -15
-42 7 -92 51 -115 67 -36 210 -13 301 47 107 71 119 135 59 315 -73 219 -95
325 -96 456 0 65 2 119 5 122 2 2 164 -3 359 -11 195 -8 416 -12 490 -8 l135
6 -3 -98 c-6 -157 35 -405 89 -547 32 -85 31 -86 -65 -86 -100 0 -137 -11
-159 -49 -50 -85 25 -171 147 -171 141 0 266 105 266 223 0 19 -15 78 -34 133
-64 185 -95 399 -77 529 6 43 13 81 16 83 3 3 82 16 177 29 294 40 346 50 414
82 89 42 162 118 214 223 61 126 81 217 81 378 0 244 -53 405 -185 569 -37 46
-63 81 -59 80 5 -2 39 -15 75 -28 43 -16 68 -31 71 -43 6 -20 38 -23 119 -12
44 6 45 6 46 48 0 22 2 49 4 59 2 14 -8 22 -42 34 -25 8 -50 23 -57 33 -8 11
-21 16 -35 13 -13 -2 -99 23 -192 57 -152 55 -295 95 -457 129 -62 13 -183 78
-324 175 -49 34 -139 96 -200 138 -60 42 -177 115 -260 163 -232 136 -314 203
-414 335 -119 157 -202 312 -324 605 -184 441 -248 546 -371 604 -76 36 -125
42 -195 24z m164 -187 c43 -33 79 -88 108 -164 11 -32 30 -73 42 -92 26 -44
49 -98 124 -292 97 -254 156 -365 286 -538 122 -162 217 -245 455 -398 80 -51
224 -145 320 -208 243 -160 432 -271 590 -346 226 -108 325 -178 411 -292 79
-104 106 -160 131 -269 16 -74 19 -114 15 -202 -11 -224 -93 -403 -210 -459
-59 -28 -93 -34 -482 -79 -263 -30 -299 -32 -585 -30 -468 3 -776 26 -909 70
-216 70 -307 186 -374 478 -45 193 -48 256 -47 845 1 337 -2 602 -9 675 -6 66
-11 251 -11 411 0 316 -16 525 -52 678 -28 121 -22 170 27 214 34 31 41 34 86
30 32 -3 60 -14 84 -32z"/>
<path d="M2597 2702 c-25 -28 -21 -67 9 -91 33 -26 58 -27 84 -1 25 25 26 72
2 93 -25 22 -75 21 -95 -1z"/>
<path d="M3090 2572 c-52 -16 -65 -68 -25 -107 47 -48 105 -19 105 51 0 42
-39 69 -80 56z"/>
<path d="M5210 3969 c-76 -31 -161 -116 -185 -188 -41 -123 -1 -275 95 -365
82 -76 120 -91 235 -91 88 1 107 4 157 28 147 72 230 245 186 390 -17 56 -93
134 -187 191 -76 45 -85 48 -163 52 -68 4 -93 0 -138 -17z m187 -313 c10 -9
-12 -37 -33 -42 -29 -7 -54 11 -54 39 0 17 4 19 42 13 23 -4 44 -8 45 -10z"/>
<path d="M5343 1110 c-43 -18 -91 -149 -79 -215 4 -19 18 -48 32 -65 21 -25
33 -30 69 -30 85 0 129 62 129 187 1 71 -2 85 -20 104 -24 24 -96 35 -131 19z"/>
</g>
</svg>
