<?xml version="1.0" standalone="no"?>
<!DOCTYPE svg PUBLIC "-//W3C//DTD SVG 20010904//EN"
 "http://www.w3.org/TR/2001/REC-SVG-20010904/DTD/svg10.dtd">
<svg version="1.0" xmlns="http://www.w3.org/2000/svg"
 width="600.000000pt" height="600.000000pt" viewBox="0 0 600.000000 600.000000"
 preserveAspectRatio="xMidYMid meet">
<metadata>
Created by potrace 1.15, written by Peter Selinger 2001-2017
</metadata>
<g transform="translate(0.000000,600.000000) scale(0.100000,-0.100000)"
fill="#16364b" stroke="none">
<path d="M1969 5807 c-21 -14 -90 -105 -184 -243 -82 -121 -174 -254 -204
-294 -111 -151 -133 -238 -78 -317 69 -100 196 -114 356 -38 153 73 543 300
584 341 74 74 53 202 -39 240 -71 30 -112 20 -235 -55 -63 -38 -116 -68 -117
-66 -2 2 30 54 72 115 83 122 91 141 83 202 -15 112 -147 176 -238 115z"/>
<path d="M3019 5677 c-47 -31 -70 -81 -66 -139 2 -26 11 -58 20 -71 9 -14 65
-51 124 -83 321 -171 447 -299 460 -468 4 -52 2 -65 -17 -89 -26 -33 -75 -59
-150 -81 -76 -22 -114 -47 -133 -89 -34 -71 -11 -146 55 -187 44 -26 91 -25
185 5 159 50 290 157 333 272 43 112 23 278 -51 426 -95 191 -253 335 -517
468 -135 68 -184 76 -243 36z"/>
<path d="M915 5386 c-69 -22 -121 -54 -183 -110 -158 -147 -197 -387 -94 -580
33 -63 154 -186 206 -210 62 -29 105 -30 156 -4 58 30 90 78 90 135 0 59 -20
95 -82 144 -94 74 -127 140 -107 214 15 55 59 92 140 116 107 33 151 92 136
185 -7 39 -36 80 -75 106 -32 21 -126 23 -187 4z"/>
<path d="M2819 5015 c-171 -55 -272 -322 -182 -487 50 -91 137 -133 278 -132
105 0 155 19 193 75 20 28 23 43 19 88 -3 46 -9 59 -39 86 -19 18 -41 34 -49
37 -11 4 -7 12 13 33 33 33 52 95 44 140 -15 76 -108 158 -191 169 -23 3 -60
-1 -86 -9z"/>
<path d="M4741 4885 c-64 -58 -68 -76 -48 -249 26 -230 67 -338 159 -421 203
-182 496 -8 448 267 -30 171 -152 310 -353 403 -103 48 -153 48 -206 0z"/>
<path d="M1935 4630 c-95 -20 -202 -87 -229 -144 -23 -49 -20 -107 7 -147 51
-77 150 -89 241 -31 66 42 80 41 105 -11 12 -24 35 -56 52 -73 26 -25 38 -29
88 -29 48 0 64 5 94 28 130 99 85 282 -92 372 -78 39 -179 52 -266 35z"/>
<path d="M2948 3966 c-140 -50 -230 -165 -258 -328 -15 -84 0 -188 36 -260 52
-102 173 -187 280 -196 65 -5 104 9 143 54 76 85 31 227 -82 264 -49 15 -67
35 -67 71 0 34 23 85 42 92 7 2 45 2 83 0 58 -4 75 -1 103 16 91 58 96 173 12
245 -61 51 -208 72 -292 42z"/>
<path d="M1200 3923 c-118 -24 -259 -67 -286 -88 -54 -41 -78 -90 -78 -160 0
-76 27 -124 87 -159 53 -30 93 -37 141 -26 47 10 47 11 -42 -116 -155 -220
-352 -572 -397 -709 -30 -92 -29 -148 5 -214 54 -107 203 -128 309 -43 20 16
83 60 141 99 118 79 197 143 391 318 127 114 251 215 263 215 19 0 -25 -232
-80 -424 -48 -165 -177 -429 -338 -687 -58 -94 -65 -129 -34 -189 30 -58 84
-90 153 -90 111 0 151 55 353 491 130 279 168 390 217 639 61 307 52 462 -33
561 -64 74 -154 97 -244 63 -54 -21 -177 -102 -287 -188 -46 -36 -86 -64 -88
-63 -2 2 31 54 72 115 42 61 94 150 117 198 91 189 54 354 -96 431 -41 22 -67
27 -136 29 -47 1 -96 0 -110 -3z"/>
<path d="M4223 3796 c-192 -44 -334 -203 -320 -358 13 -152 143 -263 307 -263
182 1 321 108 436 337 62 124 58 194 -16 245 -60 42 -296 64 -407 39z m18
-317 c-25 -21 -51 -25 -51 -9 0 12 62 41 70 33 3 -2 -6 -13 -19 -24z"/>
<path d="M3458 3376 c-93 -25 -154 -98 -208 -245 -47 -129 -38 -191 37 -248
35 -27 42 -28 142 -28 96 0 111 3 157 27 197 104 215 384 31 472 -69 33 -103
37 -159 22z"/>
<path d="M4897 2949 c-25 -17 -79 -66 -120 -109 -101 -107 -149 -209 -149
-318 -1 -148 116 -252 251 -223 135 29 268 135 310 246 32 83 38 167 17 240
-14 47 -28 68 -78 117 -34 33 -72 64 -85 69 -47 18 -98 10 -146 -22z"/>
<path d="M4004 2531 c-49 -23 -107 -88 -122 -140 -19 -61 -14 -112 20 -236 17
-63 29 -118 26 -121 -3 -3 -34 7 -68 21 -77 32 -181 43 -245 25 -61 -17 -127
-77 -156 -142 -21 -46 -24 -68 -24 -168 1 -138 27 -271 91 -471 52 -161 83
-210 163 -251 90 -47 208 -32 267 33 74 82 81 160 29 306 -19 54 -35 100 -35
102 0 3 15 -9 33 -27 79 -77 191 -94 308 -48 152 61 215 190 189 385 -14 108
-134 579 -159 630 -52 101 -208 151 -317 102z"/>
<path d="M2972 2159 c-82 -14 -270 -91 -448 -184 l-162 -84 -11 46 c-38 150
-150 232 -279 205 -75 -16 -121 -48 -179 -126 -79 -108 -103 -160 -103 -227 0
-69 12 -104 48 -142 38 -41 74 -57 127 -57 57 0 61 -22 6 -39 -51 -15 -148
-87 -193 -142 -82 -101 -112 -199 -112 -364 0 -135 15 -205 69 -322 84 -181
202 -307 370 -390 295 -148 661 -108 922 99 100 80 128 124 128 204 0 53 -4
69 -30 106 -42 58 -96 88 -163 88 -65 0 -99 -17 -176 -87 -84 -76 -152 -105
-251 -111 -105 -6 -177 10 -255 56 -153 90 -230 200 -237 340 -4 65 -1 82 16
110 29 45 60 43 88 -6 34 -61 110 -139 156 -161 144 -70 306 47 283 202 -5 35
-19 58 -58 103 -46 53 -85 121 -103 181 -5 19 -1 23 30 32 20 5 76 34 124 64
198 123 421 225 421 192 0 -59 -116 -346 -201 -499 -66 -117 -78 -163 -59
-220 34 -104 147 -159 251 -125 64 22 105 74 189 244 159 318 229 571 201 722
-23 126 -98 231 -195 273 -52 23 -145 31 -214 19z"/>
</g>
</svg>
