<?xml version="1.0" standalone="no"?>
<!DOCTYPE svg PUBLIC "-//W3C//DTD SVG 20010904//EN"
 "http://www.w3.org/TR/2001/REC-SVG-20010904/DTD/svg10.dtd">
<svg version="1.0" xmlns="http://www.w3.org/2000/svg"
 width="600.000000pt" height="600.000000pt" viewBox="0 0 600.000000 600.000000"
 preserveAspectRatio="xMidYMid meet">
<metadata>
Created by potrace 1.15, written by Peter Selinger 2001-2017
</metadata>
<g transform="translate(0.000000,600.000000) scale(0.100000,-0.100000)"
fill="#16364b" stroke="none">
<path d="M3041 5508 c-102 -53 -109 -181 -13 -257 22 -18 53 -56 68 -84 26
-47 29 -61 29 -147 0 -66 -6 -111 -18 -147 -23 -66 -15 -113 27 -157 73 -78
201 -60 248 35 50 100 69 270 44 387 -27 131 -112 268 -211 343 -69 52 -113
59 -174 27z"/>
<path d="M2044 5449 c-72 -21 -116 -113 -100 -212 18 -112 78 -179 209 -234
66 -28 93 -45 103 -65 8 -15 21 -93 30 -175 8 -81 20 -165 25 -186 12 -45 58
-100 99 -117 68 -28 157 24 179 106 13 48 -11 339 -34 416 -42 143 -123 225
-286 291 -32 13 -38 21 -44 57 -9 53 -55 106 -103 120 -20 5 -39 10 -42 9 -3
0 -19 -5 -36 -10z"/>
<path d="M1600 4779 c-210 -26 -260 -44 -292 -109 -37 -74 -6 -157 74 -200
l46 -24 138 12 c214 19 293 16 380 -13 85 -29 133 -31 174 -10 77 40 101 153
48 233 -66 98 -300 145 -568 111z"/>
<path d="M4326 4650 c-37 -24 -65 -75 -66 -118 0 -52 23 -95 80 -142 98 -82
139 -170 165 -353 17 -121 20 -129 65 -172 27 -26 39 -30 85 -30 98 0 151 64
147 177 -2 81 -35 239 -67 325 -45 120 -141 244 -234 304 -55 36 -130 40 -175
9z"/>
<path d="M3182 4480 c-13 -5 -80 -64 -150 -130 -70 -66 -172 -154 -228 -197
-55 -43 -128 -99 -162 -125 -81 -62 -97 -88 -97 -157 0 -94 59 -150 145 -138
56 7 369 214 500 331 90 79 187 174 203 197 40 56 10 157 -58 199 -39 24 -119
34 -153 20z"/>
<path d="M1660 4348 c-25 -13 -55 -38 -67 -57 -44 -66 -22 -171 44 -204 69
-35 280 -65 514 -74 169 -6 178 -5 223 16 87 43 108 145 45 225 -37 47 -74 59
-199 63 -63 2 -185 13 -270 24 -257 33 -240 33 -290 7z"/>
<path d="M3790 3941 c-25 -10 -115 -60 -200 -113 -210 -128 -307 -180 -484
-258 -168 -73 -196 -98 -196 -172 0 -115 106 -189 217 -152 104 35 318 152
508 279 110 73 225 144 255 158 79 35 103 65 108 135 3 48 0 62 -19 86 -43 55
-110 68 -189 37z"/>
<path d="M2250 3784 c-98 -22 -375 -29 -501 -14 -96 11 -110 11 -143 -5 -57
-27 -81 -68 -81 -141 0 -51 4 -66 29 -98 16 -21 43 -44 60 -51 18 -8 106 -19
196 -25 217 -16 362 -6 543 37 113 26 168 104 145 205 -22 99 -92 125 -248 92z"/>
<path d="M4995 3620 c-71 -34 -113 -82 -136 -158 -11 -37 -10 -57 6 -136 31
-161 13 -258 -76 -401 -21 -33 -82 -132 -135 -220 -54 -88 -128 -208 -167
-267 -60 -94 -70 -115 -74 -166 -10 -106 42 -204 124 -238 55 -24 151 -18 212
12 64 32 103 80 225 276 49 79 117 189 152 244 166 267 214 412 214 636 0 149
-26 279 -67 341 -56 85 -187 121 -278 77z"/>
<path d="M1992 3143 c-95 -46 -118 -185 -43 -257 51 -49 175 -87 346 -107 69
-8 114 -19 145 -35 55 -29 101 -30 156 -3 55 26 84 72 84 133 0 122 -89 181
-326 217 -76 12 -170 32 -208 45 -81 28 -109 29 -154 7z"/>
<path d="M4409 3131 c-40 -13 -59 -25 -137 -89 -177 -144 -481 -270 -752 -312
-120 -18 -153 -30 -188 -63 -60 -58 -65 -150 -10 -213 46 -53 80 -57 253 -33
248 34 438 91 603 180 149 80 389 282 417 351 46 115 -60 217 -186 179z"/>
<path d="M1384 2931 c-23 -10 -54 -36 -70 -57 -26 -33 -29 -47 -32 -126 -5
-118 15 -437 34 -545 21 -122 75 -278 137 -397 108 -206 214 -266 348 -198 75
38 102 84 96 169 -4 53 -11 71 -47 125 -24 34 -54 86 -67 116 -58 131 -101
371 -109 607 -3 88 -10 175 -16 193 -32 107 -166 162 -274 113z"/>
<path d="M2084 2341 c-72 -18 -114 -71 -114 -146 0 -100 78 -164 182 -150 73
10 152 -2 190 -30 78 -58 94 -65 138 -65 111 0 187 121 136 218 -37 69 -140
141 -241 168 -53 15 -238 17 -291 5z"/>
<path d="M4080 2065 c-63 -14 -261 -58 -440 -100 -379 -87 -459 -101 -637
-114 -83 -6 -142 -15 -162 -25 -50 -26 -84 -80 -89 -141 -6 -69 12 -119 61
-172 56 -61 104 -73 232 -62 135 13 179 21 475 90 140 33 368 84 506 113 164
35 264 60 286 74 20 12 47 44 62 73 25 45 28 59 24 120 -3 49 -9 76 -24 96
-57 76 -118 86 -294 48z"/>
<path d="M4809 1701 c-46 -15 -73 -33 -149 -106 -178 -169 -291 -216 -873
-364 -226 -58 -256 -70 -298 -120 -78 -95 -58 -234 42 -290 45 -25 118 -27
180 -6 58 21 349 104 521 149 164 43 320 97 398 136 158 80 385 266 421 345
23 49 24 94 4 142 -22 52 -42 72 -100 99 -51 24 -99 29 -146 15z"/>
<path d="M2131 1606 c-19 -7 -47 -27 -62 -45 -51 -62 -43 -135 25 -240 93
-144 198 -234 366 -315 159 -76 233 -70 298 24 46 68 14 187 -60 222 -194 93
-211 103 -281 172 -40 39 -87 92 -103 117 -48 70 -108 92 -183 65z"/>
<path d="M2074 971 c-134 -33 -192 -174 -118 -288 28 -42 128 -120 234 -184
258 -153 673 -188 992 -83 135 44 179 88 186 183 7 95 -30 171 -101 207 -37
20 -114 20 -161 0 -129 -54 -317 -82 -438 -66 -134 19 -204 50 -438 200 -49
31 -108 43 -156 31z"/>
</g>
</svg>
