<?xml version="1.0" standalone="no"?>
<!DOCTYPE svg PUBLIC "-//W3C//DTD SVG 20010904//EN"
 "http://www.w3.org/TR/2001/REC-SVG-20010904/DTD/svg10.dtd">
<svg version="1.0" xmlns="http://www.w3.org/2000/svg"
 width="600.000000pt" height="600.000000pt" viewBox="0 0 600.000000 600.000000"
 preserveAspectRatio="xMidYMid meet">
<metadata>
Created by potrace 1.15, written by Peter Selinger 2001-2017
</metadata>
<g transform="translate(0.000000,600.000000) scale(0.100000,-0.100000)"
fill="#16364b" stroke="none">
<path d="M2398 5473 c-40 -28 -65 -64 -108 -156 -76 -164 -75 -264 2 -351 80
-92 225 -99 492 -25 72 19 86 19 69 -3 -5 -7 -68 -89 -140 -183 -163 -212
-220 -299 -291 -445 -54 -109 -57 -119 -57 -191 0 -67 3 -80 28 -112 46 -60
77 -64 295 -39 207 25 450 29 608 11 91 -10 98 -9 142 13 106 53 112 209 10
265 -30 16 -64 18 -360 18 -181 0 -328 3 -328 6 0 11 119 178 271 382 86 114
168 230 183 257 69 127 30 255 -99 323 -29 15 -64 22 -130 25 -77 3 -113 -1
-249 -32 -88 -20 -166 -36 -173 -36 -10 0 -6 14 12 50 41 81 31 153 -29 209
-34 32 -110 39 -148 14z"/>
<path d="M1690 5054 c-141 -36 -367 -180 -517 -330 -99 -99 -120 -140 -107
-210 8 -44 57 -102 101 -120 18 -8 67 -14 110 -14 174 -1 338 -39 391 -91 16
-16 42 -54 56 -84 15 -30 41 -64 57 -76 98 -69 250 2 252 118 1 59 -49 149
-129 230 -58 60 -88 81 -166 118 -52 25 -109 48 -127 51 -17 4 -31 10 -31 14
0 17 149 80 210 90 74 11 106 31 137 86 29 50 29 88 1 144 -17 33 -35 51 -68
68 -50 25 -91 27 -170 6z"/>
<path d="M4051 4820 c-79 -21 -195 -79 -275 -138 -48 -35 -86 -95 -86 -137 0
-38 38 -104 72 -125 57 -35 109 -27 190 27 73 48 229 109 254 99 20 -7 18 -59
-5 -158 -21 -89 -99 -329 -132 -404 -28 -66 -25 -123 11 -195 34 -66 76 -99
127 -99 17 0 73 11 125 25 138 36 260 55 358 55 112 0 116 -4 100 -102 -16
-95 -72 -321 -105 -427 -31 -99 -28 -135 16 -186 58 -66 153 -70 211 -8 58 63
188 549 188 704 0 76 -3 93 -31 148 -35 70 -79 108 -168 143 -49 19 -74 22
-201 22 -99 0 -168 -5 -219 -17 -41 -9 -76 -16 -77 -14 -2 1 19 67 45 145 60
176 79 299 62 398 -20 113 -73 193 -156 237 -58 30 -204 34 -304 7z"/>
<path d="M2105 3990 c-16 -5 -61 -20 -100 -35 -112 -42 -263 -83 -383 -104
-62 -10 -120 -25 -130 -32 -82 -62 -90 -168 -18 -246 27 -30 41 -36 84 -41 91
-8 340 43 502 105 184 69 221 100 228 189 9 109 -83 192 -183 164z"/>
<path d="M3774 3696 c-83 -19 -175 -56 -335 -137 -205 -104 -249 -143 -249
-226 0 -42 38 -110 74 -133 61 -37 106 -28 225 44 148 88 241 139 247 134 17
-18 -179 -458 -253 -567 -46 -68 -22 -155 57 -209 31 -21 43 -23 115 -19 144
8 353 89 512 199 90 62 197 174 213 223 39 117 -83 213 -221 175 -22 -6 -60
-34 -101 -74 -58 -57 -124 -103 -133 -94 -2 2 10 35 26 73 17 39 46 117 66
175 31 92 36 118 37 205 1 91 -1 104 -26 145 -47 81 -138 111 -254 86z"/>
<path d="M2385 3398 c-95 -17 -320 -90 -351 -114 -88 -65 -83 -198 8 -254 41
-25 84 -25 173 -1 168 45 313 66 331 48 9 -9 -12 -88 -47 -181 -33 -87 -33
-118 1 -173 23 -38 86 -73 131 -73 58 0 117 37 150 94 55 95 82 199 83 316 1
92 -2 111 -23 154 -78 157 -243 224 -456 184z"/>
<path d="M1173 3096 c-61 -20 -109 -52 -134 -92 -69 -113 -25 -248 96 -293
l50 -19 -3 -274 c-5 -381 21 -586 86 -668 63 -79 178 -102 252 -50 42 30 80
111 80 172 0 46 1 47 38 57 58 16 77 35 126 127 68 128 128 214 191 273 41 39
60 50 67 43 19 -19 -16 -397 -47 -515 -43 -165 -29 -244 49 -281 71 -33 166
-6 206 59 19 31 62 178 80 275 19 101 50 373 50 439 0 117 -33 204 -102 273
-97 97 -229 115 -362 49 -83 -41 -219 -172 -285 -273 -24 -38 -46 -68 -49 -68
-3 0 -2 90 1 199 5 122 3 228 -3 272 -27 190 -138 310 -284 308 -34 0 -80 -6
-103 -13z"/>
<path d="M4899 2941 c-80 -16 -158 -84 -188 -164 -6 -16 -11 -59 -11 -97 l0
-68 -67 -27 c-296 -120 -411 -218 -469 -398 -69 -217 -25 -441 118 -601 40
-46 48 -60 37 -67 -8 -5 -19 -9 -26 -9 -6 0 -37 -23 -68 -52 l-57 -52 -81 12
c-45 7 -125 19 -177 27 -121 19 -198 19 -279 0 -170 -40 -328 -163 -495 -382
-26 -35 -57 -68 -69 -74 -12 -7 -50 -38 -84 -71 -99 -94 -165 -110 -264 -61
-107 53 -203 174 -279 350 -28 66 -53 108 -76 129 -93 85 -238 52 -298 -67
-40 -81 -36 -115 37 -270 98 -207 257 -383 418 -463 242 -120 500 -95 692 67
36 32 70 57 74 57 21 0 87 68 140 143 75 107 175 207 238 237 68 33 138 35
279 11 198 -35 305 -27 428 34 61 30 152 114 180 167 22 40 23 109 3 148 l-15
28 39 7 c60 10 142 64 168 110 48 85 22 194 -67 283 -60 60 -78 88 -81 132 -5
76 -5 76 89 121 48 23 129 61 180 86 126 60 217 146 270 251 l37 76 0 141 c0
116 -3 146 -18 177 -48 96 -154 148 -258 129z"/>
<path d="M3266 2385 c-162 -26 -514 -107 -571 -131 -77 -32 -130 -118 -123
-201 5 -63 28 -98 84 -130 65 -37 152 -29 572 58 79 16 157 29 175 29 32 0 32
0 33 -53 1 -125 107 -215 217 -186 55 15 113 71 135 132 26 68 43 182 35 232
-16 108 -88 196 -192 236 -72 28 -239 34 -365 14z"/>
</g>
</svg>
