<?xml version="1.0" standalone="no"?>
<!DOCTYPE svg PUBLIC "-//W3C//DTD SVG 20010904//EN"
 "http://www.w3.org/TR/2001/REC-SVG-20010904/DTD/svg10.dtd">
<svg version="1.0" xmlns="http://www.w3.org/2000/svg"
 width="600.000000pt" height="600.000000pt" viewBox="0 0 600.000000 600.000000"
 preserveAspectRatio="xMidYMid meet">
<metadata>
Created by potrace 1.15, written by Peter Selinger 2001-2017
</metadata>
<g transform="translate(0.000000,600.000000) scale(0.100000,-0.100000)"
fill="#16364b" stroke="none">
<path d="M3114 5676 c-40 -18 -79 -69 -93 -122 -13 -49 5 -130 47 -208 45 -85
172 -202 297 -275 61 -35 125 -75 143 -89 33 -23 33 -24 15 -45 -33 -38 -172
-135 -326 -229 -83 -51 -170 -107 -192 -125 -22 -17 -80 -52 -130 -76 -139
-68 -195 -135 -195 -232 0 -37 36 -102 71 -127 55 -41 150 -40 210 2 15 11 37
41 50 66 25 53 46 64 163 89 44 9 92 23 108 33 27 16 68 83 68 113 0 8 49 41
108 73 158 87 237 143 298 210 72 79 97 147 92 242 -8 124 -75 205 -254 303
-179 99 -233 154 -274 275 -37 112 -118 160 -206 122z"/>
<path d="M1238 5371 c-50 -16 -137 -72 -194 -123 -167 -154 -257 -405 -225
-632 16 -110 54 -215 90 -248 68 -61 168 -58 230 6 45 47 49 88 17 180 -33 96
-35 191 -6 277 36 106 91 173 202 242 67 42 88 77 88 145 0 106 -103 184 -202
153z"/>
<path d="M1620 5201 c-51 -28 -84 -90 -78 -151 4 -43 13 -63 52 -115 6 -8 -5
-45 -33 -109 -72 -164 -67 -275 17 -368 71 -79 177 -106 335 -87 104 12 147
29 182 71 29 35 48 99 40 137 -9 42 -42 89 -77 111 -38 23 -80 25 -162 9 -31
-7 -59 -9 -62 -6 -4 3 15 56 40 117 26 60 51 134 56 164 16 101 -22 186 -100
226 -52 27 -160 27 -210 1z"/>
<path d="M4537 4656 c-46 -17 -64 -32 -83 -67 -30 -60 -8 -150 48 -192 16 -12
61 -24 122 -32 54 -8 100 -16 102 -18 5 -5 -58 -23 -111 -33 -57 -10 -90 -29
-122 -70 -37 -49 -39 -133 -5 -182 53 -73 123 -78 311 -22 237 71 341 162 341
301 0 103 -69 202 -180 259 -65 33 -124 46 -240 55 -47 3 -98 8 -115 10 -16 2
-47 -2 -68 -9z"/>
<path d="M1875 4253 c-150 -32 -349 -127 -426 -204 -50 -50 -62 -114 -33 -175
23 -49 70 -74 136 -74 48 0 64 6 119 42 101 66 198 100 310 107 110 8 137 22
170 89 17 34 20 54 16 93 -15 125 -105 162 -292 122z"/>
<path d="M2574 3740 c-130 -18 -279 -75 -319 -121 -101 -121 2 -301 146 -255
24 8 75 26 113 41 38 14 95 28 127 32 l59 6 0 -31 c0 -97 -179 -442 -342 -659
-78 -104 -93 -138 -84 -188 8 -43 55 -98 97 -115 l31 -13 -32 -30 c-61 -57
-77 -144 -41 -222 22 -48 54 -79 103 -100 73 -30 100 -23 327 82 107 50 201
84 201 74 0 -38 -93 -284 -159 -420 -60 -125 -54 -201 22 -268 70 -61 149 -67
232 -18 43 25 50 36 126 193 160 329 212 501 190 624 -20 116 -89 210 -190
257 -50 23 -67 26 -161 25 -117 -1 -207 -24 -359 -89 -46 -19 -86 -33 -89 -31
-2 3 20 40 51 83 65 94 263 416 317 516 48 91 68 150 81 245 13 95 -6 177 -57
248 -75 107 -222 157 -390 134z"/>
<path d="M3965 3701 c-75 -35 -125 -111 -125 -190 0 -135 145 -301 302 -346
74 -21 131 -13 200 29 58 34 112 111 124 174 8 42 -23 113 -61 138 -14 9 -25
26 -25 37 0 36 -40 106 -73 126 -82 50 -266 67 -342 32z"/>
<path d="M1103 3565 c-108 -33 -298 -154 -334 -212 -36 -57 -34 -154 3 -210
51 -78 142 -109 228 -79 24 8 45 14 47 12 1 -1 -31 -95 -72 -208 -118 -327
-146 -440 -161 -658 -8 -120 6 -170 65 -223 49 -44 99 -61 185 -62 l68 0 52
55 c67 73 283 344 509 638 44 58 83 99 89 96 16 -10 4 -121 -37 -344 -20 -107
-47 -269 -61 -360 -60 -398 -66 -482 -36 -540 24 -45 94 -83 137 -74 76 15
135 88 135 165 0 24 11 98 25 164 141 681 160 810 152 1065 -6 197 -20 260
-69 316 -49 55 -101 77 -168 71 -31 -3 -71 -12 -88 -21 -74 -38 -173 -147
-380 -421 -41 -53 -76 -94 -78 -92 -3 2 11 51 31 108 126 364 156 527 120 643
-22 68 -78 136 -138 165 -51 25 -157 28 -224 6z"/>
<path d="M3620 3271 c-129 -42 -232 -151 -281 -298 -44 -133 15 -233 139 -233
39 0 108 36 125 66 4 8 24 14 45 14 55 0 164 26 209 48 80 41 133 114 133 182
-1 86 -48 153 -144 202 -45 23 -179 35 -226 19z"/>
<path d="M4675 3091 c-57 -35 -79 -75 -77 -139 1 -32 36 -108 109 -239 33 -60
34 -63 19 -92 -9 -16 -16 -52 -16 -79 0 -133 145 -194 261 -110 79 57 101 170
55 291 -39 103 -165 334 -197 362 -38 31 -109 34 -154 6z"/>
<path d="M4472 2291 c-115 -40 -172 -140 -152 -267 5 -32 9 -59 7 -60 -1 -1
-45 10 -97 23 -134 36 -316 37 -409 4 -87 -30 -141 -69 -184 -133 -60 -88 -66
-132 -65 -451 1 -305 4 -325 56 -381 37 -39 81 -56 145 -56 64 0 143 36 183
83 56 66 64 102 71 302 4 123 10 185 17 185 6 0 56 -12 111 -27 235 -62 429
-31 540 88 57 61 82 115 95 207 9 67 2 197 -16 302 -26 142 -168 227 -302 181z"/>
<path d="M2155 1836 c-37 -16 -81 -60 -103 -101 -24 -47 -39 -277 -24 -379 25
-174 134 -424 229 -527 89 -95 310 -230 401 -245 73 -12 164 38 192 106 7 16
17 30 23 30 6 0 47 -25 92 -55 103 -69 154 -91 243 -107 122 -21 265 13 375
89 129 89 85 288 -71 322 -56 12 -102 3 -158 -29 -38 -22 -44 -23 -74 -10 -60
25 -243 152 -310 215 -115 108 -214 192 -247 209 -69 35 -168 14 -234 -50
l-37 -36 -11 49 c-19 84 -31 185 -31 283 0 106 -17 156 -66 202 -52 48 -127
62 -189 34z"/>
</g>
</svg>
