<?xml version="1.0" standalone="no"?>
<!DOCTYPE svg PUBLIC "-//W3C//DTD SVG 20010904//EN"
 "http://www.w3.org/TR/2001/REC-SVG-20010904/DTD/svg10.dtd">
<svg version="1.0" xmlns="http://www.w3.org/2000/svg"
 width="600.000000pt" height="600.000000pt" viewBox="0 0 600.000000 600.000000"
 preserveAspectRatio="xMidYMid meet">
<metadata>
Created by potrace 1.15, written by Peter Selinger 2001-2017
</metadata>
<g transform="translate(0.000000,600.000000) scale(0.100000,-0.100000)"
fill="#16364b" stroke="none">
<path d="M2384 5410 c-12 -5 -26 -15 -30 -22 -5 -7 -9 -107 -9 -223 -1 -193
-3 -218 -28 -307 -32 -121 -86 -225 -143 -278 -24 -22 -77 -56 -118 -77 -87
-43 -108 -70 -85 -111 27 -49 55 -49 152 -3 156 75 234 174 305 389 43 130 54
220 50 424 -2 142 -6 180 -18 192 -21 20 -51 26 -76 16z"/>
<path d="M3543 5280 c-26 -11 -53 -59 -53 -93 0 -40 66 -159 116 -210 55 -54
116 -87 163 -87 43 0 91 46 91 88 0 61 -110 232 -178 277 -42 27 -106 39 -139
25z"/>
<path d="M3002 5093 c-102 -50 -178 -264 -123 -350 29 -46 86 -62 144 -39 176
67 253 321 118 391 -39 19 -97 19 -139 -2z m88 -128 c0 -40 -80 -149 -96 -132
-13 13 7 74 37 110 32 38 59 48 59 22z"/>
<path d="M4770 4757 c-14 -7 -33 -28 -43 -47 -17 -32 -18 -53 -13 -220 11
-342 55 -460 172 -460 91 0 134 74 142 241 6 135 -14 230 -71 342 -70 137
-122 177 -187 144z"/>
<path d="M2655 4212 c-95 -33 -127 -135 -65 -206 101 -114 314 -152 472 -84
66 28 88 58 88 120 0 82 -36 106 -250 161 -98 26 -189 29 -245 9z"/>
<path d="M5267 3980 c-91 -23 -177 -89 -222 -171 -27 -48 -30 -63 -30 -139 0
-73 4 -93 29 -145 38 -77 119 -157 182 -179 156 -53 360 39 439 198 20 39 25
65 25 120 -1 120 -55 202 -182 278 -59 35 -78 41 -136 44 -37 2 -84 -1 -105
-6z m92 -311 c37 -13 39 -22 9 -43 -31 -22 -43 -20 -57 10 -19 42 -6 52 48 33z"/>
<path d="M4240 3750 c-113 -19 -222 -107 -261 -209 -56 -149 0 -300 137 -367
151 -74 330 3 413 176 23 49 26 67 25 160 0 116 -12 154 -61 188 -64 44 -171
66 -253 52z m50 -288 c0 -10 -5 -23 -12 -30 -17 -17 -48 -15 -48 2 0 14 36 46
52 46 5 0 8 -8 8 -18z"/>
<path d="M1129 3547 c-99 -28 -181 -94 -227 -181 -22 -43 -27 -64 -27 -131 0
-66 5 -90 27 -138 15 -32 41 -76 58 -97 59 -74 185 -140 297 -155 195 -27 263
-120 367 -505 14 -52 43 -160 65 -240 22 -80 49 -185 60 -235 47 -200 112
-367 179 -458 132 -178 377 -277 692 -277 58 0 233 -9 390 -20 539 -37 841
-22 1236 61 535 112 837 357 945 765 30 115 37 314 15 424 -71 351 -344 579
-692 580 -216 0 -377 -58 -585 -210 -251 -186 -334 -225 -517 -243 -99 -10
-124 -9 -200 7 -159 32 -385 143 -554 272 -253 192 -424 325 -554 429 -187
151 -250 194 -367 251 -184 89 -478 138 -608 101z m267 -333 c229 -59 293 -98
601 -364 141 -123 209 -174 379 -287 580 -387 912 -476 1304 -351 128 41 224
98 442 264 118 90 174 119 277 139 176 36 321 -24 416 -170 47 -73 66 -138 72
-246 10 -160 -34 -302 -132 -429 -127 -165 -470 -301 -860 -339 -287 -29 -796
-32 -1055 -6 -30 3 -119 7 -198 10 -391 14 -496 100 -583 479 -113 494 -191
744 -288 931 -91 177 -225 275 -418 305 -64 10 -135 39 -148 60 -23 37 57 39
191 4z"/>
<path d="M2232 2344 c-35 -24 -30 -70 11 -94 39 -24 39 -24 68 -2 15 13 22 30
22 52 0 54 -53 78 -101 44z"/>
<path d="M2856 2038 c-22 -32 -20 -55 9 -83 29 -30 66 -32 90 -5 24 27 24 79
0 96 -30 22 -81 18 -99 -8z"/>
<path d="M3432 3360 c-51 -48 -172 -273 -172 -321 0 -9 9 -28 21 -43 43 -54
105 -25 181 86 88 130 120 245 80 281 -26 23 -83 22 -110 -3z"/>
<path d="M460 2030 c-34 -34 -25 -65 37 -133 104 -113 173 -156 251 -157 78 0
108 67 57 129 -29 34 -119 92 -223 145 -83 42 -95 43 -122 16z"/>
<path d="M5344 1110 c-57 -23 -98 -144 -75 -220 15 -52 61 -83 110 -76 69 10
110 81 111 189 0 74 -19 107 -62 107 -13 0 -32 2 -43 5 -11 2 -30 0 -41 -5z"/>
</g>
</svg>
