<?xml version="1.0" standalone="no"?>
<!DOCTYPE svg PUBLIC "-//W3C//DTD SVG 20010904//EN"
 "http://www.w3.org/TR/2001/REC-SVG-20010904/DTD/svg10.dtd">
<svg version="1.0" xmlns="http://www.w3.org/2000/svg"
 width="600.000000pt" height="600.000000pt" viewBox="0 0 600.000000 600.000000"
 preserveAspectRatio="xMidYMid meet">
<metadata>
Created by potrace 1.15, written by Peter Selinger 2001-2017
</metadata>
<g transform="translate(0.000000,600.000000) scale(0.100000,-0.100000)"
fill="#16364b" stroke="none">
<path d="M2105 5658 c-11 -6 -56 -45 -100 -87 -44 -42 -144 -134 -222 -205
-133 -119 -230 -230 -266 -301 -23 -46 -40 -143 -32 -184 11 -62 45 -109 93
-132 41 -20 55 -21 181 -16 156 6 293 33 521 104 171 53 191 63 221 104 65 92
7 222 -109 245 -21 4 -60 -4 -124 -25 -114 -38 -318 -91 -318 -84 0 3 75 78
167 167 170 165 202 208 203 274 0 47 -22 94 -59 125 -26 22 -42 27 -84 27
-29 0 -61 -6 -72 -12z"/>
<path d="M3069 5650 c-39 -20 -79 -87 -79 -128 0 -33 24 -84 51 -108 13 -12
47 -29 74 -38 28 -9 100 -41 161 -71 188 -93 294 -213 281 -321 -11 -106 -121
-209 -308 -289 -132 -57 -161 -85 -166 -157 -7 -94 58 -156 153 -145 46 5 214
77 302 129 176 105 301 298 302 468 0 147 -58 279 -175 395 -92 90 -187 151
-356 227 -132 59 -186 68 -240 38z"/>
<path d="M1053 5346 c-61 -19 -176 -99 -227 -158 -161 -185 -185 -457 -59
-666 90 -147 194 -232 269 -218 69 14 124 85 124 163 0 41 -12 62 -79 144 -61
75 -84 131 -84 204 0 102 47 168 159 224 100 49 140 117 115 194 -30 89 -129
141 -218 113z"/>
<path d="M4690 4851 c-49 -25 -80 -75 -80 -126 0 -23 -5 -56 -11 -73 -24 -68
43 -242 127 -332 55 -59 144 -106 218 -115 106 -14 223 42 286 136 30 45 35
61 38 125 4 65 1 81 -22 128 -31 63 -118 148 -193 188 -73 40 -227 88 -282 88
-26 0 -62 -8 -81 -19z"/>
<path d="M2775 4803 c-200 -109 -290 -213 -302 -352 -14 -156 85 -288 257
-342 130 -40 208 -19 250 67 24 49 25 75 3 121 -19 42 -61 69 -117 79 -53 8
-96 31 -96 49 0 25 72 88 148 129 75 41 108 79 112 126 5 60 -1 82 -34 117
-30 33 -39 37 -92 40 -53 3 -66 0 -129 -34z"/>
<path d="M1785 4366 c-85 -27 -143 -62 -208 -127 -69 -69 -106 -133 -107 -182
0 -67 58 -138 130 -157 64 -17 106 0 174 71 60 62 121 98 166 99 14 0 52 -10
86 -22 l60 -22 47 23 c61 30 97 88 97 156 0 86 -54 137 -172 165 -60 13 -225
11 -273 -4z"/>
<path d="M2640 3816 c-36 -8 -111 -28 -167 -46 -82 -25 -108 -38 -131 -65 -58
-65 -47 -162 23 -224 51 -44 89 -47 212 -11 60 16 131 31 158 32 l50 3 -3 -30
c-9 -85 -181 -363 -370 -597 -61 -75 -115 -145 -121 -156 -6 -12 -11 -44 -11
-73 0 -48 3 -55 43 -94 74 -75 165 -72 232 8 66 77 415 567 451 631 62 114 88
200 88 301 1 83 -2 96 -32 157 -35 71 -78 115 -150 149 -55 27 -182 34 -272
15z"/>
<path d="M4195 3774 c-168 -39 -239 -81 -289 -174 -60 -110 -40 -236 54 -330
69 -68 139 -93 245 -87 158 8 279 98 365 272 38 78 44 97 43 148 -2 68 -26
122 -66 151 -25 19 -44 21 -180 23 -84 1 -161 -1 -172 -3z m45 -284 c0 -11
-48 -25 -57 -16 -3 3 5 10 18 15 32 13 39 13 39 1z"/>
<path d="M1154 3676 c-104 -24 -286 -112 -322 -155 -27 -33 -52 -97 -52 -137
0 -58 43 -139 91 -171 51 -34 124 -41 168 -18 18 9 35 15 37 12 6 -5 -60 -162
-129 -309 -114 -239 -185 -455 -202 -608 -6 -48 -3 -62 22 -110 34 -66 79 -95
164 -104 47 -6 68 -3 103 13 57 25 183 145 352 336 73 83 187 204 254 270
l121 120 -7 -45 c-4 -25 -19 -106 -35 -180 -87 -422 -124 -583 -171 -747 -48
-172 -51 -185 -39 -224 40 -134 222 -152 286 -29 25 49 195 691 229 865 51
266 66 566 33 660 -51 146 -191 183 -336 88 -31 -21 -136 -118 -234 -217 -100
-101 -174 -169 -168 -154 5 14 41 95 80 180 90 196 120 284 128 374 18 211
-150 340 -373 290z"/>
<path d="M3499 3332 c-91 -48 -151 -151 -179 -306 -22 -125 -5 -185 62 -226
45 -27 89 -34 145 -22 26 6 79 15 116 21 117 16 198 73 238 164 28 66 24 180
-9 243 -68 132 -246 192 -373 126z"/>
<path d="M4791 2780 c-136 -49 -210 -151 -211 -291 0 -91 22 -157 72 -214 76
-87 169 -107 266 -59 98 48 156 146 168 284 6 57 3 75 -13 107 -11 21 -23 54
-27 74 -19 105 -125 146 -255 99z"/>
<path d="M2930 2466 c-100 -21 -218 -69 -410 -164 -193 -96 -226 -125 -237
-210 -12 -86 61 -193 142 -208 75 -14 125 1 325 98 248 121 234 116 227 79 -9
-45 -92 -250 -158 -392 -65 -139 -72 -183 -40 -247 23 -46 46 -67 94 -87 67
-28 151 -13 205 38 30 27 79 124 133 259 22 57 62 153 88 213 74 170 94 240
94 323 0 63 -4 81 -34 139 -37 73 -104 134 -169 154 -56 17 -189 20 -260 5z"/>
<path d="M4323 2367 c-58 -22 -119 -73 -141 -119 -26 -53 -28 -118 -7 -219 9
-40 13 -74 11 -76 -3 -3 -47 11 -98 30 -131 48 -189 60 -272 55 -84 -6 -135
-29 -196 -89 -99 -98 -116 -200 -76 -439 14 -85 32 -200 40 -256 10 -78 20
-110 41 -142 49 -75 141 -118 230 -109 95 10 152 58 176 149 11 41 9 62 -20
208 -18 89 -30 164 -28 166 4 5 104 -32 181 -67 42 -18 61 -21 121 -16 97 9
193 40 247 81 93 71 148 202 148 349 0 94 -35 343 -55 391 -15 37 -73 92 -112
107 -33 12 -151 10 -190 -4z"/>
<path d="M2065 1876 c-103 -53 -138 -173 -83 -281 19 -36 42 -57 85 -79 25
-13 34 -26 46 -68 8 -29 26 -95 40 -147 l25 -94 -28 -38 c-39 -55 -53 -116
-48 -208 6 -102 42 -178 137 -288 112 -129 234 -210 446 -296 135 -55 222 -72
322 -63 130 11 309 84 352 144 77 109 31 276 -91 327 -61 25 -99 19 -194 -31
-78 -42 -92 -46 -135 -41 -43 5 -149 43 -149 53 0 3 12 23 27 45 41 63 44 150
7 218 -15 28 -42 60 -60 71 -17 11 -44 36 -58 55 -15 19 -47 48 -71 65 -53 37
-69 69 -131 274 -54 178 -89 258 -134 309 -81 92 -208 123 -305 73z"/>
</g>
</svg>
