<?xml version="1.0" standalone="no"?>
<!DOCTYPE svg PUBLIC "-//W3C//DTD SVG 20010904//EN"
 "http://www.w3.org/TR/2001/REC-SVG-20010904/DTD/svg10.dtd">
<svg version="1.0" xmlns="http://www.w3.org/2000/svg"
 width="600.000000pt" height="600.000000pt" viewBox="0 0 600.000000 600.000000"
 preserveAspectRatio="xMidYMid meet">
<metadata>
Created by potrace 1.15, written by Peter Selinger 2001-2017
</metadata>
<g transform="translate(0.000000,600.000000) scale(0.100000,-0.100000)"
fill="#16364b" stroke="none">
<path d="M3170 5633 c-43 -17 -74 -52 -115 -132 -103 -207 -105 -351 -5 -465
18 -20 51 -46 72 -57 48 -25 179 -59 225 -59 18 0 33 -3 33 -7 0 -5 -35 -28
-78 -53 -202 -116 -494 -333 -539 -400 -37 -53 -31 -105 18 -178 71 -106 139
-139 516 -252 145 -44 273 -85 283 -90 31 -17 102 -11 138 10 101 62 94 202
-13 255 -22 11 -155 58 -295 106 -140 47 -255 90 -257 95 -4 11 156 114 370
237 272 158 337 219 352 327 9 62 -6 107 -48 148 -60 58 -131 77 -362 97 -88
7 -168 17 -178 20 -22 9 -19 20 40 148 49 105 52 142 18 194 -29 44 -125 75
-175 56z"/>
<path d="M1486 5415 c-132 -47 -339 -247 -456 -439 -80 -133 -159 -334 -182
-463 -10 -62 -10 -76 6 -117 22 -58 76 -103 133 -112 37 -5 73 3 221 50 180
57 323 96 355 96 9 0 17 -6 17 -13 0 -21 -81 -173 -150 -282 -84 -133 -137
-236 -146 -280 -8 -43 19 -146 49 -189 22 -32 88 -65 128 -66 26 0 376 173
514 254 82 49 109 88 109 157 0 88 -68 153 -159 153 -38 0 -64 -7 -108 -33
-31 -18 -57 -30 -57 -27 0 3 15 29 34 58 116 182 144 317 90 427 -32 63 -85
105 -163 128 -75 21 -283 13 -400 -16 -46 -12 -86 -20 -88 -17 -7 6 55 124 98
188 55 80 156 178 241 234 98 63 113 84 113 159 0 47 -5 67 -23 93 -41 57
-112 80 -176 57z"/>
<path d="M4655 4435 c-149 -41 -381 -127 -407 -152 -69 -66 -57 -174 25 -223
47 -29 91 -25 233 20 70 23 131 39 136 38 15 -5 -140 -229 -267 -388 -64 -80
-118 -155 -122 -168 -3 -13 -3 -42 0 -65 5 -33 14 -49 44 -74 21 -18 61 -54
88 -79 45 -43 66 -53 231 -109 228 -79 278 -101 268 -117 -4 -7 -42 -67 -84
-133 -162 -253 -203 -328 -208 -376 -9 -92 60 -174 148 -174 57 0 93 22 128
81 15 25 78 127 141 227 158 254 185 313 185 402 1 153 -83 225 -394 343 -58
22 -122 45 -142 51 -21 7 -38 16 -38 21 0 5 59 86 130 182 203 269 268 423
239 558 -13 59 -52 109 -103 134 -42 20 -160 20 -231 1z"/>
<path d="M3810 3692 c-83 -39 -116 -143 -70 -217 23 -37 88 -93 137 -118 49
-26 73 -67 73 -126 l0 -51 -72 6 c-146 12 -265 -31 -363 -130 -65 -67 -115
-157 -123 -222 -6 -57 26 -118 78 -144 85 -43 161 -16 224 81 45 70 64 83 101
69 40 -15 141 -12 182 5 76 32 118 99 111 175 l-5 47 42 11 c118 31 163 176
97 316 -36 77 -149 196 -246 260 -60 39 -130 56 -166 38z"/>
<path d="M2450 3626 c-108 -32 -260 -123 -313 -186 -71 -83 -55 -200 33 -245
49 -25 100 -19 166 21 120 73 236 116 264 99 20 -13 11 -115 -21 -209 -35
-104 -129 -305 -224 -476 -73 -131 -83 -185 -46 -246 31 -51 76 -66 185 -60
78 4 109 11 192 44 109 43 265 95 270 89 9 -9 -64 -206 -135 -364 -45 -99 -52
-158 -27 -216 50 -116 208 -144 300 -53 68 69 238 478 267 642 47 271 -150
419 -481 360 -41 -8 -76 -13 -77 -12 -2 2 13 40 32 87 88 216 103 409 42 542
-34 74 -76 118 -149 157 -55 30 -74 34 -148 37 -50 1 -103 -3 -130 -11z"/>
<path d="M1078 3386 c-84 -30 -173 -80 -263 -148 -88 -67 -110 -104 -110 -185
0 -52 4 -68 30 -104 57 -81 158 -106 244 -60 24 12 45 21 46 19 1 -2 -12 -61
-31 -133 -87 -335 -114 -508 -115 -730 -1 -157 7 -190 59 -239 33 -31 140 -65
205 -66 88 0 131 47 352 385 134 206 273 401 304 429 12 11 24 16 29 12 20
-21 2 -207 -53 -526 -52 -298 -58 -351 -59 -480 -1 -137 0 -148 25 -195 37
-73 94 -110 169 -110 69 0 103 20 137 81 36 62 26 144 -21 183 -9 8 -16 26
-16 41 0 46 38 254 76 414 72 309 92 540 67 792 -13 131 -29 183 -71 228 -61
65 -175 85 -258 46 -99 -48 -175 -138 -378 -449 -70 -106 -129 -192 -131 -190
-2 2 17 92 41 199 67 296 87 415 88 525 1 114 -11 160 -57 212 -67 76 -181 94
-309 49z"/>
<path d="M4650 2184 c-70 -30 -123 -102 -136 -184 -7 -40 -8 -42 -38 -36 -17
3 -116 9 -221 12 -167 5 -202 4 -287 -14 -125 -26 -208 -64 -257 -117 -77 -84
-114 -189 -127 -362 -4 -51 -9 -93 -12 -93 -3 0 -38 33 -78 74 -79 81 -165
130 -245 141 -57 8 -156 -15 -219 -52 -102 -60 -218 -200 -301 -363 l-33 -65
-17 134 c-21 156 -46 248 -96 346 -68 135 -130 185 -228 185 -146 0 -220 -150
-144 -293 41 -79 64 -174 100 -421 35 -246 50 -309 91 -393 74 -152 258 -244
408 -203 88 24 149 118 134 209 -5 33 0 58 31 134 62 159 185 367 224 382 9 4
62 -45 147 -133 100 -104 149 -148 196 -173 61 -33 67 -34 168 -34 88 1 113 4
153 24 150 71 207 198 225 501 l7 125 261 -4 c276 -3 343 3 419 41 76 39 113
77 152 156 37 75 38 78 38 191 0 102 -3 121 -23 161 -33 63 -59 89 -117 116
-58 27 -123 30 -175 8z"/>
</g>
</svg>
