<?xml version="1.0" standalone="no"?>
<!DOCTYPE svg PUBLIC "-//W3C//DTD SVG 20010904//EN"
 "http://www.w3.org/TR/2001/REC-SVG-20010904/DTD/svg10.dtd">
<svg version="1.0" xmlns="http://www.w3.org/2000/svg"
 width="600.000000pt" height="600.000000pt" viewBox="0 0 600.000000 600.000000"
 preserveAspectRatio="xMidYMid meet">
<metadata>
Created by potrace 1.15, written by Peter Selinger 2001-2017
</metadata>
<g transform="translate(0.000000,600.000000) scale(0.100000,-0.100000)"
fill="#16364b" stroke="none">
<path d="M1892 5814 c-42 -21 -49 -32 -167 -254 -55 -102 -120 -221 -145 -265
-113 -197 -123 -275 -48 -360 65 -74 184 -84 303 -26 159 79 546 368 571 427
32 75 4 175 -59 215 -24 15 -44 19 -84 16 -48 -3 -62 -11 -153 -81 -55 -42
-100 -75 -100 -71 0 3 28 57 61 121 54 102 61 120 56 156 -6 45 -28 81 -70
112 -36 27 -122 32 -165 10z"/>
<path d="M3021 5694 c-73 -38 -112 -154 -73 -223 15 -27 42 -46 138 -95 170
-88 245 -140 343 -237 129 -130 197 -293 142 -343 -10 -9 -47 -21 -82 -27
-102 -16 -154 -66 -154 -149 0 -55 21 -91 75 -127 66 -45 234 -20 336 50 84
58 144 171 144 272 0 154 -98 358 -242 505 -157 161 -466 376 -555 386 -24 3
-50 -2 -72 -12z"/>
<path d="M935 5408 c-136 -26 -255 -124 -323 -265 -35 -74 -37 -83 -37 -178 0
-91 3 -106 31 -165 42 -89 112 -179 181 -231 52 -41 61 -44 117 -44 96 0 146
51 146 150 0 60 -18 93 -80 145 -87 73 -112 154 -67 221 25 39 97 79 140 79
113 0 187 137 124 231 -42 64 -110 80 -232 57z"/>
<path d="M2914 5109 c-126 -36 -244 -205 -244 -347 1 -73 26 -128 80 -175 54
-46 116 -67 201 -67 133 0 208 31 244 101 18 34 19 102 3 132 -6 12 -10 49 -9
83 4 121 -72 247 -164 273 -46 13 -68 13 -111 0z"/>
<path d="M4784 4877 c-42 -24 -72 -54 -89 -87 -36 -70 -1 -333 63 -460 34 -70
108 -145 168 -170 136 -59 302 17 372 169 75 163 -11 333 -234 464 -155 90
-230 113 -280 84z"/>
<path d="M1955 4736 c-67 -21 -123 -54 -149 -88 -51 -68 -43 -152 19 -207 56
-49 111 -51 213 -10 39 16 44 12 67 -67 27 -92 77 -134 160 -134 120 0 162 90
115 243 -40 129 -138 239 -238 267 -49 13 -138 12 -187 -4z"/>
<path d="M1233 4019 c-70 -9 -244 -54 -283 -74 -57 -30 -100 -103 -100 -173 0
-55 38 -122 88 -157 38 -26 53 -30 108 -30 35 0 64 -3 64 -7 0 -13 -209 -336
-318 -491 -185 -264 -260 -451 -221 -554 18 -48 70 -93 125 -109 76 -22 135
-5 194 56 25 25 72 66 105 90 149 108 310 232 425 325 69 56 163 130 210 165
l85 63 3 -34 c4 -42 -11 -123 -49 -264 -74 -271 -110 -352 -254 -572 -51 -78
-123 -193 -159 -256 -56 -97 -66 -122 -66 -162 0 -96 63 -165 150 -165 98 0
152 58 305 327 128 225 196 363 234 478 51 153 130 479 143 588 34 282 -85
467 -274 428 -66 -14 -139 -56 -278 -161 -58 -43 -106 -77 -108 -76 -1 2 45
73 102 159 117 174 147 242 154 338 3 56 0 73 -21 116 -60 118 -190 172 -364
152z"/>
<path d="M2894 3990 c-206 -66 -260 -298 -103 -446 86 -81 180 -123 327 -144
212 -31 320 29 308 174 -4 54 -2 61 29 102 19 25 37 61 41 80 9 51 -21 122
-63 147 -51 29 -198 76 -291 92 -111 20 -174 18 -248 -5z"/>
<path d="M4280 3799 c-91 -9 -176 -39 -233 -83 -161 -122 -181 -327 -45 -466
128 -133 364 -113 503 41 83 92 175 278 175 354 0 90 -67 140 -201 150 -41 3
-85 7 -99 9 -14 1 -59 -1 -100 -5z m-19 -320 c-25 -21 -51 -25 -51 -9 0 12 62
41 70 33 3 -2 -6 -13 -19 -24z"/>
<path d="M3447 3399 c-74 -17 -122 -57 -179 -149 -32 -52 -78 -173 -78 -206 0
-70 53 -133 131 -154 19 -5 70 -8 114 -7 99 3 161 34 206 105 38 59 49 102 49
182 0 155 -111 259 -243 229z"/>
<path d="M4972 3063 c-50 -24 -194 -170 -240 -241 -123 -191 -89 -372 82 -437
135 -52 338 48 411 200 37 78 51 180 35 257 -6 34 -19 76 -28 93 -18 35 -97
117 -129 134 -31 16 -93 13 -131 -6z"/>
<path d="M3947 2596 c-55 -20 -105 -62 -128 -108 -32 -63 -28 -124 20 -272 23
-70 40 -130 38 -132 -2 -2 -27 5 -55 16 -166 63 -326 -20 -382 -199 -36 -114
-24 -218 55 -481 24 -80 53 -178 65 -218 35 -122 106 -182 215 -182 63 0 104
17 153 64 83 77 97 177 45 312 -5 13 1 12 36 -5 66 -34 120 -37 201 -11 207
66 287 225 236 467 -30 137 -199 626 -232 670 -56 74 -181 111 -267 79z"/>
<path d="M2027 2206 c-88 -32 -164 -108 -247 -247 -67 -113 -73 -195 -18 -271
l19 -28 -63 -70 c-80 -90 -132 -176 -161 -265 -32 -103 -30 -282 7 -419 31
-119 98 -260 161 -338 54 -67 167 -161 265 -218 210 -125 454 -143 686 -50
108 43 197 105 288 200 114 120 146 202 111 286 -14 34 -14 37 14 77 79 117
203 382 264 569 66 199 70 334 12 448 -50 99 -111 147 -225 176 -120 31 -226
1 -524 -148 -109 -55 -199 -98 -201 -96 -1 2 -12 41 -24 86 -39 151 -109 253
-206 298 -56 27 -102 29 -158 10z m973 -583 c-30 -99 -154 -402 -217 -531 -50
-103 -54 -117 -50 -165 3 -28 8 -64 12 -78 6 -22 -1 -34 -44 -77 -28 -28 -80
-65 -118 -84 -65 -32 -72 -33 -184 -33 l-116 0 -87 43 c-115 57 -203 142 -236
227 -19 49 -24 80 -24 166 -1 102 0 109 34 175 25 50 49 78 85 106 27 21 52
34 55 30 4 -4 19 -40 34 -80 53 -137 116 -195 216 -196 113 -2 188 84 177 203
-3 31 -8 65 -11 76 -7 22 -13 18 132 97 93 51 310 147 334 148 14 0 15 -5 8
-27z"/>
</g>
</svg>
