<?xml version="1.0" standalone="no"?>
<!DOCTYPE svg PUBLIC "-//W3C//DTD SVG 20010904//EN"
 "http://www.w3.org/TR/2001/REC-SVG-20010904/DTD/svg10.dtd">
<svg version="1.0" xmlns="http://www.w3.org/2000/svg"
 width="600.000000pt" height="600.000000pt" viewBox="0 0 600.000000 600.000000"
 preserveAspectRatio="xMidYMid meet">
<metadata>
Created by potrace 1.15, written by Peter Selinger 2001-2017
</metadata>
<g transform="translate(0.000000,600.000000) scale(0.100000,-0.100000)"
fill="#16364b" stroke="none">
<path d="M3112 5644 c-70 -31 -89 -119 -56 -261 46 -198 149 -301 402 -398 39
-16 72 -31 72 -35 0 -4 -93 -62 -207 -130 -319 -188 -402 -245 -424 -294 -10
-23 -19 -48 -19 -57 0 -9 -14 -22 -30 -29 -101 -42 -130 -187 -53 -264 42 -42
88 -51 164 -31 135 36 188 45 301 51 131 8 163 20 199 76 41 67 8 168 -68 207
l-36 18 94 58 c299 183 344 218 380 291 29 62 29 134 -1 202 -33 75 -104 130
-285 217 -82 40 -158 82 -168 93 -26 29 -46 89 -47 142 -1 118 -111 191 -218
144z"/>
<path d="M1270 5381 c-54 -21 -143 -76 -194 -121 -116 -102 -216 -328 -246
-554 -18 -131 8 -270 61 -331 59 -67 157 -69 220 -5 39 38 44 68 29 179 -15
121 1 209 60 327 51 100 115 172 200 222 85 51 105 79 105 147 0 65 -23 100
-85 133 -53 26 -89 27 -150 3z"/>
<path d="M1517 5065 c-115 -24 -165 -66 -174 -148 -7 -57 10 -106 48 -143 27
-26 37 -29 100 -29 38 0 69 -1 69 -3 0 -2 -14 -43 -31 -90 -41 -115 -45 -233
-10 -302 42 -82 99 -129 186 -155 l39 -12 -89 -46 c-134 -70 -262 -168 -285
-220 -23 -51 -25 -88 -5 -126 33 -64 107 -101 173 -86 17 3 72 33 124 66 129
84 233 135 323 159 93 25 120 42 146 91 54 107 -8 219 -122 219 -35 0 -40 2
-33 18 16 36 16 99 0 131 -20 38 -78 77 -128 86 -21 4 -38 9 -38 10 0 2 18 57
40 122 49 143 59 226 36 305 -18 63 -50 106 -102 139 -45 28 -170 34 -267 14z"/>
<path d="M4480 4543 c-75 -39 -104 -139 -60 -210 31 -51 65 -63 180 -63 55 0
100 -4 100 -9 0 -4 -58 -50 -130 -101 -140 -101 -160 -126 -160 -202 0 -61 28
-102 84 -123 39 -15 53 -16 86 -6 50 15 338 230 411 308 119 125 137 227 57
318 -61 70 -151 94 -373 101 -142 5 -164 3 -195 -13z"/>
<path d="M3937 3726 c-172 -46 -168 -246 9 -421 161 -160 341 -180 425 -47 52
82 28 188 -52 234 -25 15 -29 23 -29 59 0 81 -51 129 -170 162 -84 23 -131 27
-183 13z"/>
<path d="M2581 3690 c-122 -26 -313 -103 -348 -141 -67 -74 -53 -189 29 -239
45 -28 87 -25 170 10 82 35 173 60 218 60 l33 0 -7 -46 c-3 -25 -19 -77 -35
-116 -38 -88 -206 -396 -279 -508 -74 -114 -81 -174 -28 -237 24 -29 24 -30 9
-84 -34 -124 47 -239 170 -239 36 0 80 14 175 54 167 72 264 108 270 101 3 -3
0 -22 -7 -43 -22 -62 -142 -344 -168 -396 -35 -68 -30 -157 10 -210 73 -95
221 -103 291 -15 31 39 92 170 169 360 97 241 112 293 112 394 0 78 -4 97 -27
141 -86 163 -285 202 -563 109 -55 -18 -101 -32 -103 -30 -1 1 32 60 74 131
134 223 208 408 234 578 24 163 -27 288 -145 349 -46 24 -179 32 -254 17z"/>
<path d="M1093 3516 c-84 -27 -259 -139 -307 -197 -73 -87 -50 -243 45 -306
52 -34 132 -42 178 -18 18 9 34 15 36 13 2 -2 -29 -102 -70 -223 -101 -301
-145 -510 -145 -680 1 -121 61 -192 188 -220 134 -30 144 -21 429 367 183 249
343 441 358 427 3 -4 7 -20 7 -35 0 -42 -75 -423 -121 -609 -90 -365 -94 -509
-16 -612 69 -89 199 -84 269 10 22 30 23 41 11 212 -7 101 -11 82 105 565 88
371 97 435 83 607 -13 154 -35 216 -95 267 -70 60 -158 67 -252 19 -42 -21
-346 -328 -421 -426 -33 -42 -61 -74 -63 -69 -3 9 54 184 119 367 34 96 43
137 47 207 4 77 2 92 -22 145 -68 149 -229 233 -363 189z"/>
<path d="M3636 3250 c-209 -67 -353 -323 -261 -463 60 -92 213 -90 269 4 14
24 22 27 98 32 46 3 104 13 131 22 85 30 141 105 141 190 1 98 -76 184 -194
219 -69 20 -111 20 -184 -4z"/>
<path d="M4610 3222 c-103 -51 -106 -192 -6 -259 93 -61 186 -156 186 -190 0
-6 -24 -38 -54 -71 -35 -39 -56 -72 -60 -96 -7 -38 6 -100 27 -127 37 -47 117
-65 168 -39 50 27 124 97 159 152 111 172 51 371 -164 544 -132 106 -182 123
-256 86z"/>
<path d="M4541 2259 c-116 -34 -190 -145 -175 -261 l7 -49 -29 7 c-16 3 -54
12 -84 20 -30 7 -97 19 -148 25 -164 22 -327 -14 -416 -92 -112 -99 -130 -174
-131 -536 0 -205 3 -275 13 -284 24 -25 13 -39 -30 -39 -27 0 -59 -9 -87 -25
-23 -14 -47 -25 -53 -25 -27 0 -210 146 -340 272 -103 99 -196 148 -282 148
-111 -1 -187 -52 -240 -162 l-34 -70 -6 38 c-3 22 -10 84 -16 139 -32 307 -58
395 -136 448 -105 73 -242 25 -274 -95 -9 -31 -8 -62 4 -137 9 -53 25 -178 36
-278 34 -302 84 -458 179 -553 99 -99 273 -187 393 -198 143 -13 236 84 208
217 -6 31 -10 76 -8 100 l3 45 35 -31 c88 -77 232 -178 305 -213 180 -88 336
-73 460 42 55 49 69 92 62 175 l-6 63 47 0 c89 1 178 63 222 157 23 49 40 196
40 352 l0 83 48 -6 c26 -4 84 -16 130 -27 193 -45 391 -5 496 98 84 83 117
219 97 399 -14 121 -28 161 -76 207 -53 52 -132 69 -214 46z"/>
</g>
</svg>
