<?xml version="1.0" standalone="no"?>
<!DOCTYPE svg PUBLIC "-//W3C//DTD SVG 20010904//EN"
 "http://www.w3.org/TR/2001/REC-SVG-20010904/DTD/svg10.dtd">
<svg version="1.0" xmlns="http://www.w3.org/2000/svg"
 width="600.000000pt" height="600.000000pt" viewBox="0 0 600.000000 600.000000"
 preserveAspectRatio="xMidYMid meet">
<metadata>
Created by potrace 1.15, written by Peter Selinger 2001-2017
</metadata>
<g transform="translate(0.000000,600.000000) scale(0.100000,-0.100000)"
fill="#16364b" stroke="none">
<path d="M3104 5650 c-11 -4 -33 -22 -47 -40 -22 -25 -27 -42 -27 -82 0 -83
18 -103 255 -287 146 -114 230 -194 256 -244 18 -33 18 -40 5 -65 -31 -60
-111 -116 -317 -225 l-107 -55 -28 29 c-57 60 -115 57 -244 -14 -177 -97 -284
-261 -250 -386 23 -85 105 -147 226 -171 77 -15 132 -2 168 41 48 57 28 161
-39 205 -14 9 -25 19 -25 23 0 4 17 17 38 29 l39 22 24 -26 c34 -37 72 -54
119 -54 32 0 76 18 198 81 197 103 339 195 392 257 22 26 55 76 72 111 28 56
32 74 33 150 0 79 -3 92 -36 161 -49 104 -124 181 -314 323 -88 66 -182 139
-210 162 -27 23 -60 47 -72 54 -25 13 -79 14 -109 1z"/>
<path d="M1914 5483 c-36 -7 -102 -71 -114 -111 -12 -36 -58 -101 -180 -252
-34 -41 -77 -109 -98 -149 -31 -63 -38 -87 -40 -150 -3 -71 -1 -80 30 -131 63
-104 191 -141 386 -111 130 21 345 72 389 92 45 22 83 82 83 130 -1 40 -36
105 -71 130 -45 32 -114 31 -289 -3 -74 -15 -136 -25 -138 -23 -5 5 1 12 117
156 122 150 152 231 120 316 -28 75 -114 122 -195 106z"/>
<path d="M1079 5331 c-239 -121 -376 -350 -354 -591 13 -143 81 -299 160 -368
113 -100 300 -34 282 100 -3 24 -21 60 -48 95 -64 85 -82 142 -76 236 4 59 11
88 31 121 29 50 89 103 152 134 101 51 135 167 72 247 -47 60 -132 70 -219 26z"/>
<path d="M4623 4749 c-61 -39 -77 -136 -34 -203 19 -28 19 -29 -5 -64 -43 -63
-23 -144 53 -213 119 -108 267 -135 399 -75 100 46 154 124 154 222 0 74 -28
133 -84 179 -76 62 -348 175 -420 175 -17 0 -45 -9 -63 -21z"/>
<path d="M1880 4305 c-124 -26 -244 -82 -341 -160 -61 -48 -89 -94 -89 -144 0
-70 54 -142 120 -162 53 -16 101 2 162 61 28 27 77 63 111 81 62 33 84 36 203
28 172 -10 232 223 72 283 -66 24 -161 30 -238 13z"/>
<path d="M2600 3785 c-104 -19 -248 -70 -276 -96 -34 -32 -58 -101 -51 -149 7
-55 48 -107 96 -121 35 -10 50 -8 134 19 52 17 124 34 161 38 l66 7 0 -27 c0
-32 -53 -165 -101 -251 -39 -72 -194 -326 -269 -444 -49 -76 -54 -89 -54 -138
1 -44 7 -60 31 -91 52 -65 152 -74 210 -20 52 48 303 439 373 580 98 199 123
279 124 398 1 85 -2 100 -26 146 -67 128 -229 185 -418 149z"/>
<path d="M4080 3732 c-72 -28 -103 -48 -146 -94 -81 -88 -95 -194 -38 -299 50
-91 136 -150 255 -175 154 -32 298 45 375 201 31 62 35 80 31 122 -8 79 -44
169 -82 202 -48 42 -92 53 -230 57 -96 3 -129 0 -165 -14z"/>
<path d="M1195 3643 c-95 -13 -311 -106 -376 -160 -103 -87 -86 -257 33 -319
32 -16 115 -18 154 -4 15 6 28 9 30 7 2 -2 -6 -28 -17 -58 -29 -76 -176 -543
-210 -667 -40 -147 -53 -241 -39 -291 12 -47 59 -105 102 -127 41 -21 147 -29
192 -14 52 17 214 179 468 470 113 129 217 246 232 259 l26 24 0 -56 c0 -105
-67 -404 -155 -692 -69 -228 -86 -305 -86 -391 0 -118 93 -200 195 -173 50 13
104 68 110 112 41 279 56 344 162 704 85 290 93 332 100 498 11 265 -45 394
-189 437 -60 18 -138 -2 -217 -56 -63 -43 -201 -178 -344 -336 -80 -89 -80
-87 16 140 39 91 84 206 100 255 54 159 39 273 -47 360 -59 59 -156 90 -240
78z"/>
<path d="M3560 3307 c-119 -34 -217 -146 -255 -294 -20 -77 -19 -109 6 -159
39 -81 143 -113 220 -68 20 12 62 23 100 27 121 11 219 61 270 138 37 55 44
106 24 175 -39 135 -216 223 -365 181z"/>
<path d="M4761 2920 c-46 -20 -97 -69 -127 -122 -26 -47 -29 -63 -29 -138 0
-76 4 -93 33 -152 38 -78 108 -159 156 -182 43 -20 118 -21 156 -1 51 26 83
80 88 145 6 81 -19 150 -69 193 l-39 34 16 41 c22 54 12 104 -30 149 -27 30
-40 36 -82 39 -27 2 -60 -1 -73 -6z"/>
<path d="M2990 2553 c-66 -5 -177 -33 -240 -60 -30 -13 -126 -62 -213 -110
-168 -91 -221 -136 -233 -200 -21 -114 71 -217 195 -216 49 0 73 9 196 71 134
67 283 127 292 118 10 -10 -65 -203 -139 -359 -78 -162 -80 -170 -75 -223 11
-103 78 -174 171 -182 117 -10 168 36 261 232 172 359 224 611 156 751 -64
130 -192 191 -371 178z"/>
<path d="M4385 2344 c-101 -55 -134 -141 -115 -302 7 -51 10 -96 7 -98 -2 -3
-38 8 -78 24 -207 82 -318 94 -424 43 -75 -35 -137 -101 -178 -189 -29 -62
-32 -77 -35 -192 -5 -185 20 -476 46 -526 73 -142 256 -175 357 -63 65 72 68
87 59 311 -4 109 -4 198 -1 198 3 0 55 -21 114 -46 106 -46 109 -46 189 -40
44 3 102 12 129 20 104 32 198 124 242 236 14 37 17 77 18 215 0 245 -26 326
-127 393 -51 34 -155 42 -203 16z"/>
<path d="M2095 1873 c-46 -24 -66 -45 -86 -88 -32 -69 -21 -146 28 -213 30
-39 34 -53 79 -257 63 -281 97 -353 224 -466 40 -35 100 -89 134 -120 84 -77
178 -136 331 -207 227 -105 325 -121 460 -78 92 29 200 96 231 143 46 69 38
154 -19 220 -66 75 -161 85 -265 27 -82 -46 -117 -43 -247 19 -105 51 -109 55
-187 217 -65 134 -127 207 -209 248 l-66 32 -22 113 c-51 259 -96 348 -203
401 -60 30 -136 34 -183 9z"/>
</g>
</svg>
