<?xml version="1.0" standalone="no"?>
<!DOCTYPE svg PUBLIC "-//W3C//DTD SVG 20010904//EN"
 "http://www.w3.org/TR/2001/REC-SVG-20010904/DTD/svg10.dtd">
<svg version="1.0" xmlns="http://www.w3.org/2000/svg"
 width="600.000000pt" height="600.000000pt" viewBox="0 0 600.000000 600.000000"
 preserveAspectRatio="xMidYMid meet">
<metadata>
Created by potrace 1.15, written by Peter Selinger 2001-2017
</metadata>
<g transform="translate(0.000000,600.000000) scale(0.100000,-0.100000)"
fill="#16364b" stroke="none">
<path d="M2204 5466 c-65 -29 -107 -125 -108 -251 -1 -119 64 -217 167 -251
41 -14 71 -15 164 -10 62 4 120 9 128 12 28 11 15 -19 -55 -135 -107 -179
-190 -382 -190 -464 0 -116 136 -188 231 -124 29 19 40 39 75 137 45 128 83
206 171 355 93 158 107 197 108 291 0 70 -3 85 -25 118 -14 20 -44 50 -68 65
-64 44 -126 55 -273 49 l-129 -6 7 27 c21 74 -9 144 -77 179 -50 25 -81 27
-126 8z"/>
<path d="M3721 5285 c-75 -21 -144 -61 -164 -95 -9 -15 -17 -48 -17 -72 0
-106 106 -168 213 -123 54 22 104 20 118 -6 23 -44 -13 -212 -77 -355 -33 -74
-34 -134 -2 -180 44 -65 135 -84 199 -41 41 27 75 93 126 242 36 107 37 114
38 260 0 141 -2 153 -26 205 -58 124 -133 173 -269 177 -52 2 -106 -3 -139
-12z"/>
<path d="M1755 4894 c-11 -2 -45 -9 -75 -15 -143 -27 -399 -131 -455 -183 -80
-76 -57 -207 44 -252 36 -15 39 -21 44 -66 8 -66 39 -112 90 -136 23 -11 114
-32 202 -47 189 -31 284 -55 376 -96 37 -16 80 -29 96 -29 45 1 111 36 133 72
28 47 27 124 -3 169 -43 65 -190 126 -425 175 -166 35 -161 33 -140 45 36 20
176 49 241 49 80 0 123 16 160 59 73 87 52 207 -43 245 -38 15 -188 21 -245
10z"/>
<path d="M2940 4271 c-450 -153 -461 -158 -486 -216 -32 -78 -8 -170 55 -212
50 -34 89 -29 211 27 122 56 172 75 415 162 94 33 186 69 207 79 73 37 105
123 71 189 -20 39 -90 81 -133 79 -14 -1 -167 -49 -340 -108z"/>
<path d="M4220 4319 c-92 -37 -115 -163 -43 -231 41 -37 55 -40 206 -44 157
-4 212 -15 228 -46 15 -29 6 -140 -24 -288 -26 -123 -23 -163 11 -209 34 -46
81 -71 134 -71 41 0 54 5 84 33 29 27 39 46 54 110 35 147 53 272 54 383 1
108 0 113 -34 180 -41 81 -94 122 -197 154 -117 36 -410 54 -473 29z"/>
<path d="M2025 3839 c-152 -40 -212 -51 -302 -56 -88 -5 -120 -10 -150 -27
-104 -59 -111 -187 -13 -252 35 -24 53 -28 139 -32 67 -3 132 1 199 12 155 26
391 84 426 104 50 29 76 77 76 139 0 64 -18 99 -66 132 -55 38 -100 35 -309
-20z"/>
<path d="M3629 3736 c-36 -12 -151 -68 -255 -123 -104 -55 -194 -102 -199
-104 -6 -2 -33 -17 -61 -32 -148 -82 -114 -287 47 -287 38 0 181 60 342 142
64 34 120 59 123 55 3 -3 -4 -24 -16 -47 -40 -78 -25 -158 38 -205 37 -28 120
-27 159 0 54 39 150 268 160 384 18 190 -136 289 -338 217z"/>
<path d="M4905 3262 c-95 -45 -144 -141 -129 -254 17 -118 17 -117 -130 -267
-147 -151 -180 -195 -236 -314 -122 -260 -115 -509 18 -629 116 -105 285 -84
350 42 21 40 22 54 17 120 -14 152 -11 181 22 251 24 51 47 80 108 135 214
189 246 229 301 374 27 70 29 85 29 226 0 148 -1 151 -30 209 -43 85 -101 119
-204 123 -58 2 -86 -2 -116 -16z"/>
<path d="M2120 3231 c-96 -7 -130 -24 -154 -76 -33 -69 -16 -148 44 -199 27
-22 41 -26 96 -26 36 0 108 5 161 11 53 6 111 8 128 5 l31 -6 -4 -68 c-4 -83
18 -124 81 -152 51 -24 70 -24 130 -4 67 23 102 67 115 145 18 105 -11 190
-90 265 -105 102 -236 127 -538 105z"/>
<path d="M4264 3146 c-17 -8 -53 -35 -80 -60 -154 -146 -409 -262 -639 -291
-101 -13 -167 -93 -150 -182 9 -48 71 -109 119 -119 43 -8 219 20 334 52 127
36 314 131 429 218 195 147 249 239 190 327 -41 62 -130 86 -203 55z"/>
<path d="M1286 3038 c-88 -19 -146 -96 -146 -193 0 -63 9 -86 52 -132 29 -30
31 -38 49 -195 54 -478 78 -595 155 -749 75 -151 214 -191 315 -90 69 69 71
123 11 286 -38 103 -57 216 -82 501 -11 128 -27 258 -36 290 -50 198 -180 313
-318 282z"/>
<path d="M2108 2504 c-67 -16 -120 -41 -199 -95 -76 -51 -167 -153 -179 -201
-26 -96 56 -208 152 -208 47 0 89 27 140 90 40 50 120 120 136 120 4 0 16 -17
27 -37 11 -21 36 -48 55 -61 19 -13 34 -29 33 -35 -1 -7 -18 -51 -38 -99 -48
-118 -67 -212 -67 -338 0 -178 41 -304 112 -341 47 -25 125 -25 168 1 70 43
88 118 57 237 -31 120 -15 264 42 377 43 85 22 174 -53 218 -32 19 -34 23 -27
52 28 112 -44 243 -169 305 -68 34 -102 37 -190 15z"/>
<path d="M3593 2190 c-34 -5 -158 -27 -275 -49 -117 -22 -279 -49 -358 -61
-182 -26 -208 -33 -242 -65 -47 -43 -61 -81 -56 -150 5 -86 40 -138 114 -172
l55 -25 167 22 c92 12 248 38 347 57 375 72 402 75 426 46 21 -25 73 -43 124
-43 153 0 257 152 196 285 -23 52 -95 115 -157 139 -57 21 -239 30 -341 16z"/>
<path d="M4545 1598 c-11 -6 -45 -37 -76 -69 -70 -72 -107 -84 -321 -99 -319
-23 -427 -65 -698 -270 -124 -94 -177 -147 -195 -193 l-16 -43 -54 0 c-41 -1
-66 -8 -107 -33 -138 -82 -177 -96 -269 -96 -81 0 -90 2 -175 44 -78 39 -105
60 -214 168 -69 69 -136 130 -150 137 -63 32 -144 26 -203 -16 -66 -47 -87
-161 -45 -247 14 -29 71 -95 153 -176 148 -148 233 -205 381 -254 237 -80 485
-54 686 72 108 68 136 98 161 178 4 12 21 18 65 21 65 4 55 -2 209 126 134
112 256 162 435 182 367 40 497 88 645 235 62 62 72 77 78 118 14 91 -53 192
-144 217 -47 13 -121 12 -146 -2z"/>
</g>
</svg>
