<?xml version="1.0" standalone="no"?>
<!DOCTYPE svg PUBLIC "-//W3C//DTD SVG 20010904//EN"
 "http://www.w3.org/TR/2001/REC-SVG-20010904/DTD/svg10.dtd">
<svg version="1.0" xmlns="http://www.w3.org/2000/svg"
 width="600.000000pt" height="600.000000pt" viewBox="0 0 600.000000 600.000000"
 preserveAspectRatio="xMidYMid meet">
<metadata>
Created by potrace 1.15, written by Peter Selinger 2001-2017
</metadata>
<g transform="translate(0.000000,600.000000) scale(0.100000,-0.100000)"
fill="#16364b" stroke="none">
<path d="M2315 5451 c-63 -38 -124 -177 -132 -298 -9 -133 31 -211 129 -253
47 -20 64 -22 148 -17 52 3 151 17 219 31 68 15 126 25 128 23 4 -4 -32 -49
-138 -173 -135 -158 -180 -232 -276 -454 -58 -134 -57 -127 -36 -270 13 -87
65 -140 138 -140 20 0 89 13 153 29 152 38 285 57 507 72 217 14 252 26 285
95 36 72 7 154 -66 189 -34 16 -55 17 -193 11 -140 -6 -385 -34 -455 -52 -14
-3 -26 -2 -26 2 0 14 81 159 144 261 31 51 102 150 157 220 125 161 149 207
149 288 0 154 -149 253 -338 226 -42 -6 -129 -22 -192 -36 -63 -13 -116 -22
-118 -20 -3 2 6 29 19 60 21 51 22 60 10 103 -27 103 -134 154 -216 103z"/>
<path d="M1751 4998 c-123 -17 -285 -88 -416 -183 -102 -73 -195 -155 -216
-188 -21 -36 -25 -101 -6 -132 60 -102 102 -126 287 -160 240 -46 337 -85 393
-159 36 -47 75 -66 132 -66 54 0 93 18 128 59 61 73 45 144 -56 245 -84 84
-168 131 -301 166 -47 13 -86 27 -86 31 0 15 130 70 202 85 85 18 98 24 132
64 65 78 49 183 -34 225 -38 19 -89 23 -159 13z"/>
<path d="M4025 4902 c-127 -32 -314 -136 -359 -199 -29 -39 -32 -120 -7 -160
47 -75 151 -84 237 -21 71 51 165 96 210 100 l39 3 3 -50 c7 -101 -30 -229
-119 -408 -32 -66 -59 -131 -59 -145 0 -36 27 -85 60 -108 16 -11 40 -36 52
-54 36 -53 83 -80 139 -80 26 0 123 13 216 29 203 35 294 45 322 36 17 -5 21
-14 21 -53 0 -57 -34 -209 -89 -399 -23 -78 -41 -150 -41 -160 0 -10 9 -37 19
-60 35 -77 142 -107 212 -60 41 27 65 91 133 364 52 204 71 325 61 398 -15
116 -84 205 -191 245 -71 26 -208 26 -399 0 -77 -10 -141 -18 -142 -16 -2 1
10 39 27 83 56 155 73 238 73 368 1 103 -2 128 -22 179 -59 148 -214 214 -396
168z"/>
<path d="M2015 3919 c-139 -49 -282 -86 -393 -99 -106 -13 -146 -32 -179 -81
-31 -47 -34 -120 -5 -158 41 -56 78 -71 171 -71 166 1 604 107 667 162 108 95
35 290 -107 287 -24 0 -93 -18 -154 -40z"/>
<path d="M3750 3729 c-110 -17 -539 -257 -587 -328 -49 -73 -20 -174 59 -206
57 -23 88 -15 199 51 115 69 288 156 299 152 16 -6 -48 -172 -143 -368 -34
-71 -62 -144 -65 -170 -3 -24 -13 -58 -24 -75 -20 -34 -24 -114 -7 -148 21
-41 63 -77 102 -88 49 -13 166 9 274 52 203 80 476 273 544 384 40 65 12 162
-56 191 -41 17 -102 18 -142 3 -15 -5 -53 -34 -83 -63 -30 -29 -75 -67 -100
-83 -45 -30 -124 -73 -135 -73 -3 0 10 31 29 68 135 268 179 467 127 570 -53
104 -158 151 -291 131z"/>
<path d="M2290 3335 c-8 -2 -55 -9 -105 -15 -52 -7 -106 -21 -127 -33 -41 -23
-78 -84 -78 -131 0 -36 33 -99 66 -125 52 -41 89 -45 207 -22 59 12 142 21
183 21 88 0 88 0 49 -116 -46 -137 -28 -216 59 -249 59 -23 121 -14 174 25 67
48 132 239 119 350 -18 149 -130 258 -297 290 -48 9 -213 12 -250 5z"/>
<path d="M1190 3076 c-64 -18 -85 -31 -117 -73 -24 -31 -28 -46 -28 -103 0
-89 33 -141 110 -176 l54 -25 -6 -232 c-4 -176 -2 -270 11 -392 36 -350 89
-437 266 -426 47 2 109 52 137 109 26 53 28 99 8 197 l-6 30 63 0 c84 0 104
15 178 136 61 99 162 219 184 219 6 0 17 -19 24 -43 11 -37 9 -69 -13 -237
-14 -107 -35 -243 -47 -301 l-21 -106 24 -49 c31 -63 77 -94 139 -94 55 0 104
28 132 77 42 71 122 621 101 691 -7 20 -21 70 -33 111 -59 206 -145 290 -288
279 -119 -8 -253 -104 -375 -267 l-74 -100 0 227 c0 200 -3 236 -22 306 -38
140 -95 206 -210 240 -64 19 -128 19 -191 2z"/>
<path d="M4877 3016 c-55 -20 -104 -61 -129 -109 -19 -34 -23 -58 -23 -132 l0
-90 -145 -72 c-181 -89 -245 -143 -294 -246 -46 -98 -67 -197 -73 -358 -5
-121 -3 -144 16 -207 12 -40 37 -92 57 -119 37 -49 113 -122 127 -123 19 0 3
-17 -27 -28 -19 -7 -58 -34 -87 -60 -51 -46 -54 -47 -118 -47 -36 0 -126 6
-199 13 -223 23 -371 -11 -539 -120 -76 -50 -227 -194 -273 -261 -13 -18 -36
-39 -51 -46 -16 -7 -50 -35 -76 -62 -137 -143 -248 -153 -410 -40 -79 56 -138
122 -216 242 -61 95 -90 121 -157 139 -56 15 -115 6 -162 -25 -90 -59 -103
-179 -33 -295 58 -98 180 -254 242 -310 103 -94 220 -160 343 -195 94 -27 255
-24 335 4 83 30 184 92 252 155 32 29 75 61 97 71 25 12 61 48 108 106 88 112
165 181 250 223 92 47 141 51 334 30 131 -14 178 -15 240 -6 143 20 297 120
344 224 33 73 21 177 -27 230 -14 16 -13 18 13 24 113 27 184 114 184 224 0
62 -16 102 -63 158 -19 23 -41 58 -47 78 -15 46 -7 109 17 136 10 11 86 54
169 94 118 58 164 86 208 128 62 60 108 145 127 235 15 75 7 254 -15 306 -48
113 -182 172 -299 131z"/>
<path d="M3405 2323 c-99 -14 -680 -135 -704 -147 -42 -22 -89 -81 -101 -127
-28 -104 33 -204 140 -228 47 -10 85 -4 455 77 99 22 205 43 235 47 l55 7 13
-48 c50 -185 274 -211 357 -41 19 41 28 77 32 135 5 70 3 86 -19 134 -67 147
-246 221 -463 191z"/>
</g>
</svg>
