<?xml version="1.0" standalone="no"?>
<!DOCTYPE svg PUBLIC "-//W3C//DTD SVG 20010904//EN"
 "http://www.w3.org/TR/2001/REC-SVG-20010904/DTD/svg10.dtd">
<svg version="1.0" xmlns="http://www.w3.org/2000/svg"
 width="600.000000pt" height="600.000000pt" viewBox="0 0 600.000000 600.000000"
 preserveAspectRatio="xMidYMid meet">
<metadata>
Created by potrace 1.15, written by Peter Selinger 2001-2017
</metadata>
<g transform="translate(0.000000,600.000000) scale(0.100000,-0.100000)"
fill="#16364b" stroke="none">
<path d="M2370 5400 c-18 -18 -20 -33 -20 -147 0 -254 -27 -441 -80 -548 -36
-75 -89 -127 -188 -185 -91 -54 -112 -83 -93 -128 7 -17 25 -35 41 -42 25 -10
37 -8 86 14 131 60 250 170 304 279 52 108 73 242 86 558 l7 167 -26 26 c-33
33 -88 35 -117 6z"/>
<path d="M3521 5273 c-45 -56 -39 -89 35 -205 66 -104 177 -180 239 -164 59
15 84 92 53 163 -19 45 -83 135 -119 170 -70 67 -171 84 -208 36z"/>
<path d="M3007 5116 c-167 -60 -246 -291 -134 -395 81 -74 253 4 319 145 53
113 36 204 -44 245 -43 22 -88 24 -141 5z m53 -151 c0 -18 -43 -86 -59 -95
-29 -15 -32 -13 -20 18 15 40 79 102 79 77z"/>
<path d="M4764 4755 c-41 -28 -47 -63 -41 -258 5 -203 22 -279 77 -355 43 -60
87 -78 172 -74 34 2 97 56 114 99 21 49 17 186 -6 260 -34 109 -107 228 -189
311 -37 36 -90 44 -127 17z"/>
<path d="M2645 4206 c-39 -17 -82 -67 -94 -110 -5 -21 -5 -53 0 -82 31 -166
267 -247 453 -155 123 60 175 137 143 213 -20 47 -41 61 -132 91 -179 58 -302
73 -370 43z"/>
<path d="M1127 4124 c-53 -29 -86 -139 -67 -227 23 -114 100 -177 215 -177
104 0 174 56 182 147 9 93 -59 178 -193 239 -81 38 -97 40 -137 18z"/>
<path d="M5250 3947 c-113 -26 -191 -94 -226 -199 -25 -76 -16 -208 19 -280
70 -144 195 -203 347 -164 97 25 166 63 223 126 151 163 104 364 -113 487 -66
38 -164 49 -250 30z m148 -302 c9 -9 -30 -45 -49 -45 -21 0 -43 35 -33 51 6
11 70 6 82 -6z"/>
<path d="M4210 3762 c-74 -28 -103 -47 -158 -106 -188 -199 -125 -434 132
-486 106 -22 209 12 283 92 78 86 113 182 113 314 0 106 -20 139 -105 173 -79
32 -201 38 -265 13z m90 -276 c0 -21 -28 -46 -51 -46 -16 0 -18 3 -9 20 18 33
60 51 60 26z"/>
<path d="M3453 3385 c-40 -17 -79 -78 -138 -217 -44 -104 -45 -108 -31 -143
19 -44 57 -61 98 -44 75 31 178 202 186 309 4 53 2 58 -28 83 -36 31 -43 32
-87 12z"/>
<path d="M1285 3293 c-197 -16 -378 -87 -481 -188 -83 -82 -116 -153 -122
-259 -7 -129 35 -222 147 -331 117 -114 219 -159 392 -175 145 -13 187 -29
252 -100 65 -70 100 -149 158 -352 22 -79 51 -181 65 -228 91 -305 264 -464
579 -532 221 -47 1531 -46 1808 2 193 33 301 76 497 198 303 188 412 302 484
502 57 158 76 405 43 559 -57 258 -255 450 -577 557 -79 26 -96 28 -250 28
-144 1 -175 -2 -245 -23 -156 -45 -209 -78 -431 -264 -38 -32 -94 -70 -124
-85 -50 -24 -65 -27 -170 -26 -103 0 -125 3 -207 31 -202 70 -383 171 -693
387 -231 162 -348 220 -488 246 -31 5 -154 21 -272 35 -201 23 -266 27 -365
18z m450 -437 c229 -30 317 -66 530 -220 367 -266 552 -363 795 -416 278 -61
479 -23 697 131 213 150 274 188 360 220 79 29 99 33 194 33 102 1 107 0 183
-38 52 -25 99 -59 140 -100 80 -79 101 -141 100 -296 -1 -113 -17 -187 -61
-275 -33 -67 -53 -87 -156 -157 -173 -117 -341 -188 -524 -224 -151 -29 -870
-52 -1058 -34 -66 6 -223 15 -350 20 -234 8 -288 16 -354 49 -94 48 -130 115
-208 381 -111 380 -193 526 -360 646 -116 84 -241 130 -401 149 -128 15 -177
36 -177 76 0 33 55 59 148 69 99 12 357 4 502 -14z"/>
<path d="M450 2070 c-30 -30 -35 -66 -14 -97 11 -14 36 -53 57 -87 50 -80 107
-138 164 -166 55 -27 122 -37 152 -21 51 28 68 100 37 159 -24 47 -117 126
-212 180 -102 58 -150 66 -184 32z"/>
<path d="M5236 1166 c-44 -26 -68 -55 -85 -105 -22 -66 -5 -139 44 -188 26
-26 41 -33 73 -33 80 0 121 67 129 210 5 77 3 88 -17 113 -17 22 -29 27 -63
26 -24 0 -58 -10 -81 -23z"/>
</g>
</svg>
