<?xml version="1.0" standalone="no"?>
<!DOCTYPE svg PUBLIC "-//W3C//DTD SVG 20010904//EN"
 "http://www.w3.org/TR/2001/REC-SVG-20010904/DTD/svg10.dtd">
<svg version="1.0" xmlns="http://www.w3.org/2000/svg"
 width="600.000000pt" height="600.000000pt" viewBox="0 0 600.000000 600.000000"
 preserveAspectRatio="xMidYMid meet">
<metadata>
Created by potrace 1.15, written by Peter Selinger 2001-2017
</metadata>
<g transform="translate(0.000000,600.000000) scale(0.100000,-0.100000)"
fill="#16364b" stroke="none">
<path d="M3138 5670 c-64 -19 -108 -73 -108 -133 0 -85 115 -286 213 -372 29
-25 106 -83 171 -127 l120 -82 -48 -42 c-27 -23 -119 -84 -205 -135 -200 -119
-292 -180 -322 -217 -14 -16 -53 -44 -88 -62 -146 -78 -200 -178 -155 -291 25
-62 82 -99 152 -99 70 0 113 26 142 86 26 54 37 60 146 84 121 26 160 57 171
137 5 37 10 41 131 113 290 172 403 309 390 474 -3 34 -12 75 -21 91 -25 50
-104 120 -185 165 -207 116 -254 159 -298 276 -30 80 -64 120 -113 134 -41 11
-56 11 -93 0z"/>
<path d="M1178 5349 c-181 -98 -324 -286 -364 -479 -32 -150 1 -380 69 -481
43 -64 121 -86 187 -50 78 41 103 121 71 226 -57 185 11 400 157 494 93 60
111 77 127 115 21 50 12 106 -22 147 -57 68 -134 77 -225 28z"/>
<path d="M1615 5221 c-35 -15 -75 -62 -87 -102 -14 -49 2 -110 39 -147 l26
-26 -18 -45 c-10 -25 -29 -75 -43 -111 -20 -52 -26 -84 -26 -155 -1 -82 2 -95
29 -144 60 -109 139 -146 310 -145 125 0 180 13 226 51 87 74 72 196 -31 250
-40 22 -53 24 -121 18 -48 -4 -79 -3 -83 3 -3 6 15 63 40 129 59 153 69 253
32 322 -13 25 -40 59 -61 75 -36 29 -46 31 -125 33 -48 2 -96 -1 -107 -6z"/>
<path d="M4542 4633 c-42 -20 -69 -55 -83 -105 -8 -32 -7 -45 8 -75 27 -55 59
-72 158 -88 50 -8 94 -15 100 -15 5 0 5 -4 -1 -10 -5 -5 -43 -16 -83 -25 -41
-8 -89 -24 -107 -36 -37 -22 -74 -90 -74 -135 0 -67 72 -134 145 -134 57 0
193 35 283 71 168 69 243 146 250 254 5 84 -24 135 -106 192 -69 47 -142 73
-294 103 -120 24 -153 25 -196 3z"/>
<path d="M1875 4245 c-215 -48 -444 -173 -482 -263 -34 -82 10 -186 91 -217
61 -24 101 -14 170 40 114 88 239 145 320 145 66 0 112 18 145 55 70 80 60
199 -20 241 -35 17 -141 17 -224 -1z"/>
<path d="M2501 3725 c-96 -21 -194 -62 -228 -95 -71 -69 -64 -196 14 -254 42
-31 89 -30 189 3 100 33 217 50 228 33 27 -44 -79 -261 -263 -541 -78 -118
-144 -225 -147 -238 -18 -71 20 -150 86 -179 l39 -18 -39 -42 c-113 -123 -46
-300 118 -312 53 -3 67 1 192 60 147 70 253 112 269 107 18 -7 -46 -179 -158
-422 -22 -47 -31 -83 -31 -118 0 -125 91 -216 206 -207 89 8 108 29 208 245
154 327 193 453 183 581 -9 127 -78 227 -195 284 -61 30 -73 33 -162 32 -109
0 -209 -25 -328 -79 -41 -19 -79 -35 -84 -35 -4 0 45 80 110 178 176 264 238
389 282 575 48 200 0 341 -140 412 -88 44 -226 56 -349 30z"/>
<path d="M4025 3720 c-153 -23 -228 -135 -181 -268 20 -57 55 -106 126 -178
76 -76 135 -107 218 -112 113 -8 197 52 249 177 12 31 23 71 23 89 0 43 -23
98 -49 114 -12 7 -21 23 -21 36 0 36 -26 89 -52 106 -44 29 -225 50 -313 36z"/>
<path d="M1090 3547 c-71 -24 -175 -83 -255 -144 -130 -100 -137 -265 -14
-331 35 -19 54 -23 95 -19 29 3 66 13 83 21 17 9 31 13 31 9 0 -5 -27 -103
-60 -218 -95 -329 -170 -628 -177 -698 -12 -135 52 -207 209 -233 92 -16 123
8 320 242 294 350 454 531 462 523 20 -19 -25 -278 -104 -602 -65 -264 -80
-351 -80 -460 0 -101 13 -141 59 -180 62 -52 137 -56 200 -9 47 35 58 72 59
187 0 91 7 127 75 395 97 379 108 447 108 635 -1 317 -28 429 -115 480 -57 33
-132 34 -201 1 -62 -29 -128 -97 -283 -291 -125 -156 -182 -218 -168 -180 82
213 128 376 146 520 18 145 -10 239 -91 308 -80 69 -183 84 -299 44z"/>
<path d="M3581 3279 c-119 -35 -231 -178 -262 -335 -17 -82 4 -142 64 -185 64
-46 145 -40 207 16 20 18 42 24 103 29 187 16 298 106 299 240 1 102 -73 190
-190 226 -68 21 -164 25 -221 9z"/>
<path d="M4674 3119 c-70 -20 -117 -105 -95 -172 7 -19 43 -88 82 -153 l70
-118 -12 -43 c-33 -120 34 -229 139 -227 87 1 161 56 182 136 19 69 -2 135
-106 337 -53 102 -101 192 -107 199 -28 35 -105 56 -153 41z"/>
<path d="M4520 2301 c-45 -14 -84 -39 -111 -68 -49 -52 -63 -92 -67 -194 l-4
-96 -47 14 c-123 37 -190 47 -311 47 -108 0 -133 -3 -185 -23 -80 -32 -156
-105 -198 -190 l-32 -66 2 -275 c2 -296 7 -329 58 -396 31 -41 117 -84 168
-84 99 0 196 66 237 162 22 51 23 60 16 231 -4 126 -3 177 5 177 18 0 129 -29
192 -51 72 -24 201 -26 277 -3 114 34 209 121 245 224 55 157 31 451 -43 533
-41 46 -146 76 -202 58z"/>
<path d="M2145 1851 c-51 -23 -91 -70 -106 -124 -14 -51 -5 -297 17 -463 25
-198 87 -354 173 -440 49 -49 311 -214 396 -250 27 -11 58 -15 99 -12 55 4 62
8 103 51 24 25 46 60 49 77 4 16 11 30 16 30 5 0 43 -23 85 -51 199 -135 348
-158 508 -79 152 75 208 181 156 295 -50 112 -173 144 -282 74 -31 -19 -53
-27 -65 -23 -42 15 -253 161 -309 214 -129 120 -215 191 -249 205 -76 32 -164
13 -236 -52 -46 -41 -48 -42 -55 -20 -4 12 -10 114 -14 227 -6 182 -9 210 -28
245 -54 101 -160 141 -258 96z"/>
</g>
</svg>
