<?xml version="1.0" standalone="no"?>
<!DOCTYPE svg PUBLIC "-//W3C//DTD SVG 20010904//EN"
 "http://www.w3.org/TR/2001/REC-SVG-20010904/DTD/svg10.dtd">
<svg version="1.0" xmlns="http://www.w3.org/2000/svg"
 width="600.000000pt" height="600.000000pt" viewBox="0 0 600.000000 600.000000"
 preserveAspectRatio="xMidYMid meet">
<metadata>
Created by potrace 1.15, written by Peter Selinger 2001-2017
</metadata>
<g transform="translate(0.000000,600.000000) scale(0.100000,-0.100000)"
fill="#16364b" stroke="none">
<path d="M2463 5476 c-32 -27 -93 -144 -117 -226 -40 -134 -7 -265 79 -315 76
-45 141 -50 340 -25 97 12 178 21 180 19 1 -2 -49 -58 -113 -124 -212 -221
-285 -317 -367 -487 -67 -136 -60 -225 21 -307 l44 -44 168 9 c214 12 507 12
644 0 l107 -9 40 40 c51 50 61 98 35 161 -40 96 -101 112 -456 119 -142 3
-258 9 -258 13 0 9 92 133 138 185 19 22 87 96 151 164 190 203 223 257 223
362 -1 79 -50 152 -132 195 -50 27 -215 25 -393 -5 -76 -13 -140 -21 -142 -19
-2 2 7 28 20 57 46 99 27 183 -54 238 -48 32 -119 32 -158 -1z"/>
<path d="M1655 5111 c-217 -62 -480 -285 -590 -501 -24 -46 -23 -129 1 -171
31 -53 68 -74 127 -73 29 1 111 3 182 5 149 4 228 -10 250 -45 7 -11 20 -57
29 -100 28 -135 75 -186 172 -186 45 0 59 5 88 30 50 45 61 85 47 179 -26 163
-59 239 -137 311 -54 50 -133 88 -215 103 -32 6 -59 15 -59 18 0 10 88 73 135
96 22 11 65 28 95 36 121 35 163 146 93 249 -26 39 -84 69 -131 67 -15 0 -54
-8 -87 -18z"/>
<path d="M4180 4755 c-132 -29 -376 -158 -404 -213 -55 -107 10 -222 125 -222
32 0 59 10 110 41 85 51 216 109 248 109 23 0 24 -2 18 -52 -8 -81 -53 -206
-134 -370 -91 -186 -92 -203 -27 -300 32 -48 58 -75 87 -90 45 -22 70 -22 480
-2 l127 7 0 -38 c0 -56 -33 -167 -108 -360 -44 -112 -66 -184 -66 -210 1 -85
61 -145 145 -145 37 0 52 6 86 35 37 32 47 52 117 241 42 113 88 249 101 301
66 251 1 398 -201 460 -49 14 -92 17 -251 16 -106 -1 -193 -1 -193 0 0 2 16
40 35 86 69 164 90 252 90 391 0 116 -2 128 -27 175 -33 63 -70 98 -132 126
-62 27 -144 32 -226 14z"/>
<path d="M2035 3985 c-92 -40 -288 -94 -415 -115 -69 -12 -125 -27 -140 -38
-41 -30 -62 -80 -57 -139 6 -90 68 -153 150 -153 94 0 540 125 629 177 19 10
43 38 56 63 50 97 -11 209 -123 225 -30 4 -55 -1 -100 -20z"/>
<path d="M3778 3716 c-76 -16 -183 -73 -336 -176 -109 -74 -130 -93 -151 -133
-29 -58 -23 -103 20 -152 36 -41 87 -59 136 -50 21 4 78 36 132 74 110 78 190
126 197 118 7 -7 -24 -106 -79 -252 -86 -226 -100 -255 -145 -281 -93 -56 -98
-210 -8 -272 64 -44 124 -28 401 103 276 129 375 223 375 352 0 93 -63 163
-147 163 -59 0 -113 -30 -143 -79 -14 -22 -27 -41 -30 -41 -3 0 14 60 39 133
41 120 45 141 45 232 1 79 -3 107 -18 135 -58 110 -161 155 -288 126z"/>
<path d="M2416 3425 c-110 -18 -312 -71 -346 -92 -49 -29 -65 -62 -65 -135 0
-63 2 -69 35 -103 57 -59 92 -62 229 -21 139 41 208 56 263 56 l41 0 -6 -45
c-4 -25 -25 -93 -47 -152 -22 -59 -40 -124 -40 -146 0 -82 80 -167 157 -167
35 0 82 24 102 53 48 66 141 344 148 443 10 133 -44 236 -151 289 -68 33 -191
41 -320 20z"/>
<path d="M1204 3136 c-162 -46 -258 -171 -224 -292 18 -63 70 -110 137 -125
l55 -13 -6 -160 c-21 -582 -17 -681 26 -759 57 -102 219 -117 311 -29 33 31
57 73 57 99 1 11 17 26 43 39 37 18 50 34 111 145 37 68 89 155 113 192 50 74
149 187 165 187 7 0 9 -72 6 -212 -5 -201 -7 -222 -43 -381 l-38 -169 19 -46
c35 -84 125 -116 210 -76 71 34 104 105 144 313 32 166 57 550 41 634 -34 185
-159 302 -303 283 -142 -19 -316 -151 -438 -332 l-53 -79 8 236 c7 248 2 308
-35 394 -54 126 -177 187 -306 151z"/>
<path d="M4857 2819 c-58 -14 -91 -34 -135 -84 -44 -51 -66 -112 -60 -176 l3
-44 -55 -13 c-214 -52 -288 -84 -376 -165 -111 -101 -156 -208 -156 -372 1
-150 50 -325 122 -432 33 -49 37 -63 16 -63 -7 0 -34 -18 -59 -40 -25 -22 -51
-40 -59 -40 -8 0 -68 19 -133 42 -227 78 -405 63 -603 -53 -82 -49 -236 -207
-307 -316 -33 -51 -68 -95 -77 -98 -9 -3 -49 -35 -88 -70 -82 -73 -116 -82
-176 -45 -78 49 -175 208 -244 400 -18 52 -42 107 -52 122 -51 74 -167 94
-253 44 -96 -57 -118 -152 -66 -293 113 -306 222 -471 387 -589 223 -160 450
-144 641 44 37 37 80 73 95 79 30 13 63 57 118 154 19 34 72 101 116 148 148
157 217 174 408 102 140 -52 196 -64 292 -60 65 3 91 10 146 37 124 61 203
162 196 250 l-3 46 44 8 c115 20 201 134 188 249 -8 64 -29 103 -94 171 -61
65 -92 126 -93 180 0 33 4 40 38 57 20 10 87 33 147 50 61 18 133 43 161 56
166 80 254 224 254 412 -1 106 -13 166 -45 215 -46 70 -151 109 -238 87z"/>
<path d="M3160 2420 c-91 -16 -370 -80 -483 -111 -46 -12 -106 -63 -123 -106
-20 -46 -17 -122 5 -163 10 -19 37 -48 59 -64 58 -41 105 -39 372 17 124 26
255 50 291 53 l66 7 -5 -75 c-4 -61 -1 -81 16 -115 59 -114 194 -156 290 -89
48 33 66 65 86 153 41 185 0 356 -107 437 -92 70 -272 92 -467 56z"/>
</g>
</svg>
