<?xml version="1.0" standalone="no"?>
<!DOCTYPE svg PUBLIC "-//W3C//DTD SVG 20010904//EN"
 "http://www.w3.org/TR/2001/REC-SVG-20010904/DTD/svg10.dtd">
<svg version="1.0" xmlns="http://www.w3.org/2000/svg"
 width="600.000000pt" height="600.000000pt" viewBox="0 0 600.000000 600.000000"
 preserveAspectRatio="xMidYMid meet">
<metadata>
Created by potrace 1.15, written by Peter Selinger 2001-2017
</metadata>
<g transform="translate(0.000000,600.000000) scale(0.100000,-0.100000)"
fill="#16364b" stroke="none">
<path d="M1523 5788 c-38 -19 -182 -202 -253 -324 -33 -57 -40 -78 -40 -123 0
-100 75 -157 173 -133 63 16 453 207 482 237 49 48 24 154 -44 190 -40 20 -46
20 -119 -15 -35 -17 -66 -30 -69 -30 -2 0 5 13 16 29 13 18 21 45 21 71 0 34
-6 48 -34 76 -27 27 -42 34 -72 33 -22 0 -49 -5 -61 -11z"/>
<path d="M2369 5423 c-47 -29 -51 -46 -54 -222 -5 -259 -38 -410 -114 -529
-43 -65 -92 -107 -183 -153 -64 -32 -78 -51 -78 -104 0 -51 44 -95 95 -95 58
0 169 64 251 145 154 153 225 374 240 752 l7 161 -31 31 c-35 36 -89 41 -133
14z"/>
<path d="M3499 5307 c-29 -22 -59 -81 -59 -117 0 -19 13 -63 30 -98 57 -120
182 -222 274 -222 76 0 136 59 136 133 0 66 -94 216 -167 266 -63 44 -179 65
-214 38z"/>
<path d="M2933 5130 c-114 -65 -179 -218 -139 -325 44 -113 185 -149 321 -80
67 34 79 55 96 164 19 123 -15 217 -92 256 -48 25 -127 19 -186 -15z"/>
<path d="M4765 4786 c-66 -29 -70 -43 -68 -205 3 -293 85 -459 250 -507 169
-49 314 100 274 284 -24 112 -96 218 -219 321 -123 103 -184 131 -237 107z
m219 -432 c3 -8 2 -12 -4 -9 -6 3 -10 10 -10 16 0 14 7 11 14 -7z"/>
<path d="M2645 4228 c-56 -21 -114 -68 -142 -116 -24 -40 -28 -58 -28 -122 0
-113 46 -187 145 -234 63 -29 192 -28 271 3 104 40 226 133 271 206 37 61 13
157 -49 188 -15 8 -75 30 -133 48 -83 26 -126 33 -205 36 -57 1 -113 -2 -130
-9z"/>
<path d="M1078 4092 c-32 -19 -58 -68 -58 -106 0 -35 34 -101 62 -121 13 -8
48 -23 78 -32 30 -8 73 -25 94 -35 l40 -20 -28 -15 c-39 -21 -167 -43 -245
-43 -54 0 -75 -5 -102 -23 -65 -43 -86 -124 -49 -185 31 -51 73 -64 167 -52
283 36 431 100 500 217 32 55 37 149 11 198 -42 78 -145 146 -311 204 -101 35
-121 37 -159 13z"/>
<path d="M4203 3765 c-78 -22 -125 -48 -167 -96 -63 -69 -81 -119 -81 -229 0
-87 3 -100 30 -149 56 -102 142 -151 264 -151 85 0 167 38 232 106 79 84 113
162 123 286 6 83 -5 122 -46 165 -62 64 -246 99 -355 68z m117 -292 c0 -12
-43 -53 -57 -53 -21 0 -15 27 9 44 23 17 48 21 48 9z"/>
<path d="M1645 3705 c-71 -25 -95 -77 -95 -203 0 -172 93 -294 234 -309 47 -5
64 -2 111 22 134 65 171 221 83 355 -77 117 -220 175 -333 135z"/>
<path d="M5190 3671 c-30 -10 -68 -25 -85 -33 -48 -26 -120 -94 -153 -145
-143 -226 -12 -507 230 -491 179 11 336 169 346 350 6 101 -17 158 -97 242
-95 99 -134 112 -241 77z m30 -346 c-13 -25 -40 -35 -40 -15 0 14 40 53 48 46
3 -3 -1 -17 -8 -31z"/>
<path d="M3445 3391 c-49 -20 -125 -119 -180 -233 -42 -87 -44 -126 -9 -167
35 -42 76 -48 149 -20 74 27 122 75 167 166 28 57 33 79 33 136 0 65 -2 70
-33 98 -33 30 -83 38 -127 20z"/>
<path d="M2615 3184 c-109 -17 -300 -59 -364 -80 -104 -35 -278 -119 -381
-184 -47 -29 -110 -64 -140 -77 -161 -71 -364 -247 -448 -389 -155 -260 -158
-568 -9 -790 27 -40 148 -172 284 -310 237 -240 239 -242 333 -287 166 -79
302 -103 477 -86 296 29 458 115 842 445 472 406 585 621 488 927 -14 43 -43
108 -65 145 -42 70 -242 300 -325 372 -26 24 -56 59 -67 80 -40 79 -180 170
-320 210 -73 20 -241 34 -305 24z m171 -415 c10 -12 46 -40 79 -62 116 -78
179 -133 283 -247 176 -193 212 -266 174 -352 -35 -80 -417 -441 -564 -534
-24 -15 -68 -44 -99 -65 -145 -99 -319 -158 -428 -145 -87 10 -151 46 -289
163 -199 169 -328 298 -358 359 -96 195 27 455 276 583 47 24 130 72 185 106
243 152 422 212 636 214 76 1 88 -2 105 -20z"/>
<path d="M377 2240 c-48 -38 -52 -75 -16 -185 66 -207 140 -334 266 -456 103
-100 147 -123 239 -124 63 0 75 3 108 29 148 112 71 371 -163 550 -50 38 -221
142 -276 168 -11 5 -31 15 -45 23 -35 21 -83 18 -113 -5z m395 -459 c21 -25
35 -48 32 -51 -7 -6 -89 82 -105 113 -11 19 -10 19 12 2 13 -10 41 -39 61 -64z"/>
<path d="M4564 1841 c-18 -11 -35 -24 -39 -30 -4 -8 -15 -5 -32 9 -59 46 -154
34 -200 -27 -22 -28 -28 -49 -31 -101 -7 -112 35 -348 77 -429 51 -101 144
-138 231 -93 68 35 113 136 170 387 20 85 30 152 27 176 -14 102 -121 158
-203 108z"/>
</g>
</svg>
