<?xml version="1.0" standalone="no"?>
<!DOCTYPE svg PUBLIC "-//W3C//DTD SVG 20010904//EN"
 "http://www.w3.org/TR/2001/REC-SVG-20010904/DTD/svg10.dtd">
<svg version="1.0" xmlns="http://www.w3.org/2000/svg"
 width="600.000000pt" height="600.000000pt" viewBox="0 0 600.000000 600.000000"
 preserveAspectRatio="xMidYMid meet">
<metadata>
Created by potrace 1.15, written by Peter Selinger 2001-2017
</metadata>
<g transform="translate(0.000000,600.000000) scale(0.100000,-0.100000)"
fill="#16364b" stroke="none">
<path d="M1340 5648 c-118 -60 -225 -119 -238 -132 -34 -33 -40 -94 -12 -128
47 -61 128 -60 485 3 131 23 159 34 185 67 49 62 10 132 -74 132 l-47 0 20 26
c30 38 27 84 -7 117 -46 44 -74 37 -312 -85z"/>
<path d="M2373 5430 c-44 -18 -50 -45 -57 -231 -14 -368 -82 -526 -274 -638
-91 -53 -107 -76 -103 -149 2 -34 44 -72 81 -72 68 0 237 111 307 201 114 148
164 325 179 639 7 144 -2 204 -34 233 -23 21 -70 29 -99 17z"/>
<path d="M3519 5301 c-15 -11 -34 -39 -43 -61 -15 -37 -15 -47 -2 -96 19 -73
54 -130 115 -188 127 -118 271 -112 288 13 5 34 0 54 -30 114 -42 85 -123 180
-178 208 -62 31 -119 35 -150 10z"/>
<path d="M3008 5126 c-118 -32 -208 -159 -208 -294 0 -76 24 -121 80 -149 54
-28 85 -29 148 -5 90 35 138 76 163 139 33 84 33 206 1 251 -42 58 -108 79
-184 58z m12 -235 c-6 -12 -15 -21 -21 -21 -10 0 -5 13 14 38 15 19 20 7 7
-17z"/>
<path d="M4773 4779 c-73 -22 -93 -98 -74 -293 13 -141 36 -237 77 -320 115
-236 384 -163 384 105 0 135 -58 271 -165 387 -102 110 -157 140 -222 121z"/>
<path d="M2652 4207 c-122 -45 -168 -176 -104 -298 31 -60 93 -113 150 -129
137 -38 333 23 446 139 32 32 40 49 44 89 8 89 -29 131 -146 164 -160 45 -321
60 -390 35z"/>
<path d="M1129 4120 c-87 -25 -125 -108 -82 -180 19 -34 34 -42 132 -74 41
-14 79 -30 85 -36 18 -18 -18 -12 -111 20 -48 17 -98 30 -111 30 -92 0 -135
-112 -71 -184 24 -28 50 -42 127 -67 81 -27 113 -32 197 -33 85 -1 106 2 141
21 81 43 121 118 111 204 -14 118 -107 209 -278 273 -84 31 -109 35 -140 26z"/>
<path d="M5223 3780 c-111 -26 -218 -113 -252 -204 -26 -71 -28 -181 -4 -248
37 -104 142 -198 233 -211 133 -18 290 76 356 212 24 48 28 69 28 146 1 82 -2
95 -28 143 -28 50 -114 135 -163 161 -24 12 -120 13 -170 1z m72 -301 c8 -12
-22 -49 -40 -49 -20 0 -26 28 -9 45 18 17 40 20 49 4z"/>
<path d="M4225 3766 c-73 -23 -121 -54 -177 -115 -68 -73 -98 -133 -105 -211
-8 -83 11 -141 63 -199 80 -89 216 -120 341 -77 143 48 243 214 243 403 0 123
-26 162 -128 193 -73 23 -176 25 -237 6z m85 -286 c0 -15 -38 -50 -55 -50 -21
0 -19 16 5 40 21 21 50 27 50 10z"/>
<path d="M1670 3693 c-29 -11 -50 -36 -50 -62 0 -41 95 -339 115 -361 26 -29
71 -26 100 6 14 15 25 31 25 36 0 39 -100 341 -118 359 -20 20 -51 29 -72 22z"/>
<path d="M3414 3351 c-44 -27 -184 -252 -184 -296 0 -31 29 -72 59 -85 62 -25
152 15 213 95 81 107 101 233 44 282 -34 29 -89 30 -132 4z"/>
<path d="M1840 3090 c-97 -8 -274 -43 -370 -72 -234 -72 -461 -280 -510 -467
-15 -57 -15 -204 1 -267 18 -73 64 -171 109 -231 54 -71 120 -118 275 -197
203 -103 246 -150 345 -369 84 -188 176 -289 335 -368 98 -49 190 -69 317 -69
107 0 184 14 363 64 90 26 149 36 234 40 200 11 305 32 591 117 255 77 365
135 545 289 197 170 276 281 344 488 59 176 61 291 10 401 -28 59 -244 274
-322 320 -153 90 -291 107 -467 57 -84 -25 -117 -28 -291 -33 -314 -9 -422 14
-746 157 -153 69 -266 101 -423 124 -139 20 -237 24 -340 16z m340 -409 c109
-23 166 -42 305 -101 164 -70 280 -109 465 -156 l175 -45 175 11 c206 14 307
29 436 66 95 26 95 26 136 8 58 -26 183 -151 191 -190 8 -43 -8 -108 -51 -194
-63 -129 -244 -290 -427 -380 -202 -99 -411 -153 -663 -171 -123 -9 -168 -17
-277 -50 -219 -66 -324 -72 -431 -24 -81 36 -120 84 -191 234 -98 205 -175
316 -289 412 -58 49 -186 120 -275 154 -174 64 -153 262 39 359 53 27 208 71
298 86 84 13 274 4 384 -19z"/>
<path d="M448 2144 c-15 -8 -32 -23 -38 -34 -12 -23 -13 -75 -1 -98 5 -9 37
-73 70 -142 92 -191 195 -294 307 -306 119 -13 190 88 154 217 -30 107 -157
235 -326 329 -95 53 -122 58 -166 34z"/>
<path d="M4886 1515 c-26 -17 -50 -25 -81 -25 -24 0 -55 -5 -68 -11 -61 -28
-73 -121 -34 -257 44 -151 106 -203 213 -178 64 15 116 101 140 235 28 159 16
219 -52 247 -48 20 -76 17 -118 -11z"/>
</g>
</svg>
