<?xml version="1.0" standalone="no"?>
<!DOCTYPE svg PUBLIC "-//W3C//DTD SVG 20010904//EN"
 "http://www.w3.org/TR/2001/REC-SVG-20010904/DTD/svg10.dtd">
<svg version="1.0" xmlns="http://www.w3.org/2000/svg"
 width="600.000000pt" height="600.000000pt" viewBox="0 0 600.000000 600.000000"
 preserveAspectRatio="xMidYMid meet">
<metadata>
Created by potrace 1.15, written by Peter Selinger 2001-2017
</metadata>
<g transform="translate(0.000000,600.000000) scale(0.100000,-0.100000)"
fill="#16364b" stroke="none">
<path d="M3531 5271 c-28 -38 -27 -44 14 -129 36 -75 110 -164 157 -188 64
-33 118 -7 118 57 -1 64 -75 187 -154 257 -50 44 -105 45 -135 3z m160 -163
c18 -27 29 -51 27 -54 -8 -8 -66 63 -89 109 l-21 42 26 -24 c14 -14 40 -47 57
-73z"/>
<path d="M3025 5106 c-93 -41 -171 -195 -151 -300 9 -48 50 -86 93 -86 47 0
80 20 137 79 81 88 114 194 79 261 -29 57 -92 75 -158 46z m83 -98 c4 -37 -32
-108 -80 -156 -50 -51 -68 -54 -68 -9 0 53 19 105 52 143 51 58 91 67 96 22z"/>
<path d="M4782 4753 c-7 -3 -19 -18 -27 -34 -13 -24 -15 -76 -13 -311 3 -264
5 -285 24 -318 39 -68 121 -63 159 11 46 88 36 330 -22 557 -22 84 -65 118
-121 95z"/>
<path d="M2650 4227 c-53 -27 -64 -115 -20 -162 48 -51 227 -112 355 -122 115
-8 165 20 165 95 0 45 -28 69 -110 96 -41 13 -127 43 -190 65 -121 43 -159 49
-200 28z"/>
<path d="M1569 4155 c-101 -32 -189 -149 -189 -252 0 -92 30 -142 128 -215 81
-60 126 -144 184 -342 26 -93 38 -165 98 -641 13 -98 26 -274 31 -415 8 -257
19 -339 70 -550 61 -251 144 -369 322 -454 94 -45 205 -76 276 -76 68 0 66 4
63 -146 -5 -171 15 -294 73 -466 24 -71 40 -130 37 -132 -4 -2 -43 -7 -87 -11
-93 -8 -129 -24 -150 -65 -27 -53 -14 -105 35 -133 61 -36 208 -12 288 46 88
65 102 136 53 260 -71 177 -111 404 -97 547 4 42 10 81 14 87 5 9 64 8 227 -3
121 -7 334 -17 473 -21 177 -4 251 -9 248 -17 -27 -63 -38 -127 -33 -192 9
-116 51 -186 164 -266 24 -17 43 -35 43 -40 0 -4 -17 -8 -37 -8 -67 -1 -117
-18 -145 -50 -37 -41 -37 -80 2 -119 38 -37 98 -48 178 -32 125 25 202 110
187 208 -6 41 -15 56 -64 103 -31 30 -77 72 -103 93 -78 62 -89 143 -33 255
34 67 37 71 78 77 264 40 329 58 558 150 205 82 285 129 379 224 160 161 233
407 181 611 -53 209 -181 393 -322 464 -157 79 -295 74 -514 -17 -99 -41 -246
-61 -409 -54 -247 10 -438 59 -633 162 -156 82 -239 141 -350 248 -118 114
-190 206 -373 482 -212 319 -315 441 -457 542 -38 26 -88 63 -113 82 -97 73
-199 101 -281 76z m120 -195 c21 -10 51 -30 67 -43 16 -13 53 -37 83 -53 67
-36 191 -156 265 -256 31 -42 94 -140 141 -218 210 -349 318 -485 500 -629
142 -113 378 -245 527 -295 309 -104 751 -113 973 -19 161 68 225 77 325 47
103 -30 228 -188 274 -343 18 -63 21 -188 5 -246 -39 -141 -141 -265 -274
-333 -60 -30 -340 -137 -420 -160 -214 -63 -405 -72 -1040 -49 -236 9 -477 16
-535 16 -207 1 -367 72 -449 199 -83 130 -128 371 -141 747 -15 451 -82 938
-159 1165 -59 177 -103 242 -240 361 -93 81 -16 168 98 109z"/>
<path d="M2406 2514 c-9 -8 -16 -29 -16 -45 0 -22 8 -34 33 -49 41 -25 43 -25
72 5 30 29 32 65 7 88 -23 21 -76 22 -96 1z"/>
<path d="M2856 2167 c-41 -30 -1 -117 53 -117 25 0 61 42 61 72 0 49 -70 77
-114 45z"/>
<path d="M5223 3974 c-48 -17 -123 -80 -152 -128 -69 -111 -37 -305 70 -421
78 -84 159 -109 267 -81 129 33 232 110 275 204 33 73 30 172 -8 241 -35 64
-105 127 -187 170 -54 28 -70 31 -142 30 -45 0 -100 -7 -123 -15z m171 -294
c13 -13 -12 -40 -39 -40 -22 0 -50 41 -37 55 9 8 63 -2 76 -15z"/>
<path d="M4215 3756 c-181 -44 -294 -264 -215 -420 90 -177 359 -197 497 -37
30 35 63 123 63 169 0 57 -33 159 -63 197 -31 39 -133 91 -192 99 -22 2 -63
-1 -90 -8z m65 -271 c0 -27 -17 -39 -45 -33 -15 3 -14 6 5 31 27 34 40 34 40
2z"/>
<path d="M492 2008 c-30 -30 -14 -56 75 -118 160 -111 225 -131 239 -73 9 34
-9 50 -158 136 -119 69 -136 75 -156 55z"/>
<path d="M5333 1088 c-51 -58 -68 -168 -34 -224 28 -46 80 -61 128 -37 51 25
75 70 81 153 4 66 3 70 -26 99 -26 26 -38 31 -79 31 -39 0 -54 -5 -70 -22z"/>
</g>
</svg>
