<?xml version="1.0" standalone="no"?>
<!DOCTYPE svg PUBLIC "-//W3C//DTD SVG 20010904//EN"
 "http://www.w3.org/TR/2001/REC-SVG-20010904/DTD/svg10.dtd">
<svg version="1.0" xmlns="http://www.w3.org/2000/svg"
 width="600.000000pt" height="600.000000pt" viewBox="0 0 600.000000 600.000000"
 preserveAspectRatio="xMidYMid meet">
<metadata>
Created by potrace 1.15, written by Peter Selinger 2001-2017
</metadata>
<g transform="translate(0.000000,600.000000) scale(0.100000,-0.100000)"
fill="#16364b" stroke="none">
<path d="M2303 5609 c-98 -19 -171 -66 -235 -150 -93 -124 -114 -253 -134
-824 -9 -242 -17 -606 -18 -810 -2 -206 -8 -401 -14 -440 -6 -38 -14 -116 -18
-172 -4 -57 -9 -103 -11 -103 -2 0 -35 21 -73 46 -81 53 -224 201 -293 302
l-49 71 28 36 c24 32 26 38 12 51 -14 14 -17 13 -36 -11 l-21 -26 -3 63 c-2
48 -7 64 -19 66 -11 2 -22 -12 -34 -45 -16 -42 -20 -45 -29 -29 -6 11 -21 31
-33 45 -20 24 -22 24 -29 8 -4 -10 -2 -34 4 -53 11 -37 6 -42 -24 -19 -23 17
-54 20 -54 4 0 -6 22 -41 49 -78 27 -36 58 -84 69 -106 32 -65 152 -213 243
-301 81 -78 183 -153 263 -191 l39 -18 -7 -410 c-8 -433 -4 -515 35 -675 57
-234 162 -403 305 -493 58 -36 162 -75 265 -99 84 -19 90 -23 84 -42 -14 -40
-17 -316 -6 -396 12 -80 43 -195 77 -282 10 -26 15 -51 10 -55 -4 -4 -46 -11
-92 -14 -75 -5 -87 -8 -113 -33 -38 -36 -46 -74 -28 -119 12 -27 25 -39 62
-52 121 -47 308 51 331 173 6 29 -1 62 -34 157 -22 66 -48 158 -56 204 -19 99
-20 260 -3 351 l13 65 59 -2 c33 -2 140 -7 239 -13 98 -5 291 -10 428 -10
l250 0 -7 -30 c-12 -53 -9 -302 4 -370 14 -74 46 -168 86 -254 19 -43 24 -61
15 -66 -6 -4 -49 -10 -94 -12 -121 -8 -176 -44 -176 -115 0 -69 75 -101 191
-84 166 26 249 89 249 188 0 22 -20 94 -45 161 -60 162 -79 273 -72 432 2 69
8 132 11 141 6 14 34 18 174 23 92 4 195 14 230 22 182 41 304 166 346 354 8
36 24 157 36 270 19 185 20 222 10 380 -21 329 -74 495 -221 689 -34 45 -60
83 -58 85 2 1 38 15 79 31 265 100 475 253 590 429 63 96 69 113 45 122 -8 4
-15 12 -15 19 0 23 -20 28 -39 11 -27 -24 -41 -19 -41 14 0 43 -27 39 -47 -7
-15 -37 -16 -37 -26 -15 -12 27 -42 25 -41 -3 0 -11 4 -39 8 -63 8 -42 8 -43
-56 -105 -110 -107 -309 -226 -467 -276 -98 -32 -122 -29 -167 22 -128 144
-260 280 -333 344 -81 71 -279 210 -411 288 -232 137 -417 327 -491 505 -55
131 -97 344 -124 630 -19 202 -29 264 -61 358 -77 231 -267 354 -481 311z
m194 -167 c43 -23 93 -74 119 -123 43 -85 57 -161 74 -429 24 -352 89 -590
210 -771 45 -67 190 -239 233 -275 79 -69 167 -130 287 -199 239 -138 238
-138 641 -550 226 -232 283 -303 350 -440 75 -154 82 -198 82 -555 1 -245 -2
-325 -16 -405 -39 -226 -135 -326 -325 -340 -438 -32 -950 -26 -1379 16 -432
42 -591 138 -680 410 -53 160 -68 275 -68 524 0 253 20 804 37 1010 6 77 13
322 14 545 3 611 20 1179 38 1285 32 188 83 270 193 311 50 19 138 12 190 -14z"/>
<path d="M2572 2917 c-27 -29 -28 -47 -1 -81 34 -43 82 -33 99 20 24 70 -48
114 -98 61z"/>
<path d="M3187 2902 c-25 -28 -20 -57 14 -86 38 -32 69 -33 97 -3 27 29 28 61
2 87 -26 26 -90 27 -113 2z"/>
<path d="M2743 1988 c-21 -24 -13 -50 22 -68 24 -12 76 -15 270 -15 132 0 268
-4 302 -9 57 -8 62 -7 73 13 17 32 3 61 -38 79 -31 14 -81 16 -325 17 -257 0
-290 -2 -304 -17z"/>
</g>
</svg>
