<?xml version="1.0" standalone="no"?>
<!DOCTYPE svg PUBLIC "-//W3C//DTD SVG 20010904//EN"
 "http://www.w3.org/TR/2001/REC-SVG-20010904/DTD/svg10.dtd">
<svg version="1.0" xmlns="http://www.w3.org/2000/svg"
 width="600.000000pt" height="600.000000pt" viewBox="0 0 600.000000 600.000000"
 preserveAspectRatio="xMidYMid meet">
<metadata>
Created by potrace 1.15, written by Peter Selinger 2001-2017
</metadata>
<g transform="translate(0.000000,600.000000) scale(0.100000,-0.100000)"
fill="#16364b" stroke="none">
<path d="M2357 5408 c-21 -21 -24 -38 -35 -223 -12 -201 -31 -314 -71 -429
-43 -121 -93 -184 -197 -243 -72 -42 -92 -74 -78 -126 7 -22 21 -38 46 -51
l36 -20 66 33 c36 17 87 49 114 71 92 72 185 246 239 447 25 90 27 114 27 301
l1 204 -33 29 c-40 36 -84 38 -115 7z"/>
<path d="M3522 5305 c-32 -23 -54 -82 -47 -125 15 -84 98 -206 178 -261 37
-25 58 -33 96 -33 56 -1 85 19 108 72 12 29 12 40 -1 85 -28 95 -115 210 -186
247 -54 28 -120 34 -148 15z"/>
<path d="M3005 5126 c-47 -20 -121 -110 -145 -174 -76 -203 17 -327 187 -248
79 37 128 92 152 171 37 119 19 208 -49 248 -33 20 -103 21 -145 3z m30 -225
c-8 -17 -20 -31 -25 -31 -15 0 -12 11 12 50 25 41 36 25 13 -19z"/>
<path d="M4784 4776 c-55 -24 -65 -63 -65 -259 0 -206 15 -292 65 -365 88
-127 239 -122 312 12 24 43 29 66 32 142 6 136 -23 216 -126 346 -58 73 -140
138 -171 138 -9 -1 -30 -7 -47 -14z"/>
<path d="M2664 4202 c-69 -24 -94 -42 -128 -90 -22 -32 -28 -53 -28 -90 0 -84
44 -140 152 -191 49 -23 67 -26 165 -26 108 0 111 1 180 38 92 49 150 104 166
156 22 73 -27 158 -101 174 -14 2 -61 14 -104 26 -100 27 -230 28 -302 3z"/>
<path d="M1114 4131 c-35 -21 -59 -69 -52 -106 4 -20 -3 -34 -28 -59 -57 -57
-44 -127 35 -199 62 -56 116 -80 198 -85 60 -4 79 -1 118 18 58 28 94 80 102
148 15 129 -62 230 -215 283 -70 24 -119 24 -158 0z"/>
<path d="M5233 3870 c-111 -23 -191 -83 -234 -173 -34 -72 -43 -137 -29 -200
37 -166 168 -281 320 -281 99 0 164 27 231 93 70 71 94 132 94 247 0 129 -40
192 -191 299 -26 19 -134 27 -191 15z m92 -311 c8 -12 -23 -49 -41 -49 -15 0
-28 35 -19 50 8 13 52 13 60 -1z"/>
<path d="M4183 3752 c-174 -62 -267 -231 -218 -397 22 -77 97 -154 174 -180
117 -38 244 -5 327 88 101 113 144 306 91 408 -20 37 -33 48 -83 68 -81 33
-217 39 -291 13z m107 -272 c0 -11 -40 -50 -51 -50 -18 0 -20 23 -3 41 18 20
54 26 54 9z"/>
<path d="M3457 3360 c-39 -12 -59 -39 -127 -173 -67 -132 -73 -165 -34 -204
22 -22 32 -25 73 -21 79 8 152 77 198 187 40 99 24 179 -42 207 -19 8 -36 14
-37 13 -2 0 -15 -4 -31 -9z"/>
<path d="M1520 3179 c-232 -18 -396 -83 -525 -205 -104 -99 -155 -208 -155
-330 0 -141 70 -295 179 -397 68 -63 131 -95 244 -126 200 -54 268 -127 372
-395 69 -178 110 -252 199 -359 93 -111 255 -217 396 -257 93 -27 325 -38 433
-21 40 6 176 16 302 21 453 18 723 61 995 155 278 97 516 268 650 466 110 165
165 360 157 559 -6 178 -48 273 -185 420 -225 243 -478 283 -781 125 -304
-159 -313 -162 -544 -164 -248 -2 -334 22 -532 146 -44 27 -118 74 -165 103
-234 147 -492 233 -775 260 -119 11 -124 11 -265 -1z m361 -384 c175 -30 279
-78 479 -219 273 -192 440 -263 665 -281 44 -4 104 -14 133 -22 44 -12 71 -13
165 -3 232 24 363 65 552 175 143 83 192 105 236 105 57 0 133 -45 199 -118
68 -76 79 -114 62 -216 -25 -148 -90 -259 -213 -362 -202 -170 -315 -226 -574
-287 -224 -53 -394 -71 -765 -82 -58 -1 -145 -10 -195 -20 -131 -26 -265 -24
-338 4 -112 44 -184 144 -272 381 -59 159 -116 265 -185 349 -109 130 -250
221 -432 281 -77 25 -104 39 -128 66 -68 78 -18 168 115 207 184 55 346 69
496 42z"/>
<path d="M442 2108 c-37 -40 -38 -82 -3 -138 5 -8 28 -54 50 -101 22 -47 61
-109 86 -137 119 -132 294 -140 341 -16 14 37 15 51 5 84 -25 84 -119 174
-286 275 -104 63 -156 72 -193 33z"/>
<path d="M5048 1361 c-20 -17 -46 -31 -60 -31 -53 0 -98 -59 -98 -129 0 -51
31 -151 60 -191 24 -34 73 -60 114 -60 35 0 80 42 104 97 11 27 27 94 37 150
15 91 15 104 1 130 -21 41 -39 54 -84 60 -33 4 -44 1 -74 -26z"/>
</g>
</svg>
