<?xml version="1.0" standalone="no"?>
<!DOCTYPE svg PUBLIC "-//W3C//DTD SVG 20010904//EN"
 "http://www.w3.org/TR/2001/REC-SVG-20010904/DTD/svg10.dtd">
<svg version="1.0" xmlns="http://www.w3.org/2000/svg"
 width="600.000000pt" height="600.000000pt" viewBox="0 0 600.000000 600.000000"
 preserveAspectRatio="xMidYMid meet">
<metadata>
Created by potrace 1.15, written by Peter Selinger 2001-2017
</metadata>
<g transform="translate(0.000000,600.000000) scale(0.100000,-0.100000)"
fill="#16364b" stroke="none">
<path d="M2463 5496 c-41 -19 -83 -78 -124 -174 -42 -98 -46 -203 -12 -267 70
-133 200 -169 456 -125 71 12 131 19 134 16 3 -3 -12 -25 -33 -48 -127 -138
-356 -487 -448 -682 -32 -69 -8 -179 49 -224 40 -32 77 -35 167 -15 68 15 124
18 308 17 124 -1 276 -7 339 -13 133 -14 165 -7 210 44 60 69 47 175 -27 218
-42 25 -175 36 -464 39 -125 2 -228 5 -228 7 0 12 97 131 199 245 247 274 312
363 332 451 31 141 -72 256 -244 271 -40 4 -112 -2 -202 -16 -171 -26 -255
-35 -255 -26 0 3 14 32 31 64 24 45 30 65 26 96 -13 99 -125 162 -214 122z"/>
<path d="M1660 5101 c-81 -26 -148 -63 -239 -131 -151 -114 -309 -277 -355
-367 -22 -44 -21 -120 4 -161 35 -58 72 -72 185 -72 120 0 256 -21 318 -48 48
-21 57 -37 92 -164 12 -44 24 -64 50 -84 38 -29 101 -41 158 -30 45 8 105 69
113 114 8 42 -19 168 -48 227 -59 118 -167 207 -308 254 l-82 28 36 29 c45 37
150 90 196 98 88 16 136 79 128 173 -5 63 -28 98 -84 130 -47 27 -90 28 -164
4z"/>
<path d="M4150 4773 c-83 -15 -310 -135 -365 -194 -27 -27 -30 -37 -30 -94 0
-61 2 -67 37 -101 31 -32 44 -38 92 -42 51 -4 61 -1 123 36 143 86 256 123
269 88 8 -21 -11 -121 -38 -201 -11 -33 -56 -131 -99 -217 -91 -181 -97 -218
-53 -284 73 -110 109 -123 251 -95 189 39 352 50 438 32 26 -5 30 -11 33 -44
5 -53 -28 -163 -108 -363 -39 -96 -70 -187 -70 -202 0 -15 9 -46 20 -70 15
-33 29 -47 62 -62 24 -11 54 -20 68 -20 37 0 106 35 124 62 25 38 145 334 173
428 21 69 26 107 27 200 1 107 -1 119 -28 173 -36 74 -104 129 -194 158 -80
25 -260 36 -372 21 -41 -5 -78 -8 -82 -5 -4 2 6 31 23 64 101 200 137 424 89
552 -27 71 -83 134 -144 163 -42 20 -66 24 -136 23 -47 -1 -96 -4 -110 -6z"/>
<path d="M2015 3969 c-102 -39 -246 -74 -408 -98 -70 -11 -139 -26 -152 -35
-60 -39 -84 -159 -46 -222 23 -38 76 -64 130 -64 44 0 286 45 461 86 242 56
281 82 288 187 3 52 0 67 -20 96 -58 85 -127 99 -253 50z"/>
<path d="M3714 3671 c-131 -36 -366 -168 -427 -241 -69 -82 -28 -201 80 -229
52 -14 95 -1 178 56 53 36 216 123 230 123 25 0 -30 -154 -121 -337 -62 -126
-82 -156 -111 -174 -39 -24 -72 -86 -73 -133 0 -45 37 -113 74 -136 55 -33
107 -27 247 31 242 99 416 202 479 282 58 74 75 173 41 237 -52 99 -183 107
-247 15 -11 -15 -30 -38 -42 -53 -19 -21 -22 -23 -17 -7 4 11 18 52 32 90 33
93 53 187 53 255 0 179 -167 278 -376 221z"/>
<path d="M2355 3394 c-128 -19 -258 -49 -284 -65 -90 -55 -96 -181 -11 -252
47 -40 85 -42 191 -14 131 35 287 52 317 33 16 -9 -4 -77 -53 -186 -50 -108
-54 -143 -26 -199 48 -94 178 -108 249 -27 30 34 110 215 133 296 20 74 16
178 -8 232 -31 68 -98 131 -169 158 -48 18 -83 23 -184 25 -69 2 -138 1 -155
-1z"/>
<path d="M1206 3139 c-59 -14 -137 -56 -179 -97 -117 -113 -57 -297 106 -327
l37 -7 0 -76 c0 -42 -7 -153 -16 -246 -20 -210 -15 -476 9 -552 22 -68 76
-120 144 -140 49 -14 58 -14 108 2 69 21 122 75 131 134 6 36 12 42 50 59 35
16 53 35 100 108 114 176 292 403 316 403 7 0 8 -45 4 -127 -13 -232 -26 -331
-61 -454 -19 -67 -35 -138 -35 -158 0 -84 99 -162 187 -148 78 13 118 64 156
199 44 153 57 271 57 509 0 184 -3 228 -20 295 -29 113 -74 175 -156 215 -56
28 -71 31 -118 26 -121 -12 -200 -75 -363 -287 -54 -70 -99 -127 -101 -125 -2
2 2 50 9 106 22 189 -5 448 -56 550 -57 112 -182 168 -309 138z"/>
<path d="M4788 2835 c-81 -43 -132 -135 -126 -230 l3 -50 -90 -33 c-210 -77
-299 -126 -382 -211 -100 -104 -160 -304 -135 -450 22 -128 64 -214 155 -316
26 -29 47 -55 47 -58 0 -2 -13 -10 -29 -16 -15 -7 -43 -28 -62 -47 -18 -19
-41 -34 -50 -34 -10 0 -88 18 -173 40 -227 59 -316 55 -467 -20 -136 -67 -284
-203 -396 -362 -30 -42 -64 -80 -75 -84 -12 -3 -42 -25 -67 -49 -69 -62 -91
-75 -136 -75 -69 0 -154 66 -231 180 -36 52 -67 111 -124 233 -31 67 -49 93
-78 111 -136 89 -298 30 -318 -115 -19 -138 242 -549 431 -679 98 -68 226
-110 329 -110 115 1 269 59 354 135 26 23 68 53 93 67 25 15 58 46 74 70 94
143 199 262 272 309 60 37 110 38 267 4 216 -47 374 -32 497 47 101 65 155
153 147 244 -3 36 0 44 14 44 37 0 126 42 155 72 48 52 66 96 66 163 0 79 -24
126 -102 193 -71 62 -91 95 -91 152 0 53 21 66 210 128 225 73 292 128 341
278 19 57 23 90 23 189 0 109 -3 125 -26 170 -32 61 -59 87 -118 114 -63 29
-142 27 -202 -4z"/>
<path d="M3235 2434 c-123 -14 -528 -114 -592 -147 -90 -47 -126 -165 -78
-258 30 -56 114 -109 177 -109 9 0 70 16 135 36 196 59 344 94 427 101 75 6
79 5 71 -13 -11 -28 -18 -119 -11 -148 8 -33 61 -93 100 -113 51 -26 126 -22
175 10 46 31 69 70 102 177 34 111 33 217 -4 293 -56 114 -164 167 -347 172
-63 2 -133 1 -155 -1z"/>
</g>
</svg>
