<?xml version="1.0" standalone="no"?>
<!DOCTYPE svg PUBLIC "-//W3C//DTD SVG 20010904//EN"
 "http://www.w3.org/TR/2001/REC-SVG-20010904/DTD/svg10.dtd">
<svg version="1.0" xmlns="http://www.w3.org/2000/svg"
 width="600.000000pt" height="600.000000pt" viewBox="0 0 600.000000 600.000000"
 preserveAspectRatio="xMidYMid meet">
<metadata>
Created by potrace 1.15, written by Peter Selinger 2001-2017
</metadata>
<g transform="translate(0.000000,600.000000) scale(0.100000,-0.100000)"
fill="#16364b" stroke="none">
<path d="M2310 5473 c-64 -23 -138 -171 -148 -296 -8 -115 43 -208 136 -244
60 -23 195 -23 341 1 57 9 105 15 108 12 2 -2 -31 -50 -75 -107 -43 -57 -101
-138 -129 -179 -47 -68 -168 -299 -207 -394 -21 -50 -20 -109 1 -149 10 -19
18 -55 18 -89 1 -71 22 -104 89 -137 l48 -24 221 51 c251 58 348 76 525 96
135 15 158 25 200 87 32 46 27 126 -9 165 -50 54 -72 57 -264 34 -96 -12 -249
-36 -342 -55 -92 -19 -169 -32 -171 -30 -2 2 19 48 47 102 50 97 93 166 222
353 202 291 236 425 133 522 -72 67 -172 80 -389 49 -199 -28 -187 -29 -169
14 44 106 -29 227 -136 224 -19 0 -42 -3 -50 -6z"/>
<path d="M3895 4991 c-70 -21 -176 -72 -223 -108 -92 -69 -80 -209 24 -258 49
-23 100 -15 164 24 56 34 156 71 195 71 24 0 25 -3 25 -58 0 -75 -38 -204
-106 -364 -57 -135 -62 -159 -40 -212 16 -39 46 -63 98 -77 32 -8 39 -15 48
-49 23 -87 104 -129 211 -110 91 17 298 40 354 40 67 0 93 -8 100 -31 9 -27
-20 -183 -62 -339 -48 -176 -51 -218 -23 -268 53 -93 180 -103 236 -17 8 13
45 126 81 252 65 222 66 231 67 348 1 100 -2 126 -18 155 -38 71 -77 109 -144
142 l-67 33 -215 -1 c-118 -1 -246 -6 -285 -12 -38 -5 -72 -8 -74 -6 -2 1 17
54 42 116 111 277 132 448 71 575 -29 60 -88 117 -153 146 -65 30 -222 34
-306 8z"/>
<path d="M1710 4964 c-203 -43 -416 -155 -523 -274 -76 -84 -76 -153 -2 -253
26 -34 55 -67 65 -74 11 -8 72 -20 137 -29 131 -17 248 -44 317 -74 25 -10 77
-48 115 -84 73 -68 110 -84 174 -72 40 7 85 48 104 94 22 53 10 112 -36 170
-82 104 -189 170 -349 215 -46 13 -83 28 -84 33 0 14 142 63 188 63 175 3 266
196 131 280 -41 25 -135 27 -237 5z"/>
<path d="M2049 3910 c-107 -36 -239 -59 -390 -69 -137 -8 -172 -24 -207 -91
-27 -52 -25 -121 4 -165 23 -35 84 -65 131 -65 51 0 293 35 423 61 213 42 275
68 300 129 17 40 8 125 -17 158 -56 74 -117 85 -244 42z"/>
<path d="M3745 3729 c-86 -14 -219 -74 -400 -180 -44 -26 -105 -60 -135 -77
-31 -17 -63 -44 -74 -62 -43 -73 -10 -175 68 -211 58 -26 74 -24 158 20 281
148 330 172 335 167 11 -11 -41 -143 -108 -275 -74 -145 -81 -176 -49 -228
l19 -32 -33 -16 c-115 -55 -121 -198 -12 -279 86 -64 471 52 676 205 75 55
186 166 224 223 85 127 -46 281 -187 222 -18 -7 -55 -37 -83 -66 -27 -29 -74
-72 -105 -95 -63 -50 -184 -118 -198 -113 -5 1 6 29 25 61 39 67 113 234 144
327 29 86 38 223 18 270 -45 107 -153 160 -283 139z"/>
<path d="M2325 3324 c-16 -2 -83 -9 -147 -15 -131 -13 -167 -28 -194 -81 -43
-81 -10 -186 70 -227 l47 -24 137 17 c75 9 163 16 195 16 56 0 57 0 57 -29 0
-16 -7 -48 -15 -71 -22 -61 -19 -136 5 -176 23 -36 91 -74 135 -74 16 0 48 9
72 21 53 26 84 75 114 183 55 204 -15 386 -170 442 -45 16 -235 27 -306 18z"/>
<path d="M4888 3088 c-49 -13 -116 -72 -139 -122 -14 -31 -19 -65 -19 -137 l0
-96 -122 -80 c-147 -96 -250 -194 -296 -280 -95 -180 -98 -433 -8 -612 34 -66
110 -148 165 -176 39 -20 42 -24 21 -25 -34 0 -115 -42 -170 -86 l-45 -37
-130 9 c-292 20 -426 4 -585 -72 -126 -59 -227 -147 -343 -296 -42 -54 -70
-81 -93 -88 -18 -6 -61 -36 -95 -67 -196 -174 -354 -119 -589 205 -63 87 -83
107 -127 129 -103 50 -218 16 -265 -78 -41 -78 -12 -162 109 -324 154 -206
352 -369 508 -417 137 -43 290 -26 436 47 67 34 206 138 230 173 8 10 30 26
49 36 51 24 58 31 143 138 84 106 150 162 242 205 66 30 121 33 405 23 142 -6
198 5 299 53 77 38 164 119 191 179 42 91 12 201 -66 245 -35 20 -37 23 -14
23 42 0 123 44 162 88 80 89 78 210 -4 315 -27 33 -33 50 -36 101 -5 88 13
110 137 176 227 122 299 192 343 333 31 102 22 299 -19 385 -27 56 -88 110
-146 127 -57 17 -76 17 -129 3z"/>
<path d="M1222 3047 c-87 -32 -142 -110 -142 -202 0 -49 4 -59 36 -94 19 -22
51 -45 70 -51 19 -6 35 -17 36 -23 1 -7 2 -167 3 -357 0 -325 2 -349 23 -421
43 -152 73 -198 156 -241 58 -30 150 -22 201 16 72 55 92 146 55 244 -29 76
-27 86 10 67 38 -20 103 -19 146 1 26 12 48 41 96 121 63 105 143 213 164 220
6 2 23 -21 38 -50 26 -54 26 -55 12 -123 -30 -141 -48 -262 -62 -413 -14 -155
-14 -156 9 -200 12 -25 34 -54 49 -64 39 -29 115 -33 158 -9 61 34 72 65 86
252 12 154 21 209 70 436 17 79 17 81 -3 125 -12 24 -23 65 -26 91 -10 100
-91 214 -186 260 -63 31 -166 31 -235 0 -109 -50 -208 -150 -318 -323 l-53
-84 -6 275 c-6 301 -13 341 -70 432 -54 83 -136 129 -233 127 -28 0 -66 -6
-84 -12z"/>
<path d="M3385 2293 c-99 -9 -533 -95 -651 -128 -99 -28 -159 -133 -134 -232
15 -63 49 -106 103 -132 58 -28 101 -27 264 10 212 47 398 79 509 86 l101 6 7
-28 c19 -77 94 -128 187 -128 68 0 122 24 162 75 24 30 30 49 34 105 7 90 -21
163 -87 236 -103 113 -253 152 -495 130z"/>
</g>
</svg>
