<?xml version="1.0" standalone="no"?>
<!DOCTYPE svg PUBLIC "-//W3C//DTD SVG 20010904//EN"
 "http://www.w3.org/TR/2001/REC-SVG-20010904/DTD/svg10.dtd">
<svg version="1.0" xmlns="http://www.w3.org/2000/svg"
 width="600.000000pt" height="600.000000pt" viewBox="0 0 600.000000 600.000000"
 preserveAspectRatio="xMidYMid meet">
<metadata>
Created by potrace 1.15, written by Peter Selinger 2001-2017
</metadata>
<g transform="translate(0.000000,600.000000) scale(0.100000,-0.100000)"
fill="#16364b" stroke="none">
<path d="M3170 5639 c-58 -23 -103 -97 -141 -234 -64 -232 40 -388 296 -442
44 -9 84 -20 88 -23 5 -4 -36 -31 -90 -60 -143 -77 -272 -166 -406 -281 -133
-113 -147 -135 -146 -231 1 -86 25 -137 82 -177 85 -58 160 -82 437 -141 80
-17 167 -37 194 -45 99 -30 169 -13 206 48 40 65 16 155 -51 196 -37 23 -206
70 -373 105 -65 14 -121 28 -124 31 -19 19 201 160 430 276 139 71 210 113
242 143 70 68 84 152 42 242 -45 96 -141 145 -366 189 -47 9 -109 23 -138 31
-51 14 -53 16 -47 44 4 16 20 63 36 105 35 92 36 121 6 166 -39 59 -114 83
-177 58z"/>
<path d="M1425 5406 c-162 -76 -364 -300 -460 -510 -40 -89 -85 -232 -110
-354 -19 -97 -11 -136 36 -176 67 -56 155 -55 222 3 37 33 127 60 296 91 131
23 171 25 171 8 0 -6 -34 -72 -76 -145 -88 -154 -123 -241 -131 -332 -4 -44
-14 -76 -30 -99 -46 -69 -24 -181 47 -229 63 -43 89 -36 375 108 156 78 271
142 287 159 32 35 52 100 43 141 -15 69 -96 119 -167 104 -16 -4 -61 -22 -99
-41 -37 -19 -71 -34 -74 -34 -3 0 28 64 68 143 100 196 117 282 77 391 -27 72
-98 139 -171 160 -90 27 -217 19 -393 -25 -44 -10 -81 -17 -84 -14 -8 8 68
146 113 205 53 69 116 127 187 173 30 19 64 48 75 63 58 83 21 190 -76 223
-49 16 -70 14 -126 -13z"/>
<path d="M4685 4466 c-119 -23 -367 -96 -397 -117 -87 -62 -74 -194 24 -245
39 -20 91 -17 209 11 57 14 112 27 122 29 9 2 17 0 17 -4 0 -18 -118 -182
-205 -285 -176 -208 -165 -191 -165 -251 0 -46 5 -58 31 -89 20 -23 47 -40 74
-47 l43 -11 -24 -45 c-28 -53 -30 -91 -8 -138 25 -52 54 -67 229 -117 180 -51
233 -71 241 -91 10 -27 -59 -147 -188 -325 -85 -117 -97 -154 -74 -216 24 -61
73 -95 139 -95 27 0 61 7 76 16 31 18 186 221 263 345 80 128 106 234 82 342
-20 97 -98 184 -210 237 -53 25 -259 93 -383 126 l-33 9 102 115 c247 278 370
489 370 635 0 169 -130 250 -335 211z"/>
<path d="M3813 3694 c-64 -32 -93 -121 -64 -197 6 -15 60 -79 121 -141 79 -82
110 -121 110 -139 0 -29 35 -83 73 -111 20 -14 43 -20 80 -20 93 0 150 61 149
159 0 67 -29 126 -103 214 -32 39 -65 85 -72 103 -18 41 -45 67 -121 112 -67
40 -119 46 -173 20z"/>
<path d="M2450 3640 c-123 -32 -283 -124 -332 -190 -31 -42 -34 -111 -8 -165
18 -38 32 -52 68 -67 60 -27 106 -19 187 33 75 47 166 86 215 91 34 3 35 2 38
-35 9 -105 -74 -306 -260 -635 -38 -67 -72 -137 -74 -155 -9 -56 30 -114 115
-171 101 -69 147 -72 286 -21 121 45 245 85 262 85 18 0 -7 -64 -102 -260 -92
-188 -98 -215 -66 -285 44 -96 153 -140 249 -100 64 28 89 59 193 250 125 231
171 469 117 612 -27 74 -103 151 -173 176 -73 25 -189 22 -300 -7 -49 -13 -91
-23 -93 -22 -1 2 14 41 34 87 156 361 163 587 22 714 -90 81 -225 104 -378 65z"/>
<path d="M1103 3415 c-95 -29 -287 -147 -336 -205 -60 -71 -60 -179 0 -251 56
-66 157 -87 235 -49 23 11 43 18 46 16 2 -2 -5 -37 -17 -78 -11 -40 -31 -129
-46 -198 -14 -69 -44 -204 -67 -300 -31 -133 -42 -203 -46 -291 -5 -126 3
-154 57 -212 35 -38 64 -52 149 -73 82 -20 132 -11 169 28 43 46 261 350 411
572 l155 229 15 -28 c27 -52 6 -202 -82 -590 -74 -331 -79 -462 -20 -582 38
-79 98 -116 176 -111 90 6 158 73 158 155 0 16 -13 55 -29 89 -29 59 -30 61
-21 157 9 95 15 124 84 447 58 276 67 436 30 560 -8 25 -14 64 -14 87 0 64
-19 143 -46 190 -35 60 -85 88 -159 87 -71 0 -122 -23 -177 -81 -49 -51 -298
-372 -350 -451 -23 -34 -43 -60 -45 -58 -2 2 24 114 58 247 59 236 61 248 63
379 1 121 -1 140 -22 185 -30 65 -56 93 -117 121 -57 27 -143 31 -212 9z"/>
<path d="M3710 3189 c-70 -14 -180 -73 -236 -127 -65 -65 -114 -155 -114 -214
0 -95 77 -163 176 -156 66 6 104 33 144 104 24 44 35 54 48 48 9 -4 44 -11 77
-17 167 -27 300 74 266 200 -23 83 -105 143 -221 162 -73 12 -78 12 -140 0z"/>
<path d="M4650 2211 c-101 -33 -180 -127 -180 -216 0 -25 5 -25 -130 1 -290
54 -439 30 -571 -93 -112 -104 -146 -197 -160 -428 -14 -234 -1 -224 -130
-101 -89 85 -126 114 -196 148 -85 42 -89 43 -187 43 -122 0 -159 -16 -251
-109 -63 -64 -109 -141 -156 -261 -15 -40 -29 -64 -32 -55 -3 8 -15 76 -27
150 -49 310 -105 450 -200 502 -50 27 -153 22 -199 -11 -70 -50 -90 -155 -46
-250 14 -29 34 -88 44 -130 19 -72 26 -118 67 -406 26 -184 52 -256 123 -336
82 -94 205 -150 331 -152 90 -2 146 22 180 79 19 29 23 50 22 107 -2 101 59
301 129 424 25 43 34 51 47 44 9 -5 68 -58 131 -117 147 -140 173 -161 249
-196 84 -40 159 -46 235 -20 76 27 151 84 183 137 13 24 31 46 39 48 7 3 25
25 39 49 28 49 42 134 52 331 7 127 7 129 33 139 18 6 91 6 228 -2 111 -6 228
-9 260 -5 224 25 348 154 361 376 8 152 -31 239 -131 290 -44 23 -120 32 -157
20z"/>
</g>
</svg>
