<?xml version="1.0" standalone="no"?>
<!DOCTYPE svg PUBLIC "-//W3C//DTD SVG 20010904//EN"
 "http://www.w3.org/TR/2001/REC-SVG-20010904/DTD/svg10.dtd">
<svg version="1.0" xmlns="http://www.w3.org/2000/svg"
 width="600.000000pt" height="600.000000pt" viewBox="0 0 600.000000 600.000000"
 preserveAspectRatio="xMidYMid meet">
<metadata>
Created by potrace 1.15, written by Peter Selinger 2001-2017
</metadata>
<g transform="translate(0.000000,600.000000) scale(0.100000,-0.100000)"
fill="#16364b" stroke="none">
<path d="M2169 5817 c-14 -8 -52 -41 -85 -73 -32 -33 -108 -106 -169 -163
-394 -372 -437 -424 -443 -531 -2 -53 1 -72 20 -105 30 -52 94 -85 163 -85 97
0 304 62 590 177 220 89 279 119 313 158 77 87 42 215 -66 245 -53 14 -76 8
-267 -70 -81 -33 -149 -59 -151 -57 -3 3 152 145 249 228 47 40 67 77 67 124
0 108 -131 198 -221 152z"/>
<path d="M3049 5677 c-44 -29 -69 -80 -69 -139 0 -57 15 -92 47 -113 13 -9 77
-34 141 -56 196 -67 308 -142 353 -237 33 -66 33 -188 1 -254 -32 -65 -100
-123 -190 -164 -137 -62 -146 -68 -166 -117 -26 -62 -16 -110 34 -159 32 -33
44 -38 83 -38 52 0 104 17 205 68 268 134 416 473 323 739 -73 210 -264 369
-554 462 -117 37 -162 39 -208 8z"/>
<path d="M940 5337 c-118 -42 -195 -102 -260 -202 -103 -158 -108 -344 -13
-515 42 -75 179 -218 235 -243 83 -39 185 -8 219 66 10 23 19 53 19 67 0 44
-36 105 -81 140 -62 47 -97 87 -125 145 -27 58 -30 82 -10 129 19 46 50 73
130 112 87 42 101 56 122 110 29 77 -5 161 -79 194 -54 25 -78 25 -157 -3z"/>
<path d="M2730 4966 c-139 -39 -248 -157 -279 -304 -15 -70 -14 -107 4 -175
44 -169 186 -270 400 -283 65 -4 87 -2 115 13 104 55 107 205 5 264 -17 10
-58 22 -92 28 -115 18 -157 59 -129 126 16 38 31 48 103 65 107 25 146 121 84
207 -31 42 -91 74 -139 72 -15 0 -47 -6 -72 -13z"/>
<path d="M4792 4913 c-18 -8 -50 -33 -71 -54 -31 -29 -41 -48 -47 -85 -10 -68
10 -212 42 -291 118 -299 360 -409 529 -240 191 191 48 527 -282 663 -68 27
-125 30 -171 7z"/>
<path d="M1861 4514 c-74 -20 -142 -59 -196 -112 -59 -58 -77 -94 -77 -152 0
-76 39 -133 105 -151 55 -15 94 -3 146 46 87 80 116 84 184 20 51 -47 93 -62
153 -52 85 14 138 99 115 183 -22 82 -142 186 -250 218 -66 19 -109 19 -180 0z"/>
<path d="M2755 3885 c-21 -9 -49 -25 -62 -37 -33 -31 -57 -100 -49 -143 9 -45
67 -112 107 -120 25 -6 29 -11 29 -40 0 -80 -62 -226 -175 -415 -35 -58 -67
-122 -70 -142 -19 -103 71 -184 181 -163 119 22 338 425 375 692 23 168 -29
296 -145 355 -52 26 -139 32 -191 13z"/>
<path d="M1150 3794 c-88 -19 -239 -72 -273 -96 -40 -29 -67 -88 -67 -148 0
-62 16 -95 68 -142 51 -46 100 -62 163 -54 l50 7 -16 -38 c-9 -20 -41 -85 -72
-143 -205 -388 -258 -498 -308 -647 -41 -122 -29 -209 37 -270 53 -50 146 -67
211 -39 43 18 212 167 557 492 36 34 103 96 150 139 l85 77 3 -34 c3 -32 -13
-97 -122 -511 -71 -267 -105 -359 -188 -500 -34 -59 -42 -81 -42 -122 0 -99
78 -172 174 -163 70 7 102 35 148 132 129 267 204 506 332 1057 31 132 26 327
-9 406 -40 91 -118 143 -211 143 -76 0 -188 -76 -380 -258 -52 -49 -96 -89
-98 -87 -2 2 24 56 57 121 116 229 160 383 140 488 -11 62 -30 96 -78 139 -70
63 -175 81 -311 51z"/>
<path d="M4295 3790 c-229 -36 -369 -167 -368 -346 1 -148 108 -275 256 -303
145 -27 305 62 395 220 48 84 102 237 102 288 0 56 -29 104 -77 126 -43 21
-216 29 -308 15z m-8 -325 c-33 -29 -79 -36 -56 -9 15 18 46 33 69 33 10 0 5
-8 -13 -24z"/>
<path d="M3515 3376 c-133 -41 -228 -184 -249 -371 -9 -80 19 -138 85 -173 39
-21 53 -23 124 -19 136 9 240 61 312 155 108 142 39 356 -131 407 -59 18 -87
18 -141 1z"/>
<path d="M4884 2820 c-23 -9 -183 -169 -233 -234 -66 -84 -108 -210 -95 -285
19 -106 115 -182 229 -183 201 -2 365 209 365 468 0 75 -20 117 -89 186 -56
55 -62 58 -108 57 -26 0 -57 -4 -69 -9z"/>
<path d="M4160 2474 c-71 -31 -124 -100 -140 -183 -7 -40 -5 -76 10 -163 11
-62 18 -113 17 -115 -2 -1 -37 12 -78 29 -99 42 -205 50 -272 20 -68 -30 -148
-111 -187 -187 -47 -93 -51 -180 -15 -335 14 -63 39 -184 55 -269 35 -182 53
-216 137 -257 46 -23 62 -26 110 -21 115 12 203 102 211 216 3 43 -4 87 -27
175 -18 65 -30 120 -28 123 7 6 60 -19 90 -44 16 -13 53 -30 84 -39 51 -15 61
-15 127 1 151 36 243 108 286 223 20 51 22 71 17 192 -4 119 -11 156 -51 314
-50 191 -63 225 -105 269 -59 64 -161 86 -241 51z"/>
<path d="M2865 2297 c-38 -13 -99 -39 -135 -57 -86 -43 -390 -209 -414 -226
-16 -11 -25 -10 -54 1 -56 24 -140 19 -200 -11 -70 -35 -166 -140 -188 -206
-40 -122 39 -248 156 -248 l46 0 13 -77 c7 -42 15 -81 17 -87 2 -6 -22 -24
-55 -40 -72 -34 -157 -119 -195 -194 -59 -117 -57 -299 5 -428 33 -71 123
-189 187 -246 115 -104 295 -216 405 -252 210 -70 437 -17 678 159 124 90 116
267 -15 326 -46 21 -101 24 -142 9 -15 -6 -58 -31 -94 -55 -99 -66 -151 -85
-229 -85 -183 0 -346 102 -430 268 -29 58 -26 136 5 140 20 3 99 -42 160 -93
113 -91 257 -66 318 56 50 101 31 178 -67 273 -85 83 -128 173 -166 349 -25
116 -25 107 -5 107 9 0 91 41 184 90 169 92 308 156 317 147 15 -16 -103 -361
-173 -501 -59 -121 -65 -156 -35 -221 33 -71 102 -115 180 -115 86 0 137 41
211 170 82 144 133 278 195 514 45 176 51 228 31 307 -24 95 -76 165 -155 208
-61 33 -71 35 -175 38 -95 3 -121 0 -181 -20z"/>
</g>
</svg>
