<?xml version="1.0" standalone="no"?>
<!DOCTYPE svg PUBLIC "-//W3C//DTD SVG 20010904//EN"
 "http://www.w3.org/TR/2001/REC-SVG-20010904/DTD/svg10.dtd">
<svg version="1.0" xmlns="http://www.w3.org/2000/svg"
 width="600.000000pt" height="600.000000pt" viewBox="0 0 600.000000 600.000000"
 preserveAspectRatio="xMidYMid meet">
<metadata>
Created by potrace 1.15, written by Peter Selinger 2001-2017
</metadata>
<g transform="translate(0.000000,600.000000) scale(0.100000,-0.100000)"
fill="#16364b" stroke="none">
<path d="M2230 5428 c-36 -19 -50 -34 -72 -79 -69 -141 -58 -268 30 -358 69
-72 133 -84 325 -60 49 6 90 9 93 7 2 -2 -29 -56 -68 -119 -132 -211 -229
-453 -214 -533 16 -84 90 -137 169 -122 62 12 91 49 146 184 28 69 94 200 152
299 57 97 114 206 127 243 48 132 25 233 -70 297 -79 52 -176 61 -381 36 l-48
-6 11 27 c34 91 -21 183 -120 201 -26 4 -47 0 -80 -17z"/>
<path d="M3763 5196 c-72 -18 -163 -66 -186 -97 -31 -42 -33 -109 -7 -164 38
-78 113 -96 212 -50 67 31 134 34 143 5 14 -45 -26 -193 -93 -347 -38 -85 -40
-128 -9 -173 47 -71 154 -98 215 -54 53 39 140 242 178 413 23 103 16 229 -16
296 -32 65 -89 121 -157 152 -67 31 -199 40 -280 19z"/>
<path d="M1713 4916 c-108 -25 -449 -206 -510 -271 -29 -30 -33 -41 -33 -90 0
-46 4 -59 30 -88 16 -19 42 -40 58 -46 20 -8 32 -25 45 -61 27 -75 64 -95 212
-115 200 -27 332 -66 434 -128 70 -43 101 -50 151 -37 114 31 156 157 81 243
-62 70 -283 167 -451 197 -110 20 -113 24 -45 50 56 21 101 27 264 30 34 0 97
67 110 118 22 79 -16 156 -90 186 -58 23 -180 29 -256 12z"/>
<path d="M3132 4335 c-143 -40 -464 -145 -571 -186 -41 -16 -87 -41 -103 -56
-60 -58 -57 -155 7 -212 57 -50 83 -49 235 7 74 28 223 76 330 107 107 32 227
67 265 78 81 24 118 55 136 115 10 35 9 48 -5 87 -38 98 -108 113 -294 60z"/>
<path d="M4300 4280 c-125 -10 -170 -49 -170 -145 0 -56 19 -96 62 -127 30
-21 40 -22 123 -18 155 9 289 5 313 -8 20 -12 22 -20 22 -94 0 -50 -10 -128
-27 -207 -43 -200 -37 -242 47 -298 63 -43 162 -23 204 42 24 37 73 255 86
382 40 391 -138 519 -660 473z"/>
<path d="M2095 3869 c-132 -42 -275 -69 -405 -78 -130 -8 -170 -24 -195 -77
-36 -76 -1 -184 69 -218 45 -21 182 -21 306 0 128 22 388 87 433 109 104 49
109 204 7 272 -44 31 -102 29 -215 -8z"/>
<path d="M3650 3734 c-64 -22 -441 -208 -537 -266 -38 -23 -69 -70 -78 -120
-5 -28 -2 -48 14 -81 42 -88 129 -100 237 -34 75 45 357 187 362 182 2 -2 -15
-43 -37 -91 -47 -100 -53 -159 -21 -212 42 -69 132 -92 198 -52 36 22 65 77
142 275 69 178 67 295 -7 369 -61 62 -149 72 -273 30z"/>
<path d="M2034 3251 c-98 -44 -130 -180 -64 -264 35 -44 74 -50 236 -38 79 6
163 8 185 5 36 -6 40 -9 34 -28 -4 -12 -9 -48 -12 -81 -3 -48 0 -66 16 -93 30
-46 77 -72 134 -72 84 0 129 36 157 128 55 176 -1 332 -143 402 -92 45 -179
60 -352 60 -125 0 -157 -4 -191 -19z"/>
<path d="M4929 3236 c-55 -19 -96 -53 -123 -99 -32 -57 -39 -104 -25 -181 15
-80 5 -109 -54 -157 -86 -70 -211 -196 -252 -254 -59 -84 -119 -197 -146 -280
-34 -101 -34 -272 0 -366 33 -93 78 -151 142 -183 180 -89 378 62 322 246 -9
29 -17 82 -17 118 0 99 31 158 134 250 231 206 277 263 319 388 39 116 35 297
-8 397 -20 45 -78 101 -127 121 -41 17 -117 17 -165 0z"/>
<path d="M4265 3175 c-23 -8 -61 -37 -90 -68 -67 -71 -124 -115 -221 -171
-105 -61 -202 -93 -346 -115 -125 -19 -158 -34 -188 -84 -42 -68 -15 -157 60
-201 90 -53 444 9 630 111 131 71 293 213 351 308 24 39 25 117 2 157 -37 62
-125 90 -198 63z"/>
<path d="M1250 3035 c-76 -35 -113 -92 -113 -176 0 -59 20 -105 64 -145 12
-10 26 -30 31 -44 5 -14 14 -133 19 -265 16 -401 59 -606 151 -711 100 -114
299 -69 338 78 13 46 9 66 -26 155 -38 97 -53 199 -69 463 -7 135 -21 281 -30
325 -19 94 -60 187 -103 236 -67 77 -190 116 -262 84z"/>
<path d="M2050 2533 c-68 -23 -141 -76 -217 -157 -139 -146 -165 -210 -121
-296 26 -51 84 -90 136 -90 58 0 96 24 144 91 46 65 129 149 148 149 5 0 19
-18 29 -39 11 -21 32 -48 47 -59 l27 -19 -30 -94 c-46 -140 -56 -201 -57 -339
0 -280 52 -377 196 -367 65 4 100 28 125 86 12 29 12 53 2 161 -15 153 -4 252
42 370 38 98 38 145 0 198 -17 22 -39 43 -50 47 -18 5 -19 12 -14 56 5 43 1
59 -31 123 -79 161 -227 231 -376 179z"/>
<path d="M3471 2209 c-30 -5 -111 -22 -180 -38 -69 -16 -205 -43 -301 -61 -96
-17 -189 -36 -207 -41 -105 -33 -154 -159 -102 -266 46 -95 103 -112 273 -84
259 44 633 102 698 108 67 6 70 5 101 -25 132 -127 327 -48 327 133 0 106 -80
210 -196 255 -51 20 -80 24 -209 26 -82 2 -174 -2 -204 -7z"/>
<path d="M4495 1581 c-16 -10 -48 -38 -70 -61 -71 -75 -94 -82 -338 -105 -269
-26 -433 -71 -591 -164 -96 -56 -260 -208 -278 -257 -9 -26 -18 -34 -38 -34
-35 -1 -97 -30 -158 -77 -68 -51 -132 -73 -212 -73 -86 0 -177 43 -280 133
-68 58 -152 148 -173 183 -4 8 -27 25 -51 39 -153 90 -327 -20 -302 -189 9
-59 46 -108 180 -242 199 -198 379 -293 591 -311 194 -16 498 117 592 258 21
33 31 39 60 39 44 0 87 22 143 74 62 58 160 123 236 157 88 40 177 57 357 69
84 5 179 17 212 25 139 36 288 130 366 231 38 50 44 63 47 118 4 56 1 65 -30
110 -43 64 -103 96 -178 96 -36 0 -65 -6 -85 -19z"/>
</g>
</svg>
