<?xml version="1.0" standalone="no"?>
<!DOCTYPE svg PUBLIC "-//W3C//DTD SVG 20010904//EN"
 "http://www.w3.org/TR/2001/REC-SVG-20010904/DTD/svg10.dtd">
<svg version="1.0" xmlns="http://www.w3.org/2000/svg"
 width="600.000000pt" height="600.000000pt" viewBox="0 0 600.000000 600.000000"
 preserveAspectRatio="xMidYMid meet">
<metadata>
Created by potrace 1.15, written by Peter Selinger 2001-2017
</metadata>
<g transform="translate(0.000000,600.000000) scale(0.100000,-0.100000)"
fill="#16364b" stroke="none">
<path d="M2914 5581 c-41 -25 -64 -55 -112 -148 -59 -116 -75 -174 -70 -252 8
-109 56 -179 153 -222 42 -19 74 -24 192 -28 l143 -6 -63 -50 c-102 -82 -497
-484 -514 -523 -24 -58 -10 -112 44 -172 25 -28 55 -56 66 -62 46 -24 202 -60
427 -98 129 -21 264 -48 300 -59 78 -25 121 -26 161 -6 94 49 92 213 -4 258
-42 20 -126 41 -267 67 -197 36 -325 62 -333 67 -20 12 167 177 383 338 80 59
158 120 173 134 129 118 62 322 -130 394 -53 20 -73 22 -245 20 -172 -2 -188
-1 -188 15 0 9 18 55 40 102 43 92 48 122 26 174 -30 72 -114 98 -182 57z"/>
<path d="M1535 5318 c-141 -51 -327 -248 -497 -526 -162 -267 -158 -415 14
-462 36 -10 96 -3 358 43 47 9 105 18 129 22 l44 6 -6 -36 c-3 -19 -40 -121
-82 -226 -62 -154 -76 -199 -74 -235 3 -41 0 -46 -29 -64 -90 -55 -95 -176
-10 -228 77 -46 111 -41 378 65 210 83 334 146 361 185 63 89 11 209 -104 239
l-47 13 -100 -52 c-59 -31 -100 -47 -100 -40 0 7 14 46 30 86 88 217 105 346
57 444 -60 122 -205 169 -422 135 -49 -8 -92 -13 -94 -11 -2 2 16 34 40 71 61
95 190 221 267 261 34 19 72 43 82 55 69 73 25 207 -82 251 -43 18 -70 19
-113 4z"/>
<path d="M4445 4540 c-70 -19 -333 -113 -368 -131 -32 -18 -57 -71 -57 -123 0
-43 4 -53 38 -86 60 -61 85 -61 267 -1 154 51 185 58 185 44 -1 -12 -94 -185
-208 -388 -88 -155 -102 -185 -102 -225 0 -53 20 -87 75 -129 22 -17 51 -40
65 -51 19 -15 86 -32 270 -66 135 -25 249 -49 253 -53 5 -5 -50 -126 -122
-270 -140 -278 -149 -308 -116 -372 36 -68 133 -89 210 -46 46 26 88 92 210
332 105 205 130 277 130 375 0 88 -22 137 -81 190 -67 58 -162 89 -404 130
-68 12 -126 22 -127 24 -2 1 34 63 78 137 153 255 199 364 199 476 -1 198
-165 295 -395 233z"/>
<path d="M3746 3646 c-61 -23 -89 -47 -119 -107 -88 -169 67 -332 213 -224 19
14 38 25 43 25 18 0 -3 -94 -34 -156 -24 -48 -36 -63 -57 -67 -161 -32 -369
-192 -387 -296 -15 -87 58 -171 149 -171 53 0 82 15 144 74 84 79 128 97 284
117 100 12 143 36 169 93 23 50 24 84 3 135 -14 36 -14 43 4 103 71 228 6 386
-187 458 -74 28 -174 35 -225 16z"/>
<path d="M2465 3576 c-133 -27 -339 -127 -390 -191 -26 -31 -30 -45 -30 -94 0
-73 33 -121 101 -147 55 -21 71 -17 214 46 103 46 216 72 258 61 25 -7 27 -11
24 -55 -5 -81 -54 -210 -153 -408 -32 -65 -59 -131 -59 -147 0 -38 16 -80 40
-106 19 -21 19 -21 -7 -58 -58 -82 -35 -209 48 -264 61 -40 108 -40 239 1 146
45 300 86 324 86 26 0 18 -31 -41 -166 -58 -134 -65 -206 -23 -268 59 -87 187
-110 273 -49 47 32 86 111 151 303 83 247 70 402 -41 500 -63 55 -127 74 -243
73 -93 0 -257 -28 -343 -58 -23 -8 -43 -12 -46 -10 -2 3 21 58 52 122 146 307
178 513 102 662 -71 140 -251 207 -450 167z"/>
<path d="M1111 3310 c-101 -37 -250 -150 -281 -215 -69 -142 53 -312 197 -276
25 7 47 11 48 9 2 -2 -15 -88 -36 -193 -52 -256 -63 -361 -56 -530 13 -315 79
-403 299 -396 44 2 89 51 160 179 37 66 101 168 141 228 92 137 306 424 316
424 14 0 41 -96 41 -145 0 -83 -19 -212 -51 -350 -108 -461 -107 -589 2 -662
75 -50 172 -26 216 53 18 31 23 55 23 115 0 47 13 141 34 245 61 295 79 449
73 614 -3 97 -10 159 -20 187 -9 24 -24 73 -33 110 -52 212 -190 302 -349 228
-66 -31 -173 -149 -290 -323 -60 -89 -111 -158 -113 -152 -2 5 4 71 13 147 9
76 19 211 22 301 5 136 3 172 -12 227 -20 76 -77 148 -140 176 -52 24 -135 24
-204 -1z"/>
<path d="M4730 2414 c-82 -36 -143 -109 -156 -190 l-6 -41 -192 -6 c-208 -5
-255 -14 -359 -70 -32 -17 -80 -54 -107 -84 -86 -94 -114 -210 -115 -465 0
-93 -2 -168 -4 -168 -2 0 -28 18 -57 40 -160 121 -333 169 -469 131 -107 -29
-256 -154 -347 -291 -27 -41 -87 -151 -133 -244 -45 -92 -85 -163 -89 -158
-18 30 -43 121 -102 377 -35 154 -72 298 -81 319 -34 77 -133 120 -222 96 -56
-15 -116 -70 -137 -127 -21 -55 -23 -45 81 -452 85 -334 120 -422 204 -509 75
-78 143 -107 251 -106 124 1 185 27 276 118 53 53 83 94 114 156 86 171 242
411 276 424 33 13 53 4 136 -63 187 -150 238 -174 373 -175 77 -1 98 3 146 25
70 33 134 90 161 143 12 23 35 58 53 79 61 71 65 118 30 385 -15 113 -16 145
-6 155 9 9 77 12 259 12 236 0 250 1 307 24 82 32 164 115 195 197 59 157 47
338 -28 418 -58 61 -173 84 -252 50z"/>
</g>
</svg>
