<?xml version="1.0" standalone="no"?>
<!DOCTYPE svg PUBLIC "-//W3C//DTD SVG 20010904//EN"
 "http://www.w3.org/TR/2001/REC-SVG-20010904/DTD/svg10.dtd">
<svg version="1.0" xmlns="http://www.w3.org/2000/svg"
 width="600.000000pt" height="600.000000pt" viewBox="0 0 600.000000 600.000000"
 preserveAspectRatio="xMidYMid meet">
<metadata>
Created by potrace 1.15, written by Peter Selinger 2001-2017
</metadata>
<g transform="translate(0.000000,600.000000) scale(0.100000,-0.100000)"
fill="#16364b" stroke="none">
<path d="M2377 5402 c-14 -15 -17 -42 -17 -161 0 -422 -70 -597 -283 -706 -44
-22 -83 -48 -88 -57 -25 -46 6 -108 54 -108 34 0 195 82 244 124 142 123 203
335 203 702 0 172 -2 193 -18 207 -25 22 -75 21 -95 -1z"/>
<path d="M3528 5280 c-21 -13 -48 -66 -48 -94 0 -36 57 -143 101 -190 75 -82
148 -115 204 -92 42 18 59 63 45 116 -14 52 -99 180 -146 218 -54 45 -120 63
-156 42z"/>
<path d="M3005 5081 c-80 -36 -136 -129 -142 -236 -5 -84 16 -127 74 -151 100
-42 242 75 274 225 29 135 -79 220 -206 162z m85 -126 c0 -27 -38 -92 -67
-115 l-28 -22 -3 21 c-4 25 40 105 66 120 24 15 32 13 32 -4z"/>
<path d="M4750 4732 c-25 -26 -29 -37 -35 -127 -9 -117 0 -286 19 -366 26
-113 82 -179 150 -179 177 0 205 309 53 582 -65 117 -129 147 -187 90z"/>
<path d="M2660 4223 c-107 -44 -127 -159 -42 -235 20 -17 66 -45 102 -62 60
-29 73 -31 170 -31 93 0 112 3 162 27 88 41 119 105 81 168 -21 36 -32 41
-180 90 -120 40 -255 60 -293 43z"/>
<path d="M5280 3991 c-64 -9 -145 -42 -178 -74 -148 -138 -90 -467 99 -562
126 -65 324 -25 419 82 63 72 83 125 84 223 1 77 -2 92 -32 152 -37 75 -69
106 -154 149 -66 33 -144 43 -238 30z m113 -310 c8 -8 -38 -51 -54 -51 -11 0
-29 34 -29 55 0 14 6 16 38 10 20 -3 41 -10 45 -14z"/>
<path d="M4230 3769 c-162 -32 -279 -174 -267 -325 9 -116 94 -232 194 -265
47 -15 159 -7 205 15 65 31 125 93 160 164 29 59 33 78 36 165 6 161 -32 210
-184 242 -77 16 -81 16 -144 4z m60 -283 c0 -8 -7 -22 -16 -30 -34 -35 -60
-10 -27 26 19 22 43 24 43 4z"/>
<path d="M1145 3496 c-209 -51 -304 -203 -251 -401 47 -178 169 -278 374 -306
39 -6 87 -16 105 -24 73 -30 143 -136 187 -285 39 -132 119 -431 151 -565 85
-359 179 -527 369 -655 143 -97 262 -129 505 -136 94 -2 321 -14 505 -25 463
-29 652 -20 1055 47 268 44 429 92 562 166 254 141 409 307 479 514 67 200 39
537 -62 738 -73 145 -157 230 -289 296 -129 63 -220 85 -360 84 -144 0 -207
-15 -350 -83 -90 -43 -154 -83 -432 -273 -97 -67 -169 -95 -275 -109 -113 -16
-195 5 -361 90 -448 230 -507 266 -797 492 -276 214 -431 316 -570 374 -153
64 -413 93 -545 61z m243 -341 c53 -13 122 -33 153 -43 160 -56 384 -195 664
-411 190 -148 292 -215 523 -345 266 -150 351 -184 519 -206 118 -15 239 -1
360 41 113 39 198 85 408 222 94 61 201 125 239 143 196 94 382 78 503 -45
101 -102 136 -194 137 -361 0 -131 -14 -194 -71 -302 -49 -93 -124 -161 -268
-241 -264 -146 -485 -181 -1130 -181 -604 -1 -970 10 -1035 30 -86 26 -142 58
-192 112 -77 82 -120 189 -163 402 -30 155 -104 455 -141 580 -37 121 -70 195
-120 272 -96 145 -229 232 -407 268 -103 21 -126 29 -146 54 -35 42 29 47 167
11z"/>
<path d="M2230 2337 c-36 -18 -39 -69 -6 -102 31 -31 70 -32 90 -3 21 29 20
61 -1 86 -24 27 -53 34 -83 19z"/>
<path d="M2855 2048 c-21 -19 -26 -29 -21 -46 18 -56 86 -81 119 -44 36 39 13
93 -44 107 -19 5 -33 0 -54 -17z"/>
<path d="M3411 3312 c-63 -65 -157 -247 -147 -285 8 -33 62 -63 97 -54 52 14
156 139 191 229 27 71 24 101 -13 132 -46 39 -75 34 -128 -22z"/>
<path d="M459 2029 c-39 -39 -19 -77 114 -211 48 -49 107 -79 159 -81 33 -1
45 4 64 26 13 16 24 35 24 44 0 57 -79 130 -222 205 -84 43 -109 47 -139 17z"/>
<path d="M5357 1099 c-39 -23 -84 -161 -73 -224 8 -42 57 -85 97 -85 82 0 132
70 133 188 1 71 0 75 -32 103 -34 31 -89 39 -125 18z"/>
</g>
</svg>
