<?xml version="1.0" standalone="no"?>
<!DOCTYPE svg PUBLIC "-//W3C//DTD SVG 20010904//EN"
 "http://www.w3.org/TR/2001/REC-SVG-20010904/DTD/svg10.dtd">
<svg version="1.0" xmlns="http://www.w3.org/2000/svg"
 width="600.000000pt" height="600.000000pt" viewBox="0 0 600.000000 600.000000"
 preserveAspectRatio="xMidYMid meet">
<metadata>
Created by potrace 1.15, written by Peter Selinger 2001-2017
</metadata>
<g transform="translate(0.000000,600.000000) scale(0.100000,-0.100000)"
fill="#16364b" stroke="none">
<path d="M1950 4911 c-80 -25 -158 -100 -184 -178 -22 -63 -20 -169 4 -262 26
-103 38 -247 50 -616 5 -170 15 -398 21 -505 8 -139 8 -285 0 -506 l-10 -311
-55 -164 c-61 -185 -148 -501 -145 -527 1 -9 -1 -25 -6 -35 -4 -10 -2 -23 4
-31 6 -7 10 -24 9 -37 -3 -20 2 -24 22 -24 14 0 28 -7 32 -18 13 -31 37 -18
67 35 20 35 27 56 20 64 -6 7 -4 23 5 45 7 19 24 76 37 127 13 50 27 92 30 92
4 0 10 -26 14 -57 20 -165 83 -332 173 -464 123 -179 249 -269 433 -307 l84
-17 -5 -35 c-3 -19 -5 -91 -4 -160 1 -135 20 -229 89 -448 19 -59 35 -110 35
-114 0 -3 -47 -8 -104 -10 -94 -3 -107 -5 -130 -27 -55 -51 -38 -126 34 -155
114 -45 299 5 345 94 21 40 19 119 -5 182 -62 170 -110 393 -110 512 1 69 12
151 23 162 2 3 51 0 108 -5 434 -44 753 -58 831 -38 l26 7 -5 -118 c-7 -142
14 -253 84 -454 24 -72 42 -133 38 -136 -4 -4 -49 -7 -102 -7 -94 0 -95 0
-124 -33 -83 -93 13 -189 168 -168 179 25 263 132 207 264 -63 148 -113 328
-129 462 -6 47 14 193 28 206 2 2 57 11 123 20 340 45 441 73 556 152 100 69
185 204 224 357 27 107 25 295 -4 403 -28 104 -78 211 -135 288 -62 85 -62 86
-33 74 39 -15 66 -34 66 -47 0 -22 39 -34 103 -31 61 3 62 3 63 33 1 17 5 44
9 61 6 29 4 32 -36 54 -24 12 -50 31 -57 42 -8 11 -20 17 -28 14 -7 -3 -46 11
-85 30 -142 71 -355 147 -535 193 -83 21 -253 110 -534 279 -137 82 -401 259
-494 330 -166 127 -293 299 -423 572 -23 47 -89 184 -148 305 -59 121 -124
261 -144 311 -21 51 -55 115 -75 143 -79 107 -213 163 -316 132z m146 -163
c43 -29 87 -99 117 -183 14 -38 41 -101 60 -140 18 -38 54 -115 78 -170 171
-387 337 -663 489 -815 45 -46 155 -132 275 -216 260 -183 335 -231 540 -344
94 -52 188 -105 210 -119 22 -14 83 -47 135 -74 322 -167 396 -224 505 -387
82 -124 132 -299 120 -425 -19 -195 -110 -349 -248 -415 -59 -29 -117 -39
-527 -96 -348 -47 -409 -48 -905 -13 -77 6 -168 10 -202 9 -92 -1 -261 18
-318 37 -126 41 -226 140 -305 298 -55 113 -83 207 -107 375 -14 96 -17 208
-19 680 0 311 -4 603 -8 650 -3 47 -9 245 -11 440 -6 371 -19 533 -55 674 -33
129 -24 188 36 235 36 28 98 28 140 -1z m-389 -2974 c-3 -3 -12 -4 -19 -1 -8
3 -5 6 6 6 11 1 17 -2 13 -5z"/>
<path d="M2577 2712 c-30 -33 -17 -75 30 -100 30 -17 39 -15 63 10 25 27 26
70 2 91 -25 22 -75 21 -95 -1z"/>
<path d="M3060 2563 c-21 -7 -40 -34 -40 -54 0 -10 12 -31 26 -48 35 -42 77
-43 99 -1 19 38 19 53 -2 78 -19 23 -58 34 -83 25z"/>
<path d="M5270 3986 c-108 -29 -177 -81 -221 -167 -81 -159 -1 -377 168 -461
40 -19 64 -23 138 -23 80 0 97 3 157 32 79 37 144 99 179 168 34 71 35 208 1
277 -32 64 -90 120 -165 157 -54 27 -73 31 -137 30 -41 0 -95 -6 -120 -13z
m118 -292 c37 -10 23 -48 -22 -56 -13 -2 -24 5 -32 21 -20 39 -2 50 54 35z"/>
<path d="M5312 1106 c-31 -27 -62 -107 -62 -163 0 -75 53 -133 120 -133 43 0
94 52 110 111 14 50 8 136 -11 167 -30 47 -110 56 -157 18z"/>
</g>
</svg>
