<?xml version="1.0" standalone="no"?>
<!DOCTYPE svg PUBLIC "-//W3C//DTD SVG 20010904//EN"
 "http://www.w3.org/TR/2001/REC-SVG-20010904/DTD/svg10.dtd">
<svg version="1.0" xmlns="http://www.w3.org/2000/svg"
 width="600.000000pt" height="600.000000pt" viewBox="0 0 600.000000 600.000000"
 preserveAspectRatio="xMidYMid meet">
<metadata>
Created by potrace 1.15, written by Peter Selinger 2001-2017
</metadata>
<g transform="translate(0.000000,600.000000) scale(0.100000,-0.100000)"
fill="#16364b" stroke="none">
<path d="M1560 5783 c-29 -11 -365 -195 -403 -221 -62 -41 -82 -99 -55 -157
28 -62 112 -69 338 -30 313 55 340 66 340 145 0 58 -34 90 -93 90 l-44 0 19
39 c22 45 17 79 -15 109 -24 23 -64 34 -87 25z"/>
<path d="M2370 5427 c-42 -21 -50 -51 -50 -197 0 -166 -14 -289 -47 -400 -45
-157 -101 -228 -236 -300 -42 -23 -82 -50 -87 -60 -28 -53 6 -125 64 -135 39
-8 105 22 202 90 143 102 236 257 286 478 16 75 20 125 20 264 -1 200 -10 235
-66 258 -43 18 -54 18 -86 2z"/>
<path d="M3522 5294 c-29 -20 -52 -65 -52 -101 0 -116 131 -282 246 -312 84
-22 157 28 157 108 0 49 -15 87 -66 168 -45 73 -93 114 -160 137 -60 20 -96
20 -125 0z"/>
<path d="M3015 5121 c-46 -21 -115 -92 -143 -148 -27 -53 -47 -151 -39 -193
24 -126 136 -153 272 -65 29 18 60 44 69 57 26 36 56 145 56 202 0 129 -102
199 -215 147z m25 -231 c-6 -12 -14 -19 -17 -17 -2 3 1 15 7 27 6 12 14 19 17
17 2 -3 -1 -15 -7 -27z"/>
<path d="M4774 4750 c-48 -19 -54 -43 -54 -220 0 -250 34 -364 128 -437 142
-108 317 13 315 219 -1 119 -58 218 -202 348 -104 95 -136 111 -187 90z"/>
<path d="M2655 4231 c-75 -20 -112 -51 -144 -121 -56 -123 12 -256 158 -311
86 -32 205 -25 291 18 83 41 175 128 191 181 16 53 4 105 -30 140 -57 57 -368
119 -466 93z"/>
<path d="M1104 4111 c-41 -25 -57 -71 -43 -124 14 -52 46 -80 116 -100 32 -9
67 -23 78 -31 19 -15 19 -15 -12 -16 -18 0 -56 9 -85 20 -29 11 -64 20 -78 20
-37 0 -85 -33 -103 -73 -58 -122 46 -209 253 -211 89 0 99 2 165 34 106 53
166 147 149 235 -16 88 -130 190 -262 234 -96 33 -141 36 -178 12z"/>
<path d="M5200 3782 c-119 -31 -209 -103 -252 -200 -25 -56 -29 -165 -10 -232
33 -113 137 -211 241 -226 101 -15 245 31 314 102 65 66 90 126 95 227 4 83 3
91 -28 153 -23 48 -47 78 -93 116 -100 83 -143 92 -267 60z m79 -301 c11 -7 9
-14 -13 -36 -14 -14 -31 -23 -36 -20 -16 10 -11 43 8 54 21 13 24 13 41 2z"/>
<path d="M4197 3759 c-193 -46 -313 -247 -248 -420 28 -75 80 -132 149 -166
48 -24 70 -28 137 -28 71 0 89 4 147 33 134 66 188 163 195 352 5 133 -7 164
-74 198 -76 39 -215 53 -306 31z m59 -316 c-31 -26 -46 -29 -46 -10 0 15 27
42 50 49 26 9 24 -15 -4 -39z"/>
<path d="M1639 3720 c-9 -5 -22 -23 -28 -38 -11 -25 -7 -50 24 -178 42 -169
64 -227 93 -243 35 -19 69 -13 92 16 27 34 23 69 -31 272 -28 107 -44 151 -60
164 -23 19 -65 22 -90 7z"/>
<path d="M3426 3379 c-56 -44 -183 -300 -172 -345 24 -94 133 -81 230 27 60
67 97 144 103 219 5 56 4 61 -25 89 -38 38 -95 42 -136 10z"/>
<path d="M1705 3069 c-347 -48 -568 -177 -677 -394 -101 -203 -84 -390 52
-598 64 -99 136 -161 275 -237 174 -96 230 -154 323 -339 40 -80 88 -165 107
-190 86 -117 205 -204 330 -244 60 -19 91 -22 215 -21 151 1 264 17 420 59 47
13 112 26 145 30 141 15 352 62 575 126 373 109 489 185 711 473 205 264 278
543 191 730 -30 64 -112 169 -184 235 -60 55 -155 109 -233 134 -87 26 -238
28 -335 4 -36 -10 -145 -22 -244 -29 -292 -19 -397 1 -716 132 -191 79 -279
105 -405 120 -131 15 -469 21 -550 9z m520 -379 c80 -16 138 -35 233 -79 162
-74 292 -123 417 -156 55 -15 123 -34 150 -42 57 -17 151 -18 370 -2 174 12
250 22 357 50 57 14 83 17 103 9 73 -28 175 -144 175 -199 0 -43 -41 -162 -81
-236 -61 -112 -236 -274 -364 -338 -169 -84 -459 -152 -700 -164 -67 -3 -145
-14 -200 -29 -222 -57 -411 -71 -490 -35 -62 28 -128 107 -186 222 -126 252
-197 322 -557 553 -71 46 -114 147 -93 221 26 94 101 152 245 190 216 58 436
70 621 35z"/>
<path d="M435 2168 c-47 -25 -60 -84 -30 -136 8 -15 32 -67 53 -117 46 -110
96 -187 168 -259 121 -120 245 -130 300 -23 25 48 13 149 -26 227 -54 108
-144 187 -312 278 -78 43 -117 50 -153 30z"/>
<path d="M4864 1537 c-24 -21 -32 -23 -67 -14 -49 13 -98 -9 -128 -55 -25 -41
-20 -116 17 -245 42 -147 85 -193 178 -193 43 0 53 4 86 38 44 44 81 147 100
284 15 107 8 139 -36 178 -45 39 -109 42 -150 7z"/>
</g>
</svg>
