<?xml version="1.0" standalone="no"?>
<!DOCTYPE svg PUBLIC "-//W3C//DTD SVG 20010904//EN"
 "http://www.w3.org/TR/2001/REC-SVG-20010904/DTD/svg10.dtd">
<svg version="1.0" xmlns="http://www.w3.org/2000/svg"
 width="600.000000pt" height="600.000000pt" viewBox="0 0 600.000000 600.000000"
 preserveAspectRatio="xMidYMid meet">
<metadata>
Created by potrace 1.15, written by Peter Selinger 2001-2017
</metadata>
<g transform="translate(0.000000,600.000000) scale(0.100000,-0.100000)"
fill="#16364b" stroke="none">
<path d="M1530 5756 c-34 -19 -222 -228 -270 -302 -47 -69 -58 -125 -37 -176
19 -44 48 -61 103 -60 53 0 490 191 526 229 32 35 32 102 -1 137 -30 31 -83
43 -119 26 -15 -7 -42 -19 -60 -27 l-33 -14 23 31 c16 22 22 44 22 73 -2 76
-85 120 -154 83z"/>
<path d="M2365 5432 c-56 -35 -56 -35 -59 -264 -3 -231 -11 -277 -65 -394 -39
-83 -90 -137 -189 -201 -64 -41 -87 -63 -99 -91 -29 -69 21 -152 91 -152 41 0
167 75 231 136 101 97 184 252 220 410 21 87 32 465 16 506 -12 31 -65 68 -96
68 -11 0 -33 -8 -50 -18z"/>
<path d="M3508 5334 c-16 -8 -37 -33 -49 -56 -43 -84 -2 -217 96 -314 110
-107 231 -124 300 -42 49 59 23 169 -71 294 -44 59 -81 87 -153 115 -61 23
-86 23 -123 3z"/>
<path d="M2990 5138 c-77 -22 -149 -105 -182 -210 -24 -79 -23 -104 8 -165 50
-101 165 -121 294 -52 71 38 84 54 99 127 30 147 -18 271 -117 300 -45 14 -54
14 -102 0z"/>
<path d="M4771 4772 c-63 -32 -73 -55 -72 -180 0 -220 53 -387 149 -474 120
-108 286 -82 357 57 26 51 30 69 29 136 -1 67 -5 87 -38 155 -30 64 -54 95
-125 164 -92 89 -198 160 -241 160 -14 0 -40 -8 -59 -18z"/>
<path d="M2690 4231 c-88 -21 -142 -62 -176 -136 -57 -120 -2 -250 133 -317
57 -28 77 -33 142 -33 105 0 181 37 289 139 95 91 113 133 88 206 -8 25 -28
56 -44 69 -61 50 -332 95 -432 72z"/>
<path d="M1044 4088 c-80 -74 -50 -203 51 -223 126 -25 175 -38 191 -50 18
-13 17 -15 -20 -30 -60 -25 -163 -45 -241 -45 -89 -1 -134 -22 -159 -73 -23
-47 -16 -94 21 -138 42 -49 77 -59 211 -59 183 0 293 36 399 133 163 150 129
343 -81 446 -82 40 -203 71 -278 71 -52 0 -62 -4 -94 -32z"/>
<path d="M4178 3751 c-72 -23 -117 -51 -162 -101 -50 -56 -69 -104 -69 -180
-1 -84 30 -155 90 -211 65 -60 114 -79 204 -79 65 0 85 4 137 31 132 66 221
220 222 383 0 99 -43 144 -161 166 -80 15 -197 11 -261 -9z m112 -250 c0 -11
-49 -51 -62 -51 -19 0 -2 35 22 47 30 15 40 16 40 4z"/>
<path d="M1659 3705 c-49 -26 -63 -61 -67 -167 -3 -78 0 -110 16 -165 68 -224
306 -262 372 -59 47 144 -70 365 -209 395 -66 14 -80 13 -112 -4z"/>
<path d="M5200 3671 c-133 -42 -225 -137 -277 -281 -84 -240 89 -431 332 -366
164 44 261 150 272 300 8 109 -24 194 -114 301 -19 22 -44 45 -56 52 -31 17
-93 15 -157 -6z m40 -319 c0 -13 -30 -52 -41 -52 -14 0 -11 27 7 44 16 17 34
21 34 8z"/>
<path d="M3420 3372 c-46 -25 -99 -101 -149 -216 -46 -105 -49 -128 -21 -173
37 -62 128 -60 222 4 94 64 154 201 134 307 -5 27 -18 44 -48 66 -48 35 -88
38 -138 12z"/>
<path d="M2526 3140 c-231 -27 -409 -81 -577 -176 -63 -35 -177 -96 -255 -134
-212 -104 -358 -223 -461 -378 -79 -117 -111 -257 -98 -422 16 -213 83 -340
252 -481 117 -98 194 -176 291 -296 102 -126 146 -165 247 -213 141 -68 264
-89 417 -70 232 27 376 88 713 298 298 186 498 366 634 569 162 244 142 504
-61 770 -49 65 -190 190 -283 251 -38 25 -88 64 -110 87 -55 55 -191 129 -305
166 -78 25 -115 31 -210 34 -63 2 -150 0 -194 -5z m327 -413 c28 -19 92 -58
140 -88 106 -65 155 -104 266 -212 184 -179 200 -272 74 -418 -225 -261 -365
-362 -804 -580 -141 -70 -275 -89 -379 -54 -58 19 -112 67 -245 220 -38 44
-108 114 -155 155 -150 132 -186 172 -205 229 -26 78 -18 168 23 255 51 109
133 181 337 296 93 52 202 110 243 128 142 63 337 99 540 101 111 1 113 1 165
-32z"/>
<path d="M430 2233 c-8 -3 -27 -17 -42 -31 -40 -37 -37 -81 18 -220 123 -314
250 -463 409 -479 107 -11 197 50 211 143 19 127 -81 317 -225 424 -75 56
-300 170 -334 169 -12 0 -29 -3 -37 -6z m333 -440 c15 -20 24 -39 21 -42 -6
-6 -46 39 -65 71 -17 31 14 10 44 -29z"/>
<path d="M4620 1814 c-19 -8 -42 -21 -50 -29 -14 -13 -21 -12 -55 5 -46 23
-83 25 -129 6 -53 -22 -76 -60 -76 -125 0 -79 46 -349 70 -412 44 -117 122
-150 232 -99 61 29 104 128 157 364 36 161 38 190 11 233 -36 60 -101 83 -160
57z"/>
</g>
</svg>
