<?xml version="1.0" standalone="no"?>
<!DOCTYPE svg PUBLIC "-//W3C//DTD SVG 20010904//EN"
 "http://www.w3.org/TR/2001/REC-SVG-20010904/DTD/svg10.dtd">
<svg version="1.0" xmlns="http://www.w3.org/2000/svg"
 width="600.000000pt" height="600.000000pt" viewBox="0 0 600.000000 600.000000"
 preserveAspectRatio="xMidYMid meet">
<metadata>
Created by potrace 1.15, written by Peter Selinger 2001-2017
</metadata>
<g transform="translate(0.000000,600.000000) scale(0.100000,-0.100000)"
fill="#16364b" stroke="none">
<path d="M2115 5819 c-36 -21 -85 -72 -189 -194 -55 -66 -158 -179 -228 -252
-191 -198 -236 -279 -209 -376 27 -95 123 -145 242 -126 137 22 326 94 619
237 203 98 220 113 220 192 0 89 -65 160 -147 160 -32 0 -73 -16 -186 -75 -79
-41 -147 -75 -151 -75 -4 0 27 38 68 84 193 217 224 304 141 395 -30 32 -38
35 -96 38 -37 2 -73 -1 -84 -8z"/>
<path d="M3029 5667 c-72 -49 -97 -125 -65 -202 19 -45 47 -62 168 -96 255
-75 378 -193 394 -380 6 -64 4 -81 -14 -116 -35 -68 -61 -85 -280 -184 -34
-15 -47 -29 -64 -66 -18 -40 -19 -51 -8 -87 24 -79 117 -137 192 -120 50 10
178 65 241 102 88 51 172 138 210 219 30 65 32 73 31 178 -2 135 -26 234 -88
360 -98 196 -224 295 -486 380 -129 41 -183 44 -231 12z"/>
<path d="M965 5356 c-142 -47 -273 -155 -328 -269 -51 -107 -59 -239 -21 -352
36 -106 142 -235 249 -303 106 -68 235 -3 235 118 0 58 -20 91 -93 148 -72 57
-107 115 -107 179 0 67 31 101 145 158 56 28 107 62 119 77 30 42 32 124 4
172 -39 67 -127 98 -203 72z"/>
<path d="M2706 4964 c-177 -64 -271 -304 -191 -483 62 -137 211 -220 395 -221
68 0 97 12 132 55 38 46 29 138 -18 195 -35 41 -56 51 -138 66 -75 15 -106 35
-106 69 0 40 22 57 78 59 61 2 99 26 126 80 23 48 15 95 -25 141 -17 19 -47
39 -67 45 -51 14 -140 11 -186 -6z"/>
<path d="M4785 4914 c-46 -23 -93 -74 -106 -112 -15 -46 -3 -212 22 -304 40
-144 117 -251 214 -298 97 -47 237 -12 317 80 62 70 81 114 86 203 4 71 2 82
-26 140 -53 107 -172 209 -322 274 -83 36 -139 41 -185 17z"/>
<path d="M1854 4522 c-120 -43 -228 -140 -240 -217 -18 -124 127 -213 227
-140 133 96 136 97 191 47 58 -53 78 -62 135 -62 88 0 147 60 145 147 0 52
-28 99 -89 152 -74 66 -125 86 -228 89 -67 2 -103 -2 -141 -16z"/>
<path d="M2855 3908 c-34 -12 -71 -43 -88 -73 -6 -12 -11 -90 -12 -195 -2
-199 -12 -248 -90 -445 -25 -63 -45 -127 -45 -143 0 -39 46 -107 87 -126 70
-33 163 -6 206 61 101 156 201 678 156 814 -30 90 -126 138 -214 107z"/>
<path d="M1220 3850 c-25 -5 -107 -31 -182 -56 -146 -49 -188 -77 -214 -141
-30 -71 -9 -178 43 -225 46 -42 140 -60 197 -38 14 5 26 6 26 2 0 -4 -22 -41
-48 -82 -185 -289 -402 -767 -402 -886 0 -146 167 -221 301 -135 49 31 190
154 374 326 211 197 420 373 430 363 7 -6 -14 -124 -35 -198 -112 -398 -192
-622 -292 -818 -85 -167 -92 -199 -58 -261 47 -82 159 -109 220 -53 57 52 201
365 324 704 147 407 172 508 163 666 -7 132 -34 223 -81 279 -69 80 -159 95
-262 43 -58 -29 -92 -54 -291 -218 -57 -46 -103 -80 -103 -76 0 3 33 57 74
118 169 255 209 400 148 539 -52 116 -188 177 -332 147z"/>
<path d="M4250 3780 c-120 -10 -193 -40 -256 -105 -66 -66 -89 -130 -82 -225
9 -123 80 -241 176 -293 72 -39 126 -44 210 -18 135 41 250 158 337 344 53
113 58 165 22 218 -12 19 -35 40 -50 47 -56 27 -230 43 -357 32z m6 -336 c-30
-26 -51 -27 -51 -3 0 14 65 42 75 32 3 -3 -8 -16 -24 -29z"/>
<path d="M3465 3386 c-94 -43 -162 -147 -204 -310 -26 -98 -26 -122 -2 -166
32 -62 71 -80 170 -80 47 0 110 7 139 14 197 53 291 235 212 413 -59 133 -191
188 -315 129z"/>
<path d="M4875 2862 c-89 -66 -214 -217 -259 -312 -26 -55 -31 -77 -31 -140 0
-67 3 -80 30 -120 67 -99 208 -130 330 -71 102 49 157 127 195 277 21 81 26
206 11 247 -5 13 -34 50 -64 82 -53 57 -57 59 -113 63 -53 3 -63 1 -99 -26z"/>
<path d="M4109 2463 c-71 -37 -111 -93 -117 -166 -3 -40 4 -81 27 -163 17 -61
31 -112 31 -116 0 -3 -44 10 -97 28 -216 74 -366 26 -451 -146 -40 -81 -37
-220 7 -420 18 -80 41 -188 52 -240 33 -154 79 -209 193 -231 137 -26 266 60
283 188 3 24 -7 87 -26 168 -16 71 -28 131 -26 133 5 5 10 1 84 -55 134 -101
358 -25 436 148 52 116 46 337 -15 580 -54 215 -78 257 -170 298 -66 30 -143
28 -211 -6z"/>
<path d="M2960 2250 c-107 -17 -225 -63 -426 -166 l-203 -104 -51 35 c-82 55
-134 65 -216 40 -113 -34 -253 -197 -254 -296 0 -50 43 -129 86 -158 25 -17
54 -26 94 -29 l58 -4 12 -65 c7 -35 11 -65 9 -67 -2 -2 -28 -16 -57 -30 -163
-82 -242 -251 -229 -486 3 -58 13 -120 26 -158 71 -210 300 -406 581 -497 112
-36 283 -46 380 -21 109 28 312 150 365 220 58 76 54 183 -11 250 -69 71 -177
75 -269 10 -162 -115 -224 -136 -330 -115 -186 39 -362 222 -353 371 5 95 47
91 174 -16 86 -73 132 -91 195 -74 59 16 95 46 124 104 48 96 30 173 -64 271
-72 75 -106 140 -137 263 -25 97 -23 111 14 112 7 0 61 24 120 54 143 72 323
153 355 161 26 7 27 6 20 -26 -19 -103 -107 -314 -198 -478 -53 -97 -47 -187
19 -259 33 -37 70 -52 126 -52 98 0 136 30 235 191 104 168 170 339 220 573
65 299 -115 494 -415 446z"/>
</g>
</svg>
