<?xml version="1.0" standalone="no"?>
<!DOCTYPE svg PUBLIC "-//W3C//DTD SVG 20010904//EN"
 "http://www.w3.org/TR/2001/REC-SVG-20010904/DTD/svg10.dtd">
<svg version="1.0" xmlns="http://www.w3.org/2000/svg"
 width="600.000000pt" height="600.000000pt" viewBox="0 0 600.000000 600.000000"
 preserveAspectRatio="xMidYMid meet">
<metadata>
Created by potrace 1.15, written by Peter Selinger 2001-2017
</metadata>
<g transform="translate(0.000000,600.000000) scale(0.100000,-0.100000)"
fill="#16364b" stroke="none">
<path d="M2367 5386 c-11 -12 -16 -61 -20 -228 -6 -245 -21 -329 -87 -464 -46
-95 -105 -158 -189 -203 -56 -30 -71 -46 -71 -76 0 -22 30 -45 59 -45 41 0
173 92 227 157 117 144 185 386 183 648 -1 126 -12 204 -30 216 -21 13 -56 11
-72 -5z"/>
<path d="M3541 5287 c-13 -6 -33 -28 -43 -48 -19 -36 -19 -38 1 -93 34 -97 99
-176 176 -212 63 -30 97 -30 131 -1 21 19 27 32 26 61 -3 78 -123 254 -195
287 -49 22 -64 23 -96 6z"/>
<path d="M3009 5080 c-103 -54 -181 -258 -134 -349 36 -70 114 -61 204 23 69
65 111 150 111 225 0 47 -4 57 -34 87 -40 40 -89 45 -147 14z m81 -110 c0 -45
-88 -170 -119 -170 -17 0 -5 52 25 112 34 67 94 104 94 58z"/>
<path d="M4745 4735 c-25 -24 -25 -25 -25 -223 0 -331 34 -445 137 -459 32 -4
45 0 71 22 41 34 52 77 52 198 0 164 -60 401 -117 463 -30 33 -85 33 -118 -1z"/>
<path d="M2639 4216 c-57 -33 -63 -121 -12 -184 79 -97 288 -150 428 -108 68
21 95 50 95 101 0 72 -20 87 -198 145 -174 57 -269 71 -313 46z"/>
<path d="M5273 3975 c-72 -20 -122 -47 -159 -87 -59 -62 -69 -92 -69 -208 0
-98 2 -109 32 -171 35 -71 86 -125 155 -161 36 -19 59 -23 138 -23 84 0 102 3
152 28 72 35 140 110 169 185 32 84 30 194 -4 264 -32 66 -85 117 -162 157
-51 26 -70 31 -130 30 -38 0 -94 -7 -122 -14z m141 -295 c12 -12 -8 -36 -35
-43 -22 -6 -56 34 -44 54 8 12 63 5 79 -11z"/>
<path d="M1356 3799 c-134 -19 -217 -104 -224 -228 -8 -144 79 -267 243 -346
66 -31 101 -55 122 -82 124 -158 213 -473 258 -913 34 -333 88 -571 163 -714
66 -126 183 -230 314 -277 32 -12 58 -25 58 -29 0 -4 -11 -12 -24 -18 -39 -18
-98 -75 -112 -109 -32 -75 -3 -151 71 -188 58 -29 185 -31 385 -6 248 32 290
28 256 -21 -40 -57 -1 -138 66 -138 130 0 152 227 31 310 -50 34 -125 36 -361
11 -211 -23 -272 -26 -272 -12 0 4 20 16 44 25 45 17 345 88 381 90 57 3 378
-17 486 -29 68 -8 145 -15 171 -15 26 0 50 -5 53 -10 12 -19 70 -44 120 -51
29 -4 99 -1 165 7 153 18 155 18 168 -11 17 -37 110 -62 179 -47 88 18 147 80
141 147 l-3 37 117 38 c134 44 346 149 433 215 82 61 209 187 263 260 102 138
142 262 142 442 0 181 -46 332 -147 485 -110 167 -298 269 -498 270 -174 2
-307 -55 -439 -187 -153 -152 -284 -217 -561 -279 -217 -49 -528 27 -735 180
-148 109 -231 208 -375 444 -193 319 -257 402 -379 494 -99 75 -192 124 -362
190 -127 50 -161 59 -254 70 -14 1 -51 -1 -84 -5z m187 -278 c34 -15 73 -32
87 -36 51 -16 197 -94 256 -138 86 -64 162 -156 289 -352 173 -269 282 -404
430 -532 175 -151 355 -237 590 -283 158 -30 285 -27 426 10 287 74 487 173
636 314 41 38 95 78 129 93 51 24 71 28 154 28 80 0 102 -4 140 -24 63 -33
125 -95 170 -171 59 -101 80 -174 80 -280 0 -162 -57 -280 -209 -430 -80 -79
-113 -104 -197 -147 -126 -66 -262 -119 -356 -139 -192 -41 -648 -65 -818 -44
-41 6 -204 14 -361 20 -453 16 -631 45 -748 120 -85 55 -131 129 -175 286 -38
136 -54 240 -71 469 -19 250 -35 355 -81 535 -68 261 -156 437 -267 535 -28
25 -93 66 -144 90 -91 43 -120 71 -109 102 9 21 68 11 149 -26z"/>
<path d="M2328 2439 c-11 -6 -18 -22 -18 -39 0 -58 76 -93 113 -52 24 26 22
79 -2 92 -25 13 -71 12 -93 -1z"/>
<path d="M2845 2045 c-27 -26 -31 -46 -15 -75 26 -48 80 -48 105 0 20 39 19
56 -5 80 -27 27 -56 25 -85 -5z"/>
<path d="M4195 3741 c-125 -34 -209 -118 -241 -242 -23 -90 -8 -151 52 -218
64 -71 129 -94 249 -89 140 6 233 58 288 162 17 32 21 58 21 116 0 144 -39
208 -151 250 -62 24 -169 34 -218 21z m85 -261 c0 -18 -26 -40 -49 -40 -16 0
-13 21 6 42 21 24 43 23 43 -2z"/>
<path d="M3440 3370 c-42 -42 -144 -281 -138 -326 2 -18 13 -34 30 -43 25 -14
29 -14 55 5 35 26 83 104 123 201 38 90 43 149 15 169 -27 20 -62 17 -85 -6z"/>
<path d="M452 2028 c-7 -7 -12 -26 -12 -42 0 -25 11 -40 53 -77 150 -131 286
-180 325 -118 31 50 -5 85 -198 189 -112 60 -146 70 -168 48z"/>
<path d="M5384 1123 c-40 -5 -67 -35 -88 -97 -21 -66 -20 -124 4 -163 35 -59
121 -57 167 3 23 31 27 48 31 118 4 76 2 84 -19 108 -27 29 -49 36 -95 31z"/>
</g>
</svg>
