<?xml version="1.0" standalone="no"?>
<!DOCTYPE svg PUBLIC "-//W3C//DTD SVG 20010904//EN"
 "http://www.w3.org/TR/2001/REC-SVG-20010904/DTD/svg10.dtd">
<svg version="1.0" xmlns="http://www.w3.org/2000/svg"
 width="600.000000pt" height="600.000000pt" viewBox="0 0 600.000000 600.000000"
 preserveAspectRatio="xMidYMid meet">
<metadata>
Created by potrace 1.15, written by Peter Selinger 2001-2017
</metadata>
<g transform="translate(0.000000,600.000000) scale(0.100000,-0.100000)"
fill="#16364b" stroke="none">
<path d="M2805 5544 c-47 -24 -58 -38 -109 -135 -100 -189 -101 -311 -3 -409
60 -61 118 -75 305 -75 89 0 162 -2 161 -5 0 -3 -39 -36 -86 -75 -111 -90
-352 -328 -430 -426 -67 -83 -88 -136 -74 -187 14 -47 69 -119 105 -136 18 -8
97 -24 176 -36 219 -31 473 -77 585 -105 121 -30 118 -30 171 -4 65 31 90 82
86 171 -3 45 -55 95 -120 114 -91 26 -327 73 -457 90 -66 8 -122 17 -124 20
-9 9 133 145 279 267 207 174 266 233 295 290 43 87 30 171 -36 234 -84 80
-223 104 -449 80 -80 -8 -148 -12 -152 -8 -4 3 10 45 32 91 22 48 40 100 40
120 0 102 -107 170 -195 124z"/>
<path d="M1600 5251 c-36 -11 -108 -49 -155 -81 -56 -38 -210 -198 -294 -303
-199 -251 -240 -406 -130 -490 48 -36 90 -40 201 -22 137 22 283 35 323 28 41
-7 43 5 -22 -198 -51 -159 -57 -215 -26 -267 l20 -34 -58 -26 c-70 -31 -99
-71 -99 -138 0 -81 65 -150 142 -150 33 0 167 45 472 157 142 52 186 96 186
185 0 80 -66 148 -143 148 -21 0 -77 -17 -133 -41 -53 -22 -97 -39 -100 -37
-2 3 16 63 40 135 72 214 81 321 35 418 -35 74 -84 114 -184 147 -16 6 -86 13
-155 17 l-125 6 70 71 c66 67 213 174 239 174 18 0 73 61 85 93 27 71 2 154
-58 194 -35 23 -83 28 -131 14z"/>
<path d="M4364 4610 c-95 -25 -322 -127 -356 -160 -72 -72 -46 -207 48 -246
57 -24 93 -17 224 45 132 63 180 80 180 63 0 -17 -68 -178 -113 -268 -25 -49
-75 -138 -112 -199 -73 -120 -90 -179 -64 -228 28 -52 127 -146 166 -156 21
-6 129 -17 240 -26 243 -18 263 -22 263 -45 0 -44 -84 -234 -189 -430 -31 -57
-41 -86 -41 -121 0 -106 115 -163 214 -106 34 19 52 45 122 172 140 253 194
402 194 530 0 142 -74 229 -225 264 -27 6 -125 17 -217 24 -92 7 -170 15 -173
18 -3 3 40 98 94 210 56 114 109 239 122 284 77 281 -93 450 -377 375z"/>
<path d="M3746 3674 c-132 -41 -236 -161 -236 -275 0 -150 193 -196 267 -64
26 46 51 63 64 44 19 -28 -13 -156 -66 -271 -20 -43 -30 -51 -111 -92 -105
-53 -179 -108 -212 -156 -20 -29 -23 -44 -20 -88 11 -130 139 -193 250 -123
25 16 49 34 53 40 13 22 124 71 238 104 67 20 131 45 150 60 84 64 90 184 14
256 -25 22 -25 24 -11 70 8 25 17 85 21 133 5 74 3 97 -17 160 -20 61 -33 82
-79 129 -85 85 -186 109 -305 73z"/>
<path d="M2495 3520 c-193 -35 -395 -102 -436 -146 -20 -22 -24 -36 -24 -92 0
-77 17 -107 76 -141 53 -30 103 -26 197 14 137 60 313 96 346 72 17 -13 17
-16 2 -78 -9 -35 -50 -133 -91 -218 -81 -166 -91 -210 -59 -277 35 -73 142
-101 216 -56 28 17 47 46 93 139 122 248 158 355 159 473 1 162 -81 277 -227
316 -67 18 -129 17 -252 -6z"/>
<path d="M1120 3241 c-70 -22 -165 -73 -215 -113 -155 -128 -52 -378 146 -355
60 7 58 25 25 -243 -35 -274 -46 -408 -46 -538 0 -129 10 -162 63 -209 43 -38
84 -47 179 -41 106 8 99 1 286 301 108 171 194 287 294 393 l81 85 19 -43 c18
-38 19 -58 14 -183 -5 -141 -15 -201 -81 -485 -19 -85 -38 -189 -41 -230 -6
-68 -4 -78 18 -110 56 -81 149 -105 222 -55 20 14 39 25 41 25 3 0 5 -18 5
-41 0 -56 37 -288 60 -381 72 -282 187 -480 316 -546 64 -33 150 -46 219 -33
76 14 172 59 221 104 22 19 58 44 80 55 55 28 83 63 150 190 94 176 132 239
185 302 91 110 130 113 260 19 261 -187 353 -213 495 -144 64 31 139 110 153
160 5 20 26 53 47 73 83 81 93 164 38 316 -19 55 -38 128 -41 162 l-6 63 54
15 c30 9 123 23 206 31 212 22 308 58 387 146 77 84 113 211 101 349 -8 101
-19 139 -55 188 -63 87 -179 108 -278 51 -75 -43 -132 -137 -132 -221 0 -31
-7 -33 -150 -43 -190 -14 -359 -64 -448 -132 -46 -35 -108 -133 -131 -207 -44
-143 -37 -263 28 -453 21 -62 37 -113 35 -113 -2 0 -41 25 -86 57 -217 148
-377 170 -563 79 -152 -75 -276 -215 -437 -494 -59 -101 -71 -115 -114 -137
-26 -13 -51 -22 -56 -19 -40 25 -92 224 -128 489 -11 80 -26 160 -33 178 -44
104 -193 139 -293 69 -53 -38 -53 -39 -20 106 59 262 77 413 77 624 0 198 -32
403 -75 487 -60 115 -198 151 -330 87 -77 -38 -214 -170 -311 -300 -43 -58
-80 -105 -82 -103 -1 2 4 86 13 188 18 211 14 361 -12 434 -22 63 -97 139
-150 154 -57 16 -141 13 -204 -8z"/>
<path d="M3060 2633 c-186 -29 -481 -118 -530 -160 -51 -42 -73 -96 -68 -168
3 -49 10 -70 32 -100 58 -75 138 -99 235 -71 31 9 94 28 141 42 95 28 302 75
308 69 6 -6 -17 -73 -56 -160 -42 -97 -47 -159 -14 -222 62 -119 237 -136 315
-31 64 87 147 348 147 462 0 216 -152 348 -393 345 -51 -1 -103 -4 -117 -6z"/>
</g>
</svg>
