<?xml version="1.0" standalone="no"?>
<!DOCTYPE svg PUBLIC "-//W3C//DTD SVG 20010904//EN"
 "http://www.w3.org/TR/2001/REC-SVG-20010904/DTD/svg10.dtd">
<svg version="1.0" xmlns="http://www.w3.org/2000/svg"
 width="600.000000pt" height="600.000000pt" viewBox="0 0 600.000000 600.000000"
 preserveAspectRatio="xMidYMid meet">
<metadata>
Created by potrace 1.15, written by Peter Selinger 2001-2017
</metadata>
<g transform="translate(0.000000,600.000000) scale(0.100000,-0.100000)"
fill="#16364b" stroke="none">
<path d="M1668 5780 c-20 -11 -45 -34 -56 -52 -37 -62 -105 -378 -118 -546
-14 -191 48 -299 181 -310 139 -11 274 113 478 441 86 137 99 163 99 201 0 85
-57 146 -137 146 -57 0 -97 -29 -140 -102 -58 -96 -157 -239 -162 -234 -6 5 9
79 44 230 29 125 25 162 -26 210 -40 38 -110 45 -163 16z"/>
<path d="M3120 5592 c-37 -21 -80 -89 -80 -129 0 -61 24 -88 156 -175 160
-106 271 -202 341 -293 29 -38 53 -73 53 -76 0 -3 -21 -4 -47 -2 -110 9 -185
-102 -137 -203 35 -73 202 -116 312 -80 141 47 204 213 140 372 -69 171 -217
320 -522 523 -122 82 -160 93 -216 63z"/>
<path d="M870 5457 c-78 -23 -123 -49 -183 -108 -69 -69 -120 -170 -137 -271
-26 -153 48 -297 209 -404 75 -49 157 -33 202 39 16 25 19 44 16 87 -4 52 -7
57 -60 105 -84 75 -95 130 -40 202 35 48 58 57 160 63 84 5 95 8 122 34 76 73
55 192 -42 242 -42 22 -187 28 -247 11z"/>
<path d="M2923 5154 c-89 -33 -176 -142 -189 -237 -14 -97 61 -211 155 -237
84 -23 260 -2 305 38 31 28 46 77 46 149 0 123 -35 211 -103 267 -33 26 -47
31 -105 33 -41 1 -83 -3 -109 -13z"/>
<path d="M4754 4841 c-77 -47 -93 -106 -75 -275 32 -295 164 -475 347 -476
115 0 219 81 259 201 24 70 17 178 -15 243 -50 100 -191 223 -339 296 -71 35
-131 39 -177 11z"/>
<path d="M2170 4803 c-53 -8 -164 -36 -207 -53 -112 -42 -150 -143 -88 -236
40 -61 113 -67 245 -19 48 17 104 29 155 32 87 6 137 26 169 69 43 59 25 156
-36 194 -27 16 -49 20 -123 19 -49 -1 -101 -3 -115 -6z"/>
<path d="M2882 4109 c-178 -22 -288 -144 -252 -280 23 -85 91 -146 203 -181
150 -46 601 1 676 71 60 56 59 155 -2 218 -53 57 -322 159 -442 169 -33 3 -73
6 -90 8 -16 1 -58 -1 -93 -5z"/>
<path d="M1085 4061 c-113 -18 -175 -81 -175 -179 0 -54 25 -100 73 -136 23
-17 48 -22 133 -26 l105 -5 -62 -75 c-34 -41 -113 -140 -177 -218 -63 -79
-175 -206 -248 -283 -134 -139 -154 -171 -154 -239 0 -32 32 -100 56 -122 52
-46 135 -59 202 -33 34 14 41 14 68 0 34 -18 97 -20 127 -3 12 6 75 51 139
101 l118 89 39 -33 c22 -19 51 -42 65 -52 45 -31 60 -73 60 -162 -2 -172 -123
-409 -276 -536 -56 -46 -62 -49 -118 -49 -48 0 -64 -4 -89 -26 -63 -52 -65
-147 -6 -213 62 -69 176 -82 282 -32 122 58 302 260 394 443 47 94 87 226 100
332 23 181 -19 323 -127 436 l-56 59 42 21 41 21 39 -44 c72 -81 172 -88 243
-16 l39 39 -4 132 c-3 113 -7 139 -26 175 -30 57 -73 86 -138 91 -61 5 -64 4
-243 -77 -74 -34 -135 -60 -137 -58 -1 1 31 45 72 97 133 169 174 284 139 389
-23 69 -76 123 -161 163 -66 31 -75 33 -199 35 -71 1 -153 -2 -180 -6z"/>
<path d="M4255 3780 c-209 -45 -331 -181 -329 -365 1 -108 49 -187 146 -240
49 -28 61 -30 153 -30 86 0 106 3 145 24 135 71 222 193 270 380 14 55 17 86
11 108 -27 92 -85 123 -243 128 -62 2 -131 0 -153 -5z m55 -299 c0 -14 -51
-52 -61 -45 -16 10 -9 23 19 38 32 18 42 19 42 7z"/>
<path d="M3395 3381 c-93 -42 -236 -257 -221 -333 10 -53 41 -94 90 -118 40
-19 59 -21 139 -18 83 3 98 6 128 29 51 39 87 113 100 204 12 88 6 138 -22
183 -41 69 -131 91 -214 53z"/>
<path d="M5069 3246 c-54 -19 -168 -98 -227 -157 -156 -156 -144 -373 24 -455
147 -72 346 8 429 171 37 74 46 187 20 264 -28 84 -140 193 -197 191 -7 -1
-29 -7 -49 -14z"/>
<path d="M3955 2476 c-42 -18 -92 -78 -105 -125 -8 -32 -6 -57 10 -130 28
-127 30 -121 -33 -104 -99 28 -193 -22 -256 -137 -34 -62 -36 -69 -36 -160 1
-90 4 -105 67 -290 36 -107 69 -211 73 -230 11 -53 42 -103 82 -130 48 -33
139 -34 199 -3 50 27 108 90 123 135 l11 34 68 0 c157 2 259 95 270 246 6 82
0 114 -89 477 -73 295 -84 328 -127 369 -62 57 -183 80 -257 48z"/>
<path d="M2085 2437 c-73 -25 -123 -56 -190 -119 -73 -68 -215 -250 -215 -274
0 -9 -13 -33 -28 -53 -90 -117 -172 -287 -219 -457 -24 -86 -27 -117 -27 -239
-1 -166 20 -259 87 -395 33 -69 59 -103 132 -176 104 -105 180 -158 311 -221
158 -74 294 -90 470 -54 202 42 374 139 538 306 117 118 188 223 256 375 91
205 130 363 137 565 8 203 -21 305 -110 398 -115 118 -248 126 -516 30 -52
-18 -100 -32 -106 -29 -6 2 -17 24 -24 47 -35 120 -107 200 -236 263 -91 44
-189 56 -260 33z m135 -478 c19 -46 43 -99 53 -116 22 -41 138 -154 175 -170
54 -24 122 -15 293 39 90 28 175 52 189 52 24 1 25 -1 22 -49 -7 -126 -60
-322 -122 -445 -57 -116 -89 -163 -182 -263 -118 -128 -192 -168 -322 -175
-65 -3 -109 0 -156 12 -128 33 -296 159 -344 259 -83 170 -37 411 123 646 32
47 62 97 66 111 14 47 139 194 159 187 6 -2 27 -42 46 -88z"/>
</g>
</svg>
