<?xml version="1.0" standalone="no"?>
<!DOCTYPE svg PUBLIC "-//W3C//DTD SVG 20010904//EN"
 "http://www.w3.org/TR/2001/REC-SVG-20010904/DTD/svg10.dtd">
<svg version="1.0" xmlns="http://www.w3.org/2000/svg"
 width="600.000000pt" height="600.000000pt" viewBox="0 0 600.000000 600.000000"
 preserveAspectRatio="xMidYMid meet">
<metadata>
Created by potrace 1.15, written by Peter Selinger 2001-2017
</metadata>
<g transform="translate(0.000000,600.000000) scale(0.100000,-0.100000)"
fill="#16364b" stroke="none">
<path d="M3050 5071 c-108 -34 -174 -119 -174 -224 -1 -54 2 -61 32 -88 37
-33 57 -35 108 -14 134 56 219 224 152 299 -25 27 -78 40 -118 27z m68 -96 c3
-41 -34 -102 -86 -142 -52 -40 -79 -42 -88 -9 -18 72 77 191 146 184 20 -2 26
-9 28 -33z"/>
<path d="M4777 4738 c-27 -21 -37 -65 -37 -166 0 -53 -5 -176 -11 -273 -10
-146 -9 -181 2 -205 27 -57 106 -58 135 -2 22 42 34 255 27 456 -5 130 -9 157
-25 178 -21 27 -64 32 -91 12z"/>
<path d="M1685 4424 c-49 -25 -93 -74 -110 -122 -32 -94 -13 -192 56 -293 78
-115 86 -163 144 -824 20 -220 42 -445 51 -500 8 -55 19 -224 24 -375 9 -296
27 -423 86 -605 96 -293 271 -443 575 -490 l36 -5 -5 -148 c-5 -179 11 -283
70 -459 23 -68 38 -126 35 -129 -4 -4 -42 -10 -86 -14 -91 -8 -126 -26 -147
-75 -18 -44 -6 -78 38 -106 28 -17 45 -20 113 -16 204 11 289 126 221 300 -73
190 -91 280 -90 457 1 77 6 147 13 164 11 27 13 28 64 22 218 -25 795 -41 877
-23 l35 7 0 -178 c0 -204 15 -282 84 -442 23 -51 41 -99 41 -107 0 -10 -21
-13 -85 -13 -108 0 -162 -20 -181 -67 -12 -28 -12 -38 0 -67 20 -48 65 -69
146 -69 164 0 290 81 290 186 0 21 -20 88 -46 155 -54 136 -82 259 -91 393 -6
95 1 193 15 216 4 6 77 21 162 32 165 22 316 55 443 97 194 64 367 241 430
439 30 97 30 272 -1 398 -51 204 -124 317 -247 378 -71 34 -233 63 -540 94
-189 19 -282 40 -465 107 -273 99 -582 269 -750 412 -114 97 -231 257 -355
486 -129 240 -204 345 -388 545 -153 166 -191 201 -249 228 -67 32 -164 37
-213 11z m178 -164 c26 -16 62 -51 80 -77 17 -26 56 -69 84 -96 94 -89 197
-235 351 -497 229 -391 344 -526 572 -676 217 -142 411 -236 675 -327 198 -68
197 -68 582 -117 343 -44 382 -55 437 -121 83 -98 139 -325 116 -473 -22 -149
-131 -300 -264 -364 -75 -37 -267 -85 -441 -111 -433 -66 -732 -83 -1045 -61
-91 6 -248 15 -350 20 -258 12 -340 40 -452 158 -133 139 -190 352 -209 777
-5 127 -18 313 -29 415 -10 102 -22 230 -25 285 -7 120 -34 404 -40 425 -2 8
-9 78 -15 155 -21 284 -49 395 -130 514 -40 59 -50 82 -50 114 0 86 68 111
153 57z"/>
<path d="M2482 2614 c-31 -22 -29 -67 4 -93 36 -28 58 -26 83 5 27 34 26 50
-4 79 -28 29 -51 31 -83 9z"/>
<path d="M2937 2342 c-10 -10 -17 -29 -17 -41 0 -29 43 -71 74 -71 28 0 56 33
56 67 0 53 -78 84 -113 45z"/>
<path d="M5223 3976 c-143 -45 -212 -167 -184 -326 22 -123 95 -234 186 -283
57 -31 181 -31 247 0 191 87 270 342 150 484 -37 45 -157 121 -205 130 -61 12
-146 9 -194 -5z m132 -278 c30 -14 32 -33 4 -48 -15 -9 -24 -8 -35 1 -15 12
-19 41 -7 52 8 9 8 9 38 -5z"/>
<path d="M4237 3759 c-61 -10 -122 -46 -176 -104 -60 -65 -85 -125 -85 -205
-1 -209 226 -334 423 -233 107 55 174 188 153 303 -13 68 -46 143 -75 171 -28
28 -112 66 -157 71 -19 3 -56 1 -83 -3z m43 -274 c0 -21 -24 -45 -44 -45 -12
0 -5 34 11 52 22 25 33 23 33 -7z"/>
<path d="M5302 1106 c-27 -23 -62 -105 -62 -145 0 -36 22 -90 46 -115 36 -35
91 -36 133 0 50 42 78 175 50 237 -23 52 -117 64 -167 23z"/>
</g>
</svg>
