<?xml version="1.0" standalone="no"?>
<!DOCTYPE svg PUBLIC "-//W3C//DTD SVG 20010904//EN"
 "http://www.w3.org/TR/2001/REC-SVG-20010904/DTD/svg10.dtd">
<svg version="1.0" xmlns="http://www.w3.org/2000/svg"
 width="600.000000pt" height="600.000000pt" viewBox="0 0 600.000000 600.000000"
 preserveAspectRatio="xMidYMid meet">
<metadata>
Created by potrace 1.15, written by Peter Selinger 2001-2017
</metadata>
<g transform="translate(0.000000,600.000000) scale(0.100000,-0.100000)"
fill="#16364b" stroke="none">
<path d="M3552 5283 c-23 -4 -52 -48 -52 -79 0 -9 17 -48 37 -88 81 -154 221
-243 275 -175 32 39 10 102 -78 226 -66 92 -120 127 -182 116z m134 -207 c9
-16 11 -26 5 -21 -17 10 -71 86 -71 99 0 13 40 -35 66 -78z"/>
<path d="M3044 5079 c-77 -22 -155 -145 -162 -255 -10 -145 101 -163 221 -35
111 119 121 245 22 287 -38 16 -38 16 -81 3z m62 -104 c15 -37 -89 -175 -132
-175 -20 0 -12 45 19 109 34 68 98 106 113 66z"/>
<path d="M4775 4749 c-37 -18 -47 -48 -52 -163 -5 -116 16 -358 39 -429 37
-117 155 -117 187 -1 25 90 4 376 -39 527 -20 67 -76 95 -135 66z"/>
<path d="M2651 4208 c-14 -7 -34 -28 -44 -46 -54 -92 55 -183 272 -227 158
-32 254 3 254 94 0 64 -26 82 -188 137 -152 51 -251 65 -294 42z"/>
<path d="M1470 4024 c-70 -19 -118 -57 -152 -124 -60 -114 -23 -269 84 -348
102 -76 136 -113 176 -190 80 -154 113 -305 162 -727 16 -143 34 -289 39 -325
6 -36 13 -94 17 -130 10 -105 52 -327 84 -442 66 -240 163 -365 353 -458 58
-28 143 -60 193 -72 49 -12 91 -23 93 -24 2 -2 -20 -29 -49 -61 -68 -75 -95
-118 -115 -187 -33 -114 8 -209 109 -251 29 -12 231 -54 264 -55 1 0 2 -4 2
-8 0 -5 -26 -16 -57 -26 -108 -34 -154 -81 -139 -141 8 -30 60 -65 98 -65 44
0 131 37 176 75 58 50 84 97 85 153 1 103 -48 140 -235 178 -65 13 -127 28
-138 34 -51 27 -7 109 132 246 l93 92 210 -9 c116 -4 303 -11 418 -15 l207 -7
-7 -36 c-16 -78 1 -154 44 -193 23 -21 123 -68 146 -68 22 0 21 -1 -4 -45 -52
-88 42 -173 162 -145 132 32 197 156 128 244 -27 34 -73 53 -189 77 -114 23
-147 35 -152 57 -8 29 1 40 70 88 64 45 73 48 204 70 259 44 555 127 682 191
171 86 311 238 379 412 93 240 7 610 -187 805 -120 121 -250 173 -406 163
-109 -7 -198 -36 -283 -91 -93 -61 -193 -101 -317 -126 -89 -19 -127 -21 -245
-17 -160 6 -245 22 -383 73 -294 109 -490 288 -782 714 -261 381 -390 501
-701 657 -138 69 -184 79 -269 57z m94 -204 c7 0 42 -19 77 -42 35 -23 93 -57
129 -76 84 -43 151 -94 222 -168 74 -78 82 -88 236 -304 306 -431 553 -675
788 -780 196 -88 369 -129 584 -136 261 -9 445 36 656 161 115 69 159 81 249
72 147 -15 267 -134 336 -334 83 -243 -40 -523 -286 -646 -27 -14 -112 -46
-188 -72 -378 -126 -636 -157 -1133 -136 -735 31 -794 37 -910 92 -164 77
-243 215 -293 510 -11 62 -23 166 -26 229 -4 63 -22 216 -40 340 -19 124 -39
263 -45 310 -34 252 -93 497 -145 600 -41 82 -102 154 -182 215 -45 35 -86 77
-98 99 l-20 37 24 20 c13 11 31 17 38 14 8 -3 20 -5 27 -5z"/>
<path d="M2400 2490 c-27 -27 -25 -52 6 -84 38 -37 77 -35 97 5 17 37 12 64
-16 84 -30 21 -63 19 -87 -5z"/>
<path d="M2843 2108 c-45 -22 -41 -78 7 -103 40 -21 66 -19 84 7 46 65 -18
131 -91 96z"/>
<path d="M5235 3986 c-158 -50 -228 -179 -191 -354 27 -130 102 -233 204 -280
45 -20 65 -23 130 -20 160 7 265 99 308 270 40 154 -21 287 -168 367 -52 29
-63 31 -150 30 -51 0 -111 -6 -133 -13z m142 -297 l28 -11 -29 -25 -30 -25
-18 22 c-36 45 -13 63 49 39z"/>
<path d="M4174 3730 c-74 -29 -137 -89 -175 -166 -27 -55 -32 -76 -32 -137 0
-85 17 -131 74 -192 59 -63 124 -88 219 -83 125 7 223 76 275 192 32 71 39
125 25 206 -15 89 -41 126 -115 164 -79 40 -192 47 -271 16z m116 -275 c0 -14
-8 -29 -19 -35 -44 -23 -55 -2 -19 37 28 30 38 29 38 -2z"/>
<path d="M480 2006 c-34 -41 28 -100 195 -184 108 -55 128 -59 154 -33 12 12
21 27 21 35 0 34 -56 79 -159 127 -58 27 -114 54 -123 59 -26 15 -74 12 -88
-4z"/>
<path d="M5363 1105 c-42 -29 -80 -163 -63 -225 19 -71 101 -93 159 -44 66 56
82 212 26 267 -21 21 -93 22 -122 2z"/>
</g>
</svg>
