<?xml version="1.0" standalone="no"?>
<!DOCTYPE svg PUBLIC "-//W3C//DTD SVG 20010904//EN"
 "http://www.w3.org/TR/2001/REC-SVG-20010904/DTD/svg10.dtd">
<svg version="1.0" xmlns="http://www.w3.org/2000/svg"
 width="600.000000pt" height="600.000000pt" viewBox="0 0 600.000000 600.000000"
 preserveAspectRatio="xMidYMid meet">
<metadata>
Created by potrace 1.15, written by Peter Selinger 2001-2017
</metadata>
<g transform="translate(0.000000,600.000000) scale(0.100000,-0.100000)"
fill="#16364b" stroke="none">
<path d="M3139 5491 c-47 -15 -77 -42 -93 -82 -21 -51 -20 -64 4 -113 13 -28
37 -52 73 -74 63 -40 92 -80 108 -150 13 -54 5 -135 -22 -227 -33 -111 64
-223 173 -200 59 13 95 59 128 160 56 177 51 308 -20 451 -75 154 -247 268
-351 235z"/>
<path d="M2041 5448 c-60 -31 -83 -78 -85 -166 -1 -86 17 -134 67 -190 45 -48
101 -80 190 -108 90 -28 89 -25 96 -247 5 -153 10 -199 24 -227 53 -108 202
-107 258 1 20 41 21 47 11 248 -6 138 -15 223 -26 258 -37 116 -127 205 -251
246 l-70 24 -7 44 c-19 109 -116 164 -207 117z"/>
<path d="M1625 4804 c-108 -11 -253 -38 -277 -50 -95 -49 -112 -172 -34 -250
46 -46 97 -57 188 -42 40 6 143 12 228 12 129 0 162 -3 195 -18 80 -36 166
-19 219 44 32 38 40 69 33 120 -10 80 -62 122 -198 160 -74 20 -265 33 -354
24z"/>
<path d="M4320 4622 c-59 -26 -90 -73 -90 -136 0 -65 27 -107 95 -146 131 -75
177 -163 200 -388 11 -98 67 -152 160 -152 58 0 100 22 121 62 35 67 -7 352
-69 474 -51 100 -157 204 -268 264 -55 29 -113 38 -149 22z"/>
<path d="M3204 4466 c-16 -7 -80 -57 -142 -109 -131 -113 -270 -219 -400 -306
-79 -53 -97 -70 -114 -108 -25 -57 -18 -101 23 -148 17 -19 47 -39 66 -44 66
-19 111 7 418 237 258 194 314 240 336 276 41 67 13 155 -61 194 -50 25 -81
27 -126 8z"/>
<path d="M1636 4380 c-91 -28 -137 -152 -83 -230 38 -57 64 -68 232 -101 186
-36 472 -51 538 -30 112 37 146 164 66 247 -44 45 -63 50 -234 63 -82 6 -226
22 -319 36 -93 14 -170 25 -170 24 -1 0 -14 -5 -30 -9z"/>
<path d="M3795 3899 c-22 -4 -124 -50 -225 -101 -102 -52 -271 -134 -377 -182
-105 -48 -201 -95 -212 -103 -58 -40 -79 -158 -41 -221 21 -33 71 -62 110 -62
43 0 351 139 591 267 119 63 186 93 208 93 51 0 108 37 131 85 25 53 25 88 -1
141 -33 69 -101 99 -184 83z"/>
<path d="M2295 3810 c-61 -20 -273 -59 -355 -66 -47 -3 -129 -1 -183 5 -112
13 -145 4 -189 -48 -40 -47 -46 -109 -17 -168 41 -82 61 -88 289 -87 180 0
207 2 345 32 213 45 225 49 267 93 66 70 61 167 -13 222 -31 22 -101 31 -144
17z"/>
<path d="M4990 3574 c-46 -20 -87 -60 -113 -109 -17 -33 -20 -54 -17 -120 9
-225 6 -255 -31 -331 -19 -38 -65 -115 -101 -170 -78 -119 -294 -483 -319
-539 -25 -55 -24 -134 2 -190 48 -101 193 -168 294 -135 49 16 111 73 137 124
34 67 115 201 229 377 166 255 224 386 250 560 14 94 7 320 -11 390 -15 59
-62 116 -114 140 -51 23 -157 24 -206 3z"/>
<path d="M1985 3151 c-58 -36 -70 -57 -70 -130 0 -73 20 -112 73 -143 43 -26
156 -48 292 -59 109 -8 128 -12 150 -33 38 -35 64 -46 114 -46 112 0 174 137
108 241 -56 88 -149 129 -341 149 -63 7 -139 18 -168 26 -73 19 -122 18 -158
-5z"/>
<path d="M4384 3154 c-11 -3 -59 -37 -105 -75 -212 -178 -476 -289 -791 -335
-129 -18 -164 -34 -195 -90 -51 -90 -6 -196 94 -223 39 -11 215 7 353 35 186
39 433 141 581 241 114 78 226 179 250 225 62 121 -48 252 -187 222z"/>
<path d="M1372 2949 c-26 -13 -55 -39 -70 -62 -27 -41 -27 -42 -24 -201 5
-330 75 -711 162 -888 66 -134 129 -189 221 -196 155 -11 263 129 200 259 -12
24 -35 67 -51 94 -67 113 -123 361 -141 625 -17 254 -17 256 -52 303 -62 81
-160 108 -245 66z"/>
<path d="M2108 2345 c-88 -18 -124 -40 -149 -93 -38 -78 -11 -148 75 -191 45
-23 52 -23 111 -13 114 22 177 11 220 -38 62 -69 167 -66 224 6 32 40 44 97
31 144 -14 54 -95 134 -167 168 -50 23 -73 27 -168 29 -65 1 -138 -4 -177 -12z"/>
<path d="M4085 2104 c-213 -51 -340 -80 -480 -109 -93 -20 -232 -49 -308 -65
-75 -16 -199 -36 -275 -45 -89 -11 -152 -24 -180 -37 -122 -58 -132 -230 -18
-322 37 -30 41 -31 134 -30 57 0 159 11 247 27 136 24 219 41 517 107 53 11
163 39 245 61 81 22 178 44 214 48 128 17 199 79 199 176 0 64 -31 119 -88
159 -37 27 -53 31 -115 33 -40 1 -81 0 -92 -3z"/>
<path d="M2130 1661 c-80 -42 -98 -113 -54 -212 64 -147 181 -282 322 -373
143 -93 215 -108 285 -61 47 33 67 72 67 132 0 79 -30 117 -135 176 -108 61
-207 155 -253 244 -45 86 -80 113 -145 113 -32 0 -66 -7 -87 -19z"/>
<path d="M4775 1664 c-16 -8 -52 -36 -80 -62 -118 -112 -205 -154 -479 -228
-411 -112 -661 -202 -726 -260 -89 -81 -75 -211 32 -297 60 -49 124 -49 240
-2 130 53 292 106 438 145 354 92 418 117 561 219 102 73 237 204 256 248 50
121 -36 253 -163 253 -27 0 -62 -7 -79 -16z"/>
<path d="M2042 997 c-45 -17 -99 -62 -118 -100 -24 -45 -23 -124 2 -172 52
-101 336 -269 550 -325 188 -49 403 -52 574 -7 173 45 251 77 296 121 101 99
72 245 -61 307 -54 25 -110 24 -188 -6 -187 -70 -383 -90 -512 -51 -84 25
-195 85 -295 159 -117 87 -169 102 -248 74z"/>
</g>
</svg>
