<?xml version="1.0" standalone="no"?>
<!DOCTYPE svg PUBLIC "-//W3C//DTD SVG 20010904//EN"
 "http://www.w3.org/TR/2001/REC-SVG-20010904/DTD/svg10.dtd">
<svg version="1.0" xmlns="http://www.w3.org/2000/svg"
 width="600.000000pt" height="600.000000pt" viewBox="0 0 600.000000 600.000000"
 preserveAspectRatio="xMidYMid meet">
<metadata>
Created by potrace 1.15, written by Peter Selinger 2001-2017
</metadata>
<g transform="translate(0.000000,600.000000) scale(0.100000,-0.100000)"
fill="#16364b" stroke="none">
<path d="M2480 5479 c-42 -26 -51 -37 -89 -114 -88 -179 -93 -313 -15 -404 67
-77 197 -90 428 -42 150 32 150 31 80 -41 -160 -164 -289 -340 -411 -558 -54
-98 -58 -109 -58 -170 0 -87 26 -137 85 -167 55 -28 104 -29 379 -6 177 14
220 15 325 3 225 -24 218 -24 256 2 39 27 60 63 67 117 6 47 -31 119 -74 144
-57 33 -209 49 -431 45 -111 -2 -202 0 -202 5 0 13 106 179 155 242 25 33 110
125 188 205 80 81 151 163 161 185 56 120 9 239 -117 296 -47 22 -65 24 -187
23 -108 0 -159 -6 -254 -27 -65 -15 -121 -26 -123 -24 -2 3 12 37 32 78 39 81
42 103 21 154 -30 72 -141 99 -216 54z"/>
<path d="M1660 5076 c-180 -60 -394 -220 -523 -388 -92 -121 -100 -207 -26
-281 l40 -40 108 6 c119 6 230 -4 304 -29 56 -19 69 -39 87 -137 7 -37 22 -82
34 -99 41 -61 120 -83 189 -54 43 18 95 78 102 119 8 40 -25 185 -55 250 -49
103 -143 178 -285 226 l-88 29 57 37 c68 44 108 61 171 75 62 14 92 35 116 81
37 74 16 162 -50 206 -43 29 -94 29 -181 -1z"/>
<path d="M4165 4775 c-132 -29 -331 -128 -395 -198 -60 -64 -38 -171 44 -214
53 -28 109 -19 194 30 79 45 208 97 243 97 25 0 25 -42 0 -142 -22 -86 -50
-154 -132 -325 -32 -66 -61 -132 -64 -146 -9 -34 23 -101 77 -161 39 -43 49
-49 93 -53 30 -3 104 6 185 21 161 30 288 40 350 29 43 -8 45 -10 48 -46 4
-49 -47 -237 -115 -422 -45 -124 -53 -157 -49 -193 11 -80 58 -122 139 -122
91 0 120 39 216 280 88 225 116 350 109 484 -8 133 -64 220 -178 275 -53 25
-62 26 -215 25 -88 -1 -187 -6 -220 -12 -33 -5 -62 -8 -64 -6 -2 2 3 21 12 41
8 21 29 72 47 113 51 122 74 223 74 330 0 84 -3 103 -29 158 -65 143 -191 197
-370 157z"/>
<path d="M1975 3975 c-147 -61 -252 -92 -385 -115 -70 -12 -121 -26 -139 -39
-31 -23 -61 -86 -61 -129 1 -43 35 -107 71 -133 30 -21 44 -24 119 -23 194 2
608 150 660 237 45 73 30 163 -36 213 -57 44 -102 41 -229 -11z"/>
<path d="M3760 3696 c-58 -17 -120 -48 -266 -136 -175 -106 -184 -112 -205
-152 -48 -93 7 -205 109 -223 51 -8 84 6 213 93 126 84 167 108 174 100 13
-13 -85 -268 -161 -419 -33 -68 -49 -89 -74 -99 -69 -29 -97 -115 -62 -193 41
-93 114 -108 264 -53 441 160 632 323 578 492 -49 152 -242 151 -300 -1 -5
-14 -15 -25 -21 -25 -7 0 -8 7 -4 18 4 9 23 69 42 132 39 131 51 244 34 308
-14 52 -70 116 -125 144 -49 25 -137 32 -196 14z"/>
<path d="M2380 3424 c-80 -17 -242 -70 -293 -96 -97 -49 -114 -185 -32 -257
42 -36 95 -48 150 -33 160 46 239 64 303 69 l72 6 0 -30 c0 -42 -25 -120 -65
-207 -19 -40 -35 -88 -35 -105 0 -73 57 -144 126 -157 42 -8 101 8 136 36 48
37 125 231 149 374 28 167 -32 305 -161 371 -90 45 -223 57 -350 29z"/>
<path d="M1180 3136 c-62 -18 -141 -59 -167 -88 -53 -56 -67 -151 -34 -223 27
-58 69 -93 130 -108 l53 -12 -9 -180 c-18 -384 1 -645 53 -753 82 -169 337
-135 361 48 4 31 12 44 32 55 41 21 64 53 125 170 31 61 79 140 107 177 52 69
164 188 178 188 13 0 21 -239 12 -340 -5 -52 -29 -170 -52 -261 l-43 -166 18
-47 c21 -55 50 -77 109 -83 53 -6 106 16 141 57 42 51 106 286 127 465 15 132
4 383 -21 480 -68 265 -301 319 -519 120 -52 -47 -178 -193 -211 -244 -14 -21
-16 -1 -15 235 0 291 -7 336 -68 416 -63 83 -201 125 -307 94z"/>
<path d="M4850 2841 c-115 -37 -175 -119 -174 -237 l1 -71 -121 -32 c-166 -44
-275 -98 -352 -175 -98 -99 -137 -201 -137 -366 0 -80 5 -109 32 -190 33 -98
74 -179 123 -241 15 -20 28 -39 28 -42 0 -2 -13 -10 -29 -16 -15 -7 -43 -28
-62 -47 -18 -19 -40 -34 -49 -34 -9 0 -71 16 -139 35 -221 62 -348 66 -485 15
-136 -51 -309 -199 -434 -371 -34 -47 -73 -91 -87 -97 -14 -7 -47 -31 -73 -55
-67 -62 -92 -77 -128 -77 -86 0 -200 156 -303 416 -18 45 -46 95 -62 112 -122
125 -339 44 -339 -126 0 -120 200 -483 348 -631 119 -119 220 -163 372 -163
139 0 256 46 366 145 27 24 63 51 81 60 36 19 55 42 126 151 62 97 172 215
235 253 70 42 158 39 322 -11 116 -35 132 -37 225 -34 88 3 108 8 165 35 78
38 161 109 184 157 9 19 16 57 16 85 0 49 1 51 28 51 35 0 121 41 149 71 32
35 63 108 63 150 0 66 -29 126 -100 204 -70 77 -105 148 -98 197 4 30 48 51
178 84 208 52 312 125 378 263 34 70 36 83 40 191 7 179 -30 270 -128 320 -43
22 -124 33 -160 21z"/>
<path d="M3240 2444 c-117 -20 -165 -32 -319 -75 -273 -77 -307 -89 -335 -117
-107 -113 -47 -297 104 -318 36 -5 77 4 205 41 178 51 310 81 411 91 l67 7 -8
-49 c-16 -95 -6 -148 40 -202 38 -45 79 -64 137 -64 104 1 166 61 199 192 43
168 10 313 -93 405 -71 64 -139 87 -273 90 -60 2 -121 2 -135 -1z"/>
</g>
</svg>
