<?xml version="1.0" standalone="no"?>
<!DOCTYPE svg PUBLIC "-//W3C//DTD SVG 20010904//EN"
 "http://www.w3.org/TR/2001/REC-SVG-20010904/DTD/svg10.dtd">
<svg version="1.0" xmlns="http://www.w3.org/2000/svg"
 width="600.000000pt" height="600.000000pt" viewBox="0 0 600.000000 600.000000"
 preserveAspectRatio="xMidYMid meet">
<metadata>
Created by potrace 1.15, written by Peter Selinger 2001-2017
</metadata>
<g transform="translate(0.000000,600.000000) scale(0.100000,-0.100000)"
fill="#16364b" stroke="none">
<path d="M2223 5837 c-17 -7 -94 -71 -170 -143 -76 -72 -185 -173 -243 -224
-324 -291 -397 -397 -344 -503 26 -52 64 -86 121 -107 131 -49 292 -12 718
165 115 48 227 96 248 106 135 69 93 289 -56 289 -24 0 -78 -18 -149 -51 -141
-64 -280 -120 -285 -115 -2 2 22 25 54 51 74 60 193 174 260 247 57 64 71 110
54 175 -17 63 -94 124 -154 122 -12 0 -36 -5 -54 -12z"/>
<path d="M3054 5660 c-103 -51 -111 -199 -13 -251 19 -10 86 -30 150 -44 190
-42 300 -109 350 -213 31 -65 32 -180 2 -237 -44 -83 -132 -146 -294 -210
-101 -40 -123 -55 -145 -97 -41 -79 10 -172 109 -199 48 -13 99 1 232 66 284
137 421 345 402 610 -10 140 -67 265 -164 361 -104 102 -251 172 -450 213
-125 26 -128 26 -179 1z"/>
<path d="M947 5326 c-125 -53 -221 -141 -278 -254 -74 -147 -62 -344 31 -506
53 -94 175 -199 246 -212 116 -22 214 83 184 196 -12 44 -37 74 -117 137 -50
40 -93 122 -93 177 0 43 27 97 63 127 12 10 52 34 89 54 75 40 102 69 120 126
15 51 -1 105 -42 144 -43 41 -122 45 -203 11z"/>
<path d="M2698 4955 c-107 -39 -220 -145 -271 -253 -28 -58 -32 -77 -31 -147
0 -66 5 -90 29 -140 74 -157 280 -277 450 -263 51 4 62 9 91 41 83 90 33 233
-88 252 -137 21 -186 59 -180 141 3 30 66 89 111 104 22 7 55 28 73 47 29 30
33 40 33 91 0 41 -6 65 -20 84 -40 55 -119 72 -197 43z"/>
<path d="M4794 4937 c-88 -52 -114 -98 -114 -209 0 -307 166 -551 375 -552
103 -1 205 67 256 172 19 39 24 63 24 137 0 82 -3 96 -32 150 -59 115 -151
194 -320 279 -77 38 -148 47 -189 23z"/>
<path d="M1875 4458 c-85 -16 -172 -64 -245 -137 -52 -50 -70 -76 -75 -104
-13 -70 8 -122 66 -161 79 -51 148 -40 210 34 47 55 98 85 132 74 12 -4 37
-18 55 -32 115 -88 288 18 251 153 -22 77 -129 153 -248 175 -62 11 -77 11
-146 -2z"/>
<path d="M2696 3868 c-32 -4 -73 -16 -90 -26 -36 -20 -76 -92 -76 -137 0 -46
40 -117 79 -139 26 -15 50 -19 107 -18 l74 2 0 -47 c0 -95 -92 -262 -236 -431
-127 -150 -126 -149 -122 -215 5 -64 33 -103 100 -138 86 -44 136 -20 251 119
116 142 179 236 237 357 62 128 83 207 84 320 1 124 -20 182 -93 256 -84 84
-184 115 -315 97z"/>
<path d="M4261 3805 c-141 -31 -275 -125 -335 -236 -114 -208 65 -454 315
-437 167 12 279 127 395 403 24 57 44 117 44 133 0 33 -33 86 -71 114 -48 36
-232 48 -348 23z m-16 -345 c-30 -31 -49 -37 -60 -20 -7 11 52 50 74 50 10 0
5 -11 -14 -30z"/>
<path d="M1165 3765 c-89 -20 -235 -73 -276 -100 -46 -29 -89 -113 -89 -169 1
-120 114 -215 224 -187 22 5 42 9 43 7 2 -2 -55 -122 -127 -267 -269 -545
-306 -714 -183 -831 57 -55 140 -72 209 -43 36 15 336 276 464 405 42 41 121
130 178 197 99 118 119 139 127 131 8 -8 -27 -260 -49 -353 -38 -155 -114
-378 -228 -662 -65 -164 -68 -186 -28 -250 22 -36 85 -73 126 -73 37 0 90 27
109 57 9 13 27 52 40 86 13 34 52 132 88 217 139 335 187 491 212 694 8 67 22
154 31 194 21 94 15 317 -10 374 -44 102 -137 152 -239 129 -92 -20 -210 -117
-377 -309 -34 -40 -64 -71 -66 -69 -2 2 30 82 72 178 96 220 123 297 130 379
8 84 -8 141 -52 190 -69 77 -197 106 -329 75z"/>
<path d="M3466 3370 c-22 -11 -49 -29 -60 -40 -63 -58 -135 -247 -139 -361 -2
-72 23 -116 83 -146 110 -56 349 3 427 105 48 64 68 142 55 214 -6 31 -19 74
-28 95 -24 50 -86 110 -137 134 -56 25 -149 25 -201 -1z"/>
<path d="M4855 2782 c-41 -25 -187 -182 -232 -250 -102 -154 -107 -311 -14
-395 22 -20 58 -41 81 -47 109 -29 268 57 364 197 64 94 102 268 76 347 -12
38 -97 133 -137 154 -33 18 -104 14 -138 -6z"/>
<path d="M4195 2436 c-58 -27 -88 -57 -110 -108 -20 -50 -19 -95 7 -210 12
-54 19 -100 16 -103 -2 -3 -31 6 -63 20 -121 54 -235 67 -321 38 -70 -23 -171
-127 -202 -207 -30 -77 -38 -195 -23 -322 19 -152 70 -403 91 -443 38 -76 103
-111 202 -111 157 0 259 135 224 296 -7 32 -21 98 -31 146 -11 48 -16 90 -13
94 4 3 26 -5 50 -20 134 -80 175 -89 276 -60 153 44 242 127 277 259 30 111 5
358 -60 580 -41 142 -191 212 -320 151z"/>
<path d="M2870 2314 c-108 -23 -248 -75 -391 -146 -106 -52 -145 -77 -175
-111 -39 -44 -40 -45 -114 -49 -86 -4 -139 -26 -215 -89 -77 -63 -105 -111
-105 -179 0 -46 6 -65 30 -102 36 -54 108 -96 179 -105 l50 -6 24 -101 23
-101 -67 -33 c-140 -67 -219 -208 -219 -390 0 -249 188 -516 446 -633 82 -37
212 -75 290 -84 127 -14 302 31 463 119 111 60 142 98 149 180 9 114 -81 206
-201 206 -44 0 -76 -10 -168 -52 -139 -63 -183 -69 -280 -38 -127 41 -241 135
-304 251 -30 56 -31 102 -1 107 10 2 45 -14 77 -37 72 -51 176 -85 237 -78 90
10 172 102 172 192 0 57 -34 115 -97 164 -85 67 -127 155 -169 364 -28 139
-29 157 -8 157 8 0 70 29 137 64 190 101 357 167 357 141 0 -4 -7 -33 -15 -65
-23 -88 -78 -211 -157 -349 -76 -133 -91 -185 -68 -243 55 -139 255 -172 343
-57 48 64 208 400 247 517 67 208 74 315 25 412 -79 155 -270 223 -495 174z"/>
</g>
</svg>
