<?xml version="1.0" standalone="no"?>
<!DOCTYPE svg PUBLIC "-//W3C//DTD SVG 20010904//EN"
 "http://www.w3.org/TR/2001/REC-SVG-20010904/DTD/svg10.dtd">
<svg version="1.0" xmlns="http://www.w3.org/2000/svg"
 width="600.000000pt" height="600.000000pt" viewBox="0 0 600.000000 600.000000"
 preserveAspectRatio="xMidYMid meet">
<metadata>
Created by potrace 1.15, written by Peter Selinger 2001-2017
</metadata>
<g transform="translate(0.000000,600.000000) scale(0.100000,-0.100000)"
fill="#16364b" stroke="none">
<path d="M3085 5627 c-65 -65 -64 -132 3 -245 70 -117 163 -211 355 -357 37
-27 69 -56 72 -64 11 -28 -64 -89 -355 -289 -44 -30 -117 -68 -177 -91 -130
-49 -203 -92 -263 -158 -132 -144 -49 -324 146 -311 58 4 68 7 101 40 29 29
37 45 41 86 5 56 16 64 97 78 56 9 72 19 317 180 322 212 407 308 416 470 7
130 -46 204 -237 332 -136 90 -234 184 -280 265 -42 73 -78 97 -149 97 -48 0
-58 -4 -87 -33z"/>
<path d="M1183 5361 c-144 -52 -286 -192 -351 -346 -53 -125 -67 -289 -37
-423 22 -96 82 -212 124 -239 71 -48 171 -21 212 57 25 47 24 91 -6 175 -43
123 -29 248 42 353 36 52 91 98 171 143 24 13 52 37 62 55 52 84 -4 205 -108
234 -47 13 -47 13 -109 -9z"/>
<path d="M1720 5278 c-72 -37 -111 -141 -79 -211 9 -20 4 -34 -35 -99 -87
-143 -110 -204 -111 -290 0 -69 3 -80 30 -119 64 -91 146 -121 329 -121 140 0
237 15 285 44 99 61 94 189 -10 247 -46 26 -78 29 -218 16 -57 -5 -92 -5 -90
1 2 5 28 53 57 106 95 174 115 281 69 363 -26 47 -92 85 -147 85 -20 0 -56
-10 -80 -22z"/>
<path d="M4553 4645 c-66 -57 -79 -140 -32 -206 22 -31 75 -59 116 -60 25 0
24 -2 -12 -13 -89 -28 -125 -69 -125 -144 0 -88 72 -141 192 -142 96 0 208 27
302 74 66 34 87 50 114 90 61 91 39 213 -54 295 -81 71 -239 127 -389 138 -69
5 -70 5 -112 -32z"/>
<path d="M1784 4261 c-86 -23 -177 -68 -260 -127 -114 -81 -149 -143 -125
-224 36 -120 170 -167 259 -91 117 100 209 141 317 141 122 0 183 39 192 124
8 65 -25 128 -84 163 -62 36 -195 42 -299 14z"/>
<path d="M2590 3749 c-84 -15 -220 -58 -267 -85 -44 -25 -83 -89 -83 -137 0
-65 50 -131 112 -148 32 -8 55 -6 135 16 58 16 127 27 172 28 l76 2 -3 -30
c-5 -62 -97 -221 -406 -701 -89 -138 41 -302 189 -240 36 15 39 20 256 356 92
144 187 329 223 440 38 113 46 250 21 317 -54 142 -229 217 -425 182z"/>
<path d="M4080 3750 c-97 -17 -182 -76 -221 -153 -28 -53 -28 -149 -1 -208 53
-119 177 -201 314 -208 102 -4 167 17 224 74 89 90 125 214 79 279 -28 40 -30
45 -52 101 -12 31 -30 57 -49 70 -53 36 -210 60 -294 45z"/>
<path d="M1160 3580 c-81 -14 -215 -81 -318 -157 -68 -51 -94 -162 -55 -240
30 -61 83 -96 153 -101 32 -2 73 1 91 7 18 6 34 9 36 7 2 -1 -24 -68 -58 -147
-123 -287 -233 -654 -234 -779 0 -70 2 -79 32 -116 40 -51 107 -84 198 -97 92
-13 119 -3 182 72 26 31 122 142 214 246 91 105 214 249 274 320 60 72 112
132 117 133 20 9 0 -201 -33 -338 -12 -47 -43 -161 -69 -255 -86 -301 -102
-375 -107 -480 -4 -88 -2 -104 16 -132 42 -67 153 -93 230 -54 61 32 73 60 76
175 3 122 27 241 106 528 94 346 93 336 93 573 0 190 -2 217 -23 285 -53 172
-191 215 -339 106 -70 -53 -240 -231 -371 -389 -30 -37 -57 -64 -59 -58 -2 5
18 62 43 128 26 65 67 177 93 248 41 116 46 139 46 220 1 72 -3 99 -20 136
-56 120 -182 184 -314 159z"/>
<path d="M3600 3281 c-56 -18 -127 -61 -161 -98 -50 -53 -74 -96 -99 -181 -36
-119 -19 -186 61 -240 47 -33 141 -28 190 9 27 20 50 27 108 32 151 12 240 90
249 216 10 142 -102 259 -256 267 -37 2 -78 0 -92 -5z"/>
<path d="M4692 3023 c-60 -29 -77 -66 -77 -168 0 -85 3 -95 43 -179 26 -56 42
-103 42 -127 0 -64 58 -117 149 -138 58 -13 107 3 153 49 35 35 38 42 38 95 0
52 -7 70 -65 180 -43 81 -65 134 -65 156 0 111 -118 182 -218 132z"/>
<path d="M2851 2575 c-112 -29 -429 -180 -478 -227 -95 -92 -77 -238 37 -299
60 -33 114 -25 236 32 104 50 263 109 291 109 7 0 13 -7 13 -15 0 -34 -75
-229 -147 -385 -49 -105 -52 -137 -18 -205 38 -78 87 -110 170 -110 51 0 70 6
110 30 115 72 249 393 284 681 26 212 -49 348 -219 398 -75 22 -169 19 -279
-9z"/>
<path d="M4416 2290 c-36 -24 -53 -43 -74 -88 -24 -51 -26 -67 -24 -159 l2
-101 -53 14 c-158 43 -313 61 -405 45 -200 -33 -302 -151 -305 -356 -2 -152
14 -518 24 -552 24 -76 96 -125 188 -126 73 0 135 27 187 85 62 67 67 93 62
310 -2 103 -2 188 2 188 13 0 156 -51 190 -68 51 -25 236 -24 306 2 114 42
196 132 235 256 40 128 34 361 -11 450 -43 84 -119 129 -216 130 -50 0 -68 -5
-108 -30z"/>
<path d="M2137 1865 c-48 -17 -85 -50 -103 -94 -19 -45 -18 -63 11 -215 13
-72 31 -183 40 -246 40 -290 108 -424 273 -543 94 -68 250 -147 303 -154 53
-8 101 3 144 33 l37 25 116 -65 c146 -80 210 -100 311 -94 92 5 185 46 255
111 73 67 86 160 33 237 -37 55 -71 74 -140 78 -54 3 -72 0 -116 -23 -64 -32
-77 -30 -181 28 -41 23 -93 51 -114 62 -58 29 -224 181 -240 218 -37 89 -116
141 -205 134 -31 -2 -66 -7 -77 -11 -19 -7 -23 -2 -33 41 -6 26 -22 116 -35
199 -13 83 -31 165 -40 182 -22 43 -81 88 -132 101 -53 14 -60 13 -107 -4z"/>
</g>
</svg>
