<?xml version="1.0" standalone="no"?>
<!DOCTYPE svg PUBLIC "-//W3C//DTD SVG 20010904//EN"
 "http://www.w3.org/TR/2001/REC-SVG-20010904/DTD/svg10.dtd">
<svg version="1.0" xmlns="http://www.w3.org/2000/svg"
 width="600.000000pt" height="600.000000pt" viewBox="0 0 600.000000 600.000000"
 preserveAspectRatio="xMidYMid meet">
<metadata>
Created by potrace 1.15, written by Peter Selinger 2001-2017
</metadata>
<g transform="translate(0.000000,600.000000) scale(0.100000,-0.100000)"
fill="#16364b" stroke="none">
<path d="M2805 5565 c-47 -17 -104 -78 -107 -114 -2 -43 3 -85 13 -104 22 -39
41 -191 44 -345 l3 -164 29 -36 c69 -86 192 -72 243 27 47 94 44 384 -6 558
-33 115 -50 143 -104 171 -51 25 -61 26 -115 7z"/>
<path d="M1938 5430 c-76 -41 -101 -134 -53 -204 14 -21 62 -84 108 -140 45
-57 123 -161 172 -231 166 -237 195 -265 275 -265 100 0 166 91 131 182 -9 23
-293 425 -355 503 -18 22 -47 62 -65 88 -58 85 -133 109 -213 67z"/>
<path d="M1437 4789 c-90 -14 -144 -127 -101 -212 37 -73 88 -107 160 -107
131 0 391 -56 482 -105 54 -29 97 -32 149 -10 48 20 71 41 94 87 24 48 24 79
-1 128 -17 33 -34 47 -98 79 -106 53 -205 87 -323 111 -111 23 -305 38 -362
29z"/>
<path d="M4360 4782 c-47 -23 -80 -75 -80 -124 0 -55 35 -224 66 -316 29 -86
100 -224 141 -273 51 -60 135 -76 193 -36 82 55 96 129 42 214 -66 104 -115
247 -136 403 -9 64 -39 108 -89 130 -53 24 -92 25 -137 2z"/>
<path d="M3142 4513 c-22 -10 -58 -50 -102 -112 -93 -131 -165 -207 -317 -334
-71 -59 -137 -121 -147 -138 -50 -85 4 -207 100 -225 68 -13 99 2 227 109 176
147 260 229 348 339 111 139 133 179 127 233 -13 110 -136 177 -236 128z"/>
<path d="M2300 4311 c-65 -37 -274 -51 -425 -29 -76 11 -85 10 -120 -8 -50
-26 -75 -60 -82 -112 -7 -54 26 -124 73 -153 91 -56 446 -65 600 -15 94 30
127 53 154 107 35 68 20 142 -39 192 -27 23 -42 27 -89 27 -31 0 -64 -4 -72
-9z"/>
<path d="M3828 4175 c-14 -8 -56 -52 -92 -99 -78 -100 -181 -207 -255 -265
-105 -82 -283 -172 -478 -243 -91 -33 -128 -65 -139 -123 -10 -56 4 -106 41
-141 55 -51 84 -51 242 0 159 52 258 98 358 164 115 77 470 435 514 519 26 51
8 124 -43 172 -32 30 -108 38 -148 16z"/>
<path d="M5022 3759 c-71 -35 -122 -120 -122 -201 0 -24 7 -75 15 -113 40
-188 -7 -386 -136 -576 -45 -67 -177 -204 -272 -283 -65 -54 -96 -105 -104
-176 -12 -100 54 -221 141 -261 54 -25 148 -24 202 0 75 34 272 238 411 427
110 149 195 344 229 521 33 177 -3 468 -71 571 -66 101 -194 140 -293 91z"/>
<path d="M2240 3749 c-143 -30 -321 -42 -432 -29 -92 12 -99 11 -142 -10 -84
-40 -119 -141 -76 -217 12 -22 34 -47 48 -55 62 -37 343 -52 512 -29 140 20
281 54 313 75 103 69 101 193 -3 264 -40 27 -97 27 -220 1z"/>
<path d="M4414 3127 c-11 -7 -49 -40 -85 -73 -86 -83 -111 -103 -197 -159
-182 -117 -363 -172 -695 -209 -80 -9 -137 -20 -153 -31 -84 -55 -86 -197 -3
-256 62 -44 237 -34 489 28 273 67 598 234 783 403 98 90 117 156 67 238 -29
47 -76 72 -135 72 -27 -1 -59 -6 -71 -13z"/>
<path d="M1935 3101 c-61 -28 -91 -92 -74 -156 33 -118 244 -216 463 -214 253
1 351 50 351 174 0 60 -20 95 -75 133 -37 25 -103 29 -180 11 -25 -6 -81 -11
-126 -11 -75 -1 -87 2 -166 41 -95 46 -133 50 -193 22z"/>
<path d="M1465 2931 c-77 -35 -104 -84 -129 -227 -20 -114 -20 -279 0 -385 25
-135 102 -386 145 -475 49 -101 139 -209 198 -241 51 -27 133 -31 184 -9 44
18 93 76 101 120 10 51 -8 106 -57 173 -23 32 -50 70 -59 85 -33 51 -89 199
-115 305 -24 97 -26 123 -24 263 2 85 4 183 4 217 1 54 -3 68 -29 105 -33 48
-101 88 -149 88 -16 0 -48 -9 -70 -19z"/>
<path d="M2150 2348 c-47 -32 -83 -102 -75 -148 12 -64 36 -100 101 -146 88
-63 308 -166 366 -172 94 -9 176 72 165 165 -3 25 -13 57 -24 71 -10 14 -68
51 -127 83 -60 32 -143 82 -185 111 -64 44 -85 52 -131 56 -45 3 -61 0 -90
-20z"/>
<path d="M4195 2055 c-150 -59 -596 -202 -696 -224 -123 -26 -296 -48 -439
-56 -63 -4 -129 -11 -146 -16 -36 -11 -89 -63 -103 -102 -16 -40 -13 -119 4
-158 36 -84 92 -119 188 -119 127 0 437 56 687 125 69 19 204 54 300 79 282
71 450 141 504 209 25 31 31 49 34 100 4 73 -16 112 -86 161 -65 46 -132 46
-247 1z"/>
<path d="M4911 1735 c-18 -9 -70 -50 -115 -93 -92 -89 -166 -147 -281 -219
-225 -141 -319 -169 -635 -193 -213 -16 -247 -24 -296 -74 -83 -82 -84 -200
-5 -282 53 -54 87 -58 295 -40 420 38 559 76 796 220 223 136 461 337 495 420
8 19 15 59 15 89 0 134 -143 226 -269 172z"/>
<path d="M1974 1366 c-17 -8 -44 -30 -59 -50 -23 -30 -28 -47 -28 -91 0 -78
30 -119 144 -195 121 -80 207 -123 337 -167 96 -32 121 -37 238 -41 88 -3 143
-1 168 8 106 35 158 150 104 230 -44 64 -67 73 -196 81 -64 4 -146 14 -182 24
-82 21 -233 92 -313 146 -102 70 -150 82 -213 55z"/>
<path d="M1995 883 c-74 -39 -115 -104 -115 -183 0 -109 40 -144 285 -245 337
-140 707 -167 1060 -78 104 26 145 75 145 173 0 107 -45 185 -124 215 -43 17
-48 16 -198 -13 -350 -70 -531 -51 -801 84 -139 70 -191 80 -252 47z"/>
</g>
</svg>
