<?xml version="1.0" standalone="no"?>
<!DOCTYPE svg PUBLIC "-//W3C//DTD SVG 20010904//EN"
 "http://www.w3.org/TR/2001/REC-SVG-20010904/DTD/svg10.dtd">
<svg version="1.0" xmlns="http://www.w3.org/2000/svg"
 width="600.000000pt" height="600.000000pt" viewBox="0 0 600.000000 600.000000"
 preserveAspectRatio="xMidYMid meet">
<metadata>
Created by potrace 1.15, written by Peter Selinger 2001-2017
</metadata>
<g transform="translate(0.000000,600.000000) scale(0.100000,-0.100000)"
fill="#16364b" stroke="none">
<path d="M3150 5643 c-23 -8 -60 -45 -75 -73 -7 -14 -20 -60 -29 -104 -56
-275 38 -415 347 -511 48 -15 87 -29 87 -31 0 -2 -21 -15 -47 -30 -408 -233
-593 -371 -593 -446 0 -9 -11 -34 -25 -54 -48 -71 -28 -160 49 -219 61 -47
141 -64 340 -75 99 -5 204 -12 231 -15 122 -14 207 111 145 212 -27 46 -65 61
-177 74 -54 6 -123 14 -153 17 l-54 7 89 61 c50 33 168 107 264 165 249 149
311 211 311 314 0 130 -114 222 -377 304 -167 52 -171 56 -153 171 14 93 10
139 -19 179 -34 48 -109 73 -161 54z"/>
<path d="M1355 5409 c-151 -80 -308 -260 -406 -464 -56 -117 -85 -225 -101
-385 -11 -109 -10 -117 10 -162 37 -85 127 -118 209 -76 68 34 87 64 91 151 5
100 5 101 47 76 44 -26 92 -23 228 15 54 15 104 26 111 24 10 -2 3 -29 -25
-103 -54 -143 -75 -267 -59 -348 6 -34 18 -74 26 -89 14 -27 14 -27 -56 -72
-104 -67 -138 -155 -90 -233 44 -73 116 -90 200 -46 30 16 111 59 180 95 69
37 164 80 212 97 119 41 143 55 173 98 47 70 24 161 -52 206 -43 25 -95 24
-182 -4 -72 -23 -73 -23 -87 -4 -20 27 -18 40 22 155 88 257 102 354 65 436
-22 49 -78 97 -130 113 -64 19 -194 13 -328 -15 -69 -14 -127 -24 -129 -21 -7
6 75 118 125 171 25 26 70 66 98 87 68 51 87 87 81 155 -11 127 -127 199 -233
143z"/>
<path d="M4640 4505 c-146 -21 -247 -42 -282 -60 -99 -47 -104 -200 -9 -250
38 -19 76 -19 197 0 53 9 100 15 105 13 5 -2 -57 -79 -138 -173 -80 -93 -152
-185 -160 -204 -18 -41 -9 -100 19 -136 42 -54 125 -73 184 -42 16 8 83 75
150 148 244 270 320 382 331 490 9 94 -45 177 -136 208 -56 18 -159 21 -261 6z"/>
<path d="M3886 3700 c-40 -13 -66 -38 -88 -88 -36 -80 -6 -160 103 -276 69
-74 179 -166 229 -191 102 -52 210 18 210 137 0 54 -25 96 -82 139 -43 32 -44
34 -43 90 0 87 -37 127 -157 169 -68 23 -135 31 -172 20z"/>
<path d="M2485 3656 c-209 -56 -343 -131 -361 -201 -16 -63 23 -143 85 -175
58 -29 110 -26 195 14 84 40 167 66 208 66 27 0 28 -2 28 -53 0 -118 -94 -315
-299 -627 -61 -92 -63 -97 -59 -151 3 -35 12 -66 25 -85 11 -16 24 -43 27 -60
10 -43 62 -103 110 -125 72 -33 124 -25 324 46 187 67 212 73 212 54 0 -21
-88 -235 -140 -339 -47 -96 -51 -110 -48 -162 8 -109 83 -178 193 -178 63 0
86 9 132 53 40 38 74 118 169 398 102 304 110 362 63 469 -74 167 -258 215
-529 136 -44 -13 -80 -20 -80 -16 0 3 34 70 75 148 163 306 187 441 110 611
-78 169 -234 232 -440 177z"/>
<path d="M1132 3459 c-134 -23 -371 -188 -408 -284 -49 -129 52 -256 192 -242
28 3 66 13 84 22 l33 17 -7 -43 c-4 -24 -34 -146 -67 -270 -82 -310 -99 -405
-99 -550 0 -136 14 -178 73 -223 66 -50 218 -72 268 -38 15 9 57 55 95 102 37
47 102 126 143 175 109 128 154 190 271 364 102 151 104 153 117 127 24 -46
-3 -219 -91 -576 -101 -412 -102 -575 -2 -674 48 -48 92 -61 152 -44 81 22
130 113 104 191 -26 78 -16 166 58 532 90 446 99 522 83 714 -17 192 -32 244
-85 297 -57 57 -108 71 -184 49 -47 -14 -68 -29 -127 -88 -39 -40 -106 -121
-150 -182 -116 -162 -247 -336 -251 -333 -1 2 19 74 46 161 68 220 91 333 91
448 0 109 -5 136 -37 199 -57 113 -173 171 -302 149z"/>
<path d="M4532 3370 c-104 -63 -103 -217 1 -268 23 -11 89 -43 147 -71 58 -28
116 -59 129 -69 l24 -19 -32 -59 c-17 -32 -63 -101 -101 -153 -40 -54 -72
-109 -76 -129 -20 -106 88 -206 189 -173 40 14 74 48 154 161 120 169 159 266
151 374 -13 153 -95 240 -347 366 -133 67 -181 75 -239 40z"/>
<path d="M3706 3199 c-149 -35 -316 -199 -333 -327 -7 -50 26 -115 70 -142 91
-56 188 -26 238 72 15 30 24 38 37 33 41 -16 120 -17 182 -1 75 19 127 55 146
102 68 162 -127 313 -340 263z"/>
<path d="M4623 2229 c-23 -4 -54 -14 -70 -22 -66 -35 -122 -128 -123 -204 0
-52 2 -52 -165 -18 -264 54 -445 19 -564 -110 -84 -91 -113 -201 -131 -492 -5
-94 -10 -185 -10 -202 0 -53 -24 -48 -100 19 -39 34 -88 76 -109 94 -22 17
-70 57 -109 88 -168 140 -342 156 -468 45 -46 -40 -116 -140 -155 -222 l-24
-50 -7 60 c-4 33 -14 123 -23 200 -20 188 -54 298 -106 347 -37 35 -90 58
-134 58 -71 0 -164 -62 -192 -127 -15 -38 -17 -114 -3 -163 6 -19 21 -120 35
-225 56 -423 96 -527 250 -652 76 -61 203 -127 277 -143 72 -16 127 -1 176 48
48 48 66 106 57 182 -5 39 -1 85 10 141 20 96 53 209 62 209 7 0 122 -97 193
-164 151 -142 225 -181 345 -181 70 0 89 4 145 32 77 38 146 105 165 159 9 26
24 45 47 57 46 26 96 76 118 118 24 46 37 124 50 293 6 77 13 142 16 145 3 3
51 -3 107 -13 226 -39 304 -42 425 -11 150 38 261 164 296 337 20 96 20 150 1
215 -32 108 -159 176 -282 152z"/>
</g>
</svg>
