<?xml version="1.0" standalone="no"?>
<!DOCTYPE svg PUBLIC "-//W3C//DTD SVG 20010904//EN"
 "http://www.w3.org/TR/2001/REC-SVG-20010904/DTD/svg10.dtd">
<svg version="1.0" xmlns="http://www.w3.org/2000/svg"
 width="600.000000pt" height="600.000000pt" viewBox="0 0 600.000000 600.000000"
 preserveAspectRatio="xMidYMid meet">
<metadata>
Created by potrace 1.15, written by Peter Selinger 2001-2017
</metadata>
<g transform="translate(0.000000,600.000000) scale(0.100000,-0.100000)"
fill="#16364b" stroke="none">
<path d="M2675 5516 c-40 -18 -56 -37 -103 -126 -78 -145 -90 -240 -44 -331
50 -99 141 -136 312 -126 58 4 132 10 165 13 l60 6 -176 -178 c-188 -191 -274
-293 -339 -403 -46 -77 -57 -121 -42 -173 15 -55 73 -136 109 -153 21 -10 88
-19 195 -25 216 -14 434 -36 560 -59 147 -26 203 -5 228 88 21 80 -29 169
-109 191 -51 14 -292 47 -448 61 -93 8 -133 15 -133 24 0 7 114 131 253 275
138 144 262 278 274 298 29 47 43 114 33 158 -18 80 -100 152 -205 179 -80 20
-114 19 -294 -10 -84 -14 -156 -23 -159 -20 -3 3 10 37 28 76 22 44 34 84 34
108 -3 106 -103 169 -199 127z"/>
<path d="M1620 5161 c-121 -47 -254 -144 -392 -284 -106 -107 -196 -233 -223
-312 -23 -65 -8 -125 41 -172 44 -41 88 -49 183 -34 104 17 332 25 350 13 12
-9 12 -26 -3 -117 -26 -154 -26 -217 0 -251 32 -43 70 -67 116 -74 42 -6 40
-7 -103 -53 -81 -26 -159 -57 -173 -68 -75 -59 -74 -167 2 -224 46 -34 120
-32 267 8 186 51 307 93 411 143 84 40 94 47 114 89 47 98 -10 208 -116 222
-32 4 -60 -4 -147 -41 -59 -25 -112 -46 -117 -46 -5 0 2 16 15 36 14 20 25 40
25 44 0 5 9 61 20 125 24 139 26 247 5 304 -45 129 -162 204 -337 218 -43 3
-78 9 -78 13 0 26 207 173 259 185 15 3 43 22 62 41 33 34 34 38 34 110 0 74
-1 76 -37 110 -32 29 -45 34 -85 34 -27 -1 -68 -9 -93 -19z"/>
<path d="M4328 4698 c-84 -10 -150 -34 -263 -99 -124 -70 -154 -95 -176 -143
-36 -79 -16 -153 53 -197 49 -30 108 -22 193 28 69 40 174 84 228 97 21 5 27
3 27 -10 0 -31 -72 -199 -166 -386 -124 -246 -125 -266 -6 -380 41 -39 70 -58
93 -62 19 -3 138 -7 264 -10 127 -2 238 -7 248 -11 14 -6 17 -14 11 -39 -17
-80 -105 -311 -173 -456 -44 -93 -41 -149 12 -208 47 -51 153 -48 207 6 32 33
190 389 226 509 18 62 26 114 27 178 1 81 -2 97 -26 147 -66 134 -186 178
-488 178 -87 0 -139 4 -139 10 0 6 35 81 79 168 43 86 90 190 105 230 104 291
-39 483 -336 450z"/>
<path d="M3752 3675 c-89 -25 -162 -69 -248 -151 -72 -69 -84 -90 -84 -151 0
-44 5 -58 31 -88 38 -42 93 -60 145 -46 20 5 59 32 88 59 44 42 121 92 141 92
23 0 -21 -146 -91 -300 -34 -75 -49 -99 -76 -114 -97 -55 -160 -102 -178 -131
-28 -45 -27 -112 3 -156 52 -78 141 -88 243 -27 32 20 129 64 214 98 190 76
218 90 251 127 63 67 76 146 37 223 -21 40 -64 74 -120 92 -4 2 1 39 12 82 11
44 20 104 20 135 0 182 -194 310 -388 256z"/>
<path d="M2393 3480 c-134 -35 -284 -101 -325 -142 -90 -90 -45 -234 79 -254
32 -5 62 1 144 29 121 42 253 67 318 61 25 -3 47 -7 50 -10 3 -2 -1 -32 -8
-67 -13 -65 -51 -149 -103 -231 -43 -66 -49 -137 -16 -185 44 -64 128 -88 202
-57 43 18 70 47 113 124 113 201 144 423 79 556 -34 69 -110 138 -184 167 -82
32 -249 36 -349 9z"/>
<path d="M1168 3210 c-39 -11 -151 -75 -188 -106 -57 -49 -86 -132 -69 -199
23 -86 98 -145 184 -145 l46 0 -6 -112 c-4 -62 -18 -192 -31 -288 -29 -210
-30 -315 -5 -436 21 -102 37 -137 78 -176 36 -35 73 -48 131 -48 92 0 166 72
258 250 62 121 259 414 345 514 35 40 43 45 51 32 20 -36 40 -178 40 -291 0
-139 -7 -183 -68 -435 -41 -169 -44 -189 -33 -228 33 -120 191 -139 271 -31
18 24 99 362 118 494 32 228 -12 606 -85 731 -46 78 -127 124 -218 124 -121 0
-239 -94 -401 -318 -49 -67 -90 -121 -92 -119 -2 2 1 41 8 88 6 46 12 176 12
289 1 201 0 206 -25 260 -32 68 -69 106 -134 136 -52 25 -132 31 -187 14z"/>
<path d="M4789 2645 c-98 -31 -169 -127 -169 -226 0 -42 0 -42 -110 -54 -266
-30 -466 -175 -531 -384 -43 -140 -21 -353 53 -513 l31 -69 -25 -26 -26 -25
-108 55 c-153 77 -227 98 -344 98 -139 0 -231 -36 -365 -141 -113 -90 -207
-215 -280 -372 -22 -48 -45 -87 -51 -88 -7 0 -36 -18 -65 -40 -30 -22 -61 -40
-70 -40 -28 0 -100 89 -139 173 -41 88 -71 190 -95 330 -17 100 -32 134 -74
170 -71 59 -161 60 -228 2 -80 -68 -90 -139 -49 -341 54 -261 148 -466 271
-590 69 -69 141 -107 238 -125 125 -23 263 21 380 121 32 28 62 50 67 50 24 0
76 62 112 134 60 120 103 183 177 260 72 74 123 106 172 106 17 0 81 -24 144
-55 63 -30 139 -61 169 -70 69 -20 186 -21 249 -2 109 34 216 131 238 217 8
32 20 52 33 58 43 19 90 68 112 117 33 70 31 128 -5 196 -68 126 -85 166 -89
217 l-4 52 46 21 c26 11 100 32 164 45 214 45 285 77 361 159 133 145 162 408
57 523 -53 59 -162 84 -247 57z"/>
<path d="M3195 2553 c-163 -22 -555 -113 -615 -143 -116 -58 -133 -209 -36
-306 53 -53 109 -72 174 -57 26 6 137 31 247 56 110 25 219 48 243 52 l43 7
-7 -29 c-4 -15 -15 -52 -26 -82 -34 -102 -16 -186 55 -248 82 -72 198 -63 260
19 48 64 97 254 98 377 2 147 -41 252 -124 308 -27 18 -65 37 -85 43 -36 9
-164 11 -227 3z"/>
</g>
</svg>
