<?xml version="1.0" standalone="no"?>
<!DOCTYPE svg PUBLIC "-//W3C//DTD SVG 20010904//EN"
 "http://www.w3.org/TR/2001/REC-SVG-20010904/DTD/svg10.dtd">
<svg version="1.0" xmlns="http://www.w3.org/2000/svg"
 width="600.000000pt" height="600.000000pt" viewBox="0 0 600.000000 600.000000"
 preserveAspectRatio="xMidYMid meet">
<metadata>
Created by potrace 1.15, written by Peter Selinger 2001-2017
</metadata>
<g transform="translate(0.000000,600.000000) scale(0.100000,-0.100000)"
fill="#16364b" stroke="none">
<path d="M1533 5786 c-31 -14 -70 -62 -210 -261 -91 -128 -113 -174 -113 -228
0 -83 64 -127 155 -107 84 19 482 225 515 267 32 40 27 104 -10 147 -47 53
-79 55 -162 11 l-69 -36 27 46 c21 36 25 54 21 82 -12 72 -86 109 -154 79z"/>
<path d="M2348 5411 l-33 -29 -6 -214 c-7 -240 -21 -313 -85 -445 -44 -92 -93
-142 -183 -188 -77 -38 -91 -55 -91 -109 0 -45 47 -101 92 -110 40 -8 129 33
206 94 104 83 203 277 248 485 20 93 35 321 27 415 -5 64 -10 79 -34 102 -39
39 -97 39 -141 -1z"/>
<path d="M3528 5344 c-42 -22 -71 -87 -66 -146 11 -105 116 -261 210 -309 76
-39 169 -15 204 52 55 107 -81 342 -229 398 -67 25 -82 25 -119 5z"/>
<path d="M2989 5134 c-59 -18 -127 -78 -164 -145 -59 -107 -31 -229 62 -275
80 -40 243 -13 301 49 27 30 44 97 44 180 0 93 -30 153 -92 185 -50 25 -85 27
-151 6z"/>
<path d="M4749 4747 c-55 -37 -61 -57 -55 -192 14 -319 140 -518 327 -518 182
0 262 187 167 391 -48 102 -210 261 -322 317 -61 31 -74 31 -117 2z"/>
<path d="M2695 4236 c-134 -42 -203 -132 -193 -250 9 -108 97 -201 214 -227
122 -27 282 32 404 149 54 52 70 75 76 105 9 50 -9 107 -44 145 -64 68 -340
115 -457 78z"/>
<path d="M1088 4094 c-36 -19 -58 -63 -58 -114 0 -85 36 -121 161 -160 54 -17
101 -34 104 -39 11 -19 -111 -53 -230 -65 -66 -7 -130 -18 -143 -25 -59 -32
-81 -134 -41 -185 38 -48 74 -59 165 -52 304 23 554 179 554 345 0 118 -91
192 -344 277 -111 38 -129 40 -168 18z"/>
<path d="M4179 3761 c-74 -29 -139 -81 -180 -144 -108 -167 -61 -366 107 -447
74 -36 188 -34 266 4 127 61 208 186 229 354 11 84 10 97 -6 133 -23 51 -52
71 -139 98 -87 27 -211 28 -277 2z m131 -288 c0 -14 -34 -43 -52 -43 -22 0
-23 8 -1 32 15 17 53 25 53 11z"/>
<path d="M1639 3687 c-40 -27 -57 -59 -68 -127 -37 -236 180 -449 346 -338 73
50 112 142 98 236 -13 90 -88 192 -169 232 -61 29 -161 28 -207 -3z"/>
<path d="M5260 3663 c-100 -17 -225 -79 -276 -136 -142 -157 -116 -391 56
-495 53 -32 58 -33 140 -30 105 5 161 30 235 104 70 69 107 148 113 240 6 98
-26 170 -113 254 -35 33 -69 60 -77 60 -7 0 -22 2 -33 4 -11 2 -31 2 -45 -1z
m-31 -335 c-12 -23 -28 -38 -41 -38 -14 0 -8 20 12 40 27 27 44 26 29 -2z"/>
<path d="M3434 3386 c-45 -20 -97 -86 -153 -197 -56 -109 -61 -138 -31 -186
28 -47 82 -61 149 -38 69 23 123 76 163 161 27 56 33 81 33 136 0 62 -2 70
-30 98 -36 36 -87 46 -131 26z"/>
<path d="M2540 3173 c-230 -25 -409 -91 -615 -227 -91 -61 -138 -86 -305 -164
-305 -141 -467 -424 -447 -781 9 -165 60 -317 142 -424 20 -26 115 -115 213
-199 97 -83 205 -178 239 -209 135 -125 282 -188 459 -196 163 -8 321 25 468
99 105 53 341 195 417 253 94 71 271 235 421 392 94 98 124 137 155 200 l38
78 0 135 c-1 125 -3 142 -32 225 -57 166 -134 277 -323 467 -59 59 -118 123
-131 143 -50 73 -220 168 -356 199 -67 15 -244 20 -343 9z m273 -401 c12 -10
63 -47 112 -80 110 -76 160 -121 259 -237 141 -164 180 -259 143 -345 -20 -49
-173 -229 -273 -324 -139 -131 -213 -187 -414 -313 -184 -115 -300 -150 -418
-124 -100 21 -141 48 -267 179 -66 68 -168 167 -227 219 -141 124 -163 165
-163 308 0 95 2 104 37 176 26 53 54 91 91 125 56 52 66 57 217 127 53 24 152
79 220 122 201 126 298 164 470 185 107 12 187 6 213 -18z"/>
<path d="M384 2261 c-52 -32 -59 -72 -30 -173 64 -218 122 -325 240 -443 104
-103 186 -148 271 -149 73 -1 123 26 163 87 23 34 27 51 26 107 0 79 -29 147
-95 223 -41 48 -250 209 -364 282 -33 21 -73 47 -88 57 -42 29 -87 32 -123 9z
m385 -465 c28 -30 51 -58 51 -61 0 -10 -53 37 -90 79 -50 57 -19 42 39 -18z"/>
<path d="M4595 1833 c-11 -3 -35 -16 -53 -30 l-32 -24 -26 20 c-58 46 -164 19
-199 -49 -38 -74 0 -372 64 -497 60 -118 188 -148 272 -65 41 42 69 117 115
317 34 151 37 223 8 261 -39 53 -98 80 -149 67z"/>
</g>
</svg>
