<?xml version="1.0" standalone="no"?>
<!DOCTYPE svg PUBLIC "-//W3C//DTD SVG 20010904//EN"
 "http://www.w3.org/TR/2001/REC-SVG-20010904/DTD/svg10.dtd">
<svg version="1.0" xmlns="http://www.w3.org/2000/svg"
 width="600.000000pt" height="600.000000pt" viewBox="0 0 600.000000 600.000000"
 preserveAspectRatio="xMidYMid meet">
<metadata>
Created by potrace 1.15, written by Peter Selinger 2001-2017
</metadata>
<g transform="translate(0.000000,600.000000) scale(0.100000,-0.100000)"
fill="#16364b" stroke="none">
<path d="M1355 5681 c-227 -92 -245 -101 -279 -141 -31 -38 -34 -84 -6 -120
18 -24 24 -25 112 -25 100 0 488 23 526 31 27 6 51 54 44 90 -6 34 -57 74 -93
74 l-30 0 20 26 c23 30 27 65 9 97 -34 65 -74 61 -303 -32z"/>
<path d="M2349 5391 c-29 -29 -29 -31 -29 -143 -1 -398 -86 -620 -275 -718
-99 -51 -119 -107 -60 -166 36 -36 86 -32 164 14 207 121 318 326 352 649 6
61 10 163 8 226 -4 106 -6 118 -28 141 -35 38 -92 36 -132 -3z"/>
<path d="M3509 5313 c-45 -47 -55 -91 -35 -150 48 -144 168 -253 280 -253 41
0 53 5 82 34 28 28 34 41 34 78 0 53 -32 121 -94 200 -56 70 -117 108 -188
115 -49 5 -55 3 -79 -24z"/>
<path d="M2985 5111 c-146 -66 -222 -299 -130 -399 27 -30 40 -36 86 -40 60
-5 103 9 180 59 57 36 88 100 95 197 5 57 2 74 -18 112 -41 81 -129 110 -213
71z m49 -213 c-6 -22 -25 -41 -32 -34 -6 6 21 56 30 56 5 0 6 -10 2 -22z"/>
<path d="M4763 4775 c-58 -25 -68 -54 -67 -190 2 -190 44 -374 106 -466 108
-160 291 -119 344 77 40 150 -33 338 -192 497 -63 63 -116 97 -146 97 -7 -1
-27 -7 -45 -15z"/>
<path d="M2636 4225 c-69 -25 -135 -109 -136 -175 -1 -148 184 -272 356 -241
108 20 257 109 290 172 22 43 18 110 -9 150 -24 37 -93 65 -227 94 -82 18
-223 18 -274 0z"/>
<path d="M1120 4109 c-36 -15 -58 -37 -70 -74 -10 -32 -5 -53 28 -117 2 -5 -8
-8 -23 -8 -17 0 -39 -12 -61 -34 -41 -41 -45 -87 -11 -136 46 -69 227 -131
329 -115 197 32 270 209 145 351 -48 54 -101 86 -197 119 -79 27 -101 29 -140
14z m90 -244 c14 -8 21 -14 15 -14 -5 0 -21 6 -35 14 -14 8 -20 14 -15 14 6 0
21 -6 35 -14z"/>
<path d="M5269 3815 c-230 -46 -362 -212 -314 -396 34 -135 135 -237 255 -259
58 -11 147 7 214 43 204 109 277 333 158 483 -48 61 -191 147 -237 143 -5 0
-40 -7 -76 -14z m47 -306 c9 -16 -31 -53 -50 -46 -19 8 -21 43 -3 50 22 9 46
7 53 -4z"/>
<path d="M4188 3746 c-152 -54 -247 -188 -235 -331 8 -111 73 -193 183 -235
203 -76 428 93 442 332 6 102 -3 141 -39 177 -60 61 -253 92 -351 57z m122
-263 c0 -14 -34 -43 -52 -43 -25 0 -23 16 4 34 23 16 48 21 48 9z"/>
<path d="M3445 3380 c-46 -19 -101 -93 -169 -227 -45 -89 -46 -125 -7 -164 84
-84 243 27 302 211 27 83 21 128 -22 164 -31 26 -67 32 -104 16z"/>
<path d="M1690 3123 c-119 -9 -277 -43 -357 -78 -143 -64 -300 -210 -367 -342
-96 -192 -64 -414 84 -576 62 -68 119 -105 235 -153 204 -84 247 -131 369
-401 75 -168 121 -237 214 -325 81 -76 166 -127 267 -158 132 -42 382 -37 595
10 47 10 209 28 360 40 423 33 547 58 735 150 123 59 221 132 392 289 183 168
261 290 324 508 18 61 23 104 23 198 1 143 -15 194 -96 300 -153 203 -305 301
-483 312 -105 7 -172 -11 -285 -76 -48 -28 -107 -58 -131 -66 -57 -20 -237
-47 -252 -38 -7 4 -73 11 -147 14 -210 11 -333 51 -592 191 -206 112 -413 174
-664 198 -106 10 -130 10 -224 3z m216 -394 c99 -13 289 -63 374 -96 36 -14
110 -48 165 -75 246 -122 383 -175 525 -203 41 -7 92 -21 112 -29 47 -20 134
-20 305 -1 213 24 275 41 436 121 60 30 115 54 124 54 54 0 216 -136 232 -196
24 -86 -75 -317 -187 -435 -182 -194 -338 -264 -699 -314 -176 -24 -390 -45
-467 -45 -39 0 -124 -11 -189 -25 -366 -78 -485 -30 -607 243 -24 53 -64 133
-89 176 -92 163 -261 305 -471 396 -135 58 -170 94 -170 178 0 39 33 101 69
130 32 25 107 60 190 87 133 44 218 52 347 34z"/>
<path d="M419 2121 c-16 -16 -29 -38 -29 -49 0 -11 27 -77 61 -147 107 -222
216 -327 344 -328 68 -1 108 22 135 78 17 36 21 55 15 90 -16 109 -150 239
-359 349 -86 45 -127 47 -167 7z"/>
<path d="M4931 1464 c-17 -14 -38 -25 -48 -24 -47 5 -68 -3 -99 -36 -31 -32
-34 -41 -34 -98 0 -169 82 -296 191 -296 93 0 139 73 169 270 17 114 14 138
-24 176 -45 45 -108 48 -155 8z"/>
</g>
</svg>
