<?xml version="1.0" standalone="no"?>
<!DOCTYPE svg PUBLIC "-//W3C//DTD SVG 20010904//EN"
 "http://www.w3.org/TR/2001/REC-SVG-20010904/DTD/svg10.dtd">
<svg version="1.0" xmlns="http://www.w3.org/2000/svg"
 width="600.000000pt" height="600.000000pt" viewBox="0 0 600.000000 600.000000"
 preserveAspectRatio="xMidYMid meet">
<metadata>
Created by potrace 1.15, written by Peter Selinger 2001-2017
</metadata>
<g transform="translate(0.000000,600.000000) scale(0.100000,-0.100000)"
fill="#16364b" stroke="none">
<path d="M1556 5763 c-47 -12 -343 -271 -372 -325 -38 -72 3 -154 82 -165 45
-6 114 12 380 98 117 38 165 58 186 79 40 40 38 82 -6 126 -36 36 -62 41 -115
23 -35 -12 -52 -6 -33 13 7 7 12 29 12 51 0 29 -7 46 -29 68 -16 16 -36 29
-44 29 -9 0 -21 2 -29 4 -7 2 -22 1 -32 -1z"/>
<path d="M2395 5431 c-11 -5 -29 -19 -40 -31 -17 -19 -21 -42 -26 -183 -8
-180 -12 -216 -41 -332 -40 -163 -111 -261 -236 -324 -33 -17 -69 -42 -81 -57
-43 -55 -12 -144 59 -165 37 -11 44 -9 125 29 122 59 200 136 259 256 69 139
96 265 117 545 12 165 7 212 -30 245 -22 20 -78 29 -106 17z"/>
<path d="M3562 5328 c-37 -10 -82 -72 -82 -112 0 -54 83 -191 151 -250 89 -76
173 -84 228 -20 26 29 31 43 31 85 0 83 -70 200 -150 253 -51 34 -136 55 -178
44z"/>
<path d="M2972 5134 c-96 -48 -162 -148 -169 -254 -4 -54 0 -73 19 -110 57
-111 203 -120 332 -22 60 45 87 111 89 217 1 56 -3 78 -22 111 -47 84 -149
108 -249 58z"/>
<path d="M4762 4753 c-50 -24 -62 -57 -62 -170 1 -256 78 -453 200 -516 109
-56 224 -19 279 88 22 42 26 63 26 135 0 74 -4 93 -31 150 -43 90 -110 175
-189 240 -111 92 -155 107 -223 73z"/>
<path d="M2680 4216 c-68 -19 -103 -40 -144 -86 -45 -50 -56 -77 -56 -139 0
-130 160 -240 335 -229 57 4 85 12 143 42 98 52 198 145 212 197 22 81 -26
148 -126 175 -32 9 -81 23 -109 31 -71 20 -201 25 -255 9z"/>
<path d="M1110 4112 c-52 -23 -80 -62 -80 -112 0 -68 48 -110 140 -125 25 -4
63 -16 84 -27 36 -19 38 -21 20 -31 -10 -6 -82 -14 -159 -17 -145 -6 -165 -11
-197 -54 -41 -56 -26 -135 35 -180 39 -28 234 -36 327 -12 229 59 349 213 281
361 -21 47 -92 115 -151 145 -86 44 -253 73 -300 52z"/>
<path d="M4210 3762 c-75 -25 -96 -37 -153 -91 -130 -121 -145 -311 -31 -410
63 -56 111 -74 205 -79 77 -4 91 -2 141 22 62 29 135 101 167 164 32 63 53
168 49 244 -3 58 -8 72 -32 97 -39 41 -104 62 -206 67 -65 3 -98 0 -140 -14z
m80 -272 c-9 -18 -40 -40 -54 -40 -15 0 -4 31 16 44 33 23 51 21 38 -4z"/>
<path d="M1653 3720 c-60 -24 -80 -134 -48 -268 34 -145 102 -222 196 -222 99
0 167 114 139 233 -41 172 -183 299 -287 257z"/>
<path d="M5225 3710 c-131 -27 -233 -98 -282 -198 -24 -49 -28 -69 -28 -142 0
-65 5 -96 21 -131 31 -66 87 -124 150 -155 49 -24 62 -26 142 -22 186 10 304
108 333 277 21 116 -15 208 -116 298 -94 83 -122 92 -220 73z m32 -333 c-19
-29 -47 -34 -47 -9 0 19 38 44 53 35 5 -3 2 -15 -6 -26z"/>
<path d="M3445 3381 c-48 -20 -114 -107 -176 -230 -55 -110 -51 -164 13 -197
39 -20 77 -13 146 26 98 57 189 215 179 310 -9 78 -86 122 -162 91z"/>
<path d="M2120 3063 c-205 -31 -468 -109 -578 -170 -170 -94 -368 -296 -439
-449 -26 -55 -28 -68 -28 -189 0 -116 3 -139 28 -214 66 -197 126 -279 300
-410 151 -114 211 -173 284 -281 108 -160 217 -250 367 -301 224 -77 444 -57
746 71 63 26 165 67 225 91 258 99 558 280 726 438 152 141 275 342 299 484
43 252 -154 532 -470 668 -176 76 -351 126 -570 164 -74 13 -187 35 -250 49
-192 41 -317 56 -471 55 -79 -1 -155 -3 -169 -6z m612 -416 c59 -14 160 -41
225 -60 65 -20 141 -38 168 -42 67 -10 307 -99 375 -140 63 -38 125 -97 147
-139 51 -98 -67 -298 -246 -417 -130 -87 -477 -249 -616 -287 -38 -11 -113
-39 -165 -62 -164 -73 -319 -102 -422 -81 -78 17 -137 63 -228 179 -68 87
-284 313 -417 435 -66 61 -87 113 -81 199 5 80 34 140 99 205 63 63 113 90
259 143 247 88 320 100 590 95 177 -3 220 -7 312 -28z"/>
<path d="M405 2208 c-47 -41 -44 -78 18 -221 67 -156 130 -258 210 -344 79
-85 131 -114 210 -120 53 -4 67 -2 96 19 58 40 75 71 79 148 4 61 1 77 -25
133 -57 121 -179 227 -409 356 -102 57 -139 63 -179 29z"/>
<path d="M4675 1690 c-26 -16 -36 -18 -73 -8 -58 15 -111 -2 -151 -47 -28 -32
-31 -43 -31 -98 0 -70 18 -148 57 -251 37 -97 109 -171 175 -181 39 -6 56 -3
95 16 77 38 116 133 148 362 18 131 4 176 -67 213 -39 20 -117 17 -153 -6z"/>
</g>
</svg>
