<?xml version="1.0" standalone="no"?>
<!DOCTYPE svg PUBLIC "-//W3C//DTD SVG 20010904//EN"
 "http://www.w3.org/TR/2001/REC-SVG-20010904/DTD/svg10.dtd">
<svg version="1.0" xmlns="http://www.w3.org/2000/svg"
 width="600.000000pt" height="600.000000pt" viewBox="0 0 600.000000 600.000000"
 preserveAspectRatio="xMidYMid meet">
<metadata>
Created by potrace 1.15, written by Peter Selinger 2001-2017
</metadata>
<g transform="translate(0.000000,600.000000) scale(0.100000,-0.100000)"
fill="#16364b" stroke="none">
<path d="M2382 5430 c-34 -14 -52 -68 -52 -160 0 -195 -47 -449 -106 -569 -43
-87 -95 -140 -172 -177 -78 -37 -102 -61 -102 -98 1 -44 29 -75 73 -83 32 -5
51 1 115 33 145 74 229 183 296 384 45 136 65 260 73 440 5 120 3 152 -10 183
-21 50 -64 67 -115 47z"/>
<path d="M3540 5287 c-25 -20 -50 -65 -50 -90 0 -39 20 -88 65 -157 74 -114
152 -168 221 -155 34 6 77 48 89 86 18 57 -53 201 -134 271 -59 50 -156 73
-191 45z"/>
<path d="M2993 5122 c-174 -94 -231 -359 -90 -425 51 -25 96 -21 163 13 82 41
117 77 144 146 44 115 27 222 -43 264 -41 25 -129 26 -174 2z m67 -174 c0 -19
-38 -78 -51 -78 -12 0 -3 34 19 68 16 24 32 29 32 10z"/>
<path d="M4753 4760 c-53 -32 -58 -51 -57 -205 1 -154 18 -253 58 -340 105
-229 373 -190 370 55 -1 158 -72 317 -196 440 -75 75 -116 86 -175 50z"/>
<path d="M2653 4204 c-142 -53 -158 -223 -31 -327 53 -43 101 -63 171 -72 106
-13 254 38 345 120 39 36 45 47 49 91 6 58 -13 104 -52 130 -79 51 -396 90
-482 58z"/>
<path d="M1143 4135 c-40 -17 -65 -55 -65 -100 0 -19 -5 -38 -12 -43 -24 -14
-46 -57 -46 -87 0 -37 44 -110 90 -148 106 -89 229 -97 319 -21 48 41 65 88
59 160 -8 99 -99 188 -236 233 -73 24 -68 24 -109 6z"/>
<path d="M5223 3871 c-155 -45 -241 -166 -231 -325 8 -124 74 -227 179 -281
123 -63 294 -31 399 75 60 59 92 128 98 211 8 120 -41 212 -160 295 -61 43
-63 44 -142 43 -46 0 -108 -8 -143 -18z m137 -301 c12 -7 12 -12 -4 -29 -11
-12 -27 -21 -37 -21 -19 0 -35 33 -24 50 8 12 45 13 65 0z"/>
<path d="M4200 3757 c-84 -20 -125 -41 -172 -89 -52 -51 -76 -98 -90 -178 -20
-106 32 -233 119 -292 58 -40 91 -50 168 -51 56 0 81 5 127 27 133 63 228 239
228 422 0 63 -3 76 -26 103 -16 19 -44 36 -77 46 -72 22 -210 28 -277 12z m80
-277 c0 -15 -38 -50 -55 -50 -20 0 -19 19 2 42 17 19 53 25 53 8z"/>
<path d="M3423 3348 c-58 -42 -183 -258 -183 -318 0 -41 42 -80 85 -80 41 0
118 51 157 104 51 68 92 165 92 217 2 89 -77 129 -151 77z"/>
<path d="M1398 3179 c-210 -21 -355 -71 -442 -152 -120 -110 -173 -299 -131
-461 50 -192 195 -337 395 -397 207 -61 287 -141 397 -398 109 -254 166 -346
288 -468 65 -64 100 -90 166 -121 171 -83 347 -107 566 -78 93 12 208 16 487
16 391 0 477 7 706 56 389 83 670 255 844 517 89 134 146 245 178 347 33 108
33 275 -1 378 -31 95 -81 177 -156 253 -168 172 -356 260 -560 262 -161 1
-239 -25 -455 -155 -69 -41 -156 -88 -195 -104 -69 -29 -73 -29 -255 -29 -176
1 -189 2 -265 28 -101 35 -201 93 -383 219 -236 165 -366 224 -589 269 -122
25 -439 35 -595 18z m499 -404 c183 -35 244 -63 503 -230 314 -202 396 -238
635 -278 283 -47 531 -10 745 112 161 91 260 141 303 152 92 23 189 -8 305
-96 72 -54 89 -82 98 -157 12 -102 -49 -273 -132 -375 -46 -56 -203 -173 -306
-228 -206 -109 -358 -142 -728 -155 -374 -14 -588 -27 -638 -40 -137 -34 -340
-30 -427 9 -106 47 -172 146 -285 426 -114 282 -196 410 -328 507 -74 55 -201
113 -292 134 -90 20 -121 35 -149 70 -29 37 -27 75 7 106 41 39 68 50 146 58
112 13 449 4 543 -15z"/>
<path d="M436 2075 c-20 -18 -26 -34 -26 -64 0 -22 5 -43 11 -46 6 -4 26 -40
46 -81 63 -134 144 -217 233 -240 61 -16 110 -4 145 34 91 98 -21 274 -247
388 -81 41 -125 43 -162 9z"/>
<path d="M5124 1316 c-18 -8 -35 -19 -38 -25 -4 -6 -17 -11 -29 -11 -12 0 -36
-9 -54 -20 -39 -24 -54 -70 -42 -133 31 -166 145 -241 251 -166 44 31 66 90
74 194 6 84 5 92 -17 119 -21 27 -74 56 -101 56 -7 -1 -27 -7 -44 -14z"/>
</g>
</svg>
