<?xml version="1.0" standalone="no"?>
<!DOCTYPE svg PUBLIC "-//W3C//DTD SVG 20010904//EN"
 "http://www.w3.org/TR/2001/REC-SVG-20010904/DTD/svg10.dtd">
<svg version="1.0" xmlns="http://www.w3.org/2000/svg"
 width="600.000000pt" height="600.000000pt" viewBox="0 0 600.000000 600.000000"
 preserveAspectRatio="xMidYMid meet">
<metadata>
Created by potrace 1.15, written by Peter Selinger 2001-2017
</metadata>
<g transform="translate(0.000000,600.000000) scale(0.100000,-0.100000)"
fill="#16364b" stroke="none">
<path d="M2085 5821 c-25 -12 -62 -45 -100 -92 -33 -41 -125 -145 -204 -231
-265 -290 -316 -365 -315 -463 0 -71 26 -119 88 -159 117 -76 265 -34 719 203
209 109 251 142 263 206 19 103 -51 189 -152 187 -30 0 -64 -13 -120 -45 -120
-68 -204 -108 -204 -98 0 5 7 14 16 22 36 30 206 242 219 274 8 19 15 53 15
76 0 109 -115 171 -225 120z"/>
<path d="M3054 5679 c-18 -5 -46 -25 -63 -44 -52 -60 -40 -147 29 -202 8 -7
44 -22 80 -34 295 -98 409 -218 410 -430 0 -80 -2 -89 -31 -128 -32 -45 -61
-65 -173 -121 -88 -44 -109 -77 -103 -163 3 -46 9 -63 32 -87 45 -47 91 -55
167 -29 116 38 199 89 279 169 106 106 149 204 149 346 0 187 -66 352 -195
485 -87 90 -191 149 -359 204 -117 38 -178 48 -222 34z"/>
<path d="M945 5354 c-208 -79 -342 -236 -353 -414 -6 -98 11 -173 58 -268 68
-134 214 -252 312 -252 153 0 218 167 104 266 -148 129 -179 189 -142 278 18
43 63 76 151 113 106 43 145 117 110 208 -34 91 -118 115 -240 69z"/>
<path d="M2713 4963 c-64 -22 -137 -94 -175 -171 -31 -62 -33 -73 -33 -172 0
-94 3 -110 27 -156 52 -100 142 -162 264 -185 173 -32 294 33 294 157 0 86
-55 134 -152 134 -67 0 -127 17 -135 37 -3 8 -2 27 3 41 8 24 15 27 59 28 96
2 155 57 155 145 0 57 -30 105 -85 136 -48 27 -155 30 -222 6z"/>
<path d="M4775 4916 c-44 -20 -95 -79 -104 -118 -11 -48 4 -217 28 -310 37
-142 97 -231 193 -283 139 -76 328 4 405 171 22 49 25 66 21 133 -7 120 -66
208 -197 296 -148 98 -282 141 -346 111z"/>
<path d="M1887 4560 c-97 -25 -220 -107 -252 -171 -35 -67 -4 -164 65 -199 64
-33 141 -22 180 25 22 26 70 47 95 41 12 -3 35 -24 50 -47 70 -100 196 -104
268 -7 29 39 26 116 -6 170 -35 61 -117 135 -181 164 -61 28 -160 38 -219 24z"/>
<path d="M2850 3891 c-47 -25 -77 -85 -84 -169 -17 -198 -30 -292 -61 -433
-39 -179 -37 -206 20 -264 66 -66 165 -68 218 -5 15 17 32 57 41 97 24 109 64
350 75 459 6 56 15 114 21 128 24 63 -6 152 -62 186 -43 26 -121 27 -168 1z"/>
<path d="M1137 3850 c-174 -46 -273 -104 -303 -177 -54 -129 76 -279 223 -259
l42 5 -20 -46 c-26 -62 -72 -144 -178 -320 -114 -191 -138 -240 -199 -403 -65
-175 -74 -210 -66 -260 19 -119 153 -184 269 -131 22 10 96 71 165 135 69 65
220 195 335 291 116 95 235 195 265 223 30 28 58 51 63 52 12 0 8 -76 -8 -155
-36 -174 -138 -429 -306 -767 -108 -218 -114 -241 -78 -315 23 -48 55 -74 113
-93 47 -15 105 -1 137 33 59 62 326 665 413 932 60 185 83 404 56 546 -31 166
-142 257 -279 230 -78 -16 -148 -61 -270 -176 -193 -181 -182 -179 -103 -23
141 277 176 390 153 492 -19 83 -61 140 -133 176 -54 26 -71 30 -142 29 -45 0
-111 -9 -149 -19z"/>
<path d="M4220 3789 c-72 -12 -167 -57 -218 -104 -133 -120 -137 -334 -9 -439
68 -56 118 -71 232 -71 88 0 107 4 158 27 32 15 76 41 97 58 49 38 120 146
149 225 13 33 27 70 32 83 24 60 0 135 -55 177 -59 45 -249 66 -386 44z m41
-309 c-24 -20 -61 -27 -61 -12 0 12 40 31 65 31 19 0 19 -1 -4 -19z"/>
<path d="M3463 3374 c-91 -34 -160 -134 -204 -301 -19 -71 -20 -89 -10 -122
16 -54 54 -97 98 -112 52 -17 188 -6 247 20 142 62 211 196 176 340 -33 139
-179 222 -307 175z"/>
<path d="M4900 2874 c-40 -27 -158 -145 -204 -204 -70 -89 -98 -155 -104 -236
-5 -87 8 -133 55 -185 174 -192 533 85 533 412 0 70 -18 105 -88 172 -58 55
-63 57 -114 57 -33 0 -63 -6 -78 -16z"/>
<path d="M4119 2517 c-96 -36 -159 -126 -159 -229 0 -20 16 -91 35 -159 20
-67 34 -123 33 -124 -2 -2 -41 13 -88 33 -76 32 -95 36 -175 36 -78 0 -97 -3
-141 -26 -57 -30 -113 -87 -145 -150 -32 -62 -37 -189 -11 -283 21 -74 95
-349 114 -425 14 -52 66 -113 120 -141 92 -47 208 -30 271 40 34 38 57 92 57
136 0 11 -14 75 -31 143 -17 67 -29 126 -25 129 3 4 23 -8 44 -25 90 -77 172
-92 284 -53 74 26 92 36 140 79 87 79 125 182 113 311 -4 42 -35 188 -70 325
-71 277 -86 309 -167 359 -55 34 -143 45 -199 24z"/>
<path d="M2924 2246 c-28 -8 -169 -75 -313 -147 l-261 -133 -38 37 c-49 47
-98 67 -170 67 -81 0 -146 -34 -221 -117 -82 -89 -105 -138 -99 -213 8 -107
82 -179 184 -180 46 0 49 -3 59 -73 l7 -45 -56 -27 c-72 -34 -167 -121 -206
-190 -62 -109 -75 -270 -31 -398 93 -268 338 -486 656 -584 79 -24 107 -27
226 -28 l135 0 75 37 c90 45 231 156 267 210 19 30 27 56 30 102 3 53 0 66
-25 104 -45 68 -128 98 -200 71 -15 -5 -60 -33 -100 -60 -40 -27 -91 -56 -114
-64 -214 -76 -572 146 -587 364 -2 39 1 62 11 76 14 18 16 19 53 2 22 -10 62
-41 89 -68 67 -68 116 -93 185 -93 76 -1 137 34 168 94 41 82 22 158 -62 243
-67 68 -117 181 -140 324 -7 40 -7 41 26 48 18 4 134 56 257 116 123 60 228
109 233 109 5 0 6 -10 3 -22 -64 -209 -123 -357 -194 -488 -63 -116 -55 -198
29 -274 73 -65 177 -70 256 -10 43 32 171 286 223 441 129 387 97 650 -90 746
-69 35 -185 45 -265 23z"/>
</g>
</svg>
