<?xml version="1.0" standalone="no"?>
<!DOCTYPE svg PUBLIC "-//W3C//DTD SVG 20010904//EN"
 "http://www.w3.org/TR/2001/REC-SVG-20010904/DTD/svg10.dtd">
<svg version="1.0" xmlns="http://www.w3.org/2000/svg"
 width="600.000000pt" height="600.000000pt" viewBox="0 0 600.000000 600.000000"
 preserveAspectRatio="xMidYMid meet">
<metadata>
Created by potrace 1.15, written by Peter Selinger 2001-2017
</metadata>
<g transform="translate(0.000000,600.000000) scale(0.100000,-0.100000)"
fill="#16364b" stroke="none">
<path d="M2381 5402 c-26 -26 -28 -33 -34 -147 -7 -127 -47 -393 -73 -485 -37
-129 -93 -196 -216 -255 -40 -20 -76 -41 -80 -48 -15 -24 -8 -66 18 -96 20
-25 34 -31 64 -31 59 0 175 63 246 134 138 138 214 404 214 751 0 152 -1 156
-25 180 -33 34 -79 33 -114 -3z"/>
<path d="M3532 5314 c-17 -8 -52 -78 -52 -104 0 -11 11 -42 24 -69 73 -152
197 -249 282 -221 78 26 97 114 47 208 -40 74 -98 139 -145 163 -40 21 -131
34 -156 23z"/>
<path d="M3030 5108 c-123 -35 -218 -240 -164 -353 22 -47 84 -78 135 -68 88
17 164 70 199 139 33 66 36 178 4 221 -41 54 -111 79 -174 61z m30 -209 c-13
-31 -50 -60 -50 -39 0 15 19 51 39 73 20 24 27 5 11 -34z"/>
<path d="M4784 4754 c-54 -26 -59 -48 -59 -253 0 -165 3 -194 23 -258 31 -99
74 -153 139 -175 64 -22 115 -10 159 38 116 123 70 383 -106 594 -57 68 -98
83 -156 54z"/>
<path d="M2682 4212 c-185 -66 -217 -237 -62 -330 71 -42 108 -53 207 -59 103
-7 194 19 285 80 72 48 96 94 84 161 -12 66 -58 103 -161 132 -125 35 -280 42
-353 16z"/>
<path d="M1120 4122 c-19 -20 -30 -41 -30 -59 0 -16 -7 -39 -16 -52 -50 -70
22 -227 128 -282 44 -23 134 -25 181 -5 101 43 136 158 76 250 -45 67 -184
155 -272 171 -32 6 -40 3 -67 -23z"/>
<path d="M5265 3921 c-168 -27 -257 -130 -256 -300 0 -119 39 -219 112 -292
57 -57 110 -79 191 -79 171 0 306 118 339 298 26 141 -34 253 -185 345 -51 32
-118 41 -201 28z m89 -322 c11 -10 -21 -49 -41 -49 -19 0 -33 42 -20 58 10 12
43 8 61 -9z"/>
<path d="M4225 3781 c-95 -25 -201 -106 -241 -182 -71 -137 -52 -273 50 -366
97 -89 222 -109 334 -53 76 39 124 92 170 187 32 67 36 86 40 177 5 108 -4
141 -46 179 -49 44 -230 79 -307 58z m75 -290 c0 -16 -41 -61 -56 -61 -23 0
-16 27 12 49 28 22 44 27 44 12z"/>
<path d="M3416 3340 c-45 -49 -146 -256 -146 -298 0 -37 39 -72 80 -72 35 0
101 48 141 103 81 111 110 248 60 288 -14 11 -39 19 -61 19 -31 0 -44 -7 -74
-40z"/>
<path d="M1545 3225 c-5 -2 -79 -9 -164 -15 -85 -6 -193 -18 -240 -26 -159
-27 -269 -98 -329 -213 -104 -193 -71 -393 90 -559 86 -89 172 -131 330 -163
125 -25 174 -47 232 -106 60 -60 108 -155 171 -337 68 -195 102 -269 169 -371
110 -164 248 -267 421 -311 82 -21 172 -22 850 -13 814 12 1128 71 1411 265
196 134 305 249 379 399 67 135 96 258 102 440 11 299 -50 436 -251 570 -167
111 -317 163 -496 172 -210 10 -321 -25 -539 -173 -199 -133 -278 -158 -506
-158 -178 1 -297 56 -660 308 -359 249 -456 286 -770 292 -104 2 -194 2 -200
-1z m334 -401 c146 -22 222 -58 448 -212 397 -269 530 -338 708 -367 185 -31
221 -34 290 -25 222 28 364 79 543 194 182 116 275 151 391 144 63 -4 88 -11
146 -41 89 -47 161 -114 174 -164 17 -60 13 -210 -8 -288 -39 -152 -91 -236
-196 -320 -131 -104 -239 -146 -465 -181 -58 -8 -159 -25 -225 -36 -106 -17
-183 -20 -676 -25 -584 -5 -657 -2 -749 38 -96 41 -157 135 -241 369 -64 180
-104 268 -164 361 -127 197 -303 316 -525 354 -134 23 -185 55 -178 112 5 43
68 70 213 88 209 26 339 26 514 -1z"/>
<path d="M436 2089 c-29 -34 -32 -53 -13 -86 6 -12 32 -57 56 -99 70 -125 171
-212 270 -235 71 -16 141 40 141 113 0 71 -83 170 -210 250 -149 95 -202 107
-244 57z"/>
<path d="M5189 1242 c-13 -11 -37 -22 -52 -26 -16 -4 -40 -18 -54 -32 -23 -23
-25 -31 -21 -88 9 -108 63 -183 138 -193 94 -13 150 58 158 199 5 90 -6 121
-50 144 -38 19 -91 18 -119 -4z"/>
</g>
</svg>
