<?xml version="1.0" standalone="no"?>
<!DOCTYPE svg PUBLIC "-//W3C//DTD SVG 20010904//EN"
 "http://www.w3.org/TR/2001/REC-SVG-20010904/DTD/svg10.dtd">
<svg version="1.0" xmlns="http://www.w3.org/2000/svg"
 width="600.000000pt" height="600.000000pt" viewBox="0 0 600.000000 600.000000"
 preserveAspectRatio="xMidYMid meet">
<metadata>
Created by potrace 1.15, written by Peter Selinger 2001-2017
</metadata>
<g transform="translate(0.000000,600.000000) scale(0.100000,-0.100000)"
fill="#16364b" stroke="none">
<path d="M3305 5463 c-31 -8 -83 -51 -100 -83 -30 -59 -13 -137 40 -179 15
-11 50 -25 79 -31 34 -7 62 -20 77 -36 22 -23 24 -34 23 -112 0 -74 -5 -99
-33 -167 -23 -57 -31 -89 -27 -114 12 -75 70 -121 154 -121 99 0 133 36 176
181 70 242 47 429 -67 543 -84 84 -236 140 -322 119z"/>
<path d="M2063 5420 c-37 -22 -51 -45 -69 -115 -18 -66 -17 -100 2 -165 30
-103 121 -161 275 -175 42 -4 82 -11 89 -15 10 -6 10 -30 -3 -121 -44 -307
-46 -318 -35 -356 26 -96 144 -133 229 -72 45 32 58 68 69 191 6 62 17 156 25
208 20 130 19 189 -6 255 -44 119 -137 182 -290 200 l-57 6 -4 50 c-10 105
-133 165 -225 109z"/>
<path d="M1525 4804 c-78 -11 -183 -38 -208 -52 -42 -25 -71 -93 -63 -147 9
-55 53 -117 101 -139 40 -19 43 -19 215 9 123 19 253 19 342 -1 116 -26 187
-4 222 70 47 99 -7 184 -149 232 -73 25 -94 27 -255 30 -96 1 -188 0 -205 -2z"/>
<path d="M4292 4524 c-75 -39 -105 -141 -62 -211 23 -38 49 -53 149 -82 147
-44 189 -124 178 -341 -6 -102 -4 -119 14 -156 47 -98 183 -98 247 -1 27 40
27 43 27 216 0 158 -2 183 -24 249 -46 142 -146 242 -303 302 -102 40 -180 48
-226 24z"/>
<path d="M3213 4450 c-17 -4 -80 -45 -140 -92 -159 -124 -251 -184 -413 -268
-110 -57 -150 -83 -167 -109 -63 -94 15 -211 141 -211 80 0 217 80 596 347
157 111 165 120 165 193 0 54 -3 62 -35 95 -31 32 -45 39 -100 50 -8 1 -29 -1
-47 -5z"/>
<path d="M1595 4423 c-115 -29 -143 -213 -43 -284 34 -24 104 -36 437 -75 123
-14 239 -23 256 -20 18 4 48 22 68 41 64 62 72 144 21 204 -28 33 -63 47 -144
56 -158 17 -319 39 -436 61 -72 13 -133 23 -135 23 -2 -1 -13 -4 -24 -6z"/>
<path d="M3698 3840 c-59 -15 -155 -61 -258 -125 -230 -142 -270 -164 -352
-200 -89 -38 -114 -60 -124 -114 -14 -69 48 -153 123 -166 53 -9 94 7 275 106
84 46 194 102 245 125 l93 41 47 -24 c116 -59 213 19 213 171 -1 139 -118 222
-262 186z"/>
<path d="M2145 3814 c-129 -34 -294 -55 -415 -53 -120 2 -144 -5 -187 -54 -44
-51 -51 -104 -21 -165 39 -79 63 -87 263 -86 180 0 296 16 495 68 80 21 100
30 127 59 63 69 50 170 -30 228 -50 36 -103 37 -232 3z"/>
<path d="M5007 3506 c-60 -22 -105 -57 -139 -110 -34 -52 -35 -61 -27 -241 3
-70 0 -87 -24 -139 -15 -32 -61 -105 -102 -162 -151 -206 -315 -575 -315 -705
0 -51 42 -131 90 -171 78 -67 180 -68 265 -3 42 31 50 45 90 162 45 129 142
301 231 413 173 216 216 304 244 500 12 82 0 211 -27 300 -40 129 -167 198
-286 156z"/>
<path d="M1961 3168 c-19 -12 -43 -35 -55 -50 -27 -37 -27 -113 0 -159 43 -72
109 -93 349 -110 80 -5 131 -13 134 -20 8 -24 63 -78 95 -93 48 -22 123 -21
164 4 35 22 71 87 72 131 0 80 -75 191 -159 233 -68 35 -111 44 -282 62 -287
29 -280 29 -318 2z"/>
<path d="M4328 3156 c-14 -8 -61 -48 -103 -90 -178 -177 -437 -294 -718 -326
-106 -12 -148 -34 -177 -91 -38 -74 -17 -162 50 -207 32 -22 42 -24 130 -19
227 12 605 140 760 256 82 61 249 230 272 275 34 67 13 139 -55 190 -34 25
-122 32 -159 12z"/>
<path d="M1335 2973 c-44 -23 -65 -44 -86 -85 -23 -44 -24 -89 -5 -205 8 -49
19 -128 26 -178 16 -122 83 -416 120 -525 33 -99 108 -257 146 -307 69 -91
186 -105 271 -30 46 41 63 82 63 155 0 50 -7 71 -49 152 -92 178 -151 377
-176 595 -29 257 -40 306 -80 367 -46 69 -159 99 -230 61z"/>
<path d="M2120 2379 c-119 -31 -193 -70 -213 -112 -22 -45 -21 -72 2 -124 44
-95 143 -128 241 -78 28 14 69 28 93 31 40 6 44 4 76 -36 60 -75 137 -88 201
-33 110 92 64 265 -92 342 -54 28 -71 31 -147 30 -52 0 -116 -8 -161 -20z"/>
<path d="M3955 2099 c-85 -12 -287 -53 -515 -104 -226 -50 -285 -60 -472 -79
-154 -16 -191 -31 -229 -93 -50 -80 -16 -212 69 -268 58 -38 103 -43 231 -29
154 18 273 42 636 131 237 58 335 77 415 82 65 5 117 13 135 23 137 73 141
269 6 327 -54 23 -159 27 -276 10z"/>
<path d="M2200 1792 c-22 -11 -44 -36 -58 -63 -20 -37 -23 -53 -17 -106 23
-246 229 -537 396 -559 89 -11 172 61 172 150 0 59 -25 100 -88 141 -107 72
-163 155 -190 284 -18 85 -50 136 -101 157 -45 19 -72 18 -114 -4z"/>
<path d="M4735 1663 c-16 -8 -64 -50 -105 -93 -108 -112 -150 -130 -440 -190
-225 -47 -435 -115 -615 -200 -117 -54 -161 -89 -186 -145 -50 -108 6 -234
117 -265 56 -16 102 -8 173 28 182 95 365 159 683 237 141 34 245 66 291 88
168 80 307 225 322 337 12 86 -28 170 -96 205 -36 19 -106 18 -144 -2z"/>
<path d="M2049 1017 c-98 -52 -133 -171 -77 -264 38 -63 231 -204 383 -281
277 -138 539 -145 823 -20 154 67 211 134 199 234 -10 88 -86 156 -177 157
-34 1 -69 -9 -120 -32 -142 -66 -246 -77 -386 -41 -102 27 -279 114 -373 185
-40 31 -86 62 -102 70 -43 23 -118 19 -170 -8z"/>
</g>
</svg>
