<?xml version="1.0" standalone="no"?>
<!DOCTYPE svg PUBLIC "-//W3C//DTD SVG 20010904//EN"
 "http://www.w3.org/TR/2001/REC-SVG-20010904/DTD/svg10.dtd">
<svg version="1.0" xmlns="http://www.w3.org/2000/svg"
 width="600.000000pt" height="600.000000pt" viewBox="0 0 600.000000 600.000000"
 preserveAspectRatio="xMidYMid meet">
<metadata>
Created by potrace 1.15, written by Peter Selinger 2001-2017
</metadata>
<g transform="translate(0.000000,600.000000) scale(0.100000,-0.100000)"
fill="#16364b" stroke="none">
<path d="M1775 5810 c-44 -10 -84 -39 -102 -73 -43 -83 -147 -456 -162 -582
-35 -288 148 -373 396 -183 122 93 327 312 392 419 41 67 18 156 -51 200 -26
16 -45 19 -90 16 -64 -4 -82 -16 -150 -101 -67 -84 -118 -139 -123 -134 -3 3
13 62 35 132 22 70 40 139 40 154 0 15 -10 48 -22 72 -33 63 -98 96 -163 80z"/>
<path d="M3021 5652 c-68 -34 -94 -109 -61 -177 9 -18 77 -75 176 -150 284
-213 392 -314 444 -415 28 -55 26 -61 -19 -54 -53 8 -104 -10 -141 -52 -25
-29 -30 -43 -30 -89 0 -44 5 -59 27 -86 15 -17 42 -38 60 -45 38 -16 172 -18
225 -4 66 19 130 70 161 130 27 51 29 62 25 141 -4 76 -9 96 -45 170 -91 190
-277 378 -544 554 -56 37 -117 74 -135 81 -45 19 -102 18 -143 -4z"/>
<path d="M945 5439 c-137 -28 -278 -139 -337 -265 -61 -130 -48 -312 30 -434
60 -93 140 -153 205 -153 89 0 148 59 155 153 5 68 -12 107 -64 146 -45 35
-64 72 -64 127 0 86 70 147 168 147 98 0 162 54 162 135 0 116 -104 174 -255
144z"/>
<path d="M2950 5181 c-78 -24 -140 -84 -187 -180 -85 -173 33 -351 233 -351
64 0 172 32 202 60 45 42 55 78 49 170 -3 49 -14 109 -26 141 -46 122 -165
192 -271 160z"/>
<path d="M4799 4871 c-38 -12 -83 -48 -103 -81 -23 -40 -24 -226 -1 -330 35
-154 118 -275 223 -323 67 -31 171 -30 231 2 149 78 188 247 99 426 -41 81
-169 207 -268 262 -78 44 -137 58 -181 44z"/>
<path d="M2065 4839 c-134 -20 -213 -69 -234 -146 -20 -73 10 -138 79 -173 50
-26 96 -25 154 1 62 27 89 23 96 -16 28 -137 211 -171 275 -52 14 27 17 49 13
109 -12 195 -169 308 -383 277z"/>
<path d="M2867 4080 c-109 -19 -206 -107 -222 -199 -19 -115 79 -223 241 -266
122 -32 596 -11 675 31 41 20 67 60 75 110 5 36 2 54 -18 92 -21 41 -34 52
-103 87 -84 42 -263 104 -377 129 -87 20 -210 27 -271 16z"/>
<path d="M1047 4050 c-106 -14 -167 -78 -167 -173 0 -57 14 -94 48 -130 44
-47 80 -60 155 -59 38 0 67 -3 65 -7 -3 -9 -126 -177 -337 -460 -222 -298
-264 -369 -265 -441 0 -104 81 -195 173 -194 98 1 142 19 287 117 146 99 498
325 519 333 6 3 26 -8 43 -25 31 -28 32 -32 32 -106 0 -98 -44 -236 -130 -404
-108 -212 -215 -354 -333 -441 -78 -58 -90 -79 -90 -150 0 -47 5 -67 26 -99
78 -118 184 -88 377 108 116 117 203 243 280 404 121 253 176 416 187 554 5
69 9 84 25 89 10 3 29 22 43 42 21 31 25 48 25 112 -1 166 -27 270 -84 326
-53 54 -106 70 -182 54 -52 -11 -213 -86 -321 -150 -29 -17 -53 -28 -53 -26 0
3 28 40 62 83 160 201 208 293 208 397 -1 86 -73 187 -163 227 -46 21 -69 23
-212 25 -88 1 -186 -1 -218 -6z"/>
<path d="M4250 3783 c-99 -19 -208 -93 -269 -183 -110 -165 -74 -332 88 -413
38 -18 63 -22 146 -22 90 0 106 3 160 29 115 56 208 176 265 342 36 103 18
184 -47 217 -55 29 -256 46 -343 30z m31 -313 c-25 -21 -51 -26 -51 -10 0 13
31 29 55 29 19 0 19 -1 -4 -19z"/>
<path d="M3392 3391 c-94 -44 -212 -211 -219 -311 -8 -101 53 -155 189 -166
66 -6 82 -4 123 16 88 43 148 163 149 299 1 73 -18 119 -66 154 -40 29 -122
33 -176 8z"/>
<path d="M5048 3210 c-50 -15 -166 -100 -221 -160 -164 -182 -166 -407 -4
-500 44 -25 63 -30 122 -30 137 0 262 89 333 237 33 70 36 84 36 162 0 64 -5
96 -20 126 -25 52 -92 133 -124 150 -36 19 -90 25 -122 15z"/>
<path d="M3900 2561 c-118 -63 -143 -154 -95 -346 14 -55 25 -108 25 -118 0
-16 -2 -16 -31 -2 -85 44 -195 27 -265 -41 -70 -68 -87 -118 -88 -249 -1 -129
12 -189 90 -426 62 -188 89 -235 159 -269 150 -73 355 48 355 208 l0 39 45 -8
c91 -17 228 31 285 99 58 71 74 180 44 308 -8 37 -44 140 -78 228 -62 158 -99
268 -131 395 -24 96 -50 138 -102 172 -40 25 -57 29 -112 29 -44 -1 -78 -7
-101 -19z"/>
<path d="M2010 2333 c-89 -44 -234 -211 -315 -363 -16 -31 -54 -90 -83 -131
-68 -94 -144 -248 -178 -364 -24 -80 -27 -107 -28 -245 -1 -133 2 -166 22
-233 47 -164 133 -304 248 -403 207 -179 392 -263 575 -264 169 0 433 85 591
191 52 36 78 62 201 205 56 65 156 261 196 384 62 191 121 494 121 621 0 118
-19 170 -90 241 -48 48 -68 60 -130 79 -139 42 -292 10 -523 -108 -48 -25 -89
-44 -91 -42 -1 2 -11 26 -21 53 -25 69 -135 252 -184 308 -86 97 -204 124
-311 71z m115 -489 c9 -20 23 -72 31 -117 22 -123 34 -155 82 -208 77 -86 161
-121 238 -100 21 6 93 43 159 81 165 97 265 147 307 155 l35 7 -9 -62 c-13
-96 -56 -263 -93 -360 -68 -179 -110 -245 -234 -367 -69 -70 -205 -120 -346
-129 -77 -5 -100 -3 -155 16 -134 45 -261 146 -305 243 -80 174 -37 463 94
637 14 19 37 56 51 81 39 72 110 170 119 164 5 -2 16 -21 26 -41z"/>
</g>
</svg>
