<?xml version="1.0" standalone="no"?>
<!DOCTYPE svg PUBLIC "-//W3C//DTD SVG 20010904//EN"
 "http://www.w3.org/TR/2001/REC-SVG-20010904/DTD/svg10.dtd">
<svg version="1.0" xmlns="http://www.w3.org/2000/svg"
 width="600.000000pt" height="600.000000pt" viewBox="0 0 600.000000 600.000000"
 preserveAspectRatio="xMidYMid meet">
<metadata>
Created by potrace 1.15, written by Peter Selinger 2001-2017
</metadata>
<g transform="translate(0.000000,600.000000) scale(0.100000,-0.100000)"
fill="#16364b" stroke="none">
<path d="M3563 5268 c-40 -10 -67 -56 -58 -98 10 -43 76 -141 118 -173 77 -58
137 -70 181 -36 45 36 31 100 -43 199 -71 94 -130 126 -198 108z m107 -150
c22 -27 40 -55 40 -61 0 -16 -69 53 -86 85 -30 57 -9 47 46 -24z"/>
<path d="M2992 5059 c-96 -48 -154 -184 -117 -277 53 -133 239 -68 301 105 50
141 -52 237 -184 172z m109 -83 c5 -51 -30 -118 -83 -156 -22 -16 -44 -27 -49
-24 -18 11 -9 87 16 129 34 58 112 93 116 51z"/>
<path d="M4794 4738 c-12 -5 -27 -21 -33 -34 -6 -14 -14 -121 -17 -252 -9
-320 6 -384 90 -384 47 0 84 25 104 70 29 68 15 351 -28 537 -15 64 -62 90
-116 63z"/>
<path d="M2639 4201 c-22 -23 -29 -39 -29 -69 0 -55 38 -98 117 -133 138 -63
282 -85 343 -54 39 20 64 68 56 110 -8 42 -16 48 -106 80 -305 109 -333 114
-381 66z"/>
<path d="M1550 4145 c-58 -19 -113 -64 -147 -123 -23 -38 -27 -58 -28 -116 0
-62 4 -79 34 -134 22 -41 56 -83 94 -115 71 -62 107 -129 142 -260 50 -188
109 -525 130 -747 8 -91 20 -199 25 -240 5 -41 17 -160 25 -264 19 -224 36
-331 65 -424 41 -131 128 -261 230 -345 68 -57 212 -124 324 -152 54 -13 100
-26 103 -29 3 -2 -2 -46 -11 -97 -32 -186 -15 -319 64 -489 36 -76 46 -106 37
-112 -7 -4 -38 -8 -70 -8 -123 0 -189 -65 -151 -146 34 -72 149 -84 272 -29
69 31 94 54 117 109 22 53 14 88 -50 215 -87 169 -101 259 -69 433 21 115 28
125 85 110 50 -13 505 -28 742 -25 86 1 157 1 157 0 0 -1 -9 -26 -20 -55 -27
-71 -27 -188 0 -241 26 -51 68 -92 140 -137 33 -20 60 -40 60 -44 0 -4 -30
-10 -66 -12 -60 -4 -70 -7 -95 -36 -36 -40 -37 -80 -4 -116 31 -34 64 -46 124
-46 79 0 151 27 198 75 40 40 43 46 43 97 0 76 -25 110 -140 185 -121 80 -130
91 -130 161 0 44 7 67 35 117 19 34 40 67 48 73 7 6 70 16 141 22 145 11 229
29 325 67 102 40 349 164 413 206 206 138 339 416 307 646 -18 128 -94 309
-171 406 -152 191 -396 232 -654 110 -119 -57 -186 -69 -379 -69 -312 -1 -553
56 -755 177 -170 103 -395 299 -490 427 -28 37 -95 144 -149 237 -55 92 -127
205 -161 251 -70 93 -199 216 -340 323 -52 40 -111 85 -130 100 -80 64 -190
90 -270 64z m135 -206 c22 -12 58 -38 80 -59 22 -21 51 -43 65 -50 43 -22 152
-114 221 -186 88 -93 145 -171 246 -344 47 -80 111 -179 141 -220 109 -146
284 -304 512 -462 214 -148 350 -193 705 -234 243 -27 468 -1 632 75 139 63
214 74 313 45 133 -40 270 -265 270 -443 -1 -85 -14 -141 -51 -217 -64 -130
-179 -230 -356 -308 -215 -96 -297 -118 -498 -136 -66 -6 -189 -19 -273 -30
-123 -16 -209 -20 -430 -19 -152 0 -315 5 -362 9 -47 5 -134 13 -195 19 -268
25 -414 78 -514 187 -98 108 -139 236 -166 519 -8 94 -22 222 -31 285 -8 63
-24 207 -34 320 -19 200 -50 391 -105 635 -52 234 -99 339 -195 434 -80 80
-100 108 -100 143 0 58 55 74 125 37z"/>
<path d="M2420 2533 c-22 -8 -40 -34 -40 -59 0 -25 43 -64 71 -64 51 0 83 97
40 120 -21 11 -46 12 -71 3z"/>
<path d="M2846 2154 c-24 -23 -19 -62 10 -89 48 -44 114 -23 114 37 0 54 -86
90 -124 52z"/>
<path d="M5302 3990 c-197 -31 -330 -224 -278 -405 21 -71 51 -119 104 -167
83 -75 163 -96 273 -73 128 26 229 98 278 197 27 52 31 72 31 137 -1 122 -53
207 -173 277 -66 39 -139 50 -235 34z m112 -310 c12 -12 -9 -35 -41 -44 -16
-5 -25 -1 -33 14 -19 35 -5 54 32 46 18 -3 37 -11 42 -16z"/>
<path d="M4220 3747 c-94 -26 -191 -114 -238 -215 -39 -82 -38 -178 1 -245 73
-125 237 -170 377 -105 147 68 209 206 171 380 -17 78 -45 116 -116 154 -71
38 -133 48 -195 31z m60 -292 c0 -25 -32 -51 -50 -40 -15 9 -12 19 10 43 27
29 40 28 40 -3z"/>
<path d="M492 2008 c-28 -28 -13 -56 56 -104 90 -63 202 -124 229 -124 13 0
29 11 39 25 15 23 15 27 1 49 -17 25 -267 166 -296 166 -9 0 -22 -5 -29 -12z"/>
<path d="M5327 1098 c-32 -30 -57 -97 -57 -154 0 -39 5 -51 34 -80 27 -27 42
-34 74 -34 81 0 129 75 120 189 -4 44 -10 59 -32 78 -37 32 -105 32 -139 1z"/>
</g>
</svg>
