<?xml version="1.0" standalone="no"?>
<!DOCTYPE svg PUBLIC "-//W3C//DTD SVG 20010904//EN"
 "http://www.w3.org/TR/2001/REC-SVG-20010904/DTD/svg10.dtd">
<svg version="1.0" xmlns="http://www.w3.org/2000/svg"
 width="600.000000pt" height="600.000000pt" viewBox="0 0 600.000000 600.000000"
 preserveAspectRatio="xMidYMid meet">
<metadata>
Created by potrace 1.15, written by Peter Selinger 2001-2017
</metadata>
<g transform="translate(0.000000,600.000000) scale(0.100000,-0.100000)"
fill="#16364b" stroke="none">
<path d="M3145 5646 c-42 -19 -70 -52 -99 -116 -61 -133 -73 -290 -29 -375 28
-53 87 -108 149 -139 51 -25 199 -66 241 -66 46 0 29 -20 -65 -75 -123 -74
-192 -122 -372 -261 -80 -62 -152 -125 -161 -140 -26 -44 -35 -174 -15 -211
48 -95 207 -160 531 -218 50 -9 125 -25 167 -36 45 -11 90 -17 105 -13 85 20
137 98 115 172 -27 90 -102 124 -395 178 -88 17 -146 32 -144 38 8 25 245 193
412 293 248 148 285 185 285 289 0 134 -135 223 -415 273 -60 11 -123 24 -139
30 -27 11 -28 14 -22 52 4 22 20 70 36 106 36 79 38 119 7 164 -39 58 -130 84
-192 55z"/>
<path d="M1389 5398 c-139 -71 -317 -292 -439 -543 -72 -148 -89 -206 -97
-316 -8 -124 18 -192 90 -231 61 -33 120 -19 177 41 28 31 55 45 140 74 114
39 283 80 312 75 16 -3 6 -28 -70 -179 -87 -172 -114 -248 -128 -359 -3 -30
-14 -64 -24 -75 -66 -76 -47 -184 40 -227 50 -26 90 -22 151 12 121 67 221
116 343 166 159 66 173 75 197 127 24 53 24 93 0 137 -46 88 -128 102 -253 43
-43 -20 -80 -34 -83 -31 -3 3 23 59 59 124 77 141 107 224 114 317 9 123 -49
209 -165 243 -83 24 -292 15 -423 -19 -52 -14 -96 -23 -98 -22 -6 5 39 88 84
155 53 80 142 169 209 207 68 39 95 82 95 147 0 70 -26 115 -80 144 -58 29
-75 28 -151 -10z"/>
<path d="M4616 4455 c-115 -22 -275 -64 -308 -81 -85 -44 -91 -190 -11 -248
43 -31 97 -31 232 4 68 17 125 29 127 27 5 -4 -89 -133 -225 -312 -111 -143
-115 -151 -119 -205 -3 -40 1 -66 12 -89 34 -65 124 -91 188 -53 35 20 310
368 405 513 77 118 103 181 103 250 0 79 -40 143 -115 182 -52 27 -180 32
-289 12z"/>
<path d="M3845 3696 c-68 -33 -95 -74 -95 -141 0 -63 12 -83 134 -215 53 -57
96 -111 96 -119 0 -8 9 -34 21 -57 53 -111 213 -105 268 10 43 88 18 179 -79
288 -27 31 -50 64 -50 73 0 37 -43 86 -111 126 -78 47 -137 58 -184 35z"/>
<path d="M2530 3633 c-55 -9 -190 -57 -276 -97 -106 -51 -134 -84 -134 -161 0
-86 59 -145 145 -145 20 0 68 14 107 31 93 41 154 58 214 61 l49 3 -1 -45 c-3
-94 -76 -264 -248 -583 -93 -170 -104 -214 -71 -277 13 -24 106 -95 172 -129
47 -24 115 -13 269 45 202 76 204 77 204 54 0 -33 -81 -253 -126 -341 -65
-127 -60 -208 16 -272 72 -61 174 -54 244 17 70 72 202 338 253 511 25 87 23
223 -6 297 -77 198 -209 258 -431 194 -50 -14 -95 -26 -100 -26 -5 0 8 37 29
83 118 254 150 475 89 607 -35 78 -70 114 -140 149 -55 28 -70 31 -147 30 -47
-1 -97 -4 -111 -6z"/>
<path d="M4493 3469 c-57 -28 -98 -108 -88 -168 7 -43 34 -84 65 -101 11 -6
74 -26 142 -45 129 -38 248 -87 248 -104 0 -16 -66 -125 -160 -266 -48 -71
-92 -140 -99 -152 -25 -50 -3 -134 47 -173 65 -52 153 -47 212 13 83 84 273
407 305 521 44 151 -25 267 -212 357 -86 42 -364 139 -398 139 -11 0 -39 -9
-62 -21z"/>
<path d="M1105 3425 c-98 -31 -252 -123 -336 -202 -166 -155 10 -398 219 -303
41 19 42 19 42 0 0 -11 -23 -108 -50 -215 -71 -277 -91 -397 -106 -637 -11
-185 28 -250 172 -283 81 -20 121 -16 164 15 33 23 221 269 356 465 144 208
228 324 237 324 13 1 27 -48 27 -92 0 -43 -10 -113 -80 -552 -67 -425 -66
-522 11 -608 63 -73 157 -81 221 -20 60 56 73 130 37 198 -18 33 -20 49 -15
103 7 63 60 335 112 572 24 106 28 149 29 280 0 113 -5 174 -17 225 -9 39 -21
112 -27 162 -17 162 -79 239 -191 237 -109 -2 -171 -56 -331 -289 -103 -151
-246 -345 -254 -345 -2 0 -2 6 0 13 33 98 106 348 116 402 8 41 14 135 14 225
0 141 -2 160 -23 205 -29 63 -57 93 -107 116 -47 22 -158 24 -220 4z"/>
<path d="M3654 3182 c-118 -42 -208 -125 -265 -247 -34 -70 -36 -114 -10 -171
26 -57 72 -87 140 -92 75 -5 115 22 156 103 24 48 34 59 50 56 70 -13 181 -11
221 4 76 29 120 106 107 187 -8 53 -69 120 -135 148 -73 31 -195 37 -264 12z"/>
<path d="M4635 2219 c-84 -19 -147 -100 -161 -206 l-7 -53 -36 5 c-291 39
-388 47 -448 37 -86 -14 -162 -51 -222 -107 -103 -96 -128 -171 -141 -418 -5
-98 -12 -183 -16 -188 -3 -6 -36 18 -73 53 -176 170 -337 242 -485 218 -137
-22 -235 -116 -340 -326 -55 -110 -66 -116 -66 -33 0 62 -30 248 -52 324 -11
39 -35 103 -55 143 -28 60 -43 79 -81 103 -103 65 -239 21 -287 -93 -21 -52
-19 -99 9 -166 29 -69 48 -161 81 -392 27 -190 52 -294 91 -377 110 -232 447
-330 557 -161 23 36 27 53 27 113 0 56 8 95 39 188 46 136 106 266 127 274 19
7 61 -26 209 -166 79 -75 146 -128 182 -147 53 -26 67 -29 158 -29 95 0 103 2
163 34 60 33 132 101 132 126 0 6 15 26 34 44 57 55 74 110 86 272 6 79 13
164 16 188 l6 44 101 -6 c56 -3 145 -11 197 -17 130 -17 247 -8 316 24 81 37
155 112 194 198 30 65 34 85 38 180 3 69 0 124 -8 153 -32 115 -166 192 -285
164z"/>
</g>
</svg>
