<?xml version="1.0" standalone="no"?>
<!DOCTYPE svg PUBLIC "-//W3C//DTD SVG 20010904//EN"
 "http://www.w3.org/TR/2001/REC-SVG-20010904/DTD/svg10.dtd">
<svg version="1.0" xmlns="http://www.w3.org/2000/svg"
 width="600.000000pt" height="600.000000pt" viewBox="0 0 600.000000 600.000000"
 preserveAspectRatio="xMidYMid meet">
<metadata>
Created by potrace 1.15, written by Peter Selinger 2001-2017
</metadata>
<g transform="translate(0.000000,600.000000) scale(0.100000,-0.100000)"
fill="#16364b" stroke="none">
<path d="M3094 5646 c-41 -18 -73 -63 -117 -162 -53 -116 -70 -194 -65 -284
10 -175 116 -268 332 -290 49 -5 90 -11 92 -13 2 -2 -40 -33 -93 -68 -154
-100 -319 -220 -425 -308 -78 -65 -99 -88 -107 -119 -25 -91 39 -172 194 -247
49 -24 216 -87 370 -138 154 -52 293 -100 308 -106 103 -41 211 35 211 148 -1
54 -24 104 -60 127 -14 10 -109 39 -212 66 -259 67 -393 109 -389 122 8 25
267 208 418 295 90 52 181 108 202 124 118 91 97 250 -43 335 -85 51 -169 73
-300 78 -176 7 -200 12 -200 35 0 12 18 64 41 117 65 156 49 244 -54 287 -44
18 -63 18 -103 1z"/>
<path d="M1504 5402 c-11 -4 -51 -25 -88 -47 -186 -109 -421 -423 -521 -695
-37 -101 -42 -243 -9 -287 57 -78 132 -91 266 -48 125 40 309 85 371 92 45 5
57 3 57 -8 0 -15 -38 -91 -178 -361 l-82 -158 0 -88 c0 -76 3 -94 23 -122 60
-89 122 -96 244 -27 43 25 149 76 236 113 227 96 261 124 261 211 -1 60 -24
105 -71 138 -53 36 -109 34 -184 -6 -33 -18 -61 -30 -64 -28 -2 3 20 54 50
114 137 276 111 441 -82 516 -93 36 -321 28 -466 -17 -30 -9 -14 27 58 137 71
107 177 213 260 260 71 40 102 78 111 134 16 108 -92 208 -192 177z"/>
<path d="M4690 4493 c-99 -14 -163 -32 -308 -85 -91 -32 -174 -66 -185 -73
-74 -52 -75 -176 -3 -237 11 -10 37 -23 56 -29 39 -12 32 -13 228 61 61 24
114 41 117 38 6 -6 -3 -23 -85 -163 -148 -253 -240 -433 -240 -469 0 -53 27
-104 69 -131 20 -12 47 -34 60 -48 18 -20 80 -45 252 -102 126 -42 231 -80
234 -85 2 -4 -68 -121 -156 -260 -143 -225 -161 -257 -161 -295 0 -111 104
-180 208 -140 40 15 53 28 98 99 70 108 252 424 282 490 75 165 36 294 -114
374 -53 29 -315 120 -389 136 -18 4 -33 13 -33 19 0 6 47 85 104 176 154 248
226 408 226 507 0 46 -27 114 -58 148 -44 47 -137 79 -202 69z"/>
<path d="M3775 3668 c-46 -27 -75 -77 -75 -131 0 -91 103 -205 186 -207 23 0
37 -7 49 -26 15 -23 15 -29 2 -57 -8 -18 -17 -41 -19 -52 -3 -17 -12 -20 -71
-22 -186 -4 -332 -85 -419 -234 -45 -76 -51 -142 -18 -197 33 -54 75 -74 149
-69 60 3 66 5 100 44 20 22 44 52 54 67 10 14 36 35 58 46 35 18 46 20 99 10
78 -14 141 1 186 46 34 35 59 100 48 127 -4 11 4 21 25 32 107 55 154 259 91
391 -35 73 -134 165 -224 210 -99 48 -164 55 -221 22z"/>
<path d="M2425 3612 c-107 -33 -286 -132 -329 -182 -65 -78 -34 -207 61 -246
65 -27 109 -19 207 41 92 55 189 95 233 95 22 0 23 -3 23 -66 0 -114 -92 -346
-250 -634 -37 -66 -41 -81 -37 -125 4 -45 9 -54 63 -103 120 -108 151 -110
407 -34 98 30 180 52 183 50 7 -8 -55 -157 -111 -267 -41 -80 -55 -119 -55
-150 0 -159 206 -254 337 -155 64 48 196 349 228 519 63 331 -122 512 -450
440 -147 -32 -139 -32 -122 1 24 49 75 215 93 303 24 121 16 258 -18 332 -35
76 -88 133 -156 166 -74 36 -214 43 -307 15z"/>
<path d="M1089 3356 c-74 -26 -156 -74 -242 -141 -77 -61 -97 -95 -97 -169 0
-73 26 -122 83 -159 51 -34 130 -36 195 -7 23 10 42 17 42 14 0 -3 -18 -76
-39 -162 -56 -224 -88 -384 -111 -565 -26 -207 -26 -261 3 -317 30 -59 61 -79
148 -96 80 -16 128 -12 172 14 50 29 324 380 512 655 l100 146 16 -37 c13 -31
15 -55 8 -137 -10 -126 -34 -237 -98 -443 -70 -225 -81 -347 -42 -489 13 -46
61 -115 102 -146 53 -39 145 -39 198 0 56 42 69 123 30 192 -19 35 -21 50 -16
123 3 46 23 153 45 243 59 234 83 379 89 555 4 122 2 169 -11 223 -9 38 -16
90 -16 116 0 168 -108 282 -254 267 -115 -12 -180 -72 -326 -307 -127 -203
-203 -315 -207 -303 -2 6 12 78 31 160 53 231 69 352 64 479 -3 85 -9 121 -27
160 -62 141 -190 188 -352 131z"/>
<path d="M4671 2225 c-73 -23 -123 -87 -137 -175 l-7 -41 -96 8 c-143 12 -326
7 -411 -11 -100 -21 -205 -73 -263 -130 -87 -84 -126 -206 -127 -389 l0 -77
-72 60 c-132 111 -254 153 -376 131 -177 -33 -317 -170 -443 -435 -26 -55 -48
-96 -48 -91 -1 6 -17 87 -36 180 -67 323 -107 428 -179 470 -89 52 -197 25
-257 -65 -39 -57 -40 -138 -5 -209 33 -64 60 -175 85 -346 12 -77 26 -162 32
-190 51 -237 160 -392 314 -446 163 -57 305 14 325 162 19 139 171 458 262
546 l38 37 111 -113 c189 -192 272 -238 408 -229 79 6 135 32 202 95 42 39 53
58 75 127 22 70 27 106 32 271 l7 190 55 3 c30 2 136 -4 235 -13 292 -28 395
-9 495 94 78 79 95 132 95 286 -1 110 -3 124 -27 171 -57 110 -178 164 -287
129z"/>
</g>
</svg>
