<?xml version="1.0" standalone="no"?>
<!DOCTYPE svg PUBLIC "-//W3C//DTD SVG 20010904//EN"
 "http://www.w3.org/TR/2001/REC-SVG-20010904/DTD/svg10.dtd">
<svg version="1.0" xmlns="http://www.w3.org/2000/svg"
 width="600.000000pt" height="600.000000pt" viewBox="0 0 600.000000 600.000000"
 preserveAspectRatio="xMidYMid meet">
<metadata>
Created by potrace 1.15, written by Peter Selinger 2001-2017
</metadata>
<g transform="translate(0.000000,600.000000) scale(0.100000,-0.100000)"
fill="#16364b" stroke="none">
<path d="M2736 5560 c-45 -14 -76 -49 -113 -130 -96 -209 -97 -356 -3 -447 64
-63 160 -78 379 -59 l104 8 -164 -163 c-159 -159 -226 -235 -337 -385 -92
-126 -98 -165 -39 -255 53 -82 41 -79 507 -114 113 -9 247 -22 297 -30 51 -8
108 -15 126 -15 70 0 137 74 137 151 0 43 -35 99 -72 117 -30 14 -177 34 -428
57 -96 9 -181 18 -188 21 -21 6 111 148 263 283 222 197 299 279 314 334 28
98 -11 186 -108 244 -81 49 -138 57 -358 50 -106 -4 -193 -3 -193 1 0 4 14 34
31 67 17 33 35 73 40 89 20 69 -36 153 -118 175 -43 12 -38 12 -77 1z"/>
<path d="M1613 5221 c-88 -30 -161 -87 -339 -265 -170 -170 -233 -249 -280
-349 -41 -90 -27 -171 40 -222 47 -36 102 -41 202 -20 100 21 348 33 358 17 4
-7 -9 -70 -29 -140 -50 -185 -45 -249 26 -299 l32 -22 -42 -10 c-22 -6 -60
-16 -83 -22 -99 -26 -150 -82 -151 -167 -2 -98 59 -149 167 -139 103 9 482
125 599 184 117 59 118 204 2 270 -56 32 -89 29 -201 -16 -54 -22 -99 -39
-101 -37 -1 1 2 18 7 37 77 284 94 448 53 524 -56 106 -179 164 -345 165 -32
0 -58 4 -58 9 0 20 178 173 237 203 84 44 116 93 110 166 -4 59 -27 98 -73
123 -47 27 -76 29 -131 10z"/>
<path d="M4335 4644 c-75 -17 -297 -94 -357 -125 -55 -28 -78 -63 -78 -119 0
-88 73 -155 160 -147 25 3 99 25 165 50 66 25 134 48 152 52 l32 6 -15 -53
c-21 -74 -118 -273 -193 -397 -75 -124 -84 -151 -70 -205 12 -46 108 -159 148
-175 14 -5 139 -12 276 -14 259 -5 295 -9 295 -34 0 -21 -49 -140 -120 -288
-101 -212 -110 -234 -110 -285 0 -63 31 -109 92 -134 41 -17 53 -18 88 -7 22
6 50 23 63 37 28 30 226 441 257 533 51 152 31 271 -60 361 -77 78 -171 104
-421 116 l-136 7 68 133 c90 178 120 271 126 400 6 113 -2 151 -47 213 -59 80
-171 107 -315 75z"/>
<path d="M3736 3694 c-83 -20 -155 -64 -222 -136 -68 -75 -88 -117 -81 -176 6
-58 32 -91 91 -121 44 -22 53 -23 93 -13 51 14 100 47 109 74 6 21 80 78 101
78 20 0 16 -91 -8 -163 -11 -34 -39 -94 -62 -134 -39 -66 -47 -74 -107 -102
-97 -44 -187 -106 -211 -143 -16 -26 -19 -45 -16 -91 3 -48 8 -62 36 -91 38
-39 97 -60 147 -50 19 3 58 22 86 42 76 52 159 87 295 126 187 54 231 83 253
167 19 68 -24 160 -89 194 l-29 14 5 128 c4 100 2 140 -11 182 -35 117 -99
186 -199 216 -61 18 -103 18 -181 -1z"/>
<path d="M2495 3519 c-115 -17 -375 -106 -419 -144 -58 -50 -73 -137 -33 -195
53 -80 133 -93 263 -42 157 61 355 87 370 49 7 -20 -32 -160 -62 -219 -15 -29
-43 -78 -62 -108 -30 -46 -36 -64 -36 -112 -1 -42 4 -64 20 -85 36 -48 82 -73
136 -73 102 0 146 49 232 264 117 290 82 531 -90 623 -89 48 -189 61 -319 42z"/>
<path d="M1145 3236 c-100 -32 -232 -124 -259 -181 -66 -139 51 -314 195 -291
48 8 47 19 19 -200 -49 -382 -32 -695 42 -780 41 -46 77 -64 132 -64 52 0 80
11 153 58 49 32 61 49 174 246 67 116 141 240 164 276 54 81 152 200 165 200
5 0 17 -26 27 -57 14 -47 17 -93 17 -233 -1 -190 -18 -337 -59 -508 -14 -57
-25 -118 -25 -135 0 -50 32 -99 80 -124 50 -27 87 -29 136 -8 35 14 35 14 27
-8 -13 -35 -7 -193 11 -297 30 -173 123 -429 194 -532 41 -60 110 -121 174
-155 49 -26 62 -28 164 -28 108 0 112 1 188 39 44 21 101 60 129 87 28 27 70
58 94 70 48 23 62 40 122 154 64 120 129 213 196 282 92 94 127 95 276 7 52
-31 120 -65 152 -75 80 -26 190 -25 260 1 108 40 220 142 234 211 4 20 18 36
49 54 55 33 91 85 106 157 13 60 11 68 -56 242 -15 38 -29 94 -33 126 -7 70
-1 75 109 90 40 6 121 17 180 25 287 39 434 207 415 473 -10 130 -66 209 -174
248 -143 51 -302 -59 -303 -208 0 -53 3 -52 -105 -63 -101 -11 -242 -52 -317
-92 -135 -72 -246 -198 -282 -322 -35 -121 -12 -291 64 -458 23 -50 27 -69 19
-79 -17 -21 -26 -18 -124 37 -49 28 -124 62 -165 76 -66 22 -87 25 -175 20
-120 -5 -184 -27 -291 -99 -115 -77 -258 -247 -379 -450 -25 -42 -54 -80 -65
-83 -11 -3 -42 -22 -69 -41 -28 -19 -56 -34 -63 -34 -48 1 -128 245 -163 497
-19 135 -41 171 -130 213 -58 28 -94 25 -186 -14 -14 -6 -14 1 3 66 10 40 34
163 53 273 30 173 35 222 35 360 0 209 -36 456 -77 540 -45 89 -140 142 -238
132 -119 -12 -264 -125 -405 -316 -44 -59 -76 -94 -78 -85 -2 8 3 77 12 153
32 273 18 409 -52 511 -66 97 -179 133 -297 96z"/>
<path d="M3098 2575 c-37 -9 -134 -36 -215 -60 -81 -25 -185 -54 -232 -65 -91
-22 -141 -52 -166 -100 -17 -34 -20 -106 -4 -147 15 -40 67 -92 114 -114 65
-30 118 -24 275 31 152 54 283 90 323 90 30 0 29 -7 -22 -133 -50 -126 -40
-210 32 -274 63 -55 167 -58 241 -6 69 48 145 221 167 380 24 172 -45 311
-187 378 -50 24 -74 29 -159 31 -64 2 -124 -2 -167 -11z"/>
</g>
</svg>
