<?xml version="1.0" standalone="no"?>
<!DOCTYPE svg PUBLIC "-//W3C//DTD SVG 20010904//EN"
 "http://www.w3.org/TR/2001/REC-SVG-20010904/DTD/svg10.dtd">
<svg version="1.0" xmlns="http://www.w3.org/2000/svg"
 width="600.000000pt" height="600.000000pt" viewBox="0 0 600.000000 600.000000"
 preserveAspectRatio="xMidYMid meet">
<metadata>
Created by potrace 1.15, written by Peter Selinger 2001-2017
</metadata>
<g transform="translate(0.000000,600.000000) scale(0.100000,-0.100000)"
fill="#16364b" stroke="none">
<path d="M1627 5771 c-15 -10 -34 -27 -42 -38 -31 -44 -102 -396 -112 -553
-10 -170 31 -265 136 -312 117 -53 256 35 436 277 93 125 194 292 204 337 26
112 -70 207 -178 178 -52 -14 -80 -48 -174 -210 -43 -74 -87 -146 -97 -160
l-20 -25 0 30 c0 17 14 95 30 175 34 166 36 209 15 251 -34 64 -137 91 -198
50z"/>
<path d="M3150 5592 c-54 -30 -75 -65 -75 -126 0 -32 6 -62 17 -77 9 -15 84
-79 167 -143 154 -119 249 -205 290 -263 l22 -33 -51 0 c-46 0 -56 -4 -85 -33
-118 -118 21 -266 240 -255 91 4 157 41 195 108 103 186 -107 480 -576 807
-47 33 -101 38 -144 15z"/>
<path d="M849 5442 c-209 -69 -343 -317 -283 -523 40 -136 178 -268 282 -269
82 0 149 69 139 143 -5 35 -16 51 -78 108 l-72 67 5 50 c9 96 76 149 172 137
71 -9 118 13 151 70 45 75 24 169 -46 210 -48 28 -194 32 -270 7z"/>
<path d="M2956 5168 c-54 -15 -120 -84 -159 -166 -27 -57 -32 -78 -32 -144 0
-69 3 -81 30 -119 17 -23 50 -53 75 -67 40 -21 54 -23 130 -19 107 5 190 35
222 80 20 28 23 43 21 117 -2 98 -28 194 -67 244 -29 38 -117 87 -155 85 -15
-1 -44 -6 -65 -11z"/>
<path d="M2270 4859 c-13 -6 -32 -17 -40 -24 -9 -8 -52 -21 -96 -29 -86 -15
-170 -44 -222 -76 -43 -26 -76 -98 -67 -143 22 -103 118 -143 233 -98 27 11
97 29 156 40 58 11 122 27 141 37 71 34 104 99 92 187 -7 50 -46 90 -104 106
-45 13 -60 13 -93 0z"/>
<path d="M4772 4833 c-60 -29 -89 -74 -97 -147 -20 -183 44 -406 140 -495 69
-63 119 -85 200 -85 161 -1 279 117 279 280 0 62 -4 81 -37 147 -56 113 -168
217 -314 291 -60 30 -122 34 -171 9z"/>
<path d="M2820 4116 c-260 -58 -296 -326 -60 -446 77 -39 164 -53 305 -47 205
9 386 65 432 136 42 63 23 157 -41 206 -71 53 -299 133 -443 154 -88 13 -122
13 -193 -3z"/>
<path d="M1035 4066 c-38 -17 -80 -62 -94 -99 -19 -50 -14 -130 12 -167 43
-65 67 -74 190 -80 l111 -5 -58 -70 c-73 -87 -228 -241 -414 -409 -155 -140
-177 -168 -187 -237 -22 -146 145 -258 274 -184 l43 25 29 -25 c61 -51 139
-43 224 22 36 27 50 33 53 23 7 -20 48 -56 107 -94 131 -85 127 -245 -10 -452
-63 -94 -123 -159 -184 -200 -38 -25 -46 -26 -75 -16 -80 29 -159 4 -189 -61
-21 -43 -21 -67 -3 -110 45 -109 226 -150 371 -83 163 74 383 331 457 532 17
47 21 82 22 174 0 107 -2 120 -30 186 -36 83 -101 171 -175 238 -28 26 -50 49
-47 51 2 3 48 25 102 50 l97 46 29 -30 c37 -37 91 -55 136 -46 74 13 145 114
129 183 -3 15 -9 62 -14 105 -19 165 -118 226 -257 158 -73 -36 -225 -101
-235 -101 -4 0 22 39 58 88 37 48 82 121 102 162 32 66 36 84 36 150 -1 86
-14 119 -73 176 -41 40 -90 68 -161 91 -66 22 -335 28 -376 9z"/>
<path d="M4285 3781 c-233 -30 -355 -144 -355 -330 0 -116 59 -209 165 -261
42 -21 65 -25 145 -25 82 0 102 3 150 27 118 56 197 167 240 338 34 131 13
201 -68 233 -46 19 -196 28 -277 18z m2 -306 c-31 -28 -47 -32 -47 -12 0 15
35 35 60 36 10 0 5 -8 -13 -24z"/>
<path d="M3441 3398 c-84 -24 -169 -111 -231 -237 -43 -87 -47 -125 -18 -180
34 -65 74 -83 163 -75 39 4 87 15 107 25 82 41 148 141 169 254 19 105 -6 176
-75 209 -38 18 -65 19 -115 4z"/>
<path d="M5029 3268 c-84 -43 -187 -145 -227 -224 -86 -170 -43 -351 100 -425
128 -66 324 34 410 208 30 61 33 76 33 158 0 78 -4 97 -27 141 -32 61 -101
140 -140 160 -42 22 -80 17 -149 -18z"/>
<path d="M2140 2521 c-70 -23 -132 -74 -230 -191 -30 -36 -85 -97 -122 -137
-37 -40 -76 -89 -87 -110 -10 -21 -29 -47 -41 -58 -63 -57 -160 -225 -199
-345 -71 -221 -85 -479 -34 -635 67 -208 265 -398 521 -501 211 -84 484 -85
675 0 147 65 351 253 465 429 109 168 228 498 252 700 29 236 -63 434 -237
515 -81 37 -247 43 -376 13 -48 -12 -92 -21 -97 -21 -4 0 -18 29 -30 64 -58
175 -185 274 -360 282 -41 2 -86 0 -100 -5z m121 -468 c32 -98 52 -135 104
-184 59 -57 119 -89 166 -89 21 0 111 16 200 36 89 19 176 34 193 32 30 -3 31
-5 34 -57 4 -67 -15 -152 -72 -317 -86 -252 -122 -326 -210 -427 -72 -82 -133
-126 -222 -159 -49 -18 -81 -21 -184 -22 -149 0 -198 15 -312 97 -129 93 -178
182 -178 326 0 166 89 402 195 520 18 20 47 60 64 90 32 53 177 221 192 221 4
0 17 -30 30 -67z"/>
<path d="M4015 2441 c-49 -22 -88 -60 -110 -108 -15 -31 -16 -53 -11 -141 l7
-104 -23 9 c-13 4 -57 8 -98 8 -65 0 -81 -4 -117 -28 -66 -42 -97 -96 -101
-178 -6 -91 15 -183 97 -443 46 -143 78 -227 93 -243 85 -93 254 -60 319 61
22 43 27 46 65 46 90 0 195 56 245 130 56 83 57 189 4 435 -14 66 -39 189 -55
274 -17 84 -37 169 -46 188 -21 43 -70 81 -130 99 -62 18 -91 17 -139 -5z"/>
</g>
</svg>
