<?xml version="1.0" standalone="no"?>
<!DOCTYPE svg PUBLIC "-//W3C//DTD SVG 20010904//EN"
 "http://www.w3.org/TR/2001/REC-SVG-20010904/DTD/svg10.dtd">
<svg version="1.0" xmlns="http://www.w3.org/2000/svg"
 width="600.000000pt" height="600.000000pt" viewBox="0 0 600.000000 600.000000"
 preserveAspectRatio="xMidYMid meet">
<metadata>
Created by potrace 1.15, written by Peter Selinger 2001-2017
</metadata>
<g transform="translate(0.000000,600.000000) scale(0.100000,-0.100000)"
fill="#16364b" stroke="none">
<path d="M1661 5817 c-13 -6 -33 -24 -43 -38 -22 -29 -121 -405 -138 -527 -37
-250 36 -398 195 -396 143 0 250 103 484 462 104 160 117 200 86 266 -24 51
-68 79 -129 83 -79 6 -101 -14 -221 -198 -58 -89 -108 -159 -111 -156 -6 5 38
208 61 285 30 98 10 171 -57 212 -37 23 -91 26 -127 7z"/>
<path d="M3172 5609 c-72 -15 -116 -94 -93 -169 14 -46 34 -67 161 -161 52
-38 130 -102 174 -141 77 -71 186 -193 186 -211 0 -5 -12 -8 -27 -7 -69 5 -86
0 -124 -39 -34 -34 -39 -44 -39 -85 0 -85 32 -122 135 -152 117 -33 249 1 306
79 96 132 35 347 -153 539 -117 119 -403 335 -461 347 -18 4 -47 4 -65 0z"/>
<path d="M916 5460 c-124 -32 -263 -151 -324 -278 -35 -72 -37 -83 -37 -172 0
-86 3 -101 32 -163 57 -121 180 -215 264 -204 141 19 178 199 58 285 -53 38
-73 75 -66 125 6 44 29 80 71 111 22 17 43 21 104 21 42 1 86 6 97 12 70 39
94 122 55 190 -12 22 -35 48 -51 57 -35 21 -148 29 -203 16z"/>
<path d="M2985 5161 c-135 -33 -250 -184 -231 -303 25 -153 201 -237 387 -182
103 30 124 68 116 210 -7 148 -45 225 -132 265 -41 19 -88 22 -140 10z"/>
<path d="M4762 4843 c-78 -38 -100 -101 -88 -252 17 -236 104 -400 246 -464
63 -29 170 -29 226 1 56 29 119 103 140 164 22 69 16 178 -15 240 -47 98 -169
201 -345 293 -74 38 -114 43 -164 18z"/>
<path d="M2120 4815 c-127 -26 -221 -71 -250 -118 -38 -62 -20 -154 37 -195
48 -34 85 -36 149 -9 78 32 102 37 213 47 103 9 129 22 169 80 41 60 20 151
-43 190 -26 16 -48 20 -121 19 -49 0 -118 -7 -154 -14z"/>
<path d="M2827 4099 c-121 -28 -187 -105 -187 -216 1 -155 125 -251 356 -277
103 -12 391 36 475 79 72 38 96 124 58 202 -22 44 -32 52 -117 95 -204 101
-446 150 -585 117z"/>
<path d="M1003 4041 c-88 -41 -121 -166 -68 -258 37 -63 83 -83 190 -83 48 0
85 -4 85 -10 0 -17 -90 -113 -339 -360 -315 -312 -339 -355 -273 -481 47 -91
134 -120 232 -78 46 20 49 20 81 4 58 -31 121 -17 219 47 47 31 104 65 128 77
l43 22 32 -33 c18 -18 49 -46 70 -63 74 -58 87 -168 36 -319 -52 -157 -149
-304 -252 -382 -49 -36 -67 -44 -103 -44 -93 0 -161 -51 -171 -128 -8 -68 56
-135 142 -147 57 -9 167 19 245 62 208 116 422 465 449 732 19 181 -29 333
-138 436 l-32 29 43 23 c55 28 62 28 78 -2 35 -66 140 -88 205 -44 60 41 75
82 75 200 -1 131 -19 190 -73 233 -35 28 -46 31 -105 31 -63 -1 -76 -5 -222
-77 -85 -43 -156 -76 -158 -74 -1 2 35 56 82 120 115 157 148 227 149 309 1
52 -4 73 -26 110 -61 103 -186 147 -462 162 -106 5 -125 4 -162 -14z"/>
<path d="M4174 3761 c-111 -32 -180 -88 -235 -191 -20 -38 -24 -60 -24 -135 0
-78 4 -97 26 -140 50 -96 166 -160 290 -159 152 0 298 123 363 303 52 143 43
233 -25 282 -36 26 -193 59 -274 58 -33 0 -88 -8 -121 -18z m91 -311 c-19 -21
-55 -27 -55 -10 0 12 31 29 54 30 18 0 18 -1 1 -20z"/>
<path d="M3443 3401 c-71 -18 -136 -93 -202 -236 -44 -93 -47 -120 -19 -174
32 -61 73 -81 166 -81 89 0 139 22 182 82 59 81 82 245 46 325 -29 66 -102
101 -173 84z"/>
<path d="M5048 3242 c-64 -33 -164 -110 -211 -162 -134 -149 -111 -368 48
-453 55 -30 189 -30 255 0 71 33 126 87 162 160 27 55 33 80 36 153 4 78 1 94
-21 143 -14 31 -45 77 -69 103 -68 74 -130 91 -200 56z"/>
<path d="M4008 2501 c-77 -25 -130 -80 -150 -155 -10 -39 -9 -60 9 -147 18
-87 19 -99 5 -94 -103 39 -208 18 -278 -57 -91 -96 -96 -198 -24 -493 38 -153
86 -299 114 -341 92 -142 309 -112 377 51 22 53 24 55 60 55 102 0 244 99 292
203 51 110 44 191 -38 457 -29 96 -66 226 -81 289 -30 127 -62 180 -125 213
-43 22 -122 31 -161 19z"/>
<path d="M2075 2468 c-48 -18 -99 -53 -157 -110 -75 -74 -183 -216 -214 -280
-14 -29 -54 -98 -89 -153 -145 -224 -215 -465 -215 -735 0 -159 44 -293 131
-398 70 -85 221 -202 359 -279 220 -121 493 -117 737 12 113 60 189 120 316
249 156 160 213 252 272 438 44 139 114 433 121 504 16 178 -70 350 -209 421
-100 50 -225 48 -420 -9 -59 -17 -109 -29 -110 -27 -2 2 -11 30 -21 62 -52
170 -243 318 -409 316 -34 0 -75 -5 -92 -11z m146 -497 c37 -109 67 -158 131
-216 101 -92 136 -94 364 -25 90 27 182 53 204 56 l40 7 0 -34 c-1 -99 -83
-369 -161 -526 -57 -116 -183 -268 -266 -321 -104 -67 -137 -76 -268 -77 -138
0 -178 11 -285 80 -97 62 -133 97 -166 162 -27 54 -29 65 -29 173 1 106 4 123
38 225 39 112 108 251 151 302 13 16 38 57 55 93 32 68 136 193 154 187 6 -2
23 -41 38 -86z"/>
</g>
</svg>
