<?xml version="1.0" standalone="no"?>
<!DOCTYPE svg PUBLIC "-//W3C//DTD SVG 20010904//EN"
 "http://www.w3.org/TR/2001/REC-SVG-20010904/DTD/svg10.dtd">
<svg version="1.0" xmlns="http://www.w3.org/2000/svg"
 width="600.000000pt" height="600.000000pt" viewBox="0 0 600.000000 600.000000"
 preserveAspectRatio="xMidYMid meet">
<metadata>
Created by potrace 1.15, written by Peter Selinger 2001-2017
</metadata>
<g transform="translate(0.000000,600.000000) scale(0.100000,-0.100000)"
fill="#16364b" stroke="none">
<path d="M2369 5391 c-27 -27 -29 -35 -29 -104 0 -94 -26 -348 -46 -447 -32
-156 -98 -248 -227 -313 -54 -27 -78 -46 -87 -66 -24 -58 15 -116 78 -115 47
0 172 60 230 109 49 42 113 133 142 200 50 117 80 330 80 577 0 146 0 147 -26
167 -38 30 -80 27 -115 -8z"/>
<path d="M3529 5310 c-8 -5 -24 -27 -34 -49 -17 -40 -17 -41 5 -96 46 -113
149 -240 216 -265 94 -36 173 43 145 146 -14 51 -76 154 -121 201 -59 61 -162
92 -211 63z"/>
<path d="M3000 5139 c-79 -31 -160 -162 -168 -271 -5 -78 7 -117 50 -153 60
-51 130 -39 238 40 95 70 138 243 80 328 -14 20 -39 44 -57 52 -35 17 -105 19
-143 4z m56 -175 c-3 -9 -9 -26 -12 -39 -3 -13 -17 -31 -31 -40 -24 -16 -25
-16 -18 7 11 34 45 88 57 88 6 0 7 -7 4 -16z"/>
<path d="M4744 4751 c-47 -29 -58 -73 -51 -210 10 -193 46 -337 106 -424 76
-111 233 -108 294 7 18 33 22 57 22 131 0 154 -59 293 -179 423 -88 94 -131
110 -192 73z"/>
<path d="M2643 4207 c-68 -34 -103 -84 -103 -152 0 -80 49 -143 150 -195 67
-35 193 -39 278 -11 115 39 186 93 203 154 8 32 7 45 -10 80 -26 53 -42 63
-176 104 -77 24 -137 36 -200 39 -81 5 -95 3 -142 -19z"/>
<path d="M1109 4121 c-20 -21 -29 -39 -29 -62 0 -18 -7 -40 -16 -50 -69 -76
33 -266 160 -298 91 -23 190 22 227 103 51 113 -13 225 -174 302 -90 43 -129
44 -168 5z"/>
<path d="M5270 3896 c-109 -30 -195 -88 -239 -160 -97 -157 -25 -371 159 -471
49 -26 65 -30 140 -30 73 0 93 4 142 28 67 33 121 90 157 166 23 49 26 68 26
161 0 94 -3 110 -27 155 -28 53 -68 94 -134 138 -34 23 -50 27 -110 26 -38 0
-89 -6 -114 -13z m78 -292 c30 -8 28 -30 -4 -51 -25 -16 -27 -16 -40 2 -17 23
-18 42 -1 48 17 7 19 7 45 1z"/>
<path d="M4173 3752 c-106 -38 -180 -111 -208 -206 -41 -139 10 -271 133 -343
65 -38 192 -45 274 -13 63 23 135 86 164 141 60 116 59 297 -2 360 -64 67
-255 99 -361 61z m107 -265 c0 -21 -37 -50 -54 -44 -20 8 -11 32 17 45 30 15
37 14 37 -1z"/>
<path d="M3475 3363 c-36 -10 -64 -35 -114 -102 -72 -98 -123 -199 -116 -230
14 -61 80 -86 148 -57 78 32 185 176 203 272 8 45 -12 91 -47 109 -29 15 -39
16 -74 8z"/>
<path d="M1430 3233 c-101 -6 -229 -27 -290 -45 -248 -76 -378 -251 -368 -497
5 -129 40 -206 136 -300 96 -94 180 -132 382 -175 191 -41 250 -118 375 -491
76 -228 133 -337 234 -447 69 -76 158 -132 256 -165 107 -34 296 -42 472 -19
93 12 210 16 502 16 408 0 505 7 738 55 326 67 487 141 711 322 190 155 286
324 327 577 29 181 15 341 -40 458 -83 175 -335 368 -541 414 -165 36 -287 6
-588 -146 -202 -103 -334 -155 -367 -147 -11 3 -53 1 -95 -4 -93 -12 -189 0
-299 37 -157 52 -254 106 -500 278 -203 142 -334 199 -565 245 -99 20 -339 43
-405 39 -16 -1 -50 -3 -75 -5z m440 -408 c83 -17 202 -59 260 -92 25 -14 124
-78 220 -143 362 -242 525 -318 755 -355 54 -9 102 -18 107 -21 13 -8 147 15
270 46 178 45 276 85 420 172 73 45 158 91 188 104 122 52 244 19 366 -98 73
-70 84 -97 84 -209 0 -127 -54 -289 -128 -387 -34 -45 -170 -146 -251 -186
-119 -61 -293 -102 -541 -131 -133 -16 -539 -34 -755 -35 -71 0 -148 -5 -170
-10 -96 -21 -247 -31 -318 -20 -196 30 -260 107 -342 408 -67 247 -151 415
-262 524 -103 102 -218 164 -368 198 -178 41 -220 60 -231 105 -23 92 69 130
366 149 87 5 259 -5 330 -19z"/>
<path d="M454 2116 c-51 -22 -67 -91 -30 -128 7 -7 28 -42 47 -78 44 -83 123
-168 191 -205 101 -55 207 -35 234 45 33 100 -71 220 -281 324 -111 55 -122
58 -161 42z"/>
<path d="M5161 1290 c-13 -6 -29 -17 -35 -24 -6 -8 -23 -16 -38 -20 -52 -12
-81 -47 -85 -107 -12 -146 97 -263 201 -214 57 27 105 154 106 282 0 58 -90
107 -149 83z"/>
</g>
</svg>
