<?xml version="1.0" standalone="no"?>
<!DOCTYPE svg PUBLIC "-//W3C//DTD SVG 20010904//EN"
 "http://www.w3.org/TR/2001/REC-SVG-20010904/DTD/svg10.dtd">
<svg version="1.0" xmlns="http://www.w3.org/2000/svg"
 width="600.000000pt" height="600.000000pt" viewBox="0 0 600.000000 600.000000"
 preserveAspectRatio="xMidYMid meet">
<metadata>
Created by potrace 1.15, written by Peter Selinger 2001-2017
</metadata>
<g transform="translate(0.000000,600.000000) scale(0.100000,-0.100000)"
fill="#16364b" stroke="none">
<path d="M2180 5454 c-95 -35 -168 -103 -214 -200 -47 -99 -49 -120 -51 -504
-3 -526 -24 -1697 -31 -1750 -3 -25 -9 -48 -13 -52 -9 -10 -228 35 -333 68
-46 14 -128 44 -184 65 l-100 40 0 47 c1 35 -3 47 -15 50 -12 2 -19 -7 -24
-35 l-7 -38 -29 58 c-21 42 -35 57 -47 55 -14 -3 -16 -13 -13 -57 l3 -54 -35
22 c-19 11 -39 21 -46 21 -20 0 -12 -36 14 -60 34 -32 31 -41 -12 -38 -27 2
-38 -1 -40 -13 -3 -11 33 -32 129 -76 236 -109 361 -151 583 -193 61 -12 118
-24 128 -26 16 -5 17 -28 17 -292 0 -158 5 -339 11 -402 28 -304 98 -479 259
-641 96 -97 175 -143 329 -194 l94 -31 -2 -125 c-2 -149 14 -250 71 -444 23
-77 42 -153 42 -170 l1 -30 -75 0 c-119 -1 -130 -3 -161 -34 -23 -23 -29 -38
-29 -71 0 -88 99 -129 242 -99 105 23 167 72 189 151 13 51 10 70 -46 254 -66
215 -88 330 -83 441 2 51 7 95 11 99 4 4 38 2 76 -5 53 -10 171 -11 483 -5
l413 7 1 -134 c0 -142 18 -231 94 -480 17 -53 30 -101 30 -107 0 -5 -37 -13
-82 -17 -99 -9 -121 -16 -153 -51 -38 -41 -33 -113 8 -136 95 -51 283 -5 348
85 42 58 39 109 -17 280 -79 243 -101 401 -71 517 l12 45 215 21 c147 15 234
28 273 42 167 60 276 186 329 381 17 63 21 107 22 266 1 163 -3 216 -28 370
-15 99 -37 207 -48 239 -40 121 -104 227 -208 345 -44 50 -66 83 -58 85 7 2
63 16 123 31 273 68 478 154 592 249 63 52 73 69 51 83 -7 4 -13 15 -13 23 0
11 -10 15 -33 13 -31 -1 -33 1 -28 23 10 37 -19 42 -53 10 -33 -32 -39 -32
-43 -4 -2 13 -11 24 -20 26 -14 3 -17 -6 -20 -50 l-3 -53 -70 -37 c-122 -64
-435 -158 -582 -174 l-61 -6 -102 96 c-56 53 -138 125 -183 160 -94 73 -503
354 -633 436 -161 101 -258 210 -328 369 -46 104 -165 456 -196 581 -16 63
-36 167 -45 230 -23 161 -40 231 -74 298 -70 139 -177 211 -323 218 -60 3 -95
0 -128 -12z m206 -163 c88 -40 135 -133 159 -313 37 -281 67 -399 171 -675
119 -313 162 -392 279 -508 38 -39 126 -108 195 -154 69 -47 166 -115 216
-151 49 -37 160 -114 245 -170 214 -143 258 -180 475 -402 307 -313 339 -369
384 -663 34 -224 40 -440 15 -558 -29 -136 -120 -256 -223 -292 -26 -9 -121
-25 -212 -37 -139 -17 -244 -21 -670 -25 -472 -4 -515 -3 -660 16 -85 12 -189
31 -230 42 -291 80 -429 247 -491 596 -33 186 -38 648 -10 968 27 316 31 486
35 1391 4 755 4 761 25 810 12 27 34 62 49 78 60 63 167 84 248 47z"/>
<path d="M2617 2862 c-34 -37 -17 -91 34 -112 30 -13 33 -12 55 14 45 52 21
116 -43 116 -16 0 -37 -8 -46 -18z"/>
<path d="M3167 2812 c-25 -28 -21 -67 9 -91 33 -26 56 -27 77 -3 25 28 26 72
1 96 -21 22 -67 20 -87 -2z"/>
<path d="M3050 1909 c-41 -6 -109 -8 -151 -6 -85 5 -109 -3 -109 -38 0 -59 70
-69 345 -51 157 11 180 23 138 75 -22 27 -111 34 -223 20z"/>
</g>
</svg>
