<?xml version="1.0" standalone="no"?>
<!DOCTYPE svg PUBLIC "-//W3C//DTD SVG 20010904//EN"
 "http://www.w3.org/TR/2001/REC-SVG-20010904/DTD/svg10.dtd">
<svg version="1.0" xmlns="http://www.w3.org/2000/svg"
 width="600.000000pt" height="600.000000pt" viewBox="0 0 600.000000 600.000000"
 preserveAspectRatio="xMidYMid meet">
<metadata>
Created by potrace 1.15, written by Peter Selinger 2001-2017
</metadata>
<g transform="translate(0.000000,600.000000) scale(0.100000,-0.100000)"
fill="#16364b" stroke="none">
<path d="M2150 5404 c-105 -38 -191 -136 -230 -261 -20 -63 -20 -78 -11 -667
10 -608 7 -745 -24 -1086 -9 -91 -18 -234 -22 -319 l-6 -154 -141 7 c-166 7
-300 26 -411 58 -78 22 -80 24 -85 58 -4 20 -9 41 -13 47 -13 22 -37 2 -37
-30 0 -31 0 -31 -37 21 -23 33 -42 52 -52 49 -9 -2 -15 -7 -14 -13 1 -5 4 -26
8 -47 l8 -39 -40 20 c-27 14 -44 18 -54 11 -11 -8 -6 -16 25 -44 l39 -35 -36
0 c-37 0 -56 -15 -40 -31 16 -16 347 -126 429 -143 91 -18 327 -46 397 -46
l47 0 0 -174 c0 -286 33 -613 76 -766 50 -171 159 -351 279 -457 72 -64 177
-118 278 -141 l77 -17 0 -128 c0 -216 20 -353 77 -519 15 -43 23 -81 19 -85
-4 -4 -48 -11 -98 -14 -83 -6 -93 -9 -120 -36 -57 -57 -35 -137 46 -168 38
-15 54 -16 108 -6 82 14 163 56 202 104 45 56 43 122 -6 242 -20 50 -46 135
-57 190 -23 114 -37 300 -27 366 l7 45 167 -3 c92 -2 271 -8 397 -13 127 -5
271 -6 320 -1 50 4 93 6 96 5 3 -2 0 -36 -8 -76 -26 -132 -2 -324 68 -531 42
-128 44 -124 -53 -129 -93 -5 -138 -23 -156 -63 -39 -86 35 -156 150 -141 127
17 224 81 249 165 12 41 11 49 -34 180 -66 194 -90 322 -84 441 3 52 11 113
19 135 18 47 25 49 238 60 74 4 168 13 208 21 362 67 499 441 377 1037 -19 98
-43 200 -52 225 -37 110 -102 214 -212 336 -39 43 -70 81 -68 82 2 2 44 11 93
19 273 47 511 130 620 217 35 29 64 55 64 58 0 4 -7 21 -16 38 -12 25 -22 32
-45 32 -26 0 -28 2 -20 19 21 39 -21 43 -60 5 l-26 -25 -7 26 c-5 18 -12 25
-24 23 -13 -2 -18 -15 -20 -50 l-3 -47 -72 -29 c-149 -62 -372 -113 -559 -128
l-87 -7 -52 47 c-28 26 -106 88 -173 138 -378 287 -461 347 -532 387 -206 116
-242 140 -315 211 -201 197 -338 539 -394 980 -33 261 -65 354 -156 454 -74
82 -156 119 -268 123 -61 2 -99 -2 -131 -13z m241 -169 c85 -60 115 -138 144
-375 30 -252 66 -394 150 -602 62 -150 108 -239 179 -343 120 -176 223 -266
471 -410 147 -86 244 -157 589 -434 125 -100 312 -278 389 -370 132 -157 151
-202 207 -493 79 -413 9 -699 -194 -789 -41 -18 -85 -24 -255 -34 -113 -8
-264 -21 -336 -30 -109 -14 -183 -16 -460 -10 -181 4 -411 7 -510 7 -111 0
-205 5 -246 13 -168 34 -291 141 -381 332 -51 108 -73 197 -97 400 -42 336
-44 619 -11 1083 38 512 45 877 28 1462 -11 374 -11 399 7 456 35 118 111 175
221 169 49 -2 71 -9 105 -32z"/>
<path d="M2612 2844 c-31 -22 -29 -67 4 -93 34 -27 58 -27 84 1 25 28 26 62 0
88 -24 24 -57 26 -88 4z"/>
<path d="M3150 2787 c-37 -19 -39 -68 -4 -96 45 -36 86 -21 100 36 6 21 1 31
-20 50 -31 26 -41 28 -76 10z"/>
<path d="M2862 1919 c-16 -6 -22 -16 -22 -39 0 -49 35 -58 240 -61 167 -2 174
-2 188 19 17 25 3 57 -30 68 -13 5 -84 7 -158 6 -75 -1 -149 2 -165 7 -17 4
-40 4 -53 0z"/>
</g>
</svg>
