<?xml version="1.0" standalone="no"?>
<!DOCTYPE svg PUBLIC "-//W3C//DTD SVG 20010904//EN"
 "http://www.w3.org/TR/2001/REC-SVG-20010904/DTD/svg10.dtd">
<svg version="1.0" xmlns="http://www.w3.org/2000/svg"
 width="600.000000pt" height="600.000000pt" viewBox="0 0 600.000000 600.000000"
 preserveAspectRatio="xMidYMid meet">
<metadata>
Created by potrace 1.15, written by Peter Selinger 2001-2017
</metadata>
<g transform="translate(0.000000,600.000000) scale(0.100000,-0.100000)"
fill="#16364b" stroke="none">
<path d="M3135 5500 c-69 -15 -125 -86 -125 -159 0 -47 33 -104 78 -133 21
-15 47 -43 58 -65 26 -54 24 -177 -5 -260 -38 -113 -20 -177 62 -219 38 -20
109 -14 146 13 91 66 131 392 70 577 -51 155 -181 268 -284 246z"/>
<path d="M2017 5435 c-63 -43 -87 -122 -67 -219 22 -106 92 -178 220 -223 44
-16 83 -36 90 -47 8 -12 16 -88 22 -194 7 -143 12 -180 29 -213 60 -119 231
-101 268 29 5 15 5 113 1 217 -6 186 -7 193 -37 257 -52 110 -131 181 -255
229 -53 20 -58 25 -58 51 0 112 -121 175 -213 113z"/>
<path d="M1565 4769 c-102 -13 -193 -36 -220 -53 -92 -60 -84 -187 15 -254 31
-21 43 -23 100 -18 36 3 135 9 220 12 132 6 165 4 220 -12 106 -29 169 -30
210 -2 49 33 72 81 67 141 -8 93 -82 148 -246 183 -71 15 -267 17 -366 3z"/>
<path d="M4340 4629 c-80 -32 -122 -130 -88 -204 6 -14 43 -49 82 -78 103 -78
145 -167 162 -342 8 -90 24 -126 65 -158 67 -50 147 -46 206 9 l36 34 -6 112
c-10 231 -68 381 -196 508 -109 109 -192 146 -261 119z"/>
<path d="M3165 4466 c-16 -8 -43 -28 -60 -46 -56 -59 -209 -186 -335 -275
-174 -123 -211 -155 -227 -192 -41 -98 24 -213 121 -213 48 0 50 1 251 143
290 206 446 343 463 410 19 69 -15 137 -81 168 -49 22 -90 23 -132 5z"/>
<path d="M1635 4350 c-54 -28 -76 -61 -81 -123 -9 -95 38 -150 141 -167 88
-14 361 -31 508 -31 141 0 169 9 211 64 32 43 28 124 -8 171 -45 60 -67 66
-228 66 -123 0 -288 13 -458 35 -34 5 -54 1 -85 -15z"/>
<path d="M3768 3931 c-15 -5 -96 -54 -180 -109 -194 -126 -267 -165 -453 -243
-169 -70 -187 -81 -209 -127 -51 -106 24 -223 136 -210 49 6 291 99 411 160
43 21 142 82 220 135 78 53 162 102 186 110 97 29 136 112 95 200 -34 70 -129
109 -206 84z"/>
<path d="M2260 3799 c-19 -4 -118 -20 -220 -35 -145 -21 -207 -25 -285 -21
-84 5 -108 3 -141 -13 -121 -54 -119 -215 3 -276 77 -38 505 -16 733 38 63 15
107 46 130 94 26 52 25 87 -1 141 -35 72 -114 98 -219 72z"/>
<path d="M4995 3586 c-58 -27 -96 -71 -119 -141 -15 -43 -16 -61 -6 -138 9
-66 9 -105 1 -153 -22 -124 -46 -168 -279 -524 -190 -287 -202 -311 -202 -384
0 -140 93 -239 225 -239 114 1 165 38 274 202 253 379 389 639 427 812 19 90
21 278 4 377 -29 176 -173 259 -325 188z"/>
<path d="M1995 3160 c-11 -4 -33 -22 -50 -40 -26 -27 -30 -39 -30 -90 0 -124
87 -174 370 -216 61 -8 120 -21 131 -27 12 -7 37 -21 55 -31 47 -26 108 -25
148 3 42 30 61 70 61 129 0 59 -25 101 -88 149 -54 41 -110 57 -282 82 -74 11
-155 27 -179 35 -47 17 -104 20 -136 6z"/>
<path d="M4375 3114 c-16 -9 -52 -38 -80 -63 -175 -164 -512 -307 -800 -341
-116 -13 -162 -36 -190 -96 -21 -46 -16 -120 11 -157 10 -14 36 -36 58 -48 34
-19 48 -21 121 -15 176 13 348 57 525 133 199 86 363 188 479 297 76 73 91
100 91 161 0 84 -50 136 -134 142 -34 2 -61 -2 -81 -13z"/>
<path d="M1397 2966 c-56 -21 -95 -55 -125 -111 -20 -38 -19 -159 3 -358 33
-292 78 -461 169 -639 116 -228 175 -284 287 -276 65 5 100 24 135 76 49 71
40 138 -30 245 -25 38 -55 94 -67 125 -59 158 -104 431 -113 685 -5 153 -13
177 -76 228 -43 35 -126 46 -183 25z"/>
<path d="M2110 2371 c-91 -13 -153 -72 -166 -157 -5 -35 -2 -53 17 -91 41 -81
58 -88 218 -88 l138 0 58 -45 c53 -41 62 -44 115 -45 62 0 95 16 133 66 24 33
32 97 18 141 -25 77 -157 173 -277 202 -73 18 -194 26 -254 17z"/>
<path d="M3990 2055 c-80 -18 -226 -54 -325 -79 -222 -56 -292 -69 -573 -105
-255 -33 -275 -41 -317 -125 -38 -76 -30 -151 24 -209 61 -67 92 -70 356 -33
348 49 389 56 610 111 206 50 321 74 440 90 111 15 175 80 183 185 6 77 -21
134 -80 173 -57 37 -131 35 -318 -8z"/>
<path d="M4845 1715 c-5 -2 -23 -6 -38 -10 -18 -3 -66 -44 -130 -108 -162
-163 -221 -188 -732 -316 -359 -89 -420 -109 -458 -149 -95 -99 -68 -260 55
-323 53 -27 94 -24 222 16 61 19 224 63 361 99 368 95 505 147 651 247 87 60
239 214 259 262 33 80 9 187 -54 240 -39 33 -104 53 -136 42z"/>
<path d="M2125 1606 c-17 -7 -43 -28 -58 -45 -63 -76 -24 -182 125 -337 163
-169 386 -269 492 -219 53 25 79 68 84 136 4 53 2 59 -29 93 -26 28 -49 41
-93 52 -130 34 -235 114 -303 231 -55 95 -133 126 -218 89z"/>
<path d="M2090 1010 c-148 -26 -208 -203 -109 -324 66 -80 365 -243 579 -316
211 -72 424 -44 688 89 99 50 146 141 121 233 -14 52 -39 86 -87 115 -53 32
-106 29 -230 -14 -102 -36 -113 -37 -242 -38 -123 0 -142 2 -215 28 -113 40
-193 80 -288 144 -126 84 -152 94 -217 83z"/>
</g>
</svg>
