<?xml version="1.0" standalone="no"?>
<!DOCTYPE svg PUBLIC "-//W3C//DTD SVG 20010904//EN"
 "http://www.w3.org/TR/2001/REC-SVG-20010904/DTD/svg10.dtd">
<svg version="1.0" xmlns="http://www.w3.org/2000/svg"
 width="600.000000pt" height="600.000000pt" viewBox="0 0 600.000000 600.000000"
 preserveAspectRatio="xMidYMid meet">
<metadata>
Created by potrace 1.15, written by Peter Selinger 2001-2017
</metadata>
<g transform="translate(0.000000,600.000000) scale(0.100000,-0.100000)"
fill="#16364b" stroke="none">
<path d="M1548 5784 c-42 -22 -55 -57 -83 -225 -33 -194 -32 -391 3 -500 68
-208 233 -249 387 -94 136 135 313 498 302 618 -10 109 -142 164 -220 91 -15
-14 -27 -26 -27 -27 0 -1 -20 -60 -45 -130 -43 -127 -131 -306 -150 -310 -17
-3 -17 141 1 288 21 167 22 193 5 233 -26 62 -112 90 -173 56z"/>
<path d="M3294 5520 c-41 -16 -74 -68 -74 -116 0 -64 20 -95 95 -149 68 -48
195 -162 195 -174 0 -4 -16 -13 -35 -20 -38 -13 -60 -40 -75 -90 -13 -48 5
-94 56 -141 112 -103 282 -125 370 -48 48 42 64 78 64 140 0 66 -21 111 -102
231 -84 122 -203 241 -317 316 -94 62 -127 71 -177 51z"/>
<path d="M887 5499 c-95 -22 -211 -108 -262 -194 -95 -163 -59 -390 81 -514
94 -82 175 -74 223 22 33 66 24 109 -35 163 -55 52 -69 88 -55 142 14 49 43
87 84 108 26 14 38 15 83 4 95 -23 162 10 184 91 13 48 -10 110 -52 140 -58
42 -166 58 -251 38z"/>
<path d="M2981 5169 c-71 -21 -165 -149 -190 -260 -37 -157 35 -269 171 -269
86 0 225 57 250 103 6 12 14 56 19 99 24 242 -78 376 -250 327z"/>
<path d="M2283 5035 c-47 -20 -66 -58 -74 -144 -7 -73 -9 -78 -48 -111 -22
-19 -83 -53 -136 -75 -129 -52 -166 -96 -152 -180 10 -64 71 -115 135 -115 29
0 145 46 251 99 143 73 241 235 241 400 0 106 -112 172 -217 126z"/>
<path d="M4754 4801 c-50 -31 -58 -63 -51 -224 9 -212 51 -343 140 -435 61
-63 110 -86 182 -86 69 0 119 22 177 79 60 59 83 117 83 210 0 72 -3 86 -35
144 -45 83 -111 149 -224 223 -168 111 -212 125 -272 89z"/>
<path d="M2743 4141 c-72 -25 -117 -62 -147 -123 -58 -117 -9 -250 116 -314
53 -27 164 -46 224 -38 230 30 432 93 465 145 57 88 9 189 -119 250 -197 93
-410 125 -539 80z"/>
<path d="M1034 4062 c-106 -50 -133 -173 -58 -262 37 -44 54 -50 156 -61 104
-11 168 -25 168 -39 0 -16 -151 -140 -255 -209 -55 -36 -155 -95 -223 -130
-106 -55 -126 -69 -147 -106 -67 -114 10 -249 142 -249 44 0 71 9 166 57 62
31 116 57 119 57 3 0 8 -13 11 -29 4 -17 19 -44 35 -62 24 -27 37 -33 83 -37
53 -4 57 -2 138 53 154 106 276 148 359 126 60 -16 101 -13 149 8 51 23 73 63
73 128 0 55 -20 91 -71 128 -53 40 -95 47 -211 36 -56 -6 -104 -8 -106 -6 -2
2 10 18 26 36 66 71 108 201 93 285 -31 169 -213 273 -506 289 -86 5 -106 3
-141 -13z"/>
<path d="M4183 3762 c-185 -66 -301 -277 -234 -427 34 -78 66 -111 138 -147
60 -29 77 -33 148 -33 68 0 89 4 139 29 119 59 214 190 250 350 19 82 10 128
-32 169 -66 64 -302 97 -409 59z m98 -302 c-24 -20 -51 -27 -51 -12 0 16 25
32 50 32 l25 -1 -24 -19z"/>
<path d="M3442 3402 c-60 -18 -141 -116 -202 -248 -46 -100 -44 -153 7 -202
l37 -35 77 6 c90 6 121 20 178 82 95 104 126 281 59 352 -44 48 -95 62 -156
45z"/>
<path d="M5089 3365 c-62 -23 -166 -94 -213 -146 -87 -97 -124 -223 -96 -326
20 -70 89 -136 164 -158 105 -30 240 -1 322 69 84 71 133 214 112 326 -12 68
-25 94 -83 161 -73 86 -124 104 -206 74z"/>
<path d="M2213 2842 c-64 -23 -133 -75 -167 -125 -13 -22 -37 -73 -52 -115
-46 -133 -72 -179 -126 -224 -28 -24 -65 -58 -82 -76 -17 -18 -66 -69 -109
-114 -143 -149 -221 -277 -269 -443 -20 -71 -23 -102 -23 -270 0 -212 9 -263
70 -390 86 -181 236 -327 405 -396 133 -54 375 -96 492 -85 255 24 509 205
700 502 61 95 139 275 196 454 64 200 76 328 47 494 -49 279 -155 380 -430
411 -105 12 -126 28 -181 133 -63 120 -127 192 -206 231 -52 27 -72 31 -137
31 -46 -1 -96 -8 -128 -18z m168 -499 c52 -97 155 -206 207 -221 20 -6 83 -16
140 -21 57 -6 111 -15 121 -21 21 -10 36 -44 51 -110 31 -143 -19 -389 -123
-599 -74 -150 -251 -313 -393 -361 -106 -37 -249 -24 -360 33 -171 87 -265
236 -265 422 -1 185 68 323 242 490 167 160 238 251 300 390 19 41 35 75 36
75 0 0 20 -35 44 -77z"/>
<path d="M990 2798 c-52 -36 -75 -74 -75 -123 0 -57 27 -92 96 -128 130 -65
204 -153 216 -254 15 -133 -84 -273 -193 -273 -33 0 -45 8 -103 69 -37 38 -79
73 -94 76 -43 11 -91 -3 -125 -36 -64 -63 -49 -148 45 -249 122 -132 278 -153
463 -62 81 40 189 151 229 236 37 79 71 201 71 255 0 53 -27 149 -56 198 -58
100 -191 216 -320 282 -73 37 -110 39 -154 9z"/>
<path d="M4145 2308 c-87 -30 -135 -105 -135 -207 0 -56 -2 -62 -17 -56 -38
16 -138 17 -174 1 -42 -18 -93 -65 -114 -107 -41 -79 -24 -235 47 -435 45
-128 66 -163 121 -208 36 -29 44 -31 121 -31 64 0 88 4 111 19 22 14 49 20
100 21 110 2 198 60 231 153 16 44 18 197 4 307 -5 44 -17 154 -25 245 -9 91
-20 179 -25 196 -28 85 -149 136 -245 102z"/>
</g>
</svg>
