<?xml version="1.0" standalone="no"?>
<!DOCTYPE svg PUBLIC "-//W3C//DTD SVG 20010904//EN"
 "http://www.w3.org/TR/2001/REC-SVG-20010904/DTD/svg10.dtd">
<svg version="1.0" xmlns="http://www.w3.org/2000/svg"
 width="600.000000pt" height="600.000000pt" viewBox="0 0 600.000000 600.000000"
 preserveAspectRatio="xMidYMid meet">
<metadata>
Created by potrace 1.15, written by Peter Selinger 2001-2017
</metadata>
<g transform="translate(0.000000,600.000000) scale(0.100000,-0.100000)"
fill="#16364b" stroke="none">
<path d="M1895 5826 c-46 -21 -64 -46 -180 -256 -120 -216 -175 -329 -199
-410 -22 -75 -21 -162 4 -210 72 -141 259 -119 510 62 117 84 363 288 382 317
26 38 23 110 -5 152 -32 47 -91 79 -149 79 -42 0 -59 -8 -150 -69 -57 -38
-105 -68 -107 -66 -1 2 21 46 50 97 63 112 71 157 40 222 -37 75 -128 114
-196 82z"/>
<path d="M2979 5667 c-19 -12 -42 -40 -53 -61 -16 -33 -17 -43 -7 -77 17 -57
53 -90 155 -144 208 -109 378 -277 457 -450 52 -114 36 -147 -77 -165 -97 -16
-148 -68 -148 -150 0 -53 18 -87 66 -123 85 -63 320 0 423 115 61 68 79 127
72 242 -9 166 -95 346 -223 467 -108 101 -348 269 -486 340 -72 36 -131 38
-179 6z"/>
<path d="M965 5406 c-190 -47 -339 -207 -365 -393 -28 -203 62 -389 225 -469
62 -30 98 -30 155 -1 57 28 90 77 90 131 0 52 -24 92 -83 136 -79 61 -107 142
-72 210 23 44 61 68 127 81 69 14 122 53 144 106 19 44 17 80 -6 131 -15 33
-29 47 -62 62 -49 22 -82 24 -153 6z"/>
<path d="M2839 5085 c-102 -53 -171 -169 -177 -297 -3 -64 0 -85 18 -122 25
-53 66 -91 130 -120 52 -24 185 -27 257 -7 86 24 135 109 112 194 -6 23 -12
74 -14 112 -4 122 -60 225 -138 254 -50 19 -137 12 -188 -14z"/>
<path d="M4782 4879 c-84 -43 -108 -103 -97 -248 22 -305 162 -495 365 -495
165 1 278 127 268 300 -11 163 -115 292 -340 415 -92 51 -139 57 -196 28z"/>
<path d="M2020 4759 c-184 -25 -300 -127 -271 -236 31 -113 139 -155 256 -98
59 29 69 24 89 -46 21 -70 44 -104 86 -128 44 -24 90 -27 128 -7 100 52 108
164 26 331 -74 147 -170 204 -314 184z"/>
<path d="M2912 4005 c-112 -25 -189 -93 -218 -191 -48 -166 80 -327 300 -379
72 -17 274 -20 329 -4 78 21 133 104 117 175 -6 26 -4 37 12 51 53 47 64 136
25 194 -44 66 -276 155 -427 164 -45 3 -100 -1 -138 -10z"/>
<path d="M1075 3973 c-140 -25 -191 -62 -217 -157 -22 -84 22 -185 102 -227
22 -12 55 -19 92 -19 l57 0 -57 -82 c-32 -46 -101 -140 -153 -210 -141 -189
-248 -377 -315 -556 -28 -73 -30 -109 -9 -160 44 -103 161 -150 254 -102 22
11 48 31 60 46 11 14 73 62 138 106 65 44 168 118 228 164 61 46 184 140 275
209 91 69 168 125 172 125 13 0 9 -76 -8 -156 -56 -274 -250 -688 -438 -939
-75 -100 -89 -130 -83 -181 12 -106 124 -165 224 -117 38 17 147 172 276 390
207 349 340 739 353 1038 9 182 -15 254 -100 301 -115 65 -280 19 -492 -136
-43 -32 -81 -56 -83 -54 -2 2 20 36 50 76 167 228 188 268 196 373 5 59 2 79
-17 123 -28 66 -92 123 -161 145 -64 21 -229 21 -344 0z"/>
<path d="M4200 3787 c-122 -28 -222 -103 -270 -202 -33 -67 -34 -179 -3 -246
31 -69 85 -122 155 -155 53 -24 76 -29 143 -29 100 1 170 30 252 107 93 88
191 257 200 348 5 49 -19 97 -67 131 -57 41 -310 69 -410 46z m65 -317 c-19
-21 -55 -27 -55 -10 0 11 35 28 59 29 11 1 10 -4 -4 -19z"/>
<path d="M3389 3400 c-66 -35 -126 -122 -179 -262 -26 -70 -25 -112 5 -163 32
-55 80 -78 173 -83 133 -8 217 37 263 140 34 76 34 212 1 280 -34 68 -97 108
-171 108 -35 -1 -70 -8 -92 -20z"/>
<path d="M4969 3062 c-53 -34 -171 -158 -216 -226 -52 -78 -76 -152 -77 -231
0 -61 4 -78 30 -125 22 -38 46 -64 79 -85 43 -27 57 -30 129 -30 99 0 157 25
231 100 107 107 151 294 105 449 -7 22 -34 63 -63 94 -83 88 -141 102 -218 54z"/>
<path d="M3970 2615 c-59 -19 -113 -65 -139 -118 -33 -67 -28 -140 19 -286 22
-69 38 -126 36 -128 -1 -2 -30 8 -64 22 -78 31 -177 34 -239 6 -89 -41 -160
-142 -183 -259 -27 -134 47 -449 154 -659 49 -98 143 -153 260 -153 77 0 134
27 172 82 38 55 44 147 15 231 -11 32 -17 57 -13 55 81 -43 108 -50 166 -46
72 5 166 44 214 91 19 18 46 55 60 82 25 46 27 59 26 170 0 92 -5 140 -23 205
-34 131 -172 572 -187 601 -21 42 -91 96 -139 108 -55 14 -79 13 -135 -4z"/>
<path d="M2019 2226 c-60 -21 -104 -53 -165 -119 -102 -110 -174 -235 -174
-303 0 -30 27 -105 46 -125 13 -15 11 -21 -26 -60 -89 -95 -165 -306 -177
-489 -20 -332 154 -595 511 -770 132 -65 195 -81 346 -87 103 -4 142 -1 219
16 172 38 323 136 429 277 62 83 77 135 62 210 -10 48 -9 57 8 81 37 53 113
216 142 304 36 110 105 388 125 508 33 191 -31 322 -185 376 -103 36 -221 27
-366 -30 -86 -34 -283 -131 -349 -173 -27 -17 -51 -29 -53 -27 -2 2 -14 48
-27 103 -40 173 -90 256 -180 298 -57 27 -129 31 -186 10z m931 -690 c-35
-141 -85 -279 -156 -421 -35 -72 -64 -144 -64 -160 0 -17 7 -51 17 -77 l16
-47 -27 -36 c-56 -73 -150 -126 -261 -146 -125 -23 -260 20 -390 124 -124 100
-174 192 -182 338 -8 131 30 223 121 288 46 32 47 33 53 12 11 -42 70 -156 99
-190 57 -68 166 -91 243 -51 81 41 122 125 104 213 -5 26 -7 49 -4 51 3 2 105
55 226 117 184 94 221 109 223 95 2 -10 -6 -59 -18 -110z"/>
</g>
</svg>
