<?xml version="1.0" standalone="no"?>
<!DOCTYPE svg PUBLIC "-//W3C//DTD SVG 20010904//EN"
 "http://www.w3.org/TR/2001/REC-SVG-20010904/DTD/svg10.dtd">
<svg version="1.0" xmlns="http://www.w3.org/2000/svg"
 width="600.000000pt" height="600.000000pt" viewBox="0 0 600.000000 600.000000"
 preserveAspectRatio="xMidYMid meet">
<metadata>
Created by potrace 1.15, written by Peter Selinger 2001-2017
</metadata>
<g transform="translate(0.000000,600.000000) scale(0.100000,-0.100000)"
fill="#16364b" stroke="none">
<path d="M2170 5443 c-29 -11 -63 -49 -82 -93 -22 -49 -34 -168 -24 -222 11
-57 60 -122 118 -154 52 -28 57 -29 196 -29 78 0 142 -1 142 -3 0 -1 -11 -24
-24 -50 -84 -167 -176 -418 -176 -481 0 -92 95 -161 184 -131 43 14 92 67 101
112 11 48 66 188 115 293 94 200 103 225 104 305 1 115 -46 189 -153 238 -51
24 -61 25 -181 19 l-127 -5 4 46 c8 88 -58 163 -141 161 -23 0 -48 -3 -56 -6z"/>
<path d="M3664 5376 c-78 -18 -116 -38 -138 -71 -41 -62 -29 -139 28 -194 41
-40 83 -50 152 -37 76 13 102 4 110 -42 11 -54 -16 -170 -66 -286 -46 -108
-48 -147 -12 -196 44 -60 142 -78 202 -37 43 28 63 64 105 181 94 261 83 458
-30 584 -81 90 -218 128 -351 98z"/>
<path d="M1760 4849 c-97 -11 -251 -51 -348 -90 -161 -63 -197 -97 -197 -184
0 -39 6 -61 21 -82 27 -37 81 -73 109 -73 20 0 21 -4 17 -57 -3 -48 0 -64 20
-92 39 -57 66 -70 185 -91 176 -30 296 -58 416 -96 125 -41 174 -42 227 -4 88
63 91 219 6 271 -17 10 -96 34 -176 53 -124 30 -195 44 -420 82 -34 6 -35 6
-10 16 79 30 144 40 261 42 120 1 127 2 161 28 50 38 75 105 59 158 -16 54
-53 94 -98 107 -59 17 -151 22 -233 12z"/>
<path d="M3075 4334 c-77 -36 -228 -101 -335 -146 -107 -44 -209 -88 -226 -99
-63 -38 -84 -141 -43 -209 43 -69 103 -91 183 -65 161 52 684 293 726 335 10
10 24 37 30 59 15 56 -1 108 -45 151 -30 29 -42 34 -92 37 -53 2 -69 -3 -198
-63z"/>
<path d="M4292 4382 c-42 -13 -88 -59 -100 -100 -17 -55 -15 -79 8 -127 31
-64 59 -75 192 -76 127 0 176 -13 196 -49 16 -31 9 -213 -14 -334 -19 -98 -10
-140 40 -184 63 -55 155 -50 219 11 51 48 62 110 62 357 0 172 -3 212 -18 250
-43 109 -131 197 -237 236 -48 18 -305 30 -348 16z"/>
<path d="M2155 3840 c-122 -37 -288 -60 -438 -60 -112 0 -127 -2 -157 -22 -39
-27 -70 -81 -70 -122 0 -45 36 -108 77 -136 35 -24 43 -25 182 -24 163 1 285
18 465 66 77 20 128 40 147 56 88 73 77 202 -21 253 -45 25 -76 23 -185 -11z"/>
<path d="M3660 3767 c-112 -40 -592 -292 -615 -324 -28 -38 -28 -121 1 -159
32 -44 68 -66 116 -71 41 -5 61 3 250 99 l206 105 4 -54 c4 -44 11 -60 38 -89
65 -66 159 -68 220 -4 68 70 111 291 76 384 -30 79 -115 136 -201 136 -16 0
-59 -11 -95 -23z"/>
<path d="M4962 3342 c-73 -26 -122 -69 -156 -136 l-29 -57 12 -93 c12 -87 12
-96 -7 -137 -10 -24 -59 -89 -107 -144 -208 -238 -298 -439 -299 -675 -1 -128
6 -164 44 -221 43 -66 99 -94 185 -94 78 1 129 21 177 72 46 48 61 98 60 194
-2 94 19 179 65 257 14 24 70 96 126 160 161 187 206 268 226 411 11 82 0 225
-24 306 -40 137 -150 200 -273 157z"/>
<path d="M2020 3211 c-50 -27 -73 -62 -78 -123 -4 -61 19 -106 76 -145 38 -25
65 -29 257 -40 l140 -8 5 -51 c6 -59 28 -97 73 -125 42 -27 121 -22 166 10 51
37 65 74 66 176 0 82 -3 95 -30 145 -36 66 -104 120 -183 145 -36 11 -111 21
-202 26 -222 12 -251 11 -290 -10z"/>
<path d="M4284 3177 c-12 -7 -45 -38 -73 -69 -29 -32 -73 -73 -99 -92 -114
-82 -366 -185 -557 -225 -109 -23 -139 -39 -166 -91 -50 -92 7 -216 108 -236
56 -11 298 45 487 113 175 63 339 165 442 276 70 76 90 123 79 188 -18 105
-142 181 -221 136z"/>
<path d="M1282 3004 c-95 -47 -138 -163 -97 -261 9 -21 22 -44 30 -53 22 -25
33 -93 45 -285 18 -302 50 -445 136 -617 66 -131 113 -168 214 -168 90 0 168
58 190 141 14 51 8 80 -41 183 -53 113 -68 187 -84 410 -28 383 -65 518 -168
613 -73 67 -142 78 -225 37z"/>
<path d="M2121 2484 c-30 -8 -79 -29 -110 -46 -63 -37 -196 -158 -218 -201
-34 -67 -11 -160 50 -198 77 -47 127 -38 212 41 53 49 129 100 149 100 3 0 12
-15 20 -33 14 -36 69 -87 92 -87 21 0 18 -7 -25 -46 -86 -77 -136 -276 -112
-441 12 -87 54 -210 91 -271 22 -35 87 -71 130 -72 40 0 113 42 137 79 32 48
30 107 -7 192 -59 133 -60 220 -5 329 47 92 24 185 -53 218 l-38 16 32 28 c18
16 40 49 50 74 15 38 15 52 5 98 -24 107 -103 188 -215 221 -61 18 -115 18
-185 -1z"/>
<path d="M3765 2178 c-44 -3 -193 -29 -330 -57 -138 -27 -335 -64 -438 -81
-212 -35 -210 -34 -255 -67 -140 -104 -64 -328 115 -341 72 -5 319 33 638 99
132 27 259 49 282 49 25 0 57 -9 80 -22 50 -30 141 -30 199 0 71 36 134 124
134 187 0 37 -28 95 -66 135 -77 82 -188 113 -359 98z"/>
<path d="M4623 1628 c-18 -6 -61 -35 -95 -65 -34 -29 -85 -65 -113 -79 -50
-24 -197 -58 -360 -84 -193 -30 -358 -88 -514 -182 -194 -117 -261 -183 -269
-270 l-5 -50 -46 7 c-58 7 -98 -5 -167 -51 -109 -72 -209 -90 -329 -59 -141
37 -266 116 -386 244 -86 91 -131 116 -195 108 -95 -10 -158 -85 -158 -187 0
-73 23 -115 123 -222 101 -108 207 -188 314 -238 134 -63 213 -81 373 -87 173
-7 252 8 381 71 154 76 206 126 219 211 l6 41 58 -4 c71 -5 88 3 200 93 144
116 276 165 567 210 183 28 263 50 363 101 121 60 260 178 286 241 33 77 1
175 -72 226 -46 32 -128 43 -181 25z"/>
</g>
</svg>
