<?xml version="1.0" standalone="no"?>
<!DOCTYPE svg PUBLIC "-//W3C//DTD SVG 20010904//EN"
 "http://www.w3.org/TR/2001/REC-SVG-20010904/DTD/svg10.dtd">
<svg version="1.0" xmlns="http://www.w3.org/2000/svg"
 width="600.000000pt" height="600.000000pt" viewBox="0 0 600.000000 600.000000"
 preserveAspectRatio="xMidYMid meet">
<metadata>
Created by potrace 1.15, written by Peter Selinger 2001-2017
</metadata>
<g transform="translate(0.000000,600.000000) scale(0.100000,-0.100000)"
fill="#16364b" stroke="none">
<path d="M2934 5521 c-53 -32 -80 -122 -53 -173 6 -11 26 -40 44 -64 67 -87
88 -202 71 -384 -7 -77 -5 -88 13 -118 58 -90 173 -96 244 -12 38 44 61 160
55 274 -10 186 -125 428 -229 482 -39 20 -108 18 -145 -5z"/>
<path d="M1989 5407 c-66 -44 -84 -118 -52 -217 23 -71 86 -139 172 -184 99
-52 109 -69 166 -277 20 -74 43 -144 51 -157 46 -72 157 -83 220 -22 57 56 60
90 25 241 -66 275 -138 393 -281 457 -66 30 -90 49 -90 73 0 23 -45 76 -81 94
-41 21 -91 18 -130 -8z"/>
<path d="M1494 4756 c-106 -15 -143 -36 -175 -99 -36 -69 -13 -148 54 -184 24
-13 49 -16 102 -13 248 15 384 1 489 -52 111 -56 233 4 243 119 7 67 -23 108
-108 150 -159 80 -384 109 -605 79z"/>
<path d="M4316 4689 c-37 -29 -56 -71 -56 -123 0 -38 8 -57 56 -127 76 -110
117 -200 159 -349 30 -106 40 -129 67 -152 39 -34 88 -44 138 -29 88 26 123
89 101 186 -50 222 -212 539 -304 595 -45 28 -126 27 -161 -1z"/>
<path d="M3190 4504 c-19 -8 -118 -97 -220 -197 -130 -128 -221 -209 -306
-270 -67 -47 -125 -95 -129 -104 -30 -74 -24 -129 20 -181 33 -40 102 -59 154
-43 55 16 259 170 386 292 181 174 283 282 295 314 27 72 -24 174 -98 195 -48
13 -60 12 -102 -6z"/>
<path d="M1697 4345 c-51 -18 -73 -39 -93 -91 -28 -73 3 -152 76 -189 61 -31
267 -59 445 -59 193 0 237 8 284 56 63 64 65 152 6 216 l-33 37 -219 0 c-163
1 -236 5 -288 17 -115 26 -138 28 -178 13z"/>
<path d="M3833 4016 c-17 -8 -78 -48 -135 -88 -128 -93 -368 -243 -473 -297
-44 -23 -127 -60 -185 -84 -94 -38 -107 -46 -127 -82 -29 -51 -29 -80 0 -135
43 -84 126 -101 243 -51 222 95 786 446 848 529 26 34 32 101 12 140 -33 64
-120 96 -183 68z"/>
<path d="M2230 3768 c-59 -12 -347 -15 -480 -5 -101 8 -106 8 -140 -15 -82
-56 -104 -147 -54 -222 14 -21 41 -44 60 -52 102 -43 574 -44 764 -3 90 19
133 83 116 174 -8 40 -55 99 -97 121 -31 16 -101 17 -169 2z"/>
<path d="M5055 3680 c-79 -20 -128 -59 -160 -126 -15 -32 -16 -50 -9 -123 24
-248 7 -321 -132 -565 -109 -191 -176 -292 -253 -381 -94 -108 -112 -195 -62
-293 58 -112 187 -154 307 -98 82 38 279 263 376 430 91 155 195 393 229 524
37 141 20 421 -31 522 -44 87 -163 136 -265 110z"/>
<path d="M1974 3141 c-117 -71 -119 -226 -5 -286 49 -25 210 -62 345 -79 71
-9 138 -22 149 -28 29 -15 100 -4 135 20 54 39 80 138 51 195 -39 76 -91 97
-292 122 -85 10 -154 25 -209 45 -95 35 -131 37 -174 11z"/>
<path d="M4391 3139 c-13 -5 -42 -25 -63 -45 -210 -189 -518 -327 -861 -383
-131 -22 -164 -39 -192 -97 -21 -46 -16 -120 11 -157 10 -15 39 -37 63 -49 43
-21 48 -21 170 -9 231 23 475 84 625 158 132 64 302 194 413 315 88 97 74 211
-34 267 -26 13 -99 13 -132 0z"/>
<path d="M1407 2936 c-91 -33 -117 -87 -124 -250 -9 -204 22 -434 83 -621 48
-144 162 -361 228 -433 54 -60 153 -79 224 -43 46 23 67 46 87 94 31 74 17
135 -53 237 -56 81 -84 144 -116 257 -49 171 -59 248 -60 445 l-2 188 -30 42
c-53 76 -158 113 -237 84z"/>
<path d="M2105 2373 c-59 -16 -115 -92 -115 -158 0 -42 32 -107 65 -133 15
-12 44 -26 64 -31 168 -41 219 -58 279 -95 87 -52 143 -55 199 -10 44 36 68
98 58 152 -14 78 -162 175 -365 240 -105 34 -155 43 -185 35z"/>
<path d="M4260 2092 c-14 -2 -79 -19 -145 -37 -130 -36 -355 -92 -529 -131
-141 -31 -246 -48 -498 -78 -217 -26 -253 -37 -286 -83 -59 -85 -54 -188 14
-263 65 -72 59 -72 445 -22 226 29 302 45 489 97 47 14 168 42 270 64 281 59
321 73 368 126 104 119 66 295 -70 324 -18 4 -44 5 -58 3z"/>
<path d="M4859 1711 c-49 -16 -75 -34 -149 -106 -166 -159 -290 -218 -625
-300 -187 -46 -266 -71 -422 -131 -143 -55 -194 -122 -181 -239 7 -56 41 -103
92 -126 53 -24 96 -24 176 1 36 11 162 45 280 75 541 136 751 235 961 452 105
108 124 145 117 223 -6 59 -37 104 -90 131 -45 23 -120 32 -159 20z"/>
<path d="M2065 1506 c-68 -31 -103 -100 -84 -170 22 -84 277 -302 433 -371 93
-41 203 -68 259 -62 87 8 147 74 147 163 0 45 -5 59 -30 87 -33 38 -64 53
-130 62 -126 17 -275 99 -375 207 -86 92 -148 116 -220 84z"/>
<path d="M2052 960 c-45 -11 -101 -57 -126 -106 -32 -59 -30 -168 4 -217 47
-69 240 -175 405 -222 270 -77 624 -85 851 -19 108 31 134 46 167 96 72 111
20 256 -106 293 -49 15 -55 14 -177 -17 -119 -31 -134 -33 -305 -33 -171 0
-184 2 -260 28 -89 31 -152 64 -270 142 -83 55 -127 68 -183 55z"/>
</g>
</svg>
