<?xml version="1.0" standalone="no"?>
<!DOCTYPE svg PUBLIC "-//W3C//DTD SVG 20010904//EN"
 "http://www.w3.org/TR/2001/REC-SVG-20010904/DTD/svg10.dtd">
<svg version="1.0" xmlns="http://www.w3.org/2000/svg"
 width="600.000000pt" height="600.000000pt" viewBox="0 0 600.000000 600.000000"
 preserveAspectRatio="xMidYMid meet">
<metadata>
Created by potrace 1.15, written by Peter Selinger 2001-2017
</metadata>
<g transform="translate(0.000000,600.000000) scale(0.100000,-0.100000)"
fill="#16364b" stroke="none">
<path d="M3097 5686 c-103 -38 -144 -150 -89 -241 14 -22 52 -46 147 -93 206
-101 316 -186 365 -281 65 -129 -16 -233 -287 -368 -129 -64 -161 -84 -176
-111 -52 -90 7 -197 114 -209 48 -5 142 31 319 123 364 189 447 461 236 777
-93 141 -219 247 -418 351 -117 62 -157 72 -211 52z"/>
<path d="M2035 5586 c-16 -7 -57 -44 -90 -82 -33 -38 -103 -109 -155 -159
-290 -275 -330 -326 -338 -429 -3 -44 1 -59 30 -106 28 -47 43 -60 103 -90 66
-33 74 -35 170 -34 115 1 281 33 490 94 155 46 168 52 197 99 43 68 20 171
-45 211 -43 26 -87 25 -188 -5 -85 -26 -271 -66 -277 -60 -2 1 55 61 126 131
151 150 192 208 192 271 0 76 -52 141 -128 163 -46 12 -50 12 -87 -4z"/>
<path d="M1019 5304 c-174 -93 -282 -250 -311 -454 -23 -155 41 -341 162 -473
90 -98 166 -109 237 -35 75 80 70 168 -15 262 -19 21 -46 63 -59 93 -21 46
-25 66 -21 123 5 90 37 137 138 206 114 76 149 162 100 242 -48 79 -127 92
-231 36z"/>
<path d="M4691 4832 c-52 -26 -75 -63 -73 -119 1 -27 1 -59 1 -73 -1 -14 -2
-52 -2 -85 -4 -122 108 -283 235 -340 117 -53 256 -29 333 56 47 52 65 100 65
173 -1 165 -142 297 -408 380 -98 31 -107 31 -151 8z"/>
<path d="M2855 4798 c-77 -29 -186 -99 -251 -160 -176 -166 -132 -425 91 -533
69 -34 143 -47 191 -34 74 21 124 105 110 183 -8 44 -59 104 -95 112 -80 18
-101 26 -101 39 0 20 79 86 144 119 84 44 121 116 96 190 -23 70 -114 111
-185 84z"/>
<path d="M1795 4331 c-144 -41 -313 -163 -336 -242 -21 -69 18 -146 93 -185
22 -11 48 -15 90 -12 55 4 62 8 111 56 56 55 124 91 172 92 16 0 48 -7 72 -16
77 -30 148 2 184 80 33 74 17 155 -40 195 -74 52 -229 66 -346 32z"/>
<path d="M2564 3800 c-95 -10 -185 -32 -219 -54 -114 -74 -63 -260 76 -282 19
-3 69 1 111 10 102 21 217 22 224 1 11 -27 -44 -177 -96 -265 -67 -112 -113
-174 -256 -337 -66 -75 -124 -145 -131 -157 -7 -12 -12 -43 -13 -71 0 -65 27
-110 83 -135 94 -43 138 -21 284 139 229 252 394 514 443 705 60 235 -28 394
-240 434 -85 17 -177 21 -266 12z"/>
<path d="M4172 3769 c-69 -13 -146 -53 -192 -99 -57 -57 -80 -115 -80 -202 0
-60 5 -79 32 -130 36 -67 96 -125 166 -159 68 -33 178 -33 247 0 120 59 273
271 262 364 -18 152 -58 195 -211 222 -96 16 -157 18 -224 4z m83 -309 c-3 -5
-15 -10 -26 -10 -11 0 -17 5 -14 10 3 6 15 10 26 10 11 0 17 -4 14 -10z"/>
<path d="M1120 3631 c-144 -54 -305 -136 -328 -168 -62 -87 -38 -216 50 -267
35 -21 122 -27 170 -13 l27 9 -50 -124 c-48 -118 -155 -454 -204 -643 -46
-179 -45 -232 8 -292 17 -20 50 -44 72 -54 49 -23 155 -25 193 -5 27 14 301
288 397 396 27 30 101 111 164 179 64 68 119 129 123 135 35 54 -2 -167 -93
-563 -44 -190 -91 -387 -104 -437 -39 -145 -32 -201 35 -257 66 -56 186 -38
229 34 11 18 34 94 52 169 17 74 55 234 84 355 87 361 114 533 122 786 4 127
2 168 -11 213 -40 136 -156 191 -281 132 -58 -26 -155 -113 -337 -300 -71 -72
-128 -124 -128 -116 0 7 27 71 59 141 33 69 76 171 97 225 33 89 37 109 38
199 1 90 -2 105 -26 150 -74 141 -190 179 -358 116z"/>
<path d="M3575 3337 c-66 -22 -99 -43 -144 -92 -82 -89 -143 -275 -119 -361
23 -86 119 -133 203 -100 22 8 67 20 100 26 76 15 190 67 237 109 41 36 88
122 88 161 0 55 -31 132 -71 175 -69 75 -202 112 -294 82z"/>
<path d="M4810 2831 c-71 -23 -93 -35 -142 -79 -114 -103 -129 -282 -35 -418
46 -66 100 -103 163 -110 134 -16 248 91 275 257 11 71 6 121 -18 158 -8 13
-16 43 -17 67 -2 55 -29 92 -86 122 -52 26 -67 27 -140 3z"/>
<path d="M2874 2481 c-91 -25 -212 -75 -367 -152 -150 -75 -184 -100 -208
-153 -25 -56 -24 -103 6 -163 36 -71 89 -106 169 -111 62 -4 63 -4 274 102
116 58 216 106 221 106 23 0 -55 -213 -151 -410 -67 -138 -70 -148 -66 -202 3
-38 12 -68 25 -86 69 -93 205 -107 289 -29 56 52 280 569 306 705 29 158 -47
314 -187 383 -68 33 -208 37 -311 10z"/>
<path d="M4330 2364 c-41 -18 -86 -59 -106 -95 -30 -58 -34 -110 -17 -207 9
-50 14 -94 12 -97 -3 -2 -52 12 -110 32 -93 33 -115 37 -209 37 -125 1 -172
-17 -250 -95 -111 -110 -141 -231 -121 -482 25 -323 43 -385 132 -444 47 -31
123 -41 185 -24 58 16 126 79 154 143 22 51 22 60 16 236 l-8 182 53 -20 c29
-12 76 -32 104 -46 60 -28 102 -30 199 -9 89 19 144 46 206 101 71 65 112 152
118 253 8 145 -36 385 -85 455 -56 81 -184 119 -273 80z"/>
<path d="M2085 1866 c-76 -37 -109 -92 -110 -182 0 -50 5 -68 28 -103 16 -23
43 -51 61 -62 29 -17 35 -28 56 -111 13 -51 34 -126 46 -166 21 -69 21 -76 7
-119 -20 -57 -13 -157 16 -233 31 -82 85 -155 195 -267 97 -97 106 -104 237
-166 195 -94 246 -110 354 -109 101 0 205 28 333 88 85 41 127 90 138 160 18
121 -104 240 -224 218 -20 -4 -66 -22 -101 -40 -77 -41 -137 -44 -214 -12 -69
29 -70 29 -52 71 8 20 15 51 15 69 0 41 -36 115 -66 134 -13 9 -48 46 -78 83
-31 38 -83 88 -116 112 -67 48 -69 54 -115 239 -35 142 -64 228 -90 270 -27
42 -82 93 -128 116 -44 23 -153 29 -192 10z"/>
</g>
</svg>
