<?xml version="1.0" standalone="no"?>
<!DOCTYPE svg PUBLIC "-//W3C//DTD SVG 20010904//EN"
 "http://www.w3.org/TR/2001/REC-SVG-20010904/DTD/svg10.dtd">
<svg version="1.0" xmlns="http://www.w3.org/2000/svg"
 width="600.000000pt" height="600.000000pt" viewBox="0 0 600.000000 600.000000"
 preserveAspectRatio="xMidYMid meet">
<metadata>
Created by potrace 1.15, written by Peter Selinger 2001-2017
</metadata>
<g transform="translate(0.000000,600.000000) scale(0.100000,-0.100000)"
fill="#16364b" stroke="none">
<path d="M1672 5783 c-35 -35 -42 -50 -75 -175 -65 -245 -80 -332 -81 -468 -1
-113 1 -130 23 -174 48 -97 159 -133 260 -84 78 38 194 166 403 443 93 124 98
134 98 188 0 75 -70 147 -143 147 -72 0 -97 -23 -234 -210 -42 -58 -78 -100
-80 -95 -2 6 13 69 34 140 46 165 50 210 24 253 -30 48 -77 72 -138 72 -47 0
-56 -4 -91 -37z"/>
<path d="M3058 5612 c-37 -35 -42 -45 -45 -93 -3 -41 0 -61 15 -85 11 -16 87
-83 170 -147 183 -141 266 -218 332 -306 60 -80 63 -96 16 -87 -66 13 -131
-32 -146 -99 -18 -79 30 -155 113 -180 116 -34 230 -11 307 63 138 134 88 349
-136 591 -73 78 -248 222 -388 319 -82 57 -93 62 -143 62 -49 0 -58 -4 -95
-38z"/>
<path d="M960 5453 c-214 -33 -377 -188 -409 -390 -19 -123 36 -272 136 -363
100 -92 182 -101 253 -30 72 72 65 165 -19 225 -77 56 -92 119 -44 193 36 54
74 72 160 72 50 0 76 5 101 20 86 53 96 166 20 237 -35 33 -119 49 -198 36z"/>
<path d="M2962 5179 c-62 -12 -108 -44 -157 -109 -137 -187 -49 -389 179 -407
70 -6 173 10 219 34 58 30 69 121 32 261 -42 161 -146 245 -273 221z"/>
<path d="M4758 4840 c-20 -11 -47 -34 -60 -52 -21 -30 -23 -43 -23 -153 1
-138 20 -231 70 -342 104 -227 319 -287 473 -131 68 68 87 118 87 223 0 76 -4
98 -26 145 -52 110 -154 205 -306 283 -103 53 -153 59 -215 27z"/>
<path d="M2060 4794 c-149 -41 -200 -87 -200 -179 0 -59 25 -107 69 -130 42
-21 76 -19 146 10 73 30 99 31 150 5 51 -26 90 -25 145 3 54 27 83 74 83 132
0 54 -27 102 -82 140 -40 28 -49 30 -149 32 -71 2 -125 -3 -162 -13z"/>
<path d="M2820 4095 c-106 -30 -174 -97 -186 -185 -26 -194 177 -316 493 -297
165 11 324 35 370 58 91 46 98 187 12 251 -40 30 -267 128 -359 154 -109 33
-252 40 -330 19z"/>
<path d="M1060 4061 c-96 -15 -155 -75 -167 -169 -8 -67 21 -129 80 -168 38
-26 51 -29 145 -32 56 -2 102 -8 102 -12 0 -5 -84 -96 -187 -202 -273 -281
-434 -476 -454 -552 -38 -142 92 -270 227 -223 25 8 63 12 96 9 64 -5 74 0
179 79 42 32 122 85 177 118 l102 61 54 -41 c30 -22 60 -55 68 -72 31 -74 6
-248 -57 -398 -82 -196 -252 -379 -352 -379 -38 0 -89 -33 -114 -72 -15 -26
-19 -45 -16 -86 12 -160 188 -201 365 -85 117 78 300 309 376 476 112 244 143
508 80 671 -14 36 -14 38 3 31 10 -4 38 -9 63 -12 54 -5 99 19 131 69 18 30
20 44 15 143 -2 61 -10 128 -16 150 -15 51 -76 109 -126 122 -60 14 -107 1
-259 -75 -77 -39 -142 -68 -144 -66 -2 2 15 24 38 49 56 61 116 155 142 224
31 83 24 205 -16 280 -35 64 -82 105 -152 131 -90 34 -267 48 -383 31z"/>
<path d="M4252 3789 c-119 -20 -234 -102 -291 -208 -61 -115 -50 -226 34 -319
62 -69 127 -96 230 -97 205 0 344 126 404 370 40 159 -11 222 -203 251 -101
15 -99 15 -174 3z m17 -306 c-19 -24 -31 -33 -47 -33 -21 0 -9 23 19 37 34 18
44 16 28 -4z"/>
<path d="M3417 3386 c-51 -19 -72 -39 -124 -118 -92 -142 -111 -213 -73 -276
29 -48 72 -69 155 -77 62 -6 80 -3 124 16 160 69 207 345 73 434 -47 31 -106
39 -155 21z"/>
<path d="M5021 3217 c-69 -35 -175 -131 -220 -198 -68 -101 -90 -217 -62 -318
18 -62 100 -143 163 -160 146 -41 311 47 390 206 44 89 51 209 18 296 -22 59
-100 160 -142 183 -35 20 -98 16 -147 -9z"/>
<path d="M3949 2510 c-47 -25 -105 -92 -113 -132 -12 -61 -5 -120 24 -210 16
-51 28 -93 27 -95 -2 -1 -25 4 -52 12 -72 22 -124 19 -184 -11 -88 -44 -141
-142 -141 -260 0 -170 106 -537 179 -617 127 -141 332 -102 376 71 l12 47 61
6 c184 18 316 181 298 369 -4 37 -16 106 -27 152 -32 133 -150 530 -169 568
-23 46 -67 89 -107 106 -47 20 -141 17 -184 -6z"/>
<path d="M2094 2401 c-56 -14 -125 -55 -184 -109 -65 -58 -216 -241 -230 -276
-4 -13 -32 -54 -61 -92 -108 -143 -162 -295 -195 -549 -41 -319 9 -487 201
-681 132 -132 271 -225 415 -276 88 -31 253 -35 363 -9 91 22 268 96 365 153
72 42 253 223 307 308 93 144 166 335 223 590 61 270 64 363 15 472 -50 113
-181 198 -303 198 -60 0 -197 -27 -310 -61 -58 -17 -111 -32 -118 -33 -7 0
-23 29 -37 68 -13 37 -35 86 -49 107 -33 49 -148 145 -205 171 -49 22 -148 32
-197 19z m115 -524 c25 -120 45 -159 110 -220 100 -94 161 -99 343 -31 123 46
288 104 296 104 11 0 -11 -138 -37 -243 -55 -219 -127 -359 -255 -500 -133
-147 -216 -189 -376 -191 -120 -1 -181 17 -286 85 -100 65 -159 121 -192 184
-25 47 -27 58 -27 185 1 153 14 220 70 337 18 40 54 94 78 120 24 27 57 68 72
93 15 24 57 80 93 123 79 95 83 93 111 -46z"/>
</g>
</svg>
