<?xml version="1.0" standalone="no"?>
<!DOCTYPE svg PUBLIC "-//W3C//DTD SVG 20010904//EN"
 "http://www.w3.org/TR/2001/REC-SVG-20010904/DTD/svg10.dtd">
<svg version="1.0" xmlns="http://www.w3.org/2000/svg"
 width="600.000000pt" height="600.000000pt" viewBox="0 0 600.000000 600.000000"
 preserveAspectRatio="xMidYMid meet">
<metadata>
Created by potrace 1.15, written by Peter Selinger 2001-2017
</metadata>
<g transform="translate(0.000000,600.000000) scale(0.100000,-0.100000)"
fill="#16364b" stroke="none">
<path d="M3102 5650 c-77 -47 -95 -142 -41 -224 52 -78 157 -181 303 -299 76
-62 148 -125 160 -140 l21 -29 -48 -44 c-77 -70 -345 -246 -390 -256 -49 -11
-187 -68 -245 -101 -74 -42 -148 -113 -176 -169 -75 -150 10 -288 177 -288 63
0 108 25 145 80 18 28 23 46 21 91 -1 30 1 61 5 67 4 7 32 12 69 12 59 0 69 4
207 81 198 111 280 169 386 274 104 104 135 159 142 253 4 55 1 70 -27 127
-40 82 -152 201 -285 305 -120 93 -145 116 -211 194 -73 86 -144 108 -213 66z"/>
<path d="M1153 5344 c-164 -85 -302 -257 -350 -436 -20 -74 -22 -208 -4 -292
17 -76 76 -222 107 -263 28 -37 88 -59 130 -49 42 11 100 75 114 126 14 49 10
70 -31 175 -34 88 -34 230 0 299 33 68 71 108 146 155 78 50 107 88 113 154
12 128 -102 194 -225 131z"/>
<path d="M1722 5310 c-51 -31 -73 -75 -71 -145 1 -56 -2 -64 -46 -130 -101
-149 -140 -271 -116 -362 17 -61 64 -119 123 -150 45 -23 69 -28 156 -31 101
-4 309 17 379 39 37 12 90 68 99 105 14 56 -30 140 -89 171 -61 31 -96 33
-209 10 -59 -11 -110 -18 -114 -14 -4 3 13 39 36 79 113 191 131 241 111 315
-28 101 -173 165 -259 113z"/>
<path d="M4562 4684 c-67 -34 -95 -103 -72 -175 14 -41 38 -68 85 -92 17 -9
25 -16 18 -17 -23 0 -72 -51 -83 -86 -27 -79 23 -162 113 -189 28 -8 86 -15
129 -15 215 0 381 94 395 224 18 152 -114 275 -357 335 -127 31 -189 35 -228
15z"/>
<path d="M1815 4284 c-178 -39 -388 -183 -416 -287 -27 -101 56 -207 161 -207
50 0 71 10 133 66 87 78 203 119 302 108 73 -9 122 13 159 69 23 36 27 50 24
98 -5 69 -35 114 -94 141 -60 26 -181 32 -269 12z"/>
<path d="M2565 3749 c-78 -11 -157 -35 -223 -66 -39 -18 -57 -34 -72 -63 -43
-84 -13 -182 68 -221 49 -24 48 -24 211 25 46 14 106 26 133 26 l51 0 -5 -38
c-12 -88 -107 -264 -301 -561 -108 -164 -121 -189 -125 -236 -5 -64 16 -115
62 -148 24 -17 45 -22 94 -22 61 0 65 1 100 40 21 22 84 117 141 210 56 94
132 217 168 275 167 268 215 443 162 586 -59 157 -228 227 -464 193z"/>
<path d="M4074 3730 c-142 -30 -218 -114 -218 -240 0 -84 32 -148 111 -220
109 -100 246 -136 346 -92 161 71 243 278 143 361 -9 8 -16 25 -16 40 0 32
-31 85 -62 105 -54 36 -228 62 -304 46z"/>
<path d="M1170 3589 c-92 -16 -316 -132 -364 -190 -74 -88 -53 -232 42 -289
58 -35 118 -36 195 -5 10 4 17 3 17 -4 0 -6 -29 -84 -64 -173 -121 -309 -199
-600 -200 -755 -1 -88 0 -92 30 -129 42 -53 105 -83 186 -91 55 -5 72 -3 96
13 35 22 153 156 335 379 215 262 328 395 339 395 13 0 7 -44 -38 -270 -74
-374 -144 -794 -144 -863 0 -148 202 -202 280 -75 11 18 22 47 24 63 3 17 10
64 16 105 6 41 42 203 80 360 99 412 105 453 105 720 -1 210 -2 229 -23 282
-51 128 -168 172 -290 109 -88 -46 -235 -196 -385 -393 -45 -60 -83 -104 -85
-99 -2 5 23 78 54 162 113 307 126 355 127 454 1 79 -2 96 -25 140 -63 119
-177 176 -308 154z"/>
<path d="M3635 3276 c-69 -17 -149 -62 -192 -109 -19 -22 -52 -74 -72 -116
-31 -65 -36 -86 -36 -148 0 -62 3 -75 25 -98 57 -61 141 -74 201 -30 47 34 65
41 136 54 213 39 322 182 252 329 -28 57 -103 107 -183 121 -70 13 -66 13
-131 -3z"/>
<path d="M4732 3010 c-74 -17 -121 -96 -122 -201 0 -76 13 -118 76 -245 64
-129 125 -184 207 -187 83 -3 147 58 147 138 0 33 -11 59 -56 130 -75 118 -87
149 -79 202 15 104 -71 186 -173 163z"/>
<path d="M3005 2584 c-132 -18 -287 -74 -485 -174 -126 -64 -142 -76 -166
-116 -46 -79 -42 -159 13 -225 36 -42 80 -62 138 -61 40 0 74 11 165 55 137
65 178 83 248 107 49 18 52 18 52 1 0 -50 -97 -275 -190 -440 -78 -140 2 -281
161 -281 77 0 143 40 187 112 44 74 193 404 227 502 76 223 12 422 -159 496
-44 18 -140 30 -191 24z"/>
<path d="M4438 2336 c-125 -46 -180 -152 -158 -305 6 -41 8 -76 5 -79 -3 -3
-60 8 -128 23 -78 19 -159 30 -227 33 -140 5 -201 -16 -281 -97 -98 -100 -104
-139 -83 -576 11 -219 16 -242 63 -292 40 -42 82 -58 156 -57 83 0 133 22 188
83 54 60 60 95 47 287 -7 91 -9 168 -6 171 3 4 56 -8 118 -26 127 -35 167 -38
274 -16 220 46 323 160 356 397 12 83 1 216 -24 301 -15 49 -70 112 -120 138
-52 27 -132 33 -180 15z"/>
<path d="M2142 1868 c-44 -15 -98 -77 -112 -129 -9 -32 -9 -63 0 -123 6 -45
18 -128 26 -186 28 -192 81 -369 147 -495 62 -116 193 -233 334 -297 75 -34
138 -38 197 -13 39 16 39 16 95 -14 108 -60 201 -101 263 -117 120 -31 252 -3
358 76 80 60 104 99 108 178 3 60 0 72 -24 109 -35 53 -76 73 -146 73 -43 0
-64 -6 -101 -30 -73 -46 -84 -46 -173 1 -43 23 -92 48 -109 57 -94 48 -228
169 -262 235 -62 124 -174 181 -276 142 -16 -7 -22 19 -57 250 -26 165 -51
223 -114 260 -49 29 -109 38 -154 23z"/>
</g>
</svg>
