<?xml version="1.0" standalone="no"?>
<!DOCTYPE svg PUBLIC "-//W3C//DTD SVG 20010904//EN"
 "http://www.w3.org/TR/2001/REC-SVG-20010904/DTD/svg10.dtd">
<svg version="1.0" xmlns="http://www.w3.org/2000/svg"
 width="600.000000pt" height="600.000000pt" viewBox="0 0 600.000000 600.000000"
 preserveAspectRatio="xMidYMid meet">
<metadata>
Created by potrace 1.15, written by Peter Selinger 2001-2017
</metadata>
<g transform="translate(0.000000,600.000000) scale(0.100000,-0.100000)"
fill="#16364b" stroke="none">
<path d="M2153 5459 c-76 -22 -135 -138 -134 -264 0 -76 19 -122 70 -168 52
-47 92 -57 239 -57 67 0 122 -2 122 -5 0 -3 -18 -57 -39 -119 -22 -63 -56
-179 -76 -258 -43 -173 -41 -205 16 -260 51 -48 103 -58 162 -29 56 27 80 71
102 186 19 95 52 210 105 360 42 120 44 192 6 261 -55 99 -167 154 -312 154
l-74 0 0 51 c0 67 -29 115 -84 140 -45 21 -56 21 -103 8z"/>
<path d="M3515 5432 c-84 -29 -119 -123 -79 -209 29 -59 76 -87 162 -94 62 -5
79 -10 94 -29 37 -46 16 -179 -52 -322 -37 -79 -38 -122 -3 -175 30 -47 58
-63 111 -63 86 0 132 66 203 290 30 93 34 117 33 215 0 90 -4 120 -23 167 -30
76 -99 152 -175 190 -54 28 -72 32 -156 34 -52 2 -104 0 -115 -4z"/>
<path d="M1676 4839 c-156 -21 -364 -90 -410 -136 -50 -49 -56 -135 -15 -203
27 -43 97 -74 150 -65 43 7 48 1 22 -27 -9 -10 -18 -41 -21 -71 -3 -42 0 -58
20 -86 13 -19 37 -43 54 -53 17 -10 114 -34 215 -53 101 -20 243 -49 314 -65
154 -36 173 -36 226 -9 50 25 84 92 76 146 -8 45 -51 102 -92 118 -51 22 -257
71 -440 105 -93 17 -179 35 -189 39 -35 13 140 44 234 41 205 -6 196 -7 225
20 58 54 69 114 35 184 -35 73 -116 110 -257 119 -43 3 -109 1 -147 -4z"/>
<path d="M4270 4444 c-24 -10 -61 -47 -76 -76 -21 -40 -18 -117 6 -156 33 -53
68 -68 179 -75 113 -7 162 -23 188 -63 15 -24 18 -48 17 -144 -1 -63 -6 -142
-12 -174 -15 -77 -3 -124 43 -165 47 -41 91 -48 147 -23 62 27 86 66 103 164
50 282 -19 528 -175 628 -77 49 -188 81 -305 86 -55 2 -107 1 -115 -2z"/>
<path d="M3035 4316 c-99 -50 -259 -130 -355 -176 -195 -95 -220 -117 -220
-196 0 -71 68 -134 145 -134 45 0 468 174 650 268 145 75 175 105 175 174 0
94 -66 159 -160 157 -48 -1 -76 -12 -235 -93z"/>
<path d="M2220 3861 c-21 -13 -160 -48 -245 -62 -38 -6 -142 -12 -230 -13
-143 -1 -163 -3 -187 -21 -82 -61 -74 -209 14 -263 97 -60 477 -25 717 65 75
28 107 54 127 100 43 100 -27 203 -136 203 -25 0 -52 -5 -60 -9z"/>
<path d="M3680 3787 c-36 -12 -155 -70 -265 -129 -110 -58 -240 -123 -290
-143 -49 -20 -98 -44 -109 -54 -49 -43 -58 -118 -21 -174 26 -40 96 -70 145
-62 22 4 141 57 266 119 185 93 227 110 231 97 21 -59 104 -121 163 -121 52 0
106 35 129 84 53 108 66 237 32 304 -50 97 -148 125 -281 79z"/>
<path d="M4942 3399 c-56 -28 -99 -81 -118 -146 -13 -44 -13 -65 -4 -128 19
-124 6 -156 -134 -331 -140 -175 -247 -395 -287 -588 -30 -146 -24 -227 24
-297 69 -103 219 -114 324 -24 64 54 85 95 94 185 9 90 62 235 115 315 18 28
78 101 133 164 184 210 235 367 200 618 -13 95 -30 138 -72 182 -68 71 -187
93 -275 50z"/>
<path d="M2035 3213 c-58 -15 -115 -91 -115 -155 0 -46 39 -108 80 -129 33
-17 109 -27 321 -44 l77 -6 5 -39 c18 -137 195 -178 272 -62 22 33 26 50 26
115 1 116 -44 199 -137 253 -64 38 -134 53 -269 59 -66 3 -147 7 -180 9 -33 2
-69 1 -80 -1z"/>
<path d="M4325 3155 c-16 -7 -59 -41 -95 -75 -175 -166 -428 -278 -702 -311
-59 -7 -110 -20 -128 -31 -101 -61 -92 -222 16 -273 56 -26 174 -15 362 35
273 72 419 138 562 255 86 70 177 166 190 200 28 74 -1 156 -70 192 -49 26
-91 29 -135 8z"/>
<path d="M1347 2995 c-120 -31 -188 -184 -127 -287 17 -29 27 -85 50 -266 34
-262 67 -435 112 -572 39 -122 59 -160 102 -198 87 -76 234 -44 285 60 29 60
26 107 -9 188 -47 106 -87 316 -110 575 -24 263 -51 367 -115 443 -49 59 -111
77 -188 57z"/>
<path d="M2136 2470 c-64 -17 -153 -69 -223 -134 -100 -91 -122 -158 -83 -244
15 -33 29 -47 62 -62 24 -11 52 -20 63 -20 46 0 100 24 144 65 25 23 66 53 90
66 l44 23 16 -22 c9 -11 24 -32 33 -46 23 -32 98 -60 140 -52 77 14 138 85
138 161 0 76 -89 191 -184 239 -61 31 -172 43 -240 26z"/>
<path d="M3760 2156 c-36 -8 -128 -30 -205 -50 -77 -19 -194 -44 -260 -56
-154 -26 -376 -68 -439 -82 -54 -12 -117 -61 -143 -112 -26 -49 -20 -139 10
-185 41 -62 89 -86 172 -85 98 1 549 79 660 114 63 19 264 60 297 60 19 0 48
-7 65 -15 140 -70 313 30 313 180 0 86 -61 164 -167 212 -67 31 -206 39 -303
19z"/>
<path d="M2278 1955 c-67 -45 -112 -179 -110 -328 2 -197 123 -435 237 -466
79 -22 171 31 193 112 13 48 3 85 -42 151 -67 97 -87 193 -62 299 21 91 20
145 -4 185 -45 73 -142 95 -212 47z"/>
<path d="M4650 1624 c-25 -14 -70 -49 -100 -79 -93 -88 -141 -105 -420 -150
-91 -15 -205 -41 -255 -57 -173 -58 -478 -231 -527 -301 -19 -27 -23 -45 -23
-109 0 -43 0 -78 0 -78 -1 0 -18 9 -40 20 -63 32 -126 27 -204 -16 -103 -57
-163 -74 -259 -74 -180 0 -343 76 -523 246 -79 74 -147 91 -224 55 -78 -36
-115 -95 -115 -182 0 -68 25 -112 112 -198 152 -151 327 -246 517 -281 294
-53 538 -13 719 120 69 50 101 149 72 224 l-9 25 47 -25 c39 -21 57 -25 107
-22 51 3 69 10 122 46 179 122 353 188 643 247 263 53 430 129 568 259 60 56
82 99 82 158 0 150 -161 246 -290 172z"/>
</g>
</svg>
