<?xml version="1.0" standalone="no"?>
<!DOCTYPE svg PUBLIC "-//W3C//DTD SVG 20010904//EN"
 "http://www.w3.org/TR/2001/REC-SVG-20010904/DTD/svg10.dtd">
<svg version="1.0" xmlns="http://www.w3.org/2000/svg"
 width="600.000000pt" height="600.000000pt" viewBox="0 0 600.000000 600.000000"
 preserveAspectRatio="xMidYMid meet">
<metadata>
Created by potrace 1.15, written by Peter Selinger 2001-2017
</metadata>
<g transform="translate(0.000000,600.000000) scale(0.100000,-0.100000)"
fill="#16364b" stroke="none">
<path d="M1535 5758 c-11 -6 -72 -59 -135 -116 -191 -173 -230 -221 -230 -283
0 -74 68 -118 153 -99 48 10 271 93 412 152 66 28 83 40 99 69 22 41 17 78
-15 108 -29 27 -67 32 -117 14 -24 -8 -46 -13 -48 -10 -2 2 3 18 12 35 39 78
-57 173 -131 130z"/>
<path d="M2336 5425 c-14 -13 -26 -30 -27 -37 0 -7 -2 -107 -3 -223 -3 -230
-16 -305 -75 -430 -39 -85 -82 -129 -173 -182 -43 -24 -85 -54 -93 -66 -20
-29 -18 -87 3 -113 46 -55 99 -57 196 -7 174 91 291 287 332 558 11 69 14 156
12 283 l-3 184 -33 29 c-42 38 -97 40 -136 4z"/>
<path d="M3522 5314 c-29 -20 -52 -66 -52 -105 0 -75 143 -274 224 -313 98
-47 196 14 196 121 0 66 -91 217 -157 260 -32 21 -129 53 -162 53 -15 0 -37
-7 -49 -16z"/>
<path d="M2973 5135 c-97 -42 -176 -164 -177 -275 -2 -117 58 -180 170 -180
53 0 74 6 135 38 85 44 103 65 125 152 30 118 -3 217 -86 261 -41 23 -121 24
-167 4z"/>
<path d="M4730 4772 c-16 -16 -32 -46 -36 -67 -10 -54 12 -266 36 -353 65
-232 205 -347 345 -283 113 52 166 182 131 320 -34 134 -125 249 -278 351
-107 72 -151 79 -198 32z"/>
<path d="M2714 4230 c-133 -27 -224 -119 -224 -226 0 -67 18 -118 58 -164 56
-66 102 -85 207 -85 83 0 96 3 165 36 90 44 210 143 235 195 24 52 16 116 -21
155 -32 33 -146 74 -253 89 -76 11 -110 11 -167 0z"/>
<path d="M1113 4119 c-17 -5 -46 -26 -62 -46 -38 -46 -42 -106 -10 -147 28
-35 49 -46 120 -57 66 -11 139 -36 139 -49 0 -19 -101 -42 -210 -47 -128 -6
-161 -18 -190 -66 -41 -66 -16 -142 55 -177 51 -25 164 -27 287 -5 128 22 195
51 254 110 44 44 54 61 64 109 21 101 -13 199 -94 274 -54 49 -114 78 -206 98
-74 16 -101 16 -147 3z"/>
<path d="M4173 3766 c-94 -30 -187 -118 -222 -212 -57 -151 -4 -305 130 -379
49 -27 62 -30 149 -30 84 0 101 3 146 27 60 31 139 115 172 181 28 55 52 163
52 233 0 91 -57 146 -186 178 -75 19 -183 20 -241 2z m117 -301 c0 -21 -48
-51 -62 -37 -7 7 -4 16 11 31 24 24 51 28 51 6z"/>
<path d="M1625 3696 c-32 -32 -40 -82 -27 -179 21 -157 71 -261 142 -299 161
-84 286 113 193 303 -40 80 -103 145 -171 175 -68 31 -106 31 -137 0z"/>
<path d="M5197 3689 c-110 -26 -215 -110 -260 -207 -17 -37 -22 -66 -22 -137
0 -78 4 -97 27 -141 37 -70 108 -130 177 -151 151 -44 345 56 419 216 59 128
34 244 -72 337 -104 90 -162 108 -269 83z m63 -307 c0 -5 -11 -19 -25 -32 -23
-21 -25 -22 -31 -5 -5 12 -1 23 11 31 21 16 45 18 45 6z"/>
<path d="M3434 3386 c-47 -21 -100 -91 -161 -212 -52 -104 -55 -114 -44 -145
26 -75 78 -94 159 -59 64 28 125 92 163 174 55 117 47 206 -21 241 -35 18 -55
18 -96 1z"/>
<path d="M2400 3084 c-230 -27 -351 -56 -560 -134 -85 -32 -190 -70 -232 -85
-149 -53 -268 -138 -355 -256 -55 -73 -88 -141 -119 -246 -22 -74 -27 -109
-28 -223 -1 -115 2 -146 22 -207 30 -95 91 -183 183 -261 214 -184 289 -254
380 -356 122 -136 204 -203 312 -256 180 -89 392 -93 629 -14 77 25 200 86
506 249 218 115 306 173 415 271 419 375 509 736 248 994 -72 72 -367 281
-486 346 -182 99 -484 171 -745 178 -74 3 -151 2 -170 0z m340 -414 c150 -26
342 -80 426 -119 123 -57 344 -222 383 -285 43 -69 15 -154 -83 -251 -66 -65
-382 -301 -511 -382 -95 -60 -384 -202 -475 -234 -92 -33 -246 -34 -307 -1
-60 32 -106 75 -168 157 -87 115 -175 205 -316 321 -166 137 -184 166 -184
284 1 107 24 160 110 246 49 50 86 75 193 128 201 101 281 130 442 160 64 12
370 -3 490 -24z"/>
<path d="M392 2225 c-45 -37 -45 -66 -6 -185 50 -147 112 -275 170 -346 168
-208 356 -253 425 -100 23 50 24 84 4 161 -39 148 -174 290 -426 448 -88 54
-123 59 -167 22z"/>
<path d="M4656 1735 c-35 -24 -38 -24 -68 -9 -37 19 -96 14 -134 -11 -65 -42
-78 -122 -49 -300 36 -220 93 -305 207 -305 131 0 200 100 243 354 21 123 20
193 -5 233 -39 65 -128 83 -194 38z"/>
</g>
</svg>
