<?xml version="1.0" standalone="no"?>
<!DOCTYPE svg PUBLIC "-//W3C//DTD SVG 20010904//EN"
 "http://www.w3.org/TR/2001/REC-SVG-20010904/DTD/svg10.dtd">
<svg version="1.0" xmlns="http://www.w3.org/2000/svg"
 width="600.000000pt" height="600.000000pt" viewBox="0 0 600.000000 600.000000"
 preserveAspectRatio="xMidYMid meet">
<metadata>
Created by potrace 1.15, written by Peter Selinger 2001-2017
</metadata>
<g transform="translate(0.000000,600.000000) scale(0.100000,-0.100000)"
fill="#16364b" stroke="none">
<path d="M3529 5271 c-40 -40 -38 -82 7 -168 41 -79 72 -114 133 -154 57 -37
108 -39 139 -6 32 34 27 75 -17 161 -51 98 -94 152 -142 176 -54 28 -85 25
-120 -9z m145 -173 c17 -29 18 -31 2 -19 -9 8 -24 28 -33 45 -22 42 5 20 31
-26z"/>
<path d="M2995 5061 c-121 -73 -173 -274 -88 -340 39 -31 100 -28 149 8 86 62
133 143 134 230 0 47 -4 57 -34 87 -29 29 -41 34 -82 34 -30 0 -61 -7 -79 -19z
m101 -86 c16 -41 -74 -175 -118 -175 -18 0 -19 4 -13 38 10 54 33 99 67 127
33 28 56 32 64 10z"/>
<path d="M4784 4726 c-34 -29 -43 -91 -43 -323 -1 -230 19 -312 85 -339 49
-20 98 1 122 53 42 93 -2 557 -59 614 -26 26 -72 24 -105 -5z"/>
<path d="M2680 4223 c-59 -19 -90 -57 -90 -108 0 -65 61 -115 195 -161 69 -24
96 -28 193 -29 l114 0 29 33 c37 41 39 89 4 130 -19 23 -53 38 -167 75 -79 26
-167 51 -197 57 -58 11 -59 11 -81 3z"/>
<path d="M1394 3977 c-88 -43 -136 -127 -138 -242 0 -58 5 -81 27 -127 32 -65
104 -136 174 -171 59 -30 93 -72 138 -171 47 -102 70 -190 94 -367 70 -524 92
-698 101 -814 27 -333 94 -497 280 -686 83 -84 107 -102 190 -142 52 -25 121
-52 153 -61 33 -8 61 -17 64 -19 2 -3 -22 -21 -55 -41 -81 -49 -156 -126 -177
-180 -22 -57 -17 -145 11 -184 11 -15 45 -40 76 -55 56 -28 57 -29 242 -28
102 0 186 -3 186 -8 0 -4 -19 -16 -42 -26 -67 -29 -99 -55 -114 -92 -31 -73
41 -128 132 -103 94 27 185 119 199 201 9 53 -26 126 -75 154 -31 18 -58 21
-247 25 -139 3 -216 9 -223 16 -29 29 54 105 236 220 l129 81 385 -5 385 -5 1
-51 c1 -110 66 -162 236 -190 35 -6 36 -7 25 -36 -14 -38 -1 -76 36 -104 23
-17 42 -21 100 -20 79 0 122 17 164 62 40 43 46 70 28 118 -23 61 -81 89 -236
115 -148 24 -189 36 -189 54 0 8 18 19 43 25 23 6 65 19 92 30 28 11 73 20
100 20 138 0 297 32 450 91 331 126 441 185 538 288 82 87 118 148 159 271 30
88 32 105 32 235 1 157 -11 210 -80 346 -81 163 -192 282 -323 347 -65 32 -86
37 -161 40 -140 6 -228 -24 -372 -124 -140 -99 -317 -157 -531 -175 -275 -24
-464 31 -727 212 -180 123 -278 232 -465 519 -144 220 -211 307 -324 421 -136
135 -268 230 -440 316 -63 31 -86 37 -155 40 -70 4 -88 1 -132 -20z m183 -208
c15 -5 51 -25 78 -43 28 -18 77 -48 109 -67 74 -43 239 -199 321 -304 34 -44
108 -150 165 -235 130 -196 206 -293 311 -399 185 -186 476 -371 669 -427 94
-27 432 -27 575 0 191 36 365 105 481 193 172 129 366 101 488 -70 81 -113
116 -217 116 -342 0 -194 -84 -350 -243 -455 -75 -49 -331 -152 -447 -180 -47
-11 -193 -30 -325 -42 -431 -39 -1315 -27 -1462 20 -127 40 -221 125 -292 262
-66 127 -102 280 -116 490 -7 100 -18 175 -65 460 -16 96 -34 222 -40 280 -41
382 -140 606 -320 724 -38 25 -76 56 -84 68 -16 23 -21 60 -9 71 10 10 58 8
90 -4z"/>
<path d="M2357 2482 c-10 -10 -17 -29 -17 -41 0 -28 46 -71 76 -71 47 0 76 89
38 117 -26 19 -78 16 -97 -5z"/>
<path d="M2806 2064 c-9 -8 -16 -25 -16 -36 0 -24 55 -78 81 -78 24 0 59 38
59 65 0 53 -86 87 -124 49z"/>
<path d="M5260 3967 c-69 -16 -109 -37 -151 -79 -132 -132 -100 -401 63 -518
57 -41 108 -53 208 -47 141 7 242 72 299 190 82 167 29 331 -137 420 -63 34
-83 39 -150 43 -42 2 -102 -2 -132 -9z m145 -308 c11 -11 -27 -49 -50 -49 -15
0 -38 48 -29 62 7 12 63 3 79 -13z"/>
<path d="M4186 3750 c-106 -42 -168 -107 -206 -221 -50 -145 -1 -273 130 -341
64 -33 204 -33 271 0 61 30 124 94 155 158 47 95 42 276 -8 340 -12 14 -49 39
-82 55 -51 24 -74 29 -136 29 -49 -1 -92 -8 -124 -20z m124 -273 c0 -28 -17
-47 -42 -47 -23 0 -23 11 3 44 25 32 39 33 39 3z"/>
<path d="M3446 3336 c-33 -35 -146 -277 -146 -313 0 -28 34 -56 59 -48 46 14
169 233 178 319 5 37 2 46 -18 60 -32 22 -37 21 -73 -18z"/>
<path d="M460 2000 c-11 -11 -20 -25 -20 -31 0 -42 253 -199 322 -199 62 0 77
62 26 106 -35 29 -268 144 -293 144 -8 0 -24 -9 -35 -20z"/>
<path d="M5324 1092 c-35 -27 -57 -82 -61 -152 -4 -56 -2 -70 19 -100 31 -46
83 -61 132 -38 50 25 76 85 76 182 0 68 -3 80 -25 101 -30 31 -107 35 -141 7z"/>
</g>
</svg>
