<?xml version="1.0" standalone="no"?>
<!DOCTYPE svg PUBLIC "-//W3C//DTD SVG 20010904//EN"
 "http://www.w3.org/TR/2001/REC-SVG-20010904/DTD/svg10.dtd">
<svg version="1.0" xmlns="http://www.w3.org/2000/svg"
 width="600.000000pt" height="600.000000pt" viewBox="0 0 600.000000 600.000000"
 preserveAspectRatio="xMidYMid meet">
<metadata>
Created by potrace 1.15, written by Peter Selinger 2001-2017
</metadata>
<g transform="translate(0.000000,600.000000) scale(0.100000,-0.100000)"
fill="#16364b" stroke="none">
<path d="M3010 5054 c-143 -62 -184 -265 -65 -323 85 -42 245 99 245 217 0 48
-26 91 -65 108 -43 18 -71 17 -115 -2z m100 -69 c29 -35 -24 -131 -96 -175
-44 -28 -64 -21 -64 24 0 46 16 85 48 120 43 45 89 58 112 31z"/>
<path d="M4794 4729 c-11 -4 -25 -13 -32 -21 -14 -17 -32 -262 -32 -449 0
-123 2 -139 21 -163 22 -28 64 -35 98 -16 41 21 46 62 46 341 0 244 -2 269
-18 287 -21 23 -55 32 -83 21z"/>
<path d="M1650 4387 c-80 -26 -150 -135 -150 -234 0 -59 33 -149 70 -193 92
-106 182 -415 220 -755 5 -49 10 -155 10 -235 0 -80 9 -230 20 -335 11 -104
20 -261 20 -348 0 -189 13 -319 44 -447 92 -376 277 -563 604 -614 l77 -12 -4
-189 c-4 -221 7 -308 55 -449 18 -55 31 -103 29 -106 -3 -4 -44 -10 -91 -12
-83 -4 -88 -6 -116 -36 -49 -55 -31 -134 38 -167 51 -24 135 -17 206 18 117
57 144 145 90 290 -58 153 -66 198 -66 382 -1 94 3 192 7 219 l9 48 46 -6
c105 -14 675 -38 782 -32 l115 6 1 -102 c2 -93 8 -126 67 -343 36 -131 63
-243 61 -247 -3 -4 -39 -8 -79 -8 -86 0 -134 -18 -159 -60 -30 -52 -14 -112
39 -138 84 -41 237 -9 307 65 60 64 62 125 8 299 -91 299 -111 411 -88 499
l13 49 160 27 c263 43 508 110 601 165 205 120 368 413 350 629 -14 178 -93
384 -178 467 -99 96 -168 116 -428 123 -408 10 -761 85 -1020 215 -117 59
-328 189 -402 248 -124 99 -192 181 -308 372 -35 58 -94 148 -132 200 -37 52
-121 174 -187 270 -125 182 -299 386 -368 432 -82 54 -189 72 -273 45z m158
-163 c30 -15 68 -45 90 -72 20 -25 66 -75 102 -111 65 -65 279 -375 439 -634
136 -221 261 -368 406 -478 135 -104 472 -288 625 -343 201 -73 682 -145 963
-146 109 0 154 -16 213 -74 36 -37 59 -73 83 -130 77 -184 77 -319 1 -473 -73
-147 -170 -232 -327 -284 -362 -121 -721 -162 -1231 -140 -533 22 -657 30
-717 45 -210 51 -332 177 -400 413 -42 143 -56 245 -65 480 -6 123 -17 282
-25 355 -9 73 -20 246 -25 383 -7 189 -15 287 -34 402 -56 333 -115 523 -195
623 -41 52 -51 75 -51 117 0 41 12 64 45 81 30 17 46 15 103 -14z"/>
<path d="M2450 2590 c-29 -29 -26 -74 6 -99 15 -12 35 -21 45 -21 54 0 81 93
37 124 -31 22 -64 20 -88 -4z"/>
<path d="M2955 2310 c-12 -4 -26 -15 -34 -23 -33 -41 20 -117 73 -103 30 7 60
58 51 86 -11 35 -55 55 -90 40z"/>
<path d="M2647 4219 c-22 -13 -47 -61 -47 -93 0 -59 93 -108 318 -167 101 -26
122 -29 154 -19 38 11 68 49 68 85 0 30 -29 72 -57 82 -140 51 -373 123 -393
123 -14 0 -33 -5 -43 -11z"/>
<path d="M5298 4000 c-117 -19 -214 -87 -270 -192 -20 -37 -23 -57 -23 -148 0
-97 2 -109 29 -158 34 -61 95 -120 158 -154 36 -19 58 -23 133 -23 82 0 97 3
156 32 135 67 211 186 213 333 1 90 -26 158 -82 213 -92 89 -184 117 -314 97z
m81 -339 c19 -12 7 -39 -21 -50 -26 -10 -48 9 -48 41 0 13 8 18 28 18 15 0 33
-4 41 -9z"/>
<path d="M4185 3756 c-126 -40 -209 -141 -222 -270 -9 -90 34 -201 101 -259
136 -118 381 -73 460 84 36 74 36 174 -2 279 -23 65 -34 79 -77 112 -82 62
-174 81 -260 54z m95 -291 c0 -28 -36 -53 -53 -36 -7 7 -5 18 7 35 21 33 46
34 46 1z"/>
<path d="M5347 1109 c-51 -20 -95 -143 -76 -212 14 -53 54 -80 106 -74 24 2
50 10 59 18 29 24 55 89 61 152 5 56 3 66 -18 91 -27 31 -86 42 -132 25z"/>
</g>
</svg>
