<?xml version="1.0" standalone="no"?>
<!DOCTYPE svg PUBLIC "-//W3C//DTD SVG 20010904//EN"
 "http://www.w3.org/TR/2001/REC-SVG-20010904/DTD/svg10.dtd">
<svg version="1.0" xmlns="http://www.w3.org/2000/svg"
 width="600.000000pt" height="600.000000pt" viewBox="0 0 600.000000 600.000000"
 preserveAspectRatio="xMidYMid meet">
<metadata>
Created by potrace 1.15, written by Peter Selinger 2001-2017
</metadata>
<g transform="translate(0.000000,600.000000) scale(0.100000,-0.100000)"
fill="#16364b" stroke="none">
<path d="M1565 5793 c-32 -9 -74 -42 -90 -74 -22 -41 -62 -218 -76 -332 -14
-118 -8 -247 15 -302 48 -114 162 -153 271 -92 54 30 160 156 266 315 104 155
139 221 139 259 0 69 -77 131 -146 119 -46 -9 -78 -38 -120 -109 -60 -101
-176 -277 -181 -277 -13 0 10 124 43 243 33 115 35 133 25 167 -17 58 -87 98
-146 83z"/>
<path d="M873 5505 c-80 -22 -131 -52 -187 -109 -93 -93 -141 -241 -117 -356
16 -75 52 -150 97 -200 71 -79 138 -92 199 -39 69 61 70 161 0 214 -68 52 -66
134 5 205 46 46 85 57 135 36 73 -31 149 -13 173 39 7 14 12 44 12 65 0 105
-175 185 -317 145z"/>
<path d="M3355 5427 c-66 -66 -53 -151 31 -209 25 -18 53 -38 62 -44 13 -9 12
-16 -12 -50 -36 -53 -35 -106 2 -165 107 -168 335 -216 430 -91 24 31 27 44
27 106 -1 60 -6 81 -32 131 -68 129 -145 204 -313 305 -105 63 -146 66 -195
17z"/>
<path d="M2311 5203 c-62 -32 -76 -63 -74 -156 4 -106 -12 -218 -36 -265 -29
-57 -66 -89 -164 -139 -103 -54 -127 -82 -127 -156 0 -42 5 -54 34 -83 50 -50
94 -47 210 12 233 119 319 222 353 424 20 116 8 265 -24 308 -47 63 -115 85
-172 55z"/>
<path d="M2962 5144 c-100 -50 -172 -170 -175 -291 -2 -81 19 -131 71 -171 31
-23 45 -27 106 -27 59 0 83 6 138 32 85 40 102 67 117 181 18 144 -9 244 -77
285 -44 25 -118 22 -180 -9z"/>
<path d="M4795 4819 c-17 -4 -44 -22 -60 -39 -30 -31 -30 -32 -33 -172 -4
-163 8 -246 48 -334 56 -123 157 -194 277 -194 79 0 132 21 181 70 56 56 67
85 67 185 0 79 -4 97 -29 147 -62 123 -180 235 -331 313 -71 37 -74 38 -120
24z m205 -450 c0 -6 -4 -7 -10 -4 -5 3 -10 11 -10 16 0 6 5 7 10 4 6 -3 10
-11 10 -16z"/>
<path d="M2705 4168 c-16 -6 -48 -23 -70 -37 -128 -85 -140 -290 -24 -395 102
-93 318 -86 511 16 154 82 202 147 178 239 -20 73 -58 95 -260 156 -97 29
-283 41 -335 21z"/>
<path d="M1030 4078 c-55 -38 -74 -71 -74 -132 -1 -40 5 -62 20 -82 39 -52 65
-64 175 -79 58 -7 121 -20 139 -27 l34 -14 -35 -33 c-54 -53 -124 -94 -326
-191 -103 -50 -198 -101 -212 -113 -30 -28 -60 -93 -61 -131 0 -46 37 -113 77
-137 62 -39 97 -31 313 70 107 50 195 91 196 91 1 0 7 -20 13 -43 13 -54 51
-94 102 -107 52 -14 93 -2 158 47 l53 40 49 -32 c83 -57 186 -69 259 -32 78
39 109 128 78 228 -16 54 -65 109 -129 144 -50 28 -62 30 -156 30 -57 0 -103
0 -103 0 0 0 11 27 25 60 90 220 -66 404 -385 455 -109 17 -173 13 -210 -12z"/>
<path d="M4248 3779 c-112 -16 -219 -95 -271 -199 -53 -106 -30 -245 54 -329
58 -57 111 -76 214 -76 78 1 97 4 143 29 114 58 181 149 222 300 44 158 6 218
-160 259 -89 22 -135 26 -202 16z m62 -299 c0 -13 -38 -32 -57 -28 -15 3 -15
5 1 21 19 18 56 23 56 7z"/>
<path d="M5053 3441 c-99 -50 -175 -124 -217 -211 -27 -57 -31 -75 -31 -150 1
-133 48 -215 151 -266 48 -23 63 -26 122 -22 134 10 274 105 329 223 24 52 28
72 28 150 -1 104 -17 146 -93 230 -64 72 -88 85 -153 85 -46 0 -72 -7 -136
-39z"/>
<path d="M3412 3373 c-46 -22 -90 -77 -150 -186 -57 -102 -64 -143 -33 -190
30 -47 58 -60 121 -59 146 2 263 116 277 271 7 76 -14 123 -72 156 -48 29 -96
31 -143 8z"/>
<path d="M2353 3081 c-118 -43 -186 -128 -268 -336 -56 -142 -94 -190 -198
-251 -115 -67 -259 -206 -342 -330 -179 -265 -230 -557 -154 -864 52 -208 156
-338 357 -442 192 -100 330 -140 483 -140 322 0 591 147 779 426 92 138 145
282 202 551 28 135 32 168 32 330 1 304 -56 467 -221 635 -41 41 -118 131
-172 200 -103 133 -167 189 -251 221 -66 25 -177 25 -247 0z m238 -544 c22
-42 49 -72 93 -105 164 -125 196 -187 196 -380 0 -164 -74 -504 -135 -623 -84
-161 -265 -296 -433 -321 -167 -25 -390 52 -493 170 -60 68 -82 134 -87 257
-5 124 9 198 57 302 54 116 140 216 241 282 220 144 294 229 381 437 64 154
55 146 105 89 24 -28 58 -76 75 -108z"/>
<path d="M743 2594 c-33 -16 -63 -66 -63 -103 0 -34 26 -87 51 -105 13 -9 66
-44 118 -78 167 -108 254 -215 255 -311 0 -81 -56 -112 -132 -73 -45 23 -126
118 -172 201 -23 41 -51 82 -63 90 -80 56 -197 -6 -197 -104 0 -70 138 -269
241 -348 222 -171 475 -115 552 122 39 118 29 227 -30 339 -58 108 -235 260
-408 350 -76 40 -104 43 -152 20z"/>
<path d="M4238 2210 c-67 -20 -138 -105 -138 -165 0 -24 -3 -26 -22 -20 -13 4
-48 10 -80 12 -77 6 -137 -20 -175 -78 -25 -38 -28 -51 -26 -118 2 -100 72
-378 108 -433 26 -39 108 -88 148 -88 10 0 35 -12 54 -27 33 -25 45 -28 117
-28 74 0 85 3 122 30 53 38 89 95 111 176 24 91 24 516 0 600 -20 66 -73 121
-134 138 -43 12 -48 12 -85 1z"/>
</g>
</svg>
