<?xml version="1.0" standalone="no"?>
<!DOCTYPE svg PUBLIC "-//W3C//DTD SVG 20010904//EN"
 "http://www.w3.org/TR/2001/REC-SVG-20010904/DTD/svg10.dtd">
<svg version="1.0" xmlns="http://www.w3.org/2000/svg"
 width="600.000000pt" height="600.000000pt" viewBox="0 0 600.000000 600.000000"
 preserveAspectRatio="xMidYMid meet">
<metadata>
Created by potrace 1.15, written by Peter Selinger 2001-2017
</metadata>
<g transform="translate(0.000000,600.000000) scale(0.100000,-0.100000)"
fill="#16364b" stroke="none">
<path d="M3095 5645 c-47 -23 -75 -73 -75 -131 0 -110 144 -279 355 -418 66
-43 135 -92 152 -109 l33 -31 -23 -24 c-37 -40 -106 -86 -242 -162 -71 -39
-161 -93 -200 -119 -38 -26 -118 -71 -177 -100 -156 -76 -237 -161 -253 -267
-9 -54 27 -121 81 -151 55 -32 157 -32 205 0 42 28 82 102 74 139 -6 24 -2 28
48 46 29 11 71 24 93 28 52 9 88 28 110 58 11 13 64 48 119 77 210 111 356
230 416 341 31 57 34 71 34 143 0 59 -5 91 -20 120 -31 64 -131 154 -255 230
-139 85 -218 157 -270 244 -21 37 -52 74 -68 84 -37 21 -97 22 -137 2z"/>
<path d="M1205 5377 c-122 -49 -256 -166 -318 -278 -119 -214 -138 -459 -51
-657 35 -79 62 -112 112 -134 54 -24 98 -18 143 19 64 54 74 127 33 226 -51
121 -49 241 5 351 37 75 94 133 180 184 79 46 104 86 98 155 -9 102 -112 171
-202 134z"/>
<path d="M1704 5280 c-40 -9 -72 -32 -95 -67 -24 -35 -26 -129 -4 -160 14 -20
11 -30 -46 -140 -74 -145 -89 -214 -65 -297 34 -117 135 -196 259 -204 65 -4
278 30 332 53 65 27 110 112 95 178 -22 102 -111 146 -242 121 -40 -8 -85 -14
-100 -14 l-28 0 31 58 c109 201 128 260 109 333 -16 58 -44 96 -88 118 -44 22
-115 31 -158 21z"/>
<path d="M4600 4678 c-73 -20 -117 -91 -107 -173 9 -81 71 -134 159 -136 76
-1 89 -15 20 -21 -72 -7 -118 -31 -149 -78 -44 -65 -21 -160 48 -196 27 -13
52 -15 133 -11 173 9 294 54 381 141 78 78 95 168 51 261 -57 120 -193 193
-388 210 -40 3 -82 8 -93 9 -11 2 -36 -1 -55 -6z"/>
<path d="M1898 4270 c-184 -33 -436 -175 -475 -268 -40 -97 37 -212 143 -212
57 0 84 11 148 64 90 73 170 107 274 115 126 11 172 50 172 148 0 56 -33 114
-79 138 -37 19 -123 26 -183 15z"/>
<path d="M3975 3726 c-53 -25 -80 -50 -114 -106 -30 -50 -29 -148 3 -215 52
-113 187 -203 317 -213 94 -6 149 11 210 66 109 98 130 224 50 296 -12 11 -21
28 -21 38 0 63 -65 121 -159 142 -107 24 -225 21 -286 -8z"/>
<path d="M2570 3728 c-152 -32 -274 -82 -304 -125 -28 -39 -34 -127 -11 -170
23 -41 72 -73 114 -73 18 0 85 18 150 40 65 22 136 40 160 40 l43 0 -7 -37
c-8 -42 -81 -209 -133 -303 -55 -98 -119 -196 -186 -284 -119 -153 -115 -147
-116 -202 0 -92 65 -159 155 -159 l54 0 -47 -24 c-62 -31 -91 -58 -113 -106
-57 -123 29 -272 164 -283 48 -3 64 2 197 66 138 66 249 112 270 112 6 0 10
-6 10 -14 0 -25 -100 -279 -152 -386 -42 -87 -51 -115 -52 -162 -1 -48 4 -64
29 -100 62 -89 177 -113 264 -55 33 22 51 50 119 184 227 449 259 685 112 833
-135 134 -371 128 -687 -16 -42 -19 -77 -34 -79 -34 -3 0 29 39 69 88 106 125
203 256 242 326 64 115 163 390 185 514 19 109 -25 226 -108 283 -79 54 -220
73 -342 47z"/>
<path d="M1162 3579 c-71 -12 -177 -58 -282 -122 -104 -64 -134 -109 -135
-199 0 -47 6 -64 30 -100 54 -77 150 -107 232 -73 19 8 37 15 38 15 1 0 -17
-62 -40 -137 -96 -309 -218 -731 -229 -795 -20 -112 66 -209 197 -224 107 -13
131 1 257 146 36 41 84 98 106 125 174 215 436 525 444 525 20 0 6 -95 -69
-481 -86 -441 -109 -680 -72 -749 30 -57 76 -83 139 -78 101 9 142 63 153 207
4 53 21 161 38 241 16 80 41 199 55 265 49 232 68 392 73 601 6 227 -2 287
-48 358 -57 90 -172 111 -277 50 -76 -44 -233 -209 -425 -445 l-28 -34 6 30
c4 17 29 89 57 160 104 270 121 332 122 430 0 75 -4 98 -23 138 -31 62 -101
123 -164 142 -56 16 -76 17 -155 4z"/>
<path d="M3563 3280 c-115 -46 -211 -177 -235 -323 -14 -84 -2 -129 46 -176
61 -59 143 -59 212 1 27 24 50 33 94 39 144 20 254 95 278 191 26 102 -30 207
-141 265 -51 27 -189 28 -254 3z"/>
<path d="M4680 3044 c-91 -57 -93 -181 -4 -373 25 -54 34 -88 34 -126 0 -66
28 -110 90 -141 121 -62 242 2 242 127 0 40 -12 75 -71 197 -39 82 -71 159
-71 172 0 46 -24 102 -57 130 -28 25 -42 30 -86 30 -29 0 -63 -7 -77 -16z"/>
<path d="M4435 2296 c-91 -47 -130 -133 -119 -265 6 -77 5 -84 -10 -78 -148
57 -393 71 -499 29 -80 -33 -169 -117 -206 -196 -56 -117 -74 -293 -50 -504
16 -145 53 -212 147 -269 40 -24 58 -28 124 -28 69 0 80 3 120 30 23 17 54 51
68 75 25 45 25 47 22 253 l-4 209 24 -7 c12 -4 59 -21 103 -37 121 -44 134
-46 252 -38 123 8 174 27 247 92 83 72 145 238 146 387 0 79 -18 186 -37 226
-40 81 -123 135 -218 142 -50 4 -68 0 -110 -21z"/>
<path d="M2145 1848 c-68 -37 -105 -103 -105 -185 0 -162 46 -457 96 -616 62
-196 163 -316 340 -404 145 -72 255 -70 328 6 l28 29 126 -65 c209 -105 330
-116 485 -43 123 58 177 125 177 220 0 113 -78 190 -193 190 -43 0 -64 -7
-112 -36 -72 -43 -72 -43 -225 38 -97 52 -131 76 -214 157 -54 53 -109 113
-122 133 -49 76 -166 104 -251 60 -39 -20 -42 -20 -47 -4 -11 39 -17 84 -30
230 -18 183 -34 225 -103 271 -38 26 -56 31 -102 31 -31 0 -65 -6 -76 -12z"/>
</g>
</svg>
