<?xml version="1.0" standalone="no"?>
<!DOCTYPE svg PUBLIC "-//W3C//DTD SVG 20010904//EN"
 "http://www.w3.org/TR/2001/REC-SVG-20010904/DTD/svg10.dtd">
<svg version="1.0" xmlns="http://www.w3.org/2000/svg"
 width="600.000000pt" height="600.000000pt" viewBox="0 0 600.000000 600.000000"
 preserveAspectRatio="xMidYMid meet">
<metadata>
Created by potrace 1.15, written by Peter Selinger 2001-2017
</metadata>
<g transform="translate(0.000000,600.000000) scale(0.100000,-0.100000)"
fill="#16364b" stroke="none">
<path d="M2212 5430 c-43 -26 -68 -70 -87 -152 -26 -116 -14 -192 40 -264 57
-75 206 -110 364 -85 40 6 76 10 78 7 3 -2 -38 -87 -90 -188 -89 -171 -167
-349 -182 -417 -15 -70 42 -160 113 -176 43 -9 103 10 134 42 15 16 43 67 62
115 41 102 71 163 177 358 95 175 119 242 119 327 0 97 -43 168 -131 215 -39
20 -58 23 -159 23 -63 0 -145 -4 -183 -9 l-67 -8 10 26 c48 128 -86 254 -198
186z"/>
<path d="M3808 5189 c-76 -11 -177 -58 -211 -98 -36 -44 -39 -131 -4 -182 46
-69 112 -82 208 -40 113 49 143 36 141 -60 -2 -78 -22 -156 -68 -269 -19 -47
-40 -100 -45 -117 -15 -48 4 -105 46 -142 30 -26 44 -31 87 -31 80 0 111 25
162 134 120 251 145 464 72 621 -63 136 -218 210 -388 184z"/>
<path d="M1740 4900 c-282 -50 -505 -143 -560 -232 -40 -66 -18 -170 46 -211
23 -16 36 -34 43 -64 14 -53 49 -95 98 -115 21 -9 115 -33 208 -54 201 -44
285 -71 370 -119 100 -56 191 -43 242 34 29 44 31 122 4 167 -38 63 -153 138
-260 170 -39 11 -283 64 -297 64 -2 0 -4 4 -4 9 0 15 169 64 247 71 91 9 146
42 174 103 24 54 24 92 -1 132 -41 66 -123 78 -310 45z"/>
<path d="M3130 4325 c-295 -81 -585 -176 -635 -209 -89 -58 -83 -196 9 -240
54 -25 91 -20 254 39 184 65 261 87 457 131 136 31 152 37 184 68 65 66 50
185 -30 228 -47 25 -95 22 -239 -17z"/>
<path d="M4445 4283 c-131 -9 -219 -24 -250 -43 -92 -57 -80 -197 21 -245 30
-14 52 -16 118 -10 127 10 301 8 323 -4 44 -23 37 -107 -24 -313 -45 -155 -50
-190 -29 -236 44 -97 181 -111 241 -25 20 28 101 351 115 456 27 203 -39 333
-197 389 -53 18 -201 40 -248 36 -11 -1 -42 -3 -70 -5z"/>
<path d="M2115 3875 c-102 -33 -250 -56 -411 -64 -110 -5 -146 -10 -168 -24
-90 -59 -87 -201 5 -266 33 -22 39 -23 174 -18 159 7 316 36 491 92 96 30 117
40 147 74 45 50 54 93 32 149 -34 84 -128 104 -270 57z"/>
<path d="M3647 3720 c-102 -35 -291 -119 -432 -193 -125 -66 -149 -95 -143
-180 5 -64 26 -101 77 -131 62 -36 94 -27 295 83 102 55 190 101 196 101 5 0
-2 -26 -16 -57 -55 -121 -67 -166 -55 -210 7 -26 25 -53 46 -72 29 -25 44 -31
84 -31 82 0 105 24 183 190 92 197 112 260 112 342 -1 168 -136 229 -347 158z"/>
<path d="M2138 3270 c-117 -9 -156 -29 -189 -96 -35 -74 -15 -157 49 -201 24
-16 43 -17 172 -13 186 6 277 6 285 -1 3 -3 -2 -25 -10 -49 -33 -93 -8 -162
71 -201 54 -25 117 -21 169 11 44 27 62 57 81 132 44 170 -18 329 -154 395
-54 26 -65 27 -217 29 -88 1 -204 -1 -257 -6z"/>
<path d="M4895 3222 c-89 -42 -155 -161 -140 -252 12 -73 8 -130 -12 -152 -10
-11 -74 -68 -142 -126 -167 -142 -226 -233 -279 -427 -11 -41 -16 -103 -17
-195 0 -117 3 -144 24 -200 32 -89 67 -139 124 -174 56 -34 135 -45 192 -26
48 16 111 73 137 124 29 56 28 147 -2 206 -27 52 -23 110 10 189 22 50 49 78
217 228 147 131 221 276 231 448 6 127 -12 225 -52 277 -63 84 -202 122 -291
80z"/>
<path d="M4241 3169 c-13 -5 -49 -32 -80 -61 -77 -70 -201 -150 -327 -210 -92
-43 -153 -62 -315 -100 -106 -24 -152 -143 -93 -235 48 -73 113 -87 256 -58
216 45 442 161 652 335 99 82 130 127 130 191 0 55 -20 90 -74 127 -35 24
-104 29 -149 11z"/>
<path d="M1236 3026 c-80 -30 -129 -100 -130 -186 0 -65 21 -112 69 -155 l34
-30 40 -280 c22 -154 45 -324 51 -378 22 -189 63 -297 130 -346 82 -59 161
-54 227 15 64 66 83 174 49 272 -21 59 -42 193 -61 397 -40 429 -71 546 -164
632 -64 60 -171 86 -245 59z"/>
<path d="M2065 2577 c-78 -26 -128 -59 -204 -135 -160 -159 -203 -261 -148
-355 30 -50 68 -70 132 -69 60 0 96 22 154 95 58 74 125 137 145 137 7 0 21
-18 31 -41 10 -22 30 -49 44 -60 22 -18 24 -23 14 -47 -85 -205 -103 -279
-103 -415 0 -126 23 -259 51 -298 25 -35 89 -68 133 -69 54 0 113 37 137 87
22 45 22 46 5 137 -30 171 -17 286 46 411 47 90 42 155 -15 208 -30 28 -32 34
-29 87 7 111 -91 263 -200 310 -63 27 -141 34 -193 17z"/>
<path d="M3450 2204 c-112 -15 -624 -118 -676 -134 -39 -13 -90 -63 -116 -114
-43 -84 -2 -193 89 -237 78 -39 122 -33 665 85 64 14 149 29 188 32 l71 7 31
-38 c122 -147 351 -63 352 130 0 115 -74 221 -182 261 -65 23 -283 28 -422 8z"/>
<path d="M4533 1569 c-18 -5 -55 -32 -83 -60 -73 -73 -97 -80 -300 -90 -273
-14 -382 -38 -545 -120 -145 -72 -366 -244 -401 -311 -8 -15 -20 -28 -27 -28
-37 0 -92 -26 -136 -63 -143 -122 -266 -123 -451 -3 -77 50 -194 157 -233 213
-72 103 -202 128 -288 56 -57 -49 -76 -142 -44 -219 32 -76 204 -262 325 -351
258 -189 556 -226 799 -98 81 43 172 121 194 168 14 29 24 35 71 46 45 10 63
21 103 63 73 77 186 164 256 197 93 44 169 59 390 76 109 9 221 20 250 26 126
27 284 129 341 223 42 68 42 138 1 197 -49 70 -143 103 -222 78z"/>
</g>
</svg>
