<?xml version="1.0" standalone="no"?>
<!DOCTYPE svg PUBLIC "-//W3C//DTD SVG 20010904//EN"
 "http://www.w3.org/TR/2001/REC-SVG-20010904/DTD/svg10.dtd">
<svg version="1.0" xmlns="http://www.w3.org/2000/svg"
 width="600.000000pt" height="600.000000pt" viewBox="0 0 600.000000 600.000000"
 preserveAspectRatio="xMidYMid meet">
<metadata>
Created by potrace 1.15, written by Peter Selinger 2001-2017
</metadata>
<g transform="translate(0.000000,600.000000) scale(0.100000,-0.100000)"
fill="#16364b" stroke="none">
<path d="M3099 5617 c-40 -27 -105 -143 -145 -262 -62 -187 -17 -311 137 -379
57 -25 196 -56 250 -56 52 0 39 -17 -54 -65 -50 -27 -137 -79 -192 -116 -112
-76 -325 -254 -352 -296 -25 -38 -24 -120 2 -154 11 -15 48 -45 82 -68 101
-68 231 -121 538 -221 88 -29 184 -63 214 -76 64 -29 105 -30 151 -5 74 39
104 152 58 222 -30 45 -101 78 -268 123 -212 58 -373 110 -377 122 -7 21 135
114 500 328 120 70 165 109 188 161 58 128 -33 250 -231 309 -30 9 -113 23
-185 31 -182 21 -179 20 -171 56 3 17 22 66 41 110 39 90 43 128 17 179 -38
76 -134 103 -203 57z"/>
<path d="M1465 5395 c-215 -115 -440 -427 -555 -770 -45 -135 -51 -208 -23
-256 18 -30 84 -69 117 -69 10 0 82 18 160 40 199 56 406 94 406 75 0 -3 -44
-79 -97 -168 -53 -89 -117 -205 -142 -257 -44 -92 -45 -97 -43 -183 2 -122 33
-171 122 -198 50 -15 74 -7 295 102 349 171 415 240 354 365 -45 93 -135 112
-239 51 -34 -20 -63 -37 -66 -37 -2 0 23 54 56 119 162 323 105 507 -165 528
-66 5 -253 -20 -342 -46 -22 -6 -33 -6 -33 1 0 15 106 175 165 248 61 76 146
160 194 192 40 27 71 81 71 123 -1 45 -34 109 -70 135 -49 35 -105 37 -165 5z"/>
<path d="M4630 4481 c-129 -28 -400 -128 -433 -159 -72 -68 -55 -192 33 -237
48 -25 105 -18 246 31 74 26 138 44 141 40 13 -13 -113 -244 -265 -484 -51
-80 -66 -114 -70 -151 -6 -62 18 -113 67 -143 20 -12 44 -32 54 -44 20 -26 54
-39 240 -94 176 -52 247 -79 247 -93 0 -6 -60 -101 -134 -211 -159 -237 -186
-287 -186 -336 0 -78 77 -145 157 -137 56 6 89 29 121 83 15 25 88 138 163
252 75 114 146 229 158 256 42 97 38 196 -13 265 -56 76 -143 119 -384 190
-74 22 -135 41 -138 43 -2 2 38 69 88 148 233 372 293 599 191 720 -60 71
-149 91 -283 61z"/>
<path d="M3775 3651 c-41 -25 -60 -49 -73 -91 -29 -91 58 -224 155 -237 24 -3
44 -14 56 -29 17 -23 17 -26 1 -72 l-17 -47 -76 -2 c-132 -3 -246 -56 -343
-161 -68 -76 -103 -150 -94 -205 10 -59 41 -103 91 -127 79 -38 147 -9 205 85
47 77 90 108 139 98 74 -14 164 -9 206 12 54 27 88 79 82 126 -5 35 -3 37 34
48 108 33 153 225 86 364 -27 54 -116 150 -177 190 -99 66 -214 86 -275 48z"/>
<path d="M2495 3605 c-144 -31 -342 -127 -381 -184 -48 -71 -24 -176 51 -218
52 -29 90 -29 145 2 109 62 239 115 283 115 14 0 17 -9 17 -54 0 -109 -99
-362 -240 -616 -48 -85 -60 -116 -60 -151 0 -67 27 -102 111 -144 111 -55 131
-55 290 4 139 51 266 88 275 79 8 -9 -45 -147 -109 -283 -54 -114 -62 -137
-62 -191 0 -49 5 -68 28 -102 57 -86 164 -106 250 -46 37 25 54 52 134 214
179 359 205 527 103 676 -34 48 -106 97 -170 114 -62 17 -199 15 -294 -5 -43
-9 -80 -14 -82 -12 -2 2 11 38 30 79 71 157 115 349 102 446 -12 93 -36 144
-96 204 -85 84 -178 106 -325 73z"/>
<path d="M1115 3386 c-90 -28 -234 -120 -327 -207 -161 -152 6 -392 210 -299
31 14 42 16 42 6 0 -7 -18 -78 -40 -158 -77 -281 -95 -395 -106 -672 -7 -154
-6 -166 14 -207 12 -24 37 -54 55 -67 39 -26 162 -62 209 -62 71 1 134 61 237
224 29 44 78 122 109 171 64 101 238 357 289 424 l33 44 14 -34 c17 -40 12
-99 -28 -334 -14 -82 -30 -197 -36 -255 -5 -58 -15 -143 -20 -190 -30 -259
-31 -272 -21 -321 14 -62 31 -96 68 -131 56 -54 145 -65 204 -25 81 54 102
142 54 226 -16 27 -25 59 -25 85 0 78 31 311 66 488 49 257 67 408 60 503 -13
164 -25 271 -35 306 -28 94 -113 159 -207 159 -130 0 -240 -108 -443 -434 -33
-54 -80 -124 -103 -156 -42 -58 -67 -77 -53 -42 41 108 135 572 135 671 0 178
-104 302 -254 300 -33 0 -79 -6 -101 -13z"/>
<path d="M4705 2211 c-82 -21 -158 -94 -177 -168 -12 -49 -9 -49 -128 -27
-135 24 -278 20 -385 -11 -119 -35 -194 -76 -255 -141 -79 -83 -106 -159 -137
-383 l-8 -54 -55 47 c-213 182 -470 163 -671 -51 -47 -49 -129 -161 -129 -176
0 -2 -14 -35 -31 -73 -38 -83 -37 -84 -74 114 -48 260 -95 384 -167 447 -96
81 -241 51 -283 -60 -22 -57 -16 -110 25 -196 37 -80 62 -200 89 -429 33 -275
77 -398 175 -488 69 -63 139 -86 256 -86 68 0 93 4 127 22 65 34 88 74 102
178 16 113 156 412 234 500 48 55 46 56 194 -87 62 -59 131 -122 154 -138 93
-68 217 -90 318 -56 54 18 133 81 156 125 27 53 44 157 55 337 6 101 13 190
16 198 9 22 117 19 260 -7 163 -29 309 -29 384 1 167 68 256 202 254 386 0
105 -14 153 -57 201 -56 64 -160 97 -242 75z"/>
</g>
</svg>
