<?xml version="1.0" standalone="no"?>
<!DOCTYPE svg PUBLIC "-//W3C//DTD SVG 20010904//EN"
 "http://www.w3.org/TR/2001/REC-SVG-20010904/DTD/svg10.dtd">
<svg version="1.0" xmlns="http://www.w3.org/2000/svg"
 width="600.000000pt" height="600.000000pt" viewBox="0 0 600.000000 600.000000"
 preserveAspectRatio="xMidYMid meet">
<metadata>
Created by potrace 1.15, written by Peter Selinger 2001-2017
</metadata>
<g transform="translate(0.000000,600.000000) scale(0.100000,-0.100000)"
fill="#16364b" stroke="none">
<path d="M2037 5106 c-99 -27 -184 -113 -213 -213 -17 -59 -16 -99 5 -288 24
-222 52 -1664 35 -1867 l-7 -88 -86 -62 c-91 -66 -244 -189 -374 -300 -68 -59
-81 -66 -98 -55 -24 15 -51 -5 -31 -25 20 -20 14 -24 -27 -20 -48 5 -60 -12
-32 -42 27 -29 26 -34 -5 -46 -37 -14 -28 -45 13 -46 42 0 47 -7 24 -28 -20
-18 -18 -46 2 -46 18 0 157 91 158 103 1 11 76 80 224 204 85 71 206 154 216
147 5 -3 9 -27 9 -53 0 -89 40 -505 57 -586 17 -88 63 -208 101 -270 42 -66
143 -165 212 -205 70 -42 231 -100 276 -100 46 0 54 -10 44 -55 -15 -62 -12
-214 5 -304 9 -45 36 -144 60 -220 25 -76 45 -144 45 -150 0 -7 -21 -11 -55
-11 -127 0 -205 -41 -205 -109 0 -144 324 -130 400 19 28 54 25 111 -10 211
-76 219 -103 395 -81 528 6 35 13 66 15 69 7 6 15 6 326 -9 146 -8 356 -14
466 -14 l202 0 -5 -115 c-5 -97 -1 -138 22 -264 15 -81 36 -178 46 -215 32
-111 32 -111 -56 -111 -86 0 -132 -16 -163 -55 -31 -39 -28 -80 6 -115 52 -52
165 -50 280 6 60 29 95 71 112 132 10 38 8 54 -14 130 -65 227 -94 433 -77
539 7 38 15 73 19 79 4 5 95 25 202 43 313 52 365 73 479 198 65 70 129 189
156 288 25 88 31 336 12 445 -33 189 -106 320 -277 489 -117 117 -122 124 -90
118 19 -3 130 -13 245 -22 116 -9 220 -21 232 -27 25 -13 137 13 170 38 17 13
17 15 1 27 -13 10 -14 17 -6 25 6 6 7 18 3 29 -5 10 -7 26 -6 36 2 17 -3 18
-53 12 -52 -7 -56 -6 -56 13 0 22 -22 42 -27 25 -2 -6 -9 -17 -16 -26 -11 -15
-27 -15 -177 -2 -91 8 -214 22 -275 30 -60 8 -161 19 -223 25 l-113 12 -126
81 c-292 191 -685 455 -771 520 -102 76 -200 182 -304 328 -101 142 -160 263
-223 459 -177 550 -182 562 -268 650 -93 94 -224 136 -330 106z m190 -183 c77
-61 109 -131 218 -478 85 -269 104 -324 150 -420 81 -170 274 -432 388 -526
34 -29 208 -149 387 -267 549 -362 724 -483 865 -597 267 -215 339 -342 352
-620 10 -210 -36 -373 -136 -486 -60 -69 -115 -93 -301 -132 -308 -66 -553
-82 -854 -58 -67 6 -256 13 -421 16 -339 7 -414 17 -520 69 -87 43 -142 90
-189 161 -76 114 -102 219 -137 550 -18 181 -20 236 -13 400 11 255 10 516 -4
1235 -11 602 -23 869 -42 966 -18 87 10 165 73 205 49 31 135 23 184 -18z
m-907 -2803 c0 -5 -2 -10 -4 -10 -3 0 -8 5 -11 10 -3 6 -1 10 4 10 6 0 11 -4
11 -10z"/>
<path d="M2650 2750 c-27 -27 -25 -56 6 -85 34 -31 64 -32 92 -2 26 27 29 69
6 91 -22 23 -80 20 -104 -4z"/>
<path d="M3096 2654 c-22 -22 -20 -70 4 -94 31 -31 66 -30 92 3 23 29 23 70 0
90 -23 21 -76 22 -96 1z"/>
<path d="M2980 1760 c-11 -11 -20 -26 -20 -34 0 -18 27 -46 45 -46 27 0 64 19
75 39 8 17 7 24 -10 41 -26 26 -64 26 -90 0z"/>
<path d="M5217 3976 c-146 -40 -218 -174 -188 -351 22 -128 91 -238 176 -276
51 -23 153 -25 226 -3 127 38 212 104 256 201 22 47 25 65 21 127 -9 126 -70
218 -186 279 -66 35 -75 37 -163 36 -52 0 -116 -6 -142 -13z m180 -300 c12
-11 -7 -36 -33 -42 -20 -5 -31 -2 -41 11 -25 35 -17 48 28 42 22 -3 43 -8 46
-11z"/>
<path d="M5350 1107 c-49 -24 -88 -149 -70 -218 19 -70 93 -98 156 -60 45 28
67 82 68 169 1 69 -1 75 -27 98 -32 27 -86 32 -127 11z"/>
</g>
</svg>
