<?xml version="1.0" standalone="no"?>
<!DOCTYPE svg PUBLIC "-//W3C//DTD SVG 20010904//EN"
 "http://www.w3.org/TR/2001/REC-SVG-20010904/DTD/svg10.dtd">
<svg version="1.0" xmlns="http://www.w3.org/2000/svg"
 width="600.000000pt" height="600.000000pt" viewBox="0 0 600.000000 600.000000"
 preserveAspectRatio="xMidYMid meet">
<metadata>
Created by potrace 1.15, written by Peter Selinger 2001-2017
</metadata>
<g transform="translate(0.000000,600.000000) scale(0.100000,-0.100000)"
fill="#16364b" stroke="none">
<path d="M1544 5781 c-44 -19 -70 -67 -102 -187 -87 -332 -88 -501 -5 -567 64
-52 105 -59 188 -31 61 21 174 127 242 227 103 151 183 294 183 328 0 73 -70
136 -138 125 -45 -7 -66 -27 -115 -111 -58 -100 -138 -218 -144 -211 -3 2 12
73 33 157 35 143 37 154 23 192 -8 22 -26 49 -40 59 -30 22 -94 32 -125 19z"/>
<path d="M880 5534 c-218 -60 -367 -313 -305 -521 33 -111 132 -213 207 -213
34 0 47 7 79 39 36 35 39 43 39 93 0 51 -3 56 -45 98 -37 37 -45 50 -45 81 0
21 4 49 9 62 16 42 71 96 110 108 32 9 44 8 84 -10 57 -26 93 -27 133 -2 93
57 57 185 -69 245 -69 33 -129 39 -197 20z"/>
<path d="M3423 5409 c-17 -5 -43 -24 -58 -41 -22 -26 -26 -39 -22 -71 6 -42
35 -80 80 -104 25 -12 28 -18 21 -41 -4 -15 -7 -40 -6 -55 3 -72 118 -214 206
-257 64 -30 153 -25 192 11 76 71 70 152 -21 293 -73 114 -166 195 -288 252
-57 26 -58 26 -104 13z"/>
<path d="M2354 5293 c-12 -2 -34 -18 -50 -34 -29 -30 -29 -30 -35 -197 -5
-134 -11 -179 -28 -226 -41 -114 -86 -163 -204 -222 -40 -20 -82 -45 -94 -57
-77 -70 -32 -197 69 -197 45 0 172 59 250 117 104 76 181 195 220 342 29 108
38 364 14 409 -26 50 -85 77 -142 65z"/>
<path d="M2969 5166 c-58 -20 -99 -55 -139 -117 -47 -73 -64 -132 -58 -208 5
-76 36 -123 102 -156 61 -30 137 -33 213 -6 127 44 158 93 151 243 -5 102 -23
151 -75 200 -56 54 -124 69 -194 44z"/>
<path d="M4739 4771 c-36 -36 -39 -43 -40 -97 -8 -339 41 -501 177 -591 47
-31 64 -37 127 -40 65 -4 78 -2 127 24 92 48 140 137 140 260 0 73 -20 139
-64 208 -85 132 -284 275 -384 275 -38 0 -50 -5 -83 -39z m256 -401 c22 -43
18 -61 -5 -20 -11 19 -19 38 -20 43 0 15 10 6 25 -23z"/>
<path d="M2723 4190 c-87 -18 -167 -80 -199 -156 -22 -52 -17 -131 10 -189 30
-63 66 -97 139 -130 71 -33 181 -37 273 -10 84 24 220 97 281 150 68 60 84
105 59 170 -23 60 -52 80 -165 115 -170 53 -300 69 -398 50z"/>
<path d="M1040 4063 c-39 -22 -80 -91 -80 -136 0 -44 40 -107 80 -127 19 -9
62 -21 95 -24 55 -7 129 -21 164 -32 10 -3 11 -7 1 -19 -40 -49 -303 -189
-430 -230 -34 -11 -69 -32 -91 -54 -109 -109 -5 -296 139 -253 49 15 411 200
437 223 16 15 22 10 29 -23 15 -76 91 -131 176 -127 43 2 54 -2 102 -39 30
-23 74 -48 97 -57 87 -30 207 -11 253 41 10 11 27 42 39 69 25 57 23 149 -5
204 -46 89 -138 153 -240 169 -52 8 -156 0 -179 -15 -11 -7 -8 8 17 72 45 118
-19 233 -164 297 -73 32 -228 68 -320 74 -72 5 -91 3 -120 -13z"/>
<path d="M4219 3780 c-65 -11 -139 -52 -192 -105 -148 -150 -122 -363 54 -460
45 -24 69 -30 140 -33 128 -6 202 21 285 102 73 72 104 142 112 253 5 85 -6
120 -54 163 -62 54 -246 97 -345 80z m41 -305 c-26 -28 -50 -33 -50 -10 0 15
31 33 59 34 10 1 7 -7 -9 -24z"/>
<path d="M5136 3486 c-115 -49 -210 -129 -259 -221 -18 -33 -22 -57 -22 -140
0 -119 20 -171 91 -240 59 -57 117 -80 190 -72 154 16 283 149 316 326 10 51
9 70 -6 122 -18 67 -37 99 -100 169 -53 60 -66 68 -112 75 -28 4 -55 -1 -98
-19z"/>
<path d="M3415 3387 c-46 -21 -86 -73 -144 -186 -72 -140 -69 -191 12 -242 62
-39 200 -7 258 59 42 48 77 124 85 188 12 98 -50 182 -139 190 -23 3 -56 -2
-72 -9z"/>
<path d="M2476 3219 c-64 -15 -155 -70 -201 -121 -48 -54 -99 -151 -147 -278
-26 -70 -41 -95 -87 -140 -31 -31 -92 -77 -136 -102 -200 -116 -347 -271 -430
-452 -82 -181 -129 -380 -129 -551 0 -141 20 -218 90 -356 76 -147 187 -251
359 -336 163 -81 284 -108 453 -100 186 8 389 71 526 162 121 80 243 232 300
375 85 211 156 598 156 853 0 263 -46 421 -190 657 -90 148 -118 186 -180 248
-123 123 -254 171 -384 141z m129 -431 c21 -24 46 -63 57 -87 10 -25 41 -75
68 -111 103 -139 144 -275 143 -475 -1 -134 -13 -202 -73 -401 -48 -161 -84
-240 -144 -322 -76 -103 -222 -197 -345 -223 -223 -46 -477 81 -550 276 -46
122 -19 330 63 500 58 119 130 197 249 271 161 99 170 107 252 189 87 87 126
150 173 285 36 103 53 140 63 140 4 0 24 -19 44 -42z"/>
<path d="M638 2504 c-37 -20 -58 -63 -58 -120 0 -39 5 -51 33 -77 18 -18 62
-48 96 -67 153 -85 285 -220 312 -321 26 -98 -14 -126 -93 -66 -60 46 -111
117 -164 227 -26 52 -53 110 -62 128 -63 133 -268 37 -222 -104 64 -196 252
-439 389 -502 228 -105 441 62 401 314 -31 193 -148 353 -365 496 -163 108
-209 124 -267 92z"/>
<path d="M4260 2132 c-30 -15 -72 -62 -82 -94 -3 -7 -14 -6 -33 4 -106 53
-223 7 -256 -100 -10 -36 -9 -61 9 -174 12 -73 26 -171 33 -217 12 -96 27
-132 65 -158 15 -10 46 -37 69 -60 64 -63 96 -76 175 -71 53 3 76 10 109 31
82 55 114 144 135 384 22 242 23 341 4 378 -45 86 -145 119 -228 77z"/>
</g>
</svg>
