<?xml version="1.0" standalone="no"?>
<!DOCTYPE svg PUBLIC "-//W3C//DTD SVG 20010904//EN"
 "http://www.w3.org/TR/2001/REC-SVG-20010904/DTD/svg10.dtd">
<svg version="1.0" xmlns="http://www.w3.org/2000/svg"
 width="600.000000pt" height="600.000000pt" viewBox="0 0 600.000000 600.000000"
 preserveAspectRatio="xMidYMid meet">
<metadata>
Created by potrace 1.15, written by Peter Selinger 2001-2017
</metadata>
<g transform="translate(0.000000,600.000000) scale(0.100000,-0.100000)"
fill="#16364b" stroke="none">
<path d="M1464 5726 c-147 -117 -281 -244 -298 -281 -23 -48 -14 -99 25 -138
29 -28 33 -29 92 -24 34 3 132 28 217 55 85 28 189 60 230 71 88 24 110 45
110 105 0 77 -60 123 -136 106 -56 -13 -59 -12 -39 10 11 12 18 35 18 62 0 34
-6 47 -32 70 -53 48 -92 40 -187 -36z"/>
<path d="M2393 5411 c-17 -11 -36 -28 -41 -38 -5 -10 -12 -81 -16 -158 -10
-244 -46 -402 -111 -502 -40 -61 -76 -89 -182 -146 -60 -32 -82 -50 -95 -77
-34 -68 15 -150 88 -150 71 0 250 103 322 185 123 140 189 401 180 717 -3 121
-4 129 -28 153 -35 35 -77 40 -117 16z"/>
<path d="M3510 5302 c-22 -10 -42 -32 -54 -56 -18 -37 -18 -41 -2 -92 34 -107
148 -228 240 -254 58 -16 91 -7 133 35 59 59 43 147 -47 259 -49 60 -98 93
-166 111 -71 18 -62 19 -104 -3z"/>
<path d="M2978 5140 c-46 -25 -78 -66 -119 -155 -42 -89 -52 -209 -21 -264 25
-46 76 -74 122 -66 47 9 121 50 169 94 72 66 103 236 61 328 -35 78 -130 106
-212 63z"/>
<path d="M4767 4760 c-40 -32 -49 -77 -51 -264 -1 -151 2 -179 21 -241 78
-247 369 -274 438 -41 40 133 -9 273 -145 419 -98 106 -154 147 -200 147 -22
0 -48 -8 -63 -20z"/>
<path d="M2710 4216 c-134 -30 -230 -125 -230 -228 0 -49 43 -131 83 -162 149
-114 383 -87 549 62 57 52 78 88 78 136 0 85 -38 122 -161 159 -96 28 -195 47
-239 46 -14 0 -50 -6 -80 -13z"/>
<path d="M1122 4110 c-76 -18 -120 -100 -89 -166 21 -43 51 -62 127 -80 33 -8
78 -23 98 -33 33 -18 35 -20 17 -28 -11 -4 -58 -6 -105 -4 -207 8 -199 9 -231
-26 -51 -58 -51 -108 1 -166 33 -39 88 -55 217 -64 237 -17 398 85 397 253 -1
138 -109 250 -289 296 -91 24 -107 26 -143 18z"/>
<path d="M4171 3764 c-160 -56 -251 -202 -220 -354 32 -160 164 -272 304 -257
182 19 335 210 335 420 0 102 -35 142 -162 182 -92 29 -189 32 -257 9z m109
-294 c-9 -18 -40 -40 -54 -40 -17 0 -3 42 17 50 38 15 49 13 37 -10z"/>
<path d="M5257 3730 c-209 -36 -339 -182 -325 -364 7 -79 43 -151 103 -204 65
-57 127 -76 229 -70 168 10 271 95 294 241 18 117 -20 237 -105 328 -71 75
-99 85 -196 69z m23 -325 c0 -13 -29 -35 -44 -35 -14 0 -4 40 11 49 20 11 33
6 33 -14z"/>
<path d="M1664 3702 c-38 -6 -67 -46 -65 -94 1 -65 27 -196 50 -259 47 -125
154 -163 225 -79 77 92 46 236 -80 366 -57 59 -85 73 -130 66z"/>
<path d="M3452 3389 c-21 -6 -44 -26 -66 -57 -45 -61 -126 -248 -126 -288 0
-40 32 -81 71 -89 68 -15 189 76 240 183 30 62 38 163 15 197 -32 48 -82 68
-134 54z"/>
<path d="M2011 3055 c-35 -8 -125 -34 -200 -59 -75 -24 -179 -56 -231 -71
-244 -67 -391 -185 -465 -374 -38 -97 -58 -207 -59 -316 -1 -114 14 -184 56
-268 40 -81 85 -128 218 -226 157 -116 226 -184 340 -336 137 -183 226 -263
364 -325 203 -92 403 -83 688 31 57 23 165 56 240 75 75 18 181 50 235 70 144
53 416 194 508 262 149 110 286 271 364 428 56 113 74 189 69 300 -3 81 -8
100 -41 167 -97 195 -263 355 -424 406 -86 27 -341 75 -509 96 -71 9 -174 29
-229 45 -269 78 -410 100 -675 106 -139 3 -201 0 -249 -11z m374 -380 c139
-15 207 -29 377 -76 178 -49 287 -70 413 -79 68 -5 177 -22 253 -39 157 -36
220 -71 282 -159 33 -46 40 -63 40 -102 0 -98 -93 -232 -240 -345 -165 -127
-466 -272 -683 -330 -50 -13 -137 -44 -192 -69 -136 -62 -251 -90 -329 -82
-122 12 -184 61 -336 262 -90 119 -309 341 -403 409 -52 38 -74 62 -93 101
-47 97 -27 231 47 305 52 52 95 72 293 136 266 86 336 95 571 68z"/>
<path d="M395 2195 c-31 -30 -32 -69 -5 -127 10 -24 38 -86 60 -138 75 -173
176 -306 269 -355 84 -43 193 -25 232 39 90 147 -55 362 -374 555 -99 60 -143
66 -182 26z"/>
<path d="M4745 1664 c-16 -8 -37 -22 -46 -30 -12 -11 -22 -12 -43 -4 -73 27
-149 -5 -173 -75 -12 -35 -12 -53 1 -133 20 -116 59 -236 92 -280 33 -43 78
-64 134 -64 119 0 192 100 226 309 28 176 13 236 -69 273 -51 24 -83 25 -122
4z"/>
</g>
</svg>
