<?xml version="1.0" standalone="no"?>
<!DOCTYPE svg PUBLIC "-//W3C//DTD SVG 20010904//EN"
 "http://www.w3.org/TR/2001/REC-SVG-20010904/DTD/svg10.dtd">
<svg version="1.0" xmlns="http://www.w3.org/2000/svg"
 width="600.000000pt" height="600.000000pt" viewBox="0 0 600.000000 600.000000"
 preserveAspectRatio="xMidYMid meet">
<metadata>
Created by potrace 1.15, written by Peter Selinger 2001-2017
</metadata>
<g transform="translate(0.000000,600.000000) scale(0.100000,-0.100000)"
fill="#16364b" stroke="none">
<path d="M3022 5059 c-85 -42 -152 -157 -137 -236 8 -42 54 -93 85 -93 84 0
202 109 231 214 14 51 -10 102 -55 121 -48 20 -73 19 -124 -6z m106 -82 c7
-60 -100 -182 -153 -175 -42 6 -26 93 28 155 35 40 61 53 97 50 19 -2 26 -8
28 -30z"/>
<path d="M4771 4699 c-21 -23 -22 -35 -40 -388 -9 -184 -6 -216 22 -240 27
-22 87 -10 111 22 20 27 21 42 24 307 4 271 3 279 -17 299 -27 27 -75 27 -100
0z"/>
<path d="M1682 4429 c-52 -26 -109 -90 -122 -138 -26 -95 -8 -177 64 -281 47
-68 71 -148 107 -360 16 -96 39 -227 50 -290 16 -87 23 -186 29 -410 20 -691
40 -1006 71 -1129 40 -158 172 -368 291 -462 29 -23 80 -55 113 -70 61 -29
200 -69 239 -69 21 0 21 -3 18 -134 -5 -160 7 -227 79 -459 28 -87 48 -162 44
-165 -3 -3 -29 -5 -58 -4 -28 1 -73 -1 -100 -4 -117 -15 -148 -147 -47 -199
66 -34 208 -10 285 49 90 69 98 137 37 336 -70 229 -84 302 -84 429 0 62 4
116 9 120 4 3 225 5 489 3 l481 -3 6 -102 c5 -109 44 -296 103 -495 23 -79 30
-118 23 -123 -6 -3 -40 -9 -76 -13 -83 -9 -122 -25 -156 -65 -29 -35 -33 -57
-16 -95 26 -55 128 -65 250 -22 89 31 142 79 158 142 13 51 12 57 -40 224 -71
228 -101 426 -80 524 6 30 7 30 146 57 205 40 503 117 558 145 64 32 83 45
141 102 151 146 256 359 256 516 -1 221 -157 475 -347 563 -58 27 -95 33 -342
63 -191 23 -364 54 -420 75 -20 8 -135 48 -256 90 -373 131 -464 184 -665 392
-195 200 -377 439 -535 700 -106 175 -173 266 -294 399 -134 148 -191 183
-306 184 -42 0 -73 -6 -103 -21z m163 -148 c22 -10 56 -36 75 -58 19 -22 45
-50 57 -64 11 -13 40 -42 63 -64 52 -49 116 -143 205 -300 177 -312 295 -467
553 -728 146 -148 239 -224 343 -281 81 -44 128 -63 374 -147 110 -38 226 -78
259 -89 99 -35 407 -92 650 -120 143 -17 239 -87 306 -223 85 -174 70 -344
-46 -518 -83 -125 -164 -183 -314 -224 -452 -122 -471 -125 -820 -124 -517 2
-977 25 -1085 54 -170 45 -281 136 -360 299 -77 156 -100 293 -115 684 -5 134
-12 247 -15 253 -4 5 -10 136 -15 291 -7 219 -15 319 -35 443 -14 88 -34 227
-45 308 -32 237 -58 321 -136 435 -45 66 -53 101 -33 146 21 46 70 56 134 27z"/>
<path d="M2515 2618 c-44 -25 -46 -58 -6 -99 16 -16 36 -29 45 -29 23 0 56 41
56 69 0 32 -8 45 -37 60 -26 14 -33 13 -58 -1z"/>
<path d="M2950 2337 c-39 -20 -39 -67 1 -101 22 -19 37 -25 53 -20 51 16 62
80 20 113 -31 24 -40 25 -74 8z"/>
<path d="M5300 3984 c-14 -2 -52 -12 -85 -21 -173 -50 -234 -246 -139 -448 57
-123 156 -190 276 -188 127 2 228 76 291 211 27 59 31 78 31 157 1 103 -17
149 -79 203 -80 71 -194 104 -295 86z m71 -314 c15 -9 17 -15 9 -29 -14 -27
-48 -33 -60 -11 -24 45 3 65 51 40z"/>
<path d="M4182 3741 c-58 -27 -143 -110 -172 -168 -17 -34 -26 -70 -28 -121
-4 -63 -1 -79 23 -127 81 -167 299 -201 444 -69 97 87 124 199 81 330 -37 112
-111 166 -235 171 -54 3 -80 -1 -113 -16z m98 -266 c0 -21 -24 -45 -44 -45
-12 0 -5 34 11 52 22 25 33 23 33 -7z"/>
<path d="M5319 1110 c-25 -15 -62 -110 -63 -162 -1 -53 23 -94 69 -117 25 -12
35 -12 69 0 56 19 89 85 90 176 1 59 -2 67 -27 89 -21 18 -40 24 -75 24 -26 0
-54 -5 -63 -10z"/>
</g>
</svg>
