<?xml version="1.0" standalone="no"?>
<!DOCTYPE svg PUBLIC "-//W3C//DTD SVG 20010904//EN"
 "http://www.w3.org/TR/2001/REC-SVG-20010904/DTD/svg10.dtd">
<svg version="1.0" xmlns="http://www.w3.org/2000/svg"
 width="600.000000pt" height="600.000000pt" viewBox="0 0 600.000000 600.000000"
 preserveAspectRatio="xMidYMid meet">
<metadata>
Created by potrace 1.15, written by Peter Selinger 2001-2017
</metadata>
<g transform="translate(0.000000,600.000000) scale(0.100000,-0.100000)"
fill="#16364b" stroke="none">
<path d="M2092 5443 c-43 -21 -78 -82 -92 -161 -23 -128 25 -231 130 -285 44
-22 78 -30 170 -38 63 -6 116 -12 117 -13 1 0 -9 -46 -21 -101 -59 -258 -78
-365 -72 -398 16 -85 138 -127 216 -74 46 30 66 68 85 162 9 44 31 132 50 195
64 220 67 276 20 355 -34 58 -82 101 -146 129 -58 25 -149 46 -205 46 -31 0
-32 0 -32 49 0 118 -113 187 -220 134z"/>
<path d="M3333 5419 c-42 -27 -67 -81 -60 -132 11 -78 66 -125 157 -136 52 -6
68 -13 88 -36 23 -27 24 -35 19 -105 -3 -48 -16 -105 -36 -159 -36 -98 -39
-143 -11 -188 57 -94 202 -87 257 13 31 56 71 201 84 304 18 151 -16 267 -101
344 -107 96 -317 147 -397 95z"/>
<path d="M1550 4811 c-164 -36 -232 -61 -267 -97 -35 -38 -49 -85 -39 -142 8
-51 35 -84 90 -107 l47 -19 107 27 c201 51 315 57 437 22 179 -52 290 149 142
256 -68 49 -155 71 -302 75 -101 3 -149 0 -215 -15z"/>
<path d="M4284 4501 c-63 -38 -79 -144 -34 -218 26 -44 52 -58 149 -86 54 -16
92 -34 110 -51 l26 -27 0 -189 c0 -175 1 -190 21 -216 36 -50 72 -69 124 -69
95 0 133 52 156 216 22 159 16 307 -16 374 -53 110 -179 202 -356 260 -91 30
-138 31 -180 6z"/>
<path d="M1567 4458 c-121 -32 -163 -187 -73 -266 38 -33 39 -33 216 -61 69
-10 205 -31 303 -47 163 -26 181 -27 219 -14 84 30 128 128 91 200 -27 52 -69
74 -164 89 -46 7 -189 35 -316 62 -128 27 -234 49 -235 48 -2 -1 -20 -6 -41
-11z"/>
<path d="M3235 4443 c-11 -3 -49 -24 -85 -48 -211 -137 -468 -283 -586 -333
-73 -31 -104 -70 -104 -134 0 -45 4 -54 38 -88 53 -53 108 -67 176 -45 133 44
339 156 579 317 99 66 122 86 138 121 24 53 23 81 -1 135 -26 58 -93 90 -155
75z"/>
<path d="M2140 3840 c-141 -40 -283 -60 -423 -60 -111 0 -117 -1 -148 -27 -36
-30 -59 -78 -59 -121 0 -49 41 -113 90 -139 40 -21 56 -23 194 -23 119 0 175
5 266 24 151 31 280 71 314 97 107 84 51 263 -85 275 -28 2 -82 -7 -149 -26z"/>
<path d="M3678 3816 c-37 -13 -143 -67 -235 -120 -92 -52 -233 -124 -313 -158
-122 -54 -147 -68 -163 -96 -53 -91 8 -207 115 -219 38 -4 62 2 154 42 142 62
240 111 343 173 l84 51 34 -29 c77 -68 193 -39 243 61 66 128 35 250 -75 300
-54 25 -107 23 -187 -5z"/>
<path d="M4968 3465 c-32 -11 -59 -29 -87 -61 -51 -58 -67 -121 -54 -217 19
-138 -2 -192 -142 -367 -159 -197 -247 -374 -290 -578 -35 -171 0 -278 110
-334 52 -27 155 -29 205 -3 78 39 115 92 137 193 14 69 78 230 118 297 13 23
59 84 101 136 156 191 197 260 230 389 21 82 15 298 -10 378 -42 132 -187 208
-318 167z"/>
<path d="M2016 3200 c-34 -11 -73 -45 -92 -82 -21 -40 -18 -117 6 -156 29 -48
86 -69 235 -87 227 -28 218 -26 227 -61 17 -66 106 -115 180 -100 120 24 164
151 97 285 -32 63 -63 93 -136 130 -57 28 -103 37 -283 56 -85 8 -166 17 -180
20 -14 2 -38 0 -54 -5z"/>
<path d="M4325 3133 c-16 -8 -48 -32 -70 -53 -99 -93 -332 -222 -500 -278 -50
-17 -140 -38 -200 -47 -157 -25 -210 -57 -236 -145 -22 -74 27 -147 113 -171
53 -14 248 10 372 46 255 74 680 344 740 469 32 68 13 135 -50 177 -36 24
-126 25 -169 2z"/>
<path d="M1345 2991 c-72 -33 -125 -111 -125 -183 0 -18 9 -62 21 -98 11 -35
26 -125 34 -200 8 -74 20 -180 25 -235 14 -124 44 -279 72 -365 27 -86 93
-218 126 -254 95 -102 263 -78 329 47 22 42 23 133 2 172 -9 17 -31 56 -48 87
-68 122 -112 299 -136 544 -32 325 -48 394 -107 451 -58 56 -122 67 -193 34z"/>
<path d="M2095 2412 c-208 -63 -299 -179 -232 -296 47 -82 131 -97 237 -42 36
19 82 37 101 41 34 6 40 3 81 -39 53 -53 81 -66 148 -66 117 0 171 130 102
242 -89 143 -272 209 -437 160z"/>
<path d="M3905 2110 c-38 -5 -128 -16 -200 -25 -172 -21 -222 -30 -400 -71
-82 -19 -226 -48 -319 -64 -175 -29 -199 -39 -240 -93 -24 -33 -33 -130 -17
-180 16 -47 79 -103 132 -117 49 -14 158 1 399 55 316 70 581 108 770 109 113
1 129 3 163 24 66 42 107 138 88 208 -36 130 -161 181 -376 154z"/>
<path d="M2221 1858 c-13 -7 -34 -26 -45 -41 -19 -25 -21 -42 -20 -145 0 -136
17 -208 74 -327 41 -85 118 -180 174 -214 37 -24 123 -29 159 -10 69 36 116
116 101 176 -4 15 -38 60 -75 99 -93 99 -111 136 -119 259 -7 112 -22 151 -72
186 -39 28 -139 37 -177 17z"/>
<path d="M4728 1670 c-45 -8 -66 -22 -147 -99 -111 -105 -261 -169 -587 -250
-88 -22 -201 -54 -250 -71 -135 -47 -293 -129 -340 -176 -103 -102 -71 -272
59 -314 55 -17 98 -6 212 55 157 83 226 105 472 151 311 57 553 170 700 327
73 79 94 122 94 192 0 120 -98 205 -213 185z"/>
<path d="M2070 1049 c-41 -17 -89 -58 -106 -91 -23 -44 -20 -120 7 -168 12
-21 50 -61 83 -88 214 -173 402 -271 609 -318 106 -25 284 -15 397 21 156 50
258 115 286 182 23 54 18 140 -11 190 -51 85 -149 106 -253 54 -243 -123 -485
-67 -829 191 -35 26 -54 32 -100 35 -32 1 -69 -2 -83 -8z"/>
</g>
</svg>
