<?xml version="1.0" standalone="no"?>
<!DOCTYPE svg PUBLIC "-//W3C//DTD SVG 20010904//EN"
 "http://www.w3.org/TR/2001/REC-SVG-20010904/DTD/svg10.dtd">
<svg version="1.0" xmlns="http://www.w3.org/2000/svg"
 width="600.000000pt" height="600.000000pt" viewBox="0 0 600.000000 600.000000"
 preserveAspectRatio="xMidYMid meet">
<metadata>
Created by potrace 1.15, written by Peter Selinger 2001-2017
</metadata>
<g transform="translate(0.000000,600.000000) scale(0.100000,-0.100000)"
fill="#16364b" stroke="none">
<path d="M1534 5751 c-41 -25 -51 -56 -75 -246 -41 -316 -2 -514 119 -600 86
-60 208 -32 300 70 135 150 292 461 292 577 0 79 -58 138 -134 138 -80 0 -106
-30 -156 -185 -42 -130 -130 -305 -152 -305 -12 0 -10 169 4 323 11 127 11
141 -6 170 -24 46 -62 70 -115 74 -34 3 -54 -1 -77 -16z"/>
<path d="M3254 5520 c-36 -14 -74 -68 -74 -106 0 -60 23 -88 118 -143 88 -52
232 -165 240 -188 2 -7 -4 -13 -13 -13 -54 0 -105 -60 -105 -125 0 -47 20 -83
71 -129 61 -56 121 -80 199 -80 73 0 114 17 153 63 58 69 60 156 6 263 -86
172 -216 308 -396 414 -94 56 -144 67 -199 44z"/>
<path d="M860 5465 c-153 -43 -264 -172 -291 -336 -15 -92 6 -197 58 -286 29
-50 115 -131 149 -139 69 -17 142 29 164 103 20 67 6 109 -56 168 -46 45 -54
58 -54 89 0 74 52 148 113 160 16 3 47 1 67 -5 55 -17 107 -4 147 36 27 27 33
41 33 74 0 60 -22 95 -75 121 -60 29 -179 36 -255 15z"/>
<path d="M2965 5173 c-55 -28 -102 -84 -140 -164 -29 -63 -38 -94 -42 -156 -4
-69 -2 -83 19 -122 36 -68 92 -94 185 -88 90 5 196 54 230 105 59 89 34 302
-45 386 -52 55 -144 73 -207 39z"/>
<path d="M2284 5020 c-39 -15 -74 -68 -74 -111 0 -52 -22 -104 -52 -120 -12
-7 -66 -32 -118 -56 -52 -23 -107 -56 -121 -72 -79 -86 -19 -231 95 -231 45 0
287 117 345 166 86 74 130 168 132 283 1 77 -15 112 -62 137 -30 15 -111 18
-145 4z"/>
<path d="M4764 4811 c-23 -10 -52 -34 -65 -52 -22 -31 -24 -43 -23 -149 2
-302 143 -506 357 -518 86 -5 143 15 190 67 47 52 60 98 55 187 -7 109 -49
187 -157 294 -92 91 -223 177 -282 186 -22 3 -49 -2 -75 -15z"/>
<path d="M2766 4140 c-88 -23 -143 -71 -172 -152 -18 -51 -18 -72 1 -134 46
-155 247 -244 455 -201 82 17 222 72 280 111 41 27 80 96 80 139 0 40 -24 91
-54 114 -27 22 -201 81 -316 108 -84 19 -224 27 -274 15z"/>
<path d="M1025 4045 c-72 -40 -99 -86 -93 -160 9 -103 68 -148 213 -159 118
-9 165 -17 165 -27 0 -12 -74 -83 -138 -133 -82 -63 -242 -166 -352 -226 -52
-29 -107 -64 -122 -78 -58 -54 -64 -168 -12 -223 66 -69 146 -63 295 20 l104
58 9 -26 c25 -73 77 -111 152 -111 42 0 59 8 143 65 152 102 242 128 372 110
36 -5 55 -2 85 13 83 42 121 106 111 188 -6 57 -44 106 -103 134 -45 22 -50
23 -155 11 -60 -6 -116 -14 -125 -18 -8 -3 7 24 34 60 111 146 112 292 3 390
-84 75 -222 116 -421 123 -113 5 -140 3 -165 -11z"/>
<path d="M4230 3784 c-206 -39 -323 -166 -307 -335 10 -117 108 -242 210 -270
23 -6 76 -9 117 -7 178 10 305 139 369 371 26 96 26 133 1 175 -32 53 -75 65
-230 68 -74 1 -146 0 -160 -2z m40 -281 c0 -15 -34 -43 -52 -43 -26 0 -18 22
13 37 27 14 39 16 39 6z"/>
<path d="M3373 3375 c-51 -31 -100 -96 -152 -205 -54 -112 -56 -164 -7 -218
l35 -37 79 1 c99 1 153 25 216 95 80 89 109 224 67 307 -40 79 -155 107 -238
57z"/>
<path d="M5061 3339 c-98 -49 -195 -135 -237 -211 -26 -48 -29 -62 -29 -143 0
-101 19 -155 77 -214 53 -55 104 -75 183 -76 128 0 246 78 308 204 26 54 33
79 36 148 3 70 0 89 -21 135 -38 81 -119 172 -166 186 -56 17 -61 16 -151 -29z"/>
<path d="M1009 2817 c-48 -32 -74 -83 -65 -129 9 -50 37 -81 104 -119 86 -49
164 -133 190 -202 12 -32 22 -73 22 -91 0 -60 -31 -128 -81 -177 -78 -79 -150
-76 -219 10 -54 66 -127 88 -189 56 -31 -15 -71 -86 -71 -123 0 -71 91 -175
198 -225 61 -29 76 -32 163 -32 90 0 99 2 171 37 125 62 229 181 268 307 24
75 26 201 6 277 -34 128 -126 264 -229 340 -129 96 -203 115 -268 71z"/>
<path d="M2175 2802 c-110 -47 -152 -94 -215 -242 -47 -111 -84 -164 -154
-224 -31 -26 -64 -62 -73 -79 -9 -18 -34 -53 -57 -78 -121 -135 -217 -302
-261 -454 -62 -212 -48 -478 32 -640 150 -300 524 -511 873 -492 294 15 614
241 779 547 79 147 157 433 180 657 23 227 -27 453 -121 539 -68 63 -130 86
-280 103 -48 6 -100 17 -115 25 -19 9 -44 44 -76 104 -58 106 -129 182 -206
219 -48 23 -71 27 -161 30 -83 2 -114 -1 -145 -15z m214 -474 c35 -75 130
-187 183 -214 19 -10 254 -44 304 -44 15 0 34 -79 34 -140 0 -79 -37 -280 -76
-415 -66 -228 -199 -406 -368 -492 -224 -114 -495 -40 -631 172 -47 73 -67
138 -72 240 -7 120 8 192 64 304 46 93 79 133 308 371 71 74 128 149 171 226
20 35 39 64 43 64 3 0 21 -32 40 -72z"/>
<path d="M4099 2317 c-24 -13 -57 -43 -74 -66 -26 -37 -30 -53 -34 -123 -3
-76 -4 -79 -25 -73 -122 37 -243 -14 -276 -118 -8 -25 -10 -59 -5 -95 9 -74
102 -478 116 -505 34 -67 87 -97 166 -97 56 0 133 25 147 48 3 5 25 7 49 5 74
-9 155 21 207 75 54 56 70 103 70 203 0 81 -64 586 -80 633 -26 76 -105 135
-181 136 -20 0 -56 -10 -80 -23z"/>
</g>
</svg>
