<?xml version="1.0" standalone="no"?>
<!DOCTYPE svg PUBLIC "-//W3C//DTD SVG 20010904//EN"
 "http://www.w3.org/TR/2001/REC-SVG-20010904/DTD/svg10.dtd">
<svg version="1.0" xmlns="http://www.w3.org/2000/svg"
 width="600.000000pt" height="600.000000pt" viewBox="0 0 600.000000 600.000000"
 preserveAspectRatio="xMidYMid meet">
<metadata>
Created by potrace 1.15, written by Peter Selinger 2001-2017
</metadata>
<g transform="translate(0.000000,600.000000) scale(0.100000,-0.100000)"
fill="#16364b" stroke="none">
<path d="M3023 5065 c-83 -47 -133 -128 -133 -216 0 -96 81 -141 164 -90 128
79 186 270 96 316 -41 21 -79 18 -127 -10z m97 -50 c29 -36 -26 -143 -99 -192
-43 -29 -57 -29 -65 1 -9 38 20 118 56 152 57 54 87 65 108 39z"/>
<path d="M4783 4740 c-12 -5 -26 -17 -31 -27 -5 -10 -13 -130 -18 -268 -12
-359 -12 -359 10 -384 20 -22 65 -28 95 -11 41 21 46 61 46 362 0 274 -1 288
-20 307 -26 24 -54 32 -82 21z"/>
<path d="M1678 4470 c-123 -67 -147 -255 -53 -415 55 -95 127 -401 150 -643
21 -211 55 -897 55 -1100 0 -392 62 -636 213 -835 107 -142 260 -224 488 -261
l35 -6 -4 -119 c-5 -143 13 -269 65 -446 20 -66 38 -132 40 -147 l5 -28 -86 0
c-132 0 -186 -32 -186 -110 0 -69 53 -110 143 -110 100 0 219 56 265 124 41
60 39 97 -11 252 -68 207 -90 326 -85 457 3 59 9 112 15 118 7 7 34 7 87 0 45
-6 248 -11 479 -11 l402 0 0 -147 c0 -171 19 -292 71 -452 19 -57 34 -109 34
-116 0 -8 -28 -14 -88 -17 -101 -6 -144 -24 -162 -67 -38 -93 58 -165 188
-141 123 22 212 92 228 179 7 37 0 71 -50 231 -51 162 -80 408 -60 508 6 29 7
30 114 46 169 26 490 109 572 148 90 43 172 117 234 211 169 257 188 475 64
733 -75 155 -167 226 -345 264 -50 10 -121 26 -160 34 -38 8 -146 27 -240 42
-176 27 -245 47 -530 154 -281 105 -436 195 -619 356 -182 161 -350 380 -546
709 -185 312 -354 517 -481 585 -82 43 -183 52 -241 20z m171 -144 c31 -16
103 -91 121 -127 7 -13 30 -41 51 -61 52 -52 160 -205 265 -378 172 -285 319
-477 513 -670 136 -135 251 -220 397 -294 107 -53 136 -65 399 -163 248 -92
257 -95 492 -138 225 -41 424 -90 473 -115 91 -47 171 -180 199 -334 20 -110
-15 -248 -96 -375 -48 -74 -107 -128 -178 -162 -70 -33 -456 -133 -583 -151
-102 -14 -793 -17 -1117 -5 -350 14 -453 44 -576 166 -103 102 -166 250 -205
476 -10 59 -18 209 -24 440 -26 1007 -85 1447 -229 1708 -48 88 -55 144 -19
177 26 24 77 26 117 6z"/>
<path d="M2487 2612 c-10 -10 -17 -29 -17 -41 0 -26 45 -71 71 -71 51 0 83 97
40 120 -30 16 -76 12 -94 -8z"/>
<path d="M2952 2354 c-13 -9 -22 -25 -22 -42 0 -35 9 -47 44 -66 35 -18 68 -6
85 31 16 34 14 50 -9 73 -24 24 -67 26 -98 4z"/>
<path d="M5233 3966 c-55 -18 -100 -46 -145 -93 -116 -119 -106 -315 23 -441
70 -68 118 -87 224 -87 82 0 97 3 155 32 78 38 155 111 183 173 31 65 29 160
-3 225 -33 67 -101 133 -180 173 -57 28 -75 32 -140 31 -41 0 -94 -6 -117 -13z
m126 -277 c35 -12 38 -21 15 -44 -29 -28 -75 1 -61 39 8 19 6 19 46 5z"/>
<path d="M4227 3746 c-132 -49 -241 -201 -241 -336 0 -102 44 -169 144 -221
66 -35 194 -34 265 0 150 75 201 223 135 396 -49 127 -192 203 -303 161z m86
-278 c7 -21 -12 -48 -33 -48 -24 0 -26 17 -3 42 19 21 30 23 36 6z"/>
<path d="M5364 1114 c-32 -7 -52 -34 -75 -100 -29 -81 -22 -139 20 -176 52
-47 124 -33 163 30 15 25 23 56 26 112 4 69 2 79 -19 103 -24 28 -71 40 -115
31z"/>
</g>
</svg>
