<?xml version="1.0" standalone="no"?>
<!DOCTYPE svg PUBLIC "-//W3C//DTD SVG 20010904//EN"
 "http://www.w3.org/TR/2001/REC-SVG-20010904/DTD/svg10.dtd">
<svg version="1.0" xmlns="http://www.w3.org/2000/svg"
 width="600.000000pt" height="600.000000pt" viewBox="0 0 600.000000 600.000000"
 preserveAspectRatio="xMidYMid meet">
<metadata>
Created by potrace 1.15, written by Peter Selinger 2001-2017
</metadata>
<g transform="translate(0.000000,600.000000) scale(0.100000,-0.100000)"
fill="#16364b" stroke="none">
<path d="M2181 5349 c-145 -28 -261 -153 -290 -314 -8 -44 -8 -140 -1 -353 6
-161 10 -438 8 -615 -1 -177 -1 -419 1 -537 3 -152 -1 -264 -13 -380 -28 -276
-26 -268 -50 -274 -47 -13 -491 -18 -550 -7 -33 6 -61 13 -64 15 -2 3 -7 20
-11 38 -4 19 -14 34 -24 36 -14 3 -17 -4 -17 -34 l0 -37 -36 46 c-44 57 -69
63 -61 15 4 -18 9 -43 13 -55 6 -23 6 -23 -34 -9 -34 12 -43 12 -52 1 -12 -14
-11 -15 40 -54 l25 -19 -38 -7 c-26 -5 -37 -12 -37 -25 0 -18 33 -26 240 -61
74 -13 338 -18 515 -10 l90 4 6 -164 c7 -177 39 -512 65 -674 30 -186 129
-373 263 -497 87 -81 166 -123 284 -153 66 -16 91 -26 88 -36 -2 -8 -6 -68 -8
-134 -6 -143 14 -256 77 -439 43 -124 47 -146 28 -146 -142 -3 -195 -19 -216
-65 -19 -41 -14 -72 17 -107 27 -30 34 -33 104 -36 90 -5 162 16 213 61 76 66
81 115 24 256 -66 162 -84 254 -84 421 -1 80 3 158 7 174 7 26 11 28 45 22 70
-10 737 -28 852 -22 l116 6 -4 -123 c-4 -141 19 -300 68 -466 17 -56 28 -107
24 -113 -4 -6 -25 -8 -53 -4 -74 10 -141 -7 -173 -43 -29 -33 -36 -77 -18
-112 40 -74 249 -69 341 8 60 51 75 126 43 214 -59 167 -95 433 -75 565 6 43
15 82 19 86 4 3 70 14 147 23 293 34 359 57 466 164 120 120 173 264 190 511
11 168 2 294 -31 470 -35 183 -84 273 -237 431 -51 53 -93 98 -93 101 0 3 28
9 63 12 108 12 298 56 421 97 65 21 123 39 129 39 14 0 132 77 149 97 10 12
10 17 -2 27 -8 6 -15 20 -15 31 0 14 -8 21 -30 25 -20 4 -26 8 -17 13 19 12
14 37 -7 37 -10 0 -30 -9 -44 -20 -33 -26 -45 -25 -49 3 -6 40 -33 26 -36 -20
-3 -41 -3 -41 -70 -66 -214 -79 -437 -127 -581 -127 l-86 1 -110 105 c-142
137 -253 219 -450 334 -389 227 -486 310 -648 550 -130 193 -162 280 -252 697
-63 291 -76 336 -118 408 -69 117 -148 182 -253 210 -64 16 -78 17 -143 4z
m157 -186 c45 -26 94 -84 120 -143 20 -47 53 -177 103 -404 69 -321 134 -484
287 -716 157 -238 232 -301 688 -573 285 -171 327 -202 521 -388 220 -212 286
-281 344 -358 58 -76 79 -130 110 -281 20 -99 24 -144 24 -320 -1 -182 -3
-214 -23 -283 -37 -128 -77 -196 -146 -245 -58 -41 -93 -51 -246 -72 -337 -46
-487 -53 -920 -42 -586 15 -638 17 -709 36 -121 32 -211 96 -285 199 -94 131
-123 232 -168 572 -29 218 -32 265 -32 505 0 217 4 294 22 425 36 270 41 428
31 1050 -5 319 -12 654 -15 745 -6 174 -1 207 43 256 66 74 161 89 251 37z"/>
<path d="M2617 2832 c-34 -37 -17 -91 34 -112 30 -13 33 -12 55 14 45 52 21
116 -43 116 -16 0 -37 -8 -46 -18z"/>
<path d="M3148 2773 c-26 -30 -28 -41 -19 -67 13 -33 65 -60 89 -47 46 25 59
76 27 111 -23 25 -77 26 -97 3z"/>
<path d="M2876 1875 c-24 -24 -20 -52 11 -72 22 -15 54 -19 180 -21 159 -4
183 1 183 37 0 10 -6 26 -14 37 -13 17 -28 19 -153 20 -76 0 -150 4 -164 8
-19 5 -31 3 -43 -9z"/>
</g>
</svg>
