<?xml version="1.0" standalone="no"?>
<!DOCTYPE svg PUBLIC "-//W3C//DTD SVG 20010904//EN"
 "http://www.w3.org/TR/2001/REC-SVG-20010904/DTD/svg10.dtd">
<svg version="1.0" xmlns="http://www.w3.org/2000/svg"
 width="600.000000pt" height="600.000000pt" viewBox="0 0 600.000000 600.000000"
 preserveAspectRatio="xMidYMid meet">
<metadata>
Created by potrace 1.15, written by Peter Selinger 2001-2017
</metadata>
<g transform="translate(0.000000,600.000000) scale(0.100000,-0.100000)"
fill="#16364b" stroke="none">
<path d="M2223 5459 c-70 -21 -118 -126 -118 -259 0 -62 5 -85 28 -132 33 -68
82 -111 144 -128 43 -13 253 -8 310 7 14 3 23 1 23 -6 0 -7 -28 -60 -62 -119
-125 -216 -218 -426 -218 -491 0 -51 11 -80 45 -113 53 -54 153 -46 198 15 13
18 34 59 47 92 37 96 77 170 173 325 113 181 136 231 144 313 5 55 2 72 -19
118 -35 76 -70 114 -136 146 -53 26 -65 28 -162 26 -58 -1 -129 -6 -157 -11
-29 -5 -54 -7 -56 -5 -2 2 1 21 7 43 28 108 -82 212 -191 179z"/>
<path d="M3752 5235 c-75 -17 -138 -50 -166 -88 -16 -22 -21 -43 -21 -95 0
-79 22 -119 82 -147 41 -20 47 -19 167 25 48 17 65 19 84 10 24 -11 25 -13 19
-103 -3 -66 -13 -116 -35 -177 -16 -47 -40 -113 -52 -148 -29 -81 -22 -123 30
-174 34 -34 43 -38 88 -38 88 0 127 49 196 248 101 289 85 488 -47 613 -35 33
-108 66 -172 78 -72 14 -93 13 -173 -4z"/>
<path d="M1625 4884 c-197 -44 -393 -143 -428 -217 -39 -81 -13 -176 60 -222
20 -12 32 -28 33 -42 0 -13 7 -41 16 -63 24 -60 74 -85 204 -99 209 -24 337
-61 453 -131 76 -46 132 -52 183 -21 73 45 100 152 56 223 -39 62 -247 152
-489 211 -51 12 -93 25 -93 28 0 18 97 34 216 35 109 1 137 5 164 20 98 58 97
209 -2 269 -28 17 -53 20 -168 22 -92 2 -157 -3 -205 -13z"/>
<path d="M3265 4363 c-62 -15 -342 -99 -480 -143 -315 -102 -333 -110 -361
-177 -34 -79 -2 -169 71 -205 55 -27 65 -25 317 71 164 62 312 110 510 166
105 29 165 109 139 187 -25 76 -113 121 -196 101z"/>
<path d="M4301 4290 c-77 -9 -108 -24 -145 -73 -40 -54 -17 -153 47 -201 27
-20 41 -21 234 -21 191 0 205 -1 219 -19 29 -41 9 -218 -41 -366 -34 -100 -33
-140 5 -183 58 -66 170 -67 235 -2 38 39 53 84 91 265 50 242 23 402 -85 503
-99 92 -288 125 -560 97z"/>
<path d="M2115 3864 c-107 -33 -230 -52 -402 -62 -129 -7 -145 -10 -182 -35
-45 -30 -81 -90 -81 -135 0 -37 36 -91 78 -115 27 -16 52 -19 144 -19 119 1
139 3 348 33 248 35 309 54 340 103 29 47 28 132 -2 176 -54 79 -116 93 -243
54z"/>
<path d="M3733 3765 c-59 -16 -112 -42 -262 -127 -106 -60 -158 -85 -296 -145
-116 -50 -145 -83 -145 -167 0 -73 69 -136 150 -136 60 0 316 108 433 182 26
17 50 29 52 26 2 -2 -14 -42 -35 -88 -49 -104 -52 -154 -14 -199 34 -41 87
-56 141 -42 85 23 117 72 188 291 60 188 58 299 -9 366 -31 31 -89 55 -131 53
-11 0 -44 -7 -72 -14z"/>
<path d="M2037 3256 c-129 -48 -157 -203 -49 -276 34 -24 44 -25 241 -31 113
-3 207 -7 208 -7 0 -1 -5 -25 -12 -52 -38 -143 103 -257 234 -191 45 24 64 50
85 121 33 112 16 216 -52 305 -73 96 -186 131 -452 140 -130 5 -173 3 -203 -9z"/>
<path d="M4910 3249 c-115 -52 -159 -141 -138 -280 6 -42 8 -87 5 -100 -9 -32
-53 -79 -164 -172 -105 -88 -152 -140 -194 -214 -122 -213 -137 -556 -32 -696
38 -50 113 -87 177 -87 94 0 196 69 232 156 19 45 18 138 -2 176 -22 42 -14
112 19 180 21 42 52 75 151 161 166 143 240 256 276 418 19 87 9 282 -18 341
-53 121 -191 172 -312 117z"/>
<path d="M4260 3189 c-13 -6 -56 -41 -95 -78 -145 -141 -389 -265 -603 -305
-138 -26 -177 -62 -177 -163 0 -69 17 -101 75 -140 40 -28 92 -30 193 -7 271
61 728 321 799 454 42 81 9 187 -72 228 -47 24 -80 27 -120 11z"/>
<path d="M1225 3036 c-37 -17 -80 -62 -94 -99 -28 -72 0 -178 60 -231 16 -14
29 -30 29 -35 0 -5 4 -43 10 -83 5 -40 16 -168 25 -283 20 -287 37 -370 102
-500 60 -120 130 -174 226 -175 54 0 79 10 120 49 67 61 74 144 22 255 -63
135 -87 255 -105 526 -20 294 -49 412 -122 495 -73 83 -191 118 -273 81z"/>
<path d="M2043 2552 c-29 -10 -70 -31 -93 -47 -94 -65 -243 -252 -256 -322
-15 -78 52 -169 133 -180 62 -8 106 18 169 103 46 64 122 134 144 134 3 0 14
-19 24 -41 10 -23 31 -49 47 -58 16 -9 29 -21 29 -27 0 -7 -13 -39 -30 -72
-43 -87 -60 -170 -60 -300 0 -130 31 -308 63 -361 59 -98 214 -95 262 6 19 40
19 90 -1 167 -19 73 -21 204 -4 266 6 25 25 75 41 112 44 100 35 166 -30 221
-31 26 -31 27 -20 71 17 70 -19 163 -97 246 -81 87 -214 120 -321 82z"/>
<path d="M3540 2195 c-47 -8 -160 -30 -251 -49 -91 -19 -246 -47 -345 -61
-203 -30 -245 -47 -282 -113 -24 -43 -29 -112 -11 -159 18 -49 79 -103 135
-119 51 -14 59 -14 296 31 133 25 297 57 363 70 66 13 152 27 191 30 l72 7 40
-40 c40 -40 91 -62 145 -62 61 0 142 52 174 114 19 37 18 134 -2 183 -18 44
-86 117 -130 140 -83 44 -229 54 -395 28z"/>
<path d="M4568 1600 c-41 -12 -89 -44 -127 -85 -65 -69 -109 -81 -401 -105
-152 -12 -218 -29 -335 -84 -183 -86 -450 -277 -482 -345 -17 -37 -21 -39 -70
-43 -41 -4 -62 -13 -105 -45 -97 -74 -133 -88 -229 -88 -80 0 -91 2 -165 40
-77 39 -172 123 -312 277 -50 55 -94 72 -168 66 -131 -11 -217 -140 -170 -253
20 -47 211 -252 308 -330 152 -121 284 -172 468 -182 122 -7 227 15 334 67 90
45 197 128 223 175 20 37 27 41 74 47 36 4 66 17 105 45 224 158 341 221 476
252 45 11 153 27 239 35 188 18 280 45 377 110 92 61 178 154 193 208 20 77
-5 158 -63 201 -58 43 -113 54 -170 37z"/>
</g>
</svg>
