<?xml version="1.0" standalone="no"?>
<!DOCTYPE svg PUBLIC "-//W3C//DTD SVG 20010904//EN"
 "http://www.w3.org/TR/2001/REC-SVG-20010904/DTD/svg10.dtd">
<svg version="1.0" xmlns="http://www.w3.org/2000/svg"
 width="600.000000pt" height="600.000000pt" viewBox="0 0 600.000000 600.000000"
 preserveAspectRatio="xMidYMid meet">
<metadata>
Created by potrace 1.15, written by Peter Selinger 2001-2017
</metadata>
<g transform="translate(0.000000,600.000000) scale(0.100000,-0.100000)"
fill="#16364b" stroke="none">
<path d="M3145 5654 c-44 -25 -60 -50 -99 -149 -73 -191 -84 -286 -40 -373 14
-28 40 -64 57 -78 50 -42 144 -82 240 -100 48 -9 87 -21 87 -25 0 -5 -17 -17
-37 -28 -67 -34 -286 -193 -421 -304 -172 -142 -186 -171 -136 -290 30 -73 49
-94 128 -141 81 -49 159 -77 394 -141 112 -31 215 -60 228 -65 37 -15 101 -12
134 5 72 37 99 146 52 212 -32 45 -78 64 -337 138 -126 36 -232 68 -235 71
-13 15 242 194 430 303 175 102 222 139 254 202 31 63 33 116 7 167 -43 85
-118 117 -356 152 -77 11 -157 26 -178 32 -35 11 -38 14 -33 40 3 16 21 63 41
105 40 87 44 136 15 193 -38 75 -130 110 -195 74z"/>
<path d="M1438 5399 c-186 -102 -455 -455 -538 -709 -28 -87 -45 -198 -36
-243 13 -69 84 -127 155 -127 17 0 64 11 106 25 90 29 376 111 423 120 52 11
54 16 -132 -368 -47 -97 -91 -199 -97 -225 -6 -26 -15 -57 -20 -70 -26 -66 3
-147 63 -178 68 -36 104 -26 348 94 124 62 248 125 276 141 93 54 118 157 61
242 -51 77 -138 91 -229 40 -30 -17 -57 -31 -61 -31 -3 0 23 60 59 133 40 83
70 161 81 210 16 73 16 80 -1 133 -22 71 -79 134 -149 165 -77 35 -211 31
-372 -9 -66 -17 -122 -29 -124 -27 -6 7 65 127 118 200 67 92 152 178 223 226
67 46 91 86 90 148 0 50 -21 84 -72 119 -47 32 -102 29 -172 -9z"/>
<path d="M4649 4445 c-117 -29 -355 -107 -373 -123 -46 -42 -60 -125 -31 -182
20 -39 74 -70 123 -70 22 0 95 16 162 35 67 20 124 34 126 32 6 -6 -206 -322
-290 -432 -43 -57 -79 -113 -82 -132 -13 -67 11 -119 69 -157 17 -12 27 -27
27 -43 0 -35 28 -90 57 -113 14 -10 100 -44 191 -74 202 -66 242 -82 242 -99
0 -7 -26 -53 -58 -103 -32 -49 -92 -145 -132 -213 -61 -102 -74 -131 -77 -174
-9 -123 114 -208 208 -144 23 15 58 64 109 152 42 72 106 173 142 226 98 142
120 191 126 275 3 54 0 78 -13 105 -26 52 -83 107 -150 144 -75 42 -115 57
-280 101 -71 20 -134 39 -138 44 -5 4 16 41 46 81 69 95 128 187 201 319 33
58 68 121 79 140 30 54 58 129 68 187 18 95 -23 177 -106 214 -48 22 -162 24
-246 4z"/>
<path d="M3810 3662 c-43 -21 -80 -75 -80 -117 0 -66 18 -92 113 -164 122 -92
133 -105 140 -170 6 -51 6 -53 -16 -46 -47 14 -176 17 -229 5 -132 -31 -257
-126 -316 -241 -38 -73 -40 -119 -9 -173 57 -100 222 -103 275 -4 9 17 29 45
43 61 26 30 26 30 72 17 100 -27 209 4 255 73 22 33 27 52 27 104 l0 63 36 0
c71 0 142 73 155 157 15 99 -44 203 -187 330 -129 115 -204 143 -279 105z"/>
<path d="M2470 3635 c-75 -17 -247 -99 -304 -146 -66 -55 -85 -142 -46 -206
48 -79 117 -87 230 -25 90 48 186 82 236 82 l37 0 -6 -52 c-4 -28 -25 -108
-48 -177 -38 -114 -89 -221 -244 -516 -41 -78 -46 -96 -42 -134 8 -74 63 -128
144 -143 135 -25 160 -23 278 25 134 54 265 100 272 94 7 -8 -67 -197 -125
-317 -65 -135 -74 -186 -44 -247 57 -111 174 -133 267 -52 36 32 137 192 198
314 81 163 124 338 107 440 -19 116 -87 202 -191 240 -67 24 -203 25 -303 1
-38 -9 -71 -14 -73 -12 -3 2 3 19 12 36 30 58 86 223 106 310 46 209 4 360
-124 445 -84 56 -199 69 -337 40z"/>
<path d="M1087 3395 c-124 -34 -330 -164 -360 -228 -23 -47 -22 -141 2 -193
50 -111 176 -160 267 -104 l36 23 -7 -34 c-3 -19 -24 -100 -46 -181 -73 -278
-114 -546 -107 -708 3 -77 6 -91 31 -124 29 -37 70 -60 162 -90 102 -33 151
-13 233 92 78 102 291 409 413 597 l98 150 15 -36 c12 -28 13 -55 6 -137 -12
-140 -23 -194 -86 -439 -77 -304 -87 -474 -35 -587 25 -53 38 -68 85 -100 49
-33 125 -36 173 -6 39 24 73 86 73 136 0 40 -26 104 -43 104 -21 0 3 161 56
370 30 118 62 258 72 310 21 123 30 338 16 415 -6 33 -16 98 -22 145 -16 127
-37 210 -61 247 -31 45 -86 73 -142 73 -124 0 -201 -75 -439 -430 -83 -123
-152 -220 -154 -214 -2 6 16 87 41 180 112 427 119 538 43 665 -26 44 -44 59
-95 86 -71 37 -137 42 -225 18z"/>
<path d="M4632 2169 c-74 -37 -117 -85 -133 -151 -8 -35 -15 -48 -25 -44 -8 3
-65 15 -127 27 -248 48 -500 -10 -631 -144 -86 -88 -122 -188 -132 -362 -9
-163 -3 -158 -90 -75 -133 126 -225 171 -349 172 -90 0 -162 -27 -240 -90 -71
-57 -156 -178 -204 -292 -21 -50 -37 -76 -41 -68 -4 7 -17 83 -30 168 -47 331
-93 439 -201 475 -169 56 -327 -113 -249 -266 27 -52 54 -162 80 -329 65 -406
111 -513 268 -622 93 -64 249 -91 319 -55 69 36 122 132 108 197 -11 49 114
353 184 448 28 38 34 41 53 31 12 -6 81 -73 155 -149 146 -150 195 -182 300
-201 151 -27 275 47 359 211 l39 75 5 200 c3 110 9 206 13 213 14 20 145 14
272 -13 64 -14 149 -28 189 -31 220 -19 395 114 442 337 55 263 -124 444 -334
338z"/>
</g>
</svg>
