<?xml version="1.0" standalone="no"?>
<!DOCTYPE svg PUBLIC "-//W3C//DTD SVG 20010904//EN"
 "http://www.w3.org/TR/2001/REC-SVG-20010904/DTD/svg10.dtd">
<svg version="1.0" xmlns="http://www.w3.org/2000/svg"
 width="600.000000pt" height="600.000000pt" viewBox="0 0 600.000000 600.000000"
 preserveAspectRatio="xMidYMid meet">
<metadata>
Created by potrace 1.15, written by Peter Selinger 2001-2017
</metadata>
<g transform="translate(0.000000,600.000000) scale(0.100000,-0.100000)"
fill="#16364b" stroke="none">
<path d="M2716 5546 c-54 -20 -86 -54 -134 -144 -93 -175 -96 -320 -10 -409
58 -59 157 -77 363 -65 72 5 132 6 135 4 3 -2 -29 -34 -70 -70 -131 -115 -264
-254 -327 -344 -86 -121 -153 -238 -160 -281 -7 -45 22 -109 72 -157 29 -29
42 -34 92 -37 221 -13 579 -53 720 -79 97 -18 145 -9 186 34 57 60 55 141 -5
199 -44 42 -72 48 -358 78 -135 15 -261 30 -280 35 l-35 8 132 130 c73 72 183
177 243 233 141 131 189 193 205 264 25 105 -18 189 -125 243 -93 46 -177 56
-373 41 -87 -6 -161 -9 -164 -5 -3 3 10 41 30 84 52 111 48 178 -13 223 -35
26 -79 31 -124 15z"/>
<path d="M1630 5176 c-121 -45 -231 -124 -381 -275 -263 -264 -322 -421 -198
-525 31 -27 37 -28 104 -23 38 3 113 11 165 17 93 12 244 10 256 -3 4 -4 -3
-52 -15 -107 -41 -194 -25 -260 76 -311 l52 -27 -112 -27 c-62 -15 -122 -34
-135 -42 -38 -24 -62 -73 -62 -128 1 -88 55 -154 134 -162 83 -10 521 132 639
206 54 35 77 74 77 133 0 53 -26 98 -74 128 -65 40 -100 37 -220 -14 -59 -25
-110 -46 -112 -46 -2 0 5 19 15 43 25 56 64 274 63 356 0 71 -19 134 -53 183
-50 69 -186 128 -300 128 -84 0 -88 10 -25 64 73 62 150 113 212 141 73 32 99
73 99 155 0 49 -5 71 -20 92 -42 56 -108 72 -185 44z"/>
<path d="M4338 4670 c-139 -25 -386 -124 -435 -175 -44 -46 -51 -92 -23 -149
24 -52 72 -85 129 -93 31 -4 57 3 128 36 102 47 197 81 225 81 17 0 19 -5 13
-32 -13 -61 -85 -235 -161 -388 -95 -191 -96 -196 -89 -242 7 -38 75 -130 113
-153 10 -6 139 -12 314 -15 163 -3 300 -9 304 -13 13 -12 -19 -94 -116 -297
-48 -102 -95 -202 -104 -224 -31 -75 -16 -139 44 -190 55 -46 146 -32 190 28
38 53 241 487 259 556 78 289 -52 404 -481 426 -68 3 -129 7 -136 10 -9 2 -5
16 14 46 38 59 101 199 131 288 36 110 43 255 14 332 -24 61 -88 129 -144 153
-44 18 -132 25 -189 15z"/>
<path d="M3815 3674 c-11 -2 -45 -9 -75 -15 -164 -33 -330 -168 -330 -269 0
-45 40 -109 81 -130 68 -35 134 -22 184 38 27 32 130 91 140 80 11 -10 -22
-123 -76 -258 l-50 -128 -77 -45 c-91 -54 -129 -88 -148 -133 -43 -103 34
-214 147 -214 34 0 61 10 117 44 70 42 161 85 333 155 163 67 222 163 170 277
-21 45 -70 89 -114 100 -26 6 -28 10 -22 38 13 65 17 232 6 273 -18 65 -70
134 -121 159 -45 22 -127 36 -165 28z"/>
<path d="M2425 3491 c-129 -33 -308 -116 -351 -162 -74 -79 -59 -199 29 -240
57 -26 73 -24 180 16 185 69 359 97 373 60 14 -35 -35 -175 -103 -296 -59
-105 -60 -155 -5 -209 80 -80 201 -60 274 45 42 62 106 213 123 294 8 40 15
109 15 154 -1 137 -45 231 -136 292 -96 64 -255 82 -399 46z"/>
<path d="M1203 3210 c-65 -10 -204 -83 -248 -131 -67 -75 -68 -180 -2 -255 37
-43 85 -64 148 -64 l48 0 -5 -32 c-2 -18 -18 -136 -36 -263 -26 -189 -32 -263
-33 -415 0 -156 3 -190 17 -216 44 -80 139 -123 227 -103 102 23 160 79 257
249 120 210 283 449 347 508 l25 24 13 -39 c9 -26 13 -94 13 -218 0 -195 -17
-344 -59 -530 -37 -163 -32 -207 28 -264 57 -53 182 -29 226 43 25 40 73 223
97 371 14 84 19 165 19 345 0 210 -3 246 -24 341 -12 58 -35 130 -50 160 -67
131 -217 175 -353 103 -66 -36 -214 -181 -301 -298 -37 -49 -67 -85 -67 -80 0
5 9 77 21 159 28 209 29 353 1 426 -54 137 -162 200 -309 179z"/>
<path d="M4765 2631 c-77 -35 -125 -113 -125 -205 0 -63 11 -57 -150 -76 -122
-15 -189 -34 -274 -78 -134 -70 -233 -190 -278 -335 -43 -143 -11 -329 85
-488 33 -54 33 -57 16 -77 -9 -12 -21 -22 -27 -22 -5 0 -54 22 -108 49 -222
110 -383 133 -541 77 -142 -50 -328 -254 -453 -499 -20 -39 -43 -70 -55 -73
-11 -4 -42 -24 -69 -45 -27 -22 -55 -39 -62 -39 -18 0 -71 72 -101 140 -48
106 -96 258 -123 394 -16 78 -70 139 -143 161 -69 20 -85 19 -145 -11 -55 -28
-89 -70 -103 -132 -23 -104 135 -581 248 -748 83 -121 184 -193 306 -215 123
-23 256 25 369 131 35 33 66 60 70 60 23 0 85 74 118 140 69 137 182 290 254
342 65 47 123 38 323 -50 107 -48 193 -72 255 -72 137 0 297 114 315 224 4 26
13 40 28 46 36 14 85 61 108 104 16 30 21 58 21 106 0 58 -5 75 -41 141 -52
98 -75 168 -71 220 3 39 6 43 40 55 20 7 94 22 163 34 276 46 392 110 454 252
40 90 36 291 -8 376 -58 112 -189 162 -296 113z"/>
<path d="M3125 2550 c-173 -18 -502 -102 -561 -142 -53 -36 -77 -85 -78 -155
-1 -53 3 -67 29 -104 38 -54 103 -89 164 -89 25 0 89 12 141 26 123 33 367 84
403 84 34 0 33 -6 -16 -115 -44 -96 -44 -168 -1 -221 49 -61 78 -77 143 -82
72 -5 138 22 177 73 35 47 91 188 110 281 40 194 -41 363 -202 424 -66 24
-192 32 -309 20z"/>
</g>
</svg>
