<?xml version="1.0" standalone="no"?>
<!DOCTYPE svg PUBLIC "-//W3C//DTD SVG 20010904//EN"
 "http://www.w3.org/TR/2001/REC-SVG-20010904/DTD/svg10.dtd">
<svg version="1.0" xmlns="http://www.w3.org/2000/svg"
 width="600.000000pt" height="600.000000pt" viewBox="0 0 600.000000 600.000000"
 preserveAspectRatio="xMidYMid meet">
<metadata>
Created by potrace 1.15, written by Peter Selinger 2001-2017
</metadata>
<g transform="translate(0.000000,600.000000) scale(0.100000,-0.100000)"
fill="#16364b" stroke="none">
<path d="M2005 5047 c-106 -36 -174 -103 -205 -205 -26 -83 -25 -115 4 -275
54 -292 58 -360 57 -1077 0 -366 -4 -712 -7 -770 l-7 -105 -51 -55 c-29 -30
-90 -98 -136 -150 -46 -52 -131 -145 -190 -207 -90 -94 -111 -111 -130 -106
-20 5 -22 3 -18 -20 5 -24 2 -27 -23 -27 -39 0 -45 -17 -18 -46 l23 -24 -22
-15 c-30 -22 -18 -48 20 -43 27 4 28 3 22 -29 -5 -25 -3 -33 8 -33 18 0 121
76 128 94 10 27 380 397 384 384 2 -7 16 -115 30 -241 31 -263 51 -350 106
-466 112 -233 270 -364 496 -410 l89 -18 -5 -54 c-18 -190 4 -405 55 -564 37
-111 36 -115 -27 -115 -82 -1 -130 -15 -161 -50 -24 -27 -28 -39 -25 -78 3
-40 8 -49 38 -70 75 -51 255 -7 324 80 46 59 47 119 2 248 -62 185 -82 377
-53 530 l12 65 50 -1 c28 0 181 -7 340 -14 160 -7 354 -11 432 -8 l141 4 -5
-125 c-6 -147 13 -258 73 -431 20 -58 38 -117 41 -132 6 -30 3 -31 -121 -43
-88 -8 -132 -36 -142 -91 -9 -51 3 -74 53 -96 108 -48 314 25 364 128 28 58
24 85 -34 244 -50 137 -87 308 -87 399 0 71 19 172 34 177 6 2 101 17 210 34
249 38 275 45 359 88 127 66 228 204 283 387 32 108 43 305 25 424 -27 176
-103 322 -236 457 -49 50 -106 103 -125 118 l-35 28 50 -6 c115 -13 381 -69
391 -82 14 -17 29 -17 111 -2 64 12 90 32 63 48 -11 7 -11 11 -1 24 7 8 9 21
5 28 -5 7 -8 22 -9 33 0 17 -8 21 -48 23 -40 3 -49 7 -57 28 -11 28 -25 31
-38 7 -9 -15 -22 -14 -168 10 -88 14 -220 33 -294 42 -265 32 -297 40 -359 88
-92 72 -169 120 -307 195 -293 158 -542 328 -671 459 -133 134 -296 399 -387
628 -50 129 -154 411 -173 470 -42 137 -133 255 -226 295 -63 28 -166 35 -222
17z m158 -161 c58 -24 108 -97 151 -225 13 -36 43 -115 68 -176 25 -60 69
-171 98 -245 135 -346 304 -617 470 -756 103 -86 405 -291 553 -376 249 -143
338 -197 395 -243 31 -25 109 -80 172 -122 257 -171 346 -249 412 -360 55 -93
83 -171 97 -276 34 -247 -10 -444 -127 -569 -52 -56 -108 -91 -167 -107 -86
-22 -617 -93 -737 -98 -69 -3 -263 0 -430 7 -166 7 -370 13 -453 15 -164 2
-215 13 -318 68 -120 63 -224 218 -266 394 -11 48 -31 187 -45 308 l-24 220 5
825 c6 914 0 1116 -42 1355 -38 217 -38 217 -26 261 11 42 51 90 86 105 31 12
92 10 128 -5z m-788 -2896 c3 -5 1 -10 -4 -10 -6 0 -11 5 -11 10 0 6 2 10 4
10 3 0 8 -4 11 -10z"/>
<path d="M2632 2734 c-22 -15 -30 -58 -14 -80 9 -13 54 -44 64 -44 19 0 48 43
48 70 0 33 -30 70 -58 70 -10 0 -28 -7 -40 -16z"/>
<path d="M3055 2615 c-14 -13 -25 -31 -25 -40 0 -27 46 -65 78 -65 55 0 84 83
40 114 -32 23 -65 20 -93 -9z"/>
<path d="M5234 3969 c-134 -42 -211 -154 -201 -294 14 -214 161 -370 333 -352
152 16 267 132 303 309 16 73 6 133 -30 196 -32 56 -65 84 -153 131 -49 26
-70 31 -125 30 -36 0 -94 -9 -127 -20z m145 -295 c10 -10 -16 -39 -38 -42 -15
-2 -24 4 -30 20 -5 13 -6 27 -4 32 5 8 62 1 72 -10z"/>
<path d="M5364 1106 c-34 -24 -68 -113 -68 -179 -1 -54 2 -61 32 -88 38 -34
74 -37 119 -9 44 27 65 73 71 156 4 63 2 73 -19 96 -30 33 -103 46 -135 24z"/>
</g>
</svg>
