<?xml version="1.0" standalone="no"?>
<!DOCTYPE svg PUBLIC "-//W3C//DTD SVG 20010904//EN"
 "http://www.w3.org/TR/2001/REC-SVG-20010904/DTD/svg10.dtd">
<svg version="1.0" xmlns="http://www.w3.org/2000/svg"
 width="600.000000pt" height="600.000000pt" viewBox="0 0 600.000000 600.000000"
 preserveAspectRatio="xMidYMid meet">
<metadata>
Created by potrace 1.15, written by Peter Selinger 2001-2017
</metadata>
<g transform="translate(0.000000,600.000000) scale(0.100000,-0.100000)"
fill="#16364b" stroke="none">
<path d="M1528 5765 c-53 -30 -214 -384 -225 -497 -17 -190 135 -234 328 -95
151 108 353 290 369 333 32 83 -54 168 -143 143 -18 -5 -73 -44 -122 -89 -50
-44 -93 -80 -98 -80 -4 0 11 36 33 80 51 102 52 140 6 186 -28 28 -41 34 -77
34 -24 -1 -56 -7 -71 -15z"/>
<path d="M831 5534 c-137 -50 -271 -190 -307 -320 -15 -56 -16 -75 -6 -122 21
-102 75 -179 160 -229 73 -43 148 -21 172 52 15 44 -1 80 -56 131 -34 32 -44
48 -44 73 0 65 61 146 133 176 38 16 40 15 88 -9 27 -15 60 -26 75 -26 38 0
79 28 103 70 42 76 20 141 -63 186 -64 35 -185 44 -255 18z"/>
<path d="M2362 5427 c-52 -29 -56 -46 -57 -261 -1 -173 -4 -212 -23 -281 -48
-175 -111 -262 -242 -334 -97 -53 -126 -90 -116 -146 11 -55 44 -86 98 -92 39
-5 56 0 117 32 228 120 362 366 392 720 12 143 5 274 -17 317 -26 51 -101 73
-152 45z"/>
<path d="M3523 5342 c-12 -2 -34 -17 -49 -35 -24 -29 -25 -35 -19 -96 12 -114
103 -259 204 -323 135 -85 271 22 219 173 -17 50 -71 132 -119 180 -60 60
-178 110 -236 101z"/>
<path d="M2982 5141 c-110 -38 -195 -160 -196 -281 -1 -77 17 -116 70 -157 70
-53 218 -38 310 32 45 35 78 138 72 229 -9 141 -127 223 -256 177z"/>
<path d="M4735 4747 l-35 -35 0 -123 c0 -70 7 -155 15 -194 29 -139 120 -277
212 -321 49 -23 131 -30 178 -14 43 14 110 71 130 111 43 83 38 187 -14 284
-40 76 -144 179 -254 252 -79 53 -108 67 -148 71 -45 4 -51 2 -84 -31z m281
-410 c9 -16 13 -31 10 -35 -8 -7 -33 26 -45 62 -10 25 -9 27 5 15 8 -7 22 -26
30 -42z"/>
<path d="M2680 4215 c-148 -41 -245 -185 -210 -310 20 -73 70 -129 147 -167
61 -30 77 -33 154 -33 80 0 91 3 170 42 94 47 225 159 253 217 21 45 20 94 -4
133 -24 41 -50 54 -185 92 -134 39 -246 48 -325 26z"/>
<path d="M1039 4077 c-121 -80 -71 -251 79 -273 74 -11 174 -44 169 -57 -10
-30 -172 -100 -357 -154 -96 -27 -122 -47 -146 -109 -30 -79 8 -162 84 -185
32 -9 56 -6 167 21 210 52 324 105 439 203 l59 51 -9 -40 c-26 -112 1 -218 71
-289 95 -95 276 -133 388 -82 95 43 146 135 147 263 0 70 -4 89 -31 142 -34
69 -88 119 -165 154 -74 34 -191 32 -260 -4 -27 -15 -56 -34 -63 -42 -24 -29
-28 -17 -14 37 47 173 -99 309 -400 373 -93 19 -118 18 -158 -9z"/>
<path d="M4178 3771 c-162 -53 -255 -180 -246 -336 15 -254 297 -376 509 -221
86 63 138 168 166 335 19 109 14 141 -26 181 -39 39 -88 51 -226 56 -98 3
-130 1 -177 -15z m92 -288 c0 -14 -34 -43 -52 -43 -25 0 -23 16 4 34 23 16 48
21 48 9z"/>
<path d="M5163 3555 c-124 -34 -224 -109 -270 -204 -24 -48 -28 -68 -28 -141
0 -71 4 -94 26 -140 30 -64 75 -112 132 -141 57 -30 170 -24 249 13 76 35 151
107 185 177 24 48 28 68 28 141 0 68 -5 93 -22 125 -29 53 -129 150 -175 170
-45 18 -57 18 -125 0z m17 -330 c-7 -8 -17 -15 -22 -15 -6 0 -5 7 2 15 7 8 17
15 22 15 6 0 5 -7 -2 -15z"/>
<path d="M2519 3452 c-149 -60 -250 -197 -330 -449 -41 -128 -70 -184 -114
-221 -40 -32 -41 -33 -168 -91 -274 -125 -482 -383 -569 -703 -19 -70 -22
-107 -22 -243 1 -145 3 -169 28 -249 78 -256 189 -397 391 -497 359 -176 740
-149 1045 74 30 22 83 65 117 95 129 112 263 393 300 627 21 137 20 634 -2
825 -34 302 -95 506 -191 651 -51 78 -110 129 -191 167 -77 36 -222 42 -294
14z m177 -424 c20 -38 71 -206 89 -288 53 -251 76 -594 51 -759 -17 -111 -61
-264 -102 -357 -24 -55 -91 -159 -124 -195 -40 -43 -132 -107 -189 -133 -226
-101 -599 30 -681 239 -21 52 -24 77 -24 190 0 148 14 215 71 335 27 57 54 93
112 150 70 69 85 80 183 119 195 78 333 188 401 319 19 37 49 123 67 192 33
124 58 189 88 222 18 21 35 11 58 -34z"/>
<path d="M3425 3362 c-46 -28 -95 -88 -150 -182 -41 -69 -50 -94 -50 -132 0
-54 27 -91 81 -108 43 -15 144 10 192 47 60 45 118 157 123 238 5 69 -1 88
-37 121 -30 29 -43 34 -82 34 -28 0 -59 -8 -77 -18z"/>
<path d="M404 2316 c-45 -20 -74 -62 -74 -106 0 -86 115 -364 207 -501 64 -94
170 -194 242 -228 43 -20 72 -26 126 -26 91 0 139 24 180 90 27 44 30 56 29
129 -3 209 -157 393 -487 581 -125 71 -172 84 -223 61z m353 -438 c67 -70 131
-163 120 -174 -18 -18 -127 94 -176 180 -53 92 -38 90 56 -6z"/>
<path d="M4315 2024 c-16 -9 -40 -28 -52 -42 l-22 -26 -23 21 c-37 34 -68 45
-120 45 -91 0 -158 -69 -158 -164 0 -24 13 -107 29 -183 52 -247 116 -381 202
-426 129 -65 246 33 334 279 52 148 82 327 65 392 -11 40 -61 93 -103 109 -41
16 -117 13 -152 -5z"/>
</g>
</svg>
