<?xml version="1.0" standalone="no"?>
<!DOCTYPE svg PUBLIC "-//W3C//DTD SVG 20010904//EN"
 "http://www.w3.org/TR/2001/REC-SVG-20010904/DTD/svg10.dtd">
<svg version="1.0" xmlns="http://www.w3.org/2000/svg"
 width="600.000000pt" height="600.000000pt" viewBox="0 0 600.000000 600.000000"
 preserveAspectRatio="xMidYMid meet">
<metadata>
Created by potrace 1.15, written by Peter Selinger 2001-2017
</metadata>
<g transform="translate(0.000000,600.000000) scale(0.100000,-0.100000)"
fill="#16364b" stroke="none">
<path d="M2356 5407 c-21 -21 -23 -36 -34 -222 -16 -257 -51 -419 -117 -531
-35 -59 -73 -95 -149 -139 -35 -21 -69 -49 -75 -62 -24 -53 -5 -101 49 -123
28 -11 36 -10 95 19 159 78 246 194 325 430 48 143 63 254 58 431 -3 85 -8
162 -12 171 -10 22 -60 49 -90 49 -15 0 -37 -10 -50 -23z"/>
<path d="M3522 5305 c-32 -23 -54 -82 -47 -125 15 -84 98 -206 178 -261 59
-40 131 -46 167 -14 33 29 51 78 44 117 -16 85 -121 231 -193 268 -55 28 -121
34 -149 15z"/>
<path d="M3005 5126 c-47 -20 -121 -110 -145 -174 -76 -203 17 -327 187 -248
79 37 128 92 152 171 37 119 19 208 -49 248 -33 20 -103 21 -145 3z m30 -225
c-8 -17 -20 -31 -25 -31 -15 0 -12 11 12 50 25 41 36 25 13 -19z"/>
<path d="M4782 4775 c-54 -24 -63 -61 -63 -259 0 -124 4 -192 16 -244 65 -285
355 -282 396 4 21 152 -65 342 -210 463 -57 47 -93 57 -139 36z"/>
<path d="M2675 4206 c-65 -21 -100 -43 -130 -81 -79 -105 -39 -217 103 -287
63 -31 73 -33 177 -33 100 0 115 3 165 27 85 43 158 106 177 156 13 36 14 49
4 84 -15 49 -59 94 -98 101 -16 2 -64 14 -107 26 -90 24 -227 27 -291 7z"/>
<path d="M1114 4131 c-36 -22 -59 -70 -51 -107 4 -21 -2 -33 -23 -51 -38 -31
-54 -81 -40 -119 18 -46 90 -114 155 -145 94 -45 215 -37 279 19 29 26 56 92
56 141 0 123 -74 212 -218 262 -70 24 -119 24 -158 0z"/>
<path d="M5166 3845 c-84 -34 -126 -72 -166 -150 -31 -60 -35 -76 -35 -144 1
-60 6 -87 26 -131 37 -77 99 -144 167 -177 48 -24 69 -28 137 -27 105 0 168
27 234 100 63 68 85 132 85 239 0 67 -4 88 -26 131 -26 50 -104 129 -163 165
-47 29 -182 26 -259 -6z m159 -286 c8 -13 -23 -49 -42 -49 -17 0 -27 25 -19
45 6 17 52 20 61 4z"/>
<path d="M4183 3752 c-128 -46 -222 -161 -231 -283 -7 -90 19 -162 81 -224 66
-65 129 -89 225 -83 187 11 323 189 322 422 -1 118 -81 176 -255 183 -69 3
-102 -1 -142 -15z m107 -272 c0 -11 -40 -50 -51 -50 -18 0 -20 23 -3 41 18 20
54 26 54 9z"/>
<path d="M3457 3360 c-39 -12 -59 -39 -127 -173 -67 -131 -73 -165 -35 -202
51 -52 140 -25 211 63 73 88 102 199 68 263 -12 24 -70 63 -86 58 -2 0 -15 -4
-31 -9z"/>
<path d="M1415 3164 c-279 -47 -491 -205 -555 -413 -36 -113 -19 -227 52 -363
74 -143 181 -227 348 -272 135 -37 221 -94 279 -185 18 -27 57 -112 87 -188
72 -184 107 -249 181 -343 112 -142 258 -242 425 -291 92 -27 331 -37 434 -20
38 7 168 16 289 21 458 19 757 67 1022 166 173 64 271 121 419 240 175 141
277 296 334 509 31 113 38 307 15 394 -31 119 -97 223 -212 332 -132 126 -242
173 -403 173 -138 1 -209 -22 -410 -130 -208 -112 -255 -123 -495 -120 -110 1
-200 7 -230 16 -83 22 -182 72 -350 177 -294 184 -459 250 -755 298 -117 18
-363 18 -475 -1z m445 -369 c109 -16 225 -52 308 -94 31 -16 118 -72 192 -125
266 -188 419 -254 639 -276 58 -6 132 -18 164 -25 49 -12 77 -12 180 0 243 27
349 62 559 186 123 73 181 94 230 85 51 -9 122 -60 182 -130 l51 -58 -1 -82
c-1 -199 -107 -356 -358 -531 -217 -152 -576 -240 -1029 -251 -156 -4 -241
-11 -322 -26 -156 -30 -304 -30 -369 0 -119 54 -174 131 -274 383 -42 107 -90
208 -121 256 -109 171 -297 310 -497 368 -75 21 -121 49 -139 85 -48 92 27
167 211 210 175 41 259 46 394 25z"/>
<path d="M474 2130 c-38 -15 -66 -61 -60 -99 3 -18 11 -41 19 -50 8 -9 24 -42
37 -74 80 -204 242 -322 368 -271 73 29 103 93 81 172 -10 36 -28 63 -78 113
-67 67 -203 163 -283 199 -48 22 -54 22 -84 10z"/>
<path d="M5040 1365 c-14 -15 -35 -25 -51 -25 -36 0 -85 -42 -99 -85 -23 -69
18 -214 75 -263 72 -64 147 -47 189 42 25 50 56 199 56 264 0 80 -115 125
-170 67z"/>
</g>
</svg>
