<?xml version="1.0" standalone="no"?>
<!DOCTYPE svg PUBLIC "-//W3C//DTD SVG 20010904//EN"
 "http://www.w3.org/TR/2001/REC-SVG-20010904/DTD/svg10.dtd">
<svg version="1.0" xmlns="http://www.w3.org/2000/svg"
 width="600.000000pt" height="600.000000pt" viewBox="0 0 600.000000 600.000000"
 preserveAspectRatio="xMidYMid meet">
<metadata>
Created by potrace 1.15, written by Peter Selinger 2001-2017
</metadata>
<g transform="translate(0.000000,600.000000) scale(0.100000,-0.100000)"
fill="#16364b" stroke="none">
<path d="M2574 5501 c-40 -24 -67 -63 -108 -153 -77 -167 -72 -294 14 -372 71
-64 181 -79 414 -56 55 5 102 8 104 5 3 -2 -31 -37 -74 -77 -179 -167 -258
-265 -387 -478 -80 -132 -82 -136 -82 -200 0 -76 22 -122 76 -159 l34 -23 270
5 c149 3 348 1 443 -4 192 -11 222 -5 262 51 55 77 19 184 -71 218 -28 11
-249 29 -472 38 l-147 6 21 37 c80 132 234 309 349 400 145 114 210 195 210
266 0 49 -35 111 -80 144 -105 76 -238 95 -469 66 -78 -10 -144 -16 -146 -14
-2 2 10 35 26 73 36 84 38 140 6 187 -12 18 -34 39 -47 46 -37 19 -110 16
-146 -6z"/>
<path d="M1630 5149 c-197 -68 -413 -263 -556 -499 -34 -57 -39 -73 -39 -127
0 -66 16 -98 67 -136 22 -17 46 -19 219 -21 147 -1 204 -6 234 -17 l40 -16 5
-131 c4 -111 8 -135 25 -158 67 -89 218 -82 277 14 18 29 21 50 22 175 1 142
1 143 -32 209 -37 76 -116 154 -194 194 -26 13 -83 33 -125 43 l-77 18 60 47
c68 54 131 89 191 105 86 23 129 84 121 174 -5 64 -29 100 -84 127 -49 24 -82
24 -154 -1z"/>
<path d="M4212 4735 c-94 -26 -212 -83 -315 -153 -48 -32 -87 -93 -87 -137 0
-43 30 -96 69 -122 59 -40 98 -32 256 47 77 39 155 74 174 77 l33 6 -7 -44
c-22 -133 -69 -246 -183 -439 -66 -113 -73 -129 -69 -168 5 -50 67 -146 115
-178 41 -28 200 -39 411 -29 82 4 166 4 186 1 l37 -7 -7 -42 c-11 -65 -79
-262 -136 -393 -37 -85 -52 -131 -51 -162 2 -150 206 -182 276 -43 69 134 174
424 197 540 16 83 8 195 -19 247 -28 55 -102 118 -160 139 -60 21 -275 38
-370 30 -40 -3 -76 -3 -81 0 -5 3 13 56 40 119 126 290 134 527 21 643 -21 21
-56 47 -77 58 -52 25 -180 30 -253 10z"/>
<path d="M1960 3979 c-58 -23 -192 -63 -299 -90 -106 -26 -204 -55 -217 -64
-56 -37 -77 -149 -38 -203 34 -44 82 -72 128 -72 103 0 560 134 644 188 33 22
54 69 54 122 0 56 -21 101 -62 130 -52 37 -93 35 -210 -11z"/>
<path d="M3770 3710 c-112 -23 -358 -181 -417 -269 -29 -44 -31 -113 -3 -159
11 -18 39 -42 64 -53 62 -31 100 -21 185 49 75 61 178 128 186 120 9 -9 -36
-150 -84 -260 -92 -213 -84 -201 -144 -230 -76 -37 -111 -85 -111 -152 0 -68
27 -114 84 -144 59 -30 92 -26 205 30 50 24 140 64 200 88 219 87 289 134 331
225 29 60 30 97 5 150 -35 78 -105 115 -191 101 l-38 -6 14 53 c25 89 30 235
9 296 -41 123 -159 188 -295 161z"/>
<path d="M2363 3435 c-96 -18 -218 -52 -270 -75 -53 -23 -83 -70 -83 -128 0
-76 51 -140 131 -163 35 -11 50 -9 142 19 141 44 181 51 265 52 69 0 72 -1 72
-24 0 -35 -37 -147 -77 -235 -52 -113 -40 -185 41 -245 40 -30 120 -29 164 2
59 43 148 247 172 395 29 179 -38 326 -179 390 -38 17 -69 21 -176 23 -79 2
-158 -3 -202 -11z"/>
<path d="M1147 3165 c-75 -28 -152 -76 -175 -109 -49 -72 -51 -135 -6 -213 30
-52 78 -82 143 -90 51 -6 51 -6 51 -42 0 -20 -7 -90 -15 -156 -51 -417 -18
-748 83 -822 59 -43 138 -50 204 -17 27 14 88 81 88 98 0 5 19 28 43 51 27 27
61 80 96 151 73 148 171 295 254 379 61 62 69 68 78 52 6 -11 11 -94 11 -200
0 -199 -11 -281 -63 -477 -35 -132 -34 -173 6 -226 64 -84 186 -83 241 1 37
57 118 443 135 649 13 159 3 335 -26 421 -25 75 -75 138 -132 166 -69 34 -167
33 -247 -4 -116 -54 -242 -163 -345 -301 -60 -80 -58 -87 -35 128 9 86 14 188
11 236 -9 151 -67 261 -166 312 -44 23 -65 28 -125 27 -39 0 -88 -7 -109 -14z"/>
<path d="M4850 2761 c-122 -25 -199 -121 -200 -252 l0 -56 -127 -38 c-201 -58
-312 -112 -384 -186 -163 -167 -169 -468 -13 -705 25 -37 43 -70 42 -74 -2 -3
-22 -23 -45 -43 l-41 -38 -59 22 c-236 87 -289 103 -374 107 -99 5 -165 -11
-268 -63 -151 -77 -306 -231 -397 -392 -34 -60 -59 -92 -85 -109 -21 -13 -41
-29 -46 -37 -16 -25 -66 -57 -90 -57 -80 0 -218 210 -284 433 -26 91 -55 128
-121 161 -112 56 -231 15 -267 -93 -17 -53 -14 -82 28 -208 76 -231 184 -426
297 -534 208 -197 473 -199 682 -5 26 24 57 47 70 50 40 13 82 57 114 120 67
134 182 282 253 326 79 49 130 43 276 -30 97 -49 178 -70 270 -70 168 1 331
119 360 259 11 54 16 60 50 75 81 36 134 105 145 189 10 71 -11 127 -72 199
-51 58 -84 129 -84 180 0 26 42 43 191 77 80 19 160 44 197 63 177 89 281 294
253 498 -11 85 -34 141 -73 177 -45 43 -134 67 -198 54z"/>
<path d="M3136 2485 c-129 -25 -473 -118 -517 -141 -40 -20 -87 -79 -100 -126
-29 -111 34 -211 149 -234 18 -4 80 8 173 34 233 65 435 109 447 97 2 -2 -5
-32 -17 -66 -26 -77 -26 -112 -2 -164 23 -49 53 -77 109 -98 80 -32 167 -12
224 49 34 38 77 176 85 274 13 170 -67 305 -217 364 -62 25 -231 30 -334 11z"/>
</g>
</svg>
