<?xml version="1.0" standalone="no"?>
<!DOCTYPE svg PUBLIC "-//W3C//DTD SVG 20010904//EN"
 "http://www.w3.org/TR/2001/REC-SVG-20010904/DTD/svg10.dtd">
<svg version="1.0" xmlns="http://www.w3.org/2000/svg"
 width="600.000000pt" height="600.000000pt" viewBox="0 0 600.000000 600.000000"
 preserveAspectRatio="xMidYMid meet">
<metadata>
Created by potrace 1.15, written by Peter Selinger 2001-2017
</metadata>
<g transform="translate(0.000000,600.000000) scale(0.100000,-0.100000)"
fill="#16364b" stroke="none">
<path d="M2386 5378 c-12 -17 -16 -50 -16 -143 0 -152 -24 -368 -52 -464 -24
-82 -78 -172 -128 -214 -18 -16 -65 -44 -104 -64 -39 -20 -74 -41 -78 -47 -23
-35 6 -96 46 -96 9 0 52 17 94 37 56 27 96 57 147 108 115 116 153 220 180
497 17 186 20 361 5 389 -15 28 -74 26 -94 -3z"/>
<path d="M3535 5281 c-11 -5 -28 -24 -38 -43 -18 -34 -18 -36 1 -91 36 -102
111 -187 196 -222 49 -21 79 -19 111 7 24 19 27 26 22 65 -7 66 -106 217 -172
261 -35 24 -92 35 -120 23z"/>
<path d="M3024 5111 c-145 -66 -229 -313 -137 -405 55 -56 136 -24 222 87 105
137 121 281 36 322 -43 20 -71 19 -121 -4z m66 -116 c0 -38 -85 -167 -117
-180 -23 -8 -8 69 23 122 35 61 94 97 94 58z"/>
<path d="M4765 4739 c-37 -18 -46 -47 -52 -178 -16 -334 67 -552 194 -510 24
7 40 23 56 52 20 38 22 56 21 182 0 155 -19 251 -73 369 -40 88 -86 114 -146
85z"/>
<path d="M2664 4212 c-49 -23 -79 -77 -69 -123 16 -71 113 -135 252 -164 175
-37 303 6 303 104 0 52 -29 85 -100 112 -233 89 -315 104 -386 71z"/>
<path d="M5243 3962 c-141 -50 -212 -149 -213 -299 0 -95 26 -163 90 -235 70
-79 142 -113 235 -113 162 2 288 116 327 298 28 134 -21 240 -151 325 -53 34
-62 37 -146 39 -68 3 -103 -1 -142 -15z m157 -318 c0 -23 -46 -40 -65 -24 -18
15 -20 47 -2 53 20 7 67 -14 67 -29z"/>
<path d="M4190 3734 c-94 -34 -165 -100 -207 -191 -52 -113 -40 -209 36 -284
150 -149 411 -107 516 82 28 51 30 61 30 164 0 138 -13 164 -100 208 -50 26
-74 31 -145 34 -60 2 -98 -2 -130 -13z m120 -252 c0 -18 -33 -52 -51 -52 -24
0 -24 15 1 40 20 20 50 27 50 12z"/>
<path d="M1253 3722 c-132 -47 -201 -152 -191 -292 11 -150 125 -280 291 -332
34 -10 73 -26 87 -35 58 -37 109 -111 147 -212 27 -71 122 -535 148 -721 9
-63 22 -160 30 -215 45 -318 189 -554 401 -658 l42 -20 -5 -56 c-6 -75 18
-113 91 -147 81 -37 155 -40 392 -14 l210 22 42 -21 c28 -14 47 -33 56 -55 39
-93 156 -65 156 37 0 35 -7 51 -36 85 l-36 42 269 1 c385 0 722 14 823 34 109
21 214 62 423 164 351 172 525 357 582 615 49 222 -25 543 -169 733 -122 161
-344 251 -550 222 -153 -20 -254 -66 -391 -176 -44 -35 -123 -88 -175 -118
-351 -198 -645 -205 -1002 -23 -182 93 -306 202 -450 396 -272 366 -438 524
-662 632 -45 21 -130 58 -191 81 -135 52 -245 62 -332 31z m278 -311 c280
-103 338 -156 687 -611 137 -178 389 -391 576 -484 198 -99 378 -141 596 -140
138 0 164 3 235 26 233 75 465 183 575 268 36 28 82 64 102 79 100 76 282 93
388 35 64 -35 107 -84 156 -176 47 -92 64 -155 64 -251 0 -160 -53 -306 -149
-409 -66 -72 -102 -94 -270 -163 -261 -108 -349 -128 -671 -156 -209 -18 -275
-19 -600 -13 -201 5 -442 7 -536 6 -195 -3 -283 10 -380 58 -147 72 -233 235
-273 520 -25 174 -31 214 -61 385 -94 539 -157 709 -316 854 -64 58 -100 79
-196 110 -36 12 -78 33 -92 46 -71 66 10 74 165 16z"/>
<path d="M2287 2392 c-23 -25 -21 -57 5 -82 28 -25 70 -26 93 0 20 23 23 63 5
85 -18 21 -83 19 -103 -3z"/>
<path d="M2827 2060 c-34 -27 -34 -40 -1 -79 32 -38 75 -42 98 -9 48 68 -31
140 -97 88z"/>
<path d="M3419 3318 c-42 -44 -159 -249 -159 -278 0 -21 49 -60 76 -60 61 0
204 211 204 300 0 73 -69 95 -121 38z"/>
<path d="M471 2021 c-38 -38 -28 -65 57 -150 77 -76 164 -131 208 -131 37 0
68 33 68 74 0 49 -41 89 -163 159 -122 70 -143 75 -170 48z"/>
<path d="M5396 1119 c-23 -4 -48 -16 -58 -29 -21 -26 -48 -111 -48 -152 0 -73
65 -127 130 -108 47 14 68 37 85 93 40 135 -5 215 -109 196z"/>
</g>
</svg>
