<?xml version="1.0" standalone="no"?>
<!DOCTYPE svg PUBLIC "-//W3C//DTD SVG 20010904//EN"
 "http://www.w3.org/TR/2001/REC-SVG-20010904/DTD/svg10.dtd">
<svg version="1.0" xmlns="http://www.w3.org/2000/svg"
 width="600.000000pt" height="600.000000pt" viewBox="0 0 600.000000 600.000000"
 preserveAspectRatio="xMidYMid meet">
<metadata>
Created by potrace 1.15, written by Peter Selinger 2001-2017
</metadata>
<g transform="translate(0.000000,600.000000) scale(0.100000,-0.100000)"
fill="#16364b" stroke="none">
<path d="M1583 5796 c-48 -22 -69 -65 -95 -200 -30 -159 -33 -424 -4 -525 55
-198 147 -254 295 -180 98 49 216 197 314 395 56 112 90 208 90 254 0 83 -64
145 -151 145 -47 0 -57 -4 -82 -31 -16 -19 -39 -67 -55 -115 -39 -120 -71
-194 -118 -272 -35 -56 -43 -64 -47 -47 -8 32 8 260 25 365 17 107 10 147 -34
189 -35 33 -92 42 -138 22z"/>
<path d="M3265 5538 c-69 -38 -96 -101 -69 -167 13 -33 35 -55 103 -104 87
-62 241 -202 241 -218 0 -5 -10 -9 -22 -9 -34 0 -85 -35 -103 -69 -35 -69 -9
-145 70 -198 151 -100 322 -79 387 46 84 160 -31 372 -320 588 -194 145 -232
162 -287 131z"/>
<path d="M900 5479 c-127 -21 -237 -106 -297 -227 -26 -53 -28 -66 -28 -177 0
-110 2 -125 27 -178 90 -192 262 -260 338 -134 38 62 25 111 -50 183 -47 46
-52 54 -52 96 0 52 18 92 57 128 23 21 34 25 78 22 134 -9 153 -3 201 61 30
41 27 115 -7 160 -43 56 -158 85 -267 66z"/>
<path d="M2977 5176 c-159 -57 -267 -249 -223 -399 18 -61 53 -102 110 -128
51 -23 96 -24 167 -3 164 49 199 101 199 293 0 97 -17 160 -53 200 -46 49
-124 64 -200 37z"/>
<path d="M2273 4985 c-39 -17 -73 -68 -73 -111 0 -49 -26 -71 -142 -118 -124
-51 -152 -69 -173 -113 -41 -84 13 -180 111 -199 54 -10 295 99 371 169 65 60
95 125 100 217 4 63 1 80 -17 108 -35 56 -111 76 -177 47z"/>
<path d="M4784 4820 c-32 -13 -72 -67 -80 -107 -10 -54 3 -259 21 -328 33
-124 102 -220 191 -265 65 -32 161 -33 219 -3 88 46 144 128 152 223 14 155
-93 301 -322 438 -90 53 -131 62 -181 42z"/>
<path d="M2769 4126 c-63 -22 -103 -50 -134 -94 -41 -59 -48 -159 -15 -226 26
-54 77 -101 139 -129 107 -48 345 -29 544 44 108 38 148 77 155 147 9 99 -34
143 -193 197 -198 67 -407 93 -496 61z"/>
<path d="M1034 4062 c-102 -48 -130 -169 -62 -265 30 -42 68 -56 178 -67 55
-6 110 -14 122 -19 19 -7 18 -11 -28 -56 -69 -68 -192 -161 -397 -300 -149
-101 -181 -127 -197 -161 -36 -74 -21 -145 43 -201 39 -34 90 -49 137 -39 17
3 64 29 106 57 42 28 76 49 77 47 34 -66 73 -100 135 -118 54 -14 102 -2 162
41 206 147 319 188 447 164 100 -18 172 31 193 131 15 72 2 122 -41 158 -48
41 -100 52 -167 37 -32 -7 -82 -17 -112 -21 -30 -4 -68 -11 -84 -15 -29 -8
-29 -8 18 50 95 117 127 219 101 318 -45 173 -185 248 -505 271 -71 6 -92 4
-126 -12z"/>
<path d="M4237 3779 c-138 -32 -276 -174 -308 -314 -42 -190 149 -365 355
-325 168 33 282 162 336 379 23 92 21 128 -10 178 -25 41 -57 58 -152 77 -84
17 -161 19 -221 5z m53 -318 c0 -11 -39 -41 -52 -41 -15 0 -8 29 10 39 22 13
42 14 42 2z"/>
<path d="M3435 3393 c-57 -15 -116 -85 -184 -220 -59 -117 -52 -188 22 -233
43 -27 156 -27 212 -1 85 39 137 138 143 271 3 76 2 89 -20 120 -38 56 -104
80 -173 63z"/>
<path d="M5100 3356 c-75 -28 -174 -97 -238 -166 -108 -117 -123 -305 -33
-418 45 -58 111 -87 197 -87 232 0 433 269 355 476 -39 103 -152 210 -220 208
-14 0 -42 -6 -61 -13z"/>
<path d="M1074 2871 c-46 -28 -64 -60 -64 -109 0 -65 22 -98 88 -131 130 -66
184 -144 184 -266 1 -120 -56 -229 -148 -286 -58 -35 -99 -29 -153 25 -75 74
-143 81 -206 22 -40 -38 -53 -91 -36 -147 15 -50 99 -135 166 -169 217 -108
537 83 628 375 41 133 25 319 -40 453 -80 165 -318 297 -419 233z"/>
<path d="M2229 2767 c-113 -32 -190 -107 -289 -284 -39 -70 -78 -121 -135
-179 -44 -45 -89 -95 -100 -112 -11 -17 -50 -70 -87 -118 -130 -170 -200 -327
-234 -524 -20 -115 -14 -256 14 -346 49 -155 181 -345 307 -441 93 -71 221
-136 331 -169 117 -35 320 -40 424 -10 91 26 235 96 307 150 233 175 431 503
500 827 13 63 18 130 18 269 0 168 -2 191 -23 252 -30 86 -88 175 -143 220
-83 67 -154 94 -288 109 -93 10 -141 27 -141 51 0 6 -18 48 -40 94 -47 97
-110 160 -194 192 -73 28 -168 36 -227 19z m106 -483 c26 -58 50 -91 101 -140
95 -90 121 -100 294 -113 178 -14 180 -15 180 -131 0 -211 -112 -546 -241
-721 -103 -140 -206 -208 -349 -230 -205 -32 -425 83 -517 268 -32 66 -37 86
-41 165 -6 111 8 177 58 285 47 101 87 159 167 245 35 37 63 71 63 77 0 5 22
36 49 68 56 67 127 174 165 251 14 28 28 52 31 52 2 0 20 -34 40 -76z"/>
<path d="M4110 2357 c-88 -28 -143 -131 -133 -248 6 -58 5 -62 -13 -55 -71 29
-138 30 -194 1 -44 -23 -99 -84 -109 -123 -26 -90 -13 -156 84 -442 60 -177
85 -219 151 -246 65 -27 149 -11 204 40 20 18 37 23 87 24 108 2 194 57 236
152 34 76 27 205 -37 663 -17 116 -29 147 -73 189 -56 53 -127 69 -203 45z"/>
</g>
</svg>
